<svg width="170" height="152" viewBox="0 0 170 152" fill="none" xmlns="http://www.w3.org/2000/svg">
<path d="M158.369 31.087C157.244 29.3435 156.006 27.6702 154.662 26.077C143.685 13.0904 129.334 7.59419 112.94 3.91264C96.0069 0.110319 76.1806 -1.07117 59.9226 5.78279C56.0964 7.41468 52.4602 9.56879 49.5837 12.5062C38.7055 23.5737 34.9743 42.1088 22.8614 56.7599C10.7485 71.4111 4.8396 89.6622 15.7144 106.986C20.3174 114.323 26.1856 120.368 33.129 125.688C41.6769 132.216 49.0512 141.047 58.9321 146.155C69.3151 151.521 83.1444 153.391 94.6366 150.933C107.747 148.13 115.436 136.981 125.443 129.392C133.333 123.4 142.773 119.477 150.503 113.295C162.348 103.83 171.33 88.6015 169.838 73.513C168.372 58.8651 166.486 43.6428 158.369 31.087Z" fill="#F9F8FE"/>
<path fill-rule="evenodd" clip-rule="evenodd" d="M20.7562 53.9505C12.7202 54.9415 6.13638 60.7249 4.15299 68.5356C3.72495 70.2211 3.59973 71.3499 3.58112 73.6888C3.56379 75.8701 3.56223 75.8854 3.28721 76.4886C2.90439 77.3285 2.22629 77.9396 0.993554 78.5556L0 79.052V81.0513V83.0507L2.619 81.7186C4.05949 80.9859 7.06639 79.4556 9.30111 78.3178C11.5358 77.18 19.0917 73.3402 26.0921 69.7849C33.0924 66.2295 40.4721 62.4794 42.4914 61.4514L46.1629 59.5822L46.1894 57.6185C46.204 56.5384 46.182 55.6551 46.1404 55.6557C46.0989 55.6562 37.3458 60.0874 26.689 65.5027C16.0323 70.918 7.28678 75.3225 7.25457 75.2904C7.22246 75.2583 7.19612 74.3255 7.19612 73.2176C7.19612 71.4769 7.22716 71.0588 7.42405 70.1426C8.4877 65.1947 11.6236 61.1559 16.0952 58.9752C20.4521 56.8504 25.526 56.8274 30.0072 58.9125L30.9533 59.3526L32.7698 58.4473L34.5863 57.542L34.1085 57.1993C30.5359 54.6368 25.3748 53.381 20.7562 53.9505ZM69.0745 58.9766C65.1702 59.5139 62.2202 61.468 61.2355 64.1692C60.6327 65.8224 60.7623 67.9773 61.5587 69.5458C62.35 71.1042 63.903 72.3925 66.0017 73.2316C67.008 73.6339 67.8513 73.8599 70.2478 74.3693C73.5709 75.0757 74.9232 75.5298 76.0495 76.3175C77.2717 77.172 77.7689 78.1177 77.7683 79.5864C77.7673 81.7594 76.4985 83.2129 73.9651 83.9431C73.267 84.1444 72.9895 84.1672 71.3248 84.1609C69.2142 84.1529 68.4968 84.0167 67.1971 83.3772C65.5407 82.5624 64.2283 80.7731 63.7908 78.7334L63.7333 78.4654H61.8249H59.9164L59.9799 78.8797C60.1914 80.2585 60.9417 82.0984 61.7556 83.234C63.8314 86.1303 67.5132 87.684 71.8633 87.499C74.9886 87.3663 77.58 86.4169 79.4022 84.7372C80.4677 83.755 81.2183 82.5351 81.5724 81.2098C81.8318 80.239 81.854 78.4234 81.6182 77.4539C81.2496 75.938 80.1126 74.369 78.7099 73.4405C77.2036 72.4435 75.4908 71.8394 71.8143 71.0083C70.4681 70.7041 68.9922 70.3451 68.5345 70.2106C66.8143 69.7053 65.6413 68.8634 65.1279 67.7654C64.903 67.2844 64.8663 67.0769 64.8648 66.2802C64.8633 65.4851 64.8988 65.2783 65.1162 64.818C65.6099 63.7727 66.8946 62.8619 68.4855 62.4295C69.2919 62.2104 71.2868 62.1296 72.2142 62.2785C74.7847 62.6913 76.6505 64.0362 77.3942 66.0121L77.5685 66.4752H79.4154C81.5176 66.4752 81.3869 66.5434 81.1063 65.5912C80.3007 62.8583 78.3982 60.7916 75.7337 59.7549C74.2999 59.1969 73.0804 58.9691 71.2759 58.9221C70.4412 58.9003 69.4506 58.9249 69.0745 58.9766ZM115.432 73.2014V87.0437H117.145H118.858V73.2014V59.359H117.145H115.432V73.2014ZM122.383 73.2014V87.0437H124.096H125.81V73.2014V59.359H124.096H122.383V73.2014ZM85.8335 61.3714C85.7964 61.4084 85.766 62.5718 85.766 63.9569V66.4752H84.1506H82.5351V67.8886V69.3021H84.1439H85.7526L85.7923 76.5401C85.8261 82.7219 85.8546 83.8726 85.9875 84.4258C86.1965 85.2958 86.4614 85.7839 86.9513 86.2014C87.7071 86.8455 88.7359 87.0388 91.4227 87.0418L93.2121 87.0437L93.1851 85.6059L93.1579 84.168L91.6719 84.1193C90.3635 84.0764 90.1528 84.0462 89.9096 83.8668C89.3189 83.4313 89.342 83.7286 89.3126 76.201L89.2855 69.3062L91.2217 69.2798L93.1579 69.2534V67.8886V66.5239L91.226 66.4975L89.2939 66.4711L89.2678 63.9142L89.2417 61.3574L87.5713 61.3308C86.6526 61.3162 85.8707 61.3345 85.8335 61.3714ZM23.1059 75.2764L0.0489532 86.995L0.0224202 88.969C0.00783215 90.0546 0.024085 90.943 0.0584501 90.943C0.0928153 90.943 2.39567 89.7858 5.17602 88.3714C29.4661 76.015 38.8981 71.2484 38.9523 71.3023C38.9871 71.3371 39.0157 72.2722 39.0157 73.3802C39.0157 75.1208 38.9847 75.5389 38.7878 76.4551C37.7241 81.4031 34.5882 85.4418 30.1166 87.6226C25.7544 89.75 20.7195 89.7715 16.1954 87.6822L15.2244 87.2338L13.4296 88.1482L11.6348 89.0625L12.1079 89.4018C13.3803 90.3142 15.2964 91.2562 17.03 91.8213C25.4478 94.5654 34.5887 91.3503 39.4824 83.9243C41.6691 80.6063 42.8642 76.2289 42.6364 72.3728C42.5033 70.1193 43.0601 69.1613 45.1266 68.0879L46.2118 67.5243V65.5375C46.2118 64.4447 46.2009 63.5523 46.1873 63.5542C46.1738 63.5562 35.7872 68.8311 23.1059 75.2764ZM135.673 66.2327C132.007 66.9253 129.577 69.2963 129.105 72.6409L129.053 73.0064H130.838H132.623L132.731 72.3783C133.134 70.0404 135.015 68.7656 137.803 68.9423C139.834 69.0711 141.091 69.9696 141.681 71.713C141.854 72.2259 141.905 72.6007 141.909 73.3963L141.915 74.4199L141.622 74.447C140.673 74.5346 137.524 75.0009 136.482 75.2079C132.945 75.9104 130.94 76.7545 129.571 78.1165C128.514 79.1696 128.166 80.0372 128.162 81.6374C128.157 83.2693 128.6 84.3636 129.724 85.4952C131.061 86.8425 132.949 87.5307 135.307 87.5301C138.218 87.5295 140.449 86.6074 141.729 84.876L142.147 84.3099L142.199 84.7264C142.227 84.9554 142.276 85.428 142.307 85.7765C142.338 86.125 142.389 86.5526 142.42 86.7269L142.476 87.0437H144.234C145.866 87.0437 145.988 87.0315 145.937 86.8724C145.792 86.4184 145.573 84.3851 145.488 82.7133C145.436 81.6905 145.421 79.3183 145.454 77.4418C145.494 75.1543 145.477 73.6712 145.402 72.9415C144.998 69.0267 143.361 67.041 139.951 66.3282C138.863 66.1006 136.635 66.0509 135.673 66.2327ZM102.067 66.2526C101.485 66.3332 100.204 66.6894 99.6242 66.9319C96.5694 68.2087 94.5346 70.8533 93.8253 74.4686C93.6271 75.4783 93.6048 77.8931 93.7838 78.9528C94.1756 81.2728 95.0304 83.1295 96.3695 84.5691C98.7517 87.1302 102.66 88.1327 106.522 87.1735C109.291 86.4858 111.609 84.4988 112.587 81.9738C112.751 81.5488 112.886 81.1778 112.886 81.1492C112.886 81.1208 112.082 81.0986 111.099 81.1003L109.312 81.1031L108.97 81.6989C108.264 82.926 107.277 83.7435 106.04 84.1262C102.413 85.2478 98.827 83.5402 97.7498 80.1789C97.611 79.7458 97.4731 79.0514 97.4432 78.636L97.3889 77.8805H105.284H113.18V76.8938C113.18 74.3847 112.468 71.9257 111.193 70.0332C110.634 69.2034 109.328 67.9581 108.527 67.4903C106.961 66.5766 105.418 66.1773 103.536 66.1986C102.89 66.2059 102.229 66.2302 102.067 66.2526ZM157.009 66.4798C156.177 66.6188 155.249 66.9454 154.608 67.325C153.882 67.7542 152.903 68.7479 152.461 69.5042L152.151 70.0332L152.149 68.2542L152.147 66.4752H150.482H148.818V76.7594V87.0437H150.525H152.233L152.272 80.6831C152.305 75.4014 152.337 74.2193 152.462 73.7143C152.85 72.1373 153.376 71.2696 154.305 70.6714C155.138 70.1354 155.653 70.0322 157.458 70.0397L159 70.0461V68.2119V66.3777L158.241 66.3892C157.824 66.3954 157.269 66.4363 157.009 66.4798ZM105.224 69.361C106.609 69.7203 108.05 70.8786 108.752 72.1966C109.095 72.8403 109.459 74.0955 109.459 74.6304V74.956H103.427H97.3944L97.4643 74.399C97.8253 71.5215 99.7251 69.5995 102.606 69.1975C103.292 69.1018 104.52 69.1785 105.224 69.361ZM142.228 78.636C142.163 80.2411 142.037 80.8118 141.516 81.8634C140.646 83.6166 138.933 84.5959 136.446 84.7613C134.431 84.8953 132.846 84.1814 132.238 82.8665C132.077 82.5171 132.028 82.2237 132.028 81.5848C132.027 80.8559 132.059 80.7014 132.295 80.3013C133.149 78.8552 135.419 78.0018 140.006 77.4021C140.787 77.3001 141.619 77.2124 141.856 77.2074L142.286 77.1981L142.228 78.636Z" fill="#111111"/>
</svg>
