<svg width="160" height="141" viewBox="0 0 160 141" fill="none" xmlns="http://www.w3.org/2000/svg">
<path d="M148.369 28.829C147.244 27.2155 146.006 25.6669 144.662 24.1926C133.685 12.1741 119.334 7.08757 102.94 3.68047C86.0069 0.161605 66.1806 -0.93181 49.9226 5.41121C46.0964 6.92145 42.4602 8.91497 39.5837 11.6334C28.7055 21.8759 24.9743 39.0292 12.8614 52.5881C0.748498 66.1471 -5.1604 83.0376 5.71441 99.0704C10.3174 105.86 16.1856 111.454 23.129 116.378C31.6769 122.419 39.0512 130.592 48.9321 135.319C59.3151 140.285 73.1444 142.016 84.6366 139.741C97.7467 137.147 105.436 126.829 115.443 119.806C123.333 114.26 132.773 110.63 140.503 104.909C152.348 96.1496 161.33 82.056 159.838 68.0923C158.372 54.5364 156.486 40.4488 148.369 28.829Z" fill="#F9F8FE"/>
<g clip-path="url(#clip0_7_16031)">
<path d="M98.987 92.2894H60.7899L41.6929 59.0596L60.7899 25.8298H98.987L118.084 59.0596L98.987 92.2894ZM61.6933 90.7193H98.0835L116.28 59.0596L98.0835 27.3999H61.6933L43.4966 59.0596L61.6933 90.7193Z" fill="#111111"/>
<path d="M86.7295 60.457C86.4701 60.4884 86.0043 60.7084 85.7917 61.0917C85.6323 61.3776 85.7261 61.7515 86.0105 61.9149C86.1043 61.9683 86.2075 61.9935 86.3075 61.9935C86.5107 61.9935 86.7045 61.8898 86.8139 61.695C86.8327 61.6761 86.8889 61.6416 86.8796 61.6384C87.2047 61.5976 87.436 61.2991 87.3953 60.9723C87.3516 60.6487 87.0546 60.4161 86.7295 60.457Z" fill="#FFDE3B"/>
<path d="M73.994 58.9341C73.9909 58.8713 73.994 58.8022 74.0162 58.733C73.994 58.799 73.9877 58.8681 73.994 58.9341Z" fill="#FFDE3B"/>
<path d="M73.994 58.9341C73.9909 58.8713 73.994 58.8022 74.0162 58.733C73.994 58.799 73.9877 58.8681 73.994 58.9341Z" fill="#FFDE3B"/>
<path d="M73.9999 58.9621C73.9999 58.9527 73.9937 58.9434 73.9937 58.9341C73.9937 58.9434 73.9968 58.9527 73.9999 58.9621Z" fill="#FFDE3B"/>
<path d="M73.9999 58.9621C73.9999 58.9527 73.9937 58.9434 73.9937 58.9341C73.9937 58.9434 73.9968 58.9527 73.9999 58.9621Z" fill="#FFDE3B"/>
<path d="M104.301 69.6138C103.091 69.5353 102.21 68.7062 101.969 68.455C101.653 68.1253 100.697 66.7248 99.9278 65.6006C99.3214 64.715 98.7993 63.9488 98.5399 63.6222C98.0616 63.0224 97.2082 60.4255 97.0269 59.5023C96.9925 59.3296 96.9768 59.1254 96.9737 58.9088C97.8771 58.5916 99.5683 58.5257 99.9935 58.6042C100.328 58.6638 100.656 58.8805 101.169 59.3798C101.591 59.788 101.947 59.9199 102.269 59.9199C102.504 59.9199 102.719 59.8508 102.929 59.7692C103.266 59.6373 103.576 59.2667 103.785 58.9621C104.195 58.9245 104.583 58.6921 104.92 58.4472C105.477 58.0389 105.539 57.3701 105.108 56.4594C105.02 56.2741 104.911 56.026 104.789 55.756C104.658 55.4577 104.511 55.1342 104.367 54.8233C104.073 54.1953 103.795 53.7211 103.379 53.4416C103.295 53.3851 103.041 53.1559 102.841 52.9737C102.697 52.845 102.544 52.7068 102.397 52.5749C102.438 52.4619 102.469 52.3488 102.479 52.2327C102.501 51.9343 102.407 51.6611 102.207 51.4476C102.044 51.2718 101.741 51.0708 101.219 51.0865C100.947 51.0959 100.644 51.1744 100.344 51.2969C99.5652 51.0833 98.2835 51.0865 97.8459 51.1053C97.5552 51.121 97.0831 51.1336 96.5767 51.1493C95.7889 51.1744 94.8949 51.2027 94.451 51.2372C93.7851 51.2906 92.9567 51.2655 92.6379 51.2278C92.3753 51.1964 92.1002 51.1336 91.8126 51.0645C91.2968 50.9452 90.7091 50.8039 90.0308 50.8258C88.9898 50.851 87.9645 51.4853 87.4737 51.7899L87.3674 51.8558C87.1704 51.972 86.1951 52.1196 85.1135 52.0945C83.7068 52.0599 79.8024 51.7962 78.6801 51.6737C78.3831 51.6423 77.9517 51.5544 77.4547 51.4539C76.1105 51.1807 74.2724 50.8101 72.5687 50.9797C70.6055 51.1744 68.6768 51.6925 66.8418 52.5216L66.4198 52.7163C65.0725 53.3349 63.2218 54.1827 61.2899 54.0383C59.6456 53.9127 56.8666 53.0428 56.8666 50.5558C56.8666 49.2275 58.3921 48.5429 59.0454 48.5429C60.0708 48.5429 60.993 49.3594 61.0742 49.5855C61.0742 50.0125 60.9867 50.2951 60.9179 50.5212C60.821 50.8384 60.6741 51.3189 61.1149 51.7334C61.4681 52.0631 62.2278 52.2358 62.8842 51.9469C63.425 51.7114 64.0659 51.1116 64.0659 49.5855C64.0659 46.8378 61.0836 45.5597 59.0673 45.5597C56.9854 45.5597 53.9688 47.3402 53.9688 50.5558C53.9688 53.809 56.1195 56.2239 59.5769 56.8582C62.0214 57.3073 63.6595 57.0843 64.838 56.6698C64.5004 57.7343 63.9971 59.2353 63.572 60.1774C62.853 61.7664 61.0492 64.0053 60.7648 64.2283C60.6897 64.2785 60.6022 64.3319 60.5084 64.3853C60.0927 64.6334 59.5769 64.9411 59.4112 65.4655C59.3049 65.8078 58.0545 68.8852 57.5981 69.9875C57.1761 71.008 57.5918 71.5764 57.9263 72.0349C58.0013 72.1385 58.0858 72.2484 58.1639 72.374C58.5609 73.0083 59.3018 73.269 59.9364 73.269C60.2083 73.269 60.4647 73.2187 60.6647 73.1308C61.4244 72.7917 61.3587 71.7114 61.2118 71.2687C61.1243 71.0112 60.9148 70.8353 60.6491 70.6124C60.5772 70.5527 60.474 70.4648 60.399 70.3925C60.6053 69.8838 61.3275 68.6403 61.5213 68.4393C61.7588 68.2227 62.9155 67.4313 63.8377 66.9038C64.7974 66.3574 66.9637 64.9286 67.9984 64.1843C68.5799 63.7667 69.1175 63.3051 69.5021 62.9565C69.8991 63.6662 70.0929 64.1623 70.1054 64.3256C70.2398 66.731 70.1429 67.246 70.121 67.3245C70.096 67.4188 70.0585 67.5098 70.021 67.604C69.824 68.0939 69.4896 68.9135 70.4336 69.9435C70.8525 70.3988 73.1658 72.754 74.0848 72.955C74.1036 72.9581 75.3477 73.1811 76.4856 73.1811C77.2484 73.1811 77.9674 73.0806 78.2362 72.7477C78.5269 72.3897 78.577 71.8779 78.3738 71.41C78.1362 70.8667 77.6204 70.5213 76.9952 70.4836C76.7045 70.4648 76.4512 70.4899 76.2262 70.5119C75.7541 70.559 75.4947 70.5841 75.0852 70.245C74.8288 70.0314 74.1442 69.4662 74.0973 69.2997C74.1974 68.8695 75.0039 65.7827 75.2915 64.9914C75.3321 64.8752 75.3884 64.7339 75.4478 64.5769C75.7104 63.886 75.9667 63.1826 76.148 62.52C76.8795 62.721 78.1831 63.0256 79.6617 63.1449C81.1434 63.2642 82.2188 63.1386 83.0847 63.0413C83.2097 63.0256 83.3223 63.0162 83.4379 63.0036C83.2785 63.6693 83.0659 64.6145 82.9878 65.3117C82.9221 65.88 82.8753 66.7467 82.8346 67.5098C82.8034 68.1222 82.7596 68.8852 82.7346 69.014C82.6033 69.4065 82.7971 69.7833 82.9847 70.1507C83.0472 70.2764 83.1535 70.4836 83.166 70.5558C83.1847 70.7254 83.4161 72.016 83.8099 72.3834C84.1601 72.7069 85.5011 72.8639 86.1201 72.8639C86.2076 72.8639 86.2795 72.8608 86.3327 72.8545C87.1829 72.7603 87.8207 72.1322 87.7488 71.4539L87.7425 71.3692C87.7144 71.0583 87.6519 70.3329 86.5828 70.2669C86.4233 70.2575 86.2795 70.2575 86.1545 70.2575C86.1107 70.2575 86.0638 70.2575 86.0201 70.2575C86.0013 70.2041 85.9794 70.1476 85.9607 70.0879C85.8512 69.7896 85.7512 69.5039 85.8044 69.2558C85.9075 68.791 86.6828 66.6651 87.0767 65.7199C87.3705 65.0196 88.0614 63.6599 88.3615 63.0821C88.5115 63.0633 88.6647 63.0413 88.8116 63.0224C89.1492 62.9816 89.465 62.9408 89.7432 62.8874C90.1683 62.8089 90.6497 62.6362 90.9905 62.498C91.7282 63.4213 93.0099 64.7716 93.5788 65.2112C93.9196 65.475 94.5542 66.0873 95.1669 66.6777C95.8327 67.3214 96.4642 67.9306 96.808 68.1787L97.0612 68.3608C98.3554 69.2809 99.0682 69.8838 99.1838 70.1476C99.5464 70.9735 101.588 72.4525 102.376 72.5844C102.385 72.5876 102.929 72.6629 103.573 72.6629C104.461 72.6629 105.548 72.5185 105.739 71.8308C105.864 71.3849 105.933 70.7442 105.57 70.2324C105.377 69.978 105.008 69.6609 104.301 69.6138ZM57.2886 47.8803C57.2792 47.6731 57.1604 47.4972 56.9916 47.3999C57.5731 47.0387 58.1983 46.8252 58.7297 46.7624V46.8032C58.7297 47.0419 58.8704 47.246 59.0736 47.3402C59.0579 47.3402 59.0423 47.3371 59.0267 47.3371C58.489 47.3402 57.8575 47.5317 57.2886 47.8803ZM62.8623 49.576C62.8623 50.2261 62.7123 50.6688 62.4372 50.8227C62.2965 50.9012 62.1371 50.8981 62.0277 50.8855C62.0308 50.8792 62.0308 50.8729 62.0339 50.8667C62.1183 50.5966 62.2434 50.1852 62.2434 49.5792C62.2434 49.4065 62.1871 49.218 62.084 49.0296L62.1434 48.97C62.3747 48.7376 62.3747 48.3608 62.1434 48.1253C61.912 47.8929 61.5369 47.8929 61.3024 48.1253L61.2806 48.1472C60.7773 47.7673 60.1302 47.4689 59.4581 47.3747C59.7082 47.3119 59.8957 47.1015 59.9082 46.8378C61.2337 47.1015 62.8623 47.9557 62.8623 49.576ZM56.1195 48.1127C56.1445 48.3199 56.2664 48.4927 56.4446 48.5806C56.2226 48.8287 56.0351 49.1113 55.8975 49.4222C55.7318 49.4379 55.5755 49.5164 55.4724 49.664C55.2817 49.9309 55.3442 50.3046 55.6099 50.4961L55.6599 50.5307C55.6599 50.5369 55.6599 50.5401 55.6599 50.5432C55.6599 51.0802 55.7537 51.5669 55.9225 52.0097C55.7068 52.0568 55.538 52.2138 55.4818 52.4273C55.2598 51.8527 55.141 51.2215 55.141 50.5432C55.141 49.5321 55.5443 48.7219 56.1195 48.1127ZM55.8225 53.137C55.8913 53.1653 55.9632 53.181 56.0413 53.181H56.1038C56.2539 53.181 56.3883 53.1182 56.4946 53.0271C56.8041 53.4291 57.1886 53.7745 57.6231 54.0634C57.4074 54.0037 57.1698 54.0665 57.0166 54.2487L56.9416 54.3366C56.926 54.3554 56.9197 54.3774 56.9072 54.3994C56.4696 54.032 56.1038 53.6112 55.8225 53.137ZM57.8951 55.0494L57.9169 55.0243C58.1139 54.7919 58.0951 54.4559 57.8951 54.2393C58.6484 54.6852 59.5269 54.9772 60.4334 55.1279C60.4178 55.1405 60.399 55.1468 60.3865 55.1625L60.1771 55.3854C60.0864 55.4828 60.0458 55.6021 60.0301 55.7214C59.9457 55.7057 59.8645 55.6963 59.7738 55.6806C59.083 55.5487 58.4515 55.3352 57.8951 55.0494ZM84.8603 68.2132C84.5602 68.276 84.2476 68.342 84.2382 68.3231C84.2382 68.2886 84.2601 68.1724 84.3664 68.0625C84.4602 67.9652 84.5915 67.9086 84.7259 67.9086C84.3976 67.9086 84.1319 68.1755 84.1319 68.5053C84.1319 68.7942 84.3414 69.0265 84.6165 69.0799C84.5196 69.6357 84.6915 70.1319 84.8228 70.4962C84.8509 70.5747 84.8791 70.65 84.9009 70.7254C85.1323 71.4539 85.7606 71.4477 86.1388 71.4508C86.242 71.4508 86.3577 71.4508 86.489 71.4571C86.5077 71.4571 86.5233 71.4602 86.5359 71.4602C86.5359 71.4634 86.5359 71.4696 86.5359 71.4728L86.539 71.5167C86.4921 71.5638 86.3671 71.6455 86.1795 71.6675C85.8481 71.6989 84.951 71.5701 84.604 71.4728C84.5039 71.2341 84.357 70.7003 84.3257 70.4239C84.2945 70.1382 84.1538 69.8681 84.0194 69.6043C83.9694 69.507 83.8975 69.3657 83.8693 69.284C83.9162 69.0642 83.9412 68.6466 84.0006 67.5726C84.0038 67.4973 84.01 67.4219 84.0131 67.3434C84.0788 67.3685 84.1476 67.3842 84.2195 67.3842C84.2882 67.3842 84.3601 67.3717 84.4289 67.3434C84.5008 67.3151 84.5508 67.2994 84.5883 67.2869C84.7259 67.2398 84.8072 67.2084 84.9697 67.1016C85.2448 66.9226 85.3261 66.5552 85.1479 66.2757C84.9697 65.9994 84.604 65.9177 84.3257 66.0967C84.2695 66.1344 84.2695 66.1344 84.207 66.1532C84.1726 66.1658 84.1288 66.1815 84.0757 66.2003C84.0944 65.9177 84.1163 65.654 84.1413 65.4436C84.2257 64.7025 84.4852 63.6034 84.6383 62.9816C84.8947 63.0162 85.1573 63.0696 85.4167 63.1229C85.8575 63.2171 86.3077 63.3113 86.7515 63.3113C86.7953 63.3113 86.8391 63.3051 86.8828 63.3051C86.5577 63.952 86.1639 64.7496 85.9544 65.2551C85.6793 65.9334 85.1698 67.2963 84.8603 68.2132ZM104.617 71.3535C104.217 71.4759 103.076 71.4979 102.554 71.41C102.125 71.3283 100.444 70.1005 100.253 69.6703C100.034 69.171 99.3714 68.5901 98.3117 67.8113C98.4805 67.6229 98.518 67.3403 98.3836 67.1142C98.3836 67.1142 98.3054 66.9791 98.2554 66.775C98.1804 66.4547 97.8584 66.2569 97.5395 66.3354C97.2769 66.3982 97.105 66.6306 97.0956 66.8881C96.7768 66.5992 96.3548 66.1941 95.9703 65.8204C95.7608 65.6163 95.5576 65.4216 95.3607 65.2332C95.3919 65.2363 95.4201 65.2489 95.4544 65.2457C95.7827 65.2175 96.0234 64.9317 95.9984 64.602C95.9734 64.3068 95.8077 64.1529 95.7077 64.0838C95.4326 63.8954 95.1387 63.9834 94.948 64.0399L94.8292 64.0744C94.6511 64.1247 94.5229 64.2503 94.4541 64.4041C94.3979 64.357 94.3353 64.3005 94.2853 64.2628C94.1822 64.1843 94.0571 64.0713 93.9196 63.9425C93.9196 63.9425 93.9196 63.9425 93.9196 63.9394C93.9227 63.9206 93.9258 63.9017 93.9258 63.8829C94.0915 63.7227 94.1571 63.4778 94.0727 63.2485C93.9383 62.8717 93.6257 62.7681 93.3975 62.7932C93.2162 62.8121 93.0943 62.8968 93.0005 63.0067C92.3159 62.2657 91.6438 61.468 91.5344 61.2451C91.2437 60.6579 89.8964 59.496 89.4931 59.1537C89.243 58.9402 88.8679 58.9747 88.6553 59.2259C88.4459 59.4771 88.4771 59.854 88.7272 60.0675C89.2836 60.5385 89.9151 61.1226 90.2496 61.4932C90.0026 61.5811 89.7338 61.6659 89.5087 61.7098C89.4556 61.7193 89.3993 61.7287 89.343 61.735C89.4931 61.4932 89.4618 61.176 89.243 60.9782C88.9992 60.7584 88.6241 60.7803 88.4052 61.0284C88.2677 61.1854 88.0207 61.4869 87.9332 61.7318C87.9082 61.7978 87.9051 61.8637 87.9051 61.9328C87.63 61.9736 87.3455 62.0239 87.061 62.0898C86.6984 62.1746 86.1982 62.0678 85.6731 61.9548C85.3511 61.8857 85.0229 61.8197 84.6852 61.7821C84.7353 61.7004 84.7884 61.6156 84.8447 61.5371C85.0322 61.2671 84.9697 60.8965 84.7009 60.705C84.432 60.5166 84.0632 60.5794 83.8725 60.8494C83.5224 61.3456 83.4129 61.6313 83.3786 61.804C83.2316 61.8197 83.091 61.8323 82.9315 61.8511C82.2876 61.9265 81.5154 62.0082 80.5495 61.9893C80.5807 61.9485 80.6089 61.9045 80.6276 61.8511C80.7402 61.5434 80.5839 61.198 80.2744 61.0849C79.5835 60.8306 79.0271 61.5277 78.8145 61.848C77.7673 61.7036 76.8733 61.4837 76.3575 61.3393C76.3762 61.1477 76.3856 60.9625 76.3731 60.7898C76.3512 60.46 76.0636 60.212 75.7416 60.2339C75.5634 60.2465 75.4134 60.3407 75.3102 60.4726C75.2446 60.3313 75.1227 60.2151 74.9632 60.1617C74.9351 60.1523 74.8695 60.1366 74.7851 60.1209C74.7413 60.1146 74.6475 60.0958 74.5787 60.0769C74.4381 59.9199 74.2161 59.8445 73.9942 59.8979C73.6753 59.9764 73.4815 60.2999 73.5597 60.6202C73.6847 61.132 74.2568 61.2357 74.6194 61.3016C74.6694 61.3142 74.7225 61.3204 74.7726 61.3204C74.9257 61.3204 75.0664 61.2545 75.1758 61.154C75.1477 61.534 75.0414 61.9987 74.9007 62.4698C74.8757 62.3567 74.832 62.25 74.7476 62.162C74.5944 61.9799 74.3037 61.6439 73.891 61.713C73.6628 61.7507 73.4721 61.9077 73.3846 62.1306C73.2627 62.4352 73.4096 62.7838 73.716 62.9063C73.7597 62.9251 73.8066 62.9377 73.8535 62.9439C73.8848 62.9785 73.9098 63.0067 73.9254 63.0224C74.0379 63.1355 74.1849 63.192 74.3349 63.192C74.4725 63.192 74.61 63.1355 74.7225 63.0381C74.5819 63.4527 74.4349 63.842 74.3224 64.1404C74.2599 64.3037 74.2036 64.4512 74.1599 64.5737C74.1411 64.6271 74.1192 64.693 74.0942 64.7653C74.0442 64.58 73.9754 64.3413 73.9442 64.2597C73.8254 63.9582 73.4909 63.8169 73.1877 63.93C72.8844 64.043 72.7313 64.3853 72.8375 64.693C72.8657 64.7778 72.9501 65.0856 73.0032 65.2928C73.072 65.5597 73.3127 65.7387 73.5784 65.7387C73.6284 65.7387 73.6784 65.7325 73.7285 65.7199C73.7628 65.7105 73.7879 65.6885 73.8191 65.6759C73.7347 65.968 73.6472 66.282 73.5597 66.6023C73.4846 66.4798 73.369 66.3793 73.222 66.3354C72.9063 66.2443 72.5781 66.4264 72.4874 66.7436C72.4093 67.0105 72.4999 67.2712 72.8125 67.7077C72.9094 67.8427 73.0532 67.9086 73.2064 67.9338C73.0689 68.4613 72.9626 68.879 72.9282 69.0234C72.7344 69.8524 73.5034 70.4899 74.3162 71.1619C75.1039 71.8119 75.7823 71.746 76.3231 71.6957C76.5231 71.6769 76.7107 71.658 76.9108 71.6706C77.1046 71.6832 77.2015 71.768 77.2484 71.837C77.2734 71.8747 77.2859 71.9093 77.2921 71.9375C76.7232 72.0506 74.9132 71.9124 74.338 71.7868C73.9473 71.6612 72.2999 70.2198 71.2964 69.1302C70.8619 68.6591 70.94 68.4676 71.112 68.0499C71.1714 67.9055 71.2245 67.7642 71.262 67.6229C71.2964 67.4878 71.3933 67.111 71.3308 65.3619C71.3402 65.387 71.3495 65.4027 71.3558 65.4153C71.4621 65.6288 71.6809 65.7576 71.9029 65.7576C71.9904 65.7576 72.0748 65.7387 72.1592 65.6979C72.453 65.5503 72.5781 65.208 72.4312 64.9129C72.4093 64.8563 72.353 64.6208 72.3061 64.4136C72.2342 64.0901 71.9154 63.886 71.5996 63.9582C71.4621 63.9896 71.3527 64.0713 71.2714 64.1718C71.2151 63.6379 70.7493 62.7021 70.1898 61.7915C70.1992 61.7915 70.2085 61.7915 70.2179 61.7915C70.4993 61.7632 70.715 61.5403 70.7493 61.2702C70.7712 61.22 70.8212 61.132 70.865 61.0692C71.0463 60.796 70.9713 60.4255 70.6993 60.2434C70.4274 60.0612 70.0585 60.1334 69.8772 60.4098C69.7365 60.6233 69.6584 60.7866 69.6177 60.9154C68.7268 59.631 67.2357 57.1063 67.22 57.0812C67.0512 56.7985 66.6886 56.7043 66.4073 56.8708C66.1259 57.0372 66.0321 57.4046 66.1978 57.6872C66.2604 57.7908 67.7296 60.281 68.6486 61.6031C68.7268 61.713 68.7924 61.8166 68.8643 61.9234C68.508 62.2531 67.9234 62.7681 67.3044 63.2109C67.0637 63.3836 66.7574 63.5971 66.4198 63.8263C66.4823 63.5155 66.2947 63.2077 65.9853 63.1324C65.6695 63.0539 65.3444 63.2454 65.2663 63.5657C65.1975 63.8452 65.1881 64.087 65.1881 64.2063C65.1881 64.3413 65.2413 64.4607 65.3163 64.5612C64.516 65.0887 63.7158 65.5943 63.2468 65.8612C63.0093 65.9962 62.7436 66.1564 62.4778 66.326C62.4716 66.2883 62.4653 66.2569 62.4622 66.238C62.4435 65.924 62.1871 65.6759 61.8683 65.6759C61.54 65.6759 61.2743 65.9429 61.2743 66.2726C61.2743 66.3825 61.2899 66.7342 61.4244 67.0199C61.1024 67.2429 60.8429 67.4376 60.7116 67.5601C60.424 67.827 59.108 69.9089 59.1611 70.537C59.1955 70.9546 59.5456 71.2467 59.8863 71.5293C59.952 71.5827 60.0427 71.6581 60.0958 71.7114C60.1146 71.8151 60.1177 71.9689 60.102 72.0631C59.877 72.104 59.3737 72.0631 59.1705 71.7366C59.0736 71.5827 58.9767 71.4508 58.886 71.3252C58.5922 70.9264 58.5328 70.8416 58.6985 70.4459C59.0111 69.6891 60.4115 66.2632 60.5459 65.8267C60.5991 65.7168 60.9367 65.5158 61.1149 65.409C61.2243 65.3431 61.3306 65.2803 61.4244 65.2175C61.6369 65.073 62.1027 64.5486 62.6279 63.8672C62.6435 64.0085 62.6748 64.1843 62.7029 64.3256C62.7592 64.6114 63.0061 64.8092 63.2844 64.8092C63.3219 64.8092 63.3594 64.8061 63.3969 64.7998C63.7189 64.737 63.9283 64.423 63.8658 64.0995C63.8658 64.0964 63.8095 63.8201 63.8033 63.707C63.797 63.3804 63.5344 63.1198 63.2093 63.1198C63.1968 63.1198 63.1875 63.1261 63.1749 63.1261C63.7501 62.3128 64.3191 61.4052 64.6536 60.6673C65.4038 59.0061 66.326 55.8753 66.3666 55.7403C66.4354 55.5079 66.3573 55.2567 66.1666 55.106C65.979 54.9552 65.7164 54.9332 65.507 55.0526C64.6004 55.5644 63.4031 56.0355 61.3306 55.8847C61.4587 55.6775 61.4494 55.4231 61.3056 55.2253C61.7776 55.2535 62.2371 55.2347 62.6842 55.1813C62.7092 55.2692 62.7467 55.3572 62.8123 55.4294L62.9499 55.577C63.0655 55.7057 63.2281 55.7717 63.3875 55.7717C63.5313 55.7717 63.6751 55.7183 63.7876 55.6147C63.9783 55.4388 64.0221 55.1656 63.9252 54.9395C64.6567 54.748 65.3382 54.4905 65.9571 54.2236C66.029 54.3931 66.1697 54.5313 66.3635 54.5753L66.5855 54.6255C66.6292 54.6349 66.673 54.6412 66.7136 54.6412C66.9856 54.6412 67.2325 54.4528 67.2919 54.1733C67.3326 53.9912 67.2763 53.8122 67.17 53.6772L67.3263 53.6049C67.8609 53.3631 68.4017 53.1622 68.9519 52.98C68.9456 53.2626 69.1301 53.517 69.4145 53.5767C69.4552 53.5861 69.4958 53.5892 69.5364 53.5892C69.8115 53.5892 70.0585 53.3945 70.1179 53.1151L70.1742 52.845C70.1898 52.7665 70.1898 52.6911 70.1742 52.6189C70.5336 52.5278 70.8931 52.4431 71.2526 52.374C71.212 52.5184 71.2089 52.666 71.2526 52.8073C71.3308 53.0585 71.5371 53.2469 71.8153 53.3223C71.8685 53.338 71.9216 53.3443 71.9716 53.3443C72.2342 53.3443 72.4718 53.1716 72.5437 52.9047C72.5906 52.7351 72.5593 52.5655 72.4718 52.4273C72.4718 52.3488 72.453 52.2766 72.4218 52.2044C72.5093 52.195 72.5968 52.1761 72.6844 52.1667C73.1845 52.1165 73.7066 52.1259 74.2286 52.1636C73.9442 52.1667 73.691 52.3614 73.6409 52.6503C73.6034 52.8795 73.6972 53.0994 73.8691 53.2281C73.891 53.2972 73.9254 53.3663 73.9754 53.4259C74.0942 53.5704 74.263 53.6458 74.4349 53.6458C74.5662 53.6458 74.7007 53.6018 74.8101 53.5107C75.0477 53.3129 75.1477 53.0334 75.0758 52.7602C74.9695 52.3583 74.5756 52.2201 74.3974 52.1761C74.9039 52.2201 75.404 52.2923 75.8823 52.374C75.826 52.4116 75.7729 52.4556 75.7323 52.5153C75.5822 52.7288 75.5885 53.0083 75.7323 53.2124C75.726 53.3726 75.7823 53.5358 75.9042 53.6583C76.0199 53.7745 76.173 53.8342 76.3231 53.8342C76.4731 53.8342 76.6263 53.7745 76.742 53.6583C76.9014 53.4982 76.9827 53.2783 76.9639 53.0554C76.9483 52.867 76.8639 52.6848 76.7263 52.5341C76.892 52.5655 77.0546 52.6001 77.2077 52.6315C77.736 52.7382 78.1893 52.8293 78.5394 52.867C78.702 52.8858 78.9302 52.9047 79.1959 52.9298C79.2584 53.225 79.4116 53.5264 79.6023 53.652C79.7023 53.7211 79.818 53.7525 79.9305 53.7525C80.1212 53.7525 80.3119 53.6583 80.4244 53.4856C80.5182 53.3474 80.537 53.1841 80.5026 53.0334C81.4279 53.0994 82.4845 53.1684 83.4004 53.2187C83.3598 53.3914 83.3379 53.583 83.3754 53.7557C83.4348 54.0383 83.6912 54.2518 83.9694 54.2518C84.0069 54.2518 84.0444 54.2487 84.085 54.2393C84.407 54.1702 84.6133 53.8781 84.5446 53.5578C84.5446 53.5327 84.5602 53.473 84.5696 53.4416C84.5977 53.3883 84.6102 53.3317 84.6227 53.2784C84.7884 53.2846 84.9447 53.2909 85.0729 53.2941C85.8481 53.3129 87.3017 53.2501 87.9269 52.9047C87.9957 53.159 88.2145 53.3506 88.4896 53.3506C88.8179 53.3506 89.0836 53.0837 89.0836 52.7539V52.3237C89.0836 52.308 89.0773 52.2955 89.0742 52.2798C89.2711 52.195 89.4743 52.1227 89.6775 52.0788C89.6744 52.1039 89.6619 52.1259 89.6619 52.151C89.6619 52.4807 89.9276 52.7477 90.2558 52.7477H90.3809C90.7091 52.7477 90.9748 52.4807 90.9748 52.151C90.9748 52.1385 90.9686 52.1259 90.9686 52.1133C91.1562 52.1479 91.3437 52.1887 91.5344 52.2358C91.8439 52.308 92.1627 52.3802 92.491 52.4211C92.7754 52.4556 93.2631 52.4745 93.7664 52.4682C93.7195 52.5059 93.6726 52.5467 93.6382 52.6001L93.5569 52.7257C93.3788 53.002 93.4569 53.3726 93.732 53.5515C93.832 53.6175 93.9446 53.6458 94.054 53.6458C94.2478 53.6458 94.4385 53.5484 94.5542 53.3726L94.6354 53.2469C94.8074 52.9769 94.7355 52.6252 94.476 52.4399C94.4948 52.4399 94.5166 52.4368 94.5354 52.4368C94.873 52.4085 95.5201 52.3865 96.1672 52.3677C96.1672 52.5373 96.2328 52.7068 96.3735 52.823L96.4485 52.8858C96.5611 52.98 96.6955 53.024 96.8268 53.024C96.9987 53.024 97.1644 52.9518 97.2832 52.8105C97.3988 52.6723 97.4332 52.4964 97.4051 52.33C97.5958 52.3237 97.7646 52.3174 97.8959 52.3112C98.1991 52.2955 98.5586 52.2986 98.9056 52.3174C98.89 52.3363 98.8712 52.3551 98.8556 52.374C98.6524 52.6315 98.6962 53.0083 98.9525 53.2124C99.2088 53.4165 99.584 53.3726 99.7871 53.1151C99.9935 52.8544 100.3 52.6409 100.587 52.4933C100.591 52.4933 100.591 52.4902 100.594 52.4902C100.856 52.3551 101.106 52.2766 101.247 52.2672C101.147 52.4462 100.897 52.7288 100.653 52.9266C100.397 53.1339 100.356 53.5076 100.562 53.7651C100.681 53.9127 100.853 53.988 101.025 53.988C101.156 53.988 101.285 53.9441 101.397 53.8561C101.422 53.8373 101.456 53.809 101.491 53.7776C101.45 53.8593 101.422 53.9472 101.422 54.0414V54.2393C101.422 54.569 101.688 54.8359 102.016 54.8359C102.307 54.8359 102.535 54.6224 102.588 54.346C102.635 54.3837 102.679 54.4183 102.719 54.4434C102.916 54.5753 103.129 54.9898 103.291 55.3383C103.432 55.6429 103.576 55.9632 103.704 56.2521C103.829 56.5316 103.942 56.7891 104.035 56.9807C104.22 57.3669 104.214 57.4894 104.223 57.4894C103.832 57.7751 103.695 57.7908 103.698 57.794C103.604 57.7783 103.47 57.7375 103.345 57.7029C103.041 57.6181 102.876 57.571 102.685 57.6181C102.366 57.6966 102.172 58.0232 102.254 58.3404C102.288 58.4817 102.372 58.5947 102.479 58.6732C102.244 58.7643 102.235 58.758 101.997 58.5288C101.491 58.0389 100.925 57.5679 100.203 57.4391C100.025 57.4077 99.6809 57.3889 99.2588 57.3952C99.312 57.2633 99.3245 57.1094 99.2714 56.965C99.1588 56.6541 98.8181 56.4971 98.5086 56.6101L98.3711 56.6604C98.0616 56.7734 97.9053 57.1157 98.0178 57.4266C98.0241 57.4454 98.0397 57.4611 98.0491 57.48C97.7083 57.5208 97.3676 57.5805 97.0456 57.659C97.0737 57.4297 97.105 57.2539 97.1238 57.1942C97.2457 56.8896 97.0988 56.541 96.7924 56.4186C96.4861 56.2961 96.1422 56.4437 96.0203 56.7514C95.939 56.9555 95.839 57.5647 95.8014 58.2336C95.7295 58.2054 95.6483 58.1677 95.5732 58.1331C95.2763 57.995 94.923 58.1268 94.7855 58.4283C94.6479 58.7266 94.7792 59.0815 95.0793 59.2196C95.4982 59.4112 95.7014 59.4677 95.8265 59.4803C95.839 59.5713 95.8483 59.6656 95.864 59.7503C95.8859 59.8571 95.9202 60.0016 95.964 60.1743C95.9359 60.1868 95.9077 60.1868 95.8796 60.2025L95.7546 60.2779C95.4732 60.4475 95.3826 60.8149 95.5514 61.0975C95.6639 61.2828 95.8608 61.3864 96.0609 61.3864C96.1422 61.3864 96.2203 61.3644 96.2985 61.3299C96.5704 62.1934 96.9331 63.1826 97.2863 63.8515C97.23 63.8797 97.1738 63.9111 97.1269 63.9582L96.9987 64.0838C96.8362 64.2409 96.6361 64.4355 96.6767 64.7653C96.6986 64.9505 96.8424 65.1515 97.005 65.2457C97.0988 65.2991 97.1988 65.3242 97.2988 65.3242C97.5051 65.3242 97.7052 65.2175 97.8146 65.0228C97.8365 64.9819 97.8553 64.9411 97.8678 64.8972L97.9428 64.8249C98.2116 65.2049 98.5742 65.7325 98.9525 66.2851C99.9966 67.8113 100.762 68.9198 101.116 69.2903C101.96 70.1727 103.123 70.7411 104.229 70.8165C104.414 70.829 104.548 70.873 104.592 70.9389C104.633 70.9892 104.654 71.1399 104.617 71.3535Z" fill="#FFDE3B"/>
<path d="M79.8464 57.6841C79.8746 57.5679 79.8652 57.4517 79.8246 57.345C80.009 57.1346 80.0246 56.8143 79.8464 56.585C79.6433 56.3244 79.2713 56.2773 79.0118 56.4814C78.7711 56.6698 78.4772 57.1283 78.5742 57.5679C78.6367 57.8505 78.8492 58.0641 79.1306 58.13C79.1744 58.1394 79.2212 58.1457 79.265 58.1457C79.5401 58.1457 79.7839 57.9604 79.8464 57.6841Z" fill="#FFDE3B"/>
<path d="M82.2249 59.1786C82.3656 59.1504 82.6251 59.0499 82.7845 58.6888C82.847 58.5443 83.0408 57.9288 82.822 57.5614C82.6032 57.1971 82.1812 57.1814 81.5716 57.2788C81.2465 57.329 81.0245 57.6336 81.0777 57.9602C81.1152 58.2083 81.3028 58.3967 81.5341 58.4501C81.5122 58.5349 81.5091 58.6228 81.5278 58.7107C81.5841 58.9934 81.8311 59.1912 82.1093 59.1912C82.1468 59.1912 82.1843 59.1881 82.2249 59.1786Z" fill="#FFDE3B"/>
<path d="M83.8451 56.3338C84.0295 56.1517 84.0795 55.8628 83.9483 55.6241C83.7919 55.3352 83.4325 55.2284 83.1417 55.3855C82.7041 55.6241 82.4728 55.9947 82.5196 56.3809C82.5603 56.7012 82.7916 56.9619 83.1167 57.0466C83.1667 57.0592 83.2168 57.0655 83.2636 57.0655C83.5294 57.0655 83.7701 56.8865 83.8388 56.6196C83.867 56.5222 83.867 56.4249 83.8451 56.3338Z" fill="#FFDE3B"/>
<path d="M81.2937 56.8591C81.3125 56.8591 81.3312 56.8622 81.3469 56.8622C81.6501 56.8622 81.9096 56.6297 81.9377 56.3186C81.9564 56.1113 81.8689 55.9196 81.7157 55.8002C81.7095 55.5897 81.5907 55.3854 81.3875 55.2849C81.0937 55.1372 80.7373 55.2566 80.5904 55.552C80.4497 55.8347 80.4529 56.149 80.5966 56.4129C80.7404 56.6643 80.9999 56.8308 81.2937 56.8591Z" fill="#FFDE3B"/>
<path d="M79.4925 55.6878C79.5676 55.6878 79.6457 55.6721 79.7207 55.6407C79.952 55.5433 80.3616 55.2731 80.4397 54.8709C80.4835 54.6509 80.4178 54.4278 80.2646 54.2739C80.0333 54.0414 79.6582 54.0414 79.4238 54.2739C79.3487 54.3493 79.2987 54.4373 79.2737 54.5315C79.2706 54.5347 79.2675 54.5347 79.2643 54.5378C78.9611 54.6635 78.8204 55.0154 78.9455 55.3202C79.0361 55.5496 79.2581 55.6878 79.4925 55.6878Z" fill="#FFDE3B"/>
<path d="M77.9958 54.4527C78.0115 54.4559 78.0302 54.4559 78.0458 54.4559C78.3522 54.4559 78.6117 54.2204 78.6367 53.9095C78.6523 53.7336 78.5898 53.5703 78.4772 53.451C78.5085 53.137 78.2897 52.8512 77.9739 52.8041C77.652 52.7507 77.3456 52.98 77.2987 53.3065C77.2675 53.5044 77.2143 53.8718 77.4488 54.167C77.5801 54.3334 77.7739 54.4339 77.9958 54.4527Z" fill="#FFDE3B"/>
<path d="M73.1598 53.2974C72.8534 53.1843 72.5127 53.3446 72.397 53.6556C72.3095 53.9007 72.3908 54.1647 72.5783 54.3218C72.5877 54.3689 72.6065 54.416 72.6284 54.4632C72.7315 54.6737 72.941 54.7931 73.1598 54.7931C73.2473 54.7931 73.3411 54.7742 73.4255 54.7303C73.6819 54.6014 73.8288 54.3501 73.8132 54.0704C73.7975 53.7373 73.5381 53.4357 73.1598 53.2974Z" fill="#FFDE3B"/>
<path d="M74.6194 55.1696C74.7225 55.2513 74.8444 55.289 74.9664 55.289C75.1383 55.289 75.3102 55.2104 75.429 55.0596C75.4571 55.0219 75.4822 54.9842 75.5009 54.9434C75.6791 54.8145 75.7666 54.5852 75.7197 54.3432C75.6572 54.0196 75.3196 53.8153 75.0007 53.875C74.8226 53.9096 74.4068 53.985 74.3036 54.4155C74.2661 54.5789 74.2536 54.8899 74.6194 55.1696Z" fill="#FFDE3B"/>
<path d="M76.5831 55.6689C76.6831 55.7475 76.8113 55.7946 76.9489 55.7946C76.9645 55.7946 76.9832 55.7946 76.9989 55.7915C77.324 55.7632 77.5678 55.4741 77.5428 55.1473C77.524 54.9211 77.4146 54.7263 77.2365 54.5975C76.902 54.3555 76.4675 54.4655 76.3049 54.5063C75.986 54.5849 75.7922 54.9117 75.8735 55.229C75.9517 55.5495 76.2705 55.7412 76.5831 55.6689Z" fill="#FFDE3B"/>
<path d="M77.0979 56.4467C77.0979 56.4561 77.0948 56.4656 77.0948 56.4781C76.951 56.588 76.8604 56.7576 76.8604 56.9523C76.8604 57.282 77.1261 57.5489 77.4543 57.5489C78.0295 57.5489 78.2858 56.9178 78.2858 56.4687C78.2858 56.1484 78.0357 55.9035 77.7169 55.8878C77.3918 55.8721 77.1229 56.1296 77.0979 56.4467Z" fill="#FFDE3B"/>
<path d="M76.3381 58.0235C76.4069 57.8257 76.3663 57.6184 76.2506 57.4614C76.36 57.1725 76.2287 56.8396 75.9442 56.7077C75.6473 56.5696 75.294 56.6983 75.1565 56.9998C74.997 57.3483 74.972 57.6592 75.0814 57.923C75.1721 58.1397 75.3503 58.303 75.5816 58.3846C75.6473 58.4066 75.7129 58.4192 75.7786 58.4192C76.0224 58.4223 76.2537 58.2684 76.3381 58.0235Z" fill="#FFDE3B"/>
<path d="M74.4949 56.8623C74.6324 56.8623 74.7669 56.8151 74.8794 56.7209C74.9388 56.6706 74.9857 56.6109 75.0201 56.548C75.2045 56.4318 75.3202 56.215 75.2952 55.9825C75.2639 55.6557 74.9732 55.4137 74.6449 55.4483C74.3042 55.4829 74.0354 55.6682 73.926 55.9416C73.8291 56.1804 73.8759 56.4538 74.0416 56.6517C74.1573 56.79 74.3261 56.8623 74.4949 56.8623Z" fill="#FFDE3B"/>
<path d="M77.9899 59.5116C77.7179 59.6781 77.3709 60.2119 77.4459 60.6735C77.4959 60.9656 77.746 61.1728 78.0305 61.1728C78.0618 61.1728 78.0961 61.1697 78.1305 61.1634C78.4275 61.1132 78.6338 60.8525 78.6276 60.5605C78.6338 60.5479 78.6401 60.5322 78.6495 60.5197C78.7089 60.482 78.762 60.4349 78.8058 60.3752C79.0027 60.1114 78.9496 59.7377 78.6901 59.5399C78.49 59.3923 78.1962 59.386 77.9899 59.5116Z" fill="#FFDE3B"/>
<path d="M80.0649 58.8337C79.8461 58.8997 79.671 59.0598 79.5679 59.2859C79.4335 59.5811 79.4147 60.0082 79.5272 60.2563C79.6273 60.4792 79.843 60.608 80.068 60.608C80.1493 60.608 80.2306 60.5923 80.3119 60.5546C80.5838 60.4321 80.7183 60.1338 80.6432 59.8543C80.6432 59.848 80.6432 59.8417 80.6432 59.8355C80.8027 59.6847 80.8714 59.4524 80.8058 59.2294C80.7089 58.9185 80.3775 58.7395 80.0649 58.8337Z" fill="#FFDE3B"/>
<path d="M77.4801 58.1395C77.1863 57.9919 76.8299 58.1112 76.683 58.4064C76.6611 58.4503 76.5579 58.554 76.5017 58.6073C76.3297 58.7769 76.0421 59.0595 76.1797 59.4709C76.2641 59.7221 76.4954 59.8791 76.7424 59.8791C76.8049 59.8791 76.8674 59.8697 76.9299 59.8477C77.105 59.7881 77.2363 59.6562 77.2957 59.496C77.3082 59.4835 77.3207 59.4709 77.3332 59.4583C77.4582 59.3327 77.6333 59.1632 77.7427 58.9402C77.8927 58.645 77.774 58.287 77.4801 58.1395Z" fill="#FFDE3B"/>
<path d="M82.1777 60.0831C82.1026 60.1961 82.062 60.2966 82.0307 60.3814C81.9995 60.463 81.9807 60.507 81.9307 60.5667C81.7213 60.821 81.7556 61.1947 82.0057 61.4083C82.1183 61.5025 82.2527 61.5464 82.3871 61.5464C82.559 61.5464 82.7247 61.4742 82.8435 61.3329C83.0186 61.1225 83.0905 60.9404 83.1373 60.8179C83.1467 60.7928 83.1561 60.7676 83.1686 60.7457C83.3499 60.4725 83.2749 60.1019 83.0029 59.9198C82.7278 59.7345 82.359 59.8099 82.1777 60.0831Z" fill="#FFDE3B"/>
<path d="M85.1449 58.8363C85.1543 58.6887 85.1074 58.5348 85.0043 58.4123C84.7917 58.1611 84.4166 58.1329 84.1665 58.3464C83.8132 58.6479 83.8101 58.9776 83.8414 59.1472C83.9008 59.4769 84.1571 59.725 84.5979 59.8851C84.6635 59.9102 84.7323 59.9197 84.798 59.9197C85.0418 59.9197 85.27 59.7689 85.3575 59.524C85.4513 59.2633 85.3544 58.987 85.1449 58.8363Z" fill="#FFDE3B"/>
<path d="M86.7295 60.457C86.4701 60.4884 86.0043 60.7084 85.7917 61.0917C85.6323 61.3776 85.7261 61.7515 86.0105 61.9149C86.1043 61.9683 86.2075 61.9935 86.3075 61.9935C86.5107 61.9935 86.7045 61.8898 86.8139 61.695C86.8327 61.6761 86.8889 61.6416 86.8796 61.6384C87.2047 61.5976 87.436 61.2991 87.3953 60.9723C87.3516 60.6487 87.0546 60.4161 86.7295 60.457Z" fill="#FFDE3B"/>
<path d="M81.9149 55.0536C81.9305 55.0536 81.9461 55.0536 81.9618 55.0504C82.29 55.0284 82.537 54.7456 82.5151 54.4157C82.4963 54.1518 82.3119 53.9381 82.0712 53.8753C81.9524 53.6773 81.7211 53.5579 81.4772 53.5925C81.1521 53.6396 80.9271 53.9413 80.974 54.268C81.024 54.6262 81.471 55.0536 81.9149 55.0536Z" fill="#FFDE3B"/>
<path d="M84.7977 55.7821L85.1978 55.3422L84.8039 55.7883C84.9164 55.8889 85.0571 55.9392 85.1978 55.9392C85.3603 55.9392 85.5229 55.8732 85.6417 55.7381C85.8199 55.537 85.8386 55.2448 85.7042 55.0279C85.7417 54.8646 85.7105 54.6886 85.6042 54.5441C85.4104 54.277 85.0384 54.2204 84.7758 54.4152C84.5632 54.5723 84.4382 54.7923 84.4257 55.0342C84.4069 55.4333 84.7008 55.6941 84.7977 55.7821Z" fill="#FFDE3B"/>
<path d="M86.1301 57.6034C86.2426 57.3237 86.127 57.0126 85.8769 56.865C85.7831 56.6073 85.5143 56.4439 85.236 56.4785C84.9109 56.5256 84.6859 56.8273 84.7327 57.154C84.7953 57.5971 85.1579 57.8547 85.3611 57.9364C85.433 57.9647 85.508 57.9804 85.5799 57.9804C85.8144 57.9804 86.0394 57.839 86.1301 57.6034Z" fill="#FFDE3B"/>
<path d="M87.6837 58.0992C87.668 58.074 87.6493 58.0395 87.6399 58.0143C87.5336 57.7033 87.196 57.5367 86.8834 57.6467C86.5739 57.7535 86.4082 58.0929 86.5176 58.4071C86.5426 58.4825 86.7834 59.1392 87.2898 59.1895C87.3117 59.1926 87.3304 59.1926 87.3523 59.1926C87.6524 59.1926 87.9119 58.9633 87.9431 58.6553C87.9619 58.4291 87.8556 58.2217 87.6837 58.0992Z" fill="#FFDE3B"/>
<path d="M84.8006 64.0556C84.76 64.0964 84.7256 64.131 84.6975 64.1592C84.4349 64.2472 84.2629 64.5112 84.2973 64.7971C84.3348 65.1019 84.5881 65.325 84.885 65.325C84.91 65.325 84.9319 65.325 84.9569 65.3218C85.1945 65.2935 85.379 65.2307 85.5478 65.0045C85.5603 64.9888 85.579 64.9636 85.6165 64.9291C85.8541 64.7028 85.8666 64.3258 85.6415 64.0838C85.4165 63.8419 85.0382 63.8325 84.8006 64.0556Z" fill="#FFDE3B"/>
<path d="M71.7718 61.6062C71.5248 61.867 71.3185 62.3289 71.5623 62.7563C71.6718 62.9511 71.8718 63.0611 72.0813 63.0611C72.1813 63.0611 72.2813 63.0359 72.372 62.9825C72.5877 62.86 72.6971 62.6212 72.669 62.3855C72.8597 62.1467 72.8378 61.7979 72.6127 61.5811C72.3751 61.358 72 61.3674 71.7718 61.6062Z" fill="#FFDE3B"/>
<path d="M72.6874 58.7112C72.4842 58.6515 72.2435 58.7143 72.0903 58.8619C71.7808 59.1602 71.7808 59.9453 71.8121 60.0709C71.8777 60.3441 72.1216 60.5262 72.3873 60.5262C72.4342 60.5262 72.4811 60.5199 72.528 60.5074C72.8124 60.4383 72.9969 60.1745 72.9781 59.8919C72.9812 59.8291 72.9969 59.7066 73.0125 59.6187C73.0469 59.5653 73.075 59.5088 73.0938 59.446C73.1844 59.1288 73.0031 58.7991 72.6874 58.7112Z" fill="#FFDE3B"/>
<path d="M73.428 57.1061C73.1904 56.8767 72.8153 56.8861 72.5871 57.1249C72.362 57.3637 72.3683 57.7408 72.6059 57.9702L72.6746 58.0361C72.7903 58.1461 72.9372 58.2027 73.0841 58.2027C73.2404 58.2027 73.3967 58.1398 73.5124 58.0173C73.7375 57.7785 73.7312 57.4014 73.4937 57.172L73.428 57.1061Z" fill="#FFDE3B"/>
<path d="M70.1306 58.1175C69.8243 57.9981 69.4804 58.149 69.3616 58.4569L69.2741 58.68C69.1553 58.9879 69.3053 59.3335 69.6117 59.453C69.6836 59.4812 69.7555 59.4938 69.8274 59.4938C70.065 59.4938 70.29 59.3493 70.3807 59.1136L70.4682 58.8905C70.587 58.5826 70.4338 58.2369 70.1306 58.1175Z" fill="#FFDE3B"/>
<path d="M71.8744 58.4227C71.9025 58.2153 71.965 57.788 71.6149 57.5555C71.3398 57.3732 70.971 57.4487 70.7928 57.722C70.699 57.8634 70.674 58.0299 70.7084 58.1839C70.7052 58.2185 70.699 58.2499 70.699 58.2562C70.6521 58.583 70.8803 58.8846 71.2023 58.9317C71.2304 58.9349 71.2585 58.938 71.2867 58.938C71.5774 58.938 71.8337 58.7212 71.8744 58.4227Z" fill="#FFDE3B"/>
<path d="M71.953 56.8267C72.2813 56.8267 72.5439 56.588 72.5439 56.2583C72.5501 56.2175 72.5689 56.1546 72.5845 56.095C72.6408 55.872 72.6783 55.7244 72.6158 55.5392C72.5126 55.2283 72.175 55.0587 71.8624 55.1623C71.6279 55.2409 71.4747 55.4544 71.4591 55.6899C71.4529 55.7182 71.4404 55.7558 71.431 55.7967C71.3841 55.9725 71.356 56.0887 71.356 56.2018C71.3622 56.5315 71.6248 56.8267 71.953 56.8267Z" fill="#FFDE3B"/>
<path d="M65.5356 59.4051C65.5356 59.5308 65.62 59.9267 65.6638 60.0398C65.7545 60.2692 65.9702 60.4043 66.2046 60.4043C66.2703 60.4043 66.339 60.3917 66.4047 60.3697C66.7048 60.2661 66.8673 59.933 66.7767 59.6251C66.7579 59.5622 66.7267 59.4051 66.7173 59.3454C66.6892 59.0438 66.4359 58.8081 66.1265 58.8081C65.8014 58.8081 65.5356 59.0752 65.5356 59.4051Z" fill="#FFDE3B"/>
<path d="M67.3107 62.6089C67.342 62.6152 67.3732 62.6152 67.4045 62.6152C67.6921 62.6152 67.9453 62.4047 67.9891 62.1124C68.0016 62.0307 68.0391 61.7417 67.9797 61.4871C67.9078 61.1729 67.6046 60.9907 67.2888 61.0535C66.9731 61.1164 66.7699 61.4337 66.8199 61.7511C66.8262 61.7825 66.8199 61.8705 66.8137 61.927C66.7637 62.2507 66.9856 62.5586 67.3107 62.6089Z" fill="#FFDE3B"/>
<path d="M64.7818 60.9276C64.5474 61.2102 64.5349 61.7817 64.5505 61.9042C64.5942 62.2025 64.8537 62.4412 65.1475 62.4412C65.1726 62.4412 65.2007 62.438 65.2257 62.4349C65.5508 62.3878 65.779 62.1115 65.7321 61.7849C65.7321 61.7472 65.7477 61.6498 65.7602 61.5965C65.8947 61.3515 65.8415 61.0375 65.6196 60.8522C65.3632 60.6387 64.9912 60.6732 64.7818 60.9276Z" fill="#FFDE3B"/>
<path d="M69.3838 57.1946L69.2712 56.8584C69.1681 56.5473 68.8336 56.3745 68.521 56.4813C68.2084 56.585 68.0427 56.9244 68.1458 57.2354L68.2584 57.5716C68.3428 57.823 68.5741 57.9801 68.8211 57.9801C68.8836 57.9801 68.9461 57.9707 69.0086 57.9487C69.3181 57.845 69.4869 57.5057 69.3838 57.1946Z" fill="#FFDE3B"/>
<path d="M70.9154 56.8868V56.7548C70.9154 56.4249 70.6497 56.1578 70.3215 56.1578C69.9933 56.1578 69.7275 56.4249 69.7275 56.7548V56.8868C69.7275 57.2167 69.9933 57.4838 70.3215 57.4838C70.6497 57.4838 70.9154 57.2167 70.9154 56.8868Z" fill="#FFDE3B"/>
<path d="M68.6367 55.097C68.7211 55.3452 68.9524 55.4992 69.1994 55.4992C69.2619 55.4992 69.3276 55.4897 69.3932 55.4677C69.7027 55.3609 69.8684 55.0216 69.7621 54.7105L69.6495 54.3837C69.5433 54.0726 69.2056 53.903 68.8962 54.0129C68.5867 54.1198 68.421 54.4591 68.5273 54.7702L68.6367 55.097Z" fill="#FFDE3B"/>
<path d="M73.7627 59.0572C73.8471 59.3054 74.0784 59.4594 74.3254 59.4594C74.3879 59.4594 74.4535 59.4499 74.5192 59.428C74.8287 59.3211 74.9944 58.9818 74.8881 58.6707L74.7755 58.3439C74.6693 58.0328 74.3316 57.8632 74.0222 57.9731C73.7127 58.08 73.547 58.4193 73.6533 58.7304L73.7627 59.0572Z" fill="#FFDE3B"/>
<path d="M70.2143 54.7017C70.2987 54.9499 70.5301 55.1038 70.777 55.1038C70.8395 55.1038 70.9052 55.0944 70.9708 55.0724C71.2803 54.9656 71.446 54.6262 71.3397 54.3152L71.2272 53.9884C71.1209 53.6773 70.7833 53.5076 70.4738 53.6176C70.1643 53.7245 69.9987 54.0638 70.1049 54.3749L70.2143 54.7017Z" fill="#FFDE3B"/>
<path d="M68.1739 55.4522L67.9613 55.0437C67.8082 54.7515 67.4487 54.6415 67.1579 54.7955C66.8672 54.9495 66.7578 55.3108 66.911 55.603L67.1235 56.0115C67.2298 56.2157 67.4362 56.3288 67.6487 56.3288C67.7425 56.3288 67.8363 56.3069 67.9238 56.2597C68.2177 56.1026 68.3271 55.7413 68.1739 55.4522Z" fill="#FFDE3B"/>
<path d="M92.6499 60.1398C92.4373 59.8884 92.0622 59.8601 91.8121 60.0738C91.562 60.2875 91.5339 60.6645 91.7465 60.9159L91.8965 61.0887C92.0153 61.227 92.181 61.2961 92.3467 61.2961C92.4842 61.2961 92.6217 61.249 92.7312 61.1515C92.9812 60.9379 93.0094 60.5608 92.7968 60.3095L92.6499 60.1398Z" fill="#FFDE3B"/>
<path d="M94.476 59.3204C94.476 58.9056 94.1759 58.6637 93.8789 58.6386C93.4412 58.5977 92.9754 59.0879 92.9254 59.4115C92.8723 59.7383 93.0911 60.0431 93.4162 60.0965C93.4475 60.1028 93.4819 60.1028 93.5131 60.1028C93.6819 60.1028 93.8382 60.0305 93.9477 59.9111C94.2446 59.8797 94.476 59.6283 94.476 59.3204Z" fill="#FFDE3B"/>
<path d="M94.5042 60.7928C94.2666 60.7111 94.0165 60.7834 93.8008 60.9876C93.5038 61.2673 93.5445 61.5689 93.5757 61.6852C93.6383 61.9177 93.8227 62.0937 94.0697 62.1502C94.1134 62.1596 94.1603 62.1659 94.2041 62.1659C94.4635 62.1659 94.698 61.9931 94.773 61.7386C94.8168 61.6852 94.8543 61.6192 94.8762 61.5501C94.9825 61.239 94.8137 60.8997 94.5042 60.7928Z" fill="#FFDE3B"/>
<path d="M95.4948 62.0175C95.2354 62.1212 95.0634 62.36 95.0603 62.6271C95.0541 62.8376 95.1635 63.1173 95.4792 63.2618C95.5574 63.2995 95.6418 63.3153 95.7262 63.3153C95.9512 63.3153 96.1669 63.1864 96.267 62.9665C96.2795 62.9382 96.2889 62.9099 96.2982 62.8816C96.4358 62.6523 96.4045 62.3506 96.2076 62.1558C96.0263 61.9736 95.7449 61.917 95.4948 62.0175Z" fill="#FFDE3B"/>
<path d="M91.5311 57.2142C91.6499 57.2142 91.7718 57.1764 91.8781 57.101C92.1438 56.9094 92.2032 56.5355 92.0125 56.2684C91.9938 56.2401 91.9657 56.1992 91.9438 56.1615C91.9375 56.017 91.8813 55.8756 91.7718 55.7656C91.5405 55.5331 91.1654 55.5331 90.931 55.7656C90.6434 56.0547 90.684 56.4569 91.0497 56.9659C91.1654 57.1293 91.3467 57.2142 91.5311 57.2142Z" fill="#FFDE3B"/>
<path d="M94.2324 55.7128C94.3918 55.7128 94.5512 55.65 94.6669 55.5243C94.8513 55.3263 94.8732 55.031 94.7419 54.811C94.7607 54.5314 94.5825 54.2675 94.3043 54.192C93.9885 54.1041 93.6603 54.2957 93.5759 54.6162C93.4852 54.9587 93.5821 55.3264 93.8291 55.5557C93.9416 55.6594 94.0855 55.7128 94.2324 55.7128Z" fill="#FFDE3B"/>
<path d="M94.4697 56.6167C94.4697 56.8587 94.6292 57.2357 94.8886 57.4242C95.0137 57.5154 95.1543 57.5625 95.2981 57.5625C95.37 57.5625 95.4419 57.5499 95.5107 57.5279C95.8233 57.4242 95.9921 57.0849 95.8858 56.7738C95.8389 56.6356 95.7483 56.5256 95.6326 56.4533C95.5607 56.2051 95.3325 56.0229 95.0637 56.0229C94.7354 56.0197 94.4697 56.2868 94.4697 56.6167Z" fill="#FFDE3B"/>
<path d="M92.6536 57.0569C92.7036 57.3491 92.9537 57.5565 93.2382 57.5565C93.2694 57.5565 93.3038 57.5533 93.3382 57.5471C93.6602 57.4936 93.879 57.1857 93.8259 56.8589C93.8259 56.8526 93.8227 56.8306 93.8227 56.8118C93.9384 56.5761 93.8884 56.2839 93.6852 56.1017C93.4414 55.8817 93.0631 55.9037 92.8474 56.1519C92.5942 56.4347 92.6161 56.8401 92.6536 57.0569Z" fill="#FFDE3B"/>
<path d="M91.862 55.4739C91.912 55.7662 92.1621 55.9735 92.4465 55.9735C92.4778 55.9735 92.5122 55.9704 92.5466 55.9641C92.8686 55.9107 93.0874 55.6028 93.0342 55.276C93.0342 55.2697 93.0311 55.2477 93.0311 55.2288C93.1468 54.9932 93.0968 54.701 92.8936 54.5187C92.6497 54.2988 92.2715 54.3208 92.0558 54.569C91.8057 54.8518 91.8276 55.2571 91.862 55.4739Z" fill="#FFDE3B"/>
<path d="M90.681 59.0383C90.731 59.3305 90.9811 59.5379 91.2656 59.5379C91.2968 59.5379 91.3312 59.5347 91.3656 59.5284C91.6876 59.475 91.9064 59.1671 91.8533 58.8403C91.8533 58.834 91.8501 58.812 91.8501 58.7932C91.9658 58.5575 91.9158 58.2653 91.7126 58.0831C91.4688 57.8631 91.0905 57.8851 90.8748 58.1333C90.6216 58.4161 90.6466 58.8215 90.681 59.0383Z" fill="#FFDE3B"/>
<path d="M89.2372 57.0656L89.1997 56.9807C89.0621 56.6791 88.7089 56.5471 88.4119 56.6854C88.1149 56.8236 87.9805 57.1755 88.1181 57.4772L88.1587 57.5683C88.2368 57.7474 88.415 58.1684 88.9183 58.1684C89.2466 58.1684 89.5123 57.9014 89.5123 57.5714C89.5154 57.3578 89.4029 57.1692 89.2372 57.0656Z" fill="#FFDE3B"/>
<path d="M86.6854 55.5301C86.5291 55.6338 86.4134 55.8537 86.4009 56.0391C86.3853 56.2905 86.4947 56.5513 86.6885 56.7178C86.801 56.8152 86.9386 56.8623 87.073 56.8623C87.2418 56.8623 87.4075 56.7901 87.5231 56.6549C87.6826 56.4664 87.7076 56.2088 87.6044 55.9982C87.5982 55.8945 87.5669 55.7909 87.5044 55.6997C87.3262 55.4232 86.9604 55.3478 86.6854 55.5301Z" fill="#FFDE3B"/>
<path d="M86.8049 54.7803C86.9268 54.7803 87.0518 54.7426 87.1581 54.664C87.3425 54.5258 87.4238 54.3058 87.3926 54.0922C87.427 53.8628 87.3269 53.624 87.1206 53.4952C86.8424 53.3192 86.4766 53.4072 86.3016 53.6837C86.1109 53.9916 86.1765 54.3341 86.3266 54.5384C86.4422 54.6986 86.6236 54.7803 86.8049 54.7803Z" fill="#FFDE3B"/>
<path d="M89.799 55.1941C89.4708 55.1941 89.2051 55.4612 89.2051 55.7911V55.9105C89.2051 56.2404 89.4708 56.5075 89.799 56.5075C90.1273 56.5075 90.393 56.2404 90.393 55.9105V55.7911C90.393 55.4612 90.1273 55.1941 89.799 55.1941Z" fill="#FFDE3B"/>
<path d="M88.487 55.3644C88.8153 55.3644 89.081 55.0973 89.081 54.7674V54.5474C89.081 54.2175 88.8153 53.9504 88.487 53.9504C88.1588 53.9504 87.8931 54.2175 87.8931 54.5474V54.7674C87.8931 55.0973 88.1588 55.3644 88.487 55.3644Z" fill="#FFDE3B"/>
<path d="M91.1215 54.0922V53.9257C91.1215 53.5958 90.8558 53.3287 90.5275 53.3287C90.1993 53.3287 89.9336 53.5958 89.9336 53.9257V54.0922C89.9336 54.4221 90.1993 54.6892 90.5275 54.6892C90.8558 54.6892 91.1215 54.4221 91.1215 54.0922Z" fill="#FFDE3B"/>
<path d="M92.1379 53.6907H92.2754C92.6037 53.6907 92.8694 53.4236 92.8694 53.0937C92.8694 52.7638 92.6037 52.4967 92.2754 52.4967H92.1379C91.8097 52.4967 91.5439 52.7638 91.5439 53.0937C91.5439 53.4236 91.8097 53.6907 92.1379 53.6907Z" fill="#FFDE3B"/>
<path d="M95.5923 54.795C95.311 54.9647 95.2203 55.3323 95.3891 55.6151L95.5016 55.8005C95.6142 55.9859 95.8111 56.0896 96.0112 56.0896C96.1144 56.0896 96.2206 56.0613 96.3176 56.0047C96.5989 55.835 96.6896 55.4674 96.5207 55.1846L96.4082 54.9992C96.2394 54.7164 95.8736 54.6253 95.5923 54.795Z" fill="#FFDE3B"/>
<path d="M95.8109 54.4C95.9297 54.4 96.0516 54.3655 96.1548 54.2901L96.2423 54.2272C96.508 54.0356 96.5705 53.6616 96.3798 53.3946C96.1891 53.1275 95.8171 53.0646 95.5514 53.2563L95.4639 53.3191C95.1982 53.5108 95.1357 53.8847 95.3264 54.1518C95.4451 54.3121 95.6265 54.4 95.8109 54.4Z" fill="#FFDE3B"/>
<path d="M97.3707 54.6233C97.502 54.6233 97.6364 54.5793 97.7459 54.4881L97.9428 54.3279C98.196 54.1205 98.2366 53.7435 98.0303 53.4889C97.824 53.2313 97.4489 53.1936 97.1957 53.401L96.9987 53.5612C96.7455 53.7686 96.7049 54.1457 96.9112 54.4002C97.0269 54.5478 97.1988 54.6233 97.3707 54.6233Z" fill="#FFDE3B"/>
<path d="M97.7302 54.8015C97.402 54.8015 97.1362 55.0685 97.1362 55.3985V55.5493C97.1362 55.8792 97.402 56.1463 97.7302 56.1463C98.0584 56.1463 98.3242 55.8792 98.3242 55.5493V55.3985C98.3242 55.0717 98.0584 54.8015 97.7302 54.8015Z" fill="#FFDE3B"/>
<path d="M18.5604 105.821L24.6405 114.868C24.6906 114.946 24.7531 114.993 24.8375 115.025C24.9469 115.062 25.0532 115.081 25.1595 115.081H26.0191C26.1442 115.081 26.1692 115.056 26.1692 114.93V103.312C26.1692 103.186 26.1442 103.161 26.0191 103.161H25.0376C24.9125 103.161 24.8875 103.186 24.8875 103.312V112.236C24.8875 112.333 24.8875 112.591 24.6781 112.654C24.4686 112.716 24.3279 112.5 24.2748 112.418L18.3322 103.371C18.2822 103.296 18.2228 103.246 18.1353 103.217C18.0258 103.18 17.9196 103.161 17.8133 103.161H16.8161C16.691 103.161 16.666 103.186 16.666 103.312V114.93C16.666 115.056 16.691 115.081 16.8161 115.081H17.8008C17.9258 115.081 17.9508 115.056 17.9508 114.93V106.006C17.9508 105.912 17.9508 105.657 18.1571 105.594C18.1853 105.585 18.2103 105.582 18.2353 105.582C18.401 105.585 18.5135 105.752 18.5604 105.821Z" fill="#111111"/>
<path d="M41.2122 112.607C41.3717 112.509 41.4467 112.374 41.4467 112.189V106.056C41.4467 105.868 41.3748 105.739 41.2122 105.639L35.9636 102.546C35.8761 102.495 35.7948 102.47 35.7198 102.47C35.6854 102.47 35.6072 102.48 35.4634 102.552L30.2523 105.639C30.0804 105.739 30.0054 105.868 30.0054 106.056V112.189C30.0054 112.378 30.0804 112.506 30.2523 112.607L35.4759 115.7C35.5947 115.775 35.6916 115.794 35.8448 115.76C35.8761 115.753 35.9105 115.734 35.948 115.709L41.2122 112.607ZM35.7198 114.428C35.5885 114.428 35.4603 114.39 35.3415 114.318L31.4809 112.032C31.237 111.888 31.1089 111.668 31.1089 111.392V106.854C31.1089 106.581 31.237 106.358 31.4809 106.213L35.3478 103.924C35.6666 103.764 35.8604 103.789 36.0949 103.924L39.9806 106.213C40.2182 106.361 40.3432 106.581 40.3432 106.854V111.392C40.3432 111.665 40.2182 111.885 39.9868 112.029L36.098 114.318C36.0449 114.356 35.973 114.39 35.898 114.406C35.8323 114.422 35.7729 114.428 35.7198 114.428Z" fill="#111111"/>
<path d="M64.5978 103.164C64.4728 103.164 64.4478 103.189 64.4478 103.315V114.934C64.4478 115.059 64.4728 115.084 64.5978 115.084H72.9037C73.0287 115.084 73.0537 115.059 73.0537 114.934V113.944C73.0537 113.819 73.0287 113.794 72.9037 113.794H66.3328C65.9639 113.794 65.7451 113.571 65.7451 113.203V103.315C65.7451 103.189 65.7201 103.164 65.595 103.164H64.5978Z" fill="#111111"/>
<path d="M116.181 115.191C116.39 115.191 116.521 115.106 116.596 114.927L120.979 104.963C121.023 104.863 121.095 104.725 121.226 104.725C121.357 104.725 121.429 104.863 121.473 104.963L125.84 114.924C125.915 115.106 126.046 115.191 126.256 115.191H127.253C127.341 115.191 127.384 115.172 127.397 115.156C127.406 115.141 127.409 115.09 127.375 115.009L122.136 103.321C122.061 103.136 121.929 103.051 121.72 103.051H120.723C120.513 103.051 120.382 103.136 120.307 103.315V103.318L115.077 115.012C115.046 115.09 115.046 115.141 115.055 115.156C115.065 115.172 115.108 115.191 115.199 115.191H116.181Z" fill="#111111"/>
<path d="M135.687 109.827L138.832 114.883C138.888 115.021 138.979 115.078 139.145 115.078H140.264C140.273 115.078 140.282 115.078 140.292 115.078C140.292 115.075 140.289 115.069 140.289 115.065L137.044 109.853L137.406 109.827C137.825 109.796 138.226 109.686 138.598 109.498C138.97 109.309 139.301 109.061 139.576 108.766C139.851 108.471 140.07 108.125 140.229 107.739C140.386 107.356 140.464 106.942 140.464 106.511C140.464 106.091 140.382 105.673 140.22 105.271C140.057 104.869 139.835 104.505 139.557 104.191C139.282 103.88 138.951 103.629 138.573 103.437C138.201 103.252 137.791 103.158 137.36 103.158H131.233C131.108 103.158 131.083 103.183 131.083 103.308V104.298C131.083 104.423 131.108 104.448 131.233 104.448H137.322C137.603 104.467 137.854 104.536 138.075 104.652C138.297 104.769 138.488 104.922 138.648 105.108C138.801 105.29 138.929 105.5 139.023 105.736C139.116 105.968 139.173 106.219 139.191 106.483V106.499V106.515C139.148 107.055 138.963 107.516 138.648 107.893C138.322 108.282 137.875 108.496 137.325 108.534H131.354C131.27 108.534 131.201 108.556 131.142 108.6C131.111 108.625 131.083 108.656 131.083 108.732V114.924C131.083 115.05 131.108 115.075 131.233 115.075H132.217C132.342 115.075 132.367 115.05 132.367 114.924V110.412C132.367 110.041 132.589 109.821 132.955 109.821H135.687V109.827Z" fill="#111111"/>
<path d="M111.673 108.769C111.948 108.474 112.167 108.129 112.326 107.742C112.483 107.359 112.561 106.945 112.561 106.515C112.561 106.094 112.48 105.676 112.317 105.274C112.155 104.872 111.933 104.508 111.654 104.194C111.379 103.883 111.048 103.632 110.67 103.44C110.295 103.255 109.888 103.161 109.457 103.161H103.33C103.205 103.161 103.18 103.186 103.18 103.312V104.301C103.18 104.426 103.205 104.451 103.33 104.451H109.419C109.701 104.47 109.951 104.539 110.173 104.656C110.395 104.772 110.585 104.926 110.745 105.111C110.898 105.293 111.026 105.503 111.12 105.739C111.214 105.971 111.27 106.223 111.289 106.486V106.502V106.518C111.245 107.058 111.06 107.519 110.745 107.896C110.42 108.286 109.973 108.499 109.422 108.537H103.452C103.367 108.537 103.298 108.559 103.239 108.603C103.208 108.628 103.18 108.659 103.18 108.735V114.927C103.18 115.053 103.205 115.078 103.33 115.078H104.314C104.439 115.078 104.464 115.053 104.464 114.927V110.415C104.464 110.044 104.686 109.824 105.052 109.824L109.504 109.837V109.824C109.923 109.793 110.323 109.683 110.695 109.495C111.067 109.309 111.398 109.064 111.673 108.769Z" fill="#111111"/>
<path d="M144.835 115.081H149.042C149.852 115.081 150.63 114.924 151.349 114.616C152.071 114.309 152.709 113.882 153.25 113.345C153.788 112.811 154.219 112.173 154.532 111.448C154.841 110.726 155.001 109.941 155.001 109.118C155.001 108.487 154.904 107.868 154.71 107.284C154.516 106.697 154.244 106.15 153.897 105.66C153.55 105.171 153.125 104.731 152.634 104.354C152.14 103.977 151.593 103.685 151.002 103.478C150.39 103.264 149.752 103.158 149.105 103.158H144.835C144.71 103.158 144.685 103.183 144.685 103.308V104.298C144.685 104.423 144.71 104.448 144.835 104.448H148.945C149.58 104.492 150.183 104.637 150.755 104.882C151.327 105.127 151.837 105.456 152.271 105.861C152.709 106.27 153.062 106.756 153.322 107.306C153.584 107.862 153.719 108.471 153.719 109.118C153.719 109.755 153.6 110.364 153.369 110.927C153.137 111.489 152.815 111.988 152.406 112.412C151.996 112.836 151.512 113.172 150.965 113.417C150.415 113.665 149.814 113.787 149.189 113.787H146.557C146.188 113.787 145.969 113.564 145.969 113.197V111.244C145.969 111.118 145.944 111.093 145.819 111.093H144.835C144.71 111.093 144.685 111.118 144.685 111.244V114.927C144.685 115.056 144.71 115.081 144.835 115.081Z" fill="#111111"/>
<path d="M6.56927 114.673C7.15697 114.937 7.79156 115.072 8.45428 115.072C9.1889 115.072 9.81098 114.987 10.3049 114.82C10.7957 114.654 11.2052 114.447 11.524 114.199C11.8367 113.954 12.0774 113.693 12.2399 113.423C12.4118 113.134 12.5431 112.858 12.6275 112.603C12.7119 112.352 12.762 112.142 12.7745 111.978C12.7901 111.809 12.7995 111.708 12.7995 111.674C12.7995 111.187 12.7276 110.763 12.5838 110.421C12.4369 110.069 12.2524 109.771 12.0367 109.529C11.8241 109.294 11.5834 109.102 11.324 108.967C11.0333 108.819 10.7519 108.697 10.4862 108.609C10.2205 108.521 9.97978 108.461 9.77347 108.43C9.56089 108.399 9.40459 108.377 9.31081 108.364C9.28893 108.361 9.27017 108.358 9.24516 108.355H9.24204C8.89505 108.289 8.57619 108.229 8.2886 108.182C7.95098 108.122 7.65401 108.031 7.41018 107.912C7.12883 107.774 6.90376 107.573 6.74121 107.318C6.57553 107.058 6.49425 106.725 6.49425 106.304C6.49425 105.692 6.75996 105.189 7.26013 104.853C7.7134 104.549 8.32923 104.395 9.09511 104.395C9.45461 104.407 9.78597 104.445 10.0923 104.505C10.3799 104.574 10.6519 104.674 10.9176 104.809C11.0395 104.872 11.1552 104.944 11.2583 105.029C11.3115 105.07 11.4053 105.064 11.4772 105.013L12.2024 104.476C12.2774 104.423 12.2868 104.348 12.2899 104.307C12.2899 104.266 12.2806 104.188 12.2024 104.128C11.9148 103.902 11.5897 103.707 11.2396 103.55C10.6456 103.28 10.0079 103.145 9.34832 103.145C8.61058 103.145 7.98537 103.224 7.48833 103.381C6.99441 103.538 6.58178 103.732 6.26292 103.958C5.95344 104.181 5.71274 104.423 5.54706 104.684C5.372 104.96 5.24383 105.218 5.16568 105.45C5.08753 105.685 5.04064 105.883 5.02501 106.034C5.00938 106.185 5 106.282 5 106.313C5 106.731 5.06565 107.099 5.19694 107.4C5.33136 107.714 5.50017 107.981 5.70023 108.201C5.9003 108.421 6.1285 108.606 6.37546 108.747C6.64742 108.901 6.91001 109.027 7.15697 109.121C7.40393 109.215 7.62587 109.284 7.81969 109.322C8.0135 109.363 8.15418 109.388 8.24171 109.4C8.26359 109.403 8.28547 109.407 8.3136 109.413C8.66059 109.479 8.99821 109.551 9.31394 109.623C9.66718 109.705 9.98291 109.824 10.2611 109.972C10.5675 110.135 10.8144 110.355 10.9989 110.625C11.1927 110.911 11.2896 111.266 11.2896 111.686C11.2896 112.274 11.0458 112.782 10.5675 113.206C10.1048 113.615 9.47337 113.819 8.68873 113.819C8.27609 113.819 7.91034 113.768 7.60087 113.671C7.30077 113.577 7.05068 113.467 6.84749 113.348C6.70994 113.266 6.59428 113.187 6.49737 113.106L5.61896 113.759C5.54393 113.812 5.53455 113.888 5.53143 113.929C5.53143 113.969 5.54081 114.048 5.61896 114.104C5.90343 114.327 6.22541 114.519 6.56927 114.673Z" fill="#111111"/>
<path d="M50.2307 114.714C50.2869 114.817 50.3839 114.83 50.4245 114.83C50.4651 114.83 50.562 114.817 50.6183 114.711L51.2123 113.574C51.2466 113.508 51.2466 113.433 51.2123 113.37L45.9261 103.29C45.8886 103.217 45.8136 103.17 45.7323 103.17H44.4506C44.3381 103.17 44.2818 103.246 44.2631 103.277C44.2443 103.309 44.2037 103.396 44.2568 103.494L50.2307 114.714Z" fill="#111111"/>
<path d="M49.1957 103.17C49.0832 103.17 49.0269 103.246 49.0082 103.277C48.9894 103.309 48.9488 103.393 49.0019 103.494L54.7632 114.701C54.8195 114.811 54.9133 114.824 54.957 114.821C54.9977 114.821 55.0946 114.808 55.1508 114.704L61.0997 103.497C61.1528 103.396 61.1122 103.312 61.0934 103.28C61.0747 103.249 61.0184 103.173 60.9059 103.173H59.6273C59.6055 103.173 59.5836 103.177 59.5679 103.183L54.9664 112.308L50.6619 103.268C50.6212 103.211 50.5556 103.177 50.4868 103.177H49.1957V103.17Z" fill="#111111"/>
<path d="M99.4939 112.556C99.6534 112.459 99.7284 112.324 99.7284 112.138V106.006C99.7284 105.82 99.6534 105.685 99.4939 105.588L94.2453 102.495C94.1578 102.445 94.0765 102.419 94.0015 102.419C93.9671 102.419 93.889 102.429 93.7452 102.501L88.5341 105.588C88.3621 105.688 88.2871 105.82 88.2871 106.006V112.138C88.2871 112.327 88.3621 112.456 88.5341 112.556L93.7577 115.649C93.8765 115.725 93.9765 115.743 94.1265 115.709C94.1578 115.703 94.1922 115.684 94.2297 115.659L99.4939 112.556ZM94.0015 114.377C93.8702 114.377 93.742 114.34 93.6233 114.267L89.7626 111.981C89.5188 111.837 89.3906 111.614 89.3906 111.341V106.803C89.3906 106.53 89.5188 106.307 89.7626 106.163L93.6295 103.873C93.9484 103.713 94.1422 103.738 94.3766 103.873L98.2623 106.163C98.4999 106.31 98.6249 106.53 98.6249 106.803V111.341C98.6249 111.614 98.4999 111.834 98.2654 111.978L94.3766 114.267C94.3235 114.308 94.2485 114.34 94.1766 114.355C94.1078 114.371 94.0546 114.377 94.0015 114.377Z" fill="#111111"/>
<path d="M77.0335 102.997H84.3547C84.4766 102.997 84.5735 103.098 84.5735 103.217V103.952C84.5735 104.074 84.4735 104.172 84.3547 104.172H77.0335C76.9116 104.172 76.8146 104.071 76.8146 103.952V103.217C76.8115 103.095 76.9116 102.997 77.0335 102.997ZM77.0303 108.474H83.2637C83.3856 108.474 83.4825 108.571 83.4825 108.694V109.429C83.4825 109.551 83.3856 109.648 83.2637 109.648H77.0303C76.9084 109.648 76.8115 109.551 76.8115 109.429V108.694C76.8115 108.574 76.9116 108.474 77.0303 108.474ZM77.0335 113.919H84.3578C84.4797 113.919 84.5766 114.02 84.5766 114.139V114.874C84.5766 114.996 84.4766 115.093 84.3578 115.093H77.0335C76.9116 115.093 76.8146 114.993 76.8146 114.874V114.139C76.8115 114.02 76.9116 113.919 77.0335 113.919Z" fill="#111111"/>
</g>
<defs>
<clipPath id="clip0_7_16031">
<rect width="150" height="89.9453" fill="white" transform="translate(5 25.8298)"/>
</clipPath>
</defs>
</svg>
