<svg width="566" height="400" viewBox="0 0 566 400" fill="none" xmlns="http://www.w3.org/2000/svg">
<path fill-rule="evenodd" clip-rule="evenodd" d="M171.114 2.00455C170.606 1.95203 170.001 2.24184 156.41 9.04828L142.235 16.1469L199.85 16.1602L185.747 9.10971C175.021 3.74728 171.518 2.04617 171.114 2.00455ZM187.491 13.2416L184.443 11.7177C179.079 9.03589 175.536 7.27715 173.286 6.18474C172.242 5.67762 171.495 5.32359 170.983 5.09031C170.732 5.20354 170.391 5.36224 169.928 5.58396C168.044 6.48647 164.526 8.24482 157.715 11.6554C157.715 11.6554 157.715 11.6554 157.715 11.6554L154.563 13.234L187.491 13.2416ZM170.271 4.78597C170.269 4.78492 170.287 4.79052 170.327 4.80591C170.292 4.79473 170.272 4.78703 170.271 4.78597ZM142.183 22.5931C143.128 24.2915 144.424 26.0038 145.242 26.4478L145.728 26.7116H196.272L196.758 26.4478C197.576 26.0038 198.872 24.2915 199.817 22.5931C200.341 21.6516 200.757 20.7144 200.925 19.9998L201 19.6774H141L141.075 19.9998C141.243 20.7144 141.659 21.6516 142.183 22.5931ZM145.615 22.5931C145.867 22.9556 146.112 23.2743 146.33 23.5284C146.432 23.6464 146.514 23.7335 146.575 23.7958H195.425C195.486 23.7335 195.568 23.6464 195.67 23.5284C195.888 23.2743 196.133 22.9556 196.385 22.5931H145.615ZM148.035 51.4487V30.2287H158.697V51.4487H148.035ZM155.781 48.5329V33.1445H150.95V48.5329H155.781ZM165.727 51.4487V30.2287H176.273V51.4487H165.727ZM173.357 48.5329V33.1445H168.643V48.5329H173.357ZM183.303 51.4487V30.2287H193.965V51.4487H183.303ZM191.05 48.5329V33.1445H186.219V48.5329H191.05ZM143.873 60.6241C143.873 60.6243 143.875 60.6168 143.88 60.6008C143.876 60.6159 143.873 60.6239 143.873 60.6241ZM144.695 59.0404C144.707 59.0221 144.718 59.0038 144.73 58.9855C144.975 58.5973 145.224 58.245 145.441 57.97C145.474 57.9692 145.509 57.9683 145.544 57.9675C146.342 57.9483 147.622 57.9341 149.599 57.9245C153.547 57.9053 160.193 57.9047 171.135 57.9151L196.54 57.9391C196.548 57.9501 196.557 57.9613 196.566 57.9729C196.79 58.2698 197.043 58.643 197.287 59.0406C196.921 59.0457 196.494 59.0503 195.996 59.0543C192.358 59.0838 185.225 59.0842 171 59.0842C156.775 59.0842 149.642 59.0838 146.004 59.0543C145.498 59.0502 145.066 59.0455 144.695 59.0404ZM198.133 60.6629C198.143 60.695 198.14 60.6913 198.131 60.6579C198.132 60.6597 198.132 60.6614 198.133 60.6629ZM198.028 55.2702C198.977 55.9753 200.996 59.3278 200.996 60.1981C200.996 60.8199 200.595 61.4917 200.061 61.764C199.602 61.9986 199.431 62 171 62C142.569 62 142.398 61.9986 141.939 61.764C141.409 61.4937 141.004 60.8208 141.004 60.2106C141.004 59.1543 143.297 55.534 144.221 55.13C144.515 55.0016 149.259 54.9785 171.138 54.9993L197.698 55.0244L198.028 55.2702ZM145.797 57.5623C145.821 57.5397 145.82 57.544 145.793 57.5654C145.795 57.5643 145.796 57.5633 145.797 57.5623Z" fill="#111111"/>
<path fill-rule="evenodd" clip-rule="evenodd" d="M395.114 2.00455C394.606 1.95203 394.001 2.24184 380.41 9.04828L366.235 16.1469L423.85 16.1602L409.747 9.10971C399.021 3.74728 395.518 2.04617 395.114 2.00455ZM411.491 13.2416L408.443 11.7177C403.079 9.03589 399.536 7.27715 397.286 6.18474C396.242 5.67762 395.495 5.32359 394.983 5.09031C394.732 5.20354 394.391 5.36224 393.928 5.58396C392.044 6.48647 388.526 8.24482 381.715 11.6554C381.715 11.6554 381.715 11.6554 381.715 11.6554L378.563 13.234L411.491 13.2416ZM394.271 4.78597C394.269 4.78492 394.287 4.79052 394.327 4.80591C394.292 4.79473 394.272 4.78703 394.271 4.78597ZM366.183 22.5931C367.128 24.2915 368.424 26.0038 369.242 26.4478L369.728 26.7116H420.272L420.758 26.4478C421.576 26.0038 422.872 24.2915 423.817 22.5931C424.341 21.6516 424.757 20.7144 424.925 19.9998L425 19.6774H365L365.075 19.9998C365.243 20.7144 365.659 21.6516 366.183 22.5931ZM369.615 22.5931C369.867 22.9556 370.112 23.2743 370.33 23.5284C370.432 23.6464 370.514 23.7335 370.575 23.7958H419.425C419.486 23.7335 419.568 23.6464 419.67 23.5284C419.888 23.2743 420.133 22.9556 420.385 22.5931H369.615ZM372.035 51.4487V30.2287H382.697V51.4487H372.035ZM379.781 48.5329V33.1445H374.95V48.5329H379.781ZM389.727 51.4487V30.2287H400.273V51.4487H389.727ZM397.357 48.5329V33.1445H392.643V48.5329H397.357ZM407.303 51.4487V30.2287H417.965V51.4487H407.303ZM415.05 48.5329V33.1445H410.219V48.5329H415.05ZM367.873 60.6241C367.873 60.6243 367.875 60.6168 367.88 60.6008C367.876 60.6159 367.873 60.6239 367.873 60.6241ZM368.695 59.0404C368.707 59.0221 368.718 59.0038 368.73 58.9855C368.975 58.5973 369.224 58.245 369.441 57.97C369.474 57.9692 369.509 57.9683 369.544 57.9675C370.342 57.9483 371.622 57.9341 373.599 57.9245C377.547 57.9053 384.193 57.9047 395.135 57.9151L420.54 57.9391C420.548 57.9501 420.557 57.9613 420.566 57.9729C420.79 58.2698 421.043 58.643 421.287 59.0406C420.921 59.0457 420.494 59.0503 419.996 59.0543C416.358 59.0838 409.225 59.0842 395 59.0842C380.775 59.0842 373.642 59.0838 370.004 59.0543C369.498 59.0502 369.066 59.0455 368.695 59.0404ZM422.133 60.6629C422.143 60.695 422.14 60.6913 422.131 60.6579C422.132 60.6597 422.132 60.6614 422.133 60.6629ZM422.028 55.2702C422.977 55.9753 424.996 59.3278 424.996 60.1981C424.996 60.8199 424.595 61.4917 424.061 61.764C423.602 61.9986 423.431 62 395 62C366.569 62 366.398 61.9986 365.939 61.764C365.409 61.4937 365.004 60.8208 365.004 60.2106C365.004 59.1543 367.297 55.534 368.221 55.13C368.515 55.0016 373.259 54.9785 395.138 54.9993L421.698 55.0244L422.028 55.2702ZM369.797 57.5623C369.821 57.5397 369.82 57.544 369.793 57.5654C369.795 57.5643 369.796 57.5633 369.797 57.5623Z" fill="#111111"/>
<path fill-rule="evenodd" clip-rule="evenodd" d="M171.114 226.005C170.606 225.952 170.001 226.242 156.41 233.048L142.235 240.147L199.85 240.16L185.747 233.11C175.021 227.747 171.518 226.046 171.114 226.005ZM187.491 237.242L184.443 235.718C179.079 233.036 175.536 231.277 173.286 230.185C172.242 229.678 171.495 229.324 170.983 229.09C170.732 229.204 170.391 229.362 169.928 229.584C168.044 230.486 164.526 232.245 157.715 235.655C157.715 235.655 157.715 235.655 157.715 235.655L154.563 237.234L187.491 237.242ZM170.271 228.786C170.269 228.785 170.287 228.791 170.327 228.806C170.292 228.795 170.272 228.787 170.271 228.786ZM142.183 246.593C143.128 248.292 144.424 250.004 145.242 250.448L145.728 250.712H196.272L196.758 250.448C197.576 250.004 198.872 248.292 199.817 246.593C200.341 245.652 200.757 244.714 200.925 244L201 243.677H141L141.075 244C141.243 244.714 141.659 245.652 142.183 246.593ZM145.615 246.593C145.867 246.956 146.112 247.274 146.33 247.528C146.432 247.646 146.514 247.733 146.575 247.796H195.425C195.486 247.733 195.568 247.646 195.67 247.528C195.888 247.274 196.133 246.956 196.385 246.593H145.615ZM148.035 275.449V254.229H158.697V275.449H148.035ZM155.781 272.533V257.144H150.95V272.533H155.781ZM165.727 275.449V254.229H176.273V275.449H165.727ZM173.357 272.533V257.144H168.643V272.533H173.357ZM183.303 275.449V254.229H193.965V275.449H183.303ZM191.05 272.533V257.144H186.219V272.533H191.05ZM143.873 284.624C143.873 284.624 143.875 284.617 143.88 284.601C143.876 284.616 143.873 284.624 143.873 284.624ZM144.695 283.04C144.707 283.022 144.718 283.004 144.73 282.986C144.975 282.597 145.224 282.245 145.441 281.97C145.474 281.969 145.509 281.968 145.544 281.967C146.342 281.948 147.622 281.934 149.599 281.924C153.547 281.905 160.193 281.905 171.135 281.915L196.54 281.939C196.548 281.95 196.557 281.961 196.566 281.973C196.79 282.27 197.043 282.643 197.287 283.041C196.921 283.046 196.494 283.05 195.996 283.054C192.358 283.084 185.225 283.084 171 283.084C156.775 283.084 149.642 283.084 146.004 283.054C145.498 283.05 145.066 283.046 144.695 283.04ZM198.133 284.663C198.143 284.695 198.14 284.691 198.131 284.658C198.132 284.66 198.132 284.661 198.133 284.663ZM198.028 279.27C198.977 279.975 200.996 283.328 200.996 284.198C200.996 284.82 200.595 285.492 200.061 285.764C199.602 285.999 199.431 286 171 286C142.569 286 142.398 285.999 141.939 285.764C141.409 285.494 141.004 284.821 141.004 284.211C141.004 283.154 143.297 279.534 144.221 279.13C144.515 279.002 149.259 278.979 171.138 278.999L197.698 279.024L198.028 279.27ZM145.797 281.562C145.821 281.54 145.82 281.544 145.793 281.565C145.795 281.564 145.796 281.563 145.797 281.562Z" fill="#111111"/>
<path fill-rule="evenodd" clip-rule="evenodd" d="M395.114 226.005C394.606 225.952 394.001 226.242 380.41 233.048L366.235 240.147L423.85 240.16L409.747 233.11C399.021 227.747 395.518 226.046 395.114 226.005ZM411.491 237.242L408.443 235.718C403.079 233.036 399.536 231.277 397.286 230.185C396.242 229.678 395.495 229.324 394.983 229.09C394.732 229.204 394.391 229.362 393.928 229.584C392.044 230.486 388.526 232.245 381.715 235.655C381.715 235.655 381.715 235.655 381.715 235.655L378.563 237.234L411.491 237.242ZM394.271 228.786C394.269 228.785 394.287 228.791 394.327 228.806C394.292 228.795 394.272 228.787 394.271 228.786ZM366.183 246.593C367.128 248.292 368.424 250.004 369.242 250.448L369.728 250.712H420.272L420.758 250.448C421.576 250.004 422.872 248.292 423.817 246.593C424.341 245.652 424.757 244.714 424.925 244L425 243.677H365L365.075 244C365.243 244.714 365.659 245.652 366.183 246.593ZM369.615 246.593C369.867 246.956 370.112 247.274 370.33 247.528C370.432 247.646 370.514 247.733 370.575 247.796H419.425C419.486 247.733 419.568 247.646 419.67 247.528C419.888 247.274 420.133 246.956 420.385 246.593H369.615ZM372.035 275.449V254.229H382.697V275.449H372.035ZM379.781 272.533V257.144H374.95V272.533H379.781ZM389.727 275.449V254.229H400.273V275.449H389.727ZM397.357 272.533V257.144H392.643V272.533H397.357ZM407.303 275.449V254.229H417.965V275.449H407.303ZM415.05 272.533V257.144H410.219V272.533H415.05ZM367.873 284.624C367.873 284.624 367.875 284.617 367.88 284.601C367.876 284.616 367.873 284.624 367.873 284.624ZM368.695 283.04C368.707 283.022 368.718 283.004 368.73 282.986C368.975 282.597 369.224 282.245 369.441 281.97C369.474 281.969 369.509 281.968 369.544 281.967C370.342 281.948 371.622 281.934 373.599 281.924C377.547 281.905 384.193 281.905 395.135 281.915L420.54 281.939C420.548 281.95 420.557 281.961 420.566 281.973C420.79 282.27 421.043 282.643 421.287 283.041C420.921 283.046 420.494 283.05 419.996 283.054C416.358 283.084 409.225 283.084 395 283.084C380.775 283.084 373.642 283.084 370.004 283.054C369.498 283.05 369.066 283.046 368.695 283.04ZM422.133 284.663C422.143 284.695 422.14 284.691 422.131 284.658C422.132 284.66 422.132 284.661 422.133 284.663ZM422.028 279.27C422.977 279.975 424.996 283.328 424.996 284.198C424.996 284.82 424.595 285.492 424.061 285.764C423.602 285.999 423.431 286 395 286C366.569 286 366.398 285.999 365.939 285.764C365.409 285.494 365.004 284.821 365.004 284.211C365.004 283.154 367.297 279.534 368.221 279.13C368.515 279.002 373.259 278.979 395.138 278.999L421.698 279.024L422.028 279.27ZM369.797 281.562C369.821 281.54 369.82 281.544 369.793 281.565C369.795 281.564 369.796 281.563 369.797 281.562Z" fill="#111111"/>
<path fill-rule="evenodd" clip-rule="evenodd" d="M3.81433 8.1032C2.00277 8.45878 0.462836 10.0297 0.111752 11.8804C-0.0372506 12.6657 -0.0372506 57.3199 0.111752 58.1051C0.471172 59.9996 2.00172 61.5295 3.89696 61.8888C4.67912 62.0371 36.4839 62.0371 37.2661 61.8888C39.1613 61.5295 40.6919 59.9996 41.0513 58.1051C41.118 57.7538 41.159 54.7997 41.159 50.3563V43.1752L47.2077 37.1061C52.8032 31.4917 53.278 30.9874 53.5475 30.3724C54.1611 28.9725 54.1507 27.6356 53.516 26.2796C52.6752 24.4835 50.5252 23.3453 48.597 23.6755C47.1259 23.9274 46.7618 24.1894 43.8269 27.1085L41.159 29.7622V23.3203C41.159 19.4503 41.1167 16.6516 41.053 16.3102C40.8073 14.9946 40.503 14.5894 37.5296 11.6171C34.5561 8.64486 34.1507 8.34064 32.8345 8.09508C32.1276 7.96322 4.48811 7.97092 3.81433 8.1032ZM28.496 15.2794C28.496 19.3584 28.4986 19.41 28.7325 19.8261C29.1933 20.6455 29.203 20.647 33.8735 20.647H37.9933V26.7921V32.937L34.4043 36.5229L30.8154 40.1087L29.6029 43.7564C28.936 45.7627 28.3912 47.5427 28.3921 47.712C28.3963 48.443 29.1902 49.233 29.9207 49.233C30.429 49.233 37.4591 46.8498 37.7462 46.5802L37.9933 46.3481V51.9614C37.9933 57.3789 37.9859 57.5891 37.7808 57.9908C37.6441 58.2589 37.4199 58.4829 37.1518 58.6196C36.7398 58.8298 36.5631 58.832 20.5815 58.832C4.92889 58.832 4.41551 58.8257 4.0353 58.6319C3.80505 58.5145 3.54524 58.2579 3.40637 58.011L3.16978 57.5902L3.17031 34.9784L3.17084 12.3666L3.4204 11.9545C3.93864 11.0987 2.88803 11.1629 16.4396 11.158L28.496 11.1536V15.2794ZM32.4727 11.2641C32.8679 11.411 37.657 16.1751 37.8456 16.6089C37.9268 16.7956 37.9933 17.0685 37.9933 17.2155V17.4826H34.8275H31.6617V14.3181V11.1536H31.9187C32.06 11.1536 32.3093 11.2032 32.4727 11.2641ZM7.19242 24.0104C6.7508 24.2456 6.33682 24.9075 6.33608 25.3794C6.33534 25.8896 6.73803 26.5399 7.20108 26.7759C7.57917 26.9688 8.00856 26.976 18.9986 26.976C30.221 26.976 30.4105 26.9727 30.8203 26.7637C31.2885 26.5249 31.6617 25.9172 31.6617 25.3938C31.6617 24.8704 31.2885 24.2627 30.8203 24.0239C30.4103 23.8148 30.2255 23.8117 18.9765 23.816C8.1775 23.8202 7.52947 23.8308 7.19242 24.0104ZM50.0259 26.9774C50.4814 27.2097 50.8674 27.8209 50.8674 28.3098C50.8674 28.8107 50.4763 29.43 49.6284 30.2721L48.8055 31.0894L47.6729 29.9536L46.5402 28.818L47.4111 27.9551C47.8901 27.4806 48.4245 27.019 48.5986 26.9293C49.0305 26.7071 49.5286 26.7238 50.0259 26.9774ZM7.19242 30.3394C6.7508 30.5746 6.33682 31.2365 6.33608 31.7084C6.33534 32.2186 6.73803 32.8689 7.20108 33.1049C7.57643 33.2964 7.95115 33.305 15.8329 33.305C23.8824 33.305 24.0819 33.3002 24.4887 33.0927C24.9569 32.8539 25.3302 32.2462 25.3302 31.7228C25.3302 31.1994 24.9569 30.5917 24.4887 30.3529C24.0816 30.1453 23.887 30.1406 15.8107 30.145C8.0609 30.1491 7.52704 30.1611 7.19242 30.3394ZM42.743 37.1538L38.9434 40.9517L37.8094 39.8182L36.6754 38.6846L40.4726 34.8878L44.2697 31.091L45.4061 32.2234L46.5424 33.3558L42.743 37.1538ZM7.19242 36.6684C6.7508 36.9036 6.33682 37.5655 6.33608 38.0374C6.33534 38.5476 6.73803 39.1979 7.20108 39.4339C7.57643 39.6254 7.95115 39.634 15.8329 39.634C23.8824 39.634 24.0819 39.6292 24.4887 39.4217C24.9569 39.1829 25.3302 38.5752 25.3302 38.0518C25.3302 37.5284 24.9569 36.9207 24.4887 36.6819C24.0816 36.4743 23.887 36.4696 15.8107 36.474C8.0609 36.4781 7.52704 36.4901 7.19242 36.6684ZM35.5664 42.1131L36.6707 43.2208L36.2504 43.6305C35.8908 43.9808 35.5945 44.1179 34.2015 44.578C33.3059 44.8739 32.5587 45.1016 32.5411 45.084C32.5234 45.0664 32.7517 44.3195 33.0482 43.4242C33.4893 42.0922 33.6559 41.7246 33.965 41.4009C34.1727 41.1834 34.3695 41.0053 34.4023 41.0053C34.4352 41.0053 34.9589 41.5038 35.5664 42.1131ZM7.19242 42.9974C6.7508 43.2326 6.33682 43.8945 6.33608 44.3664C6.33534 44.8765 6.73803 45.5268 7.20108 45.7629C7.57643 45.9544 7.95115 45.963 15.8329 45.963C23.8824 45.963 24.0819 45.9582 24.4887 45.7507C24.9569 45.5119 25.3302 44.9042 25.3302 44.3808C25.3302 43.8574 24.9569 43.2497 24.4887 43.0109C24.0816 42.8033 23.887 42.7986 15.8107 42.803C8.0609 42.8071 7.52704 42.8191 7.19242 42.9974ZM19.8555 52.7018C19.4139 52.937 18.9999 53.5989 18.9992 54.0709C18.9984 54.581 19.4011 55.2313 19.8642 55.4674C20.2333 55.6557 20.5568 55.6675 25.3302 55.6675C30.2068 55.6675 30.42 55.6592 30.8203 55.4551C31.2885 55.2163 31.6617 54.6086 31.6617 54.0852C31.6617 53.5618 31.2885 52.9541 30.8203 52.7153C30.4196 52.511 30.2116 52.5032 25.308 52.5074C20.6074 52.5115 20.1845 52.5266 19.8555 52.7018Z" fill="#111111"/>
<path fill-rule="evenodd" clip-rule="evenodd" d="M515.814 8.1032C514.003 8.45878 512.463 10.0297 512.112 11.8804C511.963 12.6657 511.963 57.3199 512.112 58.1051C512.471 59.9996 514.002 61.5295 515.897 61.8888C516.679 62.0371 548.484 62.0371 549.266 61.8888C551.161 61.5295 552.692 59.9996 553.051 58.1051C553.118 57.7538 553.159 54.7997 553.159 50.3563V43.1752L559.208 37.1061C564.803 31.4917 565.278 30.9874 565.548 30.3724C566.161 28.9725 566.151 27.6356 565.516 26.2796C564.675 24.4835 562.525 23.3453 560.597 23.6755C559.126 23.9274 558.762 24.1894 555.827 27.1085L553.159 29.7622V23.3203C553.159 19.4503 553.117 16.6516 553.053 16.3102C552.807 14.9946 552.503 14.5894 549.53 11.6171C546.556 8.64486 546.151 8.34064 544.835 8.09508C544.128 7.96322 516.488 7.97092 515.814 8.1032ZM540.496 15.2794C540.496 19.3584 540.499 19.41 540.733 19.8261C541.193 20.6455 541.203 20.647 545.874 20.647H549.993V26.7921V32.937L546.404 36.5229L542.815 40.1087L541.603 43.7564C540.936 45.7627 540.391 47.5427 540.392 47.712C540.396 48.443 541.19 49.233 541.921 49.233C542.429 49.233 549.459 46.8498 549.746 46.5802L549.993 46.3481V51.9614C549.993 57.3789 549.986 57.5891 549.781 57.9908C549.644 58.2589 549.42 58.4829 549.152 58.6196C548.74 58.8298 548.563 58.832 532.582 58.832C516.929 58.832 516.416 58.8257 516.035 58.6319C515.805 58.5145 515.545 58.2579 515.406 58.011L515.17 57.5902L515.17 34.9784L515.171 12.3666L515.42 11.9545C515.939 11.0987 514.888 11.1629 528.44 11.158L540.496 11.1536V15.2794ZM544.473 11.2641C544.868 11.411 549.657 16.1751 549.846 16.6089C549.927 16.7956 549.993 17.0685 549.993 17.2155V17.4826H546.827H543.662V14.3181V11.1536H543.919C544.06 11.1536 544.309 11.2032 544.473 11.2641ZM519.192 24.0104C518.751 24.2456 518.337 24.9075 518.336 25.3794C518.335 25.8896 518.738 26.5399 519.201 26.7759C519.579 26.9688 520.009 26.976 530.999 26.976C542.221 26.976 542.411 26.9727 542.82 26.7637C543.288 26.5249 543.662 25.9172 543.662 25.3938C543.662 24.8704 543.288 24.2627 542.82 24.0239C542.41 23.8148 542.226 23.8117 530.976 23.816C520.178 23.8202 519.529 23.8308 519.192 24.0104ZM562.026 26.9774C562.481 27.2097 562.867 27.8209 562.867 28.3098C562.867 28.8107 562.476 29.43 561.628 30.2721L560.806 31.0894L559.673 29.9536L558.54 28.818L559.411 27.9551C559.89 27.4806 560.424 27.019 560.599 26.9293C561.031 26.7071 561.529 26.7238 562.026 26.9774ZM519.192 30.3394C518.751 30.5746 518.337 31.2365 518.336 31.7084C518.335 32.2186 518.738 32.8689 519.201 33.1049C519.576 33.2964 519.951 33.305 527.833 33.305C535.882 33.305 536.082 33.3002 536.489 33.0927C536.957 32.8539 537.33 32.2462 537.33 31.7228C537.33 31.1994 536.957 30.5917 536.489 30.3529C536.082 30.1453 535.887 30.1406 527.811 30.145C520.061 30.1491 519.527 30.1611 519.192 30.3394ZM554.743 37.1538L550.943 40.9517L549.809 39.8182L548.675 38.6846L552.473 34.8878L556.27 31.091L557.406 32.2234L558.542 33.3558L554.743 37.1538ZM519.192 36.6684C518.751 36.9036 518.337 37.5655 518.336 38.0374C518.335 38.5476 518.738 39.1979 519.201 39.4339C519.576 39.6254 519.951 39.634 527.833 39.634C535.882 39.634 536.082 39.6292 536.489 39.4217C536.957 39.1829 537.33 38.5752 537.33 38.0518C537.33 37.5284 536.957 36.9207 536.489 36.6819C536.082 36.4743 535.887 36.4696 527.811 36.474C520.061 36.4781 519.527 36.4901 519.192 36.6684ZM547.566 42.1131L548.671 43.2208L548.25 43.6305C547.891 43.9808 547.594 44.1179 546.202 44.578C545.306 44.8739 544.559 45.1016 544.541 45.084C544.523 45.0664 544.752 44.3195 545.048 43.4242C545.489 42.0922 545.656 41.7246 545.965 41.4009C546.173 41.1834 546.37 41.0053 546.402 41.0053C546.435 41.0053 546.959 41.5038 547.566 42.1131ZM519.192 42.9974C518.751 43.2326 518.337 43.8945 518.336 44.3664C518.335 44.8765 518.738 45.5268 519.201 45.7629C519.576 45.9544 519.951 45.963 527.833 45.963C535.882 45.963 536.082 45.9582 536.489 45.7507C536.957 45.5119 537.33 44.9042 537.33 44.3808C537.33 43.8574 536.957 43.2497 536.489 43.0109C536.082 42.8033 535.887 42.7986 527.811 42.803C520.061 42.8071 519.527 42.8191 519.192 42.9974ZM531.856 52.7018C531.414 52.937 531 53.5989 530.999 54.0709C530.998 54.581 531.401 55.2313 531.864 55.4674C532.233 55.6557 532.557 55.6675 537.33 55.6675C542.207 55.6675 542.42 55.6592 542.82 55.4551C543.288 55.2163 543.662 54.6086 543.662 54.0852C543.662 53.5618 543.288 52.9541 542.82 52.7153C542.42 52.511 542.212 52.5032 537.308 52.5074C532.607 52.5115 532.185 52.5266 531.856 52.7018Z" fill="#111111"/>
<path fill-rule="evenodd" clip-rule="evenodd" d="M3.81433 232.103C2.00277 232.459 0.462836 234.03 0.111752 235.88C-0.0372506 236.666 -0.0372506 281.32 0.111752 282.105C0.471172 284 2.00172 285.529 3.89696 285.889C4.67912 286.037 36.4839 286.037 37.2661 285.889C39.1613 285.529 40.6919 284 41.0513 282.105C41.118 281.754 41.159 278.8 41.159 274.356V267.175L47.2077 261.106C52.8032 255.492 53.278 254.987 53.5475 254.372C54.1611 252.973 54.1507 251.636 53.516 250.28C52.6752 248.483 50.5252 247.345 48.597 247.675C47.1259 247.927 46.7618 248.189 43.8269 251.109L41.159 253.762V247.32C41.159 243.45 41.1167 240.652 41.053 240.31C40.8073 238.995 40.503 238.589 37.5296 235.617C34.5561 232.645 34.1507 232.341 32.8345 232.095C32.1276 231.963 4.48811 231.971 3.81433 232.103ZM28.496 239.279C28.496 243.358 28.4986 243.41 28.7325 243.826C29.1933 244.645 29.203 244.647 33.8735 244.647H37.9933V250.792V256.937L34.4043 260.523L30.8154 264.109L29.6029 267.756C28.936 269.763 28.3912 271.543 28.3921 271.712C28.3963 272.443 29.1902 273.233 29.9207 273.233C30.429 273.233 37.4591 270.85 37.7462 270.58L37.9933 270.348V275.961C37.9933 281.379 37.9859 281.589 37.7808 281.991C37.6441 282.259 37.4199 282.483 37.1518 282.62C36.7398 282.83 36.5631 282.832 20.5815 282.832C4.92889 282.832 4.41551 282.826 4.0353 282.632C3.80505 282.514 3.54524 282.258 3.40637 282.011L3.16978 281.59L3.17031 258.978L3.17084 236.367L3.4204 235.954C3.93864 235.099 2.88803 235.163 16.4396 235.158L28.496 235.154V239.279ZM32.4727 235.264C32.8679 235.411 37.657 240.175 37.8456 240.609C37.9268 240.796 37.9933 241.069 37.9933 241.215V241.483H34.8275H31.6617V238.318V235.154H31.9187C32.06 235.154 32.3093 235.203 32.4727 235.264ZM7.19242 248.01C6.7508 248.246 6.33682 248.908 6.33608 249.379C6.33534 249.89 6.73803 250.54 7.20108 250.776C7.57917 250.969 8.00856 250.976 18.9986 250.976C30.221 250.976 30.4105 250.973 30.8203 250.764C31.2885 250.525 31.6617 249.917 31.6617 249.394C31.6617 248.87 31.2885 248.263 30.8203 248.024C30.4103 247.815 30.2255 247.812 18.9765 247.816C8.1775 247.82 7.52947 247.831 7.19242 248.01ZM50.0259 250.977C50.4814 251.21 50.8674 251.821 50.8674 252.31C50.8674 252.811 50.4763 253.43 49.6284 254.272L48.8055 255.089L47.6729 253.954L46.5402 252.818L47.4111 251.955C47.8901 251.481 48.4245 251.019 48.5986 250.929C49.0305 250.707 49.5286 250.724 50.0259 250.977ZM7.19242 254.339C6.7508 254.575 6.33682 255.237 6.33608 255.708C6.33534 256.219 6.73803 256.869 7.20108 257.105C7.57643 257.296 7.95115 257.305 15.8329 257.305C23.8824 257.305 24.0819 257.3 24.4887 257.093C24.9569 256.854 25.3302 256.246 25.3302 255.723C25.3302 255.199 24.9569 254.592 24.4887 254.353C24.0816 254.145 23.887 254.141 15.8107 254.145C8.0609 254.149 7.52704 254.161 7.19242 254.339ZM42.743 261.154L38.9434 264.952L37.8094 263.818L36.6754 262.685L40.4726 258.888L44.2697 255.091L45.4061 256.223L46.5424 257.356L42.743 261.154ZM7.19242 260.668C6.7508 260.904 6.33682 261.566 6.33608 262.037C6.33534 262.548 6.73803 263.198 7.20108 263.434C7.57643 263.625 7.95115 263.634 15.8329 263.634C23.8824 263.634 24.0819 263.629 24.4887 263.422C24.9569 263.183 25.3302 262.575 25.3302 262.052C25.3302 261.528 24.9569 260.921 24.4887 260.682C24.0816 260.474 23.887 260.47 15.8107 260.474C8.0609 260.478 7.52704 260.49 7.19242 260.668ZM35.5664 266.113L36.6707 267.221L36.2504 267.63C35.8908 267.981 35.5945 268.118 34.2015 268.578C33.3059 268.874 32.5587 269.102 32.5411 269.084C32.5234 269.066 32.7517 268.319 33.0482 267.424C33.4893 266.092 33.6559 265.725 33.965 265.401C34.1727 265.183 34.3695 265.005 34.4023 265.005C34.4352 265.005 34.9589 265.504 35.5664 266.113ZM7.19242 266.997C6.7508 267.233 6.33682 267.894 6.33608 268.366C6.33534 268.877 6.73803 269.527 7.20108 269.763C7.57643 269.954 7.95115 269.963 15.8329 269.963C23.8824 269.963 24.0819 269.958 24.4887 269.751C24.9569 269.512 25.3302 268.904 25.3302 268.381C25.3302 267.857 24.9569 267.25 24.4887 267.011C24.0816 266.803 23.887 266.799 15.8107 266.803C8.0609 266.807 7.52704 266.819 7.19242 266.997ZM19.8555 276.702C19.4139 276.937 18.9999 277.599 18.9992 278.071C18.9984 278.581 19.4011 279.231 19.8642 279.467C20.2333 279.656 20.5568 279.667 25.3302 279.667C30.2068 279.667 30.42 279.659 30.8203 279.455C31.2885 279.216 31.6617 278.609 31.6617 278.085C31.6617 277.562 31.2885 276.954 30.8203 276.715C30.4196 276.511 30.2116 276.503 25.308 276.507C20.6074 276.512 20.1845 276.527 19.8555 276.702Z" fill="#111111"/>
<path fill-rule="evenodd" clip-rule="evenodd" d="M515.814 232.103C514.003 232.459 512.463 234.03 512.112 235.88C511.963 236.666 511.963 281.32 512.112 282.105C512.471 284 514.002 285.529 515.897 285.889C516.679 286.037 548.484 286.037 549.266 285.889C551.161 285.529 552.692 284 553.051 282.105C553.118 281.754 553.159 278.8 553.159 274.356V267.175L559.208 261.106C564.803 255.492 565.278 254.987 565.548 254.372C566.161 252.973 566.151 251.636 565.516 250.28C564.675 248.483 562.525 247.345 560.597 247.675C559.126 247.927 558.762 248.189 555.827 251.109L553.159 253.762V247.32C553.159 243.45 553.117 240.652 553.053 240.31C552.807 238.995 552.503 238.589 549.53 235.617C546.556 232.645 546.151 232.341 544.835 232.095C544.128 231.963 516.488 231.971 515.814 232.103ZM540.496 239.279C540.496 243.358 540.499 243.41 540.733 243.826C541.193 244.645 541.203 244.647 545.874 244.647H549.993V250.792V256.937L546.404 260.523L542.815 264.109L541.603 267.756C540.936 269.763 540.391 271.543 540.392 271.712C540.396 272.443 541.19 273.233 541.921 273.233C542.429 273.233 549.459 270.85 549.746 270.58L549.993 270.348V275.961C549.993 281.379 549.986 281.589 549.781 281.991C549.644 282.259 549.42 282.483 549.152 282.62C548.74 282.83 548.563 282.832 532.582 282.832C516.929 282.832 516.416 282.826 516.035 282.632C515.805 282.514 515.545 282.258 515.406 282.011L515.17 281.59L515.17 258.978L515.171 236.367L515.42 235.954C515.939 235.099 514.888 235.163 528.44 235.158L540.496 235.154V239.279ZM544.473 235.264C544.868 235.411 549.657 240.175 549.846 240.609C549.927 240.796 549.993 241.069 549.993 241.215V241.483H546.827H543.662V238.318V235.154H543.919C544.06 235.154 544.309 235.203 544.473 235.264ZM519.192 248.01C518.751 248.246 518.337 248.908 518.336 249.379C518.335 249.89 518.738 250.54 519.201 250.776C519.579 250.969 520.009 250.976 530.999 250.976C542.221 250.976 542.411 250.973 542.82 250.764C543.288 250.525 543.662 249.917 543.662 249.394C543.662 248.87 543.288 248.263 542.82 248.024C542.41 247.815 542.226 247.812 530.976 247.816C520.178 247.82 519.529 247.831 519.192 248.01ZM562.026 250.977C562.481 251.21 562.867 251.821 562.867 252.31C562.867 252.811 562.476 253.43 561.628 254.272L560.806 255.089L559.673 253.954L558.54 252.818L559.411 251.955C559.89 251.481 560.424 251.019 560.599 250.929C561.031 250.707 561.529 250.724 562.026 250.977ZM519.192 254.339C518.751 254.575 518.337 255.237 518.336 255.708C518.335 256.219 518.738 256.869 519.201 257.105C519.576 257.296 519.951 257.305 527.833 257.305C535.882 257.305 536.082 257.3 536.489 257.093C536.957 256.854 537.33 256.246 537.33 255.723C537.33 255.199 536.957 254.592 536.489 254.353C536.082 254.145 535.887 254.141 527.811 254.145C520.061 254.149 519.527 254.161 519.192 254.339ZM554.743 261.154L550.943 264.952L549.809 263.818L548.675 262.685L552.473 258.888L556.27 255.091L557.406 256.223L558.542 257.356L554.743 261.154ZM519.192 260.668C518.751 260.904 518.337 261.566 518.336 262.037C518.335 262.548 518.738 263.198 519.201 263.434C519.576 263.625 519.951 263.634 527.833 263.634C535.882 263.634 536.082 263.629 536.489 263.422C536.957 263.183 537.33 262.575 537.33 262.052C537.33 261.528 536.957 260.921 536.489 260.682C536.082 260.474 535.887 260.47 527.811 260.474C520.061 260.478 519.527 260.49 519.192 260.668ZM547.566 266.113L548.671 267.221L548.25 267.63C547.891 267.981 547.594 268.118 546.202 268.578C545.306 268.874 544.559 269.102 544.541 269.084C544.523 269.066 544.752 268.319 545.048 267.424C545.489 266.092 545.656 265.725 545.965 265.401C546.173 265.183 546.37 265.005 546.402 265.005C546.435 265.005 546.959 265.504 547.566 266.113ZM519.192 266.997C518.751 267.233 518.337 267.894 518.336 268.366C518.335 268.877 518.738 269.527 519.201 269.763C519.576 269.954 519.951 269.963 527.833 269.963C535.882 269.963 536.082 269.958 536.489 269.751C536.957 269.512 537.33 268.904 537.33 268.381C537.33 267.857 536.957 267.25 536.489 267.011C536.082 266.803 535.887 266.799 527.811 266.803C520.061 266.807 519.527 266.819 519.192 266.997ZM531.856 276.702C531.414 276.937 531 277.599 530.999 278.071C530.998 278.581 531.401 279.231 531.864 279.467C532.233 279.656 532.557 279.667 537.33 279.667C542.207 279.667 542.42 279.659 542.82 279.455C543.288 279.216 543.662 278.609 543.662 278.085C543.662 277.562 543.288 276.954 542.82 276.715C542.42 276.511 542.212 276.503 537.308 276.507C532.607 276.512 532.185 276.527 531.856 276.702Z" fill="#111111"/>
<line x1="221" y1="31" x2="345" y2="31" stroke="url(#paint0_linear_7_19927)" stroke-width="2"/>
<line x1="172" y1="82" x2="172" y2="206" stroke="url(#paint1_linear_7_19927)" stroke-width="2"/>
<line x1="339.844" y1="87.7071" x2="226.707" y2="200.844" stroke="url(#paint2_linear_7_19927)" stroke-width="2"/>
<line x1="226.707" y1="86.2929" x2="339.844" y2="199.43" stroke="url(#paint3_linear_7_19927)" stroke-width="2"/>
<line x1="396" y1="82" x2="396" y2="206" stroke="url(#paint4_linear_7_19927)" stroke-width="2"/>
<line x1="221" y1="255" x2="345" y2="255" stroke="url(#paint5_linear_7_19927)" stroke-width="2"/>
<line x1="447" y1="31" x2="487" y2="31" stroke="url(#paint6_linear_7_19927)" stroke-width="2"/>
<line x1="447" y1="47" x2="487" y2="47" stroke="url(#paint7_linear_7_19927)" stroke-width="2"/>
<rect x="451" y="29" width="12" height="4" fill="#3E1BDB"/>
<rect x="471" y="45" width="12" height="4" fill="#3E1BDB"/>
<line x1="447" y1="254" x2="487" y2="254" stroke="url(#paint8_linear_7_19927)" stroke-width="2"/>
<line x1="447" y1="270" x2="487" y2="270" stroke="url(#paint9_linear_7_19927)" stroke-width="2"/>
<rect x="451" y="252" width="12" height="4" fill="#3E1BDB"/>
<rect x="471" y="268" width="12" height="4" fill="#3E1BDB"/>
<line x1="79" y1="254" x2="119" y2="254" stroke="url(#paint10_linear_7_19927)" stroke-width="2"/>
<line x1="79" y1="270" x2="119" y2="270" stroke="url(#paint11_linear_7_19927)" stroke-width="2"/>
<rect x="83" y="252" width="12" height="4" fill="#3E1BDB"/>
<rect x="103" y="268" width="12" height="4" fill="#3E1BDB"/>
<line x1="79" y1="31" x2="119" y2="31" stroke="url(#paint12_linear_7_19927)" stroke-width="2"/>
<line x1="79" y1="47" x2="119" y2="47" stroke="url(#paint13_linear_7_19927)" stroke-width="2"/>
<rect x="83" y="29" width="12" height="4" fill="#3E1BDB"/>
<rect x="103" y="45" width="12" height="4" fill="#3E1BDB"/>
<rect x="301" y="29" width="12" height="4" fill="#3E1BDB"/>
<rect x="301" y="253" width="12" height="4" fill="#3E1BDB"/>
<rect x="253" y="29" width="12" height="4" fill="#3E1BDB"/>
<rect x="253" y="253" width="12" height="4" fill="#3E1BDB"/>
<rect x="170" y="126" width="12" height="4" transform="rotate(-90 170 126)" fill="#3E1BDB"/>
<rect x="394" y="126" width="12" height="4" transform="rotate(-90 394 126)" fill="#3E1BDB"/>
<rect x="305" y="119.485" width="12" height="4" transform="rotate(-45 305 119.485)" fill="#3E1BDB"/>
<rect x="306.829" y="164" width="12" height="4" transform="rotate(45 306.829 164)" fill="#3E1BDB"/>
<rect x="259.485" y="122.314" width="12" height="4" transform="rotate(-135 259.485 122.314)" fill="#3E1BDB"/>
<rect x="250" y="175.485" width="12" height="4" transform="rotate(-45 250 175.485)" fill="#3E1BDB"/>
<rect x="170" y="174" width="12" height="4" transform="rotate(-90 170 174)" fill="#3E1BDB"/>
<rect x="394" y="174" width="12" height="4" transform="rotate(-90 394 174)" fill="#3E1BDB"/>
<path fill-rule="evenodd" clip-rule="evenodd" d="M196.756 353.135C188.72 354.127 182.136 359.914 180.153 367.729C179.725 369.416 179.6 370.545 179.581 372.886C179.564 375.068 179.562 375.084 179.287 375.687C178.904 376.528 178.226 377.139 176.994 377.755L176 378.252V380.253V382.253L178.619 380.92C180.059 380.187 183.066 378.656 185.301 377.517C187.536 376.379 195.092 372.537 202.092 368.979C209.092 365.422 216.472 361.669 218.491 360.641L222.163 358.77L222.189 356.806C222.204 355.725 222.182 354.841 222.14 354.842C222.099 354.842 213.346 359.276 202.689 364.695C192.032 370.113 183.287 374.52 183.255 374.488C183.222 374.456 183.196 373.523 183.196 372.414C183.196 370.672 183.227 370.254 183.424 369.337C184.488 364.386 187.624 360.345 192.095 358.163C196.452 356.037 201.526 356.014 206.007 358.1L206.953 358.541L208.77 357.635L210.586 356.729L210.109 356.386C206.536 353.822 201.375 352.566 196.756 353.135ZM245.075 358.165C241.17 358.702 238.22 360.658 237.235 363.36C236.633 365.015 236.762 367.171 237.559 368.74C238.35 370.299 239.903 371.589 242.002 372.428C243.008 372.831 243.851 373.057 246.248 373.567C249.571 374.273 250.923 374.728 252.049 375.516C253.272 376.371 253.769 377.317 253.768 378.787C253.767 380.961 252.498 382.416 249.965 383.146C249.267 383.348 248.99 383.371 247.325 383.364C245.214 383.356 244.497 383.22 243.197 382.58C241.541 381.765 240.228 379.974 239.791 377.933L239.733 377.665H237.825H235.916L235.98 378.08C236.191 379.459 236.942 381.3 237.756 382.437C239.831 385.335 243.513 386.889 247.863 386.704C250.989 386.571 253.58 385.622 255.402 383.941C256.468 382.958 257.218 381.737 257.572 380.411C257.832 379.44 257.854 377.623 257.618 376.653C257.25 375.136 256.113 373.566 254.71 372.637C253.204 371.64 251.491 371.035 247.814 370.204C246.468 369.899 244.992 369.54 244.534 369.405C242.814 368.9 241.641 368.057 241.128 366.959C240.903 366.477 240.866 366.27 240.865 365.473C240.863 364.677 240.899 364.47 241.116 364.009C241.61 362.964 242.895 362.052 244.486 361.62C245.292 361.4 247.287 361.319 248.214 361.468C250.785 361.882 252.651 363.227 253.394 365.204L253.568 365.668H255.415C257.518 365.668 257.387 365.736 257.106 364.783C256.301 362.049 254.398 359.981 251.734 358.943C250.3 358.385 249.08 358.157 247.276 358.11C246.441 358.088 245.451 358.113 245.075 358.165ZM291.432 372.398V386.249H293.145H294.858V372.398V358.547H293.145H291.432V372.398ZM298.383 372.398V386.249H300.096H301.81V372.398V358.547H300.096H298.383V372.398ZM261.833 360.561C261.796 360.598 261.766 361.762 261.766 363.148V365.668H260.151H258.535V367.082V368.496H260.144H261.753L261.792 375.739C261.826 381.924 261.855 383.076 261.987 383.629C262.197 384.5 262.461 384.988 262.951 385.406C263.707 386.05 264.736 386.244 267.423 386.247L269.212 386.249L269.185 384.81L269.158 383.371L267.672 383.323C266.364 383.28 266.153 383.249 265.91 383.07C265.319 382.634 265.342 382.932 265.313 375.399L265.286 368.5L267.222 368.474L269.158 368.448V367.082V365.716L267.226 365.69L265.294 365.664L265.268 363.105L265.242 360.547L263.571 360.52C262.653 360.506 261.871 360.524 261.833 360.561ZM199.106 374.474L176.049 386.2L176.022 388.175C176.008 389.261 176.024 390.15 176.058 390.15C176.093 390.15 178.396 388.992 181.176 387.577C205.466 375.213 214.898 370.444 214.952 370.498C214.987 370.533 215.016 371.468 215.016 372.577C215.016 374.319 214.985 374.737 214.788 375.654C213.724 380.605 210.588 384.646 206.117 386.828C201.754 388.957 196.72 388.978 192.195 386.888L191.224 386.439L189.43 387.354L187.635 388.269L188.108 388.608C189.38 389.521 191.296 390.464 193.03 391.029C201.448 393.775 210.589 390.558 215.482 383.127C217.669 379.807 218.864 375.427 218.636 371.569C218.503 369.314 219.06 368.355 221.127 367.281L222.212 366.717V364.729C222.212 363.636 222.201 362.743 222.187 362.745C222.174 362.747 211.787 368.025 199.106 374.474ZM311.673 365.425C308.007 366.118 305.577 368.491 305.105 371.837L305.053 372.203H306.838H308.623L308.731 371.574C309.134 369.235 311.015 367.959 313.803 368.136C315.834 368.265 317.091 369.164 317.681 370.909C317.854 371.422 317.905 371.797 317.909 372.593L317.915 373.617L317.622 373.644C316.673 373.732 313.524 374.199 312.482 374.406C308.945 375.109 306.94 375.953 305.571 377.316C304.514 378.37 304.166 379.238 304.162 380.839C304.157 382.472 304.6 383.567 305.724 384.699C307.061 386.047 308.949 386.736 311.307 386.735C314.218 386.735 316.449 385.812 317.729 384.08L318.147 383.513L318.199 383.93C318.227 384.159 318.276 384.632 318.307 384.981C318.338 385.329 318.389 385.757 318.42 385.932L318.476 386.249H320.234C321.866 386.249 321.988 386.237 321.937 386.077C321.792 385.623 321.573 383.589 321.488 381.916C321.436 380.892 321.421 378.519 321.454 376.641C321.494 374.352 321.477 372.868 321.402 372.138C320.998 368.221 319.361 366.234 315.951 365.521C314.863 365.293 312.635 365.243 311.673 365.425ZM278.067 365.445C277.485 365.526 276.204 365.882 275.624 366.125C272.569 367.402 270.535 370.049 269.825 373.666C269.627 374.676 269.605 377.093 269.784 378.153C270.176 380.474 271.03 382.332 272.369 383.773C274.752 386.335 278.66 387.338 282.522 386.379C285.291 385.691 287.609 383.702 288.587 381.176C288.751 380.75 288.886 380.379 288.886 380.351C288.886 380.322 288.082 380.3 287.099 380.302L285.312 380.305L284.97 380.901C284.264 382.129 283.277 382.947 282.04 383.329C278.413 384.452 274.827 382.743 273.75 379.38C273.611 378.946 273.473 378.252 273.443 377.836L273.389 377.08H281.284H289.18V376.093C289.18 373.582 288.468 371.122 287.193 369.228C286.634 368.398 285.328 367.151 284.527 366.683C282.961 365.769 281.418 365.37 279.536 365.391C278.89 365.398 278.229 365.423 278.067 365.445ZM333.009 365.672C332.177 365.811 331.249 366.138 330.608 366.518C329.882 366.948 328.903 367.942 328.461 368.699L328.151 369.228L328.149 367.448L328.147 365.668H326.482H324.818V375.958V386.249H326.525H328.233L328.272 379.884C328.305 374.599 328.337 373.416 328.462 372.911C328.85 371.333 329.376 370.465 330.305 369.867C331.138 369.33 331.653 369.227 333.458 369.234L335 369.241V367.405V365.57L334.241 365.582C333.824 365.588 333.269 365.629 333.009 365.672ZM281.224 368.555C282.609 368.915 284.05 370.074 284.752 371.393C285.095 372.037 285.459 373.293 285.459 373.828V374.154H279.427H273.394L273.464 373.596C273.825 370.717 275.725 368.794 278.606 368.392C279.292 368.296 280.52 368.373 281.224 368.555ZM318.228 377.836C318.163 379.442 318.037 380.013 317.516 381.065C316.646 382.82 314.933 383.799 312.446 383.965C310.431 384.099 308.846 383.385 308.238 382.069C308.077 381.719 308.028 381.426 308.028 380.786C308.027 380.057 308.059 379.903 308.295 379.502C309.149 378.055 311.419 377.201 316.006 376.601C316.787 376.499 317.619 376.411 317.856 376.406L318.286 376.397L318.228 377.836Z" fill="#111111"/>
<path fill-rule="evenodd" clip-rule="evenodd" d="M382.221 344.224C381.714 344.499 381.454 345.066 381.315 346.203C381.034 348.5 379.389 350.186 377.149 350.474C376.003 350.622 375.486 350.88 375.204 351.447C374.978 351.902 374.977 351.923 375.026 359.134C375.066 365.005 375.108 366.633 375.252 367.787C376.112 374.688 378.358 380.75 382.08 386.218C384.79 390.2 388.574 393.968 392.546 396.638C395.03 398.309 398.277 400 399 400C399.411 400 401.384 399.099 403.054 398.148C407.974 395.346 412.672 390.99 415.92 386.218C419.102 381.545 421.33 376.113 422.313 370.636C422.889 367.429 422.922 366.856 422.974 359.134C423.023 351.923 423.022 351.902 422.796 351.447C422.514 350.88 421.997 350.622 420.851 350.474C418.611 350.186 416.966 348.5 416.685 346.203C416.543 345.043 416.287 344.497 415.756 344.219C415.333 343.998 415.221 343.996 398.978 344.001C382.845 344.006 382.619 344.009 382.221 344.224ZM413.716 347.852C413.869 348.475 414.427 349.708 414.809 350.265C415.187 350.818 416.181 351.858 416.72 352.263C417.377 352.757 418.547 353.339 419.253 353.521L419.823 353.669L419.77 360.017C419.73 364.825 419.677 366.673 419.554 367.632C418.46 376.126 415.071 383.301 409.404 389.122C406.567 392.036 403.644 394.199 400.147 395.969L399 396.55L397.853 395.969C394.356 394.199 391.433 392.036 388.596 389.122C382.929 383.301 379.54 376.126 378.446 367.632C378.323 366.673 378.27 364.825 378.23 360.017L378.177 353.669L378.747 353.521C379.453 353.339 380.623 352.757 381.28 352.263C381.819 351.858 382.813 350.818 383.191 350.265C383.573 349.708 384.131 348.475 384.284 347.852L384.425 347.278H399H413.575L413.716 347.852ZM386.936 350.776C386.68 350.915 386.366 351.277 385.984 351.874C385.245 353.028 383.868 354.442 382.699 355.248C381.331 356.192 381.398 355.923 381.398 360.495C381.398 362.587 381.448 364.96 381.508 365.769C382.034 372.792 384.658 379.373 389.068 384.733C391.426 387.599 394.446 390.181 397.565 392C398.324 392.442 398.632 392.562 399 392.562C399.368 392.562 399.676 392.442 400.435 392C407.897 387.65 413.391 380.212 415.571 371.506C416.386 368.253 416.602 365.947 416.602 360.495C416.602 355.926 416.668 356.191 415.307 355.252C414.13 354.441 412.816 353.094 412.025 351.888C411.579 351.207 411.295 350.888 411.013 350.751C410.647 350.572 409.851 350.56 398.97 350.564C387.746 350.569 387.305 350.577 386.936 350.776ZM409.969 354.579C410.582 355.425 412.02 356.883 412.842 357.492L413.402 357.907L413.401 361.206C413.401 364.694 413.309 366.208 412.97 368.317C412.163 373.328 409.999 378.227 406.827 382.227C405.881 383.42 403.759 385.583 402.567 386.57C401.775 387.226 399.147 389.062 399 389.062C398.853 389.062 396.225 387.226 395.433 386.57C394.241 385.583 392.119 383.42 391.173 382.227C388.001 378.227 385.837 373.328 385.03 368.317C384.691 366.208 384.599 364.694 384.599 361.207L384.598 357.909L385.318 357.361C386.144 356.732 387.566 355.258 388.159 354.415L388.564 353.841H398.999H409.434L409.969 354.579ZM397.987 357.183C397.869 357.211 397.511 357.288 397.191 357.355C394.872 357.838 392.614 359.806 391.622 362.209C391.183 363.272 391.055 363.98 391.057 365.326C391.059 366.844 391.236 367.609 391.91 369.016C392.29 369.809 392.588 370.236 393.297 371L394.199 371.972V373.775C394.199 374.767 394.248 375.843 394.308 376.167C394.783 378.735 397.24 380.533 399.702 380.115C401.728 379.771 403.316 378.199 403.692 376.167C403.752 375.843 403.801 374.767 403.801 373.775V371.972L404.703 371C405.697 369.929 406.409 368.645 406.758 367.295C406.987 366.408 407.009 364.325 406.797 363.467C406.074 360.527 403.838 358.19 400.974 357.376C400.433 357.223 398.378 357.09 397.987 357.183ZM399.865 360.515C401.872 360.906 403.404 362.555 403.723 364.669C403.997 366.486 403.151 368.381 401.572 369.485C400.636 370.14 400.6 370.275 400.6 373.139C400.6 375.406 400.582 375.653 400.385 376.048C400.144 376.534 399.529 376.921 399 376.921C398.471 376.921 397.856 376.534 397.615 376.048C397.418 375.653 397.4 375.406 397.4 373.139C397.4 370.275 397.364 370.14 396.428 369.485C394.849 368.381 394.003 366.486 394.277 364.669C394.7 361.867 397.212 360 399.865 360.515Z" fill="#111111"/>
<line x1="135" y1="324" x2="463" y2="324" stroke="#111111" stroke-width="2"/>
<defs>
<linearGradient id="paint0_linear_7_19927" x1="345" y1="32" x2="221" y2="32" gradientUnits="userSpaceOnUse">
<stop/>
<stop offset="0.440625" stop-opacity="0"/>
<stop offset="0.555208" stop-opacity="0"/>
<stop offset="1"/>
</linearGradient>
<linearGradient id="paint1_linear_7_19927" x1="171" y1="206" x2="171" y2="82" gradientUnits="userSpaceOnUse">
<stop/>
<stop offset="0.440625" stop-opacity="0"/>
<stop offset="0.555208" stop-opacity="0"/>
<stop offset="1"/>
</linearGradient>
<linearGradient id="paint2_linear_7_19927" x1="226" y1="200.137" x2="339.137" y2="87" gradientUnits="userSpaceOnUse">
<stop/>
<stop offset="0.440625" stop-opacity="0"/>
<stop offset="0.555208" stop-opacity="0"/>
<stop offset="1"/>
</linearGradient>
<linearGradient id="paint3_linear_7_19927" x1="339.137" y1="200.137" x2="226" y2="87" gradientUnits="userSpaceOnUse">
<stop/>
<stop offset="0.440625" stop-opacity="0"/>
<stop offset="0.555208" stop-opacity="0"/>
<stop offset="1"/>
</linearGradient>
<linearGradient id="paint4_linear_7_19927" x1="395" y1="206" x2="395" y2="82" gradientUnits="userSpaceOnUse">
<stop/>
<stop offset="0.440625" stop-opacity="0"/>
<stop offset="0.555208" stop-opacity="0"/>
<stop offset="1"/>
</linearGradient>
<linearGradient id="paint5_linear_7_19927" x1="345" y1="256" x2="221" y2="256" gradientUnits="userSpaceOnUse">
<stop/>
<stop offset="0.440625" stop-opacity="0"/>
<stop offset="0.555208" stop-opacity="0"/>
<stop offset="1"/>
</linearGradient>
<linearGradient id="paint6_linear_7_19927" x1="487" y1="32" x2="447" y2="32" gradientUnits="userSpaceOnUse">
<stop stop-opacity="0"/>
<stop offset="1"/>
</linearGradient>
<linearGradient id="paint7_linear_7_19927" x1="487" y1="48" x2="447" y2="48" gradientUnits="userSpaceOnUse">
<stop/>
<stop offset="1" stop-opacity="0"/>
</linearGradient>
<linearGradient id="paint8_linear_7_19927" x1="487" y1="255" x2="447" y2="255" gradientUnits="userSpaceOnUse">
<stop stop-opacity="0"/>
<stop offset="1"/>
</linearGradient>
<linearGradient id="paint9_linear_7_19927" x1="487" y1="271" x2="447" y2="271" gradientUnits="userSpaceOnUse">
<stop/>
<stop offset="1" stop-opacity="0"/>
</linearGradient>
<linearGradient id="paint10_linear_7_19927" x1="119" y1="255" x2="79" y2="255" gradientUnits="userSpaceOnUse">
<stop stop-opacity="0"/>
<stop offset="1"/>
</linearGradient>
<linearGradient id="paint11_linear_7_19927" x1="119" y1="271" x2="79" y2="271" gradientUnits="userSpaceOnUse">
<stop/>
<stop offset="1" stop-opacity="0"/>
</linearGradient>
<linearGradient id="paint12_linear_7_19927" x1="119" y1="32" x2="79" y2="32" gradientUnits="userSpaceOnUse">
<stop stop-opacity="0"/>
<stop offset="1"/>
</linearGradient>
<linearGradient id="paint13_linear_7_19927" x1="119" y1="48" x2="79" y2="48" gradientUnits="userSpaceOnUse">
<stop/>
<stop offset="1" stop-opacity="0"/>
</linearGradient>
</defs>
</svg>
