<svg width="430" height="465" viewBox="0 0 430 465" fill="none" xmlns="http://www.w3.org/2000/svg">
<rect x="0.5" y="0.5" width="418" height="464" rx="26.5" stroke="#111111"/>
<path d="M36.95 80H33.075L40.225 62.5H44.275L51.4 80H47.525L46.25 76.725H38.25L36.95 80ZM41.85 67.35L39.425 73.625H45.075L42.625 67.35C42.4583 66.8833 42.3333 66.425 42.25 65.975C42.15 66.4917 42.0167 66.95 41.85 67.35ZM51.8146 74.175C51.8146 73.075 52.0063 72.0917 52.3896 71.225C52.7896 70.3583 53.3146 69.675 53.9646 69.175C54.6146 68.6583 55.3313 68.275 56.1146 68.025C56.898 67.7583 57.723 67.625 58.5896 67.625C59.973 67.625 61.2063 67.9167 62.2896 68.5V71.55C61.3563 70.95 60.2896 70.65 59.0896 70.65C58.0396 70.65 57.1563 70.925 56.4396 71.475C55.723 72.025 55.3646 72.8667 55.3646 74C55.3646 75.0833 55.723 75.9167 56.4396 76.5C57.1563 77.0667 58.023 77.35 59.0396 77.35C60.323 77.35 61.448 77.0583 62.4146 76.475V79.55C61.1646 80.0833 59.8146 80.35 58.3646 80.35C56.5646 80.35 55.023 79.825 53.7396 78.775C52.4563 77.7083 51.8146 76.175 51.8146 74.175ZM63.9455 74.175C63.9455 73.075 64.1372 72.0917 64.5205 71.225C64.9205 70.3583 65.4455 69.675 66.0955 69.175C66.7455 68.6583 67.4622 68.275 68.2455 68.025C69.0288 67.7583 69.8538 67.625 70.7205 67.625C72.1038 67.625 73.3372 67.9167 74.4205 68.5V71.55C73.4872 70.95 72.4205 70.65 71.2205 70.65C70.1705 70.65 69.2872 70.925 68.5705 71.475C67.8538 72.025 67.4955 72.8667 67.4955 74C67.4955 75.0833 67.8538 75.9167 68.5705 76.5C69.2872 77.0667 70.1538 77.35 71.1705 77.35C72.4538 77.35 73.5788 77.0583 74.5455 76.475V79.55C73.2955 80.0833 71.9455 80.35 70.4955 80.35C68.6955 80.35 67.1538 79.825 65.8705 78.775C64.5872 77.7083 63.9455 76.175 63.9455 74.175ZM78.0014 78.675C76.718 77.5583 76.0764 76 76.0764 74C76.0764 72 76.718 70.4417 78.0014 69.325C79.2847 68.2083 80.8514 67.65 82.7014 67.65C84.568 67.65 86.1347 68.2083 87.4014 69.325C88.6847 70.4417 89.3264 72 89.3264 74C89.3264 76 88.6847 77.5583 87.4014 78.675C86.1347 79.7917 84.568 80.35 82.7014 80.35C80.8514 80.35 79.2847 79.7917 78.0014 78.675ZM84.9764 76.35C85.5264 75.7333 85.8014 74.95 85.8014 74C85.8014 73.05 85.5264 72.275 84.9764 71.675C84.4264 71.0583 83.668 70.75 82.7014 70.75C81.7347 70.75 80.9764 71.0583 80.4264 71.675C79.893 72.275 79.6264 73.05 79.6264 74C79.6264 74.95 79.893 75.7333 80.4264 76.35C80.9764 76.95 81.7347 77.25 82.7014 77.25C83.668 77.25 84.4264 76.95 84.9764 76.35ZM99.7951 68H103.27V80H100.195V78.475C99.1118 79.725 97.7785 80.35 96.1951 80.35C94.6285 80.35 93.4201 79.8917 92.5701 78.975C91.7368 78.0583 91.3201 76.875 91.3201 75.425V68H94.7951V74.975C94.7951 75.7583 94.9951 76.35 95.3951 76.75C95.7951 77.15 96.3618 77.35 97.0951 77.35C98.1618 77.35 99.0618 76.8417 99.7951 75.825V68ZM109.166 69.525C110.25 68.275 111.583 67.65 113.166 67.65C114.7 67.65 115.891 68.1167 116.741 69.05C117.608 69.9667 118.041 71.1417 118.041 72.575V80H114.566V73.025C114.566 72.2417 114.35 71.65 113.916 71.25C113.5 70.85 112.941 70.65 112.241 70.65C111.158 70.65 110.266 71.1583 109.566 72.175V80H106.091V68H109.166V69.525ZM121.515 64.5L124.965 63.675V68H128.765V70.925H124.965V75.625C124.965 76.825 125.606 77.425 126.89 77.425C127.656 77.425 128.381 77.2917 129.065 77.025V79.825C128.065 80.175 126.99 80.35 125.84 80.35C124.573 80.35 123.531 80.025 122.715 79.375C121.915 78.725 121.515 77.7 121.515 76.3V70.925H119.49V68H121.515V64.5ZM130.414 71.35C130.414 70.0667 130.889 69.1333 131.839 68.55C132.789 67.95 133.981 67.65 135.414 67.65C136.964 67.65 138.439 67.9917 139.839 68.675V71.525C139.322 71.175 138.664 70.8833 137.864 70.65C137.081 70.4167 136.339 70.3 135.639 70.3C134.522 70.3 133.964 70.6167 133.964 71.25C133.964 71.6167 134.197 71.9167 134.664 72.15C135.131 72.3833 135.697 72.5917 136.364 72.775C137.031 72.9417 137.689 73.15 138.339 73.4C139.006 73.65 139.572 74.05 140.039 74.6C140.506 75.15 140.739 75.8333 140.739 76.65C140.739 77.55 140.472 78.2833 139.939 78.85C139.422 79.4167 138.772 79.8083 137.989 80.025C137.222 80.2417 136.322 80.35 135.289 80.35C133.372 80.35 131.781 79.975 130.514 79.225V76.35C131.814 77.2 133.339 77.625 135.089 77.625C136.489 77.625 137.189 77.325 137.189 76.725C137.189 76.375 136.956 76.0833 136.489 75.85C136.022 75.6167 135.456 75.4083 134.789 75.225C134.139 75.0417 133.481 74.825 132.814 74.575C132.147 74.3083 131.581 73.9083 131.114 73.375C130.647 72.825 130.414 72.15 130.414 71.35Z" fill="#111111"/>
<path d="M42 30.5632V28.4203H28.2641L33.5155 23.467L31.9427 22L24 29.4918L31.9427 37L33.5155 35.5L28.2641 30.5632H42Z" fill="#111111"/>
<rect x="33" y="103" width="140" height="20" rx="7" fill="#CFD6D9"/>
<path d="M33.8 153.568C33.8 152.619 34.168 151.888 34.904 151.376C35.64 150.864 36.552 150.608 37.64 150.608C38.952 150.608 40.0827 150.88 41.032 151.424V152.768C40.0933 152.16 38.9947 151.867 37.736 151.888C36.0187 151.888 35.16 152.432 35.16 153.52C35.16 153.957 35.3253 154.331 35.656 154.64C35.9867 154.949 36.3973 155.184 36.888 155.344C37.3787 155.504 37.912 155.691 38.488 155.904C39.0747 156.107 39.6133 156.32 40.104 156.544C40.5947 156.757 41.0053 157.088 41.336 157.536C41.6667 157.984 41.832 158.523 41.832 159.152C41.832 159.685 41.7147 160.155 41.48 160.56C41.256 160.965 40.9467 161.285 40.552 161.52C40.1573 161.755 39.72 161.925 39.24 162.032C38.76 162.139 38.2427 162.192 37.688 162.192C36.2693 162.192 34.9893 161.872 33.848 161.232V159.888C34.968 160.571 36.216 160.912 37.592 160.912C39.512 160.912 40.472 160.357 40.472 159.248C40.472 158.843 40.3493 158.496 40.104 158.208C39.8587 157.909 39.5387 157.669 39.144 157.488C38.7493 157.307 38.312 157.141 37.832 156.992C37.3627 156.843 36.8933 156.683 36.424 156.512C35.9547 156.331 35.5227 156.128 35.128 155.904C34.7333 155.669 34.4133 155.355 34.168 154.96C33.9227 154.565 33.8 154.101 33.8 153.568ZM44.6154 155.456C44.8927 155.083 45.2767 154.768 45.7674 154.512C46.2687 154.256 46.8074 154.128 47.3834 154.128C48.3114 154.128 49.074 154.421 49.6714 155.008C50.2794 155.584 50.5834 156.336 50.5834 157.264V162H49.3034V157.424C49.3034 156.731 49.1114 156.208 48.7274 155.856C48.354 155.493 47.858 155.312 47.2394 155.312C46.258 155.312 45.426 155.824 44.7434 156.848V162H43.4634V154.32H44.6154V155.456ZM53.462 161.12C52.6513 160.395 52.246 159.408 52.246 158.16C52.246 156.912 52.6513 155.931 53.462 155.216C54.2727 154.491 55.2327 154.128 56.342 154.128C57.462 154.128 58.422 154.491 59.222 155.216C60.0327 155.931 60.438 156.912 60.438 158.16C60.438 159.408 60.0327 160.395 59.222 161.12C58.422 161.835 57.462 162.192 56.342 162.192C55.2327 162.192 54.2727 161.835 53.462 161.12ZM58.358 160.224C58.8913 159.712 59.158 159.024 59.158 158.16C59.158 157.296 58.8913 156.613 58.358 156.112C57.8247 155.6 57.1527 155.344 56.342 155.344C55.5313 155.344 54.8593 155.6 54.326 156.112C53.7927 156.613 53.526 157.296 53.526 158.16C53.526 159.024 53.7927 159.712 54.326 160.224C54.8593 160.725 55.5313 160.976 56.342 160.976C57.1527 160.976 57.8247 160.725 58.358 160.224ZM71.9898 154.32H73.3338L70.7098 162H69.3178L67.2378 156.064L65.1578 162H63.7658L61.1418 154.32H62.4858L64.4698 160.592L66.6618 154.32H67.8138L70.0058 160.592L71.9898 154.32ZM75.0114 150.8H76.3554V160.72H82.5634V162H75.0114V150.8ZM83.1154 158.16C83.1154 156.901 83.4994 155.915 84.2674 155.2C85.046 154.485 85.9367 154.128 86.9394 154.128C87.878 154.128 88.6514 154.363 89.2594 154.832C89.878 155.301 90.2834 155.883 90.4754 156.576C90.6674 157.259 90.678 157.973 90.5074 158.72H84.3954C84.47 159.477 84.806 160.048 85.4034 160.432C86.0007 160.816 86.7207 161.008 87.5634 161.008C88.502 161.008 89.3447 160.8 90.0914 160.384V161.632C89.3767 162.005 88.47 162.192 87.3714 162.192C86.1554 162.192 85.142 161.845 84.3314 161.152C83.5207 160.459 83.1154 159.461 83.1154 158.16ZM89.3714 157.6C89.4034 157.376 89.3874 157.141 89.3234 156.896C89.2594 156.651 89.142 156.405 88.9714 156.16C88.8114 155.915 88.5607 155.712 88.2194 155.552C87.878 155.392 87.478 155.312 87.0194 155.312C86.326 155.312 85.7234 155.515 85.2114 155.92C84.71 156.325 84.438 156.885 84.3954 157.6H89.3714ZM93.017 161.12C92.2063 160.395 91.801 159.408 91.801 158.16C91.801 156.912 92.2063 155.931 93.017 155.216C93.8277 154.491 94.7877 154.128 95.897 154.128C97.017 154.128 97.977 154.491 98.777 155.216C99.5877 155.931 99.993 156.912 99.993 158.16C99.993 159.408 99.5877 160.395 98.777 161.12C97.977 161.835 97.017 162.192 95.897 162.192C94.7877 162.192 93.8277 161.835 93.017 161.12ZM97.913 160.224C98.4463 159.712 98.713 159.024 98.713 158.16C98.713 157.296 98.4463 156.613 97.913 156.112C97.3797 155.6 96.7077 155.344 95.897 155.344C95.0863 155.344 94.4143 155.6 93.881 156.112C93.3477 156.613 93.081 157.296 93.081 158.16C93.081 159.024 93.3477 159.712 93.881 160.224C94.4143 160.725 95.0863 160.976 95.897 160.976C96.7077 160.976 97.3797 160.725 97.913 160.224ZM102.901 155.6C103.765 154.619 104.8 154.128 106.005 154.128C107.104 154.128 108.016 154.512 108.741 155.28C109.477 156.048 109.845 157.008 109.845 158.16C109.845 159.312 109.477 160.272 108.741 161.04C108.016 161.808 107.104 162.192 106.005 162.192C104.789 162.192 103.797 161.744 103.029 160.848V165.52H101.749V154.32H102.901V155.6ZM107.781 160.224C108.304 159.701 108.565 159.013 108.565 158.16C108.565 157.307 108.304 156.619 107.781 156.096C107.269 155.573 106.629 155.312 105.861 155.312C105.21 155.312 104.634 155.493 104.133 155.856C103.632 156.219 103.264 156.667 103.029 157.2V159.12C103.264 159.653 103.632 160.101 104.133 160.464C104.634 160.827 105.21 161.008 105.861 161.008C106.629 161.008 107.269 160.747 107.781 160.224ZM117.847 160.4C117.847 160.795 118.044 160.992 118.439 160.992C118.609 160.992 118.807 160.955 119.031 160.88V161.92C118.711 162.037 118.391 162.096 118.071 162.096C117.335 162.096 116.865 161.787 116.663 161.168C115.841 161.851 114.844 162.192 113.671 162.192C112.924 162.192 112.284 161.995 111.751 161.6C111.228 161.195 110.967 160.613 110.967 159.856C110.967 158.949 111.303 158.293 111.975 157.888C112.657 157.472 113.479 157.264 114.439 157.264C115.143 157.264 115.852 157.344 116.567 157.504V157.232C116.567 156.645 116.375 156.181 115.991 155.84C115.607 155.488 115.068 155.312 114.375 155.312C113.404 155.312 112.471 155.504 111.575 155.888V154.64C112.577 154.299 113.553 154.128 114.503 154.128C115.548 154.128 116.364 154.411 116.951 154.976C117.548 155.531 117.847 156.336 117.847 157.392V160.4ZM112.279 159.792C112.279 160.219 112.439 160.544 112.759 160.768C113.089 160.981 113.484 161.088 113.943 161.088C114.999 161.088 115.873 160.715 116.567 159.968V158.56C115.841 158.411 115.191 158.336 114.615 158.336C113.964 158.336 113.409 158.453 112.951 158.688C112.503 158.912 112.279 159.28 112.279 159.792ZM121.382 155.68C121.68 155.179 122.139 154.789 122.758 154.512C123.376 154.224 124.022 154.107 124.694 154.16V155.44C123.947 155.355 123.286 155.477 122.71 155.808C122.144 156.128 121.744 156.597 121.51 157.216V162H120.23V154.32H121.382V155.68ZM132.031 150.8H133.311V162H132.159V160.72C131.295 161.701 130.261 162.192 129.055 162.192C127.957 162.192 127.039 161.808 126.303 161.04C125.578 160.272 125.215 159.312 125.215 158.16C125.215 157.008 125.578 156.048 126.303 155.28C127.039 154.512 127.957 154.128 129.055 154.128C130.271 154.128 131.263 154.576 132.031 155.472V150.8ZM132.031 157.2C131.797 156.667 131.429 156.219 130.927 155.856C130.426 155.493 129.85 155.312 129.199 155.312C128.431 155.312 127.786 155.573 127.263 156.096C126.751 156.619 126.495 157.307 126.495 158.16C126.495 159.013 126.751 159.701 127.263 160.224C127.786 160.747 128.431 161.008 129.199 161.008C129.85 161.008 130.426 160.827 130.927 160.464C131.429 160.101 131.797 159.653 132.031 159.12V157.2Z" fill="#111111"/>
<path d="M174.2 150.8H176.6V159.84H182.088V162H174.2V150.8ZM185.401 162H183.177V154.32H185.401V162ZM185.593 151.776C185.593 152.192 185.47 152.507 185.225 152.72C184.98 152.933 184.665 153.04 184.281 153.04C183.908 153.04 183.598 152.933 183.353 152.72C183.108 152.507 182.985 152.192 182.985 151.776C182.985 151.371 183.108 151.061 183.353 150.848C183.598 150.635 183.908 150.528 184.281 150.528C184.654 150.528 184.964 150.635 185.209 150.848C185.465 151.061 185.593 151.371 185.593 151.776ZM189.205 155.296C189.898 154.496 190.752 154.096 191.765 154.096C192.746 154.096 193.509 154.395 194.053 154.992C194.608 155.579 194.885 156.331 194.885 157.248V162H192.661V157.536C192.661 157.035 192.522 156.656 192.245 156.4C191.978 156.144 191.621 156.016 191.173 156.016C190.48 156.016 189.909 156.341 189.461 156.992V162H187.237V154.32H189.205V155.296ZM204.419 162H201.923L199.715 158.96H198.819V162H196.595V150.8H198.819V157.184H199.747L201.699 154.32H204.195L201.555 158.112L204.419 162ZM204.458 158.16C204.458 157.467 204.58 156.853 204.826 156.32C205.071 155.776 205.391 155.349 205.786 155.04C206.191 154.731 206.612 154.496 207.05 154.336C207.498 154.176 207.951 154.096 208.41 154.096C209.178 154.096 209.839 154.24 210.394 154.528C210.959 154.816 211.375 155.189 211.642 155.648C211.908 156.096 212.09 156.608 212.186 157.184C212.292 157.749 212.266 158.315 212.106 158.88H206.698C206.815 159.413 207.124 159.813 207.626 160.08C208.127 160.336 208.719 160.464 209.402 160.464C210.244 160.464 211.018 160.309 211.722 160V161.744C210.964 162.064 210.026 162.224 208.906 162.224C207.626 162.224 206.564 161.867 205.722 161.152C204.879 160.437 204.458 159.44 204.458 158.16ZM210.106 157.44C210.159 157.088 210.058 156.725 209.802 156.352C209.546 155.979 209.108 155.792 208.49 155.792C207.999 155.792 207.578 155.941 207.226 156.24C206.874 156.528 206.692 156.928 206.682 157.44H210.106ZM219.416 150.8H221.624V162H219.672V160.88C219.021 161.776 218.093 162.224 216.888 162.224C215.725 162.224 214.808 161.829 214.136 161.04C213.464 160.24 213.128 159.28 213.128 158.16C213.128 157.04 213.464 156.085 214.136 155.296C214.808 154.496 215.725 154.096 216.888 154.096C217.944 154.096 218.786 154.443 219.416 155.136V150.8ZM219.416 157.248C219.256 156.885 218.994 156.581 218.632 156.336C218.28 156.091 217.874 155.968 217.416 155.968C216.797 155.968 216.306 156.181 215.944 156.608C215.581 157.024 215.4 157.541 215.4 158.16C215.4 158.779 215.581 159.301 215.944 159.728C216.306 160.144 216.797 160.352 217.416 160.352C217.874 160.352 218.28 160.229 218.632 159.984C218.994 159.739 219.256 159.435 219.416 159.072V157.248Z" fill="#111111"/>
<path d="M63.15 225H49.95V221.95H50.6C51.1333 221.95 51.55 221.75 51.85 221.35C52.1667 220.95 52.325 220.442 52.325 219.825V218.025H50.325V215.225H52.325V213.675C52.325 211.658 52.9083 210.15 54.075 209.15C55.2417 208.15 56.7 207.65 58.45 207.65C59.8667 207.65 61.2083 207.958 62.475 208.575V211.625C61.5417 210.892 60.4333 210.525 59.15 210.525C58.1833 210.525 57.3833 210.792 56.75 211.325C56.1333 211.858 55.825 212.667 55.825 213.75V215.225H60.675V218.025H55.825V219.825C55.825 220.825 55.5417 221.533 54.975 221.95H63.15V225ZM64.5635 207.975H77.6385V210.675L70.6635 225H66.6135L73.3385 211.2H64.5635V207.975ZM79.5486 209.45C81.232 208.25 83.182 207.65 85.3986 207.65C87.2153 207.65 88.6986 208.075 89.8486 208.925C91.0153 209.775 91.5986 211.025 91.5986 212.675C91.5986 213.958 91.182 215.058 90.3486 215.975C89.532 216.875 88.4153 217.742 86.9986 218.575C85.332 219.558 84.307 220.225 83.9236 220.575C83.4736 221.008 83.2403 221.417 83.2236 221.8L91.7236 221.775V225H78.9736V223.325C78.9736 222.408 79.107 221.583 79.3736 220.85C79.657 220.117 80.107 219.458 80.7236 218.875C81.357 218.292 81.882 217.858 82.2986 217.575C82.7153 217.275 83.3486 216.875 84.1986 216.375C84.2486 216.342 84.2903 216.317 84.3236 216.3C84.357 216.283 84.3986 216.258 84.4486 216.225C84.4986 216.192 84.5403 216.167 84.5736 216.15C84.6736 216.083 84.882 215.967 85.1986 215.8C85.532 215.617 85.7486 215.492 85.8486 215.425C85.9486 215.358 86.1236 215.25 86.3736 215.1C86.6236 214.933 86.7986 214.808 86.8986 214.725C86.9986 214.625 87.1236 214.492 87.2736 214.325C87.4403 214.158 87.557 214.008 87.6236 213.875C87.6903 213.742 87.7486 213.583 87.7986 213.4C87.8486 213.217 87.8736 213.025 87.8736 212.825C87.8736 212.208 87.6236 211.742 87.1236 211.425C86.6236 211.092 85.932 210.925 85.0486 210.925C83.1486 210.925 81.3153 211.6 79.5486 212.95V209.45ZM95.7412 222.9C94.4579 221.25 93.8162 219.117 93.8162 216.5C93.8162 213.883 94.4579 211.758 95.7412 210.125C97.0412 208.475 98.9829 207.65 101.566 207.65C104.15 207.65 106.083 208.475 107.366 210.125C108.666 211.758 109.316 213.883 109.316 216.5C109.316 219.117 108.666 221.25 107.366 222.9C106.083 224.533 104.15 225.35 101.566 225.35C98.9829 225.35 97.0412 224.533 95.7412 222.9ZM101.566 222.05C104.233 222.05 105.566 220.2 105.566 216.5C105.566 212.8 104.233 210.95 101.566 210.95C98.8995 210.95 97.5662 212.8 97.5662 216.5C97.5662 220.2 98.8995 222.05 101.566 222.05Z" fill="#111111"/>
<path d="M122 210L130 218L138 210" stroke="#111111" stroke-width="2"/>
<rect x="49" y="237" width="124" height="28" rx="7" fill="#E8EDF4"/>
<rect x="76" y="246" width="86" height="10" rx="5" fill="#B7CFF3"/>
<path fill-rule="evenodd" clip-rule="evenodd" d="M311.097 207.08C307.937 207.527 304.855 209.262 302.838 211.73L302.22 212.485L303.707 212.518L305.194 212.551L305.724 212.039C307.767 210.068 311.149 208.918 313.823 209.285C316.26 209.619 318.349 210.565 319.927 212.049L320.453 212.543H321.914H323.375L323.241 212.282C323.167 212.138 322.524 211.445 321.812 210.742C319.982 208.935 318.346 208.009 315.825 207.354C314.588 207.032 312.352 206.902 311.097 207.08ZM326.006 210.299L325.339 210.694V219.179V227.664L326.064 227.629L326.79 227.595L326.777 226.81C326.77 226.379 326.799 226.026 326.841 226.026C326.882 226.026 327.123 226.238 327.375 226.497C328.015 227.154 328.754 227.597 329.602 227.831C331.338 228.311 333.216 227.486 334.194 225.812C334.934 224.546 335.19 223.526 335.278 221.493C335.392 218.876 334.892 217.032 333.734 215.792C332.845 214.839 331.568 214.432 330.165 214.654C329.245 214.8 328.378 215.244 327.552 215.992C327.177 216.332 326.842 216.611 326.81 216.611C326.778 216.611 326.745 215.11 326.737 213.275C326.729 211.44 326.712 209.931 326.698 209.921C326.685 209.911 326.373 210.081 326.006 210.299ZM363.279 210.323L362.757 210.641L362.727 219.147L362.697 227.653H363.394H364.091V225.844V224.036L365.323 222.293C366 221.335 366.572 220.569 366.595 220.591C366.641 220.637 369.17 225.965 369.63 226.984L369.932 227.653H370.716H371.5L370.451 225.473C369.874 224.275 368.99 222.437 368.487 221.391C367.984 220.344 367.572 219.426 367.572 219.351C367.572 219.218 368.4 218.029 369.925 215.972L370.701 214.926L370.049 214.891C369.69 214.871 369.332 214.88 369.253 214.91C369.13 214.958 368.36 216.035 365.963 219.517C365.677 219.932 365.276 220.511 365.071 220.804C364.866 221.096 364.613 221.502 364.508 221.705C364.403 221.908 364.266 222.074 364.204 222.074C364.132 222.074 364.091 219.876 364.091 216.03C364.091 211.268 364.06 209.988 363.946 209.995C363.866 210 363.566 210.148 363.279 210.323ZM312.374 211.459L311.184 212.094V213.419V214.743L310.053 214.776L308.922 214.81V215.914V217.018L310.024 217.076L311.126 217.134L311.184 221.376C311.25 226.153 311.245 226.124 312.147 227.048C312.993 227.914 314.585 228.124 315.897 227.542C316.33 227.35 316.401 227.261 316.559 226.706C316.886 225.558 317.001 225.073 316.958 225.029C316.935 225.006 316.605 225.115 316.225 225.271C315.828 225.435 315.298 225.556 314.975 225.558C314.508 225.56 314.359 225.504 314.075 225.219L313.734 224.878L313.764 221.006L313.795 217.134L314.955 217.114C315.593 217.103 316.181 217.09 316.26 217.085C316.366 217.079 316.405 216.761 316.405 215.914V214.752H315.071H313.737V212.776C313.737 211.689 313.698 210.805 313.65 210.812C313.602 210.818 313.028 211.109 312.374 211.459ZM296.557 214.636C293.184 215.166 290.999 217.771 291 221.26C291 222.831 291.433 224.223 292.265 225.333C293.33 226.752 294.768 227.548 296.876 227.886C297.921 228.054 299.299 227.824 300.336 227.31C301.071 226.946 302.252 225.986 302.249 225.755C302.247 225.604 301.03 224.13 300.859 224.07C300.799 224.05 300.631 224.147 300.485 224.286C298.794 225.902 296.011 225.779 294.53 224.024C293.518 222.825 293.31 220.662 294.065 219.185C294.4 218.531 295.172 217.769 295.838 217.436C296.108 217.3 296.648 217.146 297.038 217.092C298.271 216.924 299.323 217.239 300.374 218.093C300.65 218.317 300.914 218.454 300.962 218.398C301.964 217.228 302.251 216.863 302.251 216.762C302.251 216.601 301.347 215.773 300.785 215.419C299.682 214.725 297.99 214.412 296.557 214.636ZM341.351 214.638C340.172 214.777 338.334 215.336 338.334 215.557C338.334 215.601 338.442 215.861 338.573 216.134C338.759 216.518 338.857 216.611 339.008 216.546C340.202 216.034 340.799 215.881 341.815 215.828C343.136 215.76 343.75 215.902 344.33 216.413C345.009 217.01 345.208 217.611 345.272 219.255C345.332 220.83 345.336 220.823 344.614 220.454C344.372 220.33 343.737 220.14 343.203 220.032C340.917 219.568 338.571 220.32 337.642 221.814C336.653 223.407 337.048 226.104 338.425 227.151C338.996 227.585 340.269 228.002 341.015 228C342.172 227.997 343.582 227.389 344.543 226.479C344.873 226.165 345.178 225.909 345.22 225.909C345.261 225.909 345.295 226.302 345.295 226.781V227.653H345.996H346.697L346.663 222.452C346.63 217.3 346.627 217.245 346.361 216.657C345.834 215.49 344.845 214.837 343.301 214.637C342.361 214.514 342.406 214.514 341.351 214.638ZM354.446 214.639C353.355 214.821 352.381 215.434 351.781 216.317C351.628 216.542 351.464 216.726 351.416 216.727C351.368 216.727 351.329 216.309 351.329 215.798V214.868H350.632H349.936V221.26V227.653H350.632H351.329V223.545C351.329 219.861 351.352 219.347 351.554 218.556C351.813 217.539 352.194 216.876 352.769 216.436C353.243 216.074 354.082 215.798 354.706 215.798C356.57 215.798 357.639 216.823 357.939 218.897C358.002 219.334 358.054 221.483 358.056 223.672L358.058 227.653H358.754H359.45V223.185C359.45 218.313 359.388 217.693 358.782 216.578C357.998 215.133 356.228 214.341 354.446 214.639ZM303.956 214.825C303.911 214.87 303.875 217.774 303.875 221.28V227.653H305.21H306.545L306.515 221.231L306.485 214.81L305.261 214.777C304.588 214.759 304.001 214.781 303.956 214.825ZM319.19 221.202V227.653H320.466H321.743V221.202V214.752H320.466H319.19V221.202ZM331.244 215.922C332.995 216.298 334.044 218.602 333.885 221.725C333.739 224.608 332.912 226.19 331.326 226.62C330.649 226.803 329.567 226.683 328.794 226.338C328.043 226.002 327.057 225.138 326.848 224.632C326.747 224.386 326.719 223.395 326.749 221.021L326.79 217.749L327.463 217.121C328.7 215.968 329.813 215.615 331.244 215.922ZM343.444 221.145C343.783 221.209 344.338 221.389 344.678 221.545L345.295 221.828V223.295V224.762L344.66 225.399C344.262 225.797 343.731 226.173 343.239 226.404C342.542 226.731 342.334 226.773 341.409 226.777C340.469 226.781 340.309 226.748 339.811 226.455C339.095 226.033 338.723 225.455 338.577 224.534C338.306 222.829 338.998 221.576 340.438 221.161C340.964 221.01 342.683 221 343.444 221.145Z" fill="#1A1466"/>
<path d="M66 338C75.389 338 83 345.611 83 355C83 364.389 75.389 372 66 372C56.611 372 49 364.389 49 355C49 345.611 56.611 338 66 338Z" fill="#111111"/>
<path d="M66.001 338.331C75.2071 338.331 82.67 345.794 82.67 355C82.67 364.206 75.2071 371.669 66.001 371.669C56.795 371.669 49.332 364.206 49.332 355C49.332 345.794 56.7952 338.331 66.001 338.331Z" fill="white"/>
<path d="M65.9998 339.668C74.4673 339.668 81.3316 346.533 81.3316 355C81.3316 363.468 74.4673 370.332 65.9998 370.332C57.5323 370.332 50.668 363.468 50.668 355C50.668 346.533 57.5323 339.668 65.9998 339.668Z" fill="#4A8CFF"/>
<path d="M55.998 350.197V357.402C56.0044 359.031 57.3352 360.342 58.9581 360.336H69.4606C69.7592 360.336 69.9994 360.095 69.9994 359.803V352.598C69.993 350.969 68.6622 349.658 67.0396 349.664H56.5371C56.2385 349.664 55.9983 349.904 55.9983 350.197H55.998ZM70.6678 353.007L75.0039 349.84C75.3805 349.528 75.6724 349.606 75.6724 350.171V359.829C75.6724 360.472 75.3152 360.394 75.0039 360.16L70.6678 356.999V353.007Z" fill="white"/>
<circle cx="66" cy="305" r="16.75" fill="white" stroke="#111111" stroke-width="0.5"/>
<path d="M75.0404 302.612H74.2579V302.572H65.5151V306.457H71.0051C70.2042 308.719 68.052 310.343 65.5151 310.343C62.2962 310.343 59.6865 307.733 59.6865 304.515C59.6865 301.296 62.2962 298.686 65.5151 298.686C67.0009 298.686 68.3526 299.247 69.3818 300.162L72.1295 297.414C70.3946 295.797 68.0738 294.8 65.5151 294.8C60.1504 294.8 55.8008 299.15 55.8008 304.515C55.8008 309.879 60.1504 314.229 65.5151 314.229C70.8798 314.229 75.2294 309.879 75.2294 304.515C75.2294 303.863 75.1623 303.227 75.0404 302.612Z" fill="#FFC107"/>
<path d="M56.9199 299.993L60.1116 302.334C60.9752 300.196 63.0666 298.686 65.5142 298.686C67 298.686 68.3517 299.247 69.3809 300.162L72.1286 297.414C70.3936 295.797 68.0729 294.8 65.5142 294.8C61.7829 294.8 58.5471 296.907 56.9199 299.993Z" fill="#FF3D00"/>
<path d="M65.5153 314.229C68.0245 314.229 70.3045 313.269 72.0283 311.707L69.0217 309.163C68.0464 309.902 66.834 310.343 65.5153 310.343C62.9886 310.343 60.8432 308.732 60.035 306.484L56.8672 308.924C58.4749 312.07 61.7399 314.229 65.5153 314.229Z" fill="#4CAF50"/>
<path d="M75.039 302.612H74.2565V302.572H65.5137V306.457H71.0037C70.619 307.544 69.9201 308.481 69.0186 309.163C69.0191 309.163 69.0196 309.163 69.02 309.162L72.0266 311.707C71.8139 311.9 75.228 309.372 75.228 304.515C75.228 303.863 75.1609 303.227 75.039 302.612Z" fill="#1976D2"/>
<circle cx="66" cy="405" r="16.75" fill="#FF5252" stroke="#111111" stroke-width="0.5"/>
<path d="M74.7437 408.834C74.2525 407.332 70.2253 400.015 69.0027 397.809L68.9904 397.787C68.4409 396.702 67.2676 396 66 396C64.7324 396 63.5591 396.702 63.0201 397.768L62.9973 397.809C61.7747 400.015 57.7475 407.332 57.2567 408.833C57.1236 409.239 57 409.683 57 410.175C57 412.284 58.8062 414 61.0263 414C63.2308 414 64.632 413.123 66 411.667C67.368 413.123 68.7692 414 70.9737 414C73.1938 414 75 412.284 75 410.175C75 409.683 74.8764 409.239 74.7437 408.834ZM65.9995 409.798C65.2089 408.832 64.1053 407.196 64.1053 405.9C64.1053 404.907 64.9551 404.1 66 404.1C67.0449 404.1 67.8947 404.907 67.8947 405.9C67.8947 407.192 66.7901 408.83 65.9995 409.798ZM70.9737 412.65C69.4167 412.65 68.3585 412.152 67.0303 410.734C67.8369 409.768 69.3158 407.747 69.3158 405.9C69.3158 404.163 67.8279 402.75 66 402.75C64.1721 402.75 62.6842 404.163 62.6842 405.9C62.6842 407.747 64.1631 409.768 64.9697 410.734C63.6415 412.152 62.5833 412.65 61.0263 412.65C59.5901 412.65 58.4211 411.54 58.4211 410.175C58.4211 409.881 58.4978 409.586 58.6134 409.234C58.9753 408.127 61.8789 402.727 64.2549 398.438L64.2909 398.372C64.605 397.751 65.2757 397.35 66 397.35C66.7243 397.35 67.395 397.751 67.7124 398.378L67.7446 398.438C70.1211 402.727 73.0247 408.127 73.3871 409.235C73.5022 409.586 73.5789 409.881 73.5789 410.175C73.5789 411.54 72.4099 412.65 70.9737 412.65Z" fill="white"/>
<rect x="95" y="288" width="155" height="12" rx="3" fill="#FAFF00"/>
<rect x="95" y="338" width="155" height="12" rx="3" fill="#FAFF00"/>
<rect x="95" y="388" width="155" height="12" rx="3" fill="#FAFF00"/>
<rect x="95" y="310" width="155" height="12" rx="3" fill="#FAFF00"/>
<rect x="95" y="360" width="155" height="12" rx="3" fill="#FAFF00"/>
<rect x="95" y="410" width="155" height="12" rx="3" fill="#FAFF00"/>
<rect x="157.5" y="136.5" width="80" height="39" rx="9.5" stroke="#111111"/>
<rect x="29.5" y="188.5" width="361" height="252" rx="17.5" stroke="#111111"/>
<rect x="264.5" y="239.5" width="165" height="57" rx="8.5" fill="white" stroke="#111111"/>
<rect x="264.5" y="307.5" width="165" height="57" rx="8.5" fill="white" stroke="#111111"/>
<rect x="264.5" y="375.5" width="165" height="57" rx="8.5" fill="white" stroke="#111111"/>
<path fill-rule="evenodd" clip-rule="evenodd" d="M287.441 261.05C285.485 261.326 283.577 262.4 282.328 263.928L281.946 264.396L282.866 264.416L283.787 264.436L284.115 264.12C285.379 262.899 287.473 262.187 289.129 262.414C290.637 262.621 291.93 263.207 292.907 264.126L293.233 264.432H294.137H295.042L294.959 264.27C294.913 264.181 294.515 263.752 294.074 263.316C292.941 262.198 291.929 261.625 290.368 261.219C289.602 261.02 288.218 260.94 287.441 261.05ZM296.671 263.042L296.258 263.287V268.539V273.792L296.707 273.77L297.155 273.749L297.148 273.263C297.144 272.996 297.161 272.778 297.187 272.778C297.213 272.778 297.362 272.909 297.518 273.069C297.914 273.476 298.372 273.75 298.896 273.895C299.971 274.193 301.134 273.682 301.739 272.645C302.197 271.862 302.356 271.23 302.41 269.972C302.481 268.352 302.171 267.21 301.454 266.442C300.904 265.853 300.113 265.601 299.245 265.738C298.675 265.828 298.139 266.103 297.628 266.566C297.395 266.777 297.188 266.95 297.168 266.95C297.148 266.95 297.128 266.02 297.123 264.884C297.118 263.749 297.107 262.814 297.099 262.808C297.09 262.802 296.898 262.907 296.671 263.042ZM319.744 263.057L319.421 263.254L319.403 268.519L319.384 273.785H319.816H320.247V272.666V271.546L321.009 270.467C321.428 269.874 321.783 269.4 321.797 269.414C321.825 269.442 323.391 272.74 323.676 273.371L323.862 273.785H324.348H324.833L324.184 272.436C323.827 271.694 323.28 270.557 322.968 269.908C322.657 269.26 322.402 268.692 322.402 268.646C322.402 268.563 322.914 267.827 323.859 266.554L324.339 265.906L323.935 265.885C323.713 265.873 323.491 265.878 323.442 265.897C323.366 265.926 322.89 266.593 321.406 268.749C321.229 269.006 320.98 269.364 320.853 269.545C320.727 269.726 320.57 269.977 320.505 270.103C320.44 270.229 320.355 270.331 320.317 270.331C320.272 270.331 320.247 268.971 320.247 266.59C320.247 263.642 320.228 262.85 320.157 262.854C320.108 262.857 319.922 262.949 319.744 263.057ZM288.231 263.76L287.495 264.153V264.973V265.793L286.795 265.814L286.095 265.835V266.518V267.202L286.777 267.238L287.459 267.274L287.495 269.9C287.536 272.857 287.532 272.839 288.091 273.41C288.615 273.947 289.6 274.077 290.413 273.717C290.681 273.598 290.724 273.543 290.822 273.199C291.024 272.488 291.096 272.188 291.069 272.161C291.055 272.147 290.851 272.214 290.616 272.311C290.37 272.412 290.042 272.487 289.842 272.488C289.553 272.49 289.46 272.455 289.284 272.279L289.073 272.067L289.092 269.67L289.111 267.274L289.829 267.261C290.224 267.254 290.588 267.246 290.637 267.243C290.703 267.239 290.727 267.043 290.727 266.518V265.799H289.901H289.075V264.575C289.075 263.903 289.051 263.356 289.021 263.36C288.992 263.364 288.636 263.544 288.231 263.76ZM278.44 265.727C276.352 266.055 274.999 267.667 275 269.828C275 270.8 275.268 271.662 275.783 272.349C276.442 273.227 277.332 273.72 278.637 273.929C279.285 274.033 280.137 273.891 280.78 273.573C281.234 273.348 281.965 272.753 281.964 272.61C281.963 272.517 281.209 271.604 281.103 271.567C281.066 271.555 280.962 271.615 280.872 271.701C279.825 272.701 278.102 272.625 277.185 271.539C276.559 270.796 276.43 269.457 276.898 268.543C277.105 268.138 277.583 267.667 277.995 267.46C278.162 267.376 278.497 267.281 278.738 267.248C279.501 267.143 280.152 267.338 280.803 267.867C280.974 268.006 281.138 268.091 281.167 268.056C281.787 267.331 281.965 267.106 281.965 267.043C281.965 266.943 281.405 266.431 281.057 266.212C280.374 265.782 279.327 265.588 278.44 265.727ZM306.169 265.728C305.44 265.814 304.302 266.161 304.302 266.297C304.302 266.325 304.369 266.485 304.45 266.654C304.565 266.892 304.626 266.95 304.719 266.91C305.459 266.592 305.828 266.498 306.457 266.465C307.275 266.423 307.655 266.511 308.014 266.827C308.434 267.197 308.557 267.568 308.597 268.587C308.634 269.561 308.637 269.557 308.189 269.329C308.04 269.252 307.647 269.135 307.316 269.068C305.901 268.78 304.448 269.246 303.874 270.171C303.261 271.157 303.506 272.826 304.358 273.474C304.712 273.743 305.5 274.001 305.962 274C306.678 273.998 307.551 273.621 308.146 273.058C308.35 272.864 308.539 272.706 308.565 272.706C308.59 272.706 308.611 272.949 308.611 273.245V273.785H309.045H309.479L309.458 270.565C309.438 267.376 309.436 267.342 309.271 266.978C308.945 266.256 308.333 265.852 307.377 265.727C306.795 265.652 306.823 265.652 306.169 265.728ZM314.276 265.729C313.601 265.841 312.998 266.221 312.626 266.768C312.531 266.907 312.43 267.021 312.4 267.021C312.37 267.021 312.346 266.763 312.346 266.446V265.871H311.915H311.484V269.828V273.785H311.915H312.346V271.242C312.346 268.961 312.361 268.643 312.486 268.154C312.646 267.524 312.882 267.114 313.238 266.841C313.531 266.617 314.051 266.446 314.437 266.446C315.591 266.446 316.253 267.081 316.438 268.365C316.477 268.635 316.51 269.965 316.511 271.321L316.512 273.785H316.943H317.374V271.019C317.374 268.003 317.335 267.62 316.96 266.929C316.475 266.035 315.379 265.545 314.276 265.729ZM283.02 265.844C282.993 265.872 282.97 267.67 282.97 269.84V273.785H283.797H284.623L284.605 269.81L284.586 265.835L283.828 265.814C283.412 265.803 283.048 265.817 283.02 265.844ZM292.451 269.792V273.785H293.241H294.031V269.792V265.799H293.241H292.451V269.792ZM299.913 266.523C300.997 266.756 301.646 268.182 301.548 270.116C301.458 271.9 300.946 272.879 299.963 273.146C299.545 273.259 298.875 273.185 298.397 272.971C297.932 272.763 297.321 272.229 297.192 271.915C297.129 271.763 297.112 271.149 297.13 269.68L297.155 267.654L297.572 267.265C298.338 266.551 299.027 266.333 299.913 266.523ZM307.465 269.756C307.675 269.796 308.019 269.908 308.229 270.004L308.611 270.18V271.088V271.996L308.218 272.39C307.972 272.637 307.643 272.869 307.338 273.012C306.907 273.214 306.778 273.241 306.205 273.243C305.624 273.245 305.524 273.225 305.216 273.044C304.773 272.783 304.543 272.424 304.452 271.854C304.285 270.799 304.713 270.024 305.605 269.766C305.93 269.673 306.994 269.667 307.465 269.756Z" fill="#1A1466"/>
<path d="M356.68 278.6H354.92V276.22C353.373 276.047 352.04 275.653 350.92 275.04V272.8C352.36 273.72 354.007 274.18 355.86 274.18C357.873 274.18 358.88 273.6 358.88 272.44C358.88 271.933 358.68 271.513 358.28 271.18C357.893 270.833 357.407 270.58 356.82 270.42C356.247 270.26 355.613 270.067 354.92 269.84C354.24 269.613 353.607 269.373 353.02 269.12C352.447 268.867 351.96 268.473 351.56 267.94C351.173 267.393 350.98 266.733 350.98 265.96C350.98 264.867 351.34 264 352.06 263.36C352.793 262.72 353.747 262.333 354.92 262.2V259.8H356.68V262.18C358.133 262.287 359.34 262.627 360.3 263.2V265.38C359.113 264.58 357.713 264.193 356.1 264.22C354.233 264.22 353.3 264.787 353.3 265.92C353.3 266.387 353.493 266.78 353.88 267.1C354.28 267.42 354.767 267.66 355.34 267.82C355.927 267.967 356.56 268.153 357.24 268.38C357.933 268.607 358.567 268.853 359.14 269.12C359.727 269.373 360.213 269.773 360.6 270.32C361 270.867 361.2 271.533 361.2 272.32C361.2 273.587 360.787 274.54 359.96 275.18C359.133 275.807 358.04 276.16 356.68 276.24V278.6ZM362.295 262.4H372.395V264.2L366.755 276H364.295L369.815 264.44H362.295V262.4ZM375.191 274.32C374.164 273.013 373.651 271.307 373.651 269.2C373.651 267.093 374.164 265.393 375.191 264.1C376.217 262.793 377.737 262.14 379.751 262.14C381.764 262.14 383.284 262.793 384.311 264.1C385.337 265.393 385.851 267.093 385.851 269.2C385.851 271.307 385.337 273.013 384.311 274.32C383.284 275.613 381.764 276.26 379.751 276.26C377.737 276.26 376.217 275.613 375.191 274.32ZM379.751 274.18C382.284 274.18 383.551 272.52 383.551 269.2C383.551 265.88 382.284 264.22 379.751 264.22C377.217 264.22 375.951 265.88 375.951 269.2C375.951 272.52 377.217 274.18 379.751 274.18ZM389.212 274.32C388.185 273.013 387.672 271.307 387.672 269.2C387.672 267.093 388.185 265.393 389.212 264.1C390.238 262.793 391.758 262.14 393.772 262.14C395.785 262.14 397.305 262.793 398.332 264.1C399.358 265.393 399.872 267.093 399.872 269.2C399.872 271.307 399.358 273.013 398.332 274.32C397.305 275.613 395.785 276.26 393.772 276.26C391.758 276.26 390.238 275.613 389.212 274.32ZM393.772 274.18C396.305 274.18 397.572 272.52 397.572 269.2C397.572 265.88 396.305 264.22 393.772 264.22C391.238 264.22 389.972 265.88 389.972 269.2C389.972 272.52 391.238 274.18 393.772 274.18Z" fill="#111111"/>
<path d="M356.68 346.6H354.92V344.22C353.373 344.047 352.04 343.653 350.92 343.04V340.8C352.36 341.72 354.007 342.18 355.86 342.18C357.873 342.18 358.88 341.6 358.88 340.44C358.88 339.933 358.68 339.513 358.28 339.18C357.893 338.833 357.407 338.58 356.82 338.42C356.247 338.26 355.613 338.067 354.92 337.84C354.24 337.613 353.607 337.373 353.02 337.12C352.447 336.867 351.96 336.473 351.56 335.94C351.173 335.393 350.98 334.733 350.98 333.96C350.98 332.867 351.34 332 352.06 331.36C352.793 330.72 353.747 330.333 354.92 330.2V327.8H356.68V330.18C358.133 330.287 359.34 330.627 360.3 331.2V333.38C359.113 332.58 357.713 332.193 356.1 332.22C354.233 332.22 353.3 332.787 353.3 333.92C353.3 334.387 353.493 334.78 353.88 335.1C354.28 335.42 354.767 335.66 355.34 335.82C355.927 335.967 356.56 336.153 357.24 336.38C357.933 336.607 358.567 336.853 359.14 337.12C359.727 337.373 360.213 337.773 360.6 338.32C361 338.867 361.2 339.533 361.2 340.32C361.2 341.587 360.787 342.54 359.96 343.18C359.133 343.807 358.04 344.16 356.68 344.24V346.6ZM363.615 330.4H371.995V332.44H365.715L365.515 335.72C366.168 335.56 366.855 335.48 367.575 335.48C369.028 335.48 370.235 335.833 371.195 336.54C372.155 337.233 372.635 338.327 372.635 339.82C372.635 341.233 372.108 342.327 371.055 343.1C370.015 343.873 368.708 344.26 367.135 344.26C365.495 344.26 364.042 343.953 362.775 343.34V341.2C363.922 341.867 365.288 342.2 366.875 342.2C367.915 342.2 368.748 341.993 369.375 341.58C370.015 341.167 370.335 340.573 370.335 339.8C370.335 338.173 369.102 337.36 366.635 337.36C365.488 337.36 364.335 337.56 363.175 337.96L363.615 330.4ZM375.315 346.96H373.575L374.755 342H377.015L375.315 346.96ZM380.812 336.48C382.052 335.733 383.372 335.36 384.772 335.36C386.038 335.36 387.138 335.747 388.072 336.52C389.005 337.28 389.472 338.34 389.472 339.7C389.472 341.14 388.992 342.26 388.032 343.06C387.072 343.86 385.878 344.26 384.452 344.26C382.425 344.26 380.925 343.66 379.952 342.46C378.992 341.26 378.512 339.547 378.512 337.32C378.512 334.933 379.098 333.14 380.272 331.94C381.445 330.74 382.958 330.14 384.812 330.14C386.065 330.14 387.238 330.407 388.332 330.94V333.02C387.305 332.447 386.205 332.16 385.032 332.16C383.885 332.16 382.925 332.5 382.152 333.18C381.392 333.86 380.945 334.96 380.812 336.48ZM380.832 338.5C381.072 341.033 382.218 342.3 384.272 342.3C385.125 342.3 385.818 342.1 386.352 341.7C386.898 341.287 387.172 340.653 387.172 339.8C387.172 338.933 386.885 338.313 386.312 337.94C385.752 337.553 385.025 337.36 384.132 337.36C382.892 337.36 381.792 337.74 380.832 338.5ZM392.569 342.32C391.542 341.013 391.029 339.307 391.029 337.2C391.029 335.093 391.542 333.393 392.569 332.1C393.595 330.793 395.115 330.14 397.129 330.14C399.142 330.14 400.662 330.793 401.689 332.1C402.715 333.393 403.229 335.093 403.229 337.2C403.229 339.307 402.715 341.013 401.689 342.32C400.662 343.613 399.142 344.26 397.129 344.26C395.115 344.26 393.595 343.613 392.569 342.32ZM397.129 342.18C399.662 342.18 400.929 340.52 400.929 337.2C400.929 333.88 399.662 332.22 397.129 332.22C394.595 332.22 393.329 333.88 393.329 337.2C393.329 340.52 394.595 342.18 397.129 342.18ZM406.59 342.32C405.563 341.013 405.05 339.307 405.05 337.2C405.05 335.093 405.563 333.393 406.59 332.1C407.617 330.793 409.137 330.14 411.15 330.14C413.163 330.14 414.683 330.793 415.71 332.1C416.737 333.393 417.25 335.093 417.25 337.2C417.25 339.307 416.737 341.013 415.71 342.32C414.683 343.613 413.163 344.26 411.15 344.26C409.137 344.26 407.617 343.613 406.59 342.32ZM411.15 342.18C413.683 342.18 414.95 340.52 414.95 337.2C414.95 333.88 413.683 332.22 411.15 332.22C408.617 332.22 407.35 333.88 407.35 337.2C407.35 340.52 408.617 342.18 411.15 342.18Z" fill="#111111"/>
<path d="M356.68 414.6H354.92V412.22C353.373 412.047 352.04 411.653 350.92 411.04V408.8C352.36 409.72 354.007 410.18 355.86 410.18C357.873 410.18 358.88 409.6 358.88 408.44C358.88 407.933 358.68 407.513 358.28 407.18C357.893 406.833 357.407 406.58 356.82 406.42C356.247 406.26 355.613 406.067 354.92 405.84C354.24 405.613 353.607 405.373 353.02 405.12C352.447 404.867 351.96 404.473 351.56 403.94C351.173 403.393 350.98 402.733 350.98 401.96C350.98 400.867 351.34 400 352.06 399.36C352.793 398.72 353.747 398.333 354.92 398.2V395.8H356.68V398.18C358.133 398.287 359.34 398.627 360.3 399.2V401.38C359.113 400.58 357.713 400.193 356.1 400.22C354.233 400.22 353.3 400.787 353.3 401.92C353.3 402.387 353.493 402.78 353.88 403.1C354.28 403.42 354.767 403.66 355.34 403.82C355.927 403.967 356.56 404.153 357.24 404.38C357.933 404.607 358.567 404.853 359.14 405.12C359.727 405.373 360.213 405.773 360.6 406.32C361 406.867 361.2 407.533 361.2 408.32C361.2 409.587 360.787 410.54 359.96 411.18C359.133 411.807 358.04 412.16 356.68 412.24V414.6ZM363.095 399.52C364.442 398.6 365.948 398.14 367.615 398.14C369.042 398.14 370.195 398.473 371.075 399.14C371.955 399.793 372.395 400.733 372.395 401.96C372.395 402.987 372.055 403.867 371.375 404.6C370.708 405.32 369.795 406.027 368.635 406.72C368.542 406.773 368.368 406.873 368.115 407.02C367.875 407.167 367.702 407.273 367.595 407.34C367.502 407.393 367.348 407.487 367.135 407.62C366.922 407.753 366.762 407.853 366.655 407.92C366.562 407.987 366.428 408.087 366.255 408.22C366.095 408.34 365.975 408.447 365.895 408.54C365.815 408.62 365.722 408.727 365.615 408.86C365.508 408.98 365.428 409.093 365.375 409.2C365.335 409.307 365.295 409.427 365.255 409.56C365.215 409.693 365.195 409.827 365.195 409.96L372.495 409.94V412H362.635V410.96C362.635 410.213 362.735 409.553 362.935 408.98C363.148 408.393 363.515 407.86 364.035 407.38C364.568 406.887 364.982 406.54 365.275 406.34C365.568 406.127 366.088 405.8 366.835 405.36C366.902 405.307 366.955 405.267 366.995 405.24C367.048 405.213 367.102 405.187 367.155 405.16C368.275 404.507 368.995 404.033 369.315 403.74C369.848 403.22 370.115 402.64 370.115 402C370.115 401.413 369.875 400.967 369.395 400.66C368.928 400.353 368.268 400.2 367.415 400.2C365.935 400.2 364.495 400.707 363.095 401.72V399.52ZM383.734 401.86C383.734 402.567 383.548 403.187 383.174 403.72C382.814 404.253 382.328 404.62 381.714 404.82C382.448 405.047 383.061 405.447 383.554 406.02C384.048 406.593 384.294 407.353 384.294 408.3C384.294 409.593 383.801 410.58 382.814 411.26C381.828 411.927 380.588 412.26 379.094 412.26C377.348 412.26 375.774 411.96 374.374 411.36V409.16C375.681 409.88 377.194 410.227 378.914 410.2C381.048 410.173 382.114 409.46 382.114 408.06C382.114 406.7 381.154 406.02 379.234 406.02H377.074V403.96L378.974 403.98C379.801 403.98 380.434 403.82 380.874 403.5C381.328 403.167 381.554 402.713 381.554 402.14C381.554 401.527 381.301 401.053 380.794 400.72C380.301 400.373 379.594 400.2 378.674 400.2C377.261 400.2 375.908 400.573 374.614 401.32V399.14C375.881 398.473 377.334 398.14 378.974 398.14C380.401 398.14 381.548 398.473 382.414 399.14C383.294 399.807 383.734 400.713 383.734 401.86ZM387.61 410.32C386.583 409.013 386.07 407.307 386.07 405.2C386.07 403.093 386.583 401.393 387.61 400.1C388.637 398.793 390.157 398.14 392.17 398.14C394.183 398.14 395.703 398.793 396.73 400.1C397.757 401.393 398.27 403.093 398.27 405.2C398.27 407.307 397.757 409.013 396.73 410.32C395.703 411.613 394.183 412.26 392.17 412.26C390.157 412.26 388.637 411.613 387.61 410.32ZM392.17 410.18C394.703 410.18 395.97 408.52 395.97 405.2C395.97 401.88 394.703 400.22 392.17 400.22C389.637 400.22 388.37 401.88 388.37 405.2C388.37 408.52 389.637 410.18 392.17 410.18Z" fill="#111111"/>
<path fill-rule="evenodd" clip-rule="evenodd" d="M291.109 320.032C291.109 320.064 292.768 321.757 294.956 323.958C295.593 324.598 296.984 326.004 298.047 327.081L299.98 329.039L303.988 324.969C308.624 320.262 308.789 320.093 308.807 320.04C308.815 320.013 305.837 320 299.964 320C295.094 320 291.109 320.014 291.109 320.032ZM289.833 321.221C289.272 321.784 288.009 323.052 287.026 324.038C286.044 325.023 284.511 326.563 283.62 327.46L282 329.09L283.797 330.892C284.785 331.884 285.682 332.78 285.79 332.885C285.898 332.989 286.795 333.886 287.784 334.878C288.773 335.87 289.869 336.965 290.218 337.311L290.854 337.939L290.864 333.505C290.869 331.066 290.869 327.073 290.864 324.633L290.854 320.196L289.833 321.221ZM309.167 329.13V338.077L309.314 337.93C309.395 337.85 310.264 336.974 311.246 335.984C312.228 334.994 313.032 334.184 313.032 334.184C313.075 334.17 318.001 329.156 318 329.128C318 329.105 317.571 328.655 317.047 328.129C316.524 327.603 314.635 325.698 312.85 323.896C311.065 322.094 309.506 320.521 309.386 320.401L309.167 320.183V329.13ZM295.514 333.602C293.09 336.065 291.107 338.094 291.108 338.11C291.109 338.148 308.813 338.15 308.813 338.113C308.813 338.075 299.974 329.109 299.945 329.117C299.932 329.12 297.938 331.138 295.514 333.602ZM296.114 341.922C295.275 342.1 294.67 342.539 294.332 343.216C293.942 344 294.072 344.99 294.651 345.635C294.916 345.931 295.474 346.317 296.919 347.206C297.102 347.319 297.287 347.434 297.329 347.461C297.371 347.488 297.528 347.588 297.679 347.684C298.232 348.035 298.495 348.369 298.607 348.861C298.651 349.053 298.651 349.129 298.608 349.301C298.451 349.935 298.072 350.287 297.39 350.433C296.704 350.579 295.842 350.37 295.354 349.941C295.126 349.74 294.866 349.363 294.739 349.047C294.682 348.905 294.621 348.762 294.605 348.729C294.588 348.696 294.542 348.52 294.501 348.337C294.428 348.007 294.428 348.006 294.309 348.018L294.19 348.03L294.18 349.497L294.17 350.965L294.266 350.989C294.386 351.02 294.446 350.985 294.446 350.884C294.446 350.793 294.518 350.65 294.603 350.577C294.68 350.51 295.063 350.533 295.348 350.623C296.139 350.87 296.627 350.968 297.078 350.971C297.818 350.975 298.441 350.745 298.985 350.268C299.167 350.107 299.51 349.663 299.51 349.586C299.51 349.572 299.535 349.503 299.565 349.434C299.638 349.27 299.745 348.771 299.745 348.595C299.745 348.178 299.523 347.546 299.245 347.173C299.031 346.887 298.438 346.421 297.995 346.192C297.911 346.148 297.832 346.101 297.822 346.089C297.811 346.076 297.634 345.98 297.429 345.876C297.224 345.771 296.879 345.578 296.663 345.447C296.448 345.316 296.236 345.187 296.192 345.16C296.149 345.134 296.105 345.103 296.094 345.09C296.083 345.078 295.987 345.006 295.879 344.932C295.571 344.718 295.353 344.471 295.223 344.189C295.115 343.955 295.105 343.9 295.122 343.642C295.15 343.215 295.345 342.899 295.733 342.657C296.441 342.213 297.539 342.42 298.199 343.12C298.408 343.342 298.513 343.512 298.723 343.974C298.751 344.035 298.856 344.468 298.912 344.753C298.938 344.888 298.96 344.915 299.05 344.926L299.156 344.938V343.417V341.896H299.042C298.945 341.896 298.923 341.916 298.9 342.021C298.885 342.089 298.825 342.197 298.765 342.261C298.613 342.423 298.438 342.413 297.961 342.215C297.592 342.061 297.452 342.016 297.095 341.935C296.939 341.9 296.262 341.891 296.114 341.922ZM313.151 341.919C313.108 341.929 312.975 341.957 312.857 341.981C312.531 342.047 312.158 342.173 311.895 342.304C311.655 342.424 311.4 342.573 311.365 342.614C311.354 342.627 311.3 342.667 311.245 342.702C310.957 342.888 310.463 343.41 310.21 343.794C309.89 344.281 309.52 345.184 309.52 345.478C309.52 345.543 309.503 345.614 309.482 345.635C309.425 345.693 309.391 346.826 309.436 347.191C309.506 347.762 309.689 348.403 309.885 348.762C310.015 349.001 310.197 349.306 310.223 349.328C310.236 349.339 310.316 349.437 310.401 349.545C311.168 350.515 312.192 350.981 313.544 350.974C313.907 350.972 314.01 350.963 314.329 350.903C314.625 350.847 315.29 350.608 315.29 350.558C315.29 350.541 315.314 350.527 315.342 350.527C315.371 350.527 315.522 350.437 315.678 350.328C316.039 350.075 316.496 349.612 316.689 349.303C316.728 349.24 316.77 349.179 316.782 349.168C316.825 349.127 317.018 348.809 317.018 348.779C317.018 348.727 316.852 348.639 316.826 348.678C316.707 348.855 316.307 349.318 316.089 349.531C315.36 350.245 315.013 350.388 314.015 350.386C313.38 350.384 313.011 350.326 312.729 350.182C312.431 350.03 312.351 349.984 312.17 349.862C312.062 349.79 311.906 349.665 311.824 349.585C311.647 349.412 311.327 348.97 311.262 348.809C311.248 348.776 311.205 348.677 311.165 348.589C311.125 348.501 311.064 348.303 311.028 348.149C310.993 347.996 310.943 347.798 310.919 347.71C310.858 347.491 310.858 345.568 310.92 345.353C310.945 345.265 310.994 345.058 311.029 344.894C311.17 344.237 311.533 343.49 311.895 343.112C312.193 342.801 312.433 342.646 312.833 342.508C313.129 342.406 313.196 342.398 313.799 342.398C314.513 342.397 314.673 342.432 315.153 342.693C315.402 342.828 316.007 343.422 316.115 343.637C316.147 343.701 316.183 343.763 316.194 343.774C316.237 343.817 316.46 344.327 316.548 344.585C316.633 344.833 316.65 344.856 316.741 344.845L316.841 344.833L316.828 344.434C316.821 344.214 316.799 343.962 316.78 343.874C316.761 343.786 316.744 343.57 316.743 343.395C316.74 343.073 316.688 342.381 316.641 342.066C316.62 341.923 316.602 341.896 316.526 341.896C316.456 341.896 316.424 341.93 316.387 342.044C316.336 342.202 316.306 342.249 316.158 342.399C316.02 342.541 315.851 342.523 315.434 342.322C314.752 341.994 314.494 341.93 313.779 341.914C313.477 341.906 313.194 341.909 313.151 341.919ZM284.327 342.122C284.3 342.133 284.278 342.175 284.278 342.214C284.278 342.272 284.322 342.289 284.524 342.306C284.821 342.332 285.178 342.463 285.308 342.596C285.36 342.649 285.424 342.763 285.449 342.849C285.483 342.962 285.495 343.923 285.495 346.384C285.495 349.862 285.49 349.999 285.341 350.281C285.264 350.429 285.066 350.497 284.661 350.517L284.278 350.536V350.647C284.278 350.708 284.3 350.766 284.327 350.775C284.368 350.789 287.798 350.785 287.902 350.771C287.92 350.769 287.929 350.717 287.922 350.657C287.91 350.549 287.904 350.546 287.576 350.522C287.149 350.49 286.943 350.384 286.806 350.127C286.737 349.997 286.731 349.868 286.72 348.299L286.707 346.611H288.675H290.643L290.63 348.299L290.617 349.987L290.519 350.165C290.378 350.423 290.219 350.502 289.794 350.527L289.44 350.547V350.666V350.786L291.219 350.787C292.197 350.788 293.016 350.777 293.038 350.763C293.06 350.749 293.072 350.695 293.065 350.642C293.052 350.551 293.036 350.546 292.673 350.527C292.321 350.508 292.283 350.498 292.143 350.383C291.846 350.138 291.859 350.323 291.857 346.499C291.855 343.431 291.861 343.07 291.92 342.888C292.016 342.589 292.182 342.441 292.514 342.358C292.666 342.32 292.831 342.293 292.881 342.297C293.051 342.311 293.077 342.298 293.065 342.206L293.052 342.116H291.246H289.44L289.428 342.206C289.417 342.286 289.432 342.296 289.567 342.296C289.936 342.296 290.391 342.495 290.542 342.721C290.614 342.829 290.619 342.932 290.63 344.483L290.642 346.132H288.675H286.708L286.72 344.543C286.732 343.101 286.74 342.941 286.805 342.796C286.939 342.502 287.213 342.345 287.657 342.307C287.909 342.286 287.932 342.277 287.921 342.2C287.909 342.116 287.905 342.116 286.143 342.109C285.171 342.105 284.354 342.111 284.327 342.122ZM300.675 342.122C300.66 342.137 300.648 342.182 300.648 342.223C300.648 342.279 300.678 342.296 300.781 342.296C300.853 342.296 301.038 342.325 301.191 342.36C301.406 342.409 301.499 342.454 301.608 342.561C301.686 342.639 301.747 342.739 301.747 342.789C301.747 342.839 301.769 342.902 301.796 342.929C301.871 343.005 301.867 349.787 301.793 349.951C301.637 350.295 301.602 350.342 301.434 350.432C301.292 350.508 301.198 350.527 300.95 350.527H300.643L300.655 350.657L300.668 350.787L302.709 350.787C305.509 350.787 306.165 350.75 306.635 350.569C306.822 350.497 307.25 350.271 307.331 350.201C307.724 349.864 307.964 349.535 308.128 349.108C308.238 348.824 308.237 348 308.128 347.71C307.949 347.238 307.634 346.898 307.156 346.661C306.789 346.48 306.638 346.42 306.5 346.403C306.358 346.385 306.359 346.306 306.502 346.276C306.943 346.187 307.714 345.466 307.714 345.144C307.714 345.102 307.736 345.046 307.763 345.019C307.798 344.983 307.812 344.801 307.812 344.394C307.812 343.986 307.798 343.804 307.763 343.768C307.736 343.741 307.714 343.69 307.714 343.656C307.714 343.622 307.673 343.514 307.624 343.415C307.402 342.97 307.008 342.651 306.396 342.422C305.945 342.252 305.566 342.178 304.966 342.14C304.316 342.099 300.712 342.084 300.675 342.122ZM304.801 342.558C305.715 342.719 306.373 343.264 306.522 343.984C306.686 344.775 306.372 345.501 305.735 345.806C305.32 346.005 305.177 346.039 304.415 346.114C304.182 346.137 303.387 346.08 303.17 346.026L303.082 346.003V344.333V342.663L303.268 342.618C303.707 342.511 304.384 342.485 304.801 342.558ZM304.865 346.591C305.058 346.623 305.311 346.678 305.428 346.712C306.412 347.004 306.965 347.903 306.77 348.897C306.587 349.83 305.702 350.349 304.339 350.322C303.921 350.314 303.195 350.234 303.122 350.188C303.096 350.171 303.082 349.549 303.082 348.389V346.615L303.229 346.59C303.31 346.577 303.403 346.56 303.435 346.553C303.611 346.515 304.563 346.541 304.865 346.591Z" fill="#111111"/>
<g clip-path="url(#clip0_524_249511)">
<path d="M287.725 403.893C287.725 410.721 293.224 416.255 300.008 416.255C306.792 416.255 312.292 410.721 312.292 403.893C312.292 397.061 306.792 391.523 300.008 391.523C293.224 391.525 287.725 397.061 287.725 403.893ZM285 403.893C285 395.549 291.716 388.778 300.008 388.778C308.298 388.778 315.016 395.549 315.016 403.895C315.016 412.239 308.298 419.004 300.008 419.004C291.716 419.004 285 412.239 285 403.893ZM294.082 409.858V397.928H305.931V409.856H294.082V409.858Z" fill="#F28231"/>
</g>
<path fill-rule="evenodd" clip-rule="evenodd" d="M62.5506 246.018C62.1626 246.053 61.6432 246.17 61.2829 246.303C60.8193 246.474 60.2482 246.8 59.8621 247.112C59.6639 247.272 59.2725 247.664 59.1123 247.862C58.8 248.248 58.4749 248.819 58.3034 249.283C58.0608 249.939 57.9551 250.732 58.0177 251.426C58.0557 251.848 58.1655 252.344 58.3034 252.717C58.4749 253.181 58.8 253.752 59.1123 254.138C59.2725 254.336 59.6639 254.727 59.8621 254.888C60.2482 255.2 60.8193 255.525 61.2829 255.697C61.9392 255.939 62.7318 256.045 63.426 255.982C63.848 255.944 64.3441 255.834 64.7171 255.697C65.1807 255.525 65.7518 255.2 66.1379 254.888C66.3361 254.727 66.7275 254.336 66.8877 254.138C67.2 253.752 67.5251 253.181 67.6966 252.717C67.8345 252.344 67.9443 251.848 67.9823 251.426C68.0449 250.732 67.9392 249.939 67.6966 249.283C67.5251 248.819 67.2 248.248 66.8877 247.862C66.7275 247.664 66.3361 247.272 66.1379 247.112C65.7518 246.8 65.1807 246.474 64.7171 246.303C64.0593 246.06 63.2582 245.955 62.5506 246.018ZM63.3419 247.014C64.2912 247.103 65.1467 247.505 65.8208 248.179C67.0429 249.401 67.3475 251.234 66.5829 252.764C66.3823 253.165 66.1399 253.502 65.8208 253.821C64.5987 255.043 62.7663 255.347 61.2359 254.583C60.8345 254.382 60.4984 254.14 60.1792 253.821C58.9571 252.599 58.6525 250.766 59.4171 249.236C60.1561 247.756 61.7324 246.864 63.3419 247.014ZM62.492 248.997V249.495H63H63.508V248.997V248.499H63H62.492V248.997ZM62.5054 250.504C62.498 250.512 62.492 251.189 62.492 252.009V253.501H63.0001H63.5082L63.5032 252.001L63.4982 250.502L63.0085 250.496C62.7391 250.493 62.5127 250.497 62.5054 250.504Z" fill="#2968E4"/>
<defs>
<clipPath id="clip0_524_249511">
<rect width="30" height="31" fill="white" transform="translate(285 388)"/>
</clipPath>
</defs>
</svg>
