<svg width="1213" height="452" viewBox="0 0 1213 452" fill="none" xmlns="http://www.w3.org/2000/svg">
<g opacity="0.5" clip-path="url(#clip0_761_250994)">
<path d="M384.879 187.82H331.352V400.81H384.879V187.82Z" fill="#3B3864"/>
<path d="M376.135 172.548H340.097V262.062H376.135V172.548Z" fill="#3B3864"/>
<path d="M368.106 162.866H348.112V212.51H368.106V162.866Z" fill="#3B3864"/>
<path d="M364.925 188.377H351.292V154.534H356.207H361.083H364.925V188.377Z" fill="#3B3864"/>
<path d="M357.214 173.648H355.73V139.805H356.274H356.79H357.214V173.648Z" fill="#3B3864"/>
<path d="M360.487 161.938H359.003V128.109H359.533H360.063H360.487V161.938Z" fill="#3B3864"/>
<path d="M386.297 187.277H329.921V189.542H386.297V187.277Z" fill="#3B3864"/>
<path d="M377.433 171.462H338.771V173.648H377.433V171.462Z" fill="#3B3864"/>
<path d="M368.94 161.938H346.654V163.607H368.94V161.938Z" fill="#3B3864"/>
<path opacity="0.29" d="M345.079 176.177H343.409V185.555H345.079V176.177Z" fill="#3B3864"/>
<path opacity="0.29" d="M349.715 176.177H348.046V185.555H349.715V176.177Z" fill="#3B3864"/>
<path opacity="0.29" d="M354.339 176.177H352.67V185.555H354.339V176.177Z" fill="#3B3864"/>
<path opacity="0.29" d="M358.977 176.177H357.308V185.555H358.977V176.177Z" fill="#3B3864"/>
<path opacity="0.29" d="M363.614 176.177H361.944V185.555H363.614V176.177Z" fill="#3B3864"/>
<path opacity="0.29" d="M368.251 176.177H366.582V185.555H368.251V176.177Z" fill="#3B3864"/>
<path opacity="0.29" d="M372.888 176.177H371.219V185.555H372.888V176.177Z" fill="#3B3864"/>
<path d="M340.096 196.311H336.042V207.437H340.096V196.311Z" fill="#3B3864"/>
<path opacity="0.29" d="M348.112 196.311H344.058V207.437H348.112V196.311Z" fill="#3B3864"/>
<path d="M356.129 196.311H352.074V207.437H356.129V196.311Z" fill="#3B3864"/>
<path d="M364.144 196.311H360.09V207.437H364.144V196.311Z" fill="#3B3864"/>
<path d="M372.16 196.311H368.105V207.437H372.16V196.311Z" fill="#3B3864"/>
<path d="M380.175 196.311H376.121V207.437H380.175V196.311Z" fill="#3B3864"/>
<path d="M340.096 213.663H336.042V224.789H340.096V213.663Z" fill="#3B3864"/>
<path d="M348.112 213.663H344.058V224.789H348.112V213.663Z" fill="#3B3864"/>
<path d="M356.129 213.663H352.074V224.789H356.129V213.663Z" fill="#3B3864"/>
<path opacity="0.29" d="M364.144 213.663H360.09V224.789H364.144V213.663Z" fill="#3B3864"/>
<path d="M372.16 213.663H368.105V224.789H372.16V213.663Z" fill="#3B3864"/>
<path d="M380.175 213.663H376.121V224.789H380.175V213.663Z" fill="#3B3864"/>
<path d="M340.096 231.001H336.042V242.127H340.096V231.001Z" fill="#3B3864"/>
<path d="M348.112 231.001H344.058V242.127H348.112V231.001Z" fill="#3B3864"/>
<path d="M356.129 231.001H352.074V242.127H356.129V231.001Z" fill="#3B3864"/>
<path d="M364.144 231.001H360.09V242.127H364.144V231.001Z" fill="#3B3864"/>
<path opacity="0.29" d="M372.16 231.001H368.105V242.127H372.16V231.001Z" fill="#3B3864"/>
<path opacity="0.29" d="M380.175 231.001H376.121V242.127H380.175V231.001Z" fill="#3B3864"/>
<path opacity="0.29" d="M340.096 248.34H336.042V259.466H340.096V248.34Z" fill="#3B3864"/>
<path d="M348.112 248.34H344.058V259.466H348.112V248.34Z" fill="#3B3864"/>
<path d="M356.129 248.34H352.074V259.466H356.129V248.34Z" fill="#3B3864"/>
<path d="M364.144 248.34H360.09V259.466H364.144V248.34Z" fill="#3B3864"/>
<path d="M372.16 248.34H368.105V259.466H372.16V248.34Z" fill="#3B3864"/>
<path d="M380.175 248.34H376.121V259.466H380.175V248.34Z" fill="#3B3864"/>
<path d="M340.096 265.691H336.042V276.818H340.096V265.691Z" fill="#3B3864"/>
<path opacity="0.29" d="M348.112 265.691H344.058V276.818H348.112V265.691Z" fill="#3B3864"/>
<path d="M356.129 265.691H352.074V276.818H356.129V265.691Z" fill="#3B3864"/>
<path opacity="0.29" d="M364.144 265.691H360.09V276.818H364.144V265.691Z" fill="#3B3864"/>
<path d="M372.16 265.691H368.105V276.818H372.16V265.691Z" fill="#3B3864"/>
<path d="M380.175 265.691H376.121V276.818H380.175V265.691Z" fill="#3B3864"/>
<path d="M340.096 283.03H336.042V294.156H340.096V283.03Z" fill="#3B3864"/>
<path d="M348.112 283.03H344.058V294.156H348.112V283.03Z" fill="#3B3864"/>
<path d="M356.129 283.03H352.074V294.156H356.129V283.03Z" fill="#3B3864"/>
<path d="M364.144 283.03H360.09V294.156H364.144V283.03Z" fill="#3B3864"/>
<path d="M372.16 283.03H368.105V294.156H372.16V283.03Z" fill="#3B3864"/>
<path opacity="0.29" d="M380.175 283.03H376.121V294.156H380.175V283.03Z" fill="#3B3864"/>
<path d="M340.096 300.382H336.042V311.508H340.096V300.382Z" fill="#3B3864"/>
<path opacity="0.29" d="M348.112 300.382H344.058V311.508H348.112V300.382Z" fill="#3B3864"/>
<path opacity="0.29" d="M356.129 300.382H352.074V311.508H356.129V300.382Z" fill="#3B3864"/>
<path d="M364.144 300.382H360.09V311.508H364.144V300.382Z" fill="#3B3864"/>
<path d="M372.16 300.382H368.105V311.508H372.16V300.382Z" fill="#3B3864"/>
<path d="M380.175 300.382H376.121V311.508H380.175V300.382Z" fill="#3B3864"/>
<path d="M340.096 317.72H336.042V328.847H340.096V317.72Z" fill="#3B3864"/>
<path d="M348.112 317.72H344.058V328.847H348.112V317.72Z" fill="#3B3864"/>
<path d="M356.129 317.72H352.074V328.847H356.129V317.72Z" fill="#3B3864"/>
<path d="M364.144 317.72H360.09V328.847H364.144V317.72Z" fill="#3B3864"/>
<path opacity="0.29" d="M372.16 317.72H368.105V328.847H372.16V317.72Z" fill="#3B3864"/>
<path d="M380.175 317.72H376.121V328.847H380.175V317.72Z" fill="#3B3864"/>
<path d="M340.096 335.072H336.042V346.198H340.096V335.072Z" fill="#3B3864"/>
<path opacity="0.29" d="M348.112 335.072H344.058V346.198H348.112V335.072Z" fill="#3B3864"/>
<path d="M356.129 335.072H352.074V346.198H356.129V335.072Z" fill="#3B3864"/>
<path d="M364.144 335.072H360.09V346.198H364.144V335.072Z" fill="#3B3864"/>
<path d="M372.16 335.072H368.105V346.198H372.16V335.072Z" fill="#3B3864"/>
<path d="M380.175 335.072H376.121V346.198H380.175V335.072Z" fill="#3B3864"/>
<path d="M340.096 352.411H336.042V363.537H340.096V352.411Z" fill="#3B3864"/>
<path d="M348.112 352.411H344.058V363.537H348.112V352.411Z" fill="#3B3864"/>
<path d="M356.129 352.411H352.074V363.537H356.129V352.411Z" fill="#3B3864"/>
<path opacity="0.29" d="M364.144 352.411H360.09V363.537H364.144V352.411Z" fill="#3B3864"/>
<path d="M372.16 352.411H368.105V363.537H372.16V352.411Z" fill="#3B3864"/>
<path opacity="0.29" d="M380.175 352.411H376.121V363.537H380.175V352.411Z" fill="#3B3864"/>
<path opacity="0.29" d="M340.096 369.762H336.042V380.889H340.096V369.762Z" fill="#3B3864"/>
<path d="M348.112 369.762H344.058V380.889H348.112V369.762Z" fill="#3B3864"/>
<path opacity="0.29" d="M356.129 369.762H352.074V380.889H356.129V369.762Z" fill="#3B3864"/>
<path d="M364.144 369.762H360.09V380.889H364.144V369.762Z" fill="#3B3864"/>
<path d="M372.16 369.762H368.105V380.889H372.16V369.762Z" fill="#3B3864"/>
<path d="M380.175 369.762H376.121V380.889H380.175V369.762Z" fill="#3B3864"/>
<path d="M261.938 195.927H175.897V375.352H261.938V195.927Z" fill="#3B3864"/>
<path d="M264.376 192.841H173.446V197.914H264.376V192.841Z" fill="#3B3864"/>
<path d="M259.05 186.35H178.786V210.457H259.05V186.35Z" fill="#3B3864"/>
<path d="M216.719 176.482H184.934V202.814H216.719V176.482Z" fill="#3B3864"/>
<path d="M203.324 183.9H184.934V170.045H198.117L203.324 183.9Z" fill="#3B3864"/>
<path d="M194.128 158.534H192.34V189.423H194.128V158.534Z" fill="#3B3864"/>
<path d="M194.83 156.932C194.83 157.819 194.115 158.534 193.227 158.534C192.339 158.534 191.624 157.819 191.624 156.932C191.624 156.044 192.339 155.329 193.227 155.329C194.115 155.329 194.83 156.044 194.83 156.932Z" fill="#3B3864"/>
<path d="M974.473 389.008H880.283L868.531 125.195L974.473 147.183V389.008Z" fill="#3B3864"/>
<path d="M563.545 238.352V150.15H548.772V126.533H543.499V91.8822H514.417V66.4109H511.833V91.8822H506.136V60H503.553V91.8822H485.176V150.15H475.676V238.352H467.541V398.996H569.269V238.352H563.545Z" fill="#3B3864"/>
<path d="M1180.99 385.737H55.6338V412.493H1180.99V385.737Z" fill="#3B3864"/>
<path d="M718.059 405.936H668.229L687.639 306.183H718.059V405.936Z" fill="#38346B"/>
<path d="M1196.84 409.83H15.2637V452.018H1196.84V409.83Z" fill="#38346B"/>
<path d="M677.225 221.332V177.131H661.22V160.296H652.66V146.163H649.653V121.923H648.884V146.163H645.877V160.296H637.318V177.131H621.432V221.332H618.133V301.6H593.516V393.088H618.133H642.75H680.404V221.332H677.225Z" fill="#38346B"/>
<path d="M769.174 272.116H691.732V273.52H695.23V404.439H765.677V273.52H769.174V272.116Z" fill="#38346B"/>
<path d="M416.029 304.726H347.357V413.791H416.029V304.726Z" fill="#38346B"/>
<path d="M337.01 360.61H218.919V413.791H337.01V360.61Z" fill="#38346B"/>
<path d="M308.14 241.783H282.211V372.385H308.14V241.783Z" fill="#38346B"/>
<path d="M289.286 206.947H287.935V277.97H289.286V206.947Z" fill="#38346B"/>
<path d="M293.671 212.325H292.319V283.348H293.671V212.325Z" fill="#38346B"/>
<path d="M300.057 233.703H284.211V251.201H300.057V233.703Z" fill="#38346B"/>
<path d="M377.5 324.25H332.386V413.791H377.5V324.25Z" fill="#38346B"/>
<path d="M511.834 229.504H427.145V413.791H511.834V229.504Z" fill="#38346B"/>
<path d="M503.513 223.16H435.465V253.85H503.513V223.16Z" fill="#38346B"/>
<path d="M518.406 233.359H420.586V235.518H518.406V233.359Z" fill="#38346B"/>
<path d="M451.709 320.714H411.802V413.778H451.709V320.714Z" fill="#38346B"/>
<path d="M171.778 317.177H125.988V413.778H171.778V317.177Z" fill="#38346B"/>
<path d="M232.049 290.924H140.801V413.778H232.049V290.924Z" fill="#38346B"/>
<path d="M234.394 286.209H135.475V290.924H234.394V286.209Z" fill="#38346B"/>
<path d="M184.934 273.427H144.842V298.342H184.934V273.427Z" fill="#38346B"/>
<path d="M204.769 273.427H198.038V288.58H204.769V273.427Z" fill="#38346B"/>
<path d="M218.919 273.427H211.513V288.58H218.919V273.427Z" fill="#38346B"/>
<path d="M148.883 376.425H101.066V413.791H148.883V376.425Z" fill="#38346B"/>
<path d="M105.651 360.61H83.0078V413.791H105.651V360.61Z" fill="#38346B"/>
<path d="M94.3227 395.101H55.6348V413.778H94.3227V395.101Z" fill="#38346B"/>
<path d="M980.29 372.385H503.514V413.791H980.29V372.385Z" fill="#38346B"/>
<path d="M942.224 257.784C939.216 257.784 936.765 260.089 936.513 263.029L929.809 262.817C929.822 262.155 929.836 261.506 929.836 260.844C929.836 252.499 928.391 244.366 925.636 236.75L931.24 234.683C932.115 236.71 934.142 238.14 936.5 238.14C939.667 238.14 942.224 235.571 942.224 232.418C942.224 229.253 939.653 226.696 936.5 226.696C933.333 226.696 930.776 229.266 930.776 232.418C930.776 233.001 930.869 233.571 931.028 234.101L925.424 236.167C922.23 227.597 917.355 219.689 910.982 212.841L915.367 208.735C916.401 209.715 917.792 210.325 919.329 210.325C922.496 210.325 925.053 207.755 925.053 204.603C925.053 201.437 922.482 198.88 919.329 198.88C916.162 198.88 913.605 201.45 913.605 204.603C913.605 206.007 914.109 207.291 914.943 208.285L910.558 212.391C910.107 211.914 909.644 211.437 909.18 210.974C902.542 204.338 894.805 199.185 886.391 195.675L888.803 189.807C889.346 189.979 889.929 190.072 890.538 190.072C893.705 190.072 896.262 187.502 896.262 184.35C896.262 181.184 893.692 178.628 890.538 178.628C887.385 178.628 884.815 181.197 884.815 184.35C884.815 186.681 886.206 188.695 888.22 189.582L885.808 195.437C878.269 192.39 870.201 190.642 861.88 190.35L862.145 182.323C862.211 182.323 862.264 182.323 862.33 182.323C865.497 182.323 868.054 179.754 868.054 176.601C868.054 173.449 865.484 170.879 862.33 170.879C859.177 170.879 856.607 173.449 856.607 176.601C856.607 179.489 858.74 181.873 861.522 182.27L861.257 190.337C860.595 190.324 859.946 190.31 859.283 190.31C851.267 190.31 843.463 191.635 836.11 194.191L833.805 187.635C835.885 186.774 837.356 184.734 837.356 182.337C837.356 179.171 834.785 176.615 831.632 176.615C828.478 176.615 825.908 179.184 825.908 182.337C825.908 185.502 828.478 188.059 831.632 188.059C832.175 188.059 832.705 187.979 833.208 187.834L835.514 194.39C826.597 197.569 818.356 202.563 811.254 209.159L807.068 204.695C808.008 203.675 808.578 202.311 808.578 200.828C808.578 197.662 806.008 195.105 802.854 195.105C799.701 195.105 797.131 197.675 797.131 200.828C797.131 203.993 799.701 206.55 802.854 206.55C804.299 206.55 805.61 206.02 806.617 205.132L810.791 209.596C810.314 210.046 809.837 210.51 809.373 210.974C803.464 216.881 798.734 223.65 795.302 231.001L789.976 228.551C790.175 227.981 790.281 227.359 790.281 226.723C790.281 223.557 787.71 221.001 784.557 221.001C781.404 221.001 778.833 223.57 778.833 226.723C778.833 229.875 781.404 232.445 784.557 232.445C786.862 232.445 788.837 231.094 789.751 229.133L795.037 231.571C791.235 239.876 789.088 248.909 788.757 258.274L781.934 258.049C781.854 254.962 779.324 252.486 776.21 252.486C773.043 252.486 770.486 255.055 770.486 258.208C770.486 261.373 773.057 263.93 776.21 263.93C779.218 263.93 781.669 261.625 781.92 258.684L788.744 258.91C788.731 259.572 788.717 260.221 788.717 260.883C788.717 269.228 790.162 277.361 792.917 284.977L787.313 287.043C786.438 285.017 784.411 283.586 782.053 283.586C778.886 283.586 776.329 286.156 776.329 289.308C776.329 292.461 778.9 295.03 782.053 295.03C785.206 295.03 787.777 292.461 787.777 289.308C787.777 288.726 787.684 288.156 787.525 287.626L793.129 285.56C796.322 294.13 801.198 302.037 807.571 308.885L803.186 312.992C802.152 312.011 800.761 311.402 799.224 311.402C796.057 311.402 793.5 313.972 793.5 317.124C793.5 320.29 796.071 322.846 799.224 322.846C802.391 322.846 804.948 320.277 804.948 317.124C804.948 315.72 804.444 314.435 803.61 313.442L807.995 309.336C808.446 309.813 808.909 310.289 809.373 310.753C813.851 315.23 818.82 319.018 824.159 322.091L789.618 385.75H783.418V387.564H780.384V391.181H938.236V387.564H935.202V385.75H929.001L894.46 322.091C899.057 319.442 903.39 316.25 907.365 312.568L912.969 318.541C911.764 319.588 911.008 321.138 911.008 322.86C911.008 326.025 913.579 328.582 916.732 328.582C919.885 328.582 922.456 326.012 922.456 322.86C922.456 319.694 919.885 317.137 916.732 317.137C915.513 317.137 914.4 317.522 913.473 318.157L907.829 312.144C908.306 311.693 908.783 311.23 909.246 310.766C915.155 304.859 919.885 298.09 923.317 290.739L929.557 293.613C929.438 294.064 929.385 294.527 929.385 295.017C929.385 298.183 931.956 300.739 935.109 300.739C938.262 300.739 940.833 298.17 940.833 295.017C940.833 291.852 938.262 289.295 935.109 289.295C932.658 289.295 930.564 290.845 929.743 293.004L923.582 290.156C927.385 281.851 929.531 272.818 929.862 263.453L936.58 263.665C936.659 266.751 939.19 269.241 942.303 269.241C945.47 269.241 948.027 266.672 948.027 263.519C947.947 260.34 945.39 257.784 942.224 257.784ZM927.928 260.83C927.928 261.466 927.915 262.102 927.901 262.738L908.133 262.089C908.147 261.665 908.147 261.241 908.147 260.817C908.147 254.989 907.126 249.399 905.245 244.22L923.834 237.372C926.523 244.803 927.928 252.711 927.928 260.83ZM907.179 262.075L863.086 260.645C863.072 260.353 863.019 260.075 862.953 259.81L904.357 244.565C906.199 249.651 907.206 255.121 907.206 260.83C907.193 261.241 907.179 261.665 907.179 262.075ZM811.294 259.598L855.388 261.029C855.401 261.32 855.454 261.598 855.52 261.863L814.116 277.109C812.275 272.023 811.268 266.552 811.268 260.844C811.281 260.42 811.281 260.009 811.294 259.598ZM862.251 258.446L894.42 228.299C898.594 232.802 901.906 238.114 904.119 243.969L862.715 259.201C862.595 258.936 862.436 258.671 862.251 258.446ZM861.814 257.969C861.562 257.744 861.284 257.545 860.979 257.4L877.739 216.603C883.914 219.199 889.439 223.04 893.983 227.835L861.814 257.969ZM860.396 257.161C860.171 257.082 859.919 257.042 859.681 257.002L861.112 212.921C866.769 213.146 872.161 214.338 877.156 216.351L860.396 257.161ZM859.045 256.989C858.78 257.002 858.515 257.042 858.263 257.108L843.596 215.517C848.498 213.822 853.758 212.894 859.243 212.894C859.654 212.894 860.065 212.894 860.489 212.908L859.045 256.989ZM857.653 257.32C857.362 257.453 857.084 257.625 856.832 257.81L826.677 225.65C831.354 221.332 836.879 217.928 842.973 215.716L857.653 257.32ZM856.381 258.247C856.196 258.459 856.024 258.684 855.891 258.936L815.839 240.458C818.396 235.041 821.933 230.167 826.239 226.087L856.381 258.247ZM855.613 259.506C855.507 259.784 855.441 260.075 855.401 260.38L811.307 258.949C811.559 252.578 813.043 246.525 815.547 241.015L855.613 259.506ZM855.746 262.459C855.852 262.685 855.971 262.897 856.116 263.082L855.852 263.559L824.04 293.362C819.866 288.858 816.541 283.547 814.341 277.692L855.746 262.459ZM854.884 265.347L834.918 302.143C831.062 299.865 827.551 297.057 824.477 293.838L854.884 265.347ZM857.057 264.009C857.19 264.102 857.335 264.181 857.481 264.261L840.721 305.057C839.104 304.382 837.541 303.614 836.017 302.766L857.057 264.009ZM858.064 264.499C858.289 264.579 858.541 264.618 858.78 264.658L857.349 308.74C851.691 308.528 846.299 307.322 841.304 305.309L858.064 264.499ZM859.23 308.779C858.819 308.779 858.409 308.779 857.985 308.766L859.416 264.685C859.681 264.671 859.946 264.632 860.197 264.566L874.864 306.157C869.975 307.852 864.702 308.779 859.23 308.779ZM860.807 264.34C861.019 264.248 861.218 264.128 861.403 264.009L882.443 302.779C880.217 304.011 877.885 305.071 875.474 305.945L860.807 264.34ZM864.344 266.751L891.77 296.011C889.266 298.329 886.51 300.382 883.543 302.13L864.344 266.751ZM863.152 264.539L862.357 263.082C862.436 262.963 862.516 262.844 862.582 262.724L902.635 281.202C900.078 286.62 896.54 291.494 892.234 295.574L863.152 264.539ZM862.847 262.155C862.953 261.877 863.019 261.585 863.059 261.281L907.153 262.711C906.901 269.082 905.417 275.136 902.913 280.646L862.847 262.155ZM840.363 305.945L832.838 324.264C830.545 323.31 828.306 322.224 826.12 321.018L835.567 303.6C837.117 304.475 838.707 305.256 840.363 305.945ZM840.946 306.183C846.034 308.25 851.559 309.468 857.322 309.693L856.673 329.456C848.578 329.164 840.734 327.469 833.407 324.502L840.946 306.183ZM857.958 309.72C858.382 309.733 858.806 309.733 859.23 309.733C864.821 309.733 870.187 308.793 875.182 307.058L881.767 325.734C874.613 328.211 867.021 329.496 859.217 329.496C858.581 329.496 857.945 329.482 857.309 329.469L857.958 309.72ZM875.792 306.846C878.256 305.958 880.641 304.872 882.907 303.614L892.353 321.032C889.147 322.793 885.821 324.303 882.377 325.522L875.792 306.846ZM923.622 236.789L905.033 243.637C902.781 237.664 899.389 232.246 895.136 227.65L909.591 214.113C915.778 220.775 920.508 228.471 923.622 236.789ZM907.802 212.272C908.253 212.722 908.703 213.186 909.14 213.649L894.685 227.186C890.048 222.299 884.404 218.378 878.097 215.729L885.623 197.41C893.824 200.801 901.35 205.821 907.802 212.272ZM885.04 197.158L877.514 215.477C872.426 213.411 866.901 212.192 861.138 211.967L861.774 192.205C869.869 192.496 877.726 194.191 885.04 197.158ZM859.23 192.165C859.866 192.165 860.502 192.178 861.138 192.191L860.502 211.954C860.078 211.941 859.654 211.941 859.23 211.941C853.639 211.941 848.273 212.881 843.265 214.616L836.68 195.94C843.848 193.45 851.44 192.165 859.23 192.165ZM836.084 196.139L842.669 214.815C836.441 217.067 830.797 220.537 826.027 224.948L812.487 210.497C819.403 204.086 827.419 199.238 836.084 196.139ZM810.658 212.272C811.109 211.821 811.572 211.371 812.036 210.934L825.577 225.385C821.191 229.544 817.574 234.524 814.964 240.048L796.972 231.743C800.31 224.603 804.921 218.02 810.658 212.272ZM796.707 232.326L814.699 240.631C812.142 246.247 810.618 252.433 810.367 258.923L790.599 258.274C790.917 249.187 793.01 240.405 796.707 232.326ZM790.546 260.83C790.546 260.194 790.559 259.559 790.572 258.923L810.34 259.559C810.327 259.983 810.327 260.406 810.327 260.83C810.327 266.658 811.347 272.248 813.229 277.427L794.64 284.275C791.95 276.857 790.546 268.95 790.546 260.83ZM794.852 284.871L813.441 278.023C815.693 283.997 819.085 289.414 823.338 294.011L808.883 307.548C802.695 300.885 797.952 293.189 794.852 284.871ZM810.658 309.389C810.208 308.938 809.757 308.475 809.32 308.011L823.775 294.474C826.915 297.772 830.506 300.647 834.454 302.965L824.994 320.383C819.827 317.416 815.004 313.733 810.658 309.389ZM927.477 385.737H790.996L825.206 322.701C827.445 323.932 829.75 325.045 832.109 326.025L829.697 331.893C829.154 331.721 828.571 331.628 827.962 331.628C824.795 331.628 822.238 334.198 822.238 337.35C822.238 340.516 824.808 343.072 827.962 343.072C831.128 343.072 833.685 340.503 833.685 337.35C833.685 335.019 832.294 333.006 830.28 332.118L832.692 326.264C840.231 329.31 848.299 331.059 856.62 331.35L856.421 337.35C853.321 337.417 850.83 339.96 850.83 343.072C850.83 346.238 853.4 348.795 856.554 348.795C859.707 348.795 862.277 346.225 862.277 343.072C862.277 340.079 859.985 337.628 857.057 337.364L857.256 331.35C857.918 331.363 858.568 331.377 859.23 331.377C867.246 331.377 875.05 330.052 882.403 327.496L884.457 333.337C882.509 334.251 881.158 336.224 881.158 338.529C881.158 341.695 883.728 344.251 886.881 344.251C890.048 344.251 892.605 341.682 892.605 338.529C892.605 335.377 890.035 332.807 886.881 332.807C886.232 332.807 885.623 332.913 885.04 333.112L882.986 327.297C886.524 326.039 889.942 324.489 893.241 322.674L927.477 385.737ZM893.466 320.396L884.006 302.978C887.04 301.19 889.863 299.084 892.433 296.713L905.974 311.164C902.118 314.74 897.918 317.826 893.466 320.396ZM907.802 309.389C907.352 309.839 906.888 310.289 906.424 310.727L892.883 296.276C897.269 292.116 900.886 287.136 903.496 281.613L921.489 289.918C918.15 297.057 913.552 303.64 907.802 309.389ZM921.767 289.335L903.774 281.03C906.331 275.414 907.855 269.228 908.107 262.738L927.875 263.387C927.544 272.473 925.45 281.255 921.767 289.335Z" fill="#38346B"/>
<path d="M1029.68 305.945H956.057V413.791H1029.68V305.945Z" fill="#38346B"/>
<path d="M1092.52 347.867H1018.9V413.168H1092.52V347.867Z" fill="#38346B"/>
<path d="M774.687 338.278H733.389V393.088H774.687V338.278Z" fill="#38346B"/>
<path d="M1044.93 203.384H992.863V413.791H1044.93V203.384Z" fill="#38346B"/>
<path d="M1130.68 413.791H1062V290.924H1114.07L1130.68 413.791Z" fill="#38346B"/>
<path d="M1160.76 385.737H1100.61V413.778H1160.76V385.737Z" fill="#38346B"/>
<path d="M1033.27 159.422H1031.47V216.603H1033.27V159.422Z" fill="#38346B"/>
<path d="M1039.33 171.7H1037.53V228.882H1039.33V171.7Z" fill="#38346B"/>
<path d="M1027.77 179.595H1025.97V236.776H1027.77V179.595Z" fill="#38346B"/>
<path d="M1089.26 281.003H1064.69V300.355H1089.26V281.003Z" fill="#38346B"/>
<path d="M1086.58 274.102H1067.39V284.977H1086.58V274.102Z" fill="#38346B"/>
<path d="M1103.75 286.673H1099.03V294.488H1103.75V286.673Z" fill="#38346B"/>
<path d="M1112.15 279.533H1105.42V294.474H1112.15V279.533Z" fill="#38346B"/>
<path d="M795.607 250.843H733.176V452.018H795.607V250.843Z" fill="#1A1466"/>
<path d="M800.27 252.035H728.512V254.075H800.27V252.035Z" fill="#1A1466"/>
<path d="M798.323 280.302H730.447V282.328H798.323V280.302Z" fill="#1A1466"/>
<path d="M798.323 307.667H730.447V309.693H798.323V307.667Z" fill="#1A1466"/>
<path d="M798.323 335.032H730.447V337.059H798.323V335.032Z" fill="#1A1466"/>
<path d="M798.323 362.398H730.447V364.425H798.323V362.398Z" fill="#1A1466"/>
<path d="M798.323 389.763H730.447V391.79H798.323V389.763Z" fill="#1A1466"/>
<path d="M798.323 417.129H730.447V419.155H798.323V417.129Z" fill="#1A1466"/>
<path d="M802.642 246.485H726.141V252.049H802.642V246.485Z" fill="#1A1466"/>
<path opacity="0.29" d="M745.285 260.685H738.793V276.752H745.285V260.685Z" fill="#1A1466"/>
<path d="M759.793 260.685H753.301V276.752H759.793V260.685Z" fill="#1A1466"/>
<path d="M774.303 260.685H767.811V276.752H774.303V260.685Z" fill="#1A1466"/>
<path d="M788.81 260.685H782.318V276.752H788.81V260.685Z" fill="#1A1466"/>
<path d="M745.285 286.964H738.793V303.031H745.285V286.964Z" fill="#1A1466"/>
<path opacity="0.29" d="M759.793 286.964H753.301V303.031H759.793V286.964Z" fill="#1A1466"/>
<path d="M774.303 286.964H767.811V303.031H774.303V286.964Z" fill="#1A1466"/>
<path d="M788.81 286.964H782.318V303.031H788.81V286.964Z" fill="#1A1466"/>
<path d="M745.285 314.329H738.793V330.396H745.285V314.329Z" fill="#1A1466"/>
<path d="M759.793 314.329H753.301V330.396H759.793V314.329Z" fill="#1A1466"/>
<path d="M774.303 314.329H767.811V330.396H774.303V314.329Z" fill="#1A1466"/>
<path opacity="0.29" d="M788.81 314.329H782.318V330.396H788.81V314.329Z" fill="#1A1466"/>
<path d="M745.285 341.695H738.793V357.762H745.285V341.695Z" fill="#1A1466"/>
<path opacity="0.29" d="M759.793 341.695H753.301V357.762H759.793V341.695Z" fill="#1A1466"/>
<path opacity="0.29" d="M774.303 341.695H767.811V357.762H774.303V341.695Z" fill="#1A1466"/>
<path d="M788.81 341.695H782.318V357.762H788.81V341.695Z" fill="#1A1466"/>
<path opacity="0.29" d="M745.285 369.06H738.793V385.127H745.285V369.06Z" fill="#1A1466"/>
<path d="M759.793 369.06H753.301V385.127H759.793V369.06Z" fill="#1A1466"/>
<path d="M774.303 369.06H767.811V385.127H774.303V369.06Z" fill="#1A1466"/>
<path d="M788.81 369.06H782.318V385.127H788.81V369.06Z" fill="#1A1466"/>
<path d="M745.285 396.426H738.793V412.493H745.285V396.426Z" fill="#1A1466"/>
<path d="M759.793 396.426H753.301V412.493H759.793V396.426Z" fill="#1A1466"/>
<path opacity="0.29" d="M774.303 396.426H767.811V412.493H774.303V396.426Z" fill="#1A1466"/>
<path d="M788.81 396.426H782.318V412.493H788.81V396.426Z" fill="#1A1466"/>
<path d="M745.285 423.791H738.793V439.858H745.285V423.791Z" fill="#1A1466"/>
<path opacity="0.29" d="M759.793 423.791H753.301V439.858H759.793V423.791Z" fill="#1A1466"/>
<path d="M774.303 423.791H767.811V439.858H774.303V423.791Z" fill="#1A1466"/>
<path opacity="0.29" d="M788.81 423.791H782.318V439.858H788.81V423.791Z" fill="#1A1466"/>
<path d="M758.35 238.816H737.111V249.267H758.35V238.816Z" fill="#1A1466"/>
<path d="M759.793 238.511H735.68V240.3H759.793V238.511Z" fill="#1A1466"/>
<path d="M643.703 452.018H560.537V260.87L643.703 240.538V452.018Z" fill="#1A1466"/>
<path d="M564.181 257.519H556.881V452.031H564.181V257.519Z" fill="#1A1466"/>
<path d="M584.97 252.035H577.67V452.018H584.97V252.035Z" fill="#1A1466"/>
<path d="M605.757 246.34H598.457V452.018H605.757V246.34Z" fill="#1A1466"/>
<path d="M626.558 241.704H619.258V452.018H626.558V241.704Z" fill="#1A1466"/>
<path d="M647.347 236.763H640.047V452.018H647.347V236.763Z" fill="#1A1466"/>
<path opacity="0.29" d="M575.775 273.838H566.076V288.606H575.775V273.838Z" fill="#1A1466"/>
<path opacity="0.29" d="M596.575 273.838H586.877V288.606H596.575V273.838Z" fill="#1A1466"/>
<path d="M617.365 273.838H607.666V288.606H617.365V273.838Z" fill="#1A1466"/>
<path opacity="0.29" d="M638.152 273.838H628.453V288.606H638.152V273.838Z" fill="#1A1466"/>
<path d="M575.775 299.561H566.076V314.329H575.775V299.561Z" fill="#1A1466"/>
<path d="M596.575 299.561H586.877V314.329H596.575V299.561Z" fill="#1A1466"/>
<path opacity="0.29" d="M617.365 299.561H607.666V314.329H617.365V299.561Z" fill="#1A1466"/>
<path opacity="0.29" d="M638.152 299.561H628.453V314.329H638.152V299.561Z" fill="#1A1466"/>
<path opacity="0.29" d="M575.775 325.284H566.076V340.053H575.775V325.284Z" fill="#1A1466"/>
<path opacity="0.29" d="M596.575 325.284H586.877V340.053H596.575V325.284Z" fill="#1A1466"/>
<path opacity="0.29" d="M617.365 325.284H607.666V340.053H617.365V325.284Z" fill="#1A1466"/>
<path d="M638.152 325.284H628.453V340.053H638.152V325.284Z" fill="#1A1466"/>
<path opacity="0.29" d="M575.775 350.993H566.076V365.762H575.775V350.993Z" fill="#1A1466"/>
<path d="M596.575 350.993H586.877V365.762H596.575V350.993Z" fill="#1A1466"/>
<path opacity="0.29" d="M617.365 350.993H607.666V365.762H617.365V350.993Z" fill="#1A1466"/>
<path opacity="0.29" d="M638.152 350.993H628.453V365.762H638.152V350.993Z" fill="#1A1466"/>
<path opacity="0.29" d="M575.775 376.716H566.076V391.485H575.775V376.716Z" fill="#1A1466"/>
<path opacity="0.29" d="M596.575 376.716H586.877V391.485H596.575V376.716Z" fill="#1A1466"/>
<path d="M617.365 376.716H607.666V391.485H617.365V376.716Z" fill="#1A1466"/>
<path opacity="0.29" d="M638.152 376.716H628.453V391.485H638.152V376.716Z" fill="#1A1466"/>
<path d="M575.775 402.439H566.076V417.208H575.775V402.439Z" fill="#1A1466"/>
<path d="M596.575 402.439H586.877V417.208H596.575V402.439Z" fill="#1A1466"/>
<path opacity="0.29" d="M617.365 402.439H607.666V417.208H617.365V402.439Z" fill="#1A1466"/>
<path opacity="0.29" d="M638.152 402.439H628.453V417.208H638.152V402.439Z" fill="#1A1466"/>
<path opacity="0.29" d="M575.775 428.162H566.076V442.931H575.775V428.162Z" fill="#1A1466"/>
<path d="M596.575 428.162H586.877V442.931H596.575V428.162Z" fill="#1A1466"/>
<path opacity="0.29" d="M617.365 428.162H607.666V442.931H617.365V428.162Z" fill="#1A1466"/>
<path d="M638.152 428.162H628.453V442.931H638.152V428.162Z" fill="#1A1466"/>
<path d="M323.31 270.036V272.023H321.322V277.679H356.128V452.018H299.024V286.765V277.679V272.023H296.957V270.036H323.31Z" fill="#1A1466"/>
<path d="M469.502 349.232H420.586V452.031H469.502V349.232Z" fill="#1A1466"/>
<path d="M247.165 325.668H207.404V452.031H247.165V325.668Z" fill="#1A1466"/>
<path d="M282.607 351.987H239.282V452.018H282.607V351.987Z" fill="#1A1466"/>
<path d="M239.296 320.595H221.714V335.721H239.296V320.595Z" fill="#1A1466"/>
<path d="M288.451 350.344H242.264V354.04H288.451V350.344Z" fill="#1A1466"/>
<path d="M326.529 394.889H277.957V452.018H326.529V394.889Z" fill="#1A1466"/>
<path d="M160.475 348.424H120.966V452.018H160.475V348.424Z" fill="#1A1466"/>
<path d="M138.654 400.055H86.6768V452.018H138.654V400.055Z" fill="#1A1466"/>
<path d="M61.9542 391.552H29.4404V452.018H61.9542V391.552Z" fill="#1A1466"/>
<path d="M132.48 433.077H55.6338V452.018H132.48V433.077Z" fill="#1A1466"/>
<path d="M39.3902 426.957H0V452.018H39.3902V426.957Z" fill="#1A1466"/>
<path d="M221.701 413.791H160.476V452.018H221.701V413.791Z" fill="#1A1466"/>
<path d="M435.478 435.553H340.097V452.018H435.478V435.553Z" fill="#1A1466"/>
<path d="M604.579 435.553H509.197V452.018H604.579V435.553Z" fill="#1A1466"/>
<path d="M431.755 387.194H395.505L380.176 443.779H431.755V387.194Z" fill="#1A1466"/>
<path d="M449.523 304.859H448.516V367.63H449.523V304.859Z" fill="#1A1466"/>
<path d="M454.914 326.105H453.562V363.153H454.914V326.105Z" fill="#1A1466"/>
<path d="M464.679 332.661H446.342V350.993H464.679V332.661Z" fill="#1A1466"/>
<path d="M467.528 331.244H443.242V332.887H467.528V331.244Z" fill="#1A1466"/>
<path d="M519.864 398.996H460.6V452.018H519.864V398.996Z" fill="#1A1466"/>
<path d="M546.614 340.635H508.535V442.931H546.614V340.635Z" fill="#1A1466"/>
<path d="M718.06 359.868H657.232V452.018H718.06V359.868Z" fill="#1A1466"/>
<path d="M707.512 418.069H638.152V452.031H707.512V418.069Z" fill="#1A1466"/>
<path d="M759.794 439.872H714.693V452.031H759.794V439.872Z" fill="#1A1466"/>
<path d="M857.482 418.069H784.16V452.031H857.482V418.069Z" fill="#1A1466"/>
<path d="M813.358 452.015H904.605V329.161H813.358V452.015Z" fill="#1A1466"/>
<path d="M811.012 329.158H909.932V324.443H811.012V329.158Z" fill="#1A1466"/>
<path d="M860.478 336.568H900.57V311.653H860.478V336.568Z" fill="#1A1466"/>
<path d="M840.642 326.806H847.373V311.653H840.642V326.806Z" fill="#1A1466"/>
<path d="M826.496 326.806H833.902V311.653H826.496V326.806Z" fill="#1A1466"/>
<path d="M967.346 452.016H1039.57V272.59H967.346V452.016Z" fill="#1A1466"/>
<path d="M965.28 274.572H1041.61V269.499H965.28V274.572Z" fill="#1A1466"/>
<path d="M969.758 287.113H1037.13V263.006H969.758V287.113Z" fill="#1A1466"/>
<path d="M1005.29 279.487H1031.97V253.155H1005.29V279.487Z" fill="#1A1466"/>
<path d="M1016.54 260.565H1031.97V246.711H1020.9L1016.54 260.565Z" fill="#1A1466"/>
<path d="M1024.25 266.08H1025.75V235.191H1024.25V266.08Z" fill="#1A1466"/>
<path d="M1023.67 233.597C1023.67 234.485 1024.26 235.2 1025 235.2C1025.75 235.2 1026.34 234.485 1026.34 233.597C1026.34 232.71 1025.75 231.995 1025 231.995C1024.26 231.995 1023.67 232.71 1023.67 233.597Z" fill="#1A1466"/>
<path d="M1062 377.948H1029.67V452.018H1062V377.948Z" fill="#1A1466"/>
<path d="M974.459 341.827H937.6V452.018H974.459V341.827Z" fill="#1A1466"/>
<path d="M956.057 452.018H904.133V393.088L947.948 412.493L956.057 452.018Z" fill="#1A1466"/>
<path d="M1130.68 420.016H1051.38V452.018H1130.68V420.016Z" fill="#1A1466"/>
<path d="M1147.46 324.25H1101.39V452.018H1147.46V324.25Z" fill="#1A1466"/>
<path d="M1213 428.162H1136.68V452.018H1213V428.162Z" fill="#1A1466"/>
<path d="M1149.56 321.906H1099.03V326.092H1149.56V321.906Z" fill="#1A1466"/>
<path d="M1141.28 303.879H1140.28V329.628H1141.28V303.879Z" fill="#1A1466"/>
<path d="M1134.55 307.137H1133.54V327.787H1134.55V307.137Z" fill="#1A1466"/>
<path d="M1164.51 372.385H1143.97V430.918H1173.27L1164.51 372.385Z" fill="#1A1466"/>
<g opacity="0.52">
<path opacity="0.52" d="M214.519 332.065H211.512V335.072H214.519V332.065Z" fill="white"/>
<path opacity="0.52" d="M220.561 332.065H217.554V335.072H220.561V332.065Z" fill="white"/>
<path opacity="0.52" d="M214.519 339.125H211.512V342.132H214.519V339.125Z" fill="white"/>
<path opacity="0.52" d="M220.561 339.125H217.554V342.132H220.561V339.125Z" fill="white"/>
<path opacity="0.52" d="M214.519 345.96H211.512V348.967H214.519V345.96Z" fill="white"/>
<path opacity="0.52" d="M227.278 332.065H224.271V335.072H227.278V332.065Z" fill="white"/>
</g>
<path opacity="0.5" d="M433.81 241.704H431.756V253.055H433.81V241.704Z" fill="white"/>
<path opacity="0.5" d="M440.884 241.704H438.83V253.055H440.884V241.704Z" fill="white"/>
<path opacity="0.5" d="M447.96 241.704H445.906V253.055H447.96V241.704Z" fill="white"/>
<path opacity="0.5" d="M455.034 241.704H452.98V253.055H455.034V241.704Z" fill="white"/>
<path opacity="0.5" d="M462.108 241.704H460.055V253.055H462.108V241.704Z" fill="white"/>
<path opacity="0.5" d="M469.185 241.704H467.131V253.055H469.185V241.704Z" fill="white"/>
<path opacity="0.5" d="M476.247 241.704H474.193V253.055H476.247V241.704Z" fill="white"/>
<path opacity="0.5" d="M483.321 241.704H481.268V253.055H483.321V241.704Z" fill="white"/>
<path opacity="0.5" d="M490.397 241.704H488.344V253.055H490.397V241.704Z" fill="white"/>
<path opacity="0.5" d="M497.472 241.704H495.418V253.055H497.472V241.704Z" fill="white"/>
<path opacity="0.5" d="M504.548 241.704H502.494V253.055H504.548V241.704Z" fill="white"/>
<path opacity="0.5" d="M433.81 257.519H431.756V268.871H433.81V257.519Z" fill="white"/>
<path opacity="0.5" d="M440.884 257.519H438.83V268.871H440.884V257.519Z" fill="white"/>
<path opacity="0.5" d="M447.96 257.519H445.906V268.871H447.96V257.519Z" fill="white"/>
<path opacity="0.5" d="M455.034 257.519H452.98V268.871H455.034V257.519Z" fill="white"/>
<path opacity="0.5" d="M462.108 257.519H460.055V268.871H462.108V257.519Z" fill="white"/>
<path opacity="0.5" d="M469.185 257.519H467.131V268.871H469.185V257.519Z" fill="white"/>
<path opacity="0.5" d="M476.247 257.519H474.193V268.871H476.247V257.519Z" fill="white"/>
<path opacity="0.5" d="M483.321 257.519H481.268V268.871H483.321V257.519Z" fill="white"/>
<path opacity="0.5" d="M490.397 257.519H488.344V268.871H490.397V257.519Z" fill="white"/>
<path opacity="0.5" d="M497.472 257.519H495.418V268.871H497.472V257.519Z" fill="white"/>
<path opacity="0.5" d="M504.548 257.519H502.494V268.871H504.548V257.519Z" fill="white"/>
<path opacity="0.5" d="M433.81 273.321H431.756V284.673H433.81V273.321Z" fill="white"/>
<path opacity="0.5" d="M440.884 273.321H438.83V284.673H440.884V273.321Z" fill="white"/>
<path opacity="0.5" d="M447.96 273.321H445.906V284.673H447.96V273.321Z" fill="white"/>
<path opacity="0.5" d="M455.034 273.321H452.98V284.673H455.034V273.321Z" fill="white"/>
<path opacity="0.5" d="M462.108 273.321H460.055V284.673H462.108V273.321Z" fill="white"/>
<path opacity="0.5" d="M469.185 273.321H467.131V284.673H469.185V273.321Z" fill="white"/>
<path opacity="0.5" d="M476.247 273.321H474.193V284.673H476.247V273.321Z" fill="white"/>
<path opacity="0.5" d="M483.321 273.321H481.268V284.673H483.321V273.321Z" fill="white"/>
<path opacity="0.5" d="M490.397 273.321H488.344V284.673H490.397V273.321Z" fill="white"/>
<path opacity="0.5" d="M497.472 273.321H495.418V284.673H497.472V273.321Z" fill="white"/>
<path opacity="0.5" d="M504.548 273.321H502.494V284.673H504.548V273.321Z" fill="white"/>
<path opacity="0.5" d="M455.034 289.136H452.98V300.488H455.034V289.136Z" fill="white"/>
<path opacity="0.5" d="M462.108 289.136H460.055V300.488H462.108V289.136Z" fill="white"/>
<path opacity="0.5" d="M469.185 289.136H467.131V300.488H469.185V289.136Z" fill="white"/>
<path opacity="0.5" d="M476.247 289.136H474.193V300.488H476.247V289.136Z" fill="white"/>
<path opacity="0.5" d="M483.321 289.136H481.268V300.488H483.321V289.136Z" fill="white"/>
<path opacity="0.5" d="M490.397 289.136H488.344V300.488H490.397V289.136Z" fill="white"/>
<path opacity="0.5" d="M497.472 289.136H495.418V300.488H497.472V289.136Z" fill="white"/>
<path opacity="0.5" d="M504.548 289.136H502.494V300.488H504.548V289.136Z" fill="white"/>
<path opacity="0.5" d="M462.108 305.826H460.055V317.177H462.108V305.826Z" fill="white"/>
<path opacity="0.5" d="M469.185 305.826H467.131V317.177H469.185V305.826Z" fill="white"/>
<path opacity="0.5" d="M476.247 305.826H474.193V317.177H476.247V305.826Z" fill="white"/>
<path opacity="0.5" d="M483.321 305.826H481.268V317.177H483.321V305.826Z" fill="white"/>
<path opacity="0.5" d="M490.397 305.826H488.344V317.177H490.397V305.826Z" fill="white"/>
<path opacity="0.5" d="M497.472 305.826H495.418V317.177H497.472V305.826Z" fill="white"/>
<path opacity="0.5" d="M504.548 305.826H502.494V317.177H504.548V305.826Z" fill="white"/>
<path opacity="0.33" d="M573.351 269.89H568.502V282.182H573.351V269.89Z" fill="white"/>
<path opacity="0.33" d="M573.351 293.415H568.502V305.707H573.351V293.415Z" fill="white"/>
<path opacity="0.33" d="M573.351 316.926H568.502V329.218H573.351V316.926Z" fill="white"/>
<path opacity="0.33" d="M573.351 340.45H568.502V352.742H573.351V340.45Z" fill="white"/>
<path opacity="0.33" d="M573.351 362.623H568.502V374.915H573.351V362.623Z" fill="white"/>
<path opacity="0.33" d="M573.351 386.134H568.502V398.426H573.351V386.134Z" fill="white"/>
<path opacity="0.33" d="M594.152 269.89H589.303V282.182H594.152V269.89Z" fill="white"/>
<path opacity="0.33" d="M594.152 293.415H589.303V305.707H594.152V293.415Z" fill="white"/>
<path opacity="0.33" d="M594.152 316.926H589.303V329.218H594.152V316.926Z" fill="white"/>
<path opacity="0.33" d="M594.152 340.45H589.303V352.742H594.152V340.45Z" fill="white"/>
<path opacity="0.33" d="M594.152 362.623H589.303V374.915H594.152V362.623Z" fill="white"/>
<path opacity="0.33" d="M594.152 386.134H589.303V398.426H594.152V386.134Z" fill="white"/>
<path opacity="0.33" d="M614.939 269.89H610.09V282.182H614.939V269.89Z" fill="white"/>
<path opacity="0.33" d="M614.939 293.415H610.09V305.707H614.939V293.415Z" fill="white"/>
<path opacity="0.33" d="M614.939 316.926H610.09V329.218H614.939V316.926Z" fill="white"/>
<path opacity="0.33" d="M614.939 340.45H610.09V352.742H614.939V340.45Z" fill="white"/>
<path opacity="0.33" d="M614.939 362.623H610.09V374.915H614.939V362.623Z" fill="white"/>
<path opacity="0.33" d="M614.939 386.134H610.09V398.426H614.939V386.134Z" fill="white"/>
<path opacity="0.33" d="M635.728 269.89H630.879V282.182H635.728V269.89Z" fill="white"/>
<path opacity="0.33" d="M635.728 293.415H630.879V305.707H635.728V293.415Z" fill="white"/>
<path opacity="0.33" d="M635.728 316.926H630.879V329.218H635.728V316.926Z" fill="white"/>
<path opacity="0.33" d="M635.728 340.45H630.879V352.742H635.728V340.45Z" fill="white"/>
<path opacity="0.33" d="M635.728 362.623H630.879V374.915H635.728V362.623Z" fill="white"/>
<path opacity="0.33" d="M635.728 386.134H630.879V398.426H635.728V386.134Z" fill="white"/>
<path opacity="0.5" d="M494.438 98.4257H490.396V109.181H494.438V98.4257Z" fill="white"/>
<path opacity="0.5" d="M504.4 98.4257H500.359V109.181H504.4V98.4257Z" fill="white"/>
<path opacity="0.5" d="M514.352 98.4257H510.311V109.181H514.352V98.4257Z" fill="white"/>
<path opacity="0.5" d="M524.301 98.4257H520.26V109.181H524.301V98.4257Z" fill="white"/>
<path opacity="0.5" d="M494.438 116.347H490.396V127.103H494.438V116.347Z" fill="white"/>
<path opacity="0.5" d="M504.4 116.347H500.359V127.103H504.4V116.347Z" fill="white"/>
<path opacity="0.5" d="M514.352 116.347H510.311V127.103H514.352V116.347Z" fill="white"/>
<path opacity="0.5" d="M524.301 116.347H520.26V127.103H524.301V116.347Z" fill="white"/>
<path opacity="0.5" d="M494.438 134.268H490.396V145.024H494.438V134.268Z" fill="white"/>
<path opacity="0.5" d="M504.4 134.268H500.359V145.024H504.4V134.268Z" fill="white"/>
<path opacity="0.5" d="M535.604 98.4257H531.562V109.181H535.604V98.4257Z" fill="white"/>
<path opacity="0.4" d="M224.284 207.437H221.714V217.305H224.284V207.437Z" fill="white"/>
<path opacity="0.4" d="M233.334 207.437H230.764V217.305H233.334V207.437Z" fill="white"/>
<path opacity="0.4" d="M243.92 207.437H241.35V217.305H243.92V207.437Z" fill="white"/>
<path opacity="0.4" d="M252.982 207.437H250.412V217.305H252.982V207.437Z" fill="white"/>
<path opacity="0.4" d="M204.172 207.437H201.602V217.305H204.172V207.437Z" fill="white"/>
<path opacity="0.4" d="M213.222 207.437H210.651V217.305H213.222V207.437Z" fill="white"/>
<path opacity="0.4" d="M224.284 224.564H221.714V234.432H224.284V224.564Z" fill="white"/>
<path opacity="0.4" d="M233.334 224.564H230.764V234.432H233.334V224.564Z" fill="white"/>
<path opacity="0.4" d="M243.92 224.564H241.35V234.432H243.92V224.564Z" fill="white"/>
<path opacity="0.4" d="M252.982 224.564H250.412V234.432H252.982V224.564Z" fill="white"/>
<path opacity="0.4" d="M204.172 224.564H201.602V234.432H204.172V224.564Z" fill="white"/>
<path opacity="0.4" d="M213.222 224.564H210.651V234.432H213.222V224.564Z" fill="white"/>
<path opacity="0.4" d="M224.284 241.69H221.714V251.558H224.284V241.69Z" fill="white"/>
<path opacity="0.4" d="M233.334 241.69H230.764V251.558H233.334V241.69Z" fill="white"/>
<path opacity="0.4" d="M243.92 241.69H241.35V251.558H243.92V241.69Z" fill="white"/>
<path opacity="0.4" d="M252.982 241.69H250.412V251.558H252.982V241.69Z" fill="white"/>
<path opacity="0.4" d="M204.172 241.69H201.602V251.558H204.172V241.69Z" fill="white"/>
<path opacity="0.4" d="M213.222 241.69H210.651V251.558H213.222V241.69Z" fill="white"/>
<path opacity="0.5" d="M704.518 283.03H700.543V298.329H704.518V283.03Z" fill="white"/>
<path opacity="0.5" d="M716.682 283.03H712.707V298.329H716.682V283.03Z" fill="white"/>
<path opacity="0.5" d="M728.129 283.03H724.154V298.329H728.129V283.03Z" fill="white"/>
<path opacity="0.33" d="M977.493 286.209H974.473V294.805H977.493V286.209Z" fill="white"/>
<path opacity="0.33" d="M986.941 286.209H983.92V294.805H986.941V286.209Z" fill="white"/>
<path opacity="0.33" d="M977.493 286.209H974.473V294.805H977.493V286.209Z" fill="white"/>
<path opacity="0.33" d="M986.941 286.209H983.92V294.805H986.941V286.209Z" fill="white"/>
<path opacity="0.33" d="M995.884 286.209H992.863V294.805H995.884V286.209Z" fill="white"/>
<path opacity="0.33" d="M1005.34 286.209H1002.32V294.805H1005.34V286.209Z" fill="white"/>
<path opacity="0.33" d="M977.493 301.64H974.473V310.237H977.493V301.64Z" fill="white"/>
<path opacity="0.33" d="M986.941 301.64H983.92V310.237H986.941V301.64Z" fill="white"/>
<path opacity="0.33" d="M977.493 301.64H974.473V310.237H977.493V301.64Z" fill="white"/>
<path opacity="0.33" d="M986.941 301.64H983.92V310.237H986.941V301.64Z" fill="white"/>
<path opacity="0.33" d="M995.884 301.64H992.863V310.237H995.884V301.64Z" fill="white"/>
<path opacity="0.33" d="M1005.34 301.64H1002.32V310.237H1005.34V301.64Z" fill="white"/>
<path opacity="0.33" d="M977.493 318.065H974.473V326.661H977.493V318.065Z" fill="white"/>
<path opacity="0.33" d="M986.941 318.065H983.92V326.661H986.941V318.065Z" fill="white"/>
<path opacity="0.33" d="M977.493 318.065H974.473V326.661H977.493V318.065Z" fill="white"/>
<path opacity="0.33" d="M986.941 318.065H983.92V326.661H986.941V318.065Z" fill="white"/>
<path opacity="0.33" d="M995.884 318.065H992.863V326.661H995.884V318.065Z" fill="white"/>
<path opacity="0.33" d="M1005.34 318.065H1002.32V326.661H1005.34V318.065Z" fill="white"/>
<path opacity="0.33" d="M1015.68 286.209H1012.66V294.805H1015.68V286.209Z" fill="white"/>
<path opacity="0.33" d="M1015.68 301.64H1012.66V310.237H1015.68V301.64Z" fill="white"/>
<path opacity="0.33" d="M1025.14 286.209H1022.12V294.805H1025.14V286.209Z" fill="white"/>
<path opacity="0.33" d="M742.041 260.685H738.795V274.103H742.041V260.685Z" fill="white"/>
<path opacity="0.33" d="M758.178 260.685H754.932V274.103H758.178V260.685Z" fill="white"/>
<path opacity="0.33" d="M774.303 260.685H771.057V274.103H774.303V260.685Z" fill="white"/>
<path opacity="0.33" d="M790.428 260.685H787.182V274.103H790.428V260.685Z" fill="white"/>
<path opacity="0.33" d="M742.041 288.289H738.795V301.706H742.041V288.289Z" fill="white"/>
<path opacity="0.33" d="M758.178 288.289H754.932V301.706H758.178V288.289Z" fill="white"/>
<path opacity="0.33" d="M774.303 288.289H771.057V301.706H774.303V288.289Z" fill="white"/>
<path opacity="0.33" d="M790.428 288.289H787.182V301.706H790.428V288.289Z" fill="white"/>
<path opacity="0.33" d="M742.041 316.581H738.795V329.999H742.041V316.581Z" fill="white"/>
<path opacity="0.33" d="M758.178 316.581H754.932V329.999H758.178V316.581Z" fill="white"/>
<path opacity="0.33" d="M774.303 316.581H771.057V329.999H774.303V316.581Z" fill="white"/>
<path opacity="0.33" d="M790.428 316.581H787.182V329.999H790.428V316.581Z" fill="white"/>
<path opacity="0.33" d="M742.041 344.874H738.795V358.292H742.041V344.874Z" fill="white"/>
<path opacity="0.33" d="M758.178 344.874H754.932V358.292H758.178V344.874Z" fill="white"/>
<path opacity="0.33" d="M774.303 344.874H771.057V358.292H774.303V344.874Z" fill="white"/>
<path opacity="0.33" d="M790.428 344.874H787.182V358.292H790.428V344.874Z" fill="white"/>
<path opacity="0.33" d="M742.041 370.57H738.795V383.988H742.041V370.57Z" fill="white"/>
<path opacity="0.33" d="M758.178 370.57H754.932V383.988H758.178V370.57Z" fill="white"/>
<path opacity="0.33" d="M774.303 370.57H771.057V383.988H774.303V370.57Z" fill="white"/>
<path opacity="0.33" d="M742.041 399.234H738.795V412.652H742.041V399.234Z" fill="white"/>
<path opacity="0.33" d="M758.178 399.234H754.932V412.652H758.178V399.234Z" fill="white"/>
<path opacity="0.33" d="M774.303 399.234H771.057V412.652H774.303V399.234Z" fill="white"/>
<path opacity="0.33" d="M790.428 370.57H787.182V383.988H790.428V370.57Z" fill="white"/>
<path opacity="0.33" d="M1108.78 331.589H1105.47V339.284H1108.78V331.589Z" fill="white"/>
<path opacity="0.33" d="M1108.78 344.026H1105.47V351.722H1108.78V344.026Z" fill="white"/>
<path opacity="0.33" d="M1117.29 331.589H1113.97V339.284H1117.29V331.589Z" fill="white"/>
</g>
<path d="M1039.12 137.673C1040.78 136.777 1041.82 135.16 1041.82 133.067C1041.82 129.809 1039.21 127.631 1034.13 127.626V123.954H1030.51V127.626H1028.52H1027.76V123.954H1024.14V127.626H1020.87V131.318H1024.15V144.862H1020.87V148.554H1024.14V152.174H1027.76V148.554H1028.52H1030.51V152.174H1034.13V148.554H1034.69C1040.04 148.554 1042.84 146.46 1042.84 142.84C1042.84 140.214 1041.38 138.422 1039.12 137.673ZM1027.63 131.318H1028.52V131.271H1033.52C1035.83 131.271 1037.07 132.077 1037.07 133.722C1037.07 135.367 1035.83 136.207 1033.52 136.207H1027.63V131.318ZM1034.34 144.909H1028.52V144.867H1027.63V139.738H1034.34C1036.79 139.738 1038.1 140.577 1038.1 142.34C1038.09 144.131 1036.79 144.909 1034.34 144.909Z" fill="#8A86B2"/>
<path d="M1016.27 152.386L1014.93 153.721C1014.94 153.725 1014.94 153.725 1014.94 153.73L1016.28 152.396C1016.27 152.391 1016.27 152.391 1016.27 152.386Z" fill="#8A86B2"/>
<path d="M1050.46 158.798L1049.55 157.883L1050.46 158.798Z" fill="#8A86B2"/>
<path d="M1048.54 156.87L1049.55 157.883L1048.54 156.87Z" fill="#8A86B2"/>
<path d="M1048.13 159.123L1046.78 157.78C1042.58 161.122 1037.27 163.126 1031.5 163.126C1025.73 163.126 1020.42 161.122 1016.22 157.784L1014.88 159.128C1019.42 162.805 1025.2 165.011 1031.5 165.011C1037.79 165.011 1043.58 162.805 1048.13 159.123Z" fill="#8A86B2"/>
<path d="M1013.72 152.269L1015.06 150.925C1012.46 147.479 1010.91 143.189 1010.91 138.545C1010.91 127.192 1020.15 117.952 1031.5 117.952C1036.15 117.952 1040.43 119.499 1043.88 122.101L1045.23 120.757C1041.43 117.82 1036.67 116.066 1031.51 116.066C1019.11 116.066 1009.03 126.151 1009.03 138.545C1009.02 143.712 1010.78 148.473 1013.72 152.269Z" fill="#8A86B2"/>
<path d="M1031.5 108C1023.43 108 1016.09 111.159 1010.62 116.293C1010.16 116.722 1009.72 117.17 1009.29 117.627L1010.62 118.961L1012.14 120.474C1007.72 125.208 1005.01 131.553 1005.01 138.526C1005.01 146.163 1008.26 153.051 1013.45 157.888L1014.78 156.554C1014.78 156.554 1014.78 156.554 1014.78 156.549L1016.27 155.059C1020.27 158.76 1025.62 161.023 1031.49 161.023C1043.89 161.023 1053.97 150.939 1053.97 138.545C1053.97 132.675 1051.71 127.324 1048.01 123.317C1048.01 123.312 1048 123.312 1048 123.308L1048 123.303L1049.51 121.79L1050.85 120.456C1050.42 119.998 1049.98 119.56 1049.53 119.135C1044.79 114.732 1038.46 112.031 1031.5 112.031C1024.54 112.031 1018.2 114.732 1013.47 119.135L1011.96 117.622C1017.08 112.828 1023.95 109.881 1031.5 109.881C1047.28 109.881 1060.11 122.718 1060.11 138.493C1060.11 146.045 1057.16 152.914 1052.37 158.034L1050.88 156.544C1055.28 151.811 1057.98 145.475 1057.98 138.517C1057.98 132.218 1055.77 126.429 1052.09 121.879L1050.74 123.223C1054.09 127.428 1056.1 132.741 1056.1 138.521C1056.1 145.635 1053.06 152.052 1048.22 156.549L1051.04 159.373C1045.92 164.168 1039.05 167.114 1031.5 167.114C1015.72 167.114 1002.89 154.277 1002.89 138.502C1002.89 131.629 1005.32 125.316 1009.38 120.38L1008.04 119.041C1003.64 124.321 1001 131.11 1001 138.502C1001 155.319 1014.68 169 1031.5 169C1039.57 169 1046.91 165.841 1052.37 160.707C1052.83 160.278 1053.27 159.83 1053.71 159.373C1058.84 153.914 1062 146.569 1062 138.498C1062 121.681 1048.32 108 1031.5 108ZM1031.5 113.921C1037.94 113.921 1043.8 116.411 1048.19 120.474L1046.68 121.988L1045.34 123.322C1045.81 123.746 1046.25 124.189 1046.68 124.656C1050.03 128.319 1052.09 133.199 1052.09 138.549C1052.09 149.902 1042.85 159.142 1031.5 159.142C1026.15 159.142 1021.27 157.091 1017.6 153.73C1017.14 153.306 1016.69 152.863 1016.27 152.396L1014.94 153.73L1013.45 155.22C1009.38 150.831 1006.89 144.966 1006.89 138.526C1006.9 124.958 1017.93 113.921 1031.5 113.921Z" fill="#8A86B2"/>
<path d="M643.231 90.1337L642.499 94.3797H651.976C654.401 94.3797 656.257 96.5507 655.884 98.9571L655.492 101.493C655.052 104.346 652.607 106.45 649.737 106.45H640.437L639.705 110.696H650.043C655.416 110.696 659.984 106.767 660.812 101.436L661.218 98.8034C661.926 94.2452 658.415 90.1289 653.818 90.1289H643.231V90.1337Z" fill="#8A86B2"/>
<path d="M636.298 100.705L635.992 102.487H645.507C646.947 102.487 648.177 101.45 648.421 100.023L648.727 98.2415H639.212C637.772 98.2463 636.542 99.2837 636.298 100.705Z" fill="#8A86B2"/>
<path d="M649.501 127.622C663.346 127.622 674.737 116.907 675.894 103.299C676.684 103.025 677.253 102.281 677.253 101.397C677.253 100.533 676.712 99.8026 675.952 99.5144C675.172 85.5468 663.609 74.4227 649.501 74.4227C642.411 74.4227 635.963 77.2422 631.203 81.8148C630.959 81.7091 630.691 81.6515 630.409 81.6515C629.299 81.6515 628.395 82.5545 628.395 83.6736C628.395 84.0242 628.49 84.3508 628.653 84.6438C625.122 89.1636 623.008 94.8505 623.008 101.032C623.008 103.415 623.324 105.768 623.941 108.045C623.773 108.251 623.663 108.515 623.663 108.804C623.663 109.467 624.199 110.004 624.859 110.004C625.519 110.004 626.055 109.467 626.055 108.804C626.055 108.309 625.759 107.886 625.333 107.699C624.744 105.538 624.443 103.294 624.443 101.032C624.443 95.2108 626.428 89.8456 629.748 85.5756C629.959 85.6477 630.179 85.6957 630.409 85.6957C631.518 85.6957 632.423 84.7927 632.423 83.6736C632.423 83.371 632.351 83.0828 632.231 82.8234C636.728 78.5198 642.813 75.8685 649.501 75.8685C662.815 75.8685 673.737 86.349 674.512 99.524C673.761 99.817 673.225 100.547 673.225 101.402C673.225 102.238 673.732 102.958 674.454 103.266C673.32 116.095 662.566 126.186 649.496 126.186C645.339 126.186 641.22 125.144 637.589 123.17C637.57 122.526 637.044 122.008 636.398 122.008C635.738 122.008 635.202 122.545 635.202 123.208C635.202 123.871 635.738 124.409 636.398 124.409C636.594 124.409 636.776 124.356 636.939 124.275L636.862 124.414C640.718 126.508 645.086 127.622 649.501 127.622ZM630.409 84.7255C629.825 84.7255 629.351 84.25 629.351 83.664C629.351 83.078 629.825 82.6025 630.409 82.6025C630.992 82.6025 631.466 83.078 631.466 83.664C631.466 84.25 630.992 84.7255 630.409 84.7255ZM674.182 101.397C674.182 100.811 674.655 100.336 675.239 100.336C675.823 100.336 676.296 100.811 676.296 101.397C676.296 101.983 675.823 102.459 675.239 102.459C674.655 102.459 674.182 101.983 674.182 101.397Z" fill="#8A86B2"/>
<path d="M680 101.018C680 95.6142 678.589 90.5421 676.135 86.1328C676.202 85.9839 676.235 85.8206 676.235 85.6429C676.235 84.9705 675.69 84.4229 675.02 84.4229C674.35 84.4229 673.805 84.9705 673.805 85.6429C673.805 86.2961 674.321 86.8293 674.967 86.8581L674.924 86.9013C677.24 91.0897 678.565 95.8976 678.565 101.018C678.565 108.674 675.608 115.648 670.786 120.86C670.537 120.749 670.265 120.687 669.978 120.687C668.868 120.687 667.964 121.59 667.964 122.709C667.964 122.959 668.016 123.199 668.098 123.42C663.055 127.646 656.568 130.197 649.502 130.197C642.355 130.197 635.806 127.589 630.74 123.276C630.85 123.026 630.907 122.757 630.907 122.469C630.907 121.354 630.008 120.447 628.893 120.447C628.577 120.447 628.286 120.523 628.023 120.653C623.315 115.466 620.44 108.573 620.44 101.018C620.44 86.0752 631.687 73.7263 646.13 72.0404C646.479 72.6312 647.12 73.0346 647.857 73.0346C648.675 73.0346 649.373 72.5447 649.689 71.8435C654.047 71.8723 658.185 72.8665 661.888 74.6293C661.888 74.6341 661.888 74.6341 661.888 74.6389C661.888 75.3113 662.433 75.8589 663.103 75.8589C663.773 75.8589 664.318 75.3113 664.318 74.6389C664.318 73.9665 663.773 73.4189 663.103 73.4189C662.988 73.4189 662.878 73.4381 662.773 73.4717C658.831 71.5505 654.42 70.4506 649.761 70.4121C649.502 69.5956 648.751 69 647.852 69C646.876 69 646.063 69.7013 645.876 70.6283C630.764 72.4343 619 85.3739 619 101.023C619 108.986 622.047 116.253 627.032 121.705C626.937 121.94 626.879 122.2 626.879 122.473C626.879 123.588 627.779 124.496 628.893 124.496C629.19 124.496 629.472 124.428 629.726 124.308C635.055 128.876 641.958 131.643 649.498 131.643C656.932 131.643 663.754 128.953 669.05 124.5C669.327 124.644 669.638 124.736 669.973 124.736C671.083 124.736 671.987 123.833 671.987 122.714C671.987 122.416 671.92 122.132 671.8 121.878C676.881 116.402 680 109.073 680 101.018ZM647.852 69.9558C648.436 69.9558 648.909 70.4313 648.909 71.0173C648.909 71.6033 648.436 72.0788 647.852 72.0788C647.268 72.0788 646.795 71.6033 646.795 71.0173C646.795 70.4313 647.268 69.9558 647.852 69.9558ZM628.893 123.53C628.31 123.53 627.836 123.055 627.836 122.469C627.836 121.883 628.31 121.407 628.893 121.407C629.477 121.407 629.95 121.883 629.95 122.469C629.95 123.055 629.477 123.53 628.893 123.53ZM669.978 123.77C669.394 123.77 668.92 123.295 668.92 122.709C668.92 122.123 669.394 121.647 669.978 121.647C670.561 121.647 671.035 122.123 671.035 122.709C671.035 123.295 670.557 123.77 669.978 123.77Z" fill="#8A86B2"/>
<path d="M631.046 114.587C631.17 114.587 631.29 114.572 631.405 114.548C635.524 120.086 642.102 123.679 649.497 123.679C652.985 123.679 656.324 122.901 659.429 121.369C659.592 121.45 659.769 121.499 659.96 121.499C660.62 121.499 661.156 120.961 661.156 120.298C661.156 119.635 660.62 119.097 659.96 119.097C659.372 119.097 658.888 119.52 658.788 120.082C655.884 121.513 652.765 122.238 649.502 122.238C642.623 122.238 636.5 118.919 632.639 113.789C632.902 113.448 633.065 113.026 633.065 112.56C633.065 111.446 632.165 110.538 631.051 110.538C630.912 110.538 630.778 110.552 630.649 110.576C629.194 107.699 628.372 104.452 628.372 101.013C628.372 89.3126 637.853 79.7928 649.507 79.7928C653.712 79.7928 657.63 81.0368 660.926 83.1694C660.883 83.3327 660.855 83.5008 660.855 83.6737C660.855 84.788 661.754 85.6958 662.869 85.6958C663.223 85.6958 663.553 85.595 663.84 85.4317C668.016 89.3126 670.642 94.8554 670.642 101.008C670.642 103.972 670.045 106.83 668.872 109.519C668.303 109.611 667.863 110.101 667.863 110.701C667.863 111.364 668.399 111.902 669.059 111.902C669.719 111.902 670.255 111.364 670.255 110.701C670.255 110.523 670.212 110.35 670.145 110.201C671.427 107.3 672.078 104.212 672.078 101.013C672.078 94.4183 669.255 88.4768 664.763 84.3317C664.835 84.1252 664.878 83.9091 664.878 83.6785C664.878 82.5642 663.978 81.6564 662.864 81.6564C662.452 81.6564 662.07 81.7813 661.749 81.9926C658.219 79.6919 654.014 78.3518 649.502 78.3518C637.059 78.3518 626.932 88.5153 626.932 101.013C626.932 104.74 627.836 108.256 629.434 111.359C629.185 111.695 629.037 112.108 629.037 112.555C629.032 113.679 629.936 114.587 631.046 114.587ZM631.046 111.503C631.629 111.503 632.103 111.979 632.103 112.565C632.103 113.151 631.629 113.626 631.046 113.626C630.462 113.626 629.989 113.151 629.989 112.565C629.989 111.979 630.462 111.503 631.046 111.503ZM662.859 82.6266C663.443 82.6266 663.916 83.1021 663.916 83.6881C663.916 84.2741 663.443 84.7496 662.859 84.7496C662.275 84.7496 661.802 84.2741 661.802 83.6881C661.802 83.1021 662.275 82.6266 662.859 82.6266Z" fill="#8A86B2"/>
<path d="M359.502 134.085C373.347 134.085 384.738 123.65 385.895 110.4C386.685 110.133 387.254 109.408 387.254 108.548C387.254 107.706 386.713 106.995 385.953 106.714C385.173 93.1129 373.61 82.2805 359.502 82.2805C352.412 82.2805 345.964 85.026 341.204 89.4787C340.96 89.3758 340.692 89.3197 340.41 89.3197C339.3 89.3197 338.396 90.199 338.396 91.2888C338.396 91.6302 338.491 91.9483 338.654 92.2336C335.123 96.6348 333.009 102.173 333.009 108.192C333.009 110.512 333.325 112.804 333.942 115.021C333.774 115.222 333.664 115.479 333.664 115.76C333.664 116.405 334.2 116.929 334.86 116.929C335.52 116.929 336.056 116.405 336.056 115.76C336.056 115.278 335.76 114.867 335.334 114.684C334.745 112.579 334.444 110.395 334.444 108.192C334.444 102.523 336.429 97.299 339.749 93.141C339.96 93.2111 340.18 93.2579 340.41 93.2579C341.519 93.2579 342.424 92.3786 342.424 91.2888C342.424 90.9941 342.352 90.7135 342.232 90.4609C346.729 86.2702 352.814 83.6884 359.502 83.6884C372.816 83.6884 383.738 93.894 384.513 106.724C383.762 107.009 383.226 107.72 383.226 108.552C383.226 109.366 383.733 110.068 384.455 110.367C383.321 122.86 372.567 132.687 359.497 132.687C355.34 132.687 351.221 131.672 347.59 129.749C347.571 129.123 347.045 128.618 346.399 128.618C345.739 128.618 345.203 129.141 345.203 129.787C345.203 130.432 345.739 130.956 346.399 130.956C346.595 130.956 346.777 130.905 346.94 130.825L346.863 130.961C350.719 133 355.087 134.085 359.502 134.085ZM340.41 92.3131C339.826 92.3131 339.352 91.8501 339.352 91.2794C339.352 90.7088 339.826 90.2458 340.41 90.2458C340.993 90.2458 341.467 90.7088 341.467 91.2794C341.467 91.8501 340.993 92.3131 340.41 92.3131ZM384.183 108.548C384.183 107.977 384.656 107.514 385.24 107.514C385.823 107.514 386.297 107.977 386.297 108.548C386.297 109.118 385.823 109.581 385.24 109.581C384.656 109.581 384.183 109.118 384.183 108.548Z" fill="#8A86B2"/>
<path d="M390 108.178C390 102.916 388.589 97.9772 386.135 93.6836C386.202 93.5386 386.235 93.3795 386.235 93.2065C386.235 92.5517 385.69 92.0185 385.02 92.0185C384.35 92.0185 383.805 92.5517 383.805 93.2065C383.805 93.8426 384.321 94.3618 384.967 94.3898L384.924 94.4319C387.24 98.5104 388.565 103.192 388.565 108.178C388.565 115.634 385.608 122.425 380.786 127.5C380.537 127.392 380.265 127.331 379.978 127.331C378.868 127.331 377.964 128.211 377.964 129.3C377.964 129.544 378.016 129.777 378.098 129.993C373.055 134.109 366.568 136.592 359.502 136.592C352.355 136.592 345.806 134.052 340.74 129.852C340.85 129.609 340.907 129.347 340.907 129.067C340.907 127.981 340.008 127.097 338.893 127.097C338.577 127.097 338.286 127.172 338.023 127.299C333.315 122.247 330.44 115.535 330.44 108.178C330.44 93.6274 341.687 81.6024 356.13 79.9607C356.479 80.536 357.12 80.9288 357.857 80.9288C358.675 80.9288 359.373 80.4518 359.689 79.7689C364.047 79.797 368.185 80.7651 371.888 82.4817C371.888 82.4864 371.888 82.4864 371.888 82.491C371.888 83.1458 372.433 83.679 373.103 83.679C373.773 83.679 374.318 83.1458 374.318 82.491C374.318 81.8362 373.773 81.303 373.103 81.303C372.988 81.303 372.878 81.3217 372.773 81.3545C368.831 79.4836 364.42 78.4125 359.761 78.3751C359.502 77.58 358.751 77 357.852 77C356.876 77 356.063 77.6829 355.876 78.5856C340.764 80.3442 329 92.9446 329 108.183C329 115.938 332.047 123.014 337.032 128.323C336.937 128.552 336.879 128.805 336.879 129.071C336.879 130.156 337.779 131.04 338.893 131.04C339.19 131.04 339.472 130.975 339.726 130.858C345.055 135.306 351.958 138 359.498 138C366.932 138 373.754 135.381 379.05 131.045C379.327 131.185 379.638 131.274 379.973 131.274C381.083 131.274 381.987 130.395 381.987 129.305C381.987 129.015 381.92 128.739 381.8 128.491C386.881 123.159 390 116.022 390 108.178ZM357.852 77.9308C358.436 77.9308 358.909 78.3938 358.909 78.9644C358.909 79.535 358.436 79.9981 357.852 79.9981C357.268 79.9981 356.795 79.535 356.795 78.9644C356.795 78.3938 357.268 77.9308 357.852 77.9308ZM338.893 130.1C338.31 130.1 337.836 129.637 337.836 129.067C337.836 128.496 338.31 128.033 338.893 128.033C339.477 128.033 339.95 128.496 339.95 129.067C339.95 129.637 339.477 130.1 338.893 130.1ZM379.978 130.334C379.394 130.334 378.92 129.871 378.92 129.3C378.92 128.73 379.394 128.267 379.978 128.267C380.561 128.267 381.035 128.73 381.035 129.3C381.035 129.871 380.557 130.334 379.978 130.334Z" fill="#8A86B2"/>
<path d="M341.046 121.391C341.17 121.391 341.29 121.377 341.405 121.354C345.524 126.747 352.102 130.245 359.497 130.245C362.985 130.245 366.324 129.487 369.429 127.995C369.592 128.075 369.769 128.122 369.96 128.122C370.62 128.122 371.156 127.598 371.156 126.952C371.156 126.307 370.62 125.783 369.96 125.783C369.372 125.783 368.888 126.195 368.788 126.742C365.884 128.136 362.765 128.842 359.502 128.842C352.623 128.842 346.5 125.61 342.639 120.615C342.902 120.283 343.065 119.871 343.065 119.417C343.065 118.332 342.165 117.448 341.051 117.448C340.912 117.448 340.778 117.462 340.649 117.486C339.194 114.684 338.372 111.522 338.372 108.173C338.372 96.7798 347.853 87.5096 359.507 87.5096C363.712 87.5096 367.63 88.721 370.926 90.7977C370.883 90.9567 370.855 91.1204 370.855 91.2888C370.855 92.3739 371.754 93.2579 372.869 93.2579C373.223 93.2579 373.553 93.1597 373.84 93.0006C378.016 96.7798 380.642 102.177 380.642 108.169C380.642 111.055 380.044 113.838 378.872 116.457C378.303 116.546 377.863 117.023 377.863 117.607C377.863 118.253 378.399 118.777 379.059 118.777C379.719 118.777 380.255 118.253 380.255 117.607C380.255 117.434 380.212 117.266 380.145 117.121C381.427 114.296 382.078 111.288 382.078 108.173C382.078 101.752 379.255 95.966 374.763 91.9296C374.835 91.7284 374.878 91.518 374.878 91.2935C374.878 90.2083 373.978 89.3244 372.864 89.3244C372.452 89.3244 372.07 89.446 371.749 89.6518C368.219 87.4114 364.014 86.1064 359.502 86.1064C347.059 86.1064 336.932 96.0034 336.932 108.173C336.932 111.803 337.836 115.227 339.434 118.248C339.185 118.576 339.037 118.978 339.037 119.413C339.032 120.507 339.936 121.391 341.046 121.391ZM341.046 118.388C341.629 118.388 342.103 118.852 342.103 119.422C342.103 119.993 341.629 120.456 341.046 120.456C340.462 120.456 339.989 119.993 339.989 119.422C339.989 118.852 340.462 118.388 341.046 118.388ZM372.859 90.2692C373.443 90.2692 373.916 90.7322 373.916 91.3028C373.916 91.8734 373.443 92.3365 372.859 92.3365C372.275 92.3365 371.802 91.8734 371.802 91.3028C371.802 90.7322 372.275 90.2692 372.859 90.2692Z" fill="#8A86B2"/>
<path fill-rule="evenodd" clip-rule="evenodd" d="M358.429 96.4482C358.318 96.4871 358.22 96.5191 358.212 96.5195C358.203 96.5199 358.164 96.5944 358.123 96.685C358.072 96.801 358.049 97.0508 358.046 97.5285C358.044 97.9018 358.026 98.3858 358.007 98.6041C357.975 98.969 357.959 99.0117 357.815 99.133C357.728 99.2056 357.41 99.3546 357.108 99.4641C355.936 99.8888 355.267 100.273 354.584 100.914C353.579 101.856 353.096 103.023 353.096 104.507C353.096 105.871 353.503 106.792 354.534 107.762C355.414 108.59 356.373 109.116 358.455 109.913C360.234 110.594 360.679 110.824 361.178 111.32C361.739 111.879 361.868 112.584 361.527 113.245C361.083 114.108 359.671 114.568 358.075 114.369C356.92 114.226 355.879 113.936 354.739 113.441C354.158 113.19 354.062 113.168 353.901 113.249C353.743 113.329 353.622 113.609 353.302 114.643C352.914 115.896 352.867 116.136 352.962 116.351C353.179 116.839 354.642 117.384 356.672 117.734C357.068 117.803 357.447 117.882 357.514 117.91C357.73 118.003 357.761 118.15 357.793 119.237C357.836 120.737 357.775 120.684 359.466 120.684C361.174 120.684 361.098 120.756 361.134 119.118C361.152 118.323 361.179 117.943 361.223 117.87C361.336 117.685 361.602 117.54 362.12 117.382C363.765 116.881 365.018 115.887 365.733 114.517C366.81 112.453 366.37 110.085 364.6 108.422C363.813 107.683 362.936 107.211 360.755 106.357C359.222 105.756 358.617 105.444 358.159 105.017C357.409 104.32 357.508 103.364 358.386 102.811C358.859 102.513 359.256 102.435 360.275 102.442C361.508 102.449 362.344 102.614 363.518 103.081C363.842 103.21 364.185 103.316 364.28 103.316C364.616 103.316 364.71 103.126 365.228 101.419C365.529 100.425 365.531 100.303 365.251 100.054C364.96 99.7968 363.706 99.3798 362.701 99.2066C361.755 99.0436 361.531 98.9783 361.416 98.8333C361.321 98.7124 361.308 98.612 361.281 97.8077C361.248 96.8116 361.19 96.6061 360.906 96.4727C360.683 96.3675 358.716 96.3481 358.429 96.4482Z" fill="#8A86B2"/>
<path d="M192.5 104C175.684 104 162 117.679 162 134.5C162 151.316 175.684 165 192.5 165C209.316 165 223 151.316 223 134.5C223 117.679 209.321 104 192.5 104ZM194.395 105.506C208.908 106.441 220.549 118.077 221.494 132.586C221.542 133.306 220.966 133.92 220.247 133.92C219.59 133.92 219.048 133.411 219.005 132.759C218.146 119.487 207.498 108.844 194.222 107.995C193.57 107.952 193.061 107.41 193.061 106.753C193.056 106.034 193.67 105.463 194.395 105.506ZM171.315 134.5C171.315 122.816 180.821 113.31 192.505 113.31C204.189 113.31 213.695 122.816 213.695 134.5C213.695 146.184 204.189 155.69 192.505 155.69C180.816 155.69 171.315 146.184 171.315 134.5ZM175.176 150.793C174.658 151.311 173.809 151.278 173.339 150.721C169.626 146.342 167.382 140.682 167.382 134.505C167.382 128.404 169.569 122.806 173.199 118.451C173.67 117.89 174.523 117.852 175.041 118.37C175.497 118.826 175.531 119.55 175.118 120.044C171.847 123.967 169.876 129.013 169.876 134.51C169.876 140.078 171.9 145.177 175.248 149.119C175.66 149.604 175.631 150.333 175.176 150.793ZM209.618 149.278C213.048 145.311 215.129 140.145 215.129 134.5C215.129 128.927 213.1 123.819 209.743 119.871C209.326 119.377 209.354 118.648 209.81 118.188C210.328 117.67 211.177 117.703 211.647 118.26C215.369 122.643 217.623 128.313 217.623 134.5C217.623 140.764 215.316 146.496 211.508 150.904C211.033 151.455 210.189 151.484 209.676 150.971C209.22 150.505 209.191 149.772 209.618 149.278ZM208.721 115.334C209.278 115.804 209.311 116.658 208.793 117.171C208.338 117.626 207.604 117.66 207.11 117.243C203.162 113.895 198.064 111.871 192.5 111.871C186.855 111.871 181.689 113.952 177.722 117.382C177.228 117.809 176.49 117.78 176.029 117.319C175.516 116.806 175.545 115.962 176.096 115.487C180.5 111.679 186.231 109.372 192.5 109.372C198.678 109.377 204.342 111.621 208.721 115.334ZM190.27 105.53C190.994 105.472 191.617 106.048 191.617 106.777C191.617 107.425 191.119 107.967 190.471 108.019C177.344 109.017 166.859 119.598 166 132.764C165.957 133.416 165.415 133.924 164.758 133.924C164.034 133.924 163.463 133.311 163.511 132.591C164.451 118.192 175.919 106.628 190.27 105.53ZM190.274 163.465C176.015 162.381 164.609 150.966 163.535 136.711C163.482 135.987 164.053 135.363 164.782 135.363C165.434 135.363 165.976 135.862 166.024 136.51C167.007 149.551 177.439 159.988 190.476 160.976C191.123 161.024 191.622 161.566 191.622 162.218C191.617 162.947 190.999 163.523 190.274 163.465ZM176.264 153.647C175.708 153.177 175.674 152.328 176.192 151.81C176.648 151.354 177.382 151.321 177.876 151.743C181.823 155.1 186.931 157.129 192.505 157.129C198.001 157.129 203.042 155.158 206.971 151.887C207.465 151.474 208.189 151.508 208.645 151.964C209.163 152.482 209.129 153.335 208.563 153.805C204.208 157.436 198.611 159.623 192.51 159.623C186.313 159.623 180.643 157.374 176.264 153.647ZM194.39 163.489C193.67 163.537 193.056 162.962 193.056 162.242C193.056 161.585 193.565 161.043 194.217 161C207.397 160.156 217.988 149.652 218.981 136.51C219.029 135.862 219.571 135.363 220.223 135.363C220.952 135.363 221.528 135.982 221.47 136.711C220.381 151.081 208.803 162.559 194.39 163.489Z" fill="#8A86B2"/>
<path fill-rule="evenodd" clip-rule="evenodd" d="M193.561 123.843C193.525 123.85 193.321 123.878 193.107 123.907C190.646 124.233 188.47 126.03 187.666 128.4C187.189 129.805 187.195 131.227 187.683 132.644L187.847 133.119H186.342H184.836V134.81V136.501H187.104H189.371L189.371 136.871C189.369 137.867 188.894 138.892 188.098 139.621C187.741 139.948 187.506 140.105 187.093 140.29C186.162 140.708 185.905 140.84 185.527 141.087C185.302 141.236 184.977 141.477 184.805 141.623C184.508 141.877 183.584 142.834 183.584 142.888C183.584 142.902 184.149 143.423 184.841 144.045L186.097 145.177L186.425 144.822C187.1 144.093 187.485 143.798 188.035 143.584C188.896 143.251 189.906 143.271 190.72 143.638C190.869 143.705 191.212 143.914 191.482 144.103C192.543 144.843 193.551 145.242 194.761 145.398C197.089 145.699 199.44 144.776 200.915 142.982C201.183 142.656 201.81 141.787 201.81 141.741C201.81 141.725 201.242 141.325 200.547 140.852C199.852 140.379 199.222 139.947 199.146 139.892L199.009 139.792L198.68 140.258C198.075 141.115 197.712 141.453 197.081 141.748C196.547 141.997 196.261 142.057 195.612 142.057C194.745 142.056 194.166 141.855 193.388 141.283C193.162 141.118 192.723 140.856 192.413 140.701L191.848 140.421L192.076 139.975C192.526 139.096 192.774 138.146 192.813 137.145L192.839 136.501H195.1H197.361V134.81V133.119H194.626H191.891L191.802 133.024C191.753 132.972 191.612 132.778 191.49 132.592C190.904 131.708 190.682 130.919 190.793 130.108C190.946 128.981 191.616 128.052 192.632 127.56C193.121 127.323 193.425 127.245 193.973 127.215C195.316 127.14 196.559 127.858 197.154 129.049C197.348 129.438 197.382 129.484 197.464 129.459C197.637 129.407 198.765 129.055 199.702 128.761L200.639 128.468L200.556 128.233C200.045 126.779 198.835 125.408 197.361 124.612C196.712 124.261 195.839 123.987 195.042 123.883C194.636 123.83 193.751 123.806 193.561 123.843Z" fill="#8A86B2"/>
<path d="M537.571 33.0607L537.082 24.1916C537.566 24.0764 537.926 23.6431 537.926 23.1222C537.926 22.5137 537.433 22.0205 536.824 22.0205C536.806 22.0205 536.787 22.0251 536.769 22.0251L534.787 17.904C534.957 17.7703 535.068 17.5675 535.068 17.337C535.068 16.9406 534.745 16.6179 534.349 16.6179C534.252 16.6179 534.16 16.6364 534.077 16.6732L531.2 12.2479C531.449 12.0451 531.611 11.7409 531.611 11.3951C531.611 10.7867 531.117 10.2934 530.509 10.2934C530.219 10.2934 529.951 10.4087 529.758 10.5931L525.577 7.02055C525.641 6.91453 525.678 6.79007 525.678 6.65639C525.678 6.25996 525.355 5.93727 524.959 5.93727C524.724 5.93727 524.512 6.05252 524.383 6.22768L518.049 3.02856C518.095 2.93637 518.118 2.83035 518.118 2.72433C518.118 2.32789 517.795 2.00521 517.399 2.00521C517.044 2.00521 516.754 2.26336 516.689 2.59986L509.291 1.57651C509.291 0.705281 508.585 0 507.714 0C506.894 0 506.225 0.626913 506.151 1.429L500.246 2.55838C500.168 2.24492 499.887 2.00982 499.55 2.00982C499.154 2.00982 498.831 2.3325 498.831 2.72893C498.831 2.83957 498.859 2.94559 498.905 3.04239L492.562 6.2323C492.428 6.05713 492.225 5.94649 491.99 5.94649C491.594 5.94649 491.271 6.26917 491.271 6.6656C491.271 6.79928 491.313 6.92836 491.377 7.03438L487.187 10.5977C486.989 10.4133 486.731 10.3026 486.44 10.3026C485.832 10.3026 485.339 10.7959 485.339 11.4044C485.339 11.7547 485.505 12.0589 485.758 12.2618L482.877 16.6825C482.794 16.6456 482.702 16.6271 482.6 16.6271C482.204 16.6271 481.881 16.9498 481.881 17.3462C481.881 17.5767 481.992 17.7842 482.163 17.9132L480.18 22.0343C480.162 22.0343 480.144 22.0297 480.125 22.0297C479.517 22.0297 479.023 22.5229 479.023 23.1314C479.023 23.6569 479.392 24.0902 479.881 24.2009L479.392 32.9132C478.608 33.0054 478 33.6645 478 34.4712C478 35.3425 478.705 36.0478 479.577 36.0478C479.655 36.0478 479.729 36.0339 479.807 36.0247L482.393 44.1746C482.269 44.3498 482.199 44.5665 482.199 44.7969C482.199 45.4054 482.693 45.8987 483.301 45.8987C483.31 45.8987 483.32 45.894 483.333 45.894L486.491 50.1488C486.486 50.1903 486.477 50.2318 486.477 50.2732C486.477 50.6697 486.8 50.9924 487.196 50.9924C487.215 50.9924 487.229 50.9878 487.242 50.9878L494.47 56.3073C494.452 56.3903 494.438 56.4779 494.438 56.5701C494.438 57.1786 494.931 57.6718 495.54 57.6718C495.872 57.6718 496.167 57.5197 496.37 57.2892L502.975 59.4281C502.957 59.5249 502.943 59.6263 502.943 59.7277C502.943 60.5989 503.648 61.3042 504.52 61.3042C505.312 61.3042 505.962 60.7188 506.073 59.9536L511.337 59.9352C511.448 60.4238 511.886 60.788 512.407 60.788C513.015 60.788 513.508 60.2947 513.508 59.6862C513.508 59.6494 513.499 59.6171 513.499 59.5802L520.594 57.2938C520.796 57.5197 521.087 57.6672 521.414 57.6672C522.023 57.6672 522.516 57.174 522.516 56.5655C522.516 56.4733 522.502 56.3811 522.479 56.2935L529.564 51.103C529.624 51.1168 529.688 51.126 529.758 51.126C530.232 51.126 530.615 50.7434 530.615 50.2686C530.615 50.1718 530.597 50.0843 530.569 49.9967L533.639 45.8894C533.644 45.8894 533.653 45.8894 533.657 45.8894C534.266 45.8894 534.759 45.3962 534.759 44.7877C534.759 44.5526 534.681 44.3314 534.556 44.1516L537.105 36.1584C537.207 36.1814 537.313 36.1907 537.423 36.1907C538.295 36.1907 539 35.4854 539 34.6141C538.991 33.8075 538.368 33.139 537.571 33.0607ZM534.275 18.0515C534.289 18.0515 534.303 18.0561 534.317 18.0561L536.128 22.2786C536.027 22.3616 535.944 22.4584 535.879 22.569C534.994 22.3385 533.722 22.002 532.436 21.6655C533.201 20.1674 533.911 18.7614 534.275 18.0515ZM532.551 44.8338L529.029 45.2487L528.223 41.0723L532.625 44.3959C532.574 44.5204 532.546 44.654 532.546 44.7969C532.551 44.8062 532.551 44.82 532.551 44.8338ZM522.105 46.1568C522.105 46.332 522.152 46.4933 522.221 46.6408L517.27 49.8031C517.136 49.6279 516.929 49.5126 516.694 49.5126C516.297 49.5126 515.975 49.8353 515.975 50.2318C515.975 50.2548 515.979 50.2733 515.979 50.2963L508.972 51.5132C508.894 50.9831 508.442 50.5729 507.889 50.5729C507.336 50.5729 506.88 50.9831 506.806 51.5179L500.965 50.324C500.97 50.2963 500.975 50.264 500.975 50.2364C500.975 49.8399 500.652 49.5173 500.256 49.5173C500.02 49.5173 499.813 49.6325 499.679 49.8077L494.729 46.65C494.802 46.5025 494.844 46.3412 494.844 46.166C494.844 45.5575 494.351 45.0643 493.742 45.0643C493.548 45.0643 493.369 45.1196 493.207 45.2072L489.93 40.7865C490.036 40.6482 490.1 40.4777 490.1 40.2887C490.1 39.8323 489.732 39.4589 489.271 39.4589C489.266 39.4589 489.266 39.4589 489.266 39.4589L487.514 33.6876C487.777 33.5493 487.957 33.2773 487.957 32.9593C487.957 32.5859 487.708 32.2724 487.362 32.171L487.607 27.7319C488.1 27.6259 488.473 27.1833 488.473 26.6578C488.473 26.2706 488.27 25.9295 487.971 25.7359L489.34 21.2461C489.663 21.1769 489.907 20.8865 489.907 20.5408C489.907 20.444 489.888 20.3564 489.852 20.2688L494.544 14.7141C494.659 14.7556 494.784 14.7833 494.913 14.7833C495.521 14.7833 496.015 14.29 496.015 13.6816C496.015 13.6216 496.005 13.5663 495.996 13.511L504.888 9.73566C505.045 9.92927 505.285 10.0583 505.552 10.0583C505.916 10.0583 506.225 9.83246 506.35 9.51439H510.604C510.729 9.83246 511.038 10.0583 511.402 10.0583C511.674 10.0583 511.909 9.92927 512.066 9.73566L521.243 13.6308C521.243 13.6355 521.243 13.6401 521.243 13.6447C521.243 14.0411 521.566 14.3638 521.963 14.3638C522.009 14.3638 522.055 14.3592 522.101 14.35L526.678 19.7709C526.494 19.9692 526.379 20.2319 526.379 20.5223C526.379 21.1308 526.872 21.624 527.48 21.624C527.563 21.624 527.646 21.6102 527.725 21.5964L529.103 26.1185C528.923 26.2476 528.803 26.4596 528.803 26.6993C528.803 27.0312 529.025 27.3032 529.329 27.3908L529.592 32.1756C529.251 32.277 528.997 32.5905 528.997 32.9639C528.997 33.2819 529.177 33.5539 529.439 33.6922L527.688 39.4635C527.683 39.4635 527.683 39.4635 527.683 39.4635C527.227 39.4635 526.853 39.8323 526.853 40.2933C526.853 40.4823 526.918 40.6528 527.024 40.7911L523.747 45.2118C523.59 45.1242 523.405 45.0689 523.212 45.0689C522.599 45.0597 522.105 45.5529 522.105 46.1568ZM522.838 47.194L522.294 50.1672H517.547L522.516 47.0142C522.608 47.088 522.719 47.1479 522.838 47.194ZM516.302 50.8356L514.73 54.0762L508.922 52.0434C508.926 52.0295 508.931 52.0157 508.936 51.9973L516.182 50.7388C516.219 50.7757 516.26 50.808 516.302 50.8356ZM506.834 51.9973L502.104 53.8457L500.643 50.831C500.684 50.8034 500.721 50.7757 500.758 50.7388L506.834 51.9973ZM499.371 50.1626H494.646L494.102 47.1894C494.226 47.1479 494.337 47.0834 494.434 47.0004L499.371 50.1626ZM484.315 44.3913L488.718 41.0677L487.911 45.2441L484.389 44.8292C484.389 44.8154 484.394 44.8016 484.394 44.7923C484.394 44.654 484.366 44.5158 484.315 44.3913ZM481.208 23.0162C482.209 22.7534 483.481 22.4169 484.726 22.0896C485.426 23.4633 486.145 24.8647 486.643 25.8235C486.413 26.0263 486.265 26.3167 486.265 26.6486C486.265 26.8791 486.339 27.0957 486.459 27.2709L484.679 29.0687L480.996 23.7675C481.13 23.5832 481.213 23.3619 481.213 23.1176C481.218 23.0853 481.208 23.053 481.208 23.0162ZM487.053 25.6022C486.565 24.6664 485.873 23.3158 485.187 21.9698C486.597 21.601 487.915 21.2553 488.681 21.0571C488.736 21.1078 488.8 21.1539 488.874 21.1861L487.524 25.5699C487.473 25.5607 487.418 25.5515 487.362 25.5515C487.256 25.5515 487.155 25.5699 487.053 25.6022ZM487.141 27.7273L486.892 32.1618C486.874 32.1664 486.855 32.171 486.841 32.1756L484.956 29.4605L486.805 27.589C486.906 27.6535 487.017 27.7042 487.141 27.7273ZM486.463 32.4614C486.357 32.5997 486.293 32.7703 486.293 32.9593C486.293 32.9685 486.297 32.9777 486.297 32.9915L481.098 34.084C481.052 33.9089 480.982 33.7383 480.886 33.5954L484.624 29.8108L486.463 32.4614ZM481.144 34.545L486.45 33.4295C486.505 33.5032 486.569 33.5677 486.643 33.6231L485.265 37.7902L480.955 35.2088C481.061 35.0106 481.13 34.7893 481.144 34.545ZM487.063 33.8351L488.81 39.5926C488.727 39.6479 488.658 39.7171 488.598 39.7954L485.671 38.0391L487.063 33.8351ZM489.188 41.1046C489.215 41.1092 489.238 41.1138 489.266 41.1138C489.372 41.1138 489.469 41.0907 489.561 41.0585L492.852 45.5161C492.788 45.6082 492.737 45.7051 492.7 45.8157L488.376 45.3086L489.188 41.1046ZM488.192 16.0371L494.074 14.3868C494.092 14.4099 494.111 14.4329 494.134 14.456L489.529 19.9092C489.478 19.8816 489.423 19.8585 489.363 19.8401L488.192 16.0371ZM495.577 12.8011L497.587 8.03007L504.547 9.36227L495.826 13.0639C495.757 12.9624 495.674 12.8749 495.577 12.8011ZM512.397 9.36227L519.358 8.03007L521.488 13.0915C521.456 13.1192 521.423 13.1514 521.4 13.1837L512.397 9.36227ZM522.705 14.3407L528.748 16.0325L527.697 19.4298C527.623 19.416 527.55 19.4068 527.471 19.4068C527.319 19.4068 527.172 19.439 527.042 19.4944L522.705 14.3407ZM529.684 25.9894C529.638 25.9802 529.587 25.971 529.536 25.971L528.144 21.3797C528.246 21.3014 528.338 21.2046 528.407 21.0939C529.191 21.2968 530.431 21.6194 531.758 21.9698C530.965 23.514 530.168 25.0675 529.684 25.9894ZM529.868 27.317L531.989 29.4651L530.103 32.1802C530.085 32.1756 530.071 32.171 530.053 32.1664L529.79 27.3585C529.817 27.3493 529.841 27.3308 529.868 27.317ZM527.393 41.0585C527.48 41.0907 527.577 41.1138 527.679 41.1138C527.706 41.1138 527.734 41.1092 527.757 41.1046L528.568 45.304L524.244 45.8111C524.208 45.7004 524.152 45.5944 524.083 45.5022L527.393 41.0585ZM528.121 39.588L529.877 33.8351L531.27 38.0391L528.342 39.7954C528.282 39.7125 528.209 39.6433 528.121 39.588ZM530.302 33.6277C530.375 33.5723 530.44 33.5078 530.495 33.4341L535.838 34.5542C535.838 34.5773 535.833 34.6003 535.833 34.6234C535.833 34.84 535.879 35.0428 535.953 35.2318L531.68 37.7948L530.302 33.6277ZM535.93 34.0979L530.647 32.9869C530.647 32.9777 530.652 32.9685 530.652 32.9547C530.652 32.7657 530.587 32.5997 530.481 32.4568L532.325 29.8016L536.151 33.6784C536.059 33.8074 535.985 33.9457 535.93 34.0979ZM532.261 29.0733L530.182 26.9713C530.219 26.8837 530.237 26.7915 530.237 26.6901C530.237 26.5195 530.177 26.3674 530.076 26.243C530.569 25.3026 531.399 23.6846 532.215 22.0896C533.459 22.4169 534.731 22.7534 535.732 23.0162C535.727 23.053 535.723 23.0899 535.723 23.1268C535.723 23.3711 535.805 23.5924 535.939 23.7768L532.261 29.0733ZM531.97 21.5411C530.652 21.1953 529.38 20.8634 528.559 20.6514C528.564 20.6053 528.573 20.5592 528.573 20.5131C528.573 20.1535 528.398 19.8355 528.126 19.6327L529.2 16.1616L533.639 17.4062C533.657 17.5813 533.731 17.7381 533.851 17.8533C533.478 18.5816 532.749 20.0199 531.97 21.5411ZM530.514 12.4922C530.606 12.4922 530.698 12.4784 530.786 12.4554L533.703 16.9406L529.338 15.719L530.338 12.4784C530.398 12.4876 530.454 12.4922 530.514 12.4922ZM529.9 12.3079L528.886 15.59L522.723 13.8613L529.504 11.8377C529.596 12.0313 529.73 12.1926 529.9 12.3079ZM524.857 7.36628C524.89 7.37089 524.922 7.3755 524.959 7.3755C525.051 7.3755 525.139 7.35706 525.217 7.32479L529.495 10.9711C529.444 11.0955 529.412 11.2338 529.412 11.3813L522.636 13.4004C522.585 13.2575 522.493 13.133 522.373 13.0454L524.857 7.36628ZM524.443 7.15884L521.926 12.9163L519.833 7.94249L524.373 7.07587C524.392 7.10352 524.415 7.13119 524.443 7.15884ZM524.161 6.63334L519.644 7.49996L517.966 3.50797L524.161 6.63334ZM517.127 3.38812C517.21 3.42038 517.302 3.44344 517.399 3.44344C517.408 3.44344 517.422 3.43882 517.431 3.43882L519.178 7.58754L512.208 8.91974C512.185 8.84138 512.153 8.77223 512.107 8.70308C513.398 7.34323 516.067 4.51288 517.127 3.38812ZM509.217 2.02826L516.767 3.06544C516.772 3.07005 516.772 3.07466 516.777 3.07927C515.707 4.21325 513.02 7.06204 511.743 8.40806C511.637 8.36197 511.517 8.33432 511.393 8.33432C511.333 8.33432 511.273 8.33892 511.213 8.35275C510.471 6.93297 509.36 4.42991 508.659 2.82113C508.922 2.62291 509.115 2.34633 509.217 2.02826ZM507.714 3.14842C507.903 3.14842 508.083 3.11154 508.253 3.047C508.954 4.66039 510.056 7.13579 510.807 8.56941C510.678 8.68926 510.59 8.8506 510.554 9.03498H506.391C506.345 8.79067 506.197 8.58323 505.99 8.45877C506.419 6.95601 507.087 4.6189 507.511 3.12997C507.576 3.13919 507.64 3.14842 507.714 3.14842ZM500.191 3.03317L506.165 1.88997C506.267 2.38781 506.608 2.79347 507.055 3.0009C506.631 4.48983 505.962 6.83155 505.534 8.3297C505.414 8.3297 505.299 8.35736 505.197 8.40346C503.92 7.05282 501.233 4.20403 500.163 3.07466C500.177 3.06544 500.186 3.05161 500.191 3.03317ZM499.513 3.43882C499.523 3.43882 499.536 3.44344 499.546 3.44344C499.642 3.44344 499.735 3.42499 499.818 3.38812C500.878 4.51288 503.547 7.34323 504.842 8.7077C504.796 8.77223 504.764 8.84599 504.741 8.92435L497.771 7.59216L499.513 3.43882ZM498.979 3.50797L497.301 7.49996L492.783 6.63334L498.979 3.50797ZM492.576 7.07126L497.116 7.93788L495.157 12.5983C495.079 12.5798 494.996 12.5706 494.913 12.5706C494.899 12.5706 494.89 12.5752 494.876 12.5752L492.507 7.15884C492.53 7.13119 492.553 7.10353 492.576 7.07126ZM491.728 7.3294C491.806 7.36167 491.894 7.38011 491.986 7.38011C492.018 7.38011 492.05 7.3755 492.087 7.37089L494.415 12.6951C494.175 12.8149 493.982 13.0224 493.885 13.2759L487.533 11.3813C487.533 11.2384 487.501 11.1001 487.45 10.9711L491.728 7.3294ZM487.436 11.8423L493.816 13.7461C493.82 13.8244 493.834 13.8982 493.853 13.9674L488.058 15.59L487.044 12.3079C487.215 12.1926 487.348 12.0313 487.436 11.8423ZM486.159 12.4554C486.247 12.4784 486.334 12.4922 486.431 12.4922C486.491 12.4922 486.546 12.483 486.602 12.4738L487.602 15.7144L483.241 16.936L486.159 12.4554ZM483.306 17.4062L487.745 16.1616L488.893 19.8724C488.639 19.983 488.459 20.2365 488.459 20.5315C488.459 20.5638 488.464 20.5961 488.469 20.6283C487.653 20.8404 486.334 21.1861 484.974 21.5411C484.2 20.0199 483.467 18.5816 483.098 17.8487C483.214 17.7381 483.287 17.5813 483.306 17.4062ZM482.624 18.0561C482.637 18.0561 482.656 18.0515 482.67 18.0515C483.029 18.766 483.744 20.1674 484.509 21.6655C483.223 22.002 481.946 22.3385 481.065 22.569C481.001 22.4584 480.913 22.3616 480.817 22.2786L482.624 18.0561ZM480.328 24.2055C480.443 24.1824 480.549 24.1409 480.646 24.0856L484.348 29.4144L480.563 33.2451C480.36 33.0791 480.116 32.9639 479.848 32.9132L480.328 24.2055ZM483.31 43.6952C483.306 43.6952 483.297 43.6952 483.292 43.6952C483.103 43.6952 482.923 43.7459 482.766 43.8335L480.245 35.891C480.406 35.8127 480.554 35.7159 480.678 35.5914L485.113 38.2512L483.31 43.6952ZM485.523 38.4955L488.441 40.2426C488.441 40.2564 488.436 40.2702 488.436 40.2841C488.436 40.4085 488.469 40.5284 488.515 40.6344L484.053 44.0041C483.97 43.9211 483.873 43.8566 483.767 43.8059L485.523 38.4955ZM487.076 49.5634C486.947 49.5818 486.832 49.6371 486.74 49.7155L483.799 45.7696C484.002 45.6636 484.168 45.4976 484.269 45.2948L487.819 45.7097L487.076 49.5634ZM487.537 49.6417L488.289 45.7604L492.65 46.272C492.705 46.7929 493.12 47.2032 493.641 47.2493L494.171 50.1626H487.897C487.869 49.9367 487.731 49.7477 487.537 49.6417ZM494.678 55.8786L487.713 50.7665C487.749 50.725 487.782 50.6789 487.814 50.6328H494.258L495.153 55.5375C494.964 55.6067 494.802 55.7265 494.678 55.8786ZM495.618 55.473L494.733 50.6328H499.647C499.666 50.6559 499.684 50.6789 499.702 50.702L495.936 55.5421C495.835 55.5052 495.729 55.4822 495.618 55.473ZM496.324 55.8049L500.113 50.937C500.131 50.9416 500.154 50.9417 500.177 50.9417L501.671 54.0163L496.499 56.04C496.448 55.957 496.393 55.874 496.324 55.8049ZM503.127 58.9856L496.582 56.8743C496.609 56.7775 496.632 56.6715 496.632 56.5655C496.632 56.5424 496.628 56.5194 496.623 56.4917L501.869 54.4404L503.764 58.3402C503.496 58.4877 503.275 58.7136 503.127 58.9856ZM504.515 58.142C504.409 58.142 504.307 58.1512 504.206 58.1743L502.311 54.2698L507.073 52.4075C507.129 52.4721 507.193 52.5274 507.262 52.5781L504.921 58.2019C504.792 58.1696 504.658 58.142 504.515 58.142ZM511.328 59.465L506.068 59.4834C505.999 59.0224 505.727 58.626 505.349 58.3863L507.691 52.7533C507.756 52.7625 507.82 52.7717 507.885 52.7717C507.991 52.7717 508.092 52.7533 508.189 52.7256L511.674 58.8657C511.503 59.0224 511.379 59.2299 511.328 59.465ZM512.407 58.5845C512.291 58.5845 512.185 58.6076 512.079 58.6398L508.599 52.5089C508.622 52.4905 508.645 52.4721 508.668 52.449L514.523 54.5003L512.531 58.5984C512.49 58.5891 512.453 58.5845 512.407 58.5845ZM513.356 59.1331C513.264 58.9763 513.135 58.8427 512.978 58.7458L514.965 54.6524L520.312 56.5286C520.312 56.5424 520.308 56.5516 520.308 56.5655C520.308 56.6761 520.326 56.7775 520.358 56.8743L513.356 59.1331ZM520.432 56.0722L515.173 54.2284L516.767 50.9463C516.791 50.9463 516.809 50.9417 516.832 50.9417L520.621 55.8095C520.543 55.8832 520.483 55.9754 520.432 56.0722ZM521.326 55.473C521.216 55.4822 521.105 55.5052 521.008 55.5421L517.242 50.702C517.261 50.6789 517.284 50.6559 517.298 50.6328H522.212L521.326 55.473ZM522.267 55.8786C522.142 55.7219 521.981 55.602 521.792 55.5329L522.686 50.6282H528.979C529.015 50.7066 529.066 50.7803 529.121 50.8449L522.267 55.8786ZM528.905 50.1626H522.769L523.299 47.2493C523.825 47.2032 524.235 46.7929 524.29 46.272L528.651 45.7604L529.375 49.5034C529.121 49.6279 528.942 49.8722 528.905 50.1626ZM530.283 49.6048C530.159 49.5034 530.006 49.4389 529.836 49.4251L529.117 45.7097L532.666 45.2948C532.772 45.4976 532.934 45.6636 533.136 45.7696L530.283 49.6048ZM532.888 44.0041L528.425 40.6344C528.476 40.5284 528.504 40.4085 528.504 40.2841C528.504 40.2702 528.499 40.2564 528.499 40.2426L531.417 38.4955L533.173 43.8059C533.067 43.8566 532.971 43.9211 532.888 44.0041ZM534.174 43.8335C534.017 43.7505 533.842 43.6952 533.648 43.6952C533.644 43.6952 533.634 43.6952 533.63 43.6952L531.827 38.2466L536.202 35.6237C536.331 35.7758 536.483 35.9049 536.658 35.9971L534.174 43.8335ZM536.483 33.3511L532.597 29.4144L536.299 24.0856C536.396 24.1409 536.502 24.1824 536.617 24.2055L537.105 33.0745C536.875 33.1206 536.667 33.2174 536.483 33.3511Z" fill="#8A86B2"/>
<path d="M499.002 29.562L508.742 35.1812L518.482 29.562L508.742 14.4698L499.002 29.562ZM509.719 17.775L517.113 29.2347L509.719 33.4986V17.775Z" fill="#8A86B2"/>
<path d="M499.002 31.7054L508.742 44.9814L518.482 31.7054L508.742 37.592L499.002 31.7054ZM509.719 38.1406L514.818 35.0613L509.719 42.0081V38.1406Z" fill="#8A86B2"/>
<defs>
<clipPath id="clip0_761_250994">
<rect width="1213" height="392" fill="white" transform="translate(0 60)"/>
</clipPath>
</defs>
</svg>
