<svg width="176" height="152" viewBox="0 0 176 152" fill="none" xmlns="http://www.w3.org/2000/svg">
<path d="M164.369 30.2579C163.244 28.5134 162.006 26.8391 160.662 25.245C149.685 12.2505 135.334 6.75088 118.94 3.06709C102.007 -0.737541 82.1806 -1.91975 65.9226 4.93838C62.0964 6.57127 58.4602 8.72668 55.5837 11.6659C44.7055 22.7401 40.9743 41.2865 28.8614 55.9465C16.7485 70.6066 10.8396 88.8688 21.7144 106.204C26.3174 113.545 32.1856 119.593 39.129 124.916C47.6769 131.448 55.0512 140.285 64.9321 145.396C75.3151 150.765 89.1444 152.636 100.637 150.177C113.747 147.372 121.436 136.216 131.443 128.623C139.333 122.627 148.773 118.702 156.503 112.516C168.348 103.046 177.33 87.8075 175.838 72.7098C174.372 58.053 172.486 42.8214 164.369 30.2579Z" fill="#F9F8FE"/>
<path d="M111 49C83.9841 49 62 70.9764 62 98C62 125.016 83.9841 147 111 147C138.016 147 160 125.016 160 98C160 70.9764 138.024 49 111 49ZM114.044 51.4196C137.361 52.9222 156.062 71.616 157.58 94.9255C157.657 96.0813 156.733 97.0676 155.577 97.0676C154.521 97.0676 153.651 96.2508 153.581 95.2029C152.202 73.8814 135.095 56.7827 113.766 55.4188C112.718 55.3494 111.902 54.4787 111.902 53.423C111.894 52.2672 112.88 51.3502 114.044 51.4196ZM76.9643 98C76.9643 79.2291 92.2368 63.9566 111.008 63.9566C129.779 63.9566 145.051 79.2291 145.051 98C145.051 116.771 129.779 132.043 111.008 132.043C92.2291 132.043 76.9643 116.771 76.9643 98ZM83.1673 124.176C82.3351 125.008 80.9712 124.954 80.2161 124.06C74.2519 117.025 70.6457 107.933 70.6457 98.0077C70.6457 88.2062 74.1595 79.2137 79.9926 72.217C80.7478 71.3155 82.1194 71.2538 82.9516 72.086C83.6836 72.8181 83.7375 73.9816 83.0749 74.7753C77.8196 81.0785 74.6526 89.1848 74.6526 98.0154C74.6526 106.962 77.9044 115.153 83.2829 121.487C83.9456 122.265 83.8994 123.436 83.1673 124.176ZM138.501 121.741C144.011 115.368 147.355 107.07 147.355 98C147.355 89.0461 144.096 80.8396 138.702 74.4979C138.031 73.7042 138.078 72.5329 138.81 71.7932C139.642 70.961 141.006 71.0149 141.761 71.9088C147.74 78.9517 151.362 88.0598 151.362 98C151.362 108.064 147.656 117.272 141.537 124.353C140.774 125.239 139.418 125.286 138.594 124.461C137.862 123.714 137.816 122.535 138.501 121.741ZM137.06 67.2084C137.954 67.9635 138.008 69.3351 137.176 70.1596C136.444 70.8916 135.265 70.9456 134.471 70.2752C128.13 64.8967 119.939 61.6449 111 61.6449C101.93 61.6449 93.6315 64.9891 87.259 70.4987C86.4653 71.1845 85.2787 71.1382 84.5389 70.3985C83.7144 69.574 83.7607 68.2178 84.6468 67.4549C91.7206 61.3367 100.929 57.6303 111 57.6303C120.925 57.638 130.025 61.2442 137.06 67.2084ZM107.417 51.4581C108.58 51.3656 109.582 52.2903 109.582 53.4616C109.582 54.5018 108.781 55.3725 107.741 55.4573C86.6503 57.0601 69.8058 74.0587 68.4265 95.2106C68.3571 96.2585 67.4864 97.0753 66.4307 97.0753C65.2672 97.0753 64.3502 96.089 64.4273 94.9332C65.9376 71.8009 84.3617 53.2227 107.417 51.4581ZM107.425 144.534C84.5158 142.793 66.1919 124.453 64.4658 101.552C64.381 100.389 65.298 99.387 66.4693 99.387C67.5172 99.387 68.388 100.188 68.465 101.229C70.0447 122.18 86.8044 138.948 107.748 140.535C108.788 140.612 109.59 141.483 109.59 142.531C109.582 143.702 108.588 144.627 107.425 144.534ZM84.9165 128.761C84.0226 128.006 83.9687 126.642 84.8009 125.81C85.5329 125.078 86.7119 125.024 87.5056 125.702C93.8473 131.096 102.054 134.355 111.008 134.355C119.838 134.355 127.937 131.188 134.248 125.933C135.042 125.27 136.205 125.324 136.937 126.056C137.769 126.888 137.715 128.26 136.806 129.015C129.809 134.848 120.817 138.362 111.015 138.362C101.06 138.362 91.9517 134.748 84.9165 128.761ZM114.036 144.573C112.88 144.65 111.894 143.725 111.894 142.569C111.894 141.514 112.711 140.643 113.759 140.574C134.934 139.217 151.948 122.342 153.543 101.229C153.62 100.188 154.49 99.387 155.538 99.387C156.71 99.387 157.634 100.381 157.542 101.552C155.793 124.638 137.191 143.078 114.036 144.573Z" fill="#8A86B2"/>
<path fill-rule="evenodd" clip-rule="evenodd" d="M112.704 80.8784C112.647 80.8895 112.319 80.9357 111.975 80.9812C108.022 81.5047 104.525 84.3917 103.233 88.2002C102.467 90.4578 102.476 92.7416 103.261 95.0178L103.525 95.7817H101.106H98.6877V98.4979V101.214H102.331H105.973L105.972 101.808C105.969 103.41 105.207 105.057 103.928 106.227C103.354 106.753 102.976 107.004 102.313 107.303C100.818 107.974 100.404 108.185 99.7979 108.583C99.4353 108.821 98.9132 109.208 98.6376 109.444C98.1606 109.851 96.6764 111.388 96.6758 111.475C96.6756 111.498 97.584 112.334 98.6945 113.334L100.714 115.153L101.24 114.583C102.325 113.412 102.942 112.937 103.827 112.594C105.211 112.058 106.832 112.09 108.14 112.68C108.38 112.788 108.931 113.124 109.365 113.428C111.068 114.617 112.689 115.257 114.633 115.509C118.372 115.992 122.149 114.509 124.519 111.627C124.95 111.102 125.957 109.706 125.957 109.633C125.957 109.607 125.044 108.964 123.927 108.205C122.811 107.445 121.799 106.752 121.677 106.663L121.457 106.502L120.929 107.25C119.956 108.627 119.374 109.169 118.359 109.644C117.502 110.044 117.042 110.141 116 110.14C114.606 110.139 113.677 109.816 112.426 108.898C112.064 108.632 111.359 108.211 110.86 107.963L109.952 107.512L110.319 106.795C111.042 105.384 111.44 103.857 111.503 102.25L111.544 101.214H115.177H118.81V98.4979V95.7817H114.416H110.022L109.879 95.6289C109.8 95.5449 109.574 95.2328 109.377 94.9353C108.436 93.5147 108.08 92.2461 108.257 90.9441C108.503 89.1332 109.58 87.641 111.212 86.85C111.997 86.4697 112.485 86.3439 113.366 86.2953C115.523 86.1763 117.521 87.3286 118.476 89.2424C118.788 89.8676 118.844 89.9407 118.975 89.901C119.253 89.8169 121.066 89.252 122.57 88.7806L124.075 88.309L123.942 87.932C123.121 85.5959 121.178 83.3928 118.81 82.1138C117.767 81.5506 116.364 81.1095 115.084 80.9428C114.432 80.8578 113.009 80.8194 112.704 80.8784Z" fill="#8A86B2"/>
<rect x="6.6582" y="71" width="40" height="40" rx="12" transform="rotate(9.58144 6.6582 71)" fill="#8A86B2"/>
<path d="M13.3854 89.0618L17.6451 89.7808L17.4304 91.0528L14.5035 90.5486L14.1934 91.8451C14.52 91.8326 14.8148 91.8486 15.0777 91.8929C15.8008 92.015 16.3598 92.2885 16.7545 92.7135C17.1559 93.1396 17.295 93.7174 17.1718 94.4471C17.0475 95.1834 16.6804 95.6961 16.0704 95.9853C15.4616 96.2679 14.7561 96.3415 13.9541 96.2061C13.139 96.0685 12.4447 95.7958 11.8713 95.388L12.1026 94.0174C12.6015 94.4667 13.2354 94.7562 14.0046 94.8861C14.4647 94.9637 14.8467 94.9437 15.1505 94.826C15.461 94.7093 15.6428 94.4933 15.6961 94.1777C15.807 93.5204 15.3169 93.0996 14.2257 92.9154C13.634 92.8155 13.0559 92.8159 12.4912 92.9167L13.3854 89.0618Z" fill="white"/>
<path d="M18.5778 95.9927C18.1815 95.2565 18.0705 94.3723 18.2447 93.3403C18.4189 92.3082 18.8135 91.5128 19.4284 90.954C20.051 90.3898 20.8717 90.1936 21.8907 90.3656C22.9096 90.5376 23.6172 90.9918 24.0135 91.728C24.4175 92.4588 24.5324 93.3402 24.3582 94.3722C24.184 95.4043 23.7856 96.2025 23.163 96.7667C22.548 97.3255 21.7311 97.5189 20.7122 97.3469C19.6933 97.1749 18.9818 96.7235 18.5778 95.9927ZM20.9319 96.0453C21.9837 96.2228 22.6328 95.5819 22.8791 94.1226C23.1255 92.6632 22.7227 91.8448 21.671 91.6672C20.6192 91.4897 19.9701 92.1306 19.7238 93.5899C19.4774 95.0493 19.8801 95.8677 20.9319 96.0453Z" fill="white"/>
<path d="M27.2279 98.9133L26.2419 98.7468L31.6397 91.342L32.6257 91.5084L27.2279 98.9133ZM28.7453 91.7864C29.0372 92.1399 29.1382 92.5829 29.0484 93.1154C28.9585 93.6479 28.7171 94.0364 28.3242 94.2811C27.9325 94.5192 27.4868 94.5961 26.9872 94.5118C26.481 94.4263 26.0787 94.2063 25.7802 93.8517C25.4894 93.4916 25.389 93.0453 25.4789 92.5128C25.5687 91.9804 25.8096 91.5951 26.2013 91.357C26.6008 91.1134 27.0536 91.0343 27.5598 91.1198C28.0594 91.2041 28.4546 91.4263 28.7453 91.7864ZM26.8324 92.2444C26.6985 92.357 26.6154 92.5086 26.5832 92.6993C26.5511 92.8899 26.5797 93.0604 26.6693 93.2107C26.7654 93.3622 26.9285 93.4573 27.1586 93.4962C27.3756 93.5328 27.551 93.4948 27.6849 93.3822C27.8255 93.2707 27.9118 93.1196 27.944 92.929C27.9762 92.7383 27.9442 92.5673 27.8481 92.4158C27.7585 92.2655 27.6053 92.172 27.3883 92.1354C27.1582 92.0966 26.9729 92.1329 26.8324 92.2444ZM33.0463 96.4068C33.3382 96.7603 33.4392 97.2033 33.3493 97.7357C33.2594 98.2682 33.018 98.6568 32.6252 98.9015C32.2334 99.1396 31.7877 99.2165 31.2881 99.1321C30.782 99.0467 30.3796 98.8267 30.0812 98.472C29.7904 98.1119 29.6899 97.6657 29.7798 97.1332C29.8697 96.6007 30.1105 96.2154 30.5023 95.9773C30.9017 95.7337 31.3545 95.6547 31.8607 95.7401C32.3603 95.8245 32.7555 96.0467 33.0463 96.4068ZM31.1334 96.8647C30.9994 96.9774 30.9164 97.129 30.8842 97.3196C30.852 97.5102 30.8807 97.6807 30.9703 97.8311C31.0664 97.9825 31.2295 98.0777 31.4596 98.1165C31.6765 98.1531 31.8519 98.1151 31.9859 98.0025C32.1264 97.891 32.2128 97.7399 32.2449 97.5493C32.2771 97.3587 32.2451 97.1876 32.149 97.0362C32.0594 96.8859 31.9062 96.7924 31.6893 96.7558C31.4592 96.7169 31.2739 96.7532 31.1334 96.8647Z" fill="white"/>
</svg>
