<svg width="160" height="150" viewBox="0 0 160 150" fill="none" xmlns="http://www.w3.org/2000/svg">
<path d="M152.011 107.309C161.592 89.1917 162.247 65.051 155.624 45.6981C149.929 29.037 137.253 16.3221 122.615 8.75741C105.63 -0.0207391 85.3871 -2.63369 67.1485 2.90741C62.3562 4.36361 57.6861 5.70003 53.1655 8.0955C34.6348 17.9106 38.2214 42.0986 31.7105 50.5143C26.2389 57.5935 15.7815 55.5069 9.18568 60.9314C-8.59102 75.5785 1.70004 113.304 20.781 126.845C42.9967 142.611 128.283 152.171 152.011 107.309Z" fill="#F9F8FE"/>
<rect x="17.1953" y="41" width="98" height="98" rx="12" transform="rotate(6.55942 17.1953 41)" fill="#8A86B2"/>
<path d="M32.6609 86.7498L34.3853 86.9481L33.383 95.6653L35.1865 95.8727L34.9519 97.9136L28.8134 97.2078L29.0481 95.1669L31.0731 95.3997L31.8026 89.0556L29.6903 89.5822L29.9358 87.4464L32.6609 86.7498Z" fill="white"/>
<path d="M37.6097 88.2486C38.7623 87.6117 40.04 87.3739 41.4428 87.5352C42.5924 87.6674 43.5002 88.0443 44.1661 88.6659C44.8425 89.2887 45.1207 90.1221 45.0006 91.1663C44.9073 91.9784 44.5635 92.6442 43.9695 93.1637C43.3872 93.6738 42.6175 94.141 41.6603 94.5653C40.534 95.0663 39.8369 95.4136 39.5688 95.6072C39.2525 95.8487 39.0751 96.0901 39.0367 96.3315L44.4176 96.9342L44.1829 98.975L36.1143 98.0473L36.2362 96.9873C36.3029 96.4072 36.4473 95.8948 36.6694 95.4501C36.9021 95.0067 37.2348 94.6228 37.6675 94.2985C38.1107 93.9755 38.4745 93.7394 38.7588 93.5905C39.0443 93.4309 39.4742 93.2239 40.0485 92.9693C40.0825 92.9519 40.1107 92.9391 40.133 92.9309C40.1553 92.9228 40.1835 92.91 40.2176 92.8926C40.2517 92.8751 40.2798 92.8623 40.3021 92.8542C40.3703 92.8193 40.5106 92.7606 40.7231 92.6782C40.9474 92.5864 41.0936 92.5231 41.1618 92.4882C41.2299 92.4533 41.3485 92.3975 41.5176 92.3207C41.688 92.2334 41.8078 92.1671 41.8772 92.1216C41.9477 92.0656 42.0365 91.9903 42.1436 91.8958C42.2612 91.8024 42.3459 91.716 42.3978 91.6365C42.4497 91.5569 42.4982 91.461 42.5431 91.3486C42.5881 91.2362 42.6179 91.1167 42.6324 90.9902C42.6773 90.5999 42.5531 90.2864 42.2597 90.0496C41.9675 89.8023 41.542 89.6465 40.983 89.5822C39.7806 89.444 38.5713 89.7377 37.355 90.4635L37.6097 88.2486Z" fill="white"/>
<path d="M51.2382 88.5653L55.3832 89.042C57.2817 89.2603 58.6632 89.9321 59.5276 91.0574C60.4039 92.1734 60.7455 93.5699 60.5527 95.2469C60.3599 96.9239 59.7095 98.2116 58.6017 99.1102C57.5056 99.9994 56.0083 100.335 54.1098 100.116L49.9647 99.6399L51.2382 88.5653ZM56.9655 97.4473C57.6123 96.9339 58.0012 96.1076 58.1321 94.9685C58.2631 93.8294 58.0719 92.9365 57.5585 92.2897C57.0557 91.6441 56.2505 91.2577 55.1431 91.1303L53.3711 90.9266L52.578 97.8244L54.3499 98.0282C55.4574 98.1555 56.3292 97.9619 56.9655 97.4473Z" fill="white"/>
<path d="M62.6925 101.103L60.2403 100.821L66.0385 90.2672L68.6014 90.5619L71.8369 102.155L69.3847 101.873L68.8162 99.7076L63.7535 99.1255L62.6925 101.103ZM66.7139 93.4547L64.7227 97.2492L68.2982 97.6603L67.2043 93.511C67.1328 93.2036 67.0871 92.9045 67.0671 92.6136C66.9662 92.9333 66.8485 93.2136 66.7139 93.4547Z" fill="white"/>
<path d="M77.3893 102.793L75.032 102.522L75.4831 98.5987L71.9705 90.9493L74.6442 91.2567L76.9049 96.5501L80.308 91.908L82.9818 92.2154L77.8404 98.8698L77.3893 102.793Z" fill="white"/>
<path d="M83.1102 95.1957C83.2278 94.1727 83.7025 93.4364 84.5343 92.9871C85.3661 92.5377 86.3621 92.3797 87.5223 92.5131C88.9145 92.6732 90.0789 93.0956 91.0154 93.7804L90.7607 95.9953C89.8996 95.2123 88.7981 94.7544 87.4562 94.6215C86.2514 94.5043 85.6108 94.778 85.5344 95.4424C85.5004 95.7377 85.6184 96.0131 85.8882 96.2686C86.1686 96.5252 86.5224 96.7476 86.9497 96.9356C87.3886 97.1144 87.8544 97.3389 88.3469 97.6093C88.8513 97.8703 89.311 98.1476 89.7261 98.4411C90.1529 98.7253 90.4873 99.1164 90.7293 99.6144C90.9818 100.114 91.0729 100.669 91.0025 101.281C90.9334 101.882 90.7579 102.386 90.4762 102.791C90.205 103.198 89.8497 103.499 89.4105 103.695C88.9713 103.89 88.4977 104.012 87.9899 104.06C87.4808 104.119 86.9204 104.114 86.3087 104.043C84.7688 103.866 83.4412 103.377 82.3257 102.575L82.5859 100.313C83.6774 101.229 84.9404 101.77 86.3748 101.935C87.7565 102.094 88.4879 101.82 88.5692 101.113C88.6056 100.797 88.4842 100.505 88.205 100.238C87.9376 99.9613 87.585 99.7284 87.1472 99.5392C86.7212 99.3406 86.2561 99.1108 85.7517 98.8497C85.2592 98.5794 84.7995 98.3021 84.3726 98.0179C83.9575 97.7244 83.6231 97.3333 83.3694 96.8446C83.1263 96.3571 83.0398 95.8075 83.1102 95.1957Z" fill="white"/>
<path d="M24.3789 108.289L27.358 108.631C28.1044 108.717 28.6653 108.929 29.0406 109.269C29.4232 109.602 29.5816 110.054 29.516 110.625C29.4286 111.385 29.0275 111.842 28.3127 111.996C28.6764 112.15 28.9656 112.38 29.1801 112.688C29.3954 112.989 29.4762 113.373 29.4225 113.84C29.3799 114.21 29.2622 114.519 29.0694 114.766C28.8773 115.007 28.6342 115.177 28.3402 115.274C28.0526 115.373 27.7595 115.435 27.4607 115.459C27.1684 115.485 26.8567 115.479 26.5257 115.441L23.5952 115.104L24.3789 108.289ZM27.98 113.517C28.0472 112.932 27.6946 112.596 26.9222 112.507L25.3839 112.33L25.1824 114.083L26.6428 114.251C27.0258 114.295 27.3347 114.268 27.5695 114.17C27.8044 114.072 27.9412 113.854 27.98 113.517ZM28.0362 110.712C28.0959 110.192 27.7818 109.893 27.0938 109.814L25.7015 109.654L25.5224 111.212L26.9925 111.381C27.2781 111.414 27.516 111.375 27.7062 111.266C27.8971 111.149 28.0071 110.965 28.0362 110.712Z" fill="white"/>
<path d="M30.3022 113.507C30.3507 113.086 30.4682 112.721 30.6548 112.414C30.8422 112.1 31.0668 111.862 31.3286 111.702C31.5968 111.542 31.8696 111.429 32.1469 111.362C32.4307 111.296 32.7122 111.279 32.9913 111.311C33.4586 111.365 33.8509 111.499 34.1683 111.713C34.4922 111.927 34.7192 112.184 34.8493 112.482C34.9803 112.773 35.0548 113.097 35.0729 113.454C35.0982 113.806 35.0425 114.148 34.9055 114.481L31.6148 114.102C31.6489 114.435 31.8091 114.7 32.0955 114.897C32.3827 115.088 32.734 115.208 33.1494 115.255C33.6621 115.314 34.1435 115.274 34.5935 115.135L34.4715 116.196C33.9883 116.338 33.4059 116.37 32.7244 116.292C31.9455 116.202 31.3247 115.91 30.862 115.416C30.3992 114.923 30.2126 114.286 30.3022 113.507ZM33.7893 113.464C33.8464 113.254 33.8101 113.026 33.6805 112.781C33.5508 112.536 33.2978 112.392 32.9213 112.349C32.6227 112.314 32.3559 112.376 32.1208 112.533C31.8865 112.683 31.7482 112.914 31.7058 113.225L33.7893 113.464Z" fill="white"/>
<path d="M37.6043 116.715L36.2608 116.56L36.6672 113.026L35.8591 112.933L35.9901 111.794L36.7982 111.887L36.8508 111.429C36.8896 111.092 36.9751 110.806 37.1073 110.571C37.246 110.337 37.4137 110.166 37.6103 110.057C37.8077 109.941 38.0104 109.866 38.2183 109.831C38.4328 109.796 38.66 109.793 38.9002 109.82C39.3286 109.869 39.704 109.978 40.0266 110.147L39.8956 111.286C39.6834 111.13 39.4215 111.034 39.11 110.999C38.5518 110.934 38.2443 111.149 38.1876 111.642L38.1417 112.041L39.5729 112.206L39.4419 113.345L38.0107 113.18L37.6043 116.715Z" fill="white"/>
<path d="M40.354 116.508C39.9042 116.016 39.7241 115.38 39.8136 114.601C39.9032 113.822 40.2229 113.244 40.7727 112.867C41.3224 112.489 41.9575 112.342 42.678 112.425C43.4049 112.508 43.9901 112.796 44.4333 113.288C44.8831 113.78 45.0632 114.416 44.9736 115.194C44.8841 115.973 44.5644 116.551 44.0146 116.929C43.4714 117.307 42.8362 117.454 42.1093 117.371C41.3888 117.288 40.8037 117 40.354 116.508ZM43.1744 115.915C43.4162 115.699 43.5584 115.407 43.6009 115.037C43.6434 114.667 43.571 114.352 43.3837 114.094C43.1971 113.829 42.9156 113.675 42.5392 113.632C42.1627 113.589 41.8536 113.675 41.6118 113.89C41.3772 114.1 41.2387 114.39 41.1961 114.76C41.1536 115.13 41.2224 115.447 41.4025 115.711C41.5898 115.969 41.8717 116.12 42.2481 116.163C42.6246 116.207 42.9333 116.124 43.1744 115.915Z" fill="white"/>
<path d="M47.4253 113.819C47.6319 113.567 47.9093 113.385 48.2575 113.274C48.6057 113.162 48.9885 113.15 49.4059 113.238L49.2547 114.552C48.8922 114.445 48.5413 114.437 48.2018 114.53C47.8688 114.623 47.6149 114.801 47.44 115.064L47.1243 117.809L45.771 117.654L46.3084 112.98L47.5059 113.118L47.4253 113.819Z" fill="white"/>
<path d="M49.6579 115.733C49.7064 115.311 49.824 114.947 50.0106 114.639C50.1979 114.325 50.4225 114.088 50.6843 113.927C50.9525 113.768 51.2253 113.654 51.5027 113.588C51.7864 113.522 52.0679 113.505 52.347 113.537C52.8143 113.59 53.2067 113.724 53.524 113.938C53.8479 114.153 54.0749 114.409 54.205 114.707C54.336 114.998 54.4105 115.323 54.4286 115.68C54.4539 116.031 54.3982 116.373 54.2612 116.706L50.9705 116.328C51.0046 116.661 51.1648 116.926 51.4512 117.123C51.7384 117.314 52.0897 117.433 52.5051 117.481C53.0178 117.54 53.4992 117.5 53.9492 117.361L53.8272 118.422C53.344 118.564 52.7616 118.596 52.0801 118.517C51.3012 118.428 50.6804 118.136 50.2177 117.642C49.7549 117.148 49.5683 116.512 49.6579 115.733ZM53.145 115.69C53.2021 115.48 53.1658 115.252 53.0362 115.007C52.9065 114.762 52.6535 114.618 52.277 114.574C51.9784 114.54 51.7116 114.601 51.4765 114.758C51.2422 114.909 51.1039 115.14 51.0615 115.451L53.145 115.69Z" fill="white"/>
<path d="M58.4391 112.205L61.0094 112.501C62.9695 112.726 63.8619 113.601 63.6865 115.127C63.5111 116.652 62.4434 117.302 60.4832 117.076L59.3733 116.949L59.1159 119.188L57.6555 119.02L58.4391 112.205ZM60.6991 115.799C61.6208 115.905 62.1201 115.624 62.1969 114.955C62.2738 114.287 61.8514 113.9 60.9298 113.794L59.7517 113.658L59.5211 115.664L60.6991 115.799Z" fill="white"/>
<path d="M68.3203 119.023C68.2965 119.231 68.3949 119.347 68.6155 119.373C68.7064 119.383 68.7923 119.38 68.8732 119.363L68.7713 120.249C68.5142 120.311 68.2591 120.328 68.0059 120.299C67.5127 120.242 67.1888 120.028 67.0344 119.655C66.5036 119.982 65.9201 120.109 65.284 120.035C64.8232 119.982 64.4483 119.811 64.1594 119.521C63.8777 119.226 63.7622 118.858 63.813 118.416C63.8555 118.046 64.0013 117.751 64.2504 117.529C64.4994 117.308 64.7748 117.172 65.0766 117.121C65.3791 117.064 65.7024 117.055 66.0464 117.095C66.4293 117.139 66.7944 117.223 67.1417 117.349L67.1607 117.183C67.1883 116.943 67.1163 116.741 66.9444 116.576C66.7726 116.412 66.5082 116.309 66.1513 116.268C65.632 116.209 65.0669 116.262 64.4559 116.428L64.5902 115.26C65.2372 115.124 65.8527 115.09 66.4369 115.157C67.9687 115.333 68.6536 116.125 68.4916 117.534L68.3203 119.023ZM66.265 117.939C65.9859 117.906 65.7463 117.932 65.5461 118.014C65.3459 118.096 65.2332 118.247 65.2078 118.468C65.1884 118.637 65.2405 118.784 65.3641 118.91C65.495 119.03 65.6642 119.103 65.8719 119.126C66.2808 119.173 66.6459 119.087 66.9671 118.868L67.051 118.137C66.7607 118.032 66.4987 117.965 66.265 117.939Z" fill="white"/>
<path d="M71.7071 119.097L73.2284 116.076L74.6304 116.237L71.9543 121.236C71.3629 122.319 70.6258 122.81 69.7431 122.709C69.5549 122.687 69.3156 122.623 69.0252 122.517L69.154 121.398C69.3629 121.468 69.5453 121.512 69.7011 121.53C70.1944 121.587 70.6035 121.288 70.9285 120.635L70.9405 120.617L69.2756 115.621L70.7068 115.786L71.7071 119.097Z" fill="white"/>
<path d="M79.0898 114.58L80.4333 114.734L79.6497 121.549L78.4619 121.413L78.5403 120.731C78.0817 121.231 77.4856 121.438 76.7522 121.354C76.0447 121.273 75.5141 120.968 75.1605 120.441C74.8075 119.907 74.6703 119.3 74.7486 118.618C74.827 117.937 75.0982 117.379 75.5624 116.946C76.0272 116.506 76.6134 116.327 77.3209 116.408C77.9635 116.482 78.452 116.752 78.7864 117.218L79.0898 114.58ZM78.6386 118.503C78.5666 118.271 78.4289 118.068 78.2254 117.893C78.0283 117.719 77.7903 117.616 77.5112 117.584C77.1347 117.541 76.8213 117.637 76.5707 117.871C76.3209 118.099 76.1744 118.401 76.1311 118.777C76.0878 119.154 76.1616 119.484 76.3524 119.769C76.544 120.048 76.828 120.209 77.2045 120.252C77.4836 120.284 77.7388 120.238 77.9701 120.113C78.208 119.989 78.3883 119.823 78.511 119.613L78.6386 118.503Z" fill="white"/>
<path d="M85.2972 120.975C85.2734 121.183 85.3718 121.3 85.5924 121.325C85.6833 121.335 85.7692 121.332 85.85 121.315L85.7482 122.201C85.4911 122.264 85.236 122.28 84.9828 122.251C84.4896 122.194 84.1657 121.98 84.0113 121.607C83.4805 121.934 82.897 122.061 82.2609 121.988C81.8001 121.935 81.4252 121.763 81.1363 121.474C80.8546 121.178 80.7391 120.81 80.7899 120.368C80.8324 119.998 80.9782 119.703 81.2272 119.481C81.4763 119.26 81.7517 119.124 82.0535 119.073C82.356 119.016 82.6793 119.007 83.0233 119.047C83.4062 119.091 83.7713 119.176 84.1186 119.301L84.1376 119.135C84.1652 118.895 84.0931 118.693 83.9213 118.529C83.7495 118.364 83.4851 118.261 83.1282 118.22C82.6089 118.161 82.0438 118.214 81.4328 118.381L81.5671 117.212C82.2141 117.076 82.8296 117.042 83.4138 117.109C84.9456 117.285 85.6305 118.077 85.4685 119.486L85.2972 120.975ZM83.2419 119.891C82.9628 119.859 82.7232 119.884 82.523 119.966C82.3228 120.048 82.2101 120.199 82.1847 120.42C82.1653 120.589 82.2174 120.736 82.341 120.862C82.4718 120.983 82.6411 121.055 82.8488 121.079C83.2577 121.126 83.6228 121.039 83.944 120.82L84.0279 120.09C83.7376 119.984 83.4756 119.918 83.2419 119.891Z" fill="white"/>
<path d="M88.684 121.049L90.2053 118.028L91.6073 118.189L88.9312 123.189C88.3398 124.271 87.6027 124.762 86.72 124.661C86.5318 124.639 86.2925 124.575 86.0021 124.47L86.1309 123.35C86.3398 123.42 86.5222 123.464 86.678 123.482C87.1713 123.539 87.5804 123.24 87.9054 122.587L87.9174 122.569L86.2525 117.573L87.6837 117.738L88.684 121.049Z" fill="white"/>
<line x1="24.7495" y1="61.0946" x2="102.636" y2="70.0506" stroke="white"/>
<circle cx="101.264" cy="60.5315" r="2.45" transform="rotate(6.55942 101.264 60.5315)" fill="white"/>
<circle cx="28.2459" cy="52.1364" r="2.45" transform="rotate(6.55942 28.2459 52.1364)" fill="white"/>
<circle cx="64.7557" cy="56.3335" r="2.45" transform="rotate(6.55942 64.7557 56.3335)" fill="white"/>
</svg>
