<svg width="177" height="177" viewBox="0 0 177 177" fill="none" xmlns="http://www.w3.org/2000/svg">
<path d="M144.948 145.764C131.154 161.01 107.222 153.716 99.269 143.436C81.3699 120.295 86.7058 99.2073 76.6109 93.4486C64.2956 86.4462 48.0962 118.5 28.1831 115.839C15.1685 114.101 7.89483 103.313 8.30936 80.5816C8.89707 48.8968 18.8227 25.3397 30.4041 17.2285C54.0471 0.672689 88.3121 8.54387 106.675 13.6019C121.841 17.7742 145.216 15.8607 161.703 49.0796C171.437 68.6889 171.551 116.367 144.948 145.764Z" fill="#F9F8FE"/>
<rect x="54.7051" y="79" width="80" height="80" rx="12" transform="rotate(15 54.7051 79)" fill="#8A86B2"/>
<path d="M61.228 117.666L62.5967 118.033L60.7428 124.951L62.1743 125.335L61.7403 126.955L56.8681 125.649L57.3022 124.03L58.9095 124.46L60.2587 119.425L58.4899 119.597L58.9441 117.902L61.228 117.666Z" fill="white"/>
<path d="M63.9501 126.416C63.5276 125.415 63.4924 124.257 63.8446 122.943C64.1967 121.628 64.805 120.647 65.6694 120C66.5445 119.346 67.6308 119.193 68.9283 119.541C70.2259 119.888 71.0859 120.563 71.5085 121.564C71.9416 122.56 71.9821 123.715 71.6299 125.029C71.2778 126.343 70.6642 127.327 69.7891 127.981C68.9247 128.629 67.8437 128.779 66.5462 128.431C65.2486 128.083 64.3833 127.412 63.9501 126.416ZM66.9903 126.773C68.3297 127.132 69.2484 126.383 69.7464 124.524C70.2443 122.666 69.8236 121.557 68.4842 121.198C67.1448 120.839 66.2261 121.589 65.7281 123.447C65.2302 125.306 65.6509 126.415 66.9903 126.773Z" fill="white"/>
<path d="M77.397 121.729L80.687 122.611C82.1938 123.014 83.2289 123.722 83.792 124.735C84.3659 125.741 84.4744 126.909 84.1178 128.24C83.7611 129.571 83.0817 130.533 82.0794 131.126C81.0878 131.713 79.8386 131.804 78.3317 131.401L75.0418 130.519L77.397 121.729ZM80.9575 129.587C81.5413 129.25 81.9543 128.63 82.1966 127.726C82.4388 126.821 82.3914 126.078 82.0544 125.494C81.7257 124.912 81.1218 124.504 80.2429 124.268L78.8365 123.891L77.3695 129.366L78.7759 129.743C79.6549 129.979 80.3821 129.927 80.9575 129.587Z" fill="white"/>
<path d="M85.1439 133.226L83.1976 132.704L89.1441 124.877L91.1784 125.422L92.4019 135.171L90.4555 134.649L90.2559 132.833L86.2376 131.756L85.1439 133.226ZM89.3076 127.531L87.245 130.357L90.0829 131.117L89.6969 127.636C89.676 127.379 89.6749 127.132 89.6936 126.895C89.5738 127.141 89.4452 127.353 89.3076 127.531Z" fill="white"/>
<path d="M96.8088 136.351L94.9378 135.85L95.7722 132.736L93.8524 126.138L95.9746 126.707L97.1658 131.252L100.47 127.911L102.592 128.48L97.6432 133.237L96.8088 136.351Z" fill="white"/>
<path d="M102.339 130.902C102.556 130.09 103.028 129.552 103.753 129.289C104.479 129.026 105.302 129.018 106.223 129.265C107.328 129.561 108.217 130.041 108.892 130.706L108.421 132.464C107.819 131.729 106.985 131.227 105.917 130.959C104.958 130.72 104.408 130.864 104.267 131.392C104.204 131.626 104.266 131.863 104.453 132.101C104.649 132.342 104.908 132.564 105.231 132.767C105.564 132.964 105.913 133.201 106.278 133.478C106.654 133.75 106.992 134.029 107.292 134.315C107.603 134.596 107.826 134.952 107.962 135.383C108.106 135.816 108.113 136.276 107.983 136.761C107.855 137.239 107.653 137.624 107.377 137.918C107.109 138.214 106.786 138.415 106.408 138.52C106.03 138.625 105.633 138.666 105.217 138.645C104.799 138.631 104.347 138.56 103.861 138.43C102.639 138.102 101.626 137.548 100.821 136.767L101.302 134.971C102.074 135.842 103.029 136.43 104.167 136.735C105.264 137.029 105.887 136.895 106.038 136.334C106.105 136.083 106.042 135.833 105.849 135.584C105.666 135.329 105.409 135.098 105.078 134.893C104.758 134.682 104.41 134.44 104.034 134.169C103.669 133.892 103.331 133.613 103.02 133.332C102.72 133.045 102.497 132.689 102.35 132.264C102.213 131.842 102.209 131.388 102.339 130.902Z" fill="white"/>
<path d="M52.4427 134.195L54.8073 134.829C55.3997 134.987 55.8271 135.226 56.0896 135.545C56.3585 135.86 56.4323 136.244 56.3108 136.698C56.1493 137.3 55.7707 137.621 55.1749 137.66C55.4503 137.828 55.6561 138.049 55.7925 138.323C55.9303 138.592 55.9495 138.911 55.8501 139.282C55.7714 139.576 55.6394 139.811 55.454 139.988C55.27 140.159 55.0535 140.267 54.8043 140.311C54.5603 140.356 54.3162 140.37 54.072 140.355C53.8329 140.34 53.582 140.298 53.3193 140.228L50.9933 139.604L52.4427 134.195ZM54.7241 138.848C54.8484 138.385 54.604 138.071 53.9909 137.906L52.77 137.579L52.3973 138.97L53.5564 139.281C53.8604 139.362 54.113 139.377 54.3144 139.326C54.5158 139.275 54.6524 139.116 54.7241 138.848ZM55.1056 136.59C55.216 136.178 54.9982 135.899 54.4521 135.752L53.3471 135.456L53.0158 136.693L54.1827 137.005C54.4093 137.066 54.606 137.063 54.7727 136.998C54.9408 136.927 55.0518 136.791 55.1056 136.59Z" fill="white"/>
<path d="M56.6003 139.119C56.6901 138.784 56.8287 138.504 57.0162 138.278C57.2051 138.047 57.4148 137.882 57.6455 137.784C57.8813 137.687 58.1151 137.628 58.3471 137.608C58.5841 137.588 58.8134 137.608 59.0349 137.668C59.4059 137.767 59.7066 137.922 59.9372 138.133C60.173 138.345 60.3256 138.579 60.395 138.835C60.4658 139.086 60.4872 139.357 60.459 139.648C60.4373 139.935 60.3513 140.204 60.2009 140.456L57.589 139.757C57.5767 140.029 57.6743 140.263 57.8819 140.456C58.0909 140.645 58.3603 140.783 58.69 140.872C59.0969 140.981 59.4904 141.006 59.8705 140.948L59.6448 141.79C59.2376 141.847 58.7636 141.802 58.2226 141.657C57.6045 141.492 57.1381 141.182 56.8236 140.728C56.5091 140.273 56.4347 139.737 56.6003 139.119ZM59.4213 139.502C59.4926 139.339 59.4906 139.151 59.4153 138.937C59.3399 138.724 59.1529 138.577 58.8541 138.497C58.6171 138.434 58.3943 138.451 58.1857 138.55C57.9784 138.643 57.839 138.813 57.7676 139.059L59.4213 139.502Z" fill="white"/>
<path d="M62.1124 142.584L61.0461 142.298L61.7977 139.493L61.1563 139.321L61.3985 138.417L62.0399 138.589L62.1372 138.226C62.209 137.958 62.3123 137.737 62.4472 137.563C62.5873 137.391 62.7432 137.273 62.9151 137.208C63.0883 137.139 63.261 137.102 63.4331 137.099C63.6104 137.096 63.7943 137.121 63.9849 137.172C64.3249 137.263 64.6151 137.396 64.8553 137.571L64.6131 138.475C64.4604 138.324 64.2604 138.215 64.0131 138.149C63.5701 138.03 63.2961 138.166 63.1912 138.558L63.1063 138.875L64.2422 139.179L64 140.083L62.8641 139.779L62.1124 142.584Z" fill="white"/>
<path d="M64.3575 142.746C64.0533 142.295 63.984 141.76 64.1497 141.142C64.3153 140.524 64.6427 140.095 65.1319 139.856C65.621 139.617 66.1515 139.575 66.7233 139.728C67.3003 139.882 67.7383 140.185 68.0374 140.635C68.3416 141.086 68.4108 141.621 68.2452 142.239C68.0795 142.857 67.7521 143.286 67.263 143.525C66.779 143.765 66.2485 143.808 65.6715 143.653C65.0997 143.5 64.6617 143.198 64.3575 142.746ZM66.706 142.605C66.9271 142.46 67.0769 142.241 67.1556 141.947C67.2343 141.654 67.2135 141.391 67.0932 141.16C66.9743 140.924 66.7654 140.766 66.4666 140.686C66.1678 140.606 65.9079 140.638 65.6868 140.783C65.4722 140.925 65.3256 141.142 65.247 141.436C65.1683 141.73 65.1858 141.994 65.2996 142.229C65.4199 142.46 65.6295 142.615 65.9283 142.695C66.227 142.775 66.4863 142.745 66.706 142.605Z" fill="white"/>
<path d="M70.3897 141.422C70.5867 141.243 70.8325 141.13 71.127 141.082C71.4215 141.034 71.732 141.07 72.0586 141.19L71.779 142.234C71.4992 142.103 71.2167 142.055 70.9315 142.089C70.6515 142.125 70.4251 142.238 70.2524 142.429L69.6685 144.608L68.5944 144.321L69.5883 140.611L70.5387 140.866L70.3897 141.422Z" fill="white"/>
<path d="M71.9631 143.235C72.0528 142.901 72.1914 142.62 72.3789 142.394C72.5678 142.163 72.7776 141.999 73.0082 141.9C73.244 141.804 73.4779 141.745 73.7098 141.724C73.9469 141.705 74.1762 141.725 74.3977 141.784C74.7686 141.884 75.0694 142.039 75.3 142.25C75.5357 142.462 75.6883 142.696 75.7578 142.952C75.8286 143.203 75.8499 143.474 75.8217 143.764C75.8001 144.051 75.7141 144.321 75.5636 144.573L72.9518 143.873C72.9394 144.146 73.037 144.379 73.2447 144.573C73.4537 144.761 73.723 144.9 74.0527 144.988C74.4597 145.097 74.8532 145.122 75.2332 145.064L75.0075 145.906C74.6004 145.963 74.1263 145.919 73.5854 145.774C72.9672 145.608 72.5009 145.298 72.1864 144.844C71.8719 144.39 71.7975 143.854 71.9631 143.235ZM74.784 143.619C74.8554 143.456 74.8533 143.267 74.778 143.054C74.7027 142.84 74.5156 142.694 74.2168 142.614C73.9799 142.55 73.7571 142.568 73.5484 142.666C73.3411 142.76 73.2018 142.93 73.1304 143.176L74.784 143.619Z" fill="white"/>
<path d="M79.4765 141.439L81.5166 141.985C83.0724 142.402 83.6881 143.216 83.3637 144.427C83.0393 145.637 82.0992 146.034 80.5434 145.617L79.6625 145.381L79.1863 147.159L78.0272 146.848L79.4765 141.439ZM80.8708 144.612C81.6024 144.808 82.0392 144.641 82.1814 144.11C82.3236 143.579 82.0289 143.216 81.2974 143.02L80.3623 142.769L79.9358 144.361L80.8708 144.612Z" fill="white"/>
<path d="M86.6385 148.128C86.5943 148.293 86.6598 148.399 86.835 148.446C86.9071 148.465 86.9768 148.473 87.0442 148.469L86.8557 149.172C86.6407 149.192 86.4327 149.175 86.2318 149.121C85.8402 149.016 85.6045 148.804 85.5245 148.484C85.0566 148.685 84.5703 148.717 84.0655 148.582C83.6997 148.484 83.4175 148.301 83.2189 148.032C83.0269 147.76 82.9778 147.448 83.0716 147.098C83.1503 146.805 83.3034 146.583 83.5311 146.434C83.7587 146.286 83.9974 146.209 84.2471 146.204C84.4983 146.194 84.7604 146.226 85.0334 146.299C85.3373 146.38 85.622 146.492 85.8874 146.635L85.9226 146.504C85.9737 146.313 85.9397 146.141 85.8207 145.988C85.7016 145.834 85.5005 145.72 85.2171 145.644C84.805 145.533 84.3423 145.509 83.8289 145.57L84.0774 144.643C84.6161 144.61 85.1173 144.656 85.5809 144.781C86.7967 145.106 87.2548 145.828 86.9553 146.946L86.6385 148.128ZM85.1088 147.006C84.8873 146.947 84.6908 146.938 84.5193 146.981C84.3478 147.023 84.2386 147.132 84.1917 147.307C84.1558 147.441 84.1802 147.566 84.2649 147.683C84.3562 147.796 84.4842 147.874 84.6491 147.918C84.9736 148.005 85.2787 147.979 85.5644 147.841L85.7197 147.261C85.4979 147.141 85.2943 147.056 85.1088 147.006Z" fill="white"/>
<path d="M89.3644 148.594L90.9549 146.337L92.0676 146.635L89.3077 150.351C88.7004 151.155 88.0464 151.462 87.3458 151.275C87.1964 151.235 87.0108 151.155 86.789 151.034L87.0271 150.146C87.1875 150.227 87.3295 150.285 87.4531 150.318C87.8446 150.423 88.2107 150.231 88.5514 149.743L88.5633 149.729L87.8175 145.496L88.9535 145.8L89.3644 148.594Z" fill="white"/>
<path d="M95.8671 145.831L96.9335 146.116L95.4841 151.526L94.5414 151.273L94.6863 150.732C94.2561 151.081 93.7499 151.177 93.1678 151.021C92.6063 150.87 92.2143 150.561 91.9919 150.093C91.7709 149.62 91.7328 149.112 91.8778 148.572C92.0227 148.031 92.3085 147.613 92.7352 147.319C93.1633 147.019 93.6581 146.945 94.2196 147.095C94.7296 147.232 95.0918 147.509 95.306 147.925L95.8671 145.831ZM95.0327 148.945C95.0023 148.749 94.9155 148.568 94.772 148.403C94.6338 148.239 94.4539 148.127 94.2324 148.068C93.9336 147.988 93.669 148.027 93.4386 148.186C93.2097 148.34 93.0551 148.567 92.9751 148.866C92.895 149.164 92.9149 149.44 93.0349 149.693C93.1562 149.941 93.3663 150.105 93.6651 150.185C93.8866 150.244 94.0982 150.238 94.3 150.165C94.5069 150.093 94.6724 149.98 94.7966 149.826L95.0327 148.945Z" fill="white"/>
<path d="M100.113 151.739C100.069 151.904 100.134 152.01 100.31 152.057C100.382 152.076 100.451 152.084 100.519 152.08L100.33 152.783C100.115 152.802 99.9073 152.785 99.7064 152.732C99.3149 152.627 99.0791 152.414 98.9991 152.095C98.5313 152.295 98.045 152.328 97.5401 152.192C97.1744 152.094 96.8922 151.911 96.6936 151.643C96.5015 151.37 96.4524 151.059 96.5463 150.709C96.625 150.415 96.7781 150.194 97.0057 150.045C97.2333 149.896 97.472 149.819 97.7218 149.814C97.9729 149.804 98.235 149.836 98.5081 149.909C98.812 149.991 99.0967 150.103 99.3621 150.246L99.3973 150.114C99.4483 149.924 99.4144 149.752 99.2953 149.598C99.1763 149.445 98.9751 149.33 98.6918 149.254C98.2797 149.144 97.8169 149.119 97.3036 149.181L97.552 148.253C98.0908 148.221 98.592 148.267 99.0556 148.391C100.271 148.717 100.73 149.439 100.43 150.557L100.113 151.739ZM98.5835 150.617C98.362 150.557 98.1655 150.549 97.994 150.591C97.8225 150.634 97.7133 150.743 97.6664 150.918C97.6305 151.052 97.6549 151.177 97.7396 151.293C97.8308 151.406 97.9589 151.485 98.1238 151.529C98.4483 151.616 98.7534 151.59 99.0391 151.451L99.1944 150.872C98.9726 150.751 98.7689 150.667 98.5835 150.617Z" fill="white"/>
<path d="M102.839 152.204L104.43 149.947L105.542 150.245L102.782 153.962C102.175 154.765 101.521 155.073 100.82 154.885C100.671 154.845 100.485 154.765 100.264 154.645L100.502 153.756C100.662 153.838 100.804 153.895 100.928 153.928C101.319 154.033 101.685 153.842 102.026 153.353L102.038 153.34L101.292 149.106L102.428 149.411L102.839 152.204Z" fill="white"/>
<line x1="58.4214" y1="96.0424" x2="120.241" y2="112.607" stroke="white"/>
<circle cx="120.249" cy="104.845" r="2" transform="rotate(15 120.249 104.845)" fill="white"/>
<circle cx="62.2941" cy="89.3156" r="2" transform="rotate(15 62.2941 89.3156)" fill="white"/>
<circle cx="91.2716" cy="97.0802" r="2" transform="rotate(15 91.2716 97.0802)" fill="white"/>
</svg>
