<svg width="168" height="173" viewBox="0 0 168 173" fill="none" xmlns="http://www.w3.org/2000/svg">
<path d="M137.535 22.9272C131.628 16.8745 124.786 11.892 117.291 8.18684C106.128 2.7691 93.8203 0.160965 81.5342 0.00345137C45.5972 -0.447111 42.861 43.3564 31.8106 49.4554C20.7601 55.5545 0.742116 56.2652 0.0360154 80.6248C-0.398237 95.9476 3.05107 111.706 12.7458 123.644C21.625 134.579 34.6667 140.128 47.5178 144.213C61.9505 148.814 77.2552 153.323 92.4364 150.22C108.016 147.037 118.961 134.238 131.752 125.589C139.809 120.142 147.039 114.41 152.014 105.67C152.607 104.629 153.165 103.56 153.694 102.479C160.353 88.9035 161.659 73.24 157.987 58.5473C154.697 45.3491 147.258 32.7956 137.535 22.9272Z" fill="#F9F8FE"/>
<path d="M50.0309 140.318L47.4062 142.942C47.4155 142.952 47.4155 142.952 47.4248 142.961L50.0494 140.336C50.0401 140.327 50.0309 140.327 50.0309 140.318Z" fill="#8A86B2"/>
<path d="M117.305 152.93L115.506 151.131L117.305 152.93Z" fill="#8A86B2"/>
<path d="M113.514 149.138L115.508 151.131L113.514 149.138Z" fill="#8A86B2"/>
<path d="M112.705 153.57L110.062 150.927C101.799 157.503 91.3561 161.444 79.9951 161.444C68.6434 161.444 58.2005 157.503 49.9371 150.937L47.2939 153.58C56.2436 160.814 67.6139 165.154 79.9951 165.154C92.3763 165.154 103.756 160.814 112.705 153.57Z" fill="#8A86B2"/>
<path d="M45.0126 140.086L47.6558 137.442C42.5364 130.663 39.4944 122.223 39.4944 113.088C39.4944 90.7557 57.6627 72.5781 80.0045 72.5781C89.1397 72.5781 97.57 75.6201 104.359 80.7395L107.002 78.0963C99.5269 72.3184 90.1691 68.8684 80.0138 68.8684C55.6317 68.8684 35.794 88.7061 35.794 113.088C35.7847 123.253 39.2347 132.62 45.0126 140.086Z" fill="#8A86B2"/>
<path d="M79.9954 53C64.1178 53 49.6777 59.2138 38.9288 69.3135C38.0292 70.1574 37.1574 71.0385 36.3042 71.9381L38.9288 74.5627L41.9059 77.5398C33.2159 86.8511 27.8831 99.3343 27.8831 113.051C27.8831 128.075 34.2824 141.625 44.4841 151.141L47.1087 148.516C47.1087 148.516 47.1087 148.516 47.0995 148.507L50.0301 145.576C57.9133 152.856 68.4396 157.308 79.9861 157.308C104.368 157.308 124.206 137.47 124.206 113.088C124.206 101.542 119.754 91.0153 112.474 83.1322C112.474 83.1229 112.465 83.1229 112.465 83.1136L112.455 83.1043L115.432 80.1273L118.057 77.5027C117.222 76.6031 116.351 75.7405 115.46 74.9059C106.149 66.2437 93.6842 60.9295 79.9954 60.9295C66.3065 60.9295 53.8419 66.2437 44.5305 74.9059L41.5534 71.9288C51.6253 62.4969 65.138 56.7004 79.9954 56.7004C111.036 56.7004 136.281 81.9543 136.281 112.986C136.281 127.843 130.485 141.356 121.053 151.428L118.122 148.497C126.784 139.186 132.098 126.721 132.098 113.032C132.098 100.642 127.739 89.2532 120.496 80.3035L117.853 82.9467C124.438 91.2193 128.389 101.671 128.389 113.042C128.389 127.037 122.407 139.659 112.882 148.507L118.437 154.062C108.365 163.494 94.8528 169.29 79.9954 169.29C48.9636 169.29 23.7097 144.036 23.7097 113.005C23.7097 99.4827 28.5045 87.0645 36.4804 77.3543L33.8465 74.7204C25.2029 85.1076 20 98.4626 20 113.005C20 146.086 46.914 173 79.9954 173C95.8729 173 110.313 166.786 121.062 156.687C121.962 155.843 122.833 154.962 123.687 154.062C133.786 143.322 140 128.873 140 112.995C140 79.914 113.086 53 79.9954 53ZM79.9954 64.6485C92.664 64.6485 104.201 69.5453 112.836 77.5398L109.859 80.5168L107.234 83.1414C108.152 83.9761 109.024 84.8479 109.859 85.766C116.462 92.9722 120.505 102.571 120.505 113.097C120.505 135.43 102.337 153.607 79.9954 153.607C69.4691 153.607 59.8702 149.573 52.664 142.961C51.7552 142.126 50.8741 141.254 50.0394 140.336L47.4148 142.961L44.4841 145.891C36.4897 137.257 31.5929 125.72 31.5929 113.051C31.6021 86.3596 53.3132 64.6485 79.9954 64.6485Z" fill="#8A86B2"/>
<path fill-rule="evenodd" clip-rule="evenodd" d="M81.696 92.0155C77.809 92.3565 74.7942 93.5724 71.4068 96.1653C70.0754 97.1844 69.2423 97.946 68.3933 98.9204C66.7176 100.844 65.5465 102.834 64.698 105.2L64.3681 106.12L61.1962 106.121L58.0244 106.121V108.452V110.783L60.6428 110.805L63.2611 110.826L63.3139 113.076C63.343 114.314 63.3953 115.409 63.4303 115.511L63.4938 115.695H60.7592H58.0244V118.231V120.768H61.4192H64.8139L65.1389 121.648C65.5578 122.781 66.5116 124.592 67.2478 125.652C67.8565 126.528 69.1267 127.995 69.8284 128.632C72.8239 131.352 76.426 133.051 80.507 133.67C81.9617 133.891 85.1368 133.869 86.7624 133.628C91.3145 132.952 94.8893 131.125 97.6424 128.067C98.0352 127.63 98.3847 127.227 98.4192 127.17C98.4595 127.103 97.6999 126.164 96.2892 124.536L94.0966 122.006L93.3672 122.67C91.994 123.921 89.8861 125.419 88.6783 126.003C87.9737 126.344 87.072 126.636 86.1012 126.838C85.3518 126.994 84.9675 127.02 83.3565 127.021C81.2629 127.023 80.6518 126.931 79.1663 126.395C76.8307 125.552 74.8726 123.845 73.4407 121.402L73.1648 120.932H80.1978H87.2308V118.395V115.859L79.4197 115.838L71.6087 115.818L71.5411 115.49C71.504 115.31 71.4501 114.233 71.4216 113.097L71.3698 111.031H79.3003H87.2308V108.494V105.957H79.993C76.0123 105.957 72.7553 105.935 72.7553 105.908C72.7553 105.756 73.8222 104.083 74.348 103.411C75.7241 101.652 77.8415 100.152 79.8686 99.501C81.1403 99.0924 82.0497 98.9719 83.8248 98.9766C85.6765 98.9814 87.0728 99.1473 88.2113 99.4978C89.6699 99.9468 91.5096 101.164 93.3766 102.914L94.5412 104.007L96.724 101.386C98.5381 99.2077 98.8927 98.7402 98.8232 98.6177C98.6916 98.3859 96.6184 96.4606 95.9586 95.9574C95.0405 95.2573 93.7203 94.457 92.617 93.932C89.9088 92.6432 87.282 92.0665 83.8674 92.0109C82.8839 91.995 81.9068 91.997 81.696 92.0155Z" fill="#8A86B2"/>
<rect x="124" y="46" width="32" height="32" rx="12" transform="rotate(-30 124 46)" fill="#8A86B2"/>
<path d="M137.355 53.7071L140.348 51.9791L140.864 52.8729L138.803 54.054L139.272 55.0114C139.467 54.8372 139.657 54.6968 139.842 54.5901C140.35 54.2968 140.834 54.1805 141.294 54.2413C141.759 54.2994 142.139 54.5849 142.435 55.0975C142.734 55.6148 142.769 56.1181 142.54 56.6073C142.309 57.0919 141.911 57.4969 141.348 57.8222C140.775 58.1529 140.208 58.3387 139.646 58.3795L139.09 57.4165C139.627 57.4393 140.165 57.2947 140.706 56.9827C141.029 56.796 141.255 56.5889 141.382 56.3614C141.514 56.1313 141.516 55.9054 141.388 55.6837C141.121 55.2218 140.604 55.2122 139.838 55.6549C139.422 55.8949 139.066 56.1898 138.769 56.5398L137.355 53.7071Z" fill="white"/>
<path d="M144.09 55.3338C143.47 55.0819 142.951 54.5933 142.532 53.8682C142.114 53.143 141.951 52.4515 142.046 51.7935C142.142 51.1282 142.548 50.5889 143.264 50.1756C143.98 49.7623 144.648 49.6816 145.267 49.9335C145.889 50.1781 146.409 50.663 146.828 51.3882C147.246 52.1133 147.408 52.8086 147.311 53.4738C147.217 54.1318 146.812 54.6674 146.096 55.0808C145.38 55.4941 144.711 55.5785 144.09 55.3338ZM145.568 54.1663C146.307 53.7396 146.381 53.0136 145.789 51.9882C145.197 50.9628 144.531 50.6635 143.792 51.0901C143.053 51.5168 142.98 52.2428 143.572 53.2682C144.164 54.2936 144.829 54.5929 145.568 54.1663Z" fill="white"/>
<path d="M150.912 52.7253L150.219 53.1253L149.773 45.8081L150.466 45.4081L150.912 52.7253ZM148.215 47.5575C148.575 47.6267 148.863 47.8484 149.079 48.2225C149.295 48.5966 149.344 48.9592 149.227 49.3104C149.106 49.6569 148.871 49.9315 148.52 50.1341C148.164 50.3395 147.804 50.4089 147.439 50.3424C147.076 50.2686 146.787 50.0446 146.571 49.6705C146.355 49.2964 146.307 48.936 146.427 48.5895C146.549 48.2357 146.788 47.9562 147.144 47.7508C147.495 47.5482 147.852 47.4837 148.215 47.5575ZM147.269 48.815C147.243 48.9527 147.27 49.0885 147.347 49.2225C147.424 49.3564 147.529 49.4469 147.661 49.494C147.797 49.5383 147.946 49.5139 148.108 49.4205C148.26 49.3325 148.349 49.2197 148.374 49.082C148.404 48.9416 148.38 48.8044 148.303 48.6705C148.226 48.5365 148.119 48.4474 147.982 48.403C147.85 48.356 147.708 48.3764 147.556 48.4644C147.394 48.5578 147.298 48.6746 147.269 48.815ZM153.222 48.214C153.582 48.2831 153.87 48.5048 154.086 48.8789C154.302 49.253 154.351 49.6157 154.234 49.9668C154.114 50.3133 153.878 50.5879 153.527 50.7906C153.171 50.9959 152.811 51.0653 152.446 50.9988C152.083 50.925 151.794 50.701 151.578 50.3269C151.362 49.9528 151.314 49.5925 151.434 49.246C151.556 48.8922 151.795 48.6126 152.151 48.4073C152.502 48.2046 152.859 48.1402 153.222 48.214ZM152.276 49.4714C152.251 49.6091 152.277 49.745 152.354 49.8789C152.431 50.0129 152.536 50.1033 152.668 50.1504C152.804 50.1948 152.953 50.1703 153.115 50.077C153.267 49.989 153.356 49.8761 153.381 49.7384C153.411 49.598 153.387 49.4609 153.31 49.3269C153.233 49.193 153.126 49.1038 152.989 49.0594C152.857 49.0124 152.715 49.0329 152.563 49.1209C152.401 49.2142 152.306 49.331 152.276 49.4714Z" fill="white"/>
</svg>
