<svg width="212" height="213" viewBox="0 0 212 213" fill="none" xmlns="http://www.w3.org/2000/svg">
<path d="M193.073 110.311C196.649 90.0637 176.206 75.641 163.209 75.6678C133.954 75.731 120.575 92.8829 109.834 88.4445C96.7486 83.0157 112.121 50.5575 97.8027 36.4654C88.4452 27.2546 75.4639 28.1294 57.7679 42.4034C33.108 62.3073 20.5955 84.5984 21.296 98.7204C22.7283 127.548 49.9667 149.777 65.2271 161.174C77.827 170.59 90.6571 190.222 127.004 182.861C148.461 178.517 186.181 149.354 193.073 110.311Z" fill="#F9F8FE"/>
<path d="M106.004 142.224C126.43 142.224 143.236 126.828 144.944 107.278C146.109 106.885 146.949 105.815 146.949 104.546C146.949 103.304 146.151 102.255 145.029 101.841C143.878 81.7732 126.819 65.791 106.004 65.791C95.5434 65.791 86.0288 69.8417 79.0058 76.4113C78.6459 76.2594 78.2506 76.1766 77.8342 76.1766C76.1967 76.1766 74.8626 77.474 74.8626 79.0819C74.8626 79.5856 75.0038 80.0549 75.2438 80.4758C70.0348 86.9695 66.915 95.14 66.915 104.021C66.915 107.444 67.3809 110.825 68.2914 114.096C68.0444 114.393 67.882 114.773 67.882 115.187C67.882 116.139 68.6726 116.912 69.6466 116.912C70.6206 116.912 71.4112 116.139 71.4112 115.187C71.4112 114.476 70.9735 113.869 70.3454 113.6C69.4772 110.494 69.0325 107.272 69.0325 104.021C69.0325 95.6575 71.9617 87.9494 76.8602 81.8146C77.1707 81.9181 77.4954 81.9871 77.8342 81.9871C79.4717 81.9871 80.8057 80.6897 80.8057 79.0819C80.8057 78.6471 80.6998 78.2331 80.5234 77.8604C87.1581 71.6773 96.1363 67.8681 106.004 67.8681C125.647 67.8681 141.761 82.9256 142.904 101.854C141.796 102.275 141.006 103.324 141.006 104.553C141.006 105.753 141.754 106.789 142.82 107.23C141.147 125.662 125.28 140.161 105.997 140.161C99.8631 140.161 93.7859 138.663 88.4286 135.827C88.4004 134.902 87.624 134.157 86.6711 134.157C85.6971 134.157 84.9066 134.93 84.9066 135.882C84.9066 136.835 85.6971 137.607 86.6711 137.607C86.9605 137.607 87.2287 137.531 87.4687 137.414L87.3558 137.614C93.0448 140.623 99.489 142.224 106.004 142.224ZM77.8342 80.5931C76.9731 80.5931 76.2743 79.91 76.2743 79.0681C76.2743 78.2262 76.9731 77.543 77.8342 77.543C78.6953 77.543 79.3941 78.2262 79.3941 79.0681C79.3941 79.91 78.6953 80.5931 77.8342 80.5931ZM142.417 104.546C142.417 103.704 143.116 103.021 143.977 103.021C144.838 103.021 145.537 103.704 145.537 104.546C145.537 105.388 144.838 106.071 143.977 106.071C143.116 106.071 142.417 105.388 142.417 104.546Z" fill="#8A86B2"/>
<path d="M151 104.001C151 96.2372 148.918 88.95 145.297 82.6151C145.396 82.4012 145.445 82.1665 145.445 81.9112C145.445 80.9451 144.64 80.1584 143.652 80.1584C142.664 80.1584 141.86 80.9451 141.86 81.9112C141.86 82.8497 142.622 83.6157 143.575 83.6571L143.511 83.7192C146.927 89.7367 148.883 96.6444 148.883 104.001C148.883 115 144.521 125.02 137.406 132.508C137.039 132.349 136.636 132.259 136.213 132.259C134.575 132.259 133.241 133.557 133.241 135.165C133.241 135.523 133.319 135.868 133.439 136.186C126 142.259 116.429 145.923 106.004 145.923C95.4585 145.923 85.7957 142.176 78.321 135.979C78.4833 135.62 78.568 135.234 78.568 134.82C78.568 133.219 77.2411 131.914 75.5965 131.914C75.1307 131.914 74.7001 132.025 74.3119 132.211C67.3666 124.758 63.1245 114.856 63.1245 104.001C63.1245 82.5323 79.7185 64.7904 101.027 62.3682C101.543 63.217 102.489 63.7967 103.575 63.7967C104.782 63.7967 105.813 63.0928 106.279 62.0853C112.709 62.1267 118.814 63.5551 124.277 66.0877C124.277 66.0946 124.277 66.0946 124.277 66.1015C124.277 67.0676 125.082 67.8543 126.07 67.8543C127.058 67.8543 127.863 67.0676 127.863 66.1015C127.863 65.1354 127.058 64.3487 126.07 64.3487C125.901 64.3487 125.738 64.3763 125.583 64.4246C119.767 61.6643 113.259 60.084 106.385 60.0288C106.004 58.8557 104.895 58 103.568 58C102.129 58 100.929 59.0075 100.653 60.3394C78.3563 62.9341 61 81.5248 61 104.008C61 115.449 65.4961 125.89 72.8508 133.722C72.7097 134.06 72.625 134.433 72.625 134.826C72.625 136.427 73.9519 137.732 75.5965 137.732C76.0341 137.732 76.4506 137.635 76.8246 137.463C84.6876 144.025 94.8726 148 105.996 148C116.965 148 127.03 144.136 134.844 137.739C135.253 137.946 135.712 138.077 136.206 138.077C137.843 138.077 139.177 136.779 139.177 135.171C139.177 134.744 139.079 134.336 138.902 133.971C146.398 126.104 151 115.573 151 104.001ZM103.568 59.3733C104.43 59.3733 105.128 60.0564 105.128 60.8983C105.128 61.7402 104.43 62.4234 103.568 62.4234C102.707 62.4234 102.009 61.7402 102.009 60.8983C102.009 60.0564 102.707 59.3733 103.568 59.3733ZM75.5965 136.345C74.7354 136.345 74.0366 135.661 74.0366 134.82C74.0366 133.978 74.7354 133.294 75.5965 133.294C76.4576 133.294 77.1564 133.978 77.1564 134.82C77.1564 135.661 76.4576 136.345 75.5965 136.345ZM136.213 136.69C135.352 136.69 134.653 136.006 134.653 135.165C134.653 134.323 135.352 133.639 136.213 133.639C137.074 133.639 137.773 134.323 137.773 135.165C137.773 136.006 137.067 136.69 136.213 136.69Z" fill="#8A86B2"/>
<path d="M78.7732 123.495C78.9568 123.495 79.1332 123.475 79.3026 123.44C85.3798 131.397 95.0849 136.558 105.997 136.558C111.142 136.558 116.069 135.441 120.65 133.239C120.89 133.357 121.151 133.426 121.433 133.426C122.407 133.426 123.198 132.653 123.198 131.7C123.198 130.748 122.407 129.975 121.433 129.975C120.565 129.975 119.852 130.582 119.704 131.39C115.42 133.446 110.818 134.488 106.004 134.488C95.8542 134.488 86.8197 129.72 81.1236 122.35C81.5118 121.86 81.7518 121.253 81.7518 120.583C81.7518 118.982 80.4249 117.678 78.7803 117.678C78.5756 117.678 78.378 117.699 78.1874 117.733C76.0417 113.6 74.8277 108.935 74.8277 103.994C74.8277 87.1834 88.8172 73.506 106.011 73.506C112.215 73.506 117.996 75.2933 122.859 78.3573C122.796 78.5919 122.753 78.8334 122.753 79.0819C122.753 80.6828 124.08 81.9871 125.725 81.9871C126.247 81.9871 126.734 81.8422 127.158 81.6075C133.32 87.1834 137.195 95.1469 137.195 103.987C137.195 108.245 136.312 112.351 134.583 116.215C133.743 116.346 133.094 117.05 133.094 117.913C133.094 118.865 133.884 119.638 134.858 119.638C135.832 119.638 136.623 118.865 136.623 117.913C136.623 117.657 136.559 117.409 136.46 117.195C138.352 113.027 139.312 108.59 139.312 103.994C139.312 94.5189 135.148 85.9826 128.52 80.0273C128.626 79.7305 128.689 79.42 128.689 79.0888C128.689 77.4878 127.362 76.1835 125.718 76.1835C125.111 76.1835 124.546 76.3629 124.073 76.6666C118.864 73.3611 112.66 71.4358 106.004 71.4358C87.6455 71.4358 72.7031 86.0378 72.7031 103.994C72.7031 109.349 74.0371 114.4 76.3946 118.858C76.0276 119.341 75.8088 119.934 75.8088 120.576C75.8017 122.191 77.1357 123.495 78.7732 123.495ZM78.7732 119.065C79.6343 119.065 80.3331 119.748 80.3331 120.59C80.3331 121.432 79.6343 122.115 78.7732 122.115C77.9121 122.115 77.2134 121.432 77.2134 120.59C77.2134 119.748 77.9121 119.065 78.7732 119.065ZM125.711 77.5775C126.572 77.5775 127.271 78.2607 127.271 79.1026C127.271 79.9445 126.572 80.6276 125.711 80.6276C124.85 80.6276 124.151 79.9445 124.151 79.1026C124.151 78.2607 124.85 77.5775 125.711 77.5775Z" fill="#8A86B2"/>
<path fill-rule="evenodd" clip-rule="evenodd" d="M104.421 86.6941C104.256 86.7514 104.112 86.7987 104.1 86.7993C104.087 86.7998 104.029 86.9098 103.969 87.0435C103.893 87.2146 103.859 87.5831 103.855 88.2879C103.852 88.8387 103.826 89.5528 103.797 89.8749C103.75 90.4132 103.727 90.4762 103.514 90.6552C103.386 90.7624 102.917 90.9822 102.471 91.1438C100.742 91.7704 99.7548 92.3375 98.747 93.2826C97.2642 94.6731 96.5513 96.3945 96.5513 98.5844C96.5513 100.596 97.1516 101.955 98.6728 103.386C99.9723 104.609 101.387 105.385 104.458 106.56C107.083 107.565 107.739 107.905 108.475 108.636C109.304 109.46 109.493 110.501 108.991 111.477C108.337 112.75 106.253 113.428 103.898 113.135C102.194 112.923 100.658 112.496 98.9755 111.766C98.1186 111.395 97.9777 111.362 97.7401 111.482C97.5057 111.6 97.328 112.013 96.8558 113.539C96.2838 115.388 96.2134 115.742 96.3543 116.059C96.6744 116.779 98.8326 117.584 101.828 118.1C102.413 118.2 102.971 118.317 103.069 118.359C103.389 118.496 103.435 118.713 103.482 120.316C103.546 122.53 103.455 122.452 105.95 122.452C108.47 122.452 108.358 122.557 108.411 120.141C108.437 118.969 108.477 118.408 108.543 118.3C108.709 118.027 109.101 117.813 109.866 117.58C112.293 116.84 114.141 115.374 115.196 113.353C116.785 110.308 116.136 106.814 113.524 104.36C112.364 103.269 111.069 102.574 107.852 101.313C105.591 100.427 104.697 99.9662 104.021 99.337C102.916 98.3081 103.061 96.8982 104.356 96.082C105.054 95.642 105.64 95.5274 107.143 95.5367C108.962 95.5479 110.197 95.7913 111.928 96.4803C112.406 96.6705 112.912 96.8262 113.053 96.8262C113.548 96.8262 113.688 96.5472 114.451 94.0283C114.895 92.5616 114.898 92.3809 114.485 92.0145C114.056 91.6345 112.206 91.0193 110.723 90.7638C109.328 90.5233 108.996 90.427 108.828 90.2131C108.687 90.0346 108.668 89.8866 108.628 88.6999C108.579 87.2303 108.494 86.927 108.075 86.7302C107.745 86.5749 104.844 86.5463 104.421 86.6941Z" fill="#8A86B2"/>
<rect x="138.654" y="137" width="58" height="58" rx="12" transform="rotate(9.58144 138.654 137)" fill="#8A86B2"/>
<path d="M148.409 163.19L154.586 164.232L154.274 166.077L150.03 165.345L149.581 167.225C150.054 167.207 150.482 167.23 150.863 167.295C151.912 167.472 152.722 167.868 153.294 168.485C153.876 169.102 154.078 169.94 153.899 170.998C153.719 172.066 153.187 172.809 152.302 173.229C151.42 173.638 150.397 173.745 149.234 173.549C148.052 173.349 147.045 172.954 146.214 172.363L146.549 170.375C147.272 171.027 148.192 171.447 149.307 171.635C149.974 171.747 150.528 171.718 150.969 171.548C151.419 171.379 151.682 171.065 151.76 170.608C151.921 169.655 151.21 169.044 149.628 168.777C148.77 168.632 147.931 168.633 147.113 168.779L148.409 163.19Z" fill="white"/>
<path d="M155.938 173.239C155.364 172.172 155.203 170.89 155.455 169.393C155.708 167.897 156.28 166.744 157.171 165.933C158.074 165.115 159.264 164.831 160.742 165.08C162.219 165.33 163.245 165.988 163.82 167.056C164.406 168.115 164.572 169.393 164.32 170.89C164.067 172.386 163.489 173.544 162.587 174.362C161.695 175.172 160.51 175.452 159.033 175.203C157.556 174.954 156.524 174.299 155.938 173.239ZM159.352 173.316C160.877 173.573 161.818 172.644 162.175 170.528C162.532 168.412 161.948 167.225 160.423 166.967C158.898 166.71 157.957 167.639 157.6 169.755C157.243 171.871 157.827 173.058 159.352 173.316Z" fill="white"/>
<path d="M168.481 177.474L167.051 177.233L174.878 166.496L176.308 166.737L168.481 177.474ZM170.681 167.14C171.104 167.653 171.251 168.295 171.12 169.067C170.99 169.839 170.64 170.403 170.07 170.758C169.502 171.103 168.856 171.214 168.132 171.092C167.398 170.968 166.814 170.649 166.382 170.135C165.96 169.613 165.814 168.966 165.945 168.194C166.075 167.422 166.424 166.863 166.992 166.518C167.571 166.164 168.228 166.05 168.962 166.174C169.686 166.296 170.259 166.618 170.681 167.14ZM167.907 167.804C167.713 167.968 167.593 168.187 167.546 168.464C167.499 168.74 167.541 168.988 167.671 169.206C167.81 169.425 168.047 169.563 168.38 169.619C168.695 169.673 168.949 169.617 169.144 169.454C169.347 169.292 169.472 169.073 169.519 168.797C169.566 168.521 169.519 168.273 169.38 168.053C169.25 167.835 169.028 167.699 168.713 167.646C168.38 167.59 168.111 167.643 167.907 167.804ZM176.917 173.84C177.341 174.352 177.487 174.995 177.357 175.767C177.227 176.539 176.877 177.102 176.307 177.457C175.739 177.802 175.093 177.914 174.368 177.792C173.634 177.668 173.051 177.349 172.618 176.834C172.196 176.312 172.051 175.665 172.181 174.893C172.311 174.121 172.661 173.562 173.229 173.217C173.808 172.864 174.464 172.749 175.198 172.873C175.923 172.995 176.496 173.318 176.917 173.84ZM174.144 174.504C173.95 174.667 173.829 174.887 173.782 175.163C173.736 175.44 173.777 175.687 173.907 175.905C174.047 176.125 174.283 176.263 174.617 176.319C174.931 176.372 175.186 176.317 175.38 176.154C175.584 175.992 175.709 175.773 175.755 175.496C175.802 175.22 175.756 174.972 175.616 174.752C175.487 174.534 175.264 174.399 174.95 174.346C174.616 174.289 174.347 174.342 174.144 174.504Z" fill="white"/>
</svg>
