<svg width="160" height="140" viewBox="0 0 160 140" fill="none" xmlns="http://www.w3.org/2000/svg">
<path d="M148.369 28.0023C147.244 26.3878 146.006 24.8383 144.662 23.363C133.685 11.3372 119.334 6.24762 102.94 2.83844C86.0069 -0.68256 66.1806 -1.77664 49.9226 4.57023C46.0964 6.0814 42.4602 8.07613 39.5837 10.7962C28.7055 21.0449 24.9743 38.2087 12.8614 51.7759C0.748498 65.3431 -5.1604 82.2439 5.71441 98.2864C10.3174 105.081 16.1856 110.678 23.129 115.604C31.6769 121.649 39.0512 129.827 48.9321 134.557C59.3151 139.526 73.1444 141.258 84.6366 138.982C97.7467 136.386 105.436 126.062 115.443 119.035C123.333 113.486 132.773 109.853 140.503 104.129C152.348 95.3638 161.33 81.2616 159.838 67.2894C158.372 53.7253 156.486 39.6292 148.369 28.0023Z" fill="#F9F8FE"/>
<rect x="13" y="51.2937" width="90" height="90" rx="12" transform="rotate(-15 13 51.2937)" fill="#8A86B2"/>
<path d="M42.734 84.859L44.2738 84.4464L46.3595 92.2302L47.9699 91.7987L48.4582 93.621L42.9771 95.0897L42.4888 93.2673L44.297 92.7828L42.7791 87.118L41.1526 88.2806L40.6416 86.3735L42.734 84.859Z" fill="white"/>
<path d="M49.4085 83.0706L50.9483 82.658L53.034 90.4418L54.6444 90.0102L55.1327 91.8326L49.6516 93.3012L49.1633 91.4789L50.9715 90.9944L49.4536 85.3296L47.8271 86.4922L47.3161 84.5851L49.4085 83.0706Z" fill="white"/>
<path d="M57.3101 80.6505L61.0112 79.6588C62.7064 79.2046 64.1131 79.3122 65.2312 79.9816C66.3562 80.6391 67.1193 81.7165 67.5206 83.2139C67.9218 84.7114 67.8009 86.0307 67.1579 87.1721C66.5218 88.3014 65.3561 89.0932 63.6609 89.5475L59.9597 90.5392L57.3101 80.6505ZM65.1992 86.3039C65.5784 85.6471 65.6317 84.8102 65.3592 83.7931C65.0866 82.776 64.622 82.0778 63.9652 81.6986C63.3179 81.3169 62.4998 81.2585 61.5109 81.5235L59.9287 81.9475L61.5791 88.1067L63.1613 87.6827C64.1501 87.4178 64.8294 86.9582 65.1992 86.3039Z" fill="white"/>
<path d="M71.3246 87.494L69.135 88.0807L70.5255 77.1094L72.8141 76.4962L79.4898 85.3061L77.3002 85.8928L76.0839 84.2353L71.5633 85.4465L71.3246 87.494ZM72.1781 79.604L71.7579 83.5169L74.9505 82.6615L72.616 79.4866C72.4512 79.2482 72.3112 79.0081 72.1959 78.7664C72.2177 79.0735 72.2117 79.3527 72.1781 79.604Z" fill="white"/>
<path d="M84.4476 83.9777L82.3427 84.5417L81.404 81.0383L75.8224 75.6902L78.2098 75.0505L81.927 78.8087L83.2671 73.6953L85.6545 73.0556L83.5089 80.4743L84.4476 83.9777Z" fill="white"/>
<path d="M86.77 75.5578C86.5252 74.6443 86.6822 73.8553 87.241 73.1908C87.7998 72.5262 88.5972 72.0552 89.6332 71.7776C90.8763 71.4445 92.0133 71.4124 93.0443 71.6812L93.5742 73.6589C92.5746 73.2808 91.4792 73.2614 90.2882 73.6007C89.2196 73.9072 88.7648 74.3571 88.9238 74.9504C88.9945 75.2141 89.1881 75.4095 89.5048 75.5367C89.8309 75.6612 90.2082 75.7318 90.6365 75.7482C91.0718 75.7527 91.5453 75.7873 92.0573 75.852C92.5761 75.9048 93.0623 75.9865 93.5159 76.0971C93.9764 76.1958 94.394 76.417 94.7687 76.7607C95.1529 77.1019 95.4181 77.5456 95.5645 78.0919C95.7083 78.6287 95.7284 79.1179 95.6247 79.5595C95.5304 79.9987 95.3286 80.3757 95.0193 80.6908C94.7101 81.0058 94.3467 81.2697 93.9293 81.4825C93.5145 81.7047 93.0339 81.889 92.4877 82.0353C91.1127 82.4037 89.8136 82.4339 88.5904 82.1257L88.0491 80.1056C89.2906 80.5199 90.5518 80.5554 91.8326 80.2122C93.0664 79.8817 93.5987 79.4009 93.4296 78.7699C93.3539 78.4874 93.1517 78.2791 92.8231 78.1451C92.5014 77.9991 92.1216 77.9192 91.6839 77.9053C91.253 77.8794 90.7781 77.8401 90.2593 77.7873C89.7474 77.7226 89.2611 77.6409 88.8007 77.5422C88.3471 77.4316 87.9295 77.2104 87.5478 76.8786C87.1756 76.5443 86.9163 76.1041 86.77 75.5578Z" fill="white"/>
<path d="M42.3861 106.196L45.0463 105.483C45.7128 105.305 46.2635 105.297 46.6985 105.46C47.1378 105.616 47.4257 105.948 47.5624 106.458C47.7441 107.136 47.5557 107.662 46.9973 108.035C47.3598 108.044 47.6846 108.143 47.9716 108.333C48.257 108.518 48.4557 108.819 48.5675 109.236C48.656 109.566 48.6597 109.87 48.5784 110.146C48.4957 110.417 48.3452 110.643 48.1271 110.826C47.9147 111.007 47.6851 111.159 47.4383 111.281C47.1973 111.401 46.929 111.501 46.6334 111.58L44.0167 112.282L42.3861 106.196ZM47.2262 109.446C47.0865 108.925 46.6717 108.756 45.9821 108.941L44.6085 109.309L45.0278 110.874L46.3318 110.524C46.6737 110.433 46.9285 110.306 47.096 110.143C47.2636 109.98 47.307 109.748 47.2262 109.446ZM46.3276 107.031C46.2034 106.568 45.8341 106.418 45.2198 106.583L43.9766 106.916L44.3493 108.307L45.662 107.955C45.917 107.887 46.1072 107.774 46.2327 107.616C46.3565 107.452 46.3882 107.258 46.3276 107.031Z" fill="white"/>
<path d="M49.2065 108.655C49.1056 108.278 49.0829 107.927 49.1386 107.601C49.1927 107.27 49.3044 106.992 49.4738 106.766C49.649 106.539 49.8438 106.35 50.0581 106.2C50.2782 106.047 50.5129 105.938 50.7621 105.871C51.1794 105.759 51.5597 105.741 51.903 105.817C52.2521 105.891 52.5324 106.034 52.7441 106.244C52.9542 106.449 53.1273 106.7 53.2633 106.999C53.4036 107.291 53.4714 107.602 53.4667 107.932L50.5284 108.72C50.6698 108.992 50.8961 109.165 51.2073 109.237C51.517 109.303 51.8573 109.286 52.2282 109.187C52.686 109.064 53.0837 108.867 53.4212 108.597L53.6751 109.544C53.3102 109.829 52.8235 110.052 52.2149 110.215C51.5195 110.402 50.8908 110.362 50.3289 110.096C49.767 109.831 49.3929 109.35 49.2065 108.655ZM52.1704 107.441C52.1482 107.242 52.0403 107.06 51.8469 106.894C51.6534 106.729 51.3886 106.691 51.0525 106.781C50.7859 106.853 50.5787 106.995 50.4309 107.209C50.2816 107.416 50.2413 107.66 50.3101 107.94L52.1704 107.441Z" fill="white"/>
<path d="M56.5257 108.93L55.326 109.251L54.4805 106.095L53.7589 106.289L53.4864 105.272L54.2079 105.078L54.0985 104.67C54.0177 104.368 53.9942 104.095 54.0279 103.85C54.0674 103.603 54.1528 103.4 54.284 103.241C54.4137 103.076 54.5613 102.943 54.727 102.843C54.8985 102.741 55.0915 102.661 55.3059 102.604C55.6884 102.501 56.0459 102.468 56.3783 102.503L56.6508 103.52C56.4169 103.458 56.1609 103.465 55.8827 103.539C55.3843 103.673 55.1941 103.96 55.3121 104.4L55.4076 104.757L56.6855 104.415L56.9581 105.432L55.6802 105.774L56.5257 108.93Z" fill="white"/>
<path d="M58.8045 107.825C58.2542 107.557 57.8858 107.074 57.6995 106.379C57.5131 105.684 57.5911 105.082 57.9333 104.574C58.2755 104.066 58.7683 103.726 59.4116 103.554C60.0607 103.38 60.6575 103.428 61.202 103.698C61.7523 103.967 62.1206 104.449 62.307 105.144C62.4933 105.84 62.4154 106.442 62.0732 106.949C61.7367 107.456 61.244 107.796 60.5949 107.97C59.9516 108.142 59.3548 108.094 58.8045 107.825ZM61.0133 106.367C61.1471 106.101 61.1697 105.803 61.0812 105.473C60.9927 105.143 60.8248 104.899 60.5777 104.741C60.329 104.578 60.0365 104.542 59.7004 104.632C59.3643 104.722 59.1293 104.9 58.9955 105.165C58.8659 105.424 58.8454 105.718 58.9339 106.048C59.0225 106.379 59.1882 106.626 59.4311 106.791C59.6782 106.948 59.9699 106.982 60.306 106.892C60.6422 106.802 60.8779 106.627 61.0133 106.367Z" fill="white"/>
<path d="M63.9368 103.142C64.0281 102.857 64.2036 102.608 64.4635 102.396C64.7233 102.183 65.0463 102.044 65.4323 101.978L65.7468 103.151C65.4009 103.182 65.0986 103.294 64.8399 103.487C64.587 103.679 64.4301 103.917 64.3694 104.2L65.0263 106.652L63.8179 106.976L62.6998 102.803L63.7691 102.516L63.9368 103.142Z" fill="white"/>
<path d="M66.4896 104.024C66.3887 103.647 66.366 103.296 66.4217 102.97C66.4758 102.639 66.5875 102.361 66.7569 102.135C66.9321 101.908 67.1269 101.719 67.3412 101.569C67.5613 101.416 67.796 101.307 68.0452 101.24C68.4625 101.128 68.8428 101.11 69.1861 101.186C69.5352 101.26 69.8155 101.403 70.0272 101.613C70.2373 101.818 70.4104 102.069 70.5464 102.368C70.6867 102.66 70.7545 102.971 70.7498 103.301L67.8115 104.089C67.9529 104.361 68.1792 104.534 68.4904 104.606C68.8001 104.672 69.1404 104.655 69.5113 104.556C69.9691 104.433 70.3668 104.236 70.7043 103.966L70.9582 104.913C70.5933 105.198 70.1065 105.421 69.498 105.584C68.8025 105.771 68.1739 105.731 67.612 105.465C67.0501 105.2 66.676 104.719 66.4896 104.024ZM69.4535 102.81C69.4313 102.611 69.3234 102.429 69.13 102.263C68.9365 102.098 68.6717 102.06 68.3356 102.15C68.069 102.222 67.8618 102.364 67.714 102.578C67.5647 102.785 67.5244 103.029 67.5932 103.309L69.4535 102.81Z" fill="white"/>
<path d="M72.7992 98.047L75.0942 97.4321C76.8445 96.9631 77.9021 97.4096 78.267 98.7715C78.632 100.133 77.9393 101.049 76.189 101.518L75.198 101.783L75.7338 103.783L74.4298 104.132L72.7992 98.047ZM75.9424 100.354C76.7654 100.134 77.0969 99.7249 76.937 99.1279C76.777 98.531 76.2855 98.3428 75.4626 98.5633L74.4107 98.8451L74.8905 100.636L75.9424 100.354Z" fill="white"/>
<path d="M83.5398 100.536C83.5895 100.721 83.7129 100.788 83.91 100.735C83.9911 100.713 84.0633 100.681 84.1267 100.64L84.3386 101.431C84.1401 101.571 83.9279 101.671 83.7019 101.732C83.2614 101.85 82.9123 101.776 82.6546 101.509C82.3115 101.968 81.856 102.273 81.2881 102.425C80.8766 102.535 80.4986 102.516 80.154 102.366C79.8137 102.208 79.5908 101.933 79.4852 101.539C79.3967 101.208 79.4214 100.906 79.5595 100.633C79.6975 100.36 79.8868 100.151 80.1274 100.006C80.3665 99.8551 80.6396 99.7384 80.9468 99.6561C81.2887 99.5645 81.6291 99.5136 81.9681 99.5036L81.9285 99.3558C81.871 99.1413 81.7412 98.9929 81.539 98.9104C81.3367 98.8279 81.0762 98.8294 80.7575 98.9148C80.2938 99.0391 79.8292 99.2754 79.3635 99.6238L79.0839 98.5806C79.5906 98.246 80.1047 98.0089 80.6264 97.8691C81.9941 97.5026 82.8465 97.9482 83.1835 99.2059L83.5398 100.536ZM81.4183 100.303C81.1691 100.37 80.9729 100.472 80.8296 100.61C80.6864 100.748 80.6412 100.915 80.694 101.112C80.7344 101.263 80.8286 101.371 80.9767 101.437C81.1291 101.496 81.298 101.5 81.4834 101.45C81.8486 101.352 82.1312 101.156 82.3315 100.86L82.1568 100.208C81.8731 100.215 81.6269 100.247 81.4183 100.303Z" fill="white"/>
<path d="M86.4574 99.456L86.7372 96.3622L87.9891 96.0267L87.3906 101.2C87.2509 102.324 86.7869 102.992 85.9987 103.203C85.8306 103.248 85.6048 103.275 85.3211 103.283L85.0532 102.283C85.2553 102.272 85.4259 102.248 85.565 102.211C86.0055 102.093 86.2543 101.7 86.3115 101.033L86.3155 101.013L83.2077 97.3079L84.4857 96.9655L86.4574 99.456Z" fill="white"/>
<path d="M91.2386 93.1062L92.4383 92.7847L94.0688 98.8701L93.0082 99.1543L92.8452 98.5457C92.6221 99.1273 92.1831 99.5058 91.5282 99.6813C90.8965 99.8505 90.3406 99.7697 89.8606 99.4386C89.379 99.1018 89.0567 98.6291 88.8936 98.0206C88.7306 97.412 88.7741 96.8444 89.0243 96.3177C89.273 95.7852 89.7132 95.4343 90.3449 95.2651C90.9186 95.1113 91.427 95.177 91.8698 95.4621L91.2386 93.1062ZM92.1773 96.6096C92.0376 96.4359 91.8513 96.3087 91.6186 96.2282C91.3916 96.1462 91.1535 96.1385 90.9043 96.2053C90.5682 96.2954 90.3326 96.4827 90.1977 96.7673C90.0612 97.0462 90.038 97.3537 90.1281 97.6898C90.2181 98.0259 90.3928 98.2835 90.6519 98.4625C90.9095 98.6358 91.2064 98.6774 91.5425 98.5873C91.7918 98.5205 91.9941 98.3949 92.1497 98.2103C92.311 98.0242 92.4087 97.821 92.4429 97.6006L92.1773 96.6096Z" fill="white"/>
<path d="M98.6988 96.4741C98.7485 96.6596 98.8719 96.7259 99.069 96.6731C99.1501 96.6513 99.2223 96.6196 99.2857 96.5777L99.4976 97.3688C99.2992 97.509 99.0869 97.6093 98.8609 97.6699C98.4204 97.7879 98.0713 97.7138 97.8136 97.4474C97.4705 97.9058 97.015 98.2111 96.4471 98.3633C96.0356 98.4735 95.6576 98.4537 95.313 98.3038C94.9727 98.1465 94.7498 97.8708 94.6442 97.4767C94.5557 97.1463 94.5804 96.8446 94.7185 96.5716C94.8565 96.2986 95.0458 96.0895 95.2864 95.9442C95.5255 95.7932 95.7986 95.6766 96.1058 95.5943C96.4477 95.5026 96.7881 95.4518 97.1271 95.4417L97.0875 95.2939C97.03 95.0795 96.9002 94.931 96.698 94.8486C96.4957 94.7661 96.2352 94.7676 95.9165 94.853C95.4528 94.9772 94.9882 95.2135 94.5225 95.5619L94.2429 94.5187C94.7496 94.1842 95.2637 93.9471 95.7854 93.8073C97.1531 93.4408 98.0055 93.8864 98.3425 95.144L98.6988 96.4741ZM96.5773 96.2413C96.3281 96.308 96.1319 96.4103 95.9886 96.5481C95.8454 96.6858 95.8002 96.8532 95.853 97.0503C95.8934 97.201 95.9876 97.3093 96.1357 97.3752C96.2881 97.4337 96.457 97.4382 96.6424 97.3885C97.0076 97.2907 97.2902 97.0938 97.4905 96.7979L97.3158 96.1459C97.0321 96.1536 96.7859 96.1854 96.5773 96.2413Z" fill="white"/>
<path d="M101.616 95.3942L101.896 92.3003L103.148 91.9649L102.55 97.1381C102.41 98.2626 101.946 98.9304 101.158 99.1416C100.99 99.1866 100.764 99.213 100.48 99.2207L100.212 98.2209C100.414 98.2103 100.585 98.1863 100.724 98.149C101.164 98.031 101.413 97.6382 101.47 96.9707L101.475 96.9509L98.3667 93.2461L99.6447 92.9036L101.616 95.3942Z" fill="white"/>
<line x1="26.2231" y1="65.8681" x2="95.7698" y2="47.2331" stroke="white"/>
<circle cx="91.3963" cy="39.605" r="2.25" transform="rotate(-15 91.3963 39.605)" fill="white"/>
<circle cx="26.1961" cy="57.0754" r="2.25" transform="rotate(-15 26.1961 57.0754)" fill="white"/>
<circle cx="58.7957" cy="48.3402" r="2.25" transform="rotate(-15 58.7957 48.3402)" fill="white"/>
</svg>
