<svg width="480" height="268" viewBox="0 0 480 268" fill="none" xmlns="http://www.w3.org/2000/svg">
<rect x="24.5" y="0.5" width="399" height="207" rx="9.5" fill="white" stroke="#111111"/>
<rect x="360" y="162" width="120" height="106" rx="12" fill="#090020"/>
<line x1="368" y1="185.5" x2="472" y2="185.5" stroke="white"/>
<circle cx="381" cy="203" r="4.5" stroke="white"/>
<circle cx="381" cy="225" r="4.5" stroke="white"/>
<circle cx="381" cy="247" r="4.5" stroke="white"/>
<circle cx="407" cy="203" r="4.5" stroke="white"/>
<circle cx="407" cy="225" r="4.5" stroke="white"/>
<circle cx="407" cy="247" r="4.5" stroke="white"/>
<circle cx="433" cy="203" r="5" fill="#FFDE3B"/>
<circle cx="433" cy="225" r="4.5" stroke="white"/>
<circle cx="433" cy="247" r="4.5" stroke="white"/>
<circle cx="459" cy="203" r="4.5" stroke="white"/>
<circle cx="459" cy="225" r="4.5" stroke="white"/>
<circle cx="459" cy="247" r="4.5" stroke="white"/>
<path d="M51.048 43H48.144L55.248 26.2H58.248L65.328 43H62.448L60.96 39.376H52.536L51.048 43ZM56.424 29.8L53.472 36.976H60L57.048 29.8C56.92 29.448 56.816 29.136 56.736 28.864C56.656 29.136 56.552 29.448 56.424 29.8ZM75.7882 26.2H78.3562V43H76.0522V41.176C74.9322 42.6 73.4602 43.312 71.6362 43.312C69.9402 43.312 68.5642 42.728 67.5082 41.56C66.4522 40.376 65.9242 38.936 65.9242 37.24C65.9242 35.544 66.4522 34.112 67.5082 32.944C68.5642 31.76 69.9402 31.168 71.6362 31.168C73.3642 31.168 74.7482 31.768 75.7882 32.968V26.2ZM75.7642 35.824C75.4602 35.152 74.9802 34.584 74.3242 34.12C73.6842 33.656 72.9402 33.424 72.0922 33.424C71.0522 33.424 70.1962 33.784 69.5242 34.504C68.8522 35.208 68.5162 36.12 68.5162 37.24C68.5162 38.36 68.8522 39.28 69.5242 40C70.1962 40.704 71.0522 41.056 72.0922 41.056C72.9402 41.056 73.6842 40.824 74.3242 40.36C74.9802 39.896 75.4602 39.32 75.7642 38.632V35.824ZM90.5979 26.2H93.1659V43H90.8619V41.176C89.7419 42.6 88.2699 43.312 86.4459 43.312C84.7499 43.312 83.3739 42.728 82.3179 41.56C81.2619 40.376 80.7339 38.936 80.7339 37.24C80.7339 35.544 81.2619 34.112 82.3179 32.944C83.3739 31.76 84.7499 31.168 86.4459 31.168C88.1739 31.168 89.5579 31.768 90.5979 32.968V26.2ZM90.5739 35.824C90.2699 35.152 89.7899 34.584 89.1339 34.12C88.4939 33.656 87.7499 33.424 86.9019 33.424C85.8619 33.424 85.0059 33.784 84.3339 34.504C83.6619 35.208 83.3259 36.12 83.3259 37.24C83.3259 38.36 83.6619 39.28 84.3339 40C85.0059 40.704 85.8619 41.056 86.9019 41.056C87.7499 41.056 88.4939 40.824 89.1339 40.36C89.7899 39.896 90.2699 39.32 90.5739 38.632V35.824ZM101.216 34.6C101.216 33.432 101.656 32.568 102.536 32.008C103.432 31.448 104.52 31.168 105.8 31.168C107.288 31.168 108.672 31.496 109.952 32.152V34.408C109.472 34.088 108.856 33.824 108.104 33.616C107.352 33.392 106.64 33.28 105.968 33.28C105.376 33.28 104.872 33.384 104.456 33.592C104.04 33.784 103.832 34.096 103.832 34.528C103.832 34.928 104.072 35.264 104.552 35.536C105.032 35.792 105.608 36.016 106.28 36.208C106.968 36.384 107.648 36.6 108.32 36.856C108.992 37.096 109.568 37.472 110.048 37.984C110.528 38.496 110.768 39.144 110.768 39.928C110.768 41.112 110.304 41.976 109.376 42.52C108.448 43.048 107.256 43.312 105.8 43.312C103.992 43.312 102.488 42.944 101.288 42.208V39.928C102.52 40.744 103.984 41.152 105.68 41.152C107.344 41.152 108.176 40.76 108.176 39.976C108.176 39.592 107.936 39.272 107.456 39.016C106.976 38.744 106.392 38.52 105.704 38.344C105.032 38.152 104.352 37.936 103.664 37.696C102.992 37.44 102.416 37.056 101.936 36.544C101.456 36.016 101.216 35.368 101.216 34.6ZM122.785 40.336C122.785 40.896 123.065 41.176 123.625 41.176C123.817 41.176 124.073 41.128 124.393 41.032V42.88C123.913 43.072 123.369 43.168 122.761 43.168C121.609 43.168 120.841 42.72 120.457 41.824C119.225 42.816 117.777 43.312 116.113 43.312C114.993 43.312 114.041 43.008 113.257 42.4C112.473 41.776 112.081 40.904 112.081 39.784C112.081 38.44 112.585 37.464 113.593 36.856C114.601 36.232 115.809 35.92 117.217 35.92C118.145 35.92 119.145 36.032 120.217 36.256V35.848C120.217 35.112 119.953 34.52 119.425 34.072C118.897 33.624 118.153 33.4 117.193 33.4C115.769 33.4 114.385 33.696 113.041 34.288V31.936C114.545 31.424 116.017 31.168 117.457 31.168C119.137 31.168 120.441 31.584 121.369 32.416C122.313 33.248 122.785 34.512 122.785 36.208V40.336ZM117.721 37.72C116.873 37.72 116.161 37.872 115.585 38.176C115.009 38.48 114.721 38.96 114.721 39.616C114.721 40.16 114.929 40.584 115.345 40.888C115.761 41.176 116.273 41.32 116.881 41.32C118.193 41.32 119.305 40.864 120.217 39.952V38.008C119.289 37.816 118.457 37.72 117.721 37.72ZM126.092 25.48H128.66V43H126.092V25.48ZM141.623 40.336C141.623 40.896 141.903 41.176 142.463 41.176C142.655 41.176 142.911 41.128 143.231 41.032V42.88C142.751 43.072 142.207 43.168 141.599 43.168C140.447 43.168 139.679 42.72 139.295 41.824C138.063 42.816 136.615 43.312 134.951 43.312C133.831 43.312 132.879 43.008 132.095 42.4C131.311 41.776 130.919 40.904 130.919 39.784C130.919 38.44 131.423 37.464 132.431 36.856C133.439 36.232 134.647 35.92 136.055 35.92C136.983 35.92 137.983 36.032 139.055 36.256V35.848C139.055 35.112 138.791 34.52 138.263 34.072C137.735 33.624 136.991 33.4 136.031 33.4C134.607 33.4 133.223 33.696 131.879 34.288V31.936C133.383 31.424 134.855 31.168 136.295 31.168C137.975 31.168 139.279 31.584 140.207 32.416C141.151 33.248 141.623 34.512 141.623 36.208V40.336ZM136.559 37.72C135.711 37.72 134.999 37.872 134.423 38.176C133.847 38.48 133.559 38.96 133.559 39.616C133.559 40.16 133.767 40.584 134.183 40.888C134.599 41.176 135.111 41.32 135.719 41.32C137.031 41.32 138.143 40.864 139.055 39.952V38.008C138.127 37.816 137.295 37.72 136.559 37.72ZM147.162 33.376C147.61 32.656 148.274 32.096 149.154 31.696C150.034 31.296 150.986 31.144 152.01 31.24V33.76C150.986 33.616 150.058 33.752 149.226 34.168C148.394 34.584 147.802 35.2 147.45 36.016V43H144.882V31.48H147.162V33.376ZM159.017 40.168L162.449 31.48H165.137L159.737 44.56C158.633 47.232 157.089 48.568 155.105 48.568C154.641 48.568 154.137 48.504 153.593 48.376V46.192C153.945 46.304 154.337 46.36 154.769 46.36C156.001 46.36 156.953 45.464 157.625 43.672L157.865 43.096L152.393 31.48H155.129L159.017 40.168Z" fill="#111111"/>
<rect x="0.5" y="183.5" width="63" height="63" rx="11.5" fill="white" stroke="#111111"/>
<path d="M15.4237 209.704H22.3357V211.768L17.5837 211.752L17.4397 213.88C17.9517 213.773 18.4211 213.72 18.8477 213.72C20.0211 213.72 20.9757 214.003 21.7117 214.568C22.4584 215.133 22.8317 216.008 22.8317 217.192C22.8317 218.387 22.3891 219.293 21.5037 219.912C20.6184 220.52 19.5251 220.824 18.2237 220.824C16.9011 220.824 15.7331 220.579 14.7197 220.088V217.864C15.6264 218.44 16.7037 218.728 17.9517 218.728C18.6984 218.728 19.2957 218.595 19.7437 218.328C20.2024 218.061 20.4317 217.672 20.4317 217.16C20.4317 216.093 19.5464 215.56 17.7757 215.56C16.8157 215.56 15.9037 215.715 15.0397 216.024L15.4237 209.704Z" fill="#111111"/>
<path d="M25.4616 219.256C24.6403 218.2 24.2296 216.835 24.2296 215.16C24.2296 213.485 24.6403 212.125 25.4616 211.08C26.2936 210.024 27.5363 209.496 29.1896 209.496C30.8429 209.496 32.0803 210.024 32.9016 211.08C33.7336 212.125 34.1496 213.485 34.1496 215.16C34.1496 216.835 33.7336 218.2 32.9016 219.256C32.0803 220.301 30.8429 220.824 29.1896 220.824C27.5363 220.824 26.2936 220.301 25.4616 219.256ZM29.1896 218.712C30.8963 218.712 31.7496 217.528 31.7496 215.16C31.7496 212.792 30.8963 211.608 29.1896 211.608C27.4829 211.608 26.6296 212.792 26.6296 215.16C26.6296 217.528 27.4829 218.712 29.1896 218.712Z" fill="#111111"/>
<path d="M39.8865 221.56H38.2865L44.8305 208.44H46.4305L39.8865 221.56ZM40.3825 209.912C40.9371 210.392 41.2145 211.064 41.2145 211.928C41.2145 212.792 40.9371 213.469 40.3825 213.96C39.8278 214.44 39.1451 214.68 38.3345 214.68C37.5131 214.68 36.8198 214.44 36.2545 213.96C35.6998 213.469 35.4225 212.792 35.4225 211.928C35.4225 211.064 35.6998 210.392 36.2545 209.912C36.8198 209.421 37.5131 209.176 38.3345 209.176C39.1451 209.176 39.8278 209.421 40.3825 209.912ZM37.4865 211.144C37.3051 211.357 37.2145 211.619 37.2145 211.928C37.2145 212.237 37.3051 212.499 37.4865 212.712C37.6785 212.925 37.9611 213.032 38.3345 213.032C38.6865 213.032 38.9531 212.925 39.1345 212.712C39.3265 212.499 39.4225 212.237 39.4225 211.928C39.4225 211.619 39.3265 211.357 39.1345 211.144C38.9531 210.931 38.6865 210.824 38.3345 210.824C37.9611 210.824 37.6785 210.931 37.4865 211.144ZM48.3985 216.056C48.9531 216.536 49.2305 217.208 49.2305 218.072C49.2305 218.936 48.9531 219.613 48.3985 220.104C47.8438 220.584 47.1611 220.824 46.3505 220.824C45.5291 220.824 44.8358 220.584 44.2705 220.104C43.7158 219.613 43.4385 218.936 43.4385 218.072C43.4385 217.208 43.7158 216.536 44.2705 216.056C44.8358 215.565 45.5291 215.32 46.3505 215.32C47.1611 215.32 47.8438 215.565 48.3985 216.056ZM45.5025 217.288C45.3211 217.501 45.2305 217.763 45.2305 218.072C45.2305 218.381 45.3211 218.643 45.5025 218.856C45.6945 219.069 45.9771 219.176 46.3505 219.176C46.7025 219.176 46.9691 219.069 47.1505 218.856C47.3425 218.643 47.4385 218.381 47.4385 218.072C47.4385 217.763 47.3425 217.501 47.1505 217.288C46.9691 217.075 46.7025 216.968 46.3505 216.968C45.9771 216.968 45.6945 217.075 45.5025 217.288Z" fill="#111111"/>
<path d="M96.8 91.568C96.8 90.6187 97.168 89.888 97.904 89.376C98.64 88.864 99.552 88.608 100.64 88.608C101.952 88.608 103.083 88.88 104.032 89.424V90.768C103.093 90.16 101.995 89.8667 100.736 89.888C99.0187 89.888 98.16 90.432 98.16 91.52C98.16 91.9573 98.3253 92.3307 98.656 92.64C98.9867 92.9493 99.3973 93.184 99.888 93.344C100.379 93.504 100.912 93.6907 101.488 93.904C102.075 94.1067 102.613 94.32 103.104 94.544C103.595 94.7573 104.005 95.088 104.336 95.536C104.667 95.984 104.832 96.5227 104.832 97.152C104.832 97.6853 104.715 98.1547 104.48 98.56C104.256 98.9653 103.947 99.2853 103.552 99.52C103.157 99.7547 102.72 99.9253 102.24 100.032C101.76 100.139 101.243 100.192 100.688 100.192C99.2693 100.192 97.9893 99.872 96.848 99.232V97.888C97.968 98.5707 99.216 98.912 100.592 98.912C102.512 98.912 103.472 98.3573 103.472 97.248C103.472 96.8427 103.349 96.496 103.104 96.208C102.859 95.9093 102.539 95.6693 102.144 95.488C101.749 95.3067 101.312 95.1413 100.832 94.992C100.363 94.8427 99.8933 94.6827 99.424 94.512C98.9547 94.3307 98.5227 94.128 98.128 93.904C97.7333 93.6693 97.4133 93.3547 97.168 92.96C96.9227 92.5653 96.8 92.1013 96.8 91.568ZM106.315 96.16C106.315 94.9013 106.699 93.9147 107.467 93.2C108.246 92.4853 109.137 92.128 110.139 92.128C111.078 92.128 111.851 92.3627 112.459 92.832C113.078 93.3013 113.483 93.8827 113.675 94.576C113.867 95.2587 113.878 95.9733 113.707 96.72H107.595C107.67 97.4773 108.006 98.048 108.603 98.432C109.201 98.816 109.921 99.008 110.763 99.008C111.702 99.008 112.545 98.8 113.291 98.384V99.632C112.577 100.005 111.67 100.192 110.571 100.192C109.355 100.192 108.342 99.8453 107.531 99.152C106.721 98.4587 106.315 97.4613 106.315 96.16ZM112.571 95.6C112.603 95.376 112.587 95.1413 112.523 94.896C112.459 94.6507 112.342 94.4053 112.171 94.16C112.011 93.9147 111.761 93.712 111.419 93.552C111.078 93.392 110.678 93.312 110.219 93.312C109.526 93.312 108.923 93.5147 108.411 93.92C107.91 94.3253 107.638 94.8853 107.595 95.6H112.571ZM117.061 93.456C117.338 93.0827 117.722 92.768 118.213 92.512C118.714 92.256 119.253 92.128 119.829 92.128C120.757 92.128 121.52 92.4213 122.117 93.008C122.725 93.584 123.029 94.336 123.029 95.264V100H121.749V95.424C121.749 94.7307 121.557 94.208 121.173 93.856C120.8 93.4933 120.304 93.312 119.685 93.312C118.704 93.312 117.872 93.824 117.189 94.848V100H115.909V92.32H117.061V93.456ZM131.888 88.8H133.168V100H132.016V98.72C131.152 99.7013 130.117 100.192 128.912 100.192C127.813 100.192 126.896 99.808 126.16 99.04C125.434 98.272 125.072 97.312 125.072 96.16C125.072 95.008 125.434 94.048 126.16 93.28C126.896 92.512 127.813 92.128 128.912 92.128C130.128 92.128 131.12 92.576 131.888 93.472V88.8ZM131.888 95.2C131.653 94.6667 131.285 94.2187 130.784 93.856C130.282 93.4933 129.706 93.312 129.056 93.312C128.288 93.312 127.642 93.5733 127.12 94.096C126.608 94.6187 126.352 95.3067 126.352 96.16C126.352 97.0133 126.608 97.7013 127.12 98.224C127.642 98.7467 128.288 99.008 129.056 99.008C129.706 99.008 130.282 98.8267 130.784 98.464C131.285 98.1013 131.653 97.6533 131.888 97.12V95.2ZM139.594 96.16C139.594 94.9013 139.978 93.9147 140.746 93.2C141.524 92.4853 142.415 92.128 143.418 92.128C144.356 92.128 145.13 92.3627 145.738 92.832C146.356 93.3013 146.762 93.8827 146.954 94.576C147.146 95.2587 147.156 95.9733 146.986 96.72H140.874C140.948 97.4773 141.284 98.048 141.882 98.432C142.479 98.816 143.199 99.008 144.042 99.008C144.98 99.008 145.823 98.8 146.57 98.384V99.632C145.855 100.005 144.948 100.192 143.85 100.192C142.634 100.192 141.62 99.8453 140.81 99.152C139.999 98.4587 139.594 97.4613 139.594 96.16ZM145.85 95.6C145.882 95.376 145.866 95.1413 145.802 94.896C145.738 94.6507 145.62 94.4053 145.45 94.16C145.29 93.9147 145.039 93.712 144.698 93.552C144.356 93.392 143.956 93.312 143.498 93.312C142.804 93.312 142.202 93.5147 141.69 93.92C141.188 94.3253 140.916 94.8853 140.874 95.6H145.85ZM150.467 100H149.187V92.32H150.339V93.344C151.096 92.5333 151.971 92.128 152.963 92.128C154.104 92.128 154.926 92.56 155.427 93.424C156.27 92.56 157.203 92.128 158.227 92.128C159.155 92.128 159.875 92.4213 160.387 93.008C160.899 93.584 161.155 94.336 161.155 95.264V100H159.875V95.232C159.875 94.6453 159.715 94.1813 159.395 93.84C159.075 93.488 158.638 93.312 158.083 93.312C157.262 93.312 156.515 93.7333 155.843 94.576C155.875 94.8 155.891 95.0293 155.891 95.264V100H154.611V95.232C154.611 94.6453 154.451 94.1813 154.131 93.84C153.811 93.488 153.374 93.312 152.819 93.312C151.966 93.312 151.182 93.776 150.467 94.704V100ZM169.961 98.4C169.961 98.7947 170.159 98.992 170.553 98.992C170.724 98.992 170.921 98.9547 171.145 98.88V99.92C170.825 100.037 170.505 100.096 170.185 100.096C169.449 100.096 168.98 99.7867 168.777 99.168C167.956 99.8507 166.959 100.192 165.785 100.192C165.039 100.192 164.399 99.9947 163.865 99.6C163.343 99.1947 163.081 98.6133 163.081 97.856C163.081 96.9493 163.417 96.2933 164.089 95.888C164.772 95.472 165.593 95.264 166.553 95.264C167.257 95.264 167.967 95.344 168.681 95.504V95.232C168.681 94.6453 168.489 94.1813 168.105 93.84C167.721 93.488 167.183 93.312 166.489 93.312C165.519 93.312 164.585 93.504 163.689 93.888V92.64C164.692 92.2987 165.668 92.128 166.617 92.128C167.663 92.128 168.479 92.4107 169.065 92.976C169.663 93.5307 169.961 94.336 169.961 95.392V98.4ZM164.393 97.792C164.393 98.2187 164.553 98.544 164.873 98.768C165.204 98.9813 165.599 99.088 166.057 99.088C167.113 99.088 167.988 98.7147 168.681 97.968V96.56C167.956 96.4107 167.305 96.336 166.729 96.336C166.079 96.336 165.524 96.4533 165.065 96.688C164.617 96.912 164.393 97.28 164.393 97.792ZM174.037 100H172.757V92.32H174.037V100ZM173.989 89.28C174.149 89.4187 174.229 89.616 174.229 89.872C174.229 90.128 174.149 90.3307 173.989 90.48C173.829 90.6187 173.631 90.688 173.397 90.688C173.162 90.688 172.965 90.6187 172.805 90.48C172.645 90.3307 172.565 90.128 172.565 89.872C172.565 89.616 172.645 89.4187 172.805 89.28C172.965 89.1307 173.162 89.056 173.397 89.056C173.631 89.056 173.829 89.1307 173.989 89.28ZM176.775 88.32H178.055V100H176.775V88.32ZM185.246 89.936L186.51 89.616V92.32H189.582V93.504H186.51V97.472C186.51 98.0373 186.638 98.432 186.894 98.656C187.161 98.88 187.582 98.992 188.158 98.992C188.713 98.992 189.278 98.8747 189.854 98.64V99.824C189.203 100.059 188.515 100.176 187.79 100.176C187.011 100.176 186.393 99.968 185.934 99.552C185.475 99.1253 185.246 98.5067 185.246 97.696V93.504H183.806V92.32H185.246V89.936ZM192.284 99.12C191.474 98.3947 191.068 97.408 191.068 96.16C191.068 94.912 191.474 93.9307 192.284 93.216C193.095 92.4907 194.055 92.128 195.164 92.128C196.284 92.128 197.244 92.4907 198.044 93.216C198.855 93.9307 199.26 94.912 199.26 96.16C199.26 97.408 198.855 98.3947 198.044 99.12C197.244 99.8347 196.284 100.192 195.164 100.192C194.055 100.192 193.095 99.8347 192.284 99.12ZM197.18 98.224C197.714 97.712 197.98 97.024 197.98 96.16C197.98 95.296 197.714 94.6133 197.18 94.112C196.647 93.6 195.975 93.344 195.164 93.344C194.354 93.344 193.682 93.6 193.148 94.112C192.615 94.6133 192.348 95.296 192.348 96.16C192.348 97.024 192.615 97.712 193.148 98.224C193.682 98.7253 194.354 98.976 195.164 98.976C195.975 98.976 196.647 98.7253 197.18 98.224ZM206.833 93.6C207.697 92.6187 208.732 92.128 209.937 92.128C211.036 92.128 211.948 92.512 212.673 93.28C213.409 94.048 213.777 95.008 213.777 96.16C213.777 97.312 213.409 98.272 212.673 99.04C211.948 99.808 211.036 100.192 209.937 100.192C208.721 100.192 207.729 99.744 206.961 98.848V103.52H205.681V92.32H206.833V93.6ZM211.713 98.224C212.236 97.7013 212.497 97.0133 212.497 96.16C212.497 95.3067 212.236 94.6187 211.713 94.096C211.201 93.5733 210.561 93.312 209.793 93.312C209.142 93.312 208.566 93.4933 208.065 93.856C207.564 94.2187 207.196 94.6667 206.961 95.2V97.12C207.196 97.6533 207.564 98.1013 208.065 98.464C208.566 98.8267 209.142 99.008 209.793 99.008C210.561 99.008 211.201 98.7467 211.713 98.224ZM222.158 98.4C222.158 98.7947 222.356 98.992 222.75 98.992C222.921 98.992 223.118 98.9547 223.342 98.88V99.92C223.022 100.037 222.702 100.096 222.382 100.096C221.646 100.096 221.177 99.7867 220.974 99.168C220.153 99.8507 219.156 100.192 217.982 100.192C217.236 100.192 216.596 99.9947 216.062 99.6C215.54 99.1947 215.278 98.6133 215.278 97.856C215.278 96.9493 215.614 96.2933 216.286 95.888C216.969 95.472 217.79 95.264 218.75 95.264C219.454 95.264 220.164 95.344 220.878 95.504V95.232C220.878 94.6453 220.686 94.1813 220.302 93.84C219.918 93.488 219.38 93.312 218.686 93.312C217.716 93.312 216.782 93.504 215.886 93.888V92.64C216.889 92.2987 217.865 92.128 218.814 92.128C219.86 92.128 220.676 92.4107 221.262 92.976C221.86 93.5307 222.158 94.336 222.158 95.392V98.4ZM216.59 97.792C216.59 98.2187 216.75 98.544 217.07 98.768C217.401 98.9813 217.796 99.088 218.254 99.088C219.31 99.088 220.185 98.7147 220.878 97.968V96.56C220.153 96.4107 219.502 96.336 218.926 96.336C218.276 96.336 217.721 96.4533 217.262 96.688C216.814 96.912 216.59 97.28 216.59 97.792ZM227.779 98.544L230.371 92.32H231.731L227.955 101.152C227.219 102.859 226.253 103.712 225.059 103.712C224.771 103.712 224.493 103.675 224.227 103.6V102.496C224.451 102.56 224.675 102.592 224.899 102.592C225.72 102.592 226.381 101.968 226.883 100.72L227.171 100.016L223.523 92.32H224.883L227.779 98.544ZM234.608 93.68C234.907 93.1787 235.365 92.7893 235.984 92.512C236.603 92.224 237.248 92.1067 237.92 92.16V93.44C237.173 93.3547 236.512 93.4773 235.936 93.808C235.371 94.128 234.971 94.5973 234.736 95.216V100H233.456V92.32H234.608V93.68ZM240.022 99.12C239.211 98.3947 238.806 97.408 238.806 96.16C238.806 94.912 239.211 93.9307 240.022 93.216C240.833 92.4907 241.793 92.128 242.902 92.128C244.022 92.128 244.982 92.4907 245.782 93.216C246.593 93.9307 246.998 94.912 246.998 96.16C246.998 97.408 246.593 98.3947 245.782 99.12C244.982 99.8347 244.022 100.192 242.902 100.192C241.793 100.192 240.833 99.8347 240.022 99.12ZM244.918 98.224C245.451 97.712 245.718 97.024 245.718 96.16C245.718 95.296 245.451 94.6133 244.918 94.112C244.385 93.6 243.713 93.344 242.902 93.344C242.091 93.344 241.419 93.6 240.886 94.112C240.353 94.6133 240.086 95.296 240.086 96.16C240.086 97.024 240.353 97.712 240.886 98.224C241.419 98.7253 242.091 98.976 242.902 98.976C243.713 98.976 244.385 98.7253 244.918 98.224ZM249.166 88.32H250.446V100H249.166V88.32ZM253.185 88.32H254.465V100H253.185V88.32Z" fill="#111111"/>
<circle cx="64" cy="96" r="15.5" fill="white" stroke="#111111"/>
<path fill-rule="evenodd" clip-rule="evenodd" d="M56.9719 90.4226C56.7047 90.4921 56.5047 90.6107 56.3033 90.8193C56.0958 91.0341 55.9704 91.2707 55.9126 91.5563C55.8621 91.8058 55.8627 100.822 55.9132 101.067C56.0294 101.631 56.4738 102.094 57.0131 102.211C57.2524 102.263 70.7489 102.263 70.9869 102.211C71.5254 102.093 71.9751 101.626 72.0876 101.067C72.138 100.817 72.1372 91.801 72.0868 91.5563C71.9699 90.9883 71.5304 90.5313 70.9869 90.4125C70.7304 90.3564 57.1889 90.3661 56.9719 90.4226ZM67.4109 94.566C65.7182 96.3265 64.2946 97.7882 64.2475 97.8143C64.2004 97.8403 64.089 97.8616 64 97.8616C63.911 97.8616 63.7997 97.8403 63.7525 97.8143C63.7054 97.7882 62.2819 96.3265 60.5891 94.566L57.5114 91.365H64H70.4886L67.4109 94.566ZM58.8836 98.4469L56.8291 100.582V96.3117V92.0411L58.8836 94.1764L60.938 96.3117L58.8836 98.4469ZM71.1709 96.3199V100.582L69.1165 98.447L67.0621 96.3117L69.1085 94.1846C70.234 93.0147 71.1585 92.0576 71.1629 92.0576C71.1673 92.0576 71.1709 93.9756 71.1709 96.3199ZM62.3476 97.8065C63.0298 98.5081 63.1179 98.5872 63.3479 98.7051L63.6001 98.8344H63.9984C64.3935 98.8344 64.3986 98.8335 64.6471 98.7101C64.8792 98.595 64.9535 98.5283 65.6556 97.8043L66.4135 97.0228L68.4511 99.1405L70.4887 101.258H64.0001H57.5115L59.542 99.1477C60.6588 97.9869 61.5786 97.0372 61.586 97.0372C61.5934 97.0372 61.9362 97.3834 62.3476 97.8065Z" fill="#111111"/>
<rect x="48" y="136" width="160" height="8" fill="#FFD400"/>
<rect x="48" y="160" width="120" height="8" fill="#FFD400"/>
<line x1="48" y1="63.5" x2="400" y2="63.5" stroke="#111111"/>
</svg>
