<svg width="160" height="168" viewBox="0 0 160 168" fill="none" xmlns="http://www.w3.org/2000/svg">
<path d="M148.369 33.604C147.244 31.6665 146.006 29.807 144.662 28.0366C133.685 13.6051 119.334 7.49742 102.94 3.40626C86.0069 -0.819101 66.1806 -2.13205 49.9226 5.48448C46.0964 7.29794 42.4602 9.6917 39.5837 12.9559C28.7055 25.2548 24.9743 45.8521 12.8614 62.1333C0.748498 78.4145 -5.1604 98.6962 5.71441 117.948C10.3174 126.101 16.1856 132.818 23.129 138.73C31.6769 145.984 39.0512 155.798 48.9321 161.475C59.3151 167.437 73.1444 169.515 84.6366 166.784C97.7467 163.669 105.436 151.279 115.443 142.847C123.333 136.188 132.773 131.828 140.503 124.959C152.348 114.441 161.33 97.5175 159.838 80.7503C158.372 64.4726 156.486 47.5567 148.369 33.604Z" fill="#F9F8FE"/>
<path fill-rule="evenodd" clip-rule="evenodd" d="M71.9506 27.6656C71.0226 27.8452 70.0124 28.5758 69.3911 29.5164C68.9782 30.1416 68.8695 30.5243 68.3362 33.2348L67.7417 36.2562L66.5585 36.03C64.6023 35.6562 63.1195 36.2724 61.9377 37.9501L61.4011 38.7118L55.0475 74.081L48.694 109.45L48.8927 110.312C49.1635 111.486 49.7734 112.637 50.5341 113.409L51.1688 114.053L72.6896 119.668C93.5976 125.123 94.2216 125.276 94.6029 125.045C95.147 124.715 95.3355 123.674 94.9542 123.105C94.6898 122.711 93.9818 122.517 73.5375 117.228C52.7581 111.852 52.386 111.75 51.8997 111.274C51.6277 111.008 51.2999 110.498 51.1714 110.14L50.9379 109.49L55.979 81.2112L61.02 52.932L68.1268 54.7705L75.2335 56.609L75.6613 56.2775C76.2068 55.8552 76.3253 55.1953 75.9733 54.5409L75.6972 54.0273L68.586 52.1877L61.4746 50.348L62.4671 45.0663C63.4561 39.803 63.461 39.7829 63.908 39.2942C64.5004 38.6463 65.4445 38.4158 66.455 38.6723L67.2626 38.8773L67.0502 40.4129C66.8807 41.6374 66.8824 42.1654 67.0586 43.0191C67.4286 44.8131 68.4643 46.0092 70.0067 46.4235C71.1184 46.7221 72.1008 46.5401 72.9635 45.8757C73.979 45.0936 74.4388 44.2684 74.8679 42.4571L75.2279 40.9379L77.5559 41.5401L79.8837 42.1423L79.6601 43.7505C79.3357 46.082 79.7381 47.5959 81.0056 48.8124C82.305 50.0597 84.3203 50.1512 85.6908 49.0248C86.6341 48.2498 87.0774 47.3713 87.3886 45.6597L87.6623 44.1546L90.0837 44.781L92.5049 45.4073L92.2641 47.1011C92.003 48.9373 92.0633 49.4954 92.6631 50.7876C93.7502 53.1301 96.6105 53.814 98.4175 52.1635C99.286 51.3704 99.7457 50.4081 100.041 48.7656L100.283 47.4194L102.721 48.0501L105.159 48.6808L104.891 50.1876C104.587 51.901 104.689 52.9206 105.283 54.0932C106.145 55.7971 108.013 56.7102 109.625 56.2161C111.198 55.7342 112.084 54.5538 112.589 52.2689L112.937 50.693L115.265 51.2952L117.593 51.8975L117.399 53.4597C117.172 55.2916 117.307 56.3402 117.91 57.4259C118.59 58.6516 119.102 59.0426 120.492 59.3982C121.866 59.7499 122.345 59.6602 123.383 58.8565C124.314 58.135 124.817 57.2043 125.219 55.4545L125.563 53.9592L126.367 54.1712C127.373 54.4364 128.155 55.1142 128.472 55.9965C128.711 56.6627 128.709 56.6835 127.803 61.9683L126.894 67.2716L103.075 61.1098L79.2564 54.948L78.8286 55.2795C78.2832 55.7018 78.1646 56.3617 78.5166 57.0161L78.7927 57.5297L102.607 63.6903L126.421 69.8509L121.306 98.1109L116.19 126.371L115.755 126.848C115.515 127.11 115.041 127.413 114.702 127.521C114.109 127.709 113.771 127.636 106.144 125.663L98.2044 123.609L97.821 123.927C97.2756 124.379 97.162 125.196 97.5636 125.777C97.88 126.236 97.9347 126.252 106.076 128.308L114.27 130.377L115.058 130.167C116.053 129.901 117.022 129.185 117.712 128.205L118.249 127.444L124.602 92.0744L130.956 56.7052L130.729 55.7458C130.228 53.6329 129.088 52.3383 127.177 51.7118L126.022 51.3328L126.517 48.2858C126.968 45.5109 126.996 45.1582 126.825 44.3364C126.464 42.6085 125.17 41.0698 123.774 40.7087C122.326 40.334 120.642 41.1202 119.749 42.5873C119.3 43.3246 119.187 43.7176 118.66 46.3648L118.071 49.3194L115.719 48.7109L113.367 48.1025L113.856 45.38C114.447 42.0873 114.432 41.1541 113.767 39.7986C113.205 38.654 112.532 37.979 111.582 37.6074C110.017 36.995 108.29 37.6198 107.255 39.1727C106.743 39.9411 106.703 40.0834 106.173 43.0348L105.622 46.0991L103.184 45.4684L100.746 44.8377L101.285 41.8407L101.823 38.8438L101.55 37.6316C100.955 34.992 98.8125 33.5669 96.6036 34.3417C95.7475 34.642 94.8526 35.461 94.3573 36.3976C94.1944 36.7057 93.8788 38.0563 93.5463 39.8681L93.0021 42.8343L90.5641 42.2036L88.126 41.5729L88.6765 38.5086C89.2067 35.5572 89.2192 35.4079 89.0164 34.4545C88.6063 32.5267 87.2472 31.1046 85.6086 30.8884C84.6811 30.766 83.9895 30.9648 83.1128 31.6054C81.8213 32.5496 81.6591 32.9149 80.9708 36.4348L80.359 39.5636L78.0184 38.9581L75.6776 38.3525L76.1554 35.3692C76.5836 32.6964 76.6153 32.2822 76.4596 31.3886C76.0269 28.9057 74.0361 27.2619 71.9506 27.6656ZM73.6232 30.6822C74.4886 31.4052 74.4872 31.4467 73.3835 37.5907L72.39 43.1215L71.7972 43.5806C71.2913 43.9724 71.1059 44.0141 70.5305 43.8652C69.9587 43.7173 69.8 43.5858 69.4841 42.9984C68.9852 42.0705 69.0212 41.658 70.0948 35.9993C71.0907 30.7504 71.1551 30.5756 72.1857 30.3274C72.8218 30.1744 73.0965 30.2421 73.6232 30.6822ZM86.2481 33.9756C87.0796 34.7427 87.0745 34.8947 86.0227 40.7503C84.9821 46.5429 84.9072 46.7759 83.9912 47.0742C83.0019 47.3963 82.0026 46.7235 81.7798 45.5854C81.682 45.086 81.8227 44.0798 82.5778 39.8762C83.5913 34.2347 83.6507 34.0552 84.6433 33.6404C85.2684 33.379 85.6989 33.4689 86.2481 33.9756ZM99.2255 37.7701L99.5735 38.417L98.6426 43.8414C97.8464 48.482 97.6662 49.3323 97.3953 49.7262C96.5612 50.9403 94.7203 50.4641 94.3771 48.9454C94.2657 48.4527 94.3931 47.5897 95.2591 42.9771L96.2713 37.5847L96.7129 37.2148C97.304 36.7197 97.6762 36.6488 98.33 36.9069C98.7049 37.0549 98.9871 37.3269 99.2255 37.7701ZM111.445 40.4997C111.655 40.7073 111.908 41.1578 112.007 41.5007C112.176 42.0822 112.126 42.4697 111.266 47.2616C110.505 51.4971 110.288 52.4859 110.027 52.8929C109.22 54.1533 107.476 53.848 107.048 52.3709C106.873 51.77 106.918 51.4266 107.816 46.424C108.87 40.5519 108.918 40.4066 109.918 40.1051C110.54 39.9177 110.969 40.0284 111.445 40.4997ZM124.296 44.0528C124.463 44.2812 124.629 44.7518 124.666 45.0987C124.75 45.9032 123.162 54.933 122.785 55.7956C122.405 56.6655 121.647 57.0888 120.843 56.8807C120.296 56.7393 120.134 56.6008 119.812 56.0016L119.429 55.2903L120.423 49.7594C121.306 44.8406 121.452 44.186 121.741 43.8444C122.407 43.0556 123.639 43.1558 124.296 44.0528ZM67.0695 61.4232L66.6416 61.7545L65.7267 66.8475L64.8118 71.9405L65.088 72.4539L65.3641 72.9675L69.6106 74.0661C72.1064 74.7117 73.978 75.1231 74.1499 75.064C74.7066 74.8725 74.9301 74.0953 75.7656 69.4445C76.601 64.7936 76.6642 63.975 76.2227 63.5252C76.0863 63.3864 74.2398 62.8359 71.744 62.1903L67.4974 61.0917L67.0695 61.4232ZM80.9446 64.9872C80.5686 65.299 80.5435 65.4038 79.6334 70.4703L78.7055 75.6355L78.9701 76.0957C79.2299 76.5469 79.3172 76.5771 83.5388 77.6692L87.8428 78.7826L88.2262 78.465C88.6024 78.1533 88.6272 78.049 89.5416 72.9587C90.4607 67.8427 90.4702 67.7639 90.2228 67.3379C89.9819 66.9229 89.8014 66.8616 85.6501 65.7877L81.328 64.6696L80.9446 64.9872ZM94.8403 68.5254C94.507 68.7835 94.4504 69.0248 93.554 74.0149L92.6165 79.2342L92.8811 79.6944C93.1408 80.1458 93.2278 80.1757 97.4644 81.2717L101.783 82.3889L102.162 82.0122C102.525 81.6505 102.576 81.4347 103.458 76.5254L104.376 71.4154L104.112 70.9552C103.852 70.5038 103.765 70.474 99.518 69.3752C95.3801 68.3048 95.1736 68.2672 94.8403 68.5254ZM108.88 72.0223C108.336 72.3276 108.138 73.0341 107.319 77.592C106.481 82.2576 106.417 83.0757 106.859 83.5257C106.995 83.6645 108.842 84.215 111.338 84.8606L115.584 85.9592L116.012 85.6277L116.44 85.2964L117.355 80.2034L118.27 75.1104L117.994 74.597L117.718 74.0834L113.436 72.9758C110.233 72.147 109.086 71.9071 108.88 72.0223ZM73.471 68.8509L72.8681 72.2071L70.0715 71.4836L67.275 70.7602L67.8779 67.404L68.4808 64.0478L71.2773 64.7712L74.0739 65.4947L73.471 68.8509ZM87.3819 72.4496L86.7791 75.8058L83.9825 75.0823L81.186 74.3589L81.7889 71.0027L82.3918 67.6465L85.1883 68.3699L87.9848 69.0933L87.3819 72.4496ZM101.293 76.0482L100.69 79.4044L97.8935 78.681L95.097 77.9575L95.6999 74.6013L96.3027 71.2451L99.0993 71.9686L101.896 72.692L101.293 76.0482ZM115.204 79.6469L114.601 83.0031L111.804 82.2797L109.008 81.5562L109.611 78.2L110.214 74.8438L113.01 75.5673L115.807 76.2907L115.204 79.6469ZM64.0396 78.2903L63.6117 78.6215L62.7024 83.6836C61.8293 88.5439 61.8017 88.7665 62.0089 89.2758L62.2246 89.8062L66.6378 90.9479C70.9422 92.0614 71.0592 92.0823 71.3892 91.7979C71.7059 91.5248 71.7862 91.1789 72.6544 86.346L73.5813 81.1859L73.2536 80.6663L72.9258 80.1469L68.6967 79.0528L64.4675 77.9588L64.0396 78.2903ZM77.9506 81.8889L77.5226 82.2202L76.5995 87.359C75.7133 92.2926 75.6854 92.5158 75.9012 92.95C76.1229 93.3962 76.1852 93.4177 80.4944 94.5325C84.6717 95.6132 84.8782 95.6507 85.2116 95.3926C85.5449 95.1344 85.6014 94.8931 86.5009 89.8857L87.4417 84.6486L87.1279 84.1942C86.8266 83.7579 86.6461 83.6963 82.5963 82.6486L78.3784 81.5575L77.9506 81.8889ZM91.8992 85.4286L91.4572 85.6874L90.5165 90.9245C89.617 95.9319 89.5857 96.1798 89.8007 96.5798C90.0158 96.9798 90.2169 97.0477 94.3942 98.1283C98.7035 99.2431 98.7676 99.2543 99.1228 98.9573C99.4685 98.6683 99.5197 98.4512 100.406 93.5176L101.329 88.3788L101.053 87.8654L100.777 87.3518L96.5589 86.2606C92.5091 85.213 92.3236 85.1799 91.8992 85.4286ZM105.924 88.9035C105.32 89.0788 105.082 89.9299 104.222 94.9918C103.483 99.3428 103.437 99.7394 103.63 100.139C103.832 100.561 103.948 100.6 108.251 101.713L112.664 102.855L113.043 102.478C113.406 102.116 113.458 101.9 114.331 97.0395L115.24 91.9775L114.964 91.464L114.688 90.9505L110.484 89.8753C107.773 89.1816 106.154 88.8367 105.924 88.9035ZM70.441 85.7179L69.8381 89.0741L67.0416 88.3507L64.2451 87.6272L64.848 84.271L65.4509 80.9148L68.2474 81.6383L71.0439 82.3617L70.441 85.7179ZM84.352 89.3166L83.7491 92.6728L80.9526 91.9494L78.1561 91.2259L78.7589 87.8697L79.3618 84.5135L82.1584 85.237L84.9549 85.9604L84.352 89.3166ZM98.263 92.9153L97.6601 96.2715L94.8636 95.5481L92.067 94.8246L92.6699 91.4684L93.2728 88.1122L96.0694 88.8357L98.8659 89.5591L98.263 92.9153ZM112.174 96.514L111.571 99.8702L108.775 99.1467L105.978 98.4233L106.581 95.0671L107.184 91.7109L109.98 92.4343L112.777 93.1578L112.174 96.514ZM61.3232 95.007C61.1371 95.0612 60.879 95.2764 60.7495 95.4852C60.4261 96.0069 58.7568 105.296 58.8725 105.931C59.022 106.752 59.346 106.893 63.6591 108.008L67.7316 109.062L68.2086 108.751L68.6857 108.439L69.6185 103.246L70.5514 98.0529L70.2236 97.5334L69.8958 97.0139L65.7787 95.9611C63.2569 95.3161 61.5304 94.9464 61.3232 95.007ZM75.2329 98.572C75.0453 98.6128 74.7952 98.7826 74.6773 98.9494C74.5397 99.1441 74.1376 101.064 73.5524 104.322C72.7018 109.057 72.655 109.423 72.8429 109.869L73.044 110.346L77.4434 111.484L81.8429 112.622L82.19 112.287C82.5144 111.973 82.5974 111.616 83.4578 106.826C84.318 102.038 84.3653 101.67 84.1776 101.224L83.9765 100.747L79.7754 99.6221C77.4647 99.0037 75.4206 98.5312 75.2329 98.572ZM89.1438 102.171C88.9563 102.212 88.7062 102.381 88.5883 102.548C88.4507 102.743 88.0486 104.663 87.4634 107.921C86.6128 112.656 86.5659 113.022 86.7539 113.468L86.955 113.945L91.3544 115.083L95.7539 116.221L96.1009 115.886C96.4254 115.572 96.5084 115.215 97.3688 110.425C98.229 105.636 98.2763 105.268 98.0885 104.823L97.8875 104.345L93.6864 103.221C91.3757 102.602 89.3316 102.13 89.1438 102.171ZM102.723 105.941L102.246 106.252L101.313 111.445L100.38 116.638L100.708 117.158L101.035 117.677L105.108 118.731C107.787 119.424 109.312 119.75 109.564 119.684C110.247 119.505 110.366 119.111 111.28 114.024C112.194 108.936 112.22 108.519 111.66 108.018C111.452 107.833 109.951 107.376 107.272 106.683L103.2 105.629L102.723 105.941ZM67.395 102.675L66.776 106.121L64.0237 105.36L61.2714 104.599L61.8032 101.41C62.0956 99.6564 62.3846 98.1304 62.4451 98.0191C62.5295 97.8642 63.1969 97.9826 65.2847 98.5227L68.014 99.2288L67.395 102.675ZM81.3066 106.27L80.6883 109.712L77.8917 108.989L75.0952 108.265L75.7136 104.823L76.3319 101.381L79.1285 102.104L81.925 102.827L81.3066 106.27ZM95.2176 109.868L94.5993 113.311L91.8027 112.587L89.0062 111.864L89.6245 108.422L90.2429 104.979L93.0394 105.703L95.836 106.426L95.2176 109.868ZM109.057 113.449L108.454 116.805L105.685 116.137L102.916 115.47L103.536 112.02L104.155 108.571L106.908 109.331L109.66 110.092L109.057 113.449Z" fill="#8A86B2"/>
</svg>
