<svg width="212" height="213" viewBox="0 0 212 213" fill="none" xmlns="http://www.w3.org/2000/svg">
<path d="M193.073 110.311C196.649 90.0637 176.206 75.641 163.209 75.6678C133.954 75.731 120.575 92.8829 109.834 88.4445C96.7486 83.0157 112.121 50.5575 97.8027 36.4654C88.4452 27.2546 75.4639 28.1294 57.7679 42.4034C33.108 62.3073 20.5955 84.5984 21.296 98.7204C22.7283 127.548 49.9667 149.777 65.2271 161.174C77.827 170.59 90.6571 190.222 127.004 182.861C148.461 178.517 186.181 149.354 193.073 110.311Z" fill="#F9F8FE"/>
<path d="M68 84C40.9841 84 19 105.976 19 133C19 160.016 40.9841 182 68 182C95.0159 182 117 160.016 117 133C117 105.976 95.0236 84 68 84ZM71.0437 86.4196C94.3609 87.9222 113.062 106.616 114.58 129.925C114.657 131.081 113.733 132.068 112.577 132.068C111.521 132.068 110.651 131.251 110.581 130.203C109.202 108.881 92.0955 91.7827 70.7663 90.4188C69.7184 90.3494 68.9016 89.4787 68.9016 88.423C68.8939 87.2672 69.8802 86.3502 71.0437 86.4196ZM33.9643 133C33.9643 114.229 49.2368 98.9566 68.0077 98.9566C86.7786 98.9566 102.051 114.229 102.051 133C102.051 151.771 86.7786 167.043 68.0077 167.043C49.2291 167.043 33.9643 151.771 33.9643 133ZM40.1673 159.176C39.3351 160.008 37.9712 159.954 37.2161 159.06C31.2519 152.025 27.6457 142.933 27.6457 133.008C27.6457 123.206 31.1595 114.214 36.9926 107.217C37.7478 106.315 39.1194 106.254 39.9516 107.086C40.6836 107.818 40.7375 108.982 40.0749 109.775C34.8196 116.078 31.6526 124.185 31.6526 133.015C31.6526 141.962 34.9044 150.153 40.2829 156.487C40.9456 157.265 40.8994 158.436 40.1673 159.176ZM95.5013 156.741C101.011 150.368 104.355 142.07 104.355 133C104.355 124.046 101.096 115.84 95.7017 109.498C95.0313 108.704 95.0775 107.533 95.8096 106.793C96.6418 105.961 98.0057 106.015 98.7608 106.909C104.74 113.952 108.362 123.06 108.362 133C108.362 143.064 104.656 152.272 98.5373 159.353C97.7745 160.239 96.4183 160.286 95.5938 159.461C94.8618 158.714 94.8155 157.535 95.5013 156.741ZM94.0604 102.208C94.9542 102.964 95.0082 104.335 94.176 105.16C93.4439 105.892 92.265 105.946 91.4713 105.275C85.1296 99.8967 76.9385 96.6449 68 96.6449C58.9305 96.6449 50.6315 99.9891 44.259 105.499C43.4653 106.184 42.2787 106.138 41.5389 105.398C40.7144 104.574 40.7607 103.218 41.6468 102.455C48.7206 96.3367 57.9288 92.6303 68 92.6303C77.9248 92.638 87.0252 96.2442 94.0604 102.208ZM64.4169 86.4581C65.5804 86.3656 66.5822 87.2903 66.5822 88.4616C66.5822 89.5018 65.7808 90.3725 64.7405 90.4573C43.6503 92.0601 26.8058 109.059 25.4265 130.211C25.3571 131.259 24.4864 132.075 23.4307 132.075C22.2672 132.075 21.3502 131.089 21.4273 129.933C22.9376 106.801 41.3617 88.2227 64.4169 86.4581ZM64.4246 179.534C41.5158 177.793 23.1919 159.453 21.4658 136.552C21.381 135.389 22.298 134.387 23.4693 134.387C24.5172 134.387 25.388 135.188 25.465 136.229C27.0447 157.18 43.8044 173.948 64.7482 175.535C65.7885 175.612 66.5899 176.483 66.5899 177.531C66.5822 178.702 65.5881 179.627 64.4246 179.534ZM41.9165 163.761C41.0226 163.006 40.9687 161.642 41.8009 160.81C42.5329 160.078 43.7119 160.024 44.5056 160.702C50.8473 166.096 59.0538 169.355 68.0077 169.355C76.8383 169.355 84.9369 166.188 91.2478 160.933C92.0415 160.27 93.2051 160.324 93.9371 161.056C94.7693 161.888 94.7154 163.26 93.8061 164.015C86.8094 169.848 77.817 173.362 68.0154 173.362C58.0598 173.362 48.9517 169.748 41.9165 163.761ZM71.036 179.573C69.8802 179.65 68.8939 178.725 68.8939 177.569C68.8939 176.514 69.7106 175.643 70.7586 175.574C91.9336 174.217 108.948 157.342 110.543 136.229C110.62 135.188 111.49 134.387 112.538 134.387C113.71 134.387 114.634 135.381 114.542 136.552C112.793 159.638 94.1914 178.078 71.036 179.573Z" fill="#8A86B2"/>
<path fill-rule="evenodd" clip-rule="evenodd" d="M69.704 115.878C69.6468 115.89 69.3189 115.936 68.9754 115.981C65.0217 116.505 61.5254 119.392 60.233 123.2C59.4669 125.458 59.4764 127.742 60.2612 130.018L60.5246 130.782H58.1061H55.6877V133.498V136.214H59.3305H62.9734L62.9722 136.808C62.9689 138.41 62.2072 140.057 60.9281 141.227C60.3544 141.753 59.9761 142.004 59.3128 142.303C57.8183 142.974 57.4041 143.185 56.7979 143.583C56.4353 143.821 55.9132 144.208 55.6376 144.444C55.1606 144.851 53.6764 146.388 53.6758 146.475C53.6756 146.498 54.584 147.334 55.6945 148.334L57.7136 150.153L58.2405 149.583C59.3247 148.412 59.9424 147.937 60.8273 147.594C62.2106 147.058 63.8323 147.09 65.1401 147.68C65.3795 147.788 65.9308 148.124 66.365 148.428C68.0684 149.617 69.689 150.257 71.633 150.509C75.3724 150.992 79.1495 149.509 81.5186 146.627C81.9497 146.102 82.9571 144.706 82.9571 144.633C82.9571 144.607 82.0437 143.964 80.9275 143.205C79.8112 142.445 78.7987 141.752 78.6775 141.663L78.4571 141.502L77.9289 142.25C76.9556 143.627 76.3738 144.169 75.3591 144.644C74.5018 145.044 74.0416 145.141 72.9999 145.14C71.6062 145.139 70.6768 144.816 69.4264 143.898C69.0639 143.632 68.3589 143.211 67.8598 142.963L66.9524 142.512L67.3193 141.795C68.0422 140.384 68.4398 138.857 68.5034 137.25L68.5443 136.214H72.1773H75.8101V133.498V130.782H71.4161H67.0221L66.8787 130.629C66.7998 130.545 66.574 130.233 66.3769 129.935C65.4358 128.515 65.0798 127.246 65.2569 125.944C65.5031 124.133 66.5802 122.641 68.2122 121.85C68.9969 121.47 69.4854 121.344 70.366 121.295C72.5232 121.176 74.5212 122.329 75.4764 124.242C75.7885 124.868 75.8438 124.941 75.9748 124.901C76.2529 124.817 78.0656 124.252 79.5701 123.781L81.075 123.309L80.9424 122.932C80.1212 120.596 78.1778 118.393 75.8101 117.114C74.7674 116.551 73.3641 116.11 72.0841 115.943C71.4318 115.858 70.0092 115.819 69.704 115.878Z" fill="#8A86B2"/>
</svg>
