<svg width="160" height="172" viewBox="0 0 160 172" fill="none" xmlns="http://www.w3.org/2000/svg">
<path d="M152.011 107.309C161.592 89.1917 162.247 65.051 155.624 45.6981C149.929 29.037 137.253 16.3221 122.615 8.75741C105.63 -0.0207391 85.3871 -2.63369 67.1485 2.90741C62.3562 4.36361 57.6861 5.70003 53.1655 8.0955C34.6348 17.9106 38.2214 42.0986 31.7105 50.5143C26.2389 57.5935 15.7815 55.5069 9.18568 60.9314C-8.59102 75.5785 1.70004 113.304 20.781 126.845C42.9967 142.611 128.283 152.171 152.011 107.309Z" fill="#F9F8FE"/>
<path d="M50.0309 139.318L47.4062 141.942C47.4155 141.952 47.4155 141.952 47.4248 141.961L50.0494 139.336C50.0401 139.327 50.0309 139.327 50.0309 139.318Z" fill="#8A86B2"/>
<path d="M117.305 151.93L115.506 150.131L117.305 151.93Z" fill="#8A86B2"/>
<path d="M113.514 148.138L115.508 150.131L113.514 148.138Z" fill="#8A86B2"/>
<path d="M112.705 152.57L110.062 149.927C101.799 156.503 91.3561 160.444 79.9951 160.444C68.6434 160.444 58.2005 156.503 49.9371 149.937L47.2939 152.58C56.2436 159.814 67.6139 164.154 79.9951 164.154C92.3763 164.154 103.756 159.814 112.705 152.57Z" fill="#8A86B2"/>
<path d="M45.0126 139.086L47.6558 136.442C42.5364 129.663 39.4944 121.223 39.4944 112.088C39.4944 89.7557 57.6627 71.5781 80.0045 71.5781C89.1397 71.5781 97.57 74.6201 104.359 79.7395L107.002 77.0963C99.5269 71.3184 90.1691 67.8684 80.0138 67.8684C55.6317 67.8684 35.794 87.7061 35.794 112.088C35.7847 122.253 39.2347 131.62 45.0126 139.086Z" fill="#8A86B2"/>
<path d="M79.9954 52C64.1178 52 49.6777 58.2138 38.9288 68.3135C38.0292 69.1574 37.1574 70.0385 36.3042 70.9381L38.9288 73.5627L41.9059 76.5398C33.2159 85.8511 27.8831 98.3343 27.8831 112.051C27.8831 127.075 34.2824 140.625 44.4841 150.141L47.1087 147.516C47.1087 147.516 47.1087 147.516 47.0995 147.507L50.0301 144.576C57.9133 151.856 68.4396 156.308 79.9861 156.308C104.368 156.308 124.206 136.47 124.206 112.088C124.206 100.542 119.754 90.0153 112.474 82.1322C112.474 82.1229 112.465 82.1229 112.465 82.1136L112.455 82.1043L115.432 79.1273L118.057 76.5027C117.222 75.6031 116.351 74.7405 115.46 73.9059C106.149 65.2437 93.6842 59.9295 79.9954 59.9295C66.3065 59.9295 53.8419 65.2437 44.5305 73.9059L41.5534 70.9288C51.6253 61.4969 65.138 55.7004 79.9954 55.7004C111.036 55.7004 136.281 80.9543 136.281 111.986C136.281 126.843 130.485 140.356 121.053 150.428L118.122 147.497C126.784 138.186 132.098 125.721 132.098 112.032C132.098 99.642 127.739 88.2532 120.496 79.3035L117.853 81.9467C124.438 90.2193 128.389 100.671 128.389 112.042C128.389 126.037 122.407 138.659 112.882 147.507L118.437 153.062C108.365 162.494 94.8528 168.29 79.9954 168.29C48.9636 168.29 23.7097 143.036 23.7097 112.005C23.7097 98.4827 28.5045 86.0645 36.4804 76.3543L33.8465 73.7204C25.2029 84.1076 20 97.4626 20 112.005C20 145.086 46.914 172 79.9954 172C95.8729 172 110.313 165.786 121.062 155.687C121.962 154.843 122.833 153.962 123.687 153.062C133.786 142.322 140 127.873 140 111.995C140 78.914 113.086 52 79.9954 52ZM79.9954 63.6485C92.664 63.6485 104.201 68.5453 112.836 76.5398L109.859 79.5168L107.234 82.1414C108.152 82.9761 109.024 83.8479 109.859 84.766C116.462 91.9722 120.505 101.571 120.505 112.097C120.505 134.43 102.337 152.607 79.9954 152.607C69.4691 152.607 59.8702 148.573 52.664 141.961C51.7552 141.126 50.8741 140.254 50.0394 139.336L47.4148 141.961L44.4841 144.891C36.4897 136.257 31.5929 124.72 31.5929 112.051C31.6021 85.3596 53.3132 63.6485 79.9954 63.6485Z" fill="#8A86B2"/>
<g clip-path="url(#clip0_761_250968)">
<path d="M80.0014 136C66.7713 136.036 55.9991 125.23 56 112.004C56.0009 98.7927 66.7383 88.0127 79.9741 87.9995C93.264 87.9859 104.01 98.8049 104 112.024C103.989 125.242 93.224 136.039 80.0014 136ZM76.1026 100.649C75.2075 100.695 73.9388 100.739 72.6743 100.835C71.624 100.914 70.5732 101.022 69.5313 101.175C68.0419 101.394 66.5774 101.734 65.1242 102.135C63.9624 102.455 63.2198 103.607 63.4165 104.74C63.5892 105.735 64.5322 106.579 65.5379 106.605C66.0532 106.619 66.5195 106.444 67.0005 106.316C69.4188 105.671 71.888 105.373 74.3798 105.238C76.2998 105.134 78.2202 105.179 80.1346 105.34C81.3703 105.443 82.6014 105.617 83.8292 105.798C85.6838 106.072 87.4998 106.52 89.2814 107.103C90.9863 107.662 92.6273 108.364 94.176 109.276C94.7181 109.595 95.2974 109.7 95.9129 109.535C96.831 109.288 97.5139 108.539 97.6042 107.614C97.6998 106.634 97.3068 105.868 96.4588 105.366C94.2758 104.071 91.9369 103.139 89.5054 102.434C87.3976 101.822 85.256 101.366 83.0748 101.112C81.8569 100.97 80.6362 100.838 79.4136 100.751C78.4367 100.682 77.4551 100.687 76.1026 100.649ZM75.9525 108.878C75.9511 108.891 75.9496 108.903 75.9482 108.916C75.5336 108.934 75.1176 108.942 74.704 108.973C73.5671 109.06 72.4278 109.132 71.2946 109.257C69.6405 109.439 68.0259 109.82 66.4263 110.278C65.5948 110.516 64.9859 111.312 65.0141 112.178C65.0522 113.337 66.1769 114.253 67.2988 113.949C68.9647 113.498 70.6376 113.088 72.3609 112.945C73.5685 112.845 74.7816 112.731 75.9906 112.743C77.3412 112.757 78.696 112.855 80.0381 113.011C81.2508 113.152 82.4593 113.374 83.6508 113.645C86.4014 114.269 89.0066 115.277 91.4235 116.75C91.7807 116.967 92.1826 117.053 92.5967 116.987C93.4395 116.853 94.079 116.245 94.2188 115.47C94.3666 114.649 94.0179 113.886 93.2574 113.448C92.5468 113.039 91.8334 112.63 91.0969 112.271C87.5595 110.548 83.8146 109.552 79.9068 109.164C78.5925 109.034 77.2711 108.972 75.9525 108.878ZM76.2692 116.74C74.5341 116.771 72.8094 116.888 71.0998 117.164C69.792 117.376 68.4894 117.62 67.1901 117.876C66.3915 118.033 65.8598 118.868 66.0315 119.626C66.2301 120.504 66.9934 120.994 67.8555 120.827C69.0033 120.604 70.1501 120.365 71.3073 120.205C72.5369 120.035 73.7755 119.898 75.0151 119.841C76.5478 119.77 78.0828 119.815 79.6118 120.003C80.8372 120.154 82.0471 120.373 83.2381 120.695C85.232 121.236 87.119 122.03 88.8842 123.107C89.248 123.329 89.6367 123.422 90.0518 123.328C90.7195 123.177 91.1661 122.706 91.2452 122.013C91.3186 121.371 91.039 120.867 90.4903 120.532C87.1252 118.479 83.4569 117.334 79.5501 116.938C78.4602 116.828 77.3628 116.804 76.2692 116.74Z" fill="#8A86B2"/>
</g>
<defs>
<clipPath id="clip0_761_250968">
<rect width="48" height="48" fill="white" transform="translate(56 88)"/>
</clipPath>
</defs>
</svg>
