<svg width="160" height="153" viewBox="0 0 160 153" fill="none" xmlns="http://www.w3.org/2000/svg">
<path d="M137.535 22.9272C131.628 16.8745 124.786 11.892 117.291 8.18684C106.128 2.7691 93.8203 0.160965 81.5342 0.00345137C45.5972 -0.447111 42.861 43.3564 31.8106 49.4554C20.7601 55.5545 0.742116 56.2652 0.0360154 80.6248C-0.398237 95.9476 3.05107 111.706 12.7458 123.644C21.625 134.579 34.6667 140.128 47.5178 144.213C61.9505 148.814 77.2552 153.323 92.4364 150.22C108.016 147.037 118.961 134.238 131.752 125.589C139.809 120.142 147.039 114.41 152.014 105.67C152.607 104.629 153.165 103.56 153.694 102.479C160.353 88.9035 161.659 73.24 157.987 58.5473C154.697 45.3491 147.258 32.7956 137.535 22.9272Z" fill="#F9F8FE"/>
<path d="M68.0309 120.318L65.4062 122.942C65.4155 122.952 65.4155 122.952 65.4248 122.961L68.0494 120.336C68.0401 120.327 68.0309 120.327 68.0309 120.318Z" fill="#8A86B2"/>
<path d="M135.305 132.93L133.506 131.131L135.305 132.93Z" fill="#8A86B2"/>
<path d="M131.514 129.138L133.508 131.131L131.514 129.138Z" fill="#8A86B2"/>
<path d="M130.705 133.57L128.062 130.927C119.799 137.503 109.356 141.444 97.9951 141.444C86.6434 141.444 76.2005 137.503 67.9371 130.937L65.2939 133.58C74.2436 140.814 85.6139 145.154 97.9951 145.154C110.376 145.154 121.756 140.814 130.705 133.57Z" fill="#8A86B2"/>
<path d="M63.0126 120.086L65.6558 117.442C60.5364 110.663 57.4944 102.223 57.4944 93.0882C57.4944 70.7557 75.6627 52.5781 98.0045 52.5781C107.14 52.5781 115.57 55.6201 122.359 60.7395L125.002 58.0963C117.527 52.3184 108.169 48.8684 98.0138 48.8684C73.6317 48.8684 53.794 68.7061 53.794 93.0882C53.7847 103.253 57.2347 112.62 63.0126 120.086Z" fill="#8A86B2"/>
<path d="M97.9954 33C82.1178 33 67.6777 39.2138 56.9288 49.3135C56.0292 50.1574 55.1574 51.0385 54.3042 51.9381L56.9288 54.5627L59.9059 57.5398C51.2159 66.8511 45.8831 79.3343 45.8831 93.051C45.8831 108.075 52.2824 121.625 62.4841 131.141L65.1087 128.516C65.1087 128.516 65.1087 128.516 65.0995 128.507L68.0301 125.576C75.9133 132.856 86.4396 137.308 97.9861 137.308C122.368 137.308 142.206 117.47 142.206 93.0881C142.206 81.5416 137.754 71.0153 130.474 63.1322C130.474 63.1229 130.465 63.1229 130.465 63.1136L130.455 63.1043L133.432 60.1273L136.057 57.5027C135.222 56.6031 134.351 55.7405 133.46 54.9059C124.149 46.2437 111.684 40.9295 97.9954 40.9295C84.3065 40.9295 71.8419 46.2437 62.5305 54.9059L59.5534 51.9288C69.6253 42.4969 83.138 36.7004 97.9954 36.7004C129.036 36.7004 154.281 61.9543 154.281 92.9861C154.281 107.843 148.485 121.356 139.053 131.428L136.122 128.497C144.784 119.186 150.098 106.721 150.098 93.0325C150.098 80.642 145.739 69.2532 138.496 60.3035L135.853 62.9467C142.438 71.2193 146.389 81.6715 146.389 93.0417C146.389 107.037 140.407 119.659 130.882 128.507L136.437 134.062C126.365 143.494 112.853 149.29 97.9954 149.29C66.9636 149.29 41.7097 124.036 41.7097 93.0047C41.7097 79.4827 46.5045 67.0645 54.4804 57.3543L51.8465 54.7204C43.2029 65.1076 38 78.4626 38 93.0047C38 126.086 64.914 153 97.9954 153C113.873 153 128.313 146.786 139.062 136.687C139.962 135.843 140.833 134.962 141.687 134.062C151.786 123.322 158 108.873 158 92.9954C158 59.914 131.086 33 97.9954 33ZM97.9954 44.6485C110.664 44.6485 122.201 49.5453 130.836 57.5398L127.859 60.5168L125.234 63.1414C126.152 63.9761 127.024 64.8479 127.859 65.766C134.462 72.9722 138.505 82.5711 138.505 93.0974C138.505 115.43 120.337 133.607 97.9954 133.607C87.4691 133.607 77.8702 129.573 70.664 122.961C69.7552 122.126 68.8741 121.254 68.0394 120.336L65.4148 122.961L62.4841 125.891C54.4897 117.257 49.5929 105.72 49.5929 93.051C49.6021 66.3596 71.3132 44.6485 97.9954 44.6485Z" fill="#8A86B2"/>
<path fill-rule="evenodd" clip-rule="evenodd" d="M99.696 72.0155C95.809 72.3565 92.7942 73.5724 89.4068 76.1653C88.0754 77.1844 87.2423 77.946 86.3933 78.9204C84.7176 80.8438 83.5465 82.8338 82.698 85.2001L82.3681 86.1202L79.1962 86.1206L76.0244 86.1211V88.452V90.7829L78.6428 90.8045L81.2611 90.8261L81.3139 93.0764C81.343 94.314 81.3953 95.4094 81.4303 95.5107L81.4938 95.6948H78.7592H76.0244V98.2314V100.768H79.4192H82.8139L83.1389 101.648C83.5578 102.781 84.5116 104.592 85.2478 105.652C85.8565 106.528 87.1267 107.995 87.8284 108.632C90.8239 111.352 94.426 113.051 98.507 113.67C99.9617 113.891 103.137 113.869 104.762 113.628C109.314 112.952 112.889 111.125 115.642 108.067C116.035 107.63 116.385 107.227 116.419 107.17C116.46 107.103 115.7 106.164 114.289 104.536L112.097 102.006L111.367 102.67C109.994 103.921 107.886 105.419 106.678 106.003C105.974 106.344 105.072 106.636 104.101 106.838C103.352 106.994 102.967 107.02 101.356 107.021C99.2629 107.023 98.6518 106.931 97.1663 106.395C94.8307 105.552 92.8726 103.845 91.4407 101.402L91.1648 100.932H98.1978H105.231V98.3955V95.8593L97.4197 95.8384L89.6087 95.8176L89.5411 95.4902C89.504 95.3102 89.4501 94.2332 89.4216 93.0968L89.3698 91.0307H97.3003H105.231V88.4941V85.9575H97.993C94.0123 85.9575 90.7553 85.9354 90.7553 85.9084C90.7553 85.7559 91.8222 84.0829 92.348 83.4109C93.7241 81.6519 95.8415 80.1522 97.8686 79.501C99.1403 79.0924 100.05 78.9719 101.825 78.9766C103.677 78.9814 105.073 79.1473 106.211 79.4978C107.67 79.9468 109.51 81.1637 111.377 82.9144L112.541 84.0066L114.724 81.3858C116.538 79.2077 116.893 78.7402 116.823 78.6177C116.692 78.3859 114.618 76.4606 113.959 75.9574C113.041 75.2573 111.72 74.457 110.617 73.932C107.909 72.6432 105.282 72.0665 101.867 72.0109C100.884 71.995 99.9068 71.997 99.696 72.0155Z" fill="#8A86B2"/>
</svg>
