<svg width="177" height="160" viewBox="0 0 177 160" fill="none" xmlns="http://www.w3.org/2000/svg">
<path d="M144.948 145.764C131.154 161.01 107.222 153.716 99.269 143.436C81.3699 120.295 86.7058 99.2073 76.6109 93.4486C64.2956 86.4462 48.0962 118.5 28.1831 115.839C15.1685 114.101 7.89483 103.313 8.30936 80.5816C8.89707 48.8968 18.8227 25.3397 30.4041 17.2285C54.0471 0.672689 88.3121 8.54387 106.675 13.6019C121.841 17.7742 145.216 15.8607 161.703 49.0796C171.437 68.6889 171.551 116.367 144.948 145.764Z" fill="#F9F8FE"/>
<g clip-path="url(#clip0_761_250966)">
<path d="M84.4254 79.5089C84.2853 79.6781 84.275 79.8739 84.227 80.0532C83.1329 84.1257 82.0372 88.1977 80.9598 92.2746C80.8604 92.6524 80.7628 92.7786 80.3143 92.6838C78.1725 92.2332 76.0092 91.9156 73.8306 91.7144C73.2289 91.6593 73.2296 91.6567 73.3839 91.0806C76.053 81.1161 78.7246 71.1523 81.3841 61.1853C81.4845 60.8105 81.5945 60.7149 82.0049 60.8294C84.0117 61.3916 86.0248 61.9301 88.0436 62.4474C88.4369 62.5483 88.5988 62.7077 88.6707 63.1014C89.5815 68.0792 90.5131 73.0535 91.4417 78.0279C91.465 78.1511 91.4482 78.2908 91.5861 78.4138C91.7398 78.2954 91.7319 78.1111 91.7727 77.9588C92.9431 73.6049 94.1153 69.2514 95.2664 64.8923C95.3707 64.4959 95.5096 64.447 95.8965 64.5543C98.0498 65.1512 100.21 65.7247 102.373 66.2905C102.667 66.3677 102.75 66.4506 102.666 66.7608C99.9601 76.8215 97.2621 86.8834 94.5779 96.95C94.4812 97.3112 94.3614 97.3027 94.0693 97.1673C91.9626 96.1866 89.8014 95.3392 87.5911 94.6154C87.3212 94.5268 87.3049 94.3529 87.2667 94.1522C86.613 90.6487 85.9595 87.1443 85.304 83.6403C85.0641 82.3574 84.8213 81.0747 84.5754 79.793C84.5569 79.701 84.5805 79.5849 84.4254 79.5089ZM85.1875 63.6188C84.706 63.4898 84.2224 63.3684 83.7447 63.2286C83.5037 63.1577 83.4189 63.1802 83.4738 63.4552C83.6017 64.0879 83.6952 64.7267 83.8134 65.3604C84.7163 70.1928 85.6243 75.0239 86.5257 79.855C87.317 84.0953 88.1074 88.3355 88.8813 92.5775C88.9507 92.9561 89.0911 93.1569 89.483 93.2845C90.3152 93.5547 91.1234 93.8936 91.9457 94.1938C92.1235 94.2586 92.3206 94.4828 92.4724 94.3576C92.6317 94.2253 92.4897 93.9705 92.4533 93.774C91.4905 88.6254 90.5193 83.4773 89.5596 78.3278C88.7071 73.7555 87.8595 69.1827 87.0294 64.6074C86.9546 64.1965 86.7878 63.9995 86.3709 63.9268C85.9709 63.8577 85.5818 63.7235 85.1875 63.6188ZM93.9463 91.4169C93.9759 91.4221 94.0061 91.4283 94.0357 91.4335C94.0617 91.3716 94.0955 91.3118 94.1127 91.2475C94.4656 89.9376 94.8161 88.6262 95.1672 87.3158C96.8817 80.9172 98.5933 74.5186 100.317 68.1226C100.404 67.803 100.37 67.6662 100.007 67.5805C99.081 67.3615 98.1592 67.1208 97.2511 66.8394C96.8266 66.7076 96.695 66.8065 96.5882 67.2085C95.2203 72.37 93.8337 77.5273 92.4482 82.684C92.3895 82.9031 92.3938 83.111 92.436 83.3318C92.6328 84.3555 92.819 85.3801 93.0101 86.4042C93.3215 88.0752 93.634 89.7456 93.9463 91.4169ZM82.0797 66.42C82.0437 66.4176 82.008 66.4144 81.972 66.412C81.936 66.5465 81.9 66.681 81.8641 66.8147C81.1354 69.5343 80.4064 72.2549 79.6777 74.9746C78.3825 79.8082 77.0845 84.642 75.7937 89.4769C75.6345 90.0744 75.519 90.0362 76.2586 90.1128C77.1902 90.2083 78.1152 90.3492 79.0332 90.5271C79.3589 90.5899 79.4754 90.516 79.5577 90.2053C80.884 85.2131 82.2225 80.2251 83.5628 75.2367C83.6288 74.9906 83.6385 74.7547 83.5896 74.5031C83.3708 73.3792 83.1638 72.2538 82.9538 71.1286C82.6613 69.5588 82.3705 67.9894 82.0797 66.42Z" fill="#8A86B2"/>
</g>
<path d="M98.3519 40.363C77.0496 34.655 55.0716 47.3388 49.3621 68.6472C43.6541 89.9495 56.344 111.929 77.6464 117.637C98.9487 123.345 120.928 110.655 126.636 89.3528C132.346 68.0444 119.66 46.0725 98.3519 40.363ZM100.241 42.9139C118.309 49.0252 129.106 67.7167 125.378 86.4172C125.194 87.3449 124.257 87.9273 123.346 87.6831C122.513 87.46 121.999 86.632 122.166 85.791C125.583 68.6874 115.707 51.5906 99.177 46.0087C98.3653 45.7326 97.9052 44.8734 98.1283 44.041C98.3664 43.128 99.3379 42.6134 100.241 42.9139ZM61.1616 71.8089C65.1275 57.0079 80.3969 48.1921 95.1979 52.158C109.999 56.1239 118.815 71.3933 114.849 86.1943C110.883 100.995 95.6135 109.811 80.8125 105.845C66.0053 101.878 57.1957 86.6099 61.1616 71.8089ZM60.5223 93.7595C59.6902 94.2399 58.6262 93.9092 58.2196 93.0448C55.0032 86.2374 54.0808 78.3058 56.1777 70.48C58.2486 62.7513 62.9191 56.4031 68.9969 52.1186C69.7828 51.5672 70.8774 51.8084 71.3577 52.6404C71.7803 53.3723 71.577 54.3012 70.8868 54.787C65.4112 58.6468 61.2013 64.3696 59.3356 71.3326C57.4454 78.3868 58.2788 85.5326 61.1816 91.6634C61.5397 92.4171 61.2558 93.3309 60.5223 93.7595ZM104.668 103.531C110.359 99.6698 114.749 93.8325 116.665 86.6811C118.557 79.6209 117.721 72.4613 114.808 66.3211C114.447 65.5537 114.731 64.6399 115.464 64.2113C116.296 63.7309 117.36 64.0616 117.767 64.926C120.994 71.7427 121.925 79.6897 119.825 87.5277C117.699 95.4629 112.831 101.941 106.51 106.232C105.721 106.769 104.642 106.519 104.166 105.695C103.747 104.951 103.96 104.011 104.668 103.531ZM115.054 60.2265C115.599 61.0108 115.352 62.1037 114.521 62.578C113.789 63.0006 112.848 62.794 112.364 62.0977C108.5 56.5168 102.728 52.2221 95.6802 50.3336C88.5288 48.4174 81.2785 49.301 75.0896 52.2989C74.3189 52.6719 73.3929 52.3848 72.9659 51.6452C72.49 50.8208 72.813 49.7612 73.6729 49.347C80.5433 46.0172 88.5872 45.0402 96.5285 47.168C104.353 49.271 110.766 54.0373 115.054 60.2265ZM95.0072 41.5441C95.9442 41.7171 96.5387 42.6578 96.2913 43.5814C96.0715 44.4016 95.2556 44.9189 94.4174 44.7659C77.4489 41.5738 60.5754 51.4184 55.0188 67.8055C54.7427 68.6172 53.8835 69.0773 53.0511 68.8542C52.1337 68.6084 51.619 67.6369 51.924 66.7418C58.0023 48.8209 76.4551 38.0644 95.0072 41.5441ZM75.3481 114.937C57.6522 108.724 47.0783 90.3917 50.5559 71.9692C50.7349 71.0338 51.6695 70.4377 52.5931 70.6852C53.4194 70.9066 53.9367 71.7225 53.7777 72.559C50.5966 89.4133 60.2691 106.176 76.4482 111.852C77.2522 112.133 77.7001 112.989 77.4787 113.815C77.2252 114.737 76.246 115.256 75.3481 114.937ZM60.9328 97.7443C60.3876 96.96 60.6332 95.8731 61.4652 95.3928C62.1971 94.9702 63.1381 95.1768 63.6207 95.8791C67.4816 101.472 73.2638 105.776 80.3241 107.668C87.2871 109.534 94.3421 108.748 100.429 105.937C101.194 105.582 102.101 105.871 102.523 106.603C103.003 107.435 102.671 108.505 101.795 108.908C95.0452 112.029 87.2122 112.9 79.4835 110.829C71.6334 108.726 65.2152 103.952 60.9328 97.7443ZM80.5531 116.365C79.6254 116.181 79.0431 115.244 79.2873 114.332C79.5103 113.5 80.3384 112.986 81.1793 113.153C98.1626 116.557 115.144 106.845 120.862 90.5343C121.143 89.7303 121.999 89.2824 122.825 89.5038C123.749 89.7512 124.268 90.7304 123.947 91.6344C117.691 109.468 99.1272 120.078 80.5531 116.365Z" fill="#8A86B2"/>
<defs>
<clipPath id="clip0_761_250966">
<rect width="22" height="32" fill="white" transform="translate(81.5146 60.6982) rotate(15)"/>
</clipPath>
</defs>
</svg>
