<svg width="160" height="140" viewBox="0 0 160 140" fill="none" xmlns="http://www.w3.org/2000/svg">
<path opacity="0.03" d="M148.369 28.0084C147.244 26.3935 146.006 24.8437 144.662 23.3681C133.685 11.3397 119.334 6.24898 102.94 2.83906C86.0069 -0.682708 66.1806 -1.77703 49.9226 4.57123C46.0964 6.08272 42.4602 8.07788 39.5837 10.7986C28.7055 21.0495 24.9743 38.217 12.8614 51.7871C0.748498 65.3573 -5.1604 82.2617 5.71441 98.3077C10.3174 105.103 16.1856 110.702 23.129 115.629C31.6769 121.675 39.0512 129.855 48.9321 134.586C59.3151 139.556 73.1444 141.288 84.6366 139.012C97.7467 136.415 105.436 126.089 115.443 119.06C123.333 113.51 132.773 109.877 140.503 104.151C152.348 95.3845 161.33 81.2793 159.838 67.3041C158.372 53.7369 156.486 39.6378 148.369 28.0084Z" fill="#3E1BDB"/>
<path d="M113.671 64.7507L109.855 52.5945C110.37 52.3707 110.625 51.7252 110.434 51.0074C110.21 50.1689 109.462 49.5555 108.762 49.6373C108.741 49.6397 108.721 49.6486 108.7 49.651L104.907 44.2385C105.055 44.0313 105.107 43.737 105.023 43.4193C104.877 42.8731 104.388 42.4718 103.932 42.525C103.82 42.538 103.721 42.5758 103.639 42.6378L98.706 36.9261C98.918 36.6132 98.992 36.1722 98.8652 35.6958C98.642 34.8573 97.8935 34.2439 97.1934 34.3257C96.8592 34.3647 96.5939 34.5594 96.4388 34.8395L90.3175 30.4784C90.3529 30.3236 90.3496 30.1471 90.3006 29.9629C90.1552 29.4166 89.6655 29.0153 89.2094 29.0686C88.9389 29.1002 88.7372 29.2875 88.6529 29.5462L80.1917 25.9888C80.2109 25.8556 80.1986 25.7064 80.1597 25.5603C80.0142 25.014 79.5246 24.6127 79.0684 24.666C78.66 24.7137 78.4206 25.1084 78.4698 25.5808L69.5815 25.1648C69.2619 23.9642 68.1917 23.0871 67.1892 23.2042C66.2451 23.3145 65.7061 24.2682 65.9154 25.3834L59.5354 27.7332C59.3302 27.3118 58.9204 27.0256 58.5333 27.0709C58.0771 27.1241 57.8242 27.6122 57.9696 28.1584C58.0102 28.3109 58.0809 28.4533 58.1695 28.5805L52.0415 33.8287C51.8234 33.6052 51.5494 33.48 51.2789 33.5116C50.8228 33.5649 50.5699 34.0529 50.7153 34.5992C50.7644 34.7834 50.8595 34.9557 50.9726 35.0931L47.4585 40.5666C47.1628 40.3391 46.8252 40.2213 46.491 40.2604C45.7909 40.3421 45.4043 41.0881 45.6276 41.9266C45.7561 42.4094 46.0586 42.8063 46.4248 43.0518L44.7315 49.5308C44.6225 49.4911 44.5097 49.4781 44.393 49.4917C43.9368 49.545 43.6839 50.033 43.8294 50.5793C43.9139 50.8969 44.1173 51.1679 44.3609 51.3229L43.592 57.2682C43.5708 57.2707 43.5479 57.2668 43.5267 57.2693C42.8266 57.351 42.44 58.097 42.6632 58.9355C42.856 59.6597 43.4393 60.2072 44.0421 60.294L46.6759 72.3655C45.8081 72.5979 45.3498 73.588 45.6457 74.6997C45.9653 75.9003 47.0356 76.7774 48.038 76.6603C48.1282 76.6498 48.208 76.6208 48.2948 76.5976L54.2601 87.4809C54.1811 87.739 54.181 88.0469 54.2656 88.3645C54.4888 89.203 55.2373 89.8164 55.9374 89.7347C55.948 89.7334 55.9569 89.7258 55.9728 89.724L61.1669 95.1628C61.1768 95.2206 61.1814 95.279 61.1966 95.3362C61.3421 95.8825 61.8317 96.2838 62.2878 96.2305C62.3091 96.228 62.3233 96.2198 62.3392 96.218L72.6073 102.577C72.6165 102.694 72.6327 102.817 72.6665 102.944C72.8897 103.782 73.6382 104.396 74.3383 104.314C74.7202 104.269 75.0039 104.02 75.1527 103.675L83.5379 105.735C83.5522 105.871 83.5735 106.012 83.6107 106.152C83.9303 107.353 85.0005 108.23 86.003 108.113C86.9152 108.006 87.4483 107.112 87.2949 106.043L93.3453 105.31C93.6518 105.968 94.2893 106.411 94.8886 106.341C95.5888 106.26 95.9753 105.514 95.7521 104.675C95.7386 104.624 95.7161 104.581 95.7026 104.53L103.027 100.426C103.343 100.71 103.731 100.874 104.108 100.83C104.808 100.749 105.194 100.003 104.971 99.1642C104.937 99.0371 104.888 98.9119 104.829 98.7943L111.077 90.6896C111.151 90.7006 111.229 90.7046 111.308 90.6953C111.855 90.6315 112.154 90.0528 111.98 89.3986C111.945 89.2652 111.891 89.1469 111.827 89.03L113.853 82.9575C113.858 82.9569 113.869 82.9557 113.874 82.955C114.574 82.8733 114.961 82.1273 114.738 81.2888C114.652 80.9648 114.48 80.6704 114.271 80.4394L114.272 69.082C114.397 69.1001 114.522 69.0986 114.65 69.0837C115.652 68.9666 116.205 67.9 115.885 66.6994C115.579 65.589 114.617 64.7515 113.671 64.7507ZM104.373 44.5105C104.389 44.5086 104.406 44.5131 104.422 44.5113L108.056 50.0865C107.969 50.2145 107.909 50.3591 107.876 50.5202C106.773 50.3215 105.186 50.0287 103.582 49.7379C103.913 47.5705 104.214 45.5377 104.373 44.5105ZM112.214 81.649L108.314 82.694L105.854 77.0472L112.138 81.0356C112.126 81.214 112.143 81.4019 112.195 81.5988C112.204 81.6109 112.209 81.63 112.214 81.649ZM100.681 84.8758C100.745 85.1172 100.857 85.3333 100.991 85.5273L96.4545 90.5503C96.2364 90.3269 95.9555 90.1959 95.685 90.2275C95.2288 90.2808 94.9759 90.7688 95.1214 91.3151C95.1298 91.3469 95.1419 91.3717 95.1503 91.4034L87.5348 94.022C87.2501 93.302 86.5798 92.7974 85.9434 92.8717C85.3069 92.9461 84.9323 93.5727 85.0436 94.3195L77.8855 93.4591C77.8807 93.4204 77.8741 93.3753 77.864 93.3372C77.7186 92.7909 77.2289 92.3896 76.7728 92.4429C76.5023 92.4744 76.3059 92.6611 76.2163 92.9205L69.3615 89.2344C69.3923 89.0213 69.3808 88.7934 69.3166 88.552C69.0933 87.7135 68.3449 87.1001 67.6447 87.1818C67.422 87.2078 67.2354 87.3082 67.0819 87.4506L61.6891 81.7992C61.7603 81.5944 61.772 81.3507 61.7027 81.0902C61.5353 80.4613 60.974 79.9964 60.4436 80.0583C60.4383 80.0589 60.4383 80.0589 60.4383 80.0589L56.3056 72.3412C56.5572 72.1154 56.6643 71.7164 56.5476 71.2781C56.4106 70.7636 56.0092 70.3651 55.5742 70.2718L54.2268 64.1217C54.7554 63.9093 55.0227 63.2493 54.8299 62.5251C54.6879 61.9915 54.3294 61.5487 53.9136 61.3222L53.8418 54.9511C54.1877 54.8124 54.3623 54.3794 54.2354 53.903C54.1999 53.7696 54.1466 53.6514 54.072 53.5356L57.4337 45.2505C57.5815 45.2922 57.7349 45.3136 57.8834 45.2962C58.5835 45.2145 58.9701 44.4685 58.7469 43.63C58.7249 43.5474 58.694 43.4724 58.6631 43.3974L67.5094 37C67.7608 37.2457 68.0839 37.3914 68.3916 37.3554C68.8106 37.3065 69.0831 36.9537 69.1096 36.4987L74.0052 35.9269C74.2651 36.3485 74.7033 36.6183 75.1223 36.5693C75.4352 36.5328 75.6584 36.3234 75.7677 36.0355L87.7568 40.1698C87.7585 40.1762 87.7602 40.1825 87.7619 40.1889C87.9073 40.7352 88.3969 41.1365 88.8531 41.0832C88.9061 41.077 88.9575 41.0645 89.0071 41.0456L96.2626 47.9008C96.1232 48.1987 96.087 48.5763 96.1935 48.9765C96.4167 49.815 97.1652 50.4284 97.8653 50.3466C97.9608 50.3354 98.0512 50.3052 98.1363 50.2757L101.381 56.322C101.222 56.5241 101.161 56.8324 101.249 57.1627C101.371 57.6201 101.726 57.9651 102.108 58.0449L104.165 64.6033C103.81 64.7889 103.633 65.2549 103.77 65.7695C103.887 66.2078 104.194 66.5584 104.547 66.7137L104.648 74.9021C104.643 74.9027 104.643 74.9027 104.643 74.9027C104.118 74.9641 103.824 75.5224 103.993 76.1576C104.062 76.4181 104.199 76.6445 104.372 76.8208L102.222 83.3531C102.01 83.2534 101.777 83.202 101.555 83.228C100.846 83.2977 100.459 84.0437 100.681 84.8758ZM101.905 86.2066L102.369 90.3769L96.9063 91.015L101.467 86.0022C101.6 86.0915 101.75 86.1592 101.905 86.2066ZM95.7195 92.1033L95.0996 96.7802L87.6709 94.7593C87.6711 94.7397 87.6714 94.72 87.6699 94.694L95.5461 91.986C95.602 92.0319 95.6616 92.0707 95.7195 92.1033ZM85.2513 94.9764L80.4876 98.1593L77.7003 94.2012C77.7379 94.1575 77.7701 94.1145 77.799 94.0587L85.2513 94.9764ZM75.9912 93.4511L70.5546 94.086L68.838 90.0619C68.966 89.988 69.0696 89.8842 69.1506 89.7569L75.9912 93.4511ZM56.5513 87.5212L60.3973 82.3496L61.0012 88.2132L56.7968 88.1147C56.7917 88.0957 56.7919 88.076 56.7886 88.0633C56.7378 87.8727 56.6553 87.6859 56.5513 87.5212ZM45.135 58.4831C46.1896 57.9866 47.53 57.3519 48.842 56.7336C50.1521 58.5325 51.4936 60.3669 52.4182 61.6213C52.2274 61.9318 52.1642 62.3518 52.286 62.8091C52.3705 63.1268 52.5349 63.4154 52.737 63.6407L51.3492 66.3572L45.1666 59.547C45.2528 59.2749 45.2671 58.9589 45.1775 58.6222C45.171 58.5771 45.1485 58.5339 45.135 58.4831ZM52.8091 61.2613C51.9036 60.0374 50.6125 58.2691 49.3284 56.5065C50.8161 55.8088 52.2063 55.1552 53.014 54.7792C53.0962 54.8417 53.1874 54.8965 53.2841 54.9311L53.3382 61.1536C53.2765 61.1477 53.2095 61.1424 53.1458 61.1499C53.0239 61.1641 52.9139 61.2032 52.8091 61.2613ZM53.6894 64.1779L55.0298 70.3223C55.0103 70.3311 54.9908 70.3399 54.9765 70.3481L51.8112 66.86L53.2515 64.0325C53.3919 64.1078 53.5378 64.1629 53.6894 64.1779ZM54.6465 70.7928C54.5752 70.9976 54.5635 71.2413 54.6328 71.5017C54.6362 71.5144 54.6449 71.5265 54.65 71.5456L49.0679 73.7498C48.9506 73.5146 48.8085 73.2889 48.6447 73.105L51.5578 67.3874L54.6465 70.7928ZM49.2901 74.3788L54.9857 72.1286C55.0764 72.2228 55.1743 72.3031 55.2795 72.3694L55.2223 78.2971L49.3161 75.319C49.3654 75.0316 49.3638 74.7174 49.2901 74.3788ZM55.8399 72.6052L59.9622 80.3045C59.8871 80.3918 59.8329 80.4964 59.7927 80.6125L55.7804 78.5856L55.8399 72.6052ZM60.9518 82.3372C60.9853 82.3399 61.0136 82.3431 61.0454 82.3394C61.1674 82.3251 61.2703 82.2804 61.3645 82.2235L66.7868 87.9239C66.7464 88.0596 66.7235 88.1998 66.7217 88.3572L61.5606 88.2395L60.9518 82.3372ZM50.6102 47.9272L56.7726 44.8627C56.8023 44.892 56.832 44.9213 56.867 44.9499L53.5688 53.0835C53.5004 53.0522 53.4282 53.0279 53.3525 53.0105L50.6102 47.9272ZM57.92 42.4756L58.4823 35.6308L66.98 36.5313L58.3028 42.8042C58.1861 42.6737 58.0585 42.5642 57.92 42.4756ZM76.0126 35.4763L83.5328 32.7052L87.84 39.3938C87.8131 39.4363 87.7878 39.485 87.7731 39.5326L76.0126 35.4763ZM89.6986 40.9517L97.2726 42.4709L97.3097 47.2938C97.2197 47.2847 97.1315 47.2819 97.0413 47.2924C96.8663 47.3128 96.7084 47.3771 96.5802 47.4707L89.6986 40.9517ZM102.002 56.0661C101.946 56.0596 101.884 56.0537 101.826 56.0606L98.5395 49.9207C98.6274 49.7991 98.698 49.6533 98.7369 49.4916C99.713 49.6658 101.258 49.9438 102.914 50.2482C102.568 52.4827 102.221 54.7306 102.002 56.0661ZM102.701 57.8708L105.929 60.546L104.756 64.5409C104.733 64.537 104.715 64.5325 104.692 64.5286L102.626 57.9385C102.655 57.9221 102.674 57.8936 102.701 57.8708ZM104.894 77.1397C105.007 77.1724 105.126 77.1911 105.243 77.1775C105.275 77.1738 105.305 77.1637 105.33 77.1542L107.804 82.8322L103.015 84.112C102.932 83.9645 102.829 83.8258 102.716 83.708L104.894 77.1397ZM105.193 75.0154L105.103 66.8517L108.247 72.4579L105.523 75.2715C105.424 75.1652 105.314 75.0799 105.193 75.0154ZM105.515 66.5089C105.579 66.4227 105.63 66.3251 105.667 66.2161L112.225 67.0417C112.233 67.0735 112.236 67.1059 112.245 67.1376C112.324 67.4362 112.452 67.7095 112.606 67.96L108.629 72.0661L105.515 66.5089ZM112.163 66.4005L105.678 65.5794C105.674 65.5667 105.676 65.5534 105.671 65.5344C105.602 65.2739 105.467 65.0539 105.292 64.8712L106.44 60.9645L112.264 65.7927C112.205 65.9829 112.171 66.1834 112.163 66.4005ZM106.098 59.9695L102.935 57.3523C102.945 57.2266 102.933 57.0971 102.896 56.9574C102.833 56.7223 102.708 56.5207 102.546 56.3629C102.768 55.0007 103.13 52.6595 103.483 50.352C105.035 50.6358 106.623 50.9285 107.87 51.1562C107.878 51.2076 107.887 51.2591 107.9 51.3099C107.99 51.6465 108.166 51.9403 108.388 52.1764L106.098 59.9695ZM103.001 49.6289C101.357 49.3297 99.7715 49.0433 98.7496 48.8613C98.738 48.7972 98.7317 48.7324 98.7148 48.6689C98.5829 48.1734 98.2647 47.7586 97.8773 47.5157L97.8398 42.5881L103.404 43.7067C103.49 43.9456 103.632 44.1516 103.812 44.2943C103.65 45.3482 103.339 47.428 103.001 49.6289ZM98.0053 37.3551C98.1114 37.3427 98.2124 37.3113 98.3047 37.2677L103.308 43.0564L97.8366 41.9597L97.7987 37.3596C97.871 37.3642 97.9364 37.3631 98.0053 37.3551ZM97.2323 37.1834L97.2694 41.8425L89.5439 40.2886L96.6036 36.5887C96.7807 36.8432 96.9937 37.0475 97.2323 37.1834ZM89.6169 31.0514C89.6557 31.0534 89.6946 31.0555 89.737 31.0505C89.8431 31.0381 89.9371 31.0009 90.0154 30.9459L96.2751 35.3957C96.2624 35.5741 96.276 35.769 96.3301 35.9722L89.274 39.6651C89.1633 39.475 89.0115 39.3159 88.8415 39.2113L89.6169 31.0514ZM89.0635 30.8213L88.2797 39.0936L84.047 32.5207L88.9535 30.7163C88.9848 30.7519 89.0215 30.7869 89.0635 30.8213ZM88.5472 30.1349L83.6672 31.9362L80.2721 26.6606L88.5472 30.1349ZM79.2628 26.6082C79.3701 26.6415 79.4847 26.6609 79.5961 26.6479C79.6067 26.6467 79.6209 26.6384 79.6315 26.6372L83.1636 32.1195L75.6328 34.8919C75.5775 34.787 75.515 34.6961 75.4366 34.607C76.4229 32.5596 78.4555 28.3006 79.2628 26.6082ZM69.6624 25.7973L78.7308 26.2119C78.7377 26.2176 78.7394 26.224 78.7464 26.2297C77.9319 27.9361 75.8848 32.2229 74.9094 34.2494C74.7705 34.2001 74.6224 34.1781 74.4792 34.1948C74.4103 34.2029 74.343 34.2173 74.2791 34.2444C72.9043 32.3876 70.7079 29.0876 69.3115 26.9648C69.5411 26.6564 69.6624 26.2492 69.6624 25.7973ZM68.3442 27.5428C68.5617 27.5174 68.755 27.4424 68.9276 27.3306C70.3257 29.4597 72.5014 32.7229 73.8919 34.5975C73.7873 34.78 73.7457 35.0141 73.7709 35.2731L68.9815 35.8325C68.8388 35.502 68.593 35.236 68.3087 35.0923C68.2506 32.9639 68.1623 29.6534 68.1041 27.5447C68.1817 27.5487 68.2594 27.5527 68.3442 27.5428ZM59.6459 28.395L66.1005 26.0168C66.3998 26.6892 66.9411 27.2024 67.5317 27.4281C67.5899 29.5369 67.6799 32.8537 67.7362 34.9758C67.5983 34.9919 67.4759 35.0455 67.3761 35.1227C65.4114 33.433 61.2741 29.8684 59.6293 28.4558C59.6419 28.4413 59.6474 28.421 59.6459 28.395ZM59.0151 29.045C59.0257 29.0438 59.0433 29.0483 59.0539 29.047C59.1652 29.034 59.2646 28.9962 59.3465 28.9343C60.979 30.3417 65.0883 33.8834 67.0793 35.5896C67.0499 35.6847 67.0399 35.7907 67.0421 35.9018L58.5338 35.0026L59.0151 29.045ZM58.4252 29.2122L57.959 34.9387L52.4432 34.3516L58.4252 29.2122ZM52.3652 34.9829L57.9075 35.567L57.3629 42.2524C57.266 42.2375 57.1672 42.236 57.0717 42.2471C57.0558 42.249 57.0469 42.2566 57.031 42.2584L52.3177 35.1129C52.3341 35.0717 52.3505 35.0305 52.3652 34.9829ZM51.4839 35.4526C51.5859 35.4866 51.6935 35.5002 51.7996 35.4878C51.8367 35.4835 51.8721 35.4728 51.9129 35.4615L56.5445 42.4855C56.3127 42.6829 56.166 42.9948 56.1476 43.3572L48.1438 41.6C48.0914 41.4031 48.0035 41.2168 47.8978 41.0458L51.4839 35.4526ZM48.2015 42.2482L56.2406 44.0144C56.2746 44.1218 56.3176 44.2216 56.3642 44.3144L50.2924 47.329L47.9215 42.9425C48.0754 42.7607 48.1701 42.5204 48.2015 42.2482ZM46.9572 43.2647C47.0665 43.2847 47.1723 43.2919 47.2837 43.2789C47.3526 43.2709 47.4129 43.2507 47.4732 43.2306L49.8129 47.5619L45.2435 49.8312L46.9572 43.2647ZM45.4903 50.4705L50.1414 48.1588L52.8234 53.1182C52.5722 53.3047 52.4584 53.6782 52.5666 54.0848C52.5785 54.1293 52.5956 54.1731 52.6127 54.2169C51.7517 54.6188 50.3616 55.2724 48.9272 55.9443C47.4781 53.9521 46.1071 52.0686 45.4139 51.1082C45.5059 50.9402 45.5333 50.7143 45.4903 50.4705ZM44.9437 51.4578C44.9596 51.456 44.9792 51.4471 44.9951 51.4453C45.6709 52.3816 47.0071 54.2167 48.4371 56.1783C47.0808 56.8149 45.735 57.4502 44.8065 57.8861C44.6917 57.7423 44.5554 57.6207 44.4136 57.5194L44.9437 51.4578ZM44.5582 60.2403C44.6824 60.193 44.7891 60.1216 44.8802 60.0324L51.0942 66.8782L48.1449 72.6656C47.8506 72.4641 47.5273 72.3382 47.201 72.3042L44.5582 60.2403ZM55.1397 86.697C55.1344 86.6976 55.1238 86.6989 55.1185 86.6995C54.901 86.7249 54.7127 86.8189 54.5645 86.9607L48.7496 76.3545C48.9065 76.2248 49.0407 76.0716 49.1382 75.8834L55.2164 78.9527L55.1397 86.697ZM55.7781 79.2343L59.7764 81.2497C59.7814 81.2688 59.7812 81.2884 59.7863 81.3075C59.8319 81.479 59.913 81.6398 60.005 81.7797L56.1069 87.0229C55.981 86.9197 55.8459 86.8438 55.7053 86.7881L55.7781 79.2343ZM61.6257 94.2774C61.484 94.3202 61.3717 94.4119 61.2943 94.5322L56.4629 89.4899C56.6573 89.3165 56.7874 89.0655 56.8297 88.7724L61.0659 88.8671L61.6257 94.2774ZM62.1849 94.3234L61.6255 88.8738L66.8308 88.9929C67.0855 89.7033 67.7134 90.2129 68.3296 90.2064L70.0083 94.1498L62.7896 94.9929C62.675 94.6854 62.4465 94.4435 62.1849 94.3234ZM72.6887 101.959L62.799 95.8499C62.8262 95.7877 62.8465 95.7199 62.8667 95.652L70.2816 94.786L73.1098 101.425C72.9177 101.545 72.7761 101.732 72.6887 101.959ZM73.6219 101.273L70.8279 94.7222L76.4819 94.0619C76.5116 94.0912 76.5413 94.1204 76.5709 94.1497L74.0132 101.326C73.883 101.289 73.7525 101.271 73.6219 101.273ZM74.5551 101.636L77.1292 94.4186C77.1521 94.4224 77.1786 94.4193 77.2052 94.4162L80.0516 98.4525L74.8429 101.936C74.7541 101.829 74.66 101.722 74.5551 101.636ZM83.5506 105.105L75.2445 103.075C75.2408 102.938 75.2284 102.789 75.1895 102.642C75.1811 102.611 75.1673 102.58 75.1518 102.542L80.4352 99.0103L84.0458 104.13C83.7923 104.369 83.6205 104.71 83.5506 105.105ZM84.8376 103.756C84.7156 103.77 84.6023 103.796 84.4941 103.842L80.8818 98.7158L85.6776 95.5096C85.7649 95.5911 85.8595 95.6586 85.9576 95.7192L85.3263 103.784C85.166 103.757 85.002 103.736 84.8376 103.756ZM93.1622 104.663L87.1171 105.395C86.8685 104.769 86.4101 104.26 85.8872 103.98L86.5152 95.903C86.5928 95.907 86.6705 95.911 86.7447 95.9024C86.8667 95.8881 86.9766 95.8491 87.0778 95.798L93.3401 103.791C93.2014 104.03 93.1343 104.332 93.1622 104.663ZM94.0803 103.305C93.9477 103.32 93.8342 103.366 93.724 103.425L87.4704 95.4443C87.4902 95.4158 87.5099 95.3873 87.528 95.3524L95.0165 97.3925L94.2286 103.307C94.1775 103.3 94.1333 103.299 94.0803 103.305ZM95.3741 103.933C95.2106 103.73 95.013 103.563 94.7972 103.45L95.5815 97.5426L102.422 99.4094C102.427 99.4285 102.426 99.4418 102.431 99.4609C102.471 99.6134 102.53 99.7506 102.602 99.8797L95.3741 103.933ZM102.393 98.7645L95.6646 96.9303L96.2958 92.1932C96.3223 92.1901 96.3418 92.1813 96.3683 92.1782L102.514 98.377C102.451 98.4892 102.416 98.6243 102.393 98.7645ZM103.202 97.8185C103.078 97.8461 102.959 97.8927 102.861 97.9565L96.7524 91.7927C96.7652 91.7585 96.7833 91.7236 96.7907 91.69L102.445 91.0297L103.202 97.8185ZM104.433 98.2511C104.232 98.0519 104.002 97.9084 103.76 97.8385L102.989 90.9595L110.229 90.1139C110.3 90.217 110.386 90.3118 110.473 90.3933L104.433 98.2511ZM109.974 89.4823L102.914 90.3068L102.455 86.2209C103.043 86.0867 103.365 85.4662 103.237 84.741L108.067 83.4499L110.273 88.5107C110.027 88.7163 109.909 89.0771 109.974 89.4823ZM111.355 88.5284C111.174 88.4054 110.976 88.3369 110.774 88.3408L108.584 83.3174L112.516 82.2688C112.712 82.534 112.959 82.741 113.231 82.8599L111.355 88.5284ZM112.297 80.4604L105.927 76.4165C105.946 76.2636 105.934 76.0947 105.888 75.9232C105.883 75.9041 105.873 75.8857 105.868 75.8666L108.584 73.067L112.553 80.1488C112.45 80.2329 112.362 80.3349 112.297 80.4604ZM113.714 80.0525C113.503 79.9593 113.282 79.9066 113.059 79.9326C113.053 79.9332 113.043 79.9344 113.038 79.935L108.965 72.6688L113.036 68.4665C113.24 68.6588 113.463 68.8162 113.698 68.9197L113.714 80.0525ZM112.526 65.297L106.611 60.3944L108.915 52.5537C109.046 52.6169 109.184 52.6599 109.325 52.6761L113.141 64.8323C112.892 64.9268 112.689 65.0881 112.526 65.297Z" fill="#8A86B2"/>
<path fill-rule="evenodd" clip-rule="evenodd" d="M73.7782 50.073C68.5321 51.8256 65.5925 55.0701 65.2424 59.4941C65.1567 60.5767 65.3121 60.9915 65.868 61.1639C66.1156 61.2407 71.336 60.9564 72.0768 60.8258C72.4154 60.7661 72.7155 60.1881 72.8048 59.423C72.9008 58.6007 73.3146 57.5883 73.7545 57.0995C74.4844 56.2883 75.5705 55.7077 76.7461 55.5004C78.866 55.1266 80.4264 55.8776 81.1273 57.6091C81.2375 57.8813 81.4424 58.7548 81.5826 59.5503L81.8376 60.9965L81.5297 61.1036C81.3604 61.1625 80.5099 61.407 79.6398 61.6471C74.3297 63.1121 71.5521 64.3937 69.5512 66.3017C69.2672 66.5726 68.7103 67.2633 68.3137 67.8366C66.7497 70.0975 66.2892 72.7762 66.9647 75.6838C67.7001 78.8491 69.3789 80.9709 71.9115 81.9356C73.5331 82.5533 75.0346 82.6382 77.2883 82.2395C80.9933 81.5842 83.0636 80.2795 85.3679 77.1479C85.6364 76.7831 85.8296 76.6004 85.885 76.6591C87.0795 77.9281 88.8141 79.3052 89.6871 79.6776C90.0449 79.8303 90.7009 79.7203 90.9777 79.4612C91.1779 79.2739 94.2013 75.695 94.8216 74.911C95.1106 74.5459 95.1792 74.1927 95.0271 73.8536C94.9737 73.7345 94.548 73.2806 94.0813 72.8449C93.6144 72.4091 93.027 71.7737 92.7759 71.4328C91.8396 70.1623 91.9287 70.5071 90.4129 62.2949L89.0447 54.8825L88.6137 53.9678C87.1221 50.8013 84.3476 49.2466 79.954 49.1152C78.6588 49.0763 75.1172 49.6257 73.7782 50.073ZM82.9662 67.3967C83.3294 69.4565 83.3902 70.5632 83.1949 71.5589C82.6796 74.1871 81.1711 75.8289 79.0357 76.0858C78.1031 76.198 77.4422 76.0445 76.7232 75.5489C75.1887 74.4911 74.5095 71.6103 75.3302 69.6414C76.1646 67.6398 78.1654 66.4641 82.3118 65.5389L82.6262 65.4688L82.9662 67.3967Z" fill="#8A86B2"/>
</svg>
