<svg width="160" height="152" viewBox="0 0 160 152" fill="none" xmlns="http://www.w3.org/2000/svg">
<path d="M148.369 30.2579C147.244 28.5134 146.006 26.8391 144.662 25.245C133.685 12.2505 119.334 6.75088 102.94 3.06709C86.0069 -0.737541 66.1806 -1.91975 49.9226 4.93838C46.0964 6.57127 42.4602 8.72668 39.5837 11.6659C28.7055 22.7401 24.9743 41.2865 12.8614 55.9465C0.748498 70.6066 -5.1604 88.8688 5.71441 106.204C10.3174 113.545 16.1856 119.593 23.129 124.916C31.6769 131.448 39.0512 140.285 48.9321 145.396C59.3151 150.765 73.1444 152.636 84.6366 150.177C97.7467 147.372 105.436 136.216 115.443 128.623C123.333 122.627 132.773 118.702 140.503 112.516C152.348 103.046 161.33 87.8075 159.838 72.7098C158.372 58.053 156.486 42.8214 148.369 30.2579Z" fill="#F9F8FE"/>
<path fill-rule="evenodd" clip-rule="evenodd" d="M34.2949 26.3241C32.9722 26.3835 32.1536 26.6187 31.1215 27.2362C28.2495 28.9548 27.2766 32.7699 28.9796 35.6359C29.8959 37.1781 30.9533 37.9328 33.2535 38.6865L35.1947 39.3225L33.2683 46.5116C31.1951 54.249 30.9424 55.7013 31.0183 59.4397C31.1487 65.8548 33.6467 72.5443 37.779 77.5444C39.0963 79.1387 42.8202 82.6224 43.3617 82.7675C43.5093 82.8071 43.6062 82.9289 43.577 83.0382C43.5477 83.1475 43.422 83.2096 43.2975 83.1763C42.8814 83.0648 38.9208 83.8644 37.3014 84.3868C30.5263 86.5723 24.7712 91.0156 21.0675 96.9207C19.055 100.129 18.5104 101.595 16.383 109.532L14.4598 116.706L12.4719 116.288C10.0783 115.786 8.71098 115.921 7.20659 116.807C4.17903 118.591 3.21309 122.441 5.0547 125.386C5.43918 126.001 6.15402 126.795 6.64319 127.151C7.50692 127.778 8.47593 128.05 39.9459 136.482C71.416 144.915 72.3909 145.164 73.4528 145.052C77.8392 144.59 80.3265 139.683 78.1368 135.813C77.2771 134.293 76.1603 133.493 73.8361 132.731L71.9058 132.099L73.8321 124.909C75.9053 117.172 76.1581 115.72 76.0821 111.981C75.9518 105.566 73.4537 98.8767 69.3214 93.8766C68.0041 92.2823 64.2803 88.7986 63.7387 88.6535C63.5911 88.6139 63.4942 88.4921 63.5235 88.3828C63.5528 88.2735 63.6976 88.2165 63.8452 88.2561C64.384 88.4004 69.3495 87.2476 71.2977 86.5258C73.8108 85.5947 77.6244 83.4033 79.7109 81.6913C83.067 78.9375 86.2297 74.8023 87.9868 70.8707C88.5984 69.5017 89.2604 67.3246 90.7174 61.8893L92.6406 54.7151L94.6286 55.1325C97.0222 55.635 98.3895 55.5004 99.8938 54.6141C102.856 52.8691 103.843 49.1841 102.151 46.1918C101.823 45.6131 101.153 44.8105 100.661 44.4083L99.767 43.6771L67.4638 34.9813C41.8016 28.0729 34.9826 26.2933 34.2949 26.3241ZM98.389 47.1158C100.122 48.4502 99.7033 51.0193 97.6227 51.821L96.9495 52.0804L64.8649 43.4834L32.7804 34.8864L32.327 34.3251C30.9421 32.6105 31.8369 30.1805 33.9697 29.8637C35.0061 29.7099 97.5301 46.4542 98.389 47.1158ZM87.1209 61.5337C85.1602 68.5509 84.8629 69.4667 84.0774 70.9045C79.2421 79.7579 70.4683 84.9081 60.2872 84.8691C59.1174 84.8648 58.0245 84.9216 57.8582 84.9957C57.26 85.2622 56.6764 86.4804 56.7045 87.4042C56.7355 88.4255 56.9459 88.6416 59.1355 89.9022C67.0731 94.4717 72.0242 102.402 72.5236 111.347C72.7214 114.888 72.4568 116.478 70.3802 124.228L68.4994 131.248L64.8182 130.261L61.1373 129.275L61.2243 128.5C62.0788 120.892 58.2016 113.486 51.453 109.835C48.1817 108.065 43.6583 107.259 40.0565 107.804C35.6414 108.472 31.3202 110.854 28.5181 114.164C27.4457 115.431 26.1215 117.529 25.5097 118.93L25.1973 119.645L21.5164 118.659L17.8352 117.672L19.7161 110.653C21.7927 102.903 22.3585 101.394 24.3005 98.4259C29.2681 90.8332 37.5331 86.4924 46.9076 86.5524C49.3417 86.568 49.7209 86.3904 50.2556 84.9845C50.4781 84.3996 50.5039 83.9627 50.3461 83.4552C50.1524 82.8321 49.8915 82.6116 48.225 81.6637C40.0696 77.0247 35.0829 69.1361 34.5769 60.0738C34.379 56.5325 34.6436 54.9426 36.7202 47.1927L38.6011 40.1732L63.9475 46.9648L89.2939 53.7563L87.1209 61.5337ZM50.2178 50.3242C47.2417 49.9429 44.0584 50.381 41.4107 51.5362C39.3587 52.4315 39.029 52.8856 38.6072 55.3989C37.703 60.7858 38.6249 65.754 41.4137 70.526C47.5149 80.9655 61.1495 84.6189 71.653 78.6286C76.4423 75.8971 79.7597 72.0203 81.622 66.9786C82.4599 64.7099 82.5154 64.1989 81.9983 63.5107C81.3447 62.6406 80.6523 62.6086 79.0604 63.3745C78.2733 63.7532 76.8153 64.2287 75.8204 64.4313C70.5249 65.5094 65.3549 63.2298 62.2896 58.4653C60.9212 56.3385 59.9907 55.2324 58.5601 54.0322C56.3601 52.1866 52.9606 50.6755 50.2178 50.3242ZM54.3038 55.3718C54.9202 55.7043 55.8924 56.3844 56.4643 56.8831C57.4434 57.7371 57.8717 58.2751 60.1315 61.4879C61.2972 63.1453 63.2603 64.9402 65.1339 66.0618C68.0306 67.796 72.8716 68.6514 76.0436 67.9896C76.6906 67.8545 77.2548 67.8042 77.2975 67.8779C77.4634 68.1641 75.3823 71.0991 74.0486 72.4599C72.1768 74.3695 68.3654 76.5892 65.7305 77.304C59.8847 78.8902 53.8213 77.6625 48.9398 73.9042C46.2363 71.8226 43.4938 67.7561 42.5532 64.4341C41.7536 61.61 41.5671 57.8267 42.1251 55.7445C42.3398 54.9431 42.4056 54.8915 43.8484 54.3936C47.3041 53.2008 50.9029 53.5376 54.3038 55.3718ZM50.1176 90.9415C47.5335 91.3768 45.8107 93.7628 46.2367 96.3168C46.5784 98.3662 47.6689 99.5601 49.6938 100.103C51.7188 100.645 53.2601 100.157 54.5807 98.5526C56.7602 95.9057 55.4625 91.9828 52.1102 91.0846C51.469 90.9127 50.6411 90.8532 50.1176 90.9415ZM52.228 94.9879C52.523 95.793 52.228 96.5468 51.4963 96.8587C51.1465 97.0078 50.7051 97.0882 50.5152 97.0373C49.9164 96.8769 49.3273 95.8858 49.4837 95.302C49.7248 94.402 50.3762 94.0183 51.2607 94.2553C51.8357 94.4094 52.0856 94.5986 52.228 94.9879ZM49.8413 112.966C50.6167 113.357 51.9104 114.273 52.8016 115.061C54.0861 116.198 54.6195 116.87 55.6316 118.624C56.3175 119.813 57.0604 121.458 57.2825 122.279C57.662 123.681 57.8847 126.151 57.7695 127.681L57.7183 128.359L43.1673 124.46L28.6163 120.561L28.9112 119.948C29.5762 118.566 31.0039 116.538 32.0338 115.513C32.6387 114.911 34.0945 113.867 35.2824 113.183C39.9136 110.517 44.8371 110.444 49.8413 112.966ZM74.1585 136.605C74.9768 137.087 75.5467 138.205 75.4724 139.183C75.4057 140.065 74.5777 141.069 73.6089 141.442L72.9357 141.701L40.8511 133.104L8.76655 124.507L8.31322 123.946C7.66078 123.138 7.4455 121.855 7.82864 121.058C8.23427 120.214 9.30124 119.485 10.1563 119.469C11.1366 119.45 73.2813 136.089 74.1585 136.605Z" fill="#8A86B2"/>
</svg>
