<svg width="549" height="361" viewBox="0 0 549 361" fill="none" xmlns="http://www.w3.org/2000/svg">
<circle cx="311.5" cy="197.5" r="56.5" fill="#C4C4C4"/>
<circle cx="311.5" cy="197.5" r="56.5" fill="url(#paint0_linear_7_9959)"/>
<circle cx="311.5" cy="197.5" r="56.5" fill="url(#paint1_linear_7_9959)"/>
<circle cx="188" cy="120" r="120" fill="url(#paint2_linear_7_9959)"/>
<g clip-path="url(#clip0_7_9959)">
<path d="M188.004 191.998C148.314 192.106 115.997 159.69 116 120.011C116.003 80.3774 148.215 48.0374 187.922 47.9978C227.792 47.9569 260.031 80.4141 260 120.07C259.967 159.726 227.672 192.116 188.004 191.998ZM176.308 85.945C173.623 86.0848 169.816 86.2161 166.023 86.5028C162.872 86.7414 159.72 87.0662 156.594 87.5251C152.126 88.1803 147.732 89.1998 143.373 90.4028C139.887 91.3644 137.659 94.8211 138.249 98.2185C138.768 101.204 141.597 103.735 144.614 103.814C146.16 103.855 147.559 103.331 149.001 102.947C156.256 101.013 163.664 100.118 171.139 99.7124C176.899 99.4004 182.661 99.5373 188.404 100.019C192.111 100.329 195.804 100.851 199.488 101.394C205.051 102.216 210.499 103.559 215.844 105.31C220.959 106.986 225.882 109.093 230.528 111.826C232.154 112.784 233.892 113.1 235.739 112.604C238.493 111.864 240.542 109.615 240.813 106.842C241.099 103.902 239.92 101.605 237.376 100.097C230.827 96.2134 223.811 93.4176 216.516 91.3009C210.193 89.4667 203.768 88.0984 197.224 87.3359C193.571 86.9095 189.909 86.5141 186.241 86.2529C183.31 86.0453 180.365 86.0608 176.308 85.945ZM175.857 110.635C175.853 110.673 175.849 110.709 175.845 110.748C174.601 110.803 173.353 110.824 172.112 110.918C168.701 111.18 165.283 111.396 161.884 111.771C156.921 112.318 152.078 113.459 147.279 114.834C144.784 115.548 142.958 117.935 143.042 120.533C143.157 124.011 146.531 126.757 149.896 125.846C154.894 124.494 159.913 123.264 165.083 122.835C168.705 122.534 172.345 122.192 175.972 122.229C180.024 122.27 184.088 122.563 188.114 123.032C191.752 123.456 195.378 124.122 198.952 124.934C207.204 126.807 215.02 129.831 222.271 134.248C223.342 134.9 224.548 135.157 225.79 134.96C228.319 134.559 230.237 132.733 230.656 130.409C231.1 127.948 230.054 125.659 227.772 124.344C225.64 123.116 223.5 121.889 221.291 120.813C210.679 115.643 199.444 112.657 187.72 111.492C183.777 111.101 179.813 110.914 175.857 110.635ZM176.808 134.218C171.602 134.313 166.428 134.663 161.299 135.492C157.376 136.126 153.468 136.86 149.57 137.627C147.175 138.097 145.579 140.602 146.095 142.879C146.69 145.512 148.98 146.98 151.567 146.479C155.01 145.811 158.45 145.094 161.922 144.614C165.611 144.104 169.327 143.693 173.045 143.521C177.643 143.308 182.248 143.443 186.835 144.008C190.512 144.46 194.141 145.118 197.714 146.085C203.696 147.706 209.357 150.088 214.653 153.319C215.744 153.986 216.91 154.265 218.155 153.984C220.159 153.531 221.498 152.116 221.736 150.039C221.956 148.113 221.117 146.599 219.471 145.595C209.376 139.436 198.371 136.002 186.65 134.813C183.381 134.483 180.088 134.411 176.808 134.218Z" fill="white"/>
</g>
<circle cx="238" cy="263" r="50" fill="#C4C4C4"/>
<circle cx="238" cy="263" r="50" fill="url(#paint3_linear_7_9959)"/>
<circle cx="238" cy="263" r="50" fill="url(#paint4_linear_7_9959)"/>
<circle cx="100" cy="250" r="100" fill="#C4C4C4"/>
<circle cx="100" cy="250" r="100" fill="url(#paint5_linear_7_9959)"/>
<circle cx="100" cy="250" r="100" fill="url(#paint6_linear_7_9959)"/>
<g clip-path="url(#clip1_7_9959)">
<path d="M110.365 294.547C109.639 294.331 108.956 294.003 108.25 293.737C107.414 293.421 106.588 293.082 105.752 292.768C104.657 292.357 103.559 291.952 102.457 291.56C101.445 291.201 100.427 290.856 99.4089 290.515C98.2085 290.113 97.0035 289.725 95.8036 289.322C95.4601 289.207 95.4632 289.192 95.4361 288.834C95.2462 286.372 95.0556 283.911 94.8679 281.449C94.4585 276.077 94.0512 270.706 93.6425 265.334C93.3445 261.422 93.0456 257.511 92.7469 253.599C92.7446 253.567 92.7379 253.536 92.7334 253.504C92.7713 253.363 92.7061 253.23 92.6955 253.092C92.4859 250.285 92.2705 247.478 92.0574 244.67C91.8155 241.478 91.5744 238.286 91.3331 235.095C91.1051 232.074 90.8779 229.053 90.65 226.032C90.4465 223.331 90.2422 220.63 90.0378 217.93C89.837 215.262 89.6358 212.593 89.4321 209.925C89.3678 209.082 89.2939 208.24 89.2252 207.398C89.225 206.877 89.1844 206.36 89.098 205.846C89.109 205.778 89.1317 205.718 89.2164 205.732C89.3003 205.747 89.3827 205.77 89.4647 205.792C94.268 207.07 99.0721 208.349 103.876 209.628C103.928 209.642 103.979 209.655 104.03 209.669C104.295 209.744 104.297 209.744 104.317 210.005C104.484 212.201 104.649 214.398 104.816 216.594C105.129 220.688 105.443 224.782 105.756 228.875C106.03 232.446 106.304 236.018 106.578 239.589C106.769 242.073 106.96 244.556 107.152 247.04C107.156 247.103 107.171 247.166 107.181 247.228C107.243 248.113 107.3 248.999 107.366 249.883C107.581 252.754 107.8 255.624 108.015 258.495C108.214 261.141 108.408 263.787 108.607 266.434C108.793 268.91 108.984 271.385 109.169 273.861C109.353 276.315 109.532 278.77 109.716 281.224C109.894 283.604 110.074 285.984 110.255 288.363C110.322 289.249 110.397 290.133 110.468 291.019C110.468 291.756 110.581 292.485 110.611 293.22C110.627 293.615 110.659 294.008 110.687 294.402C110.696 294.525 110.654 294.586 110.523 294.563C110.471 294.554 110.418 294.552 110.365 294.547Z" fill="#F4F4F4"/>
<path d="M110.365 294.547C110.417 294.553 110.471 294.554 110.523 294.563C110.654 294.587 110.695 294.526 110.686 294.403C110.659 294.009 110.626 293.616 110.61 293.221C110.581 292.486 110.468 291.757 110.468 291.02C110.59 290.881 110.543 290.714 110.542 290.558C110.538 290.087 110.521 289.616 110.512 289.145C110.482 287.529 110.456 285.912 110.425 284.295C110.384 282.239 110.338 280.184 110.296 278.129C110.259 276.266 110.227 274.403 110.19 272.54C110.147 270.345 110.099 268.151 110.056 265.956C110.016 263.922 109.981 261.888 109.941 259.854C109.898 257.67 109.851 255.486 109.808 253.302C109.768 251.268 109.733 249.234 109.694 247.2C109.664 245.647 109.632 244.095 109.602 242.543C109.583 241.526 109.568 240.509 109.546 239.492C109.543 239.346 109.571 239.187 109.447 239.067C109.626 238.383 109.8 237.697 109.983 237.014C111.514 231.332 113.046 225.65 114.581 219.969C115.17 217.785 115.768 215.604 116.362 213.422C116.376 213.37 116.393 213.319 116.404 213.266C116.434 213.116 116.522 213.076 116.661 213.12C116.742 213.145 116.826 213.163 116.908 213.185C121.639 214.453 126.369 215.72 131.099 216.988C131.584 217.118 131.555 217.083 131.426 217.566C128.473 228.627 125.521 239.688 122.565 250.748C119.844 260.928 117.119 271.106 114.392 281.284C113.434 284.856 112.467 288.426 111.501 291.996C111.285 292.793 111.054 293.585 110.829 294.379C110.736 294.712 110.71 294.72 110.365 294.547Z" fill="white"/>
<path d="M89.0981 205.847C89.1836 206.36 89.2244 206.877 89.2244 207.398C89.1279 207.493 89.1478 207.617 89.1466 207.732C89.1439 207.925 89.1506 208.117 89.1552 208.31C89.2057 210.493 89.2585 212.677 89.3067 214.861C89.3498 216.809 89.385 218.758 89.4266 220.706C89.4599 222.269 89.4989 223.832 89.5316 225.395C89.5641 226.937 89.5902 228.478 89.6236 230.019C89.6713 232.203 89.7268 234.387 89.7745 236.571C89.8168 238.508 89.8526 240.446 89.8936 242.384C89.9246 243.861 89.9587 245.338 89.9912 246.815C90.0237 248.314 90.0548 249.813 90.0873 251.311C90.119 252.757 90.1522 254.202 90.1839 255.647C90.2225 257.392 90.2508 259.138 90.3017 260.882C90.3227 261.594 90.2982 262.289 90.0673 262.974C89.9343 263.368 89.8262 263.774 89.7525 264.186C89.7295 264.291 89.71 264.396 89.6823 264.5C88.149 270.192 86.6148 275.886 85.0795 281.578C84.7307 282.872 84.3666 284.161 83.9783 285.443C83.9287 285.607 83.8637 285.766 83.8049 285.927C83.7558 286.061 83.6639 286.095 83.5264 286.063C83.2154 285.99 82.9027 285.927 82.5895 285.863C81.4114 285.622 80.2347 285.374 79.0534 285.145C77.6225 284.867 76.1925 284.583 74.7511 284.361C73.6153 284.186 72.4832 283.991 71.3479 283.814C70.4646 283.676 69.5806 283.547 68.7008 283.386C68.3549 283.323 68.3497 283.326 68.4433 282.974C69.0254 280.778 69.6082 278.581 70.1944 276.385C71.98 269.695 73.7643 263.003 75.5539 256.314C80.0169 239.631 84.4826 222.948 88.9481 206.267C88.9874 206.123 88.9991 205.969 89.0981 205.847Z" fill="white"/>
<path d="M89.7518 264.185C89.8255 263.773 89.9335 263.367 90.0665 262.973C90.2975 262.288 90.3213 261.592 90.301 260.881C90.2501 259.136 90.2216 257.391 90.1832 255.646C90.1514 254.201 90.1183 252.755 90.0865 251.31C90.0541 249.811 90.0229 248.313 89.9905 246.814C89.9586 245.337 89.9241 243.859 89.8929 242.382C89.8519 240.445 89.8161 238.507 89.7738 236.569C89.7261 234.386 89.6713 232.202 89.6229 230.018C89.5888 228.477 89.5636 226.935 89.5309 225.394C89.4975 223.831 89.4592 222.268 89.4258 220.705C89.3843 218.756 89.3484 216.808 89.306 214.86C89.259 212.676 89.2055 210.493 89.1549 208.309C89.1504 208.117 89.1438 207.924 89.1463 207.731C89.1476 207.616 89.1283 207.492 89.2242 207.398C89.2938 208.24 89.3668 209.082 89.4311 209.925C89.6355 212.593 89.8361 215.262 90.0375 217.93C90.2417 220.631 90.4462 223.332 90.6497 226.033C90.8776 229.054 91.105 232.074 91.3328 235.095C91.5739 238.287 91.8145 241.479 92.0571 244.671C92.2702 247.478 92.485 250.285 92.6951 253.093C92.7058 253.23 92.7703 253.363 92.7331 253.504C92.6106 253.585 92.6135 253.725 92.5814 253.845C91.6952 257.12 90.8124 260.396 89.9267 263.672C89.8787 263.846 89.854 264.029 89.7518 264.185Z" fill="#B6B6B6"/>
<path d="M109.45 239.068C109.573 239.187 109.545 239.346 109.548 239.492C109.57 240.509 109.586 241.527 109.605 242.544C109.634 244.096 109.666 245.648 109.696 247.2C109.735 249.234 109.771 251.268 109.81 253.303C109.853 255.486 109.9 257.671 109.943 259.854C109.982 261.888 110.018 263.922 110.058 265.957C110.101 268.151 110.148 270.346 110.192 272.541C110.229 274.403 110.261 276.267 110.299 278.129C110.34 280.185 110.386 282.24 110.427 284.295C110.459 285.912 110.485 287.529 110.514 289.145C110.523 289.617 110.541 290.087 110.544 290.559C110.545 290.714 110.593 290.883 110.47 291.02C110.398 290.135 110.324 289.25 110.256 288.364C110.075 285.985 109.895 283.606 109.717 281.226C109.533 278.771 109.355 276.316 109.171 273.862C108.985 271.387 108.795 268.911 108.609 266.435C108.41 263.789 108.215 261.142 108.017 258.496C107.801 255.625 107.583 252.755 107.368 249.884C107.302 249 107.244 248.114 107.183 247.229C107.225 247.108 107.274 246.989 107.308 246.866C107.983 244.399 108.655 241.933 109.329 239.466C109.364 239.332 109.409 239.2 109.45 239.068Z" fill="#B6B6B6"/>
</g>
<g filter="url(#filter0_b_7_9959)">
<rect x="149" y="169" width="400" height="192" rx="10" fill="white" fill-opacity="0.7"/>
<rect x="149.5" y="169.5" width="399" height="191" rx="9.5" stroke="#111111"/>
</g>
<path d="M181.016 215.12H178.904V212.264C177.048 212.056 175.448 211.584 174.104 210.848V208.16C175.832 209.264 177.808 209.816 180.032 209.816C182.448 209.816 183.656 209.12 183.656 207.728C183.656 207.12 183.416 206.616 182.936 206.216C182.472 205.8 181.888 205.496 181.184 205.304C180.496 205.112 179.736 204.88 178.904 204.608C178.088 204.336 177.328 204.048 176.624 203.744C175.936 203.44 175.352 202.968 174.872 202.328C174.408 201.672 174.176 200.88 174.176 199.952C174.176 198.64 174.608 197.6 175.472 196.832C176.352 196.064 177.496 195.6 178.904 195.44V192.56H181.016V195.416C182.76 195.544 184.208 195.952 185.36 196.64V199.256C183.936 198.296 182.256 197.832 180.32 197.864C178.08 197.864 176.96 198.544 176.96 199.904C176.96 200.464 177.192 200.936 177.656 201.32C178.136 201.704 178.72 201.992 179.408 202.184C180.112 202.36 180.872 202.584 181.688 202.856C182.52 203.128 183.28 203.424 183.968 203.744C184.672 204.048 185.256 204.528 185.72 205.184C186.2 205.84 186.44 206.64 186.44 207.584C186.44 209.104 185.944 210.248 184.952 211.016C183.96 211.768 182.648 212.192 181.016 212.288V215.12ZM189.458 195.68H199.514V198.128H191.978L191.738 202.064C192.522 201.872 193.346 201.776 194.21 201.776C195.954 201.776 197.402 202.2 198.554 203.048C199.706 203.88 200.282 205.192 200.282 206.984C200.282 208.68 199.65 209.992 198.386 210.92C197.138 211.848 195.57 212.312 193.682 212.312C191.714 212.312 189.97 211.944 188.45 211.208V208.64C189.826 209.44 191.466 209.84 193.37 209.84C194.618 209.84 195.618 209.592 196.37 209.096C197.138 208.6 197.522 207.888 197.522 206.96C197.522 205.008 196.042 204.032 193.082 204.032C191.706 204.032 190.322 204.272 188.93 204.752L189.458 195.68ZM205.658 210.68C205.658 211.192 205.506 211.584 205.202 211.856C204.898 212.128 204.514 212.264 204.05 212.264C203.586 212.264 203.194 212.128 202.874 211.856C202.57 211.584 202.418 211.192 202.418 210.68C202.418 210.184 202.57 209.808 202.874 209.552C203.194 209.28 203.586 209.144 204.05 209.144C204.514 209.144 204.898 209.28 205.202 209.552C205.506 209.808 205.658 210.184 205.658 210.68ZM207.262 200.84C207.262 199.112 207.838 197.768 208.99 196.808C210.142 195.848 211.582 195.368 213.31 195.368C215.726 195.368 217.51 196.088 218.662 197.528C219.83 198.968 220.414 201.024 220.414 203.696C220.414 206.544 219.71 208.696 218.302 210.152C216.894 211.592 215.078 212.312 212.854 212.312C211.366 212.312 209.958 211.992 208.63 211.352V208.856C209.862 209.544 211.182 209.888 212.59 209.888C213.966 209.888 215.11 209.48 216.022 208.664C216.95 207.848 217.494 206.528 217.654 204.704C216.182 205.584 214.598 206.024 212.902 206.024C211.382 206.024 210.062 205.568 208.942 204.656C207.822 203.744 207.262 202.472 207.262 200.84ZM213.502 197.72C212.478 197.72 211.638 197.968 210.982 198.464C210.342 198.944 210.022 199.696 210.022 200.72C210.022 201.76 210.366 202.512 211.054 202.976C211.742 203.424 212.622 203.648 213.694 203.648C215.166 203.648 216.478 203.192 217.63 202.28C217.342 199.24 215.966 197.72 213.502 197.72ZM222.403 200.84C222.403 199.112 222.979 197.768 224.131 196.808C225.283 195.848 226.723 195.368 228.451 195.368C230.867 195.368 232.651 196.088 233.803 197.528C234.971 198.968 235.555 201.024 235.555 203.696C235.555 206.544 234.851 208.696 233.443 210.152C232.035 211.592 230.219 212.312 227.995 212.312C226.507 212.312 225.099 211.992 223.771 211.352V208.856C225.003 209.544 226.323 209.888 227.73 209.888C229.107 209.888 230.251 209.48 231.163 208.664C232.091 207.848 232.635 206.528 232.795 204.704C231.323 205.584 229.739 206.024 228.043 206.024C226.523 206.024 225.203 205.568 224.083 204.656C222.963 203.744 222.403 202.472 222.403 200.84ZM228.643 197.72C227.619 197.72 226.779 197.968 226.123 198.464C225.483 198.944 225.163 199.696 225.163 200.72C225.163 201.76 225.507 202.512 226.195 202.976C226.883 203.424 227.763 203.648 228.835 203.648C230.307 203.648 231.619 203.192 232.771 202.28C232.483 199.24 231.107 197.72 228.643 197.72Z" fill="#111111"/>
<path d="M173.8 232.568C173.8 231.619 174.168 230.888 174.904 230.376C175.64 229.864 176.552 229.608 177.64 229.608C178.952 229.608 180.083 229.88 181.032 230.424V231.768C180.093 231.16 178.995 230.867 177.736 230.888C176.019 230.888 175.16 231.432 175.16 232.52C175.16 232.957 175.325 233.331 175.656 233.64C175.987 233.949 176.397 234.184 176.888 234.344C177.379 234.504 177.912 234.691 178.488 234.904C179.075 235.107 179.613 235.32 180.104 235.544C180.595 235.757 181.005 236.088 181.336 236.536C181.667 236.984 181.832 237.523 181.832 238.152C181.832 238.685 181.715 239.155 181.48 239.56C181.256 239.965 180.947 240.285 180.552 240.52C180.157 240.755 179.72 240.925 179.24 241.032C178.76 241.139 178.243 241.192 177.688 241.192C176.269 241.192 174.989 240.872 173.848 240.232V238.888C174.968 239.571 176.216 239.912 177.592 239.912C179.512 239.912 180.472 239.357 180.472 238.248C180.472 237.843 180.349 237.496 180.104 237.208C179.859 236.909 179.539 236.669 179.144 236.488C178.749 236.307 178.312 236.141 177.832 235.992C177.363 235.843 176.893 235.683 176.424 235.512C175.955 235.331 175.523 235.128 175.128 234.904C174.733 234.669 174.413 234.355 174.168 233.96C173.923 233.565 173.8 233.101 173.8 232.568ZM184.995 234.6C185.859 233.619 186.894 233.128 188.099 233.128C189.198 233.128 190.11 233.512 190.835 234.28C191.571 235.048 191.939 236.008 191.939 237.16C191.939 238.312 191.571 239.272 190.835 240.04C190.11 240.808 189.198 241.192 188.099 241.192C186.883 241.192 185.891 240.744 185.123 239.848V244.52H183.843V233.32H184.995V234.6ZM189.875 239.224C190.398 238.701 190.659 238.013 190.659 237.16C190.659 236.307 190.398 235.619 189.875 235.096C189.363 234.573 188.723 234.312 187.955 234.312C187.305 234.312 186.729 234.493 186.227 234.856C185.726 235.219 185.358 235.667 185.123 236.2V238.12C185.358 238.653 185.726 239.101 186.227 239.464C186.729 239.827 187.305 240.008 187.955 240.008C188.723 240.008 189.363 239.747 189.875 239.224ZM194.769 240.12C193.958 239.395 193.553 238.408 193.553 237.16C193.553 235.912 193.958 234.931 194.769 234.216C195.58 233.491 196.54 233.128 197.649 233.128C198.769 233.128 199.729 233.491 200.529 234.216C201.34 234.931 201.745 235.912 201.745 237.16C201.745 238.408 201.34 239.395 200.529 240.12C199.729 240.835 198.769 241.192 197.649 241.192C196.54 241.192 195.58 240.835 194.769 240.12ZM199.665 239.224C200.198 238.712 200.465 238.024 200.465 237.16C200.465 236.296 200.198 235.613 199.665 235.112C199.132 234.6 198.46 234.344 197.649 234.344C196.838 234.344 196.166 234.6 195.633 235.112C195.1 235.613 194.833 236.296 194.833 237.16C194.833 238.024 195.1 238.712 195.633 239.224C196.166 239.725 196.838 239.976 197.649 239.976C198.46 239.976 199.132 239.725 199.665 239.224ZM204.268 230.936L205.532 230.616V233.32H208.604V234.504H205.532V238.472C205.532 239.037 205.66 239.432 205.916 239.656C206.183 239.88 206.604 239.992 207.18 239.992C207.735 239.992 208.3 239.875 208.876 239.64V240.824C208.225 241.059 207.537 241.176 206.812 241.176C206.033 241.176 205.415 240.968 204.956 240.552C204.497 240.125 204.268 239.507 204.268 238.696V234.504H202.828V233.32H204.268V230.936ZM211.93 241H210.65V233.32H211.93V241ZM211.882 230.28C212.042 230.419 212.122 230.616 212.122 230.872C212.122 231.128 212.042 231.331 211.882 231.48C211.722 231.619 211.525 231.688 211.29 231.688C211.056 231.688 210.858 231.619 210.698 231.48C210.538 231.331 210.458 231.128 210.458 230.872C210.458 230.616 210.538 230.419 210.698 230.28C210.858 230.131 211.056 230.056 211.29 230.056C211.525 230.056 211.722 230.131 211.882 230.28ZM216.509 241H215.229V234.504H213.789V233.32H215.229V232.392C215.229 231.88 215.304 231.437 215.453 231.064C215.613 230.68 215.826 230.387 216.093 230.184C216.36 229.981 216.642 229.837 216.941 229.752C217.25 229.656 217.586 229.608 217.949 229.608C218.632 229.608 219.272 229.725 219.869 229.96V231.144C219.378 230.909 218.84 230.792 218.253 230.792C217.709 230.792 217.282 230.909 216.973 231.144C216.664 231.368 216.509 231.8 216.509 232.44V233.32H219.389V234.504H216.509V241ZM224.263 239.544L226.855 233.32H228.215L224.439 242.152C223.703 243.859 222.738 244.712 221.543 244.712C221.255 244.712 220.978 244.675 220.711 244.6V243.496C220.935 243.56 221.159 243.592 221.383 243.592C222.204 243.592 222.866 242.968 223.367 241.72L223.655 241.016L220.007 233.32H221.367L224.263 239.544Z" fill="#111111"/>
<line x1="173" y1="264.5" x2="525" y2="264.5" stroke="#111111"/>
<circle cx="501" cy="217" r="23.5" fill="white" stroke="#111111"/>
<g clip-path="url(#clip2_7_9959)">
<path d="M501.001 232.999C492.181 233.024 484.999 225.82 485 217.002C485.001 208.195 492.159 201.008 500.983 200.999C509.843 200.99 517.007 208.203 517 217.015C516.993 225.828 509.816 233.026 501.001 232.999ZM498.402 209.432C497.805 209.463 496.959 209.492 496.116 209.556C495.416 209.609 494.715 209.681 494.021 209.783C493.028 209.929 492.052 210.155 491.083 210.423C490.308 210.637 489.813 211.405 489.944 212.16C490.059 212.823 490.688 213.386 491.359 213.403C491.702 213.412 492.013 213.296 492.334 213.211C493.946 212.781 495.592 212.582 497.253 212.492C498.533 212.422 499.813 212.453 501.09 212.56C501.914 212.629 502.734 212.745 503.553 212.865C504.789 213.048 506 213.346 507.188 213.735C508.324 214.108 509.418 214.576 510.451 215.184C510.812 215.396 511.198 215.467 511.609 215.356C512.221 215.192 512.676 214.692 512.736 214.076C512.8 213.423 512.538 212.912 511.973 212.577C510.517 211.714 508.958 211.093 507.337 210.622C505.932 210.215 504.504 209.911 503.05 209.741C502.238 209.647 501.424 209.559 500.609 209.501C499.958 209.454 499.303 209.458 498.402 209.432ZM498.302 214.919C498.301 214.927 498.3 214.935 498.299 214.944C498.022 214.956 497.745 214.961 497.469 214.982C496.711 215.04 495.952 215.088 495.196 215.171C494.094 215.293 493.017 215.546 491.951 215.852C491.397 216.011 490.991 216.541 491.009 217.118C491.035 217.891 491.785 218.502 492.533 218.299C493.643 217.999 494.758 217.725 495.907 217.63C496.712 217.563 497.521 217.487 498.327 217.495C499.227 217.504 500.131 217.57 501.025 217.674C501.834 217.768 502.64 217.916 503.434 218.096C505.268 218.513 507.004 219.185 508.616 220.166C508.854 220.311 509.122 220.368 509.398 220.324C509.96 220.235 510.386 219.83 510.479 219.313C510.578 218.766 510.345 218.257 509.838 217.965C509.365 217.692 508.889 217.42 508.398 217.181C506.04 216.032 503.543 215.368 500.938 215.109C500.062 215.022 499.181 214.981 498.302 214.919ZM498.513 220.16C497.356 220.181 496.206 220.258 495.067 220.443C494.195 220.584 493.326 220.747 492.46 220.917C491.928 221.022 491.573 221.578 491.688 222.084C491.82 222.669 492.329 222.996 492.904 222.884C493.669 222.736 494.433 222.576 495.205 222.47C496.025 222.356 496.85 222.265 497.677 222.227C498.699 222.179 499.722 222.21 500.741 222.335C501.558 222.436 502.365 222.582 503.159 222.797C504.488 223.157 505.746 223.686 506.923 224.404C507.165 224.552 507.424 224.614 507.701 224.552C508.146 224.451 508.444 224.137 508.497 223.675C508.546 223.247 508.359 222.911 507.994 222.688C505.75 221.319 503.305 220.556 500.7 220.292C499.973 220.218 499.242 220.202 498.513 220.16Z" fill="#1ED760"/>
</g>
<g filter="url(#filter1_b_7_9959)">
<rect x="173" y="281" width="352" height="56" rx="10" fill="white" fill-opacity="0.7"/>
<rect x="173.5" y="281.5" width="351" height="55" rx="9.5" stroke="#111111"/>
</g>
<path d="M279.472 301.8H284.064C285.237 301.8 286.165 302.045 286.848 302.536C287.531 303.016 287.872 303.715 287.872 304.632C287.872 305.293 287.696 305.837 287.344 306.264C286.992 306.68 286.571 306.963 286.08 307.112C286.677 307.272 287.2 307.581 287.648 308.04C288.096 308.488 288.32 309.117 288.32 309.928C288.32 310.419 288.224 310.851 288.032 311.224C287.851 311.597 287.616 311.896 287.328 312.12C287.051 312.333 286.72 312.509 286.336 312.648C285.963 312.787 285.6 312.883 285.248 312.936C284.907 312.979 284.555 313 284.192 313H279.472V301.8ZM286.96 309.784C286.96 308.493 286.069 307.848 284.288 307.848H280.816V311.72H283.92C284.261 311.72 284.549 311.715 284.784 311.704C285.019 311.683 285.285 311.64 285.584 311.576C285.883 311.501 286.123 311.4 286.304 311.272C286.485 311.133 286.64 310.941 286.768 310.696C286.896 310.44 286.96 310.136 286.96 309.784ZM286.512 304.824C286.512 304.195 286.293 303.747 285.856 303.48C285.429 303.213 284.795 303.08 283.952 303.08H280.816V306.568H284.32C284.96 306.568 285.483 306.429 285.888 306.152C286.304 305.864 286.512 305.421 286.512 304.824ZM290.12 301.32H291.4V313H290.12V301.32ZM294.415 312.12C293.604 311.395 293.199 310.408 293.199 309.16C293.199 307.912 293.604 306.931 294.415 306.216C295.226 305.491 296.186 305.128 297.295 305.128C298.415 305.128 299.375 305.491 300.175 306.216C300.986 306.931 301.391 307.912 301.391 309.16C301.391 310.408 300.986 311.395 300.175 312.12C299.375 312.835 298.415 313.192 297.295 313.192C296.186 313.192 295.226 312.835 294.415 312.12ZM299.311 311.224C299.844 310.712 300.111 310.024 300.111 309.16C300.111 308.296 299.844 307.613 299.311 307.112C298.778 306.6 298.106 306.344 297.295 306.344C296.484 306.344 295.812 306.6 295.279 307.112C294.746 307.613 294.479 308.296 294.479 309.16C294.479 310.024 294.746 310.712 295.279 311.224C295.812 311.725 296.484 311.976 297.295 311.976C298.106 311.976 298.778 311.725 299.311 311.224ZM302.619 309.192C302.619 308.52 302.742 307.917 302.987 307.384C303.232 306.851 303.552 306.424 303.947 306.104C304.352 305.784 304.795 305.544 305.275 305.384C305.766 305.213 306.267 305.128 306.779 305.128C307.728 305.128 308.518 305.336 309.147 305.752V307C308.56 306.541 307.824 306.312 306.939 306.312C306.107 306.312 305.392 306.552 304.795 307.032C304.198 307.512 303.899 308.221 303.899 309.16C303.899 310.088 304.192 310.797 304.779 311.288C305.376 311.768 306.086 312.008 306.907 312.008C307.76 312.008 308.534 311.8 309.227 311.384V312.664C308.502 313.016 307.67 313.192 306.731 313.192C305.622 313.192 304.656 312.845 303.835 312.152C303.024 311.459 302.619 310.472 302.619 309.192ZM318.062 313H316.558L313.742 309.704H312.238V313H310.958V301.8H312.238V308.52H313.79L316.222 305.32H317.71L314.798 309.144L318.062 313ZM324.998 313H323.718V306.504H322.278V305.32H323.718V304.392C323.718 303.88 323.793 303.437 323.942 303.064C324.102 302.68 324.315 302.387 324.582 302.184C324.849 301.981 325.131 301.837 325.43 301.752C325.739 301.656 326.075 301.608 326.438 301.608C327.121 301.608 327.761 301.725 328.358 301.96V303.144C327.867 302.909 327.329 302.792 326.742 302.792C326.198 302.792 325.771 302.909 325.462 303.144C325.153 303.368 324.998 303.8 324.998 304.44V305.32H327.878V306.504H324.998V313ZM334.884 305.32H336.164V313H335.012V311.864C334.734 312.237 334.345 312.552 333.844 312.808C333.353 313.064 332.82 313.192 332.244 313.192C331.252 313.192 330.468 312.909 329.892 312.344C329.326 311.768 329.044 311.005 329.044 310.056V305.32H330.324V309.896C330.324 311.304 331.012 312.008 332.388 312.008C333.369 312.008 334.201 311.496 334.884 310.472V305.32ZM338.962 302.936L340.226 302.616V305.32H343.298V306.504H340.226V310.472C340.226 311.037 340.354 311.432 340.61 311.656C340.877 311.88 341.298 311.992 341.874 311.992C342.429 311.992 342.994 311.875 343.57 311.64V312.824C342.92 313.059 342.232 313.176 341.506 313.176C340.728 313.176 340.109 312.968 339.65 312.552C339.192 312.125 338.962 311.507 338.962 310.696V306.504H337.522V305.32H338.962V302.936ZM350.677 305.32H351.957V313H350.805V311.864C350.527 312.237 350.138 312.552 349.637 312.808C349.146 313.064 348.613 313.192 348.037 313.192C347.045 313.192 346.261 312.909 345.685 312.344C345.119 311.768 344.837 311.005 344.837 310.056V305.32H346.117V309.896C346.117 311.304 346.805 312.008 348.181 312.008C349.162 312.008 349.994 311.496 350.677 310.472V305.32ZM355.395 306.68C355.694 306.179 356.153 305.789 356.771 305.512C357.39 305.224 358.035 305.107 358.707 305.16V306.44C357.961 306.355 357.299 306.477 356.723 306.808C356.158 307.128 355.758 307.597 355.523 308.216V313H354.243V305.32H355.395V306.68ZM359.214 309.16C359.214 307.901 359.598 306.915 360.366 306.2C361.144 305.485 362.035 305.128 363.038 305.128C363.976 305.128 364.75 305.363 365.358 305.832C365.976 306.301 366.382 306.883 366.574 307.576C366.766 308.259 366.776 308.973 366.606 309.72H360.494C360.568 310.477 360.904 311.048 361.502 311.432C362.099 311.816 362.819 312.008 363.662 312.008C364.6 312.008 365.443 311.8 366.19 311.384V312.632C365.475 313.005 364.568 313.192 363.47 313.192C362.254 313.192 361.24 312.845 360.43 312.152C359.619 311.459 359.214 310.461 359.214 309.16ZM365.47 308.6C365.502 308.376 365.486 308.141 365.422 307.896C365.358 307.651 365.24 307.405 365.07 307.16C364.91 306.915 364.659 306.712 364.318 306.552C363.976 306.392 363.576 306.312 363.118 306.312C362.424 306.312 361.822 306.515 361.31 306.92C360.808 307.325 360.536 307.885 360.494 308.6H365.47ZM373.483 306.6C374.347 305.619 375.382 305.128 376.587 305.128C377.686 305.128 378.598 305.512 379.323 306.28C380.059 307.048 380.427 308.008 380.427 309.16C380.427 310.312 380.059 311.272 379.323 312.04C378.598 312.808 377.686 313.192 376.587 313.192C375.371 313.192 374.379 312.744 373.611 311.848V316.52H372.331V305.32H373.483V306.6ZM378.363 311.224C378.886 310.701 379.147 310.013 379.147 309.16C379.147 308.307 378.886 307.619 378.363 307.096C377.851 306.573 377.211 306.312 376.443 306.312C375.793 306.312 375.217 306.493 374.715 306.856C374.214 307.219 373.846 307.667 373.611 308.2V310.12C373.846 310.653 374.214 311.101 374.715 311.464C375.217 311.827 375.793 312.008 376.443 312.008C377.211 312.008 377.851 311.747 378.363 311.224ZM388.429 311.4C388.429 311.795 388.626 311.992 389.021 311.992C389.192 311.992 389.389 311.955 389.613 311.88V312.92C389.293 313.037 388.973 313.096 388.653 313.096C387.917 313.096 387.448 312.787 387.245 312.168C386.424 312.851 385.426 313.192 384.253 313.192C383.506 313.192 382.866 312.995 382.333 312.6C381.81 312.195 381.549 311.613 381.549 310.856C381.549 309.949 381.885 309.293 382.557 308.888C383.24 308.472 384.061 308.264 385.021 308.264C385.725 308.264 386.434 308.344 387.149 308.504V308.232C387.149 307.645 386.957 307.181 386.573 306.84C386.189 306.488 385.65 306.312 384.957 306.312C383.986 306.312 383.053 306.504 382.157 306.888V305.64C383.16 305.299 384.136 305.128 385.085 305.128C386.13 305.128 386.946 305.411 387.533 305.976C388.13 306.531 388.429 307.336 388.429 308.392V311.4ZM382.861 310.792C382.861 311.219 383.021 311.544 383.341 311.768C383.672 311.981 384.066 312.088 384.525 312.088C385.581 312.088 386.456 311.715 387.149 310.968V309.56C386.424 309.411 385.773 309.336 385.197 309.336C384.546 309.336 383.992 309.453 383.533 309.688C383.085 309.912 382.861 310.28 382.861 310.792ZM393.669 311.544L396.261 305.32H397.621L393.845 314.152C393.109 315.859 392.144 316.712 390.949 316.712C390.661 316.712 390.384 316.675 390.117 316.6V315.496C390.341 315.56 390.565 315.592 390.789 315.592C391.61 315.592 392.272 314.968 392.773 313.72L393.061 313.016L389.413 305.32H390.773L393.669 311.544ZM400.247 313H398.967V305.32H400.119V306.344C400.876 305.533 401.751 305.128 402.743 305.128C403.884 305.128 404.705 305.56 405.207 306.424C406.049 305.56 406.983 305.128 408.007 305.128C408.935 305.128 409.655 305.421 410.167 306.008C410.679 306.584 410.935 307.336 410.935 308.264V313H409.655V308.232C409.655 307.645 409.495 307.181 409.175 306.84C408.855 306.488 408.417 306.312 407.863 306.312C407.041 306.312 406.295 306.733 405.623 307.576C405.655 307.8 405.671 308.029 405.671 308.264V313H404.391V308.232C404.391 307.645 404.231 307.181 403.911 306.84C403.591 306.488 403.153 306.312 402.599 306.312C401.745 306.312 400.961 306.776 400.247 307.704V313ZM412.593 309.16C412.593 307.901 412.977 306.915 413.745 306.2C414.524 305.485 415.414 305.128 416.417 305.128C417.356 305.128 418.129 305.363 418.737 305.832C419.356 306.301 419.761 306.883 419.953 307.576C420.145 308.259 420.156 308.973 419.985 309.72H413.873C413.948 310.477 414.284 311.048 414.881 311.432C415.478 311.816 416.198 312.008 417.041 312.008C417.98 312.008 418.822 311.8 419.569 311.384V312.632C418.854 313.005 417.948 313.192 416.849 313.192C415.633 313.192 414.62 312.845 413.809 312.152C412.998 311.459 412.593 310.461 412.593 309.16ZM418.849 308.6C418.881 308.376 418.865 308.141 418.801 307.896C418.737 307.651 418.62 307.405 418.449 307.16C418.289 306.915 418.038 306.712 417.697 306.552C417.356 306.392 416.956 306.312 416.497 306.312C415.804 306.312 415.201 306.515 414.689 306.92C414.188 307.325 413.916 307.885 413.873 308.6H418.849ZM422.958 306.456C423.236 306.083 423.62 305.768 424.11 305.512C424.612 305.256 425.15 305.128 425.726 305.128C426.654 305.128 427.417 305.421 428.014 306.008C428.622 306.584 428.926 307.336 428.926 308.264V313H427.646V308.424C427.646 307.731 427.454 307.208 427.07 306.856C426.697 306.493 426.201 306.312 425.582 306.312C424.601 306.312 423.769 306.824 423.086 307.848V313H421.806V305.32H422.958V306.456ZM431.535 302.936L432.799 302.616V305.32H435.871V306.504H432.799V310.472C432.799 311.037 432.927 311.432 433.183 311.656C433.45 311.88 433.871 311.992 434.447 311.992C435.002 311.992 435.567 311.875 436.143 311.64V312.824C435.493 313.059 434.805 313.176 434.079 313.176C433.301 313.176 432.682 312.968 432.223 312.552C431.765 312.125 431.535 311.507 431.535 310.696V306.504H430.095V305.32H431.535V302.936ZM437.058 307.336C437.058 306.6 437.341 306.051 437.906 305.688C438.482 305.315 439.175 305.128 439.986 305.128C440.978 305.128 441.885 305.347 442.706 305.784V307C442.386 306.787 441.981 306.616 441.49 306.488C440.999 306.349 440.525 306.28 440.066 306.28C439.597 306.28 439.191 306.365 438.85 306.536C438.519 306.696 438.354 306.952 438.354 307.304C438.354 307.56 438.471 307.784 438.706 307.976C438.951 308.157 439.255 308.296 439.618 308.392C439.981 308.488 440.37 308.611 440.786 308.76C441.213 308.899 441.607 309.048 441.97 309.208C442.333 309.357 442.631 309.592 442.866 309.912C443.111 310.221 443.234 310.595 443.234 311.032C443.234 311.779 442.935 312.328 442.338 312.68C441.741 313.021 440.983 313.192 440.066 313.192C438.861 313.192 437.869 312.941 437.09 312.44V311.192C437.901 311.736 438.871 312.008 440.002 312.008C441.303 312.008 441.954 311.693 441.954 311.064C441.954 310.776 441.783 310.536 441.442 310.344C441.111 310.141 440.706 309.976 440.226 309.848C439.746 309.709 439.266 309.555 438.786 309.384C438.306 309.213 437.895 308.957 437.554 308.616C437.223 308.275 437.058 307.848 437.058 307.336Z" fill="#111111"/>
<path fill-rule="evenodd" clip-rule="evenodd" d="M261.345 301.016C259.983 301.148 258.632 301.702 257.574 302.563C257.262 302.817 256.769 303.314 256.521 303.625C255.893 304.411 255.378 305.474 255.164 306.427C255.03 307.025 255 307.316 255 308.002C255 308.688 255.03 308.979 255.164 309.577C255.383 310.551 255.911 311.629 256.56 312.427C256.813 312.738 257.31 313.231 257.621 313.48C258.407 314.108 259.471 314.622 260.423 314.836C261.022 314.97 261.312 315 261.999 315C262.685 315 262.976 314.97 263.574 314.836C264.291 314.675 265.227 314.275 265.842 313.867C266.91 313.158 267.729 312.226 268.289 311.084C268.632 310.385 268.826 309.759 268.949 308.961C269.017 308.52 269.017 307.484 268.949 307.043C268.826 306.245 268.632 305.619 268.289 304.92C267.923 304.173 267.515 303.606 266.927 303.023C266.349 302.451 265.819 302.075 265.081 301.713C264.39 301.374 263.751 301.174 262.985 301.057C262.641 301.005 261.703 300.982 261.345 301.016ZM262.41 302.414C263.435 302.492 264.435 302.853 265.242 303.436L265.429 303.572L261.501 307.5L257.574 311.428L257.511 311.352C257.233 311.012 256.83 310.24 256.67 309.742C256.018 307.706 256.537 305.541 258.037 304.041C258.958 303.12 260.185 302.539 261.464 302.416C261.819 302.382 261.993 302.382 262.41 302.414ZM266.687 304.933C266.894 305.241 267.211 305.899 267.328 306.262C267.98 308.298 267.461 310.462 265.96 311.963C264.626 313.297 262.732 313.87 260.892 313.496C260.13 313.341 259.367 313.009 258.756 312.568L258.568 312.432L262.496 308.504L266.424 304.576L266.486 304.652C266.52 304.694 266.611 304.82 266.687 304.933Z" fill="#111111"/>
<defs>
<filter id="filter0_b_7_9959" x="139" y="159" width="420" height="212" filterUnits="userSpaceOnUse" color-interpolation-filters="sRGB">
<feFlood flood-opacity="0" result="BackgroundImageFix"/>
<feGaussianBlur in="BackgroundImage" stdDeviation="5"/>
<feComposite in2="SourceAlpha" operator="in" result="effect1_backgroundBlur_7_9959"/>
<feBlend mode="normal" in="SourceGraphic" in2="effect1_backgroundBlur_7_9959" result="shape"/>
</filter>
<filter id="filter1_b_7_9959" x="163" y="271" width="372" height="76" filterUnits="userSpaceOnUse" color-interpolation-filters="sRGB">
<feFlood flood-opacity="0" result="BackgroundImageFix"/>
<feGaussianBlur in="BackgroundImage" stdDeviation="5"/>
<feComposite in2="SourceAlpha" operator="in" result="effect1_backgroundBlur_7_9959"/>
<feBlend mode="normal" in="SourceGraphic" in2="effect1_backgroundBlur_7_9959" result="shape"/>
</filter>
<linearGradient id="paint0_linear_7_9959" x1="311.5" y1="141" x2="311.5" y2="254" gradientUnits="userSpaceOnUse">
<stop stop-color="#3E1BDB"/>
<stop offset="1" stop-color="#3E1BDB" stop-opacity="0.2"/>
</linearGradient>
<linearGradient id="paint1_linear_7_9959" x1="311.5" y1="141" x2="311.5" y2="254" gradientUnits="userSpaceOnUse">
<stop stop-color="#3E1BDB"/>
<stop offset="1" stop-color="#1BADDB"/>
</linearGradient>
<linearGradient id="paint2_linear_7_9959" x1="188" y1="0" x2="188" y2="240" gradientUnits="userSpaceOnUse">
<stop stop-color="#3E1BDB"/>
<stop offset="1" stop-color="#1BADDB"/>
</linearGradient>
<linearGradient id="paint3_linear_7_9959" x1="238" y1="213" x2="238" y2="313" gradientUnits="userSpaceOnUse">
<stop stop-color="#3E1BDB"/>
<stop offset="1" stop-color="#3E1BDB" stop-opacity="0.2"/>
</linearGradient>
<linearGradient id="paint4_linear_7_9959" x1="238" y1="213" x2="238" y2="313" gradientUnits="userSpaceOnUse">
<stop stop-color="#3E1BDB"/>
<stop offset="1" stop-color="#1BADDB"/>
</linearGradient>
<linearGradient id="paint5_linear_7_9959" x1="100" y1="150" x2="100" y2="350" gradientUnits="userSpaceOnUse">
<stop stop-color="#3E1BDB"/>
<stop offset="1" stop-color="#3E1BDB" stop-opacity="0.2"/>
</linearGradient>
<linearGradient id="paint6_linear_7_9959" x1="100" y1="150" x2="100" y2="350" gradientUnits="userSpaceOnUse">
<stop stop-color="#3E1BDB"/>
<stop offset="1" stop-color="#1BADDB"/>
</linearGradient>
<clipPath id="clip0_7_9959">
<rect width="144" height="144" fill="white" transform="translate(116 48)"/>
</clipPath>
<clipPath id="clip1_7_9959">
<rect width="80" height="80" fill="white" transform="translate(71.7158 201.01) rotate(15)"/>
</clipPath>
<clipPath id="clip2_7_9959">
<rect width="32" height="32" fill="white" transform="translate(485 201)"/>
</clipPath>
</defs>
</svg>
