<svg width="725" height="680" viewBox="0 0 725 680" fill="none" xmlns="http://www.w3.org/2000/svg">
<g opacity="0.8">
<path d="M465.397 391.288L145.664 573.005L404.268 658.471L724 476.754L465.397 391.288Z" stroke="#8F9294" stroke-width="0.8412" stroke-miterlimit="10" stroke-linecap="round" stroke-linejoin="round"/>
<path d="M465.397 391.288L145.664 573.005L404.268 658.471L724 476.754L465.397 391.288Z" stroke="#8F9294" stroke-width="0.8412" stroke-miterlimit="10" stroke-linecap="round" stroke-linejoin="round"/>
<path d="M367.018 14.6836L47.3331 196.4L305.889 281.866L625.621 100.15L367.018 14.6836Z" stroke="#8F9294" stroke-width="0.8412" stroke-miterlimit="10" stroke-linecap="round" stroke-linejoin="round"/>
<path d="M367.018 14.6836L47.3331 196.4L305.889 281.866L625.621 100.15L367.018 14.6836Z" stroke="#8F9294" stroke-width="0.8412" stroke-miterlimit="10" stroke-linecap="round" stroke-linejoin="round"/>
<path d="M367.011 14.6836L47.3267 196.4L145.658 573.004L465.391 391.288L367.011 14.6836Z" stroke="#8F9294" stroke-width="0.8412" stroke-miterlimit="10" stroke-linecap="round" stroke-linejoin="round"/>
<path d="M367.011 14.6836L47.3267 196.4L145.658 573.004L465.391 391.288L367.011 14.6836Z" stroke="#8F9294" stroke-width="0.8412" stroke-miterlimit="10" stroke-linecap="round" stroke-linejoin="round"/>
<path d="M305.889 281.863L404.268 658.467L724 476.751L625.621 100.147L305.889 281.863Z" stroke="#8F9294" stroke-width="0.8412" stroke-miterlimit="10" stroke-linecap="round" stroke-linejoin="round"/>
<path d="M305.889 281.863L404.268 658.467L724 476.751L625.621 100.147L305.889 281.863Z" stroke="#8F9294" stroke-width="0.8412" stroke-miterlimit="10" stroke-linecap="round" stroke-linejoin="round"/>
<path d="M625.621 100.151L367.017 14.6848L465.397 391.289L724 476.755L625.621 100.151Z" stroke="#8F9294" stroke-width="0.8412" stroke-miterlimit="10" stroke-linecap="round" stroke-linejoin="round"/>
<path d="M625.621 100.151L367.017 14.6848L465.397 391.289L724 476.755L625.621 100.151Z" stroke="#8F9294" stroke-width="0.8412" stroke-miterlimit="10" stroke-linecap="round" stroke-linejoin="round"/>
<path d="M47.3345 196.404L145.666 573.008L404.27 658.474L305.89 281.87L47.3345 196.404Z" stroke="#FFDE3B" stroke-width="0.8412" stroke-miterlimit="10" stroke-linecap="round" stroke-linejoin="round"/>
<path d="M47.3345 196.404L145.666 573.008L404.27 658.474L305.89 281.87L47.3345 196.404Z" stroke="#FFDE3B" stroke-width="0.8412" stroke-miterlimit="10" stroke-linecap="round" stroke-linejoin="round"/>
<path d="M353 14.5C353 22.5148 359.485 29 367.5 29C375.515 29 382 22.5148 382 14.5C382 6.48529 375.515 0 367.5 0C359.485 0 353 6.48529 353 14.5Z" fill="#3E1BDB"/>
<path opacity="0.57" d="M-0.00115967 264.638L88.3491 602.78L320.543 679.561L232.193 341.372L-0.00115967 264.638Z" fill="#323247"/>
</g>
</svg>
