<svg width="443" height="528" viewBox="0 0 443 528" fill="none" xmlns="http://www.w3.org/2000/svg">
<rect x="0.5" y="0.5" width="442" height="527" rx="9.5" fill="white" stroke="url(#paint0_linear_486_249930)"/>
<g clip-path="url(#clip0_486_249930)">
<path d="M246.933 405.584H196.724L171.621 361.736L196.724 317.887H246.933L272.036 361.736L246.933 405.584ZM197.911 403.512H245.746L269.665 361.736L245.746 319.959H197.911L173.992 361.736L197.911 403.512Z" fill="#111111"/>
<path d="M230.823 363.579C230.482 363.621 229.869 363.911 229.59 364.416C229.38 364.793 229.504 365.287 229.878 365.502C230.001 365.572 230.136 365.606 230.268 365.606C230.535 365.606 230.79 365.469 230.934 365.212C230.958 365.187 231.032 365.142 231.02 365.137C231.447 365.084 231.751 364.69 231.698 364.259C231.64 363.832 231.25 363.526 230.823 363.579Z" fill="#FFDE3B"/>
<path d="M214.081 361.57C214.077 361.487 214.081 361.396 214.11 361.304C214.081 361.391 214.073 361.483 214.081 361.57Z" fill="#FFDE3B"/>
<path d="M214.081 361.57C214.077 361.487 214.081 361.396 214.11 361.304C214.081 361.391 214.073 361.483 214.081 361.57Z" fill="#FFDE3B"/>
<path d="M214.091 361.608C214.091 361.596 214.082 361.583 214.082 361.57C214.082 361.583 214.086 361.596 214.091 361.608Z" fill="#FFDE3B"/>
<path d="M214.091 361.608C214.091 361.596 214.082 361.583 214.082 361.57C214.082 361.583 214.086 361.596 214.091 361.608Z" fill="#FFDE3B"/>
<path d="M253.919 375.662C252.329 375.559 251.17 374.465 250.854 374.133C250.439 373.698 249.181 371.85 248.17 370.367C247.373 369.198 246.687 368.187 246.346 367.756C245.717 366.965 244.595 363.538 244.357 362.32C244.312 362.092 244.291 361.822 244.287 361.536C245.475 361.118 247.698 361.031 248.257 361.134C248.696 361.213 249.128 361.499 249.802 362.158C250.356 362.697 250.825 362.871 251.248 362.871C251.556 362.871 251.84 362.78 252.115 362.672C252.559 362.498 252.966 362.009 253.241 361.607C253.779 361.557 254.289 361.251 254.733 360.927C255.464 360.389 255.546 359.506 254.979 358.304C254.864 358.06 254.72 357.733 254.56 357.376C254.387 356.983 254.194 356.556 254.005 356.146C253.619 355.317 253.253 354.691 252.707 354.322C252.596 354.248 252.263 353.945 252 353.705C251.811 353.535 251.61 353.353 251.417 353.179C251.47 353.029 251.511 352.88 251.523 352.727C251.552 352.333 251.429 351.973 251.166 351.691C250.952 351.459 250.554 351.194 249.867 351.215C249.51 351.227 249.111 351.331 248.717 351.492C247.694 351.21 246.009 351.215 245.434 351.239C245.052 351.26 244.431 351.277 243.765 351.297C242.73 351.331 241.555 351.368 240.971 351.413C240.096 351.484 239.007 351.451 238.588 351.401C238.243 351.36 237.881 351.277 237.503 351.186C236.825 351.028 236.053 350.842 235.161 350.871C233.792 350.904 232.445 351.741 231.8 352.143L231.66 352.23C231.401 352.383 230.119 352.578 228.697 352.545C226.848 352.499 221.716 352.151 220.241 351.989C219.85 351.948 219.283 351.832 218.63 351.699C216.863 351.339 214.447 350.85 212.207 351.074C209.627 351.331 207.091 352.014 204.679 353.108L204.125 353.365C202.353 354.181 199.921 355.3 197.381 355.11C195.22 354.944 191.567 353.796 191.567 350.514C191.567 348.762 193.572 347.858 194.431 347.858C195.779 347.858 196.991 348.936 197.098 349.234C197.098 349.797 196.983 350.17 196.892 350.469C196.765 350.887 196.572 351.521 197.151 352.068C197.616 352.503 198.614 352.731 199.477 352.35C200.188 352.039 201.03 351.248 201.03 349.234C201.03 345.608 197.11 343.922 194.46 343.922C191.723 343.922 187.758 346.271 187.758 350.514C187.758 354.807 190.585 357.994 195.13 358.831C198.343 359.423 200.496 359.129 202.045 358.582C201.601 359.987 200.94 361.967 200.381 363.21C199.436 365.307 197.065 368.262 196.691 368.556C196.592 368.622 196.477 368.693 196.354 368.763C195.808 369.09 195.13 369.496 194.912 370.188C194.772 370.64 193.128 374.701 192.529 376.155C191.974 377.502 192.52 378.252 192.96 378.857C193.059 378.994 193.17 379.139 193.272 379.304C193.794 380.141 194.768 380.485 195.602 380.485C195.96 380.485 196.297 380.419 196.56 380.303C197.558 379.856 197.472 378.43 197.279 377.846C197.164 377.506 196.888 377.274 196.539 376.98C196.445 376.901 196.309 376.785 196.21 376.69C196.482 376.018 197.431 374.378 197.685 374.112C197.998 373.826 199.518 372.782 200.73 372.086C201.992 371.365 204.84 369.48 206.2 368.498C206.964 367.947 207.671 367.338 208.176 366.878C208.698 367.814 208.953 368.469 208.969 368.684C209.146 371.858 209.018 372.538 208.99 372.641C208.957 372.766 208.908 372.886 208.858 373.01C208.599 373.657 208.16 374.738 209.401 376.097C209.951 376.698 212.992 379.806 214.2 380.071C214.225 380.075 215.86 380.369 217.356 380.369C218.359 380.369 219.304 380.237 219.657 379.797C220.039 379.325 220.105 378.65 219.838 378.032C219.526 377.315 218.848 376.86 218.026 376.81C217.644 376.785 217.311 376.818 217.015 376.847C216.394 376.909 216.053 376.943 215.515 376.495C215.178 376.213 214.278 375.467 214.217 375.248C214.348 374.68 215.408 370.607 215.786 369.563C215.84 369.409 215.914 369.223 215.992 369.016C216.337 368.104 216.674 367.176 216.912 366.302C217.874 366.567 219.587 366.969 221.531 367.126C223.479 367.284 224.892 367.118 226.03 366.989C226.195 366.969 226.343 366.956 226.495 366.94C226.285 367.818 226.006 369.065 225.903 369.985C225.817 370.735 225.755 371.879 225.702 372.886C225.661 373.694 225.603 374.701 225.57 374.871C225.398 375.389 225.652 375.886 225.899 376.371C225.981 376.536 226.121 376.81 226.137 376.905C226.162 377.129 226.466 378.832 226.984 379.317C227.444 379.744 229.207 379.951 230.02 379.951C230.135 379.951 230.23 379.947 230.3 379.938C231.417 379.814 232.256 378.985 232.161 378.09L232.153 377.978C232.116 377.568 232.034 376.611 230.628 376.524C230.419 376.512 230.23 376.512 230.065 376.512C230.008 376.512 229.946 376.512 229.889 376.512C229.864 376.441 229.835 376.367 229.811 376.288C229.667 375.894 229.535 375.517 229.605 375.19C229.741 374.576 230.76 371.771 231.278 370.524C231.664 369.6 232.572 367.806 232.967 367.043C233.164 367.018 233.365 366.989 233.558 366.965C234.002 366.911 234.417 366.857 234.783 366.786C235.342 366.683 235.974 366.455 236.422 366.273C237.392 367.491 239.077 369.273 239.825 369.853C240.273 370.201 241.107 371.009 241.912 371.788C242.787 372.637 243.617 373.441 244.069 373.768L244.402 374.009C246.103 375.223 247.04 376.018 247.192 376.367C247.669 377.456 250.352 379.408 251.388 379.582C251.4 379.586 252.115 379.686 252.962 379.686C254.129 379.686 255.559 379.495 255.809 378.588C255.974 377.999 256.064 377.154 255.587 376.478C255.333 376.143 254.848 375.724 253.919 375.662ZM192.122 346.984C192.109 346.71 191.953 346.478 191.731 346.35C192.496 345.873 193.317 345.592 194.016 345.509V345.563C194.016 345.878 194.201 346.147 194.468 346.271C194.447 346.271 194.427 346.267 194.406 346.267C193.7 346.271 192.87 346.524 192.122 346.984ZM199.448 349.221C199.448 350.079 199.251 350.663 198.889 350.867C198.705 350.97 198.495 350.966 198.351 350.949C198.355 350.941 198.355 350.933 198.359 350.925C198.47 350.568 198.635 350.025 198.635 349.226C198.635 348.998 198.561 348.749 198.425 348.5L198.503 348.422C198.807 348.115 198.807 347.618 198.503 347.307C198.199 347 197.706 347 197.398 347.307L197.369 347.336C196.708 346.835 195.857 346.441 194.973 346.317C195.302 346.234 195.549 345.956 195.565 345.608C197.307 345.956 199.448 347.083 199.448 349.221ZM190.585 347.291C190.618 347.564 190.778 347.792 191.012 347.908C190.721 348.235 190.474 348.608 190.293 349.018C190.075 349.039 189.87 349.143 189.734 349.338C189.484 349.69 189.566 350.183 189.915 350.436L189.981 350.481C189.981 350.489 189.981 350.494 189.981 350.498C189.981 351.206 190.104 351.849 190.326 352.433C190.042 352.495 189.821 352.702 189.747 352.984C189.455 352.226 189.299 351.393 189.299 350.498C189.299 349.163 189.829 348.094 190.585 347.291ZM190.195 353.92C190.285 353.958 190.379 353.978 190.482 353.978H190.564C190.762 353.978 190.938 353.896 191.078 353.775C191.485 354.306 191.99 354.762 192.561 355.143C192.278 355.064 191.966 355.147 191.764 355.387L191.666 355.503C191.645 355.528 191.637 355.557 191.62 355.586C191.045 355.101 190.564 354.546 190.195 353.92ZM192.919 356.444L192.948 356.411C193.207 356.104 193.182 355.661 192.919 355.375C193.909 355.963 195.064 356.349 196.256 356.547C196.235 356.564 196.21 356.572 196.194 356.593L195.919 356.887C195.799 357.016 195.746 357.173 195.725 357.331C195.614 357.31 195.508 357.297 195.388 357.277C194.48 357.103 193.65 356.821 192.919 356.444ZM228.364 373.814C227.97 373.897 227.559 373.984 227.547 373.959C227.547 373.914 227.575 373.76 227.715 373.615C227.838 373.487 228.011 373.412 228.188 373.412C227.756 373.412 227.407 373.764 227.407 374.199C227.407 374.581 227.682 374.887 228.044 374.958C227.916 375.691 228.142 376.346 228.315 376.826C228.352 376.93 228.389 377.03 228.418 377.129C228.722 378.09 229.548 378.082 230.045 378.086C230.181 378.086 230.333 378.086 230.505 378.094C230.53 378.094 230.55 378.099 230.567 378.099C230.567 378.103 230.567 378.111 230.567 378.115L230.571 378.173C230.509 378.235 230.345 378.343 230.098 378.372C229.663 378.414 228.483 378.244 228.027 378.115C227.896 377.8 227.703 377.096 227.662 376.731C227.621 376.354 227.436 375.998 227.259 375.65C227.193 375.521 227.099 375.335 227.062 375.227C227.123 374.937 227.156 374.386 227.234 372.969C227.238 372.869 227.247 372.77 227.251 372.666C227.337 372.699 227.427 372.72 227.522 372.72C227.612 372.72 227.707 372.704 227.797 372.666C227.892 372.629 227.958 372.608 228.007 372.592C228.188 372.53 228.294 372.488 228.508 372.347C228.87 372.111 228.977 371.626 228.742 371.257C228.508 370.893 228.027 370.785 227.662 371.021C227.588 371.071 227.588 371.071 227.506 371.096C227.46 371.112 227.403 371.133 227.333 371.158C227.358 370.785 227.386 370.437 227.419 370.159C227.53 369.181 227.871 367.731 228.073 366.911C228.41 366.956 228.755 367.027 229.096 367.097C229.675 367.222 230.267 367.346 230.85 367.346C230.908 367.346 230.965 367.338 231.023 367.338C230.596 368.191 230.078 369.244 229.803 369.911C229.441 370.806 228.771 372.604 228.364 373.814ZM254.334 377.958C253.808 378.119 252.308 378.148 251.622 378.032C251.059 377.925 248.848 376.304 248.598 375.737C248.31 375.078 247.439 374.311 246.046 373.284C246.268 373.035 246.317 372.662 246.14 372.364C246.14 372.364 246.038 372.186 245.972 371.916C245.873 371.494 245.45 371.233 245.031 371.336C244.686 371.419 244.46 371.726 244.447 372.065C244.028 371.684 243.474 371.15 242.968 370.657C242.693 370.387 242.426 370.13 242.167 369.882C242.208 369.886 242.245 369.902 242.29 369.898C242.722 369.861 243.038 369.484 243.005 369.049C242.972 368.659 242.755 368.456 242.623 368.365C242.261 368.117 241.875 368.233 241.624 368.307L241.468 368.353C241.234 368.419 241.066 368.585 240.975 368.788C240.901 368.726 240.819 368.651 240.753 368.601C240.618 368.498 240.453 368.349 240.273 368.179C240.273 368.179 240.273 368.179 240.273 368.175C240.277 368.15 240.281 368.125 240.281 368.1C240.499 367.889 240.585 367.565 240.474 367.263C240.297 366.766 239.886 366.629 239.586 366.662C239.348 366.687 239.188 366.799 239.065 366.944C238.165 365.966 237.281 364.913 237.137 364.619C236.755 363.844 234.984 362.311 234.454 361.86C234.125 361.578 233.632 361.623 233.353 361.955C233.077 362.286 233.119 362.784 233.447 363.065C234.179 363.687 235.009 364.458 235.448 364.947C235.124 365.063 234.77 365.175 234.475 365.233C234.405 365.245 234.331 365.257 234.257 365.266C234.454 364.947 234.413 364.528 234.125 364.267C233.805 363.977 233.312 364.006 233.024 364.333C232.843 364.541 232.519 364.938 232.404 365.262C232.371 365.349 232.367 365.436 232.367 365.527C232.005 365.581 231.631 365.647 231.257 365.734C230.78 365.846 230.123 365.705 229.433 365.556C229.009 365.465 228.578 365.378 228.134 365.328C228.2 365.22 228.27 365.108 228.344 365.005C228.59 364.648 228.508 364.159 228.155 363.907C227.801 363.658 227.316 363.741 227.066 364.097C226.606 364.752 226.462 365.129 226.417 365.357C226.223 365.378 226.039 365.394 225.829 365.419C224.982 365.518 223.968 365.626 222.698 365.601C222.739 365.547 222.776 365.489 222.801 365.419C222.948 365.013 222.743 364.557 222.336 364.408C221.428 364.072 220.697 364.992 220.417 365.415C219.041 365.224 217.865 364.934 217.187 364.744C217.212 364.491 217.224 364.246 217.208 364.018C217.179 363.583 216.801 363.256 216.378 363.285C216.144 363.302 215.946 363.426 215.811 363.6C215.725 363.413 215.564 363.26 215.355 363.19C215.318 363.177 215.232 363.157 215.121 363.136C215.063 363.128 214.94 363.103 214.849 363.078C214.664 362.871 214.373 362.771 214.081 362.842C213.662 362.945 213.407 363.372 213.51 363.795C213.674 364.47 214.426 364.607 214.903 364.694C214.969 364.71 215.038 364.719 215.104 364.719C215.305 364.719 215.49 364.632 215.634 364.499C215.597 365.001 215.458 365.614 215.273 366.235C215.24 366.086 215.182 365.945 215.071 365.829C214.87 365.589 214.488 365.146 213.945 365.237C213.645 365.286 213.395 365.494 213.28 365.788C213.119 366.19 213.313 366.65 213.715 366.811C213.773 366.836 213.834 366.853 213.896 366.861C213.937 366.907 213.97 366.944 213.991 366.965C214.138 367.114 214.332 367.188 214.529 367.188C214.71 367.188 214.89 367.114 215.038 366.985C214.853 367.532 214.66 368.046 214.512 368.44C214.43 368.655 214.356 368.85 214.299 369.012C214.274 369.082 214.245 369.169 214.212 369.264C214.147 369.02 214.056 368.705 214.015 368.597C213.859 368.199 213.419 368.013 213.021 368.162C212.622 368.311 212.421 368.763 212.561 369.169C212.598 369.281 212.708 369.687 212.778 369.96C212.869 370.313 213.185 370.549 213.534 370.549C213.6 370.549 213.666 370.541 213.732 370.524C213.777 370.512 213.81 370.483 213.851 370.466C213.74 370.851 213.625 371.266 213.51 371.688C213.411 371.527 213.259 371.394 213.066 371.336C212.651 371.216 212.22 371.456 212.1 371.875C211.998 372.227 212.117 372.571 212.528 373.147C212.655 373.325 212.844 373.412 213.045 373.445C212.865 374.141 212.725 374.693 212.68 374.883C212.425 375.977 213.436 376.818 214.504 377.705C215.54 378.563 216.431 378.476 217.142 378.409C217.405 378.385 217.652 378.36 217.915 378.376C218.17 378.393 218.297 378.505 218.359 378.596C218.391 378.646 218.408 378.691 218.416 378.728C217.668 378.878 215.289 378.695 214.533 378.53C214.019 378.364 211.854 376.462 210.535 375.024C209.964 374.402 210.066 374.15 210.292 373.599C210.37 373.408 210.44 373.222 210.49 373.035C210.535 372.857 210.662 372.36 210.58 370.052C210.592 370.085 210.605 370.105 210.613 370.122C210.753 370.404 211.04 370.574 211.332 370.574C211.447 370.574 211.558 370.549 211.669 370.495C212.055 370.3 212.22 369.849 212.026 369.459C211.998 369.384 211.924 369.074 211.862 368.8C211.768 368.373 211.348 368.104 210.933 368.199C210.753 368.241 210.609 368.349 210.502 368.481C210.428 367.777 209.816 366.542 209.08 365.34C209.092 365.34 209.105 365.34 209.117 365.34C209.487 365.303 209.77 365.009 209.816 364.652C209.844 364.586 209.91 364.47 209.968 364.387C210.206 364.027 210.107 363.538 209.75 363.297C209.392 363.057 208.908 363.152 208.669 363.517C208.484 363.799 208.382 364.014 208.328 364.184C207.157 362.489 205.197 359.158 205.176 359.125C204.955 358.752 204.478 358.628 204.108 358.847C203.738 359.067 203.615 359.552 203.833 359.925C203.915 360.061 205.846 363.347 207.054 365.092C207.157 365.237 207.243 365.373 207.338 365.514C206.869 365.949 206.101 366.629 205.287 367.213C204.971 367.441 204.568 367.723 204.125 368.025C204.207 367.615 203.96 367.209 203.553 367.11C203.138 367.006 202.711 367.259 202.608 367.681C202.518 368.05 202.506 368.369 202.506 368.527C202.506 368.705 202.575 368.862 202.674 368.995C201.622 369.691 200.57 370.358 199.954 370.71C199.641 370.889 199.292 371.1 198.943 371.324C198.935 371.274 198.926 371.233 198.922 371.208C198.898 370.793 198.561 370.466 198.142 370.466C197.71 370.466 197.361 370.818 197.361 371.253C197.361 371.398 197.381 371.862 197.558 372.239C197.135 372.534 196.794 372.791 196.621 372.952C196.243 373.304 194.513 376.052 194.583 376.88C194.628 377.431 195.089 377.817 195.536 378.19C195.623 378.26 195.742 378.36 195.812 378.43C195.836 378.567 195.84 378.77 195.82 378.894C195.524 378.948 194.863 378.894 194.595 378.463C194.468 378.26 194.341 378.086 194.221 377.92C193.835 377.394 193.757 377.282 193.975 376.76C194.386 375.762 196.227 371.241 196.403 370.665C196.473 370.52 196.917 370.255 197.151 370.114C197.295 370.027 197.435 369.944 197.558 369.861C197.838 369.67 198.45 368.978 199.14 368.079C199.161 368.266 199.202 368.498 199.239 368.684C199.313 369.061 199.637 369.322 200.003 369.322C200.052 369.322 200.102 369.318 200.151 369.31C200.574 369.227 200.85 368.813 200.767 368.386C200.767 368.382 200.693 368.017 200.685 367.868C200.677 367.437 200.332 367.093 199.904 367.093C199.888 367.093 199.876 367.101 199.859 367.101C200.615 366.028 201.363 364.831 201.803 363.857C202.789 361.665 204.001 357.534 204.055 357.355C204.145 357.049 204.042 356.717 203.792 356.518C203.545 356.32 203.2 356.291 202.925 356.448C201.733 357.123 200.159 357.745 197.435 357.546C197.603 357.273 197.591 356.937 197.402 356.676C198.022 356.713 198.626 356.688 199.214 356.618C199.247 356.734 199.296 356.85 199.383 356.945L199.563 357.14C199.715 357.31 199.929 357.397 200.139 357.397C200.328 357.397 200.517 357.326 200.665 357.19C200.915 356.958 200.973 356.597 200.845 356.299C201.807 356.046 202.703 355.706 203.516 355.354C203.611 355.578 203.796 355.76 204.051 355.818L204.342 355.884C204.4 355.897 204.457 355.905 204.511 355.905C204.868 355.905 205.193 355.657 205.271 355.288C205.324 355.047 205.25 354.811 205.111 354.633L205.316 354.538C206.019 354.219 206.73 353.954 207.453 353.713C207.445 354.086 207.687 354.422 208.061 354.5C208.114 354.513 208.168 354.517 208.221 354.517C208.583 354.517 208.908 354.26 208.986 353.891L209.06 353.535C209.08 353.431 209.08 353.332 209.06 353.237C209.532 353.117 210.005 353.005 210.477 352.913C210.424 353.104 210.42 353.299 210.477 353.485C210.58 353.817 210.851 354.065 211.217 354.165C211.287 354.186 211.357 354.194 211.422 354.194C211.768 354.194 212.08 353.966 212.174 353.614C212.236 353.39 212.195 353.166 212.08 352.984C212.08 352.88 212.055 352.785 212.014 352.69C212.129 352.677 212.244 352.652 212.359 352.64C213.017 352.574 213.703 352.586 214.389 352.636C214.015 352.64 213.682 352.897 213.617 353.278C213.567 353.581 213.691 353.871 213.917 354.041C213.945 354.132 213.991 354.223 214.056 354.302C214.212 354.492 214.434 354.592 214.66 354.592C214.833 354.592 215.01 354.534 215.153 354.413C215.466 354.152 215.597 353.784 215.503 353.423C215.363 352.893 214.845 352.71 214.611 352.652C215.277 352.71 215.934 352.806 216.563 352.913C216.489 352.963 216.419 353.021 216.366 353.1C216.168 353.382 216.177 353.75 216.366 354.02C216.357 354.231 216.431 354.447 216.592 354.608C216.744 354.762 216.945 354.84 217.142 354.84C217.339 354.84 217.541 354.762 217.693 354.608C217.902 354.397 218.009 354.107 217.985 353.813C217.964 353.564 217.853 353.324 217.672 353.125C217.89 353.166 218.104 353.212 218.305 353.253C219 353.394 219.595 353.514 220.056 353.564C220.269 353.589 220.569 353.614 220.919 353.647C221.001 354.036 221.202 354.434 221.453 354.6C221.584 354.691 221.736 354.733 221.884 354.733C222.135 354.733 222.386 354.608 222.533 354.38C222.657 354.198 222.681 353.983 222.636 353.784C223.852 353.871 225.241 353.962 226.445 354.028C226.392 354.256 226.363 354.509 226.412 354.737C226.491 355.11 226.827 355.391 227.193 355.391C227.243 355.391 227.292 355.387 227.345 355.375C227.768 355.284 228.04 354.898 227.949 354.476C227.949 354.442 227.97 354.364 227.982 354.322C228.019 354.252 228.036 354.177 228.052 354.107C228.27 354.115 228.475 354.123 228.644 354.128C229.663 354.152 231.574 354.07 232.395 353.614C232.486 353.949 232.773 354.202 233.135 354.202C233.566 354.202 233.916 353.85 233.916 353.415V352.847C233.916 352.826 233.908 352.81 233.903 352.789C234.162 352.677 234.429 352.582 234.696 352.524C234.692 352.557 234.676 352.586 234.676 352.619C234.676 353.054 235.025 353.407 235.457 353.407H235.621C236.053 353.407 236.402 353.054 236.402 352.619C236.402 352.603 236.394 352.586 236.394 352.57C236.64 352.615 236.887 352.669 237.137 352.731C237.544 352.826 237.963 352.922 238.395 352.976C238.769 353.021 239.41 353.046 240.071 353.038C240.01 353.088 239.948 353.141 239.903 353.212L239.796 353.378C239.562 353.742 239.664 354.231 240.026 354.467C240.158 354.554 240.305 354.592 240.449 354.592C240.704 354.592 240.955 354.463 241.107 354.231L241.214 354.065C241.44 353.709 241.345 353.245 241.004 353C241.029 353 241.057 352.996 241.082 352.996C241.526 352.959 242.376 352.93 243.227 352.905C243.227 353.129 243.313 353.353 243.498 353.506L243.597 353.589C243.745 353.713 243.922 353.771 244.094 353.771C244.32 353.771 244.538 353.676 244.694 353.489C244.846 353.307 244.891 353.075 244.854 352.855C245.105 352.847 245.327 352.839 245.499 352.831C245.898 352.81 246.371 352.814 246.827 352.839C246.806 352.864 246.781 352.889 246.761 352.913C246.494 353.253 246.551 353.75 246.888 354.02C247.225 354.289 247.718 354.231 247.985 353.891C248.257 353.547 248.659 353.266 249.037 353.071C249.041 353.071 249.041 353.067 249.046 353.067C249.391 352.889 249.72 352.785 249.904 352.773C249.773 353.009 249.444 353.382 249.124 353.643C248.787 353.916 248.733 354.409 249.005 354.749C249.161 354.944 249.387 355.043 249.613 355.043C249.785 355.043 249.954 354.985 250.102 354.869C250.135 354.844 250.18 354.807 250.225 354.766C250.172 354.873 250.135 354.989 250.135 355.114V355.375C250.135 355.81 250.484 356.162 250.915 356.162C251.297 356.162 251.597 355.88 251.667 355.516C251.729 355.565 251.786 355.611 251.84 355.644C252.099 355.818 252.378 356.365 252.592 356.825C252.777 357.227 252.966 357.65 253.134 358.031C253.299 358.4 253.446 358.739 253.57 358.992C253.812 359.502 253.804 359.663 253.816 359.663C253.303 360.041 253.122 360.061 253.126 360.065C253.003 360.045 252.826 359.991 252.662 359.945C252.263 359.833 252.045 359.771 251.795 359.833C251.375 359.937 251.121 360.368 251.228 360.786C251.273 360.973 251.384 361.122 251.523 361.226C251.215 361.346 251.203 361.338 250.891 361.035C250.225 360.389 249.481 359.767 248.532 359.597C248.298 359.556 247.846 359.531 247.291 359.539C247.361 359.365 247.377 359.162 247.307 358.971C247.16 358.561 246.712 358.354 246.305 358.503L246.124 358.57C245.717 358.719 245.512 359.17 245.66 359.581C245.668 359.605 245.688 359.626 245.701 359.651C245.253 359.705 244.805 359.784 244.382 359.887C244.419 359.585 244.46 359.353 244.484 359.274C244.645 358.872 244.452 358.412 244.049 358.251C243.646 358.089 243.194 358.284 243.034 358.69C242.927 358.959 242.796 359.763 242.746 360.646C242.652 360.608 242.545 360.559 242.446 360.513C242.056 360.331 241.592 360.505 241.411 360.902C241.23 361.296 241.403 361.764 241.797 361.947C242.348 362.199 242.615 362.274 242.779 362.291C242.796 362.411 242.808 362.535 242.828 362.647C242.857 362.788 242.902 362.978 242.96 363.206C242.923 363.223 242.886 363.223 242.849 363.244L242.685 363.343C242.315 363.567 242.196 364.052 242.418 364.425C242.565 364.669 242.824 364.806 243.087 364.806C243.194 364.806 243.297 364.777 243.4 364.731C243.757 365.871 244.234 367.176 244.698 368.059C244.624 368.096 244.55 368.137 244.489 368.199L244.32 368.365C244.106 368.572 243.843 368.829 243.897 369.264C243.926 369.509 244.115 369.774 244.328 369.898C244.452 369.969 244.583 370.002 244.715 370.002C244.986 370.002 245.249 369.861 245.393 369.604C245.421 369.55 245.446 369.496 245.462 369.438L245.561 369.343C245.914 369.844 246.391 370.541 246.888 371.27C248.261 373.284 249.267 374.746 249.732 375.235C250.841 376.4 252.37 377.15 253.825 377.249C254.067 377.266 254.244 377.324 254.301 377.411C254.355 377.477 254.383 377.676 254.334 377.958Z" fill="#FFDE3B"/>
<path d="M221.775 359.92C221.812 359.767 221.8 359.614 221.747 359.473C221.989 359.195 222.01 358.773 221.775 358.47C221.508 358.126 221.019 358.064 220.678 358.333C220.362 358.582 219.976 359.187 220.103 359.767C220.185 360.14 220.465 360.422 220.834 360.509C220.892 360.521 220.954 360.53 221.011 360.53C221.373 360.53 221.693 360.285 221.775 359.92Z" fill="#FFDE3B"/>
<path d="M224.901 361.893C225.086 361.855 225.427 361.723 225.637 361.246C225.719 361.056 225.974 360.243 225.686 359.759C225.398 359.278 224.844 359.257 224.042 359.386C223.615 359.452 223.323 359.854 223.393 360.285C223.442 360.612 223.689 360.861 223.993 360.931C223.964 361.043 223.96 361.159 223.985 361.275C224.059 361.648 224.383 361.909 224.749 361.909C224.798 361.909 224.848 361.905 224.901 361.893Z" fill="#FFDE3B"/>
<path d="M227.031 358.139C227.274 357.898 227.34 357.517 227.167 357.202C226.962 356.821 226.489 356.68 226.107 356.887C225.532 357.202 225.227 357.691 225.289 358.201C225.343 358.623 225.647 358.967 226.074 359.079C226.14 359.096 226.205 359.104 226.267 359.104C226.616 359.104 226.933 358.868 227.023 358.516C227.06 358.387 227.06 358.259 227.031 358.139Z" fill="#FFDE3B"/>
<path d="M223.678 358.83C223.703 358.83 223.727 358.835 223.748 358.835C224.146 358.835 224.487 358.528 224.524 358.118C224.549 357.844 224.434 357.591 224.233 357.434C224.224 357.156 224.068 356.887 223.801 356.754C223.415 356.56 222.946 356.717 222.753 357.107C222.568 357.48 222.573 357.894 222.762 358.242C222.951 358.573 223.292 358.793 223.678 358.83Z" fill="#FFDE3B"/>
<path d="M221.31 357.285C221.409 357.285 221.512 357.264 221.61 357.223C221.914 357.094 222.453 356.738 222.555 356.208C222.613 355.918 222.527 355.623 222.325 355.42C222.021 355.114 221.528 355.114 221.22 355.42C221.121 355.52 221.055 355.636 221.023 355.76C221.019 355.764 221.014 355.764 221.01 355.768C220.612 355.934 220.427 356.398 220.591 356.8C220.71 357.103 221.002 357.285 221.31 357.285Z" fill="#FFDE3B"/>
<path d="M219.34 355.657C219.361 355.661 219.385 355.661 219.406 355.661C219.809 355.661 220.15 355.35 220.182 354.94C220.203 354.708 220.121 354.492 219.973 354.335C220.014 353.92 219.726 353.543 219.311 353.481C218.888 353.411 218.485 353.713 218.424 354.144C218.383 354.405 218.313 354.89 218.621 355.279C218.794 355.499 219.048 355.632 219.34 355.657Z" fill="#FFDE3B"/>
<path d="M212.983 354.132C212.58 353.983 212.132 354.194 211.98 354.604C211.865 354.928 211.972 355.276 212.218 355.483C212.231 355.545 212.255 355.607 212.284 355.669C212.42 355.947 212.695 356.104 212.983 356.104C213.098 356.104 213.221 356.08 213.332 356.022C213.669 355.852 213.862 355.52 213.841 355.151C213.821 354.712 213.48 354.314 212.983 354.132Z" fill="#FFDE3B"/>
<path d="M214.904 356.601C215.039 356.709 215.199 356.759 215.36 356.759C215.586 356.759 215.812 356.655 215.968 356.456C216.005 356.407 216.038 356.357 216.062 356.303C216.297 356.133 216.412 355.831 216.35 355.512C216.268 355.085 215.824 354.815 215.405 354.894C215.171 354.94 214.624 355.039 214.488 355.607C214.439 355.822 214.423 356.233 214.904 356.601Z" fill="#FFDE3B"/>
<path d="M217.484 357.26C217.616 357.364 217.784 357.426 217.965 357.426C217.986 357.426 218.01 357.426 218.031 357.422C218.458 357.385 218.779 357.004 218.746 356.573C218.721 356.274 218.577 356.017 218.343 355.847C217.904 355.528 217.332 355.673 217.119 355.727C216.7 355.831 216.445 356.262 216.552 356.68C216.654 357.103 217.074 357.356 217.484 357.26Z" fill="#FFDE3B"/>
<path d="M218.16 358.288C218.16 358.3 218.156 358.313 218.156 358.329C217.967 358.474 217.848 358.698 217.848 358.955C217.848 359.39 218.197 359.742 218.628 359.742C219.384 359.742 219.721 358.909 219.721 358.317C219.721 357.894 219.393 357.571 218.974 357.55C218.546 357.529 218.193 357.869 218.16 358.288Z" fill="#FFDE3B"/>
<path d="M217.162 360.368C217.252 360.107 217.199 359.834 217.046 359.627C217.19 359.245 217.018 358.806 216.644 358.632C216.253 358.45 215.789 358.62 215.608 359.017C215.399 359.477 215.366 359.888 215.51 360.236C215.629 360.522 215.863 360.737 216.167 360.845C216.253 360.874 216.34 360.89 216.426 360.89C216.747 360.894 217.051 360.691 217.162 360.368Z" fill="#FFDE3B"/>
<path d="M214.739 358.835C214.92 358.835 215.097 358.773 215.245 358.648C215.323 358.582 215.384 358.503 215.43 358.42C215.672 358.267 215.824 357.981 215.791 357.675C215.75 357.244 215.368 356.925 214.937 356.97C214.489 357.016 214.135 357.26 213.991 357.621C213.864 357.936 213.926 358.296 214.144 358.557C214.296 358.739 214.517 358.835 214.739 358.835Z" fill="#FFDE3B"/>
<path d="M219.334 362.332C218.977 362.552 218.52 363.256 218.619 363.865C218.685 364.25 219.014 364.524 219.388 364.524C219.429 364.524 219.474 364.52 219.519 364.511C219.909 364.445 220.181 364.101 220.172 363.716C220.181 363.699 220.189 363.679 220.201 363.662C220.279 363.612 220.349 363.55 220.407 363.471C220.665 363.123 220.596 362.63 220.255 362.369C219.992 362.174 219.605 362.166 219.334 362.332Z" fill="#FFDE3B"/>
<path d="M222.061 361.437C221.774 361.524 221.544 361.736 221.408 362.034C221.231 362.424 221.207 362.987 221.355 363.314C221.486 363.609 221.77 363.779 222.065 363.779C222.172 363.779 222.279 363.758 222.386 363.708C222.743 363.546 222.92 363.153 222.822 362.784C222.822 362.776 222.822 362.767 222.822 362.759C223.031 362.56 223.122 362.254 223.035 361.959C222.908 361.549 222.472 361.313 222.061 361.437Z" fill="#FFDE3B"/>
<path d="M218.663 360.521C218.277 360.326 217.808 360.484 217.615 360.873C217.587 360.931 217.451 361.068 217.377 361.139C217.151 361.362 216.773 361.735 216.954 362.278C217.065 362.61 217.369 362.817 217.693 362.817C217.776 362.817 217.858 362.804 217.94 362.775C218.17 362.697 218.343 362.523 218.421 362.311C218.437 362.295 218.454 362.278 218.47 362.262C218.634 362.096 218.864 361.872 219.008 361.578C219.206 361.188 219.049 360.716 218.663 360.521Z" fill="#FFDE3B"/>
<path d="M224.837 363.086C224.738 363.235 224.685 363.368 224.644 363.48C224.603 363.587 224.578 363.645 224.512 363.724C224.237 364.06 224.282 364.553 224.611 364.835C224.759 364.959 224.936 365.017 225.112 365.017C225.338 365.017 225.556 364.922 225.712 364.735C225.942 364.458 226.037 364.217 226.099 364.056C226.111 364.022 226.123 363.989 226.14 363.96C226.378 363.6 226.279 363.111 225.922 362.871C225.56 362.626 225.075 362.725 224.837 363.086Z" fill="#FFDE3B"/>
<path d="M228.737 361.441C228.75 361.246 228.688 361.043 228.553 360.881C228.273 360.55 227.78 360.513 227.451 360.794C226.987 361.192 226.983 361.627 227.024 361.851C227.102 362.286 227.439 362.613 228.018 362.825C228.105 362.858 228.195 362.87 228.281 362.87C228.602 362.87 228.902 362.671 229.017 362.348C229.14 362.004 229.013 361.64 228.737 361.441Z" fill="#FFDE3B"/>
<path d="M230.823 363.579C230.482 363.621 229.869 363.911 229.59 364.416C229.38 364.793 229.504 365.287 229.878 365.502C230.001 365.572 230.136 365.606 230.268 365.606C230.535 365.606 230.79 365.469 230.934 365.212C230.958 365.187 231.032 365.142 231.02 365.137C231.447 365.084 231.751 364.69 231.698 364.259C231.64 363.832 231.25 363.526 230.823 363.579Z" fill="#FFDE3B"/>
<path d="M224.491 356.448C224.512 356.448 224.532 356.448 224.553 356.444C224.984 356.415 225.309 356.042 225.28 355.607C225.255 355.259 225.013 354.977 224.697 354.894C224.54 354.633 224.236 354.476 223.916 354.521C223.488 354.583 223.193 354.981 223.254 355.412C223.32 355.885 223.908 356.448 224.491 356.448Z" fill="#FFDE3B"/>
<path d="M228.283 357.409L228.809 356.829L228.291 357.418C228.439 357.55 228.624 357.617 228.809 357.617C229.023 357.617 229.236 357.529 229.393 357.351C229.627 357.086 229.651 356.701 229.475 356.415C229.524 356.199 229.483 355.967 229.343 355.777C229.088 355.425 228.599 355.35 228.254 355.607C227.975 355.814 227.811 356.104 227.794 356.423C227.769 356.949 228.156 357.293 228.283 357.409Z" fill="#FFDE3B"/>
<path d="M230.032 359.813C230.18 359.444 230.028 359.034 229.7 358.839C229.576 358.499 229.223 358.284 228.857 358.33C228.43 358.392 228.134 358.789 228.196 359.22C228.278 359.805 228.754 360.144 229.022 360.252C229.116 360.289 229.215 360.31 229.309 360.31C229.617 360.31 229.913 360.124 230.032 359.813Z" fill="#FFDE3B"/>
<path d="M232.077 360.468C232.057 360.435 232.032 360.389 232.02 360.356C231.88 359.946 231.436 359.726 231.025 359.871C230.618 360.012 230.401 360.459 230.544 360.874C230.577 360.973 230.894 361.839 231.559 361.906C231.588 361.91 231.613 361.91 231.642 361.91C232.036 361.91 232.377 361.607 232.418 361.201C232.443 360.903 232.303 360.629 232.077 360.468Z" fill="#FFDE3B"/>
<path d="M228.285 368.328C228.231 368.382 228.186 368.427 228.149 368.464C227.804 368.58 227.578 368.928 227.623 369.306C227.672 369.707 228.005 370.002 228.395 370.002C228.428 370.002 228.457 370.002 228.49 369.998C228.802 369.96 229.045 369.877 229.267 369.579C229.283 369.558 229.308 369.525 229.357 369.48C229.669 369.181 229.686 368.684 229.39 368.365C229.094 368.046 228.597 368.033 228.285 368.328Z" fill="#FFDE3B"/>
<path d="M211.161 365.096C210.836 365.44 210.565 366.049 210.886 366.612C211.03 366.869 211.293 367.014 211.568 367.014C211.699 367.014 211.831 366.981 211.95 366.911C212.234 366.749 212.377 366.434 212.34 366.123C212.591 365.808 212.562 365.349 212.266 365.063C211.954 364.768 211.461 364.781 211.161 365.096Z" fill="#FFDE3B"/>
<path d="M212.363 361.276C212.096 361.197 211.78 361.28 211.578 361.475C211.172 361.868 211.172 362.904 211.213 363.07C211.299 363.43 211.62 363.671 211.969 363.671C212.03 363.671 212.092 363.662 212.154 363.646C212.528 363.555 212.77 363.207 212.745 362.834C212.75 362.751 212.77 362.589 212.791 362.473C212.836 362.403 212.873 362.328 212.897 362.245C213.017 361.827 212.778 361.392 212.363 361.276Z" fill="#FFDE3B"/>
<path d="M213.337 359.158C213.025 358.855 212.531 358.867 212.232 359.182C211.936 359.497 211.944 359.995 212.256 360.297L212.347 360.384C212.499 360.529 212.692 360.604 212.885 360.604C213.09 360.604 213.296 360.521 213.448 360.359C213.744 360.044 213.735 359.547 213.423 359.245L213.337 359.158Z" fill="#FFDE3B"/>
<path d="M209.004 360.492C208.601 360.335 208.149 360.534 207.993 360.94L207.878 361.234C207.722 361.64 207.919 362.096 208.321 362.253C208.416 362.291 208.51 362.307 208.605 362.307C208.917 362.307 209.213 362.117 209.332 361.806L209.447 361.512C209.604 361.106 209.402 360.65 209.004 360.492Z" fill="#FFDE3B"/>
<path d="M211.295 360.894C211.332 360.621 211.414 360.057 210.954 359.751C210.593 359.51 210.108 359.61 209.873 359.97C209.75 360.157 209.717 360.376 209.763 360.579C209.758 360.625 209.75 360.666 209.75 360.675C209.689 361.106 209.989 361.503 210.412 361.566C210.449 361.57 210.486 361.574 210.523 361.574C210.905 361.574 211.242 361.288 211.295 360.894Z" fill="#FFDE3B"/>
<path d="M211.398 358.789C211.83 358.789 212.175 358.474 212.175 358.039C212.183 357.985 212.208 357.902 212.228 357.823C212.302 357.529 212.351 357.335 212.269 357.09C212.134 356.68 211.69 356.456 211.279 356.593C210.971 356.696 210.769 356.978 210.749 357.289C210.741 357.326 210.724 357.376 210.712 357.43C210.65 357.662 210.613 357.815 210.613 357.964C210.621 358.399 210.967 358.789 211.398 358.789Z" fill="#FFDE3B"/>
<path d="M202.961 362.191C202.961 362.357 203.072 362.879 203.129 363.028C203.249 363.33 203.532 363.509 203.84 363.509C203.927 363.509 204.017 363.492 204.103 363.463C204.498 363.326 204.711 362.887 204.592 362.481C204.568 362.398 204.527 362.191 204.514 362.112C204.477 361.714 204.144 361.404 203.738 361.404C203.31 361.404 202.961 361.756 202.961 362.191Z" fill="#FFDE3B"/>
<path d="M205.295 366.418C205.337 366.426 205.378 366.426 205.419 366.426C205.797 366.426 206.13 366.148 206.187 365.763C206.204 365.655 206.253 365.274 206.175 364.938C206.08 364.524 205.682 364.284 205.267 364.367C204.852 364.449 204.585 364.868 204.65 365.286C204.658 365.328 204.65 365.444 204.642 365.519C204.576 365.945 204.868 366.351 205.295 366.418Z" fill="#FFDE3B"/>
<path d="M201.97 364.2C201.662 364.573 201.646 365.327 201.666 365.489C201.724 365.883 202.065 366.198 202.451 366.198C202.484 366.198 202.521 366.193 202.554 366.189C202.981 366.127 203.281 365.762 203.219 365.332C203.219 365.282 203.24 365.153 203.256 365.083C203.433 364.76 203.363 364.345 203.071 364.101C202.735 363.819 202.246 363.865 201.97 364.2Z" fill="#FFDE3B"/>
<path d="M208.019 359.274L207.871 358.831C207.735 358.42 207.296 358.192 206.885 358.333C206.474 358.47 206.256 358.918 206.392 359.328L206.54 359.771C206.651 360.103 206.955 360.31 207.279 360.31C207.362 360.31 207.444 360.297 207.526 360.268C207.933 360.132 208.155 359.684 208.019 359.274Z" fill="#FFDE3B"/>
<path d="M210.034 358.868V358.694C210.034 358.259 209.685 357.906 209.253 357.906C208.822 357.906 208.473 358.259 208.473 358.694V358.868C208.473 359.303 208.822 359.655 209.253 359.655C209.685 359.655 210.034 359.303 210.034 358.868Z" fill="#FFDE3B"/>
<path d="M207.038 356.506C207.149 356.833 207.453 357.036 207.777 357.036C207.86 357.036 207.946 357.024 208.032 356.995C208.439 356.854 208.657 356.406 208.517 355.996L208.369 355.565C208.229 355.155 207.786 354.931 207.379 355.076C206.972 355.217 206.754 355.665 206.894 356.075L207.038 356.506Z" fill="#FFDE3B"/>
<path d="M213.776 361.731C213.887 362.059 214.191 362.262 214.516 362.262C214.598 362.262 214.684 362.249 214.77 362.22C215.177 362.079 215.395 361.632 215.255 361.222L215.107 360.791C214.968 360.38 214.524 360.157 214.117 360.302C213.71 360.443 213.492 360.89 213.632 361.3L213.776 361.731Z" fill="#FFDE3B"/>
<path d="M209.112 355.984C209.223 356.311 209.527 356.514 209.852 356.514C209.934 356.514 210.02 356.502 210.106 356.473C210.513 356.332 210.731 355.885 210.591 355.474L210.443 355.043C210.304 354.633 209.86 354.409 209.453 354.554C209.046 354.695 208.828 355.143 208.968 355.553L209.112 355.984Z" fill="#FFDE3B"/>
<path d="M206.431 356.975L206.151 356.436C205.95 356.051 205.477 355.906 205.095 356.109C204.713 356.312 204.569 356.788 204.771 357.174L205.05 357.712C205.19 357.982 205.461 358.131 205.74 358.131C205.864 358.131 205.987 358.102 206.102 358.04C206.488 357.832 206.632 357.356 206.431 356.975Z" fill="#FFDE3B"/>
<path d="M238.605 363.161C238.326 362.829 237.833 362.792 237.504 363.074C237.175 363.355 237.138 363.853 237.418 364.184L237.615 364.412C237.771 364.594 237.989 364.685 238.207 364.685C238.387 364.685 238.568 364.623 238.712 364.495C239.041 364.213 239.078 363.716 238.798 363.384L238.605 363.161Z" fill="#FFDE3B"/>
<path d="M241.006 362.079C241.006 361.532 240.611 361.213 240.221 361.18C239.645 361.126 239.033 361.772 238.967 362.199C238.898 362.63 239.185 363.032 239.613 363.103C239.654 363.111 239.699 363.111 239.74 363.111C239.962 363.111 240.167 363.016 240.311 362.858C240.702 362.817 241.006 362.485 241.006 362.079Z" fill="#FFDE3B"/>
<path d="M241.042 364.022C240.729 363.915 240.401 364.01 240.117 364.279C239.727 364.648 239.78 365.046 239.821 365.199C239.903 365.506 240.146 365.738 240.471 365.813C240.528 365.825 240.59 365.833 240.647 365.833C240.988 365.833 241.296 365.605 241.395 365.27C241.453 365.199 241.502 365.112 241.531 365.021C241.67 364.611 241.449 364.163 241.042 364.022Z" fill="#FFDE3B"/>
<path d="M242.341 365.639C242 365.775 241.774 366.09 241.77 366.442C241.762 366.72 241.905 367.089 242.32 367.279C242.423 367.329 242.534 367.35 242.645 367.35C242.941 367.35 243.225 367.18 243.356 366.89C243.372 366.853 243.385 366.815 243.397 366.778C243.578 366.476 243.537 366.078 243.278 365.821C243.04 365.581 242.67 365.506 242.341 365.639Z" fill="#FFDE3B"/>
<path d="M237.131 359.299C237.288 359.299 237.448 359.249 237.588 359.15C237.937 358.897 238.015 358.404 237.764 358.052C237.74 358.014 237.703 357.961 237.674 357.911C237.666 357.72 237.592 357.534 237.448 357.389C237.144 357.082 236.651 357.082 236.343 357.389C235.964 357.77 236.018 358.3 236.499 358.972C236.651 359.187 236.889 359.299 237.131 359.299Z" fill="#FFDE3B"/>
<path d="M240.684 357.318C240.894 357.318 241.103 357.235 241.255 357.069C241.498 356.808 241.527 356.419 241.354 356.129C241.379 355.76 241.144 355.412 240.779 355.313C240.364 355.196 239.932 355.449 239.821 355.872C239.702 356.324 239.829 356.808 240.154 357.111C240.302 357.248 240.491 357.318 240.684 357.318Z" fill="#FFDE3B"/>
<path d="M240.996 358.511C240.996 358.831 241.206 359.328 241.547 359.576C241.711 359.697 241.896 359.759 242.085 359.759C242.18 359.759 242.274 359.742 242.364 359.713C242.775 359.576 242.997 359.129 242.857 358.719C242.796 358.536 242.677 358.391 242.525 358.296C242.43 357.969 242.13 357.728 241.777 357.728C241.345 357.724 240.996 358.076 240.996 358.511Z" fill="#FFDE3B"/>
<path d="M238.608 359.092C238.674 359.477 239.002 359.751 239.376 359.751C239.417 359.751 239.463 359.747 239.508 359.738C239.931 359.668 240.219 359.262 240.149 358.831C240.149 358.823 240.145 358.794 240.145 358.769C240.297 358.458 240.231 358.073 239.964 357.832C239.644 357.542 239.146 357.571 238.863 357.898C238.53 358.271 238.559 358.806 238.608 359.092Z" fill="#FFDE3B"/>
<path d="M237.57 357.003C237.636 357.388 237.965 357.662 238.339 357.662C238.38 357.662 238.425 357.658 238.47 357.65C238.893 357.579 239.181 357.173 239.111 356.742C239.111 356.734 239.107 356.705 239.107 356.68C239.259 356.369 239.193 355.984 238.926 355.743C238.606 355.453 238.108 355.482 237.825 355.81C237.496 356.183 237.525 356.717 237.57 357.003Z" fill="#FFDE3B"/>
<path d="M236.016 361.706C236.082 362.092 236.411 362.365 236.785 362.365C236.826 362.365 236.871 362.361 236.916 362.353C237.339 362.282 237.627 361.876 237.557 361.445C237.557 361.437 237.553 361.408 237.553 361.383C237.705 361.073 237.639 360.687 237.372 360.447C237.052 360.157 236.555 360.186 236.271 360.513C235.938 360.886 235.971 361.421 236.016 361.706Z" fill="#FFDE3B"/>
<path d="M234.116 359.104L234.067 358.992C233.886 358.594 233.422 358.42 233.032 358.603C232.641 358.785 232.465 359.249 232.645 359.647L232.699 359.767C232.801 360.003 233.036 360.558 233.697 360.558C234.129 360.558 234.478 360.206 234.478 359.771C234.482 359.489 234.334 359.241 234.116 359.104Z" fill="#FFDE3B"/>
<path d="M230.763 357.078C230.557 357.215 230.405 357.505 230.389 357.749C230.368 358.081 230.512 358.425 230.767 358.644C230.915 358.773 231.095 358.835 231.272 358.835C231.494 358.835 231.712 358.74 231.864 358.561C232.073 358.313 232.106 357.973 231.971 357.695C231.962 357.559 231.921 357.422 231.839 357.302C231.605 356.937 231.124 356.838 230.763 357.078Z" fill="#FFDE3B"/>
<path d="M230.921 356.088C231.082 356.088 231.246 356.038 231.386 355.934C231.628 355.752 231.735 355.462 231.694 355.18C231.739 354.878 231.608 354.563 231.337 354.393C230.971 354.161 230.49 354.277 230.26 354.642C230.009 355.048 230.096 355.499 230.293 355.769C230.445 355.98 230.683 356.088 230.921 356.088Z" fill="#FFDE3B"/>
<path d="M234.855 356.635C234.423 356.635 234.074 356.987 234.074 357.422V357.58C234.074 358.015 234.423 358.367 234.855 358.367C235.286 358.367 235.636 358.015 235.636 357.58V357.422C235.636 356.987 235.286 356.635 234.855 356.635Z" fill="#FFDE3B"/>
<path d="M233.132 356.858C233.564 356.858 233.913 356.506 233.913 356.071V355.781C233.913 355.346 233.564 354.994 233.132 354.994C232.701 354.994 232.352 355.346 232.352 355.781V356.071C232.352 356.506 232.701 356.858 233.132 356.858Z" fill="#FFDE3B"/>
<path d="M236.593 355.18V354.961C236.593 354.525 236.243 354.173 235.812 354.173C235.381 354.173 235.031 354.525 235.031 354.961V355.18C235.031 355.615 235.381 355.967 235.812 355.967C236.243 355.967 236.593 355.615 236.593 355.18Z" fill="#FFDE3B"/>
<path d="M237.929 354.65H238.11C238.541 354.65 238.891 354.298 238.891 353.863C238.891 353.428 238.541 353.075 238.11 353.075H237.929C237.498 353.075 237.148 353.428 237.148 353.863C237.148 354.298 237.498 354.65 237.929 354.65Z" fill="#FFDE3B"/>
<path d="M242.472 356.108C242.103 356.332 241.983 356.817 242.205 357.19L242.353 357.434C242.501 357.678 242.76 357.815 243.023 357.815C243.159 357.815 243.298 357.778 243.426 357.703C243.796 357.48 243.915 356.995 243.693 356.622L243.545 356.377C243.323 356.004 242.842 355.884 242.472 356.108Z" fill="#FFDE3B"/>
<path d="M242.759 355.586C242.915 355.586 243.075 355.54 243.211 355.441L243.326 355.358C243.675 355.105 243.757 354.612 243.507 354.26C243.256 353.908 242.767 353.825 242.418 354.078L242.303 354.161C241.953 354.413 241.871 354.906 242.122 355.259C242.278 355.47 242.516 355.586 242.759 355.586Z" fill="#FFDE3B"/>
<path d="M244.809 355.88C244.981 355.88 245.158 355.822 245.302 355.702L245.561 355.491C245.894 355.217 245.947 354.72 245.676 354.385C245.405 354.045 244.911 353.995 244.579 354.269L244.32 354.48C243.987 354.753 243.933 355.251 244.205 355.586C244.357 355.781 244.583 355.88 244.809 355.88Z" fill="#FFDE3B"/>
<path d="M245.281 356.117C244.849 356.117 244.5 356.469 244.5 356.904V357.103C244.5 357.538 244.849 357.89 245.281 357.89C245.712 357.89 246.062 357.538 246.062 357.103V356.904C246.062 356.473 245.712 356.117 245.281 356.117Z" fill="#FFDE3B"/>
<path d="M141.217 423.439L149.209 435.376C149.275 435.48 149.357 435.542 149.468 435.584C149.612 435.633 149.751 435.658 149.891 435.658H151.021C151.185 435.658 151.218 435.625 151.218 435.459V420.128C151.218 419.962 151.185 419.929 151.021 419.929H149.731C149.566 419.929 149.534 419.962 149.534 420.128V431.904C149.534 432.033 149.534 432.372 149.258 432.455C148.983 432.538 148.798 432.252 148.728 432.144L140.917 420.207C140.851 420.107 140.773 420.041 140.658 420.004C140.514 419.954 140.374 419.929 140.235 419.929H138.924C138.759 419.929 138.727 419.962 138.727 420.128V435.459C138.727 435.625 138.759 435.658 138.924 435.658H140.218C140.383 435.658 140.415 435.625 140.415 435.459V423.683C140.415 423.559 140.415 423.223 140.687 423.14C140.724 423.128 140.756 423.124 140.789 423.124C141.007 423.128 141.155 423.347 141.217 423.439Z" fill="#111111"/>
<path d="M170.989 432.393C171.199 432.265 171.297 432.087 171.297 431.842V423.75C171.297 423.501 171.203 423.331 170.989 423.199L164.09 419.117C163.975 419.051 163.868 419.018 163.769 419.018C163.724 419.018 163.621 419.03 163.432 419.125L156.582 423.199C156.356 423.331 156.258 423.501 156.258 423.75V431.842C156.258 432.091 156.356 432.261 156.582 432.393L163.449 436.475C163.605 436.574 163.732 436.599 163.934 436.554C163.975 436.545 164.02 436.52 164.069 436.487L170.989 432.393ZM163.769 434.797C163.597 434.797 163.428 434.747 163.272 434.652L158.197 431.635C157.877 431.445 157.708 431.154 157.708 430.79V424.802C157.708 424.442 157.877 424.148 158.197 423.957L163.28 420.936C163.699 420.725 163.954 420.758 164.262 420.936L169.37 423.957C169.682 424.152 169.847 424.442 169.847 424.802V430.79C169.847 431.15 169.682 431.44 169.378 431.631L164.267 434.652C164.197 434.701 164.102 434.747 164.004 434.768C163.917 434.788 163.839 434.797 163.769 434.797Z" fill="#111111"/>
<path d="M201.732 419.933C201.568 419.933 201.535 419.966 201.535 420.132V435.464C201.535 435.629 201.568 435.663 201.732 435.663H212.65C212.815 435.663 212.848 435.629 212.848 435.464V434.158C212.848 433.993 212.815 433.959 212.65 433.959H204.013C203.528 433.959 203.24 433.665 203.24 433.18V420.132C203.24 419.966 203.208 419.933 203.043 419.933H201.732Z" fill="#111111"/>
<path d="M269.537 435.803C269.813 435.803 269.985 435.691 270.084 435.455L275.845 422.307C275.902 422.175 275.997 421.992 276.169 421.992C276.342 421.992 276.436 422.175 276.494 422.307L282.234 435.451C282.333 435.691 282.506 435.803 282.781 435.803H284.092C284.207 435.803 284.264 435.778 284.281 435.758C284.293 435.737 284.297 435.671 284.252 435.563L277.365 420.14C277.267 419.896 277.094 419.784 276.819 419.784H275.508C275.233 419.784 275.06 419.896 274.961 420.132V420.136L268.087 435.567C268.046 435.671 268.046 435.737 268.058 435.758C268.07 435.778 268.128 435.803 268.247 435.803H269.537Z" fill="#111111"/>
<path d="M295.178 428.726L299.312 435.397C299.386 435.58 299.505 435.654 299.722 435.654H301.194C301.206 435.654 301.218 435.654 301.231 435.654C301.231 435.65 301.226 435.642 301.226 435.638L296.961 428.759L297.438 428.726C297.988 428.684 298.514 428.539 299.003 428.291C299.492 428.042 299.928 427.715 300.29 427.325C300.651 426.936 300.939 426.48 301.148 425.97C301.354 425.465 301.457 424.918 301.457 424.35C301.457 423.795 301.35 423.244 301.136 422.713C300.922 422.183 300.631 421.702 300.265 421.288C299.903 420.878 299.468 420.546 298.97 420.294C298.482 420.049 297.943 419.925 297.376 419.925H289.322C289.158 419.925 289.125 419.958 289.125 420.124V421.429C289.125 421.595 289.158 421.628 289.322 421.628H297.327C297.697 421.653 298.025 421.744 298.317 421.897C298.609 422.05 298.86 422.254 299.069 422.498C299.27 422.738 299.439 423.016 299.562 423.327C299.685 423.633 299.759 423.965 299.784 424.313V424.334V424.354C299.727 425.067 299.484 425.676 299.069 426.173C298.642 426.687 298.054 426.969 297.331 427.019H289.483C289.372 427.019 289.281 427.048 289.203 427.106C289.162 427.139 289.125 427.18 289.125 427.28V435.451C289.125 435.617 289.158 435.65 289.322 435.65H290.617C290.781 435.65 290.814 435.617 290.814 435.451V429.497C290.814 429.008 291.106 428.718 291.586 428.718H295.178V428.726Z" fill="#111111"/>
<path d="M263.61 427.33C263.971 426.94 264.259 426.484 264.469 425.975C264.674 425.469 264.777 424.922 264.777 424.354C264.777 423.799 264.67 423.248 264.456 422.718C264.243 422.187 263.951 421.707 263.585 421.292C263.224 420.882 262.788 420.551 262.291 420.298C261.798 420.053 261.263 419.929 260.696 419.929H252.643C252.478 419.929 252.445 419.962 252.445 420.128V421.433C252.445 421.599 252.478 421.632 252.643 421.632H260.647C261.017 421.657 261.346 421.748 261.637 421.901C261.929 422.055 262.18 422.258 262.389 422.502C262.591 422.742 262.759 423.02 262.882 423.331C263.006 423.638 263.08 423.969 263.104 424.317V424.338V424.359C263.047 425.071 262.804 425.68 262.389 426.178C261.962 426.691 261.374 426.973 260.651 427.023H252.803C252.692 427.023 252.601 427.052 252.523 427.11C252.482 427.143 252.445 427.184 252.445 427.284V435.455C252.445 435.621 252.478 435.654 252.643 435.654H253.937C254.101 435.654 254.134 435.621 254.134 435.455V429.501C254.134 429.012 254.426 428.722 254.907 428.722L260.758 428.738V428.722C261.309 428.68 261.835 428.535 262.324 428.287C262.813 428.042 263.248 427.719 263.61 427.33Z" fill="#111111"/>
<path d="M307.201 435.658H312.732C313.796 435.658 314.819 435.451 315.765 435.045C316.714 434.639 317.552 434.075 318.263 433.367C318.97 432.662 319.537 431.821 319.948 430.864C320.355 429.911 320.564 428.875 320.564 427.789C320.564 426.957 320.437 426.14 320.182 425.37C319.927 424.595 319.57 423.874 319.114 423.227C318.657 422.581 318.099 422.001 317.453 421.504C316.804 421.006 316.085 420.621 315.308 420.347C314.503 420.066 313.665 419.925 312.814 419.925H307.201C307.037 419.925 307.004 419.958 307.004 420.124V421.429C307.004 421.595 307.037 421.628 307.201 421.628H312.605C313.439 421.686 314.232 421.876 314.984 422.2C315.736 422.523 316.406 422.958 316.977 423.492C317.552 424.031 318.016 424.673 318.357 425.399C318.703 426.132 318.879 426.936 318.879 427.789C318.879 428.631 318.723 429.435 318.419 430.176C318.115 430.918 317.692 431.577 317.153 432.136C316.615 432.696 315.978 433.139 315.259 433.462C314.536 433.79 313.747 433.951 312.925 433.951H309.465C308.98 433.951 308.693 433.657 308.693 433.172V430.595C308.693 430.429 308.66 430.396 308.496 430.396H307.201C307.037 430.396 307.004 430.429 307.004 430.595V435.455C307.004 435.625 307.037 435.658 307.201 435.658Z" fill="#111111"/>
<path d="M125.453 435.119C126.226 435.468 127.06 435.646 127.931 435.646C128.897 435.646 129.715 435.534 130.364 435.314C131.009 435.095 131.547 434.821 131.966 434.494C132.377 434.171 132.694 433.827 132.907 433.47C133.133 433.089 133.306 432.724 133.417 432.389C133.528 432.057 133.594 431.78 133.61 431.564C133.631 431.34 133.643 431.208 133.643 431.162C133.643 430.52 133.548 429.961 133.359 429.509C133.166 429.045 132.924 428.651 132.64 428.332C132.361 428.021 132.044 427.769 131.703 427.59C131.321 427.396 130.951 427.234 130.602 427.118C130.253 427.002 129.936 426.923 129.665 426.882C129.386 426.84 129.18 426.811 129.057 426.795C129.028 426.791 129.004 426.787 128.971 426.782H128.967C128.511 426.695 128.091 426.617 127.713 426.554C127.27 426.476 126.879 426.356 126.559 426.198C126.189 426.016 125.893 425.751 125.679 425.415C125.462 425.071 125.355 424.632 125.355 424.077C125.355 423.269 125.704 422.606 126.362 422.162C126.957 421.76 127.767 421.557 128.774 421.557C129.246 421.574 129.682 421.624 130.084 421.702C130.462 421.793 130.82 421.926 131.169 422.104C131.329 422.187 131.482 422.282 131.617 422.394C131.687 422.448 131.81 422.44 131.905 422.374L132.858 421.665C132.957 421.595 132.969 421.495 132.973 421.441C132.973 421.387 132.961 421.284 132.858 421.205C132.48 420.907 132.053 420.65 131.592 420.443C130.812 420.086 129.973 419.908 129.106 419.908C128.137 419.908 127.315 420.012 126.661 420.219C126.012 420.426 125.47 420.683 125.051 420.981C124.644 421.275 124.328 421.595 124.11 421.938C123.88 422.303 123.711 422.643 123.608 422.95C123.506 423.26 123.444 423.521 123.423 423.72C123.403 423.919 123.391 424.048 123.391 424.089C123.391 424.64 123.477 425.125 123.65 425.523C123.826 425.937 124.048 426.289 124.311 426.579C124.574 426.869 124.874 427.114 125.199 427.3C125.556 427.503 125.901 427.669 126.226 427.793C126.551 427.918 126.842 428.009 127.097 428.059C127.352 428.113 127.537 428.146 127.652 428.162C127.681 428.166 127.709 428.171 127.746 428.179C128.202 428.266 128.646 428.361 129.061 428.456C129.526 428.564 129.941 428.722 130.306 428.916C130.709 429.132 131.034 429.422 131.276 429.778C131.531 430.155 131.658 430.624 131.658 431.179C131.658 431.954 131.338 432.625 130.709 433.184C130.101 433.723 129.271 433.992 128.239 433.992C127.697 433.992 127.216 433.926 126.809 433.798C126.415 433.673 126.086 433.528 125.819 433.371C125.638 433.263 125.486 433.159 125.359 433.052L124.204 433.914C124.106 433.984 124.093 434.084 124.089 434.137C124.089 434.191 124.102 434.295 124.204 434.369C124.578 434.664 125.001 434.916 125.453 435.119Z" fill="#111111"/>
<path d="M182.844 435.174C182.918 435.31 183.046 435.327 183.099 435.327C183.152 435.327 183.28 435.31 183.354 435.169L184.134 433.669C184.18 433.582 184.18 433.483 184.134 433.4L177.186 420.099C177.137 420.004 177.038 419.942 176.931 419.942H175.246C175.098 419.942 175.025 420.041 175 420.082C174.975 420.124 174.922 420.24 174.992 420.368L182.844 435.174Z" fill="#111111"/>
<path d="M181.485 419.942C181.337 419.942 181.263 420.041 181.238 420.082C181.213 420.124 181.16 420.236 181.23 420.368L188.803 435.157C188.877 435.302 189 435.319 189.058 435.315C189.111 435.315 189.239 435.298 189.313 435.161L197.132 420.372C197.202 420.24 197.149 420.128 197.124 420.087C197.099 420.045 197.025 419.946 196.878 419.946H195.197C195.168 419.946 195.139 419.95 195.119 419.958L189.07 432L183.412 420.07C183.358 419.995 183.272 419.95 183.182 419.95H181.485V419.942Z" fill="#111111"/>
<path d="M247.602 432.326C247.812 432.198 247.911 432.02 247.911 431.775V423.683C247.911 423.438 247.812 423.26 247.602 423.132L240.703 419.05C240.588 418.984 240.481 418.951 240.383 418.951C240.337 418.951 240.235 418.963 240.046 419.058L233.196 423.132C232.97 423.264 232.871 423.438 232.871 423.683V431.775C232.871 432.024 232.97 432.194 233.196 432.326L240.062 436.408C240.218 436.507 240.35 436.532 240.547 436.487C240.588 436.478 240.633 436.453 240.683 436.42L247.602 432.326ZM240.383 434.73C240.21 434.73 240.042 434.68 239.885 434.585L234.811 431.568C234.49 431.377 234.322 431.083 234.322 430.723V424.735C234.322 424.375 234.49 424.081 234.811 423.89L239.894 420.869C240.313 420.658 240.568 420.691 240.876 420.869L245.983 423.89C246.296 424.085 246.46 424.375 246.46 424.735V430.723C246.46 431.083 246.296 431.373 245.987 431.564L240.876 434.585C240.806 434.639 240.707 434.68 240.613 434.701C240.522 434.721 240.452 434.73 240.383 434.73Z" fill="#111111"/>
<path d="M218.077 419.713H227.7C227.861 419.713 227.988 419.846 227.988 420.003V420.973C227.988 421.135 227.857 421.263 227.7 421.263H218.077C217.917 421.263 217.789 421.13 217.789 420.973V420.003C217.785 419.842 217.917 419.713 218.077 419.713ZM218.073 426.94H226.266C226.427 426.94 226.554 427.068 226.554 427.23V428.199C226.554 428.361 226.427 428.49 226.266 428.49H218.073C217.913 428.49 217.785 428.361 217.785 428.199V427.23C217.785 427.072 217.917 426.94 218.073 426.94ZM218.077 434.125H227.705C227.865 434.125 227.992 434.257 227.992 434.415V435.385C227.992 435.546 227.861 435.675 227.705 435.675H218.077C217.917 435.675 217.789 435.542 217.789 435.385V434.415C217.785 434.257 217.917 434.125 218.077 434.125Z" fill="#111111"/>
</g>
<path fill-rule="evenodd" clip-rule="evenodd" d="M142.641 92.1861C131.853 93.5489 123.015 101.502 120.352 112.244C119.778 114.561 119.61 116.114 119.585 119.33C119.561 122.33 119.559 122.351 119.19 123.181C118.676 124.336 117.766 125.176 116.111 126.023L114.777 126.706V129.455V132.205L118.293 130.373C120.227 129.365 124.263 127.261 127.263 125.696C130.263 124.131 140.406 118.851 149.804 113.962C159.201 109.072 169.108 103.915 171.819 102.501L176.747 99.9308L176.783 97.2304C176.802 95.745 176.773 94.5303 176.717 94.5311C176.661 94.5318 164.911 100.626 150.605 108.073C136.299 115.52 124.559 121.577 124.516 121.533C124.473 121.489 124.438 120.206 124.438 118.682C124.438 116.289 124.479 115.714 124.744 114.454C126.171 107.649 130.381 102.095 136.384 99.096C142.233 96.174 149.044 96.1425 155.06 99.0098L156.33 99.6151L158.768 98.3701L161.207 97.1251L160.565 96.6539C155.769 93.1298 148.841 91.4029 142.641 92.1861ZM207.504 99.098C202.263 99.8369 198.303 102.524 196.981 106.239C196.172 108.512 196.346 111.476 197.415 113.633C198.477 115.776 200.562 117.548 203.379 118.702C204.73 119.255 205.862 119.566 209.079 120.266C213.54 121.238 215.356 121.862 216.868 122.945C218.508 124.12 219.176 125.421 219.175 127.441C219.174 130.429 217.47 132.428 214.069 133.432C213.132 133.709 212.76 133.74 210.525 133.732C207.692 133.721 206.729 133.533 204.984 132.654C202.76 131.533 200.999 129.073 200.411 126.268L200.334 125.899H197.772H195.21L195.295 126.469C195.579 128.365 196.587 130.895 197.679 132.457C200.466 136.44 205.408 138.577 211.248 138.322C215.443 138.14 218.922 136.834 221.368 134.524C222.799 133.173 223.806 131.496 224.282 129.673C224.63 128.338 224.66 125.841 224.343 124.508C223.848 122.423 222.322 120.266 220.439 118.989C218.417 117.618 216.118 116.787 211.182 115.644C209.375 115.226 207.394 114.732 206.779 114.547C204.47 113.852 202.895 112.694 202.206 111.184C201.904 110.523 201.855 110.238 201.853 109.142C201.851 108.049 201.899 107.764 202.19 107.131C202.853 105.694 204.578 104.441 206.714 103.846C207.796 103.545 210.474 103.434 211.719 103.639C215.17 104.207 217.674 106.056 218.673 108.773L218.907 109.41H221.386C224.208 109.41 224.033 109.504 223.656 108.194C222.574 104.436 220.02 101.594 216.444 100.168C214.519 99.401 212.882 99.0877 210.459 99.0231C209.339 98.9931 208.009 99.0268 207.504 99.098ZM269.735 118.66V137.696H272.035H274.335V118.66V99.6239H272.035H269.735V118.66ZM279.066 118.66V137.696H281.367H283.667V118.66V99.6239H281.367H279.066V118.66ZM230.002 102.391C229.952 102.442 229.911 104.042 229.911 105.947V109.41H227.743H225.574V111.354V113.298H227.734H229.893L229.946 123.251C229.992 131.753 230.03 133.335 230.208 134.096C230.489 135.292 230.845 135.963 231.502 136.538C232.517 137.424 233.898 137.689 237.505 137.693L239.907 137.696L239.871 135.719L239.834 133.741L237.839 133.674C236.083 133.615 235.8 133.574 235.474 133.327C234.681 132.728 234.712 133.137 234.672 122.785L234.636 113.303L237.235 113.267L239.834 113.231V111.354V109.477L237.241 109.441L234.647 109.404L234.612 105.888L234.577 102.372L232.335 102.335C231.101 102.315 230.052 102.341 230.002 102.391ZM145.795 121.514L114.843 137.629L114.807 140.344C114.788 141.837 114.81 143.058 114.856 143.058C114.902 143.058 117.993 141.467 121.726 139.522C154.333 122.529 166.995 115.974 167.068 116.048C167.114 116.096 167.153 117.382 167.153 118.906C167.153 121.3 167.111 121.875 166.847 123.135C165.419 129.939 161.209 135.493 155.206 138.492C149.35 141.418 142.592 141.447 136.518 138.574L135.215 137.957L132.806 139.215L130.396 140.472L131.031 140.939C132.739 142.194 135.312 143.489 137.639 144.266C148.939 148.04 161.21 143.619 167.779 133.406C170.715 128.843 172.319 122.824 172.013 117.521C171.835 114.422 172.582 113.104 175.356 111.628L176.813 110.853V108.121C176.813 106.618 176.798 105.391 176.78 105.393C176.762 105.396 162.819 112.65 145.795 121.514ZM296.907 109.077C291.986 110.029 288.724 113.29 288.09 117.889L288.02 118.392H290.417H292.813L292.958 117.528C293.498 114.313 296.024 112.56 299.767 112.803C302.493 112.98 304.181 114.216 304.972 116.613C305.205 117.318 305.273 117.834 305.279 118.928L305.287 120.336L304.893 120.373C303.62 120.493 299.392 121.135 297.993 121.419C293.245 122.385 290.553 123.546 288.716 125.419C287.296 126.867 286.83 128.061 286.824 130.261C286.818 132.506 287.413 134.01 288.921 135.567C290.715 137.419 293.25 138.366 296.415 138.365C300.323 138.364 303.318 137.096 305.037 134.715L305.599 133.937L305.667 134.509C305.705 134.824 305.771 135.474 305.813 135.953C305.855 136.433 305.923 137.021 305.964 137.26L306.039 137.696H308.399C310.591 137.696 310.754 137.679 310.686 137.461C310.492 136.836 310.197 134.04 310.083 131.741C310.014 130.334 309.993 127.072 310.037 124.491C310.091 121.346 310.068 119.306 309.967 118.303C309.425 112.919 307.228 110.188 302.65 109.208C301.189 108.895 298.198 108.827 296.907 109.077ZM251.794 109.104C251.013 109.215 249.293 109.705 248.515 110.038C244.414 111.794 241.682 115.431 240.73 120.403C240.464 121.791 240.434 125.112 240.674 126.569C241.2 129.76 242.348 132.313 244.145 134.293C247.343 137.815 252.59 139.194 257.775 137.874C261.492 136.929 264.603 134.196 265.916 130.724C266.137 130.139 266.318 129.629 266.318 129.59C266.318 129.551 265.238 129.52 263.919 129.523L261.52 129.526L261.06 130.346C260.113 132.033 258.788 133.158 257.127 133.684C252.259 135.226 247.445 132.878 245.998 128.256C245.812 127.66 245.627 126.705 245.587 126.134L245.514 125.095H256.113H266.712V123.738C266.712 120.287 265.756 116.906 264.044 114.303C263.294 113.162 261.541 111.449 260.465 110.806C258.364 109.55 256.292 109 253.766 109.03C252.898 109.04 252.011 109.073 251.794 109.104ZM325.548 109.417C324.432 109.608 323.186 110.057 322.325 110.579C321.352 111.169 320.037 112.536 319.443 113.576L319.027 114.303L319.024 111.857L319.022 109.41H316.787H314.553V123.553V137.696H316.845H319.138L319.19 128.949C319.234 121.686 319.277 120.06 319.444 119.365C319.966 117.197 320.672 116.003 321.92 115.181C323.038 114.444 323.729 114.302 326.152 114.312L328.222 114.321V111.798V109.276L327.203 109.292C326.643 109.3 325.898 109.357 325.548 109.417ZM256.032 113.379C257.892 113.873 259.826 115.466 260.768 117.278C261.228 118.163 261.718 119.89 261.718 120.625V121.073H253.619H245.521L245.615 120.307C246.1 116.35 248.65 113.707 252.517 113.154C253.438 113.022 255.087 113.128 256.032 113.379ZM305.707 126.134C305.62 128.341 305.451 129.126 304.751 130.572C303.583 132.983 301.283 134.33 297.945 134.557C295.24 134.742 293.112 133.76 292.296 131.952C292.079 131.471 292.015 131.067 292.014 130.189C292.013 129.187 292.056 128.974 292.373 128.424C293.519 126.435 296.566 125.262 302.724 124.437C303.772 124.297 304.89 124.176 305.208 124.169L305.785 124.156L305.707 126.134Z" fill="#111111"/>
<path fill-rule="evenodd" clip-rule="evenodd" d="M214.569 211.615C204.991 225.311 197.127 236.587 197.094 236.672C197.061 236.758 201.712 236.827 207.43 236.827C215.726 236.827 217.827 236.874 217.827 237.059C217.827 237.187 216.571 246.801 215.035 258.424C213.499 270.047 212.263 279.577 212.287 279.601C212.331 279.645 246.745 221.811 246.865 221.493C246.899 221.402 242.483 221.333 236.709 221.333H226.493L226.497 220.923C226.499 220.697 227.754 212.928 229.287 203.658C230.82 194.388 232.054 186.783 232.029 186.758C232.004 186.733 224.147 197.918 214.569 211.615ZM224.856 211.576C223.779 218.09 222.874 223.627 222.845 223.88L222.792 224.341L232.135 224.432L241.478 224.523L229.433 244.793C222.808 255.942 217.362 265.038 217.332 265.007C217.282 264.957 221.126 235.438 221.34 234.23L221.429 233.729H212.225C207.164 233.729 203.022 233.687 203.022 233.636C203.022 233.498 226.714 199.619 226.768 199.68C226.794 199.709 225.934 205.062 224.856 211.576Z" fill="#111111"/>
<defs>
<linearGradient id="paint0_linear_486_249930" x1="93.0217" y1="111.5" x2="414.726" y2="379.89" gradientUnits="userSpaceOnUse">
<stop stop-color="#111111" stop-opacity="0"/>
<stop offset="0.547979" stop-color="#111111"/>
<stop offset="1" stop-color="#111111" stop-opacity="0"/>
</linearGradient>
<clipPath id="clip0_486_249930">
<rect width="197.173" height="118.687" fill="white" transform="translate(123.391 317.887)"/>
</clipPath>
</defs>
</svg>
