<svg width="443" height="528" viewBox="0 0 443 528" fill="none" xmlns="http://www.w3.org/2000/svg">
<rect x="0.5" y="0.5" width="442" height="527" rx="9.5" fill="white" stroke="url(#paint0_linear_486_250101)"/>
<path d="M237.144 115.51L237.368 114.535L237.144 115.51ZM237.144 115.51C234.791 114.971 230.02 114.492 225.205 114.224C220.385 113.956 215.69 113.909 213.483 114.191C201.47 115.727 189.967 120.043 179.946 126.776C177.207 128.616 173.27 132.101 169.526 135.861C165.783 139.621 162.313 143.575 160.481 146.327C155.167 154.305 151.547 162.685 149.192 172.476L149.192 172.476C148.138 176.853 147.991 179.551 147.754 201.516L147.492 225.78L147.482 226.77H146.492H140.223C136.515 226.77 132.696 227.132 130.765 227.638C121.018 230.188 113.508 237.75 110.953 247.604L109.985 247.353L110.953 247.604C110.934 247.676 110.9 247.887 110.861 248.295C110.824 248.681 110.788 249.189 110.752 249.817C110.681 251.071 110.615 252.773 110.553 254.861C110.431 259.037 110.328 264.736 110.246 271.455C110.082 284.891 110 302.386 110 319.884C110 337.381 110.082 354.877 110.246 368.313C110.328 375.031 110.431 380.731 110.553 384.906C110.615 386.995 110.681 388.696 110.752 389.95C110.788 390.578 110.824 391.087 110.861 391.473C110.9 391.88 110.934 392.092 110.953 392.164C113.508 402.017 121.018 409.58 130.765 412.13C131.405 412.297 132.576 412.451 135.259 412.572C137.919 412.693 141.993 412.781 148.385 412.844C161.167 412.97 183.168 412.998 221.555 412.998C226.577 412.998 231.321 412.999 235.805 412.999C274.373 413.004 293.626 413.006 303.929 412.625C309.691 412.412 312.566 412.081 314.428 411.593C315.863 411.217 316.686 410.759 317.875 410.096C318.202 409.913 318.558 409.715 318.962 409.499L319.434 410.38L318.962 409.499C325.415 406.045 331.025 398.318 332.419 390.936C332.451 390.767 332.495 390.226 332.539 389.221C332.581 388.252 332.621 386.923 332.658 385.241C332.732 381.876 332.794 377.117 332.845 371.037C332.946 358.877 332.999 341.444 332.999 319.339C332.999 316.666 333 314.093 333 311.615C333.002 279.47 333.003 263.435 332.637 254.714C332.44 250.013 332.139 247.513 331.698 245.787C331.327 244.332 330.859 243.417 330.185 242.1C330.07 241.876 329.949 241.64 329.822 241.388L330.663 240.964L329.822 241.388C328.837 239.435 327.115 237.179 325.113 235.13C323.112 233.08 320.895 231.303 318.962 230.269L319.434 229.387L318.962 230.269C314.178 227.707 309.96 226.77 302.887 226.77H296.618H295.629L295.618 225.78L295.356 201.516C295.119 179.551 294.972 176.853 293.919 172.476C290.329 157.556 284.103 146.32 273.631 135.835C262.885 125.076 251.684 118.839 237.144 115.51ZM271.335 226.77H272.335V225.77V204.114C272.335 197.588 272.272 191.822 272.161 187.424C272.051 183.073 271.893 179.962 271.684 178.828C269.235 165.525 260.592 152.666 248.99 145.034C244.553 142.115 237.358 139.179 231.734 137.982L231.525 138.96L231.733 137.982C229.247 137.452 225.273 137.204 221.377 137.211C217.483 137.218 213.531 137.48 211.091 138.019L211.091 138.019C194.373 141.714 180.285 153.644 174.288 169.222C172.66 173.453 171.769 176.135 171.302 180.792C170.842 185.383 170.791 191.916 170.785 203.858L170.775 225.769L170.775 226.77H171.775H221.555H271.335Z" stroke="#111111" stroke-width="2"/>
<path d="M233.138 283.149H209.512L197.699 262.575L209.512 242H233.138L244.95 262.575L233.138 283.149ZM210.07 282.177H232.579L243.835 262.575L232.579 242.972H210.07L198.815 262.575L210.07 282.177Z" fill="#111111"/>
<path d="M225.565 263.439C225.405 263.459 225.117 263.595 224.985 263.832C224.887 264.009 224.945 264.24 225.121 264.341C225.179 264.374 225.243 264.39 225.304 264.39C225.43 264.39 225.55 264.326 225.618 264.205C225.629 264.194 225.664 264.172 225.658 264.17C225.859 264.145 226.002 263.96 225.977 263.758C225.95 263.558 225.767 263.414 225.565 263.439Z" fill="#FFDE3B"/>
<path d="M217.689 262.496C217.687 262.457 217.689 262.415 217.703 262.372C217.689 262.413 217.685 262.455 217.689 262.496Z" fill="#FFDE3B"/>
<path d="M217.689 262.496C217.687 262.457 217.689 262.415 217.703 262.372C217.689 262.413 217.685 262.455 217.689 262.496Z" fill="#FFDE3B"/>
<path d="M217.692 262.514C217.692 262.508 217.688 262.502 217.688 262.496C217.688 262.502 217.69 262.508 217.692 262.514Z" fill="#FFDE3B"/>
<path d="M217.692 262.514C217.692 262.508 217.688 262.502 217.688 262.496C217.688 262.502 217.69 262.508 217.692 262.514Z" fill="#FFDE3B"/>
<path d="M236.437 269.109C235.689 269.06 235.144 268.547 234.995 268.391C234.8 268.187 234.208 267.32 233.732 266.624C233.357 266.076 233.034 265.601 232.874 265.399C232.578 265.028 232.05 263.42 231.938 262.848C231.917 262.741 231.907 262.615 231.905 262.481C232.464 262.284 233.51 262.244 233.773 262.292C233.98 262.329 234.183 262.463 234.5 262.772C234.761 263.025 234.981 263.107 235.181 263.107C235.326 263.107 235.459 263.064 235.589 263.014C235.797 262.932 235.989 262.702 236.118 262.514C236.372 262.491 236.611 262.347 236.82 262.195C237.165 261.942 237.203 261.528 236.936 260.964C236.882 260.85 236.815 260.696 236.739 260.529C236.658 260.344 236.567 260.144 236.478 259.951C236.296 259.562 236.124 259.269 235.867 259.096C235.815 259.061 235.658 258.919 235.534 258.806C235.446 258.726 235.351 258.641 235.26 258.559C235.285 258.489 235.304 258.419 235.31 258.347C235.324 258.163 235.266 257.993 235.142 257.861C235.041 257.752 234.854 257.628 234.531 257.638C234.363 257.643 234.175 257.692 233.99 257.768C233.508 257.636 232.715 257.638 232.445 257.649C232.265 257.659 231.973 257.667 231.66 257.676C231.172 257.692 230.619 257.709 230.345 257.731C229.933 257.764 229.42 257.748 229.223 257.725C229.061 257.706 228.891 257.667 228.713 257.624C228.394 257.55 228.03 257.463 227.611 257.476C226.967 257.492 226.333 257.884 226.029 258.073L225.963 258.114C225.841 258.186 225.238 258.277 224.569 258.262C223.699 258.24 221.284 258.077 220.59 258.001C220.406 257.982 220.139 257.927 219.832 257.865C219 257.696 217.863 257.466 216.81 257.571C215.595 257.692 214.402 258.013 213.267 258.526L213.006 258.647C212.173 259.03 211.028 259.555 209.833 259.465C208.816 259.387 207.097 258.849 207.097 257.309C207.097 256.487 208.041 256.063 208.445 256.063C209.079 256.063 209.649 256.568 209.7 256.708C209.7 256.973 209.646 257.148 209.603 257.288C209.543 257.484 209.452 257.781 209.725 258.038C209.943 258.242 210.413 258.349 210.819 258.17C211.154 258.024 211.55 257.653 211.55 256.708C211.55 255.007 209.706 254.216 208.458 254.216C207.171 254.216 205.305 255.318 205.305 257.309C205.305 259.323 206.635 260.818 208.774 261.211C210.286 261.489 211.299 261.351 212.028 261.095C211.819 261.754 211.508 262.683 211.245 263.266C210.8 264.25 209.684 265.636 209.508 265.774C209.462 265.806 209.408 265.839 209.35 265.872C209.093 266.025 208.774 266.216 208.671 266.54C208.605 266.752 207.832 268.658 207.55 269.34C207.289 269.972 207.546 270.324 207.753 270.608C207.799 270.672 207.851 270.74 207.9 270.818C208.145 271.211 208.603 271.372 208.996 271.372C209.164 271.372 209.323 271.341 209.446 271.287C209.916 271.077 209.876 270.408 209.785 270.134C209.731 269.974 209.601 269.865 209.437 269.727C209.392 269.69 209.328 269.636 209.282 269.591C209.41 269.276 209.856 268.506 209.976 268.382C210.123 268.248 210.839 267.758 211.409 267.431C212.003 267.093 213.343 266.208 213.983 265.747C214.342 265.489 214.675 265.203 214.913 264.987C215.158 265.426 215.278 265.734 215.286 265.835C215.369 267.324 215.309 267.643 215.296 267.692C215.28 267.75 215.257 267.806 215.234 267.865C215.112 268.168 214.905 268.675 215.489 269.313C215.748 269.595 217.179 271.053 217.747 271.178C217.759 271.18 218.529 271.318 219.232 271.318C219.704 271.318 220.149 271.255 220.315 271.049C220.495 270.828 220.526 270.511 220.4 270.221C220.253 269.885 219.934 269.671 219.548 269.647C219.368 269.636 219.211 269.651 219.072 269.665C218.78 269.694 218.619 269.71 218.366 269.5C218.208 269.367 217.784 269.018 217.755 268.914C217.817 268.648 218.316 266.737 218.494 266.247C218.519 266.175 218.554 266.087 218.59 265.99C218.753 265.562 218.911 265.127 219.024 264.717C219.476 264.841 220.282 265.03 221.197 265.104C222.113 265.178 222.779 265.1 223.314 265.039C223.392 265.03 223.461 265.024 223.533 265.016C223.434 265.428 223.303 266.014 223.254 266.445C223.214 266.797 223.185 267.334 223.159 267.806C223.14 268.185 223.113 268.658 223.098 268.738C223.016 268.981 223.136 269.214 223.252 269.441C223.291 269.519 223.357 269.647 223.364 269.692C223.376 269.797 223.519 270.596 223.763 270.824C223.979 271.024 224.809 271.121 225.192 271.121C225.246 271.121 225.29 271.119 225.323 271.115C225.849 271.057 226.244 270.668 226.199 270.248L226.195 270.196C226.178 270.003 226.139 269.554 225.478 269.513C225.379 269.507 225.29 269.507 225.213 269.507C225.186 269.507 225.157 269.507 225.13 269.507C225.118 269.474 225.105 269.439 225.093 269.402C225.025 269.218 224.964 269.041 224.996 268.887C225.06 268.599 225.54 267.283 225.783 266.698C225.965 266.264 226.392 265.423 226.578 265.065C226.671 265.053 226.766 265.039 226.857 265.028C227.065 265.003 227.261 264.977 227.433 264.944C227.696 264.896 227.993 264.789 228.204 264.703C228.661 265.275 229.453 266.111 229.805 266.383C230.016 266.546 230.409 266.925 230.788 267.291C231.199 267.69 231.59 268.067 231.803 268.22L231.959 268.333C232.76 268.903 233.201 269.276 233.272 269.439C233.496 269.951 234.759 270.867 235.246 270.948C235.252 270.95 235.589 270.997 235.987 270.997C236.536 270.997 237.209 270.907 237.327 270.482C237.404 270.205 237.447 269.809 237.223 269.492C237.103 269.334 236.874 269.138 236.437 269.109ZM207.358 255.652C207.352 255.524 207.279 255.415 207.174 255.355C207.534 255.131 207.921 254.999 208.25 254.96V254.986C208.25 255.133 208.337 255.26 208.462 255.318C208.453 255.318 208.443 255.316 208.433 255.316C208.101 255.318 207.71 255.437 207.358 255.652ZM210.806 256.702C210.806 257.105 210.713 257.379 210.543 257.474C210.456 257.523 210.357 257.521 210.289 257.513C210.291 257.509 210.291 257.505 210.293 257.501C210.346 257.334 210.423 257.08 210.423 256.704C210.423 256.597 210.388 256.481 210.324 256.364L210.361 256.327C210.504 256.183 210.504 255.95 210.361 255.804C210.218 255.66 209.986 255.66 209.841 255.804L209.827 255.818C209.516 255.582 209.116 255.398 208.7 255.339C208.855 255.3 208.971 255.17 208.979 255.007C209.798 255.17 210.806 255.699 210.806 256.702ZM206.635 255.796C206.65 255.925 206.726 256.032 206.836 256.086C206.699 256.24 206.583 256.415 206.498 256.607C206.395 256.617 206.299 256.665 206.235 256.757C206.117 256.922 206.155 257.153 206.32 257.272L206.351 257.293C206.351 257.297 206.351 257.299 206.351 257.301C206.351 257.634 206.409 257.935 206.513 258.209C206.38 258.238 206.275 258.336 206.241 258.468C206.103 258.112 206.03 257.721 206.03 257.301C206.03 256.675 206.279 256.173 206.635 255.796ZM206.451 258.907C206.494 258.925 206.538 258.934 206.587 258.934H206.625C206.718 258.934 206.801 258.896 206.867 258.839C207.058 259.088 207.296 259.302 207.565 259.481C207.432 259.444 207.285 259.483 207.19 259.595L207.144 259.65C207.134 259.662 207.13 259.675 207.122 259.689C206.852 259.461 206.625 259.201 206.451 258.907ZM207.733 260.091L207.747 260.076C207.869 259.932 207.857 259.724 207.733 259.59C208.199 259.866 208.743 260.047 209.303 260.14C209.294 260.148 209.282 260.152 209.274 260.161L209.145 260.299C209.089 260.36 209.064 260.433 209.054 260.507C209.002 260.498 208.951 260.492 208.895 260.482C208.468 260.4 208.077 260.268 207.733 260.091ZM224.412 268.242C224.227 268.281 224.033 268.321 224.028 268.31C224.028 268.288 224.041 268.216 224.107 268.148C224.165 268.088 224.246 268.053 224.329 268.053C224.126 268.053 223.962 268.218 223.962 268.423C223.962 268.601 224.091 268.745 224.262 268.778C224.202 269.123 224.308 269.43 224.389 269.655C224.407 269.704 224.424 269.751 224.438 269.797C224.581 270.248 224.969 270.244 225.203 270.246C225.267 270.246 225.339 270.246 225.42 270.25C225.431 270.25 225.441 270.252 225.449 270.252C225.449 270.254 225.449 270.258 225.449 270.26L225.451 270.287C225.422 270.316 225.344 270.367 225.228 270.38C225.023 270.4 224.469 270.32 224.254 270.26C224.192 270.112 224.101 269.782 224.082 269.611C224.062 269.434 223.975 269.266 223.892 269.103C223.861 269.043 223.817 268.955 223.8 268.905C223.829 268.769 223.844 268.51 223.881 267.845C223.883 267.798 223.887 267.752 223.888 267.703C223.929 267.719 223.972 267.728 224.016 267.728C224.059 267.728 224.103 267.721 224.146 267.703C224.19 267.686 224.221 267.676 224.244 267.668C224.329 267.639 224.38 267.62 224.48 267.553C224.65 267.443 224.701 267.215 224.59 267.042C224.48 266.871 224.254 266.82 224.082 266.931C224.047 266.955 224.047 266.955 224.008 266.966C223.987 266.974 223.96 266.984 223.927 266.995C223.939 266.82 223.952 266.657 223.968 266.527C224.02 266.068 224.18 265.388 224.275 265.003C224.434 265.024 224.596 265.057 224.757 265.09C225.029 265.148 225.308 265.207 225.582 265.207C225.609 265.207 225.636 265.203 225.663 265.203C225.462 265.603 225.219 266.097 225.089 266.41C224.919 266.83 224.604 267.674 224.412 268.242ZM236.633 270.186C236.385 270.262 235.68 270.275 235.357 270.221C235.092 270.17 234.051 269.41 233.933 269.144C233.798 268.835 233.388 268.475 232.733 267.993C232.837 267.876 232.86 267.701 232.777 267.561C232.777 267.561 232.729 267.478 232.698 267.351C232.651 267.153 232.452 267.03 232.255 267.079C232.093 267.118 231.986 267.262 231.981 267.421C231.783 267.242 231.522 266.992 231.284 266.76C231.155 266.634 231.029 266.513 230.907 266.397C230.927 266.399 230.944 266.406 230.965 266.404C231.168 266.387 231.317 266.21 231.302 266.006C231.286 265.823 231.184 265.728 231.122 265.685C230.952 265.568 230.77 265.623 230.652 265.658L230.579 265.679C230.468 265.71 230.389 265.788 230.347 265.883C230.312 265.854 230.273 265.819 230.242 265.796C230.178 265.747 230.101 265.677 230.016 265.597C230.016 265.597 230.016 265.597 230.016 265.596C230.018 265.584 230.02 265.572 230.02 265.561C230.122 265.461 230.163 265.31 230.111 265.168C230.028 264.934 229.834 264.87 229.693 264.886C229.581 264.898 229.506 264.95 229.448 265.018C229.024 264.559 228.608 264.065 228.541 263.927C228.361 263.564 227.527 262.844 227.278 262.632C227.123 262.5 226.891 262.522 226.76 262.677C226.63 262.833 226.65 263.066 226.804 263.198C227.148 263.49 227.539 263.852 227.746 264.081C227.593 264.135 227.427 264.188 227.288 264.215C227.255 264.221 227.22 264.227 227.185 264.231C227.278 264.081 227.259 263.885 227.123 263.762C226.973 263.626 226.74 263.64 226.605 263.793C226.52 263.89 226.367 264.077 226.313 264.229C226.298 264.27 226.296 264.31 226.296 264.353C226.126 264.378 225.95 264.41 225.774 264.45C225.549 264.503 225.24 264.437 224.915 264.367C224.716 264.324 224.513 264.283 224.304 264.26C224.335 264.209 224.368 264.157 224.403 264.108C224.519 263.941 224.48 263.712 224.314 263.593C224.148 263.476 223.919 263.515 223.801 263.682C223.585 263.99 223.517 264.166 223.496 264.273C223.405 264.283 223.318 264.291 223.219 264.303C222.821 264.349 222.344 264.4 221.746 264.388C221.765 264.363 221.783 264.336 221.794 264.303C221.864 264.112 221.767 263.898 221.576 263.828C221.149 263.671 220.804 264.102 220.673 264.301C220.025 264.211 219.472 264.075 219.153 263.986C219.165 263.867 219.17 263.752 219.163 263.645C219.149 263.441 218.971 263.288 218.772 263.301C218.662 263.309 218.569 263.367 218.505 263.449C218.465 263.362 218.389 263.29 218.291 263.257C218.273 263.251 218.233 263.241 218.18 263.231C218.153 263.227 218.095 263.216 218.053 263.204C217.966 263.107 217.829 263.06 217.691 263.093C217.494 263.142 217.374 263.342 217.423 263.54C217.5 263.857 217.854 263.922 218.078 263.962C218.109 263.97 218.142 263.974 218.173 263.974C218.267 263.974 218.355 263.933 218.422 263.871C218.405 264.106 218.339 264.394 218.252 264.686C218.237 264.616 218.209 264.55 218.157 264.495C218.063 264.382 217.883 264.174 217.627 264.217C217.486 264.24 217.368 264.338 217.314 264.476C217.239 264.664 217.33 264.88 217.519 264.956C217.546 264.968 217.575 264.975 217.604 264.979C217.624 265.001 217.639 265.018 217.649 265.028C217.718 265.098 217.809 265.133 217.902 265.133C217.987 265.133 218.072 265.098 218.142 265.038C218.055 265.294 217.964 265.535 217.894 265.72C217.856 265.821 217.821 265.912 217.794 265.988C217.782 266.021 217.769 266.062 217.753 266.107C217.722 265.992 217.68 265.844 217.66 265.794C217.587 265.607 217.38 265.52 217.192 265.59C217.005 265.66 216.91 265.872 216.976 266.062C216.993 266.115 217.045 266.305 217.078 266.434C217.121 266.599 217.27 266.71 217.434 266.71C217.465 266.71 217.496 266.706 217.527 266.698C217.548 266.692 217.564 266.679 217.583 266.671C217.531 266.852 217.477 267.046 217.423 267.244C217.376 267.168 217.305 267.106 217.214 267.079C217.018 267.023 216.815 267.135 216.759 267.332C216.711 267.497 216.767 267.658 216.96 267.929C217.02 268.012 217.109 268.053 217.204 268.069C217.119 268.395 217.053 268.654 217.032 268.743C216.912 269.257 217.388 269.651 217.89 270.067C218.378 270.47 218.797 270.429 219.132 270.398C219.256 270.386 219.372 270.375 219.495 270.382C219.615 270.39 219.675 270.443 219.704 270.485C219.72 270.509 219.727 270.53 219.731 270.548C219.379 270.618 218.26 270.532 217.904 270.454C217.662 270.377 216.643 269.484 216.023 268.809C215.754 268.518 215.802 268.399 215.909 268.141C215.945 268.051 215.978 267.964 216.001 267.876C216.023 267.793 216.083 267.559 216.044 266.476C216.05 266.492 216.055 266.502 216.059 266.509C216.125 266.642 216.26 266.721 216.398 266.721C216.452 266.721 216.504 266.71 216.556 266.684C216.738 266.593 216.815 266.381 216.724 266.198C216.711 266.163 216.676 266.017 216.647 265.889C216.603 265.689 216.405 265.562 216.21 265.607C216.125 265.627 216.057 265.677 216.007 265.739C215.972 265.409 215.684 264.829 215.338 264.266C215.344 264.266 215.35 264.266 215.356 264.266C215.53 264.248 215.663 264.11 215.684 263.943C215.698 263.912 215.729 263.857 215.756 263.818C215.868 263.649 215.822 263.42 215.653 263.307C215.485 263.194 215.257 263.239 215.145 263.41C215.058 263.542 215.009 263.643 214.984 263.723C214.433 262.928 213.511 261.365 213.501 261.349C213.397 261.174 213.172 261.116 212.998 261.219C212.824 261.322 212.766 261.549 212.869 261.724C212.908 261.789 213.816 263.33 214.385 264.149C214.433 264.217 214.474 264.281 214.518 264.347C214.298 264.551 213.936 264.87 213.553 265.144C213.405 265.251 213.215 265.384 213.006 265.526C213.045 265.333 212.929 265.143 212.737 265.096C212.542 265.047 212.341 265.166 212.293 265.364C212.25 265.537 212.244 265.687 212.244 265.761C212.244 265.844 212.277 265.918 212.324 265.981C211.829 266.307 211.334 266.62 211.044 266.785C210.897 266.869 210.732 266.968 210.568 267.073C210.564 267.05 210.56 267.03 210.558 267.019C210.547 266.824 210.388 266.671 210.191 266.671C209.988 266.671 209.823 266.836 209.823 267.04C209.823 267.108 209.833 267.326 209.916 267.503C209.717 267.641 209.557 267.761 209.475 267.837C209.298 268.003 208.484 269.292 208.516 269.681C208.538 269.939 208.754 270.12 208.965 270.295C209.006 270.328 209.062 270.375 209.095 270.408C209.106 270.472 209.108 270.567 209.098 270.625C208.959 270.651 208.648 270.625 208.522 270.423C208.462 270.328 208.402 270.246 208.346 270.169C208.164 269.922 208.128 269.869 208.23 269.624C208.424 269.156 209.29 267.034 209.373 266.764C209.406 266.696 209.615 266.572 209.725 266.505C209.793 266.465 209.858 266.426 209.916 266.387C210.048 266.297 210.336 265.973 210.661 265.551C210.67 265.638 210.69 265.747 210.707 265.835C210.742 266.012 210.895 266.134 211.067 266.134C211.09 266.134 211.113 266.132 211.136 266.128C211.336 266.089 211.465 265.895 211.426 265.695C211.426 265.693 211.392 265.522 211.388 265.452C211.384 265.249 211.221 265.088 211.02 265.088C211.013 265.088 211.007 265.092 210.999 265.092C211.355 264.588 211.707 264.027 211.914 263.57C212.378 262.541 212.948 260.603 212.973 260.519C213.016 260.375 212.968 260.22 212.85 260.126C212.734 260.033 212.571 260.019 212.442 260.093C211.881 260.41 211.14 260.702 209.858 260.608C209.938 260.48 209.932 260.323 209.843 260.2C210.135 260.218 210.419 260.206 210.696 260.173C210.711 260.227 210.734 260.282 210.775 260.327L210.86 260.418C210.931 260.498 211.032 260.538 211.131 260.538C211.22 260.538 211.308 260.505 211.378 260.441C211.496 260.332 211.523 260.163 211.463 260.023C211.916 259.905 212.337 259.745 212.72 259.58C212.764 259.685 212.852 259.77 212.971 259.798L213.109 259.829C213.136 259.835 213.163 259.838 213.188 259.838C213.356 259.838 213.509 259.722 213.546 259.549C213.571 259.436 213.536 259.325 213.47 259.242L213.567 259.197C213.898 259.047 214.232 258.923 214.572 258.81C214.569 258.985 214.683 259.142 214.859 259.179C214.884 259.185 214.909 259.187 214.934 259.187C215.104 259.187 215.257 259.067 215.294 258.894L215.328 258.726C215.338 258.678 215.338 258.631 215.328 258.586C215.551 258.53 215.773 258.477 215.996 258.435C215.97 258.524 215.968 258.616 215.996 258.703C216.044 258.859 216.171 258.975 216.344 259.022C216.376 259.032 216.409 259.035 216.44 259.035C216.603 259.035 216.75 258.929 216.794 258.763C216.823 258.658 216.804 258.553 216.75 258.468C216.75 258.419 216.738 258.374 216.719 258.33C216.773 258.324 216.827 258.312 216.881 258.306C217.19 258.275 217.513 258.281 217.836 258.304C217.66 258.306 217.504 258.427 217.473 258.606C217.45 258.748 217.508 258.884 217.614 258.964C217.627 259.006 217.649 259.049 217.68 259.086C217.753 259.175 217.858 259.222 217.964 259.222C218.045 259.222 218.128 259.195 218.196 259.139C218.343 259.016 218.405 258.843 218.36 258.674C218.295 258.425 218.051 258.339 217.941 258.312C218.254 258.339 218.563 258.384 218.859 258.435C218.824 258.458 218.792 258.485 218.766 258.522C218.674 258.654 218.677 258.827 218.766 258.954C218.762 259.053 218.797 259.154 218.873 259.23C218.944 259.302 219.039 259.339 219.132 259.339C219.225 259.339 219.319 259.302 219.391 259.23C219.49 259.131 219.54 258.995 219.528 258.857C219.519 258.74 219.466 258.627 219.381 258.534C219.484 258.553 219.584 258.575 219.679 258.594C220.006 258.66 220.286 258.717 220.503 258.74C220.603 258.752 220.744 258.763 220.909 258.779C220.947 258.962 221.042 259.148 221.16 259.226C221.222 259.269 221.294 259.288 221.363 259.288C221.481 259.288 221.599 259.23 221.669 259.123C221.727 259.037 221.738 258.936 221.717 258.843C222.289 258.884 222.943 258.927 223.509 258.958C223.484 259.065 223.471 259.183 223.494 259.29C223.531 259.465 223.689 259.597 223.861 259.597C223.885 259.597 223.908 259.595 223.933 259.59C224.132 259.547 224.26 259.366 224.217 259.168C224.217 259.152 224.227 259.115 224.233 259.096C224.25 259.063 224.258 259.028 224.266 258.995C224.368 258.999 224.465 259.002 224.544 259.004C225.023 259.016 225.923 258.977 226.309 258.763C226.352 258.921 226.487 259.039 226.657 259.039C226.86 259.039 227.025 258.874 227.025 258.67V258.404C227.025 258.394 227.021 258.386 227.019 258.376C227.141 258.324 227.266 258.279 227.392 258.252C227.39 258.267 227.382 258.281 227.382 258.297C227.382 258.501 227.547 258.666 227.75 258.666H227.827C228.03 258.666 228.195 258.501 228.195 258.297C228.195 258.289 228.191 258.281 228.191 258.273C228.307 258.295 228.423 258.32 228.541 258.349C228.732 258.394 228.929 258.439 229.132 258.464C229.308 258.485 229.61 258.497 229.921 258.493C229.892 258.516 229.863 258.542 229.842 258.575L229.792 258.652C229.681 258.824 229.73 259.053 229.9 259.164C229.962 259.205 230.031 259.222 230.099 259.222C230.219 259.222 230.337 259.162 230.409 259.053L230.459 258.975C230.565 258.808 230.521 258.59 230.36 258.476C230.372 258.476 230.385 258.474 230.397 258.474C230.606 258.456 231.006 258.442 231.406 258.431C231.406 258.536 231.447 258.641 231.534 258.713L231.58 258.752C231.65 258.81 231.733 258.837 231.814 258.837C231.921 258.837 232.023 258.792 232.097 258.705C232.168 258.619 232.189 258.511 232.172 258.407C232.29 258.404 232.394 258.4 232.476 258.396C232.663 258.386 232.885 258.388 233.1 258.4C233.09 258.411 233.079 258.423 233.069 258.435C232.943 258.594 232.971 258.827 233.129 258.954C233.288 259.08 233.52 259.053 233.645 258.894C233.773 258.732 233.962 258.6 234.14 258.509C234.142 258.509 234.142 258.507 234.144 258.507C234.307 258.423 234.461 258.374 234.548 258.369C234.486 258.479 234.332 258.654 234.181 258.777C234.022 258.905 233.997 259.137 234.125 259.296C234.198 259.387 234.305 259.434 234.411 259.434C234.492 259.434 234.572 259.407 234.641 259.352C234.657 259.341 234.678 259.323 234.699 259.304C234.674 259.354 234.657 259.409 234.657 259.467V259.59C234.657 259.794 234.821 259.959 235.024 259.959C235.204 259.959 235.345 259.827 235.378 259.656C235.407 259.679 235.434 259.7 235.459 259.716C235.581 259.798 235.712 260.054 235.813 260.27C235.9 260.459 235.989 260.657 236.068 260.836C236.145 261.009 236.215 261.168 236.273 261.287C236.387 261.526 236.383 261.602 236.389 261.602C236.147 261.779 236.062 261.789 236.064 261.791C236.006 261.781 235.923 261.756 235.846 261.734C235.658 261.682 235.556 261.653 235.438 261.682C235.241 261.73 235.121 261.932 235.171 262.129C235.192 262.216 235.244 262.286 235.31 262.335C235.165 262.391 235.159 262.387 235.012 262.246C234.699 261.942 234.349 261.651 233.903 261.571C233.792 261.551 233.58 261.54 233.319 261.544C233.351 261.462 233.359 261.367 233.326 261.277C233.257 261.085 233.046 260.988 232.855 261.058L232.769 261.089C232.578 261.159 232.481 261.371 232.551 261.563C232.555 261.575 232.564 261.584 232.57 261.596C232.36 261.621 232.149 261.658 231.95 261.707C231.967 261.565 231.986 261.456 231.998 261.419C232.073 261.231 231.982 261.015 231.793 260.939C231.603 260.863 231.391 260.955 231.315 261.145C231.265 261.271 231.203 261.649 231.18 262.063C231.136 262.045 231.085 262.022 231.039 262.001C230.855 261.915 230.637 261.997 230.552 262.183C230.467 262.368 230.548 262.588 230.733 262.673C230.992 262.792 231.118 262.827 231.195 262.835C231.203 262.891 231.209 262.949 231.219 263.002C231.232 263.068 231.254 263.157 231.281 263.264C231.263 263.272 231.246 263.272 231.228 263.282L231.151 263.328C230.977 263.433 230.921 263.661 231.025 263.836C231.095 263.951 231.217 264.015 231.341 264.015C231.391 264.015 231.439 264.001 231.487 263.98C231.656 264.515 231.88 265.127 232.098 265.541C232.064 265.559 232.029 265.578 232 265.607L231.921 265.685C231.82 265.782 231.696 265.903 231.721 266.107C231.735 266.222 231.824 266.346 231.924 266.404C231.982 266.437 232.044 266.453 232.106 266.453C232.234 266.453 232.358 266.387 232.425 266.266C232.439 266.241 232.45 266.216 232.458 266.189L232.505 266.144C232.671 266.379 232.895 266.706 233.129 267.048C233.775 267.993 234.249 268.679 234.467 268.909C234.989 269.455 235.709 269.807 236.393 269.854C236.507 269.861 236.59 269.889 236.617 269.929C236.642 269.96 236.656 270.054 236.633 270.186Z" fill="#FFDE3B"/>
<path d="M221.307 261.722C221.324 261.65 221.318 261.578 221.293 261.512C221.407 261.381 221.417 261.183 221.307 261.041C221.181 260.88 220.951 260.85 220.79 260.977C220.641 261.094 220.46 261.377 220.52 261.65C220.558 261.825 220.69 261.957 220.864 261.998C220.891 262.003 220.92 262.007 220.947 262.007C221.117 262.007 221.268 261.893 221.307 261.722Z" fill="#FFDE3B"/>
<path d="M222.781 262.647C222.868 262.63 223.028 262.567 223.127 262.344C223.166 262.254 223.286 261.873 223.15 261.646C223.015 261.42 222.754 261.411 222.377 261.471C222.176 261.502 222.038 261.69 222.071 261.893C222.094 262.046 222.21 262.163 222.354 262.196C222.34 262.248 222.338 262.303 222.35 262.357C222.385 262.532 222.537 262.655 222.709 262.655C222.733 262.655 222.756 262.653 222.781 262.647Z" fill="#FFDE3B"/>
<path d="M223.784 260.887C223.899 260.774 223.93 260.595 223.848 260.448C223.752 260.269 223.529 260.203 223.349 260.3C223.079 260.448 222.936 260.677 222.965 260.916C222.99 261.115 223.133 261.276 223.334 261.328C223.365 261.336 223.396 261.34 223.425 261.34C223.589 261.34 223.738 261.229 223.781 261.064C223.798 261.004 223.798 260.944 223.784 260.887Z" fill="#FFDE3B"/>
<path d="M222.21 261.211C222.222 261.211 222.233 261.213 222.243 261.213C222.43 261.213 222.591 261.069 222.608 260.877C222.62 260.749 222.566 260.63 222.471 260.556C222.467 260.426 222.394 260.299 222.268 260.237C222.086 260.146 221.866 260.22 221.775 260.402C221.688 260.577 221.69 260.772 221.779 260.935C221.868 261.091 222.028 261.194 222.21 261.211Z" fill="#FFDE3B"/>
<path d="M221.089 260.485C221.136 260.485 221.184 260.475 221.23 260.455C221.373 260.395 221.627 260.228 221.675 259.979C221.702 259.843 221.662 259.705 221.567 259.61C221.424 259.466 221.192 259.466 221.047 259.61C221 259.656 220.969 259.711 220.954 259.769C220.952 259.771 220.95 259.771 220.948 259.773C220.761 259.851 220.674 260.068 220.751 260.257C220.807 260.399 220.944 260.485 221.089 260.485Z" fill="#FFDE3B"/>
<path d="M220.156 259.72C220.165 259.722 220.177 259.722 220.187 259.722C220.376 259.722 220.537 259.576 220.552 259.384C220.562 259.275 220.523 259.174 220.453 259.1C220.473 258.906 220.337 258.729 220.142 258.7C219.943 258.667 219.753 258.808 219.724 259.011C219.705 259.133 219.672 259.361 219.817 259.543C219.899 259.646 220.018 259.709 220.156 259.72Z" fill="#FFDE3B"/>
<path d="M217.177 259.006C216.988 258.936 216.777 259.035 216.705 259.227C216.651 259.379 216.702 259.542 216.818 259.64C216.823 259.669 216.835 259.698 216.848 259.727C216.912 259.857 217.042 259.931 217.177 259.931C217.231 259.931 217.289 259.92 217.342 259.892C217.5 259.813 217.591 259.657 217.581 259.484C217.572 259.278 217.411 259.091 217.177 259.006Z" fill="#FFDE3B"/>
<path d="M218.078 260.165C218.141 260.216 218.217 260.239 218.292 260.239C218.398 260.239 218.505 260.19 218.578 260.097C218.596 260.074 218.611 260.05 218.623 260.025C218.733 259.945 218.787 259.803 218.758 259.654C218.719 259.454 218.511 259.327 218.313 259.364C218.203 259.385 217.946 259.432 217.882 259.698C217.859 259.8 217.851 259.992 218.078 260.165Z" fill="#FFDE3B"/>
<path d="M219.286 260.473C219.348 260.522 219.427 260.551 219.513 260.551C219.522 260.551 219.534 260.551 219.544 260.549C219.745 260.532 219.895 260.353 219.88 260.15C219.868 260.01 219.801 259.89 219.69 259.81C219.484 259.66 219.215 259.729 219.114 259.754C218.917 259.802 218.797 260.005 218.847 260.201C218.896 260.399 219.093 260.518 219.286 260.473Z" fill="#FFDE3B"/>
<path d="M219.604 260.956C219.604 260.962 219.602 260.968 219.602 260.976C219.513 261.044 219.457 261.149 219.457 261.269C219.457 261.474 219.621 261.639 219.824 261.639C220.18 261.639 220.339 261.248 220.339 260.97C220.339 260.772 220.184 260.62 219.987 260.61C219.786 260.601 219.619 260.76 219.604 260.956Z" fill="#FFDE3B"/>
<path d="M219.135 261.932C219.178 261.81 219.152 261.681 219.081 261.584C219.149 261.405 219.067 261.199 218.891 261.118C218.708 261.032 218.489 261.112 218.404 261.298C218.306 261.514 218.29 261.707 218.358 261.87C218.414 262.004 218.524 262.105 218.667 262.156C218.708 262.169 218.748 262.177 218.789 262.177C218.94 262.179 219.083 262.084 219.135 261.932Z" fill="#FFDE3B"/>
<path d="M218 261.212C218.085 261.212 218.168 261.183 218.238 261.125C218.275 261.094 218.304 261.057 218.325 261.018C218.439 260.946 218.51 260.812 218.495 260.668C218.476 260.466 218.296 260.316 218.093 260.337C217.882 260.359 217.716 260.474 217.648 260.643C217.588 260.791 217.617 260.96 217.72 261.082C217.791 261.168 217.896 261.212 218 261.212Z" fill="#FFDE3B"/>
<path d="M220.148 262.853C219.979 262.956 219.765 263.286 219.811 263.572C219.842 263.753 219.997 263.881 220.173 263.881C220.192 263.881 220.213 263.879 220.235 263.875C220.418 263.844 220.546 263.683 220.542 263.502C220.546 263.494 220.55 263.484 220.556 263.477C220.592 263.453 220.625 263.424 220.652 263.387C220.774 263.224 220.741 262.993 220.581 262.87C220.457 262.779 220.275 262.775 220.148 262.853Z" fill="#FFDE3B"/>
<path d="M221.445 262.434C221.309 262.475 221.201 262.574 221.137 262.714C221.054 262.897 221.042 263.161 221.112 263.315C221.174 263.453 221.307 263.533 221.446 263.533C221.497 263.533 221.547 263.523 221.597 263.5C221.766 263.424 221.849 263.239 221.802 263.066C221.802 263.062 221.802 263.058 221.802 263.054C221.901 262.961 221.943 262.817 221.903 262.679C221.843 262.487 221.638 262.376 221.445 262.434Z" fill="#FFDE3B"/>
<path d="M219.842 262.003C219.661 261.912 219.44 261.986 219.349 262.168C219.336 262.196 219.272 262.26 219.237 262.293C219.131 262.398 218.953 262.573 219.038 262.827C219.09 262.983 219.233 263.08 219.386 263.08C219.425 263.08 219.463 263.074 219.502 263.061C219.61 263.024 219.692 262.942 219.728 262.843C219.736 262.835 219.744 262.827 219.751 262.82C219.829 262.742 219.937 262.637 220.005 262.499C220.098 262.316 220.024 262.094 219.842 262.003Z" fill="#FFDE3B"/>
<path d="M222.753 263.207C222.707 263.277 222.682 263.34 222.662 263.392C222.643 263.443 222.631 263.47 222.601 263.507C222.471 263.664 222.492 263.896 222.647 264.028C222.717 264.086 222.8 264.113 222.883 264.113C222.989 264.113 223.092 264.069 223.165 263.981C223.273 263.851 223.318 263.738 223.347 263.662C223.353 263.647 223.358 263.631 223.366 263.618C223.478 263.448 223.432 263.219 223.264 263.106C223.094 262.992 222.865 263.038 222.753 263.207Z" fill="#FFDE3B"/>
<path d="M224.583 262.436C224.589 262.345 224.56 262.25 224.496 262.174C224.365 262.018 224.133 262.001 223.978 262.133C223.76 262.32 223.758 262.524 223.777 262.629C223.814 262.833 223.972 262.987 224.245 263.086C224.286 263.101 224.328 263.107 224.369 263.107C224.52 263.107 224.661 263.014 224.715 262.862C224.773 262.701 224.713 262.53 224.583 262.436Z" fill="#FFDE3B"/>
<path d="M225.565 263.44C225.405 263.459 225.117 263.595 224.985 263.833C224.887 264.01 224.945 264.241 225.121 264.342C225.179 264.375 225.243 264.391 225.304 264.391C225.43 264.391 225.55 264.326 225.618 264.206C225.629 264.194 225.664 264.173 225.658 264.171C225.859 264.146 226.002 263.961 225.977 263.759C225.95 263.558 225.767 263.415 225.565 263.44Z" fill="#FFDE3B"/>
<path d="M222.586 260.093C222.596 260.093 222.605 260.093 222.615 260.091C222.818 260.077 222.971 259.902 222.957 259.698C222.945 259.535 222.831 259.403 222.683 259.364C222.609 259.241 222.466 259.167 222.315 259.189C222.114 259.218 221.975 259.405 222.004 259.607C222.035 259.828 222.311 260.093 222.586 260.093Z" fill="#FFDE3B"/>
<path d="M224.375 260.544L224.623 260.272L224.379 260.548C224.449 260.61 224.536 260.641 224.623 260.641C224.723 260.641 224.824 260.6 224.897 260.517C225.007 260.392 225.019 260.212 224.936 260.077C224.959 259.976 224.94 259.867 224.874 259.778C224.754 259.613 224.524 259.578 224.362 259.698C224.23 259.796 224.153 259.932 224.145 260.081C224.133 260.328 224.315 260.49 224.375 260.544Z" fill="#FFDE3B"/>
<path d="M225.192 261.672C225.262 261.499 225.19 261.306 225.036 261.215C224.978 261.055 224.811 260.954 224.639 260.976C224.438 261.005 224.299 261.192 224.328 261.394C224.367 261.668 224.591 261.827 224.717 261.878C224.761 261.895 224.808 261.905 224.852 261.905C224.997 261.905 225.136 261.818 225.192 261.672Z" fill="#FFDE3B"/>
<path d="M226.152 261.98C226.143 261.964 226.131 261.943 226.125 261.927C226.059 261.735 225.851 261.632 225.657 261.7C225.466 261.766 225.363 261.976 225.431 262.17C225.447 262.217 225.595 262.623 225.909 262.654C225.922 262.656 225.934 262.656 225.947 262.656C226.133 262.656 226.293 262.514 226.313 262.324C226.324 262.184 226.259 262.056 226.152 261.98Z" fill="#FFDE3B"/>
<path d="M224.373 265.668C224.347 265.693 224.326 265.714 224.309 265.732C224.146 265.786 224.04 265.95 224.061 266.127C224.084 266.315 224.241 266.453 224.425 266.453C224.44 266.453 224.454 266.453 224.469 266.451C224.616 266.434 224.73 266.395 224.835 266.255C224.842 266.245 224.854 266.23 224.877 266.208C225.024 266.068 225.032 265.835 224.893 265.685C224.754 265.535 224.52 265.53 224.373 265.668Z" fill="#FFDE3B"/>
<path d="M216.314 264.15C216.162 264.311 216.034 264.597 216.185 264.862C216.252 264.982 216.376 265.05 216.506 265.05C216.568 265.05 216.629 265.035 216.686 265.002C216.819 264.926 216.887 264.778 216.869 264.632C216.987 264.484 216.974 264.269 216.834 264.134C216.687 263.996 216.455 264.002 216.314 264.15Z" fill="#FFDE3B"/>
<path d="M216.882 262.357C216.756 262.32 216.607 262.359 216.512 262.45C216.321 262.635 216.321 263.121 216.34 263.199C216.381 263.368 216.532 263.481 216.696 263.481C216.725 263.481 216.754 263.477 216.783 263.469C216.959 263.426 217.073 263.263 217.061 263.088C217.063 263.049 217.073 262.973 217.083 262.919C217.104 262.886 217.121 262.851 217.133 262.812C217.189 262.616 217.077 262.412 216.882 262.357Z" fill="#FFDE3B"/>
<path d="M217.337 261.365C217.19 261.223 216.958 261.229 216.816 261.377C216.677 261.525 216.681 261.758 216.828 261.9L216.871 261.941C216.942 262.009 217.033 262.044 217.124 262.044C217.221 262.044 217.317 262.005 217.389 261.929C217.528 261.781 217.524 261.548 217.377 261.406L217.337 261.365Z" fill="#FFDE3B"/>
<path d="M215.289 261.989C215.1 261.915 214.887 262.009 214.814 262.199L214.76 262.337C214.686 262.528 214.779 262.742 214.968 262.816C215.013 262.833 215.057 262.841 215.102 262.841C215.249 262.841 215.388 262.751 215.444 262.606L215.498 262.467C215.572 262.277 215.477 262.063 215.289 261.989Z" fill="#FFDE3B"/>
<path d="M216.371 262.18C216.389 262.052 216.428 261.787 216.211 261.643C216.041 261.531 215.813 261.577 215.702 261.746C215.644 261.834 215.629 261.937 215.65 262.032C215.648 262.054 215.644 262.073 215.644 262.077C215.615 262.279 215.757 262.466 215.956 262.495C215.973 262.497 215.991 262.499 216.008 262.499C216.188 262.499 216.346 262.365 216.371 262.18Z" fill="#FFDE3B"/>
<path d="M216.428 261.19C216.631 261.19 216.793 261.042 216.793 260.838C216.797 260.813 216.809 260.774 216.818 260.737C216.853 260.599 216.876 260.508 216.838 260.393C216.774 260.201 216.565 260.096 216.372 260.16C216.227 260.208 216.132 260.341 216.122 260.486C216.119 260.504 216.111 260.527 216.105 260.552C216.076 260.661 216.059 260.733 216.059 260.803C216.062 261.007 216.225 261.19 216.428 261.19Z" fill="#FFDE3B"/>
<path d="M212.449 262.788C212.449 262.866 212.501 263.111 212.528 263.181C212.585 263.323 212.718 263.406 212.863 263.406C212.904 263.406 212.946 263.399 212.987 263.385C213.172 263.321 213.273 263.115 213.217 262.924C213.205 262.885 213.186 262.788 213.18 262.751C213.163 262.565 213.006 262.419 212.815 262.419C212.614 262.419 212.449 262.584 212.449 262.788Z" fill="#FFDE3B"/>
<path d="M213.55 264.773C213.569 264.776 213.589 264.776 213.608 264.776C213.786 264.776 213.943 264.646 213.97 264.465C213.977 264.415 214.001 264.236 213.964 264.078C213.919 263.884 213.732 263.771 213.537 263.81C213.341 263.849 213.216 264.045 213.246 264.242C213.25 264.261 213.247 264.316 213.243 264.351C213.212 264.551 213.349 264.741 213.55 264.773Z" fill="#FFDE3B"/>
<path d="M211.99 263.729C211.845 263.904 211.837 264.258 211.847 264.334C211.874 264.519 212.034 264.667 212.216 264.667C212.231 264.667 212.249 264.665 212.264 264.663C212.465 264.634 212.606 264.462 212.577 264.26C212.577 264.237 212.587 264.177 212.595 264.144C212.678 263.992 212.645 263.797 212.508 263.683C212.349 263.551 212.119 263.572 211.99 263.729Z" fill="#FFDE3B"/>
<path d="M214.835 261.418L214.766 261.21C214.702 261.017 214.495 260.911 214.302 260.977C214.108 261.041 214.006 261.251 214.07 261.443L214.139 261.651C214.192 261.807 214.335 261.904 214.487 261.904C214.526 261.904 214.565 261.898 214.603 261.885C214.795 261.82 214.899 261.61 214.835 261.418Z" fill="#FFDE3B"/>
<path d="M215.786 261.228V261.147C215.786 260.942 215.621 260.777 215.418 260.777C215.215 260.777 215.051 260.942 215.051 261.147V261.228C215.051 261.432 215.215 261.598 215.418 261.598C215.621 261.598 215.786 261.432 215.786 261.228Z" fill="#FFDE3B"/>
<path d="M214.369 260.121C214.421 260.275 214.564 260.37 214.717 260.37C214.756 260.37 214.796 260.364 214.837 260.351C215.028 260.285 215.131 260.075 215.065 259.882L214.995 259.68C214.93 259.487 214.721 259.382 214.529 259.45C214.338 259.517 214.235 259.727 214.301 259.919L214.369 260.121Z" fill="#FFDE3B"/>
<path d="M217.549 262.571C217.601 262.725 217.744 262.82 217.897 262.82C217.935 262.82 217.976 262.814 218.016 262.801C218.208 262.735 218.31 262.525 218.245 262.332L218.175 262.13C218.109 261.937 217.9 261.832 217.709 261.9C217.518 261.967 217.415 262.177 217.481 262.369L217.549 262.571Z" fill="#FFDE3B"/>
<path d="M215.349 259.875C215.402 260.029 215.545 260.124 215.697 260.124C215.736 260.124 215.777 260.118 215.817 260.105C216.009 260.039 216.111 259.829 216.045 259.636L215.976 259.434C215.91 259.242 215.701 259.137 215.51 259.205C215.318 259.271 215.216 259.481 215.282 259.673L215.349 259.875Z" fill="#FFDE3B"/>
<path d="M214.09 260.34L213.958 260.087C213.863 259.907 213.641 259.839 213.461 259.934C213.281 260.029 213.214 260.253 213.308 260.434L213.44 260.686C213.506 260.813 213.633 260.883 213.765 260.883C213.823 260.883 213.881 260.869 213.935 260.84C214.117 260.743 214.184 260.519 214.09 260.34Z" fill="#FFDE3B"/>
<path d="M229.225 263.244C229.094 263.088 228.862 263.071 228.707 263.203C228.552 263.335 228.535 263.569 228.666 263.724L228.759 263.831C228.833 263.917 228.935 263.959 229.037 263.959C229.123 263.959 229.208 263.93 229.275 263.87C229.43 263.738 229.447 263.504 229.316 263.349L229.225 263.244Z" fill="#FFDE3B"/>
<path d="M230.362 262.736C230.362 262.479 230.177 262.329 229.993 262.314C229.722 262.288 229.434 262.592 229.403 262.792C229.37 262.994 229.506 263.183 229.707 263.216C229.726 263.22 229.748 263.22 229.767 263.22C229.871 263.22 229.968 263.175 230.036 263.101C230.219 263.082 230.362 262.926 230.362 262.736Z" fill="#FFDE3B"/>
<path d="M230.373 263.647C230.226 263.597 230.071 263.641 229.938 263.768C229.754 263.941 229.779 264.128 229.798 264.199C229.837 264.343 229.951 264.452 230.104 264.487C230.131 264.493 230.16 264.497 230.187 264.497C230.348 264.497 230.493 264.39 230.539 264.233C230.566 264.199 230.589 264.159 230.603 264.116C230.669 263.923 230.564 263.713 230.373 263.647Z" fill="#FFDE3B"/>
<path d="M230.988 264.405C230.827 264.469 230.721 264.617 230.719 264.782C230.715 264.913 230.783 265.086 230.978 265.175C231.026 265.199 231.079 265.208 231.131 265.208C231.27 265.208 231.403 265.129 231.465 264.992C231.473 264.975 231.479 264.957 231.485 264.94C231.57 264.798 231.55 264.611 231.429 264.491C231.316 264.378 231.142 264.343 230.988 264.405Z" fill="#FFDE3B"/>
<path d="M228.527 261.43C228.601 261.43 228.676 261.407 228.742 261.36C228.906 261.242 228.943 261.01 228.825 260.845C228.814 260.828 228.796 260.802 228.783 260.779C228.779 260.689 228.744 260.602 228.676 260.534C228.533 260.39 228.301 260.39 228.156 260.534C227.978 260.713 228.003 260.962 228.23 261.277C228.301 261.378 228.413 261.43 228.527 261.43Z" fill="#FFDE3B"/>
<path d="M230.204 260.503C230.303 260.503 230.401 260.464 230.473 260.386C230.587 260.263 230.6 260.081 230.519 259.945C230.531 259.772 230.421 259.608 230.249 259.562C230.053 259.507 229.85 259.626 229.798 259.824C229.742 260.036 229.802 260.263 229.955 260.405C230.024 260.47 230.113 260.503 230.204 260.503Z" fill="#FFDE3B"/>
<path d="M230.348 261.061C230.348 261.211 230.446 261.444 230.607 261.561C230.684 261.617 230.771 261.647 230.86 261.647C230.905 261.647 230.949 261.639 230.992 261.625C231.185 261.561 231.289 261.351 231.224 261.159C231.195 261.073 231.139 261.005 231.067 260.96C231.022 260.807 230.881 260.694 230.715 260.694C230.512 260.692 230.348 260.857 230.348 261.061Z" fill="#FFDE3B"/>
<path d="M229.225 261.333C229.256 261.514 229.411 261.642 229.587 261.642C229.606 261.642 229.627 261.64 229.648 261.636C229.848 261.603 229.983 261.412 229.95 261.21C229.95 261.206 229.948 261.193 229.948 261.181C230.02 261.035 229.989 260.854 229.863 260.742C229.712 260.606 229.478 260.619 229.345 260.773C229.188 260.948 229.202 261.199 229.225 261.333Z" fill="#FFDE3B"/>
<path d="M228.743 260.354C228.774 260.535 228.929 260.663 229.105 260.663C229.124 260.663 229.145 260.661 229.167 260.657C229.366 260.624 229.501 260.434 229.468 260.231C229.468 260.228 229.466 260.214 229.466 260.202C229.538 260.057 229.507 259.876 229.381 259.763C229.231 259.627 228.997 259.64 228.863 259.794C228.708 259.969 228.722 260.22 228.743 260.354Z" fill="#FFDE3B"/>
<path d="M228.009 262.56C228.04 262.741 228.195 262.869 228.371 262.869C228.39 262.869 228.411 262.867 228.433 262.864C228.632 262.831 228.767 262.64 228.734 262.438C228.734 262.434 228.732 262.42 228.732 262.409C228.804 262.263 228.773 262.082 228.647 261.969C228.497 261.833 228.263 261.847 228.129 262C227.973 262.175 227.988 262.426 228.009 262.56Z" fill="#FFDE3B"/>
<path d="M227.109 261.339L227.085 261.286C227 261.099 226.782 261.018 226.598 261.103C226.414 261.189 226.331 261.407 226.416 261.593L226.441 261.65C226.49 261.76 226.6 262.021 226.911 262.021C227.114 262.021 227.279 261.856 227.279 261.652C227.281 261.519 227.211 261.403 227.109 261.339Z" fill="#FFDE3B"/>
<path d="M225.54 260.388C225.443 260.453 225.372 260.589 225.364 260.703C225.355 260.859 225.422 261.02 225.542 261.123C225.612 261.184 225.697 261.213 225.78 261.213C225.884 261.213 225.987 261.168 226.058 261.084C226.157 260.968 226.172 260.808 226.109 260.678C226.105 260.614 226.085 260.55 226.047 260.493C225.937 260.322 225.71 260.276 225.54 260.388Z" fill="#FFDE3B"/>
<path d="M225.618 259.922C225.694 259.922 225.771 259.899 225.837 259.85C225.951 259.765 226.001 259.628 225.982 259.496C226.003 259.354 225.941 259.207 225.814 259.127C225.642 259.018 225.415 259.072 225.307 259.244C225.189 259.434 225.23 259.646 225.323 259.772C225.394 259.872 225.506 259.922 225.618 259.922Z" fill="#FFDE3B"/>
<path d="M227.465 260.18C227.262 260.18 227.098 260.345 227.098 260.55V260.623C227.098 260.828 227.262 260.993 227.465 260.993C227.668 260.993 227.832 260.828 227.832 260.623V260.55C227.832 260.345 227.668 260.18 227.465 260.18Z" fill="#FFDE3B"/>
<path d="M226.645 260.286C226.848 260.286 227.012 260.121 227.012 259.916V259.78C227.012 259.576 226.848 259.411 226.645 259.411C226.442 259.411 226.277 259.576 226.277 259.78V259.916C226.277 260.121 226.442 260.286 226.645 260.286Z" fill="#FFDE3B"/>
<path d="M228.282 259.498V259.395C228.282 259.191 228.117 259.026 227.914 259.026C227.711 259.026 227.547 259.191 227.547 259.395V259.498C227.547 259.702 227.711 259.868 227.914 259.868C228.117 259.868 228.282 259.702 228.282 259.498Z" fill="#FFDE3B"/>
<path d="M228.914 259.249H228.999C229.202 259.249 229.367 259.084 229.367 258.88C229.367 258.676 229.202 258.51 228.999 258.51H228.914C228.711 258.51 228.547 258.676 228.547 258.88C228.547 259.084 228.711 259.249 228.914 259.249Z" fill="#FFDE3B"/>
<path d="M231.041 259.934C230.867 260.039 230.811 260.267 230.916 260.442L230.985 260.557C231.055 260.671 231.177 260.735 231.301 260.735C231.364 260.735 231.43 260.718 231.49 260.683C231.664 260.578 231.72 260.35 231.616 260.175L231.546 260.061C231.442 259.886 231.216 259.829 231.041 259.934Z" fill="#FFDE3B"/>
<path d="M231.181 259.687C231.254 259.687 231.329 259.665 231.393 259.619L231.447 259.58C231.612 259.461 231.65 259.23 231.532 259.064C231.415 258.899 231.184 258.86 231.02 258.979L230.966 259.018C230.802 259.136 230.763 259.368 230.881 259.533C230.954 259.632 231.066 259.687 231.181 259.687Z" fill="#FFDE3B"/>
<path d="M232.143 259.827C232.224 259.827 232.308 259.8 232.375 259.743L232.497 259.644C232.654 259.516 232.679 259.282 232.551 259.125C232.424 258.965 232.192 258.942 232.035 259.07L231.913 259.17C231.756 259.298 231.731 259.531 231.859 259.689C231.93 259.78 232.037 259.827 232.143 259.827Z" fill="#FFDE3B"/>
<path d="M232.363 259.938C232.16 259.938 231.996 260.103 231.996 260.308V260.401C231.996 260.605 232.16 260.77 232.363 260.77C232.567 260.77 232.731 260.605 232.731 260.401V260.308C232.731 260.105 232.567 259.938 232.363 259.938Z" fill="#FFDE3B"/>
<path d="M183.269 290.86L187.679 297.534C187.715 297.592 187.76 297.627 187.822 297.65C187.901 297.678 187.978 297.692 188.055 297.692H188.679C188.769 297.692 188.787 297.673 188.787 297.58V289.009C188.787 288.917 188.769 288.898 188.679 288.898H187.967C187.876 288.898 187.858 288.917 187.858 289.009V295.593C187.858 295.665 187.858 295.855 187.706 295.901C187.554 295.947 187.452 295.787 187.413 295.727L183.103 289.053C183.067 288.998 183.024 288.961 182.96 288.94C182.881 288.912 182.804 288.898 182.727 288.898H182.003C181.913 288.898 181.895 288.917 181.895 289.009V297.58C181.895 297.673 181.913 297.692 182.003 297.692H182.718C182.808 297.692 182.826 297.673 182.826 297.58V290.997C182.826 290.927 182.826 290.74 182.976 290.693C182.996 290.687 183.015 290.684 183.033 290.684C183.153 290.687 183.235 290.809 183.269 290.86Z" fill="#111111"/>
<path d="M197.506 295.597C197.602 295.533 197.647 295.443 197.647 295.321V291.268C197.647 291.144 197.604 291.059 197.506 290.992L194.344 288.948C194.291 288.915 194.242 288.898 194.197 288.898C194.176 288.898 194.129 288.904 194.042 288.952L190.903 290.992C190.799 291.059 190.754 291.144 190.754 291.268V295.321C190.754 295.446 190.799 295.531 190.903 295.597L194.05 297.641C194.121 297.691 194.18 297.703 194.272 297.681C194.291 297.676 194.311 297.664 194.334 297.647L197.506 295.597ZM194.197 296.801C194.118 296.801 194.04 296.776 193.969 296.728L191.643 295.217C191.496 295.122 191.419 294.977 191.419 294.794V291.795C191.419 291.615 191.496 291.467 191.643 291.372L193.972 289.859C194.165 289.753 194.281 289.77 194.423 289.859L196.764 291.372C196.907 291.469 196.982 291.615 196.982 291.795V294.794C196.982 294.974 196.907 295.12 196.767 295.215L194.424 296.728C194.392 296.753 194.349 296.776 194.304 296.786C194.264 296.797 194.229 296.801 194.197 296.801Z" fill="#111111"/>
<path d="M211.541 288.898C211.455 288.898 211.438 288.917 211.438 289.009V297.58C211.438 297.673 211.455 297.692 211.541 297.692H217.243C217.329 297.692 217.346 297.673 217.346 297.58V296.851C217.346 296.758 217.329 296.74 217.243 296.74H212.732C212.478 296.74 212.328 296.575 212.328 296.304V289.009C212.328 288.917 212.311 288.898 212.225 288.898H211.541Z" fill="#111111"/>
<path d="M244.561 297.692C244.678 297.692 244.751 297.63 244.793 297.501L247.238 290.283C247.263 290.211 247.303 290.111 247.376 290.111C247.449 290.111 247.489 290.211 247.514 290.283L249.95 297.498C249.992 297.63 250.066 297.692 250.182 297.692H250.739C250.788 297.692 250.812 297.678 250.819 297.667C250.824 297.655 250.826 297.619 250.807 297.56L247.884 289.094C247.842 288.96 247.768 288.898 247.652 288.898H247.095C246.978 288.898 246.905 288.96 246.863 289.089V289.092L243.945 297.562C243.928 297.619 243.928 297.655 243.933 297.667C243.938 297.678 243.962 297.692 244.013 297.692H244.561Z" fill="#111111"/>
<path d="M255.675 293.818L258.316 297.548C258.363 297.65 258.439 297.692 258.579 297.692H259.518C259.526 297.692 259.534 297.692 259.542 297.692C259.542 297.689 259.539 297.685 259.539 297.682L256.814 293.837L257.119 293.818C257.471 293.795 257.807 293.714 258.119 293.575C258.432 293.436 258.71 293.253 258.941 293.035C259.172 292.818 259.356 292.563 259.489 292.278C259.621 291.995 259.686 291.69 259.686 291.372C259.686 291.062 259.618 290.754 259.482 290.457C259.345 290.161 259.159 289.892 258.925 289.66C258.694 289.431 258.416 289.246 258.098 289.104C257.786 288.968 257.442 288.898 257.08 288.898H251.935C251.83 288.898 251.809 288.917 251.809 289.009V289.739C251.809 289.832 251.83 289.85 251.935 289.85H257.048C257.284 289.864 257.494 289.915 257.681 290.001C257.867 290.087 258.027 290.2 258.161 290.337C258.29 290.471 258.397 290.626 258.476 290.8C258.555 290.971 258.602 291.157 258.618 291.351V291.363V291.375C258.581 291.773 258.426 292.113 258.161 292.391C257.888 292.679 257.513 292.836 257.051 292.864H252.037C251.966 292.864 251.908 292.88 251.858 292.913C251.832 292.931 251.809 292.954 251.809 293.01V297.578C251.809 297.671 251.83 297.689 251.935 297.689H252.761C252.866 297.689 252.887 297.671 252.887 297.578V294.249C252.887 293.976 253.074 293.814 253.381 293.814H255.675V293.818Z" fill="#111111"/>
<path d="M240.419 293.037C240.593 292.819 240.73 292.564 240.831 292.279C240.929 291.996 240.979 291.69 240.979 291.373C240.979 291.062 240.927 290.754 240.825 290.458C240.723 290.161 240.583 289.892 240.408 289.661C240.234 289.431 240.026 289.246 239.787 289.104C239.551 288.968 239.295 288.898 239.024 288.898H235.165C235.086 288.898 235.07 288.917 235.07 289.009V289.739C235.07 289.832 235.086 289.851 235.165 289.851H239C239.177 289.864 239.335 289.915 239.474 290.001C239.614 290.087 239.734 290.2 239.835 290.337C239.931 290.472 240.012 290.627 240.071 290.801C240.13 290.972 240.165 291.157 240.177 291.352V291.364V291.375C240.15 291.774 240.034 292.114 239.835 292.392C239.63 292.68 239.348 292.837 239.002 292.865H235.242C235.188 292.865 235.145 292.881 235.108 292.914C235.088 292.932 235.07 292.955 235.07 293.011V297.58C235.07 297.673 235.086 297.692 235.165 297.692H235.785C235.864 297.692 235.879 297.673 235.879 297.58V294.251C235.879 293.977 236.019 293.815 236.25 293.815L239.053 293.824V293.815C239.317 293.792 239.569 293.711 239.803 293.572C240.037 293.435 240.246 293.254 240.419 293.037Z" fill="#111111"/>
<path d="M261.742 297.692H264.152C264.616 297.692 265.062 297.576 265.473 297.349C265.887 297.122 266.252 296.807 266.562 296.411C266.87 296.017 267.117 295.547 267.296 295.012C267.473 294.479 267.564 293.901 267.564 293.294C267.564 292.828 267.509 292.372 267.398 291.941C267.287 291.508 267.131 291.105 266.932 290.744C266.734 290.383 266.49 290.058 266.209 289.781C265.926 289.503 265.613 289.287 265.275 289.134C264.924 288.977 264.558 288.898 264.188 288.898H261.742C261.671 288.898 261.656 288.917 261.656 289.009V289.739C261.656 289.831 261.671 289.85 261.742 289.85H264.097C264.46 289.882 264.806 289.989 265.133 290.17C265.461 290.35 265.753 290.593 266.001 290.892C266.252 291.193 266.454 291.552 266.603 291.957C266.753 292.367 266.83 292.817 266.83 293.294C266.83 293.764 266.762 294.213 266.63 294.628C266.497 295.042 266.313 295.41 266.078 295.723C265.844 296.036 265.566 296.284 265.253 296.464C264.938 296.647 264.594 296.737 264.236 296.737H262.729C262.517 296.737 262.392 296.573 262.392 296.302V294.862C262.392 294.769 262.378 294.75 262.306 294.75H261.742C261.671 294.75 261.656 294.769 261.656 294.862V297.578C261.656 297.673 261.671 297.692 261.742 297.692Z" fill="#111111"/>
<path d="M175.793 297.398C176.089 297.592 176.41 297.692 176.744 297.692C177.115 297.692 177.43 297.629 177.679 297.506C177.927 297.384 178.134 297.231 178.295 297.048C178.453 296.867 178.574 296.675 178.656 296.476C178.743 296.263 178.809 296.059 178.852 295.872C178.895 295.687 178.92 295.531 178.926 295.411C178.934 295.286 178.939 295.212 178.939 295.186C178.939 294.828 178.903 294.515 178.83 294.263C178.756 294.003 178.663 293.783 178.554 293.605C178.446 293.432 178.325 293.29 178.194 293.191C178.047 293.082 177.905 292.992 177.771 292.927C177.636 292.862 177.515 292.818 177.411 292.795C177.303 292.772 177.224 292.755 177.177 292.746C177.166 292.744 177.156 292.742 177.144 292.739H177.142C176.967 292.691 176.806 292.647 176.661 292.612C176.49 292.568 176.34 292.501 176.217 292.413C176.075 292.311 175.961 292.163 175.879 291.975C175.796 291.783 175.755 291.538 175.755 291.227C175.755 290.776 175.889 290.405 176.141 290.158C176.37 289.933 176.681 289.82 177.068 289.82C177.25 289.829 177.417 289.857 177.572 289.901C177.717 289.952 177.854 290.026 177.988 290.125C178.05 290.172 178.108 290.225 178.161 290.287C178.187 290.317 178.235 290.313 178.271 290.276L178.637 289.88C178.675 289.841 178.68 289.785 178.681 289.755C178.681 289.725 178.677 289.667 178.637 289.623C178.492 289.456 178.328 289.313 178.151 289.197C177.851 288.998 177.529 288.898 177.196 288.898C176.823 288.898 176.508 288.956 176.257 289.072C176.007 289.188 175.799 289.331 175.638 289.498C175.481 289.662 175.36 289.841 175.276 290.033C175.188 290.236 175.123 290.426 175.084 290.598C175.044 290.771 175.021 290.917 175.013 291.028C175.005 291.139 175 291.211 175 291.234C175 291.542 175.033 291.813 175.099 292.035C175.167 292.267 175.253 292.464 175.354 292.626C175.455 292.788 175.57 292.924 175.695 293.029C175.832 293.142 175.965 293.235 176.089 293.304C176.214 293.374 176.326 293.425 176.424 293.452C176.522 293.482 176.593 293.501 176.637 293.51C176.648 293.513 176.659 293.515 176.673 293.519C176.849 293.568 177.019 293.621 177.179 293.675C177.357 293.735 177.516 293.823 177.657 293.932C177.812 294.052 177.936 294.214 178.029 294.413C178.127 294.624 178.176 294.885 178.176 295.196C178.176 295.629 178.053 296.004 177.812 296.316C177.578 296.617 177.259 296.768 176.863 296.768C176.654 296.768 176.47 296.731 176.313 296.659C176.162 296.59 176.036 296.509 175.933 296.421C175.864 296.36 175.805 296.302 175.756 296.242L175.313 296.724C175.275 296.763 175.27 296.819 175.268 296.849C175.268 296.879 175.273 296.937 175.313 296.978C175.456 297.143 175.619 297.284 175.793 297.398Z" fill="#111111"/>
<path d="M202.977 297.034C203.012 297.098 203.072 297.106 203.097 297.106C203.122 297.106 203.182 297.098 203.217 297.032L203.584 296.328C203.605 296.287 203.605 296.241 203.584 296.202L200.314 289.961C200.291 289.916 200.245 289.887 200.195 289.887H199.402C199.332 289.887 199.297 289.933 199.286 289.953C199.274 289.972 199.249 290.027 199.282 290.087L202.977 297.034Z" fill="#111111"/>
<path d="M202.335 289.887C202.266 289.887 202.231 289.933 202.219 289.953C202.208 289.972 202.183 290.025 202.216 290.087L205.779 297.026C205.814 297.094 205.872 297.102 205.899 297.1C205.924 297.1 205.984 297.092 206.019 297.028L209.699 290.089C209.731 290.027 209.706 289.974 209.695 289.955C209.683 289.935 209.648 289.889 209.579 289.889H208.788C208.774 289.889 208.761 289.891 208.751 289.894L205.905 295.545L203.242 289.947C203.217 289.912 203.177 289.891 203.134 289.891H202.335V289.887Z" fill="#111111"/>
<path d="M233.943 295.597C234.039 295.533 234.084 295.443 234.084 295.321V291.268C234.084 291.146 234.039 291.056 233.943 290.992L230.781 288.948C230.728 288.915 230.679 288.898 230.634 288.898C230.613 288.898 230.566 288.904 230.48 288.952L227.34 290.992C227.237 291.059 227.191 291.146 227.191 291.268V295.321C227.191 295.446 227.237 295.531 227.34 295.597L230.487 297.641C230.559 297.691 230.619 297.703 230.709 297.681C230.728 297.676 230.749 297.664 230.772 297.647L233.943 295.597ZM230.634 296.801C230.555 296.801 230.478 296.776 230.406 296.728L228.08 295.217C227.933 295.122 227.856 294.974 227.856 294.794V291.795C227.856 291.615 227.933 291.467 228.08 291.372L230.41 289.859C230.602 289.753 230.719 289.77 230.86 289.859L233.201 291.372C233.344 291.469 233.42 291.615 233.42 291.795V294.794C233.42 294.974 233.344 295.12 233.203 295.215L230.86 296.728C230.828 296.755 230.783 296.776 230.74 296.786C230.698 296.797 230.666 296.801 230.634 296.801Z" fill="#111111"/>
<path d="M220.409 288.898H224.123C224.185 288.898 224.234 288.971 224.234 289.058V289.592C224.234 289.681 224.183 289.752 224.123 289.752H220.409C220.348 289.752 220.298 289.679 220.298 289.592V289.058C220.297 288.969 220.348 288.898 220.409 288.898ZM220.408 292.879H223.57C223.632 292.879 223.681 292.95 223.681 293.039V293.573C223.681 293.662 223.632 293.733 223.57 293.733H220.408C220.346 293.733 220.297 293.662 220.297 293.573V293.039C220.297 292.952 220.348 292.879 220.408 292.879ZM220.409 296.838H224.125C224.187 296.838 224.236 296.911 224.236 296.998V297.532C224.236 297.621 224.185 297.692 224.125 297.692H220.409C220.348 297.692 220.298 297.619 220.298 297.532V296.998C220.297 296.911 220.348 296.838 220.409 296.838Z" fill="#111111"/>
<line x1="230" y1="314" x2="230" y2="354" stroke="url(#paint1_linear_486_250101)" stroke-width="2"/>
<line x1="214" y1="314" x2="214" y2="354" stroke="url(#paint2_linear_486_250101)" stroke-width="2"/>
<rect x="232" y="318" width="12" height="4" transform="rotate(90 232 318)" fill="#3E1BDB"/>
<rect x="216" y="338" width="12" height="4" transform="rotate(90 216 338)" fill="#3E1BDB"/>
<path fill-rule="evenodd" clip-rule="evenodd" d="M184.315 370.09C179.16 370.751 174.937 374.609 173.664 379.82C173.39 380.944 173.309 381.697 173.297 383.257C173.286 384.712 173.285 384.722 173.109 385.125C172.863 385.685 172.428 386.093 171.637 386.504L171 386.835V388.168V389.502L172.68 388.614C173.604 388.125 175.533 387.104 176.967 386.345C178.4 385.586 183.248 383.025 187.738 380.653C192.229 378.281 196.963 375.78 198.259 375.094L200.614 373.847L200.631 372.537C200.64 371.817 200.626 371.227 200.6 371.228C200.573 371.228 194.958 374.184 188.121 377.796C181.285 381.409 175.675 384.347 175.654 384.326C175.633 384.304 175.616 383.682 175.616 382.943C175.616 381.782 175.636 381.503 175.763 380.892C176.445 377.591 178.457 374.897 181.325 373.442C184.12 372.025 187.375 372.009 190.25 373.4L190.857 373.694L192.022 373.09L193.187 372.486L192.881 372.257C190.589 370.548 187.278 369.71 184.315 370.09ZM215.312 373.443C212.807 373.801 210.915 375.105 210.283 376.907C209.896 378.01 209.98 379.447 210.491 380.493C210.998 381.533 211.994 382.392 213.341 382.952C213.986 383.221 214.527 383.371 216.065 383.711C218.196 384.182 219.064 384.485 219.786 385.011C220.57 385.581 220.889 386.212 220.889 387.191C220.888 388.641 220.074 389.61 218.449 390.098C218.001 390.232 217.823 390.247 216.756 390.243C215.402 390.237 214.941 390.147 214.108 389.72C213.045 389.176 212.203 387.983 211.922 386.622L211.886 386.443H210.661H209.437L209.478 386.72C209.613 387.64 210.095 388.867 210.617 389.625C211.948 391.557 214.31 392.593 217.101 392.47C219.106 392.381 220.768 391.748 221.937 390.627C222.621 389.972 223.102 389.158 223.329 388.274C223.496 387.627 223.51 386.415 223.359 385.769C223.122 384.757 222.393 383.711 221.493 383.091C220.527 382.426 219.428 382.023 217.07 381.469C216.206 381.266 215.259 381.027 214.966 380.937C213.862 380.6 213.109 380.038 212.78 379.306C212.636 378.985 212.612 378.847 212.611 378.315C212.61 377.785 212.633 377.647 212.773 377.34C213.089 376.642 213.914 376.035 214.934 375.746C215.451 375.6 216.731 375.546 217.326 375.646C218.975 375.921 220.172 376.818 220.649 378.136L220.761 378.445H221.946C223.294 378.445 223.21 378.491 223.03 377.855C222.514 376.032 221.293 374.654 219.584 373.962C218.664 373.59 217.882 373.438 216.724 373.407C216.189 373.392 215.553 373.409 215.312 373.443ZM245.05 382.932V392.166H246.15H247.249V382.932V373.698H246.15H245.05V382.932ZM249.51 382.932V392.166H250.609H251.708V382.932V373.698H250.609H249.51V382.932ZM226.063 375.041C226.039 375.065 226.02 375.841 226.02 376.765V378.445H224.983H223.947V379.388V380.331H224.979H226.011L226.037 385.159C226.058 389.283 226.077 390.05 226.162 390.419C226.296 391 226.466 391.325 226.78 391.604C227.265 392.034 227.925 392.163 229.649 392.165L230.796 392.166L230.779 391.207L230.762 390.248L229.808 390.215C228.969 390.186 228.834 390.166 228.678 390.047C228.299 389.756 228.314 389.954 228.295 384.933L228.278 380.334L229.52 380.316L230.762 380.298V379.388V378.478L229.522 378.46L228.283 378.442L228.266 376.737L228.249 375.031L227.178 375.013C226.588 375.004 226.087 375.016 226.063 375.041ZM185.823 384.316L171.031 392.133L171.014 393.45C171.005 394.174 171.015 394.767 171.037 394.767C171.06 394.767 172.537 393.995 174.32 393.051C189.903 384.809 195.954 381.629 195.988 381.665C196.011 381.688 196.029 382.312 196.029 383.051C196.029 384.212 196.009 384.491 195.883 385.102C195.2 388.403 193.189 391.097 190.32 392.552C187.522 393.971 184.292 393.985 181.389 392.592L180.767 392.293L179.615 392.903L178.464 393.512L178.767 393.739C179.584 394.347 180.813 394.976 181.925 395.353C187.325 397.183 193.189 395.039 196.328 390.085C197.731 387.872 198.498 384.952 198.352 382.379C198.266 380.876 198.623 380.237 199.949 379.521L200.645 379.145V377.82C200.645 377.091 200.638 376.495 200.63 376.497C200.621 376.498 193.958 380.017 185.823 384.316ZM258.035 378.283C255.684 378.745 254.125 380.327 253.822 382.558L253.789 382.802H254.934H256.079L256.148 382.383C256.407 380.823 257.614 379.973 259.402 380.091C260.705 380.177 261.511 380.776 261.889 381.939C262.001 382.281 262.033 382.531 262.036 383.062L262.04 383.745L261.852 383.763C261.243 383.821 259.223 384.132 258.554 384.271C256.285 384.739 254.999 385.302 254.121 386.211C253.443 386.913 253.22 387.492 253.217 388.559C253.214 389.648 253.498 390.378 254.219 391.133C255.077 392.032 256.288 392.491 257.8 392.49C259.668 392.49 261.099 391.875 261.92 390.72L262.189 390.342L262.222 390.62C262.24 390.773 262.271 391.088 262.291 391.32C262.311 391.553 262.344 391.838 262.364 391.954L262.399 392.166H263.527C264.575 392.166 264.653 392.158 264.62 392.052C264.527 391.749 264.386 390.392 264.332 389.277C264.299 388.595 264.289 387.012 264.31 385.761C264.336 384.235 264.325 383.245 264.276 382.759C264.017 380.147 262.968 378.823 260.78 378.347C260.082 378.195 258.653 378.162 258.035 378.283ZM236.477 378.297C236.104 378.35 235.282 378.588 234.91 378.75C232.95 379.601 231.645 381.366 231.19 383.777C231.063 384.451 231.048 386.062 231.163 386.769C231.415 388.316 231.963 389.555 232.822 390.515C234.35 392.224 236.857 392.892 239.335 392.252C241.111 391.794 242.598 390.468 243.225 388.784C243.331 388.5 243.417 388.253 243.417 388.234C243.417 388.215 242.902 388.2 242.271 388.201L241.125 388.203L240.905 388.6C240.452 389.419 239.819 389.964 239.025 390.22C236.699 390.968 234.398 389.829 233.707 387.586C233.618 387.298 233.53 386.834 233.511 386.557L233.476 386.053H238.541H243.606V385.395C243.606 383.721 243.149 382.081 242.331 380.819C241.973 380.265 241.135 379.434 240.621 379.122C239.616 378.513 238.627 378.246 237.419 378.261C237.005 378.266 236.581 378.282 236.477 378.297ZM271.722 378.448C271.189 378.541 270.594 378.759 270.182 379.012C269.717 379.298 269.089 379.961 268.805 380.466L268.606 380.819L268.605 379.632L268.603 378.445H267.536H266.468V385.305V392.166H267.563H268.659L268.684 387.923C268.705 384.4 268.726 383.611 268.805 383.274C269.055 382.222 269.392 381.643 269.988 381.244C270.523 380.887 270.853 380.818 272.011 380.823L273 380.827V379.604V378.38L272.513 378.388C272.245 378.392 271.89 378.419 271.722 378.448ZM238.502 380.37C239.391 380.61 240.315 381.383 240.765 382.262C240.985 382.691 241.219 383.528 241.219 383.885V384.102H237.349H233.479L233.524 383.731C233.756 381.811 234.975 380.529 236.823 380.261C237.263 380.197 238.051 380.248 238.502 380.37ZM262.241 386.557C262.199 387.628 262.118 388.009 261.784 388.71C261.226 389.88 260.127 390.533 258.531 390.643C257.239 390.733 256.222 390.256 255.832 389.379C255.728 389.146 255.697 388.95 255.697 388.524C255.696 388.038 255.717 387.935 255.869 387.668C256.416 386.703 257.872 386.134 260.815 385.734C261.316 385.666 261.85 385.608 262.002 385.604L262.278 385.598L262.241 386.557Z" fill="#111111"/>
<defs>
<linearGradient id="paint0_linear_486_250101" x1="93.0217" y1="111.5" x2="414.726" y2="379.89" gradientUnits="userSpaceOnUse">
<stop stop-color="#111111" stop-opacity="0"/>
<stop offset="0.547979" stop-color="#111111"/>
<stop offset="1" stop-color="#111111" stop-opacity="0"/>
</linearGradient>
<linearGradient id="paint1_linear_486_250101" x1="229" y1="354" x2="229" y2="314" gradientUnits="userSpaceOnUse">
<stop stop-opacity="0"/>
<stop offset="1"/>
</linearGradient>
<linearGradient id="paint2_linear_486_250101" x1="213" y1="354" x2="213" y2="314" gradientUnits="userSpaceOnUse">
<stop/>
<stop offset="1" stop-opacity="0"/>
</linearGradient>
</defs>
</svg>
