<svg width="336" height="468" viewBox="0 0 336 468" fill="none" xmlns="http://www.w3.org/2000/svg">
<rect x="0.5" y="0.5" width="335" height="467" rx="11.5" fill="white" stroke="#111111"/>
<path d="M24.312 66.2H38.208V69.44H33.048V83H29.472V69.44H24.312V66.2ZM39.9473 66.2H43.2833V72.536C44.2753 71.608 45.4273 71.144 46.7393 71.144C48.2113 71.144 49.3553 71.592 50.1713 72.488C51.0033 73.368 51.4193 74.496 51.4193 75.872V83H48.0833V76.304C48.0833 75.552 47.8753 74.984 47.4593 74.6C47.0593 74.216 46.5233 74.024 45.8513 74.024C44.8113 74.024 43.9553 74.512 43.2833 75.488V83H39.9473V66.2ZM57.4635 83H54.1275V71.48H57.4635V83ZM57.7515 67.664C57.7515 68.288 57.5675 68.76 57.1995 69.08C56.8315 69.4 56.3595 69.56 55.7835 69.56C55.2235 69.56 54.7595 69.4 54.3915 69.08C54.0235 68.76 53.8395 68.288 53.8395 67.664C53.8395 67.056 54.0235 66.592 54.3915 66.272C54.7595 65.952 55.2235 65.792 55.7835 65.792C56.3435 65.792 56.8075 65.952 57.1755 66.272C57.5595 66.592 57.7515 67.056 57.7515 67.664ZM59.8339 74.696C59.8339 73.464 60.2899 72.568 61.2019 72.008C62.1139 71.432 63.2579 71.144 64.6339 71.144C66.1219 71.144 67.5379 71.472 68.8819 72.128V74.864C68.3859 74.528 67.7539 74.248 66.9859 74.024C66.2339 73.8 65.5219 73.688 64.8499 73.688C63.7779 73.688 63.2419 73.992 63.2419 74.6C63.2419 74.952 63.4659 75.24 63.9139 75.464C64.3619 75.688 64.9059 75.888 65.5459 76.064C66.1859 76.224 66.8179 76.424 67.4419 76.664C68.0819 76.904 68.6259 77.288 69.0739 77.816C69.5219 78.344 69.7459 79 69.7459 79.784C69.7459 80.648 69.4899 81.352 68.9779 81.896C68.4819 82.44 67.8579 82.816 67.1059 83.024C66.3699 83.232 65.5059 83.336 64.5139 83.336C62.6739 83.336 61.1459 82.976 59.9299 82.256V79.496C61.1779 80.312 62.6419 80.72 64.3219 80.72C65.6659 80.72 66.3379 80.432 66.3379 79.856C66.3379 79.52 66.1139 79.24 65.6659 79.016C65.2179 78.792 64.6739 78.592 64.0339 78.416C63.4099 78.24 62.7779 78.032 62.1379 77.792C61.4979 77.536 60.9539 77.152 60.5059 76.64C60.0579 76.112 59.8339 75.464 59.8339 74.696ZM90.9326 71.48H94.4606L90.7646 83H87.2366L84.9566 75.488L82.6766 83H79.1246L75.4286 71.48H78.9806L81.0686 79.376L83.3726 71.48H86.5406L88.8206 79.376L90.9326 71.48ZM95.2211 77.24C95.2211 76.2 95.4051 75.28 95.7731 74.48C96.1411 73.664 96.6211 73.024 97.2131 72.56C97.8211 72.096 98.4531 71.744 99.1091 71.504C99.7811 71.264 100.461 71.144 101.149 71.144C102.301 71.144 103.293 71.36 104.125 71.792C104.973 72.224 105.597 72.784 105.997 73.472C106.397 74.144 106.669 74.912 106.813 75.776C106.973 76.624 106.933 77.472 106.693 78.32H98.5811C98.7571 79.12 99.2211 79.72 99.9731 80.12C100.725 80.504 101.613 80.696 102.637 80.696C103.901 80.696 105.061 80.464 106.117 80V82.616C104.981 83.096 103.573 83.336 101.893 83.336C99.9731 83.336 98.3811 82.8 97.1171 81.728C95.8531 80.656 95.2211 79.16 95.2211 77.24ZM103.693 76.16C103.773 75.632 103.621 75.088 103.237 74.528C102.853 73.968 102.197 73.688 101.269 73.688C100.533 73.688 99.9011 73.912 99.3731 74.36C98.8451 74.792 98.5731 75.392 98.5571 76.16H103.693ZM108.346 77.24C108.346 76.2 108.53 75.28 108.898 74.48C109.266 73.664 109.746 73.024 110.338 72.56C110.946 72.096 111.578 71.744 112.234 71.504C112.906 71.264 113.586 71.144 114.274 71.144C115.426 71.144 116.418 71.36 117.25 71.792C118.098 72.224 118.722 72.784 119.122 73.472C119.522 74.144 119.794 74.912 119.938 75.776C120.098 76.624 120.058 77.472 119.818 78.32H111.706C111.882 79.12 112.346 79.72 113.098 80.12C113.85 80.504 114.738 80.696 115.762 80.696C117.026 80.696 118.186 80.464 119.242 80V82.616C118.106 83.096 116.698 83.336 115.018 83.336C113.098 83.336 111.506 82.8 110.242 81.728C108.978 80.656 108.346 79.16 108.346 77.24ZM116.818 76.16C116.898 75.632 116.746 75.088 116.362 74.528C115.978 73.968 115.322 73.688 114.394 73.688C113.658 73.688 113.026 73.912 112.498 74.36C111.97 74.792 111.698 75.392 111.682 76.16H116.818ZM133.855 83H130.111L126.799 78.44H125.455V83H122.119V66.2H125.455V75.776H126.847L129.775 71.48H133.519L129.559 77.168L133.855 83Z" fill="#111111"/>
<rect x="24.5" y="107.5" width="287" height="192" rx="6.5" fill="white" stroke="#111111"/>
<rect x="24.5" y="316.5" width="287" height="71" rx="6.5" fill="white" stroke="#111111"/>
<rect x="24.5" y="404.5" width="287" height="39" rx="6.5" fill="white" stroke="#111111"/>
<rect x="247" y="354" width="48" height="8" fill="#FAFF00"/>
<rect x="96" y="354" width="80" height="8" fill="#FAFF00"/>
<rect x="32" y="412" width="272" height="24" rx="7" fill="#E4F0FB"/>
<rect x="35" y="415" width="87" height="18" rx="6" fill="white"/>
<rect x="230" y="420" width="56" height="8" fill="#B4D2F8"/>
<rect x="140" y="420" width="56" height="8" fill="#B4D2F8"/>
<rect x="51" y="420" width="56" height="8" fill="#B4D2F8"/>
<path d="M40 35.9923L40 33.9923L27.7903 33.9923L32.4583 29.3692L31.0602 28L24 34.9923L31.0602 42L32.4583 40.6L27.7903 35.9923L40 35.9923Z" fill="#111111"/>
<path d="M40.196 156.2H48.274V157.67H45.04V166H43.444V157.67H40.196V156.2ZM48.389 165.244C47.6796 164.619 47.325 163.751 47.325 162.64C47.325 161.529 47.6796 160.661 48.389 160.036C49.1076 159.411 49.9663 159.098 50.965 159.098C51.973 159.098 52.8316 159.411 53.541 160.036C54.2503 160.661 54.605 161.529 54.605 162.64C54.605 163.751 54.2503 164.619 53.541 165.244C52.8316 165.869 51.973 166.182 50.965 166.182C49.9663 166.182 49.1076 165.869 48.389 165.244ZM52.491 164.222C52.883 163.821 53.079 163.293 53.079 162.64C53.079 161.987 52.883 161.464 52.491 161.072C52.099 160.671 51.5903 160.47 50.965 160.47C50.3303 160.47 49.817 160.671 49.425 161.072C49.033 161.464 48.837 161.987 48.837 162.64C48.837 163.293 49.033 163.821 49.425 164.222C49.817 164.614 50.3303 164.81 50.965 164.81C51.5903 164.81 52.099 164.614 52.491 164.222ZM56.3817 157.25L57.8657 156.886V159.28H60.3018V160.596H57.8657V163.676C57.8657 164.105 57.9637 164.409 58.1597 164.586C58.3651 164.763 58.6917 164.852 59.1398 164.852C59.5971 164.852 60.0497 164.763 60.4978 164.586V165.874C59.9564 166.07 59.3544 166.168 58.6917 166.168C58.0011 166.168 57.4411 165.986 57.0117 165.622C56.5917 165.258 56.3817 164.703 56.3817 163.956V160.596H55.1777V159.28H56.3817V157.25ZM67.372 164.446C67.372 164.773 67.5353 164.936 67.862 164.936C67.974 164.936 68.1233 164.908 68.31 164.852V165.93C68.03 166.042 67.7126 166.098 67.358 166.098C66.686 166.098 66.238 165.837 66.014 165.314C65.2953 165.893 64.4506 166.182 63.48 166.182C62.8266 166.182 62.2713 166.005 61.814 165.65C61.3566 165.286 61.128 164.777 61.128 164.124C61.128 163.34 61.422 162.771 62.01 162.416C62.598 162.052 63.3026 161.87 64.124 161.87C64.6653 161.87 65.2486 161.935 65.874 162.066V161.828C65.874 161.399 65.72 161.053 65.412 160.792C65.104 160.531 64.67 160.4 64.11 160.4C63.2793 160.4 62.472 160.573 61.688 160.918V159.546C62.5653 159.247 63.424 159.098 64.264 159.098C65.244 159.098 66.0046 159.341 66.546 159.826C67.0966 160.311 67.372 161.049 67.372 162.038V164.446ZM64.418 162.92C63.9233 162.92 63.508 163.009 63.172 163.186C62.836 163.363 62.668 163.643 62.668 164.026C62.668 164.343 62.7893 164.591 63.032 164.768C63.2746 164.936 63.5733 165.02 63.928 165.02C64.6933 165.02 65.342 164.754 65.874 164.222V163.088C65.3326 162.976 64.8473 162.92 64.418 162.92ZM69.3012 155.78H70.7992V166H69.3012V155.78ZM75.5235 161.1C75.5235 160.419 75.7801 159.915 76.2935 159.588C76.8161 159.261 77.4508 159.098 78.1975 159.098C79.0655 159.098 79.8728 159.289 80.6195 159.672V160.988C80.3395 160.801 79.9801 160.647 79.5415 160.526C79.1028 160.395 78.6875 160.33 78.2955 160.33C77.9501 160.33 77.6561 160.391 77.4135 160.512C77.1708 160.624 77.0495 160.806 77.0495 161.058C77.0495 161.291 77.1895 161.487 77.4695 161.646C77.7495 161.795 78.0855 161.926 78.4775 162.038C78.8788 162.141 79.2755 162.267 79.6675 162.416C80.0595 162.556 80.3955 162.775 80.6755 163.074C80.9555 163.373 81.0955 163.751 81.0955 164.208C81.0955 164.899 80.8248 165.403 80.2835 165.72C79.7421 166.028 79.0468 166.182 78.1975 166.182C77.1428 166.182 76.2655 165.967 75.5655 165.538V164.208C76.2841 164.684 77.1381 164.922 78.1275 164.922C79.0981 164.922 79.5835 164.693 79.5835 164.236C79.5835 164.012 79.4435 163.825 79.1635 163.676C78.8835 163.517 78.5428 163.387 78.1415 163.284C77.7495 163.172 77.3528 163.046 76.9515 162.906C76.5595 162.757 76.2235 162.533 75.9435 162.234C75.6635 161.926 75.5235 161.548 75.5235 161.1ZM83.7096 160.33C84.391 159.509 85.2543 159.098 86.2996 159.098C87.289 159.098 88.0916 159.443 88.7076 160.134C89.3236 160.815 89.6316 161.651 89.6316 162.64C89.6316 163.629 89.3236 164.469 88.7076 165.16C88.0916 165.841 87.289 166.182 86.2996 166.182C85.2916 166.182 84.4843 165.832 83.8776 165.132V169.08H82.3796V159.28H83.7096V160.33ZM87.5176 164.25C87.9096 163.83 88.1056 163.293 88.1056 162.64C88.1056 161.987 87.9096 161.455 87.5176 161.044C87.1256 160.624 86.6263 160.414 86.0196 160.414C85.525 160.414 85.0863 160.549 84.7036 160.82C84.3303 161.091 84.055 161.422 83.8776 161.814V163.452C84.055 163.853 84.3303 164.189 84.7036 164.46C85.0863 164.731 85.525 164.866 86.0196 164.866C86.6263 164.866 87.1256 164.661 87.5176 164.25ZM90.5986 162.64C90.5986 162.061 90.7013 161.539 90.9066 161.072C91.112 160.596 91.3826 160.223 91.7186 159.952C92.0546 159.672 92.4186 159.462 92.8106 159.322C93.2026 159.173 93.5993 159.098 94.0006 159.098C94.514 159.098 94.976 159.177 95.3866 159.336C95.8066 159.495 96.1426 159.709 96.3946 159.98C96.6466 160.251 96.852 160.563 97.0106 160.918C97.1693 161.273 97.2533 161.646 97.2626 162.038C97.272 162.421 97.2393 162.808 97.1646 163.2H92.1106C92.1853 163.769 92.4653 164.199 92.9506 164.488C93.436 164.768 94.0146 164.908 94.6866 164.908C95.452 164.908 96.1613 164.749 96.8146 164.432V165.72C96.1706 166.028 95.368 166.182 94.4066 166.182C93.3146 166.182 92.4046 165.874 91.6766 165.258C90.958 164.642 90.5986 163.769 90.5986 162.64ZM95.8206 162.08C95.8766 161.697 95.76 161.315 95.4706 160.932C95.1906 160.54 94.724 160.344 94.0706 160.344C93.5386 160.344 93.0813 160.498 92.6986 160.806C92.3253 161.114 92.1246 161.539 92.0966 162.08H95.8206ZM99.9485 160.204C100.565 159.467 101.344 159.098 102.287 159.098C103.127 159.098 103.799 159.355 104.303 159.868C104.807 160.372 105.059 161.03 105.059 161.842V166H103.561V162.038C103.561 161.515 103.416 161.119 103.127 160.848C102.837 160.568 102.459 160.428 101.993 160.428C101.255 160.428 100.63 160.801 100.117 161.548V166H98.6185V159.28H99.9485V160.204ZM112.113 156.2H113.611V166H112.267V164.936C111.614 165.767 110.755 166.182 109.691 166.182C108.702 166.182 107.899 165.841 107.283 165.16C106.667 164.469 106.359 163.629 106.359 162.64C106.359 161.651 106.667 160.815 107.283 160.134C107.899 159.443 108.702 159.098 109.691 159.098C110.699 159.098 111.506 159.448 112.113 160.148V156.2ZM112.099 161.814C111.922 161.422 111.642 161.091 111.259 160.82C110.886 160.549 110.452 160.414 109.957 160.414C109.35 160.414 108.851 160.624 108.459 161.044C108.067 161.455 107.871 161.987 107.871 162.64C107.871 163.293 108.067 163.83 108.459 164.25C108.851 164.661 109.35 164.866 109.957 164.866C110.452 164.866 110.886 164.731 111.259 164.46C111.642 164.189 111.922 163.853 112.099 163.452V161.814Z" fill="#888888"/>
<path d="M248.937 344.82H247.705V343.154C246.623 343.033 245.689 342.757 244.905 342.328V340.76C245.913 341.404 247.066 341.726 248.363 341.726C249.773 341.726 250.477 341.32 250.477 340.508C250.477 340.153 250.337 339.859 250.057 339.626C249.787 339.383 249.446 339.206 249.035 339.094C248.634 338.982 248.191 338.847 247.705 338.688C247.229 338.529 246.786 338.361 246.375 338.184C245.974 338.007 245.633 337.731 245.353 337.358C245.083 336.975 244.947 336.513 244.947 335.972C244.947 335.207 245.199 334.6 245.703 334.152C246.217 333.704 246.884 333.433 247.705 333.34V331.66H248.937V333.326C249.955 333.401 250.799 333.639 251.471 334.04V335.566C250.641 335.006 249.661 334.735 248.531 334.754C247.225 334.754 246.571 335.151 246.571 335.944C246.571 336.271 246.707 336.546 246.977 336.77C247.257 336.994 247.598 337.162 247.999 337.274C248.41 337.377 248.853 337.507 249.329 337.666C249.815 337.825 250.258 337.997 250.659 338.184C251.07 338.361 251.411 338.641 251.681 339.024C251.961 339.407 252.101 339.873 252.101 340.424C252.101 341.311 251.812 341.978 251.233 342.426C250.655 342.865 249.889 343.112 248.937 343.168V344.82ZM257.908 333.48H259.546V339.668H261.184V341.054H259.546V343H258.006V341.054H252.84V339.696L257.908 333.48ZM258.006 339.668V335.51L254.618 339.668H258.006ZM262.814 333.48H268.68V334.908H264.284L264.144 337.204C264.601 337.092 265.082 337.036 265.586 337.036C266.603 337.036 267.448 337.283 268.12 337.778C268.792 338.263 269.128 339.029 269.128 340.074C269.128 341.063 268.759 341.829 268.022 342.37C267.294 342.911 266.379 343.182 265.278 343.182C264.13 343.182 263.112 342.967 262.226 342.538V341.04C263.028 341.507 263.985 341.74 265.096 341.74C265.824 341.74 266.407 341.595 266.846 341.306C267.294 341.017 267.518 340.601 267.518 340.06C267.518 338.921 266.654 338.352 264.928 338.352C264.125 338.352 263.318 338.492 262.506 338.772L262.814 333.48ZM273.836 332.78H275.334V343H273.836V332.78ZM276.75 339.64C276.75 339.061 276.852 338.539 277.058 338.072C277.263 337.596 277.534 337.223 277.87 336.952C278.206 336.672 278.57 336.462 278.962 336.322C279.354 336.173 279.75 336.098 280.152 336.098C280.665 336.098 281.127 336.177 281.538 336.336C281.958 336.495 282.294 336.709 282.546 336.98C282.798 337.251 283.003 337.563 283.162 337.918C283.32 338.273 283.404 338.646 283.414 339.038C283.423 339.421 283.39 339.808 283.316 340.2H278.262C278.336 340.769 278.616 341.199 279.102 341.488C279.587 341.768 280.166 341.908 280.838 341.908C281.603 341.908 282.312 341.749 282.966 341.432V342.72C282.322 343.028 281.519 343.182 280.558 343.182C279.466 343.182 278.556 342.874 277.828 342.258C277.109 341.642 276.75 340.769 276.75 339.64ZM281.972 339.08C282.028 338.697 281.911 338.315 281.622 337.932C281.342 337.54 280.875 337.344 280.222 337.344C279.69 337.344 279.232 337.498 278.85 337.806C278.476 338.114 278.276 338.539 278.248 339.08H281.972ZM286.801 343H285.303V337.596H284.085V336.28H285.303V335.538C285.303 334.642 285.541 333.998 286.017 333.606C286.502 333.214 287.1 333.018 287.809 333.018C288.378 333.018 288.934 333.116 289.475 333.312V334.628C289.083 334.432 288.649 334.334 288.173 334.334C287.753 334.334 287.417 334.423 287.165 334.6C286.922 334.777 286.801 335.109 286.801 335.594V336.28H289.097V337.596H286.801V343ZM290.604 334.25L292.088 333.886V336.28H294.524V337.596H292.088V340.676C292.088 341.105 292.186 341.409 292.382 341.586C292.587 341.763 292.914 341.852 293.362 341.852C293.819 341.852 294.272 341.763 294.72 341.586V342.874C294.178 343.07 293.576 343.168 292.914 343.168C292.223 343.168 291.663 342.986 291.234 342.622C290.814 342.258 290.604 341.703 290.604 340.956V337.596H289.4V336.28H290.604V334.25Z" fill="#111111"/>
<path d="M97.19 333.2H101.334C102.379 333.2 103.201 333.41 103.798 333.83C104.395 334.25 104.694 334.866 104.694 335.678C104.694 336.238 104.549 336.705 104.26 337.078C103.971 337.442 103.602 337.694 103.154 337.834C103.686 337.983 104.139 338.259 104.512 338.66C104.895 339.052 105.086 339.593 105.086 340.284C105.086 340.807 104.969 341.259 104.736 341.642C104.503 342.015 104.19 342.295 103.798 342.482C103.406 342.669 103.009 342.804 102.608 342.888C102.216 342.963 101.801 343 101.362 343H97.19V333.2ZM103.462 340.116C103.462 339.117 102.785 338.618 101.432 338.618H98.786V341.6H101.208C101.535 341.6 101.81 341.586 102.034 341.558C102.258 341.53 102.487 341.469 102.72 341.376C102.963 341.283 103.145 341.133 103.266 340.928C103.397 340.713 103.462 340.443 103.462 340.116ZM103.07 335.93C103.07 335.034 102.435 334.586 101.166 334.586H98.786V337.26L101.39 337.274C101.885 337.274 102.286 337.162 102.594 336.938C102.911 336.714 103.07 336.378 103.07 335.93ZM111.338 336.28H112.836V343H111.506V342.076C110.89 342.813 110.11 343.182 109.168 343.182C108.3 343.182 107.618 342.93 107.124 342.426C106.638 341.922 106.396 341.259 106.396 340.438V336.28H107.894V340.242C107.894 341.315 108.416 341.852 109.462 341.852C110.199 341.852 110.824 341.479 111.338 340.732V336.28ZM119.974 333.2H121.472V343H120.128V341.936C119.474 342.767 118.616 343.182 117.552 343.182C116.562 343.182 115.76 342.841 115.144 342.16C114.528 341.469 114.22 340.629 114.22 339.64C114.22 338.651 114.528 337.815 115.144 337.134C115.76 336.443 116.562 336.098 117.552 336.098C118.56 336.098 119.367 336.448 119.974 337.148V333.2ZM119.96 338.814C119.782 338.422 119.502 338.091 119.12 337.82C118.746 337.549 118.312 337.414 117.818 337.414C117.211 337.414 116.712 337.624 116.32 338.044C115.928 338.455 115.732 338.987 115.732 339.64C115.732 340.293 115.928 340.83 116.32 341.25C116.712 341.661 117.211 341.866 117.818 341.866C118.312 341.866 118.746 341.731 119.12 341.46C119.502 341.189 119.782 340.853 119.96 340.452V338.814ZM123.783 342.16C123.167 341.469 122.859 340.629 122.859 339.64C122.859 338.651 123.167 337.815 123.783 337.134C124.399 336.443 125.201 336.098 126.191 336.098C127.245 336.098 128.104 336.509 128.767 337.33V336.28H130.111V342.916C130.111 344.045 129.747 344.885 129.019 345.436C128.3 345.987 127.409 346.262 126.345 346.262C125.318 346.262 124.394 346.052 123.573 345.632V344.26C124.357 344.717 125.215 344.946 126.149 344.946C127.791 344.946 128.613 344.283 128.613 342.958V342.104C128.006 342.823 127.199 343.182 126.191 343.182C125.201 343.182 124.399 342.841 123.783 342.16ZM128.599 338.814C128.421 338.422 128.141 338.091 127.759 337.82C127.385 337.549 126.951 337.414 126.457 337.414C125.85 337.414 125.351 337.624 124.959 338.044C124.567 338.455 124.371 338.987 124.371 339.64C124.371 340.293 124.567 340.83 124.959 341.25C125.351 341.661 125.85 341.866 126.457 341.866C126.951 341.866 127.385 341.74 127.759 341.488C128.141 341.236 128.421 340.923 128.599 340.55V338.814ZM131.498 339.64C131.498 339.061 131.6 338.539 131.806 338.072C132.011 337.596 132.282 337.223 132.618 336.952C132.954 336.672 133.318 336.462 133.71 336.322C134.102 336.173 134.498 336.098 134.9 336.098C135.413 336.098 135.875 336.177 136.286 336.336C136.706 336.495 137.042 336.709 137.294 336.98C137.546 337.251 137.751 337.563 137.91 337.918C138.068 338.273 138.152 338.646 138.162 339.038C138.171 339.421 138.138 339.808 138.064 340.2H133.01C133.084 340.769 133.364 341.199 133.85 341.488C134.335 341.768 134.914 341.908 135.586 341.908C136.351 341.908 137.06 341.749 137.714 341.432V342.72C137.07 343.028 136.267 343.182 135.306 343.182C134.214 343.182 133.304 342.874 132.576 342.258C131.857 341.642 131.498 340.769 131.498 339.64ZM136.72 339.08C136.776 338.697 136.659 338.315 136.37 337.932C136.09 337.54 135.623 337.344 134.97 337.344C134.438 337.344 133.98 337.498 133.598 337.806C133.224 338.114 133.024 338.539 132.996 339.08H136.72ZM140.008 334.25L141.492 333.886V336.28H143.928V337.596H141.492V340.676C141.492 341.105 141.59 341.409 141.786 341.586C141.991 341.763 142.318 341.852 142.766 341.852C143.223 341.852 143.676 341.763 144.124 341.586V342.874C143.582 343.07 142.98 343.168 142.318 343.168C141.627 343.168 141.067 342.986 140.638 342.622C140.218 342.258 140.008 341.703 140.008 340.956V337.596H138.804V336.28H140.008V334.25Z" fill="#111111"/>
<path d="M138.676 167.82H137.444V166.154C136.361 166.033 135.428 165.757 134.644 165.328V163.76C135.652 164.404 136.805 164.726 138.102 164.726C139.511 164.726 140.216 164.32 140.216 163.508C140.216 163.153 140.076 162.859 139.796 162.626C139.525 162.383 139.185 162.206 138.774 162.094C138.373 161.982 137.929 161.847 137.444 161.688C136.968 161.529 136.525 161.361 136.114 161.184C135.713 161.007 135.372 160.731 135.092 160.358C134.821 159.975 134.686 159.513 134.686 158.972C134.686 158.207 134.938 157.6 135.442 157.152C135.955 156.704 136.623 156.433 137.444 156.34V154.66H138.676V156.326C139.693 156.401 140.538 156.639 141.21 157.04V158.566C140.379 158.006 139.399 157.735 138.27 157.754C136.963 157.754 136.31 158.151 136.31 158.944C136.31 159.271 136.445 159.546 136.716 159.77C136.996 159.994 137.337 160.162 137.738 160.274C138.149 160.377 138.592 160.507 139.068 160.666C139.553 160.825 139.997 160.997 140.398 161.184C140.809 161.361 141.149 161.641 141.42 162.024C141.7 162.407 141.84 162.873 141.84 163.424C141.84 164.311 141.551 164.978 140.972 165.426C140.393 165.865 139.628 166.112 138.676 166.168V167.82ZM142.607 156.48H149.677V157.74L145.729 166H144.007L147.871 157.908H142.607V156.48ZM151.171 156.48H157.037V157.908H152.641L152.501 160.204C152.959 160.092 153.439 160.036 153.943 160.036C154.961 160.036 155.805 160.283 156.477 160.778C157.149 161.263 157.485 162.029 157.485 163.074C157.485 164.063 157.117 164.829 156.379 165.37C155.651 165.911 154.737 166.182 153.635 166.182C152.487 166.182 151.47 165.967 150.583 165.538V164.04C151.386 164.507 152.343 164.74 153.453 164.74C154.181 164.74 154.765 164.595 155.203 164.306C155.651 164.017 155.875 163.601 155.875 163.06C155.875 161.921 155.012 161.352 153.285 161.352C152.483 161.352 151.675 161.492 150.863 161.772L151.171 156.48Z" fill="#3E1BDB"/>
<path d="M126.418 159.505L126.418 159.505C126.363 159.517 126.314 159.54 126.253 159.599L126.253 159.599L126.191 159.659L124.882 161.827L124.882 161.827C124.513 162.439 124.175 163.001 123.926 163.415C123.748 163.711 123.625 163.917 123.566 164.015C123.544 164.052 123.531 164.074 123.527 164.08C123.526 164.082 123.525 164.085 123.523 164.089C123.519 164.101 123.515 164.116 123.511 164.134C123.507 164.151 123.503 164.167 123.502 164.18C123.501 164.187 123.5 164.191 123.5 164.193C123.5 164.198 123.502 164.218 123.511 164.251C123.52 164.287 123.532 164.318 123.543 164.338C123.544 164.34 123.547 164.345 123.553 164.353C123.564 164.366 123.579 164.382 123.597 164.399C123.615 164.416 123.633 164.431 123.65 164.443C123.658 164.449 123.665 164.453 123.67 164.456L123.677 164.46L123.678 164.461L126.418 159.505ZM126.418 159.505C126.464 159.495 126.565 159.5 126.624 159.52L126.624 159.52C126.674 159.538 126.728 159.575 126.758 159.604L126.772 159.626C126.793 159.66 126.824 159.71 126.864 159.773C126.942 159.9 127.051 160.078 127.181 160.291C127.441 160.717 127.784 161.279 128.126 161.843C128.468 162.407 128.809 162.971 129.067 163.401C129.197 163.615 129.305 163.796 129.382 163.925C129.421 163.99 129.451 164.041 129.472 164.077C129.477 164.086 129.481 164.093 129.484 164.098C129.488 164.111 129.491 164.125 129.494 164.135C129.519 164.249 129.464 164.408 129.262 164.485C129.26 164.485 129.259 164.485 129.257 164.485C129.207 164.488 129.112 164.49 128.926 164.492C128.557 164.495 127.866 164.497 126.538 164.498C126.357 164.498 126.187 164.499 126.028 164.499C124.831 164.501 124.245 164.501 123.937 164.493C123.851 164.491 123.794 164.488 123.755 164.485C123.74 164.483 123.729 164.482 123.721 164.481C123.712 164.477 123.699 164.47 123.679 164.461L126.418 159.505ZM126.746 159.585C126.744 159.582 126.743 159.58 126.743 159.58C126.743 159.58 126.744 159.581 126.746 159.585Z" fill="#3E1BDB" stroke="#3E1BDB"/>
<path d="M48.448 145.12H45.832V142.264C43.992 142.088 42.384 141.608 41.008 140.824V137.392C42.8 138.576 44.808 139.168 47.032 139.168C48.056 139.168 48.816 139.048 49.312 138.808C49.824 138.552 50.08 138.136 50.08 137.56C50.08 137.144 49.912 136.784 49.576 136.48C49.256 136.176 48.832 135.936 48.304 135.76C47.776 135.568 47.192 135.384 46.552 135.208C45.912 135.016 45.272 134.8 44.632 134.56C43.992 134.304 43.408 134.008 42.88 133.672C42.352 133.32 41.92 132.84 41.584 132.232C41.264 131.624 41.104 130.92 41.104 130.12C41.104 128.76 41.536 127.688 42.4 126.904C43.264 126.104 44.408 125.608 45.832 125.416V122.56H48.448V125.44C50.144 125.6 51.56 126 52.696 126.64V130C51.272 128.976 49.544 128.48 47.512 128.512C45.688 128.544 44.776 129.064 44.776 130.072C44.776 130.456 44.936 130.792 45.256 131.08C45.592 131.352 46.024 131.576 46.552 131.752C47.096 131.928 47.688 132.104 48.328 132.28C48.968 132.456 49.6 132.672 50.224 132.928C50.864 133.184 51.448 133.488 51.976 133.84C52.52 134.176 52.952 134.648 53.272 135.256C53.608 135.864 53.776 136.576 53.776 137.392C53.776 138.96 53.288 140.136 52.312 140.92C51.352 141.704 50.064 142.16 48.448 142.288V145.12ZM67.1793 129.856C67.1793 130.688 66.9553 131.416 66.5073 132.04C66.0753 132.648 65.4753 133.088 64.7073 133.36C65.6193 133.632 66.3713 134.12 66.9633 134.824C67.5553 135.512 67.8513 136.416 67.8513 137.536C67.8513 138.368 67.6673 139.104 67.2993 139.744C66.9473 140.368 66.4593 140.864 65.8353 141.232C65.2113 141.6 64.5153 141.872 63.7473 142.048C62.9953 142.24 62.1873 142.336 61.3233 142.336C59.3233 142.336 57.4353 141.968 55.6593 141.232V137.896C57.2273 138.776 59.0193 139.2 61.0353 139.168C62.0433 139.168 62.8593 138.992 63.4833 138.64C64.1073 138.288 64.4193 137.752 64.4193 137.032C64.4193 135.768 63.4753 135.136 61.5872 135.136H58.8993L58.9233 132.064L61.1793 132.088C61.9953 132.088 62.6273 131.944 63.0753 131.656C63.5393 131.352 63.7713 130.92 63.7713 130.36C63.7713 129.768 63.5153 129.312 63.0033 128.992C62.4913 128.656 61.7473 128.488 60.7713 128.488C59.1553 128.488 57.5473 128.976 55.9473 129.952V126.616C57.5153 125.768 59.2913 125.344 61.2753 125.344C63.0353 125.344 64.4593 125.736 65.5473 126.52C66.6353 127.304 67.1793 128.416 67.1793 129.856ZM73.4361 132.544C74.8121 131.808 76.2681 131.44 77.8041 131.44C79.3721 131.44 80.7081 131.904 81.8121 132.832C82.9321 133.76 83.4921 135.056 83.4921 136.72C83.4921 138.496 82.8921 139.88 81.6921 140.872C80.4921 141.848 79.0121 142.336 77.2521 142.336C72.3241 142.336 69.8601 139.504 69.8601 133.84C69.8601 132.4 70.0681 131.128 70.4841 130.024C70.9001 128.904 71.4681 128.016 72.1881 127.36C72.9081 126.688 73.7241 126.184 74.6361 125.848C75.5481 125.512 76.5401 125.344 77.6121 125.344C79.1641 125.344 80.6601 125.68 82.1001 126.352V129.52C80.9321 128.752 79.5961 128.368 78.0921 128.368C75.3561 128.368 73.8041 129.76 73.4361 132.544ZM73.4361 135.448C73.5961 136.888 73.9721 137.912 74.5641 138.52C75.1561 139.112 75.9561 139.408 76.9641 139.408C77.8281 139.408 78.5321 139.2 79.0761 138.784C79.6201 138.368 79.8921 137.736 79.8921 136.888C79.8921 135.256 78.8281 134.44 76.7001 134.44C75.5481 134.44 74.4601 134.776 73.4361 135.448ZM87.1066 139.984C85.8746 138.4 85.2586 136.352 85.2586 133.84C85.2586 131.328 85.8746 129.288 87.1066 127.72C88.3546 126.136 90.2186 125.344 92.6986 125.344C95.1786 125.344 97.0346 126.136 98.2666 127.72C99.5146 129.288 100.139 131.328 100.139 133.84C100.139 136.352 99.5146 138.4 98.2666 139.984C97.0346 141.552 95.1786 142.336 92.6986 142.336C90.2186 142.336 88.3546 141.552 87.1066 139.984ZM92.6986 139.168C95.2586 139.168 96.5386 137.392 96.5386 133.84C96.5386 130.288 95.2586 128.512 92.6986 128.512C90.1386 128.512 88.8586 130.288 88.8586 133.84C88.8586 137.392 90.1386 139.168 92.6986 139.168Z" fill="#111111"/>
<line x1="39.9999" y1="222.437" x2="50.0885" y2="222.437" stroke="#F3F4F6"/>
<line x1="55.1329" y1="222.437" x2="65.2216" y2="222.437" stroke="#F3F4F6"/>
<line x1="70.2657" y1="222.437" x2="80.3544" y2="222.437" stroke="#F3F4F6"/>
<line x1="86.66" y1="222.437" x2="96.7487" y2="222.437" stroke="#F3F4F6"/>
<line x1="101.793" y1="222.437" x2="111.882" y2="222.437" stroke="#F3F4F6"/>
<line x1="116.926" y1="222.437" x2="127.015" y2="222.437" stroke="#F3F4F6"/>
<line x1="132.059" y1="222.437" x2="142.148" y2="222.437" stroke="#F3F4F6"/>
<line x1="147.192" y1="222.437" x2="157.281" y2="222.437" stroke="#F3F4F6"/>
<line x1="163.586" y1="222.437" x2="173.675" y2="222.437" stroke="#F3F4F6"/>
<line x1="178.719" y1="222.437" x2="188.808" y2="222.437" stroke="#F3F4F6"/>
<line x1="193.852" y1="222.437" x2="203.941" y2="222.437" stroke="#F3F4F6"/>
<line x1="208.985" y1="222.437" x2="219.074" y2="222.437" stroke="#F3F4F6"/>
<line x1="224.118" y1="222.437" x2="234.207" y2="222.437" stroke="#F3F4F6"/>
<line x1="240.512" y1="222.437" x2="250.601" y2="222.437" stroke="#F3F4F6"/>
<line x1="255.645" y1="222.437" x2="265.734" y2="222.437" stroke="#F3F4F6"/>
<line x1="240.512" y1="222.437" x2="250.601" y2="222.437" stroke="#F3F4F6"/>
<line x1="270.778" y1="222.437" x2="280.867" y2="222.437" stroke="#F3F4F6"/>
<line x1="285.911" y1="222.437" x2="296" y2="222.437" stroke="#F3F4F6"/>
<path d="M40 237.329L62.5 215.051L80 258.5L96.1778 229.671H124.622L135.5 208.5L146.5 239.5L156 225.494L171.5 261L189.333 225.494L203.5 237.329L219.5 197.5L229.5 225.494L238.4 261L246.933 215.051H261L270 186L282.5 229.671L296 206" stroke="#3E1BDB"/>
<circle cx="64" cy="352" r="24" fill="white"/>
<path d="M76.0005 372.453H51.9995L40 351.727L51.9995 331H76.0005L88 351.727L76.0005 372.453ZM52.5672 371.474H75.4328L86.8666 351.727L75.4328 331.979H52.5672L41.1334 351.727L52.5672 371.474Z" fill="#111111"/>
<path d="M68.2986 352.598C68.1356 352.617 67.8429 352.755 67.7094 352.994C67.6092 353.172 67.6681 353.405 67.8469 353.507C67.9058 353.54 67.9706 353.556 68.0335 353.556C68.1611 353.556 68.2829 353.491 68.3517 353.37C68.3635 353.358 68.3988 353.336 68.3929 353.334C68.5972 353.309 68.7426 353.123 68.717 352.919C68.6895 352.717 68.5029 352.572 68.2986 352.598Z" fill="#FAFF00"/>
<path d="M60.2966 351.649C60.2946 351.609 60.2966 351.566 60.3104 351.523C60.2966 351.564 60.2927 351.607 60.2966 351.649Z" fill="#FAFF00"/>
<path d="M60.2966 351.649C60.2946 351.609 60.2966 351.566 60.3104 351.523C60.2966 351.564 60.2927 351.607 60.2966 351.649Z" fill="#FAFF00"/>
<path d="M60.3003 351.667C60.3003 351.661 60.2963 351.655 60.2963 351.649C60.2963 351.655 60.2983 351.661 60.3003 351.667Z" fill="#FAFF00"/>
<path d="M60.3003 351.667C60.3003 351.661 60.2963 351.655 60.2963 351.649C60.2963 351.655 60.2983 351.661 60.3003 351.667Z" fill="#FAFF00"/>
<path d="M79.3398 358.309C78.5796 358.26 78.0257 357.743 77.8744 357.587C77.6761 357.381 77.075 356.507 76.5918 355.806C76.2107 355.254 75.8827 354.776 75.7197 354.572C75.4192 354.198 74.8829 352.578 74.769 352.002C74.7474 351.895 74.7376 351.767 74.7356 351.632C75.3033 351.434 76.3659 351.393 76.633 351.442C76.8432 351.479 77.0495 351.615 77.3716 351.926C77.6368 352.181 77.8607 352.263 78.063 352.263C78.2103 352.263 78.3459 352.22 78.4775 352.169C78.6896 352.087 78.8841 351.856 79.0157 351.666C79.273 351.642 79.5165 351.497 79.7287 351.344C80.0783 351.09 80.1176 350.672 79.8465 350.104C79.7915 349.989 79.7228 349.834 79.6462 349.666C79.5637 349.48 79.4714 349.278 79.381 349.084C79.1964 348.692 79.0216 348.397 78.7603 348.222C78.7073 348.187 78.5482 348.044 78.4225 347.93C78.3321 347.85 78.2359 347.764 78.1435 347.682C78.1691 347.611 78.1887 347.541 78.1946 347.468C78.2084 347.282 78.1494 347.112 78.0237 346.978C77.9216 346.869 77.7311 346.743 77.403 346.753C77.2321 346.759 77.0416 346.808 76.853 346.884C76.3639 346.751 75.5586 346.753 75.2836 346.765C75.1009 346.775 74.8043 346.783 74.4861 346.792C73.9912 346.808 73.4294 346.826 73.1505 346.847C72.7321 346.88 72.2116 346.865 72.0112 346.841C71.8462 346.822 71.6734 346.783 71.4926 346.739C71.1685 346.665 70.7993 346.577 70.373 346.591C69.7189 346.606 69.0747 347.002 68.7663 347.192L68.6995 347.233C68.5758 347.306 67.9629 347.398 67.2833 347.382C66.3994 347.36 63.9461 347.196 63.2409 347.119C63.0543 347.1 62.7832 347.045 62.4709 346.982C61.6263 346.812 60.4713 346.581 59.4008 346.687C58.1673 346.808 56.9553 347.131 55.8023 347.648L55.5372 347.77C54.6906 348.156 53.5278 348.684 52.3139 348.594C51.2807 348.516 49.5345 347.973 49.5345 346.422C49.5345 345.594 50.493 345.167 50.9035 345.167C51.5478 345.167 52.1273 345.676 52.1783 345.817C52.1783 346.083 52.1233 346.26 52.0801 346.401C52.0192 346.598 51.9269 346.898 52.2039 347.157C52.4258 347.362 52.9031 347.47 53.3156 347.29C53.6554 347.143 54.0581 346.769 54.0581 345.817C54.0581 344.103 52.1842 343.306 50.9173 343.306C49.6091 343.306 47.7136 344.416 47.7136 346.422C47.7136 348.451 49.065 349.958 51.2375 350.353C52.7735 350.633 53.8028 350.494 54.5433 350.236C54.3311 350.9 54.0149 351.836 53.7478 352.424C53.296 353.415 52.1626 354.811 51.9839 354.95C51.9367 354.982 51.8817 355.015 51.8228 355.048C51.5616 355.203 51.2375 355.395 51.1334 355.722C51.0666 355.935 50.2809 357.855 49.9941 358.542C49.7289 359.179 49.9902 359.534 50.2003 359.819C50.2475 359.884 50.3005 359.953 50.3496 360.031C50.5991 360.427 51.0646 360.589 51.4633 360.589C51.6342 360.589 51.7953 360.558 51.921 360.503C52.3983 360.292 52.3571 359.618 52.2648 359.342C52.2098 359.181 52.0782 359.071 51.9112 358.932C51.866 358.895 51.8012 358.84 51.7541 358.795C51.8837 358.478 52.3374 357.702 52.4592 357.577C52.6085 357.442 53.3353 356.948 53.9147 356.619C54.5177 356.278 55.8789 355.387 56.5291 354.923C56.8945 354.662 57.2323 354.374 57.4739 354.157C57.7234 354.6 57.8451 354.909 57.853 355.011C57.9375 356.511 57.8766 356.833 57.8628 356.881C57.8471 356.94 57.8235 356.997 57.8 357.056C57.6762 357.361 57.466 357.873 58.0592 358.515C58.3225 358.799 59.776 360.268 60.3535 360.393C60.3653 360.395 61.147 360.534 61.862 360.534C62.3413 360.534 62.7931 360.472 62.962 360.264C63.1446 360.041 63.1761 359.722 63.0484 359.43C62.8991 359.091 62.575 358.875 62.1822 358.852C61.9995 358.84 61.8404 358.856 61.699 358.87C61.4024 358.899 61.2393 358.915 60.982 358.703C60.821 358.57 60.3908 358.217 60.3613 358.113C60.4242 357.845 60.931 355.92 61.1117 355.426C61.1372 355.354 61.1726 355.266 61.2099 355.168C61.3749 354.737 61.5359 354.298 61.6499 353.885C62.1095 354.01 62.9286 354.2 63.8577 354.274C64.7887 354.349 65.4644 354.271 66.0085 354.21C66.0871 354.2 66.1578 354.194 66.2305 354.186C66.1303 354.602 65.9967 355.191 65.9476 355.626C65.9064 355.98 65.8769 356.521 65.8514 356.997C65.8317 357.379 65.8042 357.855 65.7885 357.935C65.706 358.18 65.8278 358.415 65.9456 358.644C65.9849 358.723 66.0517 358.852 66.0596 358.897C66.0714 359.003 66.2167 359.808 66.4642 360.037C66.6842 360.239 67.5269 360.337 67.9158 360.337C67.9708 360.337 68.0159 360.335 68.0493 360.331C68.5836 360.272 68.9843 359.88 68.9391 359.457L68.9352 359.404C68.9175 359.21 68.8783 358.758 68.2065 358.717C68.1063 358.711 68.0159 358.711 67.9374 358.711C67.9099 358.711 67.8804 358.711 67.8529 358.711C67.8411 358.678 67.8274 358.642 67.8156 358.605C67.7468 358.419 67.684 358.241 67.7174 358.086C67.7822 357.796 68.2693 356.47 68.5168 355.881C68.7015 355.444 69.1356 354.596 69.3241 354.235C69.4184 354.224 69.5147 354.21 69.607 354.198C69.8191 354.173 70.0175 354.147 70.1923 354.114C70.4595 354.065 70.7619 353.957 70.976 353.871C71.4396 354.447 72.2449 355.289 72.6024 355.563C72.8165 355.728 73.2153 356.11 73.6003 356.478C74.0187 356.88 74.4154 357.259 74.6315 357.414L74.7906 357.528C75.6038 358.102 76.0516 358.478 76.1243 358.642C76.3522 359.157 77.6348 360.08 78.1298 360.162C78.1357 360.164 78.4775 360.211 78.8821 360.211C79.4399 360.211 80.1235 360.121 80.2433 359.692C80.3219 359.414 80.3651 359.014 80.1372 358.695C80.0155 358.537 79.7837 358.339 79.3398 358.309ZM49.7996 344.753C49.7937 344.624 49.7191 344.514 49.613 344.454C49.9784 344.228 50.3712 344.095 50.7052 344.056V344.082C50.7052 344.23 50.7935 344.358 50.9212 344.416C50.9114 344.416 50.9016 344.415 50.8918 344.415C50.5539 344.416 50.1571 344.536 49.7996 344.753ZM53.3019 345.811C53.3019 346.216 53.2076 346.493 53.0347 346.589C52.9463 346.638 52.8462 346.636 52.7774 346.628C52.7794 346.624 52.7794 346.62 52.7813 346.616C52.8344 346.448 52.913 346.191 52.913 345.813C52.913 345.705 52.8776 345.588 52.8128 345.47L52.8501 345.433C52.9955 345.288 52.9955 345.053 52.8501 344.906C52.7047 344.761 52.469 344.761 52.3217 344.906L52.308 344.92C51.9917 344.683 51.5851 344.497 51.1628 344.438C51.32 344.399 51.4378 344.268 51.4457 344.103C52.2785 344.268 53.3019 344.8 53.3019 345.811ZM49.065 344.898C49.0807 345.028 49.1573 345.135 49.2693 345.19C49.1298 345.345 49.012 345.521 48.9256 345.715C48.8215 345.725 48.7232 345.774 48.6584 345.866C48.5386 346.032 48.5779 346.265 48.7448 346.385L48.7763 346.406C48.7763 346.41 48.7763 346.412 48.7763 346.414C48.7763 346.749 48.8352 347.053 48.9413 347.329C48.8057 347.358 48.6997 347.456 48.6643 347.59C48.5249 347.231 48.4502 346.837 48.4502 346.414C48.4502 345.784 48.7036 345.278 49.065 344.898ZM48.8784 348.032C48.9216 348.05 48.9668 348.06 49.0159 348.06H49.0552C49.1495 348.06 49.2339 348.02 49.3007 347.964C49.4952 348.214 49.7368 348.43 50.0098 348.61C49.8743 348.573 49.725 348.612 49.6288 348.726L49.5816 348.78C49.5718 348.792 49.5679 348.806 49.56 348.82C49.285 348.59 49.0552 348.328 48.8784 348.032ZM50.1807 349.225L50.1945 349.209C50.3182 349.064 50.3064 348.855 50.1807 348.72C50.6541 348.998 51.206 349.18 51.7757 349.274C51.7658 349.282 51.7541 349.286 51.7462 349.296L51.6146 349.435C51.5576 349.495 51.5321 349.57 51.5223 349.644C51.4692 349.634 51.4182 349.629 51.3612 349.619C50.9271 349.536 50.5303 349.403 50.1807 349.225ZM67.1242 357.436C66.9356 357.475 66.7392 357.516 66.7333 357.504C66.7333 357.483 66.7471 357.41 66.8138 357.342C66.8728 357.281 66.9553 357.246 67.0397 357.246C66.8335 357.246 66.6665 357.412 66.6665 357.618C66.6665 357.798 66.7981 357.943 66.971 357.976C66.9101 358.323 67.0181 358.633 67.1006 358.86C67.1183 358.909 67.136 358.956 67.1497 359.003C67.2951 359.457 67.6899 359.453 67.9276 359.455C67.9924 359.455 68.0651 359.455 68.1476 359.459C68.1593 359.459 68.1692 359.461 68.177 359.461C68.177 359.463 68.177 359.467 68.177 359.469L68.179 359.496C68.1495 359.526 68.0709 359.577 67.9531 359.59C67.7449 359.61 67.1812 359.53 66.9631 359.469C66.9003 359.32 66.8079 358.987 66.7883 358.815C66.7687 358.636 66.6803 358.468 66.5958 358.303C66.5644 358.243 66.5192 358.155 66.5015 358.104C66.531 357.967 66.5467 357.706 66.584 357.036C66.586 356.989 66.5899 356.942 66.5919 356.893C66.6331 356.909 66.6763 356.919 66.7215 356.919C66.7647 356.919 66.8099 356.911 66.8531 356.893C66.8983 356.876 66.9297 356.866 66.9533 356.858C67.0397 356.829 67.0908 356.809 67.1929 356.742C67.3658 356.631 67.4169 356.402 67.3049 356.227C67.1929 356.055 66.9631 356.004 66.7883 356.116C66.7529 356.139 66.7529 356.139 66.7137 356.151C66.6921 356.159 66.6646 356.169 66.6312 356.18C66.643 356.004 66.6567 355.839 66.6724 355.708C66.7254 355.246 66.8885 354.56 66.9847 354.173C67.1458 354.194 67.3108 354.227 67.4738 354.261C67.7508 354.32 68.0336 354.378 68.3125 354.378C68.34 354.378 68.3675 354.374 68.395 354.374C68.1908 354.778 67.9433 355.275 67.8117 355.591C67.6388 356.014 67.3186 356.864 67.1242 357.436ZM79.5382 359.394C79.2867 359.471 78.5698 359.485 78.2418 359.43C77.9727 359.379 76.9159 358.613 76.7961 358.345C76.6586 358.033 76.2422 357.671 75.5763 357.185C75.6824 357.068 75.7059 356.891 75.6215 356.75C75.6215 356.75 75.5724 356.666 75.5409 356.539C75.4938 356.339 75.2915 356.216 75.0911 356.264C74.9261 356.304 74.8181 356.449 74.8122 356.609C74.6118 356.429 74.3467 356.176 74.1051 355.943C73.9735 355.816 73.8458 355.695 73.7221 355.577C73.7417 355.579 73.7594 355.587 73.781 355.585C73.9872 355.567 74.1385 355.389 74.1228 355.183C74.107 354.999 74.0029 354.903 73.9401 354.86C73.7672 354.743 73.5826 354.797 73.4628 354.833L73.3881 354.854C73.2762 354.886 73.1956 354.964 73.1524 355.06C73.1171 355.031 73.0778 354.995 73.0464 354.972C72.9815 354.923 72.903 354.852 72.8165 354.772C72.8165 354.772 72.8165 354.772 72.8165 354.77C72.8185 354.758 72.8205 354.747 72.8205 354.735C72.9246 354.635 72.9658 354.482 72.9128 354.339C72.8283 354.104 72.6319 354.039 72.4885 354.055C72.3746 354.067 72.298 354.12 72.2391 354.188C71.8089 353.726 71.3866 353.229 71.3178 353.089C71.1352 352.723 70.2886 351.999 70.0352 351.785C69.878 351.652 69.6423 351.673 69.5088 351.83C69.3772 351.987 69.3968 352.222 69.5539 352.355C69.9036 352.649 70.3004 353.013 70.5105 353.244C70.3554 353.299 70.1864 353.352 70.045 353.379C70.0116 353.385 69.9763 353.391 69.9409 353.395C70.0352 353.244 70.0155 353.046 69.878 352.923C69.7248 352.786 69.4891 352.8 69.3516 352.954C69.2652 353.052 69.11 353.24 69.055 353.393C69.0393 353.434 69.0374 353.475 69.0374 353.518C68.8645 353.544 68.6858 353.575 68.507 353.616C68.2792 353.669 67.9649 353.603 67.6349 353.532C67.4326 353.489 67.2263 353.448 67.0142 353.424C67.0456 353.373 67.079 353.321 67.1144 353.272C67.2322 353.103 67.1929 352.872 67.024 352.753C66.8551 352.635 66.6233 352.674 66.5035 352.843C66.2835 353.152 66.2147 353.33 66.1931 353.438C66.1008 353.448 66.0124 353.456 65.9123 353.468C65.5076 353.515 65.0225 353.565 64.4155 353.554C64.4352 353.528 64.4528 353.501 64.4646 353.468C64.5353 353.276 64.4371 353.06 64.2427 352.99C63.8086 352.831 63.4589 353.266 63.3254 353.466C62.6673 353.375 62.1056 353.238 61.7815 353.148C61.7933 353.029 61.7992 352.913 61.7913 352.805C61.7775 352.6 61.5968 352.445 61.3945 352.459C61.2826 352.467 61.1883 352.525 61.1235 352.608C61.0822 352.52 61.0056 352.447 60.9054 352.414C60.8877 352.408 60.8465 352.398 60.7935 352.388C60.766 352.384 60.707 352.373 60.6638 352.361C60.5754 352.263 60.436 352.216 60.2965 352.249C60.0962 352.298 59.9744 352.5 60.0235 352.7C60.1021 353.019 60.4615 353.084 60.6894 353.125C60.7208 353.133 60.7542 353.136 60.7856 353.136C60.8819 353.136 60.9702 353.095 61.039 353.033C61.0213 353.27 60.9545 353.56 60.8661 353.853C60.8504 353.783 60.8229 353.716 60.7699 353.661C60.6736 353.548 60.491 353.338 60.2317 353.381C60.0883 353.405 59.9685 353.503 59.9135 353.642C59.8369 353.832 59.9292 354.049 60.1217 354.126C60.1492 354.137 60.1787 354.145 60.2081 354.149C60.2278 354.171 60.2435 354.188 60.2533 354.198C60.324 354.269 60.4163 354.304 60.5106 354.304C60.597 354.304 60.6835 354.269 60.7542 354.208C60.6658 354.466 60.5735 354.709 60.5028 354.895C60.4635 354.997 60.4281 355.089 60.4006 355.166C60.3888 355.199 60.3751 355.24 60.3594 355.285C60.3279 355.17 60.2847 355.021 60.2651 354.97C60.1904 354.782 59.9803 354.694 59.7897 354.764C59.5992 354.835 59.503 355.048 59.5697 355.24C59.5874 355.293 59.6405 355.485 59.6738 355.614C59.7171 355.781 59.8683 355.892 60.0353 355.892C60.0667 355.892 60.0981 355.888 60.1295 355.881C60.1512 355.875 60.1669 355.861 60.1865 355.853C60.1335 356.035 60.0785 356.231 60.0235 356.431C59.9763 356.355 59.9037 356.292 59.8113 356.264C59.613 356.208 59.4067 356.321 59.3497 356.519C59.3006 356.686 59.3576 356.848 59.554 357.12C59.6149 357.205 59.7053 357.246 59.8015 357.261C59.7151 357.591 59.6483 357.851 59.6267 357.941C59.5049 358.458 59.9881 358.856 60.4988 359.275C60.9938 359.68 61.4201 359.639 61.7599 359.608C61.8856 359.596 62.0034 359.584 62.1291 359.592C62.2509 359.6 62.3118 359.653 62.3413 359.696C62.357 359.72 62.3648 359.741 62.3688 359.759C62.0113 359.829 60.874 359.743 60.5126 359.665C60.267 359.586 59.2319 358.687 58.6014 358.008C58.3283 357.714 58.3775 357.594 58.4855 357.334C58.5228 357.244 58.5562 357.156 58.5798 357.068C58.6014 356.983 58.6623 356.748 58.623 355.657C58.6289 355.673 58.6348 355.683 58.6387 355.691C58.7055 355.824 58.843 355.904 58.9824 355.904C59.0374 355.904 59.0905 355.892 59.1435 355.867C59.3281 355.775 59.4067 355.561 59.3144 355.377C59.3006 355.342 59.2653 355.195 59.2358 355.066C59.1906 354.864 58.9903 354.737 58.7919 354.782C58.7055 354.801 58.6367 354.852 58.5857 354.915C58.5503 354.582 58.2576 353.998 57.906 353.43C57.9119 353.43 57.9178 353.43 57.9237 353.43C58.1005 353.413 58.236 353.274 58.2576 353.105C58.2714 353.074 58.3028 353.019 58.3303 352.98C58.4442 352.809 58.3971 352.578 58.2262 352.465C58.0553 352.351 57.8235 352.396 57.7096 352.568C57.6212 352.702 57.5721 352.804 57.5466 352.884C56.9868 352.083 56.0498 350.508 56.04 350.492C55.9339 350.316 55.7061 350.257 55.5293 350.361C55.3525 350.465 55.2936 350.694 55.3977 350.87C55.437 350.935 56.3602 352.488 56.9377 353.313C56.9868 353.381 57.028 353.446 57.0732 353.513C56.8493 353.718 56.482 354.039 56.093 354.316C55.9418 354.423 55.7493 354.557 55.5372 354.7C55.5765 354.506 55.4586 354.314 55.2641 354.267C55.0658 354.218 54.8615 354.337 54.8124 354.537C54.7692 354.711 54.7633 354.862 54.7633 354.937C54.7633 355.021 54.7967 355.095 54.8438 355.158C54.341 355.487 53.8381 355.802 53.5435 355.969C53.3942 356.053 53.2272 356.153 53.0603 356.259C53.0563 356.235 53.0524 356.216 53.0505 356.204C53.0387 356.008 52.8776 355.853 52.6772 355.853C52.471 355.853 52.304 356.02 52.304 356.225C52.304 356.294 52.3139 356.513 52.3983 356.691C52.196 356.831 52.033 356.952 51.9505 357.028C51.7698 357.195 50.9428 358.493 50.9762 358.885C50.9978 359.146 51.2178 359.328 51.4319 359.504C51.4732 359.537 51.5301 359.584 51.5635 359.618C51.5753 359.682 51.5773 359.778 51.5675 359.837C51.426 359.863 51.1098 359.837 50.9821 359.633C50.9212 359.537 50.8603 359.455 50.8034 359.377C50.6187 359.128 50.5814 359.075 50.6855 358.828C50.8819 358.356 51.7619 356.219 51.8464 355.947C51.8798 355.879 52.0919 355.753 52.2039 355.687C52.2726 355.646 52.3394 355.606 52.3983 355.567C52.5319 355.477 52.8246 355.15 53.1546 354.725C53.1644 354.813 53.184 354.923 53.2017 355.011C53.2371 355.189 53.3922 355.313 53.567 355.313C53.5906 355.313 53.6142 355.311 53.6378 355.307C53.8401 355.268 53.9717 355.072 53.9324 354.87C53.9324 354.868 53.897 354.696 53.8931 354.625C53.8892 354.421 53.7242 354.259 53.5199 354.259C53.512 354.259 53.5062 354.263 53.4983 354.263C53.8597 353.755 54.2172 353.189 54.4274 352.729C54.8988 351.693 55.4782 349.74 55.5038 349.656C55.547 349.511 55.4979 349.354 55.3781 349.26C55.2602 349.166 55.0952 349.153 54.9636 349.227C54.394 349.546 53.6417 349.84 52.3394 349.746C52.4199 349.617 52.414 349.458 52.3237 349.335C52.6203 349.352 52.909 349.341 53.1899 349.307C53.2056 349.362 53.2292 349.417 53.2704 349.462L53.3569 349.554C53.4295 349.634 53.5317 349.676 53.6319 349.676C53.7222 349.676 53.8126 349.642 53.8833 349.578C54.0031 349.468 54.0306 349.297 53.9697 349.156C54.4293 349.037 54.8575 348.876 55.2465 348.71C55.2916 348.816 55.38 348.902 55.5018 348.929L55.6413 348.961C55.6688 348.966 55.6963 348.97 55.7218 348.97C55.8927 348.97 56.0479 348.853 56.0852 348.679C56.1107 348.565 56.0754 348.453 56.0086 348.369L56.1068 348.324C56.4427 348.173 56.7825 348.048 57.1282 347.934C57.1243 348.111 57.2402 348.269 57.4189 348.306C57.4444 348.312 57.47 348.314 57.4955 348.314C57.6684 348.314 57.8235 348.193 57.8609 348.018L57.8962 347.85C57.906 347.801 57.906 347.754 57.8962 347.709C58.1221 347.652 58.348 347.599 58.5739 347.556C58.5483 347.646 58.5464 347.738 58.5739 347.827C58.623 347.983 58.7526 348.101 58.9274 348.148C58.9608 348.158 58.9942 348.161 59.0257 348.161C59.1906 348.161 59.3399 348.054 59.3851 347.887C59.4146 347.781 59.3949 347.676 59.3399 347.59C59.3399 347.541 59.3281 347.496 59.3085 347.45C59.3635 347.445 59.4185 347.433 59.4735 347.427C59.7878 347.396 60.1158 347.401 60.4438 347.425C60.2651 347.427 60.106 347.548 60.0746 347.729C60.051 347.872 60.1099 348.009 60.2179 348.089C60.2317 348.132 60.2533 348.175 60.2847 348.212C60.3594 348.302 60.4654 348.349 60.5735 348.349C60.656 348.349 60.7404 348.322 60.8092 348.265C60.9585 348.142 61.0213 347.968 60.9761 347.797C60.9094 347.546 60.6619 347.46 60.5499 347.433C60.8681 347.46 61.1824 347.505 61.4829 347.556C61.4476 347.58 61.4142 347.607 61.3886 347.644C61.2943 347.778 61.2983 347.952 61.3886 348.079C61.3847 348.179 61.4201 348.281 61.4967 348.357C61.5693 348.43 61.6656 348.467 61.7599 348.467C61.8541 348.467 61.9504 348.43 62.0231 348.357C62.1232 348.257 62.1743 348.12 62.1625 347.981C62.1527 347.864 62.0997 347.75 62.0133 347.656C62.1174 347.676 62.2195 347.697 62.3157 347.717C62.6477 347.783 62.9325 347.84 63.1525 347.864C63.2546 347.875 63.398 347.887 63.565 347.903C63.6043 348.087 63.7005 348.275 63.8203 348.353C63.8832 348.397 63.9559 348.416 64.0266 348.416C64.1464 348.416 64.2662 348.357 64.3369 348.25C64.3959 348.163 64.4077 348.062 64.386 347.968C64.9675 348.009 65.6314 348.052 66.2069 348.083C66.1814 348.191 66.1676 348.31 66.1912 348.418C66.2285 348.594 66.3896 348.728 66.5644 348.728C66.588 348.728 66.6115 348.726 66.6371 348.72C66.8394 348.677 66.969 348.494 66.9258 348.295C66.9258 348.279 66.9356 348.242 66.9415 348.222C66.9592 348.189 66.9671 348.154 66.9749 348.12C67.079 348.124 67.1772 348.128 67.2578 348.13C67.7449 348.142 68.6583 348.103 69.0511 347.887C69.0943 348.046 69.2318 348.165 69.4047 348.165C69.6109 348.165 69.7779 347.999 69.7779 347.793V347.525C69.7779 347.515 69.7739 347.507 69.772 347.497C69.8957 347.445 70.0234 347.4 70.1511 347.372C70.1491 347.388 70.1413 347.401 70.1413 347.417C70.1413 347.623 70.3082 347.789 70.5145 347.789H70.593C70.7993 347.789 70.9662 347.623 70.9662 347.417C70.9662 347.409 70.9623 347.401 70.9623 347.394C71.0802 347.415 71.198 347.441 71.3178 347.47C71.5123 347.515 71.7126 347.56 71.9189 347.586C72.0976 347.607 72.404 347.619 72.7203 347.615C72.6908 347.638 72.6614 347.664 72.6398 347.697L72.5887 347.776C72.4767 347.948 72.5258 348.179 72.6987 348.291C72.7615 348.332 72.8323 348.349 72.901 348.349C73.0228 348.349 73.1426 348.289 73.2153 348.179L73.2663 348.101C73.3744 347.932 73.3292 347.713 73.1662 347.597C73.178 347.597 73.1917 347.595 73.2035 347.595C73.4156 347.578 73.8222 347.564 74.2288 347.552C74.2288 347.658 74.2701 347.764 74.3585 347.836L74.4056 347.875C74.4763 347.934 74.5608 347.962 74.6433 347.962C74.7513 347.962 74.8554 347.917 74.9301 347.828C75.0027 347.742 75.0243 347.633 75.0067 347.529C75.1265 347.525 75.2326 347.521 75.315 347.517C75.5056 347.507 75.7315 347.509 75.9495 347.521C75.9397 347.533 75.9279 347.544 75.9181 347.556C75.7904 347.717 75.8179 347.952 75.979 348.079C76.14 348.207 76.3757 348.179 76.5034 348.018C76.633 347.856 76.8255 347.723 77.0063 347.631C77.0082 347.631 77.0082 347.629 77.0102 347.629C77.1752 347.544 77.3323 347.496 77.4207 347.49C77.3579 347.601 77.2007 347.778 77.0475 347.901C76.8864 348.03 76.8609 348.263 76.9905 348.424C77.0652 348.516 77.1732 348.563 77.2812 348.563C77.3637 348.563 77.4443 348.536 77.515 348.481C77.5307 348.469 77.5523 348.451 77.5739 348.432C77.5484 348.483 77.5307 348.538 77.5307 348.596V348.72C77.5307 348.925 77.6977 349.092 77.9039 349.092C78.0866 349.092 78.23 348.959 78.2634 348.786C78.2928 348.81 78.3203 348.831 78.3459 348.847C78.4696 348.929 78.6032 349.188 78.7053 349.405C78.7937 349.595 78.8841 349.795 78.9646 349.975C79.0432 350.15 79.1139 350.31 79.1728 350.43C79.2887 350.671 79.2848 350.747 79.2907 350.747C79.0451 350.925 78.9587 350.935 78.9607 350.937C78.9017 350.927 78.8173 350.902 78.7387 350.88C78.5482 350.827 78.4441 350.798 78.3243 350.827C78.1239 350.876 78.0021 351.08 78.0532 351.278C78.0748 351.366 78.1278 351.436 78.1946 351.485C78.0473 351.542 78.0414 351.538 77.8921 351.395C77.5739 351.09 77.2184 350.796 76.7646 350.716C76.6527 350.696 76.4366 350.684 76.1715 350.688C76.2048 350.606 76.2127 350.51 76.1793 350.42C76.1086 350.226 75.8945 350.128 75.7 350.198L75.6136 350.23C75.4192 350.3 75.3209 350.514 75.3917 350.708C75.3956 350.719 75.4054 350.729 75.4113 350.741C75.1972 350.766 74.9831 350.804 74.7808 350.853C74.7985 350.71 74.8181 350.6 74.8299 350.563C74.9065 350.373 74.8142 350.155 74.6217 350.079C74.4292 350.003 74.2131 350.095 74.1365 350.287C74.0854 350.414 74.0226 350.794 73.999 351.211C73.9538 351.193 73.9028 351.17 73.8556 351.148C73.669 351.062 73.4471 351.145 73.3606 351.333C73.2742 351.519 73.3567 351.74 73.5453 351.826C73.8085 351.946 73.9362 351.981 74.0147 351.989C74.0226 352.046 74.0285 352.104 74.0383 352.157C74.052 352.224 74.0736 352.314 74.1011 352.422C74.0835 352.429 74.0658 352.429 74.0481 352.439L73.9695 352.486C73.7928 352.592 73.7358 352.821 73.8419 352.997C73.9126 353.113 74.0363 353.178 74.162 353.178C74.2131 353.178 74.2622 353.164 74.3113 353.142C74.4822 353.681 74.7101 354.298 74.932 354.715C74.8967 354.733 74.8613 354.752 74.8318 354.782L74.7513 354.86C74.6492 354.958 74.5235 355.079 74.549 355.285C74.5627 355.401 74.6531 355.526 74.7552 355.585C74.8142 355.618 74.877 355.634 74.9399 355.634C75.0695 355.634 75.1952 355.567 75.264 355.446C75.2777 355.42 75.2895 355.395 75.2974 355.367L75.3445 355.322C75.5134 355.559 75.7413 355.888 75.979 356.233C76.635 357.185 77.1162 357.876 77.3382 358.108C77.8686 358.658 78.5992 359.013 79.2946 359.06C79.4105 359.067 79.4949 359.095 79.5224 359.136C79.548 359.167 79.5617 359.261 79.5382 359.394Z" fill="#FAFF00"/>
<path d="M63.9737 350.868C63.9914 350.796 63.9855 350.724 63.96 350.657C64.0759 350.526 64.0857 350.326 63.9737 350.183C63.846 350.02 63.6123 349.991 63.4493 350.118C63.298 350.236 63.1134 350.522 63.1743 350.796C63.2136 350.972 63.3471 351.105 63.5239 351.147C63.5514 351.152 63.5809 351.156 63.6084 351.156C63.7812 351.156 63.9344 351.041 63.9737 350.868Z" fill="#FAFF00"/>
<path d="M65.4684 351.801C65.5568 351.784 65.7198 351.721 65.82 351.496C65.8593 351.406 65.981 351.022 65.8435 350.793C65.706 350.565 65.4409 350.556 65.0578 350.616C64.8536 350.648 64.7141 350.838 64.7475 351.041C64.7711 351.196 64.8889 351.314 65.0343 351.347C65.0205 351.4 65.0186 351.455 65.0303 351.509C65.0657 351.686 65.2209 351.809 65.3957 351.809C65.4193 351.809 65.4428 351.807 65.4684 351.801Z" fill="#FAFF00"/>
<path d="M66.4861 350.027C66.602 349.913 66.6334 349.733 66.5509 349.584C66.4527 349.404 66.2268 349.337 66.0442 349.435C65.7692 349.584 65.6238 349.815 65.6533 350.056C65.6788 350.256 65.8242 350.418 66.0285 350.471C66.0599 350.479 66.0913 350.483 66.1208 350.483C66.2877 350.483 66.439 350.371 66.4822 350.205C66.4999 350.144 66.4999 350.083 66.4861 350.027Z" fill="#FAFF00"/>
<path d="M64.8833 350.354C64.895 350.354 64.9068 350.356 64.9166 350.356C65.1072 350.356 65.2702 350.211 65.2879 350.017C65.2997 349.888 65.2447 349.768 65.1484 349.694C65.1445 349.562 65.0699 349.435 64.9422 349.372C64.7575 349.28 64.5336 349.355 64.4413 349.539C64.3529 349.715 64.3549 349.911 64.4452 350.076C64.5356 350.232 64.6986 350.336 64.8833 350.354Z" fill="#FAFF00"/>
<path d="M63.7515 349.623C63.7987 349.623 63.8478 349.613 63.8949 349.594C64.0403 349.533 64.2976 349.364 64.3467 349.114C64.3742 348.977 64.3329 348.837 64.2367 348.742C64.0913 348.597 63.8556 348.597 63.7083 348.742C63.6612 348.789 63.6297 348.843 63.614 348.902C63.6121 348.904 63.6101 348.904 63.6081 348.906C63.4176 348.984 63.3292 349.204 63.4078 349.394C63.4648 349.537 63.6042 349.623 63.7515 349.623Z" fill="#FAFF00"/>
<path d="M62.8109 348.853C62.8207 348.855 62.8325 348.855 62.8423 348.855C63.0348 348.855 63.1978 348.708 63.2135 348.514C63.2233 348.405 63.1841 348.303 63.1133 348.228C63.133 348.033 62.9955 347.854 62.7971 347.825C62.5948 347.792 62.4023 347.935 62.3728 348.138C62.3532 348.262 62.3198 348.491 62.4671 348.675C62.5496 348.779 62.6714 348.841 62.8109 348.853Z" fill="#FAFF00"/>
<path d="M59.7723 348.132C59.5798 348.062 59.3657 348.162 59.293 348.356C59.238 348.508 59.2891 348.673 59.4069 348.771C59.4128 348.8 59.4246 348.83 59.4384 348.859C59.5032 348.99 59.6348 349.065 59.7723 349.065C59.8273 349.065 59.8862 349.053 59.9392 349.025C60.1003 348.945 60.1926 348.788 60.1828 348.614C60.173 348.406 60.0099 348.218 59.7723 348.132Z" fill="#FAFF00"/>
<path d="M60.6894 349.3C60.7542 349.351 60.8309 349.374 60.9075 349.374C61.0155 349.374 61.1235 349.325 61.1982 349.231C61.2158 349.208 61.2316 349.184 61.2433 349.159C61.3553 349.078 61.4103 348.935 61.3808 348.785C61.3416 348.583 61.1294 348.456 60.9291 348.493C60.8171 348.514 60.5559 348.561 60.491 348.83C60.4675 348.932 60.4596 349.125 60.6894 349.3Z" fill="#FAFF00"/>
<path d="M61.9232 349.611C61.9861 349.66 62.0666 349.689 62.153 349.689C62.1629 349.689 62.1746 349.689 62.1845 349.687C62.3887 349.67 62.5419 349.489 62.5262 349.286C62.5144 349.145 62.4457 349.023 62.3337 348.943C62.1236 348.792 61.8505 348.861 61.7484 348.886C61.5481 348.935 61.4263 349.139 61.4773 349.337C61.5264 349.536 61.7268 349.656 61.9232 349.611Z" fill="#FAFF00"/>
<path d="M62.2469 350.097C62.2469 350.103 62.245 350.109 62.245 350.116C62.1546 350.185 62.0977 350.291 62.0977 350.412C62.0977 350.618 62.2646 350.784 62.4709 350.784C62.8323 350.784 62.9934 350.391 62.9934 350.111C62.9934 349.911 62.8362 349.758 62.6359 349.748C62.4316 349.738 62.2627 349.899 62.2469 350.097Z" fill="#FAFF00"/>
<path d="M61.7695 351.08C61.8127 350.957 61.7871 350.827 61.7145 350.729C61.7832 350.549 61.7007 350.342 61.522 350.259C61.3354 350.173 61.1134 350.254 61.027 350.442C60.9268 350.659 60.9111 350.853 60.9798 351.017C61.0368 351.153 61.1488 351.254 61.2941 351.305C61.3354 351.319 61.3766 351.327 61.4179 351.327C61.5711 351.329 61.7164 351.233 61.7695 351.08Z" fill="#FAFF00"/>
<path d="M60.6111 350.355C60.6975 350.355 60.7819 350.326 60.8527 350.267C60.89 350.236 60.9194 350.199 60.941 350.16C61.0569 350.087 61.1296 349.952 61.1139 349.807C61.0943 349.603 60.9116 349.452 60.7053 349.474C60.4912 349.496 60.3223 349.611 60.2536 349.781C60.1927 349.93 60.2221 350.101 60.3262 350.224C60.3989 350.31 60.505 350.355 60.6111 350.355Z" fill="#FAFF00"/>
<path d="M62.8072 352.009C62.6363 352.113 62.4182 352.445 62.4654 352.733C62.4968 352.916 62.654 353.045 62.8327 353.045C62.8523 353.045 62.8739 353.043 62.8956 353.039C63.0822 353.008 63.2118 352.845 63.2079 352.663C63.2118 352.655 63.2157 352.645 63.2216 352.637C63.2589 352.614 63.2923 352.585 63.3198 352.547C63.4436 352.383 63.4102 352.15 63.2472 352.026C63.1214 351.934 62.9368 351.93 62.8072 352.009Z" fill="#FAFF00"/>
<path d="M64.111 351.586C63.9735 351.627 63.8635 351.727 63.7987 351.868C63.7143 352.052 63.7025 352.318 63.7732 352.473C63.836 352.612 63.9716 352.692 64.113 352.692C64.1641 352.692 64.2151 352.683 64.2662 352.659C64.4371 352.583 64.5216 352.397 64.4744 352.222C64.4744 352.218 64.4744 352.214 64.4744 352.211C64.5746 352.117 64.6178 351.972 64.5766 351.833C64.5157 351.639 64.3075 351.527 64.111 351.586Z" fill="#FAFF00"/>
<path d="M62.4867 351.153C62.302 351.06 62.0781 351.135 61.9858 351.319C61.972 351.346 61.9072 351.411 61.8719 351.444C61.7638 351.55 61.5831 351.726 61.6695 351.983C61.7226 352.14 61.8679 352.238 62.0231 352.238C62.0624 352.238 62.1017 352.232 62.141 352.218C62.251 352.181 62.3335 352.099 62.3708 351.999C62.3786 351.991 62.3865 351.983 62.3943 351.975C62.4729 351.897 62.5829 351.791 62.6517 351.652C62.7459 351.468 62.6713 351.245 62.4867 351.153Z" fill="#FAFF00"/>
<path d="M65.4384 352.365C65.3913 352.435 65.3658 352.498 65.3461 352.551C65.3265 352.602 65.3147 352.629 65.2833 352.666C65.1517 352.825 65.1733 353.058 65.3304 353.191C65.4011 353.25 65.4856 353.278 65.57 353.278C65.6781 353.278 65.7822 353.232 65.8568 353.144C65.9668 353.013 66.012 352.9 66.0415 352.823C66.0473 352.807 66.0532 352.792 66.0611 352.778C66.175 352.608 66.1279 352.377 65.957 352.263C65.7841 352.147 65.5524 352.194 65.4384 352.365Z" fill="#FAFF00"/>
<path d="M67.303 351.588C67.3089 351.496 67.2794 351.4 67.2146 351.323C67.081 351.167 66.8453 351.149 66.6882 351.282C66.4662 351.47 66.4643 351.676 66.4839 351.782C66.5212 351.987 66.6823 352.142 66.9593 352.242C67.0005 352.258 67.0437 352.263 67.085 352.263C67.2382 352.263 67.3816 352.169 67.4366 352.017C67.4955 351.854 67.4346 351.682 67.303 351.588Z" fill="#FAFF00"/>
<path d="M68.2986 352.598C68.1356 352.617 67.8429 352.755 67.7094 352.994C67.6092 353.172 67.6681 353.405 67.8469 353.507C67.9058 353.54 67.9706 353.556 68.0335 353.556C68.1611 353.556 68.2829 353.491 68.3517 353.37C68.3635 353.358 68.3988 353.336 68.3929 353.334C68.5972 353.309 68.7426 353.123 68.717 352.919C68.6895 352.717 68.5029 352.572 68.2986 352.598Z" fill="#FAFF00"/>
<path d="M65.2735 349.227C65.2833 349.227 65.2931 349.227 65.3029 349.225C65.5092 349.211 65.6643 349.035 65.6506 348.829C65.6388 348.665 65.5229 348.531 65.3717 348.492C65.297 348.369 65.1517 348.294 64.9985 348.316C64.7942 348.345 64.6528 348.533 64.6822 348.737C64.7137 348.96 64.9945 349.227 65.2735 349.227Z" fill="#FAFF00"/>
<path d="M67.0849 349.682L67.3363 349.408L67.0888 349.686C67.1595 349.748 67.2479 349.78 67.3363 349.78C67.4384 349.78 67.5406 349.739 67.6152 349.654C67.7272 349.529 67.739 349.347 67.6545 349.212C67.6781 349.11 67.6584 349 67.5916 348.91C67.4699 348.744 67.2361 348.708 67.0711 348.83C66.9376 348.928 66.859 349.065 66.8511 349.216C66.8393 349.464 67.024 349.627 67.0849 349.682Z" fill="#FAFF00"/>
<path d="M67.9219 350.818C67.9927 350.643 67.92 350.449 67.7628 350.357C67.7039 350.197 67.535 350.095 67.3602 350.116C67.1559 350.146 67.0145 350.334 67.0439 350.538C67.0832 350.814 67.3111 350.974 67.4387 351.025C67.4839 351.043 67.5311 351.053 67.5762 351.053C67.7236 351.053 67.865 350.964 67.9219 350.818Z" fill="#FAFF00"/>
<path d="M68.898 351.127C68.8882 351.112 68.8764 351.09 68.8705 351.075C68.8037 350.881 68.5916 350.777 68.3952 350.845C68.2007 350.912 68.0966 351.123 68.1654 351.319C68.1811 351.366 68.3323 351.776 68.6505 351.807C68.6643 351.809 68.6761 351.809 68.6898 351.809C68.8784 351.809 69.0414 351.666 69.0611 351.474C69.0728 351.333 69.0061 351.204 68.898 351.127Z" fill="#FAFF00"/>
<path d="M67.0867 354.843C67.0612 354.868 67.0395 354.89 67.0219 354.907C66.8569 354.962 66.7488 355.127 66.7704 355.305C66.794 355.495 66.9531 355.634 67.1397 355.634C67.1554 355.634 67.1692 355.634 67.1849 355.632C67.3342 355.614 67.4501 355.575 67.5561 355.434C67.564 355.424 67.5758 355.409 67.5994 355.387C67.7486 355.246 67.7565 355.011 67.6151 354.86C67.4736 354.709 67.236 354.703 67.0867 354.843Z" fill="#FAFF00"/>
<path d="M58.8998 353.315C58.7446 353.478 58.615 353.765 58.7682 354.032C58.837 354.153 58.9627 354.222 59.0943 354.222C59.1571 354.222 59.22 354.206 59.277 354.173C59.4125 354.096 59.4812 353.948 59.4636 353.801C59.5834 353.652 59.5696 353.434 59.4282 353.299C59.2789 353.16 59.0432 353.166 58.8998 353.315Z" fill="#FAFF00"/>
<path d="M59.4752 351.509C59.3475 351.472 59.1963 351.511 59.1 351.603C58.9056 351.789 58.9056 352.279 58.9252 352.357C58.9665 352.528 59.1197 352.641 59.2866 352.641C59.3161 352.641 59.3456 352.637 59.375 352.629C59.5538 352.586 59.6697 352.422 59.6579 352.246C59.6598 352.206 59.6697 352.13 59.6795 352.075C59.7011 352.042 59.7188 352.007 59.7305 351.967C59.7875 351.77 59.6736 351.564 59.4752 351.509Z" fill="#FAFF00"/>
<path d="M59.9407 350.508C59.7914 350.365 59.5557 350.371 59.4123 350.52C59.2709 350.669 59.2748 350.904 59.4241 351.047L59.4673 351.088C59.54 351.157 59.6323 351.192 59.7246 351.192C59.8228 351.192 59.921 351.153 59.9937 351.076C60.1351 350.928 60.1312 350.693 59.9819 350.55L59.9407 350.508Z" fill="#FAFF00"/>
<path d="M57.8687 351.139C57.6762 351.065 57.4601 351.159 57.3855 351.351L57.3305 351.49C57.2558 351.682 57.3501 351.897 57.5426 351.972C57.5878 351.989 57.633 351.997 57.6782 351.997C57.8274 351.997 57.9689 351.907 58.0258 351.76L58.0808 351.621C58.1555 351.429 58.0592 351.214 57.8687 351.139Z" fill="#FAFF00"/>
<path d="M58.9644 351.328C58.9821 351.199 59.0214 350.933 58.8014 350.788C58.6286 350.674 58.3968 350.721 58.2848 350.892C58.2259 350.98 58.2102 351.084 58.2318 351.18C58.2298 351.201 58.2259 351.221 58.2259 351.225C58.1964 351.428 58.3398 351.616 58.5421 351.646C58.5598 351.648 58.5775 351.65 58.5952 351.65C58.7778 351.65 58.9389 351.515 58.9644 351.328Z" fill="#FAFF00"/>
<path d="M59.0138 350.334C59.2201 350.334 59.3851 350.185 59.3851 349.979C59.389 349.954 59.4008 349.915 59.4106 349.878C59.446 349.739 59.4695 349.646 59.4303 349.531C59.3654 349.337 59.1533 349.231 58.9569 349.296C58.8096 349.345 58.7133 349.478 58.7035 349.625C58.6996 349.643 58.6917 349.666 58.6858 349.691C58.6563 349.801 58.6387 349.874 58.6387 349.944C58.6426 350.15 58.8076 350.334 59.0138 350.334Z" fill="#FAFF00"/>
<path d="M54.9816 351.942C54.9816 352.02 55.0346 352.267 55.0621 352.337C55.1191 352.48 55.2546 352.565 55.4019 352.565C55.4432 352.565 55.4864 352.557 55.5276 352.543C55.7162 352.478 55.8183 352.271 55.7614 352.079C55.7496 352.04 55.7299 351.942 55.724 351.905C55.7064 351.716 55.5473 351.57 55.3528 351.57C55.1485 351.57 54.9816 351.736 54.9816 351.942Z" fill="#FAFF00"/>
<path d="M56.0968 353.94C56.1164 353.944 56.136 353.944 56.1557 353.944C56.3364 353.944 56.4955 353.812 56.523 353.63C56.5309 353.579 56.5544 353.399 56.5171 353.24C56.4719 353.045 56.2814 352.931 56.083 352.97C55.8846 353.009 55.7569 353.207 55.7884 353.405C55.7923 353.425 55.7884 353.479 55.7845 353.515C55.753 353.716 55.8925 353.908 56.0968 353.94Z" fill="#FAFF00"/>
<path d="M54.508 352.892C54.3607 353.069 54.3528 353.425 54.3626 353.501C54.3901 353.687 54.5532 353.836 54.7378 353.836C54.7535 353.836 54.7712 353.834 54.7869 353.832C54.9912 353.803 55.1346 353.631 55.1051 353.427C55.1051 353.403 55.1149 353.343 55.1228 353.309C55.2072 353.157 55.1738 352.961 55.0344 352.845C54.8733 352.712 54.6396 352.734 54.508 352.892Z" fill="#FAFF00"/>
<path d="M57.3995 350.563L57.3288 350.353C57.264 350.159 57.0538 350.051 56.8574 350.118C56.6609 350.183 56.5568 350.394 56.6217 350.588L56.6924 350.798C56.7454 350.954 56.8908 351.052 57.0459 351.052C57.0852 351.052 57.1245 351.046 57.1638 351.033C57.3582 350.968 57.4643 350.756 57.3995 350.563Z" fill="#FAFF00"/>
<path d="M58.3618 350.371V350.289C58.3618 350.083 58.1948 349.917 57.9886 349.917C57.7823 349.917 57.6154 350.083 57.6154 350.289V350.371C57.6154 350.577 57.7823 350.743 57.9886 350.743C58.1948 350.743 58.3618 350.577 58.3618 350.371Z" fill="#FAFF00"/>
<path d="M56.9302 349.255C56.9832 349.41 57.1285 349.506 57.2837 349.506C57.323 349.506 57.3643 349.5 57.4055 349.486C57.6 349.42 57.7041 349.208 57.6373 349.014L57.5666 348.81C57.4998 348.616 57.2876 348.511 57.0932 348.579C56.8987 348.646 56.7946 348.857 56.8614 349.051L56.9302 349.255Z" fill="#FAFF00"/>
<path d="M60.1512 351.724C60.2043 351.879 60.3496 351.975 60.5048 351.975C60.5441 351.975 60.5853 351.969 60.6266 351.955C60.821 351.889 60.9251 351.677 60.8584 351.483L60.7876 351.28C60.7209 351.086 60.5087 350.98 60.3143 351.049C60.1198 351.115 60.0157 351.327 60.0825 351.521L60.1512 351.724Z" fill="#FAFF00"/>
<path d="M57.9215 349.008C57.9745 349.162 58.1199 349.258 58.275 349.258C58.3143 349.258 58.3556 349.253 58.3968 349.239C58.5913 349.172 58.6954 348.961 58.6286 348.767L58.5579 348.563C58.4911 348.369 58.279 348.263 58.0845 348.332C57.8901 348.399 57.786 348.61 57.8527 348.804L57.9215 349.008Z" fill="#FAFF00"/>
<path d="M56.6396 349.476L56.5061 349.222C56.4098 349.04 56.1839 348.971 56.0013 349.067C55.8186 349.163 55.7498 349.388 55.8461 349.57L55.9796 349.825C56.0464 349.952 56.1761 350.023 56.3096 350.023C56.3686 350.023 56.4275 350.009 56.4825 349.98C56.6671 349.882 56.7359 349.657 56.6396 349.476Z" fill="#FAFF00"/>
<path d="M72.0189 352.399C71.8853 352.243 71.6496 352.225 71.4925 352.358C71.3353 352.491 71.3176 352.727 71.4512 352.883L71.5455 352.991C71.6201 353.077 71.7242 353.12 71.8283 353.12C71.9148 353.12 72.0012 353.091 72.0699 353.03C72.2271 352.897 72.2448 352.662 72.1112 352.505L72.0189 352.399Z" fill="#FAFF00"/>
<path d="M73.1663 351.889C73.1663 351.631 72.9777 351.48 72.7911 351.464C72.5161 351.439 72.2234 351.744 72.192 351.946C72.1586 352.15 72.2961 352.34 72.5004 352.373C72.52 352.377 72.5416 352.377 72.5613 352.377C72.6674 352.377 72.7656 352.332 72.8343 352.258C73.0209 352.238 73.1663 352.081 73.1663 351.889Z" fill="#FAFF00"/>
<path d="M73.1837 352.808C73.0344 352.757 72.8773 352.802 72.7418 352.929C72.5552 353.103 72.5807 353.291 72.6003 353.364C72.6396 353.509 72.7555 353.619 72.9107 353.654C72.9382 353.66 72.9676 353.664 72.9951 353.664C73.1582 353.664 73.3055 353.556 73.3526 353.397C73.3801 353.364 73.4037 353.323 73.4174 353.28C73.4842 353.086 73.3782 352.874 73.1837 352.808Z" fill="#FAFF00"/>
<path d="M73.8063 353.572C73.6432 353.637 73.5352 353.786 73.5332 353.952C73.5293 354.083 73.5981 354.258 73.7964 354.348C73.8456 354.371 73.8986 354.381 73.9516 354.381C74.0931 354.381 74.2286 354.301 74.2914 354.164C74.2993 354.146 74.3052 354.128 74.3111 354.111C74.3975 353.968 74.3779 353.78 74.2541 353.658C74.1402 353.545 73.9634 353.509 73.8063 353.572Z" fill="#FAFF00"/>
<path d="M71.3159 350.575C71.3905 350.575 71.4671 350.551 71.5339 350.504C71.7009 350.385 71.7382 350.152 71.6184 349.985C71.6066 349.968 71.5889 349.942 71.5751 349.919C71.5712 349.829 71.5359 349.74 71.4671 349.672C71.3218 349.527 71.0861 349.527 70.9387 349.672C70.758 349.852 70.7836 350.103 71.0134 350.42C71.0861 350.522 71.2 350.575 71.3159 350.575Z" fill="#FAFF00"/>
<path d="M73.0131 349.639C73.1133 349.639 73.2134 349.599 73.2861 349.521C73.402 349.398 73.4157 349.214 73.3333 349.076C73.345 348.902 73.2331 348.738 73.0583 348.691C72.8599 348.636 72.6536 348.755 72.6006 348.955C72.5436 349.168 72.6045 349.398 72.7597 349.541C72.8304 349.605 72.9208 349.639 73.0131 349.639Z" fill="#FAFF00"/>
<path d="M73.162 350.202C73.162 350.353 73.2622 350.588 73.4252 350.706C73.5038 350.763 73.5921 350.792 73.6825 350.792C73.7277 350.792 73.7729 350.784 73.8161 350.77C74.0125 350.706 74.1186 350.494 74.0518 350.3C74.0223 350.214 73.9653 350.146 73.8927 350.101C73.8475 349.946 73.7041 349.832 73.5352 349.832C73.3289 349.83 73.162 349.997 73.162 350.202Z" fill="#FAFF00"/>
<path d="M72.0211 350.477C72.0525 350.659 72.2097 350.788 72.3884 350.788C72.4081 350.788 72.4297 350.786 72.4513 350.783C72.6536 350.749 72.7911 350.557 72.7577 350.354C72.7577 350.35 72.7557 350.336 72.7557 350.324C72.8284 350.177 72.797 349.995 72.6693 349.882C72.5161 349.744 72.2784 349.758 72.1429 349.913C71.9838 350.089 71.9975 350.342 72.0211 350.477Z" fill="#FAFF00"/>
<path d="M71.5239 349.49C71.5553 349.672 71.7124 349.801 71.8912 349.801C71.9108 349.801 71.9324 349.799 71.954 349.795C72.1563 349.762 72.2938 349.57 72.2604 349.366C72.2604 349.362 72.2585 349.349 72.2585 349.337C72.3312 349.19 72.2997 349.008 72.1721 348.894C72.0188 348.757 71.7812 348.771 71.6456 348.926C71.4885 349.102 71.5022 349.355 71.5239 349.49Z" fill="#FAFF00"/>
<path d="M70.7817 351.713C70.8131 351.895 70.9703 352.024 71.149 352.024C71.1687 352.024 71.1903 352.022 71.2119 352.018C71.4142 351.985 71.5517 351.793 71.5183 351.589C71.5183 351.585 71.5163 351.572 71.5163 351.56C71.589 351.413 71.5576 351.231 71.4299 351.117C71.2767 350.98 71.039 350.994 70.9035 351.149C70.7444 351.325 70.7601 351.578 70.7817 351.713Z" fill="#FAFF00"/>
<path d="M69.8744 350.483L69.8508 350.43C69.7644 350.242 69.5424 350.16 69.3558 350.246C69.1692 350.332 69.0848 350.552 69.1712 350.74L69.1967 350.797C69.2458 350.908 69.3578 351.171 69.674 351.171C69.8803 351.171 70.0472 351.004 70.0472 350.798C70.0492 350.665 69.9785 350.548 69.8744 350.483Z" fill="#FAFF00"/>
<path d="M68.271 349.526C68.1728 349.59 68.1001 349.727 68.0922 349.843C68.0824 350 68.1512 350.162 68.2729 350.266C68.3437 350.327 68.4301 350.356 68.5145 350.356C68.6206 350.356 68.7247 350.311 68.7974 350.227C68.8976 350.109 68.9133 349.949 68.8485 349.817C68.8445 349.753 68.8249 349.688 68.7856 349.631C68.6736 349.459 68.4438 349.412 68.271 349.526Z" fill="#FAFF00"/>
<path d="M68.346 349.057C68.4226 349.057 68.5012 349.033 68.568 348.984C68.6838 348.898 68.7349 348.761 68.7153 348.628C68.7369 348.485 68.674 348.336 68.5444 348.255C68.3696 348.146 68.1397 348.201 68.0298 348.373C67.9099 348.565 67.9512 348.778 68.0455 348.906C68.1181 349.006 68.2321 349.057 68.346 349.057Z" fill="#FAFF00"/>
<path d="M70.2274 349.315C70.0212 349.315 69.8542 349.482 69.8542 349.688V349.762C69.8542 349.968 70.0212 350.134 70.2274 350.134C70.4337 350.134 70.6007 349.968 70.6007 349.762V349.688C70.6007 349.482 70.4337 349.315 70.2274 349.315Z" fill="#FAFF00"/>
<path d="M69.403 349.422C69.6092 349.422 69.7762 349.255 69.7762 349.05V348.912C69.7762 348.707 69.6092 348.54 69.403 348.54C69.1967 348.54 69.0298 348.707 69.0298 348.912V349.05C69.0298 349.255 69.1967 349.422 69.403 349.422Z" fill="#FAFF00"/>
<path d="M71.0582 348.628V348.524C71.0582 348.318 70.8912 348.152 70.685 348.152C70.4787 348.152 70.3118 348.318 70.3118 348.524V348.628C70.3118 348.833 70.4787 349 70.685 349C70.8912 349 71.0582 348.833 71.0582 348.628Z" fill="#FAFF00"/>
<path d="M71.6969 348.377H71.7834C71.9896 348.377 72.1566 348.21 72.1566 348.005C72.1566 347.799 71.9896 347.633 71.7834 347.633H71.6969C71.4907 347.633 71.3237 347.799 71.3237 348.005C71.3237 348.21 71.4907 348.377 71.6969 348.377Z" fill="#FAFF00"/>
<path d="M73.8678 349.067C73.691 349.173 73.634 349.402 73.7401 349.578L73.8108 349.694C73.8815 349.809 74.0053 349.874 74.131 349.874C74.1958 349.874 74.2626 349.856 74.3235 349.821C74.5003 349.715 74.5572 349.486 74.4512 349.31L74.3805 349.194C74.2744 349.018 74.0446 348.961 73.8678 349.067Z" fill="#FAFF00"/>
<path d="M74.0051 348.82C74.0798 348.82 74.1564 348.798 74.2212 348.751L74.2762 348.712C74.4432 348.593 74.4824 348.36 74.3626 348.193C74.2428 348.027 74.0091 347.987 73.8421 348.107L73.7871 348.146C73.6201 348.266 73.5809 348.499 73.7007 348.665C73.7753 348.765 73.8892 348.82 74.0051 348.82Z" fill="#FAFF00"/>
<path d="M74.9851 348.958C75.0676 348.958 75.1521 348.931 75.2209 348.874L75.3446 348.774C75.5037 348.645 75.5292 348.41 75.3996 348.251C75.27 348.091 75.0343 348.067 74.8751 348.196L74.7514 348.296C74.5923 348.425 74.5668 348.661 74.6964 348.819C74.7691 348.911 74.8771 348.958 74.9851 348.958Z" fill="#FAFF00"/>
<path d="M75.2111 349.071C75.0049 349.071 74.8379 349.237 74.8379 349.443V349.537C74.8379 349.742 75.0049 349.909 75.2111 349.909C75.4173 349.909 75.5843 349.742 75.5843 349.537V349.443C75.5843 349.239 75.4173 349.071 75.2111 349.071Z" fill="#FAFF00"/>
</svg>
