<svg width="513" height="261" viewBox="0 0 513 261" fill="none" xmlns="http://www.w3.org/2000/svg">
<rect x="0.5" y="33.3076" width="497" height="161" rx="9.5" fill="white" stroke="#111111"/>
<rect x="24.5" y="1.30762" width="449" height="63" rx="9.5" fill="white" stroke="#111111"/>
<rect x="24.5" y="81.3076" width="449" height="63" rx="9.5" fill="white" stroke="#111111"/>
<rect x="24.5" y="161.308" width="449" height="63" rx="9.5" fill="white" stroke="#111111"/>
<g clip-path="url(#clip0_144_21197)">
<path d="M64.6164 48.9462C64.3138 48.9378 64.0159 48.8821 63.7155 48.8521C63.36 48.8165 63.0056 48.7712 62.6501 48.7364C62.1845 48.6911 61.7183 48.6482 61.2519 48.611C60.8235 48.5768 60.3946 48.5491 59.966 48.5225C59.4606 48.4914 58.9549 48.4665 58.4495 48.4348C58.3049 48.4259 58.3046 48.42 58.257 48.2844C57.9288 47.353 57.6003 46.4216 57.2729 45.4899C56.5586 43.4568 55.8452 41.4236 55.1312 39.3905C54.611 37.9099 54.0906 36.4296 53.5702 34.949C53.566 34.937 53.5602 34.9255 53.5552 34.9137C53.5552 34.8552 53.5162 34.8107 53.4979 34.7586C53.1262 33.6955 52.7524 32.6333 52.3794 31.5706C51.9555 30.3624 51.5319 29.1541 51.1083 27.9459C50.7074 26.8025 50.3069 25.6588 49.9061 24.5151C49.5478 23.4927 49.1893 22.4702 48.8308 21.4481C48.477 20.438 48.1229 19.4276 47.7679 18.4177C47.6559 18.0987 47.5401 17.7812 47.4264 17.4628C47.3724 17.2617 47.3032 17.0659 47.2167 16.8766C47.2139 16.8492 47.2164 16.8234 47.2506 16.8203C47.2845 16.8173 47.3187 16.8175 47.3527 16.8175C49.3409 16.8142 51.3294 16.8108 53.3179 16.8077C53.3393 16.8077 53.3605 16.8075 53.3819 16.8077C53.4917 16.8091 53.4926 16.8089 53.5273 16.908C53.8191 17.7392 54.1103 18.5706 54.4024 19.4018C54.947 20.9513 55.4922 22.5005 56.0371 24.0497C56.5125 25.4012 56.9881 26.7527 57.4637 28.1042C57.7945 29.044 58.1255 29.9838 58.4567 30.9237C58.4651 30.9475 58.4773 30.9701 58.4876 30.9931C58.603 31.3289 58.7168 31.6649 58.8339 31.9999C59.2141 33.0867 59.5958 34.173 59.9763 35.2599C60.327 36.2619 60.6761 37.2641 61.0268 38.2661C61.3551 39.2034 61.685 40.1402 62.0129 41.0775C62.338 42.0067 62.6615 42.9367 62.9864 43.8659C63.3016 44.7668 63.6175 45.6677 63.9338 46.5683C64.0515 46.9035 64.1719 47.2376 64.2912 47.5723C64.3674 47.8571 64.4865 48.1273 64.5741 48.4082C64.6211 48.5589 64.6745 48.7076 64.726 48.8568C64.7421 48.9033 64.7321 48.9313 64.6792 48.9358C64.6581 48.9378 64.6375 48.9428 64.6164 48.9462Z" fill="#E31019"/>
<path d="M64.6164 48.9463C64.6373 48.943 64.6582 48.9379 64.679 48.9363C64.7322 48.9318 64.7419 48.9041 64.7258 48.8573C64.6743 48.708 64.6209 48.5593 64.5739 48.4087C64.4865 48.1275 64.3672 47.8575 64.291 47.5727C64.3241 47.5066 64.2885 47.4467 64.2718 47.3868C64.2217 47.205 64.1661 47.025 64.1141 46.8438C63.9353 46.2224 63.7578 45.6004 63.5781 44.979C63.3497 44.189 63.1189 43.3995 62.8902 42.6098C62.683 41.894 62.4777 41.1776 62.2705 40.4616C62.0266 39.6181 61.781 38.7751 61.537 37.9316C61.3109 37.1498 61.087 36.3676 60.8609 35.5857C60.6183 34.7464 60.3738 33.9074 60.1313 33.0681C59.9054 32.2862 59.6809 31.5041 59.4554 30.7222C59.2832 30.1254 59.1102 29.5289 58.938 28.9324C58.8254 28.5415 58.7141 28.15 58.6003 27.7593C58.5839 27.7033 58.5784 27.6389 58.5183 27.6056C58.5163 27.3227 58.5124 27.0396 58.5127 26.7568C58.516 24.4027 58.5197 22.0489 58.5244 19.6949C58.5261 18.7903 58.5311 17.8855 58.5347 16.981C58.5347 16.9594 58.5364 16.9381 58.535 16.9166C58.5311 16.8555 58.5608 16.8309 58.6192 16.8334C58.6532 16.8348 58.6874 16.8331 58.7213 16.8331C60.6803 16.8331 62.6391 16.8331 64.5981 16.8331C64.7986 16.8331 64.7839 16.8227 64.7842 17.0227C64.7883 21.602 64.7931 26.1813 64.7959 30.7605C64.7984 34.9755 64.7992 39.1902 64.7992 43.4051C64.7992 44.8843 64.795 46.3635 64.7911 47.843C64.7903 48.1731 64.7831 48.503 64.7783 48.8332C64.7769 48.9715 64.7678 48.9774 64.6164 48.9463Z" fill="#B11917"/>
<path d="M47.2167 16.8767C47.3029 17.0663 47.3722 17.2618 47.4262 17.4631C47.3986 17.5096 47.4192 17.5555 47.4306 17.6001C47.4495 17.6748 47.4721 17.7485 47.4937 17.8224C47.7394 18.6609 47.9858 19.499 48.2306 20.3381C48.4489 21.0863 48.6642 21.8355 48.882 22.584C49.0567 23.1844 49.2336 23.7843 49.408 24.3847C49.5802 24.977 49.7498 25.5698 49.9223 26.1619C50.1668 27.0006 50.4143 27.8388 50.6588 28.6775C50.8758 29.4219 51.0902 30.1668 51.3066 30.9111C51.4716 31.4788 51.6376 32.0459 51.8031 32.6132C51.9709 33.189 52.138 33.7648 52.3058 34.3405C52.4676 34.8956 52.6301 35.4506 52.792 36.0057C52.9875 36.6758 53.1792 37.3474 53.3794 38.0161C53.4612 38.2889 53.5238 38.5603 53.5054 38.8487C53.4949 39.0148 53.4951 39.1828 53.5093 39.3497C53.5113 39.3925 53.5146 39.4351 53.5146 39.478C53.5115 41.8362 53.5082 44.1947 53.5043 46.553C53.5035 47.089 53.4962 47.6247 53.479 48.1605C53.4768 48.2288 53.4682 48.2971 53.462 48.3652C53.457 48.4223 53.425 48.445 53.3686 48.4467C53.2409 48.4509 53.1135 48.4587 52.9858 48.4663C52.5058 48.4954 52.0254 48.5212 51.5453 48.555C50.9637 48.5959 50.3818 48.6343 49.8018 48.6976C49.3448 48.7474 48.8873 48.7894 48.4303 48.8384C48.0748 48.8768 47.7199 48.9185 47.3633 48.9474C47.2231 48.9589 47.2214 48.9605 47.2212 48.8149C47.2187 47.9059 47.2164 46.9969 47.2156 46.0878C47.2128 43.3179 47.2095 40.5477 47.2084 37.7778C47.2056 30.87 47.2039 23.9621 47.2022 17.0545C47.2025 16.9949 47.1911 16.9341 47.2167 16.8767Z" fill="#B11917"/>
<path d="M53.5091 39.3492C53.4949 39.1823 53.4946 39.0143 53.5052 38.8482C53.5235 38.5597 53.4607 38.2884 53.3792 38.0156C53.1789 37.3469 52.9872 36.6756 52.7917 36.0052C52.6298 35.4501 52.4674 34.8951 52.3055 34.34C52.1378 33.7643 51.9706 33.1885 51.8029 32.6127C51.6377 32.0454 51.4713 31.478 51.3064 30.9106C51.09 30.1663 50.8755 29.4213 50.6586 28.677C50.4141 27.8383 50.1668 27.0001 49.922 26.1613C49.7493 25.5693 49.5799 24.9762 49.4077 24.3842C49.233 23.7838 49.0564 23.1839 48.8817 22.5835C48.664 21.8349 48.4484 21.0858 48.2303 20.3375C47.9861 19.4988 47.7394 18.6606 47.4938 17.8222C47.4721 17.7483 47.4495 17.6743 47.4306 17.5998C47.4192 17.5553 47.3989 17.5094 47.4262 17.4629C47.5402 17.781 47.6557 18.0989 47.7678 18.4178C48.1229 19.4277 48.4768 20.4381 48.8308 21.4482C49.1894 22.4706 49.5479 23.4928 49.9062 24.5152C50.307 25.6589 50.7075 26.8024 51.1083 27.9461C51.532 29.1545 51.9553 30.3626 52.3795 31.5707C52.7525 32.6335 53.126 33.6957 53.4979 34.7587C53.5163 34.8108 53.555 34.8553 53.5552 34.9139C53.5163 34.9578 53.5319 35.0116 53.5319 35.0612C53.5285 36.4183 53.5266 37.7753 53.5235 39.1327C53.523 39.205 53.5324 39.2783 53.5091 39.3492Z" fill="#9D1A15"/>
<path d="M58.519 27.6055C58.5791 27.6388 58.5847 27.7032 58.6011 27.7592C58.7149 28.1499 58.8261 28.5414 58.9388 28.9323C59.1109 29.5291 59.284 30.1256 59.4561 30.7221C59.6817 31.504 59.9062 32.2861 60.132 33.068C60.3746 33.9073 60.6191 34.7463 60.8616 35.5856C61.0875 36.3675 61.3117 37.1497 61.5378 37.9315C61.7818 38.775 62.0271 39.618 62.2713 40.4615C62.4785 41.1773 62.6838 41.8939 62.891 42.6097C63.1197 43.3997 63.3502 44.1888 63.5789 44.9789C63.7586 45.6003 63.936 46.2222 64.1149 46.8437C64.1669 47.0249 64.2225 47.2049 64.2726 47.3867C64.2893 47.4466 64.3249 47.5068 64.2918 47.5726C64.1725 47.238 64.052 46.9039 63.9344 46.5687C63.6178 45.668 63.3021 44.7674 62.987 43.8662C62.6618 42.937 62.3386 42.007 62.0135 41.0778C61.6855 40.1405 61.3556 39.2038 61.0274 38.2665C60.6767 37.2645 60.3273 36.2622 59.9768 35.2602C59.5963 34.1733 59.2147 33.0871 58.8345 32.0002C58.7174 31.6653 58.6033 31.3289 58.4882 30.9934C58.4918 30.9422 58.4987 30.8912 58.499 30.84C58.5043 29.8173 58.5087 28.7945 58.5137 27.7718C58.5132 27.7164 58.5171 27.6609 58.519 27.6055Z" fill="#9D1A15"/>
</g>
<path d="M407.097 40.8876H405.977V38.9676C404.74 38.8503 403.678 38.541 402.793 38.0396V36.6956C403.913 37.3783 405.214 37.7196 406.697 37.7196C408.51 37.7196 409.417 37.165 409.417 36.0556C409.417 35.6503 409.294 35.309 409.049 35.0316C408.814 34.7436 408.5 34.5196 408.105 34.3596C407.721 34.1996 407.294 34.0556 406.825 33.9276C406.356 33.7996 405.886 33.661 405.417 33.5116C404.948 33.3516 404.516 33.1703 404.121 32.9676C403.737 32.7543 403.422 32.4556 403.177 32.0716C402.942 31.6876 402.825 31.229 402.825 30.6956C402.825 29.853 403.118 29.181 403.705 28.6796C404.292 28.1783 405.049 27.8743 405.977 27.7676V25.8476H407.097V27.7516C408.26 27.8156 409.246 28.0823 410.057 28.5516V29.8956C409.118 29.2876 408.02 28.9943 406.761 29.0156C405.044 29.0156 404.185 29.5596 404.185 30.6476C404.185 31.0316 404.302 31.3569 404.537 31.6236C404.782 31.8903 405.097 32.0983 405.481 32.2476C405.876 32.397 406.308 32.5356 406.777 32.6636C407.246 32.781 407.716 32.9196 408.185 33.0796C408.654 33.2396 409.081 33.4263 409.465 33.6396C409.86 33.853 410.174 34.157 410.409 34.5516C410.654 34.9463 410.777 35.4156 410.777 35.9596C410.777 36.9623 410.436 37.7143 409.753 38.2156C409.07 38.7063 408.185 38.9676 407.097 38.9996V40.8876ZM414.761 27.9276H415.753V37.5276H417.785V38.8076H412.121V37.5276H414.409V29.3516L412.121 30.2156V28.9356L414.761 27.9276ZM419.156 28.7916C420.169 28.0876 421.332 27.7356 422.644 27.7356C423.775 27.7356 424.676 27.9916 425.348 28.5036C426.02 29.0156 426.356 29.7303 426.356 30.6476C426.356 31.085 426.271 31.4956 426.1 31.8796C425.94 32.2636 425.695 32.6156 425.364 32.9356C425.044 33.2556 424.729 33.5276 424.42 33.7516C424.121 33.965 423.743 34.205 423.284 34.4716C423.231 34.5036 423.065 34.5996 422.788 34.7596C422.521 34.9196 422.351 35.021 422.276 35.0636C422.212 35.1063 422.063 35.2023 421.828 35.3516C421.604 35.4903 421.455 35.5916 421.38 35.6556C421.316 35.7196 421.199 35.821 421.028 35.9596C420.868 36.0983 420.756 36.2156 420.692 36.3116C420.639 36.4076 420.564 36.5303 420.468 36.6796C420.383 36.8183 420.324 36.957 420.292 37.0956C420.26 37.2343 420.244 37.3836 420.244 37.5436L426.436 37.5276V38.8076H418.772V38.1676C418.772 37.5703 418.868 37.0316 419.06 36.5516C419.252 36.061 419.524 35.645 419.876 35.3036C420.239 34.9516 420.596 34.6583 420.948 34.4236C421.3 34.1783 421.711 33.917 422.18 33.6396C422.287 33.5863 422.367 33.5436 422.42 33.5116C423.391 32.9463 424.025 32.5143 424.324 32.2156C424.783 31.7463 425.012 31.2183 425.012 30.6316C425.012 30.0983 424.793 29.6929 424.356 29.4156C423.929 29.1276 423.321 28.9836 422.532 28.9836C421.38 28.9836 420.255 29.3676 419.156 30.1356V28.7916ZM429.496 37.5436C429.656 37.6823 429.736 37.8796 429.736 38.1356C429.736 38.3916 429.656 38.5943 429.496 38.7436C429.336 38.8823 429.138 38.9516 428.904 38.9516C428.669 38.9516 428.466 38.8823 428.296 38.7436C428.136 38.5943 428.056 38.3916 428.056 38.1356C428.056 37.8796 428.136 37.6823 428.296 37.5436C428.466 37.405 428.669 37.3356 428.904 37.3356C429.138 37.3356 429.336 37.405 429.496 37.5436ZM430.844 31.3036C430.844 30.1836 431.212 29.309 431.948 28.6796C432.695 28.0503 433.628 27.7356 434.748 27.7356C436.284 27.7356 437.431 28.2156 438.188 29.1756C438.956 30.125 439.34 31.4636 439.34 33.1916C439.34 35.1116 438.882 36.5623 437.964 37.5436C437.058 38.5143 435.868 38.9996 434.396 38.9996C433.447 38.9996 432.567 38.7916 431.756 38.3756V37.0956C432.546 37.5116 433.415 37.7196 434.364 37.7196C435.367 37.7196 436.199 37.3996 436.86 36.7596C437.532 36.109 437.906 35.0796 437.98 33.6716C436.935 34.365 435.799 34.7116 434.572 34.7116C433.58 34.7116 432.711 34.413 431.964 33.8156C431.218 33.2076 430.844 32.3703 430.844 31.3036ZM434.844 28.9836C434.055 28.9836 433.415 29.165 432.924 29.5276C432.444 29.8903 432.204 30.461 432.204 31.2396C432.204 32.029 432.455 32.5996 432.956 32.9516C433.458 33.293 434.108 33.4636 434.908 33.4636C436.092 33.4636 437.111 33.085 437.964 32.3276C437.762 30.0983 436.722 28.9836 434.844 28.9836ZM440.686 31.3036C440.686 30.1836 441.054 29.309 441.79 28.6796C442.537 28.0503 443.47 27.7356 444.59 27.7356C446.126 27.7356 447.273 28.2156 448.03 29.1756C448.798 30.125 449.182 31.4636 449.182 33.1916C449.182 35.1116 448.723 36.5623 447.806 37.5436C446.899 38.5143 445.71 38.9996 444.238 38.9996C443.289 38.9996 442.409 38.7916 441.598 38.3756V37.0956C442.387 37.5116 443.257 37.7196 444.206 37.7196C445.209 37.7196 446.041 37.3996 446.702 36.7596C447.374 36.109 447.747 35.0796 447.822 33.6716C446.777 34.365 445.641 34.7116 444.414 34.7116C443.422 34.7116 442.553 34.413 441.806 33.8156C441.059 33.2076 440.686 32.3703 440.686 31.3036ZM444.686 28.9836C443.897 28.9836 443.257 29.165 442.766 29.5276C442.286 29.8903 442.046 30.461 442.046 31.2396C442.046 32.029 442.297 32.5996 442.798 32.9516C443.299 33.293 443.95 33.4636 444.75 33.4636C445.934 33.4636 446.953 33.085 447.806 32.3276C447.603 30.0983 446.563 28.9836 444.686 28.9836Z" fill="#111111"/>
<path d="M414.048 120.888H412.928V118.968C411.691 118.85 410.63 118.541 409.744 118.04V116.696C410.864 117.378 412.166 117.72 413.648 117.72C415.462 117.72 416.368 117.165 416.368 116.056C416.368 115.65 416.246 115.309 416 115.032C415.766 114.744 415.451 114.52 415.056 114.36C414.672 114.2 414.246 114.056 413.776 113.928C413.307 113.8 412.838 113.661 412.368 113.512C411.899 113.352 411.467 113.17 411.072 112.968C410.688 112.754 410.374 112.456 410.128 112.072C409.894 111.688 409.776 111.229 409.776 110.696C409.776 109.853 410.07 109.181 410.656 108.68C411.243 108.178 412 107.874 412.928 107.768V105.848H414.048V107.752C415.211 107.816 416.198 108.082 417.008 108.552V109.896C416.07 109.288 414.971 108.994 413.712 109.016C411.995 109.016 411.136 109.56 411.136 110.648C411.136 111.032 411.254 111.357 411.488 111.624C411.734 111.89 412.048 112.098 412.432 112.248C412.827 112.397 413.259 112.536 413.728 112.664C414.198 112.781 414.667 112.92 415.136 113.08C415.606 113.24 416.032 113.426 416.416 113.64C416.811 113.853 417.126 114.157 417.36 114.552C417.606 114.946 417.728 115.416 417.728 115.96C417.728 116.962 417.387 117.714 416.704 118.216C416.022 118.706 415.136 118.968 414.048 119V120.888ZM419.728 107.928H426.256V109.208H420.992L420.8 112.28C421.376 112.12 421.995 112.04 422.656 112.04C423.2 112.04 423.707 112.104 424.176 112.232C424.646 112.349 425.078 112.541 425.472 112.808C425.878 113.064 426.198 113.426 426.432 113.896C426.667 114.354 426.784 114.898 426.784 115.528C426.784 116.605 426.384 117.453 425.584 118.072C424.795 118.69 423.787 119 422.56 119C421.238 119 420.075 118.754 419.072 118.264V116.984C420.032 117.496 421.142 117.752 422.4 117.752C423.318 117.752 424.048 117.56 424.592 117.176C425.147 116.792 425.424 116.242 425.424 115.528C425.424 114.013 424.347 113.256 422.192 113.256C421.254 113.256 420.315 113.426 419.376 113.768L419.728 107.928ZM429.496 117.544C429.656 117.682 429.736 117.88 429.736 118.136C429.736 118.392 429.656 118.594 429.496 118.744C429.336 118.882 429.138 118.952 428.904 118.952C428.669 118.952 428.466 118.882 428.296 118.744C428.136 118.594 428.056 118.392 428.056 118.136C428.056 117.88 428.136 117.682 428.296 117.544C428.466 117.405 428.669 117.336 428.904 117.336C429.138 117.336 429.336 117.405 429.496 117.544ZM430.844 111.304C430.844 110.184 431.212 109.309 431.948 108.68C432.695 108.05 433.628 107.736 434.748 107.736C436.284 107.736 437.431 108.216 438.188 109.176C438.956 110.125 439.34 111.464 439.34 113.192C439.34 115.112 438.882 116.562 437.964 117.544C437.058 118.514 435.868 119 434.396 119C433.447 119 432.567 118.792 431.756 118.376V117.096C432.546 117.512 433.415 117.72 434.364 117.72C435.367 117.72 436.199 117.4 436.86 116.76C437.532 116.109 437.906 115.08 437.98 113.672C436.935 114.365 435.799 114.712 434.572 114.712C433.58 114.712 432.711 114.413 431.964 113.816C431.218 113.208 430.844 112.37 430.844 111.304ZM434.844 108.984C434.055 108.984 433.415 109.165 432.924 109.528C432.444 109.89 432.204 110.461 432.204 111.24C432.204 112.029 432.455 112.6 432.956 112.952C433.458 113.293 434.108 113.464 434.908 113.464C436.092 113.464 437.111 113.085 437.964 112.328C437.762 110.098 436.722 108.984 434.844 108.984ZM440.686 111.304C440.686 110.184 441.054 109.309 441.79 108.68C442.537 108.05 443.47 107.736 444.59 107.736C446.126 107.736 447.273 108.216 448.03 109.176C448.798 110.125 449.182 111.464 449.182 113.192C449.182 115.112 448.723 116.562 447.806 117.544C446.899 118.514 445.71 119 444.238 119C443.289 119 442.409 118.792 441.598 118.376V117.096C442.387 117.512 443.257 117.72 444.206 117.72C445.209 117.72 446.041 117.4 446.702 116.76C447.374 116.109 447.747 115.08 447.822 113.672C446.777 114.365 445.641 114.712 444.414 114.712C443.422 114.712 442.553 114.413 441.806 113.816C441.059 113.208 440.686 112.37 440.686 111.304ZM444.686 108.984C443.897 108.984 443.257 109.165 442.766 109.528C442.286 109.89 442.046 110.461 442.046 111.24C442.046 112.029 442.297 112.6 442.798 112.952C443.299 113.293 443.95 113.464 444.75 113.464C445.934 113.464 446.953 113.085 447.806 112.328C447.603 110.098 446.563 108.984 444.686 108.984Z" fill="#111111"/>
<path d="M416.751 200.888H415.631V198.968C414.394 198.85 413.333 198.541 412.447 198.04V196.696C413.567 197.378 414.869 197.72 416.351 197.72C418.165 197.72 419.071 197.165 419.071 196.056C419.071 195.65 418.949 195.309 418.703 195.032C418.469 194.744 418.154 194.52 417.759 194.36C417.375 194.2 416.949 194.056 416.479 193.928C416.01 193.8 415.541 193.661 415.071 193.512C414.602 193.352 414.17 193.17 413.775 192.968C413.391 192.754 413.077 192.456 412.831 192.072C412.597 191.688 412.479 191.229 412.479 190.696C412.479 189.853 412.773 189.181 413.359 188.68C413.946 188.178 414.703 187.874 415.631 187.768V185.848H416.751V187.752C417.914 187.816 418.901 188.082 419.711 188.552V189.896C418.773 189.288 417.674 188.994 416.415 189.016C414.698 189.016 413.839 189.56 413.839 190.648C413.839 191.032 413.957 191.357 414.191 191.624C414.437 191.89 414.751 192.098 415.135 192.248C415.53 192.397 415.962 192.536 416.431 192.664C416.901 192.781 417.37 192.92 417.839 193.08C418.309 193.24 418.735 193.426 419.119 193.64C419.514 193.853 419.829 194.157 420.063 194.552C420.309 194.946 420.431 195.416 420.431 195.96C420.431 196.962 420.09 197.714 419.407 198.216C418.725 198.706 417.839 198.968 416.751 199V200.888ZM428.32 187.928H429.312V197.528H431.344V198.808H425.68V197.528H427.968V189.352L425.68 190.216V188.936L428.32 187.928ZM432.715 188.792C433.728 188.088 434.891 187.736 436.203 187.736C437.334 187.736 438.235 187.992 438.907 188.504C439.579 189.016 439.915 189.73 439.915 190.648C439.915 191.085 439.83 191.496 439.659 191.88C439.499 192.264 439.254 192.616 438.923 192.936C438.603 193.256 438.288 193.528 437.979 193.752C437.68 193.965 437.302 194.205 436.843 194.472C436.79 194.504 436.624 194.6 436.347 194.76C436.08 194.92 435.91 195.021 435.835 195.064C435.771 195.106 435.622 195.202 435.387 195.352C435.163 195.49 435.014 195.592 434.939 195.656C434.875 195.72 434.758 195.821 434.587 195.96C434.427 196.098 434.315 196.216 434.251 196.312C434.198 196.408 434.123 196.53 434.027 196.68C433.942 196.818 433.883 196.957 433.851 197.096C433.819 197.234 433.803 197.384 433.803 197.544L439.995 197.528V198.808H432.331V198.168C432.331 197.57 432.427 197.032 432.619 196.552C432.811 196.061 433.083 195.645 433.435 195.304C433.798 194.952 434.155 194.658 434.507 194.424C434.859 194.178 435.27 193.917 435.739 193.64C435.846 193.586 435.926 193.544 435.979 193.512C436.95 192.946 437.584 192.514 437.883 192.216C438.342 191.746 438.571 191.218 438.571 190.632C438.571 190.098 438.352 189.693 437.915 189.416C437.488 189.128 436.88 188.984 436.091 188.984C434.939 188.984 433.814 189.368 432.715 190.136V188.792ZM442.238 187.928H448.766V189.208H443.502L443.31 192.28C443.886 192.12 444.505 192.04 445.166 192.04C445.71 192.04 446.217 192.104 446.686 192.232C447.156 192.349 447.588 192.541 447.982 192.808C448.388 193.064 448.708 193.426 448.942 193.896C449.177 194.354 449.294 194.898 449.294 195.528C449.294 196.605 448.894 197.453 448.094 198.072C447.305 198.69 446.297 199 445.07 199C443.748 199 442.585 198.754 441.582 198.264V196.984C442.542 197.496 443.652 197.752 444.91 197.752C445.828 197.752 446.558 197.56 447.102 197.176C447.657 196.792 447.934 196.242 447.934 195.528C447.934 194.013 446.857 193.256 444.702 193.256C443.764 193.256 442.825 193.426 441.886 193.768L442.238 187.928Z" fill="#111111"/>
<path d="M90.816 38.8076H89.472V27.6076H90.72L97.456 36.5516V35.5916V27.6076H98.8V38.8076H97.552L90.816 29.8476V30.8076V38.8076ZM100.67 34.9676C100.67 33.709 101.054 32.7223 101.822 32.0076C102.6 31.293 103.491 30.9356 104.494 30.9356C105.432 30.9356 106.206 31.1703 106.814 31.6396C107.432 32.109 107.838 32.6903 108.03 33.3836C108.222 34.0663 108.232 34.781 108.062 35.5276H101.95C102.024 36.285 102.36 36.8556 102.958 37.2396C103.555 37.6236 104.275 37.8156 105.118 37.8156C106.056 37.8156 106.899 37.6076 107.646 37.1916V38.4396C106.931 38.813 106.024 38.9996 104.926 38.9996C103.71 38.9996 102.696 38.653 101.886 37.9596C101.075 37.2663 100.67 36.269 100.67 34.9676ZM106.926 34.4076C106.958 34.1836 106.942 33.949 106.878 33.7036C106.814 33.4583 106.696 33.213 106.526 32.9676C106.366 32.7223 106.115 32.5196 105.774 32.3596C105.432 32.1996 105.032 32.1196 104.574 32.1196C103.88 32.1196 103.278 32.3223 102.766 32.7276C102.264 33.133 101.992 33.693 101.95 34.4076H106.926ZM110.317 28.7436L111.581 28.4236V31.1276H114.653V32.3116H111.581V36.2796C111.581 36.845 111.709 37.2396 111.965 37.4636C112.232 37.6876 112.653 37.7996 113.229 37.7996C113.784 37.7996 114.349 37.6823 114.925 37.4476V38.6316C114.275 38.8663 113.587 38.9836 112.861 38.9836C112.083 38.9836 111.464 38.7756 111.005 38.3596C110.547 37.933 110.317 37.3143 110.317 36.5036V32.3116H108.877V31.1276H110.317V28.7436ZM118.16 38.8076H116.88V32.3116H115.44V31.1276H116.88V30.1996C116.88 29.6876 116.954 29.2449 117.104 28.8716C117.264 28.4876 117.477 28.1943 117.744 27.9916C118.01 27.7889 118.293 27.6449 118.592 27.5596C118.901 27.4636 119.237 27.4156 119.6 27.4156C120.282 27.4156 120.922 27.533 121.52 27.7676V28.9516C121.029 28.717 120.49 28.5996 119.904 28.5996C119.36 28.5996 118.933 28.717 118.624 28.9516C118.314 29.1756 118.16 29.6076 118.16 30.2476V31.1276H121.04V32.3116H118.16V38.8076ZM122.334 27.1276H123.614V38.8076H122.334V27.1276ZM127.252 38.8076H125.972V31.1276H127.252V38.8076ZM127.204 28.0876C127.364 28.2263 127.444 28.4236 127.444 28.6796C127.444 28.9356 127.364 29.1383 127.204 29.2876C127.044 29.4263 126.847 29.4956 126.612 29.4956C126.378 29.4956 126.18 29.4263 126.02 29.2876C125.86 29.1383 125.78 28.9356 125.78 28.6796C125.78 28.4236 125.86 28.2263 126.02 28.0876C126.18 27.9383 126.378 27.8636 126.612 27.8636C126.847 27.8636 127.044 27.9383 127.204 28.0876ZM134.395 31.1276H135.867L133.051 34.8556L136.027 38.8076H134.555L132.315 35.7676L130.059 38.8076H128.587L131.579 34.8556L128.747 31.1276H130.219L132.315 33.9596L134.395 31.1276Z" fill="#111111"/>
<path d="M88.8 110.376C88.8 109.426 89.168 108.696 89.904 108.184C90.64 107.672 91.552 107.416 92.64 107.416C93.952 107.416 95.0827 107.688 96.032 108.232V109.576C95.0933 108.968 93.9947 108.674 92.736 108.696C91.0187 108.696 90.16 109.24 90.16 110.328C90.16 110.765 90.3253 111.138 90.656 111.448C90.9867 111.757 91.3973 111.992 91.888 112.152C92.3787 112.312 92.912 112.498 93.488 112.712C94.0747 112.914 94.6133 113.128 95.104 113.352C95.5947 113.565 96.0053 113.896 96.336 114.344C96.6667 114.792 96.832 115.33 96.832 115.96C96.832 116.493 96.7147 116.962 96.48 117.368C96.256 117.773 95.9467 118.093 95.552 118.328C95.1573 118.562 94.72 118.733 94.24 118.84C93.76 118.946 93.2427 119 92.688 119C91.2693 119 89.9893 118.68 88.848 118.04V116.696C89.968 117.378 91.216 117.72 92.592 117.72C94.512 117.72 95.472 117.165 95.472 116.056C95.472 115.65 95.3493 115.304 95.104 115.016C94.8587 114.717 94.5387 114.477 94.144 114.296C93.7493 114.114 93.312 113.949 92.832 113.8C92.3627 113.65 91.8933 113.49 91.424 113.32C90.9547 113.138 90.5227 112.936 90.128 112.712C89.7333 112.477 89.4133 112.162 89.168 111.768C88.9227 111.373 88.8 110.909 88.8 110.376ZM99.6154 112.408C100.479 111.426 101.514 110.936 102.719 110.936C103.818 110.936 104.73 111.32 105.455 112.088C106.191 112.856 106.559 113.816 106.559 114.968C106.559 116.12 106.191 117.08 105.455 117.848C104.73 118.616 103.818 119 102.719 119C101.503 119 100.511 118.552 99.7434 117.656V122.328H98.4634V111.128H99.6154V112.408ZM104.495 117.032C105.018 116.509 105.279 115.821 105.279 114.968C105.279 114.114 105.018 113.426 104.495 112.904C103.983 112.381 103.343 112.12 102.575 112.12C101.925 112.12 101.349 112.301 100.847 112.664C100.346 113.026 99.978 113.474 99.7434 114.008V115.928C99.978 116.461 100.346 116.909 100.847 117.272C101.349 117.634 101.925 117.816 102.575 117.816C103.343 117.816 103.983 117.554 104.495 117.032ZM109.009 117.928C108.198 117.202 107.793 116.216 107.793 114.968C107.793 113.72 108.198 112.738 109.009 112.024C109.82 111.298 110.78 110.936 111.889 110.936C113.009 110.936 113.969 111.298 114.769 112.024C115.58 112.738 115.985 113.72 115.985 114.968C115.985 116.216 115.58 117.202 114.769 117.928C113.969 118.642 113.009 119 111.889 119C110.78 119 109.82 118.642 109.009 117.928ZM113.905 117.032C114.438 116.52 114.705 115.832 114.705 114.968C114.705 114.104 114.438 113.421 113.905 112.92C113.372 112.408 112.7 112.152 111.889 112.152C111.078 112.152 110.406 112.408 109.873 112.92C109.34 113.421 109.073 114.104 109.073 114.968C109.073 115.832 109.34 116.52 109.873 117.032C110.406 117.533 111.078 117.784 111.889 117.784C112.7 117.784 113.372 117.533 113.905 117.032ZM118.128 108.744L119.392 108.424V111.128H122.464V112.312H119.392V116.28C119.392 116.845 119.52 117.24 119.776 117.464C120.043 117.688 120.464 117.8 121.04 117.8C121.595 117.8 122.16 117.682 122.736 117.448V118.632C122.085 118.866 121.397 118.984 120.672 118.984C119.893 118.984 119.275 118.776 118.816 118.36C118.357 117.933 118.128 117.314 118.128 116.504V112.312H116.688V111.128H118.128V108.744ZM125.41 118.808H124.13V111.128H125.41V118.808ZM125.362 108.088C125.522 108.226 125.602 108.424 125.602 108.68C125.602 108.936 125.522 109.138 125.362 109.288C125.202 109.426 125.005 109.496 124.77 109.496C124.536 109.496 124.338 109.426 124.178 109.288C124.018 109.138 123.938 108.936 123.938 108.68C123.938 108.424 124.018 108.226 124.178 108.088C124.338 107.938 124.536 107.864 124.77 107.864C125.005 107.864 125.202 107.938 125.362 108.088ZM129.609 118.808H128.329V112.312H126.889V111.128H128.329V110.2C128.329 109.688 128.404 109.245 128.553 108.872C128.713 108.488 128.926 108.194 129.193 107.992C129.46 107.789 129.742 107.645 130.041 107.56C130.35 107.464 130.686 107.416 131.049 107.416C131.732 107.416 132.372 107.533 132.969 107.768V108.952C132.478 108.717 131.94 108.6 131.353 108.6C130.809 108.6 130.382 108.717 130.073 108.952C129.764 109.176 129.609 109.608 129.609 110.248V111.128H132.489V112.312H129.609V118.808ZM136.983 117.352L139.575 111.128H140.935L137.159 119.96C136.423 121.666 135.458 122.52 134.263 122.52C133.975 122.52 133.698 122.482 133.431 122.408V121.304C133.655 121.368 133.879 121.4 134.103 121.4C134.924 121.4 135.586 120.776 136.087 119.528L136.375 118.824L132.727 111.128H134.087L136.983 117.352Z" fill="#111111"/>
<path d="M89.472 187.608H94.064C95.2373 187.608 96.1653 187.853 96.848 188.344C97.5307 188.824 97.872 189.522 97.872 190.44C97.872 191.101 97.696 191.645 97.344 192.072C96.992 192.488 96.5707 192.77 96.08 192.92C96.6773 193.08 97.2 193.389 97.648 193.848C98.096 194.296 98.32 194.925 98.32 195.736C98.32 196.226 98.224 196.658 98.032 197.032C97.8507 197.405 97.616 197.704 97.328 197.928C97.0507 198.141 96.72 198.317 96.336 198.456C95.9627 198.594 95.6 198.69 95.248 198.744C94.9067 198.786 94.5547 198.808 94.192 198.808H89.472V187.608ZM96.96 195.592C96.96 194.301 96.0693 193.656 94.288 193.656H90.816V197.528H93.92C94.2613 197.528 94.5493 197.522 94.784 197.512C95.0187 197.49 95.2853 197.448 95.584 197.384C95.8827 197.309 96.1227 197.208 96.304 197.08C96.4853 196.941 96.64 196.749 96.768 196.504C96.896 196.248 96.96 195.944 96.96 195.592ZM96.512 190.632C96.512 190.002 96.2933 189.554 95.856 189.288C95.4293 189.021 94.7947 188.888 93.952 188.888H90.816V192.376H94.32C94.96 192.376 95.4827 192.237 95.888 191.96C96.304 191.672 96.512 191.229 96.512 190.632ZM101.385 198.808H100.105V191.128H101.385V198.808ZM101.337 188.088C101.497 188.226 101.577 188.424 101.577 188.68C101.577 188.936 101.497 189.138 101.337 189.288C101.177 189.426 100.979 189.496 100.745 189.496C100.51 189.496 100.313 189.426 100.153 189.288C99.9928 189.138 99.9128 188.936 99.9128 188.68C99.9128 188.424 99.9928 188.226 100.153 188.088C100.313 187.938 100.51 187.864 100.745 187.864C100.979 187.864 101.177 187.938 101.337 188.088ZM103.744 187.128H105.024V198.808H103.744V187.128ZM107.382 187.128H108.662V198.808H107.382V187.128ZM110.541 193.144C110.541 192.408 110.824 191.858 111.389 191.496C111.965 191.122 112.658 190.936 113.469 190.936C114.461 190.936 115.368 191.154 116.189 191.592V192.808C115.869 192.594 115.464 192.424 114.973 192.296C114.482 192.157 114.008 192.088 113.549 192.088C113.08 192.088 112.674 192.173 112.333 192.344C112.002 192.504 111.837 192.76 111.837 193.112C111.837 193.368 111.954 193.592 112.189 193.784C112.434 193.965 112.738 194.104 113.101 194.2C113.464 194.296 113.853 194.418 114.269 194.568C114.696 194.706 115.09 194.856 115.453 195.016C115.816 195.165 116.114 195.4 116.349 195.72C116.594 196.029 116.717 196.402 116.717 196.84C116.717 197.586 116.418 198.136 115.821 198.488C115.224 198.829 114.466 199 113.549 199C112.344 199 111.352 198.749 110.573 198.248V197C111.384 197.544 112.354 197.816 113.485 197.816C114.786 197.816 115.437 197.501 115.437 196.872C115.437 196.584 115.266 196.344 114.925 196.152C114.594 195.949 114.189 195.784 113.709 195.656C113.229 195.517 112.749 195.362 112.269 195.192C111.789 195.021 111.378 194.765 111.037 194.424C110.706 194.082 110.541 193.656 110.541 193.144Z" fill="#111111"/>
<g clip-path="url(#clip1_144_21197)">
<path d="M56.0009 128.807C47.1809 128.831 39.9994 121.628 40 112.81C40.0006 104.003 47.1589 96.8159 55.9827 96.8071C64.8427 96.798 72.0069 104.011 72 112.823C71.9928 121.636 64.816 128.833 56.0009 128.807ZM53.4017 105.24C52.805 105.271 51.9592 105.3 51.1162 105.364C50.416 105.417 49.7154 105.489 49.0209 105.591C48.0279 105.737 47.0516 105.963 46.0828 106.23C45.3082 106.444 44.8132 107.212 44.9443 107.967C45.0594 108.631 45.6882 109.193 46.3586 109.211C46.7021 109.22 47.013 109.104 47.3336 109.018C48.9459 108.588 50.592 108.389 52.2532 108.299C53.5332 108.23 54.8135 108.26 56.0897 108.367C56.9136 108.436 57.7343 108.552 58.5528 108.673C59.7892 108.856 60.9998 109.154 62.1876 109.543C63.3242 109.916 64.4182 110.384 65.4507 110.991C65.8121 111.204 66.1983 111.274 66.6086 111.164C67.2207 111 67.6759 110.5 67.7361 109.884C67.7998 109.23 67.5379 108.72 66.9725 108.385C65.5172 107.522 63.958 106.9 62.3369 106.43C60.9318 106.022 59.504 105.718 58.0499 105.549C57.238 105.454 56.4242 105.366 55.6091 105.308C54.9578 105.262 54.3034 105.266 53.4017 105.24ZM53.3016 110.726C53.3007 110.735 53.2998 110.743 53.2988 110.752C53.0224 110.764 52.7451 110.768 52.4693 110.789C51.7114 110.848 50.9518 110.896 50.1964 110.979C49.0936 111.1 48.0173 111.354 46.9509 111.66C46.3965 111.818 45.9906 112.349 46.0094 112.926C46.0348 113.699 46.7846 114.309 47.5325 114.107C48.6431 113.806 49.7584 113.533 50.9073 113.438C51.7123 113.371 52.5211 113.295 53.3271 113.303C54.2274 113.312 55.1307 113.377 56.0254 113.481C56.8339 113.576 57.6395 113.724 58.4339 113.904C60.2676 114.32 62.0044 114.992 63.6157 115.974C63.8538 116.119 64.1217 116.176 64.3978 116.132C64.9597 116.043 65.386 115.637 65.4792 115.121C65.5777 114.574 65.3452 114.065 64.8383 113.773C64.3645 113.5 63.8889 113.227 63.398 112.988C61.0397 111.839 58.5431 111.176 55.9379 110.917C55.0616 110.83 54.1807 110.789 53.3016 110.726ZM53.5128 115.967C52.3561 115.988 51.2063 116.066 50.0665 116.25C49.1947 116.391 48.3263 116.554 47.4601 116.725C46.9277 116.829 46.5732 117.386 46.6877 117.892C46.8201 118.477 47.3289 118.803 47.9037 118.692C48.6689 118.543 49.4334 118.384 50.2049 118.277C51.0246 118.164 51.8503 118.073 52.6767 118.035C53.6985 117.987 54.7219 118.017 55.7412 118.143C56.5581 118.243 57.3647 118.389 58.1587 118.604C59.488 118.965 60.746 119.494 61.9228 120.212C62.1653 120.36 62.4245 120.422 62.7012 120.36C63.1463 120.259 63.4441 119.945 63.4968 119.483C63.5457 119.055 63.3594 118.719 62.9936 118.495C60.7501 117.127 58.3046 116.364 55.7001 116.099C54.9735 116.026 54.2419 116.01 53.5128 115.967Z" fill="#1ED760"/>
</g>
<rect x="393.5" y="155.308" width="119" height="105" rx="11.5" fill="white" stroke="#111111"/>
<line x1="401" y1="178.308" x2="505" y2="178.308" stroke="#111111"/>
<circle cx="414" cy="195.808" r="4.5" stroke="#111111"/>
<circle cx="414" cy="217.808" r="4.5" stroke="#111111"/>
<circle cx="414" cy="239.808" r="4.5" stroke="#111111"/>
<circle cx="440" cy="195.808" r="4.5" stroke="#111111"/>
<circle cx="440" cy="217.808" r="4.5" stroke="#111111"/>
<circle cx="440" cy="239.808" r="4.5" stroke="#111111"/>
<circle cx="466" cy="195.808" r="5" fill="#FAFF00"/>
<circle cx="466" cy="217.808" r="4.5" stroke="#111111"/>
<circle cx="466" cy="239.808" r="4.5" stroke="#111111"/>
<circle cx="492" cy="195.808" r="4.5" stroke="#111111"/>
<circle cx="492" cy="217.808" r="4.5" stroke="#111111"/>
<circle cx="492" cy="239.808" r="4.5" stroke="#111111"/>
<mask id="mask0_144_21197" style="mask-type:alpha" maskUnits="userSpaceOnUse" x="40" y="176" width="32" height="33">
<circle cx="56" cy="192.808" r="16" fill="#0566E9"/>
</mask>
<g mask="url(#mask0_144_21197)">
<rect x="39" y="171.808" width="36" height="43" fill="#3E1BDB"/>
</g>
<path fill-rule="evenodd" clip-rule="evenodd" d="M50.3848 182.839C50.2628 182.887 50.1272 183.012 50.0602 183.139C49.9785 183.293 49.9807 201.316 50.0624 201.471C50.1411 201.62 50.3274 201.763 50.4803 201.792C50.7419 201.84 50.8388 201.789 51.5549 201.228L52.2456 200.686L52.7788 201.208C53.3102 201.728 53.4241 201.808 53.6367 201.808C53.8388 201.808 53.9851 201.71 54.5206 201.218C54.8114 200.951 55.0604 200.732 55.0738 200.731C55.0873 200.731 55.3337 200.95 55.6215 201.217C56.1504 201.709 56.2965 201.808 56.4999 201.808C56.7114 201.808 56.8256 201.729 57.335 201.23L57.8454 200.731L58.317 201.199C58.9097 201.787 59.1081 201.887 59.4225 201.757C59.4893 201.73 59.7932 201.479 60.0976 201.2C60.4021 200.922 60.6633 200.694 60.678 200.694C60.6928 200.694 61.0365 200.94 61.4419 201.241L62.1789 201.789H62.3978C62.6433 201.789 62.7695 201.721 62.915 201.511L63 201.388V192.302V183.217L62.915 183.094C62.8683 183.026 62.7821 182.936 62.7234 182.893L62.6168 182.816L56.548 182.809C52.5673 182.804 50.4467 182.814 50.3848 182.839ZM59.9788 186.26C60.1595 186.38 60.2487 186.516 60.2683 186.701C60.292 186.925 60.1621 187.168 59.9595 187.28L59.8084 187.363L56.428 187.363C53.2133 187.363 53.04 187.359 52.8929 187.293C52.7152 187.214 52.5893 187.039 52.5561 186.824C52.527 186.636 52.6547 186.378 52.836 186.26L52.9643 186.176H56.4091H59.8539L59.9788 186.26ZM56.1589 189.106C56.4344 189.299 56.4982 189.72 56.289 189.964C56.0969 190.189 56.1196 190.186 54.4714 190.186C52.9704 190.186 52.9638 190.186 52.838 190.102C52.457 189.85 52.4678 189.32 52.8587 189.087L53.0098 188.997L54.5206 189.007L56.0314 189.016L56.1589 189.106ZM57.7133 191.903C57.9435 192.018 58.0521 192.187 58.0521 192.432C58.0521 192.678 57.9435 192.847 57.7133 192.961L57.5451 193.045L55.3341 193.045C53.9559 193.045 53.0712 193.03 52.9852 193.007C52.8096 192.959 52.5941 192.727 52.5602 192.55C52.5067 192.269 52.706 191.938 52.9756 191.858C53.0359 191.841 54.0888 191.825 55.3152 191.823L57.5451 191.82L57.7133 191.903ZM59.1856 194.762C59.3551 194.876 59.4471 195.006 59.4745 195.172C59.5069 195.368 59.4003 195.621 59.232 195.747L59.0967 195.848L56.0625 195.858C53.0993 195.868 53.0248 195.866 52.8812 195.794C52.7095 195.708 52.5881 195.534 52.5561 195.327C52.527 195.138 52.6547 194.881 52.836 194.763L52.9643 194.679H56.0125H59.0607L59.1856 194.762Z" fill="white"/>
<defs>
<clipPath id="clip0_144_21197">
<rect width="32" height="32" fill="white" transform="translate(40 16.8076)"/>
</clipPath>
<clipPath id="clip1_144_21197">
<rect width="32" height="32" fill="white" transform="translate(40 96.8076)"/>
</clipPath>
</defs>
</svg>
