<svg width="371" height="356" viewBox="0 0 371 356" fill="none" xmlns="http://www.w3.org/2000/svg">
<g opacity="0.25">
<path d="M325.213 204.154C325.213 154.168 284.948 113.673 235.305 113.673C185.662 113.673 145.396 154.194 145.396 204.154C145.396 254.113 185.662 294.634 235.305 294.634C284.948 294.634 325.213 254.139 325.213 204.154ZM163.347 204.154C163.347 164.181 195.559 131.764 235.279 131.764C274.998 131.764 307.21 164.181 307.21 204.154C307.21 244.126 274.998 276.543 235.279 276.543C195.559 276.543 163.347 244.152 163.347 204.154Z" fill="#323247"/>
<path d="M163.347 204.154C163.347 164.181 195.559 131.764 235.279 131.764C274.998 131.764 307.21 164.181 307.21 204.154C307.21 244.126 274.998 276.544 235.279 276.544M235.305 294.661C284.974 294.661 325.213 254.139 325.213 204.18L235.305 294.661ZM235.305 113.673C185.636 113.673 145.396 154.194 145.396 204.154C145.396 233.748 159.528 260.047 181.375 276.544L235.305 113.673Z" stroke="#FFDE3B" stroke-opacity="0.5" stroke-width="0.8412" stroke-miterlimit="10" stroke-linecap="round" stroke-linejoin="round"/>
<path d="M28.9902 338.585L-0.000715256 321.723L-0.000716729 355.421L28.9902 338.585Z" fill="#FAFF00"/>
<path d="M142.408 338.585L113.417 321.723L113.417 355.421L142.408 338.585Z" fill="#FAFF00"/>
<path d="M359.843 51.2467L370 41.0248L355.167 26.1233L370 11.2218L359.843 1L345.01 15.9014L330.203 0.999999L320.045 11.2218L334.852 26.1233L320.045 41.0248L330.203 51.2467L345.01 36.3452L359.843 51.2467Z" stroke="#8F9294" stroke-width="0.8412" stroke-miterlimit="10" stroke-linecap="round" stroke-linejoin="round"/>
<path d="M267.261 51.2467L277.418 41.0248L262.611 26.1233L277.418 11.2218L267.261 1L252.428 15.9014L237.62 0.999999L227.463 11.2218L242.27 26.1233L227.463 41.0248L237.62 51.2467L252.428 36.3452L267.261 51.2467Z" stroke="#8F9294" stroke-width="0.8412" stroke-miterlimit="10" stroke-linecap="round" stroke-linejoin="round"/>
<path d="M174.677 51.2467L184.834 41.0248L170.027 26.1233L184.834 11.2218L174.677 1L159.87 15.9014L145.036 0.999999L134.879 11.2218L149.712 26.1233L134.879 41.0248L145.036 51.2467L159.87 36.3452L174.677 51.2467Z" stroke="#8F9294" stroke-width="0.8412" stroke-miterlimit="10" stroke-linecap="round" stroke-linejoin="round"/>
</g>
</svg>
