<svg width="725" height="680" viewBox="0 0 725 680" fill="none" xmlns="http://www.w3.org/2000/svg">
<g opacity="0.8">
<path d="M465.395 391.288L145.662 573.005L404.266 658.471L723.998 476.754L465.395 391.288Z" stroke="#8F9294" stroke-width="0.8412" stroke-miterlimit="10" stroke-linecap="round" stroke-linejoin="round"/>
<path d="M465.395 391.288L145.662 573.005L404.266 658.471L723.998 476.754L465.395 391.288Z" stroke="#8F9294" stroke-width="0.8412" stroke-miterlimit="10" stroke-linecap="round" stroke-linejoin="round"/>
<path d="M367.02 14.6836L47.3351 196.4L305.891 281.866L625.623 100.15L367.02 14.6836Z" stroke="#8F9294" stroke-width="0.8412" stroke-miterlimit="10" stroke-linecap="round" stroke-linejoin="round"/>
<path d="M367.02 14.6836L47.3351 196.4L305.891 281.866L625.623 100.15L367.02 14.6836Z" stroke="#8F9294" stroke-width="0.8412" stroke-miterlimit="10" stroke-linecap="round" stroke-linejoin="round"/>
<path d="M367.013 14.6836L47.3287 196.4L145.66 573.004L465.393 391.288L367.013 14.6836Z" stroke="#8F9294" stroke-width="0.8412" stroke-miterlimit="10" stroke-linecap="round" stroke-linejoin="round"/>
<path d="M367.013 14.6836L47.3287 196.4L145.66 573.004L465.393 391.288L367.013 14.6836Z" stroke="#8F9294" stroke-width="0.8412" stroke-miterlimit="10" stroke-linecap="round" stroke-linejoin="round"/>
<path d="M305.887 281.863L404.266 658.467L723.998 476.751L625.619 100.147L305.887 281.863Z" stroke="#8F9294" stroke-width="0.8412" stroke-miterlimit="10" stroke-linecap="round" stroke-linejoin="round"/>
<path d="M305.887 281.863L404.266 658.467L723.998 476.751L625.619 100.147L305.887 281.863Z" stroke="#8F9294" stroke-width="0.8412" stroke-miterlimit="10" stroke-linecap="round" stroke-linejoin="round"/>
<path d="M625.621 100.151L367.017 14.6848L465.397 391.289L724 476.755L625.621 100.151Z" stroke="#8F9294" stroke-width="0.8412" stroke-miterlimit="10" stroke-linecap="round" stroke-linejoin="round"/>
<path d="M625.621 100.151L367.017 14.6848L465.397 391.289L724 476.755L625.621 100.151Z" stroke="#8F9294" stroke-width="0.8412" stroke-miterlimit="10" stroke-linecap="round" stroke-linejoin="round"/>
<path d="M47.3345 196.404L145.666 573.008L404.27 658.474L305.89 281.87L47.3345 196.404Z" stroke="#FAFF00" stroke-width="0.8412" stroke-miterlimit="10" stroke-linecap="round" stroke-linejoin="round"/>
<path d="M47.3345 196.404L145.666 573.008L404.27 658.474L305.89 281.87L47.3345 196.404Z" stroke="#FAFF00" stroke-width="0.8412" stroke-miterlimit="10" stroke-linecap="round" stroke-linejoin="round"/>
<path d="M353 14.5C353 22.5148 359.485 29 367.5 29C375.515 29 382 22.5148 382 14.5C382 6.48529 375.515 0 367.5 0C359.485 0 353 6.48529 353 14.5Z" fill="#3E1BDB"/>
<path opacity="0.57" d="M0.000793457 264.638L88.351 602.78L320.545 679.561L232.195 341.372L0.000793457 264.638Z" fill="#323247"/>
</g>
</svg>
