<svg width="542" height="542" viewBox="0 0 542 542" fill="none" xmlns="http://www.w3.org/2000/svg">
<path fill-rule="evenodd" clip-rule="evenodd" d="M135.5 271C135.5 345.835 196.165 406.5 271 406.5C345.835 406.5 406.5 345.835 406.5 271C406.5 196.165 345.835 135.5 271 135.5C196.165 135.5 135.5 196.165 135.5 271ZM-1.18458e-05 271C-1.8388e-05 420.669 121.331 542 271 542C420.669 542 542 420.669 542 271C542 121.331 420.669 -5.30354e-06 271 -1.18458e-05C121.331 -1.8388e-05 -5.30354e-06 121.331 -1.18458e-05 271Z" fill="url(#paint0_linear_324_105872)"/>
<path d="M198.422 215.608C198.422 208.092 204.515 202 212.03 202H258.207L269.009 215.608C295.041 212.9 310.587 213.844 334.869 215.223C338.714 215.441 341.731 218.622 341.731 222.473V292.718C341.731 300.657 335.295 307.093 327.356 307.093L326.725 238.753C326.675 233.378 322.305 229.048 316.93 229.048H256.766L248.412 218.656C246.863 216.729 244.523 215.608 242.05 215.608H198.422Z" fill="url(#paint1_linear_324_105872)"/>
<path d="M248.682 240.214L249.132 240.766H249.844H305.317C311.702 240.766 316.877 245.942 316.877 252.326V318.168C316.877 324.552 311.702 329.728 305.317 329.728H194.007C186.721 329.728 180.814 323.822 180.814 316.535V239.811C180.814 232.524 186.721 226.618 194.007 226.618H237.598L248.682 240.214Z" fill="white" stroke="#111111" stroke-width="3"/>
<path fill-rule="evenodd" clip-rule="evenodd" d="M246.881 258.684C244.297 259.104 242.406 259.967 240.78 261.469C238.094 263.949 236.993 267.124 237.005 272.356C237.014 276.283 237.643 279.227 239.031 281.845C240.856 285.289 243.691 287.171 247.648 287.564C249.812 287.779 251.965 287.44 253.807 286.594C255.943 285.614 257.677 283.888 258.877 281.549C259.346 280.633 260.009 278.645 260.271 277.368C260.845 274.564 260.872 270.253 260.333 267.625C259.496 263.539 256.926 260.532 253.178 259.253C251.455 258.665 248.591 258.406 246.881 258.684ZM251.402 261.901C254.94 262.822 256.957 265.289 257.495 269.354C257.703 270.924 257.675 274.368 257.443 275.785C256.647 280.648 254.634 283.421 251.227 284.347C250.712 284.487 250.126 284.534 248.873 284.538C247 284.543 246.08 284.357 244.84 283.724C243.927 283.257 242.494 281.819 241.882 280.755C240.587 278.501 239.95 275.215 240.08 271.459C240.21 267.718 240.939 265.578 242.668 263.866C243.792 262.754 245.139 262.076 246.881 261.747C247.991 261.537 250.308 261.616 251.402 261.901ZM240.365 287.744C240.161 287.85 239.533 288.214 238.97 288.55C236.755 289.877 233.977 291.086 231.329 291.875C229.719 292.354 228.836 292.836 227.933 293.728C226.208 295.43 225.496 297.727 225.483 301.634C225.472 304.738 225.764 306.405 226.426 307.017C226.922 307.476 229.251 308.619 231.329 309.424C240.713 313.06 252.51 313.55 262.561 310.72C266.207 309.693 270.692 307.768 271.477 306.891C272.247 306.032 272.554 301.68 272.063 298.57C271.648 295.94 270.558 294.037 268.833 292.933C268.061 292.439 267.398 292.171 265.556 291.607C263.334 290.927 260.925 289.839 258.667 288.495C257.672 287.902 257.079 287.615 256.784 287.584C255.641 287.461 254.78 288.671 255.278 289.699C255.762 290.7 260.905 293.332 264.587 294.463C265.445 294.727 266.401 295.065 266.71 295.214C267.79 295.735 268.594 296.914 268.971 298.532C269.116 299.154 269.152 299.828 269.147 301.845C269.144 303.238 269.095 304.515 269.039 304.683C268.963 304.911 268.761 305.077 268.242 305.34C264.033 307.472 258.303 308.958 252.592 309.399C250.239 309.581 245.101 309.465 242.953 309.183C237.914 308.52 233.376 307.236 229.732 305.441L228.759 304.963L228.672 304.459C228.623 304.182 228.587 302.911 228.592 301.634C228.6 299.051 228.721 298.243 229.272 297.088C229.878 295.819 230.68 295.195 232.297 294.736C234.073 294.232 236.007 293.467 238.056 292.459C240.747 291.135 242.101 290.289 242.421 289.731C243.15 288.46 241.692 287.051 240.365 287.744Z" fill="#111111"/>
<rect x="280.303" y="297.786" width="80.8825" height="40.2942" rx="20.1471" fill="white" stroke="#111111" stroke-width="3"/>
<circle cx="340.902" cy="318.07" r="15.7317" fill="white" stroke="#111111" stroke-width="3"/>
<path fill-rule="evenodd" clip-rule="evenodd" d="M349.007 311.338C348.833 311.431 348.012 312.339 343.111 317.861L337.418 324.276L335.189 321.768C333.962 320.389 332.901 319.226 332.83 319.184C332.649 319.077 332.199 319.077 332.008 319.184C331.808 319.296 331.653 319.485 331.548 319.744C331.438 320.014 331.449 320.336 331.577 320.625C331.692 320.884 336.762 326.599 336.992 326.728C337.081 326.779 337.249 326.83 337.365 326.842C337.54 326.86 337.611 326.845 337.791 326.752C337.987 326.652 338.577 326 344.077 319.8C349.577 313.6 350.156 312.935 350.245 312.714C350.327 312.511 350.34 312.431 350.324 312.233C350.28 311.681 349.922 311.286 349.432 311.247C349.249 311.233 349.175 311.248 349.007 311.338Z" fill="#111111"/>
<defs>
<linearGradient id="paint0_linear_324_105872" x1="462.733" y1="81.3" x2="93.495" y2="494.575" gradientUnits="userSpaceOnUse">
<stop offset="0.239845" stop-color="#F9F8FE"/>
<stop offset="0.593059" stop-color="#F9F8FE" stop-opacity="0.5"/>
<stop offset="0.91781" stop-color="#F9F8FE" stop-opacity="0"/>
</linearGradient>
<linearGradient id="paint1_linear_324_105872" x1="203.699" y1="197.773" x2="341.877" y2="295.311" gradientUnits="userSpaceOnUse">
<stop stop-color="#111111"/>
<stop offset="1" stop-color="#111111" stop-opacity="0"/>
</linearGradient>
</defs>
</svg>
