<svg width="339" height="325" viewBox="0 0 339 325" fill="none" xmlns="http://www.w3.org/2000/svg">
<g opacity="0.2">
<path d="M41.9131 138.184C41.9131 183.847 78.6959 220.84 124.046 220.84C169.395 220.84 206.178 183.823 206.178 138.184C206.178 92.546 169.395 55.529 124.046 55.529C78.6959 55.529 41.9131 92.5221 41.9131 138.184ZM189.78 138.184C189.78 174.7 160.354 204.314 124.069 204.314C87.7848 204.314 58.3585 174.7 58.3585 138.184C58.3585 101.669 87.7848 72.0553 124.069 72.0553C160.354 72.0553 189.78 101.645 189.78 138.184Z" fill="#323247"/>
<path d="M189.78 138.184C189.78 174.7 160.354 204.314 124.069 204.314C87.7848 204.314 58.3585 174.7 58.3585 138.184C58.3585 101.669 87.7848 72.0552 124.069 72.0552M124.046 55.505C78.6721 55.505 41.9131 92.522 41.9131 138.16L124.046 55.505ZM124.046 220.84C169.419 220.84 206.178 183.823 206.178 138.184C206.178 111.15 193.268 87.1247 173.311 72.0552L124.046 220.84Z" stroke="#FFDE3B" stroke-opacity="0.5" stroke-width="0.8412" stroke-miterlimit="10" stroke-linecap="round" stroke-linejoin="round"/>
<path d="M312.517 15.3802L339 30.7842L339 0.000351702L312.517 15.3802Z" fill="#FAFF00"/>
<path d="M208.908 15.3802L235.392 30.7842L235.392 0.000351702L208.908 15.3802Z" fill="#FAFF00"/>
<path d="M10.2788 277.868L0.999998 287.205L14.5503 300.818L1 314.431L10.2788 323.769L23.829 310.156L37.3556 323.769L46.6343 314.431L33.1078 300.818L46.6343 287.205L37.3556 277.868L23.829 291.48L10.2788 277.868Z" stroke="#8F9294" stroke-width="0.8412" stroke-miterlimit="10" stroke-linecap="round" stroke-linejoin="round"/>
<path d="M94.8544 277.868L85.5757 287.205L99.1022 300.818L85.5757 314.431L94.8544 323.769L108.405 310.156L121.931 323.769L131.21 314.431L117.683 300.818L131.21 287.205L121.931 277.868L108.405 291.48L94.8544 277.868Z" stroke="#8F9294" stroke-width="0.8412" stroke-miterlimit="10" stroke-linecap="round" stroke-linejoin="round"/>
<path d="M179.431 277.868L170.152 287.205L183.678 300.818L170.152 314.431L179.431 323.769L192.957 310.156L206.508 323.769L215.786 314.431L202.236 300.818L215.786 287.205L206.508 277.868L192.957 291.48L179.431 277.868Z" stroke="#8F9294" stroke-width="0.8412" stroke-miterlimit="10" stroke-linecap="round" stroke-linejoin="round"/>
</g>
</svg>
