<svg width="1280" height="351" viewBox="0 0 1280 351" fill="none" xmlns="http://www.w3.org/2000/svg">
<path d="M901.5 292.5C887.706 307.746 867.052 297.736 855.821 290.172C839.052 278.878 827.095 265.259 817 259.5C804.685 252.498 794.096 272.5 774.183 269.839C761.169 268.101 753.895 257.313 754.31 234.582C754.897 202.897 764.823 179.34 776.404 171.228C800.047 154.673 834.312 162.544 852.675 167.602C867.842 171.774 893.513 167.781 910 201C919.735 220.609 928.103 263.103 901.5 292.5Z" fill="#F9F8FE"/>
<path fill-rule="evenodd" clip-rule="evenodd" d="M811.18 178.687C807.972 179.843 805.825 182.389 805.155 185.828C804.908 187.099 805.264 189.768 805.837 190.93C807.017 193.326 808.834 194.966 811.157 195.728C814.908 196.958 818.759 195.787 821.113 192.699C823.481 189.594 823.609 185.554 821.444 182.252C819.635 179.494 816.565 178.028 813.237 178.332C812.445 178.405 811.52 178.564 811.18 178.687ZM856.978 172.573C853.77 173.73 851.623 176.275 850.953 179.714C850.824 180.377 850.837 181.095 850.998 182.305C851.342 184.88 852.406 186.736 854.428 188.286C858.318 191.268 863.923 190.504 866.911 186.586C869.279 183.48 869.406 179.44 867.241 176.139C865.433 173.38 862.363 171.914 859.035 172.219C858.243 172.291 857.318 172.451 856.978 172.573ZM815.864 181.124C817.389 181.606 818.439 182.397 819.344 183.746C820.057 184.809 820.11 184.956 820.303 186.402C820.496 187.849 820.483 188.004 820.074 189.218C819.553 190.764 818.752 191.791 817.368 192.691C816.468 193.275 816.228 193.356 814.862 193.539C813.496 193.721 813.243 193.706 812.222 193.378C810.65 192.873 809.608 192.092 808.699 190.736C807.987 189.674 807.933 189.525 807.741 188.088C807.557 186.709 807.572 186.458 807.899 185.433C808.358 183.995 809.135 182.884 810.237 182.091C811.4 181.255 812.066 181.012 813.537 180.886C814.498 180.804 815.022 180.858 815.864 181.124ZM861.662 175.01C863.187 175.492 864.237 176.284 865.141 177.632C865.855 178.696 865.907 178.842 866.101 180.289C866.294 181.736 866.281 181.891 865.872 183.104C865.35 184.651 864.55 185.678 863.166 186.577C862.266 187.162 862.026 187.243 860.66 187.425C859.294 187.608 859.041 187.592 858.02 187.264C856.448 186.759 855.406 185.978 854.497 184.623C853.785 183.56 853.731 183.411 853.539 181.974C853.355 180.595 853.37 180.344 853.697 179.319C854.155 177.881 854.933 176.77 856.035 175.977C857.198 175.141 857.863 174.898 859.335 174.773C860.296 174.691 860.82 174.744 861.662 175.01ZM834.59 179.457C831.382 180.613 829.234 183.158 828.565 186.598C828.436 187.26 828.449 187.978 828.61 189.188C828.954 191.764 830.018 193.619 832.04 195.169C835.93 198.151 841.535 197.388 844.523 193.469C846.891 190.363 847.018 186.323 844.853 183.022C843.044 180.264 839.974 178.797 836.647 179.102C835.855 179.175 834.93 179.334 834.59 179.457ZM839.274 181.893C840.798 182.375 841.849 183.167 842.753 184.515C843.466 185.579 843.519 185.725 843.713 187.172C843.906 188.619 843.893 188.774 843.484 189.987C842.962 191.534 842.162 192.561 840.777 193.46C839.878 194.045 839.638 194.126 838.272 194.308C836.906 194.491 836.653 194.475 835.632 194.147C834.059 193.642 833.018 192.862 832.109 191.506C831.397 190.444 831.343 190.295 831.151 188.857C830.967 187.478 830.982 187.228 831.309 186.202C831.767 184.765 832.545 183.653 833.647 182.861C834.81 182.024 835.475 181.781 836.947 181.656C837.907 181.574 838.432 181.628 839.274 181.893ZM812.295 197.952C805.61 199.513 801.933 201.646 801.087 204.455C800.895 205.093 800.955 205.706 801.934 213.06C803.115 221.938 803.271 222.633 804.505 224.479C804.896 225.065 805.583 225.857 806.031 226.24C806.909 226.99 808.739 227.762 809.767 227.815L810.378 227.846L811.611 237.083L812.844 246.32L813.287 246.659C813.872 247.108 814.603 247.01 815.05 246.424L815.388 245.98L813.109 228.906L810.83 211.832L810.387 211.492C809.802 211.044 809.071 211.141 808.624 211.728L808.286 212.171L809.161 218.726L810.036 225.281L809.663 225.22C808.046 224.956 806.465 223.355 805.782 221.29C805.622 220.807 805.085 217.292 804.49 212.833L803.471 205.203L803.941 204.517C804.78 203.291 807.459 201.896 810.787 200.949C812.888 200.351 818.898 199.596 821.143 199.647C823.179 199.694 825.455 199.995 826.459 200.351C827.338 200.661 827.871 200.568 828.28 200.031C828.666 199.525 828.639 198.842 828.216 198.38C827.622 197.734 824.287 197.12 821.116 197.074C819.54 197.052 813.633 197.639 812.295 197.952ZM858.172 191.828C857.871 191.904 856.955 192.134 856.137 192.338C853.114 193.092 849.475 194.765 849.044 195.6C848.756 196.156 848.91 196.823 849.415 197.21C849.951 197.621 850.49 197.571 851.256 197.041C852.132 196.434 854.249 195.547 856.202 194.967C858.354 194.329 864.352 193.481 866.536 193.507C869.996 193.547 872.947 194.192 874.078 195.154L874.712 195.693L875.731 203.323C876.326 207.782 876.73 211.315 876.702 211.823C876.584 213.994 875.478 215.954 873.987 216.634L873.644 216.79L872.769 210.235L871.894 203.68L871.451 203.341C870.866 202.892 870.135 202.99 869.688 203.577L869.349 204.02L871.629 221.094L873.908 238.168L874.351 238.508C874.936 238.956 875.667 238.859 876.114 238.272L876.452 237.829L875.219 228.592L873.986 219.355L874.568 219.164C875.545 218.844 877.109 217.619 877.76 216.665C878.092 216.178 878.543 215.234 878.763 214.567C879.475 212.401 879.448 211.769 878.259 202.893C877.272 195.519 877.169 194.911 876.816 194.346C875.5 192.238 872.145 191.075 867.039 190.957C865.491 190.921 859.375 191.521 858.172 191.828ZM835.705 198.721C829.01 200.288 825.343 202.416 824.497 205.224C824.305 205.863 824.365 206.476 825.343 213.83C826.524 222.708 826.681 223.403 827.915 225.249C828.306 225.835 828.993 226.627 829.441 227.01C830.318 227.76 832.149 228.531 833.177 228.584L833.788 228.616L835.021 237.853L836.254 247.09L836.696 247.429C837.282 247.878 838.013 247.78 838.46 247.193L838.798 246.75L836.519 229.676L834.24 212.601L833.797 212.262C833.518 212.048 833.173 211.947 832.863 211.988C832.553 212.03 832.247 212.218 832.034 212.498L831.695 212.941L832.57 219.496L833.445 226.051L833.073 225.99C831.456 225.726 829.875 224.124 829.191 222.06C829.032 221.577 828.495 218.062 827.899 213.603L826.881 205.972L827.351 205.286C828.19 204.061 830.869 202.665 834.197 201.718C835.99 201.208 842.284 200.368 844.148 200.39C847.608 200.431 850.559 201.075 851.69 202.037L852.324 202.576L853.342 210.207C853.938 214.666 854.341 218.199 854.314 218.706C854.196 220.878 853.09 222.838 851.599 223.517L851.256 223.673L850.381 217.118L849.506 210.564L849.063 210.224C848.784 210.01 848.439 209.909 848.129 209.951C847.819 209.992 847.513 210.18 847.299 210.46L846.961 210.903L849.241 227.977L851.52 245.052L851.962 245.391C852.548 245.84 853.279 245.742 853.726 245.155L854.064 244.712L852.831 235.475L851.598 226.238L852.18 226.048C853.157 225.727 854.721 224.502 855.372 223.549C855.704 223.061 856.155 222.117 856.374 221.45C857.087 219.286 857.06 218.652 855.873 209.767L854.813 201.82L854.291 201.048C852.957 199.072 849.578 197.947 844.651 197.838C843.105 197.804 837.083 198.398 835.705 198.721ZM818.641 228.566L818.302 229.009L819.39 237.155L820.477 245.301L820.92 245.64C821.199 245.854 821.544 245.955 821.854 245.914C822.164 245.872 822.47 245.684 822.683 245.405L823.021 244.961L821.934 236.815L820.847 228.67L820.404 228.331C820.125 228.117 819.78 228.015 819.47 228.057C819.16 228.098 818.854 228.286 818.641 228.566ZM826.273 227.547L825.935 227.99L827.023 236.136L828.11 244.282L828.553 244.621C828.832 244.835 829.177 244.936 829.487 244.895C829.797 244.853 830.103 244.665 830.316 244.386L830.654 243.942L829.567 235.797L828.48 227.651L828.037 227.312C827.758 227.098 827.413 226.997 827.103 227.038C826.793 227.079 826.487 227.267 826.273 227.547ZM856.805 223.471L856.467 223.915L857.555 232.06L858.642 240.206L859.085 240.545C859.364 240.759 859.709 240.86 860.019 240.819C860.328 240.778 860.635 240.59 860.848 240.31L861.186 239.867L860.099 231.721L859.012 223.575L858.569 223.236C858.29 223.022 857.945 222.921 857.635 222.962C857.325 223.004 857.018 223.192 856.805 223.471ZM864.438 222.452L864.1 222.896L865.188 231.042L866.275 239.187L866.718 239.526C866.996 239.74 867.342 239.842 867.652 239.8C867.961 239.759 868.268 239.571 868.481 239.291L868.819 238.848L867.732 230.702L866.644 222.556L866.202 222.217C865.923 222.003 865.578 221.902 865.268 221.943C864.958 221.985 864.651 222.173 864.438 222.452ZM842.05 229.336L841.712 229.779L842.799 237.925L843.887 246.071L844.329 246.41C844.608 246.624 844.954 246.725 845.263 246.683C845.573 246.642 845.88 246.454 846.093 246.174L846.431 245.731L845.344 237.585L844.256 229.439L843.814 229.1C843.535 228.886 843.19 228.785 842.88 228.827C842.57 228.868 842.263 229.056 842.05 229.336Z" fill="#8A86B2"/>
<path d="M137.535 23.9272C131.628 17.8745 124.786 12.892 117.291 9.18684C106.128 3.7691 93.8203 1.16097 81.5342 1.00345C45.5972 0.552889 42.861 44.3564 31.8106 50.4554C20.7601 56.5545 0.742116 57.2652 0.0360154 81.6248C-0.398237 96.9476 3.05107 112.706 12.7458 124.644C21.625 135.579 34.6667 141.128 47.5178 145.213C61.9505 149.814 77.2552 154.323 92.4364 151.22C108.016 148.037 118.961 135.238 131.752 126.589C139.809 121.142 147.039 115.41 152.014 106.67C152.607 105.629 153.165 104.56 153.694 103.479C160.353 89.9035 161.659 74.24 157.987 59.5473C154.697 46.3491 147.258 33.7956 137.535 23.9272Z" fill="#F9F8FE"/>
<path fill-rule="evenodd" clip-rule="evenodd" d="M53.5647 51.3283C53.2129 51.4164 52.6953 51.6659 52.4148 51.8826C51.7734 52.3777 36.8677 76.7744 36.7361 77.5445C36.5977 78.3542 36.8918 79.4229 37.4094 79.9908C37.6542 80.2593 39.7089 81.6016 41.9755 82.9737C46.3326 85.6113 47.2179 85.9626 48.3157 85.4895C48.8619 85.2543 48.909 85.2854 51.4912 87.582C52.933 88.8641 54.4425 90.2213 54.8457 90.5978L55.5791 91.2825L55.0631 92.0387C54.2777 93.19 54.0105 95.0837 54.4367 96.4792C55.0214 98.3933 56.7213 99.9453 58.5817 100.263C59.2734 100.382 59.3183 100.434 59.3308 101.141C59.3733 103.541 61.4974 106.023 63.8543 106.426C64.3207 106.506 64.3988 106.632 64.4608 107.41C64.6418 109.686 66.2526 111.66 68.4033 112.243L69.6111 112.57L69.6392 113.337C69.7394 116.076 71.8858 118.315 74.6216 118.533C76.3709 118.673 77.5104 118.235 79.3849 116.704L80.1601 116.071L81.4853 117.424C82.2832 118.239 83.2251 118.978 83.8531 119.281C86.9372 120.771 90.7944 119.31 92.0618 116.172C92.2921 115.602 92.3326 115.587 92.9042 115.861C94.604 116.674 97.0374 116.471 98.6399 115.382C99.7402 114.635 100.851 113.155 101.014 112.221L101.125 111.582L102.279 111.78C104.046 112.082 105.298 111.795 106.793 110.745C108.008 109.893 108.975 108.637 109.135 107.705C109.179 107.449 109.471 107.443 110.825 107.67C112.135 107.89 112.646 107.885 113.388 107.645C116.134 106.757 117.936 104.176 117.682 101.495L117.578 100.397L120.026 99.3552C124.096 97.6241 123.733 97.7028 124.51 98.3827C125.622 99.3566 126.326 99.3454 131.523 98.2699C134.114 97.7339 136.471 97.1678 136.76 97.0123C137.431 96.6522 138.133 95.6637 138.264 94.8959C138.383 94.2001 136.223 83.8937 135.829 83.281C135.224 82.337 133.413 82.6802 133.226 83.7745C133.18 84.0409 133.627 86.5435 134.219 89.3358C134.81 92.1282 135.267 94.4277 135.233 94.4461C135.046 94.548 126.89 96.1577 126.716 96.127C126.542 96.0962 125.582 91.7356 121.084 70.5464L120.721 68.8351L125.065 67.9327C127.454 67.4366 129.432 67.0621 129.46 67.1006C129.487 67.1391 130.026 69.6018 130.657 72.5732C131.828 78.0887 132.029 78.6194 133.011 78.7872C133.572 78.8833 134.585 78.2103 134.676 77.6807C134.786 77.0379 132.379 66.0681 132.001 65.4859C131.566 64.8168 130.658 64.2201 129.87 64.0854C128.976 63.9326 119.756 65.9183 118.993 66.4278C118.33 66.8707 117.733 67.9071 117.69 68.689C117.668 69.0987 117.4 69.191 114.927 69.6418C111.279 70.3065 110.735 70.2664 106.986 69.0555L103.89 68.0555L103.304 68.4395C102.566 68.9242 102.396 69.7702 102.897 70.4711C103.208 70.9072 103.773 71.1534 106.434 72.0149C110.349 73.2818 111.434 73.35 115.506 72.5842C118.29 72.0607 118.312 72.0602 118.408 72.5125C118.46 72.7634 119.552 77.8791 120.833 83.8807C122.114 89.8822 123.142 94.8013 123.117 94.812C123.091 94.8224 121.503 95.4897 119.588 96.2946L116.105 97.7581L114.863 96.4944C114.18 95.7995 111.833 93.3831 109.648 91.1249C107.463 88.8666 105.424 86.8184 105.116 86.573C104.622 86.1788 104.319 86.1104 102.494 85.9804C97.6331 85.6343 93.1256 83.1102 89.9379 78.9492C87.6961 76.0228 86.7188 75.9128 82.7279 78.1377C79.6031 79.8799 76.5398 80.6613 74.3097 80.2853C73.0766 80.0776 72.2657 79.6563 71.2719 78.7067C70.0546 77.5442 70.2846 77.2443 73.6296 75.6349C77.2313 73.9018 80.488 72.0322 84.6782 69.2918C86.5129 68.0919 88.304 67.0223 88.6582 66.9151C89.8181 66.5635 90.5708 66.6843 93.6487 67.7157C97.4839 69.0008 97.6535 69.0283 98.2743 68.4718C98.8629 67.9442 99.0034 67.3602 98.6959 66.7169C98.4275 66.1548 98.4199 66.1515 94.3624 64.8001C91.6399 63.8932 90.9274 63.7206 89.953 63.7317C88.2711 63.751 86.8642 64.2279 85.0125 65.4064C84.1157 65.9773 83.3483 66.3974 83.3073 66.34C83.2663 66.2824 82.5496 65.9375 81.7148 65.5734C79.8819 64.7743 77.0008 64.003 71.939 62.9568C68.1802 62.18 68.1338 62.1648 66.4328 61.1411C64.8739 60.203 64.73 60.0659 64.8561 59.6384C65.0473 58.9908 64.7317 57.5557 64.2629 56.941C63.7532 56.2729 55.6504 51.3968 54.8351 51.2676C54.4881 51.2127 53.9165 51.2399 53.5647 51.3283ZM58.1644 56.4915L61.9532 58.7664L61.0361 60.2706C49.9327 78.4795 47.3971 82.5677 47.2258 82.5384C47.0543 82.5091 39.8858 78.2788 39.7448 78.1238C39.6901 78.0636 54.2371 54.1928 54.3198 54.207C54.3504 54.2122 56.0804 55.2402 58.1644 56.4915ZM68.5294 65.2689C73.9903 66.4448 78.1198 67.4253 79.2678 67.8182C80.4019 68.2065 80.5308 68.2973 80.2697 68.5235C79.5951 69.1077 74.1865 72.0765 71.6404 73.26C68.5907 74.6775 67.9396 75.2866 67.6475 76.9951C67.3453 78.7633 68.2077 80.279 70.4289 81.8841C71.3512 82.5505 71.8767 82.7737 73.2831 83.0964C76.8364 83.912 80.0599 83.0761 86.0536 79.7841L86.5901 79.4893L87.6565 80.8813C89.7779 83.6507 92.6036 85.8819 95.8538 87.3539C97.3851 88.0473 98.1525 88.2649 100.662 88.7163L103.648 89.2534L108.806 94.5672C111.643 97.4897 114.101 100.129 114.267 100.431C115.716 103.076 112.789 105.946 110.192 104.426C109.917 104.265 108.363 102.709 106.739 100.968C105.115 99.228 103.562 97.6726 103.289 97.5119C102.298 96.9294 101.068 97.76 101.161 98.9486C101.187 99.2684 102.044 100.345 103.612 102.026C104.938 103.449 106.109 104.876 106.212 105.199C106.839 107.146 104.958 109.202 102.875 108.846C101.748 108.654 101.701 108.615 98.5227 105.237C96.7588 103.363 95.6681 102.355 95.3503 102.305C94.3339 102.145 93.4611 103.088 93.7038 104.085C93.7804 104.399 94.7542 105.618 95.9128 106.851C97.0525 108.064 98.0607 109.267 98.1532 109.523C98.2456 109.78 98.2461 110.448 98.1544 111.008C98.0204 111.826 97.8646 112.13 97.3636 112.55C96.1616 113.558 94.6745 113.647 93.5113 112.782C93.1927 112.545 91.9878 111.339 90.8336 110.102C88.2306 107.312 88.0508 107.182 87.1662 107.46C86.3979 107.702 86.0011 108.39 86.2005 109.135C86.2742 109.411 87.0314 110.403 87.8829 111.34C89.16 112.745 89.4335 113.166 89.4437 113.744C89.464 114.89 89.0109 115.804 88.1384 116.379C87.2124 116.989 86.1665 117.06 85.1915 116.579C84.3682 116.173 82.5646 114.341 82.7027 114.051C82.7558 113.94 83.0204 113.651 83.2903 113.409C84.519 112.307 85.2393 109.969 84.8517 108.341C84.3938 106.419 82.5283 104.565 80.7411 104.255L79.8463 104.1L79.7777 103.058C79.6322 100.853 77.9609 98.8113 75.8117 98.2135L74.7729 97.9246L74.6315 96.7484C74.3655 94.5351 72.666 92.6369 70.5016 92.1358C69.6238 91.9326 69.6085 91.9148 69.5367 91.0263C69.4387 89.8087 69.1883 89.0921 68.5491 88.1975C67.2549 86.3858 64.8349 85.5006 62.7291 86.0685C61.7461 86.3335 60.9217 86.8545 58.6758 88.6301L57.8483 89.2844L56.6335 88.1657C55.9654 87.5503 54.3665 86.1132 53.0803 84.9718L50.7416 82.8968L51.2645 82.0452C51.8034 81.167 62.4687 63.7328 62.898 63.0279C63.1368 62.6357 63.1515 62.6408 64.9482 63.7602C66.5001 64.727 67.0101 64.9419 68.5294 65.2689ZM65.8483 89.6635C66.1237 89.9866 66.4147 90.5355 66.4951 90.8836C66.7656 92.0579 66.3345 92.6528 63.5435 94.9553C62.101 96.1453 60.7063 97.1935 60.4442 97.2847C59.7857 97.5135 58.7594 97.318 58.1255 96.843C57.455 96.3407 57.1518 95.4147 57.3254 94.3996C57.4445 93.7028 57.6774 93.4265 59.3089 92.0485C60.3258 91.1897 61.6882 90.099 62.3369 89.625C63.4257 88.8293 63.5866 88.775 64.4317 88.9195C65.1168 89.0366 65.4732 89.2238 65.8483 89.6635ZM71.2757 96.0579C71.7179 96.7844 71.7819 97.4678 71.4828 98.271C71.1911 99.0541 66.5283 102.984 65.4737 103.335C64.5144 103.654 63.5657 103.323 62.8348 102.412C62.3533 101.813 62.3149 101.626 62.4774 100.675C62.6587 99.6145 62.6695 99.6016 64.9562 97.6929C67.7238 95.3828 68.2113 95.0549 68.9851 94.983C69.8471 94.9031 70.8629 95.3796 71.2757 96.0579ZM76.3544 102.173C77.015 103.188 76.8908 104.422 76.0501 105.195C74.8698 106.28 71.2903 109.125 70.839 109.336C70.2296 109.621 68.9926 109.416 68.3306 108.92C67.7769 108.505 67.3567 107.352 67.4853 106.6C67.5297 106.34 67.8922 105.779 68.2909 105.352C69.3148 104.256 73.1057 101.285 73.7427 101.079C74.6464 100.786 75.7545 101.25 76.3544 102.173ZM81.4344 108.095C82.1773 109.135 82.0505 110.37 81.1034 111.321C79.9071 112.522 76.1145 115.436 75.6238 115.531C73.6403 115.915 71.954 113.829 72.8667 112.12C73.225 111.449 77.9318 107.452 78.6622 107.199C78.9286 107.106 79.5357 107.094 80.0107 107.171C80.733 107.289 80.966 107.44 81.4344 108.095Z" fill="#8A86B2"/>
<path d="M1096.37 153.002C1095.24 151.388 1094.01 149.838 1092.66 148.363C1081.69 136.337 1067.33 131.248 1050.94 127.838C1034.01 124.317 1014.18 123.223 997.923 129.57C994.096 131.081 990.46 133.076 987.584 135.796C976.706 146.045 972.974 163.209 960.861 176.776C948.748 190.343 942.84 207.244 953.714 223.286C958.317 230.081 964.186 235.678 971.129 240.604C979.677 246.649 987.051 254.827 996.932 259.557C1007.32 264.526 1021.14 266.258 1032.64 263.982C1045.75 261.386 1053.44 251.062 1063.44 244.035C1071.33 238.486 1080.77 234.853 1088.5 229.129C1100.35 220.364 1109.33 206.262 1107.84 192.289C1106.37 178.725 1104.49 164.629 1096.37 153.002Z" fill="#F9F8FE"/>
<path fill-rule="evenodd" clip-rule="evenodd" d="M983.382 164.5C981.546 165.769 980.488 168.151 980.771 170.378C980.867 171.135 983.134 177.786 989.477 195.92L998.053 220.437L998.882 221.257C999.902 222.266 1001.55 223.071 1002.71 223.133C1003.6 223.18 1003.64 223.207 1004.32 224.478C1005.16 226.034 1007.49 227.418 1009.27 227.412C1010.34 227.409 1008.5 227.814 1049.93 218.458C1073.34 213.172 1082.37 211.069 1083.1 210.732C1085.12 209.801 1086.55 207.79 1086.76 205.58C1086.85 204.63 1086.39 202.621 1080.7 179.485C1076.7 163.203 1074.4 154.132 1074.14 153.601C1073.28 151.874 1071.13 150.361 1069.21 150.137C1068.7 150.076 1067.5 150.19 1066.45 150.4C1065.43 150.603 1064.34 150.816 1064.03 150.873L1063.45 150.976L1061.95 146.887C1060.58 143.179 1060.38 142.721 1059.72 141.953C1058.71 140.766 1057.33 140.042 1055.7 139.84L1054.34 139.672L1019.22 151.842C991.573 161.419 983.938 164.116 983.382 164.5ZM1055.38 142.954C1055.88 143.021 1056.55 143.274 1056.87 143.517C1057.43 143.945 1058.27 145.366 1058.37 146.069C1058.42 146.409 1057.49 146.741 1021.44 159.311L984.463 172.206L984.081 170.895C983.747 169.751 983.736 169.477 983.998 168.737C984.162 168.272 984.517 167.661 984.786 167.381C985.247 166.9 987.278 166.175 1019.88 154.852L1054.48 142.833L1055.38 142.954ZM1061.1 153.842L1062.64 158.263L1025.62 171.123L988.597 183.983L987.061 179.561L985.525 175.14L1022.55 162.28L1059.57 149.42L1061.1 153.842ZM1066.77 153.237C1068.83 152.675 1069.54 152.78 1070.58 153.806L1071.28 154.489L1077.48 179.678C1084.45 208.063 1084.03 205.834 1082.69 207.242L1082 207.969L1068.82 210.948C1015.6 222.98 1009.84 224.256 1009.21 224.166C1008.45 224.056 1007.43 223.422 1007.03 222.809L1006.75 222.375L1040.87 210.473L1074.99 198.571L1075.67 197.914C1077.17 196.471 1077.86 194.366 1077.54 192.25C1077.42 191.508 1075.3 185.21 1070.87 172.455C1064.71 154.722 1064.39 153.747 1064.71 153.728C1064.89 153.716 1065.82 153.495 1066.77 153.237ZM1069.15 177.134C1074.12 191.572 1074.62 193.118 1074.52 193.68C1074.38 194.483 1073.97 195.249 1073.44 195.694C1073.15 195.941 1062.5 199.702 1038.4 208.072C1004.23 219.944 1003.78 220.095 1002.97 219.997C1002.51 219.942 1001.85 219.677 1001.48 219.408L1000.83 218.918L995.222 202.926L989.615 186.933L1026.64 174.07L1063.67 161.208L1069.15 177.134ZM995.387 191.919C994.813 192.814 995.224 193.955 996.242 194.292C996.501 194.378 998.241 193.836 1003.03 192.178C1009.28 190.011 1009.47 189.933 1009.8 189.43C1010.21 188.785 1009.92 187.742 1009.2 187.294L1008.72 186.999L1002.22 189.204C995.89 191.348 995.706 191.421 995.387 191.919ZM1013.29 185.513C1012.54 186.161 1012.88 187.698 1013.83 188.028C1014.4 188.223 1014.6 188.165 1020.85 185.988C1027.78 183.573 1027.7 183.611 1027.73 182.552C1027.75 181.839 1027.37 181.284 1026.69 181.048C1026.15 180.865 1025.86 180.951 1019.87 183.042C1016.43 184.245 1013.46 185.357 1013.29 185.513ZM997.609 197.621C996.867 198.389 997.111 199.645 998.094 200.121C998.543 200.339 998.83 200.249 1008.79 196.788L1019.03 193.232L1019.31 192.658C1019.78 191.683 1019.06 190.49 1018.01 190.489C1017.1 190.488 998.075 197.139 997.609 197.621ZM1022.75 188.887C1022.01 189.655 1022.25 190.911 1023.24 191.387C1023.66 191.591 1023.94 191.526 1026.48 190.643C1028.02 190.111 1029.39 189.548 1029.53 189.392C1029.68 189.236 1029.79 188.805 1029.78 188.435C1029.77 187.614 1029.25 187.004 1028.47 186.9C1027.77 186.805 1023.24 188.379 1022.75 188.887ZM1037.51 183.711C1036.76 184.367 1036.88 184.865 1039.54 192.356L1042 199.277L1042.64 199.527L1043.27 199.776L1055.61 195.482C1065.04 192.202 1068 191.116 1068.16 190.881C1068.63 190.154 1068.55 189.833 1066.06 182.653L1063.62 175.628L1063.03 175.287L1062.44 174.946L1050.15 179.178C1042.87 181.683 1037.71 183.533 1037.51 183.711ZM1063.13 183.742L1064.94 188.944L1054.62 192.528L1044.31 196.112L1042.5 190.91L1040.69 185.708L1051.01 182.124L1061.33 178.54L1063.13 183.742Z" fill="#8A86B2"/>
<path d="M538.073 237.311C541.649 217.064 521.206 202.641 508.209 202.668C478.954 202.731 465.575 219.883 454.834 215.444C441.749 210.016 457.121 177.557 442.803 163.465C433.445 154.255 420.464 155.129 402.768 169.403C378.108 189.307 365.595 211.598 366.296 225.72C367.728 254.548 394.967 276.777 410.227 288.174C422.827 297.59 435.657 317.222 472.004 309.861C493.461 305.517 531.181 276.354 538.073 237.311Z" fill="#F9F8FE"/>
<path fill-rule="evenodd" clip-rule="evenodd" d="M497.904 217.85C497.021 217.26 496.191 216.991 495.078 216.933C494.448 216.9 483.388 216.88 470.501 216.888L447.07 216.903L430.13 211.365C417.404 207.205 412.955 205.836 412.248 205.863C411.73 205.883 410.873 206.114 410.343 206.376C408.456 207.312 408.644 206.842 401.976 227.326C398.615 237.652 395.809 246.435 395.741 246.843C395.477 248.433 396.256 250.325 397.585 251.32C397.99 251.622 400.47 252.563 403.557 253.584C406.461 254.545 408.939 255.369 409.063 255.417C409.186 255.464 409.292 256.721 409.297 258.21C409.309 261.479 409.38 261.912 410.085 263.032C410.862 264.264 412.1 265.04 413.52 265.184C414.138 265.247 420.168 265.296 426.921 265.293L439.197 265.289L441.486 265.993C442.745 266.38 450.99 269.065 459.809 271.959C468.627 274.853 476.296 277.3 476.851 277.398C477.407 277.495 478.237 277.484 478.695 277.373C479.699 277.13 481.17 276.035 481.653 275.173C481.841 274.836 482.643 272.581 483.436 270.161C484.229 267.741 484.942 265.654 485.02 265.524C485.099 265.393 487.584 265.289 490.548 265.295C494.932 265.302 496.125 265.227 496.964 264.889C498.683 264.199 499.673 262.807 499.858 260.823C499.911 260.258 499.931 252.164 499.903 242.837C499.875 233.509 499.849 224.863 499.845 223.622C499.842 222.382 499.778 221.046 499.703 220.654C499.549 219.843 498.544 218.277 497.904 217.85ZM496.86 221.91C496.908 222.479 496.961 231.476 496.976 241.904C496.994 254.142 496.908 261.059 496.732 261.415C496.502 261.879 496.349 261.999 495.769 262.173C495.085 262.377 486.28 262.49 486.107 262.296C486.057 262.241 487.86 256.54 490.114 249.628C492.367 242.716 494.261 236.785 494.322 236.448C494.604 234.89 493.482 232.554 492.074 231.766C491.401 231.39 476.921 226.575 475.989 226.418C474.821 226.221 473.88 227.746 474.602 228.666C474.773 228.883 475.645 229.303 476.54 229.598L478.167 230.135L477.976 231.717C477.207 238.09 480.296 244.194 485.94 247.455L487.473 248.341L485.334 254.851L483.194 261.361L481.841 261.18C479.035 260.804 475.856 261.257 473.166 262.417C472.212 262.828 471.34 263.392 469.876 264.548C467.694 266.27 466.802 267.311 465.705 269.419L465.079 270.622L452.872 266.624C446.158 264.425 434.284 260.54 426.484 257.991C418.685 255.442 412.205 253.301 412.084 253.233C411.964 253.166 411.949 252.41 412.053 251.553C412.82 245.2 409.333 238.562 403.735 235.717L402.552 235.116L404.684 228.526L406.817 221.936L407.888 222.123C412.039 222.851 416.531 221.67 420.068 218.92C422.048 217.381 423.112 216.153 424.275 214.064C424.675 213.345 425.025 212.765 425.054 212.774C425.082 212.783 434.541 215.886 446.073 219.671C457.605 223.455 467.402 226.584 467.843 226.624C468.737 226.706 469.247 226.281 469.368 225.354C469.5 224.344 469.014 224.103 462.566 221.981C459.141 220.854 456.373 219.905 456.416 219.871C456.563 219.755 494.556 219.785 495.327 219.901C496.328 220.053 496.75 220.605 496.86 221.91ZM491.36 235.589C491.404 235.867 490.751 238.196 489.908 240.765L488.376 245.436L487.426 244.949C483.068 242.717 480.328 237.401 480.873 232.236L480.997 231.057L485.819 232.652C490.762 234.288 491.188 234.514 491.36 235.589ZM474.791 249.879C470.473 248.491 470.406 248.478 469.785 248.887C468.978 249.42 468.839 250.101 469.392 250.806C469.711 251.213 470.719 251.625 474.124 252.742C477.793 253.945 478.532 254.121 478.988 253.901C479.891 253.466 480.106 252.423 479.455 251.634C479.297 251.442 477.198 250.652 474.791 249.879ZM457.835 227.379C452.026 222.301 444.239 221.077 437.182 224.133C434.665 225.224 431.708 227.485 430.079 229.566C426.162 234.57 424.848 241.09 426.561 247.017C427.057 248.734 427.901 250.529 428.392 250.909C429.093 251.453 430.671 250.753 430.683 249.893C430.685 249.736 430.403 248.936 430.057 248.116C426.368 239.381 430.712 229.472 439.616 226.314C442.072 225.443 444.169 225.243 447.022 225.608C451.363 226.163 454.383 227.757 457.25 231.005C462.434 236.878 462.627 245.687 457.707 251.881C456.117 253.883 453.202 256.008 450.841 256.886C445.959 258.703 440.526 258.148 436.277 255.398C434.953 254.541 434.457 254.467 433.749 255.022C432.526 255.982 433.123 257.047 435.69 258.483C439.656 260.702 444.464 261.407 449.001 260.435C452.449 259.696 453.651 259.109 456.832 256.617C459.322 254.667 459.597 254.401 460.544 253.037C464.608 247.183 465.311 240.251 462.501 233.754C461.678 231.853 459.415 228.76 457.835 227.379ZM480.718 269.055C479.138 273.839 478.863 274.359 477.818 274.542C477.235 274.645 467.986 271.589 468.023 271.306C468.039 271.182 468.455 270.454 468.947 269.69C469.739 268.459 470.061 268.128 471.761 266.794C473.464 265.459 473.858 265.228 475.244 264.753C476.103 264.458 477.385 264.148 478.093 264.063C479.479 263.897 481.974 263.999 482.154 264.229C482.215 264.307 481.568 266.479 480.718 269.055ZM448.975 228.595C448.18 228.401 447.491 228.895 447.205 229.866L446.999 230.563L445.648 230.777C444.405 230.973 444.193 231.072 442.993 232.016C441.953 232.835 441.616 233.208 441.325 233.865C440.425 235.901 440.891 238.101 442.623 239.996L443.561 241.022L442.406 244.61C441.688 246.843 441.155 248.187 440.995 248.167C440.854 248.15 440.316 247.75 439.801 247.277C439.286 246.805 438.722 246.294 438.547 246.141C438.158 245.799 437.125 246.057 436.703 246.601C436.533 246.82 436.417 247.271 436.445 247.603C436.491 248.136 436.627 248.331 437.618 249.274C438.234 249.86 439.094 250.506 439.529 250.707L440.32 251.074L440.043 251.827C439.567 253.122 439.959 253.978 441.089 254.115C441.945 254.219 442.491 253.788 442.822 252.748C443.06 252.002 443.13 251.925 443.577 251.908C445.458 251.839 446.236 251.553 447.726 250.385C449.113 249.298 449.214 249.175 449.753 247.908C450.393 246.402 450.468 244.914 449.964 243.72C449.761 243.241 449.119 242.343 448.312 241.415L446.992 239.894L447.861 237.23C448.339 235.765 448.829 234.555 448.951 234.541C449.072 234.527 449.434 234.85 449.754 235.258C450.53 236.248 451.26 236.423 452.045 235.807C452.964 235.086 452.879 234.379 451.719 233.11C451.211 232.553 450.55 231.971 450.252 231.817C449.768 231.566 449.728 231.493 449.875 231.139C450.424 229.825 450.085 228.866 448.975 228.595ZM445.242 235.832L444.589 237.846L444.127 237.257C443.491 236.446 443.648 235.337 444.521 234.477C445.117 233.891 445.697 233.565 445.834 233.741C445.868 233.783 445.602 234.725 445.242 235.832ZM421.473 213.042C418.916 217.27 414.27 219.709 409.531 219.312L407.765 219.164L409.214 214.615C410.011 212.112 410.805 209.843 410.979 209.572C411.625 208.564 412.213 208.624 417.173 210.203C419.71 211.011 421.856 211.749 421.94 211.843C422.025 211.938 421.815 212.477 421.473 213.042ZM447.335 245.643C447.201 247.134 446.09 248.469 444.665 248.851L444.052 249.015L444.947 246.272C446.134 242.633 446.046 242.746 446.796 243.885C447.284 244.625 447.394 244.983 447.335 245.643ZM416.466 230.811C411.581 229.185 411.376 229.144 410.724 229.655C410.163 230.095 410.039 231.12 410.479 231.681C410.741 232.016 418.893 234.794 419.593 234.788C420.022 234.784 420.561 234.433 420.831 233.981C421.002 233.695 420.886 232.614 420.653 232.317C420.587 232.233 418.703 231.555 416.466 230.811ZM426.671 262.366C424.792 262.362 421.162 262.355 418.604 262.351C416.047 262.346 413.73 262.274 413.455 262.191C412.861 262.011 412.382 261.432 412.295 260.791C412.261 260.536 412.229 259.473 412.224 258.43C412.218 257.171 412.306 256.544 412.487 256.566C412.923 256.619 429.877 262.134 429.987 262.259C430.042 262.322 428.55 262.37 426.671 262.366ZM407.951 244.114C408.815 245.863 409.334 248.553 409.178 250.47C409.106 251.347 408.996 252.104 408.933 252.153C408.717 252.323 399.344 249.115 399.083 248.781C398.447 247.97 398.553 247.314 400.071 242.683C400.908 240.13 401.683 238.031 401.794 238.018C402.008 237.994 404.387 239.537 405.002 240.099C405.851 240.874 407.376 242.951 407.951 244.114Z" fill="#8A86B2"/>
<path d="M324.369 144.258C323.244 142.513 322.006 140.839 320.662 139.245C309.685 126.25 295.334 120.751 278.94 117.067C262.007 113.262 242.181 112.08 225.923 118.938C222.096 120.571 218.46 122.727 215.584 125.666C204.706 136.74 200.974 155.286 188.861 169.947C176.748 184.607 170.84 202.869 181.714 220.204C186.317 227.545 192.186 233.593 199.129 238.916C207.677 245.448 215.051 254.285 224.932 259.396C235.315 264.765 249.144 266.636 260.637 264.177C273.747 261.372 281.436 250.216 291.443 242.623C299.333 236.627 308.773 232.702 316.503 226.516C328.348 217.046 337.33 201.807 335.838 186.71C334.372 172.053 332.486 156.821 324.369 144.258Z" fill="#F9F8FE"/>
<path d="M274.778 208.076C297.665 205.489 314.501 185.717 313.883 163.096C315.137 162.497 315.939 161.165 315.775 159.71C315.614 158.286 314.584 157.185 313.273 156.853C309.385 134 288.199 117.845 264.877 120.481C253.156 121.806 243.02 127.653 236.002 136.071C235.579 135.943 235.126 135.898 234.659 135.951C232.824 136.158 231.498 137.814 231.706 139.657C231.771 140.234 231.99 140.754 232.313 141.206C227.318 149.308 224.881 159.067 226.031 169.245C226.475 173.168 227.435 176.984 228.879 180.617C228.64 180.988 228.508 181.444 228.561 181.919C228.685 183.01 229.67 183.796 230.762 183.672C231.853 183.549 232.639 182.563 232.516 181.472C232.423 180.657 231.854 180.016 231.116 179.788C229.741 176.339 228.825 172.702 228.404 168.977C227.321 159.391 229.604 150.187 234.298 142.536C234.659 142.615 235.032 142.653 235.412 142.61C237.246 142.402 238.573 140.747 238.365 138.904C238.309 138.406 238.136 137.945 237.89 137.54C244.523 129.614 254.09 124.111 265.146 122.861C287.156 120.374 307.161 135.589 310.895 157.138C309.708 157.761 308.958 159.063 309.117 160.47C309.272 161.847 310.245 162.938 311.496 163.309C312.009 184.645 296.109 203.27 274.503 205.713C267.63 206.489 260.627 205.543 254.257 202.971C254.105 201.915 253.139 201.159 252.071 201.28C250.98 201.403 250.194 202.389 250.318 203.48C250.441 204.572 251.427 205.357 252.518 205.234C252.842 205.197 253.133 205.076 253.387 204.912L253.286 205.155C260.05 207.883 267.478 208.901 274.778 208.076ZM235.231 141.012C234.266 141.121 233.395 140.427 233.286 139.462C233.177 138.497 233.871 137.626 234.836 137.517C235.801 137.408 236.672 138.102 236.781 139.067C236.89 140.032 236.196 140.903 235.231 141.012ZM310.698 160.284C310.589 159.319 311.283 158.447 312.248 158.338C313.213 158.229 314.084 158.924 314.193 159.889C314.302 160.854 313.608 161.725 312.643 161.834C311.678 161.943 310.807 161.249 310.698 160.284Z" fill="#8A86B2"/>
<path d="M320.245 158.572C319.239 149.675 315.962 141.587 311.084 134.785C311.167 134.528 311.192 134.253 311.159 133.96C311.034 132.853 310.031 132.053 308.923 132.178C307.816 132.303 307.017 133.307 307.142 134.414C307.263 135.49 308.217 136.271 309.29 136.198L309.226 136.277C313.834 142.741 316.919 150.41 317.872 158.84C319.297 171.446 315.707 183.482 308.706 192.964C308.274 192.829 307.811 192.777 307.337 192.83C305.502 193.038 304.175 194.694 304.384 196.536C304.43 196.947 304.562 197.333 304.737 197.682C297.188 205.583 286.939 210.995 275.258 212.315C263.442 213.651 252.13 210.58 242.952 204.425C243.088 203.993 243.133 203.54 243.079 203.065C242.871 201.23 241.216 199.904 239.373 200.112C238.851 200.171 238.383 200.352 237.972 200.615C229.225 192.953 223.189 182.141 221.783 169.701C219.002 145.097 235.297 122.663 258.859 117.188C259.546 118.096 260.681 118.64 261.899 118.503C263.251 118.35 264.315 117.413 264.706 116.199C271.916 115.432 278.942 116.296 285.392 118.506C285.393 118.514 285.393 118.514 285.393 118.522C285.519 119.629 286.522 120.429 287.629 120.304C288.736 120.179 289.536 119.175 289.411 118.068C289.286 116.961 288.282 116.161 287.175 116.286C286.985 116.308 286.807 116.36 286.639 116.435C279.765 114.008 272.269 113.021 264.558 113.829C263.979 112.533 262.627 111.692 261.14 111.86C259.527 112.043 258.313 113.349 258.177 114.911C233.53 120.708 216.491 144.212 219.403 169.978C220.885 183.091 227.275 194.487 236.531 202.532C236.416 202.937 236.37 203.375 236.421 203.826C236.628 205.66 238.284 206.987 240.127 206.779C240.617 206.723 241.071 206.56 241.468 206.315C251.128 212.84 263.055 216.106 275.519 214.697C287.809 213.308 298.586 207.604 306.512 199.283C306.998 199.469 307.529 199.561 308.082 199.498C309.917 199.291 311.244 197.635 311.036 195.792C310.98 195.302 310.817 194.848 310.572 194.451C317.952 184.486 321.744 171.835 320.245 158.572ZM261.318 113.434C262.283 113.325 263.154 114.02 263.263 114.984C263.372 115.949 262.678 116.821 261.713 116.93C260.748 117.039 259.877 116.344 259.768 115.379C259.659 114.415 260.353 113.543 261.318 113.434ZM239.947 205.189C238.982 205.298 238.111 204.604 238.002 203.639C237.893 202.674 238.587 201.803 239.552 201.694C240.517 201.585 241.388 202.279 241.497 203.244C241.606 204.209 240.912 205.08 239.947 205.189ZM307.911 197.908C306.946 198.017 306.074 197.322 305.965 196.357C305.856 195.393 306.551 194.521 307.516 194.412C308.48 194.303 309.352 194.998 309.461 195.962C309.57 196.927 308.868 197.8 307.911 197.908Z" fill="#8A86B2"/>
<path d="M241.841 190.061C242.047 190.038 242.242 189.992 242.427 189.931C250.267 198.28 261.81 202.966 274.037 201.584C279.802 200.932 285.177 199.027 290.025 195.924C290.309 196.028 290.611 196.074 290.927 196.039C292.018 195.915 292.804 194.929 292.681 193.838C292.557 192.747 291.571 191.961 290.48 192.084C289.507 192.194 288.787 192.981 288.726 193.925C284.191 196.824 279.17 198.601 273.776 199.211C262.404 200.496 251.663 196.175 244.326 188.45C244.698 187.84 244.888 187.113 244.801 186.346C244.594 184.512 242.938 183.185 241.095 183.393C240.866 183.419 240.647 183.468 240.438 183.532C237.498 179.066 235.534 173.874 234.894 168.211C232.716 148.946 246.619 131.499 265.885 129.322C272.836 128.536 279.545 129.852 285.391 132.747C285.35 133.024 285.334 133.307 285.366 133.591C285.574 135.426 287.229 136.753 289.072 136.544C289.657 136.478 290.184 136.251 290.628 135.928C298.255 141.538 303.628 150.174 304.773 160.304C305.325 165.184 304.868 170.001 303.431 174.649C302.507 174.906 301.871 175.795 301.982 176.783C302.106 177.875 303.092 178.66 304.183 178.537C305.274 178.414 306.06 177.428 305.937 176.336C305.904 176.044 305.8 175.767 305.662 175.535C307.241 170.518 307.742 165.311 307.147 160.044C305.919 149.186 300.148 139.93 291.95 133.944C292.03 133.591 292.061 133.227 292.018 132.847C291.811 131.013 290.155 129.686 288.312 129.894C287.632 129.971 287.023 130.248 286.532 130.656C280.268 127.528 273.066 126.107 265.609 126.95C245.038 129.275 230.187 147.902 232.513 168.48C233.207 174.617 235.356 180.237 238.575 185.048C238.226 185.648 238.058 186.356 238.141 187.091C238.342 188.943 240.006 190.268 241.841 190.061ZM241.267 184.984C242.232 184.875 243.103 185.569 243.212 186.534C243.321 187.499 242.627 188.37 241.662 188.479C240.697 188.588 239.826 187.894 239.717 186.929C239.608 185.964 240.302 185.093 241.267 184.984ZM288.485 131.493C289.45 131.384 290.321 132.078 290.43 133.043C290.539 134.008 289.845 134.879 288.88 134.988C287.915 135.097 287.044 134.403 286.935 133.438C286.826 132.473 287.52 131.602 288.485 131.493Z" fill="#8A86B2"/>
<path fill-rule="evenodd" clip-rule="evenodd" d="M265.812 144.637C265.635 144.724 265.48 144.796 265.466 144.798C265.452 144.801 265.401 144.934 265.351 145.095C265.288 145.301 265.298 145.727 265.385 146.535C265.452 147.167 265.516 147.989 265.526 148.361C265.542 148.984 265.525 149.06 265.309 149.292C265.18 149.431 264.683 149.742 264.204 149.984C262.348 150.921 261.315 151.696 260.308 152.906C258.827 154.688 258.251 156.751 258.535 159.261C258.795 161.566 259.644 163.048 261.534 164.495C263.148 165.731 264.834 166.442 268.427 167.4C271.498 168.22 272.278 168.525 273.197 169.27C274.233 170.11 274.58 171.278 274.143 172.46C273.575 174.002 271.328 175.044 268.652 175.006C266.715 174.979 264.938 174.684 262.958 174.06C261.95 173.743 261.788 173.724 261.537 173.891C261.29 174.056 261.144 174.552 260.813 176.361C260.412 178.552 260.379 178.967 260.578 179.312C261.03 180.097 263.552 180.746 266.975 180.958C267.643 180.999 268.284 181.062 268.4 181.098C268.776 181.214 268.855 181.458 269.115 183.289C269.474 185.818 269.362 185.739 272.157 185.423C274.981 185.104 274.869 185.239 274.616 182.464C274.493 181.117 274.465 180.469 274.525 180.337C274.676 180.003 275.088 179.709 275.914 179.345C278.537 178.189 280.418 176.275 281.339 173.825C282.725 170.134 281.545 166.212 278.301 163.73C276.859 162.627 275.319 161.994 271.55 160.957C268.902 160.228 267.841 159.813 267.002 159.177C265.63 158.138 265.61 156.504 266.956 155.404C267.681 154.812 268.322 154.606 270.008 154.426C272.048 154.209 273.462 154.331 275.492 154.902C276.052 155.059 276.639 155.174 276.797 155.156C277.352 155.093 277.472 154.756 278.001 151.772C278.309 150.035 278.289 149.827 277.778 149.46C277.249 149.079 275.096 148.608 273.401 148.503C271.806 148.404 271.422 148.336 271.206 148.112C271.025 147.925 270.984 147.758 270.786 146.403C270.541 144.725 270.406 144.388 269.912 144.216C269.521 144.08 266.267 144.414 265.812 144.637Z" fill="#8A86B2"/>
<path d="M1272.01 108.309C1281.59 90.1917 1282.25 66.051 1275.62 46.6981C1269.93 30.037 1257.25 17.3221 1242.61 9.75741C1225.63 0.979261 1205.39 -1.63369 1187.15 3.90741C1182.36 5.36361 1177.69 6.70003 1173.17 9.0955C1154.63 18.9106 1158.22 43.0986 1151.71 51.5143C1146.24 58.5935 1135.78 56.5069 1129.19 61.9314C1111.41 76.5785 1121.7 114.304 1140.78 127.845C1163 143.611 1248.28 153.171 1272.01 108.309Z" fill="#F9F8FE"/>
<path d="M1177.75 78.221L1174.95 79.6487C1174.96 79.6586 1174.96 79.6586 1174.96 79.6685L1177.76 78.2408C1177.76 78.2309 1177.75 78.2285 1177.75 78.221Z" fill="#8A86B2"/>
<path d="M1228.66 105.998L1227.68 104.077L1228.66 105.998Z" fill="#8A86B2"/>
<path d="M1226.6 101.948L1227.68 104.077L1226.6 101.948Z" fill="#8A86B2"/>
<path d="M1224.79 105.309L1223.35 102.488C1214.97 105.622 1205.52 106.064 1196.37 103.09C1187.22 100.118 1179.84 94.2078 1174.9 86.7534L1172.08 88.1912C1177.39 96.3633 1185.42 102.838 1195.4 106.079C1205.37 109.321 1215.68 108.803 1224.79 105.309Z" fill="#8A86B2"/>
<path d="M1173.77 76.7208L1176.59 75.283C1174.24 68.4798 1174 60.8829 1176.39 53.522C1182.24 35.5269 1201.64 25.6364 1219.64 31.4858C1227 33.8775 1233 38.5359 1237.13 44.4384L1239.95 43.0006C1235.44 36.3878 1228.8 31.1578 1220.62 28.499C1200.98 22.1154 1179.8 32.9065 1173.41 52.5531C1170.74 60.7412 1171.07 69.1922 1173.77 76.7208Z" fill="#8A86B2"/>
<path d="M1224.76 15.7076C1211.97 11.5507 1198.7 12.777 1187.4 18.1009C1186.45 18.5454 1185.52 19.0272 1184.6 19.5287L1186.03 22.3307L1187.64 25.509C1178.2 30.7367 1170.64 39.3993 1167.05 50.4519C1163.11 62.5583 1164.72 75.1518 1170.45 85.4901L1173.25 84.0624C1173.25 84.0624 1173.25 84.0624 1173.25 84.0525L1176.38 82.4583C1180.82 90.3886 1188.14 96.7316 1197.44 99.7546C1217.09 106.138 1238.27 95.3471 1244.65 75.7005C1247.68 66.3965 1246.85 56.7491 1243.04 48.4909C1243.05 48.4835 1243.04 48.481 1243.04 48.4736L1243.04 48.4637L1246.21 46.8442L1249.02 45.4165C1248.58 44.4731 1248.1 43.5499 1247.6 42.6442C1242.37 33.2265 1233.72 25.681 1222.69 22.0971C1211.65 18.5132 1200.22 19.5318 1190.45 24.0738L1188.83 20.8955C1199.41 15.9324 1211.82 14.7995 1223.79 18.6894C1248.8 26.8164 1262.53 53.7749 1254.41 78.7797C1250.52 90.7515 1242.31 100.122 1232.07 105.769L1230.48 102.64C1239.9 97.4047 1247.44 88.7522 1251.03 77.722C1254.27 67.738 1253.74 57.4199 1250.25 48.312L1247.43 49.7498C1250.57 58.1397 1251.01 67.5962 1248.04 76.7582C1244.37 88.035 1236.25 96.6397 1226.26 101.275L1229.28 107.206C1218.69 112.169 1206.29 113.302 1194.31 109.412C1169.31 101.288 1155.57 74.3267 1163.7 49.3219C1167.24 38.4262 1174.35 29.6751 1183.32 23.939L1181.89 21.1271C1172.2 27.2339 1164.52 36.6329 1160.71 48.3506C1152.05 75.007 1166.69 103.74 1193.34 112.401C1206.14 116.558 1219.4 115.332 1230.71 110.008C1231.65 109.564 1232.58 109.082 1233.51 108.58C1244.46 102.571 1253.25 92.5547 1257.4 79.7609C1266.07 53.1045 1251.42 24.3713 1224.76 15.7076ZM1221.71 25.0938C1231.92 28.4106 1239.93 35.377 1244.8 44.0794L1241.62 45.6988L1238.82 47.1265C1239.34 48.0395 1239.81 48.9702 1240.25 49.9285C1243.68 57.4639 1244.43 66.2572 1241.67 74.7391C1235.82 92.7342 1216.42 102.625 1198.42 96.7753C1189.94 94.0194 1183.26 88.2554 1179.19 81.0405C1178.67 80.13 1178.19 79.1968 1177.76 78.2385L1174.96 79.6662L1171.83 81.2604C1167.65 72.2099 1166.72 61.6314 1170.04 51.4232C1177.03 29.9182 1200.21 18.108 1221.71 25.0938Z" fill="#8A86B2"/>
<path fill-rule="evenodd" clip-rule="evenodd" d="M1215.92 47.5906C1212.69 46.8477 1209.95 47.0381 1206.54 48.2406C1205.2 48.7131 1204.33 49.1087 1203.39 49.6716C1201.54 50.7827 1200.07 52.0796 1198.77 53.7642L1198.26 54.4192L1195.7 53.5891L1193.15 52.7591L1192.54 54.6373L1191.93 56.5154L1194.03 57.2184L1196.14 57.9213L1195.59 59.7483C1195.29 60.7532 1195.04 61.6496 1195.05 61.7404L1195.05 61.9053L1192.85 61.1894L1190.64 60.4734L1189.98 62.5173L1189.31 64.5613L1192.05 65.4501L1194.78 66.3389L1194.82 67.1328C1194.86 68.1556 1195.15 69.8646 1195.47 70.9113C1195.73 71.7767 1196.37 73.2913 1196.77 73.9883C1198.47 76.9641 1200.93 79.2766 1204.05 80.8439C1205.17 81.4026 1207.73 82.2166 1209.1 82.4477C1212.95 83.0948 1216.31 82.5582 1219.33 80.8148C1219.76 80.5661 1220.14 80.3325 1220.19 80.2958C1220.24 80.2527 1219.87 79.2971 1219.16 77.616L1218.06 75.0031L1217.29 75.3474C1215.86 75.9956 1213.77 76.6511 1212.64 76.8055C1211.99 76.8957 1211.18 76.8949 1210.35 76.8034C1209.7 76.7328 1209.39 76.6528 1208.09 76.232C1206.4 75.6852 1205.93 75.4517 1204.88 74.6307C1203.22 73.3399 1202.08 71.4515 1201.57 69.1085L1201.47 68.6571L1207.14 70.4985L1212.8 72.3398L1213.47 70.2962L1214.13 68.2525L1207.84 66.1907L1201.56 64.1288L1201.59 63.8474C1201.6 63.6926 1201.84 62.8106 1202.12 61.8875L1202.62 60.2091L1209.01 62.2855L1215.4 64.3618L1216.06 62.3178L1216.73 60.2739L1210.89 58.3789C1207.69 57.3367 1205.07 56.4662 1205.07 56.4444C1205.11 56.3216 1206.41 55.2528 1207.01 54.8489C1208.58 53.7919 1210.68 53.1378 1212.48 53.1438C1213.62 53.1475 1214.38 53.2885 1215.81 53.757C1217.3 54.2457 1218.38 54.745 1219.21 55.3255C1220.26 56.0691 1221.43 57.5314 1222.47 59.4309L1223.13 60.6158L1225.57 59.0756C1227.6 57.7954 1228.01 57.5115 1227.99 57.3947C1227.94 57.1734 1226.78 55.0793 1226.38 54.5011C1225.82 53.6966 1224.97 52.7061 1224.21 51.9942C1222.37 50.2466 1220.4 49.0942 1217.67 48.1554C1216.88 47.885 1216.09 47.6309 1215.92 47.5906Z" fill="#8A86B2"/>
<path opacity="0.03" d="M710.369 239.008C709.244 237.394 708.006 235.844 706.662 234.368C695.685 222.34 681.334 217.249 664.94 213.839C648.007 210.317 628.181 209.223 611.923 215.571C608.096 217.083 604.46 219.078 601.584 221.799C590.706 232.049 586.974 249.217 574.861 262.787C562.748 276.357 556.84 293.262 567.714 309.308C572.317 316.103 578.186 321.702 585.129 326.629C593.677 332.675 601.051 340.855 610.932 345.586C621.315 350.556 635.144 352.288 646.637 350.012C659.747 347.415 667.436 337.089 677.443 330.06C685.333 324.51 694.773 320.877 702.503 315.151C714.348 306.384 723.33 292.279 721.838 278.304C720.372 264.737 718.486 250.638 710.369 239.008Z" fill="#3E1BDB"/>
<path d="M659.702 264.053C661.949 261.855 662.883 258.784 661.921 255.43C660.425 250.211 655.239 247.921 647.095 250.248L645.408 244.364L639.614 246.025L641.302 251.909L638.114 252.823L636.89 253.174L635.203 247.29L629.41 248.952L631.097 254.835L625.855 256.339L627.551 262.253L632.801 260.748L639.023 282.448L633.774 283.953L635.469 289.867L640.711 288.364L642.375 294.165L648.168 292.504L646.505 286.703L647.728 286.352L650.916 285.438L652.579 291.239L658.372 289.578L656.709 283.777L657.608 283.519C666.188 281.059 669.706 276.421 668.042 270.62C666.836 266.413 663.679 264.212 659.702 264.053ZM638.382 259.147L639.81 258.738L639.788 258.662L647.802 256.364C651.488 255.307 653.86 256.025 654.616 258.661C655.372 261.297 653.756 263.215 650.07 264.272L640.628 266.98L638.382 259.147ZM655.375 277.841L646.054 280.514L646.035 280.446L644.607 280.855L642.251 272.637L652.999 269.555C656.919 268.431 659.404 269.173 660.214 271.998C661.03 274.871 659.295 276.717 655.375 277.841Z" fill="#8A86B2"/>
<path d="M629.85 298.125L628.325 300.875C628.335 300.88 628.335 300.88 628.344 300.886L629.869 298.135C629.859 298.13 629.852 298.132 629.85 298.125Z" fill="#8A86B2"/>
<path d="M687.588 292.685L685.702 291.64L687.588 292.685Z" fill="#8A86B2"/>
<path d="M683.609 290.483L685.699 291.641L683.609 290.483Z" fill="#8A86B2"/>
<path d="M683.988 294.281L681.218 292.746C676.024 300.031 668.439 305.68 659.186 308.333C649.941 310.984 640.516 310.213 632.252 306.795L630.717 309.565C639.695 313.366 649.969 314.246 660.053 311.354C670.136 308.463 678.391 302.271 683.988 294.281Z" fill="#8A86B2"/>
<path d="M625.708 299.108L627.243 296.338C621.491 292.012 617.042 285.849 614.909 278.409C609.694 260.221 620.245 241.174 638.441 235.956C645.881 233.823 653.457 234.331 660.182 236.915L661.717 234.145C654.28 231.185 645.853 230.561 637.582 232.933C617.725 238.627 606.201 259.416 611.895 279.273C614.261 287.554 619.259 294.377 625.708 299.108Z" fill="#8A86B2"/>
<path d="M633.862 220.013C620.931 223.721 610.621 232.154 604.226 242.89C603.69 243.787 603.186 244.708 602.701 245.64L605.452 247.165L608.572 248.894C603.669 258.507 602.241 269.919 605.444 281.09C608.953 293.327 617.329 302.867 627.86 308.235L629.384 305.484C629.384 305.484 629.384 305.484 629.375 305.479L631.077 302.407C639.197 306.496 648.81 307.663 658.214 304.967C678.071 299.273 689.595 278.483 683.901 258.626C681.204 249.222 675.12 241.689 667.35 236.969C667.348 236.961 667.34 236.963 667.338 236.956L667.329 236.95L669.058 233.831L670.583 231.08C669.693 230.542 668.781 230.043 667.861 229.572C658.255 224.691 646.862 223.274 635.714 226.471C624.565 229.668 615.655 236.907 610.094 246.136L606.974 244.407C612.974 234.373 622.626 226.497 634.726 223.027C660.007 215.778 686.464 230.45 693.711 255.723C697.181 267.823 695.616 280.182 690.286 290.587L687.215 288.885C692.095 279.279 693.512 267.886 690.316 256.737C687.422 246.646 681.212 238.389 673.223 232.792L671.688 235.561C678.983 240.761 684.641 248.351 687.296 257.611C690.565 269.009 688.641 280.686 682.95 290.116L688.771 293.343C682.771 303.377 673.12 311.253 661.02 314.723C635.746 321.97 609.281 307.3 602.034 282.027C598.877 271.015 599.882 259.781 604.11 250.01L601.349 248.48C596.736 258.958 595.617 271.05 599.013 282.893C606.739 309.836 634.944 325.47 661.886 317.744C674.817 314.037 685.126 305.604 691.522 294.868C692.057 293.97 692.562 293.049 693.047 292.117C698.764 281.012 700.45 267.793 696.742 254.862C689.017 227.92 660.812 212.285 633.862 220.013ZM636.582 229.5C646.9 226.541 657.44 227.835 666.339 232.33L664.609 235.45L663.085 238.2C664.027 238.665 664.941 239.172 665.835 239.725C672.896 244.051 678.431 250.925 680.889 259.498C686.105 277.686 675.553 296.733 657.357 301.951C648.784 304.409 640.024 303.365 632.611 299.662C631.676 299.195 630.755 298.691 629.861 298.138L628.336 300.888L626.634 303.959C618.106 298.794 611.424 290.542 608.465 280.224C602.24 258.484 614.852 235.731 636.582 229.5Z" fill="#8A86B2"/>
</svg>
