<svg width="28" height="123" viewBox="0 0 28 123" fill="none" xmlns="http://www.w3.org/2000/svg">
<g opacity="0.7">
<path d="M26.8024 6.21587L21.5533 1L13.9012 8.61702L6.24905 1L1 6.21587L8.65205 13.8329L1 21.4366L6.24905 26.6524L13.9012 19.0488L21.5533 26.6524L26.8024 21.4366L19.1502 13.8329L26.8024 6.21587Z" stroke="#3E1BDB" stroke-width="0.8412" stroke-miterlimit="10" stroke-linecap="round" stroke-linejoin="round"/>
<path d="M26.8024 53.7583L21.5533 48.5425L13.9012 56.1462L6.24905 48.5425L1 53.7583L8.65205 61.3754L1 68.979L6.24905 74.1949L13.9012 66.5912L21.5533 74.1949L26.8024 68.979L19.1502 61.3754L26.8024 53.7583Z" stroke="#3E1BDB" stroke-width="0.8412" stroke-miterlimit="10" stroke-linecap="round" stroke-linejoin="round"/>
<path d="M26.8024 101.301L21.5533 96.0852L13.9012 103.689L6.24905 96.0852L1 101.301L8.65205 108.905L1 116.522L6.24905 121.738L13.9012 114.121L21.5533 121.738L26.8024 116.522L19.1502 108.905L26.8024 101.301Z" stroke="#3E1BDB" stroke-width="0.8412" stroke-miterlimit="10" stroke-linecap="round" stroke-linejoin="round"/>
</g>
</svg>
