<svg width="80" height="80" viewBox="0 0 80 80" fill="none" xmlns="http://www.w3.org/2000/svg">
<path d="M40 0C17.9462 0 0 17.9399 0 40C0 62.0538 17.9462 80 40 80C62.0538 80 80 62.0538 80 40C80 17.9399 62.0601 0 40 0ZM42.4847 1.97515C61.5191 3.20176 76.7857 18.462 78.0248 37.4902C78.0877 38.4337 77.3329 39.2389 76.3894 39.2389C75.5276 39.2389 74.8168 38.5721 74.7602 37.7166C73.6342 20.3114 59.6698 6.3532 42.2582 5.23982C41.4027 5.18321 40.736 4.4724 40.736 3.61063C40.7297 2.66709 41.5348 1.91854 42.4847 1.97515ZM12.2158 40C12.2158 24.6768 24.6831 12.2095 40.0063 12.2095C55.3295 12.2095 67.7968 24.6768 67.7968 40C67.7968 55.3232 55.3295 67.7905 40.0063 67.7905C24.6768 67.7905 12.2158 55.3232 12.2158 40ZM17.2794 61.3681C16.6001 62.0475 15.4867 62.0035 14.8703 61.2738C10.0016 55.5308 7.05771 48.1082 7.05771 40.0063C7.05771 32.005 9.92609 24.6643 14.6878 18.9527C15.3043 18.2167 16.424 18.1664 17.1033 18.8457C17.7009 19.4433 17.7449 20.3931 17.204 21.041C12.914 26.1865 10.3287 32.8039 10.3287 40.0126C10.3287 47.3156 12.9832 54.0022 17.3738 59.1728C17.9148 59.8081 17.877 60.7643 17.2794 61.3681ZM62.4501 59.3804C66.9476 54.1783 69.6776 47.4037 69.6776 40C69.6776 32.6907 67.0168 25.9915 62.6136 20.8146C62.0664 20.1667 62.1041 19.2106 62.7017 18.6067C63.381 17.9273 64.4944 17.9714 65.1109 18.7011C69.9921 24.4504 72.9486 31.8855 72.9486 40C72.9486 48.2151 69.9229 55.732 64.9284 61.5128C64.3057 62.2362 63.1986 62.2739 62.5256 61.6009C61.928 60.9907 61.8902 60.0283 62.4501 59.3804ZM61.2738 14.864C62.0035 15.4804 62.0475 16.6001 61.3681 17.2732C60.7706 17.8707 59.8081 17.9148 59.1602 17.3675C53.9833 12.9769 47.2967 10.3224 40 10.3224C32.5963 10.3224 25.8217 13.0524 20.6196 17.5499C19.9717 18.1098 19.003 18.072 18.3991 17.4682C17.7261 16.7951 17.7638 15.688 18.4872 15.0653C24.2617 10.0708 31.7786 7.04513 40 7.04513C48.1019 7.05142 55.5307 9.99528 61.2738 14.864ZM37.075 2.0066C38.0248 1.93112 38.8426 2.68596 38.8426 3.64208C38.8426 4.49127 38.1884 5.20208 37.3392 5.27127C20.1227 6.57965 6.37207 20.456 5.24611 37.7229C5.18949 38.5784 4.47869 39.2452 3.61692 39.2452C2.66709 39.2452 1.91854 38.44 1.98144 37.4965C3.21434 18.613 18.2544 3.44708 37.075 2.0066ZM37.0813 77.9871C18.3802 76.5655 3.42192 61.5946 2.0129 42.8998C1.9437 41.95 2.69225 41.1323 3.64837 41.1323C4.50385 41.1323 5.21466 41.7864 5.27756 42.6356C6.56707 59.739 20.2485 73.4266 37.3455 74.7224C38.1947 74.7853 38.8489 75.4962 38.8489 76.3516C38.8426 77.3078 38.0311 78.0626 37.0813 77.9871ZM18.7073 65.1109C17.9777 64.4944 17.9336 63.381 18.613 62.7017C19.2106 62.1041 20.173 62.0601 20.8209 62.6136C25.9978 67.0168 32.697 69.6776 40.0063 69.6776C47.215 69.6776 53.8261 67.0923 58.9778 62.8023C59.6257 62.2614 60.5756 62.3054 61.1731 62.903C61.8525 63.5823 61.8085 64.702 61.0662 65.3185C55.3546 70.0802 48.0138 72.9486 40.0126 72.9486C31.8855 72.9486 24.4504 69.9984 18.7073 65.1109ZM42.4784 78.0186C41.5348 78.0815 40.7297 77.3266 40.7297 76.3831C40.7297 75.5213 41.3964 74.8105 42.2519 74.7539C59.5377 73.6468 73.4266 59.8711 74.7287 42.6356C74.7916 41.7864 75.5024 41.1323 76.3579 41.1323C77.314 41.1323 78.0689 41.9437 77.9934 42.8998C76.5655 61.7456 61.3807 76.7982 42.4784 78.0186Z" fill="#8A86B2"/>
<path fill-rule="evenodd" clip-rule="evenodd" d="M38.8666 26.3921C37.6063 26.4735 35.9484 26.8277 34.6428 27.2945C31.4082 28.4511 28.5791 30.6848 26.6713 33.5883C25.4056 35.5147 24.5928 37.6051 24.2056 39.93C24.0748 40.716 23.9604 41.9916 24.0131 42.078C24.0668 42.166 24.983 42.0937 25.3671 41.9712C25.5541 41.9115 26.0677 41.6797 26.5084 41.456C27.6535 40.8746 27.9444 40.7815 28.6938 40.7566C29.0466 40.7449 29.3303 40.7566 29.3713 40.7847C29.4299 40.8248 29.3892 40.9444 29.1285 41.4982L28.8152 42.1634L28.4951 42.1652C27.97 42.1679 27.4973 42.3232 26.5642 42.7995C25.5157 43.3347 25.1866 43.4445 24.5225 43.4811L24.0178 43.509L24.0488 44.0222C24.0658 44.3044 24.0921 44.5555 24.1072 44.5801C24.152 44.6535 24.8677 44.6309 25.1519 44.5472C25.297 44.5044 25.7107 44.3128 26.0713 44.1214C26.4319 43.93 26.8344 43.7197 26.9659 43.6542C27.2803 43.4974 27.8718 43.3467 28.1728 43.3467C28.4511 43.3467 28.4427 43.269 28.2556 44.1145L28.1455 44.612L27.8414 44.6407C27.4485 44.6779 27.1162 44.8178 26.3301 45.2772C25.5772 45.717 25.1862 45.8539 24.6821 45.8539C24.4846 45.8539 24.323 45.8641 24.323 45.8766C24.323 45.9091 24.5116 46.7274 24.5714 46.9545L24.6217 47.1456L24.93 47.1164C25.2954 47.0819 25.6432 46.9247 26.3627 46.4688C26.9265 46.1115 27.355 45.9522 27.7519 45.9522H28.0139V46.4862V47.0202L27.7459 47.0521C27.3516 47.099 27.0669 47.2252 26.4777 47.6141C25.8521 48.027 25.5738 48.1589 25.2446 48.1983C24.9594 48.2325 24.9582 48.1841 25.2626 48.9203C25.373 49.1872 25.4916 49.4166 25.5262 49.43C25.6269 49.4691 26.1649 49.1724 26.5175 48.8834C26.9814 48.503 27.2952 48.3602 27.7421 48.326C28.0381 48.3033 28.1113 48.3113 28.1127 48.3663C28.1136 48.404 28.146 48.6118 28.1846 48.8281C28.2232 49.0444 28.2552 49.2242 28.2557 49.2276C28.2563 49.231 28.1419 49.2434 28.0017 49.2552C27.6418 49.2855 27.2673 49.4754 26.8726 49.828C26.6856 49.995 26.4125 50.1895 26.2656 50.2602C26.1187 50.3309 25.9918 50.3947 25.9836 50.402C25.9645 50.4187 26.4533 51.2577 26.5488 51.3722C26.5883 51.4195 26.6483 51.4582 26.6821 51.4582C26.7159 51.4582 26.8977 51.315 27.0861 51.14C27.5337 50.7242 27.8841 50.4939 28.1838 50.4185C28.3174 50.3849 28.4421 50.345 28.4609 50.3299C28.4797 50.3148 28.4419 50.1172 28.3769 49.8908C28.3119 49.6644 28.2684 49.4631 28.2804 49.4435C28.2924 49.4239 28.4504 49.3939 28.6315 49.3768C29.0227 49.3399 29.7955 49.1016 30.1021 48.9233C30.2223 48.8535 30.4547 48.6932 30.6186 48.5672L30.9165 48.3382L30.9383 47.9566C30.9569 47.6313 30.9907 47.5126 31.1671 47.1522C31.2809 46.9197 31.5741 46.4648 31.8186 46.1413C32.5341 45.1947 32.916 44.6214 32.9736 44.4071C33.0645 44.0699 32.9929 43.3934 32.799 42.7568C32.5285 41.8683 32.4332 41.3211 32.4332 40.6565C32.4332 40.0155 32.4822 39.6556 32.6361 39.168C32.788 38.6865 33.1927 37.9186 33.5011 37.5263C33.8029 37.1426 34.3392 36.6236 34.3621 36.6932C34.3701 36.7174 34.2179 36.9806 34.0241 37.2781C33.3573 38.3013 33.0645 39.2017 33.0645 40.2281C33.0645 40.8823 33.1278 41.2741 33.3538 42.0194C33.6249 42.9135 33.7028 43.2761 33.7302 43.7705C33.7533 44.1894 33.7416 44.3217 33.6555 44.6086C33.549 44.9635 33.2128 45.5185 32.7522 46.0997C32.0231 47.0198 31.7491 47.5597 31.7171 48.1399C31.6872 48.6799 31.7912 49.089 32.1501 49.8448C32.3129 50.1877 32.4333 50.5021 32.4176 50.5434C32.3668 50.6774 31.627 51.2309 31.1865 51.4644C30.583 51.7845 30.1946 51.9106 29.7265 51.9383C29.2234 51.9682 29.1269 51.9122 28.935 51.4793C28.858 51.3055 28.7886 51.1635 28.7808 51.1639C28.773 51.1641 28.6521 51.1953 28.5122 51.233C28.2122 51.3138 27.9116 51.5287 27.4847 51.9673L27.1741 52.2865L27.4327 52.6221C27.5749 52.8066 27.7442 53.0166 27.8091 53.0886L27.9269 53.2196L28.3474 52.7842C28.7189 52.3994 29.0719 52.1511 29.2522 52.1478C29.3261 52.1464 29.6462 52.8001 29.5822 52.8217C29.3459 52.9014 28.6952 53.4998 28.5463 53.7741C28.513 53.8357 28.6012 53.95 28.9445 54.2902L29.3857 54.7272L29.5117 54.5552C29.7158 54.2767 30.1779 53.8179 30.2544 53.8179C30.3275 53.8179 30.6849 54.2567 30.6849 54.3465C30.6849 54.3745 30.6543 54.4093 30.6168 54.4238C30.533 54.4563 30.005 55.1119 30.005 55.1833C30.005 55.2641 31.0536 56.0721 31.0942 56.0226C31.1019 56.0133 31.1543 55.8498 31.2105 55.6594C31.3202 55.2882 31.4879 55.0022 32.117 54.1129C32.8648 53.056 33.0443 52.6064 33.004 51.8911C32.9905 51.653 32.9888 51.4582 33.0002 51.4582C33.0115 51.4582 33.0971 51.6211 33.1906 51.8203C33.4041 52.2754 33.4527 52.7158 33.3391 53.1644C33.2513 53.5112 32.9226 54.1984 32.6034 54.7024C32.1805 55.3703 31.8511 56.1145 31.8526 56.3989C31.8532 56.5291 31.8911 56.5681 32.1762 56.732C32.3538 56.8341 32.5498 56.9305 32.6118 56.9462C32.7122 56.9718 32.7246 56.9576 32.7246 56.817C32.7246 56.5199 33.022 55.7596 33.5997 54.5799C33.9175 53.931 34.203 53.2945 34.2341 53.1655C34.2656 53.0347 34.2811 52.7462 34.269 52.5134C34.2489 52.1248 34.2284 52.0574 33.9747 51.5435C33.8247 51.2398 33.5873 50.8142 33.4471 50.5979C33.083 50.0363 32.6583 49.1704 32.5861 48.8424C32.5083 48.4894 32.5069 48.0097 32.5827 47.6945C32.6772 47.3015 32.9543 46.8255 33.5621 46.012C34.2113 45.143 34.3445 44.9288 34.4763 44.5411C34.6712 43.9676 34.5593 43.2593 34.059 41.8991C33.804 41.206 33.7282 40.7717 33.7241 39.9792C33.7201 39.2284 33.7538 38.9925 33.9486 38.406C34.211 37.6164 34.8829 36.6287 35.4529 36.195C35.9152 35.8432 35.9391 35.8807 35.5706 36.3797C34.7861 37.4421 34.4643 38.3839 34.4666 39.6105C34.4677 40.2254 34.5534 40.6686 34.8184 41.4294C34.9267 41.7404 35.088 42.2049 35.1768 42.4618C35.4888 43.3639 35.5268 44.2764 35.2773 44.8679C35.1205 45.2395 34.9248 45.5388 34.3695 46.2564C33.65 47.1861 33.449 47.6186 33.4485 48.2382C33.4479 48.8597 33.6783 49.4119 34.3879 50.4895C35.0367 51.475 35.2984 52.1173 35.2984 52.7245C35.2984 53.3801 35.2205 53.5852 34.2479 55.4894C33.8503 56.2677 33.6471 56.8541 33.6478 57.2206L33.6482 57.4804L34.097 57.6486C34.3438 57.741 34.5686 57.8246 34.5966 57.8343C34.6274 57.845 34.6689 57.6631 34.7022 57.3712C34.78 56.6886 34.8837 56.4067 35.566 55.0224C36.2066 53.7227 36.3355 53.3551 36.3326 52.8347C36.3292 52.2357 36.1399 51.7965 35.3598 50.5785C34.4116 49.0979 34.2195 48.3892 34.5237 47.4941C34.6274 47.1889 35.0345 46.5597 35.6526 45.7491C35.9124 45.4084 36.1019 45.1003 36.1969 44.8642C36.3329 44.5261 36.3423 44.461 36.3393 43.8875C36.3354 43.1688 36.2327 42.7584 35.8372 41.8818C35.3234 40.7427 35.1173 39.8829 35.1685 39.0928C35.2231 38.252 35.4556 37.5437 35.9185 36.8083C36.3108 36.1851 37.0447 35.4623 37.1917 35.5542C37.2535 35.593 37.1997 35.6989 36.9289 36.0712C36.3038 36.9309 35.9667 38.1629 36.0456 39.2995C36.0888 39.9224 36.2543 40.4178 37.0131 42.1963C37.2488 42.7486 37.4354 43.528 37.4345 43.9562C37.4329 44.7428 37.2165 45.2604 36.4674 46.2692C35.8854 47.0528 35.7436 47.2952 35.6196 47.7187C35.4214 48.3947 35.6184 49.0967 36.3022 50.1506C36.4794 50.4237 36.7387 50.8241 36.8785 51.0404C37.3855 51.8247 37.6158 52.5371 37.5638 53.1605C37.5247 53.6308 37.3738 54.0406 36.7791 55.2929C36.1096 56.7028 36.0174 56.9839 35.9893 57.7028L35.9672 58.2693L36.4467 58.3787C36.7105 58.439 36.9592 58.4882 36.9993 58.4882C37.0598 58.4882 37.0732 58.3927 37.0768 57.9352C37.0801 57.5111 37.1105 57.2666 37.207 56.8868C37.3647 56.2661 37.4255 56.1124 37.9439 55.0224C38.539 53.771 38.5741 53.6591 38.5754 53.0068C38.5762 52.613 38.5531 52.398 38.4902 52.2158C38.3787 51.8924 38.0222 51.2654 37.4592 50.4026C36.9138 49.5665 36.8025 49.363 36.6664 48.9538C36.4679 48.3566 36.555 47.5496 36.8729 47.0401C36.9341 46.942 37.1754 46.6073 37.4091 46.2963C37.9054 45.6359 38.0396 45.3863 38.1646 44.8916C38.34 44.1972 38.3754 44.1825 39.2807 44.4277C39.7772 44.5622 40.3778 44.5455 40.8833 44.3833C41.2854 44.2543 41.5221 44.2516 41.6324 44.3751C41.6788 44.427 41.7601 44.6407 41.8131 44.85C41.9467 45.3781 42.0833 45.6288 42.6629 46.4103C43.2411 47.1898 43.2764 47.2513 43.3804 47.6576C43.4762 48.0316 43.4767 48.3447 43.3823 48.7501C43.2753 49.2096 43.0846 49.5799 42.4853 50.4917C41.5721 51.8811 41.3953 52.2899 41.3973 53.0068C41.3988 53.5616 41.4966 53.8601 42.0733 55.0715C42.7317 56.4546 42.9219 57.1177 42.9226 58.0335C42.9229 58.4062 42.9362 58.4882 42.9963 58.4882C43.1697 58.4882 43.9678 58.2813 44.0015 58.2276C44.0543 58.1434 44.0478 57.6814 43.9885 57.3116C43.9102 56.823 43.7798 56.481 43.2561 55.3911C42.6017 54.0289 42.4804 53.6773 42.4505 53.056C42.4304 52.6396 42.4429 52.5163 42.532 52.2503C42.6929 51.7697 42.9235 51.3386 43.4755 50.4865C44.1642 49.4234 44.3333 49.0665 44.43 48.4717C44.5274 47.8726 44.2761 47.209 43.6712 46.4684C42.8573 45.4718 42.583 44.8463 42.583 43.9866C42.583 43.2498 42.7185 42.7677 43.3016 41.4294C43.8946 40.0685 44.0154 39.5102 43.9357 38.499C43.8654 37.6067 43.5627 36.7715 43.0488 36.0519C42.7973 35.6996 42.7397 35.5301 42.8716 35.5301C42.8985 35.5301 43.0757 35.6653 43.2653 35.8306C44.3329 36.7607 44.9586 38.3469 44.8144 39.7577C44.7655 40.2366 44.5172 41.0845 44.2601 41.6506C43.6978 42.8889 43.5223 43.7035 43.6671 44.4037C43.7686 44.8941 43.9387 45.2238 44.4056 45.8345C45.3681 47.0934 45.5945 47.5502 45.5934 48.2311C45.5923 48.9179 45.396 49.3829 44.5332 50.7432C43.8228 51.8631 43.685 52.2007 43.6796 52.8347C43.6745 53.4408 43.7149 53.5568 44.4572 55.0715C45.1112 56.4062 45.3026 56.9522 45.3026 57.483C45.3026 57.6542 45.3215 57.806 45.3446 57.8204C45.3677 57.8349 45.6026 57.7611 45.8667 57.6564L46.3467 57.4662L46.3348 57.1783C46.3169 56.7443 46.1536 56.2864 45.6976 55.3911C44.8171 53.6626 44.6713 53.2888 44.6713 52.76C44.6713 52.232 44.9559 51.5113 45.493 50.6798C46.3756 49.3131 46.5301 48.9549 46.5351 48.2628C46.54 47.5707 46.3601 47.1823 45.5787 46.198C45.1688 45.6817 44.8013 45.0949 44.6704 44.7478C44.4517 44.1679 44.5401 43.1644 44.8916 42.238C45.1794 41.4793 45.4003 40.7708 45.4764 40.3618C45.6599 39.3767 45.4366 38.0154 44.9564 37.191C44.7451 36.8282 44.4325 36.365 44.2717 36.1763C44.1944 36.0856 44.1413 36.001 44.1538 35.9884C44.2111 35.9303 44.534 36.1668 44.8776 36.5183C45.9049 37.5695 46.4018 38.9556 46.2696 40.4017C46.2169 40.9791 46.1103 41.4174 45.8404 42.1668C45.5654 42.9307 45.4425 43.4795 45.4413 43.9483C45.4396 44.5966 45.5574 44.8474 46.3701 45.9276C46.9838 46.7433 47.2694 47.2164 47.3955 47.6265C47.6365 48.4105 47.404 49.2396 46.5689 50.5733C45.6953 51.9688 45.5388 52.5783 45.8429 53.4002C45.9029 53.5624 46.1842 54.1596 46.4679 54.7274C46.9461 55.6842 47.1795 56.283 47.2783 56.8062L47.318 57.0168L47.7308 56.7753L48.1436 56.5337L48.1319 56.3434C48.113 56.0374 47.8288 55.4098 47.3844 54.6931C46.747 53.665 46.5091 52.9514 46.6151 52.3855C46.6591 52.1505 46.918 51.5074 46.9685 51.5074C46.9795 51.5074 46.9883 51.7231 46.9883 51.9867C46.9883 52.349 47.013 52.5346 47.0892 52.7467C47.2066 53.0737 47.5338 53.6589 47.7568 53.9408C48.1793 54.475 48.6515 55.2617 48.775 55.637C48.8881 55.981 48.9147 56.0237 48.9905 55.9826C49.0609 55.9445 49.6714 55.4915 49.9606 55.2628C50.0189 55.2167 50.0117 55.1825 49.9141 55.0416C49.8505 54.9499 49.6827 54.7509 49.5411 54.5994L49.2836 54.324L49.4826 54.0709C49.592 53.9318 49.6983 53.8179 49.7188 53.8179C49.8191 53.8179 50.1669 54.1346 50.3577 54.3998C50.4754 54.5634 50.5834 54.6985 50.5976 54.7C50.6434 54.705 51.4702 53.9099 51.4702 53.861C51.4702 53.7776 51.0893 53.2998 50.9004 53.1462C50.7998 53.0643 50.641 52.958 50.5475 52.9098C50.454 52.8616 50.371 52.8166 50.3631 52.8098C50.3292 52.7806 50.7073 52.1465 50.7584 52.1469C50.9084 52.1481 51.3864 52.4947 51.713 52.8392L52.0773 53.2232L52.2472 53.0192C52.3407 52.907 52.5089 52.6925 52.621 52.5423L52.8248 52.2694L52.4024 51.86C51.9936 51.4636 51.6681 51.2575 51.3448 51.1903C51.1987 51.1598 51.1919 51.1668 51.0587 51.4842C50.8742 51.9236 50.7974 51.9677 50.2678 51.9382C49.7978 51.9121 49.5396 51.8352 48.9827 51.5554C48.4941 51.31 48.1135 51.0518 47.7895 50.7463L47.5278 50.4996L47.8238 49.8851C48.1359 49.2372 48.3136 48.6476 48.3136 48.2601C48.3136 47.6822 48.0203 47.1201 47.0452 45.8293C46.0697 44.538 46.0298 44.1079 46.6789 41.8824C46.8917 41.1529 46.953 40.7929 46.953 40.2741C46.953 39.2569 46.6211 38.263 45.9364 37.2298C45.7438 36.9392 45.5954 36.6922 45.6066 36.6808C45.6498 36.6371 46.0218 36.9548 46.2796 37.2556C47.4783 38.6544 47.8536 40.3579 47.3617 42.1668C47.0611 43.2718 47.0107 43.4869 46.9798 43.7961C46.9202 44.3927 47.0488 44.6549 48.0359 45.9488C48.771 46.9124 49.0351 47.4304 49.0769 47.9909L49.1054 48.3724L49.4015 48.5952C49.9623 49.0171 50.7195 49.3138 51.4004 49.3781C51.7612 49.4123 51.7558 49.399 51.6159 49.9097C51.493 50.3583 51.4944 50.3766 51.6523 50.3772C51.9473 50.3782 52.4322 50.68 53.0092 51.2216C53.1478 51.3517 53.2947 51.4582 53.3356 51.4582C53.4002 51.4582 53.9955 50.5214 53.9955 50.4198C53.9955 50.4 53.8808 50.3297 53.7406 50.2636C53.6003 50.1974 53.3326 50.0072 53.1457 49.841C52.7443 49.4841 52.3834 49.2972 52.0231 49.2596C51.7236 49.2282 51.7294 49.2455 51.827 48.6806L51.8864 48.3365L52.2247 48.3393C52.6555 48.3429 52.9358 48.4698 53.5585 48.9433C54.1046 49.3586 54.4004 49.4964 54.5092 49.3862C54.5482 49.3466 54.6778 49.0722 54.7972 48.7762L55.0142 48.2382L54.857 48.2237C54.4658 48.1878 54.202 48.0592 53.2428 47.4371C52.8662 47.1928 52.4312 47.0338 52.1399 47.0338H52.0044V46.493V45.9522L52.2837 45.9533C52.6755 45.9547 53.1121 46.1248 53.7271 46.5156C54.4314 46.9632 54.7275 47.0903 55.0877 47.0998L55.3796 47.1075L55.5105 46.5913C55.7056 45.8216 55.7243 45.8702 55.2218 45.8423C54.7009 45.8134 54.4511 45.7276 53.8226 45.3621C52.8552 44.7994 52.5028 44.6559 51.9814 44.6124C51.8511 44.6015 51.8332 44.5787 51.7978 44.3791C51.7762 44.2574 51.7155 43.9858 51.663 43.7756C51.6104 43.5653 51.5673 43.3795 51.5673 43.3627C51.5673 43.2938 52.3693 43.4012 52.685 43.5124C52.8718 43.5781 53.3031 43.7872 53.6436 43.977C54.6306 44.5272 54.8094 44.5911 55.3756 44.5961L55.8572 44.6003L55.8958 44.4561C55.9171 44.3767 55.9492 44.1278 55.9672 43.903L56 43.4942H55.5883C54.9495 43.4942 54.5414 43.363 53.437 42.8026C52.4072 42.2801 52.0673 42.1693 51.4876 42.1677L51.1894 42.1668L50.8676 41.4958C50.6906 41.1268 50.559 40.8116 50.5751 40.7953C50.5913 40.7791 50.8921 40.7671 51.2438 40.7688C52.0221 40.7726 52.3496 40.8673 53.2991 41.3635C54.4386 41.9589 54.9232 42.1177 55.6011 42.1177H55.9866V41.8033C55.9866 40.8594 55.6821 39.0478 55.3246 37.8653C55.024 36.871 54.427 35.4467 53.9852 34.6698C53.1501 33.2013 52.4933 32.3345 51.302 31.1285C49.9023 29.7117 48.7238 28.8514 47.0266 28.0076C45.1399 27.0697 43.0931 26.5231 40.957 26.3867C40.0952 26.3316 39.7918 26.3324 38.8666 26.3921ZM40.1541 27.603C40.3577 28.1066 40.8429 29.212 40.876 29.2477C40.8936 29.2667 41.3657 29.3171 41.925 29.3597C42.4843 29.4022 42.9489 29.444 42.9573 29.4525C42.9761 29.4716 42.6253 29.8014 41.9374 30.4116C41.6515 30.6653 41.4175 30.8818 41.4175 30.8927C41.4175 30.9037 41.5739 31.3201 41.7651 31.8181L42.1127 32.7237L42.3675 32.4879C43.066 31.8417 44.1102 31.3564 45.194 31.1741C45.468 31.1281 45.7052 31.1035 45.721 31.1196C45.7369 31.1356 45.6346 31.3418 45.4937 31.5778C45.1237 32.1981 44.477 33.5571 44.477 33.7146C44.477 33.7342 44.6464 33.6357 44.8534 33.4957C45.2117 33.2533 45.7297 33.0144 46.2528 32.8501C46.5676 32.7513 47.357 32.6283 47.4013 32.6712C47.4204 32.6897 47.3264 32.8483 47.1923 33.0237C46.7948 33.5435 46.3074 34.3295 45.9327 35.0548C45.7396 35.4288 45.549 35.7473 45.5093 35.7628C45.4696 35.7782 45.3196 35.7325 45.1761 35.6613C43.9101 35.0328 42.2356 34.6004 40.6984 34.5051C38.81 34.388 36.9738 34.7255 35.0984 35.5344C34.788 35.6683 34.5017 35.7652 34.4621 35.7498C34.4225 35.7344 34.3377 35.6068 34.2737 35.4662C33.9762 34.8131 33.2848 33.67 32.7142 32.8881C32.6305 32.7733 32.5727 32.6687 32.5857 32.6555C32.5988 32.6423 32.815 32.6651 33.0663 32.7063C33.8572 32.8358 34.7405 33.1872 35.3027 33.596L35.5448 33.7721L35.427 33.459C35.2516 32.993 34.792 32.0252 34.6315 31.784C34.5542 31.6678 34.4294 31.4644 34.3543 31.3321L34.2178 31.0915L34.5274 31.1262C35.5619 31.2418 36.7293 31.7365 37.5228 32.3954C37.7179 32.5574 37.8856 32.6818 37.8955 32.6717C37.9321 32.6347 38.5082 31.095 38.5336 30.9664C38.5554 30.8559 38.5284 30.8077 38.3739 30.6821C38.0552 30.4228 37.0718 29.5293 37.0562 29.4848C37.0481 29.4616 37.1792 29.4304 37.3476 29.4155C37.516 29.4007 37.9878 29.3601 38.3961 29.3253L39.1383 29.2621L39.5156 28.3772C39.7231 27.8905 39.9074 27.4536 39.9252 27.4063C39.9798 27.261 40.0351 27.3085 40.1541 27.603ZM39.174 32.6231C38.728 32.9647 38.362 33.2635 38.3605 33.2872C38.3591 33.3108 38.4251 33.3166 38.5072 33.2999C38.5892 33.2834 38.9625 33.2438 39.3366 33.212C39.987 33.1569 40.8285 33.1919 41.4857 33.3016C41.6159 33.3233 41.6653 33.3166 41.643 33.2802C41.615 33.2344 40.1669 32.1104 40.0334 32.031C40.0067 32.0151 39.6199 32.2815 39.174 32.6231ZM28.1246 34.7277C28.6446 35.2624 28.9778 35.8493 29.1913 36.607C29.2492 36.8123 29.299 36.9855 29.3018 36.9917C29.3047 36.998 29.4368 36.9349 29.5953 36.8516C30.3624 36.4484 31.3453 36.2515 32.065 36.3569C32.5429 36.4268 33.0252 36.5661 33.05 36.6415C33.0596 36.6704 32.8646 36.855 32.6167 37.0516C31.8033 37.6967 31.0267 38.4988 30.4076 39.3332C30.2041 39.6074 30.0343 39.8369 30.0302 39.8432C30.0261 39.8495 29.8603 39.8197 29.6617 39.7768C29.1668 39.6699 28.4552 39.7106 27.9653 39.8739C27.765 39.9406 27.2296 40.1614 26.7755 40.3644C26.3214 40.5673 25.8188 40.773 25.6585 40.8214C25.3263 40.9216 24.5475 40.9389 24.4578 40.8481C24.4171 40.8069 24.4679 40.7196 24.6554 40.5088C26.0783 38.909 26.9117 37.4558 27.2148 36.0463C27.2556 35.857 27.3015 35.3925 27.3169 35.0139C27.3566 34.039 27.4297 34.0131 28.1246 34.7277ZM52.6235 34.3134C52.65 34.3472 52.6733 34.6304 52.6751 34.9428C52.6856 36.6877 53.4444 38.3158 55.1845 40.3266C55.4624 40.6478 55.5845 40.8238 55.5519 40.8568C55.4713 40.9384 54.6331 40.9165 54.3301 40.8248C54.1802 40.7795 53.6372 40.5542 53.1234 40.3242C52.6095 40.0942 52.0656 39.8716 51.9147 39.8296C51.4808 39.7089 50.7292 39.684 50.3381 39.7773C50.1561 39.8207 50.0005 39.8563 49.9923 39.8563C49.9841 39.8563 49.7945 39.6074 49.571 39.3032C49.0808 38.636 48.0793 37.6018 47.4151 37.0769C47.148 36.8658 46.9204 36.6859 46.9092 36.677C46.8241 36.609 47.4483 36.4151 47.9429 36.3559C48.724 36.2624 49.5537 36.4283 50.3664 36.8405C50.6018 36.9599 50.7011 36.9895 50.7157 36.9447C50.7269 36.9102 50.7683 36.7493 50.8077 36.5871C50.9902 35.835 51.57 34.9192 52.1666 34.4405C52.4106 34.2447 52.5411 34.2084 52.6235 34.3134ZM40.8956 35.2614C41.352 35.3787 42.0365 35.7351 42.3471 36.0172C42.651 36.2931 42.9381 36.6999 43.0446 37.0056C43.133 37.2592 43.0829 37.2863 42.7221 37.1801C42.4375 37.0963 41.8945 37.0724 41.5875 37.13C41.2841 37.1868 40.9226 37.3699 40.7499 37.554C40.5501 37.767 40.4755 38.1374 40.509 38.7502C40.5533 39.5641 40.6978 39.7629 40.9202 39.3164C40.9806 39.1952 41.0732 39.0523 41.126 38.9988C41.2132 38.9105 41.2411 38.9073 41.4291 38.9633C41.8909 39.1011 41.9851 39.1165 42.1945 39.0884C42.3147 39.0724 42.4853 39.0173 42.5737 38.9661C42.7876 38.8421 42.8323 38.8477 42.9939 39.0185C43.1133 39.1447 43.1346 39.2121 43.1546 39.5271C43.2541 41.0969 41.8624 43.1999 40.4769 43.5733C39.5947 43.8111 38.6497 43.3714 37.8772 42.3635C37.2054 41.4869 36.8512 40.564 36.8458 39.6756C36.8435 39.285 36.8589 39.1827 36.936 39.0782C37.0713 38.8948 37.2399 38.8658 37.491 38.9827C37.7555 39.106 38.1596 39.1152 38.4689 39.005C38.7893 38.8909 38.9293 38.9008 39.1464 39.0531C39.2803 39.147 39.3477 39.169 39.3855 39.1307C39.465 39.0503 39.4951 38.249 39.4305 37.934C39.3635 37.6077 39.2296 37.4586 38.8436 37.2806C38.3434 37.0499 37.7514 37.0231 37.1546 37.2042C37.0415 37.2385 36.934 37.2513 36.9157 37.2328C36.8605 37.1769 36.9976 36.8525 37.2224 36.5075C37.6472 35.8551 38.4027 35.3938 39.3535 35.2062C39.7621 35.1255 40.465 35.1507 40.8956 35.2614ZM37.9255 37.5958C38.2483 37.6577 38.6828 37.9166 38.7795 38.1044C38.8791 38.2982 38.8087 38.3431 38.5515 38.2496C38.4224 38.2026 38.1657 38.1683 37.9209 38.1653C37.5706 38.161 37.4812 38.1771 37.3305 38.2721L37.1528 38.3839L37.0512 38.2531C36.8555 38.0013 36.9671 37.6855 37.2762 37.6164C37.3503 37.5998 37.4328 37.5789 37.4595 37.5699C37.5502 37.5393 37.6642 37.5456 37.9255 37.5958ZM42.8635 37.673C43.0363 37.7875 43.094 37.955 43.0217 38.1318C42.9244 38.3696 42.849 38.4071 42.7025 38.2904C42.4785 38.112 42.1508 38.1048 41.4587 38.2633C41.3569 38.2866 41.3233 38.2715 41.2982 38.1915C41.2807 38.1358 41.2899 38.0458 41.3186 37.9916C41.3895 37.8574 41.7498 37.6504 42.0074 37.5959C42.2804 37.5382 42.7199 37.5777 42.8635 37.673ZM39.354 40.4339C39.1881 40.5219 39.2147 40.5872 39.4524 40.6759C39.9269 40.8532 40.0589 40.8549 40.4903 40.6894C40.728 40.5982 40.7983 40.4833 40.655 40.4199C40.4949 40.3491 39.4935 40.3599 39.354 40.4339ZM38.795 41.4775C38.795 41.5733 39.337 42.1187 39.5337 42.2208C39.7799 42.3486 40.2067 42.3452 40.4757 42.2134C40.6945 42.1062 41.2558 41.5048 41.1809 41.4579C41.1565 41.4426 40.9539 41.4551 40.7307 41.4856C40.3395 41.5391 39.2251 41.5161 38.9286 41.4484C38.8399 41.4282 38.795 41.4379 38.795 41.4775Z" fill="#8A86B2"/>
</svg>
