<svg width="80" height="80" viewBox="0 0 80 80" fill="none" xmlns="http://www.w3.org/2000/svg">
<path d="M40.0023 74.8659C58.1594 74.8659 73.0978 61.1809 74.6161 43.8032C75.6513 43.4536 76.3979 42.5028 76.3979 41.3741C76.3979 40.27 75.689 39.3376 74.6914 38.9696C73.6687 21.1318 58.5044 6.92542 40.0023 6.92542C30.7042 6.92542 22.2469 10.5261 16.0042 16.3657C15.6842 16.2307 15.3329 16.1571 14.9627 16.1571C13.5072 16.1571 12.3214 17.3103 12.3214 18.7396C12.3214 19.1873 12.4469 19.6045 12.6602 19.9786C8.02995 25.7507 5.25684 33.0134 5.25684 40.9079C5.25684 43.9504 5.67092 46.9561 6.48027 49.8636C6.26068 50.1274 6.11638 50.4647 6.11638 50.8328C6.11638 51.6793 6.81907 52.3663 7.68489 52.3663C8.5507 52.3663 9.25339 51.6793 9.25339 50.8328C9.25339 50.201 8.8644 49.6612 8.30601 49.422C7.5343 46.6617 7.13903 43.7971 7.13903 40.9079C7.13903 33.4735 9.74277 26.6218 14.0969 21.1686C14.373 21.2606 14.6616 21.322 14.9627 21.322C16.4183 21.322 17.6041 20.1688 17.6041 18.7396C17.6041 18.3531 17.51 17.9851 17.3531 17.6538C23.2507 12.1577 31.2313 8.77176 40.0023 8.77176C57.4629 8.77176 71.7865 22.1562 72.8029 38.9818C71.8179 39.356 71.1152 40.2884 71.1152 41.3803C71.1152 42.4476 71.7803 43.3677 72.7276 43.7603C71.2407 60.1442 57.1367 73.0318 39.9961 73.0318C34.544 73.0318 29.142 71.7008 24.38 69.1797C24.3549 68.3577 23.6648 67.6952 22.8178 67.6952C21.952 67.6952 21.2493 68.3822 21.2493 69.2287C21.2493 70.0752 21.952 70.7622 22.8178 70.7622C23.0751 70.7622 23.3135 70.6948 23.5268 70.5905L23.4264 70.7684C28.4833 73.4428 34.2114 74.8659 40.0023 74.8659ZM14.9627 20.0829C14.1973 20.0829 13.5762 19.4756 13.5762 18.7273C13.5762 17.9789 14.1973 17.3717 14.9627 17.3717C15.7282 17.3717 16.3493 17.9789 16.3493 18.7273C16.3493 19.4756 15.7282 20.0829 14.9627 20.0829ZM72.37 41.3741C72.37 40.6258 72.9911 40.0185 73.7566 40.0185C74.522 40.0185 75.1431 40.6258 75.1431 41.3741C75.1431 42.1225 74.522 42.7297 73.7566 42.7297C72.9911 42.7297 72.37 42.1225 72.37 41.3741Z" fill="#8A86B2"/>
<path d="M80 40.8894C80 33.9886 78.1492 27.5111 74.9306 21.8801C75.0184 21.6899 75.0624 21.4814 75.0624 21.2544C75.0624 20.3956 74.3471 19.6964 73.4688 19.6964C72.5904 19.6964 71.8752 20.3956 71.8752 21.2544C71.8752 22.0886 72.5527 22.7695 73.3997 22.8063L73.3433 22.8615C76.3799 28.2104 78.1178 34.3506 78.1178 40.8894C78.1178 50.6671 74.2405 59.5737 67.9163 66.2291C67.59 66.088 67.2324 66.0083 66.8559 66.0083C65.4004 66.0083 64.2146 67.1615 64.2146 68.5907C64.2146 68.9097 64.2836 69.2164 64.3902 69.4985C57.7774 74.8965 49.2699 78.1537 40.0031 78.1537C30.6298 78.1537 22.0406 74.8229 15.3964 69.3145C15.5407 68.9956 15.616 68.652 15.616 68.284C15.616 66.8609 14.4365 65.7016 12.9747 65.7016C12.5606 65.7016 12.1779 65.7997 11.8328 65.9653C5.65916 59.3406 1.88849 50.5383 1.88849 40.8894C1.88849 21.8065 16.6387 6.03588 35.58 3.88284C36.038 4.63733 36.8787 5.15258 37.8449 5.15258C38.9177 5.15258 39.8337 4.52691 40.2478 3.63134C45.9635 3.66815 51.3905 4.93789 56.2466 7.18908C56.2466 7.19521 56.2466 7.19522 56.2466 7.20135C56.2466 8.06011 56.9618 8.75939 57.8402 8.75939C58.7185 8.75939 59.4338 8.06011 59.4338 7.20135C59.4338 6.34259 58.7185 5.64331 57.8402 5.64331C57.6896 5.64331 57.5453 5.66784 57.4073 5.71078C52.2375 3.25717 46.4528 1.85248 40.3419 1.8034C40.0031 0.76062 39.0181 0 37.8386 0C36.5587 0 35.4921 0.895568 35.2474 2.07944C15.4278 4.38583 0 20.9109 0 40.8956C0 51.0658 3.99655 60.3466 10.5341 67.3087C10.4086 67.6093 10.3333 67.9405 10.3333 68.2901C10.3333 69.7132 11.5128 70.8726 12.9747 70.8726C13.3637 70.8726 13.7338 70.7867 14.0663 70.6333C21.0556 76.4668 30.109 80 39.9969 80C49.7467 80 58.6934 76.5649 65.6388 70.8787C66.0027 71.0627 66.4105 71.1793 66.8497 71.1793C68.3052 71.1793 69.491 70.0261 69.491 68.5968C69.491 68.2165 69.4032 67.8546 69.2463 67.5295C75.9094 60.5367 80 51.1762 80 40.8894ZM37.8386 1.22067C38.604 1.22067 39.2252 1.82794 39.2252 2.57629C39.2252 3.32464 38.604 3.93191 37.8386 3.93191C37.0732 3.93191 36.452 3.32464 36.452 2.57629C36.452 1.82794 37.0732 1.22067 37.8386 1.22067ZM12.9747 69.6396C12.2092 69.6396 11.5881 69.0324 11.5881 68.284C11.5881 67.5357 12.2092 66.9284 12.9747 66.9284C13.7401 66.9284 14.3612 67.5357 14.3612 68.284C14.3612 69.0324 13.7401 69.6396 12.9747 69.6396ZM66.8559 69.9463C66.0905 69.9463 65.4694 69.3391 65.4694 68.5907C65.4694 67.8424 66.0905 67.2351 66.8559 67.2351C67.6214 67.2351 68.2425 67.8424 68.2425 68.5907C68.2425 69.3391 67.6151 69.9463 66.8559 69.9463Z" fill="#8A86B2"/>
<path d="M15.798 58.2181C15.9611 58.2181 16.118 58.1997 16.2686 58.169C21.6705 65.2416 30.2973 69.8298 39.9969 69.8298C44.5707 69.8298 48.9499 68.8361 53.0217 66.8793C53.2351 66.9836 53.4672 67.045 53.7182 67.045C54.584 67.045 55.2867 66.358 55.2867 65.5115C55.2867 64.665 54.584 63.978 53.7182 63.978C52.9465 63.978 52.3128 64.5178 52.181 65.2354C48.3727 67.0634 44.282 67.9896 40.0032 67.9896C30.9811 67.9896 22.9504 63.751 17.8872 57.1999C18.2323 56.7643 18.4456 56.2245 18.4456 55.6295C18.4456 54.2065 17.2661 53.0471 15.8043 53.0471C15.6223 53.0471 15.4466 53.0655 15.2772 53.0962C13.3699 49.4219 12.2908 45.2753 12.2908 40.8833C12.2908 25.9408 24.7259 13.7832 40.0094 13.7832C45.5243 13.7832 50.6627 15.3719 54.9855 18.0954C54.9291 18.304 54.8914 18.5187 54.8914 18.7395C54.8914 20.1626 56.0709 21.3219 57.5328 21.3219C57.997 21.3219 58.43 21.1931 58.8064 20.9846C64.2836 25.9408 67.728 33.0195 67.728 40.8772C67.728 44.6619 66.9438 48.3116 65.4067 51.7467C64.6601 51.8633 64.0828 52.4889 64.0828 53.2557C64.0828 54.1022 64.7855 54.7892 65.6513 54.7892C66.5172 54.7892 67.2199 54.1022 67.2199 53.2557C67.2199 53.0287 67.1634 52.8079 67.0755 52.6177C68.757 48.9128 69.6103 44.9686 69.6103 40.8833C69.6103 32.4613 65.9086 24.8735 60.0173 19.5799C60.1114 19.3161 60.1679 19.0401 60.1679 18.7456C60.1679 17.3225 58.9883 16.1632 57.5265 16.1632C56.9869 16.1632 56.485 16.3227 56.0646 16.5926C51.4344 13.6544 45.9196 11.943 40.0032 11.943C23.6844 11.943 10.4023 24.9226 10.4023 40.8833C10.4023 45.6433 11.5881 50.1335 13.6837 54.096C13.3574 54.5254 13.1629 55.0529 13.1629 55.6234C13.1566 57.0588 14.3424 58.2181 15.798 58.2181ZM15.798 54.2801C16.5634 54.2801 17.1846 54.8873 17.1846 55.6357C17.1846 56.384 16.5634 56.9913 15.798 56.9913C15.0326 56.9913 14.4115 56.384 14.4115 55.6357C14.4115 54.8873 15.0326 54.2801 15.798 54.2801ZM57.5202 17.4023C58.2857 17.4023 58.9068 18.0095 58.9068 18.7579C58.9068 19.5063 58.2857 20.1135 57.5202 20.1135C56.7548 20.1135 56.1337 19.5063 56.1337 18.7579C56.1337 18.0095 56.7548 17.4023 57.5202 17.4023Z" fill="#8A86B2"/>
<path fill-rule="evenodd" clip-rule="evenodd" d="M45.2032 23.689C42.7615 24.2236 40.4226 26.4912 39.679 29.0449C39.4937 29.6812 39.3876 30.6532 39.461 31.0425L39.5076 31.2899H40.0117C41.6671 31.2899 43.5679 30.1763 44.6695 28.5613C45.5308 27.2984 46.0671 25.6107 46.0671 24.1628V23.5873L45.8425 23.5927C45.7189 23.5957 45.4312 23.6391 45.2032 23.689ZM44.6503 31.7499C43.7237 31.8694 42.9089 32.1099 40.8531 32.8707C39.724 33.2885 39.7 33.2885 38.4646 32.8603C35.6131 31.8721 34.9895 31.727 33.9032 31.7989C31.7285 31.9426 29.5199 32.9592 27.9211 34.5521C25.5115 36.9528 24.5096 40.8688 25.2278 45.0784C25.9837 49.5083 28.1654 54.2259 30.6135 56.7244C31.6705 57.803 32.5927 58.3898 33.6571 58.6606C34.7805 58.9466 35.6935 58.8134 38.0154 58.0252C39.625 57.4788 39.6925 57.4622 40.2961 57.4673C41.0524 57.4737 41.5192 57.5893 42.7425 58.0731C44.1499 58.6298 44.4283 58.6919 45.5142 58.6918C46.3965 58.6917 46.4786 58.6798 47.0264 58.4719C47.878 58.1488 48.558 57.6933 49.407 56.8775C50.9606 55.3845 52.4837 52.9947 53.5519 50.3745C53.9778 49.3297 54.0353 49.1282 53.9846 48.859C53.9166 48.4982 53.6492 48.2406 52.6938 47.6157C50.7298 46.331 49.8831 45.0294 49.6579 42.9487C49.4869 41.3675 49.8813 39.881 50.792 38.6756C51.207 38.1262 51.8956 37.4849 52.7813 36.8227C53.1748 36.5286 53.5075 36.2796 53.5207 36.2695C53.5339 36.2594 53.3172 35.9163 53.0391 35.507C51.623 33.423 49.5875 32.1893 46.931 31.805C46.2953 31.7131 45.1503 31.6854 44.6503 31.7499Z" fill="#8A86B2"/>
<path fill-rule="evenodd" clip-rule="evenodd" d="M45.2032 23.689C42.7615 24.2236 40.4226 26.4912 39.679 29.0449C39.4937 29.6812 39.3876 30.6532 39.461 31.0425L39.5076 31.2899H40.0117C41.6671 31.2899 43.5679 30.1763 44.6695 28.5613C45.5308 27.2984 46.0671 25.6107 46.0671 24.1628V23.5873L45.8425 23.5927C45.7189 23.5957 45.4312 23.6391 45.2032 23.689ZM44.6503 31.7499C43.7237 31.8694 42.9089 32.1099 40.8531 32.8707C39.724 33.2885 39.7 33.2885 38.4646 32.8603C35.6131 31.8721 34.9895 31.727 33.9032 31.7989C31.7285 31.9426 29.5199 32.9592 27.9211 34.5521C25.5115 36.9528 24.5096 40.8688 25.2278 45.0784C25.9837 49.5083 28.1654 54.2259 30.6135 56.7244C31.6705 57.803 32.5927 58.3898 33.6571 58.6606C34.7805 58.9466 35.6935 58.8134 38.0154 58.0252C39.625 57.4788 39.6925 57.4622 40.2961 57.4673C41.0524 57.4737 41.5192 57.5893 42.7425 58.0731C44.1499 58.6298 44.4283 58.6919 45.5142 58.6918C46.3965 58.6917 46.4786 58.6798 47.0264 58.4719C47.878 58.1488 48.558 57.6933 49.407 56.8775C50.9606 55.3845 52.4837 52.9947 53.5519 50.3745C53.9778 49.3297 54.0353 49.1282 53.9846 48.859C53.9166 48.4982 53.6492 48.2406 52.6938 47.6157C50.7298 46.331 49.8831 45.0294 49.6579 42.9487C49.4869 41.3675 49.8813 39.881 50.792 38.6756C51.207 38.1262 51.8956 37.4849 52.7813 36.8227C53.1748 36.5286 53.5075 36.2796 53.5207 36.2695C53.5339 36.2594 53.3172 35.9163 53.0391 35.507C51.623 33.423 49.5875 32.1893 46.931 31.805C46.2953 31.7131 45.1503 31.6854 44.6503 31.7499Z" fill="#8A86B2"/>
</svg>
