<svg width="80" height="80" viewBox="0 0 80 80" fill="none" xmlns="http://www.w3.org/2000/svg">
<path d="M20.0198 58.2117L18.27 59.9614C18.2762 59.9676 18.2762 59.9676 18.2824 59.9738L20.0321 58.224C20.026 58.2179 20.0198 58.2179 20.0198 58.2117Z" fill="#8A86B2"/>
<path d="M64.8704 66.6204L63.6709 65.4209L64.8704 66.6204Z" fill="#8A86B2"/>
<path d="M62.3418 64.0916L63.6711 65.4209L62.3418 64.0916Z" fill="#8A86B2"/>
<path d="M61.804 67.0469L60.0419 65.2848C54.5329 69.6684 47.571 72.2961 39.997 72.2961C32.4292 72.2961 25.4673 69.6684 19.9584 65.291L18.1963 67.0531C24.1627 71.8757 31.7429 74.7693 39.997 74.7693C48.2512 74.7693 55.8375 71.8757 61.804 67.0469Z" fill="#8A86B2"/>
<path d="M16.6756 58.057L18.4377 56.2949C15.0247 51.7752 12.9968 46.1488 12.9968 40.0587C12.9968 25.1704 25.109 13.052 40.0035 13.052C46.0936 13.052 51.7138 15.08 56.2397 18.4929L58.0018 16.7308C53.0184 12.8789 46.7799 10.5789 40.0097 10.5789C23.7549 10.5789 10.5298 23.804 10.5298 40.0587C10.5236 46.8351 12.8236 53.0798 16.6756 58.057Z" fill="#8A86B2"/>
<path d="M39.9969 0C29.4119 0 19.7851 4.14251 12.6192 10.8756C12.0195 11.4383 11.4383 12.0257 10.8695 12.6254L12.6192 14.3751L14.6039 16.3598C8.81057 22.5674 5.25543 30.8896 5.25543 40.034C5.25543 50.0502 9.5216 59.0834 16.3227 65.427L18.0725 63.6773C18.0725 63.6773 18.0725 63.6773 18.0663 63.6711L20.0201 61.7173C25.2755 66.5708 32.2931 69.5386 39.9907 69.5386C56.2455 69.5386 69.4706 56.3135 69.4706 40.0587C69.4706 32.3611 66.5028 25.3435 61.6493 20.0881C61.6493 20.0819 61.6431 20.0819 61.6431 20.0757L61.6369 20.0696L63.6216 18.0849L65.3714 16.3351C64.8149 15.7354 64.2337 15.1604 63.6402 14.6039C57.4326 8.82912 49.1228 5.28635 39.9969 5.28635C30.871 5.28635 22.5613 8.82912 16.3537 14.6039L14.369 12.6192C21.0835 6.33125 30.092 2.46696 39.9969 2.46696C60.6909 2.46696 77.5207 19.3029 77.5207 39.9907C77.5207 49.8957 73.6564 58.9041 67.3684 65.6187L65.4146 63.6649C71.1894 57.4573 74.7322 49.1475 74.7322 40.0216C74.7322 31.7614 71.8263 24.1688 66.9975 18.2023L65.2353 19.9645C69.6252 25.4796 72.2591 32.4476 72.2591 40.0278C72.2591 49.3578 68.2711 57.7726 61.9213 63.6711L65.6249 67.3746C58.9103 73.6626 49.9019 77.5268 39.9969 77.5268C19.3091 77.5268 2.47314 60.6909 2.47314 40.0031C2.47314 30.9885 5.66968 22.7096 10.9869 16.2362L9.23101 14.4803C3.46858 21.4051 0 30.3084 0 40.0031C0 62.0574 17.9427 80 39.9969 80C50.582 80 60.2087 75.8575 67.3746 69.1244C67.9743 68.5617 68.5555 67.9743 69.1244 67.3746C75.8575 60.2149 80 50.582 80 39.9969C80 17.9427 62.0574 0 39.9969 0ZM39.9969 7.76567C48.4427 7.76567 56.1342 11.0302 61.8904 16.3598L59.9057 18.3445L58.156 20.0943C58.7681 20.6507 59.3493 21.2319 59.9057 21.844C64.3079 26.6481 67.0036 33.0474 67.0036 40.0649C67.0036 54.9532 54.8914 67.0717 39.9969 67.0717C32.9794 67.0717 26.5801 64.3821 21.776 59.9737C21.1701 59.4173 20.5827 58.8361 20.0263 58.224L18.2765 59.9737L16.3227 61.9275C10.9931 56.1713 7.72857 48.4798 7.72857 40.034C7.73476 22.2397 22.2088 7.76567 39.9969 7.76567Z" fill="#8A86B2"/>
<path fill-rule="evenodd" clip-rule="evenodd" d="M28.2618 28.5444V29.6785H39.5141H50.7665V28.5444V27.4104H39.5141H28.2618V28.5444ZM28.5162 32.0343C27.3402 32.3573 26.4234 33.3097 26.1115 34.5326C26.0074 34.9407 26 35.1696 26 37.966V40.9621H27.1309H28.2618L28.263 40.2675C28.2644 39.5138 28.3375 39.2442 28.6085 38.9944C28.9159 38.711 29.0429 38.694 30.8567 38.694H32.5505L33.0242 39.8989C33.2848 40.5616 34.8453 44.5438 36.4919 48.7483C38.6202 54.1825 39.5009 56.369 39.5378 56.3106C39.5664 56.2655 41.1328 52.2896 43.0188 47.4754L46.4478 38.7224H48.2255C49.9902 38.7224 50.0047 38.7233 50.2157 38.8549C50.3326 38.9277 50.498 39.1063 50.5832 39.2518C50.7263 39.4959 50.7397 39.5717 50.7581 40.2403L50.7779 40.9644L51.889 40.9491L53 40.9337V37.9002C53 34.5758 52.9992 34.5657 52.6583 33.846C52.3426 33.1795 51.7804 32.604 51.134 32.2857C50.4262 31.937 50.5543 31.9444 45.5418 31.9604L40.9726 31.9749L40.2562 33.7717C39.8622 34.76 39.5276 35.5807 39.5128 35.5956C39.498 35.6105 39.1568 34.7955 38.7545 33.7846L38.0232 31.9465L33.4111 31.9516C29.6945 31.9557 28.744 31.9718 28.5162 32.0343ZM37.9969 37.9569C39.3062 41.2312 39.512 41.7089 39.5598 41.5858C39.59 41.5078 40.269 39.8047 41.0686 37.801L42.5224 34.1579H46.097C50.1318 34.1579 50.0876 34.1539 50.4454 34.5511C50.5557 34.6735 50.6729 34.8711 50.7059 34.9902C50.7703 35.2231 50.7907 36.596 50.7297 36.596C50.7095 36.596 50.4996 36.5571 50.2632 36.5096C49.9094 36.4384 49.3992 36.4258 47.3763 36.4387L44.9189 36.4543L42.2307 43.3279C40.7521 47.1083 39.5282 50.2021 39.5109 50.2029C39.4935 50.2037 38.2674 47.1107 36.7862 43.3294L34.0932 36.4543L31.6722 36.4388C29.4567 36.4245 28.8402 36.4501 28.3848 36.5754L28.2534 36.6115L28.2717 35.763C28.2888 34.9753 28.2998 34.9003 28.4263 34.7154C28.5897 34.4766 28.872 34.2733 29.1238 34.2131C29.225 34.1889 30.9236 34.1729 32.8984 34.1777L36.489 34.1862L37.9969 37.9569Z" fill="#8A86B2"/>
</svg>
