<svg width="80" height="80" viewBox="0 0 80 80" fill="none" xmlns="http://www.w3.org/2000/svg">
<path d="M20.0203 58.212L18.2705 59.9617C18.2767 59.9679 18.2767 59.9679 18.2829 59.9741L20.0326 58.2244C20.0264 58.2182 20.0203 58.2182 20.0203 58.212Z" fill="#8A86B2"/>
<path d="M64.8704 66.6203L63.6709 65.4208L64.8704 66.6203Z" fill="#8A86B2"/>
<path d="M62.3418 64.0915L63.6711 65.4208L62.3418 64.0915Z" fill="#8A86B2"/>
<path d="M61.804 67.0468L60.0419 65.2847C54.533 69.6684 47.5711 72.2961 39.9971 72.2961C32.4292 72.2961 25.4673 69.6684 19.9584 65.2909L18.1963 67.053C24.1627 71.8757 31.7429 74.7692 39.9971 74.7692C48.2512 74.7692 55.8375 71.8757 61.804 67.0468Z" fill="#8A86B2"/>
<path d="M16.6751 58.0571L18.4372 56.295C15.0242 51.7753 12.9963 46.1489 12.9963 40.0588C12.9963 25.1705 25.1085 13.0521 40.003 13.0521C46.0931 13.0521 51.7133 15.08 56.2392 18.493L58.0013 16.7309C53.0179 12.8789 46.7794 10.5789 40.0092 10.5789C23.7544 10.5789 10.5293 23.8041 10.5293 40.0588C10.5231 46.8352 12.8231 53.0799 16.6751 58.0571Z" fill="#8A86B2"/>
<path d="M39.9969 0C29.4119 0 19.7851 4.14251 12.6192 10.8756C12.0195 11.4383 11.4383 12.0257 10.8695 12.6254L12.6192 14.3751L14.6039 16.3598C8.81057 22.5674 5.25543 30.8896 5.25543 40.034C5.25543 50.0502 9.5216 59.0834 16.3227 65.427L18.0725 63.6773C18.0725 63.6773 18.0725 63.6773 18.0663 63.6711L20.0201 61.7173C25.2755 66.5708 32.2931 69.5386 39.9907 69.5386C56.2455 69.5386 69.4706 56.3135 69.4706 40.0588C69.4706 32.3611 66.5028 25.3435 61.6493 20.0881C61.6493 20.0819 61.6431 20.0819 61.6431 20.0757L61.6369 20.0696L63.6216 18.0849L65.3714 16.3351C64.8149 15.7354 64.2337 15.1604 63.6402 14.6039C57.4326 8.82912 49.1228 5.28635 39.9969 5.28635C30.871 5.28635 22.5613 8.82912 16.3537 14.6039L14.369 12.6192C21.0835 6.33125 30.092 2.46696 39.9969 2.46696C60.6909 2.46696 77.5207 19.3029 77.5207 39.9907C77.5207 49.8957 73.6564 58.9041 67.3684 65.6187L65.4146 63.6649C71.1894 57.4573 74.7322 49.1476 74.7322 40.0217C74.7322 31.7614 71.8263 24.1688 66.9975 18.2023L65.2353 19.9645C69.6252 25.4796 72.2591 32.4476 72.2591 40.0278C72.2591 49.3578 68.2711 57.7726 61.9213 63.6711L65.6249 67.3746C58.9103 73.6626 49.9019 77.5269 39.9969 77.5269C19.3091 77.5269 2.47314 60.6909 2.47314 40.0031C2.47314 30.9885 5.66968 22.7096 10.9869 16.2362L9.23101 14.4803C3.46858 21.4051 0 30.3084 0 40.0031C0 62.0574 17.9427 80 39.9969 80C50.582 80 60.2087 75.8575 67.3746 69.1244C67.9743 68.5617 68.5555 67.9743 69.1244 67.3746C75.8575 60.2149 80 50.582 80 39.9969C80 17.9427 62.0574 0 39.9969 0ZM39.9969 7.76567C48.4427 7.76567 56.1342 11.0302 61.8904 16.3598L59.9057 18.3446L58.156 20.0943C58.7681 20.6507 59.3493 21.2319 59.9057 21.844C64.3079 26.6481 67.0036 33.0474 67.0036 40.0649C67.0036 54.9532 54.8914 67.0717 39.9969 67.0717C32.9794 67.0717 26.5801 64.3821 21.776 59.9737C21.1701 59.4173 20.5827 58.8361 20.0263 58.224L18.2765 59.9737L16.3227 61.9275C10.9931 56.1713 7.72857 48.4798 7.72857 40.034C7.73476 22.2397 22.2088 7.76567 39.9969 7.76567Z" fill="#8A86B2"/>
<path fill-rule="evenodd" clip-rule="evenodd" d="M38.8197 20.8743C37.5359 21.1232 36.5386 21.6147 35.4889 22.5158C34.5555 23.317 34.5854 23.2605 27.8805 36.8686C23.9823 44.7802 21.4955 49.9129 21.3566 50.3339C20.4662 53.0313 21.2789 56.1165 23.3968 58.0782C24.9981 59.5614 27.3141 60.2437 29.459 59.8641C30.3331 59.7094 31.2557 59.3588 31.9811 58.9057C32.3425 58.6801 34.0678 57.2389 36.2925 55.3047L40.0016 52.0798L43.6717 55.2716C45.6903 57.027 47.5742 58.616 47.8583 58.8024C50.3623 60.4464 53.6533 60.3329 56.0775 58.519C58.5486 56.6699 59.6146 53.2683 58.6443 50.3287C58.3833 49.538 46.1258 24.6027 45.6075 23.808C44.7212 22.449 43.2776 21.4091 41.6992 20.9922C40.921 20.7867 39.559 20.731 38.8197 20.8743ZM41.1223 24.2033C41.7107 24.3892 42.3647 24.8404 42.7355 25.3166C43.1041 25.7899 55.4754 50.8618 55.6624 51.5144C55.8095 52.0281 55.8279 53.0272 55.7005 53.5833C55.4813 54.5393 54.7828 55.5261 53.9271 56.0885C52.7033 56.8928 50.9812 56.926 49.7228 56.1695C49.529 56.0529 47.8284 54.6151 45.9438 52.9743L42.5173 49.9911L43.46 49.0684C45.9104 46.67 47.051 44.7382 47.1475 42.8231C47.2428 40.933 46.5568 39.1135 45.201 37.6598C44.2582 36.6489 43.1357 35.9616 41.8269 35.5941C40.8376 35.3162 39.1842 35.3146 38.1758 35.5907C37.5215 35.7697 36.3838 36.3184 35.8198 36.7269C35.2287 37.1549 34.2308 38.2261 33.9017 38.7856C32.9927 40.3316 32.6132 42.3095 32.9517 43.7372C33.1167 44.4331 33.7849 45.7834 34.3943 46.6524C34.7011 47.0898 35.4167 47.9029 36.1889 48.6915L37.4734 50.003L34.0925 52.9418C32.233 54.5582 30.5742 55.9743 30.4064 56.0888C29.2167 56.8997 27.4786 56.9334 26.1944 56.1707C25.3823 55.6883 24.7024 54.82 24.3786 53.8515C24.1656 53.2141 24.1467 52.1778 24.3363 51.5232C24.5326 50.8452 36.9851 25.6222 37.3144 25.2354C38.2244 24.1668 39.7218 23.7609 41.1223 24.2033ZM41.3189 38.8303C42.2773 39.178 43.0764 39.9012 43.5433 40.8435C43.867 41.4967 44.0445 42.3364 43.9682 42.853C43.899 43.3219 43.5631 43.9915 43.023 44.7377C42.4412 45.5416 40.212 47.8012 40.0009 47.8012C39.8077 47.8012 37.5206 45.5017 36.992 44.776C36.4429 44.0224 36.0585 43.211 36.0198 42.7244C35.9849 42.2855 36.1363 41.5204 36.3639 40.985C36.8078 39.9414 37.9101 39.0085 39.0466 38.7148C39.6114 38.5689 40.7589 38.6271 41.3189 38.8303Z" fill="#8A86B2"/>
</svg>
