<svg width="297" height="284" viewBox="0 0 297 284" fill="none" xmlns="http://www.w3.org/2000/svg">
<g opacity="0.2">
<path d="M36.8291 121.014C36.8291 161.003 69.0413 193.399 108.756 193.399C148.47 193.399 180.682 160.982 180.682 121.014C180.682 81.0469 148.47 48.6297 108.756 48.6297C69.0412 48.6297 36.8291 81.026 36.8291 121.014ZM166.322 121.014C166.322 152.992 140.552 178.926 108.776 178.926C77.0008 178.926 51.231 152.992 51.231 121.014C51.231 89.0362 77.0008 63.1024 108.776 63.1024C140.552 63.1024 166.322 89.0153 166.322 121.014Z" fill="#323247"/>
<path d="M166.322 121.014C166.322 152.992 140.552 178.926 108.776 178.926C77.0008 178.926 51.231 152.992 51.231 121.014C51.231 89.0361 77.0008 63.1023 108.776 63.1023M108.756 48.6086C69.0205 48.6086 36.8291 81.0259 36.8291 120.993L108.756 48.6086ZM108.756 193.399C148.491 193.399 180.682 160.982 180.682 121.014C180.682 97.3391 169.377 76.2993 151.899 63.1023L108.756 193.399Z" stroke="#FFDE3B" stroke-opacity="0.5" stroke-width="0.8412" stroke-miterlimit="10" stroke-linecap="round" stroke-linejoin="round"/>
<path d="M273.808 13.4688L297 26.9587L297 5.04846e-05L273.808 13.4688Z" fill="#FFDE3B"/>
<path d="M183.073 13.4688L206.266 26.9587L206.266 5.04846e-05L183.073 13.4688Z" fill="#FFDE3B"/>
<path d="M9.12577 243.34L0.999999 251.517L12.8665 263.438L1 275.36L9.12577 283.537L20.9923 271.616L32.838 283.537L40.9638 275.36L29.118 263.438L40.9638 251.517L32.838 243.34L20.9923 255.261L9.12577 243.34Z" stroke="#8F9294" stroke-width="0.8412" stroke-miterlimit="10" stroke-linecap="round" stroke-linejoin="round"/>
<path d="M83.1922 243.34L75.0664 251.517L86.9121 263.438L75.0664 275.36L83.1922 283.537L95.0587 271.616L106.904 283.537L115.03 275.36L103.184 263.438L115.03 251.517L106.904 243.34L95.0587 255.261L83.1922 243.34Z" stroke="#8F9294" stroke-width="0.8412" stroke-miterlimit="10" stroke-linecap="round" stroke-linejoin="round"/>
<path d="M157.259 243.34L149.133 251.517L160.979 263.438L149.133 275.36L157.259 283.537L169.104 271.616L180.971 283.537L189.097 275.36L177.23 263.438L189.097 251.517L180.971 243.34L169.104 255.261L157.259 243.34Z" stroke="#8F9294" stroke-width="0.8412" stroke-miterlimit="10" stroke-linecap="round" stroke-linejoin="round"/>
</g>
</svg>
