<svg width="1266" height="354" viewBox="0 0 1266 354" fill="none" xmlns="http://www.w3.org/2000/svg">
<path d="M455.369 242.002C454.244 240.388 453.006 238.838 451.662 237.363C440.685 225.337 426.334 220.248 409.94 216.838C393.007 213.317 373.181 212.223 356.923 218.57C353.096 220.081 349.46 222.076 346.584 224.796C335.706 235.045 331.974 252.209 319.861 265.776C307.748 279.343 301.84 296.244 312.714 312.286C317.317 319.081 323.186 324.678 330.129 329.604C338.677 335.649 346.051 343.827 355.932 348.557C366.315 353.526 380.144 355.258 391.637 352.982C404.747 350.386 412.436 340.062 422.443 333.035C430.333 327.486 439.773 323.853 447.503 318.129C459.348 309.364 468.33 295.262 466.838 281.289C465.372 267.725 463.486 253.629 455.369 242.002Z" fill="#F9F8FE"/>
<g opacity="0.5">
<path d="M432.126 272.358L431.485 260.727C432.12 260.576 432.591 260.007 432.591 259.324C432.591 258.526 431.945 257.879 431.147 257.879C431.122 257.879 431.098 257.885 431.074 257.885L428.474 252.481C428.698 252.305 428.843 252.039 428.843 251.737C428.843 251.217 428.42 250.794 427.9 250.794C427.773 250.794 427.652 250.818 427.543 250.867L423.771 245.063C424.097 244.797 424.309 244.398 424.309 243.944C424.309 243.146 423.662 242.5 422.864 242.5C422.483 242.5 422.133 242.651 421.879 242.893L416.396 238.207C416.48 238.068 416.529 237.905 416.529 237.73C416.529 237.21 416.105 236.787 415.585 236.787C415.277 236.787 414.999 236.938 414.83 237.167L406.523 232.972C406.584 232.851 406.614 232.712 406.614 232.573C406.614 232.053 406.191 231.63 405.671 231.63C405.205 231.63 404.824 231.968 404.74 232.41L395.037 231.068C395.037 229.925 394.112 229 392.969 229C391.893 229 391.017 229.822 390.92 230.874L383.176 232.355C383.073 231.944 382.704 231.636 382.263 231.636C381.743 231.636 381.32 232.059 381.32 232.579C381.32 232.724 381.356 232.863 381.416 232.99L373.098 237.174C372.922 236.944 372.656 236.799 372.348 236.799C371.828 236.799 371.405 237.222 371.405 237.742C371.405 237.917 371.459 238.086 371.544 238.225L366.049 242.899C365.789 242.657 365.45 242.512 365.069 242.512C364.271 242.512 363.624 243.159 363.624 243.957C363.624 244.416 363.842 244.815 364.175 245.081L360.396 250.879C360.287 250.83 360.166 250.806 360.033 250.806C359.513 250.806 359.09 251.229 359.09 251.749C359.09 252.051 359.235 252.324 359.459 252.493L356.86 257.897C356.835 257.897 356.811 257.891 356.787 257.891C355.989 257.891 355.342 258.538 355.342 259.336C355.342 260.025 355.826 260.594 356.467 260.739L355.826 272.165C354.798 272.286 354 273.15 354 274.208C354 275.351 354.925 276.276 356.068 276.276C356.17 276.276 356.267 276.258 356.37 276.246L359.761 286.934C359.598 287.164 359.507 287.448 359.507 287.75C359.507 288.548 360.154 289.195 360.952 289.195C360.964 289.195 360.977 289.189 360.995 289.189L365.136 294.769C365.13 294.823 365.118 294.878 365.118 294.932C365.118 295.452 365.541 295.875 366.061 295.875C366.085 295.875 366.103 295.869 366.121 295.869L375.601 302.846C375.576 302.955 375.558 303.069 375.558 303.19C375.558 303.988 376.205 304.635 377.003 304.635C377.438 304.635 377.825 304.436 378.091 304.133L386.754 306.938C386.73 307.065 386.712 307.198 386.712 307.331C386.712 308.474 387.637 309.399 388.78 309.399C389.82 309.399 390.672 308.631 390.817 307.628L397.721 307.603C397.866 308.244 398.44 308.722 399.124 308.722C399.922 308.722 400.568 308.075 400.568 307.277C400.568 307.229 400.556 307.186 400.556 307.138L409.86 304.139C410.126 304.436 410.507 304.629 410.936 304.629C411.734 304.629 412.381 303.982 412.381 303.184C412.381 303.063 412.363 302.942 412.333 302.828L421.625 296.02C421.703 296.038 421.788 296.051 421.879 296.051C422.501 296.051 423.003 295.549 423.003 294.926C423.003 294.799 422.979 294.684 422.943 294.569L426.969 289.183C426.975 289.183 426.987 289.183 426.993 289.183C427.791 289.183 428.438 288.536 428.438 287.738C428.438 287.43 428.335 287.139 428.172 286.904L431.515 276.421C431.648 276.451 431.787 276.463 431.932 276.463C433.075 276.463 434 275.538 434 274.396C433.988 273.338 433.172 272.461 432.126 272.358ZM427.803 252.674C427.822 252.674 427.84 252.68 427.858 252.68L430.234 258.218C430.101 258.327 429.992 258.454 429.907 258.599C428.746 258.296 427.078 257.855 425.391 257.414C426.395 255.449 427.326 253.605 427.803 252.674ZM425.542 287.798L420.924 288.343L419.866 282.865L425.639 287.224C425.573 287.387 425.536 287.563 425.536 287.75C425.542 287.762 425.542 287.78 425.542 287.798ZM411.843 289.534C411.843 289.763 411.904 289.975 411.994 290.168L405.502 294.315C405.326 294.086 405.054 293.935 404.746 293.935C404.226 293.935 403.803 294.358 403.803 294.878C403.803 294.908 403.809 294.932 403.809 294.962L394.62 296.558C394.517 295.863 393.924 295.325 393.199 295.325C392.474 295.325 391.875 295.863 391.778 296.564L384.119 294.999C384.125 294.962 384.131 294.92 384.131 294.884C384.131 294.364 383.708 293.941 383.188 293.941C382.879 293.941 382.607 294.092 382.432 294.322L375.939 290.18C376.036 289.987 376.09 289.775 376.09 289.546C376.09 288.748 375.443 288.101 374.645 288.101C374.391 288.101 374.156 288.173 373.944 288.288L369.646 282.491C369.785 282.309 369.869 282.085 369.869 281.838C369.869 281.239 369.386 280.749 368.781 280.749C368.775 280.749 368.775 280.749 368.775 280.749L366.478 273.18C366.822 272.999 367.058 272.642 367.058 272.225C367.058 271.736 366.732 271.324 366.278 271.191L366.599 265.37C367.246 265.231 367.735 264.65 367.735 263.961C367.735 263.453 367.469 263.006 367.076 262.752L368.872 256.864C369.295 256.773 369.616 256.392 369.616 255.939C369.616 255.812 369.591 255.697 369.543 255.582L375.697 248.297C375.848 248.352 376.012 248.388 376.181 248.388C376.979 248.388 377.626 247.741 377.626 246.943C377.626 246.864 377.614 246.792 377.602 246.719L389.263 241.768C389.469 242.022 389.783 242.191 390.134 242.191C390.611 242.191 391.017 241.895 391.18 241.478H396.76C396.923 241.895 397.328 242.191 397.806 242.191C398.162 242.191 398.471 242.022 398.676 241.768L410.713 246.877C410.713 246.883 410.713 246.889 410.713 246.895C410.713 247.415 411.136 247.838 411.656 247.838C411.716 247.838 411.777 247.832 411.837 247.82L417.84 254.929C417.599 255.189 417.447 255.534 417.447 255.915C417.447 256.713 418.094 257.359 418.892 257.359C419.001 257.359 419.11 257.341 419.213 257.323L421.02 263.254C420.785 263.423 420.627 263.701 420.627 264.015C420.627 264.451 420.918 264.807 421.317 264.922L421.661 271.198C421.214 271.331 420.881 271.742 420.881 272.231C420.881 272.648 421.117 273.005 421.462 273.187L419.164 280.755C419.158 280.755 419.158 280.755 419.158 280.755C418.56 280.755 418.07 281.239 418.07 281.844C418.07 282.091 418.155 282.315 418.294 282.497L413.995 288.294C413.79 288.179 413.548 288.107 413.294 288.107C412.49 288.095 411.843 288.742 411.843 289.534ZM412.804 290.894L412.091 294.793H405.864L412.381 290.658C412.502 290.755 412.647 290.833 412.804 290.894ZM404.232 295.67L402.17 299.92L394.553 297.254C394.559 297.235 394.565 297.217 394.571 297.193L404.075 295.543C404.123 295.591 404.178 295.633 404.232 295.67ZM391.815 297.193L385.612 299.617L383.695 295.664C383.75 295.627 383.798 295.591 383.847 295.543L391.815 297.193ZM382.027 294.787H375.83L375.117 290.888C375.28 290.833 375.425 290.749 375.552 290.64L382.027 294.787ZM362.282 287.218L368.056 282.859L366.998 288.337L362.379 287.792C362.379 287.774 362.385 287.756 362.385 287.744C362.385 287.563 362.349 287.381 362.282 287.218ZM358.208 259.185C359.52 258.841 361.188 258.399 362.82 257.97C363.739 259.772 364.682 261.609 365.335 262.867C365.033 263.133 364.84 263.514 364.84 263.949C364.84 264.251 364.936 264.535 365.093 264.765L362.76 267.123L357.93 260.171C358.105 259.929 358.214 259.639 358.214 259.318C358.22 259.276 358.208 259.234 358.208 259.185ZM365.873 262.577C365.233 261.349 364.326 259.578 363.425 257.813C365.275 257.329 367.004 256.876 368.007 256.616C368.08 256.682 368.165 256.743 368.261 256.785L366.49 262.534C366.423 262.522 366.351 262.51 366.278 262.51C366.139 262.51 366.006 262.534 365.873 262.577ZM365.988 265.364L365.662 271.179C365.638 271.185 365.613 271.191 365.595 271.198L363.123 267.637L365.547 265.182C365.68 265.267 365.825 265.333 365.988 265.364ZM365.1 271.572C364.96 271.754 364.876 271.977 364.876 272.225C364.876 272.237 364.882 272.249 364.882 272.268L358.063 273.7C358.002 273.471 357.911 273.247 357.784 273.06L362.687 268.096L365.1 271.572ZM358.123 274.305L365.081 272.842C365.154 272.939 365.239 273.023 365.335 273.096L363.528 278.561L357.875 275.175C358.014 274.916 358.105 274.625 358.123 274.305ZM365.885 273.374L368.177 280.925C368.068 280.997 367.977 281.088 367.899 281.191L364.06 278.887L365.885 273.374ZM368.672 282.908C368.709 282.914 368.739 282.92 368.775 282.92C368.914 282.92 369.041 282.89 369.162 282.847L373.479 288.693C373.394 288.814 373.327 288.941 373.279 289.086L367.608 288.421L368.672 282.908ZM367.367 250.032L375.081 247.868C375.105 247.898 375.129 247.928 375.159 247.959L369.12 255.11C369.053 255.074 368.981 255.044 368.902 255.02L367.367 250.032ZM377.051 245.788L379.687 239.531L388.816 241.278L377.378 246.133C377.287 246 377.178 245.885 377.051 245.788ZM399.111 241.278L408.24 239.531L411.033 246.169C410.991 246.205 410.949 246.248 410.918 246.29L399.111 241.278ZM412.629 247.808L420.555 250.026L419.176 254.482C419.08 254.464 418.983 254.452 418.88 254.452C418.681 254.452 418.487 254.494 418.318 254.566L412.629 247.808ZM421.782 263.084C421.722 263.072 421.655 263.06 421.589 263.06L419.763 257.039C419.896 256.936 420.017 256.809 420.107 256.664C421.135 256.93 422.761 257.353 424.503 257.813C423.463 259.838 422.417 261.875 421.782 263.084ZM422.024 264.826L424.805 267.643L422.332 271.204C422.308 271.198 422.29 271.191 422.266 271.185L421.921 264.88C421.957 264.868 421.988 264.844 422.024 264.826ZM418.777 282.847C418.892 282.89 419.019 282.92 419.152 282.92C419.189 282.92 419.225 282.914 419.255 282.908L420.319 288.415L414.648 289.08C414.6 288.935 414.527 288.796 414.437 288.675L418.777 282.847ZM419.733 280.919L422.036 273.374L423.862 278.887L420.023 281.191C419.944 281.082 419.848 280.991 419.733 280.919ZM422.592 273.102C422.689 273.029 422.774 272.945 422.846 272.848L429.853 274.317C429.853 274.347 429.847 274.377 429.847 274.408C429.847 274.692 429.907 274.958 430.004 275.206L424.4 278.567L422.592 273.102ZM429.974 273.718L423.046 272.262C423.046 272.249 423.052 272.237 423.052 272.219C423.052 271.971 422.967 271.754 422.828 271.566L425.246 268.084L430.264 273.168C430.143 273.338 430.046 273.519 429.974 273.718ZM425.161 267.129L422.435 264.372C422.483 264.257 422.508 264.136 422.508 264.003C422.508 263.78 422.429 263.58 422.296 263.417C422.943 262.184 424.031 260.062 425.101 257.97C426.733 258.399 428.402 258.841 429.714 259.185C429.708 259.234 429.702 259.282 429.702 259.33C429.702 259.651 429.81 259.941 429.986 260.183L425.161 267.129ZM424.781 257.251C423.052 256.797 421.383 256.362 420.307 256.084C420.313 256.023 420.325 255.963 420.325 255.902C420.325 255.431 420.095 255.014 419.739 254.748L421.147 250.195L426.969 251.828C426.993 252.058 427.09 252.263 427.247 252.414C426.757 253.369 425.802 255.256 424.781 257.251ZM422.87 245.383C422.991 245.383 423.112 245.365 423.227 245.335L427.054 251.217L421.329 249.615L422.641 245.365C422.719 245.377 422.792 245.383 422.87 245.383ZM422.066 245.141L420.736 249.446L412.653 247.179L421.546 244.525C421.667 244.779 421.843 244.99 422.066 245.141ZM415.452 238.661C415.495 238.667 415.537 238.673 415.585 238.673C415.706 238.673 415.821 238.649 415.924 238.606L421.534 243.388C421.468 243.552 421.425 243.733 421.425 243.926L412.539 246.574C412.472 246.387 412.351 246.224 412.194 246.109L415.452 238.661ZM414.908 238.389L411.607 245.939L408.863 239.416L414.818 238.28C414.842 238.316 414.872 238.352 414.908 238.389ZM414.54 237.699L408.615 238.836L406.414 233.601L414.54 237.699ZM405.314 233.443C405.423 233.486 405.544 233.516 405.671 233.516C405.683 233.516 405.701 233.51 405.713 233.51L408.004 238.951L398.864 240.698C398.833 240.595 398.791 240.505 398.731 240.414C400.423 238.63 403.924 234.919 405.314 233.443ZM394.94 231.66L404.843 233.02C404.849 233.026 404.849 233.032 404.855 233.038C403.452 234.526 399.928 238.262 398.253 240.027C398.114 239.967 397.957 239.93 397.794 239.93C397.715 239.93 397.636 239.936 397.558 239.954C396.584 238.092 395.127 234.81 394.209 232.7C394.553 232.44 394.807 232.077 394.94 231.66ZM392.969 233.129C393.217 233.129 393.453 233.081 393.677 232.996C394.595 235.112 396.04 238.358 397.026 240.239C396.856 240.396 396.742 240.607 396.693 240.849H391.234C391.174 240.529 390.98 240.257 390.708 240.093C391.27 238.123 392.147 235.058 392.703 233.105C392.788 233.117 392.873 233.129 392.969 233.129ZM383.103 232.978L390.938 231.479C391.071 232.132 391.518 232.664 392.105 232.936C391.549 234.888 390.672 237.959 390.11 239.924C389.953 239.924 389.801 239.96 389.668 240.021C387.994 238.25 384.469 234.513 383.067 233.032C383.085 233.02 383.097 233.002 383.103 232.978ZM382.214 233.51C382.226 233.51 382.245 233.516 382.257 233.516C382.384 233.516 382.505 233.492 382.613 233.443C384.004 234.919 387.504 238.63 389.203 240.42C389.142 240.505 389.1 240.601 389.07 240.704L379.929 238.957L382.214 233.51ZM381.513 233.601L379.312 238.836L373.388 237.699L381.513 233.601ZM373.116 238.274L379.071 239.41L376.501 245.522C376.399 245.498 376.29 245.486 376.181 245.486C376.163 245.486 376.151 245.492 376.133 245.492L373.025 238.389C373.055 238.352 373.086 238.316 373.116 238.274ZM372.003 238.612C372.106 238.655 372.221 238.679 372.342 238.679C372.384 238.679 372.427 238.673 372.475 238.667L375.528 245.649C375.214 245.806 374.96 246.079 374.833 246.411L366.502 243.926C366.502 243.739 366.46 243.558 366.393 243.388L372.003 238.612ZM366.375 244.531L374.742 247.028C374.748 247.13 374.766 247.227 374.79 247.318L367.191 249.446L365.861 245.141C366.085 244.99 366.26 244.779 366.375 244.531ZM364.701 245.335C364.815 245.365 364.93 245.383 365.057 245.383C365.136 245.383 365.208 245.371 365.281 245.359L366.593 249.609L360.874 251.211L364.701 245.335ZM360.958 251.828L366.78 250.195L368.285 255.062C367.953 255.207 367.717 255.54 367.717 255.927C367.717 255.969 367.723 256.011 367.729 256.054C366.659 256.332 364.93 256.785 363.147 257.251C362.131 255.256 361.17 253.369 360.686 252.408C360.837 252.263 360.934 252.058 360.958 251.828ZM360.064 252.68C360.082 252.68 360.106 252.674 360.124 252.674C360.596 253.611 361.533 255.449 362.536 257.414C360.85 257.855 359.175 258.296 358.02 258.599C357.936 258.454 357.821 258.327 357.694 258.218L360.064 252.68ZM357.053 260.745C357.204 260.715 357.343 260.66 357.47 260.588L362.325 267.576L357.361 272.6C357.095 272.382 356.775 272.231 356.424 272.165L357.053 260.745ZM360.964 286.305C360.958 286.305 360.946 286.305 360.94 286.305C360.692 286.305 360.457 286.372 360.251 286.487L356.944 276.07C357.156 275.967 357.349 275.84 357.512 275.677L363.328 279.165L360.964 286.305ZM363.866 279.486L367.693 281.777C367.693 281.795 367.687 281.813 367.687 281.832C367.687 281.995 367.729 282.152 367.79 282.291L361.938 286.71C361.829 286.601 361.702 286.517 361.563 286.45L363.866 279.486ZM365.904 294.001C365.734 294.025 365.583 294.098 365.462 294.201L361.605 289.026C361.871 288.887 362.089 288.669 362.222 288.403L366.877 288.947L365.904 294.001ZM366.508 294.104L367.494 289.014L373.213 289.685C373.285 290.368 373.829 290.906 374.512 290.966L375.208 294.787H366.98C366.943 294.491 366.762 294.243 366.508 294.104ZM375.873 302.283L366.738 295.579C366.786 295.525 366.829 295.464 366.871 295.404H375.322L376.495 301.836C376.247 301.927 376.036 302.084 375.873 302.283ZM377.106 301.751L375.945 295.404H382.39C382.414 295.434 382.438 295.464 382.462 295.494L377.523 301.842C377.39 301.794 377.251 301.764 377.106 301.751ZM378.031 302.187L383 295.803C383.024 295.809 383.055 295.809 383.085 295.809L385.044 299.841L378.261 302.495C378.194 302.386 378.122 302.277 378.031 302.187ZM386.954 306.358L378.369 303.589C378.406 303.462 378.436 303.323 378.436 303.184C378.436 303.154 378.43 303.124 378.424 303.088L385.304 300.397L387.788 305.512C387.438 305.705 387.147 306.001 386.954 306.358ZM388.774 305.252C388.635 305.252 388.502 305.264 388.369 305.294L385.884 300.174L392.129 297.731C392.201 297.816 392.286 297.888 392.377 297.955L389.306 305.33C389.136 305.288 388.961 305.252 388.774 305.252ZM397.709 306.987L390.811 307.011C390.72 306.406 390.364 305.887 389.868 305.572L392.939 298.185C393.024 298.197 393.108 298.209 393.193 298.209C393.332 298.209 393.465 298.185 393.592 298.148L398.162 306.201C397.939 306.406 397.775 306.679 397.709 306.987ZM399.124 305.832C398.972 305.832 398.833 305.862 398.694 305.905L394.13 297.864C394.16 297.84 394.19 297.816 394.221 297.786L401.898 300.476L399.287 305.85C399.232 305.838 399.184 305.832 399.124 305.832ZM400.369 306.552C400.248 306.346 400.079 306.171 399.873 306.044L402.479 300.675L409.492 303.136C409.492 303.154 409.486 303.166 409.486 303.184C409.486 303.329 409.51 303.462 409.552 303.589L400.369 306.552ZM409.649 302.537L402.751 300.119L404.843 295.815C404.873 295.815 404.897 295.809 404.927 295.809L409.897 302.193C409.794 302.289 409.715 302.41 409.649 302.537ZM410.822 301.751C410.676 301.764 410.531 301.794 410.404 301.842L405.465 295.494C405.489 295.464 405.52 295.434 405.538 295.404H411.982L410.822 301.751ZM412.055 302.283C411.892 302.078 411.68 301.921 411.432 301.83L412.605 295.398H420.857C420.905 295.5 420.972 295.597 421.045 295.682L412.055 302.283ZM420.76 294.787H412.714L413.409 290.966C414.098 290.906 414.636 290.368 414.709 289.685L420.428 289.014L421.377 293.923C421.045 294.086 420.809 294.406 420.76 294.787ZM422.568 294.056C422.405 293.923 422.205 293.838 421.982 293.82L421.038 288.947L425.693 288.403C425.833 288.669 426.044 288.887 426.31 289.026L422.568 294.056ZM425.984 286.71L420.132 282.291C420.198 282.152 420.234 281.995 420.234 281.832C420.234 281.813 420.228 281.795 420.228 281.777L424.055 279.486L426.358 286.45C426.219 286.517 426.092 286.601 425.984 286.71ZM427.67 286.487C427.465 286.378 427.235 286.305 426.981 286.305C426.975 286.305 426.963 286.305 426.957 286.305L424.593 279.159L430.33 275.72C430.5 275.919 430.699 276.088 430.929 276.209L427.67 286.487ZM430.699 272.739L425.603 267.576L430.457 260.588C430.584 260.66 430.723 260.715 430.874 260.745L431.515 272.376C431.213 272.437 430.941 272.564 430.699 272.739Z" fill="#3E1BDB"/>
<path d="M381.543 267.77L394.317 275.139L407.091 267.77L394.317 247.977L381.543 267.77ZM395.599 252.311L405.296 267.341L395.599 272.933V252.311Z" fill="#3E1BDB"/>
<path d="M381.543 270.581L394.317 287.992L407.091 270.581L394.317 278.301L381.543 270.581ZM395.599 279.02L402.285 274.982L395.599 284.093V279.02Z" fill="#3E1BDB"/>
</g>
<path d="M1255.31 27.8083C1254.28 26.205 1253.14 24.6662 1251.91 23.2012C1241.82 11.2587 1228.64 6.20434 1213.58 2.81878C1198.02 -0.677831 1179.8 -1.76433 1164.87 4.53858C1161.35 6.03927 1158.01 8.02018 1155.37 10.7214C1145.37 20.8991 1141.95 37.944 1130.82 51.4172C1119.69 64.8904 1114.26 81.6742 1124.25 97.6055C1128.48 104.353 1133.87 109.911 1140.25 114.803C1148.1 120.806 1154.88 128.928 1163.96 133.625C1173.5 138.559 1186.2 140.279 1196.76 138.019C1208.8 135.441 1215.87 125.188 1225.06 118.21C1232.31 112.699 1240.98 109.092 1248.09 103.407C1258.97 94.7032 1267.22 80.6987 1265.85 66.8233C1264.5 53.3531 1262.77 39.3546 1255.31 27.8083Z" fill="#F9F8FE"/>
<g opacity="0.5">
<path d="M1177.78 43.7165L1176.82 49.285H1189.25C1192.43 49.285 1194.86 52.1323 1194.37 55.2882L1193.86 58.6141C1193.28 62.3559 1190.08 65.1149 1186.31 65.1149H1174.11L1173.15 70.6834H1186.71C1193.76 70.6834 1199.75 65.5307 1200.84 58.5386L1201.37 55.0866C1202.3 49.1086 1197.69 43.7102 1191.66 43.7102H1177.78V43.7165Z" fill="#3E1BDB"/>
<path d="M1168.69 57.5811L1168.29 59.9181H1180.76C1182.65 59.9181 1184.27 58.5575 1184.59 56.6866L1184.99 54.3496H1172.51C1170.62 54.3559 1169.01 55.7165 1168.69 57.5811Z" fill="#3E1BDB"/>
<path d="M1186 92.8819C1204.16 92.8819 1219.1 78.8283 1220.62 60.9827C1221.65 60.6236 1222.4 59.6472 1222.4 58.4882C1222.4 57.3543 1221.69 56.3968 1220.69 56.0189C1219.67 37.7008 1204.51 23.1118 1186 23.1118C1176.71 23.1118 1168.25 26.8094 1162.01 32.8063C1161.69 32.6677 1161.33 32.5921 1160.96 32.5921C1159.51 32.5921 1158.32 33.7764 1158.32 35.2441C1158.32 35.7039 1158.45 36.1323 1158.66 36.5165C1154.03 42.4441 1151.26 49.9023 1151.26 58.0094C1151.26 61.1338 1151.67 64.2204 1152.48 67.2063C1152.26 67.4771 1152.12 67.8236 1152.12 68.2015C1152.12 69.0708 1152.82 69.7763 1153.69 69.7763C1154.55 69.7763 1155.25 69.0708 1155.25 68.2015C1155.25 67.5527 1154.87 66.9984 1154.31 66.7527C1153.54 63.9181 1153.14 60.9764 1153.14 58.0094C1153.14 50.3748 1155.74 43.3386 1160.1 37.7386C1160.37 37.833 1160.66 37.896 1160.96 37.896C1162.42 37.896 1163.61 36.7118 1163.61 35.2441C1163.61 34.8472 1163.51 34.4693 1163.35 34.1291C1169.25 28.485 1177.23 25.0078 1186 25.0078C1203.46 25.0078 1217.79 38.7527 1218.8 56.0315C1217.82 56.4157 1217.12 57.3732 1217.12 58.4945C1217.12 59.5905 1217.78 60.5354 1218.73 60.9386C1217.24 77.7638 1203.14 90.9984 1186 90.9984C1180.54 90.9984 1175.14 89.6315 1170.38 87.0425C1170.36 86.1984 1169.67 85.5181 1168.82 85.5181C1167.95 85.5181 1167.25 86.2236 1167.25 87.0929C1167.25 87.9622 1167.95 88.6677 1168.82 88.6677C1169.08 88.6677 1169.31 88.5984 1169.53 88.4913L1169.43 88.674C1174.48 91.4204 1180.21 92.8819 1186 92.8819ZM1160.96 36.6236C1160.2 36.6236 1159.58 36 1159.58 35.2315C1159.58 34.463 1160.2 33.8393 1160.96 33.8393C1161.73 33.8393 1162.35 34.463 1162.35 35.2315C1162.35 36 1161.73 36.6236 1160.96 36.6236ZM1218.37 58.4882C1218.37 57.7197 1218.99 57.096 1219.76 57.096C1220.52 57.096 1221.14 57.7197 1221.14 58.4882C1221.14 59.2567 1220.52 59.8803 1219.76 59.8803C1218.99 59.8803 1218.37 59.2567 1218.37 58.4882Z" fill="#3E1BDB"/>
<path d="M1226 57.9905C1226 50.9039 1224.15 44.252 1220.93 38.4693C1221.02 38.274 1221.06 38.0598 1221.06 37.8268C1221.06 36.9449 1220.35 36.2268 1219.47 36.2268C1218.59 36.2268 1217.88 36.9449 1217.88 37.8268C1217.88 38.6835 1218.55 39.3827 1219.4 39.4205L1219.34 39.4772C1222.38 44.9701 1224.12 51.2756 1224.12 57.9905C1224.12 68.0315 1220.24 77.178 1213.92 84.0126C1213.59 83.8677 1213.23 83.7858 1212.86 83.7858C1211.4 83.7858 1210.21 84.9701 1210.21 86.4378C1210.21 86.7654 1210.28 87.0803 1210.39 87.3701C1203.78 92.9134 1195.27 96.2583 1186 96.2583C1176.63 96.2583 1168.04 92.8378 1161.4 87.1811C1161.54 86.8535 1161.62 86.5008 1161.62 86.1228C1161.62 84.6614 1160.44 83.4709 1158.97 83.4709C1158.56 83.4709 1158.18 83.5717 1157.83 83.7417C1151.66 76.9386 1147.89 67.8992 1147.89 57.9905C1147.89 38.3937 1162.64 22.1984 1181.58 19.9874C1182.04 20.7622 1182.88 21.2913 1183.84 21.2913C1184.92 21.2913 1185.83 20.6488 1186.25 19.7291C1191.96 19.7669 1197.39 21.0709 1202.25 23.3827C1202.25 23.389 1202.25 23.389 1202.25 23.3953C1202.25 24.2772 1202.96 24.9953 1203.84 24.9953C1204.72 24.9953 1205.43 24.2772 1205.43 23.3953C1205.43 22.5134 1204.72 21.7953 1203.84 21.7953C1203.69 21.7953 1203.55 21.8205 1203.41 21.8646C1198.24 19.3449 1192.45 17.9024 1186.34 17.852C1186 16.7811 1185.02 16 1183.84 16C1182.56 16 1181.49 16.9197 1181.25 18.1354C1161.43 20.5039 1146 37.474 1146 57.9968C1146 68.4409 1150 77.9716 1156.53 85.1213C1156.41 85.4299 1156.33 85.7701 1156.33 86.1291C1156.33 87.5905 1157.51 88.7811 1158.97 88.7811C1159.36 88.7811 1159.73 88.6929 1160.07 88.5354C1167.06 94.526 1176.11 98.1543 1186 98.1543C1195.75 98.1543 1204.69 94.6268 1211.64 88.7874C1212 88.9764 1212.41 89.0961 1212.85 89.0961C1214.31 89.0961 1215.49 87.9118 1215.49 86.4441C1215.49 86.0535 1215.4 85.6819 1215.25 85.348C1221.91 78.1669 1226 68.5543 1226 57.9905ZM1183.84 17.2535C1184.6 17.2535 1185.23 17.8772 1185.23 18.6457C1185.23 19.4142 1184.6 20.0378 1183.84 20.0378C1183.07 20.0378 1182.45 19.4142 1182.45 18.6457C1182.45 17.8772 1183.07 17.2535 1183.84 17.2535ZM1158.97 87.515C1158.21 87.515 1157.59 86.8913 1157.59 86.1228C1157.59 85.3543 1158.21 84.7307 1158.97 84.7307C1159.74 84.7307 1160.36 85.3543 1160.36 86.1228C1160.36 86.8913 1159.74 87.515 1158.97 87.515ZM1212.86 87.8299C1212.09 87.8299 1211.47 87.2063 1211.47 86.4378C1211.47 85.6693 1212.09 85.0457 1212.86 85.0457C1213.62 85.0457 1214.24 85.6693 1214.24 86.4378C1214.24 87.2063 1213.62 87.8299 1212.86 87.8299Z" fill="#3E1BDB"/>
<path d="M1161.8 75.7858C1161.96 75.7858 1162.12 75.7669 1162.27 75.7354C1167.67 82.9984 1176.3 87.7102 1186 87.7102C1190.57 87.7102 1194.95 86.6898 1199.02 84.6803C1199.24 84.7874 1199.47 84.8504 1199.72 84.8504C1200.58 84.8504 1201.29 84.1449 1201.29 83.2756C1201.29 82.4063 1200.58 81.7008 1199.72 81.7008C1198.95 81.7008 1198.31 82.2551 1198.18 82.9921C1194.37 84.8693 1190.28 85.8205 1186 85.8205C1176.98 85.8205 1168.95 81.4677 1163.89 74.7401C1164.23 74.2929 1164.45 73.7386 1164.45 73.1275C1164.45 71.6661 1163.27 70.4756 1161.8 70.4756C1161.62 70.4756 1161.45 70.4945 1161.28 70.526C1159.37 66.7527 1158.29 62.4945 1158.29 57.9842C1158.29 42.6394 1170.73 30.1543 1186.01 30.1543C1191.52 30.1543 1196.66 31.7858 1200.99 34.5827C1200.93 34.7968 1200.89 35.0173 1200.89 35.2441C1200.89 36.7055 1202.07 37.8961 1203.53 37.8961C1204 37.8961 1204.43 37.7638 1204.81 37.5496C1210.28 42.6394 1213.73 49.9087 1213.73 57.9779C1213.73 61.8646 1212.94 65.6126 1211.41 69.1401C1210.66 69.2598 1210.08 69.9024 1210.08 70.6898C1210.08 71.559 1210.79 72.2646 1211.65 72.2646C1212.52 72.2646 1213.22 71.559 1213.22 70.6898C1213.22 70.4567 1213.16 70.2299 1213.08 70.0346C1214.76 66.2299 1215.61 62.1795 1215.61 57.9842C1215.61 49.3354 1211.91 41.5433 1206.02 36.1071C1206.11 35.8362 1206.17 35.5527 1206.17 35.2504C1206.17 33.789 1204.99 32.5984 1203.53 32.5984C1202.99 32.5984 1202.49 32.7622 1202.06 33.0394C1197.43 30.022 1191.92 28.2646 1186 28.2646C1169.68 28.2646 1156.4 41.5937 1156.4 57.9842C1156.4 62.8724 1157.59 67.4835 1159.68 71.5527C1159.36 71.9937 1159.16 72.5354 1159.16 73.1213C1159.16 74.5953 1160.34 75.7858 1161.8 75.7858ZM1161.8 71.7417C1162.56 71.7417 1163.18 72.3653 1163.18 73.1338C1163.18 73.9023 1162.56 74.526 1161.8 74.526C1161.03 74.526 1160.41 73.9023 1160.41 73.1338C1160.41 72.3653 1161.03 71.7417 1161.8 71.7417ZM1203.52 33.8709C1204.29 33.8709 1204.91 34.4945 1204.91 35.263C1204.91 36.0315 1204.29 36.6551 1203.52 36.6551C1202.75 36.6551 1202.13 36.0315 1202.13 35.263C1202.13 34.4945 1202.75 33.8709 1203.52 33.8709Z" fill="#3E1BDB"/>
</g>
<path d="M148.369 35.6068C147.244 34.3033 146.006 33.0524 144.662 31.8614C133.685 22.1527 119.334 18.0438 102.94 15.2915C86.0069 12.449 66.1806 11.5657 49.9226 16.6896C46.0964 17.9096 42.4602 19.52 39.5837 21.716C28.7055 29.9899 24.9743 43.8465 12.8614 54.7996C0.748497 65.7526 -5.1604 79.397 5.71441 92.3484C10.3174 97.8334 16.1856 102.352 23.129 106.329C31.6769 111.209 39.0512 117.812 48.9321 121.63C59.3151 125.642 73.1444 127.04 84.6366 125.203C97.7467 123.107 105.436 114.772 115.443 109.099C123.333 104.619 132.773 101.686 140.503 97.0648C152.348 89.9889 161.33 78.604 159.838 67.324C158.372 56.3734 156.486 44.9933 148.369 35.6068Z" fill="#F9F8FE"/>
<g opacity="0.5">
<path d="M73.0193 90.2116L71.2695 91.9614C71.2757 91.9676 71.2757 91.9675 71.2819 91.9737L73.0316 90.224C73.0255 90.2178 73.0193 90.2178 73.0193 90.2116Z" fill="#3E1BDB"/>
<path d="M117.871 98.6203L116.672 97.4208L117.871 98.6203Z" fill="#3E1BDB"/>
<path d="M115.342 96.0915L116.671 97.4208L115.342 96.0915Z" fill="#3E1BDB"/>
<path d="M114.803 99.0469L113.041 97.2848C107.532 101.668 100.57 104.296 92.9961 104.296C85.4283 104.296 78.4664 101.668 72.9574 97.291L71.1953 99.0531C77.1618 103.876 84.742 106.769 92.9961 106.769C101.25 106.769 108.837 103.876 114.803 99.0469Z" fill="#3E1BDB"/>
<path d="M69.6751 90.057L71.4372 88.2949C68.0242 83.7752 65.9963 78.1488 65.9963 72.0587C65.9963 57.1704 78.1085 45.052 93.003 45.052C99.0931 45.052 104.713 47.08 109.239 50.4929L111.001 48.7308C106.018 44.8789 99.7794 42.5789 93.0092 42.5789C76.7544 42.5789 63.5293 55.804 63.5293 72.0587C63.5231 78.8351 65.8231 85.0798 69.6751 90.057Z" fill="#3E1BDB"/>
<path d="M92.9969 32C82.4119 32 72.7851 36.1425 65.6192 42.8756C65.0195 43.4383 64.4383 44.0257 63.8695 44.6254L65.6192 46.3751L67.6039 48.3598C61.8106 54.5674 58.2554 62.8896 58.2554 72.034C58.2554 82.0502 62.5216 91.0834 69.3227 97.427L71.0725 95.6773C71.0725 95.6773 71.0725 95.6773 71.0663 95.6711L73.0201 93.7173C78.2755 98.5708 85.2931 101.539 92.9907 101.539C109.245 101.539 122.471 88.3135 122.471 72.0587C122.471 64.3611 119.503 57.3435 114.649 52.0881C114.649 52.0819 114.643 52.0819 114.643 52.0757L114.637 52.0696L116.622 50.0849L118.371 48.3351C117.815 47.7354 117.234 47.1604 116.64 46.6039C110.433 40.8291 102.123 37.2863 92.9969 37.2863C83.871 37.2863 75.5613 40.8291 69.3537 46.6039L67.369 44.6192C74.0835 38.3312 83.092 34.467 92.9969 34.467C113.691 34.467 130.521 51.3029 130.521 71.9907C130.521 81.8957 126.656 90.9041 120.368 97.6187L118.415 95.6649C124.189 89.4573 127.732 81.1475 127.732 72.0216C127.732 63.7614 124.826 56.1688 119.997 50.2023L118.235 51.9645C122.625 57.4796 125.259 64.4476 125.259 72.0278C125.259 81.3578 121.271 89.7726 114.921 95.6711L118.625 99.3746C111.91 105.663 102.902 109.527 92.9969 109.527C72.3091 109.527 55.4731 92.6909 55.4731 72.0031C55.4731 62.9885 58.6697 54.7096 63.9869 48.2362L62.231 46.4803C56.4686 53.4051 53 62.3084 53 72.0031C53 94.0574 70.9427 112 92.9969 112C103.582 112 113.209 107.857 120.375 101.124C120.974 100.562 121.556 99.9743 122.124 99.3746C128.857 92.2149 133 82.582 133 71.9969C133 49.9427 115.057 32 92.9969 32ZM92.9969 39.7657C101.443 39.7657 109.134 43.0302 114.89 48.3598L112.906 50.3445L111.156 52.0943C111.768 52.6507 112.349 53.2319 112.906 53.844C117.308 58.6481 120.004 65.0474 120.004 72.0649C120.004 86.9532 107.891 99.0717 92.9969 99.0717C85.9794 99.0717 79.5801 96.3821 74.776 91.9737C74.1701 91.4173 73.5827 90.8361 73.0263 90.224L71.2765 91.9737L69.3227 93.9275C63.9931 88.1713 60.7286 80.4798 60.7286 72.034C60.7348 54.2397 75.2088 39.7657 92.9969 39.7657Z" fill="#3E1BDB"/>
<path fill-rule="evenodd" clip-rule="evenodd" d="M94.1307 58.0102C91.5394 58.2375 89.5295 59.0482 87.2712 60.7768C86.3836 61.4561 85.8282 61.9639 85.2622 62.6135C84.1451 63.8957 83.3643 65.2224 82.7987 66.7999L82.5787 67.4133L80.4642 67.4136L78.3496 67.414V68.9679V70.5218L80.0952 70.5362L81.8407 70.5506L81.8759 72.0508C81.8953 72.8759 81.9302 73.6061 81.9535 73.6737L81.9959 73.7964H80.1728H78.3496V75.4875V77.1786H80.6128H82.8759L83.0926 77.765C83.3719 78.5205 84.0078 79.7278 84.4986 80.4344C84.9043 81.0185 85.7512 81.9965 86.2189 82.4212C88.216 84.2343 90.6174 85.3673 93.338 85.78C94.3078 85.9272 96.4246 85.9129 97.5083 85.752C100.543 85.3013 102.926 84.083 104.762 82.0442C105.023 81.7534 105.256 81.4844 105.279 81.4465C105.306 81.4022 104.8 80.7761 103.859 79.6908L102.398 78.0039L101.911 78.4468C100.996 79.2805 99.5907 80.2795 98.7855 80.6688C98.3158 80.8961 97.7147 81.0907 97.0674 81.2254C96.5678 81.3293 96.3117 81.3463 95.2376 81.3471C93.8419 81.3482 93.4345 81.2874 92.4442 80.9299C90.8871 80.3679 89.5818 79.2296 88.6271 77.6013L88.4432 77.2877H93.1319H97.8205V75.5969V73.9061L92.6131 73.8922L87.4058 73.8782L87.3607 73.66C87.336 73.54 87.3001 72.822 87.2811 72.0644L87.2465 70.687H92.5335H97.8205V68.9959V67.3049H92.9954C90.3415 67.3049 88.1702 67.2901 88.1702 67.2721C88.1702 67.1705 88.8814 66.0552 89.232 65.6071C90.1494 64.4345 91.561 63.4347 92.9124 63.0005C93.7602 62.7282 94.3664 62.6478 95.5498 62.6509C96.7843 62.6541 97.7152 62.7648 98.4742 62.9984C99.4466 63.2977 100.673 64.109 101.918 65.2762L102.694 66.0043L104.149 64.2571C105.359 62.805 105.595 62.4933 105.549 62.4117C105.461 62.2571 104.079 60.9736 103.639 60.6382C103.027 60.1714 102.147 59.6379 101.411 59.2879C99.6059 58.4287 97.8547 58.0442 95.5782 58.0072C94.9226 57.9965 94.2712 57.9979 94.1307 58.0102Z" fill="#3E1BDB"/>
</g>
<path d="M956.642 225.21C955.447 223.353 954.131 221.57 952.703 219.873C941.04 206.041 925.792 200.186 908.374 196.265C890.382 192.215 869.317 190.956 852.043 198.257C847.977 199.995 844.114 202.29 841.058 205.418C829.5 217.207 825.535 236.95 812.665 252.555C799.795 268.161 793.517 287.601 805.072 306.054C809.962 313.869 816.197 320.307 823.575 325.974C832.657 332.927 840.492 342.334 850.99 347.774C862.022 353.49 876.716 355.482 888.926 352.864C902.856 349.878 911.026 338.002 921.658 329.92C930.041 323.537 940.071 319.358 948.285 312.774C960.87 302.692 970.413 286.471 968.827 270.4C967.271 254.797 965.267 238.583 956.642 225.21Z" fill="#F9F8FE"/>
<g opacity="0.5">
<path d="M884.003 276.574C902.16 276.574 917.099 262.577 918.617 244.803C919.652 244.445 920.399 243.473 920.399 242.318C920.399 241.189 919.69 240.235 918.692 239.859C917.67 221.614 902.505 207.083 884.003 207.083C874.705 207.083 866.248 210.766 860.005 216.739C859.685 216.601 859.334 216.526 858.964 216.526C857.508 216.526 856.322 217.705 856.322 219.167C856.322 219.625 856.448 220.052 856.661 220.434C852.031 226.338 849.258 233.767 849.258 241.841C849.258 244.953 849.672 248.028 850.481 251.002C850.262 251.271 850.117 251.616 850.117 251.993C850.117 252.859 850.82 253.561 851.686 253.561C852.552 253.561 853.254 252.859 853.254 251.993C853.254 251.347 852.865 250.794 852.307 250.55C851.535 247.726 851.14 244.796 851.14 241.841C851.14 234.237 853.744 227.229 858.098 221.652C858.374 221.746 858.663 221.808 858.964 221.808C860.419 221.808 861.605 220.629 861.605 219.167C861.605 218.772 861.511 218.395 861.354 218.057C867.252 212.435 875.232 208.972 884.003 208.972C901.464 208.972 915.787 222.662 916.804 239.871C915.819 240.254 915.116 241.208 915.116 242.325C915.116 243.416 915.781 244.357 916.729 244.759C915.242 261.517 901.138 274.698 883.997 274.698C878.545 274.698 873.143 273.337 868.381 270.758C868.356 269.918 867.666 269.24 866.819 269.24C865.953 269.24 865.25 269.943 865.25 270.809C865.25 271.674 865.953 272.377 866.819 272.377C867.076 272.377 867.314 272.308 867.528 272.201L867.427 272.383C872.484 275.119 878.212 276.574 884.003 276.574ZM858.964 220.541C858.198 220.541 857.577 219.92 857.577 219.155C857.577 218.389 858.198 217.768 858.964 217.768C859.729 217.768 860.35 218.389 860.35 219.155C860.35 219.92 859.729 220.541 858.964 220.541ZM916.371 242.318C916.371 241.553 916.992 240.932 917.758 240.932C918.523 240.932 919.144 241.553 919.144 242.318C919.144 243.084 918.523 243.705 917.758 243.705C916.992 243.705 916.371 243.084 916.371 242.318Z" fill="#3E1BDB"/>
<path d="M924 241.823C924 234.764 922.149 228.139 918.931 222.379C919.018 222.185 919.062 221.972 919.062 221.739C919.062 220.861 918.347 220.146 917.469 220.146C916.59 220.146 915.875 220.861 915.875 221.739C915.875 222.593 916.553 223.289 917.4 223.327L917.343 223.383C920.38 228.854 922.118 235.134 922.118 241.823C922.118 251.823 918.24 260.933 911.916 267.741C911.59 267.596 911.232 267.515 910.856 267.515C909.4 267.515 908.215 268.694 908.215 270.156C908.215 270.482 908.284 270.796 908.39 271.085C901.777 276.606 893.27 279.937 884.003 279.937C874.63 279.937 866.041 276.53 859.396 270.896C859.541 270.57 859.616 270.219 859.616 269.842C859.616 268.387 858.437 267.201 856.975 267.201C856.561 267.201 856.178 267.301 855.833 267.471C849.659 260.695 845.888 251.692 845.888 241.823C845.888 222.304 860.639 206.174 879.58 203.971C880.038 204.743 880.879 205.27 881.845 205.27C882.918 205.27 883.834 204.63 884.248 203.714C889.963 203.752 895.39 205.051 900.247 207.353C900.247 207.359 900.247 207.359 900.247 207.366C900.247 208.244 900.962 208.959 901.84 208.959C902.719 208.959 903.434 208.244 903.434 207.366C903.434 206.487 902.719 205.772 901.84 205.772C901.69 205.772 901.545 205.797 901.407 205.841C896.237 203.332 890.453 201.895 884.342 201.845C884.003 200.778 883.018 200 881.839 200C880.559 200 879.492 200.916 879.247 202.127C859.428 204.486 844 221.388 844 241.829C844 252.231 847.997 261.724 854.534 268.845C854.409 269.152 854.333 269.491 854.333 269.849C854.333 271.304 855.513 272.49 856.975 272.49C857.364 272.49 857.734 272.402 858.066 272.245C865.056 278.212 874.109 281.826 883.997 281.826C893.747 281.826 902.693 278.312 909.639 272.496C910.003 272.685 910.41 272.804 910.85 272.804C912.305 272.804 913.491 271.624 913.491 270.162C913.491 269.773 913.403 269.403 913.246 269.071C919.909 261.918 924 252.344 924 241.823ZM881.839 201.249C882.604 201.249 883.225 201.87 883.225 202.635C883.225 203.401 882.604 204.022 881.839 204.022C881.073 204.022 880.452 203.401 880.452 202.635C880.452 201.87 881.073 201.249 881.839 201.249ZM856.975 271.229C856.209 271.229 855.588 270.608 855.588 269.842C855.588 269.077 856.209 268.456 856.975 268.456C857.74 268.456 858.361 269.077 858.361 269.842C858.361 270.608 857.74 271.229 856.975 271.229ZM910.856 271.543C910.091 271.543 909.469 270.922 909.469 270.156C909.469 269.391 910.091 268.77 910.856 268.77C911.621 268.77 912.243 269.391 912.243 270.156C912.243 270.922 911.615 271.543 910.856 271.543Z" fill="#3E1BDB"/>
<path d="M859.798 259.547C859.961 259.547 860.118 259.528 860.269 259.497C865.67 266.73 874.297 271.423 883.997 271.423C888.571 271.423 892.95 270.407 897.022 268.406C897.235 268.512 897.467 268.575 897.718 268.575C898.584 268.575 899.287 267.872 899.287 267.007C899.287 266.141 898.584 265.438 897.718 265.438C896.946 265.438 896.313 265.99 896.181 266.724C892.373 268.594 888.282 269.541 884.003 269.541C874.981 269.541 866.95 265.206 861.887 258.505C862.232 258.06 862.446 257.508 862.446 256.899C862.446 255.444 861.266 254.258 859.804 254.258C859.622 254.258 859.447 254.277 859.277 254.308C857.37 250.55 856.291 246.309 856.291 241.816C856.291 226.533 868.726 214.098 884.009 214.098C889.524 214.098 894.663 215.723 898.986 218.508C898.929 218.722 898.891 218.941 898.891 219.167C898.891 220.623 900.071 221.808 901.533 221.808C901.997 221.808 902.43 221.677 902.806 221.463C908.284 226.533 911.728 233.773 911.728 241.81C911.728 245.681 910.944 249.414 909.407 252.928C908.66 253.047 908.083 253.687 908.083 254.471C908.083 255.337 908.786 256.04 909.651 256.04C910.517 256.04 911.22 255.337 911.22 254.471C911.22 254.239 911.163 254.013 911.076 253.819C912.757 250.029 913.61 245.995 913.61 241.816C913.61 233.202 909.909 225.441 904.017 220.027C904.111 219.757 904.168 219.475 904.168 219.173C904.168 217.718 902.988 216.532 901.527 216.532C900.987 216.532 900.485 216.695 900.065 216.971C895.434 213.966 889.92 212.216 884.003 212.216C867.684 212.216 854.402 225.491 854.402 241.816C854.402 246.685 855.588 251.278 857.684 255.331C857.357 255.77 857.163 256.309 857.163 256.893C857.157 258.361 858.342 259.547 859.798 259.547ZM859.798 255.519C860.563 255.519 861.185 256.14 861.185 256.905C861.185 257.671 860.563 258.292 859.798 258.292C859.033 258.292 858.411 257.671 858.411 256.905C858.411 256.14 859.033 255.519 859.798 255.519ZM901.52 217.799C902.286 217.799 902.907 218.421 902.907 219.186C902.907 219.951 902.286 220.573 901.52 220.573C900.755 220.573 900.134 219.951 900.134 219.186C900.134 218.421 900.755 217.799 901.52 217.799Z" fill="#3E1BDB"/>
<path fill-rule="evenodd" clip-rule="evenodd" d="M882.596 226.088C882.451 226.14 882.322 226.183 882.311 226.184C882.3 226.184 882.248 226.284 882.195 226.406C882.128 226.561 882.098 226.896 882.094 227.537C882.091 228.038 882.068 228.687 882.043 228.98C882 229.469 881.98 229.527 881.791 229.689C881.677 229.787 881.26 229.987 880.864 230.134C879.327 230.703 878.449 231.219 877.553 232.078C876.235 233.342 875.602 234.907 875.602 236.898C875.602 238.727 876.135 239.963 877.487 241.264C878.643 242.375 879.9 243.081 882.63 244.15C884.963 245.064 885.547 245.372 886.201 246.037C886.938 246.786 887.106 247.732 886.659 248.62C886.077 249.777 884.225 250.394 882.132 250.128C880.618 249.935 879.252 249.546 877.756 248.883C876.995 248.545 876.87 248.516 876.658 248.624C876.45 248.731 876.292 249.107 875.872 250.495C875.364 252.176 875.301 252.497 875.426 252.786C875.711 253.44 877.629 254.172 880.292 254.641C880.812 254.733 881.308 254.839 881.395 254.877C881.68 255.002 881.72 255.199 881.762 256.657C881.819 258.669 881.738 258.598 883.956 258.598C886.196 258.598 886.096 258.694 886.144 256.497C886.167 255.432 886.202 254.922 886.261 254.824C886.408 254.575 886.757 254.381 887.437 254.169C889.594 253.496 891.237 252.163 892.175 250.326C893.587 247.557 893.01 244.381 890.689 242.149C889.657 241.158 888.506 240.526 885.646 239.379C883.637 238.574 882.842 238.155 882.241 237.583C881.259 236.647 881.388 235.365 882.539 234.623C883.16 234.223 883.68 234.119 885.017 234.128C886.634 234.138 887.731 234.359 889.27 234.985C889.695 235.158 890.145 235.3 890.27 235.3C890.71 235.3 890.834 235.046 891.512 232.756C891.907 231.423 891.91 231.258 891.543 230.925C891.162 230.58 889.517 230.02 888.199 229.788C886.958 229.569 886.664 229.482 886.514 229.287C886.389 229.125 886.372 228.991 886.337 227.912C886.293 226.576 886.217 226.3 885.845 226.121C885.552 225.98 882.973 225.954 882.596 226.088Z" fill="#3E1BDB"/>
</g>
<path d="M248.948 255.584C235.154 270.83 211.222 263.536 203.269 253.256C185.37 230.115 190.706 209.027 180.611 203.268C168.296 196.266 152.096 228.32 132.183 225.659C119.168 223.921 111.895 213.133 112.309 190.401C112.897 158.717 122.823 135.16 134.404 127.048C158.047 110.493 192.312 118.364 210.675 123.422C225.841 127.594 249.216 125.681 265.703 158.899C275.437 178.509 275.551 226.187 248.948 255.584Z" fill="#F9F8FE"/>
<path opacity="0.5" fill-rule="evenodd" clip-rule="evenodd" d="M184.768 132.144C178.529 134.573 174.598 140.533 174.819 147.23C174.866 148.68 175.626 151.718 176.267 153.02C177.676 155.882 179.795 158.145 182.519 159.698C189.954 163.935 199.161 161.39 203.353 153.939C205.672 149.818 205.968 145 204.169 140.655C201.724 134.75 195.841 131.013 189.325 131.227C188.443 131.256 185.556 131.837 184.768 132.144ZM188.36 133.884C192.77 133.289 197.074 134.938 199.821 138.276C204.325 143.748 203.635 151.833 198.289 156.236C192.842 160.723 184.782 160.057 180.388 154.757C175.828 149.257 176.493 141.17 181.868 136.738C183.24 135.607 185.045 134.661 186.784 134.162C187.024 134.094 187.732 133.968 188.36 133.884ZM168.044 141.487C167.954 141.531 167.25 141.817 166.481 142.122C161.972 143.911 157.904 147.038 154.844 151.07C153.123 153.338 151.351 156.71 150.497 159.345C150.02 160.815 149.458 163.517 149.294 165.121C149.119 166.841 149.116 169.307 149.287 171.035C149.462 172.795 150.41 176.734 151.018 178.225C153.682 184.749 158.625 190.214 164.564 193.2C170.207 196.038 177.048 196.895 182.785 195.482C184.454 195.071 185.29 194.774 188.008 193.626C192.179 191.864 195.95 189.006 198.889 185.38C199.875 184.164 202.289 180.41 202.496 179.772C202.562 179.567 202.79 179.011 203.001 178.536C203.985 176.323 204.805 173.059 205.005 170.561C205.192 168.221 205.045 164.524 204.713 163.196C204.418 162.015 203.132 161.717 202.48 162.678C202.214 163.07 202.208 163.178 202.365 164.657C202.722 168.003 202.556 170.934 201.834 174.044C201.58 175.138 200.905 177.297 200.563 178.111C200.537 178.173 200.012 178.083 199.398 177.91C198.783 177.737 197.716 177.488 197.026 177.356C195.981 177.156 195.77 177.076 195.758 176.873C195.75 176.74 195.779 175.965 195.823 175.151C195.921 173.295 195.825 171.202 195.542 169.053C195.286 167.106 195.154 166.756 194.574 166.472C193.955 166.17 193.34 166.348 192.99 166.932C192.844 167.177 192.739 167.439 192.757 167.513C192.827 167.794 193.142 171.549 193.2 172.776C193.251 173.883 193.219 176.508 193.15 176.737C193.138 176.781 192.469 176.792 191.664 176.764C188.922 176.665 185.522 176.892 183.101 177.334C182.519 177.44 181.763 177.568 181.42 177.618L180.797 177.708L179.712 173.374L178.628 169.04L180.89 168.474C183.284 167.875 183.663 167.701 183.805 167.136C183.922 166.671 183.665 165.975 183.276 165.7L182.915 165.445L180.489 165.99L178.063 166.536L177.401 164.137L176.739 161.739L176.345 161.541C175.918 161.327 175.184 161.428 174.829 161.75C174.398 162.141 174.423 162.558 175.023 164.953L175.589 167.216L168.801 168.915L162.014 170.613L161.743 169.199C161.228 166.501 160.963 163.156 161.069 160.701C161.099 160.015 161.132 159.44 161.142 159.423C161.152 159.406 161.855 159.413 162.703 159.437C164.683 159.495 167.817 159.353 170.246 159.095L172.156 158.893L172.408 158.585C172.546 158.415 172.712 158.054 172.776 157.782C172.887 157.318 172.876 157.266 172.611 156.944C172.19 156.435 171.84 156.373 170.464 156.563C168.078 156.892 166.473 156.962 162.069 156.925C161.764 156.923 161.493 156.911 161.467 156.898C161.441 156.886 161.546 156.273 161.7 155.536C162.837 150.116 165.4 145.977 168.802 144.067C169.978 143.407 170.266 142.801 169.775 142.024C169.375 141.392 168.681 141.177 168.044 141.487ZM186.991 136.949C186.651 137.233 186.575 137.89 186.785 138.732L186.973 139.481L186.533 139.656C185.364 140.121 184.178 141.558 183.97 142.76C183.88 143.282 183.907 143.637 184.089 144.357C184.402 145.587 184.922 146.322 185.966 147.004C187.267 147.854 188.542 147.971 190.698 147.438C191.418 147.259 191.662 147.25 192.038 147.384C193.388 147.868 193.821 150.028 192.735 150.869C192.363 151.157 191.961 151.29 189.789 151.845C188.213 152.247 187.18 152.561 187.023 152.686C186.428 153.16 186.592 154.308 187.316 154.742C187.67 154.955 187.733 154.949 189.171 154.589L190.66 154.217L190.837 154.923C191.127 156.084 191.685 156.544 192.542 156.33C193.41 156.113 193.674 155.45 193.372 154.243L193.185 153.495L193.625 153.32C194.788 152.857 195.889 151.534 196.158 150.275C196.291 149.651 196.279 149.403 196.074 148.617C195.754 147.386 195.23 146.65 194.192 145.971C192.891 145.121 191.616 145.004 189.46 145.538C188.74 145.716 188.496 145.726 188.12 145.591C186.77 145.107 186.337 142.948 187.422 142.107C187.795 141.818 188.197 141.685 190.369 141.131C191.945 140.728 192.978 140.414 193.135 140.289C193.729 139.815 193.566 138.668 192.841 138.233C192.487 138.021 192.425 138.026 190.986 138.386L189.498 138.758L189.321 138.052C189.025 136.871 188.463 136.422 187.584 136.662C187.381 136.717 187.114 136.846 186.991 136.949ZM161.577 148.359C160.569 150.198 159.708 152.668 159.204 155.167C159.042 155.969 158.843 156.641 158.76 156.662C158.678 156.683 157.715 156.504 156.619 156.265L154.628 155.83L155.136 154.964C155.8 153.832 157.178 152.006 158.266 150.82C159.079 149.934 161.722 147.554 161.959 147.495C162.018 147.48 161.846 147.869 161.577 148.359ZM155.2 158.328C156.078 158.535 157.209 158.78 157.715 158.871L158.634 159.038L158.549 160.317C158.373 162.944 158.638 166.578 159.218 169.514L159.546 171.169L155.879 172.119L152.212 173.069L152.087 172.573C151.909 171.858 151.723 170.243 151.659 168.841C151.551 166.488 151.879 163.549 152.519 161.115C152.792 160.08 153.488 157.981 153.565 157.962C153.587 157.957 154.322 158.121 155.2 158.328ZM160.368 174.347C161.395 177.853 163.139 181.835 164.688 184.213L165.065 184.791L163.179 186.388C161.762 187.589 161.247 187.964 161.107 187.901C161.004 187.855 160.42 187.358 159.808 186.797C157.771 184.93 155.818 182.368 154.55 179.901C153.934 178.702 153.153 176.81 152.959 176.046L152.819 175.495L156.501 174.606L160.183 173.717L160.368 174.347ZM177.282 173.983L178.367 178.318L177.89 178.501C177.628 178.602 176.901 178.844 176.276 179.04C173.968 179.763 171.466 180.872 168.818 182.347C167.483 183.09 167.137 183.244 167.028 183.138C166.827 182.942 165.542 180.578 164.968 179.349C164.274 177.86 163.542 175.974 163.044 174.385L162.623 173.045L169.41 171.346L176.197 169.648L177.282 173.983ZM180.503 186.856L182.057 193.064L181.603 193.094C180.745 193.152 179.082 192.951 178.083 192.669C175.104 191.83 172.487 190.025 169.88 187.014C169.147 186.168 168.574 185.431 168.607 185.376C168.639 185.322 169.281 184.909 170.032 184.458C172.417 183.027 176.019 181.429 178.114 180.871L178.95 180.649L180.503 186.856ZM184.089 179.491C187.13 179.047 192.663 178.93 192.757 179.307C192.828 179.59 192.102 182.444 191.598 183.865C190.99 185.578 189.694 187.953 188.716 189.144C187.856 190.191 186.754 191.165 185.702 191.806C185.214 192.103 184.741 192.365 184.648 192.388C184.504 192.424 184.265 191.567 182.931 186.235L181.38 180.04L182.12 179.855C182.527 179.753 183.413 179.589 184.089 179.491ZM197.427 179.896C198.515 180.128 199.417 180.368 199.433 180.43C199.476 180.602 197.853 183.018 196.914 184.18C195.919 185.411 194.536 186.793 193.305 187.786C191.87 188.943 191.875 188.944 192.57 187.659C193.745 185.485 194.675 182.908 195.125 180.575C195.238 179.991 195.357 179.505 195.389 179.494C195.422 179.482 196.339 179.663 197.427 179.896ZM167.735 188.267C169.077 189.865 170.978 191.64 172.336 192.561C172.835 192.9 173.226 193.208 173.203 193.246C173.127 193.374 169.954 192.599 168.616 192.125C167.128 191.599 165.267 190.723 164.091 189.995L163.314 189.514L163.907 188.914C164.636 188.176 166.133 186.945 166.369 186.888C166.477 186.863 166.995 187.386 167.735 188.267Z" fill="#3E1BDB"/>
<path d="M1121.49 161.207C1120.67 159.926 1119.77 158.697 1118.78 157.528C1110.76 147.991 1100.26 143.955 1088.27 141.251C1075.89 138.459 1061.39 137.591 1049.51 142.624C1046.71 143.823 1044.05 145.405 1041.95 147.562C1033.99 155.689 1031.26 169.301 1022.4 180.06C1013.55 190.819 1009.23 204.222 1017.18 216.944C1020.54 222.332 1024.84 226.771 1029.91 230.678C1036.16 235.471 1041.56 241.957 1048.78 245.708C1056.37 249.648 1066.49 251.022 1074.89 249.217C1084.48 247.158 1090.1 238.97 1097.42 233.398C1103.19 228.997 1110.09 226.116 1115.74 221.577C1124.4 214.626 1130.97 203.443 1129.88 192.362C1128.81 181.606 1127.43 170.427 1121.49 161.207Z" fill="#F9F8FE"/>
<g opacity="0.5">
<path d="M1056.39 183.357L1056.45 183.185L1056.44 183.126L1063.39 164.033C1064.02 162.312 1064.1 160.816 1063.6 159.588C1063.08 158.345 1062.03 157.53 1060.7 157.047C1059.38 156.565 1058.06 156.515 1056.88 157.15C1055.72 157.774 1054.84 158.982 1054.22 160.696L1047.19 180.011C1046.57 181.711 1046.45 183.191 1046.93 184.413C1047.41 185.658 1048.46 186.468 1049.82 186.961C1051.17 187.453 1052.51 187.513 1053.7 186.889C1054.88 186.273 1055.76 185.068 1056.39 183.357ZM1062.28 222.867L1062.34 222.695L1062.34 222.636L1068.91 204.579C1070.23 200.944 1072.2 198.577 1074.63 197.411C1077.07 196.246 1080.12 196.215 1083.75 197.536C1087.38 198.857 1089.69 200.84 1090.81 203.298C1091.93 205.758 1091.91 208.834 1090.59 212.469L1083.93 230.748C1082.61 234.383 1080.65 236.751 1078.21 237.917C1075.78 239.082 1072.73 239.114 1069.09 237.791C1065.46 236.467 1063.15 234.486 1062.04 232.033C1060.93 229.576 1060.96 226.504 1062.28 222.867ZM1077.52 229.001L1077.65 228.654L1077.6 228.581L1084.48 209.687C1085.11 207.967 1085.19 206.47 1084.69 205.242C1084.17 203.999 1083.12 203.184 1081.79 202.702C1080.47 202.219 1079.14 202.165 1077.94 202.788C1076.77 203.404 1075.87 204.606 1075.25 206.327L1068.22 225.642C1067.6 227.345 1067.48 228.83 1067.97 230.056C1068.47 231.303 1069.54 232.117 1070.91 232.615C1072.28 233.115 1073.63 233.172 1074.83 232.543C1076.01 231.923 1076.9 230.712 1077.52 229.001ZM1041.18 177.166L1047.81 158.949C1049.14 155.307 1051.1 152.939 1053.53 151.775C1055.96 150.612 1059.01 150.582 1062.65 151.906C1066.29 153.23 1068.6 155.21 1069.72 157.665C1070.83 160.123 1070.81 163.197 1069.49 166.839L1062.86 185.056C1061.53 188.698 1059.57 191.066 1057.13 192.23C1054.7 193.394 1051.66 193.423 1048.02 192.099C1044.38 190.774 1042.06 188.805 1040.94 186.358C1039.83 183.907 1039.84 180.834 1041.18 177.166ZM1035.36 224.268L1090.28 163.079L1096.36 165.294L1041.42 226.474L1035.36 224.268Z" stroke="#3E1BDB" stroke-width="1.5"/>
</g>
<path d="M727.011 321.309C736.592 303.192 737.247 279.051 730.624 259.698C724.929 243.037 712.253 230.322 697.615 222.757C680.63 213.979 660.387 211.366 642.148 216.907C637.356 218.364 632.686 219.7 628.166 222.095C609.635 231.911 613.221 256.099 606.711 264.514C601.239 271.594 590.781 269.507 584.186 274.931C566.409 289.578 576.7 327.304 595.781 340.845C617.997 356.611 703.283 366.171 727.011 321.309Z" fill="#F9F8FE"/>
<path opacity="0.5" fill-rule="evenodd" clip-rule="evenodd" d="M626.813 245.131C622.826 245.843 619.359 247.715 616.672 250.607C614.605 252.832 613.264 255.288 612.441 258.36C611.899 260.381 611.847 264.541 612.34 266.506C613.199 269.937 614.701 272.562 617.242 275.078C619.69 277.501 622.286 278.961 625.64 279.801C627.604 280.293 631.766 280.242 633.786 279.7C637.231 278.777 639.469 277.487 641.974 274.984C644.474 272.484 645.757 270.26 646.696 266.798C647.282 264.639 647.288 260.632 646.708 258.409C645.844 255.099 644.381 252.534 641.998 250.151C639.639 247.793 637.029 246.296 633.821 245.463C632.181 245.037 628.355 244.856 626.813 245.131ZM631.829 248.08C639.708 249.298 645.249 256.759 644.101 264.603C642.568 275.086 630.884 280.611 621.92 275.091C614.275 270.383 612.568 260.14 618.271 253.191C621.499 249.257 626.719 247.289 631.829 248.08ZM628.095 250.894V252.443L627.114 252.892C625.859 253.467 624.865 254.465 624.256 255.763C623.593 257.176 623.587 259.293 624.242 260.649C625.177 262.589 626.942 263.775 629.28 264.037C630.799 264.207 631.181 264.374 631.837 265.154C633.592 267.239 631.65 270.363 628.919 269.851C627.983 269.675 627.021 268.757 626.762 267.792L626.548 266.991H625.094H623.641L623.771 267.858C624.052 269.734 625.366 271.466 627.114 272.266L628.095 272.716V274.264V275.813H629.566H631.037V274.264V272.716L632.018 272.266C633.273 271.692 634.267 270.694 634.876 269.396C635.539 267.983 635.545 265.866 634.89 264.509C633.955 262.57 632.19 261.384 629.852 261.121C628.333 260.951 627.951 260.784 627.295 260.005C625.54 257.92 627.482 254.795 630.213 255.308C631.149 255.483 632.111 256.402 632.37 257.367L632.584 258.168H634.04H635.496L635.372 257.387C635.06 255.423 633.771 253.694 632.018 252.892L631.037 252.443V250.894V249.345H629.566H628.095V250.894ZM657.512 253.73V255.227H658.386C659.79 255.227 663.722 255.742 665.418 256.148C676.125 258.712 684.748 265.677 689.423 275.537C690.859 278.565 692.061 282.63 692.518 286L692.615 286.722L691.833 285.954C691.403 285.532 690.969 285.187 690.868 285.187C690.628 285.187 688.951 286.889 688.951 287.133C688.951 287.235 690.013 288.37 691.311 289.653C694.428 292.737 694.138 292.737 697.255 289.653C698.553 288.37 699.615 287.229 699.615 287.119C699.615 286.877 697.925 285.187 697.683 285.187C697.589 285.187 697.082 285.611 696.557 286.13L695.602 287.073L695.477 285.992C694.855 280.593 692.659 274.467 689.741 269.982C687.718 266.874 684.622 263.389 681.781 261.023C675.675 255.937 667.764 252.845 659.612 252.358L657.512 252.232V253.73ZM638.842 279.205L638.391 279.656V290.517V301.379L638.842 301.83L639.294 302.281H657.512H675.73L676.181 301.83L676.633 301.379V290.517V279.656L676.181 279.205L675.73 278.754H657.512H639.294L638.842 279.205ZM673.691 290.517V299.34H657.512H641.333V290.517V281.695H657.512H673.691V290.517ZM644.726 285.087L644.274 285.538V290.517V295.497L644.726 295.948L645.177 296.399H657.512H669.847L670.298 295.948L670.749 295.497V290.517V285.538L670.298 285.087L669.847 284.636H657.512H645.177L644.726 285.087ZM652.27 287.898C651.907 288.769 651.629 289.909 651.629 290.517C651.629 291.126 651.907 292.265 652.27 293.137C652.393 293.434 652.208 293.458 649.81 293.458H647.216V290.517V287.577H649.81C652.208 287.577 652.393 287.601 652.27 287.898ZM658.675 287.827C660.564 288.616 661.025 291.092 659.556 292.561C657.49 294.626 654.105 292.776 654.649 289.879C654.974 288.149 656.988 287.122 658.675 287.827ZM667.808 290.517V293.458H665.214C662.816 293.458 662.631 293.434 662.754 293.137C663.116 292.265 663.395 291.126 663.395 290.517C663.395 289.909 663.116 288.769 662.754 287.898C662.631 287.601 662.816 287.577 665.214 287.577H667.808V290.517ZM617.769 291.382C616.471 292.665 615.409 293.768 615.409 293.832C615.409 293.98 617.254 295.848 617.401 295.848C617.462 295.848 617.942 295.424 618.467 294.905L619.422 293.962L619.546 295.043C619.891 298.028 620.825 301.657 622.037 304.719C623.852 309.302 626.472 313.305 630.11 317.051C636.968 324.113 645.55 328.044 655.48 328.672L657.512 328.801V327.304V325.808H656.677C656.218 325.808 655.039 325.72 654.057 325.613C641.492 324.245 630.959 316.799 625.6 305.497C624.165 302.47 622.963 298.404 622.506 295.035L622.408 294.313L623.19 295.081C623.621 295.503 624.022 295.848 624.082 295.848C624.228 295.848 626.073 293.979 626.073 293.832C626.073 293.768 625.011 292.665 623.713 291.382C621.641 289.332 621.278 289.047 620.741 289.047C620.204 289.047 619.841 289.332 617.769 291.382ZM682.831 301.011C680.475 301.356 677.485 302.543 675.357 303.98C673.86 304.99 671.274 307.778 670.365 309.359C668.479 312.643 667.902 314.783 667.915 318.456C667.929 322.229 668.644 324.799 670.524 327.83C671.597 329.558 674.114 332.121 675.817 333.216C678.838 335.161 681.774 336.001 685.55 336C689.134 335.999 691.318 335.404 694.556 333.544C696.561 332.392 699.398 329.556 700.55 327.551C702.423 324.293 703 322.152 703 318.456C703 314.757 702.409 312.556 700.556 309.363C699.412 307.391 696.729 304.683 694.672 303.425C691.188 301.293 686.89 300.417 682.831 301.011ZM688.954 304.183C690.788 304.683 692.042 305.23 693.425 306.133C701.26 311.246 702.43 322.163 695.855 328.812C689.313 335.426 678.252 334.263 673.132 326.421C671.497 323.918 670.849 321.657 670.849 318.456C670.849 315.262 671.499 312.988 673.118 310.514C675.307 307.167 678.707 304.862 682.7 304.015C684.174 303.703 687.523 303.792 688.954 304.183ZM683.987 306.692V308.163H682.232C680.614 308.163 680.442 308.198 680.026 308.614L679.574 309.065V318.456V327.846L680.026 328.297C680.442 328.713 680.614 328.749 682.232 328.749H683.987V330.219V331.689H685.458H686.929V330.242V328.795L688.445 328.709C690.915 328.57 692.713 327.427 693.73 325.348C694.392 323.996 694.38 321.88 693.702 320.477C693.433 319.921 693.014 319.227 692.77 318.935L692.327 318.403L692.779 317.924C693.028 317.66 693.447 316.99 693.711 316.434C694.106 315.601 694.19 315.164 694.185 313.952C694.179 312.637 694.113 312.359 693.554 311.319C692.473 309.306 690.921 308.361 688.445 308.206L686.929 308.111V306.666V305.222H685.458H683.987V306.692ZM689.984 311.574C690.948 312.295 691.249 312.882 691.249 314.044C691.249 315.206 690.948 315.794 689.984 316.514C689.521 316.86 689.175 316.898 685.996 316.95L682.516 317.007V314.044V311.081L685.996 311.138C689.175 311.19 689.521 311.228 689.984 311.574ZM689.984 320.397C690.948 321.118 691.249 321.705 691.249 322.867C691.249 324.029 690.948 324.616 689.984 325.337C689.521 325.683 689.175 325.721 685.996 325.773L682.516 325.83V322.867V319.904L685.996 319.961C689.175 320.013 689.521 320.051 689.984 320.397Z" fill="#3E1BDB"/>
</svg>
