<svg width="371" height="356" viewBox="0 0 371 356" fill="none" xmlns="http://www.w3.org/2000/svg">
<g opacity="0.25">
<path d="M325.214 204.154C325.214 154.168 284.948 113.673 235.305 113.673C185.662 113.673 145.397 154.194 145.397 204.154C145.397 254.113 185.662 294.634 235.305 294.634C284.948 294.634 325.214 254.139 325.214 204.154ZM163.348 204.154C163.348 164.181 195.56 131.764 235.279 131.764C274.999 131.764 307.211 164.181 307.211 204.154C307.211 244.126 274.999 276.543 235.279 276.543C195.56 276.543 163.348 244.152 163.348 204.154Z" fill="#323247"/>
<path d="M163.348 204.154C163.348 164.181 195.56 131.764 235.279 131.764C274.999 131.764 307.211 164.181 307.211 204.154C307.211 244.126 274.999 276.544 235.279 276.544M235.305 294.661C284.974 294.661 325.214 254.139 325.214 204.18L235.305 294.661ZM235.305 113.673C185.636 113.673 145.397 154.194 145.397 204.154C145.397 233.748 159.529 260.047 181.376 276.544L235.305 113.673Z" stroke="#FFDE3B" stroke-opacity="0.5" stroke-width="0.8412" stroke-miterlimit="10" stroke-linecap="round" stroke-linejoin="round"/>
<path d="M28.991 338.585L1.71661e-05 321.723L1.56931e-05 355.421L28.991 338.585Z" fill="#FAFF00"/>
<path d="M142.405 338.585L113.414 321.723L113.414 355.421L142.405 338.585Z" fill="#FAFF00"/>
<path d="M359.842 51.2467L369.999 41.0248L355.166 26.1233L369.999 11.2218L359.842 1L345.008 15.9014L330.201 0.999999L320.044 11.2218L334.851 26.1233L320.044 41.0248L330.201 51.2467L345.008 36.3452L359.842 51.2467Z" stroke="#8F9294" stroke-width="0.8412" stroke-miterlimit="10" stroke-linecap="round" stroke-linejoin="round"/>
<path d="M267.259 51.2467L277.416 41.0248L262.609 26.1233L277.416 11.2218L267.259 1L252.426 15.9014L237.619 0.999999L227.461 11.2218L242.268 26.1233L227.461 41.0248L237.619 51.2467L252.426 36.3452L267.259 51.2467Z" stroke="#8F9294" stroke-width="0.8412" stroke-miterlimit="10" stroke-linecap="round" stroke-linejoin="round"/>
<path d="M174.677 51.2467L184.835 41.0248L170.028 26.1233L184.835 11.2218L174.677 1L159.87 15.9014L145.037 0.999999L134.88 11.2218L149.713 26.1233L134.88 41.0248L145.037 51.2467L159.87 36.3452L174.677 51.2467Z" stroke="#8F9294" stroke-width="0.8412" stroke-miterlimit="10" stroke-linecap="round" stroke-linejoin="round"/>
</g>
</svg>
