<svg width="288" height="301" viewBox="0 0 288 301" fill="none" xmlns="http://www.w3.org/2000/svg">
<g opacity="0.25">
<path d="M165.511 37.2671C125.034 37.2671 92.2422 69.8728 92.2422 110.073C92.2422 150.272 125.056 182.878 165.511 182.878C205.967 182.878 238.78 150.272 238.78 110.073C238.78 69.8728 205.988 37.2671 165.511 37.2671ZM165.511 168.342C133.142 168.342 106.892 142.258 106.892 110.094C106.892 77.9296 133.142 51.845 165.511 51.845C197.88 51.845 224.131 77.9296 224.131 110.094C224.131 142.258 197.901 168.342 165.511 168.342Z" fill="#323247"/>
<path d="M165.511 168.342C133.143 168.342 106.892 142.258 106.892 110.094C106.892 77.9296 133.143 51.845 165.511 51.845C197.88 51.845 224.131 77.9296 224.131 110.094M238.802 110.073C238.802 69.8518 205.988 37.2671 165.533 37.2671L238.802 110.073ZM92.2422 110.073C92.2422 150.293 125.056 182.878 165.511 182.878C189.476 182.878 210.773 171.434 224.131 153.743L92.2422 110.073Z" stroke="#FFDE3B" stroke-opacity="0.5" stroke-width="0.8412" stroke-miterlimit="10" stroke-linecap="round" stroke-linejoin="round"/>
<path d="M274.366 277.141L260.711 300.617H287.999L274.366 277.141Z" fill="#FAFF00"/>
<path d="M274.366 185.298L260.711 208.775H287.999L274.366 185.298Z" fill="#FAFF00"/>
<path d="M41.6885 9.22506L33.4111 1L21.3443 13.0115L9.27738 1L1 9.22506L13.0668 21.2366L1 33.227L9.27738 41.4521L21.3443 29.4616L33.4111 41.4521L41.6885 33.227L29.6216 21.2366L41.6885 9.22506Z" stroke="#8F9294" stroke-width="0.8412" stroke-miterlimit="10" stroke-linecap="round" stroke-linejoin="round"/>
<path d="M41.6885 84.1963L33.4111 75.9712L21.3443 87.9617L9.27738 75.9712L1 84.1963L13.0668 96.2078L1 108.198L9.27738 116.423L21.3443 104.433L33.4111 116.423L41.6885 108.198L29.6216 96.2078L41.6885 84.1963Z" stroke="#8F9294" stroke-width="0.8412" stroke-miterlimit="10" stroke-linecap="round" stroke-linejoin="round"/>
<path d="M41.6885 159.168L33.4111 150.943L21.3443 162.933L9.27738 150.943L1 159.168L13.0668 171.158L1 183.17L9.27738 191.395L21.3443 179.384L33.4111 191.395L41.6885 183.17L29.6216 171.158L41.6885 159.168Z" stroke="#8F9294" stroke-width="0.8412" stroke-miterlimit="10" stroke-linecap="round" stroke-linejoin="round"/>
</g>
</svg>
