<svg width="555" height="718" viewBox="0 0 555 718" fill="none" xmlns="http://www.w3.org/2000/svg">
<g opacity="0.3">
<path d="M280.854 380.043L491.979 597.454L266.85 616.607L55.7261 399.196L280.854 380.043Z" stroke="#8F9294" stroke-width="0.8412" stroke-miterlimit="10" stroke-linecap="round" stroke-linejoin="round"/>
<path d="M280.854 380.043L491.979 597.454L266.85 616.607L55.7261 399.196L280.854 380.043Z" stroke="#8F9294" stroke-width="0.8412" stroke-miterlimit="10" stroke-linecap="round" stroke-linejoin="round"/>
<path d="M441.79 94.4186L652.876 311.819L427.786 330.982L216.662 113.572L441.79 94.4186Z" stroke="#8F9294" stroke-width="0.8412" stroke-miterlimit="10" stroke-linecap="round" stroke-linejoin="round"/>
<path d="M441.79 94.4186L652.876 311.819L427.786 330.982L216.662 113.572L441.79 94.4186Z" stroke="#8F9294" stroke-width="0.8412" stroke-miterlimit="10" stroke-linecap="round" stroke-linejoin="round"/>
<path d="M445.114 95.8719L653.331 309.696L489.194 601.014L280.94 387.181L445.114 95.8719Z" stroke="#8F9294" stroke-width="0.8412" stroke-miterlimit="10" stroke-linecap="round" stroke-linejoin="round"/>
<path d="M445.114 95.8719L653.331 309.696L489.194 601.014L280.94 387.181L445.114 95.8719Z" stroke="#8F9294" stroke-width="0.8412" stroke-miterlimit="10" stroke-linecap="round" stroke-linejoin="round"/>
<path d="M427.706 323.843L263.532 615.152L55.2773 401.318L219.452 110.009L427.706 323.843Z" stroke="#8F9294" stroke-width="0.8412" stroke-miterlimit="10" stroke-linecap="round" stroke-linejoin="round"/>
<path d="M427.706 323.843L263.532 615.152L55.2773 401.318L219.452 110.009L427.706 323.843Z" stroke="#8F9294" stroke-width="0.8412" stroke-miterlimit="10" stroke-linecap="round" stroke-linejoin="round"/>
<path d="M217.139 111.001L439.476 92.0261L275.213 383.448L52.8766 402.423L217.139 111.001Z" stroke="#8F9294" stroke-width="0.8412" stroke-miterlimit="10" stroke-linecap="round" stroke-linejoin="round"/>
<path d="M217.139 111.001L439.476 92.0261L275.213 383.448L52.8766 402.423L217.139 111.001Z" stroke="#8F9294" stroke-width="0.8412" stroke-miterlimit="10" stroke-linecap="round" stroke-linejoin="round"/>
<path d="M655.724 308.596L491.499 600.027L269.162 619.002L433.424 327.58L655.724 308.596Z" fill="#FAFF00" stroke="#FAFF00" stroke-width="0.8412" stroke-miterlimit="10" stroke-linecap="round" stroke-linejoin="round"/>
<path d="M655.724 308.596L491.499 600.027L269.162 619.002L433.424 327.58L655.724 308.596Z" fill="#FAFF00" stroke="#FAFF00" stroke-width="0.8412" stroke-miterlimit="10" stroke-linecap="round" stroke-linejoin="round"/>
<path d="M458.141 102.015C455.412 112.198 445.1 118.266 435.084 115.582C425.068 112.898 419.171 102.487 421.9 92.3044C424.628 82.1216 434.94 76.0537 444.956 78.7374C454.972 81.4212 460.869 91.8323 458.141 102.015Z" fill="#3E1BDB"/>
<path opacity="0.57" d="M678.722 379.64L534.205 636.088L331.58 648.819L476.107 392.331L678.722 379.64Z" fill="#323247"/>
</g>
</svg>
