<svg width="1032" height="422" viewBox="0 0 1032 422" fill="none" xmlns="http://www.w3.org/2000/svg">
<path fill-rule="evenodd" clip-rule="evenodd" d="M414.617 216.461V225.491H416.033H417.449V216.461V207.431H416.033H414.617V216.461ZM507.524 216.461V225.491H508.94H510.356V216.461V207.431H508.94H507.524V216.461ZM432.431 212.228C431.739 212.376 430.528 212.95 430.024 213.369C429.284 213.984 428.674 214.997 428.534 215.845L428.492 216.096H430.004H431.515L431.639 215.8C431.825 215.358 432.441 214.85 432.99 214.687C433.612 214.503 434.906 214.504 435.529 214.688C435.862 214.787 436.134 214.954 436.407 215.227C437.038 215.857 437.09 216.149 437.09 219.069V221.552L436.456 222.138C435.062 223.427 433.185 223.892 431.794 223.294C430.498 222.738 430.201 221.193 431.203 220.229C431.422 220.019 431.757 219.804 431.948 219.751C432.138 219.698 432.942 219.654 433.733 219.654L435.172 219.654V218.641V217.628L433.276 217.67C431.246 217.714 430.758 217.797 429.826 218.252C429.139 218.588 428.438 219.305 428.099 220.018C427.833 220.579 427.818 220.671 427.819 221.706C427.82 222.645 427.852 222.878 428.039 223.348C428.322 224.055 429.236 224.988 429.994 225.344C431.786 226.186 434.221 225.943 436.11 224.734C436.4 224.549 436.739 224.397 436.864 224.397C437.08 224.397 437.09 224.422 437.09 224.944V225.491H438.512H439.934L439.902 220.589C439.872 215.886 439.862 215.662 439.677 215.116C439.433 214.394 439.001 213.719 438.518 213.306C437.965 212.833 436.962 212.373 436.146 212.218C435.254 212.049 433.242 212.055 432.431 212.228ZM446.049 212.224C444.123 212.641 442.677 214.026 442.487 215.635C442.29 217.31 442.944 218.595 444.341 219.272C445.064 219.623 445.848 219.792 447.593 219.973C449.839 220.207 450.316 220.367 450.57 220.975C450.849 221.64 450.681 222.331 450.124 222.82C449.699 223.193 449.308 223.305 448.222 223.367C446.995 223.437 446.208 223.202 445.588 222.583C445.349 222.344 445.098 221.998 445.031 221.813L444.91 221.478H443.467C441.802 221.478 441.88 221.42 442.213 222.416C442.466 223.172 442.843 223.743 443.474 224.326C444.569 225.339 445.8 225.764 447.779 225.814C448.845 225.841 449.126 225.816 449.856 225.628C450.321 225.509 450.957 225.276 451.271 225.109C451.998 224.724 452.778 223.946 453.099 223.284C453.616 222.222 453.627 220.739 453.127 219.753C452.898 219.303 452.182 218.577 451.744 218.35C451.17 218.054 450.125 217.829 448.483 217.648C446.82 217.466 446.135 217.315 445.713 217.039C445.468 216.879 445.221 216.385 445.221 216.056C445.221 215.733 445.526 215.153 445.817 214.925C446.482 214.403 448.096 214.256 449.073 214.629C449.661 214.854 450.191 215.369 450.289 215.812L450.351 216.096H451.718H453.085L453.028 215.754C452.715 213.891 451.512 212.675 449.542 212.231C448.729 212.048 446.881 212.044 446.049 212.224ZM461.291 212.214C460.614 212.401 459.77 212.899 459.247 213.421C458.967 213.701 458.679 213.907 458.568 213.907C458.387 213.907 458.376 213.859 458.376 213.132V212.356H456.96H455.544V221.25V230.143H456.957H458.37L458.396 223.781L458.421 217.419L458.629 216.917C458.921 216.213 459.269 215.743 459.795 215.345C460.476 214.83 460.995 214.682 462.123 214.682C463.025 214.682 463.122 214.701 463.694 214.982C465.089 215.668 465.774 217.159 465.649 219.244C465.561 220.719 465.104 221.735 464.265 222.318C463.66 222.738 463.116 222.86 461.596 222.913L460.203 222.962V224.227V225.491H461.787C463.053 225.491 463.509 225.456 464.06 225.315C466.062 224.804 467.545 223.405 468.134 221.472C468.746 219.465 468.534 216.711 467.635 214.98C466.953 213.667 465.592 212.58 464.18 212.221C463.521 212.053 461.889 212.05 461.291 212.214ZM474.925 212.261C473.799 212.537 472.961 213.018 472.07 213.903C471.44 214.527 471.208 214.837 470.902 215.458C470.062 217.161 469.916 219.64 470.541 221.569C471.127 223.377 472.69 224.951 474.438 225.493C476.044 225.991 477.647 225.96 479.134 225.402C479.858 225.131 480.893 224.366 481.421 223.713C481.83 223.207 482.403 222.168 482.539 221.683L482.597 221.478H481.189H479.782L479.678 221.706C479.475 222.15 478.841 222.729 478.268 222.993C477.743 223.235 477.612 223.257 476.644 223.257C475.639 223.257 475.564 223.243 474.982 222.957C473.629 222.292 472.955 220.949 472.959 218.924C472.962 216.898 473.701 215.481 475.093 214.827C475.546 214.614 475.703 214.591 476.692 214.591C477.651 214.591 477.848 214.618 478.27 214.808C478.987 215.132 479.611 215.857 479.851 216.646C480.165 217.68 480.371 217.598 477.399 217.626L474.819 217.65V218.652V219.654H478.793H482.767L482.766 218.627C482.766 218.063 482.723 217.337 482.67 217.014C482.279 214.608 480.703 212.846 478.418 212.263C477.496 212.027 475.881 212.026 474.925 212.261ZM490.617 212.207C490.006 212.372 489.422 212.745 488.944 213.276C488.712 213.534 488.522 213.781 488.522 213.826C488.522 213.87 488.399 213.907 488.248 213.907H487.974V213.132V212.356H486.558H485.142V218.924V225.491H486.553H487.964L487.995 221.501C488.024 217.667 488.033 217.486 488.228 216.908C488.733 215.402 489.825 214.822 492.154 214.82L493.09 214.819V213.451V212.083L492.062 212.089C491.497 212.092 490.847 212.146 490.617 212.207ZM498.028 212.23C497.18 212.415 496.16 212.949 495.586 213.508C494.897 214.18 494.546 214.959 494.483 215.952C494.387 217.493 494.987 218.581 496.292 219.233C497.075 219.624 497.844 219.794 499.667 219.976C501.45 220.155 501.994 220.292 502.356 220.654C502.617 220.915 502.636 220.979 502.636 221.594C502.636 222.426 502.426 222.762 501.686 223.109C501.22 223.327 501.074 223.348 500.033 223.348C499.037 223.348 498.833 223.321 498.439 223.14C497.744 222.82 497.42 222.528 497.152 221.98L496.905 221.478H495.447H493.989L494.052 221.774C494.086 221.937 494.192 222.294 494.286 222.567C495.033 224.719 497.502 226.018 500.477 225.824C502.78 225.674 504.349 224.799 505.126 223.229C505.462 222.549 505.468 222.517 505.468 221.481C505.468 220.472 505.455 220.399 505.168 219.815C504.709 218.885 503.903 218.28 502.721 217.978C502.423 217.902 501.44 217.757 500.535 217.656C498.582 217.437 498.006 217.283 497.594 216.872C497.324 216.602 497.292 216.516 497.292 216.058C497.292 215.583 497.321 215.514 497.67 215.135C498.133 214.635 498.754 214.423 499.759 214.426C501.185 214.429 502.047 214.932 502.354 215.937C502.397 216.079 502.545 216.096 503.73 216.096C505.247 216.096 505.178 216.146 504.932 215.226C504.742 214.511 504.517 214.108 503.994 213.544C503.416 212.921 502.48 212.415 501.54 212.219C500.734 212.051 498.82 212.057 498.028 212.23ZM422.245 213.692C421.693 214.422 420.757 215.649 420.167 216.419L419.094 217.82V218.704V219.588L420.481 221.513C421.244 222.573 422.2 223.901 422.605 224.465L423.341 225.49L425.054 225.491C425.996 225.491 426.767 225.473 426.767 225.45C426.767 225.411 424.751 222.663 422.73 219.946C422.194 219.226 421.854 218.689 421.893 218.624C421.948 218.529 422.829 217.376 424.485 215.23C424.718 214.929 425.308 214.159 425.797 213.519L426.685 212.356L424.968 212.361L423.25 212.366L422.245 213.692ZM514.851 214.077C514.133 215.024 513.199 216.245 512.775 216.791L512.004 217.784L512.002 218.701L512 219.618L512.663 220.538C513.027 221.043 513.979 222.365 514.779 223.474L516.234 225.491H517.954C518.9 225.491 519.674 225.479 519.674 225.463C519.674 225.433 519.063 224.599 516.362 220.938C515.47 219.729 514.741 218.721 514.741 218.698C514.741 218.657 519.205 212.824 519.472 212.516C519.604 212.365 519.521 212.356 517.883 212.356H516.156L514.851 214.077ZM520.405 212.395C520.405 212.417 520.594 212.838 520.826 213.33C521.315 214.371 522.805 217.561 523.694 219.471C524.032 220.199 524.664 221.547 525.098 222.468C525.531 223.388 525.886 224.179 525.886 224.224C525.886 224.27 525.29 225.6 524.561 227.18C523.833 228.761 523.237 230.074 523.237 230.099C523.237 230.123 523.894 230.143 524.697 230.143H526.157L526.4 229.665C526.534 229.401 526.858 228.714 527.119 228.137C527.539 227.212 528.692 224.715 530.363 221.113C530.654 220.486 531.242 219.214 531.669 218.285C532.097 217.357 532.882 215.659 533.414 214.511C533.946 213.363 534.382 212.409 534.382 212.39C534.382 212.372 533.691 212.356 532.846 212.356H531.311L530.454 214.249C528.531 218.499 528.27 219.095 527.986 219.882C527.823 220.333 527.676 220.754 527.658 220.817C527.641 220.879 527.527 220.931 527.404 220.931C527.208 220.931 527.154 220.853 526.978 220.315C526.866 219.976 526.387 218.837 525.912 217.784C525.436 216.73 524.789 215.293 524.472 214.591C524.156 213.889 523.805 213.099 523.692 212.835L523.488 212.356H521.947C521.099 212.356 520.405 212.374 520.405 212.395Z" fill="#8A86B2"/>
<path fill-rule="evenodd" clip-rule="evenodd" d="M84.3845 183.892C70.9187 188.384 63.3733 196.7 62.4745 208.038C62.2545 210.813 62.6534 211.876 64.0804 212.318C64.716 212.515 78.1159 211.786 80.0172 211.451C80.8865 211.298 81.6567 209.817 81.8859 207.856C82.1324 205.748 83.1946 203.154 84.3236 201.901C86.1972 199.822 88.9849 198.334 92.0026 197.802C97.4439 196.844 101.449 198.769 103.248 203.207C103.531 203.905 104.057 206.143 104.417 208.182L105.072 211.889L104.281 212.163C103.847 212.314 101.664 212.941 99.4301 213.556C85.8002 217.311 78.6705 220.596 73.5346 225.486C72.8055 226.18 71.3761 227.95 70.358 229.419C66.3435 235.214 65.1616 242.08 66.8954 249.532C68.7831 257.644 73.0923 263.082 79.5929 265.555C83.7553 267.138 87.6095 267.355 93.3942 266.334C102.904 264.654 108.219 261.31 114.133 253.284C114.822 252.349 115.318 251.881 115.46 252.031C118.527 255.284 122.979 258.813 125.22 259.767C126.138 260.159 127.822 259.877 128.533 259.213C129.046 258.733 136.807 249.56 138.399 247.551C139.141 246.615 139.317 245.71 138.927 244.841C138.79 244.536 137.697 243.372 136.499 242.256C135.301 241.139 133.793 239.51 133.148 238.636C130.745 235.38 130.974 236.264 127.083 215.216L123.571 196.219L122.465 193.874C118.636 185.759 111.514 181.774 100.237 181.437C96.9122 181.338 87.8215 182.746 84.3845 183.892ZM107.968 228.292C108.901 233.571 109.057 236.408 108.556 238.96C107.233 245.696 103.361 249.904 97.8796 250.562C95.4858 250.85 93.7893 250.456 91.9437 249.186C88.0051 246.475 86.2617 239.091 88.3682 234.045C90.51 228.915 95.6457 225.902 106.289 223.531L107.096 223.351L107.968 228.292Z" fill="#8A86B2"/>
<path d="M514.65 289.406H432.954L392.109 218.868L432.954 148.33H514.65L555.495 218.868L514.65 289.406ZM434.886 286.073H512.718L551.637 218.868L512.718 151.663H434.886L395.967 218.868L434.886 286.073Z" fill="#8A86B2"/>
<path d="M832.095 209.218H733.396L684.051 123.999L733.396 38.7808H832.095L881.441 123.999L832.095 209.218ZM735.731 205.191H829.761L876.78 123.999L829.761 42.8073H735.731L688.712 123.999L735.731 205.191Z" fill="#8A86B2"/>
<path d="M577.53 119.288H508.451L473.914 59.6439L508.451 0H577.53L612.066 59.6439L577.53 119.288ZM510.085 116.47H575.896L608.804 59.6439L575.896 2.81818H510.085L477.176 59.6439L510.085 116.47Z" fill="#8A86B2"/>
<path d="M996.177 277.228H924.52L888.695 215.359L924.52 153.49H996.177L1032 215.359L996.177 277.228ZM926.215 274.305H994.482L1028.62 215.359L994.482 156.413H926.215L892.079 215.359L926.215 274.305Z" fill="#8A86B2"/>
<path d="M319.235 300.128H278.387L257.965 264.859L278.387 229.59H319.235L339.658 264.859L319.235 300.128ZM279.353 298.461H318.269L337.729 264.859L318.269 231.256H279.353L259.894 264.859L279.353 298.461Z" fill="#8A86B2"/>
<path d="M667.145 308.788H609.33L580.426 258.87L609.33 208.953H667.145L696.049 258.87L667.145 308.788ZM610.698 306.429H665.777L693.319 258.87L665.777 211.311H610.698L583.156 258.87L610.698 306.429Z" fill="#8A86B2"/>
<path d="M863.9 421.954H765.201L715.855 336.735L765.201 251.517H863.9L913.245 336.735L863.9 421.954ZM767.535 417.927H861.565L908.585 336.735L861.565 255.543H767.535L720.516 336.735L767.535 417.927Z" fill="#8A86B2"/>
<path d="M148.044 308.449H49.3454L0 223.23L49.3454 138.012H148.044L197.39 223.23L148.044 308.449ZM51.6798 304.422H145.71L192.729 223.23L145.71 142.038H51.6798L4.66072 223.23L51.6798 304.422Z" fill="#8A86B2"/>
<path d="M346.029 201.885H247.33L197.984 116.667L247.33 31.4481H346.029L395.374 116.667L346.029 201.885ZM249.664 197.858H343.694L390.713 116.667L343.694 35.4747H249.664L202.645 116.667L249.664 197.858Z" fill="#8A86B2"/>
<path d="M314.354 120.25C313.683 120.331 312.48 120.895 311.93 121.877C311.518 122.61 311.761 123.568 312.496 123.987C312.738 124.124 313.005 124.188 313.263 124.188C313.788 124.188 314.289 123.923 314.572 123.423C314.62 123.375 314.766 123.286 314.741 123.278C315.581 123.174 316.179 122.409 316.074 121.571C315.961 120.742 315.194 120.146 314.354 120.25Z" fill="#FFDE3B"/>
<path d="M281.447 116.346C281.439 116.184 281.447 116.006 281.504 115.829C281.447 115.998 281.431 116.176 281.447 116.346Z" fill="#FFDE3B"/>
<path d="M281.447 116.346C281.439 116.184 281.447 116.006 281.504 115.829C281.447 115.998 281.431 116.176 281.447 116.346Z" fill="#FFDE3B"/>
<path d="M281.462 116.42C281.462 116.395 281.445 116.37 281.445 116.345C281.445 116.37 281.454 116.395 281.462 116.42Z" fill="#FFDE3B"/>
<path d="M281.462 116.42C281.462 116.395 281.445 116.37 281.445 116.345C281.445 116.37 281.454 116.395 281.462 116.42Z" fill="#FFDE3B"/>
<path d="M359.759 143.733C356.633 143.532 354.355 141.405 353.733 140.761C352.917 139.916 350.446 136.324 348.458 133.441C346.891 131.17 345.543 129.205 344.872 128.367C343.636 126.829 341.431 120.169 340.963 117.802C340.874 117.359 340.833 116.835 340.825 116.28C343.16 115.466 347.53 115.297 348.628 115.499C349.492 115.652 350.341 116.207 351.665 117.488C352.756 118.535 353.677 118.873 354.509 118.873C355.114 118.873 355.672 118.696 356.213 118.486C357.085 118.148 357.885 117.198 358.426 116.417C359.484 116.32 360.486 115.724 361.358 115.096C362.796 114.049 362.958 112.334 361.843 109.998C361.617 109.523 361.334 108.887 361.019 108.194C360.68 107.429 360.3 106.6 359.929 105.803C359.169 104.192 358.45 102.976 357.376 102.259C357.158 102.114 356.504 101.526 355.987 101.059C355.615 100.729 355.219 100.375 354.84 100.036C354.945 99.7465 355.025 99.4566 355.05 99.1587C355.106 98.3936 354.864 97.693 354.347 97.1454C353.927 96.6944 353.143 96.179 351.794 96.2193C351.092 96.2434 350.308 96.4447 349.533 96.7588C347.521 96.2112 344.21 96.2193 343.079 96.2676C342.328 96.3078 341.108 96.3401 339.799 96.3803C337.764 96.4447 335.454 96.5172 334.307 96.6058C332.586 96.7427 330.446 96.6783 329.622 96.5816C328.943 96.5011 328.232 96.3401 327.489 96.1629C326.157 95.8569 324.638 95.4945 322.885 95.5508C320.195 95.6153 317.546 97.242 316.278 98.0232L316.003 98.1923C315.494 98.4902 312.974 98.8687 310.179 98.8043C306.544 98.7157 296.456 98.0393 293.556 97.7252C292.788 97.6447 291.674 97.4192 290.389 97.1615C286.916 96.4609 282.166 95.5106 277.764 95.9454C272.692 96.4447 267.708 97.7735 262.966 99.8996L261.876 100.399C258.394 101.985 253.613 104.16 248.621 103.789C244.372 103.467 237.191 101.236 237.191 94.8583C237.191 91.4518 241.133 89.6962 242.821 89.6962C245.47 89.6962 247.853 91.79 248.063 92.3699C248.063 93.4651 247.837 94.1899 247.659 94.7697C247.409 95.5831 247.029 96.8152 248.168 97.8782C249.081 98.7238 251.044 99.1667 252.74 98.4258C254.138 97.8218 255.793 96.2837 255.793 92.3699C255.793 85.3233 248.088 82.0457 242.878 82.0457C237.498 82.0457 229.703 86.6118 229.703 94.8583C229.703 103.201 235.26 109.394 244.194 111.021C250.511 112.173 254.743 111.601 257.789 110.538C256.916 113.268 255.616 117.117 254.517 119.533C252.659 123.608 247.999 129.35 247.264 129.922C247.07 130.051 246.844 130.187 246.601 130.324C245.527 130.961 244.194 131.75 243.766 133.095C243.491 133.972 240.26 141.865 239.081 144.691C237.991 147.308 239.065 148.766 239.929 149.942C240.123 150.208 240.341 150.489 240.543 150.812C241.569 152.438 243.483 153.107 245.123 153.107C245.826 153.107 246.488 152.978 247.005 152.752C248.968 151.883 248.798 149.112 248.419 147.977C248.193 147.317 247.651 146.866 246.965 146.294C246.779 146.141 246.512 145.915 246.319 145.73C246.852 144.425 248.718 141.236 249.218 140.721C249.832 140.165 252.821 138.136 255.204 136.783C257.684 135.382 263.281 131.718 265.955 129.809C267.457 128.738 268.847 127.554 269.84 126.66C270.866 128.48 271.367 129.753 271.399 130.171C271.746 136.34 271.496 137.661 271.44 137.862C271.375 138.104 271.278 138.337 271.181 138.579C270.672 139.835 269.808 141.937 272.247 144.578C273.33 145.746 279.307 151.786 281.682 152.301C281.73 152.309 284.945 152.881 287.885 152.881C289.856 152.881 291.714 152.624 292.409 151.77C293.16 150.852 293.289 149.539 292.764 148.339C292.15 146.946 290.817 146.06 289.202 145.964C288.451 145.915 287.796 145.98 287.215 146.036C285.995 146.157 285.325 146.221 284.267 145.352C283.604 144.804 281.835 143.354 281.714 142.928C281.973 141.824 284.057 133.908 284.8 131.879C284.905 131.581 285.05 131.218 285.204 130.816C285.882 129.044 286.544 127.24 287.013 125.541C288.903 126.056 292.271 126.837 296.092 127.143C299.921 127.449 302.699 127.127 304.937 126.878C305.26 126.837 305.551 126.813 305.85 126.781C305.438 128.488 304.888 130.912 304.687 132.7C304.517 134.158 304.396 136.38 304.291 138.337C304.21 139.908 304.097 141.865 304.032 142.195C303.693 143.201 304.194 144.168 304.678 145.11C304.84 145.432 305.115 145.964 305.147 146.149C305.195 146.584 305.793 149.894 306.811 150.836C307.716 151.665 311.181 152.068 312.78 152.068C313.006 152.068 313.192 152.06 313.329 152.044C315.527 151.802 317.174 150.191 316.989 148.452L316.972 148.235C316.9 147.437 316.738 145.577 313.976 145.408C313.564 145.384 313.192 145.384 312.869 145.384C312.756 145.384 312.635 145.384 312.522 145.384C312.473 145.247 312.417 145.102 312.368 144.949C312.086 144.184 311.827 143.451 311.964 142.815C312.231 141.623 314.234 136.171 315.252 133.747C316.011 131.951 317.796 128.464 318.572 126.982C318.959 126.934 319.355 126.878 319.735 126.829C320.607 126.725 321.423 126.62 322.142 126.483C323.241 126.282 324.484 125.839 325.365 125.484C327.271 127.852 330.583 131.315 332.053 132.442C332.934 133.119 334.573 134.689 336.156 136.203C337.877 137.854 339.509 139.416 340.397 140.053L341.051 140.52C344.395 142.879 346.237 144.425 346.536 145.102C347.473 147.22 352.748 151.013 354.783 151.351C354.807 151.359 356.213 151.552 357.877 151.552C360.171 151.552 362.982 151.182 363.475 149.418C363.798 148.275 363.975 146.632 363.038 145.319C362.538 144.667 361.584 143.854 359.759 143.733ZM238.281 87.997C238.257 87.4655 237.95 87.0145 237.514 86.7649C239.016 85.8388 240.632 85.2911 242.005 85.1301V85.2348C242.005 85.8468 242.369 86.3703 242.894 86.6119C242.853 86.6119 242.813 86.6038 242.773 86.6038C241.383 86.6118 239.752 87.1031 238.281 87.997ZM252.684 92.3457C252.684 94.0127 252.296 95.1482 251.585 95.5428C251.222 95.7441 250.81 95.7361 250.527 95.7039C250.535 95.6878 250.535 95.6716 250.543 95.6555C250.761 94.963 251.084 93.908 251.084 92.3537C251.084 91.9108 250.939 91.4276 250.672 90.9444L250.826 90.7914C251.424 90.1955 251.424 89.2291 250.826 88.6251C250.228 88.0292 249.259 88.0292 248.653 88.6251L248.596 88.6815C247.296 87.7071 245.624 86.942 243.887 86.7004C244.533 86.5394 245.018 85.9998 245.05 85.3233C248.475 85.9998 252.684 88.1903 252.684 92.3457ZM235.26 88.5929C235.325 89.1244 235.64 89.5674 236.101 89.7928C235.527 90.429 235.042 91.1538 234.687 91.9511C234.259 91.9914 233.855 92.1927 233.588 92.5712C233.096 93.2557 233.257 94.214 233.944 94.7053L234.073 94.7939C234.073 94.81 234.073 94.818 234.073 94.8261C234.073 96.2032 234.315 97.4514 234.752 98.5869C234.194 98.7077 233.758 99.1103 233.613 99.658C233.039 98.1842 232.732 96.5655 232.732 94.8261C232.732 92.2329 233.774 90.1552 235.26 88.5929ZM234.493 101.478C234.671 101.55 234.857 101.591 235.059 101.591H235.22C235.608 101.591 235.955 101.43 236.23 101.196C237.029 102.227 238.023 103.113 239.146 103.854C238.588 103.701 237.974 103.862 237.579 104.329L237.385 104.554C237.344 104.603 237.328 104.659 237.296 104.715C236.165 103.773 235.22 102.694 234.493 101.478ZM239.848 106.382L239.905 106.318C240.414 105.722 240.365 104.86 239.848 104.305C241.795 105.448 244.065 106.197 246.407 106.584C246.367 106.616 246.319 106.632 246.286 106.672L245.745 107.244C245.511 107.494 245.406 107.8 245.365 108.106C245.147 108.065 244.937 108.041 244.703 108.001C242.918 107.663 241.286 107.115 239.848 106.382ZM309.525 140.141C308.75 140.302 307.942 140.471 307.918 140.423C307.918 140.334 307.974 140.036 308.249 139.755C308.491 139.505 308.83 139.36 309.178 139.36C308.329 139.36 307.643 140.045 307.643 140.89C307.643 141.631 308.184 142.227 308.895 142.364C308.645 143.789 309.089 145.062 309.428 145.996C309.501 146.197 309.573 146.39 309.63 146.584C310.228 148.452 311.851 148.436 312.829 148.444C313.095 148.444 313.394 148.444 313.733 148.46C313.782 148.46 313.822 148.468 313.854 148.468C313.854 148.476 313.854 148.492 313.854 148.5L313.863 148.613C313.741 148.734 313.418 148.943 312.934 149C312.077 149.08 309.759 148.75 308.863 148.5C308.604 147.888 308.224 146.519 308.144 145.811C308.063 145.078 307.699 144.385 307.352 143.709C307.223 143.459 307.037 143.097 306.964 142.887C307.086 142.324 307.15 141.252 307.304 138.498C307.312 138.305 307.328 138.112 307.336 137.91C307.506 137.975 307.683 138.015 307.869 138.015C308.047 138.015 308.233 137.983 308.41 137.91C308.596 137.838 308.725 137.798 308.822 137.765C309.178 137.645 309.388 137.564 309.808 137.29C310.518 136.831 310.729 135.889 310.268 135.172C309.808 134.464 308.863 134.254 308.144 134.713C307.998 134.81 307.998 134.81 307.837 134.858C307.748 134.89 307.635 134.931 307.497 134.979C307.546 134.254 307.602 133.578 307.667 133.038C307.885 131.138 308.556 128.319 308.951 126.725C309.614 126.813 310.292 126.95 310.963 127.087C312.102 127.329 313.265 127.57 314.412 127.57C314.525 127.57 314.638 127.554 314.751 127.554C313.911 129.213 312.893 131.259 312.352 132.555C311.641 134.295 310.325 137.79 309.525 140.141ZM360.575 148.194C359.541 148.508 356.593 148.565 355.244 148.339C354.137 148.13 349.791 144.981 349.299 143.878C348.733 142.597 347.021 141.108 344.282 139.11C344.719 138.627 344.816 137.902 344.468 137.323C344.468 137.323 344.266 136.976 344.137 136.453C343.943 135.631 343.111 135.124 342.287 135.325C341.609 135.486 341.164 136.082 341.14 136.743C340.316 136.002 339.226 134.963 338.232 134.005C337.691 133.481 337.166 132.982 336.657 132.499C336.738 132.507 336.811 132.539 336.9 132.531C337.748 132.458 338.37 131.726 338.305 130.88C338.24 130.123 337.812 129.728 337.554 129.551C336.843 129.068 336.084 129.294 335.591 129.439L335.284 129.527C334.824 129.656 334.492 129.978 334.315 130.373C334.169 130.252 334.008 130.107 333.879 130.01C333.612 129.809 333.289 129.519 332.934 129.189C332.934 129.189 332.934 129.189 332.934 129.181C332.942 129.132 332.95 129.084 332.95 129.036C333.378 128.625 333.547 127.997 333.329 127.409C332.982 126.443 332.174 126.177 331.585 126.241C331.116 126.29 330.801 126.507 330.559 126.789C328.79 124.888 327.053 122.843 326.77 122.271C326.019 120.765 322.538 117.786 321.496 116.908C320.85 116.36 319.88 116.449 319.331 117.093C318.79 117.737 318.871 118.704 319.517 119.251C320.955 120.459 322.586 121.957 323.451 122.907C322.812 123.133 322.118 123.35 321.536 123.463C321.399 123.487 321.253 123.511 321.108 123.527C321.496 122.907 321.415 122.094 320.85 121.587C320.22 121.023 319.25 121.079 318.685 121.716C318.329 122.118 317.691 122.891 317.465 123.519C317.4 123.689 317.392 123.858 317.392 124.035C316.682 124.14 315.947 124.268 315.212 124.438C314.275 124.655 312.982 124.381 311.625 124.091C310.793 123.914 309.945 123.745 309.073 123.648C309.202 123.439 309.339 123.221 309.485 123.02C309.969 122.328 309.808 121.377 309.113 120.886C308.418 120.403 307.465 120.564 306.972 121.257C306.068 122.529 305.785 123.262 305.696 123.705C305.317 123.745 304.953 123.777 304.541 123.825C302.877 124.019 300.882 124.228 298.386 124.18C298.467 124.075 298.54 123.962 298.588 123.825C298.879 123.036 298.475 122.15 297.675 121.86C295.89 121.208 294.452 122.996 293.903 123.817C291.197 123.447 288.887 122.883 287.554 122.513C287.603 122.022 287.627 121.546 287.595 121.104C287.538 120.258 286.795 119.622 285.963 119.678C285.502 119.71 285.115 119.952 284.848 120.29C284.679 119.928 284.364 119.63 283.952 119.493C283.879 119.469 283.709 119.428 283.491 119.388C283.378 119.372 283.136 119.324 282.958 119.275C282.595 118.873 282.021 118.679 281.448 118.816C280.624 119.018 280.123 119.847 280.325 120.669C280.648 121.981 282.126 122.247 283.063 122.416C283.192 122.448 283.33 122.464 283.459 122.464C283.855 122.464 284.218 122.295 284.501 122.038C284.428 123.012 284.154 124.204 283.79 125.412C283.725 125.122 283.612 124.848 283.394 124.623C282.998 124.156 282.247 123.294 281.181 123.471C280.591 123.568 280.099 123.97 279.872 124.542C279.557 125.323 279.937 126.217 280.729 126.531C280.842 126.58 280.963 126.612 281.084 126.628C281.165 126.717 281.229 126.789 281.27 126.829C281.561 127.119 281.94 127.264 282.328 127.264C282.683 127.264 283.039 127.119 283.33 126.87C282.966 127.933 282.586 128.931 282.296 129.696C282.134 130.115 281.989 130.493 281.876 130.808C281.827 130.944 281.771 131.114 281.706 131.299C281.577 130.824 281.399 130.212 281.318 130.002C281.011 129.229 280.147 128.867 279.364 129.157C278.58 129.447 278.184 130.324 278.459 131.114C278.532 131.331 278.75 132.12 278.887 132.652C279.065 133.336 279.687 133.795 280.373 133.795C280.503 133.795 280.632 133.779 280.761 133.747C280.85 133.723 280.914 133.666 280.995 133.634C280.777 134.383 280.551 135.188 280.325 136.01C280.131 135.696 279.832 135.438 279.452 135.325C278.637 135.092 277.788 135.559 277.554 136.372C277.352 137.057 277.587 137.725 278.394 138.845C278.645 139.191 279.016 139.36 279.412 139.424C279.057 140.777 278.782 141.848 278.693 142.219C278.192 144.345 280.179 145.98 282.28 147.703C284.315 149.37 286.068 149.201 287.465 149.072C287.982 149.024 288.467 148.975 288.984 149.008C289.485 149.04 289.735 149.257 289.856 149.434C289.921 149.531 289.953 149.62 289.969 149.692C288.499 149.982 283.822 149.628 282.336 149.306C281.326 148.984 277.07 145.287 274.477 142.493C273.354 141.285 273.556 140.793 274 139.722C274.154 139.352 274.291 138.99 274.388 138.627C274.477 138.281 274.727 137.314 274.566 132.829C274.59 132.893 274.614 132.934 274.63 132.966C274.905 133.513 275.47 133.844 276.044 133.844C276.27 133.844 276.488 133.795 276.706 133.691C277.465 133.312 277.788 132.434 277.409 131.677C277.352 131.532 277.207 130.928 277.086 130.397C276.9 129.567 276.076 129.044 275.26 129.229C274.905 129.31 274.622 129.519 274.412 129.777C274.267 128.408 273.063 126.008 271.617 123.672C271.641 123.672 271.666 123.672 271.69 123.672C272.417 123.6 272.974 123.028 273.063 122.336C273.12 122.207 273.249 121.981 273.362 121.82C273.83 121.12 273.637 120.169 272.934 119.702C272.231 119.235 271.278 119.42 270.81 120.129C270.446 120.677 270.244 121.095 270.139 121.426C267.837 118.132 263.984 111.657 263.944 111.593C263.507 110.868 262.57 110.626 261.843 111.053C261.117 111.48 260.874 112.422 261.302 113.147C261.464 113.413 265.26 119.799 267.635 123.189C267.837 123.471 268.007 123.737 268.192 124.011C267.272 124.856 265.761 126.177 264.162 127.312C263.54 127.755 262.748 128.303 261.876 128.891C262.037 128.094 261.553 127.304 260.753 127.111C259.937 126.91 259.097 127.401 258.895 128.222C258.717 128.939 258.693 129.559 258.693 129.865C258.693 130.212 258.831 130.518 259.024 130.775C256.957 132.128 254.889 133.425 253.677 134.109C253.063 134.456 252.377 134.866 251.69 135.301C251.674 135.205 251.658 135.124 251.65 135.076C251.601 134.27 250.939 133.634 250.115 133.634C249.267 133.634 248.58 134.319 248.58 135.164C248.58 135.446 248.621 136.348 248.968 137.081C248.136 137.653 247.466 138.152 247.126 138.466C246.383 139.151 242.983 144.49 243.12 146.1C243.209 147.172 244.113 147.92 244.994 148.645C245.163 148.782 245.398 148.975 245.535 149.112C245.583 149.378 245.592 149.773 245.551 150.014C244.97 150.119 243.669 150.014 243.144 149.177C242.894 148.782 242.643 148.444 242.409 148.122C241.65 147.099 241.496 146.882 241.924 145.867C242.732 143.926 246.351 135.14 246.698 134.021C246.836 133.739 247.708 133.223 248.168 132.95C248.451 132.781 248.726 132.62 248.968 132.458C249.517 132.088 250.721 130.743 252.078 128.996C252.118 129.358 252.199 129.809 252.272 130.171C252.417 130.904 253.055 131.412 253.774 131.412C253.871 131.412 253.968 131.403 254.065 131.387C254.897 131.226 255.438 130.421 255.276 129.592C255.276 129.583 255.131 128.875 255.115 128.585C255.099 127.747 254.42 127.079 253.58 127.079C253.548 127.079 253.524 127.095 253.491 127.095C254.978 125.009 256.448 122.682 257.312 120.789C259.251 116.529 261.633 108.5 261.738 108.154C261.916 107.558 261.714 106.914 261.222 106.527C260.737 106.141 260.058 106.084 259.517 106.39C257.175 107.703 254.081 108.911 248.726 108.524C249.057 107.993 249.033 107.341 248.661 106.833C249.881 106.906 251.068 106.857 252.223 106.721C252.288 106.946 252.385 107.172 252.554 107.357L252.91 107.735C253.209 108.065 253.629 108.235 254.041 108.235C254.412 108.235 254.784 108.098 255.075 107.832C255.567 107.381 255.68 106.68 255.43 106.1C257.32 105.609 259.081 104.949 260.68 104.264C260.866 104.699 261.23 105.054 261.73 105.166L262.304 105.295C262.417 105.319 262.53 105.335 262.635 105.335C263.338 105.335 263.976 104.852 264.129 104.136C264.234 103.668 264.089 103.209 263.814 102.863L264.218 102.678C265.6 102.058 266.997 101.542 268.419 101.075C268.402 101.8 268.879 102.452 269.614 102.605C269.719 102.63 269.824 102.638 269.929 102.638C270.64 102.638 271.278 102.138 271.431 101.422L271.577 100.729C271.617 100.528 271.617 100.334 271.577 100.149C272.506 99.9157 273.435 99.6982 274.364 99.5211C274.259 99.8915 274.251 100.27 274.364 100.632C274.566 101.277 275.099 101.76 275.818 101.953C275.955 101.993 276.092 102.009 276.221 102.009C276.9 102.009 277.514 101.567 277.7 100.882C277.821 100.447 277.74 100.012 277.514 99.658C277.514 99.4566 277.465 99.2714 277.385 99.0862C277.611 99.062 277.837 99.0137 278.063 98.9895C279.355 98.8607 280.704 98.8849 282.053 98.9815C281.318 98.9895 280.664 99.4888 280.535 100.23C280.438 100.818 280.68 101.381 281.124 101.712C281.181 101.889 281.27 102.066 281.399 102.219C281.706 102.589 282.142 102.783 282.586 102.783C282.926 102.783 283.273 102.67 283.556 102.436C284.17 101.929 284.428 101.212 284.242 100.512C283.968 99.4808 282.95 99.1264 282.49 99.0137C283.798 99.1264 285.091 99.3117 286.326 99.5211C286.181 99.6177 286.044 99.7304 285.939 99.8834C285.551 100.431 285.567 101.148 285.939 101.671C285.923 102.082 286.068 102.501 286.383 102.815C286.682 103.113 287.078 103.266 287.465 103.266C287.853 103.266 288.249 103.113 288.548 102.815C288.96 102.404 289.17 101.84 289.121 101.269C289.081 100.785 288.863 100.318 288.507 99.9318C288.935 100.012 289.355 100.101 289.751 100.181C291.116 100.455 292.288 100.689 293.192 100.785C293.612 100.834 294.202 100.882 294.889 100.946C295.05 101.703 295.446 102.477 295.939 102.799C296.197 102.976 296.496 103.056 296.787 103.056C297.279 103.056 297.772 102.815 298.063 102.372C298.305 102.018 298.354 101.599 298.265 101.212C300.656 101.381 303.386 101.559 305.753 101.687C305.648 102.13 305.591 102.622 305.688 103.064C305.842 103.789 306.504 104.337 307.223 104.337C307.32 104.337 307.417 104.329 307.522 104.305C308.354 104.127 308.887 103.379 308.709 102.557C308.709 102.493 308.749 102.34 308.774 102.259C308.846 102.122 308.879 101.977 308.911 101.84C309.339 101.856 309.743 101.873 310.074 101.881C312.077 101.929 315.833 101.768 317.449 100.882C317.627 101.534 318.192 102.026 318.903 102.026C319.751 102.026 320.438 101.341 320.438 100.495V99.3922C320.438 99.3519 320.421 99.3197 320.413 99.2795C320.922 99.062 321.447 98.8768 321.972 98.7641C321.964 98.8285 321.932 98.8849 321.932 98.9493C321.932 99.7949 322.619 100.479 323.467 100.479H323.79C324.638 100.479 325.325 99.7949 325.325 98.9493C325.325 98.9171 325.308 98.8849 325.308 98.8526C325.793 98.9412 326.278 99.0459 326.77 99.1667C327.57 99.3519 328.394 99.5372 329.242 99.6418C329.977 99.7304 331.237 99.7788 332.538 99.7626C332.417 99.8593 332.295 99.964 332.207 100.101L331.997 100.423C331.536 101.132 331.738 102.082 332.449 102.541C332.707 102.71 332.998 102.783 333.281 102.783C333.782 102.783 334.274 102.533 334.573 102.082L334.783 101.76C335.228 101.067 335.042 100.165 334.371 99.6902C334.42 99.6902 334.476 99.6821 334.525 99.6821C335.397 99.6096 337.069 99.5533 338.741 99.5049C338.741 99.9398 338.911 100.375 339.274 100.673L339.468 100.834C339.759 101.075 340.106 101.188 340.446 101.188C340.89 101.188 341.318 101.003 341.625 100.64C341.924 100.286 342.013 99.8351 341.94 99.4083C342.433 99.3922 342.869 99.3761 343.208 99.36C343.992 99.3197 344.921 99.3278 345.817 99.3761C345.777 99.4244 345.728 99.4727 345.688 99.5211C345.163 100.181 345.276 101.148 345.938 101.671C346.601 102.195 347.57 102.082 348.095 101.422C348.628 100.753 349.42 100.206 350.163 99.8271C350.171 99.8271 350.171 99.819 350.179 99.819C350.857 99.4727 351.504 99.2714 351.867 99.2472C351.609 99.7063 350.962 100.431 350.332 100.938C349.67 101.47 349.565 102.428 350.098 103.089C350.405 103.467 350.849 103.66 351.294 103.66C351.633 103.66 351.964 103.548 352.255 103.322C352.32 103.274 352.408 103.201 352.497 103.121C352.392 103.33 352.32 103.556 352.32 103.797V104.305C352.32 105.15 353.006 105.835 353.854 105.835C354.605 105.835 355.195 105.287 355.332 104.578C355.454 104.675 355.567 104.764 355.672 104.828C356.181 105.166 356.73 106.229 357.15 107.123C357.513 107.904 357.885 108.726 358.216 109.467C358.539 110.183 358.83 110.844 359.072 111.335C359.549 112.326 359.533 112.64 359.557 112.64C358.547 113.372 358.192 113.413 358.2 113.421C357.958 113.381 357.61 113.276 357.287 113.187C356.504 112.97 356.076 112.849 355.583 112.97C354.759 113.171 354.258 114.009 354.468 114.822C354.557 115.184 354.775 115.474 355.05 115.676C354.444 115.909 354.42 115.893 353.806 115.305C352.497 114.049 351.035 112.841 349.169 112.511C348.709 112.43 347.82 112.382 346.73 112.398C346.867 112.06 346.9 111.665 346.762 111.295C346.471 110.497 345.591 110.095 344.791 110.385L344.436 110.514C343.636 110.804 343.232 111.681 343.523 112.479C343.539 112.527 343.58 112.567 343.604 112.615C342.723 112.72 341.843 112.873 341.011 113.075C341.084 112.487 341.165 112.036 341.213 111.883C341.528 111.101 341.148 110.208 340.357 109.894C339.565 109.579 338.677 109.958 338.362 110.747C338.152 111.271 337.893 112.833 337.796 114.548C337.61 114.476 337.4 114.379 337.207 114.291C336.439 113.936 335.526 114.274 335.171 115.048C334.816 115.813 335.155 116.723 335.93 117.077C337.013 117.568 337.538 117.713 337.861 117.745C337.893 117.979 337.917 118.22 337.958 118.438C338.014 118.712 338.103 119.082 338.216 119.525C338.144 119.557 338.071 119.557 337.998 119.598L337.675 119.791C336.948 120.226 336.714 121.168 337.15 121.893C337.441 122.368 337.95 122.634 338.467 122.634C338.677 122.634 338.879 122.577 339.08 122.489C339.783 124.703 340.72 127.24 341.633 128.955C341.488 129.028 341.342 129.108 341.221 129.229L340.89 129.551C340.47 129.954 339.953 130.453 340.058 131.299C340.114 131.774 340.486 132.289 340.906 132.531C341.148 132.668 341.407 132.732 341.665 132.732C342.198 132.732 342.715 132.458 342.998 131.959C343.055 131.854 343.103 131.75 343.135 131.637L343.329 131.452C344.024 132.426 344.961 133.779 345.938 135.197C348.636 139.11 350.615 141.953 351.528 142.903C353.709 145.166 356.714 146.624 359.573 146.817C360.05 146.849 360.397 146.962 360.51 147.131C360.615 147.26 360.672 147.647 360.575 148.194Z" fill="#FFDE3B"/>
<path d="M296.571 113.139C296.644 112.841 296.619 112.543 296.514 112.269C296.991 111.73 297.031 110.908 296.571 110.321C296.046 109.652 295.085 109.531 294.414 110.055C293.792 110.538 293.033 111.714 293.283 112.841C293.445 113.566 293.994 114.114 294.721 114.283C294.834 114.307 294.955 114.323 295.069 114.323C295.779 114.323 296.409 113.848 296.571 113.139Z" fill="#FFDE3B"/>
<path d="M302.715 116.972C303.079 116.899 303.749 116.642 304.161 115.715C304.323 115.345 304.823 113.767 304.258 112.824C303.693 111.89 302.602 111.85 301.027 112.1C300.187 112.228 299.613 113.01 299.751 113.847C299.848 114.483 300.332 114.966 300.93 115.103C300.874 115.321 300.865 115.546 300.914 115.772C301.059 116.497 301.697 117.004 302.416 117.004C302.513 117.004 302.61 116.996 302.715 116.972Z" fill="#FFDE3B"/>
<path d="M306.901 109.676C307.378 109.209 307.507 108.468 307.168 107.856C306.764 107.115 305.835 106.842 305.084 107.244C303.953 107.856 303.355 108.806 303.476 109.797C303.581 110.618 304.179 111.287 305.019 111.504C305.148 111.536 305.278 111.553 305.399 111.553C306.085 111.553 306.707 111.094 306.885 110.409C306.958 110.159 306.958 109.91 306.901 109.676Z" fill="#FFDE3B"/>
<path d="M300.308 111.021C300.356 111.021 300.405 111.029 300.445 111.029C301.229 111.029 301.899 110.433 301.972 109.636C302.02 109.104 301.794 108.613 301.398 108.307C301.382 107.767 301.075 107.244 300.55 106.986C299.791 106.608 298.87 106.914 298.49 107.671C298.127 108.395 298.135 109.201 298.506 109.877C298.878 110.521 299.548 110.948 300.308 111.021Z" fill="#FFDE3B"/>
<path d="M295.656 108.017C295.85 108.017 296.052 107.977 296.246 107.896C296.844 107.646 297.902 106.954 298.104 105.923C298.217 105.359 298.047 104.788 297.651 104.393C297.054 103.797 296.084 103.797 295.479 104.393C295.285 104.586 295.156 104.812 295.091 105.053C295.083 105.061 295.075 105.061 295.067 105.069C294.283 105.392 293.92 106.293 294.243 107.075C294.477 107.663 295.051 108.017 295.656 108.017Z" fill="#FFDE3B"/>
<path d="M291.788 104.852C291.829 104.86 291.877 104.86 291.917 104.86C292.709 104.86 293.38 104.256 293.444 103.459C293.485 103.008 293.323 102.589 293.032 102.283C293.113 101.478 292.548 100.745 291.732 100.624C290.9 100.488 290.108 101.075 289.987 101.913C289.906 102.42 289.769 103.363 290.375 104.119C290.714 104.546 291.215 104.804 291.788 104.852Z" fill="#FFDE3B"/>
<path d="M279.292 101.889C278.501 101.599 277.62 102.01 277.321 102.807C277.095 103.436 277.305 104.112 277.79 104.515C277.814 104.635 277.863 104.756 277.919 104.877C278.186 105.417 278.727 105.723 279.292 105.723C279.519 105.723 279.761 105.674 279.979 105.562C280.641 105.231 281.021 104.587 280.981 103.87C280.94 103.017 280.27 102.244 279.292 101.889Z" fill="#FFDE3B"/>
<path d="M283.062 106.689C283.328 106.898 283.643 106.995 283.958 106.995C284.402 106.995 284.847 106.793 285.154 106.407C285.226 106.31 285.291 106.213 285.339 106.109C285.8 105.779 286.026 105.191 285.905 104.571C285.743 103.741 284.871 103.218 284.047 103.371C283.587 103.459 282.512 103.652 282.246 104.756C282.149 105.175 282.116 105.972 283.062 106.689Z" fill="#FFDE3B"/>
<path d="M288.135 107.969C288.394 108.171 288.725 108.291 289.08 108.291C289.121 108.291 289.169 108.291 289.21 108.283C290.05 108.211 290.68 107.47 290.615 106.632C290.567 106.053 290.284 105.553 289.824 105.223C288.959 104.603 287.836 104.885 287.416 104.99C286.593 105.191 286.092 106.028 286.302 106.842C286.504 107.663 287.328 108.154 288.135 107.969Z" fill="#FFDE3B"/>
<path d="M289.469 109.966C289.469 109.99 289.461 110.014 289.461 110.047C289.09 110.328 288.855 110.763 288.855 111.263C288.855 112.108 289.542 112.793 290.39 112.793C291.876 112.793 292.539 111.174 292.539 110.022C292.539 109.201 291.893 108.573 291.069 108.533C290.229 108.492 289.534 109.153 289.469 109.966Z" fill="#FFDE3B"/>
<path d="M287.506 114.009C287.683 113.502 287.578 112.97 287.28 112.568C287.562 111.827 287.223 110.973 286.488 110.635C285.721 110.281 284.808 110.611 284.452 111.384C284.04 112.278 283.976 113.075 284.259 113.752C284.493 114.307 284.953 114.726 285.551 114.935C285.721 114.992 285.89 115.024 286.06 115.024C286.69 115.032 287.288 114.637 287.506 114.009Z" fill="#FFDE3B"/>
<path d="M282.74 111.029C283.095 111.029 283.443 110.908 283.733 110.667C283.887 110.538 284.008 110.385 284.097 110.224C284.573 109.926 284.872 109.37 284.808 108.774C284.727 107.937 283.976 107.317 283.128 107.405C282.247 107.494 281.552 107.969 281.27 108.67C281.019 109.282 281.141 109.982 281.569 110.49C281.868 110.844 282.304 111.029 282.74 111.029Z" fill="#FFDE3B"/>
<path d="M291.772 117.826C291.069 118.253 290.173 119.622 290.367 120.806C290.496 121.555 291.142 122.086 291.877 122.086C291.958 122.086 292.047 122.078 292.136 122.062C292.903 121.933 293.436 121.265 293.42 120.516C293.436 120.483 293.452 120.443 293.477 120.411C293.63 120.314 293.767 120.194 293.88 120.041C294.389 119.364 294.252 118.406 293.582 117.898C293.065 117.52 292.305 117.504 291.772 117.826Z" fill="#FFDE3B"/>
<path d="M297.134 116.087C296.569 116.256 296.116 116.667 295.85 117.247C295.503 118.004 295.454 119.099 295.745 119.735C296.003 120.307 296.561 120.637 297.142 120.637C297.352 120.637 297.562 120.597 297.772 120.5C298.475 120.186 298.822 119.421 298.629 118.705C298.629 118.688 298.629 118.672 298.629 118.656C299.041 118.27 299.218 117.674 299.049 117.102C298.798 116.305 297.942 115.846 297.134 116.087Z" fill="#FFDE3B"/>
<path d="M290.454 114.307C289.694 113.928 288.773 114.234 288.394 114.991C288.337 115.104 288.071 115.37 287.925 115.507C287.481 115.941 286.738 116.666 287.093 117.721C287.311 118.365 287.909 118.768 288.547 118.768C288.709 118.768 288.87 118.744 289.032 118.688C289.484 118.535 289.824 118.196 289.977 117.786C290.009 117.753 290.042 117.721 290.074 117.689C290.397 117.367 290.849 116.932 291.132 116.36C291.52 115.603 291.213 114.685 290.454 114.307Z" fill="#FFDE3B"/>
<path d="M302.594 119.291C302.4 119.581 302.295 119.839 302.215 120.056C302.134 120.266 302.085 120.379 301.956 120.532C301.415 121.184 301.504 122.142 302.15 122.69C302.441 122.931 302.788 123.044 303.135 123.044C303.58 123.044 304.008 122.859 304.315 122.497C304.767 121.957 304.953 121.49 305.074 121.176C305.098 121.111 305.123 121.047 305.155 120.991C305.623 120.29 305.429 119.34 304.727 118.873C304.016 118.398 303.063 118.591 302.594 119.291Z" fill="#FFDE3B"/>
<path d="M310.259 116.094C310.284 115.715 310.162 115.321 309.896 115.007C309.347 114.362 308.377 114.29 307.731 114.838C306.818 115.611 306.81 116.456 306.891 116.891C307.045 117.737 307.707 118.373 308.846 118.784C309.015 118.848 309.193 118.872 309.363 118.872C309.993 118.872 310.583 118.486 310.809 117.857C311.051 117.189 310.801 116.48 310.259 116.094Z" fill="#FFDE3B"/>
<path d="M314.354 120.25C313.683 120.331 312.48 120.895 311.93 121.877C311.518 122.61 311.761 123.568 312.496 123.987C312.738 124.124 313.005 124.188 313.263 124.188C313.788 124.188 314.289 123.923 314.572 123.423C314.62 123.375 314.766 123.286 314.741 123.278C315.581 123.174 316.179 122.409 316.074 121.571C315.961 120.742 315.194 120.146 314.354 120.25Z" fill="#FFDE3B"/>
<path d="M301.916 106.391C301.956 106.391 301.997 106.391 302.037 106.383C302.885 106.326 303.523 105.601 303.467 104.756C303.418 104.079 302.942 103.532 302.32 103.371C302.013 102.863 301.415 102.557 300.785 102.646C299.945 102.767 299.364 103.54 299.485 104.377C299.614 105.295 300.769 106.391 301.916 106.391Z" fill="#FFDE3B"/>
<path d="M309.362 108.259L310.396 107.131L309.378 108.275C309.669 108.533 310.032 108.661 310.396 108.661C310.816 108.661 311.236 108.492 311.543 108.146C312.003 107.631 312.052 106.882 311.704 106.326C311.801 105.907 311.721 105.456 311.446 105.086C310.945 104.401 309.984 104.256 309.305 104.756C308.756 105.158 308.433 105.722 308.401 106.342C308.352 107.365 309.111 108.033 309.362 108.259Z" fill="#FFDE3B"/>
<path d="M312.806 112.931C313.097 112.214 312.798 111.417 312.152 111.038C311.91 110.378 311.215 109.959 310.496 110.047C309.656 110.168 309.074 110.941 309.196 111.779C309.357 112.914 310.294 113.575 310.819 113.784C311.005 113.857 311.199 113.897 311.385 113.897C311.99 113.897 312.572 113.535 312.806 112.931Z" fill="#FFDE3B"/>
<path d="M316.819 114.203C316.778 114.139 316.73 114.05 316.706 113.986C316.431 113.188 315.559 112.761 314.751 113.043C313.951 113.317 313.523 114.187 313.806 114.992C313.871 115.185 314.493 116.869 315.801 116.997C315.858 117.005 315.906 117.005 315.963 117.005C316.738 117.005 317.408 116.418 317.489 115.628C317.538 115.049 317.263 114.517 316.819 114.203Z" fill="#FFDE3B"/>
<path d="M309.37 129.478C309.265 129.583 309.177 129.672 309.104 129.744C308.425 129.97 307.981 130.646 308.07 131.379C308.167 132.16 308.821 132.732 309.588 132.732C309.653 132.732 309.71 132.732 309.774 132.724C310.388 132.651 310.865 132.49 311.301 131.91C311.333 131.87 311.382 131.806 311.479 131.717C312.093 131.137 312.125 130.171 311.543 129.551C310.962 128.931 309.984 128.907 309.37 129.478Z" fill="#FFDE3B"/>
<path d="M275.706 123.197C275.068 123.866 274.535 125.05 275.165 126.145C275.448 126.644 275.965 126.926 276.506 126.926C276.764 126.926 277.023 126.862 277.257 126.725C277.814 126.411 278.097 125.799 278.024 125.195C278.517 124.582 278.461 123.689 277.879 123.133C277.265 122.561 276.296 122.585 275.706 123.197Z" fill="#FFDE3B"/>
<path d="M278.069 115.773C277.544 115.62 276.922 115.781 276.527 116.16C275.727 116.925 275.727 118.938 275.808 119.26C275.977 119.961 276.607 120.428 277.294 120.428C277.415 120.428 277.536 120.412 277.657 120.379C278.392 120.202 278.869 119.526 278.821 118.801C278.829 118.64 278.869 118.326 278.909 118.1C278.998 117.963 279.071 117.818 279.119 117.657C279.354 116.844 278.885 115.998 278.069 115.773Z" fill="#FFDE3B"/>
<path d="M279.984 111.656C279.37 111.068 278.401 111.092 277.811 111.705C277.23 112.317 277.246 113.283 277.86 113.871L278.037 114.04C278.336 114.322 278.716 114.467 279.095 114.467C279.499 114.467 279.903 114.306 280.202 113.992C280.784 113.38 280.767 112.413 280.154 111.825L279.984 111.656Z" fill="#FFDE3B"/>
<path d="M271.463 114.25C270.671 113.944 269.783 114.331 269.476 115.12L269.25 115.692C268.943 116.481 269.33 117.367 270.122 117.673C270.308 117.745 270.494 117.778 270.679 117.778C271.293 117.778 271.875 117.407 272.109 116.803L272.335 116.231C272.642 115.442 272.246 114.556 271.463 114.25Z" fill="#FFDE3B"/>
<path d="M275.971 115.032C276.044 114.5 276.205 113.405 275.3 112.809C274.59 112.342 273.637 112.535 273.176 113.236C272.934 113.598 272.869 114.025 272.958 114.42C272.95 114.508 272.934 114.589 272.934 114.605C272.813 115.443 273.402 116.216 274.234 116.336C274.307 116.345 274.38 116.353 274.452 116.353C275.204 116.353 275.866 115.797 275.971 115.032Z" fill="#FFDE3B"/>
<path d="M276.172 110.94C277.02 110.94 277.698 110.328 277.698 109.482C277.715 109.378 277.763 109.217 277.803 109.064C277.949 108.492 278.046 108.113 277.884 107.638C277.618 106.841 276.745 106.406 275.937 106.672C275.332 106.873 274.936 107.421 274.895 108.025C274.879 108.097 274.847 108.194 274.823 108.299C274.702 108.75 274.629 109.048 274.629 109.338C274.645 110.183 275.324 110.94 276.172 110.94Z" fill="#FFDE3B"/>
<path d="M259.59 117.552C259.59 117.874 259.808 118.889 259.921 119.178C260.155 119.766 260.713 120.113 261.318 120.113C261.488 120.113 261.666 120.08 261.835 120.024C262.611 119.758 263.031 118.905 262.797 118.115C262.748 117.954 262.667 117.552 262.643 117.399C262.57 116.626 261.916 116.022 261.116 116.022C260.276 116.022 259.59 116.706 259.59 117.552Z" fill="#FFDE3B"/>
<path d="M264.178 125.766C264.258 125.783 264.339 125.783 264.42 125.783C265.163 125.783 265.817 125.243 265.93 124.494C265.963 124.285 266.06 123.544 265.906 122.891C265.72 122.086 264.937 121.619 264.121 121.78C263.305 121.941 262.78 122.755 262.909 123.568C262.925 123.648 262.909 123.874 262.893 124.019C262.764 124.848 263.337 125.638 264.178 125.766Z" fill="#FFDE3B"/>
<path d="M257.645 121.457C257.039 122.182 257.007 123.647 257.047 123.961C257.16 124.726 257.831 125.338 258.59 125.338C258.654 125.338 258.727 125.33 258.792 125.322C259.632 125.202 260.221 124.493 260.1 123.655C260.1 123.559 260.141 123.309 260.173 123.172C260.52 122.544 260.383 121.739 259.809 121.264C259.147 120.716 258.186 120.805 257.645 121.457Z" fill="#FFDE3B"/>
<path d="M269.536 111.883L269.245 111.021C268.978 110.224 268.114 109.781 267.306 110.055C266.498 110.32 266.07 111.19 266.337 111.987L266.628 112.849C266.846 113.493 267.444 113.896 268.082 113.896C268.243 113.896 268.405 113.872 268.566 113.815C269.366 113.55 269.802 112.68 269.536 111.883Z" fill="#FFDE3B"/>
<path d="M273.491 111.093V110.755C273.491 109.91 272.805 109.225 271.957 109.225C271.108 109.225 270.422 109.91 270.422 110.755V111.093C270.422 111.939 271.108 112.623 271.957 112.623C272.805 112.623 273.491 111.939 273.491 111.093Z" fill="#FFDE3B"/>
<path d="M267.604 106.503C267.822 107.139 268.42 107.534 269.058 107.534C269.22 107.534 269.389 107.509 269.559 107.453C270.359 107.179 270.787 106.31 270.512 105.512L270.221 104.675C269.947 103.877 269.074 103.443 268.275 103.724C267.475 103.998 267.047 104.868 267.321 105.665L267.604 106.503Z" fill="#FFDE3B"/>
<path d="M280.85 116.658C281.068 117.295 281.666 117.689 282.304 117.689C282.466 117.689 282.635 117.665 282.805 117.609C283.605 117.335 284.033 116.465 283.758 115.668L283.467 114.83C283.193 114.033 282.32 113.598 281.521 113.88C280.721 114.154 280.293 115.024 280.568 115.821L280.85 116.658Z" fill="#FFDE3B"/>
<path d="M271.682 105.489C271.9 106.125 272.498 106.519 273.136 106.519C273.298 106.519 273.467 106.495 273.637 106.439C274.437 106.165 274.865 105.295 274.59 104.498L274.299 103.661C274.025 102.863 273.152 102.428 272.353 102.71C271.553 102.984 271.125 103.854 271.4 104.651L271.682 105.489Z" fill="#FFDE3B"/>
<path d="M266.411 107.414L265.862 106.367C265.466 105.618 264.537 105.336 263.786 105.731C263.034 106.125 262.752 107.052 263.148 107.801L263.697 108.847C263.971 109.371 264.505 109.661 265.054 109.661C265.296 109.661 265.538 109.604 265.765 109.484C266.524 109.081 266.807 108.155 266.411 107.414Z" fill="#FFDE3B"/>
<path d="M329.652 119.436C329.102 118.792 328.133 118.72 327.487 119.267C326.841 119.815 326.768 120.781 327.317 121.425L327.705 121.868C328.012 122.223 328.44 122.4 328.868 122.4C329.224 122.4 329.579 122.279 329.862 122.029C330.508 121.482 330.581 120.515 330.031 119.871L329.652 119.436Z" fill="#FFDE3B"/>
<path d="M334.371 117.334C334.371 116.271 333.595 115.651 332.828 115.587C331.697 115.482 330.494 116.739 330.364 117.568C330.227 118.406 330.792 119.187 331.632 119.324C331.713 119.34 331.802 119.34 331.883 119.34C332.319 119.34 332.723 119.154 333.006 118.848C333.773 118.768 334.371 118.124 334.371 117.334Z" fill="#FFDE3B"/>
<path d="M334.443 121.112C333.829 120.902 333.183 121.087 332.626 121.611C331.858 122.328 331.963 123.101 332.044 123.399C332.205 123.995 332.682 124.446 333.32 124.59C333.433 124.615 333.554 124.631 333.667 124.631C334.338 124.631 334.944 124.188 335.138 123.536C335.251 123.399 335.348 123.229 335.404 123.052C335.679 122.255 335.243 121.385 334.443 121.112Z" fill="#FFDE3B"/>
<path d="M337.002 124.252C336.332 124.518 335.888 125.13 335.88 125.814C335.863 126.354 336.146 127.071 336.962 127.441C337.164 127.538 337.382 127.578 337.6 127.578C338.182 127.578 338.739 127.248 338.998 126.684C339.03 126.612 339.054 126.539 339.078 126.467C339.434 125.879 339.353 125.106 338.844 124.606C338.376 124.139 337.649 123.994 337.002 124.252Z" fill="#FFDE3B"/>
<path d="M326.763 111.931C327.069 111.931 327.385 111.835 327.659 111.642C328.346 111.15 328.499 110.192 328.006 109.507C327.958 109.435 327.885 109.33 327.829 109.234C327.813 108.863 327.667 108.501 327.385 108.219C326.787 107.623 325.817 107.623 325.212 108.219C324.469 108.96 324.574 109.991 325.519 111.295C325.817 111.714 326.286 111.931 326.763 111.931Z" fill="#FFDE3B"/>
<path d="M333.744 108.081C334.156 108.081 334.567 107.92 334.866 107.598C335.343 107.091 335.399 106.334 335.06 105.77C335.109 105.053 334.648 104.377 333.929 104.184C333.114 103.958 332.265 104.449 332.047 105.271C331.813 106.149 332.063 107.091 332.702 107.679C332.992 107.945 333.364 108.081 333.744 108.081Z" fill="#FFDE3B"/>
<path d="M334.355 110.401C334.355 111.021 334.767 111.987 335.438 112.47C335.761 112.704 336.124 112.825 336.496 112.825C336.682 112.825 336.868 112.793 337.045 112.736C337.853 112.47 338.289 111.601 338.015 110.803C337.893 110.449 337.659 110.167 337.36 109.982C337.174 109.346 336.585 108.879 335.89 108.879C335.042 108.871 334.355 109.555 334.355 110.401Z" fill="#FFDE3B"/>
<path d="M329.664 111.529C329.793 112.278 330.44 112.809 331.175 112.809C331.255 112.809 331.344 112.801 331.433 112.785C332.265 112.648 332.831 111.859 332.693 111.022C332.693 111.006 332.685 110.949 332.685 110.901C332.984 110.297 332.855 109.548 332.33 109.081C331.7 108.517 330.722 108.573 330.165 109.21C329.511 109.934 329.567 110.973 329.664 111.529Z" fill="#FFDE3B"/>
<path d="M327.616 107.47C327.745 108.219 328.391 108.75 329.126 108.75C329.207 108.75 329.296 108.742 329.385 108.726C330.217 108.589 330.782 107.8 330.645 106.962C330.645 106.946 330.637 106.89 330.637 106.841C330.936 106.237 330.807 105.488 330.282 105.021C329.651 104.458 328.674 104.514 328.117 105.15C327.471 105.875 327.527 106.914 327.616 107.47Z" fill="#FFDE3B"/>
<path d="M324.567 116.61C324.696 117.359 325.342 117.89 326.077 117.89C326.158 117.89 326.247 117.882 326.336 117.866C327.168 117.729 327.733 116.94 327.596 116.103C327.596 116.087 327.588 116.03 327.588 115.982C327.887 115.378 327.757 114.629 327.232 114.162C326.602 113.598 325.625 113.654 325.068 114.291C324.413 115.015 324.478 116.054 324.567 116.61Z" fill="#FFDE3B"/>
<path d="M320.836 111.552L320.739 111.335C320.384 110.561 319.471 110.223 318.704 110.578C317.936 110.932 317.589 111.834 317.944 112.607L318.049 112.841C318.251 113.3 318.712 114.379 320.012 114.379C320.86 114.379 321.547 113.694 321.547 112.849C321.555 112.301 321.264 111.818 320.836 111.552Z" fill="#FFDE3B"/>
<path d="M314.243 107.615C313.839 107.881 313.54 108.444 313.508 108.919C313.467 109.564 313.75 110.232 314.251 110.659C314.542 110.909 314.897 111.029 315.244 111.029C315.681 111.029 316.109 110.844 316.408 110.498C316.819 110.015 316.884 109.354 316.618 108.815C316.601 108.549 316.521 108.283 316.359 108.05C315.899 107.341 314.954 107.148 314.243 107.615Z" fill="#FFDE3B"/>
<path d="M314.549 105.69C314.864 105.69 315.187 105.593 315.462 105.392C315.939 105.038 316.149 104.474 316.068 103.926C316.157 103.339 315.898 102.727 315.365 102.396C314.646 101.945 313.701 102.171 313.249 102.88C312.756 103.669 312.926 104.547 313.314 105.07C313.612 105.481 314.081 105.69 314.549 105.69Z" fill="#FFDE3B"/>
<path d="M322.285 106.753C321.437 106.753 320.75 107.438 320.75 108.283V108.589C320.75 109.435 321.437 110.119 322.285 110.119C323.133 110.119 323.819 109.435 323.819 108.589V108.283C323.819 107.438 323.133 106.753 322.285 106.753Z" fill="#FFDE3B"/>
<path d="M318.898 107.188C319.746 107.188 320.433 106.503 320.433 105.658V105.094C320.433 104.248 319.746 103.564 318.898 103.564C318.05 103.564 317.363 104.248 317.363 105.094V105.658C317.363 106.503 318.05 107.188 318.898 107.188Z" fill="#FFDE3B"/>
<path d="M325.702 103.926V103.499C325.702 102.654 325.016 101.969 324.168 101.969C323.319 101.969 322.633 102.654 322.633 103.499V103.926C322.633 104.772 323.319 105.456 324.168 105.456C325.016 105.456 325.702 104.772 325.702 103.926Z" fill="#FFDE3B"/>
<path d="M328.332 102.896H328.687C329.535 102.896 330.222 102.211 330.222 101.366C330.222 100.52 329.535 99.8358 328.687 99.8358H328.332C327.483 99.8358 326.797 100.52 326.797 101.366C326.797 102.211 327.483 102.896 328.332 102.896Z" fill="#FFDE3B"/>
<path d="M337.256 105.73C336.529 106.165 336.295 107.107 336.731 107.832L337.022 108.307C337.313 108.782 337.822 109.048 338.339 109.048C338.605 109.048 338.88 108.975 339.13 108.83C339.857 108.395 340.091 107.453 339.655 106.728L339.364 106.253C338.928 105.528 337.983 105.295 337.256 105.73Z" fill="#FFDE3B"/>
<path d="M337.819 104.715C338.126 104.715 338.441 104.626 338.707 104.433L338.934 104.272C339.62 103.781 339.782 102.822 339.289 102.138C338.796 101.453 337.835 101.292 337.148 101.784L336.922 101.945C336.236 102.436 336.074 103.394 336.567 104.079C336.874 104.489 337.342 104.715 337.819 104.715Z" fill="#FFDE3B"/>
<path d="M341.852 105.288C342.192 105.288 342.539 105.175 342.822 104.941L343.331 104.531C343.985 103.999 344.09 103.033 343.557 102.38C343.024 101.72 342.054 101.623 341.4 102.155L340.891 102.566C340.237 103.097 340.132 104.064 340.665 104.716C340.964 105.094 341.408 105.288 341.852 105.288Z" fill="#FFDE3B"/>
<path d="M342.781 105.747C341.933 105.747 341.246 106.431 341.246 107.277V107.664C341.246 108.509 341.933 109.194 342.781 109.194C343.629 109.194 344.316 108.509 344.316 107.664V107.277C344.316 106.439 343.629 105.747 342.781 105.747Z" fill="#FFDE3B"/>
<path fill-rule="evenodd" clip-rule="evenodd" d="M790.528 302.541C775.213 304.182 763.078 315.261 760.061 330.359C759.366 333.836 759.365 339.684 760.057 343.148C762.866 357.199 773.392 367.709 787.467 370.517C789.459 370.915 790.598 370.999 793.968 371C798.248 371.001 799.828 370.818 803.323 369.918C809.084 368.434 813.48 365.952 817.523 361.901C823.049 356.366 826.061 349.361 826.784 340.368C826.99 337.797 826.805 333.752 826.414 332.308L826.284 331.825H810.072H793.861V337.73V343.635H803.65H813.439L813.298 344.226C811.835 350.371 807.198 355.387 801.173 357.342C790.764 360.721 779.788 356.244 774.935 346.642C769.003 334.902 774.798 320.397 787.099 316.195C790.72 314.958 795.477 314.764 799.13 315.703C801.348 316.274 804.455 317.806 806.153 319.167C806.889 319.756 807.562 320.213 807.65 320.181C807.926 320.08 816.764 311.551 816.764 311.385C816.764 311.14 814.351 309.162 812.716 308.066C809.13 305.664 804.862 303.897 800.56 303.033C798.526 302.624 792.507 302.329 790.528 302.541ZM849.559 327.956V332.891L844.559 332.949L839.559 333.006L839.502 337.999L839.444 342.991H844.502H849.559V348.041V353.091L854.559 353.034L859.559 352.976L859.617 347.984L859.675 342.991H864.617H869.559V337.945V332.899H864.613H859.667V327.96V323.022H854.613H849.559V327.956Z" fill="#8A86B2"/>
<path d="M744.685 124.403L757.284 111.673C757.702 111.249 757.935 110.681 757.935 110.079C757.935 108.822 756.922 107.804 755.676 107.804C755.068 107.804 754.499 108.042 754.072 108.482L741.479 121.156L728.838 108.458C728.41 108.035 727.845 107.804 727.243 107.804C725.994 107.804 724.984 108.822 724.984 110.075C724.984 110.687 725.228 111.266 725.662 111.696L738.261 124.383L725.668 137.081C725.228 137.524 724.984 138.099 724.984 138.711C724.984 139.967 725.997 140.986 727.243 140.986C727.845 140.986 728.41 140.754 728.838 140.324L741.463 127.62L754.039 140.275C754.486 140.738 755.058 140.986 755.676 140.986C756.919 140.986 757.932 139.967 757.932 138.711C757.932 138.106 757.702 137.537 757.274 137.107L744.682 124.39L744.685 124.403ZM819.585 124.4C819.585 126.681 821.427 128.533 823.695 128.533C825.951 128.533 827.792 126.681 827.792 124.4C827.792 122.118 825.951 120.266 823.692 120.266C821.433 120.266 819.595 122.118 819.595 124.4H819.585ZM811.81 124.4C811.81 117.803 817.136 112.43 823.692 112.43C830.235 112.43 835.571 117.803 835.571 124.4C835.571 130.996 830.238 136.37 823.692 136.37C817.139 136.37 811.81 131.003 811.81 124.4ZM807.134 124.4C807.134 133.592 814.565 141.078 823.692 141.078C832.819 141.078 840.25 133.599 840.25 124.403C840.25 115.211 832.819 107.724 823.692 107.724C814.562 107.724 807.134 115.207 807.134 124.403V124.4ZM805.961 108.009H805.27C803.182 108.009 801.17 108.67 799.49 109.976C799.26 108.964 798.353 108.191 797.274 108.191C796.035 108.191 795.038 109.199 795.038 110.452L795.045 138.542C795.045 139.789 796.064 140.804 797.297 140.804C798.54 140.804 799.553 139.789 799.556 138.535V121.262C799.556 115.508 800.082 113.18 804.974 112.565C805.435 112.509 805.921 112.519 805.928 112.519C807.263 112.469 808.216 111.54 808.216 110.287C808.216 109.031 807.197 108.012 805.947 108.012L805.961 108.009ZM762.607 121.658C762.607 121.592 762.614 121.526 762.617 121.467C763.926 116.242 768.621 112.383 774.207 112.383C779.862 112.383 784.596 116.332 785.846 121.649H762.604L762.607 121.658ZM790.465 121.229C789.492 116.589 786.97 112.777 783.133 110.33C777.518 106.739 770.107 106.937 764.688 110.826C760.263 113.99 757.708 119.175 757.708 124.515C757.708 125.855 757.873 127.207 758.201 128.54C759.872 135.153 765.52 140.166 772.254 140.996C774.253 141.24 776.199 141.128 778.205 140.599C779.941 140.169 781.614 139.468 783.156 138.469C784.757 137.434 786.095 136.065 787.397 134.429C787.417 134.396 787.443 134.372 787.47 134.339C788.371 133.215 788.203 131.608 787.217 130.848C786.382 130.203 784.981 129.942 783.883 131.363C783.646 131.707 783.38 132.058 783.094 132.405C782.216 133.38 781.128 134.323 779.826 135.057C778.162 135.95 776.275 136.456 774.269 136.469C767.7 136.393 764.189 131.773 762.936 128.48C762.719 127.862 762.551 127.224 762.433 126.562L762.4 126.215H785.974C789.202 126.142 790.938 123.844 790.458 121.222L790.465 121.229Z" fill="#8A86B2"/>
<path fill-rule="evenodd" clip-rule="evenodd" d="M506.062 39.2162C505.781 39.3605 505.413 39.6675 505.243 39.8985C504.936 40.3167 504.935 40.3789 504.935 55.5151C504.935 72.6896 504.851 71.4131 506.151 74.0581C506.746 75.2692 507.049 75.6737 508.273 76.8904C509.85 78.4578 511.166 79.2566 513.206 79.8843L514.319 80.2268L535.891 80.2692L557.463 80.3116L558.035 79.9903C559.175 79.3505 559.102 80.5561 559.051 63.4239L559.005 48.1048L558.586 46.9149C557.262 43.154 554.55 40.5517 550.734 39.379L549.621 39.0369L528.097 38.9955C507.784 38.9564 506.544 38.9689 506.062 39.2162ZM579.412 39.104C579.248 39.1739 575.226 42.0696 570.474 45.5389L561.835 51.8467L561.803 59.6432L561.771 67.4396L570.355 73.6762C575.225 77.2147 579.217 80.0128 579.583 80.1441C580.223 80.3739 580.231 80.3727 580.639 79.9649L581.05 79.5543V59.6399V39.7255L580.689 39.3418C580.32 38.9493 579.94 38.8785 579.412 39.104Z" fill="#8A86B2"/>
<path fill-rule="evenodd" clip-rule="evenodd" d="M964.441 186.16C957.694 187.264 952.031 191.125 948.6 196.961C947.789 198.341 946.435 201.558 946.435 202.106C946.435 202.597 946.131 202.594 945.476 202.096C943.674 200.729 940.431 199.832 938.084 200.051C935.337 200.308 933.126 201.378 931.108 203.426C929.688 204.867 928.786 206.439 928.291 208.337C928.003 209.44 927.936 212.304 928.172 213.391C928.289 213.932 928.236 213.989 926.88 214.783C924.969 215.902 922.349 218.561 921.257 220.491C917.513 227.108 918.605 234.97 923.992 240.171C926.06 242.169 928.025 243.314 930.958 244.233L932.612 244.751H960.352H988.091L989.746 244.233C996.368 242.159 1000.79 236.958 1001.54 230.369C1002.38 222.939 997.903 215.879 990.758 213.379C989.467 212.927 989.299 212.816 989.384 212.471C989.706 211.154 989.912 208.47 989.81 206.912C989.661 204.621 989.41 203.281 988.737 201.186C986.333 193.698 979.995 188.044 972.104 186.35C970.153 185.931 966.41 185.838 964.441 186.16ZM978.895 203.608L979.534 204.247L979.532 219.616C979.529 231.527 979.476 235.092 979.294 235.456C978.872 236.298 977.973 236.582 975.72 236.582C973.508 236.582 972.642 236.351 972.13 235.622C971.853 235.226 971.824 233.724 971.83 219.781C971.836 207.357 971.885 204.291 972.086 203.929C972.536 203.119 973.058 202.983 975.745 202.976L978.256 202.97L978.895 203.608ZM966.932 211.325C968.117 211.937 968.062 211.334 968.062 223.813C968.062 236.425 968.127 235.776 966.821 236.321C965.957 236.681 962.073 236.678 961.205 236.316C959.942 235.789 959.976 236.131 959.976 223.813C959.976 211.548 959.947 211.847 961.163 211.319C962.029 210.943 966.201 210.947 966.932 211.325ZM955.694 215.883L956.308 216.497L956.367 225.084C956.399 229.807 956.372 234.036 956.307 234.482C956.233 234.984 955.984 235.519 955.652 235.89L955.117 236.489H952.284H949.451L948.837 235.875L948.222 235.261L948.169 226.149C948.112 216.175 948.11 216.194 949.21 215.497C949.649 215.219 950.125 215.178 952.403 215.22L955.08 215.269L955.694 215.883ZM943.846 218.54L944.46 219.088L944.513 226.988C944.572 235.796 944.573 235.795 943.326 236.316C942.457 236.678 938.573 236.681 937.709 236.321C936.433 235.788 936.468 236.039 936.468 227.327C936.468 221.91 936.533 219.342 936.678 219.059C937.174 218.091 937.497 218.001 940.461 217.996L943.232 217.992L943.846 218.54Z" fill="#8A86B2"/>
</svg>
