<svg width="158" height="211" viewBox="0 0 158 211" fill="none" xmlns="http://www.w3.org/2000/svg">
<path d="M28.5128 41.7628L28.5128 41.7628C27.7832 44.7895 27.6784 46.639 27.5117 62.053L27.3278 79.0619L27.3171 80.0511H26.3279H21.9254C19.3307 80.0511 16.6783 80.3053 15.3586 80.6499M28.5128 41.7628L15.106 79.6823M28.5128 41.7628C30.1592 34.9319 32.6875 29.0906 36.3981 23.5284C37.6688 21.6239 40.0887 18.8686 42.7134 16.237C45.3382 13.6053 48.0862 11.1791 49.9855 9.90526M28.5128 41.7628L49.9855 9.90526M15.3586 80.6499L15.106 79.6823M15.3586 80.6499C15.3586 80.6499 15.3587 80.6499 15.3587 80.6499L15.106 79.6823M15.3586 80.6499C8.61922 82.4101 3.42682 87.6293 1.65939 94.4324C1.65962 94.4315 1.65958 94.4316 1.65929 94.4329C1.65864 94.4358 1.65669 94.4446 1.65375 94.4607C1.6497 94.4828 1.64479 94.513 1.63923 94.5525C1.62803 94.6322 1.61592 94.7371 1.60327 94.8697C1.57797 95.1348 1.55271 95.4872 1.52784 95.9254C1.47817 96.8006 1.43167 97.99 1.38855 99.453C1.30236 102.378 1.23041 106.371 1.17281 111.08C1.05762 120.497 1 132.76 1 145.025C1 157.29 1.05762 169.553 1.17281 178.97C1.23041 183.679 1.30236 187.672 1.38855 190.597C1.43167 192.06 1.47817 193.249 1.52784 194.124C1.55271 194.562 1.57797 194.915 1.60327 195.18C1.61592 195.313 1.62803 195.417 1.63923 195.497C1.64479 195.537 1.6497 195.567 1.65375 195.589C1.65743 195.609 1.65955 195.618 1.65954 195.618L1.65939 195.617C3.42682 202.42 8.61926 207.64 15.3587 209.4L15.106 210.367M15.106 79.6823C8.01267 81.535 2.54916 87.0306 0.691524 94.1809C-0.230508 97.7295 -0.230508 192.32 0.691524 195.869C2.54916 203.019 8.01267 208.515 15.106 210.367M15.106 210.367L15.3587 209.4C15.774 209.508 16.5677 209.615 18.4532 209.7C20.3155 209.785 23.1716 209.846 27.6602 209.89C36.6337 209.979 52.0815 209.999 79.0387 209.999C82.5639 209.999 85.8944 209.999 89.0417 209.999C116.13 210.003 129.644 210.004 136.873 209.737C140.919 209.588 142.908 209.356 144.181 209.023C145.15 208.77 145.692 208.469 146.519 208.009C146.751 207.879 147.006 207.738 147.3 207.581L147.771 208.463M15.106 210.367C17.2244 210.921 25.1283 210.999 79.0387 210.999C138.154 210.999 142.61 211.111 146.132 209.353C146.643 209.098 147.135 208.803 147.771 208.463M147.771 208.463L147.3 207.581C151.75 205.203 155.635 199.864 156.597 194.776L156.597 194.776L156.597 194.774L156.598 194.769L156.602 194.747C156.604 194.733 156.606 194.715 156.608 194.692L156.61 194.674C156.614 194.638 156.618 194.597 156.622 194.549C156.625 194.513 156.628 194.473 156.632 194.429C156.647 194.226 156.662 193.956 156.676 193.617C156.706 192.941 156.734 192.012 156.76 190.833C156.812 188.477 156.856 185.142 156.891 180.88C156.962 172.358 157 160.138 157 144.643C157 142.773 157 140.973 157 139.239C157.001 116.695 157.002 105.461 156.746 99.3535C156.607 96.0612 156.396 94.3353 156.095 93.1576C155.844 92.1723 155.53 91.5609 155.058 90.6388C154.977 90.4811 154.891 90.3143 154.801 90.135L155.693 89.684M147.771 208.463C152.495 205.939 156.563 200.34 157.58 194.962C157.85 193.532 158 175.636 158 144.643C158 98.9889 158.067 94.7703 156.495 91.2931C156.265 90.7835 155.999 90.2898 155.693 89.684M155.693 89.684L154.801 90.135C154.127 88.8021 152.939 87.2451 151.547 85.822C150.155 84.3991 148.622 83.1754 147.3 82.4689L147.771 81.5869M155.693 89.684C154.224 86.777 150.653 83.1266 147.771 81.5869M147.771 81.5869L147.3 82.4689C143.994 80.702 141.083 80.0511 136.152 80.0511H131.75H130.76L130.75 79.0619L130.566 62.053C130.399 46.639 130.294 44.7895 129.565 41.7628C127.056 31.3559 122.711 23.529 115.398 16.2194C107.89 8.71628 100.074 4.37194 89.9198 2.05071M147.771 81.5869C144.285 79.724 141.203 79.0511 136.152 79.0511H131.75L131.566 62.0422C131.4 46.6835 131.3 44.6932 130.537 41.5285C127.987 30.9488 123.553 22.9565 116.105 15.5121C108.467 7.87857 100.484 3.43977 90.1426 1.07585L89.9198 2.05071M89.9198 2.05071C88.2945 1.67924 84.9663 1.34438 81.5854 1.15661M89.9198 2.05071L81.5854 1.15661M49.9855 9.90526C56.9838 5.21189 65.0175 2.20243 73.4078 1.13139M49.9855 9.90526L73.4078 1.13139M73.4078 1.13139C74.9273 0.937452 78.1991 0.968537 81.5854 1.15661M73.4078 1.13139L81.5854 1.15661M113.995 80.0511H114.995V79.0511V63.8705C114.995 59.2941 114.951 55.2496 114.873 52.1637C114.796 49.1239 114.685 46.9148 114.533 46.0907C112.798 36.6823 106.68 27.5989 98.4667 22.2055C95.3176 20.1374 90.23 18.0661 86.2479 17.2195L86.0399 18.1977L86.2479 17.2195C84.4702 16.8417 81.6547 16.6679 78.9133 16.6728C76.1732 16.6777 73.3724 16.8612 71.6264 17.2463L71.6264 17.2463C59.7936 19.8569 49.8178 28.2865 45.5693 39.3033L46.5024 39.6631L45.5693 39.3033C44.4211 42.281 43.7853 44.1894 43.4536 47.4918C43.1285 50.729 43.093 55.3258 43.0891 63.6911L43.0821 79.0506L43.0817 80.0511H44.0821H79.0387H113.995Z" fill="white" stroke="#111111" stroke-width="2"/>
<path d="M91.763 159.558H65.85L52.8945 136.779L65.85 114H91.763L104.718 136.779L91.763 159.558ZM66.4629 158.482H91.1501L103.495 136.779L91.1501 115.076H66.4629L54.1182 136.779L66.4629 158.482Z" fill="#111111"/>
<path d="M83.4602 137.736C83.2842 137.757 82.9682 137.908 82.824 138.171C82.7158 138.367 82.7794 138.623 82.9724 138.735C83.036 138.771 83.106 138.788 83.1739 138.788C83.3117 138.788 83.4432 138.717 83.5174 138.584C83.5302 138.571 83.5683 138.547 83.562 138.545C83.7825 138.517 83.9395 138.313 83.9119 138.089C83.8822 137.867 83.6807 137.708 83.4602 137.736Z" fill="#FAFF00"/>
<path d="M74.8239 136.692C74.8217 136.649 74.8239 136.602 74.839 136.554C74.8239 136.6 74.8195 136.647 74.8239 136.692Z" fill="#FAFF00"/>
<path d="M74.8239 136.692C74.8217 136.649 74.8239 136.602 74.839 136.554C74.8239 136.6 74.8195 136.647 74.8239 136.692Z" fill="#FAFF00"/>
<path d="M74.8269 136.712C74.8269 136.705 74.8223 136.698 74.8223 136.691C74.8223 136.698 74.8246 136.705 74.8269 136.712Z" fill="#FAFF00"/>
<path d="M74.8269 136.712C74.8269 136.705 74.8223 136.698 74.8223 136.691C74.8223 136.698 74.8246 136.705 74.8269 136.712Z" fill="#FAFF00"/>
<path d="M95.3859 144.013C94.5651 143.959 93.9671 143.391 93.8038 143.219C93.5896 142.993 92.9407 142.033 92.419 141.262C92.0076 140.655 91.6534 140.13 91.4774 139.906C91.1529 139.495 90.574 137.715 90.451 137.082C90.4276 136.963 90.417 136.823 90.4149 136.675C91.0278 136.458 92.1751 136.412 92.4635 136.466C92.6904 136.507 92.9131 136.656 93.2609 136.998C93.5472 137.278 93.789 137.368 94.0074 137.368C94.1665 137.368 94.3128 137.321 94.4549 137.265C94.6839 137.174 94.8939 136.92 95.0359 136.712C95.3138 136.686 95.5767 136.526 95.8058 136.359C96.1833 136.079 96.2257 135.62 95.933 134.996C95.8736 134.869 95.7994 134.699 95.7167 134.514C95.6276 134.309 95.528 134.087 95.4304 133.874C95.231 133.444 95.0423 133.119 94.7603 132.927C94.703 132.888 94.5312 132.731 94.3955 132.606C94.2979 132.518 94.194 132.424 94.0943 132.333C94.1219 132.256 94.1431 132.178 94.1495 132.098C94.1643 131.894 94.1007 131.707 93.965 131.56C93.8547 131.44 93.649 131.302 93.2948 131.313C93.1103 131.319 92.9046 131.373 92.701 131.457C92.173 131.311 91.3035 131.313 91.0066 131.326C90.8094 131.336 90.4891 131.345 90.1456 131.356C89.6112 131.373 89.0046 131.392 88.7035 131.416C88.2518 131.453 87.6898 131.435 87.4735 131.41C87.2953 131.388 87.1087 131.345 86.9136 131.298C86.5637 131.216 86.165 131.119 85.7048 131.134C84.9986 131.151 84.303 131.586 83.9701 131.795L83.8979 131.84C83.7643 131.92 83.1027 132.021 82.3689 132.004C81.4146 131.98 78.7658 131.799 78.0045 131.715C77.803 131.694 77.5104 131.634 77.1732 131.565C76.2613 131.377 75.0143 131.123 73.8585 131.24C72.5267 131.373 71.2182 131.728 69.9733 132.297L69.687 132.43C68.773 132.854 67.5176 133.435 66.207 133.336C65.0915 133.25 63.2061 132.654 63.2061 130.949C63.2061 130.038 64.241 129.569 64.6843 129.569C65.3799 129.569 66.0055 130.129 66.0606 130.284C66.0606 130.577 66.0012 130.77 65.9546 130.925C65.8888 131.143 65.7892 131.472 66.0882 131.756C66.3278 131.982 66.8432 132.101 67.2885 131.903C67.6554 131.741 68.0901 131.33 68.0901 130.284C68.0901 128.4 66.067 127.524 64.6991 127.524C63.2867 127.524 61.2402 128.745 61.2402 130.949C61.2402 133.179 62.6993 134.834 65.0448 135.269C66.7032 135.577 67.8145 135.424 68.614 135.14C68.3849 135.87 68.0435 136.899 67.7551 137.545C67.2673 138.634 66.0437 140.169 65.8507 140.321C65.7998 140.356 65.7404 140.393 65.6768 140.429C65.3947 140.599 65.0448 140.81 64.9324 141.17C64.8603 141.404 64.012 143.514 63.7024 144.269C63.4161 144.969 63.6981 145.359 63.9251 145.673C63.976 145.744 64.0332 145.819 64.0862 145.905C64.3556 146.34 64.8582 146.519 65.2887 146.519C65.4732 146.519 65.6471 146.484 65.7828 146.424C66.2981 146.192 66.2536 145.451 66.1539 145.148C66.0946 144.971 65.9525 144.851 65.7722 144.698C65.7234 144.657 65.6534 144.597 65.6025 144.547C65.7425 144.198 66.2324 143.346 66.3639 143.208C66.5251 143.06 67.3097 142.517 67.9353 142.155C68.5864 141.781 70.056 140.802 70.758 140.291C71.1525 140.005 71.5172 139.689 71.7781 139.45C72.0474 139.936 72.1789 140.276 72.1874 140.388C72.2786 142.037 72.2128 142.39 72.198 142.444C72.181 142.509 72.1556 142.571 72.1301 142.636C71.9965 142.971 71.7696 143.533 72.41 144.239C72.6942 144.551 74.2635 146.166 74.887 146.304C74.8998 146.306 75.7438 146.459 76.5157 146.459C77.0332 146.459 77.521 146.39 77.7033 146.162C77.9006 145.916 77.9345 145.565 77.7967 145.245C77.6355 144.872 77.2856 144.635 76.8614 144.609C76.6642 144.597 76.4924 144.614 76.3397 144.629C76.0195 144.661 75.8435 144.678 75.5657 144.446C75.3918 144.3 74.9273 143.912 74.8955 143.798C74.9634 143.503 75.5105 141.387 75.7056 140.845C75.7332 140.765 75.7714 140.668 75.8117 140.56C75.9898 140.087 76.1637 139.605 76.2867 139.15C76.783 139.288 77.6673 139.497 78.6704 139.579C79.6756 139.661 80.4051 139.575 80.9926 139.508C81.0774 139.497 81.1537 139.491 81.2322 139.482C81.1241 139.938 80.9798 140.586 80.9268 141.064C80.8823 141.454 80.8505 142.048 80.8229 142.571C80.8017 142.991 80.772 143.514 80.7551 143.602C80.666 143.871 80.7975 144.129 80.9247 144.381C80.9671 144.467 81.0392 144.609 81.0477 144.659C81.0604 144.775 81.2174 145.66 81.4846 145.912C81.7221 146.134 82.6319 146.241 83.0518 146.241C83.1112 146.241 83.1599 146.239 83.196 146.235C83.7728 146.17 84.2055 145.74 84.1567 145.275L84.1524 145.217C84.1334 145.003 84.0909 144.506 83.3657 144.461C83.2575 144.454 83.1599 144.454 83.0751 144.454C83.0454 144.454 83.0136 144.454 82.9839 144.454C82.9712 144.418 82.9564 144.379 82.9436 144.338C82.8694 144.134 82.8015 143.938 82.8376 143.768C82.9076 143.449 83.4335 141.992 83.7007 141.344C83.9001 140.864 84.3688 139.932 84.5723 139.536C84.6741 139.523 84.778 139.508 84.8777 139.495C85.1068 139.467 85.3209 139.439 85.5097 139.402C85.7981 139.348 86.1247 139.23 86.3559 139.135C86.8563 139.768 87.7258 140.694 88.1118 140.995C88.343 141.176 88.7735 141.596 89.1891 142.001C89.6408 142.442 90.0692 142.859 90.3025 143.029L90.4743 143.154C91.3523 143.785 91.8358 144.198 91.9143 144.379C92.1603 144.945 93.5451 145.959 94.0795 146.05C94.0859 146.052 94.4549 146.103 94.8917 146.103C95.494 146.103 96.232 146.004 96.3614 145.533C96.4462 145.227 96.4929 144.788 96.2469 144.437C96.1154 144.263 95.8651 144.045 95.3859 144.013ZM63.4924 129.115C63.4861 128.973 63.4055 128.852 63.291 128.786C63.6854 128.538 64.1096 128.392 64.4701 128.349V128.377C64.4701 128.54 64.5655 128.68 64.7034 128.745C64.6928 128.745 64.6822 128.743 64.6716 128.743C64.3068 128.745 63.8784 128.876 63.4924 129.115ZM67.2737 130.277C67.2737 130.723 67.1719 131.026 66.9853 131.132C66.8898 131.186 66.7817 131.184 66.7074 131.175C66.7096 131.171 66.7096 131.166 66.7117 131.162C66.7689 130.977 66.8538 130.695 66.8538 130.28C66.8538 130.161 66.8156 130.032 66.7456 129.903L66.7859 129.862C66.9428 129.703 66.9428 129.444 66.7859 129.283C66.629 129.124 66.3745 129.124 66.2154 129.283L66.2006 129.298C65.8592 129.037 65.4202 128.833 64.9642 128.768C65.1339 128.725 65.2611 128.581 65.2696 128.4C66.1688 128.581 67.2737 129.167 67.2737 130.277ZM62.6993 129.274C62.7163 129.416 62.799 129.535 62.9198 129.595C62.7693 129.765 62.642 129.959 62.5487 130.172C62.4363 130.183 62.3303 130.236 62.2603 130.338C62.1309 130.521 62.1733 130.777 62.3536 130.908L62.3875 130.932C62.3875 130.936 62.3875 130.938 62.3875 130.94C62.3875 131.308 62.4512 131.642 62.5657 131.946C62.4194 131.978 62.3048 132.086 62.2667 132.232C62.1161 131.838 62.0355 131.405 62.0355 130.94C62.0355 130.247 62.3091 129.692 62.6993 129.274ZM62.4978 132.718C62.5445 132.738 62.5933 132.749 62.6463 132.749H62.6887C62.7905 132.749 62.8817 132.706 62.9538 132.643C63.1637 132.919 63.4246 133.155 63.7194 133.353C63.573 133.313 63.4118 133.356 63.3079 133.48L63.257 133.541C63.2464 133.554 63.2422 133.569 63.2337 133.584C62.9368 133.332 62.6887 133.043 62.4978 132.718ZM63.9039 134.029L63.9187 134.012C64.0523 133.853 64.0396 133.623 63.9039 133.474C64.4149 133.78 65.0109 133.98 65.6259 134.083C65.6153 134.092 65.6025 134.096 65.5941 134.107L65.452 134.26C65.3905 134.326 65.3629 134.408 65.3523 134.49C65.295 134.479 65.2399 134.473 65.1784 134.462C64.7097 134.372 64.2813 134.225 63.9039 134.029ZM82.1971 143.053C81.9935 143.096 81.7815 143.141 81.7751 143.128C81.7751 143.105 81.79 143.025 81.8621 142.95C81.9257 142.883 82.0148 142.844 82.1059 142.844C81.8833 142.844 81.703 143.027 81.703 143.253C81.703 143.451 81.8451 143.611 82.0317 143.647C81.966 144.028 82.0826 144.368 82.1717 144.618C82.1908 144.672 82.2099 144.724 82.2247 144.775C82.3816 145.275 82.8079 145.27 83.0645 145.272C83.1345 145.272 83.213 145.272 83.302 145.277C83.3148 145.277 83.3254 145.279 83.3338 145.279C83.3338 145.281 83.3338 145.285 83.3338 145.288L83.336 145.318C83.3041 145.35 83.2193 145.406 83.0921 145.421C82.8673 145.443 82.2586 145.354 82.0232 145.288C81.9554 145.124 81.8557 144.758 81.8345 144.569C81.8133 144.373 81.7179 144.188 81.6267 144.007C81.5927 143.94 81.544 143.843 81.5249 143.787C81.5567 143.636 81.5736 143.35 81.6139 142.614C81.6161 142.562 81.6203 142.511 81.6224 142.457C81.667 142.474 81.7136 142.485 81.7624 142.485C81.809 142.485 81.8578 142.476 81.9045 142.457C81.9533 142.437 81.9872 142.427 82.0126 142.418C82.1059 142.386 82.1611 142.364 82.2714 142.291C82.458 142.168 82.5131 141.917 82.3922 141.725C82.2714 141.536 82.0232 141.48 81.8345 141.602C81.7963 141.628 81.7963 141.628 81.7539 141.641C81.7306 141.65 81.7009 141.66 81.6648 141.673C81.6776 141.48 81.6924 141.299 81.7094 141.155C81.7666 140.647 81.9426 139.893 82.0466 139.467C82.2205 139.491 82.3986 139.527 82.5746 139.564C82.8736 139.628 83.179 139.693 83.4802 139.693C83.5099 139.693 83.5396 139.689 83.5692 139.689C83.3487 140.132 83.0815 140.679 82.9394 141.025C82.7528 141.49 82.4071 142.425 82.1971 143.053ZM95.6001 145.206C95.3286 145.29 94.5545 145.305 94.2004 145.245C93.9098 145.189 92.7689 144.347 92.6395 144.052C92.4911 143.71 92.0415 143.311 91.3226 142.778C91.4371 142.648 91.4625 142.455 91.3714 142.3C91.3714 142.3 91.3183 142.207 91.2844 142.067C91.2335 141.848 91.0151 141.712 90.7988 141.766C90.6206 141.809 90.504 141.968 90.4976 142.145C90.2813 141.947 89.995 141.669 89.7342 141.413C89.5921 141.273 89.4542 141.139 89.3206 141.01C89.3418 141.012 89.3609 141.021 89.3842 141.019C89.6069 141 89.7702 140.804 89.7532 140.578C89.7363 140.375 89.6239 140.27 89.556 140.222C89.3694 140.093 89.17 140.154 89.0407 140.192L88.9601 140.216C88.8392 140.25 88.7523 140.337 88.7056 140.442C88.6674 140.41 88.625 140.371 88.5911 140.345C88.5211 140.291 88.4363 140.214 88.343 140.126C88.343 140.126 88.343 140.126 88.343 140.123C88.3451 140.111 88.3472 140.098 88.3472 140.085C88.4596 139.975 88.5041 139.807 88.4469 139.65C88.3557 139.392 88.1436 139.321 87.9888 139.338C87.8658 139.351 87.7831 139.409 87.7195 139.484C87.255 138.976 86.7991 138.429 86.7249 138.276C86.5276 137.874 85.6136 137.077 85.34 136.843C85.1704 136.696 84.9159 136.72 84.7717 136.892C84.6296 137.065 84.6508 137.323 84.8205 137.469C85.1979 137.792 85.6263 138.193 85.8532 138.447C85.6857 138.507 85.5033 138.565 85.3506 138.595C85.3146 138.602 85.2764 138.608 85.2382 138.612C85.34 138.447 85.3188 138.229 85.1704 138.094C85.005 137.943 84.7505 137.958 84.602 138.128C84.5087 138.236 84.3412 138.442 84.2818 138.61C84.2648 138.655 84.2627 138.701 84.2627 138.748C84.0761 138.776 83.8831 138.81 83.6901 138.856C83.4441 138.914 83.1048 138.84 82.7485 138.763C82.5301 138.716 82.3074 138.67 82.0784 138.645C82.1123 138.589 82.1484 138.53 82.1865 138.477C82.3138 138.292 82.2714 138.038 82.089 137.906C81.9066 137.777 81.6564 137.82 81.527 138.005C81.2895 138.345 81.2152 138.541 81.1919 138.66C81.0922 138.67 80.9968 138.679 80.8887 138.692C80.4518 138.744 79.928 138.8 79.2727 138.787C79.2939 138.759 79.313 138.729 79.3257 138.692C79.402 138.481 79.296 138.244 79.0861 138.167C78.6174 137.992 78.2399 138.47 78.0957 138.69C77.3852 138.591 76.7787 138.44 76.4288 138.341C76.4415 138.21 76.4479 138.083 76.4394 137.964C76.4246 137.738 76.2294 137.568 76.011 137.583C75.8901 137.592 75.7883 137.657 75.7184 137.747C75.6738 137.65 75.5911 137.57 75.483 137.534C75.4639 137.527 75.4193 137.517 75.3621 137.506C75.3324 137.502 75.2688 137.489 75.2221 137.476C75.1267 137.368 74.9761 137.316 74.8255 137.353C74.6092 137.407 74.4777 137.629 74.5308 137.848C74.6156 138.199 75.0037 138.27 75.2497 138.315C75.2836 138.324 75.3197 138.328 75.3536 138.328C75.4575 138.328 75.5529 138.283 75.6272 138.214C75.6081 138.475 75.536 138.793 75.4405 139.116C75.4236 139.039 75.3939 138.965 75.3366 138.905C75.2327 138.78 75.0355 138.55 74.7556 138.597C74.6007 138.623 74.4714 138.731 74.412 138.884C74.3293 139.092 74.429 139.331 74.6368 139.415C74.6665 139.428 74.6983 139.437 74.7301 139.441C74.7513 139.465 74.7683 139.484 74.7789 139.495C74.8552 139.572 74.9549 139.611 75.0567 139.611C75.15 139.611 75.2433 139.572 75.3197 139.506C75.2242 139.79 75.1246 140.057 75.0482 140.261C75.0058 140.373 74.9676 140.474 74.9379 140.558C74.9252 140.595 74.9104 140.64 74.8934 140.69C74.8595 140.563 74.8128 140.399 74.7916 140.343C74.711 140.136 74.4841 140.039 74.2784 140.117C74.0727 140.194 73.9688 140.429 74.0409 140.64C74.06 140.698 74.1172 140.909 74.1533 141.051C74.1999 141.234 74.3632 141.357 74.5435 141.357C74.5774 141.357 74.6113 141.353 74.6453 141.344C74.6686 141.338 74.6856 141.322 74.7068 141.314C74.6495 141.514 74.5901 141.729 74.5308 141.949C74.4799 141.865 74.4014 141.796 74.3017 141.766C74.0875 141.703 73.8649 141.828 73.8033 142.046C73.7503 142.229 73.8118 142.407 74.0239 142.707C74.0896 142.799 74.1872 142.844 74.2911 142.862C74.1978 143.223 74.1257 143.509 74.1024 143.609C73.9709 144.177 74.4926 144.614 75.044 145.074C75.5784 145.52 76.0386 145.475 76.4055 145.44C76.5412 145.427 76.6684 145.415 76.8042 145.423C76.9356 145.432 77.0014 145.49 77.0332 145.537C77.0502 145.563 77.0586 145.587 77.0629 145.606C76.6769 145.684 75.449 145.589 75.0588 145.503C74.7937 145.417 73.6761 144.429 72.9954 143.682C72.7006 143.359 72.7536 143.228 72.8702 142.941C72.9105 142.842 72.9466 142.745 72.972 142.648C72.9954 142.556 73.0611 142.298 73.0187 141.099C73.025 141.116 73.0314 141.127 73.0357 141.135C73.1078 141.282 73.2562 141.37 73.4068 141.37C73.4662 141.37 73.5234 141.357 73.5807 141.329C73.78 141.228 73.8649 140.993 73.7652 140.791C73.7503 140.752 73.7122 140.591 73.6803 140.448C73.6316 140.227 73.4153 140.087 73.2011 140.136C73.1078 140.158 73.0335 140.214 72.9784 140.283C72.9402 139.917 72.6242 139.275 72.2446 138.651C72.251 138.651 72.2573 138.651 72.2637 138.651C72.4546 138.632 72.6009 138.479 72.6242 138.294C72.6391 138.259 72.673 138.199 72.7027 138.156C72.8257 137.969 72.7748 137.715 72.5903 137.59C72.4058 137.465 72.1556 137.514 72.0326 137.704C71.9371 137.85 71.8841 137.962 71.8565 138.05C71.2521 137.17 70.2405 135.439 70.2299 135.422C70.1154 135.228 69.8694 135.164 69.6786 135.278C69.4877 135.392 69.4241 135.644 69.5365 135.838C69.5789 135.909 70.5756 137.616 71.1991 138.522C71.2521 138.597 71.2967 138.668 71.3454 138.741C71.1037 138.967 70.7071 139.321 70.2872 139.624C70.1239 139.742 69.9161 139.889 69.687 140.046C69.7295 139.833 69.6022 139.622 69.3923 139.57C69.1781 139.516 68.9575 139.648 68.9045 139.867C68.8578 140.059 68.8515 140.225 68.8515 140.306C68.8515 140.399 68.8875 140.481 68.9384 140.55C68.3955 140.911 67.8526 141.258 67.5345 141.441C67.3733 141.533 67.1931 141.643 67.0128 141.759C67.0086 141.734 67.0043 141.712 67.0022 141.699C66.9895 141.484 66.8156 141.314 66.5993 141.314C66.3766 141.314 66.1963 141.497 66.1963 141.723C66.1963 141.798 66.2069 142.039 66.2981 142.235C66.0797 142.388 65.9037 142.521 65.8146 142.605C65.6195 142.788 64.7267 144.216 64.7627 144.646C64.7861 144.932 65.0236 145.133 65.2547 145.326C65.2993 145.363 65.3608 145.415 65.3968 145.451C65.4096 145.522 65.4117 145.628 65.4011 145.692C65.2484 145.72 64.9069 145.692 64.7691 145.468C64.7034 145.363 64.6376 145.272 64.5761 145.186C64.3768 144.913 64.3365 144.855 64.4489 144.584C64.6609 144.065 65.611 141.716 65.7022 141.417C65.7383 141.342 65.9673 141.204 66.0882 141.131C66.1624 141.086 66.2345 141.043 66.2981 141C66.4423 140.901 66.7583 140.541 67.1146 140.074C67.1252 140.171 67.1464 140.291 67.1655 140.388C67.2037 140.584 67.3712 140.72 67.56 140.72C67.5854 140.72 67.6109 140.718 67.6363 140.713C67.8547 140.67 67.9968 140.455 67.9544 140.233C67.9544 140.231 67.9162 140.042 67.912 139.964C67.9078 139.74 67.7296 139.562 67.5091 139.562C67.5006 139.562 67.4942 139.566 67.4857 139.566C67.876 139.008 68.2619 138.386 68.4888 137.88C68.9978 136.742 69.6234 134.596 69.651 134.503C69.6976 134.344 69.6446 134.171 69.5153 134.068C69.388 133.965 69.2099 133.95 69.0678 134.032C68.4528 134.382 67.6406 134.705 66.2345 134.602C66.3215 134.46 66.3151 134.286 66.2176 134.15C66.5378 134.169 66.8495 134.156 67.1528 134.12C67.1698 134.18 67.1952 134.24 67.2397 134.29L67.333 134.391C67.4115 134.479 67.5218 134.524 67.6299 134.524C67.7275 134.524 67.8251 134.488 67.9014 134.417C68.0308 134.296 68.0605 134.109 67.9947 133.954C68.491 133.823 68.9533 133.646 69.3732 133.463C69.422 133.579 69.5174 133.674 69.6489 133.704L69.7994 133.739C69.8291 133.745 69.8588 133.75 69.8864 133.75C70.0709 133.75 70.2384 133.62 70.2787 133.429C70.3063 133.304 70.2681 133.181 70.196 133.089L70.3021 133.039C70.6647 132.873 71.0316 132.736 71.4048 132.611C71.4006 132.805 71.5257 132.979 71.7187 133.02C71.7463 133.026 71.7738 133.028 71.8014 133.028C71.988 133.028 72.1556 132.895 72.1958 132.703L72.234 132.518C72.2446 132.464 72.2446 132.413 72.234 132.363C72.4779 132.301 72.7218 132.243 72.9657 132.195C72.9381 132.294 72.936 132.396 72.9657 132.492C73.0187 132.665 73.1587 132.794 73.3474 132.845C73.3834 132.856 73.4195 132.861 73.4534 132.861C73.6316 132.861 73.7927 132.742 73.8415 132.559C73.8733 132.443 73.8521 132.327 73.7927 132.232C73.7927 132.178 73.78 132.129 73.7588 132.079C73.8182 132.073 73.8776 132.06 73.937 132.053C74.2763 132.019 74.6304 132.025 74.9846 132.051C74.7916 132.053 74.6198 132.187 74.5859 132.385C74.5604 132.542 74.6241 132.693 74.7407 132.781C74.7555 132.828 74.7789 132.876 74.8128 132.916C74.8934 133.015 75.0079 133.067 75.1246 133.067C75.2136 133.067 75.3048 133.037 75.379 132.975C75.5402 132.839 75.6081 132.647 75.5593 132.46C75.4872 132.185 75.22 132.09 75.0991 132.06C75.4427 132.09 75.782 132.139 76.1064 132.195C76.0683 132.221 76.0322 132.251 76.0047 132.292C75.9029 132.439 75.9071 132.63 76.0047 132.77C76.0004 132.88 76.0386 132.992 76.1213 133.076C76.1998 133.155 76.3037 133.196 76.4055 133.196C76.5073 133.196 76.6112 133.155 76.6896 133.076C76.7978 132.966 76.8529 132.815 76.8402 132.662C76.8296 132.533 76.7723 132.408 76.679 132.305C76.7914 132.327 76.9017 132.35 77.0056 132.372C77.364 132.445 77.6715 132.507 77.9091 132.533C78.0193 132.546 78.1741 132.559 78.3544 132.576C78.3968 132.779 78.5007 132.985 78.6301 133.071C78.698 133.119 78.7764 133.14 78.8528 133.14C78.9821 133.14 79.1115 133.076 79.1878 132.957C79.2515 132.863 79.2642 132.751 79.2409 132.647C79.8686 132.693 80.5854 132.74 81.2068 132.774C81.1792 132.893 81.1644 133.024 81.1898 133.142C81.2301 133.336 81.404 133.483 81.5927 133.483C81.6182 133.483 81.6436 133.48 81.6712 133.474C81.8896 133.427 82.0296 133.226 81.9829 133.007C81.9829 132.99 81.9935 132.949 81.9999 132.927C82.019 132.891 82.0275 132.852 82.036 132.815C82.1484 132.82 82.2544 132.824 82.3413 132.826C82.8673 132.839 83.8534 132.796 84.2776 132.559C84.3242 132.734 84.4727 132.865 84.6593 132.865C84.882 132.865 85.0622 132.682 85.0622 132.456V132.161C85.0622 132.15 85.058 132.142 85.0559 132.131C85.1895 132.073 85.3273 132.023 85.4652 131.993C85.463 132.01 85.4546 132.025 85.4546 132.043C85.4546 132.269 85.6348 132.452 85.8575 132.452H85.9423C86.165 132.452 86.3453 132.269 86.3453 132.043C86.3453 132.034 86.341 132.025 86.341 132.017C86.4683 132.04 86.5955 132.068 86.7249 132.101C86.9348 132.15 87.1511 132.2 87.3738 132.228C87.5668 132.251 87.8976 132.264 88.2391 132.26C88.2072 132.286 88.1754 132.314 88.1521 132.35L88.097 132.436C87.9761 132.626 88.0291 132.88 88.2157 133.003C88.2836 133.048 88.3599 133.067 88.4342 133.067C88.5656 133.067 88.695 133 88.7735 132.88L88.8286 132.794C88.9452 132.609 88.8965 132.368 88.7205 132.241C88.7332 132.241 88.748 132.238 88.7608 132.238C88.9898 132.219 89.4288 132.204 89.8678 132.191C89.8678 132.307 89.9123 132.424 90.0077 132.503L90.0586 132.546C90.135 132.611 90.2262 132.641 90.3152 132.641C90.4319 132.641 90.5443 132.591 90.6249 132.495C90.7033 132.4 90.7267 132.279 90.7076 132.165C90.8369 132.161 90.9515 132.157 91.0405 132.152C91.2462 132.142 91.4901 132.144 91.7255 132.157C91.7149 132.17 91.7022 132.182 91.6916 132.195C91.5537 132.372 91.5834 132.63 91.7573 132.77C91.9312 132.91 92.1857 132.88 92.3236 132.703C92.4635 132.525 92.6713 132.378 92.8665 132.277C92.8686 132.277 92.8686 132.275 92.8707 132.275C93.0488 132.182 93.2185 132.129 93.3139 132.122C93.2461 132.245 93.0764 132.439 92.911 132.574C92.7371 132.716 92.7095 132.972 92.8495 133.149C92.9301 133.25 93.0467 133.302 93.1634 133.302C93.2524 133.302 93.3394 133.272 93.4157 133.211C93.4327 133.198 93.456 133.179 93.4793 133.158C93.4518 133.214 93.4327 133.274 93.4327 133.338V133.474C93.4327 133.7 93.6129 133.883 93.8356 133.883C94.0328 133.883 94.1877 133.737 94.2237 133.547C94.2555 133.573 94.2852 133.597 94.3128 133.614C94.4464 133.704 94.5906 133.988 94.7009 134.227C94.7963 134.436 94.8939 134.656 94.9808 134.854C95.0656 135.045 95.142 135.222 95.2056 135.353C95.3307 135.618 95.3265 135.702 95.3328 135.702C95.0678 135.898 94.9744 135.909 94.9766 135.911C94.9129 135.9 94.8218 135.872 94.7369 135.848C94.5312 135.79 94.4188 135.758 94.2895 135.79C94.0731 135.844 93.9417 136.068 93.9968 136.285C94.0201 136.382 94.0774 136.46 94.1495 136.513C93.9904 136.576 93.9841 136.572 93.8229 136.414C93.4793 136.079 93.0955 135.756 92.6056 135.668C92.4847 135.646 92.2514 135.633 91.9651 135.637C92.0012 135.547 92.0097 135.441 91.9736 135.342C91.8973 135.129 91.6661 135.022 91.4562 135.099L91.3629 135.134C91.1529 135.211 91.0469 135.446 91.1232 135.659C91.1275 135.672 91.1381 135.683 91.1444 135.695C90.9133 135.723 90.6821 135.764 90.4637 135.818C90.4828 135.661 90.504 135.541 90.5167 135.5C90.5994 135.291 90.4997 135.052 90.2919 134.968C90.0841 134.884 89.8508 134.985 89.7681 135.196C89.713 135.336 89.6451 135.754 89.6196 136.212C89.5709 136.193 89.5157 136.167 89.4648 136.143C89.2634 136.049 89.0237 136.139 88.9304 136.346C88.8371 136.55 88.9262 136.793 89.1298 136.888C89.4139 137.019 89.5518 137.058 89.6366 137.067C89.6451 137.129 89.6515 137.194 89.6621 137.252C89.6769 137.325 89.7002 137.424 89.7299 137.542C89.7108 137.551 89.6917 137.551 89.6727 137.562L89.5878 137.613C89.397 137.73 89.3355 137.982 89.45 138.175C89.5263 138.302 89.6599 138.373 89.7957 138.373C89.8508 138.373 89.9038 138.358 89.9568 138.335C90.1413 138.927 90.3873 139.605 90.627 140.063C90.5888 140.083 90.5506 140.104 90.5188 140.136L90.4319 140.222C90.3216 140.33 90.1859 140.464 90.2134 140.69C90.2283 140.817 90.3258 140.954 90.4361 141.019C90.4997 141.056 90.5676 141.073 90.6355 141.073C90.7754 141.073 90.9112 141 90.9854 140.866C91.0002 140.838 91.0129 140.81 91.0214 140.78L91.0723 140.73C91.2547 140.991 91.5007 141.353 91.7573 141.731C92.4656 142.778 92.9852 143.537 93.2249 143.791C93.7974 144.396 94.5863 144.786 95.3371 144.838C95.4622 144.846 95.5534 144.876 95.5831 144.922C95.6107 144.956 95.6255 145.059 95.6001 145.206Z" fill="#FAFF00"/>
<path d="M78.792 135.834C78.8111 135.755 78.8047 135.675 78.7772 135.602C78.9023 135.458 78.9129 135.238 78.792 135.081C78.6542 134.902 78.4018 134.87 78.2258 135.01C78.0625 135.139 77.8631 135.453 77.9289 135.755C77.9713 135.948 78.1155 136.095 78.3064 136.14C78.3361 136.147 78.3679 136.151 78.3976 136.151C78.5842 136.151 78.7496 136.024 78.792 135.834Z" fill="#FAFF00"/>
<path d="M80.4067 136.859C80.5021 136.84 80.6782 136.771 80.7863 136.523C80.8287 136.424 80.9602 136.002 80.8118 135.75C80.6633 135.501 80.377 135.49 79.9635 135.557C79.7429 135.591 79.5923 135.8 79.6284 136.024C79.6538 136.194 79.7811 136.323 79.938 136.36C79.9232 136.418 79.921 136.478 79.9338 136.538C79.9719 136.732 80.1395 136.868 80.3282 136.868C80.3537 136.868 80.3791 136.865 80.4067 136.859Z" fill="#FAFF00"/>
<path d="M81.5068 134.91C81.6319 134.786 81.6658 134.588 81.5767 134.424C81.4707 134.226 81.2268 134.153 81.0296 134.26C80.7327 134.424 80.5758 134.678 80.6076 134.943C80.6351 135.162 80.7921 135.341 81.0126 135.399C81.0466 135.408 81.0805 135.412 81.1123 135.412C81.2926 135.412 81.4559 135.289 81.5025 135.106C81.5216 135.04 81.5216 134.973 81.5068 134.91Z" fill="#FAFF00"/>
<path d="M79.7798 135.27C79.7926 135.27 79.8053 135.272 79.8159 135.272C80.0216 135.272 80.1976 135.112 80.2167 134.899C80.2294 134.757 80.17 134.626 80.0661 134.544C80.0619 134.4 79.9813 134.26 79.8435 134.191C79.6441 134.09 79.4024 134.172 79.3027 134.374C79.2073 134.568 79.2094 134.783 79.3069 134.964C79.4045 135.136 79.5805 135.25 79.7798 135.27Z" fill="#FAFF00"/>
<path d="M78.5505 134.465C78.6014 134.465 78.6544 134.454 78.7053 134.433C78.8622 134.366 79.14 134.181 79.1931 133.905C79.2227 133.754 79.1782 133.602 79.0743 133.496C78.9174 133.337 78.6629 133.337 78.5038 133.496C78.4529 133.548 78.419 133.608 78.402 133.673C78.3999 133.675 78.3978 133.675 78.3957 133.677C78.19 133.763 78.0945 134.004 78.1794 134.213C78.2409 134.37 78.3914 134.465 78.5505 134.465Z" fill="#FAFF00"/>
<path d="M77.5292 133.619C77.5398 133.621 77.5525 133.621 77.5631 133.621C77.7709 133.621 77.947 133.46 77.9639 133.246C77.9745 133.126 77.9321 133.014 77.8558 132.932C77.877 132.717 77.7285 132.521 77.5143 132.489C77.2959 132.452 77.0881 132.609 77.0562 132.833C77.035 132.969 76.999 133.221 77.158 133.423C77.2471 133.537 77.3786 133.606 77.5292 133.619Z" fill="#FAFF00"/>
<path d="M74.2601 132.828C74.0523 132.75 73.8211 132.86 73.7426 133.073C73.6833 133.241 73.7384 133.422 73.8656 133.53C73.872 133.562 73.8847 133.594 73.8996 133.626C73.9696 133.771 74.1116 133.852 74.2601 133.852C74.3195 133.852 74.3831 133.84 74.4403 133.809C74.6142 133.721 74.7139 133.549 74.7033 133.357C74.6927 133.129 74.5167 132.923 74.2601 132.828Z" fill="#FAFF00"/>
<path d="M75.2498 134.111C75.3198 134.167 75.4025 134.193 75.4852 134.193C75.6019 134.193 75.7185 134.139 75.7991 134.036C75.8182 134.01 75.8351 133.984 75.8479 133.956C75.9687 133.868 76.0281 133.711 75.9963 133.545C75.9539 133.323 75.7249 133.183 75.5086 133.224C75.3877 133.248 75.1056 133.299 75.0356 133.594C75.0102 133.706 75.0017 133.919 75.2498 134.111Z" fill="#FAFF00"/>
<path d="M76.5741 134.452C76.6419 134.506 76.7289 134.538 76.8222 134.538C76.8328 134.538 76.8455 134.538 76.8561 134.536C77.0767 134.517 77.2421 134.319 77.2251 134.095C77.2124 133.94 77.1382 133.806 77.0173 133.718C76.7904 133.552 76.4956 133.628 76.3853 133.656C76.169 133.71 76.0375 133.933 76.0926 134.151C76.1457 134.37 76.362 134.502 76.5741 134.452Z" fill="#FAFF00"/>
<path d="M76.9229 134.987C76.9229 134.994 76.9208 135 76.9208 135.009C76.8232 135.084 76.7617 135.2 76.7617 135.334C76.7617 135.56 76.942 135.743 77.1647 135.743C77.5549 135.743 77.7288 135.31 77.7288 135.002C77.7288 134.783 77.5591 134.615 77.3428 134.604C77.1222 134.593 76.9399 134.77 76.9229 134.987Z" fill="#FAFF00"/>
<path d="M76.4096 136.068C76.4562 135.932 76.4286 135.79 76.3502 135.682C76.4244 135.484 76.3353 135.256 76.1423 135.166C75.9409 135.071 75.7012 135.159 75.6079 135.366C75.4998 135.605 75.4828 135.818 75.557 135.999C75.6185 136.147 75.7394 136.259 75.8963 136.315C75.9409 136.33 75.9854 136.339 76.0299 136.339C76.1954 136.341 76.3523 136.236 76.4096 136.068Z" fill="#FAFF00"/>
<path d="M75.1621 135.271C75.2554 135.271 75.3466 135.238 75.4229 135.174C75.4632 135.139 75.495 135.099 75.5183 135.055C75.6435 134.976 75.7219 134.827 75.705 134.668C75.6837 134.444 75.4865 134.278 75.2639 134.302C75.0327 134.326 74.8503 134.453 74.7761 134.64C74.7104 134.804 74.7422 134.991 74.8546 135.127C74.933 135.221 75.0475 135.271 75.1621 135.271Z" fill="#FAFF00"/>
<path d="M77.5225 137.086C77.338 137.201 77.1026 137.566 77.1535 137.883C77.1875 138.083 77.3571 138.225 77.5501 138.225C77.5713 138.225 77.5946 138.223 77.618 138.219C77.8194 138.184 77.9594 138.006 77.9552 137.805C77.9594 137.797 77.9637 137.786 77.97 137.777C78.0103 137.752 78.0464 137.719 78.0761 137.678C78.2097 137.498 78.1736 137.241 77.9976 137.106C77.8619 137.005 77.6625 137 77.5225 137.086Z" fill="#FAFF00"/>
<path d="M78.9401 136.623C78.7917 136.669 78.6729 136.778 78.6029 136.933C78.5117 137.136 78.499 137.429 78.5753 137.599C78.6432 137.751 78.7895 137.84 78.9422 137.84C78.9974 137.84 79.0525 137.829 79.1076 137.803C79.2921 137.719 79.3833 137.515 79.3324 137.323C79.3324 137.319 79.3324 137.314 79.3324 137.31C79.4406 137.207 79.4872 137.047 79.4427 136.895C79.377 136.682 79.1522 136.559 78.9401 136.623Z" fill="#FAFF00"/>
<path d="M77.186 136.146C76.9867 136.045 76.7449 136.127 76.6452 136.329C76.6304 136.359 76.5604 136.43 76.5222 136.467C76.4056 136.583 76.2105 136.777 76.3038 137.059C76.3611 137.231 76.518 137.339 76.6855 137.339C76.7279 137.339 76.7704 137.332 76.8128 137.317C76.9315 137.276 77.0206 137.186 77.0609 137.076C77.0694 137.067 77.0779 137.059 77.0863 137.05C77.1712 136.964 77.2899 136.848 77.3642 136.695C77.466 136.493 77.3854 136.247 77.186 136.146Z" fill="#FAFF00"/>
<path d="M80.3778 137.479C80.3269 137.557 80.2994 137.626 80.2782 137.684C80.2569 137.74 80.2442 137.77 80.2103 137.811C80.0682 137.985 80.0915 138.241 80.2612 138.388C80.3375 138.452 80.4287 138.482 80.5199 138.482C80.6365 138.482 80.7489 138.433 80.8295 138.336C80.9483 138.192 80.9971 138.067 81.0289 137.983C81.0352 137.966 81.0416 137.949 81.0501 137.934C81.1731 137.746 81.1222 137.492 80.9377 137.367C80.7511 137.24 80.5008 137.292 80.3778 137.479Z" fill="#FAFF00"/>
<path d="M82.3829 136.626C82.3893 136.525 82.3575 136.419 82.2875 136.335C82.1433 136.163 81.8888 136.144 81.7191 136.29C81.4795 136.497 81.4774 136.723 81.4986 136.839C81.5389 137.065 81.7128 137.235 82.0118 137.345C82.0563 137.362 82.103 137.368 82.1475 137.368C82.3129 137.368 82.4677 137.265 82.5271 137.097C82.5907 136.919 82.525 136.729 82.3829 136.626Z" fill="#FAFF00"/>
<path d="M83.4602 137.737C83.2842 137.758 82.9682 137.909 82.824 138.171C82.7158 138.367 82.7794 138.623 82.9724 138.735C83.036 138.772 83.106 138.789 83.1739 138.789C83.3117 138.789 83.4432 138.718 83.5174 138.585C83.5302 138.572 83.5683 138.548 83.562 138.546C83.7825 138.518 83.9395 138.313 83.9119 138.09C83.8822 137.868 83.6807 137.709 83.4602 137.737Z" fill="#FAFF00"/>
<path d="M80.1914 134.031C80.202 134.031 80.2126 134.031 80.2232 134.029C80.4458 134.014 80.6134 133.82 80.5985 133.594C80.5858 133.413 80.4607 133.267 80.2974 133.224C80.2168 133.088 80.0599 133.006 79.8945 133.03C79.6739 133.062 79.5212 133.269 79.553 133.493C79.587 133.738 79.8902 134.031 80.1914 134.031Z" fill="#FAFF00"/>
<path d="M82.1553 134.531L82.4267 134.229L82.1595 134.535C82.2359 134.604 82.3313 134.638 82.4267 134.638C82.537 134.638 82.6473 134.593 82.7279 134.501C82.8488 134.363 82.8615 134.163 82.7703 134.014C82.7957 133.902 82.7745 133.782 82.7024 133.683C82.571 133.5 82.3186 133.461 82.1404 133.594C81.9962 133.702 81.9114 133.853 81.9029 134.018C81.8902 134.292 82.0895 134.471 82.1553 134.531Z" fill="#FAFF00"/>
<path d="M83.0517 135.779C83.1281 135.588 83.0496 135.375 82.88 135.274C82.8163 135.097 82.634 134.985 82.4452 135.009C82.2247 135.041 82.072 135.248 82.1038 135.472C82.1462 135.775 82.3922 135.952 82.5301 136.008C82.5788 136.027 82.6297 136.038 82.6785 136.038C82.8375 136.038 82.9902 135.941 83.0517 135.779Z" fill="#FAFF00"/>
<path d="M84.1049 136.12C84.0943 136.103 84.0816 136.079 84.0752 136.062C84.0031 135.849 83.7741 135.735 83.562 135.81C83.3521 135.883 83.2397 136.116 83.3139 136.331C83.3309 136.383 83.4942 136.833 83.8377 136.867C83.8526 136.869 83.8653 136.869 83.8801 136.869C84.0837 136.869 84.2597 136.712 84.281 136.501C84.2937 136.346 84.2216 136.204 84.1049 136.12Z" fill="#FAFF00"/>
<path d="M82.153 140.203C82.1254 140.231 82.1021 140.255 82.083 140.274C81.9049 140.335 81.7882 140.515 81.8116 140.711C81.837 140.92 82.0088 141.073 82.2103 141.073C82.2272 141.073 82.2421 141.073 82.259 141.071C82.4202 141.051 82.5453 141.008 82.6599 140.853C82.6683 140.843 82.6811 140.825 82.7065 140.802C82.8677 140.647 82.8762 140.388 82.7235 140.223C82.5708 140.057 82.3142 140.05 82.153 140.203Z" fill="#FAFF00"/>
<path d="M73.3177 138.523C73.1502 138.702 73.0102 139.018 73.1757 139.311C73.2499 139.444 73.3856 139.52 73.5277 139.52C73.5956 139.52 73.6634 139.502 73.7249 139.466C73.8713 139.382 73.9455 139.218 73.9264 139.057C74.0558 138.893 74.0409 138.654 73.8882 138.506C73.727 138.353 73.4726 138.359 73.3177 138.523Z" fill="#FAFF00"/>
<path d="M73.9387 136.538C73.8009 136.497 73.6376 136.54 73.5337 136.641C73.3237 136.846 73.3237 137.384 73.3449 137.47C73.3895 137.657 73.5549 137.782 73.7352 137.782C73.767 137.782 73.7988 137.778 73.8306 137.769C74.0236 137.722 74.1487 137.541 74.136 137.347C74.1381 137.304 74.1487 137.22 74.1593 137.16C74.1826 137.124 74.2017 137.085 74.2144 137.042C74.2759 136.824 74.1529 136.598 73.9387 136.538Z" fill="#FAFF00"/>
<path d="M74.4358 135.44C74.2746 135.283 74.0201 135.289 73.8653 135.453C73.7126 135.617 73.7169 135.875 73.8781 136.032L73.9247 136.077C74.0032 136.153 74.1029 136.191 74.2025 136.191C74.3086 136.191 74.4146 136.148 74.4931 136.064C74.6458 135.901 74.6415 135.642 74.4803 135.485L74.4358 135.44Z" fill="#FAFF00"/>
<path d="M72.1927 136.131C71.9848 136.049 71.7515 136.152 71.671 136.363L71.6116 136.516C71.531 136.727 71.6328 136.964 71.8406 137.046C71.8894 137.065 71.9382 137.074 71.9869 137.074C72.1481 137.074 72.3008 136.975 72.3623 136.813L72.4217 136.66C72.5023 136.449 72.3984 136.213 72.1927 136.131Z" fill="#FAFF00"/>
<path d="M73.3758 136.342C73.3948 136.2 73.4373 135.907 73.1997 135.748C73.0131 135.623 72.7629 135.675 72.642 135.862C72.5784 135.959 72.5614 136.073 72.5847 136.178C72.5826 136.202 72.5784 136.224 72.5784 136.228C72.5466 136.452 72.7014 136.658 72.9198 136.691C72.9389 136.693 72.958 136.695 72.9771 136.695C73.1743 136.695 73.3482 136.546 73.3758 136.342Z" fill="#FAFF00"/>
<path d="M73.4382 135.246C73.6609 135.246 73.8391 135.082 73.8391 134.856C73.8433 134.828 73.856 134.785 73.8666 134.744C73.9048 134.592 73.9302 134.49 73.8878 134.363C73.8179 134.15 73.5888 134.034 73.3768 134.105C73.2177 134.159 73.1138 134.305 73.1032 134.467C73.0989 134.486 73.0905 134.512 73.0841 134.54C73.0523 134.66 73.0332 134.74 73.0332 134.818C73.0374 135.044 73.2156 135.246 73.4382 135.246Z" fill="#FAFF00"/>
<path d="M69.0742 137.015C69.0742 137.101 69.1315 137.373 69.1612 137.45C69.2227 137.607 69.369 137.7 69.5281 137.7C69.5726 137.7 69.6192 137.691 69.6638 137.676C69.8674 137.605 69.9776 137.377 69.9161 137.166C69.9034 137.123 69.8822 137.015 69.8758 136.974C69.8568 136.768 69.685 136.606 69.475 136.606C69.2545 136.606 69.0742 136.789 69.0742 137.015Z" fill="#FAFF00"/>
<path d="M70.2834 139.212C70.3046 139.217 70.3258 139.217 70.347 139.217C70.5421 139.217 70.7139 139.072 70.7436 138.872C70.7521 138.816 70.7775 138.618 70.7372 138.444C70.6884 138.228 70.4827 138.104 70.2685 138.147C70.0543 138.19 69.9165 138.407 69.9504 138.625C69.9547 138.646 69.9504 138.706 69.9462 138.745C69.9122 138.967 70.0628 139.178 70.2834 139.212Z" fill="#FAFF00"/>
<path d="M68.5722 138.057C68.4131 138.251 68.4046 138.643 68.4152 138.727C68.4449 138.931 68.6209 139.095 68.8203 139.095C68.8372 139.095 68.8563 139.093 68.8733 139.091C69.0938 139.058 69.2487 138.869 69.2169 138.645C69.2169 138.619 69.2275 138.553 69.2359 138.516C69.3271 138.348 69.2911 138.133 69.1405 138.006C68.9666 137.859 68.7142 137.883 68.5722 138.057Z" fill="#FAFF00"/>
<path d="M71.6926 135.498L71.6163 135.268C71.5463 135.055 71.3194 134.936 71.1073 135.009C70.8952 135.081 70.7828 135.313 70.8528 135.526L70.9291 135.756C70.9864 135.929 71.1433 136.036 71.3109 136.036C71.3533 136.036 71.3957 136.03 71.4381 136.015C71.6481 135.944 71.7626 135.711 71.6926 135.498Z" fill="#FAFF00"/>
<path d="M72.7336 135.288V135.198C72.7336 134.972 72.5533 134.789 72.3307 134.789C72.108 134.789 71.9277 134.972 71.9277 135.198V135.288C71.9277 135.514 72.108 135.697 72.3307 135.697C72.5533 135.697 72.7336 135.514 72.7336 135.288Z" fill="#FAFF00"/>
<path d="M71.18 134.063C71.2373 134.233 71.3942 134.338 71.5618 134.338C71.6042 134.338 71.6487 134.332 71.6933 134.317C71.9032 134.244 72.0156 134.011 71.9435 133.798L71.8671 133.574C71.795 133.361 71.566 133.245 71.3561 133.32C71.1461 133.393 71.0337 133.626 71.1058 133.839L71.18 134.063Z" fill="#FAFF00"/>
<path d="M74.6703 136.775C74.7275 136.945 74.8845 137.051 75.052 137.051C75.0944 137.051 75.1389 137.044 75.1835 137.029C75.3934 136.956 75.5058 136.724 75.4337 136.51L75.3574 136.287C75.2853 136.073 75.0562 135.957 74.8463 136.033C74.6363 136.106 74.5239 136.338 74.5961 136.551L74.6703 136.775Z" fill="#FAFF00"/>
<path d="M72.2562 133.79C72.3135 133.96 72.4704 134.066 72.6379 134.066C72.6804 134.066 72.7249 134.059 72.7694 134.044C72.9794 133.971 73.0918 133.739 73.0197 133.526L72.9433 133.302C72.8712 133.089 72.6422 132.972 72.4322 133.048C72.2223 133.121 72.1099 133.353 72.182 133.566L72.2562 133.79Z" fill="#FAFF00"/>
<path d="M70.8744 134.305L70.7302 134.025C70.6263 133.825 70.3824 133.75 70.1852 133.855C69.9879 133.961 69.9137 134.208 70.0176 134.408L70.1618 134.688C70.2339 134.828 70.3739 134.906 70.5181 134.906C70.5817 134.906 70.6454 134.891 70.7047 134.858C70.9041 134.751 70.9783 134.503 70.8744 134.305Z" fill="#FAFF00"/>
<path d="M87.4751 137.52C87.3309 137.348 87.0765 137.328 86.9068 137.475C86.7371 137.621 86.7181 137.879 86.8623 138.052L86.9641 138.17C87.0446 138.265 87.157 138.312 87.2694 138.312C87.3628 138.312 87.4561 138.28 87.5303 138.213C87.6999 138.067 87.719 137.808 87.5748 137.636L87.4751 137.52Z" fill="#FAFF00"/>
<path d="M88.7233 136.957C88.7233 136.673 88.5197 136.507 88.3182 136.49C88.0213 136.462 87.7053 136.798 87.6714 137.019C87.6354 137.243 87.7838 137.452 88.0044 137.489C88.0256 137.493 88.0489 137.493 88.0701 137.493C88.1846 137.493 88.2907 137.444 88.3649 137.362C88.5664 137.34 88.7233 137.168 88.7233 136.957Z" fill="#FAFF00"/>
<path d="M88.7324 137.967C88.5712 137.911 88.4015 137.96 88.2552 138.1C88.0537 138.292 88.0813 138.498 88.1025 138.578C88.1449 138.737 88.27 138.858 88.4376 138.897C88.4673 138.903 88.4991 138.907 88.5288 138.907C88.7048 138.907 88.8639 138.789 88.9148 138.615C88.9444 138.578 88.9699 138.533 88.9847 138.485C89.0568 138.272 88.9423 138.04 88.7324 137.967Z" fill="#FAFF00"/>
<path d="M89.4102 138.806C89.2342 138.877 89.1175 139.04 89.1154 139.223C89.1112 139.367 89.1854 139.559 89.3996 139.658C89.4526 139.684 89.5099 139.695 89.5671 139.695C89.7198 139.695 89.8661 139.606 89.934 139.456C89.9425 139.436 89.9488 139.417 89.9552 139.397C90.0485 139.24 90.0273 139.034 89.8937 138.9C89.7707 138.775 89.5798 138.737 89.4102 138.806Z" fill="#FAFF00"/>
<path d="M86.7113 135.512C86.7919 135.512 86.8746 135.486 86.9467 135.434C87.127 135.303 87.1673 135.047 87.0379 134.864C87.0252 134.844 87.0061 134.816 86.9913 134.791C86.987 134.692 86.9489 134.595 86.8746 134.519C86.7177 134.36 86.4632 134.36 86.3042 134.519C86.1091 134.717 86.1366 134.993 86.3848 135.342C86.4632 135.454 86.5862 135.512 86.7113 135.512Z" fill="#FAFF00"/>
<path d="M88.55 134.485C88.6582 134.485 88.7664 134.442 88.8448 134.356C88.9699 134.22 88.9848 134.018 88.8957 133.867C88.9084 133.675 88.7876 133.495 88.5988 133.443C88.3846 133.383 88.162 133.514 88.1047 133.733C88.0432 133.968 88.1089 134.22 88.2765 134.377C88.3528 134.448 88.4504 134.485 88.55 134.485Z" fill="#FAFF00"/>
<path d="M88.707 135.103C88.707 135.269 88.8152 135.527 88.9912 135.657C89.076 135.719 89.1715 135.751 89.269 135.751C89.3178 135.751 89.3666 135.743 89.4132 135.728C89.6253 135.657 89.7398 135.424 89.6677 135.211C89.6359 135.116 89.5744 135.041 89.496 134.991C89.4472 134.821 89.2924 134.697 89.11 134.697C88.8873 134.694 88.707 134.877 88.707 135.103Z" fill="#FAFF00"/>
<path d="M87.4763 135.404C87.5103 135.604 87.6799 135.746 87.8729 135.746C87.8941 135.746 87.9175 135.744 87.9408 135.74C88.1592 135.703 88.3077 135.492 88.2716 135.268C88.2716 135.264 88.2695 135.249 88.2695 135.236C88.348 135.075 88.3141 134.874 88.1762 134.75C88.0108 134.599 87.7542 134.614 87.6078 134.784C87.4361 134.978 87.4509 135.255 87.4763 135.404Z" fill="#FAFF00"/>
<path d="M86.9457 134.32C86.9796 134.52 87.1492 134.662 87.3422 134.662C87.3634 134.662 87.3868 134.66 87.4101 134.656C87.6285 134.619 87.777 134.408 87.7409 134.185C87.7409 134.18 87.7388 134.165 87.7388 134.152C87.8173 133.991 87.7833 133.791 87.6455 133.666C87.4801 133.515 87.2235 133.53 87.0771 133.7C86.9075 133.894 86.9223 134.172 86.9457 134.32Z" fill="#FAFF00"/>
<path d="M86.1434 136.763C86.1773 136.963 86.347 137.105 86.5399 137.105C86.5612 137.105 86.5845 137.103 86.6078 137.099C86.8262 137.062 86.9747 136.851 86.9386 136.627C86.9386 136.623 86.9365 136.608 86.9365 136.595C87.015 136.433 86.9811 136.233 86.8432 136.108C86.6778 135.958 86.4212 135.973 86.2749 136.143C86.1031 136.337 86.12 136.614 86.1434 136.763Z" fill="#FAFF00"/>
<path d="M85.1553 135.41L85.1299 135.352C85.0365 135.146 84.7969 135.055 84.5954 135.15C84.3939 135.245 84.3028 135.486 84.3961 135.692L84.4236 135.755C84.4767 135.877 84.5975 136.166 84.939 136.166C85.1617 136.166 85.3419 135.983 85.3419 135.757C85.344 135.611 85.2677 135.481 85.1553 135.41Z" fill="#FAFF00"/>
<path d="M83.4342 134.358C83.3282 134.429 83.2497 134.58 83.2412 134.707C83.2306 134.879 83.3049 135.058 83.4363 135.172C83.5127 135.239 83.606 135.271 83.6972 135.271C83.8117 135.271 83.9241 135.222 84.0026 135.129C84.1107 135 84.1277 134.823 84.0577 134.679C84.0535 134.608 84.0323 134.537 83.9899 134.475C83.869 134.285 83.6208 134.233 83.4342 134.358Z" fill="#FAFF00"/>
<path d="M83.5188 133.842C83.6015 133.842 83.6863 133.816 83.7584 133.763C83.8836 133.668 83.9387 133.517 83.9175 133.371C83.9408 133.214 83.873 133.05 83.733 132.962C83.5443 132.841 83.2961 132.901 83.1774 133.091C83.048 133.302 83.0925 133.537 83.1943 133.676C83.2728 133.786 83.3958 133.842 83.5188 133.842Z" fill="#FAFF00"/>
<path d="M85.5436 134.128C85.3209 134.128 85.1406 134.311 85.1406 134.537V134.619C85.1406 134.845 85.3209 135.028 85.5436 135.028C85.7662 135.028 85.9465 134.845 85.9465 134.619V134.537C85.9465 134.311 85.7662 134.128 85.5436 134.128Z" fill="#FAFF00"/>
<path d="M84.6432 134.245C84.8658 134.245 85.0461 134.062 85.0461 133.836V133.685C85.0461 133.459 84.8658 133.276 84.6432 133.276C84.4205 133.276 84.2402 133.459 84.2402 133.685V133.836C84.2402 134.062 84.4205 134.245 84.6432 134.245Z" fill="#FAFF00"/>
<path d="M86.4406 133.373V133.259C86.4406 133.033 86.2604 132.85 86.0377 132.85C85.815 132.85 85.6348 133.033 85.6348 133.259V133.373C85.6348 133.599 85.815 133.782 86.0377 133.782C86.2604 133.782 86.4406 133.599 86.4406 133.373Z" fill="#FAFF00"/>
<path d="M87.1334 133.097H87.2267C87.4494 133.097 87.6297 132.914 87.6297 132.688C87.6297 132.462 87.4494 132.279 87.2267 132.279H87.1334C86.9107 132.279 86.7305 132.462 86.7305 132.688C86.7305 132.914 86.9107 133.097 87.1334 133.097Z" fill="#FAFF00"/>
<path d="M89.4689 133.856C89.278 133.972 89.2165 134.224 89.331 134.417L89.4074 134.544C89.4837 134.671 89.6173 134.742 89.7531 134.742C89.8231 134.742 89.8952 134.723 89.9609 134.684C90.1518 134.568 90.2133 134.316 90.0988 134.123L90.0224 133.996C89.9079 133.802 89.6598 133.739 89.4689 133.856Z" fill="#FAFF00"/>
<path d="M89.6205 133.581C89.7011 133.581 89.7838 133.558 89.8538 133.506L89.9131 133.463C90.0934 133.332 90.1358 133.075 90.0065 132.893C89.8771 132.71 89.6247 132.666 89.4445 132.798L89.3851 132.841C89.2048 132.972 89.1624 133.228 89.2918 133.411C89.3724 133.521 89.4954 133.581 89.6205 133.581Z" fill="#FAFF00"/>
<path d="M90.6766 133.736C90.7657 133.736 90.8569 133.706 90.9311 133.644L91.0647 133.534C91.2365 133.392 91.2641 133.134 91.1241 132.959C90.9841 132.783 90.7296 132.757 90.5579 132.899L90.4243 133.009C90.2525 133.151 90.2249 133.409 90.3649 133.584C90.4433 133.685 90.56 133.736 90.6766 133.736Z" fill="#FAFF00"/>
<path d="M90.9166 133.86C90.6939 133.86 90.5137 134.043 90.5137 134.269V134.372C90.5137 134.598 90.6939 134.781 90.9166 134.781C91.1393 134.781 91.3195 134.598 91.3195 134.372V134.269C91.3195 134.045 91.1393 133.86 90.9166 133.86Z" fill="#FAFF00"/>
<path d="M37.0676 168.095L41.9045 175.484C41.9443 175.548 41.994 175.587 42.0612 175.612C42.1482 175.643 42.2328 175.658 42.3173 175.658H43.0012C43.1007 175.658 43.1206 175.638 43.1206 175.535V166.046C43.1206 165.943 43.1007 165.923 43.0012 165.923H42.2203C42.1208 165.923 42.1009 165.943 42.1009 166.046V173.335C42.1009 173.414 42.1009 173.625 41.9343 173.676C41.7677 173.727 41.6558 173.55 41.6135 173.484L36.886 166.095C36.8462 166.033 36.799 165.992 36.7294 165.969C36.6423 165.938 36.5578 165.923 36.4732 165.923H35.6799C35.5804 165.923 35.5605 165.943 35.5605 166.046V175.535C35.5605 175.638 35.5804 175.658 35.6799 175.658H36.4633C36.5627 175.658 36.5826 175.638 36.5826 175.535V168.246C36.5826 168.17 36.5826 167.962 36.7468 167.91C36.7692 167.903 36.789 167.9 36.8089 167.9C36.9407 167.903 37.0303 168.039 37.0676 168.095Z" fill="#111111"/>
<path d="M52.6844 173.339C52.7897 173.268 52.8393 173.169 52.8393 173.034V168.547C52.8393 168.409 52.7918 168.315 52.6844 168.241L49.2163 165.978C49.1584 165.941 49.1047 165.923 49.0552 165.923C49.0324 165.923 48.9808 165.93 48.8858 165.983L45.4425 168.241C45.3289 168.315 45.2793 168.409 45.2793 168.547V173.034C45.2793 173.172 45.3289 173.266 45.4425 173.339L48.8941 175.603C48.9725 175.658 49.0366 175.672 49.1378 175.646C49.1584 175.642 49.1812 175.628 49.206 175.609L52.6844 173.339ZM49.0552 174.672C48.9684 174.672 48.8837 174.644 48.8052 174.592L46.2542 172.919C46.0931 172.813 46.0084 172.652 46.0084 172.45V169.13C46.0084 168.93 46.0931 168.767 46.2542 168.662L48.8094 166.987C49.0201 166.869 49.1481 166.888 49.303 166.987L51.8705 168.662C52.0275 168.77 52.1101 168.93 52.1101 169.13V172.45C52.1101 172.65 52.0275 172.811 51.8747 172.917L49.3051 174.592C49.27 174.619 49.2225 174.644 49.1729 174.656C49.1295 174.667 49.0903 174.672 49.0552 174.672Z" fill="#111111"/>
<path d="M68.0739 165.923C67.9798 165.923 67.9609 165.943 67.9609 166.046V175.535C67.9609 175.638 67.9798 175.658 68.0739 175.658H74.328C74.4221 175.658 74.4409 175.638 74.4409 175.535V174.727C74.4409 174.625 74.4221 174.604 74.328 174.604H69.3803C69.1025 174.604 68.9378 174.422 68.9378 174.122V166.046C68.9378 165.943 68.9189 165.923 68.8248 165.923H68.0739Z" fill="#111111"/>
<path d="M104.294 175.658C104.422 175.658 104.502 175.59 104.548 175.447L107.23 167.456C107.257 167.376 107.301 167.265 107.381 167.265C107.462 167.265 107.506 167.376 107.532 167.456L110.205 175.444C110.251 175.59 110.331 175.658 110.459 175.658H111.07C111.123 175.658 111.15 175.643 111.158 175.631C111.163 175.618 111.165 175.578 111.144 175.512L107.938 166.139C107.892 165.991 107.812 165.923 107.684 165.923H107.073C106.945 165.923 106.865 165.991 106.819 166.134V166.137L103.618 175.515C103.599 175.578 103.599 175.618 103.605 175.631C103.611 175.643 103.637 175.658 103.693 175.658H104.294Z" fill="#111111"/>
<path d="M116.483 171.37L119.379 175.499C119.431 175.612 119.515 175.658 119.667 175.658H120.698C120.707 175.658 120.715 175.658 120.724 175.658C120.724 175.656 120.721 175.651 120.721 175.648L117.733 171.391L118.067 171.37C118.452 171.345 118.821 171.255 119.163 171.101C119.506 170.947 119.811 170.744 120.065 170.503C120.318 170.262 120.519 169.98 120.666 169.665C120.81 169.352 120.882 169.013 120.882 168.662C120.882 168.318 120.807 167.977 120.658 167.649C120.508 167.321 120.304 167.023 120.047 166.767C119.794 166.513 119.489 166.308 119.14 166.151C118.798 166 118.421 165.923 118.023 165.923H112.38C112.265 165.923 112.242 165.943 112.242 166.046V166.854C112.242 166.956 112.265 166.977 112.38 166.977H117.989C118.248 166.992 118.478 167.049 118.683 167.144C118.887 167.239 119.063 167.364 119.209 167.516C119.351 167.664 119.469 167.836 119.555 168.028C119.641 168.218 119.693 168.423 119.71 168.639V168.652V168.665C119.67 169.106 119.5 169.483 119.209 169.79C118.91 170.108 118.498 170.283 117.992 170.314H112.493C112.415 170.314 112.352 170.332 112.297 170.367C112.268 170.388 112.242 170.414 112.242 170.475V175.533C112.242 175.635 112.265 175.656 112.38 175.656H113.287C113.402 175.656 113.425 175.635 113.425 175.533V171.847C113.425 171.545 113.63 171.365 113.967 171.365H116.483V171.37Z" fill="#111111"/>
<path d="M99.7496 170.505C99.9396 170.263 100.091 169.981 100.201 169.666C100.309 169.353 100.363 169.014 100.363 168.663C100.363 168.319 100.307 167.978 100.194 167.649C100.082 167.321 99.9288 167.023 99.7366 166.767C99.5466 166.513 99.3177 166.308 99.0565 166.151C98.7974 166 98.5166 165.923 98.2187 165.923H93.9865C93.9001 165.923 93.8828 165.943 93.8828 166.046V166.854C93.8828 166.957 93.9001 166.977 93.9865 166.977H98.1928C98.3871 166.993 98.5598 167.049 98.7131 167.144C98.8665 167.239 98.9982 167.365 99.1083 167.516C99.2141 167.665 99.3026 167.837 99.3674 168.029C99.4322 168.219 99.4711 168.424 99.484 168.64V168.652V168.665C99.4538 169.106 99.3264 169.484 99.1083 169.791C98.8837 170.11 98.575 170.284 98.1949 170.315H94.0707C94.0124 170.315 93.9649 170.333 93.9238 170.369C93.9022 170.389 93.8828 170.415 93.8828 170.476V175.535C93.8828 175.638 93.9001 175.658 93.9865 175.658H94.6666C94.753 175.658 94.7703 175.638 94.7703 175.535V171.849C94.7703 171.546 94.9236 171.367 95.1762 171.367L98.2511 171.377V171.367C98.5404 171.341 98.8168 171.251 99.0737 171.097C99.3307 170.946 99.5596 170.746 99.7496 170.505Z" fill="#111111"/>
<path d="M123.135 175.658H125.778C126.287 175.658 126.776 175.53 127.227 175.279C127.681 175.028 128.082 174.679 128.421 174.241C128.759 173.805 129.03 173.284 129.226 172.692C129.421 172.102 129.521 171.461 129.521 170.789C129.521 170.274 129.46 169.769 129.338 169.292C129.217 168.813 129.046 168.366 128.828 167.966C128.61 167.566 128.343 167.207 128.035 166.9C127.724 166.592 127.381 166.354 127.01 166.184C126.625 166.01 126.224 165.923 125.818 165.923H123.135C123.057 165.923 123.041 165.943 123.041 166.046V166.854C123.041 166.956 123.057 166.977 123.135 166.977H125.717C126.116 167.013 126.495 167.131 126.854 167.33C127.214 167.53 127.534 167.8 127.807 168.13C128.082 168.464 128.304 168.861 128.467 169.31C128.631 169.764 128.716 170.261 128.716 170.789C128.716 171.31 128.641 171.807 128.496 172.266C128.351 172.725 128.148 173.133 127.891 173.479C127.634 173.825 127.33 174.099 126.986 174.299C126.64 174.502 126.263 174.602 125.871 174.602H124.217C123.986 174.602 123.848 174.42 123.848 174.12V172.525C123.848 172.423 123.832 172.402 123.754 172.402H123.135C123.057 172.402 123.041 172.423 123.041 172.525V175.533C123.041 175.638 123.057 175.658 123.135 175.658Z" fill="#111111"/>
<path d="M28.8692 175.333C29.1947 175.548 29.5462 175.658 29.9133 175.658C30.3202 175.658 30.6647 175.589 30.9383 175.453C31.2101 175.317 31.437 175.148 31.6136 174.946C31.7867 174.746 31.92 174.533 32.0101 174.313C32.1053 174.077 32.178 173.851 32.2248 173.644C32.2715 173.439 32.2992 173.267 32.3061 173.134C32.3148 172.995 32.32 172.913 32.32 172.885C32.32 172.488 32.2802 172.142 32.2005 171.862C32.1192 171.575 32.017 171.332 31.8975 171.134C31.7798 170.942 31.6465 170.786 31.5027 170.675C31.3417 170.555 31.1859 170.455 31.0387 170.383C30.8915 170.311 30.7582 170.263 30.6439 170.237C30.5262 170.211 30.4396 170.193 30.3877 170.183C30.3756 170.181 30.3652 170.178 30.3513 170.175H30.3496C30.1574 170.122 29.9808 170.073 29.8215 170.034C29.6345 169.986 29.47 169.911 29.335 169.814C29.1791 169.701 29.0545 169.537 28.9644 169.33C28.8727 169.117 28.8276 168.845 28.8276 168.502C28.8276 168.002 28.9748 167.592 29.2518 167.317C29.5029 167.069 29.844 166.943 30.2682 166.943C30.4673 166.953 30.6509 166.984 30.8206 167.033C30.9798 167.089 31.1305 167.171 31.2777 167.281C31.3452 167.333 31.4093 167.392 31.4664 167.461C31.4958 167.494 31.5478 167.489 31.5876 167.448L31.9893 167.01C32.0308 166.966 32.036 166.905 32.0378 166.871C32.0378 166.838 32.0326 166.774 31.9893 166.725C31.83 166.541 31.6499 166.382 31.456 166.254C31.127 166.033 30.7738 165.923 30.4085 165.923C29.9998 165.923 29.6535 165.987 29.3782 166.115C29.1047 166.243 28.8761 166.402 28.6995 166.587C28.5281 166.769 28.3948 166.966 28.303 167.179C28.206 167.404 28.1351 167.615 28.0918 167.804C28.0485 167.997 28.0225 168.158 28.0139 168.281C28.0052 168.404 28 168.484 28 168.509C28 168.85 28.0364 169.15 28.1091 169.396C28.1835 169.653 28.277 169.87 28.3878 170.05C28.4987 170.229 28.6251 170.38 28.7618 170.496C28.9125 170.621 29.0579 170.724 29.1947 170.801C29.3315 170.878 29.4544 170.934 29.5618 170.965C29.6691 170.998 29.747 171.019 29.7955 171.029C29.8076 171.032 29.8198 171.034 29.8354 171.039C30.0275 171.093 30.2145 171.152 30.3894 171.211C30.5851 171.278 30.76 171.375 30.9141 171.496C31.0837 171.629 31.2205 171.808 31.3227 172.029C31.43 172.262 31.4837 172.552 31.4837 172.895C31.4837 173.374 31.3486 173.79 31.0837 174.136C30.8275 174.469 30.4777 174.636 30.0431 174.636C29.8146 174.636 29.612 174.595 29.4406 174.515C29.2744 174.438 29.1358 174.349 29.0233 174.251C28.9471 174.184 28.883 174.12 28.8294 174.054L28.3428 174.587C28.3013 174.631 28.2961 174.692 28.2943 174.725C28.2943 174.759 28.2995 174.823 28.3428 174.869C28.5004 175.051 28.6787 175.207 28.8692 175.333Z" fill="#111111"/>
<path d="M58.6839 174.931C58.722 175.002 58.7878 175.01 58.8153 175.01C58.8429 175.01 58.9086 175.002 58.9468 174.928L59.3498 174.149C59.3731 174.104 59.3731 174.052 59.3498 174.009L55.7636 167.099C55.7382 167.05 55.6873 167.018 55.6321 167.018H54.7626C54.6863 167.018 54.6481 167.069 54.6354 167.091C54.6227 167.112 54.5951 167.173 54.6311 167.239L58.6839 174.931Z" fill="#111111"/>
<path d="M57.9794 167.018C57.9031 167.018 57.8649 167.069 57.8522 167.091C57.8395 167.112 57.8119 167.17 57.8479 167.239L61.7564 174.922C61.7946 174.997 61.8582 175.006 61.8879 175.004C61.9155 175.004 61.9812 174.995 62.0194 174.924L66.0551 167.241C66.0912 167.173 66.0636 167.114 66.0509 167.093C66.0381 167.071 66 167.02 65.9236 167.02H65.0563C65.0414 167.02 65.0266 167.022 65.016 167.026L61.8943 173.282L58.974 167.084C58.9465 167.046 58.9019 167.022 58.8553 167.022H57.9794V167.018Z" fill="#111111"/>
<path d="M92.6473 173.339C92.7526 173.268 92.8022 173.169 92.8022 173.034V168.547C92.8022 168.411 92.7526 168.312 92.6473 168.241L89.1792 165.978C89.1213 165.941 89.0676 165.923 89.0181 165.923C88.9953 165.923 88.9437 165.93 88.8487 165.983L85.4054 168.241C85.2918 168.315 85.2422 168.411 85.2422 168.547V173.034C85.2422 173.172 85.2918 173.266 85.4054 173.339L88.8569 175.603C88.9354 175.658 89.0015 175.672 89.1007 175.646C89.1213 175.642 89.1441 175.628 89.1689 175.609L92.6473 173.339ZM89.0181 174.672C88.9313 174.672 88.8466 174.644 88.7681 174.592L86.2171 172.919C86.056 172.813 85.9713 172.65 85.9713 172.45V169.13C85.9713 168.93 86.056 168.767 86.2171 168.662L88.7723 166.987C88.9829 166.869 89.111 166.888 89.2659 166.987L91.8334 168.662C91.9904 168.77 92.0731 168.93 92.0731 169.13V172.45C92.0731 172.65 91.9904 172.811 91.8355 172.917L89.2659 174.592C89.2308 174.622 89.1812 174.644 89.1337 174.656C89.0883 174.667 89.0532 174.672 89.0181 174.672Z" fill="#111111"/>
<path d="M77.8032 165.923H81.8762C81.944 165.923 81.998 166.004 81.998 166.1V166.691C81.998 166.79 81.9423 166.868 81.8762 166.868H77.8032C77.7353 166.868 77.6814 166.787 77.6814 166.691V166.1C77.6797 166.001 77.7353 165.923 77.8032 165.923ZM77.8014 170.331H81.2693C81.3371 170.331 81.391 170.409 81.391 170.508V171.099C81.391 171.198 81.3371 171.276 81.2693 171.276H77.8014C77.7336 171.276 77.6797 171.198 77.6797 171.099V170.508C77.6797 170.412 77.7353 170.331 77.8014 170.331ZM77.8032 174.713H81.878C81.9458 174.713 81.9997 174.794 81.9997 174.89V175.481C81.9997 175.58 81.944 175.658 81.878 175.658H77.8032C77.7353 175.658 77.6814 175.578 77.6814 175.481V174.89C77.6797 174.794 77.7353 174.713 77.8032 174.713Z" fill="#111111"/>
</svg>
