<svg width="557" height="521" viewBox="0 0 557 521" fill="none" xmlns="http://www.w3.org/2000/svg">
<circle opacity="0.2" cx="257.5" cy="263.5" r="257.5" fill="#DBD8D3"/>
<rect x="36.5" y="0.5" width="440" height="495" rx="14.5" fill="white" stroke="#111111"/>
<circle cx="417.5" cy="89.5" r="31.5" fill="#3E1BDB"/>
<path d="M417.5 101L417.5 78" stroke="white" stroke-width="2"/>
<path d="M429 89.5H406" stroke="white" stroke-width="2"/>
<rect x="61.5" y="149.5" width="391" height="327" rx="15.5" stroke="#111111"/>
<path d="M79 31.5632V29.4203H65.2641L70.5155 24.467L68.9427 23L61 30.4918L68.9427 38L70.5155 36.5L65.2641 31.5632H79Z" fill="#111111"/>
<path d="M62.056 64.64C62.056 63.088 62.64 61.904 63.808 61.088C64.976 60.272 66.44 59.864 68.2 59.864C70.312 59.864 72.128 60.296 73.648 61.16V64.52C72.224 63.496 70.496 63 68.464 63.032C66.64 63.064 65.728 63.584 65.728 64.592C65.728 65.04 65.952 65.432 66.4 65.768C66.864 66.104 67.432 66.376 68.104 66.584C68.792 66.776 69.528 67.032 70.312 67.352C71.112 67.656 71.848 67.992 72.52 68.36C73.208 68.712 73.776 69.24 74.224 69.944C74.688 70.648 74.92 71.464 74.92 72.392C74.92 73.304 74.744 74.088 74.392 74.744C74.056 75.4 73.576 75.912 72.952 76.28C72.328 76.648 71.64 76.912 70.888 77.072C70.136 77.248 69.296 77.336 68.368 77.336C66.032 77.336 63.96 76.832 62.152 75.824V72.392C63.944 73.576 65.928 74.168 68.104 74.168C70.2 74.168 71.248 73.632 71.248 72.56C71.248 72.08 71.016 71.664 70.552 71.312C70.104 70.944 69.536 70.656 68.848 70.448C68.176 70.224 67.44 69.96 66.64 69.656C65.856 69.336 65.12 69 64.432 68.648C63.76 68.28 63.192 67.752 62.728 67.064C62.28 66.376 62.056 65.568 62.056 64.64ZM84.8427 65.48H88.1787V77H85.2267V75.536C84.1867 76.736 82.9067 77.336 81.3867 77.336C79.8827 77.336 78.7227 76.896 77.9067 76.016C77.1067 75.136 76.7067 74 76.7067 72.608V65.48H80.0427V72.176C80.0427 72.928 80.2347 73.496 80.6187 73.88C81.0027 74.264 81.5467 74.456 82.2507 74.456C83.2747 74.456 84.1387 73.968 84.8427 72.992V65.48ZM90.8869 60.2H94.2229V66.704C95.1349 65.664 96.3989 65.144 98.0149 65.144C99.7589 65.144 101.127 65.744 102.119 66.944C103.127 68.128 103.631 69.56 103.631 71.24C103.631 72.92 103.127 74.36 102.119 75.56C101.127 76.744 99.7589 77.336 98.0149 77.336C96.1749 77.336 94.7829 76.664 93.8389 75.32V77H90.8869V60.2ZM99.4069 73.592C99.9509 72.952 100.223 72.168 100.223 71.24C100.223 70.312 99.9509 69.536 99.4069 68.912C98.8629 68.272 98.1269 67.952 97.1989 67.952C96.5109 67.952 95.8949 68.136 95.3509 68.504C94.8229 68.872 94.4389 69.328 94.1989 69.872V72.608C94.4389 73.152 94.8229 73.608 95.3509 73.976C95.8949 74.344 96.5109 74.528 97.1989 74.528C98.1269 74.528 98.8629 74.216 99.4069 73.592ZM105.193 68.696C105.193 67.464 105.649 66.568 106.561 66.008C107.473 65.432 108.617 65.144 109.993 65.144C111.481 65.144 112.897 65.472 114.241 66.128V68.864C113.745 68.528 113.113 68.248 112.345 68.024C111.593 67.8 110.881 67.688 110.209 67.688C109.137 67.688 108.601 67.992 108.601 68.6C108.601 68.952 108.825 69.24 109.273 69.464C109.721 69.688 110.265 69.888 110.905 70.064C111.545 70.224 112.177 70.424 112.801 70.664C113.441 70.904 113.985 71.288 114.433 71.816C114.881 72.344 115.105 73 115.105 73.784C115.105 74.648 114.849 75.352 114.337 75.896C113.841 76.44 113.217 76.816 112.465 77.024C111.729 77.232 110.865 77.336 109.873 77.336C108.033 77.336 106.505 76.976 105.289 76.256V73.496C106.537 74.312 108.001 74.72 109.681 74.72C111.025 74.72 111.697 74.432 111.697 73.856C111.697 73.52 111.473 73.24 111.025 73.016C110.577 72.792 110.033 72.592 109.393 72.416C108.769 72.24 108.137 72.032 107.497 71.792C106.857 71.536 106.313 71.152 105.865 70.64C105.417 70.112 105.193 69.464 105.193 68.696ZM116.366 71.408C116.366 70.352 116.55 69.408 116.918 68.576C117.302 67.744 117.806 67.088 118.43 66.608C119.054 66.112 119.742 65.744 120.494 65.504C121.246 65.248 122.038 65.12 122.87 65.12C124.198 65.12 125.382 65.4 126.422 65.96V68.888C125.526 68.312 124.502 68.024 123.35 68.024C122.342 68.024 121.494 68.288 120.806 68.816C120.118 69.344 119.774 70.152 119.774 71.24C119.774 72.28 120.118 73.08 120.806 73.64C121.494 74.184 122.326 74.456 123.302 74.456C124.534 74.456 125.614 74.176 126.542 73.616V76.568C125.342 77.08 124.046 77.336 122.654 77.336C120.926 77.336 119.446 76.832 118.214 75.824C116.982 74.8 116.366 73.328 116.366 71.408ZM131.612 67.208C132.044 66.536 132.668 66.016 133.484 65.648C134.3 65.28 135.228 65.144 136.268 65.24V68.48C135.356 68.32 134.5 68.4 133.7 68.72C132.916 69.04 132.348 69.544 131.996 70.232V77H128.66V65.48H131.612V67.208ZM141.275 77H137.939V65.48H141.275V77ZM141.563 61.664C141.563 62.288 141.379 62.76 141.011 63.08C140.643 63.4 140.171 63.56 139.595 63.56C139.035 63.56 138.571 63.4 138.203 63.08C137.835 62.76 137.651 62.288 137.651 61.664C137.651 61.056 137.835 60.592 138.203 60.272C138.571 59.952 139.035 59.792 139.595 59.792C140.155 59.792 140.619 59.952 140.987 60.272C141.371 60.592 141.563 61.056 141.563 61.664ZM146.981 67.16C147.925 65.816 149.317 65.144 151.157 65.144C152.901 65.144 154.269 65.744 155.261 66.944C156.269 68.128 156.773 69.56 156.773 71.24C156.773 72.92 156.269 74.36 155.261 75.56C154.269 76.744 152.901 77.336 151.157 77.336C149.573 77.336 148.309 76.816 147.365 75.776V82.28H144.029V65.48H146.981V67.16ZM152.549 73.592C153.093 72.952 153.365 72.168 153.365 71.24C153.365 70.312 153.093 69.536 152.549 68.912C152.005 68.272 151.269 67.952 150.341 67.952C149.653 67.952 149.037 68.136 148.493 68.504C147.965 68.872 147.581 69.328 147.341 69.872V72.608C147.581 73.152 147.965 73.608 148.493 73.976C149.037 74.344 149.653 74.528 150.341 74.528C151.269 74.528 152.005 74.216 152.549 73.592ZM159.562 62.12L162.874 61.328V65.48H166.522V68.288H162.874V72.8C162.874 73.952 163.49 74.528 164.722 74.528C165.458 74.528 166.154 74.4 166.81 74.144V76.832C165.85 77.168 164.818 77.336 163.714 77.336C162.498 77.336 161.498 77.024 160.714 76.4C159.946 75.776 159.562 74.792 159.562 73.448V68.288H157.618V65.48H159.562V62.12ZM171.969 77H168.633V65.48H171.969V77ZM172.257 61.664C172.257 62.288 172.073 62.76 171.705 63.08C171.337 63.4 170.865 63.56 170.289 63.56C169.729 63.56 169.265 63.4 168.897 63.08C168.529 62.76 168.345 62.288 168.345 61.664C168.345 61.056 168.529 60.592 168.897 60.272C169.265 59.952 169.729 59.792 170.289 59.792C170.849 59.792 171.313 59.952 171.681 60.272C172.065 60.592 172.257 61.056 172.257 61.664ZM175.924 75.728C174.692 74.656 174.076 73.16 174.076 71.24C174.076 69.32 174.692 67.824 175.924 66.752C177.156 65.68 178.66 65.144 180.436 65.144C182.228 65.144 183.732 65.68 184.948 66.752C186.18 67.824 186.796 69.32 186.796 71.24C186.796 73.16 186.18 74.656 184.948 75.728C183.732 76.8 182.228 77.336 180.436 77.336C178.66 77.336 177.156 76.8 175.924 75.728ZM182.62 73.496C183.148 72.904 183.412 72.152 183.412 71.24C183.412 70.328 183.148 69.584 182.62 69.008C182.092 68.416 181.364 68.12 180.436 68.12C179.508 68.12 178.78 68.416 178.252 69.008C177.74 69.584 177.484 70.328 177.484 71.24C177.484 72.152 177.74 72.904 178.252 73.496C178.78 74.072 179.508 74.36 180.436 74.36C181.364 74.36 182.092 74.072 182.62 73.496ZM191.806 66.944C192.846 65.744 194.126 65.144 195.646 65.144C197.118 65.144 198.262 65.592 199.078 66.488C199.91 67.368 200.326 68.496 200.326 69.872V77H196.99V70.304C196.99 69.552 196.782 68.984 196.366 68.6C195.966 68.216 195.43 68.024 194.758 68.024C193.718 68.024 192.862 68.512 192.19 69.488V77H188.854V65.48H191.806V66.944ZM202.386 68.696C202.386 67.464 202.842 66.568 203.754 66.008C204.666 65.432 205.81 65.144 207.186 65.144C208.674 65.144 210.09 65.472 211.434 66.128V68.864C210.938 68.528 210.306 68.248 209.538 68.024C208.786 67.8 208.074 67.688 207.402 67.688C206.33 67.688 205.794 67.992 205.794 68.6C205.794 68.952 206.018 69.24 206.466 69.464C206.914 69.688 207.458 69.888 208.098 70.064C208.738 70.224 209.37 70.424 209.994 70.664C210.634 70.904 211.178 71.288 211.626 71.816C212.074 72.344 212.298 73 212.298 73.784C212.298 74.648 212.042 75.352 211.53 75.896C211.034 76.44 210.41 76.816 209.658 77.024C208.922 77.232 208.058 77.336 207.066 77.336C205.226 77.336 203.698 76.976 202.482 76.256V73.496C203.73 74.312 205.194 74.72 206.874 74.72C208.218 74.72 208.89 74.432 208.89 73.856C208.89 73.52 208.666 73.24 208.218 73.016C207.77 72.792 207.226 72.592 206.586 72.416C205.962 72.24 205.33 72.032 204.69 71.792C204.05 71.536 203.506 71.152 203.058 70.64C202.61 70.112 202.386 69.464 202.386 68.696Z" fill="#111111"/>
<rect x="61" y="106" width="116" height="15" rx="7" fill="#CFD6D9"/>
<rect x="159" y="173" width="98" height="15" rx="7" fill="#B8D0E7"/>
<rect x="159" y="249" width="98" height="15" rx="7" fill="#B8D0E7"/>
<rect x="159" y="325" width="98" height="15" rx="7" fill="#B8D0E7"/>
<rect x="159" y="401" width="98" height="15" rx="7" fill="#B8D0E7"/>
<rect x="159" y="210" width="185" height="15" rx="7" fill="#E4F0FB"/>
<rect x="159" y="286" width="185" height="15" rx="7" fill="#E4F0FB"/>
<rect x="159" y="362" width="185" height="15" rx="7" fill="#E4F0FB"/>
<rect x="159" y="438" width="185" height="15" rx="7" fill="#E4F0FB"/>
<circle cx="111" cy="199" r="25.75" fill="white" stroke="#111111" stroke-width="0.5"/>
<path d="M124.983 196.807H123.875V196.75H111.5V202.25H119.271C118.137 205.452 115.091 207.75 111.5 207.75C106.944 207.75 103.25 204.056 103.25 199.5C103.25 194.944 106.944 191.25 111.5 191.25C113.603 191.25 115.516 192.043 116.973 193.339L120.862 189.45C118.407 187.161 115.122 185.75 111.5 185.75C103.907 185.75 97.75 191.907 97.75 199.5C97.75 207.093 103.907 213.25 111.5 213.25C119.093 213.25 125.25 207.093 125.25 199.5C125.25 198.578 125.155 197.678 124.983 196.807Z" fill="#FFC107"/>
<path d="M99.3359 193.1L103.853 196.413C105.076 193.387 108.036 191.25 111.501 191.25C113.604 191.25 115.517 192.043 116.974 193.339L120.863 189.45C118.407 187.161 115.122 185.75 111.501 185.75C106.219 185.75 101.639 188.732 99.3359 193.1Z" fill="#FF3D00"/>
<path d="M111.501 213.25C115.052 213.25 118.279 211.891 120.719 209.68L116.464 206.079C115.083 207.125 113.367 207.75 111.501 207.75C107.924 207.75 104.888 205.47 103.744 202.287L99.2598 205.742C101.535 210.195 106.157 213.25 111.501 213.25Z" fill="#4CAF50"/>
<path d="M124.983 196.807H123.875V196.75H111.5V202.25H119.271C118.726 203.788 117.737 205.114 116.461 206.08C116.462 206.079 116.462 206.079 116.463 206.079L120.719 209.68C120.418 209.953 125.25 206.375 125.25 199.5C125.25 198.578 125.155 197.678 124.983 196.807Z" fill="#1976D2"/>
<path d="M111 249C96.6415 249 85 260.701 85 275.134C85 288.236 94.6027 299.055 107.113 300.946V282.059H100.68V275.191H107.113V270.619C107.113 263.051 110.781 259.73 117.039 259.73C120.035 259.73 121.621 259.954 122.371 260.055V266.05H118.102C115.446 266.05 114.519 268.583 114.519 271.436V275.191H122.304L121.248 282.059H114.519V301C127.209 299.271 137 288.364 137 275.134C137 260.701 125.359 249 111 249Z" fill="#4867AA"/>
<path d="M111.001 377C125.36 377 137 365.359 137 351C137 336.639 125.361 325 111.001 325C96.6405 325 85 336.639 85 351C85 365.359 96.6405 377 111.001 377Z" fill="#1FC0E7"/>
<path d="M97.6682 350.993L102.096 346.545C102.243 346.397 102.325 346.198 102.325 345.988C102.325 345.548 101.969 345.193 101.531 345.193C101.317 345.193 101.118 345.276 100.967 345.429L96.5416 349.859L92.0985 345.421C91.9482 345.273 91.7495 345.193 91.538 345.193C91.0989 345.193 90.7441 345.548 90.7441 345.986C90.7441 346.2 90.8297 346.402 90.9822 346.553L95.4103 350.986L90.9845 355.424C90.8297 355.579 90.7441 355.78 90.7441 355.994C90.7441 356.433 91.1001 356.789 91.538 356.789C91.7495 356.789 91.9482 356.708 92.0985 356.557L96.5358 352.118L100.956 356.54C101.113 356.702 101.314 356.789 101.531 356.789C101.968 356.789 102.324 356.433 102.324 355.994C102.324 355.782 102.243 355.583 102.093 355.433L97.6671 350.989L97.6682 350.993ZM123.993 350.992C123.993 351.79 124.64 352.437 125.437 352.437C126.23 352.437 126.877 351.79 126.877 350.992C126.877 350.195 126.23 349.548 125.436 349.548C124.642 349.548 123.996 350.195 123.996 350.992H123.993ZM121.26 350.992C121.26 348.687 123.132 346.809 125.436 346.809C127.736 346.809 129.611 348.687 129.611 350.992C129.611 353.298 127.737 355.175 125.436 355.175C123.133 355.175 121.26 353.3 121.26 350.992ZM119.617 350.992C119.617 354.205 122.228 356.821 125.436 356.821C128.644 356.821 131.256 354.207 131.256 350.993C131.256 347.781 128.644 345.165 125.436 345.165C122.227 345.165 119.617 347.78 119.617 350.993V350.992ZM119.204 345.264H118.962C118.228 345.264 117.521 345.495 116.93 345.952C116.849 345.598 116.53 345.328 116.151 345.328C115.716 345.328 115.366 345.68 115.366 346.118L115.368 355.935C115.368 356.37 115.726 356.725 116.159 356.725C116.596 356.725 116.952 356.37 116.953 355.932V349.896C116.953 347.885 117.138 347.071 118.858 346.857C119.019 346.837 119.19 346.84 119.193 346.84C119.662 346.823 119.997 346.498 119.997 346.06C119.997 345.621 119.639 345.265 119.2 345.265L119.204 345.264ZM103.967 350.034C103.967 350.011 103.969 349.988 103.971 349.967C104.431 348.142 106.081 346.793 108.044 346.793C110.032 346.793 111.696 348.173 112.135 350.031H103.966L103.967 350.034ZM113.758 349.884C113.416 348.263 112.53 346.93 111.181 346.075C109.208 344.82 106.603 344.89 104.699 346.249C103.143 347.355 102.245 349.166 102.245 351.033C102.245 351.501 102.303 351.973 102.419 352.439C103.006 354.75 104.991 356.502 107.358 356.792C108.06 356.878 108.744 356.838 109.449 356.653C110.059 356.503 110.647 356.258 111.189 355.909C111.752 355.547 112.222 355.069 112.68 354.497C112.687 354.486 112.696 354.477 112.705 354.466C113.022 354.073 112.963 353.511 112.616 353.246C112.323 353.02 111.831 352.929 111.445 353.426C111.362 353.546 111.268 353.669 111.167 353.79C110.859 354.131 110.476 354.46 110.019 354.717C109.434 355.029 108.771 355.205 108.066 355.21C105.757 355.183 104.523 353.569 104.083 352.418C104.006 352.202 103.948 351.979 103.906 351.748L103.894 351.627H112.18C113.314 351.601 113.925 350.798 113.756 349.882L113.758 349.884Z" fill="white"/>
<path d="M111 401C125.36 401 137 412.64 137 427C137 441.36 125.36 453 111 453C96.6404 453 85 441.36 85 427C85 412.64 96.6404 401 111 401Z" fill="#E5E5E4"/>
<path d="M111 401.506C125.079 401.506 136.493 412.92 136.493 427C136.493 441.08 125.079 452.494 111 452.494C96.9197 452.494 85.5059 441.08 85.5059 427C85.5059 412.92 96.9201 401.506 111 401.506Z" fill="white"/>
<path d="M110.999 403.551C123.95 403.551 134.448 414.05 134.448 427C134.448 439.95 123.95 450.449 110.999 450.449C98.0491 450.449 87.5508 439.95 87.5508 427C87.5508 414.05 98.0491 403.551 110.999 403.551Z" fill="#4A8CFF"/>
<path d="M95.7012 419.653V430.673C95.711 433.165 97.7462 435.17 100.228 435.16H116.291C116.748 435.16 117.115 434.793 117.115 434.346V423.326C117.105 420.835 115.07 418.829 112.588 418.839H96.5255C96.0689 418.839 95.7016 419.207 95.7016 419.653H95.7012ZM118.137 423.952L124.769 419.108C125.345 418.631 125.791 418.75 125.791 419.614V434.386C125.791 435.369 125.245 435.25 124.769 434.892L118.137 430.058V423.952Z" fill="white"/>
<rect x="312.5" y="156.5" width="244" height="171" rx="15.5" fill="white" stroke="#111111"/>
<path d="M338.448 199.12H335.832V196.264C333.992 196.088 332.384 195.608 331.008 194.824V191.392C332.8 192.576 334.808 193.168 337.032 193.168C338.056 193.168 338.816 193.048 339.312 192.808C339.824 192.552 340.08 192.136 340.08 191.56C340.08 191.144 339.912 190.784 339.576 190.48C339.256 190.176 338.832 189.936 338.304 189.76C337.776 189.568 337.192 189.384 336.552 189.208C335.912 189.016 335.272 188.8 334.632 188.56C333.992 188.304 333.408 188.008 332.88 187.672C332.352 187.32 331.92 186.84 331.584 186.232C331.264 185.624 331.104 184.92 331.104 184.12C331.104 182.76 331.536 181.688 332.4 180.904C333.264 180.104 334.408 179.608 335.832 179.416V176.56H338.448V179.44C340.144 179.6 341.56 180 342.696 180.64V184C341.272 182.976 339.544 182.48 337.512 182.512C335.688 182.544 334.776 183.064 334.776 184.072C334.776 184.456 334.936 184.792 335.256 185.08C335.592 185.352 336.024 185.576 336.552 185.752C337.096 185.928 337.688 186.104 338.328 186.28C338.968 186.456 339.6 186.672 340.224 186.928C340.864 187.184 341.448 187.488 341.976 187.84C342.52 188.176 342.952 188.648 343.272 189.256C343.608 189.864 343.776 190.576 343.776 191.392C343.776 192.96 343.288 194.136 342.312 194.92C341.352 195.704 340.064 196.16 338.448 196.288V199.12ZM353.363 179.68H356.939V190.024H359.411V193.024H356.939V196H353.507V193.024H344.939V190.048L353.363 179.68ZM353.507 190.024V184.072L348.683 190.024H353.507ZM362.154 179.656H372.522V182.752L365.394 182.728L365.178 185.92C365.946 185.76 366.65 185.68 367.29 185.68C369.05 185.68 370.482 186.104 371.586 186.952C372.706 187.8 373.266 189.112 373.266 190.888C373.266 192.68 372.602 194.04 371.274 194.968C369.946 195.88 368.306 196.336 366.354 196.336C364.37 196.336 362.618 195.968 361.098 195.232V191.896C362.458 192.76 364.074 193.192 365.946 193.192C367.066 193.192 367.962 192.992 368.634 192.592C369.322 192.192 369.666 191.608 369.666 190.84C369.666 189.24 368.338 188.44 365.682 188.44C364.242 188.44 362.874 188.672 361.578 189.136L362.154 179.656ZM378.639 186.544C380.015 185.808 381.471 185.44 383.007 185.44C384.575 185.44 385.911 185.904 387.015 186.832C388.135 187.76 388.695 189.056 388.695 190.72C388.695 192.496 388.095 193.88 386.895 194.872C385.695 195.848 384.215 196.336 382.455 196.336C377.527 196.336 375.063 193.504 375.063 187.84C375.063 186.4 375.271 185.128 375.687 184.024C376.103 182.904 376.671 182.016 377.391 181.36C378.111 180.688 378.927 180.184 379.839 179.848C380.751 179.512 381.743 179.344 382.815 179.344C384.367 179.344 385.863 179.68 387.303 180.352V183.52C386.135 182.752 384.799 182.368 383.295 182.368C380.559 182.368 379.007 183.76 378.639 186.544ZM378.639 189.448C378.799 190.888 379.175 191.912 379.767 192.52C380.359 193.112 381.159 193.408 382.167 193.408C383.031 193.408 383.735 193.2 384.279 192.784C384.823 192.368 385.095 191.736 385.095 190.888C385.095 189.256 384.031 188.44 381.903 188.44C380.751 188.44 379.663 188.776 378.639 189.448Z" fill="#111111"/>
<path d="M330.736 227.4C330.736 226.173 331.029 225.112 331.616 224.216C332.203 223.309 332.939 222.648 333.824 222.232C334.709 221.816 335.664 221.608 336.688 221.608C337.925 221.608 339.045 221.859 340.048 222.36V223.704C339.184 223.16 338.128 222.888 336.88 222.888C336.272 222.888 335.691 222.979 335.136 223.16C334.581 223.331 334.069 223.592 333.6 223.944C333.141 224.285 332.773 224.755 332.496 225.352C332.229 225.949 332.096 226.632 332.096 227.4C332.096 228.211 332.235 228.92 332.512 229.528C332.789 230.125 333.163 230.595 333.632 230.936C334.101 231.267 334.608 231.512 335.152 231.672C335.707 231.832 336.293 231.912 336.912 231.912C337.712 231.912 338.4 231.773 338.976 231.496V227.048H340.32V232.44C339.232 232.941 338.064 233.192 336.816 233.192C336.016 233.192 335.264 233.085 334.56 232.872C333.856 232.659 333.211 232.333 332.624 231.896C332.048 231.448 331.589 230.84 331.248 230.072C330.907 229.304 330.736 228.413 330.736 227.4ZM343.073 232.12C342.263 231.395 341.857 230.408 341.857 229.16C341.857 227.912 342.263 226.931 343.073 226.216C343.884 225.491 344.844 225.128 345.953 225.128C347.073 225.128 348.033 225.491 348.833 226.216C349.644 226.931 350.049 227.912 350.049 229.16C350.049 230.408 349.644 231.395 348.833 232.12C348.033 232.835 347.073 233.192 345.953 233.192C344.844 233.192 343.884 232.835 343.073 232.12ZM347.969 231.224C348.503 230.712 348.769 230.024 348.769 229.16C348.769 228.296 348.503 227.613 347.969 227.112C347.436 226.6 346.764 226.344 345.953 226.344C345.143 226.344 344.471 226.6 343.937 227.112C343.404 227.613 343.137 228.296 343.137 229.16C343.137 230.024 343.404 230.712 343.937 231.224C344.471 231.725 345.143 231.976 345.953 231.976C346.764 231.976 347.436 231.725 347.969 231.224ZM352.493 232.12C351.683 231.395 351.277 230.408 351.277 229.16C351.277 227.912 351.683 226.931 352.493 226.216C353.304 225.491 354.264 225.128 355.373 225.128C356.493 225.128 357.453 225.491 358.253 226.216C359.064 226.931 359.469 227.912 359.469 229.16C359.469 230.408 359.064 231.395 358.253 232.12C357.453 232.835 356.493 233.192 355.373 233.192C354.264 233.192 353.304 232.835 352.493 232.12ZM357.389 231.224C357.923 230.712 358.189 230.024 358.189 229.16C358.189 228.296 357.923 227.613 357.389 227.112C356.856 226.6 356.184 226.344 355.373 226.344C354.563 226.344 353.891 226.6 353.357 227.112C352.824 227.613 352.557 228.296 352.557 229.16C352.557 230.024 352.824 230.712 353.357 231.224C353.891 231.725 354.563 231.976 355.373 231.976C356.184 231.976 356.856 231.725 357.389 231.224ZM361.785 232.04C361.06 231.272 360.697 230.312 360.697 229.16C360.697 228.008 361.06 227.048 361.785 226.28C362.521 225.512 363.439 225.128 364.537 225.128C365.743 225.128 366.777 225.619 367.641 226.6V225.32H368.793V233C368.793 234.237 368.388 235.165 367.577 235.784C366.767 236.403 365.775 236.712 364.601 236.712C363.46 236.712 362.42 236.472 361.481 235.992V234.744C362.409 235.267 363.396 235.528 364.441 235.528C365.348 235.528 366.089 235.325 366.665 234.92C367.241 234.525 367.524 233.885 367.513 233V231.816C366.767 232.733 365.775 233.192 364.537 233.192C363.439 233.192 362.521 232.808 361.785 232.04ZM367.513 228.2C367.279 227.667 366.911 227.219 366.409 226.856C365.908 226.493 365.332 226.312 364.681 226.312C363.913 226.312 363.268 226.573 362.745 227.096C362.233 227.619 361.977 228.307 361.977 229.16C361.977 230.013 362.233 230.701 362.745 231.224C363.268 231.747 363.913 232.008 364.681 232.008C365.332 232.008 365.908 231.843 366.409 231.512C366.911 231.171 367.279 230.76 367.513 230.28V228.2ZM371.115 221.32H372.395V233H371.115V221.32ZM374.193 229.16C374.193 227.901 374.577 226.915 375.345 226.2C376.124 225.485 377.015 225.128 378.017 225.128C378.956 225.128 379.729 225.363 380.337 225.832C380.956 226.301 381.361 226.883 381.553 227.576C381.745 228.259 381.756 228.973 381.585 229.72H375.473C375.548 230.477 375.884 231.048 376.481 231.432C377.079 231.816 377.799 232.008 378.641 232.008C379.58 232.008 380.423 231.8 381.169 231.384V232.632C380.455 233.005 379.548 233.192 378.449 233.192C377.233 233.192 376.22 232.845 375.409 232.152C374.599 231.459 374.193 230.461 374.193 229.16ZM380.449 228.6C380.481 228.376 380.465 228.141 380.401 227.896C380.337 227.651 380.22 227.405 380.049 227.16C379.889 226.915 379.639 226.712 379.297 226.552C378.956 226.392 378.556 226.312 378.097 226.312C377.404 226.312 376.801 226.515 376.289 226.92C375.788 227.325 375.516 227.885 375.473 228.6H380.449ZM387.195 233H385.739L390.619 221.8H392.107L396.971 233H395.531L394.379 230.296H388.347L387.195 233ZM391.179 223.608L388.875 229.048H393.851L391.531 223.608C391.51 223.555 391.451 223.411 391.355 223.176C391.259 223.421 391.201 223.565 391.179 223.608ZM404.285 221.8H405.565V233H404.413V231.72C403.549 232.701 402.514 233.192 401.309 233.192C400.21 233.192 399.293 232.808 398.557 232.04C397.832 231.272 397.469 230.312 397.469 229.16C397.469 228.008 397.832 227.048 398.557 226.28C399.293 225.512 400.21 225.128 401.309 225.128C402.525 225.128 403.517 225.576 404.285 226.472V221.8ZM404.285 228.2C404.05 227.667 403.682 227.219 403.181 226.856C402.68 226.493 402.104 226.312 401.453 226.312C400.685 226.312 400.04 226.573 399.517 227.096C399.005 227.619 398.749 228.307 398.749 229.16C398.749 230.013 399.005 230.701 399.517 231.224C400.04 231.747 400.685 232.008 401.453 232.008C402.104 232.008 402.68 231.827 403.181 231.464C403.682 231.101 404.05 230.653 404.285 230.12V228.2ZM407.407 227.336C407.407 226.6 407.689 226.051 408.255 225.688C408.831 225.315 409.524 225.128 410.335 225.128C411.327 225.128 412.233 225.347 413.055 225.784V227C412.735 226.787 412.329 226.616 411.839 226.488C411.348 226.349 410.873 226.28 410.415 226.28C409.945 226.28 409.54 226.365 409.199 226.536C408.868 226.696 408.703 226.952 408.703 227.304C408.703 227.56 408.82 227.784 409.055 227.976C409.3 228.157 409.604 228.296 409.967 228.392C410.329 228.488 410.719 228.611 411.135 228.76C411.561 228.899 411.956 229.048 412.319 229.208C412.681 229.357 412.98 229.592 413.215 229.912C413.46 230.221 413.583 230.595 413.583 231.032C413.583 231.779 413.284 232.328 412.687 232.68C412.089 233.021 411.332 233.192 410.415 233.192C409.209 233.192 408.217 232.941 407.439 232.44V231.192C408.249 231.736 409.22 232.008 410.351 232.008C411.652 232.008 412.303 231.693 412.303 231.064C412.303 230.776 412.132 230.536 411.791 230.344C411.46 230.141 411.055 229.976 410.575 229.848C410.095 229.709 409.615 229.555 409.135 229.384C408.655 229.213 408.244 228.957 407.903 228.616C407.572 228.275 407.407 227.848 407.407 227.336Z" fill="#111111"/>
<rect x="330" y="246" width="96" height="15" rx="7" fill="#E4F0FB"/>
<path d="M364.472 286.8H368.152C370.061 286.8 371.523 287.317 372.536 288.352C373.56 289.376 374.072 290.725 374.072 292.4C374.072 294.075 373.56 295.429 372.536 296.464C371.523 297.488 370.061 298 368.152 298H364.472V286.8ZM371.544 295.584C372.323 294.827 372.712 293.765 372.712 292.4C372.712 291.035 372.323 289.973 371.544 289.216C370.776 288.459 369.645 288.08 368.152 288.08H365.816V296.72H368.152C369.645 296.72 370.776 296.341 371.544 295.584ZM375.389 294.16C375.389 292.901 375.773 291.915 376.541 291.2C377.319 290.485 378.21 290.128 379.213 290.128C380.151 290.128 380.925 290.363 381.533 290.832C382.151 291.301 382.557 291.883 382.749 292.576C382.941 293.259 382.951 293.973 382.781 294.72H376.669C376.743 295.477 377.079 296.048 377.677 296.432C378.274 296.816 378.994 297.008 379.837 297.008C380.775 297.008 381.618 296.8 382.365 296.384V297.632C381.65 298.005 380.743 298.192 379.645 298.192C378.429 298.192 377.415 297.845 376.605 297.152C375.794 296.459 375.389 295.461 375.389 294.16ZM381.645 293.6C381.677 293.376 381.661 293.141 381.597 292.896C381.533 292.651 381.415 292.405 381.245 292.16C381.085 291.915 380.834 291.712 380.493 291.552C380.151 291.392 379.751 291.312 379.293 291.312C378.599 291.312 377.997 291.515 377.485 291.92C376.983 292.325 376.711 292.885 376.669 293.6H381.645ZM390.842 296.4C390.842 296.795 391.039 296.992 391.434 296.992C391.605 296.992 391.802 296.955 392.026 296.88V297.92C391.706 298.037 391.386 298.096 391.066 298.096C390.33 298.096 389.861 297.787 389.658 297.168C388.837 297.851 387.839 298.192 386.666 298.192C385.919 298.192 385.279 297.995 384.746 297.6C384.223 297.195 383.962 296.613 383.962 295.856C383.962 294.949 384.298 294.293 384.97 293.888C385.653 293.472 386.474 293.264 387.434 293.264C388.138 293.264 388.847 293.344 389.562 293.504V293.232C389.562 292.645 389.37 292.181 388.986 291.84C388.602 291.488 388.063 291.312 387.37 291.312C386.399 291.312 385.466 291.504 384.57 291.888V290.64C385.573 290.299 386.549 290.128 387.498 290.128C388.543 290.128 389.359 290.411 389.946 290.976C390.543 291.531 390.842 292.336 390.842 293.392V296.4ZM385.274 295.792C385.274 296.219 385.434 296.544 385.754 296.768C386.085 296.981 386.479 297.088 386.938 297.088C387.994 297.088 388.869 296.715 389.562 295.968V294.56C388.837 294.411 388.186 294.336 387.61 294.336C386.959 294.336 386.405 294.453 385.946 294.688C385.498 294.912 385.274 295.28 385.274 295.792ZM392.697 294.192C392.697 293.52 392.82 292.917 393.065 292.384C393.311 291.851 393.631 291.424 394.025 291.104C394.431 290.784 394.873 290.544 395.353 290.384C395.844 290.213 396.345 290.128 396.857 290.128C397.807 290.128 398.596 290.336 399.225 290.752V292C398.639 291.541 397.903 291.312 397.017 291.312C396.185 291.312 395.471 291.552 394.873 292.032C394.276 292.512 393.977 293.221 393.977 294.16C393.977 295.088 394.271 295.797 394.857 296.288C395.455 296.768 396.164 297.008 396.985 297.008C397.839 297.008 398.612 296.8 399.305 296.384V297.664C398.58 298.016 397.748 298.192 396.809 298.192C395.7 298.192 394.735 297.845 393.913 297.152C393.103 296.459 392.697 295.472 392.697 294.192ZM401.548 287.936L402.812 287.616V290.32H405.884V291.504H402.812V295.472C402.812 296.037 402.94 296.432 403.196 296.656C403.463 296.88 403.884 296.992 404.46 296.992C405.015 296.992 405.58 296.875 406.156 296.64V297.824C405.505 298.059 404.817 298.176 404.092 298.176C403.313 298.176 402.695 297.968 402.236 297.552C401.777 297.125 401.548 296.507 401.548 295.696V291.504H400.108V290.32H401.548V287.936ZM408.83 298H407.55V290.32H408.83V298ZM408.782 287.28C408.942 287.419 409.022 287.616 409.022 287.872C409.022 288.128 408.942 288.331 408.782 288.48C408.622 288.619 408.425 288.688 408.19 288.688C407.956 288.688 407.758 288.619 407.598 288.48C407.438 288.331 407.358 288.128 407.358 287.872C407.358 287.616 407.438 287.419 407.598 287.28C407.758 287.131 407.956 287.056 408.19 287.056C408.425 287.056 408.622 287.131 408.782 287.28ZM416.901 290.32H418.325L414.933 298H413.589L410.197 290.32H411.621L414.261 296.56L416.901 290.32ZM425.645 296.4C425.645 296.795 425.843 296.992 426.237 296.992C426.408 296.992 426.605 296.955 426.829 296.88V297.92C426.509 298.037 426.189 298.096 425.869 298.096C425.133 298.096 424.664 297.787 424.461 297.168C423.64 297.851 422.643 298.192 421.469 298.192C420.723 298.192 420.083 297.995 419.549 297.6C419.027 297.195 418.765 296.613 418.765 295.856C418.765 294.949 419.101 294.293 419.773 293.888C420.456 293.472 421.277 293.264 422.237 293.264C422.941 293.264 423.651 293.344 424.365 293.504V293.232C424.365 292.645 424.173 292.181 423.789 291.84C423.405 291.488 422.867 291.312 422.173 291.312C421.203 291.312 420.269 291.504 419.373 291.888V290.64C420.376 290.299 421.352 290.128 422.301 290.128C423.347 290.128 424.163 290.411 424.749 290.976C425.347 291.531 425.645 292.336 425.645 293.392V296.4ZM420.077 295.792C420.077 296.219 420.237 296.544 420.557 296.768C420.888 296.981 421.283 297.088 421.741 297.088C422.797 297.088 423.672 296.715 424.365 295.968V294.56C423.64 294.411 422.989 294.336 422.413 294.336C421.763 294.336 421.208 294.453 420.749 294.688C420.301 294.912 420.077 295.28 420.077 295.792ZM428.478 287.936L429.742 287.616V290.32H432.814V291.504H429.742V295.472C429.742 296.037 429.87 296.432 430.126 296.656C430.393 296.88 430.814 296.992 431.39 296.992C431.945 296.992 432.51 296.875 433.086 296.64V297.824C432.435 298.059 431.747 298.176 431.022 298.176C430.243 298.176 429.625 297.968 429.166 297.552C428.707 297.125 428.478 296.507 428.478 295.696V291.504H427.038V290.32H428.478V287.936ZM433.92 294.16C433.92 292.901 434.304 291.915 435.072 291.2C435.851 290.485 436.742 290.128 437.744 290.128C438.683 290.128 439.456 290.363 440.064 290.832C440.683 291.301 441.088 291.883 441.28 292.576C441.472 293.259 441.483 293.973 441.312 294.72H435.2C435.275 295.477 435.611 296.048 436.208 296.432C436.806 296.816 437.526 297.008 438.368 297.008C439.307 297.008 440.15 296.8 440.896 296.384V297.632C440.182 298.005 439.275 298.192 438.176 298.192C436.96 298.192 435.947 297.845 435.136 297.152C434.326 296.459 433.92 295.461 433.92 294.16ZM440.176 293.6C440.208 293.376 440.192 293.141 440.128 292.896C440.064 292.651 439.947 292.405 439.776 292.16C439.616 291.915 439.366 291.712 439.024 291.552C438.683 291.392 438.283 291.312 437.824 291.312C437.131 291.312 436.528 291.515 436.016 291.92C435.515 292.325 435.243 292.885 435.2 293.6H440.176Z" fill="#3E1BDB"/>
<rect x="330.5" y="277.5" width="136" height="32" rx="5.5" stroke="#111111"/>
<path fill-rule="evenodd" clip-rule="evenodd" d="M346.12 289.005C344.22 289.108 342.581 290.497 342.127 292.389C342.023 292.823 342 293.021 342 293.501C342 293.98 342.023 294.179 342.127 294.613C342.508 296.202 343.739 297.468 345.289 297.865C345.818 298.001 345.794 298 348.5 298C351.206 298 351.182 298.001 351.711 297.865C353.261 297.468 354.492 296.202 354.873 294.613C354.977 294.179 355 293.98 355 293.501C355 293.021 354.977 292.823 354.873 292.389C354.496 290.817 353.275 289.549 351.75 289.145C351.218 289.004 351.285 289.007 348.691 289.001C347.361 288.999 346.204 289 346.12 289.005ZM351.287 290.187C352.508 290.444 353.475 291.37 353.804 292.598C353.89 292.918 353.921 293.159 353.921 293.501C353.921 295.694 351.924 297.308 349.874 296.772C349.595 296.699 349.259 296.556 349.022 296.409C348.212 295.909 347.634 295.048 347.469 294.094C347.415 293.784 347.415 293.218 347.469 292.907C347.608 292.104 348.05 291.343 348.662 290.852C348.885 290.674 349.113 290.525 349.276 290.453C349.68 290.273 349.859 290.217 350.205 290.16C350.464 290.118 351.025 290.132 351.287 290.187Z" fill="#3E1BDB"/>
<circle cx="525" cy="192" r="18" fill="#E4F0FB"/>
<path d="M508.061 198.006C509.139 201.048 511.018 203.744 513.498 205.81C515.979 207.876 518.97 209.235 522.157 209.746C525.345 210.256 528.611 209.899 531.612 208.711C534.614 207.524 537.24 205.549 539.215 202.996C541.19 200.443 542.441 197.405 542.837 194.201C543.232 190.997 542.757 187.746 541.462 184.789C540.167 181.832 538.099 179.279 535.476 177.397C532.854 175.515 529.772 174.375 526.556 174.095L526.405 175.832C529.309 176.084 532.092 177.114 534.46 178.813C536.829 180.513 538.696 182.818 539.865 185.489C541.035 188.159 541.464 191.094 541.107 193.987C540.75 196.88 539.62 199.624 537.836 201.929C536.053 204.235 533.681 206.018 530.971 207.09C528.26 208.163 525.311 208.485 522.433 208.024C519.555 207.563 516.854 206.336 514.614 204.47C512.374 202.605 510.678 200.17 509.704 197.423L508.061 198.006Z" fill="#3E1BDB"/>
<path d="M390.072 342.08H388.952V340.16C387.715 340.043 386.653 339.733 385.768 339.232V337.888C386.888 338.571 388.189 338.912 389.672 338.912C391.485 338.912 392.392 338.357 392.392 337.248C392.392 336.843 392.269 336.501 392.024 336.224C391.789 335.936 391.475 335.712 391.08 335.552C390.696 335.392 390.269 335.248 389.8 335.12C389.331 334.992 388.861 334.853 388.392 334.704C387.923 334.544 387.491 334.363 387.096 334.16C386.712 333.947 386.397 333.648 386.152 333.264C385.917 332.88 385.8 332.421 385.8 331.888C385.8 331.045 386.093 330.373 386.68 329.872C387.267 329.371 388.024 329.067 388.952 328.96V327.04H390.072V328.944C391.235 329.008 392.221 329.275 393.032 329.744V331.088C392.093 330.48 390.995 330.187 389.736 330.208C388.019 330.208 387.16 330.752 387.16 331.84C387.16 332.224 387.277 332.549 387.512 332.816C387.757 333.083 388.072 333.291 388.456 333.44C388.851 333.589 389.283 333.728 389.752 333.856C390.221 333.973 390.691 334.112 391.16 334.272C391.629 334.432 392.056 334.619 392.44 334.832C392.835 335.045 393.149 335.349 393.384 335.744C393.629 336.139 393.752 336.608 393.752 337.152C393.752 338.155 393.411 338.907 392.728 339.408C392.045 339.899 391.16 340.16 390.072 340.192V342.08ZM400.584 329.12H402.04V336.336H404.088V337.584H402.04V340H400.712V337.584H394.648V336.384L400.584 329.12ZM400.712 336.336V330.928L396.296 336.336H400.712ZM405.985 329.12H412.513V330.4H407.249L407.057 333.472C407.633 333.312 408.251 333.232 408.913 333.232C409.457 333.232 409.963 333.296 410.433 333.424C410.902 333.541 411.334 333.733 411.729 334C412.134 334.256 412.454 334.619 412.689 335.088C412.923 335.547 413.041 336.091 413.041 336.72C413.041 337.797 412.641 338.645 411.841 339.264C411.051 339.883 410.043 340.192 408.817 340.192C407.494 340.192 406.331 339.947 405.329 339.456V338.176C406.289 338.688 407.398 338.944 408.657 338.944C409.574 338.944 410.305 338.752 410.849 338.368C411.403 337.984 411.681 337.435 411.681 336.72C411.681 335.205 410.603 334.448 408.449 334.448C407.51 334.448 406.571 334.619 405.633 334.96L405.985 329.12Z" fill="#111111"/>
<path d="M390.072 418.08H388.952V416.16C387.715 416.043 386.653 415.733 385.768 415.232V413.888C386.888 414.571 388.189 414.912 389.672 414.912C391.485 414.912 392.392 414.357 392.392 413.248C392.392 412.843 392.269 412.501 392.024 412.224C391.789 411.936 391.475 411.712 391.08 411.552C390.696 411.392 390.269 411.248 389.8 411.12C389.331 410.992 388.861 410.853 388.392 410.704C387.923 410.544 387.491 410.363 387.096 410.16C386.712 409.947 386.397 409.648 386.152 409.264C385.917 408.88 385.8 408.421 385.8 407.888C385.8 407.045 386.093 406.373 386.68 405.872C387.267 405.371 388.024 405.067 388.952 404.96V403.04H390.072V404.944C391.235 405.008 392.221 405.275 393.032 405.744V407.088C392.093 406.48 390.995 406.187 389.736 406.208C388.019 406.208 387.16 406.752 387.16 407.84C387.16 408.224 387.277 408.549 387.512 408.816C387.757 409.083 388.072 409.291 388.456 409.44C388.851 409.589 389.283 409.728 389.752 409.856C390.221 409.973 390.691 410.112 391.16 410.272C391.629 410.432 392.056 410.619 392.44 410.832C392.835 411.045 393.149 411.349 393.384 411.744C393.629 412.139 393.752 412.608 393.752 413.152C393.752 414.155 393.411 414.907 392.728 415.408C392.045 415.899 391.16 416.16 390.072 416.192V418.08ZM395.752 405.12H402.28V406.4H397.016L396.824 409.472C397.4 409.312 398.019 409.232 398.68 409.232C399.224 409.232 399.731 409.296 400.2 409.424C400.669 409.541 401.101 409.733 401.496 410C401.901 410.256 402.221 410.619 402.456 411.088C402.691 411.547 402.808 412.091 402.808 412.72C402.808 413.797 402.408 414.645 401.608 415.264C400.819 415.883 399.811 416.192 398.584 416.192C397.261 416.192 396.099 415.947 395.096 415.456V414.176C396.056 414.688 397.165 414.944 398.424 414.944C399.341 414.944 400.072 414.752 400.616 414.368C401.171 413.984 401.448 413.435 401.448 412.72C401.448 411.205 400.371 410.448 398.216 410.448C397.277 410.448 396.339 410.619 395.4 410.96L395.752 405.12ZM405.626 410.256C406.66 409.563 407.796 409.216 409.034 409.216C410.026 409.216 410.895 409.52 411.642 410.128C412.388 410.725 412.762 411.557 412.762 412.624C412.762 413.744 412.388 414.619 411.642 415.248C410.906 415.877 409.978 416.192 408.858 416.192C407.322 416.192 406.17 415.717 405.402 414.768C404.644 413.808 404.266 412.464 404.266 410.736C404.266 408.816 404.719 407.371 405.626 406.4C406.543 405.419 407.738 404.928 409.21 404.928C410.159 404.928 411.039 405.136 411.85 405.552V406.832C411.06 406.416 410.191 406.208 409.242 406.208C408.239 406.208 407.402 406.533 406.73 407.184C406.068 407.824 405.7 408.848 405.626 410.256ZM405.642 411.6C405.844 413.829 406.884 414.944 408.762 414.944C409.551 414.944 410.186 414.763 410.666 414.4C411.156 414.037 411.402 413.467 411.402 412.688C411.402 411.899 411.151 411.333 410.65 410.992C410.148 410.64 409.498 410.464 408.698 410.464C407.514 410.464 406.495 410.843 405.642 411.6Z" fill="#111111"/>
<path d="M386.872 376.12C386.061 375.395 385.656 374.408 385.656 373.16C385.656 371.912 386.061 370.931 386.872 370.216C387.683 369.491 388.643 369.128 389.752 369.128C390.872 369.128 391.832 369.491 392.632 370.216C393.443 370.931 393.848 371.912 393.848 373.16C393.848 374.408 393.443 375.395 392.632 376.12C391.832 376.835 390.872 377.192 389.752 377.192C388.643 377.192 387.683 376.835 386.872 376.12ZM391.768 375.224C392.301 374.712 392.568 374.024 392.568 373.16C392.568 372.296 392.301 371.613 391.768 371.112C391.235 370.6 390.563 370.344 389.752 370.344C388.941 370.344 388.269 370.6 387.736 371.112C387.203 371.613 386.936 372.296 386.936 373.16C386.936 374.024 387.203 374.712 387.736 375.224C388.269 375.725 388.941 375.976 389.752 375.976C390.563 375.976 391.235 375.725 391.768 375.224ZM397.335 377H396.055V370.504H394.615V369.32H396.055V368.392C396.055 367.88 396.13 367.437 396.279 367.064C396.439 366.68 396.653 366.387 396.919 366.184C397.186 365.981 397.469 365.837 397.767 365.752C398.077 365.656 398.413 365.608 398.775 365.608C399.458 365.608 400.098 365.725 400.695 365.96V367.144C400.205 366.909 399.666 366.792 399.079 366.792C398.535 366.792 398.109 366.909 397.799 367.144C397.49 367.368 397.335 367.8 397.335 368.44V369.32H400.215V370.504H397.335V377ZM408.895 379.08H407.775V377.16C406.537 377.043 405.476 376.733 404.591 376.232V374.888C405.711 375.571 407.012 375.912 408.495 375.912C410.308 375.912 411.215 375.357 411.215 374.248C411.215 373.843 411.092 373.501 410.847 373.224C410.612 372.936 410.297 372.712 409.903 372.552C409.519 372.392 409.092 372.248 408.623 372.12C408.153 371.992 407.684 371.853 407.215 371.704C406.745 371.544 406.313 371.363 405.919 371.16C405.535 370.947 405.22 370.648 404.975 370.264C404.74 369.88 404.623 369.421 404.623 368.888C404.623 368.045 404.916 367.373 405.503 366.872C406.089 366.371 406.847 366.067 407.775 365.96V364.04H408.895V365.944C410.057 366.008 411.044 366.275 411.855 366.744V368.088C410.916 367.48 409.817 367.187 408.559 367.208C406.841 367.208 405.983 367.752 405.983 368.84C405.983 369.224 406.1 369.549 406.335 369.816C406.58 370.083 406.895 370.291 407.279 370.44C407.673 370.589 408.105 370.728 408.575 370.856C409.044 370.973 409.513 371.112 409.983 371.272C410.452 371.432 410.879 371.619 411.263 371.832C411.657 372.045 411.972 372.349 412.207 372.744C412.452 373.139 412.575 373.608 412.575 374.152C412.575 375.155 412.233 375.907 411.551 376.408C410.868 376.899 409.983 377.16 408.895 377.192V379.08ZM415.263 371.256C416.297 370.563 417.433 370.216 418.671 370.216C419.663 370.216 420.532 370.52 421.279 371.128C422.025 371.725 422.399 372.557 422.399 373.624C422.399 374.744 422.025 375.619 421.279 376.248C420.543 376.877 419.615 377.192 418.495 377.192C416.959 377.192 415.807 376.717 415.039 375.768C414.281 374.808 413.903 373.464 413.903 371.736C413.903 369.816 414.356 368.371 415.263 367.4C416.18 366.419 417.375 365.928 418.847 365.928C419.796 365.928 420.676 366.136 421.487 366.552V367.832C420.697 367.416 419.828 367.208 418.879 367.208C417.876 367.208 417.039 367.533 416.367 368.184C415.705 368.824 415.337 369.848 415.263 371.256ZM415.279 372.6C415.481 374.829 416.521 375.944 418.399 375.944C419.188 375.944 419.823 375.763 420.303 375.4C420.793 375.037 421.039 374.467 421.039 373.688C421.039 372.899 420.788 372.333 420.287 371.992C419.785 371.64 419.135 371.464 418.335 371.464C417.151 371.464 416.132 371.843 415.279 372.6ZM424.96 375.64C424.149 374.605 423.744 373.245 423.744 371.56C423.744 369.875 424.149 368.515 424.96 367.48C425.771 366.445 426.965 365.928 428.544 365.928C430.133 365.928 431.333 366.445 432.144 367.48C432.955 368.504 433.36 369.864 433.36 371.56C433.36 373.256 432.955 374.621 432.144 375.656C431.333 376.68 430.133 377.192 428.544 377.192C426.965 377.192 425.771 376.675 424.96 375.64ZM431.136 374.792C431.712 374.035 432 372.957 432 371.56C432 370.163 431.712 369.091 431.136 368.344C430.571 367.587 429.707 367.208 428.544 367.208C427.381 367.208 426.517 367.587 425.952 368.344C425.387 369.091 425.104 370.163 425.104 371.56C425.104 372.957 425.387 374.035 425.952 374.792C426.517 375.539 427.381 375.912 428.544 375.912C429.707 375.912 430.571 375.539 431.136 374.792Z" fill="#111111"/>
<path d="M384.872 451.12C384.061 450.395 383.656 449.408 383.656 448.16C383.656 446.912 384.061 445.931 384.872 445.216C385.683 444.491 386.643 444.128 387.752 444.128C388.872 444.128 389.832 444.491 390.632 445.216C391.443 445.931 391.848 446.912 391.848 448.16C391.848 449.408 391.443 450.395 390.632 451.12C389.832 451.835 388.872 452.192 387.752 452.192C386.643 452.192 385.683 451.835 384.872 451.12ZM389.768 450.224C390.301 449.712 390.568 449.024 390.568 448.16C390.568 447.296 390.301 446.613 389.768 446.112C389.235 445.6 388.563 445.344 387.752 445.344C386.941 445.344 386.269 445.6 385.736 446.112C385.203 446.613 384.936 447.296 384.936 448.16C384.936 449.024 385.203 449.712 385.736 450.224C386.269 450.725 386.941 450.976 387.752 450.976C388.563 450.976 389.235 450.725 389.768 450.224ZM395.335 452H394.055V445.504H392.615V444.32H394.055V443.392C394.055 442.88 394.13 442.437 394.279 442.064C394.439 441.68 394.653 441.387 394.919 441.184C395.186 440.981 395.469 440.837 395.767 440.752C396.077 440.656 396.413 440.608 396.775 440.608C397.458 440.608 398.098 440.725 398.695 440.96V442.144C398.205 441.909 397.666 441.792 397.079 441.792C396.535 441.792 396.109 441.909 395.799 442.144C395.49 442.368 395.335 442.8 395.335 443.44V444.32H398.215V445.504H395.335V452ZM406.895 454.08H405.775V452.16C404.537 452.043 403.476 451.733 402.591 451.232V449.888C403.711 450.571 405.012 450.912 406.495 450.912C408.308 450.912 409.215 450.357 409.215 449.248C409.215 448.843 409.092 448.501 408.847 448.224C408.612 447.936 408.297 447.712 407.903 447.552C407.519 447.392 407.092 447.248 406.623 447.12C406.153 446.992 405.684 446.853 405.215 446.704C404.745 446.544 404.313 446.363 403.919 446.16C403.535 445.947 403.22 445.648 402.975 445.264C402.74 444.88 402.623 444.421 402.623 443.888C402.623 443.045 402.916 442.373 403.503 441.872C404.089 441.371 404.847 441.067 405.775 440.96V439.04H406.895V440.944C408.057 441.008 409.044 441.275 409.855 441.744V443.088C408.916 442.48 407.817 442.187 406.559 442.208C404.841 442.208 403.983 442.752 403.983 443.84C403.983 444.224 404.1 444.549 404.335 444.816C404.58 445.083 404.895 445.291 405.279 445.44C405.673 445.589 406.105 445.728 406.575 445.856C407.044 445.973 407.513 446.112 407.983 446.272C408.452 446.432 408.879 446.619 409.263 446.832C409.657 447.045 409.972 447.349 410.207 447.744C410.452 448.139 410.575 448.608 410.575 449.152C410.575 450.155 410.233 450.907 409.551 451.408C408.868 451.899 407.983 452.16 406.895 452.192V454.08ZM412.575 441.12H419.103V442.4H413.839L413.647 445.472C414.223 445.312 414.841 445.232 415.503 445.232C416.047 445.232 416.553 445.296 417.023 445.424C417.492 445.541 417.924 445.733 418.319 446C418.724 446.256 419.044 446.619 419.279 447.088C419.513 447.547 419.631 448.091 419.631 448.72C419.631 449.797 419.231 450.645 418.431 451.264C417.641 451.883 416.633 452.192 415.407 452.192C414.084 452.192 412.921 451.947 411.919 451.456V450.176C412.879 450.688 413.988 450.944 415.247 450.944C416.164 450.944 416.895 450.752 417.439 450.368C417.993 449.984 418.271 449.435 418.271 448.72C418.271 447.205 417.193 446.448 415.039 446.448C414.1 446.448 413.161 446.619 412.223 446.96L412.575 441.12ZM422.288 450.64C421.478 449.605 421.072 448.245 421.072 446.56C421.072 444.875 421.478 443.515 422.288 442.48C423.099 441.445 424.294 440.928 425.872 440.928C427.462 440.928 428.662 441.445 429.472 442.48C430.283 443.504 430.688 444.864 430.688 446.56C430.688 448.256 430.283 449.621 429.472 450.656C428.662 451.68 427.462 452.192 425.872 452.192C424.294 452.192 423.099 451.675 422.288 450.64ZM428.464 449.792C429.04 449.035 429.328 447.957 429.328 446.56C429.328 445.163 429.04 444.091 428.464 443.344C427.899 442.587 427.035 442.208 425.872 442.208C424.71 442.208 423.846 442.587 423.28 443.344C422.715 444.091 422.432 445.163 422.432 446.56C422.432 447.957 422.715 449.035 423.28 449.792C423.846 450.539 424.71 450.912 425.872 450.912C427.035 450.912 427.899 450.539 428.464 449.792ZM433.458 450.64C432.648 449.605 432.242 448.245 432.242 446.56C432.242 444.875 432.648 443.515 433.458 442.48C434.269 441.445 435.464 440.928 437.042 440.928C438.632 440.928 439.832 441.445 440.642 442.48C441.453 443.504 441.858 444.864 441.858 446.56C441.858 448.256 441.453 449.621 440.642 450.656C439.832 451.68 438.632 452.192 437.042 452.192C435.464 452.192 434.269 451.675 433.458 450.64ZM439.634 449.792C440.21 449.035 440.498 447.957 440.498 446.56C440.498 445.163 440.21 444.091 439.634 443.344C439.069 442.587 438.205 442.208 437.042 442.208C435.88 442.208 435.016 442.587 434.45 443.344C433.885 444.091 433.602 445.163 433.602 446.56C433.602 447.957 433.885 449.035 434.45 449.792C435.016 450.539 435.88 450.912 437.042 450.912C438.205 450.912 439.069 450.539 439.634 449.792Z" fill="#111111"/>
<path fill-rule="evenodd" clip-rule="evenodd" d="M518.831 186.042C518.544 186.118 518.257 186.349 518.126 186.611C518.002 186.858 518.001 186.884 518 188.689L518 190.359H525H532V188.676C532 187.26 531.995 186.972 531.965 186.859C531.858 186.439 531.507 186.101 531.1 186.023C531.017 186.007 528.967 185.999 524.979 186C519.389 186.001 518.973 186.004 518.831 186.042ZM518 194.217C518 197.277 517.995 197.162 518.153 197.431C518.312 197.699 518.55 197.884 518.831 197.958C518.973 197.996 519.389 197.999 524.988 198C531.539 198.001 531.132 198.009 531.404 197.869C531.558 197.79 531.792 197.554 531.87 197.397C532.005 197.127 532 197.252 532 194.234V191.461H525H518V194.217Z" fill="#3E1BDB"/>
</svg>
