<svg width="461" height="456" viewBox="0 0 461 456" fill="none" xmlns="http://www.w3.org/2000/svg">
<path fill-rule="evenodd" clip-rule="evenodd" d="M114 228C114 290.96 165.04 342 228 342C290.96 342 342 290.96 342 228C342 165.04 290.96 114 228 114C165.04 114 114 165.04 114 228ZM2.05514e-05 228C1.50472e-05 353.921 102.079 456 228 456C353.921 456 456 353.921 456 228C456 102.079 353.921 -4.46202e-06 228 -9.9662e-06C102.079 -1.54704e-05 2.60556e-05 102.079 2.05514e-05 228Z" fill="url(#paint0_linear_314_55653)"/>
<rect x="52.5" y="22.5" width="335" height="411" rx="12.8034" fill="white" stroke="#111111"/>
<circle cx="340" cy="84" r="24" fill="#3E1BDB"/>
<path d="M340 92.7619L340 75.2381" stroke="white" stroke-width="1.77379"/>
<path d="M348.762 84H331.238" stroke="white" stroke-width="1.77379"/>
<path d="M92 57.9923V55.9923H79.7903L84.4583 51.3692L83.0602 50L76 56.9923L83.0602 64L84.4583 62.6L79.7903 57.9923H92Z" fill="#111111"/>
<path d="M76.792 84.73C76.792 83.566 77.23 82.678 78.106 82.066C78.982 81.454 80.08 81.148 81.4 81.148C82.984 81.148 84.346 81.472 85.486 82.12V84.64C84.418 83.872 83.122 83.5 81.598 83.524C80.23 83.548 79.546 83.938 79.546 84.694C79.546 85.03 79.714 85.324 80.05 85.576C80.398 85.828 80.824 86.032 81.328 86.188C81.844 86.332 82.396 86.524 82.984 86.764C83.584 86.992 84.136 87.244 84.64 87.52C85.156 87.784 85.582 88.18 85.918 88.708C86.266 89.236 86.44 89.848 86.44 90.544C86.44 91.228 86.308 91.816 86.044 92.308C85.792 92.8 85.432 93.184 84.964 93.46C84.496 93.736 83.98 93.934 83.416 94.054C82.852 94.186 82.222 94.252 81.526 94.252C79.774 94.252 78.22 93.874 76.864 93.118V90.544C78.208 91.432 79.696 91.876 81.328 91.876C82.9 91.876 83.686 91.474 83.686 90.67C83.686 90.31 83.512 89.998 83.164 89.734C82.828 89.458 82.402 89.242 81.886 89.086C81.382 88.918 80.83 88.72 80.23 88.492C79.642 88.252 79.09 88 78.574 87.736C78.07 87.46 77.644 87.064 77.296 86.548C76.96 86.032 76.792 85.426 76.792 84.73ZM93.882 85.36H96.384V94H94.17V92.902C93.39 93.802 92.43 94.252 91.29 94.252C90.162 94.252 89.292 93.922 88.68 93.262C88.08 92.602 87.78 91.75 87.78 90.706V85.36H90.282V90.382C90.282 90.946 90.426 91.372 90.714 91.66C91.002 91.948 91.41 92.092 91.938 92.092C92.706 92.092 93.354 91.726 93.882 90.994V85.36ZM98.4152 81.4H100.917V86.278C101.601 85.498 102.549 85.108 103.761 85.108C105.069 85.108 106.095 85.558 106.839 86.458C107.595 87.346 107.973 88.42 107.973 89.68C107.973 90.94 107.595 92.02 106.839 92.92C106.095 93.808 105.069 94.252 103.761 94.252C102.381 94.252 101.337 93.748 100.629 92.74V94H98.4152V81.4ZM104.805 91.444C105.213 90.964 105.417 90.376 105.417 89.68C105.417 88.984 105.213 88.402 104.805 87.934C104.397 87.454 103.845 87.214 103.149 87.214C102.633 87.214 102.171 87.352 101.763 87.628C101.367 87.904 101.079 88.246 100.899 88.654V90.706C101.079 91.114 101.367 91.456 101.763 91.732C102.171 92.008 102.633 92.146 103.149 92.146C103.845 92.146 104.397 91.912 104.805 91.444ZM109.144 87.772C109.144 86.848 109.486 86.176 110.17 85.756C110.854 85.324 111.712 85.108 112.744 85.108C113.86 85.108 114.922 85.354 115.93 85.846V87.898C115.558 87.646 115.084 87.436 114.508 87.268C113.944 87.1 113.41 87.016 112.906 87.016C112.102 87.016 111.7 87.244 111.7 87.7C111.7 87.964 111.868 88.18 112.204 88.348C112.54 88.516 112.948 88.666 113.428 88.798C113.908 88.918 114.382 89.068 114.85 89.248C115.33 89.428 115.738 89.716 116.074 90.112C116.41 90.508 116.578 91 116.578 91.588C116.578 92.236 116.386 92.764 116.002 93.172C115.63 93.58 115.162 93.862 114.598 94.018C114.046 94.174 113.398 94.252 112.654 94.252C111.274 94.252 110.128 93.982 109.216 93.442V91.372C110.152 91.984 111.25 92.29 112.51 92.29C113.518 92.29 114.022 92.074 114.022 91.642C114.022 91.39 113.854 91.18 113.518 91.012C113.182 90.844 112.774 90.694 112.294 90.562C111.826 90.43 111.352 90.274 110.872 90.094C110.392 89.902 109.984 89.614 109.648 89.23C109.312 88.834 109.144 88.348 109.144 87.772ZM117.525 89.806C117.525 89.014 117.663 88.306 117.939 87.682C118.227 87.058 118.605 86.566 119.073 86.206C119.541 85.834 120.057 85.558 120.621 85.378C121.185 85.186 121.779 85.09 122.403 85.09C123.399 85.09 124.287 85.3 125.067 85.72V87.916C124.395 87.484 123.627 87.268 122.763 87.268C122.007 87.268 121.371 87.466 120.855 87.862C120.339 88.258 120.081 88.864 120.081 89.68C120.081 90.46 120.339 91.06 120.855 91.48C121.371 91.888 121.995 92.092 122.727 92.092C123.651 92.092 124.461 91.882 125.157 91.462V93.676C124.257 94.06 123.285 94.252 122.241 94.252C120.945 94.252 119.835 93.874 118.911 93.118C117.987 92.35 117.525 91.246 117.525 89.806ZM128.959 86.656C129.283 86.152 129.751 85.762 130.363 85.486C130.975 85.21 131.671 85.108 132.451 85.18V87.61C131.767 87.49 131.125 87.55 130.525 87.79C129.937 88.03 129.511 88.408 129.247 88.924V94H126.745V85.36H128.959V86.656ZM136.206 94H133.704V85.36H136.206V94ZM136.422 82.498C136.422 82.966 136.284 83.32 136.008 83.56C135.732 83.8 135.378 83.92 134.946 83.92C134.526 83.92 134.178 83.8 133.902 83.56C133.626 83.32 133.488 82.966 133.488 82.498C133.488 82.042 133.626 81.694 133.902 81.454C134.178 81.214 134.526 81.094 134.946 81.094C135.366 81.094 135.714 81.214 135.99 81.454C136.278 81.694 136.422 82.042 136.422 82.498ZM140.486 86.62C141.194 85.612 142.238 85.108 143.618 85.108C144.926 85.108 145.952 85.558 146.696 86.458C147.452 87.346 147.83 88.42 147.83 89.68C147.83 90.94 147.452 92.02 146.696 92.92C145.952 93.808 144.926 94.252 143.618 94.252C142.43 94.252 141.482 93.862 140.774 93.082V97.96H138.272V85.36H140.486V86.62ZM144.662 91.444C145.07 90.964 145.274 90.376 145.274 89.68C145.274 88.984 145.07 88.402 144.662 87.934C144.254 87.454 143.702 87.214 143.006 87.214C142.49 87.214 142.028 87.352 141.62 87.628C141.224 87.904 140.936 88.246 140.756 88.654V90.706C140.936 91.114 141.224 91.456 141.62 91.732C142.028 92.008 142.49 92.146 143.006 92.146C143.702 92.146 144.254 91.912 144.662 91.444ZM149.922 82.84L152.406 82.246V85.36H155.142V87.466H152.406V90.85C152.406 91.714 152.868 92.146 153.792 92.146C154.344 92.146 154.866 92.05 155.358 91.858V93.874C154.638 94.126 153.864 94.252 153.036 94.252C152.124 94.252 151.374 94.018 150.786 93.55C150.21 93.082 149.922 92.344 149.922 91.336V87.466H148.464V85.36H149.922V82.84ZM159.227 94H156.725V85.36H159.227V94ZM159.443 82.498C159.443 82.966 159.305 83.32 159.029 83.56C158.753 83.8 158.399 83.92 157.967 83.92C157.547 83.92 157.199 83.8 156.923 83.56C156.647 83.32 156.509 82.966 156.509 82.498C156.509 82.042 156.647 81.694 156.923 81.454C157.199 81.214 157.547 81.094 157.967 81.094C158.387 81.094 158.735 81.214 159.011 81.454C159.299 81.694 159.443 82.042 159.443 82.498ZM162.193 93.046C161.269 92.242 160.807 91.12 160.807 89.68C160.807 88.24 161.269 87.118 162.193 86.314C163.117 85.51 164.245 85.108 165.577 85.108C166.921 85.108 168.049 85.51 168.961 86.314C169.885 87.118 170.347 88.24 170.347 89.68C170.347 91.12 169.885 92.242 168.961 93.046C168.049 93.85 166.921 94.252 165.577 94.252C164.245 94.252 163.117 93.85 162.193 93.046ZM167.215 91.372C167.611 90.928 167.809 90.364 167.809 89.68C167.809 88.996 167.611 88.438 167.215 88.006C166.819 87.562 166.273 87.34 165.577 87.34C164.881 87.34 164.335 87.562 163.939 88.006C163.555 88.438 163.363 88.996 163.363 89.68C163.363 90.364 163.555 90.928 163.939 91.372C164.335 91.804 164.881 92.02 165.577 92.02C166.273 92.02 166.819 91.804 167.215 91.372ZM174.104 86.458C174.884 85.558 175.844 85.108 176.984 85.108C178.088 85.108 178.946 85.444 179.558 86.116C180.182 86.776 180.494 87.622 180.494 88.654V94H177.992V88.978C177.992 88.414 177.836 87.988 177.524 87.7C177.224 87.412 176.822 87.268 176.318 87.268C175.538 87.268 174.896 87.634 174.392 88.366V94H171.89V85.36H174.104V86.458ZM182.04 87.772C182.04 86.848 182.382 86.176 183.066 85.756C183.75 85.324 184.608 85.108 185.64 85.108C186.756 85.108 187.818 85.354 188.826 85.846V87.898C188.454 87.646 187.98 87.436 187.404 87.268C186.84 87.1 186.306 87.016 185.802 87.016C184.998 87.016 184.596 87.244 184.596 87.7C184.596 87.964 184.764 88.18 185.1 88.348C185.436 88.516 185.844 88.666 186.324 88.798C186.804 88.918 187.278 89.068 187.746 89.248C188.226 89.428 188.634 89.716 188.97 90.112C189.306 90.508 189.474 91 189.474 91.588C189.474 92.236 189.282 92.764 188.898 93.172C188.526 93.58 188.058 93.862 187.494 94.018C186.942 94.174 186.294 94.252 185.55 94.252C184.17 94.252 183.024 93.982 182.112 93.442V91.372C183.048 91.984 184.146 92.29 185.406 92.29C186.414 92.29 186.918 92.074 186.918 91.642C186.918 91.39 186.75 91.18 186.414 91.012C186.078 90.844 185.67 90.694 185.19 90.562C184.722 90.43 184.248 90.274 183.768 90.094C183.288 89.902 182.88 89.614 182.544 89.23C182.208 88.834 182.04 88.348 182.04 87.772Z" fill="#111111"/>
<rect x="76" y="106" width="140" height="8" rx="4" fill="#FAFF00"/>
<rect x="76.5" y="138.5" width="287" height="271" rx="13.5" fill="white" stroke="#111111"/>
<rect x="156" y="166" width="80" height="8" rx="4" fill="#B8D0E7"/>
<rect x="156" y="230" width="80" height="8" rx="4" fill="#B8D0E7"/>
<rect x="156" y="294" width="80" height="8" rx="4" fill="#B8D0E7"/>
<rect x="156" y="358" width="80" height="8" rx="4" fill="#B8D0E7"/>
<rect x="156" y="182" width="120" height="8" rx="4" fill="#E4F0FB"/>
<rect x="156" y="246" width="120" height="8" rx="4" fill="#E4F0FB"/>
<rect x="156" y="310" width="120" height="8" rx="4" fill="#E4F0FB"/>
<rect x="156" y="374" width="120" height="8" rx="4" fill="#E4F0FB"/>
<circle cx="116" cy="178" r="23.5" fill="white" stroke="#111111"/>
<path d="M128.907 175.976H127.885V175.923H116.462V181H123.635C122.588 183.955 119.776 186.077 116.462 186.077C112.256 186.077 108.846 182.667 108.846 178.462C108.846 174.256 112.256 170.846 116.462 170.846C118.403 170.846 120.169 171.578 121.514 172.775L125.104 169.185C122.837 167.072 119.805 165.769 116.462 165.769C109.453 165.769 103.77 171.452 103.77 178.462C103.77 185.471 109.453 191.154 116.462 191.154C123.471 191.154 129.154 185.471 129.154 178.462C129.154 177.611 129.067 176.78 128.907 175.976Z" fill="#FFC107"/>
<path d="M105.232 172.554L109.402 175.612C110.531 172.819 113.263 170.846 116.461 170.846C118.403 170.846 120.169 171.578 121.513 172.775L125.104 169.185C122.837 167.072 119.804 165.769 116.461 165.769C111.586 165.769 107.358 168.522 105.232 172.554Z" fill="#FF3D00"/>
<path d="M116.461 191.154C119.74 191.154 122.719 189.899 124.971 187.859L121.043 184.535C119.768 185.5 118.184 186.077 116.461 186.077C113.16 186.077 110.357 183.972 109.301 181.034L105.162 184.223C107.263 188.334 111.529 191.154 116.461 191.154Z" fill="#4CAF50"/>
<path d="M128.906 175.976H127.884V175.923H116.461V181H123.634C123.131 182.42 122.218 183.644 121.04 184.535C121.041 184.535 121.042 184.535 121.042 184.534L124.97 187.858C124.693 188.111 129.153 184.808 129.153 178.461C129.153 177.61 129.066 176.78 128.906 175.976Z" fill="#1976D2"/>
<path d="M116 218C102.746 218 92 228.801 92 242.124C92 254.218 100.864 264.205 112.412 265.95V248.516H106.474V242.176H112.412V237.956C112.412 230.97 115.798 227.905 121.574 227.905C124.34 227.905 125.804 228.112 126.496 228.204V233.739H122.556C120.104 233.739 119.248 236.077 119.248 238.71V242.176H126.434L125.46 248.516H119.248V266C130.962 264.404 140 254.336 140 242.124C140 228.801 129.254 218 116 218Z" fill="#4867AA"/>
<path d="M116.001 330C129.255 330 140 319.254 140 306C140 292.744 129.256 282 116.001 282C102.745 282 92 292.744 92 306C92 319.254 102.745 330 116.001 330Z" fill="#1FC0E7"/>
<path d="M103.694 305.994L107.782 301.887C107.917 301.751 107.993 301.567 107.993 301.373C107.993 300.968 107.664 300.639 107.26 300.639C107.063 300.639 106.878 300.716 106.74 300.858L102.654 304.946L98.5529 300.85C98.4142 300.714 98.2307 300.639 98.0355 300.639C97.6302 300.639 97.3027 300.968 97.3027 301.372C97.3027 301.569 97.3817 301.756 97.5225 301.895L101.61 305.988L97.5246 310.084C97.3817 310.226 97.3027 310.412 97.3027 310.609C97.3027 311.015 97.6313 311.343 98.0355 311.343C98.2307 311.343 98.4142 311.269 98.5529 311.13L102.649 307.032L106.729 311.114C106.874 311.263 107.06 311.343 107.26 311.343C107.663 311.343 107.992 311.015 107.992 310.609C107.992 310.414 107.917 310.231 107.778 310.092L103.693 305.99L103.694 305.994ZM127.994 305.993C127.994 306.729 128.591 307.326 129.327 307.326C130.059 307.326 130.656 306.729 130.656 305.993C130.656 305.257 130.059 304.66 129.326 304.66C128.593 304.66 127.997 305.257 127.997 305.993H127.994ZM125.471 305.993C125.471 303.865 127.199 302.132 129.326 302.132C131.449 302.132 133.18 303.865 133.18 305.993C133.18 308.121 131.45 309.854 129.326 309.854C127.2 309.854 125.471 308.123 125.471 305.993ZM123.954 305.993C123.954 308.958 126.365 311.373 129.326 311.373C132.287 311.373 134.698 308.96 134.698 305.994C134.698 303.029 132.287 300.614 129.326 300.614C126.364 300.614 123.954 303.028 123.954 305.994V305.993ZM123.574 300.705H123.35C122.672 300.705 122.02 300.919 121.474 301.34C121.4 301.014 121.105 300.764 120.756 300.764C120.353 300.764 120.03 301.089 120.03 301.494L120.032 310.555C120.032 310.957 120.363 311.285 120.763 311.285C121.166 311.285 121.495 310.957 121.496 310.553V304.981C121.496 303.125 121.666 302.374 123.254 302.175C123.403 302.157 123.561 302.16 123.563 302.16C123.996 302.144 124.305 301.845 124.305 301.44C124.305 301.035 123.975 300.706 123.569 300.706L123.574 300.705ZM109.509 305.109C109.509 305.087 109.511 305.066 109.512 305.047C109.936 303.361 111.46 302.117 113.272 302.117C115.106 302.117 116.642 303.39 117.048 305.105H109.508L109.509 305.109ZM118.546 304.97C118.231 303.473 117.413 302.244 116.168 301.454C114.346 300.296 111.942 300.36 110.184 301.614C108.748 302.635 107.919 304.308 107.919 306.03C107.919 306.462 107.973 306.898 108.079 307.328C108.621 309.462 110.454 311.079 112.638 311.346C113.287 311.425 113.918 311.389 114.569 311.218C115.132 311.08 115.675 310.854 116.175 310.532C116.695 310.198 117.129 309.756 117.551 309.228C117.558 309.217 117.566 309.21 117.575 309.199C117.867 308.837 117.813 308.318 117.493 308.073C117.222 307.865 116.767 307.781 116.411 308.239C116.334 308.35 116.248 308.463 116.155 308.575C115.87 308.89 115.517 309.194 115.095 309.431C114.555 309.719 113.943 309.882 113.292 309.886C111.161 309.862 110.022 308.372 109.615 307.309C109.545 307.11 109.49 306.904 109.452 306.69L109.441 306.578H117.089C118.137 306.555 118.7 305.814 118.544 304.968L118.546 304.97Z" fill="white"/>
<path d="M116 346C129.255 346 140 356.745 140 370C140 383.255 129.255 394 116 394C102.745 394 92 383.255 92 370C92 356.745 102.745 346 116 346Z" fill="#E5E5E4"/>
<path d="M115.999 346.468C128.996 346.468 139.532 357.004 139.532 370.001C139.532 382.998 128.996 393.534 115.999 393.534C103.003 393.534 92.4668 382.998 92.4668 370.001C92.4668 357.004 103.003 346.468 115.999 346.468Z" fill="white"/>
<path d="M116 348.355C127.955 348.355 137.645 358.046 137.645 370C137.645 381.954 127.955 391.645 116 391.645C104.046 391.645 94.3555 381.954 94.3555 370C94.3555 358.046 104.046 348.355 116 348.355Z" fill="#4A8CFF"/>
<path d="M101.879 363.219V373.391C101.888 375.691 103.767 377.542 106.058 377.533H120.885C121.306 377.533 121.645 377.193 121.645 376.781V366.609C121.636 364.309 119.758 362.458 117.467 362.467H102.64C102.218 362.467 101.879 362.806 101.879 363.219H101.879ZM122.589 367.187L128.711 362.715C129.242 362.275 129.654 362.385 129.654 363.182V376.818C129.654 377.725 129.15 377.615 128.711 377.285L122.589 372.822V367.187Z" fill="white"/>
<rect x="317.5" y="362.5" width="30" height="15" rx="7.5" fill="#111111" stroke="#111111"/>
<circle cx="340" cy="370" r="7" fill="white"/>
<rect x="317.5" y="298.5" width="30" height="15" rx="7.5" fill="#111111" stroke="#111111"/>
<circle cx="340" cy="306" r="7" fill="white"/>
<rect x="317.5" y="234.5" width="30" height="15" rx="7.5" fill="#111111" stroke="#111111"/>
<circle cx="340" cy="242" r="7" fill="white"/>
<rect x="317.5" y="170.5" width="30" height="15" rx="7.5" fill="#111111" stroke="#111111"/>
<circle cx="340" cy="178" r="7" fill="white"/>
<rect x="261.5" y="122.5" width="199" height="159" rx="13.6903" fill="white" stroke="#111111"/>
<rect x="277.5" y="212.5" width="167" height="31" rx="13.6903" fill="white" stroke="#111111"/>
<path d="M283.844 156H281.054L286.202 143.4H289.118L294.248 156H291.458L290.54 153.642H284.78L283.844 156ZM287.372 146.892L285.626 151.41H289.694L287.93 146.892C287.81 146.556 287.72 146.226 287.66 145.902C287.588 146.274 287.492 146.604 287.372 146.892ZM297.493 148.656C297.817 148.152 298.285 147.762 298.897 147.486C299.509 147.21 300.205 147.108 300.985 147.18V149.61C300.301 149.49 299.659 149.55 299.059 149.79C298.471 150.03 298.045 150.408 297.781 150.924V156H295.279V147.36H297.493V148.656ZM301.541 151.68C301.541 150.9 301.679 150.21 301.955 149.61C302.231 148.998 302.591 148.518 303.035 148.17C303.491 147.822 303.965 147.558 304.457 147.378C304.961 147.198 305.471 147.108 305.987 147.108C306.851 147.108 307.595 147.27 308.219 147.594C308.855 147.918 309.323 148.338 309.623 148.854C309.923 149.358 310.127 149.934 310.235 150.582C310.355 151.218 310.325 151.854 310.145 152.49H304.061C304.193 153.09 304.541 153.54 305.105 153.84C305.669 154.128 306.335 154.272 307.103 154.272C308.051 154.272 308.921 154.098 309.713 153.75V155.712C308.861 156.072 307.805 156.252 306.545 156.252C305.105 156.252 303.911 155.85 302.963 155.046C302.015 154.242 301.541 153.12 301.541 151.68ZM307.895 150.87C307.955 150.474 307.841 150.066 307.553 149.646C307.265 149.226 306.773 149.016 306.077 149.016C305.525 149.016 305.051 149.184 304.655 149.52C304.259 149.844 304.055 150.294 304.043 150.87H307.895ZM319.346 153.192L321.488 147.36H324.08L320.246 157.044C319.394 159.144 318.152 160.194 316.52 160.194C316.172 160.194 315.722 160.128 315.17 159.996V157.926C315.566 158.01 315.908 158.052 316.196 158.052C317.108 158.052 317.792 157.422 318.248 156.162L318.266 156.126L314.18 147.36H316.826L319.346 153.192ZM325.754 155.046C324.83 154.242 324.368 153.12 324.368 151.68C324.368 150.24 324.83 149.118 325.754 148.314C326.678 147.51 327.806 147.108 329.138 147.108C330.482 147.108 331.61 147.51 332.522 148.314C333.446 149.118 333.908 150.24 333.908 151.68C333.908 153.12 333.446 154.242 332.522 155.046C331.61 155.85 330.482 156.252 329.138 156.252C327.806 156.252 326.678 155.85 325.754 155.046ZM330.776 153.372C331.172 152.928 331.37 152.364 331.37 151.68C331.37 150.996 331.172 150.438 330.776 150.006C330.38 149.562 329.834 149.34 329.138 149.34C328.442 149.34 327.896 149.562 327.5 150.006C327.116 150.438 326.924 150.996 326.924 151.68C326.924 152.364 327.116 152.928 327.5 153.372C327.896 153.804 328.442 154.02 329.138 154.02C329.834 154.02 330.38 153.804 330.776 153.372ZM341.446 147.36H343.948V156H341.734V154.902C340.954 155.802 339.994 156.252 338.854 156.252C337.726 156.252 336.856 155.922 336.244 155.262C335.644 154.602 335.344 153.75 335.344 152.706V147.36H337.846V152.382C337.846 152.946 337.99 153.372 338.278 153.66C338.566 153.948 338.974 154.092 339.502 154.092C340.27 154.092 340.918 153.726 341.446 152.994V147.36ZM349.501 149.772C349.501 148.848 349.843 148.176 350.527 147.756C351.211 147.324 352.069 147.108 353.101 147.108C354.217 147.108 355.279 147.354 356.287 147.846V149.898C355.915 149.646 355.441 149.436 354.865 149.268C354.301 149.1 353.767 149.016 353.263 149.016C352.459 149.016 352.057 149.244 352.057 149.7C352.057 149.964 352.225 150.18 352.561 150.348C352.897 150.516 353.305 150.666 353.785 150.798C354.265 150.918 354.739 151.068 355.207 151.248C355.687 151.428 356.095 151.716 356.431 152.112C356.767 152.508 356.935 153 356.935 153.588C356.935 154.236 356.743 154.764 356.359 155.172C355.987 155.58 355.519 155.862 354.955 156.018C354.403 156.174 353.755 156.252 353.011 156.252C351.631 156.252 350.485 155.982 349.573 155.442V153.372C350.509 153.984 351.607 154.29 352.867 154.29C353.875 154.29 354.379 154.074 354.379 153.642C354.379 153.39 354.211 153.18 353.875 153.012C353.539 152.844 353.131 152.694 352.651 152.562C352.183 152.43 351.709 152.274 351.229 152.094C350.749 151.902 350.341 151.614 350.005 151.23C349.669 150.834 349.501 150.348 349.501 149.772ZM364.361 147.36H366.863V156H364.649V154.902C363.869 155.802 362.909 156.252 361.769 156.252C360.641 156.252 359.771 155.922 359.159 155.262C358.559 154.602 358.259 153.75 358.259 152.706V147.36H360.761V152.382C360.761 152.946 360.905 153.372 361.193 153.66C361.481 153.948 361.889 154.092 362.417 154.092C363.185 154.092 363.833 153.726 364.361 152.994V147.36ZM371.108 148.656C371.432 148.152 371.9 147.762 372.512 147.486C373.124 147.21 373.82 147.108 374.6 147.18V149.61C373.916 149.49 373.274 149.55 372.674 149.79C372.086 150.03 371.66 150.408 371.396 150.924V156H368.894V147.36H371.108V148.656ZM375.156 151.68C375.156 150.9 375.294 150.21 375.57 149.61C375.846 148.998 376.206 148.518 376.65 148.17C377.106 147.822 377.58 147.558 378.072 147.378C378.576 147.198 379.086 147.108 379.602 147.108C380.466 147.108 381.21 147.27 381.834 147.594C382.47 147.918 382.938 148.338 383.238 148.854C383.538 149.358 383.742 149.934 383.85 150.582C383.97 151.218 383.94 151.854 383.76 152.49H377.676C377.808 153.09 378.156 153.54 378.72 153.84C379.284 154.128 379.95 154.272 380.718 154.272C381.666 154.272 382.536 154.098 383.328 153.75V155.712C382.476 156.072 381.42 156.252 380.16 156.252C378.72 156.252 377.526 155.85 376.578 155.046C375.63 154.242 375.156 153.12 375.156 151.68ZM381.51 150.87C381.57 150.474 381.456 150.066 381.168 149.646C380.88 149.226 380.388 149.016 379.692 149.016C379.14 149.016 378.666 149.184 378.27 149.52C377.874 149.844 377.67 150.294 377.658 150.87H381.51ZM392.962 153.192L395.104 147.36H397.696L393.862 157.044C393.01 159.144 391.768 160.194 390.136 160.194C389.788 160.194 389.338 160.128 388.786 159.996V157.926C389.182 158.01 389.524 158.052 389.812 158.052C390.724 158.052 391.408 157.422 391.864 156.162L391.882 156.126L387.796 147.36H390.442L392.962 153.192ZM399.37 155.046C398.446 154.242 397.984 153.12 397.984 151.68C397.984 150.24 398.446 149.118 399.37 148.314C400.294 147.51 401.422 147.108 402.754 147.108C404.098 147.108 405.226 147.51 406.138 148.314C407.062 149.118 407.524 150.24 407.524 151.68C407.524 153.12 407.062 154.242 406.138 155.046C405.226 155.85 404.098 156.252 402.754 156.252C401.422 156.252 400.294 155.85 399.37 155.046ZM404.392 153.372C404.788 152.928 404.986 152.364 404.986 151.68C404.986 150.996 404.788 150.438 404.392 150.006C403.996 149.562 403.45 149.34 402.754 149.34C402.058 149.34 401.512 149.562 401.116 150.006C400.732 150.438 400.54 150.996 400.54 151.68C400.54 152.364 400.732 152.928 401.116 153.372C401.512 153.804 402.058 154.02 402.754 154.02C403.45 154.02 403.996 153.804 404.392 153.372ZM415.061 147.36H417.563V156H415.349V154.902C414.569 155.802 413.609 156.252 412.469 156.252C411.341 156.252 410.471 155.922 409.859 155.262C409.259 154.602 408.959 153.75 408.959 152.706V147.36H411.461V152.382C411.461 152.946 411.605 153.372 411.893 153.66C412.181 153.948 412.589 154.092 413.117 154.092C413.885 154.092 414.533 153.726 415.061 152.994V147.36ZM292.844 165.36H295.49L292.718 174H290.072L288.362 168.366L286.652 174H283.988L281.216 165.36H283.88L285.446 171.282L287.174 165.36H289.55L291.26 171.282L292.844 165.36ZM304.214 171.768C304.214 172.152 304.418 172.344 304.826 172.344C304.994 172.344 305.15 172.32 305.294 172.272V173.91C304.838 174.078 304.376 174.162 303.908 174.162C302.996 174.162 302.36 173.838 302 173.19C301.1 173.898 300.062 174.252 298.886 174.252C298.034 174.252 297.314 174.018 296.726 173.55C296.15 173.07 295.862 172.422 295.862 171.606C295.862 170.922 296.066 170.352 296.474 169.896C296.882 169.44 297.356 169.134 297.896 168.978C298.436 168.81 299.024 168.726 299.66 168.726C300.368 168.726 301.052 168.804 301.712 168.96V168.654C301.712 168.21 301.538 167.856 301.19 167.592C300.842 167.328 300.338 167.196 299.678 167.196C298.718 167.196 297.698 167.412 296.618 167.844V165.684C297.77 165.3 298.886 165.108 299.966 165.108C302.798 165.108 304.214 166.41 304.214 169.014V171.768ZM300.236 170.22C299.72 170.22 299.288 170.316 298.94 170.508C298.592 170.7 298.418 171 298.418 171.408C298.418 171.72 298.544 171.978 298.796 172.182C299.06 172.374 299.384 172.47 299.768 172.47C300.524 172.47 301.172 172.236 301.712 171.768V170.418C301.16 170.286 300.668 170.22 300.236 170.22ZM308.6 166.458C309.38 165.558 310.34 165.108 311.48 165.108C312.584 165.108 313.442 165.444 314.054 166.116C314.678 166.776 314.99 167.622 314.99 168.654V174H312.488V168.978C312.488 168.414 312.332 167.988 312.02 167.7C311.72 167.412 311.318 167.268 310.814 167.268C310.034 167.268 309.392 167.634 308.888 168.366V174H306.386V165.36H308.6V166.458ZM317.491 162.84L319.975 162.246V165.36H322.711V167.466H319.975V170.85C319.975 171.714 320.437 172.146 321.361 172.146C321.913 172.146 322.435 172.05 322.927 171.858V173.874C322.207 174.126 321.433 174.252 320.605 174.252C319.693 174.252 318.943 174.018 318.355 173.55C317.779 173.082 317.491 172.344 317.491 171.336V167.466H316.033V165.36H317.491V162.84ZM328.526 162.84L331.01 162.246V165.36H333.746V167.466H331.01V170.85C331.01 171.714 331.472 172.146 332.396 172.146C332.948 172.146 333.47 172.05 333.962 171.858V173.874C333.242 174.126 332.468 174.252 331.64 174.252C330.728 174.252 329.978 174.018 329.39 173.55C328.814 173.082 328.526 172.344 328.526 171.336V167.466H327.068V165.36H328.526V162.84ZM336.211 173.046C335.287 172.242 334.825 171.12 334.825 169.68C334.825 168.24 335.287 167.118 336.211 166.314C337.135 165.51 338.263 165.108 339.595 165.108C340.939 165.108 342.067 165.51 342.979 166.314C343.903 167.118 344.365 168.24 344.365 169.68C344.365 171.12 343.903 172.242 342.979 173.046C342.067 173.85 340.939 174.252 339.595 174.252C338.263 174.252 337.135 173.85 336.211 173.046ZM341.233 171.372C341.629 170.928 341.827 170.364 341.827 169.68C341.827 168.996 341.629 168.438 341.233 168.006C340.837 167.562 340.291 167.34 339.595 167.34C338.899 167.34 338.353 167.562 337.957 168.006C337.573 168.438 337.381 168.996 337.381 169.68C337.381 170.364 337.573 170.928 337.957 171.372C338.353 171.804 338.899 172.02 339.595 172.02C340.291 172.02 340.837 171.804 341.233 171.372ZM356.397 161.4H358.881V174H356.685V172.74C355.953 173.748 354.909 174.252 353.553 174.252C352.245 174.252 351.213 173.808 350.457 172.92C349.701 172.02 349.323 170.94 349.323 169.68C349.323 168.42 349.701 167.346 350.457 166.458C351.213 165.558 352.245 165.108 353.553 165.108C354.741 165.108 355.689 165.498 356.397 166.278V161.4ZM356.397 168.654C356.217 168.246 355.923 167.904 355.515 167.628C355.119 167.352 354.663 167.214 354.147 167.214C353.451 167.214 352.899 167.454 352.491 167.934C352.083 168.402 351.879 168.984 351.879 169.68C351.879 170.376 352.083 170.964 352.491 171.444C352.899 171.912 353.451 172.146 354.147 172.146C354.663 172.146 355.119 172.008 355.515 171.732C355.923 171.456 356.217 171.114 356.397 170.706V168.654ZM360.43 169.68C360.43 168.9 360.568 168.21 360.844 167.61C361.12 166.998 361.48 166.518 361.924 166.17C362.38 165.822 362.854 165.558 363.346 165.378C363.85 165.198 364.36 165.108 364.876 165.108C365.74 165.108 366.484 165.27 367.108 165.594C367.744 165.918 368.212 166.338 368.512 166.854C368.812 167.358 369.016 167.934 369.124 168.582C369.244 169.218 369.214 169.854 369.034 170.49H362.95C363.082 171.09 363.43 171.54 363.994 171.84C364.558 172.128 365.224 172.272 365.992 172.272C366.94 172.272 367.81 172.098 368.602 171.75V173.712C367.75 174.072 366.694 174.252 365.434 174.252C363.994 174.252 362.8 173.85 361.852 173.046C360.904 172.242 360.43 171.12 360.43 169.68ZM366.784 168.87C366.844 168.474 366.73 168.066 366.442 167.646C366.154 167.226 365.662 167.016 364.966 167.016C364.414 167.016 363.94 167.184 363.544 167.52C363.148 167.844 362.944 168.294 362.932 168.87H366.784ZM378.392 171.768C378.392 172.152 378.596 172.344 379.004 172.344C379.172 172.344 379.328 172.32 379.472 172.272V173.91C379.016 174.078 378.554 174.162 378.086 174.162C377.174 174.162 376.538 173.838 376.178 173.19C375.278 173.898 374.24 174.252 373.064 174.252C372.212 174.252 371.492 174.018 370.904 173.55C370.328 173.07 370.04 172.422 370.04 171.606C370.04 170.922 370.244 170.352 370.652 169.896C371.06 169.44 371.534 169.134 372.074 168.978C372.614 168.81 373.202 168.726 373.838 168.726C374.546 168.726 375.23 168.804 375.89 168.96V168.654C375.89 168.21 375.716 167.856 375.368 167.592C375.02 167.328 374.516 167.196 373.856 167.196C372.896 167.196 371.876 167.412 370.796 167.844V165.684C371.948 165.3 373.064 165.108 374.144 165.108C376.976 165.108 378.392 166.41 378.392 169.014V171.768ZM374.414 170.22C373.898 170.22 373.466 170.316 373.118 170.508C372.77 170.7 372.596 171 372.596 171.408C372.596 171.72 372.722 171.978 372.974 172.182C373.238 172.374 373.562 172.47 373.946 172.47C374.702 172.47 375.35 172.236 375.89 171.768V170.418C375.338 170.286 374.846 170.22 374.414 170.22ZM380.078 169.806C380.078 169.014 380.216 168.306 380.492 167.682C380.78 167.058 381.158 166.566 381.626 166.206C382.094 165.834 382.61 165.558 383.174 165.378C383.738 165.186 384.332 165.09 384.956 165.09C385.952 165.09 386.84 165.3 387.62 165.72V167.916C386.948 167.484 386.18 167.268 385.316 167.268C384.56 167.268 383.924 167.466 383.408 167.862C382.892 168.258 382.634 168.864 382.634 169.68C382.634 170.46 382.892 171.06 383.408 171.48C383.924 171.888 384.548 172.092 385.28 172.092C386.204 172.092 387.014 171.882 387.71 171.462V173.676C386.81 174.06 385.838 174.252 384.794 174.252C383.498 174.252 382.388 173.874 381.464 173.118C380.54 172.35 380.078 171.246 380.078 169.806ZM389.946 162.84L392.43 162.246V165.36H395.166V167.466H392.43V170.85C392.43 171.714 392.892 172.146 393.816 172.146C394.368 172.146 394.89 172.05 395.382 171.858V173.874C394.662 174.126 393.888 174.252 393.06 174.252C392.148 174.252 391.398 174.018 390.81 173.55C390.234 173.082 389.946 172.344 389.946 171.336V167.466H388.488V165.36H389.946V162.84ZM399.252 174H396.75V165.36H399.252V174ZM399.468 162.498C399.468 162.966 399.33 163.32 399.054 163.56C398.778 163.8 398.424 163.92 397.992 163.92C397.572 163.92 397.224 163.8 396.948 163.56C396.672 163.32 396.534 162.966 396.534 162.498C396.534 162.042 396.672 161.694 396.948 161.454C397.224 161.214 397.572 161.094 397.992 161.094C398.412 161.094 398.76 161.214 399.036 161.454C399.324 161.694 399.468 162.042 399.468 162.498ZM407.51 165.36H410.174L406.61 174H403.982L400.418 165.36H403.082L405.296 171.354L407.51 165.36ZM418.705 171.768C418.705 172.152 418.909 172.344 419.317 172.344C419.485 172.344 419.641 172.32 419.785 172.272V173.91C419.329 174.078 418.867 174.162 418.399 174.162C417.487 174.162 416.851 173.838 416.491 173.19C415.591 173.898 414.553 174.252 413.377 174.252C412.525 174.252 411.805 174.018 411.217 173.55C410.641 173.07 410.353 172.422 410.353 171.606C410.353 170.922 410.557 170.352 410.965 169.896C411.373 169.44 411.847 169.134 412.387 168.978C412.927 168.81 413.515 168.726 414.151 168.726C414.859 168.726 415.543 168.804 416.203 168.96V168.654C416.203 168.21 416.029 167.856 415.681 167.592C415.333 167.328 414.829 167.196 414.169 167.196C413.209 167.196 412.189 167.412 411.109 167.844V165.684C412.261 165.3 413.377 165.108 414.457 165.108C417.289 165.108 418.705 166.41 418.705 169.014V171.768ZM414.727 170.22C414.211 170.22 413.779 170.316 413.431 170.508C413.083 170.7 412.909 171 412.909 171.408C412.909 171.72 413.035 171.978 413.287 172.182C413.551 172.374 413.875 172.47 414.259 172.47C415.015 172.47 415.663 172.236 416.203 171.768V170.418C415.651 170.286 415.159 170.22 414.727 170.22ZM421.438 162.84L423.922 162.246V165.36H426.658V167.466H423.922V170.85C423.922 171.714 424.384 172.146 425.308 172.146C425.86 172.146 426.382 172.05 426.874 171.858V173.874C426.154 174.126 425.38 174.252 424.552 174.252C423.64 174.252 422.89 174.018 422.302 173.55C421.726 173.082 421.438 172.344 421.438 171.336V167.466H419.98V165.36H421.438V162.84ZM427.737 169.68C427.737 168.9 427.875 168.21 428.151 167.61C428.427 166.998 428.787 166.518 429.231 166.17C429.687 165.822 430.161 165.558 430.653 165.378C431.157 165.198 431.667 165.108 432.183 165.108C433.047 165.108 433.791 165.27 434.415 165.594C435.051 165.918 435.519 166.338 435.819 166.854C436.119 167.358 436.323 167.934 436.431 168.582C436.551 169.218 436.521 169.854 436.341 170.49H430.257C430.389 171.09 430.737 171.54 431.301 171.84C431.865 172.128 432.531 172.272 433.299 172.272C434.247 172.272 435.117 172.098 435.909 171.75V173.712C435.057 174.072 434.001 174.252 432.741 174.252C431.301 174.252 430.107 173.85 429.159 173.046C428.211 172.242 427.737 171.12 427.737 169.68ZM434.091 168.87C434.151 168.474 434.037 168.066 433.749 167.646C433.461 167.226 432.969 167.016 432.273 167.016C431.721 167.016 431.247 167.184 430.851 167.52C430.455 167.844 430.251 168.294 430.239 168.87H434.091ZM281.684 185.772C281.684 184.848 282.026 184.176 282.71 183.756C283.394 183.324 284.252 183.108 285.284 183.108C286.4 183.108 287.462 183.354 288.47 183.846V185.898C288.098 185.646 287.624 185.436 287.048 185.268C286.484 185.1 285.95 185.016 285.446 185.016C284.642 185.016 284.24 185.244 284.24 185.7C284.24 185.964 284.408 186.18 284.744 186.348C285.08 186.516 285.488 186.666 285.968 186.798C286.448 186.918 286.922 187.068 287.39 187.248C287.87 187.428 288.278 187.716 288.614 188.112C288.95 188.508 289.118 189 289.118 189.588C289.118 190.236 288.926 190.764 288.542 191.172C288.17 191.58 287.702 191.862 287.138 192.018C286.586 192.174 285.938 192.252 285.194 192.252C283.814 192.252 282.668 191.982 281.756 191.442V189.372C282.692 189.984 283.79 190.29 285.05 190.29C286.058 190.29 286.562 190.074 286.562 189.642C286.562 189.39 286.394 189.18 286.058 189.012C285.722 188.844 285.314 188.694 284.834 188.562C284.366 188.43 283.892 188.274 283.412 188.094C282.932 187.902 282.524 187.614 282.188 187.23C281.852 186.834 281.684 186.348 281.684 185.772ZM296.544 183.36H299.046V192H296.832V190.902C296.052 191.802 295.092 192.252 293.952 192.252C292.824 192.252 291.954 191.922 291.342 191.262C290.742 190.602 290.442 189.75 290.442 188.706V183.36H292.944V188.382C292.944 188.946 293.088 189.372 293.376 189.66C293.664 189.948 294.072 190.092 294.6 190.092C295.368 190.092 296.016 189.726 296.544 188.994V183.36ZM301.077 179.4H303.579V184.278C304.263 183.498 305.211 183.108 306.423 183.108C307.731 183.108 308.757 183.558 309.501 184.458C310.257 185.346 310.635 186.42 310.635 187.68C310.635 188.94 310.257 190.02 309.501 190.92C308.757 191.808 307.731 192.252 306.423 192.252C305.043 192.252 303.999 191.748 303.291 190.74V192H301.077V179.4ZM307.467 189.444C307.875 188.964 308.079 188.376 308.079 187.68C308.079 186.984 307.875 186.402 307.467 185.934C307.059 185.454 306.507 185.214 305.811 185.214C305.295 185.214 304.833 185.352 304.425 185.628C304.029 185.904 303.741 186.246 303.561 186.654V188.706C303.741 189.114 304.029 189.456 304.425 189.732C304.833 190.008 305.295 190.146 305.811 190.146C306.507 190.146 307.059 189.912 307.467 189.444ZM311.807 185.772C311.807 184.848 312.149 184.176 312.833 183.756C313.517 183.324 314.375 183.108 315.407 183.108C316.523 183.108 317.585 183.354 318.593 183.846V185.898C318.221 185.646 317.747 185.436 317.171 185.268C316.607 185.1 316.073 185.016 315.569 185.016C314.765 185.016 314.363 185.244 314.363 185.7C314.363 185.964 314.531 186.18 314.867 186.348C315.203 186.516 315.611 186.666 316.091 186.798C316.571 186.918 317.045 187.068 317.513 187.248C317.993 187.428 318.401 187.716 318.737 188.112C319.073 188.508 319.241 189 319.241 189.588C319.241 190.236 319.049 190.764 318.665 191.172C318.293 191.58 317.825 191.862 317.261 192.018C316.709 192.174 316.061 192.252 315.317 192.252C313.937 192.252 312.791 191.982 311.879 191.442V189.372C312.815 189.984 313.913 190.29 315.173 190.29C316.181 190.29 316.685 190.074 316.685 189.642C316.685 189.39 316.517 189.18 316.181 189.012C315.845 188.844 315.437 188.694 314.957 188.562C314.489 188.43 314.015 188.274 313.535 188.094C313.055 187.902 312.647 187.614 312.311 187.23C311.975 186.834 311.807 186.348 311.807 185.772ZM320.187 187.806C320.187 187.014 320.325 186.306 320.601 185.682C320.889 185.058 321.267 184.566 321.735 184.206C322.203 183.834 322.719 183.558 323.283 183.378C323.847 183.186 324.441 183.09 325.065 183.09C326.061 183.09 326.949 183.3 327.729 183.72V185.916C327.057 185.484 326.289 185.268 325.425 185.268C324.669 185.268 324.033 185.466 323.517 185.862C323.001 186.258 322.743 186.864 322.743 187.68C322.743 188.46 323.001 189.06 323.517 189.48C324.033 189.888 324.657 190.092 325.389 190.092C326.313 190.092 327.123 189.882 327.819 189.462V191.676C326.919 192.06 325.947 192.252 324.903 192.252C323.607 192.252 322.497 191.874 321.573 191.118C320.649 190.35 320.187 189.246 320.187 187.806ZM331.621 184.656C331.945 184.152 332.413 183.762 333.025 183.486C333.637 183.21 334.333 183.108 335.113 183.18V185.61C334.429 185.49 333.787 185.55 333.187 185.79C332.599 186.03 332.173 186.408 331.909 186.924V192H329.407V183.36H331.621V184.656ZM338.868 192H336.366V183.36H338.868V192ZM339.084 180.498C339.084 180.966 338.946 181.32 338.67 181.56C338.394 181.8 338.04 181.92 337.608 181.92C337.188 181.92 336.84 181.8 336.564 181.56C336.288 181.32 336.15 180.966 336.15 180.498C336.15 180.042 336.288 179.694 336.564 179.454C336.84 179.214 337.188 179.094 337.608 179.094C338.028 179.094 338.376 179.214 338.652 179.454C338.94 179.694 339.084 180.042 339.084 180.498ZM343.148 184.62C343.856 183.612 344.9 183.108 346.28 183.108C347.588 183.108 348.614 183.558 349.358 184.458C350.114 185.346 350.492 186.42 350.492 187.68C350.492 188.94 350.114 190.02 349.358 190.92C348.614 191.808 347.588 192.252 346.28 192.252C345.092 192.252 344.144 191.862 343.436 191.082V195.96H340.934V183.36H343.148V184.62ZM347.324 189.444C347.732 188.964 347.936 188.376 347.936 187.68C347.936 186.984 347.732 186.402 347.324 185.934C346.916 185.454 346.364 185.214 345.668 185.214C345.152 185.214 344.69 185.352 344.282 185.628C343.886 185.904 343.598 186.246 343.418 186.654V188.706C343.598 189.114 343.886 189.456 344.282 189.732C344.69 190.008 345.152 190.146 345.668 190.146C346.364 190.146 346.916 189.912 347.324 189.444ZM352.584 180.84L355.068 180.246V183.36H357.804V185.466H355.068V188.85C355.068 189.714 355.53 190.146 356.454 190.146C357.006 190.146 357.528 190.05 358.02 189.858V191.874C357.3 192.126 356.526 192.252 355.698 192.252C354.786 192.252 354.036 192.018 353.448 191.55C352.872 191.082 352.584 190.344 352.584 189.336V185.466H351.126V183.36H352.584V180.84ZM361.889 192H359.387V183.36H361.889V192ZM362.105 180.498C362.105 180.966 361.967 181.32 361.691 181.56C361.415 181.8 361.061 181.92 360.629 181.92C360.209 181.92 359.861 181.8 359.585 181.56C359.309 181.32 359.171 180.966 359.171 180.498C359.171 180.042 359.309 179.694 359.585 179.454C359.861 179.214 360.209 179.094 360.629 179.094C361.049 179.094 361.397 179.214 361.673 179.454C361.961 179.694 362.105 180.042 362.105 180.498ZM364.855 191.046C363.931 190.242 363.469 189.12 363.469 187.68C363.469 186.24 363.931 185.118 364.855 184.314C365.779 183.51 366.907 183.108 368.239 183.108C369.583 183.108 370.711 183.51 371.623 184.314C372.547 185.118 373.009 186.24 373.009 187.68C373.009 189.12 372.547 190.242 371.623 191.046C370.711 191.85 369.583 192.252 368.239 192.252C366.907 192.252 365.779 191.85 364.855 191.046ZM369.877 189.372C370.273 188.928 370.471 188.364 370.471 187.68C370.471 186.996 370.273 186.438 369.877 186.006C369.481 185.562 368.935 185.34 368.239 185.34C367.543 185.34 366.997 185.562 366.601 186.006C366.217 186.438 366.025 186.996 366.025 187.68C366.025 188.364 366.217 188.928 366.601 189.372C366.997 189.804 367.543 190.02 368.239 190.02C368.935 190.02 369.481 189.804 369.877 189.372ZM376.766 184.458C377.546 183.558 378.506 183.108 379.646 183.108C380.75 183.108 381.608 183.444 382.22 184.116C382.844 184.776 383.156 185.622 383.156 186.654V192H380.654V186.978C380.654 186.414 380.498 185.988 380.186 185.7C379.886 185.412 379.484 185.268 378.98 185.268C378.2 185.268 377.558 185.634 377.054 186.366V192H374.552V183.36H376.766V184.458ZM388.729 187.86H386.353C386.353 187.44 386.449 187.026 386.641 186.618C386.845 186.198 387.085 185.826 387.361 185.502C387.637 185.178 387.913 184.872 388.189 184.584C388.465 184.284 388.699 183.99 388.891 183.702C389.095 183.402 389.197 183.126 389.197 182.874C389.197 181.974 388.513 181.524 387.145 181.524C386.137 181.524 385.123 181.818 384.103 182.406V180.03C385.195 179.442 386.359 179.148 387.595 179.148C388.843 179.148 389.869 179.406 390.673 179.922C391.489 180.438 391.897 181.23 391.897 182.298C391.897 182.754 391.789 183.21 391.573 183.666C391.357 184.11 391.093 184.512 390.781 184.872C390.469 185.22 390.157 185.562 389.845 185.898C389.533 186.222 389.269 186.558 389.053 186.906C388.837 187.242 388.729 187.56 388.729 187.86ZM388.639 189.66C388.927 189.912 389.071 190.278 389.071 190.758C389.071 191.238 388.927 191.604 388.639 191.856C388.351 192.108 387.991 192.234 387.559 192.234C387.127 192.234 386.761 192.108 386.461 191.856C386.173 191.604 386.029 191.238 386.029 190.758C386.029 190.278 386.173 189.912 386.461 189.66C386.761 189.408 387.127 189.282 387.559 189.282C387.991 189.282 388.351 189.408 388.639 189.66Z" fill="#111111"/>
<path d="M297.35 223.6H300.11C301.542 223.6 302.638 223.988 303.398 224.764C304.166 225.532 304.55 226.544 304.55 227.8C304.55 229.056 304.166 230.072 303.398 230.848C302.638 231.616 301.542 232 300.11 232H297.35V223.6ZM302.654 230.188C303.238 229.62 303.53 228.824 303.53 227.8C303.53 226.776 303.238 225.98 302.654 225.412C302.078 224.844 301.23 224.56 300.11 224.56H298.358V231.04H300.11C301.23 231.04 302.078 230.756 302.654 230.188ZM305.537 229.12C305.537 228.176 305.825 227.436 306.401 226.9C306.985 226.364 307.653 226.096 308.405 226.096C309.109 226.096 309.689 226.272 310.145 226.624C310.609 226.976 310.913 227.412 311.057 227.932C311.201 228.444 311.209 228.98 311.081 229.54H306.497C306.553 230.108 306.805 230.536 307.253 230.824C307.701 231.112 308.241 231.256 308.873 231.256C309.577 231.256 310.209 231.1 310.769 230.788V231.724C310.233 232.004 309.553 232.144 308.729 232.144C307.817 232.144 307.057 231.884 306.449 231.364C305.841 230.844 305.537 230.096 305.537 229.12ZM310.229 228.7C310.253 228.532 310.241 228.356 310.193 228.172C310.145 227.988 310.057 227.804 309.929 227.62C309.809 227.436 309.621 227.284 309.365 227.164C309.109 227.044 308.809 226.984 308.465 226.984C307.945 226.984 307.493 227.136 307.109 227.44C306.733 227.744 306.529 228.164 306.497 228.7H310.229ZM317.128 230.8C317.128 231.096 317.276 231.244 317.572 231.244C317.7 231.244 317.848 231.216 318.016 231.16V231.94C317.776 232.028 317.536 232.072 317.296 232.072C316.744 232.072 316.392 231.84 316.24 231.376C315.624 231.888 314.876 232.144 313.996 232.144C313.436 232.144 312.956 231.996 312.556 231.7C312.164 231.396 311.968 230.96 311.968 230.392C311.968 229.712 312.22 229.22 312.724 228.916C313.236 228.604 313.852 228.448 314.572 228.448C315.1 228.448 315.632 228.508 316.168 228.628V228.424C316.168 227.984 316.024 227.636 315.736 227.38C315.448 227.116 315.044 226.984 314.524 226.984C313.796 226.984 313.096 227.128 312.424 227.416V226.48C313.176 226.224 313.908 226.096 314.62 226.096C315.404 226.096 316.016 226.308 316.456 226.732C316.904 227.148 317.128 227.752 317.128 228.544V230.8ZM312.952 230.344C312.952 230.664 313.072 230.908 313.312 231.076C313.56 231.236 313.856 231.316 314.2 231.316C314.992 231.316 315.648 231.036 316.168 230.476V229.42C315.624 229.308 315.136 229.252 314.704 229.252C314.216 229.252 313.8 229.34 313.456 229.516C313.12 229.684 312.952 229.96 312.952 230.344ZM318.519 229.144C318.519 228.64 318.611 228.188 318.795 227.788C318.979 227.388 319.219 227.068 319.515 226.828C319.819 226.588 320.151 226.408 320.511 226.288C320.879 226.16 321.255 226.096 321.639 226.096C322.351 226.096 322.943 226.252 323.415 226.564V227.5C322.975 227.156 322.423 226.984 321.759 226.984C321.135 226.984 320.599 227.164 320.151 227.524C319.703 227.884 319.479 228.416 319.479 229.12C319.479 229.816 319.699 230.348 320.139 230.716C320.587 231.076 321.119 231.256 321.735 231.256C322.375 231.256 322.955 231.1 323.475 230.788V231.748C322.931 232.012 322.307 232.144 321.603 232.144C320.771 232.144 320.047 231.884 319.431 231.364C318.823 230.844 318.519 230.104 318.519 229.144ZM325.157 224.452L326.105 224.212V226.24H328.409V227.128H326.105V230.104C326.105 230.528 326.201 230.824 326.393 230.992C326.593 231.16 326.909 231.244 327.341 231.244C327.757 231.244 328.181 231.156 328.613 230.98V231.868C328.125 232.044 327.609 232.132 327.065 232.132C326.481 232.132 326.017 231.976 325.673 231.664C325.329 231.344 325.157 230.88 325.157 230.272V227.128H324.077V226.24H325.157V224.452ZM330.619 232H329.659V226.24H330.619V232ZM330.583 223.96C330.703 224.064 330.763 224.212 330.763 224.404C330.763 224.596 330.703 224.748 330.583 224.86C330.463 224.964 330.315 225.016 330.139 225.016C329.963 225.016 329.815 224.964 329.695 224.86C329.575 224.748 329.515 224.596 329.515 224.404C329.515 224.212 329.575 224.064 329.695 223.96C329.815 223.848 329.963 223.792 330.139 223.792C330.315 223.792 330.463 223.848 330.583 223.96ZM336.672 226.24H337.74L335.196 232H334.188L331.644 226.24H332.712L334.692 230.92L336.672 226.24ZM343.23 230.8C343.23 231.096 343.378 231.244 343.674 231.244C343.802 231.244 343.95 231.216 344.118 231.16V231.94C343.878 232.028 343.638 232.072 343.398 232.072C342.846 232.072 342.494 231.84 342.342 231.376C341.726 231.888 340.978 232.144 340.098 232.144C339.538 232.144 339.058 231.996 338.658 231.7C338.266 231.396 338.07 230.96 338.07 230.392C338.07 229.712 338.322 229.22 338.826 228.916C339.338 228.604 339.954 228.448 340.674 228.448C341.202 228.448 341.734 228.508 342.27 228.628V228.424C342.27 227.984 342.126 227.636 341.838 227.38C341.55 227.116 341.146 226.984 340.626 226.984C339.898 226.984 339.198 227.128 338.526 227.416V226.48C339.278 226.224 340.01 226.096 340.722 226.096C341.506 226.096 342.118 226.308 342.558 226.732C343.006 227.148 343.23 227.752 343.23 228.544V230.8ZM339.054 230.344C339.054 230.664 339.174 230.908 339.414 231.076C339.662 231.236 339.958 231.316 340.302 231.316C341.094 231.316 341.75 231.036 342.27 230.476V229.42C341.726 229.308 341.238 229.252 340.806 229.252C340.318 229.252 339.902 229.34 339.558 229.516C339.222 229.684 339.054 229.96 339.054 230.344ZM345.354 224.452L346.302 224.212V226.24H348.606V227.128H346.302V230.104C346.302 230.528 346.398 230.824 346.59 230.992C346.79 231.16 347.106 231.244 347.538 231.244C347.954 231.244 348.378 231.156 348.81 230.98V231.868C348.322 232.044 347.806 232.132 347.262 232.132C346.678 232.132 346.214 231.976 345.87 231.664C345.526 231.344 345.354 230.88 345.354 230.272V227.128H344.274V226.24H345.354V224.452ZM349.436 229.12C349.436 228.176 349.724 227.436 350.3 226.9C350.884 226.364 351.552 226.096 352.304 226.096C353.008 226.096 353.588 226.272 354.044 226.624C354.508 226.976 354.812 227.412 354.956 227.932C355.1 228.444 355.108 228.98 354.98 229.54H350.396C350.452 230.108 350.704 230.536 351.152 230.824C351.6 231.112 352.14 231.256 352.772 231.256C353.476 231.256 354.108 231.1 354.668 230.788V231.724C354.132 232.004 353.452 232.144 352.628 232.144C351.716 232.144 350.956 231.884 350.348 231.364C349.74 230.844 349.436 230.096 349.436 229.12ZM354.128 228.7C354.152 228.532 354.14 228.356 354.092 228.172C354.044 227.988 353.956 227.804 353.828 227.62C353.708 227.436 353.52 227.284 353.264 227.164C353.008 227.044 352.708 226.984 352.364 226.984C351.844 226.984 351.392 227.136 351.008 227.44C350.632 227.744 350.428 228.164 350.396 228.7H354.128ZM358.939 227.752C358.939 227.2 359.151 226.788 359.575 226.516C360.007 226.236 360.527 226.096 361.135 226.096C361.879 226.096 362.559 226.26 363.175 226.588V227.5C362.935 227.34 362.631 227.212 362.263 227.116C361.895 227.012 361.539 226.96 361.195 226.96C360.843 226.96 360.539 227.024 360.283 227.152C360.035 227.272 359.911 227.464 359.911 227.728C359.911 227.92 359.999 228.088 360.175 228.232C360.359 228.368 360.587 228.472 360.859 228.544C361.131 228.616 361.423 228.708 361.735 228.82C362.055 228.924 362.351 229.036 362.623 229.156C362.895 229.268 363.119 229.444 363.295 229.684C363.479 229.916 363.571 230.196 363.571 230.524C363.571 231.084 363.347 231.496 362.899 231.76C362.451 232.016 361.883 232.144 361.195 232.144C360.291 232.144 359.547 231.956 358.963 231.58V230.644C359.571 231.052 360.299 231.256 361.147 231.256C362.123 231.256 362.611 231.02 362.611 230.548C362.611 230.332 362.483 230.152 362.227 230.008C361.979 229.856 361.675 229.732 361.315 229.636C360.955 229.532 360.595 229.416 360.235 229.288C359.875 229.16 359.567 228.968 359.311 228.712C359.063 228.456 358.939 228.136 358.939 227.752ZM369.113 226.24H370.073V232H369.209V231.148C369.001 231.428 368.709 231.664 368.333 231.856C367.965 232.048 367.565 232.144 367.133 232.144C366.389 232.144 365.801 231.932 365.369 231.508C364.945 231.076 364.733 230.504 364.733 229.792V226.24H365.693V229.672C365.693 230.728 366.209 231.256 367.241 231.256C367.977 231.256 368.601 230.872 369.113 230.104V226.24ZM371.788 223.6H372.748V227.104C373.324 226.432 374.068 226.096 374.98 226.096C375.804 226.096 376.488 226.384 377.032 226.96C377.584 227.536 377.86 228.256 377.86 229.12C377.86 229.984 377.584 230.704 377.032 231.28C376.488 231.856 375.804 232.144 374.98 232.144C374.076 232.144 373.3 231.776 372.652 231.04V232H371.788V223.6ZM376.312 230.668C376.704 230.276 376.9 229.76 376.9 229.12C376.9 228.48 376.704 227.964 376.312 227.572C375.928 227.18 375.448 226.984 374.872 226.984C374.384 226.984 373.952 227.12 373.576 227.392C373.2 227.664 372.924 228 372.748 228.4V229.84C372.924 230.24 373.2 230.576 373.576 230.848C373.952 231.12 374.384 231.256 374.872 231.256C375.448 231.256 375.928 231.06 376.312 230.668ZM378.845 227.752C378.845 227.2 379.057 226.788 379.481 226.516C379.913 226.236 380.433 226.096 381.041 226.096C381.785 226.096 382.465 226.26 383.081 226.588V227.5C382.841 227.34 382.537 227.212 382.169 227.116C381.801 227.012 381.445 226.96 381.101 226.96C380.749 226.96 380.445 227.024 380.189 227.152C379.941 227.272 379.817 227.464 379.817 227.728C379.817 227.92 379.905 228.088 380.081 228.232C380.265 228.368 380.493 228.472 380.765 228.544C381.037 228.616 381.329 228.708 381.641 228.82C381.961 228.924 382.257 229.036 382.529 229.156C382.801 229.268 383.025 229.444 383.201 229.684C383.385 229.916 383.477 230.196 383.477 230.524C383.477 231.084 383.253 231.496 382.805 231.76C382.357 232.016 381.789 232.144 381.101 232.144C380.197 232.144 379.453 231.956 378.869 231.58V230.644C379.477 231.052 380.205 231.256 381.053 231.256C382.029 231.256 382.517 231.02 382.517 230.548C382.517 230.332 382.389 230.152 382.133 230.008C381.885 229.856 381.581 229.732 381.221 229.636C380.861 229.532 380.501 229.416 380.141 229.288C379.781 229.16 379.473 228.968 379.217 228.712C378.969 228.456 378.845 228.136 378.845 227.752ZM384.315 229.144C384.315 228.64 384.407 228.188 384.591 227.788C384.775 227.388 385.015 227.068 385.311 226.828C385.615 226.588 385.947 226.408 386.307 226.288C386.675 226.16 387.051 226.096 387.435 226.096C388.147 226.096 388.739 226.252 389.211 226.564V227.5C388.771 227.156 388.219 226.984 387.555 226.984C386.931 226.984 386.395 227.164 385.947 227.524C385.499 227.884 385.275 228.416 385.275 229.12C385.275 229.816 385.495 230.348 385.935 230.716C386.383 231.076 386.915 231.256 387.531 231.256C388.171 231.256 388.751 231.1 389.271 230.788V231.748C388.727 232.012 388.103 232.144 387.399 232.144C386.567 232.144 385.843 231.884 385.227 231.364C384.619 230.844 384.315 230.104 384.315 229.144ZM391.432 227.26C391.656 226.884 392 226.592 392.464 226.384C392.928 226.168 393.412 226.08 393.916 226.12V227.08C393.356 227.016 392.86 227.108 392.428 227.356C392.004 227.596 391.704 227.948 391.528 228.412V232H390.568V226.24H391.432V227.26ZM395.887 232H394.927V226.24H395.887V232ZM395.851 223.96C395.971 224.064 396.031 224.212 396.031 224.404C396.031 224.596 395.971 224.748 395.851 224.86C395.731 224.964 395.583 225.016 395.407 225.016C395.231 225.016 395.083 224.964 394.963 224.86C394.843 224.748 394.783 224.596 394.783 224.404C394.783 224.212 394.843 224.064 394.963 223.96C395.083 223.848 395.231 223.792 395.407 223.792C395.583 223.792 395.731 223.848 395.851 223.96ZM398.496 227.2C399.144 226.464 399.92 226.096 400.824 226.096C401.648 226.096 402.332 226.384 402.876 226.96C403.428 227.536 403.704 228.256 403.704 229.12C403.704 229.984 403.428 230.704 402.876 231.28C402.332 231.856 401.648 232.144 400.824 232.144C399.912 232.144 399.168 231.808 398.592 231.136V234.64H397.632V226.24H398.496V227.2ZM402.156 230.668C402.548 230.276 402.744 229.76 402.744 229.12C402.744 228.48 402.548 227.964 402.156 227.572C401.772 227.18 401.292 226.984 400.716 226.984C400.228 226.984 399.796 227.12 399.42 227.392C399.044 227.664 398.768 228 398.592 228.4V229.84C398.768 230.24 399.044 230.576 399.42 230.848C399.796 231.12 400.228 231.256 400.716 231.256C401.292 231.256 401.772 231.06 402.156 230.668ZM405.327 224.452L406.275 224.212V226.24H408.579V227.128H406.275V230.104C406.275 230.528 406.371 230.824 406.563 230.992C406.763 231.16 407.079 231.244 407.511 231.244C407.927 231.244 408.351 231.156 408.783 230.98V231.868C408.295 232.044 407.779 232.132 407.235 232.132C406.651 232.132 406.187 231.976 405.843 231.664C405.499 231.344 405.327 230.88 405.327 230.272V227.128H404.247V226.24H405.327V224.452ZM410.789 232H409.829V226.24H410.789V232ZM410.753 223.96C410.873 224.064 410.933 224.212 410.933 224.404C410.933 224.596 410.873 224.748 410.753 224.86C410.633 224.964 410.485 225.016 410.309 225.016C410.133 225.016 409.985 224.964 409.865 224.86C409.745 224.748 409.685 224.596 409.685 224.404C409.685 224.212 409.745 224.064 409.865 223.96C409.985 223.848 410.133 223.792 410.309 223.792C410.485 223.792 410.633 223.848 410.753 223.96ZM413.05 231.34C412.442 230.796 412.138 230.056 412.138 229.12C412.138 228.184 412.442 227.448 413.05 226.912C413.658 226.368 414.378 226.096 415.21 226.096C416.05 226.096 416.77 226.368 417.37 226.912C417.978 227.448 418.282 228.184 418.282 229.12C418.282 230.056 417.978 230.796 417.37 231.34C416.77 231.876 416.05 232.144 415.21 232.144C414.378 232.144 413.658 231.876 413.05 231.34ZM416.722 230.668C417.122 230.284 417.322 229.768 417.322 229.12C417.322 228.472 417.122 227.96 416.722 227.584C416.322 227.2 415.818 227.008 415.21 227.008C414.602 227.008 414.098 227.2 413.698 227.584C413.298 227.96 413.098 228.472 413.098 229.12C413.098 229.768 413.298 230.284 413.698 230.668C414.098 231.044 414.602 231.232 415.21 231.232C415.818 231.232 416.322 231.044 416.722 230.668ZM420.463 227.092C420.671 226.812 420.959 226.576 421.327 226.384C421.703 226.192 422.107 226.096 422.539 226.096C423.235 226.096 423.807 226.316 424.255 226.756C424.711 227.188 424.939 227.752 424.939 228.448V232H423.979V228.568C423.979 228.048 423.835 227.656 423.547 227.392C423.267 227.12 422.895 226.984 422.431 226.984C421.695 226.984 421.071 227.368 420.559 228.136V232H419.599V226.24H420.463V227.092Z" fill="#111111"/>
<path d="M344.848 263.205C344.848 262.354 345.049 261.617 345.453 260.994C345.856 260.363 346.358 259.901 346.96 259.608C347.561 259.315 348.206 259.168 348.896 259.168C349.688 259.168 350.41 259.34 351.063 259.685V260.609C350.505 260.235 349.834 260.048 349.05 260.048C348.17 260.048 347.407 260.319 346.762 260.862C346.116 261.397 345.79 262.178 345.783 263.205C345.783 263.858 345.948 264.422 346.278 264.899C346.615 265.376 347.026 265.72 347.51 265.933C348.001 266.146 348.525 266.252 349.083 266.252C349.911 266.252 350.59 266.065 351.118 265.691V266.615C350.45 266.96 349.706 267.132 348.885 267.132C348.393 267.132 347.909 267.048 347.433 266.879C346.956 266.703 346.523 266.457 346.135 266.142C345.746 265.819 345.434 265.405 345.2 264.899C344.965 264.386 344.848 263.821 344.848 263.205ZM356.588 265.9C356.588 266.171 356.724 266.307 356.995 266.307C357.113 266.307 357.248 266.281 357.402 266.23V266.945C357.182 267.026 356.962 267.066 356.742 267.066C356.236 267.066 355.914 266.853 355.774 266.428C355.21 266.897 354.524 267.132 353.717 267.132C353.204 267.132 352.764 266.996 352.397 266.725C352.038 266.446 351.858 266.047 351.858 265.526C351.858 264.903 352.089 264.452 352.551 264.173C353.021 263.887 353.585 263.744 354.245 263.744C354.729 263.744 355.217 263.799 355.708 263.909V263.722C355.708 263.319 355.576 263 355.312 262.765C355.048 262.523 354.678 262.402 354.201 262.402C353.534 262.402 352.892 262.534 352.276 262.798V261.94C352.966 261.705 353.637 261.588 354.289 261.588C355.008 261.588 355.569 261.782 355.972 262.171C356.383 262.552 356.588 263.106 356.588 263.832V265.9ZM352.76 265.482C352.76 265.775 352.87 265.999 353.09 266.153C353.318 266.3 353.589 266.373 353.904 266.373C354.63 266.373 355.232 266.116 355.708 265.603V264.635C355.21 264.532 354.762 264.481 354.366 264.481C353.919 264.481 353.538 264.562 353.222 264.723C352.914 264.877 352.76 265.13 352.76 265.482ZM359.019 262.501C359.209 262.244 359.473 262.028 359.811 261.852C360.155 261.676 360.526 261.588 360.922 261.588C361.56 261.588 362.084 261.79 362.495 262.193C362.913 262.589 363.122 263.106 363.122 263.744V267H362.242V263.854C362.242 263.377 362.11 263.018 361.846 262.776C361.589 262.527 361.248 262.402 360.823 262.402C360.148 262.402 359.576 262.754 359.107 263.458V267H358.227V261.72H359.019V262.501ZM364.265 264.382C364.265 263.92 364.349 263.506 364.518 263.139C364.686 262.772 364.906 262.479 365.178 262.259C365.456 262.039 365.761 261.874 366.091 261.764C366.428 261.647 366.773 261.588 367.125 261.588C367.777 261.588 368.32 261.731 368.753 262.017V262.875C368.349 262.56 367.843 262.402 367.235 262.402C366.663 262.402 366.171 262.567 365.761 262.897C365.35 263.227 365.145 263.715 365.145 264.36C365.145 264.998 365.346 265.486 365.75 265.823C366.16 266.153 366.648 266.318 367.213 266.318C367.799 266.318 368.331 266.175 368.808 265.889V266.769C368.309 267.011 367.737 267.132 367.092 267.132C366.329 267.132 365.665 266.894 365.101 266.417C364.543 265.94 364.265 265.262 364.265 264.382ZM369.57 264.36C369.57 263.495 369.834 262.816 370.362 262.325C370.897 261.834 371.51 261.588 372.199 261.588C372.844 261.588 373.376 261.749 373.794 262.072C374.219 262.395 374.498 262.794 374.63 263.271C374.762 263.74 374.769 264.232 374.652 264.745H370.45C370.501 265.266 370.732 265.658 371.143 265.922C371.554 266.186 372.049 266.318 372.628 266.318C373.273 266.318 373.853 266.175 374.366 265.889V266.747C373.875 267.004 373.251 267.132 372.496 267.132C371.66 267.132 370.963 266.894 370.406 266.417C369.849 265.94 369.57 265.255 369.57 264.36ZM373.871 263.975C373.893 263.821 373.882 263.66 373.838 263.491C373.794 263.322 373.713 263.154 373.596 262.985C373.486 262.816 373.314 262.677 373.079 262.567C372.844 262.457 372.569 262.402 372.254 262.402C371.777 262.402 371.363 262.541 371.011 262.82C370.666 263.099 370.479 263.484 370.45 263.975H373.871ZM375.927 258.97H376.807V267H375.927V258.97Z" fill="#111111"/>
<defs>
<linearGradient id="paint0_linear_314_55653" x1="389.31" y1="68.4" x2="78.66" y2="416.1" gradientUnits="userSpaceOnUse">
<stop offset="0.239845" stop-color="#F9F8FE"/>
<stop offset="0.593059" stop-color="#F9F8FE" stop-opacity="0.5"/>
<stop offset="0.91781" stop-color="#F9F8FE" stop-opacity="0"/>
</linearGradient>
</defs>
</svg>
