<svg width="507" height="470" viewBox="0 0 507 470" fill="none" xmlns="http://www.w3.org/2000/svg">
<path fill-rule="evenodd" clip-rule="evenodd" d="M117.5 235C117.5 299.893 170.107 352.5 235 352.5C299.893 352.5 352.5 299.893 352.5 235C352.5 170.107 299.893 117.5 235 117.5C170.107 117.5 117.5 170.107 117.5 235ZM2.02454e-05 235C1.45722e-05 364.787 105.213 470 235 470C364.787 470 470 364.787 470 235C470 105.213 364.787 1.06598e-05 235 4.98661e-06C105.213 -6.86551e-07 2.59186e-05 105.213 2.02454e-05 235Z" fill="url(#paint0_linear_314_55568)"/>
<rect x="57.5" y="29.5002" width="335" height="411" rx="12.8034" fill="white" stroke="#111111"/>
<circle cx="345" cy="91.0002" r="24" fill="#3E1BDB"/>
<path d="M345 99.7621L345 82.2383" stroke="white" stroke-width="1.77379"/>
<path d="M353.762 91.0002H336.238" stroke="white" stroke-width="1.77379"/>
<path d="M97 64.9926V62.9926H84.7903L89.4583 58.3695L88.0602 57.0002L81 63.9926L88.0602 71.0002L89.4583 69.6002L84.7903 64.9926H97Z" fill="#111111"/>
<path d="M81.792 91.7302C81.792 90.5662 82.23 89.6782 83.106 89.0662C83.982 88.4542 85.08 88.1482 86.4 88.1482C87.984 88.1482 89.346 88.4722 90.486 89.1202V91.6402C89.418 90.8722 88.122 90.5002 86.598 90.5242C85.23 90.5482 84.546 90.9382 84.546 91.6942C84.546 92.0302 84.714 92.3242 85.05 92.5762C85.398 92.8282 85.824 93.0322 86.328 93.1882C86.844 93.3322 87.396 93.5242 87.984 93.7642C88.584 93.9922 89.136 94.2442 89.64 94.5202C90.156 94.7842 90.582 95.1802 90.918 95.7082C91.266 96.2362 91.44 96.8482 91.44 97.5442C91.44 98.2282 91.308 98.8162 91.044 99.3082C90.792 99.8002 90.432 100.184 89.964 100.46C89.496 100.736 88.98 100.934 88.416 101.054C87.852 101.186 87.222 101.252 86.526 101.252C84.774 101.252 83.22 100.874 81.864 100.118V97.5442C83.208 98.4322 84.696 98.8762 86.328 98.8762C87.9 98.8762 88.686 98.4742 88.686 97.6702C88.686 97.3102 88.512 96.9982 88.164 96.7342C87.828 96.4582 87.402 96.2422 86.886 96.0862C86.382 95.9182 85.83 95.7202 85.23 95.4922C84.642 95.2522 84.09 95.0002 83.574 94.7362C83.07 94.4602 82.644 94.0642 82.296 93.5482C81.96 93.0322 81.792 92.4262 81.792 91.7302ZM98.882 92.3602H101.384V101H99.17V99.9022C98.39 100.802 97.43 101.252 96.29 101.252C95.162 101.252 94.292 100.922 93.68 100.262C93.08 99.6022 92.78 98.7502 92.78 97.7062V92.3602H95.282V97.3822C95.282 97.9462 95.426 98.3722 95.714 98.6602C96.002 98.9482 96.41 99.0922 96.938 99.0922C97.706 99.0922 98.354 98.7262 98.882 97.9942V92.3602ZM103.415 88.4002H105.917V93.2782C106.601 92.4982 107.549 92.1082 108.761 92.1082C110.069 92.1082 111.095 92.5582 111.839 93.4582C112.595 94.3462 112.973 95.4202 112.973 96.6802C112.973 97.9402 112.595 99.0202 111.839 99.9202C111.095 100.808 110.069 101.252 108.761 101.252C107.381 101.252 106.337 100.748 105.629 99.7402V101H103.415V88.4002ZM109.805 98.4442C110.213 97.9642 110.417 97.3762 110.417 96.6802C110.417 95.9842 110.213 95.4022 109.805 94.9342C109.397 94.4542 108.845 94.2142 108.149 94.2142C107.633 94.2142 107.171 94.3522 106.763 94.6282C106.367 94.9042 106.079 95.2462 105.899 95.6542V97.7062C106.079 98.1142 106.367 98.4562 106.763 98.7322C107.171 99.0082 107.633 99.1462 108.149 99.1462C108.845 99.1462 109.397 98.9122 109.805 98.4442ZM114.144 94.7722C114.144 93.8482 114.486 93.1762 115.17 92.7562C115.854 92.3242 116.712 92.1082 117.744 92.1082C118.86 92.1082 119.922 92.3542 120.93 92.8462V94.8982C120.558 94.6462 120.084 94.4362 119.508 94.2682C118.944 94.1002 118.41 94.0162 117.906 94.0162C117.102 94.0162 116.7 94.2442 116.7 94.7002C116.7 94.9642 116.868 95.1802 117.204 95.3482C117.54 95.5162 117.948 95.6662 118.428 95.7982C118.908 95.9182 119.382 96.0682 119.85 96.2482C120.33 96.4282 120.738 96.7162 121.074 97.1122C121.41 97.5082 121.578 98.0002 121.578 98.5882C121.578 99.2362 121.386 99.7642 121.002 100.172C120.63 100.58 120.162 100.862 119.598 101.018C119.046 101.174 118.398 101.252 117.654 101.252C116.274 101.252 115.128 100.982 114.216 100.442V98.3722C115.152 98.9842 116.25 99.2902 117.51 99.2902C118.518 99.2902 119.022 99.0742 119.022 98.6422C119.022 98.3902 118.854 98.1802 118.518 98.0122C118.182 97.8442 117.774 97.6942 117.294 97.5622C116.826 97.4302 116.352 97.2742 115.872 97.0942C115.392 96.9022 114.984 96.6142 114.648 96.2302C114.312 95.8342 114.144 95.3482 114.144 94.7722ZM122.525 96.8062C122.525 96.0142 122.663 95.3062 122.939 94.6822C123.227 94.0582 123.605 93.5662 124.073 93.2062C124.541 92.8342 125.057 92.5582 125.621 92.3782C126.185 92.1862 126.779 92.0902 127.403 92.0902C128.399 92.0902 129.287 92.3002 130.067 92.7202V94.9162C129.395 94.4842 128.627 94.2682 127.763 94.2682C127.007 94.2682 126.371 94.4662 125.855 94.8622C125.339 95.2582 125.081 95.8642 125.081 96.6802C125.081 97.4602 125.339 98.0602 125.855 98.4802C126.371 98.8882 126.995 99.0922 127.727 99.0922C128.651 99.0922 129.461 98.8822 130.157 98.4622V100.676C129.257 101.06 128.285 101.252 127.241 101.252C125.945 101.252 124.835 100.874 123.911 100.118C122.987 99.3502 122.525 98.2462 122.525 96.8062ZM133.959 93.6562C134.283 93.1522 134.751 92.7622 135.363 92.4862C135.975 92.2102 136.671 92.1082 137.451 92.1802V94.6102C136.767 94.4902 136.125 94.5502 135.525 94.7902C134.937 95.0302 134.511 95.4082 134.247 95.9242V101H131.745V92.3602H133.959V93.6562ZM141.206 101H138.704V92.3602H141.206V101ZM141.422 89.4982C141.422 89.9662 141.284 90.3202 141.008 90.5602C140.732 90.8002 140.378 90.9202 139.946 90.9202C139.526 90.9202 139.178 90.8002 138.902 90.5602C138.626 90.3202 138.488 89.9662 138.488 89.4982C138.488 89.0422 138.626 88.6942 138.902 88.4542C139.178 88.2142 139.526 88.0942 139.946 88.0942C140.366 88.0942 140.714 88.2142 140.99 88.4542C141.278 88.6942 141.422 89.0422 141.422 89.4982ZM145.486 93.6202C146.194 92.6122 147.238 92.1082 148.618 92.1082C149.926 92.1082 150.952 92.5582 151.696 93.4582C152.452 94.3462 152.83 95.4202 152.83 96.6802C152.83 97.9402 152.452 99.0202 151.696 99.9202C150.952 100.808 149.926 101.252 148.618 101.252C147.43 101.252 146.482 100.862 145.774 100.082V104.96H143.272V92.3602H145.486V93.6202ZM149.662 98.4442C150.07 97.9642 150.274 97.3762 150.274 96.6802C150.274 95.9842 150.07 95.4022 149.662 94.9342C149.254 94.4542 148.702 94.2142 148.006 94.2142C147.49 94.2142 147.028 94.3522 146.62 94.6282C146.224 94.9042 145.936 95.2462 145.756 95.6542V97.7062C145.936 98.1142 146.224 98.4562 146.62 98.7322C147.028 99.0082 147.49 99.1462 148.006 99.1462C148.702 99.1462 149.254 98.9122 149.662 98.4442ZM154.922 89.8402L157.406 89.2462V92.3602H160.142V94.4662H157.406V97.8502C157.406 98.7142 157.868 99.1462 158.792 99.1462C159.344 99.1462 159.866 99.0502 160.358 98.8582V100.874C159.638 101.126 158.864 101.252 158.036 101.252C157.124 101.252 156.374 101.018 155.786 100.55C155.21 100.082 154.922 99.3442 154.922 98.3362V94.4662H153.464V92.3602H154.922V89.8402ZM164.227 101H161.725V92.3602H164.227V101ZM164.443 89.4982C164.443 89.9662 164.305 90.3202 164.029 90.5602C163.753 90.8002 163.399 90.9202 162.967 90.9202C162.547 90.9202 162.199 90.8002 161.923 90.5602C161.647 90.3202 161.509 89.9662 161.509 89.4982C161.509 89.0422 161.647 88.6942 161.923 88.4542C162.199 88.2142 162.547 88.0942 162.967 88.0942C163.387 88.0942 163.735 88.2142 164.011 88.4542C164.299 88.6942 164.443 89.0422 164.443 89.4982ZM167.193 100.046C166.269 99.2422 165.807 98.1202 165.807 96.6802C165.807 95.2402 166.269 94.1182 167.193 93.3142C168.117 92.5102 169.245 92.1082 170.577 92.1082C171.921 92.1082 173.049 92.5102 173.961 93.3142C174.885 94.1182 175.347 95.2402 175.347 96.6802C175.347 98.1202 174.885 99.2422 173.961 100.046C173.049 100.85 171.921 101.252 170.577 101.252C169.245 101.252 168.117 100.85 167.193 100.046ZM172.215 98.3722C172.611 97.9282 172.809 97.3642 172.809 96.6802C172.809 95.9962 172.611 95.4382 172.215 95.0062C171.819 94.5622 171.273 94.3402 170.577 94.3402C169.881 94.3402 169.335 94.5622 168.939 95.0062C168.555 95.4382 168.363 95.9962 168.363 96.6802C168.363 97.3642 168.555 97.9282 168.939 98.3722C169.335 98.8042 169.881 99.0202 170.577 99.0202C171.273 99.0202 171.819 98.8042 172.215 98.3722ZM179.104 93.4582C179.884 92.5582 180.844 92.1082 181.984 92.1082C183.088 92.1082 183.946 92.4442 184.558 93.1162C185.182 93.7762 185.494 94.6222 185.494 95.6542V101H182.992V95.9782C182.992 95.4142 182.836 94.9882 182.524 94.7002C182.224 94.4122 181.822 94.2682 181.318 94.2682C180.538 94.2682 179.896 94.6342 179.392 95.3662V101H176.89V92.3602H179.104V93.4582ZM187.04 94.7722C187.04 93.8482 187.382 93.1762 188.066 92.7562C188.75 92.3242 189.608 92.1082 190.64 92.1082C191.756 92.1082 192.818 92.3542 193.826 92.8462V94.8982C193.454 94.6462 192.98 94.4362 192.404 94.2682C191.84 94.1002 191.306 94.0162 190.802 94.0162C189.998 94.0162 189.596 94.2442 189.596 94.7002C189.596 94.9642 189.764 95.1802 190.1 95.3482C190.436 95.5162 190.844 95.6662 191.324 95.7982C191.804 95.9182 192.278 96.0682 192.746 96.2482C193.226 96.4282 193.634 96.7162 193.97 97.1122C194.306 97.5082 194.474 98.0002 194.474 98.5882C194.474 99.2362 194.282 99.7642 193.898 100.172C193.526 100.58 193.058 100.862 192.494 101.018C191.942 101.174 191.294 101.252 190.55 101.252C189.17 101.252 188.024 100.982 187.112 100.442V98.3722C188.048 98.9842 189.146 99.2902 190.406 99.2902C191.414 99.2902 191.918 99.0742 191.918 98.6422C191.918 98.3902 191.75 98.1802 191.414 98.0122C191.078 97.8442 190.67 97.6942 190.19 97.5622C189.722 97.4302 189.248 97.2742 188.768 97.0942C188.288 96.9022 187.88 96.6142 187.544 96.2302C187.208 95.8342 187.04 95.3482 187.04 94.7722Z" fill="#111111"/>
<rect x="81" y="113" width="140" height="8" rx="4" fill="#FAFF00"/>
<rect x="81.5" y="145.5" width="287" height="271" rx="13.5" fill="white" stroke="#111111"/>
<rect x="161" y="173" width="80" height="8" rx="4" fill="#B8D0E7"/>
<rect x="161" y="237" width="80" height="8" rx="4" fill="#B8D0E7"/>
<rect x="161" y="301" width="80" height="8" rx="4" fill="#B8D0E7"/>
<rect x="161" y="365" width="80" height="8" rx="4" fill="#B8D0E7"/>
<rect x="161" y="189" width="120" height="8" rx="4" fill="#E4F0FB"/>
<rect x="161" y="253" width="120" height="8" rx="4" fill="#E4F0FB"/>
<rect x="161" y="317" width="120" height="8" rx="4" fill="#E4F0FB"/>
<rect x="161" y="381" width="120" height="8" rx="4" fill="#E4F0FB"/>
<circle cx="121" cy="185" r="23.5" fill="white" stroke="#111111"/>
<path d="M133.907 182.976H132.885V182.923H121.462V188H128.635C127.588 190.956 124.776 193.077 121.462 193.077C117.256 193.077 113.846 189.667 113.846 185.462C113.846 181.256 117.256 177.846 121.462 177.846C123.403 177.846 125.169 178.579 126.514 179.775L130.104 176.185C127.837 174.072 124.805 172.77 121.462 172.77C114.453 172.77 108.77 178.452 108.77 185.462C108.77 192.471 114.453 198.154 121.462 198.154C128.471 198.154 134.154 192.471 134.154 185.462C134.154 184.611 134.067 183.78 133.907 182.976Z" fill="#FFC107"/>
<path d="M110.232 179.554L114.402 182.612C115.531 179.819 118.263 177.846 121.461 177.846C123.403 177.846 125.169 178.579 126.513 179.775L130.104 176.185C127.837 174.072 124.804 172.77 121.461 172.77C116.586 172.77 112.358 175.522 110.232 179.554Z" fill="#FF3D00"/>
<path d="M121.461 198.154C124.74 198.154 127.719 196.9 129.971 194.859L126.043 191.535C124.768 192.5 123.184 193.077 121.461 193.077C118.16 193.077 115.357 190.972 114.301 188.035L110.162 191.224C112.263 195.334 116.529 198.154 121.461 198.154Z" fill="#4CAF50"/>
<path d="M133.906 182.976H132.884V182.923H121.461V188H128.634C128.131 189.42 127.218 190.644 126.04 191.536C126.041 191.535 126.042 191.535 126.042 191.534L129.97 194.859C129.693 195.111 134.153 191.808 134.153 185.462C134.153 184.611 134.066 183.78 133.906 182.976Z" fill="#1976D2"/>
<g clip-path="url(#clip0_314_55568)">
<path d="M121 225C107.746 225 97 235.802 97 249.124C97 261.218 105.864 271.205 117.412 272.95V255.517H111.474V249.176H117.412V244.957C117.412 237.971 120.798 234.905 126.574 234.905C129.34 234.905 130.804 235.112 131.496 235.205V240.739H127.556C125.104 240.739 124.248 243.077 124.248 245.71V249.176H131.434L130.46 255.517H124.248V273C135.962 271.404 145 261.336 145 249.124C145 235.802 134.254 225 121 225Z" fill="#4867AA"/>
</g>
<g clip-path="url(#clip1_314_55568)">
<path d="M121.001 337C134.255 337 145 326.254 145 313C145 299.744 134.256 289 121.001 289C107.745 289 97 299.744 97 313C97 326.254 107.745 337 121.001 337Z" fill="#1FC0E7"/>
<path d="M108.694 312.994L112.782 308.888C112.917 308.751 112.993 308.568 112.993 308.373C112.993 307.968 112.664 307.64 112.26 307.64C112.063 307.64 111.878 307.716 111.74 307.858L107.654 311.947L103.553 307.851C103.414 307.714 103.231 307.64 103.036 307.64C102.63 307.64 102.303 307.968 102.303 308.372C102.303 308.57 102.382 308.756 102.522 308.895L106.61 312.988L102.525 317.084C102.382 317.227 102.303 317.412 102.303 317.61C102.303 318.015 102.631 318.344 103.036 318.344C103.231 318.344 103.414 318.269 103.553 318.13L107.649 314.032L111.729 318.114C111.874 318.264 112.06 318.344 112.26 318.344C112.663 318.344 112.992 318.015 112.992 317.61C112.992 317.414 112.917 317.231 112.778 317.092L108.693 312.99L108.694 312.994ZM132.994 312.993C132.994 313.729 133.591 314.326 134.327 314.326C135.059 314.326 135.656 313.729 135.656 312.993C135.656 312.257 135.059 311.66 134.326 311.66C133.593 311.66 132.997 312.257 132.997 312.993H132.994ZM130.471 312.993C130.471 310.865 132.199 309.132 134.326 309.132C136.449 309.132 138.18 310.865 138.18 312.993C138.18 315.121 136.45 316.854 134.326 316.854C132.2 316.854 130.471 315.123 130.471 312.993ZM128.954 312.993C128.954 315.958 131.365 318.373 134.326 318.373C137.287 318.373 139.698 315.961 139.698 312.994C139.698 310.029 137.287 307.614 134.326 307.614C131.364 307.614 128.954 310.028 128.954 312.994V312.993ZM128.574 307.706H128.35C127.672 307.706 127.02 307.919 126.474 308.34C126.4 308.014 126.105 307.764 125.756 307.764C125.353 307.764 125.03 308.09 125.03 308.494L125.032 317.555C125.032 317.957 125.363 318.285 125.763 318.285C126.166 318.285 126.495 317.957 126.496 317.553V311.981C126.496 310.125 126.666 309.374 128.254 309.176C128.403 309.157 128.561 309.161 128.563 309.161C128.996 309.145 129.305 308.845 129.305 308.441C129.305 308.035 128.975 307.707 128.569 307.707L128.574 307.706ZM114.509 312.109C114.509 312.088 114.511 312.066 114.512 312.047C114.936 310.362 116.46 309.117 118.272 309.117C120.106 309.117 121.642 310.39 122.048 312.106H114.508L114.509 312.109ZM123.546 311.97C123.231 310.474 122.413 309.244 121.168 308.454C119.346 307.296 116.942 307.36 115.184 308.614C113.748 309.635 112.919 311.308 112.919 313.03C112.919 313.462 112.973 313.899 113.079 314.329C113.621 316.462 115.454 318.079 117.638 318.347C118.287 318.426 118.918 318.389 119.569 318.219C120.132 318.08 120.675 317.854 121.175 317.532C121.695 317.198 122.129 316.756 122.551 316.228C122.558 316.218 122.566 316.21 122.575 316.2C122.867 315.837 122.813 315.318 122.493 315.073C122.222 314.865 121.767 314.781 121.411 315.24C121.334 315.35 121.248 315.464 121.155 315.576C120.87 315.89 120.517 316.194 120.095 316.431C119.555 316.719 118.943 316.882 118.292 316.886C116.161 316.862 115.022 315.372 114.615 314.309C114.545 314.11 114.49 313.904 114.452 313.691L114.441 313.579H122.089C123.137 313.555 123.7 312.814 123.544 311.968L123.546 311.97Z" fill="white"/>
</g>
<g clip-path="url(#clip2_314_55568)">
<path d="M121 353C134.255 353 145 363.745 145 377C145 390.255 134.255 401 121 401C107.745 401 97 390.255 97 377C97 363.745 107.745 353 121 353Z" fill="#E5E5E4"/>
<path d="M120.999 353.469C133.996 353.469 144.532 364.004 144.532 377.001C144.532 389.998 133.996 400.534 120.999 400.534C108.003 400.534 97.4668 389.998 97.4668 377.001C97.4668 364.004 108.003 353.469 120.999 353.469Z" fill="white"/>
<path d="M121 355.355C132.955 355.355 142.645 365.046 142.645 377C142.645 388.954 132.955 398.645 121 398.645C109.046 398.645 99.3555 388.954 99.3555 377C99.3555 365.046 109.046 355.355 121 355.355Z" fill="#4A8CFF"/>
<path d="M106.879 370.219V380.391C106.888 382.691 108.767 384.542 111.058 384.533H125.885C126.306 384.533 126.645 384.194 126.645 383.781V373.609C126.636 371.309 124.758 369.458 122.467 369.467H107.64C107.218 369.467 106.879 369.807 106.879 370.219H106.879ZM127.589 374.187L133.711 369.715C134.242 369.275 134.654 369.385 134.654 370.182V383.818C134.654 384.725 134.15 384.616 133.711 384.285L127.589 379.823V374.187Z" fill="white"/>
</g>
<rect x="289.5" y="128.5" width="216.289" height="151.522" rx="13.6903" fill="white" stroke="#111111"/>
<path d="M312.457 165.389H310.137V162.856C308.505 162.7 307.079 162.274 305.859 161.579V158.535C307.448 159.585 309.229 160.11 311.201 160.11C312.11 160.11 312.784 160.004 313.224 159.791C313.678 159.564 313.905 159.195 313.905 158.684C313.905 158.315 313.756 157.996 313.458 157.726C313.174 157.457 312.798 157.244 312.33 157.088C311.861 156.918 311.343 156.754 310.776 156.598C310.208 156.428 309.641 156.236 309.073 156.024C308.505 155.797 307.987 155.534 307.519 155.236C307.051 154.924 306.668 154.498 306.37 153.959C306.086 153.42 305.944 152.795 305.944 152.086C305.944 150.88 306.327 149.929 307.093 149.234C307.86 148.524 308.874 148.084 310.137 147.914V145.381H312.457V147.935C313.961 148.077 315.217 148.432 316.225 148.999V151.979C314.962 151.071 313.429 150.631 311.627 150.66C310.009 150.688 309.201 151.149 309.201 152.043C309.201 152.384 309.343 152.682 309.626 152.937C309.924 153.178 310.307 153.377 310.776 153.533C311.258 153.689 311.783 153.845 312.351 154.002C312.919 154.158 313.479 154.349 314.032 154.576C314.6 154.803 315.118 155.073 315.586 155.385C316.069 155.683 316.452 156.102 316.736 156.641C317.034 157.18 317.183 157.812 317.183 158.535C317.183 159.926 316.75 160.969 315.884 161.664C315.033 162.36 313.891 162.764 312.457 162.878V165.389ZM325.686 148.148H328.857V157.322H331.05V159.983H328.857V162.622H325.813V159.983H318.214V157.343L325.686 148.148ZM325.813 157.322V152.043L321.535 157.322H325.813ZM333.482 148.127H342.677V150.873L336.355 150.851L336.164 153.682C336.845 153.54 337.469 153.469 338.037 153.469C339.598 153.469 340.868 153.845 341.847 154.598C342.84 155.35 343.337 156.513 343.337 158.088C343.337 159.678 342.748 160.884 341.57 161.707C340.393 162.516 338.938 162.92 337.207 162.92C335.447 162.92 333.893 162.594 332.545 161.941V158.982C333.751 159.749 335.185 160.132 336.845 160.132C337.838 160.132 338.633 159.954 339.229 159.6C339.839 159.245 340.144 158.727 340.144 158.046C340.144 156.627 338.966 155.917 336.611 155.917C335.334 155.917 334.12 156.123 332.971 156.534L333.482 148.127ZM348.102 154.236C349.323 153.583 350.614 153.257 351.976 153.257C353.367 153.257 354.552 153.668 355.531 154.491C356.524 155.314 357.021 156.464 357.021 157.939C357.021 159.514 356.489 160.742 355.424 161.622C354.36 162.487 353.047 162.92 351.487 162.92C347.116 162.92 344.931 160.408 344.931 155.385C344.931 154.108 345.115 152.98 345.484 152.001C345.853 151.007 346.357 150.22 346.995 149.638C347.634 149.042 348.358 148.595 349.166 148.297C349.975 147.999 350.855 147.85 351.806 147.85C353.182 147.85 354.509 148.148 355.786 148.744V151.554C354.75 150.873 353.565 150.532 352.232 150.532C349.805 150.532 348.429 151.767 348.102 154.236ZM348.102 156.811C348.244 158.088 348.578 158.997 349.103 159.536C349.628 160.061 350.337 160.323 351.231 160.323C351.997 160.323 352.622 160.139 353.104 159.77C353.587 159.401 353.828 158.84 353.828 158.088C353.828 156.641 352.884 155.917 350.997 155.917C349.975 155.917 349.01 156.215 348.102 156.811Z" fill="#111111"/>
<path d="M305.618 191.673C305.618 190.585 305.878 189.644 306.398 188.849C306.918 188.045 307.571 187.458 308.356 187.089C309.142 186.72 309.988 186.536 310.896 186.536C311.994 186.536 312.987 186.758 313.876 187.203V188.395C313.11 187.912 312.174 187.671 311.067 187.671C310.527 187.671 310.012 187.752 309.52 187.912C309.028 188.064 308.574 188.296 308.158 188.608C307.751 188.91 307.424 189.327 307.179 189.856C306.942 190.386 306.824 190.992 306.824 191.673C306.824 192.392 306.947 193.021 307.193 193.56C307.439 194.09 307.77 194.506 308.186 194.809C308.602 195.102 309.052 195.32 309.534 195.462C310.026 195.604 310.546 195.674 311.095 195.674C311.805 195.674 312.415 195.551 312.926 195.306V191.361H314.118V196.143C313.153 196.587 312.117 196.81 311.01 196.81C310.3 196.81 309.633 196.715 309.009 196.526C308.385 196.337 307.812 196.048 307.292 195.66C306.781 195.263 306.374 194.724 306.072 194.043C305.769 193.361 305.618 192.572 305.618 191.673ZM316.559 195.859C315.84 195.216 315.481 194.341 315.481 193.234C315.481 192.127 315.84 191.257 316.559 190.623C317.278 189.979 318.13 189.658 319.114 189.658C320.107 189.658 320.958 189.979 321.668 190.623C322.387 191.257 322.746 192.127 322.746 193.234C322.746 194.341 322.387 195.216 321.668 195.859C320.958 196.493 320.107 196.81 319.114 196.81C318.13 196.81 317.278 196.493 316.559 195.859ZM320.902 195.064C321.375 194.61 321.611 194 321.611 193.234C321.611 192.467 321.375 191.862 320.902 191.417C320.429 190.963 319.833 190.736 319.114 190.736C318.395 190.736 317.799 190.963 317.326 191.417C316.853 191.862 316.616 192.467 316.616 193.234C316.616 194 316.853 194.61 317.326 195.064C317.799 195.509 318.395 195.731 319.114 195.731C319.833 195.731 320.429 195.509 320.902 195.064ZM324.914 195.859C324.195 195.216 323.836 194.341 323.836 193.234C323.836 192.127 324.195 191.257 324.914 190.623C325.633 189.979 326.484 189.658 327.468 189.658C328.462 189.658 329.313 189.979 330.022 190.623C330.741 191.257 331.101 192.127 331.101 193.234C331.101 194.341 330.741 195.216 330.022 195.859C329.313 196.493 328.462 196.81 327.468 196.81C326.484 196.81 325.633 196.493 324.914 195.859ZM329.256 195.064C329.729 194.61 329.966 194 329.966 193.234C329.966 192.467 329.729 191.862 329.256 191.417C328.783 190.963 328.187 190.736 327.468 190.736C326.749 190.736 326.153 190.963 325.68 191.417C325.207 191.862 324.971 192.467 324.971 193.234C324.971 194 325.207 194.61 325.68 195.064C326.153 195.509 326.749 195.731 327.468 195.731C328.187 195.731 328.783 195.509 329.256 195.064ZM333.155 195.788C332.512 195.107 332.19 194.255 332.19 193.234C332.19 192.212 332.512 191.361 333.155 190.679C333.808 189.998 334.621 189.658 335.596 189.658C336.665 189.658 337.582 190.093 338.349 190.963V189.828H339.37V196.639C339.37 197.737 339.011 198.56 338.292 199.109C337.573 199.657 336.693 199.932 335.652 199.932C334.64 199.932 333.718 199.719 332.885 199.293V198.186C333.708 198.65 334.583 198.881 335.511 198.881C336.315 198.881 336.972 198.702 337.483 198.342C337.994 197.992 338.245 197.425 338.235 196.639V195.589C337.573 196.403 336.693 196.81 335.596 196.81C334.621 196.81 333.808 196.469 333.155 195.788ZM338.235 192.382C338.027 191.909 337.701 191.512 337.256 191.19C336.811 190.869 336.301 190.708 335.723 190.708C335.042 190.708 334.47 190.94 334.006 191.403C333.552 191.867 333.325 192.477 333.325 193.234C333.325 193.991 333.552 194.601 334.006 195.064C334.47 195.528 335.042 195.76 335.723 195.76C336.301 195.76 336.811 195.613 337.256 195.32C337.701 195.017 338.027 194.653 338.235 194.227V192.382ZM341.429 186.28H342.564V196.639H341.429V186.28ZM344.16 193.234C344.16 192.117 344.5 191.242 345.181 190.609C345.872 189.975 346.662 189.658 347.551 189.658C348.384 189.658 349.07 189.866 349.609 190.282C350.158 190.698 350.517 191.214 350.687 191.829C350.858 192.434 350.867 193.068 350.716 193.73H345.295C345.361 194.402 345.659 194.908 346.189 195.249C346.719 195.589 347.357 195.76 348.105 195.76C348.937 195.76 349.685 195.575 350.347 195.206V196.313C349.713 196.644 348.909 196.81 347.934 196.81C346.856 196.81 345.957 196.502 345.238 195.887C344.519 195.272 344.16 194.388 344.16 193.234ZM349.708 192.737C349.737 192.538 349.722 192.33 349.666 192.113C349.609 191.895 349.505 191.678 349.353 191.46C349.212 191.242 348.989 191.063 348.687 190.921C348.384 190.779 348.029 190.708 347.622 190.708C347.007 190.708 346.473 190.888 346.019 191.247C345.574 191.607 345.333 192.103 345.295 192.737H349.708ZM355.691 196.639H354.4L358.728 186.706H360.048L364.361 196.639H363.084L362.063 194.241H356.713L355.691 196.639ZM359.225 188.31L357.181 193.134H361.594L359.537 188.31C359.518 188.262 359.466 188.135 359.381 187.927C359.296 188.144 359.243 188.272 359.225 188.31ZM370.848 186.706H371.983V196.639H370.961V195.504C370.195 196.375 369.277 196.81 368.208 196.81C367.234 196.81 366.421 196.469 365.768 195.788C365.124 195.107 364.803 194.255 364.803 193.234C364.803 192.212 365.124 191.361 365.768 190.679C366.421 189.998 367.234 189.658 368.208 189.658C369.287 189.658 370.167 190.055 370.848 190.85V186.706ZM370.848 192.382C370.64 191.909 370.313 191.512 369.869 191.19C369.424 190.869 368.913 190.708 368.336 190.708C367.655 190.708 367.083 190.94 366.619 191.403C366.165 191.867 365.938 192.477 365.938 193.234C365.938 193.991 366.165 194.601 366.619 195.064C367.083 195.528 367.655 195.76 368.336 195.76C368.913 195.76 369.424 195.599 369.869 195.277C370.313 194.955 370.64 194.558 370.848 194.085V192.382ZM373.616 191.616C373.616 190.963 373.867 190.476 374.368 190.154C374.879 189.823 375.494 189.658 376.213 189.658C377.093 189.658 377.897 189.852 378.625 190.24V191.318C378.342 191.129 377.982 190.977 377.547 190.864C377.112 190.741 376.691 190.679 376.284 190.679C375.868 190.679 375.508 190.755 375.206 190.907C374.912 191.048 374.766 191.275 374.766 191.588C374.766 191.815 374.87 192.013 375.078 192.184C375.296 192.344 375.565 192.467 375.887 192.553C376.208 192.638 376.554 192.747 376.923 192.879C377.301 193.002 377.651 193.134 377.973 193.276C378.294 193.409 378.559 193.617 378.767 193.901C378.985 194.175 379.094 194.506 379.094 194.894C379.094 195.556 378.829 196.043 378.299 196.356C377.769 196.658 377.098 196.81 376.284 196.81C375.215 196.81 374.335 196.587 373.645 196.143V195.036C374.364 195.518 375.225 195.76 376.227 195.76C377.381 195.76 377.959 195.481 377.959 194.922C377.959 194.667 377.807 194.454 377.504 194.284C377.211 194.104 376.852 193.957 376.426 193.844C376 193.721 375.575 193.584 375.149 193.432C374.723 193.281 374.359 193.054 374.056 192.751C373.763 192.449 373.616 192.07 373.616 191.616Z" fill="#111111"/>
<rect x="304.965" y="207.808" width="85.1418" height="13.3013" rx="6.20826" fill="#E4F0FB"/>
<path d="M335.538 244.345H338.802C340.495 244.345 341.791 244.804 342.69 245.722C343.598 246.63 344.052 247.827 344.052 249.312C344.052 250.797 343.598 251.999 342.69 252.916C341.791 253.824 340.495 254.279 338.802 254.279H335.538V244.345ZM341.81 252.136C342.501 251.464 342.846 250.523 342.846 249.312C342.846 248.101 342.501 247.16 341.81 246.488C341.129 245.816 340.126 245.481 338.802 245.481H336.73V253.143H338.802C340.126 253.143 341.129 252.808 341.81 252.136ZM345.22 250.873C345.22 249.757 345.56 248.882 346.241 248.248C346.932 247.614 347.722 247.297 348.611 247.297C349.444 247.297 350.13 247.505 350.669 247.921C351.217 248.338 351.577 248.853 351.747 249.468C351.918 250.074 351.927 250.707 351.776 251.37H346.355C346.421 252.041 346.719 252.547 347.249 252.888C347.779 253.228 348.417 253.399 349.165 253.399C349.997 253.399 350.744 253.214 351.407 252.845V253.952C350.773 254.283 349.969 254.449 348.994 254.449C347.916 254.449 347.017 254.141 346.298 253.526C345.579 252.912 345.22 252.027 345.22 250.873ZM350.768 250.376C350.796 250.178 350.782 249.969 350.726 249.752C350.669 249.534 350.565 249.317 350.413 249.099C350.271 248.882 350.049 248.702 349.746 248.56C349.444 248.418 349.089 248.347 348.682 248.347C348.067 248.347 347.533 248.527 347.079 248.886C346.634 249.246 346.393 249.742 346.355 250.376H350.768ZM358.925 252.86C358.925 253.21 359.1 253.385 359.45 253.385C359.602 253.385 359.777 253.351 359.976 253.285V254.208C359.692 254.312 359.408 254.364 359.124 254.364C358.471 254.364 358.055 254.089 357.875 253.541C357.147 254.146 356.262 254.449 355.222 254.449C354.56 254.449 353.992 254.274 353.519 253.924C353.055 253.564 352.824 253.049 352.824 252.377C352.824 251.573 353.122 250.991 353.718 250.632C354.323 250.263 355.051 250.078 355.903 250.078C356.527 250.078 357.156 250.149 357.79 250.291V250.05C357.79 249.53 357.62 249.118 357.279 248.815C356.939 248.503 356.461 248.347 355.846 248.347C354.985 248.347 354.157 248.517 353.363 248.858V247.751C354.252 247.448 355.118 247.297 355.96 247.297C356.887 247.297 357.61 247.548 358.131 248.049C358.661 248.541 358.925 249.255 358.925 250.192V252.86ZM353.987 252.32C353.987 252.699 354.129 252.987 354.413 253.186C354.706 253.375 355.056 253.47 355.463 253.47C356.4 253.47 357.175 253.139 357.79 252.476V251.228C357.147 251.095 356.57 251.029 356.059 251.029C355.482 251.029 354.99 251.133 354.583 251.341C354.186 251.54 353.987 251.866 353.987 252.32ZM360.571 250.901C360.571 250.305 360.68 249.771 360.897 249.298C361.115 248.825 361.399 248.446 361.749 248.163C362.108 247.879 362.501 247.666 362.926 247.524C363.361 247.373 363.806 247.297 364.26 247.297C365.102 247.297 365.802 247.481 366.36 247.85V248.957C365.84 248.55 365.187 248.347 364.402 248.347C363.664 248.347 363.03 248.56 362.501 248.986C361.971 249.411 361.706 250.04 361.706 250.873C361.706 251.696 361.966 252.325 362.486 252.76C363.016 253.186 363.645 253.399 364.374 253.399C365.131 253.399 365.816 253.214 366.431 252.845V253.981C365.788 254.293 365.05 254.449 364.218 254.449C363.234 254.449 362.378 254.141 361.649 253.526C360.93 252.912 360.571 252.036 360.571 250.901ZM368.42 245.353L369.541 245.069V247.467H372.266V248.517H369.541V252.036C369.541 252.538 369.655 252.888 369.882 253.087C370.118 253.285 370.492 253.385 371.003 253.385C371.495 253.385 371.996 253.281 372.507 253.072V254.122C371.93 254.331 371.32 254.435 370.677 254.435C369.986 254.435 369.437 254.25 369.03 253.881C368.624 253.503 368.42 252.954 368.42 252.235V248.517H367.143V247.467H368.42V245.353ZM374.879 254.279H373.744V247.467H374.879V254.279ZM374.837 244.771C374.978 244.894 375.049 245.069 375.049 245.296C375.049 245.523 374.978 245.703 374.837 245.835C374.695 245.958 374.52 246.02 374.311 246.02C374.103 246.02 373.928 245.958 373.786 245.835C373.645 245.703 373.574 245.523 373.574 245.296C373.574 245.069 373.645 244.894 373.786 244.771C373.928 244.639 374.103 244.572 374.311 244.572C374.52 244.572 374.695 244.639 374.837 244.771ZM382.037 247.467H383.3L380.292 254.279H379.1L376.091 247.467H377.354L379.696 253.001L382.037 247.467ZM389.792 252.86C389.792 253.21 389.967 253.385 390.317 253.385C390.469 253.385 390.644 253.351 390.842 253.285V254.208C390.558 254.312 390.275 254.364 389.991 254.364C389.338 254.364 388.922 254.089 388.742 253.541C388.014 254.146 387.129 254.449 386.088 254.449C385.426 254.449 384.859 254.274 384.386 253.924C383.922 253.564 383.69 253.049 383.69 252.377C383.69 251.573 383.988 250.991 384.584 250.632C385.19 250.263 385.918 250.078 386.77 250.078C387.394 250.078 388.023 250.149 388.657 250.291V250.05C388.657 249.53 388.487 249.118 388.146 248.815C387.805 248.503 387.328 248.347 386.713 248.347C385.852 248.347 385.024 248.517 384.23 248.858V247.751C385.119 247.448 385.984 247.297 386.826 247.297C387.753 247.297 388.477 247.548 388.997 248.049C389.527 248.541 389.792 249.255 389.792 250.192V252.86ZM384.854 252.32C384.854 252.699 384.996 252.987 385.28 253.186C385.573 253.375 385.923 253.47 386.33 253.47C387.266 253.47 388.042 253.139 388.657 252.476V251.228C388.014 251.095 387.437 251.029 386.926 251.029C386.349 251.029 385.857 251.133 385.45 251.341C385.053 251.54 384.854 251.866 384.854 252.32ZM392.304 245.353L393.425 245.069V247.467H396.15V248.517H393.425V252.036C393.425 252.538 393.539 252.888 393.766 253.087C394.002 253.285 394.376 253.385 394.887 253.385C395.379 253.385 395.88 253.281 396.391 253.072V254.122C395.814 254.331 395.204 254.435 394.561 254.435C393.87 254.435 393.321 254.25 392.915 253.881C392.508 253.503 392.304 252.954 392.304 252.235V248.517H391.027V247.467H392.304V245.353ZM397.131 250.873C397.131 249.757 397.472 248.882 398.153 248.248C398.844 247.614 399.634 247.297 400.523 247.297C401.355 247.297 402.041 247.505 402.58 247.921C403.129 248.338 403.489 248.853 403.659 249.468C403.829 250.074 403.839 250.707 403.687 251.37H398.267C398.333 252.041 398.631 252.547 399.16 252.888C399.69 253.228 400.329 253.399 401.076 253.399C401.909 253.399 402.656 253.214 403.318 252.845V253.952C402.684 254.283 401.88 254.449 400.906 254.449C399.827 254.449 398.929 254.141 398.21 253.526C397.491 252.912 397.131 252.027 397.131 250.873ZM402.68 250.376C402.708 250.178 402.694 249.969 402.637 249.752C402.58 249.534 402.476 249.317 402.325 249.099C402.183 248.882 401.961 248.702 401.658 248.56C401.355 248.418 401.001 248.347 400.594 248.347C399.979 248.347 399.444 248.527 398.99 248.886C398.546 249.246 398.304 249.742 398.267 250.376H402.68Z" fill="#3E1BDB"/>
<rect x="305.465" y="235.798" width="120.504" height="28.263" rx="4.82136" stroke="#111111"/>
<path fill-rule="evenodd" clip-rule="evenodd" d="M319.262 245.943C317.576 246.034 316.123 247.266 315.72 248.944C315.628 249.328 315.607 249.505 315.607 249.93C315.607 250.355 315.628 250.531 315.72 250.916C316.058 252.325 317.15 253.448 318.524 253.8C318.993 253.921 318.972 253.92 321.372 253.92C323.772 253.92 323.751 253.921 324.22 253.8C325.595 253.448 326.686 252.325 327.025 250.916C327.117 250.531 327.137 250.355 327.137 249.93C327.137 249.505 327.117 249.328 327.025 248.944C326.69 247.55 325.607 246.425 324.255 246.067C323.783 245.942 323.842 245.945 321.542 245.94C320.362 245.938 319.336 245.939 319.262 245.943ZM323.844 246.991C324.927 247.219 325.785 248.041 326.076 249.129C326.152 249.413 326.18 249.627 326.18 249.93C326.18 251.875 324.409 253.306 322.591 252.831C322.344 252.766 322.045 252.639 321.835 252.509C321.116 252.066 320.604 251.302 320.458 250.456C320.41 250.181 320.41 249.679 320.458 249.403C320.581 248.692 320.973 248.017 321.516 247.582C321.714 247.423 321.916 247.291 322.061 247.227C322.419 247.068 322.578 247.018 322.885 246.968C323.114 246.93 323.612 246.942 323.844 246.991Z" fill="#3E1BDB"/>
<ellipse cx="471.7" cy="155.49" rx="13.3034" ry="13.3013" fill="#E4F0FB"/>
<path d="M459.336 160.109C460.134 162.361 461.524 164.356 463.36 165.885C465.197 167.414 467.411 168.42 469.77 168.798C472.129 169.176 474.547 168.911 476.769 168.032C478.991 167.153 480.935 165.692 482.397 163.802C483.859 161.912 484.785 159.664 485.077 157.293C485.37 154.922 485.019 152.516 484.06 150.327C483.101 148.139 481.571 146.249 479.629 144.856C477.688 143.464 475.407 142.619 473.026 142.412L472.915 143.698C475.064 143.885 477.124 144.647 478.877 145.905C480.63 147.162 482.012 148.869 482.878 150.845C483.744 152.821 484.061 154.994 483.797 157.135C483.532 159.276 482.696 161.306 481.376 163.013C480.056 164.719 478.3 166.039 476.294 166.832C474.288 167.626 472.105 167.865 469.974 167.524C467.844 167.183 465.844 166.274 464.186 164.893C462.528 163.513 461.273 161.711 460.552 159.678L459.336 160.109Z" fill="#3E1BDB"/>
<path d="M331.865 306.82H330.885V305.14C329.802 305.038 328.874 304.767 328.099 304.328V303.152C329.079 303.75 330.218 304.048 331.515 304.048C333.102 304.048 333.895 303.563 333.895 302.592C333.895 302.238 333.788 301.939 333.573 301.696C333.368 301.444 333.092 301.248 332.747 301.108C332.411 300.968 332.038 300.842 331.627 300.73C331.216 300.618 330.806 300.497 330.395 300.366C329.984 300.226 329.606 300.068 329.261 299.89C328.925 299.704 328.65 299.442 328.435 299.106C328.23 298.77 328.127 298.369 328.127 297.902C328.127 297.165 328.384 296.577 328.897 296.138C329.41 295.7 330.073 295.434 330.885 295.34V293.66H331.865V295.326C332.882 295.382 333.746 295.616 334.455 296.026V297.202C333.634 296.67 332.672 296.414 331.571 296.432C330.068 296.432 329.317 296.908 329.317 297.86C329.317 298.196 329.42 298.481 329.625 298.714C329.84 298.948 330.115 299.13 330.451 299.26C330.796 299.391 331.174 299.512 331.585 299.624C331.996 299.727 332.406 299.848 332.817 299.988C333.228 300.128 333.601 300.292 333.937 300.478C334.282 300.665 334.558 300.931 334.763 301.276C334.978 301.622 335.085 302.032 335.085 302.508C335.085 303.386 334.786 304.044 334.189 304.482C333.592 304.912 332.817 305.14 331.865 305.168V306.82ZM341.273 295.48H342.547V301.794H344.339V302.886H342.547V305H341.385V302.886H336.079V301.836L341.273 295.48ZM341.385 301.794V297.062L337.521 301.794H341.385ZM346.209 295.48H351.921V296.6H347.315L347.147 299.288C347.651 299.148 348.192 299.078 348.771 299.078C349.247 299.078 349.69 299.134 350.101 299.246C350.511 299.349 350.889 299.517 351.235 299.75C351.589 299.974 351.869 300.292 352.075 300.702C352.28 301.104 352.383 301.58 352.383 302.13C352.383 303.073 352.033 303.815 351.333 304.356C350.642 304.898 349.76 305.168 348.687 305.168C347.529 305.168 346.512 304.954 345.635 304.524V303.404C346.475 303.852 347.445 304.076 348.547 304.076C349.349 304.076 349.989 303.908 350.465 303.572C350.95 303.236 351.193 302.756 351.193 302.13C351.193 300.805 350.25 300.142 348.365 300.142C347.543 300.142 346.722 300.292 345.901 300.59L346.209 295.48Z" fill="#111111"/>
<path d="M310.557 326.23C309.848 325.596 309.493 324.732 309.493 323.64C309.493 322.548 309.848 321.69 310.557 321.064C311.266 320.43 312.106 320.112 313.077 320.112C314.057 320.112 314.897 320.43 315.597 321.064C316.306 321.69 316.661 322.548 316.661 323.64C316.661 324.732 316.306 325.596 315.597 326.23C314.897 326.856 314.057 327.168 313.077 327.168C312.106 327.168 311.266 326.856 310.557 326.23ZM314.841 325.446C315.308 324.998 315.541 324.396 315.541 323.64C315.541 322.884 315.308 322.287 314.841 321.848C314.374 321.4 313.786 321.176 313.077 321.176C312.368 321.176 311.78 321.4 311.313 321.848C310.846 322.287 310.613 322.884 310.613 323.64C310.613 324.396 310.846 324.998 311.313 325.446C311.78 325.885 312.368 326.104 313.077 326.104C313.786 326.104 314.374 325.885 314.841 325.446ZM319.923 327H318.803V321.316H317.543V320.28H318.803V319.468C318.803 319.02 318.868 318.633 318.999 318.306C319.139 317.97 319.325 317.714 319.559 317.536C319.792 317.359 320.039 317.233 320.301 317.158C320.571 317.074 320.865 317.032 321.183 317.032C321.78 317.032 322.34 317.135 322.863 317.34V318.376C322.433 318.171 321.962 318.068 321.449 318.068C320.973 318.068 320.599 318.171 320.329 318.376C320.058 318.572 319.923 318.95 319.923 319.51V320.28H322.443V321.316H319.923V327ZM330.457 328.82H329.477V327.14C328.394 327.038 327.465 326.767 326.691 326.328V325.152C327.671 325.75 328.809 326.048 330.107 326.048C331.693 326.048 332.487 325.563 332.487 324.592C332.487 324.238 332.379 323.939 332.165 323.696C331.959 323.444 331.684 323.248 331.339 323.108C331.003 322.968 330.629 322.842 330.219 322.73C329.808 322.618 329.397 322.497 328.987 322.366C328.576 322.226 328.198 322.068 327.853 321.89C327.517 321.704 327.241 321.442 327.027 321.106C326.821 320.77 326.719 320.369 326.719 319.902C326.719 319.165 326.975 318.577 327.489 318.138C328.002 317.7 328.665 317.434 329.477 317.34V315.66H330.457V317.326C331.474 317.382 332.337 317.616 333.047 318.026V319.202C332.225 318.67 331.264 318.414 330.163 318.432C328.66 318.432 327.909 318.908 327.909 319.86C327.909 320.196 328.011 320.481 328.217 320.714C328.431 320.948 328.707 321.13 329.043 321.26C329.388 321.391 329.766 321.512 330.177 321.624C330.587 321.727 330.998 321.848 331.409 321.988C331.819 322.128 332.193 322.292 332.529 322.478C332.874 322.665 333.149 322.931 333.355 323.276C333.569 323.622 333.677 324.032 333.677 324.508C333.677 325.386 333.378 326.044 332.781 326.482C332.183 326.912 331.409 327.14 330.457 327.168V328.82ZM336.239 321.974C337.144 321.368 338.138 321.064 339.221 321.064C340.089 321.064 340.85 321.33 341.503 321.862C342.156 322.385 342.483 323.113 342.483 324.046C342.483 325.026 342.156 325.792 341.503 326.342C340.859 326.893 340.047 327.168 339.067 327.168C337.723 327.168 336.715 326.753 336.043 325.922C335.38 325.082 335.049 323.906 335.049 322.394C335.049 320.714 335.446 319.45 336.239 318.6C337.042 317.742 338.087 317.312 339.375 317.312C340.206 317.312 340.976 317.494 341.685 317.858V318.978C340.994 318.614 340.234 318.432 339.403 318.432C338.526 318.432 337.793 318.717 337.205 319.286C336.626 319.846 336.304 320.742 336.239 321.974ZM336.253 323.15C336.43 325.101 337.34 326.076 338.983 326.076C339.674 326.076 340.229 325.918 340.649 325.6C341.078 325.283 341.293 324.784 341.293 324.102C341.293 323.412 341.074 322.917 340.635 322.618C340.196 322.31 339.627 322.156 338.927 322.156C337.891 322.156 337 322.488 336.253 323.15ZM344.934 325.81C344.225 324.905 343.87 323.715 343.87 322.24C343.87 320.766 344.225 319.576 344.934 318.67C345.644 317.765 346.689 317.312 348.07 317.312C349.461 317.312 350.511 317.765 351.22 318.67C351.93 319.566 352.284 320.756 352.284 322.24C352.284 323.724 351.93 324.919 351.22 325.824C350.511 326.72 349.461 327.168 348.07 327.168C346.689 327.168 345.644 326.716 344.934 325.81ZM350.338 325.068C350.842 324.406 351.094 323.463 351.094 322.24C351.094 321.018 350.842 320.08 350.338 319.426C349.844 318.764 349.088 318.432 348.07 318.432C347.053 318.432 346.297 318.764 345.802 319.426C345.308 320.08 345.06 321.018 345.06 322.24C345.06 323.463 345.308 324.406 345.802 325.068C346.297 325.722 347.053 326.048 348.07 326.048C349.088 326.048 349.844 325.722 350.338 325.068Z" fill="#888888"/>
<path d="M332.193 370.82H331.213V369.14C330.13 369.038 329.202 368.767 328.427 368.328V367.152C329.407 367.75 330.546 368.048 331.843 368.048C333.43 368.048 334.223 367.563 334.223 366.592C334.223 366.238 334.116 365.939 333.901 365.696C333.696 365.444 333.42 365.248 333.075 365.108C332.739 364.968 332.366 364.842 331.955 364.73C331.544 364.618 331.134 364.497 330.723 364.366C330.312 364.226 329.934 364.068 329.589 363.89C329.253 363.704 328.978 363.442 328.763 363.106C328.558 362.77 328.455 362.369 328.455 361.902C328.455 361.165 328.712 360.577 329.225 360.138C329.738 359.7 330.401 359.434 331.213 359.34V357.66H332.193V359.326C333.21 359.382 334.074 359.616 334.783 360.026V361.202C333.962 360.67 333 360.414 331.899 360.432C330.396 360.432 329.645 360.908 329.645 361.86C329.645 362.196 329.748 362.481 329.953 362.714C330.168 362.948 330.443 363.13 330.779 363.26C331.124 363.391 331.502 363.512 331.913 363.624C332.324 363.727 332.734 363.848 333.145 363.988C333.556 364.128 333.929 364.292 334.265 364.478C334.61 364.665 334.886 364.931 335.091 365.276C335.306 365.622 335.413 366.032 335.413 366.508C335.413 367.386 335.114 368.044 334.517 368.482C333.92 368.912 333.145 369.14 332.193 369.168V370.82ZM337.373 359.48H343.085V360.6H338.479L338.311 363.288C338.815 363.148 339.357 363.078 339.935 363.078C340.411 363.078 340.855 363.134 341.265 363.246C341.676 363.349 342.054 363.517 342.399 363.75C342.754 363.974 343.034 364.292 343.239 364.702C343.445 365.104 343.547 365.58 343.547 366.13C343.547 367.073 343.197 367.815 342.497 368.356C341.807 368.898 340.925 369.168 339.851 369.168C338.694 369.168 337.677 368.954 336.799 368.524V367.404C337.639 367.852 338.61 368.076 339.711 368.076C340.514 368.076 341.153 367.908 341.629 367.572C342.115 367.236 342.357 366.756 342.357 366.13C342.357 364.805 341.415 364.142 339.529 364.142C338.708 364.142 337.887 364.292 337.065 364.59L337.373 359.48ZM346.223 363.974C347.128 363.368 348.122 363.064 349.205 363.064C350.073 363.064 350.833 363.33 351.487 363.862C352.14 364.385 352.467 365.113 352.467 366.046C352.467 367.026 352.14 367.792 351.487 368.342C350.843 368.893 350.031 369.168 349.051 369.168C347.707 369.168 346.699 368.753 346.027 367.922C345.364 367.082 345.033 365.906 345.033 364.394C345.033 362.714 345.429 361.45 346.223 360.6C347.025 359.742 348.071 359.312 349.359 359.312C350.189 359.312 350.959 359.494 351.669 359.858V360.978C350.978 360.614 350.217 360.432 349.387 360.432C348.509 360.432 347.777 360.717 347.189 361.286C346.61 361.846 346.288 362.742 346.223 363.974ZM346.237 365.15C346.414 367.101 347.324 368.076 348.967 368.076C349.657 368.076 350.213 367.918 350.633 367.6C351.062 367.283 351.277 366.784 351.277 366.102C351.277 365.412 351.057 364.917 350.619 364.618C350.18 364.31 349.611 364.156 348.911 364.156C347.875 364.156 346.983 364.488 346.237 365.15Z" fill="#111111"/>
<path d="M301.161 390.23C300.452 389.596 300.097 388.732 300.097 387.64C300.097 386.548 300.452 385.69 301.161 385.064C301.871 384.43 302.711 384.112 303.681 384.112C304.661 384.112 305.501 384.43 306.201 385.064C306.911 385.69 307.265 386.548 307.265 387.64C307.265 388.732 306.911 389.596 306.201 390.23C305.501 390.856 304.661 391.168 303.681 391.168C302.711 391.168 301.871 390.856 301.161 390.23ZM305.445 389.446C305.912 388.998 306.145 388.396 306.145 387.64C306.145 386.884 305.912 386.287 305.445 385.848C304.979 385.4 304.391 385.176 303.681 385.176C302.972 385.176 302.384 385.4 301.917 385.848C301.451 386.287 301.217 386.884 301.217 387.64C301.217 388.396 301.451 388.998 301.917 389.446C302.384 389.885 302.972 390.104 303.681 390.104C304.391 390.104 304.979 389.885 305.445 389.446ZM310.527 391H309.407V385.316H308.147V384.28H309.407V383.468C309.407 383.02 309.472 382.633 309.603 382.306C309.743 381.97 309.929 381.714 310.163 381.536C310.396 381.359 310.643 381.233 310.905 381.158C311.175 381.074 311.469 381.032 311.787 381.032C312.384 381.032 312.944 381.135 313.467 381.34V382.376C313.037 382.171 312.566 382.068 312.053 382.068C311.577 382.068 311.203 382.171 310.933 382.376C310.662 382.572 310.527 382.95 310.527 383.51V384.28H313.047V385.316H310.527V391ZM321.061 392.82H320.081V391.14C318.998 391.038 318.07 390.767 317.295 390.328V389.152C318.275 389.75 319.414 390.048 320.711 390.048C322.298 390.048 323.091 389.563 323.091 388.592C323.091 388.238 322.984 387.939 322.769 387.696C322.564 387.444 322.288 387.248 321.943 387.108C321.607 386.968 321.234 386.842 320.823 386.73C320.412 386.618 320.002 386.497 319.591 386.366C319.18 386.226 318.802 386.068 318.457 385.89C318.121 385.704 317.846 385.442 317.631 385.106C317.426 384.77 317.323 384.369 317.323 383.902C317.323 383.165 317.58 382.577 318.093 382.138C318.606 381.7 319.269 381.434 320.081 381.34V379.66H321.061V381.326C322.078 381.382 322.942 381.616 323.651 382.026V383.202C322.83 382.67 321.868 382.414 320.767 382.432C319.264 382.432 318.513 382.908 318.513 383.86C318.513 384.196 318.616 384.481 318.821 384.714C319.036 384.948 319.311 385.13 319.647 385.26C319.992 385.391 320.37 385.512 320.781 385.624C321.192 385.727 321.602 385.848 322.013 385.988C322.424 386.128 322.797 386.292 323.133 386.478C323.478 386.665 323.754 386.931 323.959 387.276C324.174 387.622 324.281 388.032 324.281 388.508C324.281 389.386 323.982 390.044 323.385 390.482C322.788 390.912 322.013 391.14 321.061 391.168V392.82ZM326.241 381.48H331.953V382.6H327.347L327.179 385.288C327.683 385.148 328.224 385.078 328.803 385.078C329.279 385.078 329.722 385.134 330.133 385.246C330.544 385.349 330.922 385.517 331.267 385.75C331.622 385.974 331.902 386.292 332.107 386.702C332.312 387.104 332.415 387.58 332.415 388.13C332.415 389.073 332.065 389.815 331.365 390.356C330.674 390.898 329.792 391.168 328.719 391.168C327.562 391.168 326.544 390.954 325.667 390.524V389.404C326.507 389.852 327.478 390.076 328.579 390.076C329.382 390.076 330.021 389.908 330.497 389.572C330.982 389.236 331.225 388.756 331.225 388.13C331.225 386.805 330.282 386.142 328.397 386.142C327.576 386.142 326.754 386.292 325.933 386.59L326.241 381.48ZM334.951 389.81C334.241 388.905 333.887 387.715 333.887 386.24C333.887 384.766 334.241 383.576 334.951 382.67C335.66 381.765 336.705 381.312 338.087 381.312C339.477 381.312 340.527 381.765 341.237 382.67C341.946 383.566 342.301 384.756 342.301 386.24C342.301 387.724 341.946 388.919 341.237 389.824C340.527 390.72 339.477 391.168 338.087 391.168C336.705 391.168 335.66 390.716 334.951 389.81ZM340.355 389.068C340.859 388.406 341.111 387.463 341.111 386.24C341.111 385.018 340.859 384.08 340.355 383.426C339.86 382.764 339.104 382.432 338.087 382.432C337.069 382.432 336.313 382.764 335.819 383.426C335.324 384.08 335.077 385.018 335.077 386.24C335.077 387.463 335.324 388.406 335.819 389.068C336.313 389.722 337.069 390.048 338.087 390.048C339.104 390.048 339.86 389.722 340.355 389.068ZM344.934 389.81C344.225 388.905 343.87 387.715 343.87 386.24C343.87 384.766 344.225 383.576 344.934 382.67C345.644 381.765 346.689 381.312 348.07 381.312C349.461 381.312 350.511 381.765 351.22 382.67C351.93 383.566 352.284 384.756 352.284 386.24C352.284 387.724 351.93 388.919 351.22 389.824C350.511 390.72 349.461 391.168 348.07 391.168C346.689 391.168 345.644 390.716 344.934 389.81ZM350.338 389.068C350.842 388.406 351.094 387.463 351.094 386.24C351.094 385.018 350.842 384.08 350.338 383.426C349.844 382.764 349.088 382.432 348.07 382.432C347.053 382.432 346.297 382.764 345.802 383.426C345.308 384.08 345.06 385.018 345.06 386.24C345.06 387.463 345.308 388.406 345.802 389.068C346.297 389.722 347.053 390.048 348.07 390.048C349.088 390.048 349.844 389.722 350.338 389.068Z" fill="#888888"/>
<defs>
<linearGradient id="paint0_linear_314_55568" x1="401.263" y1="70.5" x2="81.075" y2="428.875" gradientUnits="userSpaceOnUse">
<stop offset="0.239845" stop-color="#F9F8FE"/>
<stop offset="0.593059" stop-color="#F9F8FE" stop-opacity="0.5"/>
<stop offset="0.91781" stop-color="#F9F8FE" stop-opacity="0"/>
</linearGradient>
<clipPath id="clip0_314_55568">
<rect width="48" height="48" fill="white" transform="translate(97 225)"/>
</clipPath>
<clipPath id="clip1_314_55568">
<rect width="48" height="48" fill="white" transform="translate(97 289)"/>
</clipPath>
<clipPath id="clip2_314_55568">
<rect width="48" height="48" fill="white" transform="translate(97 353)"/>
</clipPath>
</defs>
</svg>
