<svg width="1280" height="339" viewBox="0 0 1280 339" fill="none" xmlns="http://www.w3.org/2000/svg">
<path d="M137.535 22.9272C131.628 16.8745 124.786 11.892 117.291 8.18684C106.128 2.7691 93.8203 0.160965 81.5342 0.00345137C45.5972 -0.447111 42.861 43.3564 31.8106 49.4554C20.7601 55.5545 0.742116 56.2652 0.0360154 80.6248C-0.398237 95.9476 3.05107 111.706 12.7458 123.644C21.625 134.579 34.6667 140.128 47.5178 144.213C61.9505 148.814 77.2552 153.323 92.4364 150.22C108.016 147.037 118.961 134.238 131.752 125.589C139.809 120.142 147.039 114.41 152.014 105.67C152.607 104.629 153.165 103.56 153.694 102.479C160.353 88.9035 161.659 73.24 157.987 58.5473C154.697 45.3491 147.258 32.7956 137.535 22.9272Z" fill="#F9F8FE"/>
<path fill-rule="evenodd" clip-rule="evenodd" d="M135.488 68.8046C134.605 68.2147 133.775 67.9452 132.662 67.8872C132.032 67.8543 120.972 67.8343 108.085 67.8425L84.6544 67.8578L67.7138 62.3197C54.9883 58.1597 50.539 56.7905 49.8317 56.8174C49.3139 56.8372 48.457 57.0684 47.9272 57.3311C46.0402 58.267 46.2282 57.7963 39.5603 78.2802C36.1989 88.6069 33.3929 97.3896 33.3251 97.7975C33.0606 99.3877 33.8402 101.28 35.1695 102.275C35.574 102.577 38.054 103.517 41.1414 104.539C44.0453 105.499 46.5226 106.324 46.6466 106.371C46.7705 106.419 46.876 107.676 46.8813 109.165C46.8928 112.433 46.9637 112.867 47.6689 113.986C48.4459 115.219 49.6837 115.995 51.1038 116.139C51.722 116.202 57.7523 116.251 64.5045 116.248L76.7813 116.243L79.0704 116.948C80.3295 117.335 88.5743 120.02 97.3926 122.914C106.211 125.808 113.88 128.255 114.435 128.352C114.991 128.45 115.82 128.439 116.279 128.328C117.283 128.085 118.754 126.99 119.237 126.127C119.425 125.791 120.227 123.536 121.02 121.116C121.813 118.696 122.526 116.609 122.604 116.478C122.683 116.347 125.168 116.244 128.132 116.249C132.516 116.257 133.709 116.181 134.548 115.844C136.267 115.153 137.257 113.762 137.442 111.777C137.495 111.213 137.515 103.119 137.487 93.7914C137.459 84.4639 137.433 75.8174 137.429 74.5769C137.426 73.3364 137.362 72.0005 137.287 71.6084C137.133 70.7979 136.128 69.232 135.488 68.8046ZM134.444 72.8645C134.492 73.4334 134.545 82.4308 134.56 92.8587C134.578 105.096 134.492 112.014 134.316 112.37C134.086 112.833 133.933 112.954 133.353 113.127C132.669 113.332 123.864 113.444 123.691 113.251C123.641 113.195 125.444 107.495 127.698 100.583C129.951 93.6706 131.845 87.7397 131.906 87.403C132.188 85.845 131.066 83.5086 129.658 82.721C128.985 82.3443 114.505 77.5296 113.573 77.3726C112.405 77.1756 111.464 78.701 112.186 79.6204C112.357 79.838 113.229 80.2573 114.124 80.5526L115.751 81.0892L115.56 82.6713C114.791 89.0449 117.88 95.149 123.524 98.4101L125.057 99.2961L122.918 105.806L120.778 112.316L119.425 112.135C116.619 111.759 113.44 112.212 110.75 113.371C109.796 113.782 108.924 114.347 107.46 115.503C105.278 117.225 104.386 118.265 103.289 120.374L102.663 121.577L90.456 117.579C83.742 115.38 71.8675 111.495 64.0681 108.946C56.2687 106.397 49.7887 104.256 49.6681 104.188C49.5475 104.12 49.5334 103.364 49.6369 102.507C50.4036 96.1544 46.917 89.5171 41.3188 86.6721L40.1359 86.0709L42.2684 79.4806L44.4008 72.8904L45.4718 73.078C49.6233 73.8054 54.1145 72.6245 57.6522 69.875C59.6324 68.3359 60.696 67.1078 61.8588 65.0182C62.2587 64.2998 62.609 63.7195 62.6377 63.7285C62.6663 63.7375 72.1252 66.841 83.6571 70.6253C95.1892 74.4094 104.986 77.5385 105.427 77.5789C106.321 77.6606 106.831 77.2356 106.952 76.3088C107.084 75.2982 106.598 75.0574 100.15 72.9361C96.7247 71.8091 93.9569 70.8595 93.9996 70.826C94.1474 70.7101 132.14 70.7394 132.911 70.8559C133.912 71.0074 134.334 71.5597 134.444 72.8645ZM128.944 86.5438C128.988 86.8214 128.335 89.1506 127.492 91.7196L125.96 96.3904L125.01 95.9039C120.652 93.6719 117.912 88.3561 118.457 83.1906L118.581 82.0115L123.403 83.6071C128.346 85.2425 128.772 85.4684 128.944 86.5438ZM112.375 100.833C108.057 99.4456 107.99 99.4325 107.369 99.8419C106.562 100.374 106.423 101.055 106.976 101.761C107.295 102.167 108.303 102.58 111.708 103.696C115.377 104.9 116.116 105.076 116.572 104.856C117.475 104.421 117.69 103.377 117.039 102.589C116.881 102.397 114.782 101.607 112.375 100.833ZM95.4189 78.3338C89.6104 73.2557 81.8228 72.0319 74.7661 75.088C72.249 76.1783 69.2921 78.4398 67.6632 80.5208C63.7463 85.5249 62.4318 92.0448 64.1448 97.9715C64.6413 99.6889 65.4852 101.483 65.9757 101.864C66.6766 102.408 68.2555 101.707 68.2668 100.848C68.2691 100.691 67.9872 99.8909 67.6408 99.0707C63.9518 90.3356 68.2961 80.4271 77.2 77.2687C79.6563 76.3973 81.7532 76.1972 84.6057 76.5624C88.9469 77.1179 91.9669 78.7113 94.8337 81.9594C100.018 87.8331 100.211 96.6421 95.2912 102.836C93.7013 104.837 90.7861 106.963 88.4251 107.841C83.5434 109.658 78.11 109.102 73.861 106.353C72.5366 105.495 72.0408 105.422 71.3332 105.977C70.1098 106.936 70.7069 108.001 73.2742 109.438C77.2399 111.657 82.0484 112.362 86.5847 111.389C90.0326 110.65 91.2352 110.064 94.4162 107.572C96.9057 105.621 97.1809 105.356 98.128 103.991C102.192 98.1376 102.895 91.2053 100.085 84.7085C99.2622 82.8078 96.9986 79.7148 95.4189 78.3338ZM118.302 120.01C116.722 124.794 116.447 125.314 115.402 125.497C114.819 125.599 105.57 122.544 105.607 122.261C105.623 122.136 106.039 121.409 106.531 120.644C107.323 119.413 107.645 119.083 109.345 117.749C111.048 116.413 111.442 116.182 112.828 115.707C113.687 115.413 114.969 115.102 115.677 115.017C117.063 114.852 119.558 114.954 119.738 115.184C119.799 115.261 119.152 117.433 118.302 120.01ZM86.5588 79.5499C85.7635 79.3558 85.0748 79.8501 84.7888 80.8205L84.5832 81.5177L83.2322 81.7312C81.9893 81.9277 81.7767 82.027 80.5771 82.9707C79.5366 83.7893 79.1995 84.1629 78.9092 84.8194C78.0087 86.8554 78.4745 89.0553 80.2071 90.9506L81.1449 91.9764L79.9904 95.5647C79.2721 97.7972 78.7388 99.1412 78.579 99.1219C78.4375 99.1047 77.9005 98.7044 77.3851 98.2321C76.8699 97.76 76.3055 97.2483 76.1314 97.0952C75.7424 96.7534 74.7092 97.0112 74.2871 97.5557C74.117 97.775 74.001 98.2258 74.0294 98.5577C74.075 99.091 74.2114 99.2855 75.2016 100.228C75.8179 100.815 76.678 101.46 77.1128 101.662L77.9035 102.028L77.6269 102.782C77.1512 104.077 77.5427 104.933 78.6733 105.07C79.5294 105.173 80.0747 104.743 80.4062 103.703C80.6442 102.957 80.7138 102.879 81.1606 102.863C83.0424 102.793 83.8195 102.508 85.3104 101.34C86.6974 100.253 86.7984 100.13 87.3368 98.8628C87.9767 97.3567 88.0515 95.8689 87.5477 94.6746C87.3454 94.1957 86.7025 93.298 85.8963 92.3694L84.5761 90.8489L85.4449 88.1846C85.9228 86.7194 86.4131 85.5094 86.5347 85.4959C86.6564 85.4821 87.0179 85.805 87.3379 86.2131C88.114 87.2025 88.8441 87.3773 89.6289 86.7617C90.5482 86.0406 90.4627 85.3339 89.303 84.0642C88.7947 83.5075 88.1344 82.9258 87.8362 82.7714C87.3525 82.521 87.3117 82.4478 87.4592 82.0941C88.0079 80.7792 87.6688 79.8206 86.5588 79.5499ZM82.8263 86.787L82.1733 88.801L81.7107 88.2112C81.0749 87.4007 81.2324 86.2912 82.1053 85.432C82.7015 84.8453 83.2809 84.52 83.4184 84.6953C83.4519 84.738 83.1855 85.6793 82.8263 86.787ZM59.0572 63.9964C56.5004 68.2244 51.8543 70.664 47.115 70.267L45.3487 70.1191L46.7977 65.5693C47.5947 63.0671 48.3889 60.7978 48.5627 60.527C49.209 59.5187 49.7969 59.5787 54.757 61.1577C57.2943 61.9655 59.4396 62.7035 59.5243 62.7979C59.609 62.8923 59.3989 63.4315 59.0572 63.9964ZM84.9186 96.5972C84.7851 98.0884 83.6741 99.4234 82.2487 99.8057L81.6361 99.97L82.5306 97.2265C83.7175 93.5874 83.6297 93.7004 84.3805 94.8399C84.8681 95.5801 84.9777 95.9381 84.9186 96.5972ZM54.0502 81.7655C49.1655 80.14 48.9595 80.0986 48.3085 80.6093C47.7474 81.0494 47.6229 82.0751 48.0627 82.6357C48.325 82.9702 56.4774 85.749 57.1774 85.7424C57.606 85.7385 58.1446 85.3872 58.4148 84.9358C58.5858 84.6497 58.4702 83.5689 58.2366 83.2712C58.1709 83.1875 56.2871 82.5099 54.0502 81.7655ZM64.2549 113.32C62.3757 113.317 58.7457 113.31 56.1882 113.305C53.6306 113.301 51.3135 113.229 51.0391 113.146C50.4454 112.966 49.9659 112.386 49.8793 111.745C49.845 111.49 49.8128 110.428 49.8077 109.385C49.8016 108.126 49.8904 107.499 50.0713 107.521C50.5074 107.574 67.4607 113.089 67.5712 113.214C67.6262 113.276 66.1338 113.324 64.2549 113.32ZM45.5349 95.0688C46.3992 96.8181 46.9184 99.5076 46.7616 101.425C46.6897 102.301 46.58 103.059 46.5173 103.108C46.3007 103.278 36.9284 100.069 36.6667 99.7355C36.0305 98.9245 36.1366 98.269 37.6545 93.6381C38.4916 91.0845 39.2672 88.9852 39.378 88.9727C39.5923 88.9489 41.9706 90.4915 42.5862 91.0537C43.4347 91.8287 44.9603 93.906 45.5349 95.0688Z" fill="#8A86B2"/>
<path d="M901.5 291.5C887.706 306.746 867.052 296.736 855.821 289.172C839.052 277.878 827.095 264.259 817 258.5C804.685 251.498 794.096 271.5 774.183 268.839C761.169 267.101 753.895 256.313 754.31 233.582C754.897 201.897 764.823 178.34 776.404 170.228C800.047 153.673 834.312 161.544 852.675 166.602C867.842 170.774 893.513 166.781 910 200C919.735 219.609 928.103 262.103 901.5 291.5Z" fill="#F9F8FE"/>
<path d="M849.276 154.55C825.005 148.047 800.026 162.554 793.489 186.95C787.555 209.097 798.887 231.735 819.177 240.597L827.732 208.672L816.858 205.759L819.969 194.148L830.843 197.062L832.913 189.334C836.341 176.542 844.046 172.589 854.623 175.423C859.688 176.781 862.268 177.878 863.489 178.387L860.774 188.522L853.559 186.588C849.069 185.385 846.354 189.247 845.062 194.069L843.361 200.416L856.52 203.942L851.626 215.075L840.25 212.027L831.671 244.043C853.905 246.868 875.396 232.867 881.388 210.503C887.925 186.106 873.547 161.054 849.276 154.55Z" stroke="#8A86B2" stroke-width="4" stroke-linejoin="round"/>
<path d="M1098.37 126.002C1097.24 124.388 1096.01 122.838 1094.66 121.363C1083.69 109.337 1069.33 104.248 1052.94 100.838C1036.01 97.3174 1016.18 96.2234 999.923 102.57C996.096 104.081 992.46 106.076 989.584 108.796C978.706 119.045 974.974 136.209 962.861 149.776C950.748 163.343 944.84 180.244 955.714 196.286C960.317 203.081 966.186 208.678 973.129 213.604C981.677 219.649 989.051 227.827 998.932 232.557C1009.32 237.526 1023.14 239.258 1034.64 236.982C1047.75 234.386 1055.44 224.062 1065.44 217.035C1073.33 211.486 1082.77 207.853 1090.5 202.129C1102.35 193.364 1111.33 179.262 1109.84 165.289C1108.37 151.725 1106.49 137.629 1098.37 126.002Z" fill="#F9F8FE"/>
<path d="M996.194 170.48L1009.75 157.138C1010.2 156.694 1010.45 156.098 1010.45 155.467C1010.45 154.151 1009.36 153.083 1008.02 153.083C1007.36 153.083 1006.75 153.333 1006.29 153.794L992.745 167.077L979.145 153.769C978.686 153.326 978.077 153.083 977.43 153.083C976.086 153.083 975 154.151 975 155.464C975 156.105 975.262 156.712 975.729 157.162L989.282 170.46L975.736 183.767C975.262 184.232 975 184.835 975 185.476C975 186.793 976.089 187.86 977.43 187.86C978.077 187.86 978.686 187.618 979.145 187.167L992.727 173.852L1006.26 187.115C1006.74 187.6 1007.35 187.86 1008.02 187.86C1009.35 187.86 1010.44 186.793 1010.44 185.476C1010.44 184.842 1010.2 184.246 1009.74 183.795L996.19 170.466L996.194 170.48ZM1076.77 170.477C1076.77 172.868 1078.75 174.809 1081.19 174.809C1083.62 174.809 1085.6 172.868 1085.6 170.477C1085.6 168.086 1083.62 166.145 1081.19 166.145C1078.76 166.145 1076.78 168.086 1076.78 170.477H1076.77ZM1068.4 170.477C1068.4 163.563 1074.13 157.932 1081.19 157.932C1088.23 157.932 1093.97 163.563 1093.97 170.477C1093.97 177.391 1088.23 183.022 1081.19 183.022C1074.14 183.022 1068.4 177.398 1068.4 170.477ZM1063.38 170.477C1063.38 180.111 1071.37 187.957 1081.19 187.957C1091.01 187.957 1099 180.118 1099 170.48C1099 160.846 1091.01 153 1081.19 153C1071.37 153 1063.38 160.843 1063.38 170.48V170.477ZM1062.11 153.298H1061.37C1059.12 153.298 1056.96 153.991 1055.15 155.36C1054.9 154.3 1053.93 153.489 1052.77 153.489C1051.43 153.489 1050.36 154.546 1050.36 155.859L1050.37 185.299C1050.37 186.606 1051.47 187.67 1052.79 187.67C1054.13 187.67 1055.22 186.606 1055.22 185.292V167.188C1055.22 161.158 1055.79 158.718 1061.05 158.074C1061.55 158.015 1062.07 158.025 1062.08 158.025C1063.51 157.973 1064.54 156.999 1064.54 155.686C1064.54 154.369 1063.44 153.302 1062.1 153.302L1062.11 153.298ZM1015.47 167.604C1015.47 167.535 1015.48 167.465 1015.48 167.403C1016.89 161.927 1021.94 157.883 1027.95 157.883C1034.04 157.883 1039.13 162.021 1040.47 167.594H1015.47L1015.47 167.604ZM1045.44 167.153C1044.4 162.291 1041.68 158.295 1037.56 155.731C1031.51 151.967 1023.54 152.175 1017.71 156.251C1012.95 159.567 1010.2 165.001 1010.2 170.598C1010.2 172.002 1010.38 173.419 1010.73 174.816C1012.53 181.747 1018.61 187.001 1025.85 187.871C1028 188.127 1030.1 188.009 1032.25 187.455C1034.12 187.004 1035.92 186.27 1037.58 185.223C1039.3 184.138 1040.74 182.703 1042.14 180.988C1042.16 180.953 1042.19 180.929 1042.22 180.894C1043.19 179.716 1043.01 178.032 1041.95 177.235C1041.05 176.559 1039.54 176.285 1038.36 177.775C1038.11 178.136 1037.82 178.503 1037.51 178.867C1036.57 179.889 1035.4 180.877 1034 181.646C1032.21 182.582 1030.18 183.112 1028.02 183.126C1020.95 183.047 1017.18 178.205 1015.83 174.753C1015.59 174.105 1015.41 173.436 1015.29 172.743L1015.25 172.38H1040.61C1044.08 172.303 1045.95 169.895 1045.44 167.146L1045.44 167.153Z" fill="#8A86B2"/>
<path d="M538.073 236.311C541.649 216.064 521.206 201.641 508.209 201.668C478.954 201.731 465.575 218.883 454.834 214.444C441.749 209.016 457.121 176.557 442.803 162.465C433.445 153.255 420.464 154.129 402.768 168.403C378.108 188.307 365.595 210.598 366.296 224.72C367.728 253.548 394.967 275.777 410.227 287.174C422.827 296.59 435.657 316.222 472.004 308.861C493.461 304.517 531.181 275.354 538.073 236.311Z" fill="#F9F8FE"/>
<path fill-rule="evenodd" clip-rule="evenodd" d="M399.651 207.762C398.722 208.341 397.91 209.45 397.596 210.572C397.387 211.317 397.414 211.709 397.858 214.375L398.353 217.348L396.997 217.678C394.755 218.225 393.393 219.444 392.753 221.478L392.463 222.402L398.909 256.927L405.356 291.452L405.892 292.134C406.624 293.064 407.711 293.819 408.818 294.168L409.742 294.458L434.969 289.794C459.478 285.263 460.206 285.119 460.529 284.74C460.99 284.199 460.802 283.182 460.179 282.845C459.747 282.611 458.913 282.756 434.964 287.228C410.623 291.773 410.185 291.849 409.484 291.642C409.092 291.526 408.548 291.217 408.276 290.954L407.781 290.478L402.585 262.891L397.389 235.304L405.714 233.75L414.039 232.195L414.374 231.706C414.802 231.082 414.682 230.438 414.058 230.011L413.569 229.675L405.238 231.23L396.908 232.786L395.992 227.611C395.08 222.453 395.078 222.433 395.374 221.794C395.768 220.947 396.695 220.316 397.877 220.091L398.822 219.91L399.17 221.381C399.447 222.553 399.647 223.025 400.157 223.71C401.228 225.15 402.789 225.754 404.602 225.43C405.908 225.197 406.895 224.592 407.573 223.608C408.37 222.451 408.555 221.505 408.336 219.69L408.152 218.168L410.88 217.659L413.606 217.15L413.97 218.69C414.496 220.924 415.496 222.098 417.315 222.616C419.179 223.148 421.378 222.322 422.428 220.696C423.15 219.578 423.297 218.592 422.989 216.919L422.718 215.448L425.555 214.919L428.391 214.389L428.768 216.014C429.176 217.776 429.451 218.248 430.58 219.135C432.627 220.742 435.956 220.067 437.278 217.775C437.914 216.674 438.046 215.606 437.747 214.002L437.502 212.688L440.358 212.155L443.214 211.622L443.492 213.091C443.808 214.762 444.301 215.629 445.378 216.411C446.944 217.548 449.293 217.525 450.84 216.356C452.348 215.217 452.858 213.761 452.542 211.488L452.325 209.92L455.052 209.411L457.779 208.902L458.158 210.388C458.601 212.13 459.14 213.008 460.195 213.708C461.385 214.499 462.082 214.619 463.709 214.311C465.317 214.007 465.797 213.712 466.611 212.525C467.341 211.459 467.531 210.4 467.307 208.652L467.115 207.159L468.059 206.986C469.239 206.771 470.333 207.026 471.005 207.673C471.512 208.161 471.518 208.181 472.527 213.32L473.541 218.477L445.639 223.687L417.738 228.897L417.403 229.386C416.975 230.01 417.095 230.654 417.719 231.081L418.208 231.417L446.104 226.208L474.001 220.999L479.11 248.602L484.219 276.206L483.929 276.829C483.77 277.171 483.375 277.656 483.051 277.905C482.485 278.341 482.095 278.428 473.16 280.096L463.859 281.833L463.567 282.29C463.15 282.94 463.335 283.722 463.985 284.062C464.497 284.33 464.561 284.32 474.079 282.494L483.659 280.657L484.427 280.114C485.395 279.428 486.168 278.35 486.542 277.163L486.833 276.239L480.386 241.714L473.94 207.188L473.335 206.432C472.005 204.766 470.294 204.12 468.006 204.42L466.623 204.601L466.012 201.65C465.455 198.962 465.352 198.634 464.86 197.976C463.824 196.591 461.857 195.796 460.222 196.102C458.525 196.418 457.011 197.881 456.602 199.596C456.397 200.458 456.422 200.861 456.849 203.469L457.325 206.379L454.57 206.893L451.815 207.408L451.318 204.75C450.718 201.536 450.352 200.707 449.129 199.793C448.096 199.022 447.119 198.721 445.959 198.816C444.048 198.972 442.427 200.309 441.898 202.166C441.636 203.084 441.647 203.229 442.184 206.11L442.743 209.102L439.887 209.635L437.031 210.168L436.485 207.243L435.939 204.317L435.19 203.355C433.561 201.26 430.724 200.949 428.642 202.637C427.835 203.291 427.181 204.428 427 205.489C426.941 205.838 427.108 207.19 427.431 208.961L427.959 211.862L425.104 212.395L422.248 212.928L421.689 209.937C421.151 207.056 421.109 206.917 420.533 206.155C419.369 204.614 417.375 203.952 415.534 204.497C414.491 204.805 413.823 205.294 413.122 206.263C412.088 207.689 412.051 208.089 412.633 211.551L413.149 214.627L410.407 215.139L407.665 215.651L407.059 212.765C406.516 210.18 406.395 209.794 405.892 209.065C404.496 207.037 401.74 206.462 399.651 207.762ZM402.58 209.709C403.781 209.967 403.795 210.005 404.915 216.002L405.923 221.401L405.458 222.079C405.062 222.657 404.878 222.778 404.204 222.904C403.535 223.029 403.315 222.983 402.755 222.599C401.871 221.993 401.755 221.608 400.785 216.058C399.885 210.911 399.888 210.725 400.903 210.039C401.528 209.616 401.849 209.553 402.58 209.709ZM417.379 206.973C418.56 207.285 418.612 207.423 419.679 213.139C420.735 218.794 420.742 219.036 419.87 219.715C418.928 220.449 417.602 220.297 416.935 219.378C416.643 218.975 416.417 218.011 415.65 213.908C414.622 208.401 414.619 208.214 415.529 207.395C416.103 206.88 416.599 206.766 417.379 206.973ZM432.745 204.526L433.362 204.948L434.397 210.223C435.283 214.737 435.409 215.579 435.266 216.054C434.825 217.516 432.669 217.919 431.73 216.714C431.425 216.323 431.238 215.493 430.438 210.973L429.502 205.69L429.837 205.16C430.287 204.451 430.66 204.22 431.459 204.156C431.918 204.12 432.323 204.236 432.745 204.526ZM446.897 201.467C447.2 201.558 447.641 201.848 447.877 202.11C448.277 202.554 448.368 202.924 449.242 207.601C450.015 211.735 450.152 212.718 450.025 213.2C449.63 214.692 447.643 215.204 446.628 214.075C446.215 213.615 446.134 213.288 445.221 208.405C444.15 202.673 444.148 202.521 445.109 201.801C445.707 201.353 446.209 201.259 446.897 201.467ZM462.037 198.861C462.302 198.99 462.657 199.336 462.827 199.63C463.219 200.313 464.902 209.112 464.82 210.054C464.738 211.004 464.083 211.724 463.141 211.9C462.5 212.019 462.274 211.968 461.703 211.577L461.025 211.112L460.017 205.714C459.121 200.912 459.032 200.26 459.213 199.825C459.634 198.818 460.995 198.353 462.037 198.861ZM407.075 240.181L406.739 240.671L407.668 245.642L408.596 250.614L409.085 250.949L409.575 251.284L414.549 250.356C417.473 249.81 419.638 249.335 419.8 249.205C420.326 248.783 420.275 247.986 419.427 243.446C418.58 238.907 418.34 238.145 417.697 237.941C417.499 237.879 415.308 238.217 412.385 238.763L407.41 239.692L407.075 240.181ZM423.319 237.124C423.032 237.572 423.044 237.677 423.967 242.623L424.909 247.665L425.366 247.958C425.814 248.245 425.919 248.233 430.865 247.309L435.906 246.368L436.199 245.911C436.486 245.462 436.474 245.358 435.546 240.389C434.614 235.395 434.594 235.32 434.169 235.05C433.754 234.787 433.537 234.814 428.674 235.722L423.611 236.667L423.319 237.124ZM439.575 234.034C439.314 234.415 439.344 234.657 440.253 239.528L441.204 244.622L441.661 244.915C442.11 245.202 442.214 245.19 447.177 244.263L452.236 243.319L452.502 242.811C452.757 242.323 452.73 242.107 451.836 237.315L450.904 232.327L450.447 232.034C449.999 231.747 449.895 231.759 444.919 232.688C440.072 233.593 439.836 233.653 439.575 234.034ZM455.971 230.842C455.5 231.361 455.553 232.082 456.383 236.531C457.234 241.086 457.473 241.847 458.116 242.051C458.315 242.114 460.505 241.775 463.429 241.229L468.403 240.3L468.738 239.811L469.074 239.321L468.146 234.35L467.217 229.378L466.728 229.043L466.239 228.708L461.223 229.644C457.471 230.345 456.148 230.646 455.971 230.842ZM416.739 243.948L417.351 247.224L414.075 247.836L410.799 248.448L410.188 245.172L409.576 241.896L412.852 241.284L416.128 240.672L416.739 243.948ZM433.035 240.906L433.647 244.182L430.371 244.793L427.095 245.405L426.483 242.129L425.871 238.853L429.147 238.241L432.423 237.63L433.035 240.906ZM449.33 237.863L449.942 241.139L446.666 241.751L443.39 242.363L442.778 239.086L442.167 235.81L445.443 235.199L448.719 234.587L449.33 237.863ZM465.626 234.82L466.237 238.097L462.962 238.708L459.686 239.32L459.074 236.044L458.462 232.768L461.738 232.156L465.014 231.544L465.626 234.82ZM410.149 256.646L409.814 257.135L410.736 262.077C411.622 266.821 411.676 267.033 412.09 267.395L412.52 267.773L417.69 266.808C422.732 265.866 422.866 265.832 423.114 265.429C423.352 265.042 423.308 264.696 422.427 259.979L421.487 254.942L420.94 254.624L420.392 254.307L415.438 255.232L410.484 256.157L410.149 256.646ZM426.445 253.603L426.109 254.093L427.046 259.109C427.945 263.925 427.999 264.137 428.393 264.429C428.799 264.728 428.874 264.72 433.922 263.777C438.815 262.863 439.051 262.804 439.312 262.423C439.574 262.042 439.544 261.8 438.631 256.912L437.677 251.8L437.169 251.535C436.682 251.28 436.465 251.306 431.721 252.191L426.78 253.114L426.445 253.603ZM442.758 250.491L442.381 250.922L443.335 256.034C444.248 260.922 444.307 261.158 444.688 261.419C445.069 261.68 445.311 261.65 450.204 260.737C455.252 259.794 455.325 259.775 455.595 259.35C455.858 258.935 455.832 258.718 454.933 253.902L453.996 248.886L453.507 248.55L453.017 248.215L448.077 249.137C443.333 250.023 443.121 250.077 442.758 250.491ZM459.13 247.286C458.546 247.715 458.61 248.584 459.586 253.503C460.424 257.731 460.524 258.107 460.881 258.378C461.257 258.664 461.396 258.647 466.436 257.706L471.606 256.741L471.871 256.233C472.126 255.746 472.1 255.529 471.214 250.784L470.292 245.843L469.802 245.508L469.313 245.172L464.393 246.103C461.22 246.703 459.352 247.123 459.13 247.286ZM419.814 260.413L420.425 263.689L417.149 264.301L413.874 264.912L413.262 261.636L412.65 258.36L415.926 257.749L419.202 257.137L419.814 260.413ZM436.109 257.37L436.721 260.646L433.445 261.258L430.169 261.87L429.557 258.594L428.946 255.318L432.221 254.706L435.497 254.094L436.109 257.37ZM452.404 254.328L453.016 257.604L449.74 258.215L446.464 258.827L445.853 255.551L445.241 252.275L448.517 251.663L451.793 251.052L452.404 254.328ZM468.7 251.285L469.312 254.561L466.036 255.173L462.76 255.784L462.148 252.508L461.536 249.232L464.812 248.621L468.088 248.009L468.7 251.285ZM413.504 272.835C413.324 272.967 413.128 273.276 413.067 273.521C412.915 274.134 414.608 283.202 414.97 283.718C415.439 284.386 415.84 284.366 420.892 283.422L425.663 282.532L426.058 282.038L426.454 281.545L425.507 276.475L424.561 271.406L424.014 271.089L423.467 270.771L418.648 271.683C415.697 272.241 413.704 272.687 413.504 272.835ZM429.785 269.763C429.599 269.884 429.394 270.148 429.33 270.351C429.255 270.587 429.544 272.487 430.137 275.667C431 280.289 431.087 280.638 431.457 280.952L431.852 281.289L437.005 280.327L442.159 279.365L442.406 278.908C442.637 278.481 442.592 278.124 441.719 273.448C440.846 268.774 440.759 268.423 440.39 268.109L439.995 267.772L435.059 268.657C432.345 269.144 429.971 269.642 429.785 269.763ZM446.081 266.72C445.894 266.841 445.689 267.106 445.625 267.308C445.551 267.544 445.839 269.444 446.433 272.624C447.296 277.247 447.383 277.595 447.752 277.91L448.147 278.246L453.301 277.284L458.454 276.322L458.701 275.865C458.932 275.439 458.887 275.081 458.014 270.406C457.142 265.731 457.054 265.381 456.685 265.066L456.29 264.729L451.355 265.615C448.64 266.101 446.267 266.599 446.081 266.72ZM462.083 263.98L461.688 264.474L462.634 269.543L463.581 274.612L464.128 274.93L464.675 275.247L469.445 274.357C472.584 273.771 474.344 273.376 474.591 273.203C475.257 272.735 475.237 272.329 474.31 267.363C473.383 262.397 473.254 262.011 472.464 261.815C472.172 261.743 470.388 262.01 467.25 262.596L462.479 263.487L462.083 263.98ZM422.904 276.965L423.532 280.329L420.29 280.887L417.047 281.445L416.422 278.351C416.078 276.649 415.816 275.153 415.839 275.026C415.872 274.85 416.633 274.655 419.079 274.198L422.276 273.601L422.904 276.965ZM439.199 273.919L439.826 277.279L436.55 277.891L433.275 278.502L432.647 275.142L432.02 271.782L435.296 271.17L438.572 270.559L439.199 273.919ZM455.494 270.876L456.122 274.236L452.846 274.848L449.57 275.46L448.943 272.1L448.315 268.739L451.591 268.128L454.867 267.516L455.494 270.876ZM471.706 267.849L472.318 271.125L469.092 271.775L465.867 272.424L465.238 269.057L464.609 265.69L467.852 265.131L471.094 264.573L471.706 267.849Z" fill="#8A86B2"/>
<path d="M324.369 143.258C323.244 141.513 322.006 139.839 320.662 138.245C309.685 125.25 295.334 119.751 278.94 116.067C262.007 112.262 242.181 111.08 225.923 117.938C222.096 119.571 218.46 121.727 215.584 124.666C204.706 135.74 200.974 154.286 188.861 168.947C176.748 183.607 170.84 201.869 181.714 219.204C186.317 226.545 192.186 232.593 199.129 237.916C207.677 244.448 215.051 253.285 224.932 258.396C235.315 263.765 249.144 265.636 260.637 263.177C273.747 260.372 281.436 249.216 291.443 241.623C299.333 235.627 308.773 231.702 316.503 225.516C328.348 216.046 337.33 200.807 335.838 185.71C334.372 171.053 332.486 155.821 324.369 143.258Z" fill="#F9F8FE"/>
<path fill-rule="evenodd" clip-rule="evenodd" d="M234.352 141.126C233.289 141.174 232.632 141.363 231.803 141.859C229.496 143.239 228.714 146.304 230.082 148.606C230.818 149.845 231.667 150.451 233.515 151.056L235.074 151.567L233.527 157.342C231.862 163.557 231.659 164.724 231.72 167.727C231.824 172.88 233.831 178.254 237.15 182.27C238.209 183.551 241.2 186.349 241.635 186.466C241.753 186.497 241.831 186.595 241.808 186.683C241.784 186.771 241.683 186.821 241.583 186.794C241.249 186.704 238.068 187.347 236.767 187.766C231.324 189.522 226.701 193.091 223.726 197.835C222.11 200.412 221.672 201.59 219.964 207.965L218.419 213.728L216.822 213.392C214.899 212.989 213.801 213.097 212.592 213.809C210.16 215.242 209.384 218.335 210.864 220.7C211.173 221.194 211.747 221.832 212.14 222.118C212.834 222.622 213.612 222.84 238.891 229.614C264.17 236.387 264.953 236.587 265.806 236.497C269.33 236.126 271.328 232.185 269.569 229.075C268.878 227.855 267.981 227.212 266.114 226.6L264.564 226.092L266.111 220.317C267.776 214.102 267.979 212.935 267.918 209.932C267.814 204.779 265.807 199.406 262.488 195.389C261.429 194.109 258.438 191.31 258.003 191.194C257.885 191.162 257.807 191.064 257.83 190.976C257.854 190.889 257.97 190.843 258.089 190.875C258.521 190.99 262.51 190.064 264.075 189.485C266.094 188.737 269.157 186.976 270.833 185.601C273.529 183.389 276.07 180.067 277.481 176.909C277.972 175.81 278.504 174.061 279.675 169.695L281.219 163.932L282.816 164.267C284.739 164.671 285.837 164.563 287.046 163.851C289.425 162.449 290.218 159.489 288.859 157.085C288.595 156.62 288.057 155.976 287.662 155.653L286.944 155.065L260.995 148.08C240.382 142.531 234.904 141.101 234.352 141.126ZM285.837 157.828C287.229 158.899 286.893 160.963 285.221 161.607L284.681 161.816L258.908 154.91L233.135 148.004L232.771 147.553C231.658 146.176 232.377 144.224 234.09 143.969C234.923 143.846 285.147 157.296 285.837 157.828ZM276.785 169.409C275.211 175.046 274.972 175.781 274.341 176.936C270.457 184.048 263.409 188.185 255.231 188.154C254.291 188.15 253.413 188.196 253.28 188.256C252.799 188.47 252.33 189.448 252.353 190.19C252.378 191.011 252.547 191.184 254.306 192.197C260.682 195.867 264.659 202.238 265.06 209.423C265.219 212.268 265.006 213.545 263.338 219.77L261.827 225.409L258.87 224.616L255.914 223.824L255.983 223.201C256.67 217.09 253.555 211.141 248.134 208.209C245.507 206.787 241.873 206.139 238.98 206.577C235.433 207.113 231.962 209.027 229.711 211.686C228.85 212.704 227.786 214.389 227.295 215.514L227.044 216.088L224.087 215.296L221.13 214.504L222.641 208.865C224.309 202.64 224.763 201.428 226.323 199.044C230.314 192.945 236.953 189.458 244.483 189.506C246.438 189.519 246.743 189.376 247.173 188.247C247.351 187.777 247.372 187.426 247.245 187.018C247.09 186.518 246.88 186.34 245.541 185.579C238.99 181.853 234.985 175.516 234.578 168.236C234.419 165.392 234.632 164.115 236.3 157.889L237.811 152.251L258.171 157.706L278.531 163.162L276.785 169.409ZM247.142 160.405C244.752 160.098 242.194 160.45 240.068 161.378C238.419 162.098 238.155 162.462 237.816 164.481C237.089 168.808 237.83 172.799 240.07 176.632C244.971 185.018 255.923 187.953 264.361 183.141C268.208 180.947 270.872 177.833 272.368 173.783C273.041 171.96 273.086 171.55 272.671 170.997C272.146 170.298 271.589 170.273 270.311 170.888C269.679 171.192 268.507 171.574 267.708 171.737C263.454 172.603 259.301 170.772 256.839 166.944C255.74 165.236 254.993 164.347 253.843 163.383C252.076 161.901 249.345 160.687 247.142 160.405ZM250.424 164.459C250.92 164.726 251.7 165.273 252.16 165.673C252.946 166.359 253.29 166.792 255.106 169.372C256.042 170.704 257.619 172.145 259.124 173.046C261.451 174.439 265.339 175.127 267.887 174.595C268.407 174.486 268.86 174.446 268.895 174.505C269.028 174.735 267.356 177.093 266.285 178.186C264.781 179.72 261.72 181.503 259.603 182.077C254.907 183.351 250.037 182.365 246.116 179.346C243.944 177.674 241.741 174.407 240.985 171.739C240.343 169.47 240.193 166.431 240.641 164.759C240.814 164.115 240.867 164.074 242.026 163.674C244.802 162.715 247.692 162.986 250.424 164.459ZM247.062 193.032C244.986 193.381 243.602 195.298 243.944 197.35C244.219 198.996 245.095 199.955 246.721 200.391C248.348 200.826 249.586 200.434 250.647 199.145C252.398 197.019 251.355 193.868 248.662 193.147C248.147 193.009 247.482 192.961 247.062 193.032ZM248.757 196.282C248.994 196.929 248.757 197.534 248.169 197.785C247.888 197.905 247.534 197.969 247.381 197.928C246.9 197.799 246.427 197.003 246.552 196.534C246.746 195.811 247.269 195.503 247.98 195.694C248.442 195.817 248.643 195.969 248.757 196.282ZM246.84 210.723C247.463 211.038 248.502 211.773 249.218 212.406C250.249 213.32 250.678 213.859 251.491 215.268C252.042 216.224 252.639 217.545 252.817 218.204C253.122 219.331 253.301 221.314 253.208 222.543L253.167 223.088L241.479 219.956L229.79 216.824L230.027 216.332C230.561 215.221 231.708 213.593 232.535 212.77C233.021 212.286 234.191 211.447 235.145 210.898C238.865 208.756 242.82 208.697 246.84 210.723ZM266.373 229.712C267.03 230.099 267.488 230.997 267.429 231.783C267.375 232.492 266.71 233.298 265.932 233.597L265.391 233.806L239.618 226.9L213.845 219.994L213.481 219.543C212.957 218.895 212.784 217.864 213.092 217.224C213.418 216.545 214.275 215.96 214.962 215.947C215.749 215.932 265.669 229.298 266.373 229.712Z" fill="#8A86B2"/>
<path d="M1272.01 107.309C1281.59 89.1917 1282.25 65.051 1275.62 45.6981C1269.93 29.037 1257.25 16.3221 1242.61 8.75741C1225.63 -0.0207391 1205.39 -2.63369 1187.15 2.90741C1182.36 4.36361 1177.69 5.70003 1173.17 8.0955C1154.63 17.9106 1158.22 42.0986 1151.71 50.5143C1146.24 57.5935 1135.78 55.5069 1129.19 60.9314C1111.41 75.5785 1121.7 113.304 1140.78 126.845C1163 142.611 1248.28 152.171 1272.01 107.309Z" fill="#F9F8FE"/>
<path fill-rule="evenodd" clip-rule="evenodd" d="M1174.11 22.1889C1173.83 22.302 1172.97 22.6405 1172.22 22.9412C1162.35 26.8586 1153.97 35.2746 1149.97 45.2875C1148.81 48.1877 1148.28 49.9922 1147.7 53.027C1146.63 58.6592 1146.74 63.9455 1148.05 69.6579C1151.29 83.7294 1161.93 95.1029 1175.77 99.2856C1176.7 99.566 1178.62 100.018 1180.05 100.29C1186.52 101.526 1192.97 101.182 1199.19 99.2687C1207.37 96.7522 1214.23 92.0399 1219.5 85.324C1220.99 83.4268 1223.47 79.2817 1224.48 76.9883C1229.18 66.3329 1229.14 54.1769 1224.36 43.7175C1223.88 42.6561 1223.71 42.4328 1223.22 42.1796L1222.64 41.8834L1204.07 46.8592L1185.5 51.835L1185.12 52.4151L1184.74 52.9953L1186.74 60.631C1187.84 64.8306 1188.84 68.487 1188.97 68.756C1189.1 69.0251 1189.41 69.3656 1189.66 69.5128L1190.13 69.7803L1199.31 67.3206C1204.35 65.9677 1208.5 64.9192 1208.52 64.9905C1208.54 65.0618 1208.33 65.8354 1208.07 66.7094C1205.92 73.6815 1200.84 78.8051 1193.89 81.0141C1183.83 84.2103 1172.86 79.4605 1168.09 69.8381C1167.13 67.9165 1166.1 63.9024 1165.99 61.7014C1165.56 52.9604 1170.26 44.9847 1178.15 41.0609C1179.84 40.2218 1184.06 39.0944 1185.9 38.9905C1188.04 38.8701 1189.9 39.021 1192.18 39.5001C1193.37 39.75 1194.53 39.9068 1194.74 39.8487C1194.96 39.7905 1195.3 39.5329 1195.5 39.2763C1196.73 37.7109 1205 26.0443 1205.17 25.6394C1205.62 24.5825 1205.11 23.9416 1203.17 23.1164C1200.77 22.0989 1198.45 21.3975 1195.52 20.7999C1189.36 19.5451 1183.92 19.6731 1177.7 21.2193C1176.01 21.6395 1174.4 22.0757 1174.11 22.1889ZM1180.53 23.8199C1185.55 22.9084 1189.79 22.9399 1194.81 23.9256C1197.07 24.3696 1201.07 25.5568 1201.13 25.8052C1201.17 25.9605 1193.7 36.3572 1193.51 36.408C1193.42 36.4309 1192.81 36.3378 1192.15 36.2012C1190.39 35.8387 1188.54 35.6996 1186.34 35.7658C1184.53 35.8204 1184.18 35.8827 1181.11 36.7049C1178.05 37.5272 1177.71 37.6467 1176.12 38.5041C1171.86 40.7968 1168.54 43.9574 1166.2 47.943C1164.78 50.3627 1163.99 52.3672 1163.4 54.999L1163.07 56.5137L1157.48 53.9933C1154.41 52.6072 1151.77 51.4044 1151.62 51.3206C1151.39 51.1904 1151.4 50.9919 1151.7 49.9493C1155.54 36.6715 1167.01 26.2753 1180.53 23.8199ZM1157.02 57.3004C1160.06 58.6752 1162.59 59.8415 1162.64 59.8921C1162.7 59.9427 1162.76 60.7538 1162.78 61.6947C1162.82 63.2507 1162.9 63.7098 1163.71 66.774C1164.55 69.9363 1164.66 70.2437 1165.49 71.7898C1165.98 72.6957 1166.45 73.5661 1166.53 73.724C1166.66 73.9568 1165.98 74.9906 1162.94 79.1868C1160.88 82.0335 1159.14 84.4042 1159.06 84.4552C1158.75 84.6609 1155.74 80.3235 1154.44 77.7842C1150.76 70.6161 1149.48 63.1149 1150.56 55.0756C1150.65 54.4411 1150.65 54.4376 1151.07 54.6183C1151.3 54.7185 1153.97 55.9255 1157.02 57.3004ZM1221.81 45.8827C1222.36 47.0008 1223.53 50.6066 1223.88 52.2903C1225.88 61.7559 1224.49 70.8996 1219.81 79.0845C1219.09 80.3356 1218.44 81.3781 1218.35 81.4009C1218.27 81.4237 1215.59 80.265 1212.41 78.8261L1206.61 76.2097L1207.37 75.1814C1208.53 73.6209 1210.14 70.5706 1210.79 68.7216C1211.49 66.7366 1212.17 63.3631 1212.06 62.4786C1211.98 61.929 1211.89 61.7869 1211.37 61.4464L1210.77 61.0516L1201.19 63.5737L1191.61 66.0957L1190.03 60.2091L1188.46 54.3225L1205.02 49.8831L1221.59 45.4436L1221.81 45.8827ZM1169.35 77.2729C1171.45 79.7189 1175.31 82.3337 1178.63 83.5656C1184.18 85.624 1189.27 85.7718 1194.86 84.0371C1198.12 83.026 1200.73 81.6244 1203.25 79.5301C1204.04 78.871 1204.26 78.7543 1204.54 78.8408C1205.04 78.993 1216.04 83.9776 1216.19 84.1189C1216.34 84.2653 1214.66 86.1565 1212.97 87.7373C1209.68 90.8182 1205.91 93.2244 1201.36 95.1558C1199.7 95.8631 1194.68 97.2059 1192.8 97.4472C1183.27 98.6718 1174.06 96.5225 1166.44 91.2932C1164.48 89.9453 1161.34 87.2987 1161.36 87.0096C1161.37 86.8369 1168.58 76.7162 1168.73 76.6675C1168.77 76.6521 1169.05 76.9246 1169.35 77.2729Z" fill="#8A86B2"/>
</svg>
