<svg width="545" height="340" viewBox="0 0 545 340" fill="none" xmlns="http://www.w3.org/2000/svg">
<rect x="0.75" y="0.75" width="458.5" height="289.5" rx="11.25" fill="white" stroke="#111111" stroke-width="1.5"/>
<path d="M405.804 208.56H404.964V207.12C404.036 207.032 403.24 206.8 402.576 206.424V205.416C403.416 205.928 404.392 206.184 405.504 206.184C406.864 206.184 407.544 205.768 407.544 204.936C407.544 204.632 407.452 204.376 407.268 204.168C407.092 203.952 406.856 203.784 406.56 203.664C406.272 203.544 405.952 203.436 405.6 203.34C405.248 203.244 404.896 203.14 404.544 203.028C404.192 202.908 403.868 202.772 403.572 202.62C403.284 202.46 403.048 202.236 402.864 201.948C402.688 201.66 402.6 201.316 402.6 200.916C402.6 200.284 402.82 199.78 403.26 199.404C403.7 199.028 404.268 198.8 404.964 198.72V197.28H405.804V198.708C406.676 198.756 407.416 198.956 408.024 199.308V200.316C407.32 199.86 406.496 199.64 405.552 199.656C404.264 199.656 403.62 200.064 403.62 200.88C403.62 201.168 403.708 201.412 403.884 201.612C404.068 201.812 404.304 201.968 404.592 202.08C404.888 202.192 405.212 202.296 405.564 202.392C405.916 202.48 406.268 202.584 406.62 202.704C406.972 202.824 407.292 202.964 407.58 203.124C407.876 203.284 408.112 203.512 408.288 203.808C408.472 204.104 408.564 204.456 408.564 204.864C408.564 205.616 408.308 206.18 407.796 206.556C407.284 206.924 406.62 207.12 405.804 207.144V208.56ZM411.72 205.98C411.112 205.204 410.808 204.184 410.808 202.92C410.808 201.656 411.112 200.636 411.72 199.86C412.328 199.084 413.224 198.696 414.408 198.696C415.6 198.696 416.5 199.084 417.108 199.86C417.716 200.628 418.02 201.648 418.02 202.92C418.02 204.192 417.716 205.216 417.108 205.992C416.5 206.76 415.6 207.144 414.408 207.144C413.224 207.144 412.328 206.756 411.72 205.98ZM416.352 205.344C416.784 204.776 417 203.968 417 202.92C417 201.872 416.784 201.068 416.352 200.508C415.928 199.94 415.28 199.656 414.408 199.656C413.536 199.656 412.888 199.94 412.464 200.508C412.04 201.068 411.828 201.872 411.828 202.92C411.828 203.968 412.04 204.776 412.464 205.344C412.888 205.904 413.536 206.184 414.408 206.184C415.28 206.184 415.928 205.904 416.352 205.344Z" fill="#111111"/>
<path d="M34.804 280.56H33.964V279.12C33.036 279.032 32.24 278.8 31.576 278.424V277.416C32.416 277.928 33.392 278.184 34.504 278.184C35.864 278.184 36.544 277.768 36.544 276.936C36.544 276.632 36.452 276.376 36.268 276.168C36.092 275.952 35.856 275.784 35.56 275.664C35.272 275.544 34.952 275.436 34.6 275.34C34.248 275.244 33.896 275.14 33.544 275.028C33.192 274.908 32.868 274.772 32.572 274.62C32.284 274.46 32.048 274.236 31.864 273.948C31.688 273.66 31.6 273.316 31.6 272.916C31.6 272.284 31.82 271.78 32.26 271.404C32.7 271.028 33.268 270.8 33.964 270.72V269.28H34.804V270.708C35.676 270.756 36.416 270.956 37.024 271.308V272.316C36.32 271.86 35.496 271.64 34.552 271.656C33.264 271.656 32.62 272.064 32.62 272.88C32.62 273.168 32.708 273.412 32.884 273.612C33.068 273.812 33.304 273.968 33.592 274.08C33.888 274.192 34.212 274.296 34.564 274.392C34.916 274.48 35.268 274.584 35.62 274.704C35.972 274.824 36.292 274.964 36.58 275.124C36.876 275.284 37.112 275.512 37.288 275.808C37.472 276.104 37.564 276.456 37.564 276.864C37.564 277.616 37.308 278.18 36.796 278.556C36.284 278.924 35.62 279.12 34.804 279.144V280.56ZM48.1364 270.84H49.2284V276.252H50.7644V277.188H49.2284V279H48.2324V277.188H43.6844V276.288L48.1364 270.84ZM48.2324 276.252V272.196L44.9204 276.252H48.2324ZM53.4468 270.84H58.3428V271.8H54.3948L54.2508 274.104C54.6828 273.984 55.1468 273.924 55.6428 273.924C56.0508 273.924 56.4308 273.972 56.7828 274.068C57.1348 274.156 57.4588 274.3 57.7548 274.5C58.0588 274.692 58.2988 274.964 58.4748 275.316C58.6508 275.66 58.7388 276.068 58.7388 276.54C58.7388 277.348 58.4388 277.984 57.8388 278.448C57.2468 278.912 56.4908 279.144 55.5708 279.144C54.5788 279.144 53.7068 278.96 52.9548 278.592V277.632C53.6748 278.016 54.5068 278.208 55.4508 278.208C56.1388 278.208 56.6868 278.064 57.0948 277.776C57.5108 277.488 57.7188 277.076 57.7188 276.54C57.7188 275.404 56.9108 274.836 55.2948 274.836C54.5908 274.836 53.8868 274.964 53.1828 275.22L53.4468 270.84ZM61.992 277.98C61.384 277.204 61.08 276.184 61.08 274.92C61.08 273.656 61.384 272.636 61.992 271.86C62.6 271.084 63.496 270.696 64.68 270.696C65.872 270.696 66.772 271.084 67.38 271.86C67.988 272.628 68.292 273.648 68.292 274.92C68.292 276.192 67.988 277.216 67.38 277.992C66.772 278.76 65.872 279.144 64.68 279.144C63.496 279.144 62.6 278.756 61.992 277.98ZM66.624 277.344C67.056 276.776 67.272 275.968 67.272 274.92C67.272 273.872 67.056 273.068 66.624 272.508C66.2 271.94 65.552 271.656 64.68 271.656C63.808 271.656 63.16 271.94 62.736 272.508C62.312 273.068 62.1 273.872 62.1 274.92C62.1 275.968 62.312 276.776 62.736 277.344C63.16 277.904 63.808 278.184 64.68 278.184C65.552 278.184 66.2 277.904 66.624 277.344Z" fill="#888888"/>
<path d="M178.804 279.56H177.964V278.12C177.036 278.032 176.24 277.8 175.576 277.424V276.416C176.416 276.928 177.392 277.184 178.504 277.184C179.864 277.184 180.544 276.768 180.544 275.936C180.544 275.632 180.452 275.376 180.268 275.168C180.092 274.952 179.856 274.784 179.56 274.664C179.272 274.544 178.952 274.436 178.6 274.34C178.248 274.244 177.896 274.14 177.544 274.028C177.192 273.908 176.868 273.772 176.572 273.62C176.284 273.46 176.048 273.236 175.864 272.948C175.688 272.66 175.6 272.316 175.6 271.916C175.6 271.284 175.82 270.78 176.26 270.404C176.7 270.028 177.268 269.8 177.964 269.72V268.28H178.804V269.708C179.676 269.756 180.416 269.956 181.024 270.308V271.316C180.32 270.86 179.496 270.64 178.552 270.656C177.264 270.656 176.62 271.064 176.62 271.88C176.62 272.168 176.708 272.412 176.884 272.612C177.068 272.812 177.304 272.968 177.592 273.08C177.888 273.192 178.212 273.296 178.564 273.392C178.916 273.48 179.268 273.584 179.62 273.704C179.972 273.824 180.292 273.964 180.58 274.124C180.876 274.284 181.112 274.512 181.288 274.808C181.472 275.104 181.564 275.456 181.564 275.864C181.564 276.616 181.308 277.18 180.796 277.556C180.284 277.924 179.62 278.12 178.804 278.144V279.56ZM188.512 269.84H193.408V270.8H189.46L189.316 273.104C189.748 272.984 190.212 272.924 190.708 272.924C191.116 272.924 191.496 272.972 191.848 273.068C192.2 273.156 192.524 273.3 192.82 273.5C193.124 273.692 193.364 273.964 193.54 274.316C193.716 274.66 193.804 275.068 193.804 275.54C193.804 276.348 193.504 276.984 192.904 277.448C192.312 277.912 191.556 278.144 190.636 278.144C189.644 278.144 188.772 277.96 188.02 277.592V276.632C188.74 277.016 189.572 277.208 190.516 277.208C191.204 277.208 191.752 277.064 192.16 276.776C192.576 276.488 192.784 276.076 192.784 275.54C192.784 274.404 191.976 273.836 190.36 273.836C189.656 273.836 188.952 273.964 188.248 274.22L188.512 269.84ZM196.662 269.84H201.558V270.8H197.61L197.466 273.104C197.898 272.984 198.362 272.924 198.858 272.924C199.266 272.924 199.646 272.972 199.998 273.068C200.35 273.156 200.674 273.3 200.97 273.5C201.274 273.692 201.514 273.964 201.69 274.316C201.866 274.66 201.954 275.068 201.954 275.54C201.954 276.348 201.654 276.984 201.054 277.448C200.462 277.912 199.706 278.144 198.786 278.144C197.794 278.144 196.922 277.96 196.17 277.592V276.632C196.89 277.016 197.722 277.208 198.666 277.208C199.354 277.208 199.902 277.064 200.31 276.776C200.726 276.488 200.934 276.076 200.934 275.54C200.934 274.404 200.126 273.836 198.51 273.836C197.806 273.836 197.102 273.964 196.398 274.22L196.662 269.84ZM205.207 276.98C204.599 276.204 204.295 275.184 204.295 273.92C204.295 272.656 204.599 271.636 205.207 270.86C205.815 270.084 206.711 269.696 207.895 269.696C209.087 269.696 209.987 270.084 210.595 270.86C211.203 271.628 211.507 272.648 211.507 273.92C211.507 275.192 211.203 276.216 210.595 276.992C209.987 277.76 209.087 278.144 207.895 278.144C206.711 278.144 205.815 277.756 205.207 276.98ZM209.839 276.344C210.271 275.776 210.487 274.968 210.487 273.92C210.487 272.872 210.271 272.068 209.839 271.508C209.415 270.94 208.767 270.656 207.895 270.656C207.023 270.656 206.375 270.94 205.951 271.508C205.527 272.068 205.315 272.872 205.315 273.92C205.315 274.968 205.527 275.776 205.951 276.344C206.375 276.904 207.023 277.184 207.895 277.184C208.767 277.184 209.415 276.904 209.839 276.344Z" fill="#888888"/>
<path d="M405.804 55.56H404.964V54.12C404.036 54.032 403.24 53.8 402.576 53.424V52.416C403.416 52.928 404.392 53.184 405.504 53.184C406.864 53.184 407.544 52.768 407.544 51.936C407.544 51.632 407.452 51.376 407.268 51.168C407.092 50.952 406.856 50.784 406.56 50.664C406.272 50.544 405.952 50.436 405.6 50.34C405.248 50.244 404.896 50.14 404.544 50.028C404.192 49.908 403.868 49.772 403.572 49.62C403.284 49.46 403.048 49.236 402.864 48.948C402.688 48.66 402.6 48.316 402.6 47.916C402.6 47.284 402.82 46.78 403.26 46.404C403.7 46.028 404.268 45.8 404.964 45.72V44.28H405.804V45.708C406.676 45.756 407.416 45.956 408.024 46.308V47.316C407.32 46.86 406.496 46.64 405.552 46.656C404.264 46.656 403.62 47.064 403.62 47.88C403.62 48.168 403.708 48.412 403.884 48.612C404.068 48.812 404.304 48.968 404.592 49.08C404.888 49.192 405.212 49.296 405.564 49.392C405.916 49.48 406.268 49.584 406.62 49.704C406.972 49.824 407.292 49.964 407.58 50.124C407.876 50.284 408.112 50.512 408.288 50.808C408.472 51.104 408.564 51.456 408.564 51.864C408.564 52.616 408.308 53.18 407.796 53.556C407.284 53.924 406.62 54.12 405.804 54.144V55.56ZM417 45.84H417.744V53.04H419.268V54H415.02V53.04H416.736V46.908L415.02 47.556V46.596L417 45.84ZM421.773 55.8H420.993L421.653 53.04H422.673L421.773 55.8ZM425.797 52.98C425.189 52.204 424.885 51.184 424.885 49.92C424.885 48.656 425.189 47.636 425.797 46.86C426.405 46.084 427.301 45.696 428.485 45.696C429.677 45.696 430.577 46.084 431.185 46.86C431.793 47.628 432.097 48.648 432.097 49.92C432.097 51.192 431.793 52.216 431.185 52.992C430.577 53.76 429.677 54.144 428.485 54.144C427.301 54.144 426.405 53.756 425.797 52.98ZM430.429 52.344C430.861 51.776 431.077 50.968 431.077 49.92C431.077 48.872 430.861 48.068 430.429 47.508C430.005 46.94 429.357 46.656 428.485 46.656C427.613 46.656 426.965 46.94 426.541 47.508C426.117 48.068 425.905 48.872 425.905 49.92C425.905 50.968 426.117 51.776 426.541 52.344C426.965 52.904 427.613 53.184 428.485 53.184C429.357 53.184 430.005 52.904 430.429 52.344ZM435.434 52.98C434.826 52.204 434.522 51.184 434.522 49.92C434.522 48.656 434.826 47.636 435.434 46.86C436.042 46.084 436.938 45.696 438.122 45.696C439.314 45.696 440.214 46.084 440.822 46.86C441.43 47.628 441.734 48.648 441.734 49.92C441.734 51.192 441.43 52.216 440.822 52.992C440.214 53.76 439.314 54.144 438.122 54.144C436.938 54.144 436.042 53.756 435.434 52.98ZM440.066 52.344C440.498 51.776 440.714 50.968 440.714 49.92C440.714 48.872 440.498 48.068 440.066 47.508C439.642 46.94 438.994 46.656 438.122 46.656C437.25 46.656 436.602 46.94 436.178 47.508C435.754 48.068 435.542 48.872 435.542 49.92C435.542 50.968 435.754 51.776 436.178 52.344C436.602 52.904 437.25 53.184 438.122 53.184C438.994 53.184 439.642 52.904 440.066 52.344ZM445.072 52.98C444.464 52.204 444.16 51.184 444.16 49.92C444.16 48.656 444.464 47.636 445.072 46.86C445.68 46.084 446.576 45.696 447.76 45.696C448.952 45.696 449.852 46.084 450.46 46.86C451.068 47.628 451.372 48.648 451.372 49.92C451.372 51.192 451.068 52.216 450.46 52.992C449.852 53.76 448.952 54.144 447.76 54.144C446.576 54.144 445.68 53.756 445.072 52.98ZM449.704 52.344C450.136 51.776 450.352 50.968 450.352 49.92C450.352 48.872 450.136 48.068 449.704 47.508C449.28 46.94 448.632 46.656 447.76 46.656C446.888 46.656 446.24 46.94 445.816 47.508C445.392 48.068 445.18 48.872 445.18 49.92C445.18 50.968 445.392 51.776 445.816 52.344C446.24 52.904 446.888 53.184 447.76 53.184C448.632 53.184 449.28 52.904 449.704 52.344Z" fill="#111111"/>
<path d="M21.632 26.08H19.888V24.176C18.6613 24.0587 17.5893 23.7387 16.672 23.216V20.928C17.8667 21.7173 19.2053 22.112 20.688 22.112C21.3707 22.112 21.8773 22.032 22.208 21.872C22.5493 21.7013 22.72 21.424 22.72 21.04C22.72 20.7627 22.608 20.5227 22.384 20.32C22.1707 20.1173 21.888 19.9573 21.536 19.84C21.184 19.712 20.7947 19.5893 20.368 19.472C19.9413 19.344 19.5147 19.2 19.088 19.04C18.6613 18.8693 18.272 18.672 17.92 18.448C17.568 18.2133 17.28 17.8933 17.056 17.488C16.8427 17.0827 16.736 16.6133 16.736 16.08C16.736 15.1733 17.024 14.4587 17.6 13.936C18.176 13.4027 18.9387 13.072 19.888 12.944V11.04H21.632V12.96C22.7627 13.0667 23.7067 13.3333 24.464 13.76V16C23.5147 15.3173 22.3627 14.9867 21.008 15.008C19.792 15.0293 19.184 15.376 19.184 16.048C19.184 16.304 19.2907 16.528 19.504 16.72C19.728 16.9013 20.016 17.0507 20.368 17.168C20.7307 17.2853 21.1253 17.4027 21.552 17.52C21.9787 17.6373 22.4 17.7813 22.816 17.952C23.2427 18.1227 23.632 18.3253 23.984 18.56C24.3467 18.784 24.6347 19.0987 24.848 19.504C25.072 19.9093 25.184 20.384 25.184 20.928C25.184 21.9733 24.8587 22.7573 24.208 23.28C23.568 23.8027 22.7093 24.1067 21.632 24.192V26.08ZM33.8584 13.104H40.7704V15.168L36.0184 15.152L35.8744 17.28C36.3864 17.1733 36.8557 17.12 37.2824 17.12C38.4557 17.12 39.4104 17.4027 40.1464 17.968C40.893 18.5333 41.2664 19.408 41.2664 20.592C41.2664 21.7867 40.8237 22.6933 39.9384 23.312C39.053 23.92 37.9597 24.224 36.6584 24.224C35.3357 24.224 34.1677 23.9787 33.1544 23.488V21.264C34.061 21.84 35.1384 22.128 36.3864 22.128C37.133 22.128 37.7304 21.9947 38.1784 21.728C38.637 21.4613 38.8664 21.072 38.8664 20.56C38.8664 19.4933 37.981 18.96 36.2104 18.96C35.2504 18.96 34.3384 19.1147 33.4744 19.424L33.8584 13.104ZM44.8802 13.104H51.7922V15.168L47.0402 15.152L46.8962 17.28C47.4082 17.1733 47.8776 17.12 48.3042 17.12C49.4776 17.12 50.4322 17.4027 51.1682 17.968C51.9149 18.5333 52.2882 19.408 52.2882 20.592C52.2882 21.7867 51.8456 22.6933 50.9602 23.312C50.0749 23.92 48.9816 24.224 47.6802 24.224C46.3576 24.224 45.1896 23.9787 44.1762 23.488V21.264C45.0829 21.84 46.1602 22.128 47.4082 22.128C48.1549 22.128 48.7522 21.9947 49.2002 21.728C49.6589 21.4613 49.8882 21.072 49.8882 20.56C49.8882 19.4933 49.0029 18.96 47.2322 18.96C46.2722 18.96 45.3602 19.1147 44.4962 19.424L44.8802 13.104ZM56.3981 22.656C55.5768 21.6 55.1661 20.2347 55.1661 18.56C55.1661 16.8853 55.5768 15.5253 56.3981 14.48C57.2301 13.424 58.4728 12.896 60.1261 12.896C61.7795 12.896 63.0168 13.424 63.8381 14.48C64.6701 15.5253 65.0861 16.8853 65.0861 18.56C65.0861 20.2347 64.6701 21.6 63.8381 22.656C63.0168 23.7013 61.7795 24.224 60.1261 24.224C58.4728 24.224 57.2301 23.7013 56.3981 22.656ZM60.1261 22.112C61.8328 22.112 62.6861 20.928 62.6861 18.56C62.6861 16.192 61.8328 15.008 60.1261 15.008C58.4195 15.008 57.5661 16.192 57.5661 18.56C57.5661 20.928 58.4195 22.112 60.1261 22.112Z" fill="#111111"/>
<path d="M79.008 37.56H77.952V36.132C77.024 36.028 76.224 35.792 75.552 35.424V34.08C76.416 34.632 77.404 34.908 78.516 34.908C79.724 34.908 80.328 34.56 80.328 33.864C80.328 33.56 80.208 33.308 79.968 33.108C79.736 32.9 79.444 32.748 79.092 32.652C78.748 32.556 78.368 32.44 77.952 32.304C77.544 32.168 77.164 32.024 76.812 31.872C76.468 31.72 76.176 31.484 75.936 31.164C75.704 30.836 75.588 30.44 75.588 29.976C75.588 29.32 75.804 28.8 76.236 28.416C76.676 28.032 77.248 27.8 77.952 27.72V26.28H79.008V27.708C79.88 27.772 80.604 27.976 81.18 28.32V29.628C80.468 29.148 79.628 28.916 78.66 28.932C77.54 28.932 76.98 29.272 76.98 29.952C76.98 30.232 77.096 30.468 77.328 30.66C77.568 30.852 77.86 30.996 78.204 31.092C78.556 31.18 78.936 31.292 79.344 31.428C79.76 31.564 80.14 31.712 80.484 31.872C80.836 32.024 81.128 32.264 81.36 32.592C81.6 32.92 81.72 33.32 81.72 33.792C81.72 34.552 81.472 35.124 80.976 35.508C80.48 35.884 79.824 36.096 79.008 36.144V37.56ZM91.9929 27.84H93.3969V33.144H94.8009V34.332H93.3969V36H92.0769V34.332H87.6489V33.168L91.9929 27.84ZM92.0769 33.144V29.58L89.1729 33.144H92.0769ZM97.4579 27.84H102.486V29.064H98.7179L98.5979 31.032C98.9899 30.936 99.4019 30.888 99.8339 30.888C100.706 30.888 101.43 31.1 102.006 31.524C102.582 31.94 102.87 32.596 102.87 33.492C102.87 34.34 102.554 34.996 101.922 35.46C101.298 35.924 100.514 36.156 99.5699 36.156C98.5859 36.156 97.7139 35.972 96.9539 35.604V34.32C97.6419 34.72 98.4619 34.92 99.4139 34.92C100.038 34.92 100.538 34.796 100.914 34.548C101.298 34.3 101.49 33.944 101.49 33.48C101.49 32.504 100.75 32.016 99.2699 32.016C98.5819 32.016 97.8899 32.136 97.1939 32.376L97.4579 27.84ZM106.062 34.992C105.446 34.208 105.138 33.184 105.138 31.92C105.138 30.656 105.446 29.636 106.062 28.86C106.678 28.076 107.59 27.684 108.798 27.684C110.006 27.684 110.918 28.076 111.534 28.86C112.15 29.636 112.458 30.656 112.458 31.92C112.458 33.184 112.15 34.208 111.534 34.992C110.918 35.768 110.006 36.156 108.798 36.156C107.59 36.156 106.678 35.768 106.062 34.992ZM108.798 34.908C110.318 34.908 111.078 33.912 111.078 31.92C111.078 29.928 110.318 28.932 108.798 28.932C107.278 28.932 106.518 29.928 106.518 31.92C106.518 33.912 107.278 34.908 108.798 34.908Z" fill="#111111"/>
<rect x="16" y="30" width="48" height="7" fill="#FAFF00"/>
<rect x="31" y="248" width="86" height="9" rx="3" fill="#FAFF00"/>
<rect x="171" y="248" width="86" height="9" rx="3" fill="#FAFF00"/>
<path d="M237 117C240.065 115.782 308.011 77.6629 322.826 69.0341L350.413 56.4716L378 50" stroke="#888888" stroke-width="2" stroke-dasharray="9 9"/>
<path d="M35 206L99.9149 158.717L146.883 141.317L214.471 137.157L237 119V206H35Z" fill="url(#paint0_linear_1:1155)"/>
<path d="M34 207L98.9149 159.174L146.265 141.574L213.471 137.365L236 119" stroke="#FAFF00" stroke-width="1.5"/>
<path d="M236.384 118.793L323.886 69.4889L350.368 57.5481L378 51V207H236L236.384 118.793Z" fill="url(#paint1_linear_1:1155)"/>
<path d="M33.616 212.84H34.36V220.04H35.884V221H31.636V220.04H33.352V213.908L31.636 214.556V213.596L33.616 212.84Z" fill="#111111"/>
<path d="M81.128 212.84H86.024V213.8H82.076L81.932 216.104C82.364 215.984 82.828 215.924 83.324 215.924C83.732 215.924 84.112 215.972 84.464 216.068C84.816 216.156 85.14 216.3 85.436 216.5C85.74 216.692 85.98 216.964 86.156 217.316C86.332 217.66 86.42 218.068 86.42 218.54C86.42 219.348 86.12 219.984 85.52 220.448C84.928 220.912 84.172 221.144 83.252 221.144C82.26 221.144 81.388 220.96 80.636 220.592V219.632C81.356 220.016 82.188 220.208 83.132 220.208C83.82 220.208 84.368 220.064 84.776 219.776C85.192 219.488 85.4 219.076 85.4 218.54C85.4 217.404 84.592 216.836 82.976 216.836C82.272 216.836 81.568 216.964 80.864 217.22L81.128 212.84Z" fill="#111111"/>
<path d="M133.616 212.84H134.36V220.04H135.884V221H131.636V220.04H133.352V213.908L131.636 214.556V213.596L133.616 212.84ZM138.88 219.98C138.272 219.204 137.968 218.184 137.968 216.92C137.968 215.656 138.272 214.636 138.88 213.86C139.488 213.084 140.384 212.696 141.568 212.696C142.76 212.696 143.66 213.084 144.268 213.86C144.876 214.628 145.18 215.648 145.18 216.92C145.18 218.192 144.876 219.216 144.268 219.992C143.66 220.76 142.76 221.144 141.568 221.144C140.384 221.144 139.488 220.756 138.88 219.98ZM143.512 219.344C143.944 218.776 144.16 217.968 144.16 216.92C144.16 215.872 143.944 215.068 143.512 214.508C143.088 213.94 142.44 213.656 141.568 213.656C140.696 213.656 140.048 213.94 139.624 214.508C139.2 215.068 138.988 215.872 138.988 216.92C138.988 217.968 139.2 218.776 139.624 219.344C140.048 219.904 140.696 220.184 141.568 220.184C142.44 220.184 143.088 219.904 143.512 219.344Z" fill="#111111"/>
<path d="M192.616 212.84H193.36V220.04H194.884V221H190.636V220.04H192.352V213.908L190.636 214.556V213.596L192.616 212.84ZM197.484 212.84H202.38V213.8H198.432L198.288 216.104C198.72 215.984 199.184 215.924 199.68 215.924C200.088 215.924 200.468 215.972 200.82 216.068C201.172 216.156 201.496 216.3 201.792 216.5C202.096 216.692 202.336 216.964 202.512 217.316C202.688 217.66 202.776 218.068 202.776 218.54C202.776 219.348 202.476 219.984 201.876 220.448C201.284 220.912 200.528 221.144 199.608 221.144C198.616 221.144 197.744 220.96 196.992 220.592V219.632C197.712 220.016 198.544 220.208 199.488 220.208C200.176 220.208 200.724 220.064 201.132 219.776C201.548 219.488 201.756 219.076 201.756 218.54C201.756 217.404 200.948 216.836 199.332 216.836C198.628 216.836 197.924 216.964 197.22 217.22L197.484 212.84Z" fill="#111111"/>
<path d="M248.816 213.488C249.576 212.96 250.448 212.696 251.432 212.696C252.28 212.696 252.956 212.888 253.46 213.272C253.964 213.656 254.216 214.192 254.216 214.88C254.216 215.208 254.152 215.516 254.024 215.804C253.904 216.092 253.72 216.356 253.472 216.596C253.232 216.836 252.996 217.04 252.764 217.208C252.54 217.368 252.256 217.548 251.912 217.748C251.872 217.772 251.748 217.844 251.54 217.964C251.34 218.084 251.212 218.16 251.156 218.192C251.108 218.224 250.996 218.296 250.82 218.408C250.652 218.512 250.54 218.588 250.484 218.636C250.436 218.684 250.348 218.76 250.22 218.864C250.1 218.968 250.016 219.056 249.968 219.128C249.928 219.2 249.872 219.292 249.8 219.404C249.736 219.508 249.692 219.612 249.668 219.716C249.644 219.82 249.632 219.932 249.632 220.052L254.276 220.04V221H248.528V220.52C248.528 220.072 248.6 219.668 248.744 219.308C248.888 218.94 249.092 218.628 249.356 218.372C249.628 218.108 249.896 217.888 250.16 217.712C250.424 217.528 250.732 217.332 251.084 217.124C251.164 217.084 251.224 217.052 251.264 217.028C251.992 216.604 252.468 216.28 252.692 216.056C253.036 215.704 253.208 215.308 253.208 214.868C253.208 214.468 253.044 214.164 252.716 213.956C252.396 213.74 251.94 213.632 251.348 213.632C250.484 213.632 249.64 213.92 248.816 214.496V213.488ZM257.615 219.98C257.007 219.204 256.703 218.184 256.703 216.92C256.703 215.656 257.007 214.636 257.615 213.86C258.223 213.084 259.119 212.696 260.303 212.696C261.495 212.696 262.395 213.084 263.003 213.86C263.611 214.628 263.915 215.648 263.915 216.92C263.915 218.192 263.611 219.216 263.003 219.992C262.395 220.76 261.495 221.144 260.303 221.144C259.119 221.144 258.223 220.756 257.615 219.98ZM262.247 219.344C262.679 218.776 262.895 217.968 262.895 216.92C262.895 215.872 262.679 215.068 262.247 214.508C261.823 213.94 261.175 213.656 260.303 213.656C259.431 213.656 258.783 213.94 258.359 214.508C257.935 215.068 257.723 215.872 257.723 216.92C257.723 217.968 257.935 218.776 258.359 219.344C258.783 219.904 259.431 220.184 260.303 220.184C261.175 220.184 261.823 219.904 262.247 219.344Z" fill="#111111"/>
<path d="M309.816 213.488C310.576 212.96 311.448 212.696 312.432 212.696C313.28 212.696 313.956 212.888 314.46 213.272C314.964 213.656 315.216 214.192 315.216 214.88C315.216 215.208 315.152 215.516 315.024 215.804C314.904 216.092 314.72 216.356 314.472 216.596C314.232 216.836 313.996 217.04 313.764 217.208C313.54 217.368 313.256 217.548 312.912 217.748C312.872 217.772 312.748 217.844 312.54 217.964C312.34 218.084 312.212 218.16 312.156 218.192C312.108 218.224 311.996 218.296 311.82 218.408C311.652 218.512 311.54 218.588 311.484 218.636C311.436 218.684 311.348 218.76 311.22 218.864C311.1 218.968 311.016 219.056 310.968 219.128C310.928 219.2 310.872 219.292 310.8 219.404C310.736 219.508 310.692 219.612 310.668 219.716C310.644 219.82 310.632 219.932 310.632 220.052L315.276 220.04V221H309.528V220.52C309.528 220.072 309.6 219.668 309.744 219.308C309.888 218.94 310.092 218.628 310.356 218.372C310.628 218.108 310.896 217.888 311.16 217.712C311.424 217.528 311.732 217.332 312.084 217.124C312.164 217.084 312.224 217.052 312.264 217.028C312.992 216.604 313.468 216.28 313.692 216.056C314.036 215.704 314.208 215.308 314.208 214.868C314.208 214.468 314.044 214.164 313.716 213.956C313.396 213.74 312.94 213.632 312.348 213.632C311.484 213.632 310.64 213.92 309.816 214.496V213.488ZM318.219 212.84H323.115V213.8H319.167L319.023 216.104C319.455 215.984 319.919 215.924 320.415 215.924C320.823 215.924 321.203 215.972 321.555 216.068C321.907 216.156 322.231 216.3 322.527 216.5C322.831 216.692 323.071 216.964 323.247 217.316C323.423 217.66 323.511 218.068 323.511 218.54C323.511 219.348 323.211 219.984 322.611 220.448C322.019 220.912 321.263 221.144 320.343 221.144C319.351 221.144 318.479 220.96 317.727 220.592V219.632C318.447 220.016 319.279 220.208 320.223 220.208C320.911 220.208 321.459 220.064 321.867 219.776C322.283 219.488 322.491 219.076 322.491 218.54C322.491 217.404 321.683 216.836 320.067 216.836C319.363 216.836 318.659 216.964 317.955 217.22L318.219 212.84Z" fill="#111111"/>
<path d="M375.12 214.916C375.12 215.332 375.008 215.708 374.784 216.044C374.568 216.372 374.284 216.596 373.932 216.716C374.348 216.844 374.704 217.08 375 217.424C375.304 217.76 375.456 218.212 375.456 218.78C375.456 219.54 375.172 220.124 374.604 220.532C374.044 220.94 373.332 221.144 372.468 221.144C371.372 221.144 370.424 220.964 369.624 220.604V219.608C370.4 220.008 371.32 220.204 372.384 220.196C373.784 220.196 374.484 219.708 374.484 218.732C374.484 217.756 373.82 217.268 372.492 217.268H371.244V216.308L372.384 216.32C372.96 216.32 373.396 216.2 373.692 215.96C373.996 215.712 374.148 215.392 374.148 215C374.148 214.576 373.98 214.244 373.644 214.004C373.308 213.756 372.832 213.632 372.216 213.632C371.368 213.632 370.552 213.84 369.768 214.256V213.272C370.52 212.888 371.38 212.696 372.348 212.696C373.18 212.696 373.848 212.9 374.352 213.308C374.864 213.716 375.12 214.252 375.12 214.916ZM379.859 212.84H380.603V220.04H382.127V221H377.879V220.04H379.595V213.908L377.879 214.556V213.596L379.859 212.84Z" fill="#111111"/>
<path d="M386 50L34 50" stroke="#888888" stroke-dasharray="4 4"/>
<circle cx="445" cy="240" r="100" fill="white"/>
<g clip-path="url(#clip0_1:1155)">
<path fill-rule="evenodd" clip-rule="evenodd" d="M545.005 246.666C543.425 268.626 531.302 292 520.005 306.666L458.338 246.666H545.005Z" fill="#111111"/>
<path fill-rule="evenodd" clip-rule="evenodd" d="M506.44 319.107C491.617 330.573 473.875 337.652 455.229 339.536C436.584 341.421 417.784 338.037 400.966 329.768C384.148 321.5 369.988 308.679 360.094 292.762C350.201 276.846 344.971 258.474 345 239.733C345 187.4 383.267 144.613 438.333 140V246.667L506.44 319.107Z" fill="#FAFF00"/>
<path fill-rule="evenodd" clip-rule="evenodd" d="M451.67 140C475.894 141.609 498.71 151.959 515.877 169.126C533.044 186.293 543.394 209.109 545.003 233.333H451.67V140Z" fill="#3E1BDB"/>
</g>
<defs>
<linearGradient id="paint0_linear_1:1155" x1="153.374" y1="118.622" x2="153.374" y2="201.083" gradientUnits="userSpaceOnUse">
<stop stop-color="#FAFF00"/>
<stop offset="0.974881" stop-color="#C7EFDA" stop-opacity="0"/>
</linearGradient>
<linearGradient id="paint1_linear_1:1155" x1="307" y1="82.5852" x2="307" y2="207" gradientUnits="userSpaceOnUse">
<stop offset="0.00586964" stop-color="#F3EBEB"/>
<stop offset="1" stop-color="#C4C4C4" stop-opacity="0"/>
</linearGradient>
<clipPath id="clip0_1:1155">
<rect width="200" height="200" fill="white" transform="translate(345 140)"/>
</clipPath>
</defs>
</svg>
