<svg width="545" height="340" viewBox="0 0 545 340" fill="none" xmlns="http://www.w3.org/2000/svg">
<rect x="0.75" y="0.75" width="458.5" height="289.5" rx="11.25" fill="white" stroke="#111111" stroke-width="1.5"/>
<path d="M405.804 208.56H404.964V207.12C404.036 207.032 403.24 206.8 402.576 206.424V205.416C403.416 205.928 404.392 206.184 405.504 206.184C406.864 206.184 407.544 205.768 407.544 204.936C407.544 204.632 407.452 204.376 407.268 204.168C407.092 203.952 406.856 203.784 406.56 203.664C406.272 203.544 405.952 203.436 405.6 203.34C405.248 203.244 404.896 203.14 404.544 203.028C404.192 202.908 403.868 202.772 403.572 202.62C403.284 202.46 403.048 202.236 402.864 201.948C402.688 201.66 402.6 201.316 402.6 200.916C402.6 200.284 402.82 199.78 403.26 199.404C403.7 199.028 404.268 198.8 404.964 198.72V197.28H405.804V198.708C406.676 198.756 407.416 198.956 408.024 199.308V200.316C407.32 199.86 406.496 199.64 405.552 199.656C404.264 199.656 403.62 200.064 403.62 200.88C403.62 201.168 403.708 201.412 403.884 201.612C404.068 201.812 404.304 201.968 404.592 202.08C404.888 202.192 405.212 202.296 405.564 202.392C405.916 202.48 406.268 202.584 406.62 202.704C406.972 202.824 407.292 202.964 407.58 203.124C407.876 203.284 408.112 203.512 408.288 203.808C408.472 204.104 408.564 204.456 408.564 204.864C408.564 205.616 408.308 206.18 407.796 206.556C407.284 206.924 406.62 207.12 405.804 207.144V208.56ZM411.72 205.98C411.112 205.204 410.808 204.184 410.808 202.92C410.808 201.656 411.112 200.636 411.72 199.86C412.328 199.084 413.224 198.696 414.408 198.696C415.6 198.696 416.5 199.084 417.108 199.86C417.716 200.628 418.02 201.648 418.02 202.92C418.02 204.192 417.716 205.216 417.108 205.992C416.5 206.76 415.6 207.144 414.408 207.144C413.224 207.144 412.328 206.756 411.72 205.98ZM416.352 205.344C416.784 204.776 417 203.968 417 202.92C417 201.872 416.784 201.068 416.352 200.508C415.928 199.94 415.28 199.656 414.408 199.656C413.536 199.656 412.888 199.94 412.464 200.508C412.04 201.068 411.828 201.872 411.828 202.92C411.828 203.968 412.04 204.776 412.464 205.344C412.888 205.904 413.536 206.184 414.408 206.184C415.28 206.184 415.928 205.904 416.352 205.344Z" fill="#111111"/>
<path d="M34.804 280.56H33.964V279.12C33.036 279.032 32.24 278.8 31.576 278.424V277.416C32.416 277.928 33.392 278.184 34.504 278.184C35.864 278.184 36.544 277.768 36.544 276.936C36.544 276.632 36.452 276.376 36.268 276.168C36.092 275.952 35.856 275.784 35.56 275.664C35.272 275.544 34.952 275.436 34.6 275.34C34.248 275.244 33.896 275.14 33.544 275.028C33.192 274.908 32.868 274.772 32.572 274.62C32.284 274.46 32.048 274.236 31.864 273.948C31.688 273.66 31.6 273.316 31.6 272.916C31.6 272.284 31.82 271.78 32.26 271.404C32.7 271.028 33.268 270.8 33.964 270.72V269.28H34.804V270.708C35.676 270.756 36.416 270.956 37.024 271.308V272.316C36.32 271.86 35.496 271.64 34.552 271.656C33.264 271.656 32.62 272.064 32.62 272.88C32.62 273.168 32.708 273.412 32.884 273.612C33.068 273.812 33.304 273.968 33.592 274.08C33.888 274.192 34.212 274.296 34.564 274.392C34.916 274.48 35.268 274.584 35.62 274.704C35.972 274.824 36.292 274.964 36.58 275.124C36.876 275.284 37.112 275.512 37.288 275.808C37.472 276.104 37.564 276.456 37.564 276.864C37.564 277.616 37.308 278.18 36.796 278.556C36.284 278.924 35.62 279.12 34.804 279.144V280.56ZM43.9481 270.84H45.0401V276.252H46.5761V277.188H45.0401V279H44.0441V277.188H39.4961V276.288L43.9481 270.84ZM44.0441 276.252V272.196L40.7321 276.252H44.0441ZM49.2585 270.84H54.1545V271.8H50.2065L50.0625 274.104C50.4945 273.984 50.9585 273.924 51.4545 273.924C51.8625 273.924 52.2425 273.972 52.5945 274.068C52.9465 274.156 53.2705 274.3 53.5665 274.5C53.8705 274.692 54.1105 274.964 54.2865 275.316C54.4625 275.66 54.5505 276.068 54.5505 276.54C54.5505 277.348 54.2505 277.984 53.6505 278.448C53.0585 278.912 52.3025 279.144 51.3825 279.144C50.3905 279.144 49.5185 278.96 48.7665 278.592V277.632C49.4865 278.016 50.3185 278.208 51.2625 278.208C51.9505 278.208 52.4985 278.064 52.9065 277.776C53.3225 277.488 53.5305 277.076 53.5305 276.54C53.5305 275.404 52.7225 274.836 51.1065 274.836C50.4025 274.836 49.6985 274.964 48.9945 275.22L49.2585 270.84ZM57.8037 277.98C57.1957 277.204 56.8917 276.184 56.8917 274.92C56.8917 273.656 57.1957 272.636 57.8037 271.86C58.4117 271.084 59.3077 270.696 60.4917 270.696C61.6837 270.696 62.5837 271.084 63.1917 271.86C63.7997 272.628 64.1037 273.648 64.1037 274.92C64.1037 276.192 63.7997 277.216 63.1917 277.992C62.5837 278.76 61.6837 279.144 60.4917 279.144C59.3077 279.144 58.4117 278.756 57.8037 277.98ZM62.4357 277.344C62.8677 276.776 63.0837 275.968 63.0837 274.92C63.0837 273.872 62.8677 273.068 62.4357 272.508C62.0117 271.94 61.3637 271.656 60.4917 271.656C59.6197 271.656 58.9717 271.94 58.5477 272.508C58.1237 273.068 57.9117 273.872 57.9117 274.92C57.9117 275.968 58.1237 276.776 58.5477 277.344C58.9717 277.904 59.6197 278.184 60.4917 278.184C61.3637 278.184 62.0117 277.904 62.4357 277.344Z" fill="#888888"/>
<path d="M178.804 279.56H177.964V278.12C177.036 278.032 176.24 277.8 175.576 277.424V276.416C176.416 276.928 177.392 277.184 178.504 277.184C179.864 277.184 180.544 276.768 180.544 275.936C180.544 275.632 180.452 275.376 180.268 275.168C180.092 274.952 179.856 274.784 179.56 274.664C179.272 274.544 178.952 274.436 178.6 274.34C178.248 274.244 177.896 274.14 177.544 274.028C177.192 273.908 176.868 273.772 176.572 273.62C176.284 273.46 176.048 273.236 175.864 272.948C175.688 272.66 175.6 272.316 175.6 271.916C175.6 271.284 175.82 270.78 176.26 270.404C176.7 270.028 177.268 269.8 177.964 269.72V268.28H178.804V269.708C179.676 269.756 180.416 269.956 181.024 270.308V271.316C180.32 270.86 179.496 270.64 178.552 270.656C177.264 270.656 176.62 271.064 176.62 271.88C176.62 272.168 176.708 272.412 176.884 272.612C177.068 272.812 177.304 272.968 177.592 273.08C177.888 273.192 178.212 273.296 178.564 273.392C178.916 273.48 179.268 273.584 179.62 273.704C179.972 273.824 180.292 273.964 180.58 274.124C180.876 274.284 181.112 274.512 181.288 274.808C181.472 275.104 181.564 275.456 181.564 275.864C181.564 276.616 181.308 277.18 180.796 277.556C180.284 277.924 179.62 278.12 178.804 278.144V279.56ZM184.324 269.84H189.22V270.8H185.272L185.128 273.104C185.56 272.984 186.024 272.924 186.52 272.924C186.928 272.924 187.308 272.972 187.66 273.068C188.012 273.156 188.336 273.3 188.632 273.5C188.936 273.692 189.176 273.964 189.352 274.316C189.528 274.66 189.616 275.068 189.616 275.54C189.616 276.348 189.316 276.984 188.716 277.448C188.124 277.912 187.368 278.144 186.448 278.144C185.456 278.144 184.584 277.96 183.832 277.592V276.632C184.552 277.016 185.384 277.208 186.328 277.208C187.016 277.208 187.564 277.064 187.972 276.776C188.388 276.488 188.596 276.076 188.596 275.54C188.596 274.404 187.788 273.836 186.172 273.836C185.468 273.836 184.764 273.964 184.06 274.22L184.324 269.84ZM192.473 269.84H197.369V270.8H193.421L193.277 273.104C193.709 272.984 194.173 272.924 194.669 272.924C195.077 272.924 195.457 272.972 195.809 273.068C196.161 273.156 196.485 273.3 196.781 273.5C197.085 273.692 197.325 273.964 197.501 274.316C197.677 274.66 197.765 275.068 197.765 275.54C197.765 276.348 197.465 276.984 196.865 277.448C196.273 277.912 195.517 278.144 194.597 278.144C193.605 278.144 192.733 277.96 191.981 277.592V276.632C192.701 277.016 193.533 277.208 194.477 277.208C195.165 277.208 195.713 277.064 196.121 276.776C196.537 276.488 196.745 276.076 196.745 275.54C196.745 274.404 195.937 273.836 194.321 273.836C193.617 273.836 192.913 273.964 192.209 274.22L192.473 269.84ZM201.019 276.98C200.411 276.204 200.107 275.184 200.107 273.92C200.107 272.656 200.411 271.636 201.019 270.86C201.627 270.084 202.523 269.696 203.707 269.696C204.899 269.696 205.799 270.084 206.407 270.86C207.015 271.628 207.319 272.648 207.319 273.92C207.319 275.192 207.015 276.216 206.407 276.992C205.799 277.76 204.899 278.144 203.707 278.144C202.523 278.144 201.627 277.756 201.019 276.98ZM205.651 276.344C206.083 275.776 206.299 274.968 206.299 273.92C206.299 272.872 206.083 272.068 205.651 271.508C205.227 270.94 204.579 270.656 203.707 270.656C202.835 270.656 202.187 270.94 201.763 271.508C201.339 272.068 201.127 272.872 201.127 273.92C201.127 274.968 201.339 275.776 201.763 276.344C202.187 276.904 202.835 277.184 203.707 277.184C204.579 277.184 205.227 276.904 205.651 276.344Z" fill="#888888"/>
<path d="M405.804 55.56H404.964V54.12C404.036 54.032 403.24 53.8 402.576 53.424V52.416C403.416 52.928 404.392 53.184 405.504 53.184C406.864 53.184 407.544 52.768 407.544 51.936C407.544 51.632 407.452 51.376 407.268 51.168C407.092 50.952 406.856 50.784 406.56 50.664C406.272 50.544 405.952 50.436 405.6 50.34C405.248 50.244 404.896 50.14 404.544 50.028C404.192 49.908 403.868 49.772 403.572 49.62C403.284 49.46 403.048 49.236 402.864 48.948C402.688 48.66 402.6 48.316 402.6 47.916C402.6 47.284 402.82 46.78 403.26 46.404C403.7 46.028 404.268 45.8 404.964 45.72V44.28H405.804V45.708C406.676 45.756 407.416 45.956 408.024 46.308V47.316C407.32 46.86 406.496 46.64 405.552 46.656C404.264 46.656 403.62 47.064 403.62 47.88C403.62 48.168 403.708 48.412 403.884 48.612C404.068 48.812 404.304 48.968 404.592 49.08C404.888 49.192 405.212 49.296 405.564 49.392C405.916 49.48 406.268 49.584 406.62 49.704C406.972 49.824 407.292 49.964 407.58 50.124C407.876 50.284 408.112 50.512 408.288 50.808C408.472 51.104 408.564 51.456 408.564 51.864C408.564 52.616 408.308 53.18 407.796 53.556C407.284 53.924 406.62 54.12 405.804 54.144V55.56ZM412.812 45.84H413.556V53.04H415.08V54H410.832V53.04H412.548V46.908L410.832 47.556V46.596L412.812 45.84ZM417.584 55.8H416.804L417.464 53.04H418.484L417.584 55.8ZM421.608 52.98C421 52.204 420.696 51.184 420.696 49.92C420.696 48.656 421 47.636 421.608 46.86C422.216 46.084 423.112 45.696 424.296 45.696C425.488 45.696 426.388 46.084 426.996 46.86C427.604 47.628 427.908 48.648 427.908 49.92C427.908 51.192 427.604 52.216 426.996 52.992C426.388 53.76 425.488 54.144 424.296 54.144C423.112 54.144 422.216 53.756 421.608 52.98ZM426.24 52.344C426.672 51.776 426.888 50.968 426.888 49.92C426.888 48.872 426.672 48.068 426.24 47.508C425.816 46.94 425.168 46.656 424.296 46.656C423.424 46.656 422.776 46.94 422.352 47.508C421.928 48.068 421.716 48.872 421.716 49.92C421.716 50.968 421.928 51.776 422.352 52.344C422.776 52.904 423.424 53.184 424.296 53.184C425.168 53.184 425.816 52.904 426.24 52.344ZM431.246 52.98C430.638 52.204 430.334 51.184 430.334 49.92C430.334 48.656 430.638 47.636 431.246 46.86C431.854 46.084 432.75 45.696 433.934 45.696C435.126 45.696 436.026 46.084 436.634 46.86C437.242 47.628 437.546 48.648 437.546 49.92C437.546 51.192 437.242 52.216 436.634 52.992C436.026 53.76 435.126 54.144 433.934 54.144C432.75 54.144 431.854 53.756 431.246 52.98ZM435.878 52.344C436.31 51.776 436.526 50.968 436.526 49.92C436.526 48.872 436.31 48.068 435.878 47.508C435.454 46.94 434.806 46.656 433.934 46.656C433.062 46.656 432.414 46.94 431.99 47.508C431.566 48.068 431.354 48.872 431.354 49.92C431.354 50.968 431.566 51.776 431.99 52.344C432.414 52.904 433.062 53.184 433.934 53.184C434.806 53.184 435.454 52.904 435.878 52.344ZM440.883 52.98C440.275 52.204 439.971 51.184 439.971 49.92C439.971 48.656 440.275 47.636 440.883 46.86C441.491 46.084 442.387 45.696 443.571 45.696C444.763 45.696 445.663 46.084 446.271 46.86C446.879 47.628 447.183 48.648 447.183 49.92C447.183 51.192 446.879 52.216 446.271 52.992C445.663 53.76 444.763 54.144 443.571 54.144C442.387 54.144 441.491 53.756 440.883 52.98ZM445.515 52.344C445.947 51.776 446.163 50.968 446.163 49.92C446.163 48.872 445.947 48.068 445.515 47.508C445.091 46.94 444.443 46.656 443.571 46.656C442.699 46.656 442.051 46.94 441.627 47.508C441.203 48.068 440.991 48.872 440.991 49.92C440.991 50.968 441.203 51.776 441.627 52.344C442.051 52.904 442.699 53.184 443.571 53.184C444.443 53.184 445.091 52.904 445.515 52.344Z" fill="#111111"/>
<path d="M21.632 26.08H19.888V24.176C18.6613 24.0587 17.5893 23.7387 16.672 23.216V20.928C17.8667 21.7173 19.2053 22.112 20.688 22.112C21.3707 22.112 21.8773 22.032 22.208 21.872C22.5493 21.7013 22.72 21.424 22.72 21.04C22.72 20.7627 22.608 20.5227 22.384 20.32C22.1707 20.1173 21.888 19.9573 21.536 19.84C21.184 19.712 20.7947 19.5893 20.368 19.472C19.9413 19.344 19.5147 19.2 19.088 19.04C18.6613 18.8693 18.272 18.672 17.92 18.448C17.568 18.2133 17.28 17.8933 17.056 17.488C16.8427 17.0827 16.736 16.6133 16.736 16.08C16.736 15.1733 17.024 14.4587 17.6 13.936C18.176 13.4027 18.9387 13.072 19.888 12.944V11.04H21.632V12.96C22.7627 13.0667 23.7067 13.3333 24.464 13.76V16C23.5147 15.3173 22.3627 14.9867 21.008 15.008C19.792 15.0293 19.184 15.376 19.184 16.048C19.184 16.304 19.2907 16.528 19.504 16.72C19.728 16.9013 20.016 17.0507 20.368 17.168C20.7307 17.2853 21.1253 17.4027 21.552 17.52C21.9787 17.6373 22.4 17.7813 22.816 17.952C23.2427 18.1227 23.632 18.3253 23.984 18.56C24.3467 18.784 24.6347 19.0987 24.848 19.504C25.072 19.9093 25.184 20.384 25.184 20.928C25.184 21.9733 24.8587 22.7573 24.208 23.28C23.568 23.8027 22.7093 24.1067 21.632 24.192V26.08ZM28.7115 13.104H35.6235V15.168L30.8715 15.152L30.7275 17.28C31.2395 17.1733 31.7088 17.12 32.1355 17.12C33.3088 17.12 34.2635 17.4027 34.9995 17.968C35.7462 18.5333 36.1195 19.408 36.1195 20.592C36.1195 21.7867 35.6768 22.6933 34.7915 23.312C33.9062 23.92 32.8128 24.224 31.5115 24.224C30.1888 24.224 29.0208 23.9787 28.0075 23.488V21.264C28.9142 21.84 29.9915 22.128 31.2395 22.128C31.9862 22.128 32.5835 21.9947 33.0315 21.728C33.4902 21.4613 33.7195 21.072 33.7195 20.56C33.7195 19.4933 32.8342 18.96 31.0635 18.96C30.1035 18.96 29.1915 19.1147 28.3275 19.424L28.7115 13.104ZM39.7334 13.104H46.6454V15.168L41.8934 15.152L41.7494 17.28C42.2614 17.1733 42.7307 17.12 43.1574 17.12C44.3307 17.12 45.2854 17.4027 46.0214 17.968C46.768 18.5333 47.1414 19.408 47.1414 20.592C47.1414 21.7867 46.6987 22.6933 45.8134 23.312C44.928 23.92 43.8347 24.224 42.5334 24.224C41.2107 24.224 40.0427 23.9787 39.0294 23.488V21.264C39.936 21.84 41.0134 22.128 42.2614 22.128C43.008 22.128 43.6054 21.9947 44.0534 21.728C44.512 21.4613 44.7414 21.072 44.7414 20.56C44.7414 19.4933 43.856 18.96 42.0854 18.96C41.1254 18.96 40.2134 19.1147 39.3494 19.424L39.7334 13.104ZM51.2512 22.656C50.4299 21.6 50.0192 20.2347 50.0192 18.56C50.0192 16.8853 50.4299 15.5253 51.2512 14.48C52.0832 13.424 53.3259 12.896 54.9792 12.896C56.6326 12.896 57.8699 13.424 58.6912 14.48C59.5232 15.5253 59.9392 16.8853 59.9392 18.56C59.9392 20.2347 59.5232 21.6 58.6912 22.656C57.8699 23.7013 56.6326 24.224 54.9792 24.224C53.3259 24.224 52.0832 23.7013 51.2512 22.656ZM54.9792 22.112C56.6859 22.112 57.5392 20.928 57.5392 18.56C57.5392 16.192 56.6859 15.008 54.9792 15.008C53.2726 15.008 52.4192 16.192 52.4192 18.56C52.4192 20.928 53.2726 22.112 54.9792 22.112Z" fill="#111111"/>
<path d="M79.008 37.56H77.952V36.132C77.024 36.028 76.224 35.792 75.552 35.424V34.08C76.416 34.632 77.404 34.908 78.516 34.908C79.724 34.908 80.328 34.56 80.328 33.864C80.328 33.56 80.208 33.308 79.968 33.108C79.736 32.9 79.444 32.748 79.092 32.652C78.748 32.556 78.368 32.44 77.952 32.304C77.544 32.168 77.164 32.024 76.812 31.872C76.468 31.72 76.176 31.484 75.936 31.164C75.704 30.836 75.588 30.44 75.588 29.976C75.588 29.32 75.804 28.8 76.236 28.416C76.676 28.032 77.248 27.8 77.952 27.72V26.28H79.008V27.708C79.88 27.772 80.604 27.976 81.18 28.32V29.628C80.468 29.148 79.628 28.916 78.66 28.932C77.54 28.932 76.98 29.272 76.98 29.952C76.98 30.232 77.096 30.468 77.328 30.66C77.568 30.852 77.86 30.996 78.204 31.092C78.556 31.18 78.936 31.292 79.344 31.428C79.76 31.564 80.14 31.712 80.484 31.872C80.836 32.024 81.128 32.264 81.36 32.592C81.6 32.92 81.72 33.32 81.72 33.792C81.72 34.552 81.472 35.124 80.976 35.508C80.48 35.884 79.824 36.096 79.008 36.144V37.56ZM87.957 27.84H89.361V33.144H90.765V34.332H89.361V36H88.041V34.332H83.613V33.168L87.957 27.84ZM88.041 33.144V29.58L85.137 33.144H88.041ZM93.422 27.84H98.45V29.064H94.682L94.562 31.032C94.954 30.936 95.366 30.888 95.798 30.888C96.67 30.888 97.394 31.1 97.97 31.524C98.546 31.94 98.834 32.596 98.834 33.492C98.834 34.34 98.518 34.996 97.886 35.46C97.262 35.924 96.478 36.156 95.534 36.156C94.55 36.156 93.678 35.972 92.918 35.604V34.32C93.606 34.72 94.426 34.92 95.378 34.92C96.002 34.92 96.502 34.796 96.878 34.548C97.262 34.3 97.454 33.944 97.454 33.48C97.454 32.504 96.714 32.016 95.234 32.016C94.546 32.016 93.854 32.136 93.158 32.376L93.422 27.84ZM102.026 34.992C101.41 34.208 101.102 33.184 101.102 31.92C101.102 30.656 101.41 29.636 102.026 28.86C102.642 28.076 103.554 27.684 104.762 27.684C105.97 27.684 106.882 28.076 107.498 28.86C108.114 29.636 108.422 30.656 108.422 31.92C108.422 33.184 108.114 34.208 107.498 34.992C106.882 35.768 105.97 36.156 104.762 36.156C103.554 36.156 102.642 35.768 102.026 34.992ZM104.762 34.908C106.282 34.908 107.042 33.912 107.042 31.92C107.042 29.928 106.282 28.932 104.762 28.932C103.242 28.932 102.482 29.928 102.482 31.92C102.482 33.912 103.242 34.908 104.762 34.908Z" fill="#111111"/>
<rect x="16" y="30" width="48" height="7" fill="#FAFF00"/>
<rect x="31" y="248" width="86" height="9" rx="3" fill="#FFDE3B"/>
<rect x="171" y="248" width="86" height="9" rx="3" fill="#FFDE3B"/>
<path d="M237 117C240.065 115.782 308.011 77.6629 322.826 69.0341L350.413 56.4716L378 50" stroke="#888888" stroke-width="2" stroke-dasharray="9 9"/>
<path d="M35 206L99.9149 158.717L146.883 141.317L214.471 137.157L237 119V206H35Z" fill="url(#paint0_linear_6_1477)"/>
<path d="M34 207L98.9149 159.174L146.265 141.574L213.471 137.365L236 119" stroke="#FAFF00" stroke-width="1.5"/>
<path d="M236.384 118.793L323.886 69.4889L350.368 57.5481L378 51V207H236L236.384 118.793Z" fill="url(#paint1_linear_6_1477)"/>
<path d="M33.616 212.84H34.36V220.04H35.884V221H31.636V220.04H33.352V213.908L31.636 214.556V213.596L33.616 212.84Z" fill="#111111"/>
<path d="M81.128 212.84H86.024V213.8H82.076L81.932 216.104C82.364 215.984 82.828 215.924 83.324 215.924C83.732 215.924 84.112 215.972 84.464 216.068C84.816 216.156 85.14 216.3 85.436 216.5C85.74 216.692 85.98 216.964 86.156 217.316C86.332 217.66 86.42 218.068 86.42 218.54C86.42 219.348 86.12 219.984 85.52 220.448C84.928 220.912 84.172 221.144 83.252 221.144C82.26 221.144 81.388 220.96 80.636 220.592V219.632C81.356 220.016 82.188 220.208 83.132 220.208C83.82 220.208 84.368 220.064 84.776 219.776C85.192 219.488 85.4 219.076 85.4 218.54C85.4 217.404 84.592 216.836 82.976 216.836C82.272 216.836 81.568 216.964 80.864 217.22L81.128 212.84Z" fill="#111111"/>
<path d="M133.616 212.84H134.36V220.04H135.884V221H131.636V220.04H133.352V213.908L131.636 214.556V213.596L133.616 212.84ZM138.88 219.98C138.272 219.204 137.968 218.184 137.968 216.92C137.968 215.656 138.272 214.636 138.88 213.86C139.488 213.084 140.384 212.696 141.568 212.696C142.76 212.696 143.66 213.084 144.268 213.86C144.876 214.628 145.18 215.648 145.18 216.92C145.18 218.192 144.876 219.216 144.268 219.992C143.66 220.76 142.76 221.144 141.568 221.144C140.384 221.144 139.488 220.756 138.88 219.98ZM143.512 219.344C143.944 218.776 144.16 217.968 144.16 216.92C144.16 215.872 143.944 215.068 143.512 214.508C143.088 213.94 142.44 213.656 141.568 213.656C140.696 213.656 140.048 213.94 139.624 214.508C139.2 215.068 138.988 215.872 138.988 216.92C138.988 217.968 139.2 218.776 139.624 219.344C140.048 219.904 140.696 220.184 141.568 220.184C142.44 220.184 143.088 219.904 143.512 219.344Z" fill="#111111"/>
<path d="M192.616 212.84H193.36V220.04H194.884V221H190.636V220.04H192.352V213.908L190.636 214.556V213.596L192.616 212.84ZM197.484 212.84H202.38V213.8H198.432L198.288 216.104C198.72 215.984 199.184 215.924 199.68 215.924C200.088 215.924 200.468 215.972 200.82 216.068C201.172 216.156 201.496 216.3 201.792 216.5C202.096 216.692 202.336 216.964 202.512 217.316C202.688 217.66 202.776 218.068 202.776 218.54C202.776 219.348 202.476 219.984 201.876 220.448C201.284 220.912 200.528 221.144 199.608 221.144C198.616 221.144 197.744 220.96 196.992 220.592V219.632C197.712 220.016 198.544 220.208 199.488 220.208C200.176 220.208 200.724 220.064 201.132 219.776C201.548 219.488 201.756 219.076 201.756 218.54C201.756 217.404 200.948 216.836 199.332 216.836C198.628 216.836 197.924 216.964 197.22 217.22L197.484 212.84Z" fill="#111111"/>
<path d="M248.816 213.488C249.576 212.96 250.448 212.696 251.432 212.696C252.28 212.696 252.956 212.888 253.46 213.272C253.964 213.656 254.216 214.192 254.216 214.88C254.216 215.208 254.152 215.516 254.024 215.804C253.904 216.092 253.72 216.356 253.472 216.596C253.232 216.836 252.996 217.04 252.764 217.208C252.54 217.368 252.256 217.548 251.912 217.748C251.872 217.772 251.748 217.844 251.54 217.964C251.34 218.084 251.212 218.16 251.156 218.192C251.108 218.224 250.996 218.296 250.82 218.408C250.652 218.512 250.54 218.588 250.484 218.636C250.436 218.684 250.348 218.76 250.22 218.864C250.1 218.968 250.016 219.056 249.968 219.128C249.928 219.2 249.872 219.292 249.8 219.404C249.736 219.508 249.692 219.612 249.668 219.716C249.644 219.82 249.632 219.932 249.632 220.052L254.276 220.04V221H248.528V220.52C248.528 220.072 248.6 219.668 248.744 219.308C248.888 218.94 249.092 218.628 249.356 218.372C249.628 218.108 249.896 217.888 250.16 217.712C250.424 217.528 250.732 217.332 251.084 217.124C251.164 217.084 251.224 217.052 251.264 217.028C251.992 216.604 252.468 216.28 252.692 216.056C253.036 215.704 253.208 215.308 253.208 214.868C253.208 214.468 253.044 214.164 252.716 213.956C252.396 213.74 251.94 213.632 251.348 213.632C250.484 213.632 249.64 213.92 248.816 214.496V213.488ZM257.615 219.98C257.007 219.204 256.703 218.184 256.703 216.92C256.703 215.656 257.007 214.636 257.615 213.86C258.223 213.084 259.119 212.696 260.303 212.696C261.495 212.696 262.395 213.084 263.003 213.86C263.611 214.628 263.915 215.648 263.915 216.92C263.915 218.192 263.611 219.216 263.003 219.992C262.395 220.76 261.495 221.144 260.303 221.144C259.119 221.144 258.223 220.756 257.615 219.98ZM262.247 219.344C262.679 218.776 262.895 217.968 262.895 216.92C262.895 215.872 262.679 215.068 262.247 214.508C261.823 213.94 261.175 213.656 260.303 213.656C259.431 213.656 258.783 213.94 258.359 214.508C257.935 215.068 257.723 215.872 257.723 216.92C257.723 217.968 257.935 218.776 258.359 219.344C258.783 219.904 259.431 220.184 260.303 220.184C261.175 220.184 261.823 219.904 262.247 219.344Z" fill="#111111"/>
<path d="M309.816 213.488C310.576 212.96 311.448 212.696 312.432 212.696C313.28 212.696 313.956 212.888 314.46 213.272C314.964 213.656 315.216 214.192 315.216 214.88C315.216 215.208 315.152 215.516 315.024 215.804C314.904 216.092 314.72 216.356 314.472 216.596C314.232 216.836 313.996 217.04 313.764 217.208C313.54 217.368 313.256 217.548 312.912 217.748C312.872 217.772 312.748 217.844 312.54 217.964C312.34 218.084 312.212 218.16 312.156 218.192C312.108 218.224 311.996 218.296 311.82 218.408C311.652 218.512 311.54 218.588 311.484 218.636C311.436 218.684 311.348 218.76 311.22 218.864C311.1 218.968 311.016 219.056 310.968 219.128C310.928 219.2 310.872 219.292 310.8 219.404C310.736 219.508 310.692 219.612 310.668 219.716C310.644 219.82 310.632 219.932 310.632 220.052L315.276 220.04V221H309.528V220.52C309.528 220.072 309.6 219.668 309.744 219.308C309.888 218.94 310.092 218.628 310.356 218.372C310.628 218.108 310.896 217.888 311.16 217.712C311.424 217.528 311.732 217.332 312.084 217.124C312.164 217.084 312.224 217.052 312.264 217.028C312.992 216.604 313.468 216.28 313.692 216.056C314.036 215.704 314.208 215.308 314.208 214.868C314.208 214.468 314.044 214.164 313.716 213.956C313.396 213.74 312.94 213.632 312.348 213.632C311.484 213.632 310.64 213.92 309.816 214.496V213.488ZM318.219 212.84H323.115V213.8H319.167L319.023 216.104C319.455 215.984 319.919 215.924 320.415 215.924C320.823 215.924 321.203 215.972 321.555 216.068C321.907 216.156 322.231 216.3 322.527 216.5C322.831 216.692 323.071 216.964 323.247 217.316C323.423 217.66 323.511 218.068 323.511 218.54C323.511 219.348 323.211 219.984 322.611 220.448C322.019 220.912 321.263 221.144 320.343 221.144C319.351 221.144 318.479 220.96 317.727 220.592V219.632C318.447 220.016 319.279 220.208 320.223 220.208C320.911 220.208 321.459 220.064 321.867 219.776C322.283 219.488 322.491 219.076 322.491 218.54C322.491 217.404 321.683 216.836 320.067 216.836C319.363 216.836 318.659 216.964 317.955 217.22L318.219 212.84Z" fill="#111111"/>
<path d="M375.12 214.916C375.12 215.332 375.008 215.708 374.784 216.044C374.568 216.372 374.284 216.596 373.932 216.716C374.348 216.844 374.704 217.08 375 217.424C375.304 217.76 375.456 218.212 375.456 218.78C375.456 219.54 375.172 220.124 374.604 220.532C374.044 220.94 373.332 221.144 372.468 221.144C371.372 221.144 370.424 220.964 369.624 220.604V219.608C370.4 220.008 371.32 220.204 372.384 220.196C373.784 220.196 374.484 219.708 374.484 218.732C374.484 217.756 373.82 217.268 372.492 217.268H371.244V216.308L372.384 216.32C372.96 216.32 373.396 216.2 373.692 215.96C373.996 215.712 374.148 215.392 374.148 215C374.148 214.576 373.98 214.244 373.644 214.004C373.308 213.756 372.832 213.632 372.216 213.632C371.368 213.632 370.552 213.84 369.768 214.256V213.272C370.52 212.888 371.38 212.696 372.348 212.696C373.18 212.696 373.848 212.9 374.352 213.308C374.864 213.716 375.12 214.252 375.12 214.916ZM379.859 212.84H380.603V220.04H382.127V221H377.879V220.04H379.595V213.908L377.879 214.556V213.596L379.859 212.84Z" fill="#111111"/>
<path d="M386 50L34 50" stroke="#888888" stroke-dasharray="4 4"/>
<circle cx="445" cy="240" r="100" fill="white"/>
<g clip-path="url(#clip0_6_1477)">
<path fill-rule="evenodd" clip-rule="evenodd" d="M545.007 246.666C543.427 268.626 531.303 292 520.007 306.666L458.34 246.666H545.007Z" fill="#111111"/>
<path fill-rule="evenodd" clip-rule="evenodd" d="M506.44 319.107C491.617 330.573 473.875 337.652 455.229 339.536C436.584 341.421 417.784 338.037 400.966 329.768C384.148 321.5 369.988 308.679 360.094 292.762C350.201 276.846 344.971 258.474 345 239.733C345 187.4 383.267 144.613 438.333 140V246.667L506.44 319.107Z" fill="#FFDE3B"/>
<path fill-rule="evenodd" clip-rule="evenodd" d="M451.668 140C475.892 141.609 498.709 151.959 515.876 169.126C533.042 186.293 543.392 209.109 545.001 233.333H451.668V140Z" fill="#3E1BDB"/>
</g>
<defs>
<linearGradient id="paint0_linear_6_1477" x1="153.374" y1="118.622" x2="153.374" y2="201.083" gradientUnits="userSpaceOnUse">
<stop stop-color="#FAFF00"/>
<stop offset="0.974881" stop-color="#C7EFDA" stop-opacity="0"/>
</linearGradient>
<linearGradient id="paint1_linear_6_1477" x1="307" y1="82.5852" x2="307" y2="207" gradientUnits="userSpaceOnUse">
<stop offset="0.00586964" stop-color="#F3EBEB"/>
<stop offset="1" stop-color="#C4C4C4" stop-opacity="0"/>
</linearGradient>
<clipPath id="clip0_6_1477">
<rect width="200" height="200" fill="white" transform="translate(345 140)"/>
</clipPath>
</defs>
</svg>
