<svg width="1259" height="460" viewBox="0 0 1259 460" fill="none" xmlns="http://www.w3.org/2000/svg">
<path opacity="0.03" d="M79.2939 158.212C79.2939 158.212 109.165 166.225 130.635 144.695C152.105 123.164 155.744 103.706 159.428 73.336C163.112 42.9655 148.691 14.3728 125.012 3.52272C101.333 -7.32739 92.9472 14.1718 65.0145 18.7102C37.0818 23.2486 28.2072 19.3981 9.92071 41.4467C-8.36579 63.4954 -0.581808 90.7569 26.7692 121.748C54.1202 152.74 79.2939 158.212 79.2939 158.212Z" fill="#3E1BDB"/>
<path fill-rule="evenodd" clip-rule="evenodd" d="M96.0224 43.4186C91.8306 43.5458 88.5453 44.8083 85.2162 47.5709L82.4333 49.8808L68.293 45.4117L54.1525 40.9431L47.5819 60.8511L41.0107 80.7589L37.3 79.5442C31.8866 77.7721 31.8885 77.7716 30.4362 82.3136C28.8368 87.3177 29.341 90.4647 32.2021 93.3316C34.1642 95.2981 34.5734 95.4584 53.0506 101.507C71.5272 107.555 71.9524 107.668 74.6886 107.239C76.7279 106.92 78.0157 106.257 79.4694 104.776C81.3723 102.837 81.6473 102.164 85.7717 89.3651L90.0842 75.982L92.8364 76.5324C98.1746 77.5997 103.839 75.8147 107.968 71.7647C109.894 69.8749 110.486 68.8189 111.661 65.1707C112.837 61.5225 112.974 60.3176 112.517 57.6476C111.072 49.2069 104.079 43.174 96.0224 43.4186ZM104.254 48.3736C107.227 50.4393 109.656 54.3581 110.264 58.0697C110.828 61.5155 108.984 67.58 106.684 69.8439C104.45 72.0436 100.996 73.8587 98.0194 74.3983C94.5383 75.0295 88.7354 73.1131 86.1719 70.4858C82.6439 66.8699 80.9365 60.1297 82.3988 55.5916C84.0792 50.3769 90.626 45.6509 96.053 45.7347C99.7962 45.7925 101.178 46.237 104.254 48.3736ZM98.4105 49.5286C98.1493 49.6628 97.7912 50.2209 97.6147 50.7687C97.4383 51.316 97.0522 51.6848 96.7567 51.5881C95.4827 51.1711 93.3501 52.943 92.7009 54.9579C91.9106 57.4105 92.9001 59.7093 95.343 61.0924C97.3699 62.2402 97.8859 63.5496 96.9225 65.0998C95.4953 67.3979 91.8493 65.9253 92.3031 63.2341C92.5587 61.7163 91.5333 60.8357 90.7087 61.8647C89.6899 63.135 89.8416 65.5364 91.009 66.616C91.6179 67.1797 92.0244 68.1783 91.9106 68.8355C91.6334 70.4459 93.3434 71.3976 93.8254 69.9017C94.0215 69.2931 94.8207 68.6801 95.6007 68.5399C97.672 68.1675 98.8105 67.2094 99.4457 65.3045C100.181 63.0988 99.1704 60.4353 97.1677 59.3007C96.2876 58.8025 95.3301 58.0155 95.0399 57.5519C94.2439 56.28 95.1512 54.1982 96.6181 53.9317C98.4807 53.593 99.7084 54.7362 99.7517 56.8488C99.7956 59.0001 101.023 59.2908 101.908 57.3603C102.353 56.3883 102.171 55.4793 101.224 53.9527C100.514 52.8073 99.9063 51.3568 99.8739 50.7292C99.814 49.5583 99.2497 49.0957 98.4105 49.5286ZM80.563 54.8406C80.0583 56.4089 79.5903 58.5414 79.5233 59.5807L79.4016 61.47L73.8118 59.8119C68.9919 58.3824 68.1552 58.2765 67.7359 59.045C67.2954 59.8534 67.8418 60.1301 73.6029 62.016L79.9556 64.0956L80.8457 66.4926C81.7909 69.0379 85.6506 73.7479 87.22 74.2713C88.0885 74.5604 87.8371 75.5819 83.8665 87.9041C79.2612 102.196 78.4104 103.892 75.3765 104.832C71.5149 106.028 67.2032 103.534 66.5889 99.7483C66.417 98.6872 66.6799 96.041 67.1733 93.8682L68.071 89.9172L55.6254 85.6822L43.1799 81.4468L49.3002 62.4532L55.4208 43.4591L68.4506 47.7244L81.4805 51.9897L80.563 54.8406ZM59.82 54.0912C57.7916 55.219 57.3256 56.7501 58.4059 58.7376C60.0557 61.7711 63.8644 61.4962 64.9045 58.2683C65.958 54.9991 62.8225 52.4234 59.82 54.0912ZM62.738 56.999C62.8119 58.447 61.3733 58.9797 60.624 57.7824C60.1598 57.0404 60.2168 56.6791 60.8634 56.2653C61.9839 55.5493 62.6775 55.8208 62.738 56.999ZM56.6706 63.8647C54.6423 64.9924 54.1762 66.5235 55.2566 68.511C56.9063 71.5445 60.7151 71.2697 61.7552 68.0417C62.8087 64.7725 59.6731 62.1969 56.6706 63.8647ZM59.5887 66.7725C59.6626 68.2204 58.224 68.7531 57.4747 67.5558C57.0105 66.8139 57.0675 66.4526 57.714 66.0388C58.8346 65.3227 59.5282 65.5942 59.5887 66.7725ZM65.435 68.143C64.3651 68.219 64.0728 69.5021 64.9606 70.2272C65.3696 70.5616 68.9192 71.8874 72.848 73.1735C78.1202 74.8993 80.2076 75.3744 80.8143 74.9865C82.6045 73.8421 80.9861 72.8351 73.4893 70.4296C69.4771 69.1421 65.8532 68.1136 65.435 68.143ZM53.8112 73.5883C51.6163 74.4052 50.9688 76.1897 52.1073 78.2845C53.1266 80.159 54.5268 80.7338 56.5466 80.108C58.5677 79.4821 59.5468 76.4437 58.2763 74.7402C57.04 73.0817 55.936 72.7971 53.8112 73.5883ZM56.4393 76.5459C56.5133 77.9939 55.0747 78.5265 54.3253 77.3293C53.8612 76.5873 53.9182 76.226 54.5647 75.8122C55.6853 75.0962 56.3789 75.3676 56.4393 76.5459ZM61.3527 78.8487C61.2376 79.7774 62.0032 80.1277 69.5471 82.5972C76.5854 84.9012 77.9084 85.1956 78.1304 84.5066C78.3507 83.823 77.0315 83.22 69.9365 80.7583C62.0796 78.0327 61.471 77.8971 61.3527 78.8487ZM64.4781 95.13C63.9784 97.3422 63.9254 99.2378 64.3285 100.459C64.6727 101.501 64.912 102.486 64.8599 102.648C64.8079 102.809 58.177 100.783 50.1239 98.1467C37.2608 93.9354 35.291 93.1633 33.9077 91.7879C31.9941 89.8866 31.4117 86.6377 32.4217 83.4996L33.1642 81.1916L49.209 86.4438L65.2537 91.696L64.4781 95.13Z" fill="#8A86B2"/>
<path opacity="0.03" d="M613.962 458.55C613.962 458.55 640.695 465.721 659.909 446.456C679.123 427.191 707.502 409.716 710.799 382.542C714.096 355.367 676.068 329.847 654.877 320.139C633.686 310.43 610.954 291.502 585.957 295.563C560.959 299.623 568.243 334.344 551.878 354.072C535.513 373.801 542.479 398.194 566.956 425.924C591.434 453.654 613.962 458.55 613.962 458.55Z" fill="#3E1BDB"/>
<path d="M615.999 339.691C615.999 339.691 631.862 317.31 641.233 319.337C650.605 321.364 632.09 340.309 632.09 340.309" stroke="#8A86B2" stroke-width="1.5" stroke-linecap="round" stroke-linejoin="round"/>
<path d="M586 391.718L593.52 409.831L629.829 408.166L646 346.418L636.926 339.772L606.389 338.16L606.274 338.496L586 391.718Z" stroke="#8A86B2" stroke-width="1.5" stroke-linecap="round" stroke-linejoin="round"/>
<path d="M607.908 340.309L610.868 343.571L612.696 351.748L641.119 346.458" stroke="#8A86B2" stroke-width="1.5" stroke-linecap="round" stroke-linejoin="round"/>
<path d="M611.714 356.46L595.897 406.112L595.314 391.557L589.371 391.41" stroke="#8A86B2" stroke-width="1.5" stroke-linecap="round" stroke-linejoin="round"/>
<path d="M601.691 373.136L607.634 355.333" stroke="#8A86B2" stroke-width="1.5" stroke-linecap="round" stroke-linejoin="round"/>
<path d="M597.187 386.684C598.33 383.448 599.347 380.226 600.422 376.99" stroke="#8A86B2" stroke-width="1.5" stroke-linecap="round" stroke-linejoin="round"/>
<path d="M624.262 351.775C624.262 351.775 635.005 319.31 641.999 318.88C648.994 318.451 639.794 348.647 639.794 348.647" stroke="#8A86B2" stroke-width="1.5" stroke-linecap="round" stroke-linejoin="round"/>
<path d="M636.708 323.485C636.708 323.485 632.868 329.836 632.525 334.683" stroke="#8A86B2" stroke-width="1.5" stroke-linecap="round" stroke-linejoin="round"/>
<path opacity="0.03" d="M259.535 197.827C253.628 191.457 246.786 186.214 239.291 182.314C228.128 176.612 215.82 173.868 203.534 173.702C167.597 173.228 164.861 219.327 153.811 225.746C142.76 232.165 122.742 232.912 122.036 258.549C121.602 274.675 125.051 291.259 134.746 303.823C143.625 315.331 156.667 321.171 169.518 325.47C183.95 330.312 199.255 335.057 214.436 331.792C230.016 328.442 240.961 314.972 253.752 305.87C261.809 300.138 269.039 294.104 274.014 284.906C274.607 283.811 275.165 282.686 275.694 281.548C282.353 267.261 283.659 250.777 279.987 235.314C276.697 221.424 269.258 208.213 259.535 197.827Z" fill="#3E1BDB"/>
<path opacity="0.03" d="M1112.71 189.065C1100.94 169.891 1076.27 174.704 1067.08 185.17C1046.4 208.727 1049.04 233.286 1038.29 238.343C1025.19 244.486 1013.15 206.002 993.051 206.161C979.915 206.264 971.336 217.399 968.881 243.11C965.47 278.949 972.351 306.949 982.822 317.756C1004.2 339.815 1039.2 335.826 1058.06 332.74C1073.64 330.197 1096.6 335.694 1117.15 300.562C1129.28 279.824 1135.41 226.038 1112.71 189.065Z" fill="#3E1BDB"/>
<path opacity="0.03" d="M476.264 376.262C472.145 367.594 470.213 359.203 472.48 349.602C474.882 339.486 479.504 328.732 478.066 318.034C475.897 302.118 465.554 286.068 452.217 276.431C439.365 267.16 423.73 263.807 409.937 272.264C398.575 279.239 391.425 293.897 377.647 295.958C361.555 298.389 355.038 285.873 337.21 294.047C330.2 297.261 324.176 303.102 321.384 311.044C318.256 320.037 320.955 326.759 324.293 335.139C327.886 344.233 329.576 354.107 329.236 364.024C328.943 372.811 325.717 381.022 325.703 389.778C325.675 405.23 334.189 420.589 348.047 424.803C365.423 430.087 382.371 401.243 401.489 399.322C411.46 398.318 416.715 407.203 423.218 413.78C431.01 421.666 441.325 427.069 452.045 426.544C474.952 425.436 486.454 397.689 476.264 376.262Z" fill="#3E1BDB"/>
<path opacity="0.03" d="M1251.01 133C1260.59 112.397 1261.25 84.9449 1254.62 62.9371C1248.93 43.9903 1236.25 29.531 1221.61 20.9286C1204.63 10.9463 1184.39 7.97485 1166.15 14.2761C1161.36 15.9321 1156.69 17.4518 1152.17 20.1759C1133.63 31.3376 1137.22 58.8438 1130.71 68.4139C1125.24 76.4644 1114.78 74.0915 1108.19 80.2602C1090.41 96.9166 1100.7 139.818 1119.78 155.216C1142 173.145 1227.28 184.016 1251.01 133Z" fill="#3E1BDB"/>
<path opacity="0.03" d="M922.369 291.844C921.244 290.008 920.006 288.246 918.662 286.568C907.685 272.893 893.334 267.105 876.94 263.228C860.007 259.224 840.181 257.98 823.923 265.197C820.096 266.916 816.46 269.184 813.584 272.277C802.706 283.932 798.974 303.45 786.861 318.879C774.748 334.307 768.84 353.527 779.714 371.77C784.317 379.496 790.186 385.861 797.129 391.464C805.677 398.338 813.051 407.638 822.932 413.017C833.315 418.667 847.144 420.636 858.637 418.048C871.747 415.096 879.436 403.356 889.443 395.365C897.333 389.054 906.773 384.923 914.503 378.414C926.348 368.446 935.33 352.41 933.838 336.521C932.372 321.096 930.486 305.066 922.369 291.844Z" fill="#3E1BDB"/>
<path d="M1220.51 52.0182L1231.67 82.2611C1231.67 82.2611 1205.23 120.374 1156.44 120.961L1153.76 86.3929C1153.76 86.3929 1173.13 87.7566 1189.36 79.5862C1205.58 71.4158 1220.51 52.0182 1220.51 52.0182Z" stroke="#8A86B2" stroke-width="1.5" stroke-miterlimit="10"/>
<path d="M1221.59 82.8509C1221.53 82.0631 1221.66 81.287 1221.94 80.6262C1222.23 79.9655 1222.66 79.4519 1223.19 79.154L1217.31 65.89C1216.81 66.2461 1216.26 66.4858 1215.69 66.5999C1214.71 66.8186 1213.69 66.606 1212.77 65.9929C1208.15 70.7727 1199.4 79.2436 1190.09 83.954C1181.56 87.9107 1172.59 90.2269 1163.44 90.838C1163.17 91.4171 1162.81 91.8974 1162.37 92.2425C1161.93 92.5875 1161.44 92.7882 1160.92 92.8294L1162.64 112.156C1162.96 112.093 1163.28 112.028 1163.61 111.963C1166.21 111.442 1168.41 112.101 1168.62 113.418C1168.63 113.632 1168.61 113.846 1168.56 114.042C1168.5 114.238 1168.41 114.41 1168.3 114.546C1198.66 110.075 1217.53 91.5922 1223.15 85.3268C1222.77 85.109 1222.42 84.7687 1222.15 84.3365C1221.88 83.9044 1221.69 83.3938 1221.59 82.8509V82.8509ZM1193.33 98.775C1188.92 100.961 1184.73 100.701 1183.95 98.196C1183.17 95.6909 1186.11 91.9088 1190.51 89.7227C1194.92 87.5366 1199.12 87.7966 1199.89 90.3017C1200.67 92.8067 1197.73 96.5889 1193.33 98.775Z" stroke="#8A86B2" stroke-width="1.5" stroke-miterlimit="10"/>
<path fill-rule="evenodd" clip-rule="evenodd" d="M210.429 213.799L184.421 223.159L183.678 222.807C183.27 222.614 182.623 222.39 182.241 222.31C181.224 222.097 179.332 222.227 178.439 222.571C175.345 223.762 173.513 227.042 174.113 230.314C174.503 232.437 177.89 239.143 180.76 243.47C185.88 251.193 192.976 258.15 200.801 263.12C204.852 265.693 210.485 268.481 212.326 268.824C215.824 269.476 219.29 267.256 220.185 263.789C220.44 262.8 220.38 260.761 220.07 259.882L219.871 259.315L228.935 232.606C233.921 217.916 238 205.795 238 205.67C238 205.025 237.37 204.413 236.725 204.432C236.566 204.436 224.733 208.652 210.429 213.799ZM234.624 207.934C234.624 208.044 231.849 216.32 231.61 216.921L231.477 217.256L230.954 217.023C229.368 216.316 227.276 216.496 225.744 217.47C223.189 219.096 222.363 222.594 223.907 225.249C224.567 226.385 225.978 227.466 227.247 227.806C227.61 227.904 227.797 228.019 227.774 228.133C227.666 228.671 225.418 235.175 225.34 235.176C225.288 235.177 224.566 234.654 223.735 234.015C222.432 233.012 222.158 232.852 221.741 232.852C220.879 232.852 220.289 233.742 220.619 234.545C220.742 234.845 222.094 235.969 224.35 237.649C224.511 237.77 224.085 239.125 221.306 247.31L218.075 256.831L217.495 256.428C217.175 256.207 216.411 255.803 215.797 255.53C215.183 255.258 213.695 254.54 212.492 253.935C202.719 249.024 194.477 240.914 189.425 231.237C188.692 229.832 186.636 225.468 186.57 225.176C186.548 225.078 189.37 223.983 189.687 223.967C189.765 223.963 189.865 224.194 189.91 224.481C190.108 225.727 191.191 227.27 192.422 228.059C193.598 228.812 195.055 229.113 196.374 228.875C200.082 228.205 202.17 224.172 200.562 220.784C200.402 220.448 200.314 220.146 200.366 220.114C200.418 220.081 201.719 219.607 203.257 219.059C204.794 218.511 208.2 217.291 210.825 216.348C213.45 215.405 215.652 214.633 215.718 214.633C215.784 214.633 215.964 214.974 216.119 215.392C216.551 216.557 217.274 217.026 218.033 216.635C218.794 216.243 218.921 215.549 218.436 214.442C218.153 213.797 218.145 213.732 218.342 213.655C218.968 213.408 234.451 207.842 234.53 207.835C234.582 207.83 234.624 207.875 234.624 207.934ZM230.154 219.442C230.412 219.573 230.623 219.721 230.623 219.771C230.623 219.821 230.193 221.124 229.668 222.667C228.582 225.855 228.667 225.76 227.434 225.172C225.975 224.477 225.293 222.887 225.768 221.289C225.937 220.72 226.733 219.753 227.257 219.48C228.152 219.014 229.281 218.999 230.154 219.442ZM210.677 220.777C208.188 221.672 206.74 223.676 206.74 226.227C206.74 229.442 209.196 231.934 212.367 231.934C215.545 231.934 217.994 229.443 217.994 226.211C217.994 223.933 216.813 222.068 214.743 221.074C213.891 220.666 213.69 220.621 212.554 220.588C211.599 220.56 211.156 220.604 210.677 220.777ZM198.184 221.633C198.925 222.907 198.66 224.554 197.547 225.587C197.03 226.068 196.048 226.481 195.424 226.481C194.237 226.481 192.839 225.448 192.444 224.28C192.02 223.026 191.897 223.138 194.893 222.049C196.354 221.519 197.618 221.079 197.701 221.073C197.784 221.066 198.001 221.319 198.184 221.633ZM213.545 223.255C214.153 223.511 214.996 224.322 215.26 224.905C215.564 225.58 215.564 226.878 215.259 227.555C214.15 230.016 210.584 230.016 209.475 227.555C209.189 226.922 209.169 225.638 209.435 224.996C209.69 224.378 210.432 223.609 211.054 223.318C211.661 223.033 212.943 223.001 213.545 223.255ZM182.241 224.909C182.997 225.173 183.887 225.853 184.33 226.506C184.532 226.804 184.965 227.672 185.292 228.434C190.732 241.121 201.28 251.829 213.805 257.381C215.871 258.297 216.481 258.69 217.062 259.483C217.669 260.31 217.912 261.215 217.841 262.392C217.746 263.996 216.873 265.288 215.388 266.022C214.78 266.322 214.53 266.371 213.617 266.368C212.332 266.363 211.818 266.17 207.928 264.236C201.462 261.02 195.853 256.971 190.794 251.867C185.775 246.805 181.801 241.178 178.607 234.61C176.668 230.626 176.547 230.297 176.546 229.002C176.545 228.085 176.594 227.828 176.891 227.217C177.45 226.068 178.45 225.19 179.606 224.834C180.155 224.665 181.665 224.708 182.241 224.909ZM180.579 227.805C179.804 228.243 179.8 228.856 180.556 230.622C181.395 232.58 183.243 236.166 183.627 236.583C183.889 236.867 184.067 236.942 184.48 236.942C185.137 236.942 185.733 236.413 185.733 235.83C185.733 235.603 185.222 234.447 184.433 232.89C183.717 231.479 182.924 229.833 182.671 229.232C182.418 228.631 182.11 228.047 181.987 227.935C181.664 227.64 180.982 227.578 180.579 227.805ZM199.808 230.783C199.345 231.15 199.198 231.585 199.364 232.093C199.607 232.834 199.806 232.917 202.141 233.237C203.329 233.401 204.406 233.535 204.533 233.537C204.887 233.54 205.615 232.74 205.615 232.348C205.615 231.891 205.321 231.355 204.969 231.173C204.688 231.027 201.199 230.514 200.49 230.514C200.301 230.514 199.994 230.635 199.808 230.783ZM210.629 236.386C208.127 237.064 206.368 239.349 206.368 241.921C206.368 245.61 209.905 248.387 213.425 247.463C216.255 246.72 218.113 243.895 217.639 241.054C217.078 237.689 213.822 235.52 210.629 236.386ZM200.481 236.788C199.759 237.152 199.685 237.476 199.923 239.229C200.036 240.063 200.192 240.886 200.27 241.059C200.433 241.42 200.961 241.732 201.41 241.732C201.761 241.732 202.438 241.21 202.55 240.854C202.637 240.577 202.275 237.625 202.118 237.329C201.786 236.703 201.101 236.477 200.481 236.788ZM185.569 238.052C185.32 238.314 185.233 238.535 185.233 238.906C185.233 239.533 185.487 239.907 186.036 240.09C186.918 240.383 187.82 239.593 187.646 238.678C187.465 237.723 186.235 237.352 185.569 238.052ZM213.433 239.057C214.568 239.646 215.174 240.643 215.174 241.921C215.174 243.197 214.579 244.178 213.43 244.796C212.756 245.158 211.39 245.171 210.684 244.822C208.701 243.842 208.261 241.227 209.815 239.66C210.118 239.356 210.604 239.018 210.897 238.909C211.596 238.649 212.781 238.719 213.433 239.057Z" fill="#8A86B2"/>
<path fill-rule="evenodd" clip-rule="evenodd" d="M854.48 307.488C854.153 307.819 854.16 308.484 854.493 308.79C854.71 308.989 854.939 309.024 856.019 309.024C857.261 309.024 857.297 309.016 857.583 308.679C857.941 308.257 857.951 307.987 857.624 307.566C857.38 307.251 857.335 307.242 856.048 307.242C854.884 307.242 854.693 307.272 854.48 307.488ZM859.992 307.789C859.619 308.167 859.611 308.644 859.972 309.009C860.323 309.365 862.289 309.769 862.77 309.584C863.362 309.355 863.501 308.678 863.059 308.172C862.84 307.921 862.576 307.824 861.71 307.674C860.327 307.435 860.343 307.434 859.992 307.789ZM850.002 307.808C849.063 308.016 848.781 308.245 848.781 308.797C848.781 309.302 849.141 309.7 849.599 309.7C850.241 309.7 851.861 309.324 852.078 309.125C852.372 308.856 852.37 308.084 852.076 307.814C851.807 307.567 851.097 307.565 850.002 307.808ZM865.328 309.141C864.995 309.478 864.965 309.667 865.17 310.122C865.276 310.358 865.574 310.537 866.413 310.866C867.019 311.104 867.628 311.298 867.766 311.298C868.431 311.297 868.816 310.231 868.316 309.772C868.006 309.488 866.388 308.849 865.964 308.844C865.762 308.841 865.505 308.961 865.328 309.141ZM845.385 309.113C845.219 309.187 844.773 309.383 844.395 309.548C843.911 309.759 843.667 309.947 843.57 310.181C843.329 310.771 843.753 311.422 844.377 311.42C844.693 311.419 846.498 310.695 846.75 310.468C847.04 310.205 847.024 309.517 846.719 309.208C846.451 308.937 845.876 308.896 845.385 309.113ZM870.61 311.207C870.444 311.293 870.259 311.507 870.198 311.682C869.984 312.3 870.176 312.577 871.282 313.248C871.855 313.595 872.444 313.879 872.591 313.879C872.966 313.879 873.355 313.572 873.446 313.204C873.576 312.68 873.245 312.254 872.264 311.685C871.169 311.051 871.001 311.002 870.61 311.207ZM839.787 311.902C838.535 312.715 838.349 313.084 838.879 313.708C839.069 313.932 839.279 314.041 839.515 314.039C839.883 314.035 841.568 313.054 841.838 312.686C842.065 312.378 842.022 311.87 841.743 311.567C841.343 311.131 840.84 311.218 839.787 311.902ZM853.51 312.42C847.553 313.037 842.028 315.701 837.742 320.024C834.941 322.848 832.763 326.325 831.505 329.979C829.173 336.752 829.561 343.983 832.599 350.364C835.296 356.03 839.738 360.422 845.446 363.067C850.694 365.499 856.984 366.046 862.696 364.568C864.3 364.153 866.502 363.346 867.676 362.743C868.017 362.568 868.317 362.425 868.342 362.425C868.368 362.425 868.814 363.379 869.334 364.545C869.854 365.711 870.38 366.81 870.502 366.988C870.955 367.646 872.267 367.932 873.009 367.534C873.404 367.323 875.131 365.551 875.332 365.152C875.411 364.995 875.521 363.951 875.577 362.831C875.664 361.098 875.713 360.762 875.903 360.581C877.083 359.452 879.115 357.634 879.187 357.641C879.237 357.646 880.288 359.204 881.522 361.102C883.794 364.6 884.067 364.923 884.867 365.077C885.603 365.218 886.208 364.927 887.218 363.949C888.29 362.911 888.555 362.453 888.555 361.636C888.555 361.213 887.486 354.038 886.937 350.776C886.898 350.548 887.13 350.28 888.153 349.366C889.642 348.035 890.465 346.998 891.105 345.649C891.745 344.297 891.986 343.289 891.999 341.9C892.012 340.599 891.826 340.073 891.092 339.329C890.358 338.584 889.838 338.396 888.555 338.409C887.888 338.416 887.071 338.51 886.615 338.632C885.534 338.922 884.025 339.677 883.155 340.362L882.431 340.932L882.358 338.374C882.283 335.804 882.201 335.069 881.748 332.944C881.184 330.303 879.572 326.491 878.032 324.162C873.098 316.696 864.777 312.203 856.057 312.297C855.223 312.306 854.077 312.362 853.51 312.42ZM858.62 314.253C861.082 314.505 863.826 315.235 866.028 316.223C866.992 316.656 867.18 316.828 866.689 316.828C865.557 316.828 864.072 318.033 863.583 319.349C862.874 321.251 863.747 323.428 865.579 324.327C866.095 324.58 866.425 324.633 867.879 324.696C868.813 324.737 869.693 324.833 869.833 324.911C870.274 325.155 870.835 325.899 870.919 326.351C870.963 326.588 870.963 326.978 870.919 327.216C870.836 327.664 870.28 328.403 869.833 328.661C869.666 328.757 868.652 328.83 866.909 328.871C864.398 328.93 864.207 328.951 863.645 329.232C861.996 330.055 861.121 331.912 861.562 333.657C861.888 334.947 862.614 335.803 863.885 336.397L864.484 336.677L872.534 336.714L880.583 336.751L880.512 339.356C880.429 342.393 880.251 343.573 879.882 343.534C879.75 343.52 878.742 343.363 877.641 343.185C876.541 343.007 875.452 342.861 875.221 342.86C874.538 342.858 874.147 343.589 874.487 344.234C874.643 344.528 875.096 344.665 876.732 344.912C877.465 345.023 878.187 345.143 878.336 345.179C878.611 345.245 878.313 345.607 874.838 349.428L874.307 350.012L870.957 347.751C869.114 346.508 867.567 345.425 867.519 345.346C867.465 345.259 867.735 344.895 868.201 344.424L868.971 343.645L869.88 343.811C870.381 343.902 870.915 343.979 871.068 343.983C871.439 343.992 871.942 343.465 871.942 343.068C871.942 342.512 871.494 342.206 870.422 342.028C868.46 341.702 868.154 341.808 866.749 343.307C865.828 344.29 865.548 344.892 865.682 345.606C865.84 346.456 866.13 346.709 869.611 349.031C871.485 350.28 873.021 351.344 873.025 351.394C873.032 351.467 871.228 353.537 870.123 354.723C869.944 354.916 869.614 354.965 867.906 355.053C866.528 355.124 865.792 355.214 865.556 355.34C865.156 355.554 863.423 357.32 863.224 357.716C863.027 358.108 863.06 359.067 863.287 359.551C863.526 360.062 863.845 360.297 865.036 360.84C865.54 361.069 865.976 361.308 866.006 361.37C866.083 361.53 863.774 362.388 862.134 362.809C859.888 363.386 858.154 363.565 855.511 363.495C853.904 363.452 852.796 363.355 851.848 363.174C849.231 362.676 846.439 361.659 844.325 360.433L843.413 359.905L846.855 359.831C848.748 359.791 850.462 359.701 850.664 359.633C851.849 359.23 852.904 358.339 853.383 357.336C854.485 355.029 853.536 352.355 851.227 351.261C850.572 350.951 850.43 350.934 848.296 350.898C847.053 350.877 845.901 350.801 845.713 350.726C844.981 350.436 844.796 349.361 845.376 348.773L845.73 348.414L852.015 348.412C857.01 348.41 858.469 348.373 859.122 348.233C861.677 347.684 863.326 345.493 863.188 342.828C863.089 340.932 862.045 339.352 860.318 338.487L859.405 338.029L856.003 337.963C853.161 337.908 852.524 337.863 852.135 337.688C850.821 337.098 849.993 335.838 849.993 334.428C849.993 333.358 850.186 332.774 850.757 332.117C851.423 331.35 851.995 331.089 853.308 330.951C855.275 330.745 856.663 329.799 857.441 328.136C857.781 327.408 857.815 327.225 857.815 326.107C857.815 324.982 857.782 324.809 857.43 324.055C856.94 323.007 856.144 322.201 855.111 321.704L854.298 321.314L850.45 321.276L846.602 321.237L846.283 321.56C846.024 321.823 845.979 321.956 846.041 322.273C846.193 323.042 846.125 323.029 850.21 323.096C854.317 323.164 854.406 323.18 855.196 323.973C855.782 324.561 856.051 325.233 856.051 326.107C856.051 327.055 855.762 327.699 855.05 328.333C854.45 328.869 853.819 329.118 853.067 329.118C852.4 329.118 851.239 329.445 850.641 329.8C849.861 330.262 849.073 331.136 848.65 332.007C848.331 332.664 848.255 332.988 848.203 333.912C848.065 336.356 849.168 338.3 851.236 339.26C852.224 339.718 853.014 339.809 855.996 339.811C857.463 339.812 858.867 339.869 859.115 339.939C859.75 340.118 860.536 340.762 860.953 341.445C861.235 341.907 861.319 342.209 861.364 342.92C861.435 344.043 861.125 344.861 860.356 345.579C859.32 346.547 859.72 346.499 852.115 346.569C847.198 346.615 845.234 346.673 844.998 346.78C844.417 347.043 843.724 347.785 843.445 348.441C842.923 349.67 843.323 351.25 844.357 352.05C845.095 352.621 845.527 352.704 847.762 352.71C848.975 352.713 850.007 352.774 850.248 352.855C851.364 353.234 852.147 354.428 852.016 355.55C851.934 356.25 851.72 356.707 851.248 357.19C850.524 357.931 850.489 357.936 845.385 357.975L840.717 358.011L839.489 356.843C833.273 350.926 830.602 342.279 832.352 333.729C833.068 330.229 834.933 326.163 836.989 323.619L837.411 323.096H840.191H842.971L843.269 322.794C843.639 322.419 843.652 321.915 843.303 321.537C843.048 321.263 842.97 321.253 841.096 321.253H839.153L839.571 320.811C840.841 319.47 843.283 317.769 845.567 316.634C849.626 314.617 854.14 313.794 858.62 314.253ZM875.014 314.429C874.712 314.644 874.573 315.108 874.704 315.467C874.855 315.88 876.546 317.32 876.88 317.32C877.313 317.32 877.601 317.122 877.735 316.732C877.902 316.248 877.707 315.856 876.974 315.203C875.844 314.195 875.523 314.068 875.014 314.429ZM835.668 314.983C835.021 315.545 834.857 315.98 835.133 316.407C835.584 317.104 836.098 317.069 836.939 316.286C837.576 315.693 837.653 315.334 837.252 314.817C836.872 314.327 836.361 314.381 835.668 314.983ZM855.935 316.792C855.311 317.025 855.115 317.84 855.571 318.303C855.783 318.517 855.976 318.549 857.066 318.549C858.218 318.549 858.339 318.526 858.582 318.264C859.017 317.795 858.915 317.18 858.352 316.885C858.014 316.708 856.335 316.644 855.935 316.792ZM878.95 318.348C878.653 318.576 878.503 319.053 878.624 319.381C878.82 319.914 880.065 321.371 880.396 321.455C880.841 321.568 881.308 321.272 881.444 320.79C881.54 320.451 881.507 320.321 881.205 319.874C881.012 319.588 880.606 319.09 880.301 318.767C879.723 318.154 879.351 318.039 878.95 318.348ZM871.011 319.214C875.482 322.631 878.841 327.996 880.043 333.643C880.232 334.527 880.253 334.801 880.137 334.847C880.054 334.879 876.549 334.889 872.347 334.869L864.709 334.833L864.206 334.496C863.427 333.973 863.09 333.101 863.326 332.214C863.468 331.68 864.225 330.888 864.693 330.784C864.845 330.75 866.061 330.707 867.395 330.688C869.723 330.656 869.846 330.642 870.487 330.333C871.336 329.925 872.011 329.24 872.413 328.381C873.071 326.973 872.743 325.165 871.625 324.032C871.366 323.769 870.854 323.412 870.487 323.238C869.903 322.962 869.622 322.917 868.243 322.874C866.918 322.832 866.593 322.783 866.2 322.562C865.013 321.894 864.797 320.112 865.791 319.184C866.315 318.694 866.911 318.56 868.586 318.554L870.141 318.549L871.011 319.214ZM882.249 322.887C882.083 322.972 881.872 323.198 881.782 323.388C881.63 323.709 881.655 323.805 882.126 324.736C882.891 326.249 883.336 326.559 883.991 326.037C884.438 325.681 884.403 325.243 883.836 324.101C883.212 322.842 882.862 322.575 882.249 322.887ZM884.198 328.213C883.871 328.635 883.887 328.84 884.349 330.161C884.675 331.094 884.787 331.284 885.069 331.383C885.517 331.542 886.029 331.347 886.218 330.947C886.345 330.678 886.321 330.464 886.057 329.536C885.886 328.935 885.632 328.318 885.492 328.166C885.13 327.772 884.524 327.794 884.198 328.213ZM838.2 330.837C837.786 331.167 837.743 331.819 838.11 332.191C838.321 332.405 838.514 332.437 839.616 332.437C840.838 332.437 840.889 332.426 841.132 332.113C841.446 331.709 841.452 331.321 841.152 330.945C840.942 330.682 840.809 330.651 839.726 330.613C838.652 330.576 838.499 330.599 838.2 330.837ZM885.563 333.615C885.276 333.906 885.256 333.99 885.328 334.628C885.434 335.564 885.715 335.939 886.312 335.939C887.01 335.939 887.27 335.521 887.154 334.582C887.007 333.389 886.243 332.925 885.563 333.615ZM841.025 335.164C840.509 335.725 840.863 336.528 841.697 336.687C841.937 336.733 842.52 336.742 842.994 336.707C843.962 336.637 844.294 336.39 844.294 335.741C844.294 335.054 843.964 334.895 842.54 334.895C841.392 334.895 841.248 334.92 841.025 335.164ZM889.79 340.637C890.297 341.151 890.365 341.889 890.028 343.24C889.708 344.522 889.181 345.607 888.457 346.476C888.144 346.851 886.824 348.117 885.523 349.288C879.887 354.366 874.001 359.872 873.94 360.125C873.904 360.274 873.833 361.297 873.782 362.398L873.69 364.399L872.949 365.15C872.518 365.587 872.138 365.874 872.042 365.837C871.95 365.801 871.419 364.747 870.861 363.493C870.303 362.24 869.768 361.135 869.673 361.038C869.577 360.941 868.487 360.399 867.25 359.833C866.013 359.268 864.973 358.729 864.938 358.637C864.9 358.539 865.184 358.154 865.615 357.717L866.356 356.966L868.434 356.866C869.577 356.811 870.612 356.712 870.734 356.646C870.856 356.579 873.777 353.359 877.223 349.489C880.67 345.619 883.767 342.221 884.105 341.936C885.327 340.909 887.376 340.145 888.712 340.219C889.31 340.252 889.472 340.315 889.79 340.637ZM836.974 343.384C836.532 343.736 836.532 344.366 836.974 344.718C837.246 344.935 837.464 344.973 838.435 344.973C839.484 344.973 839.599 344.949 839.873 344.671C840.037 344.505 840.171 344.226 840.171 344.051C840.171 343.876 840.037 343.597 839.873 343.431C839.599 343.153 839.484 343.129 838.435 343.129C837.464 343.129 837.246 343.167 836.974 343.384ZM861.06 351.327C860.46 351.444 860.215 352.382 860.664 352.838C860.876 353.053 861.069 353.084 862.175 353.084C863.324 353.084 863.467 353.059 863.691 352.815C864.148 352.319 863.962 351.604 863.317 351.377C862.947 351.246 861.624 351.217 861.06 351.327ZM886.014 356.605C886.408 359.096 886.732 361.306 886.734 361.515C886.735 361.822 886.595 362.032 886.009 362.598C885.61 362.985 885.223 363.263 885.15 363.218C885.077 363.172 884.015 361.606 882.788 359.738C880.681 356.528 880.57 356.33 880.767 356.131C881.351 355.542 885.225 352.015 885.258 352.043C885.279 352.061 885.619 354.114 886.014 356.605ZM857.055 354.809C856.789 354.918 856.542 355.367 856.542 355.74C856.542 355.84 856.675 356.058 856.839 356.224C857.116 356.504 857.223 356.525 858.355 356.525C859.411 356.525 859.605 356.493 859.816 356.28C860.21 355.88 860.181 355.358 859.742 354.958C859.474 354.715 859.313 354.683 858.384 354.69C857.804 354.694 857.206 354.748 857.055 354.809Z" fill="#8A86B2"/>
<path fill-rule="evenodd" clip-rule="evenodd" d="M1063.7 219.461L1063.27 219.711L1056.03 246.951L1048.78 274.19L1048.98 274.594L1049.17 274.997L1054.3 276.42C1057.13 277.202 1059.56 277.845 1059.71 277.848C1059.86 277.851 1060.12 277.767 1060.29 277.662C1060.59 277.471 1060.6 277.434 1067.84 250.207C1071.83 235.212 1075.08 222.849 1075.07 222.735C1075.01 222.175 1074.75 222.08 1069.3 220.609L1064.13 219.211L1063.7 219.461ZM1065.88 249.629L1058.98 275.58L1055.04 274.515L1051.09 273.45L1057.99 247.499L1064.89 221.548L1068.84 222.613L1072.78 223.678L1065.88 249.629ZM1033.14 223.799C1032.93 223.833 1032.64 223.996 1032.52 224.16C1032.35 224.387 1030.95 229.537 1026.69 245.651L1021.09 266.843L1021.28 267.181L1021.48 267.519L1026.6 268.937C1029.41 269.718 1031.84 270.359 1032 270.362C1032.15 270.365 1032.41 270.291 1032.57 270.198C1032.86 270.031 1032.93 269.782 1038.54 248.657L1044.22 227.285L1044 226.921L1043.78 226.557L1038.66 225.146C1034.55 224.013 1033.47 223.748 1033.14 223.799ZM1036.58 248.104L1031.26 268.094L1027.32 267.029L1023.37 265.964L1028.67 246.052C1031.58 235.101 1034.01 226.115 1034.06 226.084C1034.11 226.052 1035.9 226.497 1038.02 227.071L1041.89 228.115L1036.58 248.104ZM1043.48 239.628L1043.12 239.838L1039.04 255.216C1035.01 270.371 1034.95 270.597 1035.12 270.886C1035.21 271.047 1035.39 271.24 1035.53 271.315C1035.66 271.391 1038.09 272.061 1040.91 272.804L1046.05 274.156L1046.39 273.961L1046.72 273.766L1050.78 258.61C1053.02 250.275 1054.85 243.33 1054.85 243.178C1054.86 243.026 1054.78 242.764 1054.67 242.596C1054.49 242.299 1054.35 242.254 1049.16 240.855L1043.85 239.418L1043.48 239.628ZM1048.89 257.883L1045.18 271.853L1041.24 270.788L1037.29 269.723L1041.01 255.753L1044.72 241.784L1048.66 242.849L1052.61 243.914L1048.89 257.883ZM1012.94 243.987C1012.27 244.072 1012.4 243.673 1009.73 253.705C1007.27 262.946 1007.24 263.067 1007.41 263.381C1007.5 263.556 1007.68 263.759 1007.82 263.833C1007.95 263.906 1010.37 264.576 1013.21 265.322L1018.36 266.677L1018.73 266.424L1019.09 266.172L1021.56 256.892L1024.03 247.611L1023.83 247.208L1023.64 246.804L1018.45 245.376C1015.27 244.502 1013.13 243.963 1012.94 243.987ZM1019.59 256.359L1017.46 264.366L1013.52 263.302L1009.57 262.237L1011.7 254.229L1013.83 246.222L1017.77 247.287L1021.72 248.352L1019.59 256.359ZM1003.26 265.858L1003 266.851L1032.69 274.87L1062.38 282.889L1062.65 281.895L1062.91 280.901L1033.22 272.883L1003.53 264.864L1003.26 265.858Z" fill="#8A86B2"/>
<path fill-rule="evenodd" clip-rule="evenodd" d="M386.326 311.409C385.94 311.439 385.101 311.65 384.46 311.877C382.259 312.658 380.339 314.663 379.693 316.858C379.363 317.981 373.75 369.388 373.831 370.557C374.018 373.285 375.848 375.831 378.529 377.092C379.227 377.42 380.075 377.525 399.378 379.666C418.682 381.807 419.533 381.891 420.284 381.723C422.874 381.146 424.843 379.593 425.941 377.261L426.359 376.373L429.29 349.533C432.114 323.666 432.214 322.664 432.046 321.905C431.755 320.591 431.256 319.494 430.513 318.54C429.724 317.525 429.009 316.943 427.725 316.27L426.855 315.813L406.941 313.583C394.851 312.23 386.751 311.376 386.326 311.409ZM427.335 318.622C428.517 319.382 429.209 320.267 429.673 321.617L430.008 322.587L427.091 349.297L424.175 376.006L423.548 376.992C422.794 378.179 421.913 378.874 420.57 379.34L419.604 379.675L399.62 377.458L379.635 375.241L378.765 374.703C377.554 373.954 376.844 373.083 376.364 371.759L375.965 370.659L378.881 343.949L381.797 317.24L382.332 316.366C382.627 315.886 383.15 315.246 383.495 314.944C384.174 314.35 385.5 313.751 386.377 313.642C386.699 313.603 395.035 314.483 406.638 315.783L426.353 317.992L427.335 318.622ZM386.322 315.899C385.625 316.038 384.344 317.107 384.061 317.787C383.74 318.558 382.727 327.833 382.874 328.656C383.014 329.439 384.027 330.708 384.757 331.016C385.175 331.192 389.822 331.748 404.459 333.371C426.117 335.773 424.414 335.674 425.61 334.601C425.976 334.273 426.376 333.765 426.499 333.474C426.81 332.735 427.826 323.435 427.681 322.645C427.624 322.334 427.343 321.752 427.056 321.35C426.12 320.04 427.819 320.317 406.06 317.92C392.452 316.421 386.674 315.829 386.322 315.899ZM425.284 322.616L425.584 322.992L425.056 327.834L424.527 332.677L424.153 332.978L423.779 333.279L404.674 331.16L385.57 329.041L385.27 328.665L384.969 328.289L385.498 323.447L386.027 318.604L386.401 318.303L386.775 318.002L405.88 320.121L424.984 322.24L425.284 322.616ZM420.024 322.989C419.327 323.128 418.046 324.197 417.763 324.877C417.637 325.179 417.457 326.126 417.364 326.981C417.146 328.977 417.246 329.511 418.02 330.48C419.271 332.049 421.215 332.234 422.675 330.924C423.533 330.154 423.75 329.612 423.957 327.712C424.164 325.813 424.07 325.236 423.398 324.297C422.618 323.205 421.371 322.722 420.024 322.989ZM421.626 325.562C421.909 325.916 421.917 326.028 421.759 327.469C421.602 328.91 421.57 329.017 421.218 329.3C420.982 329.49 420.687 329.584 420.419 329.555C420.152 329.525 419.884 329.369 419.695 329.131C419.412 328.777 419.404 328.666 419.562 327.225C419.719 325.784 419.751 325.677 420.103 325.393C420.339 325.203 420.634 325.109 420.901 325.139C421.169 325.168 421.437 325.325 421.626 325.562ZM384.153 335.771C383.455 335.91 382.175 336.978 381.891 337.658C381.581 338.402 381.045 343.318 381.187 344.112C381.327 344.895 382.34 346.164 383.07 346.472C383.441 346.628 384.829 346.837 387.388 347.12C391.821 347.612 392.102 347.589 393.155 346.644C393.522 346.316 393.922 345.809 394.045 345.517C394.345 344.804 394.884 339.866 394.745 339.104C394.688 338.793 394.407 338.211 394.12 337.809C393.29 336.649 393.038 336.571 388.507 336.085C386.118 335.829 384.461 335.71 384.153 335.771ZM399.536 337.477C398.839 337.616 397.558 338.684 397.275 339.364C396.965 340.108 396.428 345.024 396.57 345.818C396.71 346.601 397.723 347.87 398.453 348.178C398.825 348.334 400.212 348.543 402.772 348.827C407.205 349.318 407.486 349.295 408.539 348.351C408.905 348.022 409.305 347.515 409.428 347.224C409.728 346.511 410.268 341.572 410.128 340.811C410.071 340.5 409.79 339.917 409.503 339.516C408.674 338.355 408.421 338.277 403.891 337.792C401.501 337.535 399.844 337.416 399.536 337.477ZM414.92 339.183C414.222 339.322 412.942 340.391 412.658 341.071C412.513 341.419 412.323 342.595 412.139 344.279C411.955 345.963 411.887 347.153 411.954 347.524C412.094 348.307 413.107 349.577 413.837 349.884C414.208 350.041 415.596 350.249 418.155 350.533C422.588 351.025 422.869 351.001 423.922 350.057C424.289 349.728 424.689 349.221 424.811 348.93C425.112 348.217 425.651 343.279 425.512 342.517C425.455 342.206 425.174 341.623 424.887 341.222C424.057 340.061 423.805 339.984 419.274 339.498C416.885 339.242 415.228 339.122 414.92 339.183ZM392.348 339.075C392.645 339.448 392.646 339.472 392.36 342.085C392.075 344.698 392.07 344.722 391.698 345.021L391.324 345.322L387.603 344.91L383.882 344.497L383.582 344.121C383.285 343.748 383.284 343.723 383.57 341.11C383.855 338.497 383.86 338.473 384.232 338.175L384.606 337.873L388.327 338.286L392.048 338.699L392.348 339.075ZM407.731 340.781C408.029 341.154 408.029 341.178 407.744 343.791C407.458 346.405 407.453 346.428 407.082 346.727L406.708 347.029L402.987 346.616L399.266 346.203L398.966 345.827C398.668 345.454 398.668 345.43 398.953 342.817C399.238 340.203 399.244 340.18 399.615 339.881L399.989 339.579L403.71 339.992L407.431 340.405L407.731 340.781ZM423.115 342.487C423.412 342.86 423.413 342.885 423.127 345.498C422.842 348.111 422.837 348.135 422.465 348.433L422.091 348.735L418.37 348.322L414.649 347.909L414.349 347.533C414.051 347.16 414.051 347.136 414.337 344.523C414.622 341.91 414.627 341.886 414.998 341.587L415.373 341.286L419.094 341.698L422.815 342.111L423.115 342.487ZM382.706 349.018C382.009 349.157 380.728 350.226 380.445 350.906C380.135 351.649 379.598 356.566 379.74 357.36C379.881 358.142 380.894 359.412 381.624 359.719C381.995 359.876 383.382 360.084 385.942 360.368C390.375 360.86 390.656 360.837 391.709 359.892C392.075 359.563 392.475 359.056 392.598 358.765C392.899 358.052 393.438 353.114 393.298 352.352C393.241 352.041 392.96 351.458 392.673 351.057C391.844 349.896 391.591 349.819 387.061 349.333C384.671 349.077 383.014 348.957 382.706 349.018ZM398.09 350.725C397.392 350.863 396.112 351.932 395.829 352.612C395.519 353.356 394.982 358.272 395.124 359.066C395.264 359.849 396.277 361.118 397.007 361.426C397.378 361.582 398.766 361.79 401.325 362.074C405.758 362.566 406.04 362.543 407.092 361.598C407.459 361.27 407.859 360.762 407.982 360.471C408.282 359.758 408.821 354.82 408.682 354.058C408.625 353.747 408.344 353.164 408.057 352.763C407.227 351.603 406.975 351.525 402.444 351.039C400.055 350.783 398.398 350.663 398.09 350.725ZM413.473 352.431C412.776 352.57 411.495 353.638 411.212 354.318C410.884 355.105 408.911 373.18 409.061 374.02C409.201 374.802 410.214 376.072 410.944 376.379C411.315 376.536 412.703 376.744 415.262 377.028C419.695 377.52 419.977 377.497 421.029 376.552C421.396 376.223 421.796 375.716 421.919 375.425C422.237 374.671 424.213 356.571 424.065 355.764C424.008 355.453 423.727 354.871 423.44 354.469C422.611 353.309 422.358 353.231 417.828 352.746C415.438 352.489 413.781 352.37 413.473 352.431ZM390.901 352.322C391.199 352.695 391.199 352.72 390.914 355.333C390.629 357.946 390.623 357.97 390.252 358.269L389.878 358.57L386.157 358.157L382.436 357.745L382.136 357.368C381.838 356.995 381.838 356.971 382.123 354.358C382.409 351.745 382.414 351.721 382.785 351.422L383.159 351.121L386.88 351.534L390.601 351.946L390.901 352.322ZM406.285 354.029C406.583 354.402 406.583 354.426 406.297 357.039C406.012 359.652 406.007 359.676 405.636 359.975L405.262 360.276L401.541 359.864L397.819 359.451L397.519 359.075C397.222 358.702 397.222 358.677 397.507 356.064C397.792 353.451 397.797 353.427 398.169 353.128L398.543 352.827L402.264 353.24L405.985 353.652L406.285 354.029ZM421.668 355.735L421.968 356.111L420.958 365.369L419.947 374.627L419.573 374.929L419.199 375.23L415.478 374.817L411.757 374.405L411.457 374.029L411.156 373.652L412.167 364.394L413.178 355.136L413.552 354.835L413.926 354.533L417.647 354.946L421.368 355.359L421.668 355.735ZM381.26 362.266C380.562 362.405 379.282 363.473 378.999 364.153C378.689 364.897 378.152 369.814 378.294 370.607C378.434 371.39 379.447 372.659 380.177 372.967C380.548 373.123 381.936 373.332 384.495 373.616C388.928 374.107 389.21 374.084 390.262 373.14C390.629 372.811 391.029 372.304 391.152 372.013C391.452 371.3 391.991 366.361 391.852 365.6C391.795 365.289 391.514 364.706 391.227 364.305C390.398 363.144 390.145 363.066 385.615 362.581C383.225 362.325 381.568 362.205 381.26 362.266ZM396.643 363.972C395.946 364.111 394.666 365.18 394.382 365.86C394.072 366.603 393.535 371.52 393.678 372.313C393.818 373.096 394.831 374.366 395.561 374.673C395.932 374.83 397.319 375.038 399.879 375.322C404.312 375.814 404.593 375.79 405.646 374.846C406.012 374.517 406.413 374.01 406.535 373.719C406.836 373.006 407.375 368.068 407.235 367.306C407.178 366.995 406.897 366.412 406.611 366.011C405.781 364.85 405.528 364.773 400.998 364.287C398.609 364.031 396.951 363.911 396.643 363.972ZM389.455 365.57C389.753 365.943 389.753 365.967 389.468 368.581C389.182 371.194 389.177 371.217 388.806 371.516L388.432 371.818L384.711 371.405L380.99 370.992L380.69 370.616C380.392 370.243 380.392 370.219 380.677 367.606C380.962 364.992 380.968 364.969 381.339 364.67L381.713 364.368L385.434 364.781L389.155 365.194L389.455 365.57ZM404.838 367.276C405.136 367.649 405.136 367.674 404.851 370.287C404.566 372.9 404.56 372.924 404.189 373.222L403.815 373.524L400.094 373.111L396.373 372.698L396.073 372.322C395.775 371.949 395.775 371.925 396.06 369.312C396.346 366.699 396.351 366.675 396.722 366.376L397.096 366.075L400.817 366.487L404.538 366.9L404.838 367.276Z" fill="#8A86B2"/>
</svg>
