<svg width="875" height="354" viewBox="0 0 875 354" fill="none" xmlns="http://www.w3.org/2000/svg">
<path d="M811.394 70.8212C805.243 66.7379 798.471 62.819 791.119 59.0879C731.091 28.6732 652.605 15.801 562.953 7.17877C470.35 -1.72628 361.925 -4.49334 273.014 11.5587C252.09 15.3806 232.204 20.4255 216.474 27.3049C156.983 53.2251 136.578 96.6343 70.3358 130.947C4.09335 165.26 -28.221 208.005 31.2507 248.578C56.4232 265.761 88.5149 279.918 126.487 292.377C173.233 307.665 213.561 328.349 267.598 340.311C324.38 352.878 400.008 357.258 462.856 351.502C534.552 344.936 576.605 318.825 631.328 301.053C674.476 287.019 726.101 277.831 768.376 263.354C833.153 241.187 882.274 205.52 874.112 170.183C866.098 135.878 855.785 100.227 811.394 70.8212Z" fill="#F9F8FE"/>
<g clip-path="url(#clip0_761_251045)">
<path d="M521.6 254.585C490.961 282.708 452.84 282.654 414.062 267.061H414.06C391.367 257.938 367.363 242.11 354.316 221.711C336.669 194.496 342.825 171.086 356.433 141.805C374.494 102.915 403.727 79.8619 446.755 84.6179C501.965 90.7185 536.821 130.794 546.356 184.024C551.163 210.835 541.028 236.756 521.6 254.585Z" fill="#FCECDB"/>
<path d="M465.124 200.914C465.124 200.914 450.797 198.036 448.403 198.264C446.01 198.49 437.717 202.211 437.626 202.892C437.532 203.573 437.944 204.114 439.396 204.173C440.848 204.232 445.6 203.496 445.312 204.082C445.024 204.667 431.36 207.719 431.282 210.482C431.203 213.246 438.862 218.176 445.229 218.354C451.597 218.532 463.903 210.833 464.973 210.711C474.04 209.68 465.124 200.914 465.124 200.914Z" fill="#ED975D"/>
<path d="M543.377 169.138C537.781 176.094 533.116 181.487 530.657 183.448C528.704 185.008 526.229 186.6 523.395 188.197C502.969 199.702 463.686 211.375 463.686 211.375C463.686 211.375 463.658 211.355 463.607 211.318C463.115 210.959 460.414 208.886 458.703 205.433C457.207 202.413 457.514 200.54 457.959 199.558C458.229 198.96 458.55 198.69 458.55 198.69C458.55 198.69 505.626 168.664 509.391 165.535C511.525 163.762 519.258 145.796 525.556 130.564C526.436 131.839 527.289 133.133 528.115 134.445C534.725 144.914 539.824 156.604 543.377 169.138Z" fill="#200A84"/>
<path d="M543.698 222.309C543.401 223.149 543.09 223.985 542.765 224.814C541.239 228.704 539.397 232.463 537.265 236.062V236.064C536 238.205 534.634 240.289 533.171 242.31C529.888 246.853 526.123 251.078 521.938 254.916C521.959 254.603 521.983 254.287 522.007 253.974C522.04 253.489 522.075 253.008 522.11 252.532C522.186 251.474 522.26 250.434 522.332 249.416C522.363 249.02 522.389 248.628 522.417 248.239C522.596 245.717 522.768 243.324 522.927 241.081C522.973 240.435 523.019 239.804 523.062 239.182C523.075 238.997 523.089 238.814 523.102 238.631C523.13 238.268 523.154 237.905 523.18 237.548C523.204 237.224 523.226 236.906 523.248 236.59C523.25 236.558 523.252 236.525 523.254 236.495C523.276 236.173 523.298 235.855 523.322 235.54C523.361 235.009 523.398 234.491 523.433 233.982C523.455 233.666 523.479 233.355 523.501 233.048C523.533 232.57 523.568 232.104 523.599 231.65C523.607 231.541 523.616 231.43 523.623 231.321C523.64 231.106 523.653 230.888 523.668 230.677C523.675 230.57 523.684 230.464 523.69 230.362C523.692 230.348 523.692 230.335 523.692 230.322C523.723 229.916 523.749 229.517 523.777 229.132C523.78 229.113 523.782 229.091 523.782 229.071C523.801 228.791 523.823 228.514 523.841 228.247C523.847 228.155 523.854 228.066 523.858 227.981C523.869 227.827 523.88 227.677 523.889 227.527C523.897 227.405 523.908 227.283 523.915 227.163C523.974 226.324 524.03 225.555 524.078 224.868C524.085 224.77 524.093 224.672 524.098 224.576C524.104 224.479 524.113 224.383 524.117 224.287C524.131 224.106 524.144 223.93 524.155 223.763C524.242 222.547 524.303 221.661 524.34 221.143C524.344 221.089 524.346 221.039 524.351 220.993C524.353 220.978 524.353 220.963 524.355 220.95C524.359 220.902 524.362 220.858 524.362 220.821C524.373 220.675 524.379 220.599 524.379 220.599L543.698 222.309Z" fill="#6BB7BF"/>
<path d="M543.698 222.309C543.401 223.149 543.09 223.985 542.765 224.814C541.239 228.704 539.397 232.463 537.265 236.062V236.064C536 238.205 534.634 240.289 533.171 242.31C529.888 246.853 526.123 251.078 521.938 254.916C521.959 254.603 521.983 254.287 522.007 253.974C522.04 253.489 522.075 253.008 522.11 252.532C522.186 251.474 522.26 250.434 522.332 249.416C522.363 249.02 522.389 248.628 522.417 248.239C522.596 245.717 522.768 243.324 522.927 241.081C522.973 240.435 523.019 239.804 523.062 239.182C523.075 238.997 523.089 238.814 523.102 238.631C523.13 238.268 523.154 237.905 523.18 237.548C523.204 237.224 523.226 236.906 523.248 236.59C523.25 236.558 523.252 236.525 523.254 236.495C523.276 236.173 523.298 235.855 523.322 235.54C523.361 235.009 523.398 234.491 523.433 233.982C523.455 233.666 523.479 233.355 523.501 233.048C523.533 232.57 523.568 232.104 523.599 231.65C523.607 231.541 523.616 231.43 523.623 231.321C523.64 231.106 523.653 230.888 523.668 230.677C523.675 230.57 523.684 230.464 523.69 230.362C523.692 230.348 523.692 230.335 523.692 230.322C523.723 229.916 523.749 229.517 523.777 229.132C523.78 229.113 523.782 229.091 523.782 229.071C523.801 228.791 523.823 228.514 523.841 228.247C523.847 228.155 523.854 228.066 523.858 227.981C523.869 227.827 523.88 227.677 523.889 227.527C523.897 227.405 523.908 227.283 523.915 227.163C523.974 226.324 524.03 225.555 524.078 224.868C524.085 224.77 524.093 224.672 524.098 224.576C524.104 224.479 524.113 224.383 524.117 224.287C524.131 224.106 524.144 223.93 524.155 223.763C524.242 222.547 524.303 221.661 524.34 221.143C524.344 221.089 524.346 221.039 524.351 220.993C524.353 220.978 524.353 220.963 524.355 220.95C524.359 220.902 524.362 220.858 524.362 220.821C524.373 220.675 524.379 220.599 524.379 220.599L543.698 222.309Z" fill="#599DAD"/>
<path d="M546.805 184.037C549.194 197.37 547.904 210.402 543.696 222.309C543.4 223.149 543.088 223.985 542.763 224.814C541.237 228.704 539.395 232.463 537.263 236.062V236.064C535.999 238.205 534.632 240.289 533.169 242.31C528.973 241.705 525.557 241.209 523.453 241.157C523.27 241.151 523.093 241.127 522.926 241.085C522.455 240.977 522.041 240.742 521.679 240.411C521.262 240.05 521.657 220.697 522.934 196.321C522.971 195.381 523.008 194.348 523.131 193.414L523.139 193.071C523.22 191.463 523.303 189.835 523.392 188.197C523.447 187.253 523.499 186.304 523.558 185.349C523.952 178.848 524.441 172.199 524.973 165.568C525.025 164.933 525.075 164.295 525.125 163.664C525.964 153.458 526.95 143.426 528.114 134.449C534.721 144.919 539.82 156.609 543.376 169.14C544.751 173.986 545.894 178.959 546.805 184.037Z" fill="#3E1BDB"/>
<path d="M371.024 220.049C370.79 213.224 370.442 205.098 369.982 196.319C369.945 195.379 369.903 194.346 369.786 193.412L369.77 193.068C369.733 192.29 369.696 191.509 369.655 190.721C369.633 190.277 369.609 189.833 369.585 189.387C369.515 188.051 369.437 186.702 369.354 185.347C368.959 178.846 368.469 172.197 367.941 165.566C367.887 164.931 367.834 164.293 367.784 163.662C367.01 154.207 366.108 144.901 365.051 136.447V136.442C365.044 136.394 365.038 136.349 365.033 136.301C364.902 135.239 364.763 134.186 364.626 133.151C364.349 131.066 364.063 129.041 363.764 127.091C363.357 127.757 362.956 128.429 362.561 129.106C360.226 133.09 358.053 137.273 356.03 141.629C351.903 150.508 348.404 160.114 345.477 170.226C345.459 170.291 345.44 170.354 345.422 170.418C344.47 173.718 343.809 176.979 343.423 180.197V180.199C343.366 180.656 343.316 181.115 343.271 181.572V181.574C341.864 196.121 346.017 209.734 353.902 221.896C354.17 222.316 354.449 222.734 354.731 223.149C355.287 223.976 355.862 224.796 356.455 225.608C356.871 226.182 357.299 226.754 357.735 227.322C357.824 227.442 357.916 227.562 358.012 227.681C361.022 231.573 364.416 235.296 368.122 238.827C368.722 239.399 369.33 239.967 369.947 240.528C370.099 240.668 370.254 240.807 370.409 240.946C370.712 240.818 370.987 240.635 371.24 240.409C371.506 240.176 371.442 232.17 371.024 220.049Z" fill="#2A4E96"/>
<path d="M371.025 220.049C360.042 208.564 350.888 194.465 343.422 180.199V180.197C343.81 176.979 344.468 173.718 345.421 170.418C345.438 170.352 345.458 170.289 345.475 170.226C348.403 160.114 351.902 150.508 356.029 141.629C362.769 151.246 367.495 160.096 367.785 163.66C367.838 164.293 367.888 164.928 367.942 165.564C368.468 172.195 368.96 178.846 369.355 185.345C369.438 186.7 369.516 188.049 369.586 189.385C369.61 189.831 369.634 190.275 369.656 190.719C369.697 191.504 369.734 192.287 369.771 193.066L369.786 193.41C369.904 194.343 369.946 195.377 369.983 196.317C370.443 205.098 370.791 213.226 371.025 220.049Z" fill="#1E3D70"/>
<path d="M420.896 201.773C420.896 201.773 435.511 201.788 437.811 202.485C440.11 203.181 447.501 208.468 447.457 209.153C447.413 209.838 446.901 210.289 445.469 210.06C444.034 209.832 439.522 208.17 439.688 208.798C439.853 209.429 452.639 215.125 452.168 217.849C451.697 220.573 443.21 223.889 436.934 222.803C430.658 221.718 420.124 211.736 419.1 211.405C410.415 208.601 420.896 201.773 420.896 201.773Z" fill="#FFB27D"/>
<path d="M423.543 206.751C422.211 209.033 420.457 210.635 419.319 211.52C418.625 212.06 418.163 212.334 418.163 212.334C418.163 212.334 390.042 201.825 369.659 190.721C362.921 187.051 357.028 183.315 353.276 179.873C351.58 178.317 348.832 174.847 345.477 170.226C348.404 160.114 351.903 150.508 356.03 141.629C358.053 137.271 360.226 133.09 362.561 129.106C363.374 131.523 364.211 133.995 365.053 136.442V136.447C369.517 149.446 374.095 161.911 375.726 163.464C379.266 166.845 424.158 200.035 424.158 200.035C424.158 200.035 424.738 200.596 424.897 201.804C425.043 202.896 424.843 204.526 423.543 206.751Z" fill="#2A4E96"/>
<path d="M478.846 103.625H402.172V173.033H478.846V103.625Z" fill="#DDEBFD"/>
<path d="M478.846 99.4603H402.172V103.622H478.846V99.4603Z" fill="#739AF0"/>
<path d="M404.741 100.709C404.279 100.709 403.906 101.081 403.906 101.542C403.906 102.004 404.279 102.376 404.741 102.376C405.203 102.376 405.576 102.004 405.576 101.542C405.576 101.083 405.201 100.709 404.741 100.709Z" fill="#DDEBFD"/>
<path d="M408.007 100.709C407.545 100.709 407.172 101.081 407.172 101.542C407.172 102.004 407.545 102.376 408.007 102.376C408.469 102.376 408.842 102.004 408.842 101.542C408.844 101.083 408.469 100.709 408.007 100.709Z" fill="#DDEBFD"/>
<path d="M411.3 100.709C410.84 100.709 410.465 101.081 410.465 101.542C410.465 102.004 410.84 102.376 411.3 102.376C411.762 102.376 412.135 102.004 412.135 101.542C412.135 101.083 411.762 100.709 411.3 100.709Z" fill="#DDEBFD"/>
<path d="M425.196 112.667H454.488C455.253 112.667 455.879 112.042 455.879 111.279C455.879 110.515 455.253 109.891 454.488 109.891H425.196C424.43 109.891 423.805 110.515 423.805 111.279C423.805 112.042 424.43 112.667 425.196 112.667Z" fill="#A8C3F7"/>
<path d="M418.524 117.429H461.166C461.931 117.429 462.557 116.805 462.557 116.041C462.557 115.277 461.931 114.653 461.166 114.653H418.524C417.758 114.653 417.133 115.277 417.133 116.041C417.133 116.805 417.761 117.429 418.524 117.429Z" fill="#A8C3F7"/>
<path d="M414.919 129.965H466.311C466.872 129.965 467.332 129.508 467.332 128.947C467.332 128.388 466.874 127.929 466.311 127.929H414.919C414.358 127.929 413.898 128.386 413.898 128.947C413.898 129.508 414.358 129.965 414.919 129.965Z" fill="#A8C3F7"/>
<path d="M466.311 132.626H414.919C414.358 132.626 413.898 133.085 413.898 133.644C413.898 134.204 414.358 134.663 414.919 134.663H466.311C466.872 134.663 467.332 134.206 467.332 133.644C467.332 133.085 466.872 132.626 466.311 132.626Z" fill="#A8C3F7"/>
<path d="M466.311 137.321H414.919C414.358 137.321 413.898 137.778 413.898 138.34C413.898 138.899 414.358 139.358 414.919 139.358H466.311C466.872 139.358 467.332 138.899 467.332 138.34C467.332 137.778 466.872 137.321 466.311 137.321Z" fill="#A8C3F7"/>
<path d="M420.079 154.389H414.919C414.358 154.389 413.898 154.848 413.898 155.408C413.898 155.967 414.358 156.426 414.919 156.426H420.079C420.639 156.426 421.099 155.967 421.099 155.408C421.099 154.848 420.639 154.389 420.079 154.389Z" fill="#A8C3F7"/>
<path d="M428.7 154.389H423.54C422.98 154.389 422.52 154.848 422.52 155.408C422.52 155.967 422.98 156.426 423.54 156.426H428.7C429.26 156.426 429.72 155.967 429.72 155.408C429.72 154.848 429.262 154.389 428.7 154.389Z" fill="#A8C3F7"/>
<path d="M457.688 154.389H452.528C451.968 154.389 451.508 154.848 451.508 155.408C451.508 155.967 451.968 156.426 452.528 156.426H457.688C458.248 156.426 458.708 155.967 458.708 155.408C458.708 154.848 458.25 154.389 457.688 154.389Z" fill="#A8C3F7"/>
<path d="M466.309 154.389H461.149C460.589 154.389 460.129 154.848 460.129 155.408C460.129 155.967 460.589 156.426 461.149 156.426H466.309C466.869 156.426 467.329 155.967 467.329 155.408C467.329 154.848 466.869 154.389 466.309 154.389Z" fill="#A8C3F7"/>
<path d="M421.505 157.664C418.508 157.664 416.07 160.096 416.07 163.088C416.07 166.079 418.51 168.512 421.505 168.512C424.502 168.512 426.94 166.077 426.94 163.088C426.942 160.096 424.502 157.664 421.505 157.664ZM421.505 168.24C418.658 168.24 416.343 165.929 416.343 163.088C416.343 160.246 418.658 157.936 421.505 157.936C424.352 157.936 426.667 160.246 426.667 163.088C426.667 165.929 424.352 168.24 421.505 168.24Z" fill="#A8C3F7"/>
<path d="M421.505 158.717C419.089 158.717 417.125 160.677 417.125 163.088C417.125 165.498 419.089 167.459 421.505 167.459C423.92 167.459 425.884 165.498 425.884 163.088C425.884 160.677 423.92 158.717 421.505 158.717ZM421.505 167.187C419.242 167.187 417.4 165.348 417.4 163.09C417.4 160.829 419.242 158.993 421.505 158.993C423.767 158.993 425.609 160.832 425.609 163.09C425.612 165.348 423.77 167.187 421.505 167.187Z" fill="#A8C3F7"/>
<path d="M420.017 164.876C419.433 164.828 419.132 164.554 419.119 164.062C419.111 163.686 419.248 163.36 419.531 163.083C419.645 163.651 419.943 164.128 420.275 164.232C420.462 164.291 420.643 164.226 420.785 164.052C420.924 163.88 421.066 163.649 421.177 163.408C421.238 163.466 421.312 163.501 421.395 163.503C421.598 163.512 421.798 163.351 421.977 163.04C422.025 162.957 422.069 162.866 422.108 162.77C422.121 162.783 422.136 162.796 422.152 162.805C422.182 162.822 422.261 162.853 422.35 162.777C422.448 162.694 422.572 162.502 422.686 162.276C422.71 162.324 422.74 162.359 422.777 162.381C422.821 162.407 422.912 162.433 423.028 162.326C423.089 162.272 423.085 162.207 423.063 162.165C423.032 162.111 422.936 162.072 422.795 162.048V162.046C422.945 161.7 423.05 161.336 422.995 161.204C422.971 161.147 422.919 161.114 422.86 161.121C422.76 161.13 422.69 161.23 422.646 161.428C422.614 161.582 422.594 161.819 422.62 162.022C422.618 162.024 422.618 162.026 422.618 162.028C422.516 162.022 422.4 162.019 422.278 162.022C422.276 161.937 422.258 161.865 422.226 161.815C422.176 161.737 422.117 161.737 422.088 161.743C422.01 161.761 421.984 161.854 421.971 161.935C421.966 161.963 421.962 162 421.962 162.039C421.602 162.067 421.205 162.133 420.848 162.228C420.364 162.359 419.969 162.537 419.664 162.757C419.653 162.585 419.669 162.374 419.791 162.298C419.932 162.209 420.19 162.32 420.277 162.37L420.364 162.222C420.347 162.213 419.961 161.991 419.701 162.152C419.54 162.252 419.472 162.466 419.496 162.79C419.499 162.82 419.501 162.853 419.505 162.883C419.132 163.207 418.943 163.608 418.954 164.067C418.969 164.643 419.344 164.991 420.009 165.046C420.445 165.083 421.001 164.985 421.57 164.802C422.834 164.393 424.009 163.521 424.244 162.729C423.9 163.723 421.439 164.996 420.017 164.876ZM422.836 161.358C422.83 161.406 422.816 161.467 422.795 161.536C422.808 161.465 422.821 161.402 422.836 161.358ZM422.265 162.196C422.365 162.194 422.457 162.194 422.537 162.196C422.437 162.398 422.328 162.574 422.234 162.657C422.234 162.657 422.21 162.642 422.184 162.561C422.221 162.435 422.252 162.309 422.265 162.196ZM421.347 162.291C421.561 162.252 421.766 162.228 421.955 162.213C421.96 162.328 421.975 162.452 422.003 162.559C421.96 162.69 421.901 162.829 421.827 162.957C421.685 163.203 421.53 163.342 421.402 163.336C421.336 163.334 421.288 163.29 421.251 163.234C421.393 162.87 421.458 162.507 421.347 162.291ZM421.179 162.341C421.26 162.452 421.243 162.696 421.158 162.979C421.105 162.722 421.136 162.433 421.179 162.341ZM420.187 162.646C420.442 162.526 420.717 162.433 420.994 162.365C420.946 162.55 420.953 162.822 420.994 163.018C421.011 163.103 421.035 163.177 421.066 163.24C420.963 163.486 420.82 163.738 420.654 163.943C420.556 164.062 420.447 164.106 420.327 164.069C420.072 163.988 419.773 163.549 419.682 162.953C419.821 162.84 419.991 162.737 420.187 162.646Z" fill="#A8C3F7"/>
<path d="M424.238 162.729C424.249 162.694 424.26 162.661 424.267 162.629C424.26 162.661 424.247 162.696 424.238 162.729Z" fill="#A8C3F7"/>
<path d="M459.271 157.807C456.201 157.807 453.703 160.301 453.703 163.364C453.703 166.427 456.201 168.921 459.271 168.921C462.34 168.921 464.838 166.427 464.838 163.364C464.838 160.301 462.34 157.807 459.271 157.807ZM459.271 168.64C456.356 168.64 453.984 166.273 453.984 163.364C453.984 160.455 456.356 158.088 459.271 158.088C462.185 158.088 464.557 160.455 464.557 163.364C464.557 166.273 462.185 168.64 459.271 168.64Z" fill="#A8C3F7"/>
<path d="M459.272 158.887C456.797 158.887 454.785 160.895 454.785 163.364C454.785 165.833 456.797 167.842 459.272 167.842C461.746 167.842 463.758 165.833 463.758 163.364C463.758 160.895 461.746 158.887 459.272 158.887ZM459.272 167.561C456.952 167.561 455.066 165.679 455.066 163.364C455.066 161.049 456.952 159.167 459.272 159.167C461.591 159.167 463.477 161.049 463.477 163.364C463.477 165.679 461.591 167.561 459.272 167.561Z" fill="#A8C3F7"/>
<path d="M462.07 162.996C462.081 162.962 462.092 162.927 462.099 162.894C462.092 162.927 462.081 162.962 462.07 162.996Z" fill="#A8C3F7"/>
<path d="M457.746 165.196C457.149 165.146 456.839 164.865 456.826 164.363C456.817 163.978 456.957 163.642 457.247 163.36C457.362 163.941 457.67 164.43 458.008 164.537C458.199 164.598 458.385 164.53 458.531 164.352C458.675 164.176 458.819 163.941 458.932 163.693C458.995 163.753 459.071 163.788 459.154 163.79C459.361 163.801 459.568 163.636 459.752 163.314C459.8 163.229 459.845 163.136 459.885 163.04C459.898 163.055 459.913 163.066 459.928 163.075C459.959 163.092 460.039 163.123 460.131 163.044C460.231 162.962 460.358 162.764 460.475 162.531C460.499 162.579 460.53 162.616 460.569 162.637C460.615 162.663 460.709 162.69 460.824 162.583C460.885 162.526 460.883 162.461 460.859 162.42C460.828 162.363 460.73 162.324 460.584 162.3V162.298C460.739 161.943 460.846 161.573 460.789 161.434C460.765 161.375 460.711 161.343 460.65 161.349C460.547 161.36 460.475 161.462 460.432 161.665C460.397 161.821 460.379 162.065 460.406 162.274C460.406 162.276 460.403 162.278 460.403 162.281C460.299 162.272 460.181 162.272 460.055 162.274C460.05 162.187 460.035 162.113 460 162.061C459.948 161.98 459.889 161.98 459.858 161.987C459.778 162.006 459.749 162.1 459.739 162.183C459.734 162.213 459.73 162.25 459.73 162.291C459.361 162.322 458.954 162.387 458.587 162.485C458.093 162.618 457.687 162.803 457.375 163.027C457.365 162.851 457.38 162.635 457.504 162.557C457.65 162.465 457.912 162.579 458.001 162.631L458.088 162.481C458.071 162.472 457.676 162.244 457.41 162.409C457.247 162.511 457.175 162.731 457.201 163.062C457.203 163.094 457.208 163.125 457.21 163.157C456.828 163.49 456.632 163.901 456.645 164.369C456.66 164.959 457.044 165.316 457.726 165.372C458.173 165.409 458.742 165.311 459.324 165.122C460.619 164.704 461.823 163.808 462.065 162.998C461.722 164.015 459.204 165.318 457.746 165.196ZM460.634 161.593C460.628 161.641 460.615 161.704 460.593 161.776C460.604 161.7 460.619 161.637 460.634 161.593ZM460.048 162.45C460.151 162.448 460.244 162.448 460.327 162.45C460.225 162.657 460.113 162.84 460.015 162.922C460.015 162.922 459.991 162.907 459.963 162.824C460.004 162.694 460.035 162.566 460.048 162.45ZM459.109 162.548C459.327 162.509 459.538 162.483 459.732 162.468C459.736 162.585 459.752 162.713 459.782 162.822C459.736 162.957 459.677 163.099 459.601 163.229C459.457 163.481 459.298 163.623 459.165 163.616C459.1 163.614 459.05 163.569 459.01 163.512C459.156 163.14 459.222 162.768 459.109 162.548ZM458.936 162.6C459.019 162.713 459.002 162.964 458.914 163.253C458.86 162.99 458.893 162.692 458.936 162.6ZM457.92 162.911C458.182 162.787 458.463 162.694 458.747 162.624C458.696 162.814 458.703 163.092 458.747 163.294C458.764 163.381 458.79 163.458 458.819 163.523C458.714 163.775 458.568 164.032 458.398 164.241C458.298 164.365 458.186 164.408 458.062 164.369C457.801 164.289 457.493 163.838 457.402 163.225C457.548 163.112 457.72 163.007 457.92 162.911Z" fill="#A8C3F7"/>
<path d="M485.583 227.255L478.911 236.24L478.254 237.124L477.934 237.552L477.112 238.66L476.665 239.26L475.843 240.368L474.978 241.531L474.169 242.622L474.156 242.637V242.641L473.395 243.664L473.387 243.677L473.273 243.829L473.26 243.846C473.26 243.849 473.26 243.849 473.258 243.851L473.116 244.042V244.044L472.294 245.06V245.147L471.527 246.183C471.525 246.183 471.525 246.183 471.525 246.183L470.533 247.521C470.531 247.521 470.531 247.521 470.531 247.521L469.783 248.528V248.531L468.961 249.634V249.636L467.588 251.483V251.485H467.586L467.451 251.668L466.984 252.297V252.299L465.905 253.752L464.473 255.593V255.682L463.729 256.683L463.651 256.787V256.789L462.617 258.18H462.615L461.654 259.476L461.645 259.489H461.643L459.26 262.701C459.26 262.703 459.26 262.703 459.26 262.703L455.711 267.481L449.769 275.483L449.03 276.479L448.594 277.065C448.82 277.097 449.047 277.13 449.274 277.158C449.276 277.16 449.28 277.16 449.28 277.16C450.07 277.265 450.859 277.363 451.646 277.445C451.866 277.471 452.088 277.495 452.308 277.517C452.448 277.532 452.585 277.545 452.723 277.558C453.056 277.591 453.39 277.621 453.721 277.65C453.863 277.663 454 277.676 454.142 277.687C454.207 277.693 454.27 277.698 454.338 277.704C454.558 277.724 454.781 277.739 455.001 277.754C455.042 277.759 455.084 277.759 455.127 277.763C455.613 277.8 456.099 277.83 456.583 277.856C456.804 277.87 457.026 277.88 457.246 277.889C457.418 277.9 457.59 277.909 457.763 277.915C457.795 277.917 457.828 277.92 457.861 277.92C458.149 277.933 458.434 277.946 458.72 277.952C458.942 277.959 459.162 277.967 459.382 277.972C459.633 277.98 459.884 277.987 460.132 277.989C460.353 277.996 460.575 277.996 460.795 278C461.028 278.002 461.262 278.004 461.495 278.004C461.717 278.007 461.937 278.007 462.158 278.004C462.28 278.007 462.399 278.004 462.522 278.002C462.657 278.002 462.79 278.002 462.923 277.998C463.01 277.998 463.097 277.996 463.184 277.994C463.271 277.994 463.357 277.991 463.444 277.989C463.566 277.987 463.688 277.985 463.81 277.983C463.84 277.983 463.871 277.983 463.902 277.98C463.965 277.98 464.026 277.978 464.089 277.976C464.178 277.974 464.266 277.972 464.355 277.97C466.073 277.924 467.777 277.83 469.467 277.689H469.471C471.418 277.53 473.345 277.306 475.253 277.025C477.315 276.721 479.353 276.344 481.363 275.903C481.396 275.896 481.431 275.887 481.466 275.881C481.463 275.89 481.461 275.898 481.459 275.907L483.351 275.444C483.615 275.381 483.877 275.315 484.138 275.25C486.623 274.621 489.061 273.89 491.45 273.061C491.851 272.922 492.248 272.783 492.644 272.637C492.743 272.602 492.843 272.565 492.941 272.528C493.684 272.258 494.421 271.978 495.151 271.684C495.35 271.606 495.548 271.527 495.747 271.447V271.445C495.788 271.43 495.829 271.414 495.866 271.399V271.397C496.1 271.303 496.331 271.205 496.562 271.11C496.736 271.038 496.908 270.966 497.081 270.892C497.283 270.807 497.486 270.72 497.689 270.631C497.817 270.577 497.948 270.518 498.079 270.461L498.081 270.459C498.308 270.359 498.533 270.259 498.759 270.157L498.761 270.155C500.978 269.16 503.145 268.077 505.253 266.909C505.476 266.787 505.698 266.663 505.918 266.536L505.92 266.534L517.533 250.896L485.583 227.255Z" fill="#A8D29F"/>
<path d="M468.022 259.476V260.401L468.697 259.492L468.706 259.479V259.476H468.022ZM466.751 260.697C466.498 260.801 466.267 260.912 466.062 261.036L464.579 263.031L463.444 264.559L463.441 266.567L464.786 264.759L468.017 260.405C467.61 260.423 467.184 260.521 466.751 260.697ZM461.275 267.478L461.107 267.707L460.459 268.577L457.538 272.509L457.536 274.517L459.6 271.738L461.253 269.513L462.118 268.347L462.761 267.478H462.763V267.476H461.275V267.478ZM485.967 234.23L479.017 243.587L478.956 243.67L478.536 244.236L477.995 244.962L477.714 245.337V245.343L476.425 247.079L475.889 247.713V247.8L475.538 248.272L475.067 248.905L473.149 251.487V251.49L473.107 251.544L473.011 251.672V251.674L472.401 252.495V252.582L470.579 254.949L469.872 255.9L469.755 256.056L467.797 258.691L467.213 259.476L467.204 259.489L466.057 261.036L464.575 263.031L463.439 264.559L462.617 265.666L461.27 267.478L461.102 267.707L460.455 268.577L457.534 272.509L456.714 273.614L455.325 275.481L453.719 277.645C453.86 277.658 453.998 277.671 454.139 277.682C454.205 277.689 454.268 277.693 454.336 277.7C454.556 277.719 454.778 277.735 454.998 277.75C455.04 277.754 455.081 277.754 455.125 277.759L456.812 275.485H456.814L457.529 274.519L459.594 271.741L461.246 269.515L462.112 268.349L462.755 267.481H462.757V267.478L463.433 266.567L464.778 264.759L468.008 260.405L468.013 260.401L468.689 259.492L468.697 259.479V259.476L469.748 258.151V258.064L470.568 256.959L471.222 256.076L472.39 254.503L473.212 253.398L474.139 252.151L474.492 251.674L474.629 251.492V251.49L475.056 250.915L475.878 249.81L476.746 248.642L477.616 247.471L477.703 247.358V247.354L478.522 246.248L479.152 245.4L479.447 245.01L479.449 245.004L480.205 243.986L480.271 243.899L480.436 243.677L483.604 239.412C485.043 237.476 487.779 237.069 489.719 238.505L505.896 250.471C508.033 252.053 508.482 255.06 506.897 257.192L497.135 270.337L496.562 271.112C496.736 271.04 496.908 270.968 497.081 270.894C497.283 270.809 497.486 270.722 497.689 270.633C497.817 270.579 497.948 270.52 498.079 270.464L498.081 270.461C498.308 270.361 498.532 270.261 498.759 270.159L498.761 270.157L511.442 253.084L485.967 234.23ZM461.275 267.478L461.107 267.707L460.459 268.577L457.538 272.509L457.536 274.517L459.6 271.738L461.253 269.513L462.118 268.347L462.761 267.478H462.763V267.476H461.275V267.478ZM466.751 260.697C466.498 260.801 466.267 260.912 466.062 261.036L464.579 263.031L463.444 264.559L463.441 266.567L464.786 264.759L468.017 260.405C467.61 260.423 467.184 260.521 466.751 260.697ZM468.022 259.476V260.401L468.697 259.492L468.706 259.479V259.476H468.022Z" fill="#82B378"/>
<path d="M481.466 275.903C481.47 275.894 481.473 275.885 481.473 275.877C481.44 275.883 481.405 275.892 481.37 275.898C479.36 276.34 477.322 276.716 475.26 277.021C473.352 277.302 471.425 277.526 469.478 277.685H469.474C467.785 277.826 466.08 277.92 464.362 277.965C464.273 277.97 464.185 277.972 464.096 277.972C464.033 277.974 463.972 277.976 463.909 277.976C463.878 277.978 463.85 277.978 463.817 277.978C463.8 277.73 463.795 277.482 463.797 277.234C463.804 276.649 463.863 276.066 463.976 275.487C464.246 274.084 464.829 272.72 465.738 271.493C465.744 271.484 465.751 271.475 465.757 271.467C466.195 270.883 466.684 270.359 467.216 269.9C467.479 269.674 467.752 269.463 468.035 269.265C468.816 268.723 469.662 268.303 470.547 268.012C470.817 267.92 471.092 267.844 471.368 267.779C472.009 267.624 472.663 267.535 473.324 267.513C473.599 267.502 473.873 267.505 474.146 267.518C474.758 267.546 475.366 267.633 475.968 267.774C476.245 267.84 476.518 267.916 476.788 268.007C477.102 268.112 477.411 268.231 477.714 268.368C477.993 268.492 478.264 268.632 478.534 268.782C478.828 268.947 479.116 269.132 479.397 269.332C479.45 269.367 479.502 269.404 479.552 269.443C479.77 269.604 479.979 269.772 480.18 269.948V269.95C480.193 269.959 480.206 269.97 480.217 269.981C480.372 270.118 480.52 270.257 480.666 270.4C480.962 270.696 481.226 270.997 481.488 271.321V271.332C481.599 271.473 481.704 271.617 481.804 271.765V271.778C482.12 272.221 482.393 272.698 482.624 273.181V273.192C482.73 273.42 482.829 273.653 482.916 273.888V273.89C483.105 274.393 483.254 274.908 483.356 275.435L481.466 275.903Z" fill="#82B378"/>
<path opacity="0.5" d="M473.114 244.04L472.292 245.069V245.145L471.523 246.181L470.531 247.519C470.529 247.519 470.529 247.519 470.529 247.519L469.781 248.526V248.528L468.959 249.631V249.634L467.586 251.481V251.483H467.583L467.448 251.666L466.982 252.295V252.297L465.903 253.75L464.47 255.604V255.68L463.727 256.681L463.649 256.785V256.787L462.615 258.178L461.654 259.474L461.645 259.487H461.643L459.26 262.699C459.26 262.701 459.26 262.701 459.26 262.701L455.711 267.478L449.769 275.481L449.03 276.477L448.594 277.062C448.82 277.095 449.047 277.128 449.274 277.156C449.276 277.158 449.28 277.158 449.28 277.158C450.07 277.262 450.859 277.36 451.646 277.443C451.866 277.469 452.088 277.493 452.308 277.515C452.448 277.53 452.585 277.543 452.723 277.556C453.056 277.589 453.39 277.619 453.721 277.648C453.863 277.661 454 277.674 454.142 277.685C454.207 277.691 454.27 277.695 454.338 277.702C454.558 277.722 454.78 277.737 455.001 277.752C455.042 277.756 455.084 277.756 455.127 277.761C455.613 277.798 456.099 277.828 456.583 277.854C456.804 277.867 457.026 277.878 457.246 277.887C457.418 277.898 457.59 277.906 457.763 277.913C457.795 277.915 457.828 277.917 457.861 277.917C458.031 277.115 458.227 276.303 458.447 275.485C458.781 274.245 459.167 272.994 459.594 271.741C459.921 270.775 460.276 269.811 460.649 268.849C460.795 268.468 460.945 268.09 461.1 267.709C461.131 267.633 461.161 267.557 461.192 267.481H461.194C461.647 266.36 462.127 265.248 462.617 264.152V264.078C462.888 263.477 463.162 262.953 463.439 262.361C463.897 261.384 464.361 260.427 464.83 259.489C464.832 259.485 464.835 259.481 464.837 259.476C465.471 258.204 466.108 256.972 466.733 255.793C466.816 255.639 466.899 255.541 466.982 255.404V255.33C467.259 254.81 467.533 254.298 467.804 253.804C468.205 253.065 468.599 252.353 468.979 251.672C469.014 251.611 469.046 251.548 469.083 251.487C469.323 251.059 469.556 250.715 469.783 250.312V250.238C470.335 249.259 470.845 248.361 471.296 247.562C471.568 247.079 471.819 246.636 472.044 246.229C472.131 246.074 472.214 245.924 472.292 245.778C472.654 245.119 472.933 244.586 473.114 244.194C473.173 244.064 473.221 243.951 473.256 243.853L473.114 244.04Z" fill="#82B378"/>
<path d="M482.931 269.236L482.927 273.757C482.927 273.803 482.925 273.849 482.921 273.892V273.895C482.897 274.203 482.792 274.486 482.626 274.73C482.428 275.022 482.142 275.254 481.807 275.381C481.728 275.411 481.65 275.437 481.567 275.454C481.541 275.461 481.514 275.465 481.488 275.472C481.436 275.481 481.386 275.489 481.336 275.491C481.286 275.498 481.233 275.498 481.181 275.498L480.669 275.496H478.534L476.788 275.494H475.969L474.146 275.491H473.324L471.369 275.489H470.549L468.04 275.487H467.22L463.983 275.485L462.937 275.483H462.117L458.457 275.478H456.722L455.335 275.476L449.774 275.472H448.449L447.492 275.47H447.101L444.843 275.468L441.523 275.465H439.912V275.463H439.91C438.983 275.263 438.055 275.052 437.126 274.832C436.906 274.778 436.686 274.728 436.463 274.671C435.846 274.523 435.227 274.369 434.608 274.21C434.336 274.14 434.061 274.071 433.788 273.999C433.32 273.879 432.851 273.755 432.382 273.627C431.874 273.49 431.366 273.351 430.859 273.209C430.636 273.146 430.416 273.083 430.196 273.02C428.938 272.661 427.68 272.287 426.422 271.893H426.42C426.37 271.878 426.324 271.862 426.274 271.847C425.895 271.73 425.515 271.61 425.138 271.486C424.916 271.419 424.696 271.345 424.476 271.273C420.931 270.122 417.404 268.838 413.918 267.437H414.925L433.793 267.45H434.615L439.692 267.455H440.83V267.457H443.271V267.459H446.367L446.369 267.461H449.026L449.029 267.463H449.277L453.397 267.465H454.354L455.174 267.468H455.719L459.832 267.47L461.201 267.472H462.769L463.445 267.474L467.227 267.476H468.02L468.842 267.478L470.556 267.481H473.946L476.455 267.483H476.546C476.548 267.483 476.548 267.483 476.548 267.483L477.274 267.485H479.232L480.054 267.487H481.19C481.192 267.487 481.194 267.489 481.194 267.489H481.268C481.347 267.494 481.423 267.502 481.499 267.518C481.608 267.537 481.715 267.565 481.817 267.607C482.153 267.737 482.439 267.968 482.637 268.26C482.82 268.542 482.931 268.875 482.931 269.236Z" fill="#FFB93E"/>
<path d="M447.49 275.476H447.1L444.841 275.474L441.521 275.472H440.702L439.908 275.47H439.906C438.979 275.27 438.051 275.059 437.122 274.839C436.902 274.784 436.682 274.734 436.459 274.678C435.842 274.53 435.223 274.375 434.604 274.217C434.332 274.147 434.057 274.077 433.784 274.005C433.316 273.886 432.847 273.762 432.378 273.633C431.87 273.496 431.363 273.357 430.855 273.216C430.632 273.153 430.412 273.09 430.192 273.026C428.934 272.667 427.676 272.293 426.418 271.899H426.416C426.366 271.884 426.32 271.869 426.27 271.854C425.891 271.736 425.512 271.617 425.134 271.493C424.912 271.425 424.692 271.351 424.472 271.279C420.927 270.128 417.4 268.845 413.914 267.444H414.921L433.789 267.457H434.611L439.688 267.461H440.804L440.826 267.463H442.746C443.008 268.599 443.433 269.944 444.135 271.299C444.8 272.587 445.713 273.886 446.969 275.026C447.045 275.095 447.124 275.165 447.204 275.233C447.22 275.248 447.235 275.261 447.252 275.276C447.331 275.344 447.411 275.411 447.49 275.476Z" fill="#FFA412"/>
<path d="M474.148 267.487H473.328V275.494H474.148V267.487Z" fill="#FFA412"/>
<path d="M471.37 267.485H470.551V275.491H471.37V267.485Z" fill="#FFA412"/>
<path d="M468.046 267.483L467.227 267.482L467.218 275.489L468.038 275.49L468.046 267.483Z" fill="#FFA412"/>
<path d="M462.941 267.481H462.121V275.487H462.941V267.481Z" fill="#FFA412"/>
<path d="M457.546 267.476H456.727V275.483H457.546V267.476Z" fill="#FFA412"/>
<path d="M449.273 267.47H448.453V275.476H449.273V267.47Z" fill="#FFA412"/>
<path d="M441.527 267.465H440.707V275.472H441.527V267.465Z" fill="#FFA412"/>
<path d="M434.615 267.461L434.609 274.219C434.336 274.149 434.062 274.079 433.789 274.008L433.793 267.461H434.615Z" fill="#FFA412"/>
<path d="M476.792 267.489H475.973V275.496H476.792V267.489Z" fill="#FFA412"/>
<path d="M478.535 267.492H477.715V275.498H478.535V267.492Z" fill="#FFA412"/>
<path d="M480.226 267.492L479.406 267.491L479.398 275.498L480.218 275.499L480.226 267.492Z" fill="#FFA412"/>
<path d="M481.492 267.52L481.488 275.47C481.387 275.487 481.285 275.498 481.18 275.498H480.668L480.675 267.492H481.187C481.289 267.492 481.392 267.502 481.492 267.52Z" fill="#FFA412"/>
<path d="M482.633 268.264L482.628 274.73C482.43 275.024 482.144 275.252 481.809 275.383L481.815 267.611C482.149 267.74 482.432 267.97 482.633 268.264Z" fill="#FFA412"/>
<path d="M488.829 261.234L488.827 265.755C488.827 266.117 488.716 266.449 488.526 266.728C488.328 267.019 488.042 267.25 487.707 267.378C487.604 267.42 487.497 267.448 487.388 267.468C487.288 267.485 487.186 267.496 487.081 267.496L414.922 267.446C413.991 267.446 413.226 266.708 413.178 265.792C413.178 265.762 413.176 265.731 413.176 265.703L413.178 261.182C413.178 261.152 413.178 261.123 413.18 261.093C413.224 260.244 413.884 259.553 414.719 259.453C414.787 259.444 414.857 259.439 414.926 259.439L487.085 259.489C487.19 259.489 487.293 259.498 487.393 259.518C487.502 259.537 487.611 259.568 487.711 259.607C488.047 259.735 488.332 259.966 488.531 260.26C488.72 260.54 488.829 260.873 488.829 261.234Z" fill="#FFB93E"/>
<path d="M453.392 267.475L414.734 267.449C413.904 267.449 413.222 266.711 413.178 265.795C413.178 265.765 413.176 265.734 413.176 265.706L413.178 261.185C413.178 261.154 413.178 261.126 413.18 261.096C413.219 260.247 413.808 259.555 414.554 259.455C414.612 259.447 414.676 259.442 414.739 259.442L448.65 259.466C448.65 259.47 448.653 259.475 448.653 259.479C449.193 261.833 450.453 265.086 453.392 267.475Z" fill="#FFA412"/>
<path d="M480.05 259.485H479.23V267.492H480.05V259.485Z" fill="#FFA412"/>
<path d="M477.273 259.483H476.453V267.489H477.273V259.483Z" fill="#FFA412"/>
<path d="M473.945 259.481H473.125V267.487H473.945V259.481Z" fill="#FFA412"/>
<path d="M468.839 259.479H468.02V267.485H468.839V259.479Z" fill="#FFA412"/>
<path d="M463.445 259.474H462.625V267.481H463.445V259.474Z" fill="#FFA412"/>
<path d="M455.171 259.468H454.352V267.474H455.171V259.468Z" fill="#FFA412"/>
<path d="M447.425 259.463H446.605V267.47H447.425V259.463Z" fill="#FFA412"/>
<path d="M440.511 259.459H439.691V267.465H440.511V259.459Z" fill="#FFA412"/>
<path d="M482.691 259.487H481.871V267.494H482.691V259.487Z" fill="#FFA412"/>
<path d="M484.437 259.487H483.617V267.494H484.437V259.487Z" fill="#FFA412"/>
<path d="M486.124 259.49H485.305V267.496H486.124V259.49Z" fill="#FFA412"/>
<path d="M487.394 259.518L487.39 267.468C487.29 267.485 487.187 267.496 487.083 267.496H486.57L486.577 259.49H487.089C487.192 259.49 487.294 259.5 487.394 259.518Z" fill="#FFA412"/>
<path d="M488.531 260.262L488.527 266.728C488.328 267.022 488.043 267.25 487.707 267.381L487.714 259.609C488.047 259.737 488.333 259.968 488.531 260.262Z" fill="#FFA412"/>
<path d="M479.363 253.234L479.361 257.755C479.361 258.117 479.25 258.449 479.06 258.728C478.861 259.022 478.576 259.25 478.24 259.378C478.138 259.42 478.031 259.448 477.92 259.468C477.887 259.474 477.852 259.479 477.819 259.483C477.793 259.487 477.765 259.489 477.739 259.492C477.726 259.492 477.713 259.494 477.697 259.494C477.669 259.494 477.641 259.496 477.612 259.496L405.453 259.446C404.522 259.446 403.757 258.708 403.709 257.792C403.709 257.762 403.707 257.734 403.707 257.703L403.709 253.182C403.709 253.152 403.711 253.123 403.711 253.093C403.759 252.177 404.527 251.442 405.455 251.442L477.615 251.492C477.645 251.492 477.676 251.492 477.706 251.494C477.78 251.498 477.85 251.507 477.922 251.52C478.031 251.54 478.14 251.57 478.24 251.609C478.293 251.629 478.343 251.653 478.393 251.677C478.423 251.692 478.454 251.707 478.482 251.724C478.484 251.724 478.489 251.727 478.491 251.731C478.521 251.748 478.55 251.766 478.578 251.785C478.585 251.788 478.589 251.792 478.593 251.794C478.62 251.812 478.646 251.831 478.672 251.851C478.733 251.896 478.792 251.946 478.846 252.003C478.864 252.02 478.881 252.038 478.896 252.053C478.899 252.055 478.903 252.06 478.905 252.062C478.916 252.073 478.925 252.083 478.936 252.094C478.938 252.097 478.94 252.099 478.942 252.101C478.96 252.12 478.977 252.142 478.992 252.164C479.016 252.194 479.04 252.225 479.062 252.258C479.254 252.54 479.363 252.873 479.363 253.234Z" fill="#FFB93E"/>
<path d="M443.927 259.475L405.27 259.449C404.439 259.449 403.757 258.711 403.713 257.795C403.713 257.765 403.711 257.736 403.711 257.706L403.713 253.185C403.713 253.154 403.715 253.126 403.715 253.096C403.759 252.18 404.443 251.444 405.274 251.444L439.186 251.468C439.199 251.529 439.214 251.59 439.229 251.653C439.789 253.99 441.056 257.136 443.912 259.466C443.916 259.466 443.92 259.47 443.927 259.475Z" fill="#FFA412"/>
<path d="M470.581 251.485H469.762V259.492H470.581V251.485Z" fill="#FFA412"/>
<path d="M467.808 251.483H466.988V259.489H467.808V251.483Z" fill="#FFA412"/>
<path d="M464.476 251.481H463.656V259.487H464.476V251.481Z" fill="#FFA412"/>
<path d="M459.374 251.479H458.555V259.485H459.374V251.479Z" fill="#FFA412"/>
<path d="M453.98 251.474H453.16V259.481H453.98V251.474Z" fill="#FFA412"/>
<path d="M445.706 251.468H444.887V259.474H445.706V251.468Z" fill="#FFA412"/>
<path d="M437.96 251.463H437.141V259.47H437.96V251.463Z" fill="#FFA412"/>
<path d="M431.046 251.46L430.227 251.459L430.218 259.465L431.038 259.466L431.046 251.46Z" fill="#FFA412"/>
<path d="M473.222 251.487H472.402V259.494H473.222V251.487Z" fill="#FFA412"/>
<path d="M474.972 251.487H474.152V259.494H474.972V251.487Z" fill="#FFA412"/>
<path d="M476.656 251.49H475.836V259.496H476.656V251.49Z" fill="#FFA412"/>
<path d="M477.928 251.518L477.921 259.468C477.821 259.485 477.719 259.496 477.614 259.496H477.102L477.108 251.49H477.62C477.725 251.49 477.828 251.5 477.928 251.518Z" fill="#FFA412"/>
<path d="M479.066 252.262L479.062 258.728C478.863 259.022 478.578 259.25 478.242 259.378L478.247 251.607C478.582 251.738 478.868 251.968 479.066 252.262Z" fill="#FFA412"/>
<path d="M484.671 245.418L484.669 249.939C484.669 250.301 484.558 250.633 484.368 250.912C484.17 251.203 483.884 251.434 483.549 251.565C483.446 251.604 483.339 251.634 483.228 251.654C483.128 251.671 483.026 251.682 482.921 251.682L410.762 251.632C410.483 251.632 410.217 251.565 409.981 251.447C409.456 251.184 409.079 250.66 409.022 250.05C409.02 250.026 409.018 250.002 409.018 249.979C409.018 249.948 409.016 249.92 409.016 249.889L409.018 245.368C409.018 245.338 409.018 245.31 409.02 245.279C409.064 244.431 409.724 243.739 410.559 243.641C410.627 243.632 410.694 243.628 410.766 243.628L482.925 243.678C483.03 243.678 483.132 243.687 483.233 243.706C483.342 243.726 483.451 243.756 483.551 243.795C483.887 243.924 484.172 244.154 484.371 244.448C484.562 244.722 484.671 245.057 484.671 245.418Z" fill="#FFB93E"/>
<path d="M449.236 251.655L410.576 251.629C410.325 251.629 410.09 251.561 409.881 251.444C409.41 251.181 409.076 250.656 409.026 250.047C409.024 250.023 409.022 249.999 409.022 249.975C409.022 249.945 409.02 249.917 409.02 249.886L409.022 245.365C409.022 245.335 409.022 245.306 409.024 245.276C409.063 244.427 409.652 243.735 410.397 243.635C410.456 243.627 410.519 243.622 410.58 243.622L444.492 243.646C444.492 243.651 444.494 243.655 444.494 243.659C445.022 245.955 446.232 249.103 449.011 251.472C449.085 251.533 449.159 251.596 449.236 251.655Z" fill="#FFA412"/>
<path d="M475.89 243.668H475.07V251.674H475.89V243.668Z" fill="#FFA412"/>
<path d="M473.113 243.666H472.293V251.672H473.113V243.666Z" fill="#FFA412"/>
<path d="M469.785 243.664H468.965V251.67H469.785V243.664Z" fill="#FFA412"/>
<path d="M464.683 243.659H463.863V251.666H464.683V243.659Z" fill="#FFA412"/>
<path d="M459.288 243.657H458.469V251.664H459.288V243.657Z" fill="#FFA412"/>
<path d="M451.011 243.651H450.191V251.657H451.011V243.651Z" fill="#FFA412"/>
<path d="M443.269 243.646H442.449V251.653H443.269V243.646Z" fill="#FFA412"/>
<path d="M436.351 243.64H435.531V251.646H436.351V243.64Z" fill="#FFA412"/>
<path d="M478.531 243.67H477.711V251.677H478.531V243.67Z" fill="#FFA412"/>
<path d="M480.277 243.67H479.457V251.677H480.277V243.67Z" fill="#FFA412"/>
<path d="M481.964 243.672H481.145V251.679H481.964V243.672Z" fill="#FFA412"/>
<path d="M483.236 243.701L483.23 251.651C483.13 251.668 483.027 251.679 482.922 251.679H482.41L482.417 243.672H482.929C483.034 243.672 483.136 243.683 483.236 243.701Z" fill="#FFA412"/>
<path d="M484.371 244.443L484.367 250.909C484.168 251.2 483.883 251.431 483.547 251.559L483.551 243.788C483.887 243.92 484.173 244.151 484.371 244.443Z" fill="#FFA412"/>
<path d="M479.376 237.419L479.374 241.941C479.374 242.302 479.263 242.635 479.073 242.913C478.875 243.207 478.589 243.435 478.254 243.566C478.151 243.607 478.044 243.635 477.933 243.655C477.898 243.661 477.866 243.666 477.833 243.67C477.815 243.672 477.796 243.675 477.776 243.677C477.757 243.679 477.739 243.679 477.72 243.681C477.689 243.683 477.659 243.683 477.628 243.683L405.469 243.633C404.538 243.633 403.773 242.896 403.725 241.98C403.725 241.949 403.723 241.919 403.723 241.89L403.725 237.369C403.725 237.339 403.725 237.311 403.727 237.28C403.775 236.364 404.542 235.629 405.471 235.629L477.63 235.679C477.735 235.679 477.837 235.688 477.938 235.707C478.047 235.727 478.156 235.757 478.256 235.796C478.592 235.925 478.877 236.155 479.075 236.449C479.267 236.725 479.376 237.058 479.376 237.419Z" fill="#FFB93E"/>
<path d="M443.939 243.659L405.281 243.633C404.451 243.633 403.768 242.896 403.725 241.98C403.725 241.949 403.723 241.919 403.723 241.89L403.725 237.369C403.725 237.339 403.725 237.311 403.727 237.28C403.771 236.364 404.455 235.629 405.286 235.629L439.197 235.653C439.736 238.007 440.991 241.26 443.923 243.651C443.928 243.651 443.932 243.655 443.939 243.659Z" fill="#FFA412"/>
<path d="M470.597 235.671L469.777 235.67L469.769 243.676L470.589 243.677L470.597 235.671Z" fill="#FFA412"/>
<path d="M467.816 235.668H466.996V243.675H467.816V235.668Z" fill="#FFA412"/>
<path d="M464.488 235.666H463.668V243.672H464.488V235.666Z" fill="#FFA412"/>
<path d="M459.386 235.664H458.566V243.67H459.386V235.664Z" fill="#FFA412"/>
<path d="M453.992 235.659H453.172V243.666H453.992V235.659Z" fill="#FFA412"/>
<path d="M445.714 235.653H444.895V243.659H445.714V235.653Z" fill="#FFA412"/>
<path d="M437.972 235.649H437.152V243.655H437.972V235.649Z" fill="#FFA412"/>
<path d="M431.054 235.644H430.234V243.651H431.054V235.644Z" fill="#FFA412"/>
<path d="M473.234 235.672H472.414V243.679H473.234V235.672Z" fill="#FFA412"/>
<path d="M474.98 235.675H474.16V243.681H474.98V235.675Z" fill="#FFA412"/>
<path d="M476.667 235.675H475.848V243.681H476.667V235.675Z" fill="#FFA412"/>
<path d="M477.937 235.703L477.933 243.653C477.833 243.67 477.73 243.681 477.626 243.681H477.113L477.12 235.675H477.632C477.735 235.675 477.837 235.686 477.937 235.703Z" fill="#FFA412"/>
<path d="M479.074 236.447L479.07 242.913C478.871 243.207 478.586 243.435 478.25 243.566L478.254 235.794C478.59 235.923 478.876 236.153 479.074 236.447Z" fill="#FFA412"/>
<path d="M489.128 273.827C487.491 274.347 485.829 274.819 484.149 275.243C483.887 275.311 483.623 275.374 483.362 275.437C482.738 275.592 482.108 275.737 481.478 275.874C481.446 275.881 481.411 275.89 481.376 275.896C479.366 276.338 477.328 276.714 475.265 277.019C473.358 277.299 471.431 277.524 469.484 277.682H469.48C467.79 277.824 466.086 277.917 464.368 277.963C464.278 277.967 464.191 277.97 464.102 277.97C464.039 277.972 463.977 277.974 463.914 277.974C463.884 277.976 463.855 277.976 463.823 277.976C463.701 277.98 463.579 277.98 463.456 277.983C463.369 277.985 463.284 277.987 463.197 277.987C463.11 277.989 463.023 277.991 462.935 277.991C462.802 277.996 462.67 277.996 462.534 277.996C462.414 277.998 462.292 278 462.17 277.998C461.95 278 461.73 278 461.508 277.998C461.274 277.998 461.041 277.996 460.808 277.994C460.588 277.989 460.365 277.987 460.145 277.983C459.894 277.978 459.646 277.974 459.395 277.965C459.175 277.961 458.955 277.954 458.732 277.946C458.447 277.937 458.159 277.926 457.874 277.913C457.841 277.913 457.808 277.911 457.775 277.909C457.603 277.902 457.431 277.893 457.259 277.883C457.039 277.874 456.816 277.863 456.596 277.85C456.112 277.822 455.626 277.793 455.14 277.756C455.096 277.752 455.057 277.75 455.013 277.748C454.793 277.732 454.571 277.717 454.351 277.698C454.283 277.691 454.22 277.687 454.155 277.68C454.013 277.669 453.876 277.656 453.734 277.643C453.402 277.615 453.069 277.587 452.735 277.552C452.598 277.539 452.459 277.526 452.321 277.511C452.101 277.489 451.879 277.465 451.658 277.439C450.874 277.356 450.082 277.258 449.293 277.154C449.291 277.154 449.287 277.154 449.287 277.152C449.06 277.123 448.835 277.091 448.607 277.058C448.53 277.047 448.454 277.036 448.38 277.025C448.319 277.019 448.256 277.01 448.195 276.999C448.04 276.98 447.881 276.956 447.726 276.93C447.682 276.923 447.639 276.917 447.595 276.91C447.586 276.908 447.578 276.908 447.569 276.906L447.567 276.904C447.554 276.904 447.541 276.901 447.527 276.897C446.939 276.81 446.348 276.714 445.757 276.612C445.552 276.577 445.345 276.542 445.138 276.505C444.933 276.468 444.726 276.431 444.519 276.392C444.288 276.349 444.057 276.305 443.824 276.262C443.603 276.22 443.381 276.179 443.161 276.135C442.08 275.924 441.001 275.703 439.917 275.468H439.915V275.465H439.913C438.986 275.265 438.058 275.054 437.129 274.834C436.909 274.78 436.689 274.73 436.466 274.673C436.362 274.647 436.253 274.621 436.148 274.595C435.309 264.831 440.166 255.034 449.319 250.001C449.646 249.823 449.98 249.649 450.311 249.486C450.627 249.294 450.95 249.107 451.279 248.924C463.674 242.115 479.255 246.62 486.078 258.989C488.666 263.697 489.623 268.86 489.128 273.827Z" fill="#E2810E"/>
<path d="M494.066 255.736C491.775 251.579 488.49 248.309 484.673 246.061C484.573 246.002 484.472 245.944 484.372 245.887C484.102 245.733 483.829 245.583 483.552 245.439C483.446 245.382 483.339 245.326 483.232 245.274C482.962 245.134 482.689 245.002 482.412 244.875C482.264 244.808 482.116 244.738 481.965 244.673C481.693 244.553 481.42 244.438 481.143 244.329C480.856 244.214 480.57 244.105 480.278 244.001C480.256 243.994 480.234 243.986 480.213 243.979C479.962 243.89 479.711 243.805 479.456 243.725C479.399 243.707 479.341 243.688 479.282 243.67H479.208C479.144 243.64 479.103 243.614 479.014 243.587C478.846 243.535 478.674 243.487 478.504 243.44C478.418 243.416 478.331 243.392 478.246 243.37C478.139 243.339 478.033 243.313 477.926 243.287C477.653 243.218 477.379 243.152 477.104 243.094C476.956 243.061 476.808 243.028 476.657 243C476.385 242.946 476.11 242.893 475.837 242.848C475.55 242.8 475.262 242.756 474.972 242.717C474.704 242.682 474.436 242.65 474.163 242.624C474.159 242.621 474.154 242.621 474.15 242.621C473.843 242.591 473.535 242.567 473.226 242.545C472.953 242.528 472.679 242.515 472.404 242.506C471.798 242.489 471.19 242.489 470.582 242.513C470.309 242.524 470.034 242.539 469.762 242.558C469.11 242.604 468.458 242.676 467.804 242.776C467.532 242.815 467.257 242.861 466.985 242.911C466.143 243.065 465.306 243.261 464.475 243.505C464.31 243.553 464.142 243.603 463.976 243.657C463.974 243.657 463.974 243.657 463.974 243.657C463.959 243.661 463.946 243.666 463.933 243.67C463.906 243.677 463.88 243.688 463.856 243.694C462.298 244.19 460.765 244.843 459.278 245.659C459.272 245.663 459.265 245.665 459.259 245.67C458.988 245.82 458.72 245.972 458.457 246.131C458.409 246.159 458.361 246.187 458.315 246.218C455.923 247.665 453.848 249.449 452.119 251.472C452.065 251.533 452.015 251.596 451.965 251.657C450.005 253.994 448.501 256.644 447.491 259.463C447.489 259.468 447.487 259.472 447.487 259.476C447.465 259.539 447.443 259.603 447.419 259.666C447.088 260.614 446.813 261.582 446.597 262.566V262.64C446.242 264.245 446.039 265.814 446 267.468V267.47C445.937 269.989 446.249 272.535 446.957 275.028C446.999 275.178 447.042 275.326 447.088 275.476C447.234 275.957 447.395 276.436 447.574 276.912C447.618 276.919 447.659 276.927 447.705 276.932C447.86 276.956 448.019 276.98 448.174 277.001C448.235 277.012 448.298 277.021 448.359 277.028C448.435 277.038 448.511 277.049 448.586 277.06C448.812 277.093 449.039 277.125 449.266 277.154C449.268 277.156 449.272 277.156 449.272 277.156C450.061 277.26 450.851 277.358 451.638 277.441C451.858 277.467 452.08 277.491 452.3 277.513C452.44 277.528 452.577 277.541 452.714 277.554C453.048 277.587 453.382 277.617 453.713 277.645C453.855 277.658 453.992 277.671 454.134 277.682C454.199 277.689 454.262 277.693 454.33 277.7C454.55 277.719 454.772 277.735 454.993 277.75C455.034 277.754 455.075 277.754 455.119 277.759C455.605 277.796 456.091 277.826 456.575 277.852C456.795 277.865 457.018 277.876 457.238 277.885C457.41 277.896 457.582 277.904 457.755 277.911C457.787 277.913 457.82 277.915 457.853 277.915C458.14 277.928 458.426 277.941 458.712 277.948C458.934 277.954 459.154 277.963 459.374 277.967C459.625 277.976 459.876 277.983 460.124 277.985C460.344 277.991 460.567 277.991 460.787 277.996C461.02 277.998 461.253 278 461.487 278C461.709 278.002 461.929 278.002 462.149 278C462.271 278.002 462.391 278 462.513 277.998C462.649 277.998 462.782 277.998 462.915 277.993C463.002 277.993 463.089 277.991 463.176 277.989C463.263 277.989 463.348 277.987 463.436 277.985C463.558 277.983 463.68 277.98 463.802 277.978C463.832 277.978 463.863 277.978 463.893 277.976C463.957 277.976 464.018 277.974 464.081 277.972C464.17 277.97 464.257 277.967 464.347 277.965C466.065 277.92 467.769 277.826 469.459 277.685H469.463C471.41 277.526 473.337 277.302 475.244 277.021C477.307 276.716 479.345 276.34 481.355 275.898C481.388 275.892 481.423 275.883 481.457 275.877C481.455 275.885 481.453 275.894 481.451 275.903L483.343 275.439C483.607 275.376 483.868 275.311 484.13 275.246C486.615 274.617 489.052 273.886 491.442 273.057C491.843 272.918 492.24 272.778 492.636 272.633C492.734 272.598 492.835 272.561 492.933 272.524C493.676 272.254 494.413 271.973 495.143 271.68C495.342 271.601 495.54 271.523 495.738 271.443V271.44C495.78 271.425 495.821 271.41 495.858 271.395V271.393C496.092 271.299 496.323 271.201 496.554 271.105C496.728 271.034 496.9 270.962 497.073 270.888C497.092 270.703 497.114 270.518 497.127 270.331C497.587 265.438 496.619 260.364 494.066 255.736Z" fill="#E2810E"/>
<path d="M492.108 256.809C490.216 253.38 487.655 250.556 484.67 248.411C484.572 248.339 484.472 248.27 484.369 248.198C484.101 248.008 483.829 247.826 483.552 247.649C483.445 247.582 483.338 247.515 483.232 247.447C482.961 247.282 482.687 247.119 482.41 246.96C482.261 246.875 482.113 246.792 481.963 246.712C481.692 246.562 481.418 246.42 481.143 246.281C480.858 246.14 480.568 246.002 480.278 245.87C480.005 245.746 479.733 245.628 479.456 245.515C479.358 245.474 479.26 245.435 479.162 245.395C478.952 245.313 478.743 245.232 478.532 245.156C478.353 245.089 478.172 245.026 477.993 244.965C477.902 244.934 477.806 244.902 477.714 244.873C477.115 244.673 476.506 244.497 475.892 244.345C475.619 244.277 475.344 244.214 475.07 244.155C474.475 244.025 473.875 243.918 473.271 243.833C473.219 243.825 473.164 243.816 473.114 243.812C472.842 243.772 472.569 243.742 472.295 243.714C472.188 243.701 472.079 243.692 471.97 243.683H471.889C471.87 243.677 471.859 243.674 471.828 243.67C471.826 243.67 471.826 243.67 471.824 243.67C471.822 243.67 471.822 243.67 471.819 243.67C471.817 243.67 471.817 243.67 471.815 243.67C471.813 243.67 471.813 243.67 471.811 243.67C471.809 243.67 471.809 243.67 471.806 243.67C471.804 243.67 471.804 243.67 471.802 243.67C471.8 243.67 471.8 243.67 471.798 243.67C471.795 243.67 471.795 243.67 471.793 243.67C471.791 243.67 471.791 243.67 471.789 243.67C471.787 243.67 471.787 243.67 471.785 243.67C471.782 243.67 471.782 243.67 471.78 243.67C471.778 243.67 471.778 243.67 471.776 243.67C471.774 243.67 471.774 243.67 471.771 243.67C471.769 243.67 471.769 243.67 471.767 243.67C471.765 243.67 471.765 243.67 471.763 243.67C471.761 243.67 471.761 243.67 471.758 243.67C471.756 243.67 471.756 243.67 471.754 243.67C471.752 243.67 471.752 243.67 471.75 243.67C471.747 243.67 471.747 243.67 471.745 243.67C471.743 243.67 471.743 243.67 471.741 243.67C471.739 243.67 471.739 243.67 471.737 243.67C471.734 243.67 471.734 243.67 471.732 243.67C471.73 243.67 471.73 243.67 471.728 243.67C471.726 243.67 471.726 243.67 471.723 243.67C471.721 243.67 471.721 243.67 471.719 243.67C471.717 243.67 471.717 243.67 471.715 243.67C471.713 243.67 471.713 243.67 471.71 243.67C471.708 243.67 471.708 243.67 471.706 243.67C471.704 243.67 471.704 243.67 471.702 243.67C471.7 243.67 471.7 243.67 471.697 243.67C471.695 243.67 471.695 243.67 471.693 243.67C471.691 243.67 471.691 243.67 471.689 243.67C471.686 243.67 471.686 243.67 471.684 243.67C471.682 243.67 471.682 243.67 471.68 243.67C471.678 243.67 471.678 243.67 471.676 243.67C471.673 243.67 471.673 243.67 471.671 243.67C471.669 243.67 471.669 243.67 471.667 243.67C471.665 243.67 471.665 243.67 471.662 243.67C471.66 243.67 471.66 243.67 471.658 243.67C471.656 243.67 471.656 243.67 471.654 243.67C471.652 243.67 471.652 243.67 471.649 243.67C471.647 243.67 471.647 243.67 471.645 243.67C471.643 243.67 471.643 243.67 471.641 243.67C471.292 243.633 470.893 243.609 470.557 243.594C470.283 243.583 470.01 243.577 469.738 243.577C469.088 243.572 468.434 243.594 467.78 243.642C467.677 243.648 467.575 243.657 467.473 243.666H467.466C467.464 243.666 467.464 243.666 467.462 243.666C467.459 243.666 467.459 243.666 467.457 243.666C467.455 243.666 467.455 243.666 467.453 243.666H467.446C467.444 243.666 467.444 243.666 467.442 243.666C467.44 243.666 467.44 243.666 467.438 243.666C467.435 243.666 467.435 243.666 467.433 243.666C467.431 243.666 467.431 243.666 467.429 243.666C467.427 243.666 467.427 243.666 467.425 243.666C467.422 243.666 467.422 243.666 467.42 243.666H467.418C467.416 243.666 467.416 243.666 467.414 243.666H467.412C467.409 243.666 467.409 243.666 467.407 243.666H467.405C467.403 243.666 467.403 243.666 467.401 243.666C467.398 243.666 467.398 243.666 467.396 243.666H467.394C467.392 243.666 467.392 243.666 467.39 243.666H467.355C467.342 243.67 467.333 243.672 467.311 243.679C467.309 243.679 467.307 243.679 467.307 243.679C467.305 243.679 467.305 243.679 467.303 243.679C467.3 243.679 467.3 243.679 467.298 243.679C467.296 243.679 467.296 243.679 467.294 243.679C467.292 243.679 467.292 243.679 467.289 243.679C467.287 243.679 467.287 243.679 467.285 243.679C467.283 243.679 467.283 243.679 467.281 243.679C467.279 243.679 467.279 243.679 467.276 243.679C467.274 243.679 467.274 243.679 467.272 243.679C467.27 243.679 467.27 243.679 467.268 243.679H467.255C466.38 243.759 465.554 243.886 464.684 244.062C464.41 244.116 464.137 244.175 463.863 244.24C462.315 244.599 460.782 245.108 459.285 245.774C459.01 245.894 458.735 246.022 458.463 246.155C458.415 246.177 458.369 246.2 458.321 246.224C457.981 246.392 457.643 246.566 457.307 246.751C454.962 248.039 452.899 249.642 451.14 251.476C451.097 251.522 451.051 251.568 451.009 251.616C450.994 251.631 450.979 251.646 450.966 251.661V251.664C448.808 253.963 447.12 256.613 445.956 259.468C445.954 259.472 445.952 259.476 445.95 259.481C444.91 262.024 444.284 264.724 444.101 267.474C444.014 268.745 444.025 270.026 444.134 271.308C444.252 272.704 444.485 274.099 444.84 275.478C444.927 275.827 445.023 276.17 445.13 276.514C445.337 276.551 445.544 276.586 445.749 276.621C446.34 276.723 446.929 276.819 447.519 276.906C447.532 276.91 447.545 276.912 447.559 276.912L447.561 276.914C447.569 276.917 447.578 276.917 447.587 276.919C447.63 276.925 447.672 276.934 447.718 276.938C447.872 276.962 448.032 276.986 448.186 277.008C448.247 277.019 448.311 277.027 448.372 277.034C448.448 277.045 448.524 277.056 448.598 277.067C448.825 277.099 449.052 277.132 449.279 277.16C449.281 277.162 449.285 277.162 449.285 277.162C450.074 277.267 450.863 277.365 451.65 277.447C451.871 277.474 452.093 277.497 452.313 277.519C452.453 277.534 452.59 277.547 452.727 277.561C453.061 277.593 453.394 277.624 453.726 277.652C453.867 277.665 454.005 277.678 454.146 277.689C454.212 277.695 454.275 277.7 454.343 277.706C454.563 277.726 454.785 277.741 455.005 277.756C455.047 277.761 455.088 277.761 455.132 277.765C455.618 277.802 456.104 277.832 456.588 277.859C456.808 277.872 457.03 277.883 457.251 277.891C457.423 277.902 457.595 277.911 457.767 277.917C457.8 277.92 457.833 277.922 457.865 277.922C458.153 277.935 458.439 277.948 458.724 277.954C458.947 277.961 459.167 277.97 459.387 277.974C459.638 277.983 459.888 277.989 460.137 277.991C460.357 277.998 460.579 277.998 460.8 278.002C461.033 278.004 461.266 278.007 461.499 278.007C461.722 278.009 461.942 278.009 462.162 278.007C462.284 278.009 462.404 278.007 462.526 278.004C462.661 278.004 462.794 278.004 462.927 278C463.015 278 463.102 277.998 463.189 277.996C463.276 277.996 463.361 277.993 463.448 277.991C463.57 277.989 463.692 277.987 463.815 277.985C463.845 277.985 463.876 277.985 463.906 277.983C463.969 277.983 464.03 277.98 464.094 277.978C464.183 277.976 464.27 277.974 464.36 277.972C466.077 277.926 467.782 277.832 469.472 277.691H469.476C471.423 277.532 473.35 277.308 475.257 277.027C477.319 276.723 479.358 276.347 481.368 275.905C481.4 275.898 481.435 275.89 481.47 275.883C481.468 275.892 481.466 275.9 481.464 275.909L483.356 275.446C483.62 275.383 483.881 275.317 484.143 275.252C486.628 274.623 489.065 273.892 491.454 273.063C491.856 272.924 492.252 272.785 492.649 272.639C492.747 272.604 492.847 272.567 492.945 272.53C493.689 272.261 494.426 271.98 495.156 271.686C495.664 266.7 494.711 261.524 492.108 256.809Z" fill="#FFB93E"/>
<path d="M490.258 258.171C488.697 255.343 486.628 252.962 484.228 251.089C484.004 250.913 483.777 250.743 483.548 250.578C483.443 250.5 483.334 250.423 483.227 250.352C482.959 250.16 482.685 249.977 482.408 249.803C482.26 249.71 482.111 249.616 481.961 249.525C481.691 249.36 481.416 249.201 481.139 249.051C480.854 248.892 480.566 248.739 480.274 248.596C480.001 248.459 479.729 248.33 479.452 248.206C479.147 248.067 478.839 247.937 478.527 247.815C478.257 247.704 477.982 247.599 477.708 247.502C477.677 247.491 477.651 247.48 477.621 247.471C477.224 247.33 476.823 247.201 476.419 247.082C476.241 247.027 476.064 246.977 475.885 246.929C475.613 246.855 475.34 246.786 475.066 246.725C474.418 246.575 473.766 246.453 473.108 246.357C472.836 246.318 472.563 246.285 472.288 246.255C472.208 246.246 472.123 246.235 472.04 246.229C471.868 246.211 471.693 246.198 471.521 246.185C471.519 246.185 471.519 246.185 471.519 246.185C470.941 246.142 470.361 246.118 469.779 246.118C469.505 246.118 469.23 246.124 468.957 246.133C467.527 246.181 466.095 246.364 464.676 246.683C464.401 246.744 464.127 246.812 463.854 246.886C462.3 247.295 460.765 247.871 459.276 248.622C459.032 248.746 458.788 248.874 458.546 249.007C458.515 249.024 458.485 249.04 458.454 249.059C457.186 249.764 455.997 250.571 454.901 251.481C454.825 251.54 454.751 251.6 454.676 251.666C454.434 251.868 454.201 252.077 453.968 252.29C453.687 252.547 453.414 252.81 453.146 253.082C451.313 254.938 449.806 257.092 448.69 259.472C448.686 259.476 448.684 259.481 448.684 259.485C448.673 259.505 448.664 259.524 448.655 259.544C448.165 260.595 447.748 261.689 447.415 262.823V262.87C447.404 262.89 447.393 262.901 447.382 262.931C447.003 264.156 446.737 265.479 446.591 266.721C446.591 266.724 446.591 266.724 446.591 266.726C446.591 266.728 446.591 266.728 446.591 266.73C446.591 266.732 446.591 266.732 446.591 266.734C446.591 266.737 446.591 266.737 446.591 266.739C446.591 266.741 446.591 266.741 446.591 266.743C446.591 266.745 446.591 266.745 446.591 266.747C446.591 266.75 446.591 266.75 446.591 266.752C446.591 266.754 446.591 266.754 446.591 266.756C446.591 266.758 446.591 266.758 446.591 266.761C446.591 266.763 446.591 266.763 446.591 266.765C446.591 266.767 446.591 266.767 446.591 266.769C446.591 266.771 446.591 266.771 446.591 266.774C446.591 266.776 446.591 266.776 446.591 266.778C446.591 266.78 446.591 266.78 446.591 266.782C446.591 266.784 446.591 266.784 446.591 266.787C446.591 266.789 446.591 266.789 446.591 266.791C446.591 266.793 446.591 266.793 446.591 266.795C446.591 266.798 446.591 266.798 446.591 266.8C446.591 266.802 446.591 266.802 446.591 266.804C446.591 266.806 446.591 266.806 446.591 266.808C446.591 266.811 446.591 266.811 446.591 266.813C446.591 266.815 446.591 266.815 446.591 266.817C446.591 266.819 446.591 266.819 446.591 266.821C446.591 266.824 446.591 266.824 446.591 266.826C446.591 266.828 446.591 266.828 446.591 266.83C446.591 266.832 446.591 266.832 446.591 266.835C446.591 266.837 446.591 266.837 446.591 266.839C446.591 266.841 446.591 266.841 446.591 266.843C446.591 266.845 446.591 266.845 446.591 266.848C446.591 266.85 446.591 266.85 446.591 266.852C446.591 266.854 446.591 266.854 446.591 266.856C446.591 266.858 446.591 266.858 446.591 266.861C446.591 266.863 446.591 266.863 446.591 266.865C446.591 266.867 446.591 266.867 446.591 266.869C446.591 266.871 446.591 266.871 446.591 266.874C446.591 266.876 446.591 266.876 446.591 266.878C446.591 266.88 446.591 266.88 446.591 266.882C446.591 266.885 446.591 266.885 446.591 266.887C446.591 266.889 446.591 266.889 446.591 266.891C446.591 266.893 446.591 266.893 446.591 266.895C446.591 266.898 446.591 266.898 446.591 266.9C446.591 266.902 446.591 266.902 446.591 266.904C446.591 266.906 446.591 266.906 446.591 266.908C446.591 266.911 446.591 266.911 446.591 266.913C446.591 266.915 446.591 266.915 446.591 266.917C446.591 266.919 446.591 266.919 446.591 266.922C446.591 266.924 446.591 266.924 446.591 266.926C446.569 267.117 446.549 267.313 446.534 267.507C446.478 268.166 446.449 268.823 446.449 269.48C446.449 271.436 446.698 273.379 447.193 275.272C447.212 275.352 447.236 275.433 447.258 275.513C447.389 276.003 447.539 276.488 447.705 276.971C447.86 276.995 448.019 277.019 448.174 277.041C448.235 277.051 448.298 277.06 448.359 277.067C448.435 277.078 448.511 277.088 448.586 277.099C448.812 277.132 449.039 277.165 449.266 277.193C449.181 276.967 449.098 276.74 449.022 276.512C448.906 276.183 448.801 275.85 448.703 275.515C448.607 275.18 448.518 274.93 448.437 274.593V274.506C447.89 272.219 447.72 269.863 447.936 267.509C448.062 266.117 448.326 264.726 448.723 263.351C448.891 262.779 449.076 262.216 449.288 261.665V261.663C449.564 260.928 449.883 260.214 450.236 259.518C450.236 259.513 450.238 259.509 450.242 259.505C451.036 257.94 452.01 256.487 453.148 255.169C453.412 254.862 453.685 254.562 453.97 254.27C454.87 253.33 455.865 252.471 456.935 251.701H456.937C457.024 251.637 457.109 251.574 457.199 251.516H457.216C457.624 251.228 458.025 250.956 458.456 250.7C458.707 250.545 458.962 250.4 459.219 250.258C459.239 250.247 459.259 250.236 459.278 250.228C460.756 249.418 462.291 248.8 463.854 248.361C464.127 248.283 464.401 248.213 464.676 248.146C466.093 247.806 467.53 247.612 468.96 247.56C469.23 247.549 469.5 247.543 469.771 247.543H469.779C470.028 247.543 470.278 247.547 470.527 247.556C470.527 247.556 470.527 247.556 470.529 247.556C470.782 247.565 471.039 247.578 471.292 247.597C471.626 247.619 471.959 247.652 472.288 247.689C472.563 247.719 472.836 247.756 473.106 247.8C473.764 247.9 474.418 248.028 475.064 248.189C475.22 248.228 475.377 248.27 475.534 248.311C475.652 248.341 475.768 248.376 475.885 248.409C476.175 248.491 476.465 248.583 476.753 248.676C477.073 248.783 477.392 248.898 477.708 249.018C477.985 249.125 478.257 249.236 478.527 249.351C478.839 249.486 479.147 249.627 479.452 249.775C479.729 249.91 480.001 250.051 480.274 250.197C480.566 250.354 480.854 250.519 481.137 250.689C481.414 250.854 481.686 251.026 481.959 251.207C482.109 251.305 482.257 251.407 482.406 251.509C482.502 251.577 482.6 251.644 482.696 251.714C482.698 251.714 482.698 251.714 482.698 251.714C485.242 253.55 487.426 255.958 489.039 258.878C491.459 263.262 492.292 268.229 491.457 273.09C491.858 272.95 492.255 272.811 492.651 272.665C492.75 272.63 492.85 272.593 492.948 272.557C493.624 267.598 492.704 262.605 490.258 258.171Z" fill="#FFA412"/>
<path d="M469.143 277.384C468.705 276.945 468.326 276.329 468.003 275.535L463.8 277.236C463.796 277.484 463.803 277.732 463.82 277.98C463.85 277.98 463.881 277.98 463.912 277.978C463.975 277.978 464.036 277.976 464.099 277.974C464.188 277.972 464.276 277.97 464.365 277.967C466.083 277.922 467.788 277.828 469.477 277.687C469.364 277.593 469.252 277.493 469.143 277.384ZM469.143 277.384C468.705 276.945 468.326 276.329 468.003 275.535L463.8 277.236C463.796 277.484 463.803 277.732 463.82 277.98C463.85 277.98 463.881 277.98 463.912 277.978C463.975 277.978 464.036 277.976 464.099 277.974C464.188 277.972 464.276 277.97 464.365 277.967C466.083 277.922 467.788 277.828 469.477 277.687C469.364 277.593 469.252 277.493 469.143 277.384ZM469.143 277.384C468.705 276.945 468.326 276.329 468.003 275.535L463.8 277.236C463.796 277.484 463.803 277.732 463.82 277.98C463.85 277.98 463.881 277.98 463.912 277.978C463.975 277.978 464.036 277.976 464.099 277.974C464.188 277.972 464.276 277.97 464.365 277.967C466.083 277.922 467.788 277.828 469.477 277.687C469.364 277.593 469.252 277.493 469.143 277.384ZM469.143 277.384C468.705 276.945 468.326 276.329 468.003 275.535L463.8 277.236C463.796 277.484 463.803 277.732 463.82 277.98C463.85 277.98 463.881 277.98 463.912 277.978C463.975 277.978 464.036 277.976 464.099 277.974C464.188 277.972 464.276 277.97 464.365 277.967C466.083 277.922 467.788 277.828 469.477 277.687C469.364 277.593 469.252 277.493 469.143 277.384ZM469.143 277.384C468.705 276.945 468.326 276.329 468.003 275.535L463.8 277.236C463.796 277.484 463.803 277.732 463.82 277.98C463.85 277.98 463.881 277.98 463.912 277.978C463.975 277.978 464.036 277.976 464.099 277.974C464.188 277.972 464.276 277.97 464.365 277.967C466.083 277.922 467.788 277.828 469.477 277.687C469.364 277.593 469.252 277.493 469.143 277.384ZM469.143 277.384C468.705 276.945 468.326 276.329 468.003 275.535L463.8 277.236C463.796 277.484 463.803 277.732 463.82 277.98C463.85 277.98 463.881 277.98 463.912 277.978C463.975 277.978 464.036 277.976 464.099 277.974C464.188 277.972 464.276 277.97 464.365 277.967C466.083 277.922 467.788 277.828 469.477 277.687C469.364 277.593 469.252 277.493 469.143 277.384ZM481.486 272.841C481.395 272.446 481.266 272.045 481.101 271.638C480.968 271.312 480.824 271.005 480.667 270.718C480.525 270.464 480.377 270.222 480.218 270C480.207 269.983 480.194 269.967 480.181 269.95V269.948C479.941 269.615 479.679 269.321 479.396 269.065C479.391 269.06 479.389 269.058 479.387 269.056C479.119 268.812 478.836 268.59 478.533 268.39C478.271 268.223 477.998 268.068 477.713 267.931C477.464 267.811 477.207 267.707 476.941 267.616C476.891 267.598 476.839 267.581 476.786 267.566C476.706 267.537 476.623 267.511 476.54 267.487C476.538 267.485 476.538 267.485 476.538 267.485C476.538 267.485 476.538 267.485 476.536 267.485C476.505 267.476 476.475 267.468 476.444 267.461C475.675 267.239 474.84 267.098 473.935 267.037C473.902 267.032 473.865 267.03 473.83 267.03C473.595 267.015 473.357 267.004 473.113 266.993C472.171 266.956 471.166 266.952 470.098 266.98C469.638 266.995 469.215 266.998 468.832 266.987C468.537 266.98 468.263 266.963 468.01 266.941C467.995 266.939 467.979 266.939 467.966 266.937C467.378 266.882 466.876 266.774 466.466 266.61C466.054 266.445 465.721 266.219 465.466 265.934C465.209 265.647 464.997 265.298 464.829 264.885C464.812 264.842 464.797 264.8 464.781 264.757C464.644 264.387 464.566 264.019 464.542 263.654C464.528 263.438 464.539 263.232 464.574 263.029C464.605 262.849 464.655 262.67 464.725 262.498C464.871 262.135 465.108 261.798 465.438 261.489C465.614 261.324 465.819 261.173 466.057 261.034C466.262 260.91 466.495 260.799 466.745 260.695C467.179 260.519 467.604 260.421 468.012 260.403C468.014 260.403 468.016 260.403 468.016 260.403C468.295 260.39 468.568 260.414 468.836 260.475C469.076 260.527 469.311 260.61 469.542 260.723C470.408 261.147 471.114 262.028 471.659 263.369L473.118 262.779L473.939 262.446L476.449 261.43L476.878 261.256C476.745 260.928 476.601 260.614 476.451 260.316V260.229C476.302 259.951 476.146 259.753 475.978 259.494C475.975 259.487 475.971 259.485 475.969 259.481C475.923 259.407 475.875 259.335 475.825 259.265C475.622 258.965 475.402 258.687 475.173 258.428C475.103 258.349 475.036 258.275 474.96 258.201V258.197C474.7 257.925 474.426 257.677 474.14 257.453C473.846 257.22 473.538 257.014 473.216 256.833C473.098 256.763 472.978 256.702 472.858 256.642C472.706 256.568 472.551 256.498 472.396 256.437C472.019 256.285 471.633 256.165 471.23 256.074C471.014 256.026 470.798 255.989 470.576 255.958C470.406 255.934 470.233 255.917 470.059 255.904C469.996 255.9 469.935 255.897 469.872 255.895C469.832 255.891 469.793 255.889 469.754 255.889C469.117 255.867 468.465 255.913 467.798 256.03C467.528 256.076 467.253 256.137 466.977 256.209C466.953 256.213 466.931 256.219 466.907 256.226L466.73 255.791L465.9 253.75L465.429 252.593L464.47 252.982L463.648 253.313L462.538 253.763L463.646 256.491L463.724 256.683L463.994 257.349C463.877 257.41 463.759 257.473 463.646 257.538C463.279 257.74 462.935 257.951 462.612 258.18H462.61C462.144 258.506 461.721 258.856 461.341 259.233C461.261 259.313 461.18 259.396 461.104 259.476C461.097 259.481 461.095 259.483 461.091 259.489C460.485 260.133 460.009 260.821 459.665 261.556C459.491 261.928 459.353 262.311 459.253 262.699C459.253 262.701 459.253 262.701 459.253 262.701C459.129 263.182 459.061 263.678 459.048 264.185C459.031 265.103 459.214 266.036 459.597 266.985C459.667 267.154 459.741 267.322 459.815 267.481C459.815 267.483 459.815 267.483 459.815 267.483C460.007 267.883 460.216 268.251 460.448 268.582C460.511 268.673 460.576 268.764 460.644 268.849C460.829 269.093 461.03 269.315 461.243 269.517L461.315 269.585C461.564 269.811 461.827 270.02 462.107 270.205C462.366 270.381 462.641 270.537 462.926 270.677C463.192 270.807 463.469 270.918 463.759 271.016C464.374 271.225 465.039 271.379 465.754 271.475C466.113 271.525 466.486 271.56 466.872 271.582C466.983 271.588 467.096 271.593 467.212 271.599C467.478 271.61 467.753 271.619 468.032 271.623C468.825 271.638 469.66 271.625 470.541 271.584C470.565 271.582 470.591 271.582 470.615 271.58C470.874 271.564 471.125 271.556 471.36 271.551C471.836 271.545 472.265 271.558 472.651 271.595C472.886 271.614 473.109 271.647 473.316 271.688C473.617 271.745 473.889 271.825 474.138 271.923C474.14 271.923 474.142 271.926 474.144 271.926C474.563 272.093 474.912 272.33 475.189 272.635C475.468 272.937 475.701 273.325 475.89 273.792C475.917 273.84 475.938 273.862 475.962 273.897V273.984C476.082 274.334 476.141 274.68 476.141 275.028C476.141 275.189 476.126 275.348 476.098 275.505C476.054 275.744 475.975 275.979 475.862 276.203C475.718 276.494 475.515 276.771 475.258 277.03C477.321 276.725 479.359 276.349 481.369 275.907C481.401 275.9 481.436 275.892 481.471 275.885C481.506 275.746 481.537 275.607 481.561 275.463C481.615 275.148 481.65 274.828 481.659 274.499C481.676 273.953 481.617 273.403 481.486 272.841ZM469.143 277.384C468.705 276.945 468.326 276.329 468.003 275.535L463.8 277.236C463.796 277.484 463.803 277.732 463.82 277.98C463.85 277.98 463.881 277.98 463.912 277.978C463.975 277.978 464.036 277.976 464.099 277.974C464.188 277.972 464.276 277.97 464.365 277.967C466.083 277.922 467.788 277.828 469.477 277.687C469.364 277.593 469.252 277.493 469.143 277.384ZM469.143 277.384C468.705 276.945 468.326 276.329 468.003 275.535L463.8 277.236C463.796 277.484 463.803 277.732 463.82 277.98C463.85 277.98 463.881 277.98 463.912 277.978C463.975 277.978 464.036 277.976 464.099 277.974C464.188 277.972 464.276 277.97 464.365 277.967C466.083 277.922 467.788 277.828 469.477 277.687C469.364 277.593 469.252 277.493 469.143 277.384ZM469.143 277.384C468.705 276.945 468.326 276.329 468.003 275.535L463.8 277.236C463.796 277.484 463.803 277.732 463.82 277.98C463.85 277.98 463.881 277.98 463.912 277.978C463.975 277.978 464.036 277.976 464.099 277.974C464.188 277.972 464.276 277.97 464.365 277.967C466.083 277.922 467.788 277.828 469.477 277.687C469.364 277.593 469.252 277.493 469.143 277.384ZM469.143 277.384C468.705 276.945 468.326 276.329 468.003 275.535L463.8 277.236C463.796 277.484 463.803 277.732 463.82 277.98C463.85 277.98 463.881 277.98 463.912 277.978C463.975 277.978 464.036 277.976 464.099 277.974C464.188 277.972 464.276 277.97 464.365 277.967C466.083 277.922 467.788 277.828 469.477 277.687C469.364 277.593 469.252 277.493 469.143 277.384ZM469.143 277.384C468.705 276.945 468.326 276.329 468.003 275.535L463.8 277.236C463.796 277.484 463.803 277.732 463.82 277.98C463.85 277.98 463.881 277.98 463.912 277.978C463.975 277.978 464.036 277.976 464.099 277.974C464.188 277.972 464.276 277.97 464.365 277.967C466.083 277.922 467.788 277.828 469.477 277.687C469.364 277.593 469.252 277.493 469.143 277.384ZM469.143 277.384C468.705 276.945 468.326 276.329 468.003 275.535L463.8 277.236C463.796 277.484 463.803 277.732 463.82 277.98C463.85 277.98 463.881 277.98 463.912 277.978C463.975 277.978 464.036 277.976 464.099 277.974C464.188 277.972 464.276 277.97 464.365 277.967C466.083 277.922 467.788 277.828 469.477 277.687C469.364 277.593 469.252 277.493 469.143 277.384ZM469.143 277.384C468.705 276.945 468.326 276.329 468.003 275.535L463.8 277.236L462.782 277.648C462.83 277.765 462.878 277.883 462.931 277.996C463.018 277.996 463.105 277.993 463.192 277.991C463.279 277.991 463.364 277.989 463.452 277.987C463.574 277.985 463.696 277.983 463.818 277.98C463.848 277.98 463.879 277.98 463.909 277.978C463.973 277.978 464.034 277.976 464.097 277.974C464.186 277.972 464.273 277.97 464.363 277.967C466.081 277.922 467.785 277.828 469.475 277.687C469.364 277.593 469.252 277.493 469.143 277.384Z" fill="#FFA412"/>
</g>
<g clip-path="url(#clip1_761_251045)">
<path d="M698.699 269.732C698.699 269.732 698.008 280.821 695.856 280.979C695.571 281 684.935 281 684.935 281L671.359 280.922C671.359 280.922 671.448 277.663 675.416 276.973C679.384 276.285 686.027 273.506 688.429 268.279C690.96 262.783 698.699 269.732 698.699 269.732Z" fill="#163560"/>
<path d="M705.947 138.594C705.947 138.594 699.537 142.223 697.744 142.223C695.95 142.223 688.908 140.868 686.945 141.867C684.981 142.866 681.429 146.887 680.761 148.202C679.562 150.562 685.587 149.52 688.436 147.507C688.85 147.215 689.365 147.108 689.859 147.215C691.333 147.536 694.399 148.09 695.877 147.544C697.866 146.811 708.347 145.995 708.347 145.995L705.947 138.594Z" fill="#ED975D"/>
<path d="M754.704 89.141C754.704 89.141 748.061 136.187 737.059 140.4C731.632 142.479 707.642 147.192 700.546 147.666C700.546 147.666 698.807 146.261 699.231 140.542C699.231 140.542 724.364 131.349 727.935 126.349C733.249 118.908 724.635 95.9493 731.303 88.9618C737.971 81.9721 749.202 78.9687 754.704 89.141Z" fill="#ED7D2B"/>
<path d="M752.464 188.258C750.526 191.534 748.285 194.603 745.974 197.51C738.832 206.492 731.06 213.897 729.706 220.897C729.437 222.292 729.009 223.796 728.451 225.378C727.884 226.98 727.185 228.668 726.379 230.41C723.348 236.967 718.818 244.315 714.294 250.996C706.472 262.542 700.071 270.29 700.071 270.29C700.071 270.29 698.02 271.884 692.154 271.882C690.523 271.882 685.027 270.99 685.027 270.99C685.567 269.643 692.053 254.315 699.922 234.831C703.119 226.923 706.516 218.508 709.795 210.395C710.231 209.312 710.667 208.232 711.102 207.163C712.104 204.681 713.091 202.236 714.054 199.856C721.444 181.561 727.328 166.993 727.328 166.993C727.328 166.993 756.859 155.846 759.926 163.069C762.454 169.024 760.395 174.858 752.464 188.258Z" fill="#599DAD"/>
<path d="M729.929 238.053C729.929 238.053 739.31 244.058 738.4 246.009C738.278 246.268 733.095 255.52 733.095 255.52L726.408 267.291C726.408 267.291 723.596 265.624 724.926 261.838C726.257 258.049 727.059 250.918 723.652 246.279C720.067 241.4 729.929 238.053 729.929 238.053Z" fill="#163560"/>
<path d="M724.596 249.568C724.596 249.568 731.2 243.458 732.233 239.678C732.233 239.678 708.076 210.84 702.835 204.376C702.595 204.079 702.655 203.754 702.973 203.397C706.928 198.952 750.885 189.917 756.629 181.011C758.61 177.944 759.73 175.029 760.34 172.485C761.643 167.051 760.613 163.297 760.613 163.297L716.714 162.032C716.714 162.032 680.163 184.707 676.024 200.167C671.889 215.63 724.596 249.568 724.596 249.568Z" fill="#6BB7BF"/>
<path d="M702.977 203.397C706.932 198.952 750.889 189.917 756.632 181.011C758.613 177.944 759.734 175.029 760.344 172.485V166.95L741.686 164.026C741.686 164.026 736.395 180.247 720.725 186.33C706.049 192.028 703.27 202.137 702.977 203.397Z" fill="#5AA9AD"/>
<path d="M728.73 86.1767C737.611 88.4633 752.334 80.2665 752.334 80.2665C752.334 80.2665 746.617 76.439 744.498 68.03C744.39 67.6057 744.295 67.1731 744.206 66.7261C743.276 66.5304 741.523 66.1575 739.645 65.764L732.862 71.8184C732.862 71.8184 733.017 74.3337 733.864 78.6535C734.011 79.4075 734.181 80.2171 734.375 81.0782C730.736 83.3236 728.73 86.1767 728.73 86.1767Z" fill="#FFB27D"/>
<path d="M761.735 122.851C760.463 139.898 762.136 165.821 760.693 170.312C759.448 174.184 745.258 171.881 739.593 170.59C737.497 170.112 734.958 169.428 732.334 168.618C725.019 166.36 717.048 163.139 716.192 160.747C716.159 160.652 716.13 160.561 716.114 160.471C716.035 160.123 716.052 159.797 716.13 159.468C716.416 158.248 717.514 156.93 717.644 153.91C717.789 150.537 717.766 146.568 717.894 142.3C717.9 141.82 717.906 141.294 717.96 140.816L717.962 140.641C717.964 140.549 717.966 140.46 717.968 140.367C718.09 135.607 718.341 130.601 718.63 125.638C718.814 122.521 719.027 119.433 719.273 116.475C719.912 108.839 720.77 102.049 721.909 97.7559C723.768 90.7581 727.87 86.1931 731.602 82.8497L734.302 80.5425C737.315 81.1976 740.877 80.7629 744.099 79.2426C747.584 77.5926 748.79 76.4122 749.396 76.8571C757.445 83.0475 763.236 102.012 761.735 122.851Z" fill="#3E1BDB"/>
<path d="M732.337 168.618C725.022 166.36 717.052 163.139 716.196 160.747C716.163 160.652 716.134 160.562 716.117 160.471C716.121 160.137 716.125 159.801 716.134 159.468C716.419 158.248 717.517 156.93 717.647 153.91C717.792 150.538 717.769 146.568 717.897 142.3C717.904 141.82 717.91 141.294 717.964 140.816L717.966 140.641C717.968 140.549 717.97 140.46 717.972 140.367L747.547 102.828C747.542 102.83 767.422 144.075 732.337 168.618Z" fill="#200A84"/>
<path d="M732.863 71.8163C732.863 71.8163 733.018 74.3316 733.866 78.6514C740.491 76.5193 743.495 70.5577 744.498 68.028C744.39 67.6036 744.295 67.171 744.206 66.724C743.276 66.5283 741.522 66.1554 739.645 65.762L732.863 71.8163Z" fill="#ED975D"/>
<path d="M731.972 75.6273C731.972 75.6273 746.416 73.2254 744.776 64.2849C743.137 55.3445 743.898 49.0141 734.604 50.1697C725.312 51.3254 724.15 55.0623 723.97 58.1791C723.788 61.2958 728.172 76.0208 731.972 75.6273Z" fill="#FFB27D"/>
<path d="M710.588 149.553L674.527 150.319L664.274 118.883L663 119.295L673.838 152.53L710.633 151.747L710.588 149.553Z" fill="#4A75CB"/>
<path d="M709.897 153.496C709.897 153.496 698.074 156.602 693.639 156.275C689.206 155.949 685.518 153.848 684.959 152.75C684.401 151.654 683.229 149.707 686.247 150.068C689.266 150.426 693.387 151.067 693.515 150.488C693.643 149.911 691.055 149.965 691.055 149.965C691.055 149.965 690.273 148.832 691.257 148.791C692.241 148.749 695.115 147.973 696.184 148.504C697.251 149.036 698.237 150.999 699.017 150.917C699.796 150.834 708.91 146.827 708.91 146.827L709.897 153.496Z" fill="#FFB27D"/>
<path d="M751.773 91.0712C751.773 91.0712 750.375 138.561 739.907 143.958C734.742 146.621 711.42 153.941 704.419 155.191C704.419 155.191 702.535 153.986 702.324 148.255C702.324 148.255 726.288 136.356 729.283 130.994C733.741 123.016 722.64 101.143 728.496 93.465C734.349 85.7852 745.179 81.5663 751.773 91.0712Z" fill="#3E1BDB"/>
<path d="M744.501 68.028C744.501 68.028 744.666 64.9606 742.766 63.2034C742.766 63.2034 743.428 60.1278 742.206 59.6211C740.984 59.1143 740.73 61.6996 740.172 61.2938C739.611 60.888 737.12 58.9619 736.051 56.1232C734.982 53.2845 725.204 56.7226 724.065 57.2335C722.926 57.7444 719.262 55.8698 718.551 54.3495C718.551 54.3495 720.585 52.7283 721.501 51.5108C722.417 50.2933 728.827 42.0821 737.781 44.4141C746.736 46.746 747.956 51.0041 747.447 54.6544C746.939 58.3047 748.167 66.8043 744.501 68.028Z" fill="#2B478B"/>
<path d="M788.191 279.723C782.551 273.982 772.612 270.028 761.133 269.563V250.578H778.87C779.309 250.578 779.702 250.197 779.952 249.608C780.125 249.196 780.229 248.683 780.229 248.126V247.269C780.229 245.92 779.617 244.818 778.87 244.818H761.133V199.601C761.133 198.352 760.107 197.331 758.854 197.331C757.601 197.331 756.576 198.352 756.576 199.601V244.818H738.838C738.091 244.818 737.479 245.922 737.479 247.269V248.126C737.479 248.701 737.591 249.231 737.775 249.649C738.023 250.215 738.408 250.578 738.838 250.578H756.576V269.563C745.096 270.028 735.158 273.98 729.517 279.723C729.108 280.139 728.721 280.565 728.359 281H789.353C788.987 280.565 788.601 280.141 788.191 279.723Z" fill="#D39E7A"/>
<path d="M761.13 269.649C753.12 270.389 746.235 274.241 742.25 279.725C741.947 280.143 741.661 280.567 741.392 281.002H735.75C736.019 280.567 736.304 280.143 736.608 279.725C741.053 273.605 749.109 269.52 758.307 269.52C759.263 269.52 760.203 269.563 761.13 269.649Z" fill="#E0B594"/>
<path d="M788.265 182.128H727.864C726.359 182.128 725.129 183.356 725.129 184.853V196.259C725.129 197.759 726.361 198.985 727.864 198.985H788.263C789.768 198.985 790.998 197.757 790.998 196.259V184.853C791 183.356 789.77 182.128 788.265 182.128Z" fill="#ED7D2B"/>
</g>
<g clip-path="url(#clip2_761_251045)">
<path d="M208.532 97.1574C207.533 99.8442 205.803 102.963 203.986 103.739C201.927 104.618 201.067 105.86 201.067 105.86L199.404 104.893L197.418 103.739C197.418 103.739 197.465 103.518 197.563 103.159C197.659 102.802 197.807 102.302 198.009 101.75C198.009 101.75 198.619 100.966 198.246 99.9808C197.873 98.9975 197.948 97.4777 198.584 96.5495C199.222 95.6233 199.836 93.3405 200.219 93.4078C201.149 93.5669 199.762 96.7045 200.16 97.288C200.519 97.8143 200.969 97.6328 201.053 97.594C201.059 97.5899 201.063 97.5879 201.069 97.5858C203.674 96.4393 206.836 90.258 208.235 91.0924C208.757 91.4045 208.958 96.013 208.532 97.1574Z" fill="#FFB27D"/>
<path d="M199.517 100.901L202.781 103.196C203.012 103.357 203.334 103.302 203.495 103.071L211.857 91.1637C212.018 90.9332 211.963 90.6109 211.733 90.4497L208.469 88.1547C208.238 87.9915 207.916 88.0486 207.755 88.2791L199.393 100.187C199.232 100.417 199.287 100.738 199.517 100.901Z" fill="#2B478B"/>
<path d="M202.505 103.002L204.42 104.349C204.595 104.471 204.84 104.43 204.964 104.253L213.465 92.145C213.589 91.9695 213.546 91.7247 213.371 91.6023L211.457 90.2559C211.281 90.1315 211.037 90.1743 210.912 90.3497L202.41 102.457C202.287 102.633 202.33 102.878 202.505 103.002Z" fill="#233862"/>
<path d="M152.687 83.8135C152.687 83.8135 169.298 112.805 175.324 118.139L197.418 101.656C197.418 101.656 200.625 102.639 202.027 105.86C202.027 105.86 188.609 133.215 175.399 134.376C162.189 135.535 143.648 101.588 143.648 101.588L152.687 83.8135Z" fill="#233862"/>
<path d="M115.102 281H105.505C104.296 280.343 103.219 278.84 102.879 276.6C102.41 273.505 98.9445 271.818 98.1943 269.288C97.4462 266.758 101.287 263.197 101.287 263.197L101.929 262.368L102.598 261.509L108.968 263.011C108.968 263.011 109.125 264.529 109.221 266.463C109.29 267.858 109.327 269.47 109.25 270.883C109.062 274.258 110.191 277.891 113.188 278.548C115.404 279.031 115.304 280.345 115.102 281Z" fill="#233862"/>
<path d="M170.798 281H148.851C147.795 279.711 148.185 274.953 148.344 273.401C148.376 273.089 148.399 272.905 148.399 272.905C148.399 272.905 155.892 266.905 156.922 271.5C156.952 271.644 156.991 271.785 157.034 271.924C158.331 276.22 164.149 278.173 167.508 278.717C169.692 279.07 170.499 280.206 170.798 281Z" fill="#233862"/>
<path d="M166.618 158.404C166.618 158.404 165.48 172.612 164.143 189.692C162.325 212.893 160.139 241.393 159.923 246.79C159.55 256.167 158.05 271.161 158.05 271.161C158.05 271.161 154.492 274.723 147.372 273.221C147.372 273.221 141.028 251.815 139.215 229.165C139.187 228.793 139.158 228.42 139.132 228.045C137.446 204.986 134.824 156.433 134.824 156.433L166.618 158.404Z" fill="#1D3163"/>
<path d="M166.616 158.404C166.616 158.404 165.478 172.612 164.141 189.692L139.211 229.167C139.183 228.795 139.154 228.422 139.128 228.047C137.442 204.988 134.82 156.435 134.82 156.435L166.616 158.404Z" fill="#110B33"/>
<path d="M161.417 160.091C161.417 160.091 140.905 211.549 127.418 235.731C113.93 259.914 109.715 266.663 109.715 266.663C109.715 266.663 101.986 263.57 101.285 261.46C101.285 261.46 106.443 214.774 115.476 203.395C120.58 196.964 126.576 177.666 126.855 170.917C127.136 164.169 128.682 150.813 128.682 150.813L161.417 160.091Z" fill="#1D3163"/>
<path d="M156.31 85.0742C148.294 87.6059 134.426 80.7738 134.426 80.7738C134.426 80.7738 141.816 75.2228 141.428 63.6823L147.626 68.6804L151.835 72.075C151.835 72.075 151.819 74.0763 151.358 77.5832C151.236 78.5053 151.085 79.5334 150.895 80.6575C154.337 82.5507 156.31 85.0742 156.31 85.0742Z" fill="#FFB27D"/>
<path d="M151.836 72.0771C151.836 72.0771 151.819 74.0784 151.359 77.5852C146.694 76.7835 141.402 69.2394 141.402 69.2394C143.777 68.5539 145.857 68.4295 147.626 68.6824L151.836 72.0771Z" fill="#ED975D"/>
<path d="M154.29 71.8853C154.29 71.8853 141.049 74.0865 139.808 65.8142C138.564 57.5418 136.018 52.254 144.419 50.4996C152.82 48.7451 154.94 51.6542 156.027 54.3144C157.113 56.9747 157.702 71.0999 154.29 71.8853Z" fill="#FFB27D"/>
<path d="M167.498 159.587C167.257 159.787 166.976 159.909 166.656 159.909C163.645 159.868 154.869 161.541 147.44 160.778C141.18 160.176 135.637 158.32 129.686 155.652C128.895 155.297 127.077 154.326 127.118 153.442C127.144 152.475 127.24 151.07 127.36 149.303C127.782 143.156 128.516 132.583 127.801 120.383C127.672 118.113 127.605 115.858 127.597 113.641C127.536 97.1085 130.812 82.567 137.394 77.6464C137.957 77.2425 141.408 78.9317 144.58 80.4964C147.512 81.9428 150.441 82.1019 153.21 81.5409L155.978 83.991C159.35 87.1245 163.044 91.3821 164.648 97.849C166.014 103.351 166.815 113.274 167.257 123.558C167.457 128.217 167.62 132.917 167.661 137.377V137.536C167.7 137.979 167.7 138.46 167.7 138.903C167.861 150.347 167.7 159.426 167.498 159.587Z" fill="#2B478B"/>
<path d="M127.363 149.299C127.785 143.152 128.519 132.579 127.804 120.379C127.675 118.109 127.608 115.854 127.6 113.637C130.342 106.98 132.584 102.153 132.584 102.153H139.495C139.493 102.153 144.561 136.789 127.363 149.299Z" fill="#233862"/>
<path d="M125.244 166.013L95.766 161.81C91.9294 161.264 88.3435 163.957 87.7972 167.796L85.9767 180.579C85.4304 184.418 88.1213 188.007 91.9579 188.553L121.436 192.758C125.272 193.305 128.858 190.612 129.404 186.772L131.225 173.99C131.771 170.15 129.08 166.56 125.244 166.013Z" fill="#233862"/>
<path d="M126.909 169.824C126.081 167.747 124.293 166.109 122.024 165.554H122.022C122.02 165.554 122.018 165.554 122.016 165.552C121.794 165.499 121.568 165.452 121.335 165.419L115.466 164.583L115.858 161.825C115.945 161.209 115.788 160.595 115.413 160.095C115.038 159.597 114.492 159.271 113.876 159.185L112.345 158.967L106.183 158.087L105.071 157.928C103.799 157.747 102.613 158.636 102.434 159.911L102.042 162.669L91.9104 161.223C88.0596 160.674 84.4615 163.377 83.9111 167.231L82.0702 180.163C81.5239 184.018 84.225 187.619 88.0759 188.17L117.501 192.368C118.021 192.444 118.534 192.456 119.036 192.417H119.038C119.04 192.417 119.04 192.417 119.042 192.417C119.847 192.356 120.622 192.154 121.339 191.838C123.502 190.883 125.145 188.863 125.502 186.36L127.345 173.431C127.52 172.166 127.351 170.934 126.909 169.824ZM103.883 160.117C103.938 159.732 104.24 159.44 104.607 159.381C104.692 159.366 104.778 159.364 104.87 159.377L106.178 159.562L111.028 160.256L113.672 160.633C114.147 160.701 114.48 161.143 114.412 161.619L114.021 164.377L103.492 162.873L103.883 160.117Z" fill="#2B478B"/>
<path d="M112.733 153.862C112.741 153.705 112.749 153.544 112.762 153.377C112.823 152.553 114.372 150.488 114.372 150.488L110.491 148.473L108.954 151.015C106.634 152.863 106.591 152.895 107.013 156.435C107.38 159.503 105.374 159.54 105.423 161.729C105.47 163.92 108.291 162.843 108.291 162.843C112.662 160.788 113.025 159.756 112.89 157.673C113.304 158.263 113.769 158.606 114.162 158.349C114.509 158.122 113.816 157.227 113.514 155.15C113.471 154.84 113.104 154.319 112.733 153.862Z" fill="#FFB27D"/>
<path d="M110.436 152.071C112.925 152.557 115.622 152.361 115.622 152.361C115.622 152.361 123.012 129.519 123.962 127.432C124.914 125.345 145.91 100.648 145.91 100.648L137.164 78.7419C137.164 78.7419 114.454 116.703 112.149 122.038C108.339 130.853 107.016 150.615 107.016 150.615C107.016 150.615 108.481 151.69 110.436 152.071Z" fill="#2B478B"/>
<path d="M139.796 65.0185C139.796 65.0185 141.154 64.7921 140.936 62.9193C140.715 61.0466 140.72 58.5985 142.24 59.0555C143.761 59.5125 143.836 60.7304 144.462 60.0184C145.088 59.3064 145.098 56.3076 149.626 56.0995C154.154 55.8914 155.993 57.4683 158.098 56.5422C160.204 55.616 160.314 52.4274 160.314 52.4274C160.314 52.4274 159.715 53.5657 158.812 53.9289C158.812 53.9289 162.324 49.1205 158.257 45.8238C154.19 42.5271 150.044 44.6854 147.691 44.8282C142.507 45.1424 139.158 45.4545 137.464 48.8634C135.77 52.2703 136.467 61.7361 139.796 65.0185Z" fill="#2B478B"/>
</g>
<g clip-path="url(#clip3_761_251045)">
<path d="M270.325 251.05C270.325 251.05 265.467 245.443 270.026 241.881C270.026 241.881 273.355 239.887 276.07 240.049C276.07 240.049 272.223 246.429 273.468 247.064C274.714 247.699 277.236 239.648 277.236 239.648C277.236 239.648 284.813 238.922 287.25 240.08C287.25 240.08 280.772 245.323 282.137 245.636C283.501 245.948 290.497 240.801 290.497 240.801C290.497 240.801 297.549 241.988 297.173 246.244C296.797 250.499 294.367 251.814 293.299 251.7C292.231 251.587 285.985 249.227 285.848 250.093C285.712 250.959 289.473 253.787 292.106 253.92C292.106 253.92 287.135 259.344 283.83 257.778C280.525 256.212 280.243 253.731 278.184 252.8C276.124 251.869 274.366 251.872 275.216 252.82C276.067 253.77 279.794 254.693 280.972 256.754C282.15 258.816 283.207 260.206 279.787 259.697C276.369 259.187 270.812 256.713 270.568 253.879C270.325 251.05 270.325 251.05 270.325 251.05Z" fill="#82B378"/>
<path d="M293.709 246.361C293.709 246.361 274.556 245.631 270.326 251.05C270.326 251.05 269.39 253.822 266.511 256.345L266.062 257.554C266.062 257.554 269.381 254.092 270.569 253.882C270.569 253.884 268.713 247.169 293.709 246.361Z" fill="#82B378"/>
<path d="M266.514 256.345C266.514 256.345 262.404 259.353 262.117 264.727L262.863 264.792C262.863 264.792 264.177 259.236 266.549 257.062C268.924 254.891 266.514 256.345 266.514 256.345Z" fill="#82B378"/>
<path d="M253.344 244C253.344 244 261.072 239.718 257.465 233.909C257.465 233.909 254.581 230.342 251.488 229.425C251.488 229.425 253.137 238.089 251.488 238.292C249.839 238.497 250.354 228.508 250.354 228.508C250.354 228.508 242.217 224.632 239.023 224.939C239.023 224.939 244.071 233.398 242.424 233.195C240.775 232.992 235.109 224.429 235.109 224.429C235.109 224.429 226.762 222.899 225.423 227.793C224.083 232.686 226.247 235.133 227.484 235.437C228.721 235.743 236.654 235.64 236.447 236.661C236.24 237.679 230.883 239.311 227.896 238.393C227.896 238.393 231.194 246.445 235.52 246.037C239.848 245.629 241.187 242.979 243.866 242.776C246.545 242.573 248.501 243.286 247.162 244C245.823 244.714 241.29 244.234 239.126 246.053C236.962 247.873 235.21 248.993 239.228 249.809C243.247 250.625 250.458 250.115 251.902 247.058C253.344 244 253.344 244 253.344 244Z" fill="#A8D29F"/>
<path d="M229.238 229.321C229.238 229.321 250.875 236.253 253.347 243.998C253.347 243.998 253.244 247.464 255.408 251.439V252.968C255.408 252.968 253.142 247.77 251.905 247.056C251.905 247.058 256.748 240.329 229.238 229.321Z" fill="#82B378"/>
<path d="M255.409 251.44C255.409 251.44 258.745 256.453 256.844 262.555L255.985 262.326C255.985 262.326 256.818 255.605 255.072 252.225C253.327 248.845 255.409 251.44 255.409 251.44Z" fill="#82B378"/>
<path d="M265.638 238.096C265.638 238.096 255.452 232.453 260.205 224.794C260.205 224.794 264.008 220.091 268.083 218.883C268.083 218.883 265.911 230.304 268.083 230.572C270.256 230.841 269.578 217.673 269.578 217.673C269.578 217.673 280.306 212.568 284.518 212.971C284.518 212.971 277.863 224.123 280.035 223.853C282.208 223.584 289.679 212.298 289.679 212.298C289.679 212.298 300.681 210.283 302.446 216.732C304.212 223.182 301.359 226.406 299.729 226.809C298.099 227.212 287.642 227.078 287.913 228.421C288.184 229.765 295.247 231.915 299.186 230.705C299.186 230.705 294.839 241.319 289.136 240.782C283.432 240.245 281.667 236.752 278.134 236.482C274.603 236.213 272.021 237.153 273.787 238.094C275.553 239.034 281.529 238.402 284.38 240.801C287.233 243.2 289.541 244.678 284.245 245.753C278.948 246.829 269.44 246.156 267.539 242.126C265.638 238.096 265.638 238.096 265.638 238.096Z" fill="#A8D29F"/>
<path d="M297.416 218.747C297.416 218.747 268.895 227.883 265.635 238.094C265.635 238.094 265.771 242.663 262.918 247.902V249.917C262.918 249.917 265.906 243.065 267.536 242.124C267.538 242.126 261.154 233.259 297.416 218.747Z" fill="#82B378"/>
<path d="M262.922 247.902C262.922 247.902 258.522 254.51 261.031 262.553L262.163 262.252C262.163 262.252 261.066 253.393 263.367 248.937C265.666 244.483 262.922 247.902 262.922 247.902Z" fill="#82B378"/>
<path d="M265.297 279.997C276.316 279.997 285.25 271.159 285.25 260.258H245.344C245.344 271.159 254.278 279.997 265.297 279.997Z" fill="#F1A34F"/>
<path d="M270.204 279.845C269.391 279.945 268.565 279.997 267.725 279.997C256.705 279.997 247.773 271.159 247.773 260.258H252.731C252.729 270.329 260.353 278.637 270.204 279.845Z" fill="#FFB973"/>
<path d="M285.524 281H245.066C245.066 279.654 246.169 278.565 247.528 278.565H283.061C284.421 278.565 285.524 279.656 285.524 281Z" fill="#F1A34F"/>
<path d="M285.703 260.258H244.688V260.863H285.703V260.258Z" fill="#D86713"/>
</g>
<defs>
<clipPath id="clip0_761_251045">
<rect width="205" height="194" fill="white" transform="translate(343 84)"/>
</clipPath>
<clipPath id="clip1_761_251045">
<rect width="128" height="237" fill="white" transform="translate(663 44)"/>
</clipPath>
<clipPath id="clip2_761_251045">
<rect width="131.535" height="237" fill="white" transform="translate(82 44)"/>
</clipPath>
<clipPath id="clip3_761_251045">
<rect width="78" height="69" fill="white" transform="translate(225 212)"/>
</clipPath>
</defs>
</svg>
