<svg width="629" height="719" viewBox="0 0 629 719" fill="none" xmlns="http://www.w3.org/2000/svg">
<g opacity="0.3">
<path d="M283.024 380.297L492.388 597.908L267.441 618.264L58.0779 400.654L283.024 380.297Z" stroke="#8F9294" stroke-width="0.8412" stroke-miterlimit="10" stroke-linecap="round" stroke-linejoin="round"/>
<path d="M283.024 380.297L492.388 597.908L267.441 618.264L58.0779 400.654L283.024 380.297Z" stroke="#8F9294" stroke-width="0.8412" stroke-miterlimit="10" stroke-linecap="round" stroke-linejoin="round"/>
<path d="M443.96 94.6725L653.285 312.273L428.376 332.639L219.013 115.029L443.96 94.6725Z" stroke="#8F9294" stroke-width="0.8412" stroke-miterlimit="10" stroke-linecap="round" stroke-linejoin="round"/>
<path d="M443.96 94.6725L653.285 312.273L428.376 332.639L219.013 115.029L443.96 94.6725Z" stroke="#8F9294" stroke-width="0.8412" stroke-miterlimit="10" stroke-linecap="round" stroke-linejoin="round"/>
<path d="M448.342 96.4809L653.925 309.657L488.727 602.317L283.107 389.131L448.342 96.4809Z" stroke="#8F9294" stroke-width="0.8412" stroke-miterlimit="10" stroke-linecap="round" stroke-linejoin="round"/>
<path d="M448.342 96.4809L653.925 309.657L488.727 602.317L283.107 389.131L448.342 96.4809Z" stroke="#8F9294" stroke-width="0.8412" stroke-miterlimit="10" stroke-linecap="round" stroke-linejoin="round"/>
<path d="M428.3 323.804L263.065 616.455L57.4443 403.269L222.68 110.618L428.3 323.804Z" stroke="#8F9294" stroke-width="0.8412" stroke-miterlimit="10" stroke-linecap="round" stroke-linejoin="round"/>
<path d="M428.3 323.804L263.065 616.455L57.4443 403.269L222.68 110.618L428.3 323.804Z" stroke="#8F9294" stroke-width="0.8412" stroke-miterlimit="10" stroke-linecap="round" stroke-linejoin="round"/>
<path d="M219.609 111.843L440.857 91.7259L275.505 384.518L54.2574 404.634L219.609 111.843Z" stroke="#8F9294" stroke-width="0.8412" stroke-miterlimit="10" stroke-linecap="round" stroke-linejoin="round"/>
<path d="M219.609 111.843L440.857 91.7259L275.505 384.518L54.2574 404.634L219.609 111.843Z" stroke="#8F9294" stroke-width="0.8412" stroke-miterlimit="10" stroke-linecap="round" stroke-linejoin="round"/>
<path d="M657.104 308.296L491.79 601.097L270.543 621.214L435.894 328.422L657.104 308.296Z" fill="#FAFF00" stroke="#FAFF00" stroke-width="0.8412" stroke-miterlimit="10" stroke-linecap="round" stroke-linejoin="round"/>
<path d="M657.104 308.296L491.79 601.097L270.543 621.214L435.894 328.422L657.104 308.296Z" fill="#FAFF00" stroke="#FAFF00" stroke-width="0.8412" stroke-miterlimit="10" stroke-linecap="round" stroke-linejoin="round"/>
<path d="M459.523 102.971C456.795 113.154 446.483 119.221 436.467 116.538C426.451 113.854 420.554 103.443 423.283 93.2601C426.011 83.0773 436.323 77.0094 446.339 79.6932C456.355 82.3769 462.252 92.7881 459.523 102.971Z" fill="#3E1BDB"/>
<path opacity="0.57" d="M680.104 380.595L535.588 637.044L332.963 649.775L477.49 393.287L680.104 380.595Z" fill="#323247"/>
</g>
</svg>
