<svg width="540" height="502" viewBox="0 0 540 502" fill="none" xmlns="http://www.w3.org/2000/svg">
<path opacity="0.7" d="M485.609 144.223C477.257 137.816 468.292 131.957 459.912 125.51C420.349 95.0797 397.811 50.0077 352.512 25.7622C304.347 -0.0230708 241.898 -0.571138 192.576 24.0788C137.715 51.4822 119.13 111.378 74.709 150.121C5.88462 210.148 -17.8086 277.664 13.7916 336.621C36.7053 379.383 96.9684 405.612 141.654 421.767C197.17 441.85 253.021 480.658 313.144 485.526C364.443 489.662 416.158 466.474 440.283 422.367C453.967 397.313 478.913 381.106 499.544 361.688C553.835 310.575 552.012 213.214 502.899 159.621C497.64 154.013 491.853 148.859 485.609 144.223Z" fill="#FFF7E5"/>
<g opacity="0.9">
<path d="M0.434491 24.9828L45.1644 240.134C45.8461 243.467 48.8143 245.998 51.886 245.998L0.434491 24.9828ZM0.434491 24.9828C0.0203246 23.0169 -0.575037 20.1482 1.24557 17.8617L0.434491 24.9828Z" fill="#263238" stroke="#1A1466" stroke-width="1.5"/>
<path d="M54.3728 235.967L54.3724 235.965L9.64248 20.7637C9.64247 20.7637 9.64246 20.7636 9.64246 20.7636C9.03488 17.8378 10.7174 15.4784 13.2137 15.2767L13.2139 15.2767L118.369 6.76349L118.371 6.76332C120.964 6.54657 123.678 8.69077 124.287 11.6673L124.287 11.6697L169.017 226.863C169.625 229.798 167.941 232.157 165.446 232.358L60.2905 240.872L60.351 241.619L60.2905 240.872C57.7029 241.081 54.9812 238.934 54.3728 235.967Z" stroke="#1A1466" stroke-width="1.5"/>
<path d="M61.0451 22.719L61.0377 22.6768L61.0255 22.6357C61.0016 22.5549 60.9959 22.4704 61.0084 22.3876C61.021 22.3048 61.0518 22.2246 61.0996 22.1527C61.1475 22.0807 61.2116 22.0183 61.2884 21.9706C61.3609 21.9257 61.4428 21.8951 61.5291 21.8815L75.9234 20.7134C76.1767 20.7202 76.4184 20.8105 76.6093 20.9671C76.8067 21.1291 76.9367 21.3508 76.9809 21.5919L76.9884 21.6327L77.0004 21.6725C77.0251 21.7547 77.0313 21.8408 77.0187 21.9251C77.0062 22.0095 76.975 22.0912 76.9263 22.1645C76.8777 22.2378 76.8124 22.3014 76.7342 22.3498L77.1291 22.9875L76.7342 22.3498C76.6603 22.3956 76.5767 22.4266 76.4886 22.4403L62.0921 23.5917C61.8402 23.586 61.5997 23.4963 61.4103 23.3402C61.2148 23.1791 61.0871 22.9584 61.0451 22.719Z" stroke="#1A1466" stroke-width="1.5"/>
<path d="M48.8168 30.1523L48.8168 30.1524L48.8244 30.1518L91.2362 26.7773C91.2372 26.7772 91.2382 26.7771 91.2392 26.7771C91.9642 26.7245 92.6703 26.5221 93.3109 26.1826C93.9524 25.8426 94.5141 25.3725 94.958 24.8026L94.9594 24.8007L96.7155 22.5313L118.712 20.747L158.526 212.278L58.5969 220.366L18.7821 28.809L41.7076 26.9503L44.694 29.0148C44.6946 29.0152 44.6951 29.0156 44.6957 29.016C45.8943 29.8531 47.3515 30.254 48.8168 30.1523Z" stroke="#1A1466" stroke-width="1.5"/>
<path d="M112.479 222.878L112.487 222.921L112.499 222.962C112.556 223.149 112.571 223.344 112.542 223.537C112.514 223.729 112.443 223.913 112.334 224.078C112.225 224.243 112.079 224.384 111.907 224.49L112.301 225.128L111.907 224.49C111.747 224.589 111.567 224.655 111.379 224.686C110.894 224.678 110.427 224.507 110.058 224.206C109.676 223.894 109.423 223.463 109.339 222.992L109.331 222.948L109.319 222.906C109.262 222.72 109.247 222.524 109.276 222.332C109.304 222.14 109.375 221.955 109.484 221.79C109.593 221.626 109.739 221.485 109.911 221.378C110.071 221.28 110.25 221.213 110.438 221.183C110.923 221.192 111.389 221.363 111.759 221.665C112.14 221.976 112.394 222.407 112.479 222.878Z" stroke="#1A1466" stroke-width="1.5"/>
<path opacity="0.8" d="M116.69 102.436L119.068 102.168L122.556 131.793L118.661 132.231L115.955 109.242L115.867 108.497L115.122 108.581L111.706 108.966L111.471 106.966C113.241 106.667 114.434 106.062 115.256 105.195C116.034 104.374 116.413 103.384 116.69 102.436Z" stroke="#312C75" stroke-width="1.5"/>
<path opacity="0.8" d="M63.3166 134.889L63.4945 135.498L64.1246 135.427L72.4562 134.489L72.7983 137.394L60.4066 138.789L60.0494 135.755C59.5536 131.544 61.4449 128.854 63.5207 125.964C63.5431 125.933 63.5656 125.901 63.588 125.87C65.6299 123.028 67.8311 119.965 67.2771 115.259C67.1077 113.821 66.7359 112.756 66.056 112.089C65.336 111.383 64.4238 111.263 63.5427 111.363C62.6452 111.464 61.8161 111.809 61.2799 112.571C60.757 113.314 60.6134 114.314 60.7536 115.504L61.0534 118.051L58.0097 118.393L57.746 116.153C57.4697 113.806 57.8493 112.012 58.7498 110.76C59.6411 109.52 61.1298 108.69 63.3357 108.442C65.5415 108.194 67.1838 108.671 68.3396 109.68C69.5073 110.7 70.2936 112.363 70.57 114.71C71.1064 119.266 69.2386 122.662 67.1993 125.632C66.8852 126.089 66.5612 126.544 66.2406 126.995C65.5424 127.975 64.8603 128.933 64.3307 129.846C63.5505 131.19 62.9957 132.599 63.1682 134.099C63.1915 134.366 63.2412 134.631 63.3166 134.889Z" stroke="#312C75" stroke-width="1.5"/>
<path opacity="0.8" d="M87.79 112.379L87.9324 113.589L84.8855 113.932L84.7786 113.023C84.5057 110.706 84.8863 108.935 85.7866 107.697C86.6786 106.47 88.1692 105.646 90.3799 105.397C92.5906 105.149 94.2337 105.62 95.3874 106.616C96.5517 107.622 97.3339 109.262 97.6068 111.579L97.6988 112.361C97.8822 113.919 97.771 115.14 97.4014 116.086C97.0393 117.013 96.4106 117.726 95.4524 118.252L93.8991 119.105L95.5998 119.626C97.7171 120.274 98.841 122.063 99.1873 125.005L99.4689 127.396C99.742 129.716 99.3605 131.487 98.4598 132.724C97.5673 133.95 96.0765 134.774 93.8676 135.022C91.6587 135.271 90.0156 134.801 88.8615 133.805C87.6969 132.8 86.9138 131.16 86.6407 128.841L86.4316 127.064L89.4785 126.721L89.7235 128.802C89.8624 129.982 90.2347 130.916 90.9182 131.518C91.6173 132.133 92.5034 132.282 93.3979 132.181C94.2758 132.082 95.1342 131.767 95.6742 130.936C96.1869 130.146 96.3054 129.045 96.14 127.64L95.8584 125.249C95.6861 123.785 95.305 122.624 94.5253 121.881C93.7114 121.107 92.6287 120.937 91.4298 121.072L90.5658 121.169L90.2304 118.32L91.3613 118.193C92.3481 118.082 93.2798 117.761 93.8942 116.981C94.5061 116.204 94.6756 115.134 94.5213 113.824L94.5209 113.82L94.3137 112.128C94.3137 112.128 94.3136 112.127 94.3135 112.126C94.1459 110.704 93.7754 109.648 93.0947 108.986C92.3751 108.287 91.4637 108.17 90.5827 108.269C89.6867 108.37 88.8576 108.711 88.3201 109.467C87.795 110.206 87.651 111.199 87.79 112.379Z" stroke="#312C75" stroke-width="1.5"/>
</g>
<g opacity="0.9">
<path d="M281.108 89.7829L479.287 141.046C481.761 141.686 483.852 143.314 485.101 145.572C486.349 147.83 486.653 150.533 485.944 153.086L449.135 285.708C448.751 287.091 448.107 288.392 447.24 289.537C446.373 290.681 445.299 291.648 444.08 292.38C442.862 293.113 441.521 293.597 440.137 293.806C438.752 294.015 437.35 293.944 436.01 293.598L239.58 242.786C238.24 242.44 236.989 241.824 235.897 240.975C234.806 240.126 233.897 239.059 233.221 237.836C232.545 236.614 232.115 235.259 231.957 233.849C231.799 232.439 231.915 231.001 232.299 229.619L269.108 96.9962C269.816 94.4431 271.479 92.2488 273.729 90.8961C275.98 89.5433 278.634 89.1429 281.108 89.7829Z" stroke="#1A1466" stroke-width="1.5" stroke-linecap="round" stroke-linejoin="round"/>
<path d="M334.762 128.741L336.658 121.909L347.416 124.692L345.52 131.524L334.762 128.741Z" stroke="#1A1466" stroke-width="1.5"/>
<path d="M281.384 171.738L284.191 161.629L294.031 164.172L291.223 174.281L281.384 171.738Z" stroke="#1A1466" stroke-width="1.5"/>
<path d="M342.6 145.163L345.408 135.053L355.336 137.619L352.528 147.729L342.6 145.163Z" stroke="#1A1466" stroke-width="1.5"/>
<path d="M320.485 124.917L322.381 118.085L333.138 120.868L331.242 127.7L320.485 124.917Z" stroke="#1A1466" stroke-width="1.5"/>
<path d="M356.075 148.772L358.883 138.662L368.81 141.228L366.003 151.338L356.075 148.772Z" stroke="#1A1466" stroke-width="1.5"/>
<path d="M349.032 132.564L350.928 125.732L361.685 128.515L359.789 135.347L349.032 132.564Z" stroke="#1A1466" stroke-width="1.5"/>
<path d="M267.811 153.863L270.637 143.666L290.701 148.864L287.875 159.061L267.811 153.863Z" stroke="#1A1466" stroke-width="1.5"/>
<path d="M315.643 137.942L318.451 127.833L328.379 130.399L325.571 140.509L315.643 137.942Z" stroke="#1A1466" stroke-width="1.5"/>
<path d="M264.228 167.178L267.045 157.033L280.646 160.55L277.829 170.695L264.228 167.178Z" stroke="#1A1466" stroke-width="1.5"/>
<path d="M363.309 136.389L365.205 129.556L375.963 132.339L374.067 139.172L363.309 136.389Z" stroke="#1A1466" stroke-width="1.5"/>
<path d="M288.688 130.722L291.496 120.612L301.424 123.178L298.616 133.288L288.688 130.722Z" stroke="#1A1466" stroke-width="1.5"/>
<path d="M291.94 117.271L293.836 110.439L304.593 113.222L302.697 120.054L291.94 117.271Z" stroke="#1A1466" stroke-width="1.5"/>
<path d="M306.217 121.096L308.113 114.263L318.871 117.047L316.975 123.879L306.217 121.096Z" stroke="#1A1466" stroke-width="1.5"/>
<path d="M302.161 134.331L304.969 124.221L314.896 126.787L312.088 136.897L302.161 134.331Z" stroke="#1A1466" stroke-width="1.5"/>
<path d="M329.118 141.551L331.926 131.441L341.853 134.008L339.045 144.117L329.118 141.551Z" stroke="#1A1466" stroke-width="1.5"/>
<path d="M420.407 151.682L422.303 144.85L433.06 147.633L431.164 154.465L420.407 151.682Z" stroke="#1A1466" stroke-width="1.5"/>
<path d="M434.676 155.505L436.572 148.673L447.33 151.456L445.434 158.288L434.676 155.505Z" stroke="#1A1466" stroke-width="1.5"/>
<path d="M423.469 166.824L426.277 156.715L436.205 159.281L433.397 169.391L423.469 166.824Z" stroke="#1A1466" stroke-width="1.5"/>
<path d="M436.95 170.435L439.758 160.325L449.685 162.891L446.878 173.001L436.95 170.435Z" stroke="#1A1466" stroke-width="1.5"/>
<path d="M442.079 214.833L444.898 204.673L460.262 208.647L457.443 218.807L442.079 214.833Z" stroke="#1A1466" stroke-width="1.5"/>
<path d="M448.952 159.329L450.848 152.497L461.605 155.28L459.709 162.112L448.952 159.329Z" stroke="#1A1466" stroke-width="1.5"/>
<path d="M274.976 127.051L277.785 116.939L287.95 119.567L285.142 129.679L274.976 127.051Z" stroke="#1A1466" stroke-width="1.5"/>
<path d="M377.585 140.212L379.48 133.38L390.238 136.163L388.342 142.995L377.585 140.212Z" stroke="#1A1466" stroke-width="1.5"/>
<path d="M391.852 144.034L393.748 137.201L404.506 139.984L402.61 146.817L391.852 144.034Z" stroke="#1A1466" stroke-width="1.5"/>
<path d="M383.038 155.994L385.846 145.885L395.773 148.451L392.965 158.561L383.038 155.994Z" stroke="#1A1466" stroke-width="1.5"/>
<path d="M409.995 163.215L412.803 153.105L422.73 155.672L419.922 165.781L409.995 163.215Z" stroke="#1A1466" stroke-width="1.5"/>
<path d="M369.555 152.384L372.363 142.274L382.291 144.84L379.483 154.95L369.555 152.384Z" stroke="#1A1466" stroke-width="1.5"/>
<path d="M396.51 159.603L399.318 149.494L409.246 152.06L406.438 162.17L396.51 159.603Z" stroke="#1A1466" stroke-width="1.5"/>
<path d="M406.131 147.858L408.027 141.026L418.785 143.809L416.889 150.641L406.131 147.858Z" stroke="#1A1466" stroke-width="1.5"/>
<path d="M375.126 196.847L377.933 186.738L387.773 189.282L384.966 199.391L375.126 196.847Z" stroke="#1A1466" stroke-width="1.5"/>
<path d="M438.747 199.562L441.555 189.453L451.394 191.997L448.587 202.105L438.747 199.562Z" stroke="#1A1466" stroke-width="1.5"/>
<path d="M425.354 195.974L428.162 185.865L438.002 188.409L435.194 198.518L425.354 195.974Z" stroke="#1A1466" stroke-width="1.5"/>
<path d="M428.684 211.193L431.492 201.084L441.332 203.628L438.524 213.737L428.684 211.193Z" stroke="#1A1466" stroke-width="1.5"/>
<path d="M415.298 207.608L418.105 197.499L427.945 200.043L425.137 210.152L415.298 207.608Z" stroke="#1A1466" stroke-width="1.5"/>
<path d="M388.509 200.433L391.316 190.324L401.156 192.867L398.348 202.976L388.509 200.433Z" stroke="#1A1466" stroke-width="1.5"/>
<path d="M401.905 204.021L404.713 193.912L414.552 196.455L411.745 206.564L401.905 204.021Z" stroke="#1A1466" stroke-width="1.5"/>
<path d="M411.96 192.387L414.767 182.278L424.607 184.821L421.8 194.93L411.96 192.387Z" stroke="#1A1466" stroke-width="1.5"/>
<path d="M398.575 188.801L401.383 178.692L411.222 181.236L408.415 191.344L398.575 188.801Z" stroke="#1A1466" stroke-width="1.5"/>
<path d="M463.231 163.134L465.123 156.321L473.721 158.544L471.829 165.357L463.231 163.134Z" stroke="#1A1466" stroke-width="1.5"/>
<path d="M278.555 113.677L280.449 106.853L290.325 109.407L288.431 116.232L278.555 113.677Z" stroke="#1A1466" stroke-width="1.5"/>
<path d="M260.522 181.418L263.507 170.398L456.697 221.596L453.711 232.616L260.522 181.418Z" stroke="#1A1466" stroke-width="1.5"/>
<path d="M450.423 174.115L453.246 163.935L471.008 168.533L468.185 178.713L450.423 174.115Z" stroke="#1A1466" stroke-width="1.5"/>
<path d="M452.135 203.138L454.939 193.039L463.846 195.341L461.041 205.44L452.135 203.138Z" stroke="#1A1466" stroke-width="1.5"/>
<path d="M464.575 192.076L452.299 188.821L455.156 178.272L467.432 181.527L464.575 192.076ZM291.221 134.813L288.364 145.362L271.387 140.861L274.243 130.312L291.221 134.813ZM301.745 148.909L291.762 146.263L294.619 135.714L304.602 138.36L301.745 148.909ZM315.126 152.457L305.143 149.81L308 139.261L317.983 141.908L315.126 152.457ZM328.498 156.002L318.516 153.355L321.373 142.806L331.355 145.453L328.498 156.002ZM341.879 159.549L331.897 156.903L334.754 146.354L344.736 149L341.879 159.549ZM355.26 163.096L345.278 160.45L348.135 149.901L358.117 152.547L355.26 163.096ZM368.632 166.641L358.65 163.995L361.507 153.446L371.489 156.092L368.632 166.641ZM382.013 170.189L372.031 167.542L374.888 156.993L384.87 159.64L382.013 170.189ZM395.394 173.736L385.412 171.09L388.269 160.54L398.251 163.187L395.394 173.736ZM408.767 177.281L398.784 174.634L401.641 164.085L411.623 166.732L408.767 177.281ZM422.148 180.828L412.165 178.182L415.022 167.633L425.004 170.279L422.148 180.828ZM435.529 184.375L425.546 181.729L428.403 171.18L438.385 173.826L435.529 184.375ZM448.901 187.92L438.918 185.274L441.775 174.725L451.758 177.371L448.901 187.92Z" stroke="#1A1466" stroke-width="1.5"/>
<path d="M345.007 174.452L347.814 164.343L357.654 166.886L354.846 176.995L345.007 174.452Z" stroke="#1A1466" stroke-width="1.5"/>
<path d="M385.179 185.213L387.986 175.105L397.826 177.648L395.018 187.757L385.179 185.213Z" stroke="#1A1466" stroke-width="1.5"/>
<path d="M318.227 167.279L321.035 157.17L330.875 159.713L328.067 169.822L318.227 167.279Z" stroke="#1A1466" stroke-width="1.5"/>
<path d="M321.557 182.498L324.365 172.389L334.205 174.932L331.397 185.041L321.557 182.498Z" stroke="#1A1466" stroke-width="1.5"/>
<path d="M331.612 170.864L334.42 160.755L344.26 163.299L341.452 173.408L331.612 170.864Z" stroke="#1A1466" stroke-width="1.5"/>
<path d="M304.835 163.691L307.642 153.582L317.482 156.126L314.675 166.234L304.835 163.691Z" stroke="#1A1466" stroke-width="1.5"/>
<path d="M294.778 175.326L297.586 165.217L307.426 167.76L304.618 177.869L294.778 175.326Z" stroke="#1A1466" stroke-width="1.5"/>
<path d="M308.163 178.91L310.971 168.801L320.81 171.345L318.003 181.453L308.163 178.91Z" stroke="#1A1466" stroke-width="1.5"/>
<path d="M358.401 178.04L361.209 167.931L371.049 170.474L368.241 180.583L358.401 178.04Z" stroke="#1A1466" stroke-width="1.5"/>
<path d="M361.729 193.259L364.537 183.15L374.377 185.694L371.569 195.803L361.729 193.259Z" stroke="#1A1466" stroke-width="1.5"/>
<path d="M371.786 181.625L374.594 171.516L384.433 174.06L381.626 184.169L371.786 181.625Z" stroke="#1A1466" stroke-width="1.5"/>
<path d="M334.95 186.086L337.758 175.977L347.597 178.52L344.79 188.629L334.95 186.086Z" stroke="#1A1466" stroke-width="1.5"/>
<path d="M348.337 189.671L351.144 179.563L360.984 182.106L358.176 192.215L348.337 189.671Z" stroke="#1A1466" stroke-width="1.5"/>
<path d="M291.44 160.104L294.248 149.995L304.088 152.538L301.28 162.647L291.44 160.104Z" stroke="#1A1466" stroke-width="1.5"/>
<path d="M523.025 65.4732L279.153 2.0275C277.956 1.71734 276.698 1.69673 275.474 1.96728C274.25 2.23782 273.094 2.79227 272.094 3.58775C271.095 4.38324 270.279 5.39845 269.71 6.55491C269.142 7.71137 268.835 8.97809 268.814 10.2571L267.637 83.7689C267.607 85.6037 268.166 87.3775 269.227 88.8155C270.289 90.2535 271.794 91.2755 273.509 91.7232L298.4 98.1989L297.085 102.965L456.666 144.481L457.974 139.743L481.688 145.912C483.404 146.357 485.234 146.203 486.894 145.473C488.554 144.743 489.951 143.478 490.87 141.874L527.707 77.6398C528.352 76.5235 528.743 75.2781 528.85 73.9999C528.957 72.7217 528.777 71.4451 528.324 70.2689C527.872 69.0926 527.158 68.0483 526.24 67.2167C525.321 66.3851 524.221 65.7885 523.025 65.4732V65.4732Z" stroke="#1A1466" stroke-width="1.5" stroke-linecap="round" stroke-linejoin="round"/>
<path d="M473.673 137.386L284.862 88.2262L285.439 12.7278L512.011 71.7196L473.673 137.386Z" stroke="#1A1466" stroke-width="1.5" stroke-linecap="round" stroke-linejoin="round"/>
</g>
<g opacity="0.9">
<path d="M213.838 492.746L213.736 492.795L213.626 492.764C208.795 491.407 181.244 483.038 155.407 460.545C129.68 438.148 105.633 401.732 107.432 344.181C107.734 344.101 108.154 343.984 108.686 343.823C109.865 343.467 111.596 342.893 113.822 342.018C118.272 340.268 124.701 337.316 132.649 332.497C148.513 322.879 170.425 305.83 194.75 276.081C223.892 301.154 248.44 314.139 265.736 320.857C274.402 324.223 281.245 326.014 285.932 326.965C288.276 327.44 290.08 327.705 291.302 327.852C291.855 327.918 292.289 327.96 292.6 327.986C304.371 384.326 287.017 424.363 265.573 450.892C244.037 477.535 218.36 490.57 213.838 492.746Z" stroke="#1A1466" stroke-width="1.5"/>
<path d="M178.761 386.845C179.028 386.841 179.299 386.875 179.554 386.968C179.938 387.128 180.383 387.031 180.664 386.717L189.872 376.431C190.285 375.97 190.224 375.28 189.738 374.898C189.141 374.429 189.067 373.585 189.573 373.02L192.086 370.213C192.593 369.647 193.492 369.568 194.089 370.037L194.973 370.733L200.974 364.029C202.418 362.416 202.21 360.04 200.51 358.721L191.092 351.319C189.389 349.981 186.856 350.202 185.432 351.814L179.431 358.517L180.161 359.091C180.935 359.699 181.032 360.81 180.376 361.544L178.444 363.701C177.788 364.435 176.603 364.538 175.829 363.93C175.431 363.617 174.838 363.669 174.501 364.046L165.162 374.479C164.824 374.856 164.874 375.431 165.272 375.744C165.67 376.057 165.78 376.607 165.511 377.055C153.967 396.409 164.063 404.504 164.063 404.504C164.53 396.431 171.054 388.407 178.005 386.911C178.228 386.872 178.514 386.847 178.761 386.845Z" stroke="#1A1466" stroke-width="1.5" stroke-miterlimit="10" stroke-linecap="round" stroke-linejoin="round"/>
<path d="M250.359 420.456L193.671 379.381L184.894 389.185L237.905 434.347C240.816 436.796 245.338 436.477 247.889 433.628L251.339 429.774C253.892 426.944 253.439 422.716 250.359 420.456Z" stroke="#1A1466" stroke-width="1.5" stroke-miterlimit="10" stroke-linecap="round" stroke-linejoin="round"/>
</g>
</svg>
