<svg width="1360" height="340" viewBox="0 0 1360 340" fill="none" xmlns="http://www.w3.org/2000/svg">
<path opacity="0.7" d="M155.313 85.9272C150.241 99.1757 139.883 113.516 125.307 117.763C103.269 124.181 100.652 141.501 61.2043 139.895C55.4419 139.688 49.7197 138.871 44.1386 137.456C41.4141 136.753 38.7378 135.884 36.1257 134.852C13.0788 125.743 1.05771 105.697 0.0625606 84.7243C-1.25283 57.1355 18.4712 43.9878 31.2911 36.2901C44.111 28.5924 59.5618 -1.22754 98.3521 0.0391743C104.276 0.212596 110.159 1.0514 115.886 2.53901C128.94 5.98636 142.208 13.6102 149.921 24.7553C150.5 25.5953 151.053 26.4509 151.581 27.3223C161.904 44.4078 162.224 67.8639 155.313 85.9272Z" fill="#F9F8FE"/>
<g opacity="0.8">
<path opacity="0.8" d="M47.439 102.802L30 75.6121L97.3645 30L109.572 49.0192" stroke="#1A1466" stroke-linecap="round" stroke-linejoin="round"/>
<path opacity="0.8" d="M58.7988 63.6028L95.6035 38.6816L103.31 50.6902" stroke="#1A1466" stroke-linecap="round" stroke-linejoin="round"/>
<path opacity="0.8" d="M43.1856 84.7373L38.4688 77.3685L40.9268 75.7139" stroke="#1A1466" stroke-linecap="round" stroke-linejoin="round"/>
<path opacity="0.8" d="M101.366 96.388L52.0718 110L41.6582 70.2387L119.586 48.729L129.999 88.4903L106.88 94.8698" stroke="#1A1466" stroke-linecap="round" stroke-linejoin="round"/>
<path opacity="0.8" d="M122.499 84.0793L115.254 56.3877L49.1544 74.6286L56.3992 102.32L122.499 84.0793Z" stroke="#1A1466" stroke-linecap="round" stroke-linejoin="round"/>
<path opacity="0.8" d="M87.4651 85.659C82.333 87.0748 77.4999 85.4032 76.52 81.9234C75.5401 78.4437 79.0445 74.4863 84.1766 73.0705C89.3086 71.6547 94.1417 73.3093 95.1382 76.7891C96.1348 80.2688 92.6137 84.2774 87.4651 85.659Z" stroke="#1A1466" stroke-linecap="round" stroke-linejoin="round"/>
</g>
<path opacity="0.7" d="M247.12 176.884C243.138 169.106 239.22 161.846 226.828 160.558C217.114 159.562 205.975 159.499 197.069 163.79C189.334 167.52 186.378 176.012 178.87 179.954C172.991 183.037 165.745 182.277 159.022 181.633C145.143 180.306 131.795 185.174 124.509 196.722C118.404 206.398 118.505 219.154 124.771 228.741C127.256 232.547 130.589 235.822 133.21 239.549C135.831 243.276 137.756 247.726 136.92 252.102C136.201 255.769 133.688 258.882 132.108 262.307C127.885 271.449 131.188 282.917 139.422 289.308C145.204 293.795 152.792 295.809 160.283 296.678C172.133 298.052 184.202 296.834 195.834 294.356C202.814 292.876 209.885 290.928 217.02 291.631C223.071 292.232 228.688 294.701 234.405 296.635C241.134 298.908 248.298 300.478 255.433 299.867C264.224 299.117 272.311 294.734 275.859 287.022C279.967 278.089 276.936 267.885 274.038 258.55C270.965 248.595 269.205 239.187 273.73 229.391C277.558 221.095 284.28 210.676 276.186 202.642C270.986 197.482 263.323 195.852 257.602 191.416C252.424 187.407 249.756 182.031 247.12 176.884Z" fill="#F9F8FE"/>
<g opacity="0.8">
<path opacity="0.8" d="M200 275C224.853 275 245 254.855 245 230.006C245 205.156 224.853 185.011 200 185.011C175.147 185.011 155 205.156 155 230.006C155 254.855 175.147 275 200 275Z" stroke="#1A1466" stroke-width="0.7" stroke-miterlimit="10"/>
<path opacity="0.8" d="M193.902 210.022L198.49 210.971L200.055 212.593L202.092 212.907L202.741 214.84L202.264 216.151L200.876 216.786L197.47 216.232L197.379 215.813L198.987 214.691L197.875 212.64L194.831 212.221L193.209 210.833L193.902 210.022Z" stroke="#1A1466" stroke-width="0.7" stroke-miterlimit="10"/>
<path opacity="0.8" d="M230.873 252.351L227.234 251.736L222.841 251.178L219.611 251.895L216.448 251.942L213.272 253.412L211.421 253.935L210.272 254.189L208.359 255.925L206.46 257.222L203.25 256.074L203.335 252.996L201.399 252.658L199.314 253.121L198.797 252.266L198.588 250.344L197.628 249.462L196.212 249.996L196.026 251.131L194.279 251.628L192.299 250.101L191.117 247.736L192.033 244.469L195.101 244.006L196.097 244.553L197.351 244.273L198.702 242.989L200.149 243.104L202.744 245.918L203.45 245.655L202.71 243.29L201.808 242.175L201.575 240.148L205.062 237.624L204.724 233.651L206.075 231.924L206.9 229.222L207.896 228.779L209.947 226.684L209.866 225.826L208.221 226.303L207.724 225.536L206.575 225.792L204.886 226.603L205.42 225.063L208.866 223.211L209.491 222.09L211.461 224.059L212.61 224.789L213.962 224.046L213.036 222.83L210.498 221.755L207.386 219.495L204.386 218.302L201.791 218.441L200.26 217.468L198.5 217.421L198.385 217.883L198.848 220.951L199.496 221.904L199.297 225.448L196.844 224.242V222.711L194.425 222.157L193.232 221.218L193.175 218.495L195.712 215.637L195.374 213.086L194.249 213.448L193.313 212.67L192.637 211.177L191.884 211.235L191.84 212.995L190.722 213.461L189.39 209.927L188.441 209.589L186.843 209.289L185.359 210.491L187.883 212.008L188.694 213.698L184.302 211.718L181.071 209.481L180.247 206.707L177.351 206.474L175.567 208.292C175.129 208.711 174.669 209.105 174.189 209.474C173.712 209.812 171.779 210.447 171.779 210.447L171.756 212.312L169.391 212.948L169.854 214.049L173.851 213.819L176.317 215.566L177.128 219.215L176.699 222.701L177.672 226.08L175.885 231.823L176.949 239.57L178.862 243.742L180.957 246.783L182.568 246.644L181.676 245.09L180.565 244.026L179.534 241.847L180.426 241.431L182.717 244.861L184.501 247.965L185.102 250.668L187.616 252.624L191.735 254.476L197.479 254.733L199.507 255.925L201.128 257.314L203.257 258.043L205.69 258.162L207.961 257.547C207.961 257.547 208.089 258.611 208.204 259.135C208.319 259.658 207.254 261.753 207.254 261.753L206.579 264.091L207.93 266.199L210.434 266.628L214.374 269.246L215.972 269.547L216.31 271.111L216.648 271.787C224.475 268.685 231.27 263.442 236.255 256.658L236.144 255.891L237.833 250.148L236.269 249.509L230.873 252.351Z" stroke="#1A1466" stroke-width="0.7" stroke-miterlimit="10"/>
<path opacity="0.8" d="M232.569 208.765L230.984 207.038L229.014 205.069L227.902 202.028L229.849 201.923L229.72 200.859L228.342 201.055L229.372 200.278L230.464 199.265L230.23 198.221L228.609 196.832L227.845 194.646C220.138 188.58 210.66 185.196 200.853 185.008C191.047 184.82 181.447 187.839 173.512 193.606L176.297 194.775L175.253 196.974L173.364 197.832L173.783 200.694L173.016 201.19L172.229 202.569L172.749 204.424L174.57 204.238L174.232 206.17L176.006 205.778L178.172 201.251L178.115 199.515L180.987 198.66L181.439 197.244L184.393 196.261L184.311 194.42L186.477 193.829C186.477 193.829 187.856 192.646 188.167 192.579C188.799 192.575 189.43 192.618 190.056 192.707L191.897 193.609L194.1 193.143L195.722 191.582L198.165 191.244C198.559 191.396 198.985 191.452 199.405 191.406C199.925 191.288 201.327 190.214 201.327 190.214L204.767 191.416L206.227 192.092L206.565 193.656L208.176 193.518L208.487 192.464L209.984 192.802L210.065 193.656L207.122 195.17L209.403 197.069L213.62 198.322L215.647 200.059L217.985 199.758L218.276 198.599L219.063 198.207L215.89 196.724L214.177 196.886L215.438 196.167L213.792 194.673L215.542 194.173L218.114 194.917L219.192 197.302L220.638 198.403L222.25 201.217L224.912 202.376L225.679 205.815L228.423 206.849L228.565 208.008V209.434L229.609 211.17L230.024 212.062L231.866 211.981L232.305 210.025L232.569 208.765Z" stroke="#1A1466" stroke-width="0.7" stroke-miterlimit="10"/>
<path opacity="0.8" d="M231.607 197.961L231.739 198.559L231.59 200.342L232.225 201.734L233.465 201.896L233.904 203.876L232.553 203.633L233.489 209.333L232.749 211.904L234.229 214.637L235.864 215.586L237.114 221.218L239.442 225.292L241.642 228.306L244.18 228.397L244.551 226.127L244.832 225.789C244.653 223.928 244.361 222.08 243.957 220.255C242.086 211.785 237.796 204.039 231.607 197.961V197.961Z" stroke="#1A1466" stroke-width="0.7" stroke-miterlimit="10"/>
<path opacity="0.8" d="M207.363 202.656L199.811 201.16L196.81 201.937L196.52 204.079L194.969 203.001L192.793 204.031L193.347 207.518L195.523 208.457L196.439 206.177L198.351 207.393L202.21 209.488L203.504 212.373L206.981 215.211L211.198 213.508L210.745 211.971L209.414 210.407L208.278 206.282L208.927 204.278L207.363 202.656Z" stroke="#1A1466" stroke-width="0.7" stroke-miterlimit="10"/>
<path opacity="0.8" d="M213.501 203.7L211.846 203.63L210.744 205.079L212.146 207.937L213.501 207.636V203.7Z" stroke="#1A1466" stroke-width="0.7" stroke-miterlimit="10"/>
<path opacity="0.8" d="M223.638 203.528L219.678 202.437L218.668 201.349L217.904 201.849L219.097 203.772L220.327 206.343L222.029 206.62L222.249 206.133L220.962 204.779L223.904 205.218L223.638 203.528Z" stroke="#1A1466" stroke-width="0.7" stroke-miterlimit="10"/>
<path opacity="0.8" d="M201.553 247.921L201.229 248.432L204.563 248.675L206.137 249.857L208.165 249.624L208.641 248.317L206.151 248.432L201.553 247.921Z" stroke="#1A1466" stroke-width="0.7" stroke-miterlimit="10"/>
<path opacity="0.8" d="M211.271 247.84L209.221 248.952L209.721 249.719L212.43 249.114L212.768 248.164L211.853 248.479L211.271 247.84Z" stroke="#1A1466" stroke-width="0.7" stroke-miterlimit="10"/>
</g>
<path opacity="0.7" d="M943.506 203.858C940.953 203.195 938.396 202.54 935.817 201.969C927.662 200.158 919.208 199.736 910.826 200.142C893.101 201.003 885.368 209.628 891.491 217.673C897.614 225.717 905.347 234.056 896.969 241.819C888.592 249.582 857.01 256.475 860.229 270.269C863.449 284.063 891.802 286.076 889.579 294.987C887.355 303.897 872.841 306.486 879.911 318.557C886.982 330.628 913.103 319.994 921.481 326.316C929.858 332.637 934.376 337.811 948.228 339.824C962.08 341.837 972.077 326.03 986.916 319.994C1001.76 313.959 1016.89 311.946 1019.79 297.861C1022.69 283.777 994.974 274.581 996.263 260.211C996.908 253.028 1002.18 247.423 1006.3 241.682C1013.24 231.976 1018.97 214.491 1003.63 208.77C996.957 206.285 989.3 206.956 982.282 207.114C974.981 207.259 967.408 208.021 960.128 207.275C954.436 206.679 948.971 205.266 943.506 203.858Z" fill="#F9F8FE"/>
<g opacity="0.8">
<path opacity="0.8" d="M929.428 294.994C929.428 294.994 930.501 304.551 929.351 305.958C927.845 307.802 914.28 307.354 914.28 307.354L943.867 310.987C943.867 310.987 947.7 310.429 946.942 307.383C946.355 305.028 943.179 296.683 943.179 296.683L929.428 294.994Z" stroke="#1A1466" stroke-linecap="round" stroke-linejoin="round"/>
<path opacity="0.8" d="M987.591 235.755L901.793 225.22C900.833 225.102 899.961 225.766 899.847 226.702L892.244 288.622C892.129 289.558 892.814 290.413 893.774 290.53L979.572 301.065C980.532 301.183 981.404 300.52 981.519 299.583L989.121 237.664C989.236 236.727 988.551 235.873 987.591 235.755Z" stroke="#1A1466" stroke-linecap="round" stroke-linejoin="round"/>
<path opacity="0.8" d="M893.227 280.158L982.501 291.12L981.463 299.575C981.408 300.024 981.172 300.433 980.807 300.711C980.442 300.989 979.978 301.113 979.517 301.057L893.718 290.522C893.257 290.465 892.837 290.232 892.55 289.874C892.263 289.517 892.133 289.063 892.188 288.613L893.227 280.158Z" stroke="#1A1466" stroke-linecap="round" stroke-linejoin="round"/>
<path opacity="0.8" d="M936.837 290.665C936.876 290.349 936.818 290.028 936.67 289.743C936.522 289.458 936.291 289.221 936.006 289.063C935.721 288.906 935.396 288.833 935.07 288.856C934.744 288.879 934.433 288.995 934.177 289.191C933.92 289.386 933.729 289.652 933.627 289.955C933.526 290.257 933.519 290.583 933.607 290.89C933.695 291.198 933.875 291.473 934.123 291.682C934.371 291.891 934.677 292.024 935.001 292.064C935.436 292.117 935.874 292 936.218 291.737C936.562 291.475 936.785 291.09 936.837 290.665Z" stroke="#1A1466" stroke-linecap="round" stroke-linejoin="round"/>
</g>
<path opacity="0.7" d="M499.117 282.022C499.117 282.022 495.881 232.088 469.763 212.651C443.646 193.213 430.009 199.245 413.368 210.305C396.727 221.364 390.47 241.311 376.157 250.855C361.843 260.4 341.025 266.942 340.101 289.73C339.176 312.519 344.723 327.935 352.582 333.968C360.44 340 368.067 340 368.067 340H488.716C488.716 340 503.739 328.941 499.117 282.022Z" fill="#F9F8FE"/>
<g opacity="0.8">
<g opacity="0.8">
<path opacity="0.8" d="M409.87 335C407.017 335 404.277 332.513 403.55 329.105L380.191 219.754C379.972 218.827 379.941 217.865 380.1 216.926C380.259 215.986 380.605 215.089 381.116 214.288C381.49 213.721 381.975 213.238 382.542 212.869C383.109 212.5 383.745 212.252 384.411 212.143L429.383 205.059C432.494 204.567 435.667 207.187 436.461 210.895L459.798 320.218C460.024 321.149 460.061 322.116 459.906 323.061C459.75 324.006 459.407 324.909 458.896 325.716C458.521 326.283 458.034 326.766 457.467 327.135C456.899 327.504 456.262 327.752 455.596 327.862L410.624 334.945C410.374 334.984 410.122 335.002 409.87 335ZM430.146 205.424C429.915 205.424 429.684 205.442 429.456 205.478L384.483 212.562C383.877 212.662 383.298 212.887 382.783 213.223C382.267 213.559 381.826 213.999 381.486 214.516C381.007 215.271 380.685 216.115 380.539 216.999C380.392 217.883 380.424 218.788 380.633 219.659L403.988 329.01C404.733 332.485 407.676 334.931 410.556 334.476L455.528 327.388C456.133 327.288 456.712 327.063 457.227 326.727C457.742 326.39 458.182 325.95 458.521 325.434C459.002 324.68 459.325 323.835 459.473 322.951C459.62 322.067 459.588 321.162 459.379 320.291L436.019 210.967C435.337 207.779 432.787 205.433 430.151 205.433L430.146 205.424Z" fill="#1A1466"/>
<path opacity="0.8" d="M434.131 215.69L455.183 314.241L405.404 322.079L384.357 223.533L434.131 215.69Z" stroke="#1A1466"/>
<path opacity="0.8" d="M400.404 214.552L400.398 214.504L400.382 214.458C400.358 214.389 400.348 214.316 400.353 214.243C400.357 214.17 400.375 214.099 400.407 214.033L399.968 213.822L400.407 214.033C400.439 213.968 400.483 213.909 400.536 213.861C400.587 213.816 400.647 213.78 400.711 213.757L400.756 213.743L414.709 211.598C414.874 211.594 415.035 211.65 415.164 211.756C415.298 211.868 415.387 212.027 415.411 212.202L415.417 212.242L415.428 212.281C415.472 212.421 415.458 212.574 415.39 212.704L415.833 212.935L415.39 212.704C415.322 212.834 415.207 212.93 415.07 212.973L415.07 212.973L415.061 212.976L415.06 212.976L401.106 215.156C400.941 215.16 400.78 215.105 400.652 214.998C400.517 214.887 400.429 214.728 400.404 214.552Z" stroke="#1A1466"/>
<path opacity="0.8" d="M430.99 321.44C431.628 321.337 432.456 321.909 432.678 322.937C432.89 323.947 432.35 324.694 431.732 324.794C431.091 324.898 430.253 324.322 430.045 323.302C429.838 322.285 430.375 321.54 430.99 321.44Z" stroke="#1A1466"/>
</g>
</g>
<path opacity="0.7" d="M1176.26 298.543C1176.26 298.543 1157.3 301.822 1140.06 298.543C1129.51 296.535 1107.29 291.776 1102.05 280.988C1096.81 270.201 1122.05 260.997 1109.65 250.054C1104.3 245.333 1078.61 239.103 1080.06 208.484C1081.5 177.865 1119.13 159.195 1171.42 160.027C1223.72 160.859 1253.89 201.478 1233.66 221.487C1213.44 241.495 1204.73 241.551 1213.9 257.839C1223.07 274.128 1210.34 293.877 1176.26 298.543Z" fill="#F9F8FE"/>
<g opacity="0.8">
<path opacity="0.8" d="M1217.38 187.27L1094.81 202.32C1093.02 202.539 1091.75 204.129 1091.97 205.872L1100.36 274.248C1100.58 275.991 1102.2 277.226 1103.98 277.007L1226.55 261.957C1228.33 261.738 1229.61 260.148 1229.39 258.405L1221 190.029C1220.78 188.286 1219.16 187.051 1217.38 187.27Z" stroke="#1A1466" stroke-linecap="round" stroke-linejoin="round"/>
<path opacity="0.8" d="M1117.89 196.282L1118.28 199.437L1098.81 201.829L1098.42 198.673C1098.39 198.431 1098.46 198.186 1098.61 197.993C1098.77 197.8 1098.99 197.674 1099.24 197.644L1116.84 195.483C1116.96 195.467 1117.09 195.475 1117.21 195.506C1117.33 195.538 1117.44 195.592 1117.54 195.666C1117.64 195.741 1117.72 195.833 1117.78 195.939C1117.84 196.045 1117.88 196.161 1117.89 196.282V196.282Z" stroke="#1A1466" stroke-linecap="round" stroke-linejoin="round"/>
<path opacity="0.8" d="M1136.37 195.283L1136.61 197.188L1121.03 199.1L1120.8 197.195L1123.59 196L1123.45 194.867C1123.43 194.645 1123.49 194.42 1123.63 194.243C1123.77 194.066 1123.98 193.95 1124.21 193.923L1132.24 192.937C1132.46 192.909 1132.69 192.97 1132.87 193.108C1133.05 193.246 1133.17 193.448 1133.2 193.671L1133.34 194.803L1136.37 195.283Z" stroke="#1A1466" stroke-linecap="round" stroke-linejoin="round"/>
<path opacity="0.8" d="M1123.59 196L1133.37 194.799" stroke="#1A1466" stroke-linecap="round" stroke-linejoin="round"/>
<path opacity="0.8" d="M1205.34 226.962L1205.52 228.498L1206.05 228.152L1205.93 227.179L1205.34 226.962Z" fill="#AAAAAA"/>
<path opacity="0.8" d="M1140.49 234.924L1139.96 235.279L1140.08 236.253L1140.68 236.46L1140.49 234.924Z" fill="#AAAAAA"/>
<path opacity="0.8" d="M1205.64 230.111L1206.18 229.789L1206.11 228.809L1205.52 228.566L1205.64 230.111Z" fill="#AAAAAA"/>
<path opacity="0.8" d="M1140.37 233.32L1139.83 233.634L1139.89 234.622L1140.48 234.865L1140.37 233.32Z" fill="#AAAAAA"/>
<path opacity="0.8" d="M1205.67 231.725L1206.23 231.434L1206.22 230.44L1205.64 230.178L1205.67 231.725Z" fill="#AAAAAA"/>
<path opacity="0.8" d="M1140.35 231.705L1139.78 231.996L1139.8 232.99L1140.37 233.252L1140.35 231.705Z" fill="#AAAAAA"/>
<path opacity="0.8" d="M1205.61 233.343L1206.19 233.076L1206.23 232.083L1205.67 231.794L1205.61 233.343Z" fill="#AAAAAA"/>
<path opacity="0.8" d="M1140.39 230.089L1139.81 230.356L1139.79 231.347L1140.34 231.637L1140.39 230.089Z" fill="#AAAAAA"/>
<path opacity="0.8" d="M1205.48 234.952L1206.07 234.709L1206.16 233.727L1205.61 233.402L1205.48 234.952Z" fill="#AAAAAA"/>
<path opacity="0.8" d="M1140.53 228.479L1139.94 228.714L1139.86 229.703L1140.39 230.029L1140.53 228.479Z" fill="#AAAAAA"/>
<path opacity="0.8" d="M1205.26 236.546L1205.87 236.344L1206 235.365L1205.48 235.012L1205.26 236.546Z" fill="#AAAAAA"/>
<path opacity="0.8" d="M1140.75 226.885L1140.15 227.087L1140.01 228.066L1140.54 228.419L1140.75 226.885Z" fill="#AAAAAA"/>
<path opacity="0.8" d="M1204.96 238.133L1205.57 237.965L1205.76 236.988L1205.26 236.615L1204.96 238.133Z" fill="#AAAAAA"/>
<path opacity="0.8" d="M1141.05 225.289L1140.44 225.467L1140.25 226.444L1140.76 226.816L1141.05 225.289Z" fill="#AAAAAA"/>
<path opacity="0.8" d="M1204.58 239.705L1205.2 239.561L1205.43 238.604L1204.94 238.203L1204.58 239.705Z" fill="#AAAAAA"/>
<path opacity="0.8" d="M1141.43 223.717L1140.81 223.87L1140.57 224.828L1141.06 225.228L1141.43 223.717Z" fill="#AAAAAA"/>
<path opacity="0.8" d="M1204.12 241.261L1204.74 241.142L1205.02 240.195L1204.56 239.775L1204.12 241.261Z" fill="#AAAAAA"/>
<path opacity="0.8" d="M1141.9 222.17L1141.27 222.281L1140.98 223.236L1141.45 223.655L1141.9 222.17Z" fill="#AAAAAA"/>
<path opacity="0.8" d="M1203.57 242.793L1204.21 242.707L1204.54 241.772L1204.1 241.323L1203.57 242.793Z" fill="#AAAAAA"/>
<path opacity="0.8" d="M1142.43 220.638L1141.81 220.724L1141.47 221.66L1141.92 222.107L1142.43 220.638Z" fill="#AAAAAA"/>
<path opacity="0.8" d="M1202.95 244.283L1203.59 244.23L1203.97 243.315L1203.55 242.846L1202.95 244.283Z" fill="#AAAAAA"/>
<path opacity="0.8" d="M1143.06 219.139L1142.42 219.192L1142.04 220.116L1142.46 220.576L1143.06 219.139Z" fill="#AAAAAA"/>
<path opacity="0.8" d="M1202.25 245.757L1202.89 245.73L1203.32 244.834L1202.93 244.346L1202.25 245.757Z" fill="#AAAAAA"/>
<path opacity="0.8" d="M1143.75 217.674L1143.12 217.701L1142.69 218.597L1143.08 219.086L1143.75 217.674Z" fill="#AAAAAA"/>
<path opacity="0.8" d="M1201.48 247.18L1202.12 247.196L1202.59 246.32L1202.22 245.812L1201.48 247.18Z" fill="#AAAAAA"/>
<path opacity="0.8" d="M1144.53 216.241L1143.89 216.234L1143.42 217.111L1143.78 217.619L1144.53 216.241Z" fill="#AAAAAA"/>
<path opacity="0.8" d="M1200.64 248.58L1201.27 248.621L1201.79 247.765L1201.45 247.245L1200.64 248.58Z" fill="#AAAAAA"/>
<path opacity="0.8" d="M1145.37 214.852L1144.74 214.81L1144.22 215.666L1144.56 216.187L1145.37 214.852Z" fill="#AAAAAA"/>
<path opacity="0.8" d="M1199.72 249.927L1200.36 249.994L1200.92 249.167L1200.6 248.635L1199.72 249.927Z" fill="#AAAAAA"/>
<path opacity="0.8" d="M1146.29 213.504L1145.66 213.428L1145.1 214.255L1145.41 214.796L1146.29 213.504Z" fill="#AAAAAA"/>
<path opacity="0.8" d="M1198.74 251.223L1199.37 251.333L1199.97 250.535L1199.68 249.983L1198.74 251.223Z" fill="#AAAAAA"/>
<path opacity="0.8" d="M1147.27 212.199L1146.65 212.097L1146.05 212.895L1146.32 213.448L1147.27 212.199Z" fill="#AAAAAA"/>
<path opacity="0.8" d="M1197.69 252.476L1198.31 252.612L1198.95 251.844L1198.7 251.279L1197.69 252.476Z" fill="#AAAAAA"/>
<path opacity="0.8" d="M1148.32 210.955L1147.7 210.818L1147.06 211.586L1147.32 212.151L1148.32 210.955Z" fill="#AAAAAA"/>
<path opacity="0.8" d="M1196.58 253.678L1197.19 253.841L1197.87 253.11L1197.65 252.524L1196.58 253.678Z" fill="#AAAAAA"/>
<path opacity="0.8" d="M1149.44 209.752L1148.83 209.589L1148.14 210.321L1148.37 210.898L1149.44 209.752Z" fill="#AAAAAA"/>
<path opacity="0.8" d="M1195.4 254.819L1196.01 255.017L1196.72 254.315L1196.53 253.726L1195.4 254.819Z" fill="#AAAAAA"/>
<path opacity="0.8" d="M1150.61 208.612L1150.01 208.413L1149.29 209.115L1149.49 209.704L1150.61 208.612Z" fill="#AAAAAA"/>
<path opacity="0.8" d="M1194.17 255.898L1194.76 256.123L1195.51 255.461L1195.35 254.867L1194.17 255.898Z" fill="#AAAAAA"/>
<path opacity="0.8" d="M1151.84 207.524L1151.25 207.299L1150.49 207.962L1150.66 208.563L1151.84 207.524Z" fill="#AAAAAA"/>
<path opacity="0.8" d="M1192.88 256.925L1193.46 257.178L1194.25 256.553L1194.12 255.947L1192.88 256.925Z" fill="#AAAAAA"/>
<path opacity="0.8" d="M1153.12 206.506L1152.54 206.254L1151.75 206.879L1151.89 207.484L1153.12 206.506Z" fill="#AAAAAA"/>
<path opacity="0.8" d="M1191.55 257.881L1192.12 258.16L1192.94 257.574L1192.84 256.965L1191.55 257.881Z" fill="#AAAAAA"/>
<path opacity="0.8" d="M1154.46 205.549L1153.89 205.261L1153.08 205.847L1153.18 206.465L1154.46 205.549Z" fill="#AAAAAA"/>
<path opacity="0.8" d="M1190.72 259.083L1191.56 258.535L1191.5 257.922L1190.17 258.775L1190.72 259.083Z" fill="#AAAAAA"/>
<path opacity="0.8" d="M1155.29 204.349L1154.44 204.896L1154.52 205.509L1155.84 204.656L1155.29 204.349Z" fill="#AAAAAA"/>
<path opacity="0.8" d="M1189.27 259.932L1190.15 259.425L1190.11 258.807L1188.74 259.588L1189.27 259.932Z" fill="#AAAAAA"/>
<path opacity="0.8" d="M1156.74 203.498L1155.86 203.998L1155.9 204.623L1157.27 203.833L1156.74 203.498Z" fill="#AAAAAA"/>
<path opacity="0.8" d="M1187.79 260.702L1188.69 260.243L1188.68 259.622L1187.27 260.34L1187.79 260.702Z" fill="#AAAAAA"/>
<path opacity="0.8" d="M1158.23 202.727L1157.32 203.179L1157.33 203.8L1158.74 203.09L1158.23 202.727Z" fill="#AAAAAA"/>
<path opacity="0.8" d="M1186.26 261.409L1187.19 260.997L1187.22 260.372L1185.77 261.018L1186.26 261.409Z" fill="#AAAAAA"/>
<path opacity="0.8" d="M1159.74 202.021L1158.82 202.432L1158.8 203.058L1160.24 202.411L1159.74 202.021Z" fill="#AAAAAA"/>
<path opacity="0.8" d="M1184.71 262.035L1185.65 261.664L1185.71 261.043L1184.23 261.625L1184.71 262.035Z" fill="#AAAAAA"/>
<path opacity="0.8" d="M1161.3 201.397L1160.37 201.767L1160.3 202.388L1161.78 201.807L1161.3 201.397Z" fill="#AAAAAA"/>
<path opacity="0.8" d="M1183.12 262.58L1184.08 262.257L1184.17 261.641L1182.67 262.149L1183.12 262.58Z" fill="#AAAAAA"/>
<path opacity="0.8" d="M1162.89 200.852L1161.93 201.165L1161.84 201.781L1163.34 201.282L1162.89 200.852Z" fill="#AAAAAA"/>
<path opacity="0.8" d="M1181.51 263.049L1182.49 262.776L1182.6 262.165L1181.08 262.591L1181.51 263.049Z" fill="#AAAAAA"/>
<path opacity="0.8" d="M1164.51 200.381L1163.53 200.654L1163.41 201.265L1164.93 200.84L1164.51 200.381Z" fill="#AAAAAA"/>
<path opacity="0.8" d="M1179.87 263.438L1180.86 263.214L1181.01 262.608L1179.46 262.959L1179.87 263.438Z" fill="#AAAAAA"/>
<path opacity="0.8" d="M1166.13 199.993L1165.15 200.216L1165 200.823L1166.54 200.471L1166.13 199.993Z" fill="#AAAAAA"/>
<path opacity="0.8" d="M1178.22 263.752L1179.22 263.569L1179.4 262.976L1177.84 263.253L1178.22 263.752Z" fill="#AAAAAA"/>
<path opacity="0.8" d="M1167.79 199.68L1166.8 199.861L1166.61 200.455L1168.17 200.178L1167.79 199.68Z" fill="#AAAAAA"/>
<path opacity="0.8" d="M1176.55 263.973L1177.56 263.85L1177.77 263.261L1176.2 263.462L1176.55 263.973Z" fill="#AAAAAA"/>
<path opacity="0.8" d="M1169.45 199.458L1168.45 199.582L1168.23 200.17L1169.81 199.968L1169.45 199.458Z" fill="#AAAAAA"/>
<path opacity="0.8" d="M1171.23 199.308L1170.22 199.381L1169.98 199.956L1171.55 199.84L1171.23 199.308Z" fill="#AAAAAA"/>
<path opacity="0.8" d="M1174.78 264.122L1175.8 264.049L1176.04 263.474L1174.46 263.592L1174.78 264.122Z" fill="#AAAAAA"/>
<path opacity="0.8" d="M1172.91 199.247L1171.9 199.277L1171.62 199.84L1173.2 199.799L1172.91 199.247Z" fill="#AAAAAA"/>
<path opacity="0.8" d="M1173.11 264.175L1174.12 264.153L1174.39 263.592L1172.8 263.633L1173.11 264.175Z" fill="#AAAAAA"/>
<path opacity="0.8" d="M1174.59 199.279L1173.58 199.25L1173.27 199.798L1174.86 199.842L1174.59 199.279Z" fill="#AAAAAA"/>
<path opacity="0.8" d="M1171.42 264.152L1172.43 264.181L1172.74 263.632L1171.16 263.588L1171.42 264.152Z" fill="#AAAAAA"/>
<path opacity="0.8" d="M1176.27 199.389L1175.25 199.308L1174.92 199.843L1176.5 199.964L1176.27 199.389Z" fill="#AAAAAA"/>
<path opacity="0.8" d="M1169.75 264.042L1170.75 264.115L1171.09 263.588L1169.51 263.466L1169.75 264.042Z" fill="#AAAAAA"/>
<path opacity="0.8" d="M1177.93 199.584L1176.93 199.451L1176.57 199.972L1178.14 200.171L1177.93 199.584Z" fill="#AAAAAA"/>
<path opacity="0.8" d="M1168.08 263.847L1169.09 263.978L1169.44 263.458L1167.87 263.259L1168.08 263.847Z" fill="#AAAAAA"/>
<path opacity="0.8" d="M1179.59 199.858L1178.59 199.683L1178.2 200.181L1179.76 200.45L1179.59 199.858Z" fill="#AAAAAA"/>
<path opacity="0.8" d="M1166.43 263.572L1167.42 263.749L1167.8 263.25L1166.25 262.981L1166.43 263.572Z" fill="#AAAAAA"/>
<path opacity="0.8" d="M1181.23 200.21L1180.24 199.991L1179.83 200.467L1181.37 200.815L1181.23 200.21Z" fill="#AAAAAA"/>
<path opacity="0.8" d="M1164.79 263.22L1165.78 263.44L1166.18 262.964L1164.64 262.616L1164.79 263.22Z" fill="#AAAAAA"/>
<path opacity="0.8" d="M1182.84 200.651L1181.87 200.379L1181.43 200.833L1182.95 201.259L1182.84 200.651Z" fill="#AAAAAA"/>
<path opacity="0.8" d="M1163.17 262.78L1164.14 263.053L1164.58 262.598L1163.05 262.172L1163.17 262.78Z" fill="#AAAAAA"/>
<path opacity="0.8" d="M1184.43 201.163L1183.48 200.845L1183.01 201.277L1184.52 201.783L1184.43 201.163Z" fill="#AAAAAA"/>
<path opacity="0.8" d="M1161.58 262.259L1162.54 262.585L1162.99 262.146L1161.5 261.648L1161.58 262.259Z" fill="#AAAAAA"/>
<path opacity="0.8" d="M1186 201.763L1185.05 201.393L1184.58 201.809L1186.05 202.379L1186 201.763Z" fill="#AAAAAA"/>
<path opacity="0.8" d="M1160.02 261.668L1160.95 262.038L1161.43 261.621L1159.97 261.052L1160.02 261.668Z" fill="#AAAAAA"/>
<path opacity="0.8" d="M1187.53 202.427L1186.61 202.02L1186.11 202.405L1187.54 203.055L1187.53 202.427Z" fill="#AAAAAA"/>
<path opacity="0.8" d="M1158.49 260.996L1159.4 261.411L1159.9 261.026L1158.47 260.376L1158.49 260.996Z" fill="#AAAAAA"/>
<path opacity="0.8" d="M1189 203.796L1189.02 203.181L1188.12 202.72L1187.6 203.082L1189 203.796Z" fill="#AAAAAA"/>
<path opacity="0.8" d="M1157.01 259.626L1156.99 260.25L1157.88 260.711L1158.41 260.349L1157.01 259.626Z" fill="#AAAAAA"/>
<path opacity="0.8" d="M1190.42 204.618L1190.47 203.999L1189.61 203.492L1189.06 203.831L1190.42 204.618Z" fill="#AAAAAA"/>
<path opacity="0.8" d="M1155.59 258.812L1155.55 259.431L1156.41 259.938L1156.95 259.6L1155.59 258.812Z" fill="#AAAAAA"/>
<path opacity="0.8" d="M1191.8 205.506L1191.88 204.882L1191.03 204.339L1190.48 204.654L1191.8 205.506Z" fill="#AAAAAA"/>
<path opacity="0.8" d="M1154.22 257.924L1154.14 258.539L1154.98 259.083L1155.53 258.777L1154.22 257.924Z" fill="#AAAAAA"/>
<path opacity="0.8" d="M1193.13 206.458L1193.24 205.849L1192.42 205.259L1191.85 205.541L1193.13 206.458Z" fill="#AAAAAA"/>
<path opacity="0.8" d="M1152.89 256.972L1152.78 257.582L1153.6 258.172L1154.16 257.889L1152.89 256.972Z" fill="#AAAAAA"/>
<path opacity="0.8" d="M1194.4 207.477L1194.54 206.872L1193.76 206.243L1193.18 206.503L1194.4 207.477Z" fill="#AAAAAA"/>
<path opacity="0.8" d="M1151.61 255.953L1151.47 256.559L1152.25 257.187L1152.83 256.928L1151.61 255.953Z" fill="#AAAAAA"/>
<path opacity="0.8" d="M1195.62 208.555L1195.79 207.963L1195.04 207.296L1194.45 207.522L1195.62 208.555Z" fill="#AAAAAA"/>
<path opacity="0.8" d="M1150.39 254.868L1150.22 255.468L1150.96 256.135L1151.56 255.908L1150.39 254.868Z" fill="#AAAAAA"/>
<path opacity="0.8" d="M1196.79 209.698L1196.98 209.111L1196.27 208.407L1195.66 208.6L1196.79 209.698Z" fill="#AAAAAA"/>
<path opacity="0.8" d="M1149.23 253.733L1149.02 254.32L1149.74 255.025L1150.34 254.823L1149.23 253.733Z" fill="#AAAAAA"/>
<path opacity="0.8" d="M1197.88 210.891L1198.12 210.309L1197.44 209.582L1196.83 209.743L1197.88 210.891Z" fill="#AAAAAA"/>
<path opacity="0.8" d="M1148.13 252.539L1147.9 253.113L1148.57 253.848L1149.18 253.688L1148.13 252.539Z" fill="#AAAAAA"/>
<path opacity="0.8" d="M1198.92 212.144L1199.18 211.576L1198.55 210.81L1197.93 210.946L1198.92 212.144Z" fill="#AAAAAA"/>
<path opacity="0.8" d="M1147.09 251.287L1146.83 251.856L1147.46 252.621L1148.08 252.485L1147.09 251.287Z" fill="#AAAAAA"/>
<path opacity="0.8" d="M1199.89 213.448L1200.19 212.891L1199.59 212.095L1198.96 212.199L1199.89 213.448Z" fill="#AAAAAA"/>
<path opacity="0.8" d="M1146.12 249.984L1145.83 250.539L1146.42 251.335L1147.05 251.233L1146.12 249.984Z" fill="#AAAAAA"/>
<path opacity="0.8" d="M1200.8 214.793L1201.11 214.252L1200.57 213.424L1199.93 213.494L1200.8 214.793Z" fill="#AAAAAA"/>
<path opacity="0.8" d="M1145.21 248.638L1144.89 249.18L1145.45 250.006L1146.08 249.929L1145.21 248.638Z" fill="#AAAAAA"/>
<path opacity="0.8" d="M1201.63 216.181L1201.97 215.653L1201.47 214.804L1200.83 214.848L1201.63 216.181Z" fill="#AAAAAA"/>
<path opacity="0.8" d="M1144.38 247.249L1144.04 247.777L1144.54 248.626L1145.18 248.583L1144.38 247.249Z" fill="#AAAAAA"/>
<path opacity="0.8" d="M1202.39 217.604L1202.76 217.098L1202.3 216.227L1201.66 216.237L1202.39 217.604Z" fill="#AAAAAA"/>
<path opacity="0.8" d="M1143.63 245.818L1143.25 246.324L1143.72 247.203L1144.35 247.193L1143.63 245.818Z" fill="#AAAAAA"/>
<path opacity="0.8" d="M1203.07 219.07L1203.47 218.587L1203.05 217.684L1202.41 217.669L1203.07 219.07Z" fill="#AAAAAA"/>
<path opacity="0.8" d="M1142.94 244.36L1142.53 244.844L1142.96 245.738L1143.59 245.762L1142.94 244.36Z" fill="#AAAAAA"/>
<path opacity="0.8" d="M1203.68 220.572L1204.1 220.103L1203.74 219.185L1203.1 219.135L1203.68 220.572Z" fill="#AAAAAA"/>
<path opacity="0.8" d="M1142.34 242.858L1141.91 243.327L1142.28 244.245L1142.91 244.295L1142.34 242.858Z" fill="#AAAAAA"/>
<path opacity="0.8" d="M1204.21 222.1L1204.66 221.653L1204.33 220.713L1203.7 220.629L1204.21 222.1Z" fill="#AAAAAA"/>
<path opacity="0.8" d="M1141.8 241.331L1141.36 241.777L1141.68 242.708L1142.31 242.793L1141.8 241.331Z" fill="#AAAAAA"/>
<path opacity="0.8" d="M1204.66 223.646L1205.12 223.223L1204.85 222.277L1204.22 222.158L1204.66 223.646Z" fill="#AAAAAA"/>
<path opacity="0.8" d="M1141.36 239.784L1140.89 240.208L1141.16 241.154L1141.78 241.273L1141.36 239.784Z" fill="#AAAAAA"/>
<path opacity="0.8" d="M1205.02 225.22L1205.52 224.818L1205.29 223.859L1204.67 223.712L1205.02 225.22Z" fill="#AAAAAA"/>
<path opacity="0.8" d="M1140.99 238.211L1140.5 238.612L1140.72 239.572L1141.34 239.718L1140.99 238.211Z" fill="#AAAAAA"/>
<path opacity="0.8" d="M1205.31 226.804L1205.82 226.434L1205.65 225.459L1205.04 225.287L1205.31 226.804Z" fill="#AAAAAA"/>
<path opacity="0.8" d="M1140.71 236.627L1140.19 236.996L1140.37 237.972L1140.97 238.144L1140.71 236.627Z" fill="#AAAAAA"/>
<path opacity="0.8" d="M1197.4 234.736C1199.19 221.561 1189.71 209.53 1176.23 207.865C1162.76 206.2 1150.39 215.531 1148.61 228.707C1146.83 241.882 1156.31 253.913 1169.78 255.578C1183.25 257.243 1195.62 247.912 1197.4 234.736Z" stroke="#1A1466" stroke-linecap="round" stroke-linejoin="round"/>
<path opacity="0.8" d="M1174.16 241.106C1179.47 240.454 1183.26 235.721 1182.62 230.535C1181.98 225.349 1177.16 221.673 1171.85 222.325C1166.54 222.977 1162.75 227.71 1163.39 232.897C1164.02 238.083 1168.84 241.758 1174.16 241.106Z" stroke="#1A1466" stroke-linecap="round" stroke-linejoin="round"/>
<path opacity="0.8" d="M1185.92 230.121C1186.29 232.971 1185.65 235.863 1184.12 238.325C1182.59 240.787 1180.25 242.672 1177.48 243.671L1171.55 244.399C1168.62 244.119 1165.88 242.873 1163.78 240.866C1161.68 238.86 1160.35 236.211 1160 233.355C1159.65 230.5 1160.3 227.607 1161.85 225.152C1163.4 222.697 1165.76 220.825 1168.54 219.844L1174.47 219.116C1177.37 219.416 1180.08 220.665 1182.16 222.662C1184.24 224.659 1185.57 227.288 1185.92 230.121V230.121Z" stroke="#1A1466" stroke-linecap="round" stroke-linejoin="round"/>
<path opacity="0.8" d="M1213.21 193.507L1201.31 194.967C1200.68 195.044 1200.24 195.602 1200.31 196.214L1200.67 199.168C1200.75 199.78 1201.32 200.213 1201.94 200.136L1213.84 198.676C1214.47 198.599 1214.91 198.041 1214.84 197.429L1214.48 194.475C1214.4 193.863 1213.83 193.43 1213.21 193.507Z" stroke="#1A1466" stroke-linecap="round" stroke-linejoin="round"/>
<path opacity="0.8" d="M1136.36 205.422L1141.93 204.738C1142.32 204.69 1142.66 204.961 1142.7 205.316L1143.02 207.925C1143.06 208.28 1142.8 208.624 1142.41 208.672L1136.84 209.356C1136.45 209.404 1136.12 209.133 1136.07 208.779L1135.75 206.169C1135.71 205.814 1135.97 205.47 1136.36 205.422Z" stroke="#1A1466"/>
</g>
<path opacity="0.7" d="M1286.06 3.54207C1279.43 -0.62802 1269.39 -0.858823 1262.44 1.51179C1250.02 5.7523 1251.67 15.2035 1240.9 21.8537C1230.13 28.5039 1219.78 26.1568 1209.42 34.7864C1199.06 43.4161 1198.13 59.7483 1202.38 67.3883C1206.63 75.0282 1211.49 80.634 1207.35 93.7819C1203.2 106.93 1203.62 122.202 1220.19 130.241C1236.76 138.28 1249.6 121.142 1260.37 124.666C1271.14 128.191 1291.44 143.796 1313.81 139.14C1336.18 134.485 1326.24 118.47 1340.74 113.913C1355.24 109.355 1363.52 93.6215 1358.55 77.0076C1353.58 60.3938 1341.15 57.1978 1344.05 46.7491C1346.24 38.8587 1349.17 31.2657 1343.6 23.6688C1336.4 13.8656 1324.09 9.66029 1312.15 10.6539C1307.71 11.0451 1302.63 11.1742 1297.98 10.1571C1292.71 8.99135 1290.27 6.19434 1286.06 3.54207Z" fill="#F9F8FE"/>
<g opacity="0.8">
<path opacity="0.8" d="M1281.95 29.8318C1276.34 34.7556 1262.39 39.2966 1245.87 49.6124C1245.87 49.6124 1244.89 87.3446 1277.77 109.722L1281.95 29.8318Z" stroke="#1A1466" stroke-linecap="round" stroke-linejoin="round"/>
<path opacity="0.8" d="M1281.95 29.8318C1287.02 35.3155 1300.42 41.2894 1315.77 53.276C1315.77 53.276 1312.8 90.9038 1277.77 109.722L1281.95 29.8318Z" stroke="#1A1466" stroke-linecap="round" stroke-linejoin="round"/>
<path opacity="0.8" d="M1281.78 33.0397C1275.09 37.38 1263.68 41.2549 1248.37 50.8107C1248.37 50.8107 1247.47 85.7708 1277.93 106.515C1310.4 89.0771 1313.15 54.2055 1313.15 54.2055C1298.92 43.1057 1288.03 38.0583 1281.78 33.0397Z" stroke="#1A1466" stroke-linecap="round" stroke-linejoin="round"/>
</g>
</svg>
