<svg width="369" height="449" viewBox="0 0 369 449" fill="none" xmlns="http://www.w3.org/2000/svg">
<rect x="0.5" y="46.5986" width="335" height="401" rx="11.5" fill="white" stroke="#111111"/>
<path d="M40 82.0909L40 80.0909L27.7903 80.0909L32.4583 75.4679L31.0602 74.0986L24 81.0909L31.0602 88.0986L32.4583 86.6986L27.7903 82.0909L40 82.0909Z" fill="#111111"/>
<path d="M32.448 166.219H29.832V163.363C27.992 163.187 26.384 162.707 25.008 161.923V158.491C26.8 159.675 28.808 160.267 31.032 160.267C32.056 160.267 32.816 160.147 33.312 159.907C33.824 159.651 34.08 159.235 34.08 158.659C34.08 158.243 33.912 157.883 33.576 157.579C33.256 157.275 32.832 157.035 32.304 156.859C31.776 156.667 31.192 156.483 30.552 156.307C29.912 156.115 29.272 155.899 28.632 155.659C27.992 155.403 27.408 155.107 26.88 154.771C26.352 154.419 25.92 153.939 25.584 153.331C25.264 152.723 25.104 152.019 25.104 151.219C25.104 149.859 25.536 148.787 26.4 148.003C27.264 147.203 28.408 146.707 29.832 146.515V143.659H32.448V146.539C34.144 146.699 35.56 147.099 36.696 147.739V151.099C35.272 150.075 33.544 149.579 31.512 149.611C29.688 149.643 28.776 150.163 28.776 151.171C28.776 151.555 28.936 151.891 29.256 152.179C29.592 152.451 30.024 152.675 30.552 152.851C31.096 153.027 31.688 153.203 32.328 153.379C32.968 153.555 33.6 153.771 34.224 154.027C34.864 154.283 35.448 154.587 35.976 154.939C36.52 155.275 36.952 155.747 37.272 156.355C37.608 156.963 37.776 157.675 37.776 158.491C37.776 160.059 37.288 161.235 36.312 162.019C35.352 162.803 34.064 163.259 32.448 163.387V166.219ZM40.6673 146.755H51.0353V149.851L43.9073 149.827L43.6913 153.019C44.4593 152.859 45.1633 152.779 45.8033 152.779C47.5633 152.779 48.9953 153.203 50.0993 154.051C51.2193 154.899 51.7793 156.211 51.7793 157.987C51.7793 159.779 51.1153 161.139 49.7873 162.067C48.4593 162.979 46.8193 163.435 44.8672 163.435C42.8832 163.435 41.1313 163.067 39.6113 162.331V158.995C40.9713 159.859 42.5873 160.291 44.4593 160.291C45.5793 160.291 46.4753 160.091 47.1473 159.691C47.8353 159.291 48.1793 158.707 48.1793 157.939C48.1793 156.339 46.8513 155.539 44.1953 155.539C42.7553 155.539 41.3873 155.771 40.0913 156.235L40.6673 146.755ZM57.1041 159.979C57.4881 160.315 57.6801 160.803 57.6801 161.443C57.6801 162.083 57.4881 162.571 57.1041 162.907C56.7201 163.243 56.2401 163.411 55.6641 163.411C55.0881 163.411 54.6001 163.243 54.2001 162.907C53.8161 162.571 53.6241 162.083 53.6241 161.443C53.6241 160.803 53.8161 160.315 54.2001 159.979C54.6001 159.643 55.0881 159.475 55.6641 159.475C56.2401 159.475 56.7201 159.643 57.1041 159.979ZM62.8268 153.643C64.2028 152.907 65.6588 152.539 67.1948 152.539C68.7628 152.539 70.0988 153.003 71.2028 153.931C72.3228 154.859 72.8828 156.155 72.8828 157.819C72.8828 159.595 72.2828 160.979 71.0828 161.971C69.8828 162.947 68.4028 163.435 66.6428 163.435C61.7148 163.435 59.2508 160.603 59.2508 154.939C59.2508 153.499 59.4588 152.227 59.8748 151.123C60.2908 150.003 60.8588 149.115 61.5788 148.459C62.2988 147.787 63.1148 147.283 64.0268 146.947C64.9388 146.611 65.9308 146.443 67.0028 146.443C68.5548 146.443 70.0508 146.779 71.4908 147.451V150.619C70.3228 149.851 68.9868 149.467 67.4828 149.467C64.7468 149.467 63.1948 150.859 62.8268 153.643ZM62.8268 156.547C62.9868 157.987 63.3628 159.011 63.9548 159.619C64.5468 160.211 65.3468 160.507 66.3548 160.507C67.2188 160.507 67.9228 160.299 68.4668 159.883C69.0108 159.467 69.2828 158.835 69.2828 157.987C69.2828 156.355 68.2188 155.539 66.0908 155.539C64.9388 155.539 63.8508 155.875 62.8268 156.547ZM78.8012 146.779H81.4172V160.003H84.1532V163.099H74.8412V160.003H77.9132V150.379L74.8412 151.531V148.291L78.8012 146.779Z" fill="#111111"/>
<rect x="24" y="232.099" width="288" height="16" rx="7" fill="#E4F0FB"/>
<rect x="24.5" y="264.599" width="287" height="71" rx="6.5" fill="white" stroke="#111111"/>
<path d="M51.088 280.899H53.312V292.099H50.912V285.203L47.952 289.699H46.56L43.6 285.187V292.099H41.2V280.899H43.424L47.264 286.723L51.088 280.899ZM55.9921 291.251C55.1708 290.536 54.7601 289.539 54.7601 288.259C54.7601 286.979 55.1708 285.981 55.9921 285.267C56.8135 284.552 57.8161 284.195 59.0001 284.195C60.1948 284.195 61.1975 284.552 62.0081 285.267C62.8295 285.981 63.2401 286.979 63.2401 288.259C63.2401 289.539 62.8295 290.536 62.0081 291.251C61.1975 291.965 60.1948 292.323 59.0001 292.323C57.8161 292.323 56.8135 291.965 55.9921 291.251ZM60.4561 289.763C60.8081 289.368 60.9841 288.867 60.9841 288.259C60.9841 287.651 60.8081 287.155 60.4561 286.771C60.1041 286.376 59.6188 286.179 59.0001 286.179C58.3815 286.179 57.8961 286.376 57.5441 286.771C57.2028 287.155 57.0321 287.651 57.0321 288.259C57.0321 288.867 57.2028 289.368 57.5441 289.763C57.8961 290.147 58.3815 290.339 59.0001 290.339C59.6188 290.339 60.1041 290.147 60.4561 289.763ZM66.5801 285.395C67.2735 284.595 68.1268 284.195 69.1401 284.195C70.1215 284.195 70.8841 284.493 71.4281 285.091C71.9828 285.677 72.2601 286.429 72.2601 287.347V292.099H70.0361V287.635C70.0361 287.133 69.8975 286.755 69.6201 286.499C69.3535 286.243 68.9961 286.115 68.5481 286.115C67.8548 286.115 67.2841 286.44 66.8361 287.091V292.099H64.6121V284.419H66.5801V285.395ZM74.4831 282.179L76.6911 281.651V284.419H79.1231V286.291H76.6911V289.299C76.6911 290.067 77.1018 290.451 77.9231 290.451C78.4138 290.451 78.8778 290.365 79.3151 290.195V291.987C78.6751 292.211 77.9871 292.323 77.2511 292.323C76.4405 292.323 75.7738 292.115 75.2511 291.699C74.7391 291.283 74.4831 290.627 74.4831 289.731V286.291H73.1871V284.419H74.4831V282.179ZM80.5146 280.899H82.7386V285.123C83.4 284.504 84.168 284.195 85.0426 284.195C86.024 284.195 86.7866 284.493 87.3306 285.091C87.8853 285.677 88.1626 286.429 88.1626 287.347V292.099H85.9386V287.635C85.9386 287.133 85.8 286.755 85.5226 286.499C85.256 286.243 84.8986 286.115 84.4506 286.115C83.7573 286.115 83.1866 286.44 82.7386 287.091V292.099H80.5146V280.899ZM89.9041 280.419H92.1281V292.099H89.9041V280.419ZM97.66 289.603L99.564 284.419H101.868L98.46 293.027C97.7027 294.893 96.5987 295.827 95.148 295.827C94.8387 295.827 94.4387 295.768 93.948 295.651V293.811C94.3 293.885 94.604 293.923 94.86 293.923C95.6707 293.923 96.2787 293.363 96.684 292.243L96.7 292.211L93.068 284.419H95.42L97.66 289.603Z" fill="#111111"/>
<path d="M46.072 318.179H44.952V316.259C43.7147 316.141 42.6533 315.832 41.768 315.331V313.987C42.888 314.669 44.1893 315.011 45.672 315.011C47.4853 315.011 48.392 314.456 48.392 313.347C48.392 312.941 48.2693 312.6 48.024 312.323C47.7893 312.035 47.4747 311.811 47.08 311.651C46.696 311.491 46.2693 311.347 45.8 311.219C45.3307 311.091 44.8613 310.952 44.392 310.803C43.9227 310.643 43.4907 310.461 43.096 310.259C42.712 310.045 42.3973 309.747 42.152 309.363C41.9173 308.979 41.8 308.52 41.8 307.987C41.8 307.144 42.0933 306.472 42.68 305.971C43.2667 305.469 44.024 305.165 44.952 305.059V303.139H46.072V305.043C47.2347 305.107 48.2213 305.373 49.032 305.843V307.187C48.0933 306.579 46.9947 306.285 45.736 306.307C44.0187 306.307 43.16 306.851 43.16 307.939C43.16 308.323 43.2773 308.648 43.512 308.915C43.7573 309.181 44.072 309.389 44.456 309.539C44.8507 309.688 45.2827 309.827 45.752 309.955C46.2213 310.072 46.6907 310.211 47.16 310.371C47.6293 310.531 48.056 310.717 48.44 310.931C48.8347 311.144 49.1493 311.448 49.384 311.843C49.6293 312.237 49.752 312.707 49.752 313.251C49.752 314.253 49.4107 315.005 48.728 315.507C48.0453 315.997 47.16 316.259 46.072 316.291V318.179ZM51.9921 305.219H58.5201V306.499H53.2561L53.0641 309.571C53.6401 309.411 54.2588 309.331 54.9201 309.331C55.4641 309.331 55.9708 309.395 56.4401 309.523C56.9095 309.64 57.3415 309.832 57.7361 310.099C58.1415 310.355 58.4615 310.717 58.6961 311.187C58.9308 311.645 59.0481 312.189 59.0481 312.819C59.0481 313.896 58.6481 314.744 57.8481 315.363C57.0588 315.981 56.0508 316.291 54.8241 316.291C53.5015 316.291 52.3388 316.045 51.3361 315.555V314.275C52.2961 314.787 53.4055 315.043 54.6641 315.043C55.5815 315.043 56.3121 314.851 56.8561 314.467C57.4108 314.083 57.6881 313.533 57.6881 312.819C57.6881 311.304 56.6108 310.547 54.4561 310.547C53.5175 310.547 52.5788 310.717 51.6401 311.059L51.9921 305.219ZM61.4177 305.219H67.9458V306.499H62.6817L62.4897 309.571C63.0657 309.411 63.6844 309.331 64.3457 309.331C64.8897 309.331 65.3964 309.395 65.8657 309.523C66.3351 309.64 66.7671 309.832 67.1617 310.099C67.5671 310.355 67.8871 310.717 68.1217 311.187C68.3564 311.645 68.4738 312.189 68.4738 312.819C68.4738 313.896 68.0738 314.744 67.2737 315.363C66.4844 315.981 65.4764 316.291 64.2498 316.291C62.9271 316.291 61.7644 316.045 60.7617 315.555V314.275C61.7217 314.787 62.8311 315.043 64.0897 315.043C65.0071 315.043 65.7377 314.851 66.2818 314.467C66.8364 314.083 67.1137 313.533 67.1137 312.819C67.1137 311.304 66.0364 310.547 63.8817 310.547C62.9431 310.547 62.0044 310.717 61.0657 311.059L61.4177 305.219ZM71.5314 310.355C72.566 309.661 73.702 309.315 74.9394 309.315C75.9314 309.315 76.8007 309.619 77.5474 310.227C78.294 310.824 78.6674 311.656 78.6674 312.723C78.6674 313.843 78.294 314.717 77.5474 315.347C76.8114 315.976 75.8834 316.291 74.7634 316.291C73.2274 316.291 72.0754 315.816 71.3074 314.867C70.55 313.907 70.1714 312.563 70.1714 310.835C70.1714 308.915 70.6247 307.469 71.5314 306.499C72.4487 305.517 73.6434 305.027 75.1154 305.027C76.0647 305.027 76.9447 305.235 77.7554 305.651V306.931C76.966 306.515 76.0967 306.307 75.1474 306.307C74.1447 306.307 73.3074 306.632 72.6354 307.283C71.974 307.923 71.606 308.947 71.5314 310.355ZM71.5474 311.699C71.75 313.928 72.79 315.043 74.6674 315.043C75.4567 315.043 76.0914 314.861 76.5714 314.499C77.062 314.136 77.3074 313.565 77.3074 312.787C77.3074 311.997 77.0567 311.432 76.5554 311.091C76.054 310.739 75.4034 310.563 74.6034 310.563C73.4194 310.563 72.4007 310.941 71.5474 311.699ZM84.6052 311.523H90.3172V312.739H84.6052V311.523ZM97.9872 309.555C98.2646 309.181 98.6486 308.867 99.1392 308.611C99.6406 308.355 100.179 308.227 100.755 308.227C101.683 308.227 102.446 308.52 103.043 309.107C103.651 309.683 103.955 310.435 103.955 311.363V316.099H102.675V311.523C102.675 310.829 102.483 310.307 102.099 309.955C101.726 309.592 101.23 309.411 100.611 309.411C99.6299 309.411 98.7979 309.923 98.1152 310.947V316.099H96.8352V308.419H97.9872V309.555ZM105.858 312.259C105.858 311 106.242 310.013 107.01 309.299C107.789 308.584 108.679 308.227 109.682 308.227C110.621 308.227 111.394 308.461 112.002 308.931C112.621 309.4 113.026 309.981 113.218 310.675C113.41 311.357 113.421 312.072 113.25 312.819H107.138C107.213 313.576 107.549 314.147 108.146 314.531C108.743 314.915 109.463 315.107 110.306 315.107C111.245 315.107 112.087 314.899 112.834 314.483V315.731C112.119 316.104 111.213 316.291 110.114 316.291C108.898 316.291 107.885 315.944 107.074 315.251C106.263 314.557 105.858 313.56 105.858 312.259ZM112.114 311.699C112.146 311.475 112.13 311.24 112.066 310.995C112.002 310.749 111.885 310.504 111.714 310.259C111.554 310.013 111.303 309.811 110.962 309.651C110.621 309.491 110.221 309.411 109.762 309.411C109.069 309.411 108.466 309.613 107.954 310.019C107.453 310.424 107.181 310.984 107.138 311.699H112.114ZM119.987 308.419H121.459L118.643 312.147L121.619 316.099H120.147L117.907 313.059L115.651 316.099H114.179L117.171 312.147L114.339 308.419H115.811L117.907 311.251L119.987 308.419ZM123.671 306.035L124.935 305.715V308.419H128.007V309.603H124.935V313.571C124.935 314.136 125.063 314.531 125.319 314.755C125.586 314.979 126.007 315.091 126.583 315.091C127.138 315.091 127.703 314.973 128.279 314.739V315.923C127.628 316.157 126.94 316.275 126.215 316.275C125.436 316.275 124.818 316.067 124.359 315.651C123.9 315.224 123.671 314.605 123.671 313.795V309.603H122.231V308.419H123.671V306.035ZM131.146 309.267C131.306 309.405 131.386 309.603 131.386 309.859C131.386 310.115 131.306 310.317 131.146 310.467C130.986 310.605 130.783 310.675 130.538 310.675C130.303 310.675 130.106 310.605 129.946 310.467C129.786 310.317 129.706 310.115 129.706 309.859C129.706 309.603 129.786 309.405 129.946 309.267C130.106 309.117 130.303 309.043 130.538 309.043C130.783 309.043 130.986 309.117 131.146 309.267ZM131.146 314.835C131.306 314.973 131.386 315.171 131.386 315.427C131.386 315.683 131.306 315.885 131.146 316.035C130.986 316.173 130.783 316.243 130.538 316.243C130.303 316.243 130.106 316.173 129.946 316.035C129.786 315.885 129.706 315.683 129.706 315.427C129.706 315.171 129.786 314.973 129.946 314.835C130.106 314.696 130.303 314.627 130.538 314.627C130.783 314.627 130.986 314.696 131.146 314.835ZM144.881 307.987C144.881 308.541 144.731 309.043 144.433 309.491C144.145 309.928 143.766 310.227 143.297 310.387C143.851 310.557 144.326 310.872 144.721 311.331C145.126 311.779 145.329 312.381 145.329 313.139C145.329 314.152 144.95 314.931 144.193 315.475C143.446 316.019 142.497 316.291 141.345 316.291C139.883 316.291 138.619 316.051 137.553 315.571V314.243C138.587 314.776 139.814 315.037 141.233 315.027C143.099 315.027 144.033 314.376 144.033 313.075C144.033 311.773 143.147 311.123 141.377 311.123H139.713V309.843L141.233 309.859C142.001 309.859 142.582 309.699 142.977 309.379C143.382 309.048 143.585 308.621 143.585 308.099C143.585 307.533 143.361 307.091 142.913 306.771C142.465 306.44 141.83 306.275 141.009 306.275C139.878 306.275 138.79 306.552 137.745 307.107V305.795C138.747 305.283 139.894 305.027 141.185 305.027C142.294 305.027 143.185 305.299 143.857 305.843C144.539 306.387 144.881 307.101 144.881 307.987ZM149.759 305.219H150.751V314.819H152.783V316.099H147.119V314.819H149.407V306.643L147.119 307.507V306.227L149.759 305.219ZM159.393 304.899H164.033V312.931C164.033 314.051 163.691 314.888 163.009 315.443C162.337 315.987 161.451 316.259 160.353 316.259C159.169 316.259 158.209 316.029 157.473 315.571V314.227C158.187 314.728 159.067 314.979 160.113 314.979C161.83 314.979 162.689 314.28 162.689 312.883V306.179H159.393V304.899ZM172.367 308.419H173.647V316.099H172.495V314.963C172.217 315.336 171.828 315.651 171.327 315.907C170.836 316.163 170.303 316.291 169.727 316.291C168.735 316.291 167.951 316.008 167.375 315.443C166.809 314.867 166.527 314.104 166.527 313.155V308.419H167.807V312.995C167.807 314.403 168.495 315.107 169.871 315.107C170.852 315.107 171.684 314.595 172.367 313.571V308.419ZM176.205 304.419H177.485V316.099H176.205V304.419Z" fill="#111111"/>
<rect x="265.5" y="304.599" width="30" height="15" rx="7.5" fill="#111111" stroke="#111111"/>
<circle cx="288" cy="312.099" r="7" fill="white"/>
<rect x="24.5" y="352.599" width="287" height="71" rx="6.5" fill="white" stroke="#111111"/>
<path d="M54.144 368.899H56.736L53.28 380.099H50.672L48.448 372.467L46.224 380.099H43.616L40.16 368.899H42.752L44.976 377.363L47.392 368.899H49.504L51.92 377.363L54.144 368.899ZM56.4164 376.259C56.4164 375.565 56.539 374.952 56.7844 374.419C57.0297 373.875 57.3497 373.448 57.7444 373.139C58.1497 372.829 58.571 372.595 59.0084 372.435C59.4564 372.275 59.9097 372.195 60.3684 372.195C61.1364 372.195 61.7977 372.339 62.3524 372.627C62.9177 372.915 63.3337 373.288 63.6004 373.747C63.867 374.195 64.0484 374.707 64.1444 375.283C64.251 375.848 64.2244 376.413 64.0644 376.979H58.6564C58.7737 377.512 59.083 377.912 59.5844 378.179C60.0857 378.435 60.6777 378.563 61.3604 378.563C62.203 378.563 62.9764 378.408 63.6804 378.099V379.843C62.923 380.163 61.9844 380.323 60.8644 380.323C59.5844 380.323 58.523 379.965 57.6804 379.251C56.8377 378.536 56.4164 377.539 56.4164 376.259ZM62.0644 375.539C62.1177 375.187 62.0164 374.824 61.7604 374.451C61.5044 374.077 61.067 373.891 60.4484 373.891C59.9577 373.891 59.5364 374.04 59.1844 374.339C58.8324 374.627 58.651 375.027 58.6404 375.539H62.0644ZM65.0864 376.259C65.0864 375.565 65.209 374.952 65.4544 374.419C65.6997 373.875 66.0197 373.448 66.4144 373.139C66.8197 372.829 67.241 372.595 67.6784 372.435C68.1264 372.275 68.5797 372.195 69.0384 372.195C69.8064 372.195 70.4677 372.339 71.0224 372.627C71.5877 372.915 72.0037 373.288 72.2704 373.747C72.537 374.195 72.7184 374.707 72.8144 375.283C72.921 375.848 72.8944 376.413 72.7344 376.979H67.3264C67.4437 377.512 67.753 377.912 68.2544 378.179C68.7557 378.435 69.3477 378.563 70.0304 378.563C70.873 378.563 71.6464 378.408 72.3504 378.099V379.843C71.593 380.163 70.6544 380.323 69.5344 380.323C68.2544 380.323 67.193 379.965 66.3504 379.251C65.5077 378.536 65.0864 377.539 65.0864 376.259ZM70.7344 375.539C70.7877 375.187 70.6864 374.824 70.4304 374.451C70.1744 374.077 69.737 373.891 69.1184 373.891C68.6277 373.891 68.2064 374.04 67.8544 374.339C67.5024 374.627 67.321 375.027 67.3104 375.539H70.7344ZM82.0124 380.099H79.5164L77.3084 377.059H76.4124V380.099H74.1884V368.899H76.4124V375.283H77.3404L79.2924 372.419H81.7884L79.1484 376.211L82.0124 380.099ZM82.8904 368.419H85.1144V380.099H82.8904V368.419ZM90.6462 377.603L92.5502 372.419H94.8542L91.4462 381.027C90.6889 382.893 89.5849 383.827 88.1342 383.827C87.8249 383.827 87.4249 383.768 86.9342 383.651V381.811C87.2862 381.885 87.5902 381.923 87.8462 381.923C88.6569 381.923 89.2649 381.363 89.6702 380.243L89.6862 380.211L86.0542 372.419H88.4062L90.6462 377.603Z" fill="#111111"/>
<path d="M46.072 406.179H44.952V404.259C43.7147 404.141 42.6533 403.832 41.768 403.331V401.987C42.888 402.669 44.1893 403.011 45.672 403.011C47.4853 403.011 48.392 402.456 48.392 401.347C48.392 400.941 48.2693 400.6 48.024 400.323C47.7893 400.035 47.4747 399.811 47.08 399.651C46.696 399.491 46.2693 399.347 45.8 399.219C45.3307 399.091 44.8613 398.952 44.392 398.803C43.9227 398.643 43.4907 398.461 43.096 398.259C42.712 398.045 42.3973 397.747 42.152 397.363C41.9173 396.979 41.8 396.52 41.8 395.987C41.8 395.144 42.0933 394.472 42.68 393.971C43.2667 393.469 44.024 393.165 44.952 393.059V391.139H46.072V393.043C47.2347 393.107 48.2213 393.373 49.032 393.843V395.187C48.0933 394.579 46.9947 394.285 45.736 394.307C44.0187 394.307 43.16 394.851 43.16 395.939C43.16 396.323 43.2773 396.648 43.512 396.915C43.7573 397.181 44.072 397.389 44.456 397.539C44.8507 397.688 45.2827 397.827 45.752 397.955C46.2213 398.072 46.6907 398.211 47.16 398.371C47.6293 398.531 48.056 398.717 48.44 398.931C48.8347 399.144 49.1493 399.448 49.384 399.843C49.6293 400.237 49.752 400.707 49.752 401.251C49.752 402.253 49.4107 403.005 48.728 403.507C48.0453 403.997 47.16 404.259 46.072 404.291V406.179ZM53.9761 393.219H54.9681V402.819H57.0001V404.099H51.3361V402.819H53.6241V394.643L51.3361 395.507V394.227L53.9761 393.219ZM58.6111 394.083C59.6245 393.379 60.7871 393.027 62.0991 393.027C63.2298 393.027 64.1311 393.283 64.8031 393.795C65.4751 394.307 65.8111 395.021 65.8111 395.939C65.8111 396.376 65.7258 396.787 65.5551 397.171C65.3951 397.555 65.1498 397.907 64.8191 398.227C64.4991 398.547 64.1845 398.819 63.8751 399.043C63.5765 399.256 63.1978 399.496 62.7391 399.763C62.6858 399.795 62.5205 399.891 62.2431 400.051C61.9765 400.211 61.8058 400.312 61.7311 400.355C61.6671 400.397 61.5178 400.493 61.2831 400.643C61.0591 400.781 60.9098 400.883 60.8351 400.947C60.7711 401.011 60.6538 401.112 60.4831 401.251C60.3231 401.389 60.2111 401.507 60.1471 401.603C60.0938 401.699 60.0191 401.821 59.9231 401.971C59.8378 402.109 59.7791 402.248 59.7471 402.387C59.7151 402.525 59.6991 402.675 59.6991 402.835L65.8911 402.819V404.099H58.2271V403.459C58.2271 402.861 58.3231 402.323 58.5151 401.843C58.7071 401.352 58.9791 400.936 59.3311 400.595C59.6938 400.243 60.0511 399.949 60.4031 399.715C60.7551 399.469 61.1658 399.208 61.6351 398.931C61.7418 398.877 61.8218 398.835 61.8751 398.803C62.8458 398.237 63.4805 397.805 63.7791 397.507C64.2378 397.037 64.4671 396.509 64.4671 395.923C64.4671 395.389 64.2485 394.984 63.8111 394.707C63.3845 394.419 62.7765 394.275 61.9871 394.275C60.8351 394.275 59.7098 394.659 58.6111 395.427V394.083ZM68.9026 402.739C68.092 401.704 67.6866 400.344 67.6866 398.659C67.6866 396.973 68.092 395.613 68.9026 394.579C69.7133 393.544 70.908 393.027 72.4866 393.027C74.076 393.027 75.276 393.544 76.0866 394.579C76.8973 395.603 77.3026 396.963 77.3026 398.659C77.3026 400.355 76.8973 401.72 76.0866 402.755C75.276 403.779 74.076 404.291 72.4866 404.291C70.908 404.291 69.7133 403.773 68.9026 402.739ZM75.0786 401.891C75.6546 401.133 75.9426 400.056 75.9426 398.659C75.9426 397.261 75.6546 396.189 75.0786 395.443C74.5133 394.685 73.6493 394.307 72.4866 394.307C71.324 394.307 70.46 394.685 69.8946 395.443C69.3293 396.189 69.0466 397.261 69.0466 398.659C69.0466 400.056 69.3293 401.133 69.8946 401.891C70.46 402.637 71.324 403.011 72.4866 403.011C73.6493 403.011 74.5133 402.637 75.0786 401.891ZM83.449 399.523H89.161V400.739H83.449V399.523ZM96.831 397.555C97.1083 397.181 97.4923 396.867 97.983 396.611C98.4843 396.355 99.023 396.227 99.599 396.227C100.527 396.227 101.29 396.52 101.887 397.107C102.495 397.683 102.799 398.435 102.799 399.363V404.099H101.519V399.523C101.519 398.829 101.327 398.307 100.943 397.955C100.57 397.592 100.074 397.411 99.455 397.411C98.4737 397.411 97.6417 397.923 96.959 398.947V404.099H95.679V396.419H96.831V397.555ZM104.702 400.259C104.702 399 105.086 398.013 105.854 397.299C106.632 396.584 107.523 396.227 108.526 396.227C109.464 396.227 110.238 396.461 110.846 396.931C111.464 397.4 111.87 397.981 112.062 398.675C112.254 399.357 112.264 400.072 112.094 400.819H105.982C106.056 401.576 106.392 402.147 106.99 402.531C107.587 402.915 108.307 403.107 109.15 403.107C110.088 403.107 110.931 402.899 111.678 402.483V403.731C110.963 404.104 110.056 404.291 108.958 404.291C107.742 404.291 106.728 403.944 105.918 403.251C105.107 402.557 104.702 401.56 104.702 400.259ZM110.958 399.699C110.99 399.475 110.974 399.24 110.91 398.995C110.846 398.749 110.728 398.504 110.558 398.259C110.398 398.013 110.147 397.811 109.806 397.651C109.464 397.491 109.064 397.411 108.606 397.411C107.912 397.411 107.31 397.613 106.798 398.019C106.296 398.424 106.024 398.984 105.982 399.699H110.958ZM118.831 396.419H120.303L117.487 400.147L120.463 404.099H118.991L116.751 401.059L114.495 404.099H113.023L116.015 400.147L113.183 396.419H114.655L116.751 399.251L118.831 396.419ZM122.515 394.035L123.779 393.715V396.419H126.851V397.603H123.779V401.571C123.779 402.136 123.907 402.531 124.163 402.755C124.429 402.979 124.851 403.091 125.427 403.091C125.981 403.091 126.547 402.973 127.123 402.739V403.923C126.472 404.157 125.784 404.275 125.059 404.275C124.28 404.275 123.661 404.067 123.203 403.651C122.744 403.224 122.515 402.605 122.515 401.795V397.603H121.075V396.419H122.515V394.035ZM129.989 397.267C130.149 397.405 130.229 397.603 130.229 397.859C130.229 398.115 130.149 398.317 129.989 398.467C129.829 398.605 129.627 398.675 129.381 398.675C129.147 398.675 128.949 398.605 128.789 398.467C128.629 398.317 128.549 398.115 128.549 397.859C128.549 397.603 128.629 397.405 128.789 397.267C128.949 397.117 129.147 397.043 129.381 397.043C129.627 397.043 129.829 397.117 129.989 397.267ZM129.989 402.835C130.149 402.973 130.229 403.171 130.229 403.427C130.229 403.683 130.149 403.885 129.989 404.035C129.829 404.173 129.627 404.243 129.381 404.243C129.147 404.243 128.949 404.173 128.789 404.035C128.629 403.885 128.549 403.683 128.549 403.427C128.549 403.171 128.629 402.973 128.789 402.835C128.949 402.696 129.147 402.627 129.381 402.627C129.627 402.627 129.829 402.696 129.989 402.835ZM139.052 393.219H140.044V402.819H142.076V404.099H136.412V402.819H138.7V394.643L136.412 395.507V394.227L139.052 393.219ZM143.767 395.843C143.767 395.075 144.103 394.413 144.775 393.859C145.447 393.304 146.434 393.027 147.735 393.027C148.941 393.027 149.911 393.32 150.647 393.907C151.383 394.493 151.762 395.197 151.783 396.019C151.815 397.139 151.319 398.056 150.295 398.771C151.543 399.389 152.167 400.243 152.167 401.331C152.167 402.163 151.799 402.867 151.063 403.443C150.338 404.008 149.261 404.291 147.831 404.291C146.413 404.291 145.314 403.981 144.535 403.363C143.767 402.744 143.383 401.992 143.383 401.107C143.383 400.573 143.538 400.045 143.847 399.523C144.167 398.989 144.631 398.541 145.239 398.179C144.258 397.581 143.767 396.803 143.767 395.843ZM147.895 399.203C147.341 399.053 146.834 398.893 146.375 398.723C145.842 398.979 145.431 399.309 145.143 399.715C144.866 400.12 144.727 400.536 144.727 400.963C144.727 401.613 144.994 402.125 145.527 402.499C146.071 402.861 146.85 403.043 147.863 403.043C148.717 403.043 149.421 402.893 149.975 402.595C150.541 402.285 150.823 401.885 150.823 401.395C150.823 400.979 150.674 400.627 150.375 400.339C150.087 400.04 149.805 399.837 149.527 399.731C149.25 399.624 148.791 399.475 148.151 399.283C148.034 399.251 147.949 399.224 147.895 399.203ZM150.439 396.259C150.439 395.693 150.199 395.224 149.719 394.851C149.239 394.467 148.567 394.275 147.703 394.275C146.914 394.275 146.285 394.424 145.815 394.723C145.346 395.011 145.111 395.379 145.111 395.827C145.111 396.136 145.175 396.408 145.303 396.643C145.442 396.867 145.645 397.059 145.911 397.219C146.189 397.368 146.439 397.491 146.663 397.587C146.887 397.672 147.186 397.768 147.559 397.875C147.602 397.885 147.634 397.896 147.655 397.907C147.677 397.907 147.703 397.912 147.735 397.923C147.767 397.933 147.799 397.944 147.831 397.955C147.863 397.965 148.045 398.019 148.375 398.115C148.717 398.2 148.978 398.269 149.159 398.323C150.013 397.768 150.439 397.08 150.439 396.259ZM159.205 392.899H163.845V400.931C163.845 402.051 163.504 402.888 162.821 403.443C162.149 403.987 161.264 404.259 160.165 404.259C158.981 404.259 158.021 404.029 157.285 403.571V402.227C158 402.728 158.88 402.979 159.925 402.979C161.642 402.979 162.501 402.28 162.501 400.883V394.179H159.205V392.899ZM172.179 396.419H173.459V404.099H172.307V402.963C172.03 403.336 171.641 403.651 171.139 403.907C170.649 404.163 170.115 404.291 169.539 404.291C168.547 404.291 167.763 404.008 167.187 403.443C166.622 402.867 166.339 402.104 166.339 401.155V396.419H167.619V400.995C167.619 402.403 168.307 403.107 169.683 403.107C170.665 403.107 171.497 402.595 172.179 401.571V396.419ZM176.018 392.419H177.298V404.099H176.018V392.419Z" fill="#111111"/>
<rect x="265.5" y="392.599" width="30" height="15" rx="7.5" fill="#111111" stroke="#111111"/>
<circle cx="288" cy="400.099" r="7" fill="white"/>
<rect x="24.5" y="184.599" width="79" height="31" rx="6.5" fill="white" stroke="#111111"/>
<path d="M41.1 199.42V199.92H41.6H46.3999C46.462 199.92 46.5 199.968 46.5 200.011C46.5 200.054 46.462 200.102 46.3999 200.102H41.6H41.1V200.602V205.332C41.1 205.376 41.062 205.423 40.9999 205.423C40.9381 205.423 40.9 205.376 40.9 205.332V200.602V200.102H40.4H35.6C35.5381 200.102 35.5 200.054 35.5 200.011C35.5 199.968 35.538 199.92 35.6 199.92H40.4H40.9V199.42V194.69C40.9 194.647 40.938 194.599 40.9999 194.599C41.0621 194.599 41.1 194.647 41.1 194.69V199.42Z" fill="#111111" stroke="#111111"/>
<rect x="55" y="197.099" width="38" height="6" rx="3" fill="#FAFF00"/>
<rect x="112.5" y="184.599" width="111" height="31" rx="6.5" fill="white" stroke="#111111"/>
<rect x="139.01" y="197.098" width="76" height="6" rx="3" fill="#FAFF00"/>
<path d="M126.709 194.102L125.28 194.103L125.288 203.261L121.983 199.762L121.006 200.812L126.005 206.103L131.006 200.803L130.005 199.756L126.716 203.259L126.709 194.102Z" fill="#111111"/>
<rect x="232.5" y="184.599" width="31" height="31" rx="6.5" fill="white" stroke="#111111"/>
<path d="M247.099 195.351L247.098 195.352C247.044 195.422 246.984 195.463 246.962 195.478C246.932 195.498 246.902 195.515 246.877 195.528C246.827 195.553 246.771 195.575 246.715 195.593C246.715 195.593 246.715 195.593 246.715 195.593C246.713 195.593 246.702 195.597 246.678 195.606C246.654 195.615 246.624 195.627 246.589 195.641C246.519 195.669 246.435 195.704 246.356 195.738L246.356 195.738L246.054 195.869L245.782 195.987L245.548 195.804L245.439 195.72L245.439 195.72C245.187 195.523 244.968 195.357 244.8 195.235C244.716 195.173 244.647 195.124 244.594 195.089C244.55 195.059 244.528 195.045 244.521 195.041C244.519 195.04 244.518 195.039 244.519 195.04C244.468 195.015 244.315 194.993 244.187 195.03C244.178 195.032 244.172 195.034 244.168 195.035C244.161 195.04 244.149 195.049 244.129 195.066C244.037 195.143 243.884 195.292 243.547 195.624C243.211 195.955 243.059 196.107 242.981 196.196C242.965 196.215 242.956 196.226 242.951 196.233C242.95 196.236 242.949 196.242 242.946 196.249L242.946 196.249C242.912 196.368 242.931 196.508 242.954 196.556C242.955 196.559 242.963 196.571 242.979 196.596C243.001 196.628 243.031 196.67 243.067 196.72C243.139 196.819 243.231 196.941 243.325 197.059C243.518 197.304 243.691 197.525 243.708 197.547L243.708 197.547C243.787 197.648 243.807 197.752 243.814 197.806C243.821 197.865 243.817 197.914 243.813 197.945C243.806 198.007 243.79 198.064 243.777 198.103C243.751 198.186 243.711 198.284 243.664 198.389L243.664 198.389C243.63 198.466 243.595 198.548 243.566 198.616C243.552 198.651 243.54 198.68 243.531 198.704C243.523 198.726 243.519 198.736 243.518 198.739L247.099 195.351ZM247.099 195.351C247.15 195.284 247.173 195.216 247.176 195.208C247.176 195.207 247.176 195.207 247.177 195.207C247.184 195.186 247.189 195.167 247.192 195.155C247.199 195.131 247.204 195.105 247.209 195.083C247.218 195.039 247.228 194.982 247.238 194.92C247.258 194.795 247.281 194.63 247.303 194.456L247.099 195.351ZM241.62 199.5C241.665 199.456 241.682 199.444 241.744 199.425C241.843 199.394 242.012 199.365 242.368 199.321L242.368 199.321C242.546 199.299 242.713 199.275 242.84 199.255C242.903 199.246 242.96 199.236 243.005 199.227C243.027 199.223 243.053 199.217 243.077 199.211C243.088 199.208 243.107 199.203 243.128 199.196C243.128 199.196 243.128 199.196 243.128 199.196C243.136 199.193 243.203 199.171 243.271 199.121L243.271 199.121C243.342 199.068 243.384 199.008 243.399 198.987C243.421 198.956 243.438 198.926 243.451 198.901C243.477 198.852 243.5 198.796 243.518 198.739L250.303 195.045C250.32 195.063 250.434 195.113 250.555 195.157C250.676 195.202 250.854 195.276 250.95 195.324C251.016 195.356 251.054 195.381 251.094 195.386C251.181 195.396 251.278 195.31 251.685 194.998M241.62 199.5C241.62 199.5 241.62 199.5 241.62 199.5C241.619 199.501 241.614 199.506 241.605 199.517C241.595 199.529 241.584 199.543 241.573 199.559C241.548 199.593 241.529 199.622 241.522 199.636L241.522 199.636L241.5 199.677V200.476V201.289L241.528 201.348L241.528 201.348C241.535 201.361 241.551 201.39 241.575 201.424C241.586 201.44 241.596 201.454 241.605 201.465C241.613 201.474 241.617 201.479 241.617 201.479C241.617 201.479 241.616 201.479 241.616 201.478L241.265 201.834M241.62 199.5L241.269 199.144L241.62 199.5C241.62 199.5 241.62 199.5 241.62 199.5ZM241.265 201.834L241.616 201.478C241.665 201.527 241.684 201.539 241.746 201.558C241.845 201.589 242.013 201.618 242.37 201.662C242.37 201.662 242.37 201.662 242.37 201.662L242.309 202.158M241.265 201.834C241.204 201.774 241.119 201.652 241.077 201.563L241 201.402L242.309 202.158M241.265 201.834C241.459 202.026 241.61 202.072 242.309 202.158M242.309 202.158C242.654 202.201 242.953 202.247 242.973 202.262C242.992 202.276 243.023 202.336 243.041 202.394M243.041 202.394C243.06 202.452 243.135 202.634 243.208 202.797C243.297 202.997 243.331 203.105 243.313 203.129C243.297 203.149 243.126 203.367 242.932 203.613C242.738 203.86 242.549 204.12 242.512 204.191M243.041 202.394L243.518 202.243C243.518 202.243 243.518 202.243 243.518 202.243C243.518 202.243 243.518 202.243 243.518 202.243L243.041 202.394ZM242.512 204.191C242.419 204.369 242.401 204.649 242.467 204.873M242.512 204.191L242.956 204.421C242.956 204.421 242.956 204.421 242.956 204.421L242.512 204.191ZM242.467 204.873C242.515 205.037 242.544 205.071 243.153 205.676C243.911 206.429 243.959 206.46 244.346 206.46M242.467 204.873L242.947 204.732M242.467 204.873L242.947 204.732L242.947 204.732M244.346 206.46C244.568 206.461 244.632 206.449 244.742 206.392C244.846 206.337 245.248 206.043 245.822 205.6M244.346 206.46L244.346 205.96M244.346 206.46L244.346 205.96C244.399 205.96 244.435 205.96 244.461 205.958C244.48 205.958 244.491 205.956 244.496 205.956C244.499 205.954 244.503 205.952 244.51 205.949C244.509 205.949 244.51 205.949 244.512 205.948C244.519 205.943 244.543 205.928 244.59 205.896C244.646 205.857 244.719 205.805 244.81 205.738C244.991 205.606 245.231 205.424 245.516 205.204M245.822 205.6C245.848 205.58 245.927 205.602 246.086 205.674M245.822 205.6L245.516 205.204M245.822 205.6L245.516 205.204M246.086 205.674C246.211 205.73 246.403 205.806 246.512 205.844M246.086 205.674L246.291 205.217M246.086 205.674L246.291 205.217C246.207 205.18 246.119 205.143 246.038 205.121C245.999 205.11 245.937 205.095 245.866 205.093C245.804 205.092 245.656 205.097 245.516 205.204L246.291 205.217M246.512 205.844C246.656 205.893 246.715 205.928 246.724 205.969M246.512 205.844L246.674 205.37M246.512 205.844L246.674 205.37C246.674 205.37 246.674 205.37 246.674 205.37M246.724 205.969C246.731 206.001 246.77 206.293 246.812 206.619M246.724 205.969L247.213 205.866L247.213 205.866M246.724 205.969L247.213 205.866M246.812 206.619C246.895 207.277 246.944 207.428 247.136 207.616C247.197 207.677 247.321 207.76 247.411 207.802L247.575 207.878H248.5H249.425L249.589 207.802C249.679 207.76 249.803 207.677 249.864 207.616M246.812 206.619L247.308 206.556C247.308 206.556 247.308 206.556 247.308 206.556C247.35 206.892 247.379 207.047 247.409 207.139C247.427 207.194 247.438 207.212 247.486 207.26C247.486 207.259 247.49 207.263 247.501 207.271C247.512 207.28 247.526 207.29 247.542 207.301C247.577 207.325 247.607 207.341 247.621 207.348L247.621 207.348L247.685 207.378H248.5H249.315L249.379 207.348L249.379 207.348C249.393 207.341 249.423 207.325 249.458 207.301C249.474 207.29 249.488 207.28 249.499 207.271C249.511 207.262 249.515 207.258 249.513 207.26L249.864 207.616M246.812 206.619L250.729 205.209M249.864 207.616C250.058 207.425 250.106 207.277 250.193 206.589C250.236 206.248 250.285 205.955 250.303 205.937C250.32 205.919 250.434 205.869 250.555 205.824C250.676 205.78 250.854 205.705 250.95 205.658M249.864 207.616L249.513 207.26C249.563 207.211 249.574 207.194 249.592 207.137C249.623 207.041 249.652 206.878 249.696 206.526C249.719 206.351 249.743 206.185 249.764 206.058C249.775 205.996 249.785 205.938 249.796 205.891C249.801 205.868 249.807 205.84 249.816 205.812C249.82 205.799 249.827 205.777 249.838 205.751C249.838 205.751 249.838 205.75 249.838 205.75C249.843 205.738 249.875 205.659 249.947 205.586L249.947 205.586C249.99 205.542 250.033 205.515 250.046 205.507L250.046 205.506C250.066 205.494 250.084 205.484 250.098 205.476C250.127 205.461 250.157 205.447 250.186 205.434C250.244 205.408 250.313 205.38 250.383 205.355C250.491 205.315 250.652 205.247 250.729 205.209M250.95 205.658C251.016 205.626 251.054 205.601 251.094 205.596C251.181 205.586 251.278 205.671 251.685 205.984M250.95 205.658L250.729 205.209M250.95 205.658L250.729 205.209M251.685 205.984C251.927 206.17 252.185 206.352 252.257 206.389M251.685 205.984L251.99 205.588M251.685 205.984L251.99 205.588L251.99 205.588M252.257 206.389C252.438 206.48 252.722 206.498 252.949 206.433M252.257 206.389L252.482 205.942C252.482 205.942 252.482 205.942 252.482 205.942L252.257 206.389ZM252.949 206.433C253.116 206.385 253.15 206.356 253.764 205.757M252.949 206.433L252.812 205.952M252.949 206.433L252.812 205.952L252.812 205.952M253.764 205.757C254.529 205.01 254.561 204.963 254.561 204.582M253.764 205.757L253.415 205.399C253.816 205.007 253.968 204.852 254.036 204.752C254.048 204.734 254.052 204.724 254.054 204.721C254.055 204.719 254.055 204.719 254.055 204.716C254.058 204.704 254.061 204.679 254.061 204.582M253.764 205.757L253.415 205.399C253.1 205.707 252.956 205.845 252.87 205.917C252.85 205.933 252.839 205.942 252.833 205.946M254.561 204.582C254.561 204.255 254.539 204.212 254.068 203.613C253.874 203.367 253.703 203.149 253.687 203.129C253.669 203.105 253.703 202.997 253.792 202.797C253.865 202.634 253.94 202.452 253.959 202.394M254.561 204.582L254.061 204.582M254.561 204.582L254.061 204.582M253.959 202.394C253.977 202.336 254.008 202.276 254.027 202.262C254.047 202.247 254.346 202.201 254.691 202.158M253.959 202.394L253.482 202.243C253.482 202.243 253.482 202.243 253.482 202.243M253.959 202.394L253.482 202.243C253.482 202.243 253.482 202.243 253.482 202.243M254.691 202.158C255.389 202.072 255.533 202.028 255.733 201.834C255.795 201.773 255.881 201.651 255.923 201.563M254.691 202.158L254.63 201.662C254.63 201.662 254.63 201.662 254.63 201.662C254.988 201.618 255.152 201.59 255.25 201.559C255.309 201.541 255.329 201.529 255.385 201.475L255.385 201.475C255.384 201.475 255.384 201.475 255.384 201.475C255.384 201.475 255.388 201.471 255.396 201.461C255.405 201.451 255.416 201.437 255.427 201.421C255.451 201.387 255.466 201.359 255.472 201.348L255.5 201.289V200.491V199.693L255.472 199.634L255.472 199.634C255.465 199.621 255.449 199.592 255.425 199.558C255.414 199.542 255.404 199.528 255.395 199.517C255.387 199.507 255.383 199.503 255.383 199.503C255.383 199.503 255.384 199.503 255.384 199.504L255.735 199.148M254.691 202.158L254.63 199.32M255.923 201.563L256 201.402M255.923 201.563L255.585 201.402H256M255.923 201.563L255.585 201.402H256M256 201.402V200.491V199.58L255.923 199.419C255.881 199.33 255.796 199.208 255.735 199.148M255.735 199.148C255.541 198.956 255.39 198.91 254.691 198.824M255.735 199.148L255.384 199.504C255.335 199.455 255.316 199.443 255.254 199.424C255.155 199.393 254.987 199.364 254.63 199.32M254.691 198.824C254.346 198.781 254.047 198.735 254.027 198.72C254.008 198.706 253.977 198.646 253.959 198.588M254.691 198.824L254.63 199.32M254.691 198.824L254.63 199.32L254.63 199.32M253.959 198.588C253.94 198.529 253.865 198.348 253.792 198.185C253.703 197.985 253.669 197.877 253.687 197.852C253.703 197.833 253.874 197.615 254.068 197.369M253.959 198.588L253.482 198.739C253.482 198.739 253.482 198.739 253.482 198.739M253.959 198.588L253.482 198.739M254.068 197.369C254.262 197.122 254.451 196.862 254.488 196.79C254.58 196.613 254.599 196.333 254.533 196.109C254.485 195.943 254.46 195.914 253.803 195.268C253.147 194.621 253.117 194.596 252.949 194.549C252.722 194.484 252.437 194.503 252.257 194.593C252.185 194.629 251.927 194.812 251.685 194.998M254.068 197.369L253.675 197.059C253.482 197.304 253.309 197.525 253.292 197.547L253.292 197.547C253.213 197.648 253.193 197.752 253.186 197.806C253.179 197.865 253.183 197.914 253.187 197.945C253.194 198.007 253.21 198.064 253.223 198.103C253.249 198.186 253.289 198.284 253.336 198.389L253.336 198.389C253.37 198.466 253.405 198.548 253.434 198.616C253.448 198.651 253.46 198.68 253.469 198.704C253.477 198.726 253.481 198.737 253.482 198.739C253.482 198.739 253.482 198.739 253.482 198.739M254.068 197.369L253.675 197.059C253.769 196.941 253.861 196.819 253.933 196.72C253.969 196.67 253.999 196.628 254.021 196.596C254.037 196.571 254.045 196.559 254.046 196.556M251.685 194.998L251.99 195.394M251.685 194.998L251.99 195.394C251.945 195.428 251.903 195.46 251.865 195.49C251.778 195.558 251.704 195.614 251.646 195.658C251.569 195.715 251.474 195.784 251.374 195.828C251.235 195.889 251.08 195.908 250.919 195.857C250.861 195.839 250.813 195.815 250.79 195.804C250.774 195.795 250.765 195.791 250.758 195.787C250.749 195.782 250.743 195.779 250.729 195.772L251.99 195.394M251.99 195.394C252.106 195.305 252.225 195.217 252.323 195.148C252.372 195.113 252.414 195.084 252.446 195.063C252.471 195.047 252.483 195.039 252.486 195.038C252.539 195.014 252.687 194.994 252.813 195.03L252.813 195.03C252.822 195.032 252.828 195.034 252.832 195.035C252.839 195.04 252.851 195.049 252.871 195.066C252.963 195.143 253.116 195.292 253.453 195.624C253.789 195.955 253.941 196.107 254.019 196.196C254.035 196.215 254.044 196.226 254.049 196.233M251.99 195.394L253.482 198.739M253.482 198.739C253.5 198.796 253.523 198.852 253.549 198.901C253.562 198.926 253.579 198.956 253.6 198.987C253.615 199.008 253.658 199.068 253.728 199.121L253.729 199.121C253.796 199.171 253.863 199.193 253.871 199.196L253.872 199.196C253.893 199.203 253.912 199.208 253.923 199.211C253.948 199.218 253.973 199.223 253.995 199.227C254.04 199.236 254.097 199.246 254.16 199.255L253.482 198.739ZM254.046 196.556C254.046 196.558 254.045 196.559 254.044 196.56C254.046 196.557 254.047 196.556 254.047 196.556C254.047 196.556 254.047 196.556 254.046 196.556ZM254.046 196.556C254.069 196.508 254.088 196.368 254.054 196.249L254.054 196.249C254.051 196.242 254.05 196.236 254.049 196.233M254.049 196.233C254.052 196.237 254.053 196.239 254.053 196.239C254.053 196.239 254.052 196.238 254.051 196.235C254.048 196.23 254.046 196.224 254.046 196.224C254.046 196.225 254.047 196.227 254.049 196.233ZM253.482 202.243C253.482 202.243 253.478 202.253 253.469 202.278C253.46 202.301 253.448 202.331 253.434 202.365C253.405 202.434 253.37 202.516 253.336 202.593L253.336 202.593C253.289 202.698 253.249 202.796 253.223 202.879C253.21 202.918 253.194 202.974 253.187 203.036C253.183 203.067 253.179 203.117 253.186 203.175C253.193 203.23 253.213 203.333 253.292 203.435L253.292 203.435C253.309 203.457 253.482 203.678 253.675 203.923C253.925 204.24 254.009 204.354 254.046 204.426C254.047 204.428 254.048 204.429 254.049 204.431C254.056 204.442 254.061 204.452 254.061 204.582L253.482 202.243ZM254.061 204.582L252.323 205.834C252.372 205.869 252.414 205.898 252.446 205.919C252.471 205.935 252.483 205.942 252.486 205.944C252.539 205.968 252.687 205.988 252.812 205.952M252.833 205.946C252.829 205.947 252.822 205.949 252.812 205.952M252.833 205.946C252.828 205.949 252.827 205.949 252.831 205.947C252.835 205.945 252.838 205.944 252.838 205.944C252.838 205.944 252.837 205.945 252.833 205.946ZM251.99 205.588C251.945 205.554 251.903 205.521 251.865 205.491C251.778 205.424 251.704 205.368 251.646 205.324C251.569 205.267 251.474 205.198 251.374 205.154C251.235 205.092 251.08 205.074 250.919 205.125C250.861 205.143 250.813 205.167 250.79 205.178C250.774 205.187 250.765 205.191 250.758 205.195C250.749 205.199 250.743 205.203 250.729 205.209L251.99 205.588ZM247.213 205.866C247.165 205.637 246.996 205.522 246.924 205.48C246.844 205.432 246.752 205.397 246.674 205.37M247.213 205.866L246.291 205.217M246.674 205.37C246.581 205.339 246.404 205.268 246.291 205.217M245.516 205.204L244.346 205.96M244.346 205.96C244.248 205.96 244.22 205.957 244.205 205.954C244.205 205.954 244.205 205.954 244.205 205.954C244.203 205.954 244.195 205.953 244.164 205.933C244.061 205.865 243.903 205.716 243.505 205.321L243.156 205.672L243.505 205.321C243.193 205.011 243.053 204.869 242.98 204.784C242.965 204.766 242.956 204.755 242.952 204.75C242.951 204.746 242.949 204.74 242.947 204.732M244.346 205.96L242.947 204.732M242.947 204.732C242.912 204.614 242.931 204.475 242.954 204.425L242.947 204.732ZM249.947 195.396L249.947 195.396C249.875 195.323 249.843 195.244 249.838 195.232C249.838 195.231 249.838 195.231 249.838 195.231C249.827 195.205 249.82 195.183 249.816 195.17C249.807 195.142 249.801 195.114 249.796 195.091C249.785 195.044 249.775 194.986 249.764 194.923C249.743 194.797 249.719 194.631 249.696 194.456C249.652 194.104 249.623 193.941 249.592 193.845C249.574 193.788 249.563 193.771 249.514 193.722C249.514 193.722 249.514 193.722 249.514 193.722C249.514 193.722 249.509 193.718 249.499 193.71C249.488 193.702 249.474 193.691 249.458 193.68C249.423 193.657 249.393 193.64 249.379 193.634L249.379 193.634L249.313 193.604L248.541 193.599C248.541 193.599 248.541 193.599 248.541 193.599C248.302 193.598 248.076 193.599 247.905 193.602C247.819 193.604 247.75 193.605 247.7 193.608C247.689 193.608 247.68 193.608 247.672 193.609C247.615 193.63 247.529 193.68 247.483 193.726L249.947 195.396ZM249.947 195.396C249.99 195.44 250.033 195.467 250.046 195.475L250.046 195.475C250.066 195.488 250.084 195.498 250.098 195.505C250.127 195.521 250.157 195.535 250.186 195.548C250.244 195.574 250.313 195.602 250.383 195.627C250.491 195.666 250.652 195.734 250.729 195.772L249.947 195.396ZM248.88 196.929L248.88 196.929C249.293 196.976 249.655 197.075 250.017 197.244L249.806 197.697L250.017 197.244C250.818 197.618 251.406 198.193 251.784 198.981C252.443 200.356 252.133 201.998 251.024 203.055L251.024 203.055C249.933 204.095 248.338 204.368 246.979 203.736L246.979 203.736C246.576 203.548 246.292 203.356 245.976 203.055L245.976 203.055C244.867 201.998 244.557 200.356 245.216 198.981C245.814 197.734 247.047 196.944 248.441 196.902L248.88 196.929ZM248.88 196.929C248.739 196.913 248.543 196.899 248.441 196.902L248.88 196.929ZM247.408 193.846C247.377 193.942 247.348 194.106 247.303 194.456L247.408 193.846ZM247.408 193.846C247.426 193.787 247.438 193.77 247.483 193.726L247.408 193.846ZM252.482 195.04L252.482 195.04L252.482 195.04ZM242.956 196.56L242.956 196.56L242.956 196.56ZM247.647 193.611C247.643 193.611 247.641 193.611 247.641 193.611C247.641 193.611 247.643 193.611 247.647 193.611Z" stroke="#111111"/>
<path d="M25.472 112.899H30.064C31.2373 112.899 32.1653 113.144 32.848 113.635C33.5307 114.115 33.872 114.813 33.872 115.731C33.872 116.392 33.696 116.936 33.344 117.363C32.992 117.779 32.5707 118.061 32.08 118.211C32.6773 118.371 33.2 118.68 33.648 119.139C34.096 119.587 34.32 120.216 34.32 121.027C34.32 121.517 34.224 121.949 34.032 122.323C33.8507 122.696 33.616 122.995 33.328 123.219C33.0507 123.432 32.72 123.608 32.336 123.747C31.9627 123.885 31.6 123.981 31.248 124.035C30.9067 124.077 30.5547 124.099 30.192 124.099H25.472V112.899ZM32.96 120.883C32.96 119.592 32.0693 118.947 30.288 118.947H26.816V122.819H29.92C30.2613 122.819 30.5493 122.813 30.784 122.803C31.0187 122.781 31.2853 122.739 31.584 122.675C31.8827 122.6 32.1227 122.499 32.304 122.371C32.4853 122.232 32.64 122.04 32.768 121.795C32.896 121.539 32.96 121.235 32.96 120.883ZM32.512 115.923C32.512 115.293 32.2933 114.845 31.856 114.579C31.4293 114.312 30.7947 114.179 29.952 114.179H26.816V117.667H30.32C30.96 117.667 31.4827 117.528 31.888 117.251C32.304 116.963 32.512 116.52 32.512 115.923ZM37.6247 124.099H36.3447V116.419H37.6247V124.099ZM37.5768 113.379C37.7368 113.517 37.8168 113.715 37.8168 113.971C37.8168 114.227 37.7368 114.429 37.5768 114.579C37.4168 114.717 37.2194 114.787 36.9847 114.787C36.7501 114.787 36.5527 114.717 36.3927 114.579C36.2327 114.429 36.1527 114.227 36.1527 113.971C36.1527 113.715 36.2327 113.517 36.3927 113.379C36.5527 113.229 36.7501 113.155 36.9847 113.155C37.2194 113.155 37.4168 113.229 37.5768 113.379ZM40.2235 112.419H41.5035V124.099H40.2235V112.419ZM44.1022 112.419H45.3822V124.099H44.1022V112.419ZM47.501 118.435C47.501 117.699 47.7837 117.149 48.349 116.787C48.925 116.413 49.6183 116.227 50.429 116.227C51.421 116.227 52.3277 116.445 53.149 116.883V118.099C52.829 117.885 52.4237 117.715 51.933 117.587C51.4423 117.448 50.9677 117.379 50.509 117.379C50.0397 117.379 49.6343 117.464 49.293 117.635C48.9623 117.795 48.797 118.051 48.797 118.403C48.797 118.659 48.9143 118.883 49.149 119.075C49.3943 119.256 49.6983 119.395 50.061 119.491C50.4237 119.587 50.813 119.709 51.229 119.859C51.6557 119.997 52.0503 120.147 52.413 120.307C52.7757 120.456 53.0743 120.691 53.309 121.011C53.5543 121.32 53.677 121.693 53.677 122.131C53.677 122.877 53.3783 123.427 52.781 123.779C52.1837 124.12 51.4263 124.291 50.509 124.291C49.3037 124.291 48.3117 124.04 47.533 123.539V122.291C48.3437 122.835 49.3143 123.107 50.445 123.107C51.7463 123.107 52.397 122.792 52.397 122.163C52.397 121.875 52.2263 121.635 51.885 121.443C51.5543 121.24 51.149 121.075 50.669 120.947C50.189 120.808 49.709 120.653 49.229 120.483C48.749 120.312 48.3383 120.056 47.997 119.715C47.6663 119.373 47.501 118.947 47.501 118.435Z" fill="#111111"/>
<path d="M234 12.9173C234 5.8376 239.74 0.0986328 246.82 0.0986328H290.319L300.495 12.9173H362.196C365.954 12.9173 369 15.9635 369 19.7211V85.5569C369 93.0358 362.937 99.0986 355.458 99.0986L354.835 31.5229C354.804 28.231 352.127 25.5783 348.835 25.5783H288.962L280.285 14.7846C279.336 13.604 277.902 12.9173 276.388 12.9173H234Z" fill="#FAFF00"/>
<path d="M216 30.8762C216 25.9057 220.029 21.8762 225 21.8762H271.576L282.44 35.204H339C343.418 35.204 347 38.7857 347 43.204V113.834C347 118.253 343.418 121.834 339 121.834H225C220.029 121.834 216 117.805 216 112.834V30.8762Z" fill="#111111"/>
</svg>
