<svg width="484" height="403" viewBox="0 0 484 403" fill="none" xmlns="http://www.w3.org/2000/svg">
<rect x="0.5" y="0.598633" width="335" height="401" rx="11.5" fill="white" stroke="#111111"/>
<path d="M25.056 72.7386C25.056 71.1866 25.64 70.0026 26.808 69.1866C27.976 68.3706 29.44 67.9626 31.2 67.9626C33.312 67.9626 35.128 68.3946 36.648 69.2586V72.6186C35.224 71.5946 33.496 71.0986 31.464 71.1306C29.64 71.1626 28.728 71.6826 28.728 72.6906C28.728 73.1386 28.952 73.5306 29.4 73.8666C29.864 74.2026 30.432 74.4746 31.104 74.6826C31.792 74.8746 32.528 75.1306 33.312 75.4506C34.112 75.7546 34.848 76.0906 35.52 76.4586C36.208 76.8106 36.776 77.3386 37.224 78.0426C37.688 78.7466 37.92 79.5626 37.92 80.4906C37.92 81.4026 37.744 82.1866 37.392 82.8426C37.056 83.4986 36.576 84.0106 35.952 84.3786C35.328 84.7466 34.64 85.0106 33.888 85.1706C33.136 85.3466 32.296 85.4346 31.368 85.4346C29.032 85.4346 26.96 84.9306 25.152 83.9226V80.4906C26.944 81.6746 28.928 82.2666 31.104 82.2666C33.2 82.2666 34.248 81.7306 34.248 80.6586C34.248 80.1786 34.016 79.7626 33.552 79.4106C33.104 79.0426 32.536 78.7546 31.848 78.5466C31.176 78.3226 30.44 78.0586 29.64 77.7546C28.856 77.4346 28.12 77.0986 27.432 76.7466C26.76 76.3786 26.192 75.8506 25.728 75.1626C25.28 74.4746 25.056 73.6666 25.056 72.7386ZM39.3227 79.3386C39.3227 78.2986 39.5067 77.3786 39.8747 76.5786C40.2427 75.7626 40.7227 75.1226 41.3147 74.6586C41.9227 74.1946 42.5547 73.8426 43.2107 73.6026C43.8827 73.3626 44.5627 73.2426 45.2507 73.2426C46.4027 73.2426 47.3947 73.4586 48.2267 73.8906C49.0747 74.3226 49.6987 74.8826 50.0987 75.5706C50.4987 76.2426 50.7707 77.0106 50.9147 77.8746C51.0747 78.7226 51.0347 79.5706 50.7947 80.4186H42.6827C42.8587 81.2186 43.3227 81.8186 44.0747 82.2186C44.8267 82.6026 45.7147 82.7946 46.7387 82.7946C48.0027 82.7946 49.1627 82.5626 50.2187 82.0986V84.7146C49.0827 85.1946 47.6747 85.4346 45.9947 85.4346C44.0747 85.4346 42.4827 84.8986 41.2187 83.8266C39.9547 82.7546 39.3227 81.2586 39.3227 79.3386ZM47.7947 78.2586C47.8747 77.7306 47.7227 77.1866 47.3387 76.6266C46.9547 76.0666 46.2987 75.7866 45.3707 75.7866C44.6347 75.7866 44.0027 76.0106 43.4747 76.4586C42.9467 76.8906 42.6747 77.4906 42.6587 78.2586H47.7947ZM53.9597 70.2186L57.2717 69.4266V73.5786H60.9197V76.3866H57.2717V80.8986C57.2717 82.0506 57.8877 82.6266 59.1197 82.6266C59.8557 82.6266 60.5517 82.4986 61.2077 82.2426V84.9306C60.2477 85.2666 59.2157 85.4346 58.1117 85.4346C56.8957 85.4346 55.8957 85.1226 55.1117 84.4986C54.3437 83.8746 53.9597 82.8906 53.9597 81.5466V76.3866H52.0157V73.5786H53.9597V70.2186ZM63.9909 70.2186L67.3029 69.4266V73.5786H70.9509V76.3866H67.3029V80.8986C67.3029 82.0506 67.9189 82.6266 69.1509 82.6266C69.8869 82.6266 70.5829 82.4986 71.2389 82.2426V84.9306C70.2789 85.2666 69.2469 85.4346 68.1429 85.4346C66.9269 85.4346 65.9269 85.1226 65.1429 84.4986C64.3749 83.8746 63.9909 82.8906 63.9909 81.5466V76.3866H62.0469V73.5786H63.9909V70.2186ZM76.5182 85.0986H73.1822V73.5786H76.5182V85.0986ZM76.8062 69.7626C76.8062 70.3866 76.6222 70.8586 76.2542 71.1786C75.8862 71.4986 75.4142 71.6586 74.8382 71.6586C74.2782 71.6586 73.8142 71.4986 73.4462 71.1786C73.0782 70.8586 72.8942 70.3866 72.8942 69.7626C72.8942 69.1546 73.0782 68.6906 73.4462 68.3706C73.8142 68.0506 74.2782 67.8906 74.8382 67.8906C75.3982 67.8906 75.8622 68.0506 76.2302 68.3706C76.6142 68.6906 76.8062 69.1546 76.8062 69.7626ZM82.3446 75.0426C83.3846 73.8426 84.6646 73.2426 86.1846 73.2426C87.6566 73.2426 88.8006 73.6906 89.6166 74.5866C90.4486 75.4666 90.8646 76.5946 90.8646 77.9706V85.0986H87.5286V78.4026C87.5286 77.6506 87.3206 77.0826 86.9046 76.6986C86.5046 76.3146 85.9686 76.1226 85.2966 76.1226C84.2566 76.1226 83.4006 76.6106 82.7286 77.5866V85.0986H79.3926V73.5786H82.3446V75.0426ZM94.4128 83.6586C93.4048 82.4586 92.9008 81.0186 92.9008 79.3386C92.9008 77.6586 93.4048 76.2266 94.4128 75.0426C95.4208 73.8426 96.7968 73.2426 98.5408 73.2426C100.349 73.2426 101.741 73.9146 102.717 75.2586V73.5786H105.645V84.7866C105.645 85.8426 105.461 86.7626 105.093 87.5466C104.725 88.3466 104.221 88.9626 103.581 89.3946C102.957 89.8426 102.261 90.1706 101.493 90.3786C100.725 90.6026 99.9008 90.7146 99.0208 90.7146C97.2608 90.7146 95.6368 90.3546 94.1488 89.6346V86.7066C95.4928 87.5066 96.9728 87.9066 98.5888 87.9066C101.085 87.9066 102.333 86.9146 102.333 84.9306V83.8746C101.389 84.9146 100.125 85.4346 98.5408 85.4346C96.7968 85.4346 95.4208 84.8426 94.4128 83.6586ZM102.333 77.9706C102.093 77.4266 101.701 76.9706 101.157 76.6026C100.629 76.2346 100.021 76.0506 99.3328 76.0506C98.4048 76.0506 97.6688 76.3706 97.1248 77.0106C96.5808 77.6346 96.3088 78.4106 96.3088 79.3386C96.3088 80.2666 96.5808 81.0506 97.1248 81.6906C97.6688 82.3146 98.4048 82.6266 99.3328 82.6266C100.021 82.6266 100.629 82.4506 101.157 82.0986C101.701 81.7466 102.093 81.3066 102.333 80.7786V77.9706ZM107.975 76.7946C107.975 75.5626 108.431 74.6666 109.343 74.1066C110.255 73.5306 111.399 73.2426 112.775 73.2426C114.263 73.2426 115.679 73.5706 117.023 74.2266V76.9626C116.527 76.6266 115.895 76.3466 115.127 76.1226C114.375 75.8986 113.663 75.7866 112.991 75.7866C111.919 75.7866 111.383 76.0906 111.383 76.6986C111.383 77.0506 111.607 77.3386 112.055 77.5626C112.503 77.7866 113.047 77.9866 113.687 78.1626C114.327 78.3226 114.959 78.5226 115.583 78.7626C116.223 79.0026 116.767 79.3866 117.215 79.9146C117.663 80.4426 117.887 81.0986 117.887 81.8826C117.887 82.7466 117.631 83.4506 117.119 83.9946C116.623 84.5386 115.999 84.9146 115.247 85.1226C114.511 85.3306 113.647 85.4346 112.655 85.4346C110.815 85.4346 109.287 85.0746 108.071 84.3546V81.5946C109.319 82.4106 110.783 82.8186 112.463 82.8186C113.807 82.8186 114.479 82.5306 114.479 81.9546C114.479 81.6186 114.255 81.3386 113.807 81.1146C113.359 80.8906 112.815 80.6906 112.175 80.5146C111.551 80.3386 110.919 80.1306 110.279 79.8906C109.639 79.6346 109.095 79.2506 108.646 78.7386C108.199 78.2106 107.975 77.5626 107.975 76.7946Z" fill="#111111"/>
<rect x="24" y="106.099" width="80" height="8" rx="4" fill="#E4F0FB"/>
<path d="M40 36.0909L40 34.0909L27.7903 34.0909L32.4583 29.4679L31.0602 28.0986L24 35.0909L31.0602 42.0986L32.4583 40.6986L27.7903 36.0909L40 36.0909Z" fill="#111111"/>
<rect x="24.5" y="138.599" width="287" height="239" rx="6.5" fill="white" stroke="#111111"/>
<path d="M92.672 173.595C92.672 172.635 92.8427 171.771 93.184 171.003C93.5253 170.235 93.9787 169.616 94.544 169.147C95.1093 168.667 95.7387 168.304 96.432 168.059C97.1253 167.813 97.8507 167.691 98.608 167.691C99.7493 167.691 100.811 167.936 101.792 168.427V170.203C100.992 169.648 100.032 169.371 98.912 169.371C97.728 169.371 96.704 169.728 95.84 170.443C94.976 171.157 94.5387 172.208 94.528 173.595C94.528 174.469 94.752 175.221 95.2 175.851C95.648 176.48 96.1973 176.933 96.848 177.211C97.4987 177.488 98.1973 177.627 98.944 177.627C100.139 177.627 101.115 177.339 101.872 176.763V178.571C100.869 179.061 99.7867 179.307 98.624 179.307C97.8773 179.307 97.1573 179.189 96.464 178.955C95.7707 178.709 95.136 178.357 94.56 177.899C93.984 177.44 93.5253 176.837 93.184 176.091C92.8427 175.344 92.672 174.512 92.672 173.595ZM103.476 167.899H105.188V172.267C105.871 171.563 106.698 171.211 107.668 171.211C108.628 171.211 109.396 171.504 109.972 172.091C110.548 172.667 110.836 173.419 110.836 174.347V179.099H109.124V174.571C109.124 173.973 108.959 173.52 108.628 173.211C108.298 172.891 107.866 172.731 107.332 172.731C106.49 172.731 105.775 173.157 105.188 174.011V179.099H103.476V167.899ZM119.347 177.323C119.347 177.696 119.533 177.883 119.907 177.883C120.035 177.883 120.205 177.851 120.419 177.787V179.019C120.099 179.147 119.736 179.211 119.331 179.211C118.563 179.211 118.051 178.912 117.795 178.315C116.973 178.976 116.008 179.307 114.899 179.307C114.152 179.307 113.517 179.104 112.995 178.699C112.472 178.283 112.211 177.701 112.211 176.955C112.211 176.059 112.547 175.408 113.219 175.003C113.891 174.587 114.696 174.379 115.635 174.379C116.253 174.379 116.92 174.453 117.635 174.603V174.331C117.635 173.84 117.459 173.445 117.107 173.147C116.755 172.848 116.259 172.699 115.619 172.699C114.669 172.699 113.747 172.896 112.851 173.291V171.723C113.853 171.381 114.835 171.211 115.795 171.211C116.915 171.211 117.784 171.488 118.403 172.043C119.032 172.597 119.347 173.44 119.347 174.571V177.323ZM115.971 175.579C115.405 175.579 114.931 175.68 114.547 175.883C114.163 176.085 113.971 176.405 113.971 176.843C113.971 177.205 114.109 177.488 114.387 177.691C114.664 177.883 115.005 177.979 115.411 177.979C116.285 177.979 117.027 177.675 117.635 177.067V175.771C117.016 175.643 116.461 175.579 115.971 175.579ZM123.04 172.475C123.744 171.632 124.634 171.211 125.712 171.211C126.672 171.211 127.44 171.504 128.016 172.091C128.592 172.667 128.88 173.419 128.88 174.347V179.099H127.168V174.571C127.168 173.973 127.002 173.52 126.672 173.211C126.341 172.891 125.909 172.731 125.376 172.731C124.533 172.731 123.818 173.157 123.232 174.011V179.099H121.52V171.419H123.04V172.475ZM131.422 178.139C130.718 177.349 130.366 176.389 130.366 175.259C130.366 174.128 130.718 173.173 131.422 172.395C132.126 171.605 133.043 171.211 134.174 171.211C135.379 171.211 136.36 171.68 137.118 172.619V171.419H138.654V179.003C138.654 180.293 138.238 181.253 137.406 181.883C136.584 182.512 135.566 182.827 134.35 182.827C133.176 182.827 132.12 182.587 131.182 182.107V180.539C132.078 181.061 133.059 181.323 134.126 181.323C136.003 181.323 136.942 180.565 136.942 179.051V178.075C136.248 178.896 135.326 179.307 134.174 179.307C133.043 179.307 132.126 178.917 131.422 178.139ZM136.926 174.315C136.723 173.867 136.403 173.488 135.966 173.179C135.539 172.869 135.043 172.715 134.478 172.715C133.784 172.715 133.214 172.955 132.766 173.435C132.318 173.904 132.094 174.512 132.094 175.259C132.094 176.005 132.318 176.619 132.766 177.099C133.214 177.568 133.784 177.803 134.478 177.803C135.043 177.803 135.539 177.659 135.966 177.371C136.403 177.083 136.723 176.725 136.926 176.299V174.315ZM140.239 175.259C140.239 174.597 140.356 174 140.591 173.467C140.826 172.923 141.135 172.496 141.519 172.187C141.903 171.867 142.319 171.627 142.767 171.467C143.215 171.296 143.668 171.211 144.127 171.211C144.714 171.211 145.242 171.301 145.711 171.483C146.191 171.664 146.575 171.909 146.863 172.219C147.151 172.528 147.386 172.885 147.567 173.291C147.748 173.696 147.844 174.123 147.855 174.571C147.866 175.008 147.828 175.451 147.743 175.899H141.967C142.052 176.549 142.372 177.04 142.927 177.371C143.482 177.691 144.143 177.851 144.911 177.851C145.786 177.851 146.596 177.669 147.343 177.307V178.779C146.607 179.131 145.69 179.307 144.591 179.307C143.343 179.307 142.303 178.955 141.471 178.251C140.65 177.547 140.239 176.549 140.239 175.259ZM146.207 174.619C146.271 174.181 146.138 173.744 145.807 173.307C145.487 172.859 144.954 172.635 144.207 172.635C143.599 172.635 143.076 172.811 142.639 173.163C142.212 173.515 141.983 174 141.951 174.619H146.207ZM154.626 172.619C155.404 171.68 156.391 171.211 157.586 171.211C158.716 171.211 159.634 171.605 160.338 172.395C161.042 173.173 161.394 174.128 161.394 175.259C161.394 176.389 161.042 177.349 160.338 178.139C159.634 178.917 158.716 179.307 157.586 179.307C156.434 179.307 155.511 178.907 154.818 178.107V182.619H153.106V171.419H154.626V172.619ZM158.978 177.099C159.426 176.619 159.65 176.005 159.65 175.259C159.65 174.512 159.426 173.904 158.978 173.435C158.53 172.955 157.959 172.715 157.266 172.715C156.7 172.715 156.199 172.869 155.762 173.179C155.335 173.488 155.02 173.867 154.818 174.315V176.187C155.02 176.645 155.335 177.029 155.762 177.339C156.199 177.648 156.7 177.803 157.266 177.803C157.959 177.803 158.53 177.568 158.978 177.099ZM169.523 177.323C169.523 177.696 169.71 177.883 170.083 177.883C170.211 177.883 170.382 177.851 170.595 177.787V179.019C170.275 179.147 169.912 179.211 169.507 179.211C168.739 179.211 168.227 178.912 167.971 178.315C167.15 178.976 166.184 179.307 165.075 179.307C164.328 179.307 163.694 179.104 163.171 178.699C162.648 178.283 162.387 177.701 162.387 176.955C162.387 176.059 162.723 175.408 163.395 175.003C164.067 174.587 164.872 174.379 165.811 174.379C166.43 174.379 167.096 174.453 167.811 174.603V174.331C167.811 173.84 167.635 173.445 167.283 173.147C166.931 172.848 166.435 172.699 165.795 172.699C164.846 172.699 163.923 172.896 163.027 173.291V171.723C164.03 171.381 165.011 171.211 165.971 171.211C167.091 171.211 167.96 171.488 168.579 172.043C169.208 172.597 169.523 173.44 169.523 174.571V177.323ZM166.147 175.579C165.582 175.579 165.107 175.68 164.723 175.883C164.339 176.085 164.147 176.405 164.147 176.843C164.147 177.205 164.286 177.488 164.563 177.691C164.84 177.883 165.182 177.979 165.587 177.979C166.462 177.979 167.203 177.675 167.811 177.067V175.771C167.192 175.643 166.638 175.579 166.147 175.579ZM171.296 173.499C171.296 172.72 171.589 172.144 172.176 171.771C172.773 171.397 173.498 171.211 174.352 171.211C175.344 171.211 176.266 171.429 177.12 171.867V173.371C176.8 173.157 176.389 172.981 175.888 172.843C175.386 172.693 174.912 172.619 174.464 172.619C174.069 172.619 173.733 172.688 173.456 172.827C173.178 172.955 173.04 173.163 173.04 173.451C173.04 173.717 173.2 173.941 173.52 174.123C173.84 174.293 174.224 174.443 174.672 174.571C175.13 174.688 175.584 174.832 176.032 175.003C176.48 175.163 176.864 175.413 177.184 175.755C177.504 176.096 177.664 176.528 177.664 177.051C177.664 177.84 177.354 178.416 176.736 178.779C176.117 179.131 175.322 179.307 174.352 179.307C173.146 179.307 172.144 179.061 171.344 178.571V177.051C172.165 177.595 173.141 177.867 174.272 177.867C175.381 177.867 175.936 177.605 175.936 177.083C175.936 176.827 175.776 176.613 175.456 176.443C175.136 176.261 174.746 176.112 174.288 175.995C173.84 175.867 173.386 175.723 172.928 175.563C172.48 175.392 172.096 175.136 171.776 174.795C171.456 174.443 171.296 174.011 171.296 173.499ZM178.731 173.499C178.731 172.72 179.025 172.144 179.611 171.771C180.209 171.397 180.934 171.211 181.787 171.211C182.779 171.211 183.702 171.429 184.555 171.867V173.371C184.235 173.157 183.825 172.981 183.323 172.843C182.822 172.693 182.347 172.619 181.899 172.619C181.505 172.619 181.169 172.688 180.891 172.827C180.614 172.955 180.475 173.163 180.475 173.451C180.475 173.717 180.635 173.941 180.955 174.123C181.275 174.293 181.659 174.443 182.107 174.571C182.566 174.688 183.019 174.832 183.467 175.003C183.915 175.163 184.299 175.413 184.619 175.755C184.939 176.096 185.099 176.528 185.099 177.051C185.099 177.84 184.79 178.416 184.171 178.779C183.553 179.131 182.758 179.307 181.787 179.307C180.582 179.307 179.579 179.061 178.779 178.571V177.051C179.601 177.595 180.577 177.867 181.707 177.867C182.817 177.867 183.371 177.605 183.371 177.083C183.371 176.827 183.211 176.613 182.891 176.443C182.571 176.261 182.182 176.112 181.723 175.995C181.275 175.867 180.822 175.723 180.363 175.563C179.915 175.392 179.531 175.136 179.211 174.795C178.891 174.443 178.731 174.011 178.731 173.499ZM186.087 175.323C186.087 173.989 186.508 172.971 187.351 172.267C188.194 171.563 189.186 171.211 190.327 171.211C191.244 171.211 192.034 171.408 192.695 171.803V173.371C192.098 172.944 191.388 172.731 190.567 172.731C189.81 172.731 189.164 172.944 188.631 173.371C188.098 173.787 187.831 174.416 187.831 175.259C187.831 176.08 188.092 176.709 188.615 177.147C189.148 177.573 189.788 177.787 190.535 177.787C191.346 177.787 192.092 177.589 192.775 177.195V178.779C192.039 179.131 191.191 179.307 190.231 179.307C189.111 179.307 188.14 178.965 187.319 178.283C186.498 177.589 186.087 176.603 186.087 175.323ZM195.02 178.235C194.209 177.52 193.804 176.528 193.804 175.259C193.804 173.989 194.209 172.997 195.02 172.283C195.841 171.568 196.823 171.211 197.964 171.211C199.116 171.211 200.097 171.568 200.908 172.283C201.719 172.997 202.124 173.989 202.124 175.259C202.124 176.528 201.719 177.52 200.908 178.235C200.097 178.949 199.116 179.307 197.964 179.307C196.823 179.307 195.841 178.949 195.02 178.235ZM199.708 177.067C200.156 176.608 200.38 176.005 200.38 175.259C200.38 174.512 200.156 173.915 199.708 173.467C199.26 173.008 198.679 172.779 197.964 172.779C197.239 172.779 196.652 173.008 196.204 173.467C195.756 173.915 195.532 174.512 195.532 175.259C195.532 176.005 195.756 176.608 196.204 177.067C196.652 177.515 197.239 177.739 197.964 177.739C198.679 177.739 199.26 177.515 199.708 177.067ZM209.8 167.899H211.512V179.099H209.976V177.883C209.229 178.832 208.248 179.307 207.032 179.307C205.901 179.307 204.984 178.917 204.28 178.139C203.576 177.349 203.224 176.389 203.224 175.259C203.224 174.128 203.576 173.173 204.28 172.395C204.984 171.605 205.901 171.211 207.032 171.211C208.184 171.211 209.107 171.611 209.8 172.411V167.899ZM209.784 174.315C209.581 173.867 209.261 173.488 208.824 173.179C208.397 172.869 207.901 172.715 207.336 172.715C206.643 172.715 206.072 172.955 205.624 173.435C205.176 173.904 204.952 174.512 204.952 175.259C204.952 176.005 205.176 176.619 205.624 177.099C206.072 177.568 206.643 177.803 207.336 177.803C207.901 177.803 208.397 177.648 208.824 177.339C209.261 177.029 209.581 176.645 209.784 176.187V174.315ZM213.097 175.259C213.097 174.597 213.214 174 213.449 173.467C213.684 172.923 213.993 172.496 214.377 172.187C214.761 171.867 215.177 171.627 215.625 171.467C216.073 171.296 216.526 171.211 216.985 171.211C217.572 171.211 218.1 171.301 218.569 171.483C219.049 171.664 219.433 171.909 219.721 172.219C220.009 172.528 220.244 172.885 220.425 173.291C220.606 173.696 220.702 174.123 220.713 174.571C220.724 175.008 220.686 175.451 220.601 175.899H214.825C214.91 176.549 215.23 177.04 215.785 177.371C216.34 177.691 217.001 177.851 217.769 177.851C218.644 177.851 219.454 177.669 220.201 177.307V178.779C219.465 179.131 218.548 179.307 217.449 179.307C216.201 179.307 215.161 178.955 214.329 178.251C213.508 177.547 213.097 176.549 213.097 175.259ZM219.065 174.619C219.129 174.181 218.996 173.744 218.665 173.307C218.345 172.859 217.812 172.635 217.065 172.635C216.457 172.635 215.934 172.811 215.497 173.163C215.07 173.515 214.841 174 214.809 174.619H219.065Z" fill="#111111"/>
<circle cx="60" cy="174.099" r="19.5" fill="white" stroke="#111111"/>
<path fill-rule="evenodd" clip-rule="evenodd" d="M63.1434 161.779C61.5922 161.937 60.2033 162.47 58.9708 163.382C58.4702 163.752 57.5935 164.65 57.2361 165.158C55.6503 167.414 55.2956 170.235 56.272 172.823L56.4363 173.259L52.2181 177.479L48 181.699V183.727V185.755H50.0283H52.0567L52.7007 185.11L53.3447 184.465V183.703V182.942H54.1071H54.8694L55.6777 182.133L56.4859 181.323V180.655V179.988H57.1538H57.8215L59.158 178.653L60.4945 177.318L60.9299 177.482C61.9095 177.852 62.8172 178.017 63.8701 178.017C65.2183 178.017 66.2562 177.773 67.4802 177.171C71.4565 175.213 73.123 170.386 71.2021 166.389C69.9645 163.814 67.559 162.108 64.7276 161.797C64.3006 161.75 63.5137 161.741 63.1434 161.779ZM65.2156 163.293C68.2371 163.93 70.4296 166.496 70.5837 169.575C70.7245 172.389 69.0955 174.97 66.4613 176.105C65.6316 176.463 64.8225 176.62 63.8232 176.618C62.7441 176.615 61.9284 176.419 60.8524 175.904C60.5334 175.752 60.2485 175.627 60.2191 175.627C60.1897 175.627 59.5014 176.292 58.6895 177.104L57.2132 178.581H56.505C56.1155 178.581 55.6354 178.595 55.4381 178.611L55.0794 178.642V179.679V180.717L54.6683 181.126L54.2571 181.535H53.738C53.4525 181.535 52.9308 181.549 52.5786 181.566L51.9382 181.597V182.725V183.853L51.6937 184.101L51.4491 184.349H50.4278H49.4065V183.306V182.264L53.7667 177.915C56.1648 175.523 58.1269 173.544 58.1269 173.517C58.1269 173.49 58.0317 173.278 57.9154 173.047C57.4472 172.114 57.221 171.342 57.1464 170.422C56.9481 167.976 58.093 165.643 60.1659 164.269C61.0375 163.691 61.9775 163.343 63.0497 163.2C63.541 163.135 64.699 163.184 65.2156 163.293ZM65.0339 165.547C64.1304 165.708 63.3906 166.262 63.0036 167.069C62.7904 167.514 62.7215 167.814 62.7215 168.299C62.7215 169.444 63.4802 170.512 64.5629 170.892C64.9661 171.033 65.6813 171.067 66.1152 170.965C67.038 170.748 67.8008 170.04 68.1006 169.122C68.2629 168.625 68.2727 167.965 68.1248 167.491C67.8553 166.628 67.138 165.899 66.304 165.641C65.9549 165.533 65.3606 165.489 65.0339 165.547ZM66.0822 167.072C66.8951 167.467 67.0795 168.567 66.4426 169.223C66.2061 169.467 65.9363 169.588 65.5759 169.614C65.1314 169.646 64.83 169.536 64.5234 169.229C63.6369 168.343 64.336 166.824 65.5814 166.932C65.7232 166.944 65.9486 167.007 66.0822 167.072Z" fill="#111111"/>
<path d="M92.768 338.747C92.768 337.765 93.1413 337.013 93.888 336.491C94.6453 335.957 95.584 335.691 96.704 335.691C98.0587 335.691 99.2267 335.973 100.208 336.539V338.283C99.2587 337.643 98.1387 337.333 96.848 337.355C95.3653 337.355 94.624 337.808 94.624 338.715C94.624 339.152 94.8427 339.52 95.28 339.819C95.7173 340.107 96.2507 340.347 96.88 340.539C97.5093 340.731 98.1387 340.949 98.768 341.195C99.3973 341.44 99.9307 341.813 100.368 342.315C100.805 342.805 101.024 343.419 101.024 344.155C101.024 345.253 100.624 346.059 99.824 346.571C99.0347 347.072 98.0213 347.317 96.784 347.307C95.2907 347.307 93.968 346.981 92.816 346.331V344.539C93.9573 345.275 95.2373 345.643 96.656 345.643C98.3307 345.643 99.168 345.179 99.168 344.251C99.168 343.845 99.008 343.499 98.688 343.211C98.3787 342.923 97.984 342.704 97.504 342.555C97.0347 342.405 96.5227 342.229 95.968 342.027C95.4133 341.813 94.896 341.595 94.416 341.371C93.9467 341.136 93.552 340.795 93.232 340.347C92.9227 339.899 92.768 339.365 92.768 338.747ZM104.236 347.099H102.524V339.419H104.236V347.099ZM104.428 336.923C104.428 337.253 104.327 337.509 104.124 337.691C103.932 337.861 103.687 337.947 103.388 337.947C103.089 337.947 102.839 337.861 102.636 337.691C102.433 337.509 102.332 337.253 102.332 336.923C102.332 336.603 102.433 336.357 102.636 336.187C102.839 336.005 103.089 335.915 103.388 335.915C103.687 335.915 103.932 336.005 104.124 336.187C104.327 336.357 104.428 336.603 104.428 336.923ZM106.91 346.139C106.206 345.349 105.854 344.389 105.854 343.259C105.854 342.128 106.206 341.173 106.91 340.395C107.614 339.605 108.531 339.211 109.662 339.211C110.867 339.211 111.849 339.68 112.606 340.619V339.419H114.142V347.003C114.142 348.293 113.726 349.253 112.894 349.883C112.073 350.512 111.054 350.827 109.838 350.827C108.665 350.827 107.609 350.587 106.67 350.107V348.539C107.566 349.061 108.547 349.323 109.614 349.323C111.491 349.323 112.43 348.565 112.43 347.051V346.075C111.737 346.896 110.814 347.307 109.662 347.307C108.531 347.307 107.614 346.917 106.91 346.139ZM112.414 342.315C112.211 341.867 111.891 341.488 111.454 341.179C111.027 340.869 110.531 340.715 109.966 340.715C109.273 340.715 108.702 340.955 108.254 341.435C107.806 341.904 107.582 342.512 107.582 343.259C107.582 344.005 107.806 344.619 108.254 345.099C108.702 345.568 109.273 345.803 109.966 345.803C110.531 345.803 111.027 345.659 111.454 345.371C111.891 345.083 112.211 344.725 112.414 344.299V342.315ZM117.727 340.475C118.431 339.632 119.322 339.211 120.399 339.211C121.359 339.211 122.127 339.504 122.703 340.091C123.279 340.667 123.567 341.419 123.567 342.347V347.099H121.855V342.571C121.855 341.973 121.69 341.52 121.359 341.211C121.028 340.891 120.596 340.731 120.063 340.731C119.22 340.731 118.506 341.157 117.919 342.011V347.099H116.207V339.419H117.727V340.475ZM130.978 347.099H129.266V339.419H130.978V347.099ZM131.17 336.923C131.17 337.253 131.069 337.509 130.866 337.691C130.674 337.861 130.429 337.947 130.13 337.947C129.832 337.947 129.581 337.861 129.378 337.691C129.176 337.509 129.074 337.253 129.074 336.923C129.074 336.603 129.176 336.357 129.378 336.187C129.581 336.005 129.832 335.915 130.13 335.915C130.429 335.915 130.674 336.005 130.866 336.187C131.069 336.357 131.17 336.603 131.17 336.923ZM134.596 340.475C135.3 339.632 136.191 339.211 137.268 339.211C138.228 339.211 138.996 339.504 139.572 340.091C140.148 340.667 140.436 341.419 140.436 342.347V347.099H138.724V342.571C138.724 341.973 138.559 341.52 138.228 341.211C137.898 340.891 137.466 340.731 136.932 340.731C136.09 340.731 135.375 341.157 134.788 342.011V347.099H133.076V339.419H134.596V340.475ZM155.537 339.419H157.345L154.801 347.099H152.961L151.137 341.595L149.313 347.099H147.489L144.929 339.419H146.737L148.465 345.227L150.337 339.419H151.937L153.825 345.227L155.537 339.419ZM160.33 347.099H158.618V339.419H160.33V347.099ZM160.522 336.923C160.522 337.253 160.421 337.509 160.218 337.691C160.026 337.861 159.781 337.947 159.482 337.947C159.184 337.947 158.933 337.861 158.73 337.691C158.528 337.509 158.426 337.253 158.426 336.923C158.426 336.603 158.528 336.357 158.73 336.187C158.933 336.005 159.184 335.915 159.482 335.915C159.781 335.915 160.026 336.005 160.218 336.187C160.421 336.357 160.522 336.603 160.522 336.923ZM162.988 337.099L164.684 336.683V339.419H167.468V340.923H164.684V344.443C164.684 344.933 164.796 345.28 165.02 345.483C165.255 345.685 165.628 345.787 166.14 345.787C166.663 345.787 167.18 345.685 167.692 345.483V346.955C167.074 347.179 166.386 347.291 165.628 347.291C164.839 347.291 164.199 347.083 163.708 346.667C163.228 346.251 162.988 345.616 162.988 344.763V340.923H161.612V339.419H162.988V337.099ZM169.005 335.899H170.717V340.267C171.399 339.563 172.226 339.211 173.197 339.211C174.157 339.211 174.925 339.504 175.501 340.091C176.077 340.667 176.365 341.419 176.365 342.347V347.099H174.653V342.571C174.653 341.973 174.487 341.52 174.157 341.211C173.826 340.891 173.394 340.731 172.861 340.731C172.018 340.731 171.303 341.157 170.717 342.011V347.099H169.005V335.899ZM182.32 335.899H190.048V337.579H184.144V340.859H189.584V342.555H184.144V347.099H182.32V335.899ZM197.512 345.323C197.512 345.696 197.698 345.883 198.072 345.883C198.2 345.883 198.37 345.851 198.584 345.787V347.019C198.264 347.147 197.901 347.211 197.496 347.211C196.728 347.211 196.216 346.912 195.96 346.315C195.138 346.976 194.173 347.307 193.064 347.307C192.317 347.307 191.682 347.104 191.16 346.699C190.637 346.283 190.376 345.701 190.376 344.955C190.376 344.059 190.712 343.408 191.384 343.003C192.056 342.587 192.861 342.379 193.8 342.379C194.418 342.379 195.085 342.453 195.8 342.603V342.331C195.8 341.84 195.624 341.445 195.272 341.147C194.92 340.848 194.424 340.699 193.784 340.699C192.834 340.699 191.912 340.896 191.016 341.291V339.723C192.018 339.381 193 339.211 193.96 339.211C195.08 339.211 195.949 339.488 196.568 340.043C197.197 340.597 197.512 341.44 197.512 342.571V345.323ZM194.136 343.579C193.57 343.579 193.096 343.68 192.712 343.883C192.328 344.085 192.136 344.405 192.136 344.843C192.136 345.205 192.274 345.488 192.552 345.691C192.829 345.883 193.17 345.979 193.576 345.979C194.45 345.979 195.192 345.675 195.8 345.067V343.771C195.181 343.643 194.626 343.579 194.136 343.579ZM199.205 343.323C199.205 341.989 199.626 340.971 200.469 340.267C201.311 339.563 202.303 339.211 203.445 339.211C204.362 339.211 205.151 339.408 205.813 339.803V341.371C205.215 340.944 204.506 340.731 203.685 340.731C202.927 340.731 202.282 340.944 201.749 341.371C201.215 341.787 200.949 342.416 200.949 343.259C200.949 344.08 201.21 344.709 201.733 345.147C202.266 345.573 202.906 345.787 203.653 345.787C204.463 345.787 205.21 345.589 205.893 345.195V346.779C205.157 347.131 204.309 347.307 203.349 347.307C202.229 347.307 201.258 346.965 200.437 346.283C199.615 345.589 199.205 344.603 199.205 343.323ZM206.921 343.259C206.921 342.597 207.039 342 207.273 341.467C207.508 340.923 207.817 340.496 208.201 340.187C208.585 339.867 209.001 339.627 209.449 339.467C209.897 339.296 210.351 339.211 210.809 339.211C211.396 339.211 211.924 339.301 212.393 339.483C212.873 339.664 213.257 339.909 213.545 340.219C213.833 340.528 214.068 340.885 214.249 341.291C214.431 341.696 214.527 342.123 214.537 342.571C214.548 343.008 214.511 343.451 214.425 343.899H208.649C208.735 344.549 209.055 345.04 209.609 345.371C210.164 345.691 210.825 345.851 211.593 345.851C212.468 345.851 213.279 345.669 214.025 345.307V346.779C213.289 347.131 212.372 347.307 211.273 347.307C210.025 347.307 208.985 346.955 208.153 346.251C207.332 345.547 206.921 344.549 206.921 343.259ZM212.889 342.619C212.953 342.181 212.82 341.744 212.489 341.307C212.169 340.859 211.636 340.635 210.889 340.635C210.281 340.635 209.759 340.811 209.321 341.163C208.895 341.515 208.665 342 208.633 342.619H212.889ZM220.076 335.899H221.9V347.099H220.076V335.899ZM224.543 335.899H228.463C230.383 335.899 231.844 336.411 232.847 337.435C233.85 338.459 234.351 339.813 234.351 341.499C234.351 343.184 233.85 344.539 232.847 345.563C231.844 346.587 230.383 347.099 228.463 347.099H224.543V335.899ZM231.455 344.427C232.148 343.744 232.495 342.768 232.495 341.499C232.495 340.229 232.148 339.259 231.455 338.587C230.772 337.904 229.77 337.563 228.447 337.563H226.367V345.435H228.447C229.77 345.435 230.772 345.099 231.455 344.427Z" fill="#111111"/>
<rect x="265.5" y="334.599" width="30" height="15" rx="7.5" fill="#111111" stroke="#111111"/>
<circle cx="288" cy="342.099" r="7" fill="white"/>
<circle cx="60" cy="342.099" r="19.5" fill="white" stroke="#111111"/>
<path fill-rule="evenodd" clip-rule="evenodd" d="M50 335.099V338.099H50.6667H51.3333V335.765V333.432H53.6667H56V332.765V332.099H53H50V335.099ZM63.3333 332.765V333.432H66H68.6667V336.099V338.765H69.3333H70V335.432V332.099H66.6667H63.3333V332.765ZM59.3542 335.49C57.8256 335.784 56.6565 336.965 56.3916 338.48C56.1442 339.896 56.7905 341.382 57.9916 342.159C60.1128 343.531 62.8885 342.451 63.5533 339.994C63.6738 339.549 63.6802 338.678 63.5661 338.248C63.2033 336.882 62.2518 335.92 60.8958 335.548C60.5142 335.444 59.7451 335.415 59.3542 335.49ZM60.4403 336.81C60.848 336.883 61.3304 337.142 61.6435 337.455C62.5593 338.371 62.5512 339.85 61.6254 340.762C61.1771 341.203 60.6584 341.41 60 341.41C59.3316 341.41 58.8139 341.2 58.3565 340.742C57.8991 340.285 57.6887 339.767 57.6887 339.099C57.6887 338.426 57.8989 337.913 58.3661 337.445C58.9043 336.907 59.6733 336.672 60.4403 336.81ZM58.875 344.62C57.3088 344.834 55.8043 345.512 54.5625 346.564C54.187 346.882 53.4961 347.606 53.5026 347.675C53.504 347.69 53.7303 347.885 54.0054 348.107L54.5055 348.511L54.9299 348.07C56.3787 346.565 58.169 345.834 60.2432 345.902C61.3596 345.938 62.126 346.133 63.1458 346.639C63.8718 346.999 64.4486 347.427 65.0528 348.053L65.5014 348.517L65.9776 348.057L66.4538 347.596L66.1697 347.275C65.3601 346.358 64.02 345.459 62.8333 345.037C62.3374 344.86 61.6217 344.688 61.101 344.62C60.5231 344.544 59.4282 344.544 58.875 344.62ZM50 349.099V352.099H53H56V351.432V350.765H53.6667H51.3333V348.432V346.099H50.6667H50V349.099ZM68.6667 348.432V350.765H66H63.3333V351.432V352.099H66.6667H70V349.099V346.099H69.3333H68.6667V348.432Z" fill="#111111"/>
<path d="M94.032 291.099H92.096L96.832 279.899H98.832L103.552 291.099H101.632L100.64 288.683H95.024L94.032 291.099ZM97.616 282.299L95.648 287.083H100L98.032 282.299C97.9467 282.064 97.8773 281.856 97.824 281.675C97.7707 281.856 97.7013 282.064 97.616 282.299ZM106.153 284.619C106.931 283.68 107.918 283.211 109.113 283.211C110.243 283.211 111.161 283.605 111.865 284.395C112.569 285.173 112.921 286.128 112.921 287.259C112.921 288.389 112.569 289.349 111.865 290.139C111.161 290.917 110.243 291.307 109.113 291.307C107.961 291.307 107.038 290.907 106.345 290.107V294.619H104.633V283.419H106.153V284.619ZM110.505 289.099C110.953 288.619 111.177 288.005 111.177 287.259C111.177 286.512 110.953 285.904 110.505 285.435C110.057 284.955 109.486 284.715 108.793 284.715C108.227 284.715 107.726 284.869 107.289 285.179C106.862 285.488 106.547 285.867 106.345 286.315V288.187C106.547 288.645 106.862 289.029 107.289 289.339C107.726 289.648 108.227 289.803 108.793 289.803C109.486 289.803 110.057 289.568 110.505 289.099ZM116.026 284.619C116.804 283.68 117.791 283.211 118.986 283.211C120.116 283.211 121.034 283.605 121.738 284.395C122.442 285.173 122.794 286.128 122.794 287.259C122.794 288.389 122.442 289.349 121.738 290.139C121.034 290.917 120.116 291.307 118.986 291.307C117.834 291.307 116.911 290.907 116.218 290.107V294.619H114.506V283.419H116.026V284.619ZM120.378 289.099C120.826 288.619 121.05 288.005 121.05 287.259C121.05 286.512 120.826 285.904 120.378 285.435C119.93 284.955 119.359 284.715 118.666 284.715C118.1 284.715 117.599 284.869 117.162 285.179C116.735 285.488 116.42 285.867 116.218 286.315V288.187C116.42 288.645 116.735 289.029 117.162 289.339C117.599 289.648 118.1 289.803 118.666 289.803C119.359 289.803 119.93 289.568 120.378 289.099ZM129.6 284.475C130.304 283.632 131.195 283.211 132.272 283.211C133.232 283.211 134 283.504 134.576 284.091C135.152 284.667 135.44 285.419 135.44 286.347V291.099H133.728V286.571C133.728 285.973 133.563 285.52 133.232 285.211C132.901 284.891 132.469 284.731 131.936 284.731C131.093 284.731 130.379 285.157 129.792 286.011V291.099H128.08V283.419H129.6V284.475ZM138.142 290.235C137.332 289.52 136.926 288.528 136.926 287.259C136.926 285.989 137.332 284.997 138.142 284.283C138.964 283.568 139.945 283.211 141.086 283.211C142.238 283.211 143.22 283.568 144.03 284.283C144.841 284.997 145.246 285.989 145.246 287.259C145.246 288.528 144.841 289.52 144.03 290.235C143.22 290.949 142.238 291.307 141.086 291.307C139.945 291.307 138.964 290.949 138.142 290.235ZM142.83 289.067C143.278 288.608 143.502 288.005 143.502 287.259C143.502 286.512 143.278 285.915 142.83 285.467C142.382 285.008 141.801 284.779 141.086 284.779C140.361 284.779 139.774 285.008 139.326 285.467C138.878 285.915 138.654 286.512 138.654 287.259C138.654 288.005 138.878 288.608 139.326 289.067C139.774 289.515 140.361 289.739 141.086 289.739C141.801 289.739 142.382 289.515 142.83 289.067ZM147.277 281.099L148.973 280.683V283.419H151.757V284.923H148.973V288.443C148.973 288.933 149.085 289.28 149.309 289.483C149.544 289.685 149.917 289.787 150.429 289.787C150.952 289.787 151.469 289.685 151.981 289.483V290.955C151.362 291.179 150.674 291.291 149.917 291.291C149.128 291.291 148.488 291.083 147.997 290.667C147.517 290.251 147.277 289.616 147.277 288.763V284.923H145.901V283.419H147.277V281.099ZM155.037 291.099H153.325V283.419H155.037V291.099ZM155.229 280.923C155.229 281.253 155.128 281.509 154.925 281.691C154.733 281.861 154.488 281.947 154.189 281.947C153.891 281.947 153.64 281.861 153.437 281.691C153.235 281.509 153.133 281.253 153.133 280.923C153.133 280.603 153.235 280.357 153.437 280.187C153.64 280.005 153.891 279.915 154.189 279.915C154.488 279.915 154.733 280.005 154.925 280.187C155.128 280.357 155.229 280.603 155.229 280.923ZM159.519 291.099H157.807V284.923H156.415V283.419H157.807V282.571C157.807 281.547 158.079 280.811 158.623 280.363C159.178 279.915 159.86 279.691 160.671 279.691C161.322 279.691 161.956 279.803 162.575 280.027V281.531C162.127 281.307 161.631 281.195 161.087 281.195C160.607 281.195 160.223 281.296 159.935 281.499C159.658 281.701 159.519 282.08 159.519 282.635V283.419H162.143V284.923H159.519V291.099ZM165.049 291.099H163.337V283.419H165.049V291.099ZM165.241 280.923C165.241 281.253 165.14 281.509 164.937 281.691C164.745 281.861 164.5 281.947 164.201 281.947C163.902 281.947 163.652 281.861 163.449 281.691C163.246 281.509 163.145 281.253 163.145 280.923C163.145 280.603 163.246 280.357 163.449 280.187C163.652 280.005 163.902 279.915 164.201 279.915C164.5 279.915 164.745 280.005 164.937 280.187C165.14 280.357 165.241 280.603 165.241 280.923ZM166.667 287.323C166.667 285.989 167.088 284.971 167.931 284.267C168.774 283.563 169.766 283.211 170.907 283.211C171.824 283.211 172.614 283.408 173.275 283.803V285.371C172.678 284.944 171.968 284.731 171.147 284.731C170.39 284.731 169.744 284.944 169.211 285.371C168.678 285.787 168.411 286.416 168.411 287.259C168.411 288.08 168.672 288.709 169.195 289.147C169.728 289.573 170.368 289.787 171.115 289.787C171.926 289.787 172.672 289.589 173.355 289.195V290.779C172.619 291.131 171.771 291.307 170.811 291.307C169.691 291.307 168.72 290.965 167.899 290.283C167.078 289.589 166.667 288.603 166.667 287.323ZM181.486 289.323C181.486 289.696 181.673 289.883 182.046 289.883C182.174 289.883 182.345 289.851 182.558 289.787V291.019C182.238 291.147 181.875 291.211 181.47 291.211C180.702 291.211 180.19 290.912 179.934 290.315C179.113 290.976 178.147 291.307 177.038 291.307C176.291 291.307 175.657 291.104 175.134 290.699C174.611 290.283 174.35 289.701 174.35 288.955C174.35 288.059 174.686 287.408 175.358 287.003C176.03 286.587 176.835 286.379 177.774 286.379C178.393 286.379 179.059 286.453 179.774 286.603V286.331C179.774 285.84 179.598 285.445 179.246 285.147C178.894 284.848 178.398 284.699 177.758 284.699C176.809 284.699 175.886 284.896 174.99 285.291V283.723C175.993 283.381 176.974 283.211 177.934 283.211C179.054 283.211 179.923 283.488 180.542 284.043C181.171 284.597 181.486 285.44 181.486 286.571V289.323ZM178.11 287.579C177.545 287.579 177.07 287.68 176.686 287.883C176.302 288.085 176.11 288.405 176.11 288.843C176.11 289.205 176.249 289.488 176.526 289.691C176.803 289.883 177.145 289.979 177.55 289.979C178.425 289.979 179.166 289.675 179.774 289.067V287.771C179.155 287.643 178.601 287.579 178.11 287.579ZM184.141 281.099L185.837 280.683V283.419H188.621V284.923H185.837V288.443C185.837 288.933 185.949 289.28 186.173 289.483C186.407 289.685 186.781 289.787 187.293 289.787C187.815 289.787 188.333 289.685 188.845 289.483V290.955C188.226 291.179 187.538 291.291 186.781 291.291C185.991 291.291 185.351 291.083 184.861 290.667C184.381 290.251 184.141 289.616 184.141 288.763V284.923H182.765V283.419H184.141V281.099ZM191.901 291.099H190.189V283.419H191.901V291.099ZM192.093 280.923C192.093 281.253 191.992 281.509 191.789 281.691C191.597 281.861 191.352 281.947 191.053 281.947C190.754 281.947 190.504 281.861 190.301 281.691C190.098 281.509 189.997 281.253 189.997 280.923C189.997 280.603 190.098 280.357 190.301 280.187C190.504 280.005 190.754 279.915 191.053 279.915C191.352 279.915 191.597 280.005 191.789 280.187C191.992 280.357 192.093 280.603 192.093 280.923ZM194.735 290.235C193.924 289.52 193.519 288.528 193.519 287.259C193.519 285.989 193.924 284.997 194.735 284.283C195.556 283.568 196.538 283.211 197.679 283.211C198.831 283.211 199.812 283.568 200.623 284.283C201.434 284.997 201.839 285.989 201.839 287.259C201.839 288.528 201.434 289.52 200.623 290.235C199.812 290.949 198.831 291.307 197.679 291.307C196.538 291.307 195.556 290.949 194.735 290.235ZM199.423 289.067C199.871 288.608 200.095 288.005 200.095 287.259C200.095 286.512 199.871 285.915 199.423 285.467C198.975 285.008 198.394 284.779 197.679 284.779C196.954 284.779 196.367 285.008 195.919 285.467C195.471 285.915 195.247 286.512 195.247 287.259C195.247 288.005 195.471 288.608 195.919 289.067C196.367 289.515 196.954 289.739 197.679 289.739C198.394 289.739 198.975 289.515 199.423 289.067ZM204.939 284.475C205.643 283.632 206.534 283.211 207.611 283.211C208.571 283.211 209.339 283.504 209.915 284.091C210.491 284.667 210.779 285.419 210.779 286.347V291.099H209.067V286.571C209.067 285.973 208.902 285.52 208.571 285.211C208.24 284.891 207.808 284.731 207.275 284.731C206.432 284.731 205.718 285.157 205.131 286.011V291.099H203.419V283.419H204.939V284.475ZM212.345 285.499C212.345 284.72 212.638 284.144 213.225 283.771C213.822 283.397 214.548 283.211 215.401 283.211C216.393 283.211 217.316 283.429 218.169 283.867V285.371C217.849 285.157 217.438 284.981 216.937 284.843C216.436 284.693 215.961 284.619 215.513 284.619C215.118 284.619 214.782 284.688 214.505 284.827C214.228 284.955 214.089 285.163 214.089 285.451C214.089 285.717 214.249 285.941 214.569 286.123C214.889 286.293 215.273 286.443 215.721 286.571C216.18 286.688 216.633 286.832 217.081 287.003C217.529 287.163 217.913 287.413 218.233 287.755C218.553 288.096 218.713 288.528 218.713 289.051C218.713 289.84 218.404 290.416 217.785 290.779C217.166 291.131 216.372 291.307 215.401 291.307C214.196 291.307 213.193 291.061 212.393 290.571V289.051C213.214 289.595 214.19 289.867 215.321 289.867C216.43 289.867 216.985 289.605 216.985 289.083C216.985 288.827 216.825 288.613 216.505 288.443C216.185 288.261 215.796 288.112 215.337 287.995C214.889 287.867 214.436 287.723 213.977 287.563C213.529 287.392 213.145 287.136 212.825 286.795C212.505 286.443 212.345 286.011 212.345 285.499Z" fill="#111111"/>
<rect x="265.5" y="278.599" width="30" height="15" rx="7.5" fill="#111111" stroke="#111111"/>
<circle cx="288" cy="286.099" r="7" fill="white"/>
<circle cx="60" cy="286.099" r="19.5" fill="white" stroke="#111111"/>
<path fill-rule="evenodd" clip-rule="evenodd" d="M59.5574 275.142C59.2928 275.195 58.8545 275.417 58.6126 275.62C58.3549 275.836 58.0688 276.258 57.9436 276.607C57.8631 276.832 57.8435 276.967 57.8334 277.373L57.8211 277.865L57.5381 277.992C56.7402 278.349 56.0893 278.805 55.4961 279.425C54.5116 280.452 53.9295 281.604 53.66 283.059C53.6056 283.353 53.5918 283.816 53.5737 285.968C53.5529 288.44 53.5496 288.529 53.4765 288.585C53.4349 288.617 53.356 288.644 53.3011 288.645C52.8252 288.652 52.1963 288.9 51.809 289.234C50.9996 289.932 50.7652 291.153 51.2533 292.129C51.5211 292.664 51.9556 293.056 52.5202 293.273L52.8116 293.385L54.9543 293.398C56.5693 293.407 57.1042 293.422 57.1266 293.459C57.143 293.486 57.1567 293.552 57.157 293.604C57.1581 293.771 57.3519 294.321 57.5084 294.6C57.8866 295.274 58.4711 295.751 59.2248 295.998C59.6082 296.125 60.3541 296.133 60.7435 296.016C61.4012 295.818 62.0374 295.336 62.4009 294.76C62.6477 294.368 62.753 294.088 62.8663 293.519L62.8888 293.406L64.9246 293.405C66.5638 293.405 67.0136 293.393 67.2333 293.344C68.316 293.105 69.0557 292.08 68.9967 290.901C68.9527 290.023 68.4796 289.296 67.6949 288.901C67.4413 288.774 66.9574 288.648 66.7048 288.645C66.65 288.644 66.571 288.617 66.5294 288.585C66.4564 288.529 66.453 288.44 66.4325 286.029C66.4122 283.633 66.4077 283.513 66.3223 283.081C66.0955 281.934 65.6342 280.896 64.9598 280.015C64.293 279.144 63.2218 278.3 62.3416 277.952L62.1662 277.883V277.402C62.1662 276.814 62.0821 276.517 61.7929 276.083C61.2913 275.33 60.4276 274.967 59.5574 275.142ZM60.3749 276.546C60.6917 276.702 60.8995 277.019 60.8995 277.347V277.509L60.2856 277.488C59.9479 277.477 59.5445 277.485 59.3891 277.505L59.1065 277.543V277.364C59.1065 276.885 59.5334 276.45 60.003 276.45C60.1052 276.45 60.2603 276.49 60.3749 276.546ZM61.2225 278.988C62.8801 279.438 64.2475 280.769 64.8355 282.505C65.1214 283.349 65.12 283.333 65.1454 286.18L65.1683 288.746L65.2594 288.985C65.3176 289.137 65.4331 289.317 65.5796 289.482C65.8724 289.811 66.1422 289.945 66.6291 290.003C67.0477 290.052 67.2004 290.113 67.4157 290.317C67.6228 290.514 67.7188 290.738 67.7188 291.025C67.7188 291.411 67.5218 291.756 67.1943 291.942L67.0384 292.031L60.0867 292.041C55.3735 292.049 53.0865 292.038 52.9846 292.009C52.5959 291.899 52.2847 291.461 52.2863 291.028C52.2874 290.738 52.3831 290.514 52.5903 290.317C52.806 290.112 52.9582 290.052 53.381 290.002C54.0556 289.923 54.5167 289.574 54.7534 288.964C54.8362 288.75 54.8385 288.691 54.8617 286.098C54.8874 283.231 54.8822 283.304 55.1174 282.546C55.5606 281.119 56.6236 279.889 57.9405 279.28C58.6659 278.945 59.2683 278.827 60.1394 278.848C60.6768 278.862 60.8265 278.881 61.2225 278.988ZM61.5617 293.478C61.5609 293.628 61.3605 293.994 61.1539 294.222C60.6582 294.77 59.9332 294.907 59.2889 294.574C59.0152 294.433 58.671 294.062 58.5408 293.767C58.3664 293.373 58.2312 293.406 60.003 293.406C61.462 293.406 61.562 293.411 61.5617 293.478Z" fill="#111111"/>
<path d="M93.36 223.899H97.36C100.549 223.899 102.144 225.125 102.144 227.579C102.144 230.032 100.549 231.259 97.36 231.259H95.184V235.099H93.36V223.899ZM99.52 229.163C100.032 228.864 100.288 228.336 100.288 227.579C100.288 226.821 100.032 226.299 99.52 226.011C99.0187 225.712 98.3307 225.563 97.456 225.563H95.184V229.595H97.456C98.3307 229.595 99.0187 229.451 99.52 229.163ZM105.012 228.683C105.311 228.203 105.753 227.829 106.34 227.563C106.927 227.296 107.561 227.195 108.244 227.259V228.939C107.561 228.843 106.943 228.933 106.388 229.211C105.833 229.488 105.439 229.899 105.204 230.443V235.099H103.492V227.419H105.012V228.683ZM111.203 235.099H109.491V227.419H111.203V235.099ZM111.395 224.923C111.395 225.253 111.294 225.509 111.091 225.691C110.899 225.861 110.654 225.947 110.355 225.947C110.056 225.947 109.806 225.861 109.603 225.691C109.4 225.509 109.299 225.253 109.299 224.923C109.299 224.603 109.4 224.357 109.603 224.187C109.806 224.005 110.056 223.915 110.355 223.915C110.654 223.915 110.899 224.005 111.091 224.187C111.294 224.357 111.395 224.603 111.395 224.923ZM118.933 227.419H120.805L117.509 235.099H115.701L112.421 227.419H114.277L116.613 233.243L118.933 227.419ZM128.265 233.323C128.265 233.696 128.451 233.883 128.825 233.883C128.953 233.883 129.123 233.851 129.337 233.787V235.019C129.017 235.147 128.654 235.211 128.249 235.211C127.481 235.211 126.969 234.912 126.713 234.315C125.891 234.976 124.926 235.307 123.817 235.307C123.07 235.307 122.435 235.104 121.913 234.699C121.39 234.283 121.129 233.701 121.129 232.955C121.129 232.059 121.465 231.408 122.137 231.003C122.809 230.587 123.614 230.379 124.553 230.379C125.171 230.379 125.838 230.453 126.553 230.603V230.331C126.553 229.84 126.377 229.445 126.025 229.147C125.673 228.848 125.177 228.699 124.537 228.699C123.587 228.699 122.665 228.896 121.769 229.291V227.723C122.771 227.381 123.753 227.211 124.713 227.211C125.833 227.211 126.702 227.488 127.321 228.043C127.95 228.597 128.265 229.44 128.265 230.571V233.323ZM124.889 231.579C124.323 231.579 123.849 231.68 123.465 231.883C123.081 232.085 122.889 232.405 122.889 232.843C122.889 233.205 123.027 233.488 123.305 233.691C123.582 233.883 123.923 233.979 124.329 233.979C125.203 233.979 125.945 233.675 126.553 233.067V231.771C125.934 231.643 125.379 231.579 124.889 231.579ZM129.958 231.323C129.958 229.989 130.379 228.971 131.222 228.267C132.064 227.563 133.056 227.211 134.198 227.211C135.115 227.211 135.904 227.408 136.566 227.803V229.371C135.968 228.944 135.259 228.731 134.438 228.731C133.68 228.731 133.035 228.944 132.502 229.371C131.968 229.787 131.702 230.416 131.702 231.259C131.702 232.08 131.963 232.709 132.486 233.147C133.019 233.573 133.659 233.787 134.406 233.787C135.216 233.787 135.963 233.589 136.646 233.195V234.779C135.91 235.131 135.062 235.307 134.102 235.307C132.982 235.307 132.011 234.965 131.19 234.283C130.368 233.589 129.958 232.603 129.958 231.323ZM141.689 233.211L143.977 227.419H145.769L142.169 236.139C141.433 237.92 140.403 238.811 139.081 238.811C138.771 238.811 138.435 238.768 138.073 238.683V237.227C138.307 237.301 138.569 237.339 138.857 237.339C139.678 237.339 140.313 236.741 140.761 235.547L140.921 235.163L137.273 227.419H139.097L141.689 233.211Z" fill="#111111"/>
<circle cx="60" cy="229.755" r="19.5" fill="white" stroke="#111111"/>
<path fill-rule="evenodd" clip-rule="evenodd" d="M53.7103 219.772L53.0449 220.446H51.5225H50V224.912C50 227.657 50.0181 229.6 50.047 229.953C50.246 232.391 51.0582 234.687 52.4295 236.691C53.2994 237.961 54.6157 239.286 55.8876 240.171C56.9345 240.899 58.315 241.573 59.5459 241.956L60.0049 242.099L60.5234 241.934C61.4872 241.629 62.5857 241.126 63.469 240.585C65.2824 239.476 66.9226 237.818 68.0192 235.985C69.0057 234.336 69.5924 232.647 69.8917 230.596C69.958 230.141 69.9691 229.5 69.9835 225.263L70 220.446H68.4753H66.9507L66.2853 219.772L65.6199 219.099H59.9978H54.3757L53.7103 219.772ZM65.7076 221.12L66.373 221.793H67.5203H68.6676L68.6511 225.914C68.6354 229.858 68.6307 230.059 68.5401 230.625C67.9613 234.243 66.0452 237.266 63.086 239.23C62.4297 239.665 61.3191 240.223 60.5643 240.496L59.9978 240.701L59.4312 240.496C58.6833 240.225 57.5713 239.667 56.9096 239.229C53.9677 237.283 52.0281 234.232 51.4599 230.657C51.3637 230.052 51.3604 229.916 51.3444 225.914L51.328 221.793H52.4752H53.6225L54.2879 221.12L54.9533 220.446H59.9978H65.0422L65.7076 221.12ZM59.3094 221.868C58.0214 222.147 57.0007 223.189 56.7354 224.497C56.6818 224.762 56.6652 225.125 56.6652 226.035V227.227H55.9961H55.3271L55.3426 229.956C55.3598 232.986 55.3466 232.839 55.6824 233.718C56.0993 234.81 57.1608 235.883 58.2412 236.304C58.9428 236.578 59.2013 236.627 59.9756 236.63C60.5844 236.633 60.7435 236.619 61.0834 236.529C62.8266 236.068 64.0399 234.839 64.5437 233.022C64.6335 232.698 64.6381 232.569 64.6529 229.956L64.6684 227.227H63.9994H63.3304V226.035C63.3304 224.739 63.2897 224.393 63.0768 223.882C62.742 223.077 62.0313 222.361 61.2487 222.04C60.6692 221.801 59.9214 221.735 59.3094 221.868ZM60.4066 223.191C61.1677 223.352 61.7832 223.975 61.9469 224.748C61.9768 224.89 61.9973 225.441 61.9973 226.107V227.227H59.9978H57.9982V226.107C57.9982 225.455 58.019 224.887 58.0478 224.748C58.1287 224.359 58.3043 224.037 58.5949 223.745C59.0884 223.248 59.7392 223.049 60.4066 223.191ZM63.3187 230.562C63.3038 232.251 63.2901 232.587 63.2271 232.801C62.8566 234.062 61.8852 234.983 60.655 235.24C58.8762 235.611 57.1069 234.423 56.7359 232.607C56.6779 232.323 56.6652 231.929 56.6652 230.418V228.575H60.0007H63.3362L63.3187 230.562ZM59.3313 231.943V233.964H59.9978H60.6643V231.943V229.922H59.9978H59.3313V231.943Z" fill="#111111"/>
<rect x="228.5" y="38.5986" width="255" height="215" rx="11.5" fill="white" stroke="#111111"/>
<path d="M336.612 124.219H333.996V121.363C332.156 121.187 330.548 120.707 329.172 119.923V116.491C330.964 117.675 332.972 118.267 335.196 118.267C336.22 118.267 336.98 118.147 337.476 117.907C337.988 117.651 338.244 117.235 338.244 116.659C338.244 116.243 338.076 115.883 337.74 115.579C337.42 115.275 336.996 115.035 336.468 114.859C335.94 114.667 335.356 114.483 334.716 114.307C334.076 114.115 333.436 113.899 332.796 113.659C332.156 113.403 331.572 113.107 331.044 112.771C330.516 112.419 330.084 111.939 329.748 111.331C329.428 110.723 329.268 110.019 329.268 109.219C329.268 107.859 329.7 106.787 330.564 106.003C331.428 105.203 332.572 104.707 333.996 104.515V101.659H336.612V104.539C338.308 104.699 339.724 105.099 340.86 105.739V109.099C339.436 108.075 337.708 107.579 335.676 107.611C333.852 107.643 332.94 108.163 332.94 109.171C332.94 109.555 333.1 109.891 333.42 110.179C333.756 110.451 334.188 110.675 334.716 110.851C335.26 111.027 335.852 111.203 336.492 111.379C337.132 111.555 337.764 111.771 338.388 112.027C339.028 112.283 339.612 112.587 340.14 112.939C340.684 113.275 341.116 113.747 341.436 114.355C341.772 114.963 341.94 115.675 341.94 116.491C341.94 118.059 341.452 119.235 340.476 120.019C339.516 120.803 338.228 121.259 336.612 121.387V124.219ZM347.879 104.779H350.495V118.003H353.231V121.099H343.919V118.003H346.991V108.379L343.919 109.531V106.291L347.879 104.779ZM355.894 104.755H366.262V107.851L359.134 107.827L358.918 111.019C359.686 110.859 360.39 110.779 361.03 110.779C362.79 110.779 364.222 111.203 365.326 112.051C366.446 112.899 367.006 114.211 367.006 115.987C367.006 117.779 366.342 119.139 365.014 120.067C363.686 120.979 362.046 121.435 360.094 121.435C358.11 121.435 356.358 121.067 354.838 120.331V116.995C356.198 117.859 357.814 118.291 359.686 118.291C360.806 118.291 361.702 118.091 362.374 117.691C363.062 117.291 363.406 116.707 363.406 115.939C363.406 114.339 362.078 113.539 359.422 113.539C357.982 113.539 356.614 113.771 355.318 114.235L355.894 104.755ZM370.771 119.083C369.539 117.499 368.923 115.451 368.923 112.939C368.923 110.427 369.539 108.387 370.771 106.819C372.019 105.235 373.883 104.443 376.363 104.443C378.843 104.443 380.699 105.235 381.931 106.819C383.179 108.387 383.803 110.427 383.803 112.939C383.803 115.451 383.179 117.499 381.931 119.083C380.699 120.651 378.843 121.435 376.363 121.435C373.883 121.435 372.019 120.651 370.771 119.083ZM376.363 118.267C378.923 118.267 380.203 116.491 380.203 112.939C380.203 109.387 378.923 107.611 376.363 107.611C373.803 107.611 372.523 109.387 372.523 112.939C372.523 116.491 373.803 118.267 376.363 118.267Z" fill="#111111"/>
<rect x="252.5" y="134.599" width="207" height="95" rx="6.5" fill="white" stroke="#111111"/>
<path d="M278.477 162.099H276.541L281.277 150.899H283.277L287.997 162.099H286.077L285.085 159.683H279.469L278.477 162.099ZM282.061 153.299L280.093 158.083H284.445L282.477 153.299C282.392 153.064 282.323 152.856 282.269 152.675C282.216 152.856 282.147 153.064 282.061 153.299ZM290.678 155.619C291.457 154.68 292.443 154.211 293.638 154.211C294.769 154.211 295.686 154.605 296.39 155.395C297.094 156.173 297.446 157.128 297.446 158.259C297.446 159.389 297.094 160.349 296.39 161.139C295.686 161.917 294.769 162.307 293.638 162.307C292.486 162.307 291.563 161.907 290.87 161.107V165.619H289.158V154.419H290.678V155.619ZM295.03 160.099C295.478 159.619 295.702 159.005 295.702 158.259C295.702 157.512 295.478 156.904 295.03 156.435C294.582 155.955 294.011 155.715 293.318 155.715C292.753 155.715 292.251 155.869 291.814 156.179C291.387 156.488 291.073 156.867 290.87 157.315V159.187C291.073 159.645 291.387 160.029 291.814 160.339C292.251 160.648 292.753 160.803 293.318 160.803C294.011 160.803 294.582 160.568 295.03 160.099ZM300.631 155.619C301.41 154.68 302.396 154.211 303.591 154.211C304.722 154.211 305.639 154.605 306.343 155.395C307.047 156.173 307.399 157.128 307.399 158.259C307.399 159.389 307.047 160.349 306.343 161.139C305.639 161.917 304.722 162.307 303.591 162.307C302.439 162.307 301.516 161.907 300.823 161.107V165.619H299.111V154.419H300.631V155.619ZM304.983 160.099C305.431 159.619 305.655 159.005 305.655 158.259C305.655 157.512 305.431 156.904 304.983 156.435C304.535 155.955 303.964 155.715 303.271 155.715C302.706 155.715 302.204 155.869 301.767 156.179C301.34 156.488 301.026 156.867 300.823 157.315V159.187C301.026 159.645 301.34 160.029 301.767 160.339C302.204 160.648 302.706 160.803 303.271 160.803C303.964 160.803 304.535 160.568 304.983 160.099ZM310.584 155.683C310.883 155.203 311.326 154.829 311.912 154.563C312.499 154.296 313.134 154.195 313.816 154.259V155.939C313.134 155.843 312.515 155.933 311.96 156.211C311.406 156.488 311.011 156.899 310.776 157.443V162.099H309.064V154.419H310.584V155.683ZM315.644 161.235C314.833 160.52 314.428 159.528 314.428 158.259C314.428 156.989 314.833 155.997 315.644 155.283C316.465 154.568 317.447 154.211 318.588 154.211C319.74 154.211 320.721 154.568 321.532 155.283C322.343 155.997 322.748 156.989 322.748 158.259C322.748 159.528 322.343 160.52 321.532 161.235C320.721 161.949 319.74 162.307 318.588 162.307C317.447 162.307 316.465 161.949 315.644 161.235ZM320.332 160.067C320.78 159.608 321.004 159.005 321.004 158.259C321.004 157.512 320.78 156.915 320.332 156.467C319.884 156.008 319.303 155.779 318.588 155.779C317.863 155.779 317.276 156.008 316.828 156.467C316.38 156.915 316.156 157.512 316.156 158.259C316.156 159.005 316.38 159.608 316.828 160.067C317.276 160.515 317.863 160.739 318.588 160.739C319.303 160.739 319.884 160.515 320.332 160.067ZM329.727 154.419H331.599L328.303 162.099H326.495L323.215 154.419H325.071L327.407 160.243L329.727 154.419ZM332.053 158.259C332.053 157.597 332.17 157 332.405 156.467C332.64 155.923 332.949 155.496 333.333 155.187C333.717 154.867 334.133 154.627 334.581 154.467C335.029 154.296 335.482 154.211 335.941 154.211C336.528 154.211 337.056 154.301 337.525 154.483C338.005 154.664 338.389 154.909 338.677 155.219C338.965 155.528 339.2 155.885 339.381 156.291C339.562 156.696 339.658 157.123 339.669 157.571C339.68 158.008 339.642 158.451 339.557 158.899H333.781C333.866 159.549 334.186 160.04 334.741 160.371C335.296 160.691 335.957 160.851 336.725 160.851C337.6 160.851 338.41 160.669 339.157 160.307V161.779C338.421 162.131 337.504 162.307 336.405 162.307C335.157 162.307 334.117 161.955 333.285 161.251C332.464 160.547 332.053 159.549 332.053 158.259ZM338.021 157.619C338.085 157.181 337.952 156.744 337.621 156.307C337.301 155.859 336.768 155.635 336.021 155.635C335.413 155.635 334.89 155.811 334.453 156.163C334.026 156.515 333.797 157 333.765 157.619H338.021ZM345.343 152.099L347.039 151.683V154.419H349.823V155.923H347.039V159.443C347.039 159.933 347.151 160.28 347.375 160.483C347.61 160.685 347.983 160.787 348.495 160.787C349.018 160.787 349.535 160.685 350.047 160.483V161.955C349.428 162.179 348.74 162.291 347.983 162.291C347.194 162.291 346.554 162.083 346.063 161.667C345.583 161.251 345.343 160.616 345.343 159.763V155.923H343.967V154.419H345.343V152.099ZM352.959 155.683C353.258 155.203 353.701 154.829 354.287 154.563C354.874 154.296 355.509 154.195 356.191 154.259V155.939C355.509 155.843 354.89 155.933 354.335 156.211C353.781 156.488 353.386 156.899 353.151 157.443V162.099H351.439V154.419H352.959V155.683ZM363.952 160.323C363.952 160.696 364.139 160.883 364.512 160.883C364.64 160.883 364.811 160.851 365.024 160.787V162.019C364.704 162.147 364.341 162.211 363.936 162.211C363.168 162.211 362.656 161.912 362.4 161.315C361.579 161.976 360.613 162.307 359.504 162.307C358.757 162.307 358.123 162.104 357.6 161.699C357.077 161.283 356.816 160.701 356.816 159.955C356.816 159.059 357.152 158.408 357.824 158.003C358.496 157.587 359.301 157.379 360.24 157.379C360.859 157.379 361.525 157.453 362.24 157.603V157.331C362.24 156.84 362.064 156.445 361.712 156.147C361.36 155.848 360.864 155.699 360.224 155.699C359.275 155.699 358.352 155.896 357.456 156.291V154.723C358.459 154.381 359.44 154.211 360.4 154.211C361.52 154.211 362.389 154.488 363.008 155.043C363.637 155.597 363.952 156.44 363.952 157.571V160.323ZM360.576 158.579C360.011 158.579 359.536 158.68 359.152 158.883C358.768 159.085 358.576 159.405 358.576 159.843C358.576 160.205 358.715 160.488 358.992 160.691C359.269 160.883 359.611 160.979 360.016 160.979C360.891 160.979 361.632 160.675 362.24 160.067V158.771C361.621 158.643 361.067 158.579 360.576 158.579ZM367.725 155.475C368.429 154.632 369.319 154.211 370.397 154.211C371.357 154.211 372.125 154.504 372.701 155.091C373.277 155.667 373.565 156.419 373.565 157.347V162.099H371.853V157.571C371.853 156.973 371.687 156.52 371.357 156.211C371.026 155.891 370.594 155.731 370.061 155.731C369.218 155.731 368.503 156.157 367.917 157.011V162.099H366.205V154.419H367.725V155.475ZM375.211 156.499C375.211 155.72 375.504 155.144 376.091 154.771C376.688 154.397 377.414 154.211 378.267 154.211C379.259 154.211 380.182 154.429 381.035 154.867V156.371C380.715 156.157 380.304 155.981 379.803 155.843C379.302 155.693 378.827 155.619 378.379 155.619C377.984 155.619 377.648 155.688 377.371 155.827C377.094 155.955 376.955 156.163 376.955 156.451C376.955 156.717 377.115 156.941 377.435 157.123C377.755 157.293 378.139 157.443 378.587 157.571C379.046 157.688 379.499 157.832 379.947 158.003C380.395 158.163 380.779 158.413 381.099 158.755C381.419 159.096 381.579 159.528 381.579 160.051C381.579 160.84 381.27 161.416 380.651 161.779C380.032 162.131 379.238 162.307 378.267 162.307C377.062 162.307 376.059 162.061 375.259 161.571V160.051C376.08 160.595 377.056 160.867 378.187 160.867C379.296 160.867 379.851 160.605 379.851 160.083C379.851 159.827 379.691 159.613 379.371 159.443C379.051 159.261 378.662 159.112 378.203 158.995C377.755 158.867 377.302 158.723 376.843 158.563C376.395 158.392 376.011 158.136 375.691 157.795C375.371 157.443 375.211 157.011 375.211 156.499ZM389.671 160.323C389.671 160.696 389.857 160.883 390.231 160.883C390.359 160.883 390.529 160.851 390.743 160.787V162.019C390.423 162.147 390.06 162.211 389.655 162.211C388.887 162.211 388.375 161.912 388.119 161.315C387.297 161.976 386.332 162.307 385.223 162.307C384.476 162.307 383.841 162.104 383.319 161.699C382.796 161.283 382.535 160.701 382.535 159.955C382.535 159.059 382.871 158.408 383.543 158.003C384.215 157.587 385.02 157.379 385.959 157.379C386.577 157.379 387.244 157.453 387.959 157.603V157.331C387.959 156.84 387.783 156.445 387.431 156.147C387.079 155.848 386.583 155.699 385.943 155.699C384.993 155.699 384.071 155.896 383.175 156.291V154.723C384.177 154.381 385.159 154.211 386.119 154.211C387.239 154.211 388.108 154.488 388.727 155.043C389.356 155.597 389.671 156.44 389.671 157.571V160.323ZM386.295 158.579C385.729 158.579 385.255 158.68 384.871 158.883C384.487 159.085 384.295 159.405 384.295 159.843C384.295 160.205 384.433 160.488 384.711 160.691C384.988 160.883 385.329 160.979 385.735 160.979C386.609 160.979 387.351 160.675 387.959 160.067V158.771C387.34 158.643 386.785 158.579 386.295 158.579ZM391.444 158.323C391.444 156.989 391.865 155.971 392.708 155.267C393.55 154.563 394.542 154.211 395.684 154.211C396.601 154.211 397.39 154.408 398.052 154.803V156.371C397.454 155.944 396.745 155.731 395.924 155.731C395.166 155.731 394.521 155.944 393.988 156.371C393.454 156.787 393.188 157.416 393.188 158.259C393.188 159.08 393.449 159.709 393.972 160.147C394.505 160.573 395.145 160.787 395.892 160.787C396.702 160.787 397.449 160.589 398.132 160.195V161.779C397.396 162.131 396.548 162.307 395.588 162.307C394.468 162.307 393.497 161.965 392.676 161.283C391.854 160.589 391.444 159.603 391.444 158.323ZM400.359 152.099L402.055 151.683V154.419H404.839V155.923H402.055V159.443C402.055 159.933 402.167 160.28 402.391 160.483C402.625 160.685 402.999 160.787 403.511 160.787C404.033 160.787 404.551 160.685 405.063 160.483V161.955C404.444 162.179 403.756 162.291 402.999 162.291C402.209 162.291 401.569 162.083 401.079 161.667C400.599 161.251 400.359 160.616 400.359 159.763V155.923H398.983V154.419H400.359V152.099ZM408.199 162.099H406.487V154.419H408.199V162.099ZM408.391 151.923C408.391 152.253 408.289 152.509 408.087 152.691C407.895 152.861 407.649 152.947 407.351 152.947C407.052 152.947 406.801 152.861 406.599 152.691C406.396 152.509 406.295 152.253 406.295 151.923C406.295 151.603 406.396 151.357 406.599 151.187C406.801 151.005 407.052 150.915 407.351 150.915C407.649 150.915 407.895 151.005 408.087 151.187C408.289 151.357 408.391 151.603 408.391 151.923ZM411.113 161.235C410.302 160.52 409.897 159.528 409.897 158.259C409.897 156.989 410.302 155.997 411.113 155.283C411.934 154.568 412.915 154.211 414.057 154.211C415.209 154.211 416.19 154.568 417.001 155.283C417.811 155.997 418.217 156.989 418.217 158.259C418.217 159.528 417.811 160.52 417.001 161.235C416.19 161.949 415.209 162.307 414.057 162.307C412.915 162.307 411.934 161.949 411.113 161.235ZM415.801 160.067C416.249 159.608 416.473 159.005 416.473 158.259C416.473 157.512 416.249 156.915 415.801 156.467C415.353 156.008 414.771 155.779 414.057 155.779C413.331 155.779 412.745 156.008 412.297 156.467C411.849 156.915 411.625 157.512 411.625 158.259C411.625 159.005 411.849 159.608 412.297 160.067C412.745 160.515 413.331 160.739 414.057 160.739C414.771 160.739 415.353 160.515 415.801 160.067ZM421.397 155.475C422.101 154.632 422.991 154.211 424.069 154.211C425.029 154.211 425.797 154.504 426.373 155.091C426.949 155.667 427.237 156.419 427.237 157.347V162.099H425.525V157.571C425.525 156.973 425.359 156.52 425.029 156.211C424.698 155.891 424.266 155.731 423.733 155.731C422.89 155.731 422.175 156.157 421.589 157.011V162.099H419.877V154.419H421.397V155.475ZM432.113 158.611H430.449C430.449 158.227 430.539 157.848 430.721 157.475C430.913 157.091 431.142 156.749 431.409 156.451C431.675 156.141 431.942 155.843 432.209 155.555C432.475 155.256 432.699 154.952 432.881 154.643C433.073 154.333 433.169 154.035 433.169 153.747C433.169 152.819 432.449 152.355 431.009 152.355C430.059 152.355 429.126 152.627 428.209 153.171V151.507C429.179 150.963 430.209 150.691 431.297 150.691C432.385 150.691 433.275 150.92 433.969 151.379C434.662 151.837 435.009 152.525 435.009 153.443C435.009 153.944 434.854 154.451 434.545 154.963C434.246 155.475 433.915 155.907 433.553 156.259C433.201 156.611 432.87 157 432.561 157.427C432.262 157.853 432.113 158.248 432.113 158.611ZM432.369 161.219C432.369 161.56 432.267 161.821 432.065 162.003C431.862 162.184 431.606 162.275 431.297 162.275C430.987 162.275 430.726 162.184 430.513 162.003C430.31 161.821 430.209 161.56 430.209 161.219C430.209 160.888 430.31 160.637 430.513 160.467C430.726 160.285 430.987 160.195 431.297 160.195C431.606 160.195 431.862 160.285 432.065 160.467C432.267 160.637 432.369 160.888 432.369 161.219Z" fill="#111111"/>
<circle cx="356" cy="74.0986" r="19.5" fill="white" stroke="#111111"/>
<path fill-rule="evenodd" clip-rule="evenodd" d="M350.949 64.7833C347.984 66.2694 345.471 67.5347 345.366 67.5953C345.016 67.797 344.925 68.1486 345.059 68.7815C345.21 69.4921 345.592 70.2306 346.191 70.9686C346.627 71.505 346.741 71.5675 347.285 71.5675H347.692V76.3102V81.0528H347.28C346.749 81.0528 346.613 81.1291 346.172 81.6744C345.588 82.3978 345.208 83.1365 345.059 83.8388C344.926 84.4672 345.019 84.8374 345.354 85.0081C345.53 85.0981 345.595 85.0986 356.499 85.0986C367.403 85.0986 367.468 85.0981 367.645 85.0081C367.979 84.8374 368.072 84.4672 367.939 83.8388C367.789 83.1282 367.406 82.3897 366.807 81.6518C366.371 81.1154 366.257 81.0528 365.713 81.0528H365.307V76.3102V71.5675H365.713C366.257 71.5675 366.371 71.505 366.807 70.9686C367.406 70.2306 367.789 69.4921 367.939 68.7815C368.031 68.349 368.019 68.0707 367.901 67.8588C367.803 67.6838 367.652 67.6044 362.273 64.8986C357.97 62.7338 356.702 62.1141 356.544 62.0998C356.352 62.0824 356.067 62.2192 350.949 64.7833ZM360.499 65.5212L364.475 67.5167H356.499H348.523L352.5 65.5212C354.687 64.4237 356.487 63.5257 356.499 63.5257C356.512 63.5257 358.311 64.4237 360.499 65.5212ZM366.431 69.0716C366.333 69.3004 366.091 69.6912 365.854 70.0054L365.693 70.2189H356.499H347.306L347.144 70.0054C346.907 69.6912 346.666 69.3004 346.568 69.0716L346.481 68.8703H356.499H366.517L366.431 69.0716ZM350.388 76.3102V81.0528H349.714H349.04V76.3102V71.5675H349.714H350.388V76.3102ZM354.477 76.3102V81.0528H353.106H351.736V76.3102V71.5675H353.106H354.477V76.3102ZM357.173 76.3102V81.0528H356.499H355.825V76.3102V71.5675H356.499H357.173V76.3102ZM361.262 76.3102V81.0528H359.892H358.521V76.3102V71.5675H359.892H361.262V76.3102ZM363.959 76.3102V81.0528H363.285H362.611V76.3102V71.5675H363.285H363.959V76.3102ZM365.854 82.6149C366.091 82.9292 366.333 83.3199 366.431 83.5488L366.517 83.75H356.497H346.477L346.547 83.5814C346.633 83.3769 346.923 82.9056 347.144 82.6149L347.306 82.4014H356.499H365.693L365.854 82.6149Z" fill="#111111"/>
<circle cx="383" cy="198.099" r="15.5" fill="white" stroke="#111111"/>
<path fill-rule="evenodd" clip-rule="evenodd" d="M377.432 192.129C377.24 192.198 377.099 192.339 377.031 192.53C376.985 192.658 376.99 192.795 377.046 192.949C377.093 193.077 377.204 193.192 379.572 195.563L382.048 198.043L379.572 200.523C377.177 202.921 377.094 203.007 377.044 203.142C376.857 203.649 377.338 204.13 377.845 203.943C377.98 203.893 378.066 203.81 380.464 201.415L382.943 198.938L385.423 201.415C387.821 203.81 387.907 203.893 388.042 203.943C388.436 204.088 388.846 203.829 388.883 203.411C388.891 203.313 388.881 203.247 388.843 203.142C388.793 203.007 388.71 202.921 386.315 200.523L383.838 198.043L386.315 195.563C388.71 193.165 388.793 193.079 388.843 192.944C389.03 192.436 388.549 191.955 388.042 192.143C387.907 192.192 387.821 192.276 385.423 194.671L382.943 197.148L380.464 194.671C378.093 192.303 377.978 192.192 377.85 192.145C377.697 192.089 377.559 192.084 377.432 192.129Z" fill="#111111"/>
<circle cx="329" cy="198.099" r="15.5" fill="white" stroke="#111111"/>
<path fill-rule="evenodd" clip-rule="evenodd" d="M334.052 193.16C333.942 193.22 333.425 193.805 330.336 197.364L326.747 201.498L325.342 199.882C324.569 198.993 323.9 198.244 323.856 198.217C323.741 198.148 323.458 198.148 323.337 198.217C323.212 198.289 323.114 198.41 323.047 198.577C322.978 198.751 322.985 198.959 323.066 199.145C323.138 199.312 326.334 202.995 326.479 203.079C326.535 203.111 326.641 203.144 326.714 203.152C326.824 203.163 326.869 203.153 326.983 203.094C327.106 203.029 327.478 202.609 330.945 198.613C334.411 194.618 334.776 194.189 334.832 194.047C334.884 193.916 334.892 193.864 334.882 193.737C334.854 193.381 334.629 193.127 334.32 193.102C334.204 193.092 334.157 193.103 334.052 193.16Z" fill="#111111"/>
</svg>
