<svg width="1280" height="331" viewBox="0 0 1280 331" fill="none" xmlns="http://www.w3.org/2000/svg">
<path d="M1094.37 154.002C1093.24 152.388 1092.01 150.838 1090.66 149.363C1079.69 137.337 1065.33 132.248 1048.94 128.838C1032.01 125.317 1012.18 124.223 995.923 130.57C992.096 132.081 988.46 134.076 985.584 136.796C974.706 147.045 970.974 164.209 958.861 177.776C946.748 191.343 940.84 208.244 951.714 224.286C956.317 231.081 962.186 236.678 969.129 241.604C977.677 247.649 985.051 255.827 994.932 260.557C1005.32 265.526 1019.14 267.258 1030.64 264.982C1043.75 262.386 1051.44 252.062 1061.44 245.035C1069.33 239.486 1078.77 235.853 1086.5 230.129C1098.35 221.364 1107.33 207.262 1105.84 193.289C1104.37 179.725 1102.49 165.629 1094.37 154.002Z" fill="#F9F8FE"/>
<path fill-rule="evenodd" clip-rule="evenodd" d="M1056.23 133.649C1055 133.779 1054.06 134.156 1053.02 134.931C1052.44 135.371 1042.55 143.576 1031.05 153.165L1010.14 170.6L990.903 178.252C976.45 184.001 971.46 186.087 970.849 186.637C970.401 187.039 969.808 187.883 969.531 188.511C968.542 190.75 968.36 190.19 977.638 213.434C982.315 225.152 986.341 235.079 986.583 235.493C987.53 237.109 989.633 238.219 991.559 238.118C992.145 238.088 995.058 237.083 998.573 235.699C1001.88 234.398 1004.7 233.292 1004.85 233.242C1005 233.192 1006.03 234.236 1007.14 235.561C1009.58 238.47 1009.96 238.805 1011.43 239.28C1013.04 239.803 1014.72 239.575 1016.09 238.647C1016.69 238.244 1022.11 233.804 1028.14 228.781L1039.09 219.648L1041.66 218.575C1043.07 217.985 1052.43 214.251 1062.45 210.278C1072.48 206.305 1081.14 202.787 1081.71 202.461C1082.28 202.135 1083.01 201.508 1083.34 201.068C1084.05 200.104 1084.55 198.033 1084.34 196.905C1084.26 196.465 1083.3 193.854 1082.21 191.105C1081.12 188.355 1080.2 185.962 1080.17 185.787C1080.15 185.612 1082.29 183.672 1084.94 181.473C1088.86 178.22 1089.87 177.265 1090.36 176.34C1091.38 174.446 1091.23 172.467 1089.92 170.558C1089.55 170.015 1083.55 162.774 1076.59 154.468C1069.63 146.163 1063.18 138.463 1062.25 137.358C1061.33 136.254 1060.28 135.109 1059.92 134.814C1059.18 134.205 1057.12 133.555 1056.23 133.649ZM1058.31 138.049C1058.78 138.521 1065.52 146.515 1073.28 155.812C1082.4 166.723 1087.47 172.963 1087.57 173.412C1087.71 173.996 1087.67 174.218 1087.28 174.803C1086.82 175.495 1079.04 182.142 1078.74 182.098C1078.66 182.085 1076.03 175.656 1072.9 167.81C1069.77 159.964 1067.05 153.261 1066.86 152.915C1065.95 151.315 1063.21 150.063 1061.37 150.407C1060.49 150.571 1043.98 157.04 1043.03 157.592C1041.85 158.285 1042.14 160.347 1043.47 160.63C1043.78 160.697 1044.87 160.423 1045.89 160.021L1047.74 159.29L1048.75 160.845C1052.8 167.106 1060.1 170.259 1067.56 168.974L1069.59 168.624L1072.52 176.027L1075.45 183.429L1074.11 184.273C1071.32 186.025 1068.82 188.792 1067.28 191.828C1066.73 192.904 1066.38 194.057 1065.93 196.177C1065.26 199.336 1065.24 200.928 1065.83 203.626L1066.16 205.165L1052.29 210.673C1044.66 213.702 1031.18 219.063 1022.32 222.587C1013.46 226.11 1006.08 229.017 1005.92 229.046C1005.77 229.076 1005.19 228.411 1004.65 227.569C1000.61 221.328 992.56 217.995 985.447 219.618L983.944 219.96L980.948 212.492L977.951 205.023L979.047 204.394C983.294 201.957 986.425 197.563 987.539 192.478C988.162 189.632 988.199 187.745 987.683 185.015C987.506 184.076 987.387 183.298 987.419 183.284C987.452 183.271 998.203 179.009 1011.31 173.812C1024.42 168.616 1035.49 164.125 1035.92 163.833C1036.77 163.242 1036.91 162.483 1036.33 161.566C1035.7 160.565 1035.09 160.712 1027.75 163.612C1023.86 165.153 1020.68 166.363 1020.69 166.302C1020.74 166.088 1054.68 137.866 1055.45 137.396C1056.46 136.787 1057.25 136.966 1058.31 138.049ZM1063.58 154.351C1063.82 154.566 1064.97 157.131 1066.13 160.051L1068.23 165.359L1067.02 165.631C1061.47 166.879 1055.07 164.171 1051.72 159.155L1050.95 158.01L1056.45 155.849C1062.07 153.634 1062.62 153.519 1063.58 154.351ZM1059.41 179.427C1054.52 181.398 1054.45 181.436 1054.2 182.263C1053.88 183.339 1054.26 184.05 1055.28 184.269C1055.87 184.395 1057.07 184.013 1060.94 182.479C1065.11 180.824 1065.9 180.432 1066.15 179.897C1066.63 178.837 1066.05 177.746 1064.88 177.526C1064.59 177.472 1062.13 178.328 1059.41 179.427ZM1027.54 171.949C1018.58 171.734 1010.72 176.432 1006.69 184.407C1005.26 187.252 1004.3 191.469 1004.39 194.538C1004.62 201.918 1008.29 208.716 1014.23 212.733C1015.95 213.897 1018.03 214.871 1018.75 214.846C1019.78 214.81 1020.67 213.011 1020.04 212.235C1019.93 212.094 1019.08 211.589 1018.16 211.115C1008.38 206.06 1004.89 193.984 1010.49 184.544C1012.03 181.94 1013.75 180.202 1016.57 178.407C1020.86 175.675 1024.74 174.852 1029.72 175.62C1038.71 177.009 1045.43 184.729 1045.65 193.917C1045.72 196.886 1044.69 200.95 1043.24 203.49C1040.23 208.741 1034.97 212.286 1029.13 212.99C1027.31 213.21 1026.81 213.513 1026.6 214.534C1026.22 216.301 1027.54 216.807 1030.9 216.181C1036.09 215.213 1040.91 212.267 1044.23 208.026C1046.76 204.803 1047.4 203.385 1048.39 198.795C1049.16 195.203 1049.21 194.761 1049.04 192.839C1048.31 184.592 1043.79 177.88 1036.45 174.17C1034.3 173.085 1029.98 172.007 1027.54 171.949ZM1078.96 192.139C1081.11 197.584 1081.25 198.252 1080.45 199.193C1080.01 199.718 1069.48 203.868 1069.3 203.588C1069.22 203.464 1069.05 202.506 1068.92 201.457C1068.71 199.769 1068.76 199.235 1069.28 196.78C1069.81 194.322 1069.99 193.822 1070.87 192.368C1071.42 191.466 1072.33 190.236 1072.9 189.634C1074.02 188.455 1076.32 186.691 1076.65 186.763C1076.76 186.787 1077.8 189.206 1078.96 192.139ZM1020.54 179.622C1019.68 180.04 1019.44 180.993 1019.9 182.072L1020.24 182.848L1019.19 184.043C1018.23 185.142 1018.11 185.389 1017.74 187.123C1017.42 188.628 1017.4 189.212 1017.63 190.014C1018.34 192.501 1020.39 194.118 1023.34 194.522L1024.94 194.741L1026.58 198.802C1027.6 201.329 1028.12 202.926 1027.97 203.027C1027.83 203.117 1027.05 203.159 1026.24 203.121C1025.43 203.082 1024.54 203.045 1024.27 203.038C1023.67 203.022 1022.94 204.02 1022.97 204.82C1022.98 205.143 1023.21 205.631 1023.49 205.907C1023.92 206.349 1024.19 206.421 1025.77 206.526C1026.76 206.592 1028.01 206.528 1028.55 206.385L1029.52 206.124L1029.84 207.002C1030.38 208.512 1031.36 208.985 1032.47 208.267C1033.31 207.723 1033.48 206.933 1033 205.758C1032.66 204.915 1032.67 204.794 1033.05 204.447C1034.68 202.986 1035.16 202.154 1035.63 200.002C1036.06 198.001 1036.05 197.816 1035.59 196.284C1035.04 194.464 1034 193.08 1032.67 192.389C1032.13 192.112 1030.89 191.788 1029.48 191.559L1027.17 191.183L1025.96 188.159C1025.3 186.495 1024.84 185.05 1024.94 184.948C1025.04 184.845 1025.6 184.865 1026.19 184.991C1027.62 185.297 1028.4 184.91 1028.64 183.777C1028.93 182.45 1028.32 181.883 1026.34 181.612C1025.48 181.493 1024.45 181.464 1024.07 181.548C1023.46 181.684 1023.36 181.649 1023.23 181.224C1022.75 179.642 1021.73 179.038 1020.54 179.622ZM1022.59 188.858L1023.5 191.141L1022.65 190.959C1021.48 190.708 1020.8 189.6 1020.94 188.184C1021.03 187.217 1021.31 186.496 1021.56 186.55C1021.62 186.564 1022.08 187.602 1022.59 188.858ZM984.422 186.186C985.284 191.861 982.95 197.494 978.424 200.663L976.737 201.844L974.648 196.705C973.499 193.879 972.52 191.263 972.474 190.892C972.301 189.511 972.871 189.127 978.473 186.849C981.338 185.684 983.802 184.747 983.948 184.769C984.094 184.79 984.307 185.427 984.422 186.186ZM1031.75 196.06C1032.74 197.49 1032.74 199.508 1031.75 200.909L1031.33 201.511L1030.09 198.397C1028.44 194.266 1028.44 194.432 1029.96 194.891C1030.95 195.189 1031.31 195.428 1031.75 196.06ZM993.165 205.771C987.595 207.952 987.381 208.068 987.179 209.008C987.005 209.818 987.657 210.827 988.466 211C988.949 211.104 998.293 207.523 998.913 206.996C999.293 206.674 999.512 205.96 999.418 205.356C999.358 204.974 998.451 204.095 998.021 204.003C997.9 203.977 995.715 204.773 993.165 205.771ZM1025.74 226.353C1024.06 227.747 1020.81 230.44 1018.52 232.338C1016.24 234.235 1014.12 235.894 1013.81 236.024C1013.14 236.304 1012.29 236.144 1011.73 235.636C1011.51 235.434 1010.69 234.509 1009.91 233.582C1008.97 232.463 1008.58 231.837 1008.76 231.722C1009.19 231.445 1028.43 223.763 1028.62 223.792C1028.71 223.807 1027.42 224.959 1025.74 226.353ZM995.454 223.979C997.527 224.898 999.99 226.913 1001.28 228.741C1001.86 229.577 1002.33 230.334 1002.31 230.425C1002.24 230.737 991.489 234.842 991.007 234.738C989.837 234.487 989.444 233.823 987.356 228.561C986.204 225.659 985.336 223.208 985.425 223.115C985.599 222.934 988.869 222.543 989.837 222.587C991.17 222.648 994.077 223.368 995.454 223.979Z" fill="#8A86B2"/>
<path d="M137.535 22.9272C131.628 16.8745 124.786 11.892 117.291 8.18684C106.128 2.7691 93.8203 0.160965 81.5342 0.00345137C45.5972 -0.447111 42.861 43.3564 31.8106 49.4554C20.7601 55.5545 0.742116 56.2652 0.0360154 80.6248C-0.398237 95.9476 3.05107 111.706 12.7458 123.644C21.625 134.579 34.6667 140.128 47.5178 144.213C61.9505 148.814 77.2552 153.323 92.4364 150.22C108.016 147.037 118.961 134.238 131.752 125.589C139.809 120.142 147.039 114.41 152.014 105.67C152.607 104.629 153.165 103.56 153.694 102.479C160.353 88.9035 161.659 73.24 157.987 58.5473C154.697 45.3491 147.258 32.7956 137.535 22.9272Z" fill="#F9F8FE"/>
<path fill-rule="evenodd" clip-rule="evenodd" d="M90.8004 33.5362C88.2033 33.2916 85.4565 34.3996 83.578 36.4495L82.6498 37.4626L65.0247 85.0592L47.3995 132.656L47.444 134.029C47.5362 136.86 48.9033 139.451 51.1167 140.989C52.8007 142.16 99.8989 159.6 101.939 159.809C104.621 160.083 107.346 159.007 109.259 156.919L110.187 155.906L127.813 108.31L145.438 60.7131L145.393 59.3399C145.301 56.5091 143.934 53.9181 141.721 52.3796C140.089 51.2451 92.7231 33.7173 90.8004 33.5362ZM140.581 55.8544C141.12 56.451 141.609 57.311 141.806 58.0109L142.135 59.1754L140.999 62.4521L139.863 65.7292L111.738 55.3145L83.6131 44.8997L84.8856 41.6733L86.1578 38.4469L87.1653 37.7772C87.7708 37.3745 88.7018 37.0402 89.4999 36.939L90.8272 36.7705L115.255 45.8163L139.683 54.8621L140.581 55.8544ZM106.859 46.5942C106.14 46.7087 105.9 46.9187 105.611 47.6882C105.186 48.8177 106.086 49.9603 107.28 49.808C108.067 49.7076 108.314 49.5092 108.595 48.7502C108.873 47.9998 108.817 47.6791 108.314 47.122C107.85 46.6089 107.52 46.4893 106.859 46.5942ZM113.245 48.9587C112.531 49.0721 112.285 49.2837 112.013 50.0161C111.494 51.4195 111.958 51.7956 116.103 53.3306C120.248 54.8656 120.845 54.8825 121.365 53.4791C121.887 52.071 121.425 51.6996 117.234 50.1564C115.047 49.3515 113.568 48.9072 113.245 48.9587ZM125.686 103.922L112.711 138.96L90.0298 130.561C67.1874 122.102 66.7311 121.949 65.9964 122.477C65.6833 122.703 65.2646 123.833 65.3555 124.208C65.5687 125.088 66.0147 125.268 88.8663 133.73L111.557 142.132L109.118 148.527L106.68 154.921L105.672 155.591C105.066 155.994 104.136 156.328 103.337 156.43L102.01 156.598L77.582 147.553L53.1539 138.507L52.2565 137.515C51.7165 136.917 51.2284 136.058 51.031 135.358L50.7028 134.193L53.0172 127.753L55.3314 121.312L57.8019 122.227C60.9074 123.377 61.6108 123.343 62.1011 122.019C62.591 120.696 62.079 120.211 58.9832 119.064L56.5215 118.153L69.4961 83.1148L82.4707 48.0769L110.566 58.4805L138.661 68.8842L125.686 103.922ZM79.9287 134.681C79.1294 134.782 78.2004 135.116 77.5937 135.52C76.6572 136.143 76.54 136.314 75.9369 137.943C75.3338 139.572 75.3111 139.778 75.6159 140.861C76.0435 142.38 77.375 143.876 78.7544 144.387C80.1338 144.897 82.1184 144.629 83.4323 143.755C84.3688 143.132 84.486 142.961 85.0891 141.332C85.6921 139.703 85.7148 139.497 85.4101 138.414C84.9825 136.895 83.651 135.399 82.2716 134.888C81.5752 134.63 80.8387 134.565 79.9287 134.681ZM81.7151 138.559C82.2189 139.116 82.2741 139.436 81.9963 140.187C81.7152 140.946 81.4687 141.144 80.682 141.245C79.4878 141.397 78.5878 140.254 79.0123 139.125C79.3016 138.355 79.5413 138.145 80.2609 138.031C80.9217 137.926 81.2511 138.045 81.7151 138.559Z" fill="#8A86B2"/>
<path d="M324.369 143.258C323.244 141.513 322.006 139.839 320.662 138.245C309.685 125.25 295.334 119.751 278.94 116.067C262.007 112.262 242.181 111.08 225.923 117.938C222.096 119.571 218.46 121.727 215.584 124.666C204.706 135.74 200.974 154.286 188.861 168.947C176.748 183.607 170.84 201.869 181.714 219.204C186.317 226.545 192.186 232.593 199.129 237.916C207.677 244.448 215.051 253.285 224.932 258.396C235.315 263.765 249.144 265.636 260.637 263.177C273.747 260.372 281.436 249.216 291.443 241.623C299.333 235.627 308.773 231.702 316.503 225.516C328.348 216.046 337.33 200.807 335.838 185.71C334.372 171.053 332.486 155.821 324.369 143.258Z" fill="#F9F8FE"/>
<path fill-rule="evenodd" clip-rule="evenodd" d="M229.801 147.139C227.654 148.314 226.122 150.331 225.684 152.557C225.453 153.734 225.459 153.797 226.026 156.113L226.604 158.471L224.365 159.153C222.663 159.673 221.907 159.979 221.213 160.431C218.997 161.871 217.585 164.476 217.523 167.238C217.505 168.054 218.297 171.102 225.455 197.761L233.408 227.377L233.922 227.973C235.038 229.267 237.23 229.308 238.307 228.057C238.699 227.6 240.262 225.243 242.611 221.565L242.92 221.08L247.255 223.265C249.639 224.467 251.849 225.485 252.166 225.528C253.689 225.734 254.226 225.204 257.244 220.511C259.497 217.009 259.814 216.586 260.089 216.717C260.26 216.798 262.23 217.8 264.469 218.943C268.972 221.243 269.371 221.356 270.569 220.669C271.329 220.233 271.168 220.447 274.161 215.876C275.501 213.829 276.653 212.139 276.722 212.121C276.791 212.102 278.497 212.947 280.514 213.999C282.531 215.05 284.306 215.942 284.458 215.981C284.61 216.02 285.034 215.976 285.4 215.883C286.292 215.658 286.938 214.949 287.119 213.996C287.255 213.274 287.196 213.011 285.411 206.362L283.562 199.477L284.023 198.916C284.414 198.441 284.528 198.377 284.778 198.498C284.94 198.576 286.58 199.413 288.424 200.357C290.267 201.301 292.024 202.108 292.327 202.151C293.683 202.339 294.832 201.577 295.163 200.268C295.328 199.619 295.32 199.591 287.274 169.626C279.994 142.514 279.175 139.56 278.747 138.861C277.51 136.839 275.193 135.564 272.76 135.565C271.496 135.565 231.025 146.469 229.801 147.139ZM273.561 139.44C274.445 139.629 275.423 140.42 275.763 141.221C275.908 141.562 279.376 154.393 283.469 169.734L290.911 197.627L287.647 195.929C284.22 194.145 283.875 194.047 282.819 194.555L282.307 194.802L276.784 174.234C272.957 159.982 271.142 153.427 270.873 152.891C269.563 150.277 266.702 148.513 264.002 148.655C263.394 148.687 258.27 150.008 246.643 153.13L230.147 157.559L229.705 155.647C229.394 154.3 229.299 153.578 229.385 153.204C229.576 152.377 230.223 151.424 230.966 150.876C231.622 150.391 232.303 150.198 252.254 144.833C272.66 139.346 272.872 139.292 273.561 139.44ZM264.968 152.504C265.826 152.69 266.372 153.047 267.054 153.869L267.615 154.545L275.271 182.888C280.148 200.943 282.867 211.226 282.764 211.218C282.675 211.211 281.299 210.492 279.706 209.622C278.113 208.751 276.606 208.018 276.357 207.993C275.732 207.929 275.073 208.127 274.54 208.541C274.186 208.815 271.076 213.392 269.133 216.496L268.842 216.963L264.733 214.827C260.54 212.647 260.131 212.477 259.176 212.524C257.944 212.585 257.539 213.028 254.736 217.382L252.112 221.458L248.009 219.371C245.752 218.224 243.576 217.205 243.174 217.108C242.285 216.893 241.379 217.115 240.645 217.727C240.348 217.975 239.336 219.345 238.397 220.773C237.457 222.2 236.596 223.496 236.484 223.652C236.291 223.92 235.834 222.269 228.725 195.642L221.171 167.348L221.375 166.441C221.616 165.371 222.341 164.241 223.142 163.688C223.633 163.349 226.637 162.506 244.016 157.828C263.681 152.534 264.338 152.368 264.968 152.504ZM235.735 174.51C235.19 174.884 234.777 175.885 234.932 176.461C235.09 177.047 235.713 177.687 236.282 177.847C236.746 177.977 237.433 177.82 243.09 176.299C247.778 175.039 249.464 174.533 249.702 174.316C250.754 173.358 250.383 171.573 249.033 171.101C248.606 170.951 247.989 171.086 242.39 172.557C237.868 173.746 236.09 174.267 235.735 174.51ZM238.933 186.419C238.387 186.792 237.975 187.792 238.13 188.369C238.287 188.956 238.911 189.596 239.48 189.755C239.954 189.888 240.954 189.642 251.862 186.713L263.728 183.527L264.086 183.011C264.837 181.93 264.457 180.567 263.282 180.126L262.698 179.907L251.058 182.998C242.281 185.329 239.298 186.17 238.933 186.419ZM242.305 198.226C241.737 198.537 241.495 198.862 241.356 199.503C241.219 200.137 241.338 200.549 241.824 201.121C242.587 202.019 241.971 202.136 255.066 198.619L266.925 195.435L267.284 194.919C268.034 193.838 267.655 192.475 266.48 192.034L265.896 191.815L254.334 194.893C247.975 196.585 242.562 198.085 242.305 198.226Z" fill="#8A86B2"/>
<path d="M545.073 228.311C548.649 208.064 528.206 193.641 515.209 193.668C485.954 193.731 472.575 210.883 461.834 206.444C448.749 201.016 464.121 168.557 449.803 154.465C440.445 145.255 427.464 146.129 409.768 160.403C385.108 180.307 372.595 202.598 373.296 216.72C374.728 245.548 401.967 267.777 417.227 279.174C429.827 288.59 442.657 308.222 479.004 300.861C500.461 296.517 538.181 267.354 545.073 228.311Z" fill="#F9F8FE"/>
<path fill-rule="evenodd" clip-rule="evenodd" d="M484.152 181.879C483.677 182.255 483.476 182.555 483.431 182.953C483.387 183.351 483.517 183.688 483.898 184.159L484.425 184.813L487.977 185.209L491.528 185.606L481.938 193.191L472.348 200.776L469.23 196.933C466.116 193.095 466.111 193.089 465.338 193.003L464.564 192.916L446.703 207.058C434.311 216.869 428.806 221.331 428.726 221.625C428.409 222.8 429.014 223.756 430.158 223.884L430.874 223.963L447.881 210.517L464.888 197.07L467.958 200.85C471.027 204.63 471.48 205.046 472.356 204.89C472.586 204.849 477.462 201.117 483.19 196.597L493.605 188.378L493.297 191.227C492.938 194.554 493.012 195.155 493.856 195.731C494.552 196.206 495.214 196.173 495.904 195.627L496.372 195.257L497.001 189.623C497.395 186.09 497.576 183.858 497.487 183.637C497.141 182.783 496.75 182.69 490.597 182.004L484.811 181.358L484.152 181.879ZM479.878 206.882C478.771 207.237 477.86 207.947 477.243 208.936L476.734 209.753L473.604 237.783L470.475 265.812L465.588 265.267L460.701 264.722L462.41 249.39C463.516 239.476 464.082 233.826 464.013 233.401C463.831 232.295 463.033 231.048 462.058 230.347L461.162 229.704L455.577 229.081C450.18 228.479 449.967 228.468 449.243 228.754C448.229 229.154 447.299 229.919 446.748 230.807C446.293 231.538 446.278 231.648 444.502 247.129L442.714 262.715L437.93 262.181L433.145 261.647L434.011 253.392C434.871 245.2 434.875 245.13 434.573 244.228C434.154 242.981 433.309 241.967 432.243 241.431C431.429 241.021 430.919 240.934 426.328 240.422C420.79 239.804 420.29 239.821 418.976 240.669C418.589 240.919 418.016 241.463 417.703 241.878L417.133 242.632L416.133 251.135L415.134 259.637L412.95 259.394C410.077 259.073 409.35 259.331 409.194 260.723C409.113 261.446 409.32 261.904 409.9 262.287C410.324 262.568 415.137 263.136 451.239 267.164C487.341 271.193 492.161 271.7 492.637 271.519C493.287 271.273 493.589 270.872 493.67 270.15C493.824 268.768 493.165 268.344 490.381 268.034L488.277 267.799L491.403 239.769L494.529 211.739L494.216 210.83C493.819 209.678 493.225 208.942 492.177 208.305C491.365 207.812 491.25 207.791 486.026 207.21C481.048 206.657 480.649 206.636 479.878 206.882ZM490.701 211.514C490.977 211.823 490.867 212.922 487.887 239.622L484.787 267.409L479.376 266.806L473.965 266.202L477.063 238.445C479.918 212.859 480.185 210.666 480.484 210.404C480.783 210.143 481.18 210.162 485.611 210.657C489.835 211.128 490.448 211.231 490.701 211.514ZM423.564 225.893C423.351 225.91 422.952 226.102 422.677 226.319C421.56 227.202 422.128 229.109 423.555 229.269C425.392 229.474 426.225 227.021 424.619 226.137C424.309 225.966 424.032 225.834 424.004 225.844C423.975 225.854 423.777 225.876 423.564 225.893ZM460.253 233.394L460.615 233.815L458.913 249.073L457.21 264.332L451.712 263.719L446.214 263.105L447.911 247.895L449.609 232.685L450.084 232.308L450.56 231.932L455.226 232.453C459.776 232.96 459.9 232.984 460.253 233.394ZM430.91 244.704L431.268 245.016L430.363 253.126L429.459 261.236L424.048 260.632L418.637 260.028L419.534 251.995C420.404 244.192 420.441 243.953 420.818 243.655C421.186 243.364 421.438 243.375 425.879 243.87C429.827 244.311 430.608 244.44 430.91 244.704Z" fill="#8A86B2"/>
<path d="M879.5 307.5C865.706 322.746 845.052 312.736 833.821 305.172C817.052 293.878 805.095 280.259 795 274.5C782.685 267.498 772.096 287.5 752.183 284.839C739.169 283.101 731.895 272.313 732.31 249.582C732.897 217.897 742.823 194.34 754.404 186.228C778.047 169.673 812.312 177.544 830.675 182.602C845.842 186.774 871.513 182.781 888 216C897.735 235.609 906.103 278.103 879.5 307.5Z" fill="#F9F8FE"/>
<path fill-rule="evenodd" clip-rule="evenodd" d="M771.382 198.5C769.546 199.769 768.488 202.151 768.771 204.378C768.867 205.135 771.134 211.786 777.477 229.92L786.053 254.437L786.882 255.257C787.902 256.266 789.545 257.071 790.71 257.133C791.604 257.18 791.637 257.207 792.32 258.478C793.157 260.034 795.492 261.418 797.27 261.412C798.342 261.409 796.502 261.814 837.93 252.458C861.337 247.172 870.367 245.069 871.099 244.732C873.123 243.801 874.554 241.79 874.764 239.58C874.855 238.63 874.388 236.621 868.704 213.485C864.704 197.203 862.403 188.132 862.138 187.601C861.279 185.874 859.127 184.361 857.215 184.137C856.697 184.076 855.5 184.19 854.452 184.4C853.434 184.603 852.343 184.816 852.026 184.873L851.45 184.976L849.948 180.887C848.585 177.179 848.378 176.721 847.721 175.953C846.706 174.766 845.327 174.042 843.698 173.84L842.342 173.672L807.215 185.842C779.573 195.419 771.938 198.116 771.382 198.5ZM843.383 176.954C843.882 177.021 844.551 177.274 844.87 177.517C845.433 177.945 846.268 179.366 846.37 180.069C846.42 180.409 845.491 180.741 809.442 193.311L772.463 206.206L772.081 204.895C771.747 203.751 771.736 203.477 771.998 202.737C772.162 202.271 772.517 201.661 772.786 201.381C773.247 200.9 775.278 200.175 807.875 188.852L842.475 176.833L843.383 176.954ZM849.102 187.842L850.638 192.263L813.617 205.123L776.597 217.983L775.061 213.561L773.525 209.14L810.545 196.28L847.566 183.42L849.102 187.842ZM854.768 187.237C856.833 186.675 857.54 186.78 858.585 187.806L859.281 188.489L865.475 213.678C872.455 242.063 872.033 239.834 870.689 241.242L869.995 241.969L856.819 244.948C803.6 256.98 797.843 258.256 797.213 258.166C796.453 258.056 795.434 257.422 795.033 256.809L794.75 256.375L828.869 244.473L862.988 232.571L863.669 231.914C865.165 230.471 865.859 228.366 865.536 226.249C865.422 225.508 863.302 219.21 858.871 206.455C852.712 188.722 852.391 187.747 852.706 187.728C852.889 187.716 853.817 187.495 854.768 187.237ZM857.15 211.134C862.116 225.572 862.618 227.118 862.522 227.68C862.384 228.483 861.973 229.249 861.442 229.694C861.147 229.941 850.5 233.702 826.404 242.072C792.229 253.944 791.78 254.095 790.965 253.997C790.512 253.942 789.846 253.677 789.485 253.408L788.829 252.918L783.222 236.926L777.615 220.933L814.643 208.07L851.671 195.208L857.15 211.134ZM783.387 225.919C782.813 226.814 783.224 227.955 784.242 228.292C784.501 228.378 786.241 227.836 791.028 226.178C797.282 224.011 797.475 223.933 797.797 223.43C798.211 222.785 797.917 221.742 797.196 221.294L796.723 220.999L790.219 223.204C783.89 225.348 783.706 225.421 783.387 225.919ZM801.285 219.513C800.542 220.161 800.876 221.698 801.832 222.028C802.398 222.223 802.597 222.165 808.848 219.988C815.779 217.573 815.703 217.611 815.734 216.552C815.755 215.839 815.367 215.284 814.685 215.048C814.152 214.865 813.858 214.951 807.87 217.042C804.428 218.245 801.465 219.357 801.285 219.513ZM785.609 231.621C784.867 232.389 785.111 233.645 786.094 234.121C786.543 234.339 786.83 234.249 796.794 230.788L807.032 227.232L807.31 226.658C807.782 225.683 807.064 224.49 806.006 224.489C805.096 224.488 786.075 231.139 785.609 231.621ZM810.752 222.887C810.01 223.655 810.254 224.911 811.237 225.387C811.658 225.591 811.941 225.526 814.484 224.643C816.016 224.111 817.387 223.548 817.532 223.392C817.675 223.236 817.789 222.805 817.783 222.435C817.77 221.614 817.25 221.004 816.474 220.9C815.773 220.805 811.243 222.379 810.752 222.887ZM825.511 217.711C824.762 218.367 824.879 218.865 827.543 226.356L830.004 233.277L830.636 233.527L831.268 233.776L843.611 229.482C853.04 226.202 856.002 225.116 856.156 224.881C856.634 224.154 856.552 223.833 854.058 216.653L851.618 209.628L851.03 209.287L850.443 208.946L838.148 213.178C830.871 215.683 825.713 217.533 825.511 217.711ZM851.133 217.742L852.94 222.944L842.623 226.528L832.305 230.112L830.498 224.91L828.691 219.708L839.009 216.124L849.326 212.54L851.133 217.742Z" fill="#8A86B2"/>
<path d="M1272.01 107.309C1281.59 89.1917 1282.25 65.051 1275.62 45.6981C1269.93 29.037 1257.25 16.3221 1242.61 8.75741C1225.63 -0.0207391 1205.39 -2.63369 1187.15 2.90741C1182.36 4.36361 1177.69 5.70003 1173.17 8.0955C1154.63 17.9106 1158.22 42.0986 1151.71 50.5143C1146.24 57.5935 1135.78 55.5069 1129.19 60.9314C1111.41 75.5785 1121.7 113.304 1140.78 126.845C1163 142.611 1248.28 152.171 1272.01 107.309Z" fill="#F9F8FE"/>
<path fill-rule="evenodd" clip-rule="evenodd" d="M1188.67 22.0518C1187.65 22.1893 1186.09 23.2666 1185.64 24.1461C1185.14 25.1106 1174.56 75.6972 1174.63 76.7959C1174.69 77.8018 1175.86 79.5619 1176.77 80.0357C1177.22 80.267 1182.8 81.502 1193.7 83.7804L1209.95 87.1802L1206.52 103.601L1203.09 120.021L1202.54 120.381L1201.99 120.742L1177.89 115.703L1153.78 110.664L1153.43 110.114L1153.07 109.564L1160.43 74.3452C1167.77 39.2096 1167.79 39.1258 1168.27 38.7259L1168.75 38.325L1173.4 39.2401C1178.03 40.1516 1178.05 40.1537 1178.5 39.7913C1179.1 39.2986 1179.23 38.5292 1178.81 37.9276C1178.47 37.4482 1178.34 37.408 1173.73 36.4444L1168.99 35.4539L1167.89 35.7649C1167.09 35.9913 1166.59 36.2902 1166.04 36.8637L1165.3 37.6514L1157.79 73.3279C1152.41 98.8914 1150.29 109.234 1150.32 109.816C1150.38 110.847 1151.52 112.599 1152.46 113.083C1153.48 113.611 1201.17 123.553 1202.25 123.463C1203.31 123.374 1204.97 122.293 1205.47 121.351C1205.69 120.957 1205.95 120.207 1206.06 119.683L1206.26 118.731L1214.16 120.382C1219.84 121.571 1222.28 122.015 1222.86 121.966C1223.93 121.878 1225.58 120.796 1226.09 119.855C1226.3 119.461 1226.65 118.289 1226.87 117.251C1227.24 115.494 1227.24 115.325 1226.9 114.813C1226.45 114.112 1225.74 113.963 1225.03 114.422C1224.52 114.757 1224.46 114.914 1224.09 116.653C1223.73 118.393 1223.66 118.55 1223.15 118.885L1222.6 119.245L1214.72 117.597L1206.84 115.949L1207.71 111.777L1208.58 107.604L1220.65 110.127C1229.62 112.002 1232.93 112.632 1233.53 112.583C1234.59 112.494 1236.24 111.412 1236.75 110.471C1237.24 109.558 1250.18 47.878 1250.11 46.815C1250.02 45.683 1249.43 44.5759 1248.53 43.8638C1247.69 43.2004 1247.67 43.1922 1242.74 42.1618L1237.78 41.1265L1237.3 41.5349C1236.69 42.0438 1236.56 42.6279 1236.9 43.2911C1237.16 43.802 1237.17 43.8046 1241.98 44.8671L1246.79 45.9313L1247.07 46.4901C1247.35 47.047 1247.33 47.1492 1240.86 78.0948L1234.37 109.141L1233.82 109.501L1233.27 109.861L1221.22 107.342L1209.16 104.822L1210.08 100.464L1210.99 96.1064L1220.26 98.0447L1229.53 99.9831L1230.08 99.6229C1230.78 99.164 1230.93 98.453 1230.47 97.7517L1230.11 97.2014L1220.84 95.263L1211.57 93.3247L1212.15 90.5429L1212.73 87.7612L1222 89.6995L1231.27 91.6379L1231.82 91.2777C1232.53 90.8188 1232.67 90.1078 1232.22 89.4065C1231.86 88.8578 1231.85 88.8539 1228.03 88.0559L1224.2 87.2556L1224.4 86.8617C1224.51 86.645 1224.82 85.404 1225.1 84.1039L1225.59 81.7399L1229.31 82.5163C1233 83.289 1233.02 83.291 1233.57 82.9325C1234.27 82.4736 1234.42 81.7626 1233.96 81.0613C1233.6 80.5137 1233.58 80.5073 1229.89 79.7346L1226.17 78.9582L1226.76 76.1765L1227.34 73.3948L1231.05 74.1712C1234.75 74.9439 1234.77 74.9458 1235.31 74.5873C1236.01 74.1285 1236.16 73.4174 1235.71 72.7162C1235.35 72.1685 1235.33 72.1621 1231.63 71.3894L1227.92 70.613L1228.5 67.8313L1229.08 65.0496L1232.8 65.826C1236.49 66.5987 1236.51 66.6006 1237.06 66.2422C1237.36 66.0441 1237.65 65.6659 1237.71 65.4017C1237.76 65.1374 1237.65 64.6736 1237.45 64.371C1237.09 63.8234 1237.07 63.817 1233.38 63.0443L1229.66 62.2679L1230.24 59.4861L1230.83 56.7044L1234.54 57.4808C1238.24 58.2535 1238.26 58.2555 1238.8 57.897C1239.5 57.4381 1239.65 56.7271 1239.19 56.0258L1238.84 55.4755L1234.19 54.5037L1229.54 53.5319L1228.99 53.8921L1228.44 54.2521L1225.14 70.0321L1221.84 85.812L1221.29 86.1721L1220.74 86.5323L1199.42 82.0746L1178.1 77.6169L1177.74 77.0666L1177.38 76.5164L1182.71 51.0004L1188.05 25.4844L1188.6 25.1244L1189.15 24.7641L1210.47 29.2218L1231.79 33.6795L1232.15 34.2298L1232.51 34.78L1230.95 42.2148L1229.4 49.6496L1229.76 50.1998C1230.22 50.9012 1230.93 51.0497 1231.63 50.5906L1232.18 50.2306L1233.74 42.7793C1234.86 37.4156 1235.28 35.1014 1235.23 34.5185C1235.13 33.4268 1234.05 31.7368 1233.15 31.2735C1232.66 31.0236 1225.96 29.5625 1210.95 26.4298C1192.9 22.6626 1189.34 21.9614 1188.67 22.0518ZM1206.93 32.073C1204.5 32.1505 1201.53 33.3394 1199.66 34.9801C1198.31 36.164 1197.83 36.7667 1196.92 38.3922C1196.24 39.6156 1196.14 39.9653 1195.19 44.5117C1194.18 49.3239 1194.18 49.3367 1194.39 50.9244C1194.51 51.7995 1194.79 53.0337 1195.01 53.6672C1195.42 54.8255 1196.65 56.903 1197.31 57.5668C1197.61 57.8703 1197.62 58.0037 1197.38 58.458C1196.68 59.7999 1195.78 60.1724 1191.72 60.8C1188.45 61.3055 1187.29 61.6688 1185.77 62.6609C1183.45 64.1838 1182.47 66.0695 1181.43 71.0161C1180.75 74.2741 1180.74 74.3226 1181.1 74.8658L1181.46 75.4161L1200 79.2929L1218.54 83.1696L1219.09 82.8094C1219.64 82.4539 1219.65 82.4078 1220.33 79.1485C1221.36 74.1999 1221.22 72.0795 1219.7 69.7533C1218.71 68.2381 1217.79 67.4405 1215 65.6676C1211.53 63.466 1210.85 62.7636 1210.74 61.2507C1210.71 60.7385 1210.77 60.6207 1211.17 60.464C1212.04 60.1211 1213.99 58.7078 1214.83 57.811C1215.29 57.3206 1216.05 56.3018 1216.5 55.5469L1217.34 54.1745L1218.36 49.2593C1219.37 44.4086 1219.38 44.323 1219.19 42.7407C1218.71 38.6655 1216.06 34.8988 1212.51 33.2357C1211.12 32.5886 1208.42 32.0252 1206.93 32.073ZM1211.59 35.9577C1214.49 37.5104 1216.38 40.6628 1216.38 43.9554C1216.39 45.5425 1215.2 51.4616 1214.56 53.0268C1213.25 56.254 1210.04 58.5101 1206.52 58.6825C1203.32 58.8393 1200.21 57.1518 1198.53 54.3562C1197.58 52.777 1197.19 51.4157 1197.18 49.6966C1197.18 47.9374 1198.43 41.9704 1199.14 40.3509C1200.45 37.3881 1203.32 35.2982 1206.56 34.9607C1207.95 34.815 1210.34 35.2876 1211.59 35.9577ZM1201.32 60.5002C1202 60.8004 1203.1 61.1594 1203.76 61.2979C1204.42 61.4364 1205.58 61.548 1206.32 61.5459C1207.07 61.5437 1207.72 61.5517 1207.78 61.5636C1207.83 61.5755 1207.96 61.9585 1208.06 62.4148C1208.48 64.4043 1209.56 65.5492 1213.26 67.9202C1216.92 70.2663 1217.6 71.0284 1218.11 73.3443C1218.29 74.163 1218.24 74.7658 1217.81 77.1615L1217.3 80.0064L1200.58 76.5111L1183.86 73.0159L1184.53 70.2046C1185.1 67.8372 1185.3 67.2661 1185.79 66.5876C1187.18 64.6685 1188.11 64.2431 1192.41 63.56C1196.74 62.8697 1198.2 62.2542 1199.38 60.6004C1199.65 60.2211 1199.92 59.9206 1199.98 59.9325C1200.03 59.9443 1200.64 60.1998 1201.32 60.5002Z" fill="#8A86B2"/>
</svg>
