<svg width="60" height="60" viewBox="0 0 60 60" fill="none" xmlns="http://www.w3.org/2000/svg">
<circle cx="30" cy="30" r="30" fill="#FAFF00"/>
<path d="M22 34.656C21.1787 33.6107 20.768 32.2453 20.768 30.56C20.768 28.8747 21.1787 27.5147 22 26.48C22.8213 25.4347 24.0373 24.912 25.648 24.912C27.2587 24.912 28.4747 25.4347 29.296 26.48C30.1173 27.5147 30.528 28.8747 30.528 30.56C30.528 32.2453 30.1173 33.6107 29.296 34.656C28.4747 35.6907 27.2587 36.208 25.648 36.208C24.0373 36.208 22.8213 35.6907 22 34.656ZM25.648 34.544C27.6747 34.544 28.688 33.216 28.688 30.56C28.688 27.904 27.6747 26.576 25.648 26.576C23.6213 26.576 22.608 27.904 22.608 30.56C22.608 33.216 23.6213 34.544 25.648 34.544ZM36.3689 25.12H37.7129V34.352H39.6489V36H33.7289V34.352H35.9049V26.992L33.7289 27.808V26.128L36.3689 25.12Z" fill="#111111"/>
</svg>
