<svg width="60" height="60" viewBox="0 0 60 60" fill="none" xmlns="http://www.w3.org/2000/svg">
<circle cx="30" cy="30" r="30" fill="#FAFF00"/>
<path d="M21 34.656C20.1787 33.6107 19.768 32.2453 19.768 30.56C19.768 28.8747 20.1787 27.5147 21 26.48C21.8213 25.4347 23.0373 24.912 24.648 24.912C26.2587 24.912 27.4747 25.4347 28.296 26.48C29.1173 27.5147 29.528 28.8747 29.528 30.56C29.528 32.2453 29.1173 33.6107 28.296 34.656C27.4747 35.6907 26.2587 36.208 24.648 36.208C23.0373 36.208 21.8213 35.6907 21 34.656ZM24.648 34.544C26.6747 34.544 27.688 33.216 27.688 30.56C27.688 27.904 26.6747 26.576 24.648 26.576C22.6213 26.576 21.608 27.904 21.608 30.56C21.608 33.216 22.6213 34.544 24.648 34.544ZM32.9529 26.016C34.0302 25.28 35.2355 24.912 36.5689 24.912C37.7102 24.912 38.6329 25.1787 39.3369 25.712C40.0409 26.2347 40.3929 26.9867 40.3929 27.968C40.3929 28.7893 40.1209 29.4933 39.5769 30.08C39.0435 30.656 38.3129 31.2213 37.3849 31.776C37.3102 31.8187 37.1715 31.8987 36.9689 32.016C36.7769 32.1333 36.6382 32.2187 36.5529 32.272C36.4782 32.3147 36.3555 32.3893 36.1849 32.496C36.0142 32.6027 35.8862 32.6827 35.8009 32.736C35.7262 32.7893 35.6195 32.8693 35.4809 32.976C35.3529 33.072 35.2569 33.1573 35.1929 33.232C35.1289 33.296 35.0542 33.3813 34.9689 33.488C34.8835 33.584 34.8195 33.6747 34.7769 33.76C34.7449 33.8453 34.7129 33.9413 34.6809 34.048C34.6489 34.1547 34.6329 34.2613 34.6329 34.368L40.4729 34.352V36H32.5849V35.168C32.5849 34.5707 32.6649 34.0427 32.8249 33.584C32.9955 33.1147 33.2889 32.688 33.7049 32.304C34.1315 31.9093 34.4622 31.632 34.6969 31.472C34.9315 31.3013 35.3475 31.04 35.9449 30.688C35.9982 30.6453 36.0409 30.6133 36.0729 30.592C36.1155 30.5707 36.1582 30.5493 36.2009 30.528C37.0969 30.0053 37.6729 29.6267 37.9289 29.392C38.3555 28.976 38.5689 28.512 38.5689 28C38.5689 27.5307 38.3769 27.1733 37.9929 26.928C37.6195 26.6827 37.0915 26.56 36.4089 26.56C35.2249 26.56 34.0729 26.9653 32.9529 27.776V26.016Z" fill="#111111"/>
</svg>
