<svg width="60" height="60" viewBox="0 0 60 60" fill="none" xmlns="http://www.w3.org/2000/svg">
<circle cx="30" cy="30" r="30" fill="#FAFF00"/>
<path d="M21 34.656C20.1787 33.6107 19.768 32.2453 19.768 30.56C19.768 28.8747 20.1787 27.5147 21 26.48C21.8213 25.4347 23.0373 24.912 24.648 24.912C26.2587 24.912 27.4747 25.4347 28.296 26.48C29.1173 27.5147 29.528 28.8747 29.528 30.56C29.528 32.2453 29.1173 33.6107 28.296 34.656C27.4747 35.6907 26.2587 36.208 24.648 36.208C23.0373 36.208 21.8213 35.6907 21 34.656ZM24.648 34.544C26.6747 34.544 27.688 33.216 27.688 30.56C27.688 27.904 26.6747 26.576 24.648 26.576C22.6213 26.576 21.608 27.904 21.608 30.56C21.608 33.216 22.6213 34.544 24.648 34.544ZM40.1849 27.888C40.1849 28.4533 40.0355 28.9493 39.7369 29.376C39.4489 29.8027 39.0595 30.096 38.5689 30.256C39.1555 30.4373 39.6462 30.7573 40.0409 31.216C40.4355 31.6747 40.6329 32.2827 40.6329 33.04C40.6329 34.0747 40.2382 34.864 39.4489 35.408C38.6595 35.9413 37.6675 36.208 36.4729 36.208C35.0755 36.208 33.8169 35.968 32.6969 35.488V33.728C33.7422 34.304 34.9529 34.5813 36.3289 34.56C38.0355 34.5387 38.8889 33.968 38.8889 32.848C38.8889 31.76 38.1209 31.216 36.5849 31.216H34.8569V29.568L36.3769 29.584C37.0382 29.584 37.5449 29.456 37.8969 29.2C38.2595 28.9333 38.4409 28.5707 38.4409 28.112C38.4409 27.6213 38.2382 27.2427 37.8329 26.976C37.4382 26.6987 36.8729 26.56 36.1369 26.56C35.0062 26.56 33.9235 26.8587 32.8889 27.456V25.712C33.9022 25.1787 35.0649 24.912 36.3769 24.912C37.5182 24.912 38.4355 25.1787 39.1289 25.712C39.8329 26.2453 40.1849 26.9707 40.1849 27.888Z" fill="#111111"/>
</svg>
