<svg width="410" height="160" viewBox="0 0 410 160" fill="none" xmlns="http://www.w3.org/2000/svg">
<rect x="0.5" y="0.500488" width="409" height="159" rx="11.5" fill="white" fill-opacity="0.4" stroke="#111111"/>
<path fill-rule="evenodd" clip-rule="evenodd" d="M195.369 66.6648L190.317 71.585L189.968 70.8275C189.762 70.3802 189.586 69.7211 189.538 69.2183C189.442 68.2206 189.119 67.7898 188.465 67.7898C187.806 67.7898 187.488 68.2192 187.391 69.2433C187.164 71.6403 185.178 73.5712 182.71 73.796C181.673 73.8903 181.232 74.2028 181.232 74.8429C181.232 75.48 181.673 75.7954 182.697 75.8886C183.213 75.9356 183.888 76.1074 184.348 76.3085L185.126 76.6488L181.693 79.9979L178.259 83.347L176.131 90.0838C174.96 93.7891 174.001 96.9507 174 97.1096C173.999 97.2687 174.14 97.5379 174.315 97.7079L174.632 98.0171H205H235.368L235.685 97.7079C235.86 97.5379 236.001 97.2687 236 97.1096C235.996 96.6312 231.76 83.3731 231.543 83.162C231.367 82.9896 230.145 82.959 221.253 82.9035L211.164 82.8405L215.458 78.4953C217.819 76.1055 220.209 73.6994 220.767 73.1484L221.783 72.1466L222.115 72.8526C222.308 73.2656 222.48 73.9148 222.528 74.4162C222.624 75.42 222.946 75.8504 223.601 75.8504C224.261 75.8504 224.578 75.4211 224.675 74.397C224.903 72 226.888 70.0691 229.357 69.8443C230.394 69.7499 230.835 69.4375 230.835 68.7974C230.835 68.1573 230.394 67.8449 229.357 67.7505C226.888 67.5257 224.903 65.5948 224.675 63.1978C224.578 62.1737 224.261 61.7444 223.601 61.7444C222.946 61.7444 222.624 62.1749 222.528 63.1787C222.481 63.6683 222.309 64.3277 222.127 64.7161C221.836 65.3363 221.781 65.386 221.51 65.2826C221.346 65.2203 219.476 64.3986 217.354 63.4568L213.497 61.7444H206.959H200.422L195.369 66.6648ZM200.931 73.3315L191.114 82.9035H186.4H181.686L184.139 80.5062L186.592 78.1089L186.951 78.8516C187.175 79.3166 187.34 79.9169 187.392 80.4567C187.488 81.4657 187.809 81.8959 188.465 81.8959C189.125 81.8959 189.442 81.4665 189.54 80.4425C189.767 78.0454 191.752 76.1145 194.221 75.8897C195.258 75.7954 195.699 75.4829 195.699 74.8429C195.699 74.2057 195.258 73.8903 194.234 73.7971C193.718 73.7501 193.042 73.5784 192.583 73.3772L191.805 73.0368L196.561 68.3982L201.317 63.7595H206.032H210.748L200.931 73.3315ZM216.937 65.4858L220.283 66.9646L219.506 67.3174C219.02 67.5376 218.396 67.7004 217.844 67.7507C216.809 67.8449 216.368 68.1577 216.368 68.7974C216.368 69.4346 216.809 69.7499 217.833 69.8431C218.646 69.9172 220.243 70.4733 220.243 70.6823C220.243 70.7774 196.381 94.9109 196.235 94.9639C196.186 94.9818 195.379 92.573 194.443 89.6111L192.741 84.2259L203.101 74.1187C208.799 68.5597 213.49 64.0104 213.525 64.0092C213.561 64.008 215.096 64.6724 216.937 65.4858ZM200.866 66.7823V67.7898H202.933H205V66.7823V65.7747H202.933H200.866V66.7823ZM224.164 67.1524C224.432 67.4945 224.938 67.9879 225.289 68.2488C225.639 68.5097 225.927 68.7566 225.927 68.7974C225.927 68.8382 225.639 69.0851 225.289 69.346C224.938 69.6069 224.432 70.1003 224.164 70.4424C223.896 70.7845 223.643 71.0645 223.601 71.0645C223.56 71.0645 223.306 70.7845 223.039 70.4424C222.771 70.1003 222.265 69.6069 221.914 69.346C221.563 69.0851 221.276 68.8382 221.276 68.7974C221.276 68.7566 221.563 68.5097 221.914 68.2488C222.265 67.9879 222.771 67.4945 223.039 67.1524C223.306 66.8103 223.56 66.5304 223.601 66.5304C223.643 66.5304 223.896 66.8103 224.164 67.1524ZM197.766 69.805V70.8126H199.833H201.9V69.805V68.7974H199.833H197.766V69.805ZM189.028 73.1979C189.296 73.5399 189.802 74.0334 190.153 74.2942C190.503 74.5552 190.791 74.8021 190.791 74.8429C190.791 74.8837 190.503 75.1305 190.153 75.3915C189.802 75.6523 189.296 76.1458 189.028 76.4879C188.76 76.8299 188.507 77.1099 188.465 77.1099C188.424 77.1099 188.17 76.8299 187.903 76.4879C187.635 76.1458 187.129 75.6523 186.778 75.3915C186.427 75.1305 186.14 74.8837 186.14 74.8429C186.14 74.8021 186.427 74.5552 186.778 74.2942C187.129 74.0334 187.635 73.5399 187.903 73.1979C188.17 72.8558 188.424 72.5758 188.465 72.5758C188.507 72.5758 188.76 72.8558 189.028 73.1979ZM192.549 90.4603C193.5 93.4736 194.278 95.9532 194.278 95.9705C194.278 95.9877 190.264 96.0019 185.357 96.0019C176.919 96.0019 176.438 95.99 176.504 95.7815C176.543 95.6604 177.304 93.2374 178.197 90.3973C179.09 87.5572 179.846 85.1621 179.877 85.0747C179.921 84.9496 181.088 84.9229 185.377 84.9487L190.821 84.9816L192.549 90.4603ZM217.013 84.9501C217.013 84.9674 216.235 87.447 215.285 90.4603L213.556 95.939L205.838 95.9715L198.121 96.004L201.091 93.0117C202.724 91.366 205.188 88.8742 206.565 87.4745L209.069 84.9296L213.041 84.924C215.226 84.921 217.013 84.9328 217.013 84.9501ZM231.819 90.4603C232.77 93.4736 233.548 95.9532 233.548 95.9705C233.548 95.9877 229.533 96.0019 224.626 96.0019C216.189 96.0019 215.708 95.99 215.774 95.7815C215.812 95.6604 216.574 93.2374 217.467 90.3973C218.36 87.5572 219.115 85.1621 219.146 85.0747C219.191 84.9496 220.358 84.9229 224.646 84.9487L230.09 84.9816L231.819 90.4603Z" fill="#111111"/>
</svg>
