<svg width="447" height="274" viewBox="0 0 447 274" fill="none" xmlns="http://www.w3.org/2000/svg">
<g filter="url(#filter0_d_1_147)">
<path d="M410.676 67.82H409.444V66.154C408.361 66.0327 407.428 65.7573 406.644 65.328V63.76C407.652 64.404 408.805 64.726 410.102 64.726C411.511 64.726 412.216 64.32 412.216 63.508C412.216 63.1533 412.076 62.8593 411.796 62.626C411.525 62.3833 411.185 62.206 410.774 62.094C410.373 61.982 409.929 61.8467 409.444 61.688C408.968 61.5293 408.525 61.3613 408.114 61.184C407.713 61.0067 407.372 60.7313 407.092 60.358C406.821 59.9753 406.686 59.5133 406.686 58.972C406.686 58.2067 406.938 57.6 407.442 57.152C407.955 56.704 408.623 56.4333 409.444 56.34V54.66H410.676V56.326C411.693 56.4007 412.538 56.6387 413.21 57.04V58.566C412.379 58.006 411.399 57.7353 410.27 57.754C408.963 57.754 408.31 58.1507 408.31 58.944C408.31 59.2707 408.445 59.546 408.716 59.77C408.996 59.994 409.337 60.162 409.738 60.274C410.149 60.3767 410.592 60.5073 411.068 60.666C411.553 60.8247 411.997 60.9973 412.398 61.184C412.809 61.3613 413.149 61.6413 413.42 62.024C413.7 62.4067 413.84 62.8733 413.84 63.424C413.84 64.3107 413.551 64.978 412.972 65.426C412.393 65.8647 411.628 66.112 410.676 66.168V67.82ZM417.985 56.48H425.055V57.74L421.107 66H419.385L423.249 57.908H417.985V56.48ZM426.62 56.48H432.486V57.908H428.09L427.95 60.204C428.407 60.092 428.888 60.036 429.392 60.036C430.409 60.036 431.254 60.2833 431.926 60.778C432.598 61.2633 432.934 62.0287 432.934 63.074C432.934 64.0633 432.565 64.8287 431.828 65.37C431.1 65.9113 430.185 66.182 429.084 66.182C427.936 66.182 426.919 65.9673 426.032 65.538V64.04C426.835 64.5067 427.791 64.74 428.902 64.74C429.63 64.74 430.213 64.5953 430.652 64.306C431.1 64.0167 431.324 63.6013 431.324 63.06C431.324 61.9213 430.461 61.352 428.734 61.352C427.931 61.352 427.124 61.492 426.312 61.772L426.62 56.48ZM412.664 78.446C412.664 78.7727 412.827 78.936 413.154 78.936C413.266 78.936 413.415 78.908 413.602 78.852V79.93C413.322 80.042 413.005 80.098 412.65 80.098C411.978 80.098 411.53 79.8367 411.306 79.314C410.587 79.8927 409.743 80.182 408.772 80.182C408.119 80.182 407.563 80.0047 407.106 79.65C406.649 79.286 406.42 78.7773 406.42 78.124C406.42 77.34 406.714 76.7707 407.302 76.416C407.89 76.052 408.595 75.87 409.416 75.87C409.957 75.87 410.541 75.9353 411.166 76.066V75.828C411.166 75.3987 411.012 75.0533 410.704 74.792C410.396 74.5307 409.962 74.4 409.402 74.4C408.571 74.4 407.764 74.5727 406.98 74.918V73.546C407.857 73.2473 408.716 73.098 409.556 73.098C410.536 73.098 411.297 73.3407 411.838 73.826C412.389 74.3113 412.664 75.0487 412.664 76.038V78.446ZM409.71 76.92C409.215 76.92 408.8 77.0087 408.464 77.186C408.128 77.3633 407.96 77.6433 407.96 78.026C407.96 78.3433 408.081 78.5907 408.324 78.768C408.567 78.936 408.865 79.02 409.22 79.02C409.985 79.02 410.634 78.754 411.166 78.222V77.088C410.625 76.976 410.139 76.92 409.71 76.92ZM419.208 73.28H420.846L417.962 80H416.38L413.51 73.28H415.134L417.178 78.376L419.208 73.28ZM422.18 79.16C421.564 78.4693 421.256 77.6293 421.256 76.64C421.256 75.6507 421.564 74.8153 422.18 74.134C422.796 73.4433 423.599 73.098 424.588 73.098C425.643 73.098 426.502 73.5087 427.164 74.33V73.28H428.508V79.916C428.508 81.0453 428.144 81.8853 427.416 82.436C426.698 82.9867 425.806 83.262 424.742 83.262C423.716 83.262 422.792 83.052 421.97 82.632V81.26C422.754 81.7173 423.613 81.946 424.546 81.946C426.189 81.946 427.01 81.2833 427.01 79.958V79.104C426.404 79.8227 425.596 80.182 424.588 80.182C423.599 80.182 422.796 79.8413 422.18 79.16ZM426.996 75.814C426.819 75.422 426.539 75.0907 426.156 74.82C425.783 74.5493 425.349 74.414 424.854 74.414C424.248 74.414 423.748 74.624 423.356 75.044C422.964 75.4547 422.768 75.9867 422.768 76.64C422.768 77.2933 422.964 77.83 423.356 78.25C423.748 78.6607 424.248 78.866 424.854 78.866C425.349 78.866 425.783 78.74 426.156 78.488C426.539 78.236 426.819 77.9233 426.996 77.55V75.814Z" fill="#111111"/>
<path d="M408.676 13.82H407.444V12.154C406.361 12.0327 405.428 11.7573 404.644 11.328V9.76C405.652 10.404 406.805 10.726 408.102 10.726C409.511 10.726 410.216 10.32 410.216 9.508C410.216 9.15333 410.076 8.85933 409.796 8.626C409.525 8.38333 409.185 8.206 408.774 8.094C408.373 7.982 407.929 7.84667 407.444 7.688C406.968 7.52933 406.525 7.36133 406.114 7.184C405.713 7.00667 405.372 6.73133 405.092 6.358C404.821 5.97533 404.686 5.51333 404.686 4.972C404.686 4.20667 404.938 3.6 405.442 3.152C405.955 2.704 406.623 2.43333 407.444 2.34V0.659999H408.676V2.326C409.693 2.40067 410.538 2.63867 411.21 3.04V4.566C410.379 4.006 409.399 3.73533 408.27 3.754C406.963 3.754 406.31 4.15067 406.31 4.944C406.31 5.27067 406.445 5.546 406.716 5.77C406.996 5.994 407.337 6.162 407.738 6.274C408.149 6.37667 408.592 6.50733 409.068 6.666C409.553 6.82467 409.997 6.99733 410.398 7.184C410.809 7.36133 411.149 7.64133 411.42 8.024C411.7 8.40667 411.84 8.87333 411.84 9.424C411.84 10.3107 411.551 10.978 410.972 11.426C410.393 11.8647 409.628 12.112 408.676 12.168V13.82ZM416.545 3.264C417.488 2.62 418.542 2.298 419.709 2.298C420.708 2.298 421.515 2.53133 422.131 2.998C422.747 3.45533 423.055 4.11333 423.055 4.972C423.055 5.69067 422.817 6.30667 422.341 6.82C421.874 7.324 421.235 7.81867 420.423 8.304C420.358 8.34133 420.236 8.41133 420.059 8.514C419.891 8.61667 419.77 8.69133 419.695 8.738C419.63 8.77533 419.522 8.84067 419.373 8.934C419.224 9.02733 419.112 9.09733 419.037 9.144C418.972 9.19067 418.878 9.26067 418.757 9.354C418.645 9.438 418.561 9.51267 418.505 9.578C418.449 9.634 418.384 9.70867 418.309 9.802C418.234 9.886 418.178 9.96533 418.141 10.04C418.113 10.1147 418.085 10.1987 418.057 10.292C418.029 10.3853 418.015 10.4787 418.015 10.572L423.125 10.558V12H416.223V11.272C416.223 10.7493 416.293 10.2873 416.433 9.886C416.582 9.47533 416.839 9.102 417.203 8.766C417.576 8.42067 417.866 8.178 418.071 8.038C418.276 7.88867 418.64 7.66 419.163 7.352C419.21 7.31467 419.247 7.28667 419.275 7.268C419.312 7.24933 419.35 7.23067 419.387 7.212C420.171 6.75467 420.675 6.42333 420.899 6.218C421.272 5.854 421.459 5.448 421.459 5C421.459 4.58933 421.291 4.27667 420.955 4.062C420.628 3.84733 420.166 3.74 419.569 3.74C418.533 3.74 417.525 4.09467 416.545 4.804V3.264ZM424.791 4.846C424.791 4.15533 425.094 3.558 425.701 3.054C426.307 2.55 427.194 2.298 428.361 2.298C429.453 2.298 430.321 2.55933 430.965 3.082C431.618 3.60467 431.954 4.22533 431.973 4.944C431.991 5.87733 431.571 6.64733 430.713 7.254C431.777 7.786 432.309 8.53733 432.309 9.508C432.309 10.2547 431.982 10.8893 431.329 11.412C430.675 11.9253 429.705 12.182 428.417 12.182C427.138 12.182 426.158 11.9113 425.477 11.37C424.795 10.8193 424.455 10.152 424.455 9.368C424.455 8.90133 424.59 8.444 424.861 7.996C425.131 7.548 425.514 7.17467 426.009 6.876C425.197 6.35333 424.791 5.67667 424.791 4.846ZM428.529 7.884C427.913 7.69733 427.455 7.548 427.157 7.436C426.793 7.66 426.513 7.93067 426.317 8.248C426.13 8.556 426.037 8.86867 426.037 9.186C426.046 9.69 426.256 10.0913 426.667 10.39C427.087 10.6793 427.693 10.824 428.487 10.824C429.131 10.824 429.658 10.7073 430.069 10.474C430.489 10.2407 430.699 9.93733 430.699 9.564C430.699 9.368 430.661 9.19533 430.587 9.046C430.512 8.88733 430.414 8.75667 430.293 8.654C430.181 8.55133 430.031 8.45333 429.845 8.36C429.658 8.26667 429.476 8.192 429.299 8.136C429.121 8.07067 428.911 8.00067 428.669 7.926C428.65 7.91667 428.631 7.912 428.613 7.912C428.603 7.912 428.589 7.90733 428.571 7.898C428.561 7.88867 428.547 7.884 428.529 7.884ZM430.405 5.14C430.405 4.71067 430.218 4.356 429.845 4.076C429.471 3.796 428.953 3.656 428.291 3.656C427.693 3.656 427.217 3.768 426.863 3.992C426.517 4.216 426.345 4.496 426.345 4.832C426.345 5.14933 426.452 5.42 426.667 5.644C426.891 5.868 427.105 6.022 427.311 6.106C427.516 6.19 427.843 6.302 428.291 6.442C428.365 6.47 428.421 6.48867 428.459 6.498C428.851 6.60067 429.191 6.69867 429.481 6.792C430.097 6.316 430.405 5.76533 430.405 5.14ZM434.707 10.824C433.988 9.90933 433.629 8.71467 433.629 7.24C433.629 5.76533 433.988 4.57533 434.707 3.67C435.426 2.75533 436.49 2.298 437.899 2.298C439.308 2.298 440.372 2.75533 441.091 3.67C441.81 4.57533 442.169 5.76533 442.169 7.24C442.169 8.71467 441.81 9.90933 441.091 10.824C440.372 11.7293 439.308 12.182 437.899 12.182C436.49 12.182 435.426 11.7293 434.707 10.824ZM437.899 10.726C439.672 10.726 440.559 9.564 440.559 7.24C440.559 4.916 439.672 3.754 437.899 3.754C436.126 3.754 435.239 4.916 435.239 7.24C435.239 9.564 436.126 10.726 437.899 10.726Z" fill="#111111"/>
<path d="M410.676 127.82H409.444V126.154C408.361 126.033 407.428 125.757 406.644 125.328V123.76C407.652 124.404 408.805 124.726 410.102 124.726C411.511 124.726 412.216 124.32 412.216 123.508C412.216 123.153 412.076 122.859 411.796 122.626C411.525 122.383 411.185 122.206 410.774 122.094C410.373 121.982 409.929 121.847 409.444 121.688C408.968 121.529 408.525 121.361 408.114 121.184C407.713 121.007 407.372 120.731 407.092 120.358C406.821 119.975 406.686 119.513 406.686 118.972C406.686 118.207 406.938 117.6 407.442 117.152C407.955 116.704 408.623 116.433 409.444 116.34V114.66H410.676V116.326C411.693 116.401 412.538 116.639 413.21 117.04V118.566C412.379 118.006 411.399 117.735 410.27 117.754C408.963 117.754 408.31 118.151 408.31 118.944C408.31 119.271 408.445 119.546 408.716 119.77C408.996 119.994 409.337 120.162 409.738 120.274C410.149 120.377 410.592 120.507 411.068 120.666C411.553 120.825 411.997 120.997 412.398 121.184C412.809 121.361 413.149 121.641 413.42 122.024C413.7 122.407 413.84 122.873 413.84 123.424C413.84 124.311 413.551 124.978 412.972 125.426C412.393 125.865 411.628 126.112 410.676 126.168V127.82ZM419.371 124.824C418.652 123.909 418.293 122.715 418.293 121.24C418.293 119.765 418.652 118.575 419.371 117.67C420.09 116.755 421.154 116.298 422.563 116.298C423.972 116.298 425.036 116.755 425.755 117.67C426.474 118.575 426.833 119.765 426.833 121.24C426.833 122.715 426.474 123.909 425.755 124.824C425.036 125.729 423.972 126.182 422.563 126.182C421.154 126.182 420.09 125.729 419.371 124.824ZM422.563 124.726C424.336 124.726 425.223 123.564 425.223 121.24C425.223 118.916 424.336 117.754 422.563 117.754C420.79 117.754 419.903 118.916 419.903 121.24C419.903 123.564 420.79 124.726 422.563 124.726Z" fill="#111111"/>
<path d="M4 69V67H12.7188V69H4Z" fill="#888888"/>
<path d="M24.9601 69V67H33.6788V69H24.9601Z" fill="#888888"/>
<path d="M45.9201 69V67H54.6389V69H45.9201Z" fill="#888888"/>
<path d="M66.8802 69V67H75.599V69H66.8802Z" fill="#888888"/>
<path d="M87.8403 69V67H96.559V69H87.8403Z" fill="#888888"/>
<path d="M108.8 69V67H117.519V69H108.8Z" fill="#888888"/>
<path d="M129.76 69V67H138.479V69H129.76Z" fill="#888888"/>
<path d="M150.72 69V67H159.439V69H150.72Z" fill="#888888"/>
<path d="M171.681 69V67H180.399V69H171.681Z" fill="#888888"/>
<path d="M192.641 69V67H201.359V69H192.641Z" fill="#888888"/>
<path d="M213.601 69V67H222.319V69H213.601Z" fill="#888888"/>
<path d="M234.561 69V67H243.28V69H234.561Z" fill="#888888"/>
<path d="M255.521 69V67H264.24V69H255.521Z" fill="#888888"/>
<path d="M276.481 69V67H285.2V69H276.481Z" fill="#888888"/>
<path d="M297.441 69V67H306.16V69H297.441Z" fill="#888888"/>
<path d="M318.401 69V67H327.12V69H318.401Z" fill="#888888"/>
<path d="M339.361 69V67H348.08V69H339.361Z" fill="#888888"/>
<path d="M360.321 69V67H369.04V69H360.321Z" fill="#888888"/>
<path d="M381.281 69V67H390V69H381.281Z" fill="#888888"/>
<rect x="14.5" y="34.5" width="24" height="94" rx="4.5" stroke="#111111"/>
<rect x="71.5" y="9.5" width="24" height="119" rx="4.5" stroke="#111111"/>
<rect x="128.5" y="25.5" width="24" height="103" rx="4.5" stroke="#111111"/>
<rect x="185.5" y="56.5" width="24" height="72" rx="4.5" stroke="#111111"/>
<rect x="242.5" y="20.5" width="24" height="108" rx="4.5" stroke="#111111"/>
<rect x="299.5" y="45.5" width="24" height="83" rx="4.5" stroke="#111111"/>
<rect x="356.5" y="56.5" width="24" height="72" rx="4.5" stroke="#111111"/>
<path d="M21.872 139.8H23.024V151H21.68V142.344L17.664 148.36H16.832L12.816 142.344V151H11.472V139.8H12.624L17.248 146.712L21.872 139.8ZM25.7201 150.12C24.9095 149.395 24.5041 148.408 24.5041 147.16C24.5041 145.912 24.9095 144.931 25.7201 144.216C26.5308 143.491 27.4908 143.128 28.6001 143.128C29.7201 143.128 30.6801 143.491 31.4801 144.216C32.2908 144.931 32.6961 145.912 32.6961 147.16C32.6961 148.408 32.2908 149.395 31.4801 150.12C30.6801 150.835 29.7201 151.192 28.6001 151.192C27.4908 151.192 26.5308 150.835 25.7201 150.12ZM30.6161 149.224C31.1495 148.712 31.4161 148.024 31.4161 147.16C31.4161 146.296 31.1495 145.613 30.6161 145.112C30.0828 144.6 29.4108 144.344 28.6001 144.344C27.7895 144.344 27.1175 144.6 26.5841 145.112C26.0508 145.613 25.7841 146.296 25.7841 147.16C25.7841 148.024 26.0508 148.712 26.5841 149.224C27.1175 149.725 27.7895 149.976 28.6001 149.976C29.4108 149.976 30.0828 149.725 30.6161 149.224ZM35.2041 144.456C35.4815 144.083 35.8655 143.768 36.3561 143.512C36.8575 143.256 37.3961 143.128 37.9721 143.128C38.9001 143.128 39.6628 143.421 40.2601 144.008C40.8681 144.584 41.1721 145.336 41.1721 146.264V151H39.8921V146.424C39.8921 145.731 39.7001 145.208 39.3161 144.856C38.9428 144.493 38.4468 144.312 37.8281 144.312C36.8468 144.312 36.0148 144.824 35.3321 145.848V151H34.0521V143.32H35.2041V144.456Z" fill="#111111"/>
<path d="M70.224 139.8H79.44V141.08H75.504V151H74.16V141.08H70.224V139.8ZM84.3386 143.32H85.6186V151H84.4666V149.864C84.1893 150.237 83.8 150.552 83.2986 150.808C82.808 151.064 82.2746 151.192 81.6986 151.192C80.7066 151.192 79.9226 150.909 79.3466 150.344C78.7813 149.768 78.4986 149.005 78.4986 148.056V143.32H79.7786V147.896C79.7786 149.304 80.4666 150.008 81.8426 150.008C82.824 150.008 83.656 149.496 84.3386 148.472V143.32ZM86.9773 147.16C86.9773 145.901 87.3613 144.915 88.1293 144.2C88.9079 143.485 89.7986 143.128 90.8013 143.128C91.7399 143.128 92.5133 143.363 93.1213 143.832C93.7399 144.301 94.1453 144.883 94.3373 145.576C94.5293 146.259 94.5399 146.973 94.3693 147.72H88.2573C88.3319 148.477 88.6679 149.048 89.2653 149.432C89.8626 149.816 90.5826 150.008 91.4253 150.008C92.3639 150.008 93.2066 149.8 93.9533 149.384V150.632C93.2386 151.005 92.3319 151.192 91.2333 151.192C90.0173 151.192 89.0039 150.845 88.1933 150.152C87.3826 149.459 86.9773 148.461 86.9773 147.16ZM93.2333 146.6C93.2653 146.376 93.2493 146.141 93.1853 145.896C93.1213 145.651 93.0039 145.405 92.8333 145.16C92.6733 144.915 92.4226 144.712 92.0813 144.552C91.7399 144.392 91.3399 144.312 90.8813 144.312C90.1879 144.312 89.5853 144.515 89.0733 144.92C88.5719 145.325 88.2999 145.885 88.2573 146.6H93.2333Z" fill="#111111"/>
<path d="M137.368 139.8H138.84L135.32 151H133.816L130.984 142.04L128.152 151H126.664L123.144 139.8H124.616L127.416 149.368L130.392 139.8H131.592L134.568 149.368L137.368 139.8ZM138.551 147.16C138.551 145.901 138.935 144.915 139.703 144.2C140.482 143.485 141.372 143.128 142.375 143.128C143.314 143.128 144.087 143.363 144.695 143.832C145.314 144.301 145.719 144.883 145.911 145.576C146.103 146.259 146.114 146.973 145.943 147.72H139.831C139.906 148.477 140.242 149.048 140.839 149.432C141.436 149.816 142.156 150.008 142.999 150.008C143.938 150.008 144.78 149.8 145.527 149.384V150.632C144.812 151.005 143.906 151.192 142.807 151.192C141.591 151.192 140.578 150.845 139.767 150.152C138.956 149.459 138.551 148.461 138.551 147.16ZM144.807 146.6C144.839 146.376 144.823 146.141 144.759 145.896C144.695 145.651 144.578 145.405 144.407 145.16C144.247 144.915 143.996 144.712 143.655 144.552C143.314 144.392 142.914 144.312 142.455 144.312C141.762 144.312 141.159 144.515 140.647 144.92C140.146 145.325 139.874 145.885 139.831 146.6H144.807ZM153.653 139.8H154.933V151H153.781V149.72C152.917 150.701 151.882 151.192 150.677 151.192C149.578 151.192 148.661 150.808 147.925 150.04C147.199 149.272 146.837 148.312 146.837 147.16C146.837 146.008 147.199 145.048 147.925 144.28C148.661 143.512 149.578 143.128 150.677 143.128C151.893 143.128 152.885 143.576 153.653 144.472V139.8ZM153.653 146.2C153.418 145.667 153.05 145.219 152.549 144.856C152.047 144.493 151.471 144.312 150.821 144.312C150.053 144.312 149.407 144.573 148.885 145.096C148.373 145.619 148.117 146.307 148.117 147.16C148.117 148.013 148.373 148.701 148.885 149.224C149.407 149.747 150.053 150.008 150.821 150.008C151.471 150.008 152.047 149.827 152.549 149.464C153.05 149.101 153.418 148.653 153.653 148.12V146.2Z" fill="#111111"/>
<path d="M183.224 139.8H192.44V141.08H188.504V151H187.16V141.08H183.224V139.8ZM193.267 139.8H194.547V144.296C194.845 143.965 195.224 143.688 195.683 143.464C196.152 143.24 196.653 143.128 197.187 143.128C198.115 143.128 198.877 143.421 199.475 144.008C200.083 144.584 200.387 145.336 200.387 146.264V151H199.107V146.424C199.107 145.731 198.915 145.208 198.531 144.856C198.157 144.493 197.661 144.312 197.043 144.312C196.061 144.312 195.229 144.824 194.547 145.848V151H193.267V139.8ZM207.921 143.32H209.201V151H208.049V149.864C207.772 150.237 207.382 150.552 206.881 150.808C206.39 151.064 205.857 151.192 205.281 151.192C204.289 151.192 203.505 150.909 202.929 150.344C202.364 149.768 202.081 149.005 202.081 148.056V143.32H203.361V147.896C203.361 149.304 204.049 150.008 205.425 150.008C206.406 150.008 207.238 149.496 207.921 148.472V143.32Z" fill="#111111"/>
<path d="M245.472 139.8H253.056V141.08H246.816V144.936H252.592V146.216H246.816V151H245.472V139.8ZM255.028 144.68C255.327 144.179 255.785 143.789 256.404 143.512C257.023 143.224 257.668 143.107 258.34 143.16V144.44C257.593 144.355 256.932 144.477 256.356 144.808C255.791 145.128 255.391 145.597 255.156 146.216V151H253.876V143.32H255.028V144.68ZM260.567 151H259.287V143.32H260.567V151ZM260.519 140.28C260.679 140.419 260.759 140.616 260.759 140.872C260.759 141.128 260.679 141.331 260.519 141.48C260.359 141.619 260.162 141.688 259.927 141.688C259.693 141.688 259.495 141.619 259.335 141.48C259.175 141.331 259.095 141.128 259.095 140.872C259.095 140.616 259.175 140.419 259.335 140.28C259.495 140.131 259.693 140.056 259.927 140.056C260.162 140.056 260.359 140.131 260.519 140.28Z" fill="#111111"/>
<path d="M299.8 142.568C299.8 141.619 300.168 140.888 300.904 140.376C301.64 139.864 302.552 139.608 303.64 139.608C304.952 139.608 306.083 139.88 307.032 140.424V141.768C306.093 141.16 304.995 140.867 303.736 140.888C302.019 140.888 301.16 141.432 301.16 142.52C301.16 142.957 301.325 143.331 301.656 143.64C301.987 143.949 302.397 144.184 302.888 144.344C303.379 144.504 303.912 144.691 304.488 144.904C305.075 145.107 305.613 145.32 306.104 145.544C306.595 145.757 307.005 146.088 307.336 146.536C307.667 146.984 307.832 147.523 307.832 148.152C307.832 148.685 307.715 149.155 307.48 149.56C307.256 149.965 306.947 150.285 306.552 150.52C306.157 150.755 305.72 150.925 305.24 151.032C304.76 151.139 304.243 151.192 303.688 151.192C302.269 151.192 300.989 150.872 299.848 150.232V148.888C300.968 149.571 302.216 149.912 303.592 149.912C305.512 149.912 306.472 149.357 306.472 148.248C306.472 147.843 306.349 147.496 306.104 147.208C305.859 146.909 305.539 146.669 305.144 146.488C304.749 146.307 304.312 146.141 303.832 145.992C303.363 145.843 302.893 145.683 302.424 145.512C301.955 145.331 301.523 145.128 301.128 144.904C300.733 144.669 300.413 144.355 300.168 143.96C299.923 143.565 299.8 143.101 299.8 142.568ZM315.303 149.4C315.303 149.795 315.501 149.992 315.895 149.992C316.066 149.992 316.263 149.955 316.487 149.88V150.92C316.167 151.037 315.847 151.096 315.527 151.096C314.791 151.096 314.322 150.787 314.119 150.168C313.298 150.851 312.301 151.192 311.127 151.192C310.381 151.192 309.741 150.995 309.207 150.6C308.685 150.195 308.423 149.613 308.423 148.856C308.423 147.949 308.759 147.293 309.431 146.888C310.114 146.472 310.935 146.264 311.895 146.264C312.599 146.264 313.309 146.344 314.023 146.504V146.232C314.023 145.645 313.831 145.181 313.447 144.84C313.063 144.488 312.525 144.312 311.831 144.312C310.861 144.312 309.927 144.504 309.031 144.888V143.64C310.034 143.299 311.01 143.128 311.959 143.128C313.005 143.128 313.821 143.411 314.407 143.976C315.005 144.531 315.303 145.336 315.303 146.392V149.4ZM309.735 148.792C309.735 149.219 309.895 149.544 310.215 149.768C310.546 149.981 310.941 150.088 311.399 150.088C312.455 150.088 313.33 149.715 314.023 148.968V147.56C313.298 147.411 312.647 147.336 312.071 147.336C311.421 147.336 310.866 147.453 310.407 147.688C309.959 147.912 309.735 148.28 309.735 148.792ZM317.736 140.936L319 140.616V143.32H322.072V144.504H319V148.472C319 149.037 319.128 149.432 319.384 149.656C319.651 149.88 320.072 149.992 320.648 149.992C321.203 149.992 321.768 149.875 322.344 149.64V150.824C321.693 151.059 321.005 151.176 320.28 151.176C319.501 151.176 318.883 150.968 318.424 150.552C317.965 150.125 317.736 149.507 317.736 148.696V144.504H316.296V143.32H317.736V140.936Z" fill="#111111"/>
<path d="M354.8 142.568C354.8 141.619 355.168 140.888 355.904 140.376C356.64 139.864 357.552 139.608 358.64 139.608C359.952 139.608 361.083 139.88 362.032 140.424V141.768C361.093 141.16 359.995 140.867 358.736 140.888C357.019 140.888 356.16 141.432 356.16 142.52C356.16 142.957 356.325 143.331 356.656 143.64C356.987 143.949 357.397 144.184 357.888 144.344C358.379 144.504 358.912 144.691 359.488 144.904C360.075 145.107 360.613 145.32 361.104 145.544C361.595 145.757 362.005 146.088 362.336 146.536C362.667 146.984 362.832 147.523 362.832 148.152C362.832 148.685 362.715 149.155 362.48 149.56C362.256 149.965 361.947 150.285 361.552 150.52C361.157 150.755 360.72 150.925 360.24 151.032C359.76 151.139 359.243 151.192 358.688 151.192C357.269 151.192 355.989 150.872 354.848 150.232V148.888C355.968 149.571 357.216 149.912 358.592 149.912C360.512 149.912 361.472 149.357 361.472 148.248C361.472 147.843 361.349 147.496 361.104 147.208C360.859 146.909 360.539 146.669 360.144 146.488C359.749 146.307 359.312 146.141 358.832 145.992C358.363 145.843 357.893 145.683 357.424 145.512C356.955 145.331 356.523 145.128 356.128 144.904C355.733 144.669 355.413 144.355 355.168 143.96C354.923 143.565 354.8 143.101 354.8 142.568ZM369.807 143.32H371.087V151H369.935V149.864C369.658 150.237 369.269 150.552 368.767 150.808C368.277 151.064 367.743 151.192 367.167 151.192C366.175 151.192 365.391 150.909 364.815 150.344C364.25 149.768 363.967 149.005 363.967 148.056V143.32H365.247V147.896C365.247 149.304 365.935 150.008 367.311 150.008C368.293 150.008 369.125 149.496 369.807 148.472V143.32ZM374.126 144.456C374.403 144.083 374.787 143.768 375.278 143.512C375.779 143.256 376.318 143.128 376.894 143.128C377.822 143.128 378.585 143.421 379.182 144.008C379.79 144.584 380.094 145.336 380.094 146.264V151H378.814V146.424C378.814 145.731 378.622 145.208 378.238 144.856C377.865 144.493 377.369 144.312 376.75 144.312C375.769 144.312 374.937 144.824 374.254 145.848V151H372.974V143.32H374.126V144.456Z" fill="#111111"/>
<rect x="4.5" y="178.5" width="134.851" height="87.0004" rx="11.5" stroke="#111111"/>
<g clip-path="url(#clip0_1_147)">
<path d="M80.9714 232.13H63.3243L54.5015 216.891L63.3243 201.651H80.9714L89.7943 216.891L80.9714 232.13ZM63.7417 231.41H80.5541L88.961 216.891L80.5541 202.371H63.7417L55.3348 216.891L63.7417 231.41Z" fill="#111111"/>
<path d="M75.3076 217.532C75.1878 217.546 74.9726 217.647 74.8744 217.823C74.8007 217.954 74.844 218.125 74.9755 218.2C75.0188 218.224 75.0664 218.236 75.1127 218.236C75.2065 218.236 75.2961 218.188 75.3466 218.099C75.3553 218.09 75.3813 218.075 75.377 218.073C75.5272 218.054 75.634 217.918 75.6152 217.768C75.595 217.619 75.4578 217.513 75.3076 217.532Z" fill="#FAFF00"/>
<path d="M69.424 216.833C69.4226 216.804 69.424 216.773 69.4342 216.741C69.424 216.771 69.4211 216.803 69.424 216.833Z" fill="#FAFF00"/>
<path d="M69.424 216.833C69.4226 216.804 69.424 216.773 69.4342 216.741C69.424 216.771 69.4211 216.803 69.424 216.833Z" fill="#FAFF00"/>
<path d="M69.428 216.848C69.428 216.843 69.4247 216.838 69.4247 216.833C69.4247 216.838 69.4263 216.843 69.428 216.848Z" fill="#FAFF00"/>
<path d="M69.428 216.848C69.428 216.843 69.4247 216.838 69.4247 216.833C69.4247 216.838 69.4263 216.843 69.428 216.848Z" fill="#FAFF00"/>
<path d="M83.4266 221.731C82.8677 221.695 82.4605 221.315 82.3492 221.2C82.2034 221.048 81.7614 220.406 81.4062 219.89C81.126 219.484 80.8848 219.133 80.7649 218.983C80.5439 218.708 80.1497 217.517 80.0659 217.094C80.05 217.015 80.0428 216.921 80.0414 216.822C80.4587 216.676 81.2401 216.646 81.4365 216.682C81.591 216.709 81.7427 216.809 81.9795 217.038C82.1745 217.225 82.3391 217.285 82.4879 217.285C82.5962 217.285 82.6959 217.254 82.7926 217.216C82.9486 217.156 83.0916 216.986 83.1883 216.846C83.3775 216.829 83.5566 216.722 83.7126 216.61C83.9697 216.423 83.9986 216.116 83.7993 215.698C83.7588 215.613 83.7083 215.499 83.6519 215.376C83.5913 215.239 83.5234 215.09 83.457 214.948C83.3212 214.66 83.1927 214.442 83.0006 214.314C82.9616 214.288 82.8446 214.183 82.7522 214.1C82.6858 214.041 82.615 213.977 82.5471 213.917C82.5659 213.865 82.5803 213.813 82.5847 213.76C82.5948 213.623 82.5514 213.498 82.459 213.4C82.3839 213.319 82.2438 213.227 82.0026 213.234C81.877 213.238 81.7369 213.274 81.5982 213.331C81.2386 213.233 80.6465 213.234 80.4443 213.243C80.31 213.25 80.0919 213.256 79.8579 213.263C79.494 213.274 79.0809 213.287 78.8759 213.303C78.5682 213.328 78.1855 213.316 78.0382 213.299C77.9169 213.285 77.7898 213.256 77.6569 213.224C77.4186 213.169 77.1471 213.105 76.8337 213.115C76.3528 213.126 75.8791 213.417 75.6523 213.557L75.6032 213.587C75.5122 213.64 75.0616 213.708 74.5619 213.696C73.912 213.681 72.1082 213.56 71.5897 213.503C71.4525 213.489 71.2532 213.449 71.0235 213.403C70.4025 213.277 69.5533 213.107 68.7662 213.185C67.8592 213.274 66.9681 213.512 66.1203 213.892L65.9254 213.982C65.3029 214.265 64.4479 214.654 63.5554 214.588C62.7957 214.53 61.5118 214.131 61.5118 212.991C61.5118 212.382 62.2166 212.068 62.5184 212.068C62.9921 212.068 63.4182 212.442 63.4557 212.546C63.4557 212.742 63.4153 212.871 63.3835 212.975C63.3387 213.12 63.2709 213.341 63.4745 213.531C63.6377 213.682 63.9887 213.761 64.2919 213.629C64.5418 213.521 64.8379 213.246 64.8379 212.546C64.8379 211.286 63.4601 210.699 62.5285 210.699C61.5667 210.699 60.173 211.516 60.173 212.991C60.173 214.483 61.1666 215.59 62.7639 215.881C63.8933 216.087 64.6501 215.985 65.1946 215.795C65.0386 216.283 64.8061 216.971 64.6097 217.403C64.2775 218.132 63.4442 219.159 63.3127 219.261C63.2781 219.284 63.2376 219.309 63.1943 219.333C63.0022 219.447 62.7639 219.588 62.6874 219.829C62.6383 219.986 62.0606 221.397 61.8497 221.902C61.6548 222.37 61.8468 222.631 62.0014 222.841C62.036 222.889 62.075 222.939 62.1111 222.997C62.2946 223.288 62.6368 223.407 62.93 223.407C63.0557 223.407 63.1741 223.384 63.2665 223.344C63.6175 223.188 63.5872 222.693 63.5193 222.49C63.4788 222.372 63.3821 222.291 63.2593 222.189C63.2261 222.162 63.1784 222.121 63.1438 222.088C63.2391 221.855 63.5727 221.285 63.6623 221.192C63.772 221.093 64.3064 220.73 64.7324 220.488C65.1758 220.238 66.1767 219.582 66.6547 219.241C66.9233 219.049 67.1717 218.838 67.3494 218.678C67.5328 219.003 67.6224 219.231 67.6281 219.306C67.6902 220.409 67.6455 220.645 67.6354 220.681C67.6238 220.724 67.6065 220.766 67.5891 220.809C67.4981 221.034 67.3436 221.41 67.7798 221.882C67.9733 222.091 69.042 223.171 69.4666 223.263C69.4753 223.265 70.0501 223.367 70.5758 223.367C70.9282 223.367 71.2604 223.321 71.3846 223.168C71.5189 223.004 71.542 222.769 71.4481 222.555C71.3384 222.306 71.1001 222.147 70.8112 222.13C70.6769 222.121 70.5599 222.133 70.4559 222.143C70.2379 222.164 70.118 222.176 69.9288 222.02C69.8104 221.923 69.4941 221.663 69.4724 221.587C69.5186 221.39 69.8912 219.974 70.0241 219.611C70.0429 219.558 70.0689 219.493 70.0963 219.421C70.2176 219.104 70.3361 218.782 70.4198 218.478C70.7578 218.57 71.36 218.71 72.0432 218.764C72.7277 218.819 73.2245 218.761 73.6246 218.717C73.6824 218.71 73.7344 218.705 73.7878 218.699C73.7141 219.005 73.6159 219.438 73.5798 219.758C73.5495 220.019 73.5278 220.416 73.5091 220.766C73.4946 221.047 73.4744 221.397 73.4628 221.456C73.4022 221.636 73.4917 221.809 73.5784 221.977C73.6073 222.035 73.6564 222.13 73.6622 222.163C73.6708 222.241 73.7777 222.833 73.9597 223.001C74.1214 223.15 74.741 223.222 75.027 223.222C75.0674 223.222 75.1006 223.22 75.1252 223.217C75.518 223.174 75.8126 222.886 75.7794 222.575L75.7765 222.536C75.7635 222.393 75.7346 222.061 75.2407 222.031C75.1671 222.026 75.1006 222.026 75.0428 222.026C75.0226 222.026 75.001 222.026 74.9807 222.026C74.9721 222.002 74.962 221.976 74.9533 221.948C74.9028 221.812 74.8565 221.681 74.8811 221.567C74.9287 221.354 75.2869 220.379 75.4689 219.945C75.6047 219.624 75.9238 219 76.0625 218.735C76.1318 218.727 76.2026 218.717 76.2704 218.708C76.4264 218.689 76.5723 218.671 76.7008 218.646C76.8972 218.61 77.1197 218.531 77.2771 218.468C77.6179 218.891 78.2101 219.51 78.4729 219.712C78.6303 219.833 78.9235 220.114 79.2066 220.384C79.5142 220.68 79.8059 220.959 79.9648 221.073L80.0818 221.156C80.6797 221.578 81.009 221.855 81.0624 221.976C81.23 222.355 82.173 223.033 82.537 223.093C82.5413 223.095 82.7926 223.129 83.0901 223.129C83.5003 223.129 84.0029 223.063 84.091 222.748C84.1488 222.543 84.1805 222.249 84.013 222.015C83.9235 221.898 83.753 221.753 83.4266 221.731ZM61.7068 211.764C61.7024 211.669 61.6475 211.588 61.5696 211.543C61.8382 211.378 62.127 211.28 62.3725 211.251V211.27C62.3725 211.379 62.4375 211.473 62.5314 211.516C62.5242 211.516 62.517 211.515 62.5098 211.515C62.2613 211.516 61.9696 211.604 61.7068 211.764ZM64.2818 212.541C64.2818 212.84 64.2125 213.043 64.0854 213.113C64.0204 213.149 63.9468 213.148 63.8962 213.142C63.8977 213.139 63.8977 213.136 63.8991 213.133C63.9381 213.009 63.9959 212.821 63.9959 212.543C63.9959 212.464 63.9699 212.377 63.9222 212.291L63.9497 212.263C64.0565 212.157 64.0565 211.984 63.9497 211.876C63.8428 211.769 63.6695 211.769 63.5612 211.876L63.551 211.886C63.3185 211.712 63.0196 211.575 62.7091 211.532C62.8246 211.503 62.9112 211.407 62.917 211.286C63.5294 211.407 64.2818 211.798 64.2818 212.541ZM61.1666 211.87C61.1782 211.965 61.2345 212.045 61.3168 212.085C61.2143 212.199 61.1276 212.328 61.0641 212.471C60.9875 212.478 60.9153 212.514 60.8677 212.582C60.7796 212.704 60.8084 212.876 60.9312 212.963L60.9543 212.979C60.9543 212.982 60.9543 212.984 60.9543 212.985C60.9543 213.231 60.9976 213.454 61.0756 213.658C60.976 213.679 60.898 213.751 60.872 213.849C60.7694 213.586 60.7146 213.296 60.7146 212.985C60.7146 212.521 60.9009 212.15 61.1666 211.87ZM61.0294 214.175C61.0612 214.188 61.0944 214.195 61.1305 214.195H61.1594C61.2287 214.195 61.2908 214.166 61.3399 214.124C61.4829 214.308 61.6605 214.467 61.8613 214.599C61.7616 214.572 61.6519 214.601 61.5811 214.684L61.5464 214.725C61.5392 214.733 61.5363 214.743 61.5306 214.753C61.3284 214.585 61.1594 214.392 61.0294 214.175ZM61.9869 215.052L61.997 215.04C62.088 214.934 62.0794 214.779 61.9869 214.68C62.335 214.885 62.7408 215.018 63.1597 215.088C63.1524 215.093 63.1438 215.096 63.138 215.103L63.0412 215.206C62.9993 215.25 62.9806 215.305 62.9734 215.36C62.9344 215.353 62.8968 215.348 62.8549 215.341C62.5357 215.281 62.244 215.183 61.9869 215.052ZM74.4449 221.089C74.3063 221.118 74.1619 221.148 74.1575 221.139C74.1575 221.123 74.1676 221.07 74.2167 221.02C74.2601 220.975 74.3207 220.949 74.3828 220.949C74.2312 220.949 74.1084 221.071 74.1084 221.223C74.1084 221.355 74.2052 221.462 74.3323 221.486C74.2875 221.741 74.3669 221.969 74.4276 222.136C74.4406 222.172 74.4536 222.206 74.4637 222.241C74.5706 222.575 74.8609 222.572 75.0356 222.573C75.0833 222.573 75.1367 222.573 75.1974 222.576C75.206 222.576 75.2133 222.578 75.219 222.578C75.219 222.579 75.219 222.582 75.219 222.584L75.2205 222.604C75.1988 222.625 75.1411 222.663 75.0544 222.673C74.9013 222.687 74.4868 222.628 74.3265 222.584C74.2803 222.474 74.2124 222.229 74.198 222.103C74.1835 221.972 74.1185 221.848 74.0564 221.727C74.0333 221.682 74.0001 221.617 73.9871 221.58C74.0088 221.479 74.0203 221.287 74.0478 220.795C74.0492 220.76 74.0521 220.726 74.0535 220.69C74.0839 220.701 74.1156 220.708 74.1489 220.708C74.1806 220.708 74.2139 220.703 74.2456 220.69C74.2788 220.677 74.302 220.67 74.3193 220.664C74.3828 220.642 74.4204 220.628 74.4955 220.579C74.6226 220.497 74.6601 220.328 74.5778 220.2C74.4955 220.073 74.3265 220.036 74.198 220.118C74.172 220.135 74.172 220.135 74.1431 220.144C74.1272 220.15 74.107 220.157 74.0824 220.166C74.0911 220.036 74.1012 219.915 74.1128 219.818C74.1518 219.479 74.2716 218.975 74.3424 218.689C74.4608 218.705 74.5821 218.73 74.702 218.754C74.9056 218.797 75.1136 218.841 75.3187 218.841C75.3389 218.841 75.3591 218.838 75.3794 218.838C75.2292 219.134 75.0472 219.5 74.9504 219.732C74.8233 220.043 74.5879 220.668 74.4449 221.089ZM83.5725 222.529C83.3877 222.585 82.8605 222.595 82.6193 222.555C82.4215 222.517 81.6445 221.954 81.5564 221.757C81.4553 221.528 81.1491 221.262 80.6595 220.904C80.7375 220.818 80.7548 220.688 80.6927 220.585C80.6927 220.585 80.6566 220.523 80.6335 220.429C80.5988 220.282 80.4501 220.191 80.3028 220.227C80.1814 220.256 80.102 220.363 80.0977 220.481C79.9504 220.348 79.7554 220.163 79.5778 219.991C79.481 219.898 79.3871 219.808 79.2961 219.722C79.3106 219.723 79.3236 219.729 79.3395 219.728C79.4911 219.715 79.6023 219.584 79.5908 219.433C79.5792 219.297 79.5027 219.227 79.4564 219.195C79.3293 219.108 79.1936 219.149 79.1055 219.175L79.0506 219.191C78.9683 219.214 78.9091 219.271 78.8773 219.342C78.8513 219.32 78.8224 219.294 78.7993 219.277C78.7516 219.241 78.6939 219.189 78.6303 219.13C78.6303 219.13 78.6303 219.13 78.6303 219.129C78.6318 219.12 78.6332 219.111 78.6332 219.103C78.7098 219.029 78.7401 218.917 78.7011 218.812C78.639 218.639 78.4946 218.591 78.3891 218.603C78.3054 218.612 78.2491 218.651 78.2057 218.701C77.8894 218.361 77.5789 217.995 77.5284 217.893C77.3941 217.624 76.7716 217.091 76.5853 216.934C76.4698 216.836 76.2964 216.852 76.1982 216.967C76.1015 217.082 76.1159 217.255 76.2315 217.353C76.4885 217.569 76.7803 217.837 76.9348 218.007C76.8207 218.047 76.6965 218.086 76.5925 218.106C76.568 218.11 76.542 218.115 76.516 218.118C76.5853 218.007 76.5708 217.861 76.4698 217.771C76.3571 217.67 76.1838 217.68 76.0827 217.794C76.0191 217.866 75.9051 218.004 75.8646 218.116C75.8531 218.146 75.8516 218.177 75.8516 218.208C75.7245 218.227 75.5931 218.25 75.4617 218.28C75.2941 218.319 75.0631 218.27 74.8204 218.218C74.6717 218.187 74.52 218.157 74.3641 218.139C74.3872 218.102 74.4117 218.063 74.4377 218.027C74.5244 217.903 74.4955 217.733 74.3713 217.645C74.2471 217.559 74.0767 217.588 73.9886 217.712C73.8268 217.939 73.7762 218.07 73.7604 218.149C73.6925 218.157 73.6275 218.162 73.5538 218.171C73.2563 218.206 72.8996 218.243 72.4533 218.234C72.4678 218.216 72.4808 218.195 72.4894 218.171C72.5414 218.03 72.4692 217.871 72.3262 217.82C72.0071 217.703 71.75 218.023 71.6518 218.17C71.168 218.103 70.7549 218.002 70.5166 217.936C70.5253 217.848 70.5296 217.763 70.5238 217.684C70.5137 217.533 70.3808 217.419 70.2321 217.429C70.1498 217.435 70.0804 217.478 70.0328 217.539C70.0025 217.474 69.9461 217.421 69.8725 217.396C69.8595 217.392 69.8291 217.385 69.7902 217.377C69.7699 217.375 69.7266 217.366 69.6948 217.357C69.6298 217.285 69.5273 217.251 69.4248 217.275C69.2774 217.311 69.1879 217.46 69.224 217.606C69.2818 217.841 69.5461 217.889 69.7136 217.919C69.7367 217.925 69.7613 217.928 69.7844 217.928C69.8551 217.928 69.9201 217.897 69.9707 217.851C69.9577 218.025 69.9086 218.239 69.8436 218.455C69.832 218.403 69.8118 218.354 69.7728 218.314C69.7021 218.23 69.5677 218.076 69.3771 218.108C69.2717 218.125 69.1836 218.197 69.1431 218.299C69.0868 218.439 69.1547 218.599 69.2962 218.655C69.3164 218.663 69.3381 218.669 69.3598 218.672C69.3742 218.688 69.3858 218.701 69.393 218.708C69.445 218.76 69.5129 218.786 69.5822 218.786C69.6457 218.786 69.7093 218.76 69.7613 218.715C69.6963 218.905 69.6284 219.084 69.5764 219.221C69.5475 219.296 69.5215 219.363 69.5013 219.42C69.4926 219.444 69.4825 219.474 69.471 219.507C69.4479 219.422 69.4161 219.313 69.4017 219.276C69.3468 219.137 69.1922 219.072 69.0521 219.124C68.9121 219.176 68.8413 219.333 68.8904 219.474C68.9034 219.513 68.9424 219.654 68.9669 219.749C68.9987 219.872 69.1099 219.954 69.2327 219.954C69.2558 219.954 69.2789 219.951 69.302 219.945C69.3179 219.941 69.3294 219.931 69.3439 219.925C69.3049 220.059 69.2645 220.203 69.224 220.35C69.1894 220.294 69.1359 220.248 69.068 220.227C68.9222 220.186 68.7705 220.269 68.7286 220.415C68.6925 220.537 68.7344 220.657 68.8788 220.857C68.9236 220.919 68.99 220.949 69.0608 220.961C68.9973 221.202 68.9482 221.394 68.9323 221.46C68.8427 221.84 69.198 222.133 69.5735 222.441C69.9375 222.739 70.2509 222.709 70.5007 222.686C70.5932 222.677 70.6798 222.669 70.7722 222.674C70.8618 222.68 70.9065 222.719 70.9282 222.751C70.9398 222.768 70.9455 222.784 70.9484 222.797C70.6856 222.849 69.8494 222.785 69.5836 222.728C69.4031 222.67 68.642 222.009 68.1784 221.509C67.9776 221.293 68.0137 221.205 68.0932 221.014C68.1206 220.948 68.1452 220.883 68.1625 220.818C68.1784 220.756 68.2232 220.583 68.1943 219.781C68.1986 219.793 68.2029 219.8 68.2058 219.806C68.2549 219.903 68.356 219.963 68.4586 219.963C68.499 219.963 68.538 219.954 68.577 219.935C68.7128 219.867 68.7705 219.71 68.7026 219.575C68.6925 219.549 68.6665 219.441 68.6449 219.346C68.6117 219.198 68.4643 219.104 68.3185 219.137C68.2549 219.152 68.2044 219.189 68.1668 219.235C68.1408 218.99 67.9256 218.561 67.6671 218.144C67.6715 218.144 67.6758 218.144 67.6801 218.144C67.8101 218.131 67.9098 218.028 67.9256 217.905C67.9358 217.881 67.9589 217.841 67.9791 217.812C68.0628 217.687 68.0282 217.517 67.9025 217.434C67.7769 217.35 67.6065 217.383 67.5227 217.51C67.4577 217.608 67.4216 217.683 67.4028 217.742C66.9912 217.153 66.3023 215.995 66.2951 215.983C66.2171 215.854 66.0496 215.811 65.9196 215.887C65.7896 215.963 65.7463 216.132 65.8228 216.261C65.8517 216.309 66.5305 217.451 66.9551 218.057C66.9912 218.108 67.0216 218.155 67.0548 218.204C66.8901 218.355 66.6201 218.591 66.3341 218.795C66.2229 218.874 66.0814 218.972 65.9254 219.077C65.9543 218.934 65.8676 218.793 65.7246 218.759C65.5788 218.723 65.4286 218.81 65.3924 218.957C65.3607 219.085 65.3563 219.196 65.3563 219.251C65.3563 219.313 65.3809 219.368 65.4156 219.414C65.0458 219.656 64.6761 219.888 64.4595 220.01C64.3497 220.072 64.2269 220.145 64.1042 220.223C64.1013 220.206 64.0984 220.191 64.097 220.183C64.0883 220.039 63.9699 219.925 63.8226 219.925C63.6709 219.925 63.5482 220.047 63.5482 220.199C63.5482 220.249 63.5554 220.41 63.6175 220.541C63.4687 220.644 63.3489 220.733 63.2882 220.789C63.1553 220.912 62.5473 221.866 62.5719 222.154C62.5877 222.346 62.7495 222.48 62.9069 222.609C62.9372 222.634 62.9791 222.669 63.0037 222.693C63.0123 222.741 63.0138 222.811 63.0066 222.854C62.9026 222.873 62.6701 222.854 62.5762 222.705C62.5314 222.634 62.4866 222.573 62.4448 222.516C62.309 222.333 62.2816 222.294 62.3581 222.113C62.5025 221.766 63.1495 220.194 63.2117 219.994C63.2362 219.944 63.3922 219.852 63.4745 219.803C63.525 219.772 63.5742 219.744 63.6175 219.715C63.7157 219.649 63.9309 219.408 64.1735 219.096C64.1807 219.16 64.1952 219.241 64.2082 219.306C64.2342 219.437 64.3483 219.528 64.4768 219.528C64.4941 219.528 64.5115 219.526 64.5288 219.523C64.6776 219.494 64.7743 219.35 64.7454 219.202C64.7454 219.201 64.7194 219.074 64.7165 219.022C64.7137 218.872 64.5923 218.753 64.4421 218.753C64.4364 218.753 64.432 218.756 64.4263 218.756C64.692 218.383 64.9548 217.966 65.1094 217.628C65.456 216.866 65.882 215.43 65.9008 215.368C65.9326 215.262 65.8965 215.147 65.8084 215.078C65.7217 215.008 65.6004 214.998 65.5037 215.053C65.0848 215.288 64.5317 215.504 63.5742 215.435C63.6334 215.34 63.629 215.223 63.5626 215.132C63.7807 215.145 63.993 215.137 64.1995 215.112C64.2111 215.152 64.2284 215.193 64.2587 215.226L64.3223 215.294C64.3757 215.353 64.4508 215.383 64.5245 215.383C64.5909 215.383 64.6573 215.358 64.7093 215.311C64.7974 215.23 64.8176 215.105 64.7729 215.001C65.1108 214.913 65.4257 214.795 65.7116 214.673C65.7448 214.751 65.8098 214.814 65.8994 214.834L66.0019 214.857C66.0221 214.861 66.0424 214.864 66.0611 214.864C66.1868 214.864 66.3009 214.778 66.3283 214.65C66.3471 214.566 66.3211 214.484 66.272 214.422L66.3442 214.389C66.5912 214.278 66.841 214.186 67.0952 214.103C67.0923 214.232 67.1775 214.349 67.309 214.376C67.3277 214.38 67.3465 214.382 67.3653 214.382C67.4924 214.382 67.6065 214.293 67.6339 214.164L67.6599 214.041C67.6671 214.005 67.6671 213.97 67.6599 213.937C67.826 213.895 67.9921 213.856 68.1582 213.825C68.1394 213.891 68.1379 213.959 68.1582 214.023C68.1943 214.139 68.2896 214.225 68.4181 214.26C68.4427 214.267 68.4672 214.27 68.4903 214.27C68.6117 214.27 68.7214 214.19 68.7546 214.068C68.7763 213.99 68.7619 213.912 68.7214 213.849C68.7214 213.813 68.7128 213.78 68.6983 213.747C68.7387 213.742 68.7792 213.734 68.8196 213.73C69.0507 213.706 69.2919 213.711 69.5331 213.728C69.4017 213.73 69.2847 213.819 69.2616 213.951C69.2442 214.056 69.2876 214.157 69.367 214.216C69.3771 214.248 69.393 214.28 69.4161 214.307C69.471 214.373 69.549 214.408 69.6284 214.408C69.6891 214.408 69.7512 214.388 69.8017 214.346C69.9115 214.255 69.9577 214.127 69.9245 214.002C69.8754 213.817 69.6934 213.754 69.6111 213.734C69.845 213.754 70.0761 213.787 70.2971 213.825C70.2711 213.842 70.2465 213.862 70.2278 213.889C70.1584 213.987 70.1613 214.115 70.2278 214.209C70.2249 214.283 70.2509 214.357 70.3072 214.414C70.3606 214.467 70.4314 214.494 70.5007 214.494C70.57 214.494 70.6408 214.467 70.6942 214.414C70.7679 214.34 70.8055 214.239 70.7968 214.137C70.7896 214.051 70.7506 213.967 70.687 213.898C70.7636 213.912 70.8387 213.928 70.9094 213.943C71.1535 213.992 71.3629 214.033 71.5247 214.051C71.5998 214.059 71.7052 214.068 71.828 214.079C71.8569 214.215 71.9276 214.353 72.0157 214.411C72.0619 214.442 72.1154 214.457 72.1674 214.457C72.2555 214.457 72.3436 214.414 72.3956 214.334C72.4389 214.271 72.4476 214.196 72.4317 214.127C72.8592 214.157 73.3473 214.189 73.7705 214.212C73.7517 214.291 73.7416 214.379 73.7589 214.458C73.7864 214.588 73.9048 214.686 74.0333 214.686C74.0507 214.686 74.068 214.684 74.0868 214.68C74.2355 214.648 74.3308 214.514 74.2991 214.368C74.2991 214.356 74.3063 214.329 74.3106 214.314C74.3236 214.29 74.3294 214.264 74.3352 214.239C74.4117 214.242 74.4839 214.245 74.5431 214.247C74.9013 214.255 75.5729 214.226 75.8617 214.068C75.8935 214.185 75.9946 214.272 76.1217 214.272C76.2733 214.272 76.3961 214.15 76.3961 213.999V213.802C76.3961 213.794 76.3932 213.789 76.3918 213.781C76.4828 213.742 76.5766 213.709 76.6705 213.689C76.6691 213.701 76.6633 213.711 76.6633 213.722C76.6633 213.874 76.786 213.996 76.9377 213.996H76.9955C77.1471 213.996 77.2699 213.874 77.2699 213.722C77.2699 213.717 77.267 213.711 77.267 213.705C77.3536 213.721 77.4403 213.74 77.5284 213.761C77.6714 213.794 77.8187 213.827 77.9703 213.846C78.1017 213.862 78.327 213.871 78.5596 213.868C78.5379 213.885 78.5162 213.904 78.5003 213.928L78.4628 213.986C78.3805 214.113 78.4166 214.283 78.5437 214.365C78.5899 214.395 78.6419 214.408 78.6924 214.408C78.782 214.408 78.8701 214.363 78.9235 214.283L78.9611 214.225C79.0405 214.101 79.0073 213.94 78.8874 213.855C78.8961 213.855 78.9062 213.853 78.9148 213.853C79.0708 213.84 79.3698 213.83 79.6687 213.822C79.6687 213.899 79.6991 213.977 79.7641 214.031L79.7987 214.059C79.8507 214.103 79.9128 214.123 79.9735 214.123C80.0529 214.123 80.1294 214.09 80.1843 214.025C80.2378 213.961 80.2537 213.881 80.2407 213.804C80.3288 213.802 80.4067 213.799 80.4674 213.796C80.6075 213.789 80.7736 213.79 80.9339 213.799C80.9267 213.807 80.918 213.816 80.9108 213.825C80.8169 213.943 80.8371 214.115 80.9556 214.209C81.074 214.303 81.2473 214.283 81.3412 214.164C81.4365 214.045 81.578 213.947 81.7109 213.879C81.7123 213.879 81.7123 213.878 81.7138 213.878C81.8351 213.816 81.9506 213.78 82.0156 213.776C81.9694 213.858 81.8539 213.987 81.7412 214.078C81.6228 214.173 81.604 214.344 81.6993 214.463C81.7542 214.53 81.8337 214.565 81.9131 214.565C81.9737 214.565 82.033 214.545 82.0849 214.504C82.0965 214.496 82.1124 214.483 82.1283 214.468C82.1095 214.506 82.0965 214.546 82.0965 214.589V214.68C82.0965 214.831 82.2193 214.954 82.3709 214.954C82.5052 214.954 82.6106 214.856 82.6352 214.729C82.6569 214.746 82.6771 214.762 82.6959 214.774C82.7868 214.834 82.8851 215.024 82.9602 215.184C83.0251 215.324 83.0916 215.471 83.1508 215.603C83.2086 215.731 83.2606 215.849 83.3039 215.937C83.3891 216.114 83.3862 216.171 83.3905 216.171C83.21 216.302 83.1465 216.309 83.1479 216.31C83.1046 216.303 83.0425 216.284 82.9847 216.269C82.8446 216.23 82.7681 216.208 82.68 216.23C82.5327 216.266 82.4431 216.415 82.4807 216.561C82.4966 216.626 82.5355 216.678 82.5847 216.714C82.4763 216.755 82.472 216.752 82.3622 216.647C82.1283 216.423 81.8669 216.207 81.5332 216.148C81.4509 216.133 81.2921 216.125 81.0971 216.127C81.1216 216.067 81.1274 215.996 81.1029 215.93C81.0509 215.788 80.8935 215.716 80.7505 215.767L80.6869 215.79C80.5439 215.842 80.4717 215.999 80.5237 216.142C80.5266 216.15 80.5338 216.158 80.5382 216.166C80.3807 216.185 80.2233 216.212 80.0746 216.248C80.0876 216.143 80.102 216.063 80.1107 216.035C80.167 215.896 80.0991 215.736 79.9576 215.679C79.8161 215.623 79.6572 215.691 79.6009 215.832C79.5633 215.926 79.5171 216.205 79.4998 216.512C79.4665 216.499 79.429 216.482 79.3943 216.466C79.2571 216.402 79.0939 216.463 79.0304 216.601C78.9668 216.738 79.0275 216.901 79.1661 216.964C79.3597 217.052 79.4535 217.078 79.5113 217.084C79.5171 217.125 79.5214 217.169 79.5287 217.207C79.5388 217.256 79.5546 217.323 79.5749 217.402C79.5619 217.408 79.5489 217.408 79.5359 217.415L79.4781 217.449C79.3481 217.527 79.3062 217.696 79.3842 217.825C79.4362 217.91 79.5272 217.958 79.6196 217.958C79.6572 217.958 79.6933 217.948 79.7294 217.932C79.855 218.328 80.0226 218.782 80.1858 219.088C80.1598 219.101 80.1338 219.116 80.1121 219.137L80.0529 219.195C79.9778 219.267 79.8854 219.356 79.9041 219.507C79.9143 219.592 79.9807 219.685 80.0558 219.728C80.0991 219.752 80.1453 219.764 80.1916 219.764C80.2869 219.764 80.3793 219.715 80.4299 219.626C80.44 219.607 80.4486 219.588 80.4544 219.568L80.4891 219.535C80.6133 219.709 80.7808 219.951 80.9556 220.204C81.4379 220.904 81.7918 221.413 81.955 221.583C82.3449 221.987 82.8822 222.248 83.3934 222.283C83.4786 222.288 83.5407 222.309 83.561 222.339C83.5797 222.362 83.5898 222.431 83.5725 222.529Z" fill="#FAFF00"/>
<path d="M72.1289 216.26C72.1419 216.207 72.1376 216.153 72.1188 216.104C72.204 216.008 72.2112 215.861 72.1289 215.756C72.035 215.636 71.8632 215.615 71.7433 215.708C71.6321 215.795 71.4963 216.005 71.5411 216.207C71.57 216.336 71.6682 216.434 71.7982 216.464C71.8184 216.469 71.8401 216.472 71.8603 216.472C71.9874 216.472 72.1 216.387 72.1289 216.26Z" fill="#FAFF00"/>
<path d="M73.2276 216.945C73.2926 216.932 73.4125 216.886 73.4862 216.72C73.515 216.654 73.6046 216.372 73.5035 216.203C73.4024 216.036 73.2074 216.029 72.9258 216.074C72.7756 216.097 72.673 216.237 72.6976 216.386C72.7149 216.5 72.8016 216.587 72.9085 216.611C72.8984 216.65 72.8969 216.69 72.9056 216.731C72.9316 216.86 73.0457 216.951 73.1742 216.951C73.1915 216.951 73.2089 216.949 73.2276 216.945Z" fill="#FAFF00"/>
<path d="M73.9758 215.64C74.061 215.557 74.0842 215.424 74.0235 215.315C73.9513 215.183 73.7852 215.134 73.6509 215.206C73.4487 215.315 73.3418 215.485 73.3635 215.662C73.3823 215.809 73.4891 215.929 73.6393 215.967C73.6624 215.973 73.6855 215.976 73.7072 215.976C73.83 215.976 73.9412 215.894 73.9729 215.772C73.9859 215.727 73.9859 215.682 73.9758 215.64Z" fill="#FAFF00"/>
<path d="M72.7979 215.881C72.8065 215.881 72.8152 215.882 72.8224 215.882C72.9625 215.882 73.0824 215.776 73.0954 215.633C73.104 215.538 73.0636 215.45 72.9928 215.396C72.9899 215.299 72.9351 215.206 72.8412 215.159C72.7054 215.092 72.5408 215.146 72.4729 215.282C72.4079 215.411 72.4094 215.555 72.4758 215.676C72.5422 215.792 72.6621 215.868 72.7979 215.881Z" fill="#FAFF00"/>
<path d="M71.9647 215.344C71.9994 215.344 72.0355 215.337 72.0701 215.322C72.177 215.278 72.3662 215.154 72.4023 214.97C72.4225 214.869 72.3922 214.766 72.3214 214.696C72.2146 214.589 72.0413 214.589 71.9329 214.696C71.8983 214.73 71.8752 214.771 71.8636 214.814C71.8622 214.815 71.8607 214.815 71.8593 214.817C71.7192 214.874 71.6542 215.036 71.712 215.175C71.7539 215.281 71.8564 215.344 71.9647 215.344Z" fill="#FAFF00"/>
<path d="M71.2732 214.778C71.2804 214.779 71.2891 214.779 71.2963 214.779C71.4379 214.779 71.5577 214.671 71.5693 214.529C71.5765 214.448 71.5476 214.373 71.4956 214.319C71.5101 214.175 71.409 214.043 71.2631 214.022C71.1143 213.997 70.9728 214.103 70.9511 214.252C70.9367 214.343 70.9122 214.512 71.0205 214.647C71.0811 214.723 71.1707 214.769 71.2732 214.778Z" fill="#FAFF00"/>
<path d="M69.0393 214.248C68.8978 214.196 68.7404 214.27 68.6869 214.412C68.6465 214.525 68.684 214.646 68.7707 214.718C68.775 214.739 68.7837 214.761 68.7938 214.782C68.8415 214.879 68.9382 214.934 69.0393 214.934C69.0798 214.934 69.1231 214.925 69.1621 214.905C69.2805 214.846 69.3484 214.731 69.3412 214.602C69.3339 214.45 69.2141 214.311 69.0393 214.248Z" fill="#FAFF00"/>
<path d="M69.7139 215.106C69.7615 215.144 69.8179 215.161 69.8742 215.161C69.9536 215.161 70.033 215.125 70.0879 215.056C70.1009 215.039 70.1125 215.021 70.1211 215.003C70.2035 214.944 70.2439 214.838 70.2222 214.728C70.1934 214.579 70.0374 214.486 69.8901 214.513C69.8077 214.529 69.6157 214.563 69.568 214.761C69.5507 214.836 69.5449 214.978 69.7139 215.106Z" fill="#FAFF00"/>
<path d="M70.6209 215.336C70.6672 215.372 70.7264 215.393 70.7899 215.393C70.7971 215.393 70.8058 215.393 70.813 215.392C70.9632 215.379 71.0759 215.246 71.0643 215.096C71.0557 214.993 71.0051 214.903 70.9228 214.844C70.7683 214.734 70.5675 214.784 70.4924 214.803C70.3451 214.839 70.2556 214.988 70.2931 215.134C70.3292 215.281 70.4765 215.369 70.6209 215.336Z" fill="#FAFF00"/>
<path d="M70.8585 215.693C70.8585 215.697 70.8571 215.701 70.8571 215.707C70.7907 215.757 70.7488 215.835 70.7488 215.924C70.7488 216.076 70.8715 216.198 71.0232 216.198C71.2889 216.198 71.4073 215.909 71.4073 215.703C71.4073 215.556 71.2918 215.443 71.1445 215.436C70.9943 215.429 70.8701 215.547 70.8585 215.693Z" fill="#FAFF00"/>
<path d="M70.5071 216.415C70.5389 216.325 70.5201 216.23 70.4666 216.158C70.5172 216.025 70.4565 215.872 70.3251 215.812C70.1879 215.749 70.0247 215.808 69.9611 215.946C69.8875 216.106 69.8759 216.248 69.9265 216.369C69.9684 216.469 70.0507 216.544 70.1576 216.581C70.1879 216.591 70.2182 216.597 70.2486 216.597C70.3612 216.598 70.4681 216.528 70.5071 216.415Z" fill="#FAFF00"/>
<path d="M69.6559 215.883C69.7195 215.883 69.7816 215.861 69.8336 215.818C69.861 215.795 69.8827 215.767 69.8986 215.739C69.9838 215.685 70.0372 215.586 70.0257 215.479C70.0112 215.33 69.8769 215.219 69.7253 215.234C69.5678 215.25 69.4436 215.335 69.3931 215.461C69.3483 215.57 69.37 215.695 69.4465 215.786C69.5 215.849 69.5779 215.883 69.6559 215.883Z" fill="#FAFF00"/>
<path d="M71.2712 217.098C71.1456 217.174 70.9853 217.419 71.0199 217.631C71.043 217.765 71.1586 217.86 71.29 217.86C71.3044 217.86 71.3203 217.859 71.3362 217.856C71.4734 217.833 71.5687 217.713 71.5659 217.579C71.5687 217.573 71.5716 217.566 71.576 217.56C71.6034 217.543 71.628 217.522 71.6482 217.494C71.7392 217.373 71.7146 217.202 71.5947 217.111C71.5023 217.043 71.3666 217.041 71.2712 217.098Z" fill="#FAFF00"/>
<path d="M72.2294 216.787C72.1283 216.817 72.0475 216.891 71.9998 216.994C71.9377 217.13 71.929 217.326 71.981 217.439C72.0273 217.542 72.1269 217.601 72.2309 217.601C72.2684 217.601 72.306 217.593 72.3435 217.576C72.4692 217.52 72.5313 217.383 72.4966 217.255C72.4966 217.252 72.4966 217.249 72.4966 217.246C72.5703 217.177 72.6021 217.071 72.5717 216.968C72.527 216.826 72.3739 216.744 72.2294 216.787Z" fill="#FAFF00"/>
<path d="M71.0356 216.469C70.8998 216.401 70.7352 216.456 70.6673 216.591C70.6572 216.611 70.6095 216.659 70.5835 216.683C70.5041 216.761 70.3712 216.891 70.4348 217.079C70.4738 217.195 70.5806 217.267 70.6947 217.267C70.7236 217.267 70.7525 217.262 70.7814 217.252C70.8623 217.225 70.9229 217.164 70.9504 217.091C70.9561 217.085 70.9619 217.079 70.9677 217.074C71.0255 217.016 71.1063 216.938 71.1569 216.836C71.2262 216.701 71.1713 216.536 71.0356 216.469Z" fill="#FAFF00"/>
<path d="M73.2057 217.36C73.171 217.412 73.1523 217.458 73.1378 217.497C73.1234 217.534 73.1147 217.555 73.0916 217.582C72.9948 217.699 73.0107 217.87 73.1263 217.968C73.1783 218.011 73.2404 218.031 73.3025 218.031C73.3819 218.031 73.4584 217.998 73.5133 217.933C73.5942 217.837 73.6274 217.753 73.6491 217.697C73.6534 217.686 73.6577 217.674 73.6635 217.664C73.7473 217.539 73.7126 217.369 73.587 217.285C73.4599 217.2 73.2895 217.235 73.2057 217.36Z" fill="#FAFF00"/>
<path d="M74.5772 216.788C74.5815 216.72 74.5598 216.65 74.5122 216.594C74.414 216.479 74.2407 216.466 74.1251 216.563C73.9619 216.702 73.9605 216.853 73.9749 216.931C74.0024 217.082 74.1208 217.196 74.3244 217.269C74.3547 217.281 74.3865 217.285 74.4168 217.285C74.5295 217.285 74.6349 217.216 74.6754 217.104C74.7187 216.984 74.6739 216.857 74.5772 216.788Z" fill="#FAFF00"/>
<path d="M75.3076 217.532C75.1878 217.546 74.9726 217.647 74.8744 217.823C74.8007 217.954 74.844 218.125 74.9755 218.2C75.0188 218.224 75.0664 218.236 75.1127 218.236C75.2065 218.236 75.2961 218.188 75.3466 218.099C75.3553 218.09 75.3813 218.075 75.377 218.073C75.5272 218.054 75.634 217.918 75.6152 217.768C75.595 217.619 75.4578 217.513 75.3076 217.532Z" fill="#FAFF00"/>
<path d="M73.0839 215.053C73.0912 215.053 73.0984 215.053 73.1056 215.051C73.2572 215.041 73.3713 214.912 73.3612 214.761C73.3526 214.64 73.2673 214.542 73.1561 214.513C73.1013 214.422 72.9944 214.367 72.8817 214.383C72.7315 214.405 72.6276 214.543 72.6492 214.693C72.6723 214.857 72.8789 215.053 73.0839 215.053Z" fill="#FAFF00"/>
<path d="M74.4163 215.387L74.6011 215.186L74.4192 215.39C74.4712 215.436 74.5361 215.459 74.6011 215.459C74.6762 215.459 74.7513 215.429 74.8062 215.367C74.8885 215.275 74.8972 215.141 74.8351 215.042C74.8524 214.967 74.838 214.886 74.7889 214.82C74.6993 214.698 74.5275 214.672 74.4062 214.761C74.308 214.833 74.2502 214.934 74.2444 215.045C74.2357 215.227 74.3715 215.347 74.4163 215.387Z" fill="#FAFF00"/>
<path d="M75.0313 216.223C75.0832 216.094 75.0298 215.952 74.9143 215.884C74.8709 215.766 74.7467 215.691 74.6182 215.707C74.468 215.729 74.364 215.867 74.3857 216.017C74.4146 216.22 74.5821 216.338 74.676 216.375C74.7092 216.388 74.7438 216.395 74.7771 216.395C74.8854 216.395 74.9894 216.331 75.0313 216.223Z" fill="#FAFF00"/>
<path d="M75.7489 216.45C75.7417 216.438 75.733 216.423 75.7287 216.411C75.6795 216.268 75.5236 216.192 75.3791 216.243C75.2362 216.292 75.1596 216.447 75.2102 216.591C75.2217 216.626 75.3329 216.927 75.5669 216.95C75.577 216.951 75.5857 216.951 75.5958 216.951C75.7344 216.951 75.8543 216.846 75.8687 216.705C75.8774 216.601 75.8283 216.506 75.7489 216.45Z" fill="#FAFF00"/>
<path d="M74.417 219.182C74.3983 219.201 74.3824 219.216 74.3694 219.229C74.2481 219.27 74.1686 219.391 74.1845 219.522C74.2018 219.661 74.3188 219.764 74.456 219.764C74.4676 219.764 74.4777 219.764 74.4893 219.762C74.599 219.749 74.6842 219.72 74.7622 219.617C74.768 219.61 74.7767 219.598 74.794 219.582C74.9038 219.479 74.9095 219.306 74.8055 219.195C74.7016 219.084 74.5268 219.08 74.417 219.182Z" fill="#FAFF00"/>
<path d="M68.3975 218.058C68.2834 218.178 68.1881 218.39 68.3007 218.586C68.3513 218.675 68.4437 218.725 68.5405 218.725C68.5867 218.725 68.6329 218.714 68.6748 218.689C68.7744 218.633 68.825 218.524 68.812 218.416C68.9001 218.306 68.89 218.146 68.786 218.047C68.6762 217.945 68.5029 217.949 68.3975 218.058Z" fill="#FAFF00"/>
<path d="M68.8215 216.731C68.7276 216.704 68.6164 216.732 68.5457 216.8C68.4027 216.937 68.4027 217.297 68.4171 217.355C68.4475 217.48 68.5601 217.563 68.6829 217.563C68.7045 217.563 68.7262 217.56 68.7479 217.555C68.8793 217.523 68.9645 217.402 68.9558 217.272C68.9573 217.244 68.9645 217.187 68.9717 217.147C68.9876 217.123 69.0006 217.097 69.0093 217.068C69.0512 216.923 68.9674 216.771 68.8215 216.731Z" fill="#FAFF00"/>
<path d="M69.1634 215.995C69.0536 215.89 68.8803 215.894 68.7749 216.003C68.6709 216.113 68.6738 216.286 68.7835 216.391L68.8153 216.421C68.8687 216.471 68.9366 216.497 69.0045 216.497C69.0767 216.497 69.1489 216.469 69.2023 216.412C69.3063 216.303 69.3034 216.13 69.1937 216.025L69.1634 215.995Z" fill="#FAFF00"/>
<path d="M67.6405 216.458C67.4989 216.404 67.3401 216.473 67.2852 216.614L67.2447 216.716C67.1899 216.857 67.2592 217.016 67.4007 217.071C67.4339 217.084 67.4672 217.089 67.5004 217.089C67.6101 217.089 67.7141 217.023 67.756 216.915L67.7964 216.813C67.8513 216.672 67.7806 216.513 67.6405 216.458Z" fill="#FAFF00"/>
<path d="M68.4454 216.598C68.4584 216.503 68.4873 216.307 68.3255 216.201C68.1984 216.117 68.028 216.152 67.9457 216.277C67.9024 216.342 67.8908 216.418 67.9067 216.489C67.9052 216.505 67.9024 216.519 67.9024 216.522C67.8807 216.672 67.9861 216.81 68.1349 216.832C68.1479 216.833 68.1609 216.834 68.1739 216.834C68.3082 216.834 68.4266 216.735 68.4454 216.598Z" fill="#FAFF00"/>
<path d="M68.4818 215.867C68.6334 215.867 68.7547 215.757 68.7547 215.606C68.7576 215.587 68.7663 215.558 68.7735 215.531C68.7995 215.429 68.8168 215.361 68.788 215.276C68.7403 215.134 68.5843 215.056 68.4399 215.103C68.3316 215.139 68.2608 215.237 68.2536 215.345C68.2507 215.358 68.2449 215.376 68.2406 215.394C68.2189 215.475 68.2059 215.528 68.2059 215.58C68.2088 215.731 68.3301 215.867 68.4818 215.867Z" fill="#FAFF00"/>
<path d="M65.5173 217.049C65.5173 217.107 65.5563 217.288 65.5765 217.34C65.6184 217.445 65.7181 217.507 65.8264 217.507C65.8567 217.507 65.8885 217.501 65.9188 217.491C66.0575 217.444 66.1326 217.291 66.0907 217.15C66.082 217.121 66.0676 217.049 66.0633 217.022C66.0503 216.883 65.9333 216.775 65.7903 216.775C65.6401 216.775 65.5173 216.898 65.5173 217.049Z" fill="#FAFF00"/>
<path d="M66.3366 218.518C66.3511 218.521 66.3655 218.521 66.38 218.521C66.5128 218.521 66.6298 218.424 66.65 218.29C66.6558 218.253 66.6732 218.12 66.6457 218.004C66.6125 217.86 66.4724 217.776 66.3265 217.805C66.1807 217.834 66.0868 217.979 66.1099 218.125C66.1128 218.139 66.1099 218.18 66.107 218.205C66.0839 218.354 66.1864 218.495 66.3366 218.518Z" fill="#FAFF00"/>
<path d="M65.1688 217.747C65.0605 217.877 65.0547 218.139 65.0619 218.195C65.0822 218.332 65.202 218.442 65.3378 218.442C65.3493 218.442 65.3623 218.44 65.3739 218.439C65.5241 218.417 65.6295 218.29 65.6079 218.141C65.6079 218.123 65.6151 218.079 65.6208 218.054C65.683 217.942 65.6584 217.798 65.5559 217.713C65.4374 217.615 65.2656 217.631 65.1688 217.747Z" fill="#FAFF00"/>
<path d="M67.2952 216.035L67.2432 215.881C67.1955 215.739 67.041 215.659 66.8966 215.708C66.7521 215.756 66.6756 215.911 66.7232 216.054L66.7752 216.208C66.8142 216.323 66.9211 216.395 67.0352 216.395C67.0641 216.395 67.093 216.391 67.1219 216.381C67.2648 216.333 67.3428 216.178 67.2952 216.035Z" fill="#FAFF00"/>
<path d="M68.0024 215.894V215.834C68.0024 215.682 67.8797 215.56 67.728 215.56C67.5764 215.56 67.4536 215.682 67.4536 215.834V215.894C67.4536 216.045 67.5764 216.168 67.728 216.168C67.8797 216.168 68.0024 216.045 68.0024 215.894Z" fill="#FAFF00"/>
<path d="M66.9498 215.073C66.9888 215.187 67.0957 215.257 67.2098 215.257C67.2387 215.257 67.269 215.253 67.2993 215.243C67.4423 215.194 67.5188 215.038 67.4697 214.896L67.4178 214.746C67.3686 214.604 67.2127 214.526 67.0697 214.576C66.9267 214.625 66.8502 214.781 66.8993 214.923L66.9498 215.073Z" fill="#FAFF00"/>
<path d="M69.3179 216.889C69.3569 217.003 69.4637 217.074 69.5778 217.074C69.6067 217.074 69.637 217.069 69.6674 217.059C69.8103 217.01 69.8869 216.855 69.8378 216.712L69.7858 216.562C69.7367 216.42 69.5807 216.342 69.4377 216.392C69.2948 216.441 69.2182 216.597 69.2673 216.739L69.3179 216.889Z" fill="#FAFF00"/>
<path d="M67.6785 214.892C67.7174 215.005 67.8243 215.076 67.9384 215.076C67.9673 215.076 67.9976 215.072 68.028 215.062C68.1709 215.013 68.2475 214.857 68.1984 214.715L68.1464 214.565C68.0973 214.422 67.9413 214.344 67.7983 214.395C67.6553 214.444 67.5788 214.599 67.6279 214.742L67.6785 214.892Z" fill="#FAFF00"/>
<path d="M66.7357 215.236L66.6375 215.049C66.5667 214.915 66.4006 214.864 66.2663 214.935C66.132 215.006 66.0814 215.171 66.1522 215.305L66.2504 215.492C66.2995 215.586 66.3948 215.638 66.493 215.638C66.5364 215.638 66.5797 215.628 66.6201 215.606C66.7559 215.534 66.8064 215.368 66.7357 215.236Z" fill="#FAFF00"/>
<path d="M78.0438 217.386C77.9455 217.271 77.7722 217.258 77.6567 217.356C77.5411 217.454 77.5282 217.626 77.6264 217.742L77.6957 217.821C77.7506 217.884 77.8271 217.916 77.9037 217.916C77.9672 217.916 78.0307 217.894 78.0813 217.85C78.1968 217.752 78.2098 217.579 78.1116 217.464L78.0438 217.386Z" fill="#FAFF00"/>
<path d="M78.8873 217.01C78.8873 216.82 78.7486 216.709 78.6114 216.698C78.4092 216.679 78.194 216.904 78.1709 217.052C78.1464 217.202 78.2475 217.341 78.3977 217.366C78.4121 217.369 78.428 217.369 78.4424 217.369C78.5204 217.369 78.5926 217.336 78.6432 217.281C78.7804 217.267 78.8873 217.151 78.8873 217.01Z" fill="#FAFF00"/>
<path d="M78.901 217.686C78.7913 217.648 78.6757 217.681 78.5761 217.775C78.4389 217.903 78.4577 218.041 78.4721 218.095C78.501 218.201 78.5862 218.282 78.7003 218.308C78.7205 218.312 78.7422 218.315 78.7624 218.315C78.8823 218.315 78.9906 218.236 79.0252 218.119C79.0455 218.095 79.0628 218.064 79.0729 218.033C79.122 217.89 79.044 217.735 78.901 217.686Z" fill="#FAFF00"/>
<path d="M79.3587 218.247C79.2388 218.295 79.1594 218.404 79.158 218.527C79.1551 218.623 79.2056 218.751 79.3515 218.818C79.3876 218.835 79.4266 218.842 79.4656 218.842C79.5696 218.842 79.6692 218.783 79.7154 218.682C79.7212 218.669 79.7255 218.656 79.7299 218.643C79.7934 218.538 79.779 218.4 79.688 218.311C79.6042 218.227 79.4742 218.201 79.3587 218.247Z" fill="#FAFF00"/>
<path d="M77.5261 216.044C77.581 216.044 77.6373 216.027 77.6864 215.992C77.8092 215.904 77.8366 215.733 77.7485 215.611C77.7399 215.598 77.7269 215.579 77.7167 215.562C77.7139 215.495 77.6879 215.431 77.6373 215.38C77.5304 215.274 77.3571 215.274 77.2488 215.38C77.1159 215.513 77.1347 215.697 77.3037 215.93C77.3571 216.005 77.4409 216.044 77.5261 216.044Z" fill="#FAFF00"/>
<path d="M78.7745 215.356C78.8482 215.356 78.9219 215.327 78.9753 215.269C79.0605 215.178 79.0706 215.043 79.0099 214.942C79.0186 214.814 78.9363 214.693 78.8078 214.659C78.6619 214.618 78.5102 214.706 78.4712 214.853C78.4294 215.01 78.4741 215.178 78.5882 215.284C78.6402 215.331 78.7067 215.356 78.7745 215.356Z" fill="#FAFF00"/>
<path d="M78.8849 215.77C78.8849 215.881 78.9585 216.054 79.0784 216.14C79.1362 216.182 79.2012 216.204 79.2676 216.204C79.3008 216.204 79.334 216.198 79.3658 216.188C79.5102 216.14 79.5882 215.985 79.5391 215.842C79.5174 215.779 79.4756 215.728 79.4221 215.695C79.3889 215.582 79.2835 215.498 79.1593 215.498C79.0076 215.497 78.8849 215.619 78.8849 215.77Z" fill="#FAFF00"/>
<path d="M78.0458 215.972C78.0689 216.106 78.1844 216.201 78.3158 216.201C78.3303 216.201 78.3462 216.199 78.3621 216.197C78.5108 216.172 78.6119 216.031 78.5874 215.881C78.5874 215.878 78.5859 215.868 78.5859 215.86C78.6394 215.752 78.6162 215.618 78.5224 215.534C78.4097 215.433 78.235 215.443 78.1353 215.557C78.0183 215.687 78.0284 215.873 78.0458 215.972Z" fill="#FAFF00"/>
<path d="M77.6797 215.246C77.7028 215.38 77.8184 215.475 77.9498 215.475C77.9642 215.475 77.9801 215.474 77.996 215.471C78.1448 215.446 78.2459 215.305 78.2213 215.155C78.2213 215.152 78.2199 215.142 78.2199 215.134C78.2733 215.026 78.2502 214.892 78.1563 214.808C78.0437 214.707 77.8689 214.717 77.7693 214.831C77.6537 214.961 77.6638 215.147 77.6797 215.246Z" fill="#FAFF00"/>
<path d="M77.1345 216.88C77.1576 217.014 77.2731 217.109 77.4046 217.109C77.419 217.109 77.4349 217.108 77.4508 217.105C77.5995 217.081 77.7006 216.94 77.6761 216.79C77.6761 216.787 77.6746 216.777 77.6746 216.768C77.7281 216.66 77.705 216.526 77.6111 216.443C77.4984 216.342 77.3237 216.352 77.224 216.466C77.107 216.595 77.1186 216.781 77.1345 216.88Z" fill="#FAFF00"/>
<path d="M76.4672 215.976L76.4499 215.937C76.3863 215.799 76.2231 215.738 76.0859 215.802C75.9487 215.865 75.8866 216.026 75.9502 216.165L75.9689 216.207C76.005 216.289 76.0874 216.482 76.3199 216.482C76.4715 216.482 76.5943 216.359 76.5943 216.208C76.5957 216.11 76.5437 216.024 76.4672 215.976Z" fill="#FAFF00"/>
<path d="M75.2884 215.272C75.2161 215.32 75.1627 215.42 75.1569 215.505C75.1497 215.621 75.2003 215.74 75.2898 215.816C75.3418 215.861 75.4053 215.883 75.4674 215.883C75.5454 215.883 75.622 215.85 75.6754 215.788C75.7491 215.701 75.7606 215.583 75.713 215.487C75.7101 215.439 75.6956 215.392 75.6667 215.35C75.5844 215.223 75.4155 215.189 75.2884 215.272Z" fill="#FAFF00"/>
<path d="M75.3422 214.928C75.3985 214.928 75.4563 214.911 75.5054 214.875C75.5906 214.811 75.6282 214.71 75.6137 214.612C75.6296 214.507 75.5834 214.398 75.4881 214.339C75.3596 214.258 75.1906 214.299 75.1097 214.425C75.0216 214.566 75.0519 214.723 75.1213 214.817C75.1747 214.89 75.2585 214.928 75.3422 214.928Z" fill="#FAFF00"/>
<path d="M76.7272 215.118C76.5755 215.118 76.4528 215.241 76.4528 215.392V215.447C76.4528 215.598 76.5755 215.72 76.7272 215.72C76.8788 215.72 77.0016 215.598 77.0016 215.447V215.392C77.0016 215.241 76.8788 215.118 76.7272 215.118Z" fill="#FAFF00"/>
<path d="M76.1205 215.196C76.2721 215.196 76.3949 215.073 76.3949 214.922V214.821C76.3949 214.67 76.2721 214.548 76.1205 214.548C75.9688 214.548 75.8461 214.67 75.8461 214.821V214.922C75.8461 215.073 75.9688 215.196 76.1205 215.196Z" fill="#FAFF00"/>
<path d="M77.3376 214.612V214.536C77.3376 214.385 77.2149 214.262 77.0632 214.262C76.9116 214.262 76.7888 214.385 76.7888 214.536V214.612C76.7888 214.764 76.9116 214.886 77.0632 214.886C77.2149 214.886 77.3376 214.764 77.3376 214.612Z" fill="#FAFF00"/>
<path d="M77.8078 214.428H77.8714C78.023 214.428 78.1458 214.306 78.1458 214.154C78.1458 214.003 78.023 213.881 77.8714 213.881H77.8078C77.6562 213.881 77.5334 214.003 77.5334 214.154C77.5334 214.306 77.6562 214.428 77.8078 214.428Z" fill="#FAFF00"/>
<path d="M79.4031 214.935C79.2731 215.012 79.2313 215.181 79.3092 215.311L79.3612 215.396C79.4132 215.481 79.5042 215.528 79.5966 215.528C79.6443 215.528 79.6934 215.515 79.7382 215.489C79.8682 215.411 79.91 215.243 79.8321 215.113L79.7801 215.028C79.7021 214.899 79.5331 214.857 79.4031 214.935Z" fill="#FAFF00"/>
<path d="M79.5034 214.753C79.5583 214.753 79.6146 214.738 79.6623 214.703L79.7027 214.674C79.8255 214.586 79.8544 214.415 79.7663 214.293C79.6782 214.17 79.5063 214.141 79.3836 214.229L79.3431 214.258C79.2204 214.346 79.1915 214.517 79.2796 214.64C79.3345 214.713 79.4182 214.753 79.5034 214.753Z" fill="#FAFF00"/>
<path d="M80.2248 214.856C80.2854 214.856 80.3475 214.836 80.3981 214.794L80.4891 214.72C80.6061 214.625 80.6248 214.453 80.5295 214.336C80.4342 214.218 80.2609 214.201 80.1439 214.296L80.0529 214.369C79.9359 214.464 79.9172 214.637 80.0125 214.754C80.0659 214.821 80.1453 214.856 80.2248 214.856Z" fill="#FAFF00"/>
<path d="M80.3905 214.938C80.2389 214.938 80.1161 215.06 80.1161 215.211V215.281C80.1161 215.432 80.2389 215.554 80.3905 215.554C80.5421 215.554 80.6649 215.432 80.6649 215.281V215.211C80.6649 215.062 80.5421 214.938 80.3905 214.938Z" fill="#FAFF00"/>
<path d="M43.8127 238.336L46.6217 242.485C46.6449 242.521 46.6737 242.542 46.7127 242.557C46.7633 242.574 46.8124 242.583 46.8615 242.583H47.2587C47.3164 242.583 47.328 242.571 47.328 242.514V237.185C47.328 237.127 47.3164 237.116 47.2587 237.116H46.8052C46.7474 237.116 46.7358 237.127 46.7358 237.185V241.278C46.7358 241.323 46.7358 241.441 46.6391 241.47C46.5423 241.498 46.4773 241.399 46.4528 241.362L43.7073 237.212C43.6842 237.178 43.6567 237.155 43.6163 237.142C43.5657 237.125 43.5166 237.116 43.4675 237.116H43.0068C42.9491 237.116 42.9375 237.127 42.9375 237.185V242.514C42.9375 242.571 42.9491 242.583 43.0068 242.583H43.4618C43.5195 242.583 43.5311 242.571 43.5311 242.514V238.421C43.5311 238.378 43.5311 238.261 43.6264 238.232C43.6394 238.228 43.651 238.226 43.6625 238.226C43.7391 238.228 43.791 238.304 43.8127 238.336Z" fill="#111111"/>
<path d="M54.2789 241.448C54.3526 241.403 54.3872 241.341 54.3872 241.256V238.444C54.3872 238.357 54.354 238.298 54.2789 238.252L51.854 236.834C51.8136 236.811 51.776 236.799 51.7414 236.799C51.7255 236.799 51.6894 236.803 51.623 236.837L49.2154 238.252C49.136 238.298 49.1013 238.357 49.1013 238.444V241.256C49.1013 241.343 49.136 241.402 49.2154 241.448L51.6287 242.866C51.6836 242.901 51.7284 242.91 51.7992 242.894C51.8136 242.891 51.8295 242.882 51.8468 242.871L54.2789 241.448ZM51.7414 242.283C51.6807 242.283 51.6215 242.266 51.5666 242.233L49.783 241.184C49.6703 241.118 49.6111 241.017 49.6111 240.891V238.81C49.6111 238.684 49.6703 238.582 49.783 238.516L51.5695 237.466C51.7168 237.392 51.8064 237.404 51.9147 237.466L53.7099 238.516C53.8196 238.583 53.8774 238.684 53.8774 238.81V240.891C53.8774 241.016 53.8196 241.117 53.7128 241.183L51.9161 242.233C51.8916 242.25 51.8584 242.266 51.8237 242.273C51.7934 242.28 51.7659 242.283 51.7414 242.283Z" fill="#111111"/>
<path d="M65.0824 237.118C65.0246 237.118 65.0131 237.129 65.0131 237.187V242.515C65.0131 242.573 65.0246 242.584 65.0824 242.584H68.9197C68.9775 242.584 68.989 242.573 68.989 242.515V242.062C68.989 242.004 68.9775 241.992 68.9197 241.992H65.8839C65.7135 241.992 65.6124 241.89 65.6124 241.722V237.187C65.6124 237.129 65.6009 237.118 65.5431 237.118H65.0824Z" fill="#111111"/>
<path d="M88.9139 242.633C89.0107 242.633 89.0713 242.594 89.106 242.512L91.1308 237.943C91.1511 237.897 91.1843 237.833 91.2449 237.833C91.3056 237.833 91.3388 237.897 91.359 237.943L93.3766 242.511C93.4113 242.594 93.4719 242.633 93.5687 242.633H94.0294C94.0699 242.633 94.0901 242.625 94.0959 242.617C94.1002 242.61 94.1016 242.587 94.0857 242.55L91.6652 237.189C91.6305 237.104 91.5699 237.066 91.4731 237.066H91.0124C90.9156 237.066 90.855 237.104 90.8203 237.187V237.188L88.4041 242.551C88.3897 242.587 88.3897 242.61 88.394 242.617C88.3983 242.625 88.4186 242.633 88.4604 242.633H88.9139Z" fill="#111111"/>
<path d="M97.9259 240.173L99.3789 242.492C99.4048 242.555 99.4467 242.581 99.5233 242.581H100.04C100.045 242.581 100.049 242.581 100.053 242.581C100.053 242.58 100.052 242.577 100.052 242.575L98.5527 240.185L98.7203 240.173C98.9138 240.159 99.0987 240.108 99.2705 240.022C99.4424 239.936 99.5955 239.822 99.7226 239.686C99.8497 239.551 99.9508 239.393 100.024 239.215C100.097 239.04 100.133 238.85 100.133 238.652C100.133 238.459 100.095 238.268 100.02 238.083C99.945 237.899 99.8425 237.732 99.7139 237.588C99.5868 237.445 99.4337 237.33 99.259 237.242C99.0871 237.157 98.8979 237.114 98.6986 237.114H95.8679C95.8101 237.114 95.7986 237.126 95.7986 237.183V237.637C95.7986 237.695 95.8101 237.706 95.8679 237.706H98.6813C98.8113 237.715 98.9268 237.746 99.0293 237.8C99.1319 237.853 99.22 237.924 99.2936 238.009C99.3644 238.092 99.4236 238.189 99.467 238.297C99.5103 238.403 99.5363 238.518 99.5449 238.639V238.647V238.654C99.5247 238.901 99.4395 239.113 99.2936 239.286C99.1434 239.465 98.9369 239.563 98.6827 239.58H95.9242C95.8852 239.58 95.8535 239.59 95.826 239.61C95.8116 239.622 95.7986 239.636 95.7986 239.671V242.511C95.7986 242.568 95.8101 242.58 95.8679 242.58H96.3228C96.3806 242.58 96.3922 242.568 96.3922 242.511V240.441C96.3922 240.271 96.4947 240.17 96.6637 240.17H97.9259V240.173Z" fill="#111111"/>
<path d="M86.8313 239.688C86.9584 239.553 87.0595 239.394 87.1332 239.217C87.2054 239.041 87.2415 238.851 87.2415 238.654C87.2415 238.461 87.2039 238.27 87.1288 238.085C87.0537 237.901 86.9512 237.734 86.8227 237.59C86.6956 237.447 86.5425 237.332 86.3677 237.244C86.1944 237.159 86.0067 237.116 85.8074 237.116H82.9767C82.9189 237.116 82.9073 237.127 82.9073 237.185V237.639C82.9073 237.696 82.9189 237.708 82.9767 237.708H85.79C85.92 237.717 86.0356 237.748 86.1381 237.801C86.2406 237.855 86.3287 237.925 86.4024 238.01C86.4732 238.094 86.5324 238.19 86.5757 238.298C86.619 238.405 86.645 238.52 86.6537 238.641V238.648V238.655C86.6335 238.903 86.5483 239.115 86.4024 239.288C86.2522 239.466 86.0457 239.564 85.7915 239.582H83.033C82.994 239.582 82.9622 239.592 82.9348 239.612C82.9203 239.623 82.9073 239.638 82.9073 239.672V242.512C82.9073 242.57 82.9189 242.581 82.9767 242.581H83.4316C83.4894 242.581 83.5009 242.57 83.5009 242.512V240.443C83.5009 240.273 83.6035 240.172 83.7724 240.172L85.829 240.178V240.172C86.0226 240.158 86.2074 240.107 86.3793 240.021C86.5511 239.936 86.7042 239.823 86.8313 239.688Z" fill="#111111"/>
<path d="M102.151 242.583H104.095C104.469 242.583 104.829 242.511 105.161 242.369C105.495 242.228 105.79 242.032 106.039 241.786C106.288 241.541 106.487 241.249 106.632 240.916C106.774 240.585 106.848 240.225 106.848 239.848C106.848 239.558 106.803 239.274 106.714 239.007C106.624 238.737 106.499 238.487 106.338 238.262C106.178 238.037 105.982 237.836 105.755 237.663C105.527 237.49 105.274 237.356 105.001 237.261C104.718 237.163 104.423 237.114 104.124 237.114H102.151C102.094 237.114 102.082 237.126 102.082 237.183V237.637C102.082 237.695 102.094 237.706 102.151 237.706H104.051C104.344 237.726 104.623 237.793 104.887 237.905C105.151 238.017 105.387 238.168 105.587 238.354C105.79 238.541 105.953 238.765 106.073 239.017C106.194 239.272 106.256 239.551 106.256 239.848C106.256 240.14 106.201 240.419 106.094 240.677C105.987 240.935 105.839 241.164 105.649 241.358C105.46 241.553 105.236 241.707 104.984 241.819C104.729 241.933 104.452 241.989 104.163 241.989H102.947C102.777 241.989 102.676 241.887 102.676 241.718V240.823C102.676 240.765 102.664 240.754 102.606 240.754H102.151C102.094 240.754 102.082 240.765 102.082 240.823V242.512C102.082 242.571 102.094 242.583 102.151 242.583Z" fill="#111111"/>
<path d="M38.2735 242.396C38.545 242.516 38.8382 242.578 39.1443 242.578C39.4837 242.578 39.7711 242.54 39.9993 242.463C40.2261 242.387 40.4153 242.292 40.5626 242.178C40.707 242.066 40.8182 241.946 40.8933 241.822C40.9727 241.69 41.0334 241.563 41.0724 241.446C41.1114 241.331 41.1345 241.235 41.1403 241.16C41.1475 241.082 41.1518 241.036 41.1518 241.02C41.1518 240.797 41.1186 240.603 41.0522 240.446C40.9843 240.284 40.8991 240.147 40.7994 240.037C40.7012 239.929 40.59 239.841 40.4702 239.779C40.3358 239.711 40.2059 239.655 40.0831 239.615C39.9603 239.574 39.8491 239.547 39.7538 239.532C39.6556 239.518 39.5834 239.508 39.5401 239.502C39.53 239.501 39.5213 239.499 39.5097 239.498H39.5083C39.348 239.468 39.2007 239.44 39.0678 239.419C38.9118 239.391 38.7746 239.35 38.662 239.295C38.532 239.231 38.428 239.139 38.3529 239.023C38.2764 238.903 38.2388 238.75 38.2388 238.557C38.2388 238.277 38.3616 238.046 38.5926 237.892C38.8021 237.752 39.0866 237.682 39.4404 237.682C39.6065 237.688 39.7596 237.705 39.9011 237.732C40.034 237.764 40.1596 237.81 40.2824 237.872C40.3387 237.901 40.3922 237.934 40.4398 237.973C40.4644 237.992 40.5077 237.989 40.5409 237.966L40.876 237.719C40.9106 237.695 40.915 237.66 40.9164 237.642C40.9164 237.623 40.9121 237.587 40.876 237.559C40.7431 237.456 40.5929 237.366 40.4312 237.294C40.1568 237.171 39.8621 237.109 39.5574 237.109C39.2166 237.109 38.9277 237.145 38.6981 237.217C38.4699 237.289 38.2792 237.378 38.1319 237.482C37.989 237.584 37.8777 237.695 37.8012 237.814C37.7203 237.941 37.6611 238.059 37.625 238.166C37.5889 238.274 37.5672 238.365 37.56 238.434C37.5528 238.503 37.5485 238.547 37.5485 238.562C37.5485 238.753 37.5788 238.922 37.6394 239.06C37.7016 239.204 37.7795 239.327 37.872 239.427C37.9644 239.528 38.0698 239.613 38.1839 239.678C38.3096 239.748 38.4309 239.806 38.545 239.849C38.6591 239.893 38.7616 239.924 38.8512 239.941C38.9407 239.96 39.0057 239.972 39.0461 239.977C39.0562 239.979 39.0664 239.98 39.0794 239.983C39.2397 240.013 39.3956 240.047 39.5415 240.08C39.7047 240.117 39.8506 240.172 39.9791 240.24C40.1206 240.314 40.2347 240.415 40.32 240.539C40.4095 240.67 40.4543 240.833 40.4543 241.026C40.4543 241.295 40.3416 241.529 40.1206 241.723C39.9069 241.91 39.6152 242.004 39.2527 242.004C39.062 242.004 38.893 241.981 38.7501 241.936C38.6114 241.893 38.4959 241.842 38.402 241.788C38.3385 241.75 38.285 241.714 38.2403 241.677L37.8344 241.976C37.7998 242.001 37.7954 242.035 37.794 242.054C37.794 242.073 37.7983 242.109 37.8344 242.135C37.9658 242.237 38.1146 242.325 38.2735 242.396Z" fill="#111111"/>
<path d="M58.4448 242.414C58.4708 242.462 58.5156 242.468 58.5344 242.468C58.5532 242.468 58.5979 242.462 58.6239 242.413L58.8983 241.892C58.9142 241.861 58.9142 241.827 58.8983 241.798L56.4561 237.175C56.4388 237.142 56.4041 237.12 56.3666 237.12H55.7744C55.7224 237.12 55.6964 237.155 55.6878 237.169C55.6791 237.184 55.6603 237.224 55.6849 237.269L58.4448 242.414Z" fill="#111111"/>
<path d="M57.9669 237.12C57.915 237.12 57.889 237.155 57.8803 237.169C57.8716 237.184 57.8528 237.223 57.8774 237.269L60.5391 242.409C60.5651 242.459 60.6085 242.465 60.6287 242.463C60.6474 242.463 60.6922 242.458 60.7182 242.41L63.4666 237.27C63.4911 237.224 63.4724 237.185 63.4637 237.171C63.455 237.156 63.429 237.122 63.3771 237.122H62.7864C62.7762 237.122 62.7661 237.123 62.7589 237.126L60.633 241.311L58.6443 237.165C58.6255 237.139 58.5952 237.123 58.5634 237.123H57.9669V237.12Z" fill="#111111"/>
<path d="M81.2055 241.425C81.2792 241.38 81.3139 241.318 81.3139 241.233V238.421C81.3139 238.336 81.2792 238.274 81.2055 238.229L78.7807 236.811C78.7402 236.788 78.7027 236.776 78.668 236.776C78.6521 236.776 78.616 236.78 78.5496 236.814L76.1421 238.229C76.0626 238.275 76.028 238.336 76.028 238.421V241.233C76.028 241.32 76.0626 241.379 76.1421 241.425L78.5554 242.843C78.6102 242.878 78.6565 242.887 78.7258 242.871C78.7402 242.868 78.7561 242.859 78.7734 242.848L81.2055 241.425ZM78.668 242.26C78.6074 242.26 78.5481 242.243 78.4933 242.21L76.7096 241.161C76.597 241.095 76.5378 240.993 76.5378 240.868V238.787C76.5378 238.661 76.597 238.559 76.7096 238.493L78.4962 237.443C78.6435 237.369 78.733 237.381 78.8413 237.443L80.6365 238.493C80.7463 238.56 80.804 238.661 80.804 238.787V240.868C80.804 240.993 80.7463 241.094 80.638 241.16L78.8413 242.21C78.8168 242.228 78.7821 242.243 78.7489 242.25C78.7171 242.257 78.6926 242.26 78.668 242.26Z" fill="#111111"/>
<path d="M70.8281 237.041H74.2105C74.2669 237.041 74.3116 237.087 74.3116 237.142V237.479C74.3116 237.535 74.2654 237.579 74.2105 237.579H70.8281C70.7718 237.579 70.727 237.533 70.727 237.479V237.142C70.7256 237.085 70.7718 237.041 70.8281 237.041ZM70.8267 239.552H73.7065C73.7628 239.552 73.8076 239.597 73.8076 239.653V239.99C73.8076 240.046 73.7628 240.091 73.7065 240.091H70.8267C70.7704 240.091 70.7256 240.046 70.7256 239.99V239.653C70.7256 239.599 70.7718 239.552 70.8267 239.552ZM70.8281 242.05H74.212C74.2683 242.05 74.3131 242.096 74.3131 242.15V242.487C74.3131 242.544 74.2669 242.588 74.212 242.588H70.8281C70.7718 242.588 70.727 242.542 70.727 242.487V242.15C70.7256 242.096 70.7718 242.05 70.8281 242.05Z" fill="#111111"/>
</g>
<g clip-path="url(#clip1_1_147)">
<path d="M124.45 186.8C120.811 186.8 117.85 189.761 117.85 193.4C117.85 197.039 120.811 200 124.45 200C128.089 200 131.05 197.039 131.05 193.4C131.05 189.761 128.089 186.8 124.45 186.8ZM128.139 191.663L123.921 195.848C123.673 196.096 123.276 196.113 123.011 195.865L120.778 193.83C120.514 193.582 120.497 193.168 120.729 192.904C120.977 192.639 121.39 192.622 121.655 192.871L123.425 194.492L127.196 190.72C127.461 190.456 127.874 190.456 128.139 190.72C128.404 190.985 128.404 191.398 128.139 191.663Z" fill="#111111"/>
</g>
<rect x="152.449" y="178.5" width="135.401" height="87.0004" rx="11.5" stroke="#111111"/>
<path fill-rule="evenodd" clip-rule="evenodd" d="M202.799 213.268C200.078 213.642 197.425 215.097 195.689 217.165L195.157 217.798L196.437 217.825L197.717 217.853L198.173 217.424C199.932 215.772 202.843 214.808 205.146 215.116C207.243 215.396 209.042 216.188 210.4 217.432L210.853 217.846H212.111H213.368L213.253 217.627C213.19 217.507 212.636 216.926 212.023 216.337C210.447 214.822 209.039 214.047 206.869 213.497C205.804 213.227 203.879 213.119 202.799 213.268ZM215.634 215.965L215.059 216.297V223.408V230.519L215.684 230.49L216.308 230.461L216.297 229.803C216.292 229.442 216.316 229.146 216.352 229.146C216.388 229.146 216.595 229.324 216.812 229.541C217.363 230.091 217.999 230.463 218.729 230.659C220.224 231.062 221.841 230.37 222.683 228.967C223.319 227.906 223.54 227.051 223.616 225.347C223.713 223.154 223.283 221.608 222.286 220.569C221.521 219.771 220.422 219.43 219.214 219.616C218.421 219.737 217.675 220.11 216.965 220.737C216.641 221.022 216.354 221.256 216.326 221.256C216.298 221.256 216.269 219.997 216.263 218.46C216.256 216.922 216.241 215.657 216.229 215.649C216.218 215.641 215.95 215.783 215.634 215.965ZM247.721 215.985L247.271 216.252L247.246 223.381L247.22 230.51H247.82H248.42V228.994V227.479L249.48 226.018C250.063 225.214 250.556 224.573 250.575 224.591C250.615 224.63 252.792 229.095 253.188 229.95L253.448 230.51H254.123H254.798L253.895 228.683C253.398 227.679 252.638 226.139 252.204 225.261C251.771 224.384 251.416 223.615 251.416 223.552C251.416 223.44 252.129 222.444 253.442 220.72L254.11 219.843L253.549 219.814C253.24 219.797 252.932 219.805 252.864 219.83C252.758 219.87 252.095 220.773 250.032 223.691C249.785 224.039 249.44 224.525 249.263 224.77C249.087 225.015 248.869 225.354 248.779 225.525C248.688 225.695 248.571 225.834 248.517 225.834C248.455 225.834 248.42 223.992 248.42 220.769C248.42 216.777 248.393 215.705 248.295 215.711C248.226 215.715 247.968 215.839 247.721 215.985ZM203.898 216.937L202.874 217.47V218.58V219.69L201.9 219.718L200.926 219.746V220.671V221.597L201.875 221.645L202.824 221.694L202.874 225.25C202.93 229.253 202.926 229.229 203.703 230.003C204.431 230.728 205.802 230.904 206.931 230.417C207.304 230.256 207.365 230.181 207.501 229.716C207.782 228.754 207.881 228.347 207.844 228.311C207.824 228.291 207.54 228.382 207.214 228.513C206.871 228.651 206.415 228.753 206.137 228.754C205.735 228.756 205.606 228.709 205.362 228.47L205.069 228.184L205.095 224.939L205.121 221.694L206.12 221.677C206.669 221.668 207.175 221.657 207.244 221.653C207.335 221.647 207.369 221.381 207.369 220.671V219.697H206.22H205.071V218.041C205.071 217.13 205.038 216.39 204.996 216.395C204.955 216.401 204.461 216.645 203.898 216.937ZM190.282 219.601C187.378 220.045 185.497 222.227 185.498 225.152C185.498 226.469 185.87 227.635 186.587 228.566C187.503 229.755 188.741 230.422 190.556 230.705C191.456 230.846 192.642 230.653 193.535 230.222C194.167 229.917 195.184 229.113 195.182 228.919C195.18 228.793 194.132 227.557 193.985 227.507C193.933 227.49 193.789 227.571 193.663 227.688C192.208 229.042 189.811 228.939 188.537 227.469C187.665 226.463 187.487 224.65 188.137 223.413C188.424 222.865 189.089 222.226 189.663 221.947C189.895 221.833 190.36 221.704 190.696 221.659C191.757 221.518 192.663 221.782 193.567 222.497C193.805 222.685 194.033 222.801 194.074 222.754C194.936 221.772 195.183 221.467 195.183 221.382C195.183 221.247 194.405 220.553 193.921 220.256C192.972 219.675 191.515 219.412 190.282 219.601ZM228.843 219.602C227.829 219.718 226.246 220.187 226.246 220.372C226.246 220.409 226.339 220.627 226.452 220.856C226.612 221.178 226.696 221.256 226.827 221.201C227.855 220.772 228.369 220.644 229.243 220.6C230.38 220.542 230.909 220.662 231.408 221.089C231.993 221.59 232.164 222.093 232.219 223.472C232.271 224.792 232.274 224.786 231.652 224.476C231.444 224.373 230.897 224.214 230.438 224.123C228.47 223.734 226.45 224.364 225.651 225.616C224.799 226.951 225.139 229.211 226.325 230.089C226.816 230.453 227.912 230.802 228.554 230.801C229.55 230.798 230.764 230.288 231.591 229.526C231.876 229.263 232.138 229.048 232.174 229.048C232.21 229.048 232.239 229.377 232.239 229.779V230.51H232.842H233.445L233.417 226.151C233.388 221.833 233.386 221.787 233.157 221.294C232.703 220.316 231.852 219.769 230.522 219.601C229.713 219.498 229.752 219.498 228.843 219.602ZM240.117 219.603C239.178 219.755 238.339 220.269 237.822 221.009C237.69 221.198 237.549 221.352 237.508 221.352C237.467 221.353 237.433 221.002 237.433 220.574V219.795H236.834H236.234V225.152V230.51H236.834H237.433V227.067C237.433 223.979 237.453 223.549 237.627 222.886C237.85 222.034 238.178 221.478 238.673 221.109C239.081 220.806 239.803 220.574 240.341 220.574C241.945 220.574 242.866 221.433 243.124 223.172C243.178 223.538 243.223 225.338 243.224 227.173L243.226 230.51H243.825H244.425V226.765C244.425 222.682 244.371 222.163 243.85 221.228C243.175 220.017 241.651 219.353 240.117 219.603ZM196.651 219.759C196.613 219.796 196.581 222.231 196.581 225.168V230.51H197.731H198.88L198.854 225.128L198.829 219.746L197.775 219.718C197.195 219.703 196.69 219.722 196.651 219.759ZM209.766 225.103V230.51H210.864H211.963V225.103V219.697H210.864H209.766V225.103ZM220.142 220.678C221.65 220.993 222.553 222.925 222.417 225.542C222.291 227.958 221.579 229.284 220.213 229.644C219.63 229.798 218.699 229.697 218.034 229.408C217.387 229.126 216.539 228.402 216.358 227.978C216.271 227.772 216.247 226.941 216.273 224.952L216.308 222.209L216.888 221.683C217.953 220.716 218.911 220.421 220.142 220.678ZM230.645 225.055C230.937 225.109 231.415 225.26 231.707 225.391L232.239 225.628V226.858V228.087L231.692 228.621C231.349 228.955 230.893 229.269 230.469 229.463C229.869 229.737 229.69 229.773 228.893 229.776C228.085 229.779 227.946 229.752 227.517 229.506C226.901 229.153 226.581 228.667 226.455 227.896C226.222 226.467 226.818 225.417 228.058 225.069C228.51 224.942 229.99 224.934 230.645 225.055Z" fill="#111111"/>
<g clip-path="url(#clip2_1_147)">
<path d="M272.95 186.8C269.311 186.8 266.35 189.761 266.35 193.4C266.35 197.039 269.311 200 272.95 200C276.589 200 279.55 197.039 279.55 193.4C279.55 189.761 276.589 186.8 272.95 186.8ZM276.639 191.663L272.421 195.848C272.173 196.096 271.776 196.113 271.511 195.865L269.278 193.83C269.013 193.582 268.997 193.168 269.228 192.904C269.476 192.639 269.89 192.622 270.155 192.871L271.924 194.492L275.696 190.72C275.961 190.456 276.374 190.456 276.639 190.72C276.903 190.985 276.903 191.398 276.639 191.663Z" fill="#111111"/>
</g>
<rect x="300.949" y="178.5" width="134.851" height="87.0004" rx="11.5" stroke="#111111"/>
<path fill-rule="evenodd" clip-rule="evenodd" d="M357.642 203.888C357.642 203.925 359.645 205.908 362.285 208.485C363.054 209.235 364.733 210.881 366.016 212.142L368.349 214.434L373.187 209.669C378.782 204.157 378.981 203.959 379.003 203.897C379.013 203.866 375.418 203.85 368.33 203.85C362.452 203.85 357.642 203.867 357.642 203.888ZM356.102 205.28C355.425 205.94 353.9 207.424 352.714 208.578C351.529 209.732 349.679 211.536 348.603 212.586L346.648 214.495L348.817 216.605C350.009 217.766 351.092 218.816 351.222 218.938C351.352 219.06 352.436 220.111 353.629 221.273C354.823 222.434 356.145 223.716 356.567 224.121L357.334 224.857L357.346 219.664C357.353 216.808 357.353 212.133 357.346 209.276L357.334 204.08L356.102 205.28ZM379.437 214.541V225.018L379.615 224.846C379.712 224.752 380.762 223.726 381.947 222.567C383.132 221.408 384.102 220.46 384.103 220.46C384.154 220.443 390.099 214.572 390.098 214.539C390.098 214.512 389.58 213.985 388.948 213.369C388.316 212.753 386.037 210.523 383.883 208.412C381.728 206.302 379.847 204.46 379.701 204.32L379.437 204.064V214.541ZM362.959 219.778C360.034 222.662 357.64 225.038 357.641 225.057C357.642 225.101 379.01 225.104 379.01 225.06C379.01 225.016 368.342 214.516 368.307 214.526C368.291 214.53 365.885 216.893 362.959 219.778ZM363.683 229.521C362.67 229.728 361.94 230.243 361.533 231.036C361.061 231.953 361.219 233.113 361.917 233.868C362.238 234.214 362.911 234.667 364.654 235.708C364.876 235.84 365.099 235.974 365.149 236.006C365.2 236.038 365.39 236.156 365.572 236.267C366.239 236.679 366.557 237.07 366.692 237.646C366.745 237.871 366.745 237.959 366.693 238.161C366.504 238.903 366.046 239.316 365.223 239.486C364.396 239.657 363.355 239.413 362.766 238.911C362.491 238.675 362.177 238.234 362.023 237.864C361.954 237.697 361.881 237.53 361.862 237.491C361.842 237.452 361.786 237.246 361.737 237.033C361.648 236.645 361.648 236.645 361.505 236.658L361.361 236.672L361.349 238.391L361.336 240.109L361.453 240.138C361.598 240.174 361.669 240.133 361.669 240.014C361.669 239.908 361.757 239.741 361.859 239.655C361.952 239.577 362.415 239.604 362.759 239.709C363.713 239.998 364.302 240.114 364.846 240.117C365.74 240.122 366.492 239.852 367.148 239.293C367.368 239.105 367.781 238.585 367.781 238.495C367.781 238.478 367.812 238.398 367.849 238.317C367.937 238.125 368.066 237.541 368.066 237.335C368.066 236.846 367.797 236.106 367.461 235.669C367.204 235.334 366.488 234.788 365.954 234.52C365.851 234.469 365.757 234.414 365.744 234.399C365.731 234.385 365.518 234.272 365.27 234.15C365.023 234.028 364.607 233.802 364.346 233.648C364.086 233.494 363.83 233.343 363.778 233.313C363.726 233.282 363.672 233.245 363.659 233.23C363.646 233.216 363.529 233.132 363.399 233.045C363.027 232.795 362.764 232.506 362.607 232.175C362.477 231.9 362.465 231.836 362.485 231.534C362.519 231.034 362.755 230.665 363.223 230.381C364.078 229.861 365.404 230.103 366.2 230.923C366.452 231.183 366.578 231.382 366.832 231.923C366.866 231.995 366.992 232.501 367.06 232.836C367.091 232.993 367.118 233.025 367.226 233.038L367.355 233.052V231.271V229.49H367.217C367.1 229.49 367.073 229.513 367.046 229.636C367.028 229.717 366.955 229.843 366.883 229.917C366.699 230.107 366.488 230.095 365.912 229.863C365.467 229.683 365.298 229.631 364.867 229.536C364.678 229.494 363.862 229.484 363.683 229.521ZM384.246 229.517C384.194 229.529 384.034 229.561 383.891 229.59C383.498 229.667 383.047 229.814 382.73 229.968C382.44 230.108 382.133 230.282 382.09 230.331C382.077 230.346 382.012 230.392 381.945 230.434C381.598 230.652 381.001 231.263 380.696 231.713C380.31 232.283 379.863 233.34 379.863 233.684C379.863 233.76 379.843 233.843 379.817 233.868C379.748 233.936 379.708 235.263 379.762 235.69C379.846 236.359 380.067 237.109 380.304 237.53C380.461 237.809 380.681 238.166 380.712 238.193C380.727 238.206 380.824 238.32 380.927 238.446C381.852 239.583 383.089 240.128 384.72 240.12C385.159 240.118 385.282 240.107 385.667 240.037C386.025 239.972 386.828 239.692 386.828 239.632C386.828 239.613 386.856 239.597 386.891 239.597C386.925 239.597 387.108 239.492 387.296 239.363C387.731 239.067 388.283 238.525 388.516 238.164C388.564 238.09 388.614 238.019 388.628 238.006C388.68 237.957 388.913 237.585 388.913 237.55C388.913 237.489 388.713 237.386 388.681 237.431C388.537 237.639 388.055 238.181 387.792 238.431C386.912 239.266 386.493 239.434 385.288 239.431C384.523 239.43 384.076 239.361 383.737 239.193C383.377 239.015 383.28 238.961 383.061 238.818C382.931 238.733 382.743 238.587 382.645 238.493C382.431 238.291 382.044 237.773 381.966 237.585C381.95 237.546 381.897 237.43 381.849 237.327C381.801 237.224 381.727 236.993 381.684 236.813C381.641 236.632 381.581 236.401 381.552 236.298C381.478 236.042 381.479 233.789 381.553 233.537C381.583 233.435 381.642 233.193 381.685 233C381.855 232.231 382.293 231.357 382.73 230.914C383.09 230.549 383.379 230.368 383.863 230.206C384.219 230.087 384.3 230.078 385.028 230.077C385.889 230.077 386.083 230.118 386.662 230.423C386.963 230.581 387.693 231.276 387.823 231.529C387.862 231.604 387.905 231.676 387.919 231.689C387.971 231.739 388.24 232.337 388.346 232.639C388.448 232.929 388.469 232.956 388.579 232.943L388.7 232.929L388.684 232.461C388.675 232.204 388.649 231.909 388.626 231.806C388.602 231.703 388.582 231.451 388.581 231.245C388.578 230.868 388.514 230.058 388.458 229.689C388.433 229.521 388.411 229.49 388.319 229.49C388.235 229.49 388.196 229.53 388.152 229.663C388.09 229.848 388.053 229.903 387.875 230.08C387.708 230.245 387.505 230.224 387.002 229.989C386.178 229.605 385.867 229.53 385.004 229.511C384.639 229.502 384.298 229.505 384.246 229.517ZM349.457 229.755C349.425 229.768 349.398 229.816 349.398 229.862C349.398 229.93 349.451 229.95 349.694 229.97C350.053 230 350.484 230.154 350.641 230.309C350.704 230.372 350.781 230.505 350.811 230.605C350.852 230.738 350.867 231.863 350.867 234.745C350.867 238.818 350.86 238.978 350.681 239.309C350.587 239.482 350.349 239.562 349.86 239.585L349.398 239.607V239.737C349.398 239.809 349.425 239.876 349.457 239.887C349.506 239.904 353.646 239.899 353.772 239.882C353.793 239.88 353.804 239.819 353.796 239.749C353.781 239.622 353.774 239.619 353.378 239.591C352.863 239.553 352.614 239.429 352.449 239.129C352.365 238.976 352.358 238.825 352.345 236.988L352.33 235.011H354.705H357.08L357.064 236.988L357.049 238.965L356.931 239.173C356.76 239.475 356.568 239.568 356.055 239.596L355.628 239.62V239.76V239.9L357.775 239.901C358.956 239.902 359.944 239.889 359.97 239.873C359.997 239.857 360.012 239.793 360.003 239.732C359.988 239.625 359.968 239.619 359.53 239.597C359.106 239.575 359.059 239.562 358.89 239.428C358.531 239.142 358.548 239.358 358.545 234.88C358.542 231.288 358.55 230.864 358.621 230.651C358.737 230.302 358.938 230.128 359.338 230.031C359.521 229.986 359.72 229.954 359.781 229.959C359.986 229.976 360.018 229.961 360.002 229.853L359.987 229.748H357.808H355.628L355.613 229.853C355.6 229.946 355.618 229.958 355.781 229.958C356.226 229.958 356.776 230.191 356.958 230.456C357.044 230.582 357.051 230.703 357.064 232.52L357.078 234.45H354.704H352.33L352.346 232.59C352.359 230.901 352.369 230.713 352.448 230.544C352.609 230.2 352.94 230.016 353.476 229.972C353.78 229.947 353.808 229.936 353.795 229.846C353.781 229.748 353.775 229.748 351.648 229.739C350.476 229.735 349.49 229.742 349.457 229.755ZM369.188 229.755C369.17 229.772 369.155 229.825 369.155 229.872C369.155 229.939 369.192 229.958 369.315 229.958C369.403 229.958 369.626 229.992 369.81 230.033C370.07 230.091 370.183 230.144 370.314 230.269C370.408 230.36 370.482 230.477 370.482 230.536C370.482 230.594 370.509 230.668 370.541 230.7C370.631 230.789 370.627 238.73 370.537 238.923C370.349 239.325 370.307 239.38 370.104 239.486C369.933 239.575 369.819 239.597 369.52 239.597H369.149L369.164 239.749L369.179 239.901L371.643 239.901C375.022 239.901 375.814 239.858 376.381 239.646C376.607 239.561 377.123 239.297 377.221 239.215C377.695 238.821 377.985 238.435 378.183 237.936C378.316 237.602 378.315 236.637 378.183 236.298C377.968 235.745 377.588 235.347 377.01 235.07C376.567 234.858 376.385 234.788 376.219 234.768C376.047 234.747 376.048 234.654 376.221 234.619C376.754 234.514 377.684 233.671 377.684 233.293C377.684 233.245 377.71 233.179 377.743 233.147C377.785 233.105 377.802 232.891 377.802 232.414C377.802 231.938 377.785 231.724 377.743 231.682C377.71 231.65 377.684 231.591 377.684 231.551C377.683 231.511 377.635 231.384 377.575 231.268C377.308 230.748 376.832 230.374 376.093 230.105C375.549 229.907 375.091 229.82 374.367 229.776C373.583 229.728 369.233 229.71 369.188 229.755ZM374.168 230.265C375.271 230.453 376.065 231.091 376.245 231.935C376.443 232.861 376.064 233.711 375.295 234.069C374.795 234.302 374.621 234.341 373.702 234.429C373.421 234.456 372.461 234.39 372.2 234.325L372.093 234.299V232.344V230.389L372.318 230.335C372.847 230.21 373.664 230.18 374.168 230.265ZM374.245 234.988C374.478 235.025 374.784 235.089 374.925 235.13C376.113 235.471 376.779 236.524 376.544 237.688C376.323 238.781 375.255 239.389 373.61 239.357C373.106 239.348 372.23 239.253 372.141 239.199C372.11 239.18 372.093 238.451 372.093 237.093V235.016L372.271 234.987C372.368 234.971 372.48 234.952 372.519 234.943C372.731 234.899 373.88 234.929 374.245 234.988Z" fill="#111111"/>
<g clip-path="url(#clip3_1_147)">
<path d="M420.9 186.8C417.26 186.8 414.3 189.761 414.3 193.4C414.3 197.039 417.26 200 420.9 200C424.539 200 427.5 197.039 427.5 193.4C427.5 189.761 424.539 186.8 420.9 186.8ZM424.588 191.663L420.37 195.848C420.122 196.096 419.725 196.113 419.46 195.865L417.227 193.83C416.963 193.582 416.946 193.168 417.178 192.904C417.426 192.639 417.839 192.622 418.104 192.871L419.874 194.492L423.645 190.72C423.91 190.456 424.324 190.456 424.588 190.72C424.853 190.985 424.853 191.398 424.588 191.663Z" fill="#111111"/>
</g>
</g>
<defs>
<filter id="filter0_d_1_147" x="0" y="0.660004" width="446.169" height="273.34" filterUnits="userSpaceOnUse" color-interpolation-filters="sRGB">
<feFlood flood-opacity="0" result="BackgroundImageFix"/>
<feColorMatrix in="SourceAlpha" type="matrix" values="0 0 0 0 0 0 0 0 0 0 0 0 0 0 0 0 0 0 127 0" result="hardAlpha"/>
<feOffset dy="4"/>
<feGaussianBlur stdDeviation="2"/>
<feComposite in2="hardAlpha" operator="out"/>
<feColorMatrix type="matrix" values="0 0 0 0 0 0 0 0 0 0 0 0 0 0 0 0 0 0 0.25 0"/>
<feBlend mode="normal" in2="BackgroundImageFix" result="effect1_dropShadow_1_147"/>
<feBlend mode="normal" in="SourceGraphic" in2="effect1_dropShadow_1_147" result="shape"/>
</filter>
<clipPath id="clip0_1_147">
<rect width="69.3003" height="41.2502" fill="white" transform="translate(37.5485 201.651)"/>
</clipPath>
<clipPath id="clip1_1_147">
<rect width="13.2001" height="13.2001" fill="white" transform="translate(117.85 186.8)"/>
</clipPath>
<clipPath id="clip2_1_147">
<rect width="13.2001" height="13.2001" fill="white" transform="translate(266.35 186.8)"/>
</clipPath>
<clipPath id="clip3_1_147">
<rect width="13.2001" height="13.2001" fill="white" transform="translate(414.3 186.8)"/>
</clipPath>
</defs>
</svg>
