<svg width="437" height="266" viewBox="0 0 437 266" fill="none" xmlns="http://www.w3.org/2000/svg">
<path d="M406.676 67.82H405.444V66.154C404.361 66.0327 403.428 65.7573 402.644 65.328V63.76C403.652 64.404 404.805 64.726 406.102 64.726C407.511 64.726 408.216 64.32 408.216 63.508C408.216 63.1533 408.076 62.8593 407.796 62.626C407.525 62.3833 407.185 62.206 406.774 62.094C406.373 61.982 405.929 61.8467 405.444 61.688C404.968 61.5293 404.525 61.3613 404.114 61.184C403.713 61.0067 403.372 60.7313 403.092 60.358C402.821 59.9753 402.686 59.5133 402.686 58.972C402.686 58.2067 402.938 57.6 403.442 57.152C403.955 56.704 404.623 56.4333 405.444 56.34V54.66H406.676V56.326C407.693 56.4007 408.538 56.6387 409.21 57.04V58.566C408.379 58.006 407.399 57.7353 406.27 57.754C404.963 57.754 404.31 58.1507 404.31 58.944C404.31 59.2707 404.445 59.546 404.716 59.77C404.996 59.994 405.337 60.162 405.738 60.274C406.149 60.3767 406.592 60.5073 407.068 60.666C407.553 60.8247 407.997 60.9973 408.398 61.184C408.809 61.3613 409.149 61.6413 409.42 62.024C409.7 62.4067 409.84 62.8733 409.84 63.424C409.84 64.3107 409.551 64.978 408.972 65.426C408.393 65.8647 407.628 66.112 406.676 66.168V67.82ZM410.677 56.48H417.747V57.74L413.799 66H412.077L415.941 57.908H410.677V56.48ZM419.311 56.48H425.177V57.908H420.781L420.641 60.204C421.099 60.092 421.579 60.036 422.083 60.036C423.101 60.036 423.945 60.2833 424.617 60.778C425.289 61.2633 425.625 62.0287 425.625 63.074C425.625 64.0633 425.257 64.8287 424.519 65.37C423.791 65.9113 422.877 66.182 421.775 66.182C420.627 66.182 419.61 65.9673 418.723 65.538V64.04C419.526 64.5067 420.483 64.74 421.593 64.74C422.321 64.74 422.905 64.5953 423.343 64.306C423.791 64.0167 424.015 63.6013 424.015 63.06C424.015 61.9213 423.152 61.352 421.425 61.352C420.623 61.352 419.815 61.492 419.003 61.772L419.311 56.48ZM408.664 78.446C408.664 78.7727 408.827 78.936 409.154 78.936C409.266 78.936 409.415 78.908 409.602 78.852V79.93C409.322 80.042 409.005 80.098 408.65 80.098C407.978 80.098 407.53 79.8367 407.306 79.314C406.587 79.8927 405.743 80.182 404.772 80.182C404.119 80.182 403.563 80.0047 403.106 79.65C402.649 79.286 402.42 78.7773 402.42 78.124C402.42 77.34 402.714 76.7707 403.302 76.416C403.89 76.052 404.595 75.87 405.416 75.87C405.957 75.87 406.541 75.9353 407.166 76.066V75.828C407.166 75.3987 407.012 75.0533 406.704 74.792C406.396 74.5307 405.962 74.4 405.402 74.4C404.571 74.4 403.764 74.5727 402.98 74.918V73.546C403.857 73.2473 404.716 73.098 405.556 73.098C406.536 73.098 407.297 73.3407 407.838 73.826C408.389 74.3113 408.664 75.0487 408.664 76.038V78.446ZM405.71 76.92C405.215 76.92 404.8 77.0087 404.464 77.186C404.128 77.3633 403.96 77.6433 403.96 78.026C403.96 78.3433 404.081 78.5907 404.324 78.768C404.567 78.936 404.865 79.02 405.22 79.02C405.985 79.02 406.634 78.754 407.166 78.222V77.088C406.625 76.976 406.139 76.92 405.71 76.92ZM415.208 73.28H416.846L413.962 80H412.38L409.51 73.28H411.134L413.178 78.376L415.208 73.28ZM418.18 79.16C417.564 78.4693 417.256 77.6293 417.256 76.64C417.256 75.6507 417.564 74.8153 418.18 74.134C418.796 73.4433 419.599 73.098 420.588 73.098C421.643 73.098 422.502 73.5087 423.164 74.33V73.28H424.508V79.916C424.508 81.0453 424.144 81.8853 423.416 82.436C422.698 82.9867 421.806 83.262 420.742 83.262C419.716 83.262 418.792 83.052 417.97 82.632V81.26C418.754 81.7173 419.613 81.946 420.546 81.946C422.189 81.946 423.01 81.2833 423.01 79.958V79.104C422.404 79.8227 421.596 80.182 420.588 80.182C419.599 80.182 418.796 79.8413 418.18 79.16ZM422.996 75.814C422.819 75.422 422.539 75.0907 422.156 74.82C421.783 74.5493 421.349 74.414 420.854 74.414C420.248 74.414 419.748 74.624 419.356 75.044C418.964 75.4547 418.768 75.9867 418.768 76.64C418.768 77.2933 418.964 77.83 419.356 78.25C419.748 78.6607 420.248 78.866 420.854 78.866C421.349 78.866 421.783 78.74 422.156 78.488C422.539 78.236 422.819 77.9233 422.996 77.55V75.814Z" fill="#111111"/>
<path d="M404.676 13.82H403.444V12.154C402.361 12.0327 401.428 11.7573 400.644 11.328V9.76C401.652 10.404 402.805 10.726 404.102 10.726C405.511 10.726 406.216 10.32 406.216 9.508C406.216 9.15333 406.076 8.85933 405.796 8.626C405.525 8.38333 405.185 8.206 404.774 8.094C404.373 7.982 403.929 7.84667 403.444 7.688C402.968 7.52933 402.525 7.36133 402.114 7.184C401.713 7.00667 401.372 6.73133 401.092 6.358C400.821 5.97533 400.686 5.51333 400.686 4.972C400.686 4.20667 400.938 3.6 401.442 3.152C401.955 2.704 402.623 2.43333 403.444 2.34V0.659999H404.676V2.326C405.693 2.40067 406.538 2.63867 407.21 3.04V4.566C406.379 4.006 405.399 3.73533 404.27 3.754C402.963 3.754 402.31 4.15067 402.31 4.944C402.31 5.27067 402.445 5.546 402.716 5.77C402.996 5.994 403.337 6.162 403.738 6.274C404.149 6.37667 404.592 6.50733 405.068 6.666C405.553 6.82467 405.997 6.99733 406.398 7.184C406.809 7.36133 407.149 7.64133 407.42 8.024C407.7 8.40667 407.84 8.87333 407.84 9.424C407.84 10.3107 407.551 10.978 406.972 11.426C406.393 11.8647 405.628 12.112 404.676 12.168V13.82ZM409.236 3.264C410.179 2.62 411.234 2.298 412.401 2.298C413.399 2.298 414.207 2.53133 414.823 2.998C415.439 3.45533 415.747 4.11333 415.747 4.972C415.747 5.69067 415.509 6.30667 415.033 6.82C414.566 7.324 413.927 7.81867 413.115 8.304C413.049 8.34133 412.928 8.41133 412.751 8.514C412.583 8.61667 412.461 8.69133 412.387 8.738C412.321 8.77533 412.214 8.84067 412.065 8.934C411.915 9.02733 411.803 9.09733 411.729 9.144C411.663 9.19067 411.57 9.26067 411.449 9.354C411.337 9.438 411.253 9.51267 411.197 9.578C411.141 9.634 411.075 9.70867 411.001 9.802C410.926 9.886 410.87 9.96533 410.833 10.04C410.805 10.1147 410.777 10.1987 410.749 10.292C410.721 10.3853 410.707 10.4787 410.707 10.572L415.817 10.558V12H408.915V11.272C408.915 10.7493 408.985 10.2873 409.125 9.886C409.274 9.47533 409.531 9.102 409.895 8.766C410.268 8.42067 410.557 8.178 410.763 8.038C410.968 7.88867 411.332 7.66 411.855 7.352C411.901 7.31467 411.939 7.28667 411.967 7.268C412.004 7.24933 412.041 7.23067 412.079 7.212C412.863 6.75467 413.367 6.42333 413.591 6.218C413.964 5.854 414.151 5.448 414.151 5C414.151 4.58933 413.983 4.27667 413.647 4.062C413.32 3.84733 412.858 3.74 412.261 3.74C411.225 3.74 410.217 4.09467 409.236 4.804V3.264ZM417.482 4.846C417.482 4.15533 417.785 3.558 418.392 3.054C418.999 2.55 419.885 2.298 421.052 2.298C422.144 2.298 423.012 2.55933 423.656 3.082C424.309 3.60467 424.645 4.22533 424.664 4.944C424.683 5.87733 424.263 6.64733 423.404 7.254C424.468 7.786 425 8.53733 425 9.508C425 10.2547 424.673 10.8893 424.02 11.412C423.367 11.9253 422.396 12.182 421.108 12.182C419.829 12.182 418.849 11.9113 418.168 11.37C417.487 10.8193 417.146 10.152 417.146 9.368C417.146 8.90133 417.281 8.444 417.552 7.996C417.823 7.548 418.205 7.17467 418.7 6.876C417.888 6.35333 417.482 5.67667 417.482 4.846ZM421.22 7.884C420.604 7.69733 420.147 7.548 419.848 7.436C419.484 7.66 419.204 7.93067 419.008 8.248C418.821 8.556 418.728 8.86867 418.728 9.186C418.737 9.69 418.947 10.0913 419.358 10.39C419.778 10.6793 420.385 10.824 421.178 10.824C421.822 10.824 422.349 10.7073 422.76 10.474C423.18 10.2407 423.39 9.93733 423.39 9.564C423.39 9.368 423.353 9.19533 423.278 9.046C423.203 8.88733 423.105 8.75667 422.984 8.654C422.872 8.55133 422.723 8.45333 422.536 8.36C422.349 8.26667 422.167 8.192 421.99 8.136C421.813 8.07067 421.603 8.00067 421.36 7.926C421.341 7.91667 421.323 7.912 421.304 7.912C421.295 7.912 421.281 7.90733 421.262 7.898C421.253 7.88867 421.239 7.884 421.22 7.884ZM423.096 5.14C423.096 4.71067 422.909 4.356 422.536 4.076C422.163 3.796 421.645 3.656 420.982 3.656C420.385 3.656 419.909 3.768 419.554 3.992C419.209 4.216 419.036 4.496 419.036 4.832C419.036 5.14933 419.143 5.42 419.358 5.644C419.582 5.868 419.797 6.022 420.002 6.106C420.207 6.19 420.534 6.302 420.982 6.442C421.057 6.47 421.113 6.48867 421.15 6.498C421.542 6.60067 421.883 6.69867 422.172 6.792C422.788 6.316 423.096 5.76533 423.096 5.14ZM427.398 10.824C426.68 9.90933 426.32 8.71467 426.32 7.24C426.32 5.76533 426.68 4.57533 427.398 3.67C428.117 2.75533 429.181 2.298 430.59 2.298C432 2.298 433.064 2.75533 433.782 3.67C434.501 4.57533 434.86 5.76533 434.86 7.24C434.86 8.71467 434.501 9.90933 433.782 10.824C433.064 11.7293 432 12.182 430.59 12.182C429.181 12.182 428.117 11.7293 427.398 10.824ZM430.59 10.726C432.364 10.726 433.25 9.564 433.25 7.24C433.25 4.916 432.364 3.754 430.59 3.754C428.817 3.754 427.93 4.916 427.93 7.24C427.93 9.564 428.817 10.726 430.59 10.726Z" fill="#111111"/>
<path d="M406.676 127.82H405.444V126.154C404.361 126.033 403.428 125.757 402.644 125.328V123.76C403.652 124.404 404.805 124.726 406.102 124.726C407.511 124.726 408.216 124.32 408.216 123.508C408.216 123.153 408.076 122.859 407.796 122.626C407.525 122.383 407.185 122.206 406.774 122.094C406.373 121.982 405.929 121.847 405.444 121.688C404.968 121.529 404.525 121.361 404.114 121.184C403.713 121.007 403.372 120.731 403.092 120.358C402.821 119.975 402.686 119.513 402.686 118.972C402.686 118.207 402.938 117.6 403.442 117.152C403.955 116.704 404.623 116.433 405.444 116.34V114.66H406.676V116.326C407.693 116.401 408.538 116.639 409.21 117.04V118.566C408.379 118.006 407.399 117.735 406.27 117.754C404.963 117.754 404.31 118.151 404.31 118.944C404.31 119.271 404.445 119.546 404.716 119.77C404.996 119.994 405.337 120.162 405.738 120.274C406.149 120.377 406.592 120.507 407.068 120.666C407.553 120.825 407.997 120.997 408.398 121.184C408.809 121.361 409.149 121.641 409.42 122.024C409.7 122.407 409.84 122.873 409.84 123.424C409.84 124.311 409.551 124.978 408.972 125.426C408.393 125.865 407.628 126.112 406.676 126.168V127.82ZM412.062 124.824C411.344 123.909 410.985 122.715 410.985 121.24C410.985 119.765 411.344 118.575 412.062 117.67C412.781 116.755 413.845 116.298 415.255 116.298C416.664 116.298 417.728 116.755 418.447 117.67C419.165 118.575 419.525 119.765 419.525 121.24C419.525 122.715 419.165 123.909 418.447 124.824C417.728 125.729 416.664 126.182 415.255 126.182C413.845 126.182 412.781 125.729 412.062 124.824ZM415.255 124.726C417.028 124.726 417.915 123.564 417.915 121.24C417.915 118.916 417.028 117.754 415.255 117.754C413.481 117.754 412.595 118.916 412.595 121.24C412.595 123.564 413.481 124.726 415.255 124.726Z" fill="#111111"/>
<path d="M0 69V67H8.71876V69H0Z" fill="#888888"/>
<path d="M20.9601 69V67H29.6788V69H20.9601Z" fill="#888888"/>
<path d="M41.9201 69V67H50.6389V69H41.9201Z" fill="#888888"/>
<path d="M62.8802 69V67H71.599V69H62.8802Z" fill="#888888"/>
<path d="M83.8403 69V67H92.559V69H83.8403Z" fill="#888888"/>
<path d="M104.8 69V67H113.519V69H104.8Z" fill="#888888"/>
<path d="M125.76 69V67H134.479V69H125.76Z" fill="#888888"/>
<path d="M146.72 69V67H155.439V69H146.72Z" fill="#888888"/>
<path d="M167.681 69V67H176.399V69H167.681Z" fill="#888888"/>
<path d="M188.641 69V67H197.359V69H188.641Z" fill="#888888"/>
<path d="M209.601 69V67H218.319V69H209.601Z" fill="#888888"/>
<path d="M230.561 69V67H239.28V69H230.561Z" fill="#888888"/>
<path d="M251.521 69V67H260.24V69H251.521Z" fill="#888888"/>
<path d="M272.481 69V67H281.2V69H272.481Z" fill="#888888"/>
<path d="M293.441 69V67H302.16V69H293.441Z" fill="#888888"/>
<path d="M314.401 69V67H323.12V69H314.401Z" fill="#888888"/>
<path d="M335.361 69V67H344.08V69H335.361Z" fill="#888888"/>
<path d="M356.321 69V67H365.04V69H356.321Z" fill="#888888"/>
<path d="M377.281 69V67H386V69H377.281Z" fill="#888888"/>
<rect x="10.5" y="34.5" width="24" height="94" rx="4.5" stroke="#111111"/>
<rect x="67.5" y="9.5" width="24" height="119" rx="4.5" stroke="#111111"/>
<rect x="124.5" y="25.5" width="24" height="103" rx="4.5" stroke="#111111"/>
<rect x="181.5" y="56.5" width="24" height="72" rx="4.5" stroke="#111111"/>
<rect x="238.5" y="20.5" width="24" height="108" rx="4.5" stroke="#111111"/>
<rect x="295.5" y="45.5" width="24" height="83" rx="4.5" stroke="#111111"/>
<rect x="352.5" y="56.5" width="24" height="72" rx="4.5" stroke="#111111"/>
<path d="M17.872 139.8H19.024V151H17.68V142.344L13.664 148.36H12.832L8.816 142.344V151H7.472V139.8H8.624L13.248 146.712L17.872 139.8ZM21.7201 150.12C20.9095 149.395 20.5041 148.408 20.5041 147.16C20.5041 145.912 20.9095 144.931 21.7201 144.216C22.5308 143.491 23.4908 143.128 24.6001 143.128C25.7201 143.128 26.6801 143.491 27.4801 144.216C28.2908 144.931 28.6961 145.912 28.6961 147.16C28.6961 148.408 28.2908 149.395 27.4801 150.12C26.6801 150.835 25.7201 151.192 24.6001 151.192C23.4908 151.192 22.5308 150.835 21.7201 150.12ZM26.6161 149.224C27.1495 148.712 27.4161 148.024 27.4161 147.16C27.4161 146.296 27.1495 145.613 26.6161 145.112C26.0828 144.6 25.4108 144.344 24.6001 144.344C23.7895 144.344 23.1175 144.6 22.5841 145.112C22.0508 145.613 21.7841 146.296 21.7841 147.16C21.7841 148.024 22.0508 148.712 22.5841 149.224C23.1175 149.725 23.7895 149.976 24.6001 149.976C25.4108 149.976 26.0828 149.725 26.6161 149.224ZM31.2041 144.456C31.4815 144.083 31.8655 143.768 32.3561 143.512C32.8575 143.256 33.3961 143.128 33.9721 143.128C34.9001 143.128 35.6628 143.421 36.2601 144.008C36.8681 144.584 37.1721 145.336 37.1721 146.264V151H35.8921V146.424C35.8921 145.731 35.7001 145.208 35.3161 144.856C34.9428 144.493 34.4468 144.312 33.8281 144.312C32.8468 144.312 32.0148 144.824 31.3321 145.848V151H30.0521V143.32H31.2041V144.456Z" fill="#111111"/>
<path d="M66.224 139.8H75.44V141.08H71.504V151H70.16V141.08H66.224V139.8ZM80.3386 143.32H81.6186V151H80.4666V149.864C80.1893 150.237 79.8 150.552 79.2986 150.808C78.808 151.064 78.2746 151.192 77.6986 151.192C76.7066 151.192 75.9226 150.909 75.3466 150.344C74.7813 149.768 74.4986 149.005 74.4986 148.056V143.32H75.7786V147.896C75.7786 149.304 76.4666 150.008 77.8426 150.008C78.824 150.008 79.656 149.496 80.3386 148.472V143.32ZM82.9773 147.16C82.9773 145.901 83.3613 144.915 84.1293 144.2C84.9079 143.485 85.7986 143.128 86.8013 143.128C87.7399 143.128 88.5133 143.363 89.1213 143.832C89.7399 144.301 90.1453 144.883 90.3373 145.576C90.5293 146.259 90.5399 146.973 90.3693 147.72H84.2573C84.3319 148.477 84.6679 149.048 85.2653 149.432C85.8626 149.816 86.5826 150.008 87.4253 150.008C88.3639 150.008 89.2066 149.8 89.9533 149.384V150.632C89.2386 151.005 88.3319 151.192 87.2333 151.192C86.0173 151.192 85.0039 150.845 84.1933 150.152C83.3826 149.459 82.9773 148.461 82.9773 147.16ZM89.2333 146.6C89.2653 146.376 89.2493 146.141 89.1853 145.896C89.1213 145.651 89.0039 145.405 88.8333 145.16C88.6733 144.915 88.4226 144.712 88.0813 144.552C87.7399 144.392 87.3399 144.312 86.8813 144.312C86.1879 144.312 85.5853 144.515 85.0733 144.92C84.5719 145.325 84.2999 145.885 84.2573 146.6H89.2333Z" fill="#111111"/>
<path d="M133.368 139.8H134.84L131.32 151H129.816L126.984 142.04L124.152 151H122.664L119.144 139.8H120.616L123.416 149.368L126.392 139.8H127.592L130.568 149.368L133.368 139.8ZM134.551 147.16C134.551 145.901 134.935 144.915 135.703 144.2C136.482 143.485 137.372 143.128 138.375 143.128C139.314 143.128 140.087 143.363 140.695 143.832C141.314 144.301 141.719 144.883 141.911 145.576C142.103 146.259 142.114 146.973 141.943 147.72H135.831C135.906 148.477 136.242 149.048 136.839 149.432C137.436 149.816 138.156 150.008 138.999 150.008C139.938 150.008 140.78 149.8 141.527 149.384V150.632C140.812 151.005 139.906 151.192 138.807 151.192C137.591 151.192 136.578 150.845 135.767 150.152C134.956 149.459 134.551 148.461 134.551 147.16ZM140.807 146.6C140.839 146.376 140.823 146.141 140.759 145.896C140.695 145.651 140.578 145.405 140.407 145.16C140.247 144.915 139.996 144.712 139.655 144.552C139.314 144.392 138.914 144.312 138.455 144.312C137.762 144.312 137.159 144.515 136.647 144.92C136.146 145.325 135.874 145.885 135.831 146.6H140.807ZM149.653 139.8H150.933V151H149.781V149.72C148.917 150.701 147.882 151.192 146.677 151.192C145.578 151.192 144.661 150.808 143.925 150.04C143.199 149.272 142.837 148.312 142.837 147.16C142.837 146.008 143.199 145.048 143.925 144.28C144.661 143.512 145.578 143.128 146.677 143.128C147.893 143.128 148.885 143.576 149.653 144.472V139.8ZM149.653 146.2C149.418 145.667 149.05 145.219 148.549 144.856C148.047 144.493 147.471 144.312 146.821 144.312C146.053 144.312 145.407 144.573 144.885 145.096C144.373 145.619 144.117 146.307 144.117 147.16C144.117 148.013 144.373 148.701 144.885 149.224C145.407 149.747 146.053 150.008 146.821 150.008C147.471 150.008 148.047 149.827 148.549 149.464C149.05 149.101 149.418 148.653 149.653 148.12V146.2Z" fill="#111111"/>
<path d="M179.224 139.8H188.44V141.08H184.504V151H183.16V141.08H179.224V139.8ZM189.267 139.8H190.547V144.296C190.845 143.965 191.224 143.688 191.683 143.464C192.152 143.24 192.653 143.128 193.187 143.128C194.115 143.128 194.877 143.421 195.475 144.008C196.083 144.584 196.387 145.336 196.387 146.264V151H195.107V146.424C195.107 145.731 194.915 145.208 194.531 144.856C194.157 144.493 193.661 144.312 193.043 144.312C192.061 144.312 191.229 144.824 190.547 145.848V151H189.267V139.8ZM203.921 143.32H205.201V151H204.049V149.864C203.772 150.237 203.382 150.552 202.881 150.808C202.39 151.064 201.857 151.192 201.281 151.192C200.289 151.192 199.505 150.909 198.929 150.344C198.364 149.768 198.081 149.005 198.081 148.056V143.32H199.361V147.896C199.361 149.304 200.049 150.008 201.425 150.008C202.406 150.008 203.238 149.496 203.921 148.472V143.32Z" fill="#111111"/>
<path d="M241.472 139.8H249.056V141.08H242.816V144.936H248.592V146.216H242.816V151H241.472V139.8ZM251.028 144.68C251.327 144.179 251.785 143.789 252.404 143.512C253.023 143.224 253.668 143.107 254.34 143.16V144.44C253.593 144.355 252.932 144.477 252.356 144.808C251.791 145.128 251.391 145.597 251.156 146.216V151H249.876V143.32H251.028V144.68ZM256.567 151H255.287V143.32H256.567V151ZM256.519 140.28C256.679 140.419 256.759 140.616 256.759 140.872C256.759 141.128 256.679 141.331 256.519 141.48C256.359 141.619 256.162 141.688 255.927 141.688C255.693 141.688 255.495 141.619 255.335 141.48C255.175 141.331 255.095 141.128 255.095 140.872C255.095 140.616 255.175 140.419 255.335 140.28C255.495 140.131 255.693 140.056 255.927 140.056C256.162 140.056 256.359 140.131 256.519 140.28Z" fill="#111111"/>
<path d="M295.8 142.568C295.8 141.619 296.168 140.888 296.904 140.376C297.64 139.864 298.552 139.608 299.64 139.608C300.952 139.608 302.083 139.88 303.032 140.424V141.768C302.093 141.16 300.995 140.867 299.736 140.888C298.019 140.888 297.16 141.432 297.16 142.52C297.16 142.957 297.325 143.331 297.656 143.64C297.987 143.949 298.397 144.184 298.888 144.344C299.379 144.504 299.912 144.691 300.488 144.904C301.075 145.107 301.613 145.32 302.104 145.544C302.595 145.757 303.005 146.088 303.336 146.536C303.667 146.984 303.832 147.523 303.832 148.152C303.832 148.685 303.715 149.155 303.48 149.56C303.256 149.965 302.947 150.285 302.552 150.52C302.157 150.755 301.72 150.925 301.24 151.032C300.76 151.139 300.243 151.192 299.688 151.192C298.269 151.192 296.989 150.872 295.848 150.232V148.888C296.968 149.571 298.216 149.912 299.592 149.912C301.512 149.912 302.472 149.357 302.472 148.248C302.472 147.843 302.349 147.496 302.104 147.208C301.859 146.909 301.539 146.669 301.144 146.488C300.749 146.307 300.312 146.141 299.832 145.992C299.363 145.843 298.893 145.683 298.424 145.512C297.955 145.331 297.523 145.128 297.128 144.904C296.733 144.669 296.413 144.355 296.168 143.96C295.923 143.565 295.8 143.101 295.8 142.568ZM311.303 149.4C311.303 149.795 311.501 149.992 311.895 149.992C312.066 149.992 312.263 149.955 312.487 149.88V150.92C312.167 151.037 311.847 151.096 311.527 151.096C310.791 151.096 310.322 150.787 310.119 150.168C309.298 150.851 308.301 151.192 307.127 151.192C306.381 151.192 305.741 150.995 305.207 150.6C304.685 150.195 304.423 149.613 304.423 148.856C304.423 147.949 304.759 147.293 305.431 146.888C306.114 146.472 306.935 146.264 307.895 146.264C308.599 146.264 309.309 146.344 310.023 146.504V146.232C310.023 145.645 309.831 145.181 309.447 144.84C309.063 144.488 308.525 144.312 307.831 144.312C306.861 144.312 305.927 144.504 305.031 144.888V143.64C306.034 143.299 307.01 143.128 307.959 143.128C309.005 143.128 309.821 143.411 310.407 143.976C311.005 144.531 311.303 145.336 311.303 146.392V149.4ZM305.735 148.792C305.735 149.219 305.895 149.544 306.215 149.768C306.546 149.981 306.941 150.088 307.399 150.088C308.455 150.088 309.33 149.715 310.023 148.968V147.56C309.298 147.411 308.647 147.336 308.071 147.336C307.421 147.336 306.866 147.453 306.407 147.688C305.959 147.912 305.735 148.28 305.735 148.792ZM313.736 140.936L315 140.616V143.32H318.072V144.504H315V148.472C315 149.037 315.128 149.432 315.384 149.656C315.651 149.88 316.072 149.992 316.648 149.992C317.203 149.992 317.768 149.875 318.344 149.64V150.824C317.693 151.059 317.005 151.176 316.28 151.176C315.501 151.176 314.883 150.968 314.424 150.552C313.965 150.125 313.736 149.507 313.736 148.696V144.504H312.296V143.32H313.736V140.936Z" fill="#111111"/>
<path d="M350.8 142.568C350.8 141.619 351.168 140.888 351.904 140.376C352.64 139.864 353.552 139.608 354.64 139.608C355.952 139.608 357.083 139.88 358.032 140.424V141.768C357.093 141.16 355.995 140.867 354.736 140.888C353.019 140.888 352.16 141.432 352.16 142.52C352.16 142.957 352.325 143.331 352.656 143.64C352.987 143.949 353.397 144.184 353.888 144.344C354.379 144.504 354.912 144.691 355.488 144.904C356.075 145.107 356.613 145.32 357.104 145.544C357.595 145.757 358.005 146.088 358.336 146.536C358.667 146.984 358.832 147.523 358.832 148.152C358.832 148.685 358.715 149.155 358.48 149.56C358.256 149.965 357.947 150.285 357.552 150.52C357.157 150.755 356.72 150.925 356.24 151.032C355.76 151.139 355.243 151.192 354.688 151.192C353.269 151.192 351.989 150.872 350.848 150.232V148.888C351.968 149.571 353.216 149.912 354.592 149.912C356.512 149.912 357.472 149.357 357.472 148.248C357.472 147.843 357.349 147.496 357.104 147.208C356.859 146.909 356.539 146.669 356.144 146.488C355.749 146.307 355.312 146.141 354.832 145.992C354.363 145.843 353.893 145.683 353.424 145.512C352.955 145.331 352.523 145.128 352.128 144.904C351.733 144.669 351.413 144.355 351.168 143.96C350.923 143.565 350.8 143.101 350.8 142.568ZM365.807 143.32H367.087V151H365.935V149.864C365.658 150.237 365.269 150.552 364.767 150.808C364.277 151.064 363.743 151.192 363.167 151.192C362.175 151.192 361.391 150.909 360.815 150.344C360.25 149.768 359.967 149.005 359.967 148.056V143.32H361.247V147.896C361.247 149.304 361.935 150.008 363.311 150.008C364.293 150.008 365.125 149.496 365.807 148.472V143.32ZM370.126 144.456C370.403 144.083 370.787 143.768 371.278 143.512C371.779 143.256 372.318 143.128 372.894 143.128C373.822 143.128 374.585 143.421 375.182 144.008C375.79 144.584 376.094 145.336 376.094 146.264V151H374.814V146.424C374.814 145.731 374.622 145.208 374.238 144.856C373.865 144.493 373.369 144.312 372.75 144.312C371.769 144.312 370.937 144.824 370.254 145.848V151H368.974V143.32H370.126V144.456Z" fill="#111111"/>
<rect x="0.5" y="178.5" width="134.851" height="87.0004" rx="11.5" stroke="#111111"/>
<g clip-path="url(#clip0_336_235139)">
<path d="M76.97 232.13H59.3228L50.5 216.891L59.3228 201.651H76.97L85.7928 216.891L76.97 232.13ZM59.7402 231.41H76.5526L84.9595 216.891L76.5526 202.371H59.7402L51.3333 216.891L59.7402 231.41Z" fill="#111111"/>
<path d="M71.3049 217.532C71.1851 217.546 70.9699 217.647 70.8717 217.823C70.798 217.954 70.8413 218.125 70.9728 218.2C71.0161 218.224 71.0638 218.236 71.11 218.236C71.2039 218.236 71.2934 218.188 71.3439 218.099C71.3526 218.09 71.3786 218.075 71.3743 218.073C71.5245 218.054 71.6313 217.918 71.6126 217.768C71.5923 217.619 71.4551 217.513 71.3049 217.532Z" fill="#FFDE3B"/>
<path d="M65.4229 216.833C65.4215 216.804 65.4229 216.773 65.4331 216.741C65.4229 216.771 65.42 216.803 65.4229 216.833Z" fill="#FFDE3B"/>
<path d="M65.4229 216.833C65.4215 216.804 65.4229 216.773 65.4331 216.741C65.4229 216.771 65.42 216.803 65.4229 216.833Z" fill="#FFDE3B"/>
<path d="M65.4251 216.848C65.4251 216.843 65.4219 216.838 65.4219 216.833C65.4219 216.838 65.4235 216.843 65.4251 216.848Z" fill="#FFDE3B"/>
<path d="M65.4251 216.848C65.4251 216.843 65.4219 216.838 65.4219 216.833C65.4219 216.838 65.4235 216.843 65.4251 216.848Z" fill="#FFDE3B"/>
<path d="M79.4255 221.731C78.8666 221.695 78.4594 221.315 78.3481 221.2C78.2023 221.048 77.7603 220.406 77.4051 219.89C77.1249 219.484 76.8837 219.133 76.7638 218.983C76.5428 218.708 76.1486 217.517 76.0648 217.094C76.0489 217.015 76.0417 216.921 76.0403 216.822C76.4576 216.676 77.239 216.646 77.4354 216.682C77.5899 216.709 77.7416 216.809 77.9784 217.038C78.1734 217.225 78.338 217.285 78.4868 217.285C78.5951 217.285 78.6948 217.254 78.7915 217.216C78.9475 217.156 79.0905 216.986 79.1872 216.846C79.3764 216.829 79.5555 216.722 79.7115 216.61C79.9686 216.423 79.9975 216.116 79.7982 215.698C79.7577 215.613 79.7072 215.499 79.6508 215.376C79.5902 215.239 79.5223 215.09 79.4559 214.948C79.3201 214.66 79.1916 214.442 78.9995 214.314C78.9605 214.288 78.8435 214.183 78.7511 214.1C78.6847 214.041 78.6139 213.977 78.546 213.917C78.5648 213.865 78.5792 213.813 78.5836 213.76C78.5937 213.623 78.5503 213.498 78.4579 213.4C78.3828 213.319 78.2427 213.227 78.0015 213.234C77.8759 213.238 77.7358 213.274 77.5971 213.331C77.2375 213.233 76.6454 213.234 76.4432 213.243C76.3089 213.25 76.0908 213.256 75.8568 213.263C75.4929 213.274 75.0798 213.287 74.8748 213.303C74.5671 213.328 74.1844 213.316 74.0371 213.299C73.9158 213.285 73.7887 213.256 73.6558 213.224C73.4175 213.169 73.146 213.105 72.8326 213.115C72.3517 213.126 71.878 213.417 71.6512 213.557L71.6021 213.587C71.5111 213.64 71.0605 213.708 70.5608 213.696C69.9109 213.681 68.1071 213.56 67.5886 213.503C67.4514 213.489 67.2521 213.449 67.0224 213.403C66.4014 213.277 65.5522 213.107 64.7651 213.185C63.8581 213.274 62.967 213.512 62.1192 213.892L61.9243 213.982C61.3018 214.265 60.4468 214.654 59.5543 214.588C58.7946 214.53 57.5107 214.131 57.5107 212.991C57.5107 212.382 58.2155 212.068 58.5173 212.068C58.991 212.068 59.4171 212.442 59.4546 212.546C59.4546 212.742 59.4142 212.871 59.3824 212.975C59.3376 213.12 59.2698 213.341 59.4734 213.531C59.6366 213.682 59.9876 213.761 60.2908 213.629C60.5407 213.521 60.8368 213.246 60.8368 212.546C60.8368 211.286 59.459 210.699 58.5274 210.699C57.5656 210.699 56.1719 211.516 56.1719 212.991C56.1719 214.483 57.1655 215.59 58.7628 215.881C59.8922 216.087 60.649 215.985 61.1935 215.795C61.0375 216.283 60.805 216.971 60.6086 217.403C60.2764 218.132 59.4431 219.159 59.3116 219.261C59.277 219.284 59.2365 219.309 59.1932 219.333C59.0011 219.447 58.7628 219.588 58.6863 219.829C58.6372 219.986 58.0595 221.397 57.8486 221.902C57.6537 222.37 57.8457 222.631 58.0003 222.841C58.0349 222.889 58.0739 222.939 58.11 222.997C58.2935 223.288 58.6357 223.407 58.9289 223.407C59.0546 223.407 59.173 223.384 59.2654 223.344C59.6164 223.188 59.5861 222.693 59.5182 222.49C59.4777 222.372 59.381 222.291 59.2582 222.189C59.225 222.162 59.1773 222.121 59.1427 222.088C59.238 221.855 59.5716 221.285 59.6612 221.192C59.7709 221.093 60.3053 220.73 60.7313 220.488C61.1747 220.238 62.1756 219.582 62.6536 219.241C62.9222 219.049 63.1707 218.838 63.3483 218.678C63.5317 219.003 63.6213 219.231 63.627 219.306C63.6891 220.409 63.6444 220.645 63.6343 220.681C63.6227 220.724 63.6054 220.766 63.588 220.809C63.497 221.034 63.3425 221.41 63.7787 221.882C63.9722 222.091 65.0409 223.171 65.4655 223.263C65.4742 223.265 66.049 223.367 66.5747 223.367C66.9271 223.367 67.2593 223.321 67.3835 223.168C67.5178 223.004 67.5409 222.769 67.447 222.555C67.3373 222.306 67.099 222.147 66.8101 222.13C66.6758 222.121 66.5588 222.133 66.4548 222.143C66.2368 222.164 66.1169 222.176 65.9277 222.02C65.8093 221.923 65.493 221.663 65.4713 221.587C65.5175 221.39 65.8902 219.974 66.023 219.611C66.0418 219.558 66.0678 219.493 66.0952 219.421C66.2165 219.104 66.335 218.782 66.4187 218.478C66.7567 218.57 67.3589 218.71 68.0421 218.764C68.7266 218.819 69.2235 218.761 69.6235 218.717C69.6813 218.71 69.7333 218.705 69.7867 218.699C69.713 219.005 69.6148 219.438 69.5787 219.758C69.5484 220.019 69.5267 220.416 69.508 220.766C69.4935 221.047 69.4733 221.397 69.4618 221.456C69.4011 221.636 69.4906 221.809 69.5773 221.977C69.6062 222.035 69.6553 222.13 69.6611 222.163C69.6697 222.241 69.7766 222.833 69.9586 223.001C70.1203 223.15 70.7399 223.222 71.0259 223.222C71.0663 223.222 71.0995 223.22 71.1241 223.217C71.5169 223.174 71.8115 222.886 71.7783 222.575L71.7754 222.536C71.7624 222.393 71.7335 222.061 71.2396 222.031C71.166 222.026 71.0995 222.026 71.0417 222.026C71.0215 222.026 70.9999 222.026 70.9796 222.026C70.971 222.002 70.9609 221.976 70.9522 221.948C70.9017 221.812 70.8554 221.681 70.88 221.567C70.9277 221.354 71.2858 220.379 71.4678 219.945C71.6036 219.624 71.9227 219 72.0614 218.735C72.1307 218.727 72.2015 218.717 72.2693 218.708C72.4253 218.689 72.5712 218.671 72.6997 218.646C72.8961 218.61 73.1186 218.531 73.276 218.468C73.6168 218.891 74.209 219.51 74.4718 219.712C74.6292 219.833 74.9224 220.114 75.2055 220.384C75.5131 220.68 75.8048 220.959 75.9637 221.073L76.0807 221.156C76.6786 221.578 77.0079 221.855 77.0613 221.976C77.2289 222.355 78.1719 223.033 78.5359 223.093C78.5402 223.095 78.7915 223.129 79.089 223.129C79.4992 223.129 80.0018 223.063 80.0899 222.748C80.1477 222.543 80.1794 222.249 80.0119 222.015C79.9224 221.898 79.7519 221.753 79.4255 221.731ZM57.7057 211.764C57.7013 211.669 57.6464 211.588 57.5685 211.543C57.8371 211.378 58.1259 211.28 58.3715 211.251V211.27C58.3715 211.379 58.4364 211.473 58.5303 211.516C58.5231 211.516 58.5159 211.515 58.5087 211.515C58.2602 211.516 57.9685 211.604 57.7057 211.764ZM60.2807 212.541C60.2807 212.84 60.2114 213.043 60.0843 213.113C60.0193 213.149 59.9457 213.148 59.8951 213.142C59.8966 213.139 59.8966 213.136 59.898 213.133C59.937 213.009 59.9948 212.821 59.9948 212.543C59.9948 212.464 59.9688 212.377 59.9211 212.291L59.9486 212.263C60.0554 212.157 60.0554 211.984 59.9486 211.876C59.8417 211.769 59.6684 211.769 59.5601 211.876L59.5499 211.886C59.3174 211.712 59.0185 211.575 58.708 211.532C58.8235 211.503 58.9101 211.407 58.9159 211.286C59.5283 211.407 60.2807 211.798 60.2807 212.541ZM57.1655 211.87C57.1771 211.965 57.2334 212.045 57.3157 212.085C57.2132 212.199 57.1265 212.328 57.063 212.471C56.9864 212.478 56.9142 212.514 56.8666 212.582C56.7785 212.704 56.8073 212.876 56.9301 212.963L56.9532 212.979C56.9532 212.982 56.9532 212.984 56.9532 212.985C56.9532 213.231 56.9965 213.454 57.0745 213.658C56.9749 213.679 56.8969 213.751 56.8709 213.849C56.7683 213.586 56.7135 213.296 56.7135 212.985C56.7135 212.521 56.8998 212.15 57.1655 211.87ZM57.0283 214.175C57.0601 214.188 57.0933 214.195 57.1294 214.195H57.1583C57.2276 214.195 57.2897 214.166 57.3388 214.124C57.4818 214.308 57.6594 214.467 57.8602 214.599C57.7605 214.572 57.6508 214.601 57.58 214.684L57.5453 214.725C57.5381 214.733 57.5352 214.743 57.5295 214.753C57.3273 214.585 57.1583 214.392 57.0283 214.175ZM57.9858 215.052L57.9959 215.04C58.0869 214.934 58.0783 214.779 57.9858 214.68C58.3339 214.885 58.7397 215.018 59.1586 215.088C59.1513 215.093 59.1427 215.096 59.1369 215.103L59.0401 215.206C58.9982 215.25 58.9795 215.305 58.9723 215.36C58.9333 215.353 58.8957 215.348 58.8538 215.341C58.5346 215.281 58.2429 215.183 57.9858 215.052ZM70.4438 221.089C70.3052 221.118 70.1608 221.148 70.1564 221.139C70.1564 221.123 70.1665 221.07 70.2156 221.02C70.259 220.975 70.3196 220.949 70.3817 220.949C70.2301 220.949 70.1073 221.071 70.1073 221.223C70.1073 221.355 70.2041 221.462 70.3312 221.486C70.2864 221.741 70.3658 221.969 70.4265 222.136C70.4395 222.172 70.4525 222.206 70.4626 222.241C70.5695 222.575 70.8598 222.572 71.0345 222.573C71.0822 222.573 71.1356 222.573 71.1963 222.576C71.2049 222.576 71.2122 222.578 71.2179 222.578C71.2179 222.579 71.2179 222.582 71.2179 222.584L71.2194 222.604C71.1977 222.625 71.14 222.663 71.0533 222.673C70.9002 222.687 70.4857 222.628 70.3254 222.584C70.2792 222.474 70.2113 222.229 70.1969 222.103C70.1824 221.972 70.1174 221.848 70.0553 221.727C70.0322 221.682 69.999 221.617 69.986 221.58C70.0077 221.479 70.0192 221.287 70.0467 220.795C70.0481 220.76 70.051 220.726 70.0524 220.69C70.0828 220.701 70.1145 220.708 70.1478 220.708C70.1795 220.708 70.2128 220.703 70.2445 220.69C70.2777 220.677 70.3009 220.67 70.3182 220.664C70.3817 220.642 70.4193 220.628 70.4944 220.579C70.6215 220.497 70.659 220.328 70.5767 220.2C70.4944 220.073 70.3254 220.036 70.1969 220.118C70.1709 220.135 70.1709 220.135 70.142 220.144C70.1261 220.15 70.1059 220.157 70.0813 220.166C70.09 220.036 70.1001 219.915 70.1117 219.818C70.1507 219.479 70.2705 218.975 70.3413 218.689C70.4597 218.705 70.581 218.73 70.7009 218.754C70.9045 218.797 71.1125 218.841 71.3176 218.841C71.3378 218.841 71.358 218.838 71.3783 218.838C71.2281 219.134 71.0461 219.5 70.9493 219.732C70.8222 220.043 70.5868 220.668 70.4438 221.089ZM79.5714 222.529C79.3866 222.585 78.8594 222.595 78.6182 222.555C78.4204 222.517 77.6434 221.954 77.5553 221.757C77.4542 221.528 77.148 221.262 76.6584 220.904C76.7364 220.818 76.7537 220.688 76.6916 220.585C76.6916 220.585 76.6555 220.523 76.6324 220.429C76.5977 220.282 76.449 220.191 76.3017 220.227C76.1803 220.256 76.1009 220.363 76.0966 220.481C75.9493 220.348 75.7543 220.163 75.5767 219.991C75.4799 219.898 75.386 219.808 75.295 219.722C75.3095 219.723 75.3225 219.729 75.3384 219.728C75.49 219.715 75.6012 219.584 75.5897 219.433C75.5781 219.297 75.5016 219.227 75.4553 219.195C75.3282 219.108 75.1925 219.149 75.1044 219.175L75.0495 219.191C74.9672 219.214 74.908 219.271 74.8762 219.342C74.8502 219.32 74.8213 219.294 74.7982 219.277C74.7505 219.241 74.6928 219.189 74.6292 219.13C74.6292 219.13 74.6292 219.13 74.6292 219.129C74.6307 219.12 74.6321 219.111 74.6321 219.103C74.7087 219.029 74.739 218.917 74.7 218.812C74.6379 218.639 74.4935 218.591 74.388 218.603C74.3043 218.612 74.248 218.651 74.2046 218.701C73.8883 218.361 73.5778 217.995 73.5273 217.893C73.393 217.624 72.7705 217.091 72.5842 216.934C72.4687 216.836 72.2953 216.852 72.1971 216.967C72.1004 217.082 72.1148 217.255 72.2304 217.353C72.4874 217.569 72.7792 217.837 72.9337 218.007C72.8196 218.047 72.6954 218.086 72.5914 218.106C72.5669 218.11 72.5409 218.115 72.5149 218.118C72.5842 218.007 72.5697 217.861 72.4687 217.771C72.356 217.67 72.1827 217.68 72.0816 217.794C72.0181 217.866 71.904 218.004 71.8635 218.116C71.852 218.146 71.8505 218.177 71.8505 218.208C71.7234 218.227 71.592 218.25 71.4606 218.28C71.293 218.319 71.062 218.27 70.8193 218.218C70.6706 218.187 70.5189 218.157 70.363 218.139C70.3861 218.102 70.4106 218.063 70.4366 218.027C70.5233 217.903 70.4944 217.733 70.3702 217.645C70.246 217.559 70.0756 217.588 69.9875 217.712C69.8257 217.939 69.7751 218.07 69.7593 218.149C69.6914 218.157 69.6264 218.162 69.5527 218.171C69.2552 218.206 68.8985 218.243 68.4522 218.234C68.4667 218.216 68.4797 218.195 68.4883 218.171C68.5403 218.03 68.4681 217.871 68.3251 217.82C68.006 217.703 67.7489 218.023 67.6507 218.17C67.1669 218.103 66.7538 218.002 66.5155 217.936C66.5242 217.848 66.5285 217.763 66.5227 217.684C66.5126 217.533 66.3797 217.419 66.231 217.429C66.1487 217.435 66.0793 217.478 66.0317 217.539C66.0014 217.474 65.945 217.421 65.8714 217.396C65.8584 217.392 65.828 217.385 65.7891 217.377C65.7688 217.375 65.7255 217.366 65.6937 217.357C65.6287 217.285 65.5262 217.251 65.4237 217.275C65.2764 217.311 65.1868 217.46 65.2229 217.606C65.2807 217.841 65.545 217.889 65.7125 217.919C65.7356 217.925 65.7602 217.928 65.7833 217.928C65.854 217.928 65.919 217.897 65.9696 217.851C65.9566 218.026 65.9075 218.239 65.8425 218.455C65.8309 218.403 65.8107 218.354 65.7717 218.314C65.701 218.23 65.5666 218.076 65.376 218.108C65.2706 218.125 65.1825 218.197 65.142 218.299C65.0857 218.439 65.1536 218.599 65.2951 218.655C65.3153 218.663 65.337 218.669 65.3587 218.672C65.3731 218.688 65.3847 218.701 65.3919 218.708C65.4439 218.76 65.5118 218.786 65.5811 218.786C65.6446 218.786 65.7082 218.76 65.7602 218.715C65.6952 218.905 65.6273 219.084 65.5753 219.221C65.5464 219.296 65.5204 219.363 65.5002 219.42C65.4915 219.444 65.4814 219.474 65.4699 219.507C65.4468 219.422 65.415 219.313 65.4006 219.276C65.3457 219.137 65.1911 219.072 65.051 219.124C64.911 219.176 64.8402 219.333 64.8893 219.474C64.9023 219.513 64.9413 219.654 64.9658 219.749C64.9976 219.872 65.1088 219.954 65.2316 219.954C65.2547 219.954 65.2778 219.951 65.3009 219.945C65.3168 219.941 65.3283 219.931 65.3428 219.925C65.3038 220.059 65.2634 220.203 65.2229 220.35C65.1883 220.294 65.1348 220.248 65.0669 220.227C64.9211 220.186 64.7694 220.269 64.7275 220.415C64.6914 220.537 64.7333 220.657 64.8777 220.857C64.9225 220.919 64.9889 220.949 65.0597 220.961C64.9962 221.202 64.9471 221.394 64.9312 221.46C64.8416 221.84 65.1969 222.133 65.5724 222.441C65.9364 222.739 66.2498 222.709 66.4996 222.686C66.5921 222.677 66.6787 222.669 66.7711 222.674C66.8607 222.68 66.9054 222.719 66.9271 222.751C66.9387 222.768 66.9444 222.784 66.9473 222.797C66.6845 222.849 65.8483 222.785 65.5825 222.728C65.402 222.67 64.6409 222.009 64.1773 221.509C63.9765 221.293 64.0126 221.205 64.0921 221.014C64.1195 220.948 64.1441 220.883 64.1614 220.818C64.1773 220.756 64.2221 220.583 64.1932 219.781C64.1975 219.793 64.2018 219.8 64.2047 219.806C64.2538 219.903 64.3549 219.963 64.4575 219.963C64.4979 219.963 64.5369 219.954 64.5759 219.935C64.7117 219.867 64.7694 219.71 64.7015 219.575C64.6914 219.549 64.6654 219.441 64.6438 219.346C64.6106 219.198 64.4632 219.104 64.3174 219.137C64.2538 219.152 64.2033 219.189 64.1657 219.235C64.1397 218.99 63.9245 218.561 63.666 218.144C63.6704 218.144 63.6747 218.144 63.679 218.144C63.809 218.131 63.9087 218.028 63.9245 217.905C63.9347 217.881 63.9578 217.841 63.978 217.812C64.0617 217.687 64.0271 217.517 63.9014 217.434C63.7758 217.35 63.6054 217.383 63.5216 217.51C63.4566 217.608 63.4205 217.683 63.4017 217.742C62.9901 217.153 62.3012 215.995 62.294 215.983C62.216 215.854 62.0485 215.811 61.9185 215.887C61.7885 215.963 61.7452 216.132 61.8217 216.261C61.8506 216.309 62.5294 217.451 62.954 218.057C62.9901 218.108 63.0205 218.155 63.0537 218.204C62.889 218.355 62.619 218.591 62.333 218.795C62.2218 218.874 62.0803 218.972 61.9243 219.077C61.9532 218.934 61.8665 218.793 61.7235 218.759C61.5777 218.723 61.4275 218.81 61.3913 218.957C61.3596 219.085 61.3552 219.196 61.3552 219.251C61.3552 219.313 61.3798 219.368 61.4145 219.414C61.0447 219.656 60.675 219.888 60.4584 220.01C60.3486 220.072 60.2259 220.145 60.1031 220.223C60.1002 220.206 60.0973 220.191 60.0959 220.183C60.0872 220.039 59.9688 219.925 59.8215 219.925C59.6698 219.925 59.5471 220.047 59.5471 220.199C59.5471 220.249 59.5543 220.41 59.6164 220.541C59.4676 220.644 59.3478 220.733 59.2871 220.789C59.1542 220.912 58.5462 221.866 58.5708 222.154C58.5866 222.346 58.7484 222.48 58.9058 222.609C58.9361 222.634 58.978 222.669 59.0026 222.693C59.0112 222.741 59.0127 222.811 59.0055 222.854C58.9015 222.873 58.669 222.854 58.5751 222.705C58.5303 222.634 58.4855 222.573 58.4437 222.516C58.3079 222.333 58.2805 222.294 58.357 222.113C58.5014 221.766 59.1485 220.194 59.2106 219.994C59.2351 219.944 59.3911 219.852 59.4734 219.803C59.524 219.772 59.5731 219.744 59.6164 219.715C59.7146 219.649 59.9298 219.408 60.1724 219.096C60.1796 219.16 60.1941 219.241 60.2071 219.306C60.2331 219.437 60.3472 219.528 60.4757 219.528C60.493 219.528 60.5104 219.526 60.5277 219.523C60.6765 219.494 60.7732 219.35 60.7443 219.202C60.7443 219.201 60.7183 219.074 60.7154 219.022C60.7126 218.872 60.5912 218.753 60.441 218.753C60.4353 218.753 60.4309 218.756 60.4252 218.756C60.6909 218.383 60.9537 217.966 61.1083 217.628C61.4549 216.866 61.8809 215.43 61.8997 215.368C61.9315 215.262 61.8954 215.147 61.8073 215.078C61.7206 215.008 61.5993 214.998 61.5026 215.053C61.0837 215.288 60.5306 215.504 59.5731 215.435C59.6323 215.34 59.6279 215.223 59.5615 215.132C59.7796 215.145 59.9919 215.137 60.1984 215.112C60.21 215.152 60.2273 215.193 60.2576 215.226L60.3212 215.294C60.3746 215.353 60.4497 215.383 60.5234 215.383C60.5898 215.383 60.6562 215.358 60.7082 215.311C60.7963 215.23 60.8165 215.105 60.7718 215.001C61.1097 214.913 61.4246 214.795 61.7105 214.673C61.7437 214.751 61.8087 214.814 61.8983 214.834L62.0008 214.857C62.021 214.861 62.0413 214.864 62.06 214.864C62.1857 214.864 62.2998 214.778 62.3272 214.65C62.346 214.566 62.32 214.484 62.2709 214.422L62.3431 214.389C62.5901 214.278 62.8399 214.186 63.0941 214.103C63.0912 214.232 63.1764 214.349 63.3079 214.376C63.3266 214.38 63.3454 214.382 63.3642 214.382C63.4913 214.382 63.6054 214.293 63.6328 214.164L63.6588 214.041C63.666 214.005 63.666 213.97 63.6588 213.937C63.8249 213.895 63.991 213.856 64.1571 213.825C64.1383 213.891 64.1368 213.959 64.1571 214.023C64.1932 214.139 64.2885 214.225 64.417 214.26C64.4416 214.267 64.4661 214.27 64.4892 214.27C64.6106 214.27 64.7203 214.19 64.7535 214.068C64.7752 213.99 64.7608 213.912 64.7203 213.849C64.7203 213.813 64.7117 213.78 64.6972 213.747C64.7376 213.742 64.7781 213.734 64.8185 213.73C65.0496 213.706 65.2908 213.711 65.532 213.728C65.4006 213.73 65.2836 213.819 65.2605 213.951C65.2431 214.056 65.2865 214.157 65.3659 214.216C65.376 214.248 65.3919 214.28 65.415 214.307C65.4699 214.373 65.5479 214.408 65.6273 214.408C65.688 214.408 65.7501 214.388 65.8006 214.346C65.9104 214.255 65.9566 214.127 65.9234 214.002C65.8743 213.817 65.6923 213.754 65.61 213.734C65.8439 213.754 66.075 213.787 66.296 213.825C66.27 213.842 66.2454 213.862 66.2267 213.889C66.1573 213.987 66.1602 214.115 66.2267 214.209C66.2238 214.283 66.2498 214.357 66.3061 214.414C66.3595 214.467 66.4303 214.494 66.4996 214.494C66.5689 214.494 66.6397 214.467 66.6931 214.414C66.7668 214.34 66.8044 214.239 66.7957 214.137C66.7885 214.051 66.7495 213.967 66.6859 213.898C66.7625 213.912 66.8376 213.928 66.9083 213.943C67.1524 213.992 67.3618 214.033 67.5236 214.051C67.5987 214.059 67.7041 214.068 67.8269 214.079C67.8558 214.215 67.9265 214.353 68.0146 214.411C68.0608 214.442 68.1143 214.457 68.1663 214.457C68.2544 214.457 68.3425 214.414 68.3945 214.334C68.4378 214.271 68.4465 214.196 68.4306 214.127C68.8581 214.157 69.3462 214.189 69.7694 214.212C69.7506 214.291 69.7405 214.379 69.7578 214.458C69.7853 214.588 69.9037 214.686 70.0322 214.686C70.0496 214.686 70.0669 214.684 70.0857 214.68C70.2344 214.648 70.3297 214.514 70.298 214.368C70.298 214.356 70.3052 214.329 70.3095 214.314C70.3225 214.29 70.3283 214.264 70.3341 214.239C70.4106 214.242 70.4828 214.245 70.542 214.247C70.9002 214.255 71.5718 214.226 71.8606 214.068C71.8924 214.185 71.9935 214.272 72.1206 214.272C72.2722 214.272 72.395 214.15 72.395 213.999V213.802C72.395 213.794 72.3921 213.789 72.3907 213.781C72.4817 213.742 72.5755 213.709 72.6694 213.689C72.668 213.701 72.6622 213.711 72.6622 213.722C72.6622 213.874 72.7849 213.996 72.9366 213.996H72.9944C73.146 213.996 73.2688 213.874 73.2688 213.722C73.2688 213.717 73.2659 213.711 73.2659 213.705C73.3525 213.721 73.4392 213.74 73.5273 213.761C73.6703 213.794 73.8176 213.827 73.9692 213.846C74.1006 213.862 74.3259 213.871 74.5585 213.868C74.5368 213.885 74.5151 213.904 74.4993 213.928L74.4617 213.986C74.3794 214.113 74.4155 214.283 74.5426 214.365C74.5888 214.395 74.6408 214.408 74.6913 214.408C74.7809 214.408 74.869 214.363 74.9224 214.283L74.96 214.225C75.0394 214.101 75.0062 213.94 74.8863 213.855C74.895 213.855 74.9051 213.853 74.9138 213.853C75.0697 213.84 75.3687 213.83 75.6676 213.822C75.6676 213.899 75.698 213.977 75.763 214.031L75.7976 214.059C75.8496 214.103 75.9117 214.123 75.9724 214.123C76.0518 214.123 76.1284 214.09 76.1832 214.025C76.2367 213.961 76.2526 213.881 76.2396 213.804C76.3277 213.802 76.4056 213.799 76.4663 213.796C76.6064 213.789 76.7725 213.79 76.9328 213.799C76.9256 213.807 76.9169 213.816 76.9097 213.825C76.8158 213.943 76.836 214.115 76.9545 214.209C77.0729 214.303 77.2462 214.283 77.3401 214.164C77.4354 214.045 77.5769 213.947 77.7098 213.879C77.7112 213.879 77.7112 213.878 77.7127 213.878C77.834 213.816 77.9495 213.78 78.0145 213.776C77.9683 213.858 77.8528 213.987 77.7401 214.078C77.6217 214.173 77.6029 214.344 77.6982 214.463C77.7531 214.53 77.8326 214.565 77.912 214.565C77.9726 214.565 78.0319 214.545 78.0838 214.504C78.0954 214.496 78.1113 214.483 78.1272 214.468C78.1084 214.506 78.0954 214.546 78.0954 214.589V214.68C78.0954 214.831 78.2182 214.954 78.3698 214.954C78.5041 214.954 78.6096 214.856 78.6341 214.729C78.6558 214.746 78.676 214.762 78.6948 214.774C78.7858 214.834 78.884 215.024 78.9591 215.184C79.024 215.324 79.0905 215.471 79.1497 215.603C79.2075 215.731 79.2595 215.849 79.3028 215.937C79.388 216.114 79.3851 216.171 79.3894 216.171C79.2089 216.302 79.1454 216.309 79.1468 216.31C79.1035 216.303 79.0414 216.284 78.9836 216.269C78.8435 216.23 78.767 216.208 78.6789 216.23C78.5316 216.266 78.442 216.415 78.4796 216.561C78.4955 216.626 78.5345 216.678 78.5836 216.714C78.4752 216.755 78.4709 216.752 78.3611 216.647C78.1272 216.423 77.8658 216.207 77.5321 216.148C77.4498 216.133 77.291 216.125 77.096 216.127C77.1205 216.067 77.1263 215.996 77.1018 215.93C77.0498 215.788 76.8924 215.716 76.7494 215.767L76.6858 215.79C76.5428 215.842 76.4706 215.999 76.5226 216.142C76.5255 216.15 76.5327 216.158 76.5371 216.166C76.3797 216.185 76.2222 216.212 76.0735 216.248C76.0865 216.143 76.1009 216.063 76.1096 216.035C76.1659 215.896 76.098 215.736 75.9565 215.679C75.815 215.623 75.6561 215.691 75.5998 215.832C75.5622 215.926 75.516 216.205 75.4987 216.512C75.4654 216.499 75.4279 216.482 75.3932 216.466C75.256 216.402 75.0928 216.463 75.0293 216.601C74.9657 216.738 75.0264 216.901 75.165 216.964C75.3586 217.052 75.4524 217.078 75.5102 217.084C75.516 217.125 75.5203 217.169 75.5276 217.207C75.5377 217.256 75.5535 217.323 75.5738 217.402C75.5608 217.408 75.5478 217.408 75.5348 217.415L75.477 217.449C75.347 217.527 75.3051 217.696 75.3831 217.825C75.4351 217.91 75.5261 217.958 75.6185 217.958C75.6561 217.958 75.6922 217.948 75.7283 217.932C75.8539 218.328 76.0215 218.782 76.1847 219.088C76.1587 219.101 76.1327 219.116 76.111 219.137L76.0518 219.195C75.9767 219.267 75.8843 219.356 75.903 219.507C75.9132 219.592 75.9796 219.685 76.0547 219.728C76.098 219.752 76.1442 219.764 76.1905 219.764C76.2858 219.764 76.3782 219.715 76.4288 219.626C76.4389 219.607 76.4475 219.588 76.4533 219.568L76.488 219.535C76.6122 219.709 76.7797 219.951 76.9545 220.204C77.4368 220.904 77.7907 221.413 77.9539 221.583C78.3438 221.987 78.8811 222.248 79.3923 222.283C79.4775 222.288 79.5396 222.309 79.5599 222.339C79.5786 222.362 79.5887 222.431 79.5714 222.529Z" fill="#FFDE3B"/>
<path d="M68.1278 216.26C68.1408 216.207 68.1365 216.153 68.1177 216.104C68.2029 216.008 68.2101 215.861 68.1278 215.756C68.0339 215.636 67.8621 215.615 67.7422 215.708C67.631 215.795 67.4952 216.005 67.54 216.207C67.5689 216.336 67.6671 216.434 67.7971 216.464C67.8173 216.469 67.839 216.472 67.8592 216.472C67.9863 216.472 68.0989 216.387 68.1278 216.26Z" fill="#FFDE3B"/>
<path d="M69.2251 216.945C69.2901 216.932 69.4099 216.886 69.4836 216.72C69.5125 216.654 69.602 216.372 69.5009 216.203C69.3998 216.036 69.2049 216.029 68.9232 216.074C68.773 216.097 68.6705 216.237 68.695 216.386C68.7124 216.5 68.799 216.587 68.9059 216.611C68.8958 216.65 68.8943 216.69 68.903 216.731C68.929 216.86 69.0431 216.951 69.1716 216.951C69.189 216.951 69.2063 216.949 69.2251 216.945Z" fill="#FFDE3B"/>
<path d="M69.9745 215.64C70.0597 215.557 70.0828 215.424 70.0222 215.315C69.9499 215.183 69.7839 215.134 69.6495 215.206C69.4473 215.315 69.3405 215.485 69.3621 215.662C69.3809 215.809 69.4878 215.929 69.638 215.967C69.6611 215.973 69.6842 215.976 69.7059 215.976C69.8286 215.976 69.9398 215.894 69.9716 215.772C69.9846 215.727 69.9846 215.682 69.9745 215.64Z" fill="#FFDE3B"/>
<path d="M68.7986 215.881C68.8073 215.881 68.8159 215.882 68.8231 215.882C68.9632 215.882 69.0831 215.776 69.0961 215.633C69.1048 215.538 69.0643 215.45 68.9936 215.396C68.9907 215.299 68.9358 215.206 68.8419 215.159C68.7062 215.092 68.5415 215.146 68.4736 215.282C68.4086 215.411 68.4101 215.555 68.4765 215.676C68.543 215.792 68.6628 215.868 68.7986 215.881Z" fill="#FFDE3B"/>
<path d="M67.9652 215.344C67.9999 215.344 68.036 215.337 68.0706 215.322C68.1775 215.278 68.3667 215.154 68.4028 214.97C68.423 214.869 68.3927 214.766 68.3219 214.696C68.2151 214.589 68.0417 214.589 67.9334 214.696C67.8988 214.73 67.8757 214.771 67.8641 214.814C67.8627 214.815 67.8612 214.815 67.8598 214.817C67.7197 214.874 67.6547 215.036 67.7125 215.175C67.7543 215.281 67.8569 215.344 67.9652 215.344Z" fill="#FFDE3B"/>
<path d="M67.2726 214.778C67.2798 214.779 67.2885 214.779 67.2957 214.779C67.4372 214.779 67.5571 214.671 67.5687 214.529C67.5759 214.448 67.547 214.373 67.495 214.319C67.5095 214.175 67.4084 214.043 67.2625 214.022C67.1137 213.997 66.9722 214.103 66.9505 214.252C66.9361 214.343 66.9115 214.512 67.0199 214.647C67.0805 214.723 67.1701 214.769 67.2726 214.778Z" fill="#FFDE3B"/>
<path d="M65.0366 214.248C64.8951 214.196 64.7377 214.27 64.6842 214.412C64.6438 214.525 64.6813 214.646 64.768 214.718C64.7723 214.739 64.781 214.761 64.7911 214.782C64.8388 214.879 64.9355 214.934 65.0366 214.934C65.0771 214.934 65.1204 214.925 65.1594 214.905C65.2778 214.846 65.3457 214.731 65.3385 214.602C65.3313 214.45 65.2114 214.311 65.0366 214.248Z" fill="#FFDE3B"/>
<path d="M65.7128 215.106C65.7604 215.144 65.8168 215.161 65.8731 215.161C65.9525 215.161 66.0319 215.125 66.0868 215.056C66.0998 215.039 66.1114 215.021 66.12 215.003C66.2024 214.944 66.2428 214.838 66.2211 214.728C66.1923 214.579 66.0363 214.486 65.889 214.513C65.8066 214.529 65.6146 214.563 65.5669 214.761C65.5496 214.836 65.5438 214.978 65.7128 215.106Z" fill="#FFDE3B"/>
<path d="M66.6216 215.336C66.6678 215.372 66.727 215.393 66.7905 215.393C66.7978 215.393 66.8064 215.393 66.8136 215.392C66.9638 215.379 67.0765 215.246 67.0649 215.096C67.0563 214.993 67.0057 214.903 66.9234 214.844C66.7689 214.734 66.5681 214.784 66.493 214.803C66.3457 214.839 66.2562 214.988 66.2937 215.134C66.3298 215.281 66.4771 215.369 66.6216 215.336Z" fill="#FFDE3B"/>
<path d="M66.8559 215.693C66.8559 215.697 66.8544 215.701 66.8544 215.707C66.788 215.757 66.7461 215.835 66.7461 215.924C66.7461 216.076 66.8689 216.198 67.0205 216.198C67.2862 216.198 67.4047 215.909 67.4047 215.703C67.4047 215.556 67.2891 215.443 67.1418 215.436C66.9916 215.429 66.8674 215.547 66.8559 215.693Z" fill="#FFDE3B"/>
<path d="M66.506 216.415C66.5378 216.325 66.519 216.23 66.4655 216.158C66.5161 216.025 66.4554 215.872 66.324 215.812C66.1868 215.749 66.0236 215.808 65.9601 215.946C65.8864 216.106 65.8748 216.248 65.9254 216.369C65.9673 216.469 66.0496 216.544 66.1565 216.581C66.1868 216.591 66.2171 216.597 66.2475 216.597C66.3601 216.598 66.467 216.528 66.506 216.415Z" fill="#FFDE3B"/>
<path d="M65.6531 215.883C65.7167 215.883 65.7788 215.861 65.8308 215.818C65.8582 215.795 65.8799 215.767 65.8958 215.739C65.981 215.685 66.0344 215.586 66.0228 215.479C66.0084 215.33 65.8741 215.219 65.7224 215.234C65.565 215.25 65.4408 215.335 65.3903 215.461C65.3455 215.57 65.3672 215.695 65.4437 215.786C65.4972 215.849 65.5751 215.883 65.6531 215.883Z" fill="#FFDE3B"/>
<path d="M67.2717 217.098C67.1461 217.174 66.9858 217.419 67.0204 217.631C67.0435 217.765 67.1591 217.86 67.2905 217.86C67.3049 217.86 67.3208 217.859 67.3367 217.856C67.4739 217.833 67.5692 217.713 67.5663 217.579C67.5692 217.573 67.5721 217.566 67.5765 217.56C67.6039 217.543 67.6284 217.522 67.6487 217.494C67.7397 217.373 67.7151 217.202 67.5952 217.111C67.5028 217.043 67.367 217.041 67.2717 217.098Z" fill="#FFDE3B"/>
<path d="M68.2277 216.787C68.1266 216.817 68.0458 216.891 67.9981 216.994C67.936 217.13 67.9273 217.326 67.9793 217.439C68.0255 217.542 68.1252 217.601 68.2292 217.601C68.2667 217.601 68.3043 217.593 68.3418 217.576C68.4675 217.52 68.5296 217.383 68.4949 217.255C68.4949 217.252 68.4949 217.249 68.4949 217.246C68.5686 217.177 68.6003 217.071 68.57 216.968C68.5252 216.826 68.3722 216.744 68.2277 216.787Z" fill="#FFDE3B"/>
<path d="M67.0355 216.469C66.8997 216.401 66.7351 216.456 66.6672 216.591C66.6571 216.611 66.6094 216.659 66.5834 216.683C66.504 216.761 66.3711 216.891 66.4347 217.079C66.4736 217.195 66.5805 217.267 66.6946 217.267C66.7235 217.267 66.7524 217.262 66.7813 217.252C66.8621 217.225 66.9228 217.164 66.9502 217.091C66.956 217.085 66.9618 217.079 66.9676 217.074C67.0253 217.016 67.1062 216.938 67.1568 216.836C67.2261 216.701 67.1712 216.536 67.0355 216.469Z" fill="#FFDE3B"/>
<path d="M69.2048 217.36C69.1702 217.412 69.1514 217.458 69.137 217.497C69.1225 217.534 69.1139 217.555 69.0908 217.582C68.994 217.699 69.0099 217.87 69.1254 217.968C69.1774 218.011 69.2395 218.031 69.3016 218.031C69.381 218.031 69.4576 217.998 69.5125 217.933C69.5933 217.837 69.6266 217.753 69.6482 217.697C69.6526 217.686 69.6569 217.674 69.6627 217.664C69.7464 217.539 69.7118 217.369 69.5861 217.285C69.459 217.2 69.2886 217.235 69.2048 217.36Z" fill="#FFDE3B"/>
<path d="M70.5767 216.788C70.581 216.72 70.5593 216.65 70.5117 216.594C70.4135 216.479 70.2402 216.466 70.1246 216.563C69.9614 216.702 69.96 216.853 69.9744 216.931C70.0019 217.082 70.1203 217.196 70.3239 217.269C70.3543 217.281 70.386 217.285 70.4164 217.285C70.529 217.285 70.6344 217.216 70.6749 217.104C70.7182 216.984 70.6734 216.857 70.5767 216.788Z" fill="#FFDE3B"/>
<path d="M71.3049 217.532C71.1851 217.546 70.9699 217.647 70.8717 217.823C70.798 217.954 70.8413 218.125 70.9728 218.2C71.0161 218.224 71.0638 218.236 71.11 218.236C71.2039 218.236 71.2934 218.188 71.3439 218.099C71.3526 218.09 71.3786 218.075 71.3743 218.073C71.5245 218.054 71.6313 217.918 71.6126 217.768C71.5923 217.619 71.4551 217.513 71.3049 217.532Z" fill="#FFDE3B"/>
<path d="M69.0821 215.053C69.0893 215.053 69.0965 215.053 69.1038 215.051C69.2554 215.041 69.3695 214.912 69.3594 214.761C69.3507 214.64 69.2655 214.542 69.1543 214.513C69.0994 214.422 68.9926 214.367 68.8799 214.383C68.7297 214.405 68.6257 214.543 68.6474 214.693C68.6705 214.857 68.877 215.053 69.0821 215.053Z" fill="#FFDE3B"/>
<path d="M70.4144 215.387L70.5993 215.186L70.4173 215.39C70.4693 215.436 70.5343 215.459 70.5993 215.459C70.6744 215.459 70.7495 215.429 70.8044 215.367C70.8867 215.275 70.8954 215.141 70.8333 215.042C70.8506 214.967 70.8362 214.886 70.7871 214.82C70.6975 214.698 70.5257 214.672 70.4043 214.761C70.3061 214.833 70.2484 214.934 70.2426 215.045C70.2339 215.227 70.3697 215.347 70.4144 215.387Z" fill="#FFDE3B"/>
<path d="M71.0313 216.223C71.0832 216.094 71.0298 215.952 70.9143 215.884C70.8709 215.766 70.7467 215.691 70.6182 215.707C70.468 215.729 70.364 215.867 70.3857 216.017C70.4146 216.22 70.5821 216.338 70.676 216.375C70.7092 216.388 70.7438 216.395 70.7771 216.395C70.8854 216.395 70.9894 216.331 71.0313 216.223Z" fill="#FFDE3B"/>
<path d="M71.7496 216.45C71.7424 216.438 71.7337 216.423 71.7294 216.411C71.6803 216.268 71.5243 216.192 71.3799 216.243C71.2369 216.292 71.1604 216.447 71.2109 216.591C71.2225 216.626 71.3337 216.927 71.5676 216.95C71.5777 216.951 71.5864 216.951 71.5965 216.951C71.7352 216.951 71.855 216.846 71.8695 216.705C71.8781 216.601 71.829 216.506 71.7496 216.45Z" fill="#FFDE3B"/>
<path d="M70.4142 219.182C70.3955 219.201 70.3796 219.216 70.3666 219.229C70.2453 219.27 70.1658 219.391 70.1817 219.522C70.199 219.661 70.316 219.764 70.4532 219.764C70.4648 219.764 70.4749 219.764 70.4864 219.762C70.5962 219.749 70.6814 219.72 70.7594 219.617C70.7652 219.61 70.7739 219.598 70.7912 219.582C70.9009 219.479 70.9067 219.306 70.8027 219.195C70.6987 219.084 70.524 219.08 70.4142 219.182Z" fill="#FFDE3B"/>
<path d="M64.3972 218.058C64.2831 218.178 64.1878 218.39 64.3005 218.586C64.351 218.675 64.4434 218.725 64.5402 218.725C64.5864 218.725 64.6326 218.714 64.6745 218.689C64.7742 218.633 64.8247 218.524 64.8117 218.416C64.8998 218.306 64.8897 218.146 64.7857 218.047C64.676 217.945 64.5027 217.949 64.3972 218.058Z" fill="#FFDE3B"/>
<path d="M64.8207 216.731C64.7268 216.704 64.6156 216.732 64.5448 216.8C64.4018 216.937 64.4018 217.297 64.4163 217.355C64.4466 217.48 64.5593 217.563 64.682 217.563C64.7037 217.563 64.7254 217.56 64.747 217.555C64.8784 217.523 64.9637 217.402 64.955 217.272C64.9564 217.244 64.9637 217.187 64.9709 217.147C64.9868 217.123 64.9998 217.097 65.0084 217.068C65.0503 216.923 64.9665 216.771 64.8207 216.731Z" fill="#FFDE3B"/>
<path d="M65.1636 215.995C65.0538 215.89 64.8805 215.894 64.7751 216.003C64.6711 216.113 64.674 216.286 64.7838 216.391L64.8155 216.421C64.869 216.471 64.9369 216.497 65.0047 216.497C65.0769 216.497 65.1492 216.469 65.2026 216.412C65.3066 216.303 65.3037 216.13 65.1939 216.025L65.1636 215.995Z" fill="#FFDE3B"/>
<path d="M63.6411 216.458C63.4995 216.404 63.3407 216.473 63.2858 216.614L63.2454 216.716C63.1905 216.857 63.2598 217.016 63.4013 217.071C63.4345 217.084 63.4678 217.089 63.501 217.089C63.6107 217.089 63.7147 217.023 63.7566 216.915L63.797 216.813C63.8519 216.672 63.7812 216.513 63.6411 216.458Z" fill="#FFDE3B"/>
<path d="M64.4443 216.598C64.4573 216.503 64.4862 216.307 64.3244 216.201C64.1973 216.117 64.0269 216.152 63.9446 216.277C63.9013 216.342 63.8897 216.418 63.9056 216.489C63.9041 216.505 63.9013 216.519 63.9013 216.522C63.8796 216.672 63.985 216.81 64.1338 216.832C64.1468 216.833 64.1598 216.834 64.1728 216.834C64.3071 216.834 64.4255 216.735 64.4443 216.598Z" fill="#FFDE3B"/>
<path d="M64.479 215.867C64.6306 215.867 64.7519 215.757 64.7519 215.606C64.7548 215.587 64.7635 215.558 64.7707 215.531C64.7967 215.429 64.814 215.361 64.7852 215.276C64.7375 215.134 64.5815 215.056 64.4371 215.103C64.3288 215.139 64.258 215.237 64.2508 215.345C64.2479 215.358 64.2421 215.376 64.2378 215.394C64.2161 215.475 64.2031 215.528 64.2031 215.58C64.206 215.731 64.3273 215.867 64.479 215.867Z" fill="#FFDE3B"/>
<path d="M61.5156 217.049C61.5156 217.107 61.5546 217.288 61.5748 217.34C61.6167 217.445 61.7164 217.507 61.8247 217.507C61.855 217.507 61.8868 217.501 61.9171 217.491C62.0558 217.444 62.1309 217.291 62.089 217.15C62.0803 217.121 62.0659 217.049 62.0615 217.022C62.0485 216.883 61.9316 216.775 61.7886 216.775C61.6384 216.775 61.5156 216.898 61.5156 217.049Z" fill="#FFDE3B"/>
<path d="M62.3344 218.518C62.3489 218.521 62.3633 218.521 62.3778 218.521C62.5106 218.521 62.6276 218.424 62.6479 218.29C62.6536 218.253 62.671 218.12 62.6435 218.004C62.6103 217.86 62.4702 217.776 62.3243 217.805C62.1785 217.834 62.0846 217.979 62.1077 218.125C62.1106 218.139 62.1077 218.18 62.1048 218.205C62.0817 218.354 62.1842 218.495 62.3344 218.518Z" fill="#FFDE3B"/>
<path d="M61.1676 217.747C61.0593 217.877 61.0535 218.139 61.0607 218.195C61.0809 218.332 61.2008 218.442 61.3366 218.442C61.3481 218.442 61.3611 218.44 61.3727 218.439C61.5229 218.417 61.6283 218.29 61.6066 218.141C61.6066 218.123 61.6139 218.079 61.6196 218.054C61.6817 217.942 61.6572 217.798 61.5546 217.713C61.4362 217.615 61.2643 217.631 61.1676 217.747Z" fill="#FFDE3B"/>
<path d="M63.2931 216.035L63.2411 215.881C63.1934 215.739 63.0389 215.659 62.8945 215.708C62.7501 215.756 62.6735 215.911 62.7212 216.054L62.7732 216.208C62.8122 216.323 62.919 216.395 63.0331 216.395C63.062 216.395 63.0909 216.391 63.1198 216.381C63.2628 216.333 63.3407 216.178 63.2931 216.035Z" fill="#FFDE3B"/>
<path d="M64.0019 215.894V215.834C64.0019 215.682 63.8792 215.56 63.7275 215.56C63.5759 215.56 63.4531 215.682 63.4531 215.834V215.894C63.4531 216.045 63.5759 216.168 63.7275 216.168C63.8792 216.168 64.0019 216.045 64.0019 215.894Z" fill="#FFDE3B"/>
<path d="M62.9482 215.073C62.9872 215.187 63.0941 215.257 63.2082 215.257C63.2371 215.257 63.2674 215.253 63.2977 215.243C63.4407 215.194 63.5173 215.038 63.4682 214.896L63.4162 214.746C63.3671 214.604 63.2111 214.526 63.0681 214.576C62.9251 214.625 62.8486 214.781 62.8977 214.923L62.9482 215.073Z" fill="#FFDE3B"/>
<path d="M65.3154 216.889C65.3544 217.003 65.4613 217.074 65.5754 217.074C65.6043 217.074 65.6346 217.069 65.6649 217.059C65.8079 217.01 65.8845 216.855 65.8353 216.712L65.7834 216.562C65.7342 216.42 65.5783 216.342 65.4353 216.392C65.2923 216.441 65.2158 216.597 65.2649 216.739L65.3154 216.889Z" fill="#FFDE3B"/>
<path d="M63.6787 214.892C63.7177 215.005 63.8246 215.076 63.9387 215.076C63.9675 215.076 63.9979 215.072 64.0282 215.062C64.1712 215.013 64.2477 214.857 64.1986 214.715L64.1466 214.565C64.0975 214.422 63.9415 214.344 63.7986 214.395C63.6556 214.444 63.579 214.599 63.6281 214.742L63.6787 214.892Z" fill="#FFDE3B"/>
<path d="M62.7365 215.236L62.6383 215.049C62.5676 214.915 62.4015 214.864 62.2672 214.935C62.1328 215.006 62.0823 215.171 62.1531 215.305L62.2513 215.492C62.3004 215.586 62.3957 215.638 62.4939 215.638C62.5372 215.638 62.5806 215.628 62.621 215.606C62.7567 215.534 62.8073 215.368 62.7365 215.236Z" fill="#FFDE3B"/>
<path d="M74.0418 217.386C73.9436 217.271 73.7703 217.258 73.6547 217.356C73.5392 217.454 73.5262 217.626 73.6244 217.742L73.6937 217.821C73.7486 217.884 73.8252 217.916 73.9017 217.916C73.9653 217.916 74.0288 217.894 74.0793 217.85C74.1949 217.752 74.2079 217.579 74.1097 217.464L74.0418 217.386Z" fill="#FFDE3B"/>
<path d="M74.888 217.01C74.888 216.82 74.7493 216.709 74.6121 216.698C74.4099 216.679 74.1947 216.904 74.1716 217.052C74.1471 217.202 74.2482 217.341 74.3984 217.366C74.4128 217.369 74.4287 217.369 74.4432 217.369C74.5212 217.369 74.5934 217.336 74.6439 217.281C74.7811 217.267 74.888 217.151 74.888 217.01Z" fill="#FFDE3B"/>
<path d="M74.8998 217.686C74.7901 217.648 74.6745 217.681 74.5749 217.775C74.4377 217.903 74.4564 218.041 74.4709 218.095C74.4998 218.201 74.585 218.282 74.6991 218.308C74.7193 218.312 74.741 218.315 74.7612 218.315C74.881 218.315 74.9894 218.236 75.024 218.119C75.0442 218.095 75.0616 218.064 75.0717 218.033C75.1208 217.89 75.0428 217.735 74.8998 217.686Z" fill="#FFDE3B"/>
<path d="M75.3571 218.247C75.2372 218.295 75.1578 218.404 75.1564 218.527C75.1535 218.623 75.204 218.751 75.3499 218.818C75.386 218.835 75.425 218.842 75.464 218.842C75.568 218.842 75.6676 218.783 75.7138 218.682C75.7196 218.669 75.724 218.656 75.7283 218.643C75.7918 218.538 75.7774 218.4 75.6864 218.311C75.6026 218.227 75.4727 218.201 75.3571 218.247Z" fill="#FFDE3B"/>
<path d="M73.5249 216.044C73.5798 216.044 73.6361 216.027 73.6852 215.992C73.808 215.904 73.8354 215.733 73.7473 215.611C73.7386 215.598 73.7256 215.579 73.7155 215.562C73.7126 215.495 73.6866 215.431 73.6361 215.38C73.5292 215.274 73.3559 215.274 73.2476 215.38C73.1147 215.513 73.1335 215.697 73.3025 215.93C73.3559 216.005 73.4397 216.044 73.5249 216.044Z" fill="#FFDE3B"/>
<path d="M74.7719 215.356C74.8455 215.356 74.9192 215.327 74.9726 215.269C75.0578 215.178 75.0679 215.043 75.0073 214.942C75.0159 214.814 74.9336 214.693 74.8051 214.659C74.6592 214.618 74.5076 214.706 74.4686 214.853C74.4267 215.01 74.4714 215.178 74.5855 215.284C74.6375 215.331 74.704 215.356 74.7719 215.356Z" fill="#FFDE3B"/>
<path d="M74.8828 215.77C74.8828 215.881 74.9565 216.054 75.0763 216.14C75.1341 216.182 75.1991 216.204 75.2655 216.204C75.2987 216.204 75.332 216.198 75.3637 216.188C75.5082 216.14 75.5861 215.985 75.537 215.842C75.5154 215.779 75.4735 215.728 75.4201 215.695C75.3868 215.582 75.2814 215.498 75.1572 215.498C75.0056 215.497 74.8828 215.619 74.8828 215.77Z" fill="#FFDE3B"/>
<path d="M74.0457 215.972C74.0688 216.106 74.1843 216.201 74.3157 216.201C74.3302 216.201 74.346 216.199 74.3619 216.197C74.5107 216.172 74.6118 216.031 74.5872 215.881C74.5872 215.878 74.5858 215.868 74.5858 215.86C74.6392 215.752 74.6161 215.618 74.5222 215.534C74.4096 215.433 74.2348 215.443 74.1352 215.557C74.0182 215.687 74.0283 215.873 74.0457 215.972Z" fill="#FFDE3B"/>
<path d="M73.6775 215.246C73.7006 215.38 73.8162 215.475 73.9476 215.475C73.962 215.475 73.9779 215.474 73.9938 215.471C74.1426 215.446 74.2437 215.305 74.2191 215.155C74.2191 215.152 74.2177 215.142 74.2177 215.134C74.2711 215.026 74.248 214.892 74.1541 214.808C74.0415 214.707 73.8667 214.717 73.7671 214.831C73.6515 214.961 73.6616 215.147 73.6775 215.246Z" fill="#FFDE3B"/>
<path d="M73.1349 216.88C73.158 217.014 73.2735 217.109 73.4049 217.109C73.4194 217.109 73.4353 217.108 73.4511 217.105C73.5999 217.081 73.701 216.94 73.6764 216.79C73.6764 216.787 73.675 216.777 73.675 216.768C73.7284 216.66 73.7053 216.526 73.6115 216.443C73.4988 216.342 73.324 216.352 73.2244 216.466C73.1074 216.595 73.119 216.781 73.1349 216.88Z" fill="#FFDE3B"/>
<path d="M72.4678 215.976L72.4505 215.937C72.3869 215.799 72.2237 215.738 72.0865 215.802C71.9493 215.865 71.8872 216.026 71.9508 216.165L71.9695 216.207C72.0056 216.289 72.088 216.482 72.3205 216.482C72.4721 216.482 72.5949 216.359 72.5949 216.208C72.5963 216.11 72.5444 216.024 72.4678 215.976Z" fill="#FFDE3B"/>
<path d="M71.2884 215.272C71.2161 215.32 71.1627 215.42 71.1569 215.505C71.1497 215.621 71.2003 215.74 71.2898 215.816C71.3418 215.861 71.4053 215.883 71.4674 215.883C71.5454 215.883 71.622 215.85 71.6754 215.788C71.7491 215.701 71.7606 215.583 71.713 215.487C71.7101 215.439 71.6956 215.392 71.6667 215.35C71.5844 215.223 71.4154 215.189 71.2884 215.272Z" fill="#FFDE3B"/>
<path d="M71.3415 214.928C71.3978 214.928 71.4556 214.911 71.5047 214.875C71.5899 214.811 71.6275 214.71 71.613 214.612C71.6289 214.507 71.5827 214.398 71.4874 214.339C71.3588 214.258 71.1898 214.299 71.109 214.425C71.0209 214.566 71.0512 214.723 71.1205 214.817C71.174 214.89 71.2577 214.928 71.3415 214.928Z" fill="#FFDE3B"/>
<path d="M72.7275 215.118C72.5759 215.118 72.4531 215.241 72.4531 215.392V215.447C72.4531 215.598 72.5759 215.72 72.7275 215.72C72.8792 215.72 73.0019 215.598 73.0019 215.447V215.392C73.0019 215.241 72.8792 215.118 72.7275 215.118Z" fill="#FFDE3B"/>
<path d="M72.1182 215.196C72.2698 215.196 72.3926 215.073 72.3926 214.922V214.821C72.3926 214.67 72.2698 214.548 72.1182 214.548C71.9665 214.548 71.8438 214.67 71.8438 214.821V214.922C71.8438 215.073 71.9665 215.196 72.1182 215.196Z" fill="#FFDE3B"/>
<path d="M73.3379 214.612V214.536C73.3379 214.385 73.2151 214.262 73.0635 214.262C72.9118 214.262 72.7891 214.385 72.7891 214.536V214.612C72.7891 214.764 72.9118 214.886 73.0635 214.886C73.2151 214.886 73.3379 214.764 73.3379 214.612Z" fill="#FFDE3B"/>
<path d="M73.8057 214.428H73.8692C74.0208 214.428 74.1436 214.306 74.1436 214.154C74.1436 214.003 74.0208 213.881 73.8692 213.881H73.8057C73.654 213.881 73.5312 214.003 73.5312 214.154C73.5312 214.306 73.654 214.428 73.8057 214.428Z" fill="#FFDE3B"/>
<path d="M75.4026 214.935C75.2727 215.012 75.2308 215.181 75.3088 215.311L75.3608 215.396C75.4127 215.481 75.5037 215.528 75.5962 215.528C75.6438 215.528 75.6929 215.515 75.7377 215.489C75.8677 215.411 75.9096 215.243 75.8316 215.113L75.7796 215.028C75.7016 214.899 75.5326 214.857 75.4026 214.935Z" fill="#FFDE3B"/>
<path d="M75.5015 214.753C75.5564 214.753 75.6127 214.738 75.6604 214.703L75.7008 214.674C75.8236 214.586 75.8524 214.415 75.7643 214.293C75.6762 214.17 75.5044 214.141 75.3816 214.229L75.3412 214.258C75.2184 214.346 75.1895 214.517 75.2776 214.64C75.3325 214.713 75.4163 214.753 75.5015 214.753Z" fill="#FFDE3B"/>
<path d="M76.2225 214.856C76.2831 214.856 76.3452 214.836 76.3958 214.794L76.4868 214.72C76.6037 214.625 76.6225 214.453 76.5272 214.336C76.4319 214.218 76.2586 214.201 76.1416 214.296L76.0506 214.369C75.9336 214.464 75.9148 214.637 76.0102 214.754C76.0636 214.821 76.143 214.856 76.2225 214.856Z" fill="#FFDE3B"/>
<path d="M76.3877 214.938C76.236 214.938 76.1133 215.06 76.1133 215.211V215.281C76.1133 215.432 76.236 215.554 76.3877 215.554C76.5393 215.554 76.6621 215.432 76.6621 215.281V215.211C76.6621 215.062 76.5393 214.938 76.3877 214.938Z" fill="#FFDE3B"/>
<path d="M39.8127 238.336L42.6217 242.485C42.6449 242.521 42.6737 242.542 42.7127 242.557C42.7633 242.574 42.8124 242.583 42.8615 242.583H43.2587C43.3164 242.583 43.328 242.571 43.328 242.514V237.185C43.328 237.127 43.3164 237.116 43.2587 237.116H42.8052C42.7474 237.116 42.7358 237.127 42.7358 237.185V241.278C42.7358 241.323 42.7358 241.441 42.6391 241.47C42.5423 241.498 42.4773 241.399 42.4528 241.362L39.7073 237.212C39.6842 237.178 39.6567 237.155 39.6163 237.142C39.5657 237.125 39.5166 237.116 39.4675 237.116H39.0068C38.9491 237.116 38.9375 237.127 38.9375 237.185V242.514C38.9375 242.571 38.9491 242.583 39.0068 242.583H39.4618C39.5195 242.583 39.5311 242.571 39.5311 242.514V238.421C39.5311 238.378 39.5311 238.261 39.6264 238.232C39.6394 238.228 39.651 238.226 39.6625 238.226C39.7391 238.228 39.791 238.304 39.8127 238.336Z" fill="#111111"/>
<path d="M50.2792 241.448C50.3528 241.403 50.3875 241.341 50.3875 241.256V238.444C50.3875 238.357 50.3543 238.298 50.2792 238.252L47.8543 236.834C47.8138 236.811 47.7763 236.799 47.7416 236.799C47.7257 236.799 47.6896 236.803 47.6232 236.837L45.2157 238.252C45.1362 238.298 45.1016 238.357 45.1016 238.444V241.256C45.1016 241.343 45.1362 241.402 45.2157 241.448L47.629 242.866C47.6839 242.901 47.7286 242.91 47.7994 242.894C47.8138 242.891 47.8297 242.882 47.8471 242.871L50.2792 241.448ZM47.7416 242.283C47.681 242.283 47.6218 242.266 47.5669 242.233L45.7832 241.184C45.6706 241.118 45.6114 241.017 45.6114 240.891V238.81C45.6114 238.684 45.6706 238.582 45.7832 238.516L47.5698 237.466C47.7171 237.392 47.8066 237.404 47.9149 237.466L49.7101 238.516C49.8199 238.583 49.8777 238.684 49.8777 238.81V240.891C49.8777 241.016 49.8199 241.117 49.713 241.183L47.9164 242.233C47.8918 242.25 47.8586 242.266 47.824 242.273C47.7936 242.28 47.7662 242.283 47.7416 242.283Z" fill="#111111"/>
<path d="M61.081 237.118C61.0233 237.118 61.0117 237.129 61.0117 237.187V242.515C61.0117 242.573 61.0233 242.584 61.081 242.584H64.9184C64.9762 242.584 64.9877 242.573 64.9877 242.515V242.062C64.9877 242.004 64.9762 241.992 64.9184 241.992H61.8826C61.7122 241.992 61.6111 241.89 61.6111 241.722V237.187C61.6111 237.129 61.5995 237.118 61.5418 237.118H61.081Z" fill="#111111"/>
<path d="M84.9131 242.633C85.0098 242.633 85.0705 242.594 85.1052 242.512L87.13 237.943C87.1502 237.897 87.1834 237.833 87.2441 237.833C87.3047 237.833 87.3379 237.897 87.3582 237.943L89.3758 242.511C89.4104 242.594 89.4711 242.633 89.5679 242.633H90.0286C90.069 242.633 90.0892 242.625 90.095 242.617C90.0993 242.61 90.1008 242.587 90.0849 242.55L87.6643 237.189C87.6297 237.104 87.569 237.066 87.4723 237.066H87.0116C86.9148 237.066 86.8541 237.104 86.8195 237.187V237.188L84.4033 242.551C84.3888 242.587 84.3888 242.61 84.3931 242.617C84.3975 242.625 84.4177 242.633 84.4596 242.633H84.9131Z" fill="#111111"/>
<path d="M93.9242 240.173L95.3771 242.492C95.4031 242.555 95.445 242.581 95.5216 242.581H96.0386C96.0429 242.581 96.0473 242.581 96.0516 242.581C96.0516 242.58 96.0502 242.577 96.0502 242.575L94.551 240.185L94.7186 240.173C94.9121 240.159 95.097 240.108 95.2688 240.022C95.4407 239.936 95.5938 239.822 95.7209 239.686C95.848 239.551 95.9491 239.393 96.0227 239.215C96.0949 239.04 96.131 238.85 96.131 238.652C96.131 238.459 96.0935 238.268 96.0184 238.083C95.9433 237.899 95.8407 237.732 95.7122 237.588C95.5851 237.445 95.432 237.33 95.2573 237.242C95.0854 237.157 94.8962 237.114 94.6969 237.114H91.8662C91.8084 237.114 91.7969 237.126 91.7969 237.183V237.637C91.7969 237.695 91.8084 237.706 91.8662 237.706H94.6796C94.8096 237.715 94.9251 237.746 95.0276 237.8C95.1302 237.853 95.2183 237.924 95.2919 238.009C95.3627 238.092 95.4219 238.189 95.4652 238.297C95.5086 238.403 95.5346 238.518 95.5432 238.639V238.647V238.654C95.523 238.901 95.4378 239.113 95.2919 239.286C95.1417 239.465 94.9352 239.563 94.681 239.58H91.9225C91.8835 239.58 91.8518 239.59 91.8243 239.61C91.8099 239.622 91.7969 239.636 91.7969 239.671V242.511C91.7969 242.568 91.8084 242.58 91.8662 242.58H92.3211C92.3789 242.58 92.3905 242.568 92.3905 242.511V240.441C92.3905 240.271 92.493 240.17 92.662 240.17H93.9242V240.173Z" fill="#111111"/>
<path d="M82.8302 239.688C82.9573 239.553 83.0584 239.394 83.1321 239.217C83.2043 239.041 83.2404 238.851 83.2404 238.654C83.2404 238.461 83.2028 238.27 83.1277 238.085C83.0526 237.901 82.9501 237.734 82.8216 237.59C82.6945 237.447 82.5414 237.332 82.3666 237.244C82.1933 237.159 82.0056 237.116 81.8063 237.116H78.9756C78.9178 237.116 78.9062 237.127 78.9062 237.185V237.639C78.9062 237.696 78.9178 237.708 78.9756 237.708H81.7889C81.9189 237.717 82.0345 237.748 82.137 237.801C82.2395 237.855 82.3276 237.925 82.4013 238.01C82.4721 238.094 82.5313 238.19 82.5746 238.298C82.6179 238.405 82.6439 238.52 82.6526 238.641V238.648V238.655C82.6324 238.903 82.5472 239.115 82.4013 239.288C82.2511 239.466 82.0446 239.564 81.7904 239.582H79.0319C78.9929 239.582 78.9611 239.592 78.9337 239.612C78.9192 239.623 78.9062 239.638 78.9062 239.672V242.512C78.9062 242.57 78.9178 242.581 78.9756 242.581H79.4305C79.4883 242.581 79.4998 242.57 79.4998 242.512V240.443C79.4998 240.273 79.6024 240.172 79.7713 240.172L81.8279 240.178V240.172C82.0215 240.158 82.2063 240.107 82.3782 240.021C82.5501 239.936 82.7031 239.823 82.8302 239.688Z" fill="#111111"/>
<path d="M98.1514 242.583H100.095C100.469 242.583 100.829 242.511 101.161 242.369C101.495 242.228 101.789 242.032 102.039 241.786C102.288 241.541 102.487 241.249 102.631 240.916C102.774 240.585 102.848 240.225 102.848 239.848C102.848 239.558 102.803 239.274 102.714 239.007C102.624 238.737 102.499 238.487 102.338 238.262C102.178 238.037 101.981 237.836 101.755 237.663C101.527 237.49 101.274 237.356 101.001 237.261C100.718 237.163 100.423 237.114 100.124 237.114H98.1514C98.0936 237.114 98.082 237.126 98.082 237.183V237.637C98.082 237.695 98.0936 237.706 98.1514 237.706H100.051C100.344 237.726 100.622 237.793 100.887 237.905C101.151 238.017 101.386 238.168 101.587 238.354C101.789 238.541 101.953 238.765 102.072 239.017C102.194 239.272 102.256 239.551 102.256 239.848C102.256 240.14 102.201 240.419 102.094 240.677C101.987 240.935 101.839 241.164 101.649 241.358C101.46 241.553 101.236 241.707 100.984 241.819C100.729 241.933 100.452 241.989 100.163 241.989H98.9471C98.7767 241.989 98.6756 241.887 98.6756 241.718V240.823C98.6756 240.765 98.6641 240.754 98.6063 240.754H98.1514C98.0936 240.754 98.082 240.765 98.082 240.823V242.512C98.082 242.571 98.0936 242.583 98.1514 242.583Z" fill="#111111"/>
<path d="M34.2719 242.396C34.5434 242.516 34.8366 242.578 35.1428 242.578C35.4822 242.578 35.7696 242.54 35.9977 242.463C36.2245 242.387 36.4137 242.292 36.561 242.178C36.7054 242.066 36.8166 241.946 36.8917 241.822C36.9712 241.69 37.0318 241.563 37.0708 241.446C37.1098 241.331 37.1329 241.235 37.1387 241.16C37.1459 241.082 37.1502 241.036 37.1502 241.02C37.1502 240.797 37.117 240.603 37.0506 240.446C36.9827 240.284 36.8975 240.147 36.7979 240.037C36.6996 239.929 36.5884 239.841 36.4686 239.779C36.3343 239.711 36.2043 239.655 36.0815 239.615C35.9588 239.574 35.8475 239.547 35.7522 239.532C35.654 239.518 35.5818 239.508 35.5385 239.502C35.5284 239.501 35.5197 239.499 35.5081 239.498H35.5067C35.3464 239.468 35.1991 239.44 35.0662 239.419C34.9102 239.391 34.773 239.35 34.6604 239.295C34.5304 239.231 34.4264 239.139 34.3513 239.023C34.2748 238.903 34.2372 238.75 34.2372 238.557C34.2372 238.277 34.36 238.046 34.5911 237.892C34.8005 237.752 35.085 237.682 35.4388 237.682C35.6049 237.688 35.758 237.705 35.8995 237.732C36.0324 237.764 36.1581 237.81 36.2808 237.872C36.3371 237.901 36.3906 237.934 36.4382 237.973C36.4628 237.992 36.5061 237.989 36.5393 237.966L36.8744 237.719C36.9091 237.695 36.9134 237.66 36.9148 237.642C36.9148 237.623 36.9105 237.587 36.8744 237.559C36.7415 237.456 36.5913 237.366 36.4296 237.294C36.1552 237.171 35.8605 237.109 35.5558 237.109C35.215 237.109 34.9261 237.145 34.6965 237.217C34.4683 237.289 34.2777 237.378 34.1303 237.482C33.9874 237.584 33.8762 237.695 33.7996 237.814C33.7187 237.941 33.6595 238.059 33.6234 238.166C33.5873 238.274 33.5657 238.365 33.5584 238.434C33.5512 238.503 33.5469 238.547 33.5469 238.562C33.5469 238.753 33.5772 238.922 33.6379 239.06C33.7 239.204 33.778 239.327 33.8704 239.427C33.9628 239.528 34.0682 239.613 34.1823 239.678C34.308 239.748 34.4293 239.806 34.5434 239.849C34.6575 239.893 34.76 239.924 34.8496 239.941C34.9391 239.96 35.0041 239.972 35.0445 239.977C35.0547 239.979 35.0648 239.98 35.0778 239.983C35.2381 240.013 35.3941 240.047 35.5399 240.08C35.7031 240.117 35.849 240.172 35.9775 240.24C36.1191 240.314 36.2332 240.415 36.3184 240.539C36.4079 240.67 36.4527 240.833 36.4527 241.026C36.4527 241.295 36.34 241.529 36.1191 241.723C35.9053 241.91 35.6136 242.004 35.2511 242.004C35.0604 242.004 34.8915 241.981 34.7485 241.936C34.6098 241.893 34.4943 241.842 34.4004 241.788C34.3369 241.75 34.2834 241.714 34.2387 241.677L33.8328 241.976C33.7982 242.001 33.7938 242.035 33.7924 242.054C33.7924 242.073 33.7967 242.109 33.8328 242.135C33.9643 242.237 34.113 242.325 34.2719 242.396Z" fill="#111111"/>
<path d="M54.444 242.414C54.47 242.462 54.5147 242.468 54.5335 242.468C54.5523 242.468 54.5971 242.462 54.6231 242.413L54.8975 241.892C54.9134 241.861 54.9134 241.827 54.8975 241.798L52.4553 237.175C52.4379 237.142 52.4033 237.12 52.3657 237.12H51.7736C51.7216 237.12 51.6956 237.155 51.6869 237.169C51.6783 237.184 51.6595 237.224 51.684 237.269L54.444 242.414Z" fill="#111111"/>
<path d="M53.965 237.12C53.913 237.12 53.887 237.155 53.8783 237.169C53.8697 237.184 53.8509 237.223 53.8754 237.269L56.5372 242.409C56.5632 242.459 56.6065 242.465 56.6267 242.463C56.6455 242.463 56.6903 242.458 56.7163 242.41L59.4646 237.27C59.4892 237.224 59.4704 237.185 59.4618 237.171C59.4531 237.156 59.4271 237.122 59.3751 237.122H58.7844C58.7743 237.122 58.7642 237.123 58.757 237.126L56.631 241.311L54.6423 237.165C54.6236 237.139 54.5932 237.123 54.5615 237.123H53.965V237.12Z" fill="#111111"/>
<path d="M77.2049 241.425C77.2786 241.38 77.3133 241.318 77.3133 241.233V238.421C77.3133 238.336 77.2786 238.274 77.2049 238.229L74.7801 236.811C74.7396 236.788 74.7021 236.776 74.6674 236.776C74.6515 236.776 74.6154 236.78 74.549 236.814L72.1414 238.229C72.062 238.275 72.0273 238.336 72.0273 238.421V241.233C72.0273 241.32 72.062 241.379 72.1414 241.425L74.5548 242.843C74.6096 242.878 74.6559 242.887 74.7252 242.871C74.7396 242.868 74.7555 242.859 74.7728 242.848L77.2049 241.425ZM74.6674 242.26C74.6068 242.26 74.5475 242.243 74.4927 242.21L72.709 241.161C72.5964 241.095 72.5372 240.993 72.5372 240.868V238.787C72.5372 238.661 72.5964 238.559 72.709 238.493L74.4955 237.443C74.6429 237.369 74.7324 237.381 74.8407 237.443L76.6359 238.493C76.7457 238.56 76.8034 238.661 76.8034 238.787V240.868C76.8034 240.993 76.7457 241.094 76.6373 241.16L74.8407 242.21C74.8162 242.228 74.7815 242.243 74.7483 242.25C74.7165 242.257 74.692 242.26 74.6674 242.26Z" fill="#111111"/>
<path d="M66.8252 237.041H70.2076C70.2639 237.041 70.3087 237.087 70.3087 237.142V237.479C70.3087 237.535 70.2625 237.579 70.2076 237.579H66.8252C66.7689 237.579 66.7241 237.533 66.7241 237.479V237.142C66.7227 237.085 66.7689 237.041 66.8252 237.041ZM66.8238 239.552H69.7036C69.7599 239.552 69.8047 239.597 69.8047 239.653V239.99C69.8047 240.046 69.7599 240.091 69.7036 240.091H66.8238C66.7674 240.091 66.7227 240.046 66.7227 239.99V239.653C66.7227 239.599 66.7689 239.552 66.8238 239.552ZM66.8252 242.05H70.209C70.2654 242.05 70.3101 242.096 70.3101 242.15V242.487C70.3101 242.544 70.2639 242.588 70.209 242.588H66.8252C66.7689 242.588 66.7241 242.542 66.7241 242.487V242.15C66.7227 242.096 66.7689 242.05 66.8252 242.05Z" fill="#111111"/>
</g>
<g clip-path="url(#clip1_336_235139)">
<path d="M120.452 186.8C116.812 186.8 113.852 189.761 113.852 193.4C113.852 197.039 116.812 200 120.452 200C124.091 200 127.052 197.039 127.052 193.4C127.052 189.761 124.091 186.8 120.452 186.8ZM124.14 191.663L119.922 195.848C119.674 196.096 119.277 196.113 119.012 195.865L116.779 193.83C116.515 193.582 116.498 193.168 116.73 192.904C116.978 192.639 117.391 192.622 117.656 192.871L119.426 194.492L123.197 190.72C123.462 190.456 123.876 190.456 124.14 190.72C124.405 190.985 124.405 191.398 124.14 191.663Z" fill="#111111"/>
</g>
<rect x="148.449" y="178.5" width="135.401" height="87.0004" rx="11.5" stroke="#111111"/>
<path fill-rule="evenodd" clip-rule="evenodd" d="M198.797 213.268C196.077 213.642 193.423 215.097 191.687 217.165L191.155 217.798L192.435 217.825L193.715 217.853L194.171 217.424C195.93 215.772 198.842 214.808 201.144 215.116C203.242 215.396 205.04 216.188 206.399 217.432L206.851 217.846H208.109H209.367L209.251 217.627C209.188 217.507 208.634 216.926 208.021 216.337C206.446 214.822 205.038 214.047 202.868 213.497C201.802 213.227 199.878 213.119 198.797 213.268ZM211.632 215.965L211.058 216.297V223.408V230.519L211.682 230.49L212.306 230.461L212.296 229.803C212.29 229.442 212.315 229.146 212.35 229.146C212.386 229.146 212.593 229.324 212.81 229.541C213.361 230.091 213.998 230.463 214.727 230.659C216.222 231.062 217.839 230.37 218.681 228.967C219.318 227.906 219.538 227.051 219.614 225.347C219.712 223.154 219.282 221.608 218.285 220.569C217.519 219.771 216.42 219.43 215.212 219.616C214.42 219.737 213.674 220.11 212.963 220.737C212.639 221.022 212.352 221.256 212.324 221.256C212.296 221.256 212.268 219.997 212.261 218.46C212.254 216.922 212.239 215.657 212.228 215.649C212.216 215.641 211.948 215.783 211.632 215.965ZM243.719 215.985L243.27 216.252L243.244 223.381L243.218 230.51H243.818H244.418V228.994V227.479L245.478 226.018C246.061 225.214 246.554 224.573 246.573 224.591C246.613 224.63 248.791 229.095 249.187 229.95L249.446 230.51H250.121H250.796L249.893 228.683C249.397 227.679 248.636 226.139 248.203 225.261C247.769 224.384 247.415 223.615 247.415 223.552C247.415 223.44 248.128 222.444 249.441 220.72L250.109 219.843L249.547 219.814C249.238 219.797 248.93 219.805 248.862 219.83C248.756 219.87 248.093 220.773 246.03 223.691C245.784 224.039 245.438 224.525 245.262 224.77C245.085 225.015 244.867 225.354 244.777 225.525C244.687 225.695 244.569 225.834 244.516 225.834C244.454 225.834 244.418 223.992 244.418 220.769C244.418 216.777 244.392 215.705 244.294 215.711C244.225 215.715 243.966 215.839 243.719 215.985ZM199.896 216.937L198.872 217.47V218.58V219.69L197.898 219.718L196.925 219.746V220.671V221.597L197.873 221.645L198.822 221.694L198.872 225.25C198.929 229.253 198.924 229.229 199.701 230.003C200.43 230.728 201.8 230.904 202.929 230.417C203.302 230.256 203.363 230.181 203.499 229.716C203.78 228.754 203.88 228.347 203.843 228.311C203.823 228.291 203.539 228.382 203.212 228.513C202.87 228.651 202.414 228.753 202.136 228.754C201.734 228.756 201.605 228.709 201.36 228.47L201.067 228.184L201.093 224.939L201.12 221.694L202.118 221.677C202.668 221.668 203.174 221.657 203.242 221.653C203.333 221.647 203.367 221.381 203.367 220.671V219.697H202.218H201.07V218.041C201.07 217.13 201.036 216.39 200.995 216.395C200.954 216.401 200.459 216.645 199.896 216.937ZM186.28 219.601C183.376 220.045 181.495 222.227 181.496 225.152C181.496 226.469 181.869 227.635 182.586 228.566C183.502 229.755 184.74 230.422 186.555 230.705C187.454 230.846 188.64 230.653 189.533 230.222C190.166 229.917 191.182 229.113 191.18 228.919C191.179 228.793 190.131 227.557 189.983 227.507C189.932 227.49 189.787 227.571 189.662 227.688C188.206 229.042 185.81 228.939 184.535 227.469C183.664 226.463 183.485 224.65 184.135 223.413C184.423 222.865 185.088 222.226 185.661 221.947C185.894 221.833 186.359 221.704 186.694 221.659C187.756 221.518 188.661 221.782 189.566 222.497C189.803 222.685 190.031 222.801 190.072 222.754C190.934 221.772 191.181 221.467 191.181 221.382C191.181 221.247 190.404 220.553 189.919 220.256C188.97 219.675 187.514 219.412 186.28 219.601ZM224.842 219.602C223.827 219.718 222.245 220.187 222.245 220.372C222.245 220.409 222.337 220.627 222.451 220.856C222.61 221.178 222.695 221.256 222.825 221.201C223.853 220.772 224.367 220.644 225.241 220.6C226.379 220.542 226.907 220.662 227.407 221.089C227.991 221.59 228.162 222.093 228.217 223.472C228.269 224.792 228.273 224.786 227.651 224.476C227.442 224.373 226.896 224.214 226.437 224.123C224.469 223.734 222.448 224.364 221.649 225.616C220.797 226.951 221.138 229.211 222.323 230.089C222.814 230.453 223.91 230.802 224.553 230.801C225.549 230.798 226.763 230.288 227.59 229.526C227.874 229.263 228.136 229.048 228.172 229.048C228.208 229.048 228.238 229.377 228.238 229.779V230.51H228.841H229.444L229.415 226.151C229.386 221.833 229.384 221.787 229.155 221.294C228.702 220.316 227.85 219.769 226.521 219.601C225.711 219.498 225.75 219.498 224.842 219.602ZM236.115 219.603C235.176 219.755 234.337 220.269 233.82 221.009C233.689 221.198 233.548 221.352 233.506 221.352C233.465 221.353 233.431 221.002 233.431 220.574V219.795H232.832H232.233V225.152V230.51H232.832H233.431V227.067C233.431 223.979 233.451 223.549 233.625 222.886C233.849 222.034 234.176 221.478 234.672 221.109C235.079 220.806 235.802 220.574 236.339 220.574C237.943 220.574 238.864 221.433 239.122 223.172C239.176 223.538 239.221 225.338 239.223 227.173L239.225 230.51H239.824H240.423V226.765C240.423 222.682 240.369 222.163 239.848 221.228C239.173 220.017 237.649 219.353 236.115 219.603ZM192.649 219.759C192.611 219.796 192.58 222.231 192.58 225.168V230.51H193.729H194.879L194.853 225.128L194.827 219.746L193.773 219.718C193.194 219.703 192.688 219.722 192.649 219.759ZM205.764 225.103V230.51H206.863H207.962V225.103V219.697H206.863H205.764V225.103ZM216.141 220.678C217.648 220.993 218.551 222.925 218.415 225.542C218.289 227.958 217.577 229.284 216.211 229.644C215.629 229.798 214.698 229.697 214.032 229.408C213.386 229.126 212.537 228.402 212.357 227.978C212.269 227.772 212.246 226.941 212.271 224.952L212.306 222.209L212.886 221.683C213.951 220.716 214.909 220.421 216.141 220.678ZM226.643 225.055C226.935 225.109 227.413 225.26 227.706 225.391L228.238 225.628V226.858V228.087L227.691 228.621C227.348 228.955 226.891 229.269 226.467 229.463C225.867 229.737 225.688 229.773 224.891 229.776C224.083 229.779 223.945 229.752 223.516 229.506C222.9 229.153 222.579 228.667 222.454 227.896C222.221 226.467 222.816 225.417 224.056 225.069C224.509 224.942 225.989 224.934 226.643 225.055Z" fill="#111111"/>
<g clip-path="url(#clip2_336_235139)">
<path d="M268.952 186.8C265.312 186.8 262.352 189.761 262.352 193.4C262.352 197.039 265.312 200 268.952 200C272.591 200 275.552 197.039 275.552 193.4C275.552 189.761 272.591 186.8 268.952 186.8ZM272.64 191.663L268.422 195.848C268.174 196.096 267.777 196.113 267.512 195.865L265.279 193.83C265.015 193.582 264.998 193.168 265.23 192.904C265.478 192.639 265.891 192.622 266.156 192.871L267.926 194.492L271.697 190.72C271.962 190.456 272.376 190.456 272.64 190.72C272.905 190.985 272.905 191.398 272.64 191.663Z" fill="#111111"/>
</g>
<rect x="296.949" y="178.5" width="134.851" height="87.0004" rx="11.5" stroke="#111111"/>
<path fill-rule="evenodd" clip-rule="evenodd" d="M353.642 203.888C353.642 203.925 355.645 205.908 358.286 208.485C359.054 209.235 360.733 210.881 362.016 212.142L364.349 214.434L369.187 209.669C374.782 204.157 374.982 203.959 375.003 203.897C375.013 203.866 371.418 203.85 364.33 203.85C358.452 203.85 353.642 203.867 353.642 203.888ZM352.102 205.28C351.425 205.94 349.9 207.424 348.715 208.578C347.529 209.732 345.679 211.536 344.604 212.586L342.648 214.495L344.817 216.605C346.01 217.766 347.092 218.816 347.222 218.938C347.353 219.06 348.436 220.111 349.63 221.273C350.823 222.434 352.145 223.716 352.567 224.121L353.334 224.857L353.346 219.664C353.353 216.808 353.353 212.133 353.346 209.276L353.334 204.08L352.102 205.28ZM375.437 214.541V225.018L375.615 224.846C375.713 224.752 376.762 223.726 377.947 222.567C379.132 221.408 380.102 220.46 380.103 220.46C380.154 220.443 386.099 214.572 386.099 214.539C386.098 214.512 385.581 213.985 384.949 213.369C384.317 212.753 382.037 210.523 379.883 208.412C377.729 206.302 375.847 204.46 375.702 204.32L375.437 204.064V214.541ZM358.96 219.778C356.034 222.662 353.641 225.038 353.641 225.057C353.643 225.101 375.011 225.104 375.011 225.06C375.011 225.016 364.342 214.516 364.307 214.526C364.292 214.53 361.885 216.893 358.96 219.778ZM359.683 229.521C358.67 229.728 357.94 230.243 357.533 231.036C357.062 231.953 357.219 233.113 357.917 233.868C358.238 234.214 358.911 234.667 360.655 235.708C360.876 235.84 361.099 235.974 361.149 236.006C361.2 236.038 361.39 236.156 361.572 236.267C362.239 236.679 362.557 237.07 362.692 237.646C362.745 237.871 362.745 237.959 362.694 238.161C362.504 238.903 362.046 239.316 361.223 239.486C360.396 239.657 359.355 239.413 358.767 238.911C358.491 238.675 358.178 238.234 358.024 237.864C357.955 237.697 357.882 237.53 357.862 237.491C357.842 237.452 357.786 237.246 357.737 237.033C357.648 236.645 357.648 236.645 357.505 236.658L357.362 236.672L357.349 238.391L357.337 240.109L357.453 240.138C357.598 240.174 357.67 240.133 357.67 240.014C357.67 239.908 357.758 239.741 357.859 239.655C357.952 239.577 358.415 239.604 358.759 239.709C359.713 239.998 360.302 240.114 360.847 240.117C361.74 240.122 362.492 239.852 363.148 239.293C363.369 239.105 363.782 238.585 363.782 238.495C363.782 238.478 363.812 238.398 363.849 238.317C363.937 238.125 364.066 237.541 364.066 237.335C364.066 236.846 363.798 236.106 363.462 235.669C363.204 235.334 362.488 234.788 361.954 234.52C361.852 234.469 361.757 234.414 361.744 234.399C361.731 234.385 361.518 234.272 361.27 234.15C361.023 234.028 360.607 233.802 360.347 233.648C360.086 233.494 359.83 233.343 359.778 233.313C359.726 233.282 359.673 233.245 359.66 233.23C359.647 233.216 359.529 233.132 359.4 233.045C359.027 232.795 358.764 232.506 358.608 232.175C358.477 231.9 358.465 231.836 358.486 231.534C358.52 231.034 358.756 230.665 359.223 230.381C360.078 229.861 361.404 230.103 362.2 230.923C362.452 231.183 362.578 231.382 362.832 231.923C362.866 231.995 362.992 232.501 363.06 232.836C363.092 232.993 363.118 233.025 363.226 233.038L363.355 233.052V231.271V229.49H363.217C363.1 229.49 363.073 229.513 363.046 229.636C363.028 229.717 362.955 229.843 362.883 229.917C362.699 230.107 362.488 230.095 361.912 229.863C361.467 229.683 361.298 229.631 360.868 229.536C360.678 229.494 359.863 229.484 359.683 229.521ZM380.246 229.517C380.194 229.529 380.034 229.561 379.891 229.59C379.498 229.667 379.047 229.814 378.73 229.968C378.44 230.108 378.133 230.282 378.09 230.331C378.077 230.346 378.012 230.392 377.945 230.434C377.598 230.652 377.002 231.263 376.696 231.713C376.31 232.283 375.864 233.34 375.864 233.684C375.864 233.76 375.843 233.843 375.818 233.868C375.749 233.936 375.708 235.263 375.762 235.69C375.846 236.359 376.067 237.109 376.304 237.53C376.461 237.809 376.681 238.166 376.712 238.193C376.728 238.206 376.824 238.32 376.927 238.446C377.853 239.583 379.089 240.128 380.72 240.12C381.159 240.118 381.282 240.107 381.668 240.037C382.025 239.972 382.828 239.692 382.828 239.632C382.828 239.613 382.857 239.597 382.891 239.597C382.925 239.597 383.108 239.492 383.297 239.363C383.732 239.067 384.283 238.525 384.516 238.164C384.564 238.09 384.614 238.019 384.628 238.006C384.68 237.957 384.913 237.585 384.913 237.55C384.913 237.489 384.713 237.386 384.682 237.431C384.538 237.639 384.055 238.181 383.793 238.431C382.912 239.266 382.494 239.434 381.289 239.431C380.523 239.43 380.077 239.361 379.737 239.193C379.377 239.015 379.28 238.961 379.062 238.818C378.931 238.733 378.744 238.587 378.645 238.493C378.431 238.291 378.044 237.773 377.966 237.585C377.95 237.546 377.897 237.43 377.849 237.327C377.801 237.224 377.727 236.993 377.684 236.813C377.641 236.632 377.582 236.401 377.552 236.298C377.478 236.042 377.479 233.789 377.553 233.537C377.583 233.435 377.643 233.193 377.685 233C377.855 232.231 378.293 231.357 378.73 230.914C379.09 230.549 379.38 230.368 379.863 230.206C380.22 230.087 380.3 230.078 381.028 230.077C381.889 230.077 382.083 230.118 382.663 230.423C382.963 230.581 383.693 231.276 383.823 231.529C383.862 231.604 383.905 231.676 383.919 231.689C383.971 231.739 384.24 232.337 384.347 232.639C384.448 232.929 384.469 232.956 384.579 232.943L384.7 232.929L384.684 232.461C384.675 232.204 384.649 231.909 384.626 231.806C384.603 231.703 384.583 231.451 384.581 231.245C384.578 230.868 384.515 230.058 384.459 229.689C384.433 229.521 384.412 229.49 384.319 229.49C384.235 229.49 384.196 229.53 384.152 229.663C384.09 229.848 384.054 229.903 383.876 230.08C383.708 230.245 383.505 230.224 383.002 229.989C382.179 229.605 381.868 229.53 381.004 229.511C380.639 229.502 380.298 229.505 380.246 229.517ZM345.457 229.755C345.425 229.768 345.398 229.816 345.398 229.862C345.398 229.93 345.451 229.95 345.694 229.97C346.053 230 346.484 230.154 346.641 230.309C346.704 230.372 346.781 230.505 346.812 230.605C346.852 230.738 346.867 231.863 346.867 234.745C346.867 238.818 346.86 238.978 346.681 239.309C346.587 239.482 346.35 239.562 345.86 239.585L345.398 239.607V239.737C345.398 239.809 345.425 239.876 345.457 239.887C345.506 239.904 349.646 239.899 349.772 239.882C349.793 239.88 349.804 239.819 349.796 239.749C349.781 239.622 349.774 239.619 349.378 239.591C348.864 239.553 348.615 239.429 348.449 239.129C348.366 238.976 348.358 238.825 348.345 236.988L348.33 235.011H350.705H353.08L353.065 236.988L353.049 238.965L352.931 239.173C352.76 239.475 352.569 239.568 352.055 239.596L351.629 239.62V239.76V239.9L353.775 239.901C354.956 239.902 355.944 239.889 355.971 239.873C355.998 239.857 356.012 239.793 356.004 239.732C355.988 239.625 355.968 239.619 355.53 239.597C355.106 239.575 355.059 239.562 354.89 239.428C354.532 239.142 354.548 239.358 354.545 234.88C354.543 231.288 354.55 230.864 354.621 230.651C354.737 230.302 354.938 230.128 355.339 230.031C355.521 229.986 355.721 229.954 355.782 229.959C355.986 229.976 356.018 229.961 356.003 229.853L355.988 229.748H353.808H351.629L351.613 229.853C351.6 229.946 351.619 229.958 351.781 229.958C352.227 229.958 352.776 230.191 352.958 230.456C353.045 230.582 353.051 230.703 353.064 232.52L353.079 234.45H350.705H348.331L348.346 232.59C348.359 230.901 348.369 230.713 348.448 230.544C348.61 230.2 348.94 230.016 349.477 229.972C349.78 229.947 349.808 229.936 349.795 229.846C349.781 229.748 349.776 229.748 347.649 229.739C346.476 229.735 345.49 229.742 345.457 229.755ZM365.188 229.755C365.17 229.772 365.156 229.825 365.156 229.872C365.156 229.939 365.192 229.958 365.316 229.958C365.404 229.958 365.626 229.992 365.811 230.033C366.07 230.091 366.183 230.144 366.314 230.269C366.409 230.36 366.482 230.477 366.482 230.536C366.482 230.594 366.509 230.668 366.541 230.7C366.632 230.789 366.627 238.73 366.537 238.923C366.349 239.325 366.307 239.38 366.104 239.486C365.933 239.575 365.819 239.597 365.521 239.597H365.15L365.164 239.749L365.179 239.901L367.643 239.901C371.023 239.901 371.814 239.858 372.381 239.646C372.607 239.561 373.123 239.297 373.222 239.215C373.696 238.821 373.986 238.435 374.184 237.936C374.316 237.602 374.316 236.637 374.183 236.298C373.968 235.745 373.588 235.347 373.01 235.07C372.568 234.858 372.385 234.788 372.219 234.768C372.047 234.747 372.048 234.654 372.221 234.619C372.754 234.514 373.684 233.671 373.684 233.293C373.684 233.245 373.711 233.179 373.743 233.147C373.785 233.105 373.802 232.891 373.802 232.414C373.802 231.938 373.785 231.724 373.743 231.682C373.711 231.65 373.684 231.591 373.684 231.551C373.684 231.511 373.635 231.384 373.575 231.268C373.308 230.748 372.832 230.374 372.093 230.105C371.549 229.907 371.091 229.82 370.367 229.776C369.583 229.728 365.233 229.71 365.188 229.755ZM370.168 230.265C371.272 230.453 372.065 231.091 372.245 231.935C372.443 232.861 372.065 233.711 371.296 234.069C370.795 234.302 370.621 234.341 369.702 234.429C369.421 234.456 368.461 234.39 368.2 234.325L368.093 234.299V232.344V230.389L368.318 230.335C368.847 230.21 369.665 230.18 370.168 230.265ZM370.246 234.988C370.478 235.025 370.784 235.089 370.925 235.13C372.113 235.471 372.779 236.524 372.544 237.688C372.323 238.781 371.255 239.389 369.611 239.357C369.106 239.348 368.23 239.253 368.141 239.199C368.11 239.18 368.093 238.451 368.093 237.093V235.016L368.271 234.987C368.369 234.971 368.481 234.952 368.52 234.943C368.731 234.899 369.88 234.929 370.246 234.988Z" fill="#111111"/>
<g clip-path="url(#clip3_336_235139)">
<path d="M416.901 186.8C413.262 186.8 410.301 189.761 410.301 193.4C410.301 197.039 413.262 200 416.901 200C420.54 200 423.501 197.039 423.501 193.4C423.501 189.761 420.54 186.8 416.901 186.8ZM420.59 191.663L416.371 195.848C416.123 196.096 415.726 196.113 415.462 195.865L413.229 193.83C412.964 193.582 412.947 193.168 413.179 192.904C413.427 192.639 413.841 192.622 414.105 192.871L415.875 194.492L419.647 190.72C419.911 190.456 420.325 190.456 420.59 190.72C420.854 190.985 420.854 191.398 420.59 191.663Z" fill="#111111"/>
</g>
<defs>
<clipPath id="clip0_336_235139">
<rect width="69.3003" height="41.2502" fill="white" transform="translate(33.5469 201.651)"/>
</clipPath>
<clipPath id="clip1_336_235139">
<rect width="13.2001" height="13.2001" fill="white" transform="translate(113.852 186.8)"/>
</clipPath>
<clipPath id="clip2_336_235139">
<rect width="13.2001" height="13.2001" fill="white" transform="translate(262.352 186.8)"/>
</clipPath>
<clipPath id="clip3_336_235139">
<rect width="13.2001" height="13.2001" fill="white" transform="translate(410.301 186.8)"/>
</clipPath>
</defs>
</svg>
