<svg width="333" height="234" viewBox="0 0 333 234" fill="none" xmlns="http://www.w3.org/2000/svg">
<rect x="0.5" y="0.5" width="332" height="233" rx="11.5" fill="white" stroke="#111111"/>
<rect x="22.5" y="92.5" width="288" height="65" rx="8.5" fill="white" stroke="#111111"/>
<rect x="22.5" y="165.5" width="288" height="56" rx="8.5" fill="white" stroke="#111111"/>
<path d="M33.768 105.648C33.768 104.667 34.1413 103.915 34.888 103.392C35.6453 102.859 36.584 102.592 37.704 102.592C39.0587 102.592 40.2267 102.875 41.208 103.44V105.184C40.2587 104.544 39.1387 104.235 37.848 104.256C36.3653 104.256 35.624 104.709 35.624 105.616C35.624 106.053 35.8427 106.421 36.28 106.72C36.7173 107.008 37.2507 107.248 37.88 107.44C38.5093 107.632 39.1387 107.851 39.768 108.096C40.3973 108.341 40.9307 108.715 41.368 109.216C41.8053 109.707 42.024 110.32 42.024 111.056C42.024 112.155 41.624 112.96 40.824 113.472C40.0347 113.973 39.0213 114.219 37.784 114.208C36.2907 114.208 34.968 113.883 33.816 113.232V111.44C34.9573 112.176 36.2373 112.544 37.656 112.544C39.3307 112.544 40.168 112.08 40.168 111.152C40.168 110.747 40.008 110.4 39.688 110.112C39.3787 109.824 38.984 109.605 38.504 109.456C38.0347 109.307 37.5227 109.131 36.968 108.928C36.4133 108.715 35.896 108.496 35.416 108.272C34.9467 108.037 34.552 107.696 34.232 107.248C33.9227 106.8 33.768 106.267 33.768 105.648ZM44.772 108.4C44.772 107.451 44.9427 106.597 45.284 105.84C45.6253 105.083 46.084 104.475 46.66 104.016C47.236 103.547 47.876 103.195 48.58 102.96C49.284 102.715 50.02 102.592 50.788 102.592C52.0147 102.592 53.1453 102.837 54.18 103.328V105.104C53.316 104.549 52.2707 104.272 51.044 104.272C49.828 104.272 48.788 104.619 47.924 105.312C47.0707 106.005 46.644 107.035 46.644 108.4C46.644 109.168 46.772 109.835 47.028 110.4C47.284 110.955 47.6307 111.381 48.068 111.68C48.5053 111.979 48.964 112.197 49.444 112.336C49.9347 112.475 50.452 112.544 50.996 112.544C51.6573 112.544 52.2173 112.437 52.676 112.224V107.984H54.452V113.456C53.332 113.957 52.1427 114.208 50.884 114.208C50.0733 114.208 49.316 114.101 48.612 113.888C47.908 113.664 47.2627 113.328 46.676 112.88C46.0893 112.432 45.6253 111.824 45.284 111.056C44.9427 110.288 44.772 109.403 44.772 108.4ZM58.3256 102.8H62.2456C64.1656 102.8 65.627 103.312 66.6296 104.336C67.6323 105.36 68.1336 106.715 68.1336 108.4C68.1336 110.085 67.6323 111.44 66.6296 112.464C65.627 113.488 64.1656 114 62.2456 114H58.3256V102.8ZM65.2376 111.328C65.931 110.645 66.2776 109.669 66.2776 108.4C66.2776 107.131 65.931 106.16 65.2376 105.488C64.555 104.805 63.5523 104.464 62.2296 104.464H60.1496V112.336H62.2296C63.5523 112.336 64.555 112 65.2376 111.328Z" fill="#111111"/>
<path d="M38.344 148.08H36.936V146.176C35.6987 146.037 34.632 145.723 33.736 145.232V143.44C34.888 144.176 36.2053 144.544 37.688 144.544C39.2987 144.544 40.104 144.08 40.104 143.152C40.104 142.747 39.944 142.411 39.624 142.144C39.3147 141.867 38.9253 141.664 38.456 141.536C37.9973 141.408 37.4907 141.253 36.936 141.072C36.392 140.891 35.8853 140.699 35.416 140.496C34.9573 140.293 34.568 139.979 34.248 139.552C33.9387 139.115 33.784 138.587 33.784 137.968C33.784 137.093 34.072 136.4 34.648 135.888C35.2347 135.376 35.9973 135.067 36.936 134.96V133.04H38.344V134.944C39.5067 135.029 40.472 135.301 41.24 135.76V137.504C40.2907 136.864 39.1707 136.555 37.88 136.576C36.3867 136.576 35.64 137.029 35.64 137.936C35.64 138.309 35.7947 138.624 36.104 138.88C36.424 139.136 36.8133 139.328 37.272 139.456C37.7413 139.573 38.248 139.723 38.792 139.904C39.3467 140.085 39.8533 140.283 40.312 140.496C40.7813 140.699 41.1707 141.019 41.48 141.456C41.8 141.893 41.96 142.427 41.96 143.056C41.96 144.069 41.6293 144.832 40.968 145.344C40.3067 145.845 39.432 146.128 38.344 146.192V148.08ZM44.516 135.12H52.596V136.56L48.084 146H46.116L50.532 136.752H44.516V135.12ZM56.5125 144.656C55.6912 143.611 55.2805 142.245 55.2805 140.56C55.2805 138.875 55.6912 137.515 56.5125 136.48C57.3338 135.435 58.5498 134.912 60.1605 134.912C61.7712 134.912 62.9872 135.435 63.8085 136.48C64.6298 137.515 65.0405 138.875 65.0405 140.56C65.0405 142.245 64.6298 143.611 63.8085 144.656C62.9872 145.691 61.7712 146.208 60.1605 146.208C58.5498 146.208 57.3338 145.691 56.5125 144.656ZM60.1605 144.544C62.1872 144.544 63.2005 143.216 63.2005 140.56C63.2005 137.904 62.1872 136.576 60.1605 136.576C58.1338 136.576 57.1205 137.904 57.1205 140.56C57.1205 143.216 58.1338 144.544 60.1605 144.544ZM69.4094 144.656C68.588 143.611 68.1774 142.245 68.1774 140.56C68.1774 138.875 68.588 137.515 69.4094 136.48C70.2307 135.435 71.4467 134.912 73.0574 134.912C74.668 134.912 75.884 135.435 76.7054 136.48C77.5267 137.515 77.9374 138.875 77.9374 140.56C77.9374 142.245 77.5267 143.611 76.7054 144.656C75.884 145.691 74.668 146.208 73.0574 146.208C71.4467 146.208 70.2307 145.691 69.4094 144.656ZM73.0574 144.544C75.084 144.544 76.0974 143.216 76.0974 140.56C76.0974 137.904 75.084 136.576 73.0574 136.576C71.0307 136.576 70.0174 137.904 70.0174 140.56C70.0174 143.216 71.0307 144.544 73.0574 144.544Z" fill="#111111"/>
<path d="M259.091 116.08H257.683V114.176C256.446 114.037 255.379 113.723 254.483 113.232V111.44C255.635 112.176 256.952 112.544 258.435 112.544C260.046 112.544 260.851 112.08 260.851 111.152C260.851 110.747 260.691 110.411 260.371 110.144C260.062 109.867 259.672 109.664 259.203 109.536C258.744 109.408 258.238 109.253 257.683 109.072C257.139 108.891 256.632 108.699 256.163 108.496C255.704 108.293 255.315 107.979 254.995 107.552C254.686 107.115 254.531 106.587 254.531 105.968C254.531 105.093 254.819 104.4 255.395 103.888C255.982 103.376 256.744 103.067 257.683 102.96V101.04H259.091V102.944C260.254 103.029 261.219 103.301 261.987 103.76V105.504C261.038 104.864 259.918 104.555 258.627 104.576C257.134 104.576 256.387 105.029 256.387 105.936C256.387 106.309 256.542 106.624 256.851 106.88C257.171 107.136 257.56 107.328 258.019 107.456C258.488 107.573 258.995 107.723 259.539 107.904C260.094 108.085 260.6 108.283 261.059 108.496C261.528 108.699 261.918 109.019 262.227 109.456C262.547 109.893 262.707 110.427 262.707 111.056C262.707 112.069 262.376 112.832 261.715 113.344C261.054 113.845 260.179 114.128 259.091 114.192V116.08ZM265.903 104.016C266.98 103.28 268.186 102.912 269.519 102.912C270.66 102.912 271.583 103.179 272.287 103.712C272.991 104.235 273.343 104.987 273.343 105.968C273.343 106.789 273.071 107.493 272.527 108.08C271.994 108.656 271.263 109.221 270.335 109.776C270.26 109.819 270.122 109.899 269.919 110.016C269.727 110.133 269.588 110.219 269.503 110.272C269.428 110.315 269.306 110.389 269.135 110.496C268.964 110.603 268.836 110.683 268.751 110.736C268.676 110.789 268.57 110.869 268.431 110.976C268.303 111.072 268.207 111.157 268.143 111.232C268.079 111.296 268.004 111.381 267.919 111.488C267.834 111.584 267.77 111.675 267.727 111.76C267.695 111.845 267.663 111.941 267.631 112.048C267.599 112.155 267.583 112.261 267.583 112.368L273.423 112.352V114H265.535V113.168C265.535 112.571 265.615 112.043 265.775 111.584C265.946 111.115 266.239 110.688 266.655 110.304C267.082 109.909 267.412 109.632 267.647 109.472C267.882 109.301 268.298 109.04 268.895 108.688C268.948 108.645 268.991 108.613 269.023 108.592C269.066 108.571 269.108 108.549 269.151 108.528C270.047 108.005 270.623 107.627 270.879 107.392C271.306 106.976 271.519 106.512 271.519 106C271.519 105.531 271.327 105.173 270.943 104.928C270.57 104.683 270.042 104.56 269.359 104.56C268.175 104.56 267.023 104.965 265.903 105.776V104.016ZM277.806 112.656C276.985 111.611 276.574 110.245 276.574 108.56C276.574 106.875 276.985 105.515 277.806 104.48C278.628 103.435 279.844 102.912 281.454 102.912C283.065 102.912 284.281 103.435 285.102 104.48C285.924 105.515 286.334 106.875 286.334 108.56C286.334 110.245 285.924 111.611 285.102 112.656C284.281 113.691 283.065 114.208 281.454 114.208C279.844 114.208 278.628 113.691 277.806 112.656ZM281.454 112.544C283.481 112.544 284.494 111.216 284.494 108.56C284.494 105.904 283.481 104.576 281.454 104.576C279.428 104.576 278.414 105.904 278.414 108.56C278.414 111.216 279.428 112.544 281.454 112.544ZM290.703 112.656C289.882 111.611 289.471 110.245 289.471 108.56C289.471 106.875 289.882 105.515 290.703 104.48C291.524 103.435 292.74 102.912 294.351 102.912C295.962 102.912 297.178 103.435 297.999 104.48C298.82 105.515 299.231 106.875 299.231 108.56C299.231 110.245 298.82 111.611 297.999 112.656C297.178 113.691 295.962 114.208 294.351 114.208C292.74 114.208 291.524 113.691 290.703 112.656ZM294.351 112.544C296.378 112.544 297.391 111.216 297.391 108.56C297.391 105.904 296.378 104.576 294.351 104.576C292.324 104.576 291.311 105.904 291.311 108.56C291.311 111.216 292.324 112.544 294.351 112.544Z" fill="#111111"/>
<path d="M25.95 37H22.075L29.225 19.5H33.275L40.4 37H36.525L35.25 33.725H27.25L25.95 37ZM30.85 24.35L28.425 30.625H34.075L31.625 24.35C31.4583 23.8833 31.3333 23.425 31.25 22.975C31.15 23.4917 31.0167 23.95 30.85 24.35ZM53.2891 19.5H56.7391V37H53.6891V35.25C52.6724 36.65 51.2224 37.35 49.3391 37.35C47.5224 37.35 46.0891 36.7333 45.0391 35.5C43.9891 34.25 43.4641 32.75 43.4641 31C43.4641 29.25 43.9891 27.7583 45.0391 26.525C46.0891 25.275 47.5224 24.65 49.3391 24.65C50.9891 24.65 52.3057 25.1917 53.2891 26.275V19.5ZM53.2891 29.575C53.0391 29.0083 52.6307 28.5333 52.0641 28.15C51.5141 27.7667 50.8807 27.575 50.1641 27.575C49.1974 27.575 48.4307 27.9083 47.8641 28.575C47.2974 29.225 47.0141 30.0333 47.0141 31C47.0141 31.9667 47.2974 32.7833 47.8641 33.45C48.4307 34.1 49.1974 34.425 50.1641 34.425C50.8807 34.425 51.5141 34.2333 52.0641 33.85C52.6307 33.4667 53.0391 32.9917 53.2891 32.425V29.575ZM71.3408 19.5H74.7908V37H71.7408V35.25C70.7242 36.65 69.2742 37.35 67.3908 37.35C65.5742 37.35 64.1408 36.7333 63.0908 35.5C62.0408 34.25 61.5158 32.75 61.5158 31C61.5158 29.25 62.0408 27.7583 63.0908 26.525C64.1408 25.275 65.5742 24.65 67.3908 24.65C69.0408 24.65 70.3575 25.1917 71.3408 26.275V19.5ZM71.3408 29.575C71.0908 29.0083 70.6825 28.5333 70.1158 28.15C69.5658 27.7667 68.9325 27.575 68.2158 27.575C67.2492 27.575 66.4825 27.9083 65.9158 28.575C65.3492 29.225 65.0658 30.0333 65.0658 31C65.0658 31.9667 65.3492 32.7833 65.9158 33.45C66.4825 34.1 67.2492 34.425 68.2158 34.425C68.9325 34.425 69.5658 34.2333 70.1158 33.85C70.6825 33.4667 71.0908 32.9917 71.3408 32.425V29.575ZM91.7596 37H88.2846V25H91.3596V26.4C91.7429 25.95 92.2679 25.55 92.9346 25.2C93.6012 24.8333 94.3512 24.65 95.1846 24.65C96.8346 24.65 98.0596 25.2417 98.8596 26.425C100.076 25.2417 101.41 24.65 102.86 24.65C104.393 24.65 105.518 25.1333 106.235 26.1C106.968 27.05 107.335 28.15 107.335 29.4V37H103.885V29.625C103.885 29.0083 103.71 28.525 103.36 28.175C103.026 27.825 102.576 27.65 102.01 27.65C101.126 27.65 100.335 28.05 99.6346 28.85C99.6512 28.9667 99.6596 29.15 99.6596 29.4V37H96.2096V29.625C96.2096 29.0083 96.0346 28.525 95.6846 28.175C95.3512 27.825 94.9012 27.65 94.3346 27.65C93.3512 27.65 92.4929 28.1333 91.7596 29.1V37ZM113.91 35.675C112.626 34.5583 111.985 33 111.985 31C111.985 29 112.626 27.4417 113.91 26.325C115.193 25.2083 116.76 24.65 118.61 24.65C120.476 24.65 122.043 25.2083 123.31 26.325C124.593 27.4417 125.235 29 125.235 31C125.235 33 124.593 34.5583 123.31 35.675C122.043 36.7917 120.476 37.35 118.61 37.35C116.76 37.35 115.193 36.7917 113.91 35.675ZM120.885 33.35C121.435 32.7333 121.71 31.95 121.71 31C121.71 30.05 121.435 29.275 120.885 28.675C120.335 28.0583 119.576 27.75 118.61 27.75C117.643 27.75 116.885 28.0583 116.335 28.675C115.801 29.275 115.535 30.05 115.535 31C115.535 31.95 115.801 32.7333 116.335 33.35C116.885 33.95 117.643 34.25 118.61 34.25C119.576 34.25 120.335 33.95 120.885 33.35ZM133.078 26.525C134.162 25.275 135.495 24.65 137.078 24.65C138.612 24.65 139.803 25.1167 140.653 26.05C141.52 26.9667 141.953 28.1417 141.953 29.575V37H138.478V30.025C138.478 29.2417 138.262 28.65 137.828 28.25C137.412 27.85 136.853 27.65 136.153 27.65C135.07 27.65 134.178 28.1583 133.478 29.175V37H130.003V25H133.078V26.525ZM146.574 31C146.574 29.9167 146.766 28.9583 147.149 28.125C147.533 27.275 148.033 26.6083 148.649 26.125C149.283 25.6417 149.941 25.275 150.624 25.025C151.324 24.775 152.033 24.65 152.749 24.65C153.949 24.65 154.983 24.875 155.849 25.325C156.733 25.775 157.383 26.3583 157.799 27.075C158.216 27.775 158.499 28.575 158.649 29.475C158.816 30.3583 158.774 31.2417 158.524 32.125H150.074C150.258 32.9583 150.741 33.5833 151.524 34C152.308 34.4 153.233 34.6 154.299 34.6C155.616 34.6 156.824 34.3583 157.924 33.875V36.6C156.741 37.1 155.274 37.35 153.524 37.35C151.524 37.35 149.866 36.7917 148.549 35.675C147.233 34.5583 146.574 33 146.574 31ZM155.399 29.875C155.483 29.325 155.324 28.7583 154.924 28.175C154.524 27.5917 153.841 27.3 152.874 27.3C152.108 27.3 151.449 27.5333 150.899 28C150.349 28.45 150.066 29.075 150.049 29.875H155.399ZM168.732 33.1L171.707 25H175.307L169.982 38.45C168.799 41.3667 167.074 42.825 164.807 42.825C164.324 42.825 163.699 42.7333 162.932 42.55V39.675C163.482 39.7917 163.957 39.85 164.357 39.85C165.624 39.85 166.574 38.975 167.207 37.225L167.232 37.175L161.557 25H165.232L168.732 33.1Z" fill="#111111"/>
<path d="M33.8658 52.6886C33.9196 53.0092 33.9322 53.2112 33.9322 54.0784V55.1146V55.6146H34.4322H35.0538C35.2469 55.6146 35.3772 55.6167 35.4676 55.621C35.4714 55.6733 35.4751 55.7377 35.4783 55.8172C35.5004 56.3549 35.5002 57.4208 35.4999 59.5871C35.4999 59.8644 35.4998 60.1597 35.4998 60.4742C35.4998 62.0802 35.4965 63.3542 35.4903 64.2422C35.4872 64.6864 35.4834 65.0326 35.4789 65.2749C35.4766 65.3964 35.4743 65.4896 35.4718 65.5552C35.4701 65.6026 35.4686 65.6239 35.4684 65.6288C35.3861 66.0414 35.0512 66.3802 34.6506 66.4665C34.6485 66.4666 34.6461 66.4667 34.6435 66.4669C34.6207 66.4681 34.5868 66.4694 34.5411 66.4707C34.4502 66.4734 34.3221 66.476 34.1607 66.4784C33.8384 66.4832 33.3908 66.4872 32.8587 66.4904C31.7949 66.4968 30.3979 66.5 29.0003 66.5C27.6026 66.5 26.2053 66.4968 25.141 66.4904C24.6086 66.4872 24.1607 66.4833 23.838 66.4785C23.6764 66.4761 23.5481 66.4735 23.4569 66.4708C23.411 66.4695 23.3771 66.4682 23.3541 66.467C23.351 66.4668 23.3483 66.4667 23.346 66.4665C22.9533 66.3831 22.6168 66.0461 22.5316 65.6253C22.5314 65.62 22.5299 65.5989 22.5282 65.5532C22.5258 65.4881 22.5234 65.3954 22.5211 65.2745C22.5167 65.0333 22.5128 64.6884 22.5097 64.245C22.5035 63.3588 22.5002 62.0852 22.5002 60.4742C22.5002 60.1597 22.5001 59.8644 22.5001 59.5872C22.4998 57.4208 22.4996 56.3549 22.5217 55.8172C22.5249 55.7377 22.5286 55.6733 22.5324 55.621C22.6228 55.6167 22.7531 55.6146 22.9462 55.6146H23.5678H24.0678V55.1146V54.0784C24.0678 53.2112 24.0804 53.0092 24.1342 52.6886C24.5049 50.4798 26.2552 48.7915 28.4421 48.5186L28.4421 48.5186C28.7553 48.4795 29.5191 48.5045 29.8777 48.5689L29.8778 48.5689C30.2204 48.6305 30.8694 48.846 31.1381 48.9841C32.6057 49.7389 33.5975 51.0894 33.8658 52.6886ZM33.8658 52.6886L34.359 52.6059M33.8658 52.6886C33.8658 52.6886 33.8659 52.6887 33.8659 52.6887L34.359 52.6059M34.359 52.6059C34.4203 52.9714 34.4322 53.2103 34.4322 54.0784V54.6146M34.359 52.6059C34.0641 50.8487 32.9725 49.3652 31.3667 48.5395C31.0497 48.3765 30.3527 48.1462 29.9661 48.0768C29.563 48.0044 28.7483 47.9765 28.3802 48.0224L34.4322 54.6146M34.4322 54.6146V55.1146H34.9322H35.0538C35.5381 55.1146 35.6989 55.127 35.7823 55.1709C35.8119 55.1865 35.8375 55.1945 35.8596 55.2082C36.0105 55.3011 35.9998 55.6564 35.9998 60.4742C35.9998 63.6871 35.9866 65.5755 35.9632 65.7033C35.8484 66.3299 35.3447 66.8419 34.7253 66.9615L34.4322 54.6146ZM29.9996 50.0111L29.9996 50.0111C30.9912 50.3067 31.7937 51.0005 32.2392 51.9418C32.2393 51.9418 32.2393 51.9418 32.2393 51.9419L31.7873 52.1558C32.0606 52.733 32.0718 52.8024 32.0892 54.0283L29.9996 50.0111ZM29.9996 50.0111C29.7699 49.9426 29.4753 49.9005 29.206 49.8819C28.9405 49.8635 28.6464 49.8641 28.4226 49.9056L28.4225 49.9056M29.9996 50.0111L28.4225 49.9056M25.7608 51.9418L26.2127 52.1558L25.7608 51.9418ZM25.7608 51.9418C26.2708 50.8642 27.2416 50.1245 28.4225 49.9056M25.7608 51.9418L28.4225 49.9056M29.5836 57.8757L29.5836 57.8758C30.555 58.1725 31.1853 59.1848 31.0251 60.1878L31.0251 60.1879C30.9596 60.5973 30.7419 61.0438 30.4515 61.3319L30.4408 61.3211L30.4515 61.3319L30.4429 61.3404L30.5437 62.2608C30.5437 62.2608 30.5437 62.2608 30.5437 62.2608C30.6104 62.8696 30.6516 63.2467 30.6424 63.4798C30.6374 63.6067 30.617 63.7611 30.5301 63.9078C30.4462 64.0494 30.3296 64.1298 30.2788 64.1649L30.2743 64.168L29.5836 57.8757ZM29.5836 57.8757C28.3813 57.5085 27.1442 58.349 26.9721 59.5872L26.9721 59.5872M29.5836 57.8757L26.9721 59.5872M26.9721 59.5872C26.8854 60.2105 27.1041 60.891 27.5485 61.3319L27.5571 61.3404L27.4563 62.2608C27.4563 62.2608 27.4563 62.2608 27.4563 62.2608C27.3896 62.8696 27.3484 63.2467 27.3576 63.4798C27.3626 63.6067 27.383 63.7611 27.4699 63.9078C27.5538 64.0494 27.6704 64.1298 27.7212 64.1649C27.7228 64.166 27.7243 64.167 27.7258 64.168C27.8813 64.2756 28.0389 64.3004 28.2039 64.3115C28.3614 64.3221 28.6071 64.3236 29 64.3236C29.3929 64.3236 29.6386 64.3221 29.7961 64.3115M26.9721 59.5872L29.7961 64.3115M29.7961 64.3115C29.9611 64.3004 30.1187 64.2756 30.2742 64.168L29.7961 64.3115Z" stroke="#111111"/>
<rect x="46" y="53" width="96" height="8" fill="#FFDE3B"/>
<circle cx="51" cy="191" r="17.5" stroke="#111111"/>
<path fill-rule="evenodd" clip-rule="evenodd" d="M44.0846 179.025C44.0846 179.049 45.3751 180.36 47.0768 182.064C47.5722 182.56 48.6541 183.648 49.481 184.482L50.9845 185.998L54.1021 182.847C57.7076 179.203 57.8361 179.072 57.8496 179.031C57.8564 179.01 55.5397 179 50.9722 179C47.184 179 44.0846 179.011 44.0846 179.025ZM43.0923 179.945C42.6557 180.381 41.6733 181.363 40.9092 182.126C40.1451 182.889 38.953 184.081 38.26 184.775L37 186.038L38.3974 187.433C39.166 188.2 39.8635 188.894 39.9475 188.975C40.0314 189.056 40.7295 189.751 41.4988 190.519C42.2681 191.287 43.12 192.134 43.3918 192.402L43.8861 192.888L43.8939 189.455C43.8982 187.567 43.8982 184.476 43.8939 182.587L43.8861 179.152L43.0923 179.945ZM58.1295 186.068V192.995L58.244 192.881C58.307 192.819 58.9834 192.141 59.7471 191.375C60.5108 190.609 61.136 189.982 61.1363 189.981C61.1692 189.97 65.0005 186.088 65 186.067C64.9996 186.049 64.6661 185.701 64.2589 185.294C63.8517 184.886 62.3827 183.411 60.9945 182.016C59.6063 180.621 58.3938 179.403 58.3 179.31L58.1295 179.141V186.068ZM47.5112 189.53C45.6258 191.437 44.0835 193.008 44.0839 193.021C44.0848 193.05 57.8547 193.052 57.8547 193.023C57.8547 192.994 50.98 186.052 50.9573 186.058C50.9473 186.061 49.3965 187.623 47.5112 189.53ZM47.9775 195.972C47.3247 196.109 46.8541 196.45 46.5917 196.974C46.2881 197.58 46.3896 198.347 46.8396 198.846C47.0462 199.075 47.4801 199.375 48.6034 200.063C48.7461 200.15 48.8897 200.239 48.9223 200.26C48.955 200.281 49.0775 200.359 49.1945 200.433C49.6246 200.705 49.8296 200.963 49.9164 201.344C49.9504 201.493 49.9506 201.551 49.9175 201.684C49.7953 202.175 49.5001 202.448 48.9698 202.561C48.4367 202.674 47.766 202.513 47.3867 202.18C47.2092 202.025 47.0072 201.733 46.908 201.488C46.8635 201.378 46.8166 201.267 46.8038 201.242C46.791 201.216 46.7548 201.08 46.7233 200.939C46.6662 200.682 46.666 200.682 46.5738 200.691L46.4814 200.7L46.4734 201.836L46.4654 202.973L46.5404 202.992C46.6337 203.015 46.6799 202.988 46.6799 202.91C46.6799 202.839 46.7365 202.729 46.802 202.673C46.862 202.621 47.1604 202.639 47.3821 202.708C47.9967 202.899 48.3764 202.976 48.7273 202.978C49.3029 202.981 49.7878 202.803 50.2105 202.433C50.3525 202.309 50.6185 201.965 50.6185 201.905C50.6185 201.894 50.6381 201.841 50.662 201.788C50.7186 201.661 50.8017 201.275 50.8017 201.138C50.8017 200.815 50.6288 200.326 50.4124 200.037C50.2464 199.816 49.785 199.455 49.4409 199.277C49.3749 199.243 49.314 199.207 49.3056 199.198C49.2973 199.188 49.1599 199.114 49.0003 199.033C48.8408 198.952 48.5729 198.802 48.4049 198.701C48.237 198.599 48.0721 198.499 48.0386 198.479C48.005 198.459 47.9706 198.434 47.9622 198.425C47.9538 198.415 47.8784 198.36 47.7947 198.302C47.5549 198.137 47.3853 197.946 47.2843 197.727C47.2005 197.545 47.1926 197.503 47.2058 197.303C47.2276 196.973 47.3798 196.729 47.6811 196.541C48.2319 196.197 49.0862 196.357 49.5995 196.899C49.7618 197.071 49.8431 197.203 50.0068 197.561C50.0286 197.608 50.1099 197.943 50.1534 198.164C50.1739 198.268 50.1909 198.289 50.2608 198.297L50.3438 198.307V197.129V195.952H50.2546C50.1796 195.952 50.1621 195.967 50.1445 196.048C50.133 196.102 50.0858 196.185 50.0395 196.234C49.921 196.36 49.7849 196.352 49.4139 196.198C49.1269 196.08 49.0184 196.045 48.7408 195.982C48.6189 195.955 48.093 195.948 47.9775 195.972ZM61.2286 195.97C61.195 195.977 61.0919 195.999 60.9996 196.018C60.7465 196.069 60.4561 196.166 60.2515 196.268C60.0649 196.36 59.8669 196.476 59.8393 196.508C59.8309 196.518 59.7888 196.548 59.7458 196.576C59.5222 196.72 59.1377 197.124 58.9411 197.421C58.6921 197.798 58.4043 198.497 58.4043 198.725C58.4043 198.775 58.391 198.83 58.3748 198.846C58.3303 198.891 58.3042 199.769 58.3389 200.051C58.3933 200.493 58.5357 200.989 58.6881 201.267C58.7893 201.452 58.931 201.688 58.9512 201.706C58.9611 201.714 59.0235 201.79 59.0899 201.873C59.6861 202.625 60.4827 202.985 61.5339 202.98C61.8168 202.978 61.8963 202.971 62.1445 202.925C62.3751 202.882 62.8926 202.697 62.8926 202.657C62.8926 202.644 62.9108 202.634 62.933 202.634C62.9552 202.634 63.0728 202.564 63.1943 202.479C63.4747 202.284 63.8299 201.925 63.9801 201.687C64.0109 201.638 64.0434 201.59 64.0524 201.582C64.086 201.55 64.236 201.304 64.236 201.281C64.236 201.24 64.1071 201.172 64.0869 201.202C63.9941 201.339 63.6832 201.698 63.5139 201.863C62.9466 202.415 62.6769 202.526 61.9003 202.524C61.4069 202.523 61.1194 202.478 60.9003 202.367C60.6685 202.249 60.6061 202.214 60.4653 202.119C60.3813 202.063 60.2604 201.966 60.1966 201.904C60.0589 201.771 59.8095 201.428 59.7591 201.304C59.7488 201.278 59.715 201.201 59.6841 201.133C59.6531 201.065 59.6051 200.912 59.5774 200.793C59.5497 200.674 59.5115 200.521 59.4924 200.453C59.4449 200.284 59.4454 198.794 59.493 198.628C59.5125 198.56 59.5509 198.4 59.5783 198.273C59.6879 197.764 59.9701 197.186 60.2515 196.893C60.4835 196.652 60.6701 196.532 60.9815 196.425C61.2114 196.346 61.2635 196.34 61.7324 196.34C62.2876 196.34 62.4123 196.367 62.7857 196.569C62.9792 196.673 63.4497 197.133 63.5337 197.3C63.5589 197.35 63.5866 197.397 63.5953 197.406C63.6291 197.439 63.8026 197.834 63.871 198.034C63.9366 198.225 63.9499 198.243 64.0208 198.235L64.0986 198.226L64.0883 197.916C64.0827 197.746 64.0658 197.551 64.0509 197.483C64.036 197.415 64.023 197.248 64.022 197.112C64.0202 196.863 63.9792 196.327 63.9432 196.083C63.9268 195.972 63.9128 195.952 63.8533 195.952C63.7991 195.952 63.7742 195.978 63.7455 196.066C63.7058 196.188 63.6821 196.225 63.5675 196.342C63.4597 196.451 63.3287 196.437 63.0044 196.282C62.4739 196.028 62.2734 195.978 61.7171 195.965C61.482 195.96 61.2622 195.962 61.2286 195.97ZM38.8101 196.127C38.7891 196.136 38.772 196.167 38.772 196.198C38.772 196.243 38.8062 196.256 38.9628 196.269C39.1941 196.289 39.4718 196.391 39.5728 196.493C39.6137 196.535 39.6632 196.623 39.6828 196.689C39.7088 196.777 39.7185 197.521 39.7185 199.426C39.7185 202.119 39.7143 202.225 39.5987 202.444C39.5383 202.558 39.385 202.611 39.0696 202.626L38.772 202.641V202.727C38.772 202.774 38.7891 202.819 38.8101 202.826C38.8415 202.837 41.5096 202.834 41.5906 202.823C41.6043 202.821 41.6112 202.781 41.6059 202.734C41.5964 202.651 41.5917 202.649 41.3367 202.63C41.0052 202.605 40.8447 202.523 40.7382 202.324C40.6843 202.224 40.6796 202.124 40.6708 200.909L40.6614 199.602H42.1919H43.7224L43.7123 200.909L43.7023 202.216L43.6263 202.354C43.516 202.554 43.3928 202.615 43.0618 202.634L42.787 202.649V202.742V202.834L44.1703 202.835C44.9311 202.836 45.5678 202.827 45.5851 202.817C45.6024 202.806 45.6119 202.764 45.6062 202.723C45.5964 202.652 45.5836 202.649 45.3011 202.634C45.0278 202.619 44.9977 202.611 44.8889 202.522C44.6577 202.333 44.6682 202.476 44.6664 199.515C44.6649 197.14 44.6698 196.86 44.7152 196.72C44.7899 196.488 44.9195 196.373 45.1778 196.309C45.2954 196.28 45.4239 196.259 45.4633 196.262C45.5949 196.273 45.6157 196.263 45.6057 196.192L45.596 196.122H44.1915H42.787L42.7772 196.192C42.7685 196.254 42.7806 196.261 42.8853 196.261C43.1723 196.261 43.5266 196.415 43.644 196.591C43.6995 196.674 43.7035 196.754 43.7121 197.955L43.7214 199.231H42.1915H40.6617L40.6714 198.001C40.6803 196.884 40.6863 196.76 40.7374 196.649C40.8415 196.421 41.0543 196.3 41.4002 196.27C41.5959 196.254 41.6137 196.246 41.6054 196.187C41.5962 196.122 41.5929 196.122 40.2222 196.117C39.4666 196.114 38.8311 196.118 38.8101 196.127ZM51.5249 196.127C51.5134 196.138 51.504 196.173 51.504 196.205C51.504 196.248 51.5275 196.261 51.6071 196.261C51.6638 196.261 51.8073 196.283 51.926 196.311C52.0934 196.349 52.1662 196.384 52.2504 196.467C52.3114 196.527 52.3589 196.604 52.3589 196.643C52.3589 196.682 52.3761 196.73 52.3971 196.752C52.4551 196.81 52.4525 202.061 52.3943 202.188C52.2731 202.454 52.2458 202.491 52.1151 202.561C52.0049 202.619 51.9316 202.634 51.7391 202.634H51.5001L51.5097 202.734L51.5193 202.835L53.1069 202.835C55.2847 202.835 55.7947 202.807 56.1602 202.666C56.3059 202.611 56.6386 202.436 56.7018 202.382C57.0073 202.121 57.1941 201.866 57.3217 201.536C57.4069 201.315 57.4069 200.677 57.3216 200.453C57.1827 200.087 56.9378 199.824 56.5658 199.641C56.2804 199.501 56.1628 199.454 56.0557 199.441C55.9448 199.427 55.9458 199.366 56.0573 199.343C56.4004 199.274 56.9998 198.716 56.9998 198.466C56.9998 198.434 57.017 198.391 57.038 198.369C57.065 198.342 57.0762 198.2 57.0762 197.885C57.0762 197.57 57.065 197.429 57.038 197.401C57.017 197.38 56.9998 197.341 56.9997 197.315C56.9996 197.288 56.9682 197.204 56.9298 197.127C56.7574 196.783 56.4509 196.536 55.9747 196.359C55.624 196.228 55.3292 196.17 54.8626 196.141C54.3572 196.109 51.5539 196.097 51.5249 196.127ZM54.7342 196.464C55.4452 196.589 55.9567 197.011 56.0727 197.568C56.2001 198.18 55.9563 198.742 55.4607 198.979C55.1381 199.133 55.0262 199.159 54.4341 199.217C54.2528 199.235 53.634 199.191 53.4657 199.149L53.397 199.131V197.839V196.546L53.542 196.511C53.8829 196.428 54.4097 196.408 54.7342 196.464ZM54.784 199.587C54.9339 199.612 55.1309 199.654 55.2217 199.681C55.9874 199.906 56.4169 200.602 56.2653 201.372C56.1229 202.094 55.4348 202.496 54.3748 202.475C54.0497 202.469 53.4852 202.407 53.4281 202.371C53.4077 202.358 53.397 201.877 53.397 200.978V199.605L53.5115 199.586C53.5745 199.576 53.6466 199.563 53.6718 199.557C53.8082 199.528 54.5487 199.548 54.784 199.587Z" fill="#111111"/>
<path d="M95.456 185.8H96.8V197H95.456V192.024H88.816V197H87.472V185.8H88.816V190.744H95.456V185.8ZM100.666 188.568C100.666 187.619 101.034 186.888 101.77 186.376C102.506 185.864 103.418 185.608 104.506 185.608C105.818 185.608 106.948 185.88 107.898 186.424V187.768C106.959 187.16 105.86 186.867 104.602 186.888C102.884 186.888 102.026 187.432 102.026 188.52C102.026 188.957 102.191 189.331 102.522 189.64C102.852 189.949 103.263 190.184 103.754 190.344C104.244 190.504 104.778 190.691 105.354 190.904C105.94 191.107 106.479 191.32 106.97 191.544C107.46 191.757 107.871 192.088 108.202 192.536C108.532 192.984 108.698 193.523 108.698 194.152C108.698 194.685 108.58 195.155 108.346 195.56C108.122 195.965 107.812 196.285 107.418 196.52C107.023 196.755 106.586 196.925 106.106 197.032C105.626 197.139 105.108 197.192 104.554 197.192C103.135 197.192 101.855 196.872 100.714 196.232V194.888C101.834 195.571 103.082 195.912 104.458 195.912C106.378 195.912 107.338 195.357 107.338 194.248C107.338 193.843 107.215 193.496 106.97 193.208C106.724 192.909 106.404 192.669 106.01 192.488C105.615 192.307 105.178 192.141 104.698 191.992C104.228 191.843 103.759 191.683 103.29 191.512C102.82 191.331 102.388 191.128 101.994 190.904C101.599 190.669 101.279 190.355 101.034 189.96C100.788 189.565 100.666 189.101 100.666 188.568ZM112.297 185.8H116.889C118.062 185.8 118.99 186.045 119.673 186.536C120.356 187.016 120.697 187.715 120.697 188.632C120.697 189.293 120.521 189.837 120.169 190.264C119.817 190.68 119.396 190.963 118.905 191.112C119.502 191.272 120.025 191.581 120.473 192.04C120.921 192.488 121.145 193.117 121.145 193.928C121.145 194.419 121.049 194.851 120.857 195.224C120.676 195.597 120.441 195.896 120.153 196.12C119.876 196.333 119.545 196.509 119.161 196.648C118.788 196.787 118.425 196.883 118.073 196.936C117.732 196.979 117.38 197 117.017 197H112.297V185.8ZM119.785 193.784C119.785 192.493 118.894 191.848 117.113 191.848H113.641V195.72H116.745C117.086 195.72 117.374 195.715 117.609 195.704C117.844 195.683 118.11 195.64 118.409 195.576C118.708 195.501 118.948 195.4 119.129 195.272C119.31 195.133 119.465 194.941 119.593 194.696C119.721 194.44 119.785 194.136 119.785 193.784ZM119.337 188.824C119.337 188.195 119.118 187.747 118.681 187.48C118.254 187.213 117.62 187.08 116.777 187.08H113.641V190.568H117.145C117.785 190.568 118.308 190.429 118.713 190.152C119.129 189.864 119.337 189.421 119.337 188.824ZM124.207 191.48C124.207 190.243 124.501 189.171 125.087 188.264C125.674 187.347 126.405 186.675 127.279 186.248C128.154 185.821 129.093 185.608 130.095 185.608C131.247 185.608 132.298 185.859 133.247 186.36V187.704C132.437 187.16 131.461 186.888 130.319 186.888C129.039 186.888 127.93 187.283 126.991 188.072C126.053 188.851 125.578 189.987 125.567 191.48C125.567 192.429 125.807 193.251 126.287 193.944C126.778 194.637 127.375 195.139 128.079 195.448C128.794 195.757 129.557 195.912 130.367 195.912C131.573 195.912 132.559 195.64 133.327 195.096V196.44C132.357 196.941 131.274 197.192 130.079 197.192C129.365 197.192 128.661 197.069 127.967 196.824C127.274 196.568 126.645 196.211 126.079 195.752C125.514 195.283 125.061 194.68 124.719 193.944C124.378 193.197 124.207 192.376 124.207 191.48ZM142.597 185.8H147.189C148.362 185.8 149.29 186.045 149.973 186.536C150.656 187.016 150.997 187.715 150.997 188.632C150.997 189.293 150.821 189.837 150.469 190.264C150.117 190.68 149.696 190.963 149.205 191.112C149.802 191.272 150.325 191.581 150.773 192.04C151.221 192.488 151.445 193.117 151.445 193.928C151.445 194.419 151.349 194.851 151.157 195.224C150.976 195.597 150.741 195.896 150.453 196.12C150.176 196.333 149.845 196.509 149.461 196.648C149.088 196.787 148.725 196.883 148.373 196.936C148.032 196.979 147.68 197 147.317 197H142.597V185.8ZM150.085 193.784C150.085 192.493 149.194 191.848 147.413 191.848H143.941V195.72H147.045C147.386 195.72 147.674 195.715 147.909 195.704C148.144 195.683 148.41 195.64 148.709 195.576C149.008 195.501 149.248 195.4 149.429 195.272C149.61 195.133 149.765 194.941 149.893 194.696C150.021 194.44 150.085 194.136 150.085 193.784ZM149.637 188.824C149.637 188.195 149.418 187.747 148.981 187.48C148.554 187.213 147.92 187.08 147.077 187.08H143.941V190.568H147.445C148.085 190.568 148.608 190.429 149.013 190.152C149.429 189.864 149.637 189.421 149.637 188.824ZM161.211 195.4C161.211 195.795 161.409 195.992 161.803 195.992C161.974 195.992 162.171 195.955 162.395 195.88V196.92C162.075 197.037 161.755 197.096 161.435 197.096C160.699 197.096 160.23 196.787 160.027 196.168C159.206 196.851 158.209 197.192 157.035 197.192C156.289 197.192 155.649 196.995 155.115 196.6C154.593 196.195 154.331 195.613 154.331 194.856C154.331 193.949 154.667 193.293 155.339 192.888C156.022 192.472 156.843 192.264 157.803 192.264C158.507 192.264 159.217 192.344 159.931 192.504V192.232C159.931 191.645 159.739 191.181 159.355 190.84C158.971 190.488 158.433 190.312 157.739 190.312C156.769 190.312 155.835 190.504 154.939 190.888V189.64C155.942 189.299 156.918 189.128 157.867 189.128C158.913 189.128 159.729 189.411 160.315 189.976C160.913 190.531 161.211 191.336 161.211 192.392V195.4ZM155.643 194.792C155.643 195.219 155.803 195.544 156.123 195.768C156.454 195.981 156.849 196.088 157.307 196.088C158.363 196.088 159.238 195.715 159.931 194.968V193.56C159.206 193.411 158.555 193.336 157.979 193.336C157.329 193.336 156.774 193.453 156.315 193.688C155.867 193.912 155.643 194.28 155.643 194.792ZM166.427 190.456C166.704 190.083 167.088 189.768 167.579 189.512C168.08 189.256 168.619 189.128 169.195 189.128C170.123 189.128 170.885 189.421 171.483 190.008C172.091 190.584 172.395 191.336 172.395 192.264V197H171.115V192.424C171.115 191.731 170.923 191.208 170.539 190.856C170.165 190.493 169.669 190.312 169.051 190.312C168.069 190.312 167.237 190.824 166.555 191.848V197H165.275V189.32H166.427V190.456ZM183.369 197H181.865L179.049 193.704H177.545V197H176.265V185.8H177.545V192.52H179.097L181.529 189.32H183.017L180.105 193.144L183.369 197Z" fill="#111111"/>
<path d="M36 125L300 125" stroke="#111111"/>
</svg>
