<svg width="369" height="281" viewBox="0 0 369 281" fill="none" xmlns="http://www.w3.org/2000/svg">
<rect x="207.5" y="157.5" width="161" height="123" rx="11.5" fill="white" stroke="#111111"/>
<rect x="0.5" y="157.5" width="173" height="123" rx="11.5" fill="white" stroke="#111111"/>
<rect x="0.5" y="0.5" width="173" height="123" rx="11.5" fill="white" stroke="#111111"/>
<rect x="207.5" y="0.5" width="161" height="123" rx="11.5" fill="white" stroke="#111111"/>
<circle cx="234" cy="187" r="17.5" fill="white" stroke="#111111"/>
<circle cx="29" cy="187" r="17.5" fill="white" stroke="#111111"/>
<path d="M308.566 206.958L307.446 206.952L307.456 205.032C306.219 204.908 305.16 204.593 304.277 204.087L304.284 202.743C305.401 203.431 306.7 203.779 308.183 203.787C309.996 203.797 310.906 203.247 310.912 202.138C310.914 201.733 310.793 201.391 310.549 201.112C310.316 200.823 310.002 200.597 309.609 200.435C309.225 200.273 308.8 200.127 308.331 199.996C307.862 199.866 307.394 199.724 306.925 199.573C306.457 199.41 306.026 199.226 305.632 199.022C305.249 198.806 304.936 198.506 304.693 198.121C304.46 197.735 304.345 197.276 304.348 196.743C304.353 195.9 304.65 195.23 305.239 194.732C305.828 194.233 306.587 193.933 307.516 193.832L307.526 191.912L308.646 191.918L308.636 193.822C309.798 193.892 310.784 194.164 311.592 194.638L311.584 195.981C310.649 195.368 309.552 195.069 308.293 195.084C306.576 195.075 305.714 195.614 305.709 196.702C305.706 197.086 305.822 197.412 306.055 197.68C306.299 197.948 306.613 198.158 306.996 198.309C307.39 198.46 307.821 198.601 308.29 198.732C308.758 198.852 309.227 198.993 309.695 199.155C310.164 199.318 310.59 199.507 310.972 199.722C311.366 199.938 311.679 200.243 311.912 200.639C312.155 201.035 312.275 201.505 312.272 202.049C312.267 203.052 311.921 203.802 311.236 204.3C310.551 204.787 309.664 205.043 308.576 205.07L308.566 206.958ZM315.995 194.037L322.523 194.072L322.516 195.352L317.252 195.324L317.044 198.395C317.621 198.238 318.24 198.161 318.901 198.165C319.445 198.168 319.951 198.234 320.42 198.365C320.889 198.485 321.32 198.679 321.713 198.948C322.117 199.206 322.435 199.57 322.667 200.041C322.899 200.501 323.014 201.045 323.01 201.675C323.005 202.752 322.6 203.598 321.797 204.212C321.004 204.827 319.994 205.131 318.768 205.124C317.445 205.117 316.284 204.865 315.284 204.369L315.291 203.089C316.248 203.607 317.356 203.868 318.614 203.875C319.532 203.88 320.263 203.692 320.81 203.311C321.366 202.93 321.647 202.382 321.65 201.667C321.658 200.153 320.585 199.39 318.431 199.378C317.492 199.373 316.552 199.539 315.612 199.875L315.995 194.037ZM326.51 196.717C326.515 195.949 326.854 195.29 327.529 194.739C328.204 194.188 329.192 193.916 330.493 193.923C331.699 193.929 332.668 194.228 333.401 194.818C334.134 195.409 334.508 196.115 334.525 196.936C334.551 198.056 334.051 198.971 333.023 199.68C334.267 200.305 334.887 201.162 334.881 202.25C334.877 203.082 334.505 203.784 333.766 204.356C333.037 204.918 331.959 205.195 330.529 205.187C329.111 205.179 328.014 204.864 327.238 204.241C326.474 203.619 326.094 202.865 326.098 201.979C326.101 201.446 326.259 200.919 326.571 200.398C326.894 199.866 327.36 199.421 327.97 199.061C326.992 198.459 326.505 197.677 326.51 196.717ZM330.62 200.099C330.067 199.947 329.561 199.784 329.103 199.611C328.568 199.864 328.156 200.193 327.866 200.597C327.586 201 327.445 201.416 327.443 201.842C327.44 202.493 327.704 203.006 328.235 203.383C328.777 203.748 329.555 203.934 330.568 203.939C331.421 203.944 332.126 203.798 332.682 203.502C333.249 203.196 333.534 202.798 333.537 202.307C333.539 201.891 333.391 201.538 333.094 201.249C332.808 200.948 332.526 200.744 332.25 200.636C331.973 200.528 331.515 200.376 330.876 200.181C330.759 200.148 330.674 200.121 330.62 200.099ZM333.18 197.169C333.183 196.604 332.946 196.133 332.468 195.757C331.99 195.371 331.319 195.175 330.455 195.17C329.666 195.166 329.035 195.312 328.564 195.608C328.094 195.894 327.857 196.261 327.855 196.708C327.853 197.018 327.915 197.29 328.042 197.526C328.18 197.75 328.381 197.943 328.647 198.105C328.924 198.256 329.174 198.38 329.397 198.477C329.621 198.563 329.919 198.661 330.292 198.77C330.334 198.78 330.366 198.791 330.387 198.802C330.409 198.802 330.435 198.808 330.467 198.818C330.499 198.829 330.531 198.84 330.563 198.851C330.595 198.862 330.776 198.916 331.106 199.014C331.447 199.101 331.708 199.172 331.889 199.226C332.745 198.676 333.176 197.99 333.18 197.169ZM339.381 203.778C339.54 203.918 339.619 204.115 339.618 204.371C339.617 204.627 339.536 204.83 339.375 204.978C339.214 205.116 339.016 205.184 338.782 205.183C338.547 205.182 338.345 205.111 338.175 204.972C338.016 204.822 337.937 204.619 337.938 204.363C337.939 204.107 338.02 203.91 338.181 203.772C338.353 203.634 338.556 203.566 338.79 203.567C339.025 203.568 339.222 203.639 339.381 203.778ZM345.638 194.196L346.63 194.201L346.579 203.801L348.611 203.812L348.604 205.092L342.94 205.061L342.947 203.781L345.235 203.794L345.278 195.618L342.986 196.469L342.993 195.189L345.638 194.196ZM358.77 197.034C358.767 197.588 358.615 198.089 358.314 198.535C358.024 198.971 357.643 199.268 357.173 199.425C357.727 199.599 358.2 199.916 358.592 200.377C358.995 200.827 359.195 201.431 359.19 202.188C359.185 203.201 358.802 203.978 358.042 204.518C357.292 205.058 356.342 205.325 355.19 205.319C353.728 205.311 352.466 205.064 351.402 204.578L351.409 203.251C352.44 203.789 353.666 204.057 355.084 204.054C356.951 204.064 357.888 203.418 357.895 202.117C357.902 200.816 357.02 200.16 355.249 200.151L353.585 200.142L353.592 198.862L355.112 198.886C355.88 198.89 356.462 198.733 356.859 198.416C357.266 198.087 357.471 197.662 357.473 197.139C357.476 196.574 357.255 196.13 356.809 195.807C356.362 195.474 355.729 195.305 354.907 195.301C353.777 195.295 352.687 195.567 351.639 196.116L351.646 194.804C352.651 194.297 353.799 194.047 355.09 194.054C356.199 194.06 357.088 194.337 357.757 194.884C358.437 195.432 358.775 196.148 358.77 197.034Z" fill="#111111"/>
<path d="M111.541 207.08H110.421V205.16C109.183 205.043 108.122 204.733 107.237 204.232V202.888C108.357 203.571 109.658 203.912 111.141 203.912C112.954 203.912 113.861 203.357 113.861 202.248C113.861 201.843 113.738 201.501 113.493 201.224C113.258 200.936 112.943 200.712 112.549 200.552C112.165 200.392 111.738 200.248 111.269 200.12C110.799 199.992 110.33 199.853 109.861 199.704C109.391 199.544 108.959 199.363 108.565 199.16C108.181 198.947 107.866 198.648 107.621 198.264C107.386 197.88 107.269 197.421 107.269 196.888C107.269 196.045 107.562 195.373 108.149 194.872C108.735 194.371 109.493 194.067 110.421 193.96V192.04H111.541V193.944C112.703 194.008 113.69 194.275 114.501 194.744V196.088C113.562 195.48 112.463 195.187 111.205 195.208C109.487 195.208 108.629 195.752 108.629 196.84C108.629 197.224 108.746 197.549 108.981 197.816C109.226 198.083 109.541 198.291 109.925 198.44C110.319 198.589 110.751 198.728 111.221 198.856C111.69 198.973 112.159 199.112 112.629 199.272C113.098 199.432 113.525 199.619 113.909 199.832C114.303 200.045 114.618 200.349 114.853 200.744C115.098 201.139 115.221 201.608 115.221 202.152C115.221 203.155 114.879 203.907 114.197 204.408C113.514 204.899 112.629 205.16 111.541 205.192V207.08ZM125.557 196.888C125.557 197.443 125.408 197.944 125.109 198.392C124.821 198.829 124.442 199.128 123.973 199.288C124.528 199.459 125.002 199.773 125.397 200.232C125.802 200.68 126.005 201.283 126.005 202.04C126.005 203.053 125.626 203.832 124.869 204.376C124.122 204.92 123.173 205.192 122.021 205.192C120.56 205.192 119.296 204.952 118.229 204.472V203.144C119.264 203.677 120.49 203.939 121.909 203.928C123.776 203.928 124.709 203.277 124.709 201.976C124.709 200.675 123.824 200.024 122.053 200.024H120.389V198.744L121.909 198.76C122.677 198.76 123.258 198.6 123.653 198.28C124.058 197.949 124.261 197.523 124.261 197C124.261 196.435 124.037 195.992 123.589 195.672C123.141 195.341 122.506 195.176 121.685 195.176C120.554 195.176 119.466 195.453 118.421 196.008V194.696C119.424 194.184 120.57 193.928 121.861 193.928C122.97 193.928 123.861 194.2 124.533 194.744C125.216 195.288 125.557 196.003 125.557 196.888ZM134.724 194.12H136.18V201.336H138.228V202.584H136.18V205H134.852V202.584H128.788V201.384L134.724 194.12ZM134.852 201.336V195.928L130.436 201.336H134.852ZM142.354 203.736C142.514 203.875 142.594 204.072 142.594 204.328C142.594 204.584 142.514 204.787 142.354 204.936C142.194 205.075 141.997 205.144 141.762 205.144C141.528 205.144 141.325 205.075 141.154 204.936C140.994 204.787 140.914 204.584 140.914 204.328C140.914 204.072 140.994 203.875 141.154 203.736C141.325 203.597 141.528 203.528 141.762 203.528C141.997 203.528 142.194 203.597 142.354 203.736ZM144.863 194.12H152.703V195.336L148.159 205H146.719L151.231 195.4H144.863V194.12ZM155.809 196.744C155.809 195.976 156.145 195.315 156.817 194.76C157.489 194.205 158.475 193.928 159.777 193.928C160.982 193.928 161.953 194.221 162.689 194.808C163.425 195.395 163.803 196.099 163.825 196.92C163.857 198.04 163.361 198.957 162.337 199.672C163.585 200.291 164.209 201.144 164.209 202.232C164.209 203.064 163.841 203.768 163.105 204.344C162.379 204.909 161.302 205.192 159.873 205.192C158.454 205.192 157.355 204.883 156.577 204.264C155.809 203.645 155.425 202.893 155.425 202.008C155.425 201.475 155.579 200.947 155.889 200.424C156.209 199.891 156.673 199.443 157.281 199.08C156.299 198.483 155.809 197.704 155.809 196.744ZM159.937 200.104C159.382 199.955 158.875 199.795 158.417 199.624C157.883 199.88 157.473 200.211 157.185 200.616C156.907 201.021 156.769 201.437 156.769 201.864C156.769 202.515 157.035 203.027 157.569 203.4C158.113 203.763 158.891 203.944 159.905 203.944C160.758 203.944 161.462 203.795 162.017 203.496C162.582 203.187 162.865 202.787 162.865 202.296C162.865 201.88 162.715 201.528 162.417 201.24C162.129 200.941 161.846 200.739 161.569 200.632C161.291 200.525 160.833 200.376 160.193 200.184C160.075 200.152 159.99 200.125 159.937 200.104ZM162.481 197.16C162.481 196.595 162.241 196.125 161.761 195.752C161.281 195.368 160.609 195.176 159.745 195.176C158.955 195.176 158.326 195.325 157.857 195.624C157.387 195.912 157.153 196.28 157.153 196.728C157.153 197.037 157.217 197.309 157.345 197.544C157.483 197.768 157.686 197.96 157.953 198.12C158.23 198.269 158.481 198.392 158.705 198.488C158.929 198.573 159.227 198.669 159.601 198.776C159.643 198.787 159.675 198.797 159.697 198.808C159.718 198.808 159.745 198.813 159.777 198.824C159.809 198.835 159.841 198.845 159.873 198.856C159.905 198.867 160.086 198.92 160.417 199.016C160.758 199.101 161.019 199.171 161.201 199.224C162.054 198.669 162.481 197.981 162.481 197.16Z" fill="#111111"/>
<path d="M113.697 52.08H112.577V50.16C111.34 50.0427 110.278 49.7333 109.393 49.232V47.888C110.513 48.5707 111.814 48.912 113.297 48.912C115.11 48.912 116.017 48.3573 116.017 47.248C116.017 46.8427 115.894 46.5013 115.649 46.224C115.414 45.936 115.1 45.712 114.705 45.552C114.321 45.392 113.894 45.248 113.425 45.12C112.956 44.992 112.486 44.8533 112.017 44.704C111.548 44.544 111.116 44.3627 110.721 44.16C110.337 43.9467 110.022 43.648 109.777 43.264C109.542 42.88 109.425 42.4213 109.425 41.888C109.425 41.0453 109.718 40.3733 110.305 39.872C110.892 39.3707 111.649 39.0667 112.577 38.96V37.04H113.697V38.944C114.86 39.008 115.846 39.2747 116.657 39.744V41.088C115.718 40.48 114.62 40.1867 113.361 40.208C111.644 40.208 110.785 40.752 110.785 41.84C110.785 42.224 110.902 42.5493 111.137 42.816C111.382 43.0827 111.697 43.2907 112.081 43.44C112.476 43.5893 112.908 43.728 113.377 43.856C113.846 43.9733 114.316 44.112 114.785 44.272C115.254 44.432 115.681 44.6187 116.065 44.832C116.46 45.0453 116.774 45.3493 117.009 45.744C117.254 46.1387 117.377 46.608 117.377 47.152C117.377 48.1547 117.036 48.9067 116.353 49.408C115.67 49.8987 114.785 50.16 113.697 50.192V52.08ZM120.161 42.496C120.161 41.376 120.529 40.5013 121.265 39.872C122.012 39.2427 122.945 38.928 124.065 38.928C125.601 38.928 126.748 39.408 127.505 40.368C128.273 41.3173 128.657 42.656 128.657 44.384C128.657 46.304 128.198 47.7547 127.281 48.736C126.374 49.7067 125.185 50.192 123.713 50.192C122.764 50.192 121.884 49.984 121.073 49.568V48.288C121.862 48.704 122.732 48.912 123.681 48.912C124.684 48.912 125.516 48.592 126.177 47.952C126.849 47.3013 127.222 46.272 127.297 44.864C126.252 45.5573 125.116 45.904 123.889 45.904C122.897 45.904 122.028 45.6053 121.281 45.008C120.534 44.4 120.161 43.5627 120.161 42.496ZM124.161 40.176C123.372 40.176 122.732 40.3573 122.241 40.72C121.761 41.0827 121.521 41.6533 121.521 42.432C121.521 43.2213 121.772 43.792 122.273 44.144C122.774 44.4853 123.425 44.656 124.225 44.656C125.409 44.656 126.428 44.2773 127.281 43.52C127.078 41.2907 126.038 40.176 124.161 40.176ZM132.163 39.984C133.176 39.28 134.339 38.928 135.651 38.928C136.782 38.928 137.683 39.184 138.355 39.696C139.027 40.208 139.363 40.9227 139.363 41.84C139.363 42.2773 139.278 42.688 139.107 43.072C138.947 43.456 138.702 43.808 138.371 44.128C138.051 44.448 137.736 44.72 137.427 44.944C137.128 45.1573 136.75 45.3973 136.291 45.664C136.238 45.696 136.072 45.792 135.795 45.952C135.528 46.112 135.358 46.2133 135.283 46.256C135.219 46.2987 135.07 46.3947 134.835 46.544C134.611 46.6827 134.462 46.784 134.387 46.848C134.323 46.912 134.206 47.0133 134.035 47.152C133.875 47.2907 133.763 47.408 133.699 47.504C133.646 47.6 133.571 47.7227 133.475 47.872C133.39 48.0107 133.331 48.1493 133.299 48.288C133.267 48.4267 133.251 48.576 133.251 48.736L139.443 48.72V50H131.779V49.36C131.779 48.7627 131.875 48.224 132.067 47.744C132.259 47.2533 132.531 46.8373 132.883 46.496C133.246 46.144 133.603 45.8507 133.955 45.616C134.307 45.3707 134.718 45.1093 135.187 44.832C135.294 44.7787 135.374 44.736 135.427 44.704C136.398 44.1387 137.032 43.7067 137.331 43.408C137.79 42.9387 138.019 42.4107 138.019 41.824C138.019 41.2907 137.8 40.8853 137.363 40.608C136.936 40.32 136.328 40.176 135.539 40.176C134.387 40.176 133.262 40.56 132.163 41.328V39.984ZM144.182 48.736C144.342 48.8747 144.422 49.072 144.422 49.328C144.422 49.584 144.342 49.7867 144.182 49.936C144.022 50.0747 143.825 50.144 143.59 50.144C143.356 50.144 143.153 50.0747 142.982 49.936C142.822 49.7867 142.742 49.584 142.742 49.328C142.742 49.072 142.822 48.8747 142.982 48.736C143.153 48.5973 143.356 48.528 143.59 48.528C143.825 48.528 144.022 48.5973 144.182 48.736ZM147.211 42.496C147.211 41.376 147.579 40.5013 148.315 39.872C149.062 39.2427 149.995 38.928 151.115 38.928C152.651 38.928 153.798 39.408 154.555 40.368C155.323 41.3173 155.707 42.656 155.707 44.384C155.707 46.304 155.248 47.7547 154.331 48.736C153.424 49.7067 152.235 50.192 150.763 50.192C149.814 50.192 148.934 49.984 148.123 49.568V48.288C148.912 48.704 149.782 48.912 150.731 48.912C151.734 48.912 152.566 48.592 153.227 47.952C153.899 47.3013 154.272 46.272 154.347 44.864C153.302 45.5573 152.166 45.904 150.939 45.904C149.947 45.904 149.078 45.6053 148.331 45.008C147.584 44.4 147.211 43.5627 147.211 42.496ZM151.211 40.176C150.422 40.176 149.782 40.3573 149.291 40.72C148.811 41.0827 148.571 41.6533 148.571 42.432C148.571 43.2213 148.822 43.792 149.323 44.144C149.824 44.4853 150.475 44.656 151.275 44.656C152.459 44.656 153.478 44.2773 154.331 43.52C154.128 41.2907 153.088 40.176 151.211 40.176ZM161.613 39.12H162.605V48.72H164.637V50H158.973V48.72H161.261V40.544L158.973 41.408V40.128L161.613 39.12Z" fill="#111111"/>
<rect x="216" y="236" width="64" height="8" fill="#FFDE3B"/>
<rect x="11" y="236" width="64" height="8" fill="#FFDE3B"/>
<rect x="11" y="79" width="64" height="8" fill="#FFDE3B"/>
<rect x="216" y="256" width="117" height="8" fill="#FFDE3B"/>
<rect x="11" y="256" width="117" height="8" fill="#FFDE3B"/>
<rect x="11" y="99" width="117" height="8" fill="#FFDE3B"/>
<g clip-path="url(#clip0_181_46064)">
<path fill-rule="evenodd" clip-rule="evenodd" d="M20.989 183.031C19.7327 183.201 18.5076 183.862 17.7058 184.802L17.4603 185.09L18.0513 185.102L18.6423 185.114L18.8529 184.92C19.665 184.169 21.0094 183.731 22.0725 183.87C23.0412 183.998 23.8716 184.358 24.4991 184.924L24.7079 185.112H25.2887H25.8696L25.8163 185.012C25.787 184.957 25.5313 184.693 25.2482 184.425C24.5207 183.737 23.8706 183.385 22.8685 183.135C22.3766 183.012 21.4879 182.963 20.989 183.031ZM26.9156 184.257L26.6504 184.407V187.64V190.872L26.9387 190.859L27.2269 190.846L27.222 190.547C27.2193 190.382 27.2307 190.248 27.2473 190.248C27.2638 190.248 27.3594 190.329 27.4597 190.427C27.714 190.678 28.0078 190.846 28.3448 190.936C29.0351 191.119 29.7817 190.804 30.1705 190.166C30.4645 189.684 30.5663 189.296 30.6013 188.521C30.6464 187.524 30.4478 186.822 29.9875 186.349C29.634 185.986 29.1264 185.831 28.5686 185.916C28.2028 185.971 27.8582 186.14 27.5301 186.425C27.3807 186.555 27.2479 186.661 27.235 186.661C27.2221 186.661 27.209 186.089 27.206 185.39C27.2029 184.691 27.196 184.116 27.1906 184.113C27.1852 184.109 27.0615 184.174 26.9156 184.257ZM41.732 184.266L41.5245 184.387L41.5127 187.627L41.5008 190.868H41.7779H42.0549V190.179V189.49L42.5444 188.826C42.8135 188.461 43.0411 188.169 43.05 188.178C43.0684 188.195 44.0739 190.225 44.2567 190.613L44.3765 190.868H44.6883H45L44.5831 190.038C44.3537 189.581 44.0024 188.881 43.8023 188.482C43.6023 188.083 43.4385 187.734 43.4385 187.705C43.4385 187.654 43.7677 187.202 44.3741 186.418L44.6825 186.019L44.4231 186.006C44.2805 185.999 44.1381 186.002 44.1069 186.013C44.0578 186.031 43.7518 186.442 42.7991 187.768C42.6854 187.927 42.5257 188.147 42.4443 188.259C42.3629 188.37 42.2622 188.524 42.2206 188.602C42.1789 188.679 42.1245 188.742 42.0998 188.742C42.0712 188.742 42.0549 187.905 42.0549 186.44C42.0549 184.626 42.0427 184.138 41.9972 184.141C41.9655 184.143 41.8462 184.199 41.732 184.266ZM21.4964 184.699L21.0236 184.941V185.445V185.95L20.5739 185.962L20.1243 185.975V186.396V186.816L20.5624 186.838L21.0006 186.861L21.0236 188.477C21.0496 190.297 21.0476 190.285 21.4063 190.637C21.7427 190.967 22.3755 191.047 22.897 190.826C23.0692 190.753 23.0973 190.718 23.1601 190.507C23.2899 190.07 23.3359 189.885 23.3188 189.868C23.3094 189.859 23.1784 189.901 23.0275 189.96C22.8694 190.023 22.6588 190.069 22.5305 190.07C22.3449 190.071 22.2854 190.049 22.1725 189.941L22.037 189.811L22.0492 188.336L22.0613 186.861L22.5226 186.853C22.7762 186.849 23.0097 186.844 23.0414 186.842C23.0834 186.839 23.0991 186.719 23.0991 186.396V185.953H22.5687H22.0383V185.2C22.0383 184.786 22.0227 184.45 22.0037 184.452C21.9847 184.454 21.7563 184.565 21.4964 184.699ZM15.209 185.909C13.8682 186.111 12.9996 187.103 13 188.432C13.0002 189.031 13.1721 189.561 13.503 189.984C13.9262 190.525 14.4977 190.828 15.3358 190.957C15.7513 191.02 16.299 190.933 16.7113 190.737C17.0032 190.599 17.4727 190.233 17.4716 190.145C17.4709 190.087 16.9871 189.526 16.9189 189.503C16.8953 189.495 16.8285 189.532 16.7705 189.585C16.0984 190.201 14.9918 190.154 14.4032 189.485C14.001 189.029 13.9184 188.204 14.2185 187.642C14.3514 187.393 14.6584 187.103 14.9233 186.975C15.0307 186.924 15.2453 186.865 15.4002 186.845C15.8904 186.78 16.3085 186.901 16.7262 187.226C16.8359 187.311 16.9411 187.364 16.9602 187.342C17.3582 186.896 17.4723 186.757 17.4723 186.719C17.4723 186.657 17.1131 186.342 16.8895 186.207C16.4511 185.943 15.7786 185.823 15.209 185.909ZM33.0151 185.91C32.5468 185.963 31.816 186.176 31.816 186.26C31.816 186.277 31.8588 186.376 31.9111 186.48C31.9848 186.626 32.0239 186.661 32.0841 186.637C32.5588 186.441 32.796 186.383 33.1996 186.363C33.7248 186.337 33.9689 186.391 34.1995 186.586C34.4695 186.813 34.5485 187.042 34.5738 187.669C34.598 188.269 34.5995 188.266 34.3123 188.125C34.216 188.078 33.9637 188.006 33.7516 187.965C32.8429 187.788 31.91 188.074 31.541 188.643C31.1476 189.25 31.3049 190.278 31.8522 190.677C32.079 190.842 32.585 191.001 32.8817 191C33.3416 190.999 33.9023 190.767 34.2841 190.42C34.4155 190.301 34.5365 190.204 34.5531 190.204C34.5697 190.204 34.5832 190.353 34.5832 190.536V190.868H34.8618H35.1403L35.127 188.886C35.1138 186.924 35.1126 186.903 35.007 186.679C34.7975 186.234 34.4043 185.986 33.7905 185.909C33.4167 185.863 33.4346 185.863 33.0151 185.91ZM38.2209 185.91C37.7872 185.979 37.3997 186.213 37.1612 186.549C37.1005 186.635 37.0352 186.705 37.0161 186.705C36.9971 186.706 36.9816 186.546 36.9816 186.351V185.997H36.7048H36.4281V188.432V190.868H36.7048H36.9816V189.303C36.9816 187.899 36.9908 187.704 37.071 187.402C37.1742 187.015 37.3254 186.762 37.5542 186.595C37.7426 186.457 38.0761 186.351 38.3241 186.351C39.065 186.351 39.4902 186.742 39.6092 187.532C39.6343 187.699 39.6552 188.517 39.6557 189.351L39.6566 190.868H39.9333H40.21V189.166C40.21 187.31 40.1851 187.074 39.9445 186.649C39.6329 186.098 38.9292 185.797 38.2209 185.91ZM18.1502 185.981C18.1325 185.998 18.118 187.105 18.118 188.44V190.868H18.6487H19.1795L19.1676 188.421L19.1557 185.975L18.669 185.963C18.4014 185.956 18.1679 185.964 18.1502 185.981ZM24.206 188.41V190.868H24.7133H25.2206V188.41V185.953H24.7133H24.206V188.41ZM28.9975 186.399C29.6936 186.542 30.1106 187.42 30.0476 188.61C29.9895 189.708 29.6607 190.31 29.0301 190.474C28.761 190.544 28.3311 190.498 28.0239 190.367C27.7253 190.239 27.3334 189.91 27.2502 189.717C27.2098 189.623 27.199 189.246 27.2107 188.341L27.2269 187.095L27.4946 186.856C27.9864 186.416 28.4289 186.282 28.9975 186.399ZM33.8472 188.389C33.982 188.413 34.2027 188.482 34.3377 188.541L34.5832 188.649V189.208V189.767L34.3307 190.009C34.1724 190.161 33.9614 190.304 33.7657 190.392C33.4887 190.517 33.4062 190.533 33.0382 190.534C32.6649 190.535 32.601 190.523 32.403 190.411C32.1184 190.251 31.9706 190.03 31.9125 189.68C31.8049 189.03 32.0798 188.553 32.6526 188.395C32.8615 188.337 33.5448 188.333 33.8472 188.389Z" fill="#111111"/>
</g>
<path fill-rule="evenodd" clip-rule="evenodd" d="M227.085 175.025C227.085 175.049 228.375 176.36 230.077 178.064C230.572 178.56 231.654 179.648 232.481 180.482L233.985 181.998L237.102 178.847C240.708 175.203 240.836 175.072 240.85 175.031C240.856 175.01 238.54 175 233.972 175C230.184 175 227.085 175.011 227.085 175.025ZM226.092 175.945C225.656 176.381 224.673 177.363 223.909 178.126C223.145 178.889 221.953 180.081 221.26 180.775L220 182.038L221.397 183.433C222.166 184.2 222.863 184.894 222.947 184.975C223.031 185.056 223.73 185.751 224.499 186.519C225.268 187.287 226.12 188.134 226.392 188.402L226.886 188.888L226.894 185.455C226.898 183.567 226.898 180.476 226.894 178.587L226.886 175.152L226.092 175.945ZM241.13 182.068V188.995L241.244 188.881C241.307 188.819 241.983 188.141 242.747 187.375C243.511 186.609 244.136 185.982 244.136 185.981C244.169 185.97 248 182.088 248 182.067C248 182.049 247.666 181.701 247.259 181.294C246.852 180.886 245.383 179.411 243.994 178.016C242.606 176.621 241.394 175.403 241.3 175.31L241.13 175.141V182.068ZM230.511 185.53C228.626 187.437 227.084 189.008 227.084 189.021C227.085 189.05 240.855 189.052 240.855 189.023C240.855 188.994 233.98 182.052 233.957 182.058C233.947 182.061 232.397 183.623 230.511 185.53ZM230.977 191.972C230.325 192.109 229.854 192.45 229.592 192.974C229.288 193.58 229.39 194.347 229.84 194.846C230.046 195.075 230.48 195.375 231.603 196.063C231.746 196.15 231.89 196.239 231.922 196.26C231.955 196.281 232.078 196.359 232.195 196.433C232.625 196.705 232.83 196.963 232.916 197.344C232.95 197.493 232.951 197.551 232.917 197.684C232.795 198.175 232.5 198.448 231.97 198.561C231.437 198.674 230.766 198.513 230.387 198.18C230.209 198.025 230.007 197.733 229.908 197.488C229.863 197.378 229.817 197.267 229.804 197.242C229.791 197.216 229.755 197.08 229.723 196.939C229.666 196.682 229.666 196.682 229.574 196.691L229.481 196.7L229.473 197.836L229.465 198.973L229.54 198.992C229.634 199.015 229.68 198.988 229.68 198.91C229.68 198.839 229.737 198.729 229.802 198.673C229.862 198.621 230.16 198.639 230.382 198.708C230.997 198.899 231.376 198.976 231.727 198.978C232.303 198.981 232.788 198.803 233.21 198.433C233.352 198.309 233.619 197.965 233.619 197.905C233.619 197.894 233.638 197.841 233.662 197.788C233.719 197.661 233.802 197.275 233.802 197.138C233.802 196.815 233.629 196.326 233.412 196.037C233.246 195.816 232.785 195.455 232.441 195.277C232.375 195.243 232.314 195.207 232.306 195.198C232.297 195.188 232.16 195.114 232 195.033C231.841 194.952 231.573 194.802 231.405 194.701C231.237 194.599 231.072 194.499 231.039 194.479C231.005 194.459 230.971 194.434 230.962 194.425C230.954 194.415 230.878 194.36 230.795 194.302C230.555 194.137 230.385 193.946 230.284 193.727C230.2 193.545 230.193 193.503 230.206 193.303C230.228 192.973 230.38 192.729 230.681 192.541C231.232 192.197 232.086 192.357 232.6 192.899C232.762 193.071 232.843 193.203 233.007 193.561C233.029 193.608 233.11 193.943 233.153 194.164C233.174 194.268 233.191 194.289 233.261 194.297L233.344 194.307V193.129V191.952H233.255C233.18 191.952 233.162 191.967 233.144 192.048C233.133 192.102 233.086 192.185 233.04 192.234C232.921 192.36 232.785 192.352 232.414 192.198C232.127 192.08 232.018 192.045 231.741 191.982C231.619 191.955 231.093 191.948 230.977 191.972ZM244.229 191.97C244.195 191.977 244.092 191.999 244 192.018C243.746 192.069 243.456 192.166 243.252 192.268C243.065 192.36 242.867 192.476 242.839 192.508C242.831 192.518 242.789 192.548 242.746 192.576C242.522 192.72 242.138 193.124 241.941 193.421C241.692 193.798 241.404 194.497 241.404 194.725C241.404 194.775 241.391 194.83 241.375 194.846C241.33 194.891 241.304 195.769 241.339 196.051C241.393 196.493 241.536 196.989 241.688 197.267C241.789 197.452 241.931 197.688 241.951 197.706C241.961 197.714 242.024 197.79 242.09 197.873C242.686 198.625 243.483 198.985 244.534 198.98C244.817 198.978 244.896 198.971 245.145 198.925C245.375 198.882 245.893 198.697 245.893 198.657C245.893 198.644 245.911 198.634 245.933 198.634C245.955 198.634 246.073 198.564 246.194 198.479C246.475 198.284 246.83 197.925 246.98 197.687C247.011 197.638 247.043 197.59 247.052 197.582C247.086 197.55 247.236 197.304 247.236 197.281C247.236 197.24 247.107 197.172 247.087 197.202C246.994 197.339 246.683 197.698 246.514 197.863C245.947 198.415 245.677 198.526 244.9 198.524C244.407 198.523 244.119 198.478 243.9 198.367C243.669 198.249 243.606 198.214 243.465 198.119C243.381 198.063 243.26 197.966 243.197 197.904C243.059 197.771 242.81 197.428 242.759 197.304C242.749 197.278 242.715 197.201 242.684 197.133C242.653 197.065 242.605 196.912 242.577 196.793C242.55 196.674 242.511 196.521 242.492 196.453C242.445 196.284 242.445 194.794 242.493 194.628C242.512 194.56 242.551 194.4 242.578 194.273C242.688 193.764 242.97 193.186 243.252 192.893C243.483 192.652 243.67 192.532 243.982 192.425C244.211 192.346 244.263 192.34 244.732 192.34C245.288 192.34 245.412 192.367 245.786 192.569C245.979 192.673 246.45 193.133 246.534 193.3C246.559 193.35 246.587 193.397 246.595 193.406C246.629 193.439 246.803 193.834 246.871 194.034C246.937 194.225 246.95 194.243 247.021 194.235L247.099 194.226L247.088 193.916C247.083 193.746 247.066 193.551 247.051 193.483C247.036 193.415 247.023 193.248 247.022 193.112C247.02 192.863 246.979 192.327 246.943 192.083C246.927 191.972 246.913 191.952 246.853 191.952C246.799 191.952 246.774 191.978 246.746 192.066C246.706 192.188 246.682 192.225 246.567 192.342C246.46 192.451 246.329 192.437 246.004 192.282C245.474 192.028 245.273 191.978 244.717 191.965C244.482 191.96 244.262 191.962 244.229 191.97ZM221.81 192.127C221.789 192.136 221.772 192.167 221.772 192.198C221.772 192.243 221.806 192.256 221.963 192.269C222.194 192.289 222.472 192.391 222.573 192.493C222.614 192.535 222.663 192.623 222.683 192.689C222.709 192.777 222.718 193.521 222.718 195.426C222.718 198.119 222.714 198.225 222.599 198.444C222.538 198.558 222.385 198.611 222.07 198.626L221.772 198.641V198.727C221.772 198.774 221.789 198.819 221.81 198.826C221.841 198.837 224.51 198.834 224.591 198.823C224.604 198.821 224.611 198.781 224.606 198.734C224.596 198.651 224.592 198.649 224.337 198.63C224.005 198.605 223.845 198.523 223.738 198.324C223.684 198.224 223.68 198.124 223.671 196.909L223.661 195.602H225.192H226.722L226.712 196.909L226.702 198.216L226.626 198.354C226.516 198.554 226.393 198.615 226.062 198.634L225.787 198.649V198.742V198.834L227.17 198.835C227.931 198.836 228.568 198.827 228.585 198.817C228.602 198.806 228.612 198.764 228.606 198.723C228.596 198.652 228.584 198.649 228.301 198.634C228.028 198.619 227.998 198.611 227.889 198.522C227.658 198.333 227.668 198.476 227.666 195.515C227.665 193.14 227.67 192.86 227.715 192.72C227.79 192.488 227.92 192.373 228.178 192.309C228.295 192.28 228.424 192.259 228.463 192.262C228.595 192.273 228.616 192.263 228.606 192.192L228.596 192.122H227.191H225.787L225.777 192.192C225.769 192.254 225.781 192.261 225.885 192.261C226.172 192.261 226.527 192.415 226.644 192.591C226.699 192.674 226.703 192.754 226.712 193.955L226.721 195.231H225.192H223.662L223.671 194.001C223.68 192.884 223.686 192.76 223.737 192.649C223.842 192.421 224.054 192.3 224.4 192.27C224.596 192.254 224.614 192.246 224.605 192.187C224.596 192.122 224.593 192.122 223.222 192.117C222.467 192.114 221.831 192.118 221.81 192.127ZM234.525 192.127C234.513 192.138 234.504 192.173 234.504 192.205C234.504 192.248 234.527 192.261 234.607 192.261C234.664 192.261 234.807 192.283 234.926 192.311C235.093 192.349 235.166 192.384 235.25 192.467C235.311 192.527 235.359 192.604 235.359 192.643C235.359 192.682 235.376 192.73 235.397 192.752C235.455 192.81 235.452 198.061 235.394 198.188C235.273 198.454 235.246 198.491 235.115 198.561C235.005 198.619 234.932 198.634 234.739 198.634H234.5L234.51 198.734L234.519 198.835L236.107 198.835C238.285 198.835 238.795 198.807 239.16 198.666C239.306 198.611 239.639 198.436 239.702 198.382C240.007 198.121 240.194 197.866 240.322 197.536C240.407 197.315 240.407 196.677 240.322 196.453C240.183 196.087 239.938 195.824 239.566 195.641C239.28 195.501 239.163 195.454 239.056 195.441C238.945 195.427 238.946 195.366 239.057 195.343C239.4 195.274 240 194.716 240 194.466C240 194.434 240.017 194.391 240.038 194.369C240.065 194.342 240.076 194.2 240.076 193.885C240.076 193.57 240.065 193.429 240.038 193.401C240.017 193.38 240 193.341 240 193.315C240 193.288 239.968 193.204 239.93 193.127C239.757 192.783 239.451 192.536 238.975 192.359C238.624 192.228 238.329 192.17 237.863 192.141C237.357 192.109 234.554 192.097 234.525 192.127ZM237.734 192.464C238.445 192.589 238.957 193.011 239.073 193.568C239.2 194.18 238.956 194.742 238.461 194.979C238.138 195.133 238.026 195.159 237.434 195.217C237.253 195.235 236.634 195.191 236.466 195.149L236.397 195.131V193.839V192.546L236.542 192.511C236.883 192.428 237.41 192.408 237.734 192.464ZM237.784 195.587C237.934 195.612 238.131 195.654 238.222 195.681C238.987 195.906 239.417 196.602 239.265 197.372C239.123 198.094 238.435 198.496 237.375 198.475C237.05 198.469 236.485 198.407 236.428 198.371C236.408 198.358 236.397 197.877 236.397 196.978V195.605L236.511 195.586C236.574 195.576 236.647 195.563 236.672 195.557C236.808 195.528 237.549 195.548 237.784 195.587Z" fill="#111111"/>
<path d="M12 219L162 219" stroke="#111111"/>
<path d="M12 62L162 62" stroke="#111111"/>
<path d="M216 220H360" stroke="#111111"/>
<circle cx="29" cy="32" r="17.5" fill="white" stroke="#111111"/>
<g clip-path="url(#clip1_181_46064)">
<path d="M33.4403 23.9346L36.4801 25.4535L28.5165 25.4516L20.5474 25.4498L23.6179 23.913C25.9993 22.7211 27.2364 22.1031 27.9012 21.7848C28.2314 21.6268 28.4038 21.5508 28.4997 21.5148C28.541 21.5319 28.5963 21.5558 28.6681 21.5882C28.8548 21.6723 29.1334 21.8041 29.5293 21.9962C30.3199 22.3799 31.5628 22.9965 33.4403 23.9346ZM19.0703 28.326C18.929 28.1076 18.8039 27.8852 18.7066 27.6845H28.5016H38.2965C38.1993 27.8852 38.0741 28.1076 37.9328 28.326C37.7979 28.5347 37.6584 28.7241 37.5319 28.871C37.3948 29.0301 37.3072 29.0987 37.2797 29.1136L37.2797 29.1136L37.2211 29.1454H28.5016H19.782L19.7235 29.1136L19.7234 29.1136C19.696 29.0987 19.6083 29.0301 19.4712 28.871C19.3447 28.7241 19.2052 28.5347 19.0703 28.326ZM22.3287 37.7997H20.9625V34.5878V31.3759H22.3287H23.6949V34.5878V37.7997H22.3287ZM28.5016 37.7997H27.1559V34.5878V31.3759H28.5016H29.8473V34.5878V37.7997H28.5016ZM34.6744 37.7997H33.3082V34.5878V31.3759H34.6744H36.0406V34.5878V37.7997H34.6744ZM18.5052 41.3822C18.5043 41.3792 18.5037 41.3766 18.5031 41.3743C18.5049 41.3672 18.5079 41.3563 18.5127 41.3413C18.527 41.2968 18.5509 41.2364 18.5855 41.1619C18.6545 41.0132 18.7536 40.8351 18.8656 40.6584C18.9776 40.4816 19.0955 40.3172 19.1987 40.1938C19.2436 40.1402 19.2817 40.099 19.312 40.0696C19.3722 40.0664 19.4585 40.0632 19.5783 40.0604C19.8629 40.0535 20.3153 40.0486 21.0077 40.0452C22.3913 40.0385 24.7196 40.0383 28.5494 40.0419L37.6792 40.0505C37.6811 40.0522 37.6831 40.054 37.6852 40.0561C37.6978 40.0681 37.7137 40.0843 37.7327 40.1052C37.7711 40.1474 37.8163 40.2024 37.8664 40.2688C37.9669 40.4016 38.0766 40.5659 38.1785 40.735C38.2807 40.9046 38.3696 41.0702 38.4311 41.205C38.4619 41.2727 38.4827 41.3258 38.4949 41.3633C38.4965 41.3684 38.4979 41.3728 38.499 41.3766C38.4986 41.3784 38.498 41.3803 38.4974 41.3823C38.4936 41.3951 38.4874 41.4097 38.4788 41.4242C38.4722 41.4352 38.4653 41.4443 38.4591 41.4512C38.4423 41.4529 38.4183 41.455 38.3852 41.4571C38.2175 41.4676 37.8978 41.4754 37.2558 41.4806C35.9794 41.491 33.4793 41.4911 28.5016 41.4911C23.5238 41.4911 21.0238 41.491 19.7473 41.4806C19.1053 41.4754 18.7856 41.4676 18.6179 41.4571C18.5849 41.455 18.561 41.4529 18.5442 41.4513C18.5378 41.4441 18.5307 41.4348 18.524 41.4236C18.5152 41.4089 18.5089 41.3944 18.5052 41.3822ZM19.2329 40.0752C19.2225 40.0771 19.2202 40.0768 19.2299 40.0756C19.2306 40.0755 19.2316 40.0754 19.2329 40.0752Z" stroke="#111111"/>
</g>
<g clip-path="url(#clip2_181_46064)">
<path d="M265.008 52.1873H288.504H312C311.747 52.8203 311.335 53.593 310.86 54.3289C310.537 54.8281 310.2 55.2864 309.89 55.6468C309.564 56.0257 309.318 56.2349 309.185 56.3076L309.184 56.3076L308.955 56.4322H288.504H268.052L267.823 56.3076L267.823 56.3076C267.689 56.2349 267.444 56.0257 267.117 55.6468C266.807 55.2864 266.47 54.8281 266.148 54.3289C265.672 53.593 265.261 52.8203 265.008 52.1873ZM266.798 81.1199C266.798 81.1198 266.802 81.119 266.812 81.1177C266.803 81.1194 266.799 81.12 266.798 81.1199ZM266.811 81.1803C266.845 81.1485 266.872 81.1257 266.892 81.1097C266.911 81.1082 266.934 81.1065 266.96 81.1049C267.108 81.0953 267.337 81.0863 267.673 81.0783C268.341 81.0622 269.4 81.0506 271.016 81.0427C274.246 81.027 279.68 81.0266 288.616 81.035L310.062 81.0553L310.133 81.1082C310.235 81.1839 310.429 81.3885 310.687 81.7303C310.932 82.0542 311.196 82.4501 311.44 82.8549C311.684 83.2604 311.9 83.6614 312.052 83.9943C312.128 84.1612 312.183 84.3006 312.218 84.4084C312.247 84.4979 312.253 84.5383 312.254 84.5417C312.248 84.7784 312.071 85.0539 311.9 85.1414C311.867 85.148 311.782 85.1602 311.592 85.1723C311.187 85.1978 310.43 85.2159 308.934 85.2281C305.953 85.2523 300.117 85.2526 288.504 85.2526C276.89 85.2526 271.054 85.2523 268.074 85.2281C266.578 85.2159 265.82 85.1978 265.416 85.1723C265.225 85.1602 265.141 85.148 265.107 85.1413C265.039 85.1065 264.945 85.0244 264.866 84.893C264.787 84.7617 264.754 84.6318 264.754 84.5412C264.754 84.5424 264.754 84.542 264.754 84.5398C264.755 84.5289 264.763 84.4726 264.8 84.358C264.84 84.2325 264.903 84.075 264.988 83.891C265.159 83.5236 265.399 83.0918 265.668 82.6679C265.936 82.244 266.222 81.8447 266.478 81.539C266.606 81.3858 266.718 81.2656 266.811 81.1803ZM308.889 47.8141L288.538 47.8093L268.18 47.8046L276.922 43.427C282.477 40.6457 285.368 39.2008 286.923 38.4558C287.707 38.0805 288.125 37.8956 288.367 37.8061C288.436 37.7804 288.482 37.766 288.511 37.7581C288.527 37.7639 288.547 37.7715 288.572 37.7813C288.682 37.8245 288.842 37.8929 289.063 37.9926C289.505 38.1915 290.159 38.5014 291.084 38.9502C292.931 39.8471 295.833 41.2875 300.214 43.4774L308.889 47.8141ZM274.1 76.6352H270.496V68.7199V60.8047H274.1H277.705V68.7199V76.6352H274.1ZM288.504 76.6352H284.947V68.7199V60.8047H288.504H292.06V68.7199V76.6352H288.504ZM302.907 76.6352H299.303V68.7199V60.8047H302.907H306.511V68.7199V76.6352H302.907Z" stroke="#111111" stroke-width="1.5"/>
</g>
<defs>
<clipPath id="clip0_181_46064">
<rect width="32" height="8" fill="white" transform="translate(13 183)"/>
</clipPath>
<clipPath id="clip1_181_46064">
<rect width="21" height="20.99" fill="white" transform="translate(18 21)"/>
</clipPath>
<clipPath id="clip2_181_46064">
<rect width="49" height="49" fill="white" transform="translate(264 37)"/>
</clipPath>
</defs>
</svg>
