<svg width="1237" height="407" viewBox="0 0 1237 407" fill="none" xmlns="http://www.w3.org/2000/svg">
<path opacity="0.03" d="M1226.17 278.341C1214.22 256.176 1208.62 234.721 1215.19 210.172C1222.16 184.305 1235.56 156.806 1231.39 129.451C1225.1 88.7549 1195.11 47.7162 1156.43 23.0745C1119.16 -0.632017 1073.82 -9.20589 1033.82 12.4198C1000.87 30.2523 980.133 67.735 940.175 73.0032C893.509 79.2195 874.611 47.2157 822.909 68.117C802.58 76.3353 785.112 91.2704 777.012 111.579C767.941 134.574 775.77 151.762 785.449 173.19C795.87 196.441 800.771 221.69 799.785 247.049C798.935 269.517 789.58 290.511 789.539 312.9C789.458 352.411 814.148 391.685 854.335 402.458C904.727 415.971 953.877 342.217 1009.32 337.305C1038.23 334.737 1053.47 357.455 1072.33 374.274C1094.93 394.438 1124.84 408.253 1155.93 406.91C1222.36 404.078 1255.72 333.13 1226.17 278.341Z" fill="#3E1BDB"/>
<path opacity="0.03" d="M194.766 403.415C194.766 403.415 268.138 423.101 320.872 370.212C373.607 317.322 382.547 269.525 391.595 194.92C400.644 120.316 365.223 50.0791 307.061 23.4261C248.899 -3.22688 228.301 49.5854 159.692 60.7338C91.0823 71.8821 69.284 62.4236 24.3677 116.585C-20.5485 170.747 -1.42906 237.715 65.7518 313.844C132.933 389.974 194.766 403.415 194.766 403.415Z" fill="#3E1BDB"/>
<path opacity="0.5" fill-rule="evenodd" clip-rule="evenodd" d="M96.1801 138.661C92.2002 138.384 87.9835 139.699 84.8799 142.185L83.9295 142.946L85.739 143.373L87.5484 143.8L88.3282 143.314C91.3355 141.44 95.768 140.917 98.9434 142.061C101.837 143.103 104.146 144.801 105.693 147.023L106.208 147.762L107.994 148.142L109.781 148.523L109.685 148.169C109.632 147.974 109.024 146.961 108.335 145.918C106.564 143.237 104.804 141.682 101.891 140.226C100.461 139.511 97.7606 138.771 96.1801 138.661ZM113.578 146.469L112.661 146.777L110.469 157.131L108.276 167.484L109.172 167.631L110.068 167.777L110.255 166.817C110.358 166.288 110.485 165.865 110.536 165.876C110.587 165.887 110.826 166.208 111.067 166.59C111.68 167.558 112.469 168.291 113.445 168.798C115.445 169.836 117.954 169.317 119.582 167.529C120.814 166.177 121.391 164.999 122.024 162.541C122.838 159.378 122.704 156.997 121.608 155.183C120.767 153.789 119.311 152.96 117.538 152.866C116.375 152.804 115.2 153.12 113.998 153.818C113.45 154.136 112.97 154.389 112.93 154.38C112.89 154.372 113.238 152.532 113.703 150.29C114.167 148.05 114.536 146.203 114.522 146.188C114.508 146.173 114.083 146.299 113.578 146.469ZM159.147 156.199L158.426 156.451L156.193 166.823L153.959 177.194L154.811 177.375L155.663 177.557L156.13 175.35L156.597 173.144L158.553 171.337C159.629 170.344 160.527 169.558 160.548 169.592C160.593 169.66 162.309 176.819 162.608 178.183L162.804 179.077L163.763 179.281L164.722 179.485L164.002 176.553C163.607 174.94 163.001 172.468 162.656 171.06C162.311 169.651 162.044 168.424 162.063 168.333C162.098 168.17 163.418 166.935 165.814 164.822L167.033 163.748L166.245 163.535C165.811 163.418 165.371 163.335 165.267 163.352C165.103 163.377 163.884 164.492 160.054 168.116C159.597 168.549 158.956 169.151 158.63 169.455C158.304 169.758 157.89 170.187 157.709 170.407C157.528 170.628 157.318 170.795 157.242 170.779C157.154 170.76 157.672 168.067 158.666 163.375C159.896 157.563 160.189 155.994 160.047 155.973C159.949 155.959 159.543 156.06 159.147 156.199ZM96.6095 144.336L94.9912 144.802L94.649 146.418L94.3068 148.034L92.915 147.78L91.5232 147.527L91.2379 148.874L90.9527 150.221L92.2854 150.579L93.6181 150.937L92.593 156.128C91.4388 161.974 91.4402 161.937 92.3049 163.299C93.116 164.576 95.0081 165.246 96.7626 164.878C97.3419 164.757 97.4514 164.666 97.7881 164.03C98.4838 162.714 98.7505 162.152 98.7091 162.088C98.6864 162.054 98.2551 162.1 97.7507 162.192C97.2223 162.289 96.5429 162.299 96.148 162.217C95.5765 162.098 95.4079 161.991 95.1341 161.569L94.8056 161.064L95.8433 156.348L96.881 151.631L98.3048 151.909C99.0879 152.062 99.8096 152.199 99.9084 152.213C100.039 152.232 100.169 151.856 100.388 150.822L100.689 149.403L99.0571 149.056L97.4257 148.709L97.9361 146.298C98.2169 144.972 98.3973 143.883 98.3371 143.879C98.277 143.874 97.4994 144.08 96.6095 144.336ZM76.4488 144.097C72.1879 143.865 68.8432 146.475 67.9428 150.733C67.5375 152.65 67.7067 154.461 68.4379 156.032C69.3728 158.041 70.9251 159.386 73.4157 160.347C74.6506 160.824 76.3944 160.902 77.7955 160.545C78.7874 160.292 80.4799 159.428 80.5361 159.145C80.5729 158.961 79.4657 156.845 79.2712 156.728C79.2037 156.687 78.9734 156.762 78.759 156.894C76.2743 158.425 72.902 157.551 71.545 155.024C70.6175 153.298 70.9223 150.604 72.227 148.999C72.8046 148.288 73.9458 147.559 74.8469 147.325C75.2121 147.231 75.9121 147.183 76.4026 147.219C77.9538 147.334 79.1584 147.992 80.2227 149.308C80.5021 149.653 80.7905 149.89 80.8635 149.834C82.3904 148.666 82.8353 148.296 82.8614 148.173C82.9031 147.976 82.0123 146.73 81.4158 146.152C80.2468 145.018 78.2591 144.196 76.4488 144.097ZM131.219 155.758C129.743 155.62 127.35 155.824 127.293 156.093C127.282 156.148 127.346 156.493 127.437 156.86C127.564 157.377 127.66 157.516 127.862 157.476C129.455 157.161 130.224 157.13 131.479 157.33C133.113 157.591 133.826 157.924 134.404 158.698C135.08 159.604 135.168 160.388 134.821 162.412C134.488 164.349 134.495 164.342 133.707 163.703C133.443 163.489 132.716 163.092 132.091 162.821C129.416 161.66 126.352 161.967 124.831 163.548C123.209 165.234 122.996 168.628 124.41 170.264C124.995 170.942 126.444 171.783 127.357 171.974C128.772 172.272 130.654 171.896 132.064 171.036C132.549 170.74 132.987 170.507 133.038 170.518C133.089 170.528 133.029 171.016 132.906 171.601L132.68 172.665L133.537 172.847L134.394 173.029L135.697 166.674C136.987 160.38 136.998 160.311 136.825 159.525C136.482 157.964 135.441 156.91 133.605 156.263C132.486 155.869 132.542 155.881 131.219 155.758ZM147.232 159.167C145.851 159.105 144.5 159.6 143.539 160.521C143.294 160.755 143.045 160.937 142.987 160.925C142.928 160.913 142.988 160.393 143.12 159.769L143.36 158.635L142.509 158.453L141.658 158.272L140.007 166.072L138.355 173.872L139.206 174.054L140.057 174.235L141.119 169.223C142.071 164.727 142.232 164.106 142.683 163.194C143.263 162.021 143.899 161.31 144.717 160.923C145.39 160.605 146.487 160.486 147.25 160.648C149.529 161.133 150.572 162.663 150.402 165.272C150.366 165.821 149.875 168.457 149.311 171.128L148.286 175.986L149.137 176.167L149.988 176.349L151.142 170.897C152.401 164.952 152.485 164.18 152.033 162.661C151.447 160.694 149.488 159.267 147.232 159.167ZM85.447 146.253C85.3809 146.296 84.586 149.83 83.6804 154.108L82.034 161.884L83.6666 162.232L85.2993 162.579L86.9216 154.736L88.544 146.892L87.0555 146.534C86.2369 146.337 85.5131 146.21 85.447 146.253ZM102.427 157.999L100.76 165.87L102.321 166.202L103.881 166.534L105.548 158.663L107.214 150.792L105.654 150.46L104.093 150.128L102.427 157.999ZM118.529 154.693C120.574 155.608 121.261 158.693 120.26 162.462C119.337 165.942 117.917 167.657 115.866 167.768C114.991 167.816 113.7 167.388 112.844 166.765C112.012 166.161 111.03 164.85 110.905 164.177C110.844 163.851 111.067 162.634 111.716 159.746L112.611 155.764L113.597 155.173C115.408 154.087 116.86 153.946 118.529 154.693ZM132.097 164.242C132.496 164.409 133.128 164.773 133.503 165.051L134.185 165.558L133.806 167.348L133.427 169.138L132.486 169.749C131.896 170.132 131.15 170.452 130.488 170.606C129.552 170.823 129.287 170.821 128.154 170.584C127.005 170.344 126.817 170.263 126.283 169.776C125.517 169.075 125.212 168.272 125.271 167.11C125.38 164.96 126.55 163.611 128.419 163.479C129.1 163.431 131.205 163.867 132.097 164.242Z" fill="#8A86B2"/>
<path opacity="0.5" fill-rule="evenodd" clip-rule="evenodd" d="M267.224 136.878C267.227 136.94 270.721 140.041 275.324 144.068C276.665 145.24 279.592 147.812 281.83 149.783L285.899 153.368L293.497 145.062C302.284 135.456 302.597 135.111 302.626 135.006C302.641 134.954 296.681 135.246 284.934 135.872C275.192 136.392 267.222 136.844 267.224 136.878ZM264.794 139.316C263.73 140.467 261.334 143.055 259.471 145.068C257.607 147.081 254.7 150.225 253.01 152.056L249.938 155.385L253.718 158.682C255.797 160.495 257.683 162.135 257.91 162.326C258.137 162.517 260.025 164.158 262.106 165.973C264.187 167.787 266.49 169.789 267.225 170.421L268.561 171.571L268.124 162.985C267.883 158.263 267.471 150.535 267.208 145.812L266.73 137.223L264.794 139.316ZM304.284 152.564L305.208 169.884L305.487 169.584C305.641 169.42 307.29 167.632 309.152 165.611C311.014 163.59 312.539 161.937 312.539 161.937C312.622 161.904 321.958 151.673 321.954 151.618C321.95 151.574 321.046 150.749 319.945 149.787C318.843 148.824 314.869 145.338 311.112 142.04C307.356 138.742 304.075 135.863 303.822 135.644L303.361 135.244L304.284 152.564ZM277.437 162.677C272.842 167.704 269.085 171.843 269.088 171.875C269.094 171.947 304.508 170.064 304.505 169.991C304.501 169.918 285.894 153.503 285.837 153.522C285.812 153.53 282.032 157.65 277.437 162.677ZM279.495 178.72C277.834 179.153 276.669 180.068 276.064 181.415C275.364 182.973 275.728 184.877 276.951 186.062C277.513 186.607 278.669 187.296 281.65 188.862C282.029 189.061 282.41 189.264 282.497 189.312C282.583 189.36 282.909 189.538 283.22 189.706C284.362 190.327 284.923 190.946 285.198 191.886C285.305 192.254 285.313 192.4 285.246 192.737C284.997 193.981 284.274 194.704 282.925 195.058C281.569 195.414 279.823 195.103 278.803 194.324C278.326 193.96 277.767 193.257 277.48 192.658C277.35 192.39 277.215 192.119 277.179 192.057C277.142 191.995 277.031 191.659 276.931 191.31C276.75 190.678 276.75 190.676 276.514 190.712L276.277 190.748L276.408 193.59L276.539 196.432L276.735 196.469C276.978 196.515 277.093 196.441 277.082 196.245C277.073 196.069 277.204 195.786 277.365 195.635C277.512 195.497 278.282 195.501 278.862 195.644C280.468 196.038 281.454 196.177 282.357 196.134C283.838 196.063 285.061 195.552 286.099 194.569C286.448 194.239 287.086 193.342 287.078 193.194C287.077 193.166 287.12 193.031 287.174 192.893C287.303 192.568 287.465 191.591 287.447 191.251C287.404 190.442 286.894 189.243 286.299 188.551C285.843 188.019 284.608 187.18 283.699 186.784C283.525 186.708 283.364 186.626 283.341 186.603C283.318 186.58 282.955 186.413 282.533 186.232C282.112 186.052 281.403 185.715 280.958 185.484C280.513 185.253 280.075 185.026 279.986 184.98C279.897 184.934 279.805 184.877 279.783 184.854C279.76 184.831 279.558 184.704 279.335 184.571C278.697 184.19 278.235 183.736 277.946 183.203C277.706 182.76 277.68 182.656 277.688 182.154C277.7 181.324 278.058 180.693 278.808 180.182C280.179 179.248 282.398 179.531 283.79 180.816C284.23 181.223 284.457 181.541 284.926 182.413C284.988 182.529 285.242 183.355 285.383 183.902C285.45 184.159 285.496 184.21 285.677 184.221L285.892 184.234L285.735 181.289L285.578 178.345L285.349 178.357C285.156 178.368 285.113 178.408 285.078 178.614C285.056 178.748 284.945 178.963 284.833 179.092C284.545 179.423 284.194 179.422 283.219 179.089C282.465 178.831 282.182 178.759 281.459 178.641C281.142 178.588 279.789 178.643 279.495 178.72ZM313.574 176.897C313.489 176.921 313.227 176.989 312.992 177.048C312.348 177.212 311.614 177.494 311.101 177.776C310.634 178.033 310.14 178.349 310.073 178.433C310.053 178.459 309.949 178.541 309.842 178.616C309.286 179.007 308.351 180.069 307.885 180.84C307.295 181.817 306.648 183.604 306.678 184.173C306.685 184.299 306.658 184.438 306.618 184.481C306.51 184.6 306.56 186.797 306.687 187.497C306.885 188.596 307.318 189.817 307.747 190.492C308.032 190.94 308.428 191.511 308.482 191.552C308.509 191.572 308.679 191.752 308.861 191.952C310.495 193.748 312.591 194.541 315.294 194.383C316.022 194.341 316.225 194.312 316.857 194.162C317.444 194.023 318.751 193.489 318.745 193.391C318.744 193.358 318.789 193.329 318.846 193.326C318.903 193.323 319.196 193.133 319.498 192.905C320.193 192.377 321.058 191.432 321.413 190.814C321.486 190.687 321.563 190.565 321.585 190.543C321.667 190.458 322.02 189.822 322.017 189.764C322.012 189.663 321.671 189.51 321.623 189.588C321.403 189.944 320.651 190.884 320.237 191.319C318.852 192.779 318.173 193.092 316.176 193.195C314.907 193.26 314.161 193.186 313.583 192.938C312.971 192.676 312.806 192.595 312.431 192.378C312.208 192.249 311.884 192.023 311.711 191.877C311.339 191.562 310.652 190.74 310.506 190.435C310.476 190.373 310.379 190.186 310.291 190.02C310.202 189.854 310.058 189.478 309.971 189.184C309.884 188.89 309.765 188.512 309.707 188.345C309.562 187.928 309.365 184.204 309.465 183.781C309.506 183.608 309.584 183.203 309.637 182.881C309.851 181.596 310.5 180.111 311.185 179.34C311.749 178.705 312.213 178.38 313 178.07C313.58 177.841 313.713 177.819 314.919 177.754C316.347 177.678 316.672 177.728 317.659 178.181C318.171 178.416 319.442 179.501 319.68 179.906C319.752 180.028 319.829 180.143 319.853 180.164C319.944 180.242 320.443 181.206 320.645 181.696C320.84 182.166 320.876 182.209 321.058 182.178L321.256 182.144L321.189 181.372C321.151 180.948 321.082 180.463 321.035 180.294C320.987 180.126 320.932 179.71 320.911 179.37C320.873 178.748 320.696 177.414 320.571 176.809C320.514 176.534 320.475 176.485 320.322 176.493C320.183 176.5 320.122 176.57 320.06 176.793C319.974 177.104 319.919 177.199 319.639 177.506C319.377 177.795 319.038 177.778 318.183 177.434C316.785 176.871 316.263 176.775 314.83 176.819C314.225 176.838 313.66 176.873 313.574 176.897ZM255.938 180.364C255.886 180.389 255.846 180.471 255.85 180.546C255.856 180.659 255.946 180.687 256.35 180.699C256.947 180.717 257.675 180.934 257.949 181.176C258.06 181.274 258.199 181.487 258.258 181.65C258.336 181.866 258.46 183.725 258.714 188.489C259.073 195.222 259.077 195.487 258.809 196.05C258.668 196.345 258.281 196.498 257.472 196.58L256.709 196.657L256.72 196.872C256.726 196.99 256.776 197.099 256.831 197.114C256.914 197.137 263.775 196.764 263.982 196.725C264.017 196.718 264.029 196.618 264.009 196.502C263.974 196.294 263.962 196.29 263.303 196.278C262.447 196.261 262.024 196.078 261.723 195.596C261.571 195.352 261.546 195.102 261.361 192.066L261.163 188.8L265.099 188.59L269.035 188.38L269.184 191.649L269.332 194.919L269.155 195.273C268.898 195.788 268.589 195.958 267.74 196.05L267.036 196.127L267.048 196.358L267.06 196.59L270.618 196.403C272.575 196.3 274.211 196.192 274.254 196.162C274.297 196.133 274.316 196.026 274.296 195.925C274.262 195.75 274.228 195.742 273.5 195.744C272.795 195.745 272.716 195.729 272.425 195.521C271.805 195.08 271.851 195.436 271.451 188.033C271.131 182.095 271.106 181.395 271.205 181.036C271.366 180.448 271.684 180.142 272.339 179.947C272.638 179.858 272.966 179.787 273.067 179.79C273.407 179.8 273.459 179.771 273.424 179.594L273.39 179.422L269.778 179.614L266.166 179.807L266.15 179.982C266.136 180.138 266.168 180.156 266.437 180.141C267.175 180.102 268.107 180.438 268.432 180.861C268.586 181.061 268.607 181.26 268.789 184.263L268.983 187.452L265.049 187.662L261.114 187.872L260.975 184.796C260.849 182.002 260.848 181.691 260.965 181.404C261.202 180.821 261.733 180.488 262.619 180.367C263.12 180.299 263.165 180.278 263.135 180.131C263.103 179.97 263.095 179.97 259.569 180.145C257.625 180.241 255.991 180.34 255.938 180.364ZM288.639 178.62C288.611 178.651 288.591 178.74 288.595 178.818C288.601 178.927 288.663 178.956 288.868 178.945C289.014 178.938 289.386 178.973 289.695 179.025C290.131 179.098 290.323 179.176 290.55 179.371C290.715 179.513 290.847 179.699 290.853 179.797C290.858 179.893 290.908 180.013 290.965 180.063C291.122 180.202 291.816 193.33 291.683 193.657C291.407 194.339 291.341 194.434 291.014 194.626C290.739 194.789 290.552 194.835 290.057 194.861L289.443 194.894L289.481 195.144L289.519 195.394L293.602 195.176C299.203 194.878 300.511 194.738 301.432 194.337C301.799 194.177 302.631 193.694 302.787 193.55C303.538 192.856 303.984 192.193 304.268 191.35C304.458 190.787 304.373 189.192 304.124 188.643C303.718 187.747 303.053 187.123 302.072 186.716C301.319 186.404 301.011 186.305 300.733 186.287C300.446 186.267 300.441 186.113 300.724 186.041C301.597 185.82 303.065 184.343 303.031 183.719C303.027 183.639 303.066 183.528 303.117 183.472C303.182 183.4 303.192 183.044 303.15 182.256C303.108 181.468 303.061 181.116 302.988 181.051C302.931 181.001 302.881 180.906 302.878 180.84C302.874 180.774 302.782 180.567 302.673 180.381C302.184 179.544 301.362 178.969 300.114 178.59C299.195 178.31 298.429 178.206 297.225 178.197C295.921 178.188 288.71 178.543 288.639 178.62ZM296.938 179.024C298.783 179.238 300.155 180.223 300.527 181.601C300.937 183.114 300.384 184.553 299.141 185.213C298.332 185.642 298.048 185.723 296.533 185.949C296.069 186.018 294.472 185.993 294.033 185.91L293.854 185.877L293.682 182.644L293.51 179.411L293.878 179.304C294.744 179.05 296.096 178.927 296.938 179.024ZM297.482 186.825C297.871 186.866 298.383 186.945 298.62 186.999C300.62 187.458 301.817 189.14 301.53 191.085C301.26 192.911 299.544 194.011 296.815 194.104C295.978 194.133 294.518 194.054 294.366 193.973C294.312 193.944 294.22 192.741 294.1 190.494L293.917 187.061L294.209 186.998C294.37 186.963 294.554 186.921 294.618 186.904C294.965 186.812 296.872 186.759 297.482 186.825Z" fill="#8A86B2"/>
<path opacity="0.5" d="M204.311 302.446L199.887 302.86C200.412 302.296 200.397 300.444 200.295 297.108L200.274 296.339L200.076 291.982C199.995 291.115 199.839 290.564 199.559 290.383L204.503 289.921C205.699 289.809 208.047 289.64 208.271 292.04C208.424 293.673 206.995 294.784 205.633 295.272C207.625 295.241 209.183 296.073 209.369 298.063C209.62 300.2 207.702 302.13 204.319 302.446L204.311 302.446ZM203.6 296.441L202.716 296.524L202.732 298.376L202.842 300.683C202.851 300.785 203.24 301.006 204.071 300.929C205.841 300.763 206.905 299.789 206.771 298.359C206.674 296.773 205.213 296.301 203.6 296.452L203.6 296.441ZM203.507 291.52C203.247 291.545 202.935 291.574 202.627 291.653C202.552 292.534 202.577 293.356 202.615 294.329L202.631 295.049L202.943 295.02C204.556 294.869 205.961 294.172 205.827 292.743C205.801 291.922 205.017 291.378 203.508 291.519L203.507 291.52ZM220.141 301.082C219.047 301.184 218.941 301.144 217.835 298.311L217.423 297.268C216.926 297.572 215.999 297.761 214.541 297.898L213.022 298.04L212.814 298.625C212.606 299.211 212.091 300.443 212.158 301.157C212.171 301.346 212.206 301.533 212.262 301.714L209.243 301.996C210 301.102 210.958 299.005 212.173 295.71L212.886 293.79L214.194 289.807C214.17 289.552 214.1 289.353 213.971 289.106L216.729 288.849L218.54 293.619L219.242 295.509C220.49 298.739 221.26 300.26 222.047 300.806L220.132 301.088L220.141 301.082ZM215.28 291.866L213.603 296.397L216.934 296.086L215.28 291.866ZM232.142 300.378C231.204 300.465 230.982 300.332 230.632 299.953L226.593 295.49C226.295 295.118 226.01 294.876 225.594 294.915L225.543 294.919L225.583 295.894L225.713 298.969C225.79 299.786 225.942 300.287 226.221 300.465L222.776 300.787C223.26 300.341 223.281 298.886 223.236 295.031L223.215 294.261L223.017 289.905C222.936 289.038 222.779 288.486 222.5 288.306L227.132 287.873C228.692 287.727 230.746 287.793 230.971 290.19C231.157 292.179 229.903 293.377 228.285 294.044C228.527 294.25 228.758 294.47 228.976 294.701L231.836 297.78C233.645 299.721 233.758 299.805 234.355 300.015C233.626 300.184 232.886 300.305 232.141 300.377L232.142 300.378ZM226.497 289.426C226.185 289.456 225.82 289.49 225.513 289.568C225.456 290.089 225.491 291.011 225.525 292.501L225.555 293.373C225.716 293.408 225.965 293.385 226.132 293.369C227.692 293.223 228.696 292.152 228.567 290.774C228.426 289.809 227.695 289.312 226.499 289.424L226.497 289.426ZM238.841 299.476C235.562 299.782 233.441 297.305 233.169 294.395C232.788 290.322 234.776 286.884 239.096 286.48C240.45 286.354 241.098 286.55 242.243 286.443L242.227 289.636C241.498 288.572 240.389 287.954 239.036 288.081C236.33 288.334 235.503 291.294 235.732 293.742C235.98 296.395 237.679 297.729 239.657 297.544C240.752 297.441 241.716 297.094 243.224 295.821C242.728 297.823 241.339 299.239 238.84 299.473L238.841 299.476ZM261.101 297.238C260.007 297.34 259.951 297.295 258.795 294.467L258.382 293.424C257.885 293.728 256.959 293.917 255.501 294.054L253.941 294.2L253.733 294.785C253.404 295.639 253.015 296.654 253.077 297.317C253.091 297.47 253.161 297.67 253.18 297.874L244.229 298.711C244.697 298.101 244.681 296.249 244.636 292.959L244.616 292.19L244.418 287.833C244.342 287.017 244.185 286.465 243.953 286.229L247.441 285.903C246.953 286.31 246.983 288.314 247.086 291.65L247.106 292.42L247.189 296.117C247.242 296.678 247.464 296.813 248.089 296.755C250.223 296.555 250.686 296.462 251.618 295.755C252.142 294.624 252.643 293.241 253.19 291.801L253.903 289.88L255.211 285.898C255.187 285.642 255.117 285.443 254.988 285.197L257.735 284.94L259.547 289.711L260.249 291.601C261.496 294.831 262.226 296.356 263.106 296.893C262.441 297.043 261.769 297.157 261.091 297.235L261.101 297.238ZM256.239 288.013L254.615 292.539L257.894 292.233L256.239 288.013ZM268.368 289.71L267.636 291.425C267.514 292.364 267.576 293.592 267.7 294.919C267.752 295.481 267.928 296.237 268.213 296.467L264.768 296.789C265.339 296.169 265.229 292.731 265.124 291.608C264.513 290.122 263.743 288.649 262.636 286.901C261.907 285.837 261.131 284.837 260.642 284.668L262.862 284.358C263.695 284.28 263.965 284.358 264.589 285.432L266.75 289.45L268.65 285.721C268.778 285.401 268.948 284.972 268.915 284.614C268.891 284.359 268.807 284.007 268.692 283.914L272.076 283.598C271.361 283.819 268.871 288.633 268.342 289.711L268.368 289.71ZM279.529 285.835C278.922 284.964 277.711 284.357 276.462 284.474C275.367 284.576 274.469 285.061 274.575 286.194C274.666 287.163 275.919 287.663 277.245 288.363C278.675 289.053 280.175 289.943 280.342 291.728C280.556 294.024 278.405 295.716 275.699 295.969C274.605 296.071 273.451 295.974 272.098 295.636L272.02 292.556C272.759 293.722 273.994 294.575 275.712 294.415C277.013 294.293 277.997 293.584 277.892 292.461C277.806 291.542 276.969 291.004 275.926 290.534C273.73 289.504 272.338 288.665 272.17 286.87C271.922 284.218 274.07 283.142 276.473 282.917C277.827 282.79 278.726 282.964 279.567 282.885L279.529 285.835Z" fill="#8A86B2"/>
<path opacity="0.5" d="M193.513 288.685C193.176 288.075 192.646 287.393 191.763 286.928C191.367 286.69 190.879 286.461 190.4 286.324C190.021 286.259 189.643 286.211 189.18 286.255L189.079 286.264C188.524 286.316 187.516 286.51 187.036 287.37C186.784 287.668 186.743 288.221 186.877 288.665C187.013 289.018 187.315 289.356 187.693 289.413C187.777 289.468 187.879 289.491 187.979 289.477C187.989 289.576 187.903 289.759 187.903 289.759C187.651 290.057 187.232 290.553 185.844 290.683L185.742 290.692C184.993 290.662 184.422 290.541 183.513 289.802C182.999 289.301 182.629 288.33 182.485 286.788C182.409 285.972 182.248 285.347 182.022 284.828C181.886 284.474 181.491 284.146 181.197 283.99C180.904 283.834 180.709 283.761 180.23 283.622L178.64 283.588C178.085 283.639 177.725 283.773 177.564 284.054L177.009 284.106C176.731 284.132 176.369 284.266 176.093 284.292C175.547 284.443 175.202 284.741 174.857 285.048C174.765 285.157 174.437 285.546 174.378 285.917C174.404 286.189 174.531 286.452 174.539 286.543L174.65 286.633C174.818 286.434 175.18 286.309 175.642 286.266C176.29 286.205 177.239 286.391 177.467 286.826C177.998 287.508 177.864 288.07 177.923 288.705C177.806 290.454 177.235 291.331 175.864 291.643C175.596 291.768 175.318 291.794 175.134 291.811C174.117 291.906 173.351 291.703 172.921 291.103L172.904 290.921C172.904 290.921 173.006 290.912 173.081 290.805C173.433 290.588 173.687 290.29 173.744 289.919C173.803 289.456 173.659 289.012 173.348 288.675C172.741 288.183 171.968 287.89 171.135 287.967C170.58 288.019 170.219 288.153 169.857 288.27C168.772 288.646 167.84 289.648 167.236 291.169C166.782 292.309 166.531 293.613 166.575 295.073C166.618 296.533 166.719 297.713 166.922 298.791C167.193 300.595 167.657 301.65 168.228 302.777C168.799 303.904 169.453 304.95 170.195 305.89C170.406 306.145 170.524 306.408 170.726 306.572L170.818 306.463C170.91 306.354 170.986 306.264 171.062 306.074C171.406 305.768 171.969 304.8 172.129 304.512C172.289 304.223 172.524 303.743 172.667 303.272L172.751 303.081L172.946 303.163C173.148 303.327 173.266 303.591 173.291 303.862C173.317 304.133 173.241 304.416 173.116 304.977C172.99 305.63 172.688 306.389 172.385 307.149C172.496 307.239 172.512 307.412 172.411 307.421C172.176 307.901 172.193 308.083 172.21 308.264L172.311 308.254C172.412 308.245 172.765 308.111 173.017 307.822C173.277 307.615 173.958 306.911 174.764 305.555C175.419 304.579 175.789 303.538 176.242 302.398L176.326 302.206L176.521 302.288C176.632 302.378 176.716 302.37 176.816 302.444C176.934 302.617 176.959 302.889 176.985 303.16C176.951 303.895 176.591 304.935 176.381 305.686C175.944 307.008 175.054 308.464 174.407 309.53C174.392 309.596 174.362 309.657 174.318 309.709C174.274 309.761 174.218 309.802 174.155 309.828C174.265 309.918 174.357 309.993 174.55 310.066L174.853 310.312C175.901 311.019 177.02 311.619 178.193 312.104C179.169 312.562 181.105 313.295 182.432 313.537C183.702 313.144 185.459 311.974 186.333 311.343C187.395 310.649 188.384 309.852 189.283 308.963L189.535 308.665C189.711 308.548 189.787 308.367 189.879 308.358C189.964 308.167 189.955 308.077 189.947 307.986L189.836 307.896C189.012 307.059 187.858 305.703 187.184 304.485C186.838 303.786 186.283 302.831 186.122 302.114C185.995 301.852 186.071 301.57 186.156 301.38L186.324 301.181C186.416 301.072 186.592 301.055 186.592 301.055L186.711 301.228C187.368 302.264 188.016 303.21 188.748 304.056C189.792 305.239 190.591 305.805 190.886 305.961C191.189 306.207 191.475 306.271 191.659 306.254L191.76 306.245C191.853 306.136 191.735 305.972 191.415 305.545C191.304 305.456 191.297 305.373 191.288 305.283C190.851 304.592 190.413 303.902 190.168 303.283C189.932 302.756 189.806 302.402 189.789 302.221C189.763 301.948 189.839 301.667 189.999 301.469L190.175 301.353L190.293 301.525C190.521 301.962 190.942 302.47 191.151 302.725C191.361 302.98 192.178 303.728 192.389 303.982C192.592 304.147 192.692 304.229 192.701 304.319L192.811 304.409C192.903 304.3 192.971 304.119 193.122 303.739L193.214 303.63C193.684 302.671 194.129 301.44 194.481 300.218C194.842 299.086 195.009 297.881 195.025 296.059C195.025 294.961 194.999 293.774 194.678 292.341C194.652 290.97 194.146 289.645 193.59 288.692L193.513 288.685Z" fill="url(#paint0_radial_1:901)"/>
<path d="M921.475 164.002L920.105 165.994C920.112 166 920.112 166 920.119 166.005L921.489 164.013C921.482 164.007 921.477 164.008 921.475 164.002Z" fill="#8A86B2"/>
<path d="M967.128 165.618L965.762 164.555L967.128 165.618Z" fill="#8A86B2"/>
<path d="M964.249 163.437L965.762 164.615L964.249 163.437Z" fill="#8A86B2"/>
<path d="M963.875 166.631L961.818 164.958C957.235 170.408 950.899 174.151 943.471 175.137C936.049 176.123 928.731 174.193 922.511 170.185L921.112 172.317C927.864 176.746 935.839 178.882 943.933 177.807C952.028 176.732 958.927 172.62 963.875 166.631Z" fill="#8A86B2"/>
<path d="M919.533 164.519L920.896 162.512C916.808 158.339 913.843 152.871 912.732 146.684C910.017 131.557 919.39 117.759 933.634 115.932C939.457 115.185 945.202 116.556 950.152 119.469L951.516 117.462C946.048 114.16 939.663 112.588 933.188 113.419C917.644 115.413 907.409 130.472 910.373 146.986C911.603 153.872 914.941 159.934 919.533 164.519Z" fill="#8A86B2"/>
<path d="M931.249 102.361C921.126 103.659 912.676 109.049 907.051 116.768C906.58 117.414 906.131 118.082 905.697 118.761L907.689 120.324L909.949 122.097C905.541 129.114 903.659 138.006 905.327 147.297C907.153 157.473 912.88 166.127 920.541 171.738L921.895 169.746C921.895 169.746 921.895 169.746 921.888 169.74L923.4 167.516C929.311 171.802 936.563 173.957 943.925 173.012C959.469 171.018 969.704 155.959 966.74 139.445C965.336 131.624 961.218 124.858 955.618 120.114C955.617 120.108 955.611 120.108 955.61 120.102L955.603 120.097L957.139 117.837L958.493 115.844C957.852 115.303 957.191 114.79 956.522 114.298C949.533 109.192 940.94 106.612 932.213 107.731C923.486 108.851 916.185 113.47 911.302 120.098L909.042 118.325C914.317 111.113 922.227 106.082 931.699 104.867C951.488 102.328 970.653 117.369 974.426 138.388C976.232 148.452 974.18 158.078 969.391 165.671L967.166 163.926C971.557 156.911 973.429 148.033 971.765 138.762C970.258 130.369 966.095 123.012 960.389 117.542L959.025 119.548C964.229 124.613 968.018 131.37 969.401 139.071C971.102 148.55 968.823 157.589 963.827 164.361L968.044 167.669C962.769 174.882 954.859 179.913 945.387 181.128C925.604 183.665 906.433 168.625 902.66 147.606C901.016 138.448 902.563 129.644 906.468 122.415L904.468 120.846C900.221 128.589 898.527 138.06 900.295 147.91C904.317 170.317 924.748 186.346 945.838 183.64C955.961 182.342 964.411 176.952 970.036 169.232C970.507 168.587 970.956 167.919 971.39 167.24C976.523 159.14 978.728 148.845 976.798 138.09C972.776 115.683 952.345 99.6544 931.249 102.361ZM932.665 110.25C940.742 109.214 948.692 111.588 955.169 116.296L953.633 118.556L952.279 120.549C952.966 121.039 953.627 121.558 954.271 122.112C959.357 126.453 963.102 132.624 964.382 139.754C967.097 154.88 957.724 168.678 943.481 170.505C936.77 171.366 930.16 169.418 924.762 165.529C924.081 165.038 923.413 164.519 922.769 163.966L921.415 165.958L919.903 168.183C913.757 162.988 909.232 155.574 907.692 146.993C904.453 128.914 915.654 112.432 932.665 110.25Z" fill="#8A86B2"/>
<path fill-rule="evenodd" clip-rule="evenodd" d="M937.566 128.999C935.038 129.612 933.173 130.715 931.199 132.763C930.424 133.568 929.951 134.153 929.489 134.88C928.576 136.315 928.003 137.744 927.681 139.389L927.555 140.028L925.465 140.346L923.374 140.663L923.607 142.199L923.84 143.736L925.568 143.488L927.296 143.241L927.556 144.719C927.699 145.531 927.843 146.248 927.876 146.311L927.936 146.426L926.134 146.7L924.331 146.973L924.585 148.645L924.839 150.317L927.076 149.978L929.314 149.638L929.616 150.186C930.005 150.891 930.815 151.989 931.406 152.614C931.895 153.131 932.879 153.971 933.405 154.32C935.652 155.813 938.196 156.573 940.947 156.573C941.928 156.574 944.019 156.242 945.066 155.92C947.999 155.02 950.173 153.458 951.682 151.167C951.897 150.84 952.087 150.539 952.104 150.498C952.124 150.45 951.529 149.907 950.437 148.975L948.739 147.527L948.324 148.037C947.544 148.999 946.304 150.197 945.567 150.703C945.136 150.998 944.571 151.281 943.952 151.511C943.473 151.689 943.223 151.744 942.161 151.906C940.781 152.116 940.369 152.117 939.336 151.912C937.713 151.59 936.251 150.661 935.063 149.194L934.834 148.911L939.47 148.208L944.106 147.505L943.852 145.833L943.598 144.162L938.448 144.929L933.297 145.696L933.22 145.487C933.178 145.372 933.034 144.668 932.902 143.921L932.661 142.565L937.888 141.772L943.116 140.979L942.862 139.307L942.608 137.635L937.838 138.359C935.214 138.757 933.065 139.068 933.062 139.05C933.047 138.949 933.583 137.74 933.862 137.245C934.594 135.948 935.839 134.747 937.11 134.115C937.908 133.719 938.495 133.549 939.665 133.374C940.887 133.192 941.823 133.162 942.609 133.279C943.615 133.429 944.949 134.047 946.355 135.015L947.232 135.618L948.409 133.673C949.387 132.056 949.574 131.712 949.515 131.638C949.406 131.498 947.847 130.437 947.361 130.171C946.686 129.801 945.736 129.406 944.956 129.17C943.042 128.591 941.253 128.474 938.997 128.779C938.347 128.867 937.703 128.966 937.566 128.999Z" fill="#8A86B2"/>
<path d="M929.674 266.381C908.353 263.414 887.863 279.07 884.002 301.291C880.141 323.505 894.349 343.996 915.67 346.963C936.991 349.93 957.482 334.268 961.342 312.054C965.204 289.833 951.001 269.349 929.674 266.381ZM931.73 268.705C949.917 272.502 962.005 289.927 959.872 309.26C959.768 310.219 958.897 310.928 957.985 310.801C957.152 310.686 956.581 309.918 956.676 309.049C958.635 291.366 947.578 275.427 930.94 271.963C930.123 271.791 929.603 270.985 929.754 270.117C929.913 269.166 930.822 268.52 931.73 268.705ZM895.811 302.934C898.494 287.5 912.729 276.619 927.543 278.681C942.357 280.742 952.227 294.977 949.545 310.412C946.862 325.847 932.627 336.727 917.813 334.666C902.993 332.604 893.129 318.369 895.811 302.934ZM896.966 325.139C896.19 325.732 895.122 325.538 894.654 324.72C890.952 318.28 889.405 310.408 890.824 302.247C892.224 294.187 896.282 287.179 901.886 282.067C902.61 281.408 903.702 281.508 904.24 282.284C904.713 282.966 904.589 283.929 903.953 284.509C898.904 289.114 895.247 295.432 893.985 302.693C892.706 310.049 894.102 317.142 897.442 322.941C897.853 323.653 897.65 324.611 896.966 325.139ZM940.983 329.214C946.242 324.579 950.067 318.123 951.363 310.665C952.643 303.303 951.243 296.197 947.892 290.39C947.477 289.664 947.681 288.706 948.364 288.178C949.14 287.585 950.208 287.779 950.677 288.597C954.389 295.045 955.946 302.932 954.525 311.105C953.087 319.38 948.846 326.545 943.006 331.696C942.277 332.34 941.2 332.229 940.667 331.461C940.197 330.766 940.329 329.791 940.983 329.214ZM947.639 284.216C948.236 284.935 948.083 286.069 947.308 286.655C946.626 287.177 945.688 287.091 945.157 286.453C940.921 281.334 934.921 277.761 927.867 276.779C920.71 275.783 913.682 277.621 907.866 281.452C907.141 281.928 906.212 281.76 905.733 281.071C905.201 280.302 905.431 279.192 906.239 278.662C912.696 274.408 920.493 272.372 928.441 273.478C936.272 274.574 942.939 278.539 947.639 284.216ZM926.495 268.009C927.427 268.061 928.085 268.931 927.918 269.894C927.769 270.75 927.012 271.378 926.179 271.333C909.306 270.335 893.583 282.462 889.472 299.703C889.267 300.557 888.464 301.133 887.63 301.017C886.712 300.889 886.129 299.978 886.355 299.036C890.853 280.181 908.048 266.928 926.495 268.009ZM913.201 344.543C895.37 340.595 883.53 323.503 885.44 304.483C885.539 303.517 886.406 302.794 887.331 302.922C888.158 303.037 888.73 303.792 888.642 304.656C886.895 322.057 897.726 337.685 914.027 341.29C914.837 341.468 915.345 342.272 915.196 343.134C915.022 344.096 914.106 344.747 913.201 344.543ZM897.691 329.101C897.094 328.382 897.246 327.255 898.022 326.662C898.704 326.14 899.642 326.225 900.172 326.87C904.406 332.002 910.417 335.583 917.483 336.567C924.452 337.537 931.296 335.822 937.027 332.194C937.748 331.736 938.659 331.908 939.132 332.591C939.67 333.366 939.431 334.488 938.606 335.009C932.251 339.037 924.652 340.939 916.916 339.862C909.059 338.769 902.388 334.797 897.691 329.101ZM918.413 345.301C917.49 345.237 916.843 344.369 917.008 343.418C917.159 342.55 917.928 341.924 918.765 341.982C935.67 343.193 951.509 331.185 955.785 314C955.994 313.153 956.796 312.589 957.623 312.704C958.547 312.833 959.135 313.752 958.895 314.705C954.215 333.496 936.9 346.615 918.413 345.301Z" fill="#8A86B2"/>
<path fill-rule="evenodd" clip-rule="evenodd" d="M926.194 293.075C926.147 293.077 925.877 293.073 925.594 293.067C922.339 292.993 919.157 294.883 917.636 297.793C916.735 299.518 916.456 301.361 916.804 303.296L916.92 303.945L914.969 303.642L913.019 303.338L912.678 305.529L912.337 307.72L915.275 308.177L918.214 308.634L918.138 309.113C917.935 310.405 917.114 311.638 915.935 312.422C915.407 312.773 915.07 312.929 914.497 313.086C913.208 313.44 912.847 313.558 912.308 313.803C911.986 313.95 911.516 314.197 911.264 314.352C910.828 314.621 909.438 315.675 909.427 315.745C909.424 315.763 910.052 316.552 910.822 317.498L912.222 319.218L912.719 318.825C913.74 318.016 914.298 317.71 915.055 317.545C916.238 317.286 917.542 317.515 918.523 318.155C918.703 318.272 919.105 318.612 919.417 318.912C920.642 320.085 921.869 320.805 923.406 321.251C926.361 322.11 929.594 321.388 931.867 319.36C932.28 318.991 933.268 317.992 933.277 317.933C933.28 317.912 932.624 317.278 931.819 316.526C931.014 315.773 930.284 315.086 930.198 315L930.04 314.843L929.52 315.379C928.562 316.368 928.025 316.733 927.147 316.988C926.405 317.203 926.022 317.224 925.182 317.092C924.058 316.916 923.349 316.539 922.455 315.642C922.196 315.382 921.68 314.954 921.309 314.691L920.633 314.213L921.019 313.682C921.779 312.634 922.292 311.452 922.545 310.163L922.708 309.333L925.638 309.789L928.568 310.245L928.909 308.054L929.25 305.863L925.706 305.312L922.161 304.76L922.065 304.619C922.012 304.541 921.869 304.261 921.747 303.997C921.166 302.733 921.038 301.665 921.344 300.637C921.77 299.207 922.826 298.138 924.242 297.705C924.923 297.497 925.332 297.457 926.049 297.528C927.804 297.703 929.271 298.883 929.801 300.546C929.974 301.09 930.01 301.156 930.121 301.14C930.356 301.107 931.889 300.879 933.161 300.687L934.434 300.496L934.375 300.175C934.005 298.188 932.714 296.167 930.965 294.838C930.194 294.253 929.118 293.721 928.106 293.426C927.591 293.276 926.448 293.066 926.194 293.075Z" fill="#8A86B2"/>
<path d="M1122.28 212.048C1138.72 218.198 1157.72 209.858 1166.03 193.358C1167.1 193.366 1168.16 192.688 1168.61 191.583C1169.05 190.502 1168.78 189.349 1168.02 188.651C1174.22 170.84 1166.15 151.794 1149.4 145.528C1140.98 142.379 1131.88 143.04 1123.89 146.643C1123.66 146.402 1123.37 146.211 1123.03 146.086C1121.71 145.593 1120.18 146.321 1119.61 147.72C1119.43 148.158 1119.38 148.609 1119.42 149.048C1112.92 153.131 1107.51 159.303 1104.36 167.032C1103.15 170.011 1102.32 173.094 1101.9 176.215C1101.59 176.399 1101.33 176.68 1101.18 177.041C1100.84 177.869 1101.2 178.78 1101.99 179.073C1102.77 179.367 1103.68 178.932 1104.02 178.103C1104.27 177.484 1104.14 176.824 1103.73 176.401C1104.13 173.437 1104.91 170.498 1106.07 167.67C1109.04 160.391 1114.13 154.564 1120.25 150.7C1120.46 150.883 1120.7 151.041 1120.97 151.143C1122.29 151.636 1123.82 150.908 1124.39 149.509C1124.55 149.131 1124.61 148.738 1124.6 148.361C1132.14 144.977 1140.72 144.365 1148.66 147.336C1164.47 153.249 1172.1 171.205 1166.31 188.023C1165.27 188.056 1164.26 188.731 1163.82 189.8C1163.4 190.845 1163.63 191.971 1164.33 192.676C1156.45 208.214 1138.53 216.056 1123 210.25C1118.07 208.404 1113.71 205.271 1110.4 201.19C1110.7 200.376 1110.34 199.494 1109.58 199.207C1108.79 198.914 1107.88 199.349 1107.54 200.177C1107.21 201.006 1107.57 201.917 1108.35 202.21C1108.58 202.297 1108.83 202.312 1109.06 202.282L1108.9 202.422C1112.41 206.753 1117.03 210.087 1122.28 212.048ZM1121.47 149.93C1120.77 149.67 1120.45 148.866 1120.75 148.133C1121.05 147.4 1121.86 147.016 1122.55 147.275C1123.24 147.534 1123.56 148.339 1123.26 149.072C1122.96 149.805 1122.16 150.189 1121.47 149.93ZM1164.96 190.219C1165.26 189.486 1166.07 189.102 1166.76 189.361C1167.45 189.621 1167.77 190.426 1167.47 191.158C1167.17 191.891 1166.37 192.275 1165.68 192.016C1164.98 191.757 1164.66 190.952 1164.96 190.219Z" fill="#8A86B2"/>
<path d="M1171.99 192.318C1174.74 185.568 1175.65 178.605 1174.98 172.008C1175.14 171.851 1175.26 171.662 1175.35 171.44C1175.69 170.6 1175.32 169.674 1174.53 169.377C1173.73 169.08 1172.81 169.522 1172.46 170.362C1172.13 171.178 1172.47 172.073 1173.23 172.396L1173.15 172.431C1173.77 178.691 1172.89 185.285 1170.28 191.681C1166.38 201.246 1159.32 208.647 1150.95 213.017C1150.71 212.769 1150.42 212.57 1150.08 212.442C1148.76 211.95 1147.23 212.676 1146.66 214.075C1146.53 214.387 1146.47 214.71 1146.45 215.022C1138.32 218.065 1129.32 218.372 1120.93 215.236C1112.45 212.065 1106.01 205.9 1102.19 198.263C1102.45 198 1102.66 197.69 1102.8 197.329C1103.37 195.937 1102.77 194.404 1101.44 193.91C1101.07 193.769 1100.68 193.736 1100.3 193.781C1097.36 185.212 1097.46 175.325 1101.31 165.887C1108.92 147.219 1128.55 136.784 1146.55 141.087C1146.66 141.98 1147.22 142.769 1148.09 143.095C1149.06 143.459 1150.14 143.156 1150.87 142.421C1156.03 144.391 1160.44 147.469 1163.93 151.314C1163.93 151.32 1163.93 151.32 1163.93 151.326C1163.58 152.167 1163.95 153.093 1164.75 153.39C1165.54 153.687 1166.47 153.245 1166.81 152.405C1167.15 151.565 1166.79 150.639 1165.99 150.342C1165.85 150.291 1165.71 150.266 1165.57 150.261C1161.87 146.112 1157.2 142.78 1151.69 140.664C1151.8 139.53 1151.21 138.452 1150.14 138.053C1148.98 137.62 1147.66 138.135 1146.97 139.21C1128.11 134.76 1107.56 145.704 1099.59 165.254C1095.54 175.202 1095.45 185.633 1098.59 194.656C1098.36 194.907 1098.16 195.206 1098.02 195.548C1097.45 196.94 1098.06 198.473 1099.38 198.968C1099.73 199.099 1100.1 199.141 1100.46 199.103C1104.46 207.175 1111.25 213.694 1120.19 217.04C1129.01 220.34 1138.48 220.007 1147.03 216.795C1147.29 217.098 1147.61 217.35 1148.01 217.498C1149.33 217.991 1150.86 217.264 1151.43 215.866C1151.58 215.494 1151.64 215.11 1151.63 214.739C1160.45 210.153 1167.88 202.381 1171.99 192.318ZM1149.66 139.247C1150.35 139.506 1150.67 140.31 1150.37 141.042C1150.07 141.774 1149.27 142.158 1148.57 141.899C1147.88 141.64 1147.56 140.836 1147.86 140.104C1148.16 139.372 1148.96 138.988 1149.66 139.247ZM1099.87 197.762C1099.18 197.503 1098.86 196.699 1099.16 195.967C1099.46 195.234 1100.26 194.851 1100.95 195.11C1101.65 195.369 1101.97 196.173 1101.67 196.905C1101.37 197.637 1100.57 198.021 1099.87 197.762ZM1148.51 216.294C1147.81 216.035 1147.49 215.231 1147.79 214.499C1148.09 213.767 1148.89 213.383 1149.59 213.642C1150.28 213.901 1150.6 214.705 1150.3 215.438C1150 216.17 1149.19 216.551 1148.51 216.294Z" fill="#8A86B2"/>
<path d="M1106.99 187.526C1107.14 187.581 1107.29 187.616 1107.44 187.637C1109.51 196.387 1115.49 203.798 1124.27 207.082C1128.41 208.63 1132.77 209.14 1137.23 208.604C1137.39 208.778 1137.57 208.916 1137.8 209.001C1138.58 209.295 1139.49 208.86 1139.83 208.032C1140.17 207.203 1139.81 206.293 1139.02 206C1138.32 205.739 1137.54 206.052 1137.13 206.71C1132.95 207.21 1128.88 206.731 1125.01 205.283C1116.84 202.229 1111.26 195.362 1109.29 187.237C1109.78 186.927 1110.18 186.471 1110.42 185.889C1110.99 184.496 1110.38 182.962 1109.06 182.467C1108.9 182.406 1108.73 182.364 1108.56 182.337C1108.3 178.096 1108.98 173.672 1110.73 169.374C1116.69 154.751 1132.8 147.062 1146.64 152.236C1151.63 154.103 1155.65 157.398 1158.48 161.526C1158.34 161.711 1158.22 161.909 1158.13 162.125C1157.57 163.518 1158.17 165.051 1159.49 165.546C1159.91 165.703 1160.36 165.724 1160.78 165.647C1163.76 172.352 1164.06 180.446 1160.92 188.135C1159.41 191.839 1157.25 195.146 1154.48 197.987C1153.76 197.848 1152.99 198.265 1152.68 199.015C1152.35 199.844 1152.71 200.754 1153.49 201.047C1154.28 201.34 1155.19 200.906 1155.52 200.077C1155.61 199.855 1155.65 199.62 1155.65 199.404C1158.65 196.348 1160.99 192.777 1162.62 188.779C1165.98 180.536 1165.66 171.858 1162.44 164.683C1162.63 164.456 1162.79 164.205 1162.91 163.917C1163.48 162.524 1162.87 160.991 1161.55 160.496C1161.06 160.313 1160.54 160.299 1160.05 160.421C1157.03 155.978 1152.72 152.436 1147.37 150.433C1132.59 144.909 1115.39 153.115 1109.02 168.735C1107.12 173.393 1106.41 178.189 1106.72 182.776C1106.26 183.086 1105.87 183.536 1105.64 184.095C1105.06 185.497 1105.67 187.033 1106.99 187.526ZM1108.56 183.672C1109.26 183.931 1109.58 184.736 1109.28 185.468C1108.98 186.2 1108.17 186.584 1107.48 186.325C1106.79 186.066 1106.47 185.262 1106.77 184.529C1107.07 183.797 1107.87 183.413 1108.56 183.672ZM1161.05 161.706C1161.74 161.965 1162.06 162.77 1161.76 163.502C1161.46 164.235 1160.66 164.619 1159.97 164.359C1159.27 164.1 1158.95 163.296 1159.25 162.563C1159.55 161.831 1160.35 161.447 1161.05 161.706Z" fill="#8A86B2"/>
<path fill-rule="evenodd" clip-rule="evenodd" d="M1140.23 163.593C1140.08 163.589 1139.94 163.582 1139.93 163.579C1139.92 163.575 1139.84 163.649 1139.74 163.743C1139.62 163.864 1139.47 164.165 1139.24 164.76C1139.05 165.226 1138.8 165.822 1138.66 166.086C1138.45 166.526 1138.41 166.572 1138.17 166.655C1138.03 166.704 1137.57 166.738 1137.15 166.731C1135.51 166.702 1134.5 166.863 1133.36 167.338C1131.67 168.036 1130.51 169.263 1129.78 171.117C1129.12 172.821 1129.17 174.166 1129.95 175.87C1130.62 177.325 1131.54 178.44 1133.69 180.429C1135.53 182.129 1135.96 182.629 1136.33 183.486C1136.74 184.452 1136.56 185.395 1135.82 186.059C1134.85 186.925 1132.91 186.826 1131.05 185.816C1129.71 185.085 1128.58 184.226 1127.43 183.064C1126.84 182.472 1126.74 182.399 1126.5 182.424C1126.27 182.448 1125.98 182.74 1125.09 183.88C1124 185.261 1123.83 185.537 1123.84 185.851C1123.87 186.565 1125.39 187.944 1127.7 189.35C1128.15 189.625 1128.57 189.904 1128.64 189.972C1128.86 190.191 1128.82 190.39 1128.33 191.762C1127.65 193.658 1127.6 193.562 1129.67 194.369C1131.76 195.184 1131.63 195.237 1132.47 193.209C1132.88 192.224 1133.1 191.762 1133.19 191.692C1133.42 191.515 1133.81 191.461 1134.52 191.51C1136.78 191.669 1138.79 191.025 1140.33 189.655C1142.66 187.59 1143.28 184.422 1141.93 181.498C1141.33 180.199 1140.48 179.192 1138.24 177.083C1136.66 175.602 1136.07 174.922 1135.72 174.171C1135.14 172.942 1135.73 171.795 1137.07 171.523C1137.8 171.376 1138.32 171.468 1139.56 171.962C1141.06 172.56 1142.01 173.166 1143.21 174.309C1143.54 174.625 1143.91 174.921 1144.03 174.966C1144.44 175.126 1144.65 174.935 1146.11 173.049C1146.96 171.951 1147.03 171.798 1146.81 171.355C1146.58 170.894 1145.25 169.775 1144.11 169.079C1143.03 168.423 1142.79 168.235 1142.72 167.999C1142.66 167.803 1142.69 167.671 1143.05 166.653C1143.5 165.393 1143.53 165.108 1143.25 164.806C1143.02 164.568 1140.63 163.605 1140.23 163.593Z" fill="#8A86B2"/>
<path d="M486.218 263.006L486.218 263.005C486.941 260.237 486.46 257.373 485.121 254.994C483.781 252.615 481.567 250.696 478.799 249.832L461.489 244.428C458.718 243.562 455.893 243.913 453.581 245.174C451.27 246.434 449.47 248.606 448.745 251.377C448.022 254.145 448.503 257.009 449.843 259.388L449.843 259.389C451.184 261.766 453.395 263.686 456.164 264.55L473.474 269.954C476.245 270.82 479.068 270.47 481.382 269.208C483.694 267.948 485.492 265.774 486.218 263.006ZM472.44 274.187L455.129 268.782C451.199 267.555 448.04 264.831 446.118 261.421C444.198 258.011 443.528 253.93 444.555 249.999C445.582 246.07 448.115 243.009 451.369 241.235C454.623 239.461 458.603 238.97 462.531 240.196L479.842 245.601C483.77 246.827 486.93 249.55 488.851 252.962C490.771 256.373 491.441 260.454 490.414 264.385C489.387 268.313 486.853 271.373 483.599 273.147C480.345 274.921 476.365 275.412 472.44 274.187Z" stroke="#8A86B2" stroke-width="2"/>
<path d="M537.703 273.922L537.703 273.921C538.145 271.086 537.381 268.276 535.81 266.036C534.239 263.795 531.846 262.107 529.012 261.528L511.288 257.909C508.451 257.33 505.686 257.968 503.522 259.458C501.358 260.948 499.79 263.293 499.348 266.13C498.907 268.966 499.671 271.776 501.241 274.016L501.242 274.016C502.814 276.255 505.204 277.944 508.04 278.523L525.764 282.143C528.6 282.722 531.364 282.085 533.529 280.594C535.694 279.103 537.26 276.756 537.703 273.922ZM525.134 286.464L507.41 282.844C503.387 282.023 499.982 279.631 497.736 276.431C495.493 273.231 494.42 269.234 495.047 265.21C495.673 261.187 497.883 257.873 500.94 255.767C503.997 253.662 507.903 252.766 511.925 253.588L529.649 257.207C533.67 258.028 537.076 260.419 539.321 263.621C541.565 266.821 542.638 270.819 542.011 274.843C541.385 278.865 539.174 282.178 536.117 284.284C533.059 286.389 529.154 287.285 525.134 286.464Z" stroke="#8A86B2" stroke-width="2"/>
<path d="M641.27 280.248L641.27 280.247C641.225 277.365 640 274.709 638.074 272.754C636.148 270.798 633.509 269.534 630.628 269.443L612.619 268.879C609.737 268.788 607.136 269.89 605.269 271.727C603.403 273.564 602.259 276.147 602.304 279.029C602.35 281.911 603.575 284.567 605.501 286.522L605.501 286.523C607.428 288.476 610.065 289.742 612.947 289.832L630.956 290.397C633.838 290.487 636.437 289.387 638.305 287.548C640.173 285.711 641.314 283.127 641.27 280.248ZM631.029 294.779L613.02 294.214C608.933 294.086 605.193 292.3 602.454 289.522C599.718 286.743 597.991 282.976 597.927 278.888C597.863 274.8 599.474 271.138 602.125 268.529C604.777 265.919 608.465 264.367 612.553 264.495L630.562 265.06C634.647 265.188 638.388 266.973 641.126 269.753C643.863 272.532 645.59 276.3 645.654 280.388C645.718 284.475 644.106 288.136 641.454 290.746C638.802 293.355 635.114 294.907 631.029 294.779Z" stroke="#8A86B2" stroke-width="2"/>
<path d="M694.351 270.813L694.351 270.812C693.781 267.973 692.096 265.567 689.849 263.98C687.601 262.393 684.782 261.621 681.943 262.053L664.206 264.751C661.368 265.183 659.026 266.74 657.536 268.887C656.047 271.034 655.398 273.787 655.967 276.625C656.536 279.464 658.222 281.87 660.469 283.458L660.47 283.458C662.718 285.043 665.535 285.817 668.374 285.385L686.112 282.687C688.95 282.255 691.29 280.699 692.781 278.55C694.271 276.403 694.918 273.649 694.351 270.813ZM686.954 287.006L669.216 289.704C665.191 290.316 661.207 289.228 658.025 286.983C654.844 284.737 652.469 281.332 651.661 277.306C650.853 273.279 651.763 269.367 653.887 266.305C656.012 263.243 659.345 261.042 663.372 260.429L681.109 257.731C685.132 257.119 689.116 258.206 692.299 260.453C695.479 262.7 697.855 266.104 698.663 270.13C699.471 274.157 698.56 278.068 696.435 281.131C694.31 284.193 690.977 286.394 686.954 287.006Z" stroke="#8A86B2" stroke-width="2"/>
<path d="M743.689 255.275L743.689 255.275C742.839 252.499 740.925 250.263 738.532 248.899C736.14 247.534 733.262 247.041 730.487 247.75L713.144 252.177C710.37 252.886 708.201 254.668 706.938 256.954C705.674 259.239 705.305 262.047 706.154 264.822C707.004 267.598 708.918 269.834 711.31 271.198L711.311 271.198C713.704 272.56 716.58 273.056 719.356 272.347L736.699 267.919C739.473 267.211 741.64 265.43 742.905 263.143C744.169 260.857 744.536 258.048 743.689 255.275ZM737.958 272.146L720.615 276.574C716.68 277.579 712.617 276.883 709.234 274.957C705.853 273.029 703.154 269.867 701.95 265.931C700.745 261.994 701.256 258.001 703.06 254.738C704.864 251.474 707.955 248.952 711.892 247.947L729.235 243.519C733.167 242.515 737.231 243.209 740.614 245.138C743.995 247.065 746.695 250.227 747.899 254.164C749.104 258.101 748.591 262.092 746.787 265.356C744.983 268.62 741.892 271.142 737.958 272.146Z" stroke="#8A86B2" stroke-width="2"/>
<path d="M790.934 235.684L790.933 235.684C789.593 233.092 787.307 231.221 784.711 230.296C782.116 229.371 779.204 229.391 776.613 230.581L760.423 238.013C757.833 239.202 756.034 241.344 755.214 243.824C754.394 246.303 754.545 249.141 755.885 251.731C757.225 254.322 759.512 256.193 762.107 257.118L762.108 257.119C764.703 258.041 767.614 258.023 770.205 256.834L786.395 249.402C788.985 248.213 790.783 246.072 791.604 243.591C792.425 241.111 792.271 238.273 790.934 235.684ZM788.399 253.355L772.209 260.788C768.535 262.474 764.426 262.504 760.759 261.199C757.093 259.891 753.869 257.246 751.968 253.571C750.067 249.896 749.837 245.862 751.009 242.32C752.181 238.778 754.749 235.742 758.425 234.054L774.615 226.622C778.287 224.937 782.396 224.905 786.065 226.213C789.731 227.52 792.955 230.166 794.856 233.841C796.757 237.516 796.984 241.549 795.813 245.091C794.641 248.633 792.072 251.669 788.399 253.355Z" stroke="#8A86B2" stroke-width="2"/>
<path d="M589.644 280.032L589.644 280.031C589.899 277.168 588.955 274.408 587.242 272.27C585.529 270.132 583.033 268.602 580.17 268.21L562.275 265.762C559.411 265.37 556.7 266.191 554.644 267.821C552.587 269.45 551.178 271.895 550.922 274.76C550.667 277.623 551.611 280.383 553.324 282.52L553.325 282.521C555.039 284.657 557.533 286.189 560.396 286.58L578.291 289.028C581.155 289.42 583.864 288.601 585.922 286.97C587.979 285.34 589.387 282.893 589.644 280.032ZM577.929 293.386L560.034 290.938C555.972 290.382 552.427 288.217 549.983 285.17C547.541 282.123 546.213 278.201 546.575 274.139C546.937 270.077 548.924 266.616 551.836 264.309C554.747 262.001 558.583 260.848 562.645 261.404L580.54 263.852C584.599 264.407 588.146 266.571 590.589 269.621C593.031 272.668 594.36 276.59 593.997 280.652C593.635 284.714 591.647 288.173 588.735 290.481C585.823 292.789 581.988 293.942 577.929 293.386Z" stroke="#8A86B2" stroke-width="2"/>
<path d="M589.644 280.032L589.644 280.031C589.899 277.168 588.955 274.408 587.242 272.27C585.529 270.132 583.033 268.602 580.17 268.21L562.275 265.762C559.411 265.37 556.7 266.191 554.644 267.821C552.587 269.45 551.178 271.895 550.922 274.759C550.667 277.623 551.611 280.383 553.324 282.52L553.325 282.521C555.039 284.657 557.533 286.189 560.396 286.58L578.291 289.028C581.155 289.42 583.864 288.601 585.922 286.97C587.979 285.34 589.387 282.893 589.644 280.032ZM577.929 293.386L560.034 290.938C555.972 290.382 552.427 288.217 549.983 285.17C547.541 282.123 546.213 278.201 546.575 274.139C546.937 270.077 548.924 266.616 551.836 264.309C554.747 262.001 558.583 260.848 562.645 261.404L580.54 263.852C584.599 264.407 588.146 266.571 590.589 269.621C593.031 272.668 594.36 276.59 593.997 280.652C593.635 284.714 591.647 288.173 588.735 290.481C585.823 292.789 581.988 293.942 577.929 293.386Z" stroke="#8A86B2" stroke-width="2"/>
<path d="M433.379 247.888L433.38 247.887C434.392 245.221 434.215 242.334 433.133 239.831C432.052 237.33 430.052 235.188 427.386 234.029L410.707 226.781C408.038 225.62 405.181 225.656 402.738 226.658C400.294 227.659 398.271 229.623 397.257 232.292C396.244 234.958 396.419 237.846 397.502 240.349L397.502 240.35C398.585 242.85 400.584 244.99 403.25 246.148L419.928 253.397C422.598 254.557 425.455 254.521 427.898 253.52C430.341 252.519 432.365 250.555 433.379 247.888ZM418.476 257.494L401.797 250.245C398.009 248.599 395.146 245.551 393.59 241.952C392.034 238.354 391.799 234.228 393.235 230.441C394.671 226.657 397.516 223.901 400.939 222.498C404.363 221.095 408.376 221.041 412.161 222.686L428.84 229.934C432.628 231.58 435.493 234.628 437.049 238.227C438.604 241.825 438.84 245.951 437.403 249.738C435.966 253.522 433.12 256.277 429.696 257.68C426.273 259.082 422.257 259.137 418.476 257.494Z" stroke="#8A86B2" stroke-width="2"/>
<path d="M452.243 255.498C451.824 256.603 450.609 257.101 449.504 256.621L430.279 248.266C429.141 247.771 428.562 246.431 428.994 245.293C429.413 244.189 430.628 243.691 431.733 244.171L450.958 252.526C452.096 253.02 452.675 254.36 452.243 255.498Z" stroke="#8A86B2" stroke-width="2"/>
<path d="M504.333 267.41C504.105 268.583 502.978 269.295 501.805 269.008L481.531 264.052C480.339 263.761 479.557 262.551 479.789 261.359C480.018 260.186 481.145 259.474 482.318 259.761L502.592 264.717C503.784 265.008 504.566 266.218 504.333 267.41Z" stroke="#8A86B2" stroke-width="2"/>
<path d="M556.51 275.735C556.379 276.93 555.311 277.741 554.116 277.553L533.541 274.313C532.335 274.123 531.462 272.988 531.594 271.783C531.725 270.589 532.794 269.777 533.988 269.965L554.564 273.205C555.769 273.395 556.642 274.53 556.51 275.735Z" stroke="#8A86B2" stroke-width="2"/>
<path d="M606.75 280.872C606.665 282.074 605.627 282.929 604.426 282.788L583.758 280.352C582.549 280.21 581.636 279.112 581.722 277.903C581.806 276.702 582.845 275.846 584.046 275.987L604.713 278.423C605.922 278.565 606.835 279.663 606.75 280.872Z" stroke="#8A86B2" stroke-width="2"/>
<path d="M660.454 278.839C660.536 280.05 659.62 281.052 658.409 281.077L637.67 281.506C636.462 281.531 635.419 280.574 635.337 279.367C635.255 278.156 636.17 277.153 637.381 277.128L658.121 276.699C659.329 276.674 660.372 277.631 660.454 278.839Z" stroke="#8A86B2" stroke-width="2"/>
<path d="M712.83 265.661C713.119 266.85 712.387 268.005 711.198 268.235L690.914 272.165C689.737 272.393 688.558 271.628 688.272 270.452C687.984 269.263 688.716 268.108 689.905 267.878L710.188 263.948C711.365 263.72 712.544 264.485 712.83 265.661Z" stroke="#8A86B2" stroke-width="2"/>
<path d="M759.466 250.658C759.83 251.829 759.173 253.03 758.002 253.335L738.038 258.529C736.88 258.83 735.659 258.141 735.299 256.984C734.934 255.813 735.591 254.611 736.762 254.306L756.727 249.112C757.884 248.811 759.106 249.5 759.466 250.658Z" stroke="#8A86B2" stroke-width="2"/>
<path d="M807.973 225.801C808.623 226.851 808.298 228.182 807.248 228.766L789.341 238.721C788.303 239.298 786.949 238.927 786.306 237.889C785.656 236.838 785.981 235.508 787.032 234.924L804.939 224.969C805.977 224.392 807.33 224.763 807.973 225.801Z" stroke="#8A86B2" stroke-width="2"/>
<path d="M405.708 234.281C405.289 235.385 404.073 235.883 402.969 235.403L383.744 227.048C382.606 226.553 382.026 225.213 382.459 224.075C382.878 222.971 384.093 222.473 385.198 222.953L404.423 231.308C405.561 231.803 406.14 233.142 405.708 234.281Z" stroke="#8A86B2" stroke-width="2"/>
<defs>
<radialGradient id="paint0_radial_1:901" cx="0" cy="0" r="1" gradientUnits="userSpaceOnUse" gradientTransform="translate(166.857 289.964) rotate(-5.34053) scale(31.382 30.7667)">
<stop stop-color="#20C4F4"/>
<stop offset="0.305" stop-color="#09B4F0"/>
<stop offset="0.5" stop-color="#00AEEF"/>
<stop offset="0.8" stop-color="#0092C8"/>
<stop offset="1" stop-color="#1A1466"/>
</radialGradient>
</defs>
</svg>
