<svg width="293" height="334" viewBox="0 0 293 334" fill="none" xmlns="http://www.w3.org/2000/svg">
<path d="M128.144 2.50952L128.368 1.53475L128.144 2.50952ZM128.144 2.50952C125.791 1.97077 121.02 1.49193 116.205 1.22406C111.385 0.955896 106.69 0.908655 104.483 1.19084C92.4699 2.72701 80.9672 7.04342 70.9463 13.7756C68.2068 15.6162 64.2703 19.1007 60.5265 22.8609C56.7828 26.621 53.3133 30.5749 51.4805 33.3267C46.1672 41.3052 42.5473 49.6849 40.1916 59.476L40.1916 59.476C39.1383 63.8528 38.9912 66.5515 38.754 88.5165L38.4922 112.78L38.4815 113.77H37.4922H31.2229C27.5148 113.77 23.6958 114.132 21.7648 114.638C12.0181 117.188 4.50823 124.75 1.95274 134.604L0.984765 134.353L1.95273 134.604C1.93414 134.676 1.89984 134.887 1.86101 135.295C1.82426 135.681 1.78792 136.189 1.75236 136.817C1.68131 138.071 1.61494 139.773 1.5535 141.861C1.43065 146.037 1.32816 151.736 1.24612 158.455C1.08206 171.891 1 189.386 1 206.884C1 224.381 1.08206 241.877 1.24612 255.313C1.32816 262.031 1.43065 267.731 1.5535 271.906C1.61494 273.995 1.68131 275.696 1.75236 276.95C1.78792 277.578 1.82426 278.087 1.86101 278.473C1.89984 278.88 1.93414 279.092 1.95274 279.164C4.50822 289.017 12.0181 296.58 21.7648 299.13C22.4046 299.297 23.576 299.451 26.2592 299.572C28.9192 299.693 32.9928 299.781 39.3853 299.844C52.1666 299.97 74.1675 299.998 112.555 299.998C117.577 299.998 122.321 299.999 126.805 299.999C165.373 300.004 184.626 300.006 194.929 299.625C200.691 299.412 203.566 299.081 205.428 298.593C206.863 298.217 207.686 297.759 208.875 297.096C209.202 296.913 209.558 296.715 209.962 296.499L210.434 297.38L209.962 296.499C216.415 293.045 222.025 285.318 223.419 277.936C223.451 277.767 223.495 277.226 223.539 276.221C223.581 275.252 223.621 273.923 223.658 272.241C223.732 268.876 223.794 264.117 223.845 258.037C223.946 245.877 223.999 228.444 223.999 206.339C223.999 203.666 224 201.093 224 198.615C224.002 166.47 224.003 150.435 223.637 141.714C223.44 137.013 223.139 134.513 222.698 132.787C222.327 131.332 221.859 130.417 221.185 129.1C221.07 128.876 220.949 128.64 220.822 128.388L221.663 127.964L220.822 128.388C219.837 126.435 218.115 124.179 216.113 122.13C214.112 120.08 211.895 118.303 209.962 117.269L210.434 116.387L209.962 117.269C205.178 114.707 200.96 113.77 193.887 113.77H187.618H186.629L186.618 112.78L186.356 88.5165C186.119 66.5515 185.972 63.8528 184.919 59.476C181.329 44.5561 175.103 33.3202 164.631 22.8354C153.885 12.0763 142.684 5.83892 128.144 2.50952ZM162.335 113.77H163.335V112.77V91.1138C163.335 84.5877 163.272 78.8219 163.161 74.4245C163.051 70.0731 162.893 66.9624 162.684 65.8278C160.235 52.5252 151.592 39.6665 139.99 32.0341C135.553 29.1152 128.358 26.1793 122.734 24.9817L122.525 25.9597L122.733 24.9817C120.247 24.4521 116.273 24.204 112.377 24.2109C108.483 24.2179 104.531 24.48 102.091 25.0192L102.091 25.0192C85.3735 28.7137 71.2852 40.6443 65.2885 56.2217C63.6596 60.453 62.769 63.135 62.3021 67.7918C61.8417 72.3835 61.7907 78.9156 61.7852 90.8581L61.7752 112.769L61.7747 113.77H62.7752H112.555H162.335Z" stroke="#111111" stroke-width="2"/>
<path d="M128.141 214.845H96.3846L80.5078 186.923L96.3846 159H128.141L144.018 186.923L128.141 214.845ZM97.1357 213.526H127.39L142.518 186.923L127.39 160.319H97.1357L82.0074 186.923L97.1357 213.526Z" fill="#111111"/>
<path d="M117.965 188.096C117.749 188.122 117.362 188.307 117.185 188.629C117.053 188.869 117.131 189.183 117.367 189.32C117.445 189.365 117.531 189.386 117.614 189.386C117.783 189.386 117.944 189.299 118.035 189.135C118.051 189.12 118.098 189.09 118.09 189.088C118.36 189.054 118.552 188.803 118.519 188.528C118.482 188.257 118.235 188.061 117.965 188.096Z" fill="#FFDE3B"/>
<path d="M107.381 186.816C107.378 186.764 107.381 186.706 107.399 186.647C107.381 186.703 107.376 186.761 107.381 186.816Z" fill="#FFDE3B"/>
<path d="M107.381 186.816C107.378 186.764 107.381 186.706 107.399 186.647C107.381 186.703 107.376 186.761 107.381 186.816Z" fill="#FFDE3B"/>
<path d="M107.384 186.84C107.384 186.832 107.379 186.824 107.379 186.815C107.379 186.824 107.382 186.832 107.384 186.84Z" fill="#FFDE3B"/>
<path d="M107.384 186.84C107.384 186.832 107.379 186.824 107.379 186.815C107.379 186.824 107.382 186.832 107.384 186.84Z" fill="#FFDE3B"/>
<path d="M132.58 195.79C131.574 195.725 130.841 195.028 130.641 194.817C130.378 194.54 129.583 193.363 128.944 192.418C128.439 191.674 128.005 191.03 127.79 190.756C127.392 190.252 126.683 188.07 126.532 187.294C126.503 187.149 126.49 186.977 126.488 186.795C127.239 186.529 128.645 186.473 128.998 186.539C129.276 186.589 129.549 186.771 129.975 187.191C130.326 187.534 130.623 187.645 130.89 187.645C131.085 187.645 131.264 187.587 131.439 187.518C131.719 187.407 131.977 187.096 132.151 186.84C132.491 186.808 132.813 186.613 133.094 186.407C133.557 186.064 133.609 185.502 133.25 184.737C133.177 184.581 133.086 184.373 132.985 184.146C132.876 183.895 132.754 183.623 132.634 183.362C132.39 182.835 132.158 182.436 131.813 182.201C131.743 182.154 131.532 181.961 131.366 181.808C131.246 181.7 131.119 181.584 130.997 181.473C131.031 181.378 131.057 181.283 131.064 181.185C131.083 180.935 131.005 180.705 130.838 180.526C130.703 180.378 130.451 180.209 130.017 180.222C129.791 180.23 129.539 180.296 129.289 180.399C128.642 180.22 127.577 180.222 127.213 180.238C126.971 180.251 126.579 180.262 126.158 180.275C125.503 180.296 124.759 180.32 124.39 180.349C123.837 180.394 123.148 180.373 122.883 180.341C122.665 180.315 122.436 180.262 122.197 180.204C121.768 180.103 121.279 179.985 120.715 180.003C119.85 180.024 118.998 180.557 118.59 180.813L118.501 180.869C118.337 180.966 117.527 181.09 116.627 181.069C115.458 181.04 112.212 180.819 111.279 180.716C111.032 180.689 110.673 180.615 110.26 180.531C109.142 180.301 107.614 179.99 106.198 180.133C104.566 180.296 102.962 180.731 101.437 181.428L101.086 181.592C99.9657 182.112 98.4272 182.824 96.821 182.703C95.454 182.597 93.1436 181.866 93.1436 179.776C93.1436 178.66 94.4118 178.085 94.955 178.085C95.8075 178.085 96.5741 178.771 96.6417 178.961C96.6417 179.32 96.5689 179.557 96.5118 179.747C96.4312 180.014 96.309 180.417 96.6755 180.766C96.9692 181.043 97.6007 181.188 98.1465 180.945C98.5961 180.747 99.1289 180.243 99.1289 178.961C99.1289 176.652 96.6495 175.578 94.9732 175.578C93.2423 175.578 90.7344 177.074 90.7344 179.776C90.7344 182.51 92.5224 184.539 95.3968 185.072C97.4292 185.449 98.791 185.262 99.7708 184.914C99.4901 185.808 99.0717 187.07 98.7182 187.861C98.1205 189.196 96.6209 191.078 96.3844 191.265C96.322 191.307 96.2493 191.352 96.1713 191.397C95.8257 191.606 95.3968 191.864 95.2591 192.305C95.1707 192.592 94.1312 195.178 93.7517 196.104C93.4009 196.962 93.7465 197.44 94.0246 197.825C94.087 197.912 94.1572 198.004 94.2221 198.11C94.5522 198.643 95.1681 198.862 95.6957 198.862C95.9218 198.862 96.1349 198.82 96.3013 198.746C96.9328 198.461 96.8782 197.553 96.7561 197.181C96.6833 196.965 96.5092 196.817 96.2883 196.63C96.2285 196.579 96.1427 196.506 96.0803 196.445C96.2519 196.017 96.8522 194.972 97.0134 194.804C97.2109 194.622 98.1725 193.957 98.9392 193.513C99.737 193.054 101.538 191.854 102.398 191.228C102.882 190.877 103.329 190.489 103.648 190.196C103.978 190.793 104.14 191.21 104.15 191.347C104.262 193.368 104.181 193.801 104.163 193.867C104.142 193.946 104.111 194.023 104.08 194.102C103.916 194.513 103.638 195.202 104.423 196.068C104.771 196.45 106.694 198.429 107.458 198.598C107.474 198.601 108.508 198.788 109.454 198.788C110.088 198.788 110.686 198.704 110.91 198.424C111.151 198.123 111.193 197.693 111.024 197.3C110.827 196.843 110.398 196.553 109.878 196.521C109.636 196.506 109.426 196.527 109.239 196.545C108.846 196.585 108.631 196.606 108.29 196.321C108.077 196.141 107.508 195.666 107.469 195.527C107.552 195.165 108.222 192.571 108.462 191.906C108.495 191.809 108.542 191.69 108.592 191.558C108.81 190.978 109.023 190.386 109.174 189.83C109.782 189.999 110.866 190.255 112.095 190.355C113.327 190.455 114.221 190.35 114.941 190.268C115.045 190.255 115.138 190.247 115.234 190.236C115.102 190.795 114.925 191.59 114.86 192.175C114.806 192.653 114.767 193.381 114.733 194.023C114.707 194.537 114.67 195.178 114.65 195.286C114.54 195.616 114.702 195.933 114.858 196.242C114.909 196.347 114.998 196.521 115.008 196.582C115.024 196.725 115.216 197.809 115.544 198.118C115.835 198.39 116.95 198.522 117.464 198.522C117.537 198.522 117.597 198.519 117.641 198.514C118.348 198.434 118.878 197.907 118.818 197.337L118.813 197.266C118.79 197.004 118.738 196.395 117.849 196.339C117.716 196.331 117.597 196.331 117.493 196.331C117.456 196.331 117.417 196.331 117.381 196.331C117.365 196.287 117.347 196.239 117.332 196.189C117.241 195.938 117.158 195.698 117.202 195.49C117.287 195.099 117.932 193.313 118.259 192.519C118.504 191.93 119.078 190.788 119.328 190.302C119.452 190.286 119.58 190.268 119.702 190.252C119.983 190.218 120.245 190.183 120.476 190.138C120.83 190.072 121.23 189.927 121.513 189.811C122.127 190.587 123.192 191.722 123.665 192.091C123.949 192.313 124.476 192.827 124.985 193.323C125.539 193.864 126.064 194.376 126.35 194.585L126.56 194.738C127.636 195.511 128.229 196.017 128.325 196.239C128.627 196.933 130.324 198.176 130.979 198.287C130.986 198.289 131.439 198.353 131.974 198.353C132.712 198.353 133.616 198.231 133.775 197.653C133.879 197.279 133.936 196.74 133.635 196.31C133.474 196.097 133.167 195.83 132.58 195.79ZM93.4944 177.528C93.4866 177.354 93.3879 177.206 93.2475 177.124C93.7309 176.821 94.2507 176.642 94.6925 176.589V176.623C94.6925 176.824 94.8095 176.995 94.9784 177.074C94.9654 177.074 94.9524 177.072 94.9394 177.072C94.4924 177.074 93.9674 177.235 93.4944 177.528ZM98.1283 178.953C98.1283 179.499 98.0035 179.871 97.7748 180.001C97.6579 180.067 97.5253 180.064 97.4344 180.053C97.437 180.048 97.437 180.043 97.4396 180.038C97.5097 179.811 97.6137 179.465 97.6137 178.956C97.6137 178.811 97.5669 178.652 97.4812 178.494L97.5305 178.444C97.7229 178.248 97.7229 177.932 97.5305 177.734C97.3382 177.539 97.0264 177.539 96.8314 177.734L96.8132 177.752C96.3948 177.433 95.8568 177.182 95.2981 177.103C95.506 177.051 95.6619 176.874 95.6723 176.652C96.7743 176.874 98.1283 177.591 98.1283 178.953ZM92.5224 177.723C92.5432 177.898 92.6446 178.043 92.7927 178.117C92.6082 178.325 92.4523 178.562 92.3379 178.824C92.2002 178.837 92.0702 178.903 91.9845 179.027C91.8259 179.251 91.8779 179.565 92.0988 179.726L92.1404 179.755C92.1404 179.76 92.1404 179.763 92.1404 179.766C92.1404 180.217 92.2184 180.626 92.3587 180.998C92.1794 181.038 92.039 181.17 91.9923 181.349C91.8077 180.866 91.709 180.336 91.709 179.766C91.709 178.916 92.0442 178.235 92.5224 177.723ZM92.2755 181.945C92.3327 181.969 92.3925 181.982 92.4575 181.982H92.5094C92.6342 181.982 92.7459 181.929 92.8343 181.853C93.0916 182.191 93.4113 182.481 93.7725 182.724C93.5932 182.674 93.3957 182.726 93.2683 182.879L93.2059 182.953C93.193 182.969 93.1878 182.988 93.1774 183.006C92.8135 182.697 92.5094 182.344 92.2755 181.945ZM93.9986 183.552L94.0168 183.531C94.1805 183.336 94.1649 183.054 93.9986 182.871C94.625 183.246 95.3552 183.492 96.1089 183.618C96.0959 183.629 96.0803 183.634 96.0699 183.647L95.8958 183.835C95.8205 183.916 95.7867 184.017 95.7737 184.117C95.7035 184.104 95.6359 184.096 95.5606 184.083C94.9862 183.972 94.4612 183.792 93.9986 183.552ZM116.417 194.614C116.167 194.666 115.907 194.722 115.9 194.706C115.9 194.677 115.918 194.579 116.006 194.487C116.084 194.405 116.193 194.358 116.305 194.358C116.032 194.358 115.811 194.582 115.811 194.859C115.811 195.102 115.985 195.297 116.214 195.342C116.134 195.809 116.277 196.226 116.386 196.532C116.409 196.598 116.432 196.661 116.451 196.725C116.643 197.337 117.165 197.331 117.48 197.334C117.566 197.334 117.662 197.334 117.771 197.339C117.786 197.339 117.799 197.342 117.81 197.342C117.81 197.345 117.81 197.35 117.81 197.353L117.812 197.39C117.773 197.429 117.67 197.498 117.514 197.516C117.238 197.543 116.492 197.434 116.204 197.353C116.121 197.152 115.998 196.703 115.972 196.471C115.946 196.231 115.83 196.004 115.718 195.783C115.676 195.701 115.616 195.582 115.593 195.513C115.632 195.329 115.653 194.978 115.702 194.075C115.705 194.012 115.71 193.949 115.713 193.883C115.767 193.904 115.824 193.917 115.884 193.917C115.941 193.917 116.001 193.906 116.058 193.883C116.118 193.859 116.16 193.846 116.191 193.835C116.305 193.796 116.373 193.769 116.508 193.68C116.737 193.529 116.804 193.22 116.656 192.986C116.508 192.753 116.204 192.685 115.972 192.835C115.926 192.867 115.926 192.867 115.874 192.883C115.845 192.893 115.809 192.906 115.765 192.922C115.78 192.685 115.798 192.463 115.819 192.286C115.889 191.664 116.105 190.74 116.232 190.218C116.445 190.247 116.664 190.291 116.879 190.336C117.246 190.415 117.62 190.495 117.989 190.495C118.026 190.495 118.062 190.489 118.098 190.489C117.828 191.033 117.501 191.703 117.326 192.128C117.098 192.698 116.674 193.843 116.417 194.614ZM132.842 197.252C132.509 197.355 131.561 197.374 131.127 197.3C130.771 197.231 129.372 196.199 129.214 195.838C129.032 195.418 128.481 194.93 127.6 194.276C127.74 194.118 127.772 193.88 127.66 193.69C127.66 193.69 127.595 193.577 127.553 193.405C127.491 193.136 127.223 192.97 126.958 193.036C126.74 193.088 126.597 193.284 126.589 193.5C126.324 193.257 125.973 192.917 125.653 192.603C125.479 192.431 125.31 192.268 125.147 192.11C125.173 192.112 125.196 192.123 125.225 192.12C125.497 192.096 125.698 191.856 125.677 191.579C125.656 191.331 125.518 191.202 125.435 191.144C125.206 190.985 124.962 191.059 124.804 191.107L124.705 191.136C124.557 191.178 124.45 191.284 124.393 191.413C124.346 191.373 124.294 191.326 124.253 191.294C124.167 191.228 124.063 191.133 123.949 191.025C123.949 191.025 123.949 191.025 123.949 191.022C123.951 191.007 123.954 190.991 123.954 190.975C124.091 190.84 124.146 190.634 124.076 190.442C123.964 190.125 123.704 190.038 123.514 190.059C123.364 190.075 123.262 190.146 123.184 190.239C122.615 189.616 122.057 188.946 121.966 188.758C121.724 188.265 120.604 187.289 120.268 187.001C120.061 186.822 119.749 186.851 119.572 187.062C119.398 187.273 119.424 187.589 119.632 187.769C120.094 188.165 120.619 188.655 120.897 188.967C120.692 189.041 120.469 189.112 120.281 189.149C120.237 189.157 120.19 189.165 120.144 189.17C120.268 188.967 120.242 188.7 120.061 188.534C119.858 188.349 119.546 188.368 119.364 188.576C119.25 188.708 119.044 188.962 118.972 189.167C118.951 189.223 118.948 189.278 118.948 189.336C118.719 189.371 118.483 189.413 118.247 189.468C117.945 189.539 117.529 189.45 117.093 189.355C116.825 189.297 116.552 189.241 116.271 189.21C116.313 189.141 116.357 189.07 116.404 189.004C116.56 188.777 116.508 188.465 116.284 188.305C116.061 188.146 115.754 188.199 115.596 188.426C115.305 188.843 115.214 189.083 115.185 189.228C115.063 189.241 114.946 189.252 114.813 189.268C114.278 189.331 113.636 189.4 112.833 189.384C112.859 189.349 112.882 189.313 112.898 189.268C112.991 189.009 112.862 188.719 112.604 188.624C112.03 188.41 111.567 188.996 111.391 189.265C110.52 189.144 109.777 188.959 109.348 188.838C109.363 188.677 109.371 188.521 109.361 188.376C109.343 188.099 109.104 187.89 108.836 187.909C108.688 187.919 108.563 187.998 108.477 188.109C108.423 187.991 108.321 187.893 108.189 187.848C108.165 187.84 108.111 187.827 108.041 187.814C108.004 187.808 107.926 187.793 107.869 187.777C107.752 187.645 107.568 187.582 107.383 187.626C107.118 187.692 106.957 187.964 107.022 188.233C107.126 188.663 107.601 188.75 107.903 188.806C107.944 188.816 107.989 188.822 108.03 188.822C108.158 188.822 108.274 188.766 108.365 188.682C108.342 189.001 108.254 189.392 108.137 189.787C108.116 189.692 108.08 189.603 108.009 189.529C107.882 189.376 107.64 189.093 107.297 189.152C107.108 189.183 106.949 189.315 106.876 189.502C106.775 189.758 106.897 190.051 107.152 190.154C107.188 190.17 107.227 190.181 107.266 190.186C107.292 190.215 107.313 190.239 107.326 190.252C107.419 190.347 107.542 190.394 107.666 190.394C107.781 190.394 107.895 190.347 107.989 190.265C107.872 190.613 107.749 190.941 107.656 191.191C107.604 191.328 107.557 191.452 107.521 191.555C107.505 191.6 107.487 191.656 107.466 191.716C107.425 191.561 107.367 191.36 107.341 191.292C107.243 191.038 106.965 190.919 106.713 191.014C106.46 191.109 106.333 191.397 106.421 191.656C106.445 191.727 106.515 191.985 106.559 192.16C106.616 192.384 106.816 192.534 107.037 192.534C107.079 192.534 107.121 192.529 107.162 192.519C107.191 192.511 107.212 192.492 107.237 192.482C107.167 192.727 107.095 192.991 107.022 193.26C106.959 193.157 106.863 193.073 106.741 193.036C106.479 192.959 106.206 193.112 106.13 193.379C106.065 193.603 106.141 193.822 106.401 194.189C106.481 194.302 106.601 194.358 106.728 194.379C106.614 194.822 106.525 195.173 106.497 195.294C106.336 195.991 106.975 196.527 107.651 197.091C108.306 197.638 108.87 197.582 109.319 197.54C109.486 197.524 109.641 197.508 109.808 197.519C109.969 197.529 110.05 197.601 110.089 197.659C110.109 197.69 110.12 197.719 110.125 197.743C109.652 197.838 108.147 197.722 107.669 197.616C107.344 197.511 105.974 196.3 105.14 195.384C104.779 194.988 104.844 194.827 104.987 194.476C105.036 194.355 105.08 194.236 105.112 194.118C105.14 194.004 105.221 193.687 105.169 192.218C105.177 192.239 105.184 192.252 105.19 192.263C105.278 192.442 105.46 192.55 105.644 192.55C105.717 192.55 105.787 192.534 105.857 192.5C106.102 192.376 106.206 192.088 106.084 191.84C106.065 191.793 106.019 191.595 105.98 191.421C105.92 191.149 105.655 190.978 105.392 191.038C105.278 191.065 105.187 191.133 105.119 191.218C105.073 190.769 104.685 189.983 104.22 189.218C104.228 189.218 104.236 189.218 104.244 189.218C104.477 189.194 104.657 189.006 104.685 188.779C104.704 188.737 104.745 188.663 104.782 188.611C104.932 188.381 104.87 188.07 104.644 187.917C104.418 187.764 104.111 187.824 103.96 188.056C103.843 188.236 103.778 188.373 103.745 188.481C103.004 187.402 101.764 185.281 101.751 185.259C101.611 185.022 101.309 184.943 101.075 185.083C100.842 185.223 100.764 185.531 100.901 185.769C100.953 185.856 102.175 187.948 102.939 189.059C103.004 189.152 103.058 189.239 103.118 189.328C102.822 189.605 102.336 190.038 101.821 190.41C101.621 190.555 101.367 190.735 101.086 190.927C101.138 190.666 100.982 190.408 100.725 190.344C100.462 190.278 100.192 190.439 100.127 190.708C100.07 190.943 100.062 191.146 100.062 191.247C100.062 191.36 100.106 191.46 100.168 191.545C99.5031 191.988 98.8378 192.413 98.448 192.637C98.2504 192.751 98.0295 192.885 97.8086 193.028C97.8034 192.996 97.7982 192.97 97.7956 192.954C97.78 192.69 97.5669 192.482 97.3018 192.482C97.0289 192.482 96.808 192.706 96.808 192.983C96.808 193.075 96.821 193.371 96.9328 193.611C96.6651 193.798 96.4494 193.962 96.3402 194.065C96.1011 194.289 95.007 196.039 95.0512 196.566C95.0798 196.917 95.3708 197.163 95.6541 197.4C95.7087 197.445 95.7841 197.508 95.8283 197.553C95.8438 197.64 95.8464 197.77 95.8335 197.849C95.6463 197.883 95.2279 197.849 95.059 197.574C94.9784 197.445 94.8978 197.334 94.8225 197.229C94.5782 196.893 94.5288 196.822 94.6665 196.49C94.9264 195.854 96.0907 192.975 96.2025 192.608C96.2467 192.516 96.5274 192.347 96.6755 192.257C96.7665 192.202 96.8548 192.149 96.9328 192.096C97.1095 191.975 97.4968 191.534 97.9334 190.962C97.9464 191.08 97.9724 191.228 97.9957 191.347C98.0425 191.587 98.2478 191.753 98.4791 191.753C98.5103 191.753 98.5415 191.751 98.5727 191.745C98.8404 191.693 99.0145 191.429 98.9625 191.157C98.9625 191.154 98.9158 190.922 98.9106 190.827C98.9054 190.553 98.6871 190.334 98.4168 190.334C98.4064 190.334 98.3986 190.339 98.3882 190.339C98.8664 189.656 99.3394 188.893 99.6175 188.273C100.241 186.877 101.008 184.246 101.042 184.133C101.099 183.937 101.034 183.726 100.875 183.6C100.719 183.473 100.501 183.455 100.327 183.555C99.5733 183.985 98.5779 184.381 96.8548 184.254C96.9614 184.08 96.9536 183.866 96.834 183.7C97.2265 183.724 97.6085 183.708 97.9802 183.663C98.0009 183.737 98.0321 183.811 98.0867 183.872L98.2011 183.996C98.2972 184.104 98.4324 184.159 98.5649 184.159C98.6845 184.159 98.804 184.114 98.8976 184.027C99.0561 183.879 99.0925 183.65 99.0119 183.46C99.6201 183.299 100.187 183.083 100.701 182.858C100.761 183.001 100.878 183.117 101.039 183.154L101.224 183.196C101.26 183.204 101.296 183.209 101.33 183.209C101.556 183.209 101.762 183.051 101.811 182.816C101.845 182.663 101.798 182.513 101.71 182.399L101.84 182.338C102.284 182.135 102.734 181.966 103.191 181.813C103.186 182.051 103.339 182.265 103.576 182.315C103.609 182.323 103.643 182.325 103.677 182.325C103.906 182.325 104.111 182.162 104.16 181.927L104.207 181.7C104.22 181.634 104.22 181.571 104.207 181.51C104.506 181.433 104.805 181.362 105.104 181.304C105.07 181.425 105.067 181.549 105.104 181.668C105.169 181.879 105.34 182.038 105.572 182.101C105.616 182.114 105.66 182.119 105.702 182.119C105.92 182.119 106.117 181.974 106.177 181.75C106.216 181.608 106.19 181.465 106.117 181.349C106.117 181.283 106.102 181.222 106.076 181.162C106.149 181.154 106.221 181.138 106.294 181.13C106.71 181.088 107.144 181.096 107.578 181.127C107.341 181.13 107.131 181.294 107.089 181.536C107.058 181.729 107.136 181.914 107.279 182.022C107.297 182.08 107.326 182.138 107.367 182.188C107.466 182.309 107.607 182.373 107.749 182.373C107.859 182.373 107.97 182.336 108.061 182.259C108.259 182.093 108.342 181.858 108.282 181.629C108.194 181.291 107.866 181.175 107.718 181.138C108.139 181.175 108.555 181.235 108.953 181.304C108.906 181.336 108.862 181.373 108.828 181.423C108.703 181.602 108.708 181.837 108.828 182.009C108.823 182.143 108.87 182.28 108.971 182.383C109.067 182.481 109.194 182.531 109.319 182.531C109.444 182.531 109.571 182.481 109.667 182.383C109.8 182.249 109.868 182.064 109.852 181.877C109.839 181.718 109.769 181.565 109.654 181.439C109.792 181.465 109.927 181.494 110.055 181.52C110.494 181.61 110.871 181.687 111.162 181.718C111.297 181.734 111.487 181.75 111.708 181.771C111.76 182.019 111.887 182.272 112.045 182.378C112.129 182.436 112.225 182.462 112.318 182.462C112.477 182.462 112.635 182.383 112.729 182.238C112.807 182.122 112.823 181.985 112.794 181.858C113.563 181.914 114.442 181.972 115.203 182.014C115.169 182.159 115.151 182.32 115.182 182.465C115.232 182.703 115.445 182.882 115.676 182.882C115.707 182.882 115.739 182.879 115.772 182.871C116.04 182.813 116.212 182.568 116.154 182.299C116.154 182.278 116.167 182.228 116.175 182.201C116.199 182.156 116.209 182.109 116.219 182.064C116.357 182.069 116.487 182.075 116.594 182.077C117.238 182.093 118.447 182.04 118.966 181.75C119.024 181.964 119.205 182.125 119.434 182.125C119.707 182.125 119.928 181.9 119.928 181.623V181.262C119.928 181.249 119.923 181.238 119.92 181.225C120.084 181.154 120.253 181.093 120.422 181.056C120.419 181.077 120.409 181.096 120.409 181.117C120.409 181.394 120.63 181.618 120.903 181.618H121.007C121.279 181.618 121.5 181.394 121.5 181.117C121.5 181.106 121.495 181.096 121.495 181.085C121.651 181.114 121.807 181.148 121.966 181.188C122.223 181.249 122.488 181.309 122.761 181.344C122.997 181.373 123.403 181.389 123.821 181.383C123.782 181.415 123.743 181.449 123.715 181.494L123.647 181.6C123.499 181.832 123.564 182.143 123.793 182.294C123.876 182.349 123.969 182.373 124.06 182.373C124.221 182.373 124.38 182.291 124.476 182.143L124.544 182.038C124.687 181.811 124.627 181.515 124.411 181.359C124.427 181.359 124.445 181.357 124.461 181.357C124.741 181.333 125.279 181.315 125.817 181.299C125.817 181.441 125.872 181.584 125.989 181.681L126.051 181.734C126.145 181.813 126.256 181.85 126.366 181.85C126.508 181.85 126.646 181.79 126.745 181.671C126.841 181.555 126.87 181.407 126.846 181.267C127.005 181.262 127.145 181.257 127.254 181.251C127.506 181.238 127.805 181.241 128.094 181.257C128.081 181.272 128.065 181.288 128.052 181.304C127.883 181.52 127.92 181.837 128.133 182.009C128.346 182.18 128.658 182.143 128.827 181.927C128.998 181.708 129.253 181.528 129.492 181.404C129.495 181.404 129.495 181.402 129.497 181.402C129.716 181.288 129.923 181.222 130.04 181.214C129.957 181.365 129.749 181.602 129.547 181.768C129.333 181.943 129.3 182.257 129.471 182.473C129.57 182.597 129.713 182.66 129.856 182.66C129.965 182.66 130.072 182.623 130.165 182.55C130.186 182.534 130.215 182.51 130.243 182.484C130.209 182.552 130.186 182.626 130.186 182.705V182.871C130.186 183.149 130.407 183.373 130.68 183.373C130.921 183.373 131.111 183.193 131.155 182.961C131.194 182.993 131.231 183.022 131.264 183.043C131.428 183.154 131.605 183.502 131.74 183.795C131.857 184.051 131.977 184.32 132.083 184.563C132.187 184.798 132.281 185.014 132.359 185.175C132.512 185.5 132.507 185.603 132.515 185.603C132.19 185.843 132.075 185.856 132.078 185.858C132 185.845 131.888 185.811 131.784 185.782C131.532 185.711 131.394 185.671 131.236 185.711C130.971 185.777 130.81 186.051 130.877 186.318C130.906 186.436 130.976 186.531 131.064 186.597C130.869 186.674 130.862 186.669 130.664 186.476C130.243 186.064 129.773 185.668 129.172 185.56C129.024 185.534 128.738 185.518 128.387 185.523C128.432 185.413 128.442 185.283 128.398 185.162C128.304 184.901 128.021 184.769 127.764 184.864L127.649 184.906C127.392 185.001 127.262 185.289 127.356 185.55C127.361 185.566 127.374 185.579 127.382 185.595C127.098 185.629 126.815 185.679 126.547 185.745C126.571 185.552 126.597 185.405 126.612 185.354C126.714 185.099 126.592 184.806 126.337 184.703C126.082 184.6 125.796 184.724 125.695 184.982C125.627 185.154 125.544 185.666 125.513 186.228C125.453 186.204 125.386 186.172 125.323 186.143C125.076 186.027 124.783 186.138 124.668 186.391C124.554 186.642 124.663 186.94 124.913 187.056C125.261 187.217 125.43 187.265 125.534 187.275C125.544 187.352 125.552 187.431 125.565 187.502C125.583 187.592 125.612 187.713 125.648 187.859C125.625 187.869 125.601 187.869 125.578 187.882L125.474 187.946C125.24 188.088 125.165 188.397 125.305 188.634C125.399 188.79 125.562 188.877 125.729 188.877C125.796 188.877 125.861 188.859 125.926 188.83C126.152 189.555 126.454 190.386 126.748 190.948C126.701 190.972 126.654 190.999 126.615 191.038L126.508 191.144C126.373 191.276 126.207 191.439 126.241 191.716C126.259 191.872 126.379 192.041 126.514 192.12C126.592 192.165 126.675 192.186 126.758 192.186C126.929 192.186 127.096 192.096 127.187 191.933C127.205 191.898 127.221 191.864 127.231 191.827L127.293 191.766C127.517 192.086 127.818 192.529 128.133 192.993C129.001 194.276 129.638 195.207 129.931 195.519C130.633 196.26 131.6 196.738 132.52 196.801C132.673 196.812 132.785 196.849 132.821 196.904C132.855 196.946 132.873 197.073 132.842 197.252Z" fill="#FFDE3B"/>
<path d="M112.245 185.765C112.269 185.667 112.261 185.57 112.227 185.48C112.381 185.303 112.394 185.034 112.245 184.841C112.076 184.622 111.767 184.583 111.551 184.754C111.351 184.913 111.107 185.298 111.188 185.667C111.24 185.905 111.416 186.084 111.65 186.14C111.687 186.147 111.726 186.153 111.762 186.153C111.991 186.153 112.193 185.997 112.245 185.765Z" fill="#FFDE3B"/>
<path d="M114.222 187.021C114.339 186.997 114.555 186.913 114.687 186.609C114.739 186.488 114.9 185.971 114.718 185.662C114.537 185.356 114.186 185.343 113.679 185.425C113.409 185.467 113.224 185.723 113.268 185.997C113.299 186.206 113.455 186.364 113.648 186.409C113.63 186.48 113.627 186.554 113.643 186.628C113.689 186.865 113.895 187.031 114.126 187.031C114.157 187.031 114.188 187.029 114.222 187.021Z" fill="#FFDE3B"/>
<path d="M115.572 184.632C115.725 184.479 115.767 184.237 115.658 184.036C115.528 183.793 115.229 183.704 114.987 183.836C114.623 184.036 114.431 184.347 114.47 184.672C114.504 184.941 114.696 185.16 114.966 185.231C115.008 185.242 115.049 185.247 115.088 185.247C115.309 185.247 115.509 185.097 115.567 184.873C115.59 184.791 115.59 184.709 115.572 184.632Z" fill="#FFDE3B"/>
<path d="M113.456 185.072C113.472 185.072 113.487 185.075 113.5 185.075C113.752 185.075 113.968 184.88 113.991 184.619C114.007 184.444 113.934 184.283 113.807 184.183C113.802 184.006 113.703 183.835 113.534 183.75C113.29 183.626 112.993 183.727 112.871 183.975C112.754 184.212 112.757 184.476 112.876 184.698C112.996 184.909 113.212 185.049 113.456 185.072Z" fill="#FFDE3B"/>
<path d="M111.95 184.086C112.012 184.086 112.077 184.073 112.139 184.046C112.332 183.965 112.672 183.738 112.737 183.4C112.774 183.215 112.719 183.028 112.592 182.899C112.399 182.703 112.087 182.703 111.893 182.899C111.83 182.962 111.789 183.036 111.768 183.115C111.765 183.118 111.763 183.118 111.76 183.12C111.508 183.226 111.391 183.521 111.495 183.777C111.57 183.97 111.755 184.086 111.95 184.086Z" fill="#FFDE3B"/>
<path d="M110.697 183.049C110.71 183.052 110.725 183.052 110.738 183.052C110.993 183.052 111.209 182.854 111.23 182.593C111.243 182.445 111.191 182.308 111.097 182.207C111.123 181.943 110.941 181.703 110.679 181.664C110.411 181.619 110.156 181.811 110.117 182.086C110.091 182.252 110.047 182.561 110.242 182.809C110.351 182.949 110.512 183.033 110.697 183.049Z" fill="#FFDE3B"/>
<path d="M106.691 182.079C106.436 181.984 106.153 182.119 106.057 182.38C105.984 182.586 106.051 182.808 106.207 182.94C106.215 182.979 106.231 183.019 106.249 183.058C106.335 183.235 106.509 183.335 106.691 183.335C106.764 183.335 106.841 183.319 106.912 183.283C107.125 183.174 107.247 182.963 107.234 182.728C107.221 182.449 107.005 182.195 106.691 182.079Z" fill="#FFDE3B"/>
<path d="M107.902 183.652C107.988 183.721 108.09 183.753 108.191 183.753C108.334 183.753 108.477 183.687 108.576 183.56C108.599 183.528 108.62 183.497 108.635 183.462C108.783 183.354 108.856 183.162 108.817 182.958C108.765 182.687 108.485 182.515 108.22 182.565C108.071 182.594 107.726 182.658 107.64 183.019C107.609 183.156 107.598 183.418 107.902 183.652Z" fill="#FFDE3B"/>
<path d="M109.527 184.071C109.61 184.137 109.717 184.176 109.831 184.176C109.844 184.176 109.86 184.176 109.873 184.174C110.143 184.15 110.346 183.907 110.325 183.633C110.31 183.443 110.219 183.279 110.07 183.171C109.792 182.968 109.431 183.06 109.296 183.094C109.031 183.16 108.87 183.435 108.937 183.701C109.002 183.97 109.267 184.131 109.527 184.071Z" fill="#FFDE3B"/>
<path d="M109.951 184.726C109.951 184.734 109.949 184.742 109.949 184.753C109.829 184.845 109.754 184.988 109.754 185.151C109.754 185.428 109.975 185.653 110.248 185.653C110.726 185.653 110.939 185.122 110.939 184.745C110.939 184.476 110.731 184.27 110.466 184.257C110.196 184.244 109.972 184.46 109.951 184.726Z" fill="#FFDE3B"/>
<path d="M109.323 186.051C109.38 185.884 109.346 185.71 109.25 185.578C109.341 185.336 109.232 185.056 108.995 184.945C108.749 184.829 108.455 184.937 108.341 185.19C108.208 185.483 108.187 185.745 108.278 185.966C108.354 186.148 108.502 186.285 108.694 186.354C108.749 186.373 108.803 186.383 108.858 186.383C109.06 186.386 109.253 186.256 109.323 186.051Z" fill="#FFDE3B"/>
<path d="M107.796 185.074C107.91 185.074 108.022 185.034 108.115 184.955C108.165 184.913 108.204 184.863 108.232 184.81C108.386 184.712 108.482 184.53 108.461 184.335C108.435 184.061 108.193 183.858 107.921 183.887C107.637 183.916 107.414 184.071 107.323 184.301C107.242 184.501 107.281 184.731 107.419 184.897C107.515 185.013 107.655 185.074 107.796 185.074Z" fill="#FFDE3B"/>
<path d="M110.687 187.3C110.461 187.439 110.173 187.888 110.235 188.276C110.277 188.521 110.485 188.695 110.721 188.695C110.747 188.695 110.776 188.693 110.804 188.687C111.051 188.645 111.223 188.426 111.218 188.181C111.223 188.17 111.228 188.157 111.236 188.147C111.285 188.115 111.329 188.075 111.366 188.025C111.529 187.804 111.485 187.49 111.27 187.323C111.103 187.199 110.859 187.194 110.687 187.3Z" fill="#FFDE3B"/>
<path d="M112.426 186.732C112.244 186.787 112.099 186.922 112.013 187.112C111.901 187.36 111.886 187.719 111.979 187.927C112.062 188.115 112.242 188.223 112.429 188.223C112.496 188.223 112.564 188.21 112.632 188.178C112.858 188.075 112.969 187.824 112.907 187.59C112.907 187.584 112.907 187.579 112.907 187.574C113.04 187.447 113.097 187.252 113.042 187.065C112.962 186.803 112.686 186.653 112.426 186.732Z" fill="#FFDE3B"/>
<path d="M110.275 186.147C110.031 186.023 109.735 186.123 109.613 186.371C109.594 186.408 109.509 186.495 109.462 186.54C109.319 186.683 109.08 186.92 109.194 187.266C109.264 187.477 109.457 187.609 109.662 187.609C109.714 187.609 109.766 187.601 109.818 187.582C109.963 187.532 110.073 187.421 110.122 187.287C110.132 187.276 110.143 187.266 110.153 187.255C110.257 187.15 110.403 187.007 110.494 186.82C110.618 186.572 110.52 186.271 110.275 186.147Z" fill="#FFDE3B"/>
<path d="M114.187 187.781C114.124 187.876 114.09 187.961 114.064 188.032C114.038 188.101 114.023 188.138 113.981 188.188C113.807 188.401 113.836 188.715 114.044 188.895C114.137 188.974 114.249 189.011 114.361 189.011C114.504 189.011 114.641 188.95 114.74 188.832C114.886 188.655 114.945 188.502 114.984 188.399C114.992 188.378 115 188.357 115.01 188.338C115.161 188.109 115.099 187.797 114.873 187.644C114.644 187.488 114.337 187.552 114.187 187.781Z" fill="#FFDE3B"/>
<path d="M116.645 186.735C116.653 186.611 116.614 186.482 116.528 186.379C116.351 186.168 116.039 186.144 115.831 186.323C115.538 186.577 115.535 186.854 115.561 186.996C115.61 187.273 115.823 187.482 116.19 187.616C116.245 187.637 116.302 187.645 116.356 187.645C116.559 187.645 116.749 187.519 116.821 187.313C116.899 187.094 116.819 186.862 116.645 186.735Z" fill="#FFDE3B"/>
<path d="M117.965 188.097C117.749 188.123 117.362 188.308 117.185 188.63C117.053 188.87 117.131 189.184 117.367 189.321C117.445 189.366 117.531 189.387 117.614 189.387C117.783 189.387 117.944 189.3 118.035 189.136C118.051 189.12 118.098 189.091 118.09 189.089C118.36 189.055 118.552 188.804 118.519 188.529C118.482 188.258 118.235 188.062 117.965 188.097Z" fill="#FFDE3B"/>
<path d="M113.959 183.554C113.972 183.554 113.985 183.554 113.998 183.552C114.271 183.533 114.476 183.296 114.458 183.019C114.443 182.797 114.289 182.618 114.089 182.565C113.99 182.398 113.798 182.298 113.595 182.327C113.325 182.367 113.138 182.62 113.177 182.895C113.219 183.195 113.59 183.554 113.959 183.554Z" fill="#FFDE3B"/>
<path d="M116.365 184.167L116.697 183.797L116.37 184.172C116.463 184.257 116.58 184.299 116.697 184.299C116.832 184.299 116.968 184.243 117.066 184.13C117.215 183.961 117.23 183.716 117.118 183.534C117.15 183.396 117.124 183.249 117.035 183.127C116.874 182.903 116.565 182.855 116.346 183.019C116.17 183.151 116.066 183.336 116.055 183.539C116.04 183.874 116.284 184.093 116.365 184.167Z" fill="#FFDE3B"/>
<path d="M117.464 185.697C117.557 185.462 117.461 185.201 117.253 185.077C117.175 184.861 116.952 184.724 116.72 184.753C116.45 184.792 116.263 185.046 116.302 185.32C116.354 185.692 116.655 185.908 116.824 185.977C116.884 186.001 116.947 186.014 117.006 186.014C117.201 186.014 117.388 185.895 117.464 185.697Z" fill="#FFDE3B"/>
<path d="M118.755 186.115C118.742 186.094 118.727 186.065 118.719 186.044C118.631 185.783 118.35 185.643 118.09 185.735C117.833 185.825 117.695 186.11 117.786 186.374C117.807 186.437 118.007 186.989 118.428 187.031C118.446 187.033 118.462 187.033 118.48 187.033C118.729 187.033 118.945 186.841 118.971 186.582C118.987 186.392 118.898 186.218 118.755 186.115Z" fill="#FFDE3B"/>
<path d="M116.363 191.12C116.33 191.154 116.301 191.183 116.278 191.207C116.059 191.281 115.916 191.503 115.945 191.743C115.976 191.999 116.187 192.186 116.434 192.186C116.454 192.186 116.473 192.186 116.493 192.184C116.691 192.16 116.844 192.107 116.985 191.917C116.995 191.904 117.011 191.883 117.042 191.854C117.239 191.664 117.25 191.347 117.063 191.144C116.875 190.941 116.561 190.933 116.363 191.12Z" fill="#FFDE3B"/>
<path d="M105.534 189.061C105.329 189.28 105.158 189.667 105.36 190.026C105.451 190.19 105.618 190.282 105.792 190.282C105.875 190.282 105.958 190.261 106.033 190.216C106.213 190.113 106.304 189.913 106.28 189.715C106.439 189.514 106.421 189.221 106.234 189.039C106.036 188.852 105.724 188.86 105.534 189.061Z" fill="#FFDE3B"/>
<path d="M106.297 186.627C106.128 186.577 105.928 186.63 105.801 186.754C105.544 187.005 105.544 187.664 105.57 187.77C105.624 188 105.827 188.153 106.048 188.153C106.087 188.153 106.126 188.147 106.165 188.137C106.401 188.079 106.555 187.857 106.539 187.62C106.542 187.567 106.555 187.464 106.568 187.39C106.596 187.345 106.62 187.298 106.635 187.245C106.711 186.978 106.56 186.701 106.297 186.627Z" fill="#FFDE3B"/>
<path d="M106.906 185.282C106.708 185.089 106.397 185.097 106.207 185.297C106.02 185.498 106.025 185.815 106.222 186.007L106.28 186.063C106.376 186.155 106.498 186.202 106.62 186.202C106.75 186.202 106.88 186.15 106.976 186.047C107.163 185.846 107.158 185.53 106.961 185.337L106.906 185.282Z" fill="#FFDE3B"/>
<path d="M104.156 186.128C103.901 186.028 103.615 186.154 103.517 186.413L103.444 186.6C103.345 186.859 103.47 187.149 103.725 187.25C103.784 187.273 103.844 187.284 103.904 187.284C104.102 187.284 104.289 187.162 104.364 186.965L104.437 186.777C104.536 186.519 104.408 186.228 104.156 186.128Z" fill="#FFDE3B"/>
<path d="M105.607 186.387C105.631 186.213 105.683 185.854 105.392 185.659C105.163 185.506 104.856 185.569 104.708 185.799C104.63 185.917 104.609 186.057 104.638 186.186C104.635 186.216 104.63 186.242 104.63 186.247C104.591 186.522 104.781 186.775 105.049 186.814C105.072 186.817 105.095 186.82 105.119 186.82C105.36 186.82 105.573 186.638 105.607 186.387Z" fill="#FFDE3B"/>
<path d="M105.684 185.044C105.957 185.044 106.175 184.843 106.175 184.566C106.18 184.532 106.196 184.479 106.209 184.429C106.256 184.241 106.287 184.117 106.235 183.962C106.149 183.701 105.868 183.558 105.609 183.645C105.414 183.711 105.286 183.89 105.273 184.088C105.268 184.112 105.258 184.144 105.25 184.178C105.211 184.326 105.188 184.424 105.188 184.519C105.193 184.796 105.411 185.044 105.684 185.044Z" fill="#FFDE3B"/>
<path d="M100.336 187.212C100.336 187.318 100.406 187.65 100.442 187.745C100.518 187.938 100.697 188.051 100.892 188.051C100.947 188.051 101.004 188.041 101.058 188.022C101.308 187.935 101.443 187.656 101.368 187.397C101.352 187.344 101.326 187.212 101.318 187.162C101.295 186.909 101.084 186.711 100.827 186.711C100.557 186.711 100.336 186.935 100.336 187.212Z" fill="#FFDE3B"/>
<path d="M101.818 189.905C101.844 189.911 101.87 189.911 101.895 189.911C102.135 189.911 102.345 189.734 102.382 189.488C102.392 189.42 102.423 189.177 102.374 188.963C102.314 188.699 102.062 188.546 101.799 188.599C101.537 188.652 101.368 188.919 101.409 189.185C101.415 189.211 101.409 189.285 101.404 189.333C101.363 189.605 101.547 189.863 101.818 189.905Z" fill="#FFDE3B"/>
<path d="M99.7196 188.49C99.5246 188.727 99.5143 189.208 99.5272 189.31C99.5636 189.561 99.7793 189.762 100.024 189.762C100.044 189.762 100.068 189.759 100.089 189.756C100.359 189.717 100.549 189.485 100.51 189.21C100.51 189.178 100.523 189.097 100.533 189.052C100.645 188.846 100.601 188.582 100.416 188.426C100.203 188.247 99.8937 188.276 99.7196 188.49Z" fill="#FFDE3B"/>
<path d="M103.543 185.353L103.449 185.07C103.364 184.809 103.085 184.664 102.826 184.754C102.566 184.841 102.428 185.126 102.514 185.387L102.607 185.669C102.677 185.88 102.87 186.012 103.075 186.012C103.127 186.012 103.179 186.004 103.231 185.986C103.488 185.899 103.629 185.614 103.543 185.353Z" fill="#FFDE3B"/>
<path d="M104.82 185.095V184.984C104.82 184.707 104.599 184.483 104.326 184.483C104.053 184.483 103.832 184.707 103.832 184.984V185.095C103.832 185.372 104.053 185.597 104.326 185.597C104.599 185.597 104.82 185.372 104.82 185.095Z" fill="#FFDE3B"/>
<path d="M102.915 183.593C102.985 183.802 103.177 183.931 103.382 183.931C103.434 183.931 103.489 183.923 103.544 183.904C103.801 183.815 103.939 183.53 103.85 183.269L103.757 182.994C103.668 182.733 103.388 182.59 103.13 182.683C102.873 182.772 102.735 183.057 102.824 183.319L102.915 183.593Z" fill="#FFDE3B"/>
<path d="M107.192 186.918C107.262 187.127 107.454 187.256 107.66 187.256C107.712 187.256 107.766 187.248 107.821 187.229C108.078 187.14 108.216 186.855 108.128 186.593L108.034 186.319C107.946 186.058 107.665 185.915 107.408 186.008C107.15 186.097 107.013 186.382 107.101 186.644L107.192 186.918Z" fill="#FFDE3B"/>
<path d="M104.235 183.259C104.305 183.468 104.497 183.597 104.703 183.597C104.755 183.597 104.809 183.589 104.864 183.571C105.121 183.481 105.259 183.196 105.171 182.935L105.077 182.66C104.989 182.399 104.708 182.257 104.451 182.349C104.193 182.439 104.056 182.724 104.144 182.985L104.235 183.259Z" fill="#FFDE3B"/>
<path d="M102.541 183.89L102.364 183.547C102.237 183.302 101.938 183.209 101.696 183.339C101.455 183.468 101.364 183.771 101.491 184.017L101.668 184.36C101.756 184.531 101.928 184.626 102.104 184.626C102.182 184.626 102.26 184.608 102.333 184.568C102.577 184.436 102.668 184.133 102.541 183.89Z" fill="#FFDE3B"/>
<path d="M122.885 187.831C122.708 187.62 122.397 187.596 122.189 187.776C121.981 187.955 121.957 188.272 122.134 188.483L122.259 188.628C122.358 188.744 122.495 188.802 122.633 188.802C122.747 188.802 122.862 188.762 122.953 188.681C123.161 188.501 123.184 188.185 123.007 187.973L122.885 187.831Z" fill="#FFDE3B"/>
<path d="M124.413 187.141C124.413 186.793 124.163 186.59 123.916 186.569C123.553 186.534 123.165 186.946 123.124 187.218C123.08 187.492 123.262 187.748 123.532 187.793C123.558 187.798 123.586 187.798 123.612 187.798C123.753 187.798 123.883 187.737 123.974 187.637C124.221 187.611 124.413 187.4 124.413 187.141Z" fill="#FFDE3B"/>
<path d="M124.427 188.378C124.229 188.31 124.021 188.371 123.842 188.542C123.595 188.777 123.629 189.03 123.655 189.128C123.707 189.323 123.86 189.471 124.065 189.518C124.102 189.526 124.141 189.532 124.177 189.532C124.393 189.532 124.588 189.386 124.65 189.173C124.686 189.128 124.718 189.072 124.736 189.014C124.824 188.753 124.684 188.468 124.427 188.378Z" fill="#FFDE3B"/>
<path d="M125.256 189.407C125.04 189.494 124.897 189.695 124.895 189.919C124.89 190.096 124.981 190.331 125.243 190.452C125.308 190.484 125.378 190.497 125.448 190.497C125.635 190.497 125.815 190.389 125.898 190.204C125.908 190.18 125.916 190.156 125.924 190.133C126.038 189.94 126.012 189.687 125.849 189.523C125.698 189.37 125.464 189.323 125.256 189.407Z" fill="#FFDE3B"/>
<path d="M121.949 185.369C122.048 185.369 122.149 185.338 122.238 185.274C122.459 185.113 122.508 184.799 122.35 184.575C122.334 184.551 122.311 184.517 122.292 184.485C122.287 184.364 122.24 184.245 122.149 184.153C121.957 183.958 121.645 183.958 121.45 184.153C121.211 184.396 121.245 184.733 121.549 185.161C121.645 185.298 121.796 185.369 121.949 185.369Z" fill="#FFDE3B"/>
<path d="M124.202 184.111C124.335 184.111 124.468 184.058 124.564 183.952C124.717 183.786 124.735 183.538 124.626 183.353C124.642 183.118 124.494 182.897 124.262 182.833C124 182.76 123.727 182.92 123.657 183.19C123.581 183.477 123.662 183.786 123.867 183.979C123.961 184.066 124.08 184.111 124.202 184.111Z" fill="#FFDE3B"/>
<path d="M124.395 184.869C124.395 185.072 124.527 185.389 124.743 185.547C124.847 185.624 124.964 185.663 125.083 185.663C125.143 185.663 125.203 185.653 125.26 185.634C125.52 185.547 125.66 185.262 125.572 185.001C125.533 184.885 125.458 184.792 125.361 184.732C125.302 184.523 125.112 184.37 124.888 184.37C124.615 184.368 124.395 184.592 124.395 184.869Z" fill="#FFDE3B"/>
<path d="M122.886 185.237C122.928 185.482 123.136 185.657 123.372 185.657C123.398 185.657 123.427 185.654 123.455 185.649C123.723 185.604 123.905 185.345 123.861 185.071C123.861 185.066 123.858 185.047 123.858 185.031C123.954 184.833 123.913 184.588 123.744 184.435C123.541 184.25 123.227 184.269 123.047 184.477C122.837 184.715 122.855 185.055 122.886 185.237Z" fill="#FFDE3B"/>
<path d="M122.236 183.909C122.278 184.154 122.485 184.328 122.722 184.328C122.748 184.328 122.777 184.326 122.805 184.32C123.073 184.276 123.255 184.017 123.211 183.743C123.211 183.737 123.208 183.719 123.208 183.703C123.304 183.505 123.263 183.26 123.094 183.107C122.891 182.922 122.576 182.94 122.397 183.149C122.189 183.386 122.207 183.727 122.236 183.909Z" fill="#FFDE3B"/>
<path d="M121.252 186.903C121.294 187.148 121.502 187.323 121.738 187.323C121.764 187.323 121.793 187.32 121.821 187.315C122.089 187.27 122.271 187.011 122.227 186.737C122.227 186.731 122.224 186.713 122.224 186.697C122.32 186.499 122.279 186.254 122.11 186.101C121.907 185.916 121.593 185.935 121.413 186.143C121.203 186.381 121.224 186.721 121.252 186.903Z" fill="#FFDE3B"/>
<path d="M120.042 185.245L120.011 185.174C119.896 184.921 119.603 184.81 119.356 184.926C119.109 185.042 118.997 185.337 119.111 185.591L119.145 185.667C119.21 185.818 119.358 186.171 119.777 186.171C120.05 186.171 120.271 185.947 120.271 185.67C120.273 185.491 120.18 185.332 120.042 185.245Z" fill="#FFDE3B"/>
<path d="M117.933 183.955C117.803 184.043 117.707 184.227 117.697 184.383C117.684 184.594 117.775 184.813 117.936 184.953C118.029 185.035 118.144 185.074 118.255 185.074C118.396 185.074 118.533 185.014 118.63 184.9C118.762 184.742 118.783 184.525 118.697 184.349C118.692 184.262 118.666 184.175 118.614 184.098C118.466 183.866 118.162 183.802 117.933 183.955Z" fill="#FFDE3B"/>
<path d="M118.036 183.323C118.137 183.323 118.241 183.291 118.329 183.225C118.483 183.109 118.55 182.924 118.524 182.745C118.553 182.552 118.47 182.352 118.298 182.243C118.067 182.096 117.763 182.17 117.617 182.402C117.459 182.66 117.513 182.948 117.638 183.119C117.734 183.254 117.885 183.323 118.036 183.323Z" fill="#FFDE3B"/>
<path d="M120.517 183.673C120.244 183.673 120.023 183.897 120.023 184.174V184.275C120.023 184.552 120.244 184.776 120.517 184.776C120.79 184.776 121.011 184.552 121.011 184.275V184.174C121.011 183.897 120.79 183.673 120.517 183.673Z" fill="#FFDE3B"/>
<path d="M119.416 183.816C119.689 183.816 119.909 183.592 119.909 183.315V183.13C119.909 182.853 119.689 182.629 119.416 182.629C119.143 182.629 118.922 182.853 118.922 183.13V183.315C118.922 183.592 119.143 183.816 119.416 183.816Z" fill="#FFDE3B"/>
<path d="M121.616 182.748V182.608C121.616 182.331 121.396 182.106 121.123 182.106C120.85 182.106 120.629 182.331 120.629 182.608V182.748C120.629 183.025 120.85 183.249 121.123 183.249C121.396 183.249 121.616 183.025 121.616 182.748Z" fill="#FFDE3B"/>
<path d="M122.466 182.409H122.581C122.854 182.409 123.075 182.185 123.075 181.908C123.075 181.631 122.854 181.407 122.581 181.407H122.466C122.194 181.407 121.973 181.631 121.973 181.908C121.973 182.185 122.194 182.409 122.466 182.409Z" fill="#FFDE3B"/>
<path d="M125.329 183.339C125.095 183.482 125.02 183.79 125.16 184.028L125.254 184.184C125.348 184.339 125.511 184.426 125.678 184.426C125.763 184.426 125.852 184.403 125.932 184.355C126.166 184.213 126.242 183.904 126.101 183.666L126.008 183.511C125.867 183.273 125.563 183.197 125.329 183.339Z" fill="#FFDE3B"/>
<path d="M125.514 183.003C125.613 183.003 125.714 182.974 125.8 182.911L125.873 182.858C126.094 182.697 126.146 182.383 125.987 182.159C125.829 181.934 125.519 181.882 125.299 182.043L125.226 182.095C125.005 182.256 124.953 182.57 125.111 182.795C125.21 182.929 125.361 183.003 125.514 183.003Z" fill="#FFDE3B"/>
<path d="M126.808 183.193C126.917 183.193 127.029 183.156 127.12 183.08L127.284 182.945C127.494 182.771 127.528 182.455 127.356 182.241C127.185 182.024 126.873 181.993 126.663 182.167L126.499 182.302C126.288 182.476 126.255 182.792 126.426 183.006C126.522 183.13 126.665 183.193 126.808 183.193Z" fill="#FFDE3B"/>
<path d="M127.103 183.345C126.83 183.345 126.609 183.569 126.609 183.846V183.973C126.609 184.25 126.83 184.474 127.103 184.474C127.376 184.474 127.597 184.25 127.597 183.973V183.846C127.597 183.572 127.376 183.345 127.103 183.345Z" fill="#FFDE3B"/>
<path d="M61.1125 225.31L67.0401 234.368C67.0888 234.446 67.1498 234.493 67.2321 234.525C67.3387 234.563 67.4423 234.581 67.546 234.581H68.3841C68.506 234.581 68.5303 234.556 68.5303 234.43V222.798C68.5303 222.673 68.506 222.647 68.3841 222.647H67.4271C67.3052 222.647 67.2808 222.673 67.2808 222.798V231.733C67.2808 231.831 67.2808 232.088 67.0766 232.151C66.8724 232.214 66.7353 231.997 66.6835 231.915L60.89 222.858C60.8412 222.783 60.7833 222.732 60.698 222.704C60.5913 222.666 60.4877 222.647 60.3841 222.647H59.4119C59.29 222.647 59.2656 222.673 59.2656 222.798V234.43C59.2656 234.556 59.29 234.581 59.4119 234.581H60.3719C60.4938 234.581 60.5182 234.556 60.5182 234.43V225.496C60.5182 225.401 60.5182 225.147 60.7193 225.084C60.7468 225.074 60.7711 225.071 60.7955 225.071C60.957 225.074 61.0668 225.241 61.1125 225.31Z" fill="#111111"/>
<path d="M80.2506 231.739C80.3797 231.651 80.4405 231.53 80.4405 231.364V225.864C80.4405 225.695 80.3823 225.579 80.2506 225.489L76.0005 222.715C75.9296 222.67 75.8638 222.647 75.8031 222.647C75.7752 222.647 75.7119 222.656 75.5955 222.721L71.3758 225.489C71.2365 225.579 71.1758 225.695 71.1758 225.864V231.364C71.1758 231.533 71.2365 231.649 71.3758 231.739L75.6056 234.513C75.7018 234.581 75.7803 234.597 75.9043 234.566C75.9296 234.561 75.9575 234.544 75.9879 234.521L80.2506 231.739ZM75.8031 233.372C75.6968 233.372 75.593 233.338 75.4968 233.274L72.3706 231.223C72.1731 231.094 72.0693 230.897 72.0693 230.649V226.579C72.0693 226.334 72.1731 226.134 72.3706 226.005L75.5018 223.951C75.76 223.808 75.917 223.83 76.1068 223.951L79.2533 226.005C79.4457 226.137 79.5469 226.334 79.5469 226.579V230.649C79.5469 230.894 79.4457 231.091 79.2584 231.221L76.1094 233.274C76.0663 233.308 76.0081 233.338 75.9474 233.353C75.8942 233.367 75.8461 233.372 75.8031 233.372Z" fill="#111111"/>
<path d="M99.1111 222.647C98.9957 222.647 98.9727 222.673 98.9727 222.798V234.43C98.9727 234.556 98.9957 234.581 99.1111 234.581H106.775C106.891 234.581 106.914 234.556 106.914 234.43V233.44C106.914 233.314 106.891 233.289 106.775 233.289H100.712C100.372 233.289 100.17 233.066 100.17 232.698V222.798C100.17 222.673 100.147 222.647 100.031 222.647H99.1111Z" fill="#111111"/>
<path d="M143.497 234.581C143.654 234.581 143.752 234.498 143.808 234.322L147.095 224.527C147.128 224.429 147.182 224.293 147.28 224.293C147.379 224.293 147.433 224.429 147.466 224.527L150.741 234.319C150.797 234.498 150.896 234.581 151.053 234.581H151.801C151.866 234.581 151.899 234.563 151.908 234.547C151.915 234.532 151.918 234.483 151.892 234.402L147.963 222.913C147.906 222.731 147.808 222.647 147.651 222.647H146.903C146.746 222.647 146.647 222.731 146.591 222.907V222.91L142.669 234.405C142.646 234.483 142.646 234.532 142.653 234.547C142.66 234.563 142.692 234.581 142.76 234.581H143.497Z" fill="#111111"/>
<path d="M158.435 229.325L161.985 234.386C162.048 234.525 162.151 234.581 162.338 234.581H163.601C163.611 234.581 163.622 234.581 163.632 234.581C163.632 234.578 163.629 234.572 163.629 234.569L159.967 229.35L160.376 229.325C160.849 229.293 161.3 229.183 161.72 228.995C162.14 228.806 162.514 228.558 162.825 228.262C163.135 227.967 163.382 227.621 163.562 227.234C163.738 226.851 163.827 226.436 163.827 226.005C163.827 225.584 163.735 225.166 163.551 224.763C163.368 224.361 163.117 223.996 162.803 223.682C162.493 223.371 162.119 223.119 161.692 222.927C161.272 222.742 160.81 222.647 160.323 222.647H153.408C153.267 222.647 153.238 222.673 153.238 222.798V223.789C153.238 223.914 153.267 223.94 153.408 223.94H160.281C160.598 223.958 160.88 224.028 161.131 224.144C161.381 224.26 161.597 224.414 161.777 224.6C161.95 224.782 162.094 224.993 162.2 225.229C162.306 225.461 162.369 225.713 162.391 225.977V225.992V226.008C162.341 226.549 162.133 227.011 161.777 227.388C161.41 227.778 160.905 227.992 160.284 228.03H153.545C153.45 228.03 153.372 228.052 153.305 228.096C153.27 228.121 153.238 228.152 153.238 228.228V234.427C153.238 234.553 153.267 234.578 153.408 234.578H154.519C154.66 234.578 154.688 234.553 154.688 234.427V229.91C154.688 229.539 154.939 229.319 155.352 229.319H158.435V229.325Z" fill="#111111"/>
<path d="M137.928 228.264C138.161 227.968 138.346 227.622 138.481 227.235C138.613 226.852 138.679 226.437 138.679 226.006C138.679 225.585 138.611 225.166 138.473 224.764C138.335 224.361 138.148 223.997 137.912 223.682C137.679 223.371 137.399 223.119 137.079 222.927C136.761 222.742 136.417 222.647 136.052 222.647H130.865C130.759 222.647 130.738 222.673 130.738 222.798V223.789C130.738 223.915 130.759 223.94 130.865 223.94H136.02C136.258 223.959 136.47 224.028 136.658 224.144C136.846 224.261 137.007 224.415 137.142 224.6C137.272 224.783 137.38 224.993 137.46 225.229C137.539 225.462 137.587 225.713 137.602 225.978V225.993V226.009C137.565 226.55 137.409 227.012 137.142 227.39C136.867 227.78 136.488 227.993 136.023 228.031H130.968C130.897 228.031 130.839 228.053 130.789 228.097C130.762 228.122 130.738 228.154 130.738 228.229V234.43C130.738 234.556 130.759 234.581 130.865 234.581H131.699C131.805 234.581 131.826 234.556 131.826 234.43V229.912C131.826 229.541 132.014 229.32 132.323 229.32L136.092 229.333V229.32C136.446 229.289 136.785 229.179 137.1 228.99C137.415 228.805 137.695 228.559 137.928 228.264Z" fill="#111111"/>
<path d="M166.588 234.581H169.827C170.45 234.581 171.05 234.424 171.603 234.116C172.159 233.808 172.65 233.381 173.066 232.843C173.48 232.309 173.812 231.671 174.053 230.945C174.291 230.222 174.414 229.436 174.414 228.613C174.414 227.981 174.339 227.362 174.19 226.777C174.041 226.19 173.831 225.643 173.564 225.152C173.297 224.662 172.97 224.222 172.592 223.845C172.212 223.468 171.791 223.175 171.336 222.968C170.864 222.754 170.373 222.647 169.875 222.647H166.588C166.492 222.647 166.473 222.673 166.473 222.798V223.788C166.473 223.914 166.492 223.939 166.588 223.939H169.753C170.241 223.983 170.706 224.128 171.146 224.373C171.586 224.618 171.979 224.948 172.313 225.354C172.65 225.762 172.922 226.249 173.122 226.799C173.324 227.356 173.427 227.965 173.427 228.613C173.427 229.251 173.336 229.861 173.158 230.423C172.98 230.986 172.732 231.486 172.416 231.91C172.101 232.334 171.728 232.67 171.307 232.916C170.884 233.164 170.422 233.286 169.94 233.286H167.914C167.63 233.286 167.462 233.063 167.462 232.696V230.741C167.462 230.615 167.442 230.59 167.346 230.59H166.588C166.492 230.59 166.473 230.615 166.473 230.741V234.427C166.473 234.556 166.492 234.581 166.588 234.581Z" fill="#111111"/>
<path d="M51.0652 234.182C51.4641 234.446 51.8948 234.581 52.3447 234.581C52.8433 234.581 53.2656 234.497 53.6008 234.33C53.934 234.163 54.212 233.956 54.4284 233.708C54.6406 233.463 54.804 233.202 54.9143 232.932C55.031 232.643 55.1201 232.366 55.1774 232.112C55.2347 231.86 55.2687 231.65 55.2771 231.486C55.2878 231.317 55.2941 231.216 55.2941 231.182C55.2941 230.695 55.2453 230.27 55.1477 229.928C55.048 229.576 54.9228 229.277 54.7764 229.035C54.6321 228.8 54.4687 228.608 54.2926 228.473C54.0952 228.325 53.9043 228.203 53.7239 228.115C53.5436 228.027 53.3802 227.967 53.2401 227.936C53.0958 227.904 52.9897 227.882 52.9261 227.87C52.9112 227.867 52.8985 227.863 52.8815 227.86H52.8794C52.6439 227.794 52.4274 227.735 52.2322 227.687C52.0031 227.628 51.8015 227.537 51.636 227.417C51.445 227.279 51.2922 227.078 51.1819 226.823C51.0694 226.563 51.0143 226.23 51.0143 225.808C51.0143 225.196 51.1946 224.693 51.5341 224.357C51.8418 224.052 52.2598 223.898 52.7797 223.898C53.0237 223.911 53.2486 223.948 53.4566 224.008C53.6518 224.077 53.8364 224.178 54.0167 224.313C54.0995 224.376 54.178 224.448 54.248 224.533C54.2841 224.574 54.3478 224.567 54.3966 224.517L54.8888 223.98C54.9398 223.926 54.9461 223.851 54.9482 223.81C54.9482 223.769 54.9419 223.691 54.8888 223.631C54.6936 223.405 54.4729 223.21 54.2353 223.053C53.8321 222.783 53.3993 222.647 52.9515 222.647C52.4508 222.647 52.0264 222.726 51.689 222.883C51.3538 223.04 51.0737 223.235 50.8572 223.461C50.6472 223.684 50.4838 223.926 50.3713 224.187C50.2525 224.464 50.1655 224.721 50.1125 224.954C50.0594 225.189 50.0276 225.387 50.017 225.538C50.0064 225.689 50 225.786 50 225.818C50 226.236 50.0446 226.603 50.1337 226.905C50.2249 227.219 50.3395 227.486 50.4753 227.706C50.6111 227.926 50.766 228.112 50.9336 228.253C51.1182 228.407 51.2965 228.533 51.4641 228.627C51.6317 228.721 51.7824 228.79 51.9139 228.828C52.0455 228.869 52.141 228.894 52.2004 228.907C52.2153 228.91 52.2301 228.913 52.2492 228.919C52.4847 228.985 52.7139 229.057 52.9282 229.13C53.168 229.211 53.3823 229.331 53.5711 229.479C53.7791 229.642 53.9467 229.862 54.0719 230.132C54.2035 230.418 54.2692 230.773 54.2692 231.194C54.2692 231.782 54.1037 232.291 53.7791 232.715C53.465 233.123 53.0364 233.328 52.5038 233.328C52.2237 233.328 51.9755 233.277 51.7654 233.18C51.5617 233.086 51.392 232.976 51.254 232.856C51.1607 232.775 51.0822 232.696 51.0164 232.614L50.4201 233.268C50.3692 233.321 50.3628 233.397 50.3607 233.438C50.3607 233.478 50.3671 233.557 50.4201 233.614C50.6132 233.837 50.8318 234.028 51.0652 234.182Z" fill="#111111"/>
<path d="M87.6017 233.689C87.6485 233.776 87.7291 233.787 87.7629 233.787C87.7966 233.787 87.8772 233.776 87.924 233.686L88.4178 232.731C88.4464 232.676 88.4464 232.612 88.4178 232.56L84.023 224.09C83.9918 224.029 83.9294 223.989 83.8619 223.989H82.7963C82.7027 223.989 82.656 224.053 82.6404 224.079C82.6248 224.105 82.591 224.179 82.6352 224.261L87.6017 233.689Z" fill="#111111"/>
<path d="M86.7377 223.989C86.6442 223.989 86.5974 224.053 86.5818 224.079C86.5662 224.105 86.5324 224.177 86.5766 224.261L91.3664 233.679C91.4132 233.771 91.4911 233.781 91.5275 233.779C91.5613 233.779 91.6419 233.768 91.6886 233.681L96.6344 224.264C96.6786 224.179 96.6448 224.108 96.6292 224.082C96.6136 224.055 96.5668 223.992 96.4733 223.992H95.4103C95.3921 223.992 95.3739 223.995 95.3609 224L91.5353 231.668L87.9566 224.071C87.9228 224.024 87.8682 223.995 87.8111 223.995H86.7377V223.989Z" fill="#111111"/>
<path d="M129.223 231.739C129.352 231.651 129.413 231.53 129.413 231.364V225.864C129.413 225.698 129.352 225.577 129.223 225.489L124.973 222.715C124.902 222.67 124.836 222.647 124.776 222.647C124.748 222.647 124.685 222.656 124.568 222.721L120.348 225.489C120.209 225.579 120.148 225.698 120.148 225.864V231.364C120.148 231.533 120.209 231.649 120.348 231.739L124.578 234.513C124.674 234.581 124.755 234.597 124.877 234.566C124.902 234.561 124.93 234.544 124.961 234.521L129.223 231.739ZM124.776 233.372C124.669 233.372 124.566 233.338 124.469 233.274L121.343 231.223C121.146 231.094 121.042 230.894 121.042 230.649V226.579C121.042 226.334 121.146 226.134 121.343 226.005L124.475 223.951C124.733 223.808 124.89 223.83 125.08 223.951L128.226 226.005C128.418 226.137 128.52 226.334 128.52 226.579V230.649C128.52 230.894 128.418 231.091 128.228 231.221L125.08 233.274C125.036 233.31 124.976 233.338 124.917 233.353C124.862 233.367 124.819 233.372 124.776 233.372Z" fill="#111111"/>
<path d="M111.034 222.647H116.026C116.109 222.647 116.175 222.747 116.175 222.864V223.589C116.175 223.71 116.107 223.806 116.026 223.806H111.034C110.951 223.806 110.885 223.707 110.885 223.589V222.864C110.883 222.744 110.951 222.647 111.034 222.647ZM111.032 228.051H115.282C115.365 228.051 115.431 228.147 115.431 228.267V228.992C115.431 229.113 115.365 229.209 115.282 229.209H111.032C110.949 229.209 110.883 229.113 110.883 228.992V228.267C110.883 228.15 110.951 228.051 111.032 228.051ZM111.034 233.423H116.028C116.111 233.423 116.177 233.522 116.177 233.64V234.365C116.177 234.485 116.109 234.581 116.028 234.581H111.034C110.951 234.581 110.885 234.482 110.885 234.365V233.64C110.883 233.522 110.951 233.423 111.034 233.423Z" fill="#111111"/>
<circle cx="220.5" cy="261.5" r="72.5" fill="#FFDE3B"/>
<path d="M220.552 240.04H228.4V279.712H236.608V289H208.672V279.712H217.888V250.84L208.672 254.296V244.576L220.552 240.04Z" fill="#111111"/>
<circle cx="221" cy="261" r="61.75" stroke="#111111" stroke-width="0.5"/>
</svg>
