<svg width="611" height="563" viewBox="0 0 611 563" fill="none" xmlns="http://www.w3.org/2000/svg">
<g opacity="0.8">
<path d="M218.885 336.679L488.273 489.783L270.389 561.792L1.00122 408.688L218.885 336.679Z" stroke="#8F9294" stroke-width="0.8412" stroke-miterlimit="10" stroke-linecap="round" stroke-linejoin="round"/>
<path d="M218.885 336.679L488.273 489.783L270.389 561.792L1.00122 408.688L218.885 336.679Z" stroke="#8F9294" stroke-width="0.8412" stroke-miterlimit="10" stroke-linecap="round" stroke-linejoin="round"/>
<path d="M301.771 19.374L571.119 172.478L353.275 244.486L83.887 91.3827L301.771 19.374Z" stroke="#8F9294" stroke-width="0.8412" stroke-miterlimit="10" stroke-linecap="round" stroke-linejoin="round"/>
<path d="M301.771 19.374L571.119 172.478L353.275 244.486L83.887 91.3827L301.771 19.374Z" stroke="#8F9294" stroke-width="0.8412" stroke-miterlimit="10" stroke-linecap="round" stroke-linejoin="round"/>
<path d="M301.776 19.374L571.124 172.478L488.276 489.782L218.888 336.678L301.776 19.374Z" stroke="#8F9294" stroke-width="0.8412" stroke-miterlimit="10" stroke-linecap="round" stroke-linejoin="round"/>
<path d="M301.776 19.374L571.124 172.478L488.276 489.782L218.888 336.678L301.776 19.374Z" stroke="#8F9294" stroke-width="0.8412" stroke-miterlimit="10" stroke-linecap="round" stroke-linejoin="round"/>
<path d="M353.277 244.485L270.389 561.789L1.00122 408.685L83.8898 91.3809L353.277 244.485Z" stroke="#8F9294" stroke-width="0.8412" stroke-miterlimit="10" stroke-linecap="round" stroke-linejoin="round"/>
<path d="M353.277 244.485L270.389 561.789L1.00122 408.685L83.8898 91.3809L353.277 244.485Z" stroke="#8F9294" stroke-width="0.8412" stroke-miterlimit="10" stroke-linecap="round" stroke-linejoin="round"/>
<path d="M83.8885 91.3841L301.773 19.3755L218.884 336.68L1 408.688L83.8885 91.3841Z" stroke="#8F9294" stroke-width="0.8412" stroke-miterlimit="10" stroke-linecap="round" stroke-linejoin="round"/>
<path d="M83.8885 91.3841L301.773 19.3755L218.884 336.68L1 408.688L83.8885 91.3841Z" stroke="#8F9294" stroke-width="0.8412" stroke-miterlimit="10" stroke-linecap="round" stroke-linejoin="round"/>
<path d="M571.118 172.481L488.27 489.785L270.386 561.794L353.274 244.49L571.118 172.481Z" stroke="#FAFF00" stroke-width="0.8412" stroke-miterlimit="10" stroke-linecap="round" stroke-linejoin="round"/>
<path d="M571.118 172.481L488.27 489.785L270.386 561.794L353.274 244.49L571.118 172.481Z" stroke="#FAFF00" stroke-width="0.8412" stroke-miterlimit="10" stroke-linecap="round" stroke-linejoin="round"/>
<path d="M321.332 19.0577C321.332 29.5917 312.802 38.1153 302.26 38.1153C291.718 38.1153 283.188 29.5917 283.188 19.0577C283.188 8.52375 291.718 0 302.26 0C312.802 0 321.332 8.52375 321.332 19.0577Z" fill="#3E1BDB"/>
<path opacity="0.57" d="M611 210.971L536.561 495.87L340.928 560.561L415.367 275.622L611 210.971Z" fill="#323247"/>
</g>
</svg>
