<svg width="344" height="56" viewBox="0 0 344 56" fill="none" xmlns="http://www.w3.org/2000/svg">
<rect x="1" y="1" width="158" height="54" rx="11" fill="white" fill-opacity="0.4" stroke="#6BDA00" stroke-width="2"/>
<path d="M54.584 33V21.8H59.352C60.664 21.8 61.64 22.1307 62.28 22.792C62.76 23.2933 63 23.9013 63 24.616C63 25.832 62.408 26.696 61.224 27.208C62.824 27.688 63.624 28.6 63.624 29.944C63.624 30.8933 63.256 31.64 62.52 32.184C61.784 32.728 60.7973 33 59.56 33H54.584ZM55.832 26.792H59.144C59.9227 26.792 60.5467 26.616 61.016 26.264C61.4853 25.912 61.72 25.4107 61.72 24.76C61.72 24.1947 61.5013 23.752 61.064 23.432C60.6373 23.1013 60.0293 22.936 59.24 22.936H55.832V26.792ZM55.832 31.864H59.592C60.4453 31.864 61.1173 31.688 61.608 31.336C62.0987 30.9733 62.344 30.472 62.344 29.832C62.344 29.2133 62.088 28.7387 61.576 28.408C61.0747 28.0773 60.3387 27.912 59.368 27.912H55.832V31.864ZM68.4829 33.176C67.5015 33.176 66.7282 32.8773 66.1629 32.28C65.5975 31.672 65.3149 30.8667 65.3149 29.864V24.728H66.5469V29.56C66.5469 30.3387 66.7442 30.952 67.1389 31.4C67.5442 31.8373 68.1095 32.056 68.8349 32.056C69.5495 32.056 70.1415 31.816 70.6109 31.336C71.0802 30.856 71.3149 30.232 71.3149 29.464V24.728H72.5309V33H71.3149V31.56C70.6429 32.6373 69.6989 33.176 68.4829 33.176ZM76.1023 35.608C75.5049 35.608 74.9183 35.4693 74.3423 35.192L74.7583 34.216C75.1529 34.4187 75.5849 34.52 76.0543 34.52C76.4276 34.52 76.7423 34.4027 76.9983 34.168C77.2543 33.944 77.5049 33.544 77.7503 32.968L73.9903 24.728H75.3503L78.3583 31.624L81.0143 24.728H82.3263L78.8543 33.272C78.5023 34.1147 78.1129 34.712 77.6863 35.064C77.2596 35.4267 76.7316 35.608 76.1023 35.608Z" fill="#6BDA00"/>
<path d="M104.4 27.4H99.6V22.6C99.6 22.2688 99.3312 22 98.9999 22C98.6688 22 98.4 22.2688 98.4 22.6V27.4H93.6C93.2688 27.4 93 27.6688 93 27.9999C93 28.3312 93.2688 28.6 93.6 28.6H98.4V33.3999C98.4 33.7312 98.6688 34 98.9999 34C99.3312 34 99.6 33.7312 99.6 33.3999V28.6H104.4C104.731 28.6 105 28.3312 105 27.9999C105 27.6688 104.731 27.4 104.4 27.4Z" fill="#6BDA00"/>
<rect x="185" y="1" width="158" height="54" rx="11" fill="white" fill-opacity="0.4" stroke="#FF0000" stroke-width="2"/>
<path d="M245.424 32.16C243.707 32.16 242.181 31.5627 240.848 30.368L241.632 29.44C242.229 29.984 242.827 30.384 243.424 30.64C244.032 30.896 244.715 31.024 245.472 31.024C246.219 31.024 246.821 30.848 247.28 30.496C247.739 30.1333 247.968 29.664 247.968 29.088C247.968 28.544 247.765 28.112 247.36 27.792C246.955 27.472 246.187 27.1947 245.056 26.96C243.723 26.672 242.763 26.2827 242.176 25.792C241.589 25.3013 241.296 24.6027 241.296 23.696C241.296 22.8107 241.643 22.08 242.336 21.504C243.029 20.928 243.909 20.64 244.976 20.64C246.459 20.64 247.771 21.0987 248.912 22.016L248.176 22.992C247.184 22.1813 246.107 21.776 244.944 21.776C244.229 21.776 243.653 21.952 243.216 22.304C242.779 22.6453 242.56 23.0827 242.56 23.616C242.56 24.1707 242.768 24.608 243.184 24.928C243.611 25.248 244.416 25.536 245.6 25.792C246.869 26.0693 247.792 26.4587 248.368 26.96C248.955 27.4507 249.248 28.128 249.248 28.992C249.248 29.9413 248.891 30.7093 248.176 31.296C247.461 31.872 246.544 32.16 245.424 32.16ZM251.866 28.368C251.952 29.2107 252.266 29.8827 252.81 30.384C253.365 30.8747 254.021 31.12 254.778 31.12C255.77 31.12 256.64 30.7307 257.386 29.952L258.154 30.64C257.226 31.6747 256.09 32.192 254.746 32.192C253.584 32.192 252.602 31.792 251.802 30.992C251.013 30.1813 250.618 29.1413 250.618 27.872C250.618 26.6667 250.997 25.648 251.754 24.816C252.512 23.9733 253.456 23.552 254.586 23.552C255.77 23.552 256.709 23.968 257.402 24.8C258.096 25.632 258.442 26.6773 258.442 27.936C258.442 28.096 258.437 28.24 258.426 28.368H251.866ZM251.866 27.376H257.194C257.12 26.576 256.853 25.9147 256.394 25.392C255.946 24.8587 255.333 24.592 254.554 24.592C253.85 24.592 253.248 24.8533 252.746 25.376C252.245 25.8987 251.952 26.5653 251.866 27.376ZM260.231 32V20.32H261.463V32H260.231ZM263.954 32V20.32H265.186V32H263.954Z" fill="#FF0000"/>
<rect x="275" y="26.4" width="14" height="2.13333" rx="1.06667" fill="#FF0000"/>
</svg>
