<svg width="160" height="56" viewBox="0 0 160 56" fill="none" xmlns="http://www.w3.org/2000/svg">
<rect x="1" y="1" width="158" height="54" rx="11" fill="white" fill-opacity="0.4" stroke="#6BDA00" stroke-width="2"/>
<path d="M54.584 33V21.8H59.352C60.664 21.8 61.64 22.1307 62.28 22.792C62.76 23.2933 63 23.9013 63 24.616C63 25.832 62.408 26.696 61.224 27.208C62.824 27.688 63.624 28.6 63.624 29.944C63.624 30.8933 63.256 31.64 62.52 32.184C61.784 32.728 60.7973 33 59.56 33H54.584ZM55.832 26.792H59.144C59.9227 26.792 60.5467 26.616 61.016 26.264C61.4853 25.912 61.72 25.4107 61.72 24.76C61.72 24.1947 61.5013 23.752 61.064 23.432C60.6373 23.1013 60.0293 22.936 59.24 22.936H55.832V26.792ZM55.832 31.864H59.592C60.4453 31.864 61.1173 31.688 61.608 31.336C62.0987 30.9733 62.344 30.472 62.344 29.832C62.344 29.2133 62.088 28.7387 61.576 28.408C61.0747 28.0773 60.3387 27.912 59.368 27.912H55.832V31.864ZM68.4829 33.176C67.5015 33.176 66.7282 32.8773 66.1629 32.28C65.5975 31.672 65.3149 30.8667 65.3149 29.864V24.728H66.5469V29.56C66.5469 30.3387 66.7442 30.952 67.1389 31.4C67.5442 31.8373 68.1095 32.056 68.8349 32.056C69.5495 32.056 70.1415 31.816 70.6109 31.336C71.0802 30.856 71.3149 30.232 71.3149 29.464V24.728H72.5309V33H71.3149V31.56C70.6429 32.6373 69.6989 33.176 68.4829 33.176ZM76.1023 35.608C75.5049 35.608 74.9183 35.4693 74.3423 35.192L74.7583 34.216C75.1529 34.4187 75.5849 34.52 76.0543 34.52C76.4276 34.52 76.7423 34.4027 76.9983 34.168C77.2543 33.944 77.5049 33.544 77.7503 32.968L73.9903 24.728H75.3503L78.3583 31.624L81.0143 24.728H82.3263L78.8543 33.272C78.5023 34.1147 78.1129 34.712 77.6863 35.064C77.2596 35.4267 76.7316 35.608 76.1023 35.608Z" fill="#6BDA00"/>
<path d="M104.4 27.4H99.6V22.6C99.6 22.2688 99.3312 22 98.9999 22C98.6688 22 98.4 22.2688 98.4 22.6V27.4H93.6C93.2688 27.4 93 27.6688 93 27.9999C93 28.3312 93.2688 28.6 93.6 28.6H98.4V33.3999C98.4 33.7312 98.6688 34 98.9999 34C99.3312 34 99.6 33.7312 99.6 33.3999V28.6H104.4C104.731 28.6 105 28.3312 105 27.9999C105 27.6688 104.731 27.4 104.4 27.4Z" fill="#6BDA00"/>
</svg>
