<svg width="651" height="425" viewBox="0 0 651 425" fill="none" xmlns="http://www.w3.org/2000/svg">
<rect x="191.75" y="0.75" width="458.5" height="289.5" rx="11.25" fill="white" stroke="#111111" stroke-width="1.5"/>
<path d="M596.804 208.56H595.964V207.12C595.036 207.032 594.24 206.8 593.576 206.424V205.416C594.416 205.928 595.392 206.184 596.504 206.184C597.864 206.184 598.544 205.768 598.544 204.936C598.544 204.632 598.452 204.376 598.268 204.168C598.092 203.952 597.856 203.784 597.56 203.664C597.272 203.544 596.952 203.436 596.6 203.34C596.248 203.244 595.896 203.14 595.544 203.028C595.192 202.908 594.868 202.772 594.572 202.62C594.284 202.46 594.048 202.236 593.864 201.948C593.688 201.66 593.6 201.316 593.6 200.916C593.6 200.284 593.82 199.78 594.26 199.404C594.7 199.028 595.268 198.8 595.964 198.72V197.28H596.804V198.708C597.676 198.756 598.416 198.956 599.024 199.308V200.316C598.32 199.86 597.496 199.64 596.552 199.656C595.264 199.656 594.62 200.064 594.62 200.88C594.62 201.168 594.708 201.412 594.884 201.612C595.068 201.812 595.304 201.968 595.592 202.08C595.888 202.192 596.212 202.296 596.564 202.392C596.916 202.48 597.268 202.584 597.62 202.704C597.972 202.824 598.292 202.964 598.58 203.124C598.876 203.284 599.112 203.512 599.288 203.808C599.472 204.104 599.564 204.456 599.564 204.864C599.564 205.616 599.308 206.18 598.796 206.556C598.284 206.924 597.62 207.12 596.804 207.144V208.56ZM602.72 205.98C602.112 205.204 601.808 204.184 601.808 202.92C601.808 201.656 602.112 200.636 602.72 199.86C603.328 199.084 604.224 198.696 605.408 198.696C606.6 198.696 607.5 199.084 608.108 199.86C608.716 200.628 609.02 201.648 609.02 202.92C609.02 204.192 608.716 205.216 608.108 205.992C607.5 206.76 606.6 207.144 605.408 207.144C604.224 207.144 603.328 206.756 602.72 205.98ZM607.352 205.344C607.784 204.776 608 203.968 608 202.92C608 201.872 607.784 201.068 607.352 200.508C606.928 199.94 606.28 199.656 605.408 199.656C604.536 199.656 603.888 199.94 603.464 200.508C603.04 201.068 602.828 201.872 602.828 202.92C602.828 203.968 603.04 204.776 603.464 205.344C603.888 205.904 604.536 206.184 605.408 206.184C606.28 206.184 606.928 205.904 607.352 205.344Z" fill="#111111"/>
<path d="M225.804 280.56H224.964V279.12C224.036 279.032 223.24 278.8 222.576 278.424V277.416C223.416 277.928 224.392 278.184 225.504 278.184C226.864 278.184 227.544 277.768 227.544 276.936C227.544 276.632 227.452 276.376 227.268 276.168C227.092 275.952 226.856 275.784 226.56 275.664C226.272 275.544 225.952 275.436 225.6 275.34C225.248 275.244 224.896 275.14 224.544 275.028C224.192 274.908 223.868 274.772 223.572 274.62C223.284 274.46 223.048 274.236 222.864 273.948C222.688 273.66 222.6 273.316 222.6 272.916C222.6 272.284 222.82 271.78 223.26 271.404C223.7 271.028 224.268 270.8 224.964 270.72V269.28H225.804V270.708C226.676 270.756 227.416 270.956 228.024 271.308V272.316C227.32 271.86 226.496 271.64 225.552 271.656C224.264 271.656 223.62 272.064 223.62 272.88C223.62 273.168 223.708 273.412 223.884 273.612C224.068 273.812 224.304 273.968 224.592 274.08C224.888 274.192 225.212 274.296 225.564 274.392C225.916 274.48 226.268 274.584 226.62 274.704C226.972 274.824 227.292 274.964 227.58 275.124C227.876 275.284 228.112 275.512 228.288 275.808C228.472 276.104 228.564 276.456 228.564 276.864C228.564 277.616 228.308 278.18 227.796 278.556C227.284 278.924 226.62 279.12 225.804 279.144V280.56ZM234.948 270.84H236.04V276.252H237.576V277.188H236.04V279H235.044V277.188H230.496V276.288L234.948 270.84ZM235.044 276.252V272.196L231.732 276.252H235.044ZM240.258 270.84H245.154V271.8H241.206L241.062 274.104C241.494 273.984 241.958 273.924 242.454 273.924C242.862 273.924 243.242 273.972 243.594 274.068C243.946 274.156 244.27 274.3 244.566 274.5C244.87 274.692 245.11 274.964 245.286 275.316C245.462 275.66 245.55 276.068 245.55 276.54C245.55 277.348 245.25 277.984 244.65 278.448C244.058 278.912 243.302 279.144 242.382 279.144C241.39 279.144 240.518 278.96 239.766 278.592V277.632C240.486 278.016 241.318 278.208 242.262 278.208C242.95 278.208 243.498 278.064 243.906 277.776C244.322 277.488 244.53 277.076 244.53 276.54C244.53 275.404 243.722 274.836 242.106 274.836C241.402 274.836 240.698 274.964 239.994 275.22L240.258 270.84ZM248.804 277.98C248.196 277.204 247.892 276.184 247.892 274.92C247.892 273.656 248.196 272.636 248.804 271.86C249.412 271.084 250.308 270.696 251.492 270.696C252.684 270.696 253.584 271.084 254.192 271.86C254.8 272.628 255.104 273.648 255.104 274.92C255.104 276.192 254.8 277.216 254.192 277.992C253.584 278.76 252.684 279.144 251.492 279.144C250.308 279.144 249.412 278.756 248.804 277.98ZM253.436 277.344C253.868 276.776 254.084 275.968 254.084 274.92C254.084 273.872 253.868 273.068 253.436 272.508C253.012 271.94 252.364 271.656 251.492 271.656C250.62 271.656 249.972 271.94 249.548 272.508C249.124 273.068 248.912 273.872 248.912 274.92C248.912 275.968 249.124 276.776 249.548 277.344C249.972 277.904 250.62 278.184 251.492 278.184C252.364 278.184 253.012 277.904 253.436 277.344Z" fill="black" fill-opacity="0.7"/>
<path d="M369.804 279.56H368.964V278.12C368.036 278.032 367.24 277.8 366.576 277.424V276.416C367.416 276.928 368.392 277.184 369.504 277.184C370.864 277.184 371.544 276.768 371.544 275.936C371.544 275.632 371.452 275.376 371.268 275.168C371.092 274.952 370.856 274.784 370.56 274.664C370.272 274.544 369.952 274.436 369.6 274.34C369.248 274.244 368.896 274.14 368.544 274.028C368.192 273.908 367.868 273.772 367.572 273.62C367.284 273.46 367.048 273.236 366.864 272.948C366.688 272.66 366.6 272.316 366.6 271.916C366.6 271.284 366.82 270.78 367.26 270.404C367.7 270.028 368.268 269.8 368.964 269.72V268.28H369.804V269.708C370.676 269.756 371.416 269.956 372.024 270.308V271.316C371.32 270.86 370.496 270.64 369.552 270.656C368.264 270.656 367.62 271.064 367.62 271.88C367.62 272.168 367.708 272.412 367.884 272.612C368.068 272.812 368.304 272.968 368.592 273.08C368.888 273.192 369.212 273.296 369.564 273.392C369.916 273.48 370.268 273.584 370.62 273.704C370.972 273.824 371.292 273.964 371.58 274.124C371.876 274.284 372.112 274.512 372.288 274.808C372.472 275.104 372.564 275.456 372.564 275.864C372.564 276.616 372.308 277.18 371.796 277.556C371.284 277.924 370.62 278.12 369.804 278.144V279.56ZM375.324 269.84H380.22V270.8H376.272L376.128 273.104C376.56 272.984 377.024 272.924 377.52 272.924C377.928 272.924 378.308 272.972 378.66 273.068C379.012 273.156 379.336 273.3 379.632 273.5C379.936 273.692 380.176 273.964 380.352 274.316C380.528 274.66 380.616 275.068 380.616 275.54C380.616 276.348 380.316 276.984 379.716 277.448C379.124 277.912 378.368 278.144 377.448 278.144C376.456 278.144 375.584 277.96 374.832 277.592V276.632C375.552 277.016 376.384 277.208 377.328 277.208C378.016 277.208 378.564 277.064 378.972 276.776C379.388 276.488 379.596 276.076 379.596 275.54C379.596 274.404 378.788 273.836 377.172 273.836C376.468 273.836 375.764 273.964 375.06 274.22L375.324 269.84ZM383.473 269.84H388.369V270.8H384.421L384.277 273.104C384.709 272.984 385.173 272.924 385.669 272.924C386.077 272.924 386.457 272.972 386.809 273.068C387.161 273.156 387.485 273.3 387.781 273.5C388.085 273.692 388.325 273.964 388.501 274.316C388.677 274.66 388.765 275.068 388.765 275.54C388.765 276.348 388.465 276.984 387.865 277.448C387.273 277.912 386.517 278.144 385.597 278.144C384.605 278.144 383.733 277.96 382.981 277.592V276.632C383.701 277.016 384.533 277.208 385.477 277.208C386.165 277.208 386.713 277.064 387.121 276.776C387.537 276.488 387.745 276.076 387.745 275.54C387.745 274.404 386.937 273.836 385.321 273.836C384.617 273.836 383.913 273.964 383.209 274.22L383.473 269.84ZM392.019 276.98C391.411 276.204 391.107 275.184 391.107 273.92C391.107 272.656 391.411 271.636 392.019 270.86C392.627 270.084 393.523 269.696 394.707 269.696C395.899 269.696 396.799 270.084 397.407 270.86C398.015 271.628 398.319 272.648 398.319 273.92C398.319 275.192 398.015 276.216 397.407 276.992C396.799 277.76 395.899 278.144 394.707 278.144C393.523 278.144 392.627 277.756 392.019 276.98ZM396.651 276.344C397.083 275.776 397.299 274.968 397.299 273.92C397.299 272.872 397.083 272.068 396.651 271.508C396.227 270.94 395.579 270.656 394.707 270.656C393.835 270.656 393.187 270.94 392.763 271.508C392.339 272.068 392.127 272.872 392.127 273.92C392.127 274.968 392.339 275.776 392.763 276.344C393.187 276.904 393.835 277.184 394.707 277.184C395.579 277.184 396.227 276.904 396.651 276.344Z" fill="black" fill-opacity="0.7"/>
<path d="M596.804 55.56H595.964V54.12C595.036 54.032 594.24 53.8 593.576 53.424V52.416C594.416 52.928 595.392 53.184 596.504 53.184C597.864 53.184 598.544 52.768 598.544 51.936C598.544 51.632 598.452 51.376 598.268 51.168C598.092 50.952 597.856 50.784 597.56 50.664C597.272 50.544 596.952 50.436 596.6 50.34C596.248 50.244 595.896 50.14 595.544 50.028C595.192 49.908 594.868 49.772 594.572 49.62C594.284 49.46 594.048 49.236 593.864 48.948C593.688 48.66 593.6 48.316 593.6 47.916C593.6 47.284 593.82 46.78 594.26 46.404C594.7 46.028 595.268 45.8 595.964 45.72V44.28H596.804V45.708C597.676 45.756 598.416 45.956 599.024 46.308V47.316C598.32 46.86 597.496 46.64 596.552 46.656C595.264 46.656 594.62 47.064 594.62 47.88C594.62 48.168 594.708 48.412 594.884 48.612C595.068 48.812 595.304 48.968 595.592 49.08C595.888 49.192 596.212 49.296 596.564 49.392C596.916 49.48 597.268 49.584 597.62 49.704C597.972 49.824 598.292 49.964 598.58 50.124C598.876 50.284 599.112 50.512 599.288 50.808C599.472 51.104 599.564 51.456 599.564 51.864C599.564 52.616 599.308 53.18 598.796 53.556C598.284 53.924 597.62 54.12 596.804 54.144V55.56ZM603.812 45.84H604.556V53.04H606.08V54H601.832V53.04H603.548V46.908L601.832 47.556V46.596L603.812 45.84ZM608.584 55.8H607.804L608.464 53.04H609.484L608.584 55.8ZM612.608 52.98C612 52.204 611.696 51.184 611.696 49.92C611.696 48.656 612 47.636 612.608 46.86C613.216 46.084 614.112 45.696 615.296 45.696C616.488 45.696 617.388 46.084 617.996 46.86C618.604 47.628 618.908 48.648 618.908 49.92C618.908 51.192 618.604 52.216 617.996 52.992C617.388 53.76 616.488 54.144 615.296 54.144C614.112 54.144 613.216 53.756 612.608 52.98ZM617.24 52.344C617.672 51.776 617.888 50.968 617.888 49.92C617.888 48.872 617.672 48.068 617.24 47.508C616.816 46.94 616.168 46.656 615.296 46.656C614.424 46.656 613.776 46.94 613.352 47.508C612.928 48.068 612.716 48.872 612.716 49.92C612.716 50.968 612.928 51.776 613.352 52.344C613.776 52.904 614.424 53.184 615.296 53.184C616.168 53.184 616.816 52.904 617.24 52.344ZM622.246 52.98C621.638 52.204 621.334 51.184 621.334 49.92C621.334 48.656 621.638 47.636 622.246 46.86C622.854 46.084 623.75 45.696 624.934 45.696C626.126 45.696 627.026 46.084 627.634 46.86C628.242 47.628 628.546 48.648 628.546 49.92C628.546 51.192 628.242 52.216 627.634 52.992C627.026 53.76 626.126 54.144 624.934 54.144C623.75 54.144 622.854 53.756 622.246 52.98ZM626.878 52.344C627.31 51.776 627.526 50.968 627.526 49.92C627.526 48.872 627.31 48.068 626.878 47.508C626.454 46.94 625.806 46.656 624.934 46.656C624.062 46.656 623.414 46.94 622.99 47.508C622.566 48.068 622.354 48.872 622.354 49.92C622.354 50.968 622.566 51.776 622.99 52.344C623.414 52.904 624.062 53.184 624.934 53.184C625.806 53.184 626.454 52.904 626.878 52.344ZM631.883 52.98C631.275 52.204 630.971 51.184 630.971 49.92C630.971 48.656 631.275 47.636 631.883 46.86C632.491 46.084 633.387 45.696 634.571 45.696C635.763 45.696 636.663 46.084 637.271 46.86C637.879 47.628 638.183 48.648 638.183 49.92C638.183 51.192 637.879 52.216 637.271 52.992C636.663 53.76 635.763 54.144 634.571 54.144C633.387 54.144 632.491 53.756 631.883 52.98ZM636.515 52.344C636.947 51.776 637.163 50.968 637.163 49.92C637.163 48.872 636.947 48.068 636.515 47.508C636.091 46.94 635.443 46.656 634.571 46.656C633.699 46.656 633.051 46.94 632.627 47.508C632.203 48.068 631.991 48.872 631.991 49.92C631.991 50.968 632.203 51.776 632.627 52.344C633.051 52.904 633.699 53.184 634.571 53.184C635.443 53.184 636.091 52.904 636.515 52.344Z" fill="#111111"/>
<path d="M212.632 26.08H210.888V24.176C209.661 24.0587 208.589 23.7387 207.672 23.216V20.928C208.867 21.7173 210.205 22.112 211.688 22.112C212.371 22.112 212.877 22.032 213.208 21.872C213.549 21.7013 213.72 21.424 213.72 21.04C213.72 20.7627 213.608 20.5227 213.384 20.32C213.171 20.1173 212.888 19.9573 212.536 19.84C212.184 19.712 211.795 19.5893 211.368 19.472C210.941 19.344 210.515 19.2 210.088 19.04C209.661 18.8693 209.272 18.672 208.92 18.448C208.568 18.2133 208.28 17.8933 208.056 17.488C207.843 17.0827 207.736 16.6133 207.736 16.08C207.736 15.1733 208.024 14.4587 208.6 13.936C209.176 13.4027 209.939 13.072 210.888 12.944V11.04H212.632V12.96C213.763 13.0667 214.707 13.3333 215.464 13.76V16C214.515 15.3173 213.363 14.9867 212.008 15.008C210.792 15.0293 210.184 15.376 210.184 16.048C210.184 16.304 210.291 16.528 210.504 16.72C210.728 16.9013 211.016 17.0507 211.368 17.168C211.731 17.2853 212.125 17.4027 212.552 17.52C212.979 17.6373 213.4 17.7813 213.816 17.952C214.243 18.1227 214.632 18.3253 214.984 18.56C215.347 18.784 215.635 19.0987 215.848 19.504C216.072 19.9093 216.184 20.384 216.184 20.928C216.184 21.9733 215.859 22.7573 215.208 23.28C214.568 23.8027 213.709 24.1067 212.632 24.192V26.08ZM219.712 13.104H226.624V15.168L221.872 15.152L221.728 17.28C222.24 17.1733 222.709 17.12 223.136 17.12C224.309 17.12 225.264 17.4027 226 17.968C226.746 18.5333 227.12 19.408 227.12 20.592C227.12 21.7867 226.677 22.6933 225.792 23.312C224.906 23.92 223.813 24.224 222.512 24.224C221.189 24.224 220.021 23.9787 219.008 23.488V21.264C219.914 21.84 220.992 22.128 222.24 22.128C222.986 22.128 223.584 21.9947 224.032 21.728C224.49 21.4613 224.72 21.072 224.72 20.56C224.72 19.4933 223.834 18.96 222.064 18.96C221.104 18.96 220.192 19.1147 219.328 19.424L219.712 13.104ZM230.733 13.104H237.645V15.168L232.893 15.152L232.749 17.28C233.261 17.1733 233.731 17.12 234.157 17.12C235.331 17.12 236.285 17.4027 237.021 17.968C237.768 18.5333 238.141 19.408 238.141 20.592C238.141 21.7867 237.699 22.6933 236.813 23.312C235.928 23.92 234.835 24.224 233.533 24.224C232.211 24.224 231.043 23.9787 230.029 23.488V21.264C230.936 21.84 232.013 22.128 233.261 22.128C234.008 22.128 234.605 21.9947 235.053 21.728C235.512 21.4613 235.741 21.072 235.741 20.56C235.741 19.4933 234.856 18.96 233.085 18.96C232.125 18.96 231.213 19.1147 230.349 19.424L230.733 13.104ZM242.251 22.656C241.43 21.6 241.019 20.2347 241.019 18.56C241.019 16.8853 241.43 15.5253 242.251 14.48C243.083 13.424 244.326 12.896 245.979 12.896C247.633 12.896 248.87 13.424 249.691 14.48C250.523 15.5253 250.939 16.8853 250.939 18.56C250.939 20.2347 250.523 21.6 249.691 22.656C248.87 23.7013 247.633 24.224 245.979 24.224C244.326 24.224 243.083 23.7013 242.251 22.656ZM245.979 22.112C247.686 22.112 248.539 20.928 248.539 18.56C248.539 16.192 247.686 15.008 245.979 15.008C244.273 15.008 243.419 16.192 243.419 18.56C243.419 20.928 244.273 22.112 245.979 22.112Z" fill="#111111"/>
<path d="M270.008 37.56H268.952V36.132C268.024 36.028 267.224 35.792 266.552 35.424V34.08C267.416 34.632 268.404 34.908 269.516 34.908C270.724 34.908 271.328 34.56 271.328 33.864C271.328 33.56 271.208 33.308 270.968 33.108C270.736 32.9 270.444 32.748 270.092 32.652C269.748 32.556 269.368 32.44 268.952 32.304C268.544 32.168 268.164 32.024 267.812 31.872C267.468 31.72 267.176 31.484 266.936 31.164C266.704 30.836 266.588 30.44 266.588 29.976C266.588 29.32 266.804 28.8 267.236 28.416C267.676 28.032 268.248 27.8 268.952 27.72V26.28H270.008V27.708C270.88 27.772 271.604 27.976 272.18 28.32V29.628C271.468 29.148 270.628 28.916 269.66 28.932C268.54 28.932 267.98 29.272 267.98 29.952C267.98 30.232 268.096 30.468 268.328 30.66C268.568 30.852 268.86 30.996 269.204 31.092C269.556 31.18 269.936 31.292 270.344 31.428C270.76 31.564 271.14 31.712 271.484 31.872C271.836 32.024 272.128 32.264 272.36 32.592C272.6 32.92 272.72 33.32 272.72 33.792C272.72 34.552 272.472 35.124 271.976 35.508C271.48 35.884 270.824 36.096 270.008 36.144V37.56ZM278.957 27.84H280.361V33.144H281.765V34.332H280.361V36H279.041V34.332H274.613V33.168L278.957 27.84ZM279.041 33.144V29.58L276.137 33.144H279.041ZM284.422 27.84H289.45V29.064H285.682L285.562 31.032C285.954 30.936 286.366 30.888 286.798 30.888C287.67 30.888 288.394 31.1 288.97 31.524C289.546 31.94 289.834 32.596 289.834 33.492C289.834 34.34 289.518 34.996 288.886 35.46C288.262 35.924 287.478 36.156 286.534 36.156C285.55 36.156 284.678 35.972 283.918 35.604V34.32C284.606 34.72 285.426 34.92 286.378 34.92C287.002 34.92 287.502 34.796 287.878 34.548C288.262 34.3 288.454 33.944 288.454 33.48C288.454 32.504 287.714 32.016 286.234 32.016C285.546 32.016 284.854 32.136 284.158 32.376L284.422 27.84ZM293.026 34.992C292.41 34.208 292.102 33.184 292.102 31.92C292.102 30.656 292.41 29.636 293.026 28.86C293.642 28.076 294.554 27.684 295.762 27.684C296.97 27.684 297.882 28.076 298.498 28.86C299.114 29.636 299.422 30.656 299.422 31.92C299.422 33.184 299.114 34.208 298.498 34.992C297.882 35.768 296.97 36.156 295.762 36.156C294.554 36.156 293.642 35.768 293.026 34.992ZM295.762 34.908C297.282 34.908 298.042 33.912 298.042 31.92C298.042 29.928 297.282 28.932 295.762 28.932C294.242 28.932 293.482 29.928 293.482 31.92C293.482 33.912 294.242 34.908 295.762 34.908Z" fill="#111111"/>
<rect x="207" y="30" width="48" height="7" fill="#FAFF00"/>
<rect x="222" y="248" width="86" height="9" rx="3" fill="#FAFF00"/>
<rect x="362" y="248" width="86" height="9" rx="3" fill="#FAFF00"/>
<path d="M428 117C431.065 115.782 499.011 77.6629 513.826 69.0341L541.413 56.4716L569 50" stroke="#888888" stroke-width="2" stroke-dasharray="9 9"/>
<path d="M226 206L290.915 158.717L337.883 141.317L405.471 137.157L428 119V206H226Z" fill="url(#paint0_linear_1_3481)"/>
<path d="M225 207L289.915 159.174L337.265 141.574L404.471 137.365L427 119" stroke="#FAFF00" stroke-width="1.5"/>
<path d="M427.384 118.793L514.886 69.4889L541.368 57.5481L569 51V207H427L427.384 118.793Z" fill="url(#paint1_linear_1_3481)"/>
<path d="M224.616 212.84H225.36V220.04H226.884V221H222.636V220.04H224.352V213.908L222.636 214.556V213.596L224.616 212.84Z" fill="#111111"/>
<path d="M272.128 212.84H277.024V213.8H273.076L272.932 216.104C273.364 215.984 273.828 215.924 274.324 215.924C274.732 215.924 275.112 215.972 275.464 216.068C275.816 216.156 276.14 216.3 276.436 216.5C276.74 216.692 276.98 216.964 277.156 217.316C277.332 217.66 277.42 218.068 277.42 218.54C277.42 219.348 277.12 219.984 276.52 220.448C275.928 220.912 275.172 221.144 274.252 221.144C273.26 221.144 272.388 220.96 271.636 220.592V219.632C272.356 220.016 273.188 220.208 274.132 220.208C274.82 220.208 275.368 220.064 275.776 219.776C276.192 219.488 276.4 219.076 276.4 218.54C276.4 217.404 275.592 216.836 273.976 216.836C273.272 216.836 272.568 216.964 271.864 217.22L272.128 212.84Z" fill="#111111"/>
<path d="M324.616 212.84H325.36V220.04H326.884V221H322.636V220.04H324.352V213.908L322.636 214.556V213.596L324.616 212.84ZM329.88 219.98C329.272 219.204 328.968 218.184 328.968 216.92C328.968 215.656 329.272 214.636 329.88 213.86C330.488 213.084 331.384 212.696 332.568 212.696C333.76 212.696 334.66 213.084 335.268 213.86C335.876 214.628 336.18 215.648 336.18 216.92C336.18 218.192 335.876 219.216 335.268 219.992C334.66 220.76 333.76 221.144 332.568 221.144C331.384 221.144 330.488 220.756 329.88 219.98ZM334.512 219.344C334.944 218.776 335.16 217.968 335.16 216.92C335.16 215.872 334.944 215.068 334.512 214.508C334.088 213.94 333.44 213.656 332.568 213.656C331.696 213.656 331.048 213.94 330.624 214.508C330.2 215.068 329.988 215.872 329.988 216.92C329.988 217.968 330.2 218.776 330.624 219.344C331.048 219.904 331.696 220.184 332.568 220.184C333.44 220.184 334.088 219.904 334.512 219.344Z" fill="#111111"/>
<path d="M383.616 212.84H384.36V220.04H385.884V221H381.636V220.04H383.352V213.908L381.636 214.556V213.596L383.616 212.84ZM388.484 212.84H393.38V213.8H389.432L389.288 216.104C389.72 215.984 390.184 215.924 390.68 215.924C391.088 215.924 391.468 215.972 391.82 216.068C392.172 216.156 392.496 216.3 392.792 216.5C393.096 216.692 393.336 216.964 393.512 217.316C393.688 217.66 393.776 218.068 393.776 218.54C393.776 219.348 393.476 219.984 392.876 220.448C392.284 220.912 391.528 221.144 390.608 221.144C389.616 221.144 388.744 220.96 387.992 220.592V219.632C388.712 220.016 389.544 220.208 390.488 220.208C391.176 220.208 391.724 220.064 392.132 219.776C392.548 219.488 392.756 219.076 392.756 218.54C392.756 217.404 391.948 216.836 390.332 216.836C389.628 216.836 388.924 216.964 388.22 217.22L388.484 212.84Z" fill="#111111"/>
<path d="M439.816 213.488C440.576 212.96 441.448 212.696 442.432 212.696C443.28 212.696 443.956 212.888 444.46 213.272C444.964 213.656 445.216 214.192 445.216 214.88C445.216 215.208 445.152 215.516 445.024 215.804C444.904 216.092 444.72 216.356 444.472 216.596C444.232 216.836 443.996 217.04 443.764 217.208C443.54 217.368 443.256 217.548 442.912 217.748C442.872 217.772 442.748 217.844 442.54 217.964C442.34 218.084 442.212 218.16 442.156 218.192C442.108 218.224 441.996 218.296 441.82 218.408C441.652 218.512 441.54 218.588 441.484 218.636C441.436 218.684 441.348 218.76 441.22 218.864C441.1 218.968 441.016 219.056 440.968 219.128C440.928 219.2 440.872 219.292 440.8 219.404C440.736 219.508 440.692 219.612 440.668 219.716C440.644 219.82 440.632 219.932 440.632 220.052L445.276 220.04V221H439.528V220.52C439.528 220.072 439.6 219.668 439.744 219.308C439.888 218.94 440.092 218.628 440.356 218.372C440.628 218.108 440.896 217.888 441.16 217.712C441.424 217.528 441.732 217.332 442.084 217.124C442.164 217.084 442.224 217.052 442.264 217.028C442.992 216.604 443.468 216.28 443.692 216.056C444.036 215.704 444.208 215.308 444.208 214.868C444.208 214.468 444.044 214.164 443.716 213.956C443.396 213.74 442.94 213.632 442.348 213.632C441.484 213.632 440.64 213.92 439.816 214.496V213.488ZM448.615 219.98C448.007 219.204 447.703 218.184 447.703 216.92C447.703 215.656 448.007 214.636 448.615 213.86C449.223 213.084 450.119 212.696 451.303 212.696C452.495 212.696 453.395 213.084 454.003 213.86C454.611 214.628 454.915 215.648 454.915 216.92C454.915 218.192 454.611 219.216 454.003 219.992C453.395 220.76 452.495 221.144 451.303 221.144C450.119 221.144 449.223 220.756 448.615 219.98ZM453.247 219.344C453.679 218.776 453.895 217.968 453.895 216.92C453.895 215.872 453.679 215.068 453.247 214.508C452.823 213.94 452.175 213.656 451.303 213.656C450.431 213.656 449.783 213.94 449.359 214.508C448.935 215.068 448.723 215.872 448.723 216.92C448.723 217.968 448.935 218.776 449.359 219.344C449.783 219.904 450.431 220.184 451.303 220.184C452.175 220.184 452.823 219.904 453.247 219.344Z" fill="#111111"/>
<path d="M500.816 213.488C501.576 212.96 502.448 212.696 503.432 212.696C504.28 212.696 504.956 212.888 505.46 213.272C505.964 213.656 506.216 214.192 506.216 214.88C506.216 215.208 506.152 215.516 506.024 215.804C505.904 216.092 505.72 216.356 505.472 216.596C505.232 216.836 504.996 217.04 504.764 217.208C504.54 217.368 504.256 217.548 503.912 217.748C503.872 217.772 503.748 217.844 503.54 217.964C503.34 218.084 503.212 218.16 503.156 218.192C503.108 218.224 502.996 218.296 502.82 218.408C502.652 218.512 502.54 218.588 502.484 218.636C502.436 218.684 502.348 218.76 502.22 218.864C502.1 218.968 502.016 219.056 501.968 219.128C501.928 219.2 501.872 219.292 501.8 219.404C501.736 219.508 501.692 219.612 501.668 219.716C501.644 219.82 501.632 219.932 501.632 220.052L506.276 220.04V221H500.528V220.52C500.528 220.072 500.6 219.668 500.744 219.308C500.888 218.94 501.092 218.628 501.356 218.372C501.628 218.108 501.896 217.888 502.16 217.712C502.424 217.528 502.732 217.332 503.084 217.124C503.164 217.084 503.224 217.052 503.264 217.028C503.992 216.604 504.468 216.28 504.692 216.056C505.036 215.704 505.208 215.308 505.208 214.868C505.208 214.468 505.044 214.164 504.716 213.956C504.396 213.74 503.94 213.632 503.348 213.632C502.484 213.632 501.64 213.92 500.816 214.496V213.488ZM509.219 212.84H514.115V213.8H510.167L510.023 216.104C510.455 215.984 510.919 215.924 511.415 215.924C511.823 215.924 512.203 215.972 512.555 216.068C512.907 216.156 513.231 216.3 513.527 216.5C513.831 216.692 514.071 216.964 514.247 217.316C514.423 217.66 514.511 218.068 514.511 218.54C514.511 219.348 514.211 219.984 513.611 220.448C513.019 220.912 512.263 221.144 511.343 221.144C510.351 221.144 509.479 220.96 508.727 220.592V219.632C509.447 220.016 510.279 220.208 511.223 220.208C511.911 220.208 512.459 220.064 512.867 219.776C513.283 219.488 513.491 219.076 513.491 218.54C513.491 217.404 512.683 216.836 511.067 216.836C510.363 216.836 509.659 216.964 508.955 217.22L509.219 212.84Z" fill="#111111"/>
<path d="M566.12 214.916C566.12 215.332 566.008 215.708 565.784 216.044C565.568 216.372 565.284 216.596 564.932 216.716C565.348 216.844 565.704 217.08 566 217.424C566.304 217.76 566.456 218.212 566.456 218.78C566.456 219.54 566.172 220.124 565.604 220.532C565.044 220.94 564.332 221.144 563.468 221.144C562.372 221.144 561.424 220.964 560.624 220.604V219.608C561.4 220.008 562.32 220.204 563.384 220.196C564.784 220.196 565.484 219.708 565.484 218.732C565.484 217.756 564.82 217.268 563.492 217.268H562.244V216.308L563.384 216.32C563.96 216.32 564.396 216.2 564.692 215.96C564.996 215.712 565.148 215.392 565.148 215C565.148 214.576 564.98 214.244 564.644 214.004C564.308 213.756 563.832 213.632 563.216 213.632C562.368 213.632 561.552 213.84 560.768 214.256V213.272C561.52 212.888 562.38 212.696 563.348 212.696C564.18 212.696 564.848 212.9 565.352 213.308C565.864 213.716 566.12 214.252 566.12 214.916ZM570.859 212.84H571.603V220.04H573.127V221H568.879V220.04H570.595V213.908L568.879 214.556V213.596L570.859 212.84Z" fill="#111111"/>
<path d="M577 50L225 50" stroke="black" stroke-opacity="0.7" stroke-dasharray="4 4"/>
<rect x="0.5" y="163.5" width="329" height="261" rx="23.5" fill="white" stroke="#111111"/>
<path d="M90.816 206H89.472V194.8H93.856C94.592 194.8 95.2587 194.901 95.856 195.104C96.4533 195.296 96.9653 195.659 97.392 196.192C97.8293 196.715 98.048 197.381 98.048 198.192C98.048 199.152 97.7707 199.899 97.216 200.432C96.6613 200.965 95.9413 201.312 95.056 201.472L98.848 206H97.168L93.504 201.584H90.816V206ZM90.816 196.08V200.304H93.92C94.7093 200.304 95.3653 200.144 95.888 199.824C96.4213 199.493 96.688 198.949 96.688 198.192C96.688 197.424 96.4213 196.88 95.888 196.56C95.3653 196.24 94.7093 196.08 93.92 196.08H90.816ZM100.944 202.16C100.944 200.901 101.328 199.915 102.096 199.2C102.874 198.485 103.765 198.128 104.768 198.128C105.706 198.128 106.48 198.363 107.088 198.832C107.706 199.301 108.112 199.883 108.304 200.576C108.496 201.259 108.506 201.973 108.336 202.72H102.224C102.298 203.477 102.634 204.048 103.232 204.432C103.829 204.816 104.549 205.008 105.392 205.008C106.33 205.008 107.173 204.8 107.92 204.384V205.632C107.205 206.005 106.298 206.192 105.2 206.192C103.984 206.192 102.97 205.845 102.16 205.152C101.349 204.459 100.944 203.461 100.944 202.16ZM107.2 201.6C107.232 201.376 107.216 201.141 107.152 200.896C107.088 200.651 106.97 200.405 106.8 200.16C106.64 199.915 106.389 199.712 106.048 199.552C105.706 199.392 105.306 199.312 104.848 199.312C104.154 199.312 103.552 199.515 103.04 199.92C102.538 200.325 102.266 200.885 102.224 201.6H107.2ZM111.389 200.336C111.389 199.6 111.672 199.051 112.237 198.688C112.813 198.315 113.506 198.128 114.317 198.128C115.309 198.128 116.216 198.347 117.037 198.784V200C116.717 199.787 116.312 199.616 115.821 199.488C115.33 199.349 114.856 199.28 114.397 199.28C113.928 199.28 113.522 199.365 113.181 199.536C112.85 199.696 112.685 199.952 112.685 200.304C112.685 200.56 112.802 200.784 113.037 200.976C113.282 201.157 113.586 201.296 113.949 201.392C114.312 201.488 114.701 201.611 115.117 201.76C115.544 201.899 115.938 202.048 116.301 202.208C116.664 202.357 116.962 202.592 117.197 202.912C117.442 203.221 117.565 203.595 117.565 204.032C117.565 204.779 117.266 205.328 116.669 205.68C116.072 206.021 115.314 206.192 114.397 206.192C113.192 206.192 112.2 205.941 111.421 205.44V204.192C112.232 204.736 113.202 205.008 114.333 205.008C115.634 205.008 116.285 204.693 116.285 204.064C116.285 203.776 116.114 203.536 115.773 203.344C115.442 203.141 115.037 202.976 114.557 202.848C114.077 202.709 113.597 202.555 113.117 202.384C112.637 202.213 112.226 201.957 111.885 201.616C111.554 201.275 111.389 200.848 111.389 200.336ZM121.402 195.936L122.666 195.616V198.32H125.738V199.504H122.666V203.472C122.666 204.037 122.794 204.432 123.05 204.656C123.317 204.88 123.738 204.992 124.314 204.992C124.869 204.992 125.434 204.875 126.01 204.64V205.824C125.36 206.059 124.672 206.176 123.946 206.176C123.168 206.176 122.549 205.968 122.09 205.552C121.632 205.125 121.402 204.507 121.402 203.696V199.504H119.962V198.32H121.402V195.936ZM135.293 204.4C135.293 204.795 135.49 204.992 135.885 204.992C136.055 204.992 136.253 204.955 136.477 204.88V205.92C136.157 206.037 135.837 206.096 135.517 206.096C134.781 206.096 134.311 205.787 134.109 205.168C133.287 205.851 132.29 206.192 131.117 206.192C130.37 206.192 129.73 205.995 129.197 205.6C128.674 205.195 128.413 204.613 128.413 203.856C128.413 202.949 128.749 202.293 129.421 201.888C130.103 201.472 130.925 201.264 131.885 201.264C132.589 201.264 133.298 201.344 134.013 201.504V201.232C134.013 200.645 133.821 200.181 133.437 199.84C133.053 199.488 132.514 199.312 131.821 199.312C130.85 199.312 129.917 199.504 129.021 199.888V198.64C130.023 198.299 130.999 198.128 131.949 198.128C132.994 198.128 133.81 198.411 134.397 198.976C134.994 199.531 135.293 200.336 135.293 201.392V204.4ZM129.725 203.792C129.725 204.219 129.885 204.544 130.205 204.768C130.535 204.981 130.93 205.088 131.389 205.088C132.445 205.088 133.319 204.715 134.013 203.968V202.56C133.287 202.411 132.637 202.336 132.061 202.336C131.41 202.336 130.855 202.453 130.397 202.688C129.949 202.912 129.725 203.28 129.725 203.792ZM145.1 198.32H146.38V206H145.228V204.864C144.951 205.237 144.561 205.552 144.06 205.808C143.569 206.064 143.036 206.192 142.46 206.192C141.468 206.192 140.684 205.909 140.108 205.344C139.543 204.768 139.26 204.005 139.26 203.056V198.32H140.54V202.896C140.54 204.304 141.228 205.008 142.604 205.008C143.585 205.008 144.417 204.496 145.1 203.472V198.32ZM151.498 199.68C151.797 199.179 152.256 198.789 152.874 198.512C153.493 198.224 154.138 198.107 154.81 198.16V199.44C154.064 199.355 153.402 199.477 152.826 199.808C152.261 200.128 151.861 200.597 151.626 201.216V206H150.346V198.32H151.498V199.68ZM163.952 204.4C163.952 204.795 164.149 204.992 164.544 204.992C164.715 204.992 164.912 204.955 165.136 204.88V205.92C164.816 206.037 164.496 206.096 164.176 206.096C163.44 206.096 162.971 205.787 162.768 205.168C161.947 205.851 160.949 206.192 159.776 206.192C159.029 206.192 158.389 205.995 157.856 205.6C157.333 205.195 157.072 204.613 157.072 203.856C157.072 202.949 157.408 202.293 158.08 201.888C158.763 201.472 159.584 201.264 160.544 201.264C161.248 201.264 161.957 201.344 162.672 201.504V201.232C162.672 200.645 162.48 200.181 162.096 199.84C161.712 199.488 161.173 199.312 160.48 199.312C159.509 199.312 158.576 199.504 157.68 199.888V198.64C158.683 198.299 159.659 198.128 160.608 198.128C161.653 198.128 162.469 198.411 163.056 198.976C163.653 199.531 163.952 200.336 163.952 201.392V204.4ZM158.384 203.792C158.384 204.219 158.544 204.544 158.864 204.768C159.195 204.981 159.589 205.088 160.048 205.088C161.104 205.088 161.979 204.715 162.672 203.968V202.56C161.947 202.411 161.296 202.336 160.72 202.336C160.069 202.336 159.515 202.453 159.056 202.688C158.608 202.912 158.384 203.28 158.384 203.792ZM169.167 199.456C169.445 199.083 169.829 198.768 170.319 198.512C170.821 198.256 171.359 198.128 171.935 198.128C172.863 198.128 173.626 198.421 174.223 199.008C174.831 199.584 175.135 200.336 175.135 201.264V206H173.855V201.424C173.855 200.731 173.663 200.208 173.279 199.856C172.906 199.493 172.41 199.312 171.791 199.312C170.81 199.312 169.978 199.824 169.295 200.848V206H168.015V198.32H169.167V199.456ZM179.424 195.936L180.688 195.616V198.32H183.76V199.504H180.688V203.472C180.688 204.037 180.816 204.432 181.072 204.656C181.339 204.88 181.76 204.992 182.336 204.992C182.891 204.992 183.456 204.875 184.032 204.64V205.824C183.381 206.059 182.693 206.176 181.968 206.176C181.189 206.176 180.571 205.968 180.112 205.552C179.653 205.125 179.424 204.507 179.424 203.696V199.504H177.984V198.32H179.424V195.936ZM186.627 200.336C186.627 199.6 186.909 199.051 187.475 198.688C188.051 198.315 188.744 198.128 189.555 198.128C190.547 198.128 191.453 198.347 192.275 198.784V200C191.955 199.787 191.549 199.616 191.059 199.488C190.568 199.349 190.093 199.28 189.635 199.28C189.165 199.28 188.76 199.365 188.419 199.536C188.088 199.696 187.923 199.952 187.923 200.304C187.923 200.56 188.04 200.784 188.275 200.976C188.52 201.157 188.824 201.296 189.187 201.392C189.549 201.488 189.939 201.611 190.355 201.76C190.781 201.899 191.176 202.048 191.539 202.208C191.901 202.357 192.2 202.592 192.435 202.912C192.68 203.221 192.803 203.595 192.803 204.032C192.803 204.779 192.504 205.328 191.907 205.68C191.309 206.021 190.552 206.192 189.635 206.192C188.429 206.192 187.437 205.941 186.659 205.44V204.192C187.469 204.736 188.44 205.008 189.571 205.008C190.872 205.008 191.523 204.693 191.523 204.064C191.523 203.776 191.352 203.536 191.011 203.344C190.68 203.141 190.275 202.976 189.795 202.848C189.315 202.709 188.835 202.555 188.355 202.384C187.875 202.213 187.464 201.957 187.123 201.616C186.792 201.275 186.627 200.848 186.627 200.336Z" fill="#111111"/>
<path d="M85.8 263.568C85.8 262.619 86.168 261.888 86.904 261.376C87.64 260.864 88.552 260.608 89.64 260.608C90.952 260.608 92.0827 260.88 93.032 261.424V262.768C92.0933 262.16 90.9947 261.867 89.736 261.888C88.0187 261.888 87.16 262.432 87.16 263.52C87.16 263.957 87.3253 264.331 87.656 264.64C87.9867 264.949 88.3973 265.184 88.888 265.344C89.3787 265.504 89.912 265.691 90.488 265.904C91.0747 266.107 91.6133 266.32 92.104 266.544C92.5947 266.757 93.0053 267.088 93.336 267.536C93.6667 267.984 93.832 268.523 93.832 269.152C93.832 269.685 93.7147 270.155 93.48 270.56C93.256 270.965 92.9467 271.285 92.552 271.52C92.1573 271.755 91.72 271.925 91.24 272.032C90.76 272.139 90.2427 272.192 89.688 272.192C88.2693 272.192 86.9893 271.872 85.848 271.232V269.888C86.968 270.571 88.216 270.912 89.592 270.912C91.512 270.912 92.472 270.357 92.472 269.248C92.472 268.843 92.3493 268.496 92.104 268.208C91.8587 267.909 91.5387 267.669 91.144 267.488C90.7493 267.307 90.312 267.141 89.832 266.992C89.3627 266.843 88.8933 266.683 88.424 266.512C87.9547 266.331 87.5227 266.128 87.128 265.904C86.7333 265.669 86.4133 265.355 86.168 264.96C85.9227 264.565 85.8 264.101 85.8 263.568ZM97.1434 260.8H98.4234V265.296C98.722 264.965 99.1007 264.688 99.5594 264.464C100.029 264.24 100.53 264.128 101.063 264.128C101.991 264.128 102.754 264.421 103.351 265.008C103.959 265.584 104.263 266.336 104.263 267.264V272H102.983V267.424C102.983 266.731 102.791 266.208 102.407 265.856C102.034 265.493 101.538 265.312 100.919 265.312C99.938 265.312 99.106 265.824 98.4234 266.848V272H97.1434V260.8ZM108.822 271.12C108.011 270.395 107.606 269.408 107.606 268.16C107.606 266.912 108.011 265.931 108.822 265.216C109.633 264.491 110.593 264.128 111.702 264.128C112.822 264.128 113.782 264.491 114.582 265.216C115.393 265.931 115.798 266.912 115.798 268.16C115.798 269.408 115.393 270.395 114.582 271.12C113.782 271.835 112.822 272.192 111.702 272.192C110.593 272.192 109.633 271.835 108.822 271.12ZM113.718 270.224C114.251 269.712 114.518 269.024 114.518 268.16C114.518 267.296 114.251 266.613 113.718 266.112C113.185 265.6 112.513 265.344 111.702 265.344C110.891 265.344 110.219 265.6 109.686 266.112C109.153 266.613 108.886 267.296 108.886 268.16C108.886 269.024 109.153 269.712 109.686 270.224C110.219 270.725 110.891 270.976 111.702 270.976C112.513 270.976 113.185 270.725 113.718 270.224ZM120.386 265.6C121.25 264.619 122.285 264.128 123.49 264.128C124.589 264.128 125.501 264.512 126.226 265.28C126.962 266.048 127.33 267.008 127.33 268.16C127.33 269.312 126.962 270.272 126.226 271.04C125.501 271.808 124.589 272.192 123.49 272.192C122.274 272.192 121.282 271.744 120.514 270.848V275.52H119.234V264.32H120.386V265.6ZM125.266 270.224C125.789 269.701 126.05 269.013 126.05 268.16C126.05 267.307 125.789 266.619 125.266 266.096C124.754 265.573 124.114 265.312 123.346 265.312C122.695 265.312 122.119 265.493 121.618 265.856C121.117 266.219 120.749 266.667 120.514 267.2V269.12C120.749 269.653 121.117 270.101 121.618 270.464C122.119 270.827 122.695 271.008 123.346 271.008C124.114 271.008 124.754 270.747 125.266 270.224ZM131.924 265.6C132.788 264.619 133.822 264.128 135.028 264.128C136.126 264.128 137.038 264.512 137.764 265.28C138.5 266.048 138.868 267.008 138.868 268.16C138.868 269.312 138.5 270.272 137.764 271.04C137.038 271.808 136.126 272.192 135.028 272.192C133.812 272.192 132.82 271.744 132.052 270.848V275.52H130.772V264.32H131.924V265.6ZM136.804 270.224C137.326 269.701 137.588 269.013 137.588 268.16C137.588 267.307 137.326 266.619 136.804 266.096C136.292 265.573 135.652 265.312 134.884 265.312C134.233 265.312 133.657 265.493 133.156 265.856C132.654 266.219 132.286 266.667 132.052 267.2V269.12C132.286 269.653 132.654 270.101 133.156 270.464C133.657 270.827 134.233 271.008 134.884 271.008C135.652 271.008 136.292 270.747 136.804 270.224ZM143.621 272H142.341V264.32H143.621V272ZM143.573 261.28C143.733 261.419 143.813 261.616 143.813 261.872C143.813 262.128 143.733 262.331 143.573 262.48C143.413 262.619 143.216 262.688 142.981 262.688C142.746 262.688 142.549 262.619 142.389 262.48C142.229 262.331 142.149 262.128 142.149 261.872C142.149 261.616 142.229 261.419 142.389 261.28C142.549 261.131 142.746 261.056 142.981 261.056C143.216 261.056 143.413 261.131 143.573 261.28ZM148.78 265.456C149.057 265.083 149.441 264.768 149.932 264.512C150.433 264.256 150.972 264.128 151.548 264.128C152.476 264.128 153.238 264.421 153.836 265.008C154.444 265.584 154.748 266.336 154.748 267.264V272H153.468V267.424C153.468 266.731 153.276 266.208 152.892 265.856C152.518 265.493 152.022 265.312 151.404 265.312C150.422 265.312 149.59 265.824 148.908 266.848V272H147.628V264.32H148.78V265.456ZM159.178 271.04C158.453 270.272 158.09 269.312 158.09 268.16C158.09 267.008 158.453 266.048 159.178 265.28C159.914 264.512 160.832 264.128 161.93 264.128C163.136 264.128 164.17 264.619 165.034 265.6V264.32H166.186V272C166.186 273.237 165.781 274.165 164.97 274.784C164.16 275.403 163.168 275.712 161.994 275.712C160.853 275.712 159.813 275.472 158.874 274.992V273.744C159.802 274.267 160.789 274.528 161.834 274.528C162.741 274.528 163.482 274.325 164.058 273.92C164.634 273.525 164.917 272.885 164.906 272V270.816C164.16 271.733 163.168 272.192 161.93 272.192C160.832 272.192 159.914 271.808 159.178 271.04ZM164.906 267.2C164.672 266.667 164.304 266.219 163.802 265.856C163.301 265.493 162.725 265.312 162.074 265.312C161.306 265.312 160.661 265.573 160.138 266.096C159.626 266.619 159.37 267.307 159.37 268.16C159.37 269.013 159.626 269.701 160.138 270.224C160.661 270.747 161.306 271.008 162.074 271.008C162.725 271.008 163.301 270.843 163.802 270.512C164.304 270.171 164.672 269.76 164.906 269.28V267.2Z" fill="#111111"/>
<circle cx="40" cy="331" r="20.5" stroke="#111111"/>
<path d="M50.8635 336.143L50.984 335.986L50.9969 334.438C51.004 333.587 50.9984 332.828 50.9845 332.752M50.8635 336.143L29.0157 323.57C29.0462 323.401 29.2662 323.14 29.4443 323.063C29.6178 322.987 40.9536 322.976 41.2243 323.051C41.3187 323.077 41.4541 323.161 41.5253 323.237C41.5965 323.314 41.8672 323.804 42.1269 324.326M50.8635 336.143C50.6745 336.39 50.5357 336.44 49.9623 336.463M50.8635 336.143L49.9623 336.463M50.9845 332.752C50.9705 332.676 50.9075 332.553 50.8445 332.478C50.7815 332.403 50.2737 332 49.7161 331.582M50.9845 332.752L50.4927 332.843C50.4947 332.853 50.4967 332.861 50.4975 332.863C50.4983 332.866 50.4986 332.866 50.4979 332.865C50.4967 332.861 50.4943 332.856 50.4905 332.848M50.9845 332.752L50.4927 332.842C50.4898 332.826 50.4887 332.815 50.4886 332.814C50.4885 332.813 50.4891 332.82 50.4899 332.836C50.4901 332.84 50.4903 332.844 50.4905 332.848M49.7161 331.582L48.7024 330.822L47.8978 328.938M49.7161 331.582L49.4162 331.982C49.692 332.189 49.9546 332.391 50.1549 332.55C50.2553 332.63 50.338 332.697 50.3981 332.748C50.4403 332.783 50.4609 332.802 50.4679 332.808M49.7161 331.582L49.4162 331.982L48.4025 331.222L48.2952 331.142L48.2426 331.019L47.438 329.135L47.8978 328.938M47.8978 328.938L47.0932 327.054V326.464C47.0932 326.063 47.0745 325.829 47.0346 325.734C46.9598 325.556 46.7487 325.378 46.5438 325.321C46.445 325.294 45.6606 325.277 44.4915 325.277L42.5991 325.276L42.1269 324.326M47.8978 328.938L47.438 329.135L46.6334 327.251L46.5932 327.157V327.054V326.464C46.5932 326.269 46.5886 326.126 46.5805 326.024C46.5765 325.974 46.572 325.941 46.5684 325.92C46.5724 325.925 46.5739 325.928 46.574 325.928C46.574 325.928 46.5738 325.928 46.5734 325.927C46.5632 325.903 46.5639 325.895 46.5683 325.919L41.1044 323.541M42.1269 324.326L41.6792 324.549C41.5521 324.293 41.4228 324.046 41.3178 323.856C41.2651 323.761 41.2201 323.683 41.1857 323.626C41.1688 323.598 41.1577 323.581 41.1515 323.572C41.1431 323.565 41.1323 323.558 41.1201 323.55C41.1145 323.547 41.1093 323.544 41.1044 323.541M42.1269 324.326L41.6792 324.549L42.1513 325.499L42.2892 325.776L42.599 325.776L44.4914 325.777C45.0741 325.777 45.5586 325.781 45.9081 325.789C46.0834 325.792 46.2216 325.797 46.3201 325.802C46.3688 325.804 46.4041 325.807 46.4276 325.809C46.4505 325.819 46.4828 325.837 46.5161 325.865C46.5359 325.881 46.5514 325.898 46.562 325.911L41.1044 323.541M41.1044 323.541C41.0848 323.54 41.0598 323.539 41.0288 323.537C40.9361 323.534 40.8045 323.53 40.6376 323.527C40.3045 323.52 39.8412 323.515 39.2901 323.51C38.1885 323.502 36.7423 323.499 35.2984 323.5C33.8544 323.502 32.4143 323.508 31.3249 323.518C30.7799 323.524 30.3243 323.53 30.0005 323.537C29.8381 323.541 29.7118 323.545 29.6249 323.549C29.6196 323.549 29.6145 323.549 29.6096 323.549C29.5927 323.565 29.5744 323.583 29.5567 323.604C29.5373 323.627 29.5223 323.649 29.5121 323.665C29.5117 323.684 29.5113 323.706 29.5109 323.732C29.5094 323.821 29.5081 323.949 29.5069 324.113C29.5045 324.44 29.5027 324.905 29.5015 325.473C29.4992 326.61 29.4994 328.16 29.5028 329.847L29.5148 335.816L29.5328 335.839L29.5329 335.839C29.5694 335.887 29.5872 335.907 29.5947 335.915C29.5979 335.916 29.6025 335.917 29.6088 335.919C29.7145 335.945 29.92 335.955 30.4656 335.964L31.3916 335.98L31.6908 335.985L31.8276 336.252L31.9745 336.537L31.5298 336.766L31.9745 336.537C32.0341 336.653 32.1711 336.839 32.3121 336.98L32.3121 336.98C33.1501 337.82 34.5411 337.61 35.0991 336.55C35.0991 336.55 35.0991 336.55 35.0991 336.55L35.2626 336.239L35.4032 335.972L35.7051 335.972L40.4211 335.972L45.1371 335.972L45.4426 335.972L45.582 336.244L45.7304 336.534C45.7304 336.534 45.7304 336.534 45.7305 336.534C45.7925 336.655 45.927 336.837 46.0695 336.98L46.0695 336.98C46.9061 337.819 48.2994 337.609 48.8533 336.556L49.0138 336.251L49.1479 335.996L49.4357 335.984L49.9418 335.964L49.9418 335.964C50.2361 335.951 50.341 335.933 50.3897 335.916C50.4016 335.912 50.4041 335.909 50.4064 335.908L50.4069 335.907C50.4135 335.902 50.4309 335.886 50.4664 335.839L50.4664 335.839L50.4854 335.814L50.4969 334.434C50.5005 334.01 50.5008 333.61 50.4986 333.308C50.4975 333.157 50.4957 333.031 50.4935 332.94C50.4925 332.902 50.4915 332.871 50.4905 332.848M50.4905 332.848C50.4896 332.846 50.4886 332.844 50.4876 332.842C50.4822 332.832 50.4763 332.821 50.4707 332.813C50.4697 332.811 50.4687 332.81 50.4679 332.808M50.4679 332.808C50.4697 332.81 50.4706 332.811 50.4707 332.811C50.4709 332.81 50.4676 332.807 50.4623 332.8C50.4621 332.8 50.4622 332.8 50.4627 332.801C50.4634 332.802 50.4653 332.804 50.4679 332.808ZM49.9623 336.463L49.4562 336.484L49.9623 336.463ZM47.597 331.232L47.5969 331.232L47.4933 331.335L47.3469 331.481H47.1402H45.1486C44.2852 331.481 43.775 331.479 43.4705 331.47C43.3204 331.465 43.2021 331.458 43.1097 331.445C43.026 331.433 42.8959 331.409 42.775 331.324M47.597 331.232L46.2747 327.123C46.1829 327.019 46.0704 326.96 45.9512 326.929C45.8593 326.905 45.7562 326.896 45.6555 326.891C45.4456 326.88 45.0882 326.879 44.4744 326.879H44.4743C44.0508 326.88 43.6984 326.884 43.444 326.892C43.3175 326.896 43.2101 326.901 43.1282 326.908C43.0881 326.911 43.0469 326.915 43.0095 326.92C42.9912 326.923 42.9664 326.927 42.9396 326.933L42.9384 326.934C42.922 326.937 42.8582 326.953 42.79 326.992L42.79 326.992C42.7242 327.031 42.6548 327.088 42.5992 327.173C42.5504 327.248 42.5271 327.322 42.5144 327.374C42.4912 327.469 42.483 327.582 42.478 327.698C42.4673 327.945 42.466 328.382 42.466 329.158V330.848V331.109L42.6797 331.258L42.775 331.324M47.597 331.232C47.6454 331.184 47.7507 331.077 47.7993 330.915C47.8525 330.738 47.813 330.586 47.791 330.511C47.7636 330.418 47.6538 330.157 47.5317 329.871M47.597 331.232L47.5317 329.871M42.775 331.324L43.0615 330.915L42.7753 331.325L42.775 331.324ZM34.8579 335.619C34.8253 335.17 34.5878 334.796 34.2004 334.57L34.2004 334.57C34.113 334.519 34.012 334.483 33.9352 334.461C33.8521 334.436 33.7561 334.415 33.6636 334.405M34.8579 335.619L34.3592 335.655M34.8579 335.619L34.3592 335.655M34.8579 335.619C34.9781 337.277 32.6662 337.602 32.2522 336.05C32.0209 335.183 32.7689 334.306 33.6636 334.405M34.3592 335.655C34.4335 336.68 33.0003 336.915 32.7353 335.922C32.5941 335.392 33.0657 334.842 33.6087 334.902M34.3592 335.655C34.3388 335.373 34.1959 335.146 33.9481 335.001C33.876 334.959 33.7233 334.914 33.6087 334.902M33.6636 334.405L33.6087 334.902M33.6636 334.405C33.6636 334.405 33.6636 334.405 33.6636 334.405L33.6087 334.902M47.5317 329.871C47.4004 329.565 47.2313 329.177 47.0626 328.795M47.5317 329.871L47.0626 328.795M47.0626 328.795C46.8939 328.413 46.7248 328.034 46.5934 327.746M47.0626 328.795L46.5934 327.746M46.5934 327.746C46.5278 327.602 46.4708 327.479 46.4274 327.388M46.5934 327.746L46.4274 327.388M46.4274 327.388C46.406 327.343 46.3864 327.303 46.3701 327.271M46.4274 327.388L46.3701 327.271M46.3701 327.271C46.3622 327.256 46.3531 327.238 46.3437 327.222M46.3701 327.271L46.3437 327.222M46.3437 327.222L46.3436 327.221M46.3437 327.222L46.3436 327.221M46.3436 327.221C46.341 327.217 46.3146 327.169 46.2748 327.123L46.3436 327.221ZM29.5139 323.609C29.514 323.609 29.5139 323.61 29.5138 323.612L29.5139 323.609ZM29.5008 323.686C29.5005 323.687 29.5004 323.687 29.5003 323.687L29.5008 323.686ZM46.4487 325.811C46.4486 325.811 46.448 325.811 46.4468 325.811L46.4487 325.811ZM41.1446 323.544C41.1484 323.544 41.1501 323.544 41.15 323.544C41.1499 323.545 41.148 323.544 41.1446 323.544ZM46.2666 336.58L46.2667 336.58C46.6857 337.077 47.4793 337.22 48.0309 336.843C48.9397 336.222 48.7793 334.756 47.6661 334.448L47.6661 334.448C47.5183 334.407 47.3545 334.374 47.1687 334.396C46.9886 334.418 46.8333 334.486 46.6927 334.557L46.6927 334.557C46.5834 334.612 46.4621 334.68 46.3532 334.788C46.2442 334.897 46.1762 335.018 46.1208 335.127L46.5666 335.354L46.1208 335.127C46.0032 335.359 45.9382 335.613 45.9623 335.877C45.9866 336.144 46.0982 336.381 46.2666 336.58Z" stroke="#111111"/>
<circle cx="40" cy="265" r="20.5" stroke="#111111"/>
<g clip-path="url(#clip0_1_3481)">
<path d="M43.8263 259.931L43.8152 259.117C43.799 257.93 43.7844 257.804 43.7286 257.592C43.5167 256.783 43.1797 256.169 42.6785 255.648L43.0373 255.303L42.6785 255.648C42.18 255.13 41.5967 254.786 40.9053 254.601L43.8263 259.931ZM43.8263 259.931H43.7083H43.5913M43.8263 259.931H43.5913M43.5913 259.931V259.312C43.5913 258.571 43.5734 258.056 43.4904 257.634C43.4025 257.186 43.2457 256.861 43.012 256.486C42.4866 255.643 41.6716 255.058 40.7196 254.854L40.6149 255.343L40.7196 254.854C38.7697 254.436 36.8869 255.774 36.496 257.766L36.496 257.766C36.4354 258.074 36.4216 258.472 36.4216 259.312V259.931H36.3047H36.1867L36.1979 259.117C36.1979 259.117 36.1979 259.117 36.1979 259.117C36.2147 257.894 36.2265 257.812 36.2942 257.549L36.2942 257.549C36.4861 256.805 36.8357 256.168 37.3214 255.661L43.5913 259.931ZM35.1877 260.931V262.111C35.1877 262.839 35.1898 263.274 35.1996 263.543C35.2087 263.791 35.2237 263.979 35.2992 264.145L35.2992 264.145C35.6811 264.986 36.8804 265.01 37.2881 264.175L37.2881 264.175C37.3195 264.111 37.3523 264.034 37.3749 263.924C37.3943 263.829 37.4035 263.721 37.4093 263.593C37.4208 263.336 37.4216 262.9 37.4216 262.109V260.931H40.0065H42.5913V262.111C42.5913 262.839 42.5934 263.274 42.6032 263.543C42.6123 263.791 42.6273 263.979 42.7028 264.145L42.7028 264.145C43.0846 264.986 44.284 265.01 44.6917 264.175L44.6917 264.175C44.7231 264.111 44.7559 264.034 44.7785 263.924C44.7979 263.829 44.8071 263.721 44.8129 263.593C44.8244 263.336 44.8252 262.9 44.8252 262.109V260.931H45.3204C45.8918 260.931 46.1266 260.938 46.2469 260.962C46.2485 260.963 46.2499 260.963 46.2513 260.963L35.1877 260.931ZM35.1877 260.931H34.6925C34.1211 260.931 33.8863 260.938 33.766 260.962C33.7644 260.963 33.763 260.963 33.7616 260.963C33.758 260.968 33.7536 260.974 33.7485 260.982L35.1877 260.931ZM46.2643 260.982C46.2727 261.039 46.2778 261.147 46.2823 261.407C46.3653 266.159 46.7253 270.414 47.3946 274.538L47.8881 274.458L47.3946 274.538C47.4339 274.78 47.4668 275.012 47.4881 275.189C47.4988 275.278 47.5061 275.349 47.51 275.399C47.5104 275.404 47.5107 275.409 47.511 275.413C47.5052 275.425 47.4964 275.436 47.4823 275.446C47.4696 275.448 47.4514 275.449 47.4263 275.451C47.2936 275.462 47.0449 275.469 46.5524 275.475C45.5752 275.485 43.6957 275.486 40.0065 275.486C36.3172 275.486 34.4377 275.485 33.4605 275.475C32.968 275.469 32.7194 275.462 32.5866 275.451C32.5615 275.449 32.5433 275.448 32.5306 275.446C32.5165 275.436 32.5077 275.425 32.5019 275.413C32.5022 275.409 32.5025 275.404 32.5029 275.399C32.5068 275.349 32.5141 275.278 32.5248 275.189C32.5461 275.012 32.5789 274.78 32.6181 274.538L32.1246 274.458L32.6181 274.538C33.2882 270.403 33.6439 266.198 33.7302 261.407C33.7349 261.147 33.7401 261.039 33.7485 260.982L46.2643 260.982ZM32.5548 275.461C32.5549 275.461 32.5549 275.461 32.5547 275.461L32.5548 275.461ZM47.5129 275.453C47.5128 275.453 47.5128 275.451 47.5129 275.447C47.513 275.452 47.5129 275.454 47.5129 275.453ZM37.3215 255.661C37.8904 255.067 38.6805 254.648 39.4486 254.524L37.3215 255.661ZM39.4486 254.524C39.5974 254.5 39.8719 254.493 40.1766 254.509C40.4809 254.525 40.7557 254.561 40.9053 254.601L39.4486 254.524Z" stroke="#111111"/>
</g>
<circle cx="40" cy="199" r="20.5" fill="#F7F7F7" stroke="#111111"/>
<path d="M35.2802 198.263L35.6339 197.909L39.3739 201.651L39.5434 201.482L39.5434 201.482L40.0665 200.961L40.4402 200.589L40.7919 200.982L44.2689 204.866C46.1869 207.009 47.8415 208.85 47.9552 208.969L47.9552 208.969C48.3743 209.408 48.855 209.562 49.3144 209.477L49.4053 209.969L49.3144 209.477C50.2675 209.301 50.771 208.315 50.3497 207.431C50.3466 207.426 50.3098 207.368 50.1194 207.16C49.9097 206.931 49.5463 206.554 48.9045 205.903C47.6232 204.604 45.2533 202.234 40.8358 197.821L31.5048 188.5H31.3136H31.2512C31.1104 188.876 30.9118 189.526 30.8363 189.872L35.2802 198.263ZM35.2802 198.263L35.6339 197.909L35.6212 197.897C33.4483 195.723 32.3775 194.652 31.8075 194.031C31.5231 193.721 31.3805 193.542 31.2913 193.406C31.2063 193.277 31.1626 193.178 31.0825 192.994C31.015 192.839 30.9069 192.524 30.8495 192.311L35.2802 198.263ZM48.4835 190.751L47.0833 192.149L45.3287 193.901L44.9738 194.256L45.3293 194.61L45.782 195.06L45.782 195.06L46.2347 195.51L46.5879 195.862L46.9405 195.51L48.6734 193.78L48.3202 193.426L48.6734 193.78C49.149 193.306 49.5856 192.875 49.9057 192.563C49.9787 192.492 50.0452 192.427 50.1047 192.37C50.1405 192.405 50.178 192.442 50.2163 192.481C50.2163 192.481 50.2163 192.481 50.2163 192.481L50.2925 192.557L48.15 194.689L45.7127 197.115L45.3799 197.275L45.5965 197.726L45.3799 197.275C45.2018 197.361 45.0106 197.435 44.8414 197.486C44.6604 197.541 44.5451 197.558 44.5047 197.558C44.4289 197.558 44.3263 197.572 44.2502 197.584C44.1607 197.598 44.0568 197.616 43.958 197.636L43.9579 197.636L43.8931 197.65L42.6092 196.368C41.907 195.668 41.5509 195.31 41.3727 195.113C41.3646 195.104 41.3571 195.096 41.3502 195.088C41.3548 195.065 41.359 195.043 41.3627 195.022C41.3832 194.912 41.4049 194.779 41.4232 194.648L48.4835 190.751ZM48.4835 190.751L48.3753 190.643L48.3752 190.643L48.2658 190.534L46.8641 191.933L45.1091 193.685L44.7553 194.038L44.4021 193.684L43.9509 193.232L43.9509 193.232L43.4998 192.78L43.1466 192.426L43.5004 192.073L45.2329 190.343L45.5862 190.697L45.2329 190.343C45.7083 189.868 46.1399 189.432 46.4521 189.113C46.5226 189.041 46.5868 188.975 46.6438 188.916C46.6119 188.883 46.5787 188.85 46.5451 188.816C46.5115 188.783 46.478 188.75 46.4453 188.718C46.3383 188.822 46.2077 188.95 46.0578 189.097C45.6214 189.526 45.0247 190.119 44.3732 190.771C43.7221 191.423 43.116 192.037 42.6644 192.501C42.4385 192.733 42.2522 192.926 42.1187 193.067C42.0518 193.138 41.9997 193.194 41.9631 193.234C41.9389 193.261 41.9275 193.275 41.924 193.279C41.6387 193.708 41.5036 194.07 41.4232 194.648L48.4835 190.751ZM29.6337 207.447L29.6338 207.446C29.6341 207.446 29.6345 207.445 29.6349 207.444C29.6484 207.412 29.6789 207.342 30.1214 206.879C30.5613 206.418 31.3609 205.615 32.8568 204.118L32.5031 203.765L32.8568 204.118C33.7393 203.235 34.544 202.432 35.1294 201.85C35.3747 201.606 35.5812 201.401 35.7387 201.246C35.7584 201.265 35.7788 201.285 35.7999 201.306C36.0486 201.55 36.3891 201.888 36.7613 202.26C36.7613 202.26 36.7613 202.26 36.7613 202.26L37.7628 203.26L34.91 206.104C33.27 207.738 32.4511 208.553 31.9825 208.98C31.7477 209.194 31.6233 209.289 31.5426 209.34C31.4776 209.38 31.4374 209.394 31.3329 209.426C31.2772 209.443 31.1352 209.464 30.952 209.467C30.7691 209.469 30.6252 209.454 30.5671 209.438C29.6973 209.205 29.2608 208.3 29.6337 207.447ZM30.7683 191.903C30.7551 191.751 30.7523 191.541 30.7515 191.115L30.8495 192.311C30.7996 192.125 30.78 192.037 30.7683 191.903ZM30.7515 191.115C30.7501 190.341 30.7633 190.206 30.8363 189.872L30.7515 191.115Z" stroke="#111111"/>
<circle cx="40" cy="389" r="20.5" fill="white" stroke="#111111"/>
<path d="M46.2242 389.513L46.6149 389.798C46.5223 389.925 46.3654 390.086 46.2407 390.181C46.2407 390.181 46.2407 390.181 46.2407 390.181L46.2391 390.182C46.2132 390.202 46.1545 390.247 46.0678 390.283C45.9866 390.318 45.9042 390.335 45.8249 390.347C45.6744 390.369 45.4457 390.38 45.0765 390.388C44.3238 390.403 42.8712 390.403 40 390.403C37.1288 390.403 35.6762 390.403 34.9235 390.388C34.5543 390.38 34.3256 390.369 34.1751 390.347C34.0958 390.335 34.0134 390.318 33.9322 390.283C33.8455 390.247 33.7868 390.202 33.7609 390.182L33.7593 390.181C33.6346 390.086 33.4778 389.925 33.3852 389.798L46.2242 389.513ZM46.2242 389.513L46.6149 389.798L46.6153 389.798C46.6338 389.773 46.6731 389.719 46.7068 389.642C46.7397 389.568 46.7586 389.493 46.7712 389.418C46.7944 389.282 46.8056 389.087 46.8129 388.795C46.8279 388.196 46.8281 387.058 46.8281 384.826C46.8281 382.595 46.8279 381.456 46.8129 380.858C46.8056 380.565 46.7944 380.371 46.7712 380.234C46.7586 380.16 46.7397 380.085 46.7068 380.01C46.6731 379.934 46.6338 379.88 46.6153 379.855L46.6149 379.854L46.227 380.137M46.2242 389.513L46.227 380.137M46.227 380.137L46.6149 379.854M46.227 380.137L46.6149 379.854M38.0765 391.546L38.0765 391.546C38.1645 391.613 38.2766 391.7 38.3699 391.81C38.4758 391.936 38.5443 392.075 38.587 392.238C38.6577 392.508 38.6639 392.895 38.6729 393.454L38.673 393.464L38.6828 394.075L39.27 394.085C39.5605 394.089 39.794 394.094 39.9799 394.105C40.1625 394.115 40.3305 394.133 40.4803 394.175C40.6454 394.221 40.7839 394.294 40.9074 394.404C41.0151 394.5 41.0999 394.616 41.1664 394.707C41.341 394.946 41.3857 395.268 41.3857 395.502C41.3857 395.736 41.341 396.058 41.1664 396.297C41.0999 396.388 41.0151 396.503 40.9074 396.599C40.7839 396.71 40.6454 396.783 40.4803 396.829C40.3305 396.87 40.1625 396.888 39.9799 396.899C39.794 396.91 39.5605 396.914 39.27 396.919L38.6828 396.929L38.673 397.54L38.6727 397.559C38.6638 398.114 38.6576 398.5 38.5858 398.769C38.542 398.934 38.4718 399.073 38.3647 399.199C38.2707 399.309 38.1575 399.396 38.0681 399.464C37.8301 399.646 37.5089 399.692 37.2758 399.692C37.0427 399.692 36.7214 399.646 36.4835 399.464C36.3941 399.396 36.2809 399.309 36.1869 399.199C36.0798 399.073 36.0096 398.934 35.9658 398.769C35.894 398.5 35.8878 398.114 35.8789 397.559L35.8786 397.54L35.8687 396.929L35.2816 396.919C34.991 396.914 34.7576 396.91 34.5717 396.899C34.3891 396.888 34.2211 396.87 34.0713 396.829C33.9061 396.783 33.7677 396.71 33.6442 396.599C33.5364 396.503 33.4517 396.388 33.3851 396.297C33.2106 396.058 33.1659 395.736 33.1659 395.502C33.1659 395.268 33.2106 394.946 33.3851 394.707M38.0765 391.546L38.1731 397.532C38.1538 398.73 38.1406 398.78 37.7647 399.066C37.545 399.234 37.0066 399.234 36.7868 399.066C36.411 398.78 36.3977 398.73 36.3785 397.532L36.3609 396.437L35.29 396.419C34.1183 396.399 34.0695 396.386 33.7889 396.002C33.6248 395.777 33.6248 395.227 33.7889 395.002C34.0696 394.618 34.1179 394.604 35.2934 394.584L36.3677 394.567M38.0765 391.546C37.8726 391.391 37.6017 391.331 37.3982 391.313C37.1907 391.295 36.9197 391.308 36.693 391.415L36.693 391.415C36.3662 391.57 36.0853 391.874 35.9594 392.213M38.0765 391.546L38.1907 394.567L38.1731 393.472C38.1539 392.278 38.1395 392.223 37.7731 391.944C37.585 391.8 37.1331 391.76 36.9069 391.867C36.6967 391.967 36.5082 392.171 36.4283 392.387M33.3851 394.707L33.7877 395.001L33.3851 394.707C33.3851 394.707 33.3851 394.707 33.3851 394.707ZM33.3851 394.707C33.4517 394.616 33.5364 394.5 33.6443 394.404C33.768 394.294 33.9066 394.221 34.0719 394.175C34.2218 394.133 34.3901 394.115 34.5731 394.105C34.7594 394.094 34.9935 394.089 35.285 394.085L35.8677 394.075M35.8677 394.075V394.567H36.3677M35.8677 394.075L36.3593 394.067L36.3677 394.567M35.8677 394.075V393.558C35.8677 393.265 35.8744 392.987 35.8857 392.767C35.8914 392.657 35.8984 392.558 35.907 392.476C35.9131 392.418 35.9253 392.305 35.9594 392.213M36.3677 394.567V393.558C36.3677 392.985 36.3938 392.48 36.4283 392.387M36.4283 392.387L35.9594 392.213M36.4283 392.387L35.9595 392.213C35.9595 392.213 35.9595 392.213 35.9594 392.213M46.6149 379.854C46.5223 379.727 46.3655 379.567 46.2408 379.472L46.6149 379.854ZM33.466 379.755C33.3415 379.91 33.2196 380.118 33.1794 380.346L46.2407 379.472L46.24 379.471C46.2132 379.451 46.1544 379.406 46.0671 379.369C45.9866 379.335 45.9046 379.317 45.8256 379.306C45.6756 379.283 45.4482 379.272 45.0823 379.263C44.3366 379.247 42.9005 379.243 40.0679 379.237C37.7369 379.232 36.297 379.232 35.4219 379.242C34.9854 379.247 34.6828 379.254 34.4781 379.264C34.3764 379.269 34.2909 379.276 34.2216 379.284C34.1703 379.29 34.0694 379.303 33.9755 379.345L33.9754 379.345C33.7682 379.438 33.5922 379.598 33.466 379.755ZM44.0729 393.354L44.0729 393.354C43.9484 394.032 44.2789 394.613 44.7761 394.891C45.277 395.171 45.9476 395.14 46.4368 394.64L46.4369 394.64C47.1225 393.939 46.9282 392.731 46.004 392.336C45.2005 391.993 44.2334 392.479 44.0729 393.354ZM42.2567 397.067L42.2567 397.067C42.1322 397.745 42.4628 398.326 42.96 398.604C43.4609 398.884 44.1315 398.853 44.6207 398.353L44.6207 398.353C45.3064 397.652 45.1121 396.444 44.1879 396.049C43.3843 395.706 42.4173 396.192 42.2567 397.067ZM30.5831 378.276C30.5844 378.257 30.5855 378.245 30.5862 378.237C30.8 377.43 31.4093 376.805 32.172 376.587C32.1768 376.587 32.1833 376.586 32.1917 376.585C32.2248 376.582 32.2731 376.579 32.3379 376.575C32.4667 376.569 32.6463 376.562 32.8715 376.556C33.321 376.544 33.9404 376.534 34.6747 376.525C36.1426 376.509 38.0618 376.5 39.9824 376.5C41.9029 376.5 43.8231 376.507 45.2928 376.523C46.028 376.531 46.6486 376.541 47.0995 376.553C47.3254 376.559 47.5058 376.566 47.6355 376.573C47.7007 376.576 47.7495 376.579 47.7832 376.582C47.7932 376.583 47.8006 376.584 47.8057 376.585C48.5877 376.8 49.1973 377.419 49.4138 378.237C49.4145 378.245 49.4156 378.257 49.4169 378.276C49.4201 378.323 49.4235 378.389 49.427 378.477C49.4338 378.652 49.4402 378.897 49.4461 379.203C49.4581 379.816 49.4681 380.667 49.476 381.677C49.492 383.698 49.5 386.35 49.5 389.004C49.5 391.657 49.492 394.31 49.476 396.33C49.4681 397.34 49.4581 398.191 49.4461 398.804C49.4402 399.111 49.4338 399.356 49.427 399.53C49.4235 399.618 49.4201 399.685 49.4169 399.731C49.4156 399.75 49.4145 399.763 49.4138 399.77C49.1955 400.595 48.5776 401.217 47.7862 401.428C47.769 401.433 47.6987 401.447 47.4617 401.458C47.2339 401.47 46.883 401.478 46.3267 401.485C45.2159 401.497 43.3133 401.5 40 401.5C36.6867 401.5 34.7841 401.497 33.6733 401.485C33.117 401.478 32.7661 401.47 32.5383 401.458C32.3013 401.447 32.231 401.433 32.2138 401.428C31.4224 401.217 30.8045 400.595 30.5862 399.77C30.5855 399.763 30.5844 399.75 30.5831 399.731C30.5799 399.685 30.5765 399.618 30.573 399.53C30.5662 399.356 30.5598 399.111 30.5538 398.804C30.5419 398.191 30.5319 397.34 30.524 396.33C30.508 394.31 30.5 391.657 30.5 389.004C30.5 386.35 30.508 383.698 30.524 381.677C30.5319 380.667 30.5419 379.816 30.5538 379.203C30.5598 378.897 30.5662 378.652 30.573 378.477C30.5765 378.389 30.5799 378.323 30.5831 378.276Z" stroke="#111111"/>
<path d="M88.224 326.8H97.44V328.08H93.504V338H92.16V328.08H88.224V326.8ZM99.7954 331.68C100.094 331.179 100.553 330.789 101.171 330.512C101.79 330.224 102.435 330.107 103.107 330.16V331.44C102.361 331.355 101.699 331.477 101.123 331.808C100.558 332.128 100.158 332.597 99.9234 333.216V338H98.6434V330.32H99.7954V331.68ZM112.249 336.4C112.249 336.795 112.446 336.992 112.841 336.992C113.012 336.992 113.209 336.955 113.433 336.88V337.92C113.113 338.037 112.793 338.096 112.473 338.096C111.737 338.096 111.268 337.787 111.065 337.168C110.244 337.851 109.246 338.192 108.073 338.192C107.326 338.192 106.686 337.995 106.153 337.6C105.63 337.195 105.369 336.613 105.369 335.856C105.369 334.949 105.705 334.293 106.377 333.888C107.06 333.472 107.881 333.264 108.841 333.264C109.545 333.264 110.254 333.344 110.969 333.504V333.232C110.969 332.645 110.777 332.181 110.393 331.84C110.009 331.488 109.47 331.312 108.777 331.312C107.806 331.312 106.873 331.504 105.977 331.888V330.64C106.98 330.299 107.956 330.128 108.905 330.128C109.95 330.128 110.766 330.411 111.353 330.976C111.95 331.531 112.249 332.336 112.249 333.392V336.4ZM106.681 335.792C106.681 336.219 106.841 336.544 107.161 336.768C107.492 336.981 107.886 337.088 108.345 337.088C109.401 337.088 110.276 336.715 110.969 335.968V334.56C110.244 334.411 109.593 334.336 109.017 334.336C108.366 334.336 107.812 334.453 107.353 334.688C106.905 334.912 106.681 335.28 106.681 335.792ZM117.464 331.456C117.741 331.083 118.125 330.768 118.616 330.512C119.117 330.256 119.656 330.128 120.232 330.128C121.16 330.128 121.923 330.421 122.52 331.008C123.128 331.584 123.432 332.336 123.432 333.264V338H122.152V333.424C122.152 332.731 121.96 332.208 121.576 331.856C121.203 331.493 120.707 331.312 120.088 331.312C119.107 331.312 118.275 331.824 117.592 332.848V338H116.312V330.32H117.464V331.456ZM126.855 332.336C126.855 331.6 127.137 331.051 127.703 330.688C128.279 330.315 128.972 330.128 129.783 330.128C130.775 330.128 131.681 330.347 132.503 330.784V332C132.183 331.787 131.777 331.616 131.287 331.488C130.796 331.349 130.321 331.28 129.863 331.28C129.393 331.28 128.988 331.365 128.647 331.536C128.316 331.696 128.151 331.952 128.151 332.304C128.151 332.56 128.268 332.784 128.503 332.976C128.748 333.157 129.052 333.296 129.415 333.392C129.777 333.488 130.167 333.611 130.583 333.76C131.009 333.899 131.404 334.048 131.767 334.208C132.129 334.357 132.428 334.592 132.663 334.912C132.908 335.221 133.031 335.595 133.031 336.032C133.031 336.779 132.732 337.328 132.135 337.68C131.537 338.021 130.78 338.192 129.863 338.192C128.657 338.192 127.665 337.941 126.887 337.44V336.192C127.697 336.736 128.668 337.008 129.799 337.008C131.1 337.008 131.751 336.693 131.751 336.064C131.751 335.776 131.58 335.536 131.239 335.344C130.908 335.141 130.503 334.976 130.023 334.848C129.543 334.709 129.063 334.555 128.583 334.384C128.103 334.213 127.692 333.957 127.351 333.616C127.02 333.275 126.855 332.848 126.855 332.336ZM137.508 331.6C138.372 330.619 139.407 330.128 140.612 330.128C141.711 330.128 142.623 330.512 143.348 331.28C144.084 332.048 144.452 333.008 144.452 334.16C144.452 335.312 144.084 336.272 143.348 337.04C142.623 337.808 141.711 338.192 140.612 338.192C139.396 338.192 138.404 337.744 137.636 336.848V341.52H136.356V330.32H137.508V331.6ZM142.388 336.224C142.911 335.701 143.172 335.013 143.172 334.16C143.172 333.307 142.911 332.619 142.388 332.096C141.876 331.573 141.236 331.312 140.468 331.312C139.817 331.312 139.241 331.493 138.74 331.856C138.239 332.219 137.871 332.667 137.636 333.2V335.12C137.871 335.653 138.239 336.101 138.74 336.464C139.241 336.827 139.817 337.008 140.468 337.008C141.236 337.008 141.876 336.747 142.388 336.224ZM148.581 337.12C147.771 336.395 147.365 335.408 147.365 334.16C147.365 332.912 147.771 331.931 148.581 331.216C149.392 330.491 150.352 330.128 151.461 330.128C152.581 330.128 153.541 330.491 154.341 331.216C155.152 331.931 155.557 332.912 155.557 334.16C155.557 335.408 155.152 336.395 154.341 337.12C153.541 337.835 152.581 338.192 151.461 338.192C150.352 338.192 149.392 337.835 148.581 337.12ZM153.477 336.224C154.011 335.712 154.277 335.024 154.277 334.16C154.277 333.296 154.011 332.613 153.477 332.112C152.944 331.6 152.272 331.344 151.461 331.344C150.651 331.344 149.979 331.6 149.445 332.112C148.912 332.613 148.645 333.296 148.645 334.16C148.645 335.024 148.912 335.712 149.445 336.224C149.979 336.725 150.651 336.976 151.461 336.976C152.272 336.976 152.944 336.725 153.477 336.224ZM160.145 331.68C160.444 331.179 160.903 330.789 161.521 330.512C162.14 330.224 162.785 330.107 163.457 330.16V331.44C162.711 331.355 162.049 331.477 161.473 331.808C160.908 332.128 160.508 332.597 160.273 333.216V338H158.993V330.32H160.145V331.68ZM166.965 327.936L168.229 327.616V330.32H171.301V331.504H168.229V335.472C168.229 336.037 168.357 336.432 168.613 336.656C168.879 336.88 169.301 336.992 169.877 336.992C170.431 336.992 170.997 336.875 171.573 336.64V337.824C170.922 338.059 170.234 338.176 169.509 338.176C168.73 338.176 168.111 337.968 167.653 337.552C167.194 337.125 166.965 336.507 166.965 335.696V331.504H165.525V330.32H166.965V327.936Z" fill="#111111"/>
<path d="M89.472 384.8H97.024V386.08H90.816V389.712H96.544V390.992H90.816V394.72H97.12V396H89.472V384.8ZM101.749 389.456C102.026 389.083 102.41 388.768 102.901 388.512C103.402 388.256 103.941 388.128 104.517 388.128C105.445 388.128 106.207 388.421 106.805 389.008C107.413 389.584 107.717 390.336 107.717 391.264V396H106.437V391.424C106.437 390.731 106.245 390.208 105.861 389.856C105.487 389.493 104.991 389.312 104.373 389.312C103.391 389.312 102.559 389.824 101.877 390.848V396H100.597V388.32H101.749V389.456ZM112.005 385.936L113.269 385.616V388.32H116.341V389.504H113.269V393.472C113.269 394.037 113.397 394.432 113.653 394.656C113.92 394.88 114.341 394.992 114.917 394.992C115.472 394.992 116.037 394.875 116.613 394.64V395.824C115.963 396.059 115.275 396.176 114.549 396.176C113.771 396.176 113.152 395.968 112.693 395.552C112.235 395.125 112.005 394.507 112.005 393.696V389.504H110.565V388.32H112.005V385.936ZM119.128 392.16C119.128 390.901 119.512 389.915 120.28 389.2C121.059 388.485 121.949 388.128 122.952 388.128C123.891 388.128 124.664 388.363 125.272 388.832C125.891 389.301 126.296 389.883 126.488 390.576C126.68 391.259 126.691 391.973 126.52 392.72H120.408C120.483 393.477 120.819 394.048 121.416 394.432C122.013 394.816 122.733 395.008 123.576 395.008C124.515 395.008 125.357 394.8 126.104 394.384V395.632C125.389 396.005 124.483 396.192 123.384 396.192C122.168 396.192 121.155 395.845 120.344 395.152C119.533 394.459 119.128 393.461 119.128 392.16ZM125.384 391.6C125.416 391.376 125.4 391.141 125.336 390.896C125.272 390.651 125.155 390.405 124.984 390.16C124.824 389.915 124.573 389.712 124.232 389.552C123.891 389.392 123.491 389.312 123.032 389.312C122.339 389.312 121.736 389.515 121.224 389.92C120.723 390.325 120.451 390.885 120.408 391.6H125.384ZM131.174 389.68C131.472 389.179 131.931 388.789 132.55 388.512C133.168 388.224 133.814 388.107 134.486 388.16V389.44C133.739 389.355 133.078 389.477 132.502 389.808C131.936 390.128 131.536 390.597 131.302 391.216V396H130.022V388.32H131.174V389.68ZM137.993 385.936L139.257 385.616V388.32H142.329V389.504H139.257V393.472C139.257 394.037 139.385 394.432 139.641 394.656C139.908 394.88 140.329 394.992 140.905 394.992C141.46 394.992 142.025 394.875 142.601 394.64V395.824C141.95 396.059 141.262 396.176 140.537 396.176C139.758 396.176 139.14 395.968 138.681 395.552C138.222 395.125 137.993 394.507 137.993 393.696V389.504H136.553V388.32H137.993V385.936ZM151.883 394.4C151.883 394.795 152.081 394.992 152.475 394.992C152.646 394.992 152.843 394.955 153.067 394.88V395.92C152.747 396.037 152.427 396.096 152.107 396.096C151.371 396.096 150.902 395.787 150.699 395.168C149.878 395.851 148.881 396.192 147.707 396.192C146.961 396.192 146.321 395.995 145.787 395.6C145.265 395.195 145.003 394.613 145.003 393.856C145.003 392.949 145.339 392.293 146.011 391.888C146.694 391.472 147.515 391.264 148.475 391.264C149.179 391.264 149.889 391.344 150.603 391.504V391.232C150.603 390.645 150.411 390.181 150.027 389.84C149.643 389.488 149.105 389.312 148.411 389.312C147.441 389.312 146.507 389.504 145.611 389.888V388.64C146.614 388.299 147.59 388.128 148.539 388.128C149.585 388.128 150.401 388.411 150.987 388.976C151.585 389.531 151.883 390.336 151.883 391.392V394.4ZM146.315 393.792C146.315 394.219 146.475 394.544 146.795 394.768C147.126 394.981 147.521 395.088 147.979 395.088C149.035 395.088 149.91 394.715 150.603 393.968V392.56C149.878 392.411 149.227 392.336 148.651 392.336C148.001 392.336 147.446 392.453 146.987 392.688C146.539 392.912 146.315 393.28 146.315 393.792ZM157.258 396H155.978V388.32H157.258V396ZM157.21 385.28C157.37 385.419 157.45 385.616 157.45 385.872C157.45 386.128 157.37 386.331 157.21 386.48C157.05 386.619 156.853 386.688 156.618 386.688C156.384 386.688 156.186 386.619 156.026 386.48C155.866 386.331 155.786 386.128 155.786 385.872C155.786 385.616 155.866 385.419 156.026 385.28C156.186 385.131 156.384 385.056 156.618 385.056C156.853 385.056 157.05 385.131 157.21 385.28ZM162.417 389.456C162.695 389.083 163.079 388.768 163.569 388.512C164.071 388.256 164.609 388.128 165.185 388.128C166.113 388.128 166.876 388.421 167.473 389.008C168.081 389.584 168.385 390.336 168.385 391.264V396H167.105V391.424C167.105 390.731 166.913 390.208 166.529 389.856C166.156 389.493 165.66 389.312 165.041 389.312C164.06 389.312 163.228 389.824 162.545 390.848V396H161.265V388.32H162.417V389.456ZM173.536 396H172.256V388.32H173.408V389.344C174.165 388.533 175.04 388.128 176.032 388.128C177.173 388.128 177.995 388.56 178.496 389.424C179.339 388.56 180.272 388.128 181.296 388.128C182.224 388.128 182.944 388.421 183.456 389.008C183.968 389.584 184.224 390.336 184.224 391.264V396H182.944V391.232C182.944 390.645 182.784 390.181 182.464 389.84C182.144 389.488 181.707 389.312 181.152 389.312C180.331 389.312 179.584 389.733 178.912 390.576C178.944 390.8 178.96 391.029 178.96 391.264V396H177.68V391.232C177.68 390.645 177.52 390.181 177.2 389.84C176.88 389.488 176.443 389.312 175.888 389.312C175.035 389.312 174.251 389.776 173.536 390.704V396ZM187.562 392.16C187.562 390.901 187.946 389.915 188.714 389.2C189.493 388.485 190.384 388.128 191.386 388.128C192.325 388.128 193.098 388.363 193.706 388.832C194.325 389.301 194.73 389.883 194.922 390.576C195.114 391.259 195.125 391.973 194.954 392.72H188.842C188.917 393.477 189.253 394.048 189.85 394.432C190.448 394.816 191.168 395.008 192.01 395.008C192.949 395.008 193.792 394.8 194.538 394.384V395.632C193.824 396.005 192.917 396.192 191.818 396.192C190.602 396.192 189.589 395.845 188.778 395.152C187.968 394.459 187.562 393.461 187.562 392.16ZM193.818 391.6C193.85 391.376 193.834 391.141 193.77 390.896C193.706 390.651 193.589 390.405 193.418 390.16C193.258 389.915 193.008 389.712 192.666 389.552C192.325 389.392 191.925 389.312 191.466 389.312C190.773 389.312 190.17 389.515 189.658 389.92C189.157 390.325 188.885 390.885 188.842 391.6H193.818ZM199.608 389.456C199.885 389.083 200.269 388.768 200.76 388.512C201.261 388.256 201.8 388.128 202.376 388.128C203.304 388.128 204.067 388.421 204.664 389.008C205.272 389.584 205.576 390.336 205.576 391.264V396H204.296V391.424C204.296 390.731 204.104 390.208 203.72 389.856C203.347 389.493 202.851 389.312 202.232 389.312C201.251 389.312 200.419 389.824 199.736 390.848V396H198.456V388.32H199.608V389.456ZM209.865 385.936L211.129 385.616V388.32H214.201V389.504H211.129V393.472C211.129 394.037 211.257 394.432 211.513 394.656C211.779 394.88 212.201 394.992 212.777 394.992C213.331 394.992 213.897 394.875 214.473 394.64V395.824C213.822 396.059 213.134 396.176 212.409 396.176C211.63 396.176 211.011 395.968 210.553 395.552C210.094 395.125 209.865 394.507 209.865 393.696V389.504H208.425V388.32H209.865V385.936Z" fill="#111111"/>
<path d="M269.072 208.08H267.952V206.16C266.715 206.043 265.653 205.733 264.768 205.232V203.888C265.888 204.571 267.189 204.912 268.672 204.912C270.485 204.912 271.392 204.357 271.392 203.248C271.392 202.843 271.269 202.501 271.024 202.224C270.789 201.936 270.475 201.712 270.08 201.552C269.696 201.392 269.269 201.248 268.8 201.12C268.331 200.992 267.861 200.853 267.392 200.704C266.923 200.544 266.491 200.363 266.096 200.16C265.712 199.947 265.397 199.648 265.152 199.264C264.917 198.88 264.8 198.421 264.8 197.888C264.8 197.045 265.093 196.373 265.68 195.872C266.267 195.371 267.024 195.067 267.952 194.96V193.04H269.072V194.944C270.235 195.008 271.221 195.275 272.032 195.744V197.088C271.093 196.48 269.995 196.187 268.736 196.208C267.019 196.208 266.16 196.752 266.16 197.84C266.16 198.224 266.277 198.549 266.512 198.816C266.757 199.083 267.072 199.291 267.456 199.44C267.851 199.589 268.283 199.728 268.752 199.856C269.221 199.973 269.691 200.112 270.16 200.272C270.629 200.432 271.056 200.619 271.44 200.832C271.835 201.045 272.149 201.349 272.384 201.744C272.629 202.139 272.752 202.608 272.752 203.152C272.752 204.155 272.411 204.907 271.728 205.408C271.045 205.899 270.16 206.16 269.072 206.192V208.08ZM278.416 195.12H279.408V204.72H281.44V206H275.776V204.72H278.064V196.544L275.776 197.408V196.128L278.416 195.12ZM284.907 195.12H291.435V196.4H286.171L285.979 199.472C286.555 199.312 287.174 199.232 287.835 199.232C288.379 199.232 288.886 199.296 289.355 199.424C289.824 199.541 290.256 199.733 290.651 200C291.056 200.256 291.376 200.619 291.611 201.088C291.846 201.547 291.963 202.091 291.963 202.72C291.963 203.797 291.563 204.645 290.763 205.264C289.974 205.883 288.966 206.192 287.739 206.192C286.416 206.192 285.254 205.947 284.251 205.456V204.176C285.211 204.688 286.32 204.944 287.579 204.944C288.496 204.944 289.227 204.752 289.771 204.368C290.326 203.984 290.603 203.435 290.603 202.72C290.603 201.205 289.526 200.448 287.371 200.448C286.432 200.448 285.494 200.619 284.555 200.96L284.907 195.12ZM296.301 204.64C295.49 203.605 295.085 202.245 295.085 200.56C295.085 198.875 295.49 197.515 296.301 196.48C297.111 195.445 298.306 194.928 299.885 194.928C301.474 194.928 302.674 195.445 303.485 196.48C304.295 197.504 304.701 198.864 304.701 200.56C304.701 202.256 304.295 203.621 303.485 204.656C302.674 205.68 301.474 206.192 299.885 206.192C298.306 206.192 297.111 205.675 296.301 204.64ZM302.477 203.792C303.053 203.035 303.341 201.957 303.341 200.56C303.341 199.163 303.053 198.091 302.477 197.344C301.911 196.587 301.047 196.208 299.885 196.208C298.722 196.208 297.858 196.587 297.293 197.344C296.727 198.091 296.445 199.163 296.445 200.56C296.445 201.957 296.727 203.035 297.293 203.792C297.858 204.539 298.722 204.912 299.885 204.912C301.047 204.912 301.911 204.539 302.477 203.792Z" fill="#111111"/>
<path d="M269.072 274.08H267.952V272.16C266.715 272.043 265.653 271.733 264.768 271.232V269.888C265.888 270.571 267.189 270.912 268.672 270.912C270.485 270.912 271.392 270.357 271.392 269.248C271.392 268.843 271.269 268.501 271.024 268.224C270.789 267.936 270.475 267.712 270.08 267.552C269.696 267.392 269.269 267.248 268.8 267.12C268.331 266.992 267.861 266.853 267.392 266.704C266.923 266.544 266.491 266.363 266.096 266.16C265.712 265.947 265.397 265.648 265.152 265.264C264.917 264.88 264.8 264.421 264.8 263.888C264.8 263.045 265.093 262.373 265.68 261.872C266.267 261.371 267.024 261.067 267.952 260.96V259.04H269.072V260.944C270.235 261.008 271.221 261.275 272.032 261.744V263.088C271.093 262.48 269.995 262.187 268.736 262.208C267.019 262.208 266.16 262.752 266.16 263.84C266.16 264.224 266.277 264.549 266.512 264.816C266.757 265.083 267.072 265.291 267.456 265.44C267.851 265.589 268.283 265.728 268.752 265.856C269.221 265.973 269.691 266.112 270.16 266.272C270.629 266.432 271.056 266.619 271.44 266.832C271.835 267.045 272.149 267.349 272.384 267.744C272.629 268.139 272.752 268.608 272.752 269.152C272.752 270.155 272.411 270.907 271.728 271.408C271.045 271.899 270.16 272.16 269.072 272.192V274.08ZM276.016 261.984C277.029 261.28 278.192 260.928 279.504 260.928C280.635 260.928 281.536 261.184 282.208 261.696C282.88 262.208 283.216 262.923 283.216 263.84C283.216 264.277 283.131 264.688 282.96 265.072C282.8 265.456 282.555 265.808 282.224 266.128C281.904 266.448 281.589 266.72 281.28 266.944C280.981 267.157 280.603 267.397 280.144 267.664C280.091 267.696 279.925 267.792 279.648 267.952C279.381 268.112 279.211 268.213 279.136 268.256C279.072 268.299 278.923 268.395 278.688 268.544C278.464 268.683 278.315 268.784 278.24 268.848C278.176 268.912 278.059 269.013 277.888 269.152C277.728 269.291 277.616 269.408 277.552 269.504C277.499 269.6 277.424 269.723 277.328 269.872C277.243 270.011 277.184 270.149 277.152 270.288C277.12 270.427 277.104 270.576 277.104 270.736L283.296 270.72V272H275.632V271.36C275.632 270.763 275.728 270.224 275.92 269.744C276.112 269.253 276.384 268.837 276.736 268.496C277.099 268.144 277.456 267.851 277.808 267.616C278.16 267.371 278.571 267.109 279.04 266.832C279.147 266.779 279.227 266.736 279.28 266.704C280.251 266.139 280.885 265.707 281.184 265.408C281.643 264.939 281.872 264.411 281.872 263.824C281.872 263.291 281.653 262.885 281.216 262.608C280.789 262.32 280.181 262.176 279.392 262.176C278.24 262.176 277.115 262.56 276.016 263.328V261.984ZM287.748 270.64C286.937 269.605 286.532 268.245 286.532 266.56C286.532 264.875 286.937 263.515 287.748 262.48C288.558 261.445 289.753 260.928 291.332 260.928C292.921 260.928 294.121 261.445 294.932 262.48C295.742 263.504 296.148 264.864 296.148 266.56C296.148 268.256 295.742 269.621 294.932 270.656C294.121 271.68 292.921 272.192 291.332 272.192C289.753 272.192 288.558 271.675 287.748 270.64ZM293.924 269.792C294.5 269.035 294.788 267.957 294.788 266.56C294.788 265.163 294.5 264.091 293.924 263.344C293.358 262.587 292.494 262.208 291.332 262.208C290.169 262.208 289.305 262.587 288.74 263.344C288.174 264.091 287.892 265.163 287.892 266.56C287.892 267.957 288.174 269.035 288.74 269.792C289.305 270.539 290.169 270.912 291.332 270.912C292.494 270.912 293.358 270.539 293.924 269.792ZM300.598 270.64C299.787 269.605 299.382 268.245 299.382 266.56C299.382 264.875 299.787 263.515 300.598 262.48C301.408 261.445 302.603 260.928 304.182 260.928C305.771 260.928 306.971 261.445 307.782 262.48C308.592 263.504 308.998 264.864 308.998 266.56C308.998 268.256 308.592 269.621 307.782 270.656C306.971 271.68 305.771 272.192 304.182 272.192C302.603 272.192 301.408 271.675 300.598 270.64ZM306.774 269.792C307.35 269.035 307.638 267.957 307.638 266.56C307.638 265.163 307.35 264.091 306.774 263.344C306.208 262.587 305.344 262.208 304.182 262.208C303.019 262.208 302.155 262.587 301.59 263.344C301.024 264.091 300.742 265.163 300.742 266.56C300.742 267.957 301.024 269.035 301.59 269.792C302.155 270.539 303.019 270.912 304.182 270.912C305.344 270.912 306.208 270.539 306.774 269.792Z" fill="#111111"/>
<path d="M269.072 340.08H267.952V338.16C266.715 338.043 265.653 337.733 264.768 337.232V335.888C265.888 336.571 267.189 336.912 268.672 336.912C270.485 336.912 271.392 336.357 271.392 335.248C271.392 334.843 271.269 334.501 271.024 334.224C270.789 333.936 270.475 333.712 270.08 333.552C269.696 333.392 269.269 333.248 268.8 333.12C268.331 332.992 267.861 332.853 267.392 332.704C266.923 332.544 266.491 332.363 266.096 332.16C265.712 331.947 265.397 331.648 265.152 331.264C264.917 330.88 264.8 330.421 264.8 329.888C264.8 329.045 265.093 328.373 265.68 327.872C266.267 327.371 267.024 327.067 267.952 326.96V325.04H269.072V326.944C270.235 327.008 271.221 327.275 272.032 327.744V329.088C271.093 328.48 269.995 328.187 268.736 328.208C267.019 328.208 266.16 328.752 266.16 329.84C266.16 330.224 266.277 330.549 266.512 330.816C266.757 331.083 267.072 331.291 267.456 331.44C267.851 331.589 268.283 331.728 268.752 331.856C269.221 331.973 269.691 332.112 270.16 332.272C270.629 332.432 271.056 332.619 271.44 332.832C271.835 333.045 272.149 333.349 272.384 333.744C272.629 334.139 272.752 334.608 272.752 335.152C272.752 336.155 272.411 336.907 271.728 337.408C271.045 337.899 270.16 338.16 269.072 338.192V340.08ZM278.416 327.12H279.408V336.72H281.44V338H275.776V336.72H278.064V328.544L275.776 329.408V328.128L278.416 327.12ZM285.435 336.64C284.624 335.605 284.219 334.245 284.219 332.56C284.219 330.875 284.624 329.515 285.435 328.48C286.246 327.445 287.44 326.928 289.019 326.928C290.608 326.928 291.808 327.445 292.619 328.48C293.43 329.504 293.835 330.864 293.835 332.56C293.835 334.256 293.43 335.621 292.619 336.656C291.808 337.68 290.608 338.192 289.019 338.192C287.44 338.192 286.246 337.675 285.435 336.64ZM291.611 335.792C292.187 335.035 292.475 333.957 292.475 332.56C292.475 331.163 292.187 330.091 291.611 329.344C291.046 328.587 290.182 328.208 289.019 328.208C287.856 328.208 286.992 328.587 286.427 329.344C285.862 330.091 285.579 331.163 285.579 332.56C285.579 333.957 285.862 335.035 286.427 335.792C286.992 336.539 287.856 336.912 289.019 336.912C290.182 336.912 291.046 336.539 291.611 335.792ZM298.285 336.64C297.474 335.605 297.069 334.245 297.069 332.56C297.069 330.875 297.474 329.515 298.285 328.48C299.096 327.445 300.29 326.928 301.869 326.928C303.458 326.928 304.658 327.445 305.469 328.48C306.28 329.504 306.685 330.864 306.685 332.56C306.685 334.256 306.28 335.621 305.469 336.656C304.658 337.68 303.458 338.192 301.869 338.192C300.29 338.192 299.096 337.675 298.285 336.64ZM304.461 335.792C305.037 335.035 305.325 333.957 305.325 332.56C305.325 331.163 305.037 330.091 304.461 329.344C303.896 328.587 303.032 328.208 301.869 328.208C300.706 328.208 299.842 328.587 299.277 329.344C298.712 330.091 298.429 331.163 298.429 332.56C298.429 333.957 298.712 335.035 299.277 335.792C299.842 336.539 300.706 336.912 301.869 336.912C303.032 336.912 303.896 336.539 304.461 335.792Z" fill="#111111"/>
<path d="M269.072 398.08H267.952V396.16C266.715 396.043 265.653 395.733 264.768 395.232V393.888C265.888 394.571 267.189 394.912 268.672 394.912C270.485 394.912 271.392 394.357 271.392 393.248C271.392 392.843 271.269 392.501 271.024 392.224C270.789 391.936 270.475 391.712 270.08 391.552C269.696 391.392 269.269 391.248 268.8 391.12C268.331 390.992 267.861 390.853 267.392 390.704C266.923 390.544 266.491 390.363 266.096 390.16C265.712 389.947 265.397 389.648 265.152 389.264C264.917 388.88 264.8 388.421 264.8 387.888C264.8 387.045 265.093 386.373 265.68 385.872C266.267 385.371 267.024 385.067 267.952 384.96V383.04H269.072V384.944C270.235 385.008 271.221 385.275 272.032 385.744V387.088C271.093 386.48 269.995 386.187 268.736 386.208C267.019 386.208 266.16 386.752 266.16 387.84C266.16 388.224 266.277 388.549 266.512 388.816C266.757 389.083 267.072 389.291 267.456 389.44C267.851 389.589 268.283 389.728 268.752 389.856C269.221 389.973 269.691 390.112 270.16 390.272C270.629 390.432 271.056 390.619 271.44 390.832C271.835 391.045 272.149 391.349 272.384 391.744C272.629 392.139 272.752 392.608 272.752 393.152C272.752 394.155 272.411 394.907 271.728 395.408C271.045 395.899 270.16 396.16 269.072 396.192V398.08ZM276.96 394.64C276.149 393.605 275.744 392.245 275.744 390.56C275.744 388.875 276.149 387.515 276.96 386.48C277.771 385.445 278.965 384.928 280.544 384.928C282.133 384.928 283.333 385.445 284.144 386.48C284.955 387.504 285.36 388.864 285.36 390.56C285.36 392.256 284.955 393.621 284.144 394.656C283.333 395.68 282.133 396.192 280.544 396.192C278.965 396.192 277.771 395.675 276.96 394.64ZM283.136 393.792C283.712 393.035 284 391.957 284 390.56C284 389.163 283.712 388.091 283.136 387.344C282.571 386.587 281.707 386.208 280.544 386.208C279.381 386.208 278.517 386.587 277.952 387.344C277.387 388.091 277.104 389.163 277.104 390.56C277.104 391.957 277.387 393.035 277.952 393.792C278.517 394.539 279.381 394.912 280.544 394.912C281.707 394.912 282.571 394.539 283.136 393.792Z" fill="#111111"/>
<defs>
<linearGradient id="paint0_linear_1_3481" x1="344.374" y1="118.622" x2="344.374" y2="201.083" gradientUnits="userSpaceOnUse">
<stop stop-color="#FFB200"/>
<stop offset="0.974881" stop-color="#C7EFDA" stop-opacity="0"/>
</linearGradient>
<linearGradient id="paint1_linear_1_3481" x1="498" y1="82.5852" x2="498" y2="207" gradientUnits="userSpaceOnUse">
<stop offset="0.00586964" stop-color="#F3EBEB"/>
<stop offset="1" stop-color="#C4C4C4" stop-opacity="0"/>
</linearGradient>
<clipPath id="clip0_1_3481">
<rect width="16" height="22" fill="white" transform="translate(32 254)"/>
</clipPath>
</defs>
</svg>
