<svg width="80" height="83" viewBox="0 0 80 83" fill="none" xmlns="http://www.w3.org/2000/svg">
<path d="M31.7782 27.7165L30.8183 33.285H43.2472C46.4281 33.285 48.8624 36.1323 48.373 39.2882L47.8586 42.6141C47.2813 46.3559 44.0753 49.1149 40.3109 49.1149H28.1142L27.1543 54.6834H40.7124C47.7582 54.6834 53.7499 49.5307 54.8353 42.5386L55.3686 39.0866C56.2971 33.1086 51.692 27.7102 45.6627 27.7102H31.7782V27.7165Z" fill="#111111"/>
<path d="M22.6867 41.5811L22.2852 43.9181H34.7642C36.6526 43.9181 38.2651 42.5575 38.5851 40.6866L38.9866 38.3496H26.5076C24.6191 38.3559 23.0067 39.7165 22.6867 41.5811Z" fill="#111111"/>
<path d="M40.0033 76.8819C58.1603 76.8819 73.0988 62.8284 74.6171 44.9827C75.6523 44.6236 76.3989 43.6473 76.3989 42.4882C76.3989 41.3543 75.6899 40.3969 74.6924 40.0189C73.6697 21.7008 58.5054 7.11182 40.0033 7.11182C30.7052 7.11182 22.2478 10.8095 16.0052 16.8063C15.6852 16.6677 15.3339 16.5921 14.9637 16.5921C13.5081 16.5921 12.3224 17.7764 12.3224 19.2441C12.3224 19.7039 12.4478 20.1323 12.6612 20.5165C8.03093 26.4441 5.25781 33.9024 5.25781 42.0095C5.25781 45.1339 5.6719 48.2205 6.48124 51.2063C6.26165 51.4772 6.11736 51.8236 6.11736 52.2016C6.11736 53.0709 6.82005 53.7764 7.68586 53.7764C8.55168 53.7764 9.25437 53.0709 9.25437 52.2016C9.25437 51.5528 8.86537 50.9984 8.30699 50.7528C7.53528 47.9181 7.14001 44.9764 7.14001 42.0095C7.14001 34.3748 9.74374 27.3386 14.0979 21.7386C14.374 21.8331 14.6626 21.8961 14.9637 21.8961C16.4193 21.8961 17.6051 20.7118 17.6051 19.2441C17.6051 18.8472 17.511 18.4693 17.3541 18.1291C23.2517 12.485 31.2322 9.00788 40.0033 9.00788C57.4639 9.00788 71.7875 22.7528 72.8039 40.0315C71.8189 40.4158 71.1162 41.3732 71.1162 42.4945C71.1162 43.5906 71.7812 44.5354 72.7286 44.9386C71.2417 61.7638 57.1377 74.9984 39.9971 74.9984C34.5449 74.9984 29.143 73.6315 24.381 71.0425C24.3559 70.1984 23.6658 69.5181 22.8188 69.5181C21.953 69.5181 21.2503 70.2236 21.2503 71.0929C21.2503 71.9622 21.953 72.6677 22.8188 72.6677C23.076 72.6677 23.3144 72.5984 23.5278 72.4913L23.4274 72.674C28.4842 75.4205 34.2124 76.8819 40.0033 76.8819ZM14.9637 20.6236C14.1983 20.6236 13.5772 20 13.5772 19.2315C13.5772 18.463 14.1983 17.8394 14.9637 17.8394C15.7291 17.8394 16.3503 18.463 16.3503 19.2315C16.3503 20 15.7291 20.6236 14.9637 20.6236ZM72.371 42.4882C72.371 41.7197 72.9921 41.0961 73.7575 41.0961C74.523 41.0961 75.1441 41.7197 75.1441 42.4882C75.1441 43.2567 74.523 43.8803 73.7575 43.8803C72.9921 43.8803 72.371 43.2567 72.371 42.4882Z" fill="#111111"/>
<path d="M80 41.9905C80 34.9039 78.1492 28.252 74.9306 22.4693C75.0184 22.274 75.0624 22.0598 75.0624 21.8268C75.0624 20.9449 74.3471 20.2268 73.4688 20.2268C72.5904 20.2268 71.8752 20.9449 71.8752 21.8268C71.8752 22.6835 72.5527 23.3827 73.3997 23.4205L73.3433 23.4772C76.3799 28.9701 78.1178 35.2756 78.1178 41.9905C78.1178 52.0315 74.2405 61.178 67.9163 68.0126C67.59 67.8677 67.2324 67.7858 66.8559 67.7858C65.4004 67.7858 64.2146 68.9701 64.2146 70.4378C64.2146 70.7654 64.2836 71.0803 64.3902 71.3701C57.7774 76.9134 49.2699 80.2583 40.0031 80.2583C30.6298 80.2583 22.0406 76.8378 15.3964 71.1811C15.5407 70.8535 15.616 70.5008 15.616 70.1228C15.616 68.6614 14.4365 67.4709 12.9747 67.4709C12.5606 67.4709 12.1779 67.5717 11.8328 67.7417C5.65916 60.9386 1.88849 51.8992 1.88849 41.9905C1.88849 22.3937 16.6387 6.19843 35.58 3.9874C36.038 4.7622 36.8787 5.29134 37.8449 5.29134C38.9177 5.29134 39.8337 4.64882 40.2478 3.72913C45.9635 3.76693 51.3905 5.07087 56.2466 7.38268C56.2466 7.38898 56.2466 7.38898 56.2466 7.39528C56.2466 8.27717 56.9618 8.99528 57.8402 8.99528C58.7185 8.99528 59.4338 8.27717 59.4338 7.39528C59.4338 6.51339 58.7185 5.79528 57.8402 5.79528C57.6896 5.79528 57.5453 5.82047 57.4073 5.86457C52.2375 3.34488 46.4528 1.90236 40.3419 1.85197C40.0031 0.781102 39.0181 0 37.8386 0C36.5587 0 35.4921 0.919685 35.2474 2.13543C15.4278 4.50394 0 21.474 0 41.9968C0 52.4409 3.99655 61.9716 10.5341 69.1213C10.4086 69.4299 10.3333 69.7701 10.3333 70.1291C10.3333 71.5905 11.5128 72.7811 12.9747 72.7811C13.3637 72.7811 13.7338 72.6929 14.0663 72.5354C21.0556 78.526 30.109 82.1543 39.9969 82.1543C49.7467 82.1543 58.6934 78.6268 65.6388 72.7874C66.0027 72.9764 66.4105 73.0961 66.8497 73.0961C68.3052 73.0961 69.491 71.9118 69.491 70.4441C69.491 70.0535 69.4032 69.6819 69.2463 69.348C75.9094 62.1669 80 52.5543 80 41.9905ZM37.8386 1.25354C38.604 1.25354 39.2252 1.87717 39.2252 2.64567C39.2252 3.41417 38.604 4.0378 37.8386 4.0378C37.0732 4.0378 36.452 3.41417 36.452 2.64567C36.452 1.87717 37.0732 1.25354 37.8386 1.25354ZM12.9747 71.515C12.2092 71.515 11.5881 70.8913 11.5881 70.1228C11.5881 69.3543 12.2092 68.7307 12.9747 68.7307C13.7401 68.7307 14.3612 69.3543 14.3612 70.1228C14.3612 70.8913 13.7401 71.515 12.9747 71.515ZM66.8559 71.8299C66.0905 71.8299 65.4694 71.2063 65.4694 70.4378C65.4694 69.6693 66.0905 69.0457 66.8559 69.0457C67.6214 69.0457 68.2425 69.6693 68.2425 70.4378C68.2425 71.2063 67.6151 71.8299 66.8559 71.8299Z" fill="#111111"/>
<path d="M15.798 59.7858C15.9611 59.7858 16.118 59.7669 16.2686 59.7354C21.6705 66.9984 30.2973 71.7102 39.9969 71.7102C44.5707 71.7102 48.9499 70.6897 53.0217 68.6803C53.2351 68.7874 53.4672 68.8504 53.7182 68.8504C54.584 68.8504 55.2867 68.1448 55.2867 67.2756C55.2867 66.4063 54.584 65.7007 53.7182 65.7007C52.9465 65.7007 52.3128 66.2551 52.181 66.9921C48.3727 68.8693 44.282 69.8204 40.0032 69.8204C30.9811 69.8204 22.9504 65.4677 17.8872 58.7401C18.2323 58.2929 18.4456 57.7385 18.4456 57.1275C18.4456 55.6661 17.2661 54.4755 15.8043 54.4755C15.6223 54.4755 15.4466 54.4944 15.2772 54.5259C13.3699 50.7527 12.2908 46.4944 12.2908 41.9842C12.2908 26.6393 24.7259 14.1543 40.0094 14.1543C45.5243 14.1543 50.6627 15.7858 54.9855 18.5826C54.9291 18.7968 54.8914 19.0173 54.8914 19.2441C54.8914 20.7055 56.0709 21.896 57.5328 21.896C57.997 21.896 58.43 21.7637 58.8064 21.5496C64.2836 26.6393 67.728 33.9086 67.728 41.9779C67.728 45.8645 66.9438 49.6126 65.4067 53.1401C64.6601 53.2598 64.0828 53.9023 64.0828 54.6897C64.0828 55.559 64.7855 56.2645 65.6513 56.2645C66.5172 56.2645 67.2199 55.559 67.2199 54.6897C67.2199 54.4567 67.1634 54.2299 67.0755 54.0346C68.757 50.2299 69.6103 46.1795 69.6103 41.9842C69.6103 33.3354 65.9086 25.5433 60.0173 20.107C60.1114 19.8362 60.1679 19.5527 60.1679 19.2504C60.1679 17.7889 58.9883 16.5984 57.5265 16.5984C56.9869 16.5984 56.485 16.7622 56.0646 17.0393C51.4344 14.022 45.9196 12.2645 40.0032 12.2645C23.6844 12.2645 10.4023 25.5937 10.4023 41.9842C10.4023 46.8724 11.5881 51.4834 13.6837 55.5527C13.3574 55.9937 13.1629 56.5354 13.1629 57.1212C13.1566 58.5952 14.3424 59.7858 15.798 59.7858ZM15.798 55.7417C16.5634 55.7417 17.1846 56.3653 17.1846 57.1338C17.1846 57.9023 16.5634 58.5259 15.798 58.5259C15.0326 58.5259 14.4115 57.9023 14.4115 57.1338C14.4115 56.3653 15.0326 55.7417 15.798 55.7417ZM57.5202 17.8708C58.2857 17.8708 58.9068 18.4944 58.9068 19.263C58.9068 20.0315 58.2857 20.6551 57.5202 20.6551C56.7548 20.6551 56.1337 20.0315 56.1337 19.263C56.1337 18.4944 56.7548 17.8708 57.5202 17.8708Z" fill="#111111"/>
</svg>
