<svg width="80" height="81" viewBox="0 0 80 81" fill="none" xmlns="http://www.w3.org/2000/svg">
<path d="M78.1259 43.3583L77.4851 31.7267C78.1199 31.5756 78.5914 31.0073 78.5914 30.3242C78.5914 29.5262 77.9445 28.8793 77.1465 28.8793C77.1223 28.8793 77.0982 28.8853 77.074 28.8853L74.4744 23.4807C74.6981 23.3054 74.8432 23.0394 74.8432 22.7371C74.8432 22.2172 74.42 21.794 73.9001 21.794C73.7731 21.794 73.6522 21.8182 73.5434 21.8665L69.771 16.0629C70.0975 15.7969 70.3091 15.3979 70.3091 14.9444C70.3091 14.1464 69.6622 13.4996 68.8642 13.4996C68.4833 13.4996 68.1327 13.6507 67.8788 13.8925L62.3955 9.20728C62.4802 9.06824 62.5285 8.90501 62.5285 8.72969C62.5285 8.20978 62.1053 7.78659 61.5854 7.78659C61.2771 7.78659 60.999 7.93773 60.8297 8.16746L52.5232 3.97188C52.5837 3.85097 52.6139 3.71193 52.6139 3.57289C52.6139 3.05298 52.1907 2.62978 51.6708 2.62978C51.2053 2.62978 50.8244 2.96834 50.7398 3.40966L41.0368 2.06756C41.0368 0.924959 40.1118 0 38.9692 0C37.8931 0 37.0166 0.822181 36.9198 1.8741L29.1755 3.35525C29.0728 2.94416 28.704 2.63583 28.2627 2.63583C27.7428 2.63583 27.3196 3.05902 27.3196 3.57893C27.3196 3.72402 27.3559 3.86306 27.4163 3.99002L19.0977 8.17351C18.9224 7.94378 18.6564 7.79868 18.3481 7.79868C17.8282 7.79868 17.405 8.22186 17.405 8.74178C17.405 8.9171 17.4594 9.08637 17.544 9.22542L12.0487 13.8986C11.7887 13.6568 11.4502 13.5117 11.0693 13.5117C10.2713 13.5117 9.62443 14.1585 9.62443 14.9565C9.62443 15.416 9.84207 15.815 10.1746 16.081L6.39613 21.8786C6.28731 21.8303 6.1664 21.8061 6.0334 21.8061C5.51349 21.8061 5.0903 22.2293 5.0903 22.7492C5.0903 23.0515 5.23539 23.3235 5.45908 23.4928L2.85951 28.8975C2.83533 28.8975 2.81115 28.8914 2.78697 28.8914C1.98897 28.8914 1.3421 29.5383 1.3421 30.3363C1.3421 31.0255 1.82574 31.5937 2.46656 31.7388L1.82574 43.1648C0.798007 43.2857 0 44.1502 0 45.2082C0 46.3508 0.924959 47.2757 2.06756 47.2757C2.17033 47.2757 2.26706 47.2576 2.36983 47.2455L5.76135 57.9339C5.59812 58.1637 5.50744 58.4478 5.50744 58.7501C5.50744 59.5481 6.15431 60.195 6.95232 60.195C6.96441 60.195 6.9765 60.1889 6.99464 60.1889L11.1358 65.7689C11.1298 65.8233 11.1177 65.8777 11.1177 65.9321C11.1177 66.452 11.5409 66.8752 12.0608 66.8752C12.0849 66.8752 12.1031 66.8692 12.1212 66.8692L21.6005 73.8457C21.5764 73.9545 21.5582 74.0694 21.5582 74.1903C21.5582 74.9883 22.2051 75.6351 23.0031 75.6351C23.4384 75.6351 23.8253 75.4356 24.0913 75.1334L32.7545 77.9385C32.7303 78.0654 32.7122 78.1984 32.7122 78.3314C32.7122 79.474 33.6371 80.399 34.7797 80.399C35.8195 80.399 36.6719 79.6312 36.817 78.6277L43.721 78.6035C43.8661 79.2443 44.4404 79.7219 45.1236 79.7219C45.9216 79.7219 46.5684 79.075 46.5684 78.277C46.5684 78.2287 46.5563 78.1863 46.5563 78.138L55.8603 75.1394C56.1263 75.4356 56.5072 75.6291 56.9364 75.6291C57.7344 75.6291 58.3813 74.9822 58.3813 74.1842C58.3813 74.0633 58.3632 73.9424 58.3329 73.8276L67.6249 67.0203C67.7035 67.0385 67.7881 67.0505 67.8788 67.0505C68.5015 67.0505 69.0033 66.5488 69.0033 65.9261C69.0033 65.7991 68.9791 65.6843 68.9428 65.5694L72.9691 60.1829C72.9751 60.1829 72.9872 60.1829 72.9933 60.1829C73.7913 60.1829 74.4381 59.536 74.4381 58.738C74.4381 58.4297 74.3354 58.1395 74.1721 57.9037L77.5153 47.4208C77.6483 47.4511 77.7873 47.4632 77.9324 47.4632C79.075 47.4632 80 46.5382 80 45.3956C79.9879 44.3376 79.1718 43.461 78.1259 43.3583ZM73.8034 23.6741C73.8215 23.6741 73.8396 23.6802 73.8578 23.6802L76.2337 29.2179C76.1007 29.3267 75.9918 29.4536 75.9072 29.5987C74.7465 29.2965 73.0779 28.8551 71.3912 28.4138C72.3948 26.449 73.3258 24.6051 73.8034 23.6741ZM71.5423 58.7985L66.9236 59.3425L65.8656 53.8653L71.6391 58.2241C71.5726 58.3873 71.5363 58.5627 71.5363 58.7501C71.5424 58.7622 71.5423 58.7803 71.5423 58.7985ZM57.8433 60.5335C57.8433 60.7632 57.9037 60.9748 57.9944 61.1683L51.5015 65.3155C51.3262 65.0858 51.0542 64.9346 50.7459 64.9346C50.2259 64.9346 49.8028 65.3578 49.8028 65.8777C49.8028 65.9079 49.8088 65.9321 49.8088 65.9624L40.6197 67.5584C40.5169 66.8631 39.9244 66.3251 39.199 66.3251C38.4735 66.3251 37.875 66.8631 37.7783 67.5644L30.1186 65.9986C30.1247 65.9624 30.1307 65.92 30.1307 65.8838C30.1307 65.3639 29.7075 64.9407 29.1876 64.9407C28.8793 64.9407 28.6073 65.0918 28.4319 65.3215L21.9391 61.1804C22.0358 60.9869 22.0902 60.7753 22.0902 60.5456C22.0902 59.7476 21.4434 59.1007 20.6453 59.1007C20.3914 59.1007 20.1557 59.1733 19.9441 59.2881L15.6457 53.4905C15.7848 53.3091 15.8694 53.0855 15.8694 52.8376C15.8694 52.2391 15.3858 51.7494 14.7812 51.7494C14.7752 51.7494 14.7752 51.7494 14.7752 51.7494L12.4779 44.1805C12.8225 43.9991 13.0583 43.6424 13.0583 43.2253C13.0583 42.7356 12.7318 42.3245 12.2784 42.1915L12.5988 36.3697C13.2457 36.2306 13.7354 35.6503 13.7354 34.9611C13.7354 34.4533 13.4694 34.0059 13.0764 33.752L14.8719 27.8637C15.2951 27.773 15.6155 27.3921 15.6155 26.9387C15.6155 26.8117 15.5913 26.6969 15.543 26.582L21.6973 19.2972C21.8484 19.3516 22.0116 19.3879 22.1809 19.3879C22.9789 19.3879 23.6258 18.741 23.6258 17.943C23.6258 17.8644 23.6137 17.7919 23.6016 17.7193L35.2634 12.7681C35.4689 13.022 35.7833 13.1913 36.1339 13.1913C36.6115 13.1913 37.0165 12.895 37.1798 12.4779H42.7598C42.923 12.895 43.328 13.1913 43.8056 13.1913C44.1623 13.1913 44.4706 13.022 44.6762 12.7681L56.7128 17.8765C56.7128 17.8826 56.7128 17.8886 56.7128 17.8946C56.7128 18.4146 57.1359 18.8377 57.6558 18.8377C57.7163 18.8377 57.7768 18.8317 57.8372 18.8196L63.8404 25.9291C63.5986 26.1891 63.4474 26.5337 63.4474 26.9145C63.4474 27.7125 64.0943 28.3594 64.8923 28.3594C65.0011 28.3594 65.1099 28.3413 65.2127 28.3231L67.0203 34.2537C66.7846 34.423 66.6274 34.7011 66.6274 35.0155C66.6274 35.4508 66.9175 35.8074 67.3166 35.9223L67.6611 42.1975C67.2138 42.3305 66.8813 42.7416 66.8813 43.2313C66.8813 43.6484 67.1171 44.0051 67.4616 44.1865L65.1644 51.7555C65.1583 51.7555 65.1583 51.7555 65.1583 51.7555C64.5598 51.7555 64.0701 52.2391 64.0701 52.8436C64.0701 53.0915 64.1548 53.3152 64.2938 53.4966L59.9955 59.2942C59.7899 59.1793 59.5481 59.1068 59.2942 59.1068C58.4901 59.0947 57.8433 59.7415 57.8433 60.5335ZM58.8045 61.8937L58.0911 65.7931H51.8643L58.3813 61.658C58.5022 61.7547 58.6473 61.8333 58.8045 61.8937ZM50.232 66.6697L48.1705 70.9197L40.5532 68.2536C40.5592 68.2355 40.5653 68.2173 40.5713 68.1931L50.0748 66.5427C50.1232 66.5911 50.1776 66.6334 50.232 66.6697ZM37.8145 68.1931L31.6119 70.6174L29.6955 66.6636C29.7499 66.6274 29.7982 66.5911 29.8466 66.5427L37.8145 68.1931ZM28.0269 65.787H21.8303L21.1169 61.8877C21.2801 61.8333 21.4252 61.7487 21.5522 61.6398L28.0269 65.787ZM8.28233 58.2181L14.0558 53.8593L12.9978 59.3365L8.37906 58.7924C8.37906 58.7743 8.38509 58.7561 8.38509 58.744C8.38509 58.5627 8.34883 58.3813 8.28233 58.2181ZM4.20767 30.1851C5.51954 29.8406 7.18809 29.3992 8.82037 28.97C9.73928 30.7716 10.6824 32.6094 11.3353 33.8668C11.033 34.1328 10.8396 34.5137 10.8396 34.949C10.8396 35.2513 10.9363 35.5354 11.0935 35.7651L8.75991 38.1229L3.92957 31.1705C4.10489 30.9287 4.21371 30.6386 4.21371 30.3181C4.21975 30.2758 4.20767 30.2335 4.20767 30.1851ZM11.8734 33.5767C11.2325 32.3494 10.3257 30.5781 9.42492 28.8128C11.2748 28.3292 13.0039 27.8758 14.0074 27.6158C14.08 27.6823 14.1646 27.7428 14.2613 27.7851L12.49 33.5343C12.4235 33.5222 12.3509 33.5102 12.2784 33.5102C12.1393 33.5102 12.0064 33.5343 11.8734 33.5767ZM11.9882 36.3636L11.6618 42.1794C11.6376 42.1854 11.6134 42.1915 11.5952 42.1975L9.12264 38.6367L11.5469 36.1823C11.6799 36.2669 11.825 36.3334 11.9882 36.3636ZM11.0995 42.5723C10.9605 42.7537 10.8758 42.9774 10.8758 43.2253C10.8758 43.2373 10.8819 43.2494 10.8819 43.2676L4.06257 44.7004C4.00212 44.4706 3.91144 44.2469 3.78448 44.0595L8.68737 39.0962L11.0995 42.5723ZM4.12303 45.3049L11.0814 43.8419C11.1539 43.9386 11.2386 44.0233 11.3353 44.0958L9.5277 49.5609L3.87516 46.1755C4.01421 45.9155 4.10489 45.6253 4.12303 45.3049ZM11.8854 44.3739L14.1767 51.9247C14.0679 51.9973 13.9772 52.088 13.8986 52.1907L10.0597 49.8874L11.8854 44.3739ZM14.6724 53.9076C14.7087 53.9137 14.7389 53.9197 14.7752 53.9197C14.9142 53.9197 15.0412 53.8895 15.1621 53.8472L19.4786 59.6932C19.3939 59.8141 19.3274 59.9411 19.2791 60.0861L13.6084 59.4211L14.6724 53.9076ZM13.3666 21.0323L21.0806 18.868C21.1048 18.8982 21.129 18.9284 21.1592 18.9587L15.1198 26.1105C15.0533 26.0742 14.9807 26.044 14.9021 26.0198L13.3666 21.0323ZM23.0515 16.7883L25.6873 10.5312L34.816 12.2784L23.3779 17.1329C23.2872 16.9999 23.1784 16.8851 23.0515 16.7883ZM45.1115 12.2784L54.2402 10.5312L57.0332 17.1692C56.9908 17.2055 56.9485 17.2478 56.9183 17.2901L45.1115 12.2784ZM58.6292 18.8075L66.5548 21.0262L65.1764 25.4818C65.0797 25.4636 64.983 25.4515 64.8802 25.4515C64.6807 25.4515 64.4873 25.4938 64.318 25.5664L58.6292 18.8075ZM67.7821 34.0845C67.7216 34.0724 67.6551 34.0603 67.5886 34.0603L65.7629 28.039C65.8959 27.9362 66.0168 27.8093 66.1075 27.6642C67.1352 27.9302 68.7614 28.3533 70.5025 28.8128C69.4627 30.838 68.4168 32.8754 67.7821 34.0845ZM68.0239 35.8256L70.8048 38.6428L68.3322 42.2036C68.308 42.1975 68.2899 42.1915 68.2657 42.1854L67.9211 35.88C67.9574 35.8679 67.9876 35.8437 68.0239 35.8256ZM64.7774 53.8472C64.8923 53.8895 65.0193 53.9197 65.1523 53.9197C65.1885 53.9197 65.2248 53.9137 65.255 53.9076L66.3191 59.4151L60.6484 60.0801C60.6 59.935 60.5275 59.796 60.4368 59.6751L64.7774 53.8472ZM65.7326 51.9187L68.036 44.3739L69.8617 49.8874L66.0228 52.1907C65.9442 52.0819 65.8475 51.9912 65.7326 51.9187ZM68.5921 44.1019C68.6889 44.0293 68.7735 43.9447 68.8461 43.8479L75.8528 45.317C75.8528 45.3472 75.8467 45.3775 75.8467 45.4077C75.8467 45.6918 75.9072 45.9578 76.0039 46.2057L70.3998 49.567L68.5921 44.1019ZM75.9737 44.7185L69.0456 43.2615C69.0456 43.2494 69.0516 43.2374 69.0516 43.2192C69.0516 42.9714 68.967 42.7537 68.8279 42.5663L71.2461 39.0841L76.2639 44.1684C76.143 44.3376 76.0462 44.519 75.9737 44.7185ZM71.1615 38.1289L68.435 35.3722C68.4833 35.2573 68.5075 35.1364 68.5075 35.0034C68.5075 34.7797 68.4289 34.5802 68.2959 34.417C68.9428 33.1837 70.031 31.0617 71.101 28.97C72.7333 29.3992 74.4019 29.8406 75.7137 30.1851C75.7077 30.2335 75.7016 30.2819 75.7016 30.3302C75.7016 30.6506 75.8105 30.9408 75.9858 31.1826L71.1615 38.1289ZM70.7806 28.2506C69.0516 27.7972 67.383 27.3619 66.3069 27.0838C66.313 27.0233 66.3251 26.9629 66.3251 26.9024C66.3251 26.4309 66.0954 26.0138 65.7387 25.7478L67.1473 21.1955L72.9691 22.8278C72.9933 23.0575 73.09 23.2631 73.2472 23.4142C72.7575 24.3694 71.8023 26.2556 70.7806 28.2506ZM68.8702 16.3833C68.9912 16.3833 69.1121 16.3651 69.2269 16.3349L73.0537 22.2172L67.3286 20.6151L68.6405 16.3651C68.7191 16.3772 68.7917 16.3833 68.8702 16.3833ZM68.0662 16.1415L66.7362 20.4458L58.6534 18.1788L67.5463 15.5248C67.6672 15.7787 67.8425 15.9903 68.0662 16.1415ZM61.4524 9.66069C61.4947 9.66674 61.5371 9.67279 61.5854 9.67279C61.7063 9.67279 61.8212 9.6486 61.924 9.60629L67.5342 14.3883C67.4677 14.5515 67.4254 14.7329 67.4254 14.9263L58.5385 17.5742C58.472 17.3868 58.3511 17.2236 58.1939 17.1087L61.4524 9.66069ZM60.9083 9.38865L57.6075 16.9395L54.8628 10.4164L60.8176 9.27982C60.8418 9.3161 60.8721 9.35238 60.9083 9.38865ZM60.5396 8.69946L54.615 9.83602L52.4144 4.60062L60.5396 8.69946ZM51.3141 4.44343C51.423 4.48575 51.5439 4.51598 51.6708 4.51598C51.6829 4.51598 51.701 4.50993 51.7131 4.50993L54.0044 9.95087L44.8636 11.698C44.8334 11.5952 44.791 11.5046 44.7306 11.4139C46.4233 9.63046 49.9237 5.91853 51.3141 4.44343ZM40.9401 2.66001L50.8426 4.02025C50.8486 4.02629 50.8486 4.03234 50.8547 4.03838C49.4521 5.52558 45.9276 9.26169 44.253 11.027C44.114 10.9665 43.9568 10.9303 43.7935 10.9303C43.715 10.9303 43.6364 10.9363 43.5578 10.9544C42.5844 9.09242 41.1275 5.80971 40.2086 3.69984C40.5532 3.43988 40.8071 3.07715 40.9401 2.66001ZM38.9692 4.12907C39.2171 4.12907 39.4529 4.08071 39.6766 3.99607C40.5955 6.11199 42.0404 9.35842 43.0258 11.2386C42.8565 11.3958 42.7416 11.6073 42.6933 11.8492H37.2342C37.1737 11.5287 36.9803 11.2567 36.7082 11.0935C37.2705 9.12264 38.147 6.05758 38.7032 4.10488C38.7879 4.11698 38.8725 4.12907 38.9692 4.12907ZM29.103 3.97793L36.938 2.47865C37.071 3.13156 37.5183 3.66356 38.1047 3.93561C37.5485 5.88831 36.672 8.95941 36.1097 10.9242C35.9525 10.9242 35.8014 10.9605 35.6684 11.0209C33.9938 9.2496 30.4693 5.51349 29.0667 4.03234C29.0849 4.02025 29.097 4.00212 29.103 3.97793ZM28.2143 4.50993C28.2264 4.50993 28.2445 4.51598 28.2566 4.51598C28.3836 4.51598 28.5045 4.49179 28.6133 4.44343C30.0038 5.91853 33.5041 9.63047 35.2029 11.4199C35.1424 11.5046 35.1001 11.6013 35.0699 11.7041L25.9291 9.95693L28.2143 4.50993ZM27.513 4.60062L25.3125 9.83602L19.3879 8.69946L27.513 4.60062ZM19.1158 9.27378L25.0707 10.4103L22.5013 16.5223C22.3985 16.4981 22.2897 16.4861 22.1809 16.4861C22.1628 16.4861 22.1507 16.4921 22.1326 16.4921L19.0252 9.38865C19.0554 9.35238 19.0856 9.3161 19.1158 9.27378ZM18.0035 9.61233C18.1062 9.65465 18.2211 9.67883 18.342 9.67883C18.3843 9.67883 18.4267 9.67278 18.475 9.66674L21.528 16.6493C21.2136 16.8065 20.9597 17.0785 20.8328 17.411L12.5021 14.9263C12.5021 14.7389 12.4598 14.5575 12.3933 14.3883L18.0035 9.61233ZM12.3751 15.5309L20.7421 18.0277C20.7481 18.1304 20.7663 18.2272 20.7905 18.3178L13.1913 20.4458L11.8613 16.1415C12.0849 15.9903 12.2603 15.7787 12.3751 15.5309ZM10.7005 16.3349C10.8154 16.3651 10.9303 16.3833 11.0572 16.3833C11.1358 16.3833 11.2083 16.3712 11.2809 16.3591L12.5928 20.6091L6.87372 22.2111L10.7005 16.3349ZM6.95837 22.8278L12.7802 21.1955L14.2855 26.0621C13.953 26.2072 13.7172 26.5397 13.7172 26.9266C13.7172 26.9689 13.7233 27.0112 13.7293 27.0536C12.6593 27.3317 10.9303 27.7851 9.14683 28.2506C8.13119 26.2556 7.16995 24.3694 6.68631 23.4081C6.83745 23.263 6.93419 23.0575 6.95837 22.8278ZM6.06363 23.6802C6.08176 23.6802 6.10595 23.6741 6.12409 23.6741C6.59563 24.6112 7.53268 26.449 8.53623 28.4138C6.84954 28.8551 5.17495 29.2965 4.02026 29.5987C3.93562 29.4536 3.82075 29.3267 3.6938 29.2179L6.06363 23.6802ZM3.05298 31.7449C3.20411 31.7146 3.34316 31.6602 3.47012 31.5877L8.32464 38.5763L3.36129 43.6001C3.09529 43.3825 2.77489 43.2313 2.42425 43.1648L3.05298 31.7449ZM6.9644 57.3052C6.95835 57.3052 6.94628 57.3052 6.94023 57.3052C6.69237 57.3052 6.45658 57.3717 6.25104 57.4866L2.94415 47.0702C3.15574 46.9674 3.3492 46.8405 3.51243 46.6772L9.32819 50.1655L6.9644 57.3052ZM9.86625 50.4859L13.693 52.7771C13.693 52.7953 13.687 52.8134 13.687 52.8316C13.687 52.9948 13.7293 53.152 13.7898 53.291L7.93773 57.7103C7.82891 57.6014 7.70196 57.5168 7.56292 57.4503L9.86625 50.4859ZM11.9036 65.0011C11.7343 65.0253 11.5832 65.0978 11.4622 65.2006L7.60524 60.0257C7.87124 59.8866 8.08887 59.669 8.22187 59.403L12.8769 59.9471L11.9036 65.0011ZM12.5081 65.1039L13.4935 60.0136L19.2126 60.6846C19.2851 61.3678 19.8292 61.9058 20.5123 61.9663L21.2076 65.787H12.9797C12.9434 65.4908 12.762 65.2429 12.5081 65.1039ZM21.8726 73.2834L12.7379 66.579C12.7862 66.5246 12.8285 66.4641 12.8709 66.4037H21.3224L22.4953 72.8361C22.2474 72.9268 22.0358 73.0839 21.8726 73.2834ZM23.1059 72.7515L21.9451 66.4037H28.3896C28.4138 66.4339 28.438 66.4641 28.4622 66.4944L23.523 72.8421C23.39 72.7938 23.251 72.7635 23.1059 72.7515ZM24.0308 73.1867L29.0002 66.8027C29.0244 66.8087 29.0546 66.8087 29.0849 66.8087L31.0436 70.8411L24.2606 73.495C24.1941 73.3862 24.1215 73.2774 24.0308 73.1867ZM32.954 77.3581L24.3694 74.5893C24.4056 74.4623 24.4359 74.3233 24.4359 74.1842C24.4359 74.154 24.4298 74.1238 24.4238 74.0875L31.3036 71.3973L33.7883 76.5117C33.4376 76.7052 33.1474 77.0014 32.954 77.3581ZM34.7737 76.2518C34.6346 76.2518 34.5016 76.2639 34.3686 76.2941L31.8839 71.1736L38.1289 68.7312C38.2015 68.8158 38.2861 68.8884 38.3768 68.9549L35.3057 76.3304C35.1364 76.2881 34.9611 76.2518 34.7737 76.2518ZM43.7089 77.9868L36.811 78.011C36.7203 77.4065 36.3636 76.8866 35.8679 76.5722L38.939 69.1846C39.0237 69.1967 39.1083 69.2088 39.1929 69.2088C39.332 69.2088 39.465 69.1846 39.5919 69.1483L44.1623 77.2009C43.9386 77.4065 43.7754 77.6785 43.7089 77.9868ZM45.1236 76.8322C44.9724 76.8322 44.8334 76.8624 44.6943 76.9047L40.13 68.8642C40.1602 68.84 40.1904 68.8158 40.2207 68.7856L47.8984 71.4758L45.2868 76.8503C45.2324 76.8382 45.184 76.8322 45.1236 76.8322ZM46.3689 77.5516C46.248 77.346 46.0787 77.1707 45.8732 77.0437L48.4788 71.6753L55.4916 74.1359C55.4916 74.154 55.4855 74.1661 55.4855 74.1842C55.4855 74.3293 55.5097 74.4623 55.552 74.5893L46.3689 77.5516ZM55.6487 73.5374L48.7509 71.1192L50.8426 66.8148C50.8728 66.8148 50.897 66.8087 50.9272 66.8087L55.8966 73.1928C55.7938 73.2895 55.7152 73.4104 55.6487 73.5374ZM56.8216 72.7515C56.6765 72.7635 56.5314 72.7938 56.4044 72.8421L51.4653 66.4944C51.4895 66.4641 51.5197 66.4339 51.5378 66.4037H57.9823L56.8216 72.7515ZM58.0549 73.2834C57.8916 73.0779 57.68 72.9207 57.4322 72.83L58.605 66.3976H66.8571C66.9055 66.5004 66.972 66.5971 67.0445 66.6818L58.0549 73.2834ZM66.7604 65.787H58.7138L59.409 61.9663C60.0982 61.9058 60.6363 61.3678 60.7088 60.6846L66.4279 60.0136L67.377 64.9225C67.0445 65.0858 66.8087 65.4062 66.7604 65.787ZM68.568 65.0555C68.4047 64.9225 68.2052 64.8379 67.9816 64.8198L67.0385 59.9471L71.6935 59.403C71.8325 59.669 72.0441 59.8866 72.3101 60.0257L68.568 65.0555ZM71.9837 57.7103L66.1316 53.291C66.1981 53.152 66.2344 52.9948 66.2344 52.8316C66.2344 52.8134 66.2284 52.7953 66.2284 52.7771L70.0552 50.4859L72.3585 57.4503C72.2194 57.5168 72.0925 57.6014 71.9837 57.7103ZM73.6704 57.4866C73.4648 57.3778 73.2351 57.3052 72.9812 57.3052C72.9751 57.3052 72.963 57.3052 72.957 57.3052L70.5932 50.1594L76.3304 46.7196C76.4997 46.9191 76.6992 47.0883 76.9289 47.2093L73.6704 57.4866ZM76.6992 43.7391L71.6028 38.5763L76.4573 31.5877C76.5843 31.6602 76.7233 31.7146 76.8745 31.7449L77.5153 43.3764C77.213 43.4368 76.941 43.5638 76.6992 43.7391Z" fill="#111111"/>
<path d="M27.543 38.7697L40.3171 46.1392L53.0912 38.7697L40.3171 18.9768L27.543 38.7697ZM41.5987 23.3114L51.2957 38.3405L41.5987 43.9326V23.3114Z" fill="#111111"/>
<path d="M27.543 41.5809L40.3171 58.9919L53.0912 41.5809L40.3171 49.301L27.543 41.5809ZM41.5987 50.0204L48.285 45.982L41.5987 55.0925V50.0204Z" fill="#111111"/>
</svg>
