<svg width="80" height="82" viewBox="0 0 80 82" fill="none" xmlns="http://www.w3.org/2000/svg">
<path d="M40.0033 76.5744C58.1603 76.5744 73.0988 62.5771 74.6171 44.8028C75.6523 44.4452 76.3989 43.4727 76.3989 42.3183C76.3989 41.1889 75.6899 40.2353 74.6924 39.8588C73.6697 21.614 58.5054 7.08337 40.0033 7.08337C30.7052 7.08337 22.2478 10.7662 16.0052 16.7391C15.6852 16.6011 15.3339 16.5258 14.9637 16.5258C13.5081 16.5258 12.3224 17.7053 12.3224 19.1671C12.3224 19.6251 12.4478 20.0518 12.6612 20.4345C8.03093 26.3383 5.25781 33.7668 5.25781 41.8414C5.25781 44.9533 5.6719 48.0276 6.48124 51.0015C6.26165 51.2713 6.11736 51.6164 6.11736 51.9928C6.11736 52.8586 6.82005 53.5613 7.68586 53.5613C8.55168 53.5613 9.25437 52.8586 9.25437 51.9928C9.25437 51.3466 8.86537 50.7945 8.30699 50.5498C7.53528 47.7265 7.14001 44.7965 7.14001 41.8414C7.14001 34.2373 9.74374 27.2292 14.0979 21.6516C14.374 21.7458 14.6626 21.8085 14.9637 21.8085C16.4193 21.8085 17.6051 20.629 17.6051 19.1671C17.6051 18.7719 17.511 18.3954 17.3541 18.0566C23.2517 12.4351 31.2322 8.97185 40.0033 8.97185C57.4639 8.97185 71.7875 22.6618 72.8039 39.8714C71.8189 40.2541 71.1162 41.2078 71.1162 42.3245C71.1162 43.4162 71.7812 44.3573 72.7286 44.7589C71.2417 61.5168 57.1377 74.6985 39.9971 74.6985C34.5449 74.6985 29.143 73.337 24.381 70.7584C24.3559 69.9177 23.6658 69.2401 22.8188 69.2401C21.953 69.2401 21.2503 69.9428 21.2503 70.8086C21.2503 71.6744 21.953 72.3771 22.8188 72.3771C23.076 72.3771 23.3144 72.3081 23.5278 72.2014L23.4274 72.3834C28.4842 75.1188 34.2124 76.5744 40.0033 76.5744ZM14.9637 20.5411C14.1983 20.5411 13.5772 19.92 13.5772 19.1546C13.5772 18.3892 14.1983 17.768 14.9637 17.768C15.7291 17.768 16.3503 18.3892 16.3503 19.1546C16.3503 19.92 15.7291 20.5411 14.9637 20.5411ZM72.371 42.3183C72.371 41.5528 72.9921 40.9317 73.7575 40.9317C74.523 40.9317 75.1441 41.5528 75.1441 42.3183C75.1441 43.0837 74.523 43.7048 73.7575 43.7048C72.9921 43.7048 72.371 43.0837 72.371 42.3183Z" fill="#111111"/>
<path d="M80 41.8226C80 34.7643 78.1492 28.139 74.9306 22.3794C75.0184 22.1849 75.0624 21.9716 75.0624 21.7395C75.0624 20.8611 74.3471 20.1459 73.4688 20.1459C72.5904 20.1459 71.8752 20.8611 71.8752 21.7395C71.8752 22.5927 72.5527 23.2892 73.3997 23.3268L73.3433 23.3833C76.3799 28.8542 78.1178 35.1345 78.1178 41.8226C78.1178 51.8234 74.2405 60.9333 67.9163 67.7406C67.59 67.5963 67.2324 67.5147 66.8559 67.5147C65.4004 67.5147 64.2146 68.6942 64.2146 70.1561C64.2146 70.4823 64.2836 70.796 64.3902 71.0846C57.7774 76.6058 49.2699 79.9373 40.0031 79.9373C30.6298 79.9373 22.0406 76.5305 15.3964 70.8964C15.5407 70.5702 15.616 70.2188 15.616 69.8424C15.616 68.3868 14.4365 67.201 12.9747 67.201C12.5606 67.201 12.1779 67.3014 11.8328 67.4708C5.65916 60.6949 1.88849 51.6916 1.88849 41.8226C1.88849 22.3041 16.6387 6.17363 35.58 3.97145C36.038 4.74316 36.8787 5.27017 37.8449 5.27017C38.9177 5.27017 39.8337 4.63023 40.2478 3.71422C45.9635 3.75186 51.3905 5.05058 56.2466 7.35315C56.2466 7.35942 56.2466 7.35942 56.2466 7.3657C56.2466 8.24406 56.9618 8.9593 57.8402 8.9593C58.7185 8.9593 59.4338 8.24406 59.4338 7.3657C59.4338 6.48733 58.7185 5.7721 57.8402 5.7721C57.6896 5.7721 57.5453 5.79719 57.4073 5.84111C52.2375 3.3315 46.4528 1.89475 40.3419 1.84456C40.0031 0.777978 39.0181 0 37.8386 0C36.5587 0 35.4921 0.916007 35.2474 2.12689C15.4278 4.48592 0 21.3881 0 41.8289C0 52.2312 3.99655 61.7238 10.5341 68.8448C10.4086 69.1522 10.3333 69.491 10.3333 69.8486C10.3333 71.3042 11.5128 72.49 12.9747 72.49C13.3637 72.49 13.7338 72.4022 14.0663 72.2453C21.0556 78.2119 30.109 81.8257 39.9969 81.8257C49.7467 81.8257 58.6934 78.3123 65.6388 72.4963C66.0027 72.6845 66.4105 72.8037 66.8497 72.8037C68.3052 72.8037 69.491 71.6242 69.491 70.1623C69.491 69.7734 69.4032 69.4032 69.2463 69.0707C75.9094 61.9183 80 52.3441 80 41.8226ZM37.8386 1.24853C38.604 1.24853 39.2252 1.86966 39.2252 2.63509C39.2252 3.40052 38.604 4.02165 37.8386 4.02165C37.0732 4.02165 36.452 3.40052 36.452 2.63509C36.452 1.86966 37.0732 1.24853 37.8386 1.24853ZM12.9747 71.2289C12.2092 71.2289 11.5881 70.6078 11.5881 69.8424C11.5881 69.0769 12.2092 68.4558 12.9747 68.4558C13.7401 68.4558 14.3612 69.0769 14.3612 69.8424C14.3612 70.6078 13.7401 71.2289 12.9747 71.2289ZM66.8559 71.5426C66.0905 71.5426 65.4694 70.9215 65.4694 70.1561C65.4694 69.3906 66.0905 68.7695 66.8559 68.7695C67.6214 68.7695 68.2425 69.3906 68.2425 70.1561C68.2425 70.9215 67.6151 71.5426 66.8559 71.5426Z" fill="#111111"/>
<path d="M15.798 59.5467C15.9611 59.5467 16.118 59.5279 16.2686 59.4965C21.6705 66.7305 30.2973 71.4234 39.9969 71.4234C44.5707 71.4234 48.9499 70.407 53.0217 68.4056C53.2351 68.5123 53.4672 68.575 53.7182 68.575C54.584 68.575 55.2867 67.8723 55.2867 67.0065C55.2867 66.1407 54.584 65.438 53.7182 65.438C52.9465 65.438 52.3128 65.9901 52.181 66.7242C48.3727 68.5938 44.282 69.5412 40.0032 69.5412C30.9811 69.5412 22.9504 65.2059 17.8872 58.5052C18.2323 58.0598 18.4456 57.5077 18.4456 56.8991C18.4456 55.4435 17.2661 54.2577 15.8043 54.2577C15.6223 54.2577 15.4466 54.2765 15.2772 54.3079C13.3699 50.5498 12.2908 46.3085 12.2908 41.8163C12.2908 26.5328 24.7259 14.0977 40.0094 14.0977C45.5243 14.0977 50.6627 15.7227 54.9855 18.5084C54.9291 18.7217 54.8914 18.9413 54.8914 19.1671C54.8914 20.6227 56.0709 21.8085 57.5328 21.8085C57.997 21.8085 58.43 21.6767 58.8064 21.4634C64.2836 26.5328 67.728 33.773 67.728 41.8101C67.728 45.6811 66.9438 49.4142 65.4067 52.9276C64.6601 53.0468 64.0828 53.6868 64.0828 54.471C64.0828 55.3368 64.7855 56.0395 65.6513 56.0395C66.5172 56.0395 67.2199 55.3368 67.2199 54.471C67.2199 54.2389 67.1634 54.013 67.0755 53.8185C68.757 50.029 69.6103 45.9948 69.6103 41.8163C69.6103 33.2021 65.9086 25.4411 60.0173 20.0267C60.1114 19.7569 60.1679 19.4746 60.1679 19.1734C60.1679 17.7178 58.9883 16.532 57.5265 16.532C56.9869 16.532 56.485 16.6952 56.0646 16.9712C51.4344 13.966 45.9196 12.2155 40.0032 12.2155C23.6844 12.2155 10.4023 25.4913 10.4023 41.8163C10.4023 46.685 11.5881 51.2776 13.6837 55.3306C13.3574 55.7698 13.1629 56.3093 13.1629 56.8928C13.1566 58.3609 14.3424 59.5467 15.798 59.5467ZM15.798 55.5188C16.5634 55.5188 17.1846 56.1399 17.1846 56.9053C17.1846 57.6708 16.5634 58.2919 15.798 58.2919C15.0326 58.2919 14.4115 57.6708 14.4115 56.9053C14.4115 56.1399 15.0326 55.5188 15.798 55.5188ZM57.5202 17.7994C58.2857 17.7994 58.9068 18.4205 58.9068 19.1859C58.9068 19.9514 58.2857 20.5725 57.5202 20.5725C56.7548 20.5725 56.1337 19.9514 56.1337 19.1859C56.1337 18.4205 56.7548 17.7994 57.5202 17.7994Z" fill="#111111"/>
<path fill-rule="evenodd" clip-rule="evenodd" d="M38.5955 26.0881C38.4496 26.1402 38.3213 26.1832 38.3103 26.1837C38.2993 26.1842 38.2471 26.2842 38.1943 26.4057C38.1267 26.5613 38.0966 26.8964 38.0929 27.5372C38.0901 28.0379 38.067 28.6871 38.0417 28.98C37.9994 29.4694 37.979 29.5267 37.7896 29.6894C37.6762 29.7868 37.2592 29.9867 36.8629 30.1336C35.326 30.7033 34.4482 31.219 33.5523 32.0782C32.2343 33.3424 31.6006 34.9074 31.6006 36.8984C31.6006 38.7275 32.1343 39.963 33.4864 41.264C34.6415 42.3754 35.899 43.0812 38.6286 44.1501C40.962 45.0638 41.5456 45.3722 42.1998 46.0371C42.9368 46.7864 43.1047 47.7323 42.6584 48.6199C42.0764 49.7773 40.2242 50.3942 38.1314 50.1277C36.6168 49.9348 35.2512 49.5463 33.7554 48.8829C32.9938 48.5451 32.8686 48.5156 32.6573 48.6243C32.4489 48.7315 32.291 49.1073 31.8713 50.4948C31.3628 52.176 31.3002 52.4975 31.4255 52.7857C31.71 53.4404 33.6284 54.172 36.2912 54.6413C36.8107 54.7328 37.3072 54.839 37.3945 54.8773C37.6787 55.0018 37.7194 55.1992 37.7608 56.6567C37.818 58.6693 37.7373 58.5979 39.9547 58.5979C42.1952 58.5979 42.0951 58.694 42.1427 56.4974C42.1657 55.4316 42.2013 54.9217 42.2596 54.8238C42.4074 54.5752 42.7563 54.381 43.4356 54.1691C45.5928 53.4962 47.236 52.1633 48.1737 50.3256C49.5865 47.5572 49.0092 44.381 46.6876 42.1491C45.6564 41.1578 44.5055 40.5256 41.6454 39.3793C39.6358 38.5739 38.8415 38.1548 38.2405 37.5827C37.258 36.6472 37.3869 35.3654 38.5383 34.6233C39.159 34.2233 39.6793 34.1191 41.0155 34.1275C42.6327 34.1377 43.7299 34.3591 45.2691 34.9855C45.6941 35.1584 46.1439 35.2999 46.2687 35.2999C46.7091 35.2999 46.833 35.0463 47.5114 32.7561C47.9064 31.4226 47.9091 31.2583 47.5417 30.9252C47.1608 30.5798 45.516 30.0205 44.198 29.7881C42.9575 29.5695 42.6627 29.4819 42.5132 29.2875C42.3883 29.1252 42.3709 28.9906 42.3357 27.9117C42.2921 26.5755 42.2165 26.2998 41.8443 26.1209C41.5506 25.9797 38.9721 25.9537 38.5955 26.0881Z" fill="#111111"/>
</svg>
