<svg width="1006" height="767" viewBox="0 0 1006 767" fill="none" xmlns="http://www.w3.org/2000/svg">
<path d="M40 274C17.9462 274 0 291.94 0 314C0 336.054 17.9462 354 40 354C62.0538 354 80 336.054 80 314C80 291.94 62.0601 274 40 274ZM42.4847 275.975C61.5191 277.202 76.7857 292.462 78.0248 311.49C78.0877 312.434 77.3329 313.239 76.3894 313.239C75.5276 313.239 74.8168 312.572 74.7602 311.717C73.6342 294.311 59.6698 280.353 42.2582 279.24C41.4027 279.183 40.736 278.472 40.736 277.611C40.7297 276.667 41.5348 275.919 42.4847 275.975ZM12.2158 314C12.2158 298.677 24.6831 286.209 40.0063 286.209C55.3295 286.209 67.7968 298.677 67.7968 314C67.7968 329.323 55.3295 341.791 40.0063 341.791C24.6768 341.791 12.2158 329.323 12.2158 314ZM17.2794 335.368C16.6001 336.047 15.4867 336.003 14.8703 335.274C10.0016 329.531 7.05771 322.108 7.05771 314.006C7.05771 306.005 9.92609 298.664 14.6878 292.953C15.3043 292.217 16.424 292.166 17.1033 292.846C17.7009 293.443 17.7449 294.393 17.204 295.041C12.914 300.187 10.3287 306.804 10.3287 314.013C10.3287 321.316 12.9832 328.002 17.3738 333.173C17.9148 333.808 17.877 334.764 17.2794 335.368ZM62.4501 333.38C66.9476 328.178 69.6776 321.404 69.6776 314C69.6776 306.691 67.0168 299.992 62.6136 294.815C62.0664 294.167 62.1041 293.211 62.7017 292.607C63.381 291.927 64.4944 291.971 65.1109 292.701C69.9921 298.45 72.9486 305.886 72.9486 314C72.9486 322.215 69.9229 329.732 64.9284 335.513C64.3057 336.236 63.1986 336.274 62.5256 335.601C61.928 334.991 61.8902 334.028 62.4501 333.38ZM61.2738 288.864C62.0035 289.48 62.0475 290.6 61.3681 291.273C60.7706 291.871 59.8081 291.915 59.1602 291.368C53.9833 286.977 47.2967 284.322 40 284.322C32.5963 284.322 25.8217 287.052 20.6196 291.55C19.9717 292.11 19.003 292.072 18.3991 291.468C17.7261 290.795 17.7638 289.688 18.4872 289.065C24.2617 284.071 31.7786 281.045 40 281.045C48.1019 281.051 55.5307 283.995 61.2738 288.864ZM37.075 276.007C38.0248 275.931 38.8426 276.686 38.8426 277.642C38.8426 278.491 38.1884 279.202 37.3392 279.271C20.1227 280.58 6.37207 294.456 5.24611 311.723C5.18949 312.578 4.47869 313.245 3.61692 313.245C2.66709 313.245 1.91854 312.44 1.98144 311.496C3.21434 292.613 18.2544 277.447 37.075 276.007ZM37.0813 351.987C18.3802 350.566 3.42192 335.595 2.0129 316.9C1.9437 315.95 2.69225 315.132 3.64837 315.132C4.50385 315.132 5.21466 315.786 5.27756 316.636C6.56707 333.739 20.2485 347.427 37.3455 348.722C38.1947 348.785 38.8489 349.496 38.8489 350.352C38.8426 351.308 38.0311 352.063 37.0813 351.987ZM18.7073 339.111C17.9777 338.494 17.9336 337.381 18.613 336.702C19.2106 336.104 20.173 336.06 20.8209 336.614C25.9978 341.017 32.697 343.678 40.0063 343.678C47.215 343.678 53.8261 341.092 58.9778 336.802C59.6257 336.261 60.5756 336.305 61.1731 336.903C61.8525 337.582 61.8085 338.702 61.0662 339.318C55.3546 344.08 48.0138 346.949 40.0126 346.949C31.8855 346.949 24.4504 343.998 18.7073 339.111ZM42.4784 352.019C41.5348 352.081 40.7297 351.327 40.7297 350.383C40.7297 349.521 41.3964 348.811 42.2519 348.754C59.5377 347.647 73.4266 333.871 74.7287 316.636C74.7916 315.786 75.5024 315.132 76.3579 315.132C77.314 315.132 78.0689 315.944 77.9934 316.9C76.5655 335.746 61.3807 350.798 42.4784 352.019Z" fill="#111111"/>
<path d="M50.5177 319.718V325.7H29.4893V320.957L39.9563 308.798H29.8164V302.81H49.9956V307.552L39.5286 319.718H50.5177Z" fill="#111111"/>
<path d="M42.5727 297.073H36.7793V302.866H42.5727V297.073Z" fill="#111111"/>
<path d="M42.5727 325.134H36.7793V330.927H42.5727V325.134Z" fill="#111111"/>
<path d="M854.988 569.915C857.165 568.74 858.537 566.619 858.537 563.874C858.537 559.602 855.112 556.745 848.447 556.739V551.923H843.704V556.739H841.095H840.094V551.923H835.351V556.739H831.061V561.58H835.358V579.344H831.061V584.185H835.351V588.933H840.094V584.185H841.095H843.704V588.933H848.447V584.185H849.183C856.206 584.185 859.873 581.44 859.873 576.691C859.873 573.247 857.962 570.898 854.988 569.915ZM839.927 561.58H841.095V561.519H847.655C850.673 561.519 852.311 562.576 852.311 564.734C852.311 566.891 850.673 567.992 847.655 567.992H839.927V561.58ZM848.725 579.406H841.095V579.35H839.927V572.623H848.725C851.934 572.623 853.653 573.724 853.653 576.036C853.647 578.385 851.934 579.406 848.725 579.406Z" fill="#111111"/>
<path d="M825.02 589.212L823.271 590.961C823.277 590.968 823.277 590.968 823.283 590.974L825.033 589.224C825.026 589.218 825.02 589.218 825.02 589.212Z" fill="#111111"/>
<path d="M869.87 597.62L868.671 596.421L869.87 597.62Z" fill="#111111"/>
<path d="M867.342 595.092L868.671 596.421L867.342 595.092Z" fill="#111111"/>
<path d="M866.804 598.047L865.042 596.285C859.533 600.668 852.571 603.296 844.997 603.296C837.429 603.296 830.467 600.668 824.958 596.291L823.196 598.053C829.163 602.876 836.743 605.769 844.997 605.769C853.251 605.769 860.838 602.876 866.804 598.047Z" fill="#111111"/>
<path d="M821.675 589.057L823.437 587.295C820.024 582.775 817.996 577.149 817.996 571.059C817.996 556.17 830.108 544.052 845.003 544.052C851.093 544.052 856.713 546.08 861.239 549.493L863.001 547.731C858.018 543.879 851.779 541.579 845.009 541.579C828.754 541.579 815.529 554.804 815.529 571.059C815.523 577.835 817.823 584.08 821.675 589.057Z" fill="#111111"/>
<path d="M844.997 531C834.412 531 824.785 535.143 817.619 541.876C817.019 542.438 816.438 543.026 815.869 543.625L817.619 545.375L819.604 547.36C813.811 553.567 810.255 561.89 810.255 571.034C810.255 581.05 814.522 590.083 821.323 596.427L823.072 594.677C823.072 594.677 823.072 594.677 823.066 594.671L825.02 592.717C830.276 597.571 837.293 600.539 844.991 600.539C861.245 600.539 874.471 587.313 874.471 571.059C874.471 563.361 871.503 556.344 866.649 551.088C866.649 551.082 866.643 551.082 866.643 551.076L866.637 551.07L868.622 549.085L870.371 547.335C869.815 546.735 869.234 546.16 868.64 545.604C862.433 539.829 854.123 536.286 844.997 536.286C835.871 536.286 827.561 539.829 821.354 545.604L819.369 543.619C826.084 537.331 835.092 533.467 844.997 533.467C865.691 533.467 882.521 550.303 882.521 570.991C882.521 580.896 878.656 589.904 872.368 596.619L870.415 594.665C876.189 588.457 879.732 580.148 879.732 571.022C879.732 562.761 876.826 555.169 871.997 549.202L870.235 550.964C874.625 556.48 877.259 563.448 877.259 571.028C877.259 580.358 873.271 588.773 866.921 594.671L870.625 598.375C863.91 604.663 854.902 608.527 844.997 608.527C824.309 608.527 807.473 591.691 807.473 571.003C807.473 561.988 810.67 553.71 815.987 547.236L814.231 545.48C808.469 552.405 805 561.308 805 571.003C805 593.057 822.943 611 844.997 611C855.582 611 865.209 606.857 872.375 600.124C872.974 599.562 873.556 598.974 874.124 598.375C880.857 591.215 885 581.582 885 570.997C885 548.943 867.057 531 844.997 531ZM844.997 538.766C853.443 538.766 861.134 542.03 866.89 547.36L864.906 549.345L863.156 551.094C863.768 551.651 864.349 552.232 864.906 552.844C869.308 557.648 872.004 564.047 872.004 571.065C872.004 585.953 859.891 598.072 844.997 598.072C837.979 598.072 831.58 595.382 826.776 590.974C826.17 590.417 825.583 589.836 825.026 589.224L823.277 590.974L821.323 592.928C815.993 587.171 812.729 579.48 812.729 571.034C812.735 553.24 827.209 538.766 844.997 538.766Z" fill="#111111"/>
<path d="M195.126 574.358L194.485 562.727C195.12 562.576 195.591 562.007 195.591 561.324C195.591 560.526 194.945 559.879 194.147 559.879C194.122 559.879 194.098 559.885 194.074 559.885L191.474 554.481C191.698 554.305 191.843 554.039 191.843 553.737C191.843 553.217 191.42 552.794 190.9 552.794C190.773 552.794 190.652 552.818 190.543 552.867L186.771 547.063C187.097 546.797 187.309 546.398 187.309 545.944C187.309 545.146 186.662 544.5 185.864 544.5C185.483 544.5 185.133 544.651 184.879 544.893L179.396 540.207C179.48 540.068 179.529 539.905 179.529 539.73C179.529 539.21 179.105 538.787 178.585 538.787C178.277 538.787 177.999 538.938 177.83 539.167L169.523 534.972C169.584 534.851 169.614 534.712 169.614 534.573C169.614 534.053 169.191 533.63 168.671 533.63C168.205 533.63 167.824 533.968 167.74 534.41L158.037 533.068C158.037 531.925 157.112 531 155.969 531C154.893 531 154.017 531.822 153.92 532.874L146.176 534.355C146.073 533.944 145.704 533.636 145.263 533.636C144.743 533.636 144.32 534.059 144.32 534.579C144.32 534.724 144.356 534.863 144.416 534.99L136.098 539.174C135.922 538.944 135.656 538.799 135.348 538.799C134.828 538.799 134.405 539.222 134.405 539.742C134.405 539.917 134.459 540.086 134.544 540.225L129.049 544.899C128.789 544.657 128.45 544.512 128.069 544.512C127.271 544.512 126.624 545.159 126.624 545.957C126.624 546.416 126.842 546.815 127.175 547.081L123.396 552.879C123.287 552.83 123.166 552.806 123.033 552.806C122.513 552.806 122.09 553.229 122.09 553.749C122.09 554.051 122.235 554.324 122.459 554.493L119.86 559.897C119.835 559.897 119.811 559.891 119.787 559.891C118.989 559.891 118.342 560.538 118.342 561.336C118.342 562.025 118.826 562.594 119.467 562.739L118.826 574.165C117.798 574.286 117 575.15 117 576.208C117 577.351 117.925 578.276 119.068 578.276C119.17 578.276 119.267 578.258 119.37 578.246L122.761 588.934C122.598 589.164 122.507 589.448 122.507 589.75C122.507 590.548 123.154 591.195 123.952 591.195C123.964 591.195 123.977 591.189 123.995 591.189L128.136 596.769C128.13 596.823 128.118 596.878 128.118 596.932C128.118 597.452 128.541 597.875 129.061 597.875C129.085 597.875 129.103 597.869 129.121 597.869L138.601 604.846C138.576 604.955 138.558 605.069 138.558 605.19C138.558 605.988 139.205 606.635 140.003 606.635C140.438 606.635 140.825 606.436 141.091 606.133L149.754 608.938C149.73 609.065 149.712 609.198 149.712 609.331C149.712 610.474 150.637 611.399 151.78 611.399C152.82 611.399 153.672 610.631 153.817 609.628L160.721 609.603C160.866 610.244 161.44 610.722 162.124 610.722C162.922 610.722 163.568 610.075 163.568 609.277C163.568 609.229 163.556 609.186 163.556 609.138L172.86 606.139C173.126 606.436 173.507 606.629 173.936 606.629C174.734 606.629 175.381 605.982 175.381 605.184C175.381 605.063 175.363 604.942 175.333 604.828L184.625 598.02C184.703 598.038 184.788 598.051 184.879 598.051C185.501 598.051 186.003 597.549 186.003 596.926C186.003 596.799 185.979 596.684 185.943 596.569L189.969 591.183C189.975 591.183 189.987 591.183 189.993 591.183C190.791 591.183 191.438 590.536 191.438 589.738C191.438 589.43 191.335 589.139 191.172 588.904L194.515 578.421C194.648 578.451 194.787 578.463 194.932 578.463C196.075 578.463 197 577.538 197 576.396C196.988 575.338 196.172 574.461 195.126 574.358ZM190.803 554.674C190.822 554.674 190.84 554.68 190.858 554.68L193.234 560.218C193.101 560.327 192.992 560.454 192.907 560.599C191.746 560.296 190.078 559.855 188.391 559.414C189.395 557.449 190.326 555.605 190.803 554.674ZM188.542 589.798L183.924 590.343L182.866 584.865L188.639 589.224C188.573 589.387 188.536 589.563 188.536 589.75C188.542 589.762 188.542 589.78 188.542 589.798ZM174.843 591.534C174.843 591.763 174.904 591.975 174.994 592.168L168.502 596.315C168.326 596.086 168.054 595.935 167.746 595.935C167.226 595.935 166.803 596.358 166.803 596.878C166.803 596.908 166.809 596.932 166.809 596.962L157.62 598.558C157.517 597.863 156.924 597.325 156.199 597.325C155.474 597.325 154.875 597.863 154.778 598.564L147.119 596.999C147.125 596.962 147.131 596.92 147.131 596.884C147.131 596.364 146.708 595.941 146.188 595.941C145.879 595.941 145.607 596.092 145.432 596.322L138.939 592.18C139.036 591.987 139.09 591.775 139.09 591.546C139.09 590.748 138.443 590.101 137.645 590.101C137.391 590.101 137.156 590.173 136.944 590.288L132.646 584.491C132.785 584.309 132.869 584.085 132.869 583.838C132.869 583.239 132.386 582.749 131.781 582.749C131.775 582.749 131.775 582.749 131.775 582.749L129.478 575.18C129.822 574.999 130.058 574.642 130.058 574.225C130.058 573.736 129.732 573.324 129.278 573.191L129.599 567.37C130.246 567.231 130.735 566.65 130.735 565.961C130.735 565.453 130.469 565.006 130.076 564.752L131.872 558.864C132.295 558.773 132.616 558.392 132.616 557.939C132.616 557.812 132.591 557.697 132.543 557.582L138.697 550.297C138.848 550.352 139.012 550.388 139.181 550.388C139.979 550.388 140.626 549.741 140.626 548.943C140.626 548.864 140.614 548.792 140.602 548.719L152.263 543.768C152.469 544.022 152.783 544.191 153.134 544.191C153.611 544.191 154.017 543.895 154.18 543.478H159.76C159.923 543.895 160.328 544.191 160.806 544.191C161.162 544.191 161.471 544.022 161.676 543.768L173.713 548.877C173.713 548.883 173.713 548.889 173.713 548.895C173.713 549.415 174.136 549.838 174.656 549.838C174.716 549.838 174.777 549.832 174.837 549.82L180.84 556.929C180.599 557.189 180.447 557.534 180.447 557.915C180.447 558.713 181.094 559.359 181.892 559.359C182.001 559.359 182.11 559.341 182.213 559.323L184.02 565.254C183.785 565.423 183.627 565.701 183.627 566.015C183.627 566.451 183.918 566.807 184.317 566.922L184.661 573.198C184.214 573.331 183.881 573.742 183.881 574.231C183.881 574.648 184.117 575.005 184.462 575.187L182.164 582.755C182.158 582.755 182.158 582.755 182.158 582.755C181.56 582.755 181.07 583.239 181.07 583.844C181.07 584.091 181.155 584.315 181.294 584.497L176.995 590.294C176.79 590.179 176.548 590.107 176.294 590.107C175.49 590.095 174.843 590.742 174.843 591.534ZM175.804 592.894L175.091 596.793H168.864L175.381 592.658C175.502 592.755 175.647 592.833 175.804 592.894ZM167.232 597.67L165.17 601.92L157.553 599.254C157.559 599.235 157.565 599.217 157.571 599.193L167.075 597.543C167.123 597.591 167.178 597.633 167.232 597.67ZM154.815 599.193L148.612 601.617L146.695 597.664C146.75 597.627 146.798 597.591 146.847 597.543L154.815 599.193ZM145.027 596.787H138.83L138.117 592.888C138.28 592.833 138.425 592.749 138.552 592.64L145.027 596.787ZM125.282 589.218L131.056 584.859L129.998 590.337L125.379 589.792C125.379 589.774 125.385 589.756 125.385 589.744C125.385 589.563 125.349 589.381 125.282 589.218ZM121.208 561.185C122.52 560.841 124.188 560.399 125.82 559.97C126.739 561.772 127.682 563.609 128.335 564.867C128.033 565.133 127.84 565.514 127.84 565.949C127.84 566.251 127.936 566.535 128.093 566.765L125.76 569.123L120.93 562.171C121.105 561.929 121.214 561.639 121.214 561.318C121.22 561.276 121.208 561.234 121.208 561.185ZM128.873 564.577C128.233 563.349 127.326 561.578 126.425 559.813C128.275 559.329 130.004 558.876 131.007 558.616C131.08 558.682 131.165 558.743 131.261 558.785L129.49 564.534C129.423 564.522 129.351 564.51 129.278 564.51C129.139 564.51 129.006 564.534 128.873 564.577ZM128.988 567.364L128.662 573.179C128.638 573.185 128.613 573.191 128.595 573.198L126.123 569.637L128.547 567.182C128.68 567.267 128.825 567.333 128.988 567.364ZM128.1 573.572C127.96 573.754 127.876 573.977 127.876 574.225C127.876 574.237 127.882 574.249 127.882 574.268L121.063 575.7C121.002 575.471 120.911 575.247 120.784 575.06L125.687 570.096L128.1 573.572ZM121.123 576.305L128.081 574.842C128.154 574.939 128.239 575.023 128.335 575.096L126.528 580.561L120.875 577.175C121.014 576.916 121.105 576.625 121.123 576.305ZM128.885 575.374L131.177 582.925C131.068 582.997 130.977 583.088 130.899 583.191L127.06 580.887L128.885 575.374ZM131.672 584.908C131.709 584.914 131.739 584.92 131.775 584.92C131.914 584.92 132.041 584.89 132.162 584.847L136.479 590.693C136.394 590.814 136.327 590.941 136.279 591.086L130.608 590.421L131.672 584.908ZM130.367 552.032L138.081 549.868C138.105 549.898 138.129 549.928 138.159 549.959L132.12 557.11C132.053 557.074 131.981 557.044 131.902 557.02L130.367 552.032ZM140.051 547.788L142.687 541.531L151.816 543.278L140.378 548.133C140.287 548 140.178 547.885 140.051 547.788ZM162.111 543.278L171.24 541.531L174.033 548.169C173.991 548.205 173.949 548.248 173.918 548.29L162.111 543.278ZM175.629 549.808L183.555 552.026L182.176 556.482C182.08 556.464 181.983 556.452 181.88 556.452C181.681 556.452 181.487 556.494 181.318 556.566L175.629 549.808ZM184.782 565.084C184.722 565.072 184.655 565.06 184.589 565.06L182.763 559.039C182.896 558.936 183.017 558.809 183.107 558.664C184.135 558.93 185.761 559.353 187.503 559.813C186.463 561.838 185.417 563.875 184.782 565.084ZM185.024 566.826L187.805 569.643L185.332 573.204C185.308 573.198 185.29 573.191 185.266 573.185L184.921 566.88C184.957 566.868 184.988 566.844 185.024 566.826ZM181.777 584.847C181.892 584.89 182.019 584.92 182.152 584.92C182.189 584.92 182.225 584.914 182.255 584.908L183.319 590.415L177.648 591.08C177.6 590.935 177.527 590.796 177.437 590.675L181.777 584.847ZM182.733 582.919L185.036 575.374L186.862 580.887L183.023 583.191C182.944 583.082 182.848 582.991 182.733 582.919ZM185.592 575.102C185.689 575.029 185.774 574.945 185.846 574.848L192.853 576.317C192.853 576.347 192.847 576.377 192.847 576.408C192.847 576.692 192.907 576.958 193.004 577.206L187.4 580.567L185.592 575.102ZM192.974 575.718L186.046 574.262C186.046 574.249 186.052 574.237 186.052 574.219C186.052 573.971 185.967 573.754 185.828 573.566L188.246 570.084L193.264 575.168C193.143 575.338 193.046 575.519 192.974 575.718ZM188.161 569.129L185.435 566.372C185.483 566.257 185.508 566.136 185.508 566.003C185.508 565.78 185.429 565.58 185.296 565.417C185.943 564.184 187.031 562.062 188.101 559.97C189.733 560.399 191.402 560.841 192.714 561.185C192.708 561.234 192.702 561.282 192.702 561.33C192.702 561.651 192.81 561.941 192.986 562.183L188.161 569.129ZM187.781 559.251C186.052 558.797 184.383 558.362 183.307 558.084C183.313 558.023 183.325 557.963 183.325 557.902C183.325 557.431 183.095 557.014 182.739 556.748L184.147 552.195L189.969 553.828C189.993 554.058 190.09 554.263 190.247 554.414C189.757 555.369 188.802 557.256 187.781 559.251ZM185.87 547.383C185.991 547.383 186.112 547.365 186.227 547.335L190.054 553.217L184.329 551.615L185.641 547.365C185.719 547.377 185.792 547.383 185.87 547.383ZM185.066 547.141L183.736 551.446L175.653 549.179L184.546 546.525C184.667 546.779 184.843 546.99 185.066 547.141ZM178.452 540.661C178.495 540.667 178.537 540.673 178.585 540.673C178.706 540.673 178.821 540.649 178.924 540.606L184.534 545.388C184.468 545.552 184.425 545.733 184.425 545.926L175.539 548.574C175.472 548.387 175.351 548.224 175.194 548.109L178.452 540.661ZM177.908 540.389L174.607 547.939L171.863 541.416L177.818 540.28C177.842 540.316 177.872 540.352 177.908 540.389ZM177.54 539.699L171.615 540.836L169.414 535.601L177.54 539.699ZM168.314 535.443C168.423 535.486 168.544 535.516 168.671 535.516C168.683 535.516 168.701 535.51 168.713 535.51L171.004 540.951L161.864 542.698C161.833 542.595 161.791 542.505 161.731 542.414C163.423 540.63 166.924 536.919 168.314 535.443ZM157.94 533.66L167.843 535.02C167.849 535.026 167.849 535.032 167.855 535.038C166.452 536.526 162.928 540.262 161.253 542.027C161.114 541.967 160.957 541.93 160.794 541.93C160.715 541.93 160.636 541.936 160.558 541.954C159.584 540.092 158.127 536.81 157.209 534.7C157.553 534.44 157.807 534.077 157.94 533.66ZM155.969 535.129C156.217 535.129 156.453 535.081 156.677 534.996C157.595 537.112 159.04 540.358 160.026 542.239C159.856 542.396 159.742 542.607 159.693 542.849H154.234C154.174 542.529 153.98 542.257 153.708 542.093C154.27 540.123 155.147 537.058 155.703 535.105C155.788 535.117 155.873 535.129 155.969 535.129ZM146.103 534.978L153.938 533.479C154.071 534.132 154.518 534.664 155.105 534.936C154.549 536.888 153.672 539.959 153.11 541.924C152.953 541.924 152.801 541.96 152.668 542.021C150.994 540.25 147.469 536.513 146.067 535.032C146.085 535.02 146.097 535.002 146.103 534.978ZM145.214 535.51C145.226 535.51 145.245 535.516 145.257 535.516C145.384 535.516 145.505 535.492 145.613 535.443C147.004 536.919 150.504 540.63 152.203 542.42C152.142 542.505 152.1 542.601 152.07 542.704L142.929 540.957L145.214 535.51ZM144.513 535.601L142.312 540.836L136.388 539.699L144.513 535.601ZM136.116 540.274L142.071 541.41L139.501 547.522C139.399 547.498 139.29 547.486 139.181 547.486C139.163 547.486 139.151 547.492 139.133 547.492L136.025 540.389C136.055 540.352 136.086 540.316 136.116 540.274ZM135.003 540.612C135.106 540.655 135.221 540.679 135.342 540.679C135.384 540.679 135.427 540.673 135.475 540.667L138.528 547.649C138.214 547.806 137.96 548.079 137.833 548.411L129.502 545.926C129.502 545.739 129.46 545.558 129.393 545.388L135.003 540.612ZM129.375 546.531L137.742 549.028C137.748 549.13 137.766 549.227 137.79 549.318L130.191 551.446L128.861 547.141C129.085 546.99 129.26 546.779 129.375 546.531ZM127.701 547.335C127.815 547.365 127.93 547.383 128.057 547.383C128.136 547.383 128.208 547.371 128.281 547.359L129.593 551.609L123.874 553.211L127.701 547.335ZM123.958 553.828L129.78 552.195L131.285 557.062C130.953 557.207 130.717 557.54 130.717 557.927C130.717 557.969 130.723 558.011 130.729 558.054C129.659 558.332 127.93 558.785 126.147 559.251C125.131 557.256 124.17 555.369 123.686 554.408C123.837 554.263 123.934 554.058 123.958 553.828ZM123.064 554.68C123.082 554.68 123.106 554.674 123.124 554.674C123.596 555.611 124.533 557.449 125.536 559.414C123.85 559.855 122.175 560.296 121.02 560.599C120.936 560.454 120.821 560.327 120.694 560.218L123.064 554.68ZM120.053 562.745C120.204 562.715 120.343 562.66 120.47 562.588L125.325 569.576L120.361 574.6C120.095 574.382 119.775 574.231 119.424 574.165L120.053 562.745ZM123.964 588.305C123.958 588.305 123.946 588.305 123.94 588.305C123.692 588.305 123.457 588.372 123.251 588.487L119.944 578.07C120.156 577.967 120.349 577.84 120.512 577.677L126.328 581.165L123.964 588.305ZM126.866 581.486L130.693 583.777C130.693 583.795 130.687 583.813 130.687 583.832C130.687 583.995 130.729 584.152 130.79 584.291L124.938 588.71C124.829 588.601 124.702 588.517 124.563 588.45L126.866 581.486ZM128.904 596.001C128.734 596.025 128.583 596.098 128.462 596.201L124.605 591.026C124.871 590.887 125.089 590.669 125.222 590.403L129.877 590.947L128.904 596.001ZM129.508 596.104L130.494 591.014L136.213 591.685C136.285 592.368 136.829 592.906 137.512 592.966L138.208 596.787H129.98C129.943 596.491 129.762 596.243 129.508 596.104ZM138.873 604.283L129.738 597.579C129.786 597.525 129.829 597.464 129.871 597.404H138.322L139.495 603.836C139.247 603.927 139.036 604.084 138.873 604.283ZM140.106 603.751L138.945 597.404H145.39C145.414 597.434 145.438 597.464 145.462 597.494L140.523 603.842C140.39 603.794 140.251 603.764 140.106 603.751ZM141.031 604.187L146 597.803C146.024 597.809 146.055 597.809 146.085 597.809L148.044 601.841L141.261 604.495C141.194 604.386 141.122 604.277 141.031 604.187ZM149.954 608.358L141.369 605.589C141.406 605.462 141.436 605.323 141.436 605.184C141.436 605.154 141.43 605.124 141.424 605.088L148.304 602.397L150.788 607.512C150.438 607.705 150.147 608.001 149.954 608.358ZM151.774 607.252C151.635 607.252 151.502 607.264 151.369 607.294L148.884 602.174L155.129 599.731C155.201 599.816 155.286 599.888 155.377 599.955L152.306 607.33C152.136 607.288 151.961 607.252 151.774 607.252ZM160.709 608.987L153.811 609.011C153.72 608.406 153.364 607.887 152.868 607.572L155.939 600.185C156.024 600.197 156.108 600.209 156.193 600.209C156.332 600.209 156.465 600.185 156.592 600.148L161.162 608.201C160.939 608.406 160.775 608.679 160.709 608.987ZM162.124 607.832C161.972 607.832 161.833 607.862 161.694 607.905L157.13 599.864C157.16 599.84 157.19 599.816 157.221 599.786L164.898 602.476L162.287 607.85C162.232 607.838 162.184 607.832 162.124 607.832ZM163.369 608.552C163.248 608.346 163.079 608.171 162.873 608.044L165.479 602.675L172.492 605.136C172.492 605.154 172.486 605.166 172.486 605.184C172.486 605.329 172.51 605.462 172.552 605.589L163.369 608.552ZM172.649 604.537L165.751 602.119L167.843 597.815C167.873 597.815 167.897 597.809 167.927 597.809L172.897 604.193C172.794 604.289 172.715 604.41 172.649 604.537ZM173.822 603.751C173.676 603.764 173.531 603.794 173.404 603.842L168.465 597.494C168.489 597.464 168.52 597.434 168.538 597.404H174.982L173.822 603.751ZM175.055 604.283C174.892 604.078 174.68 603.921 174.432 603.83L175.605 597.398H183.857C183.905 597.5 183.972 597.597 184.045 597.682L175.055 604.283ZM183.76 596.787H175.714L176.409 592.966C177.098 592.906 177.636 592.368 177.709 591.685L183.428 591.014L184.377 595.923C184.045 596.086 183.809 596.406 183.76 596.787ZM185.568 596.056C185.405 595.923 185.205 595.838 184.982 595.82L184.038 590.947L188.693 590.403C188.833 590.669 189.044 590.887 189.31 591.026L185.568 596.056ZM188.984 588.71L183.132 584.291C183.198 584.152 183.234 583.995 183.234 583.832C183.234 583.813 183.228 583.795 183.228 583.777L187.055 581.486L189.358 588.45C189.219 588.517 189.092 588.601 188.984 588.71ZM190.67 588.487C190.465 588.378 190.235 588.305 189.981 588.305C189.975 588.305 189.963 588.305 189.957 588.305L187.593 581.159L193.33 577.72C193.5 577.919 193.699 578.088 193.929 578.209L190.67 588.487ZM193.699 574.739L188.603 569.576L193.457 562.588C193.584 562.66 193.723 562.715 193.874 562.745L194.515 574.376C194.213 574.437 193.941 574.564 193.699 574.739Z" fill="#111111"/>
<path d="M144.543 569.77L157.317 577.139L170.091 569.77L157.317 549.977L144.543 569.77ZM158.599 554.311L168.296 569.341L158.599 574.933V554.311Z" fill="#111111"/>
<path d="M144.543 572.581L157.317 589.992L170.091 572.581L157.317 580.301L144.543 572.581ZM158.599 581.02L165.285 576.982L158.599 586.093V581.02Z" fill="#111111"/>
<path d="M903.778 27.7165L902.818 33.285H915.247C918.428 33.285 920.862 36.1323 920.373 39.2882L919.859 42.6141C919.281 46.3559 916.075 49.1149 912.311 49.1149H900.114L899.154 54.6834H912.712C919.758 54.6834 925.75 49.5307 926.835 42.5386L927.369 39.0866C928.297 33.1086 923.692 27.7102 917.663 27.7102H903.778V27.7165Z" fill="#111111"/>
<path d="M894.687 41.5811L894.285 43.9181H906.764C908.653 43.9181 910.265 42.5575 910.585 40.6866L910.987 38.3496H898.508C896.619 38.3559 895.007 39.7165 894.687 41.5811Z" fill="#111111"/>
<path d="M912.003 76.8819C930.16 76.8819 945.099 62.8284 946.617 44.9827C947.652 44.6236 948.399 43.6473 948.399 42.4882C948.399 41.3543 947.69 40.3969 946.692 40.0189C945.67 21.7008 930.505 7.11182 912.003 7.11182C902.705 7.11182 894.248 10.8095 888.005 16.8063C887.685 16.6677 887.334 16.5921 886.964 16.5921C885.508 16.5921 884.322 17.7764 884.322 19.2441C884.322 19.7039 884.448 20.1323 884.661 20.5165C880.031 26.4441 877.258 33.9024 877.258 42.0095C877.258 45.1339 877.672 48.2205 878.481 51.2063C878.262 51.4772 878.117 51.8236 878.117 52.2016C878.117 53.0709 878.82 53.7764 879.686 53.7764C880.552 53.7764 881.254 53.0709 881.254 52.2016C881.254 51.5528 880.865 50.9984 880.307 50.7528C879.535 47.9181 879.14 44.9764 879.14 42.0095C879.14 34.3748 881.744 27.3386 886.098 21.7386C886.374 21.8331 886.663 21.8961 886.964 21.8961C888.419 21.8961 889.605 20.7118 889.605 19.2441C889.605 18.8472 889.511 18.4693 889.354 18.1291C895.252 12.485 903.232 9.00788 912.003 9.00788C929.464 9.00788 943.787 22.7528 944.804 40.0315C943.819 40.4158 943.116 41.3732 943.116 42.4945C943.116 43.5906 943.781 44.5354 944.729 44.9386C943.242 61.7638 929.138 74.9984 911.997 74.9984C906.545 74.9984 901.143 73.6315 896.381 71.0425C896.356 70.1984 895.666 69.5181 894.819 69.5181C893.953 69.5181 893.25 70.2236 893.25 71.0929C893.25 71.9622 893.953 72.6677 894.819 72.6677C895.076 72.6677 895.314 72.5984 895.528 72.4913L895.427 72.674C900.484 75.4205 906.212 76.8819 912.003 76.8819ZM886.964 20.6236C886.198 20.6236 885.577 20 885.577 19.2315C885.577 18.463 886.198 17.8394 886.964 17.8394C887.729 17.8394 888.35 18.463 888.35 19.2315C888.35 20 887.729 20.6236 886.964 20.6236ZM944.371 42.4882C944.371 41.7197 944.992 41.0961 945.758 41.0961C946.523 41.0961 947.144 41.7197 947.144 42.4882C947.144 43.2567 946.523 43.8803 945.758 43.8803C944.992 43.8803 944.371 43.2567 944.371 42.4882Z" fill="#111111"/>
<path d="M952 41.9905C952 34.9039 950.149 28.252 946.931 22.4693C947.018 22.274 947.062 22.0598 947.062 21.8268C947.062 20.9449 946.347 20.2268 945.469 20.2268C944.59 20.2268 943.875 20.9449 943.875 21.8268C943.875 22.6835 944.553 23.3827 945.4 23.4205L945.343 23.4772C948.38 28.9701 950.118 35.2756 950.118 41.9905C950.118 52.0315 946.24 61.178 939.916 68.0126C939.59 67.8677 939.232 67.7858 938.856 67.7858C937.4 67.7858 936.215 68.9701 936.215 70.4378C936.215 70.7654 936.284 71.0803 936.39 71.3701C929.777 76.9134 921.27 80.2583 912.003 80.2583C902.63 80.2583 894.041 76.8378 887.396 71.1811C887.541 70.8535 887.616 70.5008 887.616 70.1228C887.616 68.6614 886.437 67.4709 884.975 67.4709C884.561 67.4709 884.178 67.5717 883.833 67.7417C877.659 60.9386 873.888 51.8992 873.888 41.9905C873.888 22.3937 888.639 6.19843 907.58 3.9874C908.038 4.7622 908.879 5.29134 909.845 5.29134C910.918 5.29134 911.834 4.64882 912.248 3.72913C917.963 3.76693 923.39 5.07087 928.247 7.38268C928.247 7.38898 928.247 7.38898 928.247 7.39528C928.247 8.27717 928.962 8.99528 929.84 8.99528C930.719 8.99528 931.434 8.27717 931.434 7.39528C931.434 6.51339 930.719 5.79528 929.84 5.79528C929.69 5.79528 929.545 5.82047 929.407 5.86457C924.237 3.34488 918.453 1.90236 912.342 1.85197C912.003 0.781102 911.018 0 909.839 0C908.559 0 907.492 0.919685 907.247 2.13543C887.428 4.50394 872 21.474 872 41.9968C872 52.4409 875.997 61.9716 882.534 69.1213C882.409 69.4299 882.333 69.7701 882.333 70.1291C882.333 71.5905 883.513 72.7811 884.975 72.7811C885.364 72.7811 885.734 72.6929 886.066 72.5354C893.056 78.526 902.109 82.1543 911.997 82.1543C921.747 82.1543 930.693 78.6268 937.639 72.7874C938.003 72.9764 938.41 73.0961 938.85 73.0961C940.305 73.0961 941.491 71.9118 941.491 70.4441C941.491 70.0535 941.403 69.6819 941.246 69.348C947.909 62.1669 952 52.5543 952 41.9905ZM909.839 1.25354C910.604 1.25354 911.225 1.87717 911.225 2.64567C911.225 3.41417 910.604 4.0378 909.839 4.0378C909.073 4.0378 908.452 3.41417 908.452 2.64567C908.452 1.87717 909.073 1.25354 909.839 1.25354ZM884.975 71.515C884.209 71.515 883.588 70.8913 883.588 70.1228C883.588 69.3543 884.209 68.7307 884.975 68.7307C885.74 68.7307 886.361 69.3543 886.361 70.1228C886.361 70.8913 885.74 71.515 884.975 71.515ZM938.856 71.8299C938.091 71.8299 937.469 71.2063 937.469 70.4378C937.469 69.6693 938.091 69.0457 938.856 69.0457C939.621 69.0457 940.243 69.6693 940.243 70.4378C940.243 71.2063 939.615 71.8299 938.856 71.8299Z" fill="#111111"/>
<path d="M887.798 59.7858C887.961 59.7858 888.118 59.7669 888.269 59.7354C893.67 66.9984 902.297 71.7102 911.997 71.7102C916.571 71.7102 920.95 70.6897 925.022 68.6803C925.235 68.7874 925.467 68.8504 925.718 68.8504C926.584 68.8504 927.287 68.1448 927.287 67.2756C927.287 66.4063 926.584 65.7007 925.718 65.7007C924.946 65.7007 924.313 66.2551 924.181 66.9921C920.373 68.8693 916.282 69.8204 912.003 69.8204C902.981 69.8204 894.95 65.4677 889.887 58.7401C890.232 58.2929 890.446 57.7385 890.446 57.1275C890.446 55.6661 889.266 54.4755 887.804 54.4755C887.622 54.4755 887.447 54.4944 887.277 54.5259C885.37 50.7527 884.291 46.4944 884.291 41.9842C884.291 26.6393 896.726 14.1543 912.009 14.1543C917.524 14.1543 922.663 15.7858 926.986 18.5826C926.929 18.7968 926.891 19.0173 926.891 19.2441C926.891 20.7055 928.071 21.896 929.533 21.896C929.997 21.896 930.43 21.7637 930.806 21.5496C936.284 26.6393 939.728 33.9086 939.728 41.9779C939.728 45.8645 938.944 49.6126 937.407 53.1401C936.66 53.2598 936.083 53.9023 936.083 54.6897C936.083 55.559 936.786 56.2645 937.651 56.2645C938.517 56.2645 939.22 55.559 939.22 54.6897C939.22 54.4567 939.163 54.2299 939.076 54.0346C940.757 50.2299 941.61 46.1795 941.61 41.9842C941.61 33.3354 937.909 25.5433 932.017 20.107C932.111 19.8362 932.168 19.5527 932.168 19.2504C932.168 17.7889 930.988 16.5984 929.527 16.5984C928.987 16.5984 928.485 16.7622 928.065 17.0393C923.434 14.022 917.92 12.2645 912.003 12.2645C895.684 12.2645 882.402 25.5937 882.402 41.9842C882.402 46.8724 883.588 51.4834 885.684 55.5527C885.357 55.9937 885.163 56.5354 885.163 57.1212C885.157 58.5952 886.342 59.7858 887.798 59.7858ZM887.798 55.7417C888.563 55.7417 889.185 56.3653 889.185 57.1338C889.185 57.9023 888.563 58.5259 887.798 58.5259C887.033 58.5259 886.411 57.9023 886.411 57.1338C886.411 56.3653 887.033 55.7417 887.798 55.7417ZM929.52 17.8708C930.286 17.8708 930.907 18.4944 930.907 19.263C930.907 20.0315 930.286 20.6551 929.52 20.6551C928.755 20.6551 928.134 20.0315 928.134 19.263C928.134 18.4944 928.755 17.8708 929.52 17.8708Z" fill="#111111"/>
<path d="M72.0203 58.2117L70.2705 59.9614C70.2767 59.9676 70.2767 59.9676 70.2829 59.9738L72.0326 58.224C72.0264 58.2179 72.0203 58.2179 72.0203 58.2117Z" fill="#111111"/>
<path d="M116.87 66.6204L115.671 65.4209L116.87 66.6204Z" fill="#111111"/>
<path d="M114.342 64.0916L115.671 65.4209L114.342 64.0916Z" fill="#111111"/>
<path d="M113.804 67.0469L112.042 65.2848C106.533 69.6684 99.571 72.2961 91.997 72.2961C84.4292 72.2961 77.4673 69.6684 71.9584 65.291L70.1963 67.0531C76.1627 71.8757 83.7429 74.7693 91.997 74.7693C100.251 74.7693 107.838 71.8757 113.804 67.0469Z" fill="#111111"/>
<path d="M68.6751 58.057L70.4372 56.2949C67.0242 51.7752 64.9963 46.1488 64.9963 40.0587C64.9963 25.1704 77.1085 13.052 92.003 13.052C98.0931 13.052 103.713 15.08 108.239 18.4929L110.001 16.7308C105.018 12.8789 98.7794 10.5789 92.0092 10.5789C75.7544 10.5789 62.5293 23.804 62.5293 40.0587C62.5231 46.8351 64.8231 53.0798 68.6751 58.057Z" fill="#111111"/>
<path d="M91.9969 0C81.4119 0 71.7851 4.14251 64.6192 10.8756C64.0195 11.4383 63.4383 12.0257 62.8695 12.6254L64.6192 14.3751L66.6039 16.3598C60.8106 22.5674 57.2554 30.8896 57.2554 40.034C57.2554 50.0502 61.5216 59.0834 68.3227 65.427L70.0725 63.6773C70.0725 63.6773 70.0725 63.6773 70.0663 63.6711L72.0201 61.7173C77.2755 66.5708 84.2931 69.5386 91.9907 69.5386C108.245 69.5386 121.471 56.3135 121.471 40.0587C121.471 32.3611 118.503 25.3435 113.649 20.0881C113.649 20.0819 113.643 20.0819 113.643 20.0757L113.637 20.0696L115.622 18.0849L117.371 16.3351C116.815 15.7354 116.234 15.1604 115.64 14.6039C109.433 8.82912 101.123 5.28635 91.9969 5.28635C82.871 5.28635 74.5613 8.82912 68.3537 14.6039L66.369 12.6192C73.0835 6.33125 82.092 2.46696 91.9969 2.46696C112.691 2.46696 129.521 19.3029 129.521 39.9907C129.521 49.8957 125.656 58.9041 119.368 65.6187L117.415 63.6649C123.189 57.4573 126.732 49.1475 126.732 40.0216C126.732 31.7614 123.826 24.1688 118.997 18.2023L117.235 19.9645C121.625 25.4796 124.259 32.4476 124.259 40.0278C124.259 49.3578 120.271 57.7726 113.921 63.6711L117.625 67.3746C110.91 73.6626 101.902 77.5268 91.9969 77.5268C71.3091 77.5268 54.4731 60.6909 54.4731 40.0031C54.4731 30.9885 57.6697 22.7096 62.9869 16.2362L61.231 14.4803C55.4686 21.4051 52 30.3084 52 40.0031C52 62.0574 69.9427 80 91.9969 80C102.582 80 112.209 75.8575 119.375 69.1244C119.974 68.5617 120.556 67.9743 121.124 67.3746C127.857 60.2149 132 50.582 132 39.9969C132 17.9427 114.057 0 91.9969 0ZM91.9969 7.76567C100.443 7.76567 108.134 11.0302 113.89 16.3598L111.906 18.3445L110.156 20.0943C110.768 20.6507 111.349 21.2319 111.906 21.844C116.308 26.6481 119.004 33.0474 119.004 40.0649C119.004 54.9532 106.891 67.0717 91.9969 67.0717C84.9794 67.0717 78.5801 64.3821 73.776 59.9737C73.1701 59.4173 72.5827 58.8361 72.0263 58.224L70.2765 59.9737L68.3227 61.9275C62.9931 56.1713 59.7286 48.4798 59.7286 40.034C59.7348 22.2397 74.2088 7.76567 91.9969 7.76567Z" fill="#111111"/>
<path fill-rule="evenodd" clip-rule="evenodd" d="M93.1307 26.0102C90.5394 26.2375 88.5295 27.0482 86.2712 28.7768C85.3836 29.4561 84.8282 29.9639 84.2622 30.6135C83.1451 31.8957 82.3643 33.2224 81.7987 34.7999L81.5787 35.4133L79.4642 35.4136L77.3496 35.414V36.9679V38.5218L79.0952 38.5362L80.8407 38.5506L80.8759 40.0508C80.8953 40.8759 80.9302 41.6061 80.9535 41.6737L80.9959 41.7964H79.1728H77.3496V43.4875V45.1786H79.6128H81.8759L82.0926 45.765C82.3719 46.5205 83.0078 47.7278 83.4986 48.4344C83.9043 49.0185 84.7512 49.9965 85.2189 50.4212C87.216 52.2343 89.6174 53.3673 92.338 53.78C93.3078 53.9272 95.4246 53.9129 96.5083 53.752C99.543 53.3013 101.926 52.083 103.762 50.0442C104.023 49.7534 104.256 49.4844 104.279 49.4465C104.306 49.4022 103.8 48.7761 102.859 47.6908L101.398 46.0039L100.911 46.4468C99.996 47.2805 98.5907 48.2795 97.7855 48.6688C97.3158 48.8961 96.7147 49.0907 96.0674 49.2254C95.5678 49.3293 95.3117 49.3463 94.2376 49.3471C92.8419 49.3482 92.4345 49.2874 91.4442 48.9299C89.8871 48.3679 88.5818 47.2296 87.6271 45.6013L87.4432 45.2877H92.1319H96.8205V43.5969V41.9061L91.6131 41.8922L86.4058 41.8782L86.3607 41.66C86.336 41.54 86.3001 40.822 86.2811 40.0644L86.2465 38.687H91.5335H96.8205V36.9959V35.3049H91.9954C89.3415 35.3049 87.1702 35.2901 87.1702 35.2721C87.1702 35.1705 87.8814 34.0552 88.232 33.6071C89.1494 32.4345 90.561 31.4347 91.9124 31.0005C92.7602 30.7282 93.3664 30.6478 94.5498 30.6509C95.7843 30.6541 96.7152 30.7648 97.4742 30.9984C98.4466 31.2977 99.6731 32.109 100.918 33.2762L101.694 34.0043L103.149 32.2571C104.359 30.805 104.595 30.4933 104.549 30.4117C104.461 30.2571 103.079 28.9736 102.639 28.6382C102.027 28.1714 101.147 27.6379 100.411 27.2879C98.6059 26.4287 96.8547 26.0442 94.5782 26.0072C93.9226 25.9965 93.2712 25.9979 93.1307 26.0102Z" fill="#111111"/>
<path d="M501.003 761.574C519.16 761.574 534.099 747.577 535.617 729.803C536.652 729.445 537.399 728.473 537.399 727.318C537.399 726.189 536.69 725.235 535.692 724.859C534.67 706.614 519.505 692.083 501.003 692.083C491.705 692.083 483.248 695.766 477.005 701.739C476.685 701.601 476.334 701.526 475.964 701.526C474.508 701.526 473.322 702.705 473.322 704.167C473.322 704.625 473.448 705.052 473.661 705.434C469.031 711.338 466.258 718.767 466.258 726.841C466.258 729.953 466.672 733.028 467.481 736.002C467.262 736.271 467.117 736.616 467.117 736.993C467.117 737.859 467.82 738.561 468.686 738.561C469.552 738.561 470.254 737.859 470.254 736.993C470.254 736.347 469.865 735.794 469.307 735.55C468.535 732.726 468.14 729.796 468.14 726.841C468.14 719.237 470.744 712.229 475.098 706.652C475.374 706.746 475.663 706.808 475.964 706.808C477.419 706.808 478.605 705.629 478.605 704.167C478.605 703.772 478.511 703.395 478.354 703.057C484.252 697.435 492.232 693.972 501.003 693.972C518.464 693.972 532.787 707.662 533.804 724.871C532.819 725.254 532.116 726.208 532.116 727.325C532.116 728.416 532.781 729.357 533.729 729.759C532.242 746.517 518.138 759.698 500.997 759.698C495.545 759.698 490.143 758.337 485.381 755.758C485.356 754.918 484.666 754.24 483.819 754.24C482.953 754.24 482.25 754.943 482.25 755.809C482.25 756.674 482.953 757.377 483.819 757.377C484.076 757.377 484.314 757.308 484.528 757.201L484.427 757.383C489.484 760.119 495.212 761.574 501.003 761.574ZM475.964 705.541C475.198 705.541 474.577 704.92 474.577 704.155C474.577 703.389 475.198 702.768 475.964 702.768C476.729 702.768 477.35 703.389 477.35 704.155C477.35 704.92 476.729 705.541 475.964 705.541ZM533.371 727.318C533.371 726.553 533.992 725.932 534.758 725.932C535.523 725.932 536.144 726.553 536.144 727.318C536.144 728.084 535.523 728.705 534.758 728.705C533.992 728.705 533.371 728.084 533.371 727.318Z" fill="#111111"/>
<path d="M541 726.823C541 719.764 539.149 713.139 535.931 707.379C536.018 707.185 536.062 706.972 536.062 706.739C536.062 705.861 535.347 705.146 534.469 705.146C533.59 705.146 532.875 705.861 532.875 706.739C532.875 707.593 533.553 708.289 534.4 708.327L534.343 708.383C537.38 713.854 539.118 720.134 539.118 726.823C539.118 736.823 535.24 745.933 528.916 752.741C528.59 752.596 528.232 752.515 527.856 752.515C526.4 752.515 525.215 753.694 525.215 755.156C525.215 755.482 525.284 755.796 525.39 756.085C518.777 761.606 510.27 764.937 501.003 764.937C491.63 764.937 483.041 761.53 476.396 755.896C476.541 755.57 476.616 755.219 476.616 754.842C476.616 753.387 475.437 752.201 473.975 752.201C473.561 752.201 473.178 752.301 472.833 752.471C466.659 745.695 462.888 736.692 462.888 726.823C462.888 707.304 477.639 691.174 496.58 688.971C497.038 689.743 497.879 690.27 498.845 690.27C499.918 690.27 500.834 689.63 501.248 688.714C506.963 688.752 512.39 690.051 517.247 692.353C517.247 692.359 517.247 692.359 517.247 692.366C517.247 693.244 517.962 693.959 518.84 693.959C519.719 693.959 520.434 693.244 520.434 692.366C520.434 691.487 519.719 690.772 518.84 690.772C518.69 690.772 518.545 690.797 518.407 690.841C513.237 688.332 507.453 686.895 501.342 686.845C501.003 685.778 500.018 685 498.839 685C497.559 685 496.492 685.916 496.247 687.127C476.428 689.486 461 706.388 461 726.829C461 737.231 464.997 746.724 471.534 753.845C471.409 754.152 471.333 754.491 471.333 754.849C471.333 756.304 472.513 757.49 473.975 757.49C474.364 757.49 474.734 757.402 475.066 757.245C482.056 763.212 491.109 766.826 500.997 766.826C510.747 766.826 519.693 763.312 526.639 757.496C527.003 757.685 527.41 757.804 527.85 757.804C529.305 757.804 530.491 756.624 530.491 755.162C530.491 754.773 530.403 754.403 530.246 754.071C536.909 746.918 541 737.344 541 726.823ZM498.839 686.249C499.604 686.249 500.225 686.87 500.225 687.635C500.225 688.401 499.604 689.022 498.839 689.022C498.073 689.022 497.452 688.401 497.452 687.635C497.452 686.87 498.073 686.249 498.839 686.249ZM473.975 756.229C473.209 756.229 472.588 755.608 472.588 754.842C472.588 754.077 473.209 753.456 473.975 753.456C474.74 753.456 475.361 754.077 475.361 754.842C475.361 755.608 474.74 756.229 473.975 756.229ZM527.856 756.543C527.091 756.543 526.469 755.922 526.469 755.156C526.469 754.391 527.091 753.77 527.856 753.77C528.621 753.77 529.243 754.391 529.243 755.156C529.243 755.922 528.615 756.543 527.856 756.543Z" fill="#111111"/>
<path d="M476.798 744.547C476.961 744.547 477.118 744.528 477.269 744.497C482.67 751.73 491.297 756.423 500.997 756.423C505.571 756.423 509.95 755.407 514.022 753.406C514.235 753.512 514.467 753.575 514.718 753.575C515.584 753.575 516.287 752.872 516.287 752.007C516.287 751.141 515.584 750.438 514.718 750.438C513.946 750.438 513.313 750.99 513.181 751.724C509.373 753.594 505.282 754.541 501.003 754.541C491.981 754.541 483.95 750.206 478.887 743.505C479.232 743.06 479.446 742.508 479.446 741.899C479.446 740.444 478.266 739.258 476.804 739.258C476.622 739.258 476.447 739.277 476.277 739.308C474.37 735.55 473.291 731.309 473.291 726.816C473.291 711.533 485.726 699.098 501.009 699.098C506.524 699.098 511.663 700.723 515.986 703.508C515.929 703.722 515.891 703.941 515.891 704.167C515.891 705.623 517.071 706.808 518.533 706.808C518.997 706.808 519.43 706.677 519.806 706.463C525.284 711.533 528.728 718.773 528.728 726.81C528.728 730.681 527.944 734.414 526.407 737.928C525.66 738.047 525.083 738.687 525.083 739.471C525.083 740.337 525.786 741.04 526.651 741.04C527.517 741.04 528.22 740.337 528.22 739.471C528.22 739.239 528.163 739.013 528.076 738.819C529.757 735.029 530.61 730.995 530.61 726.816C530.61 718.202 526.909 710.441 521.017 705.027C521.111 704.757 521.168 704.475 521.168 704.173C521.168 702.718 519.988 701.532 518.527 701.532C517.987 701.532 517.485 701.695 517.065 701.971C512.434 698.966 506.92 697.216 501.003 697.216C484.684 697.216 471.402 710.491 471.402 726.816C471.402 731.685 472.588 736.278 474.684 740.331C474.357 740.77 474.163 741.309 474.163 741.893C474.157 743.361 475.342 744.547 476.798 744.547ZM476.798 740.519C477.563 740.519 478.185 741.14 478.185 741.905C478.185 742.671 477.563 743.292 476.798 743.292C476.033 743.292 475.411 742.671 475.411 741.905C475.411 741.14 476.033 740.519 476.798 740.519ZM518.52 702.799C519.286 702.799 519.907 703.421 519.907 704.186C519.907 704.951 519.286 705.573 518.52 705.573C517.755 705.573 517.134 704.951 517.134 704.186C517.134 703.421 517.755 702.799 518.52 702.799Z" fill="#111111"/>
<path fill-rule="evenodd" clip-rule="evenodd" d="M499.595 711.088C499.45 711.14 499.321 711.183 499.31 711.184C499.299 711.184 499.247 711.284 499.194 711.406C499.127 711.561 499.097 711.896 499.093 712.537C499.09 713.038 499.067 713.687 499.042 713.98C498.999 714.469 498.979 714.527 498.79 714.689C498.676 714.787 498.259 714.987 497.863 715.134C496.326 715.703 495.448 716.219 494.552 717.078C493.234 718.342 492.601 719.907 492.601 721.898C492.601 723.727 493.134 724.963 494.486 726.264C495.642 727.375 496.899 728.081 499.629 729.15C501.962 730.064 502.546 730.372 503.2 731.037C503.937 731.786 504.105 732.732 503.658 733.62C503.076 734.777 501.224 735.394 499.131 735.128C497.617 734.935 496.251 734.546 494.755 733.883C493.994 733.545 493.869 733.516 493.657 733.624C493.449 733.731 493.291 734.107 492.871 735.495C492.363 737.176 492.3 737.497 492.425 737.786C492.71 738.44 494.628 739.172 497.291 739.641C497.811 739.733 498.307 739.839 498.394 739.877C498.679 740.002 498.719 740.199 498.761 741.657C498.818 743.669 498.737 743.598 500.955 743.598C503.195 743.598 503.095 743.694 503.143 741.497C503.166 740.432 503.201 739.922 503.26 739.824C503.407 739.575 503.756 739.381 504.436 739.169C506.593 738.496 508.236 737.163 509.174 735.326C510.587 732.557 510.009 729.381 507.688 727.149C506.656 726.158 505.505 725.526 502.645 724.379C500.636 723.574 499.841 723.155 499.241 722.583C498.258 721.647 498.387 720.365 499.538 719.623C500.159 719.223 500.679 719.119 502.016 719.128C503.633 719.138 504.73 719.359 506.269 719.985C506.694 720.158 507.144 720.3 507.269 720.3C507.709 720.3 507.833 720.046 508.511 717.756C508.906 716.423 508.909 716.258 508.542 715.925C508.161 715.58 506.516 715.02 505.198 714.788C503.957 714.569 503.663 714.482 503.513 714.287C503.388 714.125 503.371 713.991 503.336 712.912C503.292 711.576 503.216 711.3 502.844 711.121C502.551 710.98 499.972 710.954 499.595 711.088Z" fill="#111111"/>
<path d="M966 274C943.946 274 926 291.94 926 314C926 336.054 943.946 354 966 354C988.054 354 1006 336.054 1006 314C1006 291.94 988.06 274 966 274ZM968.485 275.975C987.519 277.202 1002.79 292.462 1004.02 311.49C1004.09 312.434 1003.33 313.239 1002.39 313.239C1001.53 313.239 1000.82 312.572 1000.76 311.717C999.634 294.311 985.67 280.353 968.258 279.24C967.403 279.183 966.736 278.472 966.736 277.611C966.73 276.667 967.535 275.919 968.485 275.975ZM938.216 314C938.216 298.677 950.683 286.209 966.006 286.209C981.329 286.209 993.797 298.677 993.797 314C993.797 329.323 981.329 341.791 966.006 341.791C950.677 341.791 938.216 329.323 938.216 314ZM943.279 335.368C942.6 336.047 941.487 336.003 940.87 335.274C936.002 329.531 933.058 322.108 933.058 314.006C933.058 306.005 935.926 298.664 940.688 292.953C941.304 292.217 942.424 292.166 943.103 292.846C943.701 293.443 943.745 294.393 943.204 295.041C938.914 300.187 936.329 306.804 936.329 314.013C936.329 321.316 938.983 328.002 943.374 333.173C943.915 333.808 943.877 334.764 943.279 335.368ZM988.45 333.38C992.948 328.178 995.678 321.404 995.678 314C995.678 306.691 993.017 299.992 988.614 294.815C988.066 294.167 988.104 293.211 988.702 292.607C989.381 291.927 990.494 291.971 991.111 292.701C995.992 298.45 998.949 305.886 998.949 314C998.949 322.215 995.923 329.732 990.928 335.513C990.306 336.236 989.199 336.274 988.526 335.601C987.928 334.991 987.89 334.028 988.45 333.38ZM987.274 288.864C988.003 289.48 988.047 290.6 987.368 291.273C986.771 291.871 985.808 291.915 985.16 291.368C979.983 286.977 973.297 284.322 966 284.322C958.596 284.322 951.822 287.052 946.62 291.55C945.972 292.11 945.003 292.072 944.399 291.468C943.726 290.795 943.764 289.688 944.487 289.065C950.262 284.071 957.779 281.045 966 281.045C974.102 281.051 981.531 283.995 987.274 288.864ZM963.075 276.007C964.025 275.931 964.843 276.686 964.843 277.642C964.843 278.491 964.188 279.202 963.339 279.271C946.123 280.58 932.372 294.456 931.246 311.723C931.189 312.578 930.479 313.245 929.617 313.245C928.667 313.245 927.919 312.44 927.981 311.496C929.214 292.613 944.254 277.447 963.075 276.007ZM963.081 351.987C944.38 350.566 929.422 335.595 928.013 316.9C927.944 315.95 928.692 315.132 929.648 315.132C930.504 315.132 931.215 315.786 931.278 316.636C932.567 333.739 946.248 347.427 963.345 348.722C964.195 348.785 964.849 349.496 964.849 350.352C964.843 351.308 964.031 352.063 963.081 351.987ZM944.707 339.111C943.978 338.494 943.934 337.381 944.613 336.702C945.211 336.104 946.173 336.06 946.821 336.614C951.998 341.017 958.697 343.678 966.006 343.678C973.215 343.678 979.826 341.092 984.978 336.802C985.626 336.261 986.576 336.305 987.173 336.903C987.852 337.582 987.808 338.702 987.066 339.318C981.355 344.08 974.014 346.949 966.013 346.949C957.886 346.949 950.45 343.998 944.707 339.111ZM968.478 352.019C967.535 352.081 966.73 351.327 966.73 350.383C966.73 349.521 967.396 348.811 968.252 348.754C985.538 347.647 999.427 333.871 1000.73 316.636C1000.79 315.786 1001.5 315.132 1002.36 315.132C1003.31 315.132 1004.07 315.944 1003.99 316.9C1002.57 335.746 987.381 350.798 968.478 352.019Z" fill="#111111"/>
<path fill-rule="evenodd" clip-rule="evenodd" d="M967.391 300.023C967.344 300.032 967.077 300.07 966.796 300.107C963.569 300.534 960.714 302.891 959.659 306C959.034 307.843 959.042 309.707 959.682 311.566L959.897 312.189H957.923H955.949V314.406V316.624H958.923H961.897L961.896 317.109C961.893 318.416 961.271 319.76 960.227 320.716C959.759 321.145 959.45 321.351 958.908 321.594C957.688 322.142 957.35 322.314 956.855 322.639C956.559 322.833 956.133 323.15 955.908 323.342C955.519 323.675 954.307 324.929 954.307 325C954.306 325.019 955.048 325.702 955.955 326.518L957.603 328.002L958.033 327.537C958.918 326.581 959.422 326.194 960.145 325.914C961.274 325.476 962.598 325.502 963.665 325.984C963.861 326.072 964.311 326.346 964.665 326.594C966.056 327.565 967.379 328.088 968.966 328.293C972.018 328.688 975.101 327.477 977.036 325.124C977.387 324.696 978.21 323.556 978.21 323.497C978.21 323.475 977.464 322.95 976.553 322.33C975.642 321.71 974.815 321.144 974.716 321.072L974.536 320.941L974.105 321.551C973.311 322.675 972.836 323.118 972.007 323.505C971.307 323.832 970.932 323.911 970.081 323.91C968.944 323.909 968.185 323.645 967.164 322.896C966.868 322.679 966.293 322.335 965.885 322.133L965.145 321.765L965.444 321.18C966.034 320.028 966.359 318.782 966.411 317.469L966.444 316.624H969.41H972.375V314.406V312.189H968.789H965.202L965.085 312.064C965.02 311.996 964.836 311.741 964.675 311.498C963.907 310.339 963.616 309.303 963.761 308.24C963.962 306.762 964.841 305.544 966.173 304.898C966.814 304.588 967.212 304.485 967.931 304.445C969.692 304.348 971.323 305.289 972.103 306.851C972.358 307.361 972.403 307.421 972.51 307.389C972.737 307.32 974.217 306.859 975.445 306.474L976.673 306.089L976.565 305.781C975.895 303.874 974.308 302.076 972.375 301.032C971.524 300.572 970.379 300.212 969.334 300.076C968.801 300.006 967.64 299.975 967.391 300.023Z" fill="#111111"/>
</svg>
