<svg width="80" height="80" viewBox="0 0 80 80" fill="none" xmlns="http://www.w3.org/2000/svg">
<path d="M49.9882 38.9149C52.1646 37.7402 53.5372 35.6195 53.5372 32.8743C53.5372 28.6019 50.1119 25.7454 43.4467 25.7392V20.9228H38.7045V25.7392H36.0953H35.0937V20.9228H30.3514V25.7392H26.0605V30.5804H30.3576V48.3438H26.0605V53.1849H30.3514V57.9334H35.0937V53.1849H36.0953H38.7045V57.9334H43.4467V53.1849H44.1825C51.2062 53.1849 54.8727 50.4398 54.8727 45.6913C54.8727 42.2475 52.9622 39.898 49.9882 38.9149ZM34.9268 30.5804H36.0953V30.5186H42.6553C45.6726 30.5186 47.311 31.5759 47.311 33.7337C47.311 35.8915 45.6726 36.992 42.6553 36.992H34.9268V30.5804ZM43.725 48.4056H36.0953V48.35H34.9268V41.623H43.725C46.9339 41.623 48.6527 42.7235 48.6527 45.0359C48.6465 47.3854 46.9339 48.4056 43.725 48.4056Z" fill="#111111"/>
<path d="M20.0203 58.2116L18.2705 59.9614C18.2767 59.9676 18.2767 59.9675 18.2829 59.9737L20.0326 58.224C20.0264 58.2178 20.0203 58.2178 20.0203 58.2116Z" fill="#111111"/>
<path d="M64.8704 66.6203L63.6709 65.4208L64.8704 66.6203Z" fill="#111111"/>
<path d="M62.3418 64.0916L63.6711 65.4209L62.3418 64.0916Z" fill="#111111"/>
<path d="M61.804 67.0469L60.0419 65.2848C54.5329 69.6684 47.571 72.2961 39.997 72.2961C32.4292 72.2961 25.4673 69.6684 19.9584 65.291L18.1963 67.0531C24.1627 71.8757 31.7429 74.7693 39.997 74.7693C48.2512 74.7693 55.8375 71.8757 61.804 67.0469Z" fill="#111111"/>
<path d="M16.6751 58.057L18.4372 56.2949C15.0242 51.7752 12.9963 46.1488 12.9963 40.0587C12.9963 25.1704 25.1085 13.052 40.003 13.052C46.0931 13.052 51.7133 15.08 56.2392 18.4929L58.0013 16.7308C53.0179 12.8789 46.7794 10.5789 40.0092 10.5789C23.7544 10.5789 10.5293 23.804 10.5293 40.0587C10.5231 46.8351 12.8231 53.0798 16.6751 58.057Z" fill="#111111"/>
<path d="M39.9969 0C29.4119 0 19.7851 4.14251 12.6192 10.8756C12.0195 11.4383 11.4383 12.0257 10.8695 12.6254L12.6192 14.3751L14.6039 16.3598C8.81057 22.5674 5.25543 30.8896 5.25543 40.034C5.25543 50.0502 9.5216 59.0834 16.3227 65.427L18.0725 63.6773C18.0725 63.6773 18.0725 63.6773 18.0663 63.6711L20.0201 61.7173C25.2755 66.5708 32.2931 69.5386 39.9907 69.5386C56.2455 69.5386 69.4706 56.3135 69.4706 40.0587C69.4706 32.3611 66.5028 25.3435 61.6493 20.0881C61.6493 20.0819 61.6431 20.0819 61.6431 20.0757L61.6369 20.0696L63.6216 18.0849L65.3714 16.3351C64.8149 15.7354 64.2337 15.1604 63.6402 14.6039C57.4326 8.82912 49.1228 5.28635 39.9969 5.28635C30.871 5.28635 22.5613 8.82912 16.3537 14.6039L14.369 12.6192C21.0835 6.33125 30.092 2.46696 39.9969 2.46696C60.6909 2.46696 77.5207 19.3029 77.5207 39.9907C77.5207 49.8957 73.6564 58.9041 67.3684 65.6187L65.4146 63.6649C71.1894 57.4573 74.7322 49.1475 74.7322 40.0216C74.7322 31.7613 71.8263 24.1688 66.9975 18.2023L65.2353 19.9645C69.6252 25.4796 72.2591 32.4476 72.2591 40.0278C72.2591 49.3578 68.2711 57.7726 61.9213 63.6711L65.6249 67.3746C58.9103 73.6626 49.9019 77.5268 39.9969 77.5268C19.3091 77.5268 2.47314 60.6909 2.47314 40.0031C2.47314 30.9885 5.66968 22.7096 10.9869 16.2362L9.23101 14.4803C3.46858 21.4051 0 30.3084 0 40.0031C0 62.0574 17.9427 80 39.9969 80C50.582 80 60.2087 75.8575 67.3746 69.1244C67.9743 68.5617 68.5555 67.9743 69.1244 67.3746C75.8575 60.2149 80 50.582 80 39.9969C80 17.9427 62.0574 0 39.9969 0ZM39.9969 7.76567C48.4427 7.76567 56.1342 11.0302 61.8904 16.3598L59.9057 18.3445L58.156 20.0943C58.7681 20.6507 59.3493 21.2319 59.9057 21.844C64.3079 26.6481 67.0036 33.0474 67.0036 40.0649C67.0036 54.9532 54.8914 67.0717 39.9969 67.0717C32.9794 67.0717 26.5801 64.3821 21.776 59.9737C21.1701 59.4173 20.5827 58.8361 20.0263 58.224L18.2765 59.9737L16.3227 61.9275C10.9931 56.1713 7.72857 48.4798 7.72857 40.034C7.73476 22.2397 22.2088 7.76567 39.9969 7.76567Z" fill="#111111"/>
</svg>
