<svg width="80" height="80" viewBox="0 0 80 80" fill="none" xmlns="http://www.w3.org/2000/svg">
<path d="M20.0203 58.2117L18.2705 59.9614C18.2767 59.9676 18.2767 59.9676 18.2829 59.9738L20.0326 58.224C20.0264 58.2179 20.0203 58.2179 20.0203 58.2117Z" fill="#111111"/>
<path d="M64.8704 66.6204L63.6709 65.4209L64.8704 66.6204Z" fill="#111111"/>
<path d="M62.3418 64.0916L63.6711 65.4209L62.3418 64.0916Z" fill="#111111"/>
<path d="M61.804 67.0469L60.0419 65.2848C54.5329 69.6684 47.571 72.2961 39.997 72.2961C32.4292 72.2961 25.4673 69.6684 19.9584 65.291L18.1963 67.0531C24.1627 71.8757 31.7429 74.7693 39.997 74.7693C48.2512 74.7693 55.8375 71.8757 61.804 67.0469Z" fill="#111111"/>
<path d="M16.6751 58.057L18.4372 56.2949C15.0242 51.7752 12.9963 46.1488 12.9963 40.0587C12.9963 25.1704 25.1085 13.052 40.003 13.052C46.0931 13.052 51.7133 15.08 56.2392 18.4929L58.0013 16.7308C53.0179 12.8789 46.7794 10.5789 40.0092 10.5789C23.7544 10.5789 10.5293 23.804 10.5293 40.0587C10.5231 46.8351 12.8231 53.0798 16.6751 58.057Z" fill="#111111"/>
<path d="M39.9969 0C29.4119 0 19.7851 4.14251 12.6192 10.8756C12.0195 11.4383 11.4383 12.0257 10.8695 12.6254L12.6192 14.3751L14.6039 16.3598C8.81057 22.5674 5.25543 30.8896 5.25543 40.034C5.25543 50.0502 9.5216 59.0834 16.3227 65.427L18.0725 63.6773C18.0725 63.6773 18.0725 63.6773 18.0663 63.6711L20.0201 61.7173C25.2755 66.5708 32.2931 69.5386 39.9907 69.5386C56.2455 69.5386 69.4706 56.3135 69.4706 40.0587C69.4706 32.3611 66.5028 25.3435 61.6493 20.0881C61.6493 20.0819 61.6431 20.0819 61.6431 20.0757L61.6369 20.0696L63.6216 18.0849L65.3714 16.3351C64.8149 15.7354 64.2337 15.1604 63.6402 14.6039C57.4326 8.82912 49.1228 5.28635 39.9969 5.28635C30.871 5.28635 22.5613 8.82912 16.3537 14.6039L14.369 12.6192C21.0835 6.33125 30.092 2.46696 39.9969 2.46696C60.6909 2.46696 77.5207 19.3029 77.5207 39.9907C77.5207 49.8957 73.6564 58.9041 67.3684 65.6187L65.4146 63.6649C71.1894 57.4573 74.7322 49.1475 74.7322 40.0216C74.7322 31.7614 71.8263 24.1688 66.9975 18.2023L65.2353 19.9645C69.6252 25.4796 72.2591 32.4476 72.2591 40.0278C72.2591 49.3578 68.2711 57.7726 61.9213 63.6711L65.6249 67.3746C58.9103 73.6626 49.9019 77.5268 39.9969 77.5268C19.3091 77.5268 2.47314 60.6909 2.47314 40.0031C2.47314 30.9885 5.66968 22.7096 10.9869 16.2362L9.23101 14.4803C3.46858 21.4051 0 30.3084 0 40.0031C0 62.0574 17.9427 80 39.9969 80C50.582 80 60.2087 75.8575 67.3746 69.1244C67.9743 68.5617 68.5555 67.9743 69.1244 67.3746C75.8575 60.2149 80 50.582 80 39.9969C80 17.9427 62.0574 0 39.9969 0ZM39.9969 7.76567C48.4427 7.76567 56.1342 11.0302 61.8904 16.3598L59.9057 18.3445L58.156 20.0943C58.7681 20.6507 59.3493 21.2319 59.9057 21.844C64.3079 26.6481 67.0036 33.0474 67.0036 40.0649C67.0036 54.9532 54.8914 67.0717 39.9969 67.0717C32.9794 67.0717 26.5801 64.3821 21.776 59.9737C21.1701 59.4173 20.5827 58.8361 20.0263 58.224L18.2765 59.9737L16.3227 61.9275C10.9931 56.1713 7.72857 48.4798 7.72857 40.034C7.73476 22.2397 22.2088 7.76567 39.9969 7.76567Z" fill="#111111"/>
<path fill-rule="evenodd" clip-rule="evenodd" d="M41.1307 26.0102C38.5394 26.2375 36.5295 27.0482 34.2712 28.7768C33.3836 29.4561 32.8282 29.9639 32.2622 30.6135C31.1451 31.8957 30.3643 33.2224 29.7987 34.7999L29.5787 35.4133L27.4642 35.4136L25.3496 35.414V36.9679V38.5218L27.0952 38.5362L28.8407 38.5506L28.8759 40.0508C28.8953 40.8759 28.9302 41.6061 28.9535 41.6737L28.9959 41.7964H27.1728H25.3496V43.4875V45.1786H27.6128H29.8759L30.0926 45.765C30.3719 46.5205 31.0078 47.7278 31.4986 48.4344C31.9043 49.0185 32.7512 49.9965 33.2189 50.4212C35.216 52.2343 37.6174 53.3673 40.338 53.78C41.3078 53.9272 43.4246 53.9129 44.5083 53.752C47.543 53.3013 49.9262 52.083 51.7616 50.0442C52.0234 49.7534 52.2565 49.4844 52.2795 49.4465C52.3064 49.4022 51.7999 48.7761 50.8595 47.6908L49.3978 46.0039L48.9114 46.4468C47.996 47.2805 46.5907 48.2795 45.7855 48.6688C45.3158 48.8961 44.7147 49.0907 44.0674 49.2254C43.5678 49.3293 43.3117 49.3463 42.2376 49.3471C40.8419 49.3482 40.4345 49.2874 39.4442 48.9299C37.8871 48.3679 36.5818 47.2296 35.6271 45.6013L35.4432 45.2877H40.1319H44.8205V43.5969V41.9061L39.6131 41.8922L34.4058 41.8782L34.3607 41.66C34.336 41.54 34.3001 40.822 34.2811 40.0644L34.2465 38.687H39.5335H44.8205V36.9959V35.3049H39.9954C37.3415 35.3049 35.1702 35.2901 35.1702 35.2721C35.1702 35.1705 35.8814 34.0552 36.232 33.6071C37.1494 32.4345 38.561 31.4347 39.9124 31.0005C40.7602 30.7282 41.3664 30.6478 42.5498 30.6509C43.7843 30.6541 44.7152 30.7648 45.4742 30.9984C46.4466 31.2977 47.6731 32.109 48.9177 33.2762L49.6941 34.0043L51.1493 32.2571C52.3588 30.805 52.5951 30.4933 52.5488 30.4117C52.461 30.2571 51.079 28.9736 50.6391 28.6382C50.027 28.1714 49.1469 27.6379 48.4113 27.2879C46.6059 26.4287 44.8547 26.0442 42.5782 26.0072C41.9226 25.9965 41.2712 25.9979 41.1307 26.0102Z" fill="#111111"/>
</svg>
