<svg width="80" height="80" viewBox="0 0 80 80" fill="none" xmlns="http://www.w3.org/2000/svg">
<path d="M40 0C17.9462 0 0 17.9399 0 40C0 62.0538 17.9462 80 40 80C62.0538 80 80 62.0538 80 40C80 17.9399 62.0601 0 40 0ZM42.4847 1.97515C61.5191 3.20176 76.7857 18.462 78.0248 37.4902C78.0877 38.4337 77.3329 39.2389 76.3894 39.2389C75.5276 39.2389 74.8168 38.5721 74.7602 37.7166C73.6342 20.3114 59.6698 6.3532 42.2582 5.23982C41.4027 5.18321 40.736 4.4724 40.736 3.61063C40.7297 2.66709 41.5348 1.91854 42.4847 1.97515ZM12.2158 40C12.2158 24.6768 24.6831 12.2095 40.0063 12.2095C55.3295 12.2095 67.7968 24.6768 67.7968 40C67.7968 55.3232 55.3295 67.7905 40.0063 67.7905C24.6768 67.7905 12.2158 55.3232 12.2158 40ZM17.2794 61.3681C16.6001 62.0475 15.4867 62.0035 14.8703 61.2738C10.0016 55.5308 7.05771 48.1082 7.05771 40.0063C7.05771 32.005 9.92609 24.6643 14.6878 18.9527C15.3043 18.2167 16.424 18.1664 17.1033 18.8457C17.7009 19.4433 17.7449 20.3931 17.204 21.041C12.914 26.1865 10.3287 32.8039 10.3287 40.0126C10.3287 47.3156 12.9832 54.0022 17.3738 59.1728C17.9148 59.8081 17.877 60.7643 17.2794 61.3681ZM62.4501 59.3804C66.9476 54.1783 69.6776 47.4037 69.6776 40C69.6776 32.6907 67.0168 25.9915 62.6136 20.8146C62.0664 20.1667 62.1041 19.2106 62.7017 18.6067C63.381 17.9273 64.4944 17.9714 65.1109 18.7011C69.9921 24.4504 72.9486 31.8855 72.9486 40C72.9486 48.2151 69.9229 55.732 64.9284 61.5128C64.3057 62.2362 63.1986 62.2739 62.5256 61.6009C61.928 60.9907 61.8902 60.0283 62.4501 59.3804ZM61.2738 14.864C62.0035 15.4804 62.0475 16.6001 61.3681 17.2732C60.7706 17.8707 59.8081 17.9148 59.1602 17.3675C53.9833 12.9769 47.2967 10.3224 40 10.3224C32.5963 10.3224 25.8217 13.0524 20.6196 17.5499C19.9717 18.1098 19.003 18.072 18.3991 17.4682C17.7261 16.7951 17.7638 15.688 18.4872 15.0653C24.2617 10.0708 31.7786 7.04513 40 7.04513C48.1019 7.05142 55.5307 9.99528 61.2738 14.864ZM37.075 2.0066C38.0248 1.93112 38.8426 2.68596 38.8426 3.64208C38.8426 4.49127 38.1884 5.20208 37.3392 5.27127C20.1227 6.57965 6.37207 20.456 5.24611 37.7229C5.18949 38.5784 4.47869 39.2452 3.61692 39.2452C2.66709 39.2452 1.91854 38.44 1.98144 37.4965C3.21434 18.613 18.2544 3.44708 37.075 2.0066ZM37.0813 77.9871C18.3802 76.5655 3.42192 61.5946 2.0129 42.8998C1.9437 41.95 2.69225 41.1323 3.64837 41.1323C4.50385 41.1323 5.21466 41.7864 5.27756 42.6356C6.56707 59.739 20.2485 73.4266 37.3455 74.7224C38.1947 74.7853 38.8489 75.4962 38.8489 76.3516C38.8426 77.3078 38.0311 78.0626 37.0813 77.9871ZM18.7073 65.1109C17.9777 64.4944 17.9336 63.381 18.613 62.7017C19.2106 62.1041 20.173 62.0601 20.8209 62.6136C25.9978 67.0168 32.697 69.6776 40.0063 69.6776C47.215 69.6776 53.8261 67.0923 58.9778 62.8023C59.6257 62.2614 60.5756 62.3054 61.1731 62.903C61.8525 63.5823 61.8085 64.702 61.0662 65.3185C55.3546 70.0802 48.0138 72.9486 40.0126 72.9486C31.8855 72.9486 24.4504 69.9984 18.7073 65.1109ZM42.4784 78.0186C41.5348 78.0815 40.7297 77.3266 40.7297 76.3831C40.7297 75.5213 41.3964 74.8105 42.2519 74.7539C59.5377 73.6468 73.4266 59.8711 74.7287 42.6356C74.7916 41.7864 75.5024 41.1323 76.3579 41.1323C77.314 41.1323 78.0689 41.9437 77.9934 42.8998C76.5655 61.7456 61.3807 76.7982 42.4784 78.0186Z" fill="#111111"/>
<path fill-rule="evenodd" clip-rule="evenodd" d="M41.3909 26.0232C41.3442 26.0323 41.0765 26.07 40.7961 26.1072C37.5686 26.5344 34.7145 28.8912 33.6595 32.0002C33.0341 33.8431 33.0418 35.7074 33.6825 37.5655L33.8975 38.1892H31.9232H29.949V40.4065V42.6238H32.9228H35.8965L35.8956 43.1088C35.8929 44.4161 35.2711 45.7605 34.2269 46.7163C33.7586 47.1451 33.4498 47.3506 32.9083 47.5939C31.6883 48.1421 31.3501 48.3142 30.8553 48.6391C30.5593 48.8334 30.1331 49.1496 29.9082 49.3419C29.5187 49.6747 28.3072 50.9291 28.3066 51.0001C28.3065 51.0186 29.048 51.7016 29.9546 52.5179L31.6028 54.0021L32.0329 53.5375C32.918 52.5814 33.4222 52.1937 34.1446 51.9138C35.2738 51.4761 36.5977 51.5023 37.6653 51.9835C37.8607 52.0716 38.3107 52.3463 38.6652 52.5939C40.0557 53.565 41.3787 54.0877 42.9656 54.2928C46.0182 54.6875 49.1015 53.4767 51.0355 51.1239C51.3874 50.6958 52.2097 49.5562 52.2097 49.4966C52.2097 49.4751 51.4641 48.9503 50.5529 48.3304C49.6417 47.7104 48.8152 47.1441 48.7162 47.0719L48.5363 46.9406L48.1051 47.551C47.3106 48.6755 46.8356 49.1179 46.0073 49.5051C45.3075 49.8322 44.9318 49.9112 44.0814 49.9104C42.9437 49.9091 42.185 49.6453 41.1643 48.8961C40.8684 48.6789 40.2929 48.3354 39.8854 48.1329L39.1447 47.7647L39.4442 47.1799C40.0344 46.0277 40.3589 44.7816 40.4108 43.4692L40.4442 42.6238H43.4099H46.3755V40.4065V38.1892H42.7885H39.2016L39.0845 38.0644C39.0201 37.9959 38.8358 37.741 38.6749 37.4982C37.9067 36.3386 37.616 35.303 37.7606 34.2401C37.9616 32.7618 38.8409 31.5437 40.1731 30.898C40.8137 30.5875 41.2125 30.4848 41.9313 30.4452C43.6923 30.3481 45.3233 31.2887 46.1031 32.851C46.3578 33.3613 46.403 33.421 46.51 33.3886C46.737 33.3199 48.2167 32.8588 49.4449 32.474L50.6734 32.089L50.5651 31.7812C49.8947 29.8742 48.3083 28.0757 46.3755 27.0317C45.5243 26.5719 44.3787 26.2119 43.3338 26.0758C42.8013 26.0064 41.64 25.975 41.3909 26.0232Z" fill="#111111"/>
</svg>
