<svg width="1247" height="356" viewBox="0 0 1247 356" fill="none" xmlns="http://www.w3.org/2000/svg">
<path d="M137.535 23.9272C131.628 17.8745 124.786 12.892 117.291 9.18684C106.128 3.7691 93.8203 1.16097 81.5342 1.00345C45.5972 0.552889 42.861 44.3564 31.8106 50.4554C20.7601 56.5545 0.742116 57.2652 0.0360154 81.6248C-0.398237 96.9476 3.05107 112.706 12.7458 124.644C21.625 135.579 34.6667 141.128 47.5178 145.213C61.9505 149.814 77.2552 154.323 92.4364 151.22C108.016 148.037 118.961 135.238 131.752 126.589C139.809 121.142 147.039 115.41 152.014 106.67C152.607 105.629 153.165 104.56 153.694 103.479C160.353 89.9035 161.659 74.24 157.987 59.5473C154.697 46.3491 147.258 33.7956 137.535 23.9272Z" fill="#F9F8FE"/>
<path d="M391.369 158.258C390.244 156.513 389.006 154.839 387.662 153.245C376.685 140.251 362.334 134.751 345.94 131.067C329.007 127.263 309.181 126.08 292.923 132.938C289.096 134.571 285.46 136.727 282.584 139.666C271.706 150.74 267.974 169.287 255.861 183.947C243.748 198.607 237.84 216.869 248.714 234.204C253.317 241.545 259.186 247.593 266.129 252.917C274.677 259.448 282.051 268.285 291.932 273.396C302.315 278.765 316.144 280.636 327.637 278.177C340.747 275.372 348.436 264.216 358.443 256.623C366.333 250.627 375.773 246.702 383.503 240.516C395.348 231.046 404.33 215.808 402.838 200.71C401.372 186.053 399.486 170.821 391.369 158.258Z" fill="#F9F8FE"/>
<path d="M708.011 252.309C717.592 234.192 718.247 210.051 711.624 190.698C705.929 174.037 693.253 161.322 678.615 153.757C661.63 144.979 641.387 142.366 623.148 147.907C618.356 149.364 613.686 150.7 609.166 153.096C590.635 162.911 594.221 187.099 587.711 195.514C582.239 202.594 571.781 200.507 565.186 205.931C547.409 220.579 557.7 258.304 576.781 271.845C598.997 287.611 684.283 297.171 708.011 252.309Z" fill="#F9F8FE"/>
<path fill-rule="evenodd" clip-rule="evenodd" d="M51.9273 49.4859C51.6596 49.7531 51.4426 50.1315 51.4454 50.327C51.4482 50.5224 52.0061 52.2826 52.6849 54.2389C53.7303 57.2504 54.001 57.8407 54.4515 58.0917C55.1759 58.4952 56.0258 58.1918 56.2927 57.4346C56.4603 56.959 56.3062 56.3269 55.3047 53.3809C54.1014 49.8421 53.6254 49 52.8287 49C52.6006 49 52.1951 49.2187 51.9273 49.4859ZM106.319 49.4453C106.058 49.7111 105.403 51.2974 104.695 53.3809C103.693 56.3269 103.539 56.959 103.707 57.4346C103.974 58.1918 104.824 58.4952 105.548 58.0917C105.999 57.8407 106.269 57.2504 107.315 54.2389C107.994 52.2826 108.551 50.5224 108.554 50.327C108.561 49.8439 107.681 49 107.171 49C106.943 49 106.559 49.2005 106.319 49.4453ZM68.8208 53.2057C68.4259 53.5636 67.8504 55.2166 65.8913 61.6172L63.4532 69.5833H58.5596C54.1873 69.5833 53.6224 69.6201 53.2563 69.9297C52.9604 70.1799 52.1615 72.5032 50.3807 78.2917L47.9147 86.3073L42.9658 86.3601C38.1282 86.4118 38.008 86.4229 37.6195 86.8549C37.2093 87.3111 31.9921 103.924 32 104.749C32.0024 104.986 32.2394 105.364 32.5268 105.59C33.047 105.998 33.1339 106 51.5396 106C69.9453 106 70.0322 105.998 70.5524 105.59C71.1918 105.088 71.2491 104.195 70.6783 103.625C70.3346 103.282 70.0173 103.229 68.2984 103.229C67.2076 103.229 66.3171 103.207 66.3195 103.18C66.3218 103.153 67.2907 100.013 68.4721 96.2031L70.6204 89.276H80.0022H89.3841L91.4013 95.8073C92.511 99.3995 93.4846 102.539 93.5649 102.784C93.7101 103.226 93.6962 103.229 91.7145 103.229C89.9823 103.229 89.6654 103.282 89.3213 103.625C88.7505 104.195 88.8078 105.088 89.4472 105.59C89.9674 105.998 90.0543 106 108.46 106C126.866 106 126.953 105.998 127.473 105.59C127.76 105.364 127.998 104.986 128 104.749C128.009 103.933 122.787 87.3121 122.378 86.8549C121.992 86.4229 121.872 86.4118 117.034 86.3601L112.085 86.3073L109.619 78.2917C107.838 72.5032 107.039 70.1799 106.743 69.9297C106.377 69.6201 105.812 69.5833 101.44 69.5833H96.5464L94.1083 61.6172C92.1492 55.2166 91.5737 53.5636 91.1788 53.2057L90.6874 52.7604H79.9998H69.3122L68.8208 53.2057ZM42.1334 55.2611C41.9073 55.5479 41.7223 55.8639 41.7223 55.9637C41.7223 56.4822 42.5053 57.4348 44.6613 59.5391C47.2652 62.0805 47.6765 62.2741 48.5736 61.3787C49.4236 60.5306 49.254 60.2122 46.4421 57.3784C44.159 55.0774 43.7417 54.7396 43.184 54.7396C42.7292 54.7396 42.4256 54.8902 42.1334 55.2611ZM113.566 57.3693C110.745 60.2126 110.576 60.5302 111.426 61.3787C112.328 62.2792 112.732 62.0855 115.402 59.4734C118.189 56.7461 118.541 56.1774 117.94 55.3701C117.671 55.0088 117.328 54.8197 116.869 54.78C116.239 54.7255 116.016 54.9005 113.566 57.3693ZM91.4013 62.1615C92.511 65.7536 93.4846 68.893 93.5649 69.138L93.7113 69.5833H79.9919C68.3081 69.5833 66.2885 69.5422 66.3794 69.3061C66.4379 69.1535 67.3859 66.1032 68.486 62.5274C69.5859 58.9516 70.5268 55.9138 70.5766 55.7767C70.6482 55.5799 72.643 55.5382 80.0258 55.5788L89.3841 55.6302L91.4013 62.1615ZM36.6917 64.6499C36.1191 65.0991 35.9967 65.913 36.417 66.4739C36.7325 66.8946 43.3113 69.1875 44.2034 69.1875C45.3287 69.1875 45.9187 67.8336 45.1345 67.051C44.8244 66.7414 37.9556 64.2396 37.416 64.2396C37.3051 64.2396 36.9791 64.4242 36.6917 64.6499ZM119.467 65.2412C115.155 66.6977 114.988 66.7711 114.737 67.3217C114.612 67.5963 114.509 67.9501 114.509 68.1083C114.509 68.5892 115.268 69.1875 115.878 69.1875C116.714 69.1875 123.29 66.8764 123.583 66.4796C124.002 65.9098 123.881 65.0993 123.308 64.6499C123.021 64.4242 122.686 64.2465 122.564 64.2548C122.443 64.2631 121.049 64.7071 119.467 65.2412ZM73.9268 72.7005C73.9829 72.8911 74.9259 75.9584 76.0225 79.5172C77.1193 83.0757 78.0165 86.0817 78.0165 86.1969C78.0165 86.3421 73.8532 86.4062 64.431 86.4062C56.9589 86.4062 50.8454 86.3421 50.8454 86.2635C50.8454 86.1852 51.7988 83.0235 52.9638 79.2375L55.0823 72.3542H64.4536C73.2076 72.3542 73.8316 72.3769 73.9268 72.7005ZM82.3615 75.4714C81.8298 77.1857 81.1067 79.5459 80.7546 80.7161C80.4026 81.8864 80.0629 82.8438 79.9998 82.8438C79.9367 82.8438 79.597 81.8864 79.245 80.7161C78.8929 79.5459 78.1698 77.1857 77.6381 75.4714L76.6712 72.3542H79.9998H83.3284L82.3615 75.4714ZM107.031 79.2324C108.199 83.0153 109.154 86.1771 109.154 86.2584C109.154 86.3397 103.041 86.4062 95.5686 86.4062C86.1464 86.4062 81.9831 86.3421 81.9831 86.1969C81.9831 86.0817 82.8803 83.0757 83.9771 79.5172C85.0737 75.9584 86.0167 72.8911 86.0728 72.7005C86.168 72.3769 86.7918 72.3542 95.5415 72.3542H104.908L107.031 79.2324ZM60.4162 96.1382C61.5897 99.9641 62.5187 103.125 62.4808 103.163C62.4429 103.201 56.2935 103.209 48.8157 103.181L35.2195 103.13L36.6931 98.3802C37.5036 95.7677 38.479 92.6284 38.8606 91.4036L39.5544 89.1771L48.9185 89.1797L58.2828 89.182L60.4162 96.1382ZM67.7034 89.3103C67.7034 89.6553 64.4403 99.8923 64.384 99.7239C64.3487 99.618 63.6507 97.3576 62.8332 94.7005C62.0157 92.0437 61.2986 89.7138 61.2393 89.5234C61.1399 89.2032 61.3795 89.1771 64.4177 89.1771C66.2249 89.1771 67.7034 89.2371 67.7034 89.3103ZM98.7603 89.5234C98.701 89.7138 97.9839 92.0437 97.1664 94.7005C96.3489 97.3576 95.6507 99.6188 95.615 99.7256C95.5659 99.8729 92.9057 91.5742 92.3446 89.5234C92.2571 89.2036 92.5037 89.1771 95.5589 89.1771C98.6189 89.1771 98.8597 89.2032 98.7603 89.5234ZM121.139 91.4036C121.52 92.6284 122.494 95.7677 123.303 98.3802L124.772 103.13L111.18 103.181C103.704 103.209 97.5567 103.201 97.5188 103.163C97.4809 103.125 98.4099 99.9641 99.5834 96.1382L101.717 89.182L111.081 89.1797L120.445 89.1771L121.139 91.4036ZM77.0249 103.625C76.4541 104.195 76.5114 105.088 77.1508 105.59C77.6119 105.952 77.9465 106 79.9998 106C82.0531 106 82.3877 105.952 82.8488 105.59C83.5063 105.074 83.5459 104.199 82.9373 103.633C82.5473 103.27 82.2453 103.229 79.9623 103.229C77.6859 103.229 77.3803 103.27 77.0249 103.625Z" fill="#8A86B2"/>
<path fill-rule="evenodd" clip-rule="evenodd" d="M628.408 182.306C628.222 182.479 627.564 183.636 626.944 184.877C626.191 186.384 625.642 187.287 625.288 187.599C624.997 187.855 623.822 188.521 622.678 189.078C621.534 189.635 620.43 190.259 620.224 190.465C619.794 190.896 619.739 191.54 620.088 192.041C620.218 192.227 621.354 192.902 622.612 193.541C623.869 194.18 625.127 194.932 625.407 195.213C625.687 195.493 626.437 196.755 627.074 198.017C628.258 200.361 628.601 200.785 629.314 200.785C629.975 200.785 630.293 200.371 631.508 197.929C632.294 196.349 632.834 195.458 633.199 195.137C633.493 194.877 634.745 194.158 635.979 193.537C637.214 192.917 638.32 192.294 638.437 192.152C638.746 191.778 638.702 190.925 638.354 190.538C638.19 190.356 637.059 189.706 635.84 189.093C634.231 188.284 633.47 187.808 633.062 187.355C632.753 187.011 632.021 185.773 631.437 184.602C630.852 183.431 630.219 182.365 630.03 182.232C629.551 181.896 628.811 181.929 628.408 182.306ZM629.88 187.431C630.564 188.822 631.667 189.946 633.044 190.655C633.664 190.974 634.17 191.269 634.17 191.311C634.17 191.353 633.711 191.628 633.152 191.923C631.783 192.642 630.567 193.871 629.843 195.267L629.258 196.397L628.653 195.235C627.873 193.735 626.886 192.743 625.403 191.966L624.213 191.343L625.336 190.776C626.742 190.066 627.987 188.834 628.693 187.454C628.983 186.887 629.257 186.423 629.302 186.422C629.347 186.422 629.607 186.876 629.88 187.431ZM666.361 192.912C665.95 193.091 665.713 193.441 664.89 195.083C664.351 196.16 663.714 197.223 663.475 197.446C663.236 197.669 662.207 198.268 661.187 198.778C659.287 199.729 658.852 200.103 658.852 200.785C658.852 201.467 659.287 201.841 661.187 202.792C662.207 203.302 663.236 203.901 663.475 204.124C663.714 204.346 664.346 205.4 664.879 206.465C665.872 208.445 666.243 208.883 666.926 208.883C667.609 208.883 667.98 208.445 668.972 206.465C669.506 205.4 670.138 204.346 670.377 204.124C670.615 203.901 671.645 203.302 672.665 202.792C674.565 201.841 675 201.467 675 200.785C675 200.103 674.565 199.729 672.665 198.778C671.645 198.268 670.615 197.669 670.377 197.446C670.138 197.223 669.501 196.16 668.961 195.083C668.107 193.379 667.912 193.096 667.458 192.905C666.844 192.648 666.966 192.648 666.361 192.912ZM667.362 197.905C667.884 198.822 668.766 199.725 669.651 200.25C670.076 200.502 670.425 200.744 670.427 200.788C670.428 200.832 670.173 201.004 669.858 201.17C669.015 201.616 667.885 202.723 667.415 203.562C667.188 203.967 666.966 204.299 666.922 204.299C666.879 204.299 666.707 204.042 666.541 203.726C666.097 202.881 664.994 201.747 664.157 201.275C663.753 201.048 663.422 200.825 663.422 200.781C663.422 200.738 663.679 200.566 663.993 200.399C664.836 199.954 665.967 198.847 666.437 198.008C666.664 197.603 666.884 197.271 666.926 197.272C666.968 197.272 667.164 197.558 667.362 197.905ZM628.465 209.151L618.725 216.141L617.946 218.51L617.167 220.878L614.096 223.094C612.406 224.312 610.928 225.412 610.81 225.538C610.692 225.665 610.172 227.04 609.655 228.594L608.716 231.421L604.52 234.401C602.212 236.04 600.198 237.539 600.043 237.732C599.725 238.131 597 246.206 597 246.751C597 246.947 597.2 247.308 597.445 247.553L597.891 248L626.505 247.999C655.034 247.999 655.121 247.998 655.629 247.687C657.002 246.847 674.713 234.041 674.847 233.792C674.931 233.634 675 233.36 675 233.183C675 232.71 670.635 224.068 670.319 223.915C670.17 223.843 668.749 223.749 667.159 223.706L664.27 223.629L665.438 222.788C666.579 221.966 666.926 221.54 666.926 220.957C666.926 220.471 662.713 212.147 662.331 211.878C662.042 211.675 661.501 211.634 659.153 211.634H656.324L654.122 207.186C652.855 204.627 651.766 202.615 651.557 202.449C651.213 202.176 650.84 202.16 644.7 202.16H638.206L628.465 209.151ZM646.512 204.828C646.512 204.866 643.148 207.308 639.037 210.255L631.562 215.612L627.88 215.571L624.198 215.53L631.722 210.144L639.246 204.758H642.879C644.877 204.758 646.512 204.789 646.512 204.828ZM651.695 208.279C652.452 209.796 653.036 211.095 652.992 211.167C652.889 211.333 636.685 222.941 636.555 222.941C636.446 222.941 633.671 217.433 633.744 217.361C633.828 217.278 650.243 205.532 650.281 205.526C650.302 205.524 650.938 206.763 651.695 208.279ZM605.642 206.453C605.493 206.54 604.934 207.483 604.4 208.549C603.866 209.615 603.233 210.671 602.994 210.895C602.756 211.12 601.738 211.725 600.732 212.24C598.714 213.275 598.371 213.574 598.371 214.296C598.371 215.008 598.753 215.327 600.959 216.451C602.168 217.068 603.046 217.618 603.224 217.87C603.383 218.096 603.9 219.055 604.373 220.002C604.845 220.949 605.368 221.86 605.534 222.027C605.901 222.394 606.7 222.424 607.178 222.088C607.367 221.956 607.961 220.968 608.497 219.895C609.113 218.661 609.654 217.789 609.965 217.527C610.236 217.298 611.255 216.71 612.23 216.22C614.071 215.294 614.258 215.154 614.438 214.564C614.684 213.761 614.308 213.392 612.061 212.234C610.634 211.499 609.82 210.982 609.579 210.661C609.381 210.398 608.863 209.46 608.426 208.578C607.446 206.597 607.177 206.284 606.457 206.29C606.157 206.293 605.79 206.366 605.642 206.453ZM606.833 211.342C607.338 212.341 608.339 213.341 609.35 213.854L610.148 214.26L609.325 214.711C608.265 215.292 607.445 216.09 606.871 217.099L606.413 217.904L605.888 217.023C605.227 215.914 604.768 215.453 603.662 214.79L602.784 214.263L603.586 213.809C604.548 213.265 605.561 212.201 606.019 211.254C606.203 210.875 606.373 210.564 606.397 210.564C606.421 210.564 606.617 210.914 606.833 211.342ZM656.943 214.516C656.778 214.672 653.405 217.115 649.447 219.945L642.251 225.089L640.328 225.046L638.405 225.004L645.924 219.618L653.443 214.231H655.343C657.203 214.231 657.237 214.237 656.943 214.516ZM662.459 217.798L663.854 220.6L655.72 226.434C651.247 229.643 647.498 232.302 647.39 232.344C647.12 232.448 644.403 226.981 644.617 226.766C644.817 226.566 660.884 215.024 660.986 215.008C661.029 215.001 661.692 216.257 662.459 217.798ZM632.419 220.953C633.132 222.381 633.715 223.584 633.715 223.627C633.715 223.67 630.424 223.705 626.402 223.705C622.38 223.705 619.09 223.653 619.09 223.59C619.09 223.528 619.473 222.324 619.94 220.916L620.791 218.357H625.957H631.123L632.419 220.953ZM629.08 226.723C629.034 226.87 628.696 227.884 628.331 228.976L627.666 230.963L626.638 228.909C625.392 226.422 625.378 226.455 627.661 226.455C629.024 226.455 629.157 226.48 629.08 226.723ZM665.229 226.527C665.19 226.567 661.843 228.974 657.791 231.875L650.425 237.151H646.544H642.663L643.429 236.54C644.177 235.942 644.221 235.929 645.406 235.929C646.073 235.929 646.826 235.856 647.08 235.768C647.333 235.679 650.411 233.55 653.92 231.036L660.299 226.465L662.8 226.46C664.175 226.458 665.268 226.488 665.229 226.527ZM670.579 229.965L671.95 232.71L663.734 238.598C659.215 241.836 655.461 244.486 655.391 244.486C655.322 244.486 654.649 243.24 653.897 241.719C652.571 239.036 652.539 238.945 652.834 238.743C653.002 238.628 656.669 235.994 660.984 232.889C665.3 229.785 668.915 227.239 669.02 227.232C669.124 227.225 669.826 228.455 670.579 229.965ZM624.386 230.353C625.076 231.74 625.641 232.943 625.641 233.027C625.641 233.125 623.063 233.178 618.328 233.178C614.306 233.178 611.016 233.127 611.016 233.064C611.016 233.001 611.398 231.798 611.866 230.39L612.717 227.83H617.924H623.131L624.386 230.353ZM643.235 230.426C643.948 231.854 644.531 233.057 644.531 233.1C644.531 233.143 641.211 233.178 637.154 233.178H629.776L630.603 230.695C631.058 229.33 631.462 228.127 631.501 228.021C631.556 227.874 632.749 227.83 636.756 227.83H641.94L643.235 230.426ZM608.315 235.585C608.567 235.814 609.03 235.864 611.508 235.929L614.406 236.005L613.572 236.581L612.737 237.157L609.068 237.116L605.399 237.075L606.636 236.196C607.315 235.713 607.905 235.318 607.946 235.318C607.987 235.318 608.153 235.438 608.315 235.585ZM621.07 235.981C621.07 236.01 620.557 236.398 619.931 236.844C618.658 237.748 618.769 237.545 617.571 241.172C617.216 242.249 616.906 243.108 616.882 243.082C616.859 243.056 616.388 242.129 615.837 241.022L614.834 239.009L616.924 237.48L619.014 235.951L620.042 235.94C620.608 235.934 621.07 235.953 621.07 235.981ZM632.453 236.543L631.598 237.157L627.91 237.116L624.222 237.075L625.038 236.502L625.855 235.929H629.581H633.307L632.453 236.543ZM638.702 236.836L637.555 237.744L636.689 240.351C636.212 241.785 635.775 242.958 635.716 242.958C635.658 242.958 635.166 242.059 634.624 240.961C633.801 239.292 633.676 238.942 633.867 238.828C633.993 238.754 634.953 238.074 636 237.319L637.904 235.944L638.877 235.937L639.85 235.929L638.702 236.836ZM613.645 242.576L614.975 245.25H607.598H600.221L601.048 242.767C601.503 241.401 601.907 240.198 601.946 240.093C602.002 239.945 603.187 239.902 607.166 239.902H612.315L613.645 242.576ZM632.419 242.498C633.132 243.925 633.715 245.129 633.715 245.172C633.715 245.215 630.417 245.25 626.386 245.25C620.587 245.25 619.072 245.21 619.128 245.059C619.167 244.954 619.567 243.75 620.017 242.385L620.835 239.902H625.979H631.123L632.419 242.498ZM651.274 242.576L652.604 245.25H645.227H637.85L638.677 242.767C639.132 241.401 639.536 240.198 639.575 240.093C639.631 239.945 640.816 239.902 644.795 239.902H649.944L651.274 242.576Z" fill="#8A86B2"/>
<path d="M1239.01 127.309C1248.59 109.192 1249.25 85.051 1242.62 65.6981C1236.93 49.037 1224.25 36.3221 1209.61 28.7574C1192.63 19.9793 1172.39 17.3663 1154.15 22.9074C1149.36 24.3636 1144.69 25.7 1140.17 28.0955C1121.63 37.9106 1125.22 62.0986 1118.71 70.5143C1113.24 77.5935 1102.78 75.5069 1096.19 80.9314C1078.41 95.5785 1088.7 133.304 1107.78 146.845C1130 162.611 1215.28 172.171 1239.01 127.309Z" fill="#F9F8FE"/>
<path fill-rule="evenodd" clip-rule="evenodd" d="M1159.41 57.3056C1159.22 57.4789 1158.56 58.6357 1157.94 59.8764C1157.19 61.3838 1156.64 62.2869 1156.29 62.5986C1156 62.8551 1154.82 63.5209 1153.68 64.078C1152.53 64.6351 1151.43 65.2591 1151.22 65.4649C1150.79 65.8963 1150.74 66.54 1151.09 67.0405C1151.22 67.2267 1152.35 67.9019 1153.61 68.5409C1154.87 69.18 1156.13 69.9323 1156.41 70.2127C1156.69 70.4933 1157.44 71.7549 1158.07 73.0166C1159.26 75.3612 1159.6 75.7849 1160.31 75.7849C1160.98 75.7849 1161.29 75.3714 1162.51 72.9294C1163.29 71.3494 1163.83 70.458 1164.2 70.1368C1164.49 69.8772 1165.74 69.1575 1166.98 68.5373C1168.21 67.9171 1169.32 67.2936 1169.44 67.1518C1169.75 66.7784 1169.7 65.9252 1169.35 65.5375C1169.19 65.3557 1168.06 64.7055 1166.84 64.0928C1165.23 63.2837 1164.47 62.8079 1164.06 62.3545C1163.75 62.0112 1163.02 60.7726 1162.44 59.6019C1161.85 58.4313 1161.22 57.3647 1161.03 57.2319C1160.55 56.8956 1159.81 56.9292 1159.41 57.3056ZM1160.88 62.4308C1161.56 63.8222 1162.67 64.9456 1164.04 65.6549C1164.66 65.9739 1165.17 66.2693 1165.17 66.3113C1165.17 66.3533 1164.71 66.6284 1164.15 66.9225C1162.78 67.6416 1161.57 68.8711 1160.84 70.2673L1160.26 71.3965L1159.65 70.2349C1158.87 68.7345 1157.89 67.7426 1156.4 66.9659L1155.21 66.3434L1156.34 65.7763C1157.74 65.0663 1158.99 63.834 1159.69 62.4537C1159.98 61.8867 1160.26 61.4226 1160.3 61.4223C1160.35 61.422 1160.61 61.8758 1160.88 62.4308ZM1197.36 67.9117C1196.95 68.0906 1196.71 68.4413 1195.89 70.0832C1195.35 71.1601 1194.71 72.2234 1194.47 72.4461C1194.24 72.6687 1193.21 73.2681 1192.19 73.7782C1190.29 74.7286 1189.85 75.1025 1189.85 75.7849C1189.85 76.4673 1190.29 76.8412 1192.19 77.7916C1193.21 78.3016 1194.24 78.9011 1194.47 79.1237C1194.71 79.3463 1195.35 80.3997 1195.88 81.4644C1196.87 83.4452 1197.24 83.8833 1197.93 83.8833C1198.61 83.8833 1198.98 83.4452 1199.97 81.4644C1200.51 80.3997 1201.14 79.3463 1201.38 79.1237C1201.62 78.9011 1202.64 78.3016 1203.66 77.7916C1205.56 76.8412 1206 76.4673 1206 75.7849C1206 75.1025 1205.56 74.7286 1203.66 73.7782C1202.64 73.2681 1201.62 72.6687 1201.38 72.4461C1201.14 72.2234 1200.5 71.1599 1199.96 70.0827C1199.11 68.3788 1198.91 68.0955 1198.46 67.9053C1197.84 67.6483 1197.97 67.6475 1197.36 67.9117ZM1198.36 72.9051C1198.88 73.8219 1199.77 74.7251 1200.65 75.2501C1201.08 75.5022 1201.42 75.7444 1201.43 75.7884C1201.43 75.8322 1201.17 76.0041 1200.86 76.1704C1200.02 76.6163 1198.88 77.7227 1198.41 78.5619C1198.19 78.9672 1197.97 79.299 1197.92 79.2991C1197.88 79.2993 1197.71 79.0415 1197.54 78.7263C1197.1 77.8805 1195.99 76.7466 1195.16 76.2752C1194.75 76.0475 1194.42 75.8254 1194.42 75.7814C1194.42 75.7375 1194.68 75.5656 1194.99 75.3994C1195.84 74.9535 1196.97 73.8471 1197.44 73.0079C1197.66 72.6025 1197.88 72.2712 1197.93 72.2719C1197.97 72.2723 1198.16 72.5574 1198.36 72.9051ZM1159.47 84.1507L1149.72 91.1413L1148.95 93.5096L1148.17 95.878L1145.1 98.0936C1143.41 99.3122 1141.93 100.412 1141.81 100.538C1141.69 100.664 1141.17 102.04 1140.66 103.594L1139.72 106.421L1135.52 109.401C1133.21 111.04 1131.2 112.539 1131.04 112.732C1130.72 113.131 1128 121.206 1128 121.751C1128 121.947 1128.2 122.308 1128.45 122.553L1128.89 123L1157.5 122.999C1186.03 122.999 1186.12 122.998 1186.63 122.687C1188 121.847 1205.71 109.041 1205.85 108.792C1205.93 108.633 1206 108.359 1206 108.183C1206 107.71 1201.64 99.0684 1201.32 98.9148C1201.17 98.8428 1199.75 98.7488 1198.16 98.7062L1195.27 98.6284L1196.44 97.788C1197.58 96.9663 1197.93 96.5401 1197.93 95.9567C1197.93 95.4705 1193.71 87.1465 1193.33 86.8783C1193.04 86.6752 1192.5 86.6337 1190.15 86.6337H1187.32L1185.12 82.186C1183.85 79.6266 1182.77 77.6154 1182.56 77.4492C1182.21 77.1758 1181.84 77.1601 1175.7 77.1601H1169.21L1159.47 84.1507ZM1177.51 79.8275C1177.51 79.866 1174.15 82.3082 1170.04 85.2546L1162.56 90.6118L1158.88 90.571L1155.2 90.5301L1162.72 85.1439L1170.25 79.7577H1173.88C1175.88 79.7577 1177.51 79.7891 1177.51 79.8275ZM1182.7 83.2794C1183.45 84.7961 1184.04 86.0953 1183.99 86.1667C1183.89 86.3325 1167.68 97.9408 1167.56 97.9408C1167.45 97.9408 1164.67 92.4327 1164.74 92.3607C1164.83 92.2781 1181.24 80.5315 1181.28 80.5264C1181.3 80.5238 1181.94 81.7627 1182.7 83.2794ZM1136.64 81.4528C1136.49 81.5396 1135.93 82.483 1135.4 83.5491C1134.87 84.6153 1134.23 85.671 1133.99 85.8953C1133.76 86.1195 1132.74 86.7246 1131.73 87.2401C1129.71 88.2747 1129.37 88.5735 1129.37 89.2957C1129.37 90.0084 1129.75 90.3265 1131.96 91.4514C1133.17 92.0681 1134.05 92.6182 1134.22 92.8697C1134.38 93.0956 1134.9 94.0551 1135.37 95.002C1135.85 95.9488 1136.37 96.8599 1136.53 97.0266C1136.9 97.3944 1137.7 97.4244 1138.18 97.0882C1138.37 96.9556 1138.96 95.9683 1139.5 94.8946C1140.11 93.6611 1140.65 92.7892 1140.96 92.5267C1141.24 92.2983 1142.25 91.7101 1143.23 91.2201C1145.07 90.2941 1145.26 90.1542 1145.44 89.5637C1145.68 88.7609 1145.31 88.3922 1143.06 87.2337C1141.63 86.4986 1140.82 85.9823 1140.58 85.6608C1140.38 85.3975 1139.86 84.4601 1139.43 83.5777C1138.45 81.5969 1138.18 81.2841 1137.46 81.2903C1137.16 81.2929 1136.79 81.366 1136.64 81.4528ZM1137.83 86.3415C1138.34 87.3411 1139.34 88.3406 1140.35 88.8543L1141.15 89.2601L1140.33 89.7112C1139.27 90.2918 1138.45 91.0895 1137.87 92.0988L1137.41 92.9036L1136.89 92.0224C1136.23 90.9139 1135.77 90.4533 1134.66 89.7903L1133.78 89.2633L1134.59 88.8091C1135.55 88.2649 1136.56 87.2012 1137.02 86.2543C1137.2 85.8747 1137.37 85.5641 1137.4 85.5641C1137.42 85.5641 1137.62 85.9138 1137.83 86.3415ZM1187.94 89.5158C1187.78 89.6722 1184.4 92.1154 1180.45 94.9447L1173.25 100.089L1171.33 100.046L1169.41 100.004L1176.92 94.6174L1184.44 89.2313H1186.34C1188.2 89.2313 1188.24 89.2374 1187.94 89.5158ZM1193.46 92.7978L1194.85 95.6003L1186.72 101.434C1182.25 104.643 1178.5 107.302 1178.39 107.344C1178.12 107.448 1175.4 101.981 1175.62 101.766C1175.82 101.566 1191.88 90.024 1191.99 90.0076C1192.03 90.0009 1192.69 91.2565 1193.46 92.7978ZM1163.42 95.9528C1164.13 97.3805 1164.71 98.5838 1164.71 98.6268C1164.71 98.6697 1161.42 98.7048 1157.4 98.7048C1153.38 98.7048 1150.09 98.6533 1150.09 98.5904C1150.09 98.5274 1150.47 97.3241 1150.94 95.9164L1151.79 93.3568H1156.96H1162.12L1163.42 95.9528ZM1160.08 101.723C1160.03 101.87 1159.7 102.884 1159.33 103.976L1158.67 105.963L1157.64 103.909C1156.39 101.422 1156.38 101.455 1158.66 101.455C1160.02 101.455 1160.16 101.48 1160.08 101.723ZM1196.23 101.527C1196.19 101.567 1192.84 103.974 1188.79 106.875L1181.43 112.151H1177.54H1173.66L1174.43 111.54C1175.18 110.942 1175.22 110.929 1176.41 110.929C1177.07 110.929 1177.83 110.856 1178.08 110.768C1178.33 110.679 1181.41 108.55 1184.92 106.036L1191.3 101.465L1193.8 101.46C1195.18 101.458 1196.27 101.488 1196.23 101.527ZM1201.58 104.965L1202.95 107.71L1194.73 113.598C1190.21 116.836 1186.46 119.486 1186.39 119.486C1186.32 119.486 1185.65 118.24 1184.9 116.719C1183.57 114.036 1183.54 113.945 1183.83 113.743C1184 113.628 1187.67 110.994 1191.98 107.889C1196.3 104.785 1199.92 102.239 1200.02 102.232C1200.12 102.225 1200.83 103.455 1201.58 104.965ZM1155.39 105.353C1156.08 106.74 1156.64 107.943 1156.64 108.027C1156.64 108.125 1154.06 108.178 1149.33 108.178C1145.31 108.178 1142.02 108.127 1142.02 108.064C1142.02 108.001 1142.4 106.798 1142.87 105.39L1143.72 102.83H1148.92H1154.13L1155.39 105.353ZM1174.24 105.426C1174.95 106.854 1175.53 108.057 1175.53 108.1C1175.53 108.143 1172.21 108.178 1168.15 108.178H1160.78L1161.6 105.695C1162.06 104.33 1162.46 103.127 1162.5 103.021C1162.56 102.874 1163.75 102.83 1167.76 102.83H1172.94L1174.24 105.426ZM1139.32 110.585C1139.57 110.814 1140.03 110.864 1142.51 110.929L1145.41 111.005L1144.57 111.581L1143.74 112.157L1140.07 112.116L1136.4 112.075L1137.64 111.196C1138.32 110.713 1138.91 110.318 1138.95 110.318C1138.99 110.318 1139.15 110.438 1139.32 110.585ZM1152.07 110.981C1152.07 111.01 1151.56 111.398 1150.93 111.844C1149.66 112.748 1149.77 112.545 1148.57 116.172C1148.22 117.249 1147.91 118.108 1147.88 118.082C1147.86 118.056 1147.39 117.129 1146.84 116.022L1145.83 114.009L1147.92 112.48L1150.01 110.951L1151.04 110.94C1151.61 110.934 1152.07 110.953 1152.07 110.981ZM1163.45 111.543L1162.6 112.157L1158.91 112.116L1155.22 112.075L1156.04 111.502L1156.85 110.929H1160.58H1164.31L1163.45 111.543ZM1169.7 111.836L1168.55 112.744L1167.69 115.351C1167.21 116.785 1166.77 117.958 1166.72 117.958C1166.66 117.958 1166.17 117.059 1165.62 115.961C1164.8 114.292 1164.68 113.942 1164.87 113.828C1164.99 113.754 1165.95 113.074 1167 112.319L1168.9 110.944L1169.88 110.937L1170.85 110.929L1169.7 111.836ZM1144.65 117.576L1145.98 120.25H1138.6H1131.22L1132.05 117.767C1132.5 116.401 1132.91 115.198 1132.95 115.093C1133 114.945 1134.19 114.902 1138.17 114.902H1143.31L1144.65 117.576ZM1163.42 117.498C1164.13 118.925 1164.71 120.129 1164.71 120.172C1164.71 120.214 1161.42 120.25 1157.39 120.25C1151.59 120.25 1150.07 120.21 1150.13 120.059C1150.17 119.954 1150.57 118.75 1151.02 117.385L1151.83 114.902H1156.98H1162.12L1163.42 117.498ZM1182.27 117.576L1183.6 120.25H1176.23H1168.85L1169.68 117.767C1170.13 116.401 1170.54 115.198 1170.58 115.093C1170.63 114.945 1171.82 114.902 1175.8 114.902H1180.94L1182.27 117.576Z" fill="#8A86B2"/>
<path fill-rule="evenodd" clip-rule="evenodd" d="M286.218 166.552C285.708 167.069 285.674 167.257 285.674 169.492C285.674 170.805 285.77 172.062 285.887 172.284C286.239 172.951 287.335 173.302 288.085 172.987C289.001 172.602 289.223 171.893 289.223 169.354C289.223 167.266 289.184 167.065 288.678 166.552C288.335 166.204 287.881 166 287.448 166C287.016 166 286.561 166.204 286.218 166.552ZM293.714 172.77C292.585 173.142 291.462 173.664 291.218 173.928C290.245 174.988 291.024 176.8 292.453 176.8C293.406 176.8 296.574 175.693 297.154 175.157C298.003 174.374 297.795 172.952 296.75 172.404C295.962 171.991 296.144 171.969 293.714 172.77ZM277.687 172.75C277.182 173.262 277.094 174.486 277.521 175.067C277.861 175.531 281.494 176.8 282.482 176.8C283.888 176.8 284.642 174.9 283.622 173.929C283.041 173.376 279.904 172.307 278.852 172.303C278.424 172.301 277.951 172.483 277.687 172.75ZM283.51 179.573C282.7 180.029 280.544 183.227 280.522 184.005C280.486 185.321 281.882 186.188 283.033 185.563C283.677 185.214 285.883 182.093 286.037 181.315C286.145 180.767 286.045 180.517 285.495 179.959C284.768 179.222 284.295 179.13 283.51 179.573ZM289.428 179.933C289.062 180.304 288.779 180.832 288.779 181.145C288.779 181.679 290.218 183.895 291.4 185.181C292.142 185.989 293.162 186.014 293.877 185.243C294.691 184.365 294.524 183.573 293.101 181.557C291.393 179.138 290.57 178.774 289.428 179.933ZM362.533 180.952C362.027 181.466 361.989 181.665 361.989 183.775C361.989 185.886 362.027 186.084 362.533 186.598C363.533 187.612 365.09 187.131 365.444 185.698C365.521 185.388 365.549 184.262 365.505 183.197C365.436 181.485 365.367 181.211 364.903 180.83C364.174 180.231 363.194 180.282 362.533 180.952ZM355.094 186.458C354.391 187.171 354.305 187.586 354.704 188.346C355.087 189.076 355.497 189.327 357.33 189.955C359.467 190.686 359.881 190.672 360.701 189.841C361.26 189.273 361.351 189.038 361.237 188.456C361.161 188.071 360.992 187.625 360.861 187.466C360.6 187.146 356.791 185.8 356.148 185.8C355.925 185.8 355.451 186.096 355.094 186.458ZM368.898 186.557C367.756 186.954 366.683 187.472 366.513 187.708C365.793 188.705 366.551 190.525 367.685 190.525C368.708 190.525 372.023 189.368 372.56 188.824C372.847 188.533 373.081 188.03 373.081 187.706C373.081 187.012 371.98 185.792 371.379 185.818C371.156 185.828 370.039 186.16 368.898 186.557ZM295.037 189.636C294.757 189.75 294.396 190.174 294.235 190.578C294.074 190.982 293.057 194.932 291.974 199.356L290.006 207.4H285.081C280.064 207.4 279.211 207.514 278.83 208.237C278.711 208.462 277.802 212.036 276.809 216.179C275.817 220.322 274.905 224.092 274.784 224.556C274.571 225.374 274.533 225.4 273.56 225.4C271.35 225.4 270.245 227.098 271.576 228.448L272.121 229H322.5H372.879L373.424 228.448C374.755 227.098 373.65 225.4 371.44 225.4C370.467 225.4 370.429 225.374 370.216 224.556C370.095 224.092 369.149 220.27 368.113 216.063C366.454 209.325 366.16 208.352 365.649 207.906C365.085 207.413 364.938 207.4 359.998 207.4H354.926L352.877 198.945C351.652 193.889 350.671 190.293 350.438 190.001L350.048 189.513H338.029H326.01L325.618 190.004C325.391 190.289 324.679 192.784 323.932 195.911C323.22 198.889 322.58 201.325 322.509 201.325C322.438 201.325 321.791 198.92 321.073 195.981C320.354 193.042 319.663 190.468 319.536 190.26C319.41 190.052 319.072 189.774 318.786 189.641C318.129 189.338 295.782 189.333 295.037 189.636ZM360.299 192.321C359.846 192.506 357.963 195.033 357.486 196.094C357.155 196.831 357.784 198.113 358.575 198.314C359.595 198.574 360.247 198.138 361.478 196.375C362.786 194.501 362.979 193.554 362.21 192.775C361.966 192.528 361.675 192.325 361.563 192.325C361.451 192.325 361.226 192.281 361.064 192.227C360.901 192.173 360.557 192.215 360.299 192.321ZM365.589 192.476C365.122 192.666 364.615 193.879 364.778 194.418C364.955 195.004 366.81 197.719 367.302 198.112C367.826 198.53 368.741 198.452 369.39 197.934C370.515 197.037 369.982 195.377 367.788 192.944C367.251 192.348 366.364 192.159 365.589 192.476ZM318.452 200.2L320.227 207.4H306.971H293.714L295.49 200.2L297.265 193H306.971H316.677L318.452 200.2ZM349.51 200.2L351.286 207.4H338.029H324.773L326.548 200.2L328.323 193H338.029H347.735L349.51 200.2ZM301.405 211.844C301.526 212.308 302.283 215.371 303.087 218.65C303.891 221.929 304.601 224.79 304.666 225.006C304.776 225.378 304.044 225.4 291.442 225.4C278.84 225.4 278.107 225.378 278.218 225.006C278.282 224.79 278.992 221.929 279.796 218.65C280.601 215.371 281.357 212.308 281.478 211.844L281.697 211H291.442H301.186L301.405 211.844ZM308.967 211.242C308.967 211.758 307.102 219.325 306.975 219.325C306.901 219.325 306.403 217.579 305.869 215.444C305.335 213.309 304.855 211.436 304.802 211.281C304.729 211.069 305.227 211 306.836 211C308.211 211 308.967 211.086 308.967 211.242ZM333.981 218.2L335.757 225.4H322.5H309.243L311.019 218.2L312.794 211H322.5H332.206L333.981 218.2ZM340.198 211.281C340.145 211.436 339.665 213.309 339.131 215.444C338.597 217.579 338.103 219.325 338.034 219.325C337.965 219.325 337.45 217.452 336.889 215.163L335.868 211H338.082C339.756 211 340.272 211.068 340.198 211.281ZM363.522 211.844C363.643 212.308 364.399 215.371 365.204 218.65C366.008 221.929 366.718 224.79 366.782 225.006C366.893 225.378 366.16 225.4 353.558 225.4C340.956 225.4 340.224 225.378 340.334 225.006C340.399 224.79 341.109 221.929 341.913 218.65C342.717 215.371 343.474 212.308 343.595 211.844L343.814 211H353.558H363.303L363.522 211.844Z" fill="#8A86B2"/>
<path d="M989.011 235.309C998.592 217.192 999.247 193.051 992.624 173.698C986.929 157.037 974.253 144.322 959.615 136.757C942.63 127.979 922.387 125.366 904.148 130.907C899.356 132.364 894.686 133.7 890.166 136.096C871.635 145.911 875.221 170.099 868.711 178.514C863.239 185.594 852.781 183.507 846.186 188.931C828.409 203.579 838.7 241.304 857.781 254.845C879.997 270.611 965.283 280.171 989.011 235.309Z" fill="#F9F8FE"/>
<path fill-rule="evenodd" clip-rule="evenodd" d="M909.641 179.918L902.633 186.836L902.15 185.771C901.864 185.142 901.62 184.215 901.553 183.509C901.42 182.106 900.971 181.5 900.065 181.5C899.15 181.5 898.71 182.104 898.575 183.544C898.26 186.914 895.506 189.629 892.081 189.945C890.643 190.077 890.031 190.517 890.031 191.417C890.031 192.313 890.644 192.756 892.063 192.887C892.779 192.953 893.716 193.195 894.354 193.477L895.433 193.956L890.671 198.665L885.908 203.374L882.956 212.846C881.332 218.055 880.002 222.501 880 222.724C879.998 222.948 880.195 223.326 880.437 223.565L880.876 224H923H965.124L965.563 223.565C965.805 223.326 966.002 222.948 966 222.724C965.995 222.051 960.118 203.41 959.818 203.114C959.573 202.871 957.878 202.828 945.545 202.75L931.55 202.662L937.506 196.552C940.781 193.192 944.096 189.809 944.871 189.034L946.28 187.626L946.74 188.618C947.009 189.199 947.247 190.112 947.313 190.817C947.447 192.228 947.893 192.833 948.802 192.833C949.717 192.833 950.157 192.23 950.292 190.79C950.607 187.42 953.361 184.705 956.786 184.389C958.224 184.256 958.836 183.817 958.836 182.917C958.836 182.017 958.224 181.577 956.786 181.445C953.361 181.129 950.607 178.414 950.292 175.044C950.157 173.604 949.717 173 948.802 173C947.893 173 947.447 173.605 947.313 175.017C947.248 175.705 947.01 176.632 946.757 177.178C946.353 178.05 946.277 178.12 945.9 177.975C945.673 177.887 943.079 176.732 940.137 175.408L934.786 173H925.718H916.65L909.641 179.918ZM917.356 189.292L903.739 202.75H897.2H890.662L894.064 199.379L897.467 196.009L897.964 197.053C898.275 197.707 898.504 198.551 898.576 199.31C898.71 200.728 899.155 201.333 900.065 201.333C900.98 201.333 901.42 200.73 901.555 199.29C901.87 195.92 904.624 193.205 908.049 192.889C909.487 192.756 910.099 192.317 910.099 191.417C910.099 190.521 909.486 190.077 908.067 189.946C907.351 189.88 906.414 189.639 905.776 189.356L904.697 188.877L911.294 182.355L917.892 175.833H924.432H930.973L917.356 189.292ZM939.557 178.26L944.2 180.34L943.121 180.836C942.448 181.145 941.581 181.374 940.815 181.445C939.38 181.577 938.768 182.017 938.768 182.917C938.768 183.813 939.381 184.256 940.8 184.387C941.928 184.491 944.143 185.273 944.143 185.567C944.143 185.701 911.045 219.633 910.842 219.707C910.773 219.732 909.655 216.346 908.356 212.181L905.995 204.609L920.365 190.398C928.269 182.583 934.776 176.186 934.826 176.184C934.875 176.183 937.004 177.117 939.557 178.26ZM917.266 180.083V181.5H920.133H923V180.083V178.667H920.133H917.266V180.083ZM949.582 180.604C949.954 181.085 950.656 181.779 951.142 182.145C951.629 182.512 952.027 182.859 952.027 182.917C952.027 182.974 951.629 183.321 951.142 183.688C950.656 184.055 949.954 184.749 949.582 185.23C949.211 185.711 948.86 186.104 948.802 186.104C948.744 186.104 948.393 185.711 948.021 185.23C947.65 184.749 946.948 184.055 946.462 183.688C945.975 183.321 945.577 182.974 945.577 182.917C945.577 182.859 945.975 182.512 946.462 182.145C946.948 181.779 947.65 181.085 948.021 180.604C948.393 180.123 948.744 179.729 948.802 179.729C948.86 179.729 949.211 180.123 949.582 180.604ZM912.966 184.333V185.75H915.833H918.7V184.333V182.917H915.833H912.966V184.333ZM900.845 189.104C901.217 189.585 901.919 190.279 902.405 190.645C902.892 191.012 903.29 191.359 903.29 191.417C903.29 191.474 902.892 191.821 902.405 192.188C901.919 192.555 901.217 193.249 900.845 193.73C900.474 194.211 900.123 194.604 900.065 194.604C900.007 194.604 899.656 194.211 899.284 193.73C898.913 193.249 898.211 192.555 897.725 192.188C897.238 191.821 896.84 191.474 896.84 191.417C896.84 191.359 897.238 191.012 897.725 190.645C898.211 190.279 898.913 189.585 899.284 189.104C899.656 188.623 900.007 188.229 900.065 188.229C900.123 188.229 900.474 188.623 900.845 189.104ZM905.73 213.375C907.049 217.612 908.128 221.098 908.128 221.122C908.128 221.147 902.559 221.167 895.753 221.167C884.049 221.167 883.382 221.15 883.474 220.857C883.527 220.686 884.584 217.28 885.822 213.287C887.061 209.293 888.109 205.926 888.152 205.803C888.213 205.627 889.832 205.589 895.781 205.626L903.332 205.672L905.73 213.375ZM939.664 205.628C939.664 205.652 938.584 209.138 937.266 213.375L934.868 221.078L924.163 221.124L913.458 221.17L917.578 216.962C919.844 214.648 923.26 211.145 925.171 209.177L928.644 205.599L934.154 205.591C937.184 205.587 939.664 205.603 939.664 205.628ZM960.201 213.375C961.519 217.612 962.599 221.098 962.599 221.122C962.599 221.147 957.03 221.167 950.223 221.167C938.52 221.167 937.853 221.15 937.944 220.857C937.998 220.686 939.054 217.28 940.293 213.287C941.531 209.293 942.58 205.926 942.622 205.803C942.684 205.627 944.303 205.589 950.251 205.626L957.803 205.672L960.201 213.375Z" fill="#8A86B2"/>
<path d="M171.21 38.9924C171.366 41.9501 172.015 44.8419 173.131 47.5475C174.817 51.551 177.453 55.0783 180.65 57.9549C190.003 66.3664 200.843 55.4567 205.161 56.3997C209.478 57.3428 214.91 61.7749 220.724 55.5197C224.378 51.5827 227.111 46.6347 227.318 41.2522C227.508 36.3223 225.358 31.8507 222.92 27.809C220.185 23.2663 217.199 18.5466 212.487 15.8608C207.652 13.1043 201.815 13.9509 196.451 13.2779C193.072 12.854 189.845 12.6959 186.516 13.8508C186.12 13.988 185.726 14.1411 185.337 14.3036C180.448 16.3439 176.486 20.1694 174.057 24.8878C171.874 29.1245 170.931 34.1486 171.21 38.9924Z" fill="#F9F8FE"/>
<path d="M1064.21 240.992C1064.37 243.95 1065.02 246.842 1066.13 249.548C1067.82 253.551 1070.45 257.078 1073.65 259.955C1083 268.366 1093.84 257.457 1098.16 258.4C1102.48 259.343 1107.91 263.775 1113.72 257.52C1117.38 253.583 1120.11 248.635 1120.32 243.252C1120.51 238.322 1118.36 233.851 1115.92 229.809C1113.18 225.266 1110.2 220.547 1105.49 217.861C1100.65 215.104 1094.81 215.951 1089.45 215.278C1086.07 214.854 1082.84 214.696 1079.52 215.851C1079.12 215.988 1078.73 216.141 1078.34 216.304C1073.45 218.344 1069.49 222.169 1067.06 226.888C1064.87 231.125 1063.93 236.149 1064.21 240.992Z" fill="#F9F8FE"/>
<path d="M452.21 317.992C452.366 320.95 453.015 323.842 454.131 326.548C455.817 330.551 458.453 334.078 461.65 336.955C471.003 345.366 481.843 334.457 486.161 335.4C490.478 336.343 495.91 340.775 501.724 334.52C505.378 330.583 508.111 325.635 508.318 320.252C508.508 315.322 506.358 310.851 503.92 306.809C501.185 302.266 498.199 297.547 493.487 294.861C488.652 292.104 482.815 292.951 477.451 292.278C474.072 291.854 470.845 291.696 467.516 292.851C467.12 292.988 466.726 293.141 466.337 293.304C461.448 295.344 457.486 299.169 455.057 303.888C452.874 308.125 451.931 313.149 452.21 317.992Z" fill="#F9F8FE"/>
</svg>
