<svg width="183" height="191" viewBox="0 0 183 191" fill="none" xmlns="http://www.w3.org/2000/svg">
<g opacity="0.6">
<path d="M105.322 23.9985C79.6538 23.9985 58.8589 44.6753 58.8589 70.1677C58.8589 95.6601 79.6673 116.337 105.322 116.337C130.977 116.337 151.785 95.6601 151.785 70.1677C151.785 44.6753 130.99 23.9985 105.322 23.9985ZM105.322 107.119C84.7955 107.119 68.1488 90.5776 68.1488 70.181C68.1488 49.7844 84.7955 33.243 105.322 33.243C125.848 33.243 142.495 49.7844 142.495 70.181C142.495 90.5776 125.862 107.119 105.322 107.119Z" fill="#323247"/>
<path d="M105.322 107.119C84.7955 107.119 68.1488 90.5776 68.1488 70.181C68.1488 49.7844 84.7955 33.243 105.322 33.243C125.849 33.243 142.495 49.7844 142.495 70.181M151.799 70.1677C151.799 44.6619 130.99 23.9985 105.335 23.9985L151.799 70.1677ZM58.8589 70.1677C58.8589 95.6734 79.6673 116.337 105.322 116.337C120.519 116.337 134.024 109.08 142.495 97.8611L58.8589 70.1677Z" stroke="#FAFF00" stroke-opacity="0.5" stroke-width="0.8412" stroke-miterlimit="10" stroke-linecap="round" stroke-linejoin="round"/>
<path d="M174.355 176.113L165.696 191H183L174.355 176.113Z" fill="#FAFF00"/>
<path d="M174.355 117.872L165.696 132.759H183L174.355 117.872Z" fill="#FAFF00"/>
<path d="M26.8024 6.21587L21.5533 1L13.9012 8.61702L6.24905 1L1 6.21587L8.65205 13.8329L1 21.4366L6.24905 26.6524L13.9012 19.0488L21.5533 26.6524L26.8024 21.4366L19.1502 13.8329L26.8024 6.21587Z" stroke="#8F9294" stroke-width="0.8412" stroke-miterlimit="10" stroke-linecap="round" stroke-linejoin="round"/>
<path d="M26.8024 53.7583L21.5533 48.5425L13.9012 56.1462L6.24905 48.5425L1 53.7583L8.65205 61.3754L1 68.979L6.24905 74.1949L13.9012 66.5912L21.5533 74.1949L26.8024 68.979L19.1502 61.3754L26.8024 53.7583Z" stroke="#8F9294" stroke-width="0.8412" stroke-miterlimit="10" stroke-linecap="round" stroke-linejoin="round"/>
<path d="M26.8024 101.301L21.5533 96.0852L13.9012 103.689L6.24905 96.0852L1 101.301L8.65205 108.905L1 116.522L6.24905 121.738L13.9012 114.121L21.5533 121.738L26.8024 116.522L19.1502 108.905L26.8024 101.301Z" stroke="#8F9294" stroke-width="0.8412" stroke-miterlimit="10" stroke-linecap="round" stroke-linejoin="round"/>
</g>
</svg>
