<svg width="262" height="260" viewBox="0 0 262 260" fill="none" xmlns="http://www.w3.org/2000/svg">
<g opacity="0.2">
<path d="M0.999996 121.014C0.999998 161.002 33.2122 193.399 72.9266 193.399C112.641 193.399 144.853 160.981 144.853 121.014C144.853 81.0467 112.641 48.6294 72.9266 48.6294C33.2121 48.6294 0.999994 81.0258 0.999996 121.014ZM130.493 121.014C130.493 152.992 104.723 178.926 72.9474 178.926C41.1717 178.926 15.4019 152.992 15.4019 121.014C15.4019 89.036 41.1717 63.1021 72.9474 63.1021C104.723 63.1021 130.493 89.0151 130.493 121.014Z" fill="#111111"/>
<path d="M130.493 121.014C130.493 152.992 104.723 178.926 72.9474 178.926C41.1717 178.926 15.4019 152.992 15.4019 121.014C15.4019 89.0359 41.1717 63.102 72.9474 63.102M72.9266 48.6084C33.1914 48.6084 0.999994 81.0257 0.999996 120.993L72.9266 48.6084ZM72.9266 193.399C112.662 193.399 144.853 160.981 144.853 121.014C144.853 97.3389 133.548 76.299 116.07 63.102L72.9266 193.399Z" stroke="#FAFF00" stroke-opacity="0.5" stroke-width="0.8412" stroke-miterlimit="10" stroke-linecap="round" stroke-linejoin="round"/>
<path d="M237.978 13.4687L261.171 26.9586L261.171 -5.63269e-05L237.978 13.4687Z" fill="#FAFF00"/>
<path d="M147.244 13.4687L170.437 26.9586L170.437 -5.63269e-05L147.244 13.4687Z" fill="#FAFF00"/>
<path d="M37.2967 218.996L29.1709 227.173L41.0374 239.094L29.1709 251.016L37.2967 259.193L49.1632 247.272L61.0089 259.193L69.1347 251.016L57.2889 239.094L69.1347 227.173L61.0089 218.996L49.1632 230.917L37.2967 218.996Z" stroke="#888888" stroke-width="0.8412" stroke-miterlimit="10" stroke-linecap="round" stroke-linejoin="round"/>
<path d="M111.363 218.996L103.237 227.173L115.083 239.094L103.237 251.016L111.363 259.193L123.229 247.272L135.075 259.193L143.201 251.016L131.355 239.094L143.201 227.173L135.075 218.996L123.229 230.917L111.363 218.996Z" stroke="#888888" stroke-width="0.8412" stroke-miterlimit="10" stroke-linecap="round" stroke-linejoin="round"/>
<path d="M185.429 218.996L177.304 227.173L189.149 239.094L177.304 251.016L185.429 259.193L197.275 247.272L209.142 259.193L217.268 251.016L205.401 239.094L217.268 227.173L209.142 218.996L197.275 230.917L185.429 218.996Z" stroke="#888888" stroke-width="0.8412" stroke-miterlimit="10" stroke-linecap="round" stroke-linejoin="round"/>
</g>
</svg>
