<svg width="1280" height="280" viewBox="0 0 1280 280" fill="none" xmlns="http://www.w3.org/2000/svg">
<path opacity="0.03" d="M79.2939 115.867C79.2939 115.867 109.165 121.755 130.635 105.937C152.105 90.119 155.744 75.8237 159.428 53.5112C163.112 31.1987 148.691 10.1923 125.012 2.22099C101.333 -5.75034 92.9472 10.0446 65.0145 13.3789C37.0818 16.7131 28.2072 13.8843 9.92071 30.0829C-8.36579 46.2816 -0.581808 66.31 26.7692 89.0787C54.1202 111.847 79.2939 115.867 79.2939 115.867Z" fill="#3E1BDB"/>
<path opacity="0.03" d="M345.535 114.276C339.628 108.859 332.786 104.399 325.291 101.082C314.128 96.233 301.82 93.8985 289.534 93.7575C253.597 93.3542 250.861 132.563 239.811 138.022C228.76 143.481 208.742 144.117 208.036 165.922C207.602 179.637 211.051 193.743 220.746 204.428C229.625 214.216 242.667 219.183 255.518 222.839C269.95 226.957 285.255 230.993 300.436 228.216C316.016 225.367 326.961 213.911 339.752 206.169C347.809 201.294 355.039 196.162 360.014 188.339C360.607 187.408 361.165 186.45 361.694 185.483C368.353 173.332 369.659 159.311 365.987 146.16C362.697 134.346 355.258 123.11 345.535 114.276Z" fill="#3E1BDB"/>
<path opacity="0.03" d="M1054.71 104.867C1042.94 88.5585 1018.27 92.6525 1009.08 101.553C988.4 121.589 991.037 142.477 980.292 146.778C967.186 152.003 955.15 119.271 935.051 119.407C921.915 119.494 913.336 128.965 910.881 150.833C907.47 181.314 914.351 205.13 924.822 214.321C946.2 233.083 981.2 229.69 1000.06 227.065C1015.64 224.903 1038.6 229.578 1059.15 199.698C1071.28 182.059 1077.41 136.312 1054.71 104.867Z" fill="#3E1BDB"/>
<path opacity="0.03" d="M602.264 237.205C598.145 229.832 596.213 222.696 598.48 214.53C600.882 205.926 605.504 196.779 604.066 187.68C601.897 174.143 591.554 160.493 578.217 152.296C565.365 144.411 549.73 141.559 535.937 148.752C524.575 154.684 517.425 167.152 503.647 168.904C487.555 170.972 481.038 160.326 463.21 167.279C456.2 170.012 450.176 174.98 447.384 181.735C444.256 189.384 446.955 195.101 450.293 202.229C453.886 209.963 455.576 218.361 455.236 226.796C454.943 234.27 451.717 241.253 451.703 248.7C451.675 261.842 460.189 274.906 474.047 278.489C491.423 282.984 508.371 258.452 527.489 256.818C537.46 255.963 542.715 263.52 549.218 269.114C557.01 275.821 567.325 280.417 578.045 279.97C600.952 279.028 612.454 255.429 602.264 237.205Z" fill="#3E1BDB"/>
<path opacity="0.03" d="M1272.01 103.789C1281.59 86.2663 1282.25 62.9174 1275.62 44.1993C1269.93 28.0846 1257.25 15.7867 1242.61 8.47017C1225.63 -0.0200588 1205.39 -2.54731 1187.15 2.81205C1182.36 4.22049 1177.69 5.51307 1173.17 7.82998C1154.63 17.3232 1158.22 40.7178 1151.71 48.8575C1146.24 55.7045 1135.78 53.6864 1129.19 58.933C1111.41 73.0996 1121.7 109.588 1140.78 122.684C1163 137.933 1248.28 147.18 1272.01 103.789Z" fill="#3E1BDB"/>
<path opacity="0.03" d="M843.369 170.708C842.244 169.146 841.006 167.647 839.662 166.221C828.685 154.589 814.334 149.666 797.94 146.369C781.007 142.964 761.181 141.905 744.923 148.044C741.096 149.506 737.46 151.435 734.584 154.066C723.706 163.978 719.974 180.579 707.861 193.701C695.748 206.824 689.84 223.17 700.714 238.686C705.317 245.258 711.186 250.672 718.129 255.436C726.677 261.283 734.051 269.193 743.932 273.768C754.315 278.573 768.144 280.248 779.637 278.047C792.747 275.536 800.436 265.551 810.443 258.754C818.333 253.387 827.773 249.874 835.503 244.337C847.348 235.86 856.33 222.22 854.838 208.706C853.372 195.587 851.486 181.953 843.369 170.708Z" fill="#3E1BDB"/>
<path fill-rule="evenodd" clip-rule="evenodd" d="M545.187 169.938C541.696 171.576 540.606 172.729 540.06 175.361C539.714 177.034 539.816 178.045 540.477 179.464L540.94 180.457L540.408 180.358C538.16 179.938 535.303 181.017 533.878 182.823C533.031 183.898 532.708 184.652 532.336 186.416C532.048 187.787 531.99 187.923 531.718 187.87C530.476 187.629 511.501 185.77 510.684 185.81C509.161 185.884 506.658 186.563 505.18 187.304C504.469 187.66 503.823 187.939 503.743 187.923C503.413 187.859 501.037 188.588 500.066 189.051C497.798 190.133 495.707 191.91 494.363 193.897C492.923 196.025 492.827 196.383 490.048 209.999L487.526 222.351L487.866 223.526C488.188 224.634 488.321 224.825 490.229 226.916C492.452 229.352 492.804 229.565 493.68 229.002L494.166 228.689L494.833 225.229C495.491 221.807 495.495 221.758 495.235 220.803C494.891 219.547 494.23 218.708 492.624 217.494L491.316 216.505L493.387 206.779L495.458 197.053L496.152 195.895C496.533 195.259 497.184 194.38 497.598 193.942C498.341 193.155 499.965 191.814 500.041 191.923C500.062 191.955 499.833 192.44 499.531 193.002C498.584 194.761 498.159 196.885 496.905 206.127L495.764 214.536L496.138 222.241L496.511 229.946L495.64 230.533C495.16 230.856 494.447 231.538 494.056 232.048C493.383 232.925 493.314 233.1 492.824 235.167C492.308 237.347 492.307 237.36 492.634 237.835L492.963 238.313L501.167 239.908L509.371 241.502L509.865 241.184C510.357 240.868 510.361 240.856 510.756 238.653C511.129 236.567 511.136 236.374 510.869 235.326C510.527 233.984 510.013 233.082 509.097 232.219C508.721 231.863 508.432 231.479 508.456 231.364C508.479 231.25 508.746 230.497 509.047 229.69C509.758 227.791 510.908 224.151 511.535 221.819L512.03 219.978L512.185 220.978C512.476 222.852 513.585 224.691 515.17 225.93L515.97 226.555L515.639 228.146L515.309 229.737L516.594 229.987L517.878 230.236L518.136 228.995L518.394 227.753L519.679 228.003L520.963 228.252L520.705 229.494L520.447 230.736L521.732 230.985L523.016 231.235L523.347 229.644L523.679 228.053L524.698 227.767C526.09 227.377 528.096 226.078 528.869 225.067C529.295 224.51 529.601 224.26 529.858 224.259C530.063 224.257 531.015 224.254 531.975 224.25C532.934 224.247 534.356 224.193 535.135 224.129C535.913 224.066 536.612 224.027 536.687 224.041C536.761 224.056 536.746 224.688 536.652 225.447C536.343 227.939 536.095 231.869 536.058 234.861L536.022 237.801L535.164 238.484C533.657 239.684 533.254 240.393 532.651 242.908C532.128 245.09 532.128 245.099 532.456 245.575L532.785 246.053L540.988 247.648L549.192 249.242L549.686 248.924C550.179 248.607 550.182 248.597 550.576 246.392C550.935 244.377 550.948 244.087 550.721 243.172C550.399 241.872 549.795 240.785 548.954 239.992L548.283 239.358L549.127 237.553C551 233.548 552.592 229.062 553.748 224.538L554.374 222.083L555.462 220.672C556.679 219.094 557.815 216.907 558.371 215.076L558.741 213.857L559.719 213.581C560.867 213.258 562.515 212.335 563.359 211.544C564.564 210.415 564.824 209.757 566.75 202.949C567.733 199.473 568.597 196.568 568.669 196.493C568.75 196.409 569.079 196.566 569.517 196.897C570.501 197.641 571.355 197.988 573.009 198.314C574.297 198.568 574.463 198.565 574.894 198.288C575.355 197.992 575.38 197.92 575.841 195.686C576.366 193.14 576.393 192.411 576.017 191.013C575.426 188.818 573.221 186.752 570.987 186.301L570.465 186.196L571.272 185.424C572.494 184.255 572.962 183.434 573.282 181.898C573.838 179.22 573.292 177.72 570.735 174.903C568.823 172.796 568.425 172.571 567.583 173.113C567.218 173.347 567.075 173.58 566.961 174.129C566.588 175.925 564.671 179.189 564.145 178.924C562.572 178.131 552.756 176.097 550.605 176.119C549.967 176.125 549.428 176.106 549.407 176.075C549.386 176.045 549.251 175.526 549.106 174.922C548.812 173.694 548.753 171.714 548.977 170.634C549.091 170.085 549.053 169.817 548.81 169.464C548.252 168.653 547.799 168.712 545.187 169.938ZM546.217 173.363C546.233 173.874 546.37 174.822 546.521 175.469L546.796 176.645L546.255 176.875C545.958 177.002 545.099 177.481 544.348 177.939L542.981 178.773L542.763 178.196C542.298 176.964 542.398 175.816 543.08 174.572C543.416 173.958 543.758 173.631 544.649 173.071C545.275 172.678 545.878 172.373 545.988 172.395C546.1 172.417 546.201 172.845 546.217 173.363ZM569.979 177.994C570.578 178.843 570.762 179.273 570.827 179.965C570.958 181.367 570.592 182.464 569.671 183.426L569.24 183.876L568.312 182.597C567.802 181.893 567.2 181.128 566.973 180.897L566.561 180.476L566.987 179.931C567.568 179.188 568.61 177.448 568.682 177.1C568.786 176.6 569.196 176.882 569.979 177.994ZM556.223 180.768C554.949 182.343 554.382 183.597 553.943 185.811C553.634 187.373 553.6 187.892 553.735 189C553.967 190.893 554.54 192.36 555.716 194.069C556.891 195.776 558.068 196.853 559.787 197.795C560.814 198.359 561.281 198.513 563.042 198.868L565.097 199.283L564.725 200.583C564.52 201.299 564.246 202.203 564.114 202.593L563.876 203.302L563.253 202.616C562.377 201.652 561.159 200.761 559.78 200.076C558.353 199.367 555.213 198.682 553.54 198.714C552.646 198.731 552.35 198.674 551.533 198.324C550.003 197.669 546.833 197.128 545.233 197.249C543.686 197.365 542.208 197.732 541.012 198.295L540.159 198.698L540.235 197.874C540.482 195.193 541.882 185.408 542.131 184.622C543.251 181.087 546.732 178.612 550.575 178.618C550.943 178.619 552.555 178.866 554.159 179.168L557.074 179.717L556.223 180.768ZM563.322 181.403C566.378 183.133 568.079 186.405 567.657 189.745C567.506 190.943 565.926 196.557 565.699 196.703C565.625 196.751 564.757 196.633 563.772 196.441C562.449 196.183 561.762 195.971 561.155 195.631C558.864 194.351 557.238 192.345 556.631 190.05C555.703 186.542 556.873 183.198 559.872 180.788C560.395 180.368 560.42 180.365 561.441 180.643C562.012 180.799 562.858 181.141 563.322 181.403ZM539.372 185.028L538.9 187.228L538.017 187.737C537.115 188.256 535.882 188.518 535.072 188.36L534.619 188.272L534.888 186.981C535.267 185.157 535.789 184.28 536.933 183.544C537.753 183.017 538.899 182.71 539.681 182.808C539.783 182.821 539.668 183.649 539.372 185.028ZM572.056 189.602C572.865 190.183 573.521 191.342 573.616 192.362C573.659 192.812 573.572 193.761 573.425 194.471L573.156 195.762L572.703 195.674C571.894 195.517 570.861 194.815 570.236 193.999L569.625 193.2L570.07 190.991L570.514 188.781L570.976 188.97C571.231 189.074 571.716 189.358 572.056 189.602ZM545.561 186.669C544.783 186.834 544.243 187.385 544.077 188.182C543.941 188.835 543.978 189.03 544.338 189.553C544.699 190.077 544.869 190.184 545.554 190.317C546.24 190.45 546.439 190.415 546.981 190.066C547.524 189.717 547.634 189.554 547.772 188.891C547.908 188.237 547.872 188.034 547.535 187.544C547.111 186.928 546.214 186.531 545.561 186.669ZM562.26 189.915C561.482 190.079 560.942 190.63 560.776 191.428C560.641 192.08 560.678 192.276 561.037 192.798C561.398 193.323 561.568 193.429 562.254 193.563C562.939 193.696 563.138 193.661 563.681 193.312C564.223 192.963 564.333 192.799 564.471 192.137C564.607 191.483 564.571 191.279 564.234 190.79C563.811 190.174 562.913 189.776 562.26 189.915ZM538.511 190.523C538.516 190.546 538.118 193.664 537.628 197.452L536.737 204.339L537.086 205.604C537.711 207.868 539.611 209.935 542.293 211.266C543.745 211.987 546.871 212.672 548.557 212.64C549.451 212.622 549.747 212.68 550.564 213.03C551.137 213.275 552.401 213.607 553.702 213.855L555.881 214.269L555.56 215.162C554.483 218.161 552.23 221.032 549.713 222.61L548.738 223.222L548.987 222.025L549.236 220.828L547.951 220.578L546.667 220.329L546.303 222.075C545.583 225.529 543.79 232.119 542.32 236.712L542.02 237.652L540.975 237.36C540.4 237.199 539.648 237.087 539.305 237.111L538.679 237.155L538.665 236.32C538.585 231.648 539.331 223.485 540.236 219.119L540.502 217.838L539.963 217.734C539.666 217.676 539.069 217.607 538.636 217.581L537.849 217.534L537.528 219.461L537.207 221.387L536.164 221.507C534.297 221.723 531.793 221.79 529.428 221.689C527.559 221.609 526.377 221.45 523.334 220.867C519.497 220.132 518.015 219.712 515.13 218.543C513.837 218.018 510.86 216.623 510.742 216.486C510.717 216.458 511.272 215.692 511.973 214.785C512.675 213.878 513.234 213.117 513.215 213.093C513.098 212.948 511.358 211.69 511.243 211.667C511.052 211.63 508.848 214.526 507.214 216.961C505.055 220.178 503.104 223.871 501.543 227.694C501.159 228.633 500.824 229.412 500.799 229.425C500.773 229.437 500.38 229.422 499.927 229.391L499.101 229.333L498.752 221.957C498.56 217.901 498.458 214.328 498.525 214.018C498.637 213.499 498.693 213.454 499.218 213.461C500.324 213.475 502.193 212.851 503.309 212.097C504.516 211.28 505.358 210.332 505.989 209.081C507.939 205.208 505.877 200.343 501.626 198.783L500.605 198.409L500.901 196.982C501.823 192.547 505.17 189.296 509.634 188.5C510.186 188.401 510.984 188.338 511.408 188.36L512.18 188.4L511.912 188.97C510.314 192.372 512.148 196.843 515.86 198.59C519.78 200.436 524.708 198.599 526.455 194.641C526.908 193.613 527.148 191.884 526.99 190.778C526.928 190.339 526.907 189.963 526.945 189.942C527.077 189.867 532.912 190.521 533.975 190.73C535.325 190.994 536.433 190.98 537.459 190.686C538.214 190.47 538.494 190.427 538.511 190.523ZM524.28 190.542C524.492 191.267 524.488 191.602 524.252 192.717C523.999 193.916 523.906 194.115 523.226 194.908C522.394 195.879 521.792 196.252 520.455 196.625C519.683 196.84 519.349 196.838 518.185 196.612C517.021 196.386 516.712 196.262 516.086 195.775C515.01 194.939 514.595 194.363 514.24 193.218C513.829 191.895 513.936 190.634 514.554 189.489C514.801 189.032 515.092 188.671 515.201 188.685C515.31 188.7 517.132 188.88 519.248 189.085C521.365 189.29 523.307 189.509 523.563 189.572C523.954 189.668 524.071 189.826 524.28 190.542ZM551.077 200.915C551.882 201.307 552.028 201.334 553.009 201.265C554.497 201.161 557.45 201.738 558.669 202.371C564.585 205.443 563.725 210.746 557.188 211.505C555.926 211.652 555.487 211.626 553.887 211.309C552.647 211.063 551.731 210.791 551.094 210.478C550.218 210.05 550.07 210.018 549.172 210.077C544.239 210.399 539.244 207.221 539.458 203.894C539.613 201.476 542.406 199.775 546.267 199.746C547.297 199.738 550.016 200.399 551.077 200.915ZM543.748 201.82C542.97 201.984 542.43 202.536 542.264 203.333C542.128 203.986 542.166 204.181 542.525 204.704C542.886 205.228 543.056 205.335 543.742 205.468C544.427 205.601 544.626 205.566 545.169 205.217C545.711 204.868 545.821 204.705 545.959 204.042C546.095 203.388 546.059 203.185 545.722 202.695C545.299 202.079 544.401 201.682 543.748 201.82ZM557.878 204.566C557.1 204.731 556.56 205.282 556.394 206.08C556.259 206.732 556.296 206.927 556.656 207.45C557.017 207.975 557.186 208.081 557.872 208.214C558.557 208.348 558.756 208.313 559.299 207.964C559.841 207.615 559.952 207.451 560.089 206.788C560.225 206.134 560.189 205.931 559.853 205.441C559.429 204.826 558.532 204.428 557.878 204.566ZM523.817 200.553C522.75 200.603 521.132 201.149 520.277 201.749C519.837 202.057 519.152 202.731 518.754 203.247C518.1 204.095 518.001 204.326 517.724 205.66C517.447 206.993 517.446 207.243 517.71 208.27C517.871 208.894 518.241 209.783 518.531 210.244C519.21 211.324 520.747 212.495 521.994 212.882C522.574 213.063 522.913 213.245 522.889 213.365C522.867 213.47 523 214.096 523.186 214.755C523.596 216.212 524.373 217.296 525.687 218.243C526.564 218.876 526.803 218.971 528.183 219.239C529.562 219.507 529.821 219.509 530.883 219.253C532.518 218.859 533.63 218.16 534.646 216.888C535.442 215.891 535.507 215.748 535.798 214.349C536.077 213.006 536.079 212.759 535.814 211.73C535.653 211.106 535.283 210.217 534.993 209.756C534.314 208.677 532.777 207.506 531.53 207.118C530.949 206.938 530.611 206.755 530.635 206.636C530.657 206.53 530.523 205.904 530.338 205.245C529.708 203.005 528.006 201.381 525.704 200.822C525.026 200.658 524.177 200.537 523.817 200.553ZM525.987 203.588C526.834 204.024 527.925 205.581 527.985 206.443C528.011 206.803 527.977 207.363 527.91 207.687C527.823 208.111 527.88 208.41 528.116 208.752C528.424 209.2 528.508 209.234 529.556 209.334C531.115 209.482 531.84 209.887 532.645 211.057C533.944 212.944 533.529 214.936 531.579 216.19C529.629 217.444 527.591 217.047 526.25 215.153C525.551 214.166 525.385 213.423 525.614 212.313C525.701 211.889 525.644 211.59 525.408 211.248C525.1 210.801 525.016 210.766 523.968 210.667C522.409 210.518 521.684 210.113 520.878 208.943C520.214 207.977 520.01 207.12 520.213 206.143C520.416 205.168 520.947 204.452 521.946 203.808C523.3 202.935 524.581 202.866 525.987 203.588ZM501.988 201.868C502.909 202.503 503.59 203.472 503.937 204.641C504.163 205.401 504.163 205.733 503.936 206.856C503.691 208.071 503.61 208.246 502.917 209.048C502.083 210.015 501.464 210.399 500.195 210.74C499.027 211.053 498.825 210.99 498.957 210.355C499.077 209.774 499.946 203.495 500.121 201.941L500.233 200.94L500.739 201.148C501.017 201.262 501.579 201.586 501.988 201.868ZM550.488 226.522C549.547 229.816 548.119 233.583 546.525 236.975L545.917 238.27L545.267 238.144L544.617 238.017L544.905 237.145C545.469 235.436 546.793 230.895 547.353 228.746L547.923 226.563L549.354 225.794C550.142 225.371 550.815 225.026 550.85 225.027C550.885 225.029 550.722 225.701 550.488 226.522ZM509.383 219.663C509.058 221.211 507.967 224.906 507.116 227.337C505.975 230.597 506.018 230.515 505.502 230.415C505.263 230.369 504.666 230.352 504.175 230.378L503.283 230.426L503.516 229.806C504.613 226.892 506.108 223.796 507.82 220.893C509.261 218.452 509.711 218.097 509.383 219.663ZM517.638 222.151C518.324 222.386 520.561 222.909 522.61 223.313L526.335 224.048L525.547 224.565C523.053 226.202 519.451 225.968 516.867 223.999C516.172 223.47 515.174 222.173 514.978 221.545C514.86 221.167 514.583 221.104 517.638 222.151ZM492.392 220.786C492.828 221.472 492.85 222.051 492.504 223.715L492.181 225.272L491.335 224.318C490.198 223.037 490.076 222.543 490.449 220.744L490.748 219.306L491.433 219.829C491.809 220.117 492.241 220.548 492.392 220.786ZM501.293 232.377C502.122 232.8 503.185 234.345 503.269 235.248C503.303 235.62 503.249 236.318 503.149 236.799L502.968 237.674L501.683 237.424L500.398 237.175L500.657 235.933L500.915 234.691L499.63 234.441L498.346 234.192L498.087 235.434L497.829 236.675L496.545 236.426L495.26 236.176L495.442 235.301C495.722 233.955 496.158 233.304 497.251 232.599C498.604 231.727 499.881 231.657 501.293 232.377ZM506.431 233.376C507.261 233.799 508.324 235.343 508.407 236.247C508.441 236.619 508.388 237.317 508.288 237.798L508.106 238.673L506.844 238.427L505.581 238.182L505.791 236.758C505.97 235.545 505.952 235.158 505.672 234.151C505.312 232.855 505.345 232.821 506.431 233.376ZM541.114 240.117C541.944 240.54 543.007 242.085 543.09 242.988C543.125 243.36 543.071 244.058 542.971 244.539L542.789 245.414L541.505 245.164L540.22 244.914L540.478 243.673L540.736 242.431L539.452 242.181L538.167 241.931L537.909 243.173L537.651 244.415L536.366 244.165L535.082 243.916L535.263 243.041C535.543 241.695 535.979 241.044 537.072 240.339C538.426 239.467 539.703 239.396 541.114 240.117ZM546.253 241.115C546.644 241.315 547.113 241.78 547.52 242.371C548.247 243.428 548.389 244.191 548.109 245.538L547.927 246.412L546.665 246.167L545.403 245.922L545.612 244.497C545.791 243.284 545.773 242.897 545.493 241.89C545.133 240.595 545.166 240.561 546.253 241.115Z" fill="#8A86B2"/>
<path fill-rule="evenodd" clip-rule="evenodd" d="M1196.06 22.672C1195.56 22.8993 1195.14 23.2633 1194.61 23.9267C1193.03 25.915 1193.4 27.7097 1196.26 31.9969C1198.05 34.6853 1200 36.8403 1202.38 38.7856C1202.97 39.2651 1203.42 39.6618 1203.37 39.6674C1203.33 39.6729 1200.93 39.3651 1198.05 38.9833C1192.49 38.2459 1191.74 38.2286 1190.52 38.8098C1189.72 39.1854 1188.8 40.2399 1188.49 41.1244C1188.16 42.0931 1188.33 43.6608 1188.87 44.5442C1189.82 46.104 1194.16 48.5575 1198.4 49.9368C1202.15 51.1545 1207.49 51.7914 1210.68 51.4001L1211.45 51.3057L1211.42 51.8665C1211.4 52.175 1211.41 52.9025 1211.43 53.4832L1211.48 54.5392L1202.94 55.6652C1193.77 56.8732 1193.51 56.9244 1190.74 58.0862C1190.02 58.3847 1188.97 58.9149 1188.39 59.2645C1187.51 59.7955 1187.31 59.9903 1187.18 60.4483C1187 61.1103 1187.16 61.5825 1187.74 62.0154C1188.34 62.4671 1188.9 62.3581 1190.57 61.4588C1193.44 59.9161 1193.8 59.8357 1203.57 58.5561C1211.88 57.4669 1212.21 57.4334 1212.34 57.6823C1213.33 59.6426 1214.59 61.2646 1216.08 62.4882C1218.11 64.1598 1220.83 65.2488 1223.46 65.4456C1224.64 65.5339 1225.55 65.4689 1228.92 65.0567C1231.37 64.7569 1232.97 64.6164 1232.98 64.7005C1233.04 65.1857 1232.74 68.2453 1232.51 69.4161C1232.16 71.2544 1230.85 74.8433 1229.95 76.4477L1229.24 77.7244L1229.03 76.7835C1228.73 75.3546 1228.29 74.9434 1227.22 75.0748C1226.88 75.117 1226.55 75.2834 1226.31 75.545L1225.93 75.9499L1226.6 81.3708L1227.27 86.7915L1227.75 87.1956C1228.17 87.5451 1228.38 87.5996 1229.34 87.5983C1229.95 87.5974 1230.7 87.6653 1231.01 87.7492C1232.39 88.1155 1233.69 89.0892 1234.39 90.2789L1234.7 90.7981L1230.29 91.3401L1225.88 91.882L1223.15 85.1226C1220.76 79.2134 1220.36 78.3187 1219.96 78.0106C1219.17 77.406 1217.9 77.8238 1217.63 78.7723C1217.51 79.1921 1217.63 79.5798 1218.8 82.4827C1219.52 84.2656 1220.13 85.8395 1220.16 85.9805C1220.23 86.2881 1219.17 86.9057 1217.27 87.6557C1216.01 88.1543 1216 88.1547 1215.6 87.9111C1215.06 87.5888 1213.73 87.129 1212.98 87.0094L1212.39 86.9136L1212.08 84.9522C1211.75 82.8095 1211.36 81.7998 1210.25 80.2065C1208.53 77.727 1205.97 76.0489 1202.98 75.4266C1201.8 75.1809 1201.57 75.183 1199.38 75.4594C1197.25 75.728 1196.93 75.8037 1195.88 76.2966C1192.68 77.7966 1190.21 80.5983 1189.36 83.6988C1188.93 85.2642 1188.88 86.1526 1189.13 88.0032C1189.38 89.8128 1189.73 90.8536 1190.52 92.156C1190.74 92.5127 1190.89 92.835 1190.86 92.8722C1190.83 92.9093 1190.35 92.659 1189.79 92.3158C1185.65 89.7554 1182.81 86.0549 1181.59 81.6165C1181.13 79.9384 1180.88 76.8936 1181.07 75.2866C1181.15 74.6027 1181.38 73.4146 1181.57 72.6464C1181.77 71.8781 1181.91 71.0929 1181.88 70.901C1181.86 70.7093 1181.62 70.3685 1181.35 70.1437C1180.95 69.8074 1180.75 69.749 1180.23 69.8136C1179.37 69.9191 1179.04 70.3351 1178.65 71.8112C1177.7 75.4323 1177.73 79.233 1178.75 82.7197C1179.19 84.1968 1179.19 84.3958 1178.8 84.4443C1178.66 84.4605 1178.08 84.7716 1177.5 85.1356C1175.65 86.2945 1174.19 88.471 1173.8 90.6608C1173.12 94.4626 1175.6 98.4353 1179.42 99.6637C1181.54 100.346 1183.27 100.314 1185.25 99.554C1186.82 98.953 1187.69 98.3175 1188.81 96.9312L1189.78 95.7391L1191.17 96.3003C1193.75 97.3373 1196.3 97.8513 1199.15 97.9095C1200.47 97.9362 1202.42 97.7383 1209.85 96.8245C1219.84 95.5974 1219.61 95.6457 1219.87 94.7034C1220.05 94.0919 1219.7 92.5962 1219.13 91.5385C1218.9 91.1087 1218.69 90.6696 1218.66 90.5624C1218.63 90.4389 1219.11 90.1265 1219.98 89.7057C1220.74 89.3415 1221.38 89.0612 1221.41 89.0832C1221.44 89.1051 1221.95 90.313 1222.55 91.7676C1223.32 93.6628 1223.74 94.4906 1224 94.689C1224.37 94.9628 1224.44 94.958 1230.68 94.2326C1235.24 93.7017 1237.09 93.4377 1237.39 93.2753C1238.99 92.3919 1237.5 88.3988 1234.83 86.398C1233.74 85.5773 1232.04 84.8761 1230.81 84.7318L1230.07 84.6453L1229.9 83.372C1229.75 82.1878 1229.76 82.0705 1230.08 81.6957C1230.77 80.9013 1232.39 78.3529 1233.1 76.9529C1234.93 73.3409 1235.93 69.2541 1235.99 65.1686L1236.02 63.8427L1236.98 63.3209C1238.39 62.5537 1239.22 61.8228 1240.29 60.3907C1241.93 58.2038 1242.51 56.0207 1242.14 53.3285C1241.78 50.6929 1241.12 49.5184 1238.29 46.4592C1234.74 42.6183 1231.39 40.7889 1226.94 40.2628C1226.16 40.1709 1225.04 40.1081 1224.45 40.1233L1223.38 40.151L1211.71 31.4348C1203.47 25.2777 1199.84 22.6473 1199.33 22.4755C1198.4 22.1624 1197.01 22.2462 1196.06 22.672ZM1208.99 33.0869L1219.62 41.0472L1218.97 41.3531C1218.33 41.6559 1218.29 41.6545 1214.82 41.1949C1211.51 40.7557 1211.25 40.697 1209.98 40.0892C1205.77 38.0676 1202.32 35.2068 1199.46 31.38C1198.39 29.9374 1196.84 27.1672 1196.76 26.5398C1196.67 25.88 1197.17 25.2719 1197.88 25.1851C1198.31 25.1322 1199.41 25.916 1208.99 33.0869ZM1203.65 42.6947C1209.64 43.4799 1214.59 44.1472 1214.66 44.1778C1214.73 44.2081 1214.41 44.7328 1213.95 45.3434C1213.49 45.9543 1212.93 46.8512 1212.71 47.3368L1212.31 48.2196L1210.99 48.3858C1207.46 48.8304 1202.69 48.2852 1198.95 47.0109C1196.69 46.2411 1194.17 45.0081 1192.3 43.7566C1191.58 43.2717 1191.44 43.1062 1191.38 42.6601C1191.29 41.9894 1191.71 41.3977 1192.33 41.3219C1192.57 41.2916 1197.67 41.9094 1203.65 42.6947ZM1226.65 43.1792C1229.08 43.4838 1231.4 44.4184 1233.32 45.8701C1234.56 46.8135 1237.63 50.0403 1238.25 51.0581C1240.53 54.8111 1238.58 59.8512 1234.3 61.2747C1233.76 61.4534 1231.89 61.7233 1228.68 62.0832C1223.93 62.617 1223.86 62.6205 1222.61 62.379C1219.41 61.7585 1216.68 59.6547 1215.32 56.7733C1214.92 55.9097 1214.79 55.4029 1214.6 53.9639C1214.4 52.3936 1214.41 52.0691 1214.67 50.8914C1215.44 47.4426 1217.77 44.8624 1221.22 43.6265C1222.41 43.2031 1225.08 42.983 1226.65 43.1792ZM1226.13 50.2289C1225.77 50.6295 1225.71 50.8188 1225.77 51.3278C1225.97 52.7892 1228.08 53.07 1228.59 51.7028C1228.9 50.9029 1228.54 50.0793 1227.77 49.808C1227.1 49.5692 1226.61 49.695 1226.13 50.2289ZM1183.02 63.98C1182.51 64.1234 1182.03 64.9629 1182.1 65.5599C1182.2 66.2941 1182.96 66.8433 1183.75 66.7465C1184.88 66.6081 1185.41 65.5821 1184.85 64.6364C1184.69 64.3726 1184.48 64.1202 1184.38 64.0753C1184.05 63.9326 1183.35 63.8837 1183.02 63.98ZM1202.24 78.2914C1204.16 78.6165 1206.42 80.0125 1207.6 81.6068C1208.74 83.1409 1209.41 85.6456 1209.17 87.4485C1209.02 88.5316 1209.06 88.8047 1209.4 89.2876C1209.73 89.7431 1210.26 89.8891 1211.42 89.8455C1212.57 89.8027 1213.83 90.2221 1214.8 90.9718C1215.58 91.572 1216.36 92.4891 1216.41 92.8589C1216.44 93.1014 1201.56 94.9565 1200.15 94.8857C1199.65 94.8603 1198.64 94.6471 1197.91 94.4117C1194.18 93.2111 1191.7 89.6064 1192.06 85.8904C1192.23 84.1456 1192.71 82.9778 1193.87 81.5516C1195.44 79.6111 1197.2 78.6453 1199.77 78.3101C1200.82 78.1733 1201.51 78.168 1202.24 78.2914ZM1181.38 88.3436C1182.75 90.3947 1184.19 91.938 1186.28 93.5654L1187.11 94.2161L1186.58 94.9713C1186.25 95.4425 1185.7 95.9539 1185.11 96.331C1184.26 96.8708 1184.02 96.9523 1182.87 97.0939C1181.78 97.2287 1181.44 97.2077 1180.63 96.9545C1178.08 96.1647 1176.49 93.8423 1176.81 91.3752C1177.04 89.5856 1177.95 88.2688 1179.57 87.3782C1180.02 87.1322 1180.39 86.9282 1180.41 86.9245C1180.42 86.9208 1180.86 87.5594 1181.38 88.3436Z" fill="#8A86B2"/>
<path fill-rule="evenodd" clip-rule="evenodd" d="M61.7689 35.223C57.0703 37.3587 54.0217 42.0941 53.9994 47.2911C53.9924 48.9492 54.8068 51.9771 55.6322 53.362C58.7261 58.5526 64.4969 61.1059 70.488 59.9352C71.3082 59.7749 71.9923 59.6905 72.0081 59.7476C72.0239 59.8047 72.3007 60.4021 72.6232 61.0753C74.1576 64.2787 76.6231 67.0917 79.6661 69.111L80.802 69.8649L79.9363 71.4211C78.932 73.2265 78.1003 75.39 77.6947 77.2526C76.9921 80.479 77.1478 81.4454 78.413 81.7098C79.5187 81.9408 80.2823 81.2587 80.4166 79.9198C80.6613 77.4825 81.6586 74.5543 82.9638 72.4415L83.6728 71.2935L84.8326 71.6967C88.0217 72.8051 91.6895 73.264 95.3395 73.0114C96.443 72.9349 98.0819 72.5763 104.02 71.1119L111.34 69.3066L112.162 69.5239C113.33 69.8325 114.121 70.6126 114.431 71.7592C114.687 72.7082 114.605 73.3231 114.11 74.1452C113.528 75.1125 113.18 75.3103 110.807 76.019C108.615 76.6738 108.596 76.6832 108.347 77.1787C107.836 78.1997 108.668 79.398 109.838 79.3237C110.102 79.3069 110.319 79.3015 110.321 79.3117C110.323 79.322 110.31 80.4119 110.293 81.7338L110.263 84.1372L109.384 83.2221C107.189 80.9358 103.655 79.8964 100.689 80.6649C99.8144 80.8915 99.6523 80.9838 99.4041 81.3964C99.0047 82.0604 99.0643 82.6774 99.5748 83.1633C100.072 83.6372 100.638 83.7713 101.36 83.5871C102.155 83.3848 103.545 83.4517 104.499 83.7381C105.551 84.0537 106.537 84.6969 107.349 85.5954C107.902 86.2078 108.025 86.4628 108.38 87.7354C108.732 88.9966 108.761 89.2965 108.612 90.0951C108.519 90.5983 108.264 91.3441 108.046 91.7524C107.651 92.4936 107.648 92.4954 106.551 92.7796C105.524 93.0457 105.429 93.1017 105.112 93.6292C104.674 94.3582 104.853 95.1616 105.557 95.6235L106.032 95.9352L109.339 95.1596C112.346 94.4542 112.72 94.396 113.475 94.5167C114.734 94.7181 115.746 95.2269 116.567 96.0715L117.308 96.8347L109.865 98.6933C103.749 100.22 102.21 100.562 101.233 100.609C97.3156 100.795 93.7982 100.045 90.534 98.3275C87.8517 96.9161 85.5645 94.9863 83.8796 92.7135C83.3013 91.9335 82.5596 91.5605 81.9175 91.7268C81.3783 91.8665 80.8072 92.5892 80.808 93.1306C80.8091 93.814 81.1231 94.3111 82.6177 95.9953C84.3659 97.965 86.1745 99.4101 88.5161 100.708C92.3774 102.847 96.6102 103.822 101.229 103.634C102.701 103.574 103.199 103.464 111.557 101.357C121.63 98.8171 121.476 98.8731 122.336 97.4429C122.609 96.9899 122.859 96.3155 122.894 95.9439C122.928 95.5723 122.979 93.1011 123.008 90.4522C123.09 82.8423 123.008 83.6446 123.758 83.1346C125.642 81.8555 127.215 79.6175 127.587 77.6906C128.204 74.4864 127.107 71.4279 123.775 67.0698L123.316 66.4697L123.455 55.6657L123.593 44.8617L124.537 43.9425C125.806 42.7067 127.263 40.2739 127.764 38.5531C129.48 32.6674 126.917 26.5426 121.477 23.5276C114.953 19.9121 106.675 22.0232 102.854 28.2771C102.419 28.988 101.878 30.1235 101.651 30.8001C101.423 31.4769 101.216 32.0359 101.19 32.0426C101.165 32.0492 100.544 31.9557 99.8106 31.8349C92.4249 30.6175 84.7698 32.5892 78.9988 37.1954C78.3896 37.6816 77.8699 38.085 77.8442 38.0917C77.8183 38.0984 77.3499 37.7142 76.8031 37.2382C72.7938 33.747 66.7873 32.9419 61.7689 35.223ZM66.5137 37.0094C67.9981 36.8615 69.612 37.0104 70.9037 37.4143C72.2209 37.8261 74.1989 38.9527 75.0905 39.7991L75.7121 40.3891L75.3092 40.8957C75.0876 41.1743 74.6391 41.8151 74.3122 42.3197C73.9854 42.8243 73.6893 43.2163 73.6542 43.1909C73.6193 43.1654 73.4386 42.9485 73.2527 42.7091C72.6262 41.901 71.2186 40.9591 70.0904 40.5926C65.6581 39.1531 61.0913 41.9385 60.551 46.4108C60.3923 47.7252 61.0344 50.0407 61.8523 51.1033C63.0213 52.6219 65.0352 53.7369 66.9691 53.9361C67.7098 54.0124 68.2577 53.9517 69.397 53.6676C70.6322 53.3593 70.8641 53.3384 70.8429 53.5371C70.829 53.6673 70.8817 54.447 70.9598 55.2697L71.1022 56.7657L69.9151 56.9809C67.1384 57.4842 64.8143 57.1178 62.4407 55.8024C59.8366 54.3593 58.3241 52.4696 57.5567 49.7003C56.7773 46.8875 57.1513 44.3205 58.697 41.8737C60.4674 39.0712 63.2598 37.3335 66.5137 37.0094ZM113.767 24.8202C117.831 24.4843 121.729 26.455 123.817 29.9009C124.517 31.0557 125.176 33.4449 125.173 34.8117C125.169 36.6784 124.741 38.1796 123.707 39.9584C123.007 41.1623 122.782 41.3479 122.515 40.945C122.275 40.5839 121.093 39.9425 120.408 39.8016L119.816 39.6797L120.403 38.964C121.162 38.0398 121.731 36.4159 121.781 35.0351C121.884 32.1619 119.862 29.3507 117.029 28.4307C112.922 27.097 108.524 29.4284 107.674 33.3898C107.558 33.9277 107.455 34.3987 107.443 34.4364C107.432 34.4741 106.936 34.2524 106.339 33.9435C105.743 33.6347 105.023 33.2987 104.739 33.1968L104.222 33.0117L104.454 32.202C105.046 30.1446 106.911 27.6652 108.705 26.5502C110.489 25.4424 111.844 24.9793 113.767 24.8202ZM93.4935 34.5781C98.9979 34.1132 104.843 35.8478 108.65 39.076C110.361 40.5276 111.286 41.6066 111.142 41.9831C111.08 42.1435 110.977 42.4689 110.914 42.7061C110.851 42.9432 110.745 47.2929 110.68 52.3722C110.615 57.4513 110.559 61.715 110.555 61.8469C110.547 62.1627 109.147 63.665 107.83 64.7712C104.841 67.2825 100.882 69.0773 96.9442 69.707C88.3111 71.0873 80.084 67.6747 76.1366 61.0761C75.4208 59.8795 75.263 59.4774 74.6734 57.3497C74.0859 55.2296 74.0122 54.7925 74.0106 53.4158C74.0039 47.8925 76.9075 42.4931 81.8126 38.9074C83.2664 37.8445 85.5179 36.6133 87.1271 36.0011C88.675 35.4124 91.7476 34.7255 93.4935 34.5781ZM68.4947 43.2688C69.2905 43.4337 70.2152 43.9527 70.8029 44.564C71.3812 45.1657 71.8738 46.9433 71.6841 47.7441C71.0406 50.4584 68.1388 51.7395 65.698 50.387C63.01 48.8973 62.9742 45.3872 65.6299 43.7158C66.1961 43.3595 67.7573 43.1158 68.4947 43.2688ZM115.348 31.0822C116.797 31.3701 118.174 32.5785 118.535 33.8788C118.953 35.3888 118.199 37.2638 116.821 38.1376C115.51 38.9694 113.856 39.0003 112.539 38.2177C111.505 37.603 111.131 37.1059 110.798 35.9051C110.466 34.7042 110.533 34.0926 111.11 33.0612C111.452 32.4519 111.934 31.953 112.568 31.5538C113.096 31.2217 114.69 30.9512 115.348 31.0822ZM82.6354 51.0878C82.3276 51.5391 82.2924 51.7378 82.4318 52.2409C82.5712 52.7439 82.7044 52.899 83.2043 53.141C83.6245 53.3446 83.9668 53.3924 84.33 53.2983C84.6932 53.2042 84.9649 52.9973 85.2235 52.6178C85.5313 52.1666 85.5665 51.9678 85.4271 51.4648C85.2877 50.9617 85.1545 50.8066 84.6546 50.5646C84.2344 50.361 83.8921 50.3132 83.5289 50.4073C83.1657 50.5014 82.894 50.7083 82.6354 51.0878ZM101.742 46.1373C101.434 46.5885 101.399 46.7873 101.538 47.2903C101.678 47.7934 101.811 47.9485 102.311 48.1905C102.731 48.3941 103.073 48.4419 103.436 48.3478C103.799 48.2537 104.071 48.0468 104.33 47.6673C104.638 47.216 104.673 47.0173 104.533 46.5142C104.394 46.0112 104.261 45.8561 103.761 45.6141C103.341 45.4105 102.998 45.3627 102.635 45.4568C102.272 45.5509 102 45.7578 101.742 46.1373ZM117.265 42.7611C120.078 42.7874 120.202 42.8095 120.348 43.3129C120.41 43.528 120.396 49.2985 120.316 56.1361L120.17 68.5681L119.399 69.8681C118.975 70.5831 118.438 71.334 118.206 71.5368L117.784 71.9053L117.522 70.9575C117.237 69.9284 116.429 68.6268 115.704 68.0271C115.466 67.8298 114.904 67.4497 114.456 67.1824L113.641 66.6963L113.814 55.0282C113.909 48.6108 114.019 43.2662 114.059 43.1514C114.177 42.8122 114.786 42.7379 117.265 42.7611ZM92.6606 49.771C91.2425 50.3769 90.1305 51.5625 89.6623 52.968C89.2287 54.2694 89.3156 55.472 89.9996 57.6416C90.5108 59.2632 90.6675 59.5991 91.2038 60.2228C92.0263 61.1796 93.2614 61.9056 94.5232 62.1741C95.4713 62.3758 95.677 62.3633 96.9871 62.0246C98.2695 61.693 98.4938 61.5884 99.1686 61.007C100.096 60.2076 100.842 58.8999 101.072 57.67C101.238 56.7857 101.215 56.6264 100.626 54.4985C100.137 52.7338 99.9063 52.119 99.5408 51.6036C98.0493 49.5006 95.1198 48.7203 92.6606 49.771ZM95.4993 52.4558C96.6005 52.725 96.9707 53.2369 97.5342 55.2704C97.962 56.8145 97.9897 57.0476 97.8055 57.5606C97.6926 57.8747 97.4104 58.3163 97.1783 58.5417C96.3326 59.3631 94.9437 59.3685 93.9701 58.5543C93.5449 58.1988 93.4488 57.9843 93.0179 56.4291C92.4654 54.4351 92.5257 53.7853 93.3359 53.0034C93.9359 52.424 94.6399 52.246 95.4993 52.4558ZM123.176 71.6362C124.306 73.6322 124.786 75.5958 124.507 77.0889C124.094 79.307 121.671 81.4302 119.391 81.5733C117.75 81.6763 116.755 81.0037 116.35 79.517C115.959 78.0839 116.589 76.564 117.951 75.6526C119.844 74.3865 121.403 72.828 122.225 71.3791C122.4 71.07 122.603 70.8545 122.675 70.9003C122.747 70.9462 122.973 71.2773 123.176 71.6362ZM78.3468 86.0504C77.5901 86.7531 77.7512 87.7898 78.6985 88.3148C79.9531 89.0101 81.2818 88.0226 80.9151 86.6673C80.6212 85.5815 79.2154 85.2438 78.3468 86.0504ZM114.681 82.895C115.777 84.0524 117.71 84.7882 119.247 84.6327C119.575 84.5995 119.864 84.6459 119.888 84.7355C119.924 84.8627 119.846 93.4162 119.799 94.6557C119.791 94.8557 119.592 94.7195 119.079 94.1626C118.03 93.024 116.172 91.9844 114.619 91.6682C113.748 91.4908 113.34 91.3339 113.338 91.176C113.337 91.0484 113.364 88.7206 113.398 86.0028L113.459 81.0617L113.817 81.7111C114.014 82.0684 114.403 82.6011 114.681 82.895Z" fill="#8A86B2"/>
<path fill-rule="evenodd" clip-rule="evenodd" d="M291.298 128.608C291.228 128.645 291.014 128.736 290.822 128.809C290.63 128.882 290.314 129.121 290.119 129.341C289.883 129.607 289.493 129.826 288.948 130.001C285.077 131.238 282.665 134.74 281.155 141.314C280.816 142.792 280.234 146.234 279.4 151.692L279.223 152.852L277.182 153.086C275.916 153.231 274.217 153.31 272.71 153.296C271.373 153.283 269.404 153.337 268.334 153.416L266.387 153.559L265.009 152.596C259.907 149.031 255.008 149.541 251.605 153.991C250.194 155.835 249.466 157.675 249.08 160.376C248.793 162.385 248.757 164.011 248.872 169.703C248.951 173.561 249.023 174.882 249.17 175.147C249.597 175.918 250.627 175.953 251.649 175.231C251.983 174.996 252.844 174.463 253.563 174.047C255.43 172.966 256.481 172.167 257.213 171.272C257.647 170.74 257.88 170.545 257.942 170.661C258.235 171.204 260.174 173.008 261.152 173.645L262.296 174.391L260.981 178.466L259.666 182.542L258.33 182.237C257.595 182.069 256.307 181.743 255.468 181.511C254.07 181.127 253.857 181.104 252.929 181.249C251.134 181.528 249.726 182.739 249.247 184.415C249.105 184.913 249.101 185.333 249.232 186.131C249.383 187.059 249.475 187.283 249.991 187.992C250.742 189.023 251.377 189.404 253.217 189.924C260.342 191.94 268.685 192.673 277.626 192.069C279.751 191.926 280.186 191.771 280.421 191.076C280.637 190.436 280.496 190.017 279.931 189.622C279.428 189.27 279.397 189.267 277.435 189.408C269.193 189.998 260.574 189.264 254.284 187.434C252.768 186.993 252.48 186.862 252.223 186.498C251.832 185.945 251.758 185.43 251.988 184.881C252.176 184.435 252.85 183.881 253.289 183.813C253.418 183.793 254.541 184.037 255.784 184.355C262.013 185.949 268.42 186.502 276.338 186.131C279.048 186.003 287.003 184.89 289.969 184.223C298.272 182.355 305.538 179.497 311.48 175.762C312.58 175.071 313.586 174.488 313.715 174.468C314.5 174.347 315.552 175.077 315.678 175.831C315.807 176.608 315.516 177.107 314.508 177.833C309.416 181.503 300.276 185.313 292.045 187.198C290.658 187.515 290.24 187.739 290.064 188.259C289.843 188.915 290.004 189.439 290.546 189.821L291.028 190.161L292.322 189.871C301.041 187.918 310.385 184.037 316.246 179.932C317.39 179.131 317.847 178.548 318.196 177.444C318.457 176.615 318.472 176.374 318.317 175.446C318.183 174.649 318.044 174.252 317.748 173.821C316.753 172.373 315.025 171.647 313.229 171.923C312.301 172.066 312.105 172.151 310.901 172.938C310.179 173.41 309.203 174.026 308.733 174.307L307.879 174.818L304.487 170.222C302.621 167.694 301.08 165.534 301.061 165.421C301.02 165.173 303.365 146.918 303.453 146.8C303.487 146.754 304.459 146.671 305.613 146.617C309.559 146.432 310.741 146.085 311.84 144.791C313.549 142.777 312.845 139.393 310.365 137.706C309.965 137.433 307.079 135.891 303.953 134.278C300.826 132.666 297.225 130.801 295.95 130.136C294.675 129.47 293.385 128.834 293.082 128.721C292.557 128.526 291.57 128.463 291.298 128.608ZM300.282 135.404C304.727 137.696 308.527 139.673 308.727 139.8C309.998 140.604 310.454 142.526 309.552 143.275C309.043 143.697 308.23 143.817 304.698 143.99C301.554 144.145 301.259 144.22 300.984 144.928C300.772 145.475 298.182 165.616 298.261 166.099C298.295 166.304 299.854 168.537 301.884 171.287L305.446 176.115L304.329 176.642C302.929 177.303 300.804 178.219 300.594 178.251C300.507 178.265 299.078 176.543 297.419 174.424C294.207 170.321 293.573 169.63 292.482 169.045C291.155 168.333 290.487 168.298 287.089 168.763L284.072 169.176L283.598 166.311L283.124 163.446L283.716 163.181C285.076 162.573 286.452 160.943 286.903 159.409C287.255 158.209 287.253 157.386 286.891 155.198L286.58 153.321L287.274 152.784C288.87 151.548 289.551 149.96 290.057 146.297C290.445 143.486 290.795 142.045 291.486 140.419C291.8 139.678 292.138 138.844 292.236 138.566L292.413 138.06L291.893 137.243C290.827 135.569 290.691 133.307 291.572 131.907C291.79 131.559 292.021 131.267 292.085 131.257C292.148 131.247 295.837 133.113 300.282 135.404ZM288.232 133.776C288.18 134.626 288.707 137.203 289.054 137.79L289.378 138.34L289.033 139.148C288.337 140.778 287.842 142.706 287.408 145.475C287.164 147.034 286.867 148.606 286.75 148.967C286.477 149.807 285.631 150.804 284.862 151.192C284.216 151.518 282.229 152.245 282.145 152.186C282.067 152.131 283.257 144.545 283.609 142.852C284.502 138.565 285.707 135.712 287.29 134.137C287.716 133.714 288.108 133.359 288.162 133.35C288.215 133.341 288.247 133.532 288.232 133.776ZM297.464 137.802C296.751 138.209 296.539 139.153 297.018 139.785C297.367 140.244 297.718 140.372 298.359 140.273C299.038 140.168 299.546 139.491 299.437 138.836C299.302 138.015 298.149 137.412 297.464 137.802ZM258.485 152.923C259.607 152.927 260.909 153.28 262.028 153.884L262.906 154.358L262.028 154.723C259.2 155.898 257.087 158.144 256.223 160.891C255.75 162.397 255.666 163.468 255.865 165.467C256.179 168.62 255.626 169.682 252.787 171.38C252.18 171.743 251.678 172.013 251.673 171.979C251.667 171.945 251.627 170.38 251.583 168.501C251.399 160.635 251.785 158.373 253.761 155.739C254.993 154.096 255.842 153.467 257.537 152.941C257.573 152.929 258 152.921 258.485 152.923ZM267.785 158.698C268.181 160.723 268.337 161.29 268.623 161.74C269.149 162.567 270.054 163.485 270.773 163.921C271.398 164.301 273.274 164.934 273.617 164.881C273.752 164.86 273.896 165.495 274.276 167.793L274.762 170.732L274.019 171.063C273.045 171.498 272.191 172.33 271.601 173.42C271.338 173.906 270.403 176.36 269.522 178.875L267.921 183.447L267.316 183.459C266.772 183.469 262.707 183.076 262.503 182.993C262.457 182.974 263.097 180.857 263.926 178.288C265.421 173.652 265.43 173.614 265.186 173.155C265.01 172.825 264.694 172.568 264.094 172.265C262.787 171.606 262.098 171.133 261.324 170.365C259.781 168.833 258.934 167.256 258.614 165.319C257.851 160.705 260.878 157.077 266.078 156.374L267.299 156.209L267.785 158.698ZM272.385 155.96C275.254 156.013 277.548 155.821 280.32 155.295C281.651 155.042 283.023 154.753 283.369 154.652L283.997 154.469L284.246 155.975C284.543 157.772 284.467 158.607 283.925 159.468C283.712 159.807 283.248 160.286 282.892 160.533L282.246 160.982L278.173 161.612C273.548 162.327 273.224 162.326 272.132 161.58C271.038 160.832 270.846 160.43 270.449 158.05C270.179 156.435 270.142 155.972 270.279 155.951C270.376 155.936 271.324 155.94 272.385 155.96ZM280.904 166.79L281.372 169.619L279.412 169.922L277.451 170.225L276.983 167.397L276.515 164.568L278.476 164.264L280.436 163.961L280.904 166.79ZM290.327 171.139C290.859 171.207 291.212 171.361 291.641 171.712C292.195 172.165 297.588 178.882 297.65 179.196C297.667 179.286 296.963 179.569 295.866 179.913C288.434 182.247 280.236 183.538 272.385 183.61C271.548 183.618 270.836 183.608 270.805 183.589C270.67 183.507 273.787 175.025 274.171 174.429C274.874 173.338 274.83 173.35 282.697 172.123C288.508 171.216 289.715 171.06 290.327 171.139ZM284.175 189.147C283.723 189.755 283.828 190.395 284.461 190.896C284.844 191.199 285.021 191.247 285.492 191.175C285.962 191.102 286.116 191.003 286.382 190.599C286.74 190.056 286.723 189.618 286.325 189.092C285.784 188.38 284.726 188.407 284.175 189.147Z" fill="#8A86B2"/>
<path fill-rule="evenodd" clip-rule="evenodd" d="M952.623 141.979C954.218 149.864 961.282 160.029 971.906 169.726L974.439 172.039L974.703 177.604L974.967 183.17L975.481 183.613C976.072 184.122 998.15 199.315 998.622 199.537C999.179 199.799 999.66 199.684 1000.15 199.172C1000.42 198.895 1000.61 198.55 1000.6 198.365C1000.59 198.187 999.236 194.578 997.584 190.345C994.602 182.701 994.584 182.647 994.849 182.37C995.113 182.093 995.121 182.096 995.969 182.82C997.202 183.871 997.608 184.029 998.958 183.982C1000.35 183.934 1000.84 183.702 1002.05 182.516L1002.92 181.664L1005.6 184.045C1007.14 185.422 1008.53 186.543 1008.89 186.704C1010.21 187.295 1012 186.89 1013.02 185.77C1013.69 185.041 1013.96 184.288 1013.92 183.286C1013.87 181.939 1013.62 181.618 1010.63 178.928L1007.9 176.467L1008.7 175.562C1009.83 174.302 1010.03 173.812 1009.97 172.467C1009.92 171.161 1009.72 170.782 1008.54 169.675C1007.73 168.914 1007.73 168.907 1007.99 168.63C1008.26 168.353 1008.32 168.367 1016.43 170.648C1020.92 171.912 1024.75 172.94 1024.93 172.933C1025.12 172.926 1025.46 172.713 1025.73 172.437C1026.22 171.923 1026.3 171.451 1025.98 170.931C1025.64 170.364 1007.86 149.873 1007.48 149.608C1007.11 149.346 1006.94 149.344 1001.43 149.552L995.757 149.765L993.396 147.689C988.273 143.185 984.016 140.056 979.071 137.16C970.312 132.032 962.665 129.968 957.728 131.4C953.458 132.638 951.538 136.615 952.623 141.979ZM955.261 137.776C955.937 134.03 959.446 132.834 965.527 134.277L966.856 134.592L966.792 135.219C966.469 138.398 964.769 141.343 962.185 143.199C960.842 144.165 958.94 144.945 957.202 145.243L956.561 145.353L956.136 144.097C955.764 142.995 955.517 142.062 955.283 140.868C955.131 140.095 955.12 138.559 955.261 137.776ZM959.848 147.396C964.892 145.856 968.832 141.292 969.526 136.186C969.565 135.902 969.658 135.667 969.734 135.664C969.94 135.656 972.801 136.931 974.429 137.757C985.106 143.169 997.217 153.755 1004.19 163.774C1006.02 166.395 1006.13 166.601 1005.87 166.848C1005.65 167.053 1005.51 166.957 1004.03 165.612C1002.22 163.982 1001.71 163.703 1000.99 163.963C1000.41 164.173 1000.09 164.659 1000.12 165.315C1000.14 165.778 1000.29 165.958 1001.94 167.447L1003.73 169.072L1002.79 170.067L1001.85 171.062L995.446 165.348C990.897 161.286 988.881 159.573 988.472 159.421C988.138 159.298 987.509 159.219 986.976 159.234C984.97 159.289 983.479 160.851 983.539 162.834C983.586 164.363 983.421 164.18 990.422 170.464L996.875 176.257L995.925 177.243L994.974 178.23L993.158 176.624C991.495 175.154 991.298 175.02 990.819 175.038C990.14 175.064 989.664 175.401 989.493 175.979C989.28 176.693 989.608 177.168 991.429 178.779C992.928 180.105 993.04 180.239 992.848 180.461C992.652 180.687 992.56 180.663 991.455 180.099C982.671 175.611 973.374 168.194 966.169 159.926C963.249 156.575 961.003 153.496 959.017 150.119L957.755 147.973L958.276 147.845C958.563 147.774 959.27 147.573 959.848 147.396ZM967.955 152.73C968.265 154.863 969.776 156.918 971.753 157.892C975.843 159.908 980.85 157.593 981.839 153.23C982.647 149.669 980.322 146.116 976.568 145.176C975.593 144.932 973.778 145.011 972.754 145.341C969.564 146.371 967.495 149.557 967.955 152.73ZM971.043 150.283C971.609 148.87 973.084 147.851 974.672 147.775C975.811 147.721 976.526 147.912 977.386 148.501C978.843 149.497 979.498 151.335 978.995 153.015C978.698 154.006 977.537 155.242 976.562 155.604C973.065 156.903 969.692 153.652 971.043 150.283ZM977.469 174.444C977.517 174.442 978.289 174.987 979.183 175.654C982.607 178.21 986.429 180.607 989.891 182.37L991.845 183.364L994.009 188.911C995.199 191.962 996.116 194.441 996.047 194.42C995.977 194.399 991.816 191.556 986.799 188.103L977.677 181.824L977.529 178.135C977.448 176.107 977.42 174.445 977.469 174.444ZM986.897 174.627C988.044 175.653 989.794 174.368 989.027 173.062C988.281 171.79 986.367 172.296 986.426 173.749C986.44 174.095 986.566 174.331 986.897 174.627ZM986.603 162.227C986.852 161.967 987.032 161.89 987.265 161.947C987.441 161.99 992.87 166.748 999.33 172.521C1011.72 183.596 1011.49 183.36 1010.9 183.977C1010.31 184.593 1010.56 184.799 998.236 173.783C991.809 168.039 986.492 163.219 986.419 163.071C986.22 162.667 986.232 162.615 986.603 162.227ZM998.051 179.015L998.937 178.097L999.851 178.915L1000.77 179.733L1000.03 180.517C999.092 181.505 998.754 181.547 997.834 180.789C997.473 180.491 997.175 180.177 997.171 180.09C997.168 180.003 997.564 179.519 998.051 179.015ZM997.333 163.229C998.113 164.364 999.919 163.816 999.865 162.461C999.806 160.995 997.607 160.685 997.166 162.08C996.985 162.654 996.998 162.741 997.333 163.229ZM1002.31 152.292L1006.16 152.184L1013.4 160.548C1017.38 165.149 1020.63 168.927 1020.62 168.945C1020.6 168.963 1017.94 168.232 1014.7 167.321L1008.8 165.665L1007.71 163.988C1005.64 160.805 1002.48 156.824 999.684 153.867C999.03 153.175 998.489 152.562 998.481 152.505C998.474 152.448 1000.2 152.352 1002.31 152.292ZM1004.81 171.945C1005.28 171.454 1005.73 171.05 1005.82 171.047C1005.91 171.043 1006.26 171.306 1006.59 171.632C1007.45 172.459 1007.43 172.788 1006.49 173.764L1005.74 174.537L1004.86 173.756C1004.37 173.327 1003.97 172.945 1003.97 172.906C1003.97 172.869 1004.35 172.436 1004.81 171.945Z" fill="#8A86B2"/>
<g clip-path="url(#clip0_1_3213)">
<path d="M825.132 206.048L821.276 203.205L822.851 197.344C822.931 197.045 822.912 196.729 822.799 196.446C822.685 196.162 822.482 195.928 822.222 195.779C803.165 184.856 792.242 189.24 788.519 191.537C786.45 187.69 779.194 178.441 757.206 178.404C756.906 178.403 756.613 178.505 756.372 178.693C756.131 178.882 755.957 179.147 755.877 179.445L754.302 185.306L749.538 185.845C749.266 185.878 749.008 185.995 748.8 186.18C748.591 186.366 748.44 186.611 748.368 186.883L735.432 235.034C735.367 235.276 735.366 235.531 735.43 235.771C735.494 236.011 735.619 236.228 735.794 236.399C735.957 236.556 736.156 236.67 736.373 236.729C736.624 236.795 736.889 236.786 737.138 236.703C755.591 230.389 774.76 240.763 774.952 240.863C774.97 240.868 774.987 240.873 775.006 240.878C775.033 240.891 775.061 240.902 775.09 240.912C775.186 240.974 775.3 241.005 775.414 240.998C775.444 241.005 775.474 241.009 775.505 241.011C775.521 241.015 775.54 241.02 775.559 241.025C775.78 241.031 797.579 241.608 810.392 256.28C810.566 256.476 810.791 256.616 811.041 256.684C811.259 256.741 811.488 256.742 811.708 256.687C811.945 256.626 812.163 256.501 812.338 256.325C812.514 256.148 812.641 255.928 812.706 255.686L825.642 207.535C825.715 207.26 825.705 206.971 825.614 206.705C825.523 206.439 825.355 206.21 825.132 206.048ZM819.964 197.702L808.345 240.951C792.436 232.296 782.444 234.49 777.788 236.674L789.142 194.412C790.902 193.098 800.725 187.037 819.964 197.702ZM758.198 181.195C780.053 181.552 785.645 191.707 786.537 193.725L775.186 235.979C773.078 232.965 768.606 228.584 759.584 226.173C756.009 225.217 751.716 224.573 746.579 224.444L758.198 181.195ZM738.667 233.347L750.714 188.504L753.528 188.186L743.513 225.465C743.458 225.67 743.449 225.885 743.487 226.093C743.525 226.3 743.609 226.495 743.732 226.663C743.855 226.831 744.014 226.967 744.197 227.06C744.38 227.154 744.583 227.202 744.788 227.202C761.081 227.232 768.62 232.601 771.943 236.398C765.371 233.685 752.227 229.619 738.667 233.347ZM810.733 252.606C800.823 242.581 787.338 239.563 780.318 238.648C785.042 236.985 794.243 236.051 808.514 244.233C808.693 244.337 808.893 244.396 809.099 244.406C809.304 244.416 809.511 244.377 809.701 244.292C809.891 244.208 810.061 244.081 810.198 243.92C810.335 243.759 810.434 243.569 810.49 243.364L820.505 206.086L822.782 207.764L810.733 252.606Z" fill="#8A86B2"/>
</g>
<defs>
<clipPath id="clip0_1_3213">
<rect width="79.986" height="79.805" fill="white" transform="matrix(0.966095 0.258188 -0.259451 0.965756 753.705 167.016)"/>
</clipPath>
</defs>
</svg>
