<svg width="524" height="580" viewBox="0 0 524 580" fill="none" xmlns="http://www.w3.org/2000/svg">
<g opacity="0.8">
<path d="M131.884 336.679L401.272 489.783L183.388 561.792L-86 408.688L131.884 336.679Z" stroke="#8F9294" stroke-width="0.8412" stroke-miterlimit="10" stroke-linecap="round" stroke-linejoin="round"/>
<path d="M131.884 336.679L401.272 489.783L183.388 561.792L-86 408.688L131.884 336.679Z" stroke="#8F9294" stroke-width="0.8412" stroke-miterlimit="10" stroke-linecap="round" stroke-linejoin="round"/>
<path d="M214.771 19.3738L484.118 172.478L266.274 244.486L-3.11328 91.3824L214.771 19.3738Z" stroke="#8F9294" stroke-width="0.8412" stroke-miterlimit="10" stroke-linecap="round" stroke-linejoin="round"/>
<path d="M214.771 19.3738L484.118 172.478L266.274 244.486L-3.11328 91.3824L214.771 19.3738Z" stroke="#8F9294" stroke-width="0.8412" stroke-miterlimit="10" stroke-linecap="round" stroke-linejoin="round"/>
<path d="M214.775 19.3738L484.123 172.478L401.275 489.782L131.887 336.678L214.775 19.3738Z" stroke="#8F9294" stroke-width="0.8412" stroke-miterlimit="10" stroke-linecap="round" stroke-linejoin="round"/>
<path d="M214.775 19.3738L484.123 172.478L401.275 489.782L131.887 336.678L214.775 19.3738Z" stroke="#8F9294" stroke-width="0.8412" stroke-miterlimit="10" stroke-linecap="round" stroke-linejoin="round"/>
<path d="M266.276 244.484L183.388 561.789L-86 408.685L-3.11144 91.3806L266.276 244.484Z" stroke="#8F9294" stroke-width="0.8412" stroke-miterlimit="10" stroke-linecap="round" stroke-linejoin="round"/>
<path d="M266.276 244.484L183.388 561.789L-86 408.685L-3.11144 91.3806L266.276 244.484Z" stroke="#8F9294" stroke-width="0.8412" stroke-miterlimit="10" stroke-linecap="round" stroke-linejoin="round"/>
<path d="M-3.11148 91.3839L214.773 19.3752L131.884 336.68L-86 408.688L-3.11148 91.3839Z" stroke="#8F9294" stroke-width="0.8412" stroke-miterlimit="10" stroke-linecap="round" stroke-linejoin="round"/>
<path d="M-3.11148 91.3839L214.773 19.3752L131.884 336.68L-86 408.688L-3.11148 91.3839Z" stroke="#8F9294" stroke-width="0.8412" stroke-miterlimit="10" stroke-linecap="round" stroke-linejoin="round"/>
<path d="M484.119 172.481L401.271 489.785L183.387 561.794L266.275 244.489L484.119 172.481Z" stroke="#FAFF00" stroke-width="0.8412" stroke-miterlimit="10" stroke-linecap="round" stroke-linejoin="round"/>
<path d="M484.119 172.481L401.271 489.785L183.387 561.794L266.275 244.489L484.119 172.481Z" stroke="#FAFF00" stroke-width="0.8412" stroke-miterlimit="10" stroke-linecap="round" stroke-linejoin="round"/>
<path d="M234.332 19.0577C234.332 29.5917 225.802 38.1153 215.26 38.1153C204.718 38.1153 196.188 29.5917 196.188 19.0577C196.188 8.52375 204.718 0 215.26 0C225.802 0 234.332 8.52375 234.332 19.0577Z" fill="#3E1BDB"/>
<path opacity="0.57" d="M524.001 229.971L449.563 514.87L253.93 579.561L328.368 294.622L524.001 229.971Z" fill="#323247"/>
</g>
</svg>
