<svg width="611" height="580" viewBox="0 0 611 580" fill="none" xmlns="http://www.w3.org/2000/svg">
<g opacity="0.8">
<path d="M218.884 336.679L488.272 489.783L270.388 561.792L1 408.688L218.884 336.679Z" stroke="#8F9294" stroke-width="0.8412" stroke-miterlimit="10" stroke-linecap="round" stroke-linejoin="round"/>
<path d="M218.884 336.679L488.272 489.783L270.388 561.792L1 408.688L218.884 336.679Z" stroke="#8F9294" stroke-width="0.8412" stroke-miterlimit="10" stroke-linecap="round" stroke-linejoin="round"/>
<path d="M301.771 19.3738L571.118 172.478L353.274 244.486L83.8867 91.3824L301.771 19.3738Z" stroke="#8F9294" stroke-width="0.8412" stroke-miterlimit="10" stroke-linecap="round" stroke-linejoin="round"/>
<path d="M301.771 19.3738L571.118 172.478L353.274 244.486L83.8867 91.3824L301.771 19.3738Z" stroke="#8F9294" stroke-width="0.8412" stroke-miterlimit="10" stroke-linecap="round" stroke-linejoin="round"/>
<path d="M301.775 19.3738L571.123 172.478L488.275 489.782L218.887 336.678L301.775 19.3738Z" stroke="#8F9294" stroke-width="0.8412" stroke-miterlimit="10" stroke-linecap="round" stroke-linejoin="round"/>
<path d="M301.775 19.3738L571.123 172.478L488.275 489.782L218.887 336.678L301.775 19.3738Z" stroke="#8F9294" stroke-width="0.8412" stroke-miterlimit="10" stroke-linecap="round" stroke-linejoin="round"/>
<path d="M353.276 244.484L270.388 561.789L1 408.685L83.8886 91.3806L353.276 244.484Z" stroke="#8F9294" stroke-width="0.8412" stroke-miterlimit="10" stroke-linecap="round" stroke-linejoin="round"/>
<path d="M353.276 244.484L270.388 561.789L1 408.685L83.8886 91.3806L353.276 244.484Z" stroke="#8F9294" stroke-width="0.8412" stroke-miterlimit="10" stroke-linecap="round" stroke-linejoin="round"/>
<path d="M83.8885 91.3839L301.773 19.3752L218.884 336.68L1 408.688L83.8885 91.3839Z" stroke="#8F9294" stroke-width="0.8412" stroke-miterlimit="10" stroke-linecap="round" stroke-linejoin="round"/>
<path d="M83.8885 91.3839L301.773 19.3752L218.884 336.68L1 408.688L83.8885 91.3839Z" stroke="#8F9294" stroke-width="0.8412" stroke-miterlimit="10" stroke-linecap="round" stroke-linejoin="round"/>
<path d="M571.119 172.481L488.271 489.785L270.387 561.794L353.275 244.489L571.119 172.481Z" stroke="#FAFF00" stroke-width="0.8412" stroke-miterlimit="10" stroke-linecap="round" stroke-linejoin="round"/>
<path d="M571.119 172.481L488.271 489.785L270.387 561.794L353.275 244.489L571.119 172.481Z" stroke="#FAFF00" stroke-width="0.8412" stroke-miterlimit="10" stroke-linecap="round" stroke-linejoin="round"/>
<path d="M321.332 19.0577C321.332 29.5917 312.802 38.1153 302.26 38.1153C291.718 38.1153 283.188 29.5917 283.188 19.0577C283.188 8.52375 291.718 0 302.26 0C312.802 0 321.332 8.52375 321.332 19.0577Z" fill="#3E1BDB"/>
<path opacity="0.57" d="M611.001 229.971L536.563 514.87L340.93 579.561L415.368 294.622L611.001 229.971Z" fill="#323247"/>
</g>
</svg>
