<svg width="348" height="476" viewBox="0 0 348 476" fill="none" xmlns="http://www.w3.org/2000/svg">
<g opacity="0.8">
<path d="M179.952 276.519L401.203 402.264L222.252 461.406L1.00098 335.66L179.952 276.519Z" stroke="#8F9294" stroke-width="0.8412" stroke-miterlimit="10" stroke-linecap="round" stroke-linejoin="round"/>
<path d="M179.952 276.519L401.203 402.264L222.252 461.406L1.00098 335.66L179.952 276.519Z" stroke="#8F9294" stroke-width="0.8412" stroke-miterlimit="10" stroke-linecap="round" stroke-linejoin="round"/>
<path d="M248.027 15.9121L469.245 141.658L290.327 200.8L69.0762 75.0537L248.027 15.9121Z" stroke="#8F9294" stroke-width="0.8412" stroke-miterlimit="10" stroke-linecap="round" stroke-linejoin="round"/>
<path d="M248.027 15.9121L469.245 141.658L290.327 200.8L69.0762 75.0537L248.027 15.9121Z" stroke="#8F9294" stroke-width="0.8412" stroke-miterlimit="10" stroke-linecap="round" stroke-linejoin="round"/>
<path d="M248.031 15.9121L469.249 141.658L401.205 402.264L179.954 276.518L248.031 15.9121Z" stroke="#8F9294" stroke-width="0.8412" stroke-miterlimit="10" stroke-linecap="round" stroke-linejoin="round"/>
<path d="M248.031 15.9121L469.249 141.658L401.205 402.264L179.954 276.518L248.031 15.9121Z" stroke="#8F9294" stroke-width="0.8412" stroke-miterlimit="10" stroke-linecap="round" stroke-linejoin="round"/>
<path d="M290.329 200.798L222.252 461.404L1.00098 335.658L69.0783 75.052L290.329 200.798Z" stroke="#8F9294" stroke-width="0.8412" stroke-miterlimit="10" stroke-linecap="round" stroke-linejoin="round"/>
<path d="M290.329 200.798L222.252 461.404L1.00098 335.658L69.0783 75.052L290.329 200.798Z" stroke="#8F9294" stroke-width="0.8412" stroke-miterlimit="10" stroke-linecap="round" stroke-linejoin="round"/>
<path d="M69.0773 75.0546L248.028 15.9131L179.951 276.519L1 335.66L69.0773 75.0546Z" stroke="#8F9294" stroke-width="0.8412" stroke-miterlimit="10" stroke-linecap="round" stroke-linejoin="round"/>
<path d="M69.0773 75.0546L248.028 15.9131L179.951 276.519L1 335.66L69.0773 75.0546Z" stroke="#8F9294" stroke-width="0.8412" stroke-miterlimit="10" stroke-linecap="round" stroke-linejoin="round"/>
<path d="M469.245 141.66L401.2 402.266L222.25 461.408L290.327 200.802L469.245 141.66Z" stroke="#FAFF00" stroke-width="0.8412" stroke-miterlimit="10" stroke-linecap="round" stroke-linejoin="round"/>
<path d="M469.245 141.66L401.2 402.266L222.25 461.408L290.327 200.802L469.245 141.66Z" stroke="#FAFF00" stroke-width="0.8412" stroke-miterlimit="10" stroke-linecap="round" stroke-linejoin="round"/>
<path d="M264.091 15.6523C264.091 24.304 257.085 31.3045 248.427 31.3045C239.769 31.3045 232.763 24.304 232.763 15.6523C232.763 7.00065 239.769 0 248.427 0C257.085 0 264.091 7.00065 264.091 15.6523Z" fill="#6549E2"/>
<path opacity="0.57" d="M502 188.878L440.863 422.868L280.187 476L341.324 241.977L502 188.878Z" fill="#323247"/>
</g>
</svg>
