<svg width="611" height="580" viewBox="0 0 611 580" fill="none" xmlns="http://www.w3.org/2000/svg">
<g opacity="0.8">
<path d="M218.885 336.679L488.273 489.783L270.389 561.792L1.00098 408.688L218.885 336.679Z" stroke="#8F9294" stroke-width="0.8412" stroke-miterlimit="10" stroke-linecap="round" stroke-linejoin="round"/>
<path d="M218.885 336.679L488.273 489.783L270.389 561.792L1.00098 408.688L218.885 336.679Z" stroke="#8F9294" stroke-width="0.8412" stroke-miterlimit="10" stroke-linecap="round" stroke-linejoin="round"/>
<path d="M301.771 19.3738L571.118 172.478L353.274 244.486L83.8867 91.3824L301.771 19.3738Z" stroke="#8F9294" stroke-width="0.8412" stroke-miterlimit="10" stroke-linecap="round" stroke-linejoin="round"/>
<path d="M301.771 19.3738L571.118 172.478L353.274 244.486L83.8867 91.3824L301.771 19.3738Z" stroke="#8F9294" stroke-width="0.8412" stroke-miterlimit="10" stroke-linecap="round" stroke-linejoin="round"/>
<path d="M301.776 19.3738L571.124 172.478L488.276 489.782L218.888 336.678L301.776 19.3738Z" stroke="#8F9294" stroke-width="0.8412" stroke-miterlimit="10" stroke-linecap="round" stroke-linejoin="round"/>
<path d="M301.776 19.3738L571.124 172.478L488.276 489.782L218.888 336.678L301.776 19.3738Z" stroke="#8F9294" stroke-width="0.8412" stroke-miterlimit="10" stroke-linecap="round" stroke-linejoin="round"/>
<path d="M353.277 244.484L270.389 561.789L1.00098 408.685L83.8895 91.3806L353.277 244.484Z" stroke="#8F9294" stroke-width="0.8412" stroke-miterlimit="10" stroke-linecap="round" stroke-linejoin="round"/>
<path d="M353.277 244.484L270.389 561.789L1.00098 408.685L83.8895 91.3806L353.277 244.484Z" stroke="#8F9294" stroke-width="0.8412" stroke-miterlimit="10" stroke-linecap="round" stroke-linejoin="round"/>
<path d="M83.8885 91.3839L301.773 19.3752L218.884 336.68L1 408.688L83.8885 91.3839Z" stroke="#8F9294" stroke-width="0.8412" stroke-miterlimit="10" stroke-linecap="round" stroke-linejoin="round"/>
<path d="M83.8885 91.3839L301.773 19.3752L218.884 336.68L1 408.688L83.8885 91.3839Z" stroke="#8F9294" stroke-width="0.8412" stroke-miterlimit="10" stroke-linecap="round" stroke-linejoin="round"/>
<path d="M571.118 172.481L488.27 489.785L270.386 561.794L353.274 244.489L571.118 172.481Z" stroke="#FAFF00" stroke-width="0.8412" stroke-miterlimit="10" stroke-linecap="round" stroke-linejoin="round"/>
<path d="M571.118 172.481L488.27 489.785L270.386 561.794L353.274 244.489L571.118 172.481Z" stroke="#FAFF00" stroke-width="0.8412" stroke-miterlimit="10" stroke-linecap="round" stroke-linejoin="round"/>
<path d="M321.331 19.0577C321.331 29.5917 312.8 38.1153 302.258 38.1153C291.716 38.1153 283.186 29.5917 283.186 19.0577C283.186 8.52375 291.716 0 302.258 0C312.8 0 321.331 8.52375 321.331 19.0577Z" fill="#3E1BDB"/>
<path opacity="0.57" d="M611 229.971L536.561 514.87L340.928 579.561L415.367 294.622L611 229.971Z" fill="#323247"/>
</g>
</svg>
