<svg width="1268" height="428" viewBox="0 0 1268 428" fill="none" xmlns="http://www.w3.org/2000/svg">
<path opacity="0.03" d="M79.2939 129.579C79.2939 129.579 109.165 135.656 130.635 119.331C152.105 103.006 155.744 88.2529 159.428 65.2256C163.112 42.1982 148.691 20.5189 125.012 12.2921C101.333 4.06544 92.9472 20.3664 65.0145 23.8075C37.0818 27.2486 28.2072 24.3291 9.92071 41.0467C-8.36579 57.7643 -0.581808 78.4344 26.7692 101.932C54.1202 125.431 79.2939 129.579 79.2939 129.579Z" fill="#3E1BDB"/>
<path opacity="0.03" d="M189.535 176.223C183.628 170.62 176.786 166.008 169.291 162.578C158.128 157.563 145.82 155.149 133.534 155.003C97.5972 154.586 94.861 195.133 83.8106 200.779C72.7601 206.424 52.7421 207.082 52.036 229.631C51.6018 243.814 55.0511 258.401 64.7458 269.452C73.625 279.573 86.6667 284.71 99.5178 288.491C113.95 292.75 129.255 296.924 144.436 294.052C160.016 291.105 170.961 279.258 183.752 271.252C191.809 266.21 199.039 260.904 204.014 252.813C204.607 251.85 205.165 250.86 205.694 249.86C212.353 237.294 213.659 222.795 209.987 209.194C206.697 196.978 199.258 185.357 189.535 176.223Z" fill="#3E1BDB"/>
<path opacity="0.03" d="M1171.71 191.492C1159.94 174.627 1135.27 178.861 1126.08 188.065C1105.4 208.785 1108.04 230.386 1097.29 234.834C1084.19 240.237 1072.15 206.388 1052.05 206.528C1038.92 206.619 1030.34 216.412 1027.88 239.027C1024.47 270.549 1031.35 295.177 1041.82 304.682C1063.2 324.084 1098.2 320.575 1117.06 317.861C1132.64 315.625 1155.6 320.46 1176.15 289.56C1188.28 271.319 1194.41 224.011 1171.71 191.492Z" fill="#3E1BDB"/>
<path opacity="0.03" d="M371.264 383.744C367.145 376.119 365.213 368.74 367.48 360.295C369.882 351.397 374.504 341.938 373.066 332.529C370.897 318.53 360.554 304.413 347.217 295.937C334.365 287.783 318.73 284.833 304.937 292.272C293.575 298.406 286.425 311.3 272.647 313.112C256.555 315.25 250.038 304.241 232.21 311.431C225.2 314.258 219.176 319.395 216.384 326.381C213.256 334.291 215.955 340.203 219.293 347.574C222.886 355.572 224.576 364.257 224.236 372.98C223.943 380.709 220.717 387.93 220.703 395.632C220.675 409.223 229.189 422.732 243.047 426.438C260.423 431.086 277.371 405.716 296.489 404.026C306.46 403.143 311.715 410.958 318.218 416.743C326.01 423.679 336.325 428.431 347.045 427.969C369.952 426.995 381.454 402.59 371.264 383.744Z" fill="#3E1BDB"/>
<path opacity="0.03" d="M1260.01 107.332C1269.59 89.2111 1270.25 65.0651 1263.62 45.708C1257.93 29.0433 1245.25 16.3256 1230.61 8.75931C1213.63 -0.0207436 1193.39 -2.63427 1175.15 2.90804C1170.36 4.36455 1165.69 5.70126 1161.17 8.09726C1142.63 17.9145 1146.22 42.1077 1139.71 50.5252C1134.24 57.606 1123.78 55.519 1117.19 60.9447C1099.41 75.5949 1109.7 113.329 1128.78 126.872C1151 142.642 1236.28 152.204 1260.01 107.332Z" fill="#3E1BDB"/>
<path opacity="0.03" d="M956.369 316.008C955.244 314.394 954.006 312.844 952.662 311.368C941.685 299.34 927.334 294.249 910.94 290.839C894.007 287.317 874.181 286.223 857.923 292.571C854.096 294.083 850.46 296.078 847.584 298.799C836.706 309.049 832.974 326.217 820.861 339.787C808.748 353.357 802.84 370.262 813.714 386.308C818.317 393.103 824.186 398.702 831.129 403.629C839.677 409.675 847.051 417.856 856.932 422.586C867.315 427.556 881.144 429.288 892.637 427.012C905.747 424.415 913.436 414.089 923.443 407.06C931.333 401.51 940.773 397.877 948.503 392.151C960.348 383.384 969.33 369.279 967.838 355.304C966.372 341.737 964.486 327.638 956.369 316.008Z" fill="#3E1BDB"/>
<path d="M1231.51 12.1058L1242.67 38.7062C1242.67 38.7062 1216.23 72.2283 1167.44 72.7446L1164.76 42.3403C1164.76 42.3403 1184.13 43.5397 1200.36 36.3534C1216.58 29.1671 1231.51 12.1058 1231.51 12.1058Z" stroke="#8A86B2" stroke-width="1.5" stroke-miterlimit="10"/>
<path d="M1232.59 39.2246C1232.53 38.5317 1232.66 37.8491 1232.94 37.2679C1233.23 36.6868 1233.66 36.235 1234.19 35.973L1228.31 24.3066C1227.81 24.6198 1227.26 24.8307 1226.69 24.931C1225.71 25.1233 1224.69 24.9364 1223.77 24.3971C1219.15 28.6012 1210.4 36.0518 1201.09 40.1949C1192.56 43.675 1183.59 45.7123 1174.44 46.2497C1174.17 46.7591 1173.81 47.1815 1173.37 47.485C1172.93 47.7885 1172.44 47.965 1171.92 48.0013L1173.64 65C1173.96 64.945 1174.28 64.8877 1174.61 64.8304C1177.21 64.372 1179.41 64.9514 1179.62 66.1098C1179.63 66.2985 1179.61 66.4865 1179.56 66.6588C1179.5 66.831 1179.41 66.983 1179.3 67.1025C1209.66 63.1695 1228.53 46.9131 1234.15 41.4023C1233.77 41.2107 1233.42 40.9114 1233.15 40.5313C1232.88 40.1512 1232.69 39.7022 1232.59 39.2246V39.2246ZM1204.33 53.2307C1199.92 55.1535 1195.73 54.9248 1194.95 52.7214C1194.17 50.5181 1197.11 47.1915 1201.51 45.2687C1205.92 43.3459 1210.12 43.5746 1210.89 45.778C1211.67 47.9813 1208.73 51.3079 1204.33 53.2307Z" stroke="#8A86B2" stroke-width="1.5" stroke-miterlimit="10"/>
<g clip-path="url(#clip0_1_3863)">
<path d="M884.68 358.414C884.589 358.614 884.629 358.806 884.629 358.992C884.627 363.208 884.622 367.425 884.637 371.642C884.638 372.033 884.577 372.18 884.119 372.204C881.934 372.324 879.762 372.577 877.605 372.946C877.01 373.049 877.01 373.046 877.01 372.45C877.009 362.134 877.011 351.818 877 341.502C877 341.114 877.082 340.993 877.508 340.998C879.591 341.022 881.675 341.021 883.759 340.998C884.165 340.993 884.363 341.106 884.534 341.467C886.702 346.04 888.89 350.603 891.074 355.168C891.129 355.281 891.148 355.42 891.313 355.503C891.431 355.349 891.376 355.173 891.376 355.016C891.38 350.507 891.385 345.999 891.369 341.49C891.367 341.08 891.488 340.997 891.89 341C894.124 341.02 896.36 341.015 898.595 341.001C898.899 341 899.001 341.058 899 341.38C898.99 351.798 898.988 362.215 899.001 372.634C899.001 373.007 898.883 373.03 898.566 372.975C896.277 372.573 893.97 372.314 891.648 372.187C891.364 372.171 891.303 372.007 891.215 371.823C889.676 368.608 888.138 365.393 886.598 362.178C886.034 361.001 885.468 359.824 884.899 358.65C884.857 358.566 884.85 358.448 884.68 358.414ZM881.304 342.869C880.805 342.869 880.307 342.876 879.809 342.865C879.558 342.859 879.482 342.903 879.606 343.154C879.893 343.732 880.149 344.325 880.427 344.906C882.55 349.341 884.677 353.772 886.799 358.205C888.66 362.096 890.521 365.987 892.367 369.884C892.532 370.232 892.719 370.39 893.131 370.412C894.005 370.457 894.873 370.575 895.745 370.653C895.934 370.669 896.182 370.835 896.296 370.674C896.416 370.505 896.213 370.296 896.127 370.116C893.864 365.392 891.594 360.67 889.334 355.945C887.327 351.749 885.325 347.551 883.339 343.347C883.16 342.969 882.948 342.822 882.527 342.86C882.122 342.897 881.712 342.868 881.304 342.869ZM896.959 367.452C896.989 367.45 897.019 367.448 897.049 367.445C897.058 367.379 897.076 367.312 897.076 367.246C897.077 365.889 897.077 364.532 897.077 363.175C897.077 356.551 897.074 349.927 897.084 343.303C897.085 342.972 897.017 342.848 896.643 342.86C895.692 342.888 894.74 342.894 893.79 342.857C893.346 342.84 893.244 342.969 893.245 343.385C893.26 348.725 893.255 354.065 893.251 359.405C893.251 359.632 893.309 359.831 893.407 360.034C893.862 360.972 894.307 361.913 894.757 362.853C895.49 364.386 896.225 365.919 896.959 367.452ZM879.027 346.379C878.991 346.386 878.956 346.392 878.921 346.399C878.921 346.538 878.921 346.677 878.921 346.816C878.921 349.631 878.921 352.448 878.921 355.263C878.921 360.268 878.918 365.273 878.923 370.277C878.923 370.895 878.802 370.888 879.536 370.771C880.461 370.622 881.391 370.519 882.323 370.453C882.654 370.429 882.748 370.328 882.747 370.006C882.736 364.841 882.738 359.676 882.741 354.511C882.741 354.256 882.69 354.026 882.577 353.796C882.075 352.767 881.584 351.733 881.09 350.701C880.401 349.26 879.714 347.819 879.027 346.379Z" fill="#8A86B2"/>
</g>
<path d="M888 316.998C865.946 316.998 848 334.938 848 356.998C848 379.052 865.946 396.998 888 396.998C910.054 396.998 928 379.052 928 356.998C928 334.938 910.06 316.998 888 316.998ZM890.485 318.973C909.519 320.2 924.786 335.46 926.025 354.488C926.088 355.432 925.333 356.237 924.389 356.237C923.528 356.237 922.817 355.57 922.76 354.715C921.634 337.309 907.67 323.351 890.258 322.238C889.403 322.181 888.736 321.47 888.736 320.609C888.73 319.665 889.535 318.917 890.485 318.973ZM860.216 356.998C860.216 341.675 872.683 329.208 888.006 329.208C903.329 329.208 915.797 341.675 915.797 356.998C915.797 372.321 903.329 384.789 888.006 384.789C872.677 384.789 860.216 372.321 860.216 356.998ZM865.279 378.366C864.6 379.046 863.487 379.002 862.87 378.272C858.002 372.529 855.058 365.106 855.058 357.004C855.058 349.003 857.926 341.662 862.688 335.951C863.304 335.215 864.424 335.164 865.103 335.844C865.701 336.441 865.745 337.391 865.204 338.039C860.914 343.185 858.329 349.802 858.329 357.011C858.329 364.314 860.983 371 865.374 376.171C865.915 376.806 865.877 377.762 865.279 378.366ZM910.45 376.378C914.948 371.176 917.678 364.402 917.678 356.998C917.678 349.689 915.017 342.99 910.614 337.813C910.066 337.165 910.104 336.209 910.702 335.605C911.381 334.925 912.494 334.969 913.111 335.699C917.992 341.448 920.949 348.884 920.949 356.998C920.949 365.213 917.923 372.73 912.928 378.511C912.306 379.234 911.199 379.272 910.526 378.599C909.928 377.989 909.89 377.026 910.45 376.378ZM909.274 331.862C910.003 332.478 910.047 333.598 909.368 334.271C908.771 334.869 907.808 334.913 907.16 334.366C901.983 329.975 895.297 327.32 888 327.32C880.596 327.32 873.822 330.05 868.62 334.548C867.972 335.108 867.003 335.07 866.399 334.466C865.726 333.793 865.764 332.686 866.487 332.063C872.262 327.069 879.779 324.043 888 324.043C896.102 324.049 903.531 326.993 909.274 331.862ZM885.075 319.005C886.025 318.929 886.843 319.684 886.843 320.64C886.843 321.489 886.188 322.2 885.339 322.269C868.123 323.578 854.372 337.454 853.246 354.721C853.189 355.576 852.479 356.243 851.617 356.243C850.667 356.243 849.919 355.438 849.981 354.495C851.214 335.611 866.254 320.445 885.075 319.005ZM885.081 394.985C866.38 393.564 851.422 378.593 850.013 359.898C849.944 358.948 850.692 358.13 851.648 358.13C852.504 358.13 853.215 358.784 853.278 359.634C854.567 376.737 868.248 390.425 885.345 391.72C886.195 391.783 886.849 392.494 886.849 393.35C886.843 394.306 886.031 395.061 885.081 394.985ZM866.707 382.109C865.978 381.492 865.934 380.379 866.613 379.7C867.211 379.102 868.173 379.058 868.821 379.612C873.998 384.015 880.697 386.676 888.006 386.676C895.215 386.676 901.826 384.09 906.978 379.8C907.626 379.259 908.576 379.303 909.173 379.901C909.852 380.58 909.808 381.7 909.066 382.316C903.355 387.078 896.014 389.947 888.013 389.947C879.886 389.947 872.45 386.996 866.707 382.109ZM890.478 395.017C889.535 395.08 888.73 394.325 888.73 393.381C888.73 392.519 889.396 391.809 890.252 391.752C907.538 390.645 921.427 376.869 922.729 359.634C922.792 358.784 923.502 358.13 924.358 358.13C925.314 358.13 926.069 358.942 925.993 359.898C924.565 378.744 909.381 393.796 890.478 395.017Z" fill="#8A86B2"/>
<mask id="path-11-inside-1_1_3863" fill="white">
<path fill-rule="evenodd" clip-rule="evenodd" d="M120.675 191.501L106.661 191.436L130.216 202.12L153.77 212.805L144.645 202.422C137.704 194.525 135.42 191.982 135.105 191.803C134.707 191.576 134.113 191.563 120.675 191.501ZM104.398 193.823C104.098 195.462 104.8 199.106 105.604 200.082L105.911 200.455L126.577 209.824L147.243 219.193L147.73 219.18C149.006 219.147 152.271 217.302 153.339 216.011L153.51 215.803L128.978 204.681L104.446 193.559L104.398 193.823ZM102.975 211.638L99.3533 219.396L103.713 221.372L108.072 223.349L111.694 215.591L115.316 207.834L110.956 205.858L106.597 203.881L102.975 211.638ZM117.443 218.198L113.821 225.955L118.133 227.91L122.445 229.864L126.066 222.107L129.688 214.35L125.377 212.395L121.065 210.441L117.443 218.198ZM131.815 224.714L128.194 232.471L132.553 234.447L136.913 236.424L140.534 228.667L144.156 220.909L139.797 218.933L135.437 216.956L131.815 224.714ZM94.9785 220.673C94.0844 220.626 90.9741 222.423 90.6135 223.195C90.4052 223.641 90.5065 224.283 90.8473 224.677C91.1431 225.019 91.2818 225.084 114.531 235.624C137.781 246.164 137.92 246.227 138.376 246.225C138.905 246.224 139.463 245.882 139.675 245.427C139.972 244.791 139.466 241.591 138.931 240.724L138.744 240.422L117.034 230.557C99.1496 222.43 95.2626 220.689 94.9785 220.673Z"/>
</mask>
<path d="M120.675 191.501L120.699 189.509L120.699 189.509L120.675 191.501ZM106.661 191.436L106.685 189.444L105.815 193.248L106.661 191.436ZM130.216 202.12L131.062 200.308L130.216 202.12ZM153.77 212.805L152.924 214.617L155.289 211.491L153.77 212.805ZM144.645 202.422L146.163 201.108L146.163 201.107L144.645 202.422ZM135.105 191.803L134.094 193.531L134.094 193.531L135.105 191.803ZM104.398 193.823L102.422 193.48L102.422 193.481L104.398 193.823ZM105.604 200.082L107.163 198.815L107.163 198.815L105.604 200.082ZM105.911 200.455L104.352 201.721L104.645 202.076L105.065 202.267L105.911 200.455ZM147.243 219.193L146.397 221.005L146.817 221.196L147.281 221.184L147.243 219.193ZM147.73 219.18L147.692 217.19L147.692 217.19L147.73 219.18ZM153.339 216.011L154.888 217.267L154.888 217.267L153.339 216.011ZM153.51 215.803L155.06 217.059L156.713 215.059L154.357 213.991L153.51 215.803ZM104.446 193.559L105.292 191.747L102.936 190.678L102.47 193.217L104.446 193.559ZM99.3533 219.396L97.5318 218.57L96.6857 220.382L98.5072 221.208L99.3533 219.396ZM108.072 223.349L107.226 225.161L109.048 225.987L109.894 224.174L108.072 223.349ZM115.316 207.834L117.138 208.66L117.984 206.848L116.162 206.022L115.316 207.834ZM106.597 203.881L107.443 202.069L105.621 201.243L104.775 203.056L106.597 203.881ZM113.821 225.955L112 225.129L111.154 226.941L112.975 227.767L113.821 225.955ZM122.445 229.864L121.599 231.677L123.42 232.502L124.266 230.69L122.445 229.864ZM129.688 214.35L131.51 215.176L132.356 213.364L130.534 212.538L129.688 214.35ZM121.065 210.441L121.911 208.628L120.089 207.803L119.243 209.615L121.065 210.441ZM128.193 232.471L126.372 231.645L125.526 233.457L127.347 234.283L128.193 232.471ZM136.913 236.424L136.067 238.236L137.888 239.062L138.734 237.25L136.913 236.424ZM144.156 220.909L145.978 221.735L146.824 219.923L145.002 219.097L144.156 220.909ZM135.437 216.956L136.283 215.144L134.462 214.318L133.616 216.131L135.437 216.956ZM94.9785 220.673L95.1004 218.685L95.1003 218.685L94.9785 220.673ZM90.8473 224.677L89.3187 225.98L89.3188 225.98L90.8473 224.677ZM138.376 246.225L138.367 248.217L138.367 248.217L138.376 246.225ZM138.931 240.724L140.646 239.676L140.646 239.676L138.931 240.724ZM138.744 240.422L140.459 239.373L140.143 238.861L139.592 238.61L138.744 240.422ZM117.034 230.557L116.186 232.368L116.186 232.368L117.034 230.557ZM120.699 189.509L106.685 189.444L106.637 193.427L120.651 193.492L120.699 189.509ZM105.815 193.248L129.369 203.932L131.062 200.308L107.508 189.624L105.815 193.248ZM129.369 203.932L152.924 214.617L154.617 210.993L131.062 200.308L129.369 203.932ZM155.289 211.491L146.163 201.108L143.127 203.737L152.252 214.12L155.289 211.491ZM146.163 201.107C142.693 197.16 140.381 194.542 138.894 192.888C138.153 192.062 137.606 191.465 137.22 191.058C137.029 190.856 136.863 190.685 136.724 190.552C136.652 190.483 136.407 190.241 136.115 190.074L134.094 193.531C133.881 193.409 133.777 193.286 133.917 193.421C133.991 193.492 134.109 193.612 134.284 193.797C134.632 194.164 135.15 194.729 135.886 195.549C137.356 197.185 139.656 199.787 143.127 203.737L146.163 201.107ZM136.116 190.074C135.685 189.829 135.269 189.738 134.799 189.688C134.382 189.644 133.771 189.618 132.837 189.599C130.938 189.559 127.408 189.54 120.699 189.509L120.651 193.492C127.381 193.524 130.866 193.542 132.723 193.581C133.667 193.601 134.119 193.625 134.344 193.649C134.518 193.667 134.326 193.663 134.094 193.531L136.116 190.074ZM102.422 193.481C102.204 194.67 102.362 196.283 102.614 197.588C102.747 198.277 102.922 198.969 103.134 199.58C103.326 200.138 103.612 200.823 104.045 201.349L107.163 198.815C107.194 198.852 107.091 198.717 106.935 198.265C106.797 197.867 106.665 197.362 106.56 196.813C106.334 195.643 106.291 194.615 106.374 194.165L102.422 193.481ZM104.045 201.348L104.352 201.721L107.471 199.188L107.163 198.815L104.045 201.348ZM105.065 202.267L125.731 211.636L127.423 208.012L106.758 198.643L105.065 202.267ZM125.731 211.636L146.397 221.005L148.089 217.381L127.423 208.012L125.731 211.636ZM147.281 221.184L147.769 221.171L147.692 217.19L147.205 217.202L147.281 221.184ZM147.768 221.171C148.455 221.153 149.169 220.921 149.724 220.703C150.333 220.463 150.98 220.145 151.597 219.796C152.767 219.135 154.113 218.203 154.888 217.267L151.79 214.755C151.496 215.109 150.676 215.746 149.627 216.339C149.136 216.617 148.66 216.847 148.265 217.003C147.815 217.18 147.644 217.191 147.692 217.19L147.768 221.171ZM154.888 217.267L155.06 217.059L151.961 214.547L151.789 214.755L154.888 217.267ZM154.357 213.991L129.824 202.869L128.132 206.493L152.664 217.615L154.357 213.991ZM129.824 202.869L105.292 191.747L103.6 195.371L128.132 206.493L129.824 202.869ZM102.47 193.217L102.422 193.48L106.374 194.165L106.422 193.901L102.47 193.217ZM101.154 210.813L97.5318 218.57L101.175 220.221L104.797 212.464L101.154 210.813ZM98.5072 221.208L102.867 223.184L104.559 219.56L100.199 217.583L98.5072 221.208ZM102.867 223.184L107.226 225.161L108.919 221.536L104.559 219.56L102.867 223.184ZM109.894 224.174L113.516 216.417L109.873 214.766L106.251 222.523L109.894 224.174ZM113.516 216.417L117.138 208.66L113.494 207.008L109.873 214.766L113.516 216.417ZM116.162 206.022L111.803 204.046L110.11 207.67L114.47 209.646L116.162 206.022ZM111.803 204.046L107.443 202.069L105.751 205.694L110.11 207.67L111.803 204.046ZM104.775 203.056L101.154 210.813L104.797 212.464L108.418 204.707L104.775 203.056ZM115.622 217.372L112 225.129L115.643 226.781L119.265 219.024L115.622 217.372ZM112.975 227.767L117.287 229.722L118.979 226.097L114.667 224.143L112.975 227.767ZM117.287 229.722L121.599 231.677L123.291 228.052L118.979 226.097L117.287 229.722ZM124.266 230.69L127.888 222.933L124.245 221.281L120.623 229.039L124.266 230.69ZM127.888 222.933L131.51 215.176L127.867 213.524L124.245 221.281L127.888 222.933ZM130.534 212.538L126.223 210.583L124.53 214.208L128.842 216.162L130.534 212.538ZM126.223 210.583L121.911 208.628L120.219 212.253L124.53 214.208L126.223 210.583ZM119.243 209.615L115.622 217.372L119.265 219.024L122.886 211.266L119.243 209.615ZM129.994 223.888L126.372 231.645L130.015 233.297L133.637 225.539L129.994 223.888ZM127.347 234.283L131.707 236.259L133.399 232.635L129.04 230.659L127.347 234.283ZM131.707 236.259L136.067 238.236L137.759 234.612L133.399 232.635L131.707 236.259ZM138.734 237.25L142.356 229.492L138.713 227.841L135.091 235.598L138.734 237.25ZM142.356 229.492L145.978 221.735L142.335 220.084L138.713 227.841L142.356 229.492ZM145.002 219.097L140.643 217.121L138.951 220.745L143.31 222.722L145.002 219.097ZM140.643 217.121L136.283 215.144L134.591 218.769L138.951 220.745L140.643 217.121ZM133.616 216.131L129.994 223.888L133.637 225.539L137.259 217.782L133.616 216.131ZM95.1003 218.685C94.6731 218.662 94.2847 218.748 94.0361 218.815C93.756 218.89 93.4747 218.992 93.2123 219.1C92.6861 219.316 92.1196 219.605 91.5942 219.908C91.0693 220.211 90.538 220.557 90.0916 220.904C89.8693 221.076 89.6411 221.269 89.4372 221.476C89.2598 221.656 88.9818 221.963 88.792 222.37L92.435 224.021C92.3354 224.235 92.2335 224.317 92.2987 224.251C92.3374 224.211 92.4183 224.138 92.5522 224.034C92.8184 223.828 93.1882 223.582 93.5976 223.346C94.0067 223.11 94.4079 222.909 94.7276 222.778C94.8882 222.712 94.9994 222.675 95.062 222.658C95.1559 222.633 95.0603 222.673 94.8566 222.662L95.1003 218.685ZM88.792 222.37C88.2272 223.579 88.5094 225.045 89.3187 225.98L92.3758 223.375C92.4786 223.493 92.5017 223.589 92.5089 223.634C92.5152 223.674 92.5312 223.815 92.435 224.021L88.792 222.37ZM89.3188 225.98C89.4157 226.092 89.5666 226.256 89.8187 226.435C90.0088 226.57 90.2256 226.692 90.4553 226.812C90.9244 227.058 91.7414 227.448 93.2223 228.132C96.2087 229.513 102.065 232.168 113.685 237.436L115.377 233.812C103.748 228.539 97.9103 225.893 94.941 224.52C93.4441 223.828 92.7178 223.479 92.3511 223.287C92.1629 223.189 92.1388 223.167 92.1738 223.192C92.2023 223.212 92.2489 223.248 92.3026 223.299C92.3532 223.347 92.3875 223.388 92.3757 223.375L89.3188 225.98ZM113.685 237.436C125.305 242.704 131.162 245.359 134.168 246.696C135.659 247.359 136.492 247.717 136.986 247.908C137.228 248.001 137.463 248.085 137.691 248.139C137.993 248.211 138.217 248.217 138.367 248.217L138.386 244.234C138.368 244.234 138.422 244.233 138.492 244.24C138.566 244.247 138.624 244.258 138.658 244.266C138.7 244.276 138.668 244.272 138.469 244.196C138.083 244.046 137.341 243.73 135.834 243.06C132.845 241.731 127.007 239.084 115.377 233.812L113.685 237.436ZM138.367 248.217C139.63 248.214 140.932 247.46 141.496 246.253L137.853 244.601C137.943 244.409 138.054 244.331 138.095 244.306C138.139 244.279 138.229 244.234 138.386 244.234L138.367 248.217ZM141.496 246.253C141.683 245.853 141.731 245.454 141.751 245.241C141.774 244.982 141.775 244.713 141.766 244.462C141.749 243.958 141.686 243.388 141.599 242.839C141.512 242.288 141.394 241.715 141.253 241.201C141.127 240.741 140.937 240.147 140.646 239.676L137.215 241.772C137.192 241.735 137.265 241.866 137.376 242.269C137.471 242.619 137.561 243.048 137.63 243.485C137.7 243.924 137.741 244.328 137.752 244.629C137.757 244.781 137.753 244.874 137.75 244.915C137.742 245.002 137.741 244.842 137.853 244.601L141.496 246.253ZM140.646 239.676L140.459 239.373L137.029 241.47L137.215 241.773L140.646 239.676ZM139.592 238.61L117.881 228.745L116.186 232.368L137.896 242.233L139.592 238.61ZM117.881 228.745C108.941 224.683 103.493 222.213 100.244 220.758C98.6221 220.031 97.5371 219.551 96.8361 219.252C96.4882 219.103 96.2167 218.991 96.014 218.912C95.9145 218.874 95.8093 218.835 95.7084 218.803C95.6811 218.794 95.415 218.702 95.1004 218.685L94.8566 222.662C94.6764 222.653 94.5447 222.62 94.5199 222.613C94.4746 222.602 94.4464 222.593 94.4447 222.593C94.4407 222.591 94.4655 222.599 94.5344 222.626C94.6685 222.678 94.8871 222.767 95.2229 222.911C95.8896 223.196 96.9473 223.663 98.568 224.389C101.805 225.84 107.243 228.304 116.186 232.368L117.881 228.745Z" fill="#8A86B2" mask="url(#path-11-inside-1_1_3863)"/>
<path fill-rule="evenodd" clip-rule="evenodd" d="M101.022 27.3584C96.8306 27.4828 93.5453 28.7171 90.2162 31.418L87.4333 33.6763L73.293 29.307L59.1525 24.9382L52.5819 44.4017L46.0107 63.8651L42.3 62.6775C36.8866 60.945 36.8885 60.9445 35.4362 65.3851C33.8368 70.2774 34.341 73.3542 37.2021 76.1572C39.1642 78.0797 39.5734 78.2365 58.0506 84.1499C76.5272 90.0632 76.9524 90.1734 79.6886 89.7545C81.7279 89.4424 83.0157 88.7935 84.4694 87.3457C86.3723 85.4506 86.6473 84.7928 90.7717 72.2791L95.0842 59.1948L97.8364 59.7329C103.175 60.7765 108.839 59.0313 112.968 55.0717C114.894 53.2241 115.486 52.1916 116.661 48.6249C117.837 45.0581 117.974 43.8802 117.517 41.2697C116.072 33.0175 109.079 27.1192 101.022 27.3584ZM109.254 32.2028C112.227 34.2224 114.656 38.0537 115.264 41.6824C115.828 45.0513 113.984 50.9804 111.684 53.1938C109.45 55.3443 105.996 57.119 103.019 57.6465C99.5383 58.2636 93.7354 56.39 91.1719 53.8214C87.6439 50.2862 85.9365 43.6965 87.3988 39.2597C89.0792 34.1614 95.626 29.5409 101.053 29.6228C104.796 29.6794 106.178 30.1139 109.254 32.2028ZM103.41 33.332C103.149 33.4632 102.791 34.0088 102.615 34.5445C102.438 35.0796 102.052 35.4401 101.757 35.3455C100.483 34.9378 98.3501 36.6702 97.7009 38.6401C96.9106 41.038 97.9001 43.2854 100.343 44.6376C102.37 45.7599 102.886 47.04 101.922 48.5556C100.495 50.8024 96.8493 49.3627 97.3031 46.7315C97.5587 45.2477 96.5333 44.3866 95.7087 45.3927C94.6899 46.6347 94.8416 48.9824 96.009 50.038C96.6179 50.5891 97.0244 51.5654 96.9106 52.2079C96.6334 53.7823 98.3434 54.7128 98.8254 53.2503C99.0215 52.6552 99.8207 52.056 100.601 51.9189C102.672 51.5548 103.81 50.6181 104.446 48.7557C105.181 46.5992 104.17 43.9952 102.168 42.886C101.288 42.3989 100.33 41.6294 100.04 41.1762C99.2439 39.9327 100.151 37.8974 101.618 37.6368C103.481 37.3057 104.708 38.4234 104.752 40.4888C104.796 42.592 106.023 42.8763 106.908 40.9889C107.353 40.0386 107.171 39.1499 106.224 37.6574C105.514 36.5375 104.906 35.1194 104.874 34.5058C104.814 33.3611 104.25 32.9088 103.41 33.332ZM85.563 38.5254C85.0583 40.0587 84.5903 42.1436 84.5233 43.1597L84.4016 45.0068L78.8118 43.3857C73.9919 41.9881 73.1552 41.8847 72.7359 42.636C72.2954 43.4264 72.8418 43.6969 78.6029 45.5407L84.9556 47.5738L85.8457 49.9173C86.7909 52.4058 90.6506 57.0107 92.22 57.5223C93.0885 57.805 92.8371 58.8037 88.8665 70.8508C84.2612 84.8237 83.4104 86.4821 80.3765 87.4008C76.5149 88.5704 72.2032 86.1318 71.5889 82.4306C71.417 81.3932 71.6799 78.806 72.1733 76.6817L73.071 72.8189L60.6254 68.6785L48.1799 64.5376L54.3002 45.9681L60.4208 27.398L73.4506 31.5681L86.4805 35.7381L85.563 38.5254ZM64.82 37.7928C62.7916 38.8954 62.3256 40.3923 63.4059 42.3354C65.0557 45.3012 68.8644 45.0325 69.9045 41.8766C70.958 38.6804 67.8225 36.1622 64.82 37.7928ZM67.738 40.6357C67.8119 42.0513 66.3733 42.5721 65.624 41.4016C65.1598 40.6761 65.2168 40.3229 65.8634 39.9184C66.9839 39.2183 67.6775 39.4837 67.738 40.6357ZM61.6706 47.348C59.6423 48.4506 59.1762 49.9475 60.2566 51.8907C61.9063 54.8564 65.7151 54.5877 66.7552 51.4318C67.8087 48.2356 64.6731 45.7175 61.6706 47.348ZM64.5887 50.1909C64.6626 51.6066 63.224 52.1273 62.4747 50.9568C62.0105 50.2314 62.0675 49.8782 62.714 49.4736C63.8346 48.7735 64.5282 49.039 64.5887 50.1909ZM70.435 51.5309C69.3651 51.6051 69.0728 52.8596 69.9606 53.5686C70.3696 53.8955 73.9192 55.1917 77.848 56.4491C83.1202 58.1364 85.2076 58.6008 85.8143 58.2216C87.6045 57.1027 85.9861 56.1182 78.4893 53.7664C74.4771 52.5076 70.8532 51.5021 70.435 51.5309ZM58.8112 56.8546C56.6163 57.6533 55.9688 59.3979 57.1073 61.4459C58.1266 63.2786 59.5268 63.8405 61.5466 63.2288C63.5677 62.6168 64.5468 59.6462 63.2763 57.9808C62.04 56.3593 60.936 56.081 58.8112 56.8546ZM61.4393 59.7462C61.5133 61.1618 60.0747 61.6826 59.3253 60.512C58.8611 59.7866 58.9182 59.4334 59.5647 59.0288C60.6852 58.3288 61.3789 58.5942 61.4393 59.7462ZM66.3527 61.9976C66.2376 62.9056 67.0032 63.248 74.5471 65.6624C81.5854 67.9149 82.9084 68.2027 83.1304 67.5291C83.3507 66.8608 82.0315 66.2713 74.9365 63.8645C67.0796 61.1997 66.471 61.0672 66.3527 61.9976ZM69.4781 77.9153C68.9784 80.0782 68.9254 81.9314 69.3285 83.125C69.6727 84.1442 69.912 85.1069 69.8599 85.2651C69.8079 85.4227 63.177 83.4426 55.1239 80.8647C42.2608 76.7474 40.291 75.9926 38.9077 74.6479C36.9941 72.789 36.4117 69.6127 37.4217 66.5446L38.1642 64.2881L54.209 69.4231L70.2537 74.558L69.4781 77.9153Z" fill="#8A86B2"/>
<path d="M267.999 335.307C267.999 335.307 283.862 315.621 293.233 317.404C302.605 319.187 284.09 335.85 284.09 335.85" stroke="#8A86B2" stroke-width="1.5" stroke-linecap="round" stroke-linejoin="round"/>
<path d="M238 381.067L245.52 396.998L281.829 395.534L298 341.223L288.926 335.377L258.389 333.96L258.274 334.255L238 381.067Z" stroke="#8A86B2" stroke-width="1.5" stroke-linecap="round" stroke-linejoin="round"/>
<path d="M259.908 335.849L262.868 338.719L264.696 345.911L293.119 341.258" stroke="#8A86B2" stroke-width="1.5" stroke-linecap="round" stroke-linejoin="round"/>
<path d="M263.714 350.056L247.897 393.727L247.314 380.926L241.371 380.796" stroke="#8A86B2" stroke-width="1.5" stroke-linecap="round" stroke-linejoin="round"/>
<path d="M253.691 364.723L259.634 349.064" stroke="#8A86B2" stroke-width="1.5" stroke-linecap="round" stroke-linejoin="round"/>
<path d="M249.188 376.639C250.33 373.793 251.347 370.958 252.422 368.112" stroke="#8A86B2" stroke-width="1.5" stroke-linecap="round" stroke-linejoin="round"/>
<path d="M276.262 345.935C276.262 345.935 287.005 317.38 293.999 317.002C300.994 316.624 291.794 343.183 291.794 343.183" stroke="#8A86B2" stroke-width="1.5" stroke-linecap="round" stroke-linejoin="round"/>
<path d="M288.708 321.052C288.708 321.052 284.868 326.638 284.525 330.901" stroke="#8A86B2" stroke-width="1.5" stroke-linecap="round" stroke-linejoin="round"/>
<path fill-rule="evenodd" clip-rule="evenodd" d="M1087.95 217.147C1087.02 217.294 1086.01 217.894 1085.39 218.667C1084.98 219.18 1084.87 219.494 1084.34 221.72L1083.74 224.201L1082.56 224.015C1080.6 223.708 1079.12 224.214 1077.94 225.592L1077.4 226.217L1071.05 255.26L1064.69 284.304L1064.89 285.011C1065.16 285.976 1065.77 286.921 1066.53 287.554L1067.17 288.083L1088.69 292.694C1109.6 297.173 1110.22 297.299 1110.6 297.109C1111.15 296.838 1111.34 295.983 1110.95 295.516C1110.69 295.193 1109.98 295.033 1089.54 290.69C1068.76 286.276 1068.39 286.192 1067.9 285.801C1067.63 285.583 1067.3 285.164 1067.17 284.87L1066.94 284.337L1071.98 261.115L1077.02 237.894L1084.13 239.404L1091.23 240.913L1091.66 240.641C1092.21 240.295 1092.33 239.753 1091.97 239.215L1091.7 238.794L1084.59 237.283L1077.47 235.772L1078.47 231.435C1079.46 227.113 1079.46 227.097 1079.91 226.696C1080.5 226.164 1081.44 225.974 1082.45 226.185L1083.26 226.353L1083.05 227.614C1082.88 228.62 1082.88 229.053 1083.06 229.754C1083.43 231.227 1084.46 232.21 1086.01 232.55C1087.12 232.795 1088.1 232.646 1088.96 232.1C1089.98 231.458 1090.44 230.78 1090.87 229.293L1091.23 228.045L1093.56 228.54L1095.88 229.034L1095.66 230.355C1095.34 232.269 1095.74 233.512 1097.01 234.511C1098.3 235.536 1100.32 235.611 1101.69 234.686C1102.63 234.049 1103.08 233.328 1103.39 231.923L1103.66 230.687L1106.08 231.201L1108.5 231.715L1108.26 233.106C1108 234.614 1108.06 235.072 1108.66 236.133C1109.75 238.057 1112.61 238.618 1114.42 237.263C1115.29 236.612 1115.75 235.822 1116.04 234.473L1116.28 233.368L1118.72 233.885L1121.16 234.403L1120.89 235.641C1120.59 237.048 1120.69 237.885 1121.28 238.848C1122.15 240.247 1124.01 240.997 1125.62 240.591C1127.2 240.195 1128.08 239.226 1128.59 237.35L1128.94 236.056L1131.27 236.55L1133.59 237.045L1133.4 238.328C1133.17 239.832 1133.31 240.693 1133.91 241.584C1134.59 242.591 1135.1 242.912 1136.49 243.204C1137.87 243.493 1138.34 243.419 1139.38 242.759C1140.31 242.167 1140.82 241.402 1141.22 239.966L1141.56 238.738L1142.37 238.912C1143.37 239.129 1144.15 239.686 1144.47 240.411C1144.71 240.958 1144.71 240.975 1143.8 245.314L1142.89 249.669L1119.08 244.609L1095.26 239.55L1094.83 239.822C1094.28 240.169 1094.16 240.71 1094.52 241.248L1094.79 241.67L1118.61 246.728L1142.42 251.787L1137.31 274.992L1132.19 298.198L1131.75 298.589C1131.51 298.805 1131.04 299.053 1130.7 299.142C1130.11 299.297 1129.77 299.237 1122.14 297.617L1114.2 295.93L1113.82 296.191C1113.28 296.562 1113.16 297.233 1113.56 297.71C1113.88 298.087 1113.93 298.1 1122.08 299.788L1130.27 301.487L1131.06 301.315C1132.05 301.097 1133.02 300.508 1133.71 299.704L1134.25 299.079L1140.6 270.036L1146.96 240.993L1146.73 240.205C1146.23 238.47 1145.09 237.407 1143.18 236.892L1142.02 236.581L1142.52 234.079C1142.97 231.8 1143 231.511 1142.82 230.836C1142.46 229.417 1141.17 228.154 1139.77 227.857C1138.33 227.549 1136.64 228.195 1135.75 229.4C1135.3 230.005 1135.19 230.328 1134.66 232.502L1134.07 234.928L1131.72 234.428L1129.37 233.928L1129.86 231.693C1130.45 228.989 1130.43 228.223 1129.77 227.11C1129.21 226.17 1128.53 225.616 1127.58 225.31C1126.02 224.808 1124.29 225.321 1123.25 226.596C1122.74 227.227 1122.7 227.344 1122.17 229.767L1121.62 232.283L1119.18 231.765L1116.75 231.248L1117.28 228.787L1117.82 226.326L1117.55 225.33C1116.95 223.163 1114.81 221.993 1112.6 222.629C1111.75 222.875 1110.85 223.548 1110.36 224.317C1110.19 224.57 1109.88 225.679 1109.55 227.167L1109 229.603L1106.56 229.085L1104.13 228.567L1104.68 226.051C1105.21 223.627 1105.22 223.504 1105.02 222.722C1104.61 221.139 1103.25 219.971 1101.61 219.793C1100.68 219.693 1099.99 219.856 1099.11 220.382C1097.82 221.157 1097.66 221.457 1096.97 224.348L1096.36 226.917L1094.02 226.42L1091.68 225.922L1092.16 223.473C1092.58 221.278 1092.62 220.938 1092.46 220.204C1092.03 218.165 1090.04 216.815 1087.95 217.147ZM1089.62 219.624C1090.49 220.218 1090.49 220.252 1089.38 225.297L1088.39 229.838L1087.8 230.215C1087.29 230.537 1087.11 230.571 1086.53 230.449C1085.96 230.328 1085.8 230.22 1085.48 229.737C1084.99 228.975 1085.02 228.637 1086.09 223.99C1087.09 219.68 1087.16 219.536 1088.19 219.333C1088.82 219.207 1089.1 219.263 1089.62 219.624ZM1102.25 222.328C1103.08 222.958 1103.07 223.083 1102.02 227.891C1100.98 232.648 1100.91 232.839 1099.99 233.084C1099 233.349 1098 232.796 1097.78 231.862C1097.68 231.452 1097.82 230.625 1098.58 227.174C1099.59 222.541 1099.65 222.394 1100.64 222.053C1101.27 221.838 1101.7 221.912 1102.25 222.328ZM1115.23 225.444L1115.57 225.975L1114.64 230.429C1113.85 234.24 1113.67 234.938 1113.4 235.262C1112.56 236.259 1110.72 235.868 1110.38 234.621C1110.27 234.216 1110.39 233.507 1111.26 229.72L1112.27 225.292L1112.71 224.988C1113.3 224.582 1113.68 224.523 1114.33 224.735C1114.7 224.857 1114.99 225.08 1115.23 225.444ZM1127.44 227.686C1127.65 227.856 1127.91 228.226 1128.01 228.507C1128.18 228.985 1128.13 229.303 1127.27 233.238C1126.51 236.716 1126.29 237.528 1126.03 237.862C1125.22 238.897 1123.48 238.646 1123.05 237.433C1122.87 236.94 1122.92 236.658 1123.82 232.55C1124.87 227.728 1124.92 227.609 1125.92 227.361C1126.54 227.208 1126.97 227.298 1127.44 227.686ZM1140.3 230.603C1140.46 230.791 1140.63 231.177 1140.67 231.462C1140.75 232.123 1139.16 239.537 1138.78 240.246C1138.4 240.96 1137.65 241.307 1136.84 241.137C1136.3 241.021 1136.13 240.907 1135.81 240.415L1135.43 239.831L1136.42 235.289C1137.31 231.25 1137.45 230.712 1137.74 230.432C1138.41 229.784 1139.64 229.867 1140.3 230.603ZM1083.07 244.867L1082.64 245.139L1081.73 249.321L1080.81 253.503L1081.09 253.924L1081.36 254.346L1085.61 255.248C1088.11 255.778 1089.98 256.116 1090.15 256.068C1090.71 255.91 1090.93 255.272 1091.77 251.453C1092.6 247.634 1092.66 246.962 1092.22 246.593C1092.09 246.479 1090.24 246.027 1087.74 245.497L1083.5 244.594L1083.07 244.867ZM1096.94 247.793C1096.57 248.049 1096.54 248.135 1095.63 252.296L1094.71 256.537L1094.97 256.915C1095.23 257.285 1095.32 257.31 1099.54 258.207L1103.84 259.121L1104.23 258.86C1104.6 258.604 1104.63 258.519 1105.54 254.339C1106.46 250.138 1106.47 250.073 1106.22 249.723C1105.98 249.383 1105.8 249.332 1101.65 248.45L1097.33 247.532L1096.94 247.793ZM1110.84 250.699C1110.51 250.91 1110.45 251.109 1109.55 255.206L1108.62 259.492L1108.88 259.87C1109.14 260.241 1109.23 260.265 1113.46 261.165L1117.78 262.082L1118.16 261.773C1118.53 261.476 1118.58 261.299 1119.46 257.268L1120.38 253.072L1120.11 252.694C1119.85 252.323 1119.77 252.299 1115.52 251.396C1111.38 250.517 1111.17 250.487 1110.84 250.699ZM1124.88 253.57C1124.34 253.821 1124.14 254.401 1123.32 258.143C1122.48 261.975 1122.42 262.646 1122.86 263.016C1123 263.13 1124.84 263.582 1127.34 264.112L1131.58 265.014L1132.01 264.742L1132.44 264.47L1133.36 260.288L1134.27 256.106L1133.99 255.684L1133.72 255.262L1129.44 254.353C1126.23 253.672 1125.09 253.475 1124.88 253.57ZM1089.47 250.966L1088.87 253.722L1086.07 253.128L1083.28 252.534L1083.88 249.778L1084.48 247.022L1087.28 247.616L1090.07 248.21L1089.47 250.966ZM1103.38 253.921L1102.78 256.677L1099.98 256.083L1097.19 255.489L1097.79 252.733L1098.39 249.977L1101.19 250.571L1103.98 251.165L1103.38 253.921ZM1117.29 256.876L1116.69 259.632L1113.89 259.038L1111.1 258.444L1111.7 255.688L1112.3 252.932L1115.1 253.526L1117.9 254.12L1117.29 256.876ZM1131.2 259.831L1130.6 262.587L1127.8 261.993L1125.01 261.399L1125.61 258.643L1126.21 255.887L1129.01 256.481L1131.81 257.075L1131.2 259.831ZM1080.04 258.717L1079.61 258.989L1078.7 263.146C1077.83 267.137 1077.8 267.319 1078.01 267.738L1078.22 268.173L1082.64 269.111C1086.94 270.025 1087.06 270.042 1087.39 269.809C1087.71 269.584 1087.79 269.3 1088.65 265.332L1089.58 261.095L1089.25 260.668L1088.93 260.241L1084.7 259.343L1080.47 258.445L1080.04 258.717ZM1093.95 261.672L1093.52 261.944L1092.6 266.164C1091.71 270.215 1091.69 270.398 1091.9 270.755C1092.12 271.121 1092.19 271.139 1096.49 272.054C1100.67 272.941 1100.88 272.972 1101.21 272.76C1101.54 272.548 1101.6 272.35 1102.5 268.238L1103.44 263.938L1103.13 263.565C1102.83 263.207 1102.65 263.156 1098.6 262.296L1094.38 261.4L1093.95 261.672ZM1107.9 264.578L1107.46 264.791L1106.52 269.091C1105.62 273.203 1105.59 273.407 1105.8 273.735C1106.02 274.064 1106.22 274.119 1110.39 275.007C1114.7 275.922 1114.77 275.931 1115.12 275.687C1115.47 275.45 1115.52 275.272 1116.41 271.221L1117.33 267.001L1117.05 266.579L1116.78 266.158L1112.56 265.262C1108.51 264.401 1108.32 264.374 1107.9 264.578ZM1121.92 267.432C1121.32 267.576 1121.08 268.275 1120.22 272.431C1119.48 276.004 1119.44 276.33 1119.63 276.657C1119.83 277.004 1119.95 277.036 1124.25 277.95L1128.66 278.888L1129.04 278.578C1129.41 278.281 1129.46 278.104 1130.33 274.113L1131.24 269.956L1130.96 269.534L1130.69 269.113L1126.48 268.23C1123.77 267.66 1122.15 267.377 1121.92 267.432ZM1086.44 264.816L1085.84 267.572L1083.04 266.978L1080.25 266.384L1080.85 263.628L1081.45 260.872L1084.25 261.466L1087.04 262.06L1086.44 264.816ZM1100.35 267.771L1099.75 270.527L1096.95 269.933L1094.16 269.339L1094.76 266.583L1095.36 263.827L1098.16 264.421L1100.95 265.015L1100.35 267.771ZM1114.26 270.726L1113.66 273.482L1110.86 272.888L1108.07 272.294L1108.67 269.538L1109.27 266.782L1112.07 267.376L1114.87 267.97L1114.26 270.726ZM1128.17 273.681L1127.57 276.437L1124.77 275.843L1121.98 275.249L1122.58 272.493L1123.18 269.737L1125.98 270.331L1128.78 270.925L1128.17 273.681ZM1077.32 272.444C1077.14 272.488 1076.88 272.665 1076.75 272.836C1076.43 273.265 1074.76 280.893 1074.87 281.414C1075.02 282.088 1075.35 282.203 1079.66 283.12L1083.73 283.985L1084.21 283.729L1084.69 283.473L1085.62 279.209L1086.55 274.945L1086.22 274.518L1085.9 274.092L1081.78 273.227C1079.26 272.698 1077.53 272.394 1077.32 272.444ZM1091.23 275.371C1091.05 275.405 1090.8 275.544 1090.68 275.681C1090.54 275.841 1090.14 277.417 1089.55 280.093C1088.7 283.981 1088.65 284.281 1088.84 284.647L1089.04 285.039L1093.44 285.974L1097.84 286.908L1098.19 286.633C1098.51 286.376 1098.6 286.082 1099.46 282.149C1100.32 278.217 1100.37 277.915 1100.18 277.549L1099.98 277.157L1095.78 276.233C1093.46 275.725 1091.42 275.338 1091.23 275.371ZM1105.14 278.326C1104.96 278.36 1104.71 278.499 1104.59 278.636C1104.45 278.796 1104.05 280.372 1103.46 283.048C1102.61 286.936 1102.57 287.236 1102.75 287.602L1102.95 287.994L1107.35 288.929L1111.75 289.863L1112.1 289.588C1112.43 289.331 1112.51 289.037 1113.37 285.104C1114.23 281.172 1114.28 280.87 1114.09 280.504L1113.89 280.112L1109.69 279.188C1107.38 278.681 1105.33 278.293 1105.14 278.326ZM1118.72 281.422L1118.25 281.677L1117.31 285.942L1116.38 290.206L1116.71 290.633L1117.04 291.059L1121.11 291.924C1123.79 292.493 1125.31 292.761 1125.56 292.707C1126.25 292.56 1126.37 292.237 1127.28 288.059C1128.19 283.881 1128.22 283.539 1127.66 283.127C1127.45 282.975 1125.95 282.6 1123.27 282.031L1119.2 281.166L1118.72 281.422ZM1083.39 278.74L1082.78 281.57L1080.02 280.945L1077.27 280.32L1077.8 277.702C1078.1 276.262 1078.38 275.008 1078.45 274.917C1078.53 274.79 1079.2 274.887 1081.28 275.331L1084.01 275.91L1083.39 278.74ZM1097.31 281.692L1096.69 284.519L1093.89 283.924L1091.1 283.33L1091.71 280.504L1092.33 277.677L1095.13 278.271L1097.93 278.865L1097.31 281.692ZM1111.22 284.647L1110.6 287.474L1107.8 286.88L1105.01 286.285L1105.62 283.459L1106.24 280.632L1109.04 281.226L1111.84 281.82L1111.22 284.647ZM1125.06 287.587L1124.45 290.343L1121.68 289.795L1118.92 289.247L1119.54 286.414L1120.16 283.581L1122.91 284.206L1125.66 284.831L1125.06 287.587Z" fill="#8A86B2"/>
<defs>
<clipPath id="clip0_1_3863">
<rect width="22" height="32" fill="white" transform="translate(877 340.998)"/>
</clipPath>
</defs>
</svg>
