<svg width="161" height="96" viewBox="0 0 161 96" fill="none" xmlns="http://www.w3.org/2000/svg">
<g clip-path="url(#clip0_1370:86132)">
<path d="M100.879 70.9333H59.8812L39.3838 35.4667L59.8812 0H100.879L121.377 35.4667L100.879 70.9333ZM60.8509 69.2575H99.9098L119.441 35.4667L99.9098 1.6758H60.8509L41.3198 35.4667L60.8509 69.2575Z" fill="white"/>
<path d="M87.7234 36.9581C87.4449 36.9916 86.945 37.2262 86.7168 37.6351C86.5457 37.9401 86.6464 38.339 86.9517 38.5132C87.0523 38.5702 87.1631 38.597 87.2704 38.597C87.4885 38.597 87.6966 38.4864 87.814 38.2786C87.8341 38.2585 87.8945 38.2216 87.8845 38.2183C88.2334 38.1747 88.4817 37.8563 88.4381 37.5078C88.3911 37.1625 88.0724 36.9145 87.7234 36.9581Z" fill="#FFDE3B"/>
<path d="M74.0547 35.3327C74.0514 35.2656 74.0547 35.1919 74.0783 35.1182C74.0547 35.1885 74.048 35.2623 74.0547 35.3327Z" fill="#FFDE3B"/>
<path d="M74.0547 35.3327C74.0514 35.2656 74.0547 35.1919 74.0783 35.1182C74.0547 35.1885 74.048 35.2623 74.0547 35.3327Z" fill="#FFDE3B"/>
<path d="M74.0605 35.3633C74.0605 35.3532 74.0537 35.3431 74.0537 35.333C74.0537 35.3431 74.0571 35.3532 74.0605 35.3633Z" fill="#FFDE3B"/>
<path d="M74.0605 35.3633C74.0605 35.3532 74.0537 35.3431 74.0537 35.333C74.0537 35.3431 74.0571 35.3532 74.0605 35.3633Z" fill="#FFDE3B"/>
<path d="M106.584 46.7314C105.285 46.6476 104.339 45.7628 104.081 45.4947C103.742 45.1427 102.715 43.6479 101.89 42.448C101.239 41.5029 100.678 40.6851 100.4 40.3365C99.8866 39.6964 98.9706 36.9246 98.776 35.9392C98.7391 35.7549 98.7223 35.537 98.719 35.3058C99.6886 34.9673 101.504 34.8969 101.96 34.9807C102.319 35.0444 102.671 35.2756 103.222 35.8085C103.675 36.2442 104.057 36.385 104.403 36.385C104.654 36.385 104.886 36.3113 105.111 36.2241C105.473 36.0834 105.805 35.6879 106.03 35.3628C106.47 35.3225 106.886 35.0745 107.248 34.8131C107.845 34.3774 107.912 33.6635 107.449 32.6915C107.355 32.4938 107.238 32.229 107.107 31.9408C106.966 31.6224 106.809 31.2771 106.654 30.9453C106.339 30.275 106.04 29.7689 105.594 29.4706C105.503 29.4103 105.232 29.1656 105.017 28.9712C104.862 28.8338 104.698 28.6864 104.54 28.5456C104.584 28.4249 104.618 28.3043 104.628 28.1803C104.651 27.8619 104.55 27.5703 104.336 27.3424C104.161 27.1547 103.836 26.9402 103.275 26.9569C102.984 26.967 102.658 27.0508 102.336 27.1815C101.5 26.9536 100.125 26.9569 99.6551 26.977C99.343 26.9938 98.8364 27.0072 98.2928 27.024C97.4473 27.0508 96.4877 27.0809 96.0112 27.1178C95.2966 27.1748 94.4074 27.148 94.0652 27.1078C93.7833 27.0742 93.4881 27.0072 93.1794 26.9335C92.6258 26.8061 91.995 26.6553 91.2669 26.6787C90.1496 26.7056 89.049 27.3826 88.5222 27.7077L88.4082 27.7781C88.1968 27.9021 87.1499 28.0596 85.989 28.0328C84.4791 27.9959 80.2884 27.7144 79.0838 27.5837C78.7651 27.5502 78.302 27.4563 77.7686 27.3491C76.3258 27.0575 74.3529 26.662 72.5242 26.843C70.4171 27.0508 68.3469 27.6038 66.3774 28.4886L65.9244 28.6964C64.4783 29.3567 62.492 30.2616 60.4184 30.1074C58.6535 29.9734 55.6707 29.045 55.6707 26.3905C55.6707 24.9728 57.308 24.2421 58.0093 24.2421C59.1098 24.2421 60.0996 25.1135 60.1869 25.3549C60.1869 25.8107 60.0929 26.1123 60.0191 26.3536C59.9151 26.6922 59.7574 27.2049 60.2305 27.6474C60.6096 27.9993 61.425 28.1836 62.1296 27.8753C62.71 27.6239 63.3979 26.9837 63.3979 25.3549C63.3979 22.4222 60.1969 21.0581 58.0328 21.0581C55.7982 21.0581 52.5603 22.9585 52.5603 26.3905C52.5603 29.8628 54.8687 32.4402 58.5797 33.1172C61.2035 33.5965 62.9617 33.3585 64.2266 32.9161C63.8643 34.0523 63.3241 35.6543 62.8677 36.6598C62.096 38.3557 60.16 40.7454 59.8547 40.9834C59.7742 41.037 59.6802 41.094 59.5796 41.151C59.1333 41.4158 58.5797 41.7442 58.4019 42.3039C58.2878 42.6693 56.9457 45.9538 56.4558 47.1302C56.0028 48.2195 56.4491 48.8262 56.8081 49.3155C56.8886 49.4261 56.9792 49.5434 57.0631 49.6775C57.4892 50.3545 58.2844 50.6327 58.9655 50.6327C59.2575 50.6327 59.5326 50.579 59.7473 50.4852C60.5627 50.1232 60.4922 48.9703 60.3345 48.4977C60.2406 48.2229 60.0157 48.0352 59.7305 47.7972C59.6534 47.7335 59.5427 47.6397 59.4621 47.5626C59.6836 47.0196 60.4586 45.6924 60.6667 45.4779C60.9217 45.2466 62.1631 44.402 63.1529 43.839C64.183 43.2558 66.5082 41.7308 67.6188 40.9365C68.2429 40.4907 68.82 39.998 69.2327 39.626C69.6588 40.3835 69.8669 40.913 69.8803 41.0873C70.0246 43.6546 69.9205 44.2043 69.8971 44.2881C69.8702 44.3886 69.83 44.4858 69.7897 44.5864C69.5783 45.1092 69.2193 45.984 70.2326 47.0833C70.6822 47.5693 73.1651 50.083 74.1516 50.2975C74.1717 50.3009 75.5071 50.5388 76.7284 50.5388C77.5471 50.5388 78.3188 50.4316 78.6074 50.0763C78.9194 49.6942 78.9731 49.1479 78.755 48.6485C78.5 48.0687 77.9464 47.7 77.2753 47.6598C76.9633 47.6397 76.6915 47.6665 76.4499 47.69C75.9433 47.7402 75.6648 47.767 75.2253 47.4051C74.9501 47.1772 74.2153 46.5739 74.165 46.3962C74.2724 45.9371 75.138 42.6424 75.4467 41.7978C75.4903 41.6738 75.5507 41.523 75.6145 41.3554C75.8963 40.6181 76.1714 39.8673 76.3661 39.1601C77.1512 39.3746 78.5503 39.6997 80.1374 39.8271C81.7278 39.9545 82.882 39.8204 83.8114 39.7165C83.9456 39.6997 84.0664 39.6897 84.1906 39.6763C84.0195 40.3868 83.7913 41.3956 83.7074 42.1397C83.6369 42.7463 83.5866 43.6714 83.543 44.4858C83.5095 45.1394 83.4625 45.9538 83.4356 46.0912C83.2947 46.5102 83.5027 46.9124 83.7041 47.3045C83.7712 47.4386 83.8852 47.6598 83.8987 47.7369C83.9188 47.9179 84.1671 49.2954 84.5899 49.6875C84.9656 50.0327 86.4051 50.2003 87.0694 50.2003C87.1634 50.2003 87.2405 50.197 87.2976 50.1903C88.2102 50.0897 88.8947 49.4194 88.8175 48.6954L88.8108 48.6049C88.7806 48.2731 88.7135 47.4989 87.566 47.4285C87.3949 47.4185 87.2405 47.4185 87.1063 47.4185C87.0593 47.4185 87.009 47.4185 86.962 47.4185C86.9419 47.3615 86.9184 47.3012 86.8983 47.2375C86.7808 46.9191 86.6735 46.6141 86.7305 46.3493C86.8412 45.8533 87.6734 43.5842 88.0961 42.5754C88.4115 41.828 89.153 40.3768 89.4752 39.7601C89.6362 39.74 89.8006 39.7165 89.9583 39.6964C90.3207 39.6528 90.6596 39.6092 90.9582 39.5523C91.4145 39.4685 91.9312 39.2841 92.2969 39.1367C93.0888 40.122 94.4645 41.5632 95.0751 42.0324C95.4408 42.314 96.122 42.9675 96.7796 43.5976C97.4943 44.2847 98.172 44.9349 98.5411 45.1997L98.8129 45.3941C100.202 46.3761 100.967 47.0196 101.091 47.3012C101.48 48.1826 103.671 49.7612 104.517 49.902C104.527 49.9054 105.111 49.9858 105.802 49.9858C106.755 49.9858 107.923 49.8316 108.127 49.0976C108.261 48.6217 108.335 47.938 107.946 47.3917C107.738 47.1202 107.342 46.7817 106.584 46.7314ZM56.1236 23.5349C56.1136 23.3137 55.9861 23.126 55.8049 23.0221C56.429 22.6367 57.1 22.4088 57.6704 22.3418V22.3853C57.6704 22.6401 57.8214 22.8579 58.0395 22.9585C58.0227 22.9585 58.0059 22.9551 57.9892 22.9551C57.412 22.9585 56.7343 23.1629 56.1236 23.5349ZM62.1061 25.3448C62.1061 26.0386 61.945 26.5112 61.6498 26.6754C61.4988 26.7592 61.3277 26.7558 61.2102 26.7424C61.2136 26.7357 61.2136 26.729 61.2169 26.7223C61.3075 26.4341 61.4417 25.995 61.4417 25.3482C61.4417 25.1638 61.3813 24.9627 61.2706 24.7616L61.3344 24.6979C61.5827 24.4499 61.5827 24.0477 61.3344 23.7964C61.0861 23.5483 60.6834 23.5483 60.4318 23.7964L60.4083 23.8198C59.8681 23.4143 59.1736 23.0959 58.4522 22.9953C58.7206 22.9283 58.9219 22.7037 58.9353 22.4222C60.358 22.7037 62.1061 23.6154 62.1061 25.3448ZM54.8687 23.783C54.8956 24.0042 55.0264 24.1885 55.2177 24.2823C54.9795 24.5471 54.7782 24.8488 54.6305 25.1806C54.4527 25.1973 54.2849 25.2811 54.1742 25.4387C53.9695 25.7235 54.0366 26.1224 54.3218 26.3268L54.3755 26.3637C54.3755 26.3704 54.3755 26.3737 54.3755 26.3771C54.3755 26.9502 54.4762 27.4697 54.6574 27.9423C54.4258 27.9926 54.2447 28.1602 54.1843 28.3881C53.946 27.7747 53.8185 27.101 53.8185 26.3771C53.8185 25.2979 54.2514 24.4332 54.8687 23.783ZM54.55 29.1455C54.6238 29.1757 54.701 29.1924 54.7849 29.1924H54.852C55.013 29.1924 55.1573 29.1254 55.2714 29.0282C55.6035 29.4572 56.0162 29.8259 56.4826 30.1343C56.2511 30.0706 55.9961 30.1376 55.8317 30.332L55.7512 30.4258C55.7344 30.4459 55.7277 30.4694 55.7143 30.4929C55.2445 30.1007 54.852 29.6516 54.55 29.1455ZM56.7745 31.1867L56.798 31.1598C57.0094 30.9118 56.9893 30.5532 56.7745 30.3219C57.5832 30.7979 58.526 31.1096 59.499 31.2704C59.4823 31.2839 59.4621 31.2906 59.4487 31.3073L59.2239 31.5453C59.1266 31.6492 59.083 31.7765 59.0662 31.9039C58.9756 31.8871 58.8884 31.8771 58.7911 31.8603C58.0496 31.7196 57.3718 31.4917 56.7745 31.1867ZM85.7172 45.2366C85.3951 45.3036 85.0596 45.374 85.0495 45.3539C85.0495 45.317 85.073 45.193 85.1871 45.0757C85.2878 44.9718 85.4287 44.9115 85.5729 44.9115C85.2206 44.9115 84.9354 45.1964 84.9354 45.5483C84.9354 45.8566 85.1603 46.1046 85.4555 46.1616C85.3515 46.7549 85.536 47.2844 85.677 47.6732C85.7072 47.757 85.7374 47.8374 85.7608 47.9179C86.0091 48.6954 86.6835 48.6887 87.0895 48.6921C87.2003 48.6921 87.3244 48.6921 87.4653 48.6988C87.4855 48.6988 87.5022 48.7021 87.5157 48.7021C87.5157 48.7055 87.5157 48.7122 87.5157 48.7156L87.519 48.7625C87.4687 48.8127 87.3345 48.8999 87.1332 48.9233C86.7775 48.9569 85.8145 48.8195 85.4421 48.7156C85.3347 48.4608 85.177 47.8911 85.1435 47.5961C85.1099 47.2911 84.9589 47.0029 84.8147 46.7213C84.761 46.6174 84.6838 46.4666 84.6536 46.3795C84.7039 46.1449 84.7308 45.6991 84.7945 44.5529C84.7979 44.4724 84.8046 44.392 84.8079 44.3082C84.8784 44.335 84.9522 44.3518 85.0294 44.3518C85.1032 44.3518 85.1804 44.3384 85.2542 44.3082C85.3314 44.278 85.3851 44.2613 85.4253 44.2479C85.573 44.1976 85.6602 44.1641 85.8347 44.0501C86.1299 43.8591 86.2172 43.4669 86.0259 43.1686C85.8347 42.8737 85.4421 42.7866 85.1435 42.9776C85.0831 43.0178 85.0831 43.0178 85.016 43.0379C84.9791 43.0513 84.9321 43.0681 84.8751 43.0882C84.8952 42.7866 84.9187 42.505 84.9455 42.2805C85.0361 41.4895 85.3146 40.3164 85.479 39.6528C85.7541 39.6897 86.036 39.7467 86.3145 39.8036C86.7876 39.9042 87.2707 40.0047 87.7472 40.0047C87.7941 40.0047 87.8411 39.998 87.8881 39.998C87.5391 40.6885 87.1164 41.5398 86.8916 42.0794C86.5963 42.8033 86.0494 44.2579 85.7172 45.2366ZM106.923 48.5882C106.493 48.7189 105.268 48.7424 104.708 48.6485C104.248 48.5614 102.443 47.2509 102.239 46.7917C102.004 46.2588 101.292 45.6388 100.155 44.8076C100.336 44.6065 100.376 44.3048 100.232 44.0635C100.232 44.0635 100.148 43.9194 100.095 43.7015C100.014 43.3597 99.6685 43.1485 99.3263 43.2323C99.0444 43.2994 98.8599 43.5474 98.8498 43.8222C98.5076 43.5139 98.0546 43.0815 97.6419 42.6827C97.4171 42.4648 97.199 42.257 96.9876 42.0559C97.0212 42.0593 97.0514 42.0727 97.0883 42.0693C97.4406 42.0392 97.699 41.7342 97.6721 41.3822C97.6453 41.0672 97.4674 40.903 97.3601 40.8292C97.0648 40.6281 96.7494 40.722 96.5447 40.7823L96.4172 40.8192C96.226 40.8728 96.0884 41.0069 96.0146 41.1711C95.9542 41.1208 95.8871 41.0605 95.8334 41.0203C95.7227 40.9365 95.5885 40.8158 95.4408 40.6784C95.4408 40.6784 95.4408 40.6784 95.4408 40.675C95.4442 40.6549 95.4476 40.6348 95.4476 40.6147C95.6254 40.4438 95.6958 40.1824 95.6053 39.9377C95.461 39.5355 95.1254 39.4249 94.8805 39.4517C94.6859 39.4718 94.555 39.5623 94.4544 39.6796C93.7196 38.8886 92.9982 38.0373 92.8808 37.7994C92.5687 37.1726 91.1226 35.9325 90.6898 35.5672C90.4213 35.3393 90.0187 35.3762 89.7905 35.6443C89.5657 35.9124 89.5993 36.3146 89.8677 36.5425C90.465 37.0453 91.1427 37.6687 91.5017 38.0641C91.2367 38.158 90.9481 38.2485 90.7065 38.2954C90.6495 38.3055 90.5891 38.3155 90.5287 38.3222C90.6898 38.0641 90.6562 37.7256 90.4213 37.5145C90.1596 37.2799 89.757 37.3033 89.5221 37.5681C89.3745 37.7357 89.1094 38.0574 89.0155 38.3189C88.9886 38.3893 88.9853 38.4596 88.9853 38.5334C88.69 38.5769 88.3847 38.6306 88.0793 38.701C87.6901 38.7914 87.1533 38.6775 86.5896 38.5568C86.244 38.4831 85.8917 38.4127 85.5293 38.3725C85.583 38.2854 85.6401 38.1949 85.7005 38.1111C85.9018 37.8228 85.8347 37.4273 85.5461 37.2229C85.2576 37.0218 84.8616 37.0888 84.657 37.3771C84.2812 37.9066 84.1637 38.2116 84.1268 38.396C83.9691 38.4127 83.8181 38.4261 83.647 38.4462C82.9558 38.5267 82.1271 38.6138 81.0903 38.5937C81.1238 38.5501 81.154 38.5032 81.1742 38.4462C81.295 38.1178 81.1272 37.7491 80.795 37.6284C80.0535 37.357 79.4563 38.101 79.2281 38.4429C78.1041 38.2887 77.1445 38.0541 76.5909 37.8999C76.611 37.6955 76.6211 37.4977 76.6076 37.3134C76.5841 36.9615 76.2755 36.6967 75.9299 36.7202C75.7386 36.7336 75.5776 36.8341 75.4668 36.9749C75.3964 36.8241 75.2655 36.7 75.0944 36.6431C75.0642 36.633 74.9937 36.6163 74.9031 36.5995C74.8562 36.5928 74.7555 36.5727 74.6817 36.5526C74.5307 36.385 74.2925 36.3046 74.0543 36.3615C73.712 36.4453 73.504 36.7905 73.5879 37.1324C73.7221 37.6787 74.3361 37.7893 74.7253 37.8597C74.779 37.8731 74.836 37.8798 74.8897 37.8798C75.0541 37.8798 75.2051 37.8094 75.3226 37.7022C75.2924 38.1077 75.1783 38.6038 75.0273 39.1065C75.0004 38.9858 74.9535 38.8719 74.8629 38.778C74.6985 38.5836 74.3864 38.225 73.9435 38.2988C73.6986 38.339 73.4939 38.5066 73.4 38.7445C73.2691 39.0696 73.4268 39.4417 73.7556 39.5724C73.8026 39.5925 73.8529 39.6059 73.9033 39.6126C73.9368 39.6495 73.9637 39.6796 73.9804 39.6964C74.1012 39.817 74.2589 39.8774 74.42 39.8774C74.5676 39.8774 74.7152 39.817 74.836 39.7131C74.685 40.1556 74.5274 40.5711 74.4066 40.8896C74.3395 41.0638 74.2791 41.2214 74.2321 41.3521C74.212 41.409 74.1885 41.4794 74.1616 41.5565C74.1079 41.3588 74.0341 41.1041 74.0006 41.0169C73.8731 40.6952 73.5141 40.5443 73.1886 40.665C72.8631 40.7857 72.6987 41.151 72.8128 41.4794C72.843 41.5699 72.9336 41.8984 72.9906 42.1196C73.0644 42.4045 73.3228 42.5955 73.608 42.5955C73.6617 42.5955 73.7154 42.5888 73.7691 42.5754C73.806 42.5654 73.8328 42.5419 73.8664 42.5285C73.7758 42.8402 73.6818 43.1753 73.5879 43.5172C73.5073 43.3865 73.3832 43.2792 73.2255 43.2323C72.8866 43.1351 72.5343 43.3295 72.437 43.668C72.3531 43.9529 72.4504 44.2311 72.786 44.697C72.89 44.8411 73.0443 44.9115 73.2087 44.9383C73.0611 45.5014 72.947 45.9471 72.9101 46.1013C72.7021 46.9861 73.5275 47.6665 74.3999 48.3837C75.2454 49.0775 75.9735 49.0071 76.5539 48.9535C76.7687 48.9334 76.97 48.9133 77.1847 48.9267C77.3928 48.9401 77.4968 49.0306 77.5471 49.1043C77.5739 49.1446 77.5874 49.1814 77.5941 49.2116C76.9834 49.3322 75.0407 49.1848 74.4233 49.0507C74.0039 48.9166 72.2357 47.3783 71.1586 46.2153C70.6923 45.7125 70.7761 45.5081 70.9607 45.0623C71.0244 44.9081 71.0815 44.7573 71.1217 44.6065C71.1586 44.4624 71.2627 44.0602 71.1956 42.1933C71.2056 42.2201 71.2157 42.2369 71.2224 42.2503C71.3365 42.4782 71.5713 42.6156 71.8096 42.6156C71.9035 42.6156 71.9941 42.5955 72.0847 42.5519C72.4001 42.3944 72.5343 42.0291 72.3766 41.714C72.3531 41.6537 72.2927 41.4023 72.2424 41.1811C72.1652 40.8359 71.823 40.6181 71.4841 40.6952C71.3365 40.7287 71.219 40.8158 71.1318 40.9231C71.0714 40.3533 70.5715 39.3545 69.9709 38.3825C69.9809 38.3825 69.991 38.3825 70.0011 38.3825C70.3031 38.3524 70.5346 38.1144 70.5715 37.8262C70.595 37.7726 70.6486 37.6787 70.6956 37.6117C70.8902 37.3201 70.8097 36.9246 70.5178 36.7302C70.2259 36.5358 69.83 36.6129 69.6353 36.9078C69.4844 37.1358 69.4005 37.31 69.3569 37.4475C68.4006 36.0766 66.8001 33.382 66.7834 33.3551C66.6022 33.0535 66.213 32.953 65.911 33.1306C65.609 33.3082 65.5083 33.7004 65.6862 34.002C65.7533 34.1126 67.3303 36.7704 68.3167 38.1815C68.4006 38.2988 68.4711 38.4094 68.5482 38.5233C68.1657 38.8752 67.5383 39.4249 66.8739 39.8975C66.6156 40.0818 66.2868 40.3097 65.9244 40.5544C65.9915 40.2226 65.7902 39.8941 65.458 39.8137C65.1191 39.7299 64.7702 39.9343 64.6863 40.2762C64.6125 40.5745 64.6024 40.8326 64.6024 40.9599C64.6024 41.1041 64.6595 41.2314 64.74 41.3387C63.881 41.9017 63.0221 42.4413 62.5188 42.7262C62.2638 42.8704 61.9786 43.0413 61.6934 43.2223C61.6867 43.1821 61.68 43.1485 61.6766 43.1284C61.6565 42.7933 61.3813 42.5285 61.0391 42.5285C60.6868 42.5285 60.4016 42.8134 60.4016 43.1653C60.4016 43.2826 60.4184 43.658 60.5627 43.963C60.2171 44.2009 59.9386 44.4087 59.7977 44.5394C59.489 44.8243 58.0764 47.0464 58.1334 47.7168C58.1703 48.1625 58.5461 48.4742 58.9119 48.7759C58.9823 48.8329 59.0796 48.9133 59.1367 48.9703C59.1568 49.0809 59.1602 49.2451 59.1434 49.3456C58.9018 49.3892 58.3616 49.3457 58.1435 48.9971C58.0395 48.8329 57.9355 48.6921 57.8382 48.558C57.5228 48.1324 57.459 48.0419 57.6368 47.6196C57.9724 46.8118 59.4755 43.1552 59.6198 42.6894C59.6769 42.5721 60.0392 42.3576 60.2305 42.2436C60.3479 42.1732 60.462 42.1062 60.5627 42.0392C60.7908 41.885 61.2908 41.3253 61.8544 40.598C61.8712 40.7488 61.9048 40.9365 61.935 41.0873C61.9954 41.3923 62.2604 41.6034 62.5591 41.6034C62.5993 41.6034 62.6396 41.6001 62.6798 41.5934C63.0254 41.5264 63.2502 41.1912 63.1831 40.846C63.1831 40.8426 63.1227 40.5477 63.116 40.427C63.1093 40.0785 62.8275 39.8003 62.4785 39.8003C62.4651 39.8003 62.455 39.807 62.4416 39.807C63.059 38.9389 63.6697 37.9703 64.0287 37.1827C64.8339 35.4097 65.8237 32.0681 65.8674 31.924C65.9412 31.676 65.8573 31.4079 65.6526 31.247C65.4513 31.0861 65.1695 31.0626 64.9447 31.19C63.9716 31.7363 62.6866 32.2391 60.462 32.0782C60.5996 31.857 60.5895 31.5855 60.4352 31.3743C60.9418 31.4045 61.435 31.3844 61.9148 31.3274C61.9417 31.4213 61.9819 31.5151 62.0524 31.5922L62.2 31.7497C62.3242 31.8871 62.4987 31.9575 62.6698 31.9575C62.8241 31.9575 62.9785 31.9005 63.0993 31.7899C63.3039 31.6023 63.3509 31.3107 63.2469 31.0693C64.032 30.8649 64.7635 30.5901 65.4278 30.3052C65.505 30.4862 65.656 30.6336 65.864 30.6806L66.1022 30.7342C66.1492 30.7442 66.1962 30.7509 66.2398 30.7509C66.5317 30.7509 66.7968 30.5499 66.8605 30.2516C66.9041 30.0572 66.8438 29.8661 66.7297 29.722L66.8974 29.6449C67.4712 29.3868 68.0517 29.1723 68.6422 28.9779C68.6355 29.2796 68.8334 29.5511 69.1388 29.6148C69.1824 29.6248 69.226 29.6282 69.2696 29.6282C69.5649 29.6282 69.83 29.4204 69.8937 29.1221L69.9541 28.8338C69.9709 28.75 69.9709 28.6696 69.9541 28.5925C70.34 28.4953 70.7258 28.4048 71.1117 28.3311C71.0681 28.4853 71.0647 28.6428 71.1117 28.7936C71.1956 29.0617 71.417 29.2628 71.7156 29.3433C71.7727 29.36 71.8297 29.3667 71.8834 29.3667C72.1652 29.3667 72.4202 29.1824 72.4974 28.8975C72.5477 28.7165 72.5142 28.5355 72.4202 28.3881C72.4202 28.3043 72.4001 28.2272 72.3665 28.1501C72.4605 28.14 72.5544 28.1199 72.6484 28.1099C73.1852 28.0563 73.7456 28.0663 74.3059 28.1065C74.0006 28.1099 73.7288 28.3177 73.6751 28.626C73.6348 28.8707 73.7355 29.1053 73.92 29.2427C73.9435 29.3165 73.9804 29.3902 74.0341 29.4539C74.1616 29.608 74.3428 29.6885 74.5274 29.6885C74.6683 29.6885 74.8126 29.6416 74.93 29.5444C75.185 29.3332 75.2924 29.0349 75.2152 28.7433C75.1011 28.3143 74.6783 28.1669 74.4871 28.1199C75.0306 28.1669 75.5675 28.2439 76.0809 28.3311C76.0205 28.3713 75.9634 28.4182 75.9198 28.4819C75.7587 28.7098 75.7655 29.0081 75.9198 29.226C75.9131 29.3969 75.9735 29.5712 76.1043 29.7019C76.2285 29.8259 76.3929 29.8896 76.5539 29.8896C76.715 29.8896 76.8794 29.8259 77.0036 29.7019C77.1747 29.531 77.2619 29.2963 77.2418 29.0584C77.225 28.8573 77.1344 28.6629 76.9868 28.502C77.1646 28.5355 77.3391 28.5724 77.5035 28.6059C78.0705 28.7199 78.5571 28.8171 78.9328 28.8573C79.1073 28.8774 79.3523 28.8975 79.6375 28.9243C79.7046 29.2394 79.869 29.5611 80.0736 29.6952C80.181 29.7689 80.3052 29.8024 80.4259 29.8024C80.6306 29.8024 80.8353 29.7019 80.9561 29.5176C81.0567 29.3701 81.0769 29.1958 81.04 29.0349C82.0331 29.1053 83.1672 29.179 84.1503 29.2327C84.1067 29.417 84.0832 29.6215 84.1235 29.8058C84.1872 30.1074 84.4623 30.3353 84.761 30.3353C84.8012 30.3353 84.8415 30.332 84.8851 30.3219C85.2307 30.2482 85.4522 29.9365 85.3783 29.5946C85.3783 29.5678 85.3951 29.5041 85.4052 29.4706C85.4354 29.4137 85.4488 29.3533 85.4622 29.2964C85.6401 29.3031 85.8078 29.3098 85.9454 29.3131C86.7775 29.3332 88.3377 29.2662 89.0088 28.8975C89.0826 29.169 89.3174 29.3734 89.6127 29.3734C89.965 29.3734 90.2502 29.0885 90.2502 28.7366V28.2775C90.2502 28.2607 90.2435 28.2473 90.2402 28.2305C90.4515 28.14 90.6696 28.063 90.8877 28.016C90.8844 28.0428 90.8709 28.0663 90.8709 28.0931C90.8709 28.445 91.1561 28.7299 91.5085 28.7299H91.6427C91.995 28.7299 92.2802 28.445 92.2802 28.0931C92.2802 28.0797 92.2735 28.0663 92.2735 28.0529C92.4748 28.0898 92.6761 28.1333 92.8808 28.1836C93.2129 28.2607 93.5552 28.3378 93.9075 28.3814C94.2128 28.4182 94.7362 28.4383 95.2764 28.4316C95.2261 28.4719 95.1758 28.5154 95.1389 28.5724L95.0516 28.7065C94.8604 29.0014 94.9443 29.3969 95.2395 29.5879C95.3469 29.6583 95.4677 29.6885 95.5851 29.6885C95.7931 29.6885 95.9978 29.5846 96.122 29.3969L96.2092 29.2628C96.3937 28.9746 96.3166 28.5992 96.0381 28.4015C96.0582 28.4015 96.0817 28.3981 96.1018 28.3981C96.4642 28.368 97.1588 28.3445 97.8533 28.3244C97.8533 28.5054 97.9237 28.6864 98.0747 28.8104L98.1553 28.8774C98.2761 28.9779 98.4203 29.0249 98.5613 29.0249C98.7458 29.0249 98.9236 28.9478 99.0511 28.797C99.1753 28.6495 99.2122 28.4618 99.182 28.2842C99.3867 28.2775 99.5678 28.2708 99.7088 28.2641C100.034 28.2473 100.42 28.2506 100.793 28.2708C100.776 28.2909 100.756 28.311 100.739 28.3311C100.521 28.6059 100.568 29.0081 100.843 29.226C101.118 29.4438 101.521 29.3969 101.739 29.1221C101.96 28.8439 102.289 28.616 102.598 28.4584C102.601 28.4584 102.601 28.4551 102.604 28.4551C102.886 28.311 103.155 28.2272 103.306 28.2171C103.198 28.4082 102.93 28.7098 102.668 28.921C102.393 29.1422 102.349 29.541 102.571 29.8158C102.698 29.9734 102.883 30.0538 103.067 30.0538C103.208 30.0538 103.346 30.0069 103.467 29.913C103.494 29.8929 103.53 29.8628 103.567 29.8293C103.524 29.9164 103.494 30.0102 103.494 30.1108V30.3219C103.494 30.6739 103.779 30.9587 104.131 30.9587C104.443 30.9587 104.688 30.7308 104.745 30.4359C104.795 30.4761 104.842 30.513 104.886 30.5398C105.097 30.6806 105.326 31.123 105.5 31.495C105.651 31.8201 105.805 32.162 105.943 32.4703C106.077 32.7686 106.198 33.0434 106.299 33.2479C106.497 33.6601 106.49 33.7909 106.5 33.7909C106.08 34.0958 105.933 34.1126 105.936 34.116C105.836 34.0992 105.691 34.0556 105.557 34.0188C105.232 33.9283 105.054 33.878 104.849 33.9283C104.507 34.0121 104.299 34.3606 104.386 34.6991C104.423 34.85 104.514 34.9706 104.628 35.0544C104.376 35.1516 104.366 35.1449 104.111 34.9002C103.567 34.3774 102.96 33.8746 102.185 33.7372C101.994 33.7037 101.625 33.6836 101.172 33.6903C101.229 33.5495 101.242 33.3853 101.185 33.2311C101.064 32.8993 100.699 32.7317 100.366 32.8524L100.219 32.906C99.8866 33.0267 99.7188 33.392 99.8396 33.7238C99.8463 33.7439 99.8631 33.7607 99.8732 33.7808C99.5075 33.8244 99.1417 33.888 98.7961 33.9718C98.8263 33.7272 98.8599 33.5395 98.88 33.4758C99.0109 33.1507 98.8532 32.7787 98.5244 32.648C98.1955 32.5172 97.8265 32.6748 97.6956 33.0032C97.6084 33.2211 97.501 33.8713 97.4607 34.5852C97.3836 34.555 97.2963 34.5148 97.2158 34.4779C96.897 34.3305 96.5179 34.4712 96.3703 34.793C96.2226 35.1114 96.3635 35.4901 96.6857 35.6376C97.1353 35.842 97.3534 35.9024 97.4876 35.9158C97.501 36.013 97.5111 36.1135 97.5278 36.204C97.5513 36.318 97.5882 36.4721 97.6352 36.6565C97.605 36.6699 97.5748 36.6699 97.5446 36.6866L97.4104 36.7671C97.1084 36.9481 97.0111 37.3402 97.1923 37.6418C97.3131 37.8396 97.5245 37.9502 97.7392 37.9502C97.8264 37.9502 97.9103 37.9267 97.9942 37.8899C98.2861 38.8116 98.6753 39.8673 99.0545 40.5812C98.9941 40.6114 98.9337 40.6449 98.8834 40.6952L98.7458 40.8292C98.5713 40.9968 98.3566 41.2046 98.4002 41.5565C98.4237 41.7543 98.578 41.9688 98.7525 42.0693C98.8532 42.1263 98.9605 42.1531 99.0679 42.1531C99.2894 42.1531 99.5041 42.0392 99.6215 41.8314C99.645 41.7878 99.6651 41.7442 99.6786 41.6973L99.7591 41.6202C100.048 42.0257 100.437 42.5888 100.843 43.1787C101.964 44.8076 102.786 45.9907 103.165 46.3862C104.071 47.328 105.319 47.9346 106.507 48.0151C106.705 48.0285 106.849 48.0754 106.896 48.1458C106.939 48.1994 106.963 48.3603 106.923 48.5882Z" fill="#FFDE3B"/>
<path d="M80.3357 33.9986C80.3659 33.8746 80.3558 33.7506 80.3122 33.6366C80.5102 33.4121 80.5269 33.0702 80.3357 32.8255C80.1176 32.5473 79.7183 32.4971 79.4398 32.7149C79.1815 32.916 78.8661 33.4054 78.9701 33.8746C79.0372 34.1762 79.2653 34.4041 79.5673 34.4745C79.6143 34.4846 79.6646 34.4913 79.7116 34.4913C80.0069 34.4913 80.2686 34.2935 80.3357 33.9986Z" fill="#FFDE3B"/>
<path d="M82.889 35.5939C83.04 35.5637 83.3185 35.4565 83.4896 35.071C83.5567 34.9169 83.7647 34.2599 83.5299 33.8678C83.295 33.479 82.842 33.4623 82.1877 33.5662C81.8388 33.6198 81.6006 33.9449 81.6576 34.2935C81.6979 34.5582 81.8992 34.7593 82.1475 34.8163C82.124 34.9068 82.1206 35.0007 82.1408 35.0945C82.2012 35.3961 82.4662 35.6073 82.7649 35.6073C82.8051 35.6073 82.8454 35.6039 82.889 35.5939Z" fill="#FFDE3B"/>
<path d="M84.6275 32.5575C84.8255 32.3631 84.8792 32.0547 84.7383 31.8C84.5705 31.4917 84.1846 31.3777 83.8726 31.5453C83.4029 31.8 83.1546 32.1955 83.2049 32.6078C83.2485 32.9496 83.4968 33.2278 83.8458 33.3183C83.8994 33.3317 83.9531 33.3384 84.0035 33.3384C84.2887 33.3384 84.547 33.1474 84.6208 32.8625C84.651 32.7586 84.651 32.6547 84.6275 32.5575Z" fill="#FFDE3B"/>
<path d="M81.8893 33.1171C81.9094 33.1171 81.9296 33.1204 81.9463 33.1204C82.2718 33.1204 82.5503 32.8724 82.5805 32.5406C82.6006 32.3194 82.5067 32.1149 82.3423 31.9876C82.3355 31.763 82.208 31.5452 81.99 31.4379C81.6746 31.2804 81.2921 31.4077 81.1344 31.7228C80.9834 32.0244 80.9867 32.3596 81.1411 32.6411C81.2954 32.9093 81.5739 33.0869 81.8893 33.1171Z" fill="#FFDE3B"/>
<path d="M79.9557 31.8668C80.0362 31.8668 80.1201 31.8501 80.2006 31.8166C80.4489 31.7127 80.8884 31.4244 80.9723 30.9954C81.0193 30.7608 80.9488 30.5228 80.7844 30.3586C80.5361 30.1106 80.1335 30.1106 79.8819 30.3586C79.8013 30.4391 79.7476 30.5329 79.7208 30.6335C79.7174 30.6368 79.7141 30.6368 79.7107 30.6402C79.3853 30.7742 79.2343 31.1496 79.3685 31.4747C79.4658 31.7194 79.704 31.8668 79.9557 31.8668Z" fill="#FFDE3B"/>
<path d="M78.3495 30.5498C78.3663 30.5532 78.3865 30.5532 78.4032 30.5532C78.732 30.5532 79.0105 30.3018 79.0374 29.97C79.0541 29.7823 78.987 29.608 78.8663 29.4807C78.8998 29.1455 78.6649 28.8405 78.3261 28.7902C77.9805 28.7333 77.6517 28.9779 77.6013 29.3265C77.5678 29.5376 77.5107 29.9298 77.7624 30.2448C77.9033 30.4225 78.1113 30.5297 78.3495 30.5498Z" fill="#FFDE3B"/>
<path d="M73.1585 29.3168C72.8297 29.1961 72.4639 29.367 72.3398 29.6989C72.2459 29.9603 72.3331 30.2418 72.5344 30.4094C72.5445 30.4597 72.5646 30.5099 72.5881 30.5602C72.6988 30.7848 72.9236 30.9121 73.1585 30.9121C73.2524 30.9121 73.3531 30.892 73.4437 30.8451C73.7188 30.7077 73.8765 30.4396 73.8598 30.1413C73.843 29.786 73.5645 29.4642 73.1585 29.3168Z" fill="#FFDE3B"/>
<path d="M74.7254 31.314C74.8361 31.4012 74.967 31.4414 75.0978 31.4414C75.2824 31.4414 75.4669 31.3576 75.5944 31.1967C75.6246 31.1565 75.6514 31.1163 75.6716 31.0727C75.8628 30.9353 75.9568 30.6906 75.9064 30.4325C75.8393 30.0873 75.477 29.8695 75.1347 29.9332C74.9435 29.97 74.4972 30.0505 74.3865 30.5096C74.3462 30.6839 74.3328 31.0157 74.7254 31.314Z" fill="#FFDE3B"/>
<path d="M76.833 31.8472C76.9404 31.931 77.078 31.9813 77.2256 31.9813C77.2424 31.9813 77.2625 31.9813 77.2793 31.9779C77.6282 31.9478 77.8899 31.6394 77.8631 31.2908C77.843 31.0495 77.7255 30.8417 77.5343 30.7043C77.1753 30.4462 76.7089 30.5636 76.5344 30.6071C76.1922 30.6909 75.9842 31.0395 76.0714 31.378C76.1553 31.7199 76.4975 31.9243 76.833 31.8472Z" fill="#FFDE3B"/>
<path d="M77.3859 32.6781C77.3859 32.6882 77.3825 32.6982 77.3825 32.7116C77.2282 32.8289 77.1309 33.0099 77.1309 33.2177C77.1309 33.5697 77.4161 33.8545 77.7684 33.8545C78.3857 33.8545 78.6609 33.1809 78.6609 32.7016C78.6609 32.3597 78.3925 32.0983 78.0502 32.0815C77.7013 32.0648 77.4127 32.3396 77.3859 32.6781Z" fill="#FFDE3B"/>
<path d="M76.5699 34.3609C76.6438 34.1498 76.6001 33.9286 76.476 33.761C76.5934 33.4526 76.4525 33.0974 76.1472 32.9566C75.8284 32.8091 75.4493 32.9465 75.3016 33.2683C75.1305 33.6403 75.1037 33.9721 75.2211 34.2537C75.3184 34.4849 75.5097 34.6592 75.7579 34.7463C75.8284 34.7698 75.8989 34.7832 75.9693 34.7832C76.231 34.7866 76.4793 34.6223 76.5699 34.3609Z" fill="#FFDE3B"/>
<path d="M74.5918 33.1206C74.7394 33.1206 74.8837 33.0703 75.0045 32.9698C75.0682 32.9162 75.1186 32.8525 75.1555 32.7855C75.3534 32.6614 75.4776 32.4302 75.4507 32.1822C75.4172 31.8336 75.1051 31.5755 74.7528 31.6124C74.3871 31.6493 74.0986 31.847 73.9811 32.1386C73.8771 32.3933 73.9275 32.6849 74.1053 32.8961C74.2294 33.0435 74.4106 33.1206 74.5918 33.1206Z" fill="#FFDE3B"/>
<path d="M78.3425 35.9492C78.0506 36.1268 77.6782 36.6966 77.7587 37.1893C77.8124 37.501 78.0808 37.7222 78.3861 37.7222C78.4197 37.7222 78.4566 37.7188 78.4935 37.7121C78.8123 37.6585 79.0337 37.3803 79.027 37.0686C79.0337 37.0552 79.0404 37.0385 79.0505 37.0251C79.1142 36.9848 79.1713 36.9346 79.2183 36.8709C79.4296 36.5894 79.3726 36.1905 79.0941 35.9794C78.8794 35.8218 78.564 35.8151 78.3425 35.9492Z" fill="#FFDE3B"/>
<path d="M80.5697 35.2256C80.3348 35.2959 80.1469 35.4669 80.0362 35.7082C79.8919 36.0232 79.8718 36.4791 79.9926 36.7438C80.1 36.9818 80.3315 37.1192 80.5731 37.1192C80.6603 37.1192 80.7475 37.1025 80.8348 37.0622C81.1267 36.9315 81.271 36.6131 81.1904 36.3148C81.1904 36.3081 81.1904 36.3014 81.1904 36.2947C81.3616 36.1338 81.4354 35.8858 81.3649 35.6479C81.2609 35.3161 80.9052 35.125 80.5697 35.2256Z" fill="#FFDE3B"/>
<path d="M77.7956 34.4845C77.4802 34.327 77.0977 34.4544 76.94 34.7694C76.9166 34.8163 76.8058 34.9269 76.7454 34.9839C76.5609 35.1649 76.2522 35.4665 76.3998 35.9056C76.4904 36.1737 76.7387 36.3413 77.0038 36.3413C77.0709 36.3413 77.138 36.3313 77.2051 36.3078C77.393 36.2441 77.5339 36.1034 77.5977 35.9324C77.6111 35.919 77.6245 35.9056 77.6379 35.8922C77.7722 35.7581 77.9601 35.5772 78.0775 35.3392C78.2385 35.0241 78.111 34.6421 77.7956 34.4845Z" fill="#FFDE3B"/>
<path d="M82.8379 36.5591C82.7574 36.6797 82.7138 36.787 82.6802 36.8775C82.6467 36.9646 82.6265 37.0115 82.5728 37.0752C82.348 37.3467 82.385 37.7455 82.6534 37.9734C82.7742 38.074 82.9184 38.1209 83.0627 38.1209C83.2473 38.1209 83.4251 38.0438 83.5526 37.893C83.7405 37.6684 83.8177 37.474 83.868 37.3433C83.878 37.3165 83.8881 37.2897 83.9015 37.2662C84.0961 36.9747 84.0156 36.5792 83.7237 36.3848C83.4284 36.187 83.0325 36.2675 82.8379 36.5591Z" fill="#FFDE3B"/>
<path d="M86.0224 35.2286C86.0325 35.071 85.9822 34.9068 85.8714 34.7761C85.6433 34.508 85.2407 34.4778 84.9722 34.7057C84.5931 35.0275 84.5897 35.3794 84.6233 35.5604C84.687 35.9123 84.9622 36.1771 85.4353 36.348C85.5057 36.3748 85.5795 36.3849 85.65 36.3849C85.9117 36.3849 86.1566 36.224 86.2506 35.9626C86.3512 35.6844 86.2472 35.3894 86.0224 35.2286Z" fill="#FFDE3B"/>
<path d="M87.7234 36.9581C87.4449 36.9916 86.945 37.2262 86.7168 37.6351C86.5457 37.9401 86.6464 38.339 86.9517 38.5132C87.0523 38.5702 87.1631 38.597 87.2704 38.597C87.4885 38.597 87.6966 38.4864 87.814 38.2786C87.8341 38.2585 87.8945 38.2216 87.8845 38.2183C88.2334 38.1747 88.4817 37.8563 88.4381 37.5078C88.3911 37.1625 88.0724 36.9145 87.7234 36.9581Z" fill="#FFDE3B"/>
<path d="M82.5561 31.1901C82.5729 31.1901 82.5897 31.1901 82.6064 31.1867C82.9587 31.1633 83.2238 30.8616 83.2003 30.5097C83.1802 30.2282 82.9822 30.0002 82.7239 29.9332C82.5964 29.7221 82.3481 29.5947 82.0864 29.6316C81.7374 29.6818 81.4959 30.0036 81.5462 30.3522C81.5999 30.7342 82.0797 31.1901 82.5561 31.1901Z" fill="#FFDE3B"/>
<path d="M85.6504 31.9676L86.0799 31.4984L85.6572 31.9743C85.7779 32.0816 85.9289 32.1352 86.0799 32.1352C86.2544 32.1352 86.4289 32.0648 86.5564 31.9207C86.7476 31.7062 86.7678 31.3945 86.6235 31.1632C86.6637 30.989 86.6302 30.8013 86.5161 30.6471C86.3081 30.3622 85.9088 30.3019 85.627 30.5097C85.3988 30.6773 85.2646 30.9119 85.2512 31.1699C85.231 31.5956 85.5464 31.8738 85.6504 31.9676Z" fill="#FFDE3B"/>
<path d="M87.0797 33.9118C87.2005 33.6135 87.0763 33.2817 86.8079 33.1242C86.7073 32.8494 86.4187 32.6751 86.1201 32.7119C85.7711 32.7622 85.5295 33.084 85.5799 33.4325C85.647 33.9051 86.0362 34.1799 86.2543 34.2671C86.3315 34.2972 86.412 34.314 86.4892 34.314C86.7408 34.314 86.9824 34.1632 87.0797 33.9118Z" fill="#FFDE3B"/>
<path d="M88.7475 34.4414C88.7307 34.4146 88.7105 34.3777 88.7005 34.3509C88.5864 34.0191 88.224 33.8415 87.8885 33.9588C87.5563 34.0727 87.3785 34.4347 87.4959 34.7699C87.5228 34.8503 87.7811 35.5508 88.3247 35.6044C88.3482 35.6078 88.3683 35.6078 88.3918 35.6078C88.7139 35.6078 88.9924 35.3631 89.0259 35.0347C89.0461 34.7933 88.932 34.5721 88.7475 34.4414Z" fill="#FFDE3B"/>
<path d="M85.6533 40.7989C85.6097 40.8425 85.5728 40.8794 85.5426 40.9095C85.2607 41.0034 85.0762 41.2849 85.1131 41.5899C85.1534 41.915 85.4251 42.153 85.7439 42.153C85.7707 42.153 85.7942 42.153 85.8211 42.1496C86.0761 42.1195 86.274 42.0524 86.4552 41.8111C86.4686 41.7943 86.4888 41.7675 86.529 41.7307C86.784 41.4894 86.7975 41.0872 86.5559 40.8291C86.3143 40.571 85.9083 40.561 85.6533 40.7989Z" fill="#FFDE3B"/>
<path d="M71.6689 38.1848C71.4039 38.4629 71.1824 38.9556 71.4441 39.4114C71.5616 39.6192 71.7763 39.7365 72.0011 39.7365C72.1085 39.7365 72.2159 39.7097 72.3132 39.6528C72.5447 39.522 72.6621 39.2673 72.6319 39.0159C72.8366 38.7612 72.8131 38.3892 72.5715 38.1579C72.3165 37.92 71.9139 37.93 71.6689 38.1848Z" fill="#FFDE3B"/>
<path d="M72.6512 35.0949C72.4331 35.0312 72.1748 35.0983 72.0104 35.2558C71.6782 35.5742 71.6782 36.4121 71.7117 36.5462C71.7822 36.8378 72.0439 37.0322 72.3291 37.0322C72.3795 37.0322 72.4298 37.0255 72.4801 37.012C72.7854 36.9383 72.9834 36.6568 72.9633 36.3551C72.9666 36.2881 72.9834 36.1574 73.0002 36.0635C73.0371 36.0066 73.0673 35.9462 73.0874 35.8792C73.1847 35.5407 72.9901 35.1888 72.6512 35.0949Z" fill="#FFDE3B"/>
<path d="M73.4468 33.3817C73.1918 33.1371 72.7891 33.1471 72.5442 33.4018C72.3026 33.6566 72.3093 34.0588 72.5643 34.3034L72.6382 34.3738C72.7623 34.4911 72.92 34.5515 73.0777 34.5515C73.2455 34.5515 73.4132 34.4844 73.5374 34.3537C73.779 34.099 73.7722 33.6968 73.5172 33.4521L73.4468 33.3817Z" fill="#FFDE3B"/>
<path d="M69.9073 34.4611C69.5785 34.3337 69.2094 34.4946 69.0819 34.8231L68.988 35.061C68.8605 35.3895 69.0215 35.7582 69.3504 35.8855C69.4275 35.9157 69.5047 35.9291 69.5819 35.9291C69.8369 35.9291 70.0785 35.7749 70.1758 35.5235L70.2697 35.2856C70.3972 34.9571 70.2328 34.5884 69.9073 34.4611Z" fill="#FFDE3B"/>
<path d="M71.7791 34.7863C71.8093 34.5651 71.8764 34.1093 71.5006 33.8613C71.2054 33.6669 70.8095 33.7473 70.6182 34.0389C70.5175 34.1897 70.4907 34.3673 70.5276 34.5316C70.5243 34.5684 70.5175 34.602 70.5175 34.6087C70.4672 34.9572 70.7122 35.279 71.0577 35.3293C71.0879 35.3326 71.1181 35.336 71.1483 35.336C71.4604 35.336 71.7355 35.1047 71.7791 34.7863Z" fill="#FFDE3B"/>
<path d="M71.8635 33.0835C72.2158 33.0835 72.4977 32.8288 72.4977 32.4769C72.5044 32.4333 72.5245 32.3663 72.5413 32.3026C72.6017 32.0646 72.6419 31.9071 72.5748 31.7093C72.4641 31.3775 72.1017 31.1966 71.7662 31.3072C71.5146 31.3909 71.3502 31.6189 71.3334 31.8702C71.3267 31.9004 71.3132 31.9406 71.3032 31.9842C71.2529 32.1719 71.2227 32.2959 71.2227 32.4165C71.2294 32.7685 71.5112 33.0835 71.8635 33.0835Z" fill="#FFDE3B"/>
<path d="M64.9756 35.835C64.9756 35.9691 65.0662 36.3914 65.1132 36.5121C65.2105 36.7567 65.442 36.9009 65.6936 36.9009C65.7641 36.9009 65.8379 36.8874 65.9084 36.864C66.2305 36.7534 66.4049 36.3981 66.3076 36.0697C66.2875 36.0026 66.2539 35.835 66.2439 35.7714C66.2137 35.4496 65.9419 35.1982 65.6097 35.1982C65.2608 35.1982 64.9756 35.4831 64.9756 35.835Z" fill="#FFDE3B"/>
<path d="M66.8804 39.254C66.914 39.2607 66.9475 39.2607 66.9811 39.2607C67.2898 39.2607 67.5615 39.0361 67.6085 38.7244C67.6219 38.6373 67.6622 38.3289 67.5984 38.0575C67.5213 37.7223 67.1958 37.5279 66.8569 37.5949C66.518 37.662 66.2999 38.0005 66.3536 38.339C66.3603 38.3725 66.3536 38.4664 66.3469 38.5267C66.2932 38.8719 66.5314 39.2004 66.8804 39.254Z" fill="#FFDE3B"/>
<path d="M64.1663 37.4605C63.9147 37.7622 63.9012 38.3722 63.918 38.5029C63.965 38.8213 64.2435 39.076 64.5589 39.076C64.5857 39.076 64.6159 39.0727 64.6427 39.0693C64.9917 39.019 65.2366 38.7241 65.1863 38.3755C65.1863 38.3353 65.2031 38.2314 65.2165 38.1744C65.3608 37.913 65.3037 37.5778 65.0655 37.3801C64.7904 37.1522 64.3911 37.1891 64.1663 37.4605Z" fill="#FFDE3B"/>
<path d="M69.1057 33.4758L68.9849 33.1171C68.8742 32.7853 68.5152 32.601 68.1796 32.7149C67.8441 32.8255 67.6663 33.1875 67.777 33.5193L67.8978 33.8779C67.9884 34.1461 68.2367 34.3137 68.5017 34.3137C68.5688 34.3137 68.6359 34.3036 68.703 34.2801C69.0352 34.1695 69.2164 33.8076 69.1057 33.4758Z" fill="#FFDE3B"/>
<path d="M70.7494 33.1472V33.0064C70.7494 32.6545 70.4642 32.3696 70.1119 32.3696C69.7596 32.3696 69.4744 32.6545 69.4744 33.0064V33.1472C69.4744 33.4991 69.7596 33.784 70.1119 33.784C70.4642 33.784 70.7494 33.4991 70.7494 33.1472Z" fill="#FFDE3B"/>
<path d="M68.3036 31.2365C68.3942 31.5013 68.6425 31.6656 68.9075 31.6656C68.9746 31.6656 69.0451 31.6555 69.1156 31.632C69.4477 31.5181 69.6256 31.1561 69.5115 30.8243L69.3907 30.4757C69.2766 30.1439 68.9142 29.9629 68.5821 30.0802C68.2499 30.1942 68.0721 30.5562 68.1862 30.888L68.3036 31.2365Z" fill="#FFDE3B"/>
<path d="M73.806 35.4634C73.8966 35.7281 74.1449 35.8924 74.41 35.8924C74.4771 35.8924 74.5476 35.8823 74.618 35.8588C74.9502 35.7449 75.128 35.3829 75.014 35.0511L74.8932 34.7025C74.7791 34.3707 74.4167 34.1897 74.0845 34.3071C73.7523 34.421 73.5745 34.783 73.6886 35.1148L73.806 35.4634Z" fill="#FFDE3B"/>
<path d="M69.9974 30.8147C70.088 31.0795 70.3363 31.2437 70.6014 31.2437C70.6685 31.2437 70.7389 31.2336 70.8094 31.2102C71.1416 31.0962 71.3194 30.7342 71.2053 30.4024L71.0845 30.0539C70.9705 29.722 70.6081 29.5411 70.2759 29.6584C69.9437 29.7723 69.7659 30.1343 69.88 30.4661L69.9974 30.8147Z" fill="#FFDE3B"/>
<path d="M67.8077 31.616L67.5796 31.1803C67.4152 30.8686 67.0293 30.7513 66.7173 30.9155C66.4052 31.0797 66.2878 31.4651 66.4522 31.7768L66.6803 32.2126C66.7944 32.4304 67.0159 32.5511 67.244 32.5511C67.3447 32.5511 67.4453 32.5276 67.5393 32.4773C67.8547 32.3098 67.9721 31.9243 67.8077 31.616Z" fill="#FFDE3B"/>
<path d="M94.0782 36.6196C93.85 36.3515 93.4473 36.3213 93.1789 36.5492C92.9105 36.7771 92.8803 37.1793 93.1085 37.4475L93.2695 37.6318C93.397 37.7793 93.5749 37.853 93.7527 37.853C93.9003 37.853 94.0479 37.8027 94.1654 37.6988C94.4338 37.4709 94.464 37.0687 94.2358 36.8006L94.0782 36.6196Z" fill="#FFDE3B"/>
<path d="M96.038 35.7447C96.038 35.3023 95.7159 35.0443 95.3971 35.0175C94.9274 34.9739 94.4275 35.4967 94.3738 35.8419C94.3167 36.1905 94.5516 36.5156 94.9006 36.5726C94.9341 36.5793 94.971 36.5793 95.0046 36.5793C95.1858 36.5793 95.3535 36.5022 95.471 36.3748C95.7897 36.3413 96.038 36.0732 96.038 35.7447Z" fill="#FFDE3B"/>
<path d="M96.0682 37.3166C95.8132 37.2295 95.5448 37.3066 95.3133 37.5244C94.9945 37.8227 95.0382 38.1445 95.0717 38.2685C95.1388 38.5165 95.3368 38.7042 95.6018 38.7645C95.6488 38.7746 95.6991 38.7813 95.7461 38.7813C96.0246 38.7813 96.2762 38.5969 96.3568 38.3255C96.4037 38.2685 96.444 38.1981 96.4675 38.1244C96.5816 37.7926 96.4004 37.4306 96.0682 37.3166Z" fill="#FFDE3B"/>
<path d="M97.1312 38.6239C96.8527 38.7345 96.6682 38.9892 96.6648 39.2741C96.6581 39.4987 96.7755 39.797 97.1144 39.9512C97.1983 39.9914 97.2889 40.0081 97.3795 40.0081C97.6211 40.0081 97.8526 39.8707 97.96 39.6361C97.9734 39.6059 97.9835 39.5758 97.9935 39.5456C98.1412 39.3009 98.1076 38.9792 97.8962 38.7714C97.7016 38.577 97.3996 38.5167 97.1312 38.6239Z" fill="#FFDE3B"/>
<path d="M92.8774 33.496C93.0049 33.496 93.1357 33.4558 93.2498 33.3753C93.535 33.1709 93.5988 32.7721 93.3941 32.4872C93.3739 32.457 93.3438 32.4134 93.3203 32.3732C93.3136 32.219 93.2532 32.0682 93.1357 31.9509C92.8874 31.7029 92.4848 31.7029 92.2332 31.9509C91.9245 32.2593 91.9681 32.6883 92.3607 33.2312C92.4848 33.4055 92.6794 33.496 92.8774 33.496Z" fill="#FFDE3B"/>
<path d="M95.7766 31.8938C95.9477 31.8938 96.1189 31.8267 96.243 31.6927C96.441 31.4815 96.4645 31.1665 96.3235 30.9319C96.3437 30.6336 96.1524 30.352 95.8538 30.2716C95.5149 30.1777 95.1626 30.3822 95.072 30.7241C94.9747 31.0894 95.0787 31.4815 95.3438 31.7262C95.4646 31.8368 95.6189 31.8938 95.7766 31.8938Z" fill="#FFDE3B"/>
<path d="M96.0312 32.8591C96.0312 33.1171 96.2024 33.5193 96.4809 33.7204C96.6151 33.8176 96.7661 33.8679 96.9204 33.8679C96.9976 33.8679 97.0747 33.8545 97.1486 33.831C97.4841 33.7204 97.6653 33.3585 97.5512 33.0266C97.5009 32.8792 97.4036 32.7619 97.2794 32.6848C97.2022 32.42 96.9573 32.2256 96.6687 32.2256C96.3164 32.2223 96.0312 32.5071 96.0312 32.8591Z" fill="#FFDE3B"/>
<path d="M94.0822 33.3287C94.1359 33.6404 94.4043 33.8616 94.7097 33.8616C94.7432 33.8616 94.7801 33.8582 94.8171 33.8515C95.1626 33.7945 95.3975 33.4661 95.3405 33.1175C95.3405 33.1108 95.3371 33.0873 95.3371 33.0672C95.4613 32.8159 95.4076 32.5042 95.1895 32.3098C94.9278 32.0752 94.5218 32.0986 94.2903 32.3634C94.0185 32.665 94.042 33.0974 94.0822 33.3287Z" fill="#FFDE3B"/>
<path d="M93.2324 31.639C93.2861 31.9507 93.5545 32.1719 93.8598 32.1719C93.8934 32.1719 93.9303 32.1685 93.9672 32.1618C94.3128 32.1048 94.5477 31.7764 94.4906 31.4278C94.4906 31.4211 94.4873 31.3976 94.4873 31.3775C94.6114 31.1262 94.5578 30.8145 94.3397 30.6201C94.0779 30.3855 93.6719 30.4089 93.4404 30.6737C93.172 30.9753 93.1955 31.4077 93.2324 31.639Z" fill="#FFDE3B"/>
<path d="M91.965 35.4434C92.0187 35.7551 92.2871 35.9763 92.5925 35.9763C92.626 35.9763 92.6629 35.973 92.6998 35.9663C93.0454 35.9093 93.2803 35.5808 93.2233 35.2323C93.2233 35.2255 93.2199 35.2021 93.2199 35.182C93.3441 34.9306 93.2904 34.6189 93.0723 34.4245C92.8106 34.1899 92.4046 34.2134 92.1731 34.4781C91.9013 34.7798 91.9281 35.2121 91.965 35.4434Z" fill="#FFDE3B"/>
<path d="M90.4153 33.3383L90.375 33.2478C90.2274 32.9261 89.8482 32.7853 89.5295 32.9328C89.2107 33.0803 89.0664 33.4556 89.2141 33.7774L89.2577 33.8746C89.3416 34.0656 89.5328 34.5147 90.073 34.5147C90.4253 34.5147 90.7105 34.2299 90.7105 33.8779C90.7139 33.65 90.5931 33.4489 90.4153 33.3383Z" fill="#FFDE3B"/>
<path d="M87.6763 31.6997C87.5085 31.8103 87.3844 32.0449 87.371 32.2427C87.3542 32.5108 87.4716 32.789 87.6797 32.9666C87.8004 33.0705 87.9481 33.1208 88.0923 33.1208C88.2735 33.1208 88.4514 33.0437 88.5755 32.8996C88.7466 32.6985 88.7735 32.4237 88.6627 32.1991C88.656 32.0885 88.6225 31.9779 88.5554 31.8807C88.3641 31.5858 87.9716 31.5053 87.6763 31.6997Z" fill="#FFDE3B"/>
<path d="M87.8042 30.8985C87.9351 30.8985 88.0693 30.8583 88.1834 30.7745C88.3813 30.6271 88.4686 30.3924 88.435 30.1645C88.4719 29.9199 88.3646 29.6651 88.1431 29.5277C87.8445 29.34 87.4519 29.4339 87.264 29.7288C87.0594 30.0573 87.1298 30.4226 87.2909 30.6405C87.415 30.8114 87.6096 30.8985 87.8042 30.8985Z" fill="#FFDE3B"/>
<path d="M91.0179 31.3411C90.6656 31.3411 90.3804 31.626 90.3804 31.9779V32.1052C90.3804 32.4571 90.6656 32.742 91.0179 32.742C91.3702 32.742 91.6554 32.4571 91.6554 32.1052V31.9779C91.6554 31.626 91.3702 31.3411 91.0179 31.3411Z" fill="#FFDE3B"/>
<path d="M89.6099 31.5219C89.9622 31.5219 90.2474 31.237 90.2474 30.8851V30.6505C90.2474 30.2986 89.9622 30.0137 89.6099 30.0137C89.2576 30.0137 88.9724 30.2986 88.9724 30.6505V30.8851C88.9724 31.237 89.2576 31.5219 89.6099 31.5219Z" fill="#FFDE3B"/>
<path d="M92.4376 30.1645V29.9869C92.4376 29.635 92.1524 29.3501 91.8001 29.3501C91.4478 29.3501 91.1626 29.635 91.1626 29.9869V30.1645C91.1626 30.5165 91.4478 30.8013 91.8001 30.8013C92.1524 30.8013 92.4376 30.5165 92.4376 30.1645Z" fill="#FFDE3B"/>
<path d="M93.5284 29.7355H93.676C94.0283 29.7355 94.3135 29.4506 94.3135 29.0987C94.3135 28.7468 94.0283 28.4619 93.676 28.4619H93.5284C93.1761 28.4619 92.8909 28.7468 92.8909 29.0987C92.8909 29.4506 93.1761 29.7355 93.5284 29.7355Z" fill="#FFDE3B"/>
<path d="M97.2367 30.915C96.9347 31.096 96.8374 31.4881 97.0186 31.7898L97.1394 31.9875C97.2602 32.1853 97.4716 32.2959 97.6863 32.2959C97.7971 32.2959 97.9111 32.2657 98.0151 32.2054C98.3171 32.0244 98.4144 31.6322 98.2332 31.3306L98.1124 31.1329C97.9313 30.8312 97.5387 30.734 97.2367 30.915Z" fill="#FFDE3B"/>
<path d="M97.4712 30.4928C97.5987 30.4928 97.7296 30.4559 97.8403 30.3755L97.9343 30.3084C98.2194 30.104 98.2866 29.7052 98.0819 29.4203C97.8772 29.1354 97.4779 29.0684 97.1927 29.2728L97.0988 29.3398C96.8136 29.5443 96.7465 29.9431 96.9512 30.228C97.0787 30.3989 97.2733 30.4928 97.4712 30.4928Z" fill="#FFDE3B"/>
<path d="M99.145 30.7309C99.286 30.7309 99.4302 30.684 99.5477 30.5868L99.7591 30.4159C100.031 30.1947 100.074 29.7925 99.853 29.521C99.6316 29.2462 99.2289 29.2059 98.9572 29.4271L98.7458 29.5981C98.474 29.8193 98.4304 30.2215 98.6518 30.493C98.776 30.6505 98.9605 30.7309 99.145 30.7309Z" fill="#FFDE3B"/>
<path d="M99.5313 30.9219C99.179 30.9219 98.8938 31.2068 98.8938 31.5587V31.7196C98.8938 32.0715 99.179 32.3564 99.5313 32.3564C99.8836 32.3564 100.169 32.0715 100.169 31.7196V31.5587C100.169 31.2101 99.8836 30.9219 99.5313 30.9219Z" fill="#FFDE3B"/>
<path d="M14.5545 85.3754L21.0806 95.0314C21.1343 95.1152 21.2014 95.1655 21.292 95.199C21.4094 95.2392 21.5235 95.2593 21.6375 95.2593H22.5603C22.6945 95.2593 22.7213 95.2325 22.7213 95.0984V82.6975C22.7213 82.5634 22.6945 82.5366 22.5603 82.5366H21.5067C21.3725 82.5366 21.3456 82.5634 21.3456 82.6975V92.2228C21.3456 92.3266 21.3456 92.6015 21.1208 92.6685C20.896 92.7355 20.745 92.5043 20.688 92.4171L14.3096 82.7612C14.2559 82.6807 14.1922 82.6271 14.0982 82.597C13.9808 82.5567 13.8667 82.5366 13.7526 82.5366H12.6823C12.5481 82.5366 12.5212 82.5634 12.5212 82.6975V95.0984C12.5212 95.2325 12.5481 95.2593 12.6823 95.2593H13.7392C13.8734 95.2593 13.9003 95.2325 13.9003 95.0984V85.5732C13.9003 85.4726 13.9003 85.2011 14.1217 85.1341C14.1519 85.1241 14.1788 85.1207 14.2056 85.1207C14.3834 85.1241 14.5042 85.3017 14.5545 85.3754Z" fill="white"/>
<path d="M38.8676 92.6185C39.0387 92.5146 39.1192 92.3705 39.1192 92.1728V85.6271C39.1192 85.426 39.042 85.2886 38.8676 85.1813L33.234 81.88C33.1401 81.8264 33.0529 81.7996 32.9723 81.7996C32.9354 81.7996 32.8515 81.8096 32.6972 81.8867L27.1039 85.1813C26.9194 85.2886 26.8389 85.426 26.8389 85.6271V92.1728C26.8389 92.3739 26.9194 92.5113 27.1039 92.6185L32.7106 95.9199C32.8381 96.0003 32.9421 96.0204 33.1065 95.9835C33.1401 95.9768 33.177 95.9567 33.2173 95.9299L38.8676 92.6185ZM32.9723 94.5625C32.8314 94.5625 32.6938 94.5223 32.5663 94.4452L28.4226 92.0052C28.1609 91.851 28.0233 91.6164 28.0233 91.3215V86.4784C28.0233 86.1868 28.1609 85.9488 28.4226 85.7947L32.5731 83.3514C32.9153 83.1804 33.1233 83.2072 33.375 83.3514L37.5456 85.7947C37.8006 85.9522 37.9348 86.1868 37.9348 86.4784V91.3215C37.9348 91.6131 37.8006 91.8477 37.5523 92.0018L33.3783 94.4452C33.3213 94.4854 33.2441 94.5223 33.1636 94.539C33.0931 94.5558 33.0294 94.5625 32.9723 94.5625Z" fill="white"/>
<path d="M63.9684 82.54C63.8342 82.54 63.8074 82.5669 63.8074 82.7009V95.1019C63.8074 95.2359 63.8342 95.2627 63.9684 95.2627H72.8834C73.0176 95.2627 73.0445 95.2359 73.0445 95.1019V94.0461C73.0445 93.912 73.0176 93.8852 72.8834 93.8852H65.8306C65.4347 93.8852 65.1998 93.6473 65.1998 93.2551V82.7009C65.1998 82.5669 65.173 82.54 65.0388 82.54H63.9684Z" fill="white"/>
<path d="M119.334 95.3765C119.559 95.3765 119.7 95.286 119.78 95.095L124.484 84.4603C124.531 84.3531 124.608 84.2056 124.749 84.2056C124.89 84.2056 124.967 84.3531 125.014 84.4603L129.702 95.0916C129.782 95.286 129.923 95.3765 130.148 95.3765H131.218C131.312 95.3765 131.359 95.3564 131.373 95.3396C131.383 95.3229 131.386 95.2692 131.349 95.1821L125.726 82.7074C125.645 82.5097 125.504 82.4192 125.279 82.4192H124.209C123.984 82.4192 123.843 82.5097 123.763 82.7007V82.7041L118.149 95.1855C118.116 95.2692 118.116 95.3229 118.126 95.3396C118.136 95.3564 118.183 95.3765 118.28 95.3765H119.334Z" fill="white"/>
<path d="M140.271 89.652L143.647 95.0481C143.707 95.1956 143.804 95.2559 143.982 95.2559H145.183C145.193 95.2559 145.203 95.2559 145.214 95.2559C145.214 95.2526 145.21 95.2459 145.21 95.2425L141.727 89.6788L142.117 89.652C142.566 89.6185 142.996 89.5012 143.395 89.3001C143.794 89.099 144.15 88.8342 144.445 88.5192C144.74 88.2041 144.975 87.8355 145.146 87.4232C145.314 87.0143 145.398 86.5719 145.398 86.1127C145.398 85.6636 145.311 85.2178 145.136 84.7888C144.962 84.3598 144.724 83.971 144.425 83.6359C144.13 83.3041 143.774 83.0359 143.368 82.8315C142.969 82.6338 142.529 82.5332 142.066 82.5332H135.49C135.356 82.5332 135.329 82.56 135.329 82.6941V83.7498C135.329 83.8839 135.356 83.9107 135.49 83.9107H142.026C142.328 83.9308 142.596 84.0046 142.835 84.1286C143.073 84.2526 143.278 84.4168 143.449 84.6146C143.613 84.809 143.751 85.0335 143.851 85.2849C143.952 85.5329 144.012 85.801 144.032 86.0826V86.0993V86.1161C143.985 86.6926 143.788 87.1852 143.449 87.5874C143.1 88.003 142.62 88.2309 142.029 88.2712H135.621C135.53 88.2712 135.456 88.2946 135.393 88.3415C135.359 88.3684 135.329 88.4019 135.329 88.4823V95.0917C135.329 95.2258 135.356 95.2526 135.49 95.2526H136.547C136.681 95.2526 136.708 95.2258 136.708 95.0917V90.2754C136.708 89.8799 136.946 89.6453 137.339 89.6453H140.271V89.652Z" fill="white"/>
<path d="M114.496 88.5226C114.791 88.2075 115.026 87.8389 115.197 87.4266C115.365 87.0177 115.449 86.5753 115.449 86.1161C115.449 85.667 115.361 85.2213 115.187 84.7923C115.012 84.3633 114.774 83.9745 114.476 83.6393C114.18 83.3075 113.825 83.0394 113.419 82.8349C113.016 82.6372 112.58 82.5366 112.117 82.5366H105.54C105.406 82.5366 105.379 82.5634 105.379 82.6975V83.7533C105.379 83.8873 105.406 83.9141 105.54 83.9141H112.077C112.378 83.9342 112.647 84.008 112.885 84.132C113.123 84.256 113.328 84.4202 113.499 84.618C113.664 84.8124 113.801 85.0369 113.902 85.2883C114.002 85.5363 114.063 85.8044 114.083 86.086V86.1027V86.1195C114.036 86.696 113.838 87.1887 113.499 87.5908C113.15 88.0064 112.67 88.2344 112.08 88.2746H105.671C105.581 88.2746 105.507 88.298 105.443 88.345C105.41 88.3718 105.379 88.4053 105.379 88.4857V95.0951C105.379 95.2292 105.406 95.256 105.54 95.256H106.597C106.732 95.256 106.758 95.2292 106.758 95.0951V90.2788C106.758 89.8833 106.997 89.6487 107.389 89.6487L112.167 89.6621V89.6487C112.617 89.6152 113.046 89.4979 113.445 89.2968C113.845 89.0991 114.2 88.8376 114.496 88.5226Z" fill="white"/>
<path d="M150.089 95.2593H154.605C155.474 95.2593 156.309 95.0917 157.081 94.7632C157.856 94.4348 158.541 93.979 159.121 93.4058C159.698 92.8361 160.161 92.1557 160.497 91.3815C160.829 90.6106 161 89.7727 161 88.8946C161 88.2209 160.896 87.5606 160.688 86.9372C160.48 86.3105 160.188 85.7273 159.816 85.2044C159.443 84.6816 158.987 84.2124 158.46 83.8102C157.93 83.408 157.343 83.0963 156.709 82.8751C156.051 82.6472 155.367 82.5332 154.672 82.5332H150.089C149.955 82.5332 149.928 82.56 149.928 82.6941V83.7498C149.928 83.8839 149.955 83.9107 150.089 83.9107H154.501C155.182 83.9576 155.83 84.1118 156.444 84.3732C157.058 84.6347 157.605 84.9866 158.071 85.4189C158.541 85.8547 158.92 86.3741 159.198 86.9607C159.48 87.5539 159.624 88.2041 159.624 88.8946C159.624 89.5749 159.497 90.2252 159.249 90.8251C159 91.425 158.655 91.9579 158.215 92.4104C157.776 92.8629 157.256 93.2215 156.668 93.4829C156.078 93.7477 155.434 93.8784 154.763 93.8784H151.938C151.542 93.8784 151.307 93.6404 151.307 93.2483V91.1636C151.307 91.0295 151.28 91.0027 151.146 91.0027H150.089C149.955 91.0027 149.928 91.0295 149.928 91.1636V95.0951C149.928 95.2325 149.955 95.2593 150.089 95.2593Z" fill="white"/>
<path d="M1.68435 94.8233C2.31515 95.1048 2.99627 95.2489 3.70759 95.2489C4.49608 95.2489 5.16378 95.1584 5.69392 94.9808C6.2207 94.8032 6.66024 94.582 7.00248 94.3172C7.33801 94.0558 7.59636 93.7776 7.77084 93.4893C7.95538 93.181 8.0963 92.886 8.1869 92.6146C8.27749 92.3464 8.33117 92.1219 8.34459 91.9476C8.36137 91.7666 8.37144 91.6594 8.37144 91.6225C8.37144 91.103 8.29426 90.6505 8.13992 90.2852C7.98222 89.9098 7.78426 89.5914 7.55275 89.3333C7.32459 89.082 7.06623 88.8775 6.78774 88.7334C6.4757 88.5759 6.17372 88.4452 5.88853 88.3513C5.60333 88.2575 5.34497 88.1938 5.12352 88.1603C4.89536 88.1268 4.7276 88.1033 4.62694 88.0899C4.60345 88.0865 4.58332 88.0832 4.55648 88.0798H4.55312C4.18069 88.0095 3.83845 87.9458 3.52976 87.8955C3.16739 87.8318 2.84864 87.7346 2.58692 87.6073C2.28495 87.4598 2.04337 87.2453 1.86889 86.9738C1.69106 86.6956 1.60383 86.3404 1.60383 85.8912C1.60383 85.2377 1.88903 84.7014 2.42587 84.3428C2.91239 84.0177 3.57338 83.8535 4.39542 83.8535C4.78128 83.8669 5.13694 83.9071 5.46576 83.9708C5.77445 84.0445 6.06636 84.1518 6.35155 84.2959C6.48241 84.3629 6.60656 84.44 6.71728 84.5305C6.77432 84.5741 6.87498 84.5674 6.95215 84.5137L7.73058 83.9406C7.8111 83.8836 7.82117 83.8032 7.82452 83.7596C7.82452 83.7161 7.81446 83.6323 7.73058 83.5686C7.42189 83.3273 7.07294 83.1195 6.69715 82.9519C6.05964 82.6636 5.37517 82.5195 4.6672 82.5195C3.87535 82.5195 3.2043 82.6033 2.67081 82.7709C2.14067 82.9385 1.69777 83.1463 1.35554 83.3876C1.02336 83.6256 0.765005 83.8836 0.587175 84.1618C0.399279 84.4568 0.261712 84.7316 0.17783 84.9796C0.093948 85.231 0.0436187 85.4421 0.0268423 85.603C0.0100659 85.7639 0 85.8678 0 85.9013C0 86.3471 0.070461 86.7392 0.211383 87.061C0.35566 87.3961 0.536846 87.681 0.751584 87.9156C0.966322 88.1502 1.21126 88.348 1.47633 88.4988C1.76824 88.663 2.05008 88.7971 2.31515 88.8976C2.58021 88.9982 2.81844 89.0719 3.02647 89.1121C3.23449 89.1557 3.38548 89.1825 3.47943 89.1959C3.50292 89.1993 3.5264 89.2026 3.5566 89.2093C3.92904 89.2797 4.29141 89.3568 4.63029 89.4339C5.00944 89.521 5.34832 89.6484 5.64694 89.8059C5.97576 89.9802 6.24083 90.2148 6.43879 90.5031C6.64682 90.8081 6.75083 91.1868 6.75083 91.6359C6.75083 92.2627 6.48912 92.8056 5.97576 93.2581C5.47918 93.6938 4.80141 93.9116 3.95924 93.9116C3.51634 93.9116 3.12377 93.858 2.7916 93.7541C2.46949 93.6536 2.20107 93.5363 1.98297 93.4089C1.83534 93.3218 1.7112 93.238 1.60718 93.1508L0.664346 93.848C0.58382 93.9049 0.573754 93.9854 0.570398 94.0289C0.570398 94.0725 0.580464 94.1563 0.664346 94.2166C0.969677 94.4546 1.31527 94.6591 1.68435 94.8233Z" fill="white"/>
<path d="M48.5474 94.8671C48.6078 94.9777 48.7118 94.9911 48.7554 94.9911C48.799 94.9911 48.9031 94.9777 48.9635 94.8638L49.601 93.6505C49.6379 93.5801 49.6379 93.4997 49.601 93.4326L43.9272 82.674C43.8869 82.5969 43.8064 82.5466 43.7191 82.5466H42.3435C42.2227 82.5466 42.1623 82.6271 42.1422 82.6606C42.122 82.6941 42.0784 82.788 42.1354 82.8919L48.5474 94.8671Z" fill="white"/>
<path d="M47.4367 82.5466C47.3159 82.5466 47.2555 82.6271 47.2354 82.6606C47.2153 82.6941 47.1717 82.7846 47.2287 82.8919L53.4125 94.8537C53.4729 94.971 53.5735 94.9844 53.6205 94.9811C53.6641 94.9811 53.7681 94.9677 53.8285 94.8571L60.2137 82.8952C60.2707 82.7879 60.2271 82.6975 60.2069 82.6639C60.1868 82.6304 60.1264 82.55 60.0056 82.55H58.6333C58.6098 82.55 58.5863 82.5533 58.5696 82.56L53.6306 92.2998L49.0104 82.6505C48.9667 82.5902 48.8963 82.5533 48.8225 82.5533H47.4367V82.5466Z" fill="white"/>
<path d="M101.423 92.5641C101.595 92.4602 101.675 92.3161 101.675 92.1183V85.5727C101.675 85.3749 101.595 85.2308 101.423 85.1269L95.7899 81.8256C95.696 81.7719 95.6088 81.7451 95.5282 81.7451C95.4913 81.7451 95.4074 81.7552 95.2531 81.8323L89.6598 85.1269C89.4753 85.2341 89.3948 85.3749 89.3948 85.5727V92.1183C89.3948 92.3194 89.4753 92.4568 89.6598 92.5641L95.2665 95.8654C95.394 95.9459 95.5014 95.966 95.6624 95.9291C95.696 95.9224 95.7329 95.9023 95.7732 95.8755L101.423 92.5641ZM95.5282 94.508C95.3873 94.508 95.2497 94.4678 95.1222 94.3907L90.9785 91.9507C90.7168 91.7966 90.5792 91.5586 90.5792 91.267V86.4239C90.5792 86.1324 90.7168 85.8944 90.9785 85.7402L95.129 83.2969C95.4712 83.126 95.6792 83.1528 95.9309 83.2969L100.101 85.7402C100.356 85.8978 100.491 86.1324 100.491 86.4239V91.267C100.491 91.5586 100.356 91.7932 100.105 91.9474L95.9309 94.3907C95.8738 94.4343 95.7933 94.4678 95.7161 94.4846C95.6423 94.5013 95.5853 94.508 95.5282 94.508Z" fill="white"/>
<path d="M77.3161 82.3621H85.1742C85.305 82.3621 85.409 82.4693 85.409 82.5967V83.3809C85.409 83.5117 85.3017 83.6156 85.1742 83.6156H77.3161C77.1852 83.6156 77.0812 83.5083 77.0812 83.3809V82.5967C77.0779 82.466 77.1852 82.3621 77.3161 82.3621ZM77.3127 88.2073H84.0032C84.134 88.2073 84.2381 88.3112 84.2381 88.4419V89.2261C84.2381 89.3569 84.134 89.4608 84.0032 89.4608H77.3127C77.1819 89.4608 77.0779 89.3569 77.0779 89.2261V88.4419C77.0779 88.3145 77.1852 88.2073 77.3127 88.2073ZM77.3161 94.0189H85.1775C85.3084 94.0189 85.4124 94.1262 85.4124 94.2536V95.0378C85.4124 95.1685 85.305 95.2724 85.1775 95.2724H77.3161C77.1852 95.2724 77.0812 95.1652 77.0812 95.0378V94.2536C77.0779 94.1262 77.1852 94.0189 77.3161 94.0189Z" fill="white"/>
</g>
<defs>
<clipPath id="clip0_1370:86132">
<rect width="161" height="96" fill="white"/>
</clipPath>
</defs>
</svg>
