<svg width="290" height="374" viewBox="0 0 290 374" fill="none" xmlns="http://www.w3.org/2000/svg">
<rect x="36.5" y="1.27051" width="253" height="335" rx="11.5" stroke="#111111"/>
<path d="M52.888 27.3705C52.888 25.8985 53.144 24.5945 53.656 23.4585C54.168 22.3065 54.856 21.3865 55.72 20.6985C56.6 20.0105 57.576 19.4985 58.648 19.1625C59.72 18.8105 60.848 18.6345 62.032 18.6345C63.856 18.6345 65.576 18.9945 67.192 19.7145V23.1465C65.88 22.2825 64.32 21.8505 62.512 21.8505C60.848 21.8505 59.44 22.3145 58.288 23.2425C57.136 24.1545 56.56 25.5305 56.56 27.3705C56.56 28.4265 56.736 29.3385 57.088 30.1065C57.456 30.8745 57.936 31.4585 58.528 31.8585C59.12 32.2425 59.728 32.5225 60.352 32.6985C60.976 32.8745 61.632 32.9625 62.32 32.9625C63.008 32.9625 63.624 32.8585 64.168 32.6505V26.6505H67.6V34.9785C65.84 35.7305 64.016 36.1065 62.128 36.1065C61.168 36.1065 60.24 36.0025 59.344 35.7945C58.464 35.5865 57.624 35.2585 56.824 34.8105C56.04 34.3465 55.36 33.7865 54.784 33.1305C54.208 32.4585 53.744 31.6345 53.392 30.6585C53.056 29.6665 52.888 28.5705 52.888 27.3705ZM71.7676 34.4985C70.5356 33.4265 69.9196 31.9305 69.9196 30.0105C69.9196 28.0905 70.5356 26.5945 71.7676 25.5225C72.9996 24.4505 74.5036 23.9145 76.2796 23.9145C78.0716 23.9145 79.5756 24.4505 80.7916 25.5225C82.0236 26.5945 82.6396 28.0905 82.6396 30.0105C82.6396 31.9305 82.0236 33.4265 80.7916 34.4985C79.5756 35.5705 78.0716 36.1065 76.2796 36.1065C74.5036 36.1065 72.9996 35.5705 71.7676 34.4985ZM78.4636 32.2665C78.9916 31.6745 79.2556 30.9225 79.2556 30.0105C79.2556 29.0985 78.9916 28.3545 78.4636 27.7785C77.9356 27.1865 77.2076 26.8905 76.2796 26.8905C75.3516 26.8905 74.6236 27.1865 74.0956 27.7785C73.5836 28.3545 73.3276 29.0985 73.3276 30.0105C73.3276 30.9225 73.5836 31.6745 74.0956 32.2665C74.6236 32.8425 75.3516 33.1305 76.2796 33.1305C77.2076 33.1305 77.9356 32.8425 78.4636 32.2665ZM85.1656 18.2505H88.5016V35.7705H85.1656V18.2505ZM100.459 18.9705H103.771V35.7705H100.843V34.0905C99.8674 35.4345 98.4754 36.1065 96.6674 36.1065C94.9234 36.1065 93.5474 35.5145 92.5394 34.3305C91.5314 33.1305 91.0274 31.6905 91.0274 30.0105C91.0274 28.3305 91.5314 26.8985 92.5394 25.7145C93.5474 24.5145 94.9234 23.9145 96.6674 23.9145C98.2514 23.9145 99.5154 24.4345 100.459 25.4745V18.9705ZM100.459 28.6425C100.219 28.0985 99.8274 27.6425 99.2834 27.2745C98.7554 26.9065 98.1474 26.7225 97.4594 26.7225C96.5314 26.7225 95.7954 27.0425 95.2514 27.6825C94.7074 28.3065 94.4354 29.0825 94.4354 30.0105C94.4354 30.9385 94.7074 31.7225 95.2514 32.3625C95.7954 32.9865 96.5314 33.2985 97.4594 33.2985C98.1474 33.2985 98.7554 33.1145 99.2834 32.7465C99.8274 32.3785 100.219 31.9225 100.459 31.3785V28.6425Z" fill="#111111"/>
<path d="M53.02 56.7705H52.02L54.73 53.1705L52.17 49.7705H53.17L55.23 52.5005L57.28 49.7705H58.28L55.73 53.1705L58.43 56.7705H57.43L55.23 53.8405L53.02 56.7705ZM59.7253 56.7705H58.8153L61.8653 49.7705H62.7953L65.8353 56.7705H64.9353L64.2153 55.0805H60.4453L59.7253 56.7705ZM62.2153 50.9005L60.7753 54.3005H63.8853L62.4353 50.9005C62.422 50.8672 62.3853 50.7772 62.3253 50.6305C62.2653 50.7838 62.2286 50.8738 62.2153 50.9005ZM71.8484 49.7705H72.6884V54.2105C72.6884 54.6905 72.6084 55.1105 72.4484 55.4705C72.2951 55.8238 72.0784 56.1038 71.7984 56.3105C71.5251 56.5105 71.2184 56.6572 70.8784 56.7505C70.5451 56.8438 70.1751 56.8905 69.7684 56.8905C68.9084 56.8905 68.2051 56.6772 67.6584 56.2505C67.1118 55.8238 66.8384 55.1438 66.8384 54.2105V49.7705H67.6784V54.1705C67.6784 55.4505 68.3751 56.0905 69.7684 56.0905C71.1551 56.0905 71.8484 55.4505 71.8484 54.1705V49.7705Z" fill="#111111"/>
<path d="M82.98 56.7705H82.07L85.12 49.7705H86.05L89.09 56.7705H88.19L87.47 55.0805H83.7L82.98 56.7705ZM85.47 50.9005L84.03 54.3005H87.14L85.69 50.9005C85.6767 50.8672 85.64 50.7772 85.58 50.6305C85.52 50.7838 85.4833 50.8738 85.47 50.9005ZM89.751 54.3905C89.751 53.9705 89.8277 53.5938 89.981 53.2605C90.1343 52.9272 90.3343 52.6605 90.581 52.4605C90.8343 52.2605 91.111 52.1105 91.411 52.0105C91.7177 51.9038 92.031 51.8505 92.351 51.8505C92.9443 51.8505 93.4377 51.9805 93.831 52.2405V53.0205C93.4643 52.7338 93.0043 52.5905 92.451 52.5905C91.931 52.5905 91.4843 52.7405 91.111 53.0405C90.7377 53.3405 90.551 53.7838 90.551 54.3705C90.551 54.9505 90.7343 55.3938 91.101 55.7005C91.4743 56.0005 91.9177 56.1505 92.431 56.1505C92.9643 56.1505 93.4477 56.0205 93.881 55.7605V56.5605C93.4277 56.7805 92.9077 56.8905 92.321 56.8905C91.6277 56.8905 91.0243 56.6738 90.511 56.2405C90.0043 55.8072 89.751 55.1905 89.751 54.3905ZM95.6327 50.4805L96.4227 50.2805V51.9705H98.3427V52.7105H96.4227V55.1905C96.4227 55.5438 96.5027 55.7905 96.6627 55.9305C96.8293 56.0705 97.0927 56.1405 97.4527 56.1405C97.7993 56.1405 98.1527 56.0672 98.5127 55.9205V56.6605C98.106 56.8072 97.676 56.8805 97.2227 56.8805C96.736 56.8805 96.3493 56.7505 96.0627 56.4905C95.776 56.2238 95.6327 55.8372 95.6327 55.3305V52.7105H94.7327V51.9705H95.6327V50.4805ZM100.534 56.7705H99.7342V51.9705H100.534V56.7705ZM100.504 50.0705C100.604 50.1572 100.654 50.2805 100.654 50.4405C100.654 50.6005 100.604 50.7272 100.504 50.8205C100.404 50.9072 100.281 50.9505 100.134 50.9505C99.9876 50.9505 99.8642 50.9072 99.7642 50.8205C99.6642 50.7272 99.6142 50.6005 99.6142 50.4405C99.6142 50.2805 99.6642 50.1572 99.7642 50.0705C99.8642 49.9772 99.9876 49.9305 100.134 49.9305C100.281 49.9305 100.404 49.9772 100.504 50.0705ZM105.928 51.9705H106.818L104.698 56.7705H103.858L101.738 51.9705H102.628L104.278 55.8705L105.928 51.9705ZM107.494 54.3705C107.494 53.5838 107.734 52.9672 108.214 52.5205C108.701 52.0738 109.257 51.8505 109.884 51.8505C110.471 51.8505 110.954 51.9972 111.334 52.2905C111.721 52.5838 111.974 52.9472 112.094 53.3805C112.214 53.8072 112.221 54.2538 112.114 54.7205H108.294C108.341 55.1938 108.551 55.5505 108.924 55.7905C109.297 56.0305 109.747 56.1505 110.274 56.1505C110.861 56.1505 111.387 56.0205 111.854 55.7605V56.5405C111.407 56.7738 110.841 56.8905 110.154 56.8905C109.394 56.8905 108.761 56.6738 108.254 56.2405C107.747 55.8072 107.494 55.1838 107.494 54.3705ZM111.404 54.0205C111.424 53.8805 111.414 53.7338 111.374 53.5805C111.334 53.4272 111.261 53.2738 111.154 53.1205C111.054 52.9672 110.897 52.8405 110.684 52.7405C110.471 52.6405 110.221 52.5905 109.934 52.5905C109.501 52.5905 109.124 52.7172 108.804 52.9705C108.491 53.2238 108.321 53.5738 108.294 54.0205H111.404Z" fill="#A3A3A3"/>
<circle cx="260" cy="30.7705" r="13.75" fill="white" stroke="#111111" stroke-width="0.5"/>
<path d="M60.544 120.035C60.4213 119.693 60.36 119.339 60.36 118.971C60.36 118.603 60.4213 118.248 60.544 117.907C60.672 117.565 60.8533 117.259 61.088 116.987C61.3227 116.709 61.6293 116.488 62.008 116.323C62.3867 116.157 62.8133 116.075 63.288 116.075C63.7627 116.075 64.1893 116.157 64.568 116.323C64.9467 116.488 65.2533 116.709 65.488 116.987C65.7227 117.259 65.9013 117.565 66.024 117.907C66.152 118.248 66.216 118.603 66.216 118.971C66.216 119.339 66.152 119.693 66.024 120.035C65.9013 120.376 65.7227 120.685 65.488 120.963C65.2533 121.235 64.9467 121.453 64.568 121.619C64.1893 121.784 63.7627 121.867 63.288 121.867C62.8133 121.867 62.3867 121.784 62.008 121.619C61.6293 121.453 61.3227 121.235 61.088 120.963C60.8533 120.685 60.672 120.376 60.544 120.035ZM65.392 119.811C65.488 119.544 65.536 119.264 65.536 118.971C65.536 118.677 65.488 118.397 65.392 118.131C65.3013 117.864 65.1653 117.624 64.984 117.411C64.808 117.197 64.5733 117.029 64.28 116.907C63.9867 116.779 63.656 116.715 63.288 116.715C62.92 116.715 62.5893 116.779 62.296 116.907C62.0027 117.029 61.7653 117.197 61.584 117.411C61.408 117.624 61.272 117.864 61.176 118.131C61.0853 118.397 61.04 118.677 61.04 118.971C61.04 119.264 61.0853 119.544 61.176 119.811C61.272 120.077 61.408 120.317 61.584 120.531C61.7653 120.744 62.0027 120.915 62.296 121.043C62.5893 121.165 62.92 121.227 63.288 121.227C63.656 121.227 63.9867 121.165 64.28 121.043C64.5733 120.915 64.808 120.744 64.984 120.531C65.1653 120.317 65.3013 120.077 65.392 119.811ZM70.3421 117.931H71.0541L69.3581 121.771H68.6861L66.9901 117.931H67.7021L69.0221 121.051L70.3421 117.931ZM71.6546 119.851C71.6546 119.221 71.8466 118.728 72.2306 118.371C72.6199 118.013 73.0652 117.835 73.5666 117.835C74.0359 117.835 74.4226 117.952 74.7266 118.187C75.0359 118.421 75.2386 118.712 75.3346 119.059C75.4306 119.4 75.4359 119.757 75.3506 120.131H72.2946C72.3319 120.509 72.4999 120.795 72.7986 120.987C73.0972 121.179 73.4572 121.275 73.8786 121.275C74.3479 121.275 74.7692 121.171 75.1426 120.963V121.587C74.7852 121.773 74.3319 121.867 73.7826 121.867C73.1746 121.867 72.6679 121.693 72.2626 121.347C71.8572 121 71.6546 120.501 71.6546 119.851ZM74.7826 119.571C74.7986 119.459 74.7906 119.341 74.7586 119.219C74.7266 119.096 74.6679 118.973 74.5826 118.851C74.5026 118.728 74.3772 118.627 74.2066 118.547C74.0359 118.467 73.8359 118.427 73.6066 118.427C73.2599 118.427 72.9586 118.528 72.7026 118.731C72.4519 118.933 72.3159 119.213 72.2946 119.571H74.7826ZM77.1774 118.611C77.3267 118.36 77.556 118.165 77.8654 118.027C78.1747 117.883 78.4974 117.824 78.8334 117.851V118.491C78.46 118.448 78.1294 118.509 77.8414 118.675C77.5587 118.835 77.3587 119.069 77.2414 119.379V121.771H76.6014V117.931H77.1774V118.611ZM82.7031 117.931H83.4151L81.7191 121.771H81.0471L79.3511 117.931H80.0631L81.3831 121.051L82.7031 117.931ZM85.0761 121.771H84.4361V117.931H85.0761V121.771ZM85.0521 116.411C85.1321 116.48 85.1721 116.579 85.1721 116.707C85.1721 116.835 85.1321 116.936 85.0521 117.011C84.9721 117.08 84.8735 117.115 84.7561 117.115C84.6388 117.115 84.5401 117.08 84.4601 117.011C84.3801 116.936 84.3401 116.835 84.3401 116.707C84.3401 116.579 84.3801 116.48 84.4601 116.411C84.5401 116.336 84.6388 116.299 84.7561 116.299C84.8735 116.299 84.9721 116.336 85.0521 116.411ZM86.3155 119.851C86.3155 119.221 86.5075 118.728 86.8915 118.371C87.2808 118.013 87.7262 117.835 88.2275 117.835C88.6968 117.835 89.0835 117.952 89.3875 118.187C89.6968 118.421 89.8995 118.712 89.9955 119.059C90.0915 119.4 90.0968 119.757 90.0115 120.131H86.9555C86.9928 120.509 87.1608 120.795 87.4595 120.987C87.7582 121.179 88.1182 121.275 88.5395 121.275C89.0088 121.275 89.4302 121.171 89.8035 120.963V121.587C89.4462 121.773 88.9928 121.867 88.4435 121.867C87.8355 121.867 87.3288 121.693 86.9235 121.347C86.5182 121 86.3155 120.501 86.3155 119.851ZM89.4435 119.571C89.4595 119.459 89.4515 119.341 89.4195 119.219C89.3875 119.096 89.3288 118.973 89.2435 118.851C89.1635 118.728 89.0382 118.627 88.8675 118.547C88.6968 118.467 88.4968 118.427 88.2675 118.427C87.9208 118.427 87.6195 118.528 87.3635 118.731C87.1128 118.933 86.9768 119.213 86.9555 119.571H89.4435ZM96.1446 117.931H96.8166L95.5046 121.771H94.8086L93.7686 118.803L92.7286 121.771H92.0326L90.7206 117.931H91.3926L92.3846 121.067L93.4806 117.931H94.0566L95.1526 121.067L96.1446 117.931Z" fill="#111111"/>
<rect x="52.5" y="111.271" width="53" height="17" rx="7.5" stroke="#111111"/>
<rect x="52" y="74.7705" width="70" height="20" rx="6" fill="#2968E4"/>
<rect x="132" y="74.7705" width="70" height="20" rx="6" fill="#E8EDF4"/>
<rect x="212" y="74.7705" width="70" height="20" rx="6" fill="#E8EDF4"/>
<rect x="214" y="74.7705" width="70" height="20" rx="6" fill="#E8EDF4"/>
<path d="M221.896 84.7665H226.894V85.8305H221.896V84.7665Z" fill="#2968E4"/>
<rect x="233" y="81.7705" width="43" height="7" rx="3.5" fill="#BFD3F4"/>
<rect x="58.5" y="147.271" width="209" height="173" rx="5.5" fill="white" stroke="#111111"/>
<path d="M77.396 195.451V192.979H74.9V192.115H77.396V189.643H78.284V192.115H80.78V192.979H78.284V195.451H77.396ZM85.1198 197.947V196.747C84.0878 196.651 83.1438 196.239 82.2878 195.511L82.8278 194.791C83.5798 195.463 84.3558 195.843 85.1558 195.931V192.931C84.2598 192.715 83.6078 192.427 83.1998 192.067C82.7998 191.707 82.5998 191.211 82.5998 190.579C82.5998 189.963 82.8318 189.451 83.2958 189.043C83.7678 188.635 84.3758 188.411 85.1198 188.371V187.675H85.8878V188.395C86.6878 188.467 87.4518 188.787 88.1798 189.355L87.6638 190.075C87.1198 189.611 86.5158 189.323 85.8518 189.211V192.163C86.7638 192.371 87.4238 192.663 87.8318 193.039C88.2398 193.407 88.4438 193.899 88.4438 194.515C88.4438 195.155 88.2078 195.679 87.7358 196.087C87.2638 196.495 86.6478 196.723 85.8878 196.771V197.947H85.1198ZM85.1558 191.995V189.175C84.6598 189.191 84.2638 189.327 83.9678 189.583C83.6718 189.839 83.5238 190.159 83.5238 190.543C83.5238 190.903 83.6398 191.195 83.8718 191.419C84.1038 191.643 84.5318 191.835 85.1558 191.995ZM85.8518 195.967C86.3558 195.943 86.7598 195.803 87.0638 195.547C87.3678 195.283 87.5198 194.951 87.5198 194.551C87.5198 194.183 87.3998 193.887 87.1598 193.663C86.9278 193.439 86.4918 193.251 85.8518 193.099V195.967ZM94.3687 196.771V194.779H89.9407L89.7007 194.095L94.4527 188.311H95.2807V193.987H96.5887V194.779H95.2807V196.771H94.3687ZM90.8407 193.987H94.3687V189.655L90.8407 193.987ZM100.907 196.915C99.5875 196.915 98.5435 196.415 97.7755 195.415L98.4595 194.803C99.1395 195.635 99.9595 196.051 100.919 196.051C101.439 196.051 101.875 195.899 102.227 195.595C102.579 195.291 102.755 194.891 102.755 194.395C102.755 193.883 102.539 193.487 102.107 193.207C101.675 192.919 101.107 192.775 100.403 192.775H99.8635L99.6715 192.211L102.323 189.223H98.2195V188.371H103.583V189.067L100.943 191.995C101.743 192.059 102.403 192.291 102.923 192.691C103.451 193.083 103.715 193.647 103.715 194.383C103.715 195.119 103.443 195.727 102.899 196.207C102.363 196.679 101.699 196.915 100.907 196.915ZM105.399 196.771V195.511H106.503V196.771H105.399ZM108.907 196.771V189.295L107.323 189.787L107.095 189.019L109.147 188.311H109.843V196.771H108.907ZM114.635 196.915C113.523 196.915 112.523 196.471 111.635 195.583L112.259 194.899C113.051 195.667 113.847 196.051 114.647 196.051C115.247 196.051 115.735 195.875 116.111 195.523C116.487 195.171 116.675 194.719 116.675 194.167C116.675 193.647 116.479 193.223 116.087 192.895C115.703 192.567 115.203 192.403 114.587 192.403C114.011 192.403 113.423 192.563 112.823 192.883L112.187 192.463L112.427 188.371H117.263V189.247H113.255L113.075 191.935C113.643 191.687 114.195 191.563 114.731 191.563C115.571 191.563 116.263 191.799 116.807 192.271C117.359 192.735 117.635 193.363 117.635 194.155C117.635 194.971 117.355 195.635 116.795 196.147C116.235 196.659 115.515 196.915 114.635 196.915Z" fill="#111111"/>
<path d="M173.272 194.771V189.755H171.392V189.171H175.792V189.755H173.912V194.771H173.272ZM176.718 194.771V188.931H177.334V191.355C177.66 190.816 178.132 190.547 178.75 190.547C179.241 190.547 179.628 190.699 179.91 191.003C180.193 191.301 180.334 191.701 180.334 192.203V194.771H179.718V192.355C179.718 191.965 179.617 191.661 179.414 191.443C179.217 191.219 178.937 191.107 178.574 191.107C178.217 191.107 177.921 191.227 177.686 191.467C177.452 191.707 177.334 192.019 177.334 192.403V194.771H176.718ZM181.624 189.731V189.051H182.328V189.731H181.624ZM181.664 194.771V190.635H182.28V194.771H181.664ZM185.038 194.851C184.739 194.851 184.435 194.797 184.126 194.691C183.822 194.579 183.555 194.429 183.326 194.243L183.638 193.803C184.107 194.155 184.584 194.331 185.07 194.331C185.32 194.331 185.526 194.269 185.686 194.147C185.846 194.024 185.926 193.861 185.926 193.659C185.926 193.472 185.838 193.328 185.662 193.227C185.491 193.125 185.235 193.027 184.894 192.931C184.686 192.872 184.52 192.819 184.398 192.771C184.275 192.723 184.136 192.656 183.982 192.571C183.827 192.48 183.712 192.368 183.638 192.235C183.563 192.096 183.526 191.933 183.526 191.747C183.526 191.395 183.656 191.109 183.918 190.891C184.184 190.672 184.523 190.563 184.934 190.563C185.467 190.563 185.963 190.715 186.422 191.019L186.142 191.483C185.731 191.216 185.323 191.083 184.918 191.083C184.678 191.083 184.483 191.141 184.334 191.259C184.19 191.371 184.118 191.517 184.118 191.699C184.118 191.773 184.139 191.843 184.182 191.907C184.224 191.971 184.272 192.024 184.326 192.067C184.379 192.109 184.462 192.155 184.574 192.203C184.691 192.251 184.784 192.285 184.854 192.307C184.923 192.328 185.032 192.363 185.182 192.411C185.379 192.469 185.542 192.525 185.67 192.579C185.798 192.632 185.934 192.704 186.078 192.795C186.222 192.885 186.328 193 186.398 193.139C186.472 193.272 186.51 193.429 186.51 193.611C186.51 193.995 186.371 194.299 186.094 194.523C185.816 194.741 185.464 194.851 185.038 194.851ZM191.068 194.803L189.62 190.635H190.276L191.364 193.955L192.476 190.619H192.988L194.108 193.955L195.196 190.635H195.836L194.38 194.803H193.844L192.732 191.539L191.612 194.803H191.068ZM196.988 192.955C197.031 193.376 197.188 193.712 197.46 193.963C197.737 194.208 198.065 194.331 198.444 194.331C198.94 194.331 199.375 194.136 199.748 193.747L200.132 194.091C199.668 194.608 199.1 194.867 198.428 194.867C197.847 194.867 197.356 194.667 196.956 194.267C196.561 193.861 196.364 193.341 196.364 192.707C196.364 192.104 196.553 191.595 196.932 191.179C197.311 190.757 197.783 190.547 198.348 190.547C198.94 190.547 199.409 190.755 199.756 191.171C200.103 191.587 200.276 192.109 200.276 192.739C200.276 192.819 200.273 192.891 200.268 192.955H196.988ZM196.988 192.459H199.652C199.615 192.059 199.481 191.728 199.252 191.467C199.028 191.2 198.721 191.067 198.332 191.067C197.98 191.067 197.679 191.197 197.428 191.459C197.177 191.72 197.031 192.053 196.988 192.459ZM201.682 192.955C201.725 193.376 201.882 193.712 202.154 193.963C202.432 194.208 202.76 194.331 203.138 194.331C203.634 194.331 204.069 194.136 204.442 193.747L204.826 194.091C204.362 194.608 203.794 194.867 203.122 194.867C202.541 194.867 202.05 194.667 201.65 194.267C201.256 193.861 201.058 193.341 201.058 192.707C201.058 192.104 201.248 191.595 201.626 191.179C202.005 190.757 202.477 190.547 203.042 190.547C203.634 190.547 204.104 190.755 204.45 191.171C204.797 191.587 204.97 192.109 204.97 192.739C204.97 192.819 204.968 192.891 204.962 192.955H201.682ZM201.682 192.459H204.346C204.309 192.059 204.176 191.728 203.946 191.467C203.722 191.2 203.416 191.067 203.026 191.067C202.674 191.067 202.373 191.197 202.122 191.459C201.872 191.72 201.725 192.053 201.682 192.459ZM206.009 194.771V188.931H206.625V192.963L208.857 190.635H209.625L207.889 192.411L209.681 194.771H208.945L207.465 192.843L206.625 193.691V194.771H206.009Z" fill="#A3A3A3"/>
<path d="M78.48 176.339V174.723C77.0613 174.541 75.8027 174.035 74.704 173.203L75.952 171.379C76.8693 172.072 77.7387 172.504 78.56 172.675V170.131C77.3653 169.811 76.4907 169.395 75.936 168.883C75.392 168.36 75.12 167.635 75.12 166.707C75.12 165.832 75.424 165.117 76.032 164.563C76.64 164.008 77.456 163.677 78.48 163.571V162.643H80.144V163.603C81.2213 163.752 82.2133 164.147 83.12 164.787L82.048 166.659C81.3653 166.2 80.704 165.885 80.064 165.715V168.131C81.2907 168.461 82.176 168.899 82.72 169.443C83.264 169.976 83.536 170.696 83.536 171.603C83.536 172.477 83.2267 173.192 82.608 173.747C82 174.301 81.1787 174.637 80.144 174.755V176.339H78.48ZM78.56 167.731V165.571C77.824 165.667 77.456 166.008 77.456 166.595C77.456 166.851 77.5307 167.069 77.68 167.251C77.84 167.421 78.1333 167.581 78.56 167.731ZM80.064 172.755C80.8213 172.637 81.2 172.285 81.2 171.699C81.2 171.421 81.1147 171.197 80.944 171.027C80.784 170.845 80.4907 170.675 80.064 170.515V172.755ZM85.0478 174.771V172.819L88.7758 169.763C89.5118 169.155 90.0184 168.669 90.2958 168.307C90.5731 167.933 90.7118 167.523 90.7118 167.075C90.7118 166.616 90.5731 166.259 90.2958 166.003C90.0184 165.747 89.6558 165.619 89.2078 165.619C88.7918 165.619 88.4131 165.736 88.0718 165.971C87.7411 166.195 87.3571 166.579 86.9198 167.123L85.1918 165.731C85.7784 164.931 86.3811 164.344 86.9998 163.971C87.6291 163.597 88.4184 163.411 89.3678 163.411C90.5304 163.411 91.4638 163.731 92.1678 164.371C92.8718 165 93.2238 165.843 93.2238 166.899C93.2238 167.507 93.1064 168.056 92.8718 168.547C92.6371 169.027 92.3331 169.453 91.9598 169.827C91.5864 170.189 91.0264 170.659 90.2798 171.235L88.4558 172.643H93.3358V174.771H85.0478ZM94.7765 177.363L94.5685 176.355C95.6138 176.237 96.1365 175.768 96.1365 174.947V174.771H95.1445V172.211H97.7365V174.371C97.7365 175.395 97.4858 176.141 96.9845 176.611C96.4938 177.091 95.7578 177.341 94.7765 177.363ZM103.627 174.963C101.803 174.963 100.347 174.317 99.2586 173.027L100.955 171.411C101.755 172.307 102.656 172.755 103.659 172.755C104.128 172.755 104.507 172.632 104.795 172.387C105.093 172.131 105.243 171.789 105.243 171.363C105.243 170.904 105.051 170.552 104.667 170.307C104.283 170.061 103.744 169.939 103.051 169.939H102.027L101.643 168.371L104.315 165.683H99.9146V163.571H107.483V165.427L104.651 168.131C106.656 168.472 107.659 169.528 107.659 171.299C107.659 172.376 107.291 173.256 106.555 173.939C105.829 174.621 104.853 174.963 103.627 174.963ZM113.31 174.963C111.689 174.963 110.291 174.403 109.118 173.283L110.606 171.507C111.502 172.317 112.393 172.723 113.278 172.723C113.865 172.723 114.323 172.584 114.654 172.307C114.985 172.029 115.15 171.64 115.15 171.139C115.15 170.669 114.969 170.301 114.606 170.035C114.243 169.757 113.763 169.619 113.166 169.619C112.569 169.619 111.945 169.757 111.294 170.035L109.87 169.091L110.19 163.571H117.07V165.731H112.302L112.174 167.667C112.686 167.539 113.177 167.475 113.646 167.475C114.809 167.475 115.753 167.773 116.478 168.371C117.203 168.968 117.566 169.875 117.566 171.091C117.566 172.275 117.177 173.219 116.398 173.923C115.63 174.616 114.601 174.963 113.31 174.963ZM119.288 174.771L124.296 165.699H119.032V163.571H127.096V165.427L122.072 174.771H119.288ZM127.168 174.771V172.211H129.76V174.771H127.168ZM131.458 174.771V172.819L135.186 169.763C135.922 169.155 136.429 168.669 136.706 168.307C136.984 167.933 137.122 167.523 137.122 167.075C137.122 166.616 136.984 166.259 136.706 166.003C136.429 165.747 136.066 165.619 135.618 165.619C135.202 165.619 134.824 165.736 134.482 165.971C134.152 166.195 133.768 166.579 133.33 167.123L131.602 165.731C132.189 164.931 132.792 164.344 133.41 163.971C134.04 163.597 134.829 163.411 135.778 163.411C136.941 163.411 137.874 163.731 138.578 164.371C139.282 165 139.634 165.843 139.634 166.899C139.634 167.507 139.517 168.056 139.282 168.547C139.048 169.027 138.744 169.453 138.37 169.827C137.997 170.189 137.437 170.659 136.69 171.235L134.866 172.643H139.746V174.771H131.458ZM145.987 174.963C144.632 174.963 143.555 174.563 142.755 173.763C141.87 172.877 141.427 171.453 141.427 169.491C141.427 167.677 141.843 166.205 142.675 165.075C143.507 163.944 144.728 163.379 146.339 163.379C147.64 163.379 148.808 163.789 149.843 164.611L148.547 166.515C148.142 166.205 147.768 165.981 147.427 165.843C147.096 165.693 146.707 165.619 146.259 165.619C145.598 165.619 145.075 165.859 144.691 166.339C144.318 166.808 144.088 167.432 144.003 168.211C144.728 167.731 145.502 167.491 146.323 167.491C147.475 167.491 148.419 167.805 149.155 168.435C149.891 169.064 150.259 169.949 150.259 171.091C150.259 172.221 149.854 173.149 149.043 173.875C148.232 174.6 147.214 174.963 145.987 174.963ZM144.467 172.387C144.819 172.696 145.294 172.851 145.891 172.851C146.488 172.851 146.958 172.696 147.299 172.387C147.64 172.077 147.811 171.672 147.811 171.171C147.811 170.691 147.635 170.301 147.283 170.003C146.931 169.693 146.456 169.539 145.859 169.539C145.262 169.539 144.792 169.688 144.451 169.987C144.11 170.285 143.939 170.685 143.939 171.187C143.939 171.667 144.115 172.067 144.467 172.387Z" fill="#111111"/>
<rect x="228" y="160.771" width="26" height="24" rx="6" fill="#F3F4F6"/>
<path fill-rule="evenodd" clip-rule="evenodd" d="M242.17 165.779C241.086 165.871 240.436 165.99 239.719 166.225C238.579 166.598 237.855 167.185 237.718 167.847C237.697 167.948 237.688 168.374 237.694 169.071C237.702 170.099 237.704 170.144 237.763 170.221C237.877 170.374 237.971 170.422 238.156 170.422C238.341 170.422 238.435 170.374 238.55 170.221C238.6 170.154 238.612 170.088 238.62 169.821C238.626 169.645 238.638 169.502 238.647 169.502C238.656 169.502 238.744 169.546 238.842 169.601C239.592 170.017 240.741 170.305 242.051 170.406C243.777 170.539 245.751 170.208 246.846 169.601C246.944 169.546 247.033 169.502 247.043 169.502C247.054 169.502 247.062 169.621 247.062 169.766C247.062 170.077 247.019 170.187 246.821 170.368C246.359 170.793 245.266 171.163 244.074 171.3C243.841 171.327 243.617 171.366 243.576 171.387C243.333 171.513 243.246 171.794 243.379 172.028C243.52 172.277 243.686 172.303 244.426 172.195C245.319 172.063 246.159 171.817 246.733 171.517L247.062 171.345V171.62C247.062 171.94 247.044 171.999 246.896 172.162C246.58 172.512 245.817 172.844 244.885 173.038C244.421 173.135 244.265 173.263 244.265 173.546C244.265 173.781 244.412 173.958 244.653 174.011C244.752 174.033 245.38 173.896 245.861 173.748C246.111 173.672 246.437 173.544 246.652 173.438C246.854 173.339 247.028 173.253 247.04 173.247C247.073 173.232 247.067 173.751 247.034 173.838C246.992 173.95 246.805 174.141 246.609 174.274C246.255 174.514 245.572 174.765 244.885 174.908C244.421 175.005 244.265 175.133 244.265 175.416C244.265 175.677 244.46 175.88 244.71 175.88C245.065 175.879 246.16 175.554 246.682 175.295C246.867 175.203 247.028 175.123 247.04 175.117C247.073 175.103 247.067 175.622 247.034 175.708C246.992 175.82 246.805 176.011 246.609 176.144C246.255 176.384 245.572 176.636 244.885 176.779C244.421 176.875 244.265 177.003 244.265 177.286C244.265 177.547 244.46 177.75 244.71 177.75C245.065 177.749 246.16 177.424 246.682 177.165C246.867 177.073 247.028 176.993 247.04 176.987C247.053 176.982 247.062 177.097 247.062 177.244C247.062 177.558 247.019 177.667 246.821 177.848C246.359 178.273 245.266 178.644 244.074 178.781C243.635 178.831 243.548 178.857 243.439 178.974C243.302 179.12 243.277 179.312 243.371 179.496C243.497 179.741 243.632 179.774 244.227 179.7C245.216 179.578 246.074 179.344 246.726 179.02C247.409 178.68 247.879 178.177 247.97 177.687C247.989 177.586 248 175.828 248 172.747C248 167.515 248.009 167.805 247.83 167.474C247.787 167.393 247.666 167.237 247.563 167.127C246.96 166.487 245.735 166.027 244.118 165.833C243.759 165.79 242.461 165.754 242.17 165.779ZM243.635 166.726C244.708 166.805 245.586 167.011 246.257 167.339C246.75 167.581 247.062 167.875 247.062 168.099C247.062 168.323 246.75 168.617 246.257 168.859C244.507 169.715 241.18 169.715 239.431 168.859C238.937 168.617 238.625 168.323 238.625 168.099C238.625 167.875 238.937 167.581 239.431 167.339C240.437 166.847 242.062 166.609 243.635 166.726ZM237.482 171.389C236.399 171.482 235.748 171.6 235.031 171.835C234.125 172.132 233.433 172.597 233.169 173.084C233 173.399 233 173.395 233 175.58C233 177.765 233 177.761 233.169 178.075C233.213 178.156 233.334 178.312 233.437 178.422C234.056 179.079 235.319 179.541 237.028 179.735C237.447 179.782 238.865 179.782 239.284 179.735C240.993 179.541 242.256 179.079 242.876 178.422C243.09 178.194 243.203 178.002 243.268 177.756C243.335 177.499 243.335 173.661 243.268 173.404C243.203 173.157 243.09 172.965 242.876 172.738C242.273 172.098 241.047 171.638 239.431 171.444C239.072 171.4 237.774 171.364 237.482 171.389ZM238.947 172.336C240.021 172.416 240.898 172.621 241.569 172.95C242.063 173.191 242.375 173.486 242.375 173.71C242.375 173.933 242.063 174.228 241.569 174.469C239.82 175.326 236.492 175.326 234.743 174.469C234.25 174.228 233.937 173.933 233.937 173.71C233.937 173.486 234.25 173.191 234.743 172.95C235.749 172.457 237.375 172.22 238.947 172.336ZM234.154 175.211C234.905 175.627 236.054 175.916 237.364 176.017C239.089 176.15 241.064 175.818 242.158 175.211C242.256 175.157 242.345 175.112 242.356 175.112C242.366 175.112 242.375 175.231 242.375 175.376C242.375 175.581 242.362 175.666 242.317 175.753C242.221 175.942 241.954 176.151 241.569 176.34C239.82 177.196 236.492 177.196 234.743 176.34C234.358 176.151 234.092 175.942 233.995 175.753C233.95 175.666 233.937 175.581 233.937 175.376C233.937 175.231 233.946 175.112 233.957 175.112C233.967 175.112 234.056 175.157 234.154 175.211ZM234.154 177.081C234.905 177.498 236.054 177.786 237.364 177.887C239.089 178.02 241.064 177.688 242.158 177.081C242.256 177.027 242.345 176.982 242.356 176.982C242.366 176.982 242.375 177.101 242.375 177.247C242.375 177.451 242.362 177.536 242.317 177.623C242.221 177.812 241.954 178.021 241.569 178.21C239.82 179.066 236.492 179.066 234.743 178.21C234.358 178.021 234.092 177.812 233.995 177.623C233.95 177.536 233.937 177.451 233.937 177.247C233.937 177.101 233.946 176.982 233.957 176.982C233.967 176.982 234.056 177.027 234.154 177.081Z" fill="#2461D7"/>
<line x1="61" y1="248.271" x2="69" y2="248.271" stroke="#F3F4F6"/>
<line x1="73" y1="248.271" x2="81" y2="248.271" stroke="#F3F4F6"/>
<line x1="85" y1="248.271" x2="93" y2="248.271" stroke="#F3F4F6"/>
<line x1="98" y1="248.271" x2="106" y2="248.271" stroke="#F3F4F6"/>
<line x1="110" y1="248.271" x2="118" y2="248.271" stroke="#F3F4F6"/>
<line x1="122" y1="248.271" x2="130" y2="248.271" stroke="#F3F4F6"/>
<line x1="134" y1="248.271" x2="142" y2="248.271" stroke="#F3F4F6"/>
<line x1="146" y1="248.271" x2="154" y2="248.271" stroke="#F3F4F6"/>
<line x1="159" y1="248.271" x2="167" y2="248.271" stroke="#F3F4F6"/>
<line x1="171" y1="248.271" x2="179" y2="248.271" stroke="#F3F4F6"/>
<line x1="183" y1="248.271" x2="191" y2="248.271" stroke="#F3F4F6"/>
<line x1="195" y1="248.271" x2="203" y2="248.271" stroke="#F3F4F6"/>
<line x1="207" y1="248.271" x2="215" y2="248.271" stroke="#F3F4F6"/>
<line x1="220" y1="248.271" x2="228" y2="248.271" stroke="#F3F4F6"/>
<line x1="232" y1="248.271" x2="240" y2="248.271" stroke="#F3F4F6"/>
<line x1="220" y1="248.271" x2="228" y2="248.271" stroke="#F3F4F6"/>
<line x1="244" y1="248.271" x2="252" y2="248.271" stroke="#F3F4F6"/>
<line x1="256" y1="248.271" x2="264" y2="248.271" stroke="#F3F4F6"/>
<path d="M58 260.403L71.7333 250.72H94.6222L103.206 254.138H126.094L130.672 246.733L138.683 250.72L154.706 242.176L165.578 248.441L178.167 250.72L191.9 248.441L203.917 250.72L211.356 246.733L217.65 279.771L224.517 242.176L232.528 234.771H242.828L249.694 238.758L264 234.771" stroke="#2461D7"/>
<path d="M139.11 195.891C138.01 195.891 137.14 195.474 136.5 194.641L137.07 194.131C137.637 194.824 138.32 195.171 139.12 195.171C139.553 195.171 139.917 195.044 140.21 194.791C140.503 194.537 140.65 194.204 140.65 193.791C140.65 193.364 140.47 193.034 140.11 192.801C139.75 192.561 139.277 192.441 138.69 192.441H138.24L138.08 191.971L140.29 189.481H136.87V188.771H141.34V189.351L139.14 191.791C139.807 191.844 140.357 192.037 140.79 192.371C141.23 192.697 141.45 193.167 141.45 193.781C141.45 194.394 141.223 194.901 140.77 195.301C140.323 195.694 139.77 195.891 139.11 195.891ZM142.853 195.771V194.721H143.773V195.771H142.853ZM145.776 195.771V189.541L144.456 189.951L144.266 189.311L145.976 188.721H146.556V195.771H145.776ZM149.31 195.771V189.541L147.99 189.951L147.8 189.311L149.51 188.721H150.09V195.771H149.31ZM157.242 191.741C156.942 192.094 156.562 192.271 156.102 192.271C155.642 192.271 155.262 192.097 154.962 191.751C154.669 191.397 154.522 190.974 154.522 190.481C154.522 189.994 154.672 189.574 154.972 189.221C155.272 188.867 155.655 188.691 156.122 188.691C156.582 188.691 156.959 188.867 157.252 189.221C157.545 189.567 157.692 189.987 157.692 190.481C157.692 190.967 157.542 191.387 157.242 191.741ZM155.242 195.771L160.382 188.771H161.092L155.962 195.771H155.242ZM160.222 195.851C159.762 195.851 159.385 195.677 159.092 195.331C158.799 194.977 158.652 194.554 158.652 194.061C158.652 193.574 158.802 193.154 159.102 192.801C159.402 192.447 159.782 192.271 160.242 192.271C160.702 192.271 161.079 192.447 161.372 192.801C161.665 193.147 161.812 193.567 161.812 194.061C161.812 194.554 161.662 194.977 161.362 195.331C161.069 195.677 160.689 195.851 160.222 195.851ZM156.122 191.711C156.389 191.711 156.605 191.594 156.772 191.361C156.945 191.121 157.032 190.827 157.032 190.481C157.032 190.134 156.942 189.844 156.762 189.611C156.582 189.371 156.362 189.251 156.102 189.251C155.835 189.251 155.615 189.371 155.442 189.611C155.275 189.844 155.192 190.134 155.192 190.481C155.192 190.827 155.282 191.121 155.462 191.361C155.642 191.594 155.862 191.711 156.122 191.711ZM160.242 195.291C160.515 195.291 160.735 195.174 160.902 194.941C161.069 194.707 161.152 194.414 161.152 194.061C161.152 193.714 161.062 193.424 160.882 193.191C160.702 192.951 160.482 192.831 160.222 192.831C159.955 192.831 159.735 192.951 159.562 193.191C159.395 193.424 159.312 193.714 159.312 194.061C159.312 194.407 159.402 194.701 159.582 194.941C159.762 195.174 159.982 195.291 160.242 195.291Z" fill="#2461D7"/>
<path fill-rule="evenodd" clip-rule="evenodd" d="M128.312 189.787C128.158 189.82 128.028 189.892 127.906 190.009L127.796 190.115L126.454 192.34C125.716 193.563 125.099 194.59 125.082 194.621C125.038 194.706 125 194.864 125 194.963C125 195.071 125.04 195.225 125.099 195.339C125.163 195.464 125.328 195.62 125.467 195.685C125.667 195.778 125.46 195.773 128.539 195.769C131.192 195.765 131.314 195.764 131.386 195.741C131.821 195.602 132.072 195.204 131.982 194.797C131.971 194.748 131.953 194.687 131.942 194.662C131.898 194.565 129.211 190.136 129.155 190.068C129.067 189.963 128.926 189.867 128.788 189.819C128.646 189.769 128.452 189.756 128.312 189.787Z" fill="#2461D7"/>
<path d="M64.27 84.3385H66.86V85.4025H64.27V87.9925H63.206V85.4025H60.616V84.3385H63.206V81.7485H64.27V84.3385Z" fill="white"/>
<rect x="72" y="80.7705" width="43" height="7" rx="3.5" fill="#B7CFF3"/>
<path d="M139.896 83.7665H144.894V84.8305H139.896V83.7665Z" fill="#2968E4"/>
<rect x="151" y="80.7705" width="43" height="7" rx="3.5" fill="#BFD3F4"/>
<rect x="114" y="116.771" width="43" height="7" rx="3.5" fill="#CFD6D9"/>
<path fill-rule="evenodd" clip-rule="evenodd" d="M257.609 25.7991C257.561 25.818 257.488 25.8637 257.447 25.9008C257.407 25.9378 256.932 26.9323 256.393 28.1109L255.412 30.2537L254.456 30.2545C253.473 30.2554 253.37 30.2674 253.226 30.3978C253.113 30.5002 251 35.1204 251 35.265C251 35.4309 251.109 35.606 251.267 35.6938L251.404 35.7699L259.993 35.7704C268.531 35.771 268.582 35.7706 268.72 35.7024C268.877 35.6249 269 35.429 269 35.2573C269 35.1199 266.882 30.4954 266.774 30.3978C266.63 30.2674 266.527 30.2554 265.544 30.2545L264.588 30.2537L263.605 28.1058C262.735 26.2046 262.608 25.9477 262.5 25.8681L262.379 25.7782L260.038 25.7715C258.531 25.7672 257.666 25.777 257.609 25.7991ZM262.642 28.5192L263.438 30.2554H260H256.563L257.359 28.5191L258.154 26.7827L260 26.7829L261.846 26.7831L262.642 28.5192ZM258.414 32.9983C258.846 33.9441 259.193 34.7252 259.184 34.734C259.175 34.7427 257.633 34.746 255.758 34.7412L252.349 34.7325L253.139 33.0047L253.929 31.2768L255.778 31.2777L257.627 31.2786L258.414 32.9983ZM260.621 32.5876C260.291 33.3085 260.011 33.8984 260 33.8984C259.989 33.8984 259.709 33.3085 259.379 32.5876L258.777 31.2768H260H261.223L260.621 32.5876ZM266.86 33.0047L267.652 34.7325L264.242 34.7412C262.367 34.746 260.825 34.7427 260.816 34.734C260.807 34.7252 261.154 33.9441 261.586 32.9983L262.373 31.2786L264.22 31.2777L266.067 31.2768L266.86 33.0047Z" fill="#C0C329"/>
<rect x="2.55078" y="262.321" width="111.009" height="111.009" fill="white"/>
<path fill-rule="evenodd" clip-rule="evenodd" d="M24.1378 283.36C23.8135 283.685 23.5507 284.144 23.554 284.381C23.5574 284.618 24.2332 286.755 25.0555 289.13C26.3218 292.785 26.6497 293.502 27.1953 293.806C28.0728 294.296 29.1022 293.928 29.4256 293.009C29.6286 292.431 29.4419 291.664 28.2288 288.088C26.7712 283.793 26.1947 282.771 25.2297 282.771C24.9534 282.771 24.4621 283.036 24.1378 283.36ZM90.0221 283.311C89.7059 283.634 88.9129 285.559 88.0548 288.088C86.8416 291.664 86.655 292.431 86.858 293.009C87.1813 293.928 88.2107 294.296 89.0883 293.806C89.6339 293.502 89.9618 292.785 91.2281 289.13C92.0504 286.755 92.7262 284.618 92.7295 284.381C92.7377 283.795 91.6723 282.771 91.0539 282.771C90.7776 282.771 90.3133 283.014 90.0221 283.311ZM44.6007 287.875C44.1224 288.31 43.4253 290.316 41.0522 298.085L38.099 307.755H32.1715C26.8753 307.755 26.1911 307.8 25.7476 308.175C25.3892 308.479 24.4215 311.299 22.2645 318.325L19.2774 328.055L13.2828 328.119C7.42301 328.182 7.27743 328.195 6.80681 328.719C6.31001 329.273 -0.00959843 349.438 1.09474e-05 350.439C0.00289376 350.727 0.289974 351.186 0.638074 351.46C1.26821 351.956 1.37343 351.958 23.6681 351.958C45.9629 351.958 46.0681 351.956 46.6982 351.46C47.4727 350.851 47.5422 349.767 46.8508 349.075C46.4344 348.659 46.0501 348.595 43.968 348.595C42.6467 348.595 41.568 348.568 41.5709 348.535C41.5738 348.502 42.7473 344.691 44.1784 340.066L46.7806 331.658H58.1447H69.5089L71.9524 339.586C73.2965 343.946 74.4758 347.757 74.5731 348.054C74.7489 348.591 74.7321 348.595 72.3317 348.595C70.2335 348.595 69.8496 348.658 69.4328 349.075C68.7414 349.767 68.8108 350.851 69.5854 351.46C70.2155 351.956 70.3207 351.958 92.6154 351.958C114.91 351.958 115.015 351.956 115.645 351.46C115.994 351.186 116.281 350.727 116.284 350.439C116.295 349.449 109.969 329.274 109.474 328.719C109.006 328.195 108.861 328.182 103.001 328.119L97.0062 328.055L94.0191 318.325C91.862 311.299 90.8944 308.479 90.5359 308.175C90.0925 307.8 89.4083 307.755 84.1121 307.755H78.1845L75.2313 298.085C72.8583 290.316 72.1611 288.31 71.6828 287.875L71.0875 287.335H58.1418H45.196L44.6007 287.875ZM12.2745 290.37C12.0007 290.718 11.7765 291.102 11.7765 291.223C11.7765 291.853 12.725 293.009 15.3366 295.563C18.4906 298.648 18.9889 298.883 20.0754 297.796C21.1051 296.767 20.8997 296.38 17.4936 292.94C14.7281 290.147 14.2226 289.737 13.5471 289.737C12.9962 289.737 12.6284 289.92 12.2745 290.37ZM98.8007 292.929C95.3834 296.381 95.178 296.766 96.2081 297.796C97.3009 298.889 97.7906 298.654 101.024 295.483C104.401 292.173 104.827 291.483 104.098 290.503C103.772 290.064 103.357 289.835 102.801 289.786C102.039 289.72 101.768 289.933 98.8007 292.929ZM71.9524 298.746C73.2965 303.106 74.4758 306.917 74.5731 307.214L74.7504 307.755H58.1322C43.9797 307.755 41.5334 307.705 41.6434 307.418C41.7143 307.233 42.8626 303.531 44.1952 299.19C45.5276 294.85 46.6672 291.163 46.7275 290.996C46.8142 290.757 49.2305 290.707 58.1733 290.756L69.5089 290.818L71.9524 298.746ZM5.683 301.767C4.98944 302.312 4.84121 303.3 5.35027 303.981C5.73248 304.491 13.7013 307.274 14.7819 307.274C16.145 307.274 16.8597 305.631 15.9098 304.681C15.534 304.305 7.21401 301.269 6.56033 301.269C6.42604 301.269 6.0311 301.493 5.683 301.767ZM105.948 302.484C100.725 304.252 100.523 304.341 100.219 305.01C100.067 305.343 99.9426 305.772 99.9426 305.964C99.9426 306.548 100.862 307.274 101.6 307.274C102.614 307.274 110.579 304.469 110.933 303.988C111.442 303.296 111.294 302.312 110.601 301.767C110.252 301.493 109.847 301.277 109.7 301.287C109.552 301.297 107.864 301.836 105.948 302.484ZM50.7856 311.539C50.8535 311.77 51.9959 315.493 53.3241 319.813C54.6526 324.132 55.7394 327.781 55.7394 327.921C55.7394 328.097 50.6964 328.175 39.2834 328.175C30.2325 328.175 22.8273 328.097 22.8273 328.002C22.8273 327.906 23.9821 324.069 25.3933 319.473L27.9595 311.118H39.3108C49.9145 311.118 50.6702 311.146 50.7856 311.539ZM61.0025 314.902C60.3584 316.983 59.4825 319.848 59.0561 321.268C58.6297 322.689 58.2182 323.851 58.1418 323.851C58.0654 323.851 57.6539 322.689 57.2274 321.268C56.801 319.848 55.9251 316.983 55.2811 314.902L54.1099 311.118H58.1418H62.1736L61.0025 314.902ZM90.8848 319.467C92.299 324.059 93.4562 327.897 93.4562 327.995C93.4562 328.094 86.051 328.175 77.0002 328.175C65.5871 328.175 60.5441 328.097 60.5441 327.921C60.5441 327.781 61.6309 324.132 62.9594 319.813C64.2877 315.493 65.43 311.77 65.498 311.539C65.6133 311.146 66.3689 311.118 76.9673 311.118H88.3133L90.8848 319.467ZM34.4203 339.988C35.8418 344.632 36.967 348.469 36.9212 348.514C36.8753 348.561 29.4266 348.57 20.3688 348.536L3.89974 348.475L5.68468 342.709C6.66652 339.538 7.84799 335.727 8.3102 334.241L9.15054 331.538L20.4932 331.541L31.8361 331.544L34.4203 339.988ZM43.2472 331.7C43.2472 332.118 39.2947 344.544 39.2264 344.34C39.1837 344.211 38.3383 341.468 37.3481 338.243C36.3578 335.018 35.4891 332.19 35.4173 331.958C35.2969 331.57 35.5871 331.538 39.2673 331.538C41.4563 331.538 43.2472 331.611 43.2472 331.7ZM80.8663 331.958C80.7944 332.19 79.9258 335.018 78.9355 338.243C77.9453 341.468 77.0996 344.212 77.0564 344.342C76.9968 344.521 73.7746 334.448 73.0949 331.958C72.989 331.57 73.2876 331.538 76.9884 331.538C80.695 331.538 80.9866 331.57 80.8663 331.958ZM107.973 334.241C108.435 335.727 109.615 339.538 110.594 342.709L112.374 348.475L95.9102 348.536C86.8548 348.57 79.4083 348.561 79.3624 348.514C79.3165 348.469 80.4418 344.632 81.8633 339.988L84.4474 331.544L95.7904 331.541L107.133 331.538L107.973 334.241ZM54.5383 349.075C53.8469 349.767 53.9163 350.851 54.6908 351.46C55.2494 351.9 55.6546 351.958 58.1418 351.958C60.6289 351.958 61.0342 351.9 61.5928 351.46C62.3891 350.834 62.4372 349.771 61.6999 349.085C61.2276 348.644 60.8617 348.595 58.0964 348.595C55.339 348.595 54.9688 348.645 54.5383 349.075Z" fill="#C0C429"/>
</svg>
