<svg width="100" height="60" viewBox="0 0 100 60" fill="none" xmlns="http://www.w3.org/2000/svg">
<g clip-path="url(#clip0_151_50439)">
<path d="M62.658 44.3333H37.1932L24.4619 22.1667L37.1932 0H62.658L75.3893 22.1667L62.658 44.3333ZM37.7955 43.286H62.0557L74.1868 22.1667L62.0557 1.04738H37.7955L25.6644 22.1667L37.7955 43.286Z" fill="#111111"/>
<path d="M54.4863 23.0988C54.3134 23.1198 54.0029 23.2664 53.8611 23.5219C53.7549 23.7126 53.8174 23.9618 54.007 24.0708C54.0695 24.1064 54.1383 24.1231 54.205 24.1231C54.3405 24.1231 54.4697 24.054 54.5426 23.9241C54.5551 23.9116 54.5926 23.8885 54.5864 23.8864C54.8031 23.8592 54.9573 23.6602 54.9302 23.4423C54.9011 23.2266 54.7031 23.0716 54.4863 23.0988Z" fill="#FFDE3B"/>
<path d="M45.9962 22.0829C45.9941 22.041 45.9962 21.9949 46.0109 21.9489C45.9962 21.9928 45.992 22.0389 45.9962 22.0829Z" fill="#FFDE3B"/>
<path d="M45.9962 22.0829C45.9941 22.041 45.9962 21.9949 46.0109 21.9489C45.9962 21.9928 45.992 22.0389 45.9962 22.0829Z" fill="#FFDE3B"/>
<path d="M46.0005 22.1025C46.0005 22.096 45.9961 22.0895 45.9961 22.083C45.9961 22.0895 45.9983 22.096 46.0005 22.1025Z" fill="#FFDE3B"/>
<path d="M46.0005 22.1025C46.0005 22.096 45.9961 22.0895 45.9961 22.083C45.9961 22.0895 45.9983 22.096 46.0005 22.1025Z" fill="#FFDE3B"/>
<path d="M66.2009 29.2071C65.3944 29.1547 64.8067 28.6017 64.6462 28.4341C64.4358 28.2142 63.7981 27.2799 63.2854 26.53C62.8811 25.9392 62.533 25.4281 62.3601 25.2103C62.0412 24.8102 61.4723 23.0778 61.3514 22.462C61.3285 22.3467 61.3181 22.2106 61.316 22.066C61.9183 21.8545 63.0457 21.8105 63.3291 21.8629C63.5521 21.9027 63.771 22.0472 64.1127 22.3803C64.3941 22.6526 64.6317 22.7406 64.8463 22.7406C65.0026 22.7406 65.1464 22.6945 65.286 22.64C65.5111 22.552 65.7174 22.3049 65.8571 22.1017C66.1301 22.0765 66.3885 21.9215 66.6136 21.7581C66.9845 21.4858 67.0262 21.0396 66.7386 20.4321C66.6803 20.3086 66.6073 20.1431 66.526 19.9629C66.4385 19.7639 66.3406 19.5482 66.2447 19.3408C66.0488 18.9218 65.8633 18.6055 65.5861 18.4191C65.5299 18.3814 65.3611 18.2285 65.2277 18.107C65.1318 18.0211 65.0297 17.9289 64.9318 17.8409C64.9589 17.7655 64.9797 17.6901 64.9859 17.6126C65.0005 17.4136 64.938 17.2314 64.8046 17.0889C64.6963 16.9716 64.4941 16.8375 64.1461 16.848C63.9648 16.8543 63.7626 16.9067 63.5626 16.9884C63.0436 16.8459 62.1892 16.848 61.8974 16.8606C61.7036 16.8711 61.3889 16.8794 61.0513 16.8899C60.5261 16.9067 59.9301 16.9255 59.6342 16.9486C59.1903 16.9842 58.638 16.9674 58.4254 16.9423C58.2504 16.9213 58.067 16.8794 57.8752 16.8334C57.5314 16.7538 57.1396 16.6595 56.6873 16.6742C55.9934 16.6909 55.3098 17.1141 54.9826 17.3172L54.9118 17.3612C54.7805 17.4387 54.1302 17.5372 53.4092 17.5204C52.4714 17.4974 49.8684 17.3214 49.1202 17.2397C48.9223 17.2188 48.6347 17.1601 48.3033 17.0931C47.4072 16.9109 46.1818 16.6637 45.046 16.7768C43.7372 16.9067 42.4513 17.2523 41.228 17.8053L40.9467 17.9352C40.0485 18.3479 38.8147 18.9134 37.5268 18.8171C36.4306 18.7333 34.5779 18.1531 34.5779 16.494C34.5779 15.6079 35.5949 15.1513 36.0305 15.1513C36.714 15.1513 37.3288 15.6959 37.383 15.8467C37.383 16.1316 37.3246 16.3201 37.2788 16.471C37.2142 16.6825 37.1162 17.003 37.4101 17.2795C37.6456 17.4995 38.152 17.6147 38.5896 17.422C38.9502 17.2649 39.3774 16.8648 39.3774 15.8467C39.3774 14.0138 37.3892 13.1613 36.045 13.1613C34.6571 13.1613 32.646 14.349 32.646 16.494C32.646 18.6642 34.0798 20.275 36.3847 20.6982C38.0145 20.9977 39.1065 20.849 39.8922 20.5725C39.6671 21.2826 39.3316 22.2839 39.0481 22.9123C38.5688 23.9723 37.3663 25.4658 37.1767 25.6146C37.1267 25.6481 37.0683 25.6837 37.0058 25.7193C36.7286 25.8848 36.3847 26.0901 36.2743 26.4399C36.2034 26.6682 35.3698 28.7211 35.0656 29.4563C34.7842 30.1371 35.0614 30.5163 35.2844 30.8221C35.3344 30.8912 35.3907 30.9646 35.4428 31.0484C35.7074 31.4715 36.2014 31.6454 36.6244 31.6454C36.8057 31.6454 36.9766 31.6118 37.11 31.5532C37.6164 31.327 37.5726 30.6064 37.4747 30.311C37.4163 30.1392 37.2767 30.0219 37.0996 29.8732C37.0516 29.8334 36.9829 29.7747 36.9328 29.7266C37.0704 29.3872 37.5518 28.5577 37.681 28.4236C37.8394 28.2791 38.6105 27.7512 39.2253 27.3993C39.8651 27.0348 41.3093 26.0817 41.9991 25.5852C42.3867 25.3066 42.7452 24.9987 43.0015 24.7662C43.2662 25.2396 43.3954 25.5706 43.4038 25.6795C43.4934 27.2841 43.4288 27.6276 43.4142 27.68C43.3975 27.7428 43.3725 27.8036 43.3475 27.8664C43.2162 28.1932 42.9932 28.7399 43.6226 29.427C43.9018 29.7308 45.444 31.3018 46.0567 31.4359C46.0692 31.438 46.8987 31.5867 47.6572 31.5867C48.1658 31.5867 48.6451 31.5197 48.8243 31.2976C49.0181 31.0588 49.0515 30.7174 48.916 30.4053C48.7576 30.0429 48.4138 29.8124 47.9969 29.7873C47.8031 29.7747 47.6343 29.7915 47.4843 29.8062C47.1696 29.8376 46.9966 29.8543 46.7236 29.6281C46.5527 29.4857 46.0963 29.1086 46.0651 28.9976C46.1317 28.7106 46.6694 26.6515 46.8612 26.1236C46.8882 26.0461 46.9258 25.9518 46.9654 25.8471C47.1404 25.3862 47.3113 24.917 47.4322 24.475C47.9198 24.6091 48.7889 24.8123 49.7746 24.8919C50.7625 24.9715 51.4794 24.8877 52.0566 24.8227C52.14 24.8123 52.215 24.806 52.2921 24.7976C52.1858 25.2417 52.0441 25.8722 51.992 26.3373C51.9483 26.7164 51.917 27.2946 51.8899 27.8036C51.8691 28.2121 51.8399 28.7211 51.8232 28.807C51.7357 29.0688 51.8649 29.3202 51.9899 29.5653C52.0316 29.6491 52.1025 29.7873 52.1108 29.8355C52.1233 29.9486 52.2775 30.8095 52.5401 31.0546C52.7735 31.2704 53.6676 31.3751 54.0802 31.3751C54.1386 31.3751 54.1865 31.373 54.2219 31.3688C54.7888 31.306 55.2139 30.8871 55.166 30.4346L55.1618 30.378C55.1431 30.1707 55.1014 29.6868 54.3887 29.6428C54.2824 29.6365 54.1865 29.6365 54.1031 29.6365C54.074 29.6365 54.0427 29.6365 54.0135 29.6365C54.001 29.6009 53.9864 29.5632 53.9739 29.5234C53.901 29.3244 53.8343 29.1337 53.8697 28.9683C53.9385 28.6582 54.4553 27.2401 54.7179 26.6096C54.9138 26.1424 55.3744 25.2354 55.5745 24.85C55.6745 24.8374 55.7766 24.8227 55.8746 24.8102C56.0996 24.7829 56.3101 24.7557 56.4956 24.7201C56.779 24.6677 57.1 24.5525 57.3271 24.4604C57.819 25.0762 58.6734 25.977 59.0527 26.2702C59.2799 26.4462 59.7029 26.8547 60.1114 27.2485C60.5553 27.6779 60.9763 28.0843 61.2055 28.2498L61.3743 28.3713C62.2371 28.985 62.7123 29.3872 62.7894 29.5632C63.0311 30.1141 64.392 31.1007 64.9172 31.1887C64.9234 31.1908 65.286 31.2411 65.7154 31.2411C66.3072 31.2411 67.0325 31.1447 67.1596 30.686C67.2429 30.3885 67.2888 29.9612 67.047 29.6197C66.9178 29.4501 66.6719 29.2385 66.2009 29.2071ZM34.8592 14.7093C34.853 14.571 34.7738 14.4537 34.6613 14.3888C35.0489 14.1479 35.4657 14.0054 35.82 13.9635V13.9908C35.82 14.15 35.9138 14.2861 36.0492 14.349C36.0388 14.349 36.0284 14.3469 36.018 14.3469C35.6595 14.349 35.2385 14.4768 34.8592 14.7093ZM38.5751 15.8404C38.5751 16.2741 38.475 16.5694 38.2916 16.6721C38.1978 16.7244 38.0916 16.7223 38.0186 16.714C38.0207 16.7098 38.0207 16.7056 38.0228 16.7014C38.0791 16.5212 38.1624 16.2468 38.1624 15.8425C38.1624 15.7273 38.1249 15.6016 38.0561 15.476L38.0957 15.4362C38.2499 15.2811 38.2499 15.0298 38.0957 14.8727C37.9415 14.7177 37.6914 14.7177 37.5351 14.8727L37.5205 14.8873C37.185 14.6339 36.7536 14.4349 36.3056 14.372C36.4723 14.3301 36.5973 14.1898 36.6056 14.0138C37.4893 14.1898 38.5751 14.7596 38.5751 15.8404ZM34.0798 14.8643C34.0965 15.0025 34.1778 15.1178 34.2965 15.1764C34.1486 15.3419 34.0235 15.5304 33.9318 15.7378C33.8214 15.7483 33.7172 15.8006 33.6484 15.8991C33.5213 16.0772 33.563 16.3264 33.7401 16.4542L33.7735 16.4772C33.7735 16.4814 33.7735 16.4835 33.7735 16.4856C33.7735 16.8438 33.836 17.1685 33.9485 17.4639C33.8047 17.4953 33.6922 17.6 33.6547 17.7425C33.5067 17.3591 33.4275 16.9381 33.4275 16.4856C33.4275 15.8111 33.6963 15.2707 34.0798 14.8643ZM33.8818 18.2159C33.9277 18.2347 33.9756 18.2452 34.0277 18.2452H34.0694C34.1694 18.2452 34.259 18.2033 34.3299 18.1426C34.5362 18.4107 34.7925 18.6411 35.0822 18.8338C34.9384 18.794 34.78 18.8359 34.6779 18.9574L34.6279 19.0161C34.6175 19.0287 34.6133 19.0433 34.605 19.058C34.3132 18.8129 34.0694 18.5322 33.8818 18.2159ZM35.2635 19.4916L35.2781 19.4748C35.4094 19.3198 35.3969 19.0957 35.2635 18.9512C35.7658 19.2486 36.3514 19.4434 36.9558 19.544C36.9453 19.5523 36.9328 19.5565 36.9245 19.567L36.7849 19.7157C36.7244 19.7807 36.6973 19.8603 36.6869 19.9399C36.6307 19.9294 36.5765 19.9231 36.516 19.9126C36.0555 19.8247 35.6345 19.6822 35.2635 19.4916ZM53.2404 28.2728C53.0403 28.3147 52.8319 28.3587 52.8256 28.3461C52.8256 28.3231 52.8402 28.2456 52.9111 28.1723C52.9736 28.1073 53.0611 28.0696 53.1507 28.0696C52.9319 28.0696 52.7548 28.2477 52.7548 28.4676C52.7548 28.6603 52.8944 28.8153 53.0778 28.851C53.0132 29.2217 53.1278 29.5527 53.2154 29.7957C53.2341 29.8481 53.2529 29.8983 53.2675 29.9486C53.4217 30.4346 53.8406 30.4304 54.0927 30.4325C54.1615 30.4325 54.2386 30.4325 54.3261 30.4367C54.3386 30.4367 54.3491 30.4388 54.3574 30.4388C54.3574 30.4409 54.3574 30.4451 54.3574 30.4472L54.3595 30.4765C54.3282 30.5079 54.2449 30.5624 54.1198 30.577C53.8989 30.598 53.3008 30.5121 53.0695 30.4472C53.0028 30.288 52.9048 29.9318 52.884 29.7475C52.8632 29.5569 52.7694 29.3767 52.6798 29.2008C52.6464 29.1358 52.5985 29.0416 52.5797 28.9871C52.611 28.8405 52.6277 28.5619 52.6673 27.8455C52.6693 27.7952 52.6735 27.7449 52.6756 27.6926C52.7194 27.7093 52.7652 27.7198 52.8131 27.7198C52.859 27.7198 52.9069 27.7114 52.9528 27.6926C53.0007 27.6737 53.034 27.6632 53.0591 27.6549C53.1507 27.6234 53.2049 27.6025 53.3133 27.5313C53.4967 27.4119 53.5509 27.1668 53.4321 26.9803C53.3133 26.796 53.0695 26.7415 52.884 26.8609C52.8465 26.8861 52.8465 26.8861 52.8048 26.8986C52.7819 26.907 52.7527 26.9175 52.7173 26.9301C52.7298 26.7415 52.7444 26.5656 52.761 26.4252C52.8173 25.9309 52.9903 25.1977 53.0924 24.7829C53.2633 24.806 53.4383 24.8416 53.6113 24.8772C53.9052 24.9401 54.2053 25.0029 54.5012 25.0029C54.5304 25.0029 54.5596 24.9987 54.5887 24.9987C54.372 25.4302 54.1094 25.9623 53.9698 26.2995C53.7864 26.752 53.4467 27.6611 53.2404 28.2728ZM66.4114 30.3676C66.1447 30.4493 65.384 30.4639 65.036 30.4053C64.7504 30.3508 63.6292 29.5317 63.5021 29.2448C63.3562 28.9117 62.9144 28.5242 62.2079 28.0047C62.3205 27.879 62.3455 27.6905 62.2559 27.5396C62.2559 27.5396 62.2038 27.4496 62.1704 27.3134C62.1204 27.0997 61.9057 26.9678 61.6932 27.0201C61.5181 27.062 61.4035 27.217 61.3972 27.3888C61.1847 27.1961 60.9033 26.9259 60.647 26.6766C60.5074 26.5404 60.3719 26.4106 60.2406 26.2849C60.2615 26.287 60.2802 26.2954 60.3031 26.2933C60.522 26.2744 60.6824 26.0838 60.6658 25.8638C60.6491 25.6669 60.5386 25.5643 60.4719 25.5182C60.2885 25.3925 60.0926 25.4512 59.9655 25.4889L59.8863 25.5119C59.7675 25.5454 59.6821 25.6292 59.6362 25.7319C59.5987 25.7004 59.557 25.6627 59.5237 25.6376C59.4549 25.5852 59.3716 25.5098 59.2799 25.4239C59.2799 25.4239 59.2799 25.4239 59.2799 25.4218C59.282 25.4093 59.284 25.3967 59.284 25.3841C59.3945 25.2773 59.4383 25.1139 59.382 24.961C59.2924 24.7096 59.084 24.6405 58.9318 24.6573C58.811 24.6698 58.7297 24.7264 58.6672 24.7997C58.2108 24.3053 57.7627 23.7733 57.6898 23.6245C57.4959 23.2328 56.5977 22.4578 56.3289 22.2294C56.1622 22.087 55.9121 22.11 55.7704 22.2776C55.6307 22.4452 55.6516 22.6966 55.8183 22.839C56.1893 23.1532 56.6102 23.5429 56.8332 23.79C56.6686 23.8487 56.4894 23.9052 56.3393 23.9346C56.3039 23.9409 56.2664 23.9471 56.2289 23.9513C56.3289 23.79 56.308 23.5785 56.1622 23.4465C55.9996 23.2999 55.7495 23.3145 55.6036 23.48C55.512 23.5847 55.3473 23.7858 55.289 23.9492C55.2723 23.9932 55.2702 24.0372 55.2702 24.0833C55.0868 24.1105 54.8972 24.144 54.7075 24.188C54.4658 24.2446 54.1323 24.1734 53.7822 24.098C53.5676 24.0519 53.3487 24.0079 53.1237 23.9827C53.157 23.9283 53.1924 23.8717 53.2299 23.8194C53.355 23.6392 53.3133 23.392 53.1341 23.2642C52.9549 23.1386 52.7089 23.1805 52.5818 23.3606C52.3484 23.6916 52.2755 23.8822 52.2525 23.9974C52.1546 24.0079 52.0608 24.0163 51.9545 24.0288C51.5252 24.0791 51.0105 24.1336 50.3665 24.121C50.3873 24.0938 50.4061 24.0644 50.4186 24.0288C50.4936 23.8235 50.3894 23.5931 50.1831 23.5177C49.7225 23.348 49.3516 23.8131 49.2099 24.0267C48.5117 23.9304 47.9157 23.7837 47.5718 23.6874C47.5843 23.5596 47.5906 23.436 47.5822 23.3208C47.5676 23.1009 47.3759 22.9354 47.1613 22.95C47.0425 22.9584 46.9424 23.0213 46.8737 23.1092C46.8299 23.015 46.7486 22.9375 46.6423 22.9019C46.6236 22.8956 46.5798 22.8851 46.5235 22.8746C46.4944 22.8704 46.4318 22.8579 46.386 22.8453C46.2922 22.7406 46.1442 22.6903 45.9963 22.7259C45.7837 22.7783 45.6545 22.994 45.7066 23.2077C45.79 23.5491 46.1713 23.6183 46.4131 23.6623C46.4464 23.6706 46.4819 23.6748 46.5152 23.6748C46.6173 23.6748 46.7111 23.6308 46.784 23.5638C46.7653 23.8173 46.6944 24.1273 46.6006 24.4415C46.584 24.3661 46.5548 24.2949 46.4985 24.2362C46.3964 24.1147 46.2026 23.8906 45.9275 23.9367C45.7754 23.9618 45.6482 24.0665 45.5899 24.2153C45.5086 24.4185 45.6066 24.651 45.8108 24.7327C45.84 24.7452 45.8712 24.7536 45.9025 24.7578C45.9233 24.7809 45.94 24.7997 45.9504 24.8102C46.0255 24.8856 46.1234 24.9233 46.2234 24.9233C46.3151 24.9233 46.4068 24.8856 46.4819 24.8206C46.3881 25.0972 46.2901 25.3569 46.2151 25.5559C46.1734 25.6648 46.1359 25.7633 46.1067 25.845C46.0942 25.8806 46.0796 25.9246 46.063 25.9728C46.0296 25.8492 45.9838 25.69 45.9629 25.6355C45.8837 25.4344 45.6608 25.3401 45.4586 25.4156C45.2565 25.491 45.1543 25.7193 45.2252 25.9246C45.2439 25.9811 45.3002 26.1864 45.3356 26.3247C45.3815 26.5027 45.542 26.6221 45.7191 26.6221C45.7525 26.6221 45.7858 26.6179 45.8191 26.6096C45.8421 26.6033 45.8587 26.5886 45.8796 26.5802C45.8233 26.7751 45.765 26.9845 45.7066 27.1982C45.6566 27.1165 45.5795 27.0495 45.4815 27.0201C45.271 26.9594 45.0522 27.0809 44.9918 27.2925C44.9397 27.4705 45.0001 27.6444 45.2085 27.9355C45.2731 28.0256 45.369 28.0696 45.4711 28.0864C45.3794 28.4383 45.3086 28.7169 45.2856 28.8133C45.1564 29.3663 45.6691 29.7915 46.2109 30.2398C46.7361 30.6734 47.1883 30.6294 47.5489 30.5959C47.6823 30.5833 47.8073 30.5707 47.9407 30.5791C48.0699 30.5875 48.1345 30.6441 48.1658 30.6901C48.1824 30.7153 48.1908 30.7383 48.1949 30.7572C47.8156 30.8326 46.609 30.7404 46.2255 30.6566C45.965 30.5728 44.8667 29.6114 44.1978 28.8845C43.9081 28.5703 43.9602 28.4425 44.0748 28.1639C44.1144 28.0675 44.1498 27.9733 44.1748 27.879C44.1978 27.7889 44.2624 27.5375 44.2207 26.3708C44.2269 26.3875 44.2332 26.398 44.2374 26.4064C44.3082 26.5488 44.4541 26.6347 44.6021 26.6347C44.6604 26.6347 44.7167 26.6221 44.773 26.5949C44.9689 26.4965 45.0522 26.2681 44.9543 26.0712C44.9397 26.0335 44.9022 25.8764 44.8709 25.7382C44.823 25.5224 44.6104 25.3862 44.3999 25.4344C44.3082 25.4554 44.2353 25.5098 44.1811 25.5769C44.1436 25.2207 43.8331 24.5965 43.46 23.989C43.4663 23.989 43.4725 23.989 43.4788 23.989C43.6663 23.9702 43.8101 23.8215 43.8331 23.6413C43.8476 23.6078 43.881 23.5491 43.9102 23.5072C44.031 23.325 43.981 23.0778 43.7997 22.9563C43.6184 22.8348 43.3725 22.883 43.2516 23.0673C43.1578 23.2098 43.1057 23.3187 43.0786 23.4046C42.4847 22.5478 41.4906 20.8637 41.4802 20.8469C41.3677 20.6584 41.1259 20.5955 40.9383 20.7066C40.7508 20.8176 40.6883 21.0627 40.7987 21.2512C40.8404 21.3203 41.8199 22.9815 42.4326 23.8633C42.4847 23.9367 42.5285 24.0058 42.5764 24.077C42.3388 24.297 41.9491 24.6405 41.5365 24.9359C41.376 25.0511 41.1718 25.1935 40.9467 25.3464C40.9884 25.1391 40.8633 24.9338 40.657 24.8835C40.4465 24.8311 40.2298 24.9589 40.1777 25.1726C40.1318 25.359 40.1256 25.5203 40.1256 25.5999C40.1256 25.69 40.161 25.7696 40.211 25.8366C39.6775 26.1885 39.144 26.5258 38.8314 26.7038C38.673 26.7939 38.4959 26.9007 38.3187 27.0139C38.3146 26.9887 38.3104 26.9678 38.3083 26.9552C38.2958 26.7457 38.1249 26.5802 37.9123 26.5802C37.6935 26.5802 37.5164 26.7583 37.5164 26.9782C37.5164 27.0516 37.5268 27.2862 37.6164 27.4768C37.4017 27.6255 37.2288 27.7554 37.1412 27.8371C36.9495 28.0151 36.0721 29.404 36.1076 29.8229C36.1305 30.1015 36.3639 30.2963 36.5911 30.4849C36.6348 30.5205 36.6953 30.5707 36.7307 30.6064C36.7432 30.6755 36.7453 30.7781 36.7349 30.841C36.5848 30.8682 36.2493 30.841 36.1138 30.6231C36.0492 30.5205 35.9846 30.4325 35.9242 30.3487C35.7283 30.0827 35.6887 30.0261 35.7991 29.7622C36.0075 29.2573 36.9412 26.972 37.0308 26.6808C37.0662 26.6075 37.2913 26.4734 37.4101 26.4022C37.483 26.3582 37.5539 26.3163 37.6164 26.2744C37.7581 26.1781 38.0686 25.8282 38.4188 25.3737C38.4292 25.4679 38.45 25.5852 38.4688 25.6795C38.5063 25.8701 38.6709 26.0021 38.8564 26.0021C38.8814 26.0021 38.9064 26 38.9314 25.9958C39.1461 25.9539 39.2857 25.7444 39.244 25.5287C39.244 25.5266 39.2065 25.3422 39.2023 25.2668C39.1982 25.049 39.0231 24.8751 38.8064 24.8751C38.798 24.8751 38.7918 24.8793 38.7835 24.8793C39.1669 24.3368 39.5462 23.7314 39.7692 23.2391C40.2694 22.131 40.8842 20.0425 40.9113 19.9524C40.9571 19.7974 40.905 19.6299 40.7779 19.5293C40.6528 19.4288 40.4778 19.4141 40.3381 19.4937C39.7338 19.8351 38.9356 20.1494 37.5539 20.0488C37.6393 19.9105 37.6331 19.7409 37.5372 19.6089C37.8519 19.6278 38.1583 19.6152 38.4563 19.5796C38.4729 19.6382 38.4979 19.6969 38.5417 19.7451L38.6334 19.8435C38.7105 19.9294 38.8189 19.9734 38.9252 19.9734C39.021 19.9734 39.1169 19.9378 39.1919 19.8687C39.3191 19.7513 39.3482 19.5691 39.2836 19.4183C39.7713 19.2905 40.2256 19.1187 40.6382 18.9407C40.6862 19.0538 40.78 19.146 40.9092 19.1753L41.0571 19.2088C41.0863 19.2151 41.1155 19.2193 41.1426 19.2193C41.3239 19.2193 41.4885 19.0936 41.5281 18.9072C41.5552 18.7857 41.5177 18.6663 41.4468 18.5762L41.551 18.528C41.9074 18.3667 42.268 18.2327 42.6347 18.1112C42.6306 18.2997 42.7535 18.4694 42.9432 18.5092C42.9703 18.5154 42.9974 18.5175 43.0245 18.5175C43.2079 18.5175 43.3725 18.3877 43.4121 18.2012L43.4496 18.0211C43.46 17.9687 43.46 17.9184 43.4496 17.8703C43.6893 17.8095 43.9289 17.753 44.1686 17.7069C44.1415 17.8032 44.1394 17.9017 44.1686 17.9959C44.2207 18.1635 44.3582 18.2892 44.5437 18.3395C44.5791 18.35 44.6146 18.3541 44.6479 18.3541C44.823 18.3541 44.9814 18.2389 45.0293 18.0609C45.0606 17.9478 45.0397 17.8346 44.9814 17.7425C44.9814 17.6901 44.9689 17.6419 44.948 17.5938C45.0064 17.5875 45.0647 17.5749 45.1231 17.5686C45.4565 17.5351 45.8046 17.5414 46.1526 17.5665C45.9629 17.5686 45.7941 17.6985 45.7608 17.8912C45.7358 18.0441 45.7983 18.1908 45.9129 18.2766C45.9275 18.3227 45.9504 18.3688 45.9838 18.4086C46.063 18.505 46.1755 18.5552 46.2901 18.5552C46.3777 18.5552 46.4673 18.5259 46.5402 18.4652C46.6986 18.3332 46.7653 18.1468 46.7174 17.9645C46.6465 17.6964 46.3839 17.6042 46.2651 17.5749C46.6027 17.6042 46.9362 17.6524 47.255 17.7069C47.2175 17.732 47.1821 17.7613 47.155 17.8011C47.055 17.9436 47.0591 18.13 47.155 18.2662C47.1508 18.373 47.1883 18.4819 47.2696 18.5636C47.3467 18.6411 47.4488 18.6809 47.5489 18.6809C47.6489 18.6809 47.751 18.6411 47.8281 18.5636C47.9344 18.4568 47.9886 18.3102 47.9761 18.1614C47.9657 18.0357 47.9094 17.9142 47.8177 17.8137C47.9282 17.8346 48.0365 17.8577 48.1387 17.8786C48.4909 17.9499 48.793 18.0106 49.0265 18.0357C49.1348 18.0483 49.287 18.0609 49.4641 18.0776C49.5058 18.2745 49.6079 18.4756 49.735 18.5594C49.8017 18.6055 49.8788 18.6265 49.9538 18.6265C50.081 18.6265 50.2081 18.5636 50.2831 18.4484C50.3456 18.3562 50.3582 18.2473 50.3352 18.1468C50.9521 18.1908 51.6565 18.2368 52.2671 18.2704C52.24 18.3856 52.2254 18.5133 52.2504 18.6286C52.29 18.8171 52.4609 18.9595 52.6464 18.9595C52.6714 18.9595 52.6964 18.9574 52.7235 18.9512C52.9382 18.9051 53.0757 18.7103 53.0299 18.4966C53.0299 18.4798 53.0403 18.44 53.0465 18.4191C53.0653 18.3835 53.0736 18.3458 53.082 18.3102C53.1924 18.3143 53.2966 18.3185 53.3821 18.3206C53.8989 18.3332 54.868 18.2913 55.2848 18.0609C55.3306 18.2306 55.4765 18.3583 55.6599 18.3583C55.8787 18.3583 56.0559 18.1803 56.0559 17.9603V17.6734C56.0559 17.6629 56.0517 17.6545 56.0496 17.644C56.1809 17.5875 56.3164 17.5393 56.4518 17.51C56.4498 17.5267 56.4414 17.5414 56.4414 17.5581C56.4414 17.7781 56.6186 17.9561 56.8374 17.9561H56.9208C57.1396 17.9561 57.3167 17.7781 57.3167 17.5581C57.3167 17.5498 57.3126 17.5414 57.3126 17.533C57.4376 17.556 57.5626 17.5833 57.6898 17.6147C57.8961 17.6629 58.1087 17.7111 58.3275 17.7383C58.5171 17.7613 58.8422 17.7739 59.1778 17.7697C59.1465 17.7948 59.1152 17.8221 59.0923 17.8577L59.0381 17.9415C58.9193 18.1258 58.9714 18.373 59.1548 18.4924C59.2215 18.5364 59.2965 18.5552 59.3695 18.5552C59.4987 18.5552 59.6258 18.4903 59.7029 18.373L59.7571 18.2892C59.8717 18.1091 59.8238 17.8744 59.6508 17.7509C59.6633 17.7509 59.6779 17.7488 59.6904 17.7488C59.9155 17.7299 60.3469 17.7152 60.7783 17.7027C60.7783 17.8158 60.8221 17.9289 60.9158 18.0064L60.9659 18.0483C61.0409 18.1112 61.1305 18.1405 61.218 18.1405C61.3326 18.1405 61.4431 18.0923 61.5223 17.998C61.5994 17.9059 61.6223 17.7886 61.6036 17.6775C61.7307 17.6734 61.8432 17.6692 61.9308 17.665C62.1329 17.6545 62.3726 17.6566 62.6039 17.6692C62.5935 17.6817 62.581 17.6943 62.5706 17.7069C62.4351 17.8786 62.4643 18.13 62.6352 18.2662C62.806 18.4023 63.0561 18.373 63.1916 18.2012C63.3291 18.0274 63.5334 17.8849 63.7251 17.7865C63.7272 17.7865 63.7272 17.7844 63.7293 17.7844C63.9043 17.6943 64.0711 17.6419 64.1648 17.6356C64.0982 17.755 63.9314 17.9436 63.7689 18.0755C63.598 18.2138 63.5709 18.4631 63.7084 18.6348C63.7876 18.7333 63.9022 18.7836 64.0169 18.7836C64.1044 18.7836 64.1898 18.7542 64.2649 18.6956C64.2815 18.683 64.3045 18.6642 64.3274 18.6432C64.3003 18.6977 64.2815 18.7563 64.2815 18.8192V18.9512C64.2815 19.1711 64.4587 19.3492 64.6775 19.3492C64.8713 19.3492 65.0235 19.2067 65.0589 19.0224C65.0901 19.0475 65.1193 19.0706 65.1464 19.0873C65.2777 19.1753 65.4194 19.4518 65.5278 19.6843C65.6216 19.8875 65.7174 20.1012 65.8029 20.2939C65.8862 20.4803 65.9613 20.6521 66.0238 20.7799C66.1467 21.0375 66.1426 21.1192 66.1488 21.1192C65.8883 21.3098 65.7966 21.3203 65.7987 21.3224C65.7362 21.3119 65.6466 21.2847 65.5632 21.2617C65.3611 21.2051 65.2506 21.1737 65.1235 21.2051C64.9109 21.2575 64.7817 21.4753 64.8359 21.6869C64.8588 21.7812 64.9151 21.8566 64.9859 21.9089C64.8296 21.9697 64.8234 21.9655 64.665 21.8126C64.3274 21.4858 63.9502 21.1716 63.4688 21.0857C63.35 21.0648 63.1207 21.0522 62.8394 21.0564C62.8748 20.9684 62.8832 20.8658 62.8477 20.7694C62.7727 20.562 62.5455 20.4573 62.3392 20.5327L62.2475 20.5662C62.0412 20.6416 61.937 20.8699 62.012 21.0773C62.0162 21.0899 62.0266 21.1004 62.0329 21.1129C61.8057 21.1402 61.5786 21.18 61.3639 21.2323C61.3827 21.0794 61.4035 20.9621 61.416 20.9223C61.4973 20.7191 61.3993 20.4866 61.1951 20.4049C60.9909 20.3232 60.7616 20.4217 60.6803 20.627C60.6262 20.7631 60.5595 21.1695 60.5345 21.6157C60.4865 21.5968 60.4323 21.5717 60.3823 21.5486C60.1843 21.4565 59.9488 21.5445 59.8572 21.7456C59.7655 21.9446 59.853 22.1813 60.0531 22.2734C60.3323 22.4012 60.4678 22.4389 60.5511 22.4473C60.5595 22.508 60.5657 22.5709 60.5761 22.6274C60.5907 22.6987 60.6137 22.795 60.6428 22.9102C60.6241 22.9186 60.6053 22.9186 60.5866 22.9291L60.5032 22.9794C60.3156 23.0925 60.2552 23.3376 60.3677 23.5261C60.4428 23.6497 60.5741 23.7188 60.7074 23.7188C60.7616 23.7188 60.8137 23.7041 60.8658 23.6811C61.0471 24.2572 61.2889 24.917 61.5244 25.3632C61.4869 25.382 61.4493 25.403 61.4181 25.4344L61.3326 25.5182C61.2243 25.6229 61.0909 25.7528 61.118 25.9728C61.1326 26.0964 61.2284 26.2304 61.3368 26.2933C61.3993 26.3289 61.466 26.3456 61.5327 26.3456C61.6703 26.3456 61.8036 26.2744 61.8766 26.1445C61.8912 26.1173 61.9037 26.0901 61.912 26.0607L61.962 26.0126C62.1412 26.266 62.383 26.6179 62.6352 26.9866C63.3312 28.0047 63.8418 28.7441 64.0773 28.9913C64.64 29.5799 65.4153 29.9591 66.153 30.0094C66.276 30.0177 66.3656 30.0471 66.3947 30.091C66.4218 30.1246 66.4364 30.2251 66.4114 30.3676Z" fill="#FFDE3B"/>
<path d="M49.898 21.2491C49.9167 21.1716 49.9105 21.0941 49.8834 21.0229C50.0063 20.8825 50.0168 20.6688 49.898 20.5159C49.7625 20.3421 49.5145 20.3106 49.3415 20.4468C49.1811 20.5725 48.9852 20.8783 49.0498 21.1716C49.0914 21.3601 49.2332 21.5026 49.4207 21.5465C49.4499 21.5528 49.4812 21.557 49.5103 21.557C49.6937 21.557 49.8563 21.4334 49.898 21.2491Z" fill="#FFDE3B"/>
<path d="M51.4835 22.2461C51.5772 22.2272 51.7502 22.1602 51.8565 21.9193C51.8982 21.8229 52.0274 21.4123 51.8815 21.1673C51.7356 20.9243 51.4543 20.9138 51.0479 20.9787C50.8312 21.0122 50.6832 21.2154 50.7186 21.4333C50.7436 21.5988 50.8687 21.7245 51.0229 21.7601C51.0083 21.8166 51.0062 21.8753 51.0187 21.9339C51.0562 22.1225 51.2209 22.2544 51.4064 22.2544C51.4314 22.2544 51.4564 22.2523 51.4835 22.2461Z" fill="#FFDE3B"/>
<path d="M52.5634 20.3484C52.6864 20.2269 52.7197 20.0342 52.6322 19.875C52.528 19.6823 52.2883 19.611 52.0945 19.7158C51.8027 19.875 51.6485 20.1222 51.6798 20.3798C51.7069 20.5935 51.8611 20.7673 52.0778 20.8239C52.1112 20.8323 52.1445 20.8365 52.1758 20.8365C52.3529 20.8365 52.5134 20.7171 52.5592 20.539C52.578 20.4741 52.578 20.4091 52.5634 20.3484Z" fill="#FFDE3B"/>
<path d="M50.8627 20.6981C50.8752 20.6981 50.8877 20.7002 50.8981 20.7002C51.1002 20.7002 51.2732 20.5452 51.292 20.3378C51.3045 20.1996 51.2461 20.0718 51.144 19.9922C51.1398 19.8519 51.0606 19.7157 50.9252 19.6487C50.7293 19.5502 50.4917 19.6298 50.3938 19.8267C50.3 20.0152 50.3021 20.2247 50.3979 20.4007C50.4938 20.5683 50.6668 20.6793 50.8627 20.6981Z" fill="#FFDE3B"/>
<path d="M49.6617 19.9168C49.7117 19.9168 49.7638 19.9063 49.8138 19.8854C49.968 19.8204 50.241 19.6403 50.2931 19.3722C50.3223 19.2255 50.2785 19.0768 50.1764 18.9742C50.0222 18.8192 49.7721 18.8192 49.6158 18.9742C49.5658 19.0244 49.5325 19.0831 49.5158 19.1459C49.5137 19.148 49.5116 19.148 49.5096 19.1501C49.3074 19.2339 49.2136 19.4685 49.297 19.6717C49.3574 19.8246 49.5054 19.9168 49.6617 19.9168Z" fill="#FFDE3B"/>
<path d="M48.6642 19.0935C48.6746 19.0956 48.6871 19.0956 48.6976 19.0956C48.9018 19.0956 49.0748 18.9385 49.0914 18.7312C49.1019 18.6138 49.0602 18.5049 48.9851 18.4253C49.006 18.2158 48.8601 18.0252 48.6496 17.9938C48.435 17.9582 48.2307 18.1111 48.1995 18.329C48.1786 18.4609 48.1432 18.706 48.2995 18.9029C48.387 19.0139 48.5162 19.081 48.6642 19.0935Z" fill="#FFDE3B"/>
<path d="M45.4402 18.3229C45.2359 18.2475 45.0088 18.3543 44.9317 18.5617C44.8733 18.7251 44.9275 18.901 45.0526 19.0058C45.0588 19.0372 45.0713 19.0686 45.0859 19.1C45.1547 19.2404 45.2943 19.32 45.4402 19.32C45.4985 19.32 45.5611 19.3074 45.6173 19.2781C45.7882 19.1922 45.8862 19.0246 45.8758 18.8382C45.8653 18.6162 45.6924 18.4151 45.4402 18.3229Z" fill="#FFDE3B"/>
<path d="M46.4129 19.5712C46.4817 19.6257 46.563 19.6508 46.6442 19.6508C46.7589 19.6508 46.8735 19.5985 46.9527 19.4979C46.9714 19.4728 46.9881 19.4476 47.0006 19.4204C47.1194 19.3345 47.1777 19.1816 47.1465 19.0203C47.1048 18.8046 46.8797 18.6684 46.6672 18.7082C46.5484 18.7312 46.2712 18.7815 46.2024 19.0685C46.1774 19.1774 46.1691 19.3848 46.4129 19.5712Z" fill="#FFDE3B"/>
<path d="M47.7222 19.9043C47.7889 19.9567 47.8744 19.9881 47.9661 19.9881C47.9765 19.9881 47.989 19.9881 47.9994 19.986C48.2162 19.9672 48.3787 19.7745 48.362 19.5566C48.3495 19.4058 48.2766 19.2759 48.1578 19.19C47.9348 19.0287 47.6451 19.102 47.5368 19.1293C47.3242 19.1816 47.195 19.3995 47.2492 19.6111C47.3013 19.8247 47.5138 19.9525 47.7222 19.9043Z" fill="#FFDE3B"/>
<path d="M48.0656 20.4237C48.0656 20.43 48.0635 20.4363 48.0635 20.4447C47.9677 20.518 47.9072 20.6311 47.9072 20.761C47.9072 20.9809 48.0844 21.159 48.3032 21.159C48.6866 21.159 48.8575 20.7379 48.8575 20.4384C48.8575 20.2247 48.6908 20.0613 48.4782 20.0509C48.2615 20.0404 48.0823 20.2122 48.0656 20.4237Z" fill="#FFDE3B"/>
<path d="M47.5591 21.4756C47.6049 21.3436 47.5778 21.2053 47.5007 21.1006C47.5737 20.9079 47.4861 20.6858 47.2965 20.5979C47.0985 20.5057 46.863 20.5916 46.7713 20.7927C46.665 21.0252 46.6483 21.2326 46.7213 21.4085C46.7817 21.5531 46.9005 21.662 47.0547 21.7165C47.0985 21.7311 47.1423 21.7395 47.186 21.7395C47.3486 21.7416 47.5028 21.639 47.5591 21.4756Z" fill="#FFDE3B"/>
<path d="M46.3301 20.7003C46.4218 20.7003 46.5114 20.6689 46.5864 20.6061C46.626 20.5725 46.6573 20.5327 46.6802 20.4908C46.8032 20.4133 46.8803 20.2688 46.8636 20.1138C46.8428 19.8959 46.6489 19.7346 46.4301 19.7577C46.203 19.7807 46.0237 19.9043 45.9508 20.0866C45.8862 20.2458 45.9175 20.428 46.0279 20.56C46.105 20.6521 46.2176 20.7003 46.3301 20.7003Z" fill="#FFDE3B"/>
<path d="M48.6601 22.4682C48.4788 22.5793 48.2474 22.9354 48.2974 23.2433C48.3308 23.4381 48.4975 23.5764 48.6872 23.5764C48.708 23.5764 48.7309 23.5743 48.7539 23.5701C48.9518 23.5366 49.0894 23.3627 49.0852 23.1679C49.0894 23.1595 49.0935 23.149 49.0998 23.1407C49.1394 23.1155 49.1748 23.0841 49.204 23.0443C49.3353 22.8683 49.2999 22.6191 49.1269 22.4871C48.9935 22.3886 48.7976 22.3845 48.6601 22.4682Z" fill="#FFDE3B"/>
<path d="M50.0433 22.016C49.8974 22.06 49.7807 22.1669 49.7119 22.3177C49.6223 22.5146 49.6098 22.7995 49.6848 22.965C49.7515 23.1137 49.8953 23.1996 50.0454 23.1996C50.0995 23.1996 50.1537 23.1891 50.2079 23.164C50.3892 23.0823 50.4788 22.8833 50.4288 22.6968C50.4288 22.6926 50.4288 22.6885 50.4288 22.6843C50.5351 22.5837 50.581 22.4287 50.5372 22.28C50.4726 22.0726 50.2517 21.9532 50.0433 22.016Z" fill="#FFDE3B"/>
<path d="M48.3202 21.5528C48.1243 21.4544 47.8868 21.534 47.7888 21.7309C47.7742 21.7602 47.7054 21.8293 47.6679 21.865C47.5533 21.9781 47.3616 22.1666 47.4533 22.441C47.5095 22.6086 47.6638 22.7133 47.8284 22.7133C47.8701 22.7133 47.9118 22.707 47.9534 22.6924C48.0702 22.6526 48.1577 22.5646 48.1973 22.4578C48.2056 22.4494 48.2139 22.441 48.2223 22.4326C48.3056 22.3488 48.4224 22.2357 48.4953 22.087C48.5953 21.8901 48.5161 21.6513 48.3202 21.5528Z" fill="#FFDE3B"/>
<path d="M51.4519 22.8494C51.4019 22.9248 51.3748 22.9919 51.354 23.0484C51.3331 23.1029 51.3206 23.1322 51.2873 23.172C51.1477 23.3417 51.1706 23.591 51.3373 23.7334C51.4123 23.7963 51.5019 23.8256 51.5916 23.8256C51.7062 23.8256 51.8166 23.7774 51.8958 23.6831C52.0125 23.5428 52.0605 23.4213 52.0917 23.3396C52.098 23.3229 52.1042 23.3061 52.1126 23.2914C52.2334 23.1092 52.1834 22.862 52.0021 22.7405C51.8187 22.6169 51.5728 22.6672 51.4519 22.8494Z" fill="#FFDE3B"/>
<path d="M53.43 22.0177C53.4362 21.9192 53.4049 21.8166 53.3362 21.7349C53.1945 21.5673 52.9444 21.5485 52.7777 21.6909C52.5422 21.892 52.5401 22.112 52.5609 22.2251C52.6005 22.445 52.7714 22.6105 53.0653 22.7173C53.109 22.7341 53.1549 22.7404 53.1986 22.7404C53.3612 22.7404 53.5133 22.6398 53.5717 22.4764C53.6342 22.3026 53.5696 22.1182 53.43 22.0177Z" fill="#FFDE3B"/>
<path d="M54.4863 23.0988C54.3134 23.1198 54.0029 23.2664 53.8611 23.5219C53.7549 23.7126 53.8174 23.9618 54.007 24.0708C54.0695 24.1064 54.1383 24.1231 54.205 24.1231C54.3405 24.1231 54.4697 24.054 54.5426 23.9241C54.5551 23.9116 54.5926 23.8885 54.5864 23.8864C54.8031 23.8592 54.9573 23.6602 54.9302 23.4423C54.9011 23.2266 54.7031 23.0716 54.4863 23.0988Z" fill="#FFDE3B"/>
<path d="M51.2769 19.4938C51.2873 19.4938 51.2978 19.4938 51.3082 19.4917C51.527 19.477 51.6916 19.2885 51.677 19.0685C51.6645 18.8926 51.5416 18.7501 51.3811 18.7082C51.3019 18.5763 51.1477 18.4967 50.9852 18.5197C50.7684 18.5511 50.6184 18.7522 50.6496 18.9701C50.683 19.2089 50.981 19.4938 51.2769 19.4938Z" fill="#FFDE3B"/>
<path d="M53.1988 19.9797L53.4655 19.6864L53.2029 19.9839C53.278 20.0509 53.3717 20.0844 53.4655 20.0844C53.5739 20.0844 53.6823 20.0404 53.7614 19.9504C53.8802 19.8163 53.8927 19.6215 53.8031 19.477C53.8281 19.368 53.8073 19.2507 53.7364 19.1544C53.6072 18.9763 53.3592 18.9386 53.1842 19.0685C53.0425 19.1732 52.9591 19.3199 52.9508 19.4812C52.9383 19.7472 53.1342 19.921 53.1988 19.9797Z" fill="#FFDE3B"/>
<path d="M54.0866 21.1948C54.1616 21.0083 54.0845 20.8009 53.9178 20.7025C53.8552 20.5307 53.676 20.4218 53.4905 20.4448C53.2738 20.4763 53.1237 20.6774 53.155 20.8952C53.1967 21.1906 53.4384 21.3623 53.5739 21.4168C53.6218 21.4357 53.6718 21.4461 53.7198 21.4461C53.8761 21.4461 54.0261 21.3519 54.0866 21.1948Z" fill="#FFDE3B"/>
<path d="M55.1226 21.5258C55.1122 21.509 55.0997 21.486 55.0934 21.4692C55.0226 21.2619 54.7975 21.1508 54.5891 21.2242C54.3828 21.2954 54.2723 21.5216 54.3453 21.7311C54.3619 21.7814 54.5224 22.2192 54.86 22.2527C54.8746 22.2548 54.8871 22.2548 54.9017 22.2548C55.1018 22.2548 55.2747 22.1019 55.2956 21.8966C55.3081 21.7457 55.2372 21.6075 55.1226 21.5258Z" fill="#FFDE3B"/>
<path d="M53.2007 25.4992C53.1737 25.5265 53.1507 25.5495 53.132 25.5684C52.9569 25.627 52.8423 25.803 52.8652 25.9936C52.8902 26.1968 53.059 26.3455 53.257 26.3455C53.2737 26.3455 53.2883 26.3455 53.305 26.3434C53.4633 26.3246 53.5863 26.2827 53.6988 26.1318C53.7072 26.1214 53.7197 26.1046 53.7447 26.0816C53.9031 25.9308 53.9114 25.6794 53.7614 25.5181C53.6113 25.3568 53.3591 25.3505 53.2007 25.4992Z" fill="#FFDE3B"/>
<path d="M44.5147 23.8653C44.3501 24.0392 44.2125 24.3471 44.3751 24.632C44.448 24.7619 44.5814 24.8352 44.721 24.8352C44.7877 24.8352 44.8544 24.8185 44.9148 24.7828C45.0586 24.7012 45.1316 24.542 45.1128 24.3848C45.2399 24.2256 45.2253 23.9931 45.0753 23.8486C44.9169 23.6999 44.6668 23.7061 44.5147 23.8653Z" fill="#FFDE3B"/>
<path d="M45.1251 21.9342C44.9896 21.8944 44.8292 21.9363 44.727 22.0348C44.5207 22.2338 44.5207 22.7575 44.5416 22.8413C44.5853 23.0235 44.7479 23.145 44.925 23.145C44.9563 23.145 44.9875 23.1408 45.0188 23.1324C45.2084 23.0864 45.3314 22.9104 45.3189 22.7219C45.321 22.68 45.3314 22.5983 45.3418 22.5396C45.3648 22.504 45.3835 22.4663 45.396 22.4244C45.4564 22.2128 45.3356 21.9929 45.1251 21.9342Z" fill="#FFDE3B"/>
<path d="M45.6188 20.8634C45.4604 20.7105 45.2104 20.7168 45.0582 20.876C44.9082 21.0352 44.9123 21.2866 45.0707 21.4395L45.1166 21.4835C45.1937 21.5568 45.2916 21.5945 45.3896 21.5945C45.4938 21.5945 45.598 21.5526 45.6751 21.4709C45.8251 21.3117 45.821 21.0603 45.6626 20.9074L45.6188 20.8634Z" fill="#FFDE3B"/>
<path d="M43.4204 21.5382C43.2162 21.4586 42.9869 21.5592 42.9077 21.7645L42.8494 21.9132C42.7702 22.1185 42.8702 22.3489 43.0745 22.4285C43.1224 22.4474 43.1703 22.4557 43.2183 22.4557C43.3766 22.4557 43.5267 22.3594 43.5871 22.2023L43.6455 22.0535C43.7247 21.8483 43.6225 21.6178 43.4204 21.5382Z" fill="#FFDE3B"/>
<path d="M44.5831 21.7414C44.6018 21.6032 44.6435 21.3183 44.4101 21.1633C44.2267 21.0418 43.9808 21.092 43.862 21.2743C43.7995 21.3685 43.7828 21.4796 43.8057 21.5822C43.8037 21.6052 43.7995 21.6262 43.7995 21.6304C43.7682 21.8482 43.9204 22.0493 44.135 22.0808C44.1538 22.0828 44.1725 22.0849 44.1913 22.0849C44.3851 22.0849 44.556 21.9404 44.5831 21.7414Z" fill="#FFDE3B"/>
<path d="M44.6354 20.6772C44.8542 20.6772 45.0292 20.518 45.0292 20.298C45.0334 20.2708 45.0459 20.2289 45.0563 20.1891C45.0938 20.0404 45.1188 19.9419 45.0772 19.8183C45.0084 19.6109 44.7833 19.4978 44.5749 19.5669C44.4186 19.6193 44.3165 19.7618 44.3061 19.9189C44.3019 19.9377 44.2936 19.9628 44.2873 19.9901C44.2561 20.1074 44.2373 20.1849 44.2373 20.2603C44.2415 20.4803 44.4165 20.6772 44.6354 20.6772Z" fill="#FFDE3B"/>
<path d="M40.3574 22.3969C40.3574 22.4807 40.4137 22.7446 40.4429 22.82C40.5033 22.973 40.6471 23.063 40.8034 23.063C40.8472 23.063 40.893 23.0547 40.9368 23.04C41.1368 22.9709 41.2452 22.7488 41.1848 22.5435C41.1723 22.5016 41.1514 22.3969 41.1452 22.3571C41.1264 22.156 40.9576 21.9989 40.7513 21.9989C40.5346 21.9989 40.3574 22.177 40.3574 22.3969Z" fill="#FFDE3B"/>
<path d="M41.5406 24.5336C41.5615 24.5378 41.5823 24.5378 41.6032 24.5378C41.7949 24.5378 41.9637 24.3975 41.9929 24.2027C42.0012 24.1482 42.0262 23.9555 41.9866 23.7858C41.9387 23.5763 41.7365 23.4549 41.5261 23.4967C41.3156 23.5386 41.1801 23.7502 41.2134 23.9618C41.2176 23.9827 41.2134 24.0414 41.2093 24.0791C41.1759 24.2948 41.3239 24.5001 41.5406 24.5336Z" fill="#FFDE3B"/>
<path d="M39.8545 23.4127C39.6982 23.6012 39.6899 23.9825 39.7003 24.0642C39.7295 24.2632 39.9025 24.4224 40.0984 24.4224C40.115 24.4224 40.1338 24.4203 40.1505 24.4182C40.3672 24.3868 40.5193 24.2024 40.4881 23.9846C40.4881 23.9594 40.4985 23.8945 40.5068 23.8589C40.5964 23.6955 40.561 23.486 40.4131 23.3624C40.2422 23.22 39.9942 23.243 39.8545 23.4127Z" fill="#FFDE3B"/>
<path d="M42.9228 20.9223L42.8478 20.6981C42.779 20.4908 42.556 20.3756 42.3476 20.4468C42.1392 20.5159 42.0288 20.7421 42.0976 20.9495L42.1726 21.1737C42.2288 21.3412 42.3831 21.446 42.5477 21.446C42.5894 21.446 42.6311 21.4397 42.6727 21.425C42.8791 21.3559 42.9916 21.1297 42.9228 20.9223Z" fill="#FFDE3B"/>
<path d="M43.9438 20.7169V20.629C43.9438 20.409 43.7666 20.231 43.5478 20.231C43.329 20.231 43.1519 20.409 43.1519 20.629V20.7169C43.1519 20.9369 43.329 21.1149 43.5478 21.1149C43.7666 21.1149 43.9438 20.9369 43.9438 20.7169Z" fill="#FFDE3B"/>
<path d="M42.4245 19.5229C42.4807 19.6884 42.635 19.791 42.7996 19.791C42.8413 19.791 42.885 19.7847 42.9288 19.7701C43.1351 19.6989 43.2456 19.4726 43.1747 19.2652L43.0997 19.0474C43.0288 18.84 42.8038 18.7269 42.5974 18.8002C42.3911 18.8714 42.2807 19.0977 42.3515 19.3051L42.4245 19.5229Z" fill="#FFDE3B"/>
<path d="M45.842 22.1646C45.8982 22.3301 46.0524 22.4328 46.2171 22.4328C46.2588 22.4328 46.3025 22.4265 46.3463 22.4118C46.5526 22.3406 46.6631 22.1144 46.5922 21.907L46.5172 21.6891C46.4463 21.4817 46.2212 21.3686 46.0149 21.4419C45.8086 21.5132 45.6982 21.7394 45.769 21.9468L45.842 22.1646Z" fill="#FFDE3B"/>
<path d="M43.4767 19.2591C43.533 19.4246 43.6872 19.5272 43.8518 19.5272C43.8935 19.5272 43.9373 19.521 43.9811 19.5063C44.1874 19.4351 44.2978 19.2088 44.227 19.0015L44.1519 18.7836C44.0811 18.5762 43.856 18.4631 43.6497 18.5364C43.4434 18.6076 43.3329 18.8339 43.4038 19.0413L43.4767 19.2591Z" fill="#FFDE3B"/>
<path d="M42.1161 19.7599L41.9744 19.4876C41.8723 19.2928 41.6326 19.2195 41.4388 19.3221C41.245 19.4248 41.172 19.6657 41.2741 19.8605L41.4159 20.1328C41.4867 20.2689 41.6243 20.3444 41.766 20.3444C41.8285 20.3444 41.891 20.3297 41.9494 20.2983C42.1453 20.1935 42.2182 19.9526 42.1161 19.7599Z" fill="#FFDE3B"/>
<path d="M58.4336 22.8871C58.2919 22.7195 58.0418 22.7007 57.8751 22.8431C57.7083 22.9856 57.6896 23.237 57.8313 23.4045L57.9313 23.5197C58.0105 23.6119 58.121 23.658 58.2314 23.658C58.3231 23.658 58.4148 23.6266 58.4878 23.5616C58.6545 23.4192 58.6732 23.1678 58.5315 23.0002L58.4336 22.8871Z" fill="#FFDE3B"/>
<path d="M59.6508 22.3404C59.6508 22.0639 59.4507 21.9026 59.2528 21.8859C58.961 21.8586 58.6505 22.1854 58.6171 22.4012C58.5817 22.619 58.7276 22.8222 58.9443 22.8578C58.9652 22.862 58.9881 22.862 59.0089 22.862C59.1215 22.862 59.2257 22.8138 59.2986 22.7342C59.4966 22.7133 59.6508 22.5457 59.6508 22.3404Z" fill="#FFDE3B"/>
<path d="M59.6694 23.3229C59.5111 23.2684 59.3443 23.3166 59.2005 23.4527C59.0026 23.6392 59.0297 23.8403 59.0505 23.9178C59.0922 24.0728 59.2151 24.1901 59.3798 24.2278C59.4089 24.2341 59.4402 24.2383 59.4694 24.2383C59.6424 24.2383 59.7987 24.1231 59.8487 23.9534C59.8778 23.9178 59.9029 23.8738 59.9174 23.8277C59.9883 23.6203 59.8758 23.3941 59.6694 23.3229Z" fill="#FFDE3B"/>
<path d="M60.3299 24.1398C60.1569 24.209 60.0423 24.3682 60.0402 24.5462C60.036 24.6866 60.109 24.873 60.3195 24.9694C60.3716 24.9945 60.4278 25.005 60.4841 25.005C60.6342 25.005 60.778 24.9191 60.8446 24.7724C60.853 24.7536 60.8592 24.7347 60.8655 24.7159C60.9572 24.563 60.9363 24.3619 60.8051 24.232C60.6842 24.1105 60.4966 24.0728 60.3299 24.1398Z" fill="#FFDE3B"/>
<path d="M57.6879 20.935C57.7671 20.935 57.8484 20.9098 57.9192 20.8596C58.0964 20.7318 58.136 20.4825 58.0089 20.3044C57.9964 20.2856 57.9776 20.2584 57.963 20.2332C57.9588 20.1369 57.9213 20.0426 57.8484 19.9693C57.6942 19.8143 57.4441 19.8143 57.2878 19.9693C57.0961 20.162 57.1232 20.4301 57.367 20.7695C57.4441 20.8784 57.565 20.935 57.6879 20.935Z" fill="#FFDE3B"/>
<path d="M59.4882 19.9335C59.5945 19.9335 59.7008 19.8916 59.7779 19.8078C59.9009 19.6759 59.9155 19.479 59.8279 19.3323C59.8404 19.1459 59.7217 18.9699 59.5362 18.9197C59.3257 18.861 59.1069 18.9888 59.0506 19.2024C58.9902 19.4308 59.0548 19.6759 59.2194 19.8288C59.2944 19.8979 59.3903 19.9335 59.4882 19.9335Z" fill="#FFDE3B"/>
<path d="M59.6465 20.5368C59.6465 20.6981 59.7528 20.9495 59.9257 21.0751C60.0091 21.1359 60.1029 21.1673 60.1987 21.1673C60.2467 21.1673 60.2946 21.1589 60.3405 21.1443C60.5489 21.0751 60.6614 20.8489 60.5905 20.6415C60.5593 20.5494 60.4988 20.476 60.4217 20.4279C60.3738 20.2624 60.2217 20.1409 60.0424 20.1409C59.8236 20.1388 59.6465 20.3168 59.6465 20.5368Z" fill="#FFDE3B"/>
<path d="M58.436 20.8303C58.4694 21.0251 58.6361 21.1634 58.8258 21.1634C58.8466 21.1634 58.8695 21.1613 58.8925 21.1571C59.1071 21.1215 59.253 20.9162 59.2176 20.6983C59.2176 20.6942 59.2155 20.6795 59.2155 20.6669C59.2926 20.5098 59.2592 20.315 59.1238 20.1935C58.9612 20.0469 58.7091 20.0615 58.5653 20.227C58.3964 20.4156 58.411 20.6858 58.436 20.8303Z" fill="#FFDE3B"/>
<path d="M57.9083 19.7743C57.9417 19.9691 58.1084 20.1074 58.298 20.1074C58.3189 20.1074 58.3418 20.1053 58.3647 20.1011C58.5794 20.0655 58.7253 19.8602 58.6898 19.6423C58.6898 19.6381 58.6877 19.6235 58.6877 19.6109C58.7648 19.4538 58.7315 19.259 58.596 19.1375C58.4335 18.9908 58.1813 19.0055 58.0375 19.171C57.8708 19.3595 57.8854 19.6297 57.9083 19.7743Z" fill="#FFDE3B"/>
<path d="M57.1212 22.152C57.1545 22.3468 57.3212 22.485 57.5109 22.485C57.5317 22.485 57.5546 22.4829 57.5776 22.4788C57.7922 22.4431 57.9381 22.2379 57.9027 22.02C57.9027 22.0158 57.9006 22.0012 57.9006 21.9886C57.9777 21.8315 57.9444 21.6367 57.8089 21.5152C57.6463 21.3685 57.3942 21.3832 57.2504 21.5487C57.0816 21.7372 57.0982 22.0074 57.1212 22.152Z" fill="#FFDE3B"/>
<path d="M56.1581 20.8363L56.1331 20.7797C56.0414 20.5787 55.8059 20.4907 55.6079 20.5828C55.4099 20.675 55.3203 20.9096 55.412 21.1107L55.4391 21.1715C55.4912 21.2909 55.61 21.5716 55.9456 21.5716C56.1644 21.5716 56.3415 21.3935 56.3415 21.1736C56.3436 21.0311 56.2686 20.9054 56.1581 20.8363Z" fill="#FFDE3B"/>
<path d="M54.4572 19.8122C54.353 19.8813 54.2759 20.028 54.2676 20.1515C54.2572 20.3191 54.3301 20.493 54.4593 20.604C54.5343 20.6689 54.626 20.7004 54.7156 20.7004C54.8282 20.7004 54.9386 20.6522 55.0157 20.5621C55.122 20.4364 55.1387 20.2647 55.0699 20.1243C55.0658 20.0552 55.0449 19.9861 55.0032 19.9253C54.8845 19.741 54.6406 19.6907 54.4572 19.8122Z" fill="#FFDE3B"/>
<path d="M54.5364 19.3115C54.6177 19.3115 54.701 19.2863 54.7719 19.234C54.8949 19.1418 54.949 18.9952 54.9282 18.8527C54.9511 18.6998 54.8844 18.5406 54.7469 18.4547C54.5614 18.3374 54.3176 18.3961 54.2009 18.5804C54.0738 18.7857 54.1175 19.014 54.2176 19.1502C54.2947 19.257 54.4155 19.3115 54.5364 19.3115Z" fill="#FFDE3B"/>
<path d="M56.5332 19.5881C56.3143 19.5881 56.1372 19.7662 56.1372 19.9861V20.0657C56.1372 20.2857 56.3143 20.4637 56.5332 20.4637C56.752 20.4637 56.9291 20.2857 56.9291 20.0657V19.9861C56.9291 19.7662 56.752 19.5881 56.5332 19.5881Z" fill="#FFDE3B"/>
<path d="M55.6582 19.7012C55.877 19.7012 56.0541 19.5231 56.0541 19.3032V19.1565C56.0541 18.9366 55.877 18.7585 55.6582 18.7585C55.4393 18.7585 55.2622 18.9366 55.2622 19.1565V19.3032C55.2622 19.5231 55.4393 19.7012 55.6582 19.7012Z" fill="#FFDE3B"/>
<path d="M57.4145 18.8528V18.7418C57.4145 18.5218 57.2373 18.3438 57.0185 18.3438C56.7997 18.3438 56.6226 18.5218 56.6226 18.7418V18.8528C56.6226 19.0727 56.7997 19.2508 57.0185 19.2508C57.2373 19.2508 57.4145 19.0727 57.4145 18.8528Z" fill="#FFDE3B"/>
<path d="M58.0923 18.5847H58.184C58.4028 18.5847 58.5799 18.4066 58.5799 18.1867C58.5799 17.9667 58.4028 17.7887 58.184 17.7887H58.0923C57.8734 17.7887 57.6963 17.9667 57.6963 18.1867C57.6963 18.4066 57.8734 18.5847 58.0923 18.5847Z" fill="#FFDE3B"/>
<path d="M60.3952 19.3218C60.2076 19.4349 60.1472 19.68 60.2597 19.8685L60.3348 19.9921C60.4098 20.1157 60.5411 20.1848 60.6745 20.1848C60.7432 20.1848 60.8141 20.166 60.8787 20.1283C61.0662 20.0151 61.1267 19.7701 61.0141 19.5815L60.9391 19.4579C60.8266 19.2694 60.5828 19.2087 60.3952 19.3218Z" fill="#FFDE3B"/>
<path d="M60.5408 19.0579C60.6199 19.0579 60.7012 19.0348 60.77 18.9846L60.8283 18.9427C61.0055 18.8149 61.0472 18.5656 60.92 18.3876C60.7929 18.2095 60.5449 18.1676 60.3678 18.2954L60.3094 18.3373C60.1323 18.4651 60.0906 18.7143 60.2177 18.8924C60.2969 18.9992 60.4178 19.0579 60.5408 19.0579Z" fill="#FFDE3B"/>
<path d="M61.5808 19.2068C61.6683 19.2068 61.758 19.1774 61.8309 19.1167L61.9622 19.0099C62.131 18.8716 62.1581 18.6202 62.0205 18.4506C61.883 18.2788 61.6329 18.2537 61.4641 18.3919L61.3328 18.4987C61.164 18.637 61.1369 18.8884 61.2745 19.058C61.3516 19.1565 61.4662 19.2068 61.5808 19.2068Z" fill="#FFDE3B"/>
<path d="M61.8203 19.3262C61.6015 19.3262 61.4243 19.5042 61.4243 19.7242V19.8247C61.4243 20.0447 61.6015 20.2227 61.8203 20.2227C62.0391 20.2227 62.2163 20.0447 62.2163 19.8247V19.7242C62.2163 19.5063 62.0391 19.3262 61.8203 19.3262Z" fill="#FFDE3B"/>
<path d="M9.04026 53.3596L13.0937 59.3946C13.127 59.4469 13.1687 59.4783 13.225 59.4993C13.2979 59.5244 13.3688 59.537 13.4396 59.537H14.0128C14.0961 59.537 14.1128 59.5202 14.1128 59.4364V51.6859C14.1128 51.6021 14.0961 51.5853 14.0128 51.5853H13.3584C13.275 51.5853 13.2583 51.6021 13.2583 51.6859V57.6392C13.2583 57.7041 13.2583 57.8759 13.1187 57.9178C12.9791 57.9597 12.8853 57.8151 12.8499 57.7606L8.88813 51.7257C8.85479 51.6754 8.81519 51.6419 8.75684 51.623C8.6839 51.5979 8.61304 51.5853 8.54218 51.5853H7.87738C7.79402 51.5853 7.77734 51.6021 7.77734 51.6859V59.4364C7.77734 59.5202 7.79402 59.537 7.87738 59.537H8.53385C8.61721 59.537 8.63388 59.5202 8.63388 59.4364V53.4832C8.63388 53.4203 8.63388 53.2507 8.77143 53.2088C8.79018 53.2025 8.80685 53.2004 8.82353 53.2004C8.93398 53.2025 9.009 53.3135 9.04026 53.3596Z" fill="#111111"/>
<path d="M24.1416 57.8865C24.2479 57.8216 24.298 57.7315 24.298 57.6079V53.5168C24.298 53.3912 24.25 53.3053 24.1416 53.2382L20.6426 51.1749C20.5842 51.1414 20.53 51.1246 20.48 51.1246C20.4571 51.1246 20.405 51.1309 20.3091 51.1791L16.835 53.2382C16.7204 53.3053 16.6704 53.3912 16.6704 53.5168V57.6079C16.6704 57.7336 16.7204 57.8195 16.835 57.8865L20.3175 59.9498C20.3967 60.0001 20.4613 60.0127 20.5634 59.9896C20.5842 59.9854 20.6071 59.9729 20.6321 59.9561L24.1416 57.8865ZM20.48 59.1015C20.3925 59.1015 20.307 59.0763 20.2278 59.0281L17.6541 57.5032C17.4915 57.4068 17.4061 57.2602 17.4061 57.0758V54.0489C17.4061 53.8667 17.4915 53.7179 17.6541 53.6216L20.232 52.0945C20.4446 51.9877 20.5738 52.0044 20.7301 52.0945L23.3205 53.6216C23.4789 53.72 23.5623 53.8667 23.5623 54.0489V57.0758C23.5623 57.2581 23.4789 57.4047 23.3247 57.5011L20.7322 59.0281C20.6968 59.0533 20.6488 59.0763 20.5988 59.0868C20.555 59.0973 20.5154 59.1015 20.48 59.1015Z" fill="#111111"/>
<path d="M39.7319 51.5875C39.6485 51.5875 39.6318 51.6043 39.6318 51.6881V59.4387C39.6318 59.5225 39.6485 59.5392 39.7319 59.5392H45.2691C45.3525 59.5392 45.3692 59.5225 45.3692 59.4387V58.7788C45.3692 58.695 45.3525 58.6783 45.2691 58.6783H40.8885C40.6426 58.6783 40.4967 58.5295 40.4967 58.2844V51.6881C40.4967 51.6043 40.48 51.5875 40.3967 51.5875H39.7319Z" fill="#111111"/>
<path d="M74.1206 59.6103C74.2602 59.6103 74.3477 59.5537 74.3978 59.4343L77.3196 52.7877C77.3488 52.7206 77.3967 52.6285 77.4842 52.6285C77.5717 52.6285 77.6197 52.7206 77.6488 52.7877L80.5602 59.4322C80.6103 59.5537 80.6978 59.6103 80.8374 59.6103H81.5022C81.5606 59.6103 81.5898 59.5977 81.5981 59.5872C81.6043 59.5768 81.6064 59.5432 81.5835 59.4888L78.0907 51.6921C78.0406 51.5685 77.9531 51.512 77.8135 51.512H77.1487C77.0091 51.512 76.9215 51.5685 76.8715 51.6879V51.69L73.3849 59.4909C73.3641 59.5432 73.3641 59.5768 73.3703 59.5872C73.3766 59.5977 73.4058 59.6103 73.4662 59.6103H74.1206Z" fill="#111111"/>
<path d="M87.1249 56.0325L89.2215 59.4051C89.259 59.4972 89.3194 59.535 89.4299 59.535H90.176C90.1822 59.535 90.1885 59.535 90.1947 59.535C90.1947 59.5329 90.1926 59.5287 90.1926 59.5266L88.0294 56.0493L88.2712 56.0325C88.5504 56.0116 88.8172 55.9383 89.0652 55.8126C89.3132 55.6869 89.5341 55.5214 89.7175 55.3245C89.9009 55.1276 90.0468 54.8972 90.153 54.6395C90.2572 54.3839 90.3093 54.1074 90.3093 53.8205C90.3093 53.5398 90.2552 53.2612 90.1468 52.993C90.0384 52.7249 89.8905 52.4819 89.705 52.2724C89.5216 52.065 89.3007 51.8975 89.0485 51.7697C88.8005 51.6461 88.5275 51.5833 88.2399 51.5833H84.1552C84.0719 51.5833 84.0552 51.6 84.0552 51.6838V52.3437C84.0552 52.4274 84.0719 52.4442 84.1552 52.4442H88.2149C88.4025 52.4568 88.5692 52.5028 88.7171 52.5804C88.8651 52.6579 88.9922 52.7605 89.0985 52.8841C89.2006 53.0056 89.2861 53.1459 89.3486 53.303C89.4111 53.4581 89.4486 53.6256 89.4611 53.8016V53.8121V53.8225C89.432 54.1828 89.309 54.4908 89.0985 54.7421C88.8818 55.0019 88.5838 55.1443 88.217 55.1695H84.2365C84.1802 55.1695 84.1344 55.1841 84.0948 55.2135C84.0739 55.2302 84.0552 55.2512 84.0552 55.3014V59.4323C84.0552 59.5161 84.0719 59.5329 84.1552 59.5329H84.8117C84.895 59.5329 84.9117 59.5161 84.9117 59.4323V56.4221C84.9117 56.175 85.0597 56.0283 85.3035 56.0283H87.1249V56.0325Z" fill="#111111"/>
<path d="M71.1154 55.3266C71.2988 55.1296 71.4447 54.8992 71.551 54.6416C71.6552 54.386 71.7073 54.1095 71.7073 53.8225C71.7073 53.5418 71.6531 53.2632 71.5447 52.9951C71.4363 52.727 71.2884 52.484 71.1029 52.2745C70.9195 52.0671 70.6986 51.8995 70.4464 51.7718C70.1964 51.6482 69.9254 51.5853 69.6378 51.5853H65.5532C65.4698 51.5853 65.4531 51.6021 65.4531 51.6859V52.3457C65.4531 52.4295 65.4698 52.4463 65.5532 52.4463H69.6128C69.8004 52.4588 69.9671 52.5049 70.1151 52.5824C70.263 52.6599 70.3902 52.7626 70.4965 52.8862C70.5986 53.0077 70.684 53.148 70.7465 53.3051C70.8091 53.4601 70.8466 53.6277 70.8591 53.8037V53.8141V53.8246C70.8299 54.1849 70.7069 54.4928 70.4965 54.7442C70.2797 55.004 69.9817 55.1464 69.6149 55.1715H65.6344C65.5782 55.1715 65.5323 55.1862 65.4927 55.2155C65.4719 55.2323 65.4531 55.2532 65.4531 55.3035V59.4344C65.4531 59.5182 65.4698 59.5349 65.5532 59.5349H66.2096C66.293 59.5349 66.3097 59.5182 66.3097 59.4344V56.4242C66.3097 56.177 66.4576 56.0304 66.7015 56.0304L69.6691 56.0388V56.0304C69.9484 56.0094 70.2151 55.9361 70.4631 55.8104C70.7111 55.6869 70.932 55.5235 71.1154 55.3266Z" fill="#111111"/>
<path d="M93.2231 59.537H96.0282C96.5679 59.537 97.0869 59.4323 97.5662 59.227C98.0476 59.0217 98.4727 58.7369 98.8333 58.3786C99.1917 58.0225 99.4793 57.5973 99.6877 57.1134C99.8941 56.6316 100 56.1079 100 55.5591C100 55.1381 99.9357 54.7254 99.8065 54.3358C99.6773 53.944 99.496 53.5796 99.2647 53.2528C99.0334 52.926 98.7499 52.6327 98.4227 52.3814C98.0935 52.13 97.7287 51.9352 97.3349 51.7969C96.9264 51.6545 96.5013 51.5833 96.0699 51.5833H93.2231C93.1397 51.5833 93.123 51.6 93.123 51.6838V52.3437C93.123 52.4274 93.1397 52.4442 93.2231 52.4442H95.9636C96.3866 52.4735 96.7889 52.5699 97.1702 52.7333C97.5516 52.8967 97.8913 53.1166 98.181 53.3868C98.4727 53.6592 98.7082 53.9838 98.8812 54.3504C99.0563 54.7212 99.1459 55.1276 99.1459 55.5591C99.1459 55.9843 99.0667 56.3907 98.9125 56.7657C98.7583 57.1406 98.5436 57.4737 98.2706 57.7565C97.9976 58.0393 97.6746 58.2634 97.3099 58.4268C96.9431 58.5923 96.5429 58.674 96.1261 58.674H94.3714C94.1255 58.674 93.9796 58.5253 93.9796 58.2802V56.9773C93.9796 56.8935 93.9629 56.8767 93.8796 56.8767H93.2231C93.1397 56.8767 93.123 56.8935 93.123 56.9773V59.4344C93.123 59.5203 93.1397 59.537 93.2231 59.537Z" fill="#111111"/>
<path d="M1.04618 59.2647C1.43798 59.4406 1.86104 59.5307 2.30285 59.5307C2.7926 59.5307 3.20732 59.4741 3.53659 59.3631C3.86379 59.2521 4.1368 59.1138 4.34937 58.9484C4.55777 58.785 4.71824 58.6111 4.82661 58.431C4.94123 58.2382 5.02876 58.0539 5.08503 57.8842C5.1413 57.7166 5.17464 57.5763 5.18298 57.4674C5.1934 57.3543 5.19965 57.2872 5.19965 57.2642C5.19965 56.9395 5.15172 56.6567 5.05585 56.4284C4.9579 56.1938 4.83494 55.9948 4.69115 55.8335C4.54943 55.6764 4.38896 55.5486 4.21599 55.4585C4.02217 55.36 3.83461 55.2783 3.65747 55.2197C3.48033 55.161 3.31986 55.1212 3.18231 55.1003C3.0406 55.0794 2.93639 55.0647 2.87387 55.0563C2.85929 55.0542 2.84678 55.0521 2.83011 55.05H2.82803C2.5967 55.006 2.38413 54.9662 2.1924 54.9348C1.96732 54.895 1.76934 54.8343 1.60679 54.7547C1.41922 54.6625 1.26917 54.5284 1.1608 54.3588C1.05035 54.1849 0.996165 53.9628 0.996165 53.6821C0.996165 53.2737 1.17331 52.9385 1.50675 52.7144C1.80894 52.5112 2.21949 52.4085 2.73008 52.4085C2.96974 52.4169 3.19065 52.4421 3.39488 52.4819C3.58661 52.5279 3.76792 52.595 3.94506 52.685C4.02634 52.7269 4.10345 52.7751 4.17222 52.8317C4.20765 52.8589 4.27017 52.8547 4.31811 52.8212L4.8016 52.463C4.85162 52.4274 4.85787 52.3771 4.85995 52.3499C4.85995 52.3227 4.8537 52.2703 4.8016 52.2305C4.60987 52.0797 4.39313 51.9498 4.15972 51.8451C3.76375 51.6649 3.33861 51.5748 2.89888 51.5748C2.40705 51.5748 1.99025 51.6272 1.65889 51.7319C1.32961 51.8367 1.05452 51.9665 0.841947 52.1174C0.635628 52.2661 0.475158 52.4274 0.364705 52.6013C0.247999 52.7856 0.162554 52.9574 0.110453 53.1124C0.0583528 53.2695 0.0270924 53.4015 0.0166722 53.502C0.00625208 53.6026 0 53.6675 0 53.6884C0 53.967 0.0437646 54.2121 0.131294 54.4132C0.220907 54.6227 0.333444 54.8007 0.466822 54.9474C0.6002 55.094 0.752334 55.2176 0.916972 55.3119C1.09828 55.4145 1.27334 55.4983 1.43798 55.5611C1.60262 55.624 1.75058 55.6701 1.87979 55.6952C2.009 55.7224 2.10278 55.7392 2.16114 55.7476C2.17572 55.7497 2.19031 55.7518 2.20907 55.756C2.4404 55.7999 2.66547 55.8481 2.87596 55.8963C3.11145 55.9508 3.32194 56.0304 3.50742 56.1288C3.71165 56.2378 3.87629 56.3844 3.99925 56.5645C4.12846 56.7552 4.19306 56.9919 4.19306 57.2726C4.19306 57.6643 4.03051 58.0036 3.71165 58.2864C3.40322 58.5587 2.98224 58.6949 2.45915 58.6949C2.18406 58.6949 1.94023 58.6614 1.73391 58.5964C1.53384 58.5336 1.36712 58.4603 1.23166 58.3807C1.13996 58.3262 1.06285 58.2738 0.998249 58.2194L0.412637 58.6551C0.362621 58.6907 0.356369 58.741 0.354285 58.7682C0.354285 58.7954 0.360537 58.8478 0.412637 58.8855C0.602284 59.0342 0.816939 59.162 1.04618 59.2647Z" fill="#111111"/>
<path d="M30.1535 59.292C30.191 59.3611 30.2556 59.3695 30.2827 59.3695C30.3098 59.3695 30.3744 59.3611 30.4119 59.2899L30.8078 58.5316C30.8308 58.4876 30.8308 58.4373 30.8078 58.3954L27.2837 51.6713C27.2587 51.6231 27.2087 51.5917 27.1545 51.5917H26.3001C26.2251 51.5917 26.1875 51.642 26.175 51.6629C26.1625 51.6838 26.1354 51.7425 26.1709 51.8074L30.1535 59.292Z" fill="#111111"/>
<path d="M29.4637 51.5917C29.3886 51.5917 29.3511 51.642 29.3386 51.6629C29.3261 51.6838 29.299 51.7404 29.3345 51.8074L33.1753 59.2836C33.2128 59.3569 33.2753 59.3653 33.3045 59.3632C33.3316 59.3632 33.3962 59.3548 33.4337 59.2857L37.3996 51.8095C37.4351 51.7425 37.408 51.6859 37.3955 51.665C37.383 51.644 37.3454 51.5938 37.2704 51.5938H36.4181C36.4035 51.5938 36.3889 51.5959 36.3785 51.6001L33.3108 57.6874L30.4411 51.6566C30.414 51.6189 30.3702 51.5959 30.3244 51.5959H29.4637V51.5917Z" fill="#111111"/>
<path d="M62.9961 57.8527C63.1024 57.7877 63.1524 57.6977 63.1524 57.5741V53.483C63.1524 53.3594 63.1024 53.2694 62.9961 53.2044L59.4971 51.1411C59.4387 51.1076 59.3845 51.0908 59.3345 51.0908C59.3116 51.0908 59.2595 51.0971 59.1636 51.1453L55.6895 53.2044C55.5749 53.2715 55.5249 53.3594 55.5249 53.483V57.5741C55.5249 57.6998 55.5749 57.7856 55.6895 57.8527L59.1719 59.916C59.2511 59.9663 59.3178 59.9788 59.4179 59.9558C59.4387 59.9516 59.4616 59.939 59.4866 59.9223L62.9961 57.8527ZM59.3345 59.0676C59.247 59.0676 59.1615 59.0425 59.0823 58.9943L56.5086 57.4693C56.346 57.373 56.2606 57.2242 56.2606 57.042V54.0151C56.2606 53.8328 56.346 53.6841 56.5086 53.5878L59.0865 52.0607C59.2991 51.9539 59.4283 51.9706 59.5846 52.0607L62.175 53.5878C62.3334 53.6862 62.4168 53.8328 62.4168 54.0151V57.042C62.4168 57.2242 62.3334 57.3709 62.1771 57.4672L59.5846 58.9943C59.5492 59.0215 59.4991 59.0425 59.4512 59.053C59.4054 59.0634 59.3699 59.0676 59.3345 59.0676Z" fill="#111111"/>
<path d="M48.022 51.4763H52.9028C52.9841 51.4763 53.0487 51.5433 53.0487 51.623V52.1131C53.0487 52.1948 52.982 52.2598 52.9028 52.2598H48.022C47.9407 52.2598 47.8761 52.1927 47.8761 52.1131V51.623C47.874 51.5413 47.9407 51.4763 48.022 51.4763ZM48.0199 55.1296H52.1755C52.2567 55.1296 52.3213 55.1945 52.3213 55.2762V55.7664C52.3213 55.8481 52.2567 55.913 52.1755 55.913H48.0199C47.9386 55.913 47.874 55.8481 47.874 55.7664V55.2762C47.874 55.1966 47.9407 55.1296 48.0199 55.1296ZM48.022 58.7619H52.9049C52.9861 58.7619 53.0507 58.8289 53.0507 58.9085V59.3987C53.0507 59.4804 52.9841 59.5453 52.9049 59.5453H48.022C47.9407 59.5453 47.8761 59.4783 47.8761 59.3987V58.9085C47.874 58.8289 47.9407 58.7619 48.022 58.7619Z" fill="#111111"/>
</g>
<defs>
<clipPath id="clip0_151_50439">
<rect width="100" height="60" fill="white"/>
</clipPath>
</defs>
</svg>
