<svg width="100" height="60" viewBox="0 0 100 60" fill="none" xmlns="http://www.w3.org/2000/svg">
<g clip-path="url(#clip0_2:19053)">
<path d="M62.658 44.3333H37.1932L24.4619 22.1667L37.1932 0H62.658L75.3893 22.1667L62.658 44.3333ZM37.7955 43.286H62.0557L74.1868 22.1667L62.0557 1.04738H37.7955L25.6644 22.1667L37.7955 43.286Z" fill="#111111"/>
<path d="M54.4863 23.0988C54.3134 23.1198 54.0029 23.2664 53.8611 23.5219C53.7549 23.7126 53.8174 23.9618 54.007 24.0708C54.0695 24.1064 54.1383 24.1231 54.205 24.1231C54.3405 24.1231 54.4697 24.054 54.5426 23.9241C54.5551 23.9116 54.5926 23.8885 54.5864 23.8864C54.8031 23.8592 54.9573 23.6602 54.9302 23.4423C54.9011 23.2266 54.7031 23.0716 54.4863 23.0988Z" fill="#FAFF00"/>
<path d="M45.9957 22.0829C45.9936 22.041 45.9957 21.9949 46.0105 21.9489C45.9957 21.9928 45.9915 22.0389 45.9957 22.0829Z" fill="#FAFF00"/>
<path d="M45.9957 22.0829C45.9936 22.041 45.9957 21.9949 46.0105 21.9489C45.9957 21.9928 45.9915 22.0389 45.9957 22.0829Z" fill="#FAFF00"/>
<path d="M45.9995 22.1025C45.9995 22.096 45.9951 22.0895 45.9951 22.083C45.9951 22.0895 45.9973 22.096 45.9995 22.1025Z" fill="#FAFF00"/>
<path d="M45.9995 22.1025C45.9995 22.096 45.9951 22.0895 45.9951 22.083C45.9951 22.0895 45.9973 22.096 45.9995 22.1025Z" fill="#FAFF00"/>
<path d="M66.2004 29.2071C65.3939 29.1547 64.8062 28.6017 64.6458 28.4341C64.4353 28.2142 63.7976 27.2799 63.2849 26.53C62.8806 25.9392 62.5326 25.4281 62.3596 25.2103C62.0407 24.8102 61.4718 23.0778 61.3509 22.462C61.328 22.3467 61.3176 22.2106 61.3155 22.066C61.9178 21.8545 63.0452 21.8105 63.3287 21.8629C63.5516 21.9027 63.7705 22.0472 64.1123 22.3803C64.3936 22.6526 64.6312 22.7406 64.8458 22.7406C65.0021 22.7406 65.1459 22.6945 65.2856 22.64C65.5106 22.552 65.7169 22.3049 65.8566 22.1017C66.1296 22.0765 66.388 21.9215 66.6131 21.7581C66.984 21.4858 67.0257 21.0396 66.7381 20.4321C66.6798 20.3086 66.6068 20.1431 66.5256 19.9629C66.438 19.7639 66.3401 19.5482 66.2442 19.3408C66.0483 18.9218 65.8628 18.6055 65.5857 18.4191C65.5294 18.3814 65.3606 18.2285 65.2272 18.107C65.1313 18.0211 65.0292 17.9289 64.9313 17.8409C64.9584 17.7655 64.9792 17.6901 64.9855 17.6126C65 17.4136 64.9375 17.2314 64.8041 17.0889C64.6958 16.9716 64.4936 16.8375 64.1456 16.848C63.9643 16.8543 63.7621 16.9067 63.5621 16.9884C63.0431 16.8459 62.1887 16.848 61.8969 16.8606C61.7031 16.8711 61.3884 16.8794 61.0508 16.8899C60.5256 16.9067 59.9296 16.9255 59.6337 16.9486C59.1898 16.9842 58.6375 16.9674 58.4249 16.9423C58.2499 16.9213 58.0665 16.8794 57.8748 16.8334C57.5309 16.7538 57.1391 16.6595 56.6869 16.6742C55.9929 16.6909 55.3093 17.1141 54.9821 17.3172L54.9113 17.3612C54.78 17.4387 54.1298 17.5372 53.4087 17.5204C52.4709 17.4974 49.8679 17.3214 49.1197 17.2397C48.9218 17.2188 48.6342 17.1601 48.3028 17.0931C47.4067 16.9109 46.1813 16.6637 45.0455 16.7768C43.7367 16.9067 42.4509 17.2523 41.2275 17.8053L40.9462 17.9352C40.048 18.3479 38.8142 18.9134 37.5263 18.8171C36.4301 18.7333 34.5774 18.1531 34.5774 16.494C34.5774 15.6079 35.5944 15.1513 36.03 15.1513C36.7135 15.1513 37.3283 15.6959 37.3825 15.8467C37.3825 16.1316 37.3242 16.3201 37.2783 16.471C37.2137 16.6825 37.1157 17.003 37.4096 17.2795C37.6451 17.4995 38.1515 17.6147 38.5892 17.422C38.9497 17.2649 39.3769 16.8648 39.3769 15.8467C39.3769 14.0138 37.3888 13.1613 36.0446 13.1613C34.6566 13.1613 32.6455 14.349 32.6455 16.494C32.6455 18.6642 34.0793 20.275 36.3843 20.6982C38.014 20.9977 39.106 20.849 39.8917 20.5725C39.6666 21.2826 39.3311 22.2839 39.0476 22.9123C38.5683 23.9723 37.3658 25.4658 37.1762 25.6146C37.1262 25.6481 37.0678 25.6837 37.0053 25.7193C36.7281 25.8848 36.3843 26.0901 36.2738 26.4399C36.2029 26.6682 35.3693 28.7211 35.0651 29.4563C34.7837 30.1371 35.0609 30.5163 35.2839 30.8221C35.3339 30.8912 35.3902 30.9646 35.4423 31.0484C35.7069 31.4715 36.2009 31.6454 36.6239 31.6454C36.8052 31.6454 36.9761 31.6118 37.1095 31.5532C37.6159 31.327 37.5722 30.6064 37.4742 30.311C37.4159 30.1392 37.2762 30.0219 37.0991 29.8732C37.0511 29.8334 36.9824 29.7747 36.9324 29.7266C37.0699 29.3872 37.5513 28.5577 37.6805 28.4236C37.8389 28.2791 38.61 27.7512 39.2248 27.3993C39.8646 27.0348 41.3088 26.0817 41.9986 25.5852C42.3863 25.3066 42.7447 24.9987 43.001 24.7662C43.2657 25.2396 43.3949 25.5706 43.4033 25.6795C43.4929 27.2841 43.4283 27.6276 43.4137 27.68C43.397 27.7428 43.372 27.8036 43.347 27.8664C43.2157 28.1932 42.9927 28.7399 43.6221 29.427C43.9013 29.7308 45.4435 31.3018 46.0562 31.4359C46.0687 31.438 46.8982 31.5867 47.6568 31.5867C48.1653 31.5867 48.6446 31.5197 48.8238 31.2976C49.0176 31.0588 49.051 30.7174 48.9155 30.4053C48.7571 30.0429 48.4133 29.8124 47.9965 29.7873C47.8026 29.7747 47.6338 29.7915 47.4838 29.8062C47.1691 29.8376 46.9961 29.8543 46.7231 29.6281C46.5522 29.4857 46.0958 29.1086 46.0646 28.9976C46.1313 28.7106 46.6689 26.6515 46.8607 26.1236C46.8878 26.0461 46.9253 25.9518 46.9649 25.8471C47.1399 25.3862 47.3108 24.917 47.4317 24.475C47.9194 24.6091 48.7884 24.8123 49.7741 24.8919C50.762 24.9715 51.4789 24.8877 52.0561 24.8227C52.1395 24.8123 52.2145 24.806 52.2916 24.7976C52.1854 25.2417 52.0436 25.8722 51.9915 26.3373C51.9478 26.7164 51.9165 27.2946 51.8894 27.8036C51.8686 28.2121 51.8394 28.7211 51.8227 28.807C51.7352 29.0688 51.8644 29.3202 51.9895 29.5653C52.0311 29.6491 52.102 29.7873 52.1103 29.8355C52.1228 29.9486 52.2771 30.8095 52.5396 31.0546C52.7731 31.2704 53.6671 31.3751 54.0797 31.3751C54.1381 31.3751 54.186 31.373 54.2214 31.3688C54.7883 31.306 55.2134 30.8871 55.1655 30.4346L55.1613 30.378C55.1426 30.1707 55.1009 29.6868 54.3882 29.6428C54.2819 29.6365 54.186 29.6365 54.1027 29.6365C54.0735 29.6365 54.0422 29.6365 54.013 29.6365C54.0005 29.6009 53.986 29.5632 53.9734 29.5234C53.9005 29.3244 53.8338 29.1337 53.8692 28.9683C53.938 28.6582 54.4549 27.2401 54.7174 26.6096C54.9133 26.1424 55.3739 25.2354 55.574 24.85C55.674 24.8374 55.7761 24.8227 55.8741 24.8102C56.0992 24.7829 56.3096 24.7557 56.4951 24.7201C56.7786 24.6677 57.0995 24.5525 57.3266 24.4604C57.8185 25.0762 58.6729 25.977 59.0522 26.2702C59.2794 26.4462 59.7024 26.8547 60.1109 27.2485C60.5548 27.6779 60.9758 28.0843 61.205 28.2498L61.3738 28.3713C62.2366 28.985 62.7118 29.3872 62.7889 29.5632C63.0306 30.1141 64.3915 31.1007 64.9167 31.1887C64.9229 31.1908 65.2856 31.2411 65.7149 31.2411C66.3067 31.2411 67.032 31.1447 67.1591 30.686C67.2425 30.3885 67.2883 29.9612 67.0466 29.6197C66.9174 29.4501 66.6714 29.2385 66.2004 29.2071ZM34.8587 14.7093C34.8525 14.571 34.7733 14.4537 34.6608 14.3888C35.0484 14.1479 35.4652 14.0054 35.8195 13.9635V13.9908C35.8195 14.15 35.9133 14.2861 36.0487 14.349C36.0383 14.349 36.0279 14.3469 36.0175 14.3469C35.659 14.349 35.238 14.4768 34.8587 14.7093ZM38.5746 15.8404C38.5746 16.2741 38.4745 16.5694 38.2911 16.6721C38.1974 16.7244 38.0911 16.7223 38.0181 16.714C38.0202 16.7098 38.0202 16.7056 38.0223 16.7014C38.0786 16.5212 38.1619 16.2468 38.1619 15.8425C38.1619 15.7273 38.1244 15.6016 38.0556 15.476L38.0952 15.4362C38.2495 15.2811 38.2495 15.0298 38.0952 14.8727C37.941 14.7177 37.6909 14.7177 37.5346 14.8727L37.52 14.8873C37.1845 14.6339 36.7531 14.4349 36.3051 14.372C36.4718 14.3301 36.5968 14.1898 36.6052 14.0138C37.4888 14.1898 38.5746 14.7596 38.5746 15.8404ZM34.0793 14.8643C34.096 15.0025 34.1773 15.1178 34.2961 15.1764C34.1481 15.3419 34.0231 15.5304 33.9314 15.7378C33.8209 15.7483 33.7167 15.8006 33.6479 15.8991C33.5208 16.0772 33.5625 16.3264 33.7396 16.4542L33.773 16.4772C33.773 16.4814 33.773 16.4835 33.773 16.4856C33.773 16.8438 33.8355 17.1685 33.948 17.4639C33.8042 17.4953 33.6917 17.6 33.6542 17.7425C33.5062 17.3591 33.427 16.9381 33.427 16.4856C33.427 15.8111 33.6959 15.2707 34.0793 14.8643ZM33.8813 18.2159C33.9272 18.2347 33.9751 18.2452 34.0272 18.2452H34.0689C34.1689 18.2452 34.2585 18.2033 34.3294 18.1426C34.5357 18.4107 34.7921 18.6411 35.0817 18.8338C34.9379 18.794 34.7796 18.8359 34.6774 18.9574L34.6274 19.0161C34.617 19.0287 34.6128 19.0433 34.6045 19.058C34.3127 18.8129 34.0689 18.5322 33.8813 18.2159ZM35.263 19.4916L35.2776 19.4748C35.4089 19.3198 35.3964 19.0957 35.263 18.9512C35.7653 19.2486 36.3509 19.4434 36.9553 19.544C36.9449 19.5523 36.9324 19.5565 36.924 19.567L36.7844 19.7157C36.724 19.7807 36.6969 19.8603 36.6864 19.9399C36.6302 19.9294 36.576 19.9231 36.5155 19.9126C36.055 19.8247 35.634 19.6822 35.263 19.4916ZM53.2399 28.2728C53.0398 28.3147 52.8314 28.3587 52.8252 28.3461C52.8252 28.3231 52.8397 28.2456 52.9106 28.1723C52.9731 28.1073 53.0606 28.0696 53.1503 28.0696C52.9314 28.0696 52.7543 28.2477 52.7543 28.4676C52.7543 28.6603 52.8939 28.8153 53.0773 28.851C53.0127 29.2217 53.1273 29.5527 53.2149 29.7957C53.2336 29.8481 53.2524 29.8983 53.267 29.9486C53.4212 30.4346 53.8401 30.4304 54.0922 30.4325C54.161 30.4325 54.2381 30.4325 54.3257 30.4367C54.3382 30.4367 54.3486 30.4388 54.3569 30.4388C54.3569 30.4409 54.3569 30.4451 54.3569 30.4472L54.359 30.4765C54.3277 30.5079 54.2444 30.5624 54.1193 30.577C53.8984 30.598 53.3003 30.5121 53.069 30.4472C53.0023 30.288 52.9043 29.9318 52.8835 29.7475C52.8627 29.5569 52.7689 29.3767 52.6793 29.2008C52.6459 29.1358 52.598 29.0416 52.5792 28.9871C52.6105 28.8405 52.6272 28.5619 52.6668 27.8455C52.6688 27.7952 52.673 27.7449 52.6751 27.6926C52.7189 27.7093 52.7647 27.7198 52.8126 27.7198C52.8585 27.7198 52.9064 27.7114 52.9523 27.6926C53.0002 27.6737 53.0336 27.6632 53.0586 27.6549C53.1503 27.6234 53.2044 27.6025 53.3128 27.5313C53.4962 27.4119 53.5504 27.1668 53.4316 26.9803C53.3128 26.796 53.069 26.7415 52.8835 26.8609C52.846 26.8861 52.846 26.8861 52.8043 26.8986C52.7814 26.907 52.7522 26.9175 52.7168 26.9301C52.7293 26.7415 52.7439 26.5656 52.7605 26.4252C52.8168 25.9309 52.9898 25.1977 53.0919 24.7829C53.2628 24.806 53.4379 24.8416 53.6108 24.8772C53.9047 24.9401 54.2048 25.0029 54.5007 25.0029C54.5299 25.0029 54.5591 24.9987 54.5882 24.9987C54.3715 25.4302 54.1089 25.9623 53.9693 26.2995C53.7859 26.752 53.4462 27.6611 53.2399 28.2728ZM66.4109 30.3676C66.1442 30.4493 65.3835 30.4639 65.0355 30.4053C64.75 30.3508 63.6288 29.5317 63.5016 29.2448C63.3557 28.9117 62.9139 28.5242 62.2074 28.0047C62.32 27.879 62.345 27.6905 62.2554 27.5396C62.2554 27.5396 62.2033 27.4496 62.1699 27.3134C62.1199 27.0997 61.9053 26.9678 61.6927 27.0201C61.5176 27.062 61.403 27.217 61.3968 27.3888C61.1842 27.1961 60.9028 26.9259 60.6465 26.6766C60.5069 26.5404 60.3714 26.4106 60.2401 26.2849C60.261 26.287 60.2797 26.2954 60.3026 26.2933C60.5215 26.2744 60.6819 26.0838 60.6653 25.8638C60.6486 25.6669 60.5381 25.5643 60.4715 25.5182C60.2881 25.3925 60.0922 25.4512 59.965 25.4889L59.8858 25.5119C59.767 25.5454 59.6816 25.6292 59.6358 25.7319C59.5982 25.7004 59.5566 25.6627 59.5232 25.6376C59.4544 25.5852 59.3711 25.5098 59.2794 25.4239C59.2794 25.4239 59.2794 25.4239 59.2794 25.4218C59.2815 25.4093 59.2836 25.3967 59.2836 25.3841C59.394 25.2773 59.4378 25.1139 59.3815 24.961C59.2919 24.7096 59.0835 24.6405 58.9314 24.6573C58.8105 24.6698 58.7292 24.7264 58.6667 24.7997C58.2103 24.3053 57.7622 23.7733 57.6893 23.6245C57.4955 23.2328 56.5972 22.4578 56.3284 22.2294C56.1617 22.087 55.9116 22.11 55.7699 22.2776C55.6303 22.4452 55.6511 22.6966 55.8178 22.839C56.1888 23.1532 56.6097 23.5429 56.8327 23.79C56.6681 23.8487 56.4889 23.9052 56.3388 23.9346C56.3034 23.9409 56.2659 23.9471 56.2284 23.9513C56.3284 23.79 56.3076 23.5785 56.1617 23.4465C55.9991 23.2999 55.749 23.3145 55.6032 23.48C55.5115 23.5847 55.3468 23.7858 55.2885 23.9492C55.2718 23.9932 55.2697 24.0372 55.2697 24.0833C55.0863 24.1105 54.8967 24.144 54.707 24.188C54.4653 24.2446 54.1318 24.1734 53.7817 24.098C53.5671 24.0519 53.3482 24.0079 53.1232 23.9827C53.1565 23.9283 53.1919 23.8717 53.2295 23.8194C53.3545 23.6392 53.3128 23.392 53.1336 23.2642C52.9544 23.1386 52.7084 23.1805 52.5813 23.3606C52.3479 23.6916 52.275 23.8822 52.252 23.9974C52.1541 24.0079 52.0603 24.0163 51.954 24.0288C51.5247 24.0791 51.01 24.1336 50.366 24.121C50.3868 24.0938 50.4056 24.0644 50.4181 24.0288C50.4931 23.8235 50.3889 23.5931 50.1826 23.5177C49.722 23.348 49.3511 23.8131 49.2094 24.0267C48.5112 23.9304 47.9152 23.7837 47.5713 23.6874C47.5838 23.5596 47.5901 23.436 47.5817 23.3208C47.5672 23.1009 47.3754 22.9354 47.1608 22.95C47.042 22.9584 46.9419 23.0213 46.8732 23.1092C46.8294 23.015 46.7481 22.9375 46.6418 22.9019C46.6231 22.8956 46.5793 22.8851 46.5231 22.8746C46.4939 22.8704 46.4314 22.8579 46.3855 22.8453C46.2917 22.7406 46.1438 22.6903 45.9958 22.7259C45.7832 22.7783 45.654 22.994 45.7061 23.2077C45.7895 23.5491 46.1709 23.6183 46.4126 23.6623C46.4459 23.6706 46.4814 23.6748 46.5147 23.6748C46.6168 23.6748 46.7106 23.6308 46.7836 23.5638C46.7648 23.8173 46.6939 24.1273 46.6002 24.4415C46.5835 24.3661 46.5543 24.2949 46.498 24.2362C46.3959 24.1147 46.2021 23.8906 45.927 23.9367C45.7749 23.9618 45.6478 24.0665 45.5894 24.2153C45.5081 24.4185 45.6061 24.651 45.8103 24.7327C45.8395 24.7452 45.8707 24.7536 45.902 24.7578C45.9229 24.7809 45.9395 24.7997 45.9499 24.8102C46.025 24.8856 46.1229 24.9233 46.223 24.9233C46.3146 24.9233 46.4063 24.8856 46.4814 24.8207C46.3876 25.0972 46.2896 25.3569 46.2146 25.5559C46.1729 25.6648 46.1354 25.7633 46.1062 25.845C46.0937 25.8806 46.0792 25.9246 46.0625 25.9728C46.0291 25.8492 45.9833 25.69 45.9624 25.6355C45.8833 25.4344 45.6603 25.3401 45.4581 25.4156C45.256 25.491 45.1538 25.7193 45.2247 25.9246C45.2435 25.9811 45.2997 26.1864 45.3352 26.3247C45.381 26.5027 45.5415 26.6221 45.7186 26.6221C45.752 26.6221 45.7853 26.6179 45.8187 26.6096C45.8416 26.6033 45.8582 26.5886 45.8791 26.5802C45.8228 26.7751 45.7645 26.9845 45.7061 27.1982C45.6561 27.1165 45.579 27.0495 45.481 27.0201C45.2706 26.9594 45.0517 27.0809 44.9913 27.2925C44.9392 27.4705 44.9996 27.6444 45.208 27.9355C45.2726 28.0256 45.3685 28.0696 45.4706 28.0864C45.3789 28.4383 45.3081 28.7169 45.2851 28.8133C45.1559 29.3663 45.6686 29.7915 46.2104 30.2398C46.7356 30.6734 47.1879 30.6294 47.5484 30.5959C47.6818 30.5833 47.8068 30.5707 47.9402 30.5791C48.0694 30.5875 48.134 30.6441 48.1653 30.6901C48.1819 30.7153 48.1903 30.7383 48.1944 30.7572C47.8151 30.8326 46.6085 30.7404 46.225 30.6566C45.9645 30.5728 44.8662 29.6114 44.1973 28.8845C43.9076 28.5703 43.9597 28.4425 44.0743 28.1639C44.1139 28.0675 44.1493 27.9733 44.1744 27.879C44.1973 27.7889 44.2619 27.5375 44.2202 26.3708C44.2265 26.3875 44.2327 26.398 44.2369 26.4064C44.3077 26.5488 44.4536 26.6347 44.6016 26.6347C44.6599 26.6347 44.7162 26.6221 44.7725 26.5949C44.9684 26.4965 45.0517 26.2681 44.9538 26.0712C44.9392 26.0335 44.9017 25.8764 44.8704 25.7382C44.8225 25.5224 44.6099 25.3862 44.3994 25.4344C44.3077 25.4554 44.2348 25.5098 44.1806 25.5769C44.1431 25.2207 43.8326 24.5965 43.4595 23.989C43.4658 23.989 43.472 23.989 43.4783 23.989C43.6658 23.9702 43.8096 23.8215 43.8326 23.6413C43.8472 23.6078 43.8805 23.5491 43.9097 23.5072C44.0306 23.325 43.9805 23.0778 43.7992 22.9563C43.6179 22.8348 43.372 22.883 43.2511 23.0673C43.1573 23.2098 43.1052 23.3187 43.0782 23.4046C42.4842 22.5478 41.4901 20.8637 41.4797 20.8469C41.3672 20.6584 41.1254 20.5955 40.9379 20.7066C40.7503 20.8176 40.6878 21.0627 40.7982 21.2512C40.8399 21.3203 41.8194 22.9815 42.4321 23.8633C42.4842 23.9367 42.528 24.0058 42.5759 24.077C42.3383 24.297 41.9486 24.6405 41.536 24.9359C41.3755 25.0511 41.1713 25.1935 40.9462 25.3464C40.9879 25.1391 40.8628 24.9338 40.6565 24.8835C40.446 24.8311 40.2293 24.9589 40.1772 25.1726C40.1313 25.359 40.1251 25.5203 40.1251 25.5999C40.1251 25.69 40.1605 25.7696 40.2105 25.8366C39.677 26.1885 39.1435 26.5258 38.8309 26.7038C38.6725 26.7939 38.4954 26.9007 38.3182 27.0139C38.3141 26.9887 38.3099 26.9678 38.3078 26.9552C38.2953 26.7457 38.1244 26.5802 37.9118 26.5802C37.693 26.5802 37.5159 26.7583 37.5159 26.9782C37.5159 27.0516 37.5263 27.2862 37.6159 27.4768C37.4013 27.6255 37.2283 27.7554 37.1408 27.8371C36.949 28.0151 36.0717 29.404 36.1071 29.8229C36.13 30.1015 36.3634 30.2963 36.5906 30.4849C36.6343 30.5205 36.6948 30.5707 36.7302 30.6064C36.7427 30.6755 36.7448 30.7781 36.7344 30.841C36.5843 30.8682 36.2488 30.841 36.1133 30.6231C36.0487 30.5205 35.9841 30.4325 35.9237 30.3487C35.7278 30.0827 35.6882 30.0261 35.7986 29.7622C36.007 29.2573 36.9407 26.972 37.0303 26.6808C37.0657 26.6075 37.2908 26.4734 37.4096 26.4022C37.4825 26.3582 37.5534 26.3163 37.6159 26.2744C37.7576 26.1781 38.0682 25.8282 38.4183 25.3737C38.4287 25.4679 38.4495 25.5852 38.4683 25.6795C38.5058 25.8701 38.6704 26.0021 38.8559 26.0021C38.8809 26.0021 38.9059 26 38.9309 25.9958C39.1456 25.9539 39.2852 25.7444 39.2435 25.5287C39.2435 25.5266 39.206 25.3422 39.2019 25.2668C39.1977 25.049 39.0226 24.8751 38.8059 24.8751C38.7976 24.8751 38.7913 24.8793 38.783 24.8793C39.1664 24.3368 39.5457 23.7314 39.7687 23.2391C40.2689 22.131 40.8837 20.0425 40.9108 19.9524C40.9566 19.7974 40.9045 19.6299 40.7774 19.5293C40.6523 19.4288 40.4773 19.4141 40.3377 19.4937C39.7333 19.8351 38.9351 20.1494 37.5534 20.0488C37.6388 19.9105 37.6326 19.7409 37.5367 19.6089C37.8514 19.6278 38.1578 19.6152 38.4558 19.5796C38.4725 19.6382 38.4975 19.6969 38.5412 19.7451L38.6329 19.8435C38.71 19.9294 38.8184 19.9734 38.9247 19.9734C39.0206 19.9734 39.1164 19.9378 39.1914 19.8687C39.3186 19.7513 39.3477 19.5691 39.2831 19.4183C39.7708 19.2905 40.2251 19.1187 40.6378 18.9407C40.6857 19.0538 40.7795 19.146 40.9087 19.1753L41.0566 19.2088C41.0858 19.2151 41.115 19.2193 41.1421 19.2193C41.3234 19.2193 41.488 19.0936 41.5276 18.9072C41.5547 18.7857 41.5172 18.6663 41.4464 18.5762L41.5506 18.528C41.9069 18.3667 42.2675 18.2327 42.6343 18.1112C42.6301 18.2997 42.753 18.4694 42.9427 18.5092C42.9698 18.5154 42.9969 18.5175 43.024 18.5175C43.2074 18.5175 43.372 18.3877 43.4116 18.2012L43.4491 18.0211C43.4595 17.9687 43.4595 17.9184 43.4491 17.8703C43.6888 17.8095 43.9284 17.753 44.1681 17.7069C44.141 17.8032 44.1389 17.9017 44.1681 17.9959C44.2202 18.1635 44.3577 18.2892 44.5432 18.3395C44.5787 18.35 44.6141 18.3541 44.6474 18.3541C44.8225 18.3541 44.9809 18.2389 45.0288 18.0609C45.0601 17.9478 45.0392 17.8346 44.9809 17.7425C44.9809 17.6901 44.9684 17.6419 44.9475 17.5938C45.0059 17.5875 45.0642 17.5749 45.1226 17.5686C45.456 17.5351 45.8041 17.5414 46.1521 17.5665C45.9624 17.5686 45.7936 17.6985 45.7603 17.8912C45.7353 18.0441 45.7978 18.1908 45.9124 18.2766C45.927 18.3227 45.9499 18.3688 45.9833 18.4086C46.0625 18.505 46.175 18.5552 46.2896 18.5552C46.3772 18.5552 46.4668 18.5259 46.5397 18.4652C46.6981 18.3332 46.7648 18.1468 46.7169 17.9645C46.646 17.6964 46.3834 17.6042 46.2646 17.5749C46.6022 17.6042 46.9357 17.6524 47.2545 17.7069C47.217 17.732 47.1816 17.7613 47.1545 17.8011C47.0545 17.9436 47.0586 18.13 47.1545 18.2662C47.1503 18.373 47.1879 18.4819 47.2691 18.5636C47.3462 18.6411 47.4484 18.6809 47.5484 18.6809C47.6484 18.6809 47.7505 18.6411 47.8277 18.5636C47.9339 18.4568 47.9881 18.3102 47.9756 18.1614C47.9652 18.0357 47.9089 17.9142 47.8172 17.8137C47.9277 17.8346 48.0361 17.8577 48.1382 17.8786C48.4904 17.9499 48.7926 18.0106 49.026 18.0357C49.1343 18.0483 49.2865 18.0609 49.4636 18.0776C49.5053 18.2745 49.6074 18.4756 49.7345 18.5594C49.8012 18.6055 49.8783 18.6265 49.9534 18.6265C50.0805 18.6265 50.2076 18.5636 50.2826 18.4484C50.3452 18.3562 50.3577 18.2473 50.3347 18.1468C50.9516 18.1908 51.656 18.2368 52.2666 18.2704C52.2395 18.3856 52.225 18.5133 52.25 18.6286C52.2896 18.8171 52.4604 18.9595 52.6459 18.9595C52.6709 18.9595 52.6959 18.9574 52.723 18.9512C52.9377 18.9051 53.0752 18.7103 53.0294 18.4966C53.0294 18.4798 53.0398 18.44 53.0461 18.4191C53.0648 18.3835 53.0732 18.3458 53.0815 18.3102C53.1919 18.3143 53.2961 18.3185 53.3816 18.3206C53.8984 18.3332 54.8675 18.2913 55.2843 18.0609C55.3302 18.2306 55.476 18.3583 55.6594 18.3583C55.8783 18.3583 56.0554 18.1803 56.0554 17.9603V17.6734C56.0554 17.6629 56.0512 17.6545 56.0491 17.644C56.1804 17.5875 56.3159 17.5393 56.4514 17.51C56.4493 17.5267 56.4409 17.5414 56.4409 17.5581C56.4409 17.7781 56.6181 17.9561 56.8369 17.9561H56.9203C57.1391 17.9561 57.3162 17.7781 57.3162 17.5581C57.3162 17.5498 57.3121 17.5414 57.3121 17.533C57.4371 17.556 57.5621 17.5833 57.6893 17.6147C57.8956 17.6629 58.1082 17.7111 58.327 17.7383C58.5166 17.7613 58.8417 17.7739 59.1773 17.7697C59.146 17.7948 59.1147 17.8221 59.0918 17.8577L59.0376 17.9415C58.9189 18.1258 58.971 18.373 59.1543 18.4924C59.221 18.5364 59.2961 18.5552 59.369 18.5552C59.4982 18.5552 59.6253 18.4903 59.7024 18.373L59.7566 18.2892C59.8712 18.1091 59.8233 17.8744 59.6503 17.7509C59.6628 17.7509 59.6774 17.7488 59.6899 17.7488C59.915 17.7299 60.3464 17.7152 60.7778 17.7027C60.7778 17.8158 60.8216 17.9289 60.9153 18.0064L60.9654 18.0483C61.0404 18.1112 61.13 18.1405 61.2175 18.1405C61.3322 18.1405 61.4426 18.0923 61.5218 17.998C61.5989 17.9059 61.6218 17.7886 61.6031 17.6775C61.7302 17.6734 61.8427 17.6692 61.9303 17.665C62.1324 17.6545 62.3721 17.6566 62.6034 17.6692C62.593 17.6817 62.5805 17.6943 62.5701 17.7069C62.4346 17.8786 62.4638 18.13 62.6347 18.2662C62.8056 18.4023 63.0556 18.373 63.1911 18.2012C63.3287 18.0274 63.5329 17.8849 63.7246 17.7865C63.7267 17.7865 63.7267 17.7844 63.7288 17.7844C63.9038 17.6943 64.0706 17.6419 64.1644 17.6356C64.0977 17.755 63.9309 17.9436 63.7684 18.0755C63.5975 18.2138 63.5704 18.4631 63.7079 18.6348C63.7871 18.7333 63.9018 18.7836 64.0164 18.7836C64.1039 18.7836 64.1894 18.7542 64.2644 18.6956C64.2811 18.683 64.304 18.6642 64.3269 18.6432C64.2998 18.6977 64.2811 18.7563 64.2811 18.8192V18.9512C64.2811 19.1711 64.4582 19.3492 64.677 19.3492C64.8708 19.3492 65.023 19.2067 65.0584 19.0224C65.0897 19.0475 65.1188 19.0706 65.1459 19.0873C65.2772 19.1753 65.4189 19.4518 65.5273 19.6843C65.6211 19.8875 65.7169 20.1012 65.8024 20.2939C65.8858 20.4803 65.9608 20.6521 66.0233 20.7799C66.1463 21.0375 66.1421 21.1192 66.1483 21.1192C65.8878 21.3098 65.7961 21.3203 65.7982 21.3224C65.7357 21.3119 65.6461 21.2847 65.5627 21.2617C65.3606 21.2051 65.2501 21.1737 65.123 21.2051C64.9104 21.2575 64.7812 21.4753 64.8354 21.6869C64.8583 21.7812 64.9146 21.8566 64.9855 21.9089C64.8292 21.9697 64.8229 21.9655 64.6645 21.8126C64.3269 21.4858 63.9497 21.1716 63.4683 21.0857C63.3495 21.0648 63.1203 21.0522 62.8389 21.0564C62.8743 20.9684 62.8827 20.8658 62.8472 20.7694C62.7722 20.562 62.5451 20.4573 62.3387 20.5327L62.247 20.5662C62.0407 20.6416 61.9365 20.8699 62.0115 21.0773C62.0157 21.0899 62.0261 21.1004 62.0324 21.1129C61.8052 21.1402 61.5781 21.18 61.3634 21.2323C61.3822 21.0794 61.403 20.9621 61.4155 20.9223C61.4968 20.7191 61.3988 20.4866 61.1946 20.4049C60.9904 20.3232 60.7611 20.4217 60.6799 20.627C60.6257 20.7631 60.559 21.1695 60.534 21.6157C60.486 21.5968 60.4319 21.5717 60.3818 21.5486C60.1839 21.4565 59.9484 21.5445 59.8567 21.7456C59.765 21.9446 59.8525 22.1813 60.0526 22.2734C60.3318 22.4012 60.4673 22.4389 60.5506 22.4473C60.559 22.508 60.5652 22.5709 60.5757 22.6274C60.5902 22.6987 60.6132 22.795 60.6423 22.9102C60.6236 22.9186 60.6048 22.9186 60.5861 22.9291L60.5027 22.9794C60.3151 23.0925 60.2547 23.3376 60.3673 23.5261C60.4423 23.6497 60.5736 23.7188 60.7069 23.7188C60.7611 23.7188 60.8132 23.7041 60.8653 23.6811C61.0466 24.2572 61.2884 24.917 61.5239 25.3632C61.4864 25.382 61.4489 25.403 61.4176 25.4344L61.3322 25.5182C61.2238 25.6229 61.0904 25.7528 61.1175 25.9728C61.1321 26.0964 61.228 26.2304 61.3363 26.2933C61.3988 26.3289 61.4655 26.3456 61.5322 26.3456C61.6698 26.3456 61.8031 26.2744 61.8761 26.1445C61.8907 26.1173 61.9032 26.0901 61.9115 26.0607L61.9615 26.0126C62.1408 26.266 62.3825 26.6179 62.6347 26.9866C63.3307 28.0047 63.8413 28.7441 64.0768 28.9913C64.6395 29.5799 65.4148 29.9591 66.1525 30.0094C66.2755 30.0177 66.3651 30.0471 66.3943 30.091C66.4213 30.1246 66.4359 30.2251 66.4109 30.3676Z" fill="#FAFF00"/>
<path d="M49.897 21.2491C49.9157 21.1716 49.9095 21.0941 49.8824 21.0229C50.0054 20.8825 50.0158 20.6688 49.897 20.5159C49.7615 20.3421 49.5135 20.3106 49.3405 20.4468C49.1801 20.5725 48.9842 20.8783 49.0488 21.1716C49.0905 21.3601 49.2322 21.5026 49.4197 21.5465C49.4489 21.5528 49.4802 21.557 49.5094 21.557C49.6928 21.557 49.8553 21.4334 49.897 21.2491Z" fill="#FAFF00"/>
<path d="M51.483 22.2461C51.5768 22.2272 51.7497 22.1602 51.856 21.9193C51.8977 21.8229 52.0269 21.4123 51.881 21.1673C51.7351 20.9243 51.4538 20.9138 51.0474 20.9787C50.8307 21.0122 50.6827 21.2154 50.7181 21.4333C50.7431 21.5988 50.8682 21.7245 51.0224 21.7601C51.0078 21.8166 51.0057 21.8753 51.0182 21.9339C51.0557 22.1225 51.2204 22.2544 51.4059 22.2544C51.4309 22.2544 51.4559 22.2523 51.483 22.2461Z" fill="#FAFF00"/>
<path d="M52.5634 20.3484C52.6864 20.2269 52.7197 20.0342 52.6322 19.875C52.528 19.6823 52.2883 19.611 52.0945 19.7158C51.8027 19.875 51.6485 20.1222 51.6798 20.3798C51.7069 20.5935 51.8611 20.7673 52.0778 20.8239C52.1112 20.8323 52.1445 20.8365 52.1758 20.8365C52.3529 20.8365 52.5134 20.7171 52.5592 20.539C52.578 20.4741 52.578 20.4091 52.5634 20.3484Z" fill="#FAFF00"/>
<path d="M50.8622 20.6981C50.8747 20.6981 50.8872 20.7002 50.8976 20.7002C51.0997 20.7002 51.2727 20.5452 51.2915 20.3378C51.304 20.1996 51.2456 20.0718 51.1435 19.9922C51.1393 19.8519 51.0602 19.7157 50.9247 19.6487C50.7288 19.5502 50.4912 19.6298 50.3933 19.8267C50.2995 20.0152 50.3016 20.2247 50.3974 20.4007C50.4933 20.5683 50.6663 20.6793 50.8622 20.6981Z" fill="#FAFF00"/>
<path d="M49.6617 19.9168C49.7117 19.9168 49.7638 19.9063 49.8138 19.8854C49.968 19.8204 50.241 19.6403 50.2931 19.3722C50.3223 19.2255 50.2785 19.0768 50.1764 18.9742C50.0222 18.8192 49.7721 18.8192 49.6158 18.9742C49.5658 19.0244 49.5325 19.0831 49.5158 19.1459C49.5137 19.148 49.5116 19.148 49.5096 19.1501C49.3074 19.2339 49.2136 19.4685 49.297 19.6717C49.3574 19.8246 49.5054 19.9168 49.6617 19.9168Z" fill="#FAFF00"/>
<path d="M48.6632 19.0935C48.6737 19.0956 48.6862 19.0956 48.6966 19.0956C48.9008 19.0956 49.0738 18.9385 49.0905 18.7312C49.1009 18.6138 49.0592 18.5049 48.9842 18.4253C49.005 18.2158 48.8591 18.0252 48.6486 17.9938C48.434 17.9582 48.2298 18.1111 48.1985 18.329C48.1777 18.4609 48.1422 18.706 48.2985 18.9029C48.3861 19.0139 48.5153 19.081 48.6632 19.0935Z" fill="#FAFF00"/>
<path d="M45.4392 18.3229C45.235 18.2475 45.0078 18.3543 44.9307 18.5617C44.8724 18.7251 44.9265 18.901 45.0516 19.0058C45.0578 19.0372 45.0703 19.0686 45.0849 19.1C45.1537 19.2404 45.2933 19.32 45.4392 19.32C45.4976 19.32 45.5601 19.3074 45.6164 19.2781C45.7872 19.1922 45.8852 19.0246 45.8748 18.8382C45.8644 18.6162 45.6914 18.4151 45.4392 18.3229Z" fill="#FAFF00"/>
<path d="M46.4129 19.5712C46.4817 19.6257 46.563 19.6508 46.6442 19.6508C46.7589 19.6508 46.8735 19.5985 46.9527 19.4979C46.9714 19.4728 46.9881 19.4476 47.0006 19.4204C47.1194 19.3345 47.1777 19.1816 47.1465 19.0203C47.1048 18.8046 46.8797 18.6684 46.6672 18.7082C46.5484 18.7312 46.2712 18.7815 46.2024 19.0685C46.1774 19.1774 46.1691 19.3848 46.4129 19.5712Z" fill="#FAFF00"/>
<path d="M47.7218 19.9043C47.7884 19.9567 47.8739 19.9881 47.9656 19.9881C47.976 19.9881 47.9885 19.9881 47.9989 19.986C48.2157 19.9672 48.3782 19.7745 48.3615 19.5566C48.349 19.4058 48.2761 19.2759 48.1573 19.19C47.9343 19.0287 47.6446 19.102 47.5363 19.1293C47.3237 19.1816 47.1945 19.3995 47.2487 19.6111C47.3008 19.8247 47.5133 19.9525 47.7218 19.9043Z" fill="#FAFF00"/>
<path d="M48.0646 20.4237C48.0646 20.43 48.0626 20.4363 48.0626 20.4447C47.9667 20.518 47.9062 20.6311 47.9062 20.761C47.9062 20.9809 48.0834 21.159 48.3022 21.159C48.6857 21.159 48.8566 20.7379 48.8566 20.4384C48.8566 20.2247 48.6898 20.0613 48.4773 20.0509C48.2605 20.0404 48.0813 20.2122 48.0646 20.4237Z" fill="#FAFF00"/>
<path d="M47.5581 21.4756C47.6039 21.3436 47.5768 21.2053 47.4997 21.1006C47.5727 20.9079 47.4852 20.6858 47.2955 20.5979C47.0975 20.5057 46.862 20.5916 46.7703 20.7927C46.664 21.0252 46.6474 21.2326 46.7203 21.4085C46.7807 21.5531 46.8995 21.662 47.0538 21.7165C47.0975 21.7311 47.1413 21.7395 47.185 21.7395C47.3476 21.7416 47.5018 21.639 47.5581 21.4756Z" fill="#FAFF00"/>
<path d="M46.3296 20.7003C46.4213 20.7003 46.5109 20.6689 46.5859 20.6061C46.6255 20.5725 46.6568 20.5327 46.6797 20.4908C46.8027 20.4133 46.8798 20.2688 46.8631 20.1138C46.8423 19.8959 46.6485 19.7346 46.4296 19.7577C46.2025 19.7807 46.0233 19.9043 45.9503 20.0866C45.8857 20.2458 45.917 20.428 46.0274 20.56C46.1045 20.6521 46.2171 20.7003 46.3296 20.7003Z" fill="#FAFF00"/>
<path d="M48.6596 22.4682C48.4783 22.5793 48.2469 22.9354 48.297 23.2433C48.3303 23.4381 48.497 23.5764 48.6867 23.5764C48.7075 23.5764 48.7304 23.5743 48.7534 23.5701C48.9513 23.5366 49.0889 23.3627 49.0847 23.1679C49.0889 23.1595 49.0931 23.149 49.0993 23.1407C49.1389 23.1155 49.1743 23.0841 49.2035 23.0443C49.3348 22.8683 49.2994 22.6191 49.1264 22.4871C48.993 22.3886 48.7971 22.3845 48.6596 22.4682Z" fill="#FAFF00"/>
<path d="M50.0433 22.016C49.8974 22.06 49.7807 22.1669 49.7119 22.3177C49.6223 22.5146 49.6098 22.7995 49.6848 22.965C49.7515 23.1137 49.8953 23.1996 50.0454 23.1996C50.0995 23.1996 50.1537 23.1891 50.2079 23.164C50.3892 23.0823 50.4788 22.8833 50.4288 22.6968C50.4288 22.6926 50.4288 22.6885 50.4288 22.6843C50.5351 22.5837 50.581 22.4287 50.5372 22.28C50.4726 22.0726 50.2517 21.9532 50.0433 22.016Z" fill="#FAFF00"/>
<path d="M48.3197 21.5528C48.1238 21.4544 47.8863 21.534 47.7883 21.7309C47.7737 21.7602 47.705 21.8293 47.6674 21.865C47.5528 21.9781 47.3611 22.1666 47.4528 22.441C47.5091 22.6086 47.6633 22.7133 47.8279 22.7133C47.8696 22.7133 47.9113 22.707 47.953 22.6924C48.0697 22.6526 48.1572 22.5646 48.1968 22.4578C48.2051 22.4494 48.2135 22.441 48.2218 22.4326C48.3052 22.3488 48.4219 22.2357 48.4948 22.087C48.5948 21.8901 48.5156 21.6513 48.3197 21.5528Z" fill="#FAFF00"/>
<path d="M51.4514 22.8494C51.4014 22.9248 51.3743 22.9919 51.3535 23.0484C51.3327 23.1029 51.3202 23.1322 51.2868 23.172C51.1472 23.3417 51.1701 23.591 51.3368 23.7334C51.4118 23.7963 51.5015 23.8256 51.5911 23.8256C51.7057 23.8256 51.8161 23.7774 51.8953 23.6831C52.012 23.5428 52.06 23.4213 52.0912 23.3396C52.0975 23.3229 52.1037 23.3061 52.1121 23.2914C52.2329 23.1092 52.1829 22.862 52.0016 22.7405C51.8182 22.6169 51.5723 22.6672 51.4514 22.8494Z" fill="#FAFF00"/>
<path d="M53.43 22.0177C53.4362 21.9192 53.4049 21.8166 53.3362 21.7349C53.1945 21.5673 52.9444 21.5485 52.7777 21.6909C52.5422 21.892 52.5401 22.112 52.5609 22.2251C52.6005 22.445 52.7714 22.6105 53.0653 22.7173C53.109 22.7341 53.1549 22.7404 53.1986 22.7404C53.3612 22.7404 53.5133 22.6398 53.5717 22.4764C53.6342 22.3026 53.5696 22.1182 53.43 22.0177Z" fill="#FAFF00"/>
<path d="M54.4863 23.0988C54.3134 23.1198 54.0029 23.2664 53.8611 23.5219C53.7549 23.7126 53.8174 23.9618 54.007 24.0708C54.0695 24.1064 54.1383 24.1231 54.205 24.1231C54.3405 24.1231 54.4697 24.054 54.5426 23.9241C54.5551 23.9116 54.5926 23.8885 54.5864 23.8864C54.8031 23.8592 54.9573 23.6602 54.9302 23.4423C54.9011 23.2266 54.7031 23.0716 54.4863 23.0988Z" fill="#FAFF00"/>
<path d="M51.2759 19.4938C51.2864 19.4938 51.2968 19.4938 51.3072 19.4917C51.526 19.477 51.6907 19.2885 51.6761 19.0685C51.6636 18.8926 51.5406 18.7501 51.3801 18.7082C51.3009 18.5763 51.1467 18.4967 50.9842 18.5197C50.7674 18.5511 50.6174 18.7522 50.6487 18.9701C50.682 19.2089 50.98 19.4938 51.2759 19.4938Z" fill="#FAFF00"/>
<path d="M53.1978 19.9797L53.4645 19.6864L53.202 19.9839C53.277 20.0509 53.3708 20.0844 53.4645 20.0844C53.5729 20.0844 53.6813 20.0404 53.7605 19.9504C53.8793 19.8163 53.8918 19.6215 53.8022 19.477C53.8272 19.368 53.8063 19.2507 53.7355 19.1544C53.6063 18.9763 53.3583 18.9386 53.1832 19.0685C53.0415 19.1732 52.9581 19.3199 52.9498 19.4812C52.9373 19.7472 53.1332 19.921 53.1978 19.9797Z" fill="#FAFF00"/>
<path d="M54.0861 21.1948C54.1611 21.0083 54.084 20.8009 53.9173 20.7025C53.8548 20.5307 53.6755 20.4218 53.49 20.4448C53.2733 20.4763 53.1232 20.6774 53.1545 20.8952C53.1962 21.1906 53.4379 21.3623 53.5734 21.4168C53.6213 21.4357 53.6714 21.4461 53.7193 21.4461C53.8756 21.4461 54.0256 21.3519 54.0861 21.1948Z" fill="#FAFF00"/>
<path d="M55.1221 21.5258C55.1117 21.509 55.0992 21.486 55.0929 21.4692C55.0221 21.2619 54.797 21.1508 54.5886 21.2242C54.3823 21.2954 54.2718 21.5216 54.3448 21.7311C54.3614 21.7814 54.5219 22.2192 54.8595 22.2527C54.8741 22.2548 54.8866 22.2548 54.9012 22.2548C55.1013 22.2548 55.2742 22.1019 55.2951 21.8966C55.3076 21.7457 55.2367 21.6075 55.1221 21.5258Z" fill="#FAFF00"/>
<path d="M53.1998 25.4992C53.1727 25.5265 53.1498 25.5495 53.131 25.5684C52.9559 25.627 52.8413 25.803 52.8642 25.9936C52.8892 26.1968 53.0581 26.3455 53.256 26.3455C53.2727 26.3455 53.2873 26.3455 53.304 26.3434C53.4624 26.3246 53.5853 26.2827 53.6979 26.1318C53.7062 26.1214 53.7187 26.1046 53.7437 26.0816C53.9021 25.9308 53.9104 25.6794 53.7604 25.5181C53.6103 25.3568 53.3582 25.3505 53.1998 25.4992Z" fill="#FAFF00"/>
<path d="M44.5142 23.8653C44.3496 24.0392 44.212 24.3471 44.3746 24.632C44.4475 24.7619 44.5809 24.8352 44.7205 24.8352C44.7872 24.8352 44.8539 24.8185 44.9143 24.7828C45.0581 24.7012 45.1311 24.542 45.1123 24.3848C45.2394 24.2256 45.2249 23.9931 45.0748 23.8486C44.9164 23.6999 44.6663 23.7061 44.5142 23.8653Z" fill="#FAFF00"/>
<path d="M45.1246 21.9342C44.9891 21.8944 44.8287 21.9363 44.7265 22.0348C44.5202 22.2338 44.5202 22.7575 44.5411 22.8413C44.5848 23.0235 44.7474 23.145 44.9245 23.145C44.9558 23.145 44.9871 23.1408 45.0183 23.1324C45.208 23.0864 45.3309 22.9104 45.3184 22.7219C45.3205 22.68 45.3309 22.5983 45.3413 22.5396C45.3643 22.504 45.383 22.4663 45.3955 22.4244C45.456 22.2128 45.3351 21.9929 45.1246 21.9342Z" fill="#FAFF00"/>
<path d="M45.6183 20.8634C45.46 20.7105 45.2099 20.7168 45.0577 20.876C44.9077 21.0352 44.9119 21.2866 45.0702 21.4395L45.1161 21.4835C45.1932 21.5568 45.2911 21.5945 45.3891 21.5945C45.4933 21.5945 45.5975 21.5526 45.6746 21.4709C45.8247 21.3117 45.8205 21.0603 45.6621 20.9074L45.6183 20.8634Z" fill="#FAFF00"/>
<path d="M43.4204 21.5382C43.2162 21.4586 42.9869 21.5592 42.9077 21.7645L42.8494 21.9132C42.7702 22.1185 42.8702 22.3489 43.0745 22.4285C43.1224 22.4474 43.1703 22.4557 43.2183 22.4557C43.3766 22.4557 43.5267 22.3594 43.5871 22.2023L43.6455 22.0535C43.7247 21.8483 43.6225 21.6178 43.4204 21.5382Z" fill="#FAFF00"/>
<path d="M44.5826 21.7414C44.6013 21.6032 44.643 21.3183 44.4096 21.1633C44.2262 21.0418 43.9803 21.092 43.8615 21.2743C43.799 21.3685 43.7823 21.4796 43.8052 21.5822C43.8032 21.6052 43.799 21.6262 43.799 21.6304C43.7677 21.8482 43.9199 22.0493 44.1345 22.0808C44.1533 22.0828 44.172 22.0849 44.1908 22.0849C44.3846 22.0849 44.5555 21.9404 44.5826 21.7414Z" fill="#FAFF00"/>
<path d="M44.6354 20.6772C44.8542 20.6772 45.0292 20.518 45.0292 20.298C45.0334 20.2708 45.0459 20.2289 45.0563 20.1891C45.0938 20.0404 45.1188 19.9419 45.0772 19.8183C45.0084 19.6109 44.7833 19.4978 44.5749 19.5669C44.4186 19.6193 44.3165 19.7618 44.3061 19.9189C44.3019 19.9377 44.2936 19.9628 44.2873 19.9901C44.2561 20.1074 44.2373 20.1849 44.2373 20.2603C44.2415 20.4803 44.4165 20.6772 44.6354 20.6772Z" fill="#FAFF00"/>
<path d="M40.3564 22.3969C40.3564 22.4807 40.4127 22.7446 40.4419 22.82C40.5023 22.973 40.6461 23.063 40.8024 23.063C40.8462 23.063 40.892 23.0547 40.9358 23.04C41.1359 22.9709 41.2442 22.7488 41.1838 22.5435C41.1713 22.5016 41.1505 22.3969 41.1442 22.3571C41.1255 22.156 40.9566 21.9989 40.7503 21.9989C40.5336 21.9989 40.3564 22.177 40.3564 22.3969Z" fill="#FAFF00"/>
<path d="M41.5402 24.5336C41.561 24.5378 41.5818 24.5378 41.6027 24.5378C41.7944 24.5378 41.9632 24.3975 41.9924 24.2027C42.0007 24.1482 42.0257 23.9555 41.9861 23.7858C41.9382 23.5763 41.736 23.4549 41.5256 23.4967C41.3151 23.5386 41.1796 23.7502 41.213 23.9618C41.2171 23.9827 41.213 24.0414 41.2088 24.0791C41.1754 24.2948 41.3234 24.5001 41.5402 24.5336Z" fill="#FAFF00"/>
<path d="M39.8545 23.4127C39.6982 23.6012 39.6899 23.9825 39.7003 24.0642C39.7295 24.2632 39.9025 24.4224 40.0984 24.4224C40.115 24.4224 40.1338 24.4203 40.1505 24.4182C40.3672 24.3868 40.5193 24.2024 40.4881 23.9846C40.4881 23.9594 40.4985 23.8945 40.5068 23.8589C40.5964 23.6955 40.561 23.486 40.4131 23.3624C40.2422 23.22 39.9942 23.243 39.8545 23.4127Z" fill="#FAFF00"/>
<path d="M42.9218 20.9223L42.8468 20.6981C42.7781 20.4908 42.5551 20.3756 42.3467 20.4468C42.1383 20.5159 42.0278 20.7421 42.0966 20.9495L42.1716 21.1737C42.2279 21.3412 42.3821 21.446 42.5467 21.446C42.5884 21.446 42.6301 21.4397 42.6718 21.425C42.8781 21.3559 42.9906 21.1297 42.9218 20.9223Z" fill="#FAFF00"/>
<path d="M43.9433 20.7169V20.629C43.9433 20.409 43.7662 20.231 43.5473 20.231C43.3285 20.231 43.1514 20.409 43.1514 20.629V20.7169C43.1514 20.9369 43.3285 21.1149 43.5473 21.1149C43.7662 21.1149 43.9433 20.9369 43.9433 20.7169Z" fill="#FAFF00"/>
<path d="M42.4245 19.5229C42.4807 19.6884 42.635 19.791 42.7996 19.791C42.8413 19.791 42.885 19.7847 42.9288 19.7701C43.1351 19.6989 43.2456 19.4726 43.1747 19.2652L43.0997 19.0474C43.0288 18.84 42.8038 18.7269 42.5974 18.8002C42.3911 18.8714 42.2807 19.0977 42.3515 19.3051L42.4245 19.5229Z" fill="#FAFF00"/>
<path d="M45.8415 22.1646C45.8977 22.3301 46.052 22.4328 46.2166 22.4328C46.2583 22.4328 46.302 22.4265 46.3458 22.4118C46.5521 22.3406 46.6626 22.1144 46.5917 21.907L46.5167 21.6891C46.4458 21.4817 46.2208 21.3686 46.0144 21.4419C45.8081 21.5132 45.6977 21.7394 45.7685 21.9468L45.8415 22.1646Z" fill="#FAFF00"/>
<path d="M43.4762 19.2591C43.5325 19.4246 43.6867 19.5272 43.8514 19.5272C43.893 19.5272 43.9368 19.521 43.9806 19.5063C44.1869 19.4351 44.2973 19.2088 44.2265 19.0015L44.1515 18.7836C44.0806 18.5762 43.8555 18.4631 43.6492 18.5364C43.4429 18.6076 43.3324 18.8339 43.4033 19.0413L43.4762 19.2591Z" fill="#FAFF00"/>
<path d="M42.1156 19.7599L41.9739 19.4876C41.8718 19.2928 41.6321 19.2195 41.4383 19.3221C41.2445 19.4248 41.1715 19.6657 41.2737 19.8605L41.4154 20.1328C41.4862 20.2689 41.6238 20.3444 41.7655 20.3444C41.828 20.3444 41.8905 20.3297 41.9489 20.2983C42.1448 20.1935 42.2177 19.9526 42.1156 19.7599Z" fill="#FAFF00"/>
<path d="M58.4326 22.8871C58.2909 22.7195 58.0408 22.7007 57.8741 22.8431C57.7074 22.9856 57.6886 23.237 57.8303 23.4045L57.9304 23.5197C58.0095 23.6119 58.12 23.658 58.2305 23.658C58.3222 23.658 58.4138 23.6266 58.4868 23.5616C58.6535 23.4192 58.6723 23.1678 58.5306 23.0002L58.4326 22.8871Z" fill="#FAFF00"/>
<path d="M59.6503 22.3404C59.6503 22.0639 59.4502 21.9026 59.2523 21.8859C58.9605 21.8586 58.65 22.1854 58.6166 22.4012C58.5812 22.619 58.7271 22.8222 58.9438 22.8578C58.9647 22.862 58.9876 22.862 59.0084 22.862C59.121 22.862 59.2252 22.8138 59.2981 22.7342C59.4961 22.7133 59.6503 22.5457 59.6503 22.3404Z" fill="#FAFF00"/>
<path d="M59.6694 23.3229C59.5111 23.2684 59.3443 23.3166 59.2005 23.4527C59.0026 23.6392 59.0297 23.8403 59.0505 23.9178C59.0922 24.0728 59.2151 24.1901 59.3798 24.2278C59.4089 24.2341 59.4402 24.2383 59.4694 24.2383C59.6424 24.2383 59.7987 24.1231 59.8487 23.9534C59.8778 23.9178 59.9029 23.8738 59.9174 23.8277C59.9883 23.6203 59.8758 23.3941 59.6694 23.3229Z" fill="#FAFF00"/>
<path d="M60.3299 24.1398C60.1569 24.209 60.0423 24.3682 60.0402 24.5462C60.036 24.6866 60.109 24.873 60.3195 24.9694C60.3716 24.9945 60.4278 25.005 60.4841 25.005C60.6342 25.005 60.778 24.9191 60.8446 24.7724C60.853 24.7536 60.8592 24.7347 60.8655 24.7159C60.9572 24.563 60.9363 24.3619 60.8051 24.232C60.6842 24.1105 60.4966 24.0728 60.3299 24.1398Z" fill="#FAFF00"/>
<path d="M57.6874 20.935C57.7666 20.935 57.8479 20.9098 57.9188 20.8596C58.0959 20.7318 58.1355 20.4825 58.0084 20.3044C57.9959 20.2856 57.9771 20.2584 57.9625 20.2332C57.9584 20.1369 57.9208 20.0426 57.8479 19.9693C57.6937 19.8143 57.4436 19.8143 57.2873 19.9693C57.0956 20.162 57.1227 20.4301 57.3665 20.7695C57.4436 20.8784 57.5645 20.935 57.6874 20.935Z" fill="#FAFF00"/>
<path d="M59.4882 19.9335C59.5945 19.9335 59.7008 19.8916 59.7779 19.8078C59.9009 19.6759 59.9155 19.479 59.8279 19.3323C59.8404 19.1459 59.7217 18.9699 59.5362 18.9197C59.3257 18.861 59.1069 18.9888 59.0506 19.2024C58.9902 19.4308 59.0548 19.6759 59.2194 19.8288C59.2944 19.8979 59.3903 19.9335 59.4882 19.9335Z" fill="#FAFF00"/>
<path d="M59.6465 20.5368C59.6465 20.6981 59.7528 20.9495 59.9257 21.0751C60.0091 21.1359 60.1029 21.1673 60.1987 21.1673C60.2467 21.1673 60.2946 21.1589 60.3405 21.1443C60.5489 21.0751 60.6614 20.8489 60.5905 20.6415C60.5593 20.5494 60.4988 20.476 60.4217 20.4279C60.3738 20.2624 60.2217 20.1409 60.0424 20.1409C59.8236 20.1388 59.6465 20.3168 59.6465 20.5368Z" fill="#FAFF00"/>
<path d="M58.4351 20.8303C58.4684 21.0251 58.6351 21.1634 58.8248 21.1634C58.8456 21.1634 58.8685 21.1613 58.8915 21.1571C59.1061 21.1215 59.252 20.9162 59.2166 20.6983C59.2166 20.6942 59.2145 20.6795 59.2145 20.6669C59.2916 20.5098 59.2583 20.315 59.1228 20.1935C58.9603 20.0469 58.7081 20.0615 58.5643 20.227C58.3955 20.4156 58.4101 20.6858 58.4351 20.8303Z" fill="#FAFF00"/>
<path d="M57.9073 19.7743C57.9407 19.9691 58.1074 20.1074 58.297 20.1074C58.3179 20.1074 58.3408 20.1053 58.3637 20.1011C58.5784 20.0655 58.7243 19.8602 58.6888 19.6423C58.6888 19.6381 58.6868 19.6235 58.6868 19.6109C58.7639 19.4538 58.7305 19.259 58.5951 19.1375C58.4325 18.9908 58.1803 19.0055 58.0365 19.171C57.8698 19.3595 57.8844 19.6297 57.9073 19.7743Z" fill="#FAFF00"/>
<path d="M57.1207 22.152C57.154 22.3468 57.3207 22.485 57.5104 22.485C57.5312 22.485 57.5541 22.4829 57.5771 22.4788C57.7917 22.4431 57.9376 22.2379 57.9022 22.02C57.9022 22.0158 57.9001 22.0012 57.9001 21.9886C57.9772 21.8315 57.9439 21.6367 57.8084 21.5152C57.6458 21.3685 57.3937 21.3832 57.2499 21.5487C57.0811 21.7372 57.0977 22.0074 57.1207 22.152Z" fill="#FAFF00"/>
<path d="M56.1581 20.8363L56.1331 20.7797C56.0414 20.5787 55.8059 20.4907 55.6079 20.5828C55.4099 20.675 55.3203 20.9096 55.412 21.1107L55.4391 21.1715C55.4912 21.2909 55.61 21.5716 55.9456 21.5716C56.1644 21.5716 56.3415 21.3935 56.3415 21.1736C56.3436 21.0311 56.2686 20.9054 56.1581 20.8363Z" fill="#FAFF00"/>
<path d="M54.4563 19.8122C54.3521 19.8813 54.2749 20.028 54.2666 20.1515C54.2562 20.3191 54.3291 20.493 54.4583 20.604C54.5334 20.6689 54.6251 20.7004 54.7147 20.7004C54.8272 20.7004 54.9377 20.6522 55.0148 20.5621C55.1211 20.4364 55.1377 20.2647 55.069 20.1243C55.0648 20.0552 55.0439 19.9861 55.0023 19.9253C54.8835 19.741 54.6396 19.6907 54.4563 19.8122Z" fill="#FAFF00"/>
<path d="M54.5359 19.3115C54.6172 19.3115 54.7006 19.2863 54.7714 19.234C54.8944 19.1418 54.9486 18.9952 54.9277 18.8527C54.9506 18.6998 54.884 18.5406 54.7464 18.4547C54.5609 18.3374 54.3171 18.3961 54.2004 18.5804C54.0733 18.7857 54.117 19.014 54.2171 19.1502C54.2942 19.257 54.415 19.3115 54.5359 19.3115Z" fill="#FAFF00"/>
<path d="M56.5327 19.5881C56.3139 19.5881 56.1367 19.7662 56.1367 19.9861V20.0657C56.1367 20.2857 56.3139 20.4637 56.5327 20.4637C56.7515 20.4637 56.9286 20.2857 56.9286 20.0657V19.9861C56.9286 19.7662 56.7515 19.5881 56.5327 19.5881Z" fill="#FAFF00"/>
<path d="M55.6577 19.7012C55.8765 19.7012 56.0536 19.5231 56.0536 19.3032V19.1565C56.0536 18.9366 55.8765 18.7585 55.6577 18.7585C55.4389 18.7585 55.2617 18.9366 55.2617 19.1565V19.3032C55.2617 19.5231 55.4389 19.7012 55.6577 19.7012Z" fill="#FAFF00"/>
<path d="M57.414 18.8528V18.7418C57.414 18.5218 57.2369 18.3438 57.018 18.3438C56.7992 18.3438 56.6221 18.5218 56.6221 18.7418V18.8528C56.6221 19.0727 56.7992 19.2508 57.018 19.2508C57.2369 19.2508 57.414 19.0727 57.414 18.8528Z" fill="#FAFF00"/>
<path d="M58.0913 18.5847H58.183C58.4018 18.5847 58.5789 18.4066 58.5789 18.1867C58.5789 17.9667 58.4018 17.7887 58.183 17.7887H58.0913C57.8725 17.7887 57.6953 17.9667 57.6953 18.1867C57.6953 18.4066 57.8725 18.5847 58.0913 18.5847Z" fill="#FAFF00"/>
<path d="M60.3942 19.3218C60.2066 19.4349 60.1462 19.68 60.2588 19.8685L60.3338 19.9921C60.4088 20.1157 60.5401 20.1848 60.6735 20.1848C60.7422 20.1848 60.8131 20.166 60.8777 20.1283C61.0653 20.0151 61.1257 19.7701 61.0132 19.5815L60.9381 19.4579C60.8256 19.2694 60.5818 19.2087 60.3942 19.3218Z" fill="#FAFF00"/>
<path d="M60.5403 19.0579C60.6195 19.0579 60.7007 19.0348 60.7695 18.9846L60.8279 18.9427C61.005 18.8149 61.0467 18.5656 60.9196 18.3876C60.7924 18.2095 60.5444 18.1676 60.3673 18.2954L60.3089 18.3373C60.1318 18.4651 60.0901 18.7143 60.2172 18.8924C60.2964 18.9992 60.4173 19.0579 60.5403 19.0579Z" fill="#FAFF00"/>
<path d="M61.5798 19.2068C61.6674 19.2068 61.757 19.1774 61.8299 19.1167L61.9612 19.0099C62.13 18.8716 62.1571 18.6202 62.0196 18.4506C61.882 18.2788 61.6319 18.2537 61.4631 18.3919L61.3318 18.4987C61.163 18.637 61.1359 18.8884 61.2735 19.058C61.3506 19.1565 61.4652 19.2068 61.5798 19.2068Z" fill="#FAFF00"/>
<path d="M61.8198 19.3262C61.601 19.3262 61.4238 19.5042 61.4238 19.7242V19.8247C61.4238 20.0447 61.601 20.2227 61.8198 20.2227C62.0386 20.2227 62.2158 20.0447 62.2158 19.8247V19.7242C62.2158 19.5063 62.0386 19.3262 61.8198 19.3262Z" fill="#FAFF00"/>
<path d="M9.04026 53.3596L13.0937 59.3946C13.127 59.4469 13.1687 59.4783 13.225 59.4993C13.2979 59.5244 13.3688 59.537 13.4396 59.537H14.0128C14.0961 59.537 14.1128 59.5202 14.1128 59.4364V51.6859C14.1128 51.6021 14.0961 51.5853 14.0128 51.5853H13.3584C13.275 51.5853 13.2583 51.6021 13.2583 51.6859V57.6392C13.2583 57.7041 13.2583 57.8759 13.1187 57.9178C12.9791 57.9597 12.8853 57.8151 12.8499 57.7606L8.88813 51.7257C8.85479 51.6754 8.81519 51.6419 8.75684 51.623C8.6839 51.5979 8.61304 51.5853 8.54218 51.5853H7.87738C7.79402 51.5853 7.77734 51.6021 7.77734 51.6859V59.4364C7.77734 59.5202 7.79402 59.537 7.87738 59.537H8.53385C8.61721 59.537 8.63388 59.5202 8.63388 59.4364V53.4832C8.63388 53.4203 8.63388 53.2507 8.77143 53.2088C8.79018 53.2025 8.80685 53.2004 8.82353 53.2004C8.93398 53.2025 9.009 53.3135 9.04026 53.3596Z" fill="#111111"/>
<path d="M24.1412 57.8865C24.2474 57.8216 24.2975 57.7315 24.2975 57.6079V53.5168C24.2975 53.3912 24.2495 53.3053 24.1412 53.2382L20.6421 51.1749C20.5837 51.1414 20.5295 51.1246 20.4795 51.1246C20.4566 51.1246 20.4045 51.1309 20.3086 51.1791L16.8346 53.2382C16.7199 53.3053 16.6699 53.3912 16.6699 53.5168V57.6079C16.6699 57.7336 16.7199 57.8195 16.8346 57.8865L20.317 59.9498C20.3962 60.0001 20.4608 60.0127 20.5629 59.9896C20.5837 59.9854 20.6067 59.9729 20.6317 59.9561L24.1412 57.8865ZM20.4795 59.1015C20.392 59.1015 20.3065 59.0763 20.2274 59.0281L17.6536 57.5032C17.491 57.4068 17.4056 57.2602 17.4056 57.0758V54.0489C17.4056 53.8667 17.491 53.7179 17.6536 53.6216L20.2315 52.0945C20.4441 51.9877 20.5733 52.0044 20.7296 52.0945L23.3201 53.6216C23.4784 53.72 23.5618 53.8667 23.5618 54.0489V57.0758C23.5618 57.2581 23.4784 57.4047 23.3242 57.5011L20.7317 59.0281C20.6963 59.0533 20.6483 59.0763 20.5983 59.0868C20.5545 59.0973 20.515 59.1015 20.4795 59.1015Z" fill="#111111"/>
<path d="M39.7319 51.5875C39.6485 51.5875 39.6318 51.6043 39.6318 51.6881V59.4387C39.6318 59.5225 39.6485 59.5392 39.7319 59.5392H45.2691C45.3525 59.5392 45.3692 59.5225 45.3692 59.4387V58.7788C45.3692 58.695 45.3525 58.6783 45.2691 58.6783H40.8885C40.6426 58.6783 40.4967 58.5295 40.4967 58.2844V51.6881C40.4967 51.6043 40.48 51.5875 40.3967 51.5875H39.7319Z" fill="#111111"/>
<path d="M74.1201 59.6103C74.2597 59.6103 74.3473 59.5537 74.3973 59.4343L77.3191 52.7877C77.3483 52.7206 77.3962 52.6285 77.4837 52.6285C77.5713 52.6285 77.6192 52.7206 77.6484 52.7877L80.5597 59.4322C80.6098 59.5537 80.6973 59.6103 80.8369 59.6103H81.5017C81.5601 59.6103 81.5893 59.5977 81.5976 59.5872C81.6039 59.5768 81.6059 59.5432 81.583 59.4888L78.0902 51.6921C78.0402 51.5685 77.9526 51.512 77.813 51.512H77.1482C77.0086 51.512 76.921 51.5685 76.871 51.6879V51.69L73.3844 59.4909C73.3636 59.5432 73.3636 59.5768 73.3699 59.5872C73.3761 59.5977 73.4053 59.6103 73.4657 59.6103H74.1201Z" fill="#111111"/>
<path d="M87.1245 56.0325L89.221 59.4051C89.2585 59.4972 89.3189 59.535 89.4294 59.535H90.1755C90.1817 59.535 90.188 59.535 90.1942 59.535C90.1942 59.5329 90.1921 59.5287 90.1921 59.5266L88.0289 56.0493L88.2707 56.0325C88.5499 56.0116 88.8167 55.9383 89.0647 55.8126C89.3127 55.6869 89.5336 55.5214 89.717 55.3245C89.9004 55.1276 90.0463 54.8972 90.1526 54.6395C90.2568 54.3839 90.3089 54.1074 90.3089 53.8205C90.3089 53.5398 90.2547 53.2612 90.1463 52.993C90.0379 52.7249 89.89 52.4819 89.7045 52.2724C89.5211 52.065 89.3002 51.8975 89.048 51.7697C88.8 51.6461 88.527 51.5833 88.2394 51.5833H84.1547C84.0714 51.5833 84.0547 51.6 84.0547 51.6838V52.3437C84.0547 52.4274 84.0714 52.4442 84.1547 52.4442H88.2144C88.402 52.4568 88.5687 52.5028 88.7167 52.5804C88.8646 52.6579 88.9917 52.7605 89.098 52.8841C89.2002 53.0056 89.2856 53.1459 89.3481 53.303C89.4106 53.4581 89.4481 53.6256 89.4607 53.8016V53.8121V53.8225C89.4315 54.1828 89.3085 54.4908 89.098 54.7421C88.8813 55.0019 88.5833 55.1443 88.2165 55.1695H84.236C84.1797 55.1695 84.1339 55.1841 84.0943 55.2135C84.0734 55.2302 84.0547 55.2512 84.0547 55.3014V59.4323C84.0547 59.5161 84.0714 59.5329 84.1547 59.5329H84.8112C84.8946 59.5329 84.9112 59.5161 84.9112 59.4323V56.4221C84.9112 56.175 85.0592 56.0283 85.303 56.0283H87.1245V56.0325Z" fill="#111111"/>
<path d="M71.1154 55.3266C71.2988 55.1296 71.4447 54.8992 71.551 54.6416C71.6552 54.386 71.7073 54.1095 71.7073 53.8225C71.7073 53.5418 71.6531 53.2632 71.5447 52.9951C71.4363 52.727 71.2884 52.484 71.1029 52.2745C70.9195 52.0671 70.6986 51.8995 70.4464 51.7718C70.1964 51.6482 69.9254 51.5853 69.6378 51.5853H65.5532C65.4698 51.5853 65.4531 51.6021 65.4531 51.6859V52.3457C65.4531 52.4295 65.4698 52.4463 65.5532 52.4463H69.6128C69.8004 52.4588 69.9671 52.5049 70.1151 52.5824C70.263 52.6599 70.3902 52.7626 70.4965 52.8862C70.5986 53.0077 70.684 53.148 70.7465 53.3051C70.8091 53.4601 70.8466 53.6277 70.8591 53.8037V53.8141V53.8246C70.8299 54.1849 70.7069 54.4928 70.4965 54.7442C70.2797 55.004 69.9817 55.1464 69.6149 55.1715H65.6344C65.5782 55.1715 65.5323 55.1862 65.4927 55.2155C65.4719 55.2323 65.4531 55.2532 65.4531 55.3035V59.4344C65.4531 59.5182 65.4698 59.5349 65.5532 59.5349H66.2096C66.293 59.5349 66.3097 59.5182 66.3097 59.4344V56.4242C66.3097 56.177 66.4576 56.0304 66.7015 56.0304L69.6691 56.0388V56.0304C69.9484 56.0094 70.2151 55.9361 70.4631 55.8104C70.7111 55.6869 70.932 55.5235 71.1154 55.3266Z" fill="#111111"/>
<path d="M93.2231 59.537H96.0282C96.5679 59.537 97.0869 59.4323 97.5662 59.227C98.0476 59.0217 98.4727 58.7369 98.8333 58.3786C99.1917 58.0225 99.4793 57.5973 99.6877 57.1134C99.8941 56.6316 100 56.1079 100 55.5591C100 55.1381 99.9357 54.7254 99.8065 54.3358C99.6773 53.944 99.496 53.5796 99.2647 53.2528C99.0334 52.926 98.7499 52.6327 98.4227 52.3814C98.0935 52.13 97.7287 51.9352 97.3349 51.7969C96.9264 51.6545 96.5013 51.5833 96.0699 51.5833H93.2231C93.1397 51.5833 93.123 51.6 93.123 51.6838V52.3437C93.123 52.4274 93.1397 52.4442 93.2231 52.4442H95.9636C96.3866 52.4735 96.7889 52.5699 97.1702 52.7333C97.5516 52.8967 97.8913 53.1166 98.181 53.3868C98.4727 53.6592 98.7082 53.9838 98.8812 54.3504C99.0563 54.7212 99.1459 55.1276 99.1459 55.5591C99.1459 55.9843 99.0667 56.3907 98.9125 56.7657C98.7583 57.1406 98.5436 57.4737 98.2706 57.7565C97.9976 58.0393 97.6746 58.2634 97.3099 58.4268C96.9431 58.5923 96.5429 58.674 96.1261 58.674H94.3714C94.1255 58.674 93.9796 58.5253 93.9796 58.2802V56.9773C93.9796 56.8935 93.9629 56.8767 93.8796 56.8767H93.2231C93.1397 56.8767 93.123 56.8935 93.123 56.9773V59.4344C93.123 59.5203 93.1397 59.537 93.2231 59.537Z" fill="#111111"/>
<path d="M1.04618 59.2647C1.43798 59.4406 1.86104 59.5307 2.30285 59.5307C2.7926 59.5307 3.20732 59.4741 3.53659 59.3631C3.86379 59.2521 4.1368 59.1138 4.34937 58.9484C4.55777 58.785 4.71824 58.6111 4.82661 58.431C4.94123 58.2382 5.02876 58.0539 5.08503 57.8842C5.1413 57.7166 5.17464 57.5763 5.18298 57.4674C5.1934 57.3543 5.19965 57.2872 5.19965 57.2642C5.19965 56.9395 5.15172 56.6567 5.05585 56.4284C4.9579 56.1938 4.83494 55.9948 4.69115 55.8335C4.54943 55.6764 4.38896 55.5486 4.21599 55.4585C4.02217 55.36 3.83461 55.2783 3.65747 55.2197C3.48033 55.161 3.31986 55.1212 3.18231 55.1003C3.0406 55.0794 2.93639 55.0647 2.87387 55.0563C2.85929 55.0542 2.84678 55.0521 2.83011 55.05H2.82803C2.5967 55.006 2.38413 54.9662 2.1924 54.9348C1.96732 54.895 1.76934 54.8343 1.60679 54.7547C1.41922 54.6625 1.26917 54.5284 1.1608 54.3588C1.05035 54.1849 0.996165 53.9628 0.996165 53.6821C0.996165 53.2737 1.17331 52.9385 1.50675 52.7144C1.80894 52.5112 2.21949 52.4085 2.73008 52.4085C2.96974 52.4169 3.19065 52.4421 3.39488 52.4819C3.58661 52.5279 3.76792 52.595 3.94506 52.685C4.02634 52.7269 4.10345 52.7751 4.17222 52.8317C4.20765 52.8589 4.27017 52.8547 4.31811 52.8212L4.8016 52.463C4.85162 52.4274 4.85787 52.3771 4.85995 52.3499C4.85995 52.3227 4.8537 52.2703 4.8016 52.2305C4.60987 52.0797 4.39313 51.9498 4.15972 51.8451C3.76375 51.6649 3.33861 51.5748 2.89888 51.5748C2.40705 51.5748 1.99025 51.6272 1.65889 51.7319C1.32961 51.8367 1.05452 51.9665 0.841947 52.1174C0.635628 52.2661 0.475158 52.4274 0.364705 52.6013C0.247999 52.7856 0.162554 52.9574 0.110453 53.1124C0.0583528 53.2695 0.0270924 53.4015 0.0166722 53.502C0.00625208 53.6026 0 53.6675 0 53.6884C0 53.967 0.0437646 54.2121 0.131294 54.4132C0.220907 54.6227 0.333444 54.8007 0.466822 54.9474C0.6002 55.094 0.752334 55.2176 0.916972 55.3119C1.09828 55.4145 1.27334 55.4983 1.43798 55.5611C1.60262 55.624 1.75058 55.6701 1.87979 55.6952C2.009 55.7224 2.10278 55.7392 2.16114 55.7476C2.17572 55.7497 2.19031 55.7518 2.20907 55.756C2.4404 55.7999 2.66547 55.8481 2.87596 55.8963C3.11145 55.9508 3.32194 56.0304 3.50742 56.1288C3.71165 56.2378 3.87629 56.3844 3.99925 56.5645C4.12846 56.7552 4.19306 56.9919 4.19306 57.2726C4.19306 57.6643 4.03051 58.0036 3.71165 58.2864C3.40322 58.5587 2.98224 58.6949 2.45915 58.6949C2.18406 58.6949 1.94023 58.6614 1.73391 58.5964C1.53384 58.5336 1.36712 58.4603 1.23166 58.3807C1.13996 58.3262 1.06285 58.2738 0.998249 58.2194L0.412637 58.6551C0.362621 58.6907 0.356369 58.741 0.354285 58.7682C0.354285 58.7954 0.360537 58.8478 0.412637 58.8855C0.602284 59.0342 0.816939 59.162 1.04618 59.2647Z" fill="#111111"/>
<path d="M30.1535 59.292C30.191 59.3611 30.2556 59.3695 30.2827 59.3695C30.3098 59.3695 30.3744 59.3611 30.4119 59.2899L30.8078 58.5316C30.8308 58.4876 30.8308 58.4373 30.8078 58.3954L27.2837 51.6713C27.2587 51.6231 27.2087 51.5917 27.1545 51.5917H26.3001C26.2251 51.5917 26.1875 51.642 26.175 51.6629C26.1625 51.6838 26.1354 51.7425 26.1709 51.8074L30.1535 59.292Z" fill="#111111"/>
<path d="M29.4632 51.5917C29.3881 51.5917 29.3506 51.642 29.3381 51.6629C29.3256 51.6838 29.2985 51.7404 29.334 51.8074L33.1748 59.2836C33.2123 59.3569 33.2749 59.3653 33.304 59.3632C33.3311 59.3632 33.3957 59.3548 33.4332 59.2857L37.3991 51.8095C37.4346 51.7425 37.4075 51.6859 37.395 51.665C37.3825 51.644 37.345 51.5938 37.2699 51.5938H36.4176C36.403 51.5938 36.3884 51.5959 36.378 51.6001L33.3103 57.6874L30.4406 51.6566C30.4135 51.6189 30.3697 51.5959 30.3239 51.5959H29.4632V51.5917Z" fill="#111111"/>
<path d="M62.9956 57.8527C63.1019 57.7877 63.1519 57.6977 63.1519 57.5741V53.483C63.1519 53.3594 63.1019 53.2694 62.9956 53.2044L59.4966 51.1411C59.4382 51.1076 59.384 51.0908 59.334 51.0908C59.3111 51.0908 59.259 51.0971 59.1631 51.1453L55.6891 53.2044C55.5744 53.2715 55.5244 53.3594 55.5244 53.483V57.5741C55.5244 57.6998 55.5744 57.7856 55.6891 57.8527L59.1715 59.916C59.2507 59.9663 59.3173 59.9788 59.4174 59.9558C59.4382 59.9516 59.4611 59.939 59.4861 59.9223L62.9956 57.8527ZM59.334 59.0676C59.2465 59.0676 59.161 59.0425 59.0818 58.9943L56.5081 57.4693C56.3455 57.373 56.2601 57.2242 56.2601 57.042V54.0151C56.2601 53.8328 56.3455 53.6841 56.5081 53.5878L59.086 52.0607C59.2986 51.9539 59.4278 51.9706 59.5841 52.0607L62.1745 53.5878C62.3329 53.6862 62.4163 53.8328 62.4163 54.0151V57.042C62.4163 57.2242 62.3329 57.3709 62.1766 57.4672L59.5841 58.9943C59.5487 59.0215 59.4986 59.0425 59.4507 59.053C59.4049 59.0634 59.3694 59.0676 59.334 59.0676Z" fill="#111111"/>
<path d="M48.022 51.4763H52.9028C52.9841 51.4763 53.0487 51.5433 53.0487 51.623V52.1131C53.0487 52.1948 52.982 52.2598 52.9028 52.2598H48.022C47.9407 52.2598 47.8761 52.1927 47.8761 52.1131V51.623C47.874 51.5413 47.9407 51.4763 48.022 51.4763ZM48.0199 55.1296H52.1755C52.2567 55.1296 52.3213 55.1945 52.3213 55.2762V55.7664C52.3213 55.8481 52.2567 55.913 52.1755 55.913H48.0199C47.9386 55.913 47.874 55.8481 47.874 55.7664V55.2762C47.874 55.1966 47.9407 55.1296 48.0199 55.1296ZM48.022 58.7619H52.9049C52.9861 58.7619 53.0507 58.8289 53.0507 58.9085V59.3987C53.0507 59.4804 52.9841 59.5453 52.9049 59.5453H48.022C47.9407 59.5453 47.8761 59.4783 47.8761 59.3987V58.9085C47.874 58.8289 47.9407 58.7619 48.022 58.7619Z" fill="#111111"/>
</g>
<defs>
<clipPath id="clip0_2:19053">
<rect width="100" height="60" fill="white"/>
</clipPath>
</defs>
</svg>
