<svg width="346" height="285" viewBox="0 0 346 285" fill="none" xmlns="http://www.w3.org/2000/svg">
<g filter="url(#filter0_b_1_3810)">
<path d="M0 46C0 40.4772 4.47715 36 10 36H308C313.523 36 318 40.4772 318 46V275C318 280.523 313.523 285 308 285H9.99999C4.47714 285 0 280.523 0 275V46Z" fill="white" fill-opacity="0.7"/>
<path d="M1 46C1 41.0294 5.02944 37 10 37H308C312.971 37 317 41.0294 317 46V275C317 279.971 312.971 284 308 284H9.99999C5.02943 284 1 279.971 1 275V46Z" stroke="#111111" stroke-width="2"/>
</g>
<rect x="226" width="120" height="106" rx="12" fill="#111111"/>
<line x1="234" y1="23.5" x2="338" y2="23.5" stroke="white"/>
<circle cx="247" cy="41" r="4.5" stroke="white"/>
<circle cx="247" cy="63" r="4.5" stroke="white"/>
<circle cx="247" cy="85" r="4.5" stroke="white"/>
<circle cx="273" cy="41" r="4.5" stroke="white"/>
<circle cx="273" cy="63" r="4.5" stroke="white"/>
<circle cx="273" cy="85" r="4.5" stroke="white"/>
<circle cx="299" cy="41" r="5" fill="#FAFF00"/>
<circle cx="299" cy="63" r="4.5" stroke="white"/>
<circle cx="299" cy="85" r="4.5" stroke="white"/>
<circle cx="325" cy="41" r="4.5" stroke="white"/>
<circle cx="325" cy="63" r="4.5" stroke="white"/>
<circle cx="325" cy="85" r="4.5" stroke="white"/>
<path d="M34.472 54.8H42.024V56.08H35.816V59.712H41.544V60.992H35.816V64.72H42.12V66H34.472V54.8ZM49.4593 58.32H50.8833L47.4913 66H46.1473L42.7553 58.32H44.1793L46.8193 64.56L49.4593 58.32ZM51.4841 62.16C51.4841 60.9013 51.8681 59.9147 52.6361 59.2C53.4148 58.4853 54.3055 58.128 55.3081 58.128C56.2468 58.128 57.0201 58.3627 57.6281 58.832C58.2468 59.3013 58.6521 59.8827 58.8441 60.576C59.0361 61.2587 59.0468 61.9733 58.8761 62.72H52.7641C52.8388 63.4773 53.1748 64.048 53.7721 64.432C54.3695 64.816 55.0895 65.008 55.9321 65.008C56.8708 65.008 57.7135 64.8 58.4601 64.384V65.632C57.7455 66.0053 56.8388 66.192 55.7401 66.192C54.5241 66.192 53.5108 65.8453 52.7001 65.152C51.8895 64.4587 51.4841 63.4613 51.4841 62.16ZM57.7401 61.6C57.7721 61.376 57.7561 61.1413 57.6921 60.896C57.6281 60.6507 57.5108 60.4053 57.3401 60.16C57.1801 59.9147 56.9295 59.712 56.5881 59.552C56.2468 59.392 55.8468 59.312 55.3881 59.312C54.6948 59.312 54.0921 59.5147 53.5801 59.92C53.0788 60.3253 52.8068 60.8853 52.7641 61.6H57.7401ZM61.9298 59.68C62.2284 59.1787 62.6871 58.7893 63.3058 58.512C63.9244 58.224 64.5698 58.1067 65.2418 58.16V59.44C64.4951 59.3547 63.8338 59.4773 63.2578 59.808C62.6924 60.128 62.2924 60.5973 62.0578 61.216V66H60.7778V58.32H61.9298V59.68ZM69.8691 64.544L72.4611 58.32H73.8211L70.0451 67.152C69.3091 68.8587 68.3438 69.712 67.1491 69.712C66.8611 69.712 66.5838 69.6747 66.3171 69.6V68.496C66.5411 68.56 66.7651 68.592 66.9891 68.592C67.8105 68.592 68.4718 67.968 68.9731 66.72L69.2611 66.016L65.6131 58.32H66.9731L69.8691 64.544ZM75.7585 55.936L77.0225 55.616V58.32H80.0945V59.504H77.0225V63.472C77.0225 64.0373 77.1505 64.432 77.4065 64.656C77.6732 64.88 78.0945 64.992 78.6705 64.992C79.2252 64.992 79.7905 64.8747 80.3665 64.64V65.824C79.7158 66.0587 79.0278 66.176 78.3025 66.176C77.5238 66.176 76.9052 65.968 76.4465 65.552C75.9878 65.1253 75.7585 64.5067 75.7585 63.696V59.504H74.3185V58.32H75.7585V55.936ZM81.809 54.8H83.089V59.296C83.3877 58.9653 83.7663 58.688 84.225 58.464C84.6943 58.24 85.1957 58.128 85.729 58.128C86.657 58.128 87.4197 58.4213 88.017 59.008C88.625 59.584 88.929 60.336 88.929 61.264V66H87.649V61.424C87.649 60.7307 87.457 60.208 87.073 59.856C86.6997 59.4933 86.2037 59.312 85.585 59.312C84.6037 59.312 83.7717 59.824 83.089 60.848V66H81.809V54.8ZM92.5116 66H91.2316V58.32H92.5116V66ZM92.4636 55.28C92.6236 55.4187 92.7036 55.616 92.7036 55.872C92.7036 56.128 92.6236 56.3307 92.4636 56.48C92.3036 56.6187 92.1063 56.688 91.8716 56.688C91.637 56.688 91.4396 56.6187 91.2796 56.48C91.1196 56.3307 91.0396 56.128 91.0396 55.872C91.0396 55.616 91.1196 55.4187 91.2796 55.28C91.4396 55.1307 91.637 55.056 91.8716 55.056C92.1063 55.056 92.3036 55.1307 92.4636 55.28ZM96.0704 59.456C96.3477 59.0827 96.7317 58.768 97.2224 58.512C97.7237 58.256 98.2624 58.128 98.8384 58.128C99.7664 58.128 100.529 58.4213 101.126 59.008C101.734 59.584 102.038 60.336 102.038 61.264V66H100.758V61.424C100.758 60.7307 100.566 60.208 100.182 59.856C99.809 59.4933 99.313 59.312 98.6944 59.312C97.713 59.312 96.881 59.824 96.1984 60.848V66H94.9184V58.32H96.0704V59.456ZM104.869 65.04C104.144 64.272 103.781 63.312 103.781 62.16C103.781 61.008 104.144 60.048 104.869 59.28C105.605 58.512 106.522 58.128 107.621 58.128C108.826 58.128 109.861 58.6187 110.725 59.6V58.32H111.877V66C111.877 67.2373 111.472 68.1653 110.661 68.784C109.85 69.4027 108.858 69.712 107.685 69.712C106.544 69.712 105.504 69.472 104.565 68.992V67.744C105.493 68.2667 106.48 68.528 107.525 68.528C108.432 68.528 109.173 68.3253 109.749 67.92C110.325 67.5253 110.608 66.8853 110.597 66V64.816C109.85 65.7333 108.858 66.192 107.621 66.192C106.522 66.192 105.605 65.808 104.869 65.04ZM110.597 61.2C110.362 60.6667 109.994 60.2187 109.493 59.856C108.992 59.4933 108.416 59.312 107.765 59.312C106.997 59.312 106.352 59.5733 105.829 60.096C105.317 60.6187 105.061 61.3067 105.061 62.16C105.061 63.0133 105.317 63.7013 105.829 64.224C106.352 64.7467 106.997 65.008 107.765 65.008C108.416 65.008 108.992 64.8427 109.493 64.512C109.994 64.1707 110.362 63.76 110.597 63.28V61.2ZM118.919 65.12C118.108 64.3947 117.703 63.408 117.703 62.16C117.703 60.912 118.108 59.9307 118.919 59.216C119.73 58.4907 120.69 58.128 121.799 58.128C122.919 58.128 123.879 58.4907 124.679 59.216C125.49 59.9307 125.895 60.912 125.895 62.16C125.895 63.408 125.49 64.3947 124.679 65.12C123.879 65.8347 122.919 66.192 121.799 66.192C120.69 66.192 119.73 65.8347 118.919 65.12ZM123.815 64.224C124.348 63.712 124.615 63.024 124.615 62.16C124.615 61.296 124.348 60.6133 123.815 60.112C123.282 59.6 122.61 59.344 121.799 59.344C120.988 59.344 120.316 59.6 119.783 60.112C119.25 60.6133 118.983 61.296 118.983 62.16C118.983 63.024 119.25 63.712 119.783 64.224C120.316 64.7253 120.988 64.976 121.799 64.976C122.61 64.976 123.282 64.7253 123.815 64.224ZM128.883 59.456C129.16 59.0827 129.544 58.768 130.035 58.512C130.536 58.256 131.075 58.128 131.651 58.128C132.579 58.128 133.342 58.4213 133.939 59.008C134.547 59.584 134.851 60.336 134.851 61.264V66H133.571V61.424C133.571 60.7307 133.379 60.208 132.995 59.856C132.622 59.4933 132.126 59.312 131.507 59.312C130.526 59.312 129.694 59.824 129.011 60.848V66H127.731V58.32H128.883V59.456ZM141.305 55.936L142.569 55.616V58.32H145.641V59.504H142.569V63.472C142.569 64.0373 142.697 64.432 142.953 64.656C143.22 64.88 143.641 64.992 144.217 64.992C144.772 64.992 145.337 64.8747 145.913 64.64V65.824C145.263 66.0587 144.575 66.176 143.849 66.176C143.071 66.176 142.452 65.968 141.993 65.552C141.535 65.1253 141.305 64.5067 141.305 63.696V59.504H139.865V58.32H141.305V55.936ZM148.508 59.68C148.807 59.1787 149.265 58.7893 149.884 58.512C150.503 58.224 151.148 58.1067 151.82 58.16V59.44C151.073 59.3547 150.412 59.4773 149.836 59.808C149.271 60.128 148.871 60.5973 148.636 61.216V66H147.356V58.32H148.508V59.68ZM159.362 64.4C159.362 64.7947 159.559 64.992 159.954 64.992C160.124 64.992 160.322 64.9547 160.546 64.88V65.92C160.226 66.0373 159.906 66.096 159.586 66.096C158.85 66.096 158.38 65.7867 158.178 65.168C157.356 65.8507 156.359 66.192 155.186 66.192C154.439 66.192 153.799 65.9947 153.266 65.6C152.743 65.1947 152.482 64.6133 152.482 63.856C152.482 62.9493 152.818 62.2933 153.49 61.888C154.172 61.472 154.994 61.264 155.954 61.264C156.658 61.264 157.367 61.344 158.082 61.504V61.232C158.082 60.6453 157.89 60.1813 157.506 59.84C157.122 59.488 156.583 59.312 155.89 59.312C154.919 59.312 153.986 59.504 153.09 59.888V58.64C154.092 58.2987 155.068 58.128 156.018 58.128C157.063 58.128 157.879 58.4107 158.466 58.976C159.063 59.5307 159.362 60.336 159.362 61.392V64.4ZM153.794 63.792C153.794 64.2187 153.954 64.544 154.274 64.768C154.604 64.9813 154.999 65.088 155.458 65.088C156.514 65.088 157.388 64.7147 158.082 63.968V62.56C157.356 62.4107 156.706 62.336 156.13 62.336C155.479 62.336 154.924 62.4533 154.466 62.688C154.018 62.912 153.794 63.28 153.794 63.792ZM161.297 62.192C161.297 61.52 161.419 60.9173 161.665 60.384C161.91 59.8507 162.23 59.424 162.625 59.104C163.03 58.784 163.473 58.544 163.953 58.384C164.443 58.2133 164.945 58.128 165.457 58.128C166.406 58.128 167.195 58.336 167.825 58.752V60C167.238 59.5413 166.502 59.312 165.617 59.312C164.785 59.312 164.07 59.552 163.473 60.032C162.875 60.512 162.577 61.2213 162.577 62.16C162.577 63.088 162.87 63.7973 163.457 64.288C164.054 64.768 164.763 65.008 165.585 65.008C166.438 65.008 167.211 64.8 167.905 64.384V65.664C167.179 66.016 166.347 66.192 165.409 66.192C164.299 66.192 163.334 65.8453 162.513 65.152C161.702 64.4587 161.297 63.472 161.297 62.192ZM176.819 66H175.315L172.499 62.704H170.995V66H169.715V54.8H170.995V61.52H172.547L174.979 58.32H176.467L173.555 62.144L176.819 66Z" fill="#111111"/>
<circle cx="21.5" cy="59.5" r="6.5" fill="#111111"/>
<path d="M17.9995 59.5009L20.4995 62.0009L25.4995 57.0009" stroke="white"/>
<circle cx="39" cy="124" r="17.5" fill="white" stroke="#111111"/>
<g clip-path="url(#clip0_1_3810)">
<path d="M35.5046 121.451L35.5046 121.451C36.5114 120.616 37.4287 119.857 38.0955 119.306C38.4289 119.031 38.6999 118.807 38.8884 118.653C38.9825 118.575 39.0566 118.515 39.1077 118.473C39.1331 118.453 39.1539 118.436 39.1692 118.424C39.1764 118.418 39.1846 118.412 39.1922 118.406C39.1953 118.403 39.2026 118.398 39.2112 118.392C39.2147 118.389 39.2253 118.382 39.2392 118.373C39.2454 118.37 39.2612 118.36 39.2824 118.35C39.2935 118.345 39.3215 118.333 39.3386 118.327C39.3666 118.318 39.4477 118.302 39.5009 118.3C39.554 118.302 39.6351 118.318 39.6631 118.327C39.6802 118.333 39.7083 118.345 39.7193 118.35C39.7405 118.36 39.7563 118.37 39.7625 118.373C39.7764 118.382 39.787 118.389 39.7905 118.392C39.7992 118.398 39.8064 118.403 39.8095 118.406C39.8171 118.412 39.8253 118.418 39.8325 118.424C39.8478 118.436 39.8686 118.453 39.894 118.473C39.9451 118.515 40.0192 118.575 40.1133 118.653C40.3018 118.807 40.5728 119.031 40.9062 119.306C41.573 119.857 42.4903 120.616 43.4971 121.451L43.1779 121.836L43.4971 121.451C44.5032 122.286 45.4253 123.047 46.1002 123.6C46.4377 123.877 46.7128 124.101 46.9054 124.257C46.9395 124.285 46.9708 124.31 46.9993 124.333C47.0483 124.278 47.1136 124.203 47.2026 124.098C47.2826 124.004 47.3572 123.912 47.418 123.835C47.2604 123.687 46.9738 123.448 46.4502 123.014L45.2726 122.038L45.0933 121.89L45.0916 121.657L45.075 119.438L45.0607 117.528L44.2998 117.521C43.9536 117.518 43.6815 117.518 43.4882 117.522C43.4529 117.523 43.4209 117.524 43.3919 117.525C43.3904 117.557 43.389 117.595 43.3877 117.638C43.3829 117.802 43.381 118.022 43.3786 118.325L43.3698 119.403L43.3613 120.457L42.5504 119.784L41.1972 118.66C41.1972 118.66 41.1972 118.66 41.1972 118.66C40.4591 118.047 40.1119 117.761 39.8966 117.617C39.7976 117.551 39.7524 117.533 39.7293 117.526C39.7035 117.517 39.6743 117.512 39.5729 117.503L39.5729 117.503L35.5046 121.451ZM35.5046 121.451C34.4985 122.286 33.5765 123.047 32.9016 123.6C32.564 123.877 32.2889 124.101 32.0963 124.257C32.0622 124.285 32.0309 124.31 32.0024 124.333M35.5046 121.451L32.0024 124.333M39.1708 117.565C39.1927 117.556 39.2217 117.545 39.2543 117.533C39.276 117.526 39.2963 117.52 39.3133 117.515C39.3218 117.513 39.3287 117.511 39.3341 117.51L39.3403 117.508C39.3416 117.508 39.3424 117.508 39.3425 117.508L39.1708 117.565ZM39.1708 117.565C39.1588 117.574 39.1423 117.587 39.1207 117.603C39.066 117.645 38.9883 117.706 38.888 117.786C38.6881 117.945 38.4058 118.173 38.0536 118.46C37.3497 119.035 36.3712 119.841 35.2233 120.794C35.1186 120.881 35.0167 120.965 34.9176 121.048C33.0903 122.564 32.1907 123.311 31.7516 123.704C31.6881 123.761 31.6365 123.808 31.5944 123.848C31.6532 123.923 31.7238 124.009 31.7991 124.098L39.1708 117.565ZM32.0024 124.333C31.9534 124.278 31.8882 124.203 31.7992 124.098L32.0024 124.333ZM43.4094 117.339C43.4094 117.339 43.4092 117.34 43.4087 117.341C43.4091 117.339 43.4094 117.339 43.4094 117.339ZM43.2185 117.537C43.2185 117.537 43.2197 117.537 43.2225 117.536C43.22 117.537 43.2186 117.537 43.2185 117.537ZM36.772 122.593L36.772 122.593C37.6041 121.911 38.3636 121.292 38.9167 120.844C39.1566 120.65 39.3571 120.489 39.5075 120.369C39.6589 120.492 39.8614 120.656 40.1039 120.854C40.6555 121.304 41.4125 121.923 42.2417 122.603L45.0749 124.927L45.0742 127.302C45.0739 128.54 45.0728 129.187 45.0648 129.542C45.0605 129.732 45.0534 129.819 45.0499 129.852C45.0484 129.854 45.0467 129.856 45.0447 129.858C45.0354 129.87 45.0226 129.883 45.0071 129.896C44.9834 129.916 44.9625 129.927 44.9494 129.933C44.927 129.935 44.8935 129.937 44.847 129.939C44.7513 129.943 44.6149 129.946 44.4357 129.949C44.0782 129.955 43.5628 129.958 42.8883 129.958H41.3617V128.443V126.429V125.929H40.8617H39.5009H38.14H37.64V126.429V128.443V129.958H36.1134C35.4027 129.958 34.8883 129.955 34.5394 129.949C34.3645 129.946 34.2349 129.942 34.1446 129.938C34.0938 129.936 34.0645 129.933 34.0507 129.932C34.0479 129.931 34.0446 129.929 34.0406 129.926C34.0242 129.917 34.0048 129.902 33.9858 129.884C33.9713 129.871 33.9599 129.858 33.9517 129.847C33.9502 129.823 33.9485 129.79 33.9469 129.747C33.9426 129.634 33.9388 129.469 33.9359 129.247C33.9299 128.806 33.927 128.154 33.9269 127.269L33.9268 124.927L36.772 122.593ZM44.9693 129.931C44.9699 129.931 44.9703 129.931 44.9704 129.931L44.9693 129.931ZM33.9555 129.894C33.9555 129.894 33.9554 129.893 33.9552 129.891L33.9555 129.894ZM39.1867 117.554C39.1894 117.552 39.1907 117.551 39.1906 117.551C39.1906 117.552 39.1892 117.552 39.1867 117.554Z" stroke="#111111"/>
</g>
<path d="M78.184 118H76.36V106.8H80.84C81.3947 106.8 81.912 106.859 82.392 106.976C82.8827 107.093 83.3413 107.285 83.768 107.552C84.1947 107.808 84.5307 108.171 84.776 108.64C85.0213 109.109 85.144 109.664 85.144 110.304C85.144 111.243 84.8933 111.984 84.392 112.528C83.8907 113.061 83.2347 113.424 82.424 113.616L86.008 118H83.816L80.456 113.808H78.184V118ZM78.184 108.464V112.192H80.92C81.6027 112.192 82.168 112.048 82.616 111.76C83.064 111.472 83.288 110.997 83.288 110.336C83.288 109.675 83.064 109.2 82.616 108.912C82.168 108.613 81.6027 108.464 80.92 108.464H78.184ZM87.942 114.16C87.942 113.499 88.0593 112.901 88.294 112.368C88.5287 111.824 88.838 111.397 89.222 111.088C89.606 110.768 90.022 110.528 90.47 110.368C90.918 110.197 91.3713 110.112 91.83 110.112C92.4167 110.112 92.9447 110.203 93.414 110.384C93.894 110.565 94.278 110.811 94.566 111.12C94.854 111.429 95.0887 111.787 95.27 112.192C95.4513 112.597 95.5473 113.024 95.558 113.472C95.5687 113.909 95.5313 114.352 95.446 114.8H89.67C89.7553 115.451 90.0753 115.941 90.63 116.272C91.1847 116.592 91.846 116.752 92.614 116.752C93.4887 116.752 94.2993 116.571 95.046 116.208V117.68C94.31 118.032 93.3927 118.208 92.294 118.208C91.046 118.208 90.006 117.856 89.174 117.152C88.3527 116.448 87.942 115.451 87.942 114.16ZM93.91 113.52C93.974 113.083 93.8407 112.645 93.51 112.208C93.19 111.76 92.6567 111.536 91.91 111.536C91.302 111.536 90.7793 111.712 90.342 112.064C89.9153 112.416 89.686 112.901 89.654 113.52H93.91ZM100.308 111.376C101.012 110.533 101.902 110.112 102.98 110.112C103.94 110.112 104.708 110.405 105.284 110.992C105.86 111.568 106.148 112.32 106.148 113.248V118H104.436V113.472C104.436 112.875 104.27 112.421 103.94 112.112C103.609 111.792 103.177 111.632 102.644 111.632C101.801 111.632 101.086 112.059 100.5 112.912V118H98.7876V110.32H100.308V111.376ZM110.291 108L111.987 107.584V110.32H114.771V111.824H111.987V115.344C111.987 115.835 112.099 116.181 112.323 116.384C112.558 116.587 112.931 116.688 113.443 116.688C113.966 116.688 114.483 116.587 114.995 116.384V117.856C114.377 118.08 113.689 118.192 112.931 118.192C112.142 118.192 111.502 117.984 111.011 117.568C110.531 117.152 110.291 116.517 110.291 115.664V111.824H108.915V110.32H110.291V108Z" fill="#111111"/>
<path d="M81.678 135.7H82.326V142H81.57V137.131L79.311 140.515H78.843L76.584 137.131V142H75.828V135.7H76.476L79.077 139.588L81.678 135.7ZM85.0126 141.505C84.5566 141.097 84.3286 140.542 84.3286 139.84C84.3286 139.138 84.5566 138.586 85.0126 138.184C85.4686 137.776 86.0086 137.572 86.6326 137.572C87.2626 137.572 87.8026 137.776 88.2526 138.184C88.7086 138.586 88.9366 139.138 88.9366 139.84C88.9366 140.542 88.7086 141.097 88.2526 141.505C87.8026 141.907 87.2626 142.108 86.6326 142.108C86.0086 142.108 85.4686 141.907 85.0126 141.505ZM87.7666 141.001C88.0666 140.713 88.2166 140.326 88.2166 139.84C88.2166 139.354 88.0666 138.97 87.7666 138.688C87.4666 138.4 87.0886 138.256 86.6326 138.256C86.1766 138.256 85.7986 138.4 85.4986 138.688C85.1986 138.97 85.0486 139.354 85.0486 139.84C85.0486 140.326 85.1986 140.713 85.4986 141.001C85.7986 141.283 86.1766 141.424 86.6326 141.424C87.0886 141.424 87.4666 141.283 87.7666 141.001ZM91.5173 138.319C91.6733 138.109 91.8893 137.932 92.1653 137.788C92.4473 137.644 92.7503 137.572 93.0743 137.572C93.5963 137.572 94.0253 137.737 94.3613 138.067C94.7033 138.391 94.8743 138.814 94.8743 139.336V142H94.1543V139.426C94.1543 139.036 94.0463 138.742 93.8303 138.544C93.6203 138.34 93.3413 138.238 92.9933 138.238C92.4413 138.238 91.9733 138.526 91.5893 139.102V142H90.8693V137.68H91.5173V138.319ZM97.2868 136.339L97.9978 136.159V137.68H99.7258V138.346H97.9978V140.578C97.9978 140.896 98.0698 141.118 98.2138 141.244C98.3638 141.37 98.6008 141.433 98.9248 141.433C99.2368 141.433 99.5548 141.367 99.8788 141.235V141.901C99.5128 142.033 99.1258 142.099 98.7178 142.099C98.2798 142.099 97.9318 141.982 97.6738 141.748C97.4158 141.508 97.2868 141.16 97.2868 140.704V138.346H96.4768V137.68H97.2868V136.339ZM101.59 135.7H102.31V138.229C102.478 138.043 102.691 137.887 102.949 137.761C103.213 137.635 103.495 137.572 103.795 137.572C104.317 137.572 104.746 137.737 105.082 138.067C105.424 138.391 105.595 138.814 105.595 139.336V142H104.875V139.426C104.875 139.036 104.767 138.742 104.551 138.544C104.341 138.34 104.062 138.238 103.714 138.238C103.162 138.238 102.694 138.526 102.31 139.102V142H101.59V135.7ZM107.79 135.43H108.51V142H107.79V135.43ZM112.582 141.181L114.04 137.68H114.805L112.681 142.648C112.267 143.608 111.724 144.088 111.052 144.088C110.89 144.088 110.734 144.067 110.584 144.025V143.404C110.71 143.44 110.836 143.458 110.962 143.458C111.424 143.458 111.796 143.107 112.078 142.405L112.24 142.009L110.188 137.68H110.953L112.582 141.181ZM119.312 139.426H122.525V140.11H119.312V139.426ZM128.46 138.319C128.616 138.109 128.832 137.932 129.108 137.788C129.39 137.644 129.693 137.572 130.017 137.572C130.539 137.572 130.968 137.737 131.304 138.067C131.646 138.391 131.817 138.814 131.817 139.336V142H131.097V139.426C131.097 139.036 130.989 138.742 130.773 138.544C130.563 138.34 130.284 138.238 129.936 138.238C129.384 138.238 128.916 138.526 128.532 139.102V142H127.812V137.68H128.46V138.319ZM133.697 139.84C133.697 139.132 133.913 138.577 134.345 138.175C134.783 137.773 135.284 137.572 135.848 137.572C136.376 137.572 136.811 137.704 137.153 137.968C137.501 138.232 137.729 138.559 137.837 138.949C137.945 139.333 137.951 139.735 137.855 140.155H134.417C134.459 140.581 134.648 140.902 134.984 141.118C135.32 141.334 135.725 141.442 136.199 141.442C136.727 141.442 137.201 141.325 137.621 141.091V141.793C137.219 142.003 136.709 142.108 136.091 142.108C135.407 142.108 134.837 141.913 134.381 141.523C133.925 141.133 133.697 140.572 133.697 139.84ZM137.216 139.525C137.234 139.399 137.225 139.267 137.189 139.129C137.153 138.991 137.087 138.853 136.991 138.715C136.901 138.577 136.76 138.463 136.568 138.373C136.376 138.283 136.151 138.238 135.893 138.238C135.503 138.238 135.164 138.352 134.876 138.58C134.594 138.808 134.441 139.123 134.417 139.525H137.216ZM142.454 137.68H143.282L141.698 139.777L143.372 142H142.544L141.284 140.29L140.015 142H139.187L140.87 139.777L139.277 137.68H140.105L141.284 139.273L142.454 137.68ZM145.337 136.339L146.048 136.159V137.68H147.776V138.346H146.048V140.578C146.048 140.896 146.12 141.118 146.264 141.244C146.414 141.37 146.651 141.433 146.975 141.433C147.287 141.433 147.605 141.367 147.929 141.235V141.901C147.563 142.033 147.176 142.099 146.768 142.099C146.33 142.099 145.982 141.982 145.724 141.748C145.466 141.508 145.337 141.16 145.337 140.704V138.346H144.527V137.68H145.337V136.339ZM153.168 141.505C152.712 141.097 152.484 140.542 152.484 139.84C152.484 139.138 152.712 138.586 153.168 138.184C153.624 137.776 154.164 137.572 154.788 137.572C155.418 137.572 155.958 137.776 156.408 138.184C156.864 138.586 157.092 139.138 157.092 139.84C157.092 140.542 156.864 141.097 156.408 141.505C155.958 141.907 155.418 142.108 154.788 142.108C154.164 142.108 153.624 141.907 153.168 141.505ZM155.922 141.001C156.222 140.713 156.372 140.326 156.372 139.84C156.372 139.354 156.222 138.97 155.922 138.688C155.622 138.4 155.244 138.256 154.788 138.256C154.332 138.256 153.954 138.4 153.654 138.688C153.354 138.97 153.204 139.354 153.204 139.84C153.204 140.326 153.354 140.713 153.654 141.001C153.954 141.283 154.332 141.424 154.788 141.424C155.244 141.424 155.622 141.283 155.922 141.001ZM159.673 138.319C159.829 138.109 160.045 137.932 160.321 137.788C160.603 137.644 160.906 137.572 161.23 137.572C161.752 137.572 162.181 137.737 162.517 138.067C162.859 138.391 163.03 138.814 163.03 139.336V142H162.31V139.426C162.31 139.036 162.202 138.742 161.986 138.544C161.776 138.34 161.497 138.238 161.149 138.238C160.597 138.238 160.129 138.526 159.745 139.102V142H159.025V137.68H159.673V138.319ZM172.272 137.437C172.272 137.749 172.188 138.031 172.02 138.283C171.858 138.529 171.645 138.697 171.381 138.787C171.693 138.883 171.96 139.06 172.182 139.318C172.41 139.57 172.524 139.909 172.524 140.335C172.524 140.905 172.311 141.343 171.885 141.649C171.465 141.955 170.931 142.108 170.283 142.108C169.461 142.108 168.75 141.973 168.15 141.703V140.956C168.732 141.256 169.422 141.403 170.22 141.397C171.27 141.397 171.795 141.031 171.795 140.299C171.795 139.567 171.297 139.201 170.301 139.201H169.365V138.481L170.22 138.49C170.652 138.49 170.979 138.4 171.201 138.22C171.429 138.034 171.543 137.794 171.543 137.5C171.543 137.182 171.417 136.933 171.165 136.753C170.913 136.567 170.556 136.474 170.094 136.474C169.458 136.474 168.846 136.63 168.258 136.942V136.204C168.822 135.916 169.467 135.772 170.193 135.772C170.817 135.772 171.318 135.925 171.696 136.231C172.08 136.537 172.272 136.939 172.272 137.437ZM178.098 135.7H180.708V140.218C180.708 140.848 180.516 141.319 180.132 141.631C179.754 141.937 179.256 142.09 178.638 142.09C177.972 142.09 177.432 141.961 177.018 141.703V140.947C177.42 141.229 177.915 141.37 178.503 141.37C179.469 141.37 179.952 140.977 179.952 140.191V136.42H178.098V135.7ZM186.206 137.68H186.926V142H186.278V141.361C186.122 141.571 185.903 141.748 185.621 141.892C185.345 142.036 185.045 142.108 184.721 142.108C184.163 142.108 183.722 141.949 183.398 141.631C183.08 141.307 182.921 140.878 182.921 140.344V137.68H183.641V140.254C183.641 141.046 184.028 141.442 184.802 141.442C185.354 141.442 185.822 141.154 186.206 140.578V137.68ZM189.175 135.43H189.895V142H189.175V135.43Z" fill="#888888"/>
<path d="M259.072 131.08H257.952V129.16C256.715 129.043 255.653 128.733 254.768 128.232V126.888C255.888 127.571 257.189 127.912 258.672 127.912C260.485 127.912 261.392 127.357 261.392 126.248C261.392 125.843 261.269 125.501 261.024 125.224C260.789 124.936 260.475 124.712 260.08 124.552C259.696 124.392 259.269 124.248 258.8 124.12C258.331 123.992 257.861 123.853 257.392 123.704C256.923 123.544 256.491 123.363 256.096 123.16C255.712 122.947 255.397 122.648 255.152 122.264C254.917 121.88 254.8 121.421 254.8 120.888C254.8 120.045 255.093 119.373 255.68 118.872C256.267 118.371 257.024 118.067 257.952 117.96V116.04H259.072V117.944C260.235 118.008 261.221 118.275 262.032 118.744V120.088C261.093 119.48 259.995 119.187 258.736 119.208C257.019 119.208 256.16 119.752 256.16 120.84C256.16 121.224 256.277 121.549 256.512 121.816C256.757 122.083 257.072 122.291 257.456 122.44C257.851 122.589 258.283 122.728 258.752 122.856C259.221 122.973 259.691 123.112 260.16 123.272C260.629 123.432 261.056 123.619 261.44 123.832C261.835 124.045 262.149 124.349 262.384 124.744C262.629 125.139 262.752 125.608 262.752 126.152C262.752 127.155 262.411 127.907 261.728 128.408C261.045 128.899 260.16 129.16 259.072 129.192V131.08ZM266.736 118.12H267.728V127.72H269.76V129H264.096V127.72H266.384V119.544L264.096 120.408V119.128L266.736 118.12ZM271.419 131.4H270.379L271.259 127.72H272.619L271.419 131.4ZM274.629 118.984C275.643 118.28 276.805 117.928 278.117 117.928C279.248 117.928 280.149 118.184 280.821 118.696C281.493 119.208 281.829 119.923 281.829 120.84C281.829 121.277 281.744 121.688 281.573 122.072C281.413 122.456 281.168 122.808 280.837 123.128C280.517 123.448 280.203 123.72 279.893 123.944C279.595 124.157 279.216 124.397 278.757 124.664C278.704 124.696 278.539 124.792 278.261 124.952C277.995 125.112 277.824 125.213 277.749 125.256C277.685 125.299 277.536 125.395 277.301 125.544C277.077 125.683 276.928 125.784 276.853 125.848C276.789 125.912 276.672 126.013 276.501 126.152C276.341 126.291 276.229 126.408 276.165 126.504C276.112 126.6 276.037 126.723 275.941 126.872C275.856 127.011 275.797 127.149 275.765 127.288C275.733 127.427 275.717 127.576 275.717 127.736L281.909 127.72V129H274.245V128.36C274.245 127.763 274.341 127.224 274.533 126.744C274.725 126.253 274.997 125.837 275.349 125.496C275.712 125.144 276.069 124.851 276.421 124.616C276.773 124.371 277.184 124.109 277.653 123.832C277.76 123.779 277.84 123.736 277.893 123.704C278.864 123.139 279.499 122.707 279.797 122.408C280.256 121.939 280.485 121.411 280.485 120.824C280.485 120.291 280.267 119.885 279.829 119.608C279.403 119.32 278.795 119.176 278.005 119.176C276.853 119.176 275.728 119.56 274.629 120.328V118.984ZM284.681 127.64C283.87 126.605 283.465 125.245 283.465 123.56C283.465 121.875 283.87 120.515 284.681 119.48C285.491 118.445 286.686 117.928 288.265 117.928C289.854 117.928 291.054 118.445 291.865 119.48C292.675 120.504 293.081 121.864 293.081 123.56C293.081 125.256 292.675 126.621 291.865 127.656C291.054 128.68 289.854 129.192 288.265 129.192C286.686 129.192 285.491 128.675 284.681 127.64ZM290.857 126.792C291.433 126.035 291.721 124.957 291.721 123.56C291.721 122.163 291.433 121.091 290.857 120.344C290.291 119.587 289.427 119.208 288.265 119.208C287.102 119.208 286.238 119.587 285.673 120.344C285.107 121.091 284.825 122.163 284.825 123.56C284.825 124.957 285.107 126.035 285.673 126.792C286.238 127.539 287.102 127.912 288.265 127.912C289.427 127.912 290.291 127.539 290.857 126.792ZM295.851 127.64C295.04 126.605 294.635 125.245 294.635 123.56C294.635 121.875 295.04 120.515 295.851 119.48C296.661 118.445 297.856 117.928 299.435 117.928C301.024 117.928 302.224 118.445 303.035 119.48C303.845 120.504 304.251 121.864 304.251 123.56C304.251 125.256 303.845 126.621 303.035 127.656C302.224 128.68 301.024 129.192 299.435 129.192C297.856 129.192 296.661 128.675 295.851 127.64ZM302.027 126.792C302.603 126.035 302.891 124.957 302.891 123.56C302.891 122.163 302.603 121.091 302.027 120.344C301.461 119.587 300.597 119.208 299.435 119.208C298.272 119.208 297.408 119.587 296.843 120.344C296.277 121.091 295.995 122.163 295.995 123.56C295.995 124.957 296.277 126.035 296.843 126.792C297.408 127.539 298.272 127.912 299.435 127.912C300.597 127.912 301.461 127.539 302.027 126.792Z" fill="#111111"/>
<path d="M89.304 167.8H91.304L87.8 179H85.8L83.24 170.648L80.68 179H78.68L75.192 167.8H77.176L79.72 176.856L82.44 167.8H84.056L86.776 176.856L89.304 167.8ZM99.966 177.224C99.966 177.597 100.153 177.784 100.526 177.784C100.654 177.784 100.825 177.752 101.038 177.688V178.92C100.718 179.048 100.355 179.112 99.95 179.112C99.182 179.112 98.67 178.813 98.414 178.216C97.5927 178.877 96.6273 179.208 95.518 179.208C94.7713 179.208 94.1367 179.005 93.614 178.6C93.0913 178.184 92.83 177.603 92.83 176.856C92.83 175.96 93.166 175.309 93.838 174.904C94.51 174.488 95.3153 174.28 96.254 174.28C96.8727 174.28 97.5393 174.355 98.254 174.504V174.232C98.254 173.741 98.078 173.347 97.726 173.048C97.374 172.749 96.878 172.6 96.238 172.6C95.2887 172.6 94.366 172.797 93.47 173.192V171.624C94.4727 171.283 95.454 171.112 96.414 171.112C97.534 171.112 98.4033 171.389 99.022 171.944C99.6513 172.499 99.966 173.341 99.966 174.472V177.224ZM96.59 175.48C96.0247 175.48 95.55 175.581 95.166 175.784C94.782 175.987 94.59 176.307 94.59 176.744C94.59 177.107 94.7287 177.389 95.006 177.592C95.2833 177.784 95.6247 177.88 96.03 177.88C96.9047 177.88 97.646 177.576 98.254 176.968V175.672C97.6353 175.544 97.0807 175.48 96.59 175.48ZM104.301 169L105.997 168.584V171.32H108.781V172.824H105.997V176.344C105.997 176.835 106.109 177.181 106.333 177.384C106.567 177.587 106.941 177.688 107.453 177.688C107.975 177.688 108.493 177.587 109.005 177.384V178.856C108.386 179.08 107.698 179.192 106.941 179.192C106.151 179.192 105.511 178.984 105.021 178.568C104.541 178.152 104.301 177.517 104.301 176.664V172.824H102.925V171.32H104.301V169ZM111.517 175.16C111.517 174.499 111.634 173.901 111.869 173.368C112.104 172.824 112.413 172.397 112.797 172.088C113.181 171.768 113.597 171.528 114.045 171.368C114.493 171.197 114.946 171.112 115.405 171.112C115.992 171.112 116.52 171.203 116.989 171.384C117.469 171.565 117.853 171.811 118.141 172.12C118.429 172.429 118.664 172.787 118.845 173.192C119.026 173.597 119.122 174.024 119.133 174.472C119.144 174.909 119.106 175.352 119.021 175.8H113.245C113.33 176.451 113.65 176.941 114.205 177.272C114.76 177.592 115.421 177.752 116.189 177.752C117.064 177.752 117.874 177.571 118.621 177.208V178.68C117.885 179.032 116.968 179.208 115.869 179.208C114.621 179.208 113.581 178.856 112.749 178.152C111.928 177.448 111.517 176.451 111.517 175.16ZM117.485 174.52C117.549 174.083 117.416 173.645 117.085 173.208C116.765 172.76 116.232 172.536 115.485 172.536C114.877 172.536 114.354 172.712 113.917 173.064C113.49 173.416 113.261 173.901 113.229 174.52H117.485ZM123.883 172.584C124.181 172.104 124.624 171.731 125.211 171.464C125.797 171.197 126.432 171.096 127.115 171.16V172.84C126.432 172.744 125.813 172.835 125.259 173.112C124.704 173.389 124.309 173.8 124.075 174.344V179H122.363V171.32H123.883V172.584Z" fill="#111111"/>
<path d="M81.678 196.7H82.326V203H81.57V198.131L79.311 201.515H78.843L76.584 198.131V203H75.828V196.7H76.476L79.077 200.588L81.678 196.7ZM85.0126 202.505C84.5566 202.097 84.3286 201.542 84.3286 200.84C84.3286 200.138 84.5566 199.586 85.0126 199.184C85.4686 198.776 86.0086 198.572 86.6326 198.572C87.2626 198.572 87.8026 198.776 88.2526 199.184C88.7086 199.586 88.9366 200.138 88.9366 200.84C88.9366 201.542 88.7086 202.097 88.2526 202.505C87.8026 202.907 87.2626 203.108 86.6326 203.108C86.0086 203.108 85.4686 202.907 85.0126 202.505ZM87.7666 202.001C88.0666 201.713 88.2166 201.326 88.2166 200.84C88.2166 200.354 88.0666 199.97 87.7666 199.688C87.4666 199.4 87.0886 199.256 86.6326 199.256C86.1766 199.256 85.7986 199.4 85.4986 199.688C85.1986 199.97 85.0486 200.354 85.0486 200.84C85.0486 201.326 85.1986 201.713 85.4986 202.001C85.7986 202.283 86.1766 202.424 86.6326 202.424C87.0886 202.424 87.4666 202.283 87.7666 202.001ZM91.5173 199.319C91.6733 199.109 91.8893 198.932 92.1653 198.788C92.4473 198.644 92.7503 198.572 93.0743 198.572C93.5963 198.572 94.0253 198.737 94.3613 199.067C94.7033 199.391 94.8743 199.814 94.8743 200.336V203H94.1543V200.426C94.1543 200.036 94.0463 199.742 93.8303 199.544C93.6203 199.34 93.3413 199.238 92.9933 199.238C92.4413 199.238 91.9733 199.526 91.5893 200.102V203H90.8693V198.68H91.5173V199.319ZM97.2868 197.339L97.9978 197.159V198.68H99.7258V199.346H97.9978V201.578C97.9978 201.896 98.0698 202.118 98.2138 202.244C98.3638 202.37 98.6008 202.433 98.9248 202.433C99.2368 202.433 99.5548 202.367 99.8788 202.235V202.901C99.5128 203.033 99.1258 203.099 98.7178 203.099C98.2798 203.099 97.9318 202.982 97.6738 202.748C97.4158 202.508 97.2868 202.16 97.2868 201.704V199.346H96.4768V198.68H97.2868V197.339ZM101.59 196.7H102.31V199.229C102.478 199.043 102.691 198.887 102.949 198.761C103.213 198.635 103.495 198.572 103.795 198.572C104.317 198.572 104.746 198.737 105.082 199.067C105.424 199.391 105.595 199.814 105.595 200.336V203H104.875V200.426C104.875 200.036 104.767 199.742 104.551 199.544C104.341 199.34 104.062 199.238 103.714 199.238C103.162 199.238 102.694 199.526 102.31 200.102V203H101.59V196.7ZM107.79 196.43H108.51V203H107.79V196.43ZM112.582 202.181L114.04 198.68H114.805L112.681 203.648C112.267 204.608 111.724 205.088 111.052 205.088C110.89 205.088 110.734 205.067 110.584 205.025V204.404C110.71 204.44 110.836 204.458 110.962 204.458C111.424 204.458 111.796 204.107 112.078 203.405L112.24 203.009L110.188 198.68H110.953L112.582 202.181ZM119.312 200.426H122.525V201.11H119.312V200.426ZM128.46 199.319C128.616 199.109 128.832 198.932 129.108 198.788C129.39 198.644 129.693 198.572 130.017 198.572C130.539 198.572 130.968 198.737 131.304 199.067C131.646 199.391 131.817 199.814 131.817 200.336V203H131.097V200.426C131.097 200.036 130.989 199.742 130.773 199.544C130.563 199.34 130.284 199.238 129.936 199.238C129.384 199.238 128.916 199.526 128.532 200.102V203H127.812V198.68H128.46V199.319ZM133.697 200.84C133.697 200.132 133.913 199.577 134.345 199.175C134.783 198.773 135.284 198.572 135.848 198.572C136.376 198.572 136.811 198.704 137.153 198.968C137.501 199.232 137.729 199.559 137.837 199.949C137.945 200.333 137.951 200.735 137.855 201.155H134.417C134.459 201.581 134.648 201.902 134.984 202.118C135.32 202.334 135.725 202.442 136.199 202.442C136.727 202.442 137.201 202.325 137.621 202.091V202.793C137.219 203.003 136.709 203.108 136.091 203.108C135.407 203.108 134.837 202.913 134.381 202.523C133.925 202.133 133.697 201.572 133.697 200.84ZM137.216 200.525C137.234 200.399 137.225 200.267 137.189 200.129C137.153 199.991 137.087 199.853 136.991 199.715C136.901 199.577 136.76 199.463 136.568 199.373C136.376 199.283 136.151 199.238 135.893 199.238C135.503 199.238 135.164 199.352 134.876 199.58C134.594 199.808 134.441 200.123 134.417 200.525H137.216ZM142.454 198.68H143.282L141.698 200.777L143.372 203H142.544L141.284 201.29L140.015 203H139.187L140.87 200.777L139.277 198.68H140.105L141.284 200.273L142.454 198.68ZM145.337 197.339L146.048 197.159V198.68H147.776V199.346H146.048V201.578C146.048 201.896 146.12 202.118 146.264 202.244C146.414 202.37 146.651 202.433 146.975 202.433C147.287 202.433 147.605 202.367 147.929 202.235V202.901C147.563 203.033 147.176 203.099 146.768 203.099C146.33 203.099 145.982 202.982 145.724 202.748C145.466 202.508 145.337 202.16 145.337 201.704V199.346H144.527V198.68H145.337V197.339ZM153.168 202.505C152.712 202.097 152.484 201.542 152.484 200.84C152.484 200.138 152.712 199.586 153.168 199.184C153.624 198.776 154.164 198.572 154.788 198.572C155.418 198.572 155.958 198.776 156.408 199.184C156.864 199.586 157.092 200.138 157.092 200.84C157.092 201.542 156.864 202.097 156.408 202.505C155.958 202.907 155.418 203.108 154.788 203.108C154.164 203.108 153.624 202.907 153.168 202.505ZM155.922 202.001C156.222 201.713 156.372 201.326 156.372 200.84C156.372 200.354 156.222 199.97 155.922 199.688C155.622 199.4 155.244 199.256 154.788 199.256C154.332 199.256 153.954 199.4 153.654 199.688C153.354 199.97 153.204 200.354 153.204 200.84C153.204 201.326 153.354 201.713 153.654 202.001C153.954 202.283 154.332 202.424 154.788 202.424C155.244 202.424 155.622 202.283 155.922 202.001ZM159.673 199.319C159.829 199.109 160.045 198.932 160.321 198.788C160.603 198.644 160.906 198.572 161.23 198.572C161.752 198.572 162.181 198.737 162.517 199.067C162.859 199.391 163.03 199.814 163.03 200.336V203H162.31V200.426C162.31 200.036 162.202 199.742 161.986 199.544C161.776 199.34 161.497 199.238 161.149 199.238C160.597 199.238 160.129 199.526 159.745 200.102V203H159.025V198.68H159.673V199.319ZM172.272 198.437C172.272 198.749 172.188 199.031 172.02 199.283C171.858 199.529 171.645 199.697 171.381 199.787C171.693 199.883 171.96 200.06 172.182 200.318C172.41 200.57 172.524 200.909 172.524 201.335C172.524 201.905 172.311 202.343 171.885 202.649C171.465 202.955 170.931 203.108 170.283 203.108C169.461 203.108 168.75 202.973 168.15 202.703V201.956C168.732 202.256 169.422 202.403 170.22 202.397C171.27 202.397 171.795 202.031 171.795 201.299C171.795 200.567 171.297 200.201 170.301 200.201H169.365V199.481L170.22 199.49C170.652 199.49 170.979 199.4 171.201 199.22C171.429 199.034 171.543 198.794 171.543 198.5C171.543 198.182 171.417 197.933 171.165 197.753C170.913 197.567 170.556 197.474 170.094 197.474C169.458 197.474 168.846 197.63 168.258 197.942V197.204C168.822 196.916 169.467 196.772 170.193 196.772C170.817 196.772 171.318 196.925 171.696 197.231C172.08 197.537 172.272 197.939 172.272 198.437ZM178.098 196.7H180.708V201.218C180.708 201.848 180.516 202.319 180.132 202.631C179.754 202.937 179.256 203.09 178.638 203.09C177.972 203.09 177.432 202.961 177.018 202.703V201.947C177.42 202.229 177.915 202.37 178.503 202.37C179.469 202.37 179.952 201.977 179.952 201.191V197.42H178.098V196.7ZM186.206 198.68H186.926V203H186.278V202.361C186.122 202.571 185.903 202.748 185.621 202.892C185.345 203.036 185.045 203.108 184.721 203.108C184.163 203.108 183.722 202.949 183.398 202.631C183.08 202.307 182.921 201.878 182.921 201.344V198.68H183.641V201.254C183.641 202.046 184.028 202.442 184.802 202.442C185.354 202.442 185.822 202.154 186.206 201.578V198.68ZM189.175 196.43H189.895V203H189.175V196.43Z" fill="#888888"/>
<circle cx="39" cy="185" r="17.5" stroke="#111111"/>
<path d="M43.0818 179.711C43.0828 179.713 43.0838 179.714 43.0849 179.716C43.3226 180.066 43.6369 180.534 43.9534 181.009C44.2699 181.484 44.5878 181.965 44.8329 182.339C44.9555 182.526 45.0591 182.686 45.135 182.805C45.1967 182.901 45.2296 182.955 45.2424 182.976L43.0818 179.711ZM43.0818 179.711C42.8603 180.033 42.5675 180.464 42.2497 180.937C41.9142 181.437 41.594 181.921 41.3488 182.297C41.2261 182.485 41.1228 182.645 41.046 182.766C41.0075 182.827 40.9764 182.877 40.9532 182.915C40.9416 182.934 40.9326 182.949 40.9259 182.96C40.9205 182.97 40.9179 182.974 40.9172 182.975C40.917 182.976 40.917 182.976 40.9172 182.976C40.6362 183.514 40.5816 184.27 40.785 184.856L43.0818 179.711ZM36.8765 180.129C38.0899 178.317 38.7382 177.349 39.0909 176.839C39.0965 176.848 39.1022 176.856 39.1079 176.865C39.3221 177.183 39.5996 177.597 39.8754 178.01C40.1511 178.423 40.4248 178.834 40.6314 179.145C40.7079 179.26 40.775 179.362 40.8296 179.444C40.8252 179.451 40.8207 179.459 40.816 179.466C40.6909 179.668 40.4771 179.994 40.1346 180.506C39.2074 181.894 39.0701 182.112 38.8929 182.644C38.1929 184.746 39.1443 187.068 41.1183 188.053L41.3414 187.605L41.1183 188.053C42.176 188.58 43.3847 188.654 44.4901 188.277C44.4494 188.438 44.405 188.594 44.3625 188.719C43.6825 190.709 41.9862 192.128 39.8688 192.465C39.7366 192.486 39.4336 192.5 39.0952 192.5C38.7572 192.5 38.4518 192.486 38.3157 192.464L38.3157 192.464C38.1773 192.443 37.9155 192.389 37.7443 192.347C35.7578 191.857 34.1782 190.281 33.6629 188.26L33.1787 188.384L33.6629 188.26C33.4084 187.262 33.4526 186.123 33.7925 185.091L33.3181 184.935L33.7925 185.091C34.007 184.44 34.076 184.311 36.8765 180.129L36.4611 179.851L36.8765 180.129ZM40.974 179.666C40.9739 179.665 40.9729 179.664 40.9713 179.661C40.9733 179.664 40.9741 179.666 40.974 179.666ZM44.4151 186.103L44.6919 186.519L45.2488 182.986L45.2488 182.986C45.791 184.077 45.4293 185.429 44.4151 186.103Z" stroke="#111111"/>
<path d="M267.072 192.08H265.952V190.16C264.715 190.043 263.653 189.733 262.768 189.232V187.888C263.888 188.571 265.189 188.912 266.672 188.912C268.485 188.912 269.392 188.357 269.392 187.248C269.392 186.843 269.269 186.501 269.024 186.224C268.789 185.936 268.475 185.712 268.08 185.552C267.696 185.392 267.269 185.248 266.8 185.12C266.331 184.992 265.861 184.853 265.392 184.704C264.923 184.544 264.491 184.363 264.096 184.16C263.712 183.947 263.397 183.648 263.152 183.264C262.917 182.88 262.8 182.421 262.8 181.888C262.8 181.045 263.093 180.373 263.68 179.872C264.267 179.371 265.024 179.067 265.952 178.96V177.04H267.072V178.944C268.235 179.008 269.221 179.275 270.032 179.744V181.088C269.093 180.48 267.995 180.187 266.736 180.208C265.019 180.208 264.16 180.752 264.16 181.84C264.16 182.224 264.277 182.549 264.512 182.816C264.757 183.083 265.072 183.291 265.456 183.44C265.851 183.589 266.283 183.728 266.752 183.856C267.221 183.973 267.691 184.112 268.16 184.272C268.629 184.432 269.056 184.619 269.44 184.832C269.835 185.045 270.149 185.349 270.384 185.744C270.629 186.139 270.752 186.608 270.752 187.152C270.752 188.155 270.411 188.907 269.728 189.408C269.045 189.899 268.16 190.16 267.072 190.192V192.08ZM274.736 179.12H275.728V188.72H277.76V190H272.096V188.72H274.384V180.544L272.096 181.408V180.128L274.736 179.12ZM279.131 179.984C280.144 179.28 281.307 178.928 282.619 178.928C283.75 178.928 284.651 179.184 285.323 179.696C285.995 180.208 286.331 180.923 286.331 181.84C286.331 182.277 286.246 182.688 286.075 183.072C285.915 183.456 285.67 183.808 285.339 184.128C285.019 184.448 284.704 184.72 284.395 184.944C284.096 185.157 283.718 185.397 283.259 185.664C283.206 185.696 283.04 185.792 282.763 185.952C282.496 186.112 282.326 186.213 282.251 186.256C282.187 186.299 282.038 186.395 281.803 186.544C281.579 186.683 281.43 186.784 281.355 186.848C281.291 186.912 281.174 187.013 281.003 187.152C280.843 187.291 280.731 187.408 280.667 187.504C280.614 187.6 280.539 187.723 280.443 187.872C280.358 188.011 280.299 188.149 280.267 188.288C280.235 188.427 280.219 188.576 280.219 188.736L286.411 188.72V190H278.747V189.36C278.747 188.763 278.843 188.224 279.035 187.744C279.227 187.253 279.499 186.837 279.851 186.496C280.214 186.144 280.571 185.851 280.923 185.616C281.275 185.371 281.686 185.109 282.155 184.832C282.262 184.779 282.342 184.736 282.395 184.704C283.366 184.139 284 183.707 284.299 183.408C284.758 182.939 284.987 182.411 284.987 181.824C284.987 181.291 284.768 180.885 284.331 180.608C283.904 180.32 283.296 180.176 282.507 180.176C281.355 180.176 280.23 180.56 279.131 181.328V179.984ZM289.183 188.64C288.372 187.605 287.967 186.245 287.967 184.56C287.967 182.875 288.372 181.515 289.183 180.48C289.993 179.445 291.188 178.928 292.767 178.928C294.356 178.928 295.556 179.445 296.367 180.48C297.177 181.504 297.583 182.864 297.583 184.56C297.583 186.256 297.177 187.621 296.367 188.656C295.556 189.68 294.356 190.192 292.767 190.192C291.188 190.192 289.993 189.675 289.183 188.64ZM295.359 187.792C295.935 187.035 296.223 185.957 296.223 184.56C296.223 183.163 295.935 182.091 295.359 181.344C294.793 180.587 293.929 180.208 292.767 180.208C291.604 180.208 290.74 180.587 290.175 181.344C289.609 182.091 289.327 183.163 289.327 184.56C289.327 185.957 289.609 187.035 290.175 187.792C290.74 188.539 291.604 188.912 292.767 188.912C293.929 188.912 294.793 188.539 295.359 187.792Z" fill="#111111"/>
<path d="M76.36 228.8H84.072V230.464H78.184V233.52H83.592V235.184H78.184V238.336H84.168V240H76.36V228.8ZM87.6259 228.32H89.3379V240H87.6259V228.32ZM92.6358 236.16C92.6358 235.499 92.7531 234.901 92.9878 234.368C93.2224 233.824 93.5318 233.397 93.9158 233.088C94.2998 232.768 94.7158 232.528 95.1638 232.368C95.6118 232.197 96.0651 232.112 96.5238 232.112C97.1104 232.112 97.6384 232.203 98.1078 232.384C98.5878 232.565 98.9718 232.811 99.2598 233.12C99.5478 233.429 99.7824 233.787 99.9638 234.192C100.145 234.597 100.241 235.024 100.252 235.472C100.262 235.909 100.225 236.352 100.14 236.8H94.3638C94.4491 237.451 94.7691 237.941 95.3238 238.272C95.8784 238.592 96.5398 238.752 97.3078 238.752C98.1824 238.752 98.9931 238.571 99.7398 238.208V239.68C99.0038 240.032 98.0864 240.208 96.9878 240.208C95.7398 240.208 94.6998 239.856 93.8678 239.152C93.0464 238.448 92.6358 237.451 92.6358 236.16ZM98.6038 235.52C98.6678 235.083 98.5344 234.645 98.2038 234.208C97.8838 233.76 97.3504 233.536 96.6038 233.536C95.9958 233.536 95.4731 233.712 95.0358 234.064C94.6091 234.416 94.3798 234.901 94.3478 235.52H98.6038ZM104.041 230L105.737 229.584V232.32H108.521V233.824H105.737V237.344C105.737 237.835 105.849 238.181 106.073 238.384C106.308 238.587 106.681 238.688 107.193 238.688C107.716 238.688 108.233 238.587 108.745 238.384V239.856C108.127 240.08 107.439 240.192 106.681 240.192C105.892 240.192 105.252 239.984 104.761 239.568C104.281 239.152 104.041 238.517 104.041 237.664V233.824H102.665V232.32H104.041V230ZM113.258 233.584C113.556 233.104 113.999 232.731 114.586 232.464C115.172 232.197 115.807 232.096 116.49 232.16V233.84C115.807 233.744 115.188 233.835 114.634 234.112C114.079 234.389 113.684 234.8 113.45 235.344V240H111.738V232.32H113.258V233.584ZM121.129 240H119.417V232.32H121.129V240ZM121.321 229.824C121.321 230.155 121.219 230.411 121.017 230.592C120.825 230.763 120.579 230.848 120.281 230.848C119.982 230.848 119.731 230.763 119.529 230.592C119.326 230.411 119.225 230.155 119.225 229.824C119.225 229.504 119.326 229.259 119.529 229.088C119.731 228.907 119.982 228.816 120.281 228.816C120.579 228.816 120.825 228.907 121.017 229.088C121.219 229.259 121.321 229.504 121.321 229.824ZM124.426 236.224C124.426 234.891 124.848 233.872 125.69 233.168C126.533 232.464 127.525 232.112 128.666 232.112C129.584 232.112 130.373 232.309 131.034 232.704V234.272C130.437 233.845 129.728 233.632 128.906 233.632C128.149 233.632 127.504 233.845 126.97 234.272C126.437 234.688 126.17 235.317 126.17 236.16C126.17 236.981 126.432 237.611 126.954 238.048C127.488 238.475 128.128 238.688 128.874 238.688C129.685 238.688 130.432 238.491 131.114 238.096V239.68C130.378 240.032 129.53 240.208 128.57 240.208C127.45 240.208 126.48 239.867 125.658 239.184C124.837 238.491 124.426 237.504 124.426 236.224ZM136.125 240H134.413V232.32H136.125V240ZM136.317 229.824C136.317 230.155 136.216 230.411 136.013 230.592C135.821 230.763 135.576 230.848 135.277 230.848C134.979 230.848 134.728 230.763 134.525 230.592C134.323 230.411 134.221 230.155 134.221 229.824C134.221 229.504 134.323 229.259 134.525 229.088C134.728 228.907 134.979 228.816 135.277 228.816C135.576 228.816 135.821 228.907 136.013 229.088C136.216 229.259 136.317 229.504 136.317 229.824ZM140.463 230L142.159 229.584V232.32H144.943V233.824H142.159V237.344C142.159 237.835 142.271 238.181 142.495 238.384C142.73 238.587 143.103 238.688 143.615 238.688C144.138 238.688 144.655 238.587 145.167 238.384V239.856C144.549 240.08 143.861 240.192 143.103 240.192C142.314 240.192 141.674 239.984 141.183 239.568C140.703 239.152 140.463 238.517 140.463 237.664V233.824H139.087V232.32H140.463V230ZM151.616 238.112L153.904 232.32H155.696L152.096 241.04C151.36 242.821 150.33 243.712 149.008 243.712C148.698 243.712 148.362 243.669 148 243.584V242.128C148.234 242.203 148.496 242.24 148.784 242.24C149.605 242.24 150.24 241.643 150.688 240.448L150.848 240.064L147.2 232.32H149.024L151.616 238.112Z" fill="#111111"/>
<path d="M81.678 257.7H82.326V264H81.57V259.131L79.311 262.515H78.843L76.584 259.131V264H75.828V257.7H76.476L79.077 261.588L81.678 257.7ZM85.0126 263.505C84.5566 263.097 84.3286 262.542 84.3286 261.84C84.3286 261.138 84.5566 260.586 85.0126 260.184C85.4686 259.776 86.0086 259.572 86.6326 259.572C87.2626 259.572 87.8026 259.776 88.2526 260.184C88.7086 260.586 88.9366 261.138 88.9366 261.84C88.9366 262.542 88.7086 263.097 88.2526 263.505C87.8026 263.907 87.2626 264.108 86.6326 264.108C86.0086 264.108 85.4686 263.907 85.0126 263.505ZM87.7666 263.001C88.0666 262.713 88.2166 262.326 88.2166 261.84C88.2166 261.354 88.0666 260.97 87.7666 260.688C87.4666 260.4 87.0886 260.256 86.6326 260.256C86.1766 260.256 85.7986 260.4 85.4986 260.688C85.1986 260.97 85.0486 261.354 85.0486 261.84C85.0486 262.326 85.1986 262.713 85.4986 263.001C85.7986 263.283 86.1766 263.424 86.6326 263.424C87.0886 263.424 87.4666 263.283 87.7666 263.001ZM91.5173 260.319C91.6733 260.109 91.8893 259.932 92.1653 259.788C92.4473 259.644 92.7503 259.572 93.0743 259.572C93.5963 259.572 94.0253 259.737 94.3613 260.067C94.7033 260.391 94.8743 260.814 94.8743 261.336V264H94.1543V261.426C94.1543 261.036 94.0463 260.742 93.8303 260.544C93.6203 260.34 93.3413 260.238 92.9933 260.238C92.4413 260.238 91.9733 260.526 91.5893 261.102V264H90.8693V259.68H91.5173V260.319ZM97.2868 258.339L97.9978 258.159V259.68H99.7258V260.346H97.9978V262.578C97.9978 262.896 98.0698 263.118 98.2138 263.244C98.3638 263.37 98.6008 263.433 98.9248 263.433C99.2368 263.433 99.5548 263.367 99.8788 263.235V263.901C99.5128 264.033 99.1258 264.099 98.7178 264.099C98.2798 264.099 97.9318 263.982 97.6738 263.748C97.4158 263.508 97.2868 263.16 97.2868 262.704V260.346H96.4768V259.68H97.2868V258.339ZM101.59 257.7H102.31V260.229C102.478 260.043 102.691 259.887 102.949 259.761C103.213 259.635 103.495 259.572 103.795 259.572C104.317 259.572 104.746 259.737 105.082 260.067C105.424 260.391 105.595 260.814 105.595 261.336V264H104.875V261.426C104.875 261.036 104.767 260.742 104.551 260.544C104.341 260.34 104.062 260.238 103.714 260.238C103.162 260.238 102.694 260.526 102.31 261.102V264H101.59V257.7ZM107.79 257.43H108.51V264H107.79V257.43ZM112.582 263.181L114.04 259.68H114.805L112.681 264.648C112.267 265.608 111.724 266.088 111.052 266.088C110.89 266.088 110.734 266.067 110.584 266.025V265.404C110.71 265.44 110.836 265.458 110.962 265.458C111.424 265.458 111.796 265.107 112.078 264.405L112.24 264.009L110.188 259.68H110.953L112.582 263.181ZM119.312 261.426H122.525V262.11H119.312V261.426ZM128.46 260.319C128.616 260.109 128.832 259.932 129.108 259.788C129.39 259.644 129.693 259.572 130.017 259.572C130.539 259.572 130.968 259.737 131.304 260.067C131.646 260.391 131.817 260.814 131.817 261.336V264H131.097V261.426C131.097 261.036 130.989 260.742 130.773 260.544C130.563 260.34 130.284 260.238 129.936 260.238C129.384 260.238 128.916 260.526 128.532 261.102V264H127.812V259.68H128.46V260.319ZM133.697 261.84C133.697 261.132 133.913 260.577 134.345 260.175C134.783 259.773 135.284 259.572 135.848 259.572C136.376 259.572 136.811 259.704 137.153 259.968C137.501 260.232 137.729 260.559 137.837 260.949C137.945 261.333 137.951 261.735 137.855 262.155H134.417C134.459 262.581 134.648 262.902 134.984 263.118C135.32 263.334 135.725 263.442 136.199 263.442C136.727 263.442 137.201 263.325 137.621 263.091V263.793C137.219 264.003 136.709 264.108 136.091 264.108C135.407 264.108 134.837 263.913 134.381 263.523C133.925 263.133 133.697 262.572 133.697 261.84ZM137.216 261.525C137.234 261.399 137.225 261.267 137.189 261.129C137.153 260.991 137.087 260.853 136.991 260.715C136.901 260.577 136.76 260.463 136.568 260.373C136.376 260.283 136.151 260.238 135.893 260.238C135.503 260.238 135.164 260.352 134.876 260.58C134.594 260.808 134.441 261.123 134.417 261.525H137.216ZM142.454 259.68H143.282L141.698 261.777L143.372 264H142.544L141.284 262.29L140.015 264H139.187L140.87 261.777L139.277 259.68H140.105L141.284 261.273L142.454 259.68ZM145.337 258.339L146.048 258.159V259.68H147.776V260.346H146.048V262.578C146.048 262.896 146.12 263.118 146.264 263.244C146.414 263.37 146.651 263.433 146.975 263.433C147.287 263.433 147.605 263.367 147.929 263.235V263.901C147.563 264.033 147.176 264.099 146.768 264.099C146.33 264.099 145.982 263.982 145.724 263.748C145.466 263.508 145.337 263.16 145.337 262.704V260.346H144.527V259.68H145.337V258.339ZM153.168 263.505C152.712 263.097 152.484 262.542 152.484 261.84C152.484 261.138 152.712 260.586 153.168 260.184C153.624 259.776 154.164 259.572 154.788 259.572C155.418 259.572 155.958 259.776 156.408 260.184C156.864 260.586 157.092 261.138 157.092 261.84C157.092 262.542 156.864 263.097 156.408 263.505C155.958 263.907 155.418 264.108 154.788 264.108C154.164 264.108 153.624 263.907 153.168 263.505ZM155.922 263.001C156.222 262.713 156.372 262.326 156.372 261.84C156.372 261.354 156.222 260.97 155.922 260.688C155.622 260.4 155.244 260.256 154.788 260.256C154.332 260.256 153.954 260.4 153.654 260.688C153.354 260.97 153.204 261.354 153.204 261.84C153.204 262.326 153.354 262.713 153.654 263.001C153.954 263.283 154.332 263.424 154.788 263.424C155.244 263.424 155.622 263.283 155.922 263.001ZM159.673 260.319C159.829 260.109 160.045 259.932 160.321 259.788C160.603 259.644 160.906 259.572 161.23 259.572C161.752 259.572 162.181 259.737 162.517 260.067C162.859 260.391 163.03 260.814 163.03 261.336V264H162.31V261.426C162.31 261.036 162.202 260.742 161.986 260.544C161.776 260.34 161.497 260.238 161.149 260.238C160.597 260.238 160.129 260.526 159.745 261.102V264H159.025V259.68H159.673V260.319ZM172.272 259.437C172.272 259.749 172.188 260.031 172.02 260.283C171.858 260.529 171.645 260.697 171.381 260.787C171.693 260.883 171.96 261.06 172.182 261.318C172.41 261.57 172.524 261.909 172.524 262.335C172.524 262.905 172.311 263.343 171.885 263.649C171.465 263.955 170.931 264.108 170.283 264.108C169.461 264.108 168.75 263.973 168.15 263.703V262.956C168.732 263.256 169.422 263.403 170.22 263.397C171.27 263.397 171.795 263.031 171.795 262.299C171.795 261.567 171.297 261.201 170.301 261.201H169.365V260.481L170.22 260.49C170.652 260.49 170.979 260.4 171.201 260.22C171.429 260.034 171.543 259.794 171.543 259.5C171.543 259.182 171.417 258.933 171.165 258.753C170.913 258.567 170.556 258.474 170.094 258.474C169.458 258.474 168.846 258.63 168.258 258.942V258.204C168.822 257.916 169.467 257.772 170.193 257.772C170.817 257.772 171.318 257.925 171.696 258.231C172.08 258.537 172.272 258.939 172.272 259.437ZM178.098 257.7H180.708V262.218C180.708 262.848 180.516 263.319 180.132 263.631C179.754 263.937 179.256 264.09 178.638 264.09C177.972 264.09 177.432 263.961 177.018 263.703V262.947C177.42 263.229 177.915 263.37 178.503 263.37C179.469 263.37 179.952 262.977 179.952 262.191V258.42H178.098V257.7ZM186.206 259.68H186.926V264H186.278V263.361C186.122 263.571 185.903 263.748 185.621 263.892C185.345 264.036 185.045 264.108 184.721 264.108C184.163 264.108 183.722 263.949 183.398 263.631C183.08 263.307 182.921 262.878 182.921 262.344V259.68H183.641V262.254C183.641 263.046 184.028 263.442 184.802 263.442C185.354 263.442 185.822 263.154 186.206 262.578V259.68ZM189.175 257.43H189.895V264H189.175V257.43Z" fill="#888888"/>
<circle cx="39" cy="246" r="17.5" fill="white" stroke="#111111"/>
<g clip-path="url(#clip1_1_3810)">
<path d="M40.2474 243.357C40.2474 243.357 40.2474 243.357 40.2474 243.357C39.8339 243.35 39.7494 243.338 39.7494 243.314C39.7494 243.286 39.9265 241.945 40.1429 240.333C40.3594 238.721 40.5365 237.362 40.5365 237.313C40.5365 237.113 40.2364 236.938 40.0353 237.021C39.9949 237.038 39.9239 237.102 39.8775 237.163L40.0381 237.276C40.0381 237.276 40.038 237.277 40.0377 237.28C40.0376 237.281 40.0375 237.283 40.0374 237.284C40.0374 237.284 40.0374 237.284 40.0374 237.284C40.037 237.291 40.0365 237.302 40.0365 237.313C40.0365 237.391 40.0655 237.442 40.0812 237.464C40.0964 237.485 40.1082 237.492 40.1096 237.493L40.1097 237.493L40.1097 237.493C40.1114 237.494 40.1168 237.497 40.13 237.499C40.1431 237.501 40.1791 237.503 40.2266 237.483C40.2266 237.483 40.2266 237.483 40.2266 237.483C40.2266 237.483 40.2266 237.483 40.2266 237.483C40.2267 237.483 40.2268 237.483 40.2268 237.483C40.247 237.475 40.2618 237.467 40.2703 237.462C40.2703 237.462 40.2703 237.462 40.2704 237.462C40.2708 237.462 40.2713 237.461 40.2718 237.461C40.277 237.458 40.2812 237.455 40.2843 237.453C40.2903 237.445 40.2941 237.439 40.2941 237.439C40.2941 237.439 40.2917 237.443 40.2859 237.452C40.2874 237.451 40.2885 237.45 40.2894 237.45C40.2926 237.447 40.2942 237.446 40.2942 237.446C40.2942 237.446 40.2935 237.447 40.2922 237.448C40.2896 237.45 40.2864 237.453 40.2831 237.457C40.2827 237.457 40.2822 237.458 40.2818 237.459C40.2701 237.478 40.2532 237.506 40.2309 237.543C40.1866 237.617 40.1232 237.724 40.0432 237.859C40.0125 237.911 39.9794 237.967 39.944 238.027M40.2474 243.357C40.2469 243.362 40.2468 243.364 40.2468 243.364C40.2469 243.363 40.2471 243.361 40.2474 243.357ZM40.2474 243.357C40.2474 243.357 40.2474 243.357 40.2474 243.357C40.6031 243.363 41.202 243.364 42.1997 243.364H44.65M44.65 243.364L44.3847 243.636C44.3914 243.599 44.4001 243.575 44.4006 243.574C44.4041 243.564 44.4065 243.558 44.4056 243.56C44.404 243.564 44.3985 243.576 44.3867 243.6C44.3772 243.62 44.3653 243.643 44.3509 243.671L44.3009 243.722L44.3161 243.737C44.303 243.762 44.2884 243.789 44.2723 243.819C44.2645 243.833 44.2564 243.848 44.2479 243.864M44.65 243.364V243.604V243.7V243.7V243.864H44.4456C44.4457 243.864 44.4457 243.864 44.4457 243.864C44.4459 243.864 44.446 243.865 44.446 243.865C44.446 243.865 44.4459 243.864 44.4456 243.864H44.2479M44.65 243.364L44.7699 243.481C44.8723 243.581 44.888 243.616 44.877 243.723C44.8678 243.813 44.0573 245.249 41.9741 248.867C39.6867 252.84 39.0623 253.9 38.9803 253.95C38.748 254.092 38.449 253.914 38.449 253.633C38.449 253.555 38.5876 252.185 38.757 250.589C38.9264 248.993 39.065 247.676 39.065 247.662C39.065 247.656 38.8783 247.65 38.5652 247.646C38.5656 247.637 38.5661 247.628 38.5665 247.623M44.2479 243.864H42.1997C41.1229 243.864 40.5042 243.863 40.155 243.855C39.9849 243.852 39.86 243.847 39.7737 243.837C39.7372 243.833 39.6678 243.825 39.5968 243.799C39.5621 243.787 39.4865 243.756 39.4133 243.688C39.3252 243.607 39.2494 243.477 39.2494 243.314C39.2494 243.291 39.2511 243.272 39.2511 243.272L39.2524 243.257L39.2547 243.236L39.2612 243.182C39.2666 243.139 39.2745 243.077 39.2846 242.999C39.3046 242.844 39.3336 242.622 39.3693 242.352C39.4407 241.811 39.5391 241.073 39.6474 240.266C39.7556 239.461 39.8539 238.719 39.9251 238.172C39.9316 238.122 39.9379 238.074 39.944 238.027M44.2479 243.864C44.1404 244.062 43.9827 244.346 43.7679 244.726C43.3049 245.547 42.5824 246.809 41.5408 248.618C40.3969 250.605 39.6702 251.861 39.2194 252.626C39.1422 252.757 39.0735 252.873 39.0123 252.975C39.0199 252.899 39.0282 252.817 39.0369 252.731C39.0926 252.18 39.1695 251.44 39.2542 250.642C39.3389 249.844 39.4159 249.116 39.4717 248.585C39.4997 248.319 39.5223 248.103 39.538 247.952L39.5561 247.777L39.561 247.728L39.5625 247.712L39.5633 247.703L39.564 247.693L39.564 247.693C39.564 247.693 39.565 247.679 39.565 247.662C39.565 247.447 39.4359 247.32 39.3857 247.278C39.33 247.231 39.2774 247.208 39.2572 247.2C39.2124 247.181 39.1747 247.173 39.1644 247.171L39.1642 247.171C39.1363 247.165 39.1126 247.163 39.1044 247.162C39.0827 247.16 39.0597 247.158 39.0416 247.157C39.0024 247.155 38.9493 247.153 38.8869 247.152C38.7606 247.149 38.5803 247.146 38.3606 247.143C37.9204 247.139 37.3145 247.136 36.6489 247.136H34.6071M39.944 238.027C39.7954 238.278 39.6071 238.598 39.3903 238.966C38.8536 239.878 38.1431 241.088 37.4299 242.305C36.7167 243.522 36.0009 244.744 35.4537 245.681C35.1801 246.15 34.9488 246.547 34.7811 246.835C34.7115 246.955 34.653 247.056 34.6071 247.136M39.944 238.027L34.6071 247.136M34.6071 247.136L36.6489 247.636C37.4266 247.636 38.1215 247.64 38.5642 247.646L38.5657 247.631L38.5665 247.623M38.5665 247.623L38.5666 247.622C38.5674 247.613 38.5671 247.615 38.5665 247.623Z" stroke="#111111"/>
</g>
<path d="M273.072 254.08H271.952V252.16C270.715 252.043 269.653 251.733 268.768 251.232V249.888C269.888 250.571 271.189 250.912 272.672 250.912C274.485 250.912 275.392 250.357 275.392 249.248C275.392 248.843 275.269 248.501 275.024 248.224C274.789 247.936 274.475 247.712 274.08 247.552C273.696 247.392 273.269 247.248 272.8 247.12C272.331 246.992 271.861 246.853 271.392 246.704C270.923 246.544 270.491 246.363 270.096 246.16C269.712 245.947 269.397 245.648 269.152 245.264C268.917 244.88 268.8 244.421 268.8 243.888C268.8 243.045 269.093 242.373 269.68 241.872C270.267 241.371 271.024 241.067 271.952 240.96V239.04H273.072V240.944C274.235 241.008 275.221 241.275 276.032 241.744V243.088C275.093 242.48 273.995 242.187 272.736 242.208C271.019 242.208 270.16 242.752 270.16 243.84C270.16 244.224 270.277 244.549 270.512 244.816C270.757 245.083 271.072 245.291 271.456 245.44C271.851 245.589 272.283 245.728 272.752 245.856C273.221 245.973 273.691 246.112 274.16 246.272C274.629 246.432 275.056 246.619 275.44 246.832C275.835 247.045 276.149 247.349 276.384 247.744C276.629 248.139 276.752 248.608 276.752 249.152C276.752 250.155 276.411 250.907 275.728 251.408C275.045 251.899 274.16 252.16 273.072 252.192V254.08ZM277.68 241.12H285.52V242.336L280.976 252H279.536L284.048 242.4H277.68V241.12ZM287.97 246.256C289.004 245.563 290.14 245.216 291.378 245.216C292.37 245.216 293.239 245.52 293.986 246.128C294.732 246.725 295.106 247.557 295.106 248.624C295.106 249.744 294.732 250.619 293.986 251.248C293.25 251.877 292.322 252.192 291.202 252.192C289.666 252.192 288.514 251.717 287.746 250.768C286.988 249.808 286.61 248.464 286.61 246.736C286.61 244.816 287.063 243.371 287.97 242.4C288.887 241.419 290.082 240.928 291.554 240.928C292.503 240.928 293.383 241.136 294.194 241.552V242.832C293.404 242.416 292.535 242.208 291.586 242.208C290.583 242.208 289.746 242.533 289.074 243.184C288.412 243.824 288.044 244.848 287.97 246.256ZM287.986 247.6C288.188 249.829 289.228 250.944 291.106 250.944C291.895 250.944 292.53 250.763 293.01 250.4C293.5 250.037 293.746 249.467 293.746 248.688C293.746 247.899 293.495 247.333 292.994 246.992C292.492 246.64 291.842 246.464 291.042 246.464C289.858 246.464 288.839 246.843 287.986 247.6Z" fill="#111111"/>
<defs>
<filter id="filter0_b_1_3810" x="-10" y="26" width="338" height="269" filterUnits="userSpaceOnUse" color-interpolation-filters="sRGB">
<feFlood flood-opacity="0" result="BackgroundImageFix"/>
<feGaussianBlur in="BackgroundImage" stdDeviation="5"/>
<feComposite in2="SourceAlpha" operator="in" result="effect1_backgroundBlur_1_3810"/>
<feBlend mode="normal" in="SourceGraphic" in2="effect1_backgroundBlur_1_3810" result="shape"/>
</filter>
<clipPath id="clip0_1_3810">
<rect width="17" height="13.4583" fill="white" transform="translate(31 117)"/>
</clipPath>
<clipPath id="clip1_1_3810">
<rect width="10.88" height="17" fill="white" transform="translate(34 237)"/>
</clipPath>
</defs>
</svg>
