<svg width="547" height="481" viewBox="0 0 547 481" fill="none" xmlns="http://www.w3.org/2000/svg">
<path d="M264.129 102.2C295.724 73.0375 335.757 69.1718 400.011 88.3138C448.311 106.252 435.661 132.583 492.499 160.423C528.674 178.141 552.385 209.219 545.947 253.166C539.437 297.554 520.931 295.248 510.338 375.208C499.206 459.253 402.322 478.836 341.784 457.219C236.66 421.41 186.134 187.263 264.129 102.2Z" fill="#FFB200" fill-opacity="0.1"/>
<path d="M277.132 367.338C303.778 268.695 293.298 160.506 247.111 72.764C228.207 36.8536 207.234 -4.26206 179.709 0.434448C137.847 7.60637 137.719 73.1031 103.316 116.084C68.9131 159.081 11.5229 176.647 1.3126 266.491C-15.038 410.506 125.183 508.267 209.389 473.934C243.041 460.217 264.043 415.762 277.132 367.338Z" fill="#FFB200" fill-opacity="0.1"/>
<g clip-path="url(#clip0_2_26370)">
<path d="M419.604 172.978C419.221 172.978 418.875 172.775 418.707 172.393C418.707 172.381 418.66 172.273 418.66 172.261C418.444 171.736 418.707 171.127 419.245 170.924C419.771 170.721 420.381 170.972 420.584 171.509C420.787 172.034 420.56 172.667 420.034 172.882C419.891 172.954 419.747 172.978 419.604 172.978ZM421.122 176.894C420.739 176.894 420.393 176.691 420.225 176.309C420.225 176.297 420.177 176.19 420.177 176.178C419.962 175.652 420.225 175.044 420.763 174.841C421.289 174.638 421.899 174.888 422.102 175.426C422.305 175.951 422.078 176.584 421.552 176.799C421.42 176.858 421.265 176.894 421.122 176.894ZM422.52 180.823C422.138 180.823 421.791 180.62 421.624 180.238C421.624 180.226 421.576 180.118 421.564 180.106C421.361 179.581 421.612 178.972 422.15 178.769C422.675 178.566 423.285 178.817 423.488 179.354C423.691 179.879 423.464 180.512 422.938 180.727C422.807 180.799 422.663 180.823 422.52 180.823ZM417.907 169.169C417.536 169.169 417.201 168.978 417.022 168.619L416.974 168.524C416.723 168.011 416.951 167.39 417.464 167.151C417.978 166.912 418.6 167.127 418.839 167.64C419.078 168.154 418.887 168.811 418.373 169.061C418.229 169.133 418.062 169.169 417.907 169.169ZM413.939 161.825C413.616 161.825 413.305 161.67 413.126 161.372C413.126 161.36 413.054 161.264 413.054 161.252C412.767 160.763 412.935 160.13 413.437 159.843C413.927 159.557 414.56 159.724 414.847 160.225C415.134 160.715 414.99 161.384 414.512 161.67C414.321 161.778 414.13 161.825 413.939 161.825ZM411.668 158.327C411.357 158.327 411.07 158.183 410.879 157.909C410.879 157.909 410.819 157.825 410.819 157.813C410.497 157.348 410.616 156.703 411.094 156.38C411.572 156.058 412.206 156.177 412.528 156.655C412.851 157.121 412.755 157.801 412.289 158.124C412.098 158.267 411.883 158.327 411.668 158.327ZM409.194 154.971C408.919 154.971 408.644 154.852 408.453 154.613C408.441 154.601 408.369 154.518 408.369 154.506C408.023 154.052 408.118 153.407 408.572 153.061C409.026 152.715 409.684 152.81 410.018 153.264C410.353 153.718 410.305 154.386 409.863 154.733C409.66 154.9 409.421 154.971 409.194 154.971ZM406.529 151.771C406.266 151.771 406.003 151.664 405.811 151.449L405.74 151.377C405.357 150.948 405.393 150.303 405.823 149.921C406.254 149.539 406.899 149.574 407.282 150.004C407.664 150.434 407.652 151.127 407.234 151.497C407.019 151.676 406.768 151.771 406.529 151.771ZM400.589 145.909C400.373 145.909 400.158 145.837 399.967 145.682C399.955 145.67 399.871 145.598 399.859 145.586C399.441 145.204 399.405 144.547 399.788 144.129C400.17 143.712 400.828 143.676 401.246 144.058C401.664 144.44 401.736 145.109 401.365 145.538C401.174 145.777 400.887 145.909 400.589 145.909ZM397.362 143.282C397.158 143.282 396.967 143.222 396.788 143.091C396.776 143.079 396.692 143.019 396.68 143.007C396.238 142.649 396.166 142.004 396.525 141.55C396.883 141.109 397.529 141.037 397.983 141.395C398.425 141.753 398.533 142.422 398.186 142.864C397.971 143.138 397.672 143.282 397.362 143.282ZM393.967 140.87C393.788 140.87 393.609 140.822 393.429 140.703L393.334 140.643C392.856 140.32 392.736 139.676 393.059 139.21C393.382 138.732 394.027 138.613 394.493 138.935C394.959 139.258 395.127 139.926 394.816 140.392C394.613 140.691 394.29 140.87 393.967 140.87ZM390.418 138.673C390.25 138.673 390.095 138.625 389.939 138.541L389.856 138.494C389.366 138.207 389.198 137.574 389.473 137.085C389.76 136.595 390.394 136.416 390.884 136.702C391.374 136.989 391.589 137.646 391.302 138.135C391.111 138.47 390.776 138.673 390.418 138.673ZM386.748 136.702C386.605 136.702 386.462 136.667 386.318 136.595L386.222 136.547C385.709 136.296 385.505 135.676 385.756 135.162C386.007 134.649 386.629 134.446 387.143 134.696C387.657 134.947 387.908 135.592 387.645 136.105C387.477 136.476 387.119 136.702 386.748 136.702ZM375.143 132.034C375.048 132.034 374.952 132.022 374.844 131.986L374.737 131.95C374.199 131.771 373.9 131.198 374.068 130.649C374.235 130.111 374.82 129.813 375.37 129.98C375.908 130.159 376.255 130.744 376.087 131.293C375.956 131.747 375.585 132.034 375.143 132.034ZM371.139 130.875C371.056 130.875 370.972 130.864 370.888 130.84C370.876 130.84 370.781 130.816 370.769 130.804C370.219 130.649 369.896 130.087 370.052 129.538C370.207 128.989 370.769 128.666 371.319 128.822C371.868 128.977 372.239 129.55 372.095 130.099C371.976 130.565 371.594 130.875 371.139 130.875Z" fill="#111111"/>
<path d="M358.757 128.416C358.722 128.416 358.686 128.416 358.638 128.404C358.626 128.404 358.602 128.404 358.59 128.392C358.028 128.308 357.634 127.795 357.706 127.234C357.777 126.672 358.291 126.266 358.841 126.338C359.403 126.398 359.833 126.911 359.773 127.484C359.714 128.022 359.283 128.416 358.757 128.416Z" fill="#111111"/>
<path d="M416.054 165.479C415.684 165.479 415.349 165.288 415.17 164.93L415.122 164.834C414.883 164.321 415.098 163.7 415.612 163.461C416.126 163.222 416.747 163.437 416.986 163.951C417.225 164.464 417.034 165.121 416.52 165.372C416.377 165.443 416.221 165.479 416.054 165.479Z" fill="#111111"/>
<path d="M403.612 148.75C403.254 148.75 402.907 148.559 402.74 148.201L402.692 148.106C402.453 147.592 402.668 146.971 403.182 146.732C403.696 146.494 404.318 146.709 404.557 147.222C404.796 147.736 404.604 148.392 404.091 148.643C403.935 148.715 403.768 148.75 403.612 148.75Z" fill="#111111"/>
<path d="M382.96 134.947C382.602 134.947 382.255 134.756 382.088 134.398L382.04 134.302C381.801 133.789 382.016 133.168 382.53 132.929C383.044 132.69 383.665 132.905 383.904 133.419C384.143 133.932 383.952 134.589 383.438 134.84C383.283 134.911 383.115 134.947 382.96 134.947Z" fill="#111111"/>
<path d="M379.016 133.395C378.657 133.395 378.311 133.204 378.143 132.846L378.095 132.75C377.856 132.237 378.072 131.616 378.585 131.377C379.099 131.138 379.721 131.353 379.96 131.867C380.199 132.38 380.008 133.037 379.494 133.288C379.338 133.359 379.171 133.395 379.016 133.395Z" fill="#111111"/>
<path d="M366.968 129.92C366.597 129.92 366.263 129.729 366.095 129.371L366.048 129.275C365.809 128.762 366.024 128.141 366.538 127.902C367.052 127.663 367.673 127.878 367.912 128.392C368.151 128.905 367.96 129.562 367.446 129.813C367.291 129.884 367.123 129.92 366.968 129.92Z" fill="#111111"/>
<path d="M362.845 129.084C362.486 129.084 362.14 128.893 361.972 128.535L361.925 128.44C361.686 127.926 361.901 127.305 362.415 127.066C362.928 126.828 363.55 127.043 363.789 127.556C364.028 128.069 363.837 128.726 363.323 128.977C363.168 129.049 363 129.084 362.845 129.084Z" fill="#111111"/>
<path d="M416.497 184.632C421.875 183.211 424.565 182.494 429.931 181.074C428.915 188.107 427.971 191.498 425.449 197.79C422.425 191.724 420.549 189.098 416.497 184.632Z" fill="#111111"/>
<path d="M361.172 127.174C361.112 128.607 359.905 129.717 358.471 129.658C357.036 129.598 355.925 128.392 355.985 126.959C356.044 125.526 357.252 124.416 358.686 124.475C360.108 124.535 361.232 125.741 361.172 127.174Z" fill="#111111"/>
<path d="M381.106 394.248C381.106 393.866 381.309 393.519 381.692 393.352C381.704 393.352 381.811 393.304 381.823 393.304C382.361 393.09 382.959 393.352 383.162 393.89C383.365 394.415 383.114 395.024 382.576 395.227C382.05 395.43 381.417 395.203 381.202 394.678C381.13 394.534 381.106 394.391 381.106 394.248ZM377.186 395.764C377.186 395.382 377.389 395.036 377.772 394.869C377.784 394.869 377.891 394.821 377.903 394.809C378.441 394.606 379.039 394.869 379.242 395.394C379.445 395.919 379.182 396.528 378.656 396.731C378.13 396.934 377.497 396.708 377.282 396.182C377.21 396.051 377.186 395.908 377.186 395.764ZM373.254 397.161C373.254 396.779 373.457 396.433 373.84 396.266C373.852 396.266 373.959 396.218 373.971 396.218C374.509 396.015 375.106 396.266 375.31 396.803C375.513 397.328 375.25 397.937 374.724 398.14C374.198 398.343 373.565 398.117 373.35 397.591C373.278 397.448 373.254 397.305 373.254 397.161ZM384.919 392.54C384.919 392.182 385.11 391.836 385.469 391.669L385.564 391.621C386.078 391.382 386.7 391.597 386.939 392.11C387.178 392.624 386.963 393.245 386.449 393.484C385.935 393.722 385.277 393.531 385.026 393.018C384.955 392.863 384.919 392.696 384.919 392.54ZM392.257 388.588C392.257 388.266 392.413 387.955 392.711 387.776C392.723 387.764 392.819 387.704 392.831 387.704C393.321 387.418 393.954 387.585 394.241 388.086C394.528 388.588 394.361 389.209 393.859 389.495C393.369 389.782 392.699 389.639 392.413 389.161C392.317 388.97 392.257 388.767 392.257 388.588ZM395.759 386.319C395.759 386.009 395.903 385.722 396.177 385.531C396.177 385.531 396.261 385.472 396.273 385.472C396.751 385.149 397.385 385.269 397.707 385.746C398.03 386.212 397.899 386.857 397.432 387.179C396.966 387.501 396.285 387.406 395.962 386.94C395.831 386.737 395.759 386.522 395.759 386.319ZM399.13 383.848C399.13 383.573 399.249 383.298 399.488 383.095C399.5 383.095 399.584 383.012 399.596 383.012C400.05 382.665 400.695 382.761 401.042 383.215C401.388 383.668 401.293 384.313 400.839 384.66C400.384 384.994 399.715 384.946 399.369 384.504C399.201 384.301 399.13 384.074 399.13 383.848ZM402.333 381.173C402.333 380.91 402.44 380.648 402.655 380.456L402.727 380.385C403.157 380.003 403.803 380.039 404.185 380.468C404.568 380.898 404.532 381.543 404.101 381.925C403.671 382.307 402.99 382.295 402.608 381.877C402.428 381.674 402.333 381.424 402.333 381.173ZM408.201 375.25C408.201 375.035 408.273 374.821 408.428 374.63C408.44 374.618 408.512 374.534 408.524 374.522C408.906 374.092 409.563 374.068 409.982 374.45C410.4 374.833 410.436 375.489 410.053 375.907C409.671 376.325 409.002 376.397 408.571 376.027C408.32 375.824 408.201 375.537 408.201 375.25ZM410.83 372.015C410.83 371.812 410.89 371.62 411.022 371.441C411.034 371.429 411.105 371.346 411.105 371.334C411.464 370.892 412.109 370.82 412.563 371.179C413.006 371.537 413.077 372.182 412.719 372.624C412.36 373.065 411.691 373.185 411.249 372.826C410.974 372.624 410.83 372.325 410.83 372.015ZM413.245 368.635C413.245 368.456 413.292 368.277 413.412 368.098L413.472 368.003C413.794 367.525 414.44 367.405 414.906 367.728C415.372 368.05 415.504 368.695 415.181 369.161C414.858 369.626 414.189 369.794 413.723 369.483C413.412 369.28 413.245 368.958 413.245 368.635ZM415.444 365.089C415.444 364.922 415.492 364.767 415.575 364.611L415.623 364.528C415.91 364.038 416.543 363.859 417.033 364.146C417.523 364.432 417.691 365.065 417.416 365.555C417.129 366.044 416.472 366.259 415.982 365.985C415.635 365.77 415.444 365.435 415.444 365.089ZM417.416 361.423C417.416 361.28 417.452 361.125 417.523 360.981L417.571 360.886C417.822 360.373 418.444 360.17 418.958 360.42C419.472 360.671 419.675 361.292 419.424 361.805C419.173 362.319 418.527 362.57 418.013 362.307C417.643 362.14 417.416 361.793 417.416 361.423ZM422.077 349.829C422.077 349.734 422.089 349.638 422.125 349.531L422.161 349.423C422.34 348.886 422.914 348.587 423.463 348.754C424.001 348.933 424.3 349.507 424.133 350.056C423.953 350.605 423.368 350.939 422.818 350.772C422.376 350.641 422.077 350.259 422.077 349.829ZM423.248 345.829C423.248 345.745 423.26 345.662 423.284 345.578C423.284 345.566 423.32 345.471 423.32 345.459C423.475 344.91 424.037 344.587 424.587 344.742C425.137 344.898 425.459 345.459 425.304 346.008C425.149 346.557 424.575 346.927 424.025 346.784C423.559 346.653 423.248 346.271 423.248 345.829Z" fill="#111111"/>
<path d="M425.71 333.459C425.71 333.423 425.71 333.387 425.71 333.339C425.71 333.327 425.71 333.303 425.722 333.291C425.806 332.73 426.32 332.336 426.881 332.408C427.443 332.479 427.849 332.993 427.778 333.542C427.718 334.103 427.204 334.533 426.63 334.474C426.104 334.402 425.71 333.972 425.71 333.459Z" fill="#111111"/>
<path d="M388.6 390.701C388.6 390.331 388.791 389.997 389.149 389.83L389.245 389.782C389.759 389.543 390.38 389.758 390.619 390.272C390.859 390.785 390.643 391.406 390.129 391.645C389.616 391.884 388.958 391.693 388.707 391.179C388.635 391.024 388.6 390.857 388.6 390.701Z" fill="#111111"/>
<path d="M405.356 378.271C405.356 377.913 405.548 377.567 405.906 377.4L406.002 377.352C406.516 377.113 407.137 377.328 407.376 377.842C407.615 378.355 407.4 378.976 406.886 379.215C406.372 379.454 405.715 379.262 405.464 378.749C405.392 378.582 405.356 378.427 405.356 378.271Z" fill="#111111"/>
<path d="M419.173 357.626C419.173 357.268 419.364 356.922 419.723 356.755L419.818 356.707C420.332 356.468 420.954 356.683 421.193 357.196C421.432 357.71 421.217 358.331 420.703 358.57C420.189 358.808 419.531 358.617 419.28 358.104C419.209 357.949 419.173 357.793 419.173 357.626Z" fill="#111111"/>
<path d="M420.727 353.686C420.727 353.328 420.918 352.981 421.276 352.814L421.372 352.766C421.886 352.528 422.507 352.743 422.746 353.256C422.985 353.769 422.77 354.39 422.256 354.629C421.742 354.88 421.085 354.677 420.834 354.163C420.762 354.008 420.727 353.853 420.727 353.686Z" fill="#111111"/>
<path d="M424.204 341.662C424.204 341.303 424.395 340.957 424.754 340.79L424.849 340.742C425.363 340.503 425.985 340.718 426.224 341.232C426.463 341.745 426.248 342.366 425.734 342.605C425.22 342.844 424.563 342.653 424.312 342.139C424.24 341.972 424.204 341.817 424.204 341.662Z" fill="#111111"/>
<path d="M425.029 337.53C425.029 337.172 425.221 336.826 425.579 336.659L425.675 336.611C426.189 336.372 426.81 336.587 427.049 337.1C427.288 337.614 427.073 338.235 426.559 338.474C426.045 338.724 425.388 338.521 425.137 338.008C425.065 337.853 425.029 337.697 425.029 337.53Z" fill="#111111"/>
<path d="M369.43 391.131C370.852 396.505 371.569 399.191 372.991 404.552C365.952 403.538 362.557 402.594 356.259 400.075C362.342 397.054 364.972 395.179 369.43 391.131Z" fill="#111111"/>
<path d="M426.941 335.859C425.507 335.799 424.396 334.593 424.455 333.16C424.515 331.727 425.722 330.617 427.156 330.676C428.591 330.736 429.702 331.942 429.642 333.375C429.583 334.808 428.376 335.918 426.941 335.859Z" fill="#111111"/>
<path d="M165.115 356.062C165.497 356.062 165.844 356.265 166.011 356.647C166.011 356.659 166.059 356.766 166.059 356.778C166.274 357.316 166.011 357.913 165.473 358.116C164.947 358.319 164.338 358.068 164.135 357.531C163.931 357.005 164.158 356.372 164.684 356.157C164.828 356.086 164.971 356.062 165.115 356.062ZM163.597 352.145C163.979 352.145 164.326 352.348 164.493 352.731C164.493 352.743 164.541 352.85 164.553 352.862C164.756 353.399 164.505 353.996 163.967 354.199C163.441 354.402 162.832 354.151 162.629 353.614C162.425 353.089 162.653 352.456 163.178 352.241C163.31 352.169 163.453 352.145 163.597 352.145ZM162.198 348.217C162.581 348.217 162.927 348.42 163.095 348.802C163.095 348.814 163.143 348.922 163.143 348.933C163.358 349.459 163.095 350.068 162.557 350.271C162.031 350.474 161.422 350.223 161.218 349.686C161.015 349.16 161.242 348.516 161.768 348.313C161.912 348.241 162.055 348.217 162.198 348.217ZM166.824 359.871C167.182 359.871 167.529 360.062 167.696 360.42L167.744 360.516C167.983 361.029 167.768 361.65 167.254 361.889C166.74 362.128 166.119 361.913 165.88 361.399C165.64 360.886 165.832 360.229 166.346 359.978C166.501 359.907 166.656 359.871 166.824 359.871ZM170.78 367.202C171.102 367.202 171.413 367.358 171.592 367.656C171.604 367.668 171.664 367.764 171.664 367.776C171.951 368.265 171.784 368.898 171.282 369.185C170.792 369.471 170.158 369.304 169.871 368.803C169.585 368.313 169.728 367.644 170.206 367.358C170.397 367.262 170.589 367.202 170.78 367.202ZM173.051 370.701C173.361 370.701 173.648 370.844 173.839 371.119C173.839 371.119 173.899 371.203 173.899 371.214C174.222 371.692 174.102 372.325 173.624 372.647C173.158 372.97 172.513 372.85 172.19 372.373C171.867 371.907 171.963 371.226 172.429 370.904C172.632 370.773 172.847 370.701 173.051 370.701ZM175.525 374.068C175.8 374.068 176.074 374.188 176.266 374.426C176.278 374.438 176.349 374.534 176.349 374.534C176.696 374.988 176.6 375.632 176.146 375.979C175.692 376.325 175.047 376.23 174.7 375.776C174.365 375.322 174.413 374.641 174.855 374.307C175.07 374.14 175.298 374.068 175.525 374.068ZM178.202 377.268C178.465 377.268 178.728 377.376 178.919 377.591L178.991 377.662C179.373 378.092 179.337 378.737 178.907 379.119C178.489 379.501 177.831 379.453 177.449 379.036C177.066 378.606 177.078 377.913 177.497 377.543C177.7 377.364 177.951 377.268 178.202 377.268ZM184.13 383.131C184.345 383.131 184.56 383.203 184.751 383.358C184.763 383.37 184.847 383.442 184.859 383.454C185.277 383.836 185.313 384.492 184.931 384.91C184.548 385.328 183.891 385.364 183.473 384.982C183.054 384.6 182.983 383.931 183.353 383.501C183.556 383.262 183.843 383.131 184.13 383.131ZM187.357 385.758C187.56 385.758 187.751 385.818 187.931 385.961C187.943 385.961 188.026 386.033 188.038 386.045C188.48 386.403 188.552 387.048 188.194 387.489C187.835 387.931 187.19 388.003 186.735 387.645C186.293 387.298 186.186 386.618 186.532 386.176C186.747 385.901 187.058 385.758 187.357 385.758ZM190.751 388.17C190.93 388.17 191.11 388.218 191.277 388.337L191.373 388.397C191.851 388.719 191.97 389.352 191.648 389.83C191.325 390.295 190.679 390.427 190.213 390.104C189.747 389.782 189.58 389.113 189.891 388.648C190.106 388.337 190.428 388.17 190.751 388.17ZM194.301 390.367C194.468 390.367 194.624 390.415 194.791 390.498L194.875 390.546C195.365 390.833 195.544 391.466 195.257 391.955C194.97 392.445 194.337 392.624 193.847 392.337C193.357 392.051 193.142 391.394 193.428 390.904C193.608 390.558 193.954 390.367 194.301 390.367ZM197.97 392.337C198.113 392.337 198.269 392.373 198.4 392.445L198.496 392.493C199.01 392.743 199.213 393.364 198.962 393.878C198.711 394.379 198.09 394.594 197.576 394.343C197.062 394.093 196.811 393.448 197.074 392.934C197.253 392.564 197.6 392.337 197.97 392.337ZM209.575 396.994C209.671 396.994 209.766 397.006 209.874 397.042L209.982 397.078C210.519 397.257 210.818 397.83 210.651 398.379C210.472 398.928 209.898 399.215 209.348 399.048C208.81 398.869 208.464 398.284 208.631 397.734C208.763 397.293 209.145 396.994 209.575 396.994ZM213.579 398.164C213.663 398.164 213.746 398.176 213.83 398.2C213.83 398.2 213.938 398.224 213.95 398.236C214.499 398.391 214.822 398.952 214.667 399.502C214.511 400.051 213.95 400.373 213.4 400.218C212.85 400.075 212.48 399.49 212.623 398.94C212.754 398.475 213.137 398.164 213.579 398.164Z" fill="#111111"/>
<path d="M225.961 400.624C225.997 400.624 226.033 400.624 226.08 400.636C226.092 400.636 226.116 400.636 226.128 400.648C226.69 400.731 227.084 401.245 227.013 401.806C226.941 402.367 226.427 402.773 225.877 402.702C225.316 402.642 224.885 402.128 224.945 401.555C225.005 401.018 225.447 400.624 225.961 400.624Z" fill="#111111"/>
<path d="M168.664 363.561C169.035 363.561 169.37 363.752 169.537 364.11L169.585 364.205C169.824 364.719 169.609 365.34 169.095 365.579C168.581 365.817 167.959 365.602 167.72 365.089C167.481 364.576 167.672 363.919 168.186 363.668C168.342 363.596 168.509 363.561 168.664 363.561Z" fill="#111111"/>
<path d="M181.106 380.289C181.464 380.289 181.811 380.48 181.978 380.839L182.026 380.934C182.265 381.448 182.05 382.068 181.536 382.307C181.022 382.546 180.401 382.331 180.162 381.818C179.923 381.304 180.114 380.648 180.628 380.397C180.783 380.325 180.95 380.289 181.106 380.289Z" fill="#111111"/>
<path d="M201.759 394.093C202.118 394.093 202.464 394.284 202.632 394.642L202.679 394.737C202.918 395.251 202.703 395.872 202.189 396.11C201.675 396.349 201.054 396.134 200.815 395.621C200.576 395.107 200.767 394.451 201.281 394.2C201.448 394.128 201.604 394.093 201.759 394.093Z" fill="#111111"/>
<path d="M205.702 395.645C206.061 395.645 206.408 395.836 206.575 396.194L206.623 396.29C206.862 396.803 206.647 397.424 206.133 397.663C205.619 397.902 204.997 397.687 204.758 397.173C204.519 396.66 204.71 396.003 205.224 395.752C205.392 395.681 205.547 395.645 205.702 395.645Z" fill="#111111"/>
<path d="M217.75 399.12C218.109 399.12 218.455 399.311 218.623 399.669L218.671 399.764C218.91 400.278 218.695 400.899 218.181 401.137C217.667 401.376 217.045 401.161 216.806 400.648C216.567 400.134 216.758 399.478 217.272 399.227C217.428 399.155 217.595 399.12 217.75 399.12Z" fill="#111111"/>
<path d="M221.873 399.955C222.232 399.955 222.579 400.146 222.746 400.505L222.794 400.6C223.033 401.114 222.818 401.734 222.304 401.973C221.79 402.212 221.168 401.997 220.929 401.484C220.69 400.97 220.881 400.314 221.395 400.063C221.563 399.979 221.718 399.955 221.873 399.955Z" fill="#111111"/>
<path d="M168.234 344.396C162.855 345.817 160.166 346.533 154.8 347.954C155.816 340.921 156.76 337.53 159.282 331.238C162.306 337.315 164.182 339.942 168.234 344.396Z" fill="#111111"/>
<path d="M223.558 401.866C223.618 400.433 224.825 399.323 226.259 399.382C227.693 399.442 228.805 400.648 228.745 402.081C228.685 403.514 227.478 404.624 226.044 404.564C224.61 404.505 223.498 403.299 223.558 401.866Z" fill="#111111"/>
<path d="M203.623 134.792C203.623 135.174 203.42 135.52 203.038 135.688C203.026 135.688 202.918 135.735 202.906 135.747C202.38 135.95 201.771 135.699 201.568 135.162C201.364 134.637 201.615 134.028 202.153 133.825C202.679 133.622 203.312 133.849 203.54 134.374C203.587 134.505 203.623 134.649 203.623 134.792ZM207.543 133.276C207.543 133.658 207.34 134.004 206.958 134.171C206.946 134.171 206.838 134.219 206.826 134.231C206.3 134.434 205.691 134.183 205.488 133.646C205.285 133.12 205.547 132.511 206.073 132.308C206.599 132.105 207.233 132.332 207.448 132.858C207.508 132.989 207.543 133.132 207.543 133.276ZM211.476 131.878C211.476 132.261 211.272 132.607 210.89 132.774C210.878 132.774 210.77 132.822 210.758 132.834C210.233 133.037 209.623 132.786 209.42 132.249C209.217 131.723 209.48 131.114 210.005 130.911C210.531 130.708 211.165 130.935 211.38 131.461C211.452 131.592 211.476 131.735 211.476 131.878ZM199.811 136.499C199.811 136.858 199.619 137.204 199.261 137.371L199.165 137.419C198.651 137.658 198.03 137.443 197.791 136.929C197.552 136.416 197.767 135.795 198.281 135.556C198.795 135.317 199.452 135.508 199.703 136.022C199.775 136.177 199.811 136.332 199.811 136.499ZM192.46 140.452C192.46 140.774 192.305 141.085 192.006 141.264C191.994 141.276 191.899 141.335 191.887 141.335C191.397 141.622 190.763 141.455 190.476 140.953C190.189 140.464 190.357 139.831 190.859 139.544C191.349 139.258 192.018 139.401 192.305 139.879C192.412 140.07 192.46 140.261 192.46 140.452ZM188.958 142.72C188.958 143.031 188.815 143.318 188.54 143.509C188.54 143.509 188.456 143.568 188.444 143.568C187.978 143.891 187.333 143.771 187.01 143.294C186.688 142.816 186.819 142.183 187.285 141.861C187.751 141.538 188.432 141.634 188.755 142.1C188.899 142.303 188.958 142.518 188.958 142.72ZM185.6 145.192C185.6 145.467 185.48 145.741 185.241 145.932C185.229 145.944 185.146 146.016 185.134 146.016C184.68 146.362 184.034 146.267 183.688 145.813C183.341 145.359 183.437 144.703 183.891 144.368C184.345 144.034 185.026 144.082 185.373 144.524C185.516 144.727 185.6 144.965 185.6 145.192ZM182.397 147.867C182.397 148.13 182.289 148.392 182.074 148.583L182.002 148.655C181.572 149.037 180.927 149.001 180.544 148.571C180.162 148.153 180.198 147.497 180.628 147.115C181.058 146.733 181.739 146.744 182.122 147.162C182.301 147.365 182.397 147.616 182.397 147.867ZM176.529 153.789C176.529 154.004 176.457 154.219 176.301 154.41C176.289 154.422 176.218 154.506 176.206 154.518C175.823 154.936 175.166 154.971 174.748 154.589C174.329 154.207 174.294 153.551 174.676 153.133C175.058 152.715 175.728 152.643 176.158 153.013C176.397 153.216 176.529 153.503 176.529 153.789ZM173.899 157.013C173.899 157.216 173.839 157.407 173.708 157.586C173.696 157.598 173.636 157.682 173.624 157.694C173.266 158.136 172.62 158.207 172.166 157.849C171.724 157.491 171.652 156.846 172.011 156.392C172.369 155.951 173.039 155.843 173.481 156.189C173.744 156.404 173.899 156.715 173.899 157.013ZM171.485 160.404C171.485 160.584 171.437 160.763 171.318 160.93L171.258 161.025C170.935 161.503 170.29 161.622 169.824 161.3C169.357 160.978 169.226 160.333 169.549 159.867C169.871 159.401 170.541 159.234 171.007 159.545C171.306 159.76 171.485 160.082 171.485 160.404ZM169.286 163.951C169.286 164.118 169.238 164.273 169.154 164.44L169.106 164.524C168.82 165.013 168.186 165.193 167.696 164.906C167.206 164.619 167.039 163.987 167.314 163.497C167.601 163.007 168.258 162.793 168.748 163.079C169.083 163.258 169.286 163.593 169.286 163.951ZM167.302 167.616C167.302 167.76 167.266 167.915 167.194 168.046L167.146 168.142C166.895 168.655 166.274 168.858 165.76 168.608C165.246 168.357 165.043 167.736 165.294 167.222C165.545 166.709 166.19 166.458 166.704 166.721C167.087 166.9 167.302 167.246 167.302 167.616ZM162.641 179.211C162.641 179.306 162.629 179.402 162.593 179.509L162.557 179.617C162.378 180.154 161.804 180.453 161.254 180.285C160.716 180.106 160.418 179.533 160.585 178.984C160.764 178.447 161.35 178.1 161.9 178.267C162.354 178.399 162.641 178.781 162.641 179.211ZM161.481 183.211C161.481 183.294 161.469 183.378 161.445 183.462C161.445 183.462 161.421 183.569 161.421 183.581C161.266 184.13 160.704 184.453 160.155 184.297C159.605 184.142 159.282 183.581 159.437 183.032C159.593 182.482 160.167 182.112 160.716 182.256C161.17 182.375 161.481 182.769 161.481 183.211Z" fill="#111111"/>
<path d="M159.007 195.581C159.007 195.617 159.007 195.653 158.995 195.701C158.995 195.713 158.995 195.736 158.983 195.748C158.899 196.31 158.385 196.704 157.824 196.632C157.262 196.56 156.855 196.047 156.927 195.498C156.987 194.936 157.501 194.507 158.075 194.566C158.612 194.626 159.007 195.068 159.007 195.581Z" fill="#111111"/>
<path d="M196.117 138.338C196.117 138.708 195.926 139.043 195.567 139.21L195.472 139.258C194.958 139.497 194.336 139.282 194.097 138.768C193.858 138.255 194.073 137.634 194.587 137.395C195.101 137.156 195.759 137.347 196.01 137.861C196.081 138.016 196.117 138.183 196.117 138.338Z" fill="#111111"/>
<path d="M179.372 150.768C179.372 151.127 179.181 151.473 178.822 151.64L178.727 151.688C178.213 151.927 177.591 151.712 177.352 151.198C177.113 150.685 177.328 150.064 177.842 149.825C178.356 149.586 179.014 149.777 179.265 150.291C179.336 150.446 179.372 150.613 179.372 150.768Z" fill="#111111"/>
<path d="M165.544 171.402C165.544 171.76 165.353 172.106 164.994 172.273L164.899 172.321C164.385 172.56 163.763 172.345 163.524 171.831C163.285 171.318 163.5 170.697 164.014 170.458C164.528 170.22 165.185 170.411 165.436 170.924C165.508 171.091 165.544 171.246 165.544 171.402Z" fill="#111111"/>
<path d="M163.99 175.342C163.99 175.7 163.799 176.046 163.441 176.214L163.345 176.261C162.831 176.5 162.209 176.285 161.97 175.772C161.731 175.258 161.947 174.638 162.46 174.399C162.974 174.16 163.632 174.351 163.883 174.864C163.954 175.02 163.99 175.187 163.99 175.342Z" fill="#111111"/>
<path d="M160.524 187.378C160.524 187.736 160.333 188.083 159.975 188.25L159.879 188.297C159.365 188.536 158.744 188.321 158.505 187.808C158.266 187.294 158.481 186.674 158.995 186.435C159.509 186.196 160.166 186.387 160.417 186.9C160.489 187.056 160.524 187.223 160.524 187.378Z" fill="#111111"/>
<path d="M159.688 191.498C159.688 191.856 159.496 192.202 159.138 192.369L159.042 192.417C158.528 192.656 157.907 192.441 157.668 191.927C157.429 191.414 157.644 190.793 158.158 190.554C158.672 190.315 159.329 190.507 159.58 191.02C159.652 191.175 159.688 191.342 159.688 191.498Z" fill="#111111"/>
<path d="M215.287 137.908C213.865 132.535 213.148 129.849 211.726 124.487C218.765 125.502 222.159 126.446 228.458 128.965C222.387 131.974 219.745 133.849 215.287 137.908Z" fill="#111111"/>
<path d="M157.776 193.181C159.21 193.241 160.321 194.447 160.262 195.88C160.202 197.313 158.995 198.423 157.561 198.363C156.126 198.304 155.015 197.098 155.075 195.665C155.134 194.232 156.341 193.121 157.776 193.181Z" fill="#111111"/>
<path d="M242.981 353.877L242.482 353.849C242.981 353.877 242.981 353.878 242.981 353.878L242.981 353.879L242.981 353.88L242.98 353.886L242.979 353.907C242.978 353.924 242.976 353.948 242.973 353.979C242.968 354.041 242.959 354.129 242.946 354.239C242.92 354.459 242.876 354.767 242.802 355.125C242.655 355.834 242.387 356.767 241.896 357.594C241.403 358.423 240.66 359.187 239.557 359.462C238.458 359.736 237.111 359.496 235.469 358.557C232.415 356.812 227.74 355.873 223.564 356.504C219.401 357.134 215.85 359.295 214.785 363.651C213.714 368.035 215.79 372.132 218.983 374.72C222.194 377.324 226.369 378.278 229.392 376.611C232.697 374.788 235.94 373.735 238.451 373.707C239.709 373.693 240.83 373.936 241.681 374.517C242.549 375.112 243.082 376.024 243.206 377.223M242.981 353.877L242.709 377.276M242.981 353.877L242.982 353.863V353.849V315.625M242.981 353.877L242.982 315.625M243.206 377.223C243.206 377.224 243.206 377.224 243.206 377.224L242.709 377.276M243.206 377.223C243.206 377.223 243.206 377.223 243.206 377.223L242.709 377.276M243.206 377.223C243.323 378.326 243.379 381.383 243.4 385.306C243.422 389.244 243.407 394.091 243.379 398.803C243.351 403.515 243.308 408.094 243.273 411.494C243.255 413.194 243.239 414.599 243.227 415.58C243.222 416.007 243.218 416.354 243.215 416.61M242.709 377.276C243.131 381.262 242.768 412.284 242.715 416.61H243.215M243.215 416.61C243.215 416.647 243.214 416.682 243.214 416.715L243.21 417.014L243.209 417.09L243.209 417.109L243.209 417.11H280.584M243.215 416.61H280.416M280.416 416.61C280.4 416.623 280.385 416.635 280.371 416.645C280.354 416.658 280.34 416.669 280.328 416.677C280.317 416.686 280.308 416.692 280.303 416.695L280.299 416.699C280.299 416.699 280.299 416.699 280.584 417.11M280.416 416.61C280.422 416.605 280.427 416.601 280.433 416.596C280.524 416.523 280.656 416.412 280.81 416.265C281.119 415.97 281.512 415.537 281.85 414.983C282.52 413.887 282.981 412.323 282.155 410.367L282.155 410.366C281.237 408.186 279.459 402.47 279.833 397.291C280.02 394.696 280.752 392.175 282.468 390.315C284.197 388.44 286.857 387.309 290.739 387.367C294.595 387.425 297.311 388.405 299.164 389.971C301.016 391.537 301.947 393.641 302.327 395.834C303.082 400.19 301.69 405.022 300.893 407.181C300.111 409.305 299.523 411.743 299.707 413.617C299.798 414.548 300.075 415.285 300.558 415.788C301.03 416.28 301.76 416.61 302.898 416.61H302.927H302.957H302.988H303.02H303.052H303.084H303.118H303.152H303.187H303.222H303.258H303.295H303.332H303.37H303.408H303.448H303.487H303.528H303.569H303.611H303.653H303.696H303.739H303.784H303.828H303.874H303.92H303.966H304.013H304.061H304.109H304.158H304.208H304.258H304.309H304.36H304.412H304.464H304.517H304.571H304.625H304.679H304.735H304.79H304.847H304.904H304.961H305.019H305.077H305.136H305.196H305.256H305.317H305.378H305.439H305.502H305.564H305.627H305.691H305.755H305.82H305.885H305.951H306.017H306.084H306.151H306.219H306.287H306.356H306.425H306.494H306.564H306.635H306.706H306.778H306.849H306.922H306.995H307.068H307.142H307.216H307.291H307.366H307.441H307.517H307.594H307.67H307.748H307.825H307.903H307.982H308.061H308.14H308.22H308.3H308.381H308.462H308.543H308.625H308.707H308.789H308.872H308.956H309.039H309.123H309.208H309.293H309.378H309.464H309.549H309.636H309.722H309.809H309.897H309.984H310.072H310.161H310.25H310.339H310.428H310.518H310.608H310.698H310.789H310.88H310.971H311.063H311.155H311.247H311.34H311.433H311.526H311.619H311.713H311.807H311.902H311.996H312.091H312.187H312.282H312.378H312.474H312.57H312.667H312.764H312.861H312.958H313.056H313.154H313.252H313.35H313.449H313.548H313.647H313.746H313.846H313.946H314.046H314.146H314.246H314.347H314.448H314.549H314.65H314.752H314.854H314.955H315.058H315.16H315.262H315.365H315.468H315.571H315.674H315.778H315.881H315.985H316.089H316.193H316.298H316.402H316.507H316.611H316.716H316.821H316.927H317.032H317.137H317.243H317.349H317.455H317.561H317.667H317.773H317.88H317.986H318.093H318.199H318.306H318.413H318.52H318.628H318.735H318.842H318.95H319.057H319.165H319.272H319.38H319.488H319.596H319.704H319.812H319.92H320.028H320.137H320.245H320.353H320.462H320.57H320.679H320.787H320.896H321.005H321.113H321.222H321.331H321.44H321.548H321.657H321.766H321.875H321.984H322.093H322.202H322.31H322.419H322.528H322.637H322.746H322.855H322.964H323.073H323.181H323.29H323.399H323.508H323.616H323.725H323.834H323.942H324.051H324.159H324.268H324.376H324.484H324.593H324.701H324.809H324.917H325.025H325.133H325.241H325.349H325.457H325.564H325.672H325.779H325.887H325.994H326.101H326.208H326.315H326.422H326.529H326.636H326.742H326.849H326.955H327.061H327.167H327.273H327.379H327.485H327.59H327.696H327.801H327.906H328.011H328.116H328.22H328.325H328.429H328.533H328.637H328.741H328.845H328.948H329.052H329.155H329.258H329.361H329.463H329.566H329.668H329.77H329.872H329.973H330.075H330.176H330.277H330.377H330.478H330.578H330.678H330.778H330.878H330.977H331.077H331.176H331.274H331.373H331.471H331.569H331.667H331.764H331.861H331.958H332.055H332.151H332.247H332.343H332.439H332.534H332.629H332.724H332.819H332.913H333.007H333.1H333.193H333.286H333.379H333.472H333.564H333.655H333.747H333.838H333.929H334.019H334.11H334.199H334.289H334.378H334.467H334.555H334.644H334.731H334.819H334.906H334.993H335.079H335.165H335.251H335.336H335.421H335.506H335.59H335.674H335.757H335.84H335.923H336.005H336.087H336.169H336.25H336.33H336.411H336.491H336.57H336.649H336.728H336.806H336.884H336.961H337.038H337.115H337.191H337.267H337.342H337.417H337.491H337.565H337.638H337.711H337.784H337.856H337.928H337.999H338.069H338.14H338.209H338.279H338.348H338.416H338.484H338.551H338.618H338.684H338.75H338.816H338.88H338.945H339.009H339.072H339.135H339.197H339.259H339.32H339.381H339.441H339.501H339.56H339.619H339.677H339.735H339.792H339.848H339.904H339.96H340.014H340.069H340.122H340.176H340.228H340.28H340.332H340.383H340.433H340.483H340.532H340.58H340.628H340.676H340.722H340.768H340.814H340.859H340.903H340.947H340.99H341.033H341.075H341.116H341.157H341.197H341.236H341.275H341.313H341.351H341.387H341.424H341.459H341.494H341.528H341.562H341.595H341.627H341.659H341.69H341.72H341.75H341.779H341.807H341.835H341.851V379.986V379.977L341.851 379.967L341.851 379.967L341.851 379.967L341.851 379.966L341.852 379.956C341.852 379.947 341.852 379.932 341.852 379.913C341.853 379.874 341.853 379.816 341.853 379.741C341.851 379.591 341.844 379.374 341.824 379.114C341.784 378.592 341.69 377.908 341.479 377.239C341.268 376.567 340.95 375.946 340.486 375.51C340.037 375.088 339.423 374.812 338.542 374.862C337.637 374.912 336.69 375.304 335.554 375.849C335.361 375.941 335.163 376.038 334.96 376.137C333.995 376.608 332.917 377.134 331.71 377.539C328.739 378.538 324.993 378.81 319.797 376.157C317.158 374.809 315.518 372.887 314.7 370.743C313.884 368.607 313.897 366.285 314.5 364.143C315.695 359.894 319.277 356.187 323.62 356.071C327.746 355.956 330.572 356.643 332.715 357.453C333.664 357.811 334.477 358.193 335.192 358.529C335.279 358.57 335.365 358.611 335.45 358.65C336.237 359.019 336.887 359.308 337.512 359.465C338.731 359.765 339.618 359.501 340.233 358.908C340.873 358.292 341.296 357.248 341.398 355.854L341.398 355.852C341.51 354.415 341.51 344.258 341.482 334.412C341.468 329.5 341.446 324.679 341.429 321.086C341.42 319.29 341.412 317.8 341.406 316.76L341.4 315.625H309.436H309.405L309.374 315.622L309.374 315.622L309.374 315.622L309.374 315.622L309.372 315.621L309.359 315.62C309.347 315.619 309.329 315.617 309.305 315.614C309.256 315.609 309.183 315.603 309.089 315.596C308.901 315.582 308.631 315.568 308.305 315.566C307.651 315.563 306.791 315.612 305.94 315.811C305.085 316.011 304.277 316.354 303.689 316.913C303.116 317.458 302.717 318.239 302.717 319.4C302.717 320.598 303.164 322.068 303.754 323.777C303.847 324.046 303.943 324.32 304.041 324.598C304.552 326.058 305.108 327.643 305.47 329.256C305.903 331.183 306.073 333.199 305.559 335.171C305.043 337.154 303.846 339.047 301.623 340.742C297.148 344.153 292.019 343.673 288.215 341.422C284.445 339.192 281.839 335.129 282.567 331.249C283.161 328.074 283.932 325.844 284.547 324.064C284.639 323.799 284.727 323.543 284.81 323.296C285.456 321.393 285.81 320.037 285.495 318.371L285.495 318.369C285.174 316.64 284.604 316.007 284.231 315.772C284.042 315.653 283.876 315.618 283.766 315.609C283.71 315.605 283.668 315.608 283.644 315.61C283.635 315.611 283.628 315.612 283.625 315.613L283.574 315.625H283.512H242.982M280.416 416.61H280.584V417.11M280.584 417.11L242.982 315.625" fill="white" stroke="#111111"/>
<path d="M341.073 174.313L341.074 174.298L341.573 174.327C341.074 174.298 341.074 174.298 341.074 174.298L341.074 174.297L341.074 174.295L341.074 174.289L341.076 174.269C341.077 174.252 341.079 174.228 341.081 174.197C341.087 174.135 341.095 174.047 341.108 173.937C341.134 173.717 341.179 173.409 341.253 173.051C341.399 172.342 341.668 171.409 342.159 170.582C342.652 169.753 343.395 168.989 344.497 168.714C345.597 168.44 346.943 168.68 348.586 169.618C351.64 171.363 356.315 172.303 360.491 171.671C364.654 171.042 368.205 168.88 369.269 164.525C370.335 160.141 368.258 156.044 365.067 153.455C361.858 150.852 357.685 149.897 354.662 151.564C351.357 153.388 348.118 154.44 345.608 154.468C344.351 154.483 343.23 154.24 342.379 153.658C341.51 153.064 340.976 152.152 340.849 150.953C340.732 149.853 340.675 146.797 340.654 142.875C340.633 138.937 340.647 134.09 340.675 129.377C340.704 124.664 340.746 120.085 340.782 116.684C340.8 114.983 340.816 113.577 340.827 112.597C340.832 112.169 340.836 111.821 340.84 111.566H303.638C303.633 111.57 303.627 111.575 303.622 111.579C303.53 111.653 303.398 111.764 303.245 111.911C302.936 112.206 302.543 112.639 302.204 113.193C301.535 114.288 301.073 115.852 301.899 117.809L301.9 117.81C302.817 119.989 304.596 125.703 304.222 130.88C304.034 133.475 303.302 135.995 301.586 137.856C299.857 139.731 297.198 140.864 293.316 140.808L293.316 140.808C289.459 140.751 286.743 139.771 284.891 138.205C283.038 136.639 282.108 134.535 281.728 132.342C280.972 127.985 282.365 123.154 283.161 120.995C283.943 118.877 284.529 116.439 284.342 114.564C284.249 113.632 283.971 112.894 283.487 112.39C283.013 111.897 282.282 111.566 281.145 111.566H281.115H281.085H281.054H281.023H280.991H280.958H280.925H280.891H280.856H280.821H280.785H280.748H280.711H280.673H280.634H280.595H280.555H280.515H280.474H280.432H280.39H280.347H280.303H280.259H280.214H280.169H280.123H280.076H280.029H279.981H279.933H279.884H279.835H279.785H279.734H279.683H279.631H279.578H279.525H279.472H279.418H279.363H279.308H279.252H279.196H279.139H279.082H279.024H278.965H278.906H278.847H278.787H278.726H278.665H278.603H278.541H278.478H278.415H278.351H278.287H278.222H278.157H278.091H278.025H277.959H277.891H277.824H277.756H277.687H277.618H277.548H277.478H277.408H277.337H277.265H277.193H277.121H277.048H276.975H276.901H276.827H276.752H276.677H276.601H276.525H276.449H276.372H276.295H276.217H276.139H276.061H275.982H275.902H275.823H275.742H275.662H275.581H275.5H275.418H275.336H275.253H275.17H275.087H275.003H274.919H274.835H274.75H274.665H274.579H274.493H274.407H274.32H274.233H274.146H274.058H273.97H273.882H273.793H273.704H273.615H273.525H273.435H273.344H273.254H273.163H273.071H272.98H272.888H272.795H272.703H272.61H272.517H272.423H272.329H272.235H272.141H272.046H271.951H271.856H271.76H271.665H271.569H271.472H271.376H271.279H271.182H271.084H270.987H270.889H270.791H270.692H270.594H270.495H270.396H270.296H270.197H270.097H269.997H269.897H269.796H269.696H269.595H269.494H269.392H269.291H269.189H269.087H268.985H268.883H268.78H268.677H268.574H268.471H268.368H268.265H268.161H268.057H267.953H267.849H267.745H267.64H267.536H267.431H267.326H267.221H267.116H267.011H266.905H266.799H266.694H266.588H266.482H266.376H266.269H266.163H266.056H265.95H265.843H265.736H265.629H265.522H265.415H265.308H265.2H265.093H264.985H264.878H264.77H264.662H264.554H264.447H264.339H264.23H264.122H264.014H263.906H263.797H263.689H263.581H263.472H263.364H263.255H263.146H263.038H262.929H262.82H262.712H262.603H262.494H262.385H262.276H262.168H262.059H261.95H261.841H261.732H261.623H261.514H261.405H261.297H261.188H261.079H260.97H260.861H260.752H260.644H260.535H260.426H260.318H260.209H260.1H259.992H259.883H259.775H259.667H259.558H259.45H259.342H259.233H259.125H259.017H258.909H258.801H258.694H258.586H258.478H258.371H258.263H258.156H258.049H257.941H257.834H257.727H257.62H257.514H257.407H257.3H257.194H257.088H256.981H256.875H256.769H256.664H256.558H256.452H256.347H256.242H256.137H256.032H255.927H255.822H255.718H255.613H255.509H255.405H255.301H255.198H255.094H254.991H254.888H254.785H254.682H254.579H254.477H254.375H254.273H254.171H254.069H253.968H253.867H253.766H253.665H253.565H253.464H253.364H253.264H253.165H253.065H252.966H252.867H252.768H252.67H252.572H252.474H252.376H252.279H252.181H252.084H251.988H251.891H251.795H251.699H251.604H251.508H251.413H251.319H251.224H251.13H251.036H250.942H250.849H250.756H250.663H250.571H250.479H250.387H250.296H250.205H250.114H250.023H249.933H249.843H249.754H249.664H249.576H249.487H249.399H249.311H249.224H249.137H249.05H248.963H248.877H248.792H248.706H248.621H248.537H248.453H248.369H248.285H248.202H248.12H248.037H247.955H247.874H247.793H247.712H247.632H247.552H247.473H247.393H247.315H247.237H247.159H247.081H247.004H246.928H246.852H246.776H246.701H246.626H246.552H246.478H246.404H246.331H246.259H246.187H246.115H246.044H245.973H245.903H245.833H245.764H245.695H245.627H245.559H245.492H245.425H245.358H245.292H245.227H245.162H245.098H245.034H244.97H244.908H244.845H244.783H244.722H244.661H244.601H244.541H244.482H244.424H244.365H244.308H244.251H244.194H244.138H244.083H244.028H243.974H243.92H243.867H243.814H243.762H243.711H243.66H243.61H243.56H243.511H243.462H243.414H243.367H243.32H243.274H243.229H243.184H243.139H243.095H243.052H243.01H242.968H242.927H242.886H242.846H242.806H242.768H242.73H242.692H242.655H242.619H242.583H242.548H242.514H242.481H242.448H242.415H242.384H242.353H242.322H242.293H242.264H242.236H242.208H242.192V148.189V148.199L242.191 148.208L242.191 148.208L242.191 148.209L242.191 148.21L242.191 148.22C242.191 148.229 242.19 148.243 242.19 148.263C242.19 148.302 242.189 148.36 242.19 148.435C242.192 148.586 242.198 148.803 242.218 149.063C242.259 149.587 242.353 150.272 242.563 150.943C242.775 151.617 243.093 152.239 243.557 152.676C244.006 153.099 244.62 153.375 245.5 153.326C246.406 153.275 247.353 152.883 248.489 152.339C248.682 152.247 248.88 152.15 249.082 152.051C250.047 151.58 251.126 151.054 252.332 150.648C255.304 149.649 259.05 149.377 264.245 152.031C266.885 153.379 268.525 155.301 269.343 157.444C270.158 159.581 270.145 161.903 269.543 164.044C268.347 168.294 264.765 172.001 260.422 172.116C256.296 172.232 253.468 171.545 251.323 170.735C250.37 170.375 249.554 169.992 248.837 169.654C248.752 169.615 248.669 169.576 248.587 169.537C247.801 169.169 247.152 168.879 246.53 168.722C245.316 168.417 244.433 168.678 243.818 169.269C243.178 169.885 242.753 170.93 242.644 172.324C242.533 173.76 242.532 183.918 242.561 193.763C242.575 198.676 242.596 203.497 242.614 207.09C242.623 208.886 242.631 210.376 242.637 211.416L242.643 212.55H274.619H274.65L274.681 212.554L274.681 212.554L274.681 212.554L274.684 212.554L274.696 212.556C274.708 212.557 274.726 212.559 274.751 212.562C274.799 212.567 274.872 212.574 274.966 212.581C275.153 212.594 275.423 212.609 275.748 212.611C276.401 212.615 277.259 212.568 278.109 212.369C278.962 212.17 279.768 211.827 280.355 211.268C280.927 210.723 281.326 209.941 281.326 208.776C281.326 207.577 280.879 206.107 280.29 204.398C280.198 204.131 280.102 203.858 280.006 203.581C279.495 202.119 278.94 200.534 278.579 198.919C278.147 196.992 277.979 194.976 278.493 193.005C279.011 191.022 280.209 189.128 282.431 187.434C286.907 184.023 292.035 184.503 295.84 186.754C299.61 188.984 302.216 193.047 301.488 196.927C301.488 196.927 301.488 196.927 301.488 196.927L300.997 196.835C300.409 199.972 299.65 202.169 299.036 203.947C298.237 206.257 297.683 207.86 298.068 209.898L341.073 174.313ZM341.073 174.313V174.327V212.55M341.073 174.313V212.55M341.073 212.55H300.554H300.493L300.442 212.563L341.073 212.55Z" fill="white" stroke="#111111"/>
<path d="M213.502 260.977L213.502 260.978C212.321 265.83 214.642 270.291 218.046 273.05C221.431 275.795 226.049 276.977 229.564 275.039C232.796 273.256 235.87 272.285 238.152 272.26C239.292 272.248 240.187 272.473 240.81 272.899C241.414 273.313 241.812 273.951 241.912 274.892C242.022 275.933 242.079 278.927 242.101 282.875C242.122 286.807 242.108 291.65 242.08 296.361C242.051 301.071 242.009 305.648 241.973 309.047C241.955 310.746 241.939 312.151 241.928 313.132L241.923 313.542C241.92 313.792 241.917 314.003 241.915 314.173H202.667C201.13 313.016 200.341 311.854 199.986 310.646C199.617 309.391 199.699 308.026 200.002 306.454C200.18 305.532 200.423 304.587 200.685 303.572C200.877 302.825 201.079 302.04 201.272 301.197C201.72 299.245 202.094 297.08 202.094 294.661C202.094 289.608 198.231 286.54 193.852 285.466C189.491 284.397 184.373 285.234 181.613 288.232C178.896 291.178 178.311 294.607 178.806 297.878C179.3 301.131 180.861 304.242 182.461 306.64C183.19 307.734 183.382 308.73 183.289 309.607C183.196 310.494 182.806 311.302 182.305 311.997C181.803 312.691 181.205 313.253 180.726 313.644C180.488 313.838 180.282 313.988 180.137 314.088C180.096 314.116 180.06 314.141 180.029 314.161H142.574V314.148V314.119V314.091V314.061V314.031V313.999V313.968V313.935V313.902V313.868V313.834V313.798V313.762V313.726V313.688V313.65V313.612V313.573V313.533V313.492V313.451V313.409V313.366V313.323V313.279V313.234V313.189V313.143V313.097V313.05V313.002V312.953V312.904V312.855V312.805V312.754V312.702V312.65V312.597V312.544V312.49V312.436V312.381V312.325V312.269V312.212V312.154V312.096V312.038V311.979V311.919V311.859V311.798V311.737V311.675V311.612V311.549V311.485V311.421V311.356V311.291V311.225V311.159V311.092V311.025V310.957V310.889V310.82V310.75V310.68V310.61V310.539V310.467V310.395V310.323V310.25V310.177V310.103V310.028V309.953V309.878V309.802V309.726V309.649V309.572V309.494V309.416V309.337V309.258V309.179V309.099V309.018V308.937V308.856V308.774V308.692V308.609V308.526V308.443V308.359V308.275V308.19V308.105V308.019V307.934V307.847V307.76V307.673V307.586V307.498V307.41V307.321V307.232V307.143V307.053V306.963V306.872V306.781V306.69V306.598V306.506V306.414V306.321V306.228V306.135V306.041V305.947V305.853V305.758V305.663V305.568V305.472V305.376V305.28V305.183V305.086V304.989V304.891V304.794V304.695V304.597V304.498V304.399V304.3V304.2V304.101V304V303.9V303.799V303.698V303.597V303.496V303.394V303.292V303.19V303.087V302.985V302.882V302.778V302.675V302.571V302.467V302.363V302.259V302.154V302.049V301.944V301.839V301.734V301.628V301.522V301.416V301.31V301.204V301.097V300.99V300.883V300.776V300.669V300.561V300.453V300.346V300.238V300.129V300.021V299.913V299.804V299.695V299.586V299.477V299.368V299.258V299.149V299.039V298.929V298.82V298.71V298.599V298.489V298.379V298.268V298.158V298.047V297.936V297.825V297.714V297.603V297.492V297.381V297.269V297.158V297.046V296.935V296.823V296.712V296.6V296.488V296.376V296.264V296.152V296.04V295.928V295.816V295.704V295.591V295.479V295.367V295.254V295.142V295.03V294.917V294.805V294.693V294.58V294.468V294.355V294.243V294.13V294.018V293.906V293.793V293.681V293.568V293.456V293.344V293.231V293.119V293.007V292.895V292.782V292.67V292.558V292.446V292.334V292.222V292.11V291.999V291.887V291.775V291.664V291.552V291.441V291.329V291.218V291.107V290.996V290.885V290.774V290.663V290.552V290.441V290.331V290.221V290.11V290V289.89V289.78V289.67V289.56V289.451V289.341V289.232V289.123V289.014V288.905V288.796V288.688V288.579V288.471V288.363V288.255V288.147V288.04V287.932V287.825V287.718V287.611V287.505V287.398V287.292V287.186V287.08V286.974V286.868V286.763V286.658V286.553V286.449V286.344V286.24V286.136V286.032V285.929V285.825V285.722V285.619V285.517V285.414V285.312V285.211V285.109V285.008V284.907V284.806V284.705V284.605V284.505V284.405V284.306V284.207V284.108V284.01V283.911V283.813V283.716V283.618V283.521V283.424V283.328V283.232V283.136V283.041V282.945V282.851V282.756V282.662V282.568V282.475V282.382V282.289V282.196V282.104V282.012V281.921V281.83V281.739V281.649V281.559V281.469V281.38V281.291V281.203V281.115V281.027V280.94V280.853V280.767V280.681V280.595V280.51V280.425V280.34V280.256V280.173V280.089V280.007V279.924V279.842V279.761V279.68V279.599V279.519V279.439V279.36V279.281V279.203V279.125V279.048V278.971V278.894V278.818V278.743V278.668V278.593V278.519V278.445V278.372V278.299V278.227V278.156V278.084V278.014V277.944V277.874V277.805V277.736V277.668V277.601V277.533V277.467V277.401V277.335V277.271V277.206V277.142V277.079V277.016V276.954V276.893V276.831V276.771V276.711V276.652V276.593V276.535V276.477V276.42V276.363V276.308V276.252V276.197V276.143V276.09V276.037V275.985V275.933V275.882V275.831V275.781V275.732V275.684V275.636V275.588V275.541V275.495V275.45V275.405V275.361V275.317V275.274V275.232V275.191V275.15V275.11V275.07V275.031V274.993V274.955V274.918V274.882V274.847V274.812V274.778V274.744V274.711V274.679V274.648V274.617V274.587V274.558V274.53V274.502V274.475V274.449V274.423V274.398V274.374C142.574 273.279 142.299 272.349 141.759 271.642C141.217 270.93 140.439 270.485 139.515 270.309C137.693 269.964 135.3 270.66 132.77 272.384C130.41 273.986 126.994 274.644 123.807 274.073C120.632 273.504 117.753 271.729 116.37 268.539L116.37 268.539C114.975 265.324 115.344 261.654 116.864 258.698C118.386 255.737 121.02 253.565 124.079 253.247C127.226 252.919 130.234 253.837 132.878 254.792C133.243 254.923 133.603 255.057 133.956 255.187C134.865 255.523 135.727 255.842 136.506 256.075C137.58 256.395 138.604 256.588 139.472 256.389C141.142 256.008 142.085 254.789 142.6 253.733C142.858 253.202 143.017 252.696 143.111 252.324C143.159 252.137 143.19 251.982 143.21 251.873C143.22 251.818 143.227 251.774 143.232 251.743L143.237 251.706L143.239 251.695L143.239 251.692L143.239 251.691L143.239 251.69C143.239 251.69 143.239 251.69 142.743 251.627L143.239 251.69L143.243 251.659V251.627V213.153H175.175C175.19 213.155 175.21 213.157 175.235 213.16C175.292 213.165 175.373 213.173 175.477 213.181C175.683 213.196 175.976 213.212 176.327 213.214C177.026 213.218 177.969 213.169 178.922 212.946C179.87 212.725 180.866 212.323 181.63 211.595C182.409 210.852 182.911 209.805 182.911 208.379C182.911 206.986 182.401 205.359 181.821 203.675C181.726 203.399 181.628 203.121 181.53 202.84C181.019 201.378 180.487 199.856 180.14 198.303C179.727 196.459 179.587 194.619 180.046 192.86C180.502 191.114 181.56 189.404 183.623 187.833L183.623 187.832C187.717 184.706 192.395 185.125 195.916 187.208C199.472 189.312 201.713 193.02 201.09 196.346C200.511 199.435 199.765 201.597 199.151 203.373C199.058 203.643 198.968 203.903 198.882 204.157C198.231 206.081 197.796 207.654 198.162 209.594C198.517 211.471 199.187 212.413 199.886 212.853C200.232 213.07 200.559 213.147 200.809 213.166C200.933 213.176 201.036 213.171 201.113 213.163C201.141 213.16 201.166 213.157 201.186 213.153H241.67V251.396L241.67 251.399C241.669 251.412 241.668 251.431 241.665 251.457C241.661 251.509 241.654 251.587 241.642 251.685C241.618 251.882 241.578 252.161 241.511 252.486C241.375 253.142 241.136 253.954 240.724 254.647C240.315 255.336 239.761 255.866 239.004 256.055C238.243 256.245 237.167 256.117 235.654 255.253C232.397 253.392 227.493 252.415 223.103 253.079C218.699 253.745 214.696 256.091 213.502 260.977Z" fill="white" stroke="#111111"/>
<path d="M341.696 213.566C341.693 213.822 341.688 214.173 341.683 214.608C341.672 215.588 341.656 216.993 341.638 218.693C341.602 222.092 341.56 226.668 341.532 231.379C341.503 236.089 341.489 240.932 341.51 244.865C341.532 248.812 341.589 251.807 341.699 252.847L341.696 213.566ZM341.696 213.566H380.943C382.477 214.723 383.264 215.886 383.618 217.094C383.985 218.35 383.903 219.717 383.598 221.289C383.42 222.211 383.177 223.156 382.916 224.171C382.723 224.918 382.521 225.704 382.327 226.547C381.879 228.499 381.505 230.662 381.505 233.079C381.505 238.126 385.369 241.191 389.748 242.263C394.108 243.331 399.226 242.493 401.986 239.495L401.986 239.495C404.697 236.549 405.279 233.12 404.782 229.85C404.287 226.596 402.725 223.485 401.126 221.087C401.126 221.088 401.126 221.088 401.126 221.088L341.696 213.566ZM403.57 213.566H441.025V213.58V213.608V213.637V213.667V213.697V213.728V213.76V213.792V213.825V213.859V213.894V213.929V213.965V214.002V214.039V214.077V214.116V214.155V214.195V214.236V214.277V214.319V214.361V214.405V214.449V214.493V214.538V214.584V214.631V214.678V214.726V214.774V214.823V214.873V214.923V214.974V215.025V215.077V215.13V215.183V215.237V215.292V215.347V215.402V215.459V215.515V215.573V215.631V215.689V215.749V215.808V215.869V215.929V215.991V216.053V216.115V216.178V216.242V216.306V216.371V216.436V216.502V216.568V216.635V216.702V216.77V216.839V216.908V216.977V217.047V217.118V217.189V217.26V217.332V217.404V217.477V217.551V217.625V217.699V217.774V217.849V217.925V218.002V218.078V218.156V218.233V218.312V218.39V218.469V218.549V218.629V218.709V218.79V218.871V218.953V219.035V219.118V219.201V219.284V219.368V219.452V219.537V219.622V219.708V219.794V219.88V219.967V220.054V220.141V220.229V220.317V220.406V220.495V220.585V220.674V220.765V220.855V220.946V221.037V221.129V221.221V221.313V221.406V221.499V221.592V221.686V221.78V221.874V221.969V222.064V222.159V222.255V222.351V222.447V222.544V222.641V222.738V222.836V222.933V223.032V223.13V223.229V223.328V223.427V223.527V223.626V223.727V223.827V223.928V224.029V224.13V224.231V224.333V224.435V224.537V224.64V224.742V224.845V224.948V225.052V225.156V225.259V225.364V225.468V225.572V225.677V225.782V225.887V225.993V226.099V226.204V226.31V226.417V226.523V226.63V226.736V226.843V226.951V227.058V227.165V227.273V227.381V227.489V227.597V227.705V227.814V227.923V228.031V228.14V228.249V228.359V228.468V228.578V228.687V228.797V228.907V229.017V229.127V229.237V229.348V229.458V229.569V229.679V229.79V229.901V230.012V230.123V230.234V230.345V230.457V230.568V230.68V230.791V230.903V231.015V231.126V231.238V231.35V231.462V231.574V231.686V231.798V231.91V232.022V232.135V232.247V232.359V232.471V232.584V232.696V232.808V232.921V233.033V233.146V233.258V233.37V233.483V233.595V233.708V233.82V233.932V234.045V234.157V234.27V234.382V234.494V234.606V234.719V234.831V234.943V235.055V235.167V235.279V235.391V235.503V235.615V235.727V235.838V235.95V236.062V236.173V236.284V236.396V236.507V236.618V236.729V236.84V236.951V237.062V237.173V237.283V237.394V237.504V237.615V237.725V237.835V237.945V238.055V238.164V238.274V238.383V238.492V238.602V238.711V238.819V238.928V239.037V239.145V239.253V239.361V239.469V239.577V239.685V239.792V239.899V240.006V240.113V240.22V240.326V240.432V240.538V240.644V240.75V240.856V240.961V241.066V241.171V241.275V241.38V241.484V241.588V241.692V241.795V241.898V242.001V242.104V242.207V242.309V242.411V242.513V242.614V242.716V242.817V242.917V243.018V243.118V243.218V243.318V243.417V243.516V243.615V243.714V243.812V243.91V244.007V244.105V244.202V244.298V244.395V244.491V244.587V244.682V244.777V244.872V244.966V245.061V245.154V245.248V245.341V245.434V245.526V245.618V245.71V245.801V245.892V245.983V246.073V246.163V246.253V246.342V246.431V246.519V246.607V246.695V246.782V246.869V246.955V247.041V247.127V247.212V247.297V247.381V247.465V247.549V247.632V247.715V247.797V247.879V247.96V248.041V248.122V248.202V248.281V248.361V248.439V248.518V248.596V248.673V248.75V248.826V248.902V248.978V249.053V249.127V249.202V249.275V249.348V249.421V249.493V249.565V249.636V249.706V249.776V249.846V249.915V249.984V250.052V250.119V250.186V250.253V250.319V250.384V250.449V250.513V250.577V250.64V250.703V250.765V250.827V250.888V250.948V251.008V251.067V251.126V251.184V251.242V251.299V251.355V251.411V251.466V251.521V251.575V251.629V251.681V251.734V251.785V251.836V251.887V251.937V251.986V252.034V252.082V252.13V252.176V252.222V252.268V252.312V252.357V252.4V252.443V252.485V252.526V252.567V252.608V252.647V252.686V252.724V252.762V252.798V252.835V252.87V252.905V252.939V252.972V253.005V253.037V253.068V253.099V253.129V253.158V253.186V253.214V253.241V253.267V253.293V253.318V253.342C441.025 254.439 441.3 255.37 441.84 256.079C442.382 256.791 443.16 257.236 444.084 257.411C445.907 257.755 448.3 257.055 450.83 255.331C453.189 253.724 456.605 253.066 459.792 253.638C462.967 254.209 465.846 255.986 467.229 259.176C468.625 262.398 468.255 266.07 466.732 269.028C465.207 271.99 462.568 274.162 459.497 274.481L459.497 274.481C456.35 274.808 453.345 273.887 450.704 272.932C450.343 272.801 449.988 272.669 449.639 272.54C448.727 272.202 447.861 271.881 447.079 271.648C446.006 271.328 444.982 271.137 444.113 271.339C442.445 271.726 441.502 272.944 440.988 273.999C440.729 274.529 440.57 275.034 440.476 275.405C440.429 275.591 440.397 275.746 440.377 275.855C440.367 275.91 440.36 275.953 440.355 275.984L440.35 276.021L440.349 276.032L440.348 276.035L440.348 276.037L440.348 276.037C440.348 276.037 440.348 276.037 440.386 276.042C440.437 276.049 440.558 276.064 440.844 276.1L440.348 276.038L440.344 276.069V276.1V314.574H408.412C408.397 314.573 408.377 314.57 408.352 314.568C408.295 314.562 408.213 314.554 408.11 314.547C407.903 314.531 407.609 314.516 407.258 314.513C406.558 314.509 405.614 314.559 404.66 314.781C403.71 315.003 402.713 315.405 401.947 316.132C401.167 316.875 400.664 317.923 400.664 319.349C400.664 320.739 401.175 322.365 401.756 324.047C401.852 324.323 401.949 324.601 402.047 324.881C402.559 326.343 403.093 327.866 403.441 329.42C403.856 331.265 403.997 333.107 403.539 334.866C403.084 336.613 402.027 338.323 399.964 339.895L399.964 339.895C395.87 343.021 391.193 342.602 387.671 340.519C384.115 338.415 381.874 334.708 382.497 331.381C383.076 328.292 383.823 326.131 384.436 324.354C384.529 324.085 384.619 323.824 384.705 323.571C385.356 321.646 385.791 320.074 385.425 318.134C385.076 316.257 384.41 315.315 383.712 314.875C383.367 314.657 383.04 314.58 382.79 314.561C382.666 314.552 382.563 314.556 382.486 314.565C382.458 314.567 382.434 314.571 382.413 314.574H341.929V276.344L341.929 276.34C341.93 276.328 341.932 276.308 341.934 276.282C341.938 276.23 341.946 276.153 341.957 276.055C341.981 275.858 342.021 275.578 342.088 275.253C342.224 274.598 342.463 273.786 342.875 273.093C343.284 272.403 343.838 271.873 344.595 271.684C345.356 271.495 346.432 271.622 347.946 272.487L347.946 272.487C351.203 274.342 356.109 275.315 360.501 274.651C364.905 273.986 368.909 271.643 370.097 266.762C371.284 261.904 368.966 257.44 365.564 254.679C362.18 251.933 357.563 250.75 354.048 252.689C350.809 254.472 347.735 255.443 345.454 255.469C344.315 255.481 343.421 255.258 342.799 254.833C342.196 254.42 341.799 253.785 341.699 252.847L403.57 213.566Z" fill="white" stroke="#111111"/>
<path d="M308.873 262.67C312.681 260.606 315.083 256.881 315.083 252.059C315.083 244.555 309.089 239.537 297.425 239.526V231.066H289.127V239.526H284.561H282.808V231.066H274.509V239.526H267V248.03H274.52V279.231H267V287.735H274.509V296.076H282.808V287.735H284.561H289.127V296.076H297.425V287.735H298.713C311.004 287.735 317.42 282.913 317.42 274.572C317.42 268.523 314.077 264.396 308.873 262.67ZM282.516 248.03H284.561V247.921H296.04C301.32 247.921 304.188 249.778 304.188 253.569C304.188 257.359 301.32 259.292 296.04 259.292H282.516V248.03ZM297.912 279.34H284.561V279.242H282.516V267.426H297.912C303.528 267.426 306.536 269.359 306.536 273.421C306.525 277.548 303.528 279.34 297.912 279.34Z" fill="#1A1466"/>
<path fill-rule="evenodd" clip-rule="evenodd" d="M290.46 145.163C290.269 145.221 290.101 145.268 290.087 145.269C290.072 145.27 290.004 145.38 289.935 145.514C289.846 145.686 289.807 146.056 289.802 146.764C289.798 147.317 289.768 148.034 289.735 148.357C289.679 148.898 289.653 148.961 289.405 149.141C289.256 149.248 288.71 149.469 288.191 149.631C286.179 150.26 285.03 150.83 283.857 151.779C282.131 153.175 281.302 154.903 281.302 157.102C281.302 159.122 282 160.486 283.771 161.923C285.283 163.15 286.929 163.93 290.503 165.11C293.558 166.119 294.322 166.46 295.179 167.194C296.144 168.021 296.364 169.066 295.779 170.046C295.017 171.324 292.592 172.006 289.852 171.711C287.869 171.498 286.081 171.069 284.123 170.337C283.126 169.964 282.962 169.931 282.685 170.051C282.412 170.17 282.206 170.585 281.656 172.117C280.99 173.973 280.909 174.328 281.072 174.647C281.445 175.37 283.957 176.178 287.443 176.696C288.123 176.797 288.773 176.914 288.887 176.957C289.26 177.094 289.313 177.312 289.367 178.922C289.442 181.144 289.336 181.065 292.239 181.065C295.173 181.065 295.042 181.172 295.104 178.746C295.134 177.569 295.181 177.006 295.257 176.898C295.451 176.623 295.907 176.409 296.797 176.174C299.621 175.431 301.772 173.959 303 171.93C304.85 168.873 304.094 165.365 301.055 162.9C299.704 161.806 298.198 161.107 294.453 159.842C291.822 158.952 290.782 158.489 289.995 157.857C288.709 156.824 288.878 155.409 290.385 154.589C291.198 154.147 291.879 154.032 293.628 154.042C295.746 154.053 297.182 154.297 299.197 154.989C299.754 155.18 300.343 155.336 300.506 155.336C301.083 155.336 301.245 155.056 302.133 152.527C302.65 151.055 302.654 150.873 302.173 150.505C301.674 150.124 299.521 149.506 297.795 149.25C296.171 149.008 295.785 148.911 295.589 148.697C295.426 148.517 295.403 148.369 295.357 147.177C295.3 145.702 295.201 145.397 294.713 145.2C294.329 145.044 290.953 145.015 290.46 145.163Z" fill="#111111"/>
<path fill-rule="evenodd" clip-rule="evenodd" d="M397.267 246.424C395.132 246.631 393.274 246.84 393.138 246.889C392.19 247.231 391.567 248.126 391.575 249.136C391.579 249.699 391.703 250.062 392.081 250.616C392.241 250.851 392.361 251.07 392.349 251.104C392.337 251.138 390.183 252.641 387.563 254.444C382.008 258.265 381.979 258.29 381.675 259.461C381.482 260.203 381.571 260.913 381.949 261.657C382.589 262.917 384.248 263.591 385.594 263.139C386.144 262.954 385.833 263.158 391.278 259.407C393.86 257.629 395.982 256.174 395.994 256.174C396.006 256.174 396.17 256.383 396.358 256.64C396.933 257.42 397.516 257.737 398.396 257.747C398.866 257.753 399.028 257.723 399.36 257.569C399.861 257.337 400.274 256.928 400.538 256.405C401.08 255.327 403.864 249.203 403.938 248.925C404.127 248.219 403.858 247.322 403.284 246.746C402.848 246.308 402.331 246.089 401.68 246.067C401.388 246.056 399.402 246.217 397.267 246.424ZM402.329 258.075C401.235 258.234 400.342 259.117 400.126 260.253C400.08 260.493 400.055 264.194 400.055 270.598C400.055 281.654 400.029 281.032 400.516 281.533C401.03 282.061 400.827 282.035 404.659 282.057C408.058 282.077 408.102 282.076 408.455 281.924C408.872 281.746 409.271 281.317 409.373 280.939C409.419 280.769 409.437 277.062 409.425 270.344L409.406 260.009L409.222 259.622C408.818 258.774 408.045 258.207 407.107 258.072C406.571 257.995 402.866 257.997 402.329 258.075ZM389.944 264.062C389.213 264.234 388.489 264.841 388.149 265.569L387.951 265.991L387.931 273.346C387.913 280.046 387.922 280.727 388.028 281.006C388.191 281.435 388.489 281.747 388.905 281.925C389.254 282.075 389.307 282.077 392.704 282.057L396.149 282.037L396.494 281.824C396.708 281.692 396.921 281.48 397.054 281.267L397.267 280.922V273.492V266.062L397.104 265.66C396.913 265.188 396.423 264.618 395.99 264.365C395.392 264.016 395.128 263.987 392.574 263.994C391.273 263.997 390.09 264.028 389.944 264.062ZM377.98 269.303C377.776 269.358 377.508 269.454 377.385 269.518C376.971 269.731 376.439 270.303 376.226 270.761L376.023 271.199L376.004 275.935C375.991 278.973 376.01 280.766 376.056 280.935C376.159 281.316 376.557 281.745 376.974 281.924C377.328 282.076 377.372 282.077 380.771 282.057C384.603 282.035 384.4 282.061 384.913 281.533C385.376 281.058 385.375 281.07 385.375 276.196C385.375 273.342 385.348 271.679 385.298 271.408C385.095 270.314 384.261 269.467 383.187 269.264C382.59 269.151 378.43 269.182 377.98 269.303Z" fill="#111111"/>
<path fill-rule="evenodd" clip-rule="evenodd" d="M172.843 240.147C172.075 240.398 171.535 240.874 171.193 241.601C171.032 241.944 171 242.12 171 242.647C171 243.212 171.026 243.334 171.242 243.773C171.524 244.345 171.928 244.739 172.516 245.014C172.864 245.178 173.038 245.21 173.566 245.21C174.093 245.21 174.267 245.178 174.616 245.014C175.203 244.739 175.607 244.345 175.889 243.773C176.105 243.334 176.131 243.212 176.131 242.647C176.131 242.118 176.099 241.945 175.935 241.596C175.503 240.675 174.683 240.117 173.693 240.07C173.37 240.055 173.032 240.085 172.843 240.147ZM205.712 240.147C204.944 240.398 204.404 240.874 204.062 241.601C203.901 241.944 203.869 242.12 203.869 242.647C203.869 243.212 203.895 243.334 204.111 243.773C204.393 244.345 204.797 244.739 205.384 245.014C205.733 245.178 205.907 245.21 206.434 245.21C206.962 245.21 207.136 245.178 207.484 245.014C208.072 244.739 208.476 244.345 208.758 243.773C208.974 243.334 209 243.212 209 242.647C209 242.118 208.968 241.945 208.804 241.596C208.372 240.675 207.551 240.117 206.562 240.07C206.239 240.055 205.901 240.085 205.712 240.147ZM188.368 243.548C185.442 243.854 182.399 245.108 180.256 246.89L179.796 247.273L178.736 246.216L177.677 245.158L177.52 245.411C177.357 245.675 176.552 246.471 176.257 246.661C176.087 246.77 176.104 246.789 177.633 248.307C178.941 249.605 179.224 249.851 179.459 249.895C179.96 249.988 180.223 249.884 180.799 249.361C183.337 247.06 186.111 245.886 189.405 245.716C190.429 245.664 190.741 245.54 190.966 245.1C191.048 244.939 191.115 244.704 191.115 244.578C191.115 244.209 190.852 243.781 190.522 243.613C190.197 243.447 189.532 243.427 188.368 243.548ZM200.771 246.711C199.472 248.019 199.227 248.302 199.182 248.537C199.094 249.007 199.2 249.322 199.586 249.736C201.382 251.665 202.52 253.763 203.039 256.101C203.246 257.033 203.386 258.142 203.386 258.85C203.386 259.443 203.582 259.837 203.978 260.039C204.553 260.332 205.192 260.134 205.477 259.575C205.625 259.285 205.634 259.19 205.59 258.32C205.424 255.047 204.229 251.859 202.252 249.419L201.807 248.871L202.861 247.815L203.915 246.76L203.618 246.554C203.306 246.338 202.606 245.627 202.418 245.336C202.309 245.166 202.29 245.182 200.771 246.711ZM189.57 248.047C188.691 248.48 187.752 250.418 187.252 252.83C187.045 253.829 186.824 255.42 186.768 256.323C186.743 256.711 186.705 257.238 186.683 257.494L186.642 257.958H189.993H193.345L193.303 257.271C193.05 253.089 192.198 249.861 190.995 248.524C190.48 247.951 190.054 247.809 189.57 248.047ZM185.761 248.77C182.286 250.223 179.768 253.291 179.062 256.931C178.984 257.336 178.92 257.732 178.92 257.812C178.92 257.955 178.986 257.958 181.665 257.958H184.41L184.453 257.382C184.748 253.407 185.217 251.01 186.068 249.121C186.185 248.86 186.282 248.634 186.282 248.619C186.282 248.567 186.166 248.6 185.761 248.77ZM193.718 248.619C193.718 248.634 193.815 248.86 193.932 249.121C194.69 250.802 195.304 253.69 195.464 256.323C195.488 256.711 195.526 257.238 195.548 257.494L195.589 257.958H198.335C201.071 257.958 201.08 257.958 201.08 257.803C201.08 257.488 200.768 256.118 200.548 255.468C200.239 254.556 199.537 253.22 198.966 252.458C198.384 251.68 197.373 250.671 196.581 250.078C195.812 249.502 193.718 248.435 193.718 248.619ZM174.961 258.112C174.784 258.205 174.624 258.373 174.523 258.572C174.375 258.862 174.366 258.957 174.41 259.827C174.552 262.631 175.419 265.3 176.943 267.622C177.198 268.01 177.584 268.541 177.801 268.801L178.195 269.274L177.135 270.336C176.093 271.379 176.077 271.399 176.251 271.492C176.51 271.63 177.339 272.442 177.52 272.736L177.677 272.989L179.153 271.514C179.966 270.703 180.68 269.934 180.742 269.804C180.89 269.493 180.883 269.125 180.723 268.836C180.651 268.706 180.33 268.304 180.008 267.944C179.219 267.059 178.632 266.203 178.1 265.16C177.174 263.345 176.743 261.727 176.638 259.668C176.585 258.645 176.462 258.333 176.022 258.108C175.655 257.921 175.32 257.922 174.961 258.112ZM178.92 260.335C178.92 260.415 178.984 260.811 179.062 261.216C179.703 264.518 181.943 267.487 184.928 268.989C185.545 269.3 186.214 269.573 186.255 269.532C186.27 269.517 186.187 269.29 186.069 269.028C185.217 267.137 184.748 264.741 184.453 260.765L184.41 260.189H181.665C178.986 260.189 178.92 260.192 178.92 260.335ZM186.697 260.876C186.96 265.21 187.84 268.434 189.108 269.713C189.55 270.158 189.828 270.273 190.238 270.183C190.386 270.151 190.635 269.971 190.892 269.713C192.158 268.437 193.041 265.201 193.303 260.876L193.345 260.189H190H186.655L186.697 260.876ZM195.548 260.653C195.526 260.909 195.488 261.436 195.464 261.824C195.304 264.447 194.687 267.351 193.932 269.026C193.815 269.287 193.718 269.513 193.718 269.528C193.718 269.718 195.823 268.638 196.62 268.039C197.454 267.413 198.708 266.104 199.23 265.316C199.769 264.502 200.26 263.519 200.546 262.679C200.767 262.032 201.08 260.662 201.08 260.344C201.08 260.189 201.071 260.189 198.335 260.189H195.589L195.548 260.653ZM199.766 268.347C199.636 268.418 199.234 268.74 198.873 269.062C197.181 270.571 195.13 271.629 192.973 272.108C192.042 272.314 190.932 272.454 190.223 272.454C189.631 272.454 189.237 272.65 189.034 273.047C188.741 273.621 188.939 274.259 189.498 274.545C189.789 274.693 189.884 274.701 190.753 274.657C194.04 274.491 197.077 273.354 199.663 271.321L200.216 270.886L201.27 271.937L202.323 272.989L202.48 272.736C202.661 272.442 203.49 271.63 203.749 271.492C203.922 271.399 203.895 271.366 202.448 269.918C201.635 269.105 200.864 268.389 200.735 268.328C200.423 268.18 200.056 268.187 199.766 268.347ZM172.843 273.003C172.075 273.254 171.535 273.73 171.193 274.457C171.032 274.8 171 274.976 171 275.503C171 276.068 171.026 276.19 171.242 276.629C171.524 277.202 171.928 277.595 172.516 277.87C172.864 278.034 173.038 278.066 173.566 278.066C174.093 278.066 174.267 278.034 174.616 277.87C175.203 277.595 175.607 277.202 175.889 276.629C176.105 276.19 176.131 276.068 176.131 275.503C176.131 274.974 176.099 274.801 175.935 274.452C175.503 273.532 174.683 272.973 173.693 272.926C173.37 272.911 173.032 272.942 172.843 273.003ZM205.712 273.003C204.944 273.254 204.404 273.73 204.062 274.457C203.901 274.8 203.869 274.976 203.869 275.503C203.869 276.068 203.895 276.19 204.111 276.629C204.393 277.202 204.797 277.595 205.384 277.87C205.733 278.034 205.907 278.066 206.434 278.066C206.962 278.066 207.136 278.034 207.484 277.87C208.072 277.595 208.476 277.202 208.758 276.629C208.974 276.19 209 276.068 209 275.503C209 274.974 208.968 274.801 208.804 274.452C208.372 273.532 207.551 272.973 206.562 272.926C206.239 272.911 205.901 272.942 205.712 273.003Z" fill="#111111"/>
<path fill-rule="evenodd" clip-rule="evenodd" d="M291.336 353.091C285.741 353.344 280.312 355.572 276.223 359.293C275.508 359.945 275.183 360.357 275.069 360.763C274.722 361.989 275.731 363.269 277.044 363.269C277.636 363.269 278.051 363.061 278.796 362.392C280.434 360.92 281.886 359.936 283.711 359.059C286.36 357.786 288.927 357.164 291.883 357.076C294.402 357.001 296.686 357.335 299.008 358.119C301.61 358.997 303.787 360.279 306.012 362.242C307.018 363.13 307.346 363.294 308.043 363.257C308.902 363.212 309.563 362.746 309.858 361.975C310.167 361.167 309.979 360.502 309.224 359.736C308.273 358.77 306.591 357.478 305.051 356.531C304.093 355.941 301.947 354.918 300.826 354.518C297.792 353.433 294.549 352.946 291.336 353.091ZM290.515 359.889C286.814 360.335 283.459 361.86 280.833 364.288C280.112 364.955 279.896 365.35 279.896 366.002C279.896 367.174 280.864 368.076 282.036 367.996C282.619 367.957 283.015 367.751 283.724 367.12C286.196 364.918 289.146 363.796 292.464 363.795C295.886 363.793 298.718 364.879 301.354 367.202C302.068 367.832 302.463 368.013 303.117 368.012C304.365 368.011 305.297 366.907 305.074 365.695C304.977 365.165 304.669 364.733 303.926 364.081C302.679 362.989 301.462 362.19 299.929 361.458C298.374 360.716 296.767 360.225 295.028 359.959C294.069 359.812 291.484 359.772 290.515 359.889ZM291.849 366.187C290.543 366.264 289.125 366.63 287.895 367.206C286.766 367.736 285.26 368.85 284.844 369.464C283.969 370.755 284.954 372.51 286.554 372.51C287.133 372.51 287.594 372.308 288.168 371.805C288.972 371.099 289.884 370.609 290.891 370.341C291.672 370.134 293.318 370.132 294.085 370.337C295.113 370.613 295.994 371.089 296.847 371.831C297.57 372.459 298.136 372.643 298.877 372.493C299.947 372.276 300.668 371.197 300.433 370.168C300.323 369.688 300.115 369.368 299.619 368.913C298.225 367.634 296.502 366.766 294.582 366.377C294.046 366.269 292.697 366.134 292.361 366.155C292.267 366.161 292.037 366.175 291.849 366.187ZM292.054 373.227C290.54 373.458 289.489 374.648 289.489 376.132C289.489 378.415 291.962 379.794 294.031 378.664C294.391 378.467 294.964 377.886 295.15 377.53C295.782 376.318 295.547 374.912 294.565 374.014C293.875 373.383 292.943 373.091 292.054 373.227Z" fill="#111111"/>
</g>
<defs>
<clipPath id="clip0_2_26370">
<rect width="354" height="306" fill="white" transform="translate(115 111.066)"/>
</clipPath>
</defs>
</svg>
