<svg width="1280" height="350" viewBox="0 0 1280 350" fill="none" xmlns="http://www.w3.org/2000/svg">
<path opacity="0.03" d="M710.369 238.008C709.244 236.394 708.006 234.844 706.662 233.368C695.685 221.34 681.334 216.249 664.94 212.839C648.007 209.317 628.181 208.223 611.923 214.571C608.096 216.083 604.46 218.078 601.584 220.799C590.706 231.049 586.974 248.217 574.861 261.787C562.748 275.357 556.84 292.262 567.714 308.308C572.317 315.103 578.186 320.702 585.129 325.629C593.677 331.675 601.051 339.855 610.932 344.586C621.315 349.556 635.144 351.288 646.637 349.012C659.747 346.415 667.436 336.089 677.443 329.06C685.333 323.51 694.773 319.877 702.503 314.151C714.348 305.384 723.33 291.279 721.838 277.304C720.372 263.737 718.486 249.638 710.369 238.008Z" fill="#3E1BDB"/>
<path d="M137.535 22.9272C131.628 16.8745 124.786 11.892 117.291 8.18684C106.128 2.7691 93.8203 0.160965 81.5342 0.00345137C45.5972 -0.447111 42.861 43.3564 31.8106 49.4554C20.7601 55.5545 0.742116 56.2652 0.0360154 80.6248C-0.398237 95.9476 3.05107 111.706 12.7458 123.644C21.625 134.579 34.6667 140.128 47.5178 144.213C61.9505 148.814 77.2552 153.323 92.4364 150.22C108.016 147.037 118.961 134.238 131.752 125.589C139.809 120.142 147.039 114.41 152.014 105.67C152.607 104.629 153.165 103.56 153.694 102.479C160.353 88.9035 161.659 73.24 157.987 58.5473C154.697 45.3491 147.258 32.7956 137.535 22.9272Z" fill="#F9F8FE"/>
<path d="M324.369 143.258C323.244 141.513 322.006 139.839 320.662 138.245C309.685 125.25 295.334 119.751 278.94 116.067C262.007 112.262 242.181 111.08 225.923 117.938C222.096 119.571 218.46 121.727 215.584 124.666C204.706 135.74 200.974 154.286 188.861 168.947C176.748 183.607 170.84 201.869 181.714 219.204C186.317 226.545 192.186 232.593 199.129 237.916C207.677 244.448 215.051 253.285 224.932 258.396C235.315 263.765 249.144 265.636 260.637 263.177C273.747 260.372 281.436 249.216 291.443 241.623C299.333 235.627 308.773 231.702 316.503 225.516C328.348 216.046 337.33 200.807 335.838 185.71C334.372 171.053 332.486 155.821 324.369 143.258Z" fill="#F9F8FE"/>
<path d="M1096.37 152.002C1095.24 150.388 1094.01 148.838 1092.66 147.363C1081.69 135.337 1067.33 130.248 1050.94 126.838C1034.01 123.317 1014.18 122.223 997.923 128.57C994.096 130.081 990.46 132.076 987.584 134.796C976.706 145.045 972.974 162.209 960.861 175.776C948.748 189.343 942.84 206.244 953.714 222.286C958.317 229.081 964.186 234.678 971.129 239.604C979.677 245.649 987.051 253.827 996.932 258.557C1007.32 263.526 1021.14 265.258 1032.64 262.982C1045.75 260.386 1053.44 250.062 1063.44 243.035C1071.33 237.486 1080.77 233.853 1088.5 228.129C1100.35 219.364 1109.33 205.262 1107.84 191.289C1106.37 177.725 1104.49 163.629 1096.37 152.002Z" fill="#F9F8FE"/>
<path d="M890.948 298.764C877.154 314.01 853.222 306.716 845.269 296.436C827.37 273.295 832.706 252.207 822.611 246.449C810.296 239.446 794.096 271.5 774.183 268.839C761.168 267.101 753.895 256.313 754.309 233.582C754.897 201.897 764.823 178.34 776.404 170.228C800.047 153.673 834.312 161.544 852.675 166.602C867.841 170.774 891.216 168.861 907.703 202.08C917.437 221.689 917.551 269.367 890.948 298.764Z" fill="#F9F8FE"/>
<path d="M538.073 236.311C541.649 216.064 521.206 201.641 508.209 201.668C478.954 201.731 465.575 218.883 454.834 214.444C441.749 209.016 457.121 176.557 442.803 162.465C433.445 153.255 420.464 154.129 402.768 168.403C378.108 188.307 365.595 210.598 366.296 224.72C367.728 253.548 394.967 275.777 410.227 287.174C422.827 296.59 435.657 316.222 472.004 308.861C493.461 304.517 531.181 275.354 538.073 236.311Z" fill="#F9F8FE"/>
<path d="M1272.01 107.309C1281.59 89.1917 1282.25 65.051 1275.62 45.6981C1269.93 29.037 1257.25 16.3221 1242.61 8.75741C1225.63 -0.0207391 1205.39 -2.63369 1187.15 2.90741C1182.36 4.36361 1177.69 5.70003 1173.17 8.0955C1154.63 17.9106 1158.22 42.0986 1151.71 50.5143C1146.24 57.5935 1135.78 55.5069 1129.19 60.9314C1111.41 75.5785 1121.7 113.304 1140.78 126.845C1163 142.611 1248.28 152.171 1272.01 107.309Z" fill="#F9F8FE"/>
<path fill-rule="evenodd" clip-rule="evenodd" d="M224.95 132.054C224.022 132.204 223.011 132.812 222.39 133.596C221.977 134.117 221.869 134.436 221.335 136.695L220.741 139.212L219.557 139.024C217.601 138.712 216.118 139.226 214.937 140.624L214.4 141.259L208.047 170.732L201.693 200.205L201.892 200.923C202.163 201.902 202.772 202.861 203.533 203.504L204.168 204.041L225.689 208.72C246.597 213.266 247.221 213.393 247.602 213.2C248.146 212.925 248.335 212.058 247.953 211.584C247.689 211.255 246.981 211.094 226.537 206.686C205.757 202.207 205.385 202.122 204.899 201.725C204.627 201.503 204.299 201.078 204.17 200.78L203.937 200.239L208.978 176.674L214.019 153.108L221.126 154.64L228.232 156.172L228.66 155.896C229.206 155.544 229.324 154.994 228.972 154.449L228.696 154.021L221.585 152.488L214.474 150.955L215.466 146.554C216.455 142.168 216.46 142.151 216.907 141.744C217.499 141.204 218.444 141.012 219.454 141.226L220.262 141.397L220.049 142.676C219.88 143.697 219.881 144.137 220.058 144.848C220.428 146.343 221.463 147.34 223.006 147.685C224.117 147.934 225.1 147.782 225.962 147.228C226.978 146.577 227.438 145.889 227.867 144.38L228.227 143.114L230.555 143.615L232.883 144.117L232.659 145.457C232.335 147.4 232.737 148.662 234.005 149.676C235.304 150.715 237.319 150.791 238.69 149.853C239.633 149.207 240.076 148.475 240.388 147.048L240.661 145.794L243.083 146.316L245.504 146.838L245.263 148.249C245.002 149.78 245.062 150.245 245.662 151.321C246.749 153.273 249.609 153.843 251.416 152.468C252.285 151.807 252.745 151.005 253.04 149.637L253.282 148.515L255.72 149.04L258.158 149.566L257.89 150.821C257.586 152.249 257.688 153.099 258.282 154.076C259.144 155.496 261.012 156.257 262.624 155.845C264.197 155.443 265.083 154.46 265.588 152.556L265.936 151.243L268.264 151.744L270.592 152.246L270.398 153.548C270.171 155.075 270.306 155.948 270.909 156.853C271.589 157.875 272.101 158.2 273.491 158.497C274.865 158.79 275.344 158.715 276.382 158.045C277.313 157.444 277.816 156.669 278.218 155.21L278.562 153.964L279.366 154.141C280.372 154.362 281.154 154.927 281.471 155.662C281.71 156.217 281.708 156.235 280.802 160.638L279.893 165.058L256.074 159.923L232.255 154.788L231.828 155.065C231.282 155.416 231.164 155.966 231.516 156.512L231.792 156.94L255.606 162.073L279.42 167.207L274.305 190.756L269.189 214.305L268.754 214.702C268.514 214.921 268.04 215.173 267.701 215.263C267.108 215.421 266.77 215.36 259.143 213.715L251.203 212.004L250.82 212.268C250.275 212.645 250.161 213.326 250.563 213.811C250.879 214.193 250.934 214.206 259.075 215.919L267.269 217.643L268.057 217.468C269.052 217.247 270.021 216.65 270.711 215.834L271.248 215.199L277.601 185.726L283.955 156.253L283.728 155.453C283.227 153.692 282.087 152.614 280.176 152.092L279.021 151.776L279.516 149.237C279.967 146.924 279.995 146.63 279.824 145.946C279.463 144.506 278.169 143.224 276.773 142.923C275.325 142.61 273.641 143.266 272.748 144.488C272.299 145.103 272.186 145.43 271.659 147.636L271.07 150.098L268.718 149.591L266.366 149.084L266.855 146.815C267.446 144.071 267.431 143.294 266.766 142.164C266.204 141.211 265.531 140.648 264.581 140.338C263.016 139.828 261.289 140.349 260.254 141.643C259.742 142.283 259.702 142.402 259.172 144.861L258.621 147.414L256.183 146.889L253.745 146.363L254.284 143.866L254.822 141.369L254.549 140.359C253.954 138.159 251.812 136.971 249.603 137.617C248.747 137.867 247.852 138.55 247.356 139.33C247.193 139.587 246.878 140.712 246.545 142.222L246.001 144.694L243.563 144.168L241.125 143.643L241.676 141.089C242.206 138.63 242.218 138.505 242.015 137.711C241.605 136.105 240.246 134.92 238.608 134.739C237.68 134.637 236.989 134.803 236.112 135.337C234.82 136.124 234.658 136.428 233.97 139.361L233.358 141.968L231.017 141.464L228.677 140.959L229.154 138.473C229.583 136.246 229.614 135.901 229.459 135.156C229.026 133.087 227.035 131.717 224.95 132.054ZM226.622 134.568C227.488 135.17 227.486 135.205 226.383 140.324L225.389 144.933L224.796 145.316C224.29 145.642 224.105 145.677 223.53 145.553C222.958 145.43 222.799 145.32 222.483 144.831C221.984 144.057 222.02 143.714 223.094 138.998C224.09 134.624 224.154 134.479 225.185 134.272C225.821 134.144 226.096 134.201 226.622 134.568ZM239.247 137.312C240.079 137.951 240.074 138.078 239.022 142.957C237.981 147.784 237.906 147.978 236.99 148.227C236.001 148.495 235.002 147.935 234.779 146.986C234.681 146.57 234.822 145.732 235.577 142.229C236.59 137.528 236.65 137.378 237.642 137.033C238.267 136.815 238.698 136.89 239.247 137.312ZM252.225 140.474L252.573 141.013L251.642 145.533C250.845 149.4 250.665 150.109 250.394 150.437C249.56 151.449 247.719 151.052 247.376 149.786C247.265 149.376 247.392 148.657 248.258 144.813L249.27 140.319L249.712 140.011C250.303 139.599 250.675 139.54 251.329 139.755C251.704 139.878 251.986 140.105 252.225 140.474ZM264.444 142.749C264.654 142.921 264.907 143.297 265.006 143.583C265.175 144.067 265.125 144.39 264.265 148.383C263.505 151.913 263.287 152.737 263.026 153.076C262.219 154.126 260.475 153.872 260.047 152.641C259.872 152.14 259.917 151.854 260.815 147.685C261.869 142.792 261.917 142.671 262.917 142.42C263.539 142.263 263.968 142.356 264.444 142.749ZM277.295 145.709C277.462 145.9 277.628 146.292 277.665 146.581C277.749 147.251 276.161 154.776 275.784 155.495C275.404 156.22 274.646 156.572 273.842 156.399C273.295 156.281 273.133 156.166 272.811 155.666L272.428 155.074L273.422 150.465C274.305 146.366 274.451 145.82 274.74 145.536C275.406 144.878 276.638 144.962 277.295 145.709ZM220.069 160.184L219.641 160.46L218.726 164.704L217.811 168.948L218.087 169.376L218.363 169.804L222.61 170.719C225.105 171.257 226.977 171.6 227.149 171.551C227.706 171.391 227.929 170.744 228.765 166.868C229.6 162.993 229.663 162.311 229.222 161.936C229.085 161.82 227.239 161.361 224.743 160.823L220.496 159.908L220.069 160.184ZM233.944 163.154C233.568 163.414 233.543 163.501 232.632 167.723L231.705 172.027L231.969 172.411C232.229 172.787 232.316 172.812 236.538 173.722L240.842 174.65L241.225 174.385C241.601 174.125 241.626 174.038 242.541 169.797C243.46 165.533 243.469 165.468 243.222 165.113C242.981 164.767 242.8 164.716 238.649 163.821L234.327 162.889L233.944 163.154ZM247.839 166.102C247.506 166.318 247.449 166.519 246.553 170.677L245.615 175.026L245.88 175.41C246.14 175.786 246.227 175.811 250.463 176.724L254.782 177.655L255.161 177.341C255.524 177.04 255.575 176.86 256.457 172.769L257.375 168.511L257.111 168.127C256.851 167.751 256.764 167.726 252.517 166.811C248.379 165.919 248.173 165.887 247.839 166.102ZM261.879 169.016C261.335 169.271 261.137 169.86 260.318 173.658C259.48 177.546 259.416 178.227 259.858 178.602C259.994 178.718 261.841 179.177 264.337 179.715L268.583 180.63L269.011 180.354L269.439 180.078L270.354 175.834L271.269 171.59L270.993 171.162L270.717 170.734L266.435 169.811C263.232 169.12 262.085 168.92 261.879 169.016ZM226.47 166.374L225.867 169.17L223.071 168.568L220.274 167.965L220.877 165.168L221.48 162.371L224.276 162.974L227.073 163.577L226.47 166.374ZM240.381 169.372L239.778 172.169L236.982 171.566L234.185 170.963L234.788 168.167L235.391 165.37L238.187 165.973L240.984 166.576L240.381 169.372ZM254.292 172.371L253.689 175.168L250.893 174.565L248.096 173.962L248.699 171.166L249.302 168.369L252.098 168.972L254.895 169.574L254.292 172.371ZM268.203 175.37L267.6 178.167L264.803 177.564L262.007 176.961L262.61 174.164L263.213 171.368L266.009 171.97L268.806 172.573L268.203 175.37ZM217.039 174.24L216.611 174.516L215.701 178.734C214.828 182.784 214.801 182.969 215.008 183.394L215.224 183.836L219.637 184.787C223.941 185.715 224.058 185.732 224.388 185.495C224.705 185.268 224.785 184.98 225.653 180.952L226.58 176.652L226.253 176.219L225.925 175.787L221.696 174.875L217.466 173.963L217.039 174.24ZM230.95 177.238L230.522 177.514L229.599 181.797C228.712 185.908 228.684 186.094 228.9 186.456C229.122 186.827 229.184 186.845 233.493 187.774C237.671 188.675 237.877 188.706 238.211 188.491C238.544 188.276 238.6 188.075 239.5 183.902L240.441 179.538L240.127 179.159C239.826 178.796 239.645 178.744 235.595 177.871L231.377 176.962L230.95 177.238ZM244.898 180.188L244.456 180.404L243.516 184.768C242.616 188.94 242.585 189.147 242.8 189.48C243.015 189.814 243.216 189.87 247.393 190.771C251.702 191.7 251.767 191.709 252.122 191.461C252.468 191.221 252.519 191.04 253.405 186.928L254.328 182.646L254.052 182.218L253.776 181.791L249.558 180.881C245.508 180.008 245.323 179.981 244.898 180.188ZM258.923 183.084C258.319 183.23 258.081 183.939 257.221 188.157C256.482 191.783 256.436 192.113 256.629 192.446C256.832 192.797 256.947 192.83 261.25 193.758L265.663 194.709L266.042 194.395C266.405 194.094 266.457 193.913 267.33 189.863L268.239 185.645L267.963 185.217L267.687 184.789L263.483 183.893C260.772 183.315 259.153 183.028 258.923 183.084ZM223.44 180.429L222.837 183.226L220.041 182.623L217.244 182.02L217.847 179.223L218.45 176.427L221.246 177.029L224.043 177.632L223.44 180.429ZM237.351 183.428L236.748 186.225L233.952 185.622L231.155 185.019L231.758 182.222L232.361 179.425L235.157 180.028L237.954 180.631L237.351 183.428ZM251.262 186.427L250.659 189.223L247.863 188.62L245.066 188.018L245.669 185.221L246.272 182.424L249.068 183.027L251.865 183.63L251.262 186.427ZM265.173 189.425L264.57 192.222L261.774 191.619L258.977 191.016L259.58 188.22L260.183 185.423L262.979 186.026L265.776 186.629L265.173 189.425ZM214.322 188.17C214.136 188.215 213.878 188.394 213.749 188.568C213.425 189.003 211.756 196.744 211.871 197.273C212.021 197.957 212.345 198.074 216.658 199.004L220.731 199.882L221.208 199.622L221.685 199.363L222.618 195.035L223.55 190.708L223.223 190.275L222.895 189.842L218.778 188.965C216.256 188.427 214.529 188.119 214.322 188.17ZM228.232 191.14C228.044 191.174 227.794 191.316 227.676 191.455C227.539 191.617 227.137 193.217 226.551 195.932C225.701 199.878 225.654 200.183 225.842 200.554L226.043 200.952L230.442 201.9L234.842 202.849L235.189 202.569C235.513 202.308 235.596 202.01 236.457 198.019C237.317 194.028 237.364 193.722 237.177 193.35L236.976 192.952L232.774 192.015C230.464 191.5 228.42 191.106 228.232 191.14ZM242.143 194.139C241.955 194.173 241.705 194.315 241.587 194.454C241.45 194.616 241.048 196.216 240.462 198.931C239.612 202.876 239.565 203.181 239.753 203.553L239.954 203.951L244.353 204.899L248.753 205.847L249.1 205.568C249.424 205.307 249.507 205.009 250.368 201.017C251.228 197.027 251.275 196.721 251.088 196.349L250.886 195.951L246.685 195.014C244.375 194.499 242.331 194.105 242.143 194.139ZM255.722 197.281L255.245 197.54L254.312 201.868L253.379 206.195L253.707 206.628L254.034 207.061L258.107 207.939C260.786 208.516 262.311 208.788 262.563 208.733C263.246 208.584 263.365 208.256 264.279 204.016C265.193 199.777 265.219 199.429 264.659 199.012C264.451 198.857 262.95 198.477 260.271 197.899L256.199 197.021L255.722 197.281ZM220.394 194.559L219.775 197.431L217.023 196.797L214.27 196.163L214.802 193.505C215.095 192.044 215.384 190.772 215.444 190.68C215.529 190.551 216.196 190.649 218.284 191.099L221.013 191.688L220.394 194.559ZM234.306 197.555L233.687 200.423L230.891 199.82L228.094 199.218L228.713 196.349L229.331 193.481L232.127 194.084L234.924 194.686L234.306 197.555ZM248.217 200.554L247.598 203.422L244.802 202.819L242.005 202.216L242.624 199.348L243.242 196.48L246.038 197.082L248.835 197.685L248.217 200.554ZM262.056 203.537L261.453 206.334L258.684 205.778L255.915 205.221L256.535 202.347L257.154 199.472L259.907 200.106L262.659 200.74L262.056 203.537Z" fill="#8A86B2"/>
<path fill-rule="evenodd" clip-rule="evenodd" d="M64.1222 50.0549C61.0094 50.3375 57.878 51.8803 55.6666 54.2208C51.7928 58.3208 50.9068 64.2132 53.3997 69.2979C56.9319 76.503 65.9408 78.96 72.7244 74.5686C73.6773 73.9516 75.2398 72.4988 75.9607 71.5595C78.6755 68.0216 79.4618 63.2122 78.0057 59.0508C75.9609 53.2071 70.239 49.4995 64.1222 50.0549ZM108.319 50.1081C107.909 50.217 104.38 53.7032 80.2046 77.8779C63.4525 94.6298 52.4597 105.708 52.3073 105.992C51.9606 106.639 51.9592 107.805 52.3045 108.456C52.9786 109.728 54.2823 110.272 55.6929 109.87L56.3848 109.672L84.0087 82.0223C109.554 56.4533 111.647 54.3288 111.822 53.7942C112.176 52.7162 111.955 51.6547 111.214 50.8713C110.531 50.1499 109.342 49.8364 108.319 50.1081ZM67.6865 56.0193C72.2555 57.4697 74.3906 62.5677 72.2435 66.9004C71.8675 67.659 71.5515 68.0766 70.7578 68.8642C69.1649 70.4442 67.6068 71.0849 65.3485 71.0884C63.9905 71.0905 63.1443 70.8886 61.8464 70.2526C60.046 69.3705 58.58 67.6235 57.9712 65.6349C56.4104 60.5361 60.5023 55.3369 65.8107 55.6741C66.3561 55.7087 67.1933 55.8628 67.6865 56.0193ZM96.171 83.4743C91.157 84.3825 87.0471 88.2483 85.6603 93.3607C85.3794 94.3961 85.3528 94.6848 85.355 96.6656C85.3572 98.6635 85.383 98.9293 85.6788 100.009C87.0403 104.981 90.8685 108.606 95.9834 109.767C97.2918 110.064 100.173 110.039 101.461 109.719C104.206 109.037 106.035 108.039 107.938 106.186C113.293 100.973 113.362 92.5094 108.092 87.2142C106.09 85.2024 103.716 83.9572 100.934 83.4594C99.7703 83.2513 97.3605 83.2588 96.171 83.4743ZM100.569 89.1539C104.49 90.1575 107.007 94.1334 106.218 98.0779C105.92 99.5649 105.26 100.836 104.22 101.926C103.225 102.968 102.245 103.592 100.966 103.998C97.3044 105.16 93.3874 103.479 91.6779 100.012C90.606 97.8376 90.6551 95.2233 91.8099 92.9935C92.463 91.7324 93.8399 90.3926 95.1305 89.7623C95.6786 89.4947 96.4171 89.1998 96.7718 89.1069C97.7318 88.8555 99.4878 88.8772 100.569 89.1539Z" fill="#8A86B2"/>
<path fill-rule="evenodd" clip-rule="evenodd" d="M464.601 205.046C461.489 205.793 461.376 205.874 455.962 211.235C453.361 213.81 451.066 216.185 450.863 216.512C450.325 217.377 450.342 219.076 450.896 219.968C451.701 221.264 453.284 221.861 454.82 221.447C455.469 221.272 456.056 220.767 459.025 217.827C461.356 215.52 462.476 214.518 462.474 214.739C462.471 215.617 462.103 219.159 461.866 220.594C460.478 229.018 456.484 237.213 450.701 243.504C450.082 244.177 449.464 244.945 449.326 245.211C448.433 246.939 449.104 248.914 450.881 249.791C451.625 250.159 451.926 250.217 452.635 250.133C453.814 249.994 454.417 249.571 456.028 247.757C464.057 238.718 468.314 228.488 469.201 216.106L469.31 214.594L472.479 217.758C474.488 219.762 475.881 221.018 476.281 221.183C478.509 222.105 481.014 220.463 481 218.091C480.992 216.738 480.515 216.124 475.854 211.472C471.224 206.851 470.008 205.864 468.339 205.379C467.388 205.102 465.184 204.906 464.601 205.046ZM465.741 246.289C464.959 246.529 463.891 247.652 463.672 248.465C463.547 248.93 463.505 255.434 463.536 269.436L463.581 289.733L463.984 290.382C464.206 290.739 464.698 291.237 465.077 291.488C465.651 291.868 465.954 291.944 466.895 291.944C467.836 291.944 468.14 291.868 468.714 291.488C469.093 291.237 469.585 290.739 469.807 290.382L470.21 289.733V269.068V248.403L469.807 247.754C469.005 246.464 467.244 245.829 465.741 246.289ZM437.064 253.751C436.784 253.823 435.866 254.172 435.024 254.525C431.81 255.876 428.213 256.902 424.911 257.412C423.929 257.563 422.935 257.732 422.701 257.786C422.467 257.841 416.425 257.933 409.273 257.992L396.269 258.098L395.621 258.501C395.264 258.723 394.766 259.215 394.516 259.594C394.136 260.169 394.06 260.473 394.06 261.414C394.06 262.356 394.136 262.66 394.516 263.234C394.766 263.613 395.264 264.105 395.621 264.327L396.269 264.731L407.743 264.784C419.763 264.84 422.411 264.743 426.186 264.111C430.246 263.431 434.71 262.118 438.161 260.587C439.621 259.939 440.036 259.67 440.488 259.076C441.142 258.217 441.364 257.095 441.073 256.122C440.847 255.367 440.034 254.364 439.376 254.027C438.776 253.72 437.684 253.589 437.064 253.751ZM451.803 260.236C451.018 260.476 449.953 261.598 449.733 262.416C449.607 262.882 449.564 267.299 449.596 276.415L449.643 289.733L450.046 290.382C450.268 290.739 450.76 291.237 451.138 291.488C451.712 291.868 452.016 291.944 452.957 291.944C453.898 291.944 454.202 291.868 454.776 291.488C455.155 291.237 455.647 290.739 455.868 290.382L456.272 289.733V276.041V262.35L455.868 261.701C455.067 260.41 453.306 259.776 451.803 260.236ZM437.865 268.06C437.077 268.301 436.015 269.422 435.793 270.246C435.668 270.71 435.624 273.965 435.656 280.345L435.704 289.758L436.16 290.448C436.863 291.509 437.693 291.944 439.019 291.944C440.344 291.944 441.175 291.509 441.878 290.447L442.334 289.758V279.966V270.174L441.93 269.524C441.129 268.234 439.367 267.6 437.865 268.06ZM424.097 271.631C423.333 271.865 422.252 272.989 422.033 273.777C421.919 274.188 421.853 277.147 421.852 281.847L421.851 289.269L422.324 290.175C422.71 290.913 422.971 291.173 423.727 291.572C424.521 291.99 424.788 292.048 425.567 291.971C426.643 291.863 427.617 291.259 428.184 290.347C428.565 289.733 428.565 289.729 428.565 281.739V273.745L428.162 273.096C427.36 271.806 425.599 271.171 424.097 271.631ZM396.22 271.801C395.43 272.043 394.37 273.164 394.147 273.992C394.022 274.455 393.977 277.151 394.011 282.207L394.06 289.733L394.463 290.382C394.685 290.739 395.177 291.237 395.555 291.488C396.129 291.868 396.433 291.944 397.374 291.944C398.315 291.944 398.619 291.868 399.193 291.488C399.572 291.237 400.064 290.739 400.285 290.382L400.689 289.733V281.824V273.915L400.285 273.266C399.484 271.976 397.723 271.341 396.22 271.801ZM410.159 271.801C409.368 272.043 408.308 273.164 408.085 273.992C407.961 274.455 407.916 277.151 407.949 282.207L407.998 289.733L408.401 290.382C408.623 290.739 409.115 291.237 409.494 291.488C410.068 291.868 410.371 291.944 411.312 291.944C412.253 291.944 412.557 291.868 413.131 291.488C413.51 291.237 414.002 290.739 414.224 290.382L414.627 289.733V281.824V273.915L414.224 273.266C413.422 271.976 411.661 271.341 410.159 271.801Z" fill="#8A86B2"/>
<path d="M1008.02 212.212L1006.27 213.961C1006.28 213.968 1006.28 213.968 1006.28 213.974L1008.03 212.224C1008.03 212.218 1008.02 212.218 1008.02 212.212Z" fill="#8A86B2"/>
<path d="M1052.87 220.62L1051.67 219.421L1052.87 220.62Z" fill="#8A86B2"/>
<path d="M1050.34 218.092L1051.67 219.421L1050.34 218.092Z" fill="#8A86B2"/>
<path d="M1049.8 221.047L1048.04 219.285C1042.53 223.668 1035.57 226.296 1028 226.296C1020.43 226.296 1013.47 223.668 1007.96 219.291L1006.2 221.053C1012.16 225.876 1019.74 228.769 1028 228.769C1036.25 228.769 1043.84 225.876 1049.8 221.047Z" fill="#8A86B2"/>
<path d="M1004.68 212.057L1006.44 210.295C1003.02 205.775 1001 200.149 1001 194.059C1001 179.17 1013.11 167.052 1028 167.052C1034.09 167.052 1039.71 169.08 1044.24 172.493L1046 170.731C1041.02 166.879 1034.78 164.579 1028.01 164.579C1011.75 164.579 998.529 177.804 998.529 194.059C998.523 200.835 1000.82 207.08 1004.68 212.057Z" fill="#8A86B2"/>
<path d="M1028 154C1017.41 154 1007.79 158.143 1000.62 164.876C1000.02 165.438 999.438 166.026 998.869 166.625L1000.62 168.375L1002.6 170.36C996.811 176.567 993.255 184.89 993.255 194.034C993.255 204.05 997.522 213.083 1004.32 219.427L1006.07 217.677C1006.07 217.677 1006.07 217.677 1006.07 217.671L1008.02 215.717C1013.28 220.571 1020.29 223.539 1027.99 223.539C1044.25 223.539 1057.47 210.313 1057.47 194.059C1057.47 186.361 1054.5 179.344 1049.65 174.088C1049.65 174.082 1049.64 174.082 1049.64 174.076L1049.64 174.07L1051.62 172.085L1053.37 170.335C1052.81 169.735 1052.23 169.16 1051.64 168.604C1045.43 162.829 1037.12 159.286 1028 159.286C1018.87 159.286 1010.56 162.829 1004.35 168.604L1002.37 166.619C1009.08 160.331 1018.09 156.467 1028 156.467C1048.69 156.467 1065.52 173.303 1065.52 193.991C1065.52 203.896 1061.66 212.904 1055.37 219.619L1053.41 217.665C1059.19 211.457 1062.73 203.148 1062.73 194.022C1062.73 185.761 1059.83 178.169 1055 172.202L1053.24 173.964C1057.63 179.48 1060.26 186.448 1060.26 194.028C1060.26 203.358 1056.27 211.773 1049.92 217.671L1053.62 221.375C1046.91 227.663 1037.9 231.527 1028 231.527C1007.31 231.527 990.473 214.691 990.473 194.003C990.473 184.988 993.67 176.71 998.987 170.236L997.231 168.48C991.469 175.405 988 184.308 988 194.003C988 216.057 1005.94 234 1028 234C1038.58 234 1048.21 229.857 1055.37 223.124C1055.97 222.562 1056.56 221.974 1057.12 221.375C1063.86 214.215 1068 204.582 1068 193.997C1068 171.943 1050.06 154 1028 154ZM1028 161.766C1036.44 161.766 1044.13 165.03 1049.89 170.36L1047.91 172.345L1046.16 174.094C1046.77 174.651 1047.35 175.232 1047.91 175.844C1052.31 180.648 1055 187.047 1055 194.065C1055 208.953 1042.89 221.072 1028 221.072C1020.98 221.072 1014.58 218.382 1009.78 213.974C1009.17 213.417 1008.58 212.836 1008.03 212.224L1006.28 213.974L1004.32 215.928C998.993 210.171 995.729 202.48 995.729 194.034C995.735 176.24 1010.21 161.766 1028 161.766Z" fill="#8A86B2"/>
<path fill-rule="evenodd" clip-rule="evenodd" d="M1029.13 180.01C1026.54 180.238 1024.53 181.048 1022.27 182.777C1021.38 183.456 1020.83 183.964 1020.26 184.613C1019.15 185.896 1018.36 187.222 1017.8 188.8L1017.58 189.413L1015.46 189.414L1013.35 189.414V190.968V192.522L1015.1 192.536L1016.84 192.551L1016.88 194.051C1016.9 194.876 1016.93 195.606 1016.95 195.674L1017 195.796H1015.17H1013.35V197.487V199.179H1015.61H1017.88L1018.09 199.765C1018.37 200.521 1019.01 201.728 1019.5 202.434C1019.9 203.019 1020.75 203.996 1021.22 204.421C1023.22 206.234 1025.62 207.367 1028.34 207.78C1029.31 207.927 1031.42 207.913 1032.51 207.752C1035.54 207.301 1037.93 206.083 1039.76 204.044C1040.02 203.753 1040.26 203.484 1040.28 203.447C1040.31 203.402 1039.8 202.776 1038.86 201.691L1037.4 200.004L1036.91 200.447C1036 201.281 1034.59 202.279 1033.79 202.669C1033.32 202.896 1032.71 203.091 1032.07 203.225C1031.57 203.329 1031.31 203.346 1030.24 203.347C1028.84 203.348 1028.43 203.287 1027.44 202.93C1025.89 202.368 1024.58 201.23 1023.63 199.601L1023.44 199.288H1028.13H1032.82V197.597V195.906L1027.61 195.892L1022.41 195.878L1022.36 195.66C1022.34 195.54 1022.3 194.822 1022.28 194.064L1022.25 192.687H1027.53H1032.82V190.996V189.305H1028C1025.34 189.305 1023.17 189.29 1023.17 189.272C1023.17 189.171 1023.88 188.055 1024.23 187.607C1025.15 186.435 1026.56 185.435 1027.91 185.001C1028.76 184.728 1029.37 184.648 1030.55 184.651C1031.78 184.654 1032.72 184.765 1033.47 184.998C1034.45 185.298 1035.67 186.109 1036.92 187.276L1037.69 188.004L1039.15 186.257C1040.36 184.805 1040.6 184.493 1040.55 184.412C1040.46 184.257 1039.08 182.974 1038.64 182.638C1038.03 182.171 1037.15 181.638 1036.41 181.288C1034.61 180.429 1032.85 180.044 1030.58 180.007C1029.92 179.997 1029.27 179.998 1029.13 180.01Z" fill="#8A86B2"/>
<path d="M642.003 315.574C660.16 315.574 675.099 301.577 676.617 283.803C677.652 283.445 678.399 282.473 678.399 281.318C678.399 280.189 677.69 279.235 676.692 278.859C675.67 260.614 660.505 246.083 642.003 246.083C632.705 246.083 624.248 249.766 618.005 255.739C617.685 255.601 617.334 255.526 616.964 255.526C615.508 255.526 614.322 256.705 614.322 258.167C614.322 258.625 614.448 259.052 614.661 259.434C610.031 265.338 607.258 272.767 607.258 280.841C607.258 283.953 607.672 287.028 608.481 290.002C608.262 290.271 608.117 290.616 608.117 290.993C608.117 291.859 608.82 292.561 609.686 292.561C610.552 292.561 611.254 291.859 611.254 290.993C611.254 290.347 610.865 289.794 610.307 289.55C609.535 286.726 609.14 283.796 609.14 280.841C609.14 273.237 611.744 266.229 616.098 260.652C616.374 260.746 616.663 260.808 616.964 260.808C618.419 260.808 619.605 259.629 619.605 258.167C619.605 257.772 619.511 257.395 619.354 257.057C625.252 251.435 633.232 247.972 642.003 247.972C659.464 247.972 673.787 261.662 674.804 278.871C673.819 279.254 673.116 280.208 673.116 281.325C673.116 282.416 673.781 283.357 674.729 283.759C673.242 300.517 659.138 313.698 641.997 313.698C636.545 313.698 631.143 312.337 626.381 309.758C626.356 308.918 625.666 308.24 624.819 308.24C623.953 308.24 623.25 308.943 623.25 309.809C623.25 310.674 623.953 311.377 624.819 311.377C625.076 311.377 625.314 311.308 625.528 311.201L625.427 311.383C630.484 314.119 636.212 315.574 642.003 315.574ZM616.964 259.541C616.198 259.541 615.577 258.92 615.577 258.155C615.577 257.389 616.198 256.768 616.964 256.768C617.729 256.768 618.35 257.389 618.35 258.155C618.35 258.92 617.729 259.541 616.964 259.541ZM674.371 281.318C674.371 280.553 674.992 279.932 675.758 279.932C676.523 279.932 677.144 280.553 677.144 281.318C677.144 282.084 676.523 282.705 675.758 282.705C674.992 282.705 674.371 282.084 674.371 281.318Z" fill="#8A86B2"/>
<path d="M682 280.823C682 273.764 680.149 267.139 676.931 261.379C677.018 261.185 677.062 260.972 677.062 260.739C677.062 259.861 676.347 259.146 675.469 259.146C674.59 259.146 673.875 259.861 673.875 260.739C673.875 261.593 674.553 262.289 675.4 262.327L675.343 262.383C678.38 267.854 680.118 274.134 680.118 280.823C680.118 290.823 676.24 299.933 669.916 306.741C669.59 306.596 669.232 306.515 668.856 306.515C667.4 306.515 666.215 307.694 666.215 309.156C666.215 309.482 666.284 309.796 666.39 310.085C659.777 315.606 651.27 318.937 642.003 318.937C632.63 318.937 624.041 315.53 617.396 309.896C617.541 309.57 617.616 309.219 617.616 308.842C617.616 307.387 616.437 306.201 614.975 306.201C614.561 306.201 614.178 306.301 613.833 306.471C607.659 299.695 603.888 290.692 603.888 280.823C603.888 261.304 618.639 245.174 637.58 242.971C638.038 243.743 638.879 244.27 639.845 244.27C640.918 244.27 641.834 243.63 642.248 242.714C647.963 242.752 653.39 244.051 658.247 246.353C658.247 246.359 658.247 246.359 658.247 246.366C658.247 247.244 658.962 247.959 659.84 247.959C660.719 247.959 661.434 247.244 661.434 246.366C661.434 245.487 660.719 244.772 659.84 244.772C659.69 244.772 659.545 244.797 659.407 244.841C654.237 242.332 648.453 240.895 642.342 240.845C642.003 239.778 641.018 239 639.839 239C638.559 239 637.492 239.916 637.247 241.127C617.428 243.486 602 260.388 602 280.829C602 291.231 605.997 300.724 612.534 307.845C612.409 308.152 612.333 308.491 612.333 308.849C612.333 310.304 613.513 311.49 614.975 311.49C615.364 311.49 615.734 311.402 616.066 311.245C623.056 317.212 632.109 320.826 641.997 320.826C651.747 320.826 660.693 317.312 667.639 311.496C668.003 311.685 668.41 311.804 668.85 311.804C670.305 311.804 671.491 310.624 671.491 309.162C671.491 308.773 671.403 308.403 671.246 308.071C677.909 300.918 682 291.344 682 280.823ZM639.839 240.249C640.604 240.249 641.225 240.87 641.225 241.635C641.225 242.401 640.604 243.022 639.839 243.022C639.073 243.022 638.452 242.401 638.452 241.635C638.452 240.87 639.073 240.249 639.839 240.249ZM614.975 310.229C614.209 310.229 613.588 309.608 613.588 308.842C613.588 308.077 614.209 307.456 614.975 307.456C615.74 307.456 616.361 308.077 616.361 308.842C616.361 309.608 615.74 310.229 614.975 310.229ZM668.856 310.543C668.091 310.543 667.469 309.922 667.469 309.156C667.469 308.391 668.091 307.77 668.856 307.77C669.621 307.77 670.243 308.391 670.243 309.156C670.243 309.922 669.615 310.543 668.856 310.543Z" fill="#8A86B2"/>
<path d="M617.798 298.547C617.961 298.547 618.118 298.528 618.269 298.497C623.67 305.73 632.297 310.423 641.997 310.423C646.571 310.423 650.95 309.407 655.022 307.406C655.235 307.512 655.467 307.575 655.718 307.575C656.584 307.575 657.287 306.872 657.287 306.007C657.287 305.141 656.584 304.438 655.718 304.438C654.946 304.438 654.313 304.99 654.181 305.724C650.373 307.594 646.282 308.541 642.003 308.541C632.981 308.541 624.95 304.206 619.887 297.505C620.232 297.06 620.446 296.508 620.446 295.899C620.446 294.444 619.266 293.258 617.804 293.258C617.622 293.258 617.447 293.277 617.277 293.308C615.37 289.55 614.291 285.309 614.291 280.816C614.291 265.533 626.726 253.098 642.009 253.098C647.524 253.098 652.663 254.723 656.986 257.508C656.929 257.722 656.891 257.941 656.891 258.167C656.891 259.623 658.071 260.808 659.533 260.808C659.997 260.808 660.43 260.677 660.806 260.463C666.284 265.533 669.728 272.773 669.728 280.81C669.728 284.681 668.944 288.414 667.407 291.928C666.66 292.047 666.083 292.687 666.083 293.471C666.083 294.337 666.786 295.04 667.651 295.04C668.517 295.04 669.22 294.337 669.22 293.471C669.22 293.239 669.163 293.013 669.076 292.819C670.757 289.029 671.61 284.995 671.61 280.816C671.61 272.202 667.909 264.441 662.017 259.027C662.111 258.757 662.168 258.475 662.168 258.173C662.168 256.718 660.988 255.532 659.527 255.532C658.987 255.532 658.485 255.695 658.065 255.971C653.434 252.966 647.92 251.216 642.003 251.216C625.684 251.216 612.402 264.491 612.402 280.816C612.402 285.685 613.588 290.278 615.684 294.331C615.357 294.77 615.163 295.309 615.163 295.893C615.157 297.361 616.342 298.547 617.798 298.547ZM617.798 294.519C618.563 294.519 619.185 295.14 619.185 295.905C619.185 296.671 618.563 297.292 617.798 297.292C617.033 297.292 616.411 296.671 616.411 295.905C616.411 295.14 617.033 294.519 617.798 294.519ZM659.52 256.799C660.286 256.799 660.907 257.421 660.907 258.186C660.907 258.951 660.286 259.573 659.52 259.573C658.755 259.573 658.134 258.951 658.134 258.186C658.134 257.421 658.755 256.799 659.52 256.799Z" fill="#8A86B2"/>
<path fill-rule="evenodd" clip-rule="evenodd" d="M640.595 265.088C640.45 265.14 640.321 265.183 640.31 265.184C640.299 265.184 640.247 265.284 640.194 265.406C640.127 265.561 640.097 265.896 640.093 266.537C640.09 267.038 640.067 267.687 640.042 267.98C639.999 268.469 639.979 268.527 639.79 268.689C639.676 268.787 639.259 268.987 638.863 269.134C637.326 269.703 636.448 270.219 635.552 271.078C634.234 272.342 633.601 273.907 633.601 275.898C633.601 277.727 634.134 278.963 635.486 280.264C636.642 281.375 637.899 282.081 640.629 283.15C642.962 284.064 643.546 284.372 644.2 285.037C644.937 285.786 645.105 286.732 644.658 287.62C644.076 288.777 642.224 289.394 640.131 289.128C638.617 288.935 637.251 288.546 635.755 287.883C634.994 287.545 634.869 287.516 634.657 287.624C634.449 287.731 634.291 288.107 633.871 289.495C633.363 291.176 633.3 291.497 633.425 291.786C633.71 292.44 635.628 293.172 638.291 293.641C638.811 293.733 639.307 293.839 639.394 293.877C639.679 294.002 639.719 294.199 639.761 295.657C639.818 297.669 639.737 297.598 641.955 297.598C644.195 297.598 644.095 297.694 644.143 295.497C644.166 294.432 644.201 293.922 644.26 293.824C644.407 293.575 644.756 293.381 645.436 293.169C647.593 292.496 649.236 291.163 650.174 289.326C651.587 286.557 651.009 283.381 648.688 281.149C647.656 280.158 646.505 279.526 643.645 278.379C641.636 277.574 640.841 277.155 640.241 276.583C639.258 275.647 639.387 274.365 640.538 273.623C641.159 273.223 641.679 273.119 643.016 273.128C644.633 273.138 645.73 273.359 647.269 273.985C647.694 274.158 648.144 274.3 648.269 274.3C648.709 274.3 648.833 274.046 649.511 271.756C649.906 270.423 649.909 270.258 649.542 269.925C649.161 269.58 647.516 269.02 646.198 268.788C644.957 268.569 644.663 268.482 644.513 268.287C644.388 268.125 644.371 267.991 644.336 266.912C644.292 265.576 644.216 265.3 643.844 265.121C643.551 264.98 640.972 264.954 640.595 265.088Z" fill="#8A86B2"/>
<path fill-rule="evenodd" clip-rule="evenodd" d="M808.67 205.249C806.918 205.724 805.278 207.152 804.453 208.923L804 209.895V239.345V268.795L804.477 269.822C805.362 271.73 807.385 273.313 809.309 273.603L810.044 273.714V275.173C810.044 275.975 810.133 276.93 810.242 277.295C810.527 278.251 811.424 279.217 812.435 279.654C813.267 280.014 813.496 280.03 817.337 279.978C822.784 279.905 822.722 279.94 824.681 275.93L825.782 273.675H841.811C857.769 273.675 857.842 273.673 858.288 273.32C858.909 272.829 858.909 271.952 858.288 271.461L857.84 271.106H833.834C815.415 271.106 809.665 271.058 809.127 270.897C808.206 270.622 806.951 269.359 806.677 268.433C806.386 267.449 806.373 211.282 806.663 210.309C806.945 209.364 807.766 208.454 808.755 207.991L809.618 207.586L837.165 207.585L864.711 207.583L865.129 207.163C865.662 206.627 865.662 205.971 865.129 205.435L864.711 205.015L837.08 205.026C815.75 205.035 809.271 205.086 808.67 205.249ZM868.526 205.428C867.986 205.97 867.984 206.625 868.519 207.163L868.937 207.583L877.159 207.585L885.382 207.586L886.245 207.991C887.234 208.454 888.055 209.364 888.337 210.309C888.627 211.282 888.614 267.449 888.323 268.433C888.049 269.359 886.794 270.622 885.873 270.897C885.351 271.053 882.238 271.106 873.676 271.106C862.697 271.106 862.162 271.121 861.786 271.427C861.24 271.872 861.24 272.909 861.786 273.354C862.142 273.644 862.514 273.675 865.699 273.675H869.218L870.319 275.93C871.575 278.501 871.949 279.018 872.932 279.547C873.589 279.9 873.892 279.928 877.623 279.979C881.024 280.025 881.721 279.991 882.354 279.748C884.174 279.049 884.952 277.712 884.954 275.278L884.956 273.714L885.691 273.603C887.615 273.313 889.638 271.73 890.523 269.822L891 268.795V239.345V209.895L890.544 208.916C889.907 207.549 888.711 206.324 887.361 205.655L886.241 205.1L877.596 205.05L868.951 205L868.526 205.428ZM814.906 213.66C814.003 213.984 813.463 214.408 812.853 215.276L812.342 216.002L812.295 239.06C812.243 264.539 812.176 262.895 813.324 264.083C814.498 265.296 814.342 265.277 823.099 265.281L830.961 265.285L831.313 264.834C831.753 264.271 831.763 263.73 831.341 263.206L831.016 262.802L823.262 262.754L815.509 262.706L815.16 262.26C814.812 261.816 814.811 261.736 814.811 239.314V216.813L815.229 216.393L815.647 215.973H847.08H878.513L879.01 216.473L879.508 216.974V219.72V222.466L878.849 222.645C877.953 222.887 877.313 223.429 876.936 224.264C876.664 224.867 876.621 225.416 876.621 228.301C876.621 231.186 876.664 231.735 876.936 232.338C877.309 233.163 877.941 233.705 878.852 233.979L879.513 234.178L879.468 239.405L879.423 244.631L878.833 244.785C877.962 245.012 877.368 245.505 876.969 246.335C876.646 247.006 876.614 247.376 876.614 250.448C876.614 252.896 876.677 253.976 876.844 254.378C877.157 255.132 878.178 255.997 878.919 256.137L879.53 256.252L879.476 259.158C879.424 261.973 879.41 262.073 879.021 262.39C878.63 262.708 878.021 262.717 856.837 262.717H835.056L834.638 263.137C834.102 263.676 834.092 264.419 834.614 264.913L835.008 265.285H857.008C880.844 265.285 879.496 265.338 880.665 264.348C881.809 263.377 881.961 262.82 882.031 259.335C882.073 257.235 882.155 256.21 882.28 256.21C882.859 256.21 883.974 255.432 884.372 254.75L884.804 254.008L884.753 250.258L884.701 246.509L884.224 245.88C883.71 245.203 882.971 244.738 882.411 244.738C882.066 244.738 882.062 244.667 882.062 239.444V234.15L882.585 234.034C883.205 233.897 884.192 233.068 884.539 232.393C884.884 231.723 884.896 225.13 884.553 224.306C884.271 223.626 883.466 222.919 882.676 222.657L882.089 222.462L882.033 219.431C881.981 216.66 881.942 216.331 881.576 215.583C881.135 214.683 880.361 214.001 879.38 213.649C878.405 213.299 815.884 213.31 814.906 213.66ZM882.147 228.301V231.469H880.7H879.252L879.206 228.399C879.17 226.06 879.211 225.296 879.376 225.188C879.495 225.11 880.168 225.065 880.87 225.089L882.147 225.133V228.301ZM824.942 227.372C823.551 228.101 823.162 228.967 823.157 231.346C823.152 233.765 823.533 234.642 824.892 235.339C825.483 235.643 825.999 235.663 832.943 235.663C840.051 235.663 840.391 235.649 841.037 235.318C841.408 235.127 841.922 234.652 842.179 234.26C842.629 233.577 842.648 233.46 842.648 231.367C842.648 229.219 842.64 229.176 842.137 228.462C841.151 227.062 841.42 227.102 832.946 227.103C826.483 227.104 825.382 227.141 824.942 227.372ZM859.155 228.892C858.781 229.268 858.737 229.457 858.737 230.677V232.041L858.183 232.161C857.198 232.376 855.649 233.273 854.813 234.114C853.976 234.956 853.084 236.513 852.871 237.504L852.751 238.061H851.395C850.182 238.061 849.994 238.105 849.621 238.481C849.084 239.02 849.074 239.763 849.597 240.257C849.934 240.575 850.188 240.629 851.363 240.629H852.735L852.838 241.145C853.308 243.507 855.882 246.112 858.183 246.554L858.737 246.66V247.987C858.737 249.05 858.804 249.401 859.073 249.745C859.504 250.296 859.919 250.4 860.579 250.12C861.181 249.866 861.271 249.607 861.332 247.936L861.376 246.768L862.229 246.478C864.62 245.666 866.466 243.768 867.168 241.399L867.371 240.715L868.545 240.671C870.218 240.609 870.475 240.52 870.728 239.914C871.219 238.74 870.616 238.178 868.74 238.061L867.371 237.975L867.168 237.29C866.468 234.927 864.349 232.791 862.138 232.222L861.291 232.003V230.61C861.291 229.375 861.246 229.174 860.897 228.844C860.374 228.351 859.674 228.37 859.155 228.892ZM840.076 229.942C840.264 230.435 840.187 232.676 839.975 232.89C839.823 233.043 838.004 233.095 832.842 233.095C826.682 233.095 825.903 233.065 825.811 232.824C825.671 232.457 825.679 229.928 825.821 229.785C825.883 229.722 829.093 229.671 832.953 229.671C839.197 229.671 839.984 229.701 840.076 229.942ZM862.29 235.096C865.193 236.589 865.763 240.434 863.43 242.78C861.895 244.324 859.841 244.667 857.92 243.701C856.334 242.904 855.43 241.599 855.218 239.801C855.052 238.388 855.525 237.154 856.68 235.993C858.297 234.367 860.261 234.053 862.29 235.096ZM824.123 238.936C823.337 239.395 823.433 240.732 824.28 241.12C824.512 241.227 825.353 241.314 826.149 241.314C827.458 241.314 827.635 241.274 828.014 240.893C828.55 240.354 828.56 239.611 828.038 239.118C827.689 238.789 827.456 238.746 826.037 238.751C825.153 238.754 824.292 238.837 824.123 238.936ZM830.893 239.166C830.354 239.707 830.36 240.358 830.908 240.909C831.324 241.327 831.411 241.343 833.031 241.287C834.892 241.222 835.158 241.094 835.342 240.167C835.429 239.728 835.367 239.541 835.013 239.185C834.605 238.774 834.469 238.745 832.943 238.745C831.436 238.745 831.278 238.778 830.893 239.166ZM837.828 239.095C837.287 239.601 837.324 240.5 837.904 240.959C838.28 241.256 838.593 241.314 839.839 241.314C841.638 241.314 842.222 240.996 842.222 240.017C842.222 238.973 841.801 238.745 839.871 238.745C838.425 238.745 838.15 238.792 837.828 239.095ZM823.918 244.398C823.493 244.87 823.523 245.699 823.981 246.16C824.316 246.497 824.531 246.536 826.068 246.536C827.662 246.536 827.803 246.508 828.106 246.132C828.529 245.606 828.52 244.899 828.084 244.428C827.771 244.089 827.568 244.053 825.983 244.053C824.44 244.053 824.19 244.095 823.918 244.398ZM830.827 244.505C830.254 245.238 830.386 245.965 831.168 246.371C831.475 246.531 832.152 246.622 833.033 246.622C834.335 246.622 834.446 246.592 834.914 246.121C835.503 245.529 835.539 245.119 835.059 244.505C834.718 244.069 834.645 244.053 832.943 244.053C831.242 244.053 831.168 244.069 830.827 244.505ZM837.796 244.396C837.365 244.828 837.358 245.608 837.781 246.132C838.083 246.508 838.225 246.536 839.806 246.536C841.778 246.536 842.222 246.311 842.222 245.311C842.222 244.278 841.796 244.053 839.839 244.053C838.363 244.053 838.091 244.099 837.796 244.396ZM882.023 247.279C882.188 247.385 882.229 248.146 882.193 250.487L882.147 253.556H880.7H879.252L879.206 250.582C879.174 248.534 879.22 247.535 879.354 247.372C879.57 247.11 881.646 247.038 882.023 247.279ZM824.425 249.345C823.595 249.703 823.334 250.765 823.918 251.414C824.19 251.717 824.44 251.758 825.983 251.758C827.568 251.758 827.771 251.722 828.084 251.384C828.52 250.913 828.529 250.205 828.106 249.68C827.814 249.317 827.627 249.272 826.276 249.235C825.448 249.213 824.615 249.263 824.425 249.345ZM831.241 249.379C830.407 249.859 830.254 250.574 830.827 251.307C831.168 251.743 831.242 251.758 832.943 251.758C834.645 251.758 834.718 251.743 835.059 251.307C835.519 250.72 835.504 250.345 835.001 249.756C834.616 249.306 834.497 249.273 833.086 249.229C832.182 249.201 831.445 249.261 831.241 249.379ZM838.19 249.354C837.429 249.679 837.209 250.826 837.796 251.416C838.091 251.713 838.363 251.758 839.839 251.758C841.796 251.758 842.222 251.534 842.222 250.501C842.222 249.551 841.757 249.282 840.034 249.235C839.224 249.213 838.394 249.267 838.19 249.354ZM822.813 273.849C822.813 274.246 821.259 277.099 820.953 277.263C820.754 277.371 819.192 277.442 817.028 277.442C813.439 277.442 813.433 277.441 813.016 277.021C812.637 276.641 812.598 276.463 812.598 275.138V273.675H817.705C821.064 273.675 822.813 273.735 822.813 273.849ZM882.402 275.138C882.402 276.463 882.363 276.641 881.984 277.021C881.567 277.441 881.561 277.442 877.972 277.442C875.808 277.442 874.246 277.371 874.047 277.263C873.741 277.099 872.187 274.246 872.187 273.849C872.187 273.735 873.936 273.675 877.295 273.675H882.402V275.138Z" fill="#8A86B2"/>
<path d="M1215 32C1192.95 32 1175 49.9399 1175 72C1175 94.0538 1192.95 112 1215 112C1237.05 112 1255 94.0538 1255 72C1255 49.9399 1237.06 32 1215 32ZM1217.48 33.9752C1236.52 35.2018 1251.79 50.462 1253.02 69.4902C1253.09 70.4337 1252.33 71.2389 1251.39 71.2389C1250.53 71.2389 1249.82 70.5721 1249.76 69.7166C1248.63 52.3114 1234.67 38.3532 1217.26 37.2398C1216.4 37.1832 1215.74 36.4724 1215.74 35.6106C1215.73 34.6671 1216.53 33.9185 1217.48 33.9752ZM1187.22 72C1187.22 56.6768 1199.68 44.2095 1215.01 44.2095C1230.33 44.2095 1242.8 56.6768 1242.8 72C1242.8 87.3232 1230.33 99.7905 1215.01 99.7905C1199.68 99.7905 1187.22 87.3232 1187.22 72ZM1192.28 93.3681C1191.6 94.0475 1190.49 94.0035 1189.87 93.2738C1185 87.5308 1182.06 80.1082 1182.06 72.0063C1182.06 64.005 1184.93 56.6643 1189.69 50.9527C1190.3 50.2167 1191.42 50.1664 1192.1 50.8457C1192.7 51.4433 1192.74 52.3931 1192.2 53.041C1187.91 58.1865 1185.33 64.8039 1185.33 72.0126C1185.33 79.3156 1187.98 86.0022 1192.37 91.1728C1192.91 91.8081 1192.88 92.7643 1192.28 93.3681ZM1237.45 91.3804C1241.95 86.1783 1244.68 79.4037 1244.68 72C1244.68 64.6907 1242.02 57.9915 1237.61 52.8146C1237.07 52.1667 1237.1 51.2106 1237.7 50.6067C1238.38 49.9273 1239.49 49.9714 1240.11 50.7011C1244.99 56.4504 1247.95 63.8855 1247.95 72C1247.95 80.2151 1244.92 87.732 1239.93 93.5128C1239.31 94.2362 1238.2 94.2739 1237.53 93.6009C1236.93 92.9907 1236.89 92.0283 1237.45 91.3804ZM1236.27 46.864C1237 47.4804 1237.05 48.6001 1236.37 49.2732C1235.77 49.8707 1234.81 49.9148 1234.16 49.3675C1228.98 44.9769 1222.3 42.3224 1215 42.3224C1207.6 42.3224 1200.82 45.0524 1195.62 49.5499C1194.97 50.1098 1194 50.072 1193.4 49.4682C1192.73 48.7951 1192.76 47.688 1193.49 47.0653C1199.26 42.0708 1206.78 39.0451 1215 39.0451C1223.1 39.0514 1230.53 41.9953 1236.27 46.864ZM1212.08 34.0066C1213.02 33.9311 1213.84 34.686 1213.84 35.6421C1213.84 36.4913 1213.19 37.2021 1212.34 37.2713C1195.12 38.5797 1181.37 52.456 1180.25 69.7229C1180.19 70.5784 1179.48 71.2452 1178.62 71.2452C1177.67 71.2452 1176.92 70.44 1176.98 69.4965C1178.21 50.613 1193.25 35.4471 1212.08 34.0066ZM1212.08 109.987C1193.38 108.566 1178.42 93.5946 1177.01 74.8998C1176.94 73.95 1177.69 73.1323 1178.65 73.1323C1179.5 73.1323 1180.21 73.7864 1180.28 74.6356C1181.57 91.739 1195.25 105.427 1212.35 106.722C1213.19 106.785 1213.85 107.496 1213.85 108.352C1213.84 109.308 1213.03 110.063 1212.08 109.987ZM1193.71 97.1109C1192.98 96.4944 1192.93 95.381 1193.61 94.7017C1194.21 94.1041 1195.17 94.0601 1195.82 94.6136C1201 99.0168 1207.7 101.678 1215.01 101.678C1222.21 101.678 1228.83 99.0923 1233.98 94.8023C1234.63 94.2614 1235.58 94.3054 1236.17 94.903C1236.85 95.5823 1236.81 96.702 1236.07 97.3185C1230.35 102.08 1223.01 104.949 1215.01 104.949C1206.89 104.949 1199.45 101.998 1193.71 97.1109ZM1217.48 110.019C1216.53 110.081 1215.73 109.327 1215.73 108.383C1215.73 107.521 1216.4 106.811 1217.25 106.754C1234.54 105.647 1248.43 91.8711 1249.73 74.6356C1249.79 73.7864 1250.5 73.1323 1251.36 73.1323C1252.31 73.1323 1253.07 73.9437 1252.99 74.8998C1251.57 93.7456 1236.38 108.798 1217.48 110.019Z" fill="#8A86B2"/>
<path fill-rule="evenodd" clip-rule="evenodd" d="M1216.39 58.0232C1216.34 58.0323 1216.08 58.07 1215.8 58.1072C1212.57 58.5344 1209.71 60.8912 1208.66 64.0002C1208.03 65.8431 1208.04 67.7074 1208.68 69.5655L1208.9 70.1892H1206.92H1204.95V72.4065V74.6238H1207.92H1210.9L1210.9 75.1088C1210.89 76.4161 1210.27 77.7605 1209.23 78.7163C1208.76 79.1451 1208.45 79.3506 1207.91 79.5939C1206.69 80.1421 1206.35 80.3142 1205.86 80.6391C1205.56 80.8334 1205.13 81.1496 1204.91 81.3419C1204.52 81.6747 1203.31 82.9291 1203.31 83.0001C1203.31 83.0186 1204.05 83.7016 1204.95 84.5179L1206.6 86.0021L1207.03 85.5375C1207.92 84.5814 1208.42 84.1937 1209.14 83.9138C1210.27 83.4761 1211.6 83.5023 1212.67 83.9835C1212.86 84.0716 1213.31 84.3463 1213.67 84.5939C1215.06 85.565 1216.38 86.0877 1217.97 86.2928C1221.02 86.6875 1224.1 85.4767 1226.04 83.1239C1226.39 82.6958 1227.21 81.5562 1227.21 81.4966C1227.21 81.4751 1226.46 80.9503 1225.55 80.3304C1224.64 79.7104 1223.82 79.1441 1223.72 79.0719L1223.54 78.9406L1223.11 79.551C1222.31 80.6755 1221.84 81.1179 1221.01 81.5051C1220.31 81.8322 1219.93 81.9112 1219.08 81.9104C1217.94 81.9091 1217.19 81.6453 1216.16 80.8961C1215.87 80.6789 1215.29 80.3354 1214.89 80.1329L1214.14 79.7647L1214.44 79.1799C1215.03 78.0277 1215.36 76.7816 1215.41 75.4692L1215.44 74.6238H1218.41H1221.38V72.4065V70.1892H1217.79H1214.2L1214.08 70.0644C1214.02 69.9959 1213.84 69.741 1213.67 69.4982C1212.91 68.3386 1212.62 67.303 1212.76 66.2401C1212.96 64.7618 1213.84 63.5437 1215.17 62.898C1215.81 62.5875 1216.21 62.4848 1216.93 62.4452C1218.69 62.3481 1220.32 63.2887 1221.1 64.851C1221.36 65.3613 1221.4 65.421 1221.51 65.3886C1221.74 65.3199 1223.22 64.8588 1224.44 64.474L1225.67 64.089L1225.57 63.7812C1224.89 61.8742 1223.31 60.0757 1221.38 59.0317C1220.52 58.5719 1219.38 58.2119 1218.33 58.0758C1217.8 58.0064 1216.64 57.975 1216.39 58.0232Z" fill="#8A86B2"/>
</svg>
