<svg width="351" height="325" viewBox="0 0 351 325" fill="none" xmlns="http://www.w3.org/2000/svg">
<rect x="0.5" y="29.5" width="294" height="295" rx="11.5" stroke="#111111"/>
<line x1="24" y1="84.5" x2="271" y2="84.5" stroke="#111111"/>
<path d="M27.952 65V56.072H24.544V53.8H33.824V56.072H30.416V65H27.952ZM36.1099 65V56.424H38.5419V58.152C39.0965 56.84 40.0085 56.2107 41.2779 56.264V58.808H41.1499C40.3179 58.808 39.6725 59.064 39.2139 59.576C38.7659 60.0773 38.5419 60.8293 38.5419 61.832V65H36.1099ZM46.4231 65.16C45.5805 65.16 44.8765 64.9253 44.3111 64.456C43.7565 63.9867 43.4791 63.336 43.4791 62.504C43.4791 61.5973 43.7885 60.9147 44.4071 60.456C45.0365 59.9973 45.8791 59.768 46.9351 59.768C47.6498 59.768 48.3485 59.8853 49.0311 60.12V59.976C49.0311 58.9307 48.4178 58.408 47.1911 58.408C46.4551 58.408 45.6658 58.5627 44.8231 58.872L44.2151 57.016C45.2605 56.5573 46.3698 56.328 47.5431 56.328C48.8338 56.328 49.7991 56.648 50.4391 57.288C51.0578 57.9067 51.3671 58.8187 51.3671 60.024V65H49.0151V64.072C48.3645 64.7973 47.5005 65.16 46.4231 65.16ZM47.1591 63.48C47.7245 63.48 48.1831 63.3413 48.5351 63.064C48.8871 62.776 49.0631 62.4133 49.0631 61.976V61.544C48.6045 61.3307 48.0871 61.224 47.5111 61.224C46.9778 61.224 46.5618 61.3307 46.2631 61.544C45.9751 61.7467 45.8311 62.0453 45.8311 62.44C45.8311 62.76 45.9538 63.016 46.1991 63.208C46.4445 63.3893 46.7645 63.48 47.1591 63.48ZM55.0599 65V56.424H57.4919V57.64C58.2065 56.7227 59.0439 56.264 60.0039 56.264C60.9212 56.264 61.6359 56.5467 62.1479 57.112C62.6599 57.6773 62.9159 58.456 62.9159 59.448V65H60.4839V60.216C60.4839 59.6507 60.3559 59.2187 60.0999 58.92C59.8439 58.6213 59.4812 58.472 59.0119 58.472C58.5425 58.472 58.1692 58.6213 57.8919 58.92C57.6252 59.2187 57.4919 59.6507 57.4919 60.216V65H55.0599ZM69.6366 65.16C68.282 65.16 67.0553 64.728 65.9566 63.864L66.9966 62.264C67.9353 62.9467 68.8366 63.288 69.7006 63.288C70.3833 63.288 70.7246 63.064 70.7246 62.616C70.7246 62.5627 70.714 62.5093 70.6926 62.456C70.682 62.4027 70.6553 62.3547 70.6126 62.312C70.57 62.2693 70.522 62.232 70.4686 62.2C70.426 62.1573 70.362 62.12 70.2766 62.088C70.202 62.0453 70.1326 62.0133 70.0686 61.992C70.0153 61.96 69.9353 61.928 69.8286 61.896C69.722 61.8533 69.6313 61.8213 69.5566 61.8C69.482 61.7787 69.3806 61.752 69.2526 61.72C69.1246 61.6773 69.0233 61.6453 68.9486 61.624C68.586 61.5173 68.2766 61.4107 68.0206 61.304C67.7753 61.1867 67.514 61.032 67.2366 60.84C66.9593 60.6373 66.746 60.3867 66.5966 60.088C66.458 59.7787 66.3886 59.4213 66.3886 59.016C66.3886 58.1733 66.6873 57.512 67.2846 57.032C67.882 56.5413 68.6286 56.296 69.5246 56.296C70.6766 56.296 71.7433 56.6267 72.7246 57.288L71.7966 58.968C70.89 58.4347 70.1166 58.168 69.4766 58.168C68.8793 58.168 68.5806 58.376 68.5806 58.792C68.5806 59.08 69.0713 59.3893 70.0526 59.72C70.17 59.7627 70.2606 59.7947 70.3246 59.816C70.6126 59.912 70.858 60.0027 71.0606 60.088C71.2633 60.1733 71.4926 60.2907 71.7486 60.44C72.0046 60.5893 72.2073 60.7493 72.3566 60.92C72.5166 61.08 72.65 61.288 72.7566 61.544C72.8633 61.8 72.9166 62.0827 72.9166 62.392C72.9166 63.3093 72.6126 64.0027 72.0046 64.472C71.4073 64.9307 70.618 65.16 69.6366 65.16ZM78.6919 65.16C77.8492 65.16 77.1452 64.9253 76.5799 64.456C76.0252 63.9867 75.7479 63.336 75.7479 62.504C75.7479 61.5973 76.0572 60.9147 76.6759 60.456C77.3052 59.9973 78.1479 59.768 79.2039 59.768C79.9185 59.768 80.6172 59.8853 81.2999 60.12V59.976C81.2999 58.9307 80.6865 58.408 79.4599 58.408C78.7239 58.408 77.9345 58.5627 77.0919 58.872L76.4839 57.016C77.5292 56.5573 78.6385 56.328 79.8119 56.328C81.1025 56.328 82.0679 56.648 82.7079 57.288C83.3265 57.9067 83.6359 58.8187 83.6359 60.024V65H81.2839V64.072C80.6332 64.7973 79.7692 65.16 78.6919 65.16ZM79.4279 63.48C79.9932 63.48 80.4519 63.3413 80.8039 63.064C81.1559 62.776 81.3319 62.4133 81.3319 61.976V61.544C80.8732 61.3307 80.3559 61.224 79.7799 61.224C79.2465 61.224 78.8305 61.3307 78.5319 61.544C78.2439 61.7467 78.0999 62.0453 78.0999 62.44C78.0999 62.76 78.2225 63.016 78.4679 63.208C78.7132 63.3893 79.0332 63.48 79.4279 63.48ZM91.3766 65.192C90.0966 65.192 89.03 64.76 88.1766 63.896C87.334 63.032 86.9126 61.976 86.9126 60.728C86.9126 59.4907 87.3393 58.44 88.1926 57.576C89.046 56.7013 90.118 56.264 91.4086 56.264C92.7846 56.264 93.9206 56.7653 94.8166 57.768L93.3926 59.208C92.7953 58.6427 92.1286 58.36 91.3926 58.36C90.7953 58.36 90.2993 58.5893 89.9046 59.048C89.51 59.5067 89.3126 60.0667 89.3126 60.728C89.3126 61.4 89.51 61.9653 89.9046 62.424C90.31 62.872 90.838 63.096 91.4886 63.096C92.1606 63.096 92.8166 62.792 93.4566 62.184L94.8806 63.624C94.4113 64.136 93.91 64.5253 93.3766 64.792C92.8433 65.0587 92.1766 65.192 91.3766 65.192ZM100.965 65.144C100.165 65.144 99.5466 64.952 99.1092 64.568C98.6826 64.1733 98.4692 63.5067 98.4692 62.568V58.504H97.4452V56.424H98.4692V54.232H100.901V56.424H102.917V58.504H100.901V62.168C100.901 62.7227 101.163 63 101.685 63C102.112 63 102.512 62.8987 102.885 62.696V64.648C102.331 64.9787 101.691 65.144 100.965 65.144ZM106.358 55.48V53.32H108.918V55.48H106.358ZM106.422 65V56.424H108.854V65H106.422ZM120.258 63.896C119.373 64.76 118.269 65.192 116.946 65.192C115.623 65.192 114.519 64.7653 113.634 63.912C112.759 63.048 112.322 61.9867 112.322 60.728C112.322 59.48 112.765 58.424 113.65 57.56C114.546 56.696 115.655 56.264 116.978 56.264C118.301 56.264 119.399 56.696 120.274 57.56C121.159 58.4133 121.602 59.4693 121.602 60.728C121.602 61.976 121.154 63.032 120.258 63.896ZM116.978 63.096C117.65 63.096 118.189 62.872 118.594 62.424C118.999 61.9653 119.202 61.4 119.202 60.728C119.202 60.0773 118.989 59.5227 118.562 59.064C118.146 58.5947 117.607 58.36 116.946 58.36C116.274 58.36 115.735 58.5893 115.33 59.048C114.925 59.496 114.722 60.056 114.722 60.728C114.722 61.3787 114.93 61.9387 115.346 62.408C115.773 62.8667 116.317 63.096 116.978 63.096ZM124.963 65V56.424H127.395V57.64C128.11 56.7227 128.947 56.264 129.907 56.264C130.824 56.264 131.539 56.5467 132.051 57.112C132.563 57.6773 132.819 58.456 132.819 59.448V65H130.387V60.216C130.387 59.6507 130.259 59.2187 130.003 58.92C129.747 58.6213 129.384 58.472 128.915 58.472C128.446 58.472 128.072 58.6213 127.795 58.92C127.528 59.2187 127.395 59.6507 127.395 60.216V65H124.963ZM139.54 65.16C138.185 65.16 136.958 64.728 135.86 63.864L136.9 62.264C137.838 62.9467 138.74 63.288 139.604 63.288C140.286 63.288 140.628 63.064 140.628 62.616C140.628 62.5627 140.617 62.5093 140.596 62.456C140.585 62.4027 140.558 62.3547 140.516 62.312C140.473 62.2693 140.425 62.232 140.372 62.2C140.329 62.1573 140.265 62.12 140.18 62.088C140.105 62.0453 140.036 62.0133 139.972 61.992C139.918 61.96 139.838 61.928 139.732 61.896C139.625 61.8533 139.534 61.8213 139.46 61.8C139.385 61.7787 139.284 61.752 139.156 61.72C139.028 61.6773 138.926 61.6453 138.852 61.624C138.489 61.5173 138.18 61.4107 137.924 61.304C137.678 61.1867 137.417 61.032 137.14 60.84C136.862 60.6373 136.649 60.3867 136.5 60.088C136.361 59.7787 136.292 59.4213 136.292 59.016C136.292 58.1733 136.59 57.512 137.188 57.032C137.785 56.5413 138.532 56.296 139.428 56.296C140.58 56.296 141.646 56.6267 142.628 57.288L141.7 58.968C140.793 58.4347 140.02 58.168 139.38 58.168C138.782 58.168 138.484 58.376 138.484 58.792C138.484 59.08 138.974 59.3893 139.956 59.72C140.073 59.7627 140.164 59.7947 140.228 59.816C140.516 59.912 140.761 60.0027 140.964 60.088C141.166 60.1733 141.396 60.2907 141.652 60.44C141.908 60.5893 142.11 60.7493 142.26 60.92C142.42 61.08 142.553 61.288 142.66 61.544C142.766 61.8 142.82 62.0827 142.82 62.392C142.82 63.3093 142.516 64.0027 141.908 64.472C141.31 64.9307 140.521 65.16 139.54 65.16Z" fill="#111111"/>
<path fill-rule="evenodd" clip-rule="evenodd" d="M180 135C180 136.657 178.657 138 177 138H73C71.3431 138 70 136.657 70 135C70 133.343 71.3431 132 73 132H177C178.657 132 180 133.343 180 135Z" fill="#FAFF00"/>
<path d="M71.358 120V110.2H73.08V120H71.358ZM76.9074 120V112.608H78.6014V113.756C79.1894 112.888 79.9594 112.454 80.9114 112.454C81.7327 112.454 82.3767 112.711 82.8434 113.224C83.31 113.737 83.5434 114.428 83.5434 115.296V120H81.8494V115.8C81.8494 115.221 81.7094 114.778 81.4294 114.47C81.1587 114.153 80.7714 113.994 80.2674 113.994C79.7727 113.994 79.3714 114.157 79.0634 114.484C78.7554 114.811 78.6014 115.259 78.6014 115.828V120H76.9074ZM89.467 120.126C88.0483 120.126 87.339 119.403 87.339 117.956V114.064H86.401V112.608H87.339V110.578H89.033V112.608H91.021V114.064H89.033V117.69C89.033 118.306 89.3363 118.614 89.943 118.614C90.307 118.614 90.657 118.53 90.993 118.362V119.748C90.545 120 90.0363 120.126 89.467 120.126ZM97.3141 120.168C96.2314 120.168 95.3261 119.809 94.5981 119.09C93.8794 118.371 93.5201 117.443 93.5201 116.304C93.5201 115.231 93.8608 114.321 94.5421 113.574C95.2234 112.827 96.0868 112.454 97.1321 112.454C98.2521 112.454 99.1201 112.837 99.7361 113.602C100.361 114.358 100.674 115.301 100.674 116.43C100.674 116.635 100.665 116.794 100.646 116.906H95.2141C95.3074 117.494 95.5454 117.956 95.9281 118.292C96.3108 118.619 96.7821 118.782 97.3421 118.782C98.0701 118.782 98.7374 118.488 99.3441 117.9L100.338 118.782C99.5728 119.706 98.5648 120.168 97.3141 120.168ZM95.2001 115.786H98.9941C98.9381 115.217 98.7468 114.75 98.4201 114.386C98.0934 114.022 97.6594 113.84 97.1181 113.84C96.6048 113.84 96.1754 114.022 95.8301 114.386C95.4848 114.741 95.2748 115.207 95.2001 115.786ZM103.775 120V112.608H105.469V114.274C105.992 113.014 106.865 112.412 108.087 112.468V114.26H107.989C107.224 114.26 106.613 114.512 106.155 115.016C105.698 115.511 105.469 116.234 105.469 117.186V120H103.775ZM114.1 120.168C113.018 120.168 112.112 119.809 111.384 119.09C110.666 118.371 110.306 117.443 110.306 116.304C110.306 115.231 110.647 114.321 111.328 113.574C112.01 112.827 112.873 112.454 113.918 112.454C115.038 112.454 115.906 112.837 116.522 113.602C117.148 114.358 117.46 115.301 117.46 116.43C117.46 116.635 117.451 116.794 117.432 116.906H112C112.094 117.494 112.332 117.956 112.714 118.292C113.097 118.619 113.568 118.782 114.128 118.782C114.856 118.782 115.524 118.488 116.13 117.9L117.124 118.782C116.359 119.706 115.351 120.168 114.1 120.168ZM111.986 115.786H115.78C115.724 115.217 115.533 114.75 115.206 114.386C114.88 114.022 114.446 113.84 113.904 113.84C113.391 113.84 112.962 114.022 112.616 114.386C112.271 114.741 112.061 115.207 111.986 115.786ZM123.096 120.14C121.938 120.14 120.893 119.771 119.96 119.034L120.716 117.886C121.518 118.493 122.326 118.796 123.138 118.796C123.502 118.796 123.782 118.726 123.978 118.586C124.183 118.437 124.286 118.231 124.286 117.97C124.286 117.839 124.248 117.727 124.174 117.634C124.108 117.531 123.987 117.438 123.81 117.354C123.632 117.27 123.483 117.209 123.362 117.172C123.24 117.135 123.04 117.074 122.76 116.99L122.634 116.948C122.372 116.873 122.148 116.803 121.962 116.738C121.784 116.663 121.584 116.565 121.36 116.444C121.136 116.323 120.954 116.192 120.814 116.052C120.674 115.903 120.557 115.716 120.464 115.492C120.37 115.268 120.324 115.016 120.324 114.736C120.324 114.055 120.571 113.509 121.066 113.098C121.57 112.687 122.2 112.482 122.956 112.482C123.917 112.482 124.822 112.762 125.672 113.322L125 114.526C124.234 114.059 123.539 113.826 122.914 113.826C122.587 113.826 122.33 113.896 122.144 114.036C121.966 114.176 121.878 114.363 121.878 114.596C121.878 114.755 121.957 114.899 122.116 115.03C122.284 115.161 122.447 115.259 122.606 115.324C122.774 115.38 123.04 115.469 123.404 115.59C123.422 115.599 123.446 115.609 123.474 115.618C123.502 115.627 123.525 115.632 123.544 115.632C123.87 115.735 124.146 115.837 124.37 115.94C124.594 116.033 124.827 116.164 125.07 116.332C125.322 116.5 125.513 116.71 125.644 116.962C125.774 117.205 125.84 117.489 125.84 117.816C125.84 118.563 125.583 119.137 125.07 119.538C124.556 119.939 123.898 120.14 123.096 120.14ZM131.303 120.126C129.884 120.126 129.175 119.403 129.175 117.956V114.064H128.237V112.608H129.175V110.578H130.869V112.608H132.857V114.064H130.869V117.69C130.869 118.306 131.172 118.614 131.779 118.614C132.143 118.614 132.493 118.53 132.829 118.362V119.748C132.381 120 131.872 120.126 131.303 120.126ZM141.564 122.24V112.608H143.258V113.84C143.912 112.916 144.747 112.454 145.764 112.454C146.698 112.454 147.505 112.804 148.186 113.504C148.868 114.195 149.208 115.133 149.208 116.318C149.208 117.485 148.868 118.418 148.186 119.118C147.505 119.809 146.698 120.154 145.764 120.154C144.747 120.154 143.912 119.72 143.258 118.852V122.24H141.564ZM145.372 118.684C145.97 118.684 146.469 118.465 146.87 118.026C147.281 117.587 147.486 117.009 147.486 116.29C147.486 115.59 147.281 115.021 146.87 114.582C146.46 114.143 145.96 113.924 145.372 113.924C144.784 113.924 144.276 114.148 143.846 114.596C143.426 115.044 143.216 115.618 143.216 116.318C143.216 117.009 143.426 117.578 143.846 118.026C144.276 118.465 144.784 118.684 145.372 118.684ZM158.545 120H156.865V119.09C156.268 119.799 155.47 120.154 154.471 120.154C153.734 120.154 153.109 119.953 152.595 119.552C152.091 119.141 151.839 118.572 151.839 117.844C151.839 117.051 152.115 116.449 152.665 116.038C153.216 115.627 153.939 115.422 154.835 115.422C155.554 115.422 156.235 115.525 156.879 115.73V115.59C156.879 115.077 156.721 114.685 156.403 114.414C156.095 114.143 155.647 114.008 155.059 114.008C154.387 114.008 153.683 114.162 152.945 114.47L152.483 113.112C153.398 112.701 154.336 112.496 155.297 112.496C156.371 112.496 157.178 112.767 157.719 113.308C158.27 113.849 158.545 114.619 158.545 115.618V120ZM156.907 117.326V116.906C156.403 116.71 155.839 116.612 155.213 116.612C154.681 116.612 154.266 116.715 153.967 116.92C153.669 117.125 153.519 117.415 153.519 117.788C153.519 118.124 153.655 118.39 153.925 118.586C154.196 118.782 154.537 118.88 154.947 118.88C155.517 118.88 155.983 118.735 156.347 118.446C156.721 118.157 156.907 117.783 156.907 117.326ZM161.988 111.474V109.864H163.808V111.474H161.988ZM162.058 120V112.608H163.752V120H162.058ZM170.418 120.154C169.494 120.154 168.691 119.809 168.01 119.118C167.329 118.418 166.988 117.475 166.988 116.29C166.988 115.114 167.324 114.181 167.996 113.49C168.677 112.799 169.485 112.454 170.418 112.454C171.426 112.454 172.266 112.888 172.938 113.756V109.78H174.632V120H172.938V118.768C172.285 119.692 171.445 120.154 170.418 120.154ZM169.312 118.026C169.732 118.465 170.236 118.684 170.824 118.684C171.412 118.684 171.916 118.46 172.336 118.012C172.756 117.564 172.966 116.99 172.966 116.29C172.966 115.599 172.756 115.035 172.336 114.596C171.916 114.148 171.412 113.924 170.824 113.924C170.227 113.924 169.723 114.143 169.312 114.582C168.901 115.011 168.696 115.59 168.696 116.318C168.696 117.018 168.901 117.587 169.312 118.026Z" fill="#111111"/>
<path d="M202.984 127.352V124.472H200.088V122.264H202.984V119.384H205.256V122.264H208.152V124.472H205.256V127.352H202.984ZM215.314 130.568V128.952C213.896 128.771 212.637 128.264 211.538 127.432L212.786 125.608C213.704 126.301 214.573 126.733 215.394 126.904V124.36C214.2 124.04 213.325 123.624 212.77 123.112C212.226 122.589 211.954 121.864 211.954 120.936C211.954 120.061 212.258 119.347 212.866 118.792C213.474 118.237 214.29 117.907 215.314 117.8V116.872H216.978V117.832C218.056 117.981 219.048 118.376 219.954 119.016L218.882 120.888C218.2 120.429 217.538 120.115 216.898 119.944V122.36C218.125 122.691 219.01 123.128 219.554 123.672C220.098 124.205 220.37 124.925 220.37 125.832C220.37 126.707 220.061 127.421 219.442 127.976C218.834 128.531 218.013 128.867 216.978 128.984V130.568H215.314ZM215.394 121.96V119.8C214.658 119.896 214.29 120.237 214.29 120.824C214.29 121.08 214.365 121.299 214.514 121.48C214.674 121.651 214.968 121.811 215.394 121.96ZM216.898 126.984C217.656 126.867 218.034 126.515 218.034 125.928C218.034 125.651 217.949 125.427 217.778 125.256C217.618 125.075 217.325 124.904 216.898 124.744V126.984ZM238.599 127.544C237.671 128.643 236.471 129.192 234.999 129.192C233.527 129.192 232.332 128.643 231.415 127.544C230.498 126.445 230.039 125.064 230.039 123.4C230.039 121.747 230.503 120.371 231.431 119.272C232.359 118.163 233.559 117.608 235.031 117.608C236.492 117.608 237.682 118.157 238.599 119.256C239.527 120.355 239.991 121.736 239.991 123.4C239.991 125.053 239.527 126.435 238.599 127.544ZM233.239 125.96C233.698 126.632 234.295 126.968 235.031 126.968C235.767 126.968 236.354 126.637 236.791 125.976C237.239 125.304 237.463 124.445 237.463 123.4C237.463 122.376 237.234 121.528 236.775 120.856C236.316 120.173 235.724 119.832 234.999 119.832C234.274 119.832 233.687 120.168 233.239 120.84C232.791 121.501 232.567 122.355 232.567 123.4C232.567 124.435 232.791 125.288 233.239 125.96ZM243.142 129V126.44H245.734V129H243.142ZM257.44 127.544C256.512 128.643 255.312 129.192 253.84 129.192C252.368 129.192 251.173 128.643 250.256 127.544C249.338 126.445 248.88 125.064 248.88 123.4C248.88 121.747 249.344 120.371 250.272 119.272C251.2 118.163 252.4 117.608 253.872 117.608C255.333 117.608 256.522 118.157 257.44 119.256C258.368 120.355 258.832 121.736 258.832 123.4C258.832 125.053 258.368 126.435 257.44 127.544ZM252.08 125.96C252.538 126.632 253.136 126.968 253.872 126.968C254.608 126.968 255.194 126.637 255.632 125.976C256.08 125.304 256.304 124.445 256.304 123.4C256.304 122.376 256.074 121.528 255.616 120.856C255.157 120.173 254.565 119.832 253.84 119.832C253.114 119.832 252.528 120.168 252.08 120.84C251.632 121.501 251.408 122.355 251.408 123.4C251.408 124.435 251.632 125.288 252.08 125.96ZM262.241 129L267.249 119.928H261.985V117.8H270.049V119.656L265.025 129H262.241Z" fill="#111111"/>
<path fill-rule="evenodd" clip-rule="evenodd" d="M180 189C180 190.657 178.657 192 177 192H73C71.3431 192 70 190.657 70 189C70 187.343 71.3431 186 73 186H177C178.657 186 180 187.343 180 189Z" fill="#FAFF00"/>
<path d="M71.358 174V164.2H73.08V174H71.358ZM76.9074 174V166.608H78.6014V167.756C79.1894 166.888 79.9594 166.454 80.9114 166.454C81.7327 166.454 82.3767 166.711 82.8434 167.224C83.31 167.737 83.5434 168.428 83.5434 169.296V174H81.8494V169.8C81.8494 169.221 81.7094 168.778 81.4294 168.47C81.1587 168.153 80.7714 167.994 80.2674 167.994C79.7727 167.994 79.3714 168.157 79.0634 168.484C78.7554 168.811 78.6014 169.259 78.6014 169.828V174H76.9074ZM89.467 174.126C88.0483 174.126 87.339 173.403 87.339 171.956V168.064H86.401V166.608H87.339V164.578H89.033V166.608H91.021V168.064H89.033V171.69C89.033 172.306 89.3363 172.614 89.943 172.614C90.307 172.614 90.657 172.53 90.993 172.362V173.748C90.545 174 90.0363 174.126 89.467 174.126ZM97.3141 174.168C96.2314 174.168 95.3261 173.809 94.5981 173.09C93.8794 172.371 93.5201 171.443 93.5201 170.304C93.5201 169.231 93.8608 168.321 94.5421 167.574C95.2234 166.827 96.0868 166.454 97.1321 166.454C98.2521 166.454 99.1201 166.837 99.7361 167.602C100.361 168.358 100.674 169.301 100.674 170.43C100.674 170.635 100.665 170.794 100.646 170.906H95.2141C95.3074 171.494 95.5454 171.956 95.9281 172.292C96.3108 172.619 96.7821 172.782 97.3421 172.782C98.0701 172.782 98.7374 172.488 99.3441 171.9L100.338 172.782C99.5728 173.706 98.5648 174.168 97.3141 174.168ZM95.2001 169.786H98.9941C98.9381 169.217 98.7468 168.75 98.4201 168.386C98.0934 168.022 97.6594 167.84 97.1181 167.84C96.6048 167.84 96.1754 168.022 95.8301 168.386C95.4848 168.741 95.2748 169.207 95.2001 169.786ZM103.775 174V166.608H105.469V168.274C105.992 167.014 106.865 166.412 108.087 166.468V168.26H107.989C107.224 168.26 106.613 168.512 106.155 169.016C105.698 169.511 105.469 170.234 105.469 171.186V174H103.775ZM114.1 174.168C113.018 174.168 112.112 173.809 111.384 173.09C110.666 172.371 110.306 171.443 110.306 170.304C110.306 169.231 110.647 168.321 111.328 167.574C112.01 166.827 112.873 166.454 113.918 166.454C115.038 166.454 115.906 166.837 116.522 167.602C117.148 168.358 117.46 169.301 117.46 170.43C117.46 170.635 117.451 170.794 117.432 170.906H112C112.094 171.494 112.332 171.956 112.714 172.292C113.097 172.619 113.568 172.782 114.128 172.782C114.856 172.782 115.524 172.488 116.13 171.9L117.124 172.782C116.359 173.706 115.351 174.168 114.1 174.168ZM111.986 169.786H115.78C115.724 169.217 115.533 168.75 115.206 168.386C114.88 168.022 114.446 167.84 113.904 167.84C113.391 167.84 112.962 168.022 112.616 168.386C112.271 168.741 112.061 169.207 111.986 169.786ZM123.096 174.14C121.938 174.14 120.893 173.771 119.96 173.034L120.716 171.886C121.518 172.493 122.326 172.796 123.138 172.796C123.502 172.796 123.782 172.726 123.978 172.586C124.183 172.437 124.286 172.231 124.286 171.97C124.286 171.839 124.248 171.727 124.174 171.634C124.108 171.531 123.987 171.438 123.81 171.354C123.632 171.27 123.483 171.209 123.362 171.172C123.24 171.135 123.04 171.074 122.76 170.99L122.634 170.948C122.372 170.873 122.148 170.803 121.962 170.738C121.784 170.663 121.584 170.565 121.36 170.444C121.136 170.323 120.954 170.192 120.814 170.052C120.674 169.903 120.557 169.716 120.464 169.492C120.37 169.268 120.324 169.016 120.324 168.736C120.324 168.055 120.571 167.509 121.066 167.098C121.57 166.687 122.2 166.482 122.956 166.482C123.917 166.482 124.822 166.762 125.672 167.322L125 168.526C124.234 168.059 123.539 167.826 122.914 167.826C122.587 167.826 122.33 167.896 122.144 168.036C121.966 168.176 121.878 168.363 121.878 168.596C121.878 168.755 121.957 168.899 122.116 169.03C122.284 169.161 122.447 169.259 122.606 169.324C122.774 169.38 123.04 169.469 123.404 169.59C123.422 169.599 123.446 169.609 123.474 169.618C123.502 169.627 123.525 169.632 123.544 169.632C123.87 169.735 124.146 169.837 124.37 169.94C124.594 170.033 124.827 170.164 125.07 170.332C125.322 170.5 125.513 170.71 125.644 170.962C125.774 171.205 125.84 171.489 125.84 171.816C125.84 172.563 125.583 173.137 125.07 173.538C124.556 173.939 123.898 174.14 123.096 174.14ZM131.303 174.126C129.884 174.126 129.175 173.403 129.175 171.956V168.064H128.237V166.608H129.175V164.578H130.869V166.608H132.857V168.064H130.869V171.69C130.869 172.306 131.172 172.614 131.779 172.614C132.143 172.614 132.493 172.53 132.829 172.362V173.748C132.381 174 131.872 174.126 131.303 174.126ZM141.564 176.24V166.608H143.258V167.84C143.912 166.916 144.747 166.454 145.764 166.454C146.698 166.454 147.505 166.804 148.186 167.504C148.868 168.195 149.208 169.133 149.208 170.318C149.208 171.485 148.868 172.418 148.186 173.118C147.505 173.809 146.698 174.154 145.764 174.154C144.747 174.154 143.912 173.72 143.258 172.852V176.24H141.564ZM145.372 172.684C145.97 172.684 146.469 172.465 146.87 172.026C147.281 171.587 147.486 171.009 147.486 170.29C147.486 169.59 147.281 169.021 146.87 168.582C146.46 168.143 145.96 167.924 145.372 167.924C144.784 167.924 144.276 168.148 143.846 168.596C143.426 169.044 143.216 169.618 143.216 170.318C143.216 171.009 143.426 171.578 143.846 172.026C144.276 172.465 144.784 172.684 145.372 172.684ZM158.545 174H156.865V173.09C156.268 173.799 155.47 174.154 154.471 174.154C153.734 174.154 153.109 173.953 152.595 173.552C152.091 173.141 151.839 172.572 151.839 171.844C151.839 171.051 152.115 170.449 152.665 170.038C153.216 169.627 153.939 169.422 154.835 169.422C155.554 169.422 156.235 169.525 156.879 169.73V169.59C156.879 169.077 156.721 168.685 156.403 168.414C156.095 168.143 155.647 168.008 155.059 168.008C154.387 168.008 153.683 168.162 152.945 168.47L152.483 167.112C153.398 166.701 154.336 166.496 155.297 166.496C156.371 166.496 157.178 166.767 157.719 167.308C158.27 167.849 158.545 168.619 158.545 169.618V174ZM156.907 171.326V170.906C156.403 170.71 155.839 170.612 155.213 170.612C154.681 170.612 154.266 170.715 153.967 170.92C153.669 171.125 153.519 171.415 153.519 171.788C153.519 172.124 153.655 172.39 153.925 172.586C154.196 172.782 154.537 172.88 154.947 172.88C155.517 172.88 155.983 172.735 156.347 172.446C156.721 172.157 156.907 171.783 156.907 171.326ZM161.988 165.474V163.864H163.808V165.474H161.988ZM162.058 174V166.608H163.752V174H162.058ZM170.418 174.154C169.494 174.154 168.691 173.809 168.01 173.118C167.329 172.418 166.988 171.475 166.988 170.29C166.988 169.114 167.324 168.181 167.996 167.49C168.677 166.799 169.485 166.454 170.418 166.454C171.426 166.454 172.266 166.888 172.938 167.756V163.78H174.632V174H172.938V172.768C172.285 173.692 171.445 174.154 170.418 174.154ZM169.312 172.026C169.732 172.465 170.236 172.684 170.824 172.684C171.412 172.684 171.916 172.46 172.336 172.012C172.756 171.564 172.966 170.99 172.966 170.29C172.966 169.599 172.756 169.035 172.336 168.596C171.916 168.148 171.412 167.924 170.824 167.924C170.227 167.924 169.723 168.143 169.312 168.582C168.901 169.011 168.696 169.59 168.696 170.318C168.696 171.018 168.901 171.587 169.312 172.026Z" fill="#111111"/>
<path d="M202.984 181.352V178.472H200.088V176.264H202.984V173.384H205.256V176.264H208.152V178.472H205.256V181.352H202.984ZM215.314 184.568V182.952C213.896 182.771 212.637 182.264 211.538 181.432L212.786 179.608C213.704 180.301 214.573 180.733 215.394 180.904V178.36C214.2 178.04 213.325 177.624 212.77 177.112C212.226 176.589 211.954 175.864 211.954 174.936C211.954 174.061 212.258 173.347 212.866 172.792C213.474 172.237 214.29 171.907 215.314 171.8V170.872H216.978V171.832C218.056 171.981 219.048 172.376 219.954 173.016L218.882 174.888C218.2 174.429 217.538 174.115 216.898 173.944V176.36C218.125 176.691 219.01 177.128 219.554 177.672C220.098 178.205 220.37 178.925 220.37 179.832C220.37 180.707 220.061 181.421 219.442 181.976C218.834 182.531 218.013 182.867 216.978 182.984V184.568H215.314ZM215.394 175.96V173.8C214.658 173.896 214.29 174.237 214.29 174.824C214.29 175.08 214.365 175.299 214.514 175.48C214.674 175.651 214.968 175.811 215.394 175.96ZM216.898 180.984C217.656 180.867 218.034 180.515 218.034 179.928C218.034 179.651 217.949 179.427 217.778 179.256C217.618 179.075 217.325 178.904 216.898 178.744V180.984ZM238.599 181.544C237.671 182.643 236.471 183.192 234.999 183.192C233.527 183.192 232.332 182.643 231.415 181.544C230.498 180.445 230.039 179.064 230.039 177.4C230.039 175.747 230.503 174.371 231.431 173.272C232.359 172.163 233.559 171.608 235.031 171.608C236.492 171.608 237.682 172.157 238.599 173.256C239.527 174.355 239.991 175.736 239.991 177.4C239.991 179.053 239.527 180.435 238.599 181.544ZM233.239 179.96C233.698 180.632 234.295 180.968 235.031 180.968C235.767 180.968 236.354 180.637 236.791 179.976C237.239 179.304 237.463 178.445 237.463 177.4C237.463 176.376 237.234 175.528 236.775 174.856C236.316 174.173 235.724 173.832 234.999 173.832C234.274 173.832 233.687 174.168 233.239 174.84C232.791 175.501 232.567 176.355 232.567 177.4C232.567 178.435 232.791 179.288 233.239 179.96ZM242.774 185.592L242.566 184.584C243.611 184.467 244.134 183.997 244.134 183.176V183H243.142V180.44H245.734V182.6C245.734 183.624 245.483 184.371 244.982 184.84C244.491 185.32 243.755 185.571 242.774 185.592ZM257.44 181.544C256.512 182.643 255.312 183.192 253.84 183.192C252.368 183.192 251.173 182.643 250.256 181.544C249.338 180.445 248.88 179.064 248.88 177.4C248.88 175.747 249.344 174.371 250.272 173.272C251.2 172.163 252.4 171.608 253.872 171.608C255.333 171.608 256.522 172.157 257.44 173.256C258.368 174.355 258.832 175.736 258.832 177.4C258.832 179.053 258.368 180.435 257.44 181.544ZM252.08 179.96C252.538 180.632 253.136 180.968 253.872 180.968C254.608 180.968 255.194 180.637 255.632 179.976C256.08 179.304 256.304 178.445 256.304 177.4C256.304 176.376 256.074 175.528 255.616 174.856C255.157 174.173 254.565 173.832 253.84 173.832C253.114 173.832 252.528 174.168 252.08 174.84C251.632 175.501 251.408 176.355 251.408 177.4C251.408 178.435 251.632 179.288 252.08 179.96ZM262.241 183L267.249 173.928H261.985V171.8H270.049V173.656L265.025 183H262.241Z" fill="#111111"/>
<path fill-rule="evenodd" clip-rule="evenodd" d="M180 243C180 244.657 178.657 246 177 246H73C71.3431 246 70 244.657 70 243C70 241.343 71.3431 240 73 240H177C178.657 240 180 241.343 180 243Z" fill="#FAFF00"/>
<path d="M71.358 228V218.2H73.08V228H71.358ZM76.9074 228V220.608H78.6014V221.756C79.1894 220.888 79.9594 220.454 80.9114 220.454C81.7327 220.454 82.3767 220.711 82.8434 221.224C83.31 221.737 83.5434 222.428 83.5434 223.296V228H81.8494V223.8C81.8494 223.221 81.7094 222.778 81.4294 222.47C81.1587 222.153 80.7714 221.994 80.2674 221.994C79.7727 221.994 79.3714 222.157 79.0634 222.484C78.7554 222.811 78.6014 223.259 78.6014 223.828V228H76.9074ZM89.467 228.126C88.0483 228.126 87.339 227.403 87.339 225.956V222.064H86.401V220.608H87.339V218.578H89.033V220.608H91.021V222.064H89.033V225.69C89.033 226.306 89.3363 226.614 89.943 226.614C90.307 226.614 90.657 226.53 90.993 226.362V227.748C90.545 228 90.0363 228.126 89.467 228.126ZM97.3141 228.168C96.2314 228.168 95.3261 227.809 94.5981 227.09C93.8794 226.371 93.5201 225.443 93.5201 224.304C93.5201 223.231 93.8608 222.321 94.5421 221.574C95.2234 220.827 96.0868 220.454 97.1321 220.454C98.2521 220.454 99.1201 220.837 99.7361 221.602C100.361 222.358 100.674 223.301 100.674 224.43C100.674 224.635 100.665 224.794 100.646 224.906H95.2141C95.3074 225.494 95.5454 225.956 95.9281 226.292C96.3108 226.619 96.7821 226.782 97.3421 226.782C98.0701 226.782 98.7374 226.488 99.3441 225.9L100.338 226.782C99.5728 227.706 98.5648 228.168 97.3141 228.168ZM95.2001 223.786H98.9941C98.9381 223.217 98.7468 222.75 98.4201 222.386C98.0934 222.022 97.6594 221.84 97.1181 221.84C96.6048 221.84 96.1754 222.022 95.8301 222.386C95.4848 222.741 95.2748 223.207 95.2001 223.786ZM103.775 228V220.608H105.469V222.274C105.992 221.014 106.865 220.412 108.087 220.468V222.26H107.989C107.224 222.26 106.613 222.512 106.155 223.016C105.698 223.511 105.469 224.234 105.469 225.186V228H103.775ZM114.1 228.168C113.018 228.168 112.112 227.809 111.384 227.09C110.666 226.371 110.306 225.443 110.306 224.304C110.306 223.231 110.647 222.321 111.328 221.574C112.01 220.827 112.873 220.454 113.918 220.454C115.038 220.454 115.906 220.837 116.522 221.602C117.148 222.358 117.46 223.301 117.46 224.43C117.46 224.635 117.451 224.794 117.432 224.906H112C112.094 225.494 112.332 225.956 112.714 226.292C113.097 226.619 113.568 226.782 114.128 226.782C114.856 226.782 115.524 226.488 116.13 225.9L117.124 226.782C116.359 227.706 115.351 228.168 114.1 228.168ZM111.986 223.786H115.78C115.724 223.217 115.533 222.75 115.206 222.386C114.88 222.022 114.446 221.84 113.904 221.84C113.391 221.84 112.962 222.022 112.616 222.386C112.271 222.741 112.061 223.207 111.986 223.786ZM123.096 228.14C121.938 228.14 120.893 227.771 119.96 227.034L120.716 225.886C121.518 226.493 122.326 226.796 123.138 226.796C123.502 226.796 123.782 226.726 123.978 226.586C124.183 226.437 124.286 226.231 124.286 225.97C124.286 225.839 124.248 225.727 124.174 225.634C124.108 225.531 123.987 225.438 123.81 225.354C123.632 225.27 123.483 225.209 123.362 225.172C123.24 225.135 123.04 225.074 122.76 224.99L122.634 224.948C122.372 224.873 122.148 224.803 121.962 224.738C121.784 224.663 121.584 224.565 121.36 224.444C121.136 224.323 120.954 224.192 120.814 224.052C120.674 223.903 120.557 223.716 120.464 223.492C120.37 223.268 120.324 223.016 120.324 222.736C120.324 222.055 120.571 221.509 121.066 221.098C121.57 220.687 122.2 220.482 122.956 220.482C123.917 220.482 124.822 220.762 125.672 221.322L125 222.526C124.234 222.059 123.539 221.826 122.914 221.826C122.587 221.826 122.33 221.896 122.144 222.036C121.966 222.176 121.878 222.363 121.878 222.596C121.878 222.755 121.957 222.899 122.116 223.03C122.284 223.161 122.447 223.259 122.606 223.324C122.774 223.38 123.04 223.469 123.404 223.59C123.422 223.599 123.446 223.609 123.474 223.618C123.502 223.627 123.525 223.632 123.544 223.632C123.87 223.735 124.146 223.837 124.37 223.94C124.594 224.033 124.827 224.164 125.07 224.332C125.322 224.5 125.513 224.71 125.644 224.962C125.774 225.205 125.84 225.489 125.84 225.816C125.84 226.563 125.583 227.137 125.07 227.538C124.556 227.939 123.898 228.14 123.096 228.14ZM131.303 228.126C129.884 228.126 129.175 227.403 129.175 225.956V222.064H128.237V220.608H129.175V218.578H130.869V220.608H132.857V222.064H130.869V225.69C130.869 226.306 131.172 226.614 131.779 226.614C132.143 226.614 132.493 226.53 132.829 226.362V227.748C132.381 228 131.872 228.126 131.303 228.126ZM141.564 230.24V220.608H143.258V221.84C143.912 220.916 144.747 220.454 145.764 220.454C146.698 220.454 147.505 220.804 148.186 221.504C148.868 222.195 149.208 223.133 149.208 224.318C149.208 225.485 148.868 226.418 148.186 227.118C147.505 227.809 146.698 228.154 145.764 228.154C144.747 228.154 143.912 227.72 143.258 226.852V230.24H141.564ZM145.372 226.684C145.97 226.684 146.469 226.465 146.87 226.026C147.281 225.587 147.486 225.009 147.486 224.29C147.486 223.59 147.281 223.021 146.87 222.582C146.46 222.143 145.96 221.924 145.372 221.924C144.784 221.924 144.276 222.148 143.846 222.596C143.426 223.044 143.216 223.618 143.216 224.318C143.216 225.009 143.426 225.578 143.846 226.026C144.276 226.465 144.784 226.684 145.372 226.684ZM158.545 228H156.865V227.09C156.268 227.799 155.47 228.154 154.471 228.154C153.734 228.154 153.109 227.953 152.595 227.552C152.091 227.141 151.839 226.572 151.839 225.844C151.839 225.051 152.115 224.449 152.665 224.038C153.216 223.627 153.939 223.422 154.835 223.422C155.554 223.422 156.235 223.525 156.879 223.73V223.59C156.879 223.077 156.721 222.685 156.403 222.414C156.095 222.143 155.647 222.008 155.059 222.008C154.387 222.008 153.683 222.162 152.945 222.47L152.483 221.112C153.398 220.701 154.336 220.496 155.297 220.496C156.371 220.496 157.178 220.767 157.719 221.308C158.27 221.849 158.545 222.619 158.545 223.618V228ZM156.907 225.326V224.906C156.403 224.71 155.839 224.612 155.213 224.612C154.681 224.612 154.266 224.715 153.967 224.92C153.669 225.125 153.519 225.415 153.519 225.788C153.519 226.124 153.655 226.39 153.925 226.586C154.196 226.782 154.537 226.88 154.947 226.88C155.517 226.88 155.983 226.735 156.347 226.446C156.721 226.157 156.907 225.783 156.907 225.326ZM161.988 219.474V217.864H163.808V219.474H161.988ZM162.058 228V220.608H163.752V228H162.058ZM170.418 228.154C169.494 228.154 168.691 227.809 168.01 227.118C167.329 226.418 166.988 225.475 166.988 224.29C166.988 223.114 167.324 222.181 167.996 221.49C168.677 220.799 169.485 220.454 170.418 220.454C171.426 220.454 172.266 220.888 172.938 221.756V217.78H174.632V228H172.938V226.768C172.285 227.692 171.445 228.154 170.418 228.154ZM169.312 226.026C169.732 226.465 170.236 226.684 170.824 226.684C171.412 226.684 171.916 226.46 172.336 226.012C172.756 225.564 172.966 224.99 172.966 224.29C172.966 223.599 172.756 223.035 172.336 222.596C171.916 222.148 171.412 221.924 170.824 221.924C170.227 221.924 169.723 222.143 169.312 222.582C168.901 223.011 168.696 223.59 168.696 224.318C168.696 225.018 168.901 225.587 169.312 226.026Z" fill="#111111"/>
<path d="M202.984 235.352V232.472H200.088V230.264H202.984V227.384H205.256V230.264H208.152V232.472H205.256V235.352H202.984ZM215.314 238.568V236.952C213.896 236.771 212.637 236.264 211.538 235.432L212.786 233.608C213.704 234.301 214.573 234.733 215.394 234.904V232.36C214.2 232.04 213.325 231.624 212.77 231.112C212.226 230.589 211.954 229.864 211.954 228.936C211.954 228.061 212.258 227.347 212.866 226.792C213.474 226.237 214.29 225.907 215.314 225.8V224.872H216.978V225.832C218.056 225.981 219.048 226.376 219.954 227.016L218.882 228.888C218.2 228.429 217.538 228.115 216.898 227.944V230.36C218.125 230.691 219.01 231.128 219.554 231.672C220.098 232.205 220.37 232.925 220.37 233.832C220.37 234.707 220.061 235.421 219.442 235.976C218.834 236.531 218.013 236.867 216.978 236.984V238.568H215.314ZM215.394 229.96V227.8C214.658 227.896 214.29 228.237 214.29 228.824C214.29 229.08 214.365 229.299 214.514 229.48C214.674 229.651 214.968 229.811 215.394 229.96ZM216.898 234.984C217.656 234.867 218.034 234.515 218.034 233.928C218.034 233.651 217.949 233.427 217.778 233.256C217.618 233.075 217.325 232.904 216.898 232.744V234.984ZM238.599 235.544C237.671 236.643 236.471 237.192 234.999 237.192C233.527 237.192 232.332 236.643 231.415 235.544C230.498 234.445 230.039 233.064 230.039 231.4C230.039 229.747 230.503 228.371 231.431 227.272C232.359 226.163 233.559 225.608 235.031 225.608C236.492 225.608 237.682 226.157 238.599 227.256C239.527 228.355 239.991 229.736 239.991 231.4C239.991 233.053 239.527 234.435 238.599 235.544ZM233.239 233.96C233.698 234.632 234.295 234.968 235.031 234.968C235.767 234.968 236.354 234.637 236.791 233.976C237.239 233.304 237.463 232.445 237.463 231.4C237.463 230.376 237.234 229.528 236.775 228.856C236.316 228.173 235.724 227.832 234.999 227.832C234.274 227.832 233.687 228.168 233.239 228.84C232.791 229.501 232.567 230.355 232.567 231.4C232.567 232.435 232.791 233.288 233.239 233.96ZM242.774 239.592L242.566 238.584C243.611 238.467 244.134 237.997 244.134 237.176V237H243.142V234.44H245.734V236.6C245.734 237.624 245.483 238.371 244.982 238.84C244.491 239.32 243.755 239.571 242.774 239.592ZM257.44 235.544C256.512 236.643 255.312 237.192 253.84 237.192C252.368 237.192 251.173 236.643 250.256 235.544C249.338 234.445 248.88 233.064 248.88 231.4C248.88 229.747 249.344 228.371 250.272 227.272C251.2 226.163 252.4 225.608 253.872 225.608C255.333 225.608 256.522 226.157 257.44 227.256C258.368 228.355 258.832 229.736 258.832 231.4C258.832 233.053 258.368 234.435 257.44 235.544ZM252.08 233.96C252.538 234.632 253.136 234.968 253.872 234.968C254.608 234.968 255.194 234.637 255.632 233.976C256.08 233.304 256.304 232.445 256.304 231.4C256.304 230.376 256.074 229.528 255.616 228.856C255.157 228.173 254.565 227.832 253.84 227.832C253.114 227.832 252.528 228.168 252.08 228.84C251.632 229.501 251.408 230.355 251.408 231.4C251.408 232.435 251.632 233.288 252.08 233.96ZM262.241 237L267.249 227.928H261.985V225.8H270.049V227.656L265.025 237H262.241Z" fill="#111111"/>
<path fill-rule="evenodd" clip-rule="evenodd" d="M180 297C180 298.657 178.657 300 177 300H73C71.3431 300 70 298.657 70 297C70 295.343 71.3431 294 73 294H177C178.657 294 180 295.343 180 297Z" fill="#FAFF00"/>
<path d="M71.358 282V272.2H73.08V282H71.358ZM76.9074 282V274.608H78.6014V275.756C79.1894 274.888 79.9594 274.454 80.9114 274.454C81.7327 274.454 82.3767 274.711 82.8434 275.224C83.31 275.737 83.5434 276.428 83.5434 277.296V282H81.8494V277.8C81.8494 277.221 81.7094 276.778 81.4294 276.47C81.1587 276.153 80.7714 275.994 80.2674 275.994C79.7727 275.994 79.3714 276.157 79.0634 276.484C78.7554 276.811 78.6014 277.259 78.6014 277.828V282H76.9074ZM89.467 282.126C88.0483 282.126 87.339 281.403 87.339 279.956V276.064H86.401V274.608H87.339V272.578H89.033V274.608H91.021V276.064H89.033V279.69C89.033 280.306 89.3363 280.614 89.943 280.614C90.307 280.614 90.657 280.53 90.993 280.362V281.748C90.545 282 90.0363 282.126 89.467 282.126ZM97.3141 282.168C96.2314 282.168 95.3261 281.809 94.5981 281.09C93.8794 280.371 93.5201 279.443 93.5201 278.304C93.5201 277.231 93.8608 276.321 94.5421 275.574C95.2234 274.827 96.0868 274.454 97.1321 274.454C98.2521 274.454 99.1201 274.837 99.7361 275.602C100.361 276.358 100.674 277.301 100.674 278.43C100.674 278.635 100.665 278.794 100.646 278.906H95.2141C95.3074 279.494 95.5454 279.956 95.9281 280.292C96.3108 280.619 96.7821 280.782 97.3421 280.782C98.0701 280.782 98.7374 280.488 99.3441 279.9L100.338 280.782C99.5728 281.706 98.5648 282.168 97.3141 282.168ZM95.2001 277.786H98.9941C98.9381 277.217 98.7468 276.75 98.4201 276.386C98.0934 276.022 97.6594 275.84 97.1181 275.84C96.6048 275.84 96.1754 276.022 95.8301 276.386C95.4848 276.741 95.2748 277.207 95.2001 277.786ZM103.775 282V274.608H105.469V276.274C105.992 275.014 106.865 274.412 108.087 274.468V276.26H107.989C107.224 276.26 106.613 276.512 106.155 277.016C105.698 277.511 105.469 278.234 105.469 279.186V282H103.775ZM114.1 282.168C113.018 282.168 112.112 281.809 111.384 281.09C110.666 280.371 110.306 279.443 110.306 278.304C110.306 277.231 110.647 276.321 111.328 275.574C112.01 274.827 112.873 274.454 113.918 274.454C115.038 274.454 115.906 274.837 116.522 275.602C117.148 276.358 117.46 277.301 117.46 278.43C117.46 278.635 117.451 278.794 117.432 278.906H112C112.094 279.494 112.332 279.956 112.714 280.292C113.097 280.619 113.568 280.782 114.128 280.782C114.856 280.782 115.524 280.488 116.13 279.9L117.124 280.782C116.359 281.706 115.351 282.168 114.1 282.168ZM111.986 277.786H115.78C115.724 277.217 115.533 276.75 115.206 276.386C114.88 276.022 114.446 275.84 113.904 275.84C113.391 275.84 112.962 276.022 112.616 276.386C112.271 276.741 112.061 277.207 111.986 277.786ZM123.096 282.14C121.938 282.14 120.893 281.771 119.96 281.034L120.716 279.886C121.518 280.493 122.326 280.796 123.138 280.796C123.502 280.796 123.782 280.726 123.978 280.586C124.183 280.437 124.286 280.231 124.286 279.97C124.286 279.839 124.248 279.727 124.174 279.634C124.108 279.531 123.987 279.438 123.81 279.354C123.632 279.27 123.483 279.209 123.362 279.172C123.24 279.135 123.04 279.074 122.76 278.99L122.634 278.948C122.372 278.873 122.148 278.803 121.962 278.738C121.784 278.663 121.584 278.565 121.36 278.444C121.136 278.323 120.954 278.192 120.814 278.052C120.674 277.903 120.557 277.716 120.464 277.492C120.37 277.268 120.324 277.016 120.324 276.736C120.324 276.055 120.571 275.509 121.066 275.098C121.57 274.687 122.2 274.482 122.956 274.482C123.917 274.482 124.822 274.762 125.672 275.322L125 276.526C124.234 276.059 123.539 275.826 122.914 275.826C122.587 275.826 122.33 275.896 122.144 276.036C121.966 276.176 121.878 276.363 121.878 276.596C121.878 276.755 121.957 276.899 122.116 277.03C122.284 277.161 122.447 277.259 122.606 277.324C122.774 277.38 123.04 277.469 123.404 277.59C123.422 277.599 123.446 277.609 123.474 277.618C123.502 277.627 123.525 277.632 123.544 277.632C123.87 277.735 124.146 277.837 124.37 277.94C124.594 278.033 124.827 278.164 125.07 278.332C125.322 278.5 125.513 278.71 125.644 278.962C125.774 279.205 125.84 279.489 125.84 279.816C125.84 280.563 125.583 281.137 125.07 281.538C124.556 281.939 123.898 282.14 123.096 282.14ZM131.303 282.126C129.884 282.126 129.175 281.403 129.175 279.956V276.064H128.237V274.608H129.175V272.578H130.869V274.608H132.857V276.064H130.869V279.69C130.869 280.306 131.172 280.614 131.779 280.614C132.143 280.614 132.493 280.53 132.829 280.362V281.748C132.381 282 131.872 282.126 131.303 282.126ZM141.564 284.24V274.608H143.258V275.84C143.912 274.916 144.747 274.454 145.764 274.454C146.698 274.454 147.505 274.804 148.186 275.504C148.868 276.195 149.208 277.133 149.208 278.318C149.208 279.485 148.868 280.418 148.186 281.118C147.505 281.809 146.698 282.154 145.764 282.154C144.747 282.154 143.912 281.72 143.258 280.852V284.24H141.564ZM145.372 280.684C145.97 280.684 146.469 280.465 146.87 280.026C147.281 279.587 147.486 279.009 147.486 278.29C147.486 277.59 147.281 277.021 146.87 276.582C146.46 276.143 145.96 275.924 145.372 275.924C144.784 275.924 144.276 276.148 143.846 276.596C143.426 277.044 143.216 277.618 143.216 278.318C143.216 279.009 143.426 279.578 143.846 280.026C144.276 280.465 144.784 280.684 145.372 280.684ZM158.545 282H156.865V281.09C156.268 281.799 155.47 282.154 154.471 282.154C153.734 282.154 153.109 281.953 152.595 281.552C152.091 281.141 151.839 280.572 151.839 279.844C151.839 279.051 152.115 278.449 152.665 278.038C153.216 277.627 153.939 277.422 154.835 277.422C155.554 277.422 156.235 277.525 156.879 277.73V277.59C156.879 277.077 156.721 276.685 156.403 276.414C156.095 276.143 155.647 276.008 155.059 276.008C154.387 276.008 153.683 276.162 152.945 276.47L152.483 275.112C153.398 274.701 154.336 274.496 155.297 274.496C156.371 274.496 157.178 274.767 157.719 275.308C158.27 275.849 158.545 276.619 158.545 277.618V282ZM156.907 279.326V278.906C156.403 278.71 155.839 278.612 155.213 278.612C154.681 278.612 154.266 278.715 153.967 278.92C153.669 279.125 153.519 279.415 153.519 279.788C153.519 280.124 153.655 280.39 153.925 280.586C154.196 280.782 154.537 280.88 154.947 280.88C155.517 280.88 155.983 280.735 156.347 280.446C156.721 280.157 156.907 279.783 156.907 279.326ZM161.988 273.474V271.864H163.808V273.474H161.988ZM162.058 282V274.608H163.752V282H162.058ZM170.418 282.154C169.494 282.154 168.691 281.809 168.01 281.118C167.329 280.418 166.988 279.475 166.988 278.29C166.988 277.114 167.324 276.181 167.996 275.49C168.677 274.799 169.485 274.454 170.418 274.454C171.426 274.454 172.266 274.888 172.938 275.756V271.78H174.632V282H172.938V280.768C172.285 281.692 171.445 282.154 170.418 282.154ZM169.312 280.026C169.732 280.465 170.236 280.684 170.824 280.684C171.412 280.684 171.916 280.46 172.336 280.012C172.756 279.564 172.966 278.99 172.966 278.29C172.966 277.599 172.756 277.035 172.336 276.596C171.916 276.148 171.412 275.924 170.824 275.924C170.227 275.924 169.723 276.143 169.312 276.582C168.901 277.011 168.696 277.59 168.696 278.318C168.696 279.018 168.901 279.587 169.312 280.026Z" fill="#111111"/>
<path d="M202.984 288.352V285.472H200.088V283.264H202.984V280.384H205.256V283.264H208.152V285.472H205.256V288.352H202.984ZM215.314 291.568V289.952C213.896 289.771 212.637 289.264 211.538 288.432L212.786 286.608C213.704 287.301 214.573 287.733 215.394 287.904V285.36C214.2 285.04 213.325 284.624 212.77 284.112C212.226 283.589 211.954 282.864 211.954 281.936C211.954 281.061 212.258 280.347 212.866 279.792C213.474 279.237 214.29 278.907 215.314 278.8V277.872H216.978V278.832C218.056 278.981 219.048 279.376 219.954 280.016L218.882 281.888C218.2 281.429 217.538 281.115 216.898 280.944V283.36C218.125 283.691 219.01 284.128 219.554 284.672C220.098 285.205 220.37 285.925 220.37 286.832C220.37 287.707 220.061 288.421 219.442 288.976C218.834 289.531 218.013 289.867 216.978 289.984V291.568H215.314ZM215.394 282.96V280.8C214.658 280.896 214.29 281.237 214.29 281.824C214.29 282.08 214.365 282.299 214.514 282.48C214.674 282.651 214.968 282.811 215.394 282.96ZM216.898 287.984C217.656 287.867 218.034 287.515 218.034 286.928C218.034 286.651 217.949 286.427 217.778 286.256C217.618 286.075 217.325 285.904 216.898 285.744V287.984ZM238.599 288.544C237.671 289.643 236.471 290.192 234.999 290.192C233.527 290.192 232.332 289.643 231.415 288.544C230.498 287.445 230.039 286.064 230.039 284.4C230.039 282.747 230.503 281.371 231.431 280.272C232.359 279.163 233.559 278.608 235.031 278.608C236.492 278.608 237.682 279.157 238.599 280.256C239.527 281.355 239.991 282.736 239.991 284.4C239.991 286.053 239.527 287.435 238.599 288.544ZM233.239 286.96C233.698 287.632 234.295 287.968 235.031 287.968C235.767 287.968 236.354 287.637 236.791 286.976C237.239 286.304 237.463 285.445 237.463 284.4C237.463 283.376 237.234 282.528 236.775 281.856C236.316 281.173 235.724 280.832 234.999 280.832C234.274 280.832 233.687 281.168 233.239 281.84C232.791 282.501 232.567 283.355 232.567 284.4C232.567 285.435 232.791 286.288 233.239 286.96ZM242.774 292.592L242.566 291.584C243.611 291.467 244.134 290.997 244.134 290.176V290H243.142V287.44H245.734V289.6C245.734 290.624 245.483 291.371 244.982 291.84C244.491 292.32 243.755 292.571 242.774 292.592ZM257.44 288.544C256.512 289.643 255.312 290.192 253.84 290.192C252.368 290.192 251.173 289.643 250.256 288.544C249.338 287.445 248.88 286.064 248.88 284.4C248.88 282.747 249.344 281.371 250.272 280.272C251.2 279.163 252.4 278.608 253.872 278.608C255.333 278.608 256.522 279.157 257.44 280.256C258.368 281.355 258.832 282.736 258.832 284.4C258.832 286.053 258.368 287.435 257.44 288.544ZM252.08 286.96C252.538 287.632 253.136 287.968 253.872 287.968C254.608 287.968 255.194 287.637 255.632 286.976C256.08 286.304 256.304 285.445 256.304 284.4C256.304 283.376 256.074 282.528 255.616 281.856C255.157 281.173 254.565 280.832 253.84 280.832C253.114 280.832 252.528 281.168 252.08 281.84C251.632 282.501 251.408 283.355 251.408 284.4C251.408 285.435 251.632 286.288 252.08 286.96ZM262.241 290L267.249 280.928H261.985V278.8H270.049V280.656L265.025 290H262.241Z" fill="#111111"/>
<rect x="231.5" y="0.5" width="119" height="105" rx="11.5" fill="white" stroke="#111111"/>
<line x1="239" y1="23.5" x2="343" y2="23.5" stroke="#111111"/>
<circle cx="252" cy="41" r="4.5" stroke="#111111"/>
<circle cx="252" cy="63" r="4.5" stroke="#111111"/>
<circle cx="252" cy="85" r="4.5" stroke="#111111"/>
<circle cx="278" cy="41" r="4.5" stroke="#111111"/>
<circle cx="278" cy="63" r="4.5" stroke="#111111"/>
<circle cx="278" cy="85" r="4.5" stroke="#111111"/>
<circle cx="304" cy="41" r="5" fill="#FAFF00"/>
<circle cx="304" cy="63" r="4.5" stroke="#111111"/>
<circle cx="304" cy="85" r="4.5" stroke="#111111"/>
<circle cx="330" cy="41" r="4.5" stroke="#111111"/>
<circle cx="330" cy="63" r="4.5" stroke="#111111"/>
<circle cx="330" cy="85" r="4.5" stroke="#111111"/>
</svg>
