<svg width="369" height="281" viewBox="0 0 369 281" fill="none" xmlns="http://www.w3.org/2000/svg">
<rect x="207.5" y="157.5" width="161" height="123" rx="11.5" fill="white" stroke="#111111"/>
<rect x="0.5" y="157.5" width="173" height="123" rx="11.5" fill="white" stroke="#111111"/>
<rect x="0.5" y="0.5" width="173" height="123" rx="11.5" fill="white" stroke="#111111"/>
<rect x="207.5" y="0.5" width="161" height="123" rx="11.5" fill="white" stroke="#111111"/>
<circle cx="234" cy="187" r="17.5" fill="white" stroke="#111111"/>
<circle cx="29" cy="187" r="17.5" fill="white" stroke="#111111"/>
<path d="M300.971 206.917L299.851 206.911L299.861 204.991C298.624 204.867 297.565 204.552 296.682 204.046L296.689 202.702C297.806 203.391 299.105 203.739 300.588 203.747C302.401 203.757 303.311 203.207 303.317 202.097C303.319 201.692 303.198 201.35 302.954 201.071C302.721 200.782 302.407 200.557 302.014 200.394C301.63 200.232 301.205 200.086 300.736 199.956C300.267 199.825 299.799 199.684 299.33 199.532C298.862 199.37 298.431 199.186 298.037 198.981C297.654 198.766 297.341 198.465 297.098 198.08C296.865 197.695 296.75 197.236 296.753 196.702C296.758 195.86 297.055 195.189 297.644 194.691C298.233 194.193 298.992 193.893 299.921 193.791L299.931 191.871L301.051 191.877L301.041 193.781C302.203 193.851 303.189 194.123 303.997 194.597L303.989 195.941C303.054 195.328 301.957 195.029 300.698 195.043C298.981 195.034 298.119 195.574 298.114 196.661C298.111 197.045 298.227 197.371 298.46 197.639C298.704 197.907 299.018 198.117 299.401 198.268C299.795 198.42 300.226 198.561 300.695 198.691C301.163 198.811 301.632 198.952 302.1 199.115C302.569 199.277 302.995 199.466 303.377 199.682C303.771 199.897 304.084 200.203 304.317 200.599C304.56 200.995 304.68 201.465 304.677 202.009C304.672 203.011 304.326 203.761 303.641 204.259C302.956 204.746 302.069 205.003 300.981 205.029L300.971 206.917ZM313.984 194.026L320.512 194.061L320.505 195.341L315.241 195.313L315.033 198.384C315.61 198.227 316.229 198.15 316.89 198.154C317.434 198.157 317.941 198.224 318.409 198.354C318.878 198.474 319.309 198.668 319.702 198.937C320.106 199.195 320.424 199.559 320.656 200.03C320.889 200.49 321.003 201.035 321 201.664C320.994 202.741 320.589 203.587 319.786 204.201C318.993 204.816 317.984 205.12 316.757 205.113C315.434 205.106 314.273 204.855 313.273 204.359L313.28 203.079C314.237 203.596 315.345 203.858 316.604 203.864C317.521 203.869 318.253 203.681 318.799 203.3C319.356 202.919 319.636 202.371 319.64 201.657C319.648 200.142 318.574 199.379 316.42 199.367C315.481 199.362 314.542 199.528 313.601 199.864L313.984 194.026ZM324.5 196.707C324.504 195.939 324.843 195.279 325.518 194.728C326.193 194.177 327.181 193.905 328.483 193.912C329.688 193.918 330.657 194.217 331.39 194.807C332.123 195.398 332.498 196.104 332.515 196.925C332.541 198.046 332.04 198.96 331.012 199.669C332.257 200.295 332.876 201.151 332.87 202.239C332.866 203.071 332.494 203.773 331.755 204.345C331.027 204.907 329.948 205.184 328.519 205.176C327.1 205.169 326.003 204.853 325.228 204.231C324.463 203.608 324.083 202.854 324.088 201.968C324.091 201.435 324.248 200.908 324.56 200.387C324.883 199.855 325.349 199.41 325.959 199.05C324.981 198.448 324.495 197.667 324.5 196.707ZM328.61 200.089C328.056 199.936 327.55 199.774 327.092 199.6C326.558 199.854 326.145 200.182 325.855 200.586C325.576 200.99 325.435 201.405 325.432 201.832C325.429 202.482 325.693 202.996 326.224 203.372C326.766 203.737 327.544 203.923 328.557 203.928C329.411 203.933 330.115 203.787 330.672 203.492C331.239 203.185 331.523 202.787 331.526 202.296C331.528 201.88 331.381 201.527 331.084 201.238C330.797 200.938 330.516 200.733 330.239 200.625C329.962 200.517 329.504 200.365 328.865 200.17C328.748 200.137 328.663 200.11 328.61 200.089ZM331.169 197.158C331.173 196.593 330.935 196.122 330.457 195.746C329.979 195.36 329.308 195.164 328.444 195.16C327.655 195.155 327.025 195.301 326.554 195.598C326.083 195.883 325.846 196.25 325.844 196.698C325.842 197.007 325.905 197.279 326.031 197.515C326.169 197.74 326.371 197.933 326.636 198.094C326.913 198.245 327.163 198.369 327.386 198.466C327.61 198.553 327.908 198.65 328.281 198.759C328.323 198.77 328.355 198.781 328.377 198.791C328.398 198.791 328.425 198.797 328.457 198.808C328.489 198.819 328.521 198.829 328.552 198.84C328.584 198.851 328.765 198.905 329.096 199.003C329.436 199.09 329.697 199.161 329.878 199.215C330.735 198.665 331.165 197.98 331.169 197.158ZM337.37 203.767C337.53 203.907 337.609 204.105 337.607 204.361C337.606 204.617 337.525 204.819 337.364 204.967C337.203 205.105 337.006 205.174 336.771 205.172C336.536 205.171 336.334 205.101 336.164 204.961C336.005 204.811 335.926 204.608 335.927 204.352C335.929 204.096 336.01 203.899 336.171 203.761C336.342 203.623 336.545 203.555 336.78 203.556C337.014 203.558 337.211 203.628 337.37 203.767ZM343.627 194.185L344.619 194.19L344.568 203.79L346.6 203.801L346.593 205.081L340.929 205.051L340.936 203.771L343.224 203.783L343.268 195.607L340.975 196.459L340.982 195.179L343.627 194.185ZM356.759 197.023C356.756 197.578 356.604 198.078 356.303 198.525C356.013 198.96 355.633 199.257 355.163 199.415C355.716 199.588 356.189 199.905 356.581 200.366C356.984 200.816 357.184 201.42 357.18 202.177C357.174 203.191 356.792 203.967 356.031 204.507C355.282 205.047 354.331 205.314 353.179 205.308C351.718 205.3 350.455 205.053 349.391 204.568L349.398 203.24C350.43 203.779 351.655 204.047 353.074 204.043C354.94 204.053 355.877 203.408 355.884 202.106C355.891 200.805 355.009 200.15 353.239 200.14L351.575 200.131L351.581 198.851L353.101 198.876C353.869 198.88 354.452 198.723 354.848 198.405C355.255 198.076 355.46 197.651 355.463 197.128C355.466 196.563 355.244 196.119 354.798 195.797C354.352 195.463 353.718 195.295 352.897 195.29C351.766 195.284 350.676 195.556 349.628 196.105L349.635 194.793C350.641 194.286 351.789 194.036 353.079 194.043C354.189 194.049 355.078 194.326 355.747 194.874C356.427 195.421 356.764 196.138 356.759 197.023Z" fill="#111111"/>
<path d="M103.072 207.08H101.952V205.16C100.715 205.043 99.6533 204.733 98.768 204.232V202.888C99.888 203.571 101.189 203.912 102.672 203.912C104.485 203.912 105.392 203.357 105.392 202.248C105.392 201.843 105.269 201.501 105.024 201.224C104.789 200.936 104.475 200.712 104.08 200.552C103.696 200.392 103.269 200.248 102.8 200.12C102.331 199.992 101.861 199.853 101.392 199.704C100.923 199.544 100.491 199.363 100.096 199.16C99.712 198.947 99.3973 198.648 99.152 198.264C98.9173 197.88 98.8 197.421 98.8 196.888C98.8 196.045 99.0933 195.373 99.68 194.872C100.267 194.371 101.024 194.067 101.952 193.96V192.04H103.072V193.944C104.235 194.008 105.221 194.275 106.032 194.744V196.088C105.093 195.48 103.995 195.187 102.736 195.208C101.019 195.208 100.16 195.752 100.16 196.84C100.16 197.224 100.277 197.549 100.512 197.816C100.757 198.083 101.072 198.291 101.456 198.44C101.851 198.589 102.283 198.728 102.752 198.856C103.221 198.973 103.691 199.112 104.16 199.272C104.629 199.432 105.056 199.619 105.44 199.832C105.835 200.045 106.149 200.349 106.384 200.744C106.629 201.139 106.752 201.608 106.752 202.152C106.752 203.155 106.411 203.907 105.728 204.408C105.045 204.899 104.16 205.16 103.072 205.192V207.08ZM122.673 196.888C122.673 197.443 122.523 197.944 122.225 198.392C121.937 198.829 121.558 199.128 121.089 199.288C121.643 199.459 122.118 199.773 122.513 200.232C122.918 200.68 123.121 201.283 123.121 202.04C123.121 203.053 122.742 203.832 121.985 204.376C121.238 204.92 120.289 205.192 119.137 205.192C117.675 205.192 116.411 204.952 115.345 204.472V203.144C116.379 203.677 117.606 203.939 119.025 203.928C120.891 203.928 121.825 203.277 121.825 201.976C121.825 200.675 120.939 200.024 119.169 200.024H117.505V198.744L119.025 198.76C119.793 198.76 120.374 198.6 120.769 198.28C121.174 197.949 121.377 197.523 121.377 197C121.377 196.435 121.153 195.992 120.705 195.672C120.257 195.341 119.622 195.176 118.801 195.176C117.67 195.176 116.582 195.453 115.537 196.008V194.696C116.539 194.184 117.686 193.928 118.977 193.928C120.086 193.928 120.977 194.2 121.649 194.744C122.331 195.288 122.673 196.003 122.673 196.888ZM131.839 194.12H133.295V201.336H135.343V202.584H133.295V205H131.967V202.584H125.903V201.384L131.839 194.12ZM131.967 201.336V195.928L127.551 201.336H131.967ZM139.47 203.736C139.63 203.875 139.71 204.072 139.71 204.328C139.71 204.584 139.63 204.787 139.47 204.936C139.31 205.075 139.113 205.144 138.878 205.144C138.643 205.144 138.441 205.075 138.27 204.936C138.11 204.787 138.03 204.584 138.03 204.328C138.03 204.072 138.11 203.875 138.27 203.736C138.441 203.597 138.643 203.528 138.878 203.528C139.113 203.528 139.31 203.597 139.47 203.736ZM141.979 194.12H149.819V195.336L145.275 205H143.835L148.347 195.4H141.979V194.12ZM152.924 196.744C152.924 195.976 153.26 195.315 153.932 194.76C154.604 194.205 155.591 193.928 156.892 193.928C158.098 193.928 159.068 194.221 159.804 194.808C160.54 195.395 160.919 196.099 160.94 196.92C160.972 198.04 160.476 198.957 159.452 199.672C160.7 200.291 161.324 201.144 161.324 202.232C161.324 203.064 160.956 203.768 160.22 204.344C159.495 204.909 158.418 205.192 156.988 205.192C155.57 205.192 154.471 204.883 153.692 204.264C152.924 203.645 152.54 202.893 152.54 202.008C152.54 201.475 152.695 200.947 153.004 200.424C153.324 199.891 153.788 199.443 154.396 199.08C153.415 198.483 152.924 197.704 152.924 196.744ZM157.052 200.104C156.498 199.955 155.991 199.795 155.532 199.624C154.999 199.88 154.588 200.211 154.3 200.616C154.023 201.021 153.884 201.437 153.884 201.864C153.884 202.515 154.151 203.027 154.684 203.4C155.228 203.763 156.007 203.944 157.02 203.944C157.874 203.944 158.578 203.795 159.132 203.496C159.698 203.187 159.98 202.787 159.98 202.296C159.98 201.88 159.831 201.528 159.532 201.24C159.244 200.941 158.962 200.739 158.684 200.632C158.407 200.525 157.948 200.376 157.308 200.184C157.191 200.152 157.106 200.125 157.052 200.104ZM159.596 197.16C159.596 196.595 159.356 196.125 158.876 195.752C158.396 195.368 157.724 195.176 156.86 195.176C156.071 195.176 155.442 195.325 154.972 195.624C154.503 195.912 154.268 196.28 154.268 196.728C154.268 197.037 154.332 197.309 154.46 197.544C154.599 197.768 154.802 197.96 155.068 198.12C155.346 198.269 155.596 198.392 155.82 198.488C156.044 198.573 156.343 198.669 156.716 198.776C156.759 198.787 156.791 198.797 156.812 198.808C156.834 198.808 156.86 198.813 156.892 198.824C156.924 198.835 156.956 198.845 156.988 198.856C157.02 198.867 157.202 198.92 157.532 199.016C157.874 199.101 158.135 199.171 158.316 199.224C159.17 198.669 159.596 197.981 159.596 197.16Z" fill="#111111"/>
<path d="M106.072 52.08H104.952V50.16C103.715 50.0427 102.653 49.7333 101.768 49.232V47.888C102.888 48.5707 104.189 48.912 105.672 48.912C107.485 48.912 108.392 48.3573 108.392 47.248C108.392 46.8427 108.269 46.5013 108.024 46.224C107.789 45.936 107.475 45.712 107.08 45.552C106.696 45.392 106.269 45.248 105.8 45.12C105.331 44.992 104.861 44.8533 104.392 44.704C103.923 44.544 103.491 44.3627 103.096 44.16C102.712 43.9467 102.397 43.648 102.152 43.264C101.917 42.88 101.8 42.4213 101.8 41.888C101.8 41.0453 102.093 40.3733 102.68 39.872C103.267 39.3707 104.024 39.0667 104.952 38.96V37.04H106.072V38.944C107.235 39.008 108.221 39.2747 109.032 39.744V41.088C108.093 40.48 106.995 40.1867 105.736 40.208C104.019 40.208 103.16 40.752 103.16 41.84C103.16 42.224 103.277 42.5493 103.512 42.816C103.757 43.0827 104.072 43.2907 104.456 43.44C104.851 43.5893 105.283 43.728 105.752 43.856C106.221 43.9733 106.691 44.112 107.16 44.272C107.629 44.432 108.056 44.6187 108.44 44.832C108.835 45.0453 109.149 45.3493 109.384 45.744C109.629 46.1387 109.752 46.608 109.752 47.152C109.752 48.1547 109.411 48.9067 108.728 49.408C108.045 49.8987 107.16 50.16 106.072 50.192V52.08ZM118.121 42.496C118.121 41.376 118.489 40.5013 119.225 39.872C119.971 39.2427 120.905 38.928 122.025 38.928C123.561 38.928 124.707 39.408 125.465 40.368C126.233 41.3173 126.617 42.656 126.617 44.384C126.617 46.304 126.158 47.7547 125.241 48.736C124.334 49.7067 123.145 50.192 121.673 50.192C120.723 50.192 119.843 49.984 119.033 49.568V48.288C119.822 48.704 120.691 48.912 121.641 48.912C122.643 48.912 123.475 48.592 124.137 47.952C124.809 47.3013 125.182 46.272 125.257 44.864C124.211 45.5573 123.075 45.904 121.849 45.904C120.857 45.904 119.987 45.6053 119.241 45.008C118.494 44.4 118.121 43.5627 118.121 42.496ZM122.121 40.176C121.331 40.176 120.691 40.3573 120.201 40.72C119.721 41.0827 119.481 41.6533 119.481 42.432C119.481 43.2213 119.731 43.792 120.233 44.144C120.734 44.4853 121.385 44.656 122.185 44.656C123.369 44.656 124.387 44.2773 125.241 43.52C125.038 41.2907 123.998 40.176 122.121 40.176ZM130.122 39.984C131.136 39.28 132.298 38.928 133.61 38.928C134.741 38.928 135.642 39.184 136.314 39.696C136.986 40.208 137.322 40.9227 137.322 41.84C137.322 42.2773 137.237 42.688 137.066 43.072C136.906 43.456 136.661 43.808 136.33 44.128C136.01 44.448 135.696 44.72 135.386 44.944C135.088 45.1573 134.709 45.3973 134.25 45.664C134.197 45.696 134.032 45.792 133.754 45.952C133.488 46.112 133.317 46.2133 133.242 46.256C133.178 46.2987 133.029 46.3947 132.794 46.544C132.57 46.6827 132.421 46.784 132.346 46.848C132.282 46.912 132.165 47.0133 131.994 47.152C131.834 47.2907 131.722 47.408 131.658 47.504C131.605 47.6 131.53 47.7227 131.434 47.872C131.349 48.0107 131.29 48.1493 131.258 48.288C131.226 48.4267 131.21 48.576 131.21 48.736L137.402 48.72V50H129.738V49.36C129.738 48.7627 129.834 48.224 130.026 47.744C130.218 47.2533 130.49 46.8373 130.842 46.496C131.205 46.144 131.562 45.8507 131.914 45.616C132.266 45.3707 132.677 45.1093 133.146 44.832C133.253 44.7787 133.333 44.736 133.386 44.704C134.357 44.1387 134.992 43.7067 135.29 43.408C135.749 42.9387 135.978 42.4107 135.978 41.824C135.978 41.2907 135.76 40.8853 135.322 40.608C134.896 40.32 134.288 40.176 133.498 40.176C132.346 40.176 131.221 40.56 130.122 41.328V39.984ZM142.142 48.736C142.302 48.8747 142.382 49.072 142.382 49.328C142.382 49.584 142.302 49.7867 142.142 49.936C141.982 50.0747 141.785 50.144 141.55 50.144C141.315 50.144 141.113 50.0747 140.942 49.936C140.782 49.7867 140.702 49.584 140.702 49.328C140.702 49.072 140.782 48.8747 140.942 48.736C141.113 48.5973 141.315 48.528 141.55 48.528C141.785 48.528 141.982 48.5973 142.142 48.736ZM145.171 42.496C145.171 41.376 145.539 40.5013 146.275 39.872C147.021 39.2427 147.955 38.928 149.075 38.928C150.611 38.928 151.757 39.408 152.515 40.368C153.283 41.3173 153.667 42.656 153.667 44.384C153.667 46.304 153.208 47.7547 152.291 48.736C151.384 49.7067 150.195 50.192 148.723 50.192C147.773 50.192 146.893 49.984 146.083 49.568V48.288C146.872 48.704 147.741 48.912 148.691 48.912C149.693 48.912 150.525 48.592 151.187 47.952C151.859 47.3013 152.232 46.272 152.307 44.864C151.261 45.5573 150.125 45.904 148.899 45.904C147.907 45.904 147.037 45.6053 146.291 45.008C145.544 44.4 145.171 43.5627 145.171 42.496ZM149.171 40.176C148.381 40.176 147.741 40.3573 147.251 40.72C146.771 41.0827 146.531 41.6533 146.531 42.432C146.531 43.2213 146.781 43.792 147.283 44.144C147.784 44.4853 148.435 44.656 149.235 44.656C150.419 44.656 151.437 44.2773 152.291 43.52C152.088 41.2907 151.048 40.176 149.171 40.176ZM159.572 39.12H160.564V48.72H162.596V50H156.932V48.72H159.22V40.544L156.932 41.408V40.128L159.572 39.12Z" fill="#111111"/>
<rect x="216" y="236" width="64" height="8" fill="#FAFF00"/>
<rect x="11" y="236" width="64" height="8" fill="#FAFF00"/>
<rect x="11" y="79" width="64" height="8" fill="#FAFF00"/>
<rect x="216" y="256" width="117" height="8" fill="#FAFF00"/>
<rect x="11" y="256" width="117" height="8" fill="#FAFF00"/>
<rect x="11" y="99" width="117" height="8" fill="#FAFF00"/>
<g clip-path="url(#clip0_1_86)">
<path fill-rule="evenodd" clip-rule="evenodd" d="M20.989 183.031C19.7327 183.201 18.5076 183.862 17.7058 184.802L17.4603 185.09L18.0513 185.102L18.6423 185.114L18.8529 184.92C19.665 184.169 21.0094 183.731 22.0725 183.87C23.0412 183.998 23.8716 184.358 24.4991 184.924L24.7079 185.112H25.2887H25.8696L25.8163 185.012C25.787 184.957 25.5313 184.693 25.2482 184.425C24.5207 183.737 23.8706 183.385 22.8685 183.135C22.3766 183.012 21.4879 182.963 20.989 183.031ZM26.9156 184.257L26.6504 184.407V187.64V190.872L26.9387 190.859L27.2269 190.846L27.222 190.547C27.2193 190.382 27.2307 190.248 27.2473 190.248C27.2638 190.248 27.3594 190.329 27.4597 190.427C27.714 190.678 28.0078 190.846 28.3448 190.936C29.0351 191.119 29.7817 190.804 30.1705 190.166C30.4645 189.684 30.5663 189.296 30.6013 188.521C30.6464 187.524 30.4478 186.822 29.9875 186.349C29.634 185.986 29.1264 185.831 28.5686 185.916C28.2028 185.971 27.8582 186.14 27.5301 186.425C27.3807 186.555 27.2479 186.661 27.235 186.661C27.2221 186.661 27.209 186.089 27.206 185.39C27.2029 184.691 27.196 184.116 27.1906 184.113C27.1852 184.109 27.0615 184.174 26.9156 184.257ZM41.732 184.266L41.5245 184.387L41.5127 187.627L41.5008 190.868H41.7779H42.0549V190.179V189.49L42.5444 188.826C42.8135 188.461 43.0411 188.169 43.05 188.178C43.0684 188.195 44.0739 190.225 44.2567 190.613L44.3765 190.868H44.6883H45L44.5831 190.038C44.3537 189.581 44.0024 188.881 43.8023 188.482C43.6023 188.083 43.4385 187.734 43.4385 187.705C43.4385 187.654 43.7677 187.202 44.3741 186.418L44.6825 186.019L44.4231 186.006C44.2805 185.999 44.1381 186.002 44.1069 186.013C44.0578 186.031 43.7518 186.442 42.7991 187.768C42.6854 187.927 42.5257 188.147 42.4443 188.259C42.3629 188.37 42.2622 188.524 42.2206 188.602C42.1789 188.679 42.1245 188.742 42.0998 188.742C42.0712 188.742 42.0549 187.905 42.0549 186.44C42.0549 184.626 42.0427 184.138 41.9972 184.141C41.9655 184.143 41.8462 184.199 41.732 184.266ZM21.4964 184.699L21.0236 184.941V185.445V185.95L20.5739 185.962L20.1243 185.975V186.396V186.816L20.5624 186.838L21.0006 186.861L21.0236 188.477C21.0496 190.297 21.0476 190.285 21.4063 190.637C21.7427 190.967 22.3755 191.047 22.897 190.826C23.0692 190.753 23.0973 190.718 23.1601 190.507C23.2899 190.07 23.3359 189.885 23.3188 189.868C23.3094 189.859 23.1784 189.901 23.0275 189.96C22.8694 190.023 22.6588 190.069 22.5305 190.07C22.3449 190.071 22.2854 190.049 22.1725 189.941L22.037 189.811L22.0492 188.336L22.0613 186.861L22.5226 186.853C22.7762 186.849 23.0097 186.844 23.0414 186.842C23.0834 186.839 23.0991 186.719 23.0991 186.396V185.953H22.5687H22.0383V185.2C22.0383 184.786 22.0227 184.45 22.0037 184.452C21.9847 184.454 21.7563 184.565 21.4964 184.699ZM15.209 185.909C13.8682 186.111 12.9996 187.103 13 188.432C13.0002 189.031 13.1721 189.561 13.503 189.984C13.9262 190.525 14.4977 190.828 15.3358 190.957C15.7513 191.02 16.299 190.933 16.7113 190.737C17.0032 190.599 17.4727 190.233 17.4716 190.145C17.4709 190.087 16.9871 189.526 16.9189 189.503C16.8953 189.495 16.8285 189.532 16.7705 189.585C16.0984 190.201 14.9918 190.154 14.4032 189.485C14.001 189.029 13.9184 188.204 14.2185 187.642C14.3514 187.393 14.6584 187.103 14.9233 186.975C15.0307 186.924 15.2453 186.865 15.4002 186.845C15.8904 186.78 16.3085 186.901 16.7262 187.226C16.8359 187.311 16.9411 187.364 16.9602 187.342C17.3582 186.896 17.4723 186.757 17.4723 186.719C17.4723 186.657 17.1131 186.342 16.8895 186.207C16.4511 185.943 15.7786 185.823 15.209 185.909ZM33.0151 185.91C32.5468 185.963 31.816 186.176 31.816 186.26C31.816 186.277 31.8588 186.376 31.9111 186.48C31.9848 186.626 32.0239 186.661 32.0841 186.637C32.5588 186.441 32.796 186.383 33.1996 186.363C33.7248 186.337 33.9689 186.391 34.1995 186.586C34.4695 186.813 34.5485 187.042 34.5738 187.669C34.598 188.269 34.5995 188.266 34.3123 188.125C34.216 188.078 33.9637 188.006 33.7516 187.965C32.8429 187.788 31.91 188.074 31.541 188.643C31.1476 189.25 31.3049 190.278 31.8522 190.677C32.079 190.842 32.585 191.001 32.8817 191C33.3416 190.999 33.9023 190.767 34.2841 190.42C34.4155 190.301 34.5365 190.204 34.5531 190.204C34.5697 190.204 34.5832 190.353 34.5832 190.536V190.868H34.8618H35.1403L35.127 188.886C35.1138 186.924 35.1126 186.903 35.007 186.679C34.7975 186.234 34.4043 185.986 33.7905 185.909C33.4167 185.863 33.4346 185.863 33.0151 185.91ZM38.2209 185.91C37.7872 185.979 37.3997 186.213 37.1612 186.549C37.1005 186.635 37.0352 186.705 37.0161 186.705C36.9971 186.706 36.9816 186.546 36.9816 186.351V185.997H36.7048H36.4281V188.432V190.868H36.7048H36.9816V189.303C36.9816 187.899 36.9908 187.704 37.071 187.402C37.1742 187.015 37.3254 186.762 37.5542 186.595C37.7426 186.457 38.0761 186.351 38.3241 186.351C39.065 186.351 39.4902 186.742 39.6092 187.532C39.6343 187.699 39.6552 188.517 39.6557 189.351L39.6566 190.868H39.9333H40.21V189.166C40.21 187.31 40.1851 187.074 39.9445 186.649C39.6329 186.098 38.9292 185.797 38.2209 185.91ZM18.1502 185.981C18.1325 185.998 18.118 187.105 18.118 188.44V190.868H18.6487H19.1795L19.1676 188.421L19.1557 185.975L18.669 185.963C18.4014 185.956 18.1679 185.964 18.1502 185.981ZM24.206 188.41V190.868H24.7133H25.2206V188.41V185.953H24.7133H24.206V188.41ZM28.9975 186.399C29.6936 186.542 30.1106 187.42 30.0476 188.61C29.9895 189.708 29.6607 190.31 29.0301 190.474C28.761 190.544 28.3311 190.498 28.0239 190.367C27.7253 190.239 27.3334 189.91 27.2502 189.717C27.2098 189.623 27.199 189.246 27.2107 188.341L27.2269 187.095L27.4946 186.856C27.9864 186.416 28.4289 186.282 28.9975 186.399ZM33.8472 188.389C33.982 188.413 34.2027 188.482 34.3377 188.541L34.5832 188.649V189.208V189.767L34.3307 190.009C34.1724 190.161 33.9614 190.304 33.7657 190.392C33.4887 190.517 33.4062 190.533 33.0382 190.534C32.6649 190.535 32.601 190.523 32.403 190.411C32.1184 190.251 31.9706 190.03 31.9125 189.68C31.8049 189.03 32.0798 188.553 32.6526 188.395C32.8615 188.337 33.5448 188.333 33.8472 188.389Z" fill="#111111"/>
</g>
<path fill-rule="evenodd" clip-rule="evenodd" d="M227.085 175.025C227.085 175.049 228.375 176.36 230.077 178.064C230.572 178.56 231.654 179.648 232.481 180.482L233.985 181.998L237.102 178.847C240.708 175.203 240.836 175.072 240.85 175.031C240.856 175.01 238.54 175 233.972 175C230.184 175 227.085 175.011 227.085 175.025ZM226.092 175.945C225.656 176.381 224.673 177.363 223.909 178.126C223.145 178.889 221.953 180.081 221.26 180.775L220 182.038L221.397 183.433C222.166 184.2 222.863 184.894 222.947 184.975C223.031 185.056 223.73 185.751 224.499 186.519C225.268 187.287 226.12 188.134 226.392 188.402L226.886 188.888L226.894 185.455C226.898 183.567 226.898 180.476 226.894 178.587L226.886 175.152L226.092 175.945ZM241.13 182.068V188.995L241.244 188.881C241.307 188.819 241.983 188.141 242.747 187.375C243.511 186.609 244.136 185.982 244.136 185.981C244.169 185.97 248 182.088 248 182.067C248 182.049 247.666 181.701 247.259 181.294C246.852 180.886 245.383 179.411 243.994 178.016C242.606 176.621 241.394 175.403 241.3 175.31L241.13 175.141V182.068ZM230.511 185.53C228.626 187.437 227.084 189.008 227.084 189.021C227.085 189.05 240.855 189.052 240.855 189.023C240.855 188.994 233.98 182.052 233.957 182.058C233.947 182.061 232.397 183.623 230.511 185.53ZM230.977 191.972C230.325 192.109 229.854 192.45 229.592 192.974C229.288 193.58 229.39 194.347 229.84 194.846C230.046 195.075 230.48 195.375 231.603 196.063C231.746 196.15 231.89 196.239 231.922 196.26C231.955 196.281 232.078 196.359 232.195 196.433C232.625 196.705 232.83 196.963 232.916 197.344C232.95 197.493 232.951 197.551 232.917 197.684C232.795 198.175 232.5 198.448 231.97 198.561C231.437 198.674 230.766 198.513 230.387 198.18C230.209 198.025 230.007 197.733 229.908 197.488C229.863 197.378 229.817 197.267 229.804 197.242C229.791 197.216 229.755 197.08 229.723 196.939C229.666 196.682 229.666 196.682 229.574 196.691L229.481 196.7L229.473 197.836L229.465 198.973L229.54 198.992C229.634 199.015 229.68 198.988 229.68 198.91C229.68 198.839 229.737 198.729 229.802 198.673C229.862 198.621 230.16 198.639 230.382 198.708C230.997 198.899 231.376 198.976 231.727 198.978C232.303 198.981 232.788 198.803 233.21 198.433C233.352 198.309 233.619 197.965 233.619 197.905C233.619 197.894 233.638 197.841 233.662 197.788C233.719 197.661 233.802 197.275 233.802 197.138C233.802 196.815 233.629 196.326 233.412 196.037C233.246 195.816 232.785 195.455 232.441 195.277C232.375 195.243 232.314 195.207 232.306 195.198C232.297 195.188 232.16 195.114 232 195.033C231.841 194.952 231.573 194.802 231.405 194.701C231.237 194.599 231.072 194.499 231.039 194.479C231.005 194.459 230.971 194.434 230.962 194.425C230.954 194.415 230.878 194.36 230.795 194.302C230.555 194.137 230.385 193.946 230.284 193.727C230.2 193.545 230.193 193.503 230.206 193.303C230.228 192.973 230.38 192.729 230.681 192.541C231.232 192.197 232.086 192.357 232.6 192.899C232.762 193.071 232.843 193.203 233.007 193.561C233.029 193.608 233.11 193.943 233.153 194.164C233.174 194.268 233.191 194.289 233.261 194.297L233.344 194.307V193.129V191.952H233.255C233.18 191.952 233.162 191.967 233.144 192.048C233.133 192.102 233.086 192.185 233.04 192.234C232.921 192.36 232.785 192.352 232.414 192.198C232.127 192.08 232.018 192.045 231.741 191.982C231.619 191.955 231.093 191.948 230.977 191.972ZM244.229 191.97C244.195 191.977 244.092 191.999 244 192.018C243.746 192.069 243.456 192.166 243.252 192.268C243.065 192.36 242.867 192.476 242.839 192.508C242.831 192.518 242.789 192.548 242.746 192.576C242.522 192.72 242.138 193.124 241.941 193.421C241.692 193.798 241.404 194.497 241.404 194.725C241.404 194.775 241.391 194.83 241.375 194.846C241.33 194.891 241.304 195.769 241.339 196.051C241.393 196.493 241.536 196.989 241.688 197.267C241.789 197.452 241.931 197.688 241.951 197.706C241.961 197.714 242.024 197.79 242.09 197.873C242.686 198.625 243.483 198.985 244.534 198.98C244.817 198.978 244.896 198.971 245.145 198.925C245.375 198.882 245.893 198.697 245.893 198.657C245.893 198.644 245.911 198.634 245.933 198.634C245.955 198.634 246.073 198.564 246.194 198.479C246.475 198.284 246.83 197.925 246.98 197.687C247.011 197.638 247.043 197.59 247.052 197.582C247.086 197.55 247.236 197.304 247.236 197.281C247.236 197.24 247.107 197.172 247.087 197.202C246.994 197.339 246.683 197.698 246.514 197.863C245.947 198.415 245.677 198.526 244.9 198.524C244.407 198.523 244.119 198.478 243.9 198.367C243.669 198.249 243.606 198.214 243.465 198.119C243.381 198.063 243.26 197.966 243.197 197.904C243.059 197.771 242.81 197.428 242.759 197.304C242.749 197.278 242.715 197.201 242.684 197.133C242.653 197.065 242.605 196.912 242.577 196.793C242.55 196.674 242.511 196.521 242.492 196.453C242.445 196.284 242.445 194.794 242.493 194.628C242.512 194.56 242.551 194.4 242.578 194.273C242.688 193.764 242.97 193.186 243.252 192.893C243.483 192.652 243.67 192.532 243.982 192.425C244.211 192.346 244.263 192.34 244.732 192.34C245.288 192.34 245.412 192.367 245.786 192.569C245.979 192.673 246.45 193.133 246.534 193.3C246.559 193.35 246.587 193.397 246.595 193.406C246.629 193.439 246.803 193.834 246.871 194.034C246.937 194.225 246.95 194.243 247.021 194.235L247.099 194.226L247.088 193.916C247.083 193.746 247.066 193.551 247.051 193.483C247.036 193.415 247.023 193.248 247.022 193.112C247.02 192.863 246.979 192.327 246.943 192.083C246.927 191.972 246.913 191.952 246.853 191.952C246.799 191.952 246.774 191.978 246.746 192.066C246.706 192.188 246.682 192.225 246.567 192.342C246.46 192.451 246.329 192.437 246.004 192.282C245.474 192.028 245.273 191.978 244.717 191.965C244.482 191.96 244.262 191.962 244.229 191.97ZM221.81 192.127C221.789 192.136 221.772 192.167 221.772 192.198C221.772 192.243 221.806 192.256 221.963 192.269C222.194 192.289 222.472 192.391 222.573 192.493C222.614 192.535 222.663 192.623 222.683 192.689C222.709 192.777 222.718 193.521 222.718 195.426C222.718 198.119 222.714 198.225 222.599 198.444C222.538 198.558 222.385 198.611 222.07 198.626L221.772 198.641V198.727C221.772 198.774 221.789 198.819 221.81 198.826C221.841 198.837 224.51 198.834 224.591 198.823C224.604 198.821 224.611 198.781 224.606 198.734C224.596 198.651 224.592 198.649 224.337 198.63C224.005 198.605 223.845 198.523 223.738 198.324C223.684 198.224 223.68 198.124 223.671 196.909L223.661 195.602H225.192H226.722L226.712 196.909L226.702 198.216L226.626 198.354C226.516 198.554 226.393 198.615 226.062 198.634L225.787 198.649V198.742V198.834L227.17 198.835C227.931 198.836 228.568 198.827 228.585 198.817C228.602 198.806 228.612 198.764 228.606 198.723C228.596 198.652 228.584 198.649 228.301 198.634C228.028 198.619 227.998 198.611 227.889 198.522C227.658 198.333 227.668 198.476 227.666 195.515C227.665 193.14 227.67 192.86 227.715 192.72C227.79 192.488 227.92 192.373 228.178 192.309C228.295 192.28 228.424 192.259 228.463 192.262C228.595 192.273 228.616 192.263 228.606 192.192L228.596 192.122H227.191H225.787L225.777 192.192C225.769 192.254 225.781 192.261 225.885 192.261C226.172 192.261 226.527 192.415 226.644 192.591C226.699 192.674 226.703 192.754 226.712 193.955L226.721 195.231H225.192H223.662L223.671 194.001C223.68 192.884 223.686 192.76 223.737 192.649C223.842 192.421 224.054 192.3 224.4 192.27C224.596 192.254 224.614 192.246 224.605 192.187C224.596 192.122 224.593 192.122 223.222 192.117C222.467 192.114 221.831 192.118 221.81 192.127ZM234.525 192.127C234.513 192.138 234.504 192.173 234.504 192.205C234.504 192.248 234.527 192.261 234.607 192.261C234.664 192.261 234.807 192.283 234.926 192.311C235.093 192.349 235.166 192.384 235.25 192.467C235.311 192.527 235.359 192.604 235.359 192.643C235.359 192.682 235.376 192.73 235.397 192.752C235.455 192.81 235.452 198.061 235.394 198.188C235.273 198.454 235.246 198.491 235.115 198.561C235.005 198.619 234.932 198.634 234.739 198.634H234.5L234.51 198.734L234.519 198.835L236.107 198.835C238.285 198.835 238.795 198.807 239.16 198.666C239.306 198.611 239.639 198.436 239.702 198.382C240.007 198.121 240.194 197.866 240.322 197.536C240.407 197.315 240.407 196.677 240.322 196.453C240.183 196.087 239.938 195.824 239.566 195.641C239.28 195.501 239.163 195.454 239.056 195.441C238.945 195.427 238.946 195.366 239.057 195.343C239.4 195.274 240 194.716 240 194.466C240 194.434 240.017 194.391 240.038 194.369C240.065 194.342 240.076 194.2 240.076 193.885C240.076 193.57 240.065 193.429 240.038 193.401C240.017 193.38 240 193.341 240 193.315C240 193.288 239.968 193.204 239.93 193.127C239.757 192.783 239.451 192.536 238.975 192.359C238.624 192.228 238.329 192.17 237.863 192.141C237.357 192.109 234.554 192.097 234.525 192.127ZM237.734 192.464C238.445 192.589 238.957 193.011 239.073 193.568C239.2 194.18 238.956 194.742 238.461 194.979C238.138 195.133 238.026 195.159 237.434 195.217C237.253 195.235 236.634 195.191 236.466 195.149L236.397 195.131V193.839V192.546L236.542 192.511C236.883 192.428 237.41 192.408 237.734 192.464ZM237.784 195.587C237.934 195.612 238.131 195.654 238.222 195.681C238.987 195.906 239.417 196.602 239.265 197.372C239.123 198.094 238.435 198.496 237.375 198.475C237.05 198.469 236.485 198.407 236.428 198.371C236.408 198.358 236.397 197.877 236.397 196.978V195.605L236.511 195.586C236.574 195.576 236.647 195.563 236.672 195.557C236.808 195.528 237.549 195.548 237.784 195.587Z" fill="#111111"/>
<path d="M12 219L162 219" stroke="#111111"/>
<path d="M12 62L162 62" stroke="#111111"/>
<path d="M216 220H360" stroke="#111111"/>
<circle cx="29" cy="32" r="17.5" fill="white" stroke="#111111"/>
<g clip-path="url(#clip1_1_86)">
<path d="M33.4403 23.9346L36.4801 25.4535L28.5165 25.4516L20.5474 25.4498L23.6179 23.913C25.9993 22.7211 27.2364 22.1031 27.9012 21.7848C28.2314 21.6268 28.4038 21.5508 28.4997 21.5148C28.541 21.5319 28.5963 21.5558 28.6681 21.5882C28.8548 21.6723 29.1334 21.8041 29.5293 21.9962C30.3199 22.3799 31.5628 22.9965 33.4403 23.9346ZM19.0703 28.326C18.929 28.1076 18.8039 27.8852 18.7066 27.6845H28.5016H38.2965C38.1993 27.8852 38.0741 28.1076 37.9328 28.326C37.7979 28.5347 37.6584 28.7241 37.5319 28.871C37.3948 29.0301 37.3072 29.0987 37.2797 29.1136L37.2797 29.1136L37.2211 29.1454H28.5016H19.782L19.7235 29.1136L19.7234 29.1136C19.696 29.0987 19.6083 29.0301 19.4712 28.871C19.3447 28.7241 19.2052 28.5347 19.0703 28.326ZM22.3287 37.7997H20.9625V34.5878V31.3759H22.3287H23.6949V34.5878V37.7997H22.3287ZM28.5016 37.7997H27.1559V34.5878V31.3759H28.5016H29.8473V34.5878V37.7997H28.5016ZM34.6744 37.7997H33.3082V34.5878V31.3759H34.6744H36.0406V34.5878V37.7997H34.6744ZM18.5052 41.3822C18.5043 41.3792 18.5037 41.3766 18.5031 41.3743C18.5049 41.3672 18.5079 41.3563 18.5127 41.3413C18.527 41.2968 18.5509 41.2364 18.5855 41.1619C18.6545 41.0132 18.7536 40.8351 18.8656 40.6584C18.9776 40.4816 19.0955 40.3172 19.1987 40.1938C19.2436 40.1402 19.2817 40.099 19.312 40.0696C19.3722 40.0664 19.4585 40.0632 19.5783 40.0604C19.8629 40.0535 20.3153 40.0486 21.0077 40.0452C22.3913 40.0385 24.7196 40.0383 28.5494 40.0419L37.6792 40.0505C37.6811 40.0522 37.6831 40.054 37.6852 40.0561C37.6978 40.0681 37.7137 40.0843 37.7327 40.1052C37.7711 40.1474 37.8163 40.2024 37.8664 40.2688C37.9669 40.4016 38.0766 40.5659 38.1785 40.735C38.2807 40.9046 38.3696 41.0702 38.4311 41.205C38.4619 41.2727 38.4827 41.3258 38.4949 41.3633C38.4965 41.3684 38.4979 41.3728 38.499 41.3766C38.4986 41.3784 38.498 41.3803 38.4974 41.3823C38.4936 41.3951 38.4874 41.4097 38.4788 41.4242C38.4722 41.4352 38.4653 41.4443 38.4591 41.4512C38.4423 41.4529 38.4183 41.455 38.3852 41.4571C38.2175 41.4676 37.8978 41.4754 37.2558 41.4806C35.9794 41.491 33.4793 41.4911 28.5016 41.4911C23.5238 41.4911 21.0238 41.491 19.7473 41.4806C19.1053 41.4754 18.7856 41.4676 18.6179 41.4571C18.5849 41.455 18.561 41.4529 18.5442 41.4513C18.5378 41.4441 18.5307 41.4348 18.524 41.4236C18.5152 41.4089 18.5089 41.3944 18.5052 41.3822ZM19.2329 40.0752C19.2225 40.0771 19.2202 40.0768 19.2299 40.0756C19.2306 40.0755 19.2316 40.0754 19.2329 40.0752Z" stroke="#111111"/>
</g>
<g clip-path="url(#clip2_1_86)">
<path d="M265.008 52.1873H288.504H312C311.747 52.8203 311.335 53.593 310.86 54.3289C310.537 54.8281 310.2 55.2864 309.89 55.6468C309.564 56.0257 309.318 56.2349 309.185 56.3076L309.184 56.3076L308.955 56.4322H288.504H268.052L267.823 56.3076L267.823 56.3076C267.689 56.2349 267.444 56.0257 267.117 55.6468C266.807 55.2864 266.47 54.8281 266.148 54.3289C265.672 53.593 265.261 52.8203 265.008 52.1873ZM266.798 81.1199C266.798 81.1198 266.802 81.119 266.812 81.1177C266.803 81.1194 266.799 81.12 266.798 81.1199ZM266.811 81.1803C266.845 81.1485 266.872 81.1257 266.892 81.1097C266.911 81.1082 266.934 81.1065 266.96 81.1049C267.108 81.0953 267.337 81.0863 267.673 81.0783C268.341 81.0622 269.4 81.0506 271.016 81.0427C274.246 81.027 279.68 81.0266 288.616 81.035L310.062 81.0553L310.133 81.1082C310.235 81.1839 310.429 81.3885 310.687 81.7303C310.932 82.0542 311.196 82.4501 311.44 82.8549C311.684 83.2604 311.9 83.6614 312.052 83.9943C312.128 84.1612 312.183 84.3006 312.218 84.4084C312.247 84.4979 312.253 84.5383 312.254 84.5417C312.248 84.7784 312.071 85.0539 311.9 85.1414C311.867 85.148 311.782 85.1602 311.592 85.1723C311.187 85.1978 310.43 85.2159 308.934 85.2281C305.953 85.2523 300.117 85.2526 288.504 85.2526C276.89 85.2526 271.054 85.2523 268.074 85.2281C266.578 85.2159 265.82 85.1978 265.416 85.1723C265.225 85.1602 265.141 85.148 265.107 85.1413C265.039 85.1065 264.945 85.0244 264.866 84.893C264.787 84.7617 264.754 84.6318 264.754 84.5412C264.754 84.5424 264.754 84.542 264.754 84.5398C264.755 84.5289 264.763 84.4726 264.8 84.358C264.84 84.2325 264.903 84.075 264.988 83.891C265.159 83.5236 265.399 83.0918 265.668 82.6679C265.936 82.244 266.222 81.8447 266.478 81.539C266.606 81.3858 266.718 81.2656 266.811 81.1803ZM308.889 47.8141L288.538 47.8093L268.18 47.8046L276.922 43.427C282.477 40.6457 285.368 39.2008 286.923 38.4558C287.707 38.0805 288.125 37.8956 288.367 37.8061C288.436 37.7804 288.482 37.766 288.511 37.7581C288.527 37.7639 288.547 37.7715 288.572 37.7813C288.682 37.8245 288.842 37.8929 289.063 37.9926C289.505 38.1915 290.159 38.5014 291.084 38.9502C292.931 39.8471 295.833 41.2875 300.214 43.4774L308.889 47.8141ZM274.1 76.6352H270.496V68.7199V60.8047H274.1H277.705V68.7199V76.6352H274.1ZM288.504 76.6352H284.947V68.7199V60.8047H288.504H292.06V68.7199V76.6352H288.504ZM302.907 76.6352H299.303V68.7199V60.8047H302.907H306.511V68.7199V76.6352H302.907Z" stroke="#111111" stroke-width="1.5"/>
</g>
<defs>
<clipPath id="clip0_1_86">
<rect width="32" height="8" fill="white" transform="translate(13 183)"/>
</clipPath>
<clipPath id="clip1_1_86">
<rect width="21" height="20.99" fill="white" transform="translate(18 21)"/>
</clipPath>
<clipPath id="clip2_1_86">
<rect width="49" height="49" fill="white" transform="translate(264 37)"/>
</clipPath>
</defs>
</svg>
