<svg width="200" height="80" viewBox="0 0 200 80" fill="none" xmlns="http://www.w3.org/2000/svg">
<path d="M179.17 46.6763L192.398 38.6665L184.702 37.1338L164.201 41.254L179.17 46.6763Z" fill="#485DEF"/>
<path opacity="0.3" d="M179.17 46.6763L192.398 38.6665L184.702 37.1338L164.201 41.254L179.17 46.6763Z" fill="#263238"/>
<path d="M87.6621 22.1199L103.754 1.65054L97.7988 0.480389C92.9689 -0.474445 87.9696 0.000472114 83.3992 1.84831L52.3219 14.4892L87.6621 22.1199Z" fill="#485DEF"/>
<path opacity="0.3" d="M87.6621 22.1199L103.754 1.65054L97.7988 0.480389C92.9689 -0.474445 87.9696 0.000472114 83.3992 1.84831L52.3219 14.4892L87.6621 22.1199Z" fill="#263238"/>
<path d="M3.28413 7.45323L8.06775 6.25011C12.7002 5.01534 17.5538 4.89681 22.2396 5.90401L179.822 42.1622L181.303 49.0348L175.152 53.4846L15.6987 21.8576C10.4745 20.8215 5.60693 18.4244 1.57571 14.9026C0.957794 14.4039 0.492035 13.738 0.232361 12.9821C-0.027298 12.2262 -0.0702057 11.4113 0.108582 10.6317C0.287369 9.85212 0.680511 9.13982 1.24254 8.57728C1.80457 8.01475 2.51242 7.62501 3.28413 7.45323Z" fill="#485DEF"/>
<path d="M99.6442 57.5284L168.637 72.3827L168.457 73.2371L99.4649 58.3828L99.6442 57.5284Z" fill="#485DEF"/>
<path d="M108.569 12.6234L153.529 22.3035L153.35 23.1579L108.389 13.4778L108.569 12.6234Z" fill="#485DEF"/>
<path d="M181.522 75.1675L200 79.1458L199.821 80.0002L181.343 76.0219L181.522 75.1675Z" fill="#485DEF"/>
<path opacity="0.3" d="M19.6819 19.0216L175.41 52.6263C176.128 52.7683 176.816 53.036 177.443 53.4174C176.68 53.5212 175.904 53.4933 175.149 53.335L15.6955 21.7245C13.092 21.2033 10.5655 20.3447 8.17844 19.1699L7.59271 18.8897C11.5905 18.1132 15.7015 18.1581 19.6819 19.0216Z" fill="#263238"/>
<path d="M181.3 48.9018L185.303 66.0255L177.607 64.4928L163.598 45.9681L181.3 48.9018Z" fill="#485DEF"/>
<path d="M179.821 42.0288L189.16 24.905L181.985 23.4712L161.272 38.3535L179.821 42.0288Z" fill="#485DEF"/>
<path d="M86.2645 29.3224L88.8516 78.7653C85.2025 78.0422 81.7536 76.52 78.7463 74.3051C75.739 72.0902 73.246 69.2363 71.4418 65.9431L47.1169 21.5928L86.2645 29.3224Z" fill="#485DEF"/>
<g opacity="0.5">
<path opacity="0.5" d="M126.739 35.3343L128.699 35.7416L127.964 39.3742L126.003 38.9669L126.739 35.3343Z" fill="white"/>
<path opacity="0.5" d="M122.776 34.569L124.736 34.976L124.001 38.6087L122.041 38.2018L122.776 34.569Z" fill="white"/>
<path opacity="0.5" d="M118.807 33.7455L120.768 34.1525L120.033 37.7852L118.072 37.3783L118.807 33.7455Z" fill="white"/>
<path opacity="0.5" d="M114.838 32.9225L116.799 33.3295L116.064 36.9622L114.103 36.5553L114.838 32.9225Z" fill="white"/>
<path opacity="0.5" d="M110.868 32.0991L112.828 32.506L112.093 36.1387L110.133 35.7318L110.868 32.0991Z" fill="white"/>
<path opacity="0.5" d="M106.897 31.2761L108.857 31.683L108.123 35.3157L106.162 34.9088L106.897 31.2761Z" fill="white"/>
<path opacity="0.5" d="M102.913 30.449L104.873 30.856L104.138 34.4887L102.178 34.0818L102.913 30.449Z" fill="white"/>
<path opacity="0.5" d="M98.936 29.5629L100.896 29.9702L100.161 33.6028L98.2005 33.1956L98.936 29.5629Z" fill="white"/>
<path opacity="0.5" d="M94.9711 28.8021L96.9316 29.209L96.1968 32.8417L94.2362 32.4348L94.9711 28.8021Z" fill="white"/>
<path opacity="0.5" d="M91.0043 27.9623L92.9648 28.3693L92.23 32.002L90.2694 31.5951L91.0043 27.9623Z" fill="white"/>
<path opacity="0.5" d="M87.0176 27.1197L88.9941 27.5299L88.2593 31.1627L86.2827 30.7524L87.0176 27.1197Z" fill="white"/>
<path opacity="0.5" d="M83.0648 26.3152L85.0254 26.7222L84.2905 30.3549L82.3299 29.948L83.0648 26.3152Z" fill="white"/>
<path opacity="0.5" d="M79.0903 25.4272L81.0508 25.8345L80.3153 29.4671L78.3548 29.0598L79.0903 25.4272Z" fill="white"/>
<path opacity="0.5" d="M75.0919 24.6457L77.0684 25.0559L76.3335 28.6887L74.357 28.2784L75.0919 24.6457Z" fill="white"/>
<path opacity="0.5" d="M71.1212 23.8386L73.0977 24.2488L72.3628 27.8815L70.3863 27.4713L71.1212 23.8386Z" fill="white"/>
<path opacity="0.5" d="M67.1684 23.0189L69.1289 23.4258L68.394 27.0585L66.4335 26.6516L67.1684 23.0189Z" fill="white"/>
<path opacity="0.5" d="M63.1817 22.1752L65.1582 22.5854L64.4233 26.2182L62.4468 25.808L63.1817 22.1752Z" fill="white"/>
<path opacity="0.5" d="M59.2129 21.3686L61.1895 21.7788L60.4546 25.4116L58.478 25.0013L59.2129 21.3686Z" fill="white"/>
<path opacity="0.5" d="M55.2582 20.5479L57.2188 20.9548L56.4839 24.5876L54.5233 24.1806L55.2582 20.5479Z" fill="white"/>
<path opacity="0.5" d="M51.27 19.6513L53.2305 20.0586L52.495 23.6912L50.5344 23.2839L51.27 19.6513Z" fill="white"/>
<path opacity="0.5" d="M47.2872 18.8951L49.2637 19.3053L48.5288 22.938L46.5523 22.5278L47.2872 18.8951Z" fill="white"/>
<path opacity="0.5" d="M43.3149 18.0754L45.2754 18.4823L44.5405 22.115L42.58 21.7081L43.3149 18.0754Z" fill="white"/>
</g>
<path opacity="0.5" d="M3.2819 7.45205L8.06552 6.24894C8.70008 6.08413 9.35093 5.91932 10.018 5.80396L17.0633 7.18835C17.5379 7.28233 17.9563 7.56346 18.2264 7.9699C18.4964 8.37634 18.596 8.87479 18.5032 9.35561C18.4105 9.83642 18.1329 10.2602 17.7317 10.5337C17.3304 10.8073 16.8383 10.9081 16.3636 10.8142L2.1755 7.89704C2.52137 7.69581 2.89397 7.54596 3.2819 7.45205Z" fill="white"/>
</svg>
