<svg width="416" height="373" viewBox="0 0 416 373" fill="none" xmlns="http://www.w3.org/2000/svg">
<rect x="0.5" y="61.5" width="339" height="311" rx="19.5" fill="white" stroke="#111111"/>
<rect x="35" y="230" width="56" height="11" fill="#FAFF00"/>
<rect x="34.5" y="259.5" width="272" height="93" rx="20.5" stroke="#111111"/>
<path d="M72.3689 282.8H73.5209V294H72.1769V285.344L68.1609 291.36H67.3289L63.3129 285.344V294H61.9689V282.8H63.1209L67.7449 289.712L72.3689 282.8ZM78.297 293.12C77.4863 292.395 77.081 291.408 77.081 290.16C77.081 288.912 77.4863 287.931 78.297 287.216C79.1077 286.491 80.0677 286.128 81.177 286.128C82.297 286.128 83.257 286.491 84.057 287.216C84.8677 287.931 85.273 288.912 85.273 290.16C85.273 291.408 84.8677 292.395 84.057 293.12C83.257 293.835 82.297 294.192 81.177 294.192C80.0677 294.192 79.1077 293.835 78.297 293.12ZM83.193 292.224C83.7263 291.712 83.993 291.024 83.993 290.16C83.993 289.296 83.7263 288.613 83.193 288.112C82.6597 287.6 81.9877 287.344 81.177 287.344C80.3663 287.344 79.6943 287.6 79.161 288.112C78.6277 288.613 78.361 289.296 78.361 290.16C78.361 291.024 78.6277 291.712 79.161 292.224C79.6943 292.725 80.3663 292.976 81.177 292.976C81.9877 292.976 82.6597 292.725 83.193 292.224ZM89.861 287.456C90.1383 287.083 90.5223 286.768 91.013 286.512C91.5143 286.256 92.053 286.128 92.629 286.128C93.557 286.128 94.3197 286.421 94.917 287.008C95.525 287.584 95.829 288.336 95.829 289.264V294H94.549V289.424C94.549 288.731 94.357 288.208 93.973 287.856C93.5997 287.493 93.1037 287.312 92.485 287.312C91.5037 287.312 90.6717 287.824 89.989 288.848V294H88.709V286.32H89.861V287.456ZM100.118 283.936L101.382 283.616V286.32H104.454V287.504H101.382V291.472C101.382 292.037 101.51 292.432 101.766 292.656C102.033 292.88 102.454 292.992 103.03 292.992C103.585 292.992 104.15 292.875 104.726 292.64V293.824C104.075 294.059 103.387 294.176 102.662 294.176C101.883 294.176 101.265 293.968 100.806 293.552C100.347 293.125 100.118 292.507 100.118 291.696V287.504H98.6779V286.32H100.118V283.936ZM107.768 282.8H109.048V287.296C109.347 286.965 109.726 286.688 110.184 286.464C110.654 286.24 111.155 286.128 111.688 286.128C112.616 286.128 113.379 286.421 113.976 287.008C114.584 287.584 114.888 288.336 114.888 289.264V294H113.608V289.424C113.608 288.731 113.416 288.208 113.032 287.856C112.659 287.493 112.163 287.312 111.544 287.312C110.563 287.312 109.731 287.824 109.048 288.848V294H107.768V282.8ZM118.791 282.32H120.071V294H118.791V282.32ZM127.31 292.544L129.902 286.32H131.262L127.486 295.152C126.75 296.859 125.784 297.712 124.59 297.712C124.302 297.712 124.024 297.675 123.758 297.6V296.496C123.982 296.56 124.206 296.592 124.43 296.592C125.251 296.592 125.912 295.968 126.414 294.72L126.702 294.016L123.054 286.32H124.414L127.31 292.544Z" fill="#111111"/>
<path d="M66.2579 336.08H65.1379V334.16C63.9006 334.043 62.8393 333.733 61.9539 333.232V331.888C63.0739 332.571 64.3753 332.912 65.8579 332.912C67.6713 332.912 68.5779 332.357 68.5779 331.248C68.5779 330.843 68.4553 330.501 68.2099 330.224C67.9753 329.936 67.6606 329.712 67.2659 329.552C66.8819 329.392 66.4553 329.248 65.9859 329.12C65.5166 328.992 65.0473 328.853 64.5779 328.704C64.1086 328.544 63.6766 328.363 63.2819 328.16C62.8979 327.947 62.5833 327.648 62.3379 327.264C62.1033 326.88 61.9859 326.421 61.9859 325.888C61.9859 325.045 62.2793 324.373 62.8659 323.872C63.4526 323.371 64.2099 323.067 65.1379 322.96V321.04H66.2579V322.944C67.4206 323.008 68.4073 323.275 69.2179 323.744V325.088C68.2793 324.48 67.1806 324.187 65.9219 324.208C64.2046 324.208 63.3459 324.752 63.3459 325.84C63.3459 326.224 63.4633 326.549 63.6979 326.816C63.9433 327.083 64.2579 327.291 64.6419 327.44C65.0366 327.589 65.4686 327.728 65.9379 327.856C66.4073 327.973 66.8766 328.112 67.3459 328.272C67.8153 328.432 68.2419 328.619 68.6259 328.832C69.0206 329.045 69.3353 329.349 69.5699 329.744C69.8153 330.139 69.9379 330.608 69.9379 331.152C69.9379 332.155 69.5966 332.907 68.9139 333.408C68.2313 333.899 67.3459 334.16 66.2579 334.192V336.08ZM73.6181 323.12H80.1461V324.4H74.8821L74.6901 327.472C75.2661 327.312 75.8847 327.232 76.5461 327.232C77.0901 327.232 77.5967 327.296 78.0661 327.424C78.5354 327.541 78.9674 327.733 79.3621 328C79.7674 328.256 80.0874 328.619 80.3221 329.088C80.5567 329.547 80.6741 330.091 80.6741 330.72C80.6741 331.797 80.2741 332.645 79.4741 333.264C78.6847 333.883 77.6767 334.192 76.4501 334.192C75.1274 334.192 73.9647 333.947 72.9621 333.456V332.176C73.9221 332.688 75.0314 332.944 76.2901 332.944C77.2074 332.944 77.9381 332.752 78.4821 332.368C79.0367 331.984 79.3141 331.435 79.3141 330.72C79.3141 329.205 78.2367 328.448 76.0821 328.448C75.1434 328.448 74.2047 328.619 73.2661 328.96L73.6181 323.12ZM84.4837 323.12H91.0117V324.4H85.7477L85.5557 327.472C86.1317 327.312 86.7504 327.232 87.4117 327.232C87.9557 327.232 88.4624 327.296 88.9317 327.424C89.401 327.541 89.833 327.733 90.2277 328C90.633 328.256 90.953 328.619 91.1877 329.088C91.4224 329.547 91.5397 330.091 91.5397 330.72C91.5397 331.797 91.1397 332.645 90.3397 333.264C89.5504 333.883 88.5424 334.192 87.3157 334.192C85.993 334.192 84.8304 333.947 83.8277 333.456V332.176C84.7877 332.688 85.897 332.944 87.1557 332.944C88.073 332.944 88.8037 332.752 89.3477 332.368C89.9024 331.984 90.1797 331.435 90.1797 330.72C90.1797 329.205 89.1024 328.448 86.9477 328.448C86.009 328.448 85.0704 328.619 84.1317 328.96L84.4837 323.12ZM96.0373 328.256C97.072 327.563 98.208 327.216 99.4453 327.216C100.437 327.216 101.307 327.52 102.053 328.128C102.8 328.725 103.173 329.557 103.173 330.624C103.173 331.744 102.8 332.619 102.053 333.248C101.317 333.877 100.389 334.192 99.2693 334.192C97.7333 334.192 96.5813 333.717 95.8133 332.768C95.056 331.808 94.6773 330.464 94.6773 328.736C94.6773 326.816 95.1306 325.371 96.0373 324.4C96.9546 323.419 98.1493 322.928 99.6213 322.928C100.571 322.928 101.451 323.136 102.261 323.552V324.832C101.472 324.416 100.603 324.208 99.6533 324.208C98.6506 324.208 97.8133 324.533 97.1413 325.184C96.48 325.824 96.112 326.848 96.0373 328.256ZM96.0533 329.6C96.256 331.829 97.296 332.944 99.1733 332.944C99.9626 332.944 100.597 332.763 101.077 332.4C101.568 332.037 101.813 331.467 101.813 330.688C101.813 329.899 101.563 329.333 101.061 328.992C100.56 328.64 99.9093 328.464 99.1093 328.464C97.9253 328.464 96.9066 328.843 96.0533 329.6ZM111.991 329.424H117.703V330.64H111.991V329.424ZM128.253 327.456C128.531 327.083 128.915 326.768 129.405 326.512C129.907 326.256 130.445 326.128 131.021 326.128C131.949 326.128 132.712 326.421 133.309 327.008C133.917 327.584 134.221 328.336 134.221 329.264V334H132.941V329.424C132.941 328.731 132.749 328.208 132.365 327.856C131.992 327.493 131.496 327.312 130.877 327.312C129.896 327.312 129.064 327.824 128.381 328.848V334H127.101V326.32H128.253V327.456ZM137.564 330.16C137.564 328.901 137.948 327.915 138.716 327.2C139.494 326.485 140.385 326.128 141.388 326.128C142.326 326.128 143.1 326.363 143.708 326.832C144.326 327.301 144.732 327.883 144.924 328.576C145.116 329.259 145.126 329.973 144.956 330.72H138.844C138.918 331.477 139.254 332.048 139.852 332.432C140.449 332.816 141.169 333.008 142.012 333.008C142.95 333.008 143.793 332.8 144.54 332.384V333.632C143.825 334.005 142.918 334.192 141.82 334.192C140.604 334.192 139.59 333.845 138.78 333.152C137.969 332.459 137.564 331.461 137.564 330.16ZM143.82 329.6C143.852 329.376 143.836 329.141 143.772 328.896C143.708 328.651 143.59 328.405 143.42 328.16C143.26 327.915 143.009 327.712 142.668 327.552C142.326 327.392 141.926 327.312 141.468 327.312C140.774 327.312 140.172 327.515 139.66 327.92C139.158 328.325 138.886 328.885 138.844 329.6H143.82ZM153.133 326.32H154.605L151.789 330.048L154.765 334H153.293L151.053 330.96L148.797 334H147.325L150.317 330.048L147.485 326.32H148.957L151.053 329.152L153.133 326.32ZM158.257 323.936L159.521 323.616V326.32H162.593V327.504H159.521V331.472C159.521 332.037 159.649 332.432 159.905 332.656C160.172 332.88 160.593 332.992 161.169 332.992C161.724 332.992 162.289 332.875 162.865 332.64V333.824C162.214 334.059 161.526 334.176 160.801 334.176C160.022 334.176 159.404 333.968 158.945 333.552C158.486 333.125 158.257 332.507 158.257 331.696V327.504H156.817V326.32H158.257V323.936ZM167.171 327.168C167.331 327.307 167.411 327.504 167.411 327.76C167.411 328.016 167.331 328.219 167.171 328.368C167.011 328.507 166.809 328.576 166.563 328.576C166.329 328.576 166.131 328.507 165.971 328.368C165.811 328.219 165.731 328.016 165.731 327.76C165.731 327.504 165.811 327.307 165.971 327.168C166.131 327.019 166.329 326.944 166.563 326.944C166.809 326.944 167.011 327.019 167.171 327.168ZM167.171 332.736C167.331 332.875 167.411 333.072 167.411 333.328C167.411 333.584 167.331 333.787 167.171 333.936C167.011 334.075 166.809 334.144 166.563 334.144C166.329 334.144 166.131 334.075 165.971 333.936C165.811 333.787 165.731 333.584 165.731 333.328C165.731 333.072 165.811 332.875 165.971 332.736C166.131 332.597 166.329 332.528 166.563 332.528C166.809 332.528 167.011 332.597 167.171 332.736ZM183.787 325.888C183.787 326.443 183.637 326.944 183.339 327.392C183.051 327.829 182.672 328.128 182.203 328.288C182.757 328.459 183.232 328.773 183.627 329.232C184.032 329.68 184.235 330.283 184.235 331.04C184.235 332.053 183.856 332.832 183.099 333.376C182.352 333.92 181.403 334.192 180.251 334.192C178.789 334.192 177.525 333.952 176.459 333.472V332.144C177.493 332.677 178.72 332.939 180.139 332.928C182.005 332.928 182.939 332.277 182.939 330.976C182.939 329.675 182.053 329.024 180.283 329.024H178.619V327.744L180.139 327.76C180.907 327.76 181.488 327.6 181.883 327.28C182.288 326.949 182.491 326.523 182.491 326C182.491 325.435 182.267 324.992 181.819 324.672C181.371 324.341 180.736 324.176 179.915 324.176C178.784 324.176 177.696 324.453 176.651 325.008V323.696C177.653 323.184 178.8 322.928 180.091 322.928C181.2 322.928 182.091 323.2 182.763 323.744C183.445 324.288 183.787 325.003 183.787 325.888ZM190.105 323.12H191.097V332.72H193.129V334H187.465V332.72H189.753V324.544L187.465 325.408V324.128L190.105 323.12ZM202.619 322.8H207.259V330.832C207.259 331.952 206.917 332.789 206.235 333.344C205.563 333.888 204.677 334.16 203.579 334.16C202.395 334.16 201.435 333.931 200.699 333.472V332.128C201.413 332.629 202.293 332.88 203.339 332.88C205.056 332.88 205.915 332.181 205.915 330.784V324.08H202.619V322.8ZM217.033 326.32H218.313V334H217.161V332.864C216.883 333.237 216.494 333.552 215.993 333.808C215.502 334.064 214.969 334.192 214.393 334.192C213.401 334.192 212.617 333.909 212.041 333.344C211.475 332.768 211.193 332.005 211.193 331.056V326.32H212.473V330.896C212.473 332.304 213.161 333.008 214.537 333.008C215.518 333.008 216.35 332.496 217.033 331.472V326.32ZM222.311 322.32H223.591V334H222.311V322.32Z" fill="#111111"/>
<rect x="250.5" y="321.5" width="30" height="15" rx="7.5" fill="#111111" stroke="#111111"/>
<circle cx="273" cy="329" r="7" fill="white"/>
<path d="M0.5 81C0.5 70.2304 9.23045 61.5 20 61.5H320C330.77 61.5 339.5 70.2304 339.5 81V212.5H0.5V81Z" fill="white" stroke="#111111"/>
<path d="M31.472 108.8H36.064C37.2373 108.8 38.1653 109.045 38.848 109.536C39.5307 110.016 39.872 110.715 39.872 111.632C39.872 112.293 39.696 112.837 39.344 113.264C38.992 113.68 38.5707 113.963 38.08 114.112C38.6773 114.272 39.2 114.581 39.648 115.04C40.096 115.488 40.32 116.117 40.32 116.928C40.32 117.419 40.224 117.851 40.032 118.224C39.8507 118.597 39.616 118.896 39.328 119.12C39.0507 119.333 38.72 119.509 38.336 119.648C37.9627 119.787 37.6 119.883 37.248 119.936C36.9067 119.979 36.5547 120 36.192 120H31.472V108.8ZM38.96 116.784C38.96 115.493 38.0693 114.848 36.288 114.848H32.816V118.72H35.92C36.2613 118.72 36.5493 118.715 36.784 118.704C37.0187 118.683 37.2853 118.64 37.584 118.576C37.8827 118.501 38.1227 118.4 38.304 118.272C38.4853 118.133 38.64 117.941 38.768 117.696C38.896 117.44 38.96 117.136 38.96 116.784ZM38.512 111.824C38.512 111.195 38.2933 110.747 37.856 110.48C37.4293 110.213 36.7947 110.08 35.952 110.08H32.816V113.568H36.32C36.96 113.568 37.4827 113.429 37.888 113.152C38.304 112.864 38.512 112.421 38.512 111.824ZM45.0648 120H43.7848V112.32H45.0648V120ZM45.0168 109.28C45.1768 109.419 45.2568 109.616 45.2568 109.872C45.2568 110.128 45.1768 110.331 45.0168 110.48C44.8568 110.619 44.6594 110.688 44.4248 110.688C44.1901 110.688 43.9928 110.619 43.8328 110.48C43.6728 110.331 43.5928 110.128 43.5928 109.872C43.5928 109.616 43.6728 109.419 43.8328 109.28C43.9928 109.131 44.1901 109.056 44.4248 109.056C44.6594 109.056 44.8568 109.131 45.0168 109.28ZM49.1035 108.32H50.3835V120H49.1035V108.32ZM54.4222 108.32H55.7022V120H54.4222V108.32ZM59.261 114.336C59.261 113.6 59.5437 113.051 60.109 112.688C60.685 112.315 61.3783 112.128 62.189 112.128C63.181 112.128 64.0877 112.347 64.909 112.784V114C64.589 113.787 64.1837 113.616 63.693 113.488C63.2023 113.349 62.7277 113.28 62.269 113.28C61.7997 113.28 61.3943 113.365 61.053 113.536C60.7223 113.696 60.557 113.952 60.557 114.304C60.557 114.56 60.6743 114.784 60.909 114.976C61.1543 115.157 61.4583 115.296 61.821 115.392C62.1837 115.488 62.573 115.611 62.989 115.76C63.4157 115.899 63.8103 116.048 64.173 116.208C64.5357 116.357 64.8343 116.592 65.069 116.912C65.3143 117.221 65.437 117.595 65.437 118.032C65.437 118.779 65.1383 119.328 64.541 119.68C63.9437 120.021 63.1863 120.192 62.269 120.192C61.0637 120.192 60.0717 119.941 59.293 119.44V118.192C60.1037 118.736 61.0743 119.008 62.205 119.008C63.5063 119.008 64.157 118.693 64.157 118.064C64.157 117.776 63.9863 117.536 63.645 117.344C63.3143 117.141 62.909 116.976 62.429 116.848C61.949 116.709 61.469 116.555 60.989 116.384C60.509 116.213 60.0983 115.957 59.757 115.616C59.4263 115.275 59.261 114.848 59.261 114.336Z" fill="#111111"/>
<path d="M34.336 153.34H32.374V151.198C30.994 151.066 29.788 150.706 28.756 150.118V147.544C30.1 148.432 31.606 148.876 33.274 148.876C34.042 148.876 34.612 148.786 34.984 148.606C35.368 148.414 35.56 148.102 35.56 147.67C35.56 147.358 35.434 147.088 35.182 146.86C34.942 146.632 34.624 146.452 34.228 146.32C33.832 146.176 33.394 146.038 32.914 145.906C32.434 145.762 31.954 145.6 31.474 145.42C30.994 145.228 30.556 145.006 30.16 144.754C29.764 144.49 29.44 144.13 29.188 143.674C28.948 143.218 28.828 142.69 28.828 142.09C28.828 141.07 29.152 140.266 29.8 139.678C30.448 139.078 31.306 138.706 32.374 138.562V136.42H34.336V138.58C35.608 138.7 36.67 139 37.522 139.48V142C36.454 141.232 35.158 140.86 33.634 140.884C32.266 140.908 31.582 141.298 31.582 142.054C31.582 142.342 31.702 142.594 31.942 142.81C32.194 143.014 32.518 143.182 32.914 143.314C33.322 143.446 33.766 143.578 34.246 143.71C34.726 143.842 35.2 144.004 35.668 144.196C36.148 144.388 36.586 144.616 36.982 144.88C37.39 145.132 37.714 145.486 37.954 145.942C38.206 146.398 38.332 146.932 38.332 147.544C38.332 148.72 37.966 149.602 37.234 150.19C36.514 150.778 35.548 151.12 34.336 151.216V153.34ZM42.3004 138.742H50.0764V141.064L44.7304 141.046L44.5684 143.44C45.1444 143.32 45.6724 143.26 46.1524 143.26C47.4724 143.26 48.5464 143.578 49.3744 144.214C50.2144 144.85 50.6344 145.834 50.6344 147.166C50.6344 148.51 50.1364 149.53 49.1404 150.226C48.1444 150.91 46.9144 151.252 45.4504 151.252C43.9624 151.252 42.6484 150.976 41.5084 150.424V147.922C42.5284 148.57 43.7404 148.894 45.1444 148.894C45.9844 148.894 46.6564 148.744 47.1604 148.444C47.6764 148.144 47.9344 147.706 47.9344 147.13C47.9344 145.93 46.9384 145.33 44.9464 145.33C43.8664 145.33 42.8404 145.504 41.8684 145.852L42.3004 138.742ZM56.428 148.66C56.716 148.912 56.86 149.278 56.86 149.758C56.86 150.238 56.716 150.604 56.428 150.856C56.14 151.108 55.78 151.234 55.348 151.234C54.916 151.234 54.55 151.108 54.25 150.856C53.962 150.604 53.818 150.238 53.818 149.758C53.818 149.278 53.962 148.912 54.25 148.66C54.55 148.408 54.916 148.282 55.348 148.282C55.78 148.282 56.14 148.408 56.428 148.66ZM62.5201 143.908C63.5521 143.356 64.6441 143.08 65.7961 143.08C66.9721 143.08 67.9741 143.428 68.8021 144.124C69.6421 144.82 70.0621 145.792 70.0621 147.04C70.0621 148.372 69.6121 149.41 68.7121 150.154C67.8121 150.886 66.7021 151.252 65.3821 151.252C61.6861 151.252 59.8381 149.128 59.8381 144.88C59.8381 143.8 59.9941 142.846 60.3061 142.018C60.6181 141.178 61.0441 140.512 61.5841 140.02C62.1241 139.516 62.7361 139.138 63.4201 138.886C64.1041 138.634 64.8481 138.508 65.6521 138.508C66.8161 138.508 67.9381 138.76 69.0181 139.264V141.64C68.1421 141.064 67.1401 140.776 66.0121 140.776C63.9601 140.776 62.7961 141.82 62.5201 143.908ZM62.5201 146.086C62.6401 147.166 62.9221 147.934 63.3661 148.39C63.8101 148.834 64.4101 149.056 65.1661 149.056C65.8141 149.056 66.3421 148.9 66.7501 148.588C67.1581 148.276 67.3621 147.802 67.3621 147.166C67.3621 145.942 66.5641 145.33 64.9681 145.33C64.1041 145.33 63.2881 145.582 62.5201 146.086ZM76.3009 138.76H78.2629V148.678H80.3149V151H73.3309V148.678H75.6349V141.46L73.3309 142.324V139.894L76.3009 138.76Z" fill="#111111"/>
<rect x="29.5" y="167.5" width="71" height="28" rx="4.5" fill="white" stroke="#111111"/>
<mask id="path-12-inside-1_1_3772" fill="white">
<path d="M44.6 181.6H41.4V178.4C41.4 178.179 41.2208 178 41 178C40.7792 178 40.6 178.179 40.6 178.4V181.6H37.4C37.1792 181.6 37 181.779 37 182C37 182.221 37.1792 182.4 37.4 182.4H40.6V185.6C40.6 185.821 40.7792 186 41 186C41.2208 186 41.4 185.821 41.4 185.6V182.4H44.6C44.8208 182.4 45 182.221 45 182C45 181.779 44.8208 181.6 44.6 181.6Z"/>
</mask>
<path d="M44.6 181.6H41.4V178.4C41.4 178.179 41.2208 178 41 178C40.7792 178 40.6 178.179 40.6 178.4V181.6H37.4C37.1792 181.6 37 181.779 37 182C37 182.221 37.1792 182.4 37.4 182.4H40.6V185.6C40.6 185.821 40.7792 186 41 186C41.2208 186 41.4 185.821 41.4 185.6V182.4H44.6C44.8208 182.4 45 182.221 45 182C45 181.779 44.8208 181.6 44.6 181.6Z" fill="#111111"/>
<path d="M41.4 181.6H40.4V182.6H41.4V181.6ZM40.6 181.6V182.6H41.6V181.6H40.6ZM40.6 182.4H41.6V181.4H40.6V182.4ZM41.4 182.4V181.4H40.4V182.4H41.4ZM44.6 180.6H41.4V182.6H44.6V180.6ZM42.4 181.6V178.4H40.4V181.6H42.4ZM42.4 178.4C42.4 177.627 41.773 177 41 177V179C40.6686 179 40.4 178.732 40.4 178.4H42.4ZM41 177C40.2269 177 39.6 177.627 39.6 178.4H41.6C41.6 178.732 41.3315 179 41 179V177ZM39.6 178.4V181.6H41.6V178.4H39.6ZM40.6 180.6H37.4V182.6H40.6V180.6ZM37.4 180.6C36.6269 180.6 36 181.227 36 182H38C38 182.331 37.7315 182.6 37.4 182.6V180.6ZM36 182C36 182.773 36.6268 183.4 37.4 183.4V181.4C37.7316 181.4 38 181.669 38 182H36ZM37.4 183.4H40.6V181.4H37.4V183.4ZM39.6 182.4V185.6H41.6V182.4H39.6ZM39.6 185.6C39.6 186.373 40.2268 187 41 187V185C41.3316 185 41.6 185.269 41.6 185.6H39.6ZM41 187C41.7731 187 42.4 186.373 42.4 185.6H40.4C40.4 185.268 40.6685 185 41 185V187ZM42.4 185.6V182.4H40.4V185.6H42.4ZM41.4 183.4H44.6V181.4H41.4V183.4ZM44.6 183.4C45.3731 183.4 46 182.773 46 182H44C44 181.669 44.2685 181.4 44.6 181.4V183.4ZM46 182C46 181.227 45.3729 180.6 44.6 180.6V182.6C44.2686 182.6 44 182.332 44 182H46Z" fill="#111111" mask="url(#path-12-inside-1_1_3772)"/>
<rect x="53" y="179" width="38" height="6" rx="3" fill="#FAFF00"/>
<rect x="121.5" y="167.5" width="109" height="28" rx="4.5" fill="white" stroke="#111111"/>
<rect x="145" y="178" width="76" height="6" rx="3" fill="#FAFF00"/>
<path d="M132.806 177.002L131.853 177.003L131.859 183.108L129.655 180.776L129.004 181.475L132.336 185.003L135.67 181.47L135.003 180.771L132.811 183.107L132.806 177.002Z" fill="#111111"/>
<rect x="251.5" y="167.5" width="33" height="28" rx="4.5" fill="white" stroke="#111111"/>
<path d="M267.099 176.253L267.098 176.254C267.044 176.323 266.984 176.365 266.962 176.379C266.932 176.4 266.902 176.416 266.877 176.429C266.827 176.454 266.771 176.477 266.715 176.494C266.715 176.494 266.715 176.494 266.715 176.494C266.713 176.495 266.702 176.498 266.678 176.507C266.654 176.516 266.624 176.528 266.589 176.542C266.519 176.57 266.435 176.605 266.356 176.639L266.356 176.639L266.054 176.77L265.782 176.888L265.548 176.706L265.439 176.621L265.439 176.621C265.187 176.424 264.968 176.259 264.8 176.136C264.716 176.075 264.647 176.026 264.594 175.99C264.55 175.96 264.528 175.947 264.521 175.942C264.519 175.941 264.518 175.941 264.519 175.941C264.468 175.916 264.315 175.895 264.187 175.931C264.178 175.934 264.172 175.935 264.168 175.937C264.161 175.941 264.149 175.95 264.129 175.967C264.037 176.044 263.884 176.194 263.547 176.525C263.211 176.857 263.059 177.008 262.981 177.098C262.965 177.116 262.956 177.128 262.951 177.134C262.95 177.138 262.949 177.143 262.946 177.15L262.946 177.15C262.912 177.269 262.931 177.409 262.954 177.458C262.955 177.461 262.963 177.473 262.979 177.497C263.001 177.529 263.031 177.572 263.067 177.621C263.139 177.72 263.231 177.842 263.325 177.961C263.518 178.205 263.691 178.426 263.708 178.448L263.708 178.448C263.787 178.55 263.807 178.653 263.814 178.708C263.821 178.766 263.817 178.816 263.813 178.847C263.806 178.909 263.79 178.965 263.777 179.004C263.751 179.087 263.711 179.185 263.664 179.29L263.664 179.29C263.63 179.367 263.595 179.449 263.566 179.518C263.552 179.552 263.54 179.582 263.531 179.605C263.523 179.627 263.519 179.638 263.518 179.64L267.099 176.253ZM267.099 176.253C267.15 176.185 267.173 176.117 267.176 176.109C267.176 176.109 267.176 176.108 267.177 176.108C267.184 176.087 267.189 176.068 267.192 176.056C267.199 176.032 267.204 176.006 267.209 175.985C267.218 175.94 267.228 175.883 267.238 175.821C267.258 175.696 267.281 175.532 267.303 175.357L267.099 176.253ZM261.62 180.401C261.665 180.357 261.682 180.345 261.744 180.326C261.843 180.296 262.012 180.267 262.368 180.222L262.368 180.222C262.546 180.2 262.713 180.177 262.84 180.157C262.903 180.147 262.96 180.137 263.005 180.128C263.027 180.124 263.053 180.119 263.077 180.113C263.088 180.11 263.107 180.105 263.128 180.097C263.128 180.097 263.128 180.097 263.128 180.097C263.136 180.095 263.203 180.073 263.271 180.023L263.271 180.022C263.342 179.97 263.384 179.91 263.399 179.888C263.421 179.858 263.438 179.828 263.451 179.803C263.477 179.753 263.5 179.697 263.518 179.641L270.303 175.946C270.32 175.964 270.434 176.015 270.555 176.059C270.676 176.103 270.854 176.178 270.95 176.225C271.016 176.257 271.054 176.283 271.094 176.287C271.181 176.297 271.278 176.212 271.685 175.899M261.62 180.401C261.62 180.401 261.62 180.401 261.62 180.401C261.619 180.402 261.614 180.407 261.605 180.418C261.595 180.43 261.584 180.444 261.573 180.46C261.548 180.494 261.529 180.523 261.522 180.538L261.522 180.538L261.5 180.578V181.378V182.19L261.528 182.249L261.528 182.25C261.535 182.263 261.551 182.291 261.575 182.326C261.586 182.341 261.596 182.355 261.605 182.366C261.613 182.376 261.617 182.38 261.617 182.38C261.617 182.38 261.616 182.38 261.616 182.38L261.265 182.736M261.62 180.401L261.269 180.045L261.62 180.401C261.62 180.401 261.62 180.401 261.62 180.401ZM261.265 182.736L261.616 182.379C261.665 182.428 261.684 182.44 261.746 182.46C261.845 182.49 262.013 182.519 262.37 182.563C262.37 182.563 262.37 182.563 262.37 182.563L262.309 183.06M261.265 182.736C261.204 182.675 261.119 182.553 261.077 182.464L261 182.303L262.309 183.06M261.265 182.736C261.459 182.927 261.61 182.974 262.309 183.06M262.309 183.06C262.654 183.102 262.953 183.149 262.973 183.163C262.992 183.178 263.023 183.237 263.041 183.295M263.041 183.295C263.06 183.354 263.135 183.535 263.208 183.698C263.297 183.898 263.331 184.007 263.313 184.031C263.297 184.05 263.126 184.268 262.932 184.515C262.738 184.761 262.549 185.021 262.512 185.093M263.041 183.295L263.518 183.144C263.518 183.144 263.518 183.144 263.518 183.144C263.518 183.144 263.518 183.144 263.518 183.144L263.041 183.295ZM262.512 185.093C262.419 185.271 262.401 185.551 262.467 185.774M262.512 185.093L262.956 185.323C262.956 185.323 262.956 185.323 262.956 185.323L262.512 185.093ZM262.467 185.774C262.515 185.938 262.544 185.972 263.153 186.577C263.911 187.33 263.959 187.362 264.346 187.362M262.467 185.774L262.947 185.633M262.467 185.774L262.947 185.633L262.947 185.633M264.346 187.362C264.568 187.362 264.632 187.351 264.742 187.293C264.846 187.239 265.248 186.944 265.822 186.501M264.346 187.362L264.346 186.862M264.346 187.362L264.346 186.862C264.399 186.862 264.435 186.861 264.461 186.86C264.48 186.859 264.491 186.858 264.496 186.857C264.499 186.856 264.503 186.854 264.51 186.85C264.509 186.851 264.51 186.85 264.512 186.849C264.519 186.844 264.543 186.829 264.59 186.797C264.646 186.759 264.719 186.706 264.81 186.64C264.991 186.507 265.231 186.325 265.516 186.106M265.822 186.501C265.848 186.481 265.927 186.504 266.086 186.575M265.822 186.501L265.516 186.106M265.822 186.501L265.516 186.106M266.086 186.575C266.211 186.631 266.403 186.708 266.512 186.745M266.086 186.575L266.291 186.119M266.086 186.575L266.291 186.119C266.207 186.081 266.119 186.045 266.038 186.022C265.999 186.011 265.937 185.997 265.866 185.995C265.804 185.993 265.656 185.998 265.516 186.105L266.291 186.119M266.512 186.745C266.656 186.794 266.715 186.829 266.724 186.871M266.512 186.745L266.674 186.272M266.512 186.745L266.674 186.272C266.674 186.272 266.674 186.272 266.674 186.272M266.724 186.871C266.731 186.903 266.77 187.195 266.812 187.52M266.724 186.871L267.213 186.767L267.213 186.767M266.724 186.871L267.213 186.767M266.812 187.52C266.895 188.179 266.944 188.329 267.136 188.518C267.197 188.578 267.321 188.662 267.411 188.703L267.575 188.779H268.5H269.425L269.589 188.703C269.679 188.662 269.803 188.578 269.864 188.518M266.812 187.52L267.308 187.457C267.308 187.457 267.308 187.457 267.308 187.457C267.35 187.793 267.379 187.949 267.409 188.041C267.427 188.096 267.438 188.114 267.486 188.161C267.486 188.161 267.49 188.165 267.501 188.173C267.512 188.181 267.526 188.192 267.542 188.203C267.577 188.226 267.607 188.243 267.621 188.249L267.621 188.249L267.685 188.279H268.5H269.315L269.379 188.249L269.379 188.249C269.393 188.243 269.423 188.226 269.458 188.203C269.474 188.192 269.488 188.181 269.499 188.173C269.511 188.163 269.515 188.159 269.513 188.161L269.864 188.518M266.812 187.52L270.729 186.111M269.864 188.518C270.058 188.326 270.106 188.179 270.193 187.49C270.236 187.149 270.285 186.856 270.303 186.838C270.32 186.821 270.434 186.77 270.555 186.726C270.676 186.682 270.854 186.607 270.95 186.56M269.864 188.518L269.513 188.162C269.563 188.113 269.574 188.095 269.592 188.038C269.623 187.942 269.652 187.779 269.696 187.427C269.719 187.252 269.743 187.086 269.764 186.96C269.775 186.897 269.785 186.839 269.796 186.792C269.801 186.77 269.807 186.741 269.816 186.714C269.82 186.7 269.827 186.678 269.838 186.652C269.838 186.652 269.838 186.652 269.838 186.651C269.843 186.64 269.875 186.56 269.947 186.487L269.947 186.487C269.99 186.443 270.033 186.416 270.046 186.408L270.046 186.408C270.066 186.395 270.084 186.385 270.098 186.378C270.127 186.363 270.157 186.348 270.186 186.335C270.244 186.31 270.313 186.282 270.383 186.256C270.491 186.217 270.652 186.149 270.729 186.111M270.95 186.56C271.016 186.527 271.054 186.502 271.094 186.497C271.181 186.488 271.278 186.573 271.685 186.886M270.95 186.56L270.729 186.111M270.95 186.56L270.729 186.111M271.685 186.886C271.927 187.072 272.185 187.254 272.257 187.29M271.685 186.886L271.99 186.489M271.685 186.886L271.99 186.489L271.99 186.489M272.257 187.29C272.438 187.381 272.722 187.399 272.949 187.334M272.257 187.29L272.482 186.843C272.482 186.843 272.482 186.843 272.482 186.843L272.257 187.29ZM272.949 187.334C273.116 187.286 273.15 187.258 273.764 186.658M272.949 187.334L272.812 186.853M272.949 187.334L272.812 186.853L272.812 186.853M273.764 186.658C274.529 185.912 274.561 185.864 274.561 185.483M273.764 186.658L273.415 186.301C273.816 185.909 273.968 185.753 274.036 185.653C274.048 185.635 274.052 185.626 274.054 185.623C274.055 185.621 274.055 185.62 274.055 185.618C274.058 185.606 274.061 185.58 274.061 185.483M273.764 186.658L273.415 186.301C273.1 186.608 272.956 186.747 272.87 186.818C272.85 186.835 272.839 186.843 272.833 186.847M274.561 185.483C274.561 185.156 274.539 185.113 274.068 184.515C273.874 184.268 273.703 184.05 273.687 184.031C273.669 184.007 273.703 183.898 273.792 183.698C273.865 183.535 273.94 183.354 273.959 183.295M274.561 185.483L274.061 185.483M274.561 185.483L274.061 185.483M273.959 183.295C273.977 183.237 274.008 183.178 274.027 183.163C274.047 183.149 274.346 183.102 274.691 183.06M273.959 183.295L273.482 183.144C273.482 183.144 273.482 183.144 273.482 183.144M273.959 183.295L273.482 183.144C273.482 183.144 273.482 183.144 273.482 183.144M274.691 183.06C275.389 182.974 275.533 182.929 275.733 182.735C275.795 182.675 275.881 182.552 275.923 182.464M274.691 183.06L274.63 182.563C274.63 182.563 274.63 182.563 274.63 182.563C274.988 182.519 275.152 182.491 275.25 182.461C275.309 182.442 275.329 182.43 275.385 182.376L275.385 182.376C275.384 182.376 275.384 182.377 275.384 182.377C275.384 182.377 275.388 182.372 275.396 182.363C275.405 182.352 275.416 182.338 275.427 182.323C275.451 182.288 275.466 182.26 275.472 182.249L275.5 182.19V181.392V180.595L275.472 180.535L275.472 180.535C275.465 180.522 275.449 180.493 275.425 180.459C275.414 180.443 275.404 180.429 275.395 180.418C275.387 180.409 275.383 180.405 275.383 180.404C275.383 180.404 275.384 180.405 275.384 180.405L275.735 180.049M274.691 183.06L274.63 180.221M275.923 182.464L276 182.303M275.923 182.464L275.585 182.303H276M275.923 182.464L275.585 182.303H276M276 182.303V181.392V180.482L275.923 180.32C275.881 180.231 275.796 180.109 275.735 180.049M275.735 180.049C275.541 179.858 275.39 179.811 274.691 179.725M275.735 180.049L275.384 180.405C275.335 180.357 275.316 180.344 275.254 180.325C275.155 180.294 274.987 180.265 274.63 180.221M274.691 179.725C274.346 179.682 274.047 179.636 274.027 179.621C274.008 179.607 273.977 179.547 273.959 179.489M274.691 179.725L274.63 180.221M274.691 179.725L274.63 180.221L274.63 180.221M273.959 179.489C273.94 179.431 273.865 179.249 273.792 179.086C273.703 178.886 273.669 178.778 273.687 178.754C273.703 178.734 273.874 178.516 274.068 178.27M273.959 179.489L273.482 179.64C273.482 179.64 273.482 179.641 273.482 179.641M273.959 179.489L273.482 179.641M274.068 178.27C274.262 178.023 274.451 177.763 274.488 177.692C274.58 177.514 274.599 177.234 274.533 177.01C274.485 176.845 274.46 176.816 273.803 176.169C273.147 175.522 273.117 175.497 272.949 175.45C272.722 175.386 272.437 175.404 272.257 175.494C272.185 175.531 271.927 175.713 271.685 175.899M274.068 178.27L273.675 177.961C273.482 178.205 273.309 178.426 273.292 178.448L273.292 178.448C273.213 178.55 273.193 178.653 273.186 178.708C273.179 178.766 273.183 178.816 273.187 178.847C273.194 178.909 273.21 178.965 273.223 179.004C273.249 179.087 273.289 179.185 273.336 179.29L273.336 179.29C273.37 179.367 273.405 179.449 273.434 179.518C273.448 179.552 273.46 179.582 273.469 179.605C273.477 179.627 273.481 179.638 273.482 179.64C273.482 179.641 273.482 179.641 273.482 179.641M274.068 178.27L273.675 177.961C273.769 177.842 273.861 177.72 273.933 177.621C273.969 177.572 273.999 177.529 274.021 177.497C274.037 177.473 274.045 177.461 274.046 177.458M271.685 175.899L271.99 176.295M271.685 175.899L271.99 176.295C271.945 176.33 271.903 176.362 271.865 176.392C271.778 176.459 271.704 176.515 271.646 176.559C271.569 176.616 271.474 176.685 271.374 176.729C271.235 176.791 271.08 176.809 270.919 176.759C270.861 176.74 270.813 176.717 270.79 176.705C270.774 176.697 270.765 176.692 270.758 176.688C270.749 176.684 270.743 176.68 270.729 176.674L271.99 176.295M271.99 176.295C272.106 176.206 272.225 176.118 272.323 176.049C272.372 176.014 272.414 175.986 272.446 175.964C272.471 175.948 272.483 175.941 272.486 175.939C272.539 175.915 272.687 175.895 272.813 175.931L272.813 175.931C272.822 175.934 272.828 175.935 272.832 175.937C272.839 175.941 272.851 175.95 272.871 175.967C272.963 176.044 273.116 176.194 273.453 176.525C273.789 176.857 273.941 177.008 274.019 177.098C274.035 177.116 274.044 177.128 274.049 177.134M271.99 176.295L273.482 179.641M273.482 179.641C273.5 179.697 273.523 179.753 273.549 179.803C273.562 179.828 273.579 179.857 273.6 179.888C273.615 179.91 273.658 179.969 273.728 180.022L273.729 180.022C273.796 180.073 273.863 180.095 273.871 180.097L273.872 180.097C273.893 180.105 273.912 180.11 273.923 180.113C273.948 180.119 273.973 180.124 273.995 180.128C274.04 180.137 274.097 180.147 274.16 180.157L273.482 179.641ZM274.046 177.458C274.046 177.459 274.045 177.461 274.044 177.462C274.046 177.459 274.047 177.457 274.047 177.457C274.047 177.457 274.047 177.457 274.046 177.458ZM274.046 177.458C274.069 177.409 274.088 177.269 274.054 177.15L274.054 177.15C274.051 177.143 274.05 177.138 274.049 177.134M274.049 177.134C274.052 177.138 274.053 177.14 274.053 177.14C274.053 177.14 274.052 177.139 274.051 177.137C274.048 177.131 274.046 177.126 274.046 177.126C274.046 177.126 274.047 177.128 274.049 177.134ZM273.482 183.144C273.482 183.144 273.478 183.154 273.469 183.179C273.46 183.203 273.448 183.233 273.434 183.267C273.405 183.335 273.37 183.417 273.336 183.494L273.336 183.494C273.289 183.599 273.249 183.697 273.223 183.78C273.21 183.82 273.194 183.876 273.187 183.938C273.183 183.969 273.179 184.018 273.186 184.077C273.193 184.131 273.213 184.235 273.292 184.336L273.292 184.337C273.309 184.359 273.482 184.579 273.675 184.824C273.925 185.141 274.009 185.256 274.046 185.327C274.047 185.329 274.048 185.331 274.049 185.332C274.056 185.344 274.061 185.353 274.061 185.483L273.482 183.144ZM274.061 185.483L272.323 186.736C272.372 186.77 272.414 186.799 272.446 186.82C272.471 186.837 272.483 186.844 272.486 186.845C272.539 186.87 272.687 186.889 272.812 186.853M272.833 186.847C272.829 186.848 272.822 186.85 272.812 186.853M272.833 186.847C272.828 186.851 272.827 186.85 272.831 186.849C272.835 186.847 272.838 186.845 272.838 186.845C272.838 186.845 272.837 186.846 272.833 186.847ZM271.99 186.489C271.945 186.455 271.903 186.423 271.865 186.393C271.778 186.326 271.704 186.269 271.646 186.226C271.569 186.169 271.474 186.099 271.374 186.055C271.235 185.994 271.08 185.975 270.919 186.026C270.861 186.044 270.813 186.068 270.79 186.08C270.774 186.088 270.765 186.093 270.758 186.096C270.749 186.101 270.743 186.104 270.729 186.111L271.99 186.489ZM267.213 186.767C267.165 186.538 266.996 186.424 266.924 186.381C266.844 186.333 266.752 186.298 266.674 186.272M267.213 186.767L266.291 186.119M266.674 186.272C266.581 186.24 266.404 186.17 266.291 186.119M265.516 186.106L264.346 186.862M264.346 186.862C264.248 186.862 264.22 186.859 264.205 186.856C264.205 186.856 264.205 186.856 264.205 186.856C264.203 186.855 264.195 186.854 264.164 186.834C264.061 186.767 263.903 186.617 263.505 186.222L263.156 186.574L263.505 186.222C263.193 185.912 263.053 185.771 262.98 185.686C262.965 185.668 262.956 185.657 262.952 185.651C262.951 185.647 262.949 185.641 262.947 185.633M264.346 186.862L262.947 185.633M262.947 185.633C262.912 185.515 262.931 185.376 262.954 185.327L262.947 185.633ZM269.947 176.297L269.947 176.297C269.875 176.224 269.843 176.145 269.838 176.133C269.838 176.133 269.838 176.132 269.838 176.132C269.827 176.107 269.82 176.084 269.816 176.071C269.807 176.043 269.801 176.015 269.796 175.992C269.785 175.945 269.775 175.887 269.764 175.825C269.743 175.698 269.719 175.533 269.696 175.357C269.652 175.005 269.623 174.842 269.592 174.746C269.574 174.689 269.563 174.672 269.514 174.623C269.514 174.624 269.514 174.624 269.514 174.624C269.514 174.624 269.509 174.62 269.499 174.612C269.488 174.603 269.474 174.593 269.458 174.582C269.423 174.558 269.393 174.542 269.379 174.535L269.379 174.535L269.313 174.505L268.541 174.501C268.541 174.501 268.541 174.501 268.541 174.501C268.302 174.499 268.076 174.5 267.905 174.503C267.819 174.505 267.75 174.507 267.7 174.509C267.689 174.509 267.68 174.51 267.672 174.51C267.615 174.531 267.529 174.581 267.483 174.627L269.947 176.297ZM269.947 176.297C269.99 176.341 270.033 176.369 270.046 176.377L270.046 176.377C270.066 176.389 270.084 176.399 270.098 176.407C270.127 176.422 270.157 176.436 270.186 176.449C270.244 176.475 270.313 176.503 270.383 176.529C270.491 176.568 270.652 176.636 270.729 176.674L269.947 176.297ZM268.88 177.831L268.88 177.831C269.293 177.877 269.655 177.976 270.017 178.145L269.806 178.598L270.017 178.145C270.818 178.519 271.406 179.094 271.784 179.883C272.443 181.257 272.133 182.9 271.024 183.956L271.024 183.956C269.933 184.996 268.338 185.269 266.979 184.637L266.979 184.637C266.576 184.45 266.292 184.257 265.976 183.956L265.976 183.956C264.867 182.9 264.557 181.257 265.216 179.883C265.814 178.636 267.047 177.845 268.441 177.803L268.88 177.831ZM268.88 177.831C268.739 177.815 268.543 177.8 268.441 177.803L268.88 177.831ZM267.408 174.747C267.377 174.843 267.348 175.007 267.303 175.357L267.408 174.747ZM267.408 174.747C267.426 174.688 267.438 174.672 267.483 174.627L267.408 174.747ZM272.482 175.941L272.482 175.941L272.482 175.941ZM262.956 177.462L262.956 177.462L262.956 177.462ZM267.647 174.512C267.643 174.512 267.641 174.513 267.641 174.513C267.641 174.512 267.643 174.512 267.647 174.512Z" stroke="#111111"/>
<path d="M281 12.8187C281 5.73897 286.74 0 293.82 0H337.319L347.495 12.8187H409.196C412.954 12.8187 416 15.8648 416 19.6225V85.4583C416 92.9372 409.937 99 402.458 99L401.835 31.4243C401.804 28.1323 399.127 25.4797 395.835 25.4797H335.962L327.285 14.686C326.336 13.5054 324.902 12.8187 323.388 12.8187H281Z" fill="#FAFF00"/>
<path d="M263 30.7776C263 25.807 267.029 21.7776 272 21.7776H318.576L329.44 35.1053H386C390.418 35.1053 394 38.687 394 43.1053V113.736C394 118.154 390.418 121.736 386 121.736H272C267.029 121.736 263 117.706 263 112.736V30.7776Z" fill="#111111"/>
<path d="M30 80.5632V78.4203H16.2641L21.5155 73.467L19.9427 72L12 79.4918L19.9427 87L21.5155 85.5L16.2641 80.5632H30Z" fill="#111111"/>
</svg>
