<svg width="412" height="160" viewBox="0 0 412 160" fill="none" xmlns="http://www.w3.org/2000/svg">
<rect x="0.5" y="0.500488" width="411" height="159" rx="11.5" fill="white" fill-opacity="0.4" stroke="#111111"/>
<path fill-rule="evenodd" clip-rule="evenodd" d="M194.333 49.1558C193.095 49.5818 192.25 50.5044 191.99 51.7128C191.644 53.3231 192.63 55.0107 194.238 55.558C194.927 55.7926 195.94 55.7924 196.63 55.5574C197.139 55.3839 197.185 55.3869 197.415 55.6087C197.657 55.8421 197.654 55.869 197.056 58.7803C196.638 60.8153 196.482 61.8272 196.547 62.0771C196.606 62.3051 197.166 62.9504 198.069 63.8335C198.855 64.6012 199.498 65.2609 199.498 65.2995C199.498 65.3381 199.119 65.607 198.655 65.897C198.191 66.187 197.509 66.6612 197.138 66.9511L196.464 67.4779L193.378 64.5009L190.291 61.5239L190.653 60.8194C191.132 59.8865 191.247 58.5299 190.936 57.4857C190.388 55.6436 188.917 54.3911 186.871 54.0239C183.666 53.4487 180.624 56.4285 181.222 59.5581C181.581 61.441 182.895 62.8776 184.731 63.3958C185.949 63.7396 187.521 63.5722 188.569 62.9872L188.959 62.7693L192.04 65.7451L195.122 68.7206L194.603 69.3226C194.318 69.6538 193.827 70.3049 193.512 70.7697C193.197 71.2344 192.923 71.638 192.903 71.6668C192.882 71.6954 192.204 71.0886 191.396 70.3182C190.464 69.43 189.79 68.8844 189.553 68.827C189.294 68.7641 188.246 68.9149 186.137 69.3181C183.121 69.895 183.093 69.898 182.851 69.6646C182.621 69.4428 182.618 69.3988 182.798 68.9073C183.611 66.683 181.927 64.3827 179.486 64.3827C176.096 64.3827 174.715 68.53 177.458 70.4766C178.163 70.9767 179.263 71.2268 180.092 71.0752C180.45 71.0095 180.861 70.8952 181.004 70.8211C181.229 70.7051 181.331 70.7489 181.744 71.1373C182.446 71.7993 182.864 71.7993 186.238 71.1377L189.051 70.5863L190.517 72.0057L191.984 73.4253L191.615 74.4265C190.931 76.2801 190.698 77.6672 190.698 79.8832C190.698 82.0991 190.931 83.4862 191.615 85.3398L191.984 86.3411L190.517 87.7606L189.051 89.18L186.238 88.6286C182.864 87.967 182.446 87.967 181.744 88.629C181.331 89.0174 181.229 89.0612 181.004 88.9452C180.861 88.8711 180.475 88.7616 180.146 88.7018C177.914 88.2952 175.844 90.086 176.019 92.2722C176.164 94.0773 177.607 95.3674 179.495 95.3786C181.92 95.3931 183.61 93.0811 182.798 90.8591C182.618 90.3675 182.621 90.3235 182.851 90.1017C183.093 89.8683 183.121 89.8713 186.137 90.4482C188.246 90.8515 189.294 91.0022 189.553 90.9393C189.79 90.8819 190.464 90.3363 191.396 89.4481C192.204 88.6777 192.882 88.0709 192.903 88.0995C192.923 88.1283 193.197 88.5319 193.512 88.9967C193.827 89.4614 194.318 90.1125 194.603 90.4437L195.122 91.0457L192.04 94.0213L188.959 96.997L188.569 96.7791C186.646 95.7052 183.953 96.1325 182.437 97.7521C179.8 100.569 181.425 105.036 185.341 105.739C187.132 106.061 189.175 105.22 190.242 103.725C191.215 102.359 191.387 100.376 190.655 98.9515L190.291 98.2424L193.378 95.2654L196.464 92.2884L197.138 92.8153C197.509 93.1051 198.191 93.5794 198.655 93.8693C199.119 94.1594 199.498 94.4282 199.498 94.4668C199.498 94.5054 198.855 95.1651 198.069 95.9328C197.166 96.8159 196.606 97.4612 196.547 97.6892C196.482 97.9391 196.638 98.951 197.056 100.986C197.654 103.897 197.657 103.924 197.415 104.158C197.185 104.379 197.139 104.382 196.63 104.209C194.328 103.425 191.932 105.055 191.947 107.396C191.955 108.703 192.588 109.743 193.744 110.35C195.663 111.358 198.079 110.435 198.748 108.438C198.961 107.802 198.933 106.691 198.689 106.128L198.491 105.671L198.95 105.218C199.625 104.55 199.625 104.135 198.941 100.889L198.37 98.1759L199.875 96.7197L201.381 95.2634L202.597 95.6535C204.408 96.2347 205.903 96.4569 208.003 96.4569C210.102 96.4569 211.597 96.2347 213.409 95.6535L214.625 95.2634L216.13 96.7197L217.635 98.1759L217.064 100.889C216.379 104.145 216.379 104.548 217.065 105.226C217.467 105.624 217.513 105.723 217.392 105.94C216.981 106.681 217.008 108.006 217.453 108.911C218.019 110.063 219.473 110.853 220.84 110.751C222.71 110.611 224.047 109.218 224.058 107.396C224.073 105.055 221.678 103.425 219.375 104.209C218.866 104.382 218.82 104.379 218.591 104.158C218.349 103.924 218.352 103.897 218.95 100.986C219.368 98.951 219.524 97.9391 219.459 97.6892C219.399 97.4612 218.84 96.8159 217.936 95.9328C217.151 95.1651 216.508 94.5054 216.508 94.4668C216.508 94.4282 216.887 94.1594 217.351 93.8693C217.814 93.5794 218.497 93.1051 218.867 92.8153L219.541 92.2884L222.628 95.2654L225.714 98.2424L225.353 98.9469C224.873 99.8799 224.758 101.236 225.069 102.281C225.618 104.123 227.088 105.375 229.134 105.742C232.339 106.318 235.381 103.338 234.784 100.208C234.424 98.3254 233.111 96.8887 231.275 96.3705C230.057 96.0267 228.484 96.1941 227.437 96.7791L227.047 96.997L223.965 94.0213L220.884 91.0457L221.402 90.4437C221.687 90.1125 222.178 89.4614 222.493 88.9967C222.808 88.5319 223.082 88.1283 223.103 88.0995C223.123 88.0709 223.801 88.6777 224.61 89.4481C225.541 90.3363 226.216 90.8819 226.452 90.9393C226.711 91.0022 227.76 90.8515 229.868 90.4482C232.885 89.8713 232.913 89.8683 233.155 90.1017C233.384 90.3235 233.388 90.3675 233.208 90.8591C232.396 93.0811 234.085 95.3931 236.511 95.3786C237.867 95.3707 238.942 94.7599 239.574 93.6391C240.97 91.1637 238.727 88.1815 235.861 88.7009C235.533 88.7603 235.147 88.8699 235.003 88.9444C234.776 89.0615 234.675 89.0185 234.262 88.629C233.56 87.967 233.141 87.967 229.767 88.6286L226.955 89.18L225.488 87.7606L224.021 86.3411L224.391 85.3398C225.074 83.4862 225.307 82.0991 225.307 79.8832C225.307 77.6672 225.074 76.2801 224.391 74.4265L224.021 73.4253L225.488 72.0057L226.955 70.5863L229.767 71.1377C233.132 71.7974 233.561 71.7982 234.253 71.1458L234.723 70.7033L235.197 70.8944C235.78 71.1296 236.931 71.157 237.59 70.9513C240.555 70.0262 240.851 66.0364 238.054 64.7155C236.202 63.8411 233.86 64.7432 233.211 66.5805C232.965 67.28 232.963 68.2376 233.208 68.9073C233.388 69.3988 233.384 69.4428 233.155 69.6646C232.913 69.898 232.885 69.895 229.868 69.3181C227.76 68.9149 226.711 68.7641 226.452 68.827C226.216 68.8844 225.541 69.43 224.61 70.3182C223.801 71.0886 223.123 71.6954 223.103 71.6668C223.082 71.638 222.808 71.2344 222.493 70.7697C222.178 70.3049 221.687 69.6538 221.402 69.3226L220.884 68.7206L223.954 65.7556L227.025 62.7905L227.786 63.1429C229.296 63.8427 231.293 63.6797 232.706 62.7416C236.38 60.3017 235.097 54.8226 230.664 54.0272C228.805 53.6934 226.711 54.6025 225.657 56.2005C224.771 57.5445 224.646 59.443 225.353 60.8194L225.714 61.5239L222.64 64.4891L219.566 67.4543L218.601 66.7402C218.07 66.3474 217.382 65.8825 217.072 65.707C216.762 65.5315 216.508 65.3523 216.508 65.3087C216.508 65.265 217.151 64.6012 217.936 63.8335C218.84 62.9504 219.399 62.3051 219.459 62.0771C219.524 61.8272 219.368 60.8153 218.95 58.7803C218.352 55.869 218.349 55.8421 218.591 55.6087C218.82 55.3869 218.866 55.3839 219.375 55.5574C221.678 56.3414 224.073 54.7108 224.058 52.3699C224.047 50.5748 222.727 49.175 220.894 49.0146C219.148 48.8619 217.642 49.9182 217.193 51.6103C216.998 52.3442 217.081 53.2652 217.392 53.8268C217.513 54.0434 217.467 54.1423 217.065 54.54C216.379 55.2179 216.379 55.6216 217.064 58.8771L217.635 61.5904L216.123 63.0533L214.611 64.5161L213.777 64.2236C212.88 63.9092 211.31 63.5365 210.346 63.4093C209.796 63.3368 209.721 63.3595 209.364 63.7036C209.053 64.0035 208.994 64.1407 209.058 64.4053C209.186 64.924 209.53 65.1087 210.778 65.3281C219.764 66.9076 225.287 75.2818 222.937 83.7639C222.024 87.0634 219.679 90.1847 216.659 92.1246C212.357 94.8871 207.076 95.4432 202.312 93.6355C196.88 91.5746 193.21 86.8933 192.595 81.2411C192.078 76.4805 194.309 71.4018 198.229 68.4225C200.251 66.8854 202.408 65.8968 204.813 65.4057C206.179 65.127 206.502 64.9149 206.502 64.2984C206.502 63.844 206.102 63.4668 205.621 63.4668C205.021 63.4668 203.441 63.8126 202.37 64.1783L201.391 64.5127L199.881 63.0516L198.37 61.5904L198.941 58.8771C199.625 55.6311 199.625 55.2167 198.95 54.5486L198.491 54.0955L198.689 53.6381C198.932 53.0763 198.961 51.9653 198.749 51.3279C198.571 50.7911 198.111 50.1377 197.632 49.7393C196.838 49.0794 195.33 48.8127 194.333 49.1558ZM196.208 51.0285C196.752 51.3486 197.011 51.7668 197.019 52.3395C197.031 53.2346 196.34 53.9308 195.439 53.9308C193.956 53.9308 193.266 52.3544 194.284 51.2923C194.806 50.748 195.556 50.6451 196.208 51.0285ZM221.597 51.1707C222.769 52.2133 222.128 53.9308 220.567 53.9308C219.675 53.9308 218.975 53.2349 218.975 52.3492C218.975 51.0766 220.647 50.3253 221.597 51.1707ZM187.039 55.9124C188.798 56.4231 189.715 58.3159 188.992 59.9395C187.812 62.5854 183.805 62.2674 183.111 59.4727C182.857 58.4532 183.126 57.5308 183.909 56.727C184.77 55.8444 185.843 55.565 187.039 55.9124ZM231.219 56.0827C234.042 57.4863 233.284 61.4697 230.141 61.7447C227.728 61.9559 226.01 59.5422 227.087 57.4549C227.855 55.968 229.734 55.3442 231.219 56.0827ZM180.449 66.4508C181.381 67.04 181.315 68.5171 180.332 69.0775C179.203 69.7214 177.769 68.8465 177.902 67.5936C178.026 66.4155 179.411 65.7943 180.449 66.4508ZM237.055 66.2879C238.711 66.969 238.319 69.2586 236.542 69.2823C234.384 69.311 234.337 66.3246 236.492 66.1364C236.58 66.1287 236.833 66.1969 237.055 66.2879ZM205.668 67.5082C200.633 68.39 196.613 71.98 195.214 76.8443C194.989 77.6271 194.948 78.0984 194.948 79.8832C194.948 81.668 194.989 82.1392 195.214 82.922C196.213 86.3961 198.516 89.2379 201.646 90.8598C203.592 91.8677 205.175 92.2966 207.326 92.3986C209.868 92.5192 211.854 92.1044 214.14 90.9756C215.748 90.1818 216.383 89.6533 216.383 89.1079C216.383 88.6103 216.016 88.212 215.559 88.212C215.381 88.212 214.808 88.4824 214.287 88.8128C211.048 90.8649 206.798 91.1945 203.303 89.6649C200.364 88.3789 198.001 85.7279 197.092 82.6946C196.853 81.8988 196.809 81.4664 196.809 79.8832C196.809 78.2999 196.853 77.8676 197.092 77.0717C198.031 73.9412 200.44 71.3008 203.536 70.009C206.904 68.6036 211.113 68.9503 214.194 70.887C215.181 71.5071 217.087 73.3743 217.612 74.2346C218.865 76.2889 219.327 78.0454 219.222 80.3572C219.14 82.1678 218.948 82.8997 218.102 84.6263C217.566 85.7201 217.483 85.9811 217.582 86.2521C217.748 86.7104 218.27 86.9694 218.719 86.8173C219.404 86.5851 220.455 84.4185 220.912 82.2973C221.234 80.8051 221.173 78.2548 220.782 76.8443C219.438 71.9956 215.351 68.3656 210.269 67.5067C209.005 67.2929 206.893 67.2936 205.668 67.5082ZM207.343 71.404C207.233 71.5205 207.106 71.8937 207.059 72.2334L206.974 72.851L206.314 72.9168C205.193 73.0285 204.325 73.6475 203.824 74.6914C203.6 75.1585 203.563 75.4673 203.563 76.8654C203.563 78.4051 203.581 78.5293 203.902 79.1165C204.46 80.1376 205.159 80.5819 206.533 80.7891L207.002 80.8598V82.9667V85.0736H206.629C206.053 85.0736 205.523 84.5348 205.386 83.8099C205.199 82.8137 204.435 82.4703 203.791 83.0921C203.504 83.3689 203.476 83.4707 203.541 83.9973C203.638 84.7886 203.993 85.5285 204.513 86.0195C205.093 86.5682 205.535 86.7719 206.316 86.8497L206.977 86.9155L207.061 87.563C207.153 88.2734 207.433 88.5742 208.003 88.5742C208.576 88.5742 208.852 88.2741 208.946 87.5473C209.03 86.9025 209.043 86.8843 209.424 86.8835C210.221 86.8822 210.806 86.6273 211.461 85.9958C212.339 85.1506 212.55 84.4509 212.481 82.6154C212.438 81.4525 212.386 81.188 212.099 80.6533C211.543 79.6182 210.635 79.0382 209.57 79.0382H209.003V76.8654V74.6927H209.377C209.953 74.6927 210.483 75.2315 210.619 75.9564C210.807 76.9526 211.57 77.296 212.215 76.6742C212.501 76.3975 212.529 76.2956 212.465 75.7691C212.369 74.9864 212.015 74.2383 211.512 73.7524C210.956 73.2161 210.473 72.9947 209.69 72.9166L209.028 72.8508L208.944 72.2033C208.884 71.7374 208.785 71.5049 208.591 71.3741C208.229 71.1288 207.586 71.1441 207.343 71.404ZM207.002 76.875V79.0574L206.596 78.9756C205.582 78.7716 205.325 78.2465 205.394 76.5144C205.438 75.4276 205.45 75.3874 205.847 75.0448C206.105 74.8226 206.393 74.6927 206.629 74.6927H207.002V76.875ZM210.189 81.1371C210.567 81.5019 210.667 82.0203 210.611 83.3287C210.568 84.3283 210.551 84.3831 210.158 84.7214C209.9 84.9439 209.612 85.0736 209.377 85.0736H209.003V82.9612V80.8488H209.447C209.748 80.8488 209.986 80.9417 210.189 81.1371ZM180.376 90.7193C181.31 91.2362 181.359 92.7403 180.46 93.3084C179.75 93.7573 178.983 93.6721 178.331 93.0719C177.727 92.5163 177.718 91.6754 178.309 90.9985C178.831 90.3992 179.608 90.2943 180.376 90.7193ZM237.369 90.7075C238.168 91.1887 238.364 92.3636 237.753 93.0031C236.664 94.1435 234.893 93.5144 234.893 91.9868C234.893 90.7848 236.296 90.0602 237.369 90.7075ZM187.429 98.2732C190.09 99.469 189.704 103.247 186.854 103.907C184.914 104.356 183.066 102.943 183.055 101.004C183.043 98.7838 185.355 97.3409 187.429 98.2732ZM231.45 98.4032C232.823 99.1797 233.382 100.924 232.687 102.257C231.984 103.605 230.453 104.271 229.003 103.862C227.203 103.353 226.262 101.423 227.024 99.8001C227.364 99.0745 227.822 98.6232 228.577 98.2695C229.428 97.8708 230.605 97.9256 231.45 98.4032ZM196.241 106.033C196.969 106.448 197.256 107.547 196.81 108.205C196.531 108.616 195.885 108.973 195.42 108.973C194.909 108.974 194.237 108.529 193.959 108.006C193.593 107.316 193.895 106.39 194.607 106.016C195.048 105.785 195.819 105.793 196.241 106.033ZM221.373 106.01C222.752 106.699 222.299 108.781 220.737 108.934C219.434 109.062 218.527 107.686 219.195 106.595C219.63 105.884 220.599 105.624 221.373 106.01Z" fill="#111111"/>
</svg>
