<svg width="410" height="160" viewBox="0 0 410 160" fill="none" xmlns="http://www.w3.org/2000/svg">
<rect x="0.5" y="0.500488" width="409" height="159" rx="11.5" fill="white" fill-opacity="0.4" stroke="#111111"/>
<path fill-rule="evenodd" clip-rule="evenodd" d="M204.815 57.8829C204.455 57.9046 203.516 58.0028 202.729 58.101C197.675 58.732 194.268 60.1501 193.362 62.0006C193.099 62.5365 193.097 62.5923 193.175 65.7718L193.254 68.9989L192.627 68.9065C191.448 68.7324 188.619 68.807 187.59 69.0393C183.299 70.0075 179.939 72.4405 177.821 76.1119C175.521 80.1005 175.389 85.382 177.486 89.4878C178.529 91.5298 180.302 93.591 182.086 94.8355C187.07 98.3112 193.702 98.3668 198.725 94.975L199.728 94.2979L200.652 94.4819C201.902 94.7308 204.206 94.995 205.971 95.0919L207.424 95.1716L207.736 95.8007C208.582 97.5101 211.402 98.8026 215.789 99.4916C222.443 100.537 230.084 99.8562 234.319 97.8411C235.384 97.3342 236.649 96.1299 236.858 95.423C236.963 95.069 237.001 93.0347 237 87.8838L236.999 80.8295L236.72 80.2381C235.991 78.6901 233.604 77.4486 229.928 76.7054C228.598 76.4366 226.304 76.1602 223.978 75.9888L223.054 75.9206V69.4851C223.054 63.7745 223.032 62.9894 222.856 62.5155C222.451 61.427 221.737 60.717 220.311 59.9864C218.372 58.9934 214.916 58.1983 211.324 57.919C209.906 57.8088 206.365 57.7891 204.815 57.8829ZM209.872 60.2734C212.271 60.3993 213.368 60.5244 215.186 60.8798C218.102 61.4496 220.645 62.6157 220.392 63.2665C220.18 63.8141 218.384 64.641 216.291 65.1548C211.871 66.2398 205.32 66.3368 200.586 65.3872C198.369 64.9424 196.1 64.0085 195.665 63.3613C195.497 63.1118 195.505 63.0695 195.769 62.7905C196.213 62.3204 196.901 61.9702 198.259 61.5232C200.381 60.8248 202.679 60.4415 205.709 60.2806C206.627 60.2318 207.459 60.185 207.557 60.1765C207.655 60.1681 208.697 60.2116 209.872 60.2734ZM220.405 69.8966C220.068 70.5682 217.847 71.5289 215.548 71.9972C212.502 72.618 208.889 72.8607 205.679 72.6603C201.647 72.4084 199.937 72.0653 198.771 71.2739C198.325 70.9714 197.478 70.4915 196.888 70.2073C195.831 69.6981 195.814 69.6832 195.734 69.1933C195.69 68.9198 195.65 68.1561 195.645 67.496L195.636 66.2959L196.391 66.6342C200.465 68.4596 209.458 68.9791 215.645 67.7465C217.196 67.4374 219.371 66.7793 220.074 66.4067L220.491 66.1854L220.524 67.8893C220.547 69.0929 220.512 69.6822 220.405 69.8966ZM192.954 71.4267C196.547 72.1102 199.674 74.5046 201.388 77.8845C203.238 81.5306 203.011 85.9613 200.796 89.4765C200.128 90.537 198.609 92.1388 197.59 92.8582C195.229 94.5247 192.082 95.3476 189.294 95.0273C186.456 94.7013 184.166 93.6515 182.148 91.751C180.036 89.7631 178.736 87.091 178.483 84.2162C177.774 76.1853 184.893 69.8934 192.954 71.4267ZM220.551 74.4501V76.0223L219.031 76.0993C216.049 76.2506 212.694 76.9017 210.727 77.7108C209.789 78.0965 208.568 78.822 208.287 79.1599C208.151 79.3246 207.884 79.357 206.663 79.357C205.005 79.357 204.457 79.2804 204.457 79.0486C204.457 78.7117 203.57 76.7152 203.012 75.7988C202.693 75.2731 202.431 74.8353 202.431 74.8262C202.431 74.8168 202.739 74.8511 203.116 74.9023C204.488 75.0884 209.745 75.1536 211.508 75.0065C215.257 74.6937 217.739 74.111 220.521 72.891C220.537 72.8839 220.551 73.5855 220.551 74.4501ZM190.178 73.3731C189.713 73.4952 189.319 74.0595 189.319 74.6045C189.318 74.9449 189.255 75.0053 188.573 75.3223C187.619 75.7656 186.875 76.5052 186.409 77.4722C186.073 78.1699 186.04 78.3425 186.04 79.4159C186.04 80.4417 186.08 80.6776 186.351 81.2418C186.779 82.1339 187.502 82.8984 188.328 83.3332C188.946 83.6589 189.51 83.8007 191.084 84.0259C191.592 84.0985 192.363 84.7861 192.544 85.3274C193.004 86.7039 191.959 88.1803 190.518 88.1894C189.511 88.1957 188.531 87.3158 188.397 86.2862C188.268 85.2864 187.905 84.8936 187.111 84.8936C186.787 84.8936 186.586 84.9838 186.316 85.251C185.972 85.5905 185.956 85.648 186 86.3995C186.091 87.9547 187.169 89.5045 188.617 90.161L189.293 90.4678L189.342 91.2302C189.386 91.9106 189.432 92.0291 189.774 92.3305C190.713 93.1596 191.821 92.4243 191.821 90.9726C191.821 90.4514 191.826 90.4453 192.468 90.1549C194.288 89.3317 195.417 87.2199 195.045 85.3353C194.757 83.8761 193.844 82.6621 192.545 82.0116C192.171 81.8242 191.502 81.6421 190.81 81.5395C189.56 81.354 189.4 81.2916 188.938 80.8102C187.49 79.2994 189.028 76.8014 191.072 77.3452C191.336 77.4155 191.695 77.5839 191.869 77.7193C192.253 78.0179 192.656 78.7653 192.656 79.1793C192.656 79.635 192.96 80.2626 193.256 80.4195C193.632 80.6181 194.246 80.5912 194.603 80.3604C195.051 80.0703 195.2 79.5122 195.048 78.6982C194.765 77.1824 193.821 75.9264 192.504 75.3107C191.941 75.0475 191.821 74.9397 191.821 74.6967C191.821 74.3426 191.542 73.6461 191.353 73.5309C191.046 73.3435 190.546 73.2763 190.178 73.3731ZM225.021 78.5333C229.221 78.8364 232.836 79.7533 234.123 80.8424C234.715 81.343 234.673 81.5019 233.801 82.0546C230.377 84.2259 220.447 84.9103 214.031 83.4174C211.923 82.9269 210.028 82.0786 209.704 81.4801C209.588 81.2663 209.621 81.1833 209.941 80.8885C211.173 79.751 214.664 78.8569 219.299 78.4917C220.388 78.406 223.577 78.4291 225.021 78.5333ZM207.133 81.8476C207.154 81.8707 207.211 82.8353 207.258 83.991L207.345 86.0923L206.11 86.0083C205.431 85.962 204.859 85.911 204.84 85.8948C204.821 85.8786 204.861 85.5275 204.928 85.1145C204.996 84.7014 205.052 83.7596 205.053 83.0216L205.054 81.6798L206.074 81.7427C206.635 81.7773 207.112 81.8245 207.133 81.8476ZM234.617 85.9951C234.617 86.8601 234.559 87.7327 234.488 87.9342C234.043 89.194 229.933 90.4131 224.842 90.795C218.937 91.2381 211.822 90.1124 210.03 88.4517L209.703 88.1479V86.344C209.703 85.1739 209.746 84.5402 209.827 84.5402C209.895 84.5402 210.15 84.6401 210.393 84.7622C210.983 85.0583 212.599 85.5557 213.863 85.8304C220.108 87.1875 228.833 86.7494 233.476 84.8458C234.005 84.6289 234.478 84.4449 234.528 84.4369C234.577 84.4289 234.617 85.1301 234.617 85.9951ZM207.274 88.4734C207.282 88.4806 207.309 89.4407 207.333 90.6069L207.378 92.7273L206.246 92.6898C205.176 92.6545 201.939 92.3397 201.862 92.2635C201.843 92.2441 202.123 91.8021 202.487 91.2813C202.849 90.7606 203.368 89.8791 203.638 89.3224L204.129 88.3104L205.694 88.3853C206.555 88.4265 207.266 88.4662 207.274 88.4734ZM234.405 94.8956C233.653 95.8904 230.156 96.965 226.272 97.3946C224.328 97.6097 219.564 97.5799 217.603 97.3406C213.861 96.8837 210.944 95.9702 210.114 94.9958C209.834 94.6666 209.822 94.5848 209.822 92.9538C209.822 92.0193 209.863 91.2548 209.914 91.2548C209.964 91.2548 210.386 91.413 210.852 91.6063C213.202 92.5819 216.668 93.1389 220.94 93.2271C226.228 93.3363 230.513 92.7444 233.485 91.4944L234.557 91.043L234.59 92.8246C234.62 94.4003 234.598 94.6396 234.405 94.8956Z" fill="#111111"/>
</svg>
