<svg width="48" height="48" viewBox="0 0 48 48" fill="none" xmlns="http://www.w3.org/2000/svg">
<circle cx="24" cy="24.0005" r="23.5" stroke="#111111"/>
<path d="M15.4678 19.9999C16.0545 19.9999 16.5345 20.5142 16.5345 21.1428V22.857H18.1345C18.7212 22.857 19.2012 23.3713 19.2012 23.9999C19.2012 24.6285 18.7212 25.1428 18.1345 25.1428H16.5345V26.857C16.5345 27.4856 16.0545 27.9999 15.4678 27.9999C14.8812 27.9999 14.4012 27.4856 14.4012 26.857V25.1428H12.8012C12.2145 25.1428 11.7345 24.6285 11.7345 23.9999C11.7345 23.3713 12.2145 22.857 12.8012 22.857H14.4012V21.1428C14.4012 20.5142 14.8812 19.9999 15.4678 19.9999ZM15.4678 19.4285C14.5857 19.4285 13.8678 20.1976 13.8678 21.1428V22.2856H12.8012C11.919 22.2856 11.2012 23.0548 11.2012 23.9999C11.2012 24.945 11.919 25.7142 12.8012 25.7142H13.8678V26.857C13.8678 27.8022 14.5857 28.5713 15.4678 28.5713C16.35 28.5713 17.0678 27.8022 17.0678 26.857V25.7142H18.1345C19.0166 25.7142 19.7345 24.945 19.7345 23.9999C19.7345 23.0548 19.0166 22.2856 18.1345 22.2856H17.0678V21.1428C17.0678 20.1976 16.35 19.4285 15.4678 19.4285Z" fill="#2E00FF"/>
<path d="M32.5316 25.1428C31.6479 25.1428 30.9316 25.9097 30.9316 26.8571C30.9316 27.8045 31.6479 28.5714 32.5316 28.5714C33.4154 28.5714 34.1316 27.8045 34.1316 26.8571C34.1316 25.9097 33.4154 25.1428 32.5316 25.1428ZM32.5316 28C31.9428 28 31.465 27.488 31.465 26.8571C31.465 26.2263 31.9428 25.7143 32.5316 25.7143C33.1204 25.7143 33.5983 26.2263 33.5983 26.8571C33.5983 27.488 33.1204 28 32.5316 28Z" fill="#2E00FF"/>
<path d="M32.5316 19.4285C31.6479 19.4285 30.9316 20.1953 30.9316 21.1428C30.9316 22.0902 31.6479 22.857 32.5316 22.857C33.4154 22.857 34.1316 22.0902 34.1316 21.1428C34.1316 20.1953 33.4154 19.4285 32.5316 19.4285ZM32.5316 22.2856C31.9428 22.2856 31.465 21.7736 31.465 21.1428C31.465 20.5119 31.9428 19.9999 32.5316 19.9999C33.1204 19.9999 33.5983 20.5119 33.5983 21.1428C33.5983 21.7736 33.1204 22.2856 32.5316 22.2856Z" fill="#2E00FF"/>
<path d="M29.8656 22.2859C28.9819 22.2859 28.2656 23.0527 28.2656 24.0002C28.2656 24.9476 28.9819 25.7145 29.8656 25.7145C30.7494 25.7145 31.4656 24.9476 31.4656 24.0002C31.4656 23.0527 30.7494 22.2859 29.8656 22.2859ZM29.8656 25.143C29.2768 25.143 28.799 24.631 28.799 24.0002C28.799 23.3693 29.2768 22.8573 29.8656 22.8573C30.4544 22.8573 30.9323 23.3693 30.9323 24.0002C30.9323 24.631 30.4544 25.143 29.8656 25.143Z" fill="#2E00FF"/>
<path d="M35.1996 22.2859C34.3159 22.2859 33.5996 23.0527 33.5996 24.0002C33.5996 24.9476 34.3159 25.7145 35.1996 25.7145C36.0833 25.7145 36.7996 24.9476 36.7996 24.0002C36.7996 23.0527 36.0833 22.2859 35.1996 22.2859ZM35.1996 25.143C34.6108 25.143 34.1329 24.631 34.1329 24.0002C34.1329 23.3693 34.6108 22.8573 35.1996 22.8573C35.7884 22.8573 36.2663 23.3693 36.2663 24.0002C36.2663 24.631 35.7884 25.143 35.1996 25.143Z" fill="#2E00FF"/>
<path d="M32.5333 32C30.3147 32 28.248 30.9623 26.8219 29.1429H21.1781C19.752 30.9623 17.6853 32 15.4667 32C11.3493 32 8 28.4114 8 24C8 19.5886 11.3493 16 15.4667 16H32.5333C36.6507 16 40 19.5886 40 24C40 28.4114 36.6507 32 32.5333 32ZM20.664 28H27.336L27.496 28.2189C28.7216 29.8954 30.5573 30.8571 32.5333 30.8571C36.0624 30.8571 38.9333 27.7811 38.9333 24C38.9333 20.2189 36.0624 17.1429 32.5333 17.1429H15.4667C11.9376 17.1429 9.06667 20.2189 9.06667 24C9.06667 27.7811 11.9376 30.8571 15.4667 30.8571C17.4427 30.8571 19.2784 29.8954 20.504 28.2189L20.664 28Z" fill="#2E00FF"/>
<path d="M20.7988 21.7141V23.4284H23.4655V21.7141H20.7988ZM22.9322 22.857H21.3322V22.2855H22.9322V22.857Z" fill="#2E00FF"/>
<path d="M24.5332 21.7141V23.4284H27.1999V21.7141H24.5332ZM26.6665 22.857H25.0665V22.2855H26.6665V22.857Z" fill="#2E00FF"/>
</svg>
