<svg width="247" height="160" viewBox="0 0 247 160" fill="none" xmlns="http://www.w3.org/2000/svg">
<rect x="0.5" y="0.5" width="246" height="159" rx="11.5" fill="white" fill-opacity="0.4" stroke="#111111"/>
<path fill-rule="evenodd" clip-rule="evenodd" d="M103.989 47.0681C103.989 47.1361 107.63 50.741 112.431 55.4262C113.829 56.7902 116.881 59.7821 119.214 62.0749L123.456 66.2437L132.252 57.5788C142.425 47.5579 142.788 47.1981 142.826 47.0849C142.845 47.0286 136.308 47 123.422 47C112.733 47 103.989 47.0306 103.989 47.0681ZM101.189 49.5991C99.9571 50.799 97.1854 53.4977 95.0296 55.5961C92.8738 57.6945 89.5103 60.9733 87.555 62.8823L84 66.3532L87.9427 70.1902C90.1111 72.3006 92.0791 74.2093 92.316 74.432C92.5529 74.6547 94.5226 76.5647 96.6931 78.6766C98.8636 80.7885 101.267 83.1186 102.034 83.8547L103.429 85.1932L103.451 75.7519C103.463 70.5593 103.463 62.0597 103.451 56.8641L103.429 47.4176L101.189 49.5991ZM143.615 66.4372V85.4858L143.938 85.1739C144.116 85.0023 146.025 83.1379 148.179 81.0308C150.334 78.9235 152.098 77.1993 152.099 77.1989C152.192 77.168 163.001 66.4931 163 66.4335C162.999 66.3842 162.058 65.4273 160.909 64.3072C159.76 63.1872 155.615 59.1315 151.699 55.2947C147.782 51.4578 144.361 48.1093 144.096 47.8536L143.615 47.3886V66.4372ZM113.656 75.9584C108.337 81.2029 103.986 85.5224 103.987 85.5575C103.989 85.6376 142.84 85.6428 142.84 85.5628C142.84 85.4826 123.444 66.3923 123.379 66.4094C123.351 66.417 118.976 70.714 113.656 75.9584ZM114.972 93.673C113.13 94.0509 111.803 94.9867 111.062 96.4279C110.206 98.0961 110.492 100.205 111.762 101.577C112.345 102.207 113.569 103.03 116.738 104.922C117.141 105.163 117.546 105.407 117.638 105.465C117.73 105.523 118.076 105.737 118.406 105.94C119.619 106.688 120.198 107.399 120.443 108.446C120.539 108.856 120.539 109.016 120.446 109.382C120.101 110.732 119.268 111.483 117.772 111.792C116.268 112.103 114.375 111.66 113.305 110.746C112.804 110.318 112.235 109.515 111.955 108.842C111.829 108.54 111.697 108.235 111.661 108.165C111.625 108.094 111.522 107.719 111.434 107.331C111.273 106.627 111.272 106.625 111.012 106.651L110.751 106.676L110.729 109.8L110.706 112.925L110.917 112.977C111.181 113.042 111.311 112.968 111.311 112.752C111.311 112.558 111.471 112.256 111.656 112.1C111.825 111.957 112.667 112.007 113.292 112.197C115.026 112.723 116.098 112.933 117.088 112.938C118.712 112.947 120.08 112.458 121.272 111.441C121.673 111.1 122.424 110.153 122.424 109.99C122.424 109.959 122.479 109.814 122.546 109.666C122.706 109.317 122.941 108.255 122.941 107.881C122.941 106.992 122.453 105.647 121.842 104.852C121.374 104.243 120.072 103.251 119.101 102.763C118.915 102.669 118.743 102.571 118.72 102.544C118.696 102.516 118.308 102.312 117.858 102.09C117.408 101.868 116.652 101.457 116.178 101.177C115.704 100.898 115.239 100.623 115.144 100.567C115.05 100.512 114.953 100.444 114.929 100.418C114.905 100.391 114.693 100.24 114.456 100.081C113.78 99.6259 113.301 99.1003 113.016 98.4992C112.78 97.9999 112.758 97.8835 112.795 97.3337C112.856 96.4247 113.286 95.7535 114.136 95.237C115.69 94.2928 118.1 94.7321 119.549 96.2233C120.007 96.695 120.236 97.0577 120.698 98.0414C120.759 98.1722 120.989 99.0922 121.111 99.7003C121.169 99.9866 121.217 100.045 121.414 100.067L121.648 100.094V96.8561V93.6178H121.397C121.185 93.6178 121.136 93.66 121.086 93.8833C121.054 94.0292 120.921 94.2589 120.79 94.3937C120.456 94.7392 120.072 94.7179 119.025 94.2958C118.215 93.9691 117.909 93.8732 117.126 93.701C116.782 93.6253 115.298 93.606 114.972 93.673ZM152.359 93.6662C152.264 93.6875 151.974 93.7471 151.713 93.7986C150.999 93.9398 150.18 94.2068 149.603 94.486C149.076 94.7409 148.517 95.0581 148.44 95.1465C148.416 95.1735 148.297 95.2579 148.176 95.334C147.545 95.7297 146.46 96.8403 145.905 97.6586C145.203 98.6952 144.391 100.617 144.391 101.243C144.391 101.382 144.353 101.532 144.308 101.577C144.182 101.701 144.108 104.113 144.206 104.889C144.36 106.106 144.762 107.47 145.192 108.235C145.477 108.744 145.877 109.393 145.934 109.441C145.962 109.464 146.138 109.671 146.325 109.902C148.007 111.967 150.255 112.959 153.221 112.945C154.019 112.941 154.243 112.921 154.944 112.793C155.594 112.675 157.054 112.166 157.054 112.058C157.054 112.022 157.105 111.993 157.168 111.993C157.231 111.993 157.562 111.802 157.905 111.569C158.697 111.03 159.699 110.045 160.122 109.388C160.209 109.253 160.301 109.124 160.326 109.1C160.421 109.012 160.844 108.336 160.844 108.272C160.844 108.16 160.481 107.973 160.424 108.055C160.162 108.433 159.285 109.42 158.807 109.873C157.207 111.393 156.446 111.697 154.254 111.692C152.862 111.69 152.051 111.565 151.433 111.259C150.779 110.936 150.603 110.838 150.206 110.578C149.969 110.423 149.628 110.157 149.448 109.987C149.059 109.619 148.355 108.678 148.213 108.335C148.184 108.265 148.089 108.054 148.002 107.867C147.914 107.68 147.779 107.259 147.701 106.931C147.622 106.604 147.514 106.183 147.461 105.995C147.327 105.53 147.328 101.434 147.463 100.976C147.517 100.789 147.626 100.35 147.703 99.9995C148.012 98.6019 148.809 97.0118 149.603 96.2067C150.257 95.543 150.784 95.2139 151.662 94.9195C152.311 94.702 152.458 94.6858 153.781 94.6854C155.347 94.6849 155.699 94.7594 156.753 95.3139C157.299 95.6013 158.626 96.8655 158.863 97.324C158.934 97.4613 159.012 97.5927 159.037 97.6161C159.132 97.7071 159.622 98.7934 159.815 99.3427C160 99.8697 160.037 99.9187 160.237 99.8957L160.457 99.8704L160.428 99.0197C160.412 98.5518 160.364 98.0159 160.322 97.8288C160.28 97.6416 160.243 97.1822 160.241 96.8079C160.236 96.1229 160.12 94.6502 160.018 93.9794C159.972 93.6741 159.933 93.6178 159.765 93.6178C159.612 93.6178 159.541 93.6905 159.461 93.9321C159.348 94.268 159.282 94.3685 158.958 94.6892C158.654 94.9908 158.284 94.9526 157.369 94.5251C155.873 93.8258 155.307 93.6903 153.738 93.6547C153.074 93.6396 152.454 93.6448 152.359 93.6662ZM89.1071 94.0991C89.0479 94.1229 88.9994 94.2106 88.9994 94.2938C88.9994 94.4181 89.0961 94.4533 89.5378 94.4901C90.1904 94.5446 90.974 94.8252 91.2589 95.1067C91.3744 95.2206 91.514 95.4631 91.5693 95.6455C91.6426 95.8869 91.6699 97.9327 91.6699 103.173C91.6699 110.578 91.6581 110.868 91.3322 111.47C91.1616 111.785 90.7292 111.93 89.8393 111.973L88.9994 112.013V112.249C88.9994 112.379 89.0478 112.501 89.1071 112.521C89.1956 112.551 96.7236 112.543 96.952 112.512C96.9907 112.507 97.0101 112.398 96.9951 112.269C96.9683 112.039 96.9551 112.034 96.2356 111.982C95.3003 111.914 94.8475 111.689 94.5471 111.142C94.395 110.865 94.3816 110.59 94.3569 107.25L94.3303 103.656H98.6485H102.967L102.938 107.25L102.91 110.844L102.696 111.223C102.384 111.772 102.037 111.94 101.103 111.992L100.328 112.035V112.29V112.544L104.23 112.547C106.377 112.549 108.173 112.525 108.222 112.496C108.271 112.466 108.298 112.35 108.282 112.238C108.254 112.044 108.218 112.034 107.421 111.993C106.65 111.953 106.565 111.931 106.258 111.686C105.606 111.166 105.635 111.559 105.63 103.417C105.626 96.886 105.64 96.1162 105.768 95.7289C105.979 95.0928 106.344 94.7766 107.073 94.6002C107.405 94.5199 107.767 94.4616 107.878 94.4708C108.25 94.5013 108.309 94.473 108.28 94.2771L108.253 94.0857H104.29H100.328L100.3 94.2771C100.275 94.4473 100.309 94.4685 100.605 94.4685C101.415 94.4685 102.414 94.8916 102.745 95.3743C102.902 95.6028 102.913 95.8222 102.938 99.1261L102.964 102.635H98.6475H94.3313L94.3587 99.2537C94.3836 96.1821 94.4007 95.8412 94.5449 95.5339C94.8385 94.9082 95.439 94.574 96.415 94.4932C96.9669 94.4475 97.0173 94.4276 96.9937 94.2645C96.9679 94.0861 96.9586 94.0857 93.0913 94.0707C90.9592 94.0625 89.1664 94.0753 89.1071 94.0991ZM124.981 94.0984C124.948 94.1304 124.922 94.2268 124.922 94.3126C124.922 94.4331 124.988 94.4685 125.213 94.4685C125.373 94.4685 125.778 94.5296 126.113 94.6043C126.585 94.7096 126.79 94.8061 127.028 95.0337C127.2 95.1988 127.334 95.4113 127.334 95.519C127.334 95.6244 127.383 95.7583 127.442 95.8169C127.606 95.9786 127.598 110.417 127.434 110.768C127.092 111.499 127.015 111.599 126.646 111.791C126.335 111.954 126.128 111.993 125.585 111.993H124.911L124.938 112.269L124.965 112.546L129.445 112.546C135.589 112.546 137.028 112.469 138.059 112.083C138.47 111.929 139.409 111.448 139.587 111.299C140.449 110.582 140.976 109.881 141.336 108.973C141.577 108.366 141.577 106.612 141.336 105.995C140.944 104.99 140.253 104.267 139.203 103.763C138.398 103.377 138.066 103.25 137.764 103.213C137.451 103.176 137.454 103.006 137.769 102.943C138.737 102.752 140.428 101.218 140.428 100.532C140.428 100.444 140.477 100.324 140.536 100.266C140.612 100.191 140.643 99.8011 140.643 98.9346C140.643 98.068 140.612 97.6785 140.536 97.6033C140.477 97.5448 140.428 97.4376 140.428 97.3651C140.428 97.2926 140.339 97.061 140.231 96.8505C139.744 95.9039 138.879 95.2253 137.536 94.7362C136.546 94.3759 135.714 94.217 134.398 94.1367C132.972 94.0497 125.063 94.0176 124.981 94.0984ZM134.036 95.0271C136.042 95.3691 137.485 96.5292 137.812 98.0628C138.172 99.746 137.484 101.292 136.085 101.943C135.175 102.366 134.86 102.438 133.189 102.597C132.678 102.646 130.932 102.526 130.457 102.409L130.263 102.361V98.8063V95.2511L130.672 95.1544C131.634 94.9273 133.12 94.871 134.036 95.0271ZM134.176 103.613C134.599 103.682 135.155 103.798 135.411 103.872C137.572 104.492 138.783 106.406 138.356 108.522C137.954 110.51 136.012 111.615 133.022 111.558C132.104 111.54 130.512 111.369 130.351 111.271C130.293 111.236 130.263 109.911 130.263 107.44V103.664L130.586 103.612C130.764 103.583 130.967 103.547 131.038 103.533C131.423 103.452 133.513 103.506 134.176 103.613Z" fill="#111111"/>
<path d="M219 16C212.383 16 207 21.3835 207 28C207 34.6165 212.383 40 219 40C225.617 40 231 34.6165 231 28C231 21.3835 225.617 16 219 16ZM225.707 24.8421L218.038 32.4511C217.586 32.9023 216.865 32.9323 216.383 32.4812L212.323 28.782C211.842 28.3308 211.812 27.5789 212.233 27.0977C212.684 26.6165 213.436 26.5865 213.917 27.0376L217.135 29.985L223.992 23.1278C224.474 22.6466 225.226 22.6466 225.707 23.1278C226.188 23.609 226.188 24.3609 225.707 24.8421Z" fill="#111111"/>
</svg>
