<svg width="248" height="160" viewBox="0 0 248 160" fill="none" xmlns="http://www.w3.org/2000/svg">
<rect x="0.500977" y="0.500488" width="247" height="159" rx="11.5" fill="white" fill-opacity="0.4" stroke="#111111"/>
<path fill-rule="evenodd" clip-rule="evenodd" d="M92.4578 64.1225C87.5109 64.8039 82.687 67.4475 79.53 71.2075L78.5634 72.3587L80.8904 72.4085L83.2175 72.4584L84.0467 71.6795C87.2443 68.6758 92.538 66.9231 96.7241 67.4821C100.538 67.9913 103.808 69.4329 106.279 71.6946L107.101 72.4473H109.388H111.675L111.465 72.0488C111.35 71.8295 110.343 70.7736 109.228 69.7021C106.364 66.949 103.804 65.5387 99.858 64.5394C97.9214 64.049 94.4221 63.8519 92.4578 64.1225ZM115.794 69.027L114.749 69.6293V82.5587V95.4881L115.884 95.4355L117.019 95.3827L117 94.1872C116.989 93.5298 117.034 92.9918 117.1 92.9918C117.165 92.9918 117.541 93.3148 117.936 93.7096C118.938 94.711 120.094 95.3859 121.421 95.7431C124.139 96.4748 127.079 95.2168 128.61 92.6662C129.768 90.7372 130.168 89.1829 130.306 86.0846C130.484 82.0975 129.702 79.2868 127.889 77.3973C126.497 75.9459 124.499 75.3258 122.302 75.6639C120.862 75.8857 119.505 76.5622 118.213 77.7024C117.625 78.2214 117.102 78.6461 117.051 78.6461C117.001 78.6461 116.949 76.3584 116.937 73.5622C116.925 70.7662 116.898 68.4664 116.876 68.4516C116.855 68.4369 116.368 68.6958 115.794 69.027ZM174.133 69.0635L173.316 69.5484L173.27 82.5098L173.223 95.4713H174.314H175.405V92.7157V89.9602L177.332 87.3043C178.392 85.8437 179.288 84.6766 179.323 84.7108C179.395 84.7814 183.355 92.8993 184.074 94.4529L184.546 95.4713H185.774H187.001L185.359 92.1505C184.456 90.3242 183.073 87.5243 182.285 85.9289C181.497 84.3335 180.853 82.9351 180.853 82.8215C180.853 82.6182 182.149 80.8066 184.536 77.672L185.751 76.078L184.729 76.0242C184.168 75.9946 183.607 76.008 183.484 76.0541C183.291 76.1263 182.086 77.7687 178.335 83.0737C177.887 83.7069 177.259 84.5894 176.938 85.0349C176.618 85.4803 176.221 86.098 176.057 86.4074C175.893 86.7168 175.679 86.9701 175.581 86.9701C175.469 86.9701 175.405 83.6203 175.405 77.7605C175.405 70.5035 175.356 68.5539 175.178 68.5649C175.053 68.5725 174.583 68.7969 174.133 69.0635ZM94.4554 70.7945L92.594 71.7626V73.7811V75.7996L90.8233 75.8502L89.0527 75.9009V77.5834V79.2659L90.7779 79.3545L92.5032 79.443L92.594 85.9075C92.6962 93.1868 92.6884 93.142 94.1007 94.5493C95.4253 95.8691 97.9169 96.1889 99.9705 95.303C100.649 95.0106 100.759 94.8744 101.007 94.028C101.518 92.2794 101.698 91.5397 101.631 91.474C101.594 91.4382 101.078 91.6038 100.484 91.8418C99.8619 92.0914 99.0325 92.2768 98.5274 92.2791C97.7967 92.2826 97.5622 92.1969 97.1177 91.7632L96.5843 91.2432L96.6321 85.343L96.68 79.443L98.496 79.4128C99.4948 79.3961 100.414 79.3761 100.539 79.3685C100.704 79.3582 100.766 78.8747 100.766 77.5834V75.8123H98.6776H96.5892V72.8015C96.5892 71.1455 96.5278 69.7988 96.453 69.8087C96.3782 69.8185 95.4791 70.2623 94.4554 70.7945ZM69.6988 75.637C64.4196 76.4439 60.9995 80.4127 61.001 85.7304C61.0017 88.1241 61.6785 90.245 62.9817 91.9366C64.6477 94.0989 66.8981 95.3121 70.198 95.8269C71.8343 96.0821 73.9906 95.7327 75.6141 94.9492C76.7635 94.3946 78.6124 92.9312 78.608 92.5795C78.6053 92.3498 76.7003 90.103 76.4317 90.0125C76.3386 89.9811 76.0758 90.1292 75.8475 90.3415C73.201 92.803 68.8437 92.6163 66.5262 89.9422C64.9423 88.1146 64.617 84.8183 65.7989 82.5683C66.3221 81.5721 67.5308 80.4109 68.574 79.9023C68.9967 79.6961 69.8417 79.4609 70.4519 79.3795C72.3818 79.1221 74.028 79.6028 75.6728 80.9036C76.1047 81.2453 76.5193 81.4548 76.5943 81.3694C78.1615 79.5853 78.6106 79.03 78.6106 78.8763C78.6106 78.6303 77.1964 77.3688 76.3159 76.8291C74.5897 75.7712 71.9418 75.2943 69.6988 75.637ZM139.811 75.6397C137.966 75.8506 135.089 76.7035 135.089 77.0393C135.089 77.1072 135.257 77.503 135.464 77.919C135.754 78.5042 135.908 78.6464 136.145 78.5472C138.014 77.766 138.948 77.5333 140.537 77.4531C142.605 77.3486 143.566 77.5659 144.474 78.3436C145.537 79.2537 145.848 80.169 145.948 82.6753C146.043 85.0749 146.049 85.0646 144.918 84.5019C144.539 84.3133 143.546 84.0239 142.711 83.859C139.132 83.1518 135.459 84.2976 134.006 86.5741C132.457 89.0015 133.076 93.111 135.232 94.7067C136.125 95.3677 138.117 96.0037 139.285 96.0005C141.096 95.9957 143.304 95.0687 144.807 93.6821C145.325 93.205 145.801 92.8147 145.866 92.8147C145.932 92.8147 145.985 93.4124 145.985 94.143V95.4713H147.082H148.178L148.126 87.5457C148.074 79.6963 148.069 79.6115 147.654 78.7157C146.829 76.9382 145.281 75.9432 142.863 75.6372C141.392 75.4509 141.462 75.4507 139.811 75.6397ZM160.308 75.6404C158.601 75.9177 157.075 76.8528 156.136 78.1978C155.897 78.5405 155.64 78.8212 155.565 78.8219C155.49 78.8226 155.428 78.1856 155.428 77.4063V75.9894H154.339H153.249V85.7304V95.4713H154.339H155.428V89.2123C155.428 83.5978 155.465 82.815 155.781 81.6101C156.187 80.0606 156.782 79.0499 157.683 78.3795C158.425 77.828 159.738 77.4063 160.715 77.4063C163.632 77.4063 165.306 78.9691 165.775 82.1294C165.873 82.7948 165.956 86.0692 165.958 89.4053L165.961 95.4713H167.051H168.14V88.6636C168.14 81.2393 168.042 80.2948 167.095 78.5951C165.868 76.3934 163.097 75.1871 160.308 75.6404ZM81.2798 75.9248C81.21 75.9928 81.153 80.4185 81.153 85.7599V95.4713H83.2429H85.333L85.2859 85.6861L85.2391 75.9009L83.3228 75.8509C82.269 75.8235 81.3497 75.8568 81.2798 75.9248ZM105.125 85.6418V95.4713H107.122H109.12V85.6418V75.8123H107.122H105.125V85.6418ZM123.991 77.5958C126.732 78.1691 128.374 81.6804 128.126 86.4388C127.897 90.8319 126.602 93.2422 124.119 93.8975C123.06 94.1772 121.367 93.9935 120.158 93.4677C118.982 92.9564 117.439 91.6399 117.111 90.8683C116.952 90.4938 116.909 88.9828 116.956 85.366L117.019 80.3799L118.074 79.4232C120.01 77.6654 121.752 77.1275 123.991 77.5958ZM143.087 85.5547C143.617 85.6528 144.487 85.9273 145.018 86.1646L145.985 86.5962V88.8315V91.0666L144.991 92.0366C144.367 92.6443 143.537 93.2163 142.766 93.5684C141.675 94.0668 141.35 94.1313 139.901 94.1368C138.431 94.1423 138.18 94.093 137.4 93.6462C136.28 93.0038 135.698 92.1216 135.469 90.7186C135.045 88.1215 136.128 86.2123 138.383 85.5793C139.205 85.3485 141.896 85.3343 143.087 85.5547Z" fill="#111111"/>
<g clip-path="url(#clip0_2_19022)">
<path d="M220.001 16.0005C213.384 16.0005 208.001 21.3839 208.001 28.0005C208.001 34.617 213.384 40.0005 220.001 40.0005C226.618 40.0005 232.001 34.617 232.001 28.0005C232.001 21.3839 226.618 16.0005 220.001 16.0005ZM226.708 24.8426L219.039 32.4516C218.587 32.9027 217.866 32.9328 217.384 32.4817L213.324 28.7824C212.843 28.3313 212.813 27.5794 213.234 27.0982C213.685 26.617 214.437 26.587 214.918 27.0381L218.136 29.9855L224.993 23.1283C225.475 22.6471 226.227 22.6471 226.708 23.1283C227.189 23.6095 227.189 24.3614 226.708 24.8426Z" fill="#111111"/>
</g>
<defs>
<clipPath id="clip0_2_19022">
<rect width="24" height="24" fill="white" transform="translate(208.001 16.0005)"/>
</clipPath>
</defs>
</svg>
