    <svg width="247" height="160" viewBox="0 0 247 160" fill="none" xmlns="http://www.w3.org/2000/svg">
<rect x="0.5" y="0.500488" width="246" height="159" rx="11.5" fill="white" fill-opacity="0.4" stroke="#111111"/>
<g clip-path="url(#clip0_320_134189)">
<path d="M139.947 98.4172H107.862L91.8203 70.7088L107.862 43.0005H139.947L155.989 70.7088L139.947 98.4172ZM108.621 97.108H139.188L154.474 70.7088L139.188 44.3097H108.621L93.3354 70.7088L108.621 97.108Z" fill="#111111"/>
<path d="M129.654 71.874C129.436 71.9002 129.044 72.0835 128.866 72.4029C128.732 72.6412 128.811 72.9528 129.05 73.089C129.128 73.1335 129.215 73.1544 129.299 73.1544C129.47 73.1544 129.633 73.068 129.724 72.9057C129.74 72.89 129.787 72.8612 129.78 72.8585C130.053 72.8245 130.247 72.5757 130.213 72.3034C130.176 72.0337 129.927 71.84 129.654 71.874Z" fill="#FFDE3B"/>
<path d="M118.955 70.604C118.952 70.5517 118.955 70.4941 118.974 70.4365C118.955 70.4914 118.95 70.5491 118.955 70.604Z" fill="#FFDE3B"/>
<path d="M118.955 70.604C118.952 70.5517 118.955 70.4941 118.974 70.4365C118.955 70.4914 118.95 70.5491 118.955 70.604Z" fill="#FFDE3B"/>
<path d="M118.959 70.6286C118.959 70.6205 118.953 70.6123 118.953 70.6042C118.953 70.6123 118.956 70.6205 118.959 70.6286Z" fill="#FFDE3B"/>
<path d="M118.959 70.6286C118.959 70.6205 118.953 70.6123 118.953 70.6042C118.953 70.6123 118.956 70.6205 118.959 70.6286Z" fill="#FFDE3B"/>
<path d="M144.412 79.5093C143.396 79.4438 142.655 78.7526 142.453 78.5431C142.188 78.2681 141.384 77.1003 140.738 76.1629C140.229 75.4245 139.79 74.7856 139.573 74.5133C139.171 74.0132 138.454 71.8477 138.302 71.0779C138.273 70.9339 138.26 70.7637 138.257 70.583C139.016 70.3186 140.436 70.2636 140.794 70.329C141.075 70.3788 141.35 70.5595 141.781 70.9758C142.135 71.3162 142.435 71.4262 142.705 71.4262C142.902 71.4262 143.083 71.3686 143.259 71.3005C143.543 71.1905 143.803 70.8815 143.979 70.6275C144.323 70.5961 144.648 70.4023 144.932 70.1981C145.399 69.8577 145.452 69.3 145.09 68.5406C145.016 68.3861 144.924 68.1793 144.822 67.9541C144.711 67.7054 144.588 67.4357 144.467 67.1764C144.22 66.6527 143.987 66.2574 143.637 66.0243C143.566 65.9772 143.354 65.786 143.186 65.6342C143.065 65.5268 142.936 65.4116 142.813 65.3016C142.847 65.2074 142.873 65.1131 142.881 65.0162C142.9 64.7675 142.821 64.5397 142.653 64.3616C142.516 64.215 142.261 64.0474 141.823 64.0605C141.594 64.0683 141.34 64.1338 141.088 64.2359C140.434 64.0579 139.357 64.0605 138.99 64.0762C138.745 64.0893 138.349 64.0998 137.923 64.1129C137.262 64.1338 136.511 64.1574 136.138 64.1862C135.579 64.2307 134.883 64.2097 134.615 64.1783C134.394 64.1521 134.163 64.0998 133.922 64.0422C133.488 63.9427 132.995 63.8248 132.425 63.8432C131.55 63.8641 130.689 64.393 130.277 64.647L130.188 64.702C130.022 64.7989 129.203 64.9219 128.294 64.901C127.113 64.8722 123.833 64.6523 122.89 64.5501C122.641 64.5239 122.279 64.4506 121.861 64.3668C120.732 64.139 119.188 63.8301 117.757 63.9715C116.108 64.1338 114.488 64.5658 112.946 65.2571L112.592 65.4195C111.46 65.9353 109.905 66.6423 108.283 66.5218C106.901 66.4171 104.567 65.6918 104.567 63.618C104.567 62.5104 105.848 61.9395 106.397 61.9395C107.259 61.9395 108.033 62.6203 108.101 62.8089C108.101 63.165 108.028 63.4006 107.97 63.5892C107.889 63.8536 107.765 64.2542 108.136 64.5999C108.432 64.8748 109.07 65.0188 109.622 64.7779C110.076 64.5816 110.614 64.0814 110.614 62.8089C110.614 60.5177 108.109 59.452 106.416 59.452C104.667 59.452 102.133 60.9367 102.133 63.618C102.133 66.3307 103.939 68.3443 106.844 68.8732C108.897 69.2476 110.273 69.0617 111.263 68.7161C110.979 69.6037 110.557 70.8553 110.2 71.6409C109.596 72.9658 108.08 74.8327 107.841 75.0187C107.778 75.0606 107.705 75.1051 107.626 75.1496C107.277 75.3564 106.844 75.613 106.704 76.0503C106.615 76.3357 105.565 78.9018 105.181 79.8209C104.827 80.6719 105.176 81.1458 105.457 81.5281C105.52 81.6145 105.591 81.7062 105.657 81.8109C105.99 82.3398 106.613 82.5572 107.146 82.5572C107.374 82.5572 107.589 82.5153 107.757 82.4419C108.396 82.1591 108.34 81.2584 108.217 80.8892C108.143 80.6745 107.968 80.5279 107.744 80.342C107.684 80.2922 107.597 80.2189 107.534 80.1587C107.708 79.7345 108.314 78.6976 108.477 78.53C108.676 78.3493 109.648 77.6895 110.423 77.2496C111.229 76.794 113.049 75.6026 113.918 74.982C114.406 74.6337 114.858 74.2488 115.181 73.9582C115.514 74.55 115.677 74.9637 115.688 75.0998C115.8 77.1056 115.719 77.535 115.701 77.6004C115.68 77.679 115.648 77.7549 115.617 77.8335C115.451 78.242 115.17 78.9254 115.963 79.7842C116.315 80.1639 118.258 82.1277 119.03 82.2953C119.046 82.2979 120.091 82.4838 121.047 82.4838C121.688 82.4838 122.292 82.4 122.517 82.1225C122.762 81.824 122.804 81.3972 122.633 81.007C122.433 80.554 122 80.266 121.475 80.2346C121.231 80.2189 121.018 80.2398 120.829 80.2582C120.433 80.2974 120.215 80.3184 119.871 80.0356C119.655 79.8575 119.08 79.3862 119.041 79.2474C119.125 78.8887 119.802 76.3148 120.044 75.6549C120.078 75.5581 120.125 75.4402 120.175 75.3093C120.396 74.7332 120.611 74.1467 120.763 73.5942C121.378 73.7618 122.473 74.0158 123.715 74.1153C124.96 74.2148 125.863 74.1101 126.59 74.0289C126.695 74.0158 126.79 74.0079 126.887 73.9975C126.753 74.5526 126.574 75.3407 126.509 75.922C126.454 76.396 126.414 77.1186 126.38 77.7549C126.354 78.2655 126.317 78.9018 126.296 79.0092C126.186 79.3365 126.349 79.6507 126.506 79.957C126.559 80.0618 126.648 80.2346 126.658 80.2948C126.674 80.4362 126.869 81.5124 127.199 81.8188C127.494 82.0885 128.62 82.2194 129.14 82.2194C129.213 82.2194 129.274 82.2168 129.318 82.2115C130.033 82.133 130.568 81.6093 130.508 81.0437L130.503 80.973C130.479 80.7138 130.427 80.1089 129.529 80.0539C129.395 80.0461 129.274 80.0461 129.169 80.0461C129.132 80.0461 129.093 80.0461 129.056 80.0461C129.04 80.0016 129.022 79.9544 129.006 79.9047C128.914 79.6559 128.83 79.4176 128.875 79.2108C128.961 78.8233 129.613 77.0506 129.943 76.2624C130.19 75.6785 130.771 74.5447 131.023 74.0629C131.149 74.0472 131.277 74.0289 131.401 74.0132C131.684 73.9791 131.95 73.9451 132.183 73.9006C132.54 73.8351 132.945 73.6911 133.231 73.5759C133.851 74.3457 134.927 75.4717 135.405 75.8382C135.691 76.0582 136.225 76.5688 136.739 77.061C137.299 77.5978 137.829 78.1058 138.118 78.3127L138.33 78.4645C139.418 79.2317 140.016 79.7345 140.113 79.9544C140.418 80.6431 142.133 81.8764 142.794 81.9863C142.802 81.989 143.259 82.0518 143.8 82.0518C144.546 82.0518 145.46 81.9313 145.62 81.3579C145.725 80.9861 145.783 80.4519 145.478 80.0251C145.315 79.813 145.005 79.5486 144.412 79.5093ZM104.921 61.3871C104.914 61.2142 104.814 61.0676 104.672 60.9864C105.16 60.6853 105.686 60.5073 106.132 60.4549V60.4889C106.132 60.6879 106.25 60.8581 106.421 60.9367C106.408 60.9367 106.395 60.9341 106.381 60.9341C105.93 60.9367 105.399 61.0964 104.921 61.3871ZM109.603 62.801C109.603 63.343 109.477 63.7122 109.246 63.8405C109.128 63.906 108.994 63.9034 108.902 63.8929C108.905 63.8877 108.905 63.8824 108.908 63.8772C108.978 63.652 109.084 63.309 109.084 62.8036C109.084 62.6596 109.036 62.5025 108.95 62.3454L108.999 62.2957C109.194 62.1019 109.194 61.7877 108.999 61.5913C108.805 61.3975 108.49 61.3975 108.293 61.5913L108.275 61.6096C107.852 61.2928 107.308 61.044 106.744 60.9655C106.954 60.9131 107.111 60.7377 107.122 60.5177C108.235 60.7377 109.603 61.4499 109.603 62.801ZM103.939 61.5808C103.96 61.7536 104.063 61.8976 104.213 61.971C104.026 62.1778 103.869 62.4135 103.753 62.6727C103.614 62.6858 103.483 62.7513 103.396 62.8743C103.236 63.0969 103.288 63.4085 103.511 63.5682L103.553 63.597C103.553 63.6023 103.553 63.6049 103.553 63.6075C103.553 64.0552 103.632 64.4611 103.774 64.8303C103.593 64.8696 103.451 65.0005 103.404 65.1786C103.217 64.6994 103.118 64.1731 103.118 63.6075C103.118 62.7644 103.456 62.0888 103.939 61.5808ZM103.69 65.7703C103.748 65.7939 103.808 65.807 103.874 65.807H103.926C104.052 65.807 104.165 65.7546 104.255 65.6787C104.514 66.0138 104.837 66.3019 105.202 66.5428C105.021 66.493 104.822 66.5454 104.693 66.6973L104.63 66.7706C104.617 66.7863 104.612 66.8046 104.601 66.8229C104.234 66.5166 103.926 66.1657 103.69 65.7703ZM105.431 67.365L105.449 67.344C105.615 67.1502 105.599 66.8701 105.431 66.6894C106.064 67.0612 106.802 67.3047 107.563 67.4304C107.55 67.4409 107.534 67.4461 107.524 67.4592L107.348 67.6451C107.272 67.7263 107.238 67.8258 107.224 67.9253C107.153 67.9122 107.085 67.9044 107.009 67.8913C106.429 67.7813 105.898 67.6032 105.431 67.365ZM128.082 78.3415C127.83 78.3938 127.567 78.4488 127.559 78.4331C127.559 78.4043 127.578 78.3074 127.667 78.2158C127.746 78.1346 127.856 78.0875 127.969 78.0875C127.693 78.0875 127.47 78.31 127.47 78.585C127.47 78.8259 127.646 79.0196 127.877 79.0641C127.795 79.5276 127.94 79.9413 128.05 80.2451C128.074 80.3105 128.097 80.3734 128.116 80.4362C128.31 81.0437 128.838 81.0385 129.156 81.0411C129.242 81.0411 129.34 81.0411 129.45 81.0463C129.466 81.0463 129.479 81.0489 129.489 81.0489C129.489 81.0515 129.489 81.0568 129.489 81.0594L129.492 81.0961C129.452 81.1353 129.347 81.2034 129.19 81.2217C128.911 81.2479 128.158 81.1406 127.866 81.0594C127.782 80.8604 127.659 80.4153 127.633 80.1848C127.606 79.9466 127.488 79.7214 127.375 79.5014C127.333 79.4203 127.273 79.3024 127.249 79.2344C127.289 79.0511 127.31 78.7028 127.36 77.8073C127.362 77.7445 127.367 77.6816 127.37 77.6162C127.425 77.6371 127.483 77.6502 127.543 77.6502C127.601 77.6502 127.662 77.6397 127.719 77.6162C127.78 77.5926 127.822 77.5795 127.853 77.569C127.969 77.5297 128.037 77.5036 128.174 77.4145C128.405 77.2653 128.473 76.9589 128.323 76.7259C128.174 76.4955 127.866 76.4274 127.633 76.5766C127.585 76.6081 127.585 76.6081 127.533 76.6238C127.504 76.6342 127.467 76.6473 127.423 76.663C127.438 76.4274 127.457 76.2074 127.478 76.032C127.549 75.414 127.767 74.4976 127.895 73.9791C128.111 74.0079 128.331 74.0525 128.549 74.097C128.919 74.1755 129.297 74.2541 129.67 74.2541C129.707 74.2541 129.744 74.2488 129.781 74.2488C129.508 74.7882 129.177 75.4533 129.001 75.8749C128.77 76.4405 128.342 77.5769 128.082 78.3415ZM144.677 80.9599C144.341 81.062 143.383 81.0803 142.944 81.007C142.584 80.939 141.172 79.9151 141.012 79.5564C140.828 79.1401 140.271 78.6557 139.381 78.0063C139.523 77.8492 139.554 77.6135 139.441 77.425C139.441 77.425 139.376 77.3124 139.334 77.1422C139.271 76.8751 139 76.7102 138.732 76.7756C138.512 76.828 138.367 77.0218 138.359 77.2365C138.092 76.9956 137.737 76.6578 137.414 76.3462C137.238 76.176 137.067 76.0137 136.902 75.8566C136.928 75.8592 136.952 75.8697 136.981 75.867C137.257 75.8435 137.459 75.6052 137.438 75.3303C137.417 75.0841 137.278 74.9558 137.194 74.8982C136.962 74.7411 136.716 74.8144 136.555 74.8616L136.456 74.8904C136.306 74.9323 136.198 75.037 136.141 75.1653C136.093 75.126 136.041 75.0789 135.999 75.0475C135.912 74.982 135.807 74.8877 135.691 74.7804C135.691 74.7804 135.691 74.7804 135.691 74.7778C135.694 74.7621 135.697 74.7463 135.697 74.7306C135.836 74.5971 135.891 74.3929 135.82 74.2017C135.707 73.8875 135.445 73.8011 135.253 73.822C135.101 73.8377 134.998 73.9084 134.919 74.0001C134.344 73.3821 133.78 72.717 133.688 72.5311C133.444 72.0415 132.312 71.0727 131.973 70.7873C131.763 70.6092 131.448 70.638 131.27 70.8475C131.094 71.057 131.12 71.3712 131.33 71.5492C131.797 71.942 132.328 72.429 132.609 72.738C132.401 72.8113 132.175 72.882 131.986 72.9187C131.942 72.9265 131.894 72.9344 131.847 72.9396C131.973 72.738 131.947 72.4735 131.763 72.3086C131.558 72.1253 131.243 72.1436 131.059 72.3505C130.944 72.4814 130.736 72.7328 130.663 72.937C130.642 72.992 130.639 73.047 130.639 73.1046C130.408 73.1386 130.169 73.1805 129.93 73.2355C129.626 73.3062 129.206 73.2172 128.764 73.1229C128.494 73.0653 128.218 73.0103 127.935 72.9789C127.977 72.9108 128.021 72.8401 128.069 72.7747C128.226 72.5495 128.174 72.2405 127.948 72.0808C127.722 71.9237 127.412 71.976 127.252 72.2012C126.958 72.6149 126.866 72.8532 126.837 72.9972C126.714 73.0103 126.595 73.0208 126.462 73.0365C125.921 73.0993 125.272 73.1674 124.461 73.1517C124.487 73.1177 124.511 73.081 124.526 73.0365C124.621 72.7799 124.49 72.4919 124.23 72.3976C123.649 72.1855 123.182 72.7668 123.003 73.0339C122.124 72.9134 121.373 72.7301 120.939 72.6097C120.955 72.45 120.963 72.2955 120.952 72.1515C120.934 71.8765 120.692 71.6697 120.422 71.688C120.272 71.6985 120.146 71.777 120.06 71.887C120.005 71.7692 119.902 71.6723 119.768 71.6278C119.745 71.6199 119.689 71.6068 119.619 71.5937C119.582 71.5885 119.503 71.5728 119.445 71.5571C119.327 71.4262 119.141 71.3633 118.954 71.4078C118.686 71.4733 118.524 71.743 118.589 72.0101C118.694 72.4369 119.175 72.5233 119.479 72.5783C119.521 72.5887 119.566 72.594 119.608 72.594C119.737 72.594 119.855 72.539 119.947 72.4552C119.923 72.772 119.834 73.1596 119.716 73.5523C119.695 73.4581 119.658 73.369 119.587 73.2957C119.458 73.1439 119.214 72.8637 118.868 72.9213C118.676 72.9527 118.516 73.0836 118.442 73.2695C118.34 73.5235 118.463 73.8142 118.72 73.9163C118.757 73.932 118.797 73.9425 118.836 73.9477C118.862 73.9765 118.883 74.0001 118.896 74.0132C118.991 74.1074 119.114 74.1546 119.24 74.1546C119.356 74.1546 119.471 74.1074 119.566 74.0263C119.448 74.3719 119.324 74.6966 119.23 74.9453C119.177 75.0815 119.13 75.2046 119.093 75.3067C119.078 75.3512 119.059 75.4062 119.038 75.4664C118.996 75.3119 118.938 75.1129 118.912 75.0448C118.812 74.7935 118.531 74.6756 118.277 74.7699C118.022 74.8642 117.893 75.1496 117.983 75.4062C118.006 75.4769 118.077 75.7335 118.122 75.9063C118.18 76.1289 118.382 76.2781 118.605 76.2781C118.647 76.2781 118.689 76.2729 118.731 76.2624C118.76 76.2546 118.781 76.2362 118.807 76.2258C118.736 76.4693 118.663 76.7311 118.589 76.9982C118.526 76.8961 118.429 76.8123 118.306 76.7756C118.04 76.6997 117.765 76.8516 117.688 77.116C117.623 77.3386 117.699 77.5559 117.962 77.9199C118.043 78.0325 118.164 78.0875 118.292 78.1084C118.177 78.5483 118.088 78.8966 118.059 79.017C117.896 79.7083 118.542 80.2398 119.225 80.8002C119.886 81.3422 120.456 81.2872 120.91 81.2453C121.079 81.2296 121.236 81.2139 121.404 81.2244C121.567 81.2348 121.648 81.3055 121.688 81.3631C121.709 81.3946 121.719 81.4234 121.724 81.4469C121.247 81.5412 119.726 81.426 119.243 81.3212C118.915 81.2165 117.531 80.0146 116.688 79.106C116.323 78.7133 116.389 78.5536 116.533 78.2053C116.583 78.0849 116.628 77.967 116.659 77.8492C116.688 77.7366 116.769 77.4224 116.717 75.9639C116.725 75.9849 116.733 75.998 116.738 76.0084C116.827 76.1865 117.011 76.2938 117.197 76.2938C117.271 76.2938 117.342 76.2781 117.413 76.2441C117.66 76.121 117.765 75.8356 117.641 75.5895C117.623 75.5423 117.576 75.346 117.536 75.1731C117.476 74.9034 117.208 74.7332 116.943 74.7935C116.827 74.8197 116.735 74.8877 116.667 74.9715C116.62 74.5264 116.229 73.7461 115.758 72.9867C115.766 72.9867 115.774 72.9867 115.782 72.9867C116.018 72.9632 116.2 72.7773 116.229 72.5521C116.247 72.5102 116.289 72.4369 116.326 72.3845C116.478 72.1567 116.415 71.8477 116.186 71.6959C115.958 71.544 115.648 71.6042 115.496 71.8346C115.378 72.0127 115.312 72.1488 115.278 72.2562C114.53 71.1853 113.277 69.08 113.264 69.0591C113.122 68.8234 112.817 68.7449 112.581 68.8837C112.345 69.0224 112.266 69.3288 112.405 69.5644C112.458 69.6509 113.692 71.7273 114.464 72.8296C114.53 72.9213 114.585 73.0077 114.645 73.0967C114.346 73.3717 113.855 73.8011 113.335 74.1703C113.133 74.3143 112.875 74.4924 112.592 74.6835C112.644 74.4243 112.487 74.1677 112.227 74.1048C111.961 74.0394 111.688 74.1991 111.623 74.4662C111.565 74.6992 111.557 74.9008 111.557 75.0003C111.557 75.1129 111.602 75.2124 111.665 75.2962C110.993 75.7361 110.32 76.1577 109.926 76.3802C109.727 76.4928 109.504 76.6264 109.28 76.7678C109.275 76.7364 109.27 76.7102 109.267 76.6945C109.252 76.4326 109.036 76.2258 108.768 76.2258C108.493 76.2258 108.269 76.4483 108.269 76.7233C108.269 76.8149 108.283 77.1082 108.396 77.3465C108.125 77.5324 107.907 77.6947 107.797 77.7968C107.555 78.0194 106.45 79.7554 106.494 80.2791C106.523 80.6274 106.817 80.8709 107.104 81.1065C107.159 81.151 107.235 81.2139 107.28 81.2584C107.295 81.3448 107.298 81.4731 107.285 81.5517C107.096 81.5857 106.673 81.5517 106.502 81.2794C106.421 81.151 106.339 81.0411 106.263 80.9363C106.016 80.6038 105.967 80.5331 106.106 80.2032C106.368 79.5721 107.545 76.7154 107.658 76.3514C107.702 76.2598 107.986 76.0922 108.136 76.0032C108.227 75.9482 108.317 75.8958 108.396 75.8435C108.574 75.723 108.965 75.2857 109.406 74.7175C109.42 74.8354 109.446 74.982 109.47 75.0998C109.517 75.3381 109.724 75.5031 109.958 75.5031C109.989 75.5031 110.021 75.5005 110.052 75.4952C110.323 75.4428 110.499 75.181 110.446 74.9113C110.446 74.9087 110.399 74.6783 110.394 74.584C110.389 74.3117 110.168 74.0943 109.895 74.0943C109.884 74.0943 109.877 74.0996 109.866 74.0996C110.349 73.4214 110.827 72.6647 111.108 72.0493C111.738 70.6642 112.513 68.0536 112.547 67.941C112.605 67.7472 112.539 67.5378 112.379 67.4121C112.221 67.2864 112.001 67.2681 111.825 67.3676C111.063 67.7944 110.058 68.1871 108.317 68.0615C108.424 67.8886 108.417 67.6765 108.296 67.5116C108.692 67.5352 109.078 67.5194 109.454 67.4749C109.475 67.5482 109.506 67.6216 109.561 67.6818L109.677 67.8049C109.774 67.9122 109.911 67.9672 110.045 67.9672C110.165 67.9672 110.286 67.9227 110.381 67.8363C110.541 67.6896 110.578 67.4618 110.496 67.2733C111.111 67.1136 111.683 66.8989 112.203 66.6763C112.263 66.8177 112.382 66.9329 112.544 66.9696L112.731 67.0115C112.768 67.0193 112.804 67.0246 112.839 67.0246C113.067 67.0246 113.274 66.8675 113.324 66.6344C113.358 66.4825 113.311 66.3333 113.222 66.2207L113.353 66.1605C113.802 65.9589 114.256 65.7913 114.719 65.6394C114.713 65.8751 114.868 66.0872 115.107 66.1369C115.141 66.1448 115.176 66.1474 115.21 66.1474C115.441 66.1474 115.648 65.985 115.698 65.752L115.745 65.5268C115.758 65.4613 115.758 65.3985 115.745 65.3383C116.047 65.2623 116.349 65.1916 116.651 65.134C116.617 65.2545 116.615 65.3776 116.651 65.4954C116.717 65.7049 116.89 65.862 117.124 65.9248C117.169 65.9379 117.213 65.9431 117.255 65.9431C117.476 65.9431 117.675 65.7991 117.736 65.5766C117.775 65.4352 117.749 65.2938 117.675 65.1786C117.675 65.1131 117.66 65.0529 117.633 64.9926C117.707 64.9848 117.78 64.9691 117.854 64.9612C118.274 64.9193 118.713 64.9272 119.151 64.9586C118.912 64.9612 118.699 65.1236 118.657 65.3645C118.626 65.5556 118.705 65.7389 118.849 65.8463C118.868 65.9039 118.896 65.9615 118.938 66.0112C119.038 66.1317 119.18 66.1945 119.324 66.1945C119.435 66.1945 119.548 66.1579 119.64 66.0819C119.839 65.917 119.923 65.6839 119.863 65.4561C119.773 65.121 119.443 65.0057 119.293 64.9691C119.718 65.0057 120.138 65.066 120.54 65.134C120.493 65.1655 120.448 65.2021 120.414 65.2519C120.288 65.4299 120.293 65.663 120.414 65.8332C120.409 65.9667 120.456 66.1029 120.559 66.205C120.656 66.3019 120.784 66.3516 120.91 66.3516C121.036 66.3516 121.165 66.3019 121.262 66.205C121.396 66.0714 121.465 65.8882 121.449 65.7022C121.436 65.5451 121.365 65.3933 121.249 65.2676C121.388 65.2938 121.525 65.3226 121.654 65.3488C122.097 65.4378 122.478 65.5137 122.772 65.5451C122.909 65.5608 123.1 65.5766 123.324 65.5975C123.376 65.8436 123.505 66.095 123.665 66.1997C123.749 66.2574 123.846 66.2835 123.941 66.2835C124.101 66.2835 124.261 66.205 124.356 66.061C124.434 65.9458 124.45 65.8096 124.421 65.6839C125.198 65.7389 126.086 65.7965 126.855 65.8384C126.821 65.9824 126.803 66.1421 126.834 66.2862C126.884 66.5218 127.1 66.6999 127.333 66.6999C127.365 66.6999 127.396 66.6973 127.43 66.6894C127.701 66.6318 127.874 66.3883 127.816 66.1212C127.816 66.1002 127.83 66.0505 127.838 66.0243C127.861 65.9798 127.872 65.9327 127.882 65.8882C128.021 65.8934 128.153 65.8986 128.26 65.9012C128.911 65.917 130.133 65.8646 130.658 65.5766C130.715 65.7887 130.899 65.9484 131.13 65.9484C131.406 65.9484 131.629 65.7258 131.629 65.4509V65.0921C131.629 65.0791 131.624 65.0686 131.621 65.0555C131.787 64.9848 131.958 64.9246 132.128 64.8879C132.126 64.9089 132.115 64.9272 132.115 64.9481C132.115 65.2231 132.338 65.4456 132.614 65.4456H132.719C132.995 65.4456 133.218 65.2231 133.218 64.9481C133.218 64.9377 133.213 64.9272 133.213 64.9167C133.37 64.9455 133.528 64.9796 133.688 65.0188C133.948 65.0791 134.216 65.1393 134.491 65.1733C134.73 65.2021 135.14 65.2178 135.563 65.2126C135.523 65.244 135.484 65.2781 135.455 65.3226L135.387 65.4273C135.237 65.6577 135.303 65.9667 135.534 66.116C135.618 66.1709 135.713 66.1945 135.804 66.1945C135.967 66.1945 136.127 66.1133 136.225 65.9667L136.293 65.862C136.437 65.6368 136.377 65.3435 136.159 65.189C136.175 65.189 136.193 65.1864 136.209 65.1864C136.492 65.1628 137.036 65.1445 137.58 65.1288C137.58 65.2702 137.635 65.4116 137.753 65.5085L137.816 65.5609C137.91 65.6394 138.023 65.6761 138.134 65.6761C138.278 65.6761 138.417 65.6158 138.517 65.498C138.614 65.3828 138.643 65.2362 138.619 65.0974C138.78 65.0921 138.921 65.0869 139.032 65.0817C139.286 65.0686 139.588 65.0712 139.88 65.0869C139.867 65.1026 139.851 65.1183 139.838 65.134C139.667 65.3488 139.704 65.663 139.919 65.8332C140.134 66.0034 140.45 65.9667 140.62 65.752C140.794 65.5347 141.051 65.3566 141.292 65.2335C141.295 65.2335 141.295 65.2309 141.298 65.2309C141.518 65.1183 141.728 65.0529 141.847 65.045C141.763 65.1943 141.552 65.4299 141.348 65.5949C141.132 65.7677 141.098 66.0793 141.271 66.294C141.371 66.4171 141.516 66.4799 141.66 66.4799C141.77 66.4799 141.878 66.4433 141.973 66.3699C141.994 66.3542 142.022 66.3307 142.051 66.3045C142.017 66.3726 141.994 66.4459 141.994 66.5244V66.6894C141.994 66.9643 142.217 67.1869 142.493 67.1869C142.737 67.1869 142.928 67.0088 142.973 66.7784C143.012 66.8098 143.049 66.8386 143.083 66.8596C143.249 66.9696 143.427 67.3152 143.564 67.6059C143.682 67.8598 143.803 68.1269 143.91 68.3678C144.016 68.6009 144.11 68.8156 144.189 68.9753C144.344 69.2974 144.339 69.3995 144.346 69.3995C144.018 69.6378 143.903 69.6509 143.905 69.6535C143.826 69.6404 143.714 69.6063 143.609 69.5775C143.354 69.5068 143.215 69.4676 143.054 69.5068C142.787 69.5723 142.624 69.8446 142.692 70.1091C142.721 70.2269 142.792 70.3212 142.881 70.3866C142.684 70.4626 142.676 70.4573 142.477 70.2662C142.051 69.8577 141.576 69.4649 140.97 69.3576C140.82 69.3314 140.531 69.3157 140.176 69.3209C140.221 69.211 140.232 69.0827 140.187 68.9622C140.092 68.703 139.806 68.5721 139.546 68.6663L139.431 68.7082C139.171 68.8025 139.039 69.0879 139.134 69.3471C139.139 69.3628 139.152 69.3759 139.16 69.3916C138.874 69.4257 138.588 69.4754 138.317 69.5409C138.341 69.3497 138.367 69.2031 138.383 69.1533C138.485 68.8994 138.362 68.6087 138.105 68.5066C137.847 68.4045 137.558 68.5275 137.456 68.7842C137.388 68.9543 137.304 69.4623 137.272 70.0201C137.212 69.9965 137.144 69.9651 137.081 69.9363C136.831 69.8211 136.534 69.931 136.419 70.1824C136.303 70.4311 136.414 70.727 136.666 70.8422C137.018 71.002 137.188 71.0491 137.293 71.0596C137.304 71.1355 137.312 71.2141 137.325 71.2848C137.343 71.3738 137.372 71.4942 137.409 71.6383C137.385 71.6487 137.362 71.6487 137.338 71.6618L137.233 71.7247C136.997 71.8661 136.92 72.1724 137.062 72.4081C137.157 72.5626 137.322 72.649 137.49 72.649C137.558 72.649 137.624 72.6306 137.69 72.6018C137.918 73.3219 138.223 74.1467 138.52 74.7044C138.472 74.728 138.425 74.7542 138.386 74.7935L138.278 74.8982C138.141 75.0291 137.973 75.1915 138.008 75.4664C138.026 75.6209 138.147 75.7885 138.283 75.867C138.362 75.9115 138.446 75.9325 138.53 75.9325C138.703 75.9325 138.871 75.8435 138.963 75.6811C138.982 75.6471 138.997 75.613 139.008 75.5764L139.071 75.5162C139.297 75.833 139.601 76.2729 139.919 76.7337C140.796 78.0063 141.44 78.9306 141.736 79.2396C142.445 79.9754 143.422 80.4493 144.352 80.5121C144.507 80.5226 144.619 80.5593 144.656 80.6143C144.69 80.6562 144.709 80.7818 144.677 80.9599Z" fill="#FFDE3B"/>
<path d="M123.87 69.5619C123.893 69.465 123.886 69.3681 123.851 69.2791C124.006 69.1036 124.02 68.8365 123.87 68.6454C123.699 68.4281 123.387 68.3888 123.169 68.559C122.967 68.7161 122.72 69.0984 122.801 69.465C122.854 69.7006 123.032 69.8787 123.269 69.9337C123.305 69.9415 123.345 69.9468 123.381 69.9468C123.612 69.9468 123.817 69.7923 123.87 69.5619Z" fill="#FFDE3B"/>
<path d="M125.869 70.8081C125.987 70.7845 126.205 70.7007 126.339 70.3996C126.391 70.2792 126.554 69.7659 126.37 69.4596C126.186 69.1559 125.832 69.1428 125.32 69.2239C125.047 69.2658 124.86 69.5198 124.905 69.7921C124.937 69.999 125.094 70.1561 125.288 70.2006C125.27 70.2713 125.267 70.3446 125.283 70.4179C125.33 70.6536 125.538 70.8186 125.772 70.8186C125.803 70.8186 125.835 70.8159 125.869 70.8081Z" fill="#FFDE3B"/>
<path d="M127.228 68.4359C127.383 68.2841 127.425 68.0432 127.314 67.8442C127.183 67.6033 126.881 67.5142 126.637 67.6452C126.269 67.8442 126.075 68.1531 126.114 68.4752C126.149 68.7423 126.343 68.9596 126.616 69.0303C126.658 69.0408 126.7 69.046 126.739 69.046C126.963 69.046 127.165 68.8968 127.223 68.6742C127.246 68.593 127.246 68.5119 127.228 68.4359Z" fill="#FFDE3B"/>
<path d="M125.084 68.873C125.1 68.873 125.116 68.8756 125.129 68.8756C125.383 68.8756 125.601 68.6819 125.625 68.4227C125.641 68.2498 125.567 68.0901 125.439 67.9906C125.433 67.8152 125.334 67.645 125.163 67.5612C124.916 67.4381 124.617 67.5376 124.493 67.7838C124.375 68.0194 124.378 68.2813 124.499 68.5012C124.619 68.7107 124.837 68.8495 125.084 68.873Z" fill="#FFDE3B"/>
<path d="M123.572 67.8964C123.635 67.8964 123.701 67.8833 123.764 67.8572C123.958 67.776 124.302 67.5508 124.368 67.2156C124.404 67.0324 124.349 66.8464 124.221 66.7181C124.026 66.5244 123.711 66.5244 123.514 66.7181C123.451 66.781 123.409 66.8543 123.388 66.9329C123.386 66.9355 123.383 66.9355 123.38 66.9381C123.126 67.0428 123.007 67.3361 123.113 67.5901C123.189 67.7812 123.375 67.8964 123.572 67.8964Z" fill="#FFDE3B"/>
<path d="M122.316 66.8674C122.329 66.87 122.345 66.87 122.358 66.87C122.616 66.87 122.834 66.6736 122.855 66.4144C122.868 66.2678 122.815 66.1316 122.721 66.0321C122.747 65.7703 122.563 65.532 122.298 65.4927C122.027 65.4482 121.77 65.6393 121.731 65.9117C121.704 66.0766 121.66 66.383 121.857 66.6291C121.967 66.7679 122.13 66.8517 122.316 66.8674Z" fill="#FFDE3B"/>
<path d="M118.252 65.9041C117.995 65.8098 117.709 65.9433 117.612 66.2026C117.538 66.4068 117.606 66.6268 117.764 66.7577C117.772 66.797 117.788 66.8362 117.806 66.8755C117.893 67.0509 118.069 67.1504 118.252 67.1504C118.326 67.1504 118.405 67.1347 118.476 67.0981C118.691 66.9907 118.814 66.7812 118.801 66.5482C118.788 66.2707 118.57 66.0193 118.252 65.9041Z" fill="#FFDE3B"/>
<path d="M119.48 67.4644C119.566 67.5325 119.669 67.5639 119.771 67.5639C119.915 67.5639 120.06 67.4985 120.16 67.3728C120.183 67.3414 120.204 67.3099 120.22 67.2759C120.37 67.1685 120.443 66.9774 120.404 66.7758C120.351 66.5061 120.068 66.3359 119.8 66.3856C119.65 66.4144 119.301 66.4773 119.214 66.836C119.183 66.9722 119.172 67.2314 119.48 67.4644Z" fill="#FFDE3B"/>
<path d="M121.127 67.881C121.211 67.9464 121.319 67.9857 121.434 67.9857C121.448 67.9857 121.463 67.9857 121.476 67.9831C121.75 67.9595 121.954 67.7186 121.933 67.4463C121.918 67.2578 121.826 67.0954 121.676 66.9881C121.395 66.7865 121.03 66.8781 120.894 66.9121C120.626 66.9776 120.463 67.2499 120.531 67.5144C120.597 67.7815 120.865 67.9412 121.127 67.881Z" fill="#FFDE3B"/>
<path d="M121.563 68.5301C121.563 68.5379 121.56 68.5458 121.56 68.5563C121.439 68.6479 121.363 68.7893 121.363 68.9516C121.363 69.2266 121.586 69.4491 121.862 69.4491C122.345 69.4491 122.561 68.9228 122.561 68.5484C122.561 68.2813 122.351 68.0771 122.083 68.064C121.81 68.0509 121.584 68.2656 121.563 68.5301Z" fill="#FFDE3B"/>
<path d="M120.924 69.8449C120.982 69.6799 120.948 69.5071 120.851 69.3762C120.943 69.1353 120.832 68.8577 120.593 68.7477C120.344 68.6325 120.047 68.7399 119.932 68.9912C119.798 69.2819 119.777 69.5411 119.869 69.7611C119.945 69.9417 120.094 70.0779 120.289 70.146C120.344 70.1643 120.399 70.1748 120.454 70.1748C120.659 70.1774 120.853 70.0491 120.924 69.8449Z" fill="#FFDE3B"/>
<path d="M119.375 68.8758C119.491 68.8758 119.604 68.8365 119.698 68.758C119.748 68.7161 119.788 68.6663 119.817 68.614C119.971 68.5171 120.069 68.3364 120.048 68.1426C120.021 67.8703 119.777 67.6687 119.501 67.6975C119.215 67.7263 118.989 67.8808 118.897 68.1086C118.816 68.3076 118.855 68.5354 118.995 68.7004C119.092 68.8156 119.234 68.8758 119.375 68.8758Z" fill="#FFDE3B"/>
<path d="M122.309 71.0857C122.081 71.2245 121.789 71.6696 121.852 72.0545C121.894 72.298 122.105 72.4709 122.344 72.4709C122.37 72.4709 122.399 72.4682 122.428 72.463C122.677 72.4211 122.85 72.2038 122.845 71.9603C122.85 71.9498 122.856 71.9367 122.863 71.9262C122.913 71.8948 122.958 71.8555 122.995 71.8058C123.16 71.5858 123.116 71.2742 122.898 71.1093C122.73 70.9862 122.483 70.981 122.309 71.0857Z" fill="#FFDE3B"/>
<path d="M124.053 70.5204C123.869 70.5754 123.722 70.7089 123.635 70.8975C123.522 71.1436 123.506 71.4997 123.601 71.7066C123.685 71.8925 123.866 71.9998 124.055 71.9998C124.123 71.9998 124.192 71.9867 124.26 71.9553C124.488 71.8532 124.601 71.6044 124.538 71.3714C124.538 71.3662 124.538 71.3609 124.538 71.3557C124.672 71.23 124.73 71.0362 124.675 70.8503C124.593 70.5911 124.315 70.4419 124.053 70.5204Z" fill="#FFDE3B"/>
<path d="M121.881 69.9416C121.634 69.8185 121.334 69.918 121.211 70.1641C121.193 70.2008 121.106 70.2872 121.059 70.3317C120.914 70.4731 120.673 70.7088 120.788 71.0518C120.859 71.2613 121.053 71.3922 121.261 71.3922C121.313 71.3922 121.366 71.3843 121.418 71.366C121.565 71.3162 121.676 71.2063 121.726 71.0727C121.736 71.0623 121.747 71.0518 121.757 71.0413C121.862 70.9366 122.009 70.7952 122.101 70.6093C122.227 70.3631 122.127 70.0646 121.881 69.9416Z" fill="#FFDE3B"/>
<path d="M125.827 71.5622C125.764 71.6565 125.729 71.7403 125.703 71.811C125.677 71.8791 125.661 71.9157 125.619 71.9655C125.443 72.1776 125.472 72.4892 125.682 72.6672C125.777 72.7458 125.89 72.7824 126.003 72.7824C126.147 72.7824 126.286 72.7222 126.386 72.6044C126.533 72.4289 126.593 72.2771 126.633 72.1749C126.641 72.154 126.649 72.133 126.659 72.1147C126.811 71.8869 126.748 71.5779 126.52 71.4261C126.289 71.2716 125.979 71.3344 125.827 71.5622Z" fill="#FFDE3B"/>
<path d="M128.32 70.5225C128.328 70.3995 128.289 70.2712 128.202 70.1691C128.023 69.9596 127.708 69.936 127.498 70.1141C127.202 70.3654 127.199 70.6404 127.225 70.7818C127.275 71.0567 127.49 71.2636 127.861 71.3971C127.916 71.4181 127.974 71.4259 128.029 71.4259C128.233 71.4259 128.425 71.3002 128.499 71.096C128.577 70.8787 128.496 70.6482 128.32 70.5225Z" fill="#FFDE3B"/>
<path d="M129.654 71.874C129.436 71.9002 129.044 72.0835 128.866 72.4029C128.732 72.6412 128.811 72.9528 129.05 73.089C129.128 73.1335 129.215 73.1544 129.299 73.1544C129.47 73.1544 129.633 73.068 129.724 72.9057C129.74 72.89 129.787 72.8612 129.78 72.8585C130.053 72.8245 130.247 72.5757 130.213 72.3034C130.176 72.0337 129.927 71.84 129.654 71.874Z" fill="#FFDE3B"/>
<path d="M125.608 67.3676C125.621 67.3676 125.634 67.3676 125.647 67.365C125.923 67.3467 126.131 67.111 126.112 66.8361C126.096 66.6161 125.942 66.4381 125.739 66.3857C125.64 66.2207 125.445 66.1212 125.24 66.15C124.967 66.1893 124.778 66.4407 124.818 66.713C124.86 67.0115 125.235 67.3676 125.608 67.3676Z" fill="#FFDE3B"/>
<path d="M128.028 67.9751L128.364 67.6085L128.033 67.9803C128.128 68.0641 128.246 68.106 128.364 68.106C128.501 68.106 128.637 68.051 128.737 67.9384C128.887 67.7708 128.902 67.5273 128.79 67.3467C128.821 67.2105 128.795 67.0639 128.706 66.9434C128.543 66.7209 128.23 66.6737 128.01 66.8361C127.831 66.967 127.726 67.1503 127.716 67.3519C127.7 67.6844 127.947 67.9018 128.028 67.9751Z" fill="#FFDE3B"/>
<path d="M129.148 69.494C129.242 69.2609 129.145 69.0017 128.935 68.8786C128.856 68.6639 128.63 68.5278 128.397 68.5566C128.124 68.5958 127.935 68.8472 127.974 69.1195C128.026 69.4887 128.331 69.7034 128.502 69.7715C128.562 69.7951 128.625 69.8082 128.686 69.8082C128.883 69.8082 129.072 69.6904 129.148 69.494Z" fill="#FFDE3B"/>
<path d="M130.453 69.9077C130.44 69.8868 130.424 69.858 130.416 69.837C130.327 69.5778 130.043 69.439 129.781 69.5307C129.521 69.6197 129.382 69.9025 129.474 70.1643C129.495 70.2272 129.697 70.7744 130.122 70.8163C130.141 70.8189 130.156 70.8189 130.175 70.8189C130.427 70.8189 130.645 70.6278 130.671 70.3712C130.687 70.1826 130.598 70.0098 130.453 69.9077Z" fill="#FFDE3B"/>
<path d="M128.032 74.8746C127.998 74.9086 127.969 74.9374 127.945 74.961C127.725 75.0343 127.58 75.2542 127.609 75.4925C127.641 75.7465 127.853 75.9324 128.103 75.9324C128.124 75.9324 128.142 75.9324 128.163 75.9298C128.363 75.9062 128.518 75.8539 128.66 75.6653C128.67 75.6522 128.686 75.6313 128.717 75.6025C128.917 75.414 128.927 75.0997 128.738 74.8981C128.549 74.6965 128.231 74.6887 128.032 74.8746Z" fill="#FFDE3B"/>
<path d="M117.088 72.8322C116.881 73.0495 116.707 73.4344 116.912 73.7906C117.004 73.9529 117.172 74.0445 117.348 74.0445C117.432 74.0445 117.516 74.0236 117.592 73.9791C117.773 73.877 117.865 73.678 117.842 73.4816C118.002 73.2826 117.983 72.9919 117.794 72.8113C117.595 72.6253 117.28 72.6332 117.088 72.8322Z" fill="#FFDE3B"/>
<path d="M117.856 70.4183C117.685 70.3685 117.483 70.4209 117.354 70.5439C117.094 70.7927 117.094 71.4473 117.121 71.552C117.176 71.7798 117.38 71.9317 117.604 71.9317C117.643 71.9317 117.682 71.9265 117.722 71.916C117.961 71.8584 118.116 71.6385 118.1 71.4028C118.103 71.3504 118.116 71.2483 118.129 71.175C118.158 71.1305 118.181 71.0833 118.197 71.031C118.273 70.7665 118.121 70.4916 117.856 70.4183Z" fill="#FFDE3B"/>
<path d="M118.477 69.0797C118.278 68.8886 117.962 68.8965 117.771 69.0955C117.582 69.2945 117.587 69.6087 117.787 69.7998L117.844 69.8548C117.941 69.9465 118.065 69.9936 118.188 69.9936C118.32 69.9936 118.451 69.9412 118.548 69.8391C118.737 69.6401 118.732 69.3259 118.532 69.1347L118.477 69.0797Z" fill="#FFDE3B"/>
<path d="M115.707 69.9232C115.449 69.8237 115.161 69.9494 115.061 70.206L114.987 70.3919C114.888 70.6485 115.014 70.9366 115.271 71.0361C115.331 71.0596 115.392 71.0701 115.452 71.0701C115.652 71.0701 115.841 70.9497 115.917 70.7533L115.99 70.5674C116.09 70.3108 115.961 70.0227 115.707 69.9232Z" fill="#FFDE3B"/>
<path d="M117.172 70.1773C117.196 70.0045 117.248 69.6484 116.954 69.4546C116.723 69.3027 116.413 69.3656 116.264 69.5934C116.185 69.7112 116.164 69.85 116.193 69.9783C116.19 70.0071 116.185 70.0333 116.185 70.0385C116.145 70.3108 116.337 70.5622 116.608 70.6015C116.631 70.6041 116.655 70.6067 116.678 70.6067C116.923 70.6067 117.138 70.4261 117.172 70.1773Z" fill="#FFDE3B"/>
<path d="M117.24 68.8468C117.516 68.8468 117.736 68.6478 117.736 68.3729C117.741 68.3388 117.757 68.2865 117.77 68.2367C117.818 68.0508 117.849 67.9277 117.797 67.7733C117.71 67.514 117.426 67.3726 117.164 67.459C116.967 67.5245 116.838 67.7026 116.825 67.8989C116.82 67.9225 116.809 67.9539 116.801 67.988C116.762 68.1346 116.738 68.2315 116.738 68.3257C116.744 68.6007 116.964 68.8468 117.24 68.8468Z" fill="#FFDE3B"/>
<path d="M111.848 70.9966C111.848 71.1014 111.919 71.4313 111.955 71.5256C112.031 71.7167 112.213 71.8293 112.41 71.8293C112.465 71.8293 112.523 71.8188 112.578 71.8005C112.83 71.7141 112.966 71.4365 112.89 71.1799C112.874 71.1276 112.848 70.9967 112.84 70.9469C112.817 70.6955 112.604 70.4991 112.344 70.4991C112.071 70.4991 111.848 70.7217 111.848 70.9966Z" fill="#FFDE3B"/>
<path d="M113.341 73.6675C113.368 73.6728 113.394 73.6728 113.42 73.6728C113.662 73.6728 113.874 73.4974 113.911 73.2538C113.922 73.1858 113.953 72.9449 113.903 72.7328C113.843 72.4709 113.588 72.3191 113.323 72.3714C113.058 72.4238 112.887 72.6883 112.929 72.9527C112.934 72.9789 112.929 73.0522 112.924 73.0993C112.882 73.369 113.068 73.6257 113.341 73.6675Z" fill="#FFDE3B"/>
<path d="M111.214 72.2663C111.017 72.502 111.006 72.9786 111.019 73.0807C111.056 73.3294 111.274 73.5284 111.521 73.5284C111.542 73.5284 111.566 73.5258 111.587 73.5232C111.86 73.4839 112.051 73.2535 112.012 72.9812C112.012 72.9498 112.025 72.8686 112.036 72.8241C112.149 72.6198 112.104 72.358 111.918 72.2035C111.702 72.0255 111.39 72.0543 111.214 72.2663Z" fill="#FFDE3B"/>
<path d="M115.081 69.1533L114.987 68.8731C114.9 68.6139 114.619 68.4698 114.356 68.5589C114.094 68.6453 113.955 68.9281 114.041 69.1873L114.136 69.4675C114.207 69.6769 114.401 69.8079 114.609 69.8079C114.661 69.8079 114.714 69.8 114.766 69.7817C115.026 69.6953 115.168 69.4125 115.081 69.1533Z" fill="#FFDE3B"/>
<path d="M116.369 68.8967V68.7867C116.369 68.5118 116.146 68.2892 115.87 68.2892C115.594 68.2892 115.371 68.5118 115.371 68.7867V68.8967C115.371 69.1716 115.594 69.3942 115.87 69.3942C116.146 69.3942 116.369 69.1716 116.369 68.8967Z" fill="#FFDE3B"/>
<path d="M114.455 67.4041C114.526 67.6109 114.72 67.7392 114.928 67.7392C114.98 67.7392 115.035 67.7314 115.09 67.713C115.35 67.624 115.489 67.3412 115.4 67.082L115.306 66.8097C115.216 66.5504 114.933 66.409 114.673 66.5007C114.413 66.5897 114.274 66.8725 114.363 67.1317L114.455 67.4041Z" fill="#FFDE3B"/>
<path d="M118.76 70.7062C118.83 70.913 119.025 71.0413 119.232 71.0413C119.285 71.0413 119.34 71.0335 119.395 71.0152C119.655 70.9261 119.794 70.6433 119.705 70.3841L119.61 70.1118C119.521 69.8526 119.237 69.7112 118.978 69.8028C118.718 69.8918 118.578 70.1746 118.668 70.4339L118.76 70.7062Z" fill="#FFDE3B"/>
<path d="M115.779 67.0743C115.85 67.2812 116.044 67.4095 116.252 67.4095C116.304 67.4095 116.359 67.4017 116.415 67.3833C116.675 67.2943 116.814 67.0115 116.724 66.7523L116.63 66.48C116.541 66.2207 116.257 66.0793 115.997 66.171C115.737 66.26 115.598 66.5428 115.687 66.802L115.779 67.0743Z" fill="#FFDE3B"/>
<path d="M114.064 67.7004L113.886 67.36C113.757 67.1165 113.455 67.0249 113.211 67.1532C112.967 67.2815 112.875 67.5826 113.003 67.8261L113.182 68.1665C113.271 68.3367 113.445 68.431 113.623 68.431C113.702 68.431 113.781 68.4126 113.854 68.3734C114.101 68.2424 114.193 67.9413 114.064 67.7004Z" fill="#FFDE3B"/>
<path d="M134.625 71.6094C134.446 71.3999 134.131 71.3763 133.921 71.5544C133.711 71.7324 133.687 72.0466 133.866 72.2561L133.992 72.4001C134.092 72.5153 134.231 72.573 134.37 72.573C134.485 72.573 134.601 72.5337 134.693 72.4525C134.903 72.2745 134.927 71.9602 134.748 71.7508L134.625 71.6094Z" fill="#FFDE3B"/>
<path d="M136.161 70.9259C136.161 70.5803 135.909 70.3787 135.659 70.3577C135.292 70.3237 134.9 70.7321 134.858 71.0018C134.814 71.2742 134.997 71.5282 135.271 71.5727C135.297 71.5779 135.326 71.5779 135.352 71.5779C135.494 71.5779 135.625 71.5177 135.717 71.4182C135.966 71.392 136.161 71.1825 136.161 70.9259Z" fill="#FFDE3B"/>
<path d="M136.181 72.154C135.981 72.086 135.771 72.1462 135.59 72.3164C135.341 72.5494 135.375 72.8008 135.401 72.8977C135.453 73.0914 135.608 73.2381 135.816 73.2852C135.853 73.2931 135.892 73.2983 135.929 73.2983C136.147 73.2983 136.344 73.1543 136.407 72.9422C136.443 72.8977 136.475 72.8427 136.493 72.7851C136.583 72.5259 136.441 72.2431 136.181 72.154Z" fill="#FFDE3B"/>
<path d="M137.014 73.1752C136.796 73.2616 136.651 73.4606 136.649 73.6832C136.643 73.8586 136.735 74.0917 137.001 74.2121C137.066 74.2435 137.137 74.2566 137.208 74.2566C137.397 74.2566 137.578 74.1493 137.662 73.966C137.673 73.9424 137.681 73.9189 137.689 73.8953C137.804 73.7041 137.778 73.4528 137.612 73.2904C137.46 73.1386 137.224 73.0914 137.014 73.1752Z" fill="#FFDE3B"/>
<path d="M133.687 69.1692C133.786 69.1692 133.889 69.1378 133.978 69.0749C134.201 68.9152 134.251 68.6036 134.091 68.381C134.075 68.3575 134.052 68.3234 134.033 68.292C134.028 68.1716 133.981 68.0537 133.889 67.9621C133.694 67.7683 133.379 67.7683 133.182 67.9621C132.941 68.203 132.975 68.5382 133.282 68.9623C133.379 69.0985 133.532 69.1692 133.687 69.1692Z" fill="#FFDE3B"/>
<path d="M135.955 67.9174C136.088 67.9174 136.222 67.865 136.32 67.7602C136.474 67.5953 136.493 67.3491 136.383 67.1659C136.398 66.9328 136.249 66.7129 136.015 66.65C135.75 66.5767 135.474 66.7364 135.403 67.0035C135.327 67.2889 135.408 67.5953 135.616 67.7864C135.71 67.8728 135.831 67.9174 135.955 67.9174Z" fill="#FFDE3B"/>
<path d="M136.152 68.6715C136.152 68.8731 136.286 69.1873 136.504 69.3444C136.609 69.4204 136.727 69.4596 136.848 69.4596C136.909 69.4596 136.969 69.4492 137.027 69.4308C137.289 69.3444 137.431 69.0616 137.342 68.8024C137.302 68.6872 137.226 68.5955 137.129 68.5353C137.069 68.3285 136.877 68.1766 136.651 68.1766C136.376 68.174 136.152 68.3965 136.152 68.6715Z" fill="#FFDE3B"/>
<path d="M134.628 69.0383C134.67 69.2818 134.881 69.4547 135.119 69.4547C135.146 69.4547 135.175 69.452 135.204 69.4468C135.474 69.4023 135.658 69.1457 135.613 68.8734C135.613 68.8681 135.611 68.8498 135.611 68.8341C135.708 68.6377 135.666 68.3942 135.495 68.2423C135.29 68.059 134.972 68.0774 134.791 68.2842C134.579 68.5199 134.597 68.8577 134.628 69.0383Z" fill="#FFDE3B"/>
<path d="M133.963 67.7184C134.005 67.9619 134.215 68.1347 134.454 68.1347C134.48 68.1347 134.509 68.1321 134.538 68.1269C134.808 68.0823 134.992 67.8257 134.947 67.5534C134.947 67.5482 134.945 67.5299 134.945 67.5141C135.042 67.3178 135 67.0742 134.829 66.9224C134.624 66.7391 134.307 66.7574 134.125 66.9643C133.915 67.1999 133.934 67.5377 133.963 67.7184Z" fill="#FFDE3B"/>
<path d="M132.971 70.6905C133.013 70.934 133.223 71.1068 133.462 71.1068C133.488 71.1068 133.517 71.1042 133.546 71.099C133.817 71.0544 134 70.7978 133.956 70.5255C133.956 70.5203 133.953 70.502 133.953 70.4862C134.05 70.2899 134.008 70.0463 133.838 69.8945C133.633 69.7112 133.315 69.7295 133.134 69.9364C132.921 70.172 132.942 70.5098 132.971 70.6905Z" fill="#FFDE3B"/>
<path d="M131.759 69.0459L131.727 68.9752C131.612 68.7238 131.315 68.6139 131.066 68.7291C130.816 68.8443 130.703 69.1375 130.819 69.3889L130.853 69.4649C130.919 69.6141 131.068 69.965 131.491 69.965C131.767 69.965 131.99 69.7424 131.99 69.4675C131.993 69.2894 131.898 69.1323 131.759 69.0459Z" fill="#FFDE3B"/>
<path d="M129.615 67.7657C129.484 67.8521 129.387 68.0354 129.376 68.1899C129.363 68.3994 129.455 68.6167 129.618 68.7555C129.712 68.8366 129.828 68.8759 129.941 68.8759C130.083 68.8759 130.222 68.8157 130.319 68.7031C130.453 68.546 130.474 68.3313 130.387 68.1558C130.382 68.0694 130.356 67.983 130.303 67.9071C130.153 67.6767 129.846 67.6138 129.615 67.7657Z" fill="#FFDE3B"/>
<path d="M129.717 67.1399C129.819 67.1399 129.924 67.1085 130.013 67.043C130.168 66.9278 130.237 66.7445 130.21 66.5664C130.239 66.3753 130.155 66.1763 129.982 66.0689C129.748 65.9223 129.441 65.9956 129.294 66.226C129.134 66.4826 129.189 66.7681 129.315 66.9383C129.412 67.0718 129.564 67.1399 129.717 67.1399Z" fill="#FFDE3B"/>
<path d="M132.229 67.4856C131.954 67.4856 131.73 67.7082 131.73 67.9831V68.0826C131.73 68.3575 131.954 68.5801 132.229 68.5801C132.505 68.5801 132.728 68.3575 132.728 68.0826V67.9831C132.728 67.7082 132.505 67.4856 132.229 67.4856Z" fill="#FFDE3B"/>
<path d="M131.128 67.6268C131.404 67.6268 131.627 67.4043 131.627 67.1293V66.946C131.627 66.6711 131.404 66.4485 131.128 66.4485C130.852 66.4485 130.629 66.6711 130.629 66.946V67.1293C130.629 67.4043 130.852 67.6268 131.128 67.6268Z" fill="#FFDE3B"/>
<path d="M133.342 66.5663V66.4276C133.342 66.1526 133.118 65.9301 132.843 65.9301C132.567 65.9301 132.344 66.1526 132.344 66.4276V66.5663C132.344 66.8413 132.567 67.0638 132.843 67.0638C133.118 67.0638 133.342 66.8413 133.342 66.5663Z" fill="#FFDE3B"/>
<path d="M134.194 66.2314H134.31C134.585 66.2314 134.809 66.0088 134.809 65.7339C134.809 65.459 134.585 65.2364 134.31 65.2364H134.194C133.919 65.2364 133.695 65.459 133.695 65.7339C133.695 66.0088 133.919 66.2314 134.194 66.2314Z" fill="#FFDE3B"/>
<path d="M137.097 67.1528C136.861 67.2942 136.785 67.6005 136.927 67.8362L137.021 67.9907C137.116 68.1452 137.281 68.2316 137.449 68.2316C137.536 68.2316 137.625 68.208 137.707 68.1609C137.943 68.0195 138.019 67.7131 137.877 67.4775L137.783 67.323C137.641 67.0873 137.334 67.0114 137.097 67.1528Z" fill="#FFDE3B"/>
<path d="M137.281 66.8228C137.381 66.8228 137.483 66.794 137.57 66.7312L137.643 66.6788C137.867 66.5191 137.919 66.2075 137.759 65.9849C137.599 65.7623 137.286 65.71 137.063 65.8697L136.99 65.9221C136.766 66.0818 136.714 66.3934 136.874 66.6159C136.974 66.7495 137.126 66.8228 137.281 66.8228Z" fill="#FFDE3B"/>
<path d="M138.591 67.0089C138.701 67.0089 138.814 66.9723 138.906 66.8963L139.071 66.7628C139.284 66.59 139.318 66.2758 139.145 66.0637C138.971 65.8489 138.656 65.8175 138.443 65.9903L138.278 66.1239C138.065 66.2967 138.031 66.6109 138.205 66.823C138.302 66.9461 138.446 67.0089 138.591 67.0089Z" fill="#FFDE3B"/>
<path d="M138.893 67.1582C138.618 67.1582 138.395 67.3808 138.395 67.6557V67.7814C138.395 68.0563 138.618 68.2789 138.893 68.2789C139.169 68.2789 139.392 68.0563 139.392 67.7814V67.6557C139.392 67.3834 139.169 67.1582 138.893 67.1582Z" fill="#FFDE3B"/>
<path d="M72.3921 109.7L77.4994 117.244C77.5414 117.309 77.5939 117.348 77.6648 117.375C77.7567 117.406 77.846 117.422 77.9353 117.422H78.6574C78.7624 117.422 78.7834 117.401 78.7834 117.296V107.608C78.7834 107.503 78.7624 107.482 78.6574 107.482H77.8329C77.7278 107.482 77.7068 107.503 77.7068 107.608V115.049C77.7068 115.131 77.7068 115.345 77.5309 115.398C77.355 115.45 77.2368 115.269 77.1922 115.201L72.2004 107.658C72.1584 107.595 72.1085 107.553 72.0349 107.529C71.943 107.498 71.8538 107.482 71.7645 107.482H70.9268C70.8218 107.482 70.8008 107.503 70.8008 107.608V117.296C70.8008 117.401 70.8218 117.422 70.9268 117.422H71.754C71.859 117.422 71.88 117.401 71.88 117.296V109.854C71.88 109.776 71.88 109.564 72.0533 109.511C72.077 109.504 72.098 109.501 72.119 109.501C72.2581 109.504 72.3527 109.642 72.3921 109.7Z" fill="#111111"/>
<path d="M91.4177 115.359C91.5516 115.277 91.6146 115.165 91.6146 115.01V109.897C91.6146 109.739 91.5542 109.632 91.4177 109.548L87.0088 106.969C86.9353 106.927 86.867 106.906 86.804 106.906C86.7751 106.906 86.7095 106.914 86.5887 106.974L82.2114 109.548C82.0669 109.632 82.0039 109.739 82.0039 109.897V115.01C82.0039 115.167 82.0669 115.275 82.2114 115.359L86.5992 117.938C86.699 118.001 86.7804 118.016 86.909 117.988C86.9353 117.982 86.9642 117.967 86.9957 117.946L91.4177 115.359ZM86.804 116.877C86.6937 116.877 86.5861 116.846 86.4863 116.786L83.2433 114.879C83.0385 114.759 82.9308 114.576 82.9308 114.345V110.562C82.9308 110.334 83.0385 110.148 83.2433 110.027L86.4915 108.119C86.7594 107.985 86.9222 108.006 87.1191 108.119L90.3831 110.027C90.5826 110.151 90.6877 110.334 90.6877 110.562V114.345C90.6877 114.573 90.5826 114.756 90.3883 114.877L87.1217 116.786C87.0771 116.817 87.0167 116.846 86.9537 116.859C86.8985 116.872 86.8486 116.877 86.804 116.877Z" fill="#111111"/>
<path d="M111.064 107.485C110.959 107.485 110.938 107.506 110.938 107.611V117.299C110.938 117.404 110.959 117.424 111.064 117.424H118.04C118.146 117.424 118.167 117.404 118.167 117.299V116.474C118.167 116.369 118.146 116.348 118.04 116.348H112.521C112.211 116.348 112.027 116.162 112.027 115.856V107.611C112.027 107.506 112.006 107.485 111.901 107.485H111.064Z" fill="#111111"/>
<path d="M154.391 117.513C154.567 117.513 154.678 117.443 154.741 117.293L158.422 108.985C158.459 108.901 158.519 108.786 158.629 108.786C158.74 108.786 158.8 108.901 158.837 108.985L162.505 117.291C162.568 117.443 162.679 117.513 162.855 117.513H163.692C163.766 117.513 163.802 117.498 163.813 117.485C163.821 117.471 163.823 117.43 163.795 117.361L159.394 107.616C159.331 107.461 159.22 107.39 159.044 107.39H158.207C158.031 107.39 157.92 107.461 157.857 107.61V107.613L153.464 117.364C153.438 117.43 153.438 117.471 153.446 117.485C153.454 117.498 153.491 117.513 153.567 117.513H154.391Z" fill="#111111"/>
<path d="M170.778 113.041L173.42 117.257C173.467 117.372 173.543 117.419 173.682 117.419H174.622C174.63 117.419 174.638 117.419 174.646 117.419C174.646 117.416 174.643 117.411 174.643 117.409L171.918 113.062L172.222 113.041C172.574 113.015 172.91 112.923 173.223 112.766C173.535 112.609 173.814 112.402 174.045 112.156C174.276 111.91 174.46 111.622 174.593 111.3C174.725 110.98 174.79 110.635 174.79 110.276C174.79 109.925 174.722 109.577 174.586 109.242C174.449 108.907 174.263 108.603 174.029 108.341C173.798 108.082 173.519 107.872 173.202 107.713C172.889 107.558 172.545 107.479 172.183 107.479H167.036C166.931 107.479 166.91 107.5 166.91 107.605V108.43C166.91 108.535 166.931 108.556 167.036 108.556H172.151C172.388 108.571 172.598 108.629 172.784 108.726C172.971 108.823 173.131 108.951 173.265 109.106C173.393 109.257 173.501 109.433 173.58 109.629C173.659 109.823 173.706 110.032 173.722 110.252V110.266V110.279C173.685 110.729 173.53 111.114 173.265 111.428C172.992 111.753 172.616 111.931 172.154 111.962H167.139C167.068 111.962 167.01 111.981 166.96 112.017C166.934 112.038 166.91 112.064 166.91 112.127V117.291C166.91 117.396 166.931 117.417 167.036 117.417H167.863C167.968 117.417 167.989 117.396 167.989 117.291V113.528C167.989 113.219 168.176 113.036 168.483 113.036H170.778V113.041Z" fill="#111111"/>
<path d="M150.607 112.159C150.838 111.913 151.022 111.625 151.156 111.302C151.287 110.983 151.353 110.637 151.353 110.279C151.353 109.928 151.285 109.58 151.148 109.244C151.012 108.909 150.825 108.605 150.591 108.344C150.36 108.084 150.082 107.875 149.764 107.715C149.449 107.561 149.108 107.482 148.745 107.482H143.599C143.494 107.482 143.473 107.503 143.473 107.608V108.433C143.473 108.537 143.494 108.558 143.599 108.558H148.714C148.95 108.574 149.16 108.632 149.347 108.729C149.533 108.825 149.693 108.954 149.827 109.108C149.956 109.26 150.064 109.436 150.142 109.632C150.221 109.826 150.268 110.035 150.284 110.255V110.268V110.281C150.247 110.732 150.092 111.117 149.827 111.431C149.554 111.755 149.179 111.934 148.717 111.965H143.701C143.63 111.965 143.572 111.983 143.523 112.02C143.496 112.041 143.473 112.067 143.473 112.13V117.293C143.473 117.398 143.494 117.419 143.599 117.419H144.426C144.531 117.419 144.552 117.398 144.552 117.293V113.531C144.552 113.222 144.738 113.039 145.046 113.039L148.785 113.049V113.039C149.137 113.012 149.473 112.921 149.785 112.764C150.098 112.609 150.376 112.405 150.607 112.159Z" fill="#111111"/>
<path d="M178.462 117.422H181.996C182.677 117.422 183.33 117.291 183.934 117.034C184.541 116.778 185.077 116.421 185.531 115.974C185.982 115.529 186.345 114.997 186.607 114.392C186.867 113.79 187.001 113.135 187.001 112.449C187.001 111.923 186.92 111.407 186.757 110.92C186.594 110.43 186.366 109.975 186.074 109.566C185.783 109.158 185.426 108.791 185.014 108.477C184.599 108.163 184.139 107.919 183.643 107.747C183.128 107.569 182.592 107.479 182.049 107.479H178.462C178.357 107.479 178.336 107.5 178.336 107.605V108.43C178.336 108.535 178.357 108.556 178.462 108.556H181.915C182.448 108.592 182.955 108.713 183.435 108.917C183.916 109.121 184.344 109.396 184.709 109.734C185.077 110.074 185.373 110.48 185.591 110.938C185.812 111.402 185.925 111.91 185.925 112.449C185.925 112.981 185.825 113.489 185.631 113.958C185.436 114.426 185.166 114.843 184.822 115.196C184.478 115.55 184.071 115.83 183.611 116.034C183.149 116.241 182.645 116.343 182.12 116.343H179.909C179.599 116.343 179.415 116.157 179.415 115.851V114.222C179.415 114.117 179.394 114.096 179.289 114.096H178.462C178.357 114.096 178.336 114.117 178.336 114.222V117.293C178.336 117.401 178.357 117.422 178.462 117.422Z" fill="#111111"/>
<path d="M62.3182 117.081C62.8119 117.301 63.3449 117.414 63.9016 117.414C64.5187 117.414 65.0412 117.343 65.4561 117.204C65.8684 117.066 66.2124 116.893 66.4802 116.686C66.7428 116.482 66.945 116.264 67.0815 116.039C67.226 115.798 67.3362 115.568 67.4071 115.356C67.478 115.146 67.52 114.971 67.5306 114.835C67.5437 114.693 67.5516 114.609 67.5516 114.581C67.5516 114.175 67.4912 113.821 67.3704 113.536C67.247 113.243 67.092 112.994 66.9108 112.792C66.7323 112.596 66.5301 112.436 66.3121 112.324C66.0679 112.201 65.8316 112.098 65.6084 112.025C65.3852 111.952 65.183 111.902 65.0097 111.876C64.8312 111.85 64.6999 111.831 64.6211 111.821C64.6027 111.818 64.5869 111.816 64.5659 111.813H64.5633C64.2718 111.758 64.004 111.708 63.7624 111.669C63.4788 111.619 63.2294 111.543 63.0245 111.444C62.7882 111.329 62.5992 111.161 62.4626 110.949C62.3234 110.732 62.2552 110.454 62.2552 110.103C62.2552 109.593 62.4784 109.174 62.8985 108.893C63.2793 108.639 63.7966 108.511 64.4399 108.511C64.7419 108.522 65.0202 108.553 65.2776 108.603C65.5191 108.66 65.7476 108.744 65.9708 108.857C66.0732 108.909 66.1703 108.969 66.257 109.04C66.3016 109.074 66.3804 109.069 66.4408 109.027L67.05 108.579C67.113 108.535 67.1209 108.472 67.1235 108.438C67.1235 108.404 67.1157 108.338 67.05 108.289C66.8084 108.1 66.5353 107.938 66.2412 107.807C65.7423 107.582 65.2067 107.469 64.6526 107.469C64.0329 107.469 63.5077 107.534 63.0902 107.665C62.6753 107.796 62.3287 107.959 62.0609 108.147C61.8009 108.333 61.5987 108.535 61.4595 108.752C61.3125 108.982 61.2048 109.197 61.1392 109.391C61.0735 109.587 61.0341 109.752 61.021 109.878C61.0079 110.004 61 110.085 61 110.111C61 110.459 61.0551 110.766 61.1654 111.017C61.2783 111.279 61.4201 111.501 61.5882 111.685C61.7563 111.868 61.9479 112.022 62.1554 112.14C62.3838 112.269 62.6044 112.373 62.8119 112.452C63.0193 112.53 63.2057 112.588 63.3685 112.619C63.5313 112.654 63.6495 112.674 63.723 112.685C63.7414 112.688 63.7598 112.69 63.7834 112.695C64.0749 112.75 64.3585 112.811 64.6237 112.871C64.9204 112.939 65.1856 113.038 65.4193 113.161C65.6767 113.298 65.8841 113.481 66.0391 113.706C66.2019 113.944 66.2833 114.24 66.2833 114.591C66.2833 115.081 66.0784 115.505 65.6767 115.858C65.2881 116.199 64.7576 116.369 64.0985 116.369C63.7519 116.369 63.4447 116.327 63.1847 116.246C62.9326 116.167 62.7226 116.076 62.5519 115.976C62.4364 115.908 62.3392 115.843 62.2578 115.775L61.5199 116.319C61.4569 116.364 61.449 116.427 61.4464 116.461C61.4464 116.495 61.4543 116.56 61.5199 116.607C61.7589 116.793 62.0293 116.953 62.3182 117.081Z" fill="#111111"/>
<path d="M98.9933 117.115C99.0406 117.202 99.122 117.212 99.1561 117.212C99.1902 117.212 99.2716 117.202 99.3189 117.113L99.8178 116.165C99.8467 116.11 99.8467 116.047 99.8178 115.995L95.3775 107.59C95.346 107.529 95.2829 107.49 95.2147 107.49H94.138C94.0435 107.49 93.9963 107.553 93.9805 107.579C93.9647 107.605 93.9306 107.679 93.9752 107.76L98.9933 117.115Z" fill="#111111"/>
<path d="M98.1224 107.49C98.0279 107.49 97.9806 107.553 97.9649 107.579C97.9491 107.605 97.915 107.676 97.9596 107.76L102.799 117.105C102.846 117.197 102.925 117.207 102.962 117.205C102.996 117.205 103.077 117.194 103.125 117.108L108.122 107.762C108.166 107.679 108.132 107.608 108.116 107.582C108.101 107.556 108.053 107.493 107.959 107.493H106.885C106.867 107.493 106.848 107.495 106.835 107.501L102.97 115.11L99.354 107.571C99.3198 107.524 99.2647 107.495 99.2069 107.495H98.1224V107.49Z" fill="#111111"/>
<path d="M140.375 115.316C140.509 115.235 140.572 115.123 140.572 114.968V109.854C140.572 109.7 140.509 109.587 140.375 109.506L135.966 106.927C135.892 106.885 135.824 106.864 135.761 106.864C135.732 106.864 135.667 106.872 135.546 106.932L131.168 109.506C131.024 109.59 130.961 109.7 130.961 109.854V114.968C130.961 115.125 131.024 115.232 131.168 115.316L135.556 117.895C135.656 117.958 135.74 117.974 135.866 117.945C135.892 117.94 135.921 117.924 135.953 117.903L140.375 115.316ZM135.761 116.835C135.651 116.835 135.543 116.804 135.443 116.743L132.2 114.837C131.996 114.717 131.888 114.531 131.888 114.303V110.519C131.888 110.291 131.996 110.106 132.2 109.985L135.449 108.076C135.716 107.943 135.879 107.964 136.076 108.076L139.34 109.985C139.54 110.108 139.645 110.291 139.645 110.519V114.303C139.645 114.531 139.54 114.714 139.343 114.834L136.076 116.743C136.032 116.777 135.968 116.804 135.908 116.817C135.85 116.83 135.806 116.835 135.761 116.835Z" fill="#111111"/>
<path d="M121.507 107.346H127.657C127.759 107.346 127.84 107.43 127.84 107.529V108.142C127.84 108.244 127.756 108.325 127.657 108.325H121.507C121.404 108.325 121.323 108.241 121.323 108.142V107.529C121.32 107.427 121.404 107.346 121.507 107.346ZM121.504 111.912H126.74C126.843 111.912 126.924 111.994 126.924 112.096V112.708C126.924 112.811 126.843 112.892 126.74 112.892H121.504C121.402 112.892 121.32 112.811 121.32 112.708V112.096C121.32 111.996 121.404 111.912 121.504 111.912ZM121.507 116.453H127.659C127.762 116.453 127.843 116.537 127.843 116.636V117.249C127.843 117.351 127.759 117.432 127.659 117.432H121.507C121.404 117.432 121.323 117.348 121.323 117.249V116.636C121.32 116.537 121.404 116.453 121.507 116.453Z" fill="#111111"/>
</g>
<g clip-path="url(#clip1_320_134189)">
<path d="M219 16.0005C212.383 16.0005 207 21.3839 207 28.0005C207 34.617 212.383 40.0005 219 40.0005C225.617 40.0005 231 34.617 231 28.0005C231 21.3839 225.617 16.0005 219 16.0005ZM225.707 24.8426L218.038 32.4516C217.586 32.9027 216.865 32.9328 216.383 32.4817L212.323 28.7824C211.842 28.3313 211.812 27.5794 212.233 27.0982C212.684 26.617 213.436 26.587 213.917 27.0381L217.135 29.9855L223.992 23.1283C224.474 22.6471 225.226 22.6471 225.707 23.1283C226.188 23.6095 226.188 24.3614 225.707 24.8426Z" fill="#111111"/>
</g>
<defs>
<clipPath id="clip0_320_134189">
<rect width="126" height="75" fill="white" transform="translate(61 43.0005)"/>
</clipPath>
<clipPath id="clip1_320_134189">
<rect width="24" height="24" fill="white" transform="translate(207 16.0005)"/>
</clipPath>
</defs>
</svg>
