<svg width="454" height="148" viewBox="0 0 454 148" fill="none" xmlns="http://www.w3.org/2000/svg">
<path d="M406.481 66.5685V64.9525C405.062 64.7712 403.804 64.2645 402.705 63.4325L403.953 61.6085C404.87 62.3018 405.74 62.7338 406.561 62.9045V60.3605C405.366 60.0405 404.492 59.6245 403.937 59.1125C403.393 58.5898 403.121 57.8645 403.121 56.9365C403.121 56.0618 403.425 55.3472 404.033 54.7925C404.641 54.2378 405.457 53.9072 406.481 53.8005V52.8725H408.145V53.8325C409.222 53.9818 410.214 54.3765 411.121 55.0165L410.049 56.8885C409.366 56.4298 408.705 56.1152 408.065 55.9445V58.3605C409.292 58.6912 410.177 59.1285 410.721 59.6725C411.265 60.2058 411.537 60.9258 411.537 61.8325C411.537 62.7072 411.228 63.4218 410.609 63.9765C410.001 64.5312 409.18 64.8672 408.145 64.9845V66.5685H406.481ZM406.561 57.9605V55.8005C405.825 55.8965 405.457 56.2378 405.457 56.8245C405.457 57.0805 405.532 57.2992 405.681 57.4805C405.841 57.6512 406.134 57.8112 406.561 57.9605ZM408.065 62.9845C408.822 62.8672 409.201 62.5152 409.201 61.9285C409.201 61.6512 409.116 61.4272 408.945 61.2565C408.785 61.0752 408.492 60.9045 408.065 60.7445V62.9845ZM425.174 65.1925C423.787 65.1925 422.56 64.7498 421.494 63.8645L422.79 61.9925C423.59 62.6325 424.406 62.9525 425.238 62.9525C425.899 62.9525 426.422 62.7232 426.806 62.2645C427.19 61.8058 427.424 61.1872 427.51 60.4085C426.912 60.9205 426.155 61.1765 425.238 61.1765C424.011 61.1765 423.035 60.8565 422.31 60.2165C421.595 59.5658 421.238 58.6698 421.238 57.5285C421.238 56.3978 421.632 55.4645 422.422 54.7285C423.222 53.9818 424.251 53.6085 425.51 53.6085C426.246 53.6085 426.859 53.7045 427.35 53.8965C427.851 54.0885 428.315 54.3978 428.742 54.8245C429.627 55.7098 430.07 57.1285 430.07 59.0805C430.07 60.9365 429.643 62.4192 428.79 63.5285C427.936 64.6378 426.731 65.1925 425.174 65.1925ZM424.214 58.6645C424.566 58.9738 425.04 59.1285 425.638 59.1285C426.235 59.1285 426.704 58.9738 427.046 58.6645C427.387 58.3445 427.558 57.9338 427.558 57.4325C427.558 56.9312 427.382 56.5205 427.03 56.2005C426.678 55.8805 426.198 55.7205 425.59 55.7205C424.992 55.7205 424.523 55.8805 424.182 56.2005C423.851 56.5098 423.686 56.9258 423.686 57.4485C423.686 57.9498 423.862 58.3552 424.214 58.6645ZM441.959 63.5445C441.031 64.6432 439.831 65.1925 438.359 65.1925C436.887 65.1925 435.693 64.6432 434.775 63.5445C433.858 62.4458 433.399 61.0645 433.399 59.4005C433.399 57.7472 433.863 56.3712 434.791 55.2725C435.719 54.1632 436.919 53.6085 438.391 53.6085C439.853 53.6085 441.042 54.1578 441.959 55.2565C442.887 56.3552 443.351 57.7365 443.351 59.4005C443.351 61.0538 442.887 62.4352 441.959 63.5445ZM436.599 61.9605C437.058 62.6325 437.655 62.9685 438.391 62.9685C439.127 62.9685 439.714 62.6378 440.151 61.9765C440.599 61.3045 440.823 60.4458 440.823 59.4005C440.823 58.3765 440.594 57.5285 440.135 56.8565C439.677 56.1738 439.085 55.8325 438.359 55.8325C437.634 55.8325 437.047 56.1685 436.599 56.8405C436.151 57.5018 435.927 58.3552 435.927 59.4005C435.927 60.4352 436.151 61.2885 436.599 61.9605ZM405.521 80.1605C404.678 80.1605 403.974 79.9258 403.409 79.4565C402.854 78.9872 402.577 78.3365 402.577 77.5045C402.577 76.5978 402.886 75.9152 403.505 75.4565C404.134 74.9978 404.977 74.7685 406.033 74.7685C406.748 74.7685 407.446 74.8858 408.129 75.1205V74.9765C408.129 73.9312 407.516 73.4085 406.289 73.4085C405.553 73.4085 404.764 73.5632 403.921 73.8725L403.313 72.0165C404.358 71.5578 405.468 71.3285 406.641 71.3285C407.932 71.3285 408.897 71.6485 409.537 72.2885C410.156 72.9072 410.465 73.8192 410.465 75.0245V80.0005H408.113V79.0725C407.462 79.7978 406.598 80.1605 405.521 80.1605ZM406.257 78.4805C406.822 78.4805 407.281 78.3418 407.633 78.0645C407.985 77.7765 408.161 77.4138 408.161 76.9765V76.5445C407.702 76.3312 407.185 76.2245 406.609 76.2245C406.076 76.2245 405.66 76.3312 405.361 76.5445C405.073 76.7472 404.929 77.0458 404.929 77.4405C404.929 77.7605 405.052 78.0165 405.297 78.2085C405.542 78.3898 405.862 78.4805 406.257 78.4805ZM416.453 80.0645L413.077 71.4245H415.653L417.573 77.1685L419.509 71.4245H422.037L418.661 80.0645H416.453ZM428.473 82.5925C427.075 82.5925 425.811 82.2938 424.681 81.6965L425.513 79.8725C426.441 80.3952 427.406 80.6565 428.409 80.6565C430.041 80.6565 430.857 79.8778 430.857 78.3205V77.9045C430.473 78.3738 430.062 78.7258 429.625 78.9605C429.198 79.1845 428.675 79.2965 428.057 79.2965C427.001 79.2965 426.099 78.9338 425.353 78.2085C424.617 77.4832 424.249 76.5018 424.249 75.2645C424.249 74.0378 424.622 73.0672 425.369 72.3525C426.115 71.6272 427.011 71.2645 428.057 71.2645C429.123 71.2645 430.046 71.6912 430.825 72.5445V71.4245H433.257V78.0645C433.257 79.5898 432.894 80.7152 432.169 81.4405C431.401 82.2085 430.169 82.5925 428.473 82.5925ZM427.273 76.7365C427.667 77.0992 428.163 77.2805 428.761 77.2805C429.358 77.2805 429.854 77.0938 430.249 76.7205C430.654 76.3472 430.857 75.8618 430.857 75.2645C430.857 74.6885 430.654 74.2138 430.249 73.8405C429.854 73.4672 429.358 73.2805 428.761 73.2805C428.163 73.2805 427.667 73.4672 427.273 73.8405C426.878 74.2138 426.681 74.6992 426.681 75.2965C426.681 75.8832 426.878 76.3632 427.273 76.7365Z" fill="#111111"/>
<path d="M404.481 14.5685V12.9525C403.062 12.7712 401.804 12.2645 400.705 11.4325L401.953 9.60849C402.87 10.3018 403.74 10.7338 404.561 10.9045V8.36049C403.366 8.04049 402.492 7.62449 401.937 7.11249C401.393 6.58982 401.121 5.86449 401.121 4.93649C401.121 4.06182 401.425 3.34715 402.033 2.79249C402.641 2.23782 403.457 1.90715 404.481 1.80049V0.872488H406.145V1.83249C407.222 1.98182 408.214 2.37649 409.121 3.01649L408.049 4.88849C407.366 4.42982 406.705 4.11515 406.065 3.94449V6.36049C407.292 6.69115 408.177 7.12849 408.721 7.67249C409.265 8.20582 409.537 8.92582 409.537 9.83249C409.537 10.7072 409.228 11.4218 408.609 11.9765C408.001 12.5312 407.18 12.8672 406.145 12.9845V14.5685H404.481ZM404.561 5.96049V3.80049C403.825 3.89649 403.457 4.23782 403.457 4.82449C403.457 5.08049 403.532 5.29915 403.681 5.48049C403.841 5.65115 404.134 5.81115 404.561 5.96049ZM406.065 10.9845C406.822 10.8672 407.201 10.5152 407.201 9.92849C407.201 9.65115 407.116 9.42715 406.945 9.25649C406.785 9.07515 406.492 8.90449 406.065 8.74449V10.9845ZM419.126 13.0005V11.0485L422.854 7.99249C423.59 7.38449 424.096 6.89915 424.374 6.53649C424.651 6.16315 424.79 5.75249 424.79 5.30449C424.79 4.84582 424.651 4.48849 424.374 4.23249C424.096 3.97649 423.734 3.84849 423.286 3.84849C422.87 3.84849 422.491 3.96582 422.15 4.20049C421.819 4.42449 421.435 4.80849 420.998 5.35249L419.27 3.96049C419.856 3.16049 420.459 2.57382 421.078 2.20049C421.707 1.82715 422.496 1.64049 423.446 1.64049C424.608 1.64049 425.542 1.96049 426.246 2.60049C426.95 3.22982 427.302 4.07249 427.302 5.12849C427.302 5.73649 427.184 6.28582 426.95 6.77649C426.715 7.25649 426.411 7.68315 426.038 8.05649C425.664 8.41915 425.104 8.88849 424.358 9.46449L422.534 10.8725H427.414V13.0005H419.126ZM434.79 13.1925C433.169 13.1925 431.772 12.6325 430.598 11.5125L432.086 9.73649C432.982 10.5472 433.873 10.9525 434.758 10.9525C435.345 10.9525 435.804 10.8138 436.134 10.5365C436.465 10.2592 436.63 9.86982 436.63 9.36849C436.63 8.89915 436.449 8.53115 436.086 8.26449C435.724 7.98715 435.244 7.84849 434.646 7.84849C434.049 7.84849 433.425 7.98715 432.774 8.26449L431.35 7.32049L431.67 1.80049H438.55V3.96049H433.782L433.654 5.89649C434.166 5.76849 434.657 5.70449 435.126 5.70449C436.289 5.70449 437.233 6.00315 437.958 6.60049C438.684 7.19782 439.046 8.10449 439.046 9.32049C439.046 10.5045 438.657 11.4485 437.878 12.1525C437.11 12.8458 436.081 13.1925 434.79 13.1925ZM451.012 11.5445C450.084 12.6432 448.884 13.1925 447.412 13.1925C445.94 13.1925 444.746 12.6432 443.828 11.5445C442.911 10.4458 442.452 9.06449 442.452 7.40049C442.452 5.74715 442.916 4.37115 443.844 3.27249C444.772 2.16315 445.972 1.60849 447.444 1.60849C448.906 1.60849 450.095 2.15782 451.012 3.25649C451.94 4.35515 452.404 5.73649 452.404 7.40049C452.404 9.05382 451.94 10.4352 451.012 11.5445ZM445.652 9.96049C446.111 10.6325 446.708 10.9685 447.444 10.9685C448.18 10.9685 448.767 10.6378 449.204 9.97649C449.652 9.30449 449.876 8.44582 449.876 7.40049C449.876 6.37649 449.647 5.52849 449.188 4.85649C448.73 4.17382 448.138 3.83249 447.412 3.83249C446.687 3.83249 446.1 4.16849 445.652 4.84049C445.204 5.50182 444.98 6.35515 444.98 7.40049C444.98 8.43515 445.204 9.28849 445.652 9.96049Z" fill="#111111"/>
<path d="M406.481 119.568V117.952C405.062 117.771 403.804 117.264 402.705 116.432L403.953 114.608C404.87 115.302 405.74 115.734 406.561 115.904V113.36C405.366 113.04 404.492 112.624 403.937 112.112C403.393 111.59 403.121 110.864 403.121 109.936C403.121 109.062 403.425 108.347 404.033 107.792C404.641 107.238 405.457 106.907 406.481 106.8V105.872H408.145V106.832C409.222 106.982 410.214 107.376 411.121 108.016L410.049 109.888C409.366 109.43 408.705 109.115 408.065 108.944V111.36C409.292 111.691 410.177 112.128 410.721 112.672C411.265 113.206 411.537 113.926 411.537 114.832C411.537 115.707 411.228 116.422 410.609 116.976C410.001 117.531 409.18 117.867 408.145 117.984V119.568H406.481ZM406.561 110.96V108.8C405.825 108.896 405.457 109.238 405.457 109.824C405.457 110.08 405.532 110.299 405.681 110.48C405.841 110.651 406.134 110.811 406.561 110.96ZM408.065 115.984C408.822 115.867 409.201 115.515 409.201 114.928C409.201 114.651 409.116 114.427 408.945 114.256C408.785 114.075 408.492 113.904 408.065 113.744V115.984ZM429.766 116.544C428.838 117.643 427.638 118.192 426.166 118.192C424.694 118.192 423.499 117.643 422.582 116.544C421.664 115.446 421.206 114.064 421.206 112.4C421.206 110.747 421.67 109.371 422.598 108.272C423.526 107.163 424.726 106.608 426.198 106.608C427.659 106.608 428.848 107.158 429.766 108.256C430.694 109.355 431.158 110.736 431.158 112.4C431.158 114.054 430.694 115.435 429.766 116.544ZM424.406 114.96C424.864 115.632 425.462 115.968 426.198 115.968C426.934 115.968 427.52 115.638 427.958 114.976C428.406 114.304 428.63 113.446 428.63 112.4C428.63 111.376 428.4 110.528 427.942 109.856C427.483 109.174 426.891 108.832 426.166 108.832C425.44 108.832 424.854 109.168 424.406 109.84C423.958 110.502 423.734 111.355 423.734 112.4C423.734 113.435 423.958 114.288 424.406 114.96Z" fill="#111111"/>
<path d="M0.000976562 61.0005V59.0005H8.71973V61.0005H0.000976562Z" fill="#8F8F8F"/>
<path d="M20.961 61.0005V59.0005H29.6798V61.0005H20.961Z" fill="#8F8F8F"/>
<path d="M41.9211 61.0005V59.0005H50.6399V61.0005H41.9211Z" fill="#8F8F8F"/>
<path d="M62.8812 61.0005V59.0005H71.5999V61.0005H62.8812Z" fill="#8F8F8F"/>
<path d="M83.8413 61.0005V59.0005H92.56V61.0005H83.8413Z" fill="#8F8F8F"/>
<path d="M104.801 61.0005V59.0005H113.52V61.0005H104.801Z" fill="#8F8F8F"/>
<path d="M125.761 61.0005V59.0005H134.48V61.0005H125.761Z" fill="#8F8F8F"/>
<path d="M146.721 61.0005V59.0005H155.44V61.0005H146.721Z" fill="#8F8F8F"/>
<path d="M167.682 61.0005V59.0005H176.4V61.0005H167.682Z" fill="#8F8F8F"/>
<path d="M188.642 61.0005V59.0005H197.36V61.0005H188.642Z" fill="#8F8F8F"/>
<path d="M209.602 61.0005V59.0005H218.32V61.0005H209.602Z" fill="#8F8F8F"/>
<path d="M230.562 61.0005V59.0005H239.281V61.0005H230.562Z" fill="#8F8F8F"/>
<path d="M251.522 61.0005V59.0005H260.241V61.0005H251.522Z" fill="#8F8F8F"/>
<path d="M272.482 61.0005V59.0005H281.201V61.0005H272.482Z" fill="#8F8F8F"/>
<path d="M293.442 61.0005V59.0005H302.161V61.0005H293.442Z" fill="#8F8F8F"/>
<path d="M314.402 61.0005V59.0005H323.121V61.0005H314.402Z" fill="#8F8F8F"/>
<path d="M335.362 61.0005V59.0005H344.081V61.0005H335.362Z" fill="#8F8F8F"/>
<path d="M356.322 61.0005V59.0005H365.041V61.0005H356.322Z" fill="#8F8F8F"/>
<path d="M377.282 61.0005V59.0005H386.001V61.0005H377.282Z" fill="#8F8F8F"/>
<rect x="10.501" y="26.5005" width="24" height="94" rx="4.5" stroke="#111111"/>
<rect x="67.501" y="1.50049" width="24" height="119" rx="4.5" stroke="#111111"/>
<rect x="124.501" y="17.5005" width="24" height="103" rx="4.5" stroke="#111111"/>
<rect x="181.501" y="48.5005" width="24" height="72" rx="4.5" stroke="#111111"/>
<rect x="238.501" y="12.5005" width="24" height="108" rx="4.5" stroke="#111111"/>
<rect x="295.501" y="37.5005" width="24" height="83" rx="4.5" stroke="#111111"/>
<rect x="352.501" y="48.5005" width="24" height="72" rx="4.5" stroke="#111111"/>
<path d="M7.58498 143V131.8H8.86498L12.945 137.912L17.025 131.8H18.305V143H17.041V133.928L12.961 139.928H12.897L8.81698 133.944V143H7.58498ZM27.6516 141.928C26.8196 142.771 25.7903 143.192 24.5636 143.192C23.3369 143.192 22.3129 142.771 21.4916 141.928C20.6809 141.086 20.2756 140.067 20.2756 138.872C20.2756 137.688 20.6863 136.675 21.5076 135.832C22.3396 134.979 23.3689 134.552 24.5956 134.552C25.8223 134.552 26.8463 134.974 27.6676 135.816C28.4889 136.659 28.8996 137.678 28.8996 138.872C28.8996 140.056 28.4836 141.075 27.6516 141.928ZM24.5956 142.088C25.4809 142.088 26.2063 141.779 26.7716 141.16C27.3476 140.542 27.6356 139.779 27.6356 138.872C27.6356 137.976 27.3369 137.214 26.7396 136.584C26.1529 135.955 25.4276 135.64 24.5636 135.64C23.6783 135.64 22.9529 135.955 22.3876 136.584C21.8223 137.203 21.5396 137.966 21.5396 138.872C21.5396 139.768 21.8329 140.531 22.4196 141.16C23.0063 141.779 23.7316 142.088 24.5956 142.088ZM30.6514 143V134.728H31.8834V136.168C32.534 135.091 33.478 134.552 34.7154 134.552C35.6967 134.552 36.47 134.856 37.0354 135.464C37.6007 136.062 37.8834 136.862 37.8834 137.864V143H36.6514V138.168C36.6514 137.39 36.4487 136.782 36.0434 136.344C35.6487 135.896 35.0887 135.672 34.3634 135.672C33.6487 135.672 33.0567 135.912 32.5874 136.392C32.118 136.872 31.8834 137.496 31.8834 138.264V143H30.6514Z" fill="#111111"/>
<path d="M70.545 143V132.968H66.785V131.8H75.585V132.968H71.825V143H70.545ZM78.9214 143.176C77.94 143.176 77.1667 142.878 76.6014 142.28C76.036 141.672 75.7534 140.867 75.7534 139.864V134.728H76.9854V139.56C76.9854 140.339 77.1827 140.952 77.5774 141.4C77.9827 141.838 78.548 142.056 79.2734 142.056C79.988 142.056 80.58 141.816 81.0494 141.336C81.5187 140.856 81.7534 140.232 81.7534 139.464V134.728H82.9694V143H81.7534V141.56C81.0814 142.638 80.1374 143.176 78.9214 143.176ZM85.9967 139.368C86.0821 140.211 86.3967 140.883 86.9407 141.384C87.4954 141.875 88.1514 142.12 88.9087 142.12C89.9007 142.12 90.7701 141.731 91.5167 140.952L92.2847 141.64C91.3567 142.675 90.2207 143.192 88.8767 143.192C87.7141 143.192 86.7327 142.792 85.9327 141.992C85.1434 141.182 84.7487 140.142 84.7487 138.872C84.7487 137.667 85.1274 136.648 85.8847 135.816C86.6421 134.974 87.5861 134.552 88.7167 134.552C89.9007 134.552 90.8394 134.968 91.5327 135.8C92.2261 136.632 92.5727 137.678 92.5727 138.936C92.5727 139.096 92.5674 139.24 92.5567 139.368H85.9967ZM85.9967 138.376H91.3247C91.2501 137.576 90.9834 136.915 90.5247 136.392C90.0767 135.859 89.4634 135.592 88.6847 135.592C87.9807 135.592 87.3781 135.854 86.8767 136.376C86.3754 136.899 86.0821 137.566 85.9967 138.376Z" fill="#111111"/>
<path d="M123.721 143.08L119.721 131.8H121.097L124.297 141.128L127.369 131.768H128.409L131.481 141.128L134.681 131.8H136.009L132.009 143.08H130.937L127.865 133.992L124.777 143.08H123.721ZM137.305 139.368C137.39 140.211 137.705 140.883 138.249 141.384C138.804 141.875 139.46 142.12 140.217 142.12C141.209 142.12 142.078 141.731 142.825 140.952L143.593 141.64C142.665 142.675 141.529 143.192 140.185 143.192C139.022 143.192 138.041 142.792 137.241 141.992C136.452 141.182 136.057 140.142 136.057 138.872C136.057 137.667 136.436 136.648 137.193 135.816C137.95 134.974 138.894 134.552 140.025 134.552C141.209 134.552 142.148 134.968 142.841 135.8C143.534 136.632 143.881 137.678 143.881 138.936C143.881 139.096 143.876 139.24 143.865 139.368H137.305ZM137.305 138.376H142.633C142.558 137.576 142.292 136.915 141.833 136.392C141.385 135.859 140.772 135.592 139.993 135.592C139.289 135.592 138.686 135.854 138.185 136.376C137.684 136.899 137.39 137.566 137.305 138.376ZM149.03 143.176C147.974 143.176 147.051 142.787 146.262 142.008C145.472 141.219 145.078 140.168 145.078 138.856C145.078 137.566 145.472 136.526 146.262 135.736C147.051 134.947 147.974 134.552 149.03 134.552C150.331 134.552 151.387 135.139 152.198 136.312V131.32H153.43V143H152.198V141.336C151.366 142.563 150.31 143.176 149.03 143.176ZM149.254 142.072C150.054 142.072 150.752 141.768 151.35 141.16C151.947 140.552 152.246 139.779 152.246 138.84C152.246 137.923 151.947 137.166 151.35 136.568C150.752 135.96 150.054 135.656 149.254 135.656C148.422 135.656 147.728 135.95 147.174 136.536C146.619 137.112 146.342 137.891 146.342 138.872C146.342 139.822 146.624 140.595 147.19 141.192C147.755 141.779 148.443 142.072 149.254 142.072Z" fill="#111111"/>
<path d="M183.545 143V132.968H179.785V131.8H188.585V132.968H184.825V143H183.545ZM190.038 143V131.32H191.27V136.168C191.92 135.091 192.864 134.552 194.102 134.552C195.083 134.552 195.856 134.856 196.422 135.464C196.987 136.062 197.27 136.862 197.27 137.864V143H196.038V138.168C196.038 137.39 195.835 136.782 195.43 136.344C195.035 135.896 194.475 135.672 193.75 135.672C193.035 135.672 192.443 135.912 191.974 136.392C191.504 136.872 191.27 137.496 191.27 138.264V143H190.038ZM202.457 143.176C201.476 143.176 200.702 142.878 200.137 142.28C199.572 141.672 199.289 140.867 199.289 139.864V134.728H200.521V139.56C200.521 140.339 200.718 140.952 201.113 141.4C201.518 141.838 202.084 142.056 202.809 142.056C203.524 142.056 204.116 141.816 204.585 141.336C205.054 140.856 205.289 140.232 205.289 139.464V134.728H206.505V143H205.289V141.56C204.617 142.638 203.673 143.176 202.457 143.176Z" fill="#111111"/>
<path d="M241.585 143V131.8H249.633V132.968H242.849V136.968H248.913V138.12H242.849V143H241.585ZM251.397 143V134.728H252.629V136.888C252.949 136.174 253.402 135.603 253.989 135.176C254.576 134.75 255.248 134.552 256.005 134.584V135.912H255.909C254.96 135.912 254.176 136.243 253.557 136.904C252.938 137.566 252.629 138.499 252.629 139.704V143H251.397ZM257.433 132.92V131.56H258.841V132.92H257.433ZM257.513 143V134.728H258.745V143H257.513Z" fill="#111111"/>
<path d="M300.425 143.16C298.708 143.16 297.182 142.563 295.849 141.368L296.633 140.44C297.23 140.984 297.828 141.384 298.425 141.64C299.033 141.896 299.716 142.024 300.473 142.024C301.22 142.024 301.822 141.848 302.281 141.496C302.74 141.134 302.969 140.664 302.969 140.088C302.969 139.544 302.766 139.112 302.361 138.792C301.956 138.472 301.188 138.195 300.057 137.96C298.724 137.672 297.764 137.283 297.177 136.792C296.59 136.302 296.297 135.603 296.297 134.696C296.297 133.811 296.644 133.08 297.337 132.504C298.03 131.928 298.91 131.64 299.977 131.64C301.46 131.64 302.772 132.099 303.913 133.016L303.177 133.992C302.185 133.182 301.108 132.776 299.945 132.776C299.23 132.776 298.654 132.952 298.217 133.304C297.78 133.646 297.561 134.083 297.561 134.616C297.561 135.171 297.769 135.608 298.185 135.928C298.612 136.248 299.417 136.536 300.601 136.792C301.87 137.07 302.793 137.459 303.369 137.96C303.956 138.451 304.249 139.128 304.249 139.992C304.249 140.942 303.892 141.71 303.177 142.296C302.462 142.872 301.545 143.16 300.425 143.16ZM308.595 143.176C307.753 143.176 307.027 142.947 306.419 142.488C305.811 142.03 305.507 141.39 305.507 140.568C305.507 139.704 305.827 139.038 306.467 138.568C307.107 138.099 307.966 137.864 309.043 137.864C309.897 137.864 310.739 137.982 311.571 138.216V137.96C311.571 137.235 311.358 136.68 310.931 136.296C310.505 135.912 309.902 135.72 309.123 135.72C308.313 135.72 307.475 135.918 306.611 136.312L306.243 135.304C307.267 134.835 308.27 134.6 309.251 134.6C310.425 134.6 311.315 134.904 311.923 135.512C312.499 136.088 312.787 136.899 312.787 137.944V143H311.571V141.768C310.835 142.707 309.843 143.176 308.595 143.176ZM308.835 142.184C309.603 142.184 310.254 141.976 310.787 141.56C311.321 141.144 311.587 140.611 311.587 139.96V139.192C310.777 138.958 309.971 138.84 309.171 138.84C308.414 138.84 307.822 138.995 307.395 139.304C306.969 139.603 306.755 140.014 306.755 140.536C306.755 141.038 306.953 141.438 307.347 141.736C307.753 142.035 308.249 142.184 308.835 142.184ZM317.685 143.144C316.97 143.144 316.4 142.958 315.973 142.584C315.557 142.2 315.349 141.608 315.349 140.808V135.816H314.197V134.728H315.349V132.232H316.581V134.728H319.205V135.816H316.581V140.648C316.581 141.566 317.045 142.024 317.973 142.024C318.378 142.024 318.778 141.928 319.173 141.736V142.792C318.725 143.027 318.229 143.144 317.685 143.144Z" fill="#111111"/>
<path d="M355.425 143.16C353.708 143.16 352.182 142.563 350.849 141.368L351.633 140.44C352.23 140.984 352.828 141.384 353.425 141.64C354.033 141.896 354.716 142.024 355.473 142.024C356.22 142.024 356.822 141.848 357.281 141.496C357.74 141.134 357.969 140.664 357.969 140.088C357.969 139.544 357.766 139.112 357.361 138.792C356.956 138.472 356.188 138.195 355.057 137.96C353.724 137.672 352.764 137.283 352.177 136.792C351.59 136.302 351.297 135.603 351.297 134.696C351.297 133.811 351.644 133.08 352.337 132.504C353.03 131.928 353.91 131.64 354.977 131.64C356.46 131.64 357.772 132.099 358.913 133.016L358.177 133.992C357.185 133.182 356.108 132.776 354.945 132.776C354.23 132.776 353.654 132.952 353.217 133.304C352.78 133.646 352.561 134.083 352.561 134.616C352.561 135.171 352.769 135.608 353.185 135.928C353.612 136.248 354.417 136.536 355.601 136.792C356.87 137.07 357.793 137.459 358.369 137.96C358.956 138.451 359.249 139.128 359.249 139.992C359.249 140.942 358.892 141.71 358.177 142.296C357.462 142.872 356.545 143.16 355.425 143.16ZM364.171 143.176C363.19 143.176 362.417 142.878 361.851 142.28C361.286 141.672 361.003 140.867 361.003 139.864V134.728H362.235V139.56C362.235 140.339 362.433 140.952 362.827 141.4C363.233 141.838 363.798 142.056 364.523 142.056C365.238 142.056 365.83 141.816 366.299 141.336C366.769 140.856 367.003 140.232 367.003 139.464V134.728H368.219V143H367.003V141.56C366.331 142.638 365.387 143.176 364.171 143.176ZM370.511 143V134.728H371.743V136.168C372.393 135.091 373.337 134.552 374.575 134.552C375.556 134.552 376.329 134.856 376.895 135.464C377.46 136.062 377.743 136.862 377.743 137.864V143H376.511V138.168C376.511 137.39 376.308 136.782 375.903 136.344C375.508 135.896 374.948 135.672 374.223 135.672C373.508 135.672 372.916 135.912 372.447 136.392C371.977 136.872 371.743 137.496 371.743 138.264V143H370.511Z" fill="#111111"/>
</svg>
