<svg width="247" height="160" viewBox="0 0 247 160" fill="none" xmlns="http://www.w3.org/2000/svg">
<rect x="0.500977" y="0.500488" width="246" height="159" rx="11.5" fill="white" fill-opacity="0.4" stroke="#111111"/>
<g clip-path="url(#clip0_2_18868)">
<path d="M139.95 98.4172H107.865L91.8232 70.7088L107.865 43.0005H139.95L155.992 70.7088L139.95 98.4172ZM108.624 97.108H139.191L154.477 70.7088L139.191 44.3097H108.624L93.3384 70.7088L108.624 97.108Z" fill="#111111"/>
<path d="M129.654 71.874C129.436 71.9002 129.044 72.0835 128.866 72.4029C128.732 72.6412 128.811 72.9528 129.05 73.089C129.128 73.1335 129.215 73.1544 129.299 73.1544C129.47 73.1544 129.633 73.068 129.724 72.9057C129.74 72.89 129.787 72.8612 129.78 72.8585C130.053 72.8245 130.247 72.5757 130.213 72.3034C130.176 72.0337 129.927 71.84 129.654 71.874Z" fill="#FAFF00"/>
<path d="M118.956 70.604C118.953 70.5516 118.956 70.494 118.974 70.4364C118.956 70.4914 118.951 70.549 118.956 70.604Z" fill="#FAFF00"/>
<path d="M118.956 70.604C118.953 70.5516 118.956 70.494 118.974 70.4364C118.956 70.4914 118.951 70.549 118.956 70.604Z" fill="#FAFF00"/>
<path d="M118.962 70.6286C118.962 70.6204 118.956 70.6123 118.956 70.6041C118.956 70.6123 118.959 70.6204 118.962 70.6286Z" fill="#FAFF00"/>
<path d="M118.962 70.6286C118.962 70.6204 118.956 70.6123 118.956 70.6041C118.956 70.6123 118.959 70.6204 118.962 70.6286Z" fill="#FAFF00"/>
<path d="M144.414 79.5093C143.398 79.4438 142.657 78.7526 142.455 78.5431C142.19 78.2681 141.386 77.1003 140.74 76.1629C140.231 75.4245 139.792 74.7856 139.574 74.5133C139.173 74.0132 138.456 71.8477 138.304 71.0779C138.275 70.9339 138.262 70.7637 138.259 70.583C139.018 70.3186 140.438 70.2636 140.796 70.329C141.076 70.3788 141.352 70.5595 141.783 70.9758C142.137 71.3162 142.437 71.4262 142.707 71.4262C142.904 71.4262 143.085 71.3686 143.261 71.3005C143.545 71.1905 143.805 70.8815 143.981 70.6275C144.325 70.5961 144.65 70.4023 144.934 70.1981C145.401 69.8577 145.454 69.3 145.091 68.5406C145.018 68.3861 144.926 68.1793 144.824 67.9541C144.713 67.7054 144.59 67.4357 144.469 67.1764C144.222 66.6527 143.989 66.2574 143.639 66.0243C143.568 65.9772 143.356 65.786 143.188 65.6342C143.067 65.5268 142.938 65.4116 142.815 65.3016C142.849 65.2074 142.875 65.1131 142.883 65.0162C142.901 64.7675 142.823 64.5397 142.655 64.3616C142.518 64.215 142.263 64.0474 141.825 64.0605C141.596 64.0683 141.342 64.1338 141.09 64.2359C140.436 64.0579 139.359 64.0605 138.992 64.0762C138.747 64.0893 138.351 64.0998 137.925 64.1129C137.264 64.1338 136.513 64.1574 136.14 64.1862C135.581 64.2307 134.885 64.2097 134.617 64.1783C134.396 64.1521 134.165 64.0998 133.924 64.0422C133.49 63.9427 132.997 63.8248 132.427 63.8432C131.552 63.8641 130.691 64.393 130.279 64.647L130.19 64.702C130.024 64.7989 129.205 64.9219 128.296 64.901C127.115 64.8722 123.835 64.6523 122.892 64.5501C122.643 64.5239 122.28 64.4506 121.863 64.3668C120.734 64.139 119.19 63.8301 117.759 63.9715C116.11 64.1338 114.49 64.5658 112.948 65.2571L112.594 65.4195C111.462 65.9353 109.907 66.6423 108.285 66.5218C106.903 66.4171 104.569 65.6918 104.569 63.618C104.569 62.5104 105.85 61.9395 106.399 61.9395C107.26 61.9395 108.035 62.6203 108.103 62.8089C108.103 63.165 108.03 63.4006 107.972 63.5892C107.891 63.8536 107.767 64.2542 108.138 64.5999C108.434 64.8748 109.072 65.0188 109.624 64.7779C110.078 64.5816 110.616 64.0814 110.616 62.8089C110.616 60.5177 108.111 59.452 106.418 59.452C104.669 59.452 102.135 60.9367 102.135 63.618C102.135 66.3307 103.941 68.3443 106.846 68.8732C108.899 69.2476 110.275 69.0617 111.265 68.7161C110.981 69.6037 110.559 70.8553 110.201 71.6409C109.598 72.9658 108.082 74.8327 107.843 75.0187C107.78 75.0606 107.707 75.1051 107.628 75.1496C107.279 75.3564 106.846 75.613 106.706 76.0503C106.617 76.3357 105.567 78.9018 105.183 79.8209C104.829 80.6719 105.178 81.1458 105.459 81.5281C105.522 81.6145 105.593 81.7062 105.659 81.8109C105.992 82.3398 106.615 82.5572 107.148 82.5572C107.376 82.5572 107.591 82.5153 107.759 82.4419C108.397 82.1591 108.342 81.2584 108.219 80.8892C108.145 80.6745 107.969 80.5279 107.746 80.342C107.686 80.2922 107.599 80.2189 107.536 80.1587C107.709 79.7345 108.316 78.6976 108.479 78.53C108.678 78.3493 109.65 77.6895 110.425 77.2496C111.231 76.794 113.051 75.6026 113.92 74.982C114.408 74.6337 114.86 74.2488 115.183 73.9582C115.516 74.55 115.679 74.9637 115.69 75.0998C115.802 77.1056 115.721 77.535 115.703 77.6004C115.682 77.679 115.65 77.7549 115.619 77.8335C115.453 78.242 115.172 78.9254 115.965 79.7842C116.317 80.1639 118.26 82.1277 119.032 82.2953C119.048 82.2979 120.093 82.4838 121.049 82.4838C121.69 82.4838 122.294 82.4 122.519 82.1225C122.764 81.824 122.806 81.3972 122.635 81.007C122.435 80.554 122.002 80.266 121.477 80.2346C121.233 80.2189 121.02 80.2398 120.831 80.2582C120.434 80.2974 120.217 80.3184 119.873 80.0356C119.657 79.8575 119.082 79.3862 119.043 79.2474C119.127 78.8887 119.804 76.3148 120.046 75.6549C120.08 75.5581 120.127 75.4402 120.177 75.3093C120.398 74.7332 120.613 74.1467 120.765 73.5942C121.38 73.7618 122.475 74.0158 123.717 74.1153C124.961 74.2148 125.865 74.1101 126.592 74.0289C126.697 74.0158 126.792 74.0079 126.889 73.9975C126.755 74.5526 126.576 75.3407 126.511 75.922C126.456 76.396 126.416 77.1186 126.382 77.7549C126.356 78.2655 126.319 78.9018 126.298 79.0092C126.188 79.3365 126.351 79.6507 126.508 79.957C126.561 80.0618 126.65 80.2346 126.66 80.2948C126.676 80.4362 126.871 81.5124 127.201 81.8188C127.495 82.0885 128.622 82.2194 129.142 82.2194C129.215 82.2194 129.276 82.2168 129.32 82.2115C130.035 82.133 130.57 81.6093 130.51 81.0437L130.505 80.973C130.481 80.7138 130.429 80.1089 129.531 80.0539C129.397 80.0461 129.276 80.0461 129.171 80.0461C129.134 80.0461 129.095 80.0461 129.058 80.0461C129.042 80.0016 129.024 79.9544 129.008 79.9047C128.916 79.6559 128.832 79.4176 128.877 79.2108C128.963 78.8233 129.615 77.0506 129.945 76.2624C130.192 75.6785 130.773 74.5447 131.025 74.0629C131.151 74.0472 131.279 74.0289 131.403 74.0132C131.686 73.9791 131.952 73.9451 132.185 73.9006C132.542 73.8351 132.947 73.6911 133.233 73.5759C133.853 74.3457 134.929 75.4717 135.407 75.8382C135.693 76.0582 136.227 76.5688 136.741 77.061C137.3 77.5978 137.831 78.1058 138.12 78.3127L138.332 78.4645C139.42 79.2317 140.018 79.7345 140.115 79.9544C140.42 80.6431 142.135 81.8764 142.796 81.9863C142.804 81.989 143.261 82.0518 143.802 82.0518C144.548 82.0518 145.462 81.9313 145.622 81.3579C145.727 80.9861 145.785 80.4519 145.48 80.0251C145.317 79.813 145.007 79.5486 144.414 79.5093ZM104.923 61.3871C104.916 61.2142 104.816 61.0676 104.674 60.9864C105.162 60.6853 105.688 60.5073 106.134 60.4549V60.4889C106.134 60.6879 106.252 60.8581 106.423 60.9367C106.41 60.9367 106.397 60.9341 106.383 60.9341C105.932 60.9367 105.401 61.0964 104.923 61.3871ZM109.605 62.801C109.605 63.343 109.479 63.7122 109.248 63.8405C109.13 63.906 108.996 63.9034 108.904 63.8929C108.907 63.8877 108.907 63.8824 108.91 63.8772C108.98 63.652 109.085 63.309 109.085 62.8036C109.085 62.6596 109.038 62.5025 108.952 62.3454L109.001 62.2957C109.196 62.1019 109.196 61.7877 109.001 61.5913C108.807 61.3975 108.492 61.3975 108.295 61.5913L108.277 61.6096C107.854 61.2928 107.31 61.044 106.746 60.9655C106.956 60.9131 107.113 60.7377 107.124 60.5177C108.237 60.7377 109.605 61.4499 109.605 62.801ZM103.941 61.5808C103.962 61.7536 104.065 61.8976 104.214 61.971C104.028 62.1778 103.87 62.4135 103.755 62.6727C103.616 62.6858 103.484 62.7513 103.398 62.8743C103.238 63.0969 103.29 63.4085 103.513 63.5682L103.555 63.597C103.555 63.6023 103.555 63.6049 103.555 63.6075C103.555 64.0552 103.634 64.4611 103.776 64.8303C103.595 64.8696 103.453 65.0005 103.406 65.1786C103.219 64.6994 103.119 64.1731 103.119 63.6075C103.119 62.7644 103.458 62.0888 103.941 61.5808ZM103.692 65.7703C103.75 65.7939 103.81 65.807 103.876 65.807H103.928C104.054 65.807 104.167 65.7546 104.256 65.6787C104.516 66.0138 104.839 66.3019 105.204 66.5428C105.023 66.493 104.824 66.5454 104.695 66.6973L104.632 66.7706C104.619 66.7863 104.614 66.8046 104.603 66.8229C104.235 66.5166 103.928 66.1657 103.692 65.7703ZM105.433 67.365L105.451 67.344C105.617 67.1502 105.601 66.8701 105.433 66.6894C106.066 67.0612 106.804 67.3047 107.565 67.4304C107.552 67.4409 107.536 67.4461 107.526 67.4592L107.35 67.6451C107.274 67.7263 107.239 67.8258 107.226 67.9253C107.155 67.9122 107.087 67.9044 107.011 67.8913C106.431 67.7813 105.9 67.6032 105.433 67.365ZM128.084 78.3415C127.832 78.3938 127.569 78.4488 127.561 78.4331C127.561 78.4043 127.579 78.3074 127.669 78.2158C127.748 78.1346 127.858 78.0875 127.971 78.0875C127.695 78.0875 127.472 78.31 127.472 78.585C127.472 78.8259 127.648 79.0196 127.879 79.0641C127.797 79.5276 127.942 79.9413 128.052 80.2451C128.076 80.3105 128.099 80.3734 128.118 80.4362C128.312 81.0437 128.84 81.0385 129.158 81.0411C129.244 81.0411 129.341 81.0411 129.452 81.0463C129.467 81.0463 129.481 81.0489 129.491 81.0489C129.491 81.0515 129.491 81.0568 129.491 81.0594L129.494 81.0961C129.454 81.1353 129.349 81.2034 129.192 81.2217C128.913 81.2479 128.16 81.1406 127.868 81.0594C127.784 80.8604 127.661 80.4153 127.635 80.1848C127.608 79.9466 127.49 79.7214 127.377 79.5014C127.335 79.4203 127.275 79.3024 127.251 79.2344C127.291 79.0511 127.312 78.7028 127.362 77.8073C127.364 77.7445 127.369 77.6816 127.372 77.6162C127.427 77.6371 127.485 77.6502 127.545 77.6502C127.603 77.6502 127.664 77.6397 127.721 77.6162C127.782 77.5926 127.824 77.5795 127.855 77.569C127.971 77.5297 128.039 77.5036 128.176 77.4145C128.407 77.2653 128.475 76.9589 128.325 76.7259C128.176 76.4955 127.868 76.4274 127.635 76.5766C127.587 76.6081 127.587 76.6081 127.535 76.6238C127.506 76.6342 127.469 76.6473 127.425 76.663C127.44 76.4274 127.459 76.2074 127.48 76.032C127.551 75.414 127.769 74.4976 127.897 73.9791C128.113 74.0079 128.333 74.0525 128.551 74.097C128.921 74.1755 129.299 74.2541 129.672 74.2541C129.709 74.2541 129.746 74.2488 129.783 74.2488C129.51 74.7882 129.179 75.4533 129.003 75.8749C128.772 76.4405 128.344 77.5769 128.084 78.3415ZM144.679 80.9599C144.343 81.062 143.385 81.0803 142.946 81.007C142.586 80.939 141.174 79.9151 141.013 79.5564C140.83 79.1401 140.273 78.6557 139.383 78.0063C139.525 77.8492 139.556 77.6135 139.443 77.425C139.443 77.425 139.378 77.3124 139.336 77.1422C139.273 76.8751 139.002 76.7102 138.734 76.7756C138.514 76.828 138.369 77.0218 138.361 77.2365C138.093 76.9956 137.739 76.6578 137.416 76.3462C137.24 76.176 137.069 76.0137 136.904 75.8566C136.93 75.8592 136.954 75.8697 136.983 75.867C137.258 75.8435 137.461 75.6052 137.44 75.3303C137.419 75.0841 137.279 74.9558 137.195 74.8982C136.964 74.7411 136.718 74.8144 136.557 74.8616L136.458 74.8904C136.308 74.9323 136.2 75.037 136.142 75.1653C136.095 75.126 136.043 75.0789 136.001 75.0475C135.914 74.982 135.809 74.8877 135.693 74.7804C135.693 74.7804 135.693 74.7804 135.693 74.7778C135.696 74.7621 135.699 74.7463 135.699 74.7306C135.838 74.5971 135.893 74.3929 135.822 74.2017C135.709 73.8875 135.447 73.8011 135.255 73.822C135.103 73.8377 135 73.9084 134.921 74.0001C134.346 73.3821 133.782 72.717 133.69 72.5311C133.446 72.0415 132.314 71.0727 131.975 70.7873C131.765 70.6092 131.45 70.638 131.271 70.8475C131.096 71.057 131.122 71.3712 131.332 71.5492C131.799 71.942 132.33 72.429 132.611 72.738C132.403 72.8113 132.177 72.882 131.988 72.9187C131.944 72.9265 131.896 72.9344 131.849 72.9396C131.975 72.738 131.949 72.4735 131.765 72.3086C131.56 72.1253 131.245 72.1436 131.061 72.3505C130.946 72.4814 130.738 72.7328 130.665 72.937C130.644 72.992 130.641 73.047 130.641 73.1046C130.41 73.1386 130.171 73.1805 129.932 73.2355C129.628 73.3062 129.208 73.2172 128.766 73.1229C128.496 73.0653 128.22 73.0103 127.937 72.9789C127.979 72.9108 128.023 72.8401 128.071 72.7747C128.228 72.5495 128.176 72.2405 127.95 72.0808C127.724 71.9237 127.414 71.976 127.254 72.2012C126.96 72.6149 126.868 72.8532 126.839 72.9972C126.716 73.0103 126.597 73.0208 126.463 73.0365C125.923 73.0993 125.274 73.1674 124.463 73.1517C124.489 73.1177 124.512 73.081 124.528 73.0365C124.623 72.7799 124.491 72.4919 124.232 72.3976C123.651 72.1855 123.184 72.7668 123.005 73.0339C122.126 72.9134 121.375 72.7301 120.941 72.6097C120.957 72.45 120.965 72.2955 120.954 72.1515C120.936 71.8765 120.694 71.6697 120.424 71.688C120.274 71.6985 120.148 71.777 120.062 71.887C120.006 71.7692 119.904 71.6723 119.77 71.6278C119.747 71.6199 119.691 71.6068 119.62 71.5937C119.584 71.5885 119.505 71.5728 119.447 71.5571C119.329 71.4262 119.143 71.3633 118.956 71.4078C118.688 71.4733 118.525 71.743 118.591 72.0101C118.696 72.4369 119.177 72.5233 119.481 72.5783C119.523 72.5887 119.568 72.594 119.61 72.594C119.739 72.594 119.857 72.539 119.949 72.4552C119.925 72.772 119.836 73.1596 119.718 73.5523C119.697 73.4581 119.66 73.369 119.589 73.2957C119.46 73.1439 119.216 72.8637 118.869 72.9213C118.678 72.9527 118.518 73.0836 118.444 73.2695C118.342 73.5235 118.465 73.8142 118.722 73.9163C118.759 73.932 118.799 73.9425 118.838 73.9477C118.864 73.9765 118.885 74.0001 118.898 74.0132C118.993 74.1074 119.116 74.1546 119.242 74.1546C119.358 74.1546 119.473 74.1074 119.568 74.0263C119.45 74.3719 119.326 74.6966 119.232 74.9453C119.179 75.0815 119.132 75.2046 119.095 75.3067C119.08 75.3512 119.061 75.4062 119.04 75.4664C118.998 75.3119 118.94 75.1129 118.914 75.0448C118.814 74.7935 118.533 74.6756 118.279 74.7699C118.024 74.8642 117.895 75.1496 117.985 75.4062C118.008 75.4769 118.079 75.7335 118.124 75.9063C118.181 76.1289 118.384 76.2781 118.607 76.2781C118.649 76.2781 118.691 76.2729 118.733 76.2624C118.762 76.2546 118.783 76.2362 118.809 76.2258C118.738 76.4693 118.665 76.7311 118.591 76.9982C118.528 76.8961 118.431 76.8123 118.308 76.7756C118.042 76.6997 117.767 76.8516 117.69 77.116C117.625 77.3386 117.701 77.5559 117.964 77.9199C118.045 78.0325 118.166 78.0875 118.294 78.1084C118.179 78.5483 118.09 78.8966 118.061 79.017C117.898 79.7083 118.544 80.2398 119.227 80.8002C119.888 81.3422 120.458 81.2872 120.912 81.2453C121.08 81.2296 121.238 81.2139 121.406 81.2244C121.569 81.2348 121.65 81.3055 121.69 81.3631C121.711 81.3946 121.721 81.4234 121.726 81.4469C121.249 81.5412 119.728 81.426 119.245 81.3212C118.917 81.2165 117.533 80.0146 116.69 79.106C116.325 78.7133 116.391 78.5536 116.535 78.2053C116.585 78.0849 116.63 77.967 116.661 77.8492C116.69 77.7366 116.771 77.4224 116.719 75.9639C116.727 75.9849 116.735 75.998 116.74 76.0084C116.829 76.1865 117.013 76.2938 117.199 76.2938C117.273 76.2938 117.344 76.2781 117.415 76.2441C117.662 76.121 117.767 75.8356 117.643 75.5895C117.625 75.5423 117.578 75.346 117.538 75.1731C117.478 74.9034 117.21 74.7332 116.945 74.7935C116.829 74.8197 116.737 74.8877 116.669 74.9715C116.622 74.5264 116.23 73.7461 115.76 72.9867C115.768 72.9867 115.776 72.9867 115.784 72.9867C116.02 72.9632 116.202 72.7773 116.23 72.5521C116.249 72.5102 116.291 72.4369 116.328 72.3845C116.48 72.1567 116.417 71.8477 116.188 71.6959C115.96 71.544 115.65 71.6042 115.498 71.8346C115.38 72.0127 115.314 72.1488 115.28 72.2562C114.532 71.1853 113.279 69.08 113.266 69.0591C113.124 68.8234 112.819 68.7449 112.583 68.8837C112.347 69.0224 112.268 69.3288 112.407 69.5644C112.46 69.6509 113.694 71.7273 114.466 72.8296C114.532 72.9213 114.587 73.0077 114.647 73.0967C114.348 73.3717 113.857 73.8011 113.337 74.1703C113.135 74.3143 112.877 74.4924 112.594 74.6835C112.646 74.4243 112.489 74.1677 112.229 74.1048C111.963 74.0394 111.69 74.1991 111.625 74.4662C111.567 74.6992 111.559 74.9008 111.559 75.0003C111.559 75.1129 111.604 75.2124 111.667 75.2962C110.994 75.7361 110.322 76.1577 109.928 76.3802C109.729 76.4928 109.506 76.6264 109.282 76.7678C109.277 76.7364 109.272 76.7102 109.269 76.6945C109.254 76.4326 109.038 76.2258 108.77 76.2258C108.495 76.2258 108.271 76.4483 108.271 76.7233C108.271 76.8149 108.285 77.1082 108.397 77.3465C108.127 77.5324 107.909 77.6947 107.799 77.7968C107.557 78.0194 106.452 79.7554 106.496 80.2791C106.525 80.6274 106.819 80.8709 107.106 81.1065C107.161 81.151 107.237 81.2139 107.281 81.2584C107.297 81.3448 107.3 81.4731 107.287 81.5517C107.098 81.5857 106.675 81.5517 106.504 81.2794C106.423 81.151 106.341 81.0411 106.265 80.9363C106.018 80.6038 105.969 80.5331 106.108 80.2032C106.37 79.5721 107.547 76.7154 107.66 76.3514C107.704 76.2598 107.988 76.0922 108.138 76.0032C108.229 75.9482 108.319 75.8958 108.397 75.8435C108.576 75.723 108.967 75.2857 109.408 74.7175C109.422 74.8354 109.448 74.982 109.471 75.0998C109.519 75.3381 109.726 75.5031 109.96 75.5031C109.991 75.5031 110.023 75.5005 110.054 75.4952C110.325 75.4428 110.501 75.181 110.448 74.9113C110.448 74.9087 110.401 74.6783 110.396 74.584C110.391 74.3117 110.17 74.0943 109.897 74.0943C109.886 74.0943 109.878 74.0996 109.868 74.0996C110.351 73.4214 110.829 72.6647 111.11 72.0493C111.74 70.6642 112.515 68.0536 112.549 67.941C112.607 67.7472 112.541 67.5378 112.381 67.4121C112.223 67.2864 112.003 67.2681 111.827 67.3676C111.065 67.7944 110.06 68.1871 108.319 68.0615C108.426 67.8886 108.418 67.6765 108.298 67.5116C108.694 67.5352 109.08 67.5194 109.456 67.4749C109.477 67.5482 109.508 67.6216 109.563 67.6818L109.679 67.8049C109.776 67.9122 109.913 67.9672 110.047 67.9672C110.167 67.9672 110.288 67.9227 110.383 67.8363C110.543 67.6896 110.58 67.4618 110.498 67.2733C111.113 67.1136 111.685 66.8989 112.205 66.6763C112.265 66.8177 112.384 66.9329 112.546 66.9696L112.733 67.0115C112.77 67.0193 112.806 67.0246 112.84 67.0246C113.069 67.0246 113.276 66.8675 113.326 66.6344C113.36 66.4825 113.313 66.3333 113.224 66.2207L113.355 66.1605C113.804 65.9589 114.258 65.7913 114.721 65.6394C114.715 65.8751 114.87 66.0872 115.109 66.1369C115.143 66.1448 115.177 66.1474 115.212 66.1474C115.443 66.1474 115.65 65.985 115.7 65.752L115.747 65.5268C115.76 65.4613 115.76 65.3985 115.747 65.3383C116.049 65.2623 116.351 65.1916 116.653 65.134C116.619 65.2545 116.616 65.3776 116.653 65.4954C116.719 65.7049 116.892 65.862 117.126 65.9248C117.171 65.9379 117.215 65.9431 117.257 65.9431C117.478 65.9431 117.677 65.7991 117.738 65.5766C117.777 65.4352 117.751 65.2938 117.677 65.1786C117.677 65.1131 117.662 65.0529 117.635 64.9926C117.709 64.9848 117.782 64.9691 117.856 64.9612C118.276 64.9193 118.715 64.9272 119.153 64.9586C118.914 64.9612 118.701 65.1236 118.659 65.3645C118.628 65.5556 118.707 65.7389 118.851 65.8463C118.869 65.9039 118.898 65.9615 118.94 66.0112C119.04 66.1317 119.182 66.1945 119.326 66.1945C119.437 66.1945 119.55 66.1579 119.641 66.0819C119.841 65.917 119.925 65.6839 119.865 65.4561C119.775 65.121 119.445 65.0057 119.295 64.9691C119.72 65.0057 120.14 65.066 120.542 65.134C120.495 65.1655 120.45 65.2021 120.416 65.2519C120.29 65.4299 120.295 65.663 120.416 65.8332C120.411 65.9667 120.458 66.1029 120.561 66.205C120.658 66.3019 120.786 66.3516 120.912 66.3516C121.038 66.3516 121.167 66.3019 121.264 66.205C121.398 66.0714 121.466 65.8882 121.451 65.7022C121.438 65.5451 121.367 65.3933 121.251 65.2676C121.39 65.2938 121.527 65.3226 121.656 65.3488C122.099 65.4378 122.48 65.5137 122.774 65.5451C122.911 65.5608 123.102 65.5766 123.326 65.5975C123.378 65.8436 123.507 66.095 123.667 66.1997C123.751 66.2574 123.848 66.2835 123.943 66.2835C124.103 66.2835 124.263 66.205 124.358 66.061C124.436 65.9458 124.452 65.8096 124.423 65.6839C125.2 65.7389 126.088 65.7965 126.857 65.8384C126.823 65.9824 126.805 66.1421 126.836 66.2862C126.886 66.5218 127.102 66.6999 127.335 66.6999C127.367 66.6999 127.398 66.6973 127.432 66.6894C127.703 66.6318 127.876 66.3883 127.818 66.1212C127.818 66.1002 127.832 66.0505 127.839 66.0243C127.863 65.9798 127.874 65.9327 127.884 65.8882C128.023 65.8934 128.155 65.8986 128.262 65.9012C128.913 65.917 130.134 65.8646 130.66 65.5766C130.717 65.7887 130.901 65.9484 131.132 65.9484C131.408 65.9484 131.631 65.7258 131.631 65.4509V65.0921C131.631 65.0791 131.626 65.0686 131.623 65.0555C131.789 64.9848 131.959 64.9246 132.13 64.8879C132.128 64.9089 132.117 64.9272 132.117 64.9481C132.117 65.2231 132.34 65.4456 132.616 65.4456H132.721C132.997 65.4456 133.22 65.2231 133.22 64.9481C133.22 64.9377 133.215 64.9272 133.215 64.9167C133.372 64.9455 133.53 64.9796 133.69 65.0188C133.95 65.0791 134.218 65.1393 134.493 65.1733C134.732 65.2021 135.142 65.2178 135.565 65.2126C135.525 65.244 135.486 65.2781 135.457 65.3226L135.389 65.4273C135.239 65.6577 135.305 65.9667 135.536 66.116C135.62 66.1709 135.714 66.1945 135.806 66.1945C135.969 66.1945 136.129 66.1133 136.227 65.9667L136.295 65.862C136.439 65.6368 136.379 65.3435 136.161 65.189C136.177 65.189 136.195 65.1864 136.211 65.1864C136.494 65.1628 137.038 65.1445 137.581 65.1288C137.581 65.2702 137.637 65.4116 137.755 65.5085L137.818 65.5609C137.912 65.6394 138.025 65.6761 138.136 65.6761C138.28 65.6761 138.419 65.6158 138.519 65.498C138.616 65.3828 138.645 65.2362 138.621 65.0974C138.781 65.0921 138.923 65.0869 139.034 65.0817C139.288 65.0686 139.59 65.0712 139.882 65.0869C139.869 65.1026 139.853 65.1183 139.84 65.134C139.669 65.3488 139.706 65.663 139.921 65.8332C140.136 66.0034 140.452 65.9667 140.622 65.752C140.796 65.5347 141.053 65.3566 141.294 65.2335C141.297 65.2335 141.297 65.2309 141.3 65.2309C141.52 65.1183 141.73 65.0529 141.849 65.045C141.764 65.1943 141.554 65.4299 141.35 65.5949C141.134 65.7677 141.1 66.0793 141.273 66.294C141.373 66.4171 141.518 66.4799 141.662 66.4799C141.772 66.4799 141.88 66.4433 141.975 66.3699C141.996 66.3542 142.024 66.3307 142.053 66.3045C142.019 66.3726 141.996 66.4459 141.996 66.5244V66.6894C141.996 66.9643 142.219 67.1869 142.494 67.1869C142.739 67.1869 142.93 67.0088 142.975 66.7784C143.014 66.8098 143.051 66.8386 143.085 66.8596C143.251 66.9696 143.429 67.3152 143.566 67.6059C143.684 67.8598 143.805 68.1269 143.912 68.3678C144.017 68.6009 144.112 68.8156 144.191 68.9753C144.346 69.2974 144.34 69.3995 144.348 69.3995C144.02 69.6378 143.905 69.6509 143.907 69.6535C143.828 69.6404 143.715 69.6063 143.61 69.5775C143.356 69.5068 143.217 69.4676 143.056 69.5068C142.789 69.5723 142.626 69.8446 142.694 70.1091C142.723 70.2269 142.794 70.3212 142.883 70.3866C142.686 70.4626 142.678 70.4573 142.479 70.2662C142.053 69.8577 141.578 69.4649 140.971 69.3576C140.822 69.3314 140.533 69.3157 140.178 69.3209C140.223 69.211 140.234 69.0827 140.189 68.9622C140.094 68.703 139.808 68.5721 139.548 68.6663L139.433 68.7082C139.173 68.8025 139.041 69.0879 139.136 69.3471C139.141 69.3628 139.154 69.3759 139.162 69.3916C138.876 69.4257 138.59 69.4754 138.319 69.5409C138.343 69.3497 138.369 69.2031 138.385 69.1533C138.487 68.8994 138.364 68.6087 138.107 68.5066C137.849 68.4045 137.56 68.5275 137.458 68.7842C137.39 68.9543 137.306 69.4623 137.274 70.0201C137.214 69.9965 137.146 69.9651 137.083 69.9363C136.833 69.8211 136.536 69.931 136.421 70.1824C136.305 70.4311 136.416 70.727 136.668 70.8422C137.02 71.002 137.19 71.0491 137.295 71.0596C137.306 71.1355 137.314 71.2141 137.327 71.2848C137.345 71.3738 137.374 71.4942 137.411 71.6383C137.387 71.6487 137.364 71.6487 137.34 71.6618L137.235 71.7247C136.999 71.8661 136.922 72.1724 137.064 72.4081C137.159 72.5626 137.324 72.649 137.492 72.649C137.56 72.649 137.626 72.6306 137.692 72.6018C137.92 73.3219 138.225 74.1467 138.522 74.7044C138.474 74.728 138.427 74.7542 138.388 74.7935L138.28 74.8982C138.143 75.0291 137.975 75.1915 138.009 75.4664C138.028 75.6209 138.149 75.7885 138.285 75.867C138.364 75.9115 138.448 75.9325 138.532 75.9325C138.705 75.9325 138.873 75.8435 138.965 75.6811C138.984 75.6471 138.999 75.613 139.01 75.5764L139.073 75.5162C139.299 75.833 139.603 76.2729 139.921 76.7337C140.798 78.0063 141.441 78.9306 141.738 79.2396C142.447 79.9754 143.424 80.4493 144.354 80.5121C144.509 80.5226 144.621 80.5593 144.658 80.6143C144.692 80.6562 144.711 80.7818 144.679 80.9599Z" fill="#FAFF00"/>
<path d="M123.872 69.5619C123.895 69.465 123.888 69.3681 123.853 69.2791C124.008 69.1037 124.021 68.8366 123.872 68.6455C123.701 68.4281 123.389 68.3889 123.171 68.559C122.968 68.7162 122.722 69.0984 122.803 69.465C122.856 69.7007 123.034 69.8787 123.27 69.9337C123.307 69.9416 123.347 69.9468 123.383 69.9468C123.614 69.9468 123.819 69.7923 123.872 69.5619Z" fill="#FAFF00"/>
<path d="M125.87 70.8081C125.988 70.7845 126.206 70.7007 126.34 70.3996C126.392 70.2792 126.555 69.7659 126.371 69.4596C126.187 69.1559 125.833 69.1428 125.321 69.2239C125.048 69.2658 124.861 69.5198 124.906 69.7921C124.938 69.999 125.095 70.1561 125.289 70.2006C125.271 70.2713 125.268 70.3446 125.284 70.4179C125.331 70.6536 125.539 70.8186 125.773 70.8186C125.804 70.8186 125.836 70.8159 125.87 70.8081Z" fill="#FAFF00"/>
<path d="M127.231 68.4359C127.386 68.284 127.428 68.0431 127.317 67.8441C127.186 67.6032 126.884 67.5142 126.64 67.6451C126.272 67.8441 126.078 68.1531 126.117 68.4751C126.151 68.7422 126.346 68.9596 126.619 69.0302C126.661 69.0407 126.703 69.046 126.742 69.046C126.965 69.046 127.168 68.8967 127.225 68.6741C127.249 68.593 127.249 68.5118 127.231 68.4359Z" fill="#FAFF00"/>
<path d="M125.088 68.873C125.104 68.873 125.119 68.8756 125.133 68.8756C125.387 68.8756 125.605 68.6819 125.629 68.4227C125.645 68.2498 125.571 68.0901 125.442 67.9906C125.437 67.8152 125.337 67.645 125.167 67.5612C124.92 67.4381 124.621 67.5376 124.497 67.7838C124.379 68.0194 124.382 68.2813 124.502 68.5012C124.623 68.7107 124.841 68.8495 125.088 68.873Z" fill="#FAFF00"/>
<path d="M123.575 67.8965C123.638 67.8965 123.704 67.8834 123.767 67.8572C123.961 67.776 124.305 67.5509 124.371 67.2157C124.407 67.0324 124.352 66.8465 124.224 66.7182C124.029 66.5244 123.714 66.5244 123.517 66.7182C123.454 66.781 123.412 66.8544 123.391 66.9329C123.389 66.9355 123.386 66.9355 123.383 66.9381C123.129 67.0429 123.01 67.3362 123.115 67.5901C123.192 67.7813 123.378 67.8965 123.575 67.8965Z" fill="#FAFF00"/>
<path d="M122.317 66.8675C122.33 66.8701 122.346 66.8701 122.359 66.8701C122.617 66.8701 122.835 66.6737 122.856 66.4145C122.869 66.2678 122.816 66.1317 122.722 66.0322C122.748 65.7703 122.564 65.532 122.299 65.4928C122.028 65.4483 121.771 65.6394 121.732 65.9117C121.705 66.0767 121.661 66.383 121.858 66.6292C121.968 66.768 122.131 66.8517 122.317 66.8675Z" fill="#FAFF00"/>
<path d="M118.255 65.904C117.998 65.8097 117.712 65.9433 117.615 66.2025C117.541 66.4067 117.609 66.6267 117.767 66.7576C117.775 66.7969 117.79 66.8362 117.809 66.8754C117.896 67.0509 118.071 67.1504 118.255 67.1504C118.329 67.1504 118.408 67.1347 118.478 67.098C118.694 66.9907 118.817 66.7812 118.804 66.5481C118.791 66.2706 118.573 66.0192 118.255 65.904Z" fill="#FAFF00"/>
<path d="M119.481 67.4645C119.568 67.5326 119.671 67.564 119.773 67.564C119.917 67.564 120.062 67.4985 120.162 67.3728C120.185 67.3414 120.206 67.31 120.222 67.276C120.372 67.1686 120.445 66.9775 120.406 66.7758C120.353 66.5061 120.07 66.3359 119.802 66.3857C119.652 66.4145 119.303 66.4773 119.216 66.8361C119.185 66.9722 119.174 67.2315 119.481 67.4645Z" fill="#FAFF00"/>
<path d="M121.13 67.8809C121.214 67.9464 121.322 67.9856 121.437 67.9856C121.451 67.9856 121.466 67.9856 121.479 67.983C121.753 67.9594 121.957 67.7186 121.936 67.4462C121.921 67.2577 121.829 67.0954 121.679 66.988C121.398 66.7864 121.033 66.878 120.896 66.9121C120.629 66.9775 120.466 67.2499 120.534 67.5143C120.6 67.7814 120.868 67.9411 121.13 67.8809Z" fill="#FAFF00"/>
<path d="M121.564 68.5301C121.564 68.538 121.561 68.5458 121.561 68.5563C121.44 68.648 121.364 68.7894 121.364 68.9517C121.364 69.2266 121.587 69.4492 121.863 69.4492C122.346 69.4492 122.562 68.9229 122.562 68.5485C122.562 68.2814 122.352 68.0771 122.084 68.064C121.811 68.051 121.585 68.2657 121.564 68.5301Z" fill="#FAFF00"/>
<path d="M120.925 69.8449C120.983 69.6799 120.949 69.5071 120.852 69.3762C120.944 69.1353 120.833 68.8577 120.594 68.7477C120.345 68.6325 120.048 68.7399 119.933 68.9912C119.799 69.2819 119.778 69.5411 119.87 69.7611C119.946 69.9417 120.095 70.0779 120.29 70.146C120.345 70.1643 120.4 70.1748 120.455 70.1748C120.66 70.1774 120.854 70.0491 120.925 69.8449Z" fill="#FAFF00"/>
<path d="M119.376 68.8759C119.492 68.8759 119.605 68.8366 119.699 68.758C119.749 68.7161 119.789 68.6664 119.817 68.614C119.972 68.5171 120.07 68.3365 120.049 68.1427C120.022 67.8704 119.778 67.6688 119.502 67.6976C119.216 67.7264 118.99 67.8809 118.898 68.1087C118.817 68.3077 118.856 68.5355 118.996 68.7004C119.093 68.8156 119.235 68.8759 119.376 68.8759Z" fill="#FAFF00"/>
<path d="M122.312 71.0857C122.084 71.2245 121.792 71.6696 121.855 72.0545C121.897 72.298 122.107 72.4709 122.346 72.4709C122.373 72.4709 122.402 72.4682 122.43 72.463C122.68 72.4211 122.853 72.2038 122.848 71.9603C122.853 71.9498 122.858 71.9367 122.866 71.9262C122.916 71.8948 122.961 71.8555 122.998 71.8058C123.163 71.5858 123.118 71.2742 122.901 71.1093C122.732 70.9862 122.486 70.981 122.312 71.0857Z" fill="#FAFF00"/>
<path d="M124.055 70.5205C123.872 70.5755 123.725 70.709 123.638 70.8975C123.525 71.1437 123.509 71.4998 123.604 71.7066C123.688 71.8925 123.869 71.9999 124.058 71.9999C124.126 71.9999 124.195 71.9868 124.263 71.9554C124.491 71.8533 124.604 71.6045 124.541 71.3715C124.541 71.3662 124.541 71.361 124.541 71.3558C124.675 71.2301 124.733 71.0363 124.678 70.8504C124.596 70.5912 124.318 70.4419 124.055 70.5205Z" fill="#FAFF00"/>
<path d="M121.884 69.9416C121.638 69.8185 121.338 69.918 121.215 70.1641C121.196 70.2008 121.11 70.2872 121.063 70.3317C120.918 70.4731 120.677 70.7088 120.792 71.0518C120.863 71.2613 121.057 71.3922 121.265 71.3922C121.317 71.3922 121.37 71.3843 121.422 71.366C121.569 71.3162 121.68 71.2063 121.729 71.0727C121.74 71.0623 121.75 71.0518 121.761 71.0413C121.866 70.9366 122.013 70.7952 122.105 70.6093C122.231 70.3631 122.131 70.0646 121.884 69.9416Z" fill="#FAFF00"/>
<path d="M125.831 71.5622C125.768 71.6565 125.733 71.7403 125.707 71.811C125.681 71.8791 125.665 71.9157 125.623 71.9655C125.447 72.1776 125.476 72.4892 125.686 72.6672C125.781 72.7458 125.894 72.7824 126.006 72.7824C126.151 72.7824 126.29 72.7222 126.39 72.6044C126.537 72.4289 126.597 72.2771 126.637 72.1749C126.645 72.154 126.652 72.133 126.663 72.1147C126.815 71.8869 126.752 71.5779 126.524 71.4261C126.293 71.2716 125.983 71.3344 125.831 71.5622Z" fill="#FAFF00"/>
<path d="M128.323 70.5225C128.331 70.3995 128.292 70.2712 128.205 70.1691C128.026 69.9596 127.711 69.936 127.501 70.1141C127.204 70.3654 127.202 70.6404 127.228 70.7818C127.278 71.0567 127.493 71.2636 127.864 71.3971C127.919 71.4181 127.976 71.4259 128.032 71.4259C128.236 71.4259 128.428 71.3002 128.502 71.096C128.58 70.8787 128.499 70.6482 128.323 70.5225Z" fill="#FAFF00"/>
<path d="M129.654 71.874C129.436 71.9002 129.044 72.0835 128.866 72.4029C128.732 72.6412 128.811 72.9528 129.05 73.089C129.128 73.1335 129.215 73.1544 129.299 73.1544C129.47 73.1544 129.633 73.068 129.724 72.9057C129.74 72.89 129.787 72.8612 129.78 72.8585C130.053 72.8245 130.247 72.5757 130.213 72.3034C130.176 72.0337 129.927 71.84 129.654 71.874Z" fill="#FAFF00"/>
<path d="M125.61 67.3677C125.623 67.3677 125.636 67.3677 125.649 67.365C125.925 67.3467 126.133 67.1111 126.114 66.8361C126.098 66.6162 125.944 66.4381 125.741 66.3857C125.642 66.2208 125.447 66.1213 125.242 66.1501C124.969 66.1894 124.78 66.4407 124.82 66.713C124.862 67.0116 125.237 67.3677 125.61 67.3677Z" fill="#FAFF00"/>
<path d="M128.031 67.9751L128.367 67.6085L128.036 67.9803C128.131 68.0641 128.249 68.106 128.367 68.106C128.504 68.106 128.64 68.051 128.74 67.9384C128.89 67.7708 128.905 67.5273 128.792 67.3467C128.824 67.2105 128.798 67.0639 128.708 66.9434C128.546 66.7209 128.233 66.6737 128.013 66.8361C127.834 66.967 127.729 67.1503 127.718 67.3519C127.703 67.6844 127.95 67.9018 128.031 67.9751Z" fill="#FAFF00"/>
<path d="M129.15 69.494C129.244 69.2609 129.147 69.0017 128.937 68.8786C128.858 68.6639 128.632 68.5278 128.399 68.5566C128.126 68.5958 127.937 68.8472 127.976 69.1195C128.028 69.4887 128.333 69.7034 128.504 69.7715C128.564 69.7951 128.627 69.8082 128.688 69.8082C128.884 69.8082 129.074 69.6904 129.15 69.494Z" fill="#FAFF00"/>
<path d="M130.455 69.9076C130.442 69.8867 130.426 69.8579 130.418 69.8369C130.329 69.5777 130.045 69.4389 129.783 69.5306C129.523 69.6196 129.384 69.9024 129.476 70.1643C129.497 70.2271 129.699 70.7743 130.124 70.8162C130.143 70.8189 130.158 70.8189 130.177 70.8189C130.429 70.8189 130.647 70.6277 130.673 70.3711C130.689 70.1826 130.599 70.0098 130.455 69.9076Z" fill="#FAFF00"/>
<path d="M128.034 74.8745C128 74.9085 127.971 74.9373 127.947 74.9609C127.727 75.0342 127.582 75.2542 127.611 75.4924C127.643 75.7464 127.855 75.9323 128.105 75.9323C128.126 75.9323 128.144 75.9323 128.165 75.9297C128.365 75.9062 128.52 75.8538 128.661 75.6653C128.672 75.6522 128.688 75.6312 128.719 75.6024C128.919 75.4139 128.929 75.0997 128.74 74.8981C128.551 74.6964 128.233 74.6886 128.034 74.8745Z" fill="#FAFF00"/>
<path d="M117.089 72.8323C116.882 73.0496 116.708 73.4345 116.913 73.7906C117.005 73.953 117.173 74.0446 117.349 74.0446C117.433 74.0446 117.517 74.0237 117.593 73.9791C117.774 73.877 117.866 73.678 117.843 73.4816C118.003 73.2826 117.984 72.992 117.795 72.8113C117.596 72.6254 117.281 72.6333 117.089 72.8323Z" fill="#FAFF00"/>
<path d="M117.859 70.4182C117.688 70.3684 117.486 70.4208 117.357 70.5439C117.097 70.7926 117.097 71.4472 117.123 71.552C117.179 71.7798 117.383 71.9317 117.607 71.9317C117.646 71.9317 117.685 71.9264 117.725 71.9159C117.964 71.8583 118.119 71.6384 118.103 71.4027C118.106 71.3504 118.119 71.2482 118.132 71.1749C118.161 71.1304 118.184 71.0833 118.2 71.0309C118.276 70.7664 118.124 70.4915 117.859 70.4182Z" fill="#FAFF00"/>
<path d="M118.481 69.0797C118.281 68.8886 117.966 68.8965 117.775 69.0955C117.586 69.2945 117.591 69.6087 117.79 69.7998L117.848 69.8548C117.945 69.9465 118.069 69.9936 118.192 69.9936C118.323 69.9936 118.455 69.9412 118.552 69.8391C118.741 69.6401 118.736 69.3259 118.536 69.1347L118.481 69.0797Z" fill="#FAFF00"/>
<path d="M115.711 69.9232C115.453 69.8237 115.165 69.9494 115.065 70.206L114.991 70.3919C114.891 70.6485 115.017 70.9366 115.275 71.0361C115.335 71.0596 115.396 71.0701 115.456 71.0701C115.656 71.0701 115.845 70.9497 115.921 70.7533L115.994 70.5674C116.094 70.3108 115.965 70.0227 115.711 69.9232Z" fill="#FAFF00"/>
<path d="M117.175 70.1773C117.199 70.0045 117.251 69.6484 116.957 69.4546C116.726 69.3027 116.416 69.3656 116.267 69.5934C116.188 69.7112 116.167 69.85 116.196 69.9783C116.193 70.0071 116.188 70.0333 116.188 70.0385C116.148 70.3108 116.34 70.5622 116.611 70.6015C116.634 70.6041 116.658 70.6067 116.681 70.6067C116.926 70.6067 117.141 70.4261 117.175 70.1773Z" fill="#FAFF00"/>
<path d="M117.242 68.8469C117.517 68.8469 117.738 68.6479 117.738 68.3729C117.743 68.3389 117.759 68.2865 117.772 68.2368C117.819 68.0509 117.851 67.9278 117.798 67.7733C117.712 67.5141 117.428 67.3727 117.166 67.4591C116.969 67.5246 116.84 67.7026 116.827 67.899C116.822 67.9226 116.811 67.954 116.803 67.988C116.764 68.1347 116.74 68.2315 116.74 68.3258C116.745 68.6007 116.966 68.8469 117.242 68.8469Z" fill="#FAFF00"/>
<path d="M111.851 70.9966C111.851 71.1014 111.921 71.4313 111.958 71.5256C112.034 71.7167 112.216 71.8293 112.413 71.8293C112.468 71.8293 112.525 71.8188 112.581 71.8005C112.833 71.7141 112.969 71.4365 112.893 71.1799C112.877 71.1276 112.851 70.9967 112.843 70.9469C112.82 70.6955 112.607 70.4991 112.347 70.4991C112.074 70.4991 111.851 70.7217 111.851 70.9966Z" fill="#FAFF00"/>
<path d="M113.341 73.6675C113.368 73.6727 113.394 73.6727 113.42 73.6727C113.662 73.6727 113.874 73.4973 113.911 73.2538C113.922 73.1857 113.953 72.9448 113.903 72.7327C113.843 72.4709 113.588 72.319 113.323 72.3714C113.058 72.4237 112.887 72.6882 112.929 72.9527C112.934 72.9788 112.929 73.0522 112.924 73.0993C112.882 73.369 113.068 73.6256 113.341 73.6675Z" fill="#FAFF00"/>
<path d="M111.218 72.2664C111.021 72.5021 111.01 72.9786 111.023 73.0807C111.06 73.3295 111.278 73.5285 111.525 73.5285C111.546 73.5285 111.57 73.5259 111.591 73.5233C111.864 73.484 112.055 73.2536 112.016 72.9812C112.016 72.9498 112.029 72.8687 112.04 72.8241C112.153 72.6199 112.108 72.3581 111.921 72.2036C111.706 72.0255 111.394 72.0543 111.218 72.2664Z" fill="#FAFF00"/>
<path d="M115.083 69.1533L114.989 68.8731C114.902 68.6139 114.621 68.4698 114.358 68.5589C114.096 68.6453 113.957 68.9281 114.043 69.1873L114.138 69.4675C114.209 69.6769 114.403 69.8079 114.61 69.8079C114.663 69.8079 114.716 69.8 114.768 69.7817C115.028 69.6953 115.17 69.4125 115.083 69.1533Z" fill="#FAFF00"/>
<path d="M116.37 68.8967V68.7867C116.37 68.5118 116.147 68.2892 115.871 68.2892C115.595 68.2892 115.372 68.5118 115.372 68.7867V68.8967C115.372 69.1716 115.595 69.3942 115.871 69.3942C116.147 69.3942 116.37 69.1716 116.37 68.8967Z" fill="#FAFF00"/>
<path d="M114.456 67.404C114.527 67.6109 114.721 67.7392 114.929 67.7392C114.981 67.7392 115.036 67.7313 115.091 67.713C115.351 67.6239 115.49 67.3412 115.401 67.0819L115.307 66.8096C115.217 66.5504 114.934 66.409 114.674 66.5006C114.414 66.5897 114.275 66.8725 114.364 67.1317L114.456 67.404Z" fill="#FAFF00"/>
<path d="M118.762 70.7061C118.832 70.913 119.027 71.0413 119.234 71.0413C119.287 71.0413 119.342 71.0334 119.397 71.0151C119.657 70.9261 119.796 70.6433 119.707 70.3841L119.612 70.1117C119.523 69.8525 119.239 69.7111 118.979 69.8028C118.72 69.8918 118.58 70.1746 118.67 70.4338L118.762 70.7061Z" fill="#FAFF00"/>
<path d="M115.781 67.0744C115.852 67.2813 116.046 67.4096 116.254 67.4096C116.306 67.4096 116.361 67.4017 116.417 67.3834C116.676 67.2944 116.816 67.0116 116.726 66.7523L116.632 66.48C116.543 66.2208 116.259 66.0794 115.999 66.171C115.739 66.2601 115.6 66.5429 115.689 66.8021L115.781 67.0744Z" fill="#FAFF00"/>
<path d="M114.067 67.7004L113.889 67.36C113.76 67.1165 113.458 67.0249 113.214 67.1532C112.97 67.2815 112.878 67.5826 113.006 67.8261L113.185 68.1665C113.274 68.3367 113.448 68.431 113.626 68.431C113.705 68.431 113.784 68.4126 113.857 68.3734C114.104 68.2424 114.196 67.9413 114.067 67.7004Z" fill="#FAFF00"/>
<path d="M134.627 71.6094C134.448 71.3999 134.133 71.3763 133.923 71.5544C133.713 71.7324 133.689 72.0466 133.868 72.2561L133.994 72.4001C134.094 72.5153 134.233 72.573 134.372 72.573C134.487 72.573 134.603 72.5337 134.695 72.4525C134.905 72.2745 134.929 71.9602 134.75 71.7508L134.627 71.6094Z" fill="#FAFF00"/>
<path d="M136.161 70.9259C136.161 70.5803 135.909 70.3787 135.659 70.3577C135.292 70.3237 134.9 70.7321 134.858 71.0018C134.814 71.2742 134.997 71.5282 135.271 71.5727C135.297 71.5779 135.326 71.5779 135.352 71.5779C135.494 71.5779 135.625 71.5177 135.717 71.4182C135.966 71.392 136.161 71.1825 136.161 70.9259Z" fill="#FAFF00"/>
<path d="M136.185 72.154C135.985 72.086 135.775 72.1462 135.594 72.3164C135.344 72.5494 135.379 72.8008 135.405 72.8977C135.457 73.0914 135.612 73.2381 135.82 73.2852C135.856 73.2931 135.896 73.2983 135.933 73.2983C136.151 73.2983 136.347 73.1543 136.411 72.9422C136.447 72.8977 136.479 72.8427 136.497 72.7851C136.586 72.5259 136.445 72.2431 136.185 72.154Z" fill="#FAFF00"/>
<path d="M137.017 73.1753C136.799 73.2617 136.654 73.4607 136.652 73.6833C136.646 73.8587 136.738 74.0917 137.003 74.2122C137.069 74.2436 137.14 74.2567 137.211 74.2567C137.4 74.2567 137.581 74.1493 137.665 73.966C137.676 73.9425 137.684 73.9189 137.691 73.8953C137.807 73.7042 137.781 73.4528 137.615 73.2905C137.463 73.1386 137.227 73.0915 137.017 73.1753Z" fill="#FAFF00"/>
<path d="M133.688 69.1692C133.787 69.1692 133.89 69.1378 133.979 69.0749C134.202 68.9152 134.252 68.6036 134.092 68.381C134.076 68.3575 134.053 68.3234 134.034 68.292C134.029 68.1716 133.982 68.0537 133.89 67.9621C133.695 67.7683 133.38 67.7683 133.183 67.9621C132.942 68.203 132.976 68.5382 133.283 68.9623C133.38 69.0985 133.533 69.1692 133.688 69.1692Z" fill="#FAFF00"/>
<path d="M135.956 67.9174C136.09 67.9174 136.224 67.865 136.321 67.7602C136.476 67.5953 136.495 67.3491 136.384 67.1659C136.4 66.9328 136.251 66.7129 136.017 66.65C135.752 66.5767 135.476 66.7364 135.405 67.0035C135.329 67.2889 135.41 67.5953 135.618 67.7864C135.712 67.8728 135.833 67.9174 135.956 67.9174Z" fill="#FAFF00"/>
<path d="M136.155 68.6715C136.155 68.8732 136.289 69.1874 136.507 69.3445C136.612 69.4204 136.73 69.4597 136.851 69.4597C136.912 69.4597 136.972 69.4492 137.03 69.4309C137.292 69.3445 137.434 69.0617 137.345 68.8025C137.305 68.6873 137.229 68.5956 137.132 68.5354C137.072 68.3285 136.88 68.1767 136.654 68.1767C136.378 68.174 136.155 68.3966 136.155 68.6715Z" fill="#FAFF00"/>
<path d="M134.63 69.0383C134.672 69.2818 134.882 69.4547 135.121 69.4547C135.148 69.4547 135.177 69.452 135.205 69.4468C135.476 69.4023 135.66 69.1457 135.615 68.8734C135.615 68.8681 135.612 68.8498 135.612 68.8341C135.71 68.6377 135.668 68.3942 135.497 68.2423C135.292 68.059 134.974 68.0774 134.793 68.2842C134.581 68.5199 134.599 68.8577 134.63 69.0383Z" fill="#FAFF00"/>
<path d="M133.966 67.7184C134.008 67.9619 134.218 68.1347 134.457 68.1347C134.483 68.1347 134.512 68.1321 134.541 68.1269C134.811 68.0823 134.995 67.8257 134.95 67.5534C134.95 67.5482 134.948 67.5299 134.948 67.5141C135.045 67.3178 135.003 67.0742 134.832 66.9224C134.627 66.7391 134.31 66.7574 134.128 66.9643C133.918 67.1999 133.937 67.5377 133.966 67.7184Z" fill="#FAFF00"/>
<path d="M132.973 70.6904C133.015 70.9339 133.225 71.1068 133.464 71.1068C133.49 71.1068 133.519 71.1041 133.548 71.0989C133.819 71.0544 134.002 70.7978 133.958 70.5255C133.958 70.5202 133.955 70.5019 133.955 70.4862C134.052 70.2898 134.01 70.0463 133.84 69.8944C133.635 69.7111 133.317 69.7295 133.136 69.9363C132.923 70.172 132.944 70.5098 132.973 70.6904Z" fill="#FAFF00"/>
<path d="M131.76 69.0459L131.728 68.9752C131.613 68.7238 131.316 68.6139 131.067 68.7291C130.817 68.8443 130.704 69.1375 130.82 69.3889L130.854 69.4649C130.92 69.6141 131.069 69.965 131.492 69.965C131.768 69.965 131.991 69.7424 131.991 69.4675C131.994 69.2894 131.899 69.1323 131.76 69.0459Z" fill="#FAFF00"/>
<path d="M129.617 67.7656C129.486 67.8521 129.389 68.0353 129.378 68.1898C129.365 68.3993 129.457 68.6166 129.62 68.7554C129.714 68.8366 129.83 68.8759 129.943 68.8759C130.085 68.8759 130.224 68.8156 130.321 68.703C130.455 68.5459 130.476 68.3312 130.389 68.1558C130.384 68.0694 130.358 67.983 130.305 67.907C130.155 67.6766 129.848 67.6138 129.617 67.7656Z" fill="#FAFF00"/>
<path d="M129.717 67.1398C129.819 67.1398 129.924 67.1084 130.013 67.0429C130.168 66.9277 130.237 66.7444 130.21 66.5664C130.239 66.3752 130.155 66.1762 129.982 66.0689C129.748 65.9222 129.441 65.9956 129.294 66.226C129.134 66.4826 129.189 66.768 129.315 66.9382C129.412 67.0717 129.564 67.1398 129.717 67.1398Z" fill="#FAFF00"/>
<path d="M132.232 67.4856C131.957 67.4856 131.733 67.7082 131.733 67.9831V68.0826C131.733 68.3575 131.957 68.5801 132.232 68.5801C132.508 68.5801 132.731 68.3575 132.731 68.0826V67.9831C132.731 67.7082 132.508 67.4856 132.232 67.4856Z" fill="#FAFF00"/>
<path d="M131.13 67.6269C131.405 67.6269 131.629 67.4043 131.629 67.1294V66.9461C131.629 66.6712 131.405 66.4486 131.13 66.4486C130.854 66.4486 130.631 66.6712 130.631 66.9461V67.1294C130.631 67.4043 130.854 67.6269 131.13 67.6269Z" fill="#FAFF00"/>
<path d="M133.343 66.5663V66.4276C133.343 66.1526 133.119 65.9301 132.844 65.9301C132.568 65.9301 132.345 66.1526 132.345 66.4276V66.5663C132.345 66.8413 132.568 67.0638 132.844 67.0638C133.119 67.0638 133.343 66.8413 133.343 66.5663Z" fill="#FAFF00"/>
<path d="M134.197 66.2313H134.313C134.588 66.2313 134.812 66.0088 134.812 65.7338C134.812 65.4589 134.588 65.2363 134.313 65.2363H134.197C133.921 65.2363 133.698 65.4589 133.698 65.7338C133.698 66.0088 133.921 66.2313 134.197 66.2313Z" fill="#FAFF00"/>
<path d="M137.098 67.1528C136.862 67.2942 136.786 67.6005 136.928 67.8362L137.022 67.9907C137.117 68.1452 137.282 68.2316 137.45 68.2316C137.537 68.2316 137.626 68.208 137.708 68.1609C137.944 68.0195 138.02 67.7131 137.878 67.4775L137.784 67.323C137.642 67.0873 137.335 67.0114 137.098 67.1528Z" fill="#FAFF00"/>
<path d="M137.282 66.8228C137.382 66.8228 137.484 66.794 137.571 66.7312L137.644 66.6788C137.868 66.5191 137.92 66.2075 137.76 65.9849C137.6 65.7623 137.287 65.71 137.064 65.8697L136.991 65.9221C136.767 66.0818 136.715 66.3934 136.875 66.6159C136.975 66.7495 137.127 66.8228 137.282 66.8228Z" fill="#FAFF00"/>
<path d="M138.592 67.0089C138.703 67.0089 138.816 66.9723 138.908 66.8963L139.073 66.7628C139.286 66.59 139.32 66.2758 139.147 66.0637C138.973 65.8489 138.658 65.8175 138.445 65.9903L138.28 66.1239C138.067 66.2967 138.033 66.6109 138.206 66.823C138.304 66.9461 138.448 67.0089 138.592 67.0089Z" fill="#FAFF00"/>
<path d="M138.894 67.1582C138.619 67.1582 138.396 67.3808 138.396 67.6557V67.7814C138.396 68.0563 138.619 68.2789 138.894 68.2789C139.17 68.2789 139.393 68.0563 139.393 67.7814V67.6557C139.393 67.3834 139.17 67.1582 138.894 67.1582Z" fill="#FAFF00"/>
<path d="M72.3921 109.7L77.4994 117.244C77.5414 117.309 77.5939 117.348 77.6648 117.375C77.7567 117.406 77.846 117.422 77.9353 117.422H78.6574C78.7624 117.422 78.7834 117.401 78.7834 117.296V107.608C78.7834 107.503 78.7624 107.482 78.6574 107.482H77.8329C77.7278 107.482 77.7068 107.503 77.7068 107.608V115.049C77.7068 115.131 77.7068 115.345 77.5309 115.398C77.355 115.45 77.2368 115.269 77.1922 115.201L72.2004 107.658C72.1584 107.595 72.1085 107.553 72.0349 107.529C71.943 107.498 71.8538 107.482 71.7645 107.482H70.9268C70.8218 107.482 70.8008 107.503 70.8008 107.608V117.296C70.8008 117.401 70.8218 117.422 70.9268 117.422H71.754C71.859 117.422 71.88 117.401 71.88 117.296V109.854C71.88 109.776 71.88 109.564 72.0533 109.511C72.077 109.504 72.098 109.501 72.119 109.501C72.2581 109.504 72.3527 109.642 72.3921 109.7Z" fill="#111111"/>
<path d="M91.4196 115.359C91.5535 115.278 91.6166 115.165 91.6166 115.01V109.897C91.6166 109.74 91.5562 109.632 91.4196 109.548L87.0108 106.969C86.9373 106.927 86.869 106.906 86.806 106.906C86.7771 106.906 86.7114 106.914 86.5906 106.974L82.2133 109.548C82.0689 109.632 82.0059 109.74 82.0059 109.897V115.01C82.0059 115.168 82.0689 115.275 82.2133 115.359L86.6011 117.938C86.7009 118.001 86.7823 118.016 86.911 117.988C86.9373 117.982 86.9661 117.967 86.9976 117.946L91.4196 115.359ZM86.806 116.877C86.6957 116.877 86.588 116.846 86.4882 116.786L83.2453 114.88C83.0405 114.759 82.9328 114.576 82.9328 114.345V110.562C82.9328 110.334 83.0405 110.148 83.2453 110.028L86.4935 108.119C86.7613 107.985 86.9241 108.006 87.1211 108.119L90.385 110.028C90.5846 110.151 90.6896 110.334 90.6896 110.562V114.345C90.6896 114.573 90.5846 114.756 90.3903 114.877L87.1237 116.786C87.0791 116.817 87.0187 116.846 86.9556 116.859C86.9005 116.872 86.8506 116.877 86.806 116.877Z" fill="#111111"/>
<path d="M111.064 107.485C110.959 107.485 110.938 107.506 110.938 107.611V117.299C110.938 117.404 110.959 117.424 111.064 117.424H118.04C118.146 117.424 118.167 117.404 118.167 117.299V116.474C118.167 116.369 118.146 116.348 118.04 116.348H112.521C112.211 116.348 112.027 116.162 112.027 115.856V107.611C112.027 107.506 112.006 107.485 111.901 107.485H111.064Z" fill="#111111"/>
<path d="M154.392 117.513C154.568 117.513 154.679 117.443 154.742 117.293L158.423 108.985C158.46 108.901 158.52 108.786 158.63 108.786C158.741 108.786 158.801 108.901 158.838 108.985L162.506 117.291C162.569 117.443 162.68 117.513 162.855 117.513H163.693C163.767 117.513 163.803 117.498 163.814 117.484C163.822 117.471 163.824 117.429 163.796 117.361L159.395 107.616C159.332 107.461 159.221 107.39 159.045 107.39H158.208C158.032 107.39 157.921 107.461 157.858 107.61V107.613L153.465 117.364C153.439 117.429 153.439 117.471 153.447 117.484C153.455 117.498 153.492 117.513 153.568 117.513H154.392Z" fill="#111111"/>
<path d="M170.778 113.041L173.42 117.257C173.467 117.372 173.543 117.419 173.682 117.419H174.622C174.63 117.419 174.638 117.419 174.646 117.419C174.646 117.416 174.643 117.411 174.643 117.409L171.918 113.062L172.222 113.041C172.574 113.015 172.91 112.923 173.223 112.766C173.535 112.609 173.814 112.402 174.045 112.156C174.276 111.91 174.46 111.622 174.593 111.3C174.725 110.98 174.79 110.635 174.79 110.276C174.79 109.925 174.722 109.577 174.586 109.242C174.449 108.907 174.263 108.603 174.029 108.341C173.798 108.082 173.519 107.872 173.202 107.713C172.889 107.558 172.545 107.479 172.183 107.479H167.036C166.931 107.479 166.91 107.5 166.91 107.605V108.43C166.91 108.535 166.931 108.556 167.036 108.556H172.151C172.388 108.571 172.598 108.629 172.784 108.726C172.971 108.823 173.131 108.951 173.265 109.106C173.393 109.257 173.501 109.433 173.58 109.629C173.659 109.823 173.706 110.032 173.722 110.252V110.266V110.279C173.685 110.729 173.53 111.114 173.265 111.428C172.992 111.753 172.616 111.931 172.154 111.962H167.139C167.068 111.962 167.01 111.981 166.96 112.017C166.934 112.038 166.91 112.064 166.91 112.127V117.291C166.91 117.396 166.931 117.417 167.036 117.417H167.863C167.968 117.417 167.989 117.396 167.989 117.291V113.528C167.989 113.219 168.176 113.036 168.483 113.036H170.778V113.041Z" fill="#111111"/>
<path d="M150.606 112.159C150.837 111.913 151.021 111.625 151.155 111.302C151.286 110.983 151.352 110.637 151.352 110.279C151.352 109.928 151.284 109.58 151.147 109.244C151.011 108.909 150.824 108.605 150.59 108.344C150.359 108.084 150.081 107.875 149.763 107.715C149.448 107.561 149.107 107.482 148.744 107.482H143.598C143.493 107.482 143.472 107.503 143.472 107.608V108.433C143.472 108.537 143.493 108.558 143.598 108.558H148.713C148.949 108.574 149.159 108.632 149.346 108.729C149.532 108.825 149.692 108.954 149.826 109.108C149.955 109.26 150.063 109.436 150.141 109.632C150.22 109.826 150.267 110.035 150.283 110.255V110.268V110.281C150.246 110.732 150.091 111.117 149.826 111.431C149.553 111.755 149.178 111.934 148.716 111.965H143.7C143.629 111.965 143.571 111.983 143.522 112.02C143.495 112.041 143.472 112.067 143.472 112.13V117.293C143.472 117.398 143.493 117.419 143.598 117.419H144.425C144.53 117.419 144.551 117.398 144.551 117.293V113.531C144.551 113.222 144.737 113.039 145.045 113.039L148.784 113.049V113.039C149.136 113.012 149.472 112.921 149.784 112.764C150.097 112.609 150.375 112.405 150.606 112.159Z" fill="#111111"/>
<path d="M178.462 117.422H181.996C182.677 117.422 183.33 117.291 183.934 117.034C184.541 116.778 185.077 116.421 185.531 115.974C185.982 115.529 186.345 114.997 186.607 114.392C186.867 113.79 187.001 113.135 187.001 112.449C187.001 111.923 186.92 111.407 186.757 110.92C186.594 110.43 186.366 109.975 186.074 109.566C185.783 109.158 185.426 108.791 185.014 108.477C184.599 108.163 184.139 107.919 183.643 107.747C183.128 107.569 182.592 107.479 182.049 107.479H178.462C178.357 107.479 178.336 107.5 178.336 107.605V108.43C178.336 108.535 178.357 108.556 178.462 108.556H181.915C182.448 108.592 182.955 108.713 183.435 108.917C183.916 109.121 184.344 109.396 184.709 109.734C185.077 110.074 185.373 110.48 185.591 110.938C185.812 111.402 185.925 111.91 185.925 112.449C185.925 112.981 185.825 113.489 185.631 113.958C185.436 114.426 185.166 114.843 184.822 115.196C184.478 115.55 184.071 115.83 183.611 116.034C183.149 116.241 182.645 116.343 182.12 116.343H179.909C179.599 116.343 179.415 116.157 179.415 115.851V114.222C179.415 114.117 179.394 114.096 179.289 114.096H178.462C178.357 114.096 178.336 114.117 178.336 114.222V117.293C178.336 117.401 178.357 117.422 178.462 117.422Z" fill="#111111"/>
<path d="M62.3192 117.081C62.8128 117.301 63.3459 117.414 63.9026 117.414C64.5196 117.414 65.0422 117.343 65.4571 117.204C65.8693 117.066 66.2133 116.893 66.4812 116.686C66.7438 116.482 66.946 116.264 67.0825 116.039C67.2269 115.798 67.3372 115.568 67.4081 115.356C67.479 115.146 67.521 114.971 67.5315 114.835C67.5447 114.693 67.5525 114.609 67.5525 114.581C67.5525 114.175 67.4921 113.821 67.3713 113.536C67.2479 113.243 67.093 112.994 66.9118 112.792C66.7333 112.596 66.5311 112.436 66.3131 112.324C66.0689 112.201 65.8326 112.098 65.6094 112.025C65.3862 111.952 65.184 111.902 65.0107 111.876C64.8321 111.85 64.7008 111.831 64.6221 111.821C64.6037 111.818 64.5879 111.816 64.5669 111.813H64.5643C64.2728 111.758 64.005 111.708 63.7634 111.669C63.4798 111.619 63.2303 111.543 63.0255 111.444C62.7892 111.329 62.6001 111.161 62.4636 110.949C62.3244 110.732 62.2561 110.454 62.2561 110.103C62.2561 109.593 62.4793 109.174 62.8995 108.893C63.2802 108.639 63.7975 108.511 64.4409 108.511C64.7428 108.522 65.0212 108.553 65.2785 108.603C65.5201 108.66 65.7486 108.744 65.9718 108.857C66.0742 108.909 66.1713 108.969 66.258 109.04C66.3026 109.074 66.3814 109.069 66.4418 109.027L67.051 108.579C67.114 108.535 67.1219 108.472 67.1245 108.438C67.1245 108.404 67.1166 108.338 67.051 108.289C66.8094 108.1 66.5363 107.938 66.2422 107.807C65.7433 107.582 65.2076 107.469 64.6536 107.469C64.0339 107.469 63.5087 107.534 63.0912 107.665C62.6763 107.796 62.3297 107.959 62.0618 108.147C61.8019 108.333 61.5997 108.535 61.4605 108.752C61.3135 108.982 61.2058 109.197 61.1401 109.391C61.0745 109.587 61.0351 109.752 61.022 109.878C61.0089 110.004 61.001 110.085 61.001 110.111C61.001 110.459 61.0561 110.766 61.1664 111.017C61.2793 111.279 61.4211 111.501 61.5892 111.685C61.7572 111.868 61.9489 112.022 62.1564 112.14C62.3848 112.269 62.6054 112.373 62.8128 112.452C63.0203 112.53 63.2067 112.588 63.3695 112.619C63.5323 112.654 63.6505 112.674 63.724 112.685C63.7424 112.688 63.7608 112.69 63.7844 112.695C64.0759 112.75 64.3595 112.811 64.6247 112.871C64.9214 112.939 65.1866 113.038 65.4203 113.161C65.6777 113.298 65.8851 113.481 66.04 113.706C66.2028 113.944 66.2842 114.24 66.2842 114.591C66.2842 115.081 66.0794 115.505 65.6777 115.858C65.289 116.199 64.7586 116.369 64.0995 116.369C63.7529 116.369 63.4457 116.327 63.1857 116.246C62.9336 116.167 62.7236 116.076 62.5529 115.976C62.4373 115.908 62.3402 115.843 62.2588 115.775L61.5209 116.319C61.4579 116.364 61.45 116.427 61.4474 116.461C61.4474 116.495 61.4553 116.56 61.5209 116.607C61.7599 116.793 62.0303 116.953 62.3192 117.081Z" fill="#111111"/>
<path d="M98.9943 117.115C99.0415 117.202 99.1229 117.212 99.1571 117.212C99.1912 117.212 99.2726 117.202 99.3199 117.113L99.8188 116.165C99.8477 116.11 99.8477 116.047 99.8188 115.995L95.3784 107.59C95.3469 107.529 95.2839 107.49 95.2156 107.49H94.139C94.0445 107.49 93.9972 107.553 93.9815 107.579C93.9657 107.605 93.9316 107.679 93.9762 107.76L98.9943 117.115Z" fill="#111111"/>
<path d="M98.1254 107.49C98.0308 107.49 97.9836 107.553 97.9678 107.579C97.952 107.605 97.9179 107.676 97.9625 107.76L102.802 117.105C102.849 117.197 102.928 117.207 102.965 117.205C102.999 117.205 103.08 117.194 103.128 117.108L108.125 107.762C108.169 107.679 108.135 107.608 108.119 107.582C108.104 107.556 108.056 107.493 107.962 107.493H106.888C106.87 107.493 106.851 107.495 106.838 107.501L102.973 115.11L99.3569 107.571C99.3228 107.524 99.2676 107.495 99.2098 107.495H98.1254V107.49Z" fill="#111111"/>
<path d="M140.376 115.316C140.51 115.235 140.573 115.123 140.573 114.968V109.854C140.573 109.7 140.51 109.587 140.376 109.506L135.967 106.927C135.893 106.885 135.825 106.864 135.762 106.864C135.733 106.864 135.667 106.872 135.547 106.932L131.169 109.506C131.025 109.59 130.962 109.7 130.962 109.854V114.968C130.962 115.125 131.025 115.233 131.169 115.316L135.557 117.895C135.657 117.958 135.741 117.974 135.867 117.945C135.893 117.94 135.922 117.924 135.954 117.903L140.376 115.316ZM135.762 116.835C135.652 116.835 135.544 116.804 135.444 116.743L132.201 114.837C131.997 114.717 131.889 114.531 131.889 114.303V110.519C131.889 110.292 131.997 110.106 132.201 109.985L135.45 108.076C135.717 107.943 135.88 107.964 136.077 108.076L139.341 109.985C139.541 110.108 139.646 110.292 139.646 110.519V114.303C139.646 114.531 139.541 114.714 139.344 114.835L136.077 116.743C136.032 116.777 135.969 116.804 135.909 116.817C135.851 116.83 135.807 116.835 135.762 116.835Z" fill="#111111"/>
<path d="M121.509 107.346H127.659C127.761 107.346 127.842 107.43 127.842 107.529V108.142C127.842 108.244 127.758 108.325 127.659 108.325H121.509C121.406 108.325 121.325 108.241 121.325 108.142V107.529C121.322 107.427 121.406 107.346 121.509 107.346ZM121.506 111.912H126.742C126.844 111.912 126.926 111.994 126.926 112.096V112.708C126.926 112.811 126.844 112.892 126.742 112.892H121.506C121.404 112.892 121.322 112.811 121.322 112.708V112.096C121.322 111.996 121.406 111.912 121.506 111.912ZM121.509 116.453H127.661C127.764 116.453 127.845 116.537 127.845 116.636V117.249C127.845 117.351 127.761 117.432 127.661 117.432H121.509C121.406 117.432 121.325 117.348 121.325 117.249V116.636C121.322 116.537 121.406 116.453 121.509 116.453Z" fill="#111111"/>
</g>
<g clip-path="url(#clip1_2_18868)">
<path d="M219.001 16.0005C212.384 16.0005 207.001 21.3839 207.001 28.0005C207.001 34.617 212.384 40.0005 219.001 40.0005C225.618 40.0005 231.001 34.617 231.001 28.0005C231.001 21.3839 225.618 16.0005 219.001 16.0005ZM225.708 24.8426L218.039 32.4516C217.587 32.9027 216.866 32.9328 216.384 32.4817L212.324 28.7824C211.843 28.3313 211.813 27.5794 212.234 27.0982C212.685 26.617 213.437 26.587 213.918 27.0381L217.136 29.9855L223.993 23.1283C224.475 22.6471 225.227 22.6471 225.708 23.1283C226.189 23.6095 226.189 24.3614 225.708 24.8426Z" fill="#111111"/>
</g>
<defs>
<clipPath id="clip0_2_18868">
<rect width="126" height="75" fill="white" transform="translate(61.001 43.0005)"/>
</clipPath>
<clipPath id="clip1_2_18868">
<rect width="24" height="24" fill="white" transform="translate(207.001 16.0005)"/>
</clipPath>
</defs>
</svg>
