<svg width="447" height="148" viewBox="0 0 447 148" fill="none" xmlns="http://www.w3.org/2000/svg">
<path d="M406.48 66.5685V64.9525C405.061 64.7712 403.803 64.2645 402.704 63.4325L403.952 61.6085C404.869 62.3018 405.739 62.7338 406.56 62.9045V60.3605C405.365 60.0405 404.491 59.6245 403.936 59.1125C403.392 58.5898 403.12 57.8645 403.12 56.9365C403.12 56.0618 403.424 55.3472 404.032 54.7925C404.64 54.2378 405.456 53.9072 406.48 53.8005V52.8725H408.144V53.8325C409.221 53.9818 410.213 54.3765 411.12 55.0165L410.048 56.8885C409.365 56.4298 408.704 56.1152 408.064 55.9445V58.3605C409.291 58.6912 410.176 59.1285 410.72 59.6725C411.264 60.2058 411.536 60.9258 411.536 61.8325C411.536 62.7072 411.227 63.4218 410.608 63.9765C410 64.5312 409.179 64.8672 408.144 64.9845V66.5685H406.48ZM406.56 57.9605V55.8005C405.824 55.8965 405.456 56.2378 405.456 56.8245C405.456 57.0805 405.531 57.2992 405.68 57.4805C405.84 57.6512 406.133 57.8112 406.56 57.9605ZM408.064 62.9845C408.821 62.8672 409.2 62.5152 409.2 61.9285C409.2 61.6512 409.115 61.4272 408.944 61.2565C408.784 61.0752 408.491 60.9045 408.064 60.7445V62.9845ZM418.776 65.1925C417.389 65.1925 416.162 64.7498 415.096 63.8645L416.392 61.9925C417.192 62.6325 418.008 62.9525 418.84 62.9525C419.501 62.9525 420.024 62.7232 420.408 62.2645C420.792 61.8058 421.026 61.1872 421.112 60.4085C420.514 60.9205 419.757 61.1765 418.84 61.1765C417.613 61.1765 416.637 60.8565 415.912 60.2165C415.197 59.5658 414.84 58.6698 414.84 57.5285C414.84 56.3978 415.234 55.4645 416.024 54.7285C416.824 53.9818 417.853 53.6085 419.112 53.6085C419.848 53.6085 420.461 53.7045 420.952 53.8965C421.453 54.0885 421.917 54.3978 422.344 54.8245C423.229 55.7098 423.672 57.1285 423.672 59.0805C423.672 60.9365 423.245 62.4192 422.392 63.5285C421.538 64.6378 420.333 65.1925 418.776 65.1925ZM417.816 58.6645C418.168 58.9738 418.642 59.1285 419.24 59.1285C419.837 59.1285 420.306 58.9738 420.648 58.6645C420.989 58.3445 421.16 57.9338 421.16 57.4325C421.16 56.9312 420.984 56.5205 420.632 56.2005C420.28 55.8805 419.8 55.7205 419.192 55.7205C418.594 55.7205 418.125 55.8805 417.784 56.2005C417.453 56.5098 417.288 56.9258 417.288 57.4485C417.288 57.9498 417.464 58.3552 417.816 58.6645ZM435.562 63.5445C434.634 64.6432 433.434 65.1925 431.962 65.1925C430.49 65.1925 429.295 64.6432 428.378 63.5445C427.46 62.4458 427.002 61.0645 427.002 59.4005C427.002 57.7472 427.466 56.3712 428.394 55.2725C429.322 54.1632 430.522 53.6085 431.994 53.6085C433.455 53.6085 434.644 54.1578 435.562 55.2565C436.49 56.3552 436.954 57.7365 436.954 59.4005C436.954 61.0538 436.49 62.4352 435.562 63.5445ZM430.202 61.9605C430.66 62.6325 431.258 62.9685 431.994 62.9685C432.73 62.9685 433.316 62.6378 433.754 61.9765C434.202 61.3045 434.426 60.4458 434.426 59.4005C434.426 58.3765 434.196 57.5285 433.738 56.8565C433.279 56.1738 432.687 55.8325 431.962 55.8325C431.236 55.8325 430.65 56.1685 430.202 56.8405C429.754 57.5018 429.53 58.3552 429.53 59.4005C429.53 60.4352 429.754 61.2885 430.202 61.9605ZM405.52 80.1605C404.677 80.1605 403.973 79.9258 403.408 79.4565C402.853 78.9872 402.576 78.3365 402.576 77.5045C402.576 76.5978 402.885 75.9152 403.504 75.4565C404.133 74.9978 404.976 74.7685 406.032 74.7685C406.747 74.7685 407.445 74.8858 408.128 75.1205V74.9765C408.128 73.9312 407.515 73.4085 406.288 73.4085C405.552 73.4085 404.763 73.5632 403.92 73.8725L403.312 72.0165C404.357 71.5578 405.467 71.3285 406.64 71.3285C407.931 71.3285 408.896 71.6485 409.536 72.2885C410.155 72.9072 410.464 73.8192 410.464 75.0245V80.0005H408.112V79.0725C407.461 79.7978 406.597 80.1605 405.52 80.1605ZM406.256 78.4805C406.821 78.4805 407.28 78.3418 407.632 78.0645C407.984 77.7765 408.16 77.4138 408.16 76.9765V76.5445C407.701 76.3312 407.184 76.2245 406.608 76.2245C406.075 76.2245 405.659 76.3312 405.36 76.5445C405.072 76.7472 404.928 77.0458 404.928 77.4405C404.928 77.7605 405.051 78.0165 405.296 78.2085C405.541 78.3898 405.861 78.4805 406.256 78.4805ZM416.452 80.0645L413.076 71.4245H415.652L417.572 77.1685L419.508 71.4245H422.036L418.66 80.0645H416.452ZM428.472 82.5925C427.074 82.5925 425.81 82.2938 424.68 81.6965L425.512 79.8725C426.44 80.3952 427.405 80.6565 428.408 80.6565C430.04 80.6565 430.856 79.8778 430.856 78.3205V77.9045C430.472 78.3738 430.061 78.7258 429.624 78.9605C429.197 79.1845 428.674 79.2965 428.056 79.2965C427 79.2965 426.098 78.9338 425.352 78.2085C424.616 77.4832 424.248 76.5018 424.248 75.2645C424.248 74.0378 424.621 73.0672 425.368 72.3525C426.114 71.6272 427.01 71.2645 428.056 71.2645C429.122 71.2645 430.045 71.6912 430.824 72.5445V71.4245H433.256V78.0645C433.256 79.5898 432.893 80.7152 432.168 81.4405C431.4 82.2085 430.168 82.5925 428.472 82.5925ZM427.272 76.7365C427.666 77.0992 428.162 77.2805 428.76 77.2805C429.357 77.2805 429.853 77.0938 430.248 76.7205C430.653 76.3472 430.856 75.8618 430.856 75.2645C430.856 74.6885 430.653 74.2138 430.248 73.8405C429.853 73.4672 429.357 73.2805 428.76 73.2805C428.162 73.2805 427.666 73.4672 427.272 73.8405C426.877 74.2138 426.68 74.6992 426.68 75.2965C426.68 75.8832 426.877 76.3632 427.272 76.7365Z" fill="#111111"/>
<path d="M404.48 14.5685V12.9525C403.061 12.7712 401.803 12.2645 400.704 11.4325L401.952 9.60849C402.869 10.3018 403.739 10.7338 404.56 10.9045V8.36049C403.365 8.04049 402.491 7.62449 401.936 7.11249C401.392 6.58982 401.12 5.86449 401.12 4.93649C401.12 4.06182 401.424 3.34715 402.032 2.79249C402.64 2.23782 403.456 1.90715 404.48 1.80049V0.872488H406.144V1.83249C407.221 1.98182 408.213 2.37649 409.12 3.01649L408.048 4.88849C407.365 4.42982 406.704 4.11515 406.064 3.94449V6.36049C407.291 6.69115 408.176 7.12849 408.72 7.67249C409.264 8.20582 409.536 8.92582 409.536 9.83249C409.536 10.7072 409.227 11.4218 408.608 11.9765C408 12.5312 407.179 12.8672 406.144 12.9845V14.5685H404.48ZM404.56 5.96049V3.80049C403.824 3.89649 403.456 4.23782 403.456 4.82449C403.456 5.08049 403.531 5.29915 403.68 5.48049C403.84 5.65115 404.133 5.81115 404.56 5.96049ZM406.064 10.9845C406.821 10.8672 407.2 10.5152 407.2 9.92849C407.2 9.65115 407.115 9.42715 406.944 9.25649C406.784 9.07515 406.491 8.90449 406.064 8.74449V10.9845ZM412.728 13.0005V11.0485L416.456 7.99249C417.192 7.38449 417.698 6.89915 417.976 6.53649C418.253 6.16315 418.392 5.75249 418.392 5.30449C418.392 4.84582 418.253 4.48849 417.976 4.23249C417.698 3.97649 417.336 3.84849 416.888 3.84849C416.472 3.84849 416.093 3.96582 415.752 4.20049C415.421 4.42449 415.037 4.80849 414.6 5.35249L412.872 3.96049C413.458 3.16049 414.061 2.57382 414.68 2.20049C415.309 1.82715 416.098 1.64049 417.048 1.64049C418.21 1.64049 419.144 1.96049 419.848 2.60049C420.552 3.22982 420.904 4.07249 420.904 5.12849C420.904 5.73649 420.786 6.28582 420.552 6.77649C420.317 7.25649 420.013 7.68315 419.64 8.05649C419.266 8.41915 418.706 8.88849 417.96 9.46449L416.136 10.8725H421.016V13.0005H412.728ZM428.393 13.1925C426.771 13.1925 425.374 12.6325 424.201 11.5125L425.689 9.73649C426.585 10.5472 427.475 10.9525 428.361 10.9525C428.947 10.9525 429.406 10.8138 429.737 10.5365C430.067 10.2592 430.233 9.86982 430.233 9.36849C430.233 8.89915 430.051 8.53115 429.689 8.26449C429.326 7.98715 428.846 7.84849 428.249 7.84849C427.651 7.84849 427.027 7.98715 426.377 8.26449L424.953 7.32049L425.273 1.80049H432.153V3.96049H427.385L427.257 5.89649C427.769 5.76849 428.259 5.70449 428.729 5.70449C429.891 5.70449 430.835 6.00315 431.561 6.60049C432.286 7.19782 432.649 8.10449 432.649 9.32049C432.649 10.5045 432.259 11.4485 431.481 12.1525C430.713 12.8458 429.683 13.1925 428.393 13.1925ZM444.615 11.5445C443.687 12.6432 442.487 13.1925 441.015 13.1925C439.543 13.1925 438.348 12.6432 437.431 11.5445C436.513 10.4458 436.055 9.06449 436.055 7.40049C436.055 5.74715 436.519 4.37115 437.447 3.27249C438.375 2.16315 439.575 1.60849 441.047 1.60849C442.508 1.60849 443.697 2.15782 444.615 3.25649C445.543 4.35515 446.007 5.73649 446.007 7.40049C446.007 9.05382 445.543 10.4352 444.615 11.5445ZM439.255 9.96049C439.713 10.6325 440.311 10.9685 441.047 10.9685C441.783 10.9685 442.369 10.6378 442.807 9.97649C443.255 9.30449 443.479 8.44582 443.479 7.40049C443.479 6.37649 443.249 5.52849 442.791 4.85649C442.332 4.17382 441.74 3.83249 441.015 3.83249C440.289 3.83249 439.703 4.16849 439.255 4.84049C438.807 5.50182 438.583 6.35515 438.583 7.40049C438.583 8.43515 438.807 9.28849 439.255 9.96049Z" fill="#111111"/>
<path d="M406.48 119.568V117.952C405.061 117.771 403.803 117.264 402.704 116.432L403.952 114.608C404.869 115.302 405.739 115.734 406.56 115.904V113.36C405.365 113.04 404.491 112.624 403.936 112.112C403.392 111.59 403.12 110.864 403.12 109.936C403.12 109.062 403.424 108.347 404.032 107.792C404.64 107.238 405.456 106.907 406.48 106.8V105.872H408.144V106.832C409.221 106.982 410.213 107.376 411.12 108.016L410.048 109.888C409.365 109.43 408.704 109.115 408.064 108.944V111.36C409.291 111.691 410.176 112.128 410.72 112.672C411.264 113.206 411.536 113.926 411.536 114.832C411.536 115.707 411.227 116.422 410.608 116.976C410 117.531 409.179 117.867 408.144 117.984V119.568H406.48ZM406.56 110.96V108.8C405.824 108.896 405.456 109.238 405.456 109.824C405.456 110.08 405.531 110.299 405.68 110.48C405.84 110.651 406.133 110.811 406.56 110.96ZM408.064 115.984C408.821 115.867 409.2 115.515 409.2 114.928C409.2 114.651 409.115 114.427 408.944 114.256C408.784 114.075 408.491 113.904 408.064 113.744V115.984ZM423.368 116.544C422.44 117.643 421.24 118.192 419.768 118.192C418.296 118.192 417.101 117.643 416.184 116.544C415.266 115.446 414.808 114.064 414.808 112.4C414.808 110.747 415.272 109.371 416.2 108.272C417.128 107.163 418.328 106.608 419.8 106.608C421.261 106.608 422.45 107.158 423.368 108.256C424.296 109.355 424.76 110.736 424.76 112.4C424.76 114.054 424.296 115.435 423.368 116.544ZM418.008 114.96C418.466 115.632 419.064 115.968 419.8 115.968C420.536 115.968 421.122 115.638 421.56 114.976C422.008 114.304 422.232 113.446 422.232 112.4C422.232 111.376 422.002 110.528 421.544 109.856C421.085 109.174 420.493 108.832 419.768 108.832C419.042 108.832 418.456 109.168 418.008 109.84C417.56 110.502 417.336 111.355 417.336 112.4C417.336 113.435 417.56 114.288 418.008 114.96Z" fill="#111111"/>
<path d="M0 61.0005V59.0005H8.71876V61.0005H0Z" fill="#8F8F8F"/>
<path d="M20.9601 61.0005V59.0005H29.6788V61.0005H20.9601Z" fill="#8F8F8F"/>
<path d="M41.9201 61.0005V59.0005H50.6389V61.0005H41.9201Z" fill="#8F8F8F"/>
<path d="M62.8802 61.0005V59.0005H71.599V61.0005H62.8802Z" fill="#8F8F8F"/>
<path d="M83.8403 61.0005V59.0005H92.559V61.0005H83.8403Z" fill="#8F8F8F"/>
<path d="M104.8 61.0005V59.0005H113.519V61.0005H104.8Z" fill="#8F8F8F"/>
<path d="M125.76 61.0005V59.0005H134.479V61.0005H125.76Z" fill="#8F8F8F"/>
<path d="M146.72 61.0005V59.0005H155.439V61.0005H146.72Z" fill="#8F8F8F"/>
<path d="M167.681 61.0005V59.0005H176.399V61.0005H167.681Z" fill="#8F8F8F"/>
<path d="M188.641 61.0005V59.0005H197.359V61.0005H188.641Z" fill="#8F8F8F"/>
<path d="M209.601 61.0005V59.0005H218.319V61.0005H209.601Z" fill="#8F8F8F"/>
<path d="M230.561 61.0005V59.0005H239.28V61.0005H230.561Z" fill="#8F8F8F"/>
<path d="M251.521 61.0005V59.0005H260.24V61.0005H251.521Z" fill="#8F8F8F"/>
<path d="M272.481 61.0005V59.0005H281.2V61.0005H272.481Z" fill="#8F8F8F"/>
<path d="M293.441 61.0005V59.0005H302.16V61.0005H293.441Z" fill="#8F8F8F"/>
<path d="M314.401 61.0005V59.0005H323.12V61.0005H314.401Z" fill="#8F8F8F"/>
<path d="M335.361 61.0005V59.0005H344.08V61.0005H335.361Z" fill="#8F8F8F"/>
<path d="M356.321 61.0005V59.0005H365.04V61.0005H356.321Z" fill="#8F8F8F"/>
<path d="M377.281 61.0005V59.0005H386V61.0005H377.281Z" fill="#8F8F8F"/>
<rect x="10.5" y="26.5005" width="24" height="94" rx="4.5" stroke="#111111"/>
<rect x="67.5" y="1.50049" width="24" height="119" rx="4.5" stroke="#111111"/>
<rect x="124.5" y="17.5005" width="24" height="103" rx="4.5" stroke="#111111"/>
<rect x="181.5" y="48.5005" width="24" height="72" rx="4.5" stroke="#111111"/>
<rect x="238.5" y="12.5005" width="24" height="108" rx="4.5" stroke="#111111"/>
<rect x="295.5" y="37.5005" width="24" height="83" rx="4.5" stroke="#111111"/>
<rect x="352.5" y="48.5005" width="24" height="72" rx="4.5" stroke="#111111"/>
<path d="M7.584 143V131.8H8.864L12.944 137.912L17.024 131.8H18.304V143H17.04V133.928L12.96 139.928H12.896L8.816 133.944V143H7.584ZM27.6506 141.928C26.8186 142.771 25.7893 143.192 24.5626 143.192C23.336 143.192 22.312 142.771 21.4906 141.928C20.68 141.086 20.2746 140.067 20.2746 138.872C20.2746 137.688 20.6853 136.675 21.5066 135.832C22.3386 134.979 23.368 134.552 24.5946 134.552C25.8213 134.552 26.8453 134.974 27.6666 135.816C28.488 136.659 28.8986 137.678 28.8986 138.872C28.8986 140.056 28.4826 141.075 27.6506 141.928ZM24.5946 142.088C25.48 142.088 26.2053 141.779 26.7706 141.16C27.3466 140.542 27.6346 139.779 27.6346 138.872C27.6346 137.976 27.336 137.214 26.7386 136.584C26.152 135.955 25.4266 135.64 24.5626 135.64C23.6773 135.64 22.952 135.955 22.3866 136.584C21.8213 137.203 21.5386 137.966 21.5386 138.872C21.5386 139.768 21.832 140.531 22.4186 141.16C23.0053 141.779 23.7306 142.088 24.5946 142.088ZM30.6504 143V134.728H31.8824V136.168C32.533 135.091 33.477 134.552 34.7144 134.552C35.6957 134.552 36.469 134.856 37.0344 135.464C37.5997 136.062 37.8824 136.862 37.8824 137.864V143H36.6504V138.168C36.6504 137.39 36.4477 136.782 36.0424 136.344C35.6477 135.896 35.0877 135.672 34.3624 135.672C33.6477 135.672 33.0557 135.912 32.5864 136.392C32.117 136.872 31.8824 137.496 31.8824 138.264V143H30.6504Z" fill="#111111"/>
<path d="M70.544 143V132.968H66.784V131.8H75.584V132.968H71.824V143H70.544ZM78.9204 143.176C77.939 143.176 77.1657 142.878 76.6004 142.28C76.035 141.672 75.7524 140.867 75.7524 139.864V134.728H76.9844V139.56C76.9844 140.339 77.1817 140.952 77.5764 141.4C77.9817 141.838 78.547 142.056 79.2724 142.056C79.987 142.056 80.579 141.816 81.0484 141.336C81.5177 140.856 81.7524 140.232 81.7524 139.464V134.728H82.9684V143H81.7524V141.56C81.0804 142.638 80.1364 143.176 78.9204 143.176ZM85.9958 139.368C86.0811 140.211 86.3958 140.883 86.9398 141.384C87.4944 141.875 88.1504 142.12 88.9078 142.12C89.8998 142.12 90.7691 141.731 91.5158 140.952L92.2838 141.64C91.3558 142.675 90.2198 143.192 88.8758 143.192C87.7131 143.192 86.7318 142.792 85.9318 141.992C85.1424 141.182 84.7478 140.142 84.7478 138.872C84.7478 137.667 85.1264 136.648 85.8838 135.816C86.6411 134.974 87.5851 134.552 88.7158 134.552C89.8998 134.552 90.8384 134.968 91.5318 135.8C92.2251 136.632 92.5718 137.678 92.5718 138.936C92.5718 139.096 92.5664 139.24 92.5558 139.368H85.9958ZM85.9958 138.376H91.3238C91.2491 137.576 90.9824 136.915 90.5238 136.392C90.0758 135.859 89.4624 135.592 88.6838 135.592C87.9798 135.592 87.3771 135.854 86.8758 136.376C86.3744 136.899 86.0811 137.566 85.9958 138.376Z" fill="#111111"/>
<path d="M123.72 143.08L119.72 131.8H121.096L124.296 141.128L127.368 131.768H128.408L131.48 141.128L134.68 131.8H136.008L132.008 143.08H130.936L127.864 133.992L124.776 143.08H123.72ZM137.304 139.368C137.389 140.211 137.704 140.883 138.248 141.384C138.803 141.875 139.459 142.12 140.216 142.12C141.208 142.12 142.077 141.731 142.824 140.952L143.592 141.64C142.664 142.675 141.528 143.192 140.184 143.192C139.021 143.192 138.04 142.792 137.24 141.992C136.451 141.182 136.056 140.142 136.056 138.872C136.056 137.667 136.435 136.648 137.192 135.816C137.949 134.974 138.893 134.552 140.024 134.552C141.208 134.552 142.147 134.968 142.84 135.8C143.533 136.632 143.88 137.678 143.88 138.936C143.88 139.096 143.875 139.24 143.864 139.368H137.304ZM137.304 138.376H142.632C142.557 137.576 142.291 136.915 141.832 136.392C141.384 135.859 140.771 135.592 139.992 135.592C139.288 135.592 138.685 135.854 138.184 136.376C137.683 136.899 137.389 137.566 137.304 138.376ZM149.029 143.176C147.973 143.176 147.05 142.787 146.261 142.008C145.471 141.219 145.077 140.168 145.077 138.856C145.077 137.566 145.471 136.526 146.261 135.736C147.05 134.947 147.973 134.552 149.029 134.552C150.33 134.552 151.386 135.139 152.197 136.312V131.32H153.429V143H152.197V141.336C151.365 142.563 150.309 143.176 149.029 143.176ZM149.253 142.072C150.053 142.072 150.751 141.768 151.349 141.16C151.946 140.552 152.245 139.779 152.245 138.84C152.245 137.923 151.946 137.166 151.349 136.568C150.751 135.96 150.053 135.656 149.253 135.656C148.421 135.656 147.727 135.95 147.173 136.536C146.618 137.112 146.341 137.891 146.341 138.872C146.341 139.822 146.623 140.595 147.189 141.192C147.754 141.779 148.442 142.072 149.253 142.072Z" fill="#111111"/>
<path d="M183.544 143V132.968H179.784V131.8H188.584V132.968H184.824V143H183.544ZM190.037 143V131.32H191.269V136.168C191.919 135.091 192.863 134.552 194.101 134.552C195.082 134.552 195.855 134.856 196.421 135.464C196.986 136.062 197.269 136.862 197.269 137.864V143H196.037V138.168C196.037 137.39 195.834 136.782 195.429 136.344C195.034 135.896 194.474 135.672 193.749 135.672C193.034 135.672 192.442 135.912 191.973 136.392C191.503 136.872 191.269 137.496 191.269 138.264V143H190.037ZM202.456 143.176C201.475 143.176 200.701 142.878 200.136 142.28C199.571 141.672 199.288 140.867 199.288 139.864V134.728H200.52V139.56C200.52 140.339 200.717 140.952 201.112 141.4C201.517 141.838 202.083 142.056 202.808 142.056C203.523 142.056 204.115 141.816 204.584 141.336C205.053 140.856 205.288 140.232 205.288 139.464V134.728H206.504V143H205.288V141.56C204.616 142.638 203.672 143.176 202.456 143.176Z" fill="#111111"/>
<path d="M241.584 143V131.8H249.632V132.968H242.848V136.968H248.912V138.12H242.848V143H241.584ZM251.396 143V134.728H252.628V136.888C252.948 136.174 253.401 135.603 253.988 135.176C254.575 134.75 255.247 134.552 256.004 134.584V135.912H255.908C254.959 135.912 254.175 136.243 253.556 136.904C252.937 137.566 252.628 138.499 252.628 139.704V143H251.396ZM257.432 132.92V131.56H258.84V132.92H257.432ZM257.512 143V134.728H258.744V143H257.512Z" fill="#111111"/>
<path d="M300.424 143.16C298.707 143.16 297.181 142.563 295.848 141.368L296.632 140.44C297.229 140.984 297.827 141.384 298.424 141.64C299.032 141.896 299.715 142.024 300.472 142.024C301.219 142.024 301.821 141.848 302.28 141.496C302.739 141.134 302.968 140.664 302.968 140.088C302.968 139.544 302.765 139.112 302.36 138.792C301.955 138.472 301.187 138.195 300.056 137.96C298.723 137.672 297.763 137.283 297.176 136.792C296.589 136.302 296.296 135.603 296.296 134.696C296.296 133.811 296.643 133.08 297.336 132.504C298.029 131.928 298.909 131.64 299.976 131.64C301.459 131.64 302.771 132.099 303.912 133.016L303.176 133.992C302.184 133.182 301.107 132.776 299.944 132.776C299.229 132.776 298.653 132.952 298.216 133.304C297.779 133.646 297.56 134.083 297.56 134.616C297.56 135.171 297.768 135.608 298.184 135.928C298.611 136.248 299.416 136.536 300.6 136.792C301.869 137.07 302.792 137.459 303.368 137.96C303.955 138.451 304.248 139.128 304.248 139.992C304.248 140.942 303.891 141.71 303.176 142.296C302.461 142.872 301.544 143.16 300.424 143.16ZM308.594 143.176C307.752 143.176 307.026 142.947 306.418 142.488C305.81 142.03 305.506 141.39 305.506 140.568C305.506 139.704 305.826 139.038 306.466 138.568C307.106 138.099 307.965 137.864 309.042 137.864C309.896 137.864 310.738 137.982 311.57 138.216V137.96C311.57 137.235 311.357 136.68 310.93 136.296C310.504 135.912 309.901 135.72 309.122 135.72C308.312 135.72 307.474 135.918 306.61 136.312L306.242 135.304C307.266 134.835 308.269 134.6 309.25 134.6C310.424 134.6 311.314 134.904 311.922 135.512C312.498 136.088 312.786 136.899 312.786 137.944V143H311.57V141.768C310.834 142.707 309.842 143.176 308.594 143.176ZM308.834 142.184C309.602 142.184 310.253 141.976 310.786 141.56C311.32 141.144 311.586 140.611 311.586 139.96V139.192C310.776 138.958 309.97 138.84 309.17 138.84C308.413 138.84 307.821 138.995 307.394 139.304C306.968 139.603 306.754 140.014 306.754 140.536C306.754 141.038 306.952 141.438 307.346 141.736C307.752 142.035 308.248 142.184 308.834 142.184ZM317.684 143.144C316.969 143.144 316.399 142.958 315.972 142.584C315.556 142.2 315.348 141.608 315.348 140.808V135.816H314.196V134.728H315.348V132.232H316.58V134.728H319.204V135.816H316.58V140.648C316.58 141.566 317.044 142.024 317.972 142.024C318.377 142.024 318.777 141.928 319.172 141.736V142.792C318.724 143.027 318.228 143.144 317.684 143.144Z" fill="#111111"/>
<path d="M355.424 143.16C353.707 143.16 352.181 142.563 350.848 141.368L351.632 140.44C352.229 140.984 352.827 141.384 353.424 141.64C354.032 141.896 354.715 142.024 355.472 142.024C356.219 142.024 356.821 141.848 357.28 141.496C357.739 141.134 357.968 140.664 357.968 140.088C357.968 139.544 357.765 139.112 357.36 138.792C356.955 138.472 356.187 138.195 355.056 137.96C353.723 137.672 352.763 137.283 352.176 136.792C351.589 136.302 351.296 135.603 351.296 134.696C351.296 133.811 351.643 133.08 352.336 132.504C353.029 131.928 353.909 131.64 354.976 131.64C356.459 131.64 357.771 132.099 358.912 133.016L358.176 133.992C357.184 133.182 356.107 132.776 354.944 132.776C354.229 132.776 353.653 132.952 353.216 133.304C352.779 133.646 352.56 134.083 352.56 134.616C352.56 135.171 352.768 135.608 353.184 135.928C353.611 136.248 354.416 136.536 355.6 136.792C356.869 137.07 357.792 137.459 358.368 137.96C358.955 138.451 359.248 139.128 359.248 139.992C359.248 140.942 358.891 141.71 358.176 142.296C357.461 142.872 356.544 143.16 355.424 143.16ZM364.17 143.176C363.189 143.176 362.416 142.878 361.85 142.28C361.285 141.672 361.002 140.867 361.002 139.864V134.728H362.234V139.56C362.234 140.339 362.432 140.952 362.826 141.4C363.232 141.838 363.797 142.056 364.522 142.056C365.237 142.056 365.829 141.816 366.298 141.336C366.768 140.856 367.002 140.232 367.002 139.464V134.728H368.218V143H367.002V141.56C366.33 142.638 365.386 143.176 364.17 143.176ZM370.51 143V134.728H371.742V136.168C372.392 135.091 373.336 134.552 374.574 134.552C375.555 134.552 376.328 134.856 376.894 135.464C377.459 136.062 377.742 136.862 377.742 137.864V143H376.51V138.168C376.51 137.39 376.307 136.782 375.902 136.344C375.507 135.896 374.947 135.672 374.222 135.672C373.507 135.672 372.915 135.912 372.446 136.392C371.976 136.872 371.742 137.496 371.742 138.264V143H370.51Z" fill="#111111"/>
</svg>
