<svg width="160" height="56" viewBox="0 0 160 56" fill="none" xmlns="http://www.w3.org/2000/svg">
<rect x="1" y="1" width="158" height="54" rx="11" fill="white" fill-opacity="0.4" stroke="#FF0000" stroke-width="2"/>
<path d="M61.424 32.16C59.7067 32.16 58.1813 31.5627 56.848 30.368L57.632 29.44C58.2293 29.984 58.8267 30.384 59.424 30.64C60.032 30.896 60.7147 31.024 61.472 31.024C62.2187 31.024 62.8213 30.848 63.28 30.496C63.7387 30.1333 63.968 29.664 63.968 29.088C63.968 28.544 63.7653 28.112 63.36 27.792C62.9547 27.472 62.1867 27.1947 61.056 26.96C59.7227 26.672 58.7627 26.2827 58.176 25.792C57.5893 25.3013 57.296 24.6027 57.296 23.696C57.296 22.8107 57.6427 22.08 58.336 21.504C59.0293 20.928 59.9093 20.64 60.976 20.64C62.4587 20.64 63.7707 21.0987 64.912 22.016L64.176 22.992C63.184 22.1813 62.1067 21.776 60.944 21.776C60.2293 21.776 59.6533 21.952 59.216 22.304C58.7787 22.6453 58.56 23.0827 58.56 23.616C58.56 24.1707 58.768 24.608 59.184 24.928C59.6107 25.248 60.416 25.536 61.6 25.792C62.8693 26.0693 63.792 26.4587 64.368 26.96C64.9547 27.4507 65.248 28.128 65.248 28.992C65.248 29.9413 64.8907 30.7093 64.176 31.296C63.4613 31.872 62.544 32.16 61.424 32.16ZM67.8664 28.368C67.9517 29.2107 68.2664 29.8827 68.8104 30.384C69.365 30.8747 70.021 31.12 70.7784 31.12C71.7704 31.12 72.6397 30.7307 73.3864 29.952L74.1544 30.64C73.2264 31.6747 72.0904 32.192 70.7464 32.192C69.5837 32.192 68.6024 31.792 67.8024 30.992C67.013 30.1813 66.6184 29.1413 66.6184 27.872C66.6184 26.6667 66.997 25.648 67.7544 24.816C68.5117 23.9733 69.4557 23.552 70.5864 23.552C71.7704 23.552 72.709 23.968 73.4024 24.8C74.0957 25.632 74.4424 26.6773 74.4424 27.936C74.4424 28.096 74.437 28.24 74.4264 28.368H67.8664ZM67.8664 27.376H73.1944C73.1197 26.576 72.853 25.9147 72.3944 25.392C71.9464 24.8587 71.333 24.592 70.5544 24.592C69.8504 24.592 69.2477 24.8533 68.7464 25.376C68.245 25.8987 67.9517 26.5653 67.8664 27.376ZM76.2311 32V20.32H77.4631V32H76.2311ZM79.9542 32V20.32H81.1862V32H79.9542Z" fill="#FF0000"/>
<rect x="91" y="26.4" width="14" height="2.13333" rx="1.06667" fill="#FF0000"/>
</svg>
