<svg width="48" height="48" viewBox="0 0 48 48" fill="none" xmlns="http://www.w3.org/2000/svg">
<path d="M24 35C30.0751 35 35 30.0751 35 24C35 17.9249 30.0751 13 24 13C17.9249 13 13 17.9249 13 24C13 30.0751 17.9249 35 24 35Z" stroke="#2E00FF" stroke-miterlimit="10"/>
<path d="M19.4163 22.6249C20.4289 22.6249 21.2497 21.8041 21.2497 20.7916C21.2497 19.7791 20.4289 18.9583 19.4163 18.9583C18.4038 18.9583 17.583 19.7791 17.583 20.7916C17.583 21.8041 18.4038 22.6249 19.4163 22.6249Z" stroke="#2E00FF" stroke-miterlimit="10"/>
<path d="M28.5833 22.6249C29.5959 22.6249 30.4167 21.8041 30.4167 20.7916C30.4167 19.7791 29.5959 18.9583 28.5833 18.9583C27.5708 18.9583 26.75 19.7791 26.75 20.7916C26.75 21.8041 27.5708 22.6249 28.5833 22.6249Z" stroke="#2E00FF" stroke-miterlimit="10"/>
<path d="M19.417 26.4475C19.6966 28.7392 21.6445 30.0821 24.0003 30.0821C26.3562 30.0821 28.3087 28.7575 28.5837 26.4475" stroke="#2E00FF" stroke-linecap="round" stroke-linejoin="round"/>
<circle cx="24" cy="24.0005" r="23.5" stroke="#111111"/>
</svg>
