<svg width="351" height="336" viewBox="0 0 351 336" fill="none" xmlns="http://www.w3.org/2000/svg">
<rect x="0.5" y="40.5005" width="294" height="295" rx="11.5" fill="white" fill-opacity="0.4" stroke="#111111"/>
<line x1="24" y1="95.5005" x2="271" y2="95.5005" stroke="#111111"/>
<path d="M27.952 76.0005V67.0725H24.544V64.8005H33.824V67.0725H30.416V76.0005H27.952ZM36.1099 76.0005V67.4245H38.5419V69.1525C39.0965 67.8405 40.0085 67.2112 41.2779 67.2645V69.8085H41.1499C40.3179 69.8085 39.6725 70.0645 39.2139 70.5765C38.7659 71.0778 38.5419 71.8298 38.5419 72.8325V76.0005H36.1099ZM46.4231 76.1605C45.5805 76.1605 44.8765 75.9258 44.3111 75.4565C43.7565 74.9872 43.4791 74.3365 43.4791 73.5045C43.4791 72.5978 43.7885 71.9152 44.4071 71.4565C45.0365 70.9978 45.8791 70.7685 46.9351 70.7685C47.6498 70.7685 48.3485 70.8858 49.0311 71.1205V70.9765C49.0311 69.9312 48.4178 69.4085 47.1911 69.4085C46.4551 69.4085 45.6658 69.5632 44.8231 69.8725L44.2151 68.0165C45.2605 67.5578 46.3698 67.3285 47.5431 67.3285C48.8338 67.3285 49.7991 67.6485 50.4391 68.2885C51.0578 68.9072 51.3671 69.8192 51.3671 71.0245V76.0005H49.0151V75.0725C48.3645 75.7978 47.5005 76.1605 46.4231 76.1605ZM47.1591 74.4805C47.7245 74.4805 48.1831 74.3418 48.5351 74.0645C48.8871 73.7765 49.0631 73.4138 49.0631 72.9765V72.5445C48.6045 72.3312 48.0871 72.2245 47.5111 72.2245C46.9778 72.2245 46.5618 72.3312 46.2631 72.5445C45.9751 72.7472 45.8311 73.0458 45.8311 73.4405C45.8311 73.7605 45.9538 74.0165 46.1991 74.2085C46.4445 74.3898 46.7645 74.4805 47.1591 74.4805ZM55.0599 76.0005V67.4245H57.4919V68.6405C58.2065 67.7232 59.0439 67.2645 60.0039 67.2645C60.9212 67.2645 61.6359 67.5472 62.1479 68.1125C62.6599 68.6778 62.9159 69.4565 62.9159 70.4485V76.0005H60.4839V71.2165C60.4839 70.6512 60.3559 70.2192 60.0999 69.9205C59.8439 69.6218 59.4812 69.4725 59.0119 69.4725C58.5425 69.4725 58.1692 69.6218 57.8919 69.9205C57.6252 70.2192 57.4919 70.6512 57.4919 71.2165V76.0005H55.0599ZM69.6366 76.1605C68.282 76.1605 67.0553 75.7285 65.9566 74.8645L66.9966 73.2645C67.9353 73.9472 68.8366 74.2885 69.7006 74.2885C70.3833 74.2885 70.7246 74.0645 70.7246 73.6165C70.7246 73.5632 70.714 73.5098 70.6926 73.4565C70.682 73.4032 70.6553 73.3552 70.6126 73.3125C70.57 73.2698 70.522 73.2325 70.4686 73.2005C70.426 73.1578 70.362 73.1205 70.2766 73.0885C70.202 73.0458 70.1326 73.0138 70.0686 72.9925C70.0153 72.9605 69.9353 72.9285 69.8286 72.8965C69.722 72.8538 69.6313 72.8218 69.5566 72.8005C69.482 72.7792 69.3806 72.7525 69.2526 72.7205C69.1246 72.6778 69.0233 72.6458 68.9486 72.6245C68.586 72.5178 68.2766 72.4112 68.0206 72.3045C67.7753 72.1872 67.514 72.0325 67.2366 71.8405C66.9593 71.6378 66.746 71.3872 66.5966 71.0885C66.458 70.7792 66.3886 70.4218 66.3886 70.0165C66.3886 69.1738 66.6873 68.5125 67.2846 68.0325C67.882 67.5418 68.6286 67.2965 69.5246 67.2965C70.6766 67.2965 71.7433 67.6272 72.7246 68.2885L71.7966 69.9685C70.89 69.4352 70.1166 69.1685 69.4766 69.1685C68.8793 69.1685 68.5806 69.3765 68.5806 69.7925C68.5806 70.0805 69.0713 70.3898 70.0526 70.7205C70.17 70.7632 70.2606 70.7952 70.3246 70.8165C70.6126 70.9125 70.858 71.0032 71.0606 71.0885C71.2633 71.1738 71.4926 71.2912 71.7486 71.4405C72.0046 71.5898 72.2073 71.7498 72.3566 71.9205C72.5166 72.0805 72.65 72.2885 72.7566 72.5445C72.8633 72.8005 72.9166 73.0832 72.9166 73.3925C72.9166 74.3098 72.6126 75.0032 72.0046 75.4725C71.4073 75.9312 70.618 76.1605 69.6366 76.1605ZM78.6919 76.1605C77.8492 76.1605 77.1452 75.9258 76.5799 75.4565C76.0252 74.9872 75.7479 74.3365 75.7479 73.5045C75.7479 72.5978 76.0572 71.9152 76.6759 71.4565C77.3052 70.9978 78.1479 70.7685 79.2039 70.7685C79.9185 70.7685 80.6172 70.8858 81.2999 71.1205V70.9765C81.2999 69.9312 80.6865 69.4085 79.4599 69.4085C78.7239 69.4085 77.9345 69.5632 77.0919 69.8725L76.4839 68.0165C77.5292 67.5578 78.6385 67.3285 79.8119 67.3285C81.1025 67.3285 82.0679 67.6485 82.7079 68.2885C83.3265 68.9072 83.6359 69.8192 83.6359 71.0245V76.0005H81.2839V75.0725C80.6332 75.7978 79.7692 76.1605 78.6919 76.1605ZM79.4279 74.4805C79.9932 74.4805 80.4519 74.3418 80.8039 74.0645C81.1559 73.7765 81.3319 73.4138 81.3319 72.9765V72.5445C80.8732 72.3312 80.3559 72.2245 79.7799 72.2245C79.2465 72.2245 78.8305 72.3312 78.5319 72.5445C78.2439 72.7472 78.0999 73.0458 78.0999 73.4405C78.0999 73.7605 78.2225 74.0165 78.4679 74.2085C78.7132 74.3898 79.0332 74.4805 79.4279 74.4805ZM91.3766 76.1925C90.0966 76.1925 89.03 75.7605 88.1766 74.8965C87.334 74.0325 86.9126 72.9765 86.9126 71.7285C86.9126 70.4912 87.3393 69.4405 88.1926 68.5765C89.046 67.7018 90.118 67.2645 91.4086 67.2645C92.7846 67.2645 93.9206 67.7658 94.8166 68.7685L93.3926 70.2085C92.7953 69.6432 92.1286 69.3605 91.3926 69.3605C90.7953 69.3605 90.2993 69.5898 89.9046 70.0485C89.51 70.5072 89.3126 71.0672 89.3126 71.7285C89.3126 72.4005 89.51 72.9658 89.9046 73.4245C90.31 73.8725 90.838 74.0965 91.4886 74.0965C92.1606 74.0965 92.8166 73.7925 93.4566 73.1845L94.8806 74.6245C94.4113 75.1365 93.91 75.5258 93.3766 75.7925C92.8433 76.0592 92.1766 76.1925 91.3766 76.1925ZM100.965 76.1445C100.165 76.1445 99.5466 75.9525 99.1092 75.5685C98.6826 75.1738 98.4692 74.5072 98.4692 73.5685V69.5045H97.4452V67.4245H98.4692V65.2325H100.901V67.4245H102.917V69.5045H100.901V73.1685C100.901 73.7232 101.163 74.0005 101.685 74.0005C102.112 74.0005 102.512 73.8992 102.885 73.6965V75.6485C102.331 75.9792 101.691 76.1445 100.965 76.1445ZM106.358 66.4805V64.3205H108.918V66.4805H106.358ZM106.422 76.0005V67.4245H108.854V76.0005H106.422ZM120.258 74.8965C119.373 75.7605 118.269 76.1925 116.946 76.1925C115.623 76.1925 114.519 75.7658 113.634 74.9125C112.759 74.0485 112.322 72.9872 112.322 71.7285C112.322 70.4805 112.765 69.4245 113.65 68.5605C114.546 67.6965 115.655 67.2645 116.978 67.2645C118.301 67.2645 119.399 67.6965 120.274 68.5605C121.159 69.4138 121.602 70.4698 121.602 71.7285C121.602 72.9765 121.154 74.0325 120.258 74.8965ZM116.978 74.0965C117.65 74.0965 118.189 73.8725 118.594 73.4245C118.999 72.9658 119.202 72.4005 119.202 71.7285C119.202 71.0778 118.989 70.5232 118.562 70.0645C118.146 69.5952 117.607 69.3605 116.946 69.3605C116.274 69.3605 115.735 69.5898 115.33 70.0485C114.925 70.4965 114.722 71.0565 114.722 71.7285C114.722 72.3792 114.93 72.9392 115.346 73.4085C115.773 73.8672 116.317 74.0965 116.978 74.0965ZM124.963 76.0005V67.4245H127.395V68.6405C128.11 67.7232 128.947 67.2645 129.907 67.2645C130.824 67.2645 131.539 67.5472 132.051 68.1125C132.563 68.6778 132.819 69.4565 132.819 70.4485V76.0005H130.387V71.2165C130.387 70.6512 130.259 70.2192 130.003 69.9205C129.747 69.6218 129.384 69.4725 128.915 69.4725C128.446 69.4725 128.072 69.6218 127.795 69.9205C127.528 70.2192 127.395 70.6512 127.395 71.2165V76.0005H124.963ZM139.54 76.1605C138.185 76.1605 136.958 75.7285 135.86 74.8645L136.9 73.2645C137.838 73.9472 138.74 74.2885 139.604 74.2885C140.286 74.2885 140.628 74.0645 140.628 73.6165C140.628 73.5632 140.617 73.5098 140.596 73.4565C140.585 73.4032 140.558 73.3552 140.516 73.3125C140.473 73.2698 140.425 73.2325 140.372 73.2005C140.329 73.1578 140.265 73.1205 140.18 73.0885C140.105 73.0458 140.036 73.0138 139.972 72.9925C139.918 72.9605 139.838 72.9285 139.732 72.8965C139.625 72.8538 139.534 72.8218 139.46 72.8005C139.385 72.7792 139.284 72.7525 139.156 72.7205C139.028 72.6778 138.926 72.6458 138.852 72.6245C138.489 72.5178 138.18 72.4112 137.924 72.3045C137.678 72.1872 137.417 72.0325 137.14 71.8405C136.862 71.6378 136.649 71.3872 136.5 71.0885C136.361 70.7792 136.292 70.4218 136.292 70.0165C136.292 69.1738 136.59 68.5125 137.188 68.0325C137.785 67.5418 138.532 67.2965 139.428 67.2965C140.58 67.2965 141.646 67.6272 142.628 68.2885L141.7 69.9685C140.793 69.4352 140.02 69.1685 139.38 69.1685C138.782 69.1685 138.484 69.3765 138.484 69.7925C138.484 70.0805 138.974 70.3898 139.956 70.7205C140.073 70.7632 140.164 70.7952 140.228 70.8165C140.516 70.9125 140.761 71.0032 140.964 71.0885C141.166 71.1738 141.396 71.2912 141.652 71.4405C141.908 71.5898 142.11 71.7498 142.26 71.9205C142.42 72.0805 142.553 72.2885 142.66 72.5445C142.766 72.8005 142.82 73.0832 142.82 73.3925C142.82 74.3098 142.516 75.0032 141.908 75.4725C141.31 75.9312 140.521 76.1605 139.54 76.1605Z" fill="#111111"/>
<path fill-rule="evenodd" clip-rule="evenodd" d="M180 146C180 147.657 178.657 149 177 149H73C71.3431 149 70 147.657 70 146C70 144.344 71.3431 143 73 143H177C178.657 143 180 144.344 180 146Z" fill="#2E00FF"/>
<path d="M71.358 131V121.2H73.08V131H71.358ZM76.9074 131V123.608H78.6014V124.756C79.1894 123.888 79.9594 123.454 80.9114 123.454C81.7327 123.454 82.3767 123.711 82.8434 124.224C83.31 124.738 83.5434 125.428 83.5434 126.296V131H81.8494V126.8C81.8494 126.222 81.7094 125.778 81.4294 125.47C81.1587 125.153 80.7714 124.994 80.2674 124.994C79.7727 124.994 79.3714 125.158 79.0634 125.484C78.7554 125.811 78.6014 126.259 78.6014 126.828V131H76.9074ZM89.467 131.126C88.0483 131.126 87.339 130.403 87.339 128.956V125.064H86.401V123.608H87.339V121.578H89.033V123.608H91.021V125.064H89.033V128.69C89.033 129.306 89.3363 129.614 89.943 129.614C90.307 129.614 90.657 129.53 90.993 129.362V130.748C90.545 131 90.0363 131.126 89.467 131.126ZM97.3141 131.168C96.2314 131.168 95.3261 130.809 94.5981 130.09C93.8794 129.372 93.5201 128.443 93.5201 127.304C93.5201 126.231 93.8608 125.321 94.5421 124.574C95.2234 123.828 96.0868 123.454 97.1321 123.454C98.2521 123.454 99.1201 123.837 99.7361 124.602C100.361 125.358 100.674 126.301 100.674 127.43C100.674 127.636 100.665 127.794 100.646 127.906H95.2141C95.3074 128.494 95.5454 128.956 95.9281 129.292C96.3108 129.619 96.7821 129.782 97.3421 129.782C98.0701 129.782 98.7374 129.488 99.3441 128.9L100.338 129.782C99.5728 130.706 98.5648 131.168 97.3141 131.168ZM95.2001 126.786H98.9941C98.9381 126.217 98.7468 125.75 98.4201 125.386C98.0934 125.022 97.6594 124.84 97.1181 124.84C96.6048 124.84 96.1754 125.022 95.8301 125.386C95.4848 125.741 95.2748 126.208 95.2001 126.786ZM103.775 131V123.608H105.469V125.274C105.992 124.014 106.865 123.412 108.087 123.468V125.26H107.989C107.224 125.26 106.613 125.512 106.155 126.016C105.698 126.511 105.469 127.234 105.469 128.186V131H103.775ZM114.1 131.168C113.018 131.168 112.112 130.809 111.384 130.09C110.666 129.372 110.306 128.443 110.306 127.304C110.306 126.231 110.647 125.321 111.328 124.574C112.01 123.828 112.873 123.454 113.918 123.454C115.038 123.454 115.906 123.837 116.522 124.602C117.148 125.358 117.46 126.301 117.46 127.43C117.46 127.636 117.451 127.794 117.432 127.906H112C112.094 128.494 112.332 128.956 112.714 129.292C113.097 129.619 113.568 129.782 114.128 129.782C114.856 129.782 115.524 129.488 116.13 128.9L117.124 129.782C116.359 130.706 115.351 131.168 114.1 131.168ZM111.986 126.786H115.78C115.724 126.217 115.533 125.75 115.206 125.386C114.88 125.022 114.446 124.84 113.904 124.84C113.391 124.84 112.962 125.022 112.616 125.386C112.271 125.741 112.061 126.208 111.986 126.786ZM123.096 131.14C121.938 131.14 120.893 130.772 119.96 130.034L120.716 128.886C121.518 129.493 122.326 129.796 123.138 129.796C123.502 129.796 123.782 129.726 123.978 129.586C124.183 129.437 124.286 129.232 124.286 128.97C124.286 128.84 124.248 128.728 124.174 128.634C124.108 128.532 123.987 128.438 123.81 128.354C123.632 128.27 123.483 128.21 123.362 128.172C123.24 128.135 123.04 128.074 122.76 127.99L122.634 127.948C122.372 127.874 122.148 127.804 121.962 127.738C121.784 127.664 121.584 127.566 121.36 127.444C121.136 127.323 120.954 127.192 120.814 127.052C120.674 126.903 120.557 126.716 120.464 126.492C120.37 126.268 120.324 126.016 120.324 125.736C120.324 125.055 120.571 124.509 121.066 124.098C121.57 123.688 122.2 123.482 122.956 123.482C123.917 123.482 124.822 123.762 125.672 124.322L125 125.526C124.234 125.06 123.539 124.826 122.914 124.826C122.587 124.826 122.33 124.896 122.144 125.036C121.966 125.176 121.878 125.363 121.878 125.596C121.878 125.755 121.957 125.9 122.116 126.03C122.284 126.161 122.447 126.259 122.606 126.324C122.774 126.38 123.04 126.469 123.404 126.59C123.422 126.6 123.446 126.609 123.474 126.618C123.502 126.628 123.525 126.632 123.544 126.632C123.87 126.735 124.146 126.838 124.37 126.94C124.594 127.034 124.827 127.164 125.07 127.332C125.322 127.5 125.513 127.71 125.644 127.962C125.774 128.205 125.84 128.49 125.84 128.816C125.84 129.563 125.583 130.137 125.07 130.538C124.556 130.94 123.898 131.14 123.096 131.14ZM131.303 131.126C129.884 131.126 129.175 130.403 129.175 128.956V125.064H128.237V123.608H129.175V121.578H130.869V123.608H132.857V125.064H130.869V128.69C130.869 129.306 131.172 129.614 131.779 129.614C132.143 129.614 132.493 129.53 132.829 129.362V130.748C132.381 131 131.872 131.126 131.303 131.126ZM141.564 133.24V123.608H143.258V124.84C143.912 123.916 144.747 123.454 145.764 123.454C146.698 123.454 147.505 123.804 148.186 124.504C148.868 125.195 149.208 126.133 149.208 127.318C149.208 128.485 148.868 129.418 148.186 130.118C147.505 130.809 146.698 131.154 145.764 131.154C144.747 131.154 143.912 130.72 143.258 129.852V133.24H141.564ZM145.372 129.684C145.97 129.684 146.469 129.465 146.87 129.026C147.281 128.588 147.486 128.009 147.486 127.29C147.486 126.59 147.281 126.021 146.87 125.582C146.46 125.144 145.96 124.924 145.372 124.924C144.784 124.924 144.276 125.148 143.846 125.596C143.426 126.044 143.216 126.618 143.216 127.318C143.216 128.009 143.426 128.578 143.846 129.026C144.276 129.465 144.784 129.684 145.372 129.684ZM158.545 131H156.865V130.09C156.268 130.8 155.47 131.154 154.471 131.154C153.734 131.154 153.109 130.954 152.595 130.552C152.091 130.142 151.839 129.572 151.839 128.844C151.839 128.051 152.115 127.449 152.665 127.038C153.216 126.628 153.939 126.422 154.835 126.422C155.554 126.422 156.235 126.525 156.879 126.73V126.59C156.879 126.077 156.721 125.685 156.403 125.414C156.095 125.144 155.647 125.008 155.059 125.008C154.387 125.008 153.683 125.162 152.945 125.47L152.483 124.112C153.398 123.702 154.336 123.496 155.297 123.496C156.371 123.496 157.178 123.767 157.719 124.308C158.27 124.85 158.545 125.62 158.545 126.618V131ZM156.907 128.326V127.906C156.403 127.71 155.839 127.612 155.213 127.612C154.681 127.612 154.266 127.715 153.967 127.92C153.669 128.126 153.519 128.415 153.519 128.788C153.519 129.124 153.655 129.39 153.925 129.586C154.196 129.782 154.537 129.88 154.947 129.88C155.517 129.88 155.983 129.736 156.347 129.446C156.721 129.157 156.907 128.784 156.907 128.326ZM161.988 122.474V120.864H163.808V122.474H161.988ZM162.058 131V123.608H163.752V131H162.058ZM170.418 131.154C169.494 131.154 168.691 130.809 168.01 130.118C167.329 129.418 166.988 128.476 166.988 127.29C166.988 126.114 167.324 125.181 167.996 124.49C168.677 123.8 169.485 123.454 170.418 123.454C171.426 123.454 172.266 123.888 172.938 124.756V120.78H174.632V131H172.938V129.768C172.285 130.692 171.445 131.154 170.418 131.154ZM169.312 129.026C169.732 129.465 170.236 129.684 170.824 129.684C171.412 129.684 171.916 129.46 172.336 129.012C172.756 128.564 172.966 127.99 172.966 127.29C172.966 126.6 172.756 126.035 172.336 125.596C171.916 125.148 171.412 124.924 170.824 124.924C170.227 124.924 169.723 125.144 169.312 125.582C168.901 126.012 168.696 126.59 168.696 127.318C168.696 128.018 168.901 128.588 169.312 129.026Z" fill="#111111"/>
<g clip-path="url(#clip0_2_18702)">
<path d="M43.3305 137.593C42.3703 137.593 41.5889 138.374 41.5889 139.334C41.5889 140.295 42.3703 141.076 43.3305 141.076C44.291 141.076 45.0719 140.295 45.0719 139.334C45.0717 138.374 44.2907 137.593 43.3305 137.593Z" fill="#111111"/>
<path d="M34.6511 128.914C33.6906 128.914 32.9092 129.695 32.9092 130.655C32.9094 131.615 33.6908 132.397 34.6511 132.397C35.6113 132.397 36.3922 131.615 36.3922 130.655C36.3922 129.695 35.6113 128.914 34.6511 128.914Z" fill="#111111"/>
<path d="M39.001 120C30.7296 120 24.001 126.729 24.001 135C24.001 143.271 30.7296 150 39.001 150C47.2714 150 53.9996 143.271 53.9996 135C53.9996 126.729 47.2714 120 39.001 120ZM34.6507 127.037C36.6453 127.037 38.2686 128.66 38.2686 130.655C38.2686 132.65 36.6453 134.273 34.6507 134.273C32.6555 134.273 31.0325 132.65 31.0325 130.655C31.0325 128.66 32.6557 127.037 34.6507 127.037ZM33.5508 141.777C33.368 141.96 33.1273 142.052 32.8875 142.052C32.6475 142.052 32.4073 141.96 32.224 141.777C31.8577 141.41 31.8577 140.816 32.224 140.45L44.4497 128.224C44.8158 127.858 45.41 127.858 45.7765 128.224C46.1429 128.59 46.1429 129.185 45.7765 129.551L33.5508 141.777ZM43.3306 142.952C41.3356 142.952 39.7123 141.329 39.7123 139.334C39.7123 137.34 41.3356 135.716 43.3306 135.716C45.3254 135.716 46.9484 137.34 46.9484 139.334C46.9482 141.329 45.3251 142.952 43.3306 142.952Z" fill="#111111"/>
</g>
<path d="M202.984 138.352V135.472H200.088V133.264H202.984V130.384H205.256V133.264H208.152V135.472H205.256V138.352H202.984ZM215.314 141.568V139.952C213.896 139.771 212.637 139.264 211.538 138.432L212.786 136.608C213.704 137.302 214.573 137.734 215.394 137.904V135.36C214.2 135.04 213.325 134.624 212.77 134.112C212.226 133.59 211.954 132.864 211.954 131.936C211.954 131.062 212.258 130.347 212.866 129.792C213.474 129.238 214.29 128.907 215.314 128.8V127.872H216.978V128.832C218.056 128.982 219.048 129.376 219.954 130.016L218.882 131.888C218.2 131.43 217.538 131.115 216.898 130.944V133.36C218.125 133.691 219.01 134.128 219.554 134.672C220.098 135.206 220.37 135.926 220.37 136.832C220.37 137.707 220.061 138.422 219.442 138.976C218.834 139.531 218.013 139.867 216.978 139.984V141.568H215.314ZM215.394 132.96V130.8C214.658 130.896 214.29 131.238 214.29 131.824C214.29 132.08 214.365 132.299 214.514 132.48C214.674 132.651 214.968 132.811 215.394 132.96ZM216.898 137.984C217.656 137.867 218.034 137.515 218.034 136.928C218.034 136.651 217.949 136.427 217.778 136.256C217.618 136.075 217.325 135.904 216.898 135.744V137.984ZM238.599 138.544C237.671 139.643 236.471 140.192 234.999 140.192C233.527 140.192 232.332 139.643 231.415 138.544C230.498 137.446 230.039 136.064 230.039 134.4C230.039 132.747 230.503 131.371 231.431 130.272C232.359 129.163 233.559 128.608 235.031 128.608C236.492 128.608 237.682 129.158 238.599 130.256C239.527 131.355 239.991 132.736 239.991 134.4C239.991 136.054 239.527 137.435 238.599 138.544ZM233.239 136.96C233.698 137.632 234.295 137.968 235.031 137.968C235.767 137.968 236.354 137.638 236.791 136.976C237.239 136.304 237.463 135.446 237.463 134.4C237.463 133.376 237.234 132.528 236.775 131.856C236.316 131.174 235.724 130.832 234.999 130.832C234.274 130.832 233.687 131.168 233.239 131.84C232.791 132.502 232.567 133.355 232.567 134.4C232.567 135.435 232.791 136.288 233.239 136.96ZM242.774 142.592L242.566 141.584C243.611 141.467 244.134 140.998 244.134 140.176V140H243.142V137.44H245.734V139.6C245.734 140.624 245.483 141.371 244.982 141.84C244.491 142.32 243.755 142.571 242.774 142.592ZM257.44 138.544C256.512 139.643 255.312 140.192 253.84 140.192C252.368 140.192 251.173 139.643 250.256 138.544C249.338 137.446 248.88 136.064 248.88 134.4C248.88 132.747 249.344 131.371 250.272 130.272C251.2 129.163 252.4 128.608 253.872 128.608C255.333 128.608 256.522 129.158 257.44 130.256C258.368 131.355 258.832 132.736 258.832 134.4C258.832 136.054 258.368 137.435 257.44 138.544ZM252.08 136.96C252.538 137.632 253.136 137.968 253.872 137.968C254.608 137.968 255.194 137.638 255.632 136.976C256.08 136.304 256.304 135.446 256.304 134.4C256.304 133.376 256.074 132.528 255.616 131.856C255.157 131.174 254.565 130.832 253.84 130.832C253.114 130.832 252.528 131.168 252.08 131.84C251.632 132.502 251.408 133.355 251.408 134.4C251.408 135.435 251.632 136.288 252.08 136.96ZM262.241 140L267.249 130.928H261.985V128.8H270.049V130.656L265.025 140H262.241Z" fill="#111111"/>
<path fill-rule="evenodd" clip-rule="evenodd" d="M180 200C180 201.657 178.657 203 177 203H73C71.3431 203 70 201.657 70 200C70 198.344 71.3431 197 73 197H177C178.657 197 180 198.344 180 200Z" fill="#2E00FF"/>
<path d="M71.358 185V175.2H73.08V185H71.358ZM76.9074 185V177.608H78.6014V178.756C79.1894 177.888 79.9594 177.454 80.9114 177.454C81.7327 177.454 82.3767 177.711 82.8434 178.224C83.31 178.738 83.5434 179.428 83.5434 180.296V185H81.8494V180.8C81.8494 180.222 81.7094 179.778 81.4294 179.47C81.1587 179.153 80.7714 178.994 80.2674 178.994C79.7727 178.994 79.3714 179.158 79.0634 179.484C78.7554 179.811 78.6014 180.259 78.6014 180.828V185H76.9074ZM89.467 185.126C88.0483 185.126 87.339 184.403 87.339 182.956V179.064H86.401V177.608H87.339V175.578H89.033V177.608H91.021V179.064H89.033V182.69C89.033 183.306 89.3363 183.614 89.943 183.614C90.307 183.614 90.657 183.53 90.993 183.362V184.748C90.545 185 90.0363 185.126 89.467 185.126ZM97.3141 185.168C96.2314 185.168 95.3261 184.809 94.5981 184.09C93.8794 183.372 93.5201 182.443 93.5201 181.304C93.5201 180.231 93.8608 179.321 94.5421 178.574C95.2234 177.828 96.0868 177.454 97.1321 177.454C98.2521 177.454 99.1201 177.837 99.7361 178.602C100.361 179.358 100.674 180.301 100.674 181.43C100.674 181.636 100.665 181.794 100.646 181.906H95.2141C95.3074 182.494 95.5454 182.956 95.9281 183.292C96.3108 183.619 96.7821 183.782 97.3421 183.782C98.0701 183.782 98.7374 183.488 99.3441 182.9L100.338 183.782C99.5728 184.706 98.5648 185.168 97.3141 185.168ZM95.2001 180.786H98.9941C98.9381 180.217 98.7468 179.75 98.4201 179.386C98.0934 179.022 97.6594 178.84 97.1181 178.84C96.6048 178.84 96.1754 179.022 95.8301 179.386C95.4848 179.741 95.2748 180.208 95.2001 180.786ZM103.775 185V177.608H105.469V179.274C105.992 178.014 106.865 177.412 108.087 177.468V179.26H107.989C107.224 179.26 106.613 179.512 106.155 180.016C105.698 180.511 105.469 181.234 105.469 182.186V185H103.775ZM114.1 185.168C113.018 185.168 112.112 184.809 111.384 184.09C110.666 183.372 110.306 182.443 110.306 181.304C110.306 180.231 110.647 179.321 111.328 178.574C112.01 177.828 112.873 177.454 113.918 177.454C115.038 177.454 115.906 177.837 116.522 178.602C117.148 179.358 117.46 180.301 117.46 181.43C117.46 181.636 117.451 181.794 117.432 181.906H112C112.094 182.494 112.332 182.956 112.714 183.292C113.097 183.619 113.568 183.782 114.128 183.782C114.856 183.782 115.524 183.488 116.13 182.9L117.124 183.782C116.359 184.706 115.351 185.168 114.1 185.168ZM111.986 180.786H115.78C115.724 180.217 115.533 179.75 115.206 179.386C114.88 179.022 114.446 178.84 113.904 178.84C113.391 178.84 112.962 179.022 112.616 179.386C112.271 179.741 112.061 180.208 111.986 180.786ZM123.096 185.14C121.938 185.14 120.893 184.772 119.96 184.034L120.716 182.886C121.518 183.493 122.326 183.796 123.138 183.796C123.502 183.796 123.782 183.726 123.978 183.586C124.183 183.437 124.286 183.232 124.286 182.97C124.286 182.84 124.248 182.728 124.174 182.634C124.108 182.532 123.987 182.438 123.81 182.354C123.632 182.27 123.483 182.21 123.362 182.172C123.24 182.135 123.04 182.074 122.76 181.99L122.634 181.948C122.372 181.874 122.148 181.804 121.962 181.738C121.784 181.664 121.584 181.566 121.36 181.444C121.136 181.323 120.954 181.192 120.814 181.052C120.674 180.903 120.557 180.716 120.464 180.492C120.37 180.268 120.324 180.016 120.324 179.736C120.324 179.055 120.571 178.509 121.066 178.098C121.57 177.688 122.2 177.482 122.956 177.482C123.917 177.482 124.822 177.762 125.672 178.322L125 179.526C124.234 179.06 123.539 178.826 122.914 178.826C122.587 178.826 122.33 178.896 122.144 179.036C121.966 179.176 121.878 179.363 121.878 179.596C121.878 179.755 121.957 179.9 122.116 180.03C122.284 180.161 122.447 180.259 122.606 180.324C122.774 180.38 123.04 180.469 123.404 180.59C123.422 180.6 123.446 180.609 123.474 180.618C123.502 180.628 123.525 180.632 123.544 180.632C123.87 180.735 124.146 180.838 124.37 180.94C124.594 181.034 124.827 181.164 125.07 181.332C125.322 181.5 125.513 181.71 125.644 181.962C125.774 182.205 125.84 182.49 125.84 182.816C125.84 183.563 125.583 184.137 125.07 184.538C124.556 184.94 123.898 185.14 123.096 185.14ZM131.303 185.126C129.884 185.126 129.175 184.403 129.175 182.956V179.064H128.237V177.608H129.175V175.578H130.869V177.608H132.857V179.064H130.869V182.69C130.869 183.306 131.172 183.614 131.779 183.614C132.143 183.614 132.493 183.53 132.829 183.362V184.748C132.381 185 131.872 185.126 131.303 185.126ZM141.564 187.24V177.608H143.258V178.84C143.912 177.916 144.747 177.454 145.764 177.454C146.698 177.454 147.505 177.804 148.186 178.504C148.868 179.195 149.208 180.133 149.208 181.318C149.208 182.485 148.868 183.418 148.186 184.118C147.505 184.809 146.698 185.154 145.764 185.154C144.747 185.154 143.912 184.72 143.258 183.852V187.24H141.564ZM145.372 183.684C145.97 183.684 146.469 183.465 146.87 183.026C147.281 182.588 147.486 182.009 147.486 181.29C147.486 180.59 147.281 180.021 146.87 179.582C146.46 179.144 145.96 178.924 145.372 178.924C144.784 178.924 144.276 179.148 143.846 179.596C143.426 180.044 143.216 180.618 143.216 181.318C143.216 182.009 143.426 182.578 143.846 183.026C144.276 183.465 144.784 183.684 145.372 183.684ZM158.545 185H156.865V184.09C156.268 184.8 155.47 185.154 154.471 185.154C153.734 185.154 153.109 184.954 152.595 184.552C152.091 184.142 151.839 183.572 151.839 182.844C151.839 182.051 152.115 181.449 152.665 181.038C153.216 180.628 153.939 180.422 154.835 180.422C155.554 180.422 156.235 180.525 156.879 180.73V180.59C156.879 180.077 156.721 179.685 156.403 179.414C156.095 179.144 155.647 179.008 155.059 179.008C154.387 179.008 153.683 179.162 152.945 179.47L152.483 178.112C153.398 177.702 154.336 177.496 155.297 177.496C156.371 177.496 157.178 177.767 157.719 178.308C158.27 178.85 158.545 179.62 158.545 180.618V185ZM156.907 182.326V181.906C156.403 181.71 155.839 181.612 155.213 181.612C154.681 181.612 154.266 181.715 153.967 181.92C153.669 182.126 153.519 182.415 153.519 182.788C153.519 183.124 153.655 183.39 153.925 183.586C154.196 183.782 154.537 183.88 154.947 183.88C155.517 183.88 155.983 183.736 156.347 183.446C156.721 183.157 156.907 182.784 156.907 182.326ZM161.988 176.474V174.864H163.808V176.474H161.988ZM162.058 185V177.608H163.752V185H162.058ZM170.418 185.154C169.494 185.154 168.691 184.809 168.01 184.118C167.329 183.418 166.988 182.476 166.988 181.29C166.988 180.114 167.324 179.181 167.996 178.49C168.677 177.8 169.485 177.454 170.418 177.454C171.426 177.454 172.266 177.888 172.938 178.756V174.78H174.632V185H172.938V183.768C172.285 184.692 171.445 185.154 170.418 185.154ZM169.312 183.026C169.732 183.465 170.236 183.684 170.824 183.684C171.412 183.684 171.916 183.46 172.336 183.012C172.756 182.564 172.966 181.99 172.966 181.29C172.966 180.6 172.756 180.035 172.336 179.596C171.916 179.148 171.412 178.924 170.824 178.924C170.227 178.924 169.723 179.144 169.312 179.582C168.901 180.012 168.696 180.59 168.696 181.318C168.696 182.018 168.901 182.588 169.312 183.026Z" fill="#111111"/>
<g clip-path="url(#clip1_2_18702)">
<path d="M43.3305 191.593C42.3703 191.593 41.5889 192.374 41.5889 193.334C41.5889 194.295 42.3703 195.076 43.3305 195.076C44.291 195.076 45.0719 194.295 45.0719 193.334C45.0717 192.374 44.2907 191.593 43.3305 191.593Z" fill="#111111"/>
<path d="M34.6511 182.914C33.6906 182.914 32.9092 183.695 32.9092 184.655C32.9094 185.615 33.6908 186.397 34.6511 186.397C35.6113 186.397 36.3922 185.615 36.3922 184.655C36.3922 183.695 35.6113 182.914 34.6511 182.914Z" fill="#111111"/>
<path d="M39.001 174C30.7296 174 24.001 180.729 24.001 189C24.001 197.271 30.7296 204 39.001 204C47.2714 204 53.9996 197.271 53.9996 189C53.9996 180.729 47.2714 174 39.001 174ZM34.6507 181.037C36.6453 181.037 38.2686 182.66 38.2686 184.655C38.2686 186.65 36.6453 188.273 34.6507 188.273C32.6555 188.273 31.0325 186.65 31.0325 184.655C31.0325 182.66 32.6557 181.037 34.6507 181.037ZM33.5508 195.777C33.368 195.96 33.1273 196.052 32.8875 196.052C32.6475 196.052 32.4073 195.96 32.224 195.777C31.8577 195.41 31.8577 194.816 32.224 194.45L44.4497 182.224C44.8158 181.858 45.41 181.858 45.7765 182.224C46.1429 182.59 46.1429 183.185 45.7765 183.551L33.5508 195.777ZM43.3306 196.952C41.3356 196.952 39.7123 195.329 39.7123 193.334C39.7123 191.34 41.3356 189.716 43.3306 189.716C45.3254 189.716 46.9484 191.34 46.9484 193.334C46.9482 195.329 45.3251 196.952 43.3306 196.952Z" fill="#111111"/>
</g>
<path d="M202.984 192.352V189.472H200.088V187.264H202.984V184.384H205.256V187.264H208.152V189.472H205.256V192.352H202.984ZM215.314 195.568V193.952C213.896 193.771 212.637 193.264 211.538 192.432L212.786 190.608C213.704 191.302 214.573 191.734 215.394 191.904V189.36C214.2 189.04 213.325 188.624 212.77 188.112C212.226 187.59 211.954 186.864 211.954 185.936C211.954 185.062 212.258 184.347 212.866 183.792C213.474 183.238 214.29 182.907 215.314 182.8V181.872H216.978V182.832C218.056 182.982 219.048 183.376 219.954 184.016L218.882 185.888C218.2 185.43 217.538 185.115 216.898 184.944V187.36C218.125 187.691 219.01 188.128 219.554 188.672C220.098 189.206 220.37 189.926 220.37 190.832C220.37 191.707 220.061 192.422 219.442 192.976C218.834 193.531 218.013 193.867 216.978 193.984V195.568H215.314ZM215.394 186.96V184.8C214.658 184.896 214.29 185.238 214.29 185.824C214.29 186.08 214.365 186.299 214.514 186.48C214.674 186.651 214.968 186.811 215.394 186.96ZM216.898 191.984C217.656 191.867 218.034 191.515 218.034 190.928C218.034 190.651 217.949 190.427 217.778 190.256C217.618 190.075 217.325 189.904 216.898 189.744V191.984ZM238.599 192.544C237.671 193.643 236.471 194.192 234.999 194.192C233.527 194.192 232.332 193.643 231.415 192.544C230.498 191.446 230.039 190.064 230.039 188.4C230.039 186.747 230.503 185.371 231.431 184.272C232.359 183.163 233.559 182.608 235.031 182.608C236.492 182.608 237.682 183.158 238.599 184.256C239.527 185.355 239.991 186.736 239.991 188.4C239.991 190.054 239.527 191.435 238.599 192.544ZM233.239 190.96C233.698 191.632 234.295 191.968 235.031 191.968C235.767 191.968 236.354 191.638 236.791 190.976C237.239 190.304 237.463 189.446 237.463 188.4C237.463 187.376 237.234 186.528 236.775 185.856C236.316 185.174 235.724 184.832 234.999 184.832C234.274 184.832 233.687 185.168 233.239 185.84C232.791 186.502 232.567 187.355 232.567 188.4C232.567 189.435 232.791 190.288 233.239 190.96ZM242.774 196.592L242.566 195.584C243.611 195.467 244.134 194.998 244.134 194.176V194H243.142V191.44H245.734V193.6C245.734 194.624 245.483 195.371 244.982 195.84C244.491 196.32 243.755 196.571 242.774 196.592ZM257.44 192.544C256.512 193.643 255.312 194.192 253.84 194.192C252.368 194.192 251.173 193.643 250.256 192.544C249.338 191.446 248.88 190.064 248.88 188.4C248.88 186.747 249.344 185.371 250.272 184.272C251.2 183.163 252.4 182.608 253.872 182.608C255.333 182.608 256.522 183.158 257.44 184.256C258.368 185.355 258.832 186.736 258.832 188.4C258.832 190.054 258.368 191.435 257.44 192.544ZM252.08 190.96C252.538 191.632 253.136 191.968 253.872 191.968C254.608 191.968 255.194 191.638 255.632 190.976C256.08 190.304 256.304 189.446 256.304 188.4C256.304 187.376 256.074 186.528 255.616 185.856C255.157 185.174 254.565 184.832 253.84 184.832C253.114 184.832 252.528 185.168 252.08 185.84C251.632 186.502 251.408 187.355 251.408 188.4C251.408 189.435 251.632 190.288 252.08 190.96ZM262.241 194L267.249 184.928H261.985V182.8H270.049V184.656L265.025 194H262.241Z" fill="#111111"/>
<path fill-rule="evenodd" clip-rule="evenodd" d="M180 254C180 255.657 178.657 257 177 257H73C71.3431 257 70 255.657 70 254C70 252.344 71.3431 251 73 251H177C178.657 251 180 252.344 180 254Z" fill="#2E00FF"/>
<path d="M71.358 239V229.2H73.08V239H71.358ZM76.9074 239V231.608H78.6014V232.756C79.1894 231.888 79.9594 231.454 80.9114 231.454C81.7327 231.454 82.3767 231.711 82.8434 232.224C83.31 232.738 83.5434 233.428 83.5434 234.296V239H81.8494V234.8C81.8494 234.222 81.7094 233.778 81.4294 233.47C81.1587 233.153 80.7714 232.994 80.2674 232.994C79.7727 232.994 79.3714 233.158 79.0634 233.484C78.7554 233.811 78.6014 234.259 78.6014 234.828V239H76.9074ZM89.467 239.126C88.0483 239.126 87.339 238.403 87.339 236.956V233.064H86.401V231.608H87.339V229.578H89.033V231.608H91.021V233.064H89.033V236.69C89.033 237.306 89.3363 237.614 89.943 237.614C90.307 237.614 90.657 237.53 90.993 237.362V238.748C90.545 239 90.0363 239.126 89.467 239.126ZM97.3141 239.168C96.2314 239.168 95.3261 238.809 94.5981 238.09C93.8794 237.372 93.5201 236.443 93.5201 235.304C93.5201 234.231 93.8608 233.321 94.5421 232.574C95.2234 231.828 96.0868 231.454 97.1321 231.454C98.2521 231.454 99.1201 231.837 99.7361 232.602C100.361 233.358 100.674 234.301 100.674 235.43C100.674 235.636 100.665 235.794 100.646 235.906H95.2141C95.3074 236.494 95.5454 236.956 95.9281 237.292C96.3108 237.619 96.7821 237.782 97.3421 237.782C98.0701 237.782 98.7374 237.488 99.3441 236.9L100.338 237.782C99.5728 238.706 98.5648 239.168 97.3141 239.168ZM95.2001 234.786H98.9941C98.9381 234.217 98.7468 233.75 98.4201 233.386C98.0934 233.022 97.6594 232.84 97.1181 232.84C96.6048 232.84 96.1754 233.022 95.8301 233.386C95.4848 233.741 95.2748 234.208 95.2001 234.786ZM103.775 239V231.608H105.469V233.274C105.992 232.014 106.865 231.412 108.087 231.468V233.26H107.989C107.224 233.26 106.613 233.512 106.155 234.016C105.698 234.511 105.469 235.234 105.469 236.186V239H103.775ZM114.1 239.168C113.018 239.168 112.112 238.809 111.384 238.09C110.666 237.372 110.306 236.443 110.306 235.304C110.306 234.231 110.647 233.321 111.328 232.574C112.01 231.828 112.873 231.454 113.918 231.454C115.038 231.454 115.906 231.837 116.522 232.602C117.148 233.358 117.46 234.301 117.46 235.43C117.46 235.636 117.451 235.794 117.432 235.906H112C112.094 236.494 112.332 236.956 112.714 237.292C113.097 237.619 113.568 237.782 114.128 237.782C114.856 237.782 115.524 237.488 116.13 236.9L117.124 237.782C116.359 238.706 115.351 239.168 114.1 239.168ZM111.986 234.786H115.78C115.724 234.217 115.533 233.75 115.206 233.386C114.88 233.022 114.446 232.84 113.904 232.84C113.391 232.84 112.962 233.022 112.616 233.386C112.271 233.741 112.061 234.208 111.986 234.786ZM123.096 239.14C121.938 239.14 120.893 238.772 119.96 238.034L120.716 236.886C121.518 237.493 122.326 237.796 123.138 237.796C123.502 237.796 123.782 237.726 123.978 237.586C124.183 237.437 124.286 237.232 124.286 236.97C124.286 236.84 124.248 236.728 124.174 236.634C124.108 236.532 123.987 236.438 123.81 236.354C123.632 236.27 123.483 236.21 123.362 236.172C123.24 236.135 123.04 236.074 122.76 235.99L122.634 235.948C122.372 235.874 122.148 235.804 121.962 235.738C121.784 235.664 121.584 235.566 121.36 235.444C121.136 235.323 120.954 235.192 120.814 235.052C120.674 234.903 120.557 234.716 120.464 234.492C120.37 234.268 120.324 234.016 120.324 233.736C120.324 233.055 120.571 232.509 121.066 232.098C121.57 231.688 122.2 231.482 122.956 231.482C123.917 231.482 124.822 231.762 125.672 232.322L125 233.526C124.234 233.06 123.539 232.826 122.914 232.826C122.587 232.826 122.33 232.896 122.144 233.036C121.966 233.176 121.878 233.363 121.878 233.596C121.878 233.755 121.957 233.9 122.116 234.03C122.284 234.161 122.447 234.259 122.606 234.324C122.774 234.38 123.04 234.469 123.404 234.59C123.422 234.6 123.446 234.609 123.474 234.618C123.502 234.628 123.525 234.632 123.544 234.632C123.87 234.735 124.146 234.838 124.37 234.94C124.594 235.034 124.827 235.164 125.07 235.332C125.322 235.5 125.513 235.71 125.644 235.962C125.774 236.205 125.84 236.49 125.84 236.816C125.84 237.563 125.583 238.137 125.07 238.538C124.556 238.94 123.898 239.14 123.096 239.14ZM131.303 239.126C129.884 239.126 129.175 238.403 129.175 236.956V233.064H128.237V231.608H129.175V229.578H130.869V231.608H132.857V233.064H130.869V236.69C130.869 237.306 131.172 237.614 131.779 237.614C132.143 237.614 132.493 237.53 132.829 237.362V238.748C132.381 239 131.872 239.126 131.303 239.126ZM141.564 241.24V231.608H143.258V232.84C143.912 231.916 144.747 231.454 145.764 231.454C146.698 231.454 147.505 231.804 148.186 232.504C148.868 233.195 149.208 234.133 149.208 235.318C149.208 236.485 148.868 237.418 148.186 238.118C147.505 238.809 146.698 239.154 145.764 239.154C144.747 239.154 143.912 238.72 143.258 237.852V241.24H141.564ZM145.372 237.684C145.97 237.684 146.469 237.465 146.87 237.026C147.281 236.588 147.486 236.009 147.486 235.29C147.486 234.59 147.281 234.021 146.87 233.582C146.46 233.144 145.96 232.924 145.372 232.924C144.784 232.924 144.276 233.148 143.846 233.596C143.426 234.044 143.216 234.618 143.216 235.318C143.216 236.009 143.426 236.578 143.846 237.026C144.276 237.465 144.784 237.684 145.372 237.684ZM158.545 239H156.865V238.09C156.268 238.8 155.47 239.154 154.471 239.154C153.734 239.154 153.109 238.954 152.595 238.552C152.091 238.142 151.839 237.572 151.839 236.844C151.839 236.051 152.115 235.449 152.665 235.038C153.216 234.628 153.939 234.422 154.835 234.422C155.554 234.422 156.235 234.525 156.879 234.73V234.59C156.879 234.077 156.721 233.685 156.403 233.414C156.095 233.144 155.647 233.008 155.059 233.008C154.387 233.008 153.683 233.162 152.945 233.47L152.483 232.112C153.398 231.702 154.336 231.496 155.297 231.496C156.371 231.496 157.178 231.767 157.719 232.308C158.27 232.85 158.545 233.62 158.545 234.618V239ZM156.907 236.326V235.906C156.403 235.71 155.839 235.612 155.213 235.612C154.681 235.612 154.266 235.715 153.967 235.92C153.669 236.126 153.519 236.415 153.519 236.788C153.519 237.124 153.655 237.39 153.925 237.586C154.196 237.782 154.537 237.88 154.947 237.88C155.517 237.88 155.983 237.736 156.347 237.446C156.721 237.157 156.907 236.784 156.907 236.326ZM161.988 230.474V228.864H163.808V230.474H161.988ZM162.058 239V231.608H163.752V239H162.058ZM170.418 239.154C169.494 239.154 168.691 238.809 168.01 238.118C167.329 237.418 166.988 236.476 166.988 235.29C166.988 234.114 167.324 233.181 167.996 232.49C168.677 231.8 169.485 231.454 170.418 231.454C171.426 231.454 172.266 231.888 172.938 232.756V228.78H174.632V239H172.938V237.768C172.285 238.692 171.445 239.154 170.418 239.154ZM169.312 237.026C169.732 237.465 170.236 237.684 170.824 237.684C171.412 237.684 171.916 237.46 172.336 237.012C172.756 236.564 172.966 235.99 172.966 235.29C172.966 234.6 172.756 234.035 172.336 233.596C171.916 233.148 171.412 232.924 170.824 232.924C170.227 232.924 169.723 233.144 169.312 233.582C168.901 234.012 168.696 234.59 168.696 235.318C168.696 236.018 168.901 236.588 169.312 237.026Z" fill="#111111"/>
<g clip-path="url(#clip2_2_18702)">
<path d="M43.3305 245.593C42.3703 245.593 41.5889 246.374 41.5889 247.334C41.5889 248.295 42.3703 249.076 43.3305 249.076C44.291 249.076 45.0719 248.295 45.0719 247.334C45.0717 246.374 44.2907 245.593 43.3305 245.593Z" fill="#111111"/>
<path d="M34.6511 236.914C33.6906 236.914 32.9092 237.695 32.9092 238.655C32.9094 239.615 33.6908 240.397 34.6511 240.397C35.6113 240.397 36.3922 239.615 36.3922 238.655C36.3922 237.695 35.6113 236.914 34.6511 236.914Z" fill="#111111"/>
<path d="M39.001 228C30.7296 228 24.001 234.729 24.001 243C24.001 251.271 30.7296 258 39.001 258C47.2714 258 53.9996 251.271 53.9996 243C53.9996 234.729 47.2714 228 39.001 228ZM34.6507 235.037C36.6453 235.037 38.2686 236.66 38.2686 238.655C38.2686 240.65 36.6453 242.273 34.6507 242.273C32.6555 242.273 31.0325 240.65 31.0325 238.655C31.0325 236.66 32.6557 235.037 34.6507 235.037ZM33.5508 249.777C33.368 249.96 33.1273 250.052 32.8875 250.052C32.6475 250.052 32.4073 249.96 32.224 249.777C31.8577 249.41 31.8577 248.816 32.224 248.45L44.4497 236.224C44.8158 235.858 45.41 235.858 45.7765 236.224C46.1429 236.59 46.1429 237.185 45.7765 237.551L33.5508 249.777ZM43.3306 250.952C41.3356 250.952 39.7123 249.329 39.7123 247.334C39.7123 245.34 41.3356 243.716 43.3306 243.716C45.3254 243.716 46.9484 245.34 46.9484 247.334C46.9482 249.329 45.3251 250.952 43.3306 250.952Z" fill="#111111"/>
</g>
<path d="M202.984 246.352V243.472H200.088V241.264H202.984V238.384H205.256V241.264H208.152V243.472H205.256V246.352H202.984ZM215.314 249.568V247.952C213.896 247.771 212.637 247.264 211.538 246.432L212.786 244.608C213.704 245.302 214.573 245.734 215.394 245.904V243.36C214.2 243.04 213.325 242.624 212.77 242.112C212.226 241.59 211.954 240.864 211.954 239.936C211.954 239.062 212.258 238.347 212.866 237.792C213.474 237.238 214.29 236.907 215.314 236.8V235.872H216.978V236.832C218.056 236.982 219.048 237.376 219.954 238.016L218.882 239.888C218.2 239.43 217.538 239.115 216.898 238.944V241.36C218.125 241.691 219.01 242.128 219.554 242.672C220.098 243.206 220.37 243.926 220.37 244.832C220.37 245.707 220.061 246.422 219.442 246.976C218.834 247.531 218.013 247.867 216.978 247.984V249.568H215.314ZM215.394 240.96V238.8C214.658 238.896 214.29 239.238 214.29 239.824C214.29 240.08 214.365 240.299 214.514 240.48C214.674 240.651 214.968 240.811 215.394 240.96ZM216.898 245.984C217.656 245.867 218.034 245.515 218.034 244.928C218.034 244.651 217.949 244.427 217.778 244.256C217.618 244.075 217.325 243.904 216.898 243.744V245.984ZM238.599 246.544C237.671 247.643 236.471 248.192 234.999 248.192C233.527 248.192 232.332 247.643 231.415 246.544C230.498 245.446 230.039 244.064 230.039 242.4C230.039 240.747 230.503 239.371 231.431 238.272C232.359 237.163 233.559 236.608 235.031 236.608C236.492 236.608 237.682 237.158 238.599 238.256C239.527 239.355 239.991 240.736 239.991 242.4C239.991 244.054 239.527 245.435 238.599 246.544ZM233.239 244.96C233.698 245.632 234.295 245.968 235.031 245.968C235.767 245.968 236.354 245.638 236.791 244.976C237.239 244.304 237.463 243.446 237.463 242.4C237.463 241.376 237.234 240.528 236.775 239.856C236.316 239.174 235.724 238.832 234.999 238.832C234.274 238.832 233.687 239.168 233.239 239.84C232.791 240.502 232.567 241.355 232.567 242.4C232.567 243.435 232.791 244.288 233.239 244.96ZM242.774 250.592L242.566 249.584C243.611 249.467 244.134 248.998 244.134 248.176V248H243.142V245.44H245.734V247.6C245.734 248.624 245.483 249.371 244.982 249.84C244.491 250.32 243.755 250.571 242.774 250.592ZM257.44 246.544C256.512 247.643 255.312 248.192 253.84 248.192C252.368 248.192 251.173 247.643 250.256 246.544C249.338 245.446 248.88 244.064 248.88 242.4C248.88 240.747 249.344 239.371 250.272 238.272C251.2 237.163 252.4 236.608 253.872 236.608C255.333 236.608 256.522 237.158 257.44 238.256C258.368 239.355 258.832 240.736 258.832 242.4C258.832 244.054 258.368 245.435 257.44 246.544ZM252.08 244.96C252.538 245.632 253.136 245.968 253.872 245.968C254.608 245.968 255.194 245.638 255.632 244.976C256.08 244.304 256.304 243.446 256.304 242.4C256.304 241.376 256.074 240.528 255.616 239.856C255.157 239.174 254.565 238.832 253.84 238.832C253.114 238.832 252.528 239.168 252.08 239.84C251.632 240.502 251.408 241.355 251.408 242.4C251.408 243.435 251.632 244.288 252.08 244.96ZM262.241 248L267.249 238.928H261.985V236.8H270.049V238.656L265.025 248H262.241Z" fill="#111111"/>
<path fill-rule="evenodd" clip-rule="evenodd" d="M180 308C180 309.657 178.657 311 177 311H73C71.3431 311 70 309.657 70 308C70 306.344 71.3431 305 73 305H177C178.657 305 180 306.344 180 308Z" fill="#2E00FF"/>
<path d="M71.358 293V283.2H73.08V293H71.358ZM76.9074 293V285.608H78.6014V286.756C79.1894 285.888 79.9594 285.454 80.9114 285.454C81.7327 285.454 82.3767 285.711 82.8434 286.224C83.31 286.738 83.5434 287.428 83.5434 288.296V293H81.8494V288.8C81.8494 288.222 81.7094 287.778 81.4294 287.47C81.1587 287.153 80.7714 286.994 80.2674 286.994C79.7727 286.994 79.3714 287.158 79.0634 287.484C78.7554 287.811 78.6014 288.259 78.6014 288.828V293H76.9074ZM89.467 293.126C88.0483 293.126 87.339 292.403 87.339 290.956V287.064H86.401V285.608H87.339V283.578H89.033V285.608H91.021V287.064H89.033V290.69C89.033 291.306 89.3363 291.614 89.943 291.614C90.307 291.614 90.657 291.53 90.993 291.362V292.748C90.545 293 90.0363 293.126 89.467 293.126ZM97.3141 293.168C96.2314 293.168 95.3261 292.809 94.5981 292.09C93.8794 291.372 93.5201 290.443 93.5201 289.304C93.5201 288.231 93.8608 287.321 94.5421 286.574C95.2234 285.828 96.0868 285.454 97.1321 285.454C98.2521 285.454 99.1201 285.837 99.7361 286.602C100.361 287.358 100.674 288.301 100.674 289.43C100.674 289.636 100.665 289.794 100.646 289.906H95.2141C95.3074 290.494 95.5454 290.956 95.9281 291.292C96.3108 291.619 96.7821 291.782 97.3421 291.782C98.0701 291.782 98.7374 291.488 99.3441 290.9L100.338 291.782C99.5728 292.706 98.5648 293.168 97.3141 293.168ZM95.2001 288.786H98.9941C98.9381 288.217 98.7468 287.75 98.4201 287.386C98.0934 287.022 97.6594 286.84 97.1181 286.84C96.6048 286.84 96.1754 287.022 95.8301 287.386C95.4848 287.741 95.2748 288.208 95.2001 288.786ZM103.775 293V285.608H105.469V287.274C105.992 286.014 106.865 285.412 108.087 285.468V287.26H107.989C107.224 287.26 106.613 287.512 106.155 288.016C105.698 288.511 105.469 289.234 105.469 290.186V293H103.775ZM114.1 293.168C113.018 293.168 112.112 292.809 111.384 292.09C110.666 291.372 110.306 290.443 110.306 289.304C110.306 288.231 110.647 287.321 111.328 286.574C112.01 285.828 112.873 285.454 113.918 285.454C115.038 285.454 115.906 285.837 116.522 286.602C117.148 287.358 117.46 288.301 117.46 289.43C117.46 289.636 117.451 289.794 117.432 289.906H112C112.094 290.494 112.332 290.956 112.714 291.292C113.097 291.619 113.568 291.782 114.128 291.782C114.856 291.782 115.524 291.488 116.13 290.9L117.124 291.782C116.359 292.706 115.351 293.168 114.1 293.168ZM111.986 288.786H115.78C115.724 288.217 115.533 287.75 115.206 287.386C114.88 287.022 114.446 286.84 113.904 286.84C113.391 286.84 112.962 287.022 112.616 287.386C112.271 287.741 112.061 288.208 111.986 288.786ZM123.096 293.14C121.938 293.14 120.893 292.772 119.96 292.034L120.716 290.886C121.518 291.493 122.326 291.796 123.138 291.796C123.502 291.796 123.782 291.726 123.978 291.586C124.183 291.437 124.286 291.232 124.286 290.97C124.286 290.84 124.248 290.728 124.174 290.634C124.108 290.532 123.987 290.438 123.81 290.354C123.632 290.27 123.483 290.21 123.362 290.172C123.24 290.135 123.04 290.074 122.76 289.99L122.634 289.948C122.372 289.874 122.148 289.804 121.962 289.738C121.784 289.664 121.584 289.566 121.36 289.444C121.136 289.323 120.954 289.192 120.814 289.052C120.674 288.903 120.557 288.716 120.464 288.492C120.37 288.268 120.324 288.016 120.324 287.736C120.324 287.055 120.571 286.509 121.066 286.098C121.57 285.688 122.2 285.482 122.956 285.482C123.917 285.482 124.822 285.762 125.672 286.322L125 287.526C124.234 287.06 123.539 286.826 122.914 286.826C122.587 286.826 122.33 286.896 122.144 287.036C121.966 287.176 121.878 287.363 121.878 287.596C121.878 287.755 121.957 287.9 122.116 288.03C122.284 288.161 122.447 288.259 122.606 288.324C122.774 288.38 123.04 288.469 123.404 288.59C123.422 288.6 123.446 288.609 123.474 288.618C123.502 288.628 123.525 288.632 123.544 288.632C123.87 288.735 124.146 288.838 124.37 288.94C124.594 289.034 124.827 289.164 125.07 289.332C125.322 289.5 125.513 289.71 125.644 289.962C125.774 290.205 125.84 290.49 125.84 290.816C125.84 291.563 125.583 292.137 125.07 292.538C124.556 292.94 123.898 293.14 123.096 293.14ZM131.303 293.126C129.884 293.126 129.175 292.403 129.175 290.956V287.064H128.237V285.608H129.175V283.578H130.869V285.608H132.857V287.064H130.869V290.69C130.869 291.306 131.172 291.614 131.779 291.614C132.143 291.614 132.493 291.53 132.829 291.362V292.748C132.381 293 131.872 293.126 131.303 293.126ZM141.564 295.24V285.608H143.258V286.84C143.912 285.916 144.747 285.454 145.764 285.454C146.698 285.454 147.505 285.804 148.186 286.504C148.868 287.195 149.208 288.133 149.208 289.318C149.208 290.485 148.868 291.418 148.186 292.118C147.505 292.809 146.698 293.154 145.764 293.154C144.747 293.154 143.912 292.72 143.258 291.852V295.24H141.564ZM145.372 291.684C145.97 291.684 146.469 291.465 146.87 291.026C147.281 290.588 147.486 290.009 147.486 289.29C147.486 288.59 147.281 288.021 146.87 287.582C146.46 287.144 145.96 286.924 145.372 286.924C144.784 286.924 144.276 287.148 143.846 287.596C143.426 288.044 143.216 288.618 143.216 289.318C143.216 290.009 143.426 290.578 143.846 291.026C144.276 291.465 144.784 291.684 145.372 291.684ZM158.545 293H156.865V292.09C156.268 292.8 155.47 293.154 154.471 293.154C153.734 293.154 153.109 292.954 152.595 292.552C152.091 292.142 151.839 291.572 151.839 290.844C151.839 290.051 152.115 289.449 152.665 289.038C153.216 288.628 153.939 288.422 154.835 288.422C155.554 288.422 156.235 288.525 156.879 288.73V288.59C156.879 288.077 156.721 287.685 156.403 287.414C156.095 287.144 155.647 287.008 155.059 287.008C154.387 287.008 153.683 287.162 152.945 287.47L152.483 286.112C153.398 285.702 154.336 285.496 155.297 285.496C156.371 285.496 157.178 285.767 157.719 286.308C158.27 286.85 158.545 287.62 158.545 288.618V293ZM156.907 290.326V289.906C156.403 289.71 155.839 289.612 155.213 289.612C154.681 289.612 154.266 289.715 153.967 289.92C153.669 290.126 153.519 290.415 153.519 290.788C153.519 291.124 153.655 291.39 153.925 291.586C154.196 291.782 154.537 291.88 154.947 291.88C155.517 291.88 155.983 291.736 156.347 291.446C156.721 291.157 156.907 290.784 156.907 290.326ZM161.988 284.474V282.864H163.808V284.474H161.988ZM162.058 293V285.608H163.752V293H162.058ZM170.418 293.154C169.494 293.154 168.691 292.809 168.01 292.118C167.329 291.418 166.988 290.476 166.988 289.29C166.988 288.114 167.324 287.181 167.996 286.49C168.677 285.8 169.485 285.454 170.418 285.454C171.426 285.454 172.266 285.888 172.938 286.756V282.78H174.632V293H172.938V291.768C172.285 292.692 171.445 293.154 170.418 293.154ZM169.312 291.026C169.732 291.465 170.236 291.684 170.824 291.684C171.412 291.684 171.916 291.46 172.336 291.012C172.756 290.564 172.966 289.99 172.966 289.29C172.966 288.6 172.756 288.035 172.336 287.596C171.916 287.148 171.412 286.924 170.824 286.924C170.227 286.924 169.723 287.144 169.312 287.582C168.901 288.012 168.696 288.59 168.696 289.318C168.696 290.018 168.901 290.588 169.312 291.026Z" fill="#111111"/>
<g clip-path="url(#clip3_2_18702)">
<path d="M43.3305 299.593C42.3703 299.593 41.5889 300.374 41.5889 301.334C41.5889 302.295 42.3703 303.076 43.3305 303.076C44.291 303.076 45.0719 302.295 45.0719 301.334C45.0717 300.374 44.2907 299.593 43.3305 299.593Z" fill="#111111"/>
<path d="M34.6511 290.914C33.6906 290.914 32.9092 291.695 32.9092 292.655C32.9094 293.615 33.6908 294.397 34.6511 294.397C35.6113 294.397 36.3922 293.615 36.3922 292.655C36.3922 291.695 35.6113 290.914 34.6511 290.914Z" fill="#111111"/>
<path d="M39.001 282C30.7296 282 24.001 288.729 24.001 297C24.001 305.271 30.7296 312 39.001 312C47.2714 312 53.9996 305.271 53.9996 297C53.9996 288.729 47.2714 282 39.001 282ZM34.6507 289.037C36.6453 289.037 38.2686 290.66 38.2686 292.655C38.2686 294.65 36.6453 296.273 34.6507 296.273C32.6555 296.273 31.0325 294.65 31.0325 292.655C31.0325 290.66 32.6557 289.037 34.6507 289.037ZM33.5508 303.777C33.368 303.96 33.1273 304.052 32.8875 304.052C32.6475 304.052 32.4073 303.96 32.224 303.777C31.8577 303.41 31.8577 302.816 32.224 302.45L44.4497 290.224C44.8158 289.858 45.41 289.858 45.7765 290.224C46.1429 290.59 46.1429 291.185 45.7765 291.551L33.5508 303.777ZM43.3306 304.952C41.3356 304.952 39.7123 303.329 39.7123 301.334C39.7123 299.34 41.3356 297.716 43.3306 297.716C45.3254 297.716 46.9484 299.34 46.9484 301.334C46.9482 303.329 45.3251 304.952 43.3306 304.952Z" fill="#111111"/>
</g>
<path d="M202.984 299.352V296.472H200.088V294.264H202.984V291.384H205.256V294.264H208.152V296.472H205.256V299.352H202.984ZM215.314 302.568V300.952C213.896 300.771 212.637 300.264 211.538 299.432L212.786 297.608C213.704 298.302 214.573 298.734 215.394 298.904V296.36C214.2 296.04 213.325 295.624 212.77 295.112C212.226 294.59 211.954 293.864 211.954 292.936C211.954 292.062 212.258 291.347 212.866 290.792C213.474 290.238 214.29 289.907 215.314 289.8V288.872H216.978V289.832C218.056 289.982 219.048 290.376 219.954 291.016L218.882 292.888C218.2 292.43 217.538 292.115 216.898 291.944V294.36C218.125 294.691 219.01 295.128 219.554 295.672C220.098 296.206 220.37 296.926 220.37 297.832C220.37 298.707 220.061 299.422 219.442 299.976C218.834 300.531 218.013 300.867 216.978 300.984V302.568H215.314ZM215.394 293.96V291.8C214.658 291.896 214.29 292.238 214.29 292.824C214.29 293.08 214.365 293.299 214.514 293.48C214.674 293.651 214.968 293.811 215.394 293.96ZM216.898 298.984C217.656 298.867 218.034 298.515 218.034 297.928C218.034 297.651 217.949 297.427 217.778 297.256C217.618 297.075 217.325 296.904 216.898 296.744V298.984ZM238.599 299.544C237.671 300.643 236.471 301.192 234.999 301.192C233.527 301.192 232.332 300.643 231.415 299.544C230.498 298.446 230.039 297.064 230.039 295.4C230.039 293.747 230.503 292.371 231.431 291.272C232.359 290.163 233.559 289.608 235.031 289.608C236.492 289.608 237.682 290.158 238.599 291.256C239.527 292.355 239.991 293.736 239.991 295.4C239.991 297.054 239.527 298.435 238.599 299.544ZM233.239 297.96C233.698 298.632 234.295 298.968 235.031 298.968C235.767 298.968 236.354 298.638 236.791 297.976C237.239 297.304 237.463 296.446 237.463 295.4C237.463 294.376 237.234 293.528 236.775 292.856C236.316 292.174 235.724 291.832 234.999 291.832C234.274 291.832 233.687 292.168 233.239 292.84C232.791 293.502 232.567 294.355 232.567 295.4C232.567 296.435 232.791 297.288 233.239 297.96ZM242.774 303.592L242.566 302.584C243.611 302.467 244.134 301.998 244.134 301.176V301H243.142V298.44H245.734V300.6C245.734 301.624 245.483 302.371 244.982 302.84C244.491 303.32 243.755 303.571 242.774 303.592ZM257.44 299.544C256.512 300.643 255.312 301.192 253.84 301.192C252.368 301.192 251.173 300.643 250.256 299.544C249.338 298.446 248.88 297.064 248.88 295.4C248.88 293.747 249.344 292.371 250.272 291.272C251.2 290.163 252.4 289.608 253.872 289.608C255.333 289.608 256.522 290.158 257.44 291.256C258.368 292.355 258.832 293.736 258.832 295.4C258.832 297.054 258.368 298.435 257.44 299.544ZM252.08 297.96C252.538 298.632 253.136 298.968 253.872 298.968C254.608 298.968 255.194 298.638 255.632 297.976C256.08 297.304 256.304 296.446 256.304 295.4C256.304 294.376 256.074 293.528 255.616 292.856C255.157 292.174 254.565 291.832 253.84 291.832C253.114 291.832 252.528 292.168 252.08 292.84C251.632 293.502 251.408 294.355 251.408 295.4C251.408 296.435 251.632 297.288 252.08 297.96ZM262.241 301L267.249 291.928H261.985V289.8H270.049V291.656L265.025 301H262.241Z" fill="#111111"/>
<rect x="231.5" y="0.500488" width="119" height="105" rx="11.5" fill="white" stroke="#111111"/>
<line x1="239" y1="23.5005" x2="343" y2="23.5005" stroke="#111111"/>
<circle cx="252" cy="41.0005" r="4.5" stroke="#111111"/>
<circle cx="252" cy="63.0005" r="4.5" stroke="#111111"/>
<circle cx="252" cy="85.0005" r="4.5" stroke="#111111"/>
<circle cx="278" cy="41.0005" r="4.5" stroke="#111111"/>
<circle cx="278" cy="63.0005" r="4.5" stroke="#111111"/>
<circle cx="278" cy="85.0005" r="4.5" stroke="#111111"/>
<circle cx="304" cy="41.0005" r="5" fill="#2E00FF"/>
<circle cx="304" cy="63.0005" r="4.5" stroke="#111111"/>
<circle cx="304" cy="85.0005" r="4.5" stroke="#111111"/>
<circle cx="330" cy="41.0005" r="4.5" stroke="#111111"/>
<circle cx="330" cy="63.0005" r="4.5" stroke="#111111"/>
<circle cx="330" cy="85.0005" r="4.5" stroke="#111111"/>
<defs>
<clipPath id="clip0_2_18702">
<rect width="30" height="30" fill="white" transform="translate(24 120)"/>
</clipPath>
<clipPath id="clip1_2_18702">
<rect width="30" height="30" fill="white" transform="translate(24 174)"/>
</clipPath>
<clipPath id="clip2_2_18702">
<rect width="30" height="30" fill="white" transform="translate(24 228)"/>
</clipPath>
<clipPath id="clip3_2_18702">
<rect width="30" height="30" fill="white" transform="translate(24 282)"/>
</clipPath>
</defs>
</svg>
