<svg width="183" height="191" viewBox="0 0 183 191" fill="none" xmlns="http://www.w3.org/2000/svg">
<g opacity="0.7">
<path d="M105.322 23.999C79.6543 23.999 58.8594 44.6757 58.8594 70.1681C58.8594 95.6605 79.6678 116.337 105.322 116.337C130.977 116.337 151.786 95.6605 151.786 70.1681C151.786 44.6757 130.991 23.999 105.322 23.999ZM105.322 107.119C84.796 107.119 68.1493 90.5781 68.1493 70.1815C68.1493 49.7849 84.796 33.2435 105.322 33.2435C125.849 33.2435 142.496 49.7849 142.496 70.1815C142.496 90.5781 125.862 107.119 105.322 107.119Z" fill="#323247"/>
<path d="M105.323 107.119C84.796 107.119 68.1493 90.5781 68.1493 70.1815C68.1493 49.7849 84.796 33.2435 105.323 33.2435C125.849 33.2435 142.496 49.7849 142.496 70.1815M151.799 70.1681C151.799 44.6624 130.991 23.999 105.336 23.999L151.799 70.1681ZM58.8594 70.1681C58.8594 95.6739 79.6678 116.337 105.323 116.337C120.519 116.337 134.025 109.08 142.496 97.8616L58.8594 70.1681Z" stroke="#FAFF00" stroke-opacity="0.5" stroke-width="0.8412" stroke-miterlimit="10" stroke-linecap="round" stroke-linejoin="round"/>
<path d="M174.354 176.113L165.695 191.001H183L174.354 176.113Z" fill="#2E00FF"/>
<path d="M174.354 117.872L165.695 132.759H183L174.354 117.872Z" fill="#2E00FF"/>
<path d="M26.8024 6.21636L21.5533 1.00049L13.9012 8.6175L6.24905 1.00049L1 6.21636L8.65205 13.8334L1 21.4371L6.24905 26.6529L13.9012 19.0492L21.5533 26.6529L26.8024 21.4371L19.1502 13.8334L26.8024 6.21636Z" stroke="#8F9294" stroke-width="0.8412" stroke-miterlimit="10" stroke-linecap="round" stroke-linejoin="round"/>
<path d="M26.8024 53.7588L21.5533 48.543L13.9012 56.1467L6.24905 48.543L1 53.7588L8.65205 61.3759L1 68.9795L6.24905 74.1954L13.9012 66.5917L21.5533 74.1954L26.8024 68.9795L19.1502 61.3759L26.8024 53.7588Z" stroke="#8F9294" stroke-width="0.8412" stroke-miterlimit="10" stroke-linecap="round" stroke-linejoin="round"/>
<path d="M26.8024 101.302L21.5533 96.0857L13.9012 103.689L6.24905 96.0857L1 101.302L8.65205 108.905L1 116.522L6.24905 121.738L13.9012 114.121L21.5533 121.738L26.8024 116.522L19.1502 108.905L26.8024 101.302Z" stroke="#8F9294" stroke-width="0.8412" stroke-miterlimit="10" stroke-linecap="round" stroke-linejoin="round"/>
</g>
</svg>
