<svg width="641" height="348" viewBox="0 0 641 348" fill="none" xmlns="http://www.w3.org/2000/svg">
<path fill-rule="evenodd" clip-rule="evenodd" d="M57.4933 238.305C48.3191 241.37 43.1785 247.044 42.5661 254.781C42.4162 256.674 42.688 257.399 43.6602 257.701C44.0932 257.835 53.2225 257.338 54.5179 257.11C55.1101 257.005 55.6348 255.994 55.791 254.656C55.959 253.218 56.6826 251.448 57.4518 250.593C58.7283 249.174 60.6276 248.159 62.6835 247.797C66.3906 247.143 69.1194 248.456 70.3452 251.484C70.5378 251.96 70.8961 253.488 71.1414 254.879L71.5874 257.408L71.049 257.595C70.7527 257.698 69.2655 258.126 67.7438 258.546C58.4578 261.108 53.6004 263.349 50.1013 266.686C49.6046 267.159 48.6307 268.367 47.9371 269.37C45.202 273.324 44.3968 278.008 45.5781 283.093C46.8641 288.628 49.7999 292.339 54.2288 294.026C57.0646 295.106 59.6905 295.254 63.6316 294.557C70.1108 293.411 73.7314 291.129 77.7609 285.653C78.2305 285.015 78.5683 284.696 78.6652 284.798C80.7542 287.017 83.7876 289.426 85.3142 290.077C85.94 290.344 87.0871 290.152 87.5713 289.698C87.9213 289.371 93.2085 283.112 94.2934 281.741C94.7987 281.103 94.9187 280.485 94.6528 279.892C94.5593 279.684 93.815 278.89 92.9987 278.128C92.1823 277.366 91.155 276.255 90.7158 275.659C89.0785 273.437 89.2344 274.04 86.5836 259.679L84.1909 246.716L83.4372 245.116C80.8287 239.579 75.9767 236.86 68.2933 236.63C66.0284 236.562 59.8349 237.523 57.4933 238.305ZM73.5609 268.6C74.1961 272.203 74.3024 274.138 73.961 275.879C73.0598 280.475 70.4217 283.346 66.6874 283.796C65.0566 283.992 63.9008 283.723 62.6434 282.857C59.96 281.007 58.7722 275.969 60.2074 272.526C61.6666 269.026 65.1655 266.97 72.4166 265.352L72.9664 265.229L73.5609 268.6Z" fill="#8A86B2"/>
<path d="M323.756 348H246.807L208.336 281.547L246.807 215.094H323.756L362.228 281.547L323.756 348ZM248.627 344.86H321.936L358.594 281.547L321.936 218.234H248.627L211.97 281.547L248.627 344.86Z" fill="#8A86B2"/>
<path d="M485.862 282.293H418.619L385 224.147L418.619 166H485.862L519.481 224.147L485.862 282.293ZM420.209 279.546H484.272L516.306 224.147L484.272 168.747H420.209L388.175 224.147L420.209 279.546Z" fill="#8A86B2"/>
<path d="M369.081 161.12H329.693L310 127.06L329.693 93H369.081L388.774 127.06L369.081 161.12ZM330.624 159.511H368.15L386.914 127.06L368.15 94.6093H330.624L311.86 127.06L330.624 159.511Z" fill="#8A86B2"/>
<path d="M292.647 92.985H238.881L212 46.4925L238.881 0H292.647L319.528 46.4925L292.647 92.985ZM240.152 90.7882H291.375L316.989 46.4925L291.375 2.19677H240.152L214.539 46.4925L240.152 90.7882Z" fill="#8A86B2"/>
<path d="M463.276 108.337H423.888L404.195 74.2769L423.888 40.2169H463.276L482.969 74.2769L463.276 108.337ZM424.82 106.728H462.345L481.109 74.2769L462.345 41.8262H424.82L406.055 74.2769L424.82 106.728Z" fill="#8A86B2"/>
<path d="M606.487 208.973H539.244L505.625 150.826L539.244 92.6798H606.487L640.106 150.826L606.487 208.973ZM540.834 206.226H604.897L636.931 150.826L604.897 95.4272H540.834L508.8 150.826L540.834 206.226Z" fill="#8A86B2"/>
<path d="M100.862 323.293H33.6189L0 265.147L33.6189 207H100.862L134.481 265.147L100.862 323.293ZM35.2093 320.546H99.2717L131.306 265.147L99.2717 209.747H35.2093L3.17533 265.147L35.2093 320.546Z" fill="#8A86B2"/>
<path d="M209.518 208.973H142.275L108.656 150.826L142.275 92.6798H209.518L243.137 150.826L209.518 208.973ZM143.866 206.226H207.928L239.962 150.826L207.928 95.4272H143.866L111.832 150.826L143.866 206.226Z" fill="#8A86B2"/>
<path d="M187.939 153.272C187.483 153.326 186.663 153.711 186.289 154.381C186.008 154.882 186.173 155.535 186.674 155.821C186.839 155.915 187.02 155.959 187.197 155.959C187.554 155.959 187.895 155.777 188.088 155.436C188.121 155.404 188.22 155.343 188.204 155.338C188.776 155.266 189.183 154.744 189.112 154.173C189.035 153.607 188.512 153.2 187.939 153.272Z" fill="#FFDE3B"/>
<path d="M165.52 150.606C165.514 150.497 165.52 150.376 165.558 150.255C165.52 150.37 165.509 150.491 165.52 150.606Z" fill="#FFDE3B"/>
<path d="M165.52 150.606C165.514 150.497 165.52 150.376 165.558 150.255C165.52 150.37 165.509 150.491 165.52 150.606Z" fill="#FFDE3B"/>
<path d="M165.531 150.657C165.531 150.641 165.52 150.624 165.52 150.607C165.52 150.624 165.525 150.641 165.531 150.657Z" fill="#FFDE3B"/>
<path d="M165.531 150.657C165.531 150.641 165.52 150.624 165.52 150.607C165.52 150.624 165.525 150.641 165.531 150.657Z" fill="#FFDE3B"/>
<path d="M218.872 169.294C216.742 169.157 215.191 167.706 214.767 167.267C214.211 166.69 212.527 164.239 211.173 162.272C210.106 160.722 209.187 159.382 208.73 158.81C207.888 157.761 206.385 153.216 206.066 151.601C206.006 151.299 205.978 150.941 205.973 150.562C207.563 150.007 210.54 149.892 211.289 150.029C211.878 150.134 212.455 150.513 213.358 151.386C214.101 152.101 214.728 152.332 215.295 152.332C215.708 152.332 216.088 152.211 216.456 152.068C217.051 151.837 217.595 151.189 217.964 150.656C218.685 150.59 219.367 150.183 219.962 149.755C220.941 149.04 221.051 147.87 220.292 146.276C220.138 145.952 219.945 145.518 219.731 145.045C219.499 144.523 219.241 143.957 218.988 143.413C218.47 142.314 217.981 141.485 217.249 140.996C217.1 140.897 216.654 140.496 216.302 140.177C216.049 139.952 215.779 139.71 215.521 139.479C215.592 139.281 215.647 139.083 215.664 138.88C215.702 138.358 215.537 137.88 215.185 137.506C214.899 137.199 214.365 136.847 213.446 136.875C212.967 136.891 212.433 137.028 211.905 137.243C210.535 136.869 208.279 136.875 207.508 136.908C206.996 136.935 206.165 136.957 205.274 136.984C203.887 137.028 202.313 137.078 201.532 137.138C200.359 137.232 198.901 137.188 198.34 137.122C197.878 137.067 197.393 136.957 196.887 136.836C195.979 136.627 194.944 136.38 193.75 136.418C191.918 136.462 190.113 137.572 189.249 138.105L189.061 138.221C188.715 138.424 186.998 138.682 185.094 138.638C182.617 138.578 175.744 138.116 173.768 137.902C173.245 137.847 172.486 137.693 171.611 137.517C169.245 137.039 166.009 136.391 163.009 136.688C159.553 137.028 156.158 137.935 152.928 139.386L152.185 139.726C149.813 140.809 146.555 142.292 143.154 142.04C140.259 141.82 135.367 140.298 135.367 135.946C135.367 133.622 138.053 132.424 139.203 132.424C141.008 132.424 142.631 133.852 142.774 134.248C142.774 134.995 142.62 135.49 142.499 135.885C142.329 136.44 142.07 137.281 142.846 138.007C143.468 138.583 144.805 138.886 145.961 138.38C146.913 137.968 148.041 136.919 148.041 134.248C148.041 129.44 142.791 127.204 139.241 127.204C135.576 127.204 130.266 130.319 130.266 135.946C130.266 141.639 134.052 145.864 140.138 146.974C144.442 147.76 147.325 147.37 149.4 146.644C148.806 148.507 147.92 151.134 147.171 152.782C145.906 155.563 142.73 159.48 142.23 159.871C142.097 159.958 141.943 160.052 141.778 160.145C141.046 160.579 140.138 161.118 139.847 162.036C139.66 162.634 137.458 168.019 136.655 169.948C135.912 171.734 136.644 172.729 137.233 173.531C137.365 173.712 137.513 173.904 137.651 174.124C138.35 175.234 139.654 175.69 140.771 175.69C141.25 175.69 141.701 175.602 142.053 175.448C143.391 174.855 143.275 172.965 143.016 172.19C142.862 171.739 142.494 171.432 142.026 171.042C141.899 170.937 141.718 170.783 141.586 170.657C141.949 169.767 143.22 167.591 143.561 167.239C143.98 166.86 146.016 165.475 147.639 164.552C149.329 163.596 153.142 161.096 154.964 159.794C155.987 159.063 156.934 158.255 157.611 157.645C158.31 158.887 158.651 159.755 158.673 160.041C158.91 164.25 158.739 165.151 158.701 165.288C158.656 165.453 158.59 165.613 158.524 165.778C158.178 166.635 157.589 168.069 159.251 169.871C159.988 170.668 164.061 174.789 165.679 175.141C165.712 175.146 167.902 175.536 169.905 175.536C171.248 175.536 172.513 175.361 172.987 174.778C173.499 174.152 173.587 173.256 173.229 172.437C172.811 171.487 171.903 170.882 170.802 170.816C170.29 170.783 169.844 170.827 169.448 170.866C168.617 170.948 168.16 170.992 167.44 170.399C166.988 170.025 165.783 169.036 165.701 168.745C165.877 167.992 167.296 162.59 167.803 161.206C167.874 161.002 167.973 160.755 168.078 160.48C168.54 159.272 168.991 158.041 169.311 156.881C170.598 157.233 172.893 157.766 175.496 157.975C178.105 158.184 179.998 157.964 181.522 157.793C181.742 157.766 181.94 157.75 182.144 157.728C181.863 158.892 181.489 160.546 181.352 161.766C181.236 162.761 181.153 164.277 181.082 165.613C181.027 166.684 180.95 168.019 180.906 168.245C180.675 168.932 181.016 169.591 181.346 170.234C181.456 170.454 181.643 170.816 181.665 170.943C181.698 171.239 182.105 173.498 182.799 174.141C183.415 174.707 185.776 174.981 186.866 174.981C187.02 174.981 187.146 174.976 187.24 174.965C188.737 174.8 189.859 173.701 189.733 172.514L189.722 172.366C189.672 171.822 189.562 170.553 187.68 170.437C187.4 170.421 187.146 170.421 186.926 170.421C186.849 170.421 186.767 170.421 186.69 170.421C186.657 170.327 186.618 170.228 186.585 170.124C186.392 169.602 186.216 169.102 186.31 168.668C186.491 167.855 187.856 164.135 188.55 162.481C189.067 161.255 190.283 158.876 190.811 157.865C191.076 157.832 191.345 157.793 191.604 157.761C192.198 157.689 192.754 157.618 193.244 157.524C193.992 157.387 194.84 157.085 195.44 156.843C196.738 158.458 198.995 160.821 199.996 161.59C200.596 162.052 201.713 163.124 202.792 164.157C203.964 165.283 205.076 166.349 205.681 166.783L206.127 167.102C208.405 168.712 209.66 169.767 209.863 170.228C210.502 171.674 214.095 174.262 215.482 174.492C215.499 174.498 216.456 174.63 217.59 174.63C219.153 174.63 221.068 174.377 221.404 173.174C221.624 172.393 221.745 171.272 221.106 170.377C220.765 169.932 220.116 169.377 218.872 169.294ZM136.11 131.264C136.093 130.902 135.884 130.594 135.587 130.424C136.611 129.792 137.711 129.418 138.647 129.308V129.38C138.647 129.797 138.895 130.154 139.252 130.319C139.225 130.319 139.197 130.314 139.17 130.314C138.223 130.319 137.112 130.654 136.11 131.264ZM145.922 134.232C145.922 135.369 145.658 136.144 145.174 136.413C144.926 136.55 144.645 136.545 144.453 136.523C144.458 136.512 144.458 136.501 144.464 136.49C144.612 136.017 144.833 135.298 144.833 134.237C144.833 133.935 144.733 133.605 144.552 133.275L144.656 133.171C145.064 132.764 145.064 132.105 144.656 131.693C144.249 131.286 143.589 131.286 143.176 131.693L143.138 131.731C142.252 131.066 141.112 130.544 139.929 130.38C140.369 130.27 140.7 129.902 140.722 129.44C143.055 129.902 145.922 131.396 145.922 134.232ZM134.052 131.671C134.096 132.034 134.31 132.336 134.624 132.49C134.233 132.924 133.903 133.418 133.661 133.962C133.369 133.99 133.094 134.127 132.913 134.385C132.577 134.852 132.687 135.506 133.155 135.842L133.243 135.902C133.243 135.913 133.243 135.918 133.243 135.924C133.243 136.864 133.408 137.715 133.705 138.49C133.325 138.572 133.028 138.847 132.929 139.221C132.538 138.215 132.329 137.111 132.329 135.924C132.329 134.155 133.039 132.737 134.052 131.671ZM133.529 140.463C133.65 140.512 133.777 140.54 133.914 140.54H134.024C134.288 140.54 134.525 140.43 134.712 140.27C135.257 140.974 135.934 141.578 136.699 142.084C136.319 141.979 135.901 142.089 135.631 142.408L135.499 142.562C135.472 142.595 135.461 142.633 135.439 142.672C134.668 142.029 134.024 141.292 133.529 140.463ZM137.178 143.809L137.216 143.765C137.563 143.358 137.53 142.771 137.178 142.391C138.504 143.172 140.05 143.683 141.646 143.946C141.619 143.968 141.586 143.979 141.564 144.007L141.195 144.397C141.035 144.567 140.964 144.776 140.936 144.985C140.788 144.958 140.645 144.941 140.485 144.914C139.269 144.683 138.157 144.309 137.178 143.809ZM184.648 166.844C184.12 166.953 183.569 167.069 183.553 167.036C183.553 166.975 183.591 166.772 183.778 166.58C183.944 166.409 184.175 166.311 184.411 166.311C183.833 166.311 183.366 166.778 183.366 167.355C183.366 167.86 183.734 168.267 184.219 168.36C184.048 169.333 184.351 170.201 184.582 170.838C184.631 170.976 184.681 171.108 184.719 171.239C185.127 172.514 186.233 172.503 186.899 172.509C187.08 172.509 187.284 172.509 187.515 172.52C187.548 172.52 187.576 172.525 187.598 172.525C187.598 172.531 187.598 172.542 187.598 172.547L187.603 172.624C187.521 172.707 187.3 172.849 186.97 172.888C186.387 172.943 184.808 172.718 184.197 172.547C184.021 172.13 183.762 171.195 183.707 170.712C183.652 170.212 183.404 169.739 183.168 169.278C183.08 169.107 182.953 168.86 182.903 168.717C182.986 168.333 183.03 167.602 183.135 165.723C183.14 165.591 183.151 165.459 183.157 165.321C183.272 165.365 183.393 165.393 183.52 165.393C183.641 165.393 183.767 165.371 183.888 165.321C184.015 165.272 184.103 165.245 184.169 165.223C184.411 165.14 184.554 165.085 184.841 164.898C185.325 164.585 185.468 163.942 185.154 163.453C184.841 162.97 184.197 162.827 183.707 163.14C183.608 163.206 183.608 163.206 183.498 163.239C183.437 163.261 183.36 163.288 183.267 163.321C183.3 162.827 183.338 162.365 183.382 161.997C183.531 160.7 183.988 158.777 184.257 157.689C184.708 157.75 185.171 157.843 185.627 157.936C186.403 158.101 187.196 158.266 187.977 158.266C188.054 158.266 188.131 158.255 188.208 158.255C187.636 159.387 186.943 160.783 186.574 161.667C186.09 162.854 185.193 165.239 184.648 166.844ZM219.428 172.338C218.724 172.553 216.715 172.591 215.796 172.437C215.042 172.294 212.081 170.146 211.746 169.393C211.36 168.519 210.194 167.503 208.328 166.14C208.625 165.81 208.691 165.316 208.455 164.92C208.455 164.92 208.317 164.684 208.229 164.327C208.097 163.766 207.53 163.42 206.969 163.558C206.507 163.667 206.204 164.074 206.187 164.525C205.626 164.019 204.883 163.31 204.206 162.656C203.837 162.299 203.48 161.959 203.133 161.629C203.188 161.634 203.238 161.656 203.298 161.651C203.876 161.601 204.3 161.101 204.256 160.524C204.212 160.008 203.92 159.739 203.744 159.618C203.26 159.288 202.742 159.442 202.407 159.541L202.198 159.601C201.884 159.689 201.658 159.909 201.537 160.178C201.438 160.096 201.328 159.997 201.24 159.931C201.058 159.794 200.838 159.596 200.596 159.371C200.596 159.371 200.596 159.371 200.596 159.365C200.602 159.332 200.607 159.299 200.607 159.266C200.899 158.986 201.014 158.557 200.866 158.156C200.629 157.497 200.079 157.315 199.677 157.359C199.358 157.392 199.143 157.541 198.978 157.733C197.773 156.436 196.59 155.041 196.397 154.65C195.885 153.623 193.514 151.59 192.804 150.991C192.363 150.617 191.703 150.678 191.329 151.117C190.96 151.557 191.015 152.216 191.455 152.59C192.435 153.414 193.547 154.436 194.135 155.085C193.701 155.238 193.227 155.387 192.831 155.464C192.738 155.48 192.639 155.497 192.539 155.508C192.804 155.085 192.749 154.53 192.363 154.183C191.934 153.799 191.274 153.837 190.889 154.271C190.646 154.546 190.212 155.074 190.058 155.502C190.014 155.618 190.008 155.733 190.008 155.854C189.524 155.925 189.023 156.013 188.522 156.129C187.884 156.277 187.003 156.09 186.079 155.892C185.512 155.771 184.934 155.656 184.34 155.59C184.428 155.447 184.521 155.299 184.62 155.161C184.951 154.689 184.841 154.04 184.367 153.705C183.894 153.376 183.245 153.486 182.909 153.958C182.293 154.826 182.1 155.326 182.039 155.629C181.781 155.656 181.533 155.678 181.252 155.711C180.119 155.843 178.76 155.986 177.059 155.953C177.114 155.881 177.164 155.804 177.197 155.711C177.395 155.172 177.12 154.568 176.575 154.37C175.359 153.925 174.379 155.145 174.005 155.705C172.161 155.453 170.587 155.068 169.679 154.815C169.712 154.48 169.729 154.156 169.707 153.854C169.668 153.277 169.162 152.843 168.595 152.881C168.282 152.903 168.017 153.068 167.836 153.299C167.72 153.051 167.506 152.848 167.225 152.755C167.175 152.738 167.06 152.711 166.911 152.683C166.834 152.672 166.669 152.639 166.548 152.606C166.3 152.332 165.91 152.2 165.519 152.293C164.958 152.431 164.616 152.996 164.754 153.557C164.974 154.453 165.981 154.634 166.62 154.749C166.708 154.771 166.801 154.782 166.889 154.782C167.159 154.782 167.407 154.667 167.599 154.491C167.55 155.156 167.362 155.969 167.115 156.793C167.071 156.596 166.994 156.409 166.845 156.255C166.576 155.936 166.064 155.348 165.337 155.469C164.936 155.535 164.6 155.81 164.446 156.2C164.231 156.733 164.49 157.343 165.029 157.557C165.106 157.59 165.189 157.612 165.271 157.623C165.326 157.684 165.37 157.733 165.398 157.761C165.596 157.958 165.855 158.057 166.119 158.057C166.361 158.057 166.603 157.958 166.801 157.788C166.554 158.513 166.295 159.195 166.097 159.717C165.987 160.002 165.888 160.261 165.811 160.475C165.778 160.568 165.739 160.684 165.695 160.81C165.607 160.486 165.486 160.068 165.431 159.925C165.222 159.398 164.633 159.151 164.099 159.349C163.565 159.546 163.296 160.145 163.483 160.684C163.532 160.832 163.681 161.371 163.774 161.733C163.895 162.2 164.319 162.514 164.787 162.514C164.875 162.514 164.963 162.503 165.051 162.481C165.112 162.464 165.156 162.426 165.211 162.404C165.062 162.915 164.908 163.464 164.754 164.025C164.622 163.81 164.418 163.635 164.16 163.558C163.604 163.398 163.026 163.717 162.866 164.272C162.729 164.739 162.888 165.195 163.439 165.959C163.609 166.195 163.862 166.311 164.132 166.354C163.89 167.278 163.703 168.008 163.642 168.261C163.301 169.712 164.655 170.827 166.086 172.003C167.473 173.141 168.667 173.025 169.619 172.937C169.971 172.904 170.301 172.871 170.653 172.893C170.995 172.915 171.165 173.064 171.248 173.185C171.292 173.251 171.314 173.311 171.325 173.36C170.323 173.558 167.137 173.316 166.124 173.097C165.436 172.877 162.536 170.355 160.77 168.448C160.005 167.624 160.142 167.289 160.445 166.558C160.55 166.305 160.643 166.058 160.709 165.81C160.77 165.574 160.94 164.915 160.83 161.854C160.847 161.898 160.863 161.926 160.874 161.948C161.061 162.321 161.447 162.547 161.837 162.547C161.991 162.547 162.14 162.514 162.289 162.442C162.806 162.184 163.026 161.585 162.767 161.068C162.729 160.97 162.63 160.557 162.547 160.195C162.421 159.629 161.859 159.272 161.303 159.398C161.061 159.453 160.869 159.596 160.726 159.772C160.627 158.838 159.807 157.2 158.822 155.607C158.838 155.607 158.855 155.607 158.871 155.607C159.366 155.557 159.746 155.167 159.807 154.694C159.845 154.606 159.933 154.453 160.01 154.343C160.329 153.865 160.197 153.216 159.719 152.898C159.24 152.579 158.59 152.705 158.271 153.189C158.024 153.562 157.886 153.848 157.814 154.073C156.246 151.826 153.621 147.408 153.594 147.364C153.296 146.87 152.658 146.705 152.163 146.996C151.667 147.287 151.502 147.93 151.794 148.425C151.904 148.606 154.491 152.964 156.109 155.277C156.246 155.469 156.362 155.65 156.488 155.837C155.861 156.414 154.832 157.315 153.742 158.09C153.318 158.392 152.779 158.766 152.185 159.167C152.295 158.623 151.965 158.085 151.42 157.953C150.864 157.815 150.292 158.151 150.154 158.711C150.033 159.2 150.016 159.623 150.016 159.832C150.016 160.068 150.11 160.277 150.242 160.453C148.833 161.376 147.425 162.261 146.599 162.728C146.181 162.964 145.713 163.244 145.245 163.541C145.234 163.475 145.223 163.42 145.218 163.387C145.185 162.838 144.733 162.404 144.172 162.404C143.594 162.404 143.127 162.871 143.127 163.448C143.127 163.64 143.154 164.255 143.391 164.755C142.824 165.146 142.367 165.486 142.136 165.701C141.63 166.168 139.313 169.811 139.406 170.91C139.467 171.641 140.083 172.152 140.683 172.646C140.799 172.74 140.958 172.871 141.052 172.965C141.085 173.146 141.09 173.415 141.063 173.58C140.667 173.652 139.781 173.58 139.423 173.009C139.252 172.74 139.082 172.509 138.922 172.289C138.405 171.591 138.3 171.443 138.592 170.75C139.142 169.426 141.608 163.431 141.844 162.667C141.938 162.475 142.532 162.123 142.846 161.937C143.038 161.821 143.226 161.711 143.391 161.601C143.765 161.349 144.585 160.431 145.509 159.239C145.537 159.486 145.592 159.794 145.641 160.041C145.741 160.541 146.175 160.887 146.665 160.887C146.731 160.887 146.797 160.882 146.863 160.871C147.43 160.761 147.799 160.211 147.689 159.645C147.689 159.64 147.59 159.156 147.579 158.958C147.568 158.387 147.105 157.931 146.533 157.931C146.511 157.931 146.494 157.942 146.472 157.942C147.485 156.519 148.487 154.931 149.075 153.639C150.396 150.733 152.02 145.254 152.091 145.018C152.212 144.611 152.075 144.172 151.739 143.908C151.409 143.644 150.947 143.606 150.578 143.815C148.982 144.71 146.874 145.534 143.226 145.271C143.451 144.908 143.435 144.463 143.182 144.117C144.013 144.166 144.822 144.133 145.608 144.04C145.652 144.194 145.719 144.348 145.834 144.474L146.076 144.732C146.28 144.958 146.566 145.073 146.847 145.073C147.1 145.073 147.353 144.979 147.551 144.798C147.887 144.49 147.964 144.012 147.793 143.617C149.081 143.282 150.281 142.831 151.37 142.364C151.497 142.661 151.744 142.902 152.086 142.979L152.476 143.067C152.553 143.084 152.631 143.095 152.702 143.095C153.181 143.095 153.616 142.765 153.72 142.276C153.792 141.957 153.693 141.644 153.506 141.408L153.781 141.281C154.722 140.858 155.674 140.507 156.642 140.188C156.631 140.682 156.956 141.128 157.457 141.232C157.528 141.248 157.6 141.254 157.671 141.254C158.156 141.254 158.59 140.913 158.695 140.424L158.794 139.952C158.822 139.814 158.822 139.682 158.794 139.556C159.427 139.397 160.06 139.248 160.693 139.127C160.621 139.38 160.616 139.638 160.693 139.886C160.83 140.325 161.193 140.655 161.683 140.787C161.777 140.814 161.87 140.825 161.958 140.825C162.421 140.825 162.839 140.523 162.965 140.056C163.048 139.759 162.993 139.463 162.839 139.221C162.839 139.083 162.806 138.957 162.751 138.831C162.905 138.814 163.059 138.781 163.213 138.765C164.094 138.677 165.013 138.693 165.932 138.759C165.431 138.765 164.985 139.105 164.897 139.611C164.831 140.012 164.996 140.397 165.299 140.622C165.337 140.743 165.398 140.864 165.486 140.968C165.695 141.221 165.992 141.353 166.295 141.353C166.526 141.353 166.763 141.276 166.955 141.117C167.373 140.77 167.55 140.281 167.423 139.803C167.236 139.1 166.543 138.858 166.229 138.781C167.12 138.858 168.001 138.985 168.843 139.127C168.744 139.193 168.65 139.27 168.579 139.375C168.315 139.748 168.326 140.237 168.579 140.595C168.568 140.875 168.667 141.161 168.881 141.375C169.085 141.578 169.355 141.683 169.619 141.683C169.883 141.683 170.153 141.578 170.356 141.375C170.637 141.095 170.78 140.71 170.747 140.32C170.719 139.99 170.571 139.671 170.329 139.408C170.62 139.463 170.907 139.523 171.176 139.578C172.106 139.765 172.904 139.924 173.521 139.99C173.807 140.023 174.208 140.056 174.676 140.1C174.786 140.617 175.056 141.144 175.392 141.364C175.568 141.485 175.771 141.54 175.969 141.54C176.305 141.54 176.641 141.375 176.839 141.073C177.004 140.831 177.037 140.545 176.977 140.281C178.605 140.397 180.466 140.518 182.078 140.606C182.006 140.908 181.968 141.243 182.034 141.545C182.138 142.04 182.59 142.413 183.08 142.413C183.146 142.413 183.212 142.408 183.283 142.391C183.85 142.271 184.213 141.759 184.092 141.199C184.092 141.155 184.12 141.051 184.136 140.996C184.186 140.902 184.208 140.803 184.23 140.71C184.521 140.721 184.797 140.732 185.022 140.737C186.387 140.77 188.946 140.661 190.047 140.056C190.168 140.501 190.553 140.836 191.037 140.836C191.615 140.836 192.083 140.369 192.083 139.792V139.04C192.083 139.012 192.072 138.99 192.066 138.963C192.413 138.814 192.771 138.688 193.128 138.611C193.123 138.655 193.101 138.693 193.101 138.737C193.101 139.314 193.569 139.781 194.146 139.781H194.367C194.944 139.781 195.412 139.314 195.412 138.737C195.412 138.715 195.401 138.693 195.401 138.671C195.731 138.732 196.062 138.803 196.397 138.886C196.942 139.012 197.503 139.138 198.081 139.21C198.582 139.27 199.44 139.303 200.326 139.292C200.244 139.358 200.161 139.43 200.101 139.523L199.958 139.743C199.644 140.226 199.782 140.875 200.266 141.188C200.442 141.303 200.64 141.353 200.833 141.353C201.174 141.353 201.51 141.183 201.713 140.875L201.856 140.655C202.159 140.182 202.032 139.567 201.576 139.243C201.609 139.243 201.647 139.237 201.68 139.237C202.275 139.188 203.414 139.149 204.553 139.116C204.553 139.413 204.668 139.71 204.916 139.913L205.048 140.023C205.246 140.188 205.483 140.265 205.714 140.265C206.017 140.265 206.308 140.139 206.518 139.891C206.721 139.649 206.782 139.342 206.732 139.051C207.068 139.04 207.365 139.029 207.596 139.018C208.13 138.99 208.763 138.996 209.374 139.029C209.346 139.062 209.313 139.094 209.286 139.127C208.928 139.578 209.005 140.237 209.456 140.595C209.907 140.952 210.568 140.875 210.926 140.424C211.289 139.968 211.828 139.595 212.334 139.336C212.34 139.336 212.34 139.331 212.345 139.331C212.808 139.094 213.248 138.957 213.496 138.941C213.319 139.254 212.879 139.748 212.45 140.095C211.999 140.457 211.927 141.111 212.29 141.562C212.499 141.82 212.802 141.952 213.105 141.952C213.336 141.952 213.562 141.875 213.76 141.721C213.804 141.688 213.864 141.639 213.925 141.584C213.853 141.727 213.804 141.88 213.804 142.045V142.391C213.804 142.968 214.271 143.435 214.849 143.435C215.361 143.435 215.763 143.062 215.856 142.578C215.939 142.644 216.016 142.705 216.088 142.749C216.434 142.979 216.808 143.705 217.095 144.315C217.342 144.848 217.595 145.408 217.821 145.914C218.041 146.403 218.239 146.853 218.404 147.188C218.729 147.864 218.718 148.079 218.735 148.079C218.047 148.579 217.805 148.606 217.81 148.612C217.645 148.584 217.408 148.513 217.188 148.452C216.654 148.304 216.363 148.221 216.027 148.304C215.466 148.441 215.124 149.013 215.268 149.568C215.328 149.815 215.477 150.013 215.664 150.15C215.251 150.309 215.235 150.298 214.816 149.897C213.925 149.04 212.929 148.216 211.657 147.991C211.344 147.936 210.738 147.903 209.996 147.914C210.089 147.683 210.111 147.414 210.018 147.161C209.819 146.617 209.22 146.342 208.675 146.54L208.433 146.628C207.888 146.826 207.613 147.425 207.811 147.969C207.822 148.002 207.849 148.029 207.866 148.062C207.266 148.134 206.666 148.238 206.099 148.375C206.149 147.974 206.204 147.666 206.237 147.562C206.451 147.029 206.193 146.419 205.654 146.205C205.114 145.991 204.509 146.249 204.294 146.787C204.151 147.144 203.975 148.21 203.909 149.381C203.782 149.331 203.639 149.265 203.507 149.205C202.984 148.963 202.363 149.194 202.12 149.722C201.878 150.244 202.109 150.864 202.638 151.106C203.375 151.441 203.733 151.54 203.953 151.562C203.975 151.722 203.992 151.887 204.019 152.035C204.058 152.222 204.118 152.474 204.195 152.777C204.146 152.799 204.096 152.799 204.047 152.826L203.826 152.958C203.331 153.255 203.172 153.898 203.469 154.392C203.667 154.716 204.014 154.898 204.366 154.898C204.509 154.898 204.646 154.859 204.784 154.799C205.263 156.31 205.901 158.041 206.523 159.211C206.424 159.261 206.325 159.316 206.242 159.398L206.017 159.618C205.731 159.893 205.378 160.233 205.45 160.81C205.488 161.134 205.742 161.486 206.028 161.651C206.193 161.744 206.369 161.788 206.545 161.788C206.908 161.788 207.26 161.601 207.453 161.261C207.492 161.189 207.525 161.118 207.547 161.041L207.679 160.915C208.152 161.579 208.79 162.503 209.456 163.47C211.294 166.14 212.643 168.08 213.264 168.728C214.75 170.272 216.797 171.267 218.746 171.399C219.07 171.421 219.307 171.498 219.384 171.613C219.455 171.701 219.494 171.965 219.428 172.338Z" fill="#FFDE3B"/>
<path d="M175.82 148.42C175.87 148.216 175.853 148.013 175.782 147.826C176.106 147.458 176.134 146.897 175.82 146.496C175.462 146.04 174.807 145.958 174.351 146.315C173.927 146.645 173.41 147.447 173.58 148.216C173.69 148.711 174.065 149.084 174.56 149.2C174.637 149.216 174.719 149.227 174.796 149.227C175.281 149.227 175.71 148.903 175.82 148.42Z" fill="#FFDE3B"/>
<path d="M180.01 151.034C180.258 150.985 180.714 150.809 180.995 150.177C181.105 149.925 181.446 148.848 181.061 148.205C180.676 147.567 179.933 147.54 178.86 147.71C178.288 147.798 177.897 148.331 177.99 148.902C178.056 149.337 178.387 149.666 178.794 149.76C178.755 149.908 178.75 150.062 178.783 150.216C178.882 150.71 179.317 151.056 179.806 151.056C179.872 151.056 179.939 151.051 180.01 151.034Z" fill="#FFDE3B"/>
<path d="M182.859 146.057C183.184 145.738 183.272 145.232 183.041 144.815C182.766 144.309 182.133 144.122 181.621 144.397C180.851 144.815 180.444 145.463 180.526 146.139C180.598 146.699 181.005 147.156 181.577 147.304C181.665 147.326 181.753 147.337 181.836 147.337C182.304 147.337 182.727 147.024 182.848 146.557C182.898 146.386 182.898 146.216 182.859 146.057Z" fill="#FFDE3B"/>
<path d="M178.37 146.974C178.403 146.974 178.436 146.979 178.463 146.979C178.997 146.979 179.454 146.573 179.503 146.029C179.536 145.666 179.382 145.331 179.113 145.122C179.102 144.754 178.893 144.397 178.535 144.221C178.018 143.963 177.39 144.172 177.132 144.688C176.884 145.183 176.889 145.732 177.143 146.194C177.396 146.633 177.852 146.924 178.37 146.974Z" fill="#FFDE3B"/>
<path d="M175.2 144.925C175.332 144.925 175.469 144.897 175.601 144.842C176.008 144.672 176.729 144.199 176.867 143.496C176.944 143.111 176.828 142.721 176.559 142.452C176.152 142.045 175.491 142.045 175.078 142.452C174.946 142.584 174.858 142.738 174.814 142.902C174.809 142.908 174.803 142.908 174.798 142.913C174.264 143.133 174.016 143.749 174.236 144.282C174.396 144.683 174.787 144.925 175.2 144.925Z" fill="#FFDE3B"/>
<path d="M172.562 142.765C172.59 142.77 172.623 142.77 172.65 142.77C173.189 142.77 173.646 142.358 173.69 141.814C173.718 141.507 173.608 141.221 173.41 141.012C173.465 140.463 173.079 139.963 172.524 139.88C171.957 139.787 171.417 140.188 171.335 140.759C171.28 141.106 171.186 141.748 171.599 142.265C171.83 142.556 172.171 142.732 172.562 142.765Z" fill="#FFDE3B"/>
<path d="M164.049 140.743C163.51 140.546 162.91 140.826 162.707 141.37C162.552 141.798 162.696 142.26 163.026 142.535C163.042 142.617 163.075 142.7 163.114 142.782C163.295 143.15 163.664 143.359 164.049 143.359C164.203 143.359 164.368 143.326 164.517 143.249C164.968 143.024 165.227 142.584 165.199 142.095C165.172 141.513 164.715 140.985 164.049 140.743Z" fill="#FFDE3B"/>
<path d="M166.619 144.018C166.8 144.161 167.015 144.227 167.23 144.227C167.532 144.227 167.835 144.09 168.044 143.826C168.094 143.76 168.138 143.694 168.171 143.622C168.484 143.397 168.638 142.996 168.556 142.573C168.446 142.007 167.851 141.65 167.29 141.754C166.976 141.815 166.245 141.947 166.063 142.699C165.997 142.985 165.975 143.529 166.619 144.018Z" fill="#FFDE3B"/>
<path d="M170.075 144.892C170.251 145.029 170.477 145.112 170.719 145.112C170.746 145.112 170.779 145.112 170.807 145.106C171.379 145.057 171.808 144.551 171.764 143.98C171.731 143.584 171.539 143.243 171.225 143.018C170.636 142.595 169.871 142.787 169.585 142.859C169.024 142.996 168.683 143.568 168.826 144.123C168.963 144.683 169.524 145.018 170.075 144.892Z" fill="#FFDE3B"/>
<path d="M170.985 146.254C170.985 146.271 170.979 146.287 170.979 146.309C170.726 146.502 170.566 146.798 170.566 147.139C170.566 147.716 171.034 148.183 171.612 148.183C172.625 148.183 173.076 147.079 173.076 146.293C173.076 145.732 172.636 145.304 172.074 145.276C171.502 145.249 171.029 145.699 170.985 146.254Z" fill="#FFDE3B"/>
<path d="M169.646 149.013C169.767 148.667 169.696 148.304 169.492 148.03C169.685 147.524 169.454 146.942 168.953 146.711C168.43 146.469 167.808 146.694 167.566 147.222C167.285 147.832 167.241 148.376 167.434 148.837C167.594 149.216 167.907 149.502 168.314 149.645C168.43 149.684 168.546 149.706 168.661 149.706C169.09 149.711 169.498 149.442 169.646 149.013Z" fill="#FFDE3B"/>
<path d="M166.402 146.98C166.644 146.98 166.881 146.897 167.079 146.733C167.183 146.645 167.266 146.54 167.327 146.43C167.651 146.227 167.855 145.848 167.811 145.441C167.756 144.87 167.244 144.447 166.666 144.507C166.066 144.568 165.593 144.892 165.4 145.37C165.23 145.787 165.312 146.266 165.604 146.612C165.808 146.853 166.105 146.98 166.402 146.98Z" fill="#FFDE3B"/>
<path d="M172.554 151.617C172.075 151.909 171.464 152.843 171.596 153.65C171.684 154.161 172.125 154.524 172.625 154.524C172.681 154.524 172.741 154.519 172.802 154.508C173.324 154.42 173.688 153.964 173.677 153.453C173.688 153.431 173.699 153.403 173.715 153.381C173.82 153.315 173.913 153.233 173.99 153.128C174.337 152.667 174.243 152.013 173.787 151.667C173.434 151.409 172.917 151.398 172.554 151.617Z" fill="#FFDE3B"/>
<path d="M176.205 150.431C175.82 150.546 175.512 150.827 175.33 151.222C175.093 151.739 175.06 152.486 175.259 152.92C175.435 153.31 175.814 153.536 176.211 153.536C176.354 153.536 176.497 153.508 176.64 153.442C177.119 153.228 177.355 152.706 177.223 152.217C177.223 152.206 177.223 152.195 177.223 152.184C177.504 151.92 177.625 151.514 177.509 151.123C177.339 150.579 176.755 150.266 176.205 150.431Z" fill="#FFDE3B"/>
<path d="M171.654 149.216C171.136 148.958 170.509 149.167 170.25 149.683C170.212 149.76 170.03 149.941 169.931 150.035C169.629 150.332 169.122 150.826 169.364 151.546C169.513 151.986 169.92 152.26 170.355 152.26C170.465 152.26 170.575 152.244 170.685 152.205C170.993 152.101 171.224 151.87 171.329 151.59C171.351 151.568 171.373 151.546 171.395 151.524C171.615 151.304 171.923 151.007 172.116 150.617C172.38 150.101 172.171 149.474 171.654 149.216Z" fill="#FFDE3B"/>
<path d="M179.926 152.617C179.794 152.815 179.723 152.991 179.668 153.139C179.613 153.282 179.58 153.359 179.492 153.463C179.123 153.908 179.183 154.562 179.624 154.936C179.822 155.101 180.058 155.178 180.295 155.178C180.598 155.178 180.889 155.051 181.099 154.804C181.407 154.436 181.533 154.117 181.616 153.903C181.632 153.859 181.649 153.815 181.671 153.777C181.99 153.298 181.858 152.65 181.379 152.331C180.895 152.007 180.246 152.139 179.926 152.617Z" fill="#FFDE3B"/>
<path d="M185.148 150.435C185.165 150.177 185.082 149.908 184.901 149.694C184.527 149.254 183.866 149.205 183.426 149.578C182.804 150.106 182.799 150.683 182.854 150.979C182.958 151.556 183.409 151.991 184.185 152.271C184.301 152.315 184.422 152.331 184.538 152.331C184.967 152.331 185.369 152.067 185.523 151.639C185.688 151.183 185.517 150.699 185.148 150.435Z" fill="#FFDE3B"/>
<path d="M187.939 153.272C187.483 153.326 186.663 153.711 186.289 154.381C186.008 154.882 186.173 155.535 186.674 155.821C186.839 155.915 187.02 155.959 187.197 155.959C187.554 155.959 187.895 155.777 188.088 155.436C188.121 155.404 188.22 155.343 188.204 155.338C188.776 155.266 189.183 154.744 189.112 154.173C189.035 153.607 188.512 153.2 187.939 153.272Z" fill="#FFDE3B"/>
<path d="M179.464 143.815C179.492 143.815 179.519 143.815 179.547 143.809C180.125 143.771 180.559 143.276 180.521 142.699C180.488 142.238 180.163 141.864 179.739 141.754C179.53 141.408 179.123 141.199 178.694 141.26C178.121 141.342 177.725 141.87 177.808 142.441C177.896 143.068 178.683 143.815 179.464 143.815Z" fill="#FFDE3B"/>
<path d="M184.539 145.09L185.244 144.32L184.55 145.101C184.748 145.276 184.996 145.364 185.244 145.364C185.53 145.364 185.816 145.249 186.025 145.013C186.339 144.661 186.372 144.15 186.135 143.771C186.201 143.485 186.146 143.177 185.959 142.925C185.618 142.458 184.963 142.359 184.501 142.699C184.126 142.974 183.906 143.359 183.884 143.782C183.851 144.48 184.369 144.936 184.539 145.09Z" fill="#FFDE3B"/>
<path d="M186.881 148.277C187.079 147.788 186.875 147.244 186.435 146.986C186.27 146.535 185.797 146.249 185.307 146.31C184.735 146.392 184.338 146.92 184.421 147.491C184.531 148.266 185.169 148.717 185.527 148.859C185.654 148.909 185.786 148.936 185.912 148.936C186.325 148.936 186.721 148.689 186.881 148.277Z" fill="#FFDE3B"/>
<path d="M189.62 149.145C189.592 149.101 189.559 149.041 189.543 148.997C189.356 148.453 188.761 148.162 188.211 148.354C187.666 148.541 187.375 149.134 187.567 149.684C187.611 149.816 188.035 150.964 188.927 151.052C188.965 151.057 188.998 151.057 189.037 151.057C189.565 151.057 190.022 150.656 190.077 150.118C190.11 149.722 189.923 149.36 189.62 149.145Z" fill="#FFDE3B"/>
<path d="M184.542 159.568C184.471 159.64 184.41 159.7 184.361 159.749C183.898 159.903 183.596 160.365 183.656 160.865C183.722 161.398 184.168 161.788 184.691 161.788C184.735 161.788 184.773 161.788 184.817 161.783C185.236 161.733 185.56 161.623 185.857 161.228C185.879 161.2 185.912 161.156 185.978 161.096C186.397 160.7 186.419 160.041 186.023 159.618C185.626 159.194 184.96 159.178 184.542 159.568Z" fill="#FFDE3B"/>
<path d="M161.608 155.282C161.173 155.738 160.81 156.546 161.239 157.293C161.432 157.634 161.784 157.826 162.153 157.826C162.329 157.826 162.505 157.782 162.664 157.689C163.044 157.475 163.237 157.057 163.187 156.645C163.523 156.227 163.484 155.618 163.088 155.238C162.67 154.848 162.01 154.865 161.608 155.282Z" fill="#FFDE3B"/>
<path d="M163.217 150.217C162.859 150.112 162.435 150.222 162.165 150.48C161.621 151.002 161.621 152.376 161.676 152.596C161.791 153.074 162.221 153.393 162.688 153.393C162.771 153.393 162.853 153.382 162.936 153.36C163.437 153.239 163.761 152.777 163.728 152.283C163.734 152.173 163.761 151.959 163.789 151.805C163.849 151.711 163.899 151.612 163.932 151.502C164.092 150.947 163.772 150.371 163.217 150.217Z" fill="#FFDE3B"/>
<path d="M164.523 147.408C164.105 147.007 163.445 147.023 163.043 147.441C162.647 147.858 162.658 148.518 163.076 148.919L163.197 149.034C163.401 149.226 163.659 149.325 163.918 149.325C164.193 149.325 164.468 149.215 164.672 149.001C165.068 148.584 165.057 147.924 164.639 147.523L164.523 147.408Z" fill="#FFDE3B"/>
<path d="M158.716 149.178C158.177 148.969 157.572 149.233 157.362 149.771L157.208 150.161C156.999 150.7 157.263 151.304 157.803 151.513C157.929 151.562 158.056 151.584 158.182 151.584C158.601 151.584 158.997 151.332 159.156 150.92L159.311 150.529C159.52 149.991 159.25 149.386 158.716 149.178Z" fill="#FFDE3B"/>
<path d="M161.787 149.711C161.837 149.348 161.947 148.601 161.33 148.194C160.846 147.875 160.197 148.007 159.883 148.485C159.718 148.733 159.674 149.024 159.734 149.293C159.729 149.354 159.718 149.409 159.718 149.42C159.635 149.991 160.037 150.519 160.604 150.601C160.653 150.606 160.703 150.612 160.752 150.612C161.264 150.612 161.715 150.233 161.787 149.711Z" fill="#FFDE3B"/>
<path d="M161.926 146.919C162.504 146.919 162.966 146.501 162.966 145.924C162.977 145.853 163.01 145.743 163.038 145.639C163.137 145.249 163.203 144.99 163.093 144.666C162.911 144.122 162.317 143.825 161.767 144.007C161.354 144.144 161.084 144.518 161.057 144.93C161.046 144.979 161.024 145.045 161.007 145.117C160.925 145.424 160.875 145.628 160.875 145.826C160.886 146.402 161.348 146.919 161.926 146.919Z" fill="#FFDE3B"/>
<path d="M150.629 151.43C150.629 151.65 150.777 152.342 150.855 152.54C151.014 152.941 151.394 153.177 151.807 153.177C151.922 153.177 152.043 153.156 152.159 153.117C152.687 152.936 152.973 152.353 152.814 151.815C152.781 151.705 152.726 151.43 152.709 151.326C152.66 150.798 152.214 150.386 151.669 150.386C151.097 150.386 150.629 150.853 150.629 151.43Z" fill="#FFDE3B"/>
<path d="M153.755 157.035C153.81 157.046 153.865 157.046 153.92 157.046C154.426 157.046 154.872 156.678 154.949 156.167C154.971 156.024 155.037 155.519 154.932 155.074C154.806 154.524 154.272 154.206 153.716 154.315C153.16 154.425 152.803 154.98 152.891 155.535C152.902 155.59 152.891 155.744 152.88 155.843C152.792 156.409 153.182 156.947 153.755 157.035Z" fill="#FFDE3B"/>
<path d="M149.302 154.095C148.889 154.589 148.867 155.589 148.895 155.804C148.972 156.326 149.429 156.743 149.946 156.743C149.99 156.743 150.039 156.738 150.083 156.732C150.656 156.65 151.058 156.166 150.975 155.595C150.975 155.529 151.002 155.359 151.024 155.265C151.261 154.837 151.168 154.287 150.777 153.963C150.326 153.589 149.671 153.65 149.302 154.095Z" fill="#FFDE3B"/>
<path d="M157.401 147.562L157.203 146.974C157.021 146.43 156.433 146.128 155.882 146.315C155.332 146.496 155.04 147.09 155.222 147.633L155.42 148.221C155.569 148.661 155.976 148.936 156.411 148.936C156.521 148.936 156.631 148.919 156.741 148.881C157.286 148.699 157.583 148.106 157.401 147.562Z" fill="#FFDE3B"/>
<path d="M160.099 147.024V146.793C160.099 146.216 159.631 145.749 159.053 145.749C158.476 145.749 158.008 146.216 158.008 146.793V147.024C158.008 147.601 158.476 148.068 159.053 148.068C159.631 148.068 160.099 147.601 160.099 147.024Z" fill="#FFDE3B"/>
<path d="M156.089 143.891C156.238 144.325 156.645 144.595 157.08 144.595C157.19 144.595 157.305 144.578 157.421 144.54C157.966 144.353 158.257 143.759 158.07 143.215L157.872 142.644C157.685 142.1 157.091 141.803 156.546 141.995C156.001 142.182 155.709 142.776 155.896 143.32L156.089 143.891Z" fill="#FFDE3B"/>
<path d="M165.113 150.821C165.261 151.255 165.668 151.524 166.103 151.524C166.213 151.524 166.329 151.508 166.444 151.469C166.989 151.282 167.281 150.689 167.094 150.145L166.896 149.573C166.708 149.029 166.114 148.733 165.569 148.925C165.024 149.112 164.733 149.705 164.92 150.249L165.113 150.821Z" fill="#FFDE3B"/>
<path d="M158.866 143.199C159.015 143.633 159.422 143.903 159.857 143.903C159.967 143.903 160.083 143.886 160.198 143.848C160.743 143.661 161.035 143.067 160.848 142.524L160.649 141.952C160.462 141.408 159.868 141.111 159.323 141.304C158.778 141.49 158.487 142.084 158.674 142.628L158.866 143.199Z" fill="#FFDE3B"/>
<path d="M155.275 144.513L154.901 143.799C154.631 143.288 153.998 143.095 153.486 143.365C152.974 143.634 152.782 144.266 153.051 144.777L153.426 145.491C153.613 145.848 153.976 146.046 154.35 146.046C154.515 146.046 154.68 146.008 154.835 145.925C155.352 145.651 155.544 145.019 155.275 144.513Z" fill="#FFDE3B"/>
<path d="M198.361 152.716C197.987 152.277 197.326 152.227 196.886 152.601C196.446 152.974 196.396 153.634 196.77 154.073L197.034 154.376C197.244 154.617 197.535 154.738 197.827 154.738C198.069 154.738 198.311 154.656 198.504 154.486C198.944 154.112 198.994 153.453 198.619 153.013L198.361 152.716Z" fill="#FFDE3B"/>
<path d="M201.576 151.282C201.576 150.557 201.047 150.134 200.525 150.09C199.754 150.018 198.934 150.875 198.846 151.441C198.752 152.013 199.138 152.546 199.71 152.639C199.765 152.65 199.826 152.65 199.881 152.65C200.178 152.65 200.453 152.524 200.646 152.315C201.168 152.26 201.576 151.821 201.576 151.282Z" fill="#FFDE3B"/>
<path d="M201.625 153.859C201.207 153.716 200.767 153.843 200.387 154.2C199.864 154.689 199.936 155.216 199.991 155.42C200.101 155.826 200.426 156.134 200.861 156.233C200.938 156.249 201.02 156.26 201.097 156.26C201.554 156.26 201.967 155.958 202.099 155.513C202.176 155.42 202.242 155.304 202.28 155.183C202.467 154.639 202.17 154.046 201.625 153.859Z" fill="#FFDE3B"/>
<path d="M203.371 156.002C202.914 156.183 202.611 156.601 202.606 157.068C202.595 157.436 202.788 157.925 203.343 158.178C203.481 158.244 203.63 158.271 203.778 158.271C204.174 158.271 204.554 158.046 204.73 157.661C204.752 157.612 204.769 157.563 204.785 157.513C205.027 157.112 204.972 156.584 204.626 156.244C204.306 155.925 203.811 155.826 203.371 156.002Z" fill="#FFDE3B"/>
<path d="M196.394 147.595C196.603 147.595 196.817 147.529 197.005 147.398C197.472 147.062 197.577 146.409 197.241 145.941C197.208 145.892 197.159 145.821 197.12 145.755C197.109 145.502 197.01 145.255 196.817 145.062C196.41 144.656 195.75 144.656 195.337 145.062C194.831 145.568 194.902 146.271 195.546 147.161C195.75 147.447 196.069 147.595 196.394 147.595Z" fill="#FFDE3B"/>
<path d="M201.148 144.968C201.429 144.968 201.709 144.859 201.913 144.639C202.238 144.293 202.276 143.776 202.045 143.391C202.078 142.902 201.764 142.441 201.275 142.309C200.719 142.155 200.141 142.49 199.992 143.051C199.833 143.65 200.003 144.293 200.438 144.694C200.636 144.875 200.889 144.968 201.148 144.968Z" fill="#FFDE3B"/>
<path d="M201.562 146.551C201.562 146.974 201.843 147.633 202.3 147.963C202.52 148.122 202.768 148.205 203.021 148.205C203.147 148.205 203.274 148.183 203.395 148.144C203.945 147.963 204.242 147.37 204.055 146.826C203.973 146.584 203.813 146.392 203.61 146.265C203.483 145.831 203.081 145.512 202.608 145.512C202.03 145.507 201.562 145.974 201.562 146.551Z" fill="#FFDE3B"/>
<path d="M198.368 147.321C198.456 147.832 198.896 148.194 199.397 148.194C199.452 148.194 199.513 148.189 199.573 148.178C200.14 148.084 200.525 147.546 200.432 146.974C200.432 146.963 200.426 146.925 200.426 146.892C200.63 146.48 200.542 145.969 200.184 145.65C199.755 145.266 199.089 145.304 198.709 145.738C198.264 146.233 198.302 146.942 198.368 147.321Z" fill="#FFDE3B"/>
<path d="M196.974 144.551C197.062 145.062 197.502 145.424 198.003 145.424C198.058 145.424 198.119 145.419 198.179 145.408C198.746 145.315 199.131 144.776 199.038 144.205C199.038 144.194 199.032 144.155 199.032 144.122C199.236 143.71 199.148 143.199 198.79 142.88C198.361 142.496 197.695 142.534 197.315 142.968C196.875 143.463 196.913 144.172 196.974 144.551Z" fill="#FFDE3B"/>
<path d="M194.897 150.788C194.985 151.299 195.425 151.661 195.926 151.661C195.981 151.661 196.042 151.656 196.102 151.645C196.669 151.552 197.054 151.013 196.961 150.442C196.961 150.431 196.955 150.392 196.955 150.359C197.159 149.947 197.071 149.436 196.713 149.117C196.284 148.733 195.618 148.771 195.238 149.205C194.792 149.7 194.836 150.409 194.897 150.788Z" fill="#FFDE3B"/>
<path d="M192.354 147.337L192.288 147.188C192.046 146.661 191.424 146.43 190.902 146.672C190.379 146.914 190.142 147.529 190.384 148.056L190.456 148.216C190.593 148.529 190.907 149.265 191.793 149.265C192.371 149.265 192.839 148.798 192.839 148.221C192.844 147.848 192.646 147.518 192.354 147.337Z" fill="#FFDE3B"/>
<path d="M187.863 144.65C187.588 144.831 187.384 145.216 187.362 145.54C187.334 145.98 187.527 146.436 187.868 146.727C188.066 146.897 188.309 146.98 188.545 146.98C188.842 146.98 189.134 146.853 189.338 146.617C189.618 146.288 189.662 145.837 189.481 145.469C189.47 145.287 189.415 145.106 189.305 144.947C188.991 144.463 188.347 144.331 187.863 144.65Z" fill="#FFDE3B"/>
<path d="M188.069 143.337C188.284 143.337 188.504 143.271 188.691 143.133C189.016 142.892 189.159 142.507 189.104 142.133C189.165 141.732 188.988 141.315 188.625 141.089C188.135 140.782 187.492 140.936 187.183 141.419C186.848 141.958 186.963 142.556 187.227 142.914C187.431 143.194 187.75 143.337 188.069 143.337Z" fill="#FFDE3B"/>
<path d="M193.342 144.062C192.765 144.062 192.297 144.529 192.297 145.106V145.315C192.297 145.892 192.765 146.359 193.342 146.359C193.92 146.359 194.388 145.892 194.388 145.315V145.106C194.388 144.529 193.92 144.062 193.342 144.062Z" fill="#FFDE3B"/>
<path d="M191.034 144.359C191.612 144.359 192.079 143.892 192.079 143.315V142.93C192.079 142.353 191.612 141.886 191.034 141.886C190.456 141.886 189.988 142.353 189.988 142.93V143.315C189.988 143.892 190.456 144.359 191.034 144.359Z" fill="#FFDE3B"/>
<path d="M195.669 142.133V141.842C195.669 141.265 195.202 140.798 194.624 140.798C194.046 140.798 193.578 141.265 193.578 141.842V142.133C193.578 142.71 194.046 143.177 194.624 143.177C195.202 143.177 195.669 142.71 195.669 142.133Z" fill="#FFDE3B"/>
<path d="M197.46 141.43H197.702C198.28 141.43 198.747 140.963 198.747 140.386C198.747 139.809 198.28 139.342 197.702 139.342H197.46C196.882 139.342 196.414 139.809 196.414 140.386C196.414 140.963 196.882 141.43 197.46 141.43Z" fill="#FFDE3B"/>
<path d="M203.542 143.364C203.047 143.661 202.887 144.303 203.185 144.798L203.383 145.122C203.581 145.446 203.928 145.628 204.28 145.628C204.461 145.628 204.648 145.578 204.819 145.479C205.314 145.183 205.474 144.54 205.177 144.045L204.979 143.721C204.681 143.226 204.038 143.067 203.542 143.364Z" fill="#FFDE3B"/>
<path d="M203.926 142.671C204.136 142.671 204.35 142.611 204.532 142.479L204.686 142.369C205.154 142.034 205.264 141.38 204.928 140.913C204.592 140.446 203.937 140.336 203.47 140.671L203.316 140.781C202.848 141.116 202.738 141.77 203.073 142.237C203.283 142.518 203.602 142.671 203.926 142.671Z" fill="#FFDE3B"/>
<path d="M206.67 143.062C206.901 143.062 207.138 142.985 207.33 142.826L207.677 142.545C208.123 142.183 208.194 141.523 207.831 141.078C207.468 140.628 206.808 140.562 206.362 140.924L206.015 141.205C205.569 141.567 205.498 142.227 205.861 142.672C206.065 142.93 206.367 143.062 206.67 143.062Z" fill="#FFDE3B"/>
<path d="M207.303 143.375C206.726 143.375 206.258 143.842 206.258 144.419V144.683C206.258 145.26 206.726 145.727 207.303 145.727C207.881 145.727 208.349 145.26 208.349 144.683V144.419C208.349 143.848 207.881 143.375 207.303 143.375Z" fill="#FFDE3B"/>
<path fill-rule="evenodd" clip-rule="evenodd" d="M556.499 127.495C546.065 128.614 537.798 136.174 535.743 146.476C535.269 148.848 535.268 152.838 535.74 155.202C537.653 164.789 544.825 171.96 554.414 173.877C555.771 174.148 556.547 174.206 558.843 174.206C561.759 174.207 562.836 174.082 565.217 173.468C569.141 172.455 572.136 170.761 574.891 167.998C578.656 164.221 580.708 159.441 581.2 153.305C581.341 151.551 581.215 148.791 580.948 147.806L580.86 147.476H569.815H558.77V151.505V155.534H565.439H572.108L572.013 155.937C571.016 160.13 567.856 163.553 563.752 164.887C556.66 167.192 549.182 164.138 545.876 157.586C541.835 149.576 545.783 139.678 554.163 136.811C556.63 135.967 559.871 135.834 562.36 136.476C563.871 136.865 565.988 137.911 567.145 138.839C567.646 139.241 568.105 139.553 568.164 139.531C568.353 139.462 574.374 133.643 574.374 133.53C574.374 133.362 572.73 132.012 571.616 131.265C569.173 129.626 566.265 128.42 563.334 127.83C561.948 127.551 557.848 127.35 556.499 127.495ZM596.717 144.836V148.203L593.311 148.243L589.904 148.282L589.865 151.688L589.826 155.095H593.271H596.717V158.541V161.986L600.124 161.947L603.53 161.908L603.569 158.501L603.609 155.095H606.976H610.343V151.652V148.209H606.973H603.603V144.839V141.469H600.16H596.717V144.836Z" fill="#8A86B2"/>
<path fill-rule="evenodd" clip-rule="evenodd" d="M447.465 55.0535C443.893 55.6445 440.896 57.712 439.08 60.8368C438.65 61.576 437.933 63.2986 437.933 63.5923C437.933 63.855 437.772 63.8533 437.426 63.587C436.472 62.8546 434.755 62.3742 433.513 62.4919C432.059 62.6295 430.888 63.2021 429.82 64.2988C429.068 65.0706 428.591 65.9124 428.329 66.9288C428.176 67.5192 428.141 69.0532 428.266 69.6353C428.328 69.9246 428.3 69.9552 427.582 70.3803C426.57 70.9796 425.184 72.4036 424.606 73.4369C422.623 76.9803 423.202 81.1904 426.053 83.9756C427.148 85.0451 428.188 85.6585 429.741 86.1504L430.616 86.4278H445.3H459.984L460.86 86.1504C464.366 85.0397 466.707 82.2551 467.103 78.7263C467.549 74.7479 465.178 70.9676 461.396 69.6285C460.712 69.3864 460.623 69.3272 460.668 69.1422C460.839 68.4369 460.948 67 460.894 66.1654C460.815 64.9387 460.682 64.2214 460.326 63.0993C459.053 59.0895 455.698 56.0622 451.521 55.1548C450.489 54.9305 448.507 54.881 447.465 55.0535ZM455.116 64.3964L455.454 64.7383L455.453 72.9687C455.452 79.3464 455.424 81.2556 455.327 81.4504C455.104 81.9016 454.628 82.0534 453.435 82.0535C452.264 82.0537 451.806 81.9297 451.535 81.5392C451.388 81.3273 451.373 80.5233 451.376 73.0569C451.379 66.4037 451.405 64.7623 451.512 64.5684C451.75 64.1347 452.026 64.0619 453.449 64.0581L454.778 64.0546L455.116 64.3964ZM448.783 68.5286C449.411 68.8563 449.382 68.5335 449.382 75.2161C449.382 81.9696 449.416 81.6219 448.725 81.9136C448.267 82.1067 446.211 82.1048 445.752 81.9109C445.083 81.6288 445.101 81.8118 445.101 75.2161C445.101 68.6482 445.086 68.8084 445.73 68.5256C446.188 68.3243 448.396 68.3265 448.783 68.5286ZM442.835 70.9695L443.16 71.2982L443.191 75.8966C443.208 78.4259 443.194 80.6903 443.159 80.9288C443.12 81.1979 442.988 81.4843 442.813 81.683L442.529 82.0035H441.03H439.53L439.205 81.6748L438.879 81.3461L438.851 76.4671C438.821 71.1259 438.82 71.1362 439.402 70.763C439.635 70.6139 439.886 70.5918 441.093 70.6143L442.509 70.6409L442.835 70.9695ZM436.563 72.3922L436.888 72.6855L436.916 76.916C436.947 81.6325 436.947 81.6323 436.287 81.9109C435.828 82.1048 433.772 82.1067 433.314 81.9136C432.639 81.6286 432.657 81.7627 432.657 77.0976C432.657 74.1968 432.692 72.8219 432.768 72.6704C433.031 72.1521 433.202 72.1035 434.771 72.1011L436.238 72.0989L436.563 72.3922Z" fill="#8A86B2"/>
<path d="M425.391 224.953L434.463 215.795C434.763 215.491 434.931 215.082 434.931 214.649C434.931 213.745 434.202 213.012 433.305 213.012C432.867 213.012 432.458 213.183 432.15 213.5L423.083 222.617L413.981 213.483C413.674 213.179 413.267 213.012 412.833 213.012C411.934 213.012 411.207 213.745 411.207 214.646C411.207 215.086 411.382 215.503 411.695 215.812L420.766 224.939L411.699 234.073C411.382 234.392 411.207 234.806 411.207 235.246C411.207 236.15 411.936 236.883 412.833 236.883C413.267 236.883 413.674 236.716 413.981 236.407L423.072 227.268L432.126 236.371C432.448 236.704 432.86 236.883 433.305 236.883C434.2 236.883 434.929 236.15 434.929 235.246C434.929 234.811 434.763 234.402 434.456 234.092L425.389 224.944L425.391 224.953ZM479.319 224.951C479.319 226.592 480.645 227.924 482.278 227.924C483.902 227.924 485.228 226.592 485.228 224.951C485.228 223.31 483.902 221.978 482.276 221.978C480.65 221.978 479.326 223.31 479.326 224.951H479.319ZM473.721 224.951C473.721 220.205 477.556 216.34 482.276 216.34C486.987 216.34 490.829 220.205 490.829 224.951C490.829 229.697 486.989 233.562 482.276 233.562C477.558 233.562 473.721 229.701 473.721 224.951ZM470.355 224.951C470.355 231.564 475.705 236.949 482.276 236.949C488.847 236.949 494.197 231.569 494.197 224.953C494.197 218.341 488.847 212.955 482.276 212.955C475.702 212.955 470.355 218.338 470.355 224.953V224.951ZM469.51 213.16H469.012C467.509 213.16 466.06 213.635 464.851 214.575C464.685 213.847 464.032 213.29 463.255 213.29C462.363 213.29 461.646 214.016 461.646 214.918L461.65 235.125C461.65 236.022 462.384 236.752 463.272 236.752C464.167 236.752 464.896 236.022 464.898 235.12V222.694C464.898 218.555 465.277 216.88 468.799 216.438C469.131 216.397 469.481 216.404 469.486 216.404C470.447 216.369 471.133 215.7 471.133 214.799C471.133 213.895 470.4 213.162 469.5 213.162L469.51 213.16ZM438.295 222.979C438.295 222.931 438.3 222.884 438.302 222.841C439.244 219.083 442.625 216.307 446.647 216.307C450.718 216.307 454.127 219.147 455.027 222.972H438.293L438.295 222.979ZM458.353 222.67C457.652 219.332 455.836 216.59 453.074 214.83C449.031 212.246 443.695 212.389 439.794 215.186C436.607 217.463 434.768 221.193 434.768 225.034C434.768 225.998 434.886 226.971 435.123 227.929C436.326 232.687 440.393 236.293 445.241 236.89C446.68 237.066 448.081 236.985 449.525 236.604C450.775 236.295 451.98 235.791 453.09 235.072C454.243 234.328 455.207 233.343 456.144 232.166C456.158 232.142 456.177 232.125 456.196 232.101C456.845 231.293 456.724 230.137 456.014 229.589C455.413 229.126 454.404 228.938 453.614 229.961C453.443 230.208 453.251 230.46 453.045 230.71C452.413 231.412 451.63 232.09 450.692 232.618C449.495 233.26 448.136 233.624 446.692 233.633C441.962 233.579 439.434 230.256 438.532 227.886C438.376 227.442 438.255 226.982 438.17 226.507L438.146 226.257H455.119C457.444 226.205 458.694 224.551 458.348 222.665L458.353 222.67Z" fill="#8A86B2"/>
</svg>
