<svg width="200" height="193" viewBox="0 0 200 193" fill="none" xmlns="http://www.w3.org/2000/svg">
<path opacity="0.1" d="M185.462 65.0096C184.055 63.164 182.508 61.3928 180.827 59.7064C167.106 45.9596 149.167 40.1417 128.675 36.2446C107.509 32.2198 82.7257 30.9691 62.4033 38.2243C57.6205 39.9517 53.0752 42.2319 49.4797 45.3412C35.8819 57.0565 31.2179 76.6765 16.0768 92.1853C0.935622 107.694 -6.45051 127.013 7.14302 145.352C12.8967 153.118 20.232 159.516 28.9113 165.148C39.5962 172.058 48.814 181.406 61.1652 186.813C74.1439 192.493 91.4305 194.472 105.796 191.871C122.183 188.903 131.796 177.102 144.304 169.069C154.166 162.726 165.966 158.573 175.629 152.03C190.435 142.011 201.663 125.891 199.797 109.919C197.965 94.4136 195.608 78.3003 185.462 65.0096Z" fill="#FAFF00"/>
<path d="M86.8329 1.4H89.5329V14H86.8329V8.924H81.1809V14H78.4809V1.4H81.1809V6.476H86.8329V1.4ZM92.628 13.046C91.704 12.242 91.242 11.12 91.242 9.68C91.242 8.24 91.704 7.118 92.628 6.314C93.552 5.51 94.68 5.108 96.012 5.108C97.356 5.108 98.484 5.51 99.396 6.314C100.32 7.118 100.782 8.24 100.782 9.68C100.782 11.12 100.32 12.242 99.396 13.046C98.484 13.85 97.356 14.252 96.012 14.252C94.68 14.252 93.552 13.85 92.628 13.046ZM97.65 11.372C98.046 10.928 98.244 10.364 98.244 9.68C98.244 8.996 98.046 8.438 97.65 8.006C97.254 7.562 96.708 7.34 96.012 7.34C95.316 7.34 94.77 7.562 94.374 8.006C93.99 8.438 93.798 8.996 93.798 9.68C93.798 10.364 93.99 10.928 94.374 11.372C94.77 11.804 95.316 12.02 96.012 12.02C96.708 12.02 97.254 11.804 97.65 11.372ZM102.94 2.84L105.424 2.246V5.36H108.16V7.466H105.424V10.85C105.424 11.714 105.886 12.146 106.81 12.146C107.362 12.146 107.884 12.05 108.376 11.858V13.874C107.656 14.126 106.882 14.252 106.054 14.252C105.142 14.252 104.392 14.018 103.804 13.55C103.228 13.082 102.94 12.344 102.94 11.336V7.466H101.482V5.36H102.94V2.84ZM109.33 9.68C109.33 8.9 109.468 8.21 109.744 7.61C110.02 6.998 110.38 6.518 110.824 6.17C111.28 5.822 111.754 5.558 112.246 5.378C112.75 5.198 113.26 5.108 113.776 5.108C114.64 5.108 115.384 5.27 116.008 5.594C116.644 5.918 117.112 6.338 117.412 6.854C117.712 7.358 117.916 7.934 118.024 8.582C118.144 9.218 118.114 9.854 117.934 10.49H111.85C111.982 11.09 112.33 11.54 112.894 11.84C113.458 12.128 114.124 12.272 114.892 12.272C115.84 12.272 116.71 12.098 117.502 11.75V13.712C116.65 14.072 115.594 14.252 114.334 14.252C112.894 14.252 111.7 13.85 110.752 13.046C109.804 12.242 109.33 11.12 109.33 9.68ZM115.684 8.87C115.744 8.474 115.63 8.066 115.342 7.646C115.054 7.226 114.562 7.016 113.866 7.016C113.314 7.016 112.84 7.184 112.444 7.52C112.048 7.844 111.844 8.294 111.832 8.87H115.684ZM119.696 0.86H122.198V14H119.696V0.86ZM123.975 7.772C123.975 6.848 124.317 6.176 125.001 5.756C125.685 5.324 126.543 5.108 127.575 5.108C128.691 5.108 129.753 5.354 130.761 5.846V7.898C130.389 7.646 129.915 7.436 129.339 7.268C128.775 7.1 128.241 7.016 127.737 7.016C126.933 7.016 126.531 7.244 126.531 7.7C126.531 7.964 126.699 8.18 127.035 8.348C127.371 8.516 127.779 8.666 128.259 8.798C128.739 8.918 129.213 9.068 129.681 9.248C130.161 9.428 130.569 9.716 130.905 10.112C131.241 10.508 131.409 11 131.409 11.588C131.409 12.236 131.217 12.764 130.833 13.172C130.461 13.58 129.993 13.862 129.429 14.018C128.877 14.174 128.229 14.252 127.485 14.252C126.105 14.252 124.959 13.982 124.047 13.442V11.372C124.983 11.984 126.081 12.29 127.341 12.29C128.349 12.29 128.853 12.074 128.853 11.642C128.853 11.39 128.685 11.18 128.349 11.012C128.013 10.844 127.605 10.694 127.125 10.562C126.657 10.43 126.183 10.274 125.703 10.094C125.223 9.902 124.815 9.614 124.479 9.23C124.143 8.834 123.975 8.348 123.975 7.772Z" fill="#1A1466"/>
<path d="M76.2044 155.016C77.2818 154.28 78.4871 153.912 79.8204 153.912C80.9618 153.912 81.8844 154.179 82.5884 154.712C83.2924 155.235 83.6444 155.987 83.6444 156.968C83.6444 157.789 83.3724 158.493 82.8284 159.08C82.2951 159.656 81.5644 160.221 80.6364 160.776C80.5618 160.819 80.4231 160.899 80.2204 161.016C80.0284 161.133 79.8898 161.219 79.8044 161.272C79.7298 161.315 79.6071 161.389 79.4364 161.496C79.2658 161.603 79.1378 161.683 79.0524 161.736C78.9778 161.789 78.8711 161.869 78.7324 161.976C78.6044 162.072 78.5084 162.157 78.4444 162.232C78.3804 162.296 78.3058 162.381 78.2204 162.488C78.1351 162.584 78.0711 162.675 78.0284 162.76C77.9964 162.845 77.9644 162.941 77.9324 163.048C77.9004 163.155 77.8844 163.261 77.8844 163.368L83.7244 163.352V165H75.8364V164.168C75.8364 163.571 75.9164 163.043 76.0764 162.584C76.2471 162.115 76.5404 161.688 76.9564 161.304C77.3831 160.909 77.7138 160.632 77.9484 160.472C78.1831 160.301 78.5991 160.04 79.1964 159.688C79.2498 159.645 79.2924 159.613 79.3244 159.592C79.3671 159.571 79.4098 159.549 79.4524 159.528C80.3484 159.005 80.9244 158.627 81.1804 158.392C81.6071 157.976 81.8204 157.512 81.8204 157C81.8204 156.531 81.6284 156.173 81.2444 155.928C80.8711 155.683 80.3431 155.56 79.6604 155.56C78.4764 155.56 77.3244 155.965 76.2044 156.776V155.016ZM86.5078 163.656C85.6865 162.611 85.2758 161.245 85.2758 159.56C85.2758 157.875 85.6865 156.515 86.5078 155.48C87.3291 154.435 88.5451 153.912 90.1558 153.912C91.7665 153.912 92.9825 154.435 93.8038 155.48C94.6251 156.515 95.0358 157.875 95.0358 159.56C95.0358 161.245 94.6251 162.611 93.8038 163.656C92.9825 164.691 91.7665 165.208 90.1558 165.208C88.5451 165.208 87.3291 164.691 86.5078 163.656ZM90.1558 163.544C92.1825 163.544 93.1958 162.216 93.1958 159.56C93.1958 156.904 92.1825 155.576 90.1558 155.576C88.1291 155.576 87.1158 156.904 87.1158 159.56C87.1158 162.216 88.1291 163.544 90.1558 163.544ZM100.525 165.96H99.1007L105.645 152.84H107.069L100.525 165.96ZM101.021 154.296C101.554 154.755 101.821 155.395 101.821 156.216C101.821 157.037 101.554 157.683 101.021 158.152C100.498 158.611 99.8527 158.84 99.0847 158.84C98.306 158.84 97.65 158.611 97.1167 158.152C96.5834 157.683 96.3167 157.037 96.3167 156.216C96.3167 155.395 96.5834 154.755 97.1167 154.296C97.65 153.827 98.306 153.592 99.0847 153.592C99.8527 153.592 100.498 153.827 101.021 154.296ZM98.1087 155.32C97.8954 155.555 97.7887 155.853 97.7887 156.216C97.7887 156.579 97.8954 156.883 98.1087 157.128C98.3327 157.363 98.6527 157.48 99.0687 157.48C99.474 157.48 99.7834 157.363 99.9967 157.128C100.21 156.883 100.317 156.579 100.317 156.216C100.317 155.853 100.21 155.555 99.9967 155.32C99.7834 155.075 99.474 154.952 99.0687 154.952C98.6527 154.952 98.3327 155.075 98.1087 155.32ZM109.037 160.664C109.57 161.123 109.837 161.763 109.837 162.584C109.837 163.405 109.57 164.051 109.037 164.52C108.514 164.979 107.869 165.208 107.101 165.208C106.322 165.208 105.666 164.979 105.133 164.52C104.599 164.051 104.333 163.405 104.333 162.584C104.333 161.763 104.599 161.123 105.133 160.664C105.666 160.195 106.322 159.96 107.101 159.96C107.869 159.96 108.514 160.195 109.037 160.664ZM106.141 161.688C105.927 161.923 105.821 162.221 105.821 162.584C105.821 162.947 105.927 163.251 106.141 163.496C106.365 163.731 106.685 163.848 107.101 163.848C107.506 163.848 107.815 163.731 108.029 163.496C108.242 163.251 108.349 162.947 108.349 162.584C108.349 162.221 108.242 161.923 108.029 161.688C107.815 161.443 107.506 161.32 107.101 161.32C106.685 161.32 106.365 161.443 106.141 161.688ZM115.941 164.136C115.13 163.421 114.725 162.429 114.725 161.16C114.725 159.891 115.13 158.899 115.941 158.184C116.762 157.469 117.743 157.112 118.885 157.112C120.037 157.112 121.018 157.469 121.829 158.184C122.639 158.899 123.045 159.891 123.045 161.16C123.045 162.429 122.639 163.421 121.829 164.136C121.018 164.851 120.037 165.208 118.885 165.208C117.743 165.208 116.762 164.851 115.941 164.136ZM120.629 162.968C121.077 162.509 121.301 161.907 121.301 161.16C121.301 160.413 121.077 159.816 120.629 159.368C120.181 158.909 119.599 158.68 118.885 158.68C118.159 158.68 117.573 158.909 117.125 159.368C116.677 159.816 116.453 160.413 116.453 161.16C116.453 161.907 116.677 162.509 117.125 162.968C117.573 163.416 118.159 163.64 118.885 163.64C119.599 163.64 120.181 163.416 120.629 162.968ZM135.092 155.224C134.644 155 134.148 154.888 133.604 154.888C133.124 154.888 132.74 154.989 132.452 155.192C132.174 155.395 132.036 155.773 132.036 156.328V157.32H134.676V158.824H132.036V165H130.324V158.824H126.964V165H125.252V158.824H123.86V157.32H125.252V156.648C125.252 155.709 125.545 154.995 126.132 154.504C126.729 154.003 127.492 153.752 128.42 153.752C129.262 153.752 130.084 153.955 130.884 154.36C131.385 153.709 132.153 153.384 133.188 153.384C133.86 153.384 134.494 153.496 135.092 153.72V155.224ZM126.964 157.32H130.34V156.36C130.34 156.179 130.35 155.949 130.372 155.672C129.902 155.373 129.332 155.224 128.66 155.224C128.137 155.224 127.721 155.347 127.412 155.592C127.113 155.827 126.964 156.179 126.964 156.648V157.32Z" fill="#1A1466"/>
<g opacity="0.7">
<path d="M144.953 135.352C144.757 134.588 144.152 134.308 143.435 134.3C141.309 134.279 139.182 134.212 137.064 134.32C135.855 134.383 135.655 133.949 135.655 132.859C135.688 119.033 135.68 105.211 135.676 91.3851C135.676 89.2757 135.388 88.9833 133.324 88.9833C127.866 88.9833 122.408 88.9541 116.951 89.0084C115.908 89.0167 115.646 88.7285 115.65 87.6968C115.691 78.2442 115.675 68.7917 115.675 59.3391C115.675 57.284 115.404 57.0084 113.398 57.0084C102.774 57 92.1504 57 81.5266 57C78.3036 57 78.3036 57 78.3036 60.2706C78.3036 84.5056 78.2994 108.741 78.3244 132.975C78.3244 133.982 78.1159 134.337 77.036 134.312C73.7463 134.241 70.4524 134.283 67.1627 134.291C66.7499 134.291 66.3246 134.312 65.9327 134.421C65.2948 134.592 64.9654 135.064 65.0029 135.728C65.0404 136.392 65.4407 136.81 66.0703 136.944C66.4705 137.027 66.9 136.99 67.317 136.99C79.8588 136.99 92.3964 136.99 104.938 136.99C117.605 136.99 130.268 136.99 142.935 136.985C143.385 136.985 143.856 137.073 144.277 136.818C144.832 136.484 145.12 136 144.953 135.352ZM91.9712 134.308C90.8496 134.237 89.7196 134.258 88.598 134.304C87.8934 134.333 87.6516 134.095 87.6682 133.385C87.7099 131.597 87.6807 129.805 87.6807 128.013C87.6807 126.263 87.6641 124.517 87.6849 122.767C87.7016 121.439 88.106 121.038 89.3777 121C92.9718 120.883 92.9885 120.9 92.9885 124.5C92.9885 127.416 92.9635 130.331 93.0052 133.247C93.0177 134.036 92.8217 134.362 91.9712 134.308ZM98.3171 91.2389C98.313 105.111 98.3171 118.978 98.3171 132.85C98.3171 134.103 97.0162 134.868 95.9322 134.249C95.5111 134.007 95.6778 133.581 95.6778 133.234C95.6653 129.818 95.6778 126.405 95.6695 122.988C95.6612 119.868 94.0976 118.423 90.9788 118.272C86.851 118.076 84.7079 119.404 84.9622 124.187C85.1207 127.22 84.9706 130.269 85.0081 133.305C85.0164 134.036 84.8663 134.304 84.0575 134.312C80.9971 134.337 80.9971 134.375 80.9971 131.284C80.9971 119.83 80.9971 108.373 80.9971 96.9196C80.9971 84.965 81.0137 73.0105 80.972 61.0559C80.9679 59.9782 81.193 59.6608 82.3271 59.6649C92.1213 59.7151 101.915 59.7067 111.71 59.6733C112.727 59.6691 113.035 59.9155 113.031 60.9723C112.99 69.8861 112.99 78.7998 113.031 87.7135C113.035 88.7786 112.723 89.0251 111.705 89.0084C107.999 88.9499 104.288 88.9833 100.577 88.9875C98.6507 88.9875 98.3171 89.3133 98.3171 91.2389ZM131.748 134.312C121.912 134.283 112.081 134.275 102.245 134.32C101.157 134.325 100.965 133.974 100.973 132.98C101.015 126.317 100.994 119.651 100.994 112.989C100.994 106.284 101.011 99.5762 100.973 92.8721C100.969 91.974 101.14 91.6733 102.116 91.6775C112.035 91.7151 121.95 91.7151 131.869 91.6775C132.832 91.6733 133.024 91.9573 133.024 92.8679C132.995 106.28 132.991 119.693 133.028 133.101C133.028 134.137 132.682 134.316 131.748 134.312Z" fill="#1A1466"/>
<path d="M86.5383 72.9979C87.785 73.0063 89.0316 72.9979 90.2783 72.9979C91.525 72.9979 92.7717 72.9896 94.0184 73.0021C95.0983 73.0105 95.6486 72.4758 95.657 71.4148C95.6695 68.9212 95.6653 66.4317 95.6611 63.938C95.6611 62.8645 95.0816 62.3173 94.035 62.3132C91.5417 62.2923 89.0483 62.2881 86.555 62.3173C85.5876 62.3299 84.9914 62.8269 84.9872 63.8628C84.9831 66.3983 84.9789 68.9295 84.9872 71.465C84.9956 72.4716 85.5293 72.9937 86.5383 72.9979ZM90.3534 65.0157C92.9885 65.0157 92.9885 65.0157 92.9885 67.6848C92.9885 70.3246 92.9885 70.3246 90.3158 70.3246C87.6766 70.3246 87.6766 70.3246 87.6766 67.6514C87.6807 65.0157 87.6807 65.0157 90.3534 65.0157Z" fill="#1A1466"/>
<path d="M93.9566 102.295C91.5466 102.287 89.1367 102.275 86.7267 102.3C85.4634 102.312 85.0005 102.792 84.9922 104.05C84.9714 106.46 84.9714 108.87 84.9922 111.276C85.0005 112.529 85.4634 112.963 86.7434 112.984C87.9484 113.001 89.1533 112.989 90.3583 112.989C91.5633 112.989 92.7683 112.976 93.9733 112.993C95.1199 113.009 95.6619 112.446 95.6619 111.326C95.6661 108.874 95.6619 106.422 95.6619 103.975C95.6661 102.834 95.0615 102.3 93.9566 102.295ZM90.2958 110.315C87.6815 110.315 87.6815 110.315 87.6815 107.742C87.6815 105.01 87.6815 105.01 90.3833 105.01C92.9935 105.01 92.9934 105.01 92.9934 107.579C92.9934 110.315 92.9934 110.315 90.2958 110.315Z" fill="#1A1466"/>
<path d="M100.023 73.0104C102.442 72.9854 104.856 73.0146 107.274 72.9979C108.529 72.9896 108.975 72.5217 108.996 71.2436C109.017 70.0782 109 68.9128 109 67.7432C109 66.4943 108.996 65.2454 109 63.9965C109.009 62.852 108.4 62.3131 107.299 62.309C104.881 62.2964 102.467 62.3048 100.048 62.3048C98.9309 62.3048 98.3263 62.8436 98.318 63.9714C98.3055 66.4275 98.3055 68.8877 98.318 71.3438C98.3305 72.4466 98.8642 73.023 100.023 73.0104ZM103.705 65.0157C106.303 65.0157 106.303 65.0157 106.303 67.5971C106.303 70.3205 106.303 70.3205 103.601 70.3205C100.999 70.3205 100.999 70.3205 100.999 67.7349C100.995 65.0157 100.995 65.0157 103.705 65.0157Z" fill="#1A1466"/>
<path d="M94.0928 88.9916C91.5912 88.9749 89.0936 88.9749 86.5919 88.9874C85.5371 88.9916 84.9742 89.5305 84.9825 90.6165C84.9867 91.8654 84.9825 93.1143 84.9825 94.3632C84.9825 95.6122 84.9825 96.8611 84.9825 98.11C84.9825 99.0707 85.4954 99.6388 86.4168 99.6555C88.9977 99.7015 91.5828 99.6931 94.1637 99.6639C95.0894 99.6513 95.6439 99.1167 95.6481 98.1643C95.6647 95.6247 95.6647 93.0851 95.6522 90.5455C95.6522 89.5305 95.0935 89 94.0928 88.9916ZM90.4237 96.9906C87.6802 96.9906 87.6802 96.9906 87.6802 94.2171C87.6802 91.6983 87.6802 91.6983 90.186 91.6983C90.2277 91.6983 90.2694 91.6983 90.3111 91.6983C92.9963 91.6983 92.9963 91.6983 92.9963 94.4134C92.9921 96.9906 92.9921 96.9906 90.4237 96.9906Z" fill="#1A1466"/>
<path d="M94.0094 75.6796C91.5536 75.6921 89.0936 75.6921 86.6377 75.6796C85.487 75.6754 84.9783 76.2393 84.9824 77.3755C84.9991 79.7898 84.9741 82.2041 84.995 84.6184C85.0075 85.8757 85.4619 86.3017 86.7586 86.3268C87.9261 86.3477 89.0894 86.3309 90.2569 86.3309C91.466 86.3309 92.6752 86.3477 93.8801 86.3268C95.1977 86.3017 95.6438 85.8965 95.6563 84.6225C95.6855 82.2082 95.6605 79.7939 95.6647 77.3796C95.6689 76.2644 95.1685 75.6754 94.0094 75.6796ZM90.4111 83.6618C87.6801 83.6618 87.6801 83.6618 87.6801 80.9384C87.6801 78.3195 87.6801 78.3195 90.2694 78.3195C92.992 78.3195 92.992 78.3195 92.992 81.047C92.992 83.6618 92.992 83.6618 90.4111 83.6618Z" fill="#1A1466"/>
<path d="M108.996 84.564C109.017 83.3986 109 82.2332 109 81.0679C109 79.8607 109.017 78.6536 108.996 77.4464C108.975 76.1348 108.575 75.7004 107.291 75.6879C104.877 75.6628 102.462 75.7004 100.044 75.6712C98.8975 75.6586 98.3263 76.1891 98.318 77.3086C98.3055 79.7646 98.3055 82.2207 98.318 84.6726C98.3221 85.7879 98.885 86.3434 100.027 86.3351C102.442 86.3184 104.856 86.3476 107.274 86.3225C108.537 86.3142 108.975 85.8464 108.996 84.564ZM103.642 83.6618C100.995 83.6618 100.995 83.6618 100.995 81.0177C100.995 78.3194 100.995 78.3194 103.717 78.3194C106.303 78.3194 106.303 78.3194 106.303 81.0303C106.303 83.6618 106.303 83.6618 103.642 83.6618Z" fill="#1A1466"/>
<path d="M104.988 99.5553C104.988 100.804 105 102.053 104.984 103.302C104.967 104.447 105.53 105.002 106.655 105.002C109.115 105.006 111.571 105.01 114.031 105.002C115.09 104.998 115.666 104.467 115.666 103.39C115.674 100.934 115.662 98.4776 115.67 96.0174C115.674 94.8812 115.103 94.3131 113.99 94.309C111.53 94.2964 109.074 94.2923 106.614 94.3131C105.496 94.3215 104.954 94.9188 104.979 96.055C105.009 97.2203 104.988 98.3899 104.988 99.5553ZM110.25 96.999C112.997 96.999 112.997 96.999 112.997 99.7725C112.997 102.295 112.997 102.295 110.366 102.295C107.685 102.295 107.685 102.295 107.685 99.5803C107.685 96.999 107.685 96.999 110.25 96.999Z" fill="#1A1466"/>
<path d="M113.99 120.983C111.539 120.996 109.087 120.992 106.635 120.987C105.489 120.983 104.976 121.568 104.988 122.688C105.001 123.891 104.993 125.098 104.993 126.301C104.993 127.504 104.976 128.711 104.997 129.914C105.018 131.179 105.464 131.66 106.723 131.676C109.133 131.706 111.543 131.689 113.953 131.685C115.049 131.681 115.671 131.163 115.671 130.018C115.671 127.566 115.671 125.114 115.671 122.667C115.667 121.547 115.141 120.975 113.99 120.983ZM110.205 128.97C107.686 128.97 107.686 128.97 107.686 126.43C107.686 123.661 107.686 123.661 110.48 123.661C112.998 123.661 112.998 123.661 112.998 126.205C112.998 128.97 112.998 128.97 110.205 128.97Z" fill="#1A1466"/>
<path d="M127.211 94.3132C124.838 94.2839 122.462 94.309 120.089 94.3048C118.905 94.3006 118.321 94.8771 118.321 96.0591C118.326 98.4735 118.296 100.888 118.334 103.302C118.355 104.572 118.818 104.977 120.127 105.002C121.294 105.023 122.457 105.006 123.625 105.006C124.834 105.006 126.039 105.023 127.248 105.002C128.516 104.977 128.991 104.518 129.004 103.264C129.024 100.892 129.02 98.5194 129.004 96.1469C128.991 94.7977 128.545 94.3299 127.211 94.3132ZM123.625 102.291C120.998 102.291 120.998 102.291 120.998 99.643C120.998 96.999 120.998 96.999 123.625 96.999C126.306 96.999 126.306 96.999 126.306 99.7098C126.306 102.291 126.306 102.291 123.625 102.291Z" fill="#1A1466"/>
<path d="M127.378 120.988C126.127 120.992 124.876 120.988 123.63 120.988C122.379 120.988 121.128 120.992 119.881 120.988C118.91 120.983 118.368 121.497 118.355 122.424C118.314 125.006 118.322 127.587 118.347 130.169C118.355 131.104 118.906 131.656 119.844 131.668C122.387 131.697 124.926 131.702 127.47 131.668C128.446 131.656 129.013 131.108 129.013 130.085C129.017 127.587 129.021 125.085 129.013 122.587C129 121.526 128.454 120.983 127.378 120.988ZM123.576 128.97C120.995 128.97 120.995 128.97 120.995 126.367C120.995 123.665 120.995 123.665 123.73 123.665C126.302 123.665 126.302 123.665 126.302 126.271C126.307 128.97 126.307 128.97 123.576 128.97Z" fill="#1A1466"/>
<path d="M127.378 107.659C124.88 107.655 122.383 107.659 119.885 107.659C118.931 107.659 118.363 108.156 118.351 109.091C118.313 111.673 118.313 114.25 118.347 116.831C118.359 117.834 118.939 118.323 119.96 118.31C121.17 118.293 122.375 118.306 123.584 118.306C124.876 118.306 126.165 118.306 127.457 118.306C128.479 118.302 129.004 117.775 129.008 116.765C129.021 114.267 129.017 111.769 129.012 109.275C129 108.198 128.441 107.663 127.378 107.659ZM123.617 115.67C120.999 115.67 120.999 115.67 120.999 112.997C120.999 110.328 120.999 110.328 123.625 110.328C126.306 110.328 126.306 110.328 126.306 113.064C126.306 115.67 126.306 115.67 123.617 115.67Z" fill="#1A1466"/>
<path d="M113.932 107.663C111.518 107.638 109.099 107.659 106.685 107.654C105.568 107.654 104.98 108.164 104.988 109.317C104.997 111.773 104.993 114.229 104.988 116.685C104.988 117.763 105.51 118.302 106.589 118.302C107.799 118.297 109.004 118.302 110.213 118.302C111.422 118.302 112.631 118.318 113.836 118.297C115.237 118.277 115.65 117.892 115.662 116.526C115.683 114.154 115.683 111.781 115.662 109.409C115.65 108.114 115.216 107.675 113.932 107.663ZM110.421 115.67C107.682 115.67 107.682 115.67 107.682 112.951C107.682 110.328 107.682 110.328 110.263 110.328C112.994 110.328 112.994 110.328 112.994 113.043C112.998 115.67 112.998 115.67 110.421 115.67Z" fill="#1A1466"/>
</g>
</svg>
