<svg width="200" height="184" viewBox="0 0 200 184" fill="none" xmlns="http://www.w3.org/2000/svg">
<path d="M52.424 13H49.724V0.399999H54.908C55.568 0.399999 56.174 0.465999 56.726 0.598C57.29 0.73 57.818 0.945999 58.31 1.246C58.814 1.546 59.204 1.972 59.48 2.524C59.768 3.076 59.912 3.736 59.912 4.504C59.912 6.412 58.994 7.66 57.158 8.248L60.92 13H57.806L54.404 8.59H52.424V13ZM52.424 2.776V6.34H55.034C55.646 6.34 56.15 6.196 56.546 5.908C56.954 5.608 57.158 5.158 57.158 4.558C57.158 3.946 56.96 3.496 56.564 3.208C56.168 2.92 55.658 2.776 55.034 2.776H52.424ZM61.0965 8.68C61.0965 7.9 61.2345 7.21 61.5105 6.61C61.7865 5.998 62.1465 5.518 62.5905 5.17C63.0465 4.822 63.5205 4.558 64.0125 4.378C64.5165 4.198 65.0265 4.108 65.5425 4.108C66.4065 4.108 67.1505 4.27 67.7745 4.594C68.4105 4.918 68.8785 5.338 69.1785 5.854C69.4785 6.358 69.6825 6.934 69.7905 7.582C69.9105 8.218 69.8805 8.854 69.7005 9.49H63.6165C63.7485 10.09 64.0965 10.54 64.6605 10.84C65.2245 11.128 65.8905 11.272 66.6585 11.272C67.6065 11.272 68.4765 11.098 69.2685 10.75V12.712C68.4165 13.072 67.3605 13.252 66.1005 13.252C64.6605 13.252 63.4665 12.85 62.5185 12.046C61.5705 11.242 61.0965 10.12 61.0965 8.68ZM67.4505 7.87C67.5105 7.474 67.3965 7.066 67.1085 6.646C66.8205 6.226 66.3285 6.016 65.6325 6.016C65.0805 6.016 64.6065 6.184 64.2105 6.52C63.8145 6.844 63.6105 7.294 63.5985 7.87H67.4505ZM71.0483 6.772C71.0483 5.848 71.3903 5.176 72.0743 4.756C72.7583 4.324 73.6163 4.108 74.6483 4.108C75.7643 4.108 76.8263 4.354 77.8343 4.846V6.898C77.4623 6.646 76.9883 6.436 76.4123 6.268C75.8483 6.1 75.3143 6.016 74.8103 6.016C74.0063 6.016 73.6043 6.244 73.6043 6.7C73.6043 6.964 73.7723 7.18 74.1083 7.348C74.4443 7.516 74.8523 7.666 75.3323 7.798C75.8123 7.918 76.2863 8.068 76.7543 8.248C77.2343 8.428 77.6423 8.716 77.9783 9.112C78.3143 9.508 78.4823 10 78.4823 10.588C78.4823 11.236 78.2903 11.764 77.9063 12.172C77.5343 12.58 77.0663 12.862 76.5023 13.018C75.9503 13.174 75.3023 13.252 74.5583 13.252C73.1783 13.252 72.0323 12.982 71.1203 12.442V10.372C72.0563 10.984 73.1543 11.29 74.4143 11.29C75.4223 11.29 75.9263 11.074 75.9263 10.642C75.9263 10.39 75.7583 10.18 75.4223 10.012C75.0863 9.844 74.6783 9.694 74.1983 9.562C73.7303 9.43 73.2563 9.274 72.7763 9.094C72.2963 8.902 71.8883 8.614 71.5523 8.23C71.2163 7.834 71.0483 7.348 71.0483 6.772ZM80.6524 1.84L83.1364 1.246V4.36H85.8724V6.466H83.1364V9.85C83.1364 10.714 83.5984 11.146 84.5224 11.146C85.0744 11.146 85.5964 11.05 86.0884 10.858V12.874C85.3684 13.126 84.5944 13.252 83.7664 13.252C82.8544 13.252 82.1044 13.018 81.5164 12.55C80.9404 12.082 80.6524 11.344 80.6524 10.336V6.466H79.1944V4.36H80.6524V1.84ZM95.2498 10.768C95.2498 11.152 95.4538 11.344 95.8618 11.344C96.0298 11.344 96.1858 11.32 96.3298 11.272V12.91C95.8738 13.078 95.4118 13.162 94.9438 13.162C94.0318 13.162 93.3958 12.838 93.0358 12.19C92.1358 12.898 91.0978 13.252 89.9218 13.252C89.0698 13.252 88.3498 13.018 87.7618 12.55C87.1858 12.07 86.8978 11.422 86.8978 10.606C86.8978 9.922 87.1018 9.352 87.5098 8.896C87.9178 8.44 88.3918 8.134 88.9318 7.978C89.4718 7.81 90.0598 7.726 90.6958 7.726C91.4038 7.726 92.0878 7.804 92.7478 7.96V7.654C92.7478 7.21 92.5738 6.856 92.2258 6.592C91.8778 6.328 91.3738 6.196 90.7138 6.196C89.7538 6.196 88.7338 6.412 87.6538 6.844V4.684C88.8058 4.3 89.9218 4.108 91.0018 4.108C93.8338 4.108 95.2498 5.41 95.2498 8.014V10.768ZM91.2718 9.22C90.7558 9.22 90.3238 9.316 89.9758 9.508C89.6278 9.7 89.4538 10 89.4538 10.408C89.4538 10.72 89.5798 10.978 89.8318 11.182C90.0958 11.374 90.4198 11.47 90.8038 11.47C91.5598 11.47 92.2078 11.236 92.7478 10.768V9.418C92.1958 9.286 91.7038 9.22 91.2718 9.22ZM103.506 4.36H106.008V13H103.794V11.902C103.014 12.802 102.054 13.252 100.914 13.252C99.7862 13.252 98.9162 12.922 98.3042 12.262C97.7042 11.602 97.4042 10.75 97.4042 9.706V4.36H99.9062V9.382C99.9062 9.946 100.05 10.372 100.338 10.66C100.626 10.948 101.034 11.092 101.562 11.092C102.33 11.092 102.978 10.726 103.506 9.994V4.36ZM110.343 5.656C110.667 5.152 111.135 4.762 111.747 4.486C112.359 4.21 113.055 4.108 113.835 4.18V6.61C113.151 6.49 112.509 6.55 111.909 6.79C111.321 7.03 110.895 7.408 110.631 7.924V13H108.129V4.36H110.343V5.656ZM122.777 10.768C122.777 11.152 122.981 11.344 123.389 11.344C123.557 11.344 123.713 11.32 123.857 11.272V12.91C123.401 13.078 122.939 13.162 122.471 13.162C121.559 13.162 120.923 12.838 120.563 12.19C119.663 12.898 118.625 13.252 117.449 13.252C116.597 13.252 115.877 13.018 115.289 12.55C114.713 12.07 114.425 11.422 114.425 10.606C114.425 9.922 114.629 9.352 115.037 8.896C115.445 8.44 115.919 8.134 116.459 7.978C116.999 7.81 117.587 7.726 118.223 7.726C118.931 7.726 119.615 7.804 120.275 7.96V7.654C120.275 7.21 120.101 6.856 119.753 6.592C119.405 6.328 118.901 6.196 118.241 6.196C117.281 6.196 116.261 6.412 115.181 6.844V4.684C116.333 4.3 117.449 4.108 118.529 4.108C121.361 4.108 122.777 5.41 122.777 8.014V10.768ZM118.799 9.22C118.283 9.22 117.851 9.316 117.503 9.508C117.155 9.7 116.981 10 116.981 10.408C116.981 10.72 117.107 10.978 117.359 11.182C117.623 11.374 117.947 11.47 118.331 11.47C119.087 11.47 119.735 11.236 120.275 10.768V9.418C119.723 9.286 119.231 9.22 118.799 9.22ZM127.254 5.458C128.034 4.558 128.994 4.108 130.134 4.108C131.238 4.108 132.096 4.444 132.708 5.116C133.332 5.776 133.644 6.622 133.644 7.654V13H131.142V7.978C131.142 7.414 130.986 6.988 130.674 6.7C130.374 6.412 129.972 6.268 129.468 6.268C128.688 6.268 128.046 6.634 127.542 7.366V13H125.04V4.36H127.254V5.458ZM136.234 1.84L138.718 1.246V4.36H141.454V6.466H138.718V9.85C138.718 10.714 139.18 11.146 140.104 11.146C140.656 11.146 141.178 11.05 141.67 10.858V12.874C140.95 13.126 140.176 13.252 139.348 13.252C138.436 13.252 137.686 13.018 137.098 12.55C136.522 12.082 136.234 11.344 136.234 10.336V6.466H134.776V4.36H136.234V1.84ZM142.732 6.772C142.732 5.848 143.074 5.176 143.758 4.756C144.442 4.324 145.3 4.108 146.332 4.108C147.448 4.108 148.51 4.354 149.518 4.846V6.898C149.146 6.646 148.672 6.436 148.096 6.268C147.532 6.1 146.998 6.016 146.494 6.016C145.69 6.016 145.288 6.244 145.288 6.7C145.288 6.964 145.456 7.18 145.792 7.348C146.128 7.516 146.536 7.666 147.016 7.798C147.496 7.918 147.97 8.068 148.438 8.248C148.918 8.428 149.326 8.716 149.662 9.112C149.998 9.508 150.166 10 150.166 10.588C150.166 11.236 149.974 11.764 149.59 12.172C149.218 12.58 148.75 12.862 148.186 13.018C147.634 13.174 146.986 13.252 146.242 13.252C144.862 13.252 143.716 12.982 142.804 12.442V10.372C143.74 10.984 144.838 11.29 146.098 11.29C147.106 11.29 147.61 11.074 147.61 10.642C147.61 10.39 147.442 10.18 147.106 10.012C146.77 9.844 146.362 9.694 145.882 9.562C145.414 9.43 144.94 9.274 144.46 9.094C143.98 8.902 143.572 8.614 143.236 8.23C142.9 7.834 142.732 7.348 142.732 6.772Z" fill="#1A1466"/>
<path opacity="0.1" d="M92.3955 24.4569C148.776 20.098 148.885 47.7206 174.298 73.433C199.71 99.1454 205.144 110.83 195.568 140.489C185.992 170.148 153.705 193.4 113.77 180.225C73.8353 167.051 50.9601 179.715 25.7751 168.022C0.590161 156.329 -8.78088 133.718 9.67021 107.084C28.1213 80.4488 22.8515 29.832 92.3955 24.4569Z" fill="#FAFF00"/>
<path d="M78.3818 147.888C78.3818 148.453 78.2324 148.949 77.9338 149.376C77.6458 149.803 77.2564 150.096 76.7658 150.256C77.3524 150.437 77.8431 150.757 78.2378 151.216C78.6324 151.675 78.8298 152.283 78.8298 153.04C78.8298 154.075 78.4351 154.864 77.6458 155.408C76.8564 155.941 75.8644 156.208 74.6698 156.208C73.2724 156.208 72.0138 155.968 70.8938 155.488V153.728C71.9391 154.304 73.1498 154.581 74.5258 154.56C76.2324 154.539 77.0858 153.968 77.0858 152.848C77.0858 151.76 76.3178 151.216 74.7818 151.216H73.0538V149.568L74.5738 149.584C75.2351 149.584 75.7418 149.456 76.0938 149.2C76.4564 148.933 76.6378 148.571 76.6378 148.112C76.6378 147.621 76.4351 147.243 76.0298 146.976C75.6351 146.699 75.0698 146.56 74.3338 146.56C73.2031 146.56 72.1204 146.859 71.0858 147.456V145.712C72.0991 145.179 73.2618 144.912 74.5738 144.912C75.7151 144.912 76.6324 145.179 77.3258 145.712C78.0298 146.245 78.3818 146.971 78.3818 147.888ZM81.5625 154.656C80.7412 153.611 80.3305 152.245 80.3305 150.56C80.3305 148.875 80.7412 147.515 81.5625 146.48C82.3838 145.435 83.5998 144.912 85.2105 144.912C86.8212 144.912 88.0372 145.435 88.8585 146.48C89.6798 147.515 90.0905 148.875 90.0905 150.56C90.0905 152.245 89.6798 153.611 88.8585 154.656C88.0372 155.691 86.8212 156.208 85.2105 156.208C83.5998 156.208 82.3838 155.691 81.5625 154.656ZM85.2105 154.544C87.2372 154.544 88.2505 153.216 88.2505 150.56C88.2505 147.904 87.2372 146.576 85.2105 146.576C83.1838 146.576 82.1705 147.904 82.1705 150.56C82.1705 153.216 83.1838 154.544 85.2105 154.544ZM95.5794 156.96H94.1554L100.699 143.84H102.123L95.5794 156.96ZM96.0754 145.296C96.6087 145.755 96.8754 146.395 96.8754 147.216C96.8754 148.037 96.6087 148.683 96.0754 149.152C95.5527 149.611 94.9074 149.84 94.1394 149.84C93.3607 149.84 92.7047 149.611 92.1714 149.152C91.638 148.683 91.3714 148.037 91.3714 147.216C91.3714 146.395 91.638 145.755 92.1714 145.296C92.7047 144.827 93.3607 144.592 94.1394 144.592C94.9074 144.592 95.5527 144.827 96.0754 145.296ZM93.1634 146.32C92.95 146.555 92.8434 146.853 92.8434 147.216C92.8434 147.579 92.95 147.883 93.1634 148.128C93.3874 148.363 93.7074 148.48 94.1234 148.48C94.5287 148.48 94.838 148.363 95.0514 148.128C95.2647 147.883 95.3714 147.579 95.3714 147.216C95.3714 146.853 95.2647 146.555 95.0514 146.32C94.838 146.075 94.5287 145.952 94.1234 145.952C93.7074 145.952 93.3874 146.075 93.1634 146.32ZM104.091 151.664C104.625 152.123 104.891 152.763 104.891 153.584C104.891 154.405 104.625 155.051 104.091 155.52C103.569 155.979 102.923 156.208 102.155 156.208C101.377 156.208 100.721 155.979 100.187 155.52C99.654 155.051 99.3874 154.405 99.3874 153.584C99.3874 152.763 99.654 152.123 100.187 151.664C100.721 151.195 101.377 150.96 102.155 150.96C102.923 150.96 103.569 151.195 104.091 151.664ZM101.195 152.688C100.982 152.923 100.875 153.221 100.875 153.584C100.875 153.947 100.982 154.251 101.195 154.496C101.419 154.731 101.739 154.848 102.155 154.848C102.561 154.848 102.87 154.731 103.083 154.496C103.297 154.251 103.403 153.947 103.403 153.584C103.403 153.221 103.297 152.923 103.083 152.688C102.87 152.443 102.561 152.32 102.155 152.32C101.739 152.32 101.419 152.443 101.195 152.688ZM110.996 155.136C110.185 154.421 109.78 153.429 109.78 152.16C109.78 150.891 110.185 149.899 110.996 149.184C111.817 148.469 112.798 148.112 113.94 148.112C115.092 148.112 116.073 148.469 116.884 149.184C117.694 149.899 118.1 150.891 118.1 152.16C118.1 153.429 117.694 154.421 116.884 155.136C116.073 155.851 115.092 156.208 113.94 156.208C112.798 156.208 111.817 155.851 110.996 155.136ZM115.684 153.968C116.132 153.509 116.356 152.907 116.356 152.16C116.356 151.413 116.132 150.816 115.684 150.368C115.236 149.909 114.654 149.68 113.94 149.68C113.214 149.68 112.628 149.909 112.18 150.368C111.732 150.816 111.508 151.413 111.508 152.16C111.508 152.907 111.732 153.509 112.18 153.968C112.628 154.416 113.214 154.64 113.94 154.64C114.654 154.64 115.236 154.416 115.684 153.968ZM130.147 146.224C129.699 146 129.203 145.888 128.659 145.888C128.179 145.888 127.795 145.989 127.507 146.192C127.229 146.395 127.091 146.773 127.091 147.328V148.32H129.731V149.824H127.091V156H125.379V149.824H122.019V156H120.307V149.824H118.915V148.32H120.307V147.648C120.307 146.709 120.6 145.995 121.187 145.504C121.784 145.003 122.547 144.752 123.475 144.752C124.317 144.752 125.139 144.955 125.939 145.36C126.44 144.709 127.208 144.384 128.243 144.384C128.915 144.384 129.549 144.496 130.147 144.72V146.224ZM122.019 148.32H125.395V147.36C125.395 147.179 125.405 146.949 125.427 146.672C124.957 146.373 124.387 146.224 123.715 146.224C123.192 146.224 122.776 146.347 122.467 146.592C122.168 146.827 122.019 147.179 122.019 147.648V148.32Z" fill="#1A1466"/>
<g opacity="0.6" clip-path="url(#clip0_761_250932)">
<path d="M137.158 92.6418C139.067 90.7717 139.118 87.6391 137.265 85.6382C136.95 85.3083 136.596 85.0151 136.207 84.7827C128.915 64.6854 107.215 54.2329 87.7596 61.426C70.7245 67.7247 60.6978 85.7075 63.9558 104.142C62.6575 106.509 63.4962 109.545 65.8176 110.903C66.2062 111.136 66.6286 111.307 67.0615 111.424C64.8333 114.817 65.74 119.465 69.0778 121.806C69.7697 122.281 70.5176 122.637 71.3035 122.853L72.5361 127.453C73.5564 131.308 77.3259 133.715 81.1158 132.919L135.758 118.278C139.426 117.075 141.487 113.106 140.455 109.255L139.223 104.654C142.037 101.765 142.016 97.0473 139.155 94.0997C138.57 93.506 137.898 93.0131 137.158 92.6418ZM91.6078 62.8149C108.579 58.2932 126.395 67.3663 133.356 84.0714C133.062 84.0984 132.76 84.1406 132.479 84.2159L66.9129 101.784C66.6319 101.859 66.3606 101.971 66.0926 102.095C63.7682 84.1471 74.6491 67.3848 91.6078 62.8149ZM65.8654 107.241C65.5095 105.913 65.0889 104.343 67.4306 103.716L133.252 86.0791C134.54 85.734 135.759 87.0899 136.115 88.4181C136.47 89.7462 136.096 92.5641 134.808 92.9092L68.9862 110.546C67.6983 110.891 66.2245 108.581 65.8654 107.241ZM138.102 109.885C138.775 112.397 137.476 114.996 135.099 115.866L80.4687 130.504C77.9784 130.952 75.5539 129.35 74.8777 126.826L73.878 123.095C74.2838 123.064 74.6799 122.997 75.078 122.89L135.961 106.577C136.359 106.47 136.735 106.33 137.102 106.154L138.102 109.885ZM136.614 104.331L73.3895 121.272C70.802 121.965 69.1686 119.569 68.4536 116.901C67.7386 114.232 69.2552 111.509 71.8427 110.816L132.725 94.5026C135.313 93.8093 137.988 95.409 138.703 98.0773C139.418 100.746 139.201 103.638 136.614 104.331ZM82.611 80.7547L81.964 78.3399C81.7861 77.6758 82.1673 76.9913 82.8113 76.8187C83.4552 76.6462 84.1277 77.0483 84.3056 77.7124L84.9527 80.1272C85.1306 80.7913 84.7493 81.4758 84.1054 81.6484C83.4614 81.8209 82.789 81.4187 82.611 80.7547ZM94.3192 77.6175L93.6722 75.2027C93.4942 74.5386 93.8755 73.8541 94.5195 73.6815C95.1634 73.509 95.8359 73.9111 96.0138 74.5752L96.6609 76.99C96.8388 77.6541 96.4575 78.3386 95.8136 78.5112C95.1696 78.6837 94.4972 78.2815 94.3192 77.6175ZM106.027 74.4803L105.38 72.0655C105.202 71.4014 105.584 70.7169 106.228 70.5443C106.872 70.3718 107.544 70.7739 107.722 71.438L108.369 73.8528C108.547 74.5169 108.166 75.2014 107.522 75.374C106.878 75.5465 106.205 75.1443 106.027 74.4803ZM90.4063 86.4305L89.7592 84.0157C89.5813 83.3516 89.9626 82.6671 90.6065 82.4946C91.2505 82.322 91.9229 82.7242 92.1009 83.3883L92.7479 85.8031C92.9259 86.4671 92.5446 87.1517 91.9006 87.3242C91.2567 87.4967 90.5842 87.0946 90.4063 86.4305ZM102.114 83.2933L101.467 80.8785C101.289 80.2144 101.671 79.5299 102.315 79.3574C102.959 79.1848 103.631 79.587 103.809 80.2511L104.456 82.6659C104.634 83.3299 104.253 84.0145 103.609 84.187C102.965 84.3595 102.292 83.9574 102.114 83.2933Z" stroke="#1A1466" stroke-width="2.5" stroke-miterlimit="10"/>
</g>
<defs>
<clipPath id="clip0_761_250932">
<rect width="80" height="70" fill="white" transform="translate(52 69.5454) rotate(-15)"/>
</clipPath>
</defs>
</svg>
