<svg width="200" height="188" viewBox="0 0 200 188" fill="none" xmlns="http://www.w3.org/2000/svg">
<path opacity="0.1" d="M50.8303 180.791C50.8303 180.791 77.1939 194.3 105.344 184.333C133.495 174.365 141.102 151.458 154.821 134.863C162.007 126.173 174.548 121.972 183.811 114.921C213.425 92.3392 198.787 49.7017 169.019 36.0111C143.246 24.1745 114.64 25.5242 80.1628 39.5977C45.6852 53.6712 20.7474 62.5392 4.56626 94.5951C-11.6149 126.651 17.9052 162.168 50.8303 180.791Z" fill="#FAFF00"/>
<path d="M75.722 145.12H77.066V154.352H79.002V156H73.082V154.352H75.258V146.992L73.082 147.808V146.128L75.722 145.12ZM80.8314 145.12H87.5354V146.752H82.5114L82.3514 149.376C82.874 149.248 83.4234 149.184 83.9994 149.184C85.162 149.184 86.1274 149.467 86.8954 150.032C87.6634 150.587 88.0474 151.461 88.0474 152.656C88.0474 153.787 87.626 154.661 86.7834 155.28C85.9514 155.899 84.906 156.208 83.6474 156.208C82.3354 156.208 81.1727 155.963 80.1594 155.472V153.76C81.0767 154.293 82.17 154.56 83.4394 154.56C84.2714 154.56 84.938 154.395 85.4394 154.064C85.9514 153.733 86.2074 153.259 86.2074 152.64C86.2074 151.339 85.2207 150.688 83.2474 150.688C82.33 150.688 81.4074 150.848 80.4794 151.168L80.8314 145.12ZM93.4231 156.96H91.9991L98.5431 143.84H99.9671L93.4231 156.96ZM93.9191 145.296C94.4525 145.755 94.7191 146.395 94.7191 147.216C94.7191 148.037 94.4525 148.683 93.9191 149.152C93.3965 149.611 92.7511 149.84 91.9831 149.84C91.2045 149.84 90.5485 149.611 90.0151 149.152C89.4818 148.683 89.2151 148.037 89.2151 147.216C89.2151 146.395 89.4818 145.755 90.0151 145.296C90.5485 144.827 91.2045 144.592 91.9831 144.592C92.7511 144.592 93.3965 144.827 93.9191 145.296ZM91.0071 146.32C90.7938 146.555 90.6871 146.853 90.6871 147.216C90.6871 147.579 90.7938 147.883 91.0071 148.128C91.2311 148.363 91.5511 148.48 91.9671 148.48C92.3725 148.48 92.6818 148.363 92.8951 148.128C93.1085 147.883 93.2151 147.579 93.2151 147.216C93.2151 146.853 93.1085 146.555 92.8951 146.32C92.6818 146.075 92.3725 145.952 91.9671 145.952C91.5511 145.952 91.2311 146.075 91.0071 146.32ZM101.935 151.664C102.468 152.123 102.735 152.763 102.735 153.584C102.735 154.405 102.468 155.051 101.935 155.52C101.412 155.979 100.767 156.208 99.9991 156.208C99.2205 156.208 98.5645 155.979 98.0311 155.52C97.4978 155.051 97.2311 154.405 97.2311 153.584C97.2311 152.763 97.4978 152.123 98.0311 151.664C98.5645 151.195 99.2205 150.96 99.9991 150.96C100.767 150.96 101.412 151.195 101.935 151.664ZM99.0391 152.688C98.8258 152.923 98.7191 153.221 98.7191 153.584C98.7191 153.947 98.8258 154.251 99.0391 154.496C99.2631 154.731 99.5831 154.848 99.9991 154.848C100.404 154.848 100.714 154.731 100.927 154.496C101.14 154.251 101.247 153.947 101.247 153.584C101.247 153.221 101.14 152.923 100.927 152.688C100.714 152.443 100.404 152.32 99.9991 152.32C99.5831 152.32 99.2631 152.443 99.0391 152.688ZM108.839 155.136C108.029 154.421 107.623 153.429 107.623 152.16C107.623 150.891 108.029 149.899 108.839 149.184C109.661 148.469 110.642 148.112 111.783 148.112C112.935 148.112 113.917 148.469 114.727 149.184C115.538 149.899 115.943 150.891 115.943 152.16C115.943 153.429 115.538 154.421 114.727 155.136C113.917 155.851 112.935 156.208 111.783 156.208C110.642 156.208 109.661 155.851 108.839 155.136ZM113.527 153.968C113.975 153.509 114.199 152.907 114.199 152.16C114.199 151.413 113.975 150.816 113.527 150.368C113.079 149.909 112.498 149.68 111.783 149.68C111.058 149.68 110.471 149.909 110.023 150.368C109.575 150.816 109.351 151.413 109.351 152.16C109.351 152.907 109.575 153.509 110.023 153.968C110.471 154.416 111.058 154.64 111.783 154.64C112.498 154.64 113.079 154.416 113.527 153.968ZM127.99 146.224C127.542 146 127.046 145.888 126.502 145.888C126.022 145.888 125.638 145.989 125.35 146.192C125.073 146.395 124.934 146.773 124.934 147.328V148.32H127.574V149.824H124.934V156H123.222V149.824H119.862V156H118.15V149.824H116.758V148.32H118.15V147.648C118.15 146.709 118.444 145.995 119.03 145.504C119.628 145.003 120.39 144.752 121.318 144.752C122.161 144.752 122.982 144.955 123.782 145.36C124.284 144.709 125.052 144.384 126.086 144.384C126.758 144.384 127.393 144.496 127.99 144.72V146.224ZM119.862 148.32H123.238V147.36C123.238 147.179 123.249 146.949 123.27 146.672C122.801 146.373 122.23 146.224 121.558 146.224C121.036 146.224 120.62 146.347 120.31 146.592C120.012 146.827 119.862 147.179 119.862 147.648V148.32Z" fill="#1A1466"/>
<path d="M60.7295 6.7C60.7295 5.596 60.9215 4.618 61.3055 3.766C61.6895 2.902 62.2055 2.212 62.8535 1.696C63.5135 1.18 64.2455 0.796 65.0495 0.543999C65.8535 0.279999 66.6995 0.147999 67.5875 0.147999C68.9555 0.147999 70.2455 0.417999 71.4575 0.957999V3.532C70.4735 2.884 69.3035 2.56 67.9475 2.56C66.6995 2.56 65.6435 2.908 64.7795 3.604C63.9155 4.288 63.4835 5.32 63.4835 6.7C63.4835 7.492 63.6155 8.176 63.8795 8.752C64.1555 9.328 64.5155 9.766 64.9595 10.066C65.4035 10.354 65.8595 10.564 66.3275 10.696C66.7955 10.828 67.2875 10.894 67.8035 10.894C68.3195 10.894 68.7815 10.816 69.1895 10.66V6.16H71.7635V12.406C70.4435 12.97 69.0755 13.252 67.6595 13.252C66.9395 13.252 66.2435 13.174 65.5715 13.018C64.9115 12.862 64.2815 12.616 63.6815 12.28C63.0935 11.932 62.5835 11.512 62.1515 11.02C61.7195 10.516 61.3715 9.898 61.1075 9.166C60.8555 8.422 60.7295 7.6 60.7295 6.7ZM75.8903 5.656C76.2143 5.152 76.6823 4.762 77.2943 4.486C77.9063 4.21 78.6023 4.108 79.3823 4.18V6.61C78.6983 6.49 78.0563 6.55 77.4563 6.79C76.8683 7.03 76.4423 7.408 76.1783 7.924V13H73.6763V4.36H75.8903V5.656ZM81.4141 12.046C80.4901 11.242 80.0281 10.12 80.0281 8.68C80.0281 7.24 80.4901 6.118 81.4141 5.314C82.3381 4.51 83.4661 4.108 84.7981 4.108C86.1421 4.108 87.2701 4.51 88.1821 5.314C89.1061 6.118 89.5681 7.24 89.5681 8.68C89.5681 10.12 89.1061 11.242 88.1821 12.046C87.2701 12.85 86.1421 13.252 84.7981 13.252C83.4661 13.252 82.3381 12.85 81.4141 12.046ZM86.4361 10.372C86.8321 9.928 87.0301 9.364 87.0301 8.68C87.0301 7.996 86.8321 7.438 86.4361 7.006C86.0401 6.562 85.4941 6.34 84.7981 6.34C84.1021 6.34 83.5561 6.562 83.1601 7.006C82.7761 7.438 82.5841 7.996 82.5841 8.68C82.5841 9.364 82.7761 9.928 83.1601 10.372C83.5561 10.804 84.1021 11.02 84.7981 11.02C85.4941 11.02 86.0401 10.804 86.4361 10.372ZM90.7156 8.806C90.7156 8.014 90.8536 7.306 91.1296 6.682C91.4176 6.058 91.7956 5.566 92.2636 5.206C92.7316 4.834 93.2476 4.558 93.8116 4.378C94.3756 4.186 94.9696 4.09 95.5936 4.09C96.5896 4.09 97.4776 4.3 98.2576 4.72V6.916C97.5856 6.484 96.8176 6.268 95.9536 6.268C95.1976 6.268 94.5616 6.466 94.0456 6.862C93.5296 7.258 93.2716 7.864 93.2716 8.68C93.2716 9.46 93.5296 10.06 94.0456 10.48C94.5616 10.888 95.1856 11.092 95.9176 11.092C96.8416 11.092 97.6516 10.882 98.3476 10.462V12.676C97.4476 13.06 96.4756 13.252 95.4316 13.252C94.1356 13.252 93.0256 12.874 92.1016 12.118C91.1776 11.35 90.7156 10.246 90.7156 8.806ZM99.5399 8.68C99.5399 7.9 99.6779 7.21 99.9539 6.61C100.23 5.998 100.59 5.518 101.034 5.17C101.49 4.822 101.964 4.558 102.456 4.378C102.96 4.198 103.47 4.108 103.986 4.108C104.85 4.108 105.594 4.27 106.218 4.594C106.854 4.918 107.322 5.338 107.622 5.854C107.922 6.358 108.126 6.934 108.234 7.582C108.354 8.218 108.324 8.854 108.144 9.49H102.06C102.192 10.09 102.54 10.54 103.104 10.84C103.668 11.128 104.334 11.272 105.102 11.272C106.05 11.272 106.92 11.098 107.712 10.75V12.712C106.86 13.072 105.804 13.252 104.544 13.252C103.104 13.252 101.91 12.85 100.962 12.046C100.014 11.242 99.5399 10.12 99.5399 8.68ZM105.894 7.87C105.954 7.474 105.84 7.066 105.552 6.646C105.264 6.226 104.772 6.016 104.076 6.016C103.524 6.016 103.05 6.184 102.654 6.52C102.258 6.844 102.054 7.294 102.042 7.87H105.894ZM112.084 5.656C112.408 5.152 112.876 4.762 113.488 4.486C114.1 4.21 114.796 4.108 115.576 4.18V6.61C114.892 6.49 114.25 6.55 113.65 6.79C113.062 7.03 112.636 7.408 112.372 7.924V13H109.87V4.36H112.084V5.656ZM119.421 13H116.919V4.36H119.421V13ZM119.637 1.498C119.637 1.966 119.499 2.32 119.223 2.56C118.947 2.8 118.593 2.92 118.161 2.92C117.741 2.92 117.393 2.8 117.117 2.56C116.841 2.32 116.703 1.966 116.703 1.498C116.703 1.042 116.841 0.693999 117.117 0.454C117.393 0.214 117.741 0.0939999 118.161 0.0939999C118.581 0.0939999 118.929 0.214 119.205 0.454C119.493 0.693999 119.637 1.042 119.637 1.498ZM121.091 8.68C121.091 7.9 121.229 7.21 121.505 6.61C121.781 5.998 122.141 5.518 122.585 5.17C123.041 4.822 123.515 4.558 124.007 4.378C124.511 4.198 125.021 4.108 125.537 4.108C126.401 4.108 127.145 4.27 127.769 4.594C128.405 4.918 128.873 5.338 129.173 5.854C129.473 6.358 129.677 6.934 129.785 7.582C129.905 8.218 129.875 8.854 129.695 9.49H123.611C123.743 10.09 124.091 10.54 124.655 10.84C125.219 11.128 125.885 11.272 126.653 11.272C127.601 11.272 128.471 11.098 129.263 10.75V12.712C128.411 13.072 127.355 13.252 126.095 13.252C124.655 13.252 123.461 12.85 122.513 12.046C121.565 11.242 121.091 10.12 121.091 8.68ZM127.445 7.87C127.505 7.474 127.391 7.066 127.103 6.646C126.815 6.226 126.323 6.016 125.627 6.016C125.075 6.016 124.601 6.184 124.205 6.52C123.809 6.844 123.605 7.294 123.593 7.87H127.445ZM131.042 6.772C131.042 5.848 131.384 5.176 132.068 4.756C132.752 4.324 133.61 4.108 134.642 4.108C135.758 4.108 136.82 4.354 137.828 4.846V6.898C137.456 6.646 136.982 6.436 136.406 6.268C135.842 6.1 135.308 6.016 134.804 6.016C134 6.016 133.598 6.244 133.598 6.7C133.598 6.964 133.766 7.18 134.102 7.348C134.438 7.516 134.846 7.666 135.326 7.798C135.806 7.918 136.28 8.068 136.748 8.248C137.228 8.428 137.636 8.716 137.972 9.112C138.308 9.508 138.476 10 138.476 10.588C138.476 11.236 138.284 11.764 137.9 12.172C137.528 12.58 137.06 12.862 136.496 13.018C135.944 13.174 135.296 13.252 134.552 13.252C133.172 13.252 132.026 12.982 131.114 12.442V10.372C132.05 10.984 133.148 11.29 134.408 11.29C135.416 11.29 135.92 11.074 135.92 10.642C135.92 10.39 135.752 10.18 135.416 10.012C135.08 9.844 134.672 9.694 134.192 9.562C133.724 9.43 133.25 9.274 132.77 9.094C132.29 8.902 131.882 8.614 131.546 8.23C131.21 7.834 131.042 7.348 131.042 6.772Z" fill="#1A1466"/>
<g opacity="0.8">
<path d="M130.321 115.771H83.866C83.227 115.771 82.6094 115.554 82.1264 115.16C81.6433 114.766 81.327 114.222 81.2354 113.627L72.9814 62.9885H62.6497C61.9469 62.9885 61.273 62.7257 60.7761 62.2579C60.2792 61.7902 60 61.1557 60 60.4942C60 59.8327 60.2792 59.1983 60.7761 58.7305C61.273 58.2628 61.9469 58 62.6497 58H75.2784C75.9163 58.0005 76.5326 58.2177 77.0141 58.6116C77.4956 59.0055 77.81 59.5498 77.8995 60.1443L86.163 110.783H130.321C131.023 110.783 131.697 111.045 132.194 111.513C132.691 111.981 132.97 112.615 132.97 113.277C132.97 113.938 132.691 114.573 132.194 115.041C131.697 115.508 131.023 115.771 130.321 115.771V115.771Z" stroke="#1A1466" stroke-width="2.5" stroke-linecap="round" stroke-linejoin="round"/>
<path d="M135.53 101.81L84.8969 102.967L79.582 70.2774L139.153 68.9154L135.53 101.81Z" stroke="#1A1466" stroke-width="2.5" stroke-linecap="round" stroke-linejoin="round"/>
<path d="M97.4379 97.9422C97.1051 97.9498 96.7739 97.8956 96.4633 97.7827C96.1527 97.6699 95.8687 97.5005 95.6277 97.2843C95.3866 97.0682 95.1931 96.8094 95.0583 96.5229C94.9235 96.2363 94.8499 95.9276 94.8418 95.6143L94.4153 79.0836C94.399 78.45 94.65 77.8361 95.1134 77.3764C95.5769 76.9167 96.215 76.6486 96.8881 76.6308V76.6308C97.5612 76.6178 98.2124 76.8564 98.699 77.2944C99.1856 77.7324 99.468 78.3341 99.4844 78.9677L99.9109 95.4984C99.919 95.8117 99.8614 96.1234 99.7415 96.4158C99.6216 96.7082 99.4417 96.9755 99.212 97.2024C98.9824 97.4293 98.7076 97.6115 98.4031 97.7384C98.0987 97.8653 97.7707 97.9346 97.4379 97.9422Z" stroke="#1A1466" stroke-width="2.5" stroke-linecap="round" stroke-linejoin="round"/>
<path d="M106.414 97.7367C105.742 97.752 105.091 97.5154 104.604 97.0788C104.117 96.6423 103.835 96.0415 103.818 95.4087L103.392 78.8781C103.376 78.2445 103.627 77.6306 104.09 77.1709C104.553 76.7112 105.192 76.4431 105.865 76.4253V76.4253C106.538 76.4123 107.189 76.6509 107.676 77.0889C108.162 77.5269 108.445 78.1286 108.461 78.7622L108.887 95.2929C108.904 95.9256 108.652 96.5386 108.189 96.9969C107.725 97.4552 107.087 97.7213 106.414 97.7367V97.7367Z" stroke="#1A1466" stroke-width="2.5" stroke-linecap="round" stroke-linejoin="round"/>
<path d="M115.391 97.5316C115.058 97.5392 114.727 97.485 114.416 97.3721C114.106 97.2593 113.822 97.0899 113.581 96.8738C113.34 96.6576 113.146 96.3988 113.011 96.1123C112.877 95.8257 112.803 95.517 112.795 95.2037L112.368 78.673C112.352 78.0394 112.603 77.4255 113.067 76.9658C113.53 76.5061 114.168 76.238 114.841 76.2203V76.2203C115.514 76.2072 116.165 76.4458 116.652 76.8838C117.139 77.3218 117.421 77.9235 117.438 78.5571L117.864 95.0878C117.872 95.4011 117.815 95.7128 117.695 96.0052C117.575 96.2976 117.395 96.5649 117.165 96.7918C116.936 97.0187 116.661 97.2009 116.356 97.3278C116.052 97.4547 115.724 97.524 115.391 97.5316Z" stroke="#1A1466" stroke-width="2.5" stroke-linecap="round" stroke-linejoin="round"/>
<path d="M124.366 97.3269C123.693 97.3423 123.042 97.1057 122.555 96.6691C122.069 96.2325 121.786 95.6318 121.77 94.999L121.343 78.4684C121.327 77.8348 121.578 77.2209 122.041 76.7612C122.505 76.3014 123.143 76.0334 123.816 76.0156V76.0156C124.489 76.0026 125.14 76.2412 125.627 76.6792C126.113 77.1172 126.396 77.7189 126.412 78.3525L126.839 94.8831C126.855 95.5159 126.604 96.1289 126.14 96.5872C125.676 97.0455 125.038 97.3116 124.366 97.3269V97.3269Z" stroke="#1A1466" stroke-width="2.5" stroke-linecap="round" stroke-linejoin="round"/>
<path d="M87.1941 128C90.6419 128 93.437 125.369 93.437 122.123C93.437 118.878 90.6419 116.247 87.1941 116.247C83.7462 116.247 80.9512 118.878 80.9512 122.123C80.9512 125.369 83.7462 128 87.1941 128Z" stroke="#1A1466" stroke-width="2.5" stroke-linecap="round" stroke-linejoin="round"/>
<path d="M87.19 124.644C88.6691 124.644 89.8682 123.516 89.8682 122.123C89.8682 120.731 88.6691 119.602 87.19 119.602C85.7108 119.602 84.5117 120.731 84.5117 122.123C84.5117 123.516 85.7108 124.644 87.19 124.644Z" stroke="#1A1466" stroke-width="2.5" stroke-linecap="round" stroke-linejoin="round"/>
<path d="M126.27 128C129.718 128 132.513 125.369 132.513 122.123C132.513 118.878 129.718 116.247 126.27 116.247C122.822 116.247 120.027 118.878 120.027 122.123C120.027 125.369 122.822 128 126.27 128Z" stroke="#1A1466" stroke-width="2.5" stroke-linecap="round" stroke-linejoin="round"/>
<path d="M128.958 122.123C128.958 121.625 128.801 121.137 128.507 120.723C128.212 120.308 127.794 119.985 127.305 119.794C126.815 119.603 126.277 119.553 125.757 119.651C125.238 119.748 124.761 119.988 124.386 120.341C124.011 120.693 123.756 121.142 123.653 121.631C123.55 122.121 123.603 122.627 123.805 123.088C124.008 123.549 124.351 123.943 124.792 124.22C125.232 124.497 125.75 124.644 126.28 124.644C126.632 124.646 126.981 124.581 127.306 124.455C127.632 124.329 127.927 124.143 128.176 123.909C128.425 123.674 128.623 123.396 128.757 123.09C128.891 122.783 128.959 122.455 128.958 122.123Z" stroke="#1A1466" stroke-width="2.5" stroke-linecap="round" stroke-linejoin="round"/>
</g>
</svg>
