<svg width="200" height="192" viewBox="0 0 200 192" fill="none" xmlns="http://www.w3.org/2000/svg">
<path d="M70.6244 0.399999H76.1324C77.5124 0.399999 78.5804 0.669999 79.3364 1.21C80.1044 1.738 80.4884 2.53 80.4884 3.586C80.4884 4.99 79.8524 5.908 78.5804 6.34C79.2764 6.544 79.8524 6.904 80.3084 7.42C80.7644 7.924 80.9924 8.608 80.9924 9.472C80.9924 10.156 80.8424 10.744 80.5424 11.236C80.2424 11.716 79.8344 12.076 79.3184 12.316C78.8144 12.556 78.2924 12.73 77.7524 12.838C77.2244 12.946 76.6544 13 76.0424 13H70.6244V0.399999ZM78.2924 9.184C78.2924 8.104 77.5784 7.564 76.1504 7.564H73.3064V10.804H76.0064C76.7144 10.804 77.2724 10.69 77.6804 10.462C78.0884 10.234 78.2924 9.808 78.2924 9.184ZM77.8064 4.054C77.8064 3.094 77.1704 2.614 75.8984 2.614H73.3244V5.494H76.0424C76.5704 5.494 76.9964 5.374 77.3204 5.134C77.6444 4.882 77.8064 4.522 77.8064 4.054ZM82.1903 8.68C82.1903 7.9 82.3283 7.21 82.6043 6.61C82.8803 5.998 83.2403 5.518 83.6843 5.17C84.1403 4.822 84.6143 4.558 85.1063 4.378C85.6103 4.198 86.1203 4.108 86.6363 4.108C87.5003 4.108 88.2443 4.27 88.8683 4.594C89.5043 4.918 89.9723 5.338 90.2723 5.854C90.5723 6.358 90.7763 6.934 90.8843 7.582C91.0043 8.218 90.9743 8.854 90.7943 9.49H84.7103C84.8423 10.09 85.1903 10.54 85.7543 10.84C86.3183 11.128 86.9843 11.272 87.7523 11.272C88.7003 11.272 89.5703 11.098 90.3623 10.75V12.712C89.5103 13.072 88.4543 13.252 87.1943 13.252C85.7543 13.252 84.5603 12.85 83.6123 12.046C82.6643 11.242 82.1903 10.12 82.1903 8.68ZM88.5443 7.87C88.6043 7.474 88.4903 7.066 88.2023 6.646C87.9143 6.226 87.4223 6.016 86.7263 6.016C86.1743 6.016 85.7003 6.184 85.3043 6.52C84.9083 6.844 84.7043 7.294 84.6923 7.87H88.5443ZM100.242 10.768C100.242 11.152 100.446 11.344 100.854 11.344C101.022 11.344 101.178 11.32 101.322 11.272V12.91C100.866 13.078 100.404 13.162 99.936 13.162C99.024 13.162 98.388 12.838 98.028 12.19C97.128 12.898 96.09 13.252 94.914 13.252C94.062 13.252 93.342 13.018 92.754 12.55C92.178 12.07 91.89 11.422 91.89 10.606C91.89 9.922 92.094 9.352 92.502 8.896C92.91 8.44 93.384 8.134 93.924 7.978C94.464 7.81 95.052 7.726 95.688 7.726C96.396 7.726 97.08 7.804 97.74 7.96V7.654C97.74 7.21 97.566 6.856 97.218 6.592C96.87 6.328 96.366 6.196 95.706 6.196C94.746 6.196 93.726 6.412 92.646 6.844V4.684C93.798 4.3 94.914 4.108 95.994 4.108C98.826 4.108 100.242 5.41 100.242 8.014V10.768ZM96.264 9.22C95.748 9.22 95.316 9.316 94.968 9.508C94.62 9.7 94.446 10 94.446 10.408C94.446 10.72 94.572 10.978 94.824 11.182C95.088 11.374 95.412 11.47 95.796 11.47C96.552 11.47 97.2 11.236 97.74 10.768V9.418C97.188 9.286 96.696 9.22 96.264 9.22ZM108.498 4.36H111V13H108.786V11.902C108.006 12.802 107.046 13.252 105.906 13.252C104.778 13.252 103.908 12.922 103.296 12.262C102.696 11.602 102.396 10.75 102.396 9.706V4.36H104.898V9.382C104.898 9.946 105.042 10.372 105.33 10.66C105.618 10.948 106.026 11.092 106.554 11.092C107.322 11.092 107.97 10.726 108.498 9.994V4.36ZM113.77 1.84L116.254 1.246V4.36H118.99V6.466H116.254V9.85C116.254 10.714 116.716 11.146 117.64 11.146C118.192 11.146 118.714 11.05 119.206 10.858V12.874C118.486 13.126 117.712 13.252 116.884 13.252C115.972 13.252 115.222 13.018 114.634 12.55C114.058 12.082 113.77 11.344 113.77 10.336V6.466H112.312V4.36H113.77V1.84ZM124.803 10.192L126.945 4.36H129.537L125.703 14.044C124.851 16.144 123.609 17.194 121.977 17.194C121.629 17.194 121.179 17.128 120.627 16.996V14.926C121.023 15.01 121.365 15.052 121.653 15.052C122.565 15.052 123.249 14.422 123.705 13.162L123.723 13.126L119.637 4.36H122.283L124.803 10.192Z" fill="#1A1466"/>
<path opacity="0.1" d="M171.919 56.2544C164.535 49.8514 155.982 44.5805 146.614 40.6608C132.66 34.9294 117.275 32.1703 101.918 32.0037C56.9965 31.527 53.5763 77.8662 39.7632 84.3184C25.9501 90.7705 0.927645 91.5223 0.0450192 117.292C-0.497796 133.502 3.81383 150.173 15.9323 162.802C27.0313 174.369 43.3334 180.24 59.3972 184.561C77.4381 189.428 96.569 194.199 115.545 190.916C135.021 187.549 148.701 174.009 164.69 164.86C174.761 159.097 183.799 153.033 190.017 143.787C190.758 142.686 191.456 141.555 192.118 140.411C200.441 126.05 202.074 109.48 197.484 93.9365C193.371 79.9743 184.073 66.6941 171.919 56.2544Z" fill="#FAFF00"/>
<g opacity="0.7">
<path d="M136.594 79.7188C135.031 78.1875 133 77.375 130.781 77.4375C128.625 77.4688 126.625 78.375 125.125 80C123.625 81.5938 122.844 83.6875 122.906 85.8125C122.969 87.6563 123.688 89.375 124.875 90.75C121.75 94.625 118.906 96.4375 116.188 96.2188C112.688 95.9375 108.969 92.3125 105.062 85.3438C106.375 84.3125 107.344 82.9375 107.844 81.3125C108.531 79.0938 108.187 76.6875 106.937 74.5C105.594 72.1563 103 70.8438 100 70.9375C99.9687 70.9375 99.9375 70.9375 99.9375 70.9375C96.9375 70.8438 94.3437 72.1563 93 74.5C91.75 76.6875 91.4375 79.125 92.0937 81.3125C92.5937 82.9063 93.5625 84.3125 94.875 85.3438C90.9687 92.2813 87.25 95.9375 83.75 96.2188C81.0313 96.4375 78.1875 94.625 75.0625 90.75C76.25 89.375 76.9375 87.6563 77.0312 85.8125C77.125 83.6875 76.3125 81.5625 74.8125 80C73.3125 78.4063 71.3125 77.5 69.1562 77.4375C66.9687 77.4063 64.9062 78.2188 63.3437 79.7188C61.7812 81.25 60.9375 83.2813 60.9375 85.4688C60.9375 89.6875 64.2188 93.1563 68.3438 93.5L70.6875 116.344C70.9688 119.063 73.2188 121.094 75.9375 121.094H123.906C126.625 121.094 128.906 119.063 129.156 116.344L131.5 93.5C135.656 93.1875 138.906 89.7188 138.906 85.4688C139 83.2813 138.156 81.25 136.594 79.7188ZM130.969 90.4375C130.781 90.4375 130.562 90.4063 130.375 90.4063C129.969 90.3438 129.563 90.4688 129.219 90.7188C128.906 90.9688 128.687 91.3438 128.656 91.7813L126.188 116.031C126.063 117.156 125.125 118 124 118H76C74.875 118 73.9375 117.156 73.8125 116.031L71.3437 91.7813C71.3125 91.375 71.0938 91 70.7812 90.7188C70.5 90.5 70.1562 90.375 69.8125 90.375C69.75 90.375 69.6875 90.375 69.625 90.375C69.4375 90.4063 69.25 90.4063 69.0312 90.4063C66.3125 90.4063 64.0938 88.1875 64.0938 85.4375C64.0938 84.0938 64.625 82.8438 65.5937 81.9063C66.5625 80.9688 67.8437 80.4688 69.1562 80.5C70.4687 80.5313 71.6875 81.0938 72.625 82.0938C73.5625 83.0625 74.0312 84.375 74 85.6563C73.9375 87.0938 73.25 88.4375 72.0938 89.3438C71.4375 89.875 71.3125 90.8125 71.8125 91.5C75.9687 97.0313 79.9688 99.5625 84.0313 99.2813C88.9063 98.9063 93.5937 94.4063 98.3125 85.5313C98.5 85.1563 98.5625 84.7188 98.4063 84.3438C98.2813 83.9375 98 83.625 97.625 83.4375C96.4063 82.8438 95.4687 81.7188 95.0625 80.4375C94.625 79.0313 94.8437 77.5 95.6875 76.0625C96.4375 74.75 97.9688 74 99.7813 74.0313C99.9063 74.0625 100.031 74.0625 100.156 74.0313C101.969 74 103.5 74.7188 104.25 76.0625C105.094 77.5313 105.313 79.0313 104.875 80.4375C104.469 81.75 103.531 82.8438 102.312 83.4375C101.937 83.625 101.656 83.9375 101.531 84.3438C101.406 84.75 101.437 85.1875 101.625 85.5313C106.344 94.4063 111.031 98.9063 115.906 99.2813C120 99.5938 124 97.0625 128.125 91.5C128.625 90.8125 128.5 89.875 127.844 89.3438C126.688 88.4375 126 87.0938 125.938 85.6563C125.875 84.375 126.375 83.0625 127.312 82.0938C128.25 81.0938 129.469 80.5313 130.781 80.5C132.125 80.4688 133.406 80.9688 134.344 81.9063C135.312 82.8438 135.844 84.0938 135.844 85.4375C135.906 88.2188 133.688 90.4375 130.969 90.4375Z" fill="#1A1466"/>
</g>
<path d="M71.2044 154.016C72.2818 153.28 73.4871 152.912 74.8204 152.912C75.9618 152.912 76.8844 153.179 77.5884 153.712C78.2924 154.235 78.6444 154.987 78.6444 155.968C78.6444 156.789 78.3724 157.493 77.8284 158.08C77.2951 158.656 76.5644 159.221 75.6364 159.776C75.5618 159.819 75.4231 159.899 75.2204 160.016C75.0284 160.133 74.8898 160.219 74.8044 160.272C74.7298 160.315 74.6071 160.389 74.4364 160.496C74.2658 160.603 74.1378 160.683 74.0524 160.736C73.9778 160.789 73.8711 160.869 73.7324 160.976C73.6044 161.072 73.5084 161.157 73.4444 161.232C73.3804 161.296 73.3058 161.381 73.2204 161.488C73.1351 161.584 73.0711 161.675 73.0284 161.76C72.9964 161.845 72.9644 161.941 72.9324 162.048C72.9004 162.155 72.8844 162.261 72.8844 162.368L78.7244 162.352V164H70.8364V163.168C70.8364 162.571 70.9164 162.043 71.0764 161.584C71.2471 161.115 71.5404 160.688 71.9564 160.304C72.3831 159.909 72.7138 159.632 72.9484 159.472C73.1831 159.301 73.5991 159.04 74.1964 158.688C74.2498 158.645 74.2924 158.613 74.3244 158.592C74.3671 158.571 74.4098 158.549 74.4524 158.528C75.3484 158.005 75.9244 157.627 76.1804 157.392C76.6071 156.976 76.8204 156.512 76.8204 156C76.8204 155.531 76.6284 155.173 76.2444 154.928C75.8711 154.683 75.3431 154.56 74.6604 154.56C73.4764 154.56 72.3244 154.965 71.2044 155.776V154.016ZM81.5078 162.656C80.6865 161.611 80.2758 160.245 80.2758 158.56C80.2758 156.875 80.6865 155.515 81.5078 154.48C82.3291 153.435 83.5451 152.912 85.1558 152.912C86.7665 152.912 87.9825 153.435 88.8038 154.48C89.6251 155.515 90.0358 156.875 90.0358 158.56C90.0358 160.245 89.6251 161.611 88.8038 162.656C87.9825 163.691 86.7665 164.208 85.1558 164.208C83.5451 164.208 82.3291 163.691 81.5078 162.656ZM85.1558 162.544C87.1825 162.544 88.1958 161.216 88.1958 158.56C88.1958 155.904 87.1825 154.576 85.1558 154.576C83.1291 154.576 82.1158 155.904 82.1158 158.56C82.1158 161.216 83.1291 162.544 85.1558 162.544ZM95.5247 164.96H94.1007L100.645 151.84H102.069L95.5247 164.96ZM96.0207 153.296C96.554 153.755 96.8207 154.395 96.8207 155.216C96.8207 156.037 96.554 156.683 96.0207 157.152C95.498 157.611 94.8527 157.84 94.0847 157.84C93.306 157.84 92.65 157.611 92.1167 157.152C91.5834 156.683 91.3167 156.037 91.3167 155.216C91.3167 154.395 91.5834 153.755 92.1167 153.296C92.65 152.827 93.306 152.592 94.0847 152.592C94.8527 152.592 95.498 152.827 96.0207 153.296ZM93.1087 154.32C92.8954 154.555 92.7887 154.853 92.7887 155.216C92.7887 155.579 92.8954 155.883 93.1087 156.128C93.3327 156.363 93.6527 156.48 94.0687 156.48C94.474 156.48 94.7834 156.363 94.9967 156.128C95.21 155.883 95.3167 155.579 95.3167 155.216C95.3167 154.853 95.21 154.555 94.9967 154.32C94.7834 154.075 94.474 153.952 94.0687 153.952C93.6527 153.952 93.3327 154.075 93.1087 154.32ZM104.037 159.664C104.57 160.123 104.837 160.763 104.837 161.584C104.837 162.405 104.57 163.051 104.037 163.52C103.514 163.979 102.869 164.208 102.101 164.208C101.322 164.208 100.666 163.979 100.133 163.52C99.5994 163.051 99.3327 162.405 99.3327 161.584C99.3327 160.763 99.5994 160.123 100.133 159.664C100.666 159.195 101.322 158.96 102.101 158.96C102.869 158.96 103.514 159.195 104.037 159.664ZM101.141 160.688C100.927 160.923 100.821 161.221 100.821 161.584C100.821 161.947 100.927 162.251 101.141 162.496C101.365 162.731 101.685 162.848 102.101 162.848C102.506 162.848 102.815 162.731 103.029 162.496C103.242 162.251 103.349 161.947 103.349 161.584C103.349 161.221 103.242 160.923 103.029 160.688C102.815 160.443 102.506 160.32 102.101 160.32C101.685 160.32 101.365 160.443 101.141 160.688ZM110.941 163.136C110.13 162.421 109.725 161.429 109.725 160.16C109.725 158.891 110.13 157.899 110.941 157.184C111.762 156.469 112.743 156.112 113.885 156.112C115.037 156.112 116.018 156.469 116.829 157.184C117.639 157.899 118.045 158.891 118.045 160.16C118.045 161.429 117.639 162.421 116.829 163.136C116.018 163.851 115.037 164.208 113.885 164.208C112.743 164.208 111.762 163.851 110.941 163.136ZM115.629 161.968C116.077 161.509 116.301 160.907 116.301 160.16C116.301 159.413 116.077 158.816 115.629 158.368C115.181 157.909 114.599 157.68 113.885 157.68C113.159 157.68 112.573 157.909 112.125 158.368C111.677 158.816 111.453 159.413 111.453 160.16C111.453 160.907 111.677 161.509 112.125 161.968C112.573 162.416 113.159 162.64 113.885 162.64C114.599 162.64 115.181 162.416 115.629 161.968ZM130.092 154.224C129.644 154 129.148 153.888 128.604 153.888C128.124 153.888 127.74 153.989 127.452 154.192C127.174 154.395 127.036 154.773 127.036 155.328V156.32H129.676V157.824H127.036V164H125.324V157.824H121.964V164H120.252V157.824H118.86V156.32H120.252V155.648C120.252 154.709 120.545 153.995 121.132 153.504C121.729 153.003 122.492 152.752 123.42 152.752C124.262 152.752 125.084 152.955 125.884 153.36C126.385 152.709 127.153 152.384 128.188 152.384C128.86 152.384 129.494 152.496 130.092 152.72V154.224ZM121.964 156.32H125.34V155.36C125.34 155.179 125.35 154.949 125.372 154.672C124.902 154.373 124.332 154.224 123.66 154.224C123.137 154.224 122.721 154.347 122.412 154.592C122.113 154.827 121.964 155.179 121.964 155.648V156.32Z" fill="#1A1466"/>
</svg>
