<svg width="200" height="184" viewBox="0 0 200 184" fill="none" xmlns="http://www.w3.org/2000/svg">
<path opacity="0.1" d="M185.462 56.0096C184.055 54.164 182.508 52.3928 180.827 50.7064C167.106 36.9596 149.167 31.1417 128.675 27.2446C107.509 23.2198 82.7257 21.9691 62.4033 29.2243C57.6205 30.9517 53.0752 33.2319 49.4797 36.3412C35.8819 48.0565 31.2179 67.6765 16.0768 83.1853C0.935622 98.694 -6.45051 118.013 7.14302 136.352C12.8967 144.118 20.232 150.516 28.9113 156.148C39.5962 163.058 48.814 172.406 61.1652 177.813C74.1439 183.493 91.4305 185.472 105.796 182.871C122.183 179.903 131.796 168.102 144.304 160.069C154.166 153.726 165.966 149.573 175.629 143.03C190.435 133.011 201.663 116.891 199.797 100.919C197.965 85.4136 195.608 69.3003 185.462 56.0096Z" fill="#FAFF00"/>
<path d="M80.722 145.12H82.066V154.352H84.002V156H78.082V154.352H80.258V146.992L78.082 147.808V146.128L80.722 145.12ZM85.8314 145.12H92.5354V146.752H87.5114L87.3514 149.376C87.874 149.248 88.4234 149.184 88.9994 149.184C90.162 149.184 91.1274 149.467 91.8954 150.032C92.6634 150.587 93.0474 151.461 93.0474 152.656C93.0474 153.787 92.626 154.661 91.7834 155.28C90.9514 155.899 89.906 156.208 88.6474 156.208C87.3354 156.208 86.1727 155.963 85.1594 155.472V153.76C86.0767 154.293 87.17 154.56 88.4394 154.56C89.2714 154.56 89.938 154.395 90.4394 154.064C90.9514 153.733 91.2074 153.259 91.2074 152.64C91.2074 151.339 90.2207 150.688 88.2474 150.688C87.33 150.688 86.4074 150.848 85.4794 151.168L85.8314 145.12ZM98.4231 156.96H96.9991L103.543 143.84H104.967L98.4231 156.96ZM98.9191 145.296C99.4525 145.755 99.7191 146.395 99.7191 147.216C99.7191 148.037 99.4525 148.683 98.9191 149.152C98.3965 149.611 97.7511 149.84 96.9831 149.84C96.2045 149.84 95.5485 149.611 95.0151 149.152C94.4818 148.683 94.2151 148.037 94.2151 147.216C94.2151 146.395 94.4818 145.755 95.0151 145.296C95.5485 144.827 96.2045 144.592 96.9831 144.592C97.7511 144.592 98.3965 144.827 98.9191 145.296ZM96.0071 146.32C95.7938 146.555 95.6871 146.853 95.6871 147.216C95.6871 147.579 95.7938 147.883 96.0071 148.128C96.2311 148.363 96.5511 148.48 96.9671 148.48C97.3725 148.48 97.6818 148.363 97.8951 148.128C98.1085 147.883 98.2151 147.579 98.2151 147.216C98.2151 146.853 98.1085 146.555 97.8951 146.32C97.6818 146.075 97.3725 145.952 96.9671 145.952C96.5511 145.952 96.2311 146.075 96.0071 146.32ZM106.935 151.664C107.468 152.123 107.735 152.763 107.735 153.584C107.735 154.405 107.468 155.051 106.935 155.52C106.412 155.979 105.767 156.208 104.999 156.208C104.22 156.208 103.564 155.979 103.031 155.52C102.498 155.051 102.231 154.405 102.231 153.584C102.231 152.763 102.498 152.123 103.031 151.664C103.564 151.195 104.22 150.96 104.999 150.96C105.767 150.96 106.412 151.195 106.935 151.664ZM104.039 152.688C103.826 152.923 103.719 153.221 103.719 153.584C103.719 153.947 103.826 154.251 104.039 154.496C104.263 154.731 104.583 154.848 104.999 154.848C105.404 154.848 105.714 154.731 105.927 154.496C106.14 154.251 106.247 153.947 106.247 153.584C106.247 153.221 106.14 152.923 105.927 152.688C105.714 152.443 105.404 152.32 104.999 152.32C104.583 152.32 104.263 152.443 104.039 152.688ZM113.839 155.136C113.029 154.421 112.623 153.429 112.623 152.16C112.623 150.891 113.029 149.899 113.839 149.184C114.661 148.469 115.642 148.112 116.783 148.112C117.935 148.112 118.917 148.469 119.727 149.184C120.538 149.899 120.943 150.891 120.943 152.16C120.943 153.429 120.538 154.421 119.727 155.136C118.917 155.851 117.935 156.208 116.783 156.208C115.642 156.208 114.661 155.851 113.839 155.136ZM118.527 153.968C118.975 153.509 119.199 152.907 119.199 152.16C119.199 151.413 118.975 150.816 118.527 150.368C118.079 149.909 117.498 149.68 116.783 149.68C116.058 149.68 115.471 149.909 115.023 150.368C114.575 150.816 114.351 151.413 114.351 152.16C114.351 152.907 114.575 153.509 115.023 153.968C115.471 154.416 116.058 154.64 116.783 154.64C117.498 154.64 118.079 154.416 118.527 153.968ZM132.99 146.224C132.542 146 132.046 145.888 131.502 145.888C131.022 145.888 130.638 145.989 130.35 146.192C130.073 146.395 129.934 146.773 129.934 147.328V148.32H132.574V149.824H129.934V156H128.222V149.824H124.862V156H123.15V149.824H121.758V148.32H123.15V147.648C123.15 146.709 123.444 145.995 124.03 145.504C124.628 145.003 125.39 144.752 126.318 144.752C127.161 144.752 127.982 144.955 128.782 145.36C129.284 144.709 130.052 144.384 131.086 144.384C131.758 144.384 132.393 144.496 132.99 144.72V146.224ZM124.862 148.32H128.238V147.36C128.238 147.179 128.249 146.949 128.27 146.672C127.801 146.373 127.23 146.224 126.558 146.224C126.036 146.224 125.62 146.347 125.31 146.592C125.012 146.827 124.862 147.179 124.862 147.648V148.32Z" fill="#1A1466"/>
<path d="M65.2393 3.73C65.2393 2.566 65.6773 1.678 66.5533 1.066C67.4293 0.453999 68.5273 0.147999 69.8473 0.147999C71.4313 0.147999 72.7933 0.471999 73.9333 1.12V3.64C72.8653 2.872 71.5693 2.5 70.0453 2.524C68.6773 2.548 67.9933 2.938 67.9933 3.694C67.9933 4.03 68.1613 4.324 68.4973 4.576C68.8453 4.828 69.2713 5.032 69.7753 5.188C70.2913 5.332 70.8433 5.524 71.4313 5.764C72.0313 5.992 72.5833 6.244 73.0873 6.52C73.6033 6.784 74.0293 7.18 74.3653 7.708C74.7133 8.236 74.8873 8.848 74.8873 9.544C74.8873 10.228 74.7553 10.816 74.4913 11.308C74.2393 11.8 73.8793 12.184 73.4113 12.46C72.9433 12.736 72.4273 12.934 71.8633 13.054C71.2993 13.186 70.6693 13.252 69.9733 13.252C68.2213 13.252 66.6673 12.874 65.3113 12.118V9.544C66.6553 10.432 68.1433 10.876 69.7753 10.876C71.3473 10.876 72.1333 10.474 72.1333 9.67C72.1333 9.31 71.9593 8.998 71.6113 8.734C71.2753 8.458 70.8493 8.242 70.3333 8.086C69.8293 7.918 69.2773 7.72 68.6773 7.492C68.0893 7.252 67.5373 7 67.0213 6.736C66.5173 6.46 66.0913 6.064 65.7433 5.548C65.4073 5.032 65.2393 4.426 65.2393 3.73ZM76.4253 0.399999H78.9273V5.152C79.6713 4.456 80.5353 4.108 81.5193 4.108C82.6233 4.108 83.4813 4.444 84.0933 5.116C84.7173 5.776 85.0293 6.622 85.0293 7.654V13H82.5273V7.978C82.5273 7.414 82.3713 6.988 82.0593 6.7C81.7593 6.412 81.3573 6.268 80.8533 6.268C80.0733 6.268 79.4313 6.634 78.9273 7.366V13H76.4253V0.399999ZM87.9425 12.046C87.0185 11.242 86.5565 10.12 86.5565 8.68C86.5565 7.24 87.0185 6.118 87.9425 5.314C88.8665 4.51 89.9945 4.108 91.3265 4.108C92.6705 4.108 93.7985 4.51 94.7105 5.314C95.6345 6.118 96.0965 7.24 96.0965 8.68C96.0965 10.12 95.6345 11.242 94.7105 12.046C93.7985 12.85 92.6705 13.252 91.3265 13.252C89.9945 13.252 88.8665 12.85 87.9425 12.046ZM92.9645 10.372C93.3605 9.928 93.5585 9.364 93.5585 8.68C93.5585 7.996 93.3605 7.438 92.9645 7.006C92.5685 6.562 92.0225 6.34 91.3265 6.34C90.6305 6.34 90.0845 6.562 89.6885 7.006C89.3045 7.438 89.1125 7.996 89.1125 8.68C89.1125 9.364 89.3045 9.928 89.6885 10.372C90.0845 10.804 90.6305 11.02 91.3265 11.02C92.0225 11.02 92.5685 10.804 92.9645 10.372ZM99.944 5.62C100.652 4.612 101.696 4.108 103.076 4.108C104.384 4.108 105.41 4.558 106.154 5.458C106.91 6.346 107.288 7.42 107.288 8.68C107.288 9.94 106.91 11.02 106.154 11.92C105.41 12.808 104.384 13.252 103.076 13.252C101.888 13.252 100.94 12.862 100.232 12.082V16.96H97.73V4.36H99.944V5.62ZM104.12 10.444C104.528 9.964 104.732 9.376 104.732 8.68C104.732 7.984 104.528 7.402 104.12 6.934C103.712 6.454 103.16 6.214 102.464 6.214C101.948 6.214 101.486 6.352 101.078 6.628C100.682 6.904 100.394 7.246 100.214 7.654V9.706C100.394 10.114 100.682 10.456 101.078 10.732C101.486 11.008 101.948 11.146 102.464 11.146C103.16 11.146 103.712 10.912 104.12 10.444ZM111.141 5.62C111.849 4.612 112.893 4.108 114.273 4.108C115.581 4.108 116.607 4.558 117.351 5.458C118.107 6.346 118.485 7.42 118.485 8.68C118.485 9.94 118.107 11.02 117.351 11.92C116.607 12.808 115.581 13.252 114.273 13.252C113.085 13.252 112.137 12.862 111.429 12.082V16.96H108.927V4.36H111.141V5.62ZM115.317 10.444C115.725 9.964 115.929 9.376 115.929 8.68C115.929 7.984 115.725 7.402 115.317 6.934C114.909 6.454 114.357 6.214 113.661 6.214C113.145 6.214 112.683 6.352 112.275 6.628C111.879 6.904 111.591 7.246 111.411 7.654V9.706C111.591 10.114 111.879 10.456 112.275 10.732C112.683 11.008 113.145 11.146 113.661 11.146C114.357 11.146 114.909 10.912 115.317 10.444ZM122.645 13H120.143V4.36H122.645V13ZM122.861 1.498C122.861 1.966 122.723 2.32 122.447 2.56C122.171 2.8 121.817 2.92 121.385 2.92C120.965 2.92 120.617 2.8 120.341 2.56C120.065 2.32 119.927 1.966 119.927 1.498C119.927 1.042 120.065 0.693999 120.341 0.454C120.617 0.214 120.965 0.0939999 121.385 0.0939999C121.805 0.0939999 122.153 0.214 122.429 0.454C122.717 0.693999 122.861 1.042 122.861 1.498ZM127.014 5.458C127.794 4.558 128.754 4.108 129.894 4.108C130.998 4.108 131.856 4.444 132.468 5.116C133.092 5.776 133.404 6.622 133.404 7.654V13H130.902V7.978C130.902 7.414 130.746 6.988 130.434 6.7C130.134 6.412 129.732 6.268 129.228 6.268C128.448 6.268 127.806 6.634 127.302 7.366V13H124.8V4.36H127.014V5.458ZM136.065 11.92C135.309 11.02 134.931 9.94 134.931 8.68C134.931 7.42 135.309 6.346 136.065 5.458C136.821 4.558 137.853 4.108 139.161 4.108C140.517 4.108 141.561 4.612 142.293 5.62V4.36H144.489V12.766C144.489 13.558 144.351 14.248 144.075 14.836C143.799 15.436 143.421 15.898 142.941 16.222C142.473 16.558 141.951 16.804 141.375 16.96C140.799 17.128 140.181 17.212 139.521 17.212C138.201 17.212 136.983 16.942 135.867 16.402V14.206C136.875 14.806 137.985 15.106 139.197 15.106C141.069 15.106 142.005 14.362 142.005 12.874V12.082C141.297 12.862 140.349 13.252 139.161 13.252C137.853 13.252 136.821 12.808 136.065 11.92ZM142.005 7.654C141.825 7.246 141.531 6.904 141.123 6.628C140.727 6.352 140.271 6.214 139.755 6.214C139.059 6.214 138.507 6.454 138.099 6.934C137.691 7.402 137.487 7.984 137.487 8.68C137.487 9.376 137.691 9.964 138.099 10.444C138.507 10.912 139.059 11.146 139.755 11.146C140.271 11.146 140.727 11.014 141.123 10.75C141.531 10.486 141.825 10.156 142.005 9.76V7.654Z" fill="#1A1466"/>
<g opacity="0.8" clip-path="url(#clip0_761_250938)">
<path d="M141.257 117.105L88.1315 131.34L76.3113 77.5667L124.608 64.6258L141.257 117.105Z" stroke="#1A1466" stroke-width="3" stroke-linecap="round" stroke-linejoin="round"/>
<path d="M90.3265 81.576L86.4442 67.0871C85.5862 63.8848 86.0354 60.4729 87.693 57.6018C89.3506 54.7308 92.0808 52.6358 95.2831 51.7778V51.7778C96.8686 51.3529 98.5224 51.2445 100.15 51.4588C101.777 51.673 103.347 52.2058 104.768 53.0265C106.19 53.8473 107.436 54.94 108.435 56.2423C109.435 57.5446 110.168 59.031 110.592 60.6166L114.475 75.1055" stroke="#1A1466" stroke-width="3" stroke-linecap="round" stroke-linejoin="round"/>
</g>
<defs>
<clipPath id="clip0_761_250938">
<rect width="80" height="80" fill="white" transform="translate(56 59.7157) rotate(-15)"/>
</clipPath>
</defs>
</svg>
