<svg width="200" height="183" viewBox="0 0 200 183" fill="none" xmlns="http://www.w3.org/2000/svg">
<path d="M75.2819 1.4H85.7039V3.83H81.8339V14H79.1519V3.83H75.2819V1.4ZM87.6403 6.656C87.9643 6.152 88.4323 5.762 89.0443 5.486C89.6563 5.21 90.3523 5.108 91.1323 5.18V7.61C90.4483 7.49 89.8063 7.55 89.2063 7.79C88.6183 8.03 88.1923 8.408 87.9283 8.924V14H85.4263V5.36H87.6403V6.656ZM100.074 11.768C100.074 12.152 100.278 12.344 100.686 12.344C100.854 12.344 101.01 12.32 101.154 12.272V13.91C100.698 14.078 100.236 14.162 99.768 14.162C98.856 14.162 98.22 13.838 97.86 13.19C96.96 13.898 95.922 14.252 94.746 14.252C93.894 14.252 93.174 14.018 92.586 13.55C92.01 13.07 91.722 12.422 91.722 11.606C91.722 10.922 91.926 10.352 92.334 9.896C92.742 9.44 93.216 9.134 93.756 8.978C94.296 8.81 94.884 8.726 95.52 8.726C96.228 8.726 96.912 8.804 97.572 8.96V8.654C97.572 8.21 97.398 7.856 97.05 7.592C96.702 7.328 96.198 7.196 95.538 7.196C94.578 7.196 93.558 7.412 92.478 7.844V5.684C93.63 5.3 94.746 5.108 95.826 5.108C98.658 5.108 100.074 6.41 100.074 9.014V11.768ZM96.096 10.22C95.58 10.22 95.148 10.316 94.8 10.508C94.452 10.7 94.278 11 94.278 11.408C94.278 11.72 94.404 11.978 94.656 12.182C94.92 12.374 95.244 12.47 95.628 12.47C96.384 12.47 97.032 12.236 97.572 11.768V10.418C97.02 10.286 96.528 10.22 96.096 10.22ZM108.001 5.36H110.665L107.101 14H104.473L100.909 5.36H103.573L105.787 11.354L108.001 5.36ZM110.991 9.68C110.991 8.9 111.129 8.21 111.405 7.61C111.681 6.998 112.041 6.518 112.485 6.17C112.941 5.822 113.415 5.558 113.907 5.378C114.411 5.198 114.921 5.108 115.437 5.108C116.301 5.108 117.045 5.27 117.669 5.594C118.305 5.918 118.773 6.338 119.073 6.854C119.373 7.358 119.577 7.934 119.685 8.582C119.805 9.218 119.775 9.854 119.595 10.49H113.511C113.643 11.09 113.991 11.54 114.555 11.84C115.119 12.128 115.785 12.272 116.553 12.272C117.501 12.272 118.371 12.098 119.163 11.75V13.712C118.311 14.072 117.255 14.252 115.995 14.252C114.555 14.252 113.361 13.85 112.413 13.046C111.465 12.242 110.991 11.12 110.991 9.68ZM117.345 8.87C117.405 8.474 117.291 8.066 117.003 7.646C116.715 7.226 116.223 7.016 115.527 7.016C114.975 7.016 114.501 7.184 114.105 7.52C113.709 7.844 113.505 8.294 113.493 8.87H117.345ZM121.357 0.86H123.859V14H121.357V0.86Z" fill="#1A1466"/>
<path opacity="0.1" d="M183.351 63.3444C182.094 62.6809 180.852 62.0045 179.627 61.315C166.382 53.8777 104.401 20.1014 78.2701 23.2003C48.9304 26.6781 -13.3132 103.552 2.54622 126.328C18.4056 149.104 97.6982 188.66 118.711 182.321C139.724 175.982 196.024 106.396 199.592 89.3149C202.637 74.7306 187.763 65.6783 183.351 63.3444Z" fill="#FAFF00"/>
<path d="M74.7454 145.12H76.0894V154.352H78.0254V156H72.1054V154.352H74.2814V146.992L72.1054 147.808V146.128L74.7454 145.12ZM80.3828 154.656C79.5615 153.611 79.1508 152.245 79.1508 150.56C79.1508 148.875 79.5615 147.515 80.3828 146.48C81.2041 145.435 82.4201 144.912 84.0308 144.912C85.6415 144.912 86.8575 145.435 87.6788 146.48C88.5001 147.515 88.9108 148.875 88.9108 150.56C88.9108 152.245 88.5001 153.611 87.6788 154.656C86.8575 155.691 85.6415 156.208 84.0308 156.208C82.4201 156.208 81.2041 155.691 80.3828 154.656ZM84.0308 154.544C86.0575 154.544 87.0708 153.216 87.0708 150.56C87.0708 147.904 86.0575 146.576 84.0308 146.576C82.0041 146.576 80.9908 147.904 80.9908 150.56C80.9908 153.216 82.0041 154.544 84.0308 154.544ZM94.3997 156.96H92.9757L99.5197 143.84H100.944L94.3997 156.96ZM94.8957 145.296C95.429 145.755 95.6957 146.395 95.6957 147.216C95.6957 148.037 95.429 148.683 94.8957 149.152C94.373 149.611 93.7277 149.84 92.9597 149.84C92.181 149.84 91.525 149.611 90.9917 149.152C90.4584 148.683 90.1917 148.037 90.1917 147.216C90.1917 146.395 90.4584 145.755 90.9917 145.296C91.525 144.827 92.181 144.592 92.9597 144.592C93.7277 144.592 94.373 144.827 94.8957 145.296ZM91.9837 146.32C91.7704 146.555 91.6637 146.853 91.6637 147.216C91.6637 147.579 91.7704 147.883 91.9837 148.128C92.2077 148.363 92.5277 148.48 92.9437 148.48C93.349 148.48 93.6584 148.363 93.8717 148.128C94.085 147.883 94.1917 147.579 94.1917 147.216C94.1917 146.853 94.085 146.555 93.8717 146.32C93.6584 146.075 93.349 145.952 92.9437 145.952C92.5277 145.952 92.2077 146.075 91.9837 146.32ZM102.912 151.664C103.445 152.123 103.712 152.763 103.712 153.584C103.712 154.405 103.445 155.051 102.912 155.52C102.389 155.979 101.744 156.208 100.976 156.208C100.197 156.208 99.541 155.979 99.0077 155.52C98.4744 155.051 98.2077 154.405 98.2077 153.584C98.2077 152.763 98.4744 152.123 99.0077 151.664C99.541 151.195 100.197 150.96 100.976 150.96C101.744 150.96 102.389 151.195 102.912 151.664ZM100.016 152.688C99.8024 152.923 99.6957 153.221 99.6957 153.584C99.6957 153.947 99.8024 154.251 100.016 154.496C100.24 154.731 100.56 154.848 100.976 154.848C101.381 154.848 101.69 154.731 101.904 154.496C102.117 154.251 102.224 153.947 102.224 153.584C102.224 153.221 102.117 152.923 101.904 152.688C101.69 152.443 101.381 152.32 100.976 152.32C100.56 152.32 100.24 152.443 100.016 152.688ZM109.816 155.136C109.005 154.421 108.6 153.429 108.6 152.16C108.6 150.891 109.005 149.899 109.816 149.184C110.637 148.469 111.618 148.112 112.76 148.112C113.912 148.112 114.893 148.469 115.704 149.184C116.514 149.899 116.92 150.891 116.92 152.16C116.92 153.429 116.514 154.421 115.704 155.136C114.893 155.851 113.912 156.208 112.76 156.208C111.618 156.208 110.637 155.851 109.816 155.136ZM114.504 153.968C114.952 153.509 115.176 152.907 115.176 152.16C115.176 151.413 114.952 150.816 114.504 150.368C114.056 149.909 113.474 149.68 112.76 149.68C112.034 149.68 111.448 149.909 111 150.368C110.552 150.816 110.328 151.413 110.328 152.16C110.328 152.907 110.552 153.509 111 153.968C111.448 154.416 112.034 154.64 112.76 154.64C113.474 154.64 114.056 154.416 114.504 153.968ZM128.967 146.224C128.519 146 128.023 145.888 127.479 145.888C126.999 145.888 126.615 145.989 126.327 146.192C126.049 146.395 125.911 146.773 125.911 147.328V148.32H128.551V149.824H125.911V156H124.199V149.824H120.839V156H119.127V149.824H117.735V148.32H119.127V147.648C119.127 146.709 119.42 145.995 120.007 145.504C120.604 145.003 121.367 144.752 122.295 144.752C123.137 144.752 123.959 144.955 124.759 145.36C125.26 144.709 126.028 144.384 127.063 144.384C127.735 144.384 128.369 144.496 128.967 144.72V146.224ZM120.839 148.32H124.215V147.36C124.215 147.179 124.225 146.949 124.247 146.672C123.777 146.373 123.207 146.224 122.535 146.224C122.012 146.224 121.596 146.347 121.287 146.592C120.988 146.827 120.839 147.179 120.839 147.648V148.32Z" fill="#1A1466"/>
<g clip-path="url(#clip0_761_250933)">
<path opacity="0.7" d="M117.022 62.9181C113.01 66.9303 100.345 79.5946 100.345 79.5946C100.345 79.5946 69.3261 75.9612 68.8278 75.9116C68.3296 75.862 67.7106 75.727 66.8483 76.4183C65.7951 77.2634 64.4502 78.3716 64.0195 78.7344C63.5325 79.1446 63.3795 79.6833 64.2757 80.0867C65.4432 80.6133 89.4127 90.5273 89.4127 90.5273L75.3639 104.576C75.3639 104.576 67.4736 102.118 66.123 101.696C65.5087 101.503 64.9625 101.859 64.3317 102.459L63.5549 103.236C63.4168 103.374 63.2102 103.581 63.6214 103.923C64.1795 104.389 76.3944 112.312 76.3944 112.312C76.3944 112.312 84.3861 124.476 84.7829 125.085C85.0388 125.48 85.3323 125.289 85.4704 125.151L86.2472 124.375C87.3048 123.297 87.2148 123.234 87.0106 122.583C86.5883 121.233 84.1301 113.342 84.1301 113.342L98.1789 99.2935C98.1789 99.2935 108.093 123.263 108.62 124.431C109.024 125.328 109.563 125.175 109.972 124.687C110.335 124.256 111.443 122.911 112.288 121.858C112.979 120.996 112.844 120.377 112.795 119.878C112.745 119.38 109.113 88.3597 109.113 88.3597C109.113 88.3597 121.777 75.6954 125.789 71.6832C129.951 67.5218 128.285 62.5452 127.223 61.4834C126.161 60.4216 121.166 58.7744 117.022 62.9181Z" stroke="#1A1466" stroke-width="3" stroke-miterlimit="10"/>
</g>
<defs>
<clipPath id="clip0_761_250933">
<rect width="80" height="80" fill="white" transform="translate(100 31.4315) rotate(45)"/>
</clipPath>
</defs>
</svg>
