<svg width="200" height="182" viewBox="0 0 200 182" fill="none" xmlns="http://www.w3.org/2000/svg">
<path opacity="0.1" d="M150.835 30.6835C150.835 30.6835 120.957 14.1473 86.6778 26.7139C52.3983 39.2804 30.5503 71.967 12.1697 98.0017C-6.21089 124.036 -3.41397 154.143 18.1475 171.291C39.709 188.44 59.2531 171.802 92.8447 176.486C126.436 181.17 134.615 187.408 165.57 173.395C196.526 159.383 209.129 116.12 192.886 79.8268C176.643 43.5335 150.835 30.6835 150.835 30.6835Z" fill="#FAFF00"/>
<path d="M71.2044 145.016C72.2818 144.28 73.4871 143.912 74.8204 143.912C75.9618 143.912 76.8844 144.179 77.5884 144.712C78.2924 145.235 78.6444 145.987 78.6444 146.968C78.6444 147.789 78.3724 148.493 77.8284 149.08C77.2951 149.656 76.5644 150.221 75.6364 150.776C75.5618 150.819 75.4231 150.899 75.2204 151.016C75.0284 151.133 74.8898 151.219 74.8044 151.272C74.7298 151.315 74.6071 151.389 74.4364 151.496C74.2658 151.603 74.1378 151.683 74.0524 151.736C73.9778 151.789 73.8711 151.869 73.7324 151.976C73.6044 152.072 73.5084 152.157 73.4444 152.232C73.3804 152.296 73.3058 152.381 73.2204 152.488C73.1351 152.584 73.0711 152.675 73.0284 152.76C72.9964 152.845 72.9644 152.941 72.9324 153.048C72.9004 153.155 72.8844 153.261 72.8844 153.368L78.7244 153.352V155H70.8364V154.168C70.8364 153.571 70.9164 153.043 71.0764 152.584C71.2471 152.115 71.5404 151.688 71.9564 151.304C72.3831 150.909 72.7138 150.632 72.9484 150.472C73.1831 150.301 73.5991 150.04 74.1964 149.688C74.2498 149.645 74.2924 149.613 74.3244 149.592C74.3671 149.571 74.4098 149.549 74.4524 149.528C75.3484 149.005 75.9244 148.627 76.1804 148.392C76.6071 147.976 76.8204 147.512 76.8204 147C76.8204 146.531 76.6284 146.173 76.2444 145.928C75.8711 145.683 75.3431 145.56 74.6604 145.56C73.4764 145.56 72.3244 145.965 71.2044 146.776V145.016ZM81.5078 153.656C80.6865 152.611 80.2758 151.245 80.2758 149.56C80.2758 147.875 80.6865 146.515 81.5078 145.48C82.3291 144.435 83.5451 143.912 85.1558 143.912C86.7665 143.912 87.9825 144.435 88.8038 145.48C89.6251 146.515 90.0358 147.875 90.0358 149.56C90.0358 151.245 89.6251 152.611 88.8038 153.656C87.9825 154.691 86.7665 155.208 85.1558 155.208C83.5451 155.208 82.3291 154.691 81.5078 153.656ZM85.1558 153.544C87.1825 153.544 88.1958 152.216 88.1958 149.56C88.1958 146.904 87.1825 145.576 85.1558 145.576C83.1291 145.576 82.1158 146.904 82.1158 149.56C82.1158 152.216 83.1291 153.544 85.1558 153.544ZM95.5247 155.96H94.1007L100.645 142.84H102.069L95.5247 155.96ZM96.0207 144.296C96.554 144.755 96.8207 145.395 96.8207 146.216C96.8207 147.037 96.554 147.683 96.0207 148.152C95.498 148.611 94.8527 148.84 94.0847 148.84C93.306 148.84 92.65 148.611 92.1167 148.152C91.5834 147.683 91.3167 147.037 91.3167 146.216C91.3167 145.395 91.5834 144.755 92.1167 144.296C92.65 143.827 93.306 143.592 94.0847 143.592C94.8527 143.592 95.498 143.827 96.0207 144.296ZM93.1087 145.32C92.8954 145.555 92.7887 145.853 92.7887 146.216C92.7887 146.579 92.8954 146.883 93.1087 147.128C93.3327 147.363 93.6527 147.48 94.0687 147.48C94.474 147.48 94.7834 147.363 94.9967 147.128C95.21 146.883 95.3167 146.579 95.3167 146.216C95.3167 145.853 95.21 145.555 94.9967 145.32C94.7834 145.075 94.474 144.952 94.0687 144.952C93.6527 144.952 93.3327 145.075 93.1087 145.32ZM104.037 150.664C104.57 151.123 104.837 151.763 104.837 152.584C104.837 153.405 104.57 154.051 104.037 154.52C103.514 154.979 102.869 155.208 102.101 155.208C101.322 155.208 100.666 154.979 100.133 154.52C99.5994 154.051 99.3327 153.405 99.3327 152.584C99.3327 151.763 99.5994 151.123 100.133 150.664C100.666 150.195 101.322 149.96 102.101 149.96C102.869 149.96 103.514 150.195 104.037 150.664ZM101.141 151.688C100.927 151.923 100.821 152.221 100.821 152.584C100.821 152.947 100.927 153.251 101.141 153.496C101.365 153.731 101.685 153.848 102.101 153.848C102.506 153.848 102.815 153.731 103.029 153.496C103.242 153.251 103.349 152.947 103.349 152.584C103.349 152.221 103.242 151.923 103.029 151.688C102.815 151.443 102.506 151.32 102.101 151.32C101.685 151.32 101.365 151.443 101.141 151.688ZM110.941 154.136C110.13 153.421 109.725 152.429 109.725 151.16C109.725 149.891 110.13 148.899 110.941 148.184C111.762 147.469 112.743 147.112 113.885 147.112C115.037 147.112 116.018 147.469 116.829 148.184C117.639 148.899 118.045 149.891 118.045 151.16C118.045 152.429 117.639 153.421 116.829 154.136C116.018 154.851 115.037 155.208 113.885 155.208C112.743 155.208 111.762 154.851 110.941 154.136ZM115.629 152.968C116.077 152.509 116.301 151.907 116.301 151.16C116.301 150.413 116.077 149.816 115.629 149.368C115.181 148.909 114.599 148.68 113.885 148.68C113.159 148.68 112.573 148.909 112.125 149.368C111.677 149.816 111.453 150.413 111.453 151.16C111.453 151.907 111.677 152.509 112.125 152.968C112.573 153.416 113.159 153.64 113.885 153.64C114.599 153.64 115.181 153.416 115.629 152.968ZM130.092 145.224C129.644 145 129.148 144.888 128.604 144.888C128.124 144.888 127.74 144.989 127.452 145.192C127.174 145.395 127.036 145.773 127.036 146.328V147.32H129.676V148.824H127.036V155H125.324V148.824H121.964V155H120.252V148.824H118.86V147.32H120.252V146.648C120.252 145.709 120.545 144.995 121.132 144.504C121.729 144.003 122.492 143.752 123.42 143.752C124.262 143.752 125.084 143.955 125.884 144.36C126.385 143.709 127.153 143.384 128.188 143.384C128.86 143.384 129.494 143.496 130.092 143.72V145.224ZM121.964 147.32H125.34V146.36C125.34 146.179 125.35 145.949 125.372 145.672C124.902 145.373 124.332 145.224 123.66 145.224C123.137 145.224 122.721 145.347 122.412 145.592C122.113 145.827 121.964 146.179 121.964 146.648V147.32Z" fill="#1A1466"/>
<path d="M59.3033 0.399999H69.7253V2.83H65.8553V13H63.1733V2.83H59.3033V0.399999ZM71.6617 5.656C71.9857 5.152 72.4537 4.762 73.0657 4.486C73.6777 4.21 74.3737 4.108 75.1537 4.18V6.61C74.4697 6.49 73.8277 6.55 73.2277 6.79C72.6397 7.03 72.2137 7.408 71.9497 7.924V13H69.4477V4.36H71.6617V5.656ZM84.0955 10.768C84.0955 11.152 84.2995 11.344 84.7075 11.344C84.8755 11.344 85.0315 11.32 85.1755 11.272V12.91C84.7195 13.078 84.2575 13.162 83.7895 13.162C82.8775 13.162 82.2415 12.838 81.8815 12.19C80.9815 12.898 79.9435 13.252 78.7675 13.252C77.9155 13.252 77.1955 13.018 76.6075 12.55C76.0315 12.07 75.7435 11.422 75.7435 10.606C75.7435 9.922 75.9475 9.352 76.3555 8.896C76.7635 8.44 77.2375 8.134 77.7775 7.978C78.3175 7.81 78.9055 7.726 79.5415 7.726C80.2495 7.726 80.9335 7.804 81.5935 7.96V7.654C81.5935 7.21 81.4195 6.856 81.0715 6.592C80.7235 6.328 80.2195 6.196 79.5595 6.196C78.5995 6.196 77.5795 6.412 76.4995 6.844V4.684C77.6515 4.3 78.7675 4.108 79.8475 4.108C82.6795 4.108 84.0955 5.41 84.0955 8.014V10.768ZM80.1175 9.22C79.6015 9.22 79.1695 9.316 78.8215 9.508C78.4735 9.7 78.2995 10 78.2995 10.408C78.2995 10.72 78.4255 10.978 78.6775 11.182C78.9415 11.374 79.2655 11.47 79.6495 11.47C80.4055 11.47 81.0535 11.236 81.5935 10.768V9.418C81.0415 9.286 80.5495 9.22 80.1175 9.22ZM88.5719 5.458C89.3519 4.558 90.3119 4.108 91.4519 4.108C92.5559 4.108 93.4139 4.444 94.0259 5.116C94.6499 5.776 94.9619 6.622 94.9619 7.654V13H92.4599V7.978C92.4599 7.414 92.3039 6.988 91.9919 6.7C91.6919 6.412 91.2899 6.268 90.7859 6.268C90.0059 6.268 89.3639 6.634 88.8599 7.366V13H86.3579V4.36H88.5719V5.458ZM96.5971 6.772C96.5971 5.848 96.9391 5.176 97.6231 4.756C98.3071 4.324 99.1651 4.108 100.197 4.108C101.313 4.108 102.375 4.354 103.383 4.846V6.898C103.011 6.646 102.537 6.436 101.961 6.268C101.397 6.1 100.863 6.016 100.359 6.016C99.5551 6.016 99.1531 6.244 99.1531 6.7C99.1531 6.964 99.3211 7.18 99.6571 7.348C99.9931 7.516 100.401 7.666 100.881 7.798C101.361 7.918 101.835 8.068 102.303 8.248C102.783 8.428 103.191 8.716 103.527 9.112C103.863 9.508 104.031 10 104.031 10.588C104.031 11.236 103.839 11.764 103.455 12.172C103.083 12.58 102.615 12.862 102.051 13.018C101.499 13.174 100.851 13.252 100.107 13.252C98.7271 13.252 97.5811 12.982 96.6691 12.442V10.372C97.6051 10.984 98.7031 11.29 99.9631 11.29C100.971 11.29 101.475 11.074 101.475 10.642C101.475 10.39 101.307 10.18 100.971 10.012C100.635 9.844 100.227 9.694 99.7471 9.562C99.2791 9.43 98.8051 9.274 98.3251 9.094C97.8451 8.902 97.4371 8.614 97.1011 8.23C96.7651 7.834 96.5971 7.348 96.5971 6.772ZM107.767 5.62C108.475 4.612 109.519 4.108 110.899 4.108C112.207 4.108 113.233 4.558 113.977 5.458C114.733 6.346 115.111 7.42 115.111 8.68C115.111 9.94 114.733 11.02 113.977 11.92C113.233 12.808 112.207 13.252 110.899 13.252C109.711 13.252 108.763 12.862 108.055 12.082V16.96H105.553V4.36H107.767V5.62ZM111.943 10.444C112.351 9.964 112.555 9.376 112.555 8.68C112.555 7.984 112.351 7.402 111.943 6.934C111.535 6.454 110.983 6.214 110.287 6.214C109.771 6.214 109.309 6.352 108.901 6.628C108.505 6.904 108.217 7.246 108.037 7.654V9.706C108.217 10.114 108.505 10.456 108.901 10.732C109.309 11.008 109.771 11.146 110.287 11.146C110.983 11.146 111.535 10.912 111.943 10.444ZM117.65 12.046C116.726 11.242 116.264 10.12 116.264 8.68C116.264 7.24 116.726 6.118 117.65 5.314C118.574 4.51 119.702 4.108 121.034 4.108C122.378 4.108 123.506 4.51 124.418 5.314C125.342 6.118 125.804 7.24 125.804 8.68C125.804 10.12 125.342 11.242 124.418 12.046C123.506 12.85 122.378 13.252 121.034 13.252C119.702 13.252 118.574 12.85 117.65 12.046ZM122.672 10.372C123.068 9.928 123.266 9.364 123.266 8.68C123.266 7.996 123.068 7.438 122.672 7.006C122.276 6.562 121.73 6.34 121.034 6.34C120.338 6.34 119.792 6.562 119.396 7.006C119.012 7.438 118.82 7.996 118.82 8.68C118.82 9.364 119.012 9.928 119.396 10.372C119.792 10.804 120.338 11.02 121.034 11.02C121.73 11.02 122.276 10.804 122.672 10.372ZM129.652 5.656C129.976 5.152 130.444 4.762 131.056 4.486C131.668 4.21 132.364 4.108 133.144 4.18V6.61C132.46 6.49 131.818 6.55 131.218 6.79C130.63 7.03 130.204 7.408 129.94 7.924V13H127.438V4.36H129.652V5.656ZM135.117 1.84L137.601 1.246V4.36H140.337V6.466H137.601V9.85C137.601 10.714 138.063 11.146 138.987 11.146C139.539 11.146 140.061 11.05 140.553 10.858V12.874C139.833 13.126 139.059 13.252 138.231 13.252C137.319 13.252 136.569 13.018 135.981 12.55C135.405 12.082 135.117 11.344 135.117 10.336V6.466H133.659V4.36H135.117V1.84Z" fill="#1A1466"/>
<g opacity="0.6">
<path d="M131.999 117.4V122.2C131.999 123.966 130.566 125.4 128.799 125.4H122.399C120.633 125.4 119.199 123.966 119.199 122.2V119" stroke="#1A1466" stroke-width="3" stroke-miterlimit="10"/>
<path d="M80.8 119V122.2C80.8 123.966 79.3664 125.4 77.6 125.4H71.2C69.4352 125.4 68 123.966 68 122.2V117.4" stroke="#1A1466" stroke-width="3" stroke-miterlimit="10"/>
<path d="M133.6 61.4C133.6 53.1424 132 48.6 124 48.6H79.2004C69.6004 48.6 66.4004 51.3424 66.4004 59.8C66.4004 66.2 66.4004 88.4704 66.4004 94.7536C66.4004 103.987 66.4004 112.6 66.4004 112.6C66.4004 117.899 70.7012 119 76.0004 119H124C129.3 119 133.6 117.899 133.6 112.6C133.6 112.6 133.6 105.518 133.6 94.7536C133.6 88.36 133.6 67.8 133.6 61.4Z" stroke="#1A1466" stroke-width="3" stroke-miterlimit="10"/>
<path d="M121.6 112.6C124.693 112.6 127.2 110.093 127.2 107C127.2 103.907 124.693 101.4 121.6 101.4C118.507 101.4 116 103.907 116 107C116 110.093 118.507 112.6 121.6 112.6Z" stroke="#1A1466" stroke-width="3" stroke-miterlimit="10"/>
<path d="M78.4008 112.6C81.4936 112.6 84.0008 110.093 84.0008 107C84.0008 103.907 81.4936 101.4 78.4008 101.4C75.308 101.4 72.8008 103.907 72.8008 107C72.8008 110.093 75.308 112.6 78.4008 112.6Z" stroke="#1A1466" stroke-width="3" stroke-miterlimit="10"/>
<path d="M133.6 67.8H136.8C137.684 67.8 138.4 68.5168 138.4 69.4V82.2C138.4 83.0832 137.684 83.8 136.8 83.8H133.6" stroke="#1A1466" stroke-width="3" stroke-miterlimit="10"/>
<path d="M66.3996 67.8H63.1996C62.3164 67.8 61.5996 68.5168 61.5996 69.4V82.2C61.5996 83.0832 62.3164 83.8 63.1996 83.8H66.3996" stroke="#1A1466" stroke-width="3" stroke-miterlimit="10"/>
<path d="M119.2 58.2C119.2 59.0832 118.485 59.8 117.6 59.8H84.0004C83.1172 59.8 82.4004 59.0832 82.4004 58.2V55C82.4004 54.1168 83.1172 53.4 84.0004 53.4H117.6C118.485 53.4 119.2 54.1168 119.2 55V58.2Z" stroke="#1A1466" stroke-width="3" stroke-miterlimit="10"/>
<path d="M122.401 93.2752L77.6008 93.4C74.4008 93.4 72.8008 91.8 72.8008 88.6C72.8008 83.8 72.8008 74.4256 72.8008 69.4C72.8008 66.2 74.4008 64.6 77.6008 64.6C92.0008 64.6 102.742 64.6 122.401 64.6C125.601 64.6 127.201 66.2 127.201 69.4C127.201 72.6 127.201 86.9632 127.201 88.6C127.201 91.8 124.076 93.2752 122.401 93.2752Z" stroke="#1A1466" stroke-width="3" stroke-miterlimit="10"/>
</g>
</svg>
