<svg width="200" height="192" viewBox="0 0 200 192" fill="none" xmlns="http://www.w3.org/2000/svg">
<path d="M39.643 0.399999H48.517V2.776H42.343V5.458H47.977V7.816H42.343V10.624H48.625V13H39.643V0.399999ZM52.5729 5.458C53.3529 4.558 54.3129 4.108 55.4529 4.108C56.5569 4.108 57.4149 4.444 58.0269 5.116C58.6509 5.776 58.9629 6.622 58.9629 7.654V13H56.4609V7.978C56.4609 7.414 56.3049 6.988 55.9929 6.7C55.6929 6.412 55.2909 6.268 54.7869 6.268C54.0069 6.268 53.3649 6.634 52.8609 7.366V13H50.3589V4.36H52.5729V5.458ZM61.5538 1.84L64.0378 1.246V4.36H66.7738V6.466H64.0378V9.85C64.0378 10.714 64.4998 11.146 65.4238 11.146C65.9758 11.146 66.4978 11.05 66.9898 10.858V12.874C66.2698 13.126 65.4958 13.252 64.6678 13.252C63.7558 13.252 63.0058 13.018 62.4178 12.55C61.8418 12.082 61.5538 11.344 61.5538 10.336V6.466H60.0958V4.36H61.5538V1.84ZM67.9432 8.68C67.9432 7.9 68.0812 7.21 68.3572 6.61C68.6332 5.998 68.9932 5.518 69.4372 5.17C69.8932 4.822 70.3672 4.558 70.8592 4.378C71.3632 4.198 71.8732 4.108 72.3892 4.108C73.2532 4.108 73.9972 4.27 74.6212 4.594C75.2572 4.918 75.7252 5.338 76.0252 5.854C76.3252 6.358 76.5292 6.934 76.6372 7.582C76.7572 8.218 76.7272 8.854 76.5472 9.49H70.4632C70.5952 10.09 70.9432 10.54 71.5072 10.84C72.0712 11.128 72.7372 11.272 73.5052 11.272C74.4532 11.272 75.3232 11.098 76.1152 10.75V12.712C75.2632 13.072 74.2072 13.252 72.9472 13.252C71.5072 13.252 70.3132 12.85 69.3652 12.046C68.4172 11.242 67.9432 10.12 67.9432 8.68ZM74.2972 7.87C74.3572 7.474 74.2432 7.066 73.9552 6.646C73.6672 6.226 73.1752 6.016 72.4792 6.016C71.9272 6.016 71.4532 6.184 71.0572 6.52C70.6612 6.844 70.4572 7.294 70.4452 7.87H74.2972ZM80.4869 5.656C80.8109 5.152 81.2789 4.762 81.8909 4.486C82.5029 4.21 83.1989 4.108 83.9789 4.18V6.61C83.2949 6.49 82.6529 6.55 82.0529 6.79C81.4649 7.03 81.0389 7.408 80.7749 7.924V13H78.2729V4.36H80.4869V5.656ZM85.9522 1.84L88.4362 1.246V4.36H91.1722V6.466H88.4362V9.85C88.4362 10.714 88.8982 11.146 89.8222 11.146C90.3742 11.146 90.8962 11.05 91.3882 10.858V12.874C90.6682 13.126 89.8942 13.252 89.0662 13.252C88.1542 13.252 87.4042 13.018 86.8162 12.55C86.2402 12.082 85.9522 11.344 85.9522 10.336V6.466H84.4942V4.36H85.9522V1.84ZM100.55 10.768C100.55 11.152 100.754 11.344 101.162 11.344C101.33 11.344 101.486 11.32 101.63 11.272V12.91C101.174 13.078 100.712 13.162 100.244 13.162C99.3316 13.162 98.6956 12.838 98.3356 12.19C97.4356 12.898 96.3976 13.252 95.2216 13.252C94.3696 13.252 93.6496 13.018 93.0616 12.55C92.4856 12.07 92.1976 11.422 92.1976 10.606C92.1976 9.922 92.4016 9.352 92.8096 8.896C93.2176 8.44 93.6916 8.134 94.2316 7.978C94.7716 7.81 95.3596 7.726 95.9956 7.726C96.7036 7.726 97.3876 7.804 98.0476 7.96V7.654C98.0476 7.21 97.8736 6.856 97.5256 6.592C97.1776 6.328 96.6736 6.196 96.0136 6.196C95.0536 6.196 94.0336 6.412 92.9536 6.844V4.684C94.1056 4.3 95.2216 4.108 96.3016 4.108C99.1336 4.108 100.55 5.41 100.55 8.014V10.768ZM96.5716 9.22C96.0556 9.22 95.6236 9.316 95.2756 9.508C94.9276 9.7 94.7536 10 94.7536 10.408C94.7536 10.72 94.8796 10.978 95.1316 11.182C95.3956 11.374 95.7196 11.47 96.1036 11.47C96.8596 11.47 97.5076 11.236 98.0476 10.768V9.418C97.4956 9.286 97.0036 9.22 96.5716 9.22ZM105.332 13H102.83V4.36H105.332V13ZM105.548 1.498C105.548 1.966 105.41 2.32 105.134 2.56C104.858 2.8 104.504 2.92 104.072 2.92C103.652 2.92 103.304 2.8 103.028 2.56C102.752 2.32 102.614 1.966 102.614 1.498C102.614 1.042 102.752 0.693999 103.028 0.454C103.304 0.214 103.652 0.0939999 104.072 0.0939999C104.492 0.0939999 104.84 0.214 105.116 0.454C105.404 0.693999 105.548 1.042 105.548 1.498ZM109.702 5.458C110.482 4.558 111.442 4.108 112.582 4.108C113.686 4.108 114.544 4.444 115.156 5.116C115.78 5.776 116.092 6.622 116.092 7.654V13H113.59V7.978C113.59 7.414 113.434 6.988 113.122 6.7C112.822 6.412 112.42 6.268 111.916 6.268C111.136 6.268 110.494 6.634 109.99 7.366V13H107.488V4.36H109.702V5.458ZM120.607 13H118.105V4.36H120.319V5.368C120.595 5.044 120.973 4.756 121.453 4.504C121.933 4.24 122.473 4.108 123.073 4.108C124.261 4.108 125.143 4.534 125.719 5.386C126.595 4.534 127.555 4.108 128.599 4.108C129.703 4.108 130.513 4.456 131.029 5.152C131.557 5.836 131.821 6.628 131.821 7.528V13H129.337V7.69C129.337 7.246 129.211 6.898 128.959 6.646C128.719 6.394 128.395 6.268 127.987 6.268C127.351 6.268 126.781 6.556 126.277 7.132C126.289 7.216 126.295 7.348 126.295 7.528V13H123.811V7.69C123.811 7.246 123.685 6.898 123.433 6.646C123.193 6.394 122.869 6.268 122.461 6.268C121.753 6.268 121.135 6.616 120.607 7.312V13ZM133.369 8.68C133.369 7.9 133.507 7.21 133.783 6.61C134.059 5.998 134.419 5.518 134.863 5.17C135.319 4.822 135.793 4.558 136.285 4.378C136.789 4.198 137.299 4.108 137.815 4.108C138.679 4.108 139.423 4.27 140.047 4.594C140.683 4.918 141.151 5.338 141.451 5.854C141.751 6.358 141.955 6.934 142.063 7.582C142.183 8.218 142.153 8.854 141.973 9.49H135.889C136.021 10.09 136.369 10.54 136.933 10.84C137.497 11.128 138.163 11.272 138.931 11.272C139.879 11.272 140.749 11.098 141.541 10.75V12.712C140.689 13.072 139.633 13.252 138.373 13.252C136.933 13.252 135.739 12.85 134.791 12.046C133.843 11.242 133.369 10.12 133.369 8.68ZM139.723 7.87C139.783 7.474 139.669 7.066 139.381 6.646C139.093 6.226 138.601 6.016 137.905 6.016C137.353 6.016 136.879 6.184 136.483 6.52C136.087 6.844 135.883 7.294 135.871 7.87H139.723ZM145.913 5.458C146.693 4.558 147.653 4.108 148.793 4.108C149.897 4.108 150.755 4.444 151.367 5.116C151.991 5.776 152.303 6.622 152.303 7.654V13H149.801V7.978C149.801 7.414 149.645 6.988 149.333 6.7C149.033 6.412 148.631 6.268 148.127 6.268C147.347 6.268 146.705 6.634 146.201 7.366V13H143.699V4.36H145.913V5.458ZM154.894 1.84L157.378 1.246V4.36H160.114V6.466H157.378V9.85C157.378 10.714 157.84 11.146 158.764 11.146C159.316 11.146 159.838 11.05 160.33 10.858V12.874C159.61 13.126 158.836 13.252 158.008 13.252C157.096 13.252 156.346 13.018 155.758 12.55C155.182 12.082 154.894 11.344 154.894 10.336V6.466H153.436V4.36H154.894V1.84Z" fill="#1A1466"/>
<path opacity="0.1" d="M66.3218 188.684C66.3218 188.684 99.5184 199.42 131.716 182.258C163.915 165.095 179.812 131.108 193.489 103.878C207.166 76.6469 198.688 48.9628 173.751 36.3615C148.814 23.7601 132.233 42.3778 97.5038 43.3242C62.7744 44.2706 53.3716 39.7454 24.8042 57.711C-3.76329 75.6767 -8.3968 118.105 14.7795 149.464C37.9558 180.822 66.3218 188.684 66.3218 188.684Z" fill="#FAFF00"/>
<path d="M74.7454 153.12H76.0894V162.352H78.0254V164H72.1054V162.352H74.2814V154.992L72.1054 155.808V154.128L74.7454 153.12ZM80.3828 162.656C79.5615 161.611 79.1508 160.245 79.1508 158.56C79.1508 156.875 79.5615 155.515 80.3828 154.48C81.2041 153.435 82.4201 152.912 84.0308 152.912C85.6415 152.912 86.8575 153.435 87.6788 154.48C88.5001 155.515 88.9108 156.875 88.9108 158.56C88.9108 160.245 88.5001 161.611 87.6788 162.656C86.8575 163.691 85.6415 164.208 84.0308 164.208C82.4201 164.208 81.2041 163.691 80.3828 162.656ZM84.0308 162.544C86.0575 162.544 87.0708 161.216 87.0708 158.56C87.0708 155.904 86.0575 154.576 84.0308 154.576C82.0041 154.576 80.9908 155.904 80.9908 158.56C80.9908 161.216 82.0041 162.544 84.0308 162.544ZM94.3997 164.96H92.9757L99.5197 151.84H100.944L94.3997 164.96ZM94.8957 153.296C95.429 153.755 95.6957 154.395 95.6957 155.216C95.6957 156.037 95.429 156.683 94.8957 157.152C94.373 157.611 93.7277 157.84 92.9597 157.84C92.181 157.84 91.525 157.611 90.9917 157.152C90.4584 156.683 90.1917 156.037 90.1917 155.216C90.1917 154.395 90.4584 153.755 90.9917 153.296C91.525 152.827 92.181 152.592 92.9597 152.592C93.7277 152.592 94.373 152.827 94.8957 153.296ZM91.9837 154.32C91.7704 154.555 91.6637 154.853 91.6637 155.216C91.6637 155.579 91.7704 155.883 91.9837 156.128C92.2077 156.363 92.5277 156.48 92.9437 156.48C93.349 156.48 93.6584 156.363 93.8717 156.128C94.085 155.883 94.1917 155.579 94.1917 155.216C94.1917 154.853 94.085 154.555 93.8717 154.32C93.6584 154.075 93.349 153.952 92.9437 153.952C92.5277 153.952 92.2077 154.075 91.9837 154.32ZM102.912 159.664C103.445 160.123 103.712 160.763 103.712 161.584C103.712 162.405 103.445 163.051 102.912 163.52C102.389 163.979 101.744 164.208 100.976 164.208C100.197 164.208 99.541 163.979 99.0077 163.52C98.4744 163.051 98.2077 162.405 98.2077 161.584C98.2077 160.763 98.4744 160.123 99.0077 159.664C99.541 159.195 100.197 158.96 100.976 158.96C101.744 158.96 102.389 159.195 102.912 159.664ZM100.016 160.688C99.8024 160.923 99.6957 161.221 99.6957 161.584C99.6957 161.947 99.8024 162.251 100.016 162.496C100.24 162.731 100.56 162.848 100.976 162.848C101.381 162.848 101.69 162.731 101.904 162.496C102.117 162.251 102.224 161.947 102.224 161.584C102.224 161.221 102.117 160.923 101.904 160.688C101.69 160.443 101.381 160.32 100.976 160.32C100.56 160.32 100.24 160.443 100.016 160.688ZM109.816 163.136C109.005 162.421 108.6 161.429 108.6 160.16C108.6 158.891 109.005 157.899 109.816 157.184C110.637 156.469 111.618 156.112 112.76 156.112C113.912 156.112 114.893 156.469 115.704 157.184C116.514 157.899 116.92 158.891 116.92 160.16C116.92 161.429 116.514 162.421 115.704 163.136C114.893 163.851 113.912 164.208 112.76 164.208C111.618 164.208 110.637 163.851 109.816 163.136ZM114.504 161.968C114.952 161.509 115.176 160.907 115.176 160.16C115.176 159.413 114.952 158.816 114.504 158.368C114.056 157.909 113.474 157.68 112.76 157.68C112.034 157.68 111.448 157.909 111 158.368C110.552 158.816 110.328 159.413 110.328 160.16C110.328 160.907 110.552 161.509 111 161.968C111.448 162.416 112.034 162.64 112.76 162.64C113.474 162.64 114.056 162.416 114.504 161.968ZM128.967 154.224C128.519 154 128.023 153.888 127.479 153.888C126.999 153.888 126.615 153.989 126.327 154.192C126.049 154.395 125.911 154.773 125.911 155.328V156.32H128.551V157.824H125.911V164H124.199V157.824H120.839V164H119.127V157.824H117.735V156.32H119.127V155.648C119.127 154.709 119.42 153.995 120.007 153.504C120.604 153.003 121.367 152.752 122.295 152.752C123.137 152.752 123.959 152.955 124.759 153.36C125.26 152.709 126.028 152.384 127.063 152.384C127.735 152.384 128.369 152.496 128.967 152.72V154.224ZM120.839 156.32H124.215V155.36C124.215 155.179 124.225 154.949 124.247 154.672C123.777 154.373 123.207 154.224 122.535 154.224C122.012 154.224 121.596 154.347 121.287 154.592C120.988 154.827 120.839 155.179 120.839 155.648V156.32Z" fill="#1A1466"/>
<g opacity="0.6">
<path d="M107.348 56L118.499 102.222C118.028 102.326 117.619 102.597 117.357 102.977C117.096 103.358 117.002 103.818 117.097 104.261V104.292C117.207 104.739 117.501 105.127 117.915 105.372C118.329 105.618 118.829 105.703 119.309 105.607L125 129.199L92.6601 136L86.9673 112.406C87.4479 112.304 87.8656 112.028 88.1294 111.639C88.3931 111.25 88.4816 110.779 88.3754 110.33V110.297C88.2558 109.857 87.9572 109.478 87.5431 109.24C87.129 109.002 86.6319 108.924 86.1573 109.023V109.023L75 62.7995L107.348 56Z" stroke="#1A1466" stroke-width="3" stroke-miterlimit="10"/>
<path d="M88.377 110.314L116.877 104.323" stroke="#1A1466" stroke-width="3" stroke-linecap="round" stroke-linejoin="round" stroke-dasharray="5 5"/>
</g>
</svg>
