<svg width="160" height="140" viewBox="0 0 160 140" fill="none" xmlns="http://www.w3.org/2000/svg">
<path opacity="0.03" d="M79.2939 138.716C79.2939 138.716 109.165 145.765 130.635 126.828C152.105 107.89 155.744 90.7761 159.428 64.0636C163.112 37.3511 148.691 12.2022 125.012 2.65897C101.333 -6.8843 92.9472 12.0254 65.0145 16.0172C37.0818 20.009 28.2072 16.6222 9.92071 36.0153C-8.36579 55.4083 -0.581808 79.3863 26.7692 106.645C54.1202 133.904 79.2939 138.716 79.2939 138.716Z" fill="#3E1BDB"/>
<g opacity="0.4" clip-path="url(#clip0_761_250922)">
<path d="M131.427 47.1344L127.571 44.2844L129.146 38.408C129.226 38.1083 129.208 37.7914 129.094 37.5074C128.98 37.2233 128.777 36.9881 128.517 36.8389C109.46 25.8872 98.5369 30.2826 94.8146 32.5858C92.7453 28.7285 85.4893 19.4551 63.5008 19.4178C63.2011 19.4171 62.9078 19.5193 62.6672 19.7084C62.4266 19.8975 62.2523 20.1628 62.1717 20.4624L60.5972 26.3388L55.8327 26.8788C55.5608 26.9119 55.3036 27.0291 55.0947 27.2149C54.8859 27.4007 54.7353 27.6465 54.6628 27.9197L41.727 76.1967C41.6621 76.4396 41.6615 76.6948 41.7252 76.9355C41.7888 77.1762 41.9144 77.3937 42.0888 77.5649C42.2519 77.7231 42.4509 77.8367 42.6683 77.8958C42.919 77.9625 43.1842 77.9533 43.4327 77.8695C61.8862 71.5396 81.0553 81.9411 81.2469 82.0409C81.2656 82.046 81.2822 82.0504 81.3009 82.0554C81.3282 82.0689 81.3564 82.0803 81.3853 82.0896C81.4815 82.1524 81.5947 82.1828 81.7095 82.1765C81.7392 82.1829 81.7693 82.1871 81.7997 82.1891C81.8163 82.1935 81.835 82.1985 81.8537 82.2035C82.0748 82.2096 103.874 82.7878 116.687 97.4981C116.861 97.6949 117.086 97.8354 117.336 97.903C117.554 97.9606 117.783 97.9616 118.004 97.9062C118.24 97.8451 118.458 97.7196 118.633 97.543C118.809 97.3663 118.936 97.145 119.001 96.9022L131.937 48.6253C132.01 48.35 132 48.0597 131.909 47.7933C131.818 47.5269 131.65 47.297 131.427 47.1344ZM126.259 38.767L114.64 82.1293C98.7308 73.4519 88.7392 75.6515 84.083 77.8408L95.4367 35.4683C97.1974 34.1511 107.021 28.0742 126.259 38.767ZM64.4927 22.2168C86.3486 22.5745 91.9401 32.7563 92.8324 34.7797L81.481 77.1436C79.3727 74.1218 74.9008 69.7293 65.879 67.312C62.3044 66.3541 58.0115 65.7077 52.8738 65.5792L64.4927 22.2168ZM44.9624 74.505L57.0095 29.5447L59.8235 29.2263L49.8086 66.6023C49.7535 66.8082 49.7445 67.0235 49.7824 67.2318C49.8202 67.44 49.9039 67.6357 50.0269 67.8039C50.15 67.972 50.3091 68.1081 50.4923 68.2019C50.6755 68.2956 50.8777 68.3444 51.0836 68.3446C67.3764 68.3742 74.9152 73.7572 78.2386 77.5645C71.6659 74.8442 58.5223 70.7677 44.9624 74.505ZM117.028 93.815C107.119 83.7636 93.6335 80.7373 86.6132 79.8201C91.3367 78.1527 100.538 77.2159 114.809 85.4199C114.988 85.5237 115.188 85.5831 115.394 85.5934C115.6 85.6036 115.806 85.5645 115.996 85.479C116.187 85.3947 116.356 85.2671 116.493 85.1058C116.63 84.9446 116.729 84.754 116.785 84.5485L126.8 47.1725L129.077 48.8553L117.028 93.815Z" fill="#8A86B2"/>
</g>
<defs>
<clipPath id="clip0_761_250922">
<rect width="80" height="80" fill="white" transform="translate(60 8) rotate(15)"/>
</clipPath>
</defs>
</svg>
