<svg width="160" height="222" viewBox="0 0 160 222" fill="none" xmlns="http://www.w3.org/2000/svg">
<g opacity="0.5">
<path d="M69.998 159.309C69.998 159.309 85.8609 139.623 95.2323 141.406C104.604 143.189 86.0895 159.852 86.0895 159.852" stroke="#8A86B2" stroke-width="1.5" stroke-linecap="round" stroke-linejoin="round"/>
<path d="M40 205.069L47.52 221L83.8286 219.536L100 165.225L90.9257 159.379L60.3886 157.962L60.2743 158.257L40 205.069Z" stroke="#8A86B2" stroke-width="1.5" stroke-linecap="round" stroke-linejoin="round"/>
<path d="M61.9082 159.851L64.8682 162.721L66.6968 169.913L95.1196 165.26" stroke="#8A86B2" stroke-width="1.5" stroke-linecap="round" stroke-linejoin="round"/>
<path d="M65.714 174.058L49.8968 217.729L49.3139 204.928L43.3711 204.798" stroke="#8A86B2" stroke-width="1.5" stroke-linecap="round" stroke-linejoin="round"/>
<path d="M55.6914 188.725L61.6343 173.066" stroke="#8A86B2" stroke-width="1.5" stroke-linecap="round" stroke-linejoin="round"/>
<path d="M51.1875 200.641C52.3304 197.795 53.3475 194.96 54.4218 192.114" stroke="#8A86B2" stroke-width="1.5" stroke-linecap="round" stroke-linejoin="round"/>
<path d="M78.2617 169.937C78.2617 169.937 89.0046 141.382 95.9989 141.004C102.993 140.626 93.7932 167.185 93.7932 167.185" stroke="#8A86B2" stroke-width="1.5" stroke-linecap="round" stroke-linejoin="round"/>
<path d="M90.7082 145.054C90.7082 145.054 86.8682 150.64 86.5254 154.903" stroke="#8A86B2" stroke-width="1.5" stroke-linecap="round" stroke-linejoin="round"/>
</g>
<path opacity="0.03" d="M137.535 74.2226C131.628 68.62 124.786 64.0079 117.291 60.5782C106.128 55.5632 93.8203 53.149 81.5342 53.0032C45.5972 52.5861 42.861 93.1329 31.8106 98.7786C20.7601 104.424 0.742116 105.082 0.0360154 127.631C-0.398237 141.814 3.05107 156.401 12.7458 167.452C21.625 177.573 34.6667 182.71 47.5178 186.491C61.9505 190.75 77.2552 194.924 92.4364 192.052C108.016 189.105 118.961 177.258 131.752 169.252C139.809 164.21 147.039 158.904 152.014 150.813C152.607 149.85 153.165 148.86 153.694 147.86C160.353 135.294 161.659 120.795 157.987 107.194C154.697 94.9775 147.258 83.3574 137.535 74.2226Z" fill="#3E1BDB"/>
<g opacity="0.3">
<path d="M52.8343 81.2499C70.7507 82.6738 86.8491 69.7462 90.0717 51.9619C91.1278 51.6829 91.9589 50.7619 92.0709 49.5991C92.1804 48.4616 91.5734 47.4454 90.6256 46.988C91.3865 28.5305 77.8328 12.7052 59.576 11.2543C50.4011 10.5252 41.6986 13.5716 34.9592 19.0983C34.6569 18.9342 34.3175 18.8308 33.9522 18.8017C32.5159 18.6876 31.2314 19.7827 31.0896 21.2552C31.0452 21.7165 31.1276 22.1561 31.301 22.5583C26.1594 28.1419 22.7023 35.4068 21.919 43.5401C21.6171 46.6746 21.7274 49.8037 22.2375 52.8626C21.9947 53.1172 21.8188 53.4534 21.7823 53.8326C21.6983 54.7047 22.3235 55.4676 23.1778 55.5355C24.0322 55.6034 24.7937 54.9507 24.8777 54.0786C24.9404 53.4277 24.6101 52.841 24.0829 52.5508C23.5953 49.6465 23.4895 46.6642 23.7762 43.6877C24.5139 36.0284 27.763 29.1736 32.6006 23.8969C32.8639 24.0134 33.1426 24.0992 33.4397 24.1228C34.876 24.237 36.1605 23.1419 36.3023 21.6694C36.3407 21.2713 36.2843 20.8847 36.1624 20.5312C42.5272 15.3313 50.738 12.4687 59.3928 13.1565C76.622 14.5257 89.4276 29.4383 88.7609 46.8526C87.7518 47.1608 86.9659 48.0663 86.8576 49.1912C86.7517 50.2908 87.3166 51.2909 88.2125 51.7696C85.1195 68.5326 69.9236 80.704 53.0102 79.3599C47.6303 78.9324 42.432 77.1374 37.9833 74.1666C38.0401 73.3178 37.4249 72.5812 36.5891 72.5148C35.7348 72.4469 34.9732 73.0996 34.8892 73.9717C34.8052 74.8438 35.4304 75.6067 36.2848 75.6746C36.5386 75.6948 36.7806 75.6439 37.0014 75.5532L36.8847 75.7286C41.6091 78.8805 47.1202 80.7958 52.8343 81.2499ZM33.5627 22.8463C32.8074 22.7862 32.2548 22.1119 32.329 21.3409C32.4033 20.5699 33.0764 19.993 33.8317 20.053C34.587 20.113 35.1396 20.7874 35.0654 21.5584C34.9911 22.3294 34.318 22.9063 33.5627 22.8463ZM88.0963 49.2833C88.1706 48.5123 88.8438 47.9353 89.5991 47.9954C90.3543 48.0554 90.907 48.7297 90.8327 49.5007C90.7585 50.2717 90.0853 50.8486 89.33 50.7886C88.5747 50.7286 88.0221 50.0542 88.0963 49.2833Z" fill="#8A86B2"/>
<path d="M95.6406 49.3818C96.3251 42.2749 95.142 35.4588 92.526 29.4073C92.6315 29.2183 92.6955 29.007 92.718 28.7732C92.8032 27.8888 92.167 27.1126 91.3007 27.0437C90.4343 26.9749 89.6595 27.639 89.5743 28.5234C89.4916 29.3826 90.0924 30.1369 90.9241 30.2412L90.863 30.2936C93.3276 36.0403 94.4327 42.5001 93.7841 49.2342C92.8143 59.3039 88.1065 68.1726 81.2085 74.531C80.9007 74.3602 80.5559 74.25 80.1846 74.2205C78.7489 74.1064 77.4649 75.2011 77.3232 76.673C77.2915 77.0015 77.3292 77.3228 77.4064 77.6217C70.3485 82.6625 61.634 85.3501 52.4939 84.6237C43.2485 83.8889 35.1071 79.7854 29.1 73.5917C29.274 73.2745 29.3823 72.9266 29.4188 72.5476C29.56 71.082 28.5116 69.7956 27.0697 69.681C26.6613 69.6485 26.274 69.7196 25.9173 69.8631C20.4851 62.5565 17.639 53.1957 18.596 43.2587C20.4888 23.6058 36.6018 8.52044 55.4979 7.78787C55.8748 8.60079 56.6529 9.19734 57.6059 9.27308C58.6642 9.35718 59.6297 8.78463 60.127 7.89477C65.7609 8.38071 70.9878 10.1138 75.5543 12.8129C75.5537 12.8192 75.5537 12.8192 75.5531 12.8255C75.4679 13.7099 76.104 14.4862 76.9704 14.555C77.8368 14.6239 78.6116 13.9598 78.6968 13.0754C78.7819 12.1909 78.1458 11.4147 77.2795 11.3459C77.131 11.3341 76.9862 11.348 76.8458 11.3814C71.99 8.44927 66.4237 6.54917 60.4011 6.01961C60.1704 4.91912 59.2743 4.05857 58.1108 3.96611C56.8484 3.86578 55.7076 4.70449 55.3488 5.90454C35.5711 6.72619 18.715 22.5355 16.7327 43.117C15.7239 53.591 18.7454 63.4622 24.503 71.1448C24.3495 71.4445 24.2424 71.7797 24.2077 72.1398C24.0665 73.6054 25.1149 74.8918 26.5568 75.0064C26.9405 75.0369 27.3141 74.9775 27.6573 74.8456C33.9725 81.4012 42.5518 85.7496 52.3046 86.5247C61.9212 87.289 71.0865 84.4526 78.501 79.141C78.8417 79.359 79.2323 79.511 79.6655 79.5454C81.1012 79.6595 82.3852 78.5649 82.5269 77.0929C82.5647 76.7013 82.5139 76.3217 82.3915 75.9746C89.6571 69.2952 94.6203 59.9758 95.6406 49.3818ZM57.9898 5.22324C58.7447 5.28324 59.2972 5.95734 59.2229 6.72804C59.1487 7.49874 58.4758 8.07546 57.7208 8.01546C56.9659 7.95546 56.4134 7.28136 56.4877 6.51066C56.5619 5.73996 57.2348 5.16324 57.9898 5.22324ZM26.6791 73.7366C25.9241 73.6766 25.3717 73.0025 25.4459 72.2318C25.5202 71.4611 26.193 70.8844 26.948 70.9444C27.703 71.0044 28.2554 71.6785 28.1812 72.4492C28.1069 73.2199 27.4341 73.7966 26.6791 73.7366ZM79.794 78.2762C79.039 78.2162 78.4866 77.5421 78.5608 76.7714C78.6351 76.0007 79.3079 75.424 80.0629 75.484C80.8179 75.544 81.3703 76.2181 81.2961 76.9888C81.2218 77.7595 80.5428 78.3357 79.794 78.2762Z" fill="#8A86B2"/>
<path d="M30.5994 62.1905C30.7603 62.2033 30.9169 62.1966 31.0684 62.1769C35.696 69.8855 43.7515 75.288 53.3206 76.0484C57.8328 76.407 62.2517 75.7268 66.4629 74.0305C66.663 74.1546 66.8859 74.236 67.1335 74.2557C67.9876 74.3236 68.749 73.671 68.833 72.7991C68.917 71.9271 68.2919 71.1644 67.4377 71.0965C66.6764 71.036 65.9977 71.5423 65.7965 72.2713C61.8581 73.8556 57.7306 74.4889 53.5093 74.1534C44.6087 73.4461 37.1066 68.4505 32.7615 61.3055C33.1451 60.8839 33.4091 60.3446 33.4682 59.7317C33.6093 58.2659 32.5607 56.9792 31.1186 56.8646C30.9391 56.8503 30.7639 56.8555 30.5937 56.8738C29.0766 52.9396 28.4234 48.5838 28.8591 44.0598C30.3416 28.6683 43.8154 17.1202 58.8932 18.3185C64.3339 18.7508 69.2455 20.7902 73.24 23.9344C73.1636 24.1448 73.1051 24.363 73.0832 24.5905C72.942 26.0564 73.9907 27.343 75.4328 27.4576C75.8909 27.494 76.3307 27.3953 76.7228 27.21C81.6346 32.7446 84.3304 40.3061 83.5509 48.3999C83.1754 52.2984 82.0396 55.9963 80.1824 59.4141C79.4343 59.4756 78.8027 60.0748 78.7267 60.8646C78.6427 61.7365 79.2678 62.4993 80.1219 62.5672C80.9761 62.6351 81.7375 61.9825 81.8214 61.1106C81.844 60.8768 81.8102 60.6449 81.7424 60.4421C83.7687 56.7577 85.0018 52.7619 85.4071 48.5538C86.2426 39.8787 83.3436 31.7726 78.0567 25.858C78.1757 25.5937 78.2588 25.3138 78.2881 25.0105C78.4292 23.5446 77.3806 22.258 75.9384 22.1434C75.4061 22.1011 74.8951 22.226 74.4537 22.4711C70.1772 19.0815 64.9064 16.8863 59.0696 16.4225C42.9705 15.143 28.5795 27.4714 26.9961 43.9118C26.5238 48.8148 27.2482 53.5328 28.9224 57.7788C28.558 58.1955 28.3137 58.7236 28.2571 59.3112C28.1086 60.7893 29.1634 62.0764 30.5994 62.1905ZM30.99 58.1341C31.7452 58.1941 32.2977 58.8683 32.2234 59.6392C32.1492 60.41 31.4762 60.9869 30.7211 60.9268C29.9659 60.8668 29.4134 60.1926 29.4877 59.4218C29.5619 58.6509 30.2349 58.0741 30.99 58.1341ZM75.8093 23.4192C76.5644 23.4792 77.117 24.1534 77.0427 24.9243C76.9685 25.6951 76.2955 26.2719 75.5403 26.2119C74.7852 26.1519 74.2327 25.4777 74.3069 24.7069C74.3812 23.936 75.0542 23.3592 75.8093 23.4192Z" fill="#8A86B2"/>
<path fill-rule="evenodd" clip-rule="evenodd" d="M63.0215 27.9124C60.5416 28.2431 58.01 30.3445 57.042 32.8757C56.8008 33.5064 56.6087 34.4853 56.6472 34.8874L56.6716 35.1431L57.1738 35.187C58.8229 35.3313 60.8155 34.3649 62.0565 32.819C63.0269 31.6103 63.7112 29.9413 63.84 28.4694L63.8912 27.8843L63.667 27.8703C63.5436 27.8626 63.2532 27.8816 63.0215 27.9124ZM61.7538 36.0589C60.8201 36.0996 59.987 36.2731 57.8714 36.8673C56.7095 37.1937 56.6855 37.1915 55.493 36.6487C52.7402 35.3955 52.1318 35.1937 51.0433 35.172C48.8641 35.1286 46.5735 35.9695 44.8391 37.4495C42.2252 39.6801 40.8788 43.5737 41.2198 47.9158C41.5788 52.485 43.3327 57.4711 45.5493 60.2243C46.5062 61.413 47.3728 62.0899 48.409 62.458C49.5027 62.8466 50.4241 62.7908 52.8073 62.1918C54.4593 61.7766 54.5281 61.7657 55.1289 61.8235C55.8817 61.8959 56.3365 62.0541 57.5121 62.6525C58.8647 63.3412 59.1365 63.4286 60.2182 63.5231C61.0971 63.5999 61.1801 63.5949 61.7442 63.4313C62.6213 63.1771 63.3392 62.7733 64.2575 62.0179C65.938 60.6356 67.6679 58.3389 68.9651 55.7684C69.4823 54.7433 69.5575 54.5435 69.5309 54.2654C69.4953 53.8927 69.2518 53.6075 68.3557 52.889C66.5133 51.4118 65.7856 50.0148 65.7464 47.8799C65.7166 46.2576 66.2418 44.7808 67.2562 43.6347C67.7185 43.1124 68.4615 42.5205 69.4028 41.9246C69.8209 41.6598 70.1745 41.4357 70.1885 41.4266C70.2026 41.4175 70.0172 41.0498 69.7766 40.6095C68.5512 38.3674 66.6331 36.9359 64.0209 36.3137C63.3958 36.1648 62.2577 36.0369 61.7538 36.0589Z" fill="#8A86B2"/>
</g>
</svg>
