<svg width="240" height="140" viewBox="0 0 240 140" fill="none" xmlns="http://www.w3.org/2000/svg">
<path opacity="0.03" d="M176.264 95.744C172.145 88.1194 170.213 80.7395 172.48 72.295C174.882 63.3974 179.504 53.9381 178.066 44.5286C175.897 30.5299 165.554 16.4134 152.217 7.93719C139.365 -0.217401 123.73 -3.16665 109.937 4.27215C98.5749 10.4062 91.4251 23.2995 77.6467 25.1117C61.5549 27.25 55.0381 16.2413 37.2101 23.4309C30.1999 26.2578 24.1765 31.3952 21.3836 38.381C18.2555 46.2909 20.9553 52.203 24.2929 59.5738C27.8863 67.5719 29.5762 76.2569 29.2363 84.9799C28.943 92.7086 25.7172 99.93 25.7033 107.632C25.6753 121.223 34.1891 134.732 48.0465 138.438C65.4231 143.086 82.3714 117.716 101.489 116.026C111.46 115.143 116.715 122.958 123.218 128.743C131.01 135.679 141.325 140.431 152.045 139.969C174.952 138.995 186.454 114.59 176.264 95.744Z" fill="#3E1BDB"/>
<g opacity="0.5">
<path d="M172.505 82.8354L170.576 93.4485L200.234 98.5209L204.711 73.8952L229.009 78.0508L234.47 48.0107L220.786 45.6705" stroke="#8A86B2" stroke-width="1.5" stroke-linecap="round" stroke-linejoin="round"/>
<path d="M168.112 36.5551L155.922 34.4684L150.477 64.4449L174.711 68.5932L173.113 77.3884" stroke="#8A86B2" stroke-width="1.5" stroke-linecap="round" stroke-linejoin="round"/>
<path d="M216.33 45.1919L209.864 44.0849L214.353 19.369L184.618 14.278L180.13 38.9939L173.902 37.9277" stroke="#8A86B2" stroke-width="1.5" stroke-linecap="round" stroke-linejoin="round"/>
<path d="M191.316 62.5865C194.724 63.1694 197.995 60.8428 198.623 57.3901C199.25 53.9373 196.997 50.6658 193.589 50.0829C190.181 49.5001 186.909 51.8266 186.281 55.2794C185.654 58.7321 187.908 62.0036 191.316 62.5865Z" stroke="#8A86B2" stroke-width="1.5" stroke-linecap="round" stroke-linejoin="round"/>
<path d="M198.054 26.5709L191.765 34.1287L201.307 35.7606L198.054 26.5709Z" stroke="#8A86B2" stroke-width="1.5" stroke-linecap="round" stroke-linejoin="round"/>
<path d="M187.153 88.1315L193.452 80.5669L183.91 78.9349L187.153 88.1315Z" stroke="#8A86B2" stroke-width="1.5" stroke-linecap="round" stroke-linejoin="round"/>
<path d="M161.891 51.953L169.264 58.1946L171.018 48.5422L161.891 51.953Z" stroke="#8A86B2" stroke-width="1.5" stroke-linecap="round" stroke-linejoin="round"/>
<path d="M223.328 62.7425L215.945 56.5078L214.191 66.1603L223.328 62.7425Z" stroke="#8A86B2" stroke-width="1.5" stroke-linecap="round" stroke-linejoin="round"/>
</g>
<g opacity="0.3">
<g clip-path="url(#clip0_761_250924)">
<path d="M36.6802 101.416C36.5886 101.616 36.6294 101.808 36.6294 101.994C36.6267 106.21 36.6222 110.427 36.6367 114.644C36.6385 115.035 36.5769 115.182 36.1191 115.206C33.9337 115.326 31.7619 115.579 29.6055 115.948C29.01 116.051 29.01 116.048 29.01 115.452C29.0091 105.136 29.0109 94.8201 29 84.5043C29 84.1164 29.0816 83.9955 29.5076 83.9999C31.5915 84.0235 33.6754 84.0226 35.7593 83.9999C36.1653 83.9955 36.3629 84.1076 36.5343 84.4693C38.7024 89.0417 40.8897 93.6054 43.0742 98.1699C43.1285 98.2829 43.1485 98.4222 43.3135 98.5054C43.4313 98.3512 43.376 98.1752 43.376 98.0176C43.3796 93.5091 43.3851 89.0006 43.3688 84.4921C43.3669 84.0822 43.4884 83.999 43.8899 84.0025C46.1243 84.0218 48.3596 84.0165 50.5948 84.0034C50.8994 84.0016 51.0009 84.0603 51 84.3817C50.99 94.8 50.9882 105.217 51.0009 115.636C51.0009 116.01 50.8831 116.032 50.5658 115.977C48.2771 115.575 45.9702 115.316 43.6479 115.189C43.3642 115.173 43.3035 115.009 43.2147 114.825C41.6764 111.61 40.1382 108.395 38.5982 105.18C38.0344 104.003 37.4679 102.826 36.8986 101.652C36.8569 101.568 36.8497 101.45 36.6802 101.416ZM33.3037 85.8705C32.8052 85.8705 32.3067 85.8784 31.809 85.867C31.5579 85.8609 31.4818 85.9047 31.606 86.156C31.8933 86.7341 32.1489 87.327 32.4272 87.9085C34.5501 92.3425 36.6775 96.774 38.7985 101.207C40.6603 105.098 42.5212 108.989 44.3667 112.886C44.5317 113.234 44.7193 113.392 45.1309 113.414C46.0047 113.459 46.873 113.577 47.745 113.655C47.9335 113.671 48.1819 113.837 48.2961 113.676C48.4158 113.507 48.2127 113.298 48.1266 113.118C45.8642 108.394 43.5935 103.672 41.3338 98.9468C39.327 94.7509 37.3247 90.5533 35.3387 86.3487C35.1601 85.9713 34.948 85.8241 34.5265 85.8618C34.1222 85.8986 33.7116 85.8697 33.3037 85.8705ZM48.9587 110.454C48.9886 110.452 49.0194 110.45 49.0494 110.447C49.0584 110.381 49.0756 110.314 49.0756 110.248C49.0775 108.891 49.0766 107.534 49.0766 106.177C49.0766 99.5528 49.0738 92.9293 49.0838 86.3049C49.0847 85.9739 49.0167 85.8504 48.6433 85.8618C47.6924 85.8898 46.7398 85.8959 45.7898 85.8592C45.3457 85.8416 45.2442 85.9713 45.2451 86.3872C45.2596 91.7269 45.255 97.0673 45.2514 102.407C45.2514 102.634 45.3094 102.833 45.4073 103.036C45.8623 103.974 46.3074 104.915 46.757 105.855C47.4903 107.388 48.2245 108.921 48.9587 110.454ZM31.0268 89.3806C30.9914 89.3877 30.9561 89.3938 30.9207 89.4008C30.9207 89.54 30.9207 89.6793 30.9207 89.8177C30.9207 92.6333 30.9207 95.4498 30.9207 98.2654C30.9207 103.27 30.918 108.275 30.9225 113.279C30.9234 113.897 30.802 113.89 31.5362 113.773C32.4608 113.624 33.3908 113.521 34.3235 113.455C34.6543 113.431 34.7477 113.33 34.7468 113.008C34.7359 107.843 34.7377 102.678 34.7413 97.5131C34.7413 97.2583 34.6897 97.0279 34.5773 96.7976C34.0751 95.7686 33.5838 94.7351 33.0898 93.7026C32.4009 92.262 31.7139 90.8213 31.0268 89.3806Z" fill="#8A86B2"/>
</g>
<path d="M40 60C17.9462 60 0 77.9399 0 100C0 122.054 17.9462 140 40 140C62.0538 140 80 122.054 80 100C80 77.9399 62.0601 60 40 60ZM42.4847 61.9752C61.5191 63.2018 76.7857 78.462 78.0248 97.4902C78.0877 98.4337 77.3329 99.2389 76.3894 99.2389C75.5276 99.2389 74.8168 98.5721 74.7602 97.7166C73.6342 80.3114 59.6698 66.3532 42.2582 65.2398C41.4027 65.1832 40.736 64.4724 40.736 63.6106C40.7297 62.6671 41.5348 61.9185 42.4847 61.9752ZM12.2158 100C12.2158 84.6768 24.6831 72.2095 40.0063 72.2095C55.3295 72.2095 67.7968 84.6768 67.7968 100C67.7968 115.323 55.3295 127.791 40.0063 127.791C24.6768 127.791 12.2158 115.323 12.2158 100ZM17.2794 121.368C16.6001 122.047 15.4867 122.003 14.8703 121.274C10.0016 115.531 7.05771 108.108 7.05771 100.006C7.05771 92.005 9.92609 84.6643 14.6878 78.9527C15.3043 78.2167 16.424 78.1664 17.1033 78.8457C17.7009 79.4433 17.7449 80.3931 17.204 81.041C12.914 86.1865 10.3287 92.8039 10.3287 100.013C10.3287 107.316 12.9832 114.002 17.3738 119.173C17.9148 119.808 17.877 120.764 17.2794 121.368ZM62.4501 119.38C66.9476 114.178 69.6776 107.404 69.6776 100C69.6776 92.6907 67.0168 85.9915 62.6136 80.8146C62.0664 80.1667 62.1041 79.2106 62.7017 78.6067C63.381 77.9273 64.4944 77.9714 65.1109 78.7011C69.9921 84.4504 72.9486 91.8855 72.9486 100C72.9486 108.215 69.9229 115.732 64.9284 121.513C64.3057 122.236 63.1986 122.274 62.5256 121.601C61.928 120.991 61.8902 120.028 62.4501 119.38ZM61.2738 74.864C62.0035 75.4804 62.0475 76.6001 61.3681 77.2732C60.7706 77.8707 59.8081 77.9148 59.1602 77.3675C53.9833 72.9769 47.2967 70.3224 40 70.3224C32.5963 70.3224 25.8217 73.0524 20.6196 77.5499C19.9717 78.1098 19.003 78.072 18.3991 77.4682C17.7261 76.7951 17.7638 75.688 18.4872 75.0653C24.2617 70.0708 31.7786 67.0451 40 67.0451C48.1019 67.0514 55.5307 69.9953 61.2738 74.864ZM37.075 62.0066C38.0248 61.9311 38.8426 62.686 38.8426 63.6421C38.8426 64.4913 38.1884 65.2021 37.3392 65.2713C20.1227 66.5797 6.37207 80.456 5.24611 97.7229C5.18949 98.5784 4.47869 99.2452 3.61692 99.2452C2.66709 99.2452 1.91854 98.44 1.98144 97.4965C3.21434 78.613 18.2544 63.4471 37.075 62.0066ZM37.0813 137.987C18.3802 136.566 3.42192 121.595 2.0129 102.9C1.9437 101.95 2.69225 101.132 3.64837 101.132C4.50385 101.132 5.21466 101.786 5.27756 102.636C6.56707 119.739 20.2485 133.427 37.3455 134.722C38.1947 134.785 38.8489 135.496 38.8489 136.352C38.8426 137.308 38.0311 138.063 37.0813 137.987ZM18.7073 125.111C17.9777 124.494 17.9336 123.381 18.613 122.702C19.2106 122.104 20.173 122.06 20.8209 122.614C25.9978 127.017 32.697 129.678 40.0063 129.678C47.215 129.678 53.8261 127.092 58.9778 122.802C59.6257 122.261 60.5756 122.305 61.1731 122.903C61.8525 123.582 61.8085 124.702 61.0662 125.318C55.3546 130.08 48.0138 132.949 40.0126 132.949C31.8855 132.949 24.4504 129.998 18.7073 125.111ZM42.4784 138.019C41.5348 138.081 40.7297 137.327 40.7297 136.383C40.7297 135.521 41.3964 134.811 42.2519 134.754C59.5377 133.647 73.4266 119.871 74.7287 102.636C74.7916 101.786 75.5024 101.132 76.3579 101.132C77.314 101.132 78.0689 101.944 77.9934 102.9C76.5655 121.746 61.3807 136.798 42.4784 138.019Z" fill="#8A86B2"/>
</g>
<defs>
<clipPath id="clip0_761_250924">
<rect width="22" height="32" fill="white" transform="translate(29 84)"/>
</clipPath>
</defs>
</svg>
