<svg width="232" height="140" viewBox="0 0 232 140" fill="none" xmlns="http://www.w3.org/2000/svg">
<path opacity="0.03" d="M176.369 28.0084C175.244 26.3935 174.006 24.8437 172.662 23.3681C161.685 11.3397 147.334 6.24898 130.94 2.83906C114.007 -0.682708 94.1806 -1.77703 77.9226 4.57123C74.0964 6.08272 70.4602 8.07788 67.5837 10.7986C56.7055 21.0495 52.9743 38.217 40.8614 51.7871C28.7485 65.3573 22.8396 82.2617 33.7144 98.3077C38.3174 105.103 44.1856 110.702 51.129 115.629C59.6769 121.675 67.0512 129.855 76.9321 134.586C87.3151 139.556 101.144 141.288 112.637 139.012C125.747 136.415 133.436 126.089 143.443 119.06C151.333 113.51 160.773 109.877 168.503 104.151C180.348 95.3845 189.33 81.2793 187.838 67.3041C186.372 53.7369 184.486 39.6378 176.369 28.0084Z" fill="#3E1BDB"/>
<g opacity="0.5">
<path d="M33.024 46.3572L33.0867 46.1847L33.079 46.1261L40.0283 27.0329C40.6547 25.3121 40.7417 23.8159 40.2357 22.5876C39.7236 21.3446 38.6683 20.5297 37.3428 20.0472C36.0165 19.5645 34.6961 19.5155 33.5179 20.1496C32.3585 20.7736 31.4831 21.9818 30.8593 23.6956L23.8292 43.0106C23.2102 44.7115 23.0857 46.1912 23.565 47.4128C24.0534 48.6576 25.1015 49.4678 26.4552 49.9605C27.8081 50.4529 29.1481 50.5128 30.3407 49.8889C31.5181 49.273 32.4013 48.068 33.024 46.3572ZM38.92 85.8672L38.9827 85.6949L38.975 85.6362L45.5473 67.579C46.8702 63.9442 48.8339 61.5767 51.2722 60.4109C53.7076 59.2465 56.755 59.2148 60.3848 60.536C64.0147 61.8571 66.3287 63.8402 67.4459 66.2976C68.5644 68.758 68.5469 71.8338 67.2239 75.4686L60.5709 93.7475C59.2478 97.3829 57.2871 99.7513 54.8505 100.917C52.4171 102.082 49.37 102.114 45.7334 100.791C42.0968 99.4669 39.7901 97.4864 38.681 95.0332C37.5701 92.5763 37.5964 89.5037 38.92 85.8672ZM54.1607 92.001L54.287 91.6539L54.2408 91.5813L61.1176 72.6874C61.7439 70.9666 61.831 69.4704 61.325 68.2422C60.8128 66.9991 59.7576 66.1842 58.432 65.7018C57.1065 65.2193 55.7743 65.1652 54.583 65.7883C53.4058 66.4039 52.5108 67.606 51.8845 69.3268L44.8544 88.6418C44.2343 90.3453 44.1168 91.8297 44.6101 93.0563C45.1115 94.3031 46.1748 95.1165 47.5445 95.6151C48.9171 96.1146 50.269 96.1716 51.4685 95.5432C52.6526 94.9228 53.538 93.7119 54.1607 92.001ZM17.8185 40.1663L24.449 21.9491C25.7745 18.3073 27.7352 15.9392 30.1708 14.7746C32.6034 13.6115 35.6494 13.5823 39.2866 14.9061C42.9237 16.2299 45.2383 18.2102 46.3541 20.6649C47.4714 23.1225 47.4512 26.197 46.1257 29.8388L39.4951 48.056C38.1696 51.6978 36.2089 54.0659 33.7733 55.2305C31.3407 56.3936 28.2947 56.4228 24.6576 55.099C21.0182 53.7744 18.7 51.8053 17.5828 49.3577C16.4643 46.9074 16.4836 43.8339 17.8185 40.1663ZM11.9952 87.2677L66.9147 26.0793L73.0007 28.2945L18.0561 89.4737L11.9952 87.2677Z" stroke="#8A86B2" stroke-width="1.5"/>
</g>
<g opacity="0.3">
<path d="M222.048 59.3503L219.288 47.9366C219.878 47.6833 220.233 47.0436 220.108 46.3671C219.961 45.5769 219.212 45.0419 218.435 45.1722C218.411 45.1762 218.389 45.1861 218.365 45.19L214.841 40.2624C215.027 40.0522 215.119 39.7651 215.064 39.4658C214.968 38.9509 214.478 38.601 213.972 38.6858C213.848 38.7066 213.735 38.7502 213.638 38.8159L208.898 33.6846C209.167 33.3679 209.3 32.9382 209.217 32.4892C209.07 31.699 208.321 31.164 207.544 31.2943C207.173 31.3564 206.86 31.5634 206.657 31.8443L200.456 28.0998C200.513 27.9483 200.53 27.7787 200.498 27.6051C200.403 27.0903 199.913 26.7403 199.406 26.8251C199.106 26.8755 198.863 27.0705 198.74 27.3257L189.88 24.527C189.917 24.3974 189.921 24.2548 189.895 24.1171C189.8 23.6022 189.31 23.2522 188.804 23.3371C188.35 23.4131 188.042 23.8105 188.04 24.2614L178.344 24.5164C178.134 23.3849 177.064 22.6199 175.951 22.8065C174.903 22.9821 174.2 23.9394 174.299 24.9969L167.029 27.7279C166.854 27.3376 166.438 27.0924 166.008 27.1645C165.502 27.2494 165.168 27.7375 165.263 28.2524C165.29 28.396 165.351 28.5278 165.433 28.6437L158.1 34.1444C157.887 33.9456 157.601 33.8453 157.301 33.8956C156.795 33.9805 156.46 34.4687 156.556 34.9835C156.588 35.1571 156.672 35.3159 156.78 35.4398L152.287 40.9646C151.989 40.7675 151.633 40.6791 151.262 40.7413C150.485 40.8716 149.973 41.6177 150.12 42.408C150.204 42.863 150.49 43.2225 150.862 43.4317L148.247 49.7897C148.133 49.7596 148.01 49.7554 147.881 49.7771C147.375 49.862 147.04 50.3501 147.136 50.865C147.191 51.1643 147.382 51.41 147.631 51.5411L146.092 57.3176C146.069 57.3215 146.044 57.3195 146.021 57.3234C145.243 57.4537 144.732 58.1999 144.879 58.9901C145.005 59.6726 145.581 60.1564 146.232 60.1954L147.706 71.6148C146.727 71.9023 146.109 72.8887 146.303 73.9363C146.513 75.0678 147.584 75.8328 148.697 75.6463C148.797 75.6295 148.888 75.5957 148.985 75.567L154.251 85.5977C154.135 85.8518 154.099 86.148 154.154 86.4473C154.301 87.2376 155.049 87.7725 155.827 87.6423C155.838 87.6403 155.849 87.6323 155.867 87.6294L160.925 92.479C160.929 92.5339 160.927 92.5897 160.937 92.6436C161.032 93.1584 161.522 93.5084 162.029 93.4236C162.052 93.4196 162.069 93.4107 162.086 93.4077L172.599 98.7688C172.596 98.8805 172.599 98.9972 172.621 99.1169C172.768 99.9072 173.517 100.442 174.294 100.312C174.718 100.241 175.058 99.9801 175.261 99.6373L184.214 101.001C184.213 101.131 184.22 101.265 184.244 101.397C184.454 102.528 185.525 103.293 186.638 103.107C187.65 102.937 188.34 102.038 188.297 101.02L195.016 99.8691C195.275 100.48 195.922 100.859 196.587 100.748C197.364 100.617 197.875 99.8712 197.729 99.081C197.72 99.0331 197.7 98.9931 197.691 98.9453L206.202 94.457C206.515 94.7069 206.921 94.8363 207.339 94.7662C208.117 94.636 208.628 93.8898 208.481 93.0996C208.459 92.9798 208.419 92.8631 208.369 92.7542L216.167 84.4964C216.247 84.5015 216.332 84.4996 216.42 84.4848C217.027 84.3832 217.423 83.8044 217.309 83.1878C217.286 83.062 217.241 82.9522 217.184 82.8444L220.116 76.853C220.122 76.852 220.134 76.8501 220.14 76.8491C220.917 76.7188 221.428 75.9726 221.282 75.1824C221.225 74.8771 221.071 74.6065 220.869 74.3997L222.2 63.473C222.335 63.4813 222.472 63.4705 222.614 63.4468C223.726 63.2603 224.457 62.1934 224.247 61.0619C224.041 60.0162 223.086 59.2814 222.048 59.3503ZM214.223 40.5635C214.241 40.5605 214.26 40.5635 214.277 40.5606L217.608 45.6565C217.499 45.786 217.416 45.9294 217.36 46.0869C216.174 45.9771 214.468 45.8125 212.745 45.6508C213.361 43.5413 213.929 41.5634 214.223 40.5635ZM218.472 75.715L214.074 77.0078L212.038 71.7566L218.461 75.1305C218.426 75.303 218.423 75.4825 218.458 75.6681C218.466 75.6791 218.469 75.697 218.472 75.715ZM205.45 79.6695C205.492 79.897 205.59 80.0967 205.714 80.2735L200.152 85.4403C199.939 85.2414 199.647 85.1361 199.346 85.1865C198.84 85.2713 198.506 85.7595 198.601 86.2744C198.607 86.3043 198.617 86.3273 198.623 86.3572L189.967 89.4378C189.739 88.7661 189.063 88.33 188.357 88.4484C187.65 88.5669 187.166 89.1974 187.201 89.9076L179.454 89.6075C179.453 89.5706 179.451 89.5277 179.444 89.4918C179.349 88.977 178.859 88.627 178.353 88.7119C178.052 88.7622 177.815 88.9563 177.687 89.2124L170.603 86.1715C170.661 85.9641 170.676 85.7457 170.633 85.5182C170.487 84.728 169.738 84.193 168.961 84.3233C168.714 84.3647 168.497 84.4751 168.312 84.6234L163.061 79.5839C163.164 79.3816 163.205 79.1463 163.159 78.9008C163.049 78.3081 162.489 77.9022 161.9 78.0008C161.894 78.0018 161.894 78.0018 161.894 78.0018L158.266 70.8816C158.569 70.6457 158.733 70.254 158.656 69.8409C158.566 69.356 158.173 69.0022 157.707 68.9446L156.95 63.1271C157.554 62.8838 157.924 62.2292 157.798 61.5467C157.704 61.0438 157.363 60.6442 156.934 60.4569L157.601 54.3328C157.996 54.1739 158.239 53.7445 158.155 53.2955C158.132 53.1697 158.087 53.0599 158.019 52.9541L162.675 44.7355C162.832 44.7647 162.997 44.774 163.162 44.7463C163.939 44.6161 164.451 43.8699 164.304 43.0797C164.29 43.0018 164.265 42.932 164.239 42.8621L174.687 36.0552C174.934 36.2731 175.271 36.3894 175.613 36.3322C176.078 36.2542 176.418 35.8948 176.5 35.455L181.934 34.5441C182.17 34.9305 182.619 35.1577 183.084 35.0798C183.431 35.0215 183.7 34.8036 183.854 34.5186L196.514 37.6123C196.515 37.6183 196.517 37.6243 196.518 37.6303C196.613 38.1451 197.103 38.4951 197.609 38.4102C197.668 38.4004 197.726 38.3845 197.783 38.3627L204.935 44.423C204.747 44.7199 204.663 45.0858 204.733 45.4629C204.88 46.2532 205.628 46.7881 206.405 46.6579C206.511 46.6401 206.614 46.6044 206.711 46.5696L209.561 52.1474C209.362 52.3535 209.26 52.6546 209.318 52.9659C209.398 53.3969 209.746 53.7028 210.155 53.7514L211.644 59.9093C211.232 60.114 210.984 60.5754 211.074 61.0603C211.151 61.4734 211.446 61.7881 211.815 61.9115L210.968 69.7818C210.962 69.7828 210.962 69.7828 210.962 69.7828C210.379 69.8805 209.991 70.4393 210.102 71.038C210.147 71.2834 210.271 71.4911 210.44 71.648L207.318 78.0909C207.097 78.0108 206.848 77.9784 206.601 78.0198C205.816 78.1391 205.305 78.8853 205.45 79.6695ZM206.636 80.8596L206.657 84.8375L200.593 85.854L206.181 80.6952C206.316 80.7713 206.472 80.8254 206.636 80.8596ZM199.165 86.9885L197.938 91.5337L190.03 90.1371C190.032 90.1182 190.035 90.0992 190.036 90.0743L198.988 86.8885C199.044 86.9285 199.105 86.9615 199.165 86.9885ZM187.351 90.5243L181.756 93.9376L179.164 90.3352C179.21 90.2904 179.25 90.2465 179.289 90.1907L187.351 90.5243ZM177.378 89.7395L171.343 90.7511L169.932 87.0062C170.081 86.9256 170.207 86.8181 170.31 86.6897L177.378 89.7395ZM156.759 85.4675L161.581 80.2086L161.556 85.8052L156.958 86.0204C156.955 86.0025 156.958 85.9836 156.955 85.9716C156.922 85.792 156.854 85.6183 156.759 85.4675ZM147.642 58.3726C148.856 57.8172 150.4 57.1078 151.911 56.4163C153.137 58.0503 154.393 59.7163 155.259 60.8549C155.014 61.1677 154.895 61.5764 154.975 62.0074C155.031 62.3068 155.177 62.5724 155.373 62.7742L153.533 65.4899L147.552 59.3938C147.678 59.1258 147.731 58.8206 147.672 58.5034C147.67 58.4605 147.651 58.4205 147.642 58.3726ZM155.73 60.4797C154.881 59.369 153.672 57.763 152.471 56.1619C154.183 55.381 155.784 54.6498 156.714 54.2285C156.796 54.2825 156.89 54.3286 156.992 54.3547L156.323 60.3371C156.256 60.336 156.183 60.3359 156.112 60.3477C155.977 60.3704 155.852 60.4161 155.73 60.4797ZM156.354 63.2208L157.104 69.0333C157.082 69.0432 157.059 69.0531 157.043 69.0621L153.981 65.9396L155.891 63.1132C156.036 63.1753 156.189 63.2175 156.354 63.2208ZM156.629 69.5142C156.527 69.7165 156.485 69.9518 156.531 70.1972C156.533 70.2092 156.541 70.2202 156.544 70.2382L150.166 72.7702C150.065 72.5526 149.936 72.3459 149.778 72.1811L153.641 66.4656L156.629 69.5142ZM150.336 73.359L156.844 70.7743C156.933 70.8583 157.031 70.9283 157.138 70.9843L156.382 76.6913L150.255 74.2616C150.343 73.9815 150.378 73.6793 150.336 73.359ZM157.725 71.1699L161.343 78.2732C161.251 78.3628 161.179 78.4674 161.121 78.582L156.96 76.9278L157.725 71.1699ZM162.19 80.1559C162.227 80.1559 162.257 80.157 162.293 80.151C162.428 80.1283 162.546 80.0777 162.656 80.016L167.933 85.1005C167.873 85.234 167.832 85.3706 167.811 85.5222L162.167 85.7894L162.19 80.1559ZM154.88 47.8136L161.995 44.4111C162.024 44.4371 162.053 44.4631 162.088 44.4881L157.52 52.5562C157.449 52.5312 157.373 52.5131 157.292 52.502L154.88 47.8136ZM163.533 42.03L164.95 35.4035L174.161 35.6434L163.914 42.3179C163.801 42.201 163.674 42.105 163.533 42.03ZM184.188 33.9626L192.757 30.7422L196.696 36.8596C196.662 36.9024 196.628 36.9512 196.607 36.9981L184.188 33.9626ZM198.552 38.2214L206.678 39.1246L206.154 43.7618C206.056 43.7597 205.96 43.7635 205.86 43.7802C205.665 43.8128 205.485 43.8863 205.333 43.9858L198.552 38.2214ZM210.271 51.8555C210.21 51.8534 210.143 51.8522 210.078 51.8631L207.194 46.1984C207.305 46.075 207.4 45.9295 207.461 45.771C208.511 45.8667 210.172 46.0202 211.952 46.191C211.312 48.3663 210.667 50.5545 210.271 51.8555ZM210.827 53.5401L214.052 55.8759L212.298 59.8057C212.274 59.8037 212.255 59.8006 212.23 59.7986L210.736 53.6108C210.77 53.5929 210.795 53.564 210.827 53.5401ZM210.975 71.9163C211.095 71.9395 211.224 71.9487 211.353 71.927C211.389 71.921 211.423 71.9091 211.451 71.8982L213.499 77.1783L208.099 78.7626C208.025 78.6268 207.929 78.501 207.818 78.3961L210.975 71.9163ZM211.551 69.8506L212.408 62.0033L215.199 67.1651L211.884 70.0727C211.787 69.9777 211.676 69.9037 211.551 69.8506ZM212.9 61.6431C212.981 61.5555 213.048 61.4578 213.101 61.3502L220.194 61.6611C220.2 61.691 220.199 61.7219 220.205 61.7519C220.257 62.0333 220.365 62.2868 220.505 62.5165L215.664 66.7599L212.9 61.6431ZM220.202 61.0487L213.187 60.7369C213.185 60.7249 213.189 60.712 213.185 60.694C213.14 60.4486 213.017 60.2469 212.848 60.084L214.563 56.2409L220.384 60.4565C220.297 60.6439 220.236 60.8393 220.202 61.0487ZM214.305 55.3088L211.144 53.024C211.17 52.9024 211.171 52.7787 211.147 52.647C211.105 52.4255 210.992 52.2408 210.833 52.1008C211.236 50.774 211.906 48.495 212.564 46.2489C214.233 46.4075 215.939 46.5722 217.28 46.6992C217.282 46.7481 217.285 46.797 217.294 46.8449C217.353 47.1622 217.512 47.4318 217.728 47.6426L214.305 55.3088ZM212.12 45.5888C210.353 45.4221 208.648 45.2634 207.549 45.1637C207.544 45.1029 207.544 45.041 207.533 44.9812C207.447 44.5142 207.146 44.1386 206.75 43.9335L207.286 39.1955L213.255 39.8615C213.321 40.0851 213.453 40.2728 213.634 40.3968C213.332 41.4227 212.749 43.4464 212.12 45.5888ZM208.08 34.1489C208.198 34.1292 208.312 34.0915 208.418 34.0428L213.226 39.2431L207.356 38.5912L207.853 34.1685C207.932 34.1676 208.003 34.1617 208.08 34.1489ZM207.252 34.0407L206.748 38.5203L198.46 37.5949L206.633 33.515C206.797 33.7467 207.007 33.9276 207.252 34.0407ZM199.621 28.7027C199.663 28.7018 199.706 28.7009 199.753 28.693C199.871 28.6732 199.978 28.6306 200.07 28.5719L206.412 32.3914C206.377 32.5639 206.37 32.7504 206.405 32.942L198.237 37.0149C198.138 36.8402 197.99 36.6983 197.816 36.6102L199.621 28.7027ZM199.041 28.5222L197.214 36.5383L193.343 30.5268L198.933 28.4292C198.963 28.4612 198.999 28.4922 199.041 28.5222ZM198.556 27.8999L192.995 29.9926L189.89 25.1674L198.556 27.8999ZM188.789 25.1913C188.903 25.2155 189.027 25.2257 189.15 25.2049C189.162 25.203 189.178 25.194 189.19 25.192L192.421 30.206L183.84 33.4284C183.792 33.3315 183.734 33.2486 183.658 33.1687C184.979 31.1263 187.706 26.8791 188.789 25.1913ZM178.359 25.1188L188.253 24.8492C188.26 24.8542 188.261 24.8602 188.268 24.8652C187.175 26.5669 184.429 30.842 183.122 32.8635C182.976 32.8264 182.816 32.8161 182.657 32.8427C182.58 32.8556 182.505 32.8744 182.432 32.9052C181.142 31.2202 179.12 28.2073 177.838 26.268C178.125 25.9543 178.306 25.5536 178.359 25.1188ZM176.709 26.8953C176.951 26.8549 177.172 26.7685 177.374 26.6482C178.657 28.5935 180.661 31.5724 181.966 33.2734C181.83 33.4567 181.757 33.685 181.754 33.9323L176.438 34.8235C176.32 34.5161 176.082 34.2783 175.787 34.1611C175.972 32.1176 176.263 28.9393 176.446 26.9148C176.531 26.913 176.615 26.9111 176.709 26.8953ZM167.073 28.3563L174.428 25.5926C174.678 26.2174 175.211 26.6712 175.832 26.8449C175.649 28.8694 175.359 32.0537 175.173 34.0911C175.02 34.1168 174.879 34.1774 174.761 34.259C172.804 32.7783 168.686 29.6539 167.048 28.4161C167.063 28.4012 167.072 28.3813 167.073 28.3563ZM166.305 29.0282C166.317 29.0263 166.336 29.0293 166.348 29.0273C166.471 29.0066 166.585 28.9629 166.682 28.8972C168.307 30.131 172.398 33.2354 174.381 34.7301C174.337 34.8238 174.314 34.9265 174.303 35.0332L165.08 34.7953L166.305 29.0282ZM165.639 29.2325L164.458 34.7762L158.479 34.6179L165.639 29.2325ZM158.32 35.2311L164.328 35.3844L162.948 41.8564C162.843 41.8492 162.735 41.855 162.629 41.8728C162.612 41.8757 162.601 41.8837 162.583 41.8866L158.252 35.3596C158.275 35.3187 158.298 35.2779 158.32 35.2311ZM157.299 35.7479C157.406 35.773 157.523 35.7782 157.64 35.7585C157.682 35.7516 157.722 35.7387 157.768 35.7248L162.023 42.141C161.746 42.3479 161.549 42.6588 161.486 43.0088L152.917 41.9083C152.882 41.7227 152.808 41.55 152.712 41.3932L157.299 35.7479ZM152.904 42.5277L161.511 43.6342C161.536 43.735 161.571 43.8278 161.612 43.9137L154.602 47.2616L152.516 43.2162C152.706 43.03 152.838 42.7919 152.904 42.5277ZM151.421 43.5973C151.539 43.6084 151.654 43.6076 151.777 43.5869C151.854 43.5741 151.922 43.5503 151.991 43.5265L154.049 47.5209L148.774 50.041L151.421 43.5973ZM148.969 50.6378L154.339 48.071L156.699 52.6445C156.402 52.8425 156.233 53.2102 156.304 53.5934C156.312 53.6353 156.326 53.6762 156.339 53.7171C155.348 54.1672 153.748 54.8985 152.097 55.6506C150.741 53.8408 149.459 52.1299 148.811 51.257C148.931 51.0886 148.988 50.8693 148.969 50.6378ZM148.255 51.628C148.272 51.6251 148.295 51.6151 148.312 51.6121C148.944 52.4631 150.194 54.1301 151.532 55.9119C149.97 56.6243 148.421 57.3347 147.352 57.8225C147.243 57.6927 147.107 57.5857 146.964 57.4987L148.255 51.628ZM146.804 60.1057C146.945 60.0511 147.071 59.9745 147.181 59.8819L153.192 66.01L149.281 71.7952C148.982 71.6231 148.643 71.5257 148.289 71.5171L146.804 60.1057ZM155.308 84.7787C155.302 84.7797 155.29 84.7816 155.284 84.7826C155.043 84.8231 154.825 84.9274 154.646 85.0747L149.513 75.2996C149.7 75.1633 149.865 75.006 149.994 74.8177L156.298 77.3226L155.308 84.7787ZM156.881 77.552L161.029 79.1962C161.032 79.2142 161.03 79.2331 161.033 79.2511C161.063 79.4127 161.133 79.5615 161.217 79.6893L156.33 85.0209C156.204 84.9309 156.065 84.8678 155.917 84.8246L156.881 77.552ZM161.531 91.5934C161.371 91.6449 161.237 91.7415 161.138 91.863L156.431 87.3681C156.665 87.1869 156.837 86.9359 156.918 86.6508L161.551 86.4296L161.531 91.5934ZM162.139 91.5964L162.164 86.3948L167.856 86.1257C168.053 86.7903 168.681 87.2343 169.358 87.1827L170.737 90.8527L162.724 92.1959C162.634 91.9085 162.412 91.6927 162.139 91.5964ZM172.761 98.1676L162.634 93.0197C162.671 92.9579 162.701 92.8911 162.731 92.8244L170.962 91.4446L173.285 97.623C173.06 97.7532 172.883 97.9434 172.761 98.1676ZM173.864 97.4395L171.568 91.343L177.844 90.2909C177.873 90.3169 177.902 90.3429 177.931 90.3689L174.287 97.4612C174.149 97.435 174.008 97.4278 173.864 97.4395ZM174.845 97.7195L178.512 90.5863C178.537 90.5884 178.566 90.5834 178.596 90.5785L181.244 94.2518L175.125 97.9873C175.041 97.8904 174.95 97.7945 174.845 97.7195ZM184.301 100.394L175.432 99.0531C175.444 98.9215 175.448 98.7789 175.423 98.6412C175.417 98.6112 175.406 98.5823 175.393 98.5474L181.599 94.7602L184.958 99.4192C184.652 99.6681 184.424 100.009 184.301 100.394ZM185.87 99.0009C185.735 99.0236 185.607 99.0573 185.483 99.109L182.123 94.4439L187.756 91.0058C187.843 91.0778 187.938 91.1358 188.039 91.1869L186.403 98.9919C186.23 98.9777 186.053 98.9703 185.87 99.0009ZM194.891 99.2604L188.177 100.41C187.978 99.8266 187.535 99.37 186.995 99.1396L188.629 91.3226C188.713 91.3207 188.798 91.3189 188.88 91.3051C189.016 91.2824 189.141 91.2367 189.258 91.1801L195.188 98.4082C195.008 98.6482 194.899 98.9443 194.891 99.2604ZM196.056 97.886C195.909 97.9107 195.779 97.9634 195.652 98.028L189.73 90.8108C189.755 90.782 189.78 90.7531 189.804 90.7182L197.775 92.1289L196.219 97.8774C196.163 97.8743 196.115 97.8762 196.056 97.886ZM197.401 98.3951C197.246 98.2113 197.049 98.0654 196.825 97.9732L198.377 92.2317L205.658 93.5234C205.661 93.5414 205.658 93.5543 205.661 93.5723C205.688 93.716 205.736 93.8437 205.8 93.9625L197.401 98.3951ZM205.701 92.9051L198.539 91.6365L199.786 87.0325C199.815 87.0276 199.838 87.0177 199.867 87.0127L205.879 92.5234C205.797 92.6359 205.743 92.7685 205.701 92.9051ZM206.699 91.9354C206.56 91.971 206.424 92.0246 206.309 92.0933L200.334 86.6136C200.352 86.5797 200.375 86.5449 200.387 86.512L206.664 85.4599L206.699 91.9354ZM207.998 92.2608C207.801 92.0839 207.566 91.9628 207.308 91.9135L207.269 85.3522L215.305 84.0051C215.371 84.099 215.454 84.1839 215.54 84.2559L207.998 92.2608ZM215.099 83.4162L207.263 84.7298L207.238 80.8328C207.898 80.6604 208.323 80.0397 208.268 79.3514L213.715 77.7533L215.541 82.4595C215.247 82.6754 215.076 83.0312 215.099 83.4162ZM216.725 82.3967C216.542 82.2917 216.332 82.2404 216.111 82.259L214.297 77.5877L218.731 76.289C218.915 76.5297 219.161 76.7107 219.446 76.8049L216.725 82.3967ZM218.702 74.5654L212.192 71.1445C212.231 70.9959 212.237 70.8343 212.207 70.6727C212.204 70.6547 212.195 70.6378 212.191 70.6198L215.497 67.7261L219.02 74.2467C218.896 74.3353 218.788 74.4398 218.702 74.5654ZM220.304 74.0685C220.084 73.9943 219.847 73.96 219.599 74.0014C219.594 74.0024 219.582 74.0044 219.576 74.0054L215.961 67.315L220.917 62.972C221.118 63.1419 221.344 63.277 221.59 63.3592L220.304 74.0685ZM220.729 59.9604L214.817 55.6798L218.261 47.9667C218.398 48.0178 218.544 48.049 218.696 48.0543L221.457 59.468C221.174 59.5772 220.932 59.7473 220.729 59.9604Z" fill="#8A86B2"/>
<path fill-rule="evenodd" clip-rule="evenodd" d="M178.778 47.1811C173.532 48.9337 170.593 52.1783 170.242 56.6023C170.157 57.6849 170.312 58.0997 170.868 58.2721C171.116 58.3489 176.336 58.0646 177.077 57.934C177.415 57.8743 177.715 57.2962 177.805 56.5311C177.901 55.7089 178.315 54.6965 178.754 54.2076C179.484 53.3964 180.57 52.8158 181.746 52.6085C183.866 52.2347 185.426 52.9858 186.127 54.7173C186.237 54.9895 186.442 55.863 186.583 56.6584L186.838 58.1047L186.53 58.2118C186.36 58.2707 185.51 58.5152 184.64 58.7552C179.33 60.2203 176.552 61.5018 174.551 63.4099C174.267 63.6808 173.71 64.3715 173.314 64.9447C171.75 67.2056 171.289 69.8844 171.965 72.792C172.7 75.9573 174.379 78.079 176.911 79.0437C178.533 79.6614 180.035 79.7463 182.288 79.3476C185.993 78.6923 188.064 77.3876 190.368 74.256C190.636 73.8912 190.83 73.7085 190.885 73.7673C192.079 75.0362 193.814 76.4134 194.687 76.7857C195.045 76.9384 195.701 76.8285 195.978 76.5693C196.178 76.3821 199.201 72.8031 199.822 72.0191C200.111 71.654 200.179 71.3008 200.027 70.9618C199.974 70.8427 199.548 70.3888 199.081 69.953C198.614 69.5173 198.027 68.8818 197.776 68.5409C196.84 67.2704 196.929 67.6153 195.413 59.403L194.045 51.9907L193.614 51.0759C192.122 47.9095 189.348 46.3547 184.954 46.2233C183.659 46.1845 180.117 46.7338 178.778 47.1811ZM187.966 64.5048C188.329 66.5647 188.39 67.6714 188.195 68.6671C187.68 71.2952 186.171 72.9371 184.036 73.1939C183.103 73.3062 182.442 73.1527 181.723 72.6571C180.189 71.5993 179.51 68.7184 180.33 66.7496C181.165 64.7479 183.165 63.5723 187.312 62.6471L187.626 62.5769L187.966 64.5048Z" fill="#8A86B2"/>
</g>
</svg>
