<svg width="160" height="148" viewBox="0 0 160 148" fill="none" xmlns="http://www.w3.org/2000/svg">
<path opacity="0.03" d="M144.712 11.4917C132.943 -5.37324 108.272 -1.1395 99.0824 8.06518C78.4002 28.785 81.0371 50.3861 70.2919 54.834C57.1863 60.2374 45.1501 26.3881 25.0511 26.5281C11.9151 26.6187 3.33604 36.4123 0.881396 59.0266C-2.53019 90.549 4.35071 115.177 14.8224 124.682C36.2003 144.084 71.2003 140.575 90.0628 137.861C105.641 135.625 128.599 140.46 149.15 109.56C161.284 91.3191 167.408 44.0108 144.712 11.4917Z" fill="#3E1BDB"/>
<g opacity="0.5">
<path d="M134.901 81.7137L44.1625 68.7298C41.3459 68.3267 38.7428 70.3337 38.3485 73.2124L30.8586 127.887C30.4643 130.766 32.4279 133.427 35.2446 133.83L125.983 146.814C128.8 147.217 131.403 145.21 131.797 142.331L139.287 87.6559C139.681 84.7772 137.718 82.1168 134.901 81.7137Z" stroke="#8A86B2" stroke-width="1.5" stroke-linecap="round" stroke-linejoin="round"/>
<path d="M36.4236 87.2742L35.0508 97.2911L64.037 100.195L135.984 111.741L137.356 101.717L64.9864 93.2355L36.4236 87.2742Z" stroke="#8A86B2" stroke-width="1.5" stroke-linecap="round" stroke-linejoin="round"/>
<path d="M54.8574 137.115L63.3129 138.329L68.0051 97.3402L72.9021 72.8389L63.5793 71.5056L61.1956 96.3699L54.8574 137.115Z" stroke="#8A86B2" stroke-width="1.5" stroke-linecap="round" stroke-linejoin="round"/>
<path d="M60.5714 99.5166C60.5714 99.5166 49.5274 105.883 48.7966 119.564L44.7669 114.113L39.5625 116.863C39.5625 116.863 42.6018 101.471 54.8684 98.7139L60.5714 99.5166Z" stroke="#8A86B2" stroke-width="1.5" stroke-linecap="round" stroke-linejoin="round"/>
<path d="M66.1992 100.808C66.1992 100.808 75.0781 110.036 72.1276 123.397L77.4618 119.278L81.7305 123.39C81.7305 123.39 82.9462 107.733 71.8954 101.625L66.1992 100.808Z" stroke="#8A86B2" stroke-width="1.5" stroke-linecap="round" stroke-linejoin="round"/>
<path d="M60.7356 92.7684C60.7356 92.7684 50.6136 85.4479 47.4051 87.0862C44.1965 88.7244 43.0816 98.9819 46.161 99.9043C49.2405 100.827 57.1056 98.3177 60.4365 98.8269L60.7356 92.7684Z" stroke="#8A86B2" stroke-width="1.5" stroke-linecap="round" stroke-linejoin="round"/>
<path d="M46.1289 98.5965C46.245 99.8181 49.7282 99.874 52.3919 99.7343C54.3726 99.4481 56.4489 99.0852 58.2042 98.9246C53.9491 98.2335 45.9854 97.1306 46.1289 98.5965Z" stroke="#8A86B2" stroke-width="1.5" stroke-linecap="round" stroke-linejoin="round"/>
<path d="M68.8007 94.6264C68.8007 94.6264 80.4457 90.822 83.1435 93.2303C85.8414 95.6385 84.2978 105.265 81.0946 105.23C77.8913 105.195 70.9248 100.699 67.5645 100.218L68.8007 94.6264Z" stroke="#8A86B2" stroke-width="1.5" stroke-linecap="round" stroke-linejoin="round"/>
<path d="M81.6108 103.671C81.1669 104.816 77.7997 103.888 75.2795 102.973C73.449 102.15 71.5503 101.214 69.9043 100.565C74.1798 101.13 82.1231 102.31 81.6108 103.671Z" stroke="#8A86B2" stroke-width="1.5" stroke-linecap="round" stroke-linejoin="round"/>
<path d="M66.4146 101.075L61.5312 100.377C61.0955 100.314 60.6989 100.086 60.4204 99.7383C60.1419 99.3902 60.002 98.9477 60.0286 98.4989L60.3223 93.7732C60.3359 93.5259 60.3997 93.2842 60.5096 93.0634C60.6194 92.8427 60.773 92.6477 60.9605 92.4908C61.1481 92.3339 61.3654 92.2186 61.5989 92.1522C61.8323 92.0857 62.0768 92.0696 62.3166 92.1048L67.8899 92.9076C68.1289 92.9404 68.3586 93.0236 68.5646 93.1519C68.7705 93.2802 68.9481 93.4508 69.0862 93.6529C69.2242 93.855 69.3197 94.0842 69.3665 94.326C69.4134 94.5678 69.4106 94.8169 69.3583 95.0576L68.3543 99.6786C68.2634 100.119 68.0128 100.507 67.653 100.766C67.2931 101.025 66.8507 101.136 66.4146 101.075V101.075Z" stroke="#8A86B2" stroke-width="1.5" stroke-linecap="round" stroke-linejoin="round"/>
</g>
</svg>
