<svg width="171" height="190" viewBox="0 0 171 190" fill="none" xmlns="http://www.w3.org/2000/svg">
<path opacity="0.03" d="M163.011 108.332C172.592 90.2111 173.247 66.0651 166.624 46.708C160.929 30.0433 148.253 17.3256 133.615 9.75931C116.63 0.979256 96.3871 -1.63427 78.1485 3.90804C73.3562 5.36455 68.6861 6.70126 64.1655 9.09726C45.6348 18.9145 49.2214 43.1077 42.7105 51.5252C37.2389 58.606 26.7815 56.519 20.1857 61.9447C2.40898 76.5949 12.7 114.329 31.781 127.872C53.9967 143.642 139.283 153.204 163.011 108.332Z" fill="#3E1BDB"/>
<g opacity="0.5">
<path d="M143.506 2.10679L154.67 28.7072C154.67 28.7072 128.227 62.2293 79.438 62.7456L76.7574 32.3413C76.7574 32.3413 96.1348 33.5407 112.358 26.3544C128.582 19.1681 143.506 2.10679 143.506 2.10679Z" stroke="#8A86B2" stroke-width="1.5" stroke-miterlimit="10"/>
<path d="M144.589 29.2256C144.534 28.5327 144.658 27.85 144.944 27.2689C145.229 26.6878 145.663 26.236 146.187 25.9739L140.31 14.3075C139.808 14.6208 139.261 14.8316 138.691 14.9319C137.714 15.1243 136.691 14.9373 135.769 14.3981C131.149 18.6022 122.397 26.0528 113.089 30.1959C104.559 33.676 95.5923 35.7132 86.44 36.2507C86.1718 36.7601 85.8055 37.1825 85.3691 37.486C84.9326 37.7895 84.4374 37.966 83.9209 38.0023L85.645 55.001C85.9569 54.946 86.2819 54.8887 86.6069 54.8314C89.2066 54.373 91.413 54.9524 91.6173 56.1108C91.6338 56.2995 91.6134 56.4874 91.5577 56.6597C91.5021 56.832 91.4126 56.9839 91.2964 57.1035C121.657 53.1705 140.53 36.914 146.152 31.4033C145.769 31.2117 145.425 30.9124 145.152 30.5323C144.879 30.1522 144.686 29.7031 144.589 29.2256V29.2256ZM116.326 43.2317C111.921 45.1545 107.725 44.9258 106.948 42.7224C106.171 40.5191 109.109 37.1925 113.515 35.2697C117.92 33.3469 122.116 33.5756 122.893 35.779C123.67 37.9823 120.732 41.3089 116.326 43.2317Z" stroke="#8A86B2" stroke-width="1.5" stroke-miterlimit="10"/>
</g>
<g opacity="0.3">
<path d="M40.2245 103.069C18.5983 105.937 3.66995 126.2 6.9531 148.246C10.2353 170.286 30.5045 185.887 52.1307 183.019C73.7569 180.151 88.6843 159.881 85.4021 137.841C82.119 115.795 61.8569 100.199 40.2245 103.069ZM42.955 104.719C61.8029 103.47 79.0447 116.735 83.0917 135.59C83.2938 136.525 82.6735 137.428 81.7482 137.55C80.9032 137.662 80.1069 137.088 79.9241 136.241C76.2295 118.993 60.4585 106.86 43.2188 108.012C42.3715 108.066 41.6118 107.443 41.4836 106.581C41.337 105.639 42.0151 104.786 42.955 104.719ZM18.932 146.657C16.6515 131.344 27.0217 117.263 42.0478 115.27C57.0739 113.277 71.155 124.115 73.4355 139.429C75.716 154.742 65.3459 168.823 50.3198 170.816C35.2875 172.81 21.2125 161.971 18.932 146.657ZM27.0777 167.354C26.5126 168.121 25.4143 168.222 24.7012 167.573C19.0722 162.467 15.0807 155.432 13.8749 147.335C12.6841 139.338 14.4044 131.629 18.2238 125.302C18.7187 124.486 19.8092 124.29 20.5765 124.881C21.2514 125.4 21.436 126.344 21.0019 127.062C17.5609 132.762 16.0105 139.711 17.0834 146.915C18.1703 154.214 21.7685 160.551 26.8435 165.148C27.4685 165.712 27.5738 166.673 27.0777 167.354ZM71.0768 159.492C74.7129 153.708 76.3817 146.583 75.2799 139.184C74.192 131.879 70.5858 125.53 65.4975 120.929C64.8644 120.353 64.7591 119.392 65.2553 118.711C65.8203 117.944 66.9187 117.843 67.6318 118.492C73.2741 123.603 77.2797 130.649 78.4874 138.758C79.71 146.968 77.8618 154.874 73.8245 161.301C73.3215 162.105 72.2414 162.287 71.4813 161.702C70.8045 161.17 70.6242 160.213 71.0768 159.492ZM63.298 115.156C64.1053 115.678 64.3151 116.791 63.7491 117.552C63.252 118.227 62.3148 118.396 61.5981 117.933C55.8681 114.219 48.916 112.436 41.7608 113.385C34.5006 114.348 28.2636 117.957 23.8318 123.128C23.2797 123.772 22.3242 123.86 21.6422 123.335C20.882 122.75 20.7542 121.639 21.3709 120.923C26.2901 115.18 33.211 111.179 41.273 110.109C49.2188 109.062 56.9417 111.038 63.298 115.156ZM37.6549 105.454C38.5751 105.255 39.4893 105.903 39.6316 106.859C39.758 107.708 39.2222 108.503 38.3998 108.683C21.7118 112.229 10.293 127.886 11.7586 145.288C11.8304 146.151 11.2326 146.909 10.3876 147.021C9.45614 147.145 8.60227 146.438 8.52353 145.487C6.92215 126.454 19.4136 109.342 37.6549 105.454ZM48.969 181.387C30.419 182.399 13.5225 169.382 9.35854 150.883C9.14933 149.942 9.76166 149.028 10.6993 148.903C11.5381 148.792 12.3325 149.353 12.5206 150.194C16.3306 167.119 31.7838 179.019 48.7422 178.09C49.5843 178.042 50.3316 178.668 50.4589 179.523C50.5951 180.479 49.9117 181.339 48.969 181.387ZM29.0349 170.908C28.2277 170.387 28.0188 169.28 28.5839 168.513C29.0809 167.838 30.0181 167.669 30.7359 168.138C36.4677 171.865 43.433 173.653 50.6006 172.702C57.6695 171.765 63.7677 168.321 68.1811 163.364C68.736 162.739 69.6739 162.659 70.3489 163.179C71.1161 163.769 71.2396 164.894 70.6035 165.607C65.7113 171.108 58.9397 174.93 51.0936 175.97C43.1241 177.027 35.3941 175.046 29.0349 170.908ZM54.2661 180.716C53.3503 180.902 52.4484 180.252 52.3079 179.309C52.1797 178.448 52.7277 177.651 53.5582 177.483C70.3441 174.129 81.9136 158.555 80.6253 141.161C80.5606 140.304 81.1603 139.558 81.9992 139.447C82.9367 139.322 83.7977 140.035 83.866 141C85.2705 160.02 72.6204 177.038 54.2661 180.716Z" fill="#8A86B2"/>
<path fill-rule="evenodd" clip-rule="evenodd" d="M42.8337 127.402C41.597 127.658 40.0043 128.238 38.7761 128.88C35.7332 130.47 33.2411 133.066 31.7542 136.194C30.7677 138.27 30.2525 140.444 30.1912 142.79C30.1705 143.583 30.2341 144.856 30.2982 144.934C30.3636 145.013 31.2609 144.815 31.6243 144.64C31.8012 144.556 32.2776 144.256 32.683 143.974C33.7364 143.241 34.0116 143.109 34.7502 142.98C35.098 142.919 35.3806 142.891 35.425 142.913C35.4887 142.945 35.465 143.068 35.2834 143.651L35.0654 144.35L34.7487 144.396C34.2291 144.472 33.7825 144.691 32.9244 145.291C31.9603 145.964 31.6497 146.118 30.997 146.247L30.5011 146.344L30.6029 146.846C30.6589 147.122 30.7197 147.366 30.738 147.388C30.7926 147.454 31.4982 147.332 31.768 147.21C31.9058 147.148 32.289 146.901 32.6195 146.662C32.9501 146.423 33.3196 146.16 33.4406 146.077C33.7302 145.879 34.2952 145.648 34.5932 145.606C34.8688 145.567 34.8498 145.492 34.7816 146.352L34.7415 146.857L34.4444 146.928C34.0604 147.019 33.7507 147.204 33.0359 147.766C32.3513 148.304 31.9831 148.494 31.4839 148.564C31.2883 148.591 31.1297 148.624 31.1314 148.636C31.1359 148.668 31.4361 149.449 31.5268 149.664L31.6031 149.846L31.9043 149.774C32.2613 149.689 32.584 149.486 33.2333 148.936C33.7421 148.505 34.1443 148.289 34.5374 148.233L34.7968 148.197L34.8708 148.723L34.9448 149.25L34.6839 149.319C34.2999 149.42 34.0354 149.584 33.5059 150.049C32.9436 150.543 32.6863 150.712 32.3658 150.797C32.0881 150.87 32.0801 150.823 32.4836 151.506C32.6299 151.754 32.7792 151.964 32.8153 151.972C32.9204 151.997 33.4121 151.629 33.7212 151.295C34.1279 150.856 34.4188 150.671 34.8566 150.575C35.1466 150.512 35.2202 150.509 35.2292 150.563C35.2353 150.6 35.2962 150.801 35.3644 151.009C35.4326 151.217 35.4892 151.389 35.4902 151.393C35.4912 151.396 35.3797 151.424 35.2425 151.455C34.8903 151.535 34.5457 151.774 34.2037 152.177C34.0417 152.368 33.7981 152.597 33.6625 152.688C33.5268 152.778 33.41 152.858 33.4028 152.867C33.3863 152.886 33.9866 153.645 34.097 153.744C34.1427 153.786 34.2074 153.815 34.2409 153.811C34.2744 153.806 34.4346 153.64 34.5969 153.441C34.9826 152.969 35.2976 152.693 35.584 152.577C35.7116 152.525 35.8295 152.468 35.8461 152.451C35.8627 152.433 35.7978 152.244 35.7021 152.03C35.6063 151.815 35.5354 151.623 35.5446 151.602C35.5537 151.581 35.706 151.529 35.883 151.487C36.2653 151.397 36.9975 151.054 37.2764 150.836C37.3858 150.75 37.5937 150.56 37.7385 150.413L38.0019 150.145L37.9706 149.766C37.9439 149.443 37.9609 149.321 38.0857 148.941C38.1661 148.696 38.3934 148.207 38.5907 147.854C39.1681 146.821 39.4668 146.203 39.4943 145.983C39.5375 145.638 39.3729 144.981 39.0927 144.381C38.7017 143.542 38.5315 143.016 38.4394 142.361C38.3506 141.729 38.3493 141.367 38.4341 140.865C38.5178 140.369 38.8121 139.556 39.0632 139.126C39.3089 138.706 39.7681 138.12 39.8004 138.185C39.8116 138.208 39.6975 138.489 39.5467 138.809C39.0282 139.91 38.863 140.839 39.0052 141.851C39.0959 142.496 39.2128 142.873 39.5398 143.576C39.9322 144.42 40.0596 144.767 40.1552 145.25C40.2362 145.66 40.2429 145.792 40.1974 146.087C40.1411 146.452 39.8851 147.046 39.5095 147.683C38.9149 148.692 38.7185 149.262 38.7671 149.838C38.8124 150.375 38.972 150.764 39.4322 151.459C39.6409 151.774 39.8037 152.068 39.7939 152.111C39.7622 152.25 39.1062 152.898 38.7024 153.19C38.1491 153.59 37.782 153.768 37.3222 153.86C36.8282 153.96 36.7249 153.918 36.4749 153.518C36.3745 153.357 36.2861 153.227 36.2784 153.228C36.2707 153.23 36.1554 153.277 36.022 153.334C35.7361 153.455 35.4682 153.709 35.1063 154.201L34.8429 154.559L35.1455 154.854C35.3118 155.016 35.5087 155.199 35.5828 155.261L35.7177 155.374L36.0737 154.886C36.3883 154.455 36.7035 154.161 36.8816 154.133C36.9546 154.121 37.3622 154.721 37.3018 154.751C37.0788 154.863 36.5173 155.543 36.4079 155.835C36.3834 155.9 36.4866 156 36.8738 156.288L37.3712 156.657L37.4721 156.47C37.6357 156.167 38.0297 155.651 38.1054 155.64C38.1778 155.63 38.5925 156.013 38.605 156.101C38.6088 156.129 38.5834 156.167 38.5483 156.187C38.4698 156.231 38.0377 156.95 38.0476 157.021C38.0588 157.1 39.2092 157.751 39.2426 157.697C39.2489 157.686 39.2781 157.518 39.3074 157.322C39.3646 156.941 39.491 156.636 39.9908 155.672C40.5848 154.526 40.7003 154.057 40.5612 153.358C40.515 153.125 40.4863 152.933 40.4975 152.931C40.5087 152.93 40.6161 153.079 40.7362 153.262C41.0107 153.681 41.1199 154.108 41.0696 154.566C41.0307 154.92 40.8004 155.644 40.5541 156.185C40.2279 156.902 40.0048 157.682 40.0456 157.962C40.0644 158.09 40.1073 158.124 40.4123 158.245C40.6023 158.321 40.8098 158.389 40.8734 158.396C40.9763 158.407 40.9866 158.392 40.9671 158.253C40.9259 157.96 41.1151 157.169 41.5238 155.926C41.7486 155.242 41.9431 154.574 41.956 154.443C41.9691 154.31 41.9444 154.023 41.9002 153.795C41.8265 153.415 41.7969 153.351 41.4744 152.88C41.2838 152.601 40.9898 152.215 40.8209 152.021C40.3825 151.518 39.842 150.723 39.725 150.41C39.599 150.073 39.5312 149.6 39.5626 149.279C39.6017 148.878 39.8102 148.37 40.2994 147.484C40.8219 146.537 40.9241 146.307 41.0009 145.906C41.1144 145.314 40.9054 144.631 40.2215 143.36C39.873 142.712 39.7378 142.294 39.6238 141.514C39.5159 140.774 39.5166 140.537 39.6282 139.931C39.7786 139.116 40.3072 138.049 40.8115 137.542C41.2205 137.131 41.2495 137.165 40.9537 137.708C40.3241 138.864 40.1359 139.838 40.3081 141.047C40.3944 141.653 40.5407 142.078 40.9085 142.791C41.0588 143.082 41.2829 143.518 41.4065 143.759C41.8404 144.605 42.0045 145.499 41.8393 146.117C41.7356 146.505 41.5832 146.828 41.1327 147.612C40.5491 148.629 40.41 149.084 40.4953 149.694C40.5808 150.307 40.8855 150.82 41.7375 151.783C42.5166 152.665 42.8648 153.261 42.9489 153.86C43.0397 154.506 42.991 154.719 42.2917 156.732C42.0058 157.555 41.8858 158.161 41.9372 158.522L41.9737 158.778L42.4414 158.882C42.6986 158.939 42.9328 158.99 42.9618 158.995C42.9939 159.002 43.0098 158.817 43.0023 158.524C42.9847 157.84 43.0484 157.548 43.5323 156.088C43.9866 154.718 44.0632 154.337 43.9882 153.825C43.9019 153.235 43.6535 152.828 42.7123 151.736C41.5681 150.408 41.2797 149.736 41.4569 148.811C41.5174 148.496 41.8333 147.819 42.3331 146.934C42.5431 146.562 42.6882 146.231 42.7495 145.985C42.8373 145.633 42.8376 145.568 42.7551 145.003C42.6517 144.295 42.4931 143.904 41.9801 143.095C41.3134 142.044 40.9901 141.225 40.9314 140.439C40.869 139.602 41.0011 138.871 41.3576 138.082C41.6597 137.413 42.2863 136.598 42.4446 136.668C42.5112 136.698 42.4726 136.81 42.256 137.215C41.7561 138.149 41.593 139.411 41.8286 140.52C41.9577 141.128 42.1903 141.594 43.1881 143.242C43.498 143.753 43.7908 144.496 43.8493 144.918C43.9567 145.694 43.814 146.234 43.212 147.333C42.7443 148.187 42.6375 148.445 42.5733 148.88C42.4707 149.574 42.7631 150.239 43.5863 151.183C43.7995 151.427 44.1118 151.786 44.2802 151.98C44.8909 152.682 45.2177 153.353 45.2526 153.975C45.279 154.444 45.1864 154.869 44.771 156.186C44.3033 157.669 44.2511 157.959 44.3228 158.672L44.3794 159.233L44.8694 159.275C45.139 159.297 45.3921 159.311 45.4318 159.306C45.4917 159.297 45.4917 159.201 45.4319 158.75C45.3764 158.331 45.3726 158.086 45.4156 157.698C45.4857 157.064 45.5247 156.904 45.8869 155.757C46.3029 154.441 46.3221 154.325 46.2331 153.682C46.1793 153.294 46.1266 153.085 46.0391 152.914C45.8838 152.611 45.4439 152.042 44.7669 151.27C44.111 150.522 43.9725 150.337 43.7811 149.952C43.5018 149.391 43.4762 148.583 43.7204 148.037C43.7674 147.931 43.96 147.568 44.1483 147.229C44.5483 146.509 44.6466 146.244 44.7019 145.739C44.7794 145.03 44.8123 145.01 45.7428 145.126C46.2531 145.189 46.8455 145.089 47.3236 144.859C47.704 144.676 47.938 144.64 48.0643 144.747C48.1175 144.791 48.2276 144.991 48.309 145.19C48.5146 145.692 48.6845 145.92 49.3667 146.61C50.0473 147.298 50.0909 147.354 50.2501 147.74C50.3968 148.095 50.4407 148.404 50.4034 148.817C50.3611 149.285 50.2236 149.676 49.7564 150.658C49.0446 152.155 48.9261 152.583 49.0275 153.289C49.1059 153.836 49.2441 154.117 49.983 155.231C50.8267 156.503 51.1068 157.13 51.2344 158.033C51.2864 158.4 51.3109 158.479 51.3705 158.471C51.5421 158.447 52.3038 158.132 52.3297 158.074C52.3704 157.984 52.2999 157.529 52.19 157.173C52.0447 156.702 51.8682 156.383 51.1986 155.381C50.3618 154.13 50.193 153.8 50.0773 153.191C49.9997 152.784 49.995 152.66 50.0463 152.386C50.1391 151.889 50.3077 151.432 50.7363 150.516C51.2709 149.372 51.3889 148.996 51.4023 148.396C51.4157 147.792 51.0749 147.173 50.3733 146.527C49.4293 145.658 49.071 145.079 48.9519 144.232C48.8498 143.505 48.9171 143.011 49.3091 141.61C49.7078 140.186 49.7501 139.619 49.531 138.633C49.3378 137.763 48.9223 136.982 48.3137 136.344C48.0158 136.032 47.9353 135.872 48.0659 135.854C48.0925 135.85 48.2867 135.959 48.4975 136.096C49.6835 136.864 50.5229 138.341 50.5756 139.752C50.5935 140.231 50.4651 141.101 50.2889 141.695C49.9037 142.994 49.8428 143.822 50.0832 144.492C50.2516 144.961 50.4657 145.263 51.0127 145.8C52.1403 146.907 52.4278 147.326 52.521 147.997C52.6151 148.674 52.4852 149.16 51.8192 150.621C51.2709 151.824 51.1812 152.176 51.2638 152.802C51.3427 153.4 51.3987 153.509 52.3437 154.899C53.1762 156.124 53.4415 156.636 53.515 157.159C53.5387 157.328 53.5785 157.475 53.6034 157.486C53.6282 157.497 53.8506 157.391 54.0976 157.252L54.5466 156.997L54.495 156.715C54.4171 156.29 54.1919 155.861 53.6163 155.042C52.5049 153.46 52.3087 153.112 52.2354 152.591C52.1622 152.07 52.3443 151.32 52.7609 150.425C53.4456 148.955 53.5489 148.58 53.4579 147.897C53.3669 147.214 53.1349 146.856 52.2248 145.995C51.7473 145.543 51.3021 145.015 51.1244 144.691C50.8275 144.15 50.776 143.148 50.9957 142.186C51.1755 141.398 51.2961 140.669 51.3148 140.255C51.36 139.258 50.9503 137.947 50.3606 137.201C50.1011 136.873 49.7273 136.46 49.542 136.296C49.4528 136.218 49.3885 136.142 49.3991 136.127C49.4479 136.062 49.8003 136.25 50.1893 136.549C51.3523 137.443 52.0364 138.74 52.1058 140.184C52.1336 140.761 52.0888 141.208 51.9254 141.984C51.7589 142.775 51.7132 143.334 51.777 143.796C51.8652 144.435 52.0165 144.666 52.9711 145.618C53.6917 146.337 54.0401 146.764 54.2218 147.15C54.5691 147.89 54.4537 148.739 53.8116 150.171C53.1398 151.668 53.0693 152.291 53.4843 153.059C53.5662 153.21 53.9275 153.76 54.2872 154.28C54.8933 155.157 55.2074 155.715 55.3777 156.217L55.4462 156.419L55.8215 156.123L56.1968 155.828L56.1588 155.642C56.0978 155.343 55.7294 154.764 55.19 154.119C54.4163 153.194 54.0818 152.523 54.1084 151.951C54.1195 151.713 54.2867 151.043 54.3368 151.036C54.3476 151.034 54.3863 151.246 54.4228 151.506C54.473 151.863 54.5231 152.042 54.6279 152.241C54.7895 152.547 55.1947 153.078 55.4546 153.325C55.9469 153.793 56.5235 154.503 56.6978 154.856C56.8575 155.179 56.8898 155.218 56.9591 155.167C57.0235 155.119 57.5654 154.588 57.8201 154.322C57.8714 154.268 57.8596 154.236 57.7433 154.11C57.6677 154.029 57.4739 153.856 57.3127 153.726L57.0196 153.491L57.1816 153.213C57.2707 153.061 57.3601 152.934 57.3804 152.931C57.4797 152.917 57.868 153.181 58.0937 153.416C58.233 153.561 58.3586 153.679 58.3729 153.678C58.4189 153.677 59.1275 152.778 59.1207 152.73C59.1092 152.648 58.6658 152.23 58.4574 152.104C58.3464 152.038 58.1745 151.955 58.0752 151.92C57.976 151.886 57.8875 151.853 57.8787 151.847C57.8412 151.823 58.1277 151.146 58.1783 151.139C58.3271 151.119 58.8484 151.394 59.2196 151.689L59.6335 152.016L59.7736 151.792C59.8506 151.668 59.9874 151.433 60.0776 151.27L60.2416 150.972L59.7666 150.627C59.3068 150.293 58.9559 150.135 58.6265 150.114C58.4776 150.104 58.4718 150.112 58.3839 150.444C58.2621 150.903 58.1921 150.957 57.6636 151.001C57.1945 151.041 56.9282 151.001 56.3379 150.803C55.8201 150.629 55.4074 150.427 55.0443 150.171L54.751 149.964L54.959 149.317C55.1782 148.635 55.2724 148.029 55.2187 147.647C55.1387 147.077 54.7704 146.564 53.6259 145.427C52.481 144.29 52.3819 143.871 52.7163 141.587C52.8259 140.838 52.8368 140.475 52.765 139.963C52.624 138.96 52.1576 138.027 51.3363 137.103C51.1054 136.844 50.9242 136.621 50.9337 136.608C50.9705 136.559 51.3829 136.82 51.6798 137.081C53.0607 138.293 53.6684 139.92 53.4318 141.772C53.2874 142.904 53.2672 143.123 53.2795 143.432C53.3031 144.028 53.4667 144.269 54.6235 145.407C55.485 146.255 55.8183 146.729 55.9374 147.276L56.0185 147.648L56.3426 147.826C56.9563 148.164 57.7473 148.351 58.4304 148.32C58.7925 148.303 58.7853 148.291 58.7175 148.814C58.658 149.273 58.6619 149.291 58.8184 149.27C59.1107 149.23 59.6326 149.46 60.279 149.913C60.4344 150.022 60.5945 150.107 60.6351 150.101C60.699 150.092 61.1587 149.086 61.1447 148.986C61.1419 148.966 61.0186 148.913 60.8705 148.867C60.7225 148.821 60.4311 148.671 60.2229 148.533C59.7759 148.237 59.3927 148.103 59.0306 148.116C58.7297 148.127 58.7379 148.143 58.7563 147.573L58.7675 147.225L59.1028 147.181C59.5299 147.125 59.8251 147.211 60.5073 147.591C61.1056 147.924 61.4176 148.019 61.5101 147.895C61.5433 147.851 61.6336 147.562 61.7108 147.254L61.8512 146.693L61.6934 146.701C61.3011 146.72 61.022 146.63 59.986 146.15C59.5792 145.961 59.1264 145.865 58.8379 145.906L58.7038 145.924L58.6288 145.391L58.5539 144.858L58.8306 144.82C59.2188 144.767 59.6747 144.874 60.3379 145.174C61.0974 145.517 61.4082 145.601 61.7662 145.56L62.0563 145.527L62.1144 145C62.2009 144.214 62.2263 144.26 61.7247 144.302C61.2049 144.346 60.9456 144.296 60.2726 144.023C59.2366 143.603 58.8679 143.511 58.3455 143.54C58.215 143.548 58.194 143.528 58.1313 143.336C58.0931 143.219 57.9954 142.96 57.9142 142.76C57.833 142.56 57.7646 142.383 57.7623 142.366C57.7527 142.298 58.5618 142.292 58.8899 142.358C59.0839 142.397 59.54 142.543 59.9034 142.683C60.9571 143.088 61.143 143.126 61.7043 143.052L62.1819 142.989L62.2002 142.842C62.2102 142.76 62.2075 142.511 62.1942 142.286L62.17 141.879L61.7623 141.936C61.1298 142.025 60.7075 141.952 59.5362 141.554C58.444 141.182 58.0921 141.12 57.5178 141.199L57.2223 141.24L56.8107 140.623C56.5842 140.284 56.4103 139.991 56.424 139.973C56.4378 139.955 56.734 139.901 57.0824 139.854C57.8538 139.749 58.1912 139.797 59.2002 140.154C60.4111 140.582 60.913 140.672 61.5843 140.577L61.9661 140.524L61.9225 140.214C61.7917 139.283 61.2391 137.539 60.7212 136.423C60.2858 135.485 59.4973 134.164 58.9521 133.459C57.9217 132.128 57.1512 131.364 55.8044 130.341C54.222 129.139 52.9358 128.455 51.1382 127.859C49.1399 127.197 47.0373 126.943 44.903 127.106C44.042 127.172 43.7416 127.215 42.8337 127.402ZM44.2765 128.417C44.5479 128.885 45.1815 129.907 45.2192 129.938C45.2393 129.954 45.7138 129.938 46.2736 129.902C46.8333 129.867 47.2991 129.843 47.3087 129.85C47.3299 129.866 47.0283 130.241 46.4316 130.938C46.1836 131.228 45.9819 131.474 45.9834 131.485C45.9849 131.495 46.1975 131.884 46.4559 132.349L46.9255 133.193L47.1452 132.925C47.7473 132.191 48.7141 131.567 49.7622 131.236C50.0271 131.153 50.2586 131.096 50.2765 131.109C50.2944 131.123 50.2217 131.34 50.1149 131.593C49.8344 132.256 49.3823 133.686 49.4041 133.841C49.4069 133.86 49.5609 133.739 49.7465 133.573C50.0678 133.284 50.5476 132.976 51.0429 132.741C51.3409 132.6 52.1056 132.369 52.1554 132.405C52.1768 132.421 52.1057 132.59 51.9972 132.782C51.6756 133.35 51.3019 134.192 51.0314 134.959C50.8919 135.355 50.7474 135.696 50.7102 135.716C50.673 135.737 50.5182 135.713 50.3662 135.663C49.0254 135.219 47.3073 135.026 45.7718 135.146C43.8855 135.293 42.114 135.882 40.369 136.94C40.0802 137.115 39.81 137.251 39.7687 137.241C39.7273 137.231 39.6256 137.117 39.5428 136.988C39.1578 136.385 38.3147 135.354 37.6413 134.663C37.5425 134.562 37.4707 134.466 37.4818 134.452C37.4929 134.437 37.7102 134.429 37.9648 134.435C38.7659 134.452 39.6893 134.676 40.3027 135.001L40.5668 135.141L40.4068 134.848C40.1686 134.413 39.5793 133.523 39.387 133.308C39.2943 133.204 39.1426 133.021 39.0498 132.901L38.8813 132.683L39.1928 132.674C40.2332 132.644 41.4578 132.969 42.3348 133.508C42.5505 133.641 42.7338 133.74 42.7422 133.729C42.7733 133.687 43.1304 132.089 43.1378 131.959C43.1441 131.847 43.1106 131.803 42.9403 131.7C42.5887 131.489 41.4911 130.745 41.4695 130.703C41.4582 130.682 41.5837 130.633 41.7484 130.595C41.9132 130.556 42.3747 130.451 42.7742 130.36L43.5005 130.194L43.7515 129.269C43.8895 128.76 44.0115 128.304 44.0226 128.255C44.0565 128.104 44.1178 128.143 44.2765 128.417ZM44.0015 133.503C43.6071 133.902 43.2861 134.247 43.288 134.271C43.2899 134.294 43.356 134.291 43.435 134.263C43.5139 134.235 43.8781 134.144 44.2441 134.061C44.8805 133.916 45.7187 133.833 46.3847 133.85C46.5167 133.853 46.5646 133.84 46.5375 133.807C46.5035 133.766 44.9137 132.859 44.7705 132.799C44.7419 132.787 44.3958 133.104 44.0015 133.503ZM33.3512 137.115C33.9403 137.57 34.3515 138.102 34.668 138.82C34.7538 139.014 34.827 139.178 34.8307 139.184C34.8344 139.189 34.9565 139.109 35.1019 139.005C35.8057 138.5 36.7517 138.169 37.479 138.173C37.962 138.176 38.4589 138.246 38.4939 138.317C38.5074 138.344 38.3398 138.553 38.1216 138.781C37.4055 139.531 36.7476 140.429 36.2502 141.338C36.0867 141.637 35.9503 141.887 35.9471 141.894C35.9439 141.9 35.7756 141.894 35.573 141.879C35.0681 141.843 34.369 141.982 33.9065 142.211C33.7174 142.305 33.2178 142.597 32.7963 142.86C32.3747 143.124 31.9055 143.396 31.7535 143.466C31.4384 143.611 30.6696 143.737 30.5681 143.66C30.5221 143.625 30.5604 143.532 30.7168 143.298C31.9042 141.522 32.5282 139.974 32.6331 138.542C32.6472 138.35 32.6283 137.885 32.591 137.51C32.4952 136.543 32.5641 136.508 33.3512 137.115ZM57.5543 133.297C57.5853 133.327 57.6475 133.603 57.6926 133.911C57.9448 135.63 58.9218 137.129 60.9235 138.869C61.2433 139.147 61.3886 139.304 61.3609 139.341C61.2924 139.433 60.4592 139.528 60.1465 139.479C59.9918 139.456 59.4228 139.309 58.8822 139.154C58.3414 138.999 57.772 138.855 57.6167 138.834C57.1703 138.776 56.4226 138.856 56.0482 139.002C55.874 139.07 55.7249 139.127 55.7167 139.128C55.7086 139.129 55.4864 138.91 55.2229 138.642C54.645 138.052 53.51 137.172 52.7795 136.747C52.4858 136.576 52.2354 136.43 52.2232 136.423C52.1294 136.368 52.7207 136.09 53.2023 135.962C53.9628 135.762 54.8074 135.81 55.6694 136.103C55.919 136.188 56.0215 136.203 56.0297 136.157C56.036 136.122 56.0547 135.957 56.0712 135.792C56.1477 135.025 56.595 134.041 57.1195 133.486C57.334 133.259 57.4582 133.205 57.5543 133.297ZM46.0719 135.864C46.5401 135.916 47.2673 136.172 47.614 136.407C47.9531 136.637 48.2938 136.998 48.4417 137.285C48.5644 137.522 48.5185 137.556 48.1464 137.502C47.8531 137.459 47.312 137.511 47.0159 137.61C46.7234 137.708 46.3908 137.939 46.2453 138.145C46.077 138.383 46.0544 138.758 46.1724 139.358C46.3292 140.154 46.4997 140.33 46.6581 139.859C46.7011 139.731 46.773 139.577 46.8179 139.517C46.892 139.418 46.9192 139.411 47.1131 139.44C47.5895 139.511 47.6849 139.513 47.8884 139.456C48.0052 139.424 48.1666 139.346 48.2469 139.283C48.4417 139.131 48.4866 139.13 48.6703 139.276C48.8061 139.384 48.8365 139.448 48.8999 139.755C49.216 141.289 48.1292 143.556 46.809 144.117C45.9683 144.474 44.9716 144.172 44.067 143.286C43.2802 142.516 42.8016 141.655 42.6732 140.78C42.6167 140.395 42.6179 140.292 42.6797 140.178C42.7882 139.979 42.9512 139.927 43.216 140.007C43.4951 140.092 43.8965 140.044 44.1876 139.893C44.489 139.736 44.629 139.726 44.8651 139.846C45.0107 139.92 45.0805 139.932 45.1127 139.889C45.1802 139.799 45.099 139.005 44.9913 138.703C44.8798 138.391 44.7266 138.262 44.3197 138.141C43.7924 137.983 43.2024 138.039 42.6365 138.3C42.5293 138.35 42.4246 138.377 42.4039 138.362C42.3415 138.314 42.4323 137.975 42.6071 137.604C42.9374 136.902 43.6217 136.342 44.5372 136.024C44.9306 135.888 45.6301 135.815 46.0719 135.864ZM43.4541 138.579C43.7824 138.595 44.2485 138.79 44.3703 138.962C44.4958 139.139 44.4323 139.193 44.1647 139.136C44.0303 139.108 43.7713 139.11 43.5285 139.141C43.181 139.186 43.0947 139.214 42.9586 139.329L42.7982 139.464L42.6795 139.349C42.4508 139.128 42.5175 138.801 42.814 138.69C42.8851 138.663 42.9639 138.631 42.9891 138.618C43.0746 138.576 43.1885 138.566 43.4541 138.579ZM48.3548 137.968C48.5418 138.057 48.6221 138.214 48.575 138.398C48.5116 138.646 48.4422 138.694 48.2809 138.599C48.0343 138.454 47.7089 138.493 47.0454 138.745C46.9479 138.783 46.9125 138.772 46.8765 138.697C46.8515 138.644 46.8481 138.554 46.869 138.497C46.9207 138.355 47.2488 138.101 47.4963 138.011C47.7587 137.916 48.1994 137.894 48.3548 137.968ZM45.262 141.178C45.1099 141.288 45.1453 141.349 45.3929 141.403C45.8874 141.512 46.0183 141.495 46.4227 141.272C46.6454 141.149 46.699 141.026 46.5484 140.983C46.3801 140.936 45.3899 141.086 45.262 141.178ZM44.8531 142.285C44.8664 142.379 45.4786 142.842 45.6875 142.915C45.9491 143.007 46.3712 142.944 46.6194 142.777C46.8211 142.64 47.2937 141.969 47.213 141.934C47.1867 141.922 46.9878 141.962 46.771 142.024C46.391 142.131 45.2843 142.263 44.9813 142.238C44.8906 142.23 44.8476 142.246 44.8531 142.285Z" fill="#8A86B2"/>
</g>
</svg>
