<svg width="540" height="422" viewBox="0 0 540 422" fill="none" xmlns="http://www.w3.org/2000/svg">
<g opacity="0.9">
<g opacity="0.03">
<path d="M526.526 258.782C511.944 298.527 482.165 341.548 440.259 354.289C376.899 373.542 369.375 425.504 255.962 420.686C239.395 420.065 222.944 417.612 206.898 413.368C199.066 411.26 191.371 408.651 183.861 405.556C117.601 378.229 83.0409 318.092 80.1799 255.173C76.3981 172.406 133.105 132.964 169.962 109.87C206.819 86.7771 251.24 -2.68263 362.762 1.11752C379.793 1.63779 396.708 4.15421 413.173 8.61702C450.703 18.9591 488.847 41.8305 511.023 75.2658C512.686 77.7858 514.277 80.3528 515.795 82.9669C545.475 134.223 546.395 204.592 526.526 258.782Z" fill="#111111"/>
</g>
<g opacity="0.3">
<path opacity="0.3" d="M209.999 34.1577V48.5544C209.999 48.8759 209.879 49.1843 209.663 49.4117C209.448 49.639 209.156 49.7668 208.852 49.7668H142.85C142.699 49.7681 142.549 49.7377 142.409 49.6772C142.269 49.6168 142.142 49.5275 142.035 49.4147C141.929 49.3018 141.844 49.1676 141.787 49.0199C141.73 48.8722 141.701 48.714 141.702 48.5544V6.122C141.696 5.95859 141.721 5.79549 141.775 5.64252C141.83 5.48955 141.914 5.34987 142.021 5.23189C142.128 5.11391 142.257 5.02006 142.399 4.956C142.542 4.89194 142.695 4.85899 142.85 4.85913H208.842C209.147 4.85913 209.438 4.98686 209.654 5.21422C209.869 5.44158 209.99 5.74995 209.99 6.07149V30.2074" stroke="#111111" stroke-linecap="round" stroke-linejoin="round"/>
<path opacity="0.3" d="M156.851 16.427H209.998V26.1258H141.691V16.427H152.116" stroke="#111111" stroke-linecap="round" stroke-linejoin="round"/>
<path opacity="0.3" d="M181.868 33.3999H150.871V44.9173H181.868V33.3999Z" stroke="#111111" stroke-linecap="round" stroke-linejoin="round"/>
<path opacity="0.3" d="M195.642 32.7937H185.312V44.9172H195.642V32.7937Z" stroke="#111111" stroke-linecap="round" stroke-linejoin="round"/>
</g>
<g opacity="0.3">
<path opacity="0.3" d="M57.7318 296.067H40V359.968L41.5494 357.19L43.1179 359.998H43.2614L44.8299 357.19L46.3984 359.998H46.5323L48.1008 357.19L49.6693 359.998H49.8128L51.3813 357.19L52.9498 359.998H53.0837L54.6522 357.19L56.2207 359.998H56.3642L57.9231 357.19L59.4916 359.998H59.6351L61.2036 357.19L62.7721 359.998H62.906L64.4745 357.19L66.0431 359.998H66.1865L67.755 357.19L69.3235 359.998H69.4574L71.026 357.19L72.5945 359.998H72.7379L74.3064 357.19L75.875 359.998H76.0089L77.5774 357.19L79.1459 359.998H79.2606V296.067H62.16" stroke="#111111" stroke-linecap="round" stroke-linejoin="round"/>
<path opacity="0.3" d="M45.0566 309.716H74.2272" stroke="#111111" stroke-linecap="round" stroke-linejoin="round"/>
<path opacity="0.3" d="M45.0566 317.293H74.2272" stroke="#111111" stroke-linecap="round" stroke-linejoin="round"/>
<path opacity="0.3" d="M45.0566 324.871H74.2272" stroke="#111111" stroke-linecap="round" stroke-linejoin="round"/>
<path opacity="0.3" d="M45.0566 332.448H74.2272" stroke="#111111" stroke-linecap="round" stroke-linejoin="round"/>
<path opacity="0.3" d="M70.459 345.834H74.2272" stroke="#111111" stroke-linecap="round" stroke-linejoin="round"/>
<path opacity="0.3" d="M45.0566 345.834H66.5854" stroke="#111111" stroke-linecap="round" stroke-linejoin="round"/>
</g>
<g opacity="0.3">
<path opacity="0.3" d="M168.236 108.213C175.525 108.213 181.434 101.97 181.434 94.2704C181.434 86.5705 175.525 80.3284 168.236 80.3284C160.946 80.3284 155.037 86.5705 155.037 94.2704C155.037 101.97 160.946 108.213 168.236 108.213Z" stroke="#111111" stroke-linecap="round" stroke-linejoin="round"/>
<path opacity="0.3" d="M168.234 104.939C173.812 104.939 178.334 100.163 178.334 94.2705C178.334 88.3784 173.812 83.6018 168.234 83.6018C162.657 83.6018 158.135 88.3784 158.135 94.2705C158.135 100.163 162.657 104.939 168.234 104.939Z" stroke="#111111" stroke-linecap="round" stroke-linejoin="round"/>
<path opacity="0.3" d="M167.345 88.1885V87.259H168.875V88.1885C170.205 88.4815 170.884 89.5625 170.884 91.2194V91.6134H169.115V91.0881C169.115 90.1889 168.78 89.8454 168.158 89.8454C167.536 89.8454 167.202 90.1889 167.202 91.0881C167.202 93.6845 170.865 93.8057 170.865 97.4024C170.865 99.1098 170.167 100.211 168.837 100.504V101.413H167.307V100.504C165.958 100.211 165.279 99.1098 165.279 97.4024V96.5437H167.049V97.5539C167.049 98.4531 167.431 98.7764 168.005 98.7764C168.579 98.7764 168.961 98.4531 168.961 97.5539C168.961 94.9575 165.308 94.8363 165.308 91.2396C165.375 89.5726 166.035 88.4916 167.345 88.1885Z" fill="#111111"/>
</g>
<g opacity="0.3">
<path opacity="0.3" d="M89.3235 397.763C96.6128 397.763 102.522 391.521 102.522 383.821C102.522 376.121 96.6128 369.879 89.3235 369.879C82.0342 369.879 76.125 376.121 76.125 383.821C76.125 391.521 82.0342 397.763 89.3235 397.763Z" stroke="#111111" stroke-linecap="round" stroke-linejoin="round"/>
<path opacity="0.3" d="M89.3204 394.49C94.8983 394.49 99.4201 389.713 99.4201 383.821C99.4201 377.929 94.8983 373.153 89.3204 373.153C83.7425 373.153 79.2207 377.929 79.2207 383.821C79.2207 389.713 83.7425 394.49 89.3204 394.49Z" stroke="#111111" stroke-linecap="round" stroke-linejoin="round"/>
<path opacity="0.3" d="M88.4419 377.739V376.799H89.9721V377.739C91.3015 378.022 91.9806 379.103 91.9806 380.77V381.174H90.2495V380.689C90.2495 379.79 89.9052 379.446 89.2931 379.446C88.681 379.446 88.3366 379.79 88.3366 380.689C88.3366 383.275 91.9997 383.407 91.9997 387.003C91.9997 388.711 91.3015 389.812 89.9721 390.095V391.014H88.4419V390.095C87.0933 389.782 86.4238 388.711 86.4238 387.003V386.145H88.1932V387.155C88.1932 388.054 88.5662 388.377 89.1496 388.377C89.733 388.377 90.106 388.054 90.106 387.155C90.106 384.558 86.443 384.437 86.443 380.83C86.4238 379.123 87.1316 378.042 88.4419 377.739Z" fill="#111111"/>
</g>
<g opacity="0.3">
<path opacity="0.3" d="M58.716 421C66.0054 421 71.9145 414.758 71.9145 407.058C71.9145 399.358 66.0054 393.116 58.716 393.116C51.4267 393.116 45.5176 399.358 45.5176 407.058C45.5176 414.758 51.4267 421 58.716 421Z" stroke="#111111" stroke-linecap="round" stroke-linejoin="round"/>
<path opacity="0.3" d="M58.7149 417.727C64.2928 417.727 68.8146 412.95 68.8146 407.058C68.8146 401.166 64.2928 396.389 58.7149 396.389C53.137 396.389 48.6152 401.166 48.6152 407.058C48.6152 412.95 53.137 417.727 58.7149 417.727Z" stroke="#111111" stroke-linecap="round" stroke-linejoin="round"/>
<path opacity="0.3" d="M57.8344 400.976V400.036H59.3647V400.976C60.6941 401.259 61.3732 402.34 61.3732 404.007V404.411H59.642V403.926C59.642 403.027 59.2977 402.683 58.6856 402.683C58.0735 402.683 57.7292 403.027 57.7292 403.926C57.7292 406.512 61.3923 406.644 61.3923 410.24C61.3923 411.948 60.6941 413.049 59.3647 413.332V414.251H57.8344V413.332C56.4859 413.019 55.8164 411.948 55.8164 410.24V409.382H57.5858V410.392C57.5858 411.291 57.9588 411.614 58.5422 411.614C59.1256 411.614 59.4986 411.291 59.4986 410.392C59.4986 407.795 55.8355 407.674 55.8355 404.067C55.8164 402.36 56.5242 401.279 57.8344 400.976Z" fill="#111111"/>
</g>
<g opacity="0.3">
<path opacity="0.3" d="M67.4603 44.1194L57.418 28.0153L96.21 1L103.24 12.2648" stroke="#111111" stroke-linecap="round" stroke-linejoin="round"/>
<path opacity="0.3" d="M74 20.903L95.1941 6.14258L99.6318 13.2551" stroke="#111111" stroke-linecap="round" stroke-linejoin="round"/>
<path opacity="0.3" d="M65.015 33.4204L62.2988 29.0559L63.7143 28.0759" stroke="#111111" stroke-linecap="round" stroke-linejoin="round"/>
<path opacity="0.3" d="M98.5138 40.3207L70.1276 48.3828L64.1309 24.8328L109.006 12.093L115.002 35.643L101.689 39.4215" stroke="#111111" stroke-linecap="round" stroke-linejoin="round"/>
<path opacity="0.3" d="M110.682 33.0305L106.51 16.6292L68.4462 27.433L72.6182 43.8343L110.682 33.0305Z" stroke="#111111" stroke-linecap="round" stroke-linejoin="round"/>
<path opacity="0.3" d="M90.5069 33.9659C87.5516 34.8045 84.7684 33.8144 84.2041 31.7534C83.6398 29.6924 85.6579 27.3485 88.6132 26.5099C91.5685 25.6714 94.3516 26.6514 94.9255 28.7124C95.4993 30.7734 93.4717 33.1476 90.5069 33.9659Z" stroke="#111111" stroke-linecap="round" stroke-linejoin="round"/>
</g>
<path d="M298.047 13.4067C298.047 13.4067 295.088 12.5908 287.196 18.2827C279.304 23.9746 270.07 32.1045 270.07 32.1045C270.07 32.1045 279.185 33.2947 283.398 35.4544C288.034 37.8444 293.46 43.4883 293.46 43.4883C293.46 43.4883 311.838 19.0986 334.823 20.7207C334.425 18.6414 333.492 16.694 332.112 15.0595C330.732 13.425 328.95 12.1564 326.931 11.3718C319.77 8.53067 298.047 13.4067 298.047 13.4067Z" fill="#111111" stroke="#111111" stroke-linejoin="round"/>
<path d="M377.977 279.524C377.977 279.524 375.017 278.708 367.125 284.4C359.234 290.092 350 298.221 350 298.221C350 298.221 359.115 299.412 363.327 301.571C367.964 303.961 373.39 309.605 373.39 309.605C373.39 309.605 391.768 285.216 414.753 286.838C414.354 284.758 413.422 282.811 412.042 281.176C410.662 279.542 408.88 278.273 406.861 277.489C399.699 274.648 377.977 279.524 377.977 279.524Z" fill="#111111" stroke="#111111" stroke-linejoin="round"/>
<path d="M327.866 17.9276C327.866 17.9276 308.353 22.9092 297.808 33.8034C297.3 33.6686 296.767 33.6453 296.249 33.7354C295.73 33.8255 295.239 34.0267 294.81 34.3244C294.381 34.6221 294.026 35.0088 293.77 35.4566C293.514 35.9043 293.363 36.4019 293.329 36.9133C289.643 33.5453 284.916 31.4566 279.883 30.9719C279.883 30.9719 280.199 28.793 279.242 28.1691C279.242 28.1691 294.276 15.4032 302.918 13.8482C308.916 12.6807 315.056 12.3575 321.148 12.8884C323.779 13.1585 326.25 14.2494 328.192 15.9983C328.192 15.9983 324.986 16.6798 327.866 17.9276ZM309.439 18.6283C308.738 16.9485 305.256 16.7086 301.655 18.1675C298.055 19.6265 295.736 22.0933 296.387 23.7634C297.038 25.4336 300.57 25.6831 304.171 24.2242C307.771 22.7652 310.129 20.2984 309.439 18.6283Z" fill="white" stroke="#111111" stroke-miterlimit="10"/>
<path d="M407.796 284.044C407.796 284.044 388.283 289.026 377.738 299.92C377.229 299.785 376.697 299.762 376.178 299.852C375.66 299.942 375.169 300.143 374.74 300.441C374.311 300.739 373.956 301.125 373.7 301.573C373.444 302.021 373.293 302.519 373.259 303.03C369.572 299.662 364.845 297.573 359.813 297.089C359.813 297.089 360.129 294.91 359.172 294.286C359.172 294.286 374.206 281.52 382.848 279.965C388.846 278.797 394.985 278.474 401.078 279.005C403.709 279.275 406.18 280.366 408.121 282.115C408.121 282.115 404.915 282.796 407.796 284.044ZM389.368 284.745C388.668 283.065 385.186 282.825 381.585 284.284C377.984 285.743 375.666 288.21 376.317 289.88C376.968 291.55 380.5 291.8 384.1 290.341C387.701 288.882 390.059 286.415 389.368 284.745Z" fill="white" stroke="#111111" stroke-miterlimit="10"/>
<path d="M295.088 13.9157C295.088 13.9157 305.15 9.88432 313.091 9.88432C317.739 9.85882 322.373 10.3581 326.902 11.3721C326.902 11.3721 324.189 9.93233 319.78 12.6871C317.264 14.2612 315.646 17.7646 315.646 17.7646C309.01 15.5612 302.091 14.2658 295.088 13.9157Z" fill="#111111" stroke="#111111" stroke-linejoin="round"/>
<path d="M375.018 280.032C375.018 280.032 385.08 276.001 393.021 276.001C397.668 275.976 402.303 276.475 406.832 277.489C406.832 277.489 404.119 276.049 399.709 278.804C397.194 280.378 395.576 283.881 395.576 283.881C388.94 281.678 382.021 280.383 375.018 280.032Z" fill="#111111" stroke="#111111" stroke-linejoin="round"/>
<path d="M386.662 22.5378C386.662 22.5378 404.981 28.4024 415.694 35.3613L427.088 17.1243C427.088 17.1243 399.842 -3.52201 392.69 1.91072L386.662 22.5378Z" fill="#111111" stroke="#111111" stroke-linejoin="round"/>
<path d="M419.276 18.1899C419.299 18.7159 419.497 19.2203 419.84 19.6271C420.184 20.034 420.654 20.3212 421.179 20.4456L416.119 28.6138C415.696 28.4738 415.253 28.4025 414.807 28.4027C414.265 28.3744 413.724 28.4749 413.23 28.6957C412.737 28.9164 412.306 29.2507 411.976 29.6697C402.515 23.2291 388.004 19.9272 388.004 19.9272L390.904 8.84103C390.904 8.84103 390.46 2.75561 398.273 4.28176C404.33 5.46238 415.724 12.9204 420.568 16.1742C420.187 16.3676 419.867 16.6564 419.64 17.0108C419.412 17.3652 419.287 17.7723 419.276 18.1899ZM399.753 10.0312C396.33 9.27295 393.144 10.4056 392.631 12.5652C392.118 14.7249 394.485 17.1053 397.908 17.8732C401.331 18.641 404.528 17.4988 405.041 15.3392C405.554 13.1795 403.186 10.7991 399.753 10.0312Z" fill="white" stroke="#111111" stroke-miterlimit="10"/>
<path d="M383.979 30.793L396.488 6.67203C396.488 6.67203 392.246 4.50278 392.69 1.8728L380.635 24.9091C380.635 24.9091 379.066 28.6237 383.979 30.793Z" fill="#111111" stroke="#111111" stroke-linejoin="round"/>
<path d="M381.697 22.8835L390.99 5.14561C391.385 5.99794 392.087 6.68054 392.963 7.0653L382.634 24.7073L381.697 22.8835Z" fill="white" stroke="#111111" stroke-miterlimit="10"/>
<path d="M276.312 323.931L246.248 288.413L265.251 272.721L296.141 308.784L276.312 323.931Z" fill="#111111" stroke="#111111" stroke-miterlimit="10"/>
<path d="M263.999 279.574C264.24 279.825 264.531 280.025 264.854 280.163C265.176 280.3 265.525 280.373 265.878 280.376C266.231 280.379 266.582 280.313 266.91 280.181C267.239 280.049 267.538 279.855 267.791 279.608C267.87 279.51 267.94 279.405 268.001 279.295L290.964 306.27C290.671 306.262 290.379 306.319 290.109 306.437C289.839 306.555 289.599 306.73 289.407 306.951C289.143 307.307 288.989 307.73 288.965 308.168C288.94 308.606 289.046 309.04 289.269 309.417L277.444 318.45C277.286 318.19 277.087 317.957 276.854 317.759C276.459 317.373 275.943 317.129 275.387 317.065C274.832 317.002 274.268 317.124 273.786 317.411L252.46 292.43C252.829 292.308 253.16 292.089 253.415 291.797C253.771 291.273 253.932 290.646 253.87 290.022C253.808 289.399 253.528 288.819 253.077 288.383L263.93 279.418C263.942 279.508 263.966 279.551 263.999 279.574ZM265.674 294.095C263.892 296.221 264.495 299.704 267.025 301.883C269.556 304.062 273.071 304.089 274.831 301.969C276.591 299.849 276.017 296.354 273.479 294.181C270.941 292.008 267.426 291.982 265.674 294.095Z" fill="white" stroke="#111111" stroke-miterlimit="10"/>
<path d="M423.904 368.092L390.924 403.229L371.966 386.585L405.397 350.546L423.904 368.092Z" fill="#111111" stroke="#111111" stroke-miterlimit="10"/>
<path d="M379.24 386.84C379.473 386.562 379.646 386.241 379.749 385.897C379.851 385.553 379.881 385.193 379.837 384.837C379.792 384.482 379.674 384.138 379.49 383.828C379.305 383.518 379.058 383.246 378.763 383.03C378.648 382.963 378.525 382.908 378.398 382.865L403.462 356.061C403.493 356.356 403.592 356.641 403.752 356.894C403.912 357.147 404.129 357.361 404.387 357.522C404.795 357.733 405.258 357.823 405.719 357.783C406.18 357.743 406.618 357.573 406.981 357.295L418.053 367.774C417.804 367.974 417.586 368.207 417.404 368.466C417.053 368.917 416.869 369.468 416.881 370.032C416.893 370.596 417.1 371.14 417.47 371.577L394.343 396.489C394.172 396.139 393.903 395.843 393.567 395.634C392.972 395.347 392.292 395.272 391.646 395.421C390.999 395.571 390.428 395.935 390.032 396.451L379.196 386.948L379.24 386.84ZM394.189 383.073C396.65 384.548 400.21 383.433 402.139 380.593C404.068 377.752 403.616 374.248 401.155 372.782C398.695 371.317 395.125 372.433 393.206 375.273C391.287 378.112 391.77 381.635 394.239 383.071L394.189 383.073Z" fill="white" stroke="#111111" stroke-miterlimit="10"/>
<path d="M129.265 290.396L179.867 280.258L184.961 306.111L133.385 316.754L129.265 290.396Z" fill="#111111" stroke="#111111" stroke-miterlimit="10"/>
<path d="M178.947 301.409C177.275 302.028 176.351 303.612 176.912 304.993C176.978 305.114 177.054 305.23 177.138 305.34L138.654 313.192C138.82 312.918 138.922 312.612 138.951 312.296C138.98 311.981 138.937 311.663 138.824 311.368C138.618 310.94 138.289 310.581 137.877 310.336C137.465 310.091 136.988 309.97 136.504 309.988L133.979 294.172C134.329 294.145 134.674 294.068 135.002 293.944C135.59 293.771 136.103 293.41 136.461 292.918C136.819 292.427 137 291.834 136.975 291.235L172.612 283.871C172.525 284.276 172.558 284.695 172.708 285.079C173.017 285.692 173.539 286.174 174.18 286.44C174.822 286.706 175.542 286.737 176.211 286.528L179.109 301.317L178.947 301.409ZM163.952 295.54C162.86 292.806 159.127 291.56 155.65 292.827C152.173 294.093 150.289 297.386 151.381 300.12C152.474 302.854 156.201 304.091 159.684 302.833C163.166 301.575 165.066 298.306 163.952 295.54Z" fill="white" stroke="#111111" stroke-miterlimit="10"/>
<path d="M474.556 321.437C474.556 321.437 477.515 320.679 481.323 311.838C485.131 302.998 488.781 291.442 488.781 291.442C488.781 291.442 480.317 294.955 475.562 295.195C470.314 295.454 462.688 293.275 462.688 293.275C462.688 293.275 459.729 323.385 439.121 333.416C440.555 335.02 442.385 336.244 444.438 336.971C446.492 337.698 448.702 337.905 450.86 337.572C458.456 336.439 474.556 321.437 474.556 321.437Z" fill="#111111" stroke="#111111" stroke-linejoin="round"/>
<path d="M446.561 332.398C446.561 332.398 460.707 318.375 464.051 303.795C464.558 303.656 465.026 303.41 465.423 303.074C465.82 302.738 466.136 302.32 466.347 301.851C466.559 301.382 466.66 300.873 466.646 300.361C466.631 299.849 466.499 299.347 466.261 298.89C471.198 299.933 476.352 299.359 480.92 297.258C480.92 297.258 481.788 299.293 482.942 299.351C482.942 299.351 476.727 317.799 470.118 323.433C465.568 327.417 460.456 330.746 454.936 333.32C452.531 334.389 449.837 334.679 447.251 334.145C447.251 334.145 449.727 332.034 446.561 332.398ZM462.029 322.627C463.499 323.712 466.606 322.157 468.934 319.143C471.262 316.129 471.992 312.808 470.512 311.714C469.033 310.62 465.935 312.184 463.607 315.198C461.279 318.212 460.579 321.533 462.029 322.627Z" fill="white" stroke="#111111" stroke-miterlimit="10"/>
<path d="M476.834 319.527C476.834 319.527 470.303 327.974 463.477 331.957C459.507 334.295 455.273 336.179 450.859 337.572C450.859 337.572 453.947 337.457 456.285 332.898C457.617 330.287 457.173 326.476 457.173 326.476C464.025 325.055 470.642 322.716 476.834 319.527Z" fill="#111111" stroke="#111111" stroke-linejoin="round"/>
<path d="M269.39 390.477L266.665 407.884C266.665 407.884 292.35 422.283 327.522 413.504L323.391 395.483C323.391 395.483 309.702 399.779 296.609 398.656C283.516 397.533 269.39 390.477 269.39 390.477Z" fill="#111111" stroke="#111111" stroke-miterlimit="10"/>
<path d="M274.015 406.308C273.917 405.898 273.692 405.528 273.371 405.246C273.049 404.964 272.648 404.784 272.219 404.731L274.119 396.914C274.542 397.001 274.977 397.021 275.407 396.973C276.148 396.902 276.846 396.603 277.401 396.121C281.559 397.685 289.334 400.35 296.85 401.006C303.675 401.425 310.526 400.931 317.211 399.538C317.506 399.781 317.853 399.957 318.227 400.05C318.601 400.144 318.992 400.154 319.371 400.078L321.518 410.196C321.283 410.222 321.038 410.25 320.793 410.277C318.833 410.497 317.363 411.241 317.447 411.947C317.472 412.058 317.524 412.163 317.599 412.252C317.673 412.341 317.768 412.412 317.875 412.459C295.269 415.841 278.465 409.983 273.325 407.853C273.563 407.672 273.751 407.435 273.871 407.165C273.991 406.896 274.041 406.601 274.015 406.308ZM297.121 409.121C300.67 409.41 303.64 408.497 303.76 407.083C303.879 405.668 301.105 404.298 297.555 404.01C294.005 403.721 291.035 404.633 290.916 406.048C290.796 407.462 293.571 408.833 297.121 409.121Z" fill="white" stroke="#111111" stroke-miterlimit="10"/>
<path d="M504.434 71.698L516.376 58.4422C516.376 58.4422 502.718 32.9035 468.192 21.9452L461.68 39.2921C461.68 39.2921 475.602 42.8144 486.025 50.5982C496.448 58.382 504.434 71.698 504.434 71.698Z" fill="#111111" stroke="#111111" stroke-miterlimit="10"/>
<path d="M509.312 55.9279C509.166 56.3253 509.149 56.7565 509.262 57.1633C509.376 57.5702 509.615 57.933 509.948 58.203L504.02 63.7836C503.706 63.4957 503.35 63.2553 502.963 63.0706C502.289 62.7306 501.521 62.6072 500.77 62.7181C498.207 59.2765 493.096 52.9552 487.133 48.4841C481.612 44.5694 475.563 41.4106 469.154 39.096C469.041 38.737 468.846 38.408 468.582 38.1337C468.319 37.8594 467.995 37.6472 467.634 37.5131L471.479 27.8848C471.692 27.9853 471.913 28.09 472.144 28.199C473.918 29.0368 475.557 29.1811 475.878 28.5425C475.918 28.4348 475.932 28.3195 475.919 28.2058C475.905 28.092 475.865 27.9828 475.801 27.887C496.737 36.8251 507.654 50.5325 510.809 55.0227C510.502 55.0389 510.203 55.1304 509.942 55.2887C509.68 55.4469 509.463 55.6668 509.312 55.9279ZM491.392 41.5067C488.559 39.411 485.55 38.6302 484.669 39.7514C483.788 40.8726 485.358 43.4932 488.191 45.5889C491.023 47.6846 494.037 48.4568 494.918 47.3356C495.799 46.2144 494.228 43.5938 491.392 41.5067Z" fill="white" stroke="#111111" stroke-miterlimit="10"/>
<path d="M226.607 349.773C226.607 349.773 207.436 350.025 195.081 346.822L190.154 367.79C190.154 367.79 222.503 378.766 227.52 371.324L226.607 349.773Z" fill="#111111" stroke="#111111" stroke-linejoin="round"/>
<path d="M197.203 364.286C197.011 363.793 196.66 363.377 196.204 363.1C195.748 362.824 195.211 362.701 194.674 362.751L196.85 353.37C197.29 353.37 197.729 353.298 198.147 353.156C198.668 353.01 199.147 352.742 199.543 352.375C199.938 352.008 200.238 351.553 200.416 351.05C211.413 354.162 226.176 352.683 226.176 352.683L226.984 364.147C226.984 364.147 229.35 369.792 221.482 370.828C215.392 371.631 202.244 368.166 196.618 366.617C196.918 366.313 197.13 365.936 197.233 365.526C197.336 365.116 197.326 364.688 197.203 364.286ZM218.245 365.832C221.721 365.464 224.377 363.369 224.161 361.156C223.946 358.942 220.957 357.429 217.478 357.789C213.999 358.148 211.345 360.252 211.555 362.478C211.765 364.704 214.747 366.198 218.245 365.832Z" fill="white" stroke="#111111" stroke-miterlimit="10"/>
<path d="M226.501 341.07L222.404 367.988C222.404 367.988 227.104 368.7 227.527 371.342L231.551 345.597C231.551 345.597 231.835 341.569 226.501 341.07Z" fill="#111111" stroke="#111111" stroke-linejoin="round"/>
<path d="M231.185 347.865L228.093 367.686C227.446 367.002 226.565 366.576 225.615 366.489L229.716 346.429L231.185 347.865Z" fill="white" stroke="#111111" stroke-miterlimit="10"/>
<path d="M389.436 113.113L358.235 76.479L377.896 60.6329L409.964 97.8279L389.436 113.113Z" fill="#111111" stroke="#111111" stroke-miterlimit="10"/>
<path d="M376.615 67.6215C376.866 67.8847 377.169 68.0961 377.506 68.2431C377.842 68.3901 378.206 68.4697 378.575 68.4772C378.944 68.4846 379.311 68.4198 379.654 68.2865C379.997 68.1532 380.308 67.9542 380.571 67.7013C380.652 67.5991 380.722 67.4892 380.781 67.3733L404.628 95.2028C404.323 95.1877 404.019 95.2415 403.739 95.3599C403.46 95.4784 403.212 95.6582 403.016 95.8854C402.742 96.2466 402.582 96.6777 402.557 97.1258C402.531 97.5739 402.641 98.0195 402.872 98.4077L390.615 107.542C390.449 107.276 390.241 107.036 390 106.831C389.592 106.427 389.056 106.169 388.478 106.099C387.9 106.029 387.315 106.151 386.817 106.445L364.659 80.726C365.04 80.6069 365.381 80.3876 365.642 80.0922C366.019 79.5617 366.191 78.9192 366.13 78.2773C366.069 77.6355 365.778 77.0351 365.307 76.5816L376.486 67.523L376.615 67.6215ZM378.338 82.5087C376.495 84.6741 377.131 88.2411 379.757 90.4945C382.383 92.748 386.014 92.8079 387.857 90.652C389.7 88.4961 389.074 84.9204 386.438 82.6661C383.802 80.4118 380.201 80.3545 378.338 82.5087Z" fill="white" stroke="#111111" stroke-miterlimit="10"/>
<path d="M485.455 224.919L529.954 208.744L538.658 231.343L493.358 248.107L485.455 224.919Z" fill="#111111" stroke="#111111" stroke-miterlimit="10"/>
<path d="M532.468 227.975C532.144 228.116 531.853 228.318 531.611 228.57C531.369 228.823 531.181 229.119 531.058 229.443C530.935 229.766 530.879 230.11 530.894 230.455C530.91 230.8 530.995 231.139 531.146 231.451C531.219 231.556 531.3 231.655 531.389 231.747L497.541 244.157C497.649 243.888 497.694 243.599 497.672 243.311C497.649 243.023 497.56 242.744 497.411 242.494C497.163 242.141 496.814 241.865 496.409 241.7C496.003 241.535 495.556 241.487 495.124 241.563L490.394 227.711C490.699 227.645 490.992 227.537 491.266 227.392C491.775 227.152 492.186 226.753 492.434 226.259C492.682 225.765 492.753 225.205 492.636 224.666L523.956 213.092C523.945 213.471 524.045 213.844 524.244 214.17C524.625 214.676 525.176 215.036 525.802 215.186C526.427 215.337 527.087 215.269 527.666 214.994L532.632 227.903L532.468 227.975ZM517.855 224.716C516.405 222.384 512.836 221.806 509.878 223.434C506.92 225.063 505.694 228.287 507.144 230.619C508.595 232.951 512.174 233.527 515.132 231.898C518.089 230.27 519.321 227.104 517.868 224.762L517.855 224.716Z" fill="white" stroke="#111111" stroke-miterlimit="10"/>
<path d="M497.709 134.64C497.709 134.64 499.417 132.126 496.321 123.053C493.226 113.979 488.177 103 488.177 103C488.177 103 484.205 111.182 480.796 114.502C477.046 118.148 469.895 121.532 469.895 121.532C469.895 121.532 487.939 145.837 479.247 166.871C481.397 167.103 483.583 166.794 485.602 165.972C487.62 165.151 489.405 163.843 490.788 162.173C495.733 156.399 497.709 134.64 497.709 134.64Z" fill="#111111" stroke="#111111" stroke-linejoin="round"/>
<path d="M484.105 161.251C484.105 161.251 485.296 141.528 477.965 128.471C478.253 128.035 478.441 127.544 478.514 127.033C478.587 126.522 478.543 126.004 478.386 125.516C478.229 125.028 477.963 124.584 477.607 124.214C477.25 123.845 476.813 123.56 476.326 123.38C480.728 120.906 484.206 117.09 486.219 112.524C486.219 112.524 488.246 113.455 489.142 112.744C489.142 112.744 496.907 130.53 495.738 139.078C495.022 145.034 493.44 150.878 491.042 156.428C489.96 158.808 488.136 160.799 485.839 162.108C485.839 162.108 486.226 158.885 484.105 161.251ZM489.121 143.798C490.96 143.628 492.235 140.431 491.951 136.659C491.667 132.886 489.98 129.939 488.134 130.103C486.289 130.266 485.021 133.47 485.305 137.242C485.588 141.015 487.292 143.935 489.115 143.791L489.121 143.798Z" fill="white" stroke="#111111" stroke-miterlimit="10"/>
<path d="M498.122 131.727C498.122 131.727 498.932 142.325 496.485 149.755C495.072 154.103 493.156 158.285 490.775 162.221C490.775 162.221 493.019 160.093 491.696 155.173C490.944 152.351 488.04 149.821 488.04 149.821C492.226 144.259 495.619 138.17 498.122 131.727Z" fill="#111111" stroke="#111111" stroke-linejoin="round"/>
<path d="M437.345 179.407C437.345 179.407 419.162 173.131 408.592 165.937L396.768 183.933C396.768 183.933 423.55 205.188 430.821 199.914L437.345 179.407Z" fill="#111111" stroke="#111111" stroke-linejoin="round"/>
<path d="M404.675 183.002C404.663 182.476 404.476 181.968 404.141 181.555C403.806 181.142 403.342 180.847 402.819 180.713L408.061 172.658C408.48 172.805 408.922 172.885 409.367 172.894C409.908 172.935 410.451 172.847 410.95 172.639C411.448 172.43 411.886 172.107 412.227 171.697C421.549 178.342 435.986 181.972 435.986 181.972L432.823 192.994C432.823 192.994 433.129 199.085 425.346 197.388C419.326 196.069 408.098 188.397 403.322 184.989C403.711 184.807 404.042 184.527 404.28 184.177C404.518 183.827 404.655 183.421 404.675 183.002ZM424.009 191.596C427.416 192.443 430.636 191.373 431.193 189.23C431.75 187.086 429.435 184.645 426.03 183.807C422.626 182.97 419.404 184.03 418.839 186.185C418.275 188.341 420.566 190.768 423.98 191.603L424.009 191.596Z" fill="white" stroke="#111111" stroke-miterlimit="10"/>
<path d="M440.246 171.208L427.201 195.035C427.201 195.035 431.395 197.3 430.888 199.897L443.468 177.15C443.468 177.15 445.079 173.501 440.246 171.208Z" fill="#111111" stroke="#111111" stroke-linejoin="round"/>
<path d="M442.319 179.175L432.639 196.689C432.276 195.823 431.604 195.112 430.747 194.687L441.388 177.337L442.319 179.175Z" fill="white" stroke="#111111" stroke-miterlimit="10"/>
</g>
<rect x="0.5" y="141.5" width="329" height="79" rx="9.5" fill="white" stroke="#111111"/>
<path d="M64.207 189.86C63.0717 186.39 53.7643 169.48 50.9388 164.38L50.9103 164.33C49.6404 161.821 46.9287 160.2 43.9992 160.2C41.0697 160.2 38.358 161.821 37.1122 164.286L37.0597 164.381C34.2342 169.48 24.9267 186.39 23.7926 189.859C23.4849 190.798 23.1992 191.823 23.1992 192.96C23.1992 197.834 27.3735 201.8 32.5045 201.8C37.5994 201.8 40.8376 199.773 43.9992 196.409C47.1608 199.773 50.399 201.8 55.494 201.8C60.625 201.8 64.7992 197.834 64.7992 192.96C64.7992 191.823 64.5135 190.798 64.207 189.86ZM43.9981 192.088C42.171 189.856 39.6203 186.076 39.6203 183.08C39.6203 180.786 41.5842 178.92 43.9992 178.92C46.4142 178.92 48.3782 180.786 48.3782 183.08C48.3782 186.067 45.8252 189.851 43.9981 192.088ZM55.494 198.68C51.8956 198.68 49.4499 197.529 46.3803 194.252C48.2446 192.02 51.6624 187.348 51.6624 183.08C51.6624 179.066 48.2238 175.8 43.9992 175.8C39.7746 175.8 36.3361 179.066 36.3361 183.08C36.3361 187.348 39.7538 192.02 41.6182 194.252C38.5485 197.529 36.1029 198.68 32.5045 198.68C29.1852 198.68 26.4834 196.114 26.4834 192.96C26.4834 192.281 26.6608 191.6 26.9279 190.786C27.7643 188.228 34.475 175.746 39.9662 165.834L40.0494 165.682C40.7752 164.247 42.3254 163.32 43.9992 163.32C45.6731 163.32 47.2232 164.247 47.9567 165.696L48.0311 165.834C53.5234 175.746 60.2342 188.228 61.0716 190.787C61.3377 191.6 61.515 192.281 61.515 192.96C61.515 196.114 58.8132 198.68 55.494 198.68Z" fill="#FF5252"/>
<path d="M244.88 179.792H247.84V181.008H244.88V183.968H243.664V181.008H240.704V179.792H243.664V176.832H244.88V179.792ZM253.619 188.08H252.499V186.16C251.262 186.043 250.2 185.733 249.315 185.232V183.888C250.435 184.571 251.736 184.912 253.219 184.912C255.032 184.912 255.939 184.357 255.939 183.248C255.939 182.843 255.816 182.501 255.571 182.224C255.336 181.936 255.022 181.712 254.627 181.552C254.243 181.392 253.816 181.248 253.347 181.12C252.878 180.992 252.408 180.853 251.939 180.704C251.47 180.544 251.038 180.363 250.643 180.16C250.259 179.947 249.944 179.648 249.699 179.264C249.464 178.88 249.347 178.421 249.347 177.888C249.347 177.045 249.64 176.373 250.227 175.872C250.814 175.371 251.571 175.067 252.499 174.96V173.04H253.619V174.944C254.782 175.008 255.768 175.275 256.579 175.744V177.088C255.64 176.48 254.542 176.187 253.283 176.208C251.566 176.208 250.707 176.752 250.707 177.84C250.707 178.224 250.824 178.549 251.059 178.816C251.304 179.083 251.619 179.291 252.003 179.44C252.398 179.589 252.83 179.728 253.299 179.856C253.768 179.973 254.238 180.112 254.707 180.272C255.176 180.432 255.603 180.619 255.987 180.832C256.382 181.045 256.696 181.349 256.931 181.744C257.176 182.139 257.299 182.608 257.299 183.152C257.299 184.155 256.958 184.907 256.275 185.408C255.592 185.899 254.707 186.16 253.619 186.192V188.08ZM261.363 175.12H262.355V184.72H264.387V186H258.723V184.72H261.011V176.544L258.723 177.408V176.128L261.363 175.12ZM266.254 175.12H272.782V176.4H267.518L267.326 179.472C267.902 179.312 268.521 179.232 269.182 179.232C269.726 179.232 270.233 179.296 270.702 179.424C271.171 179.541 271.603 179.733 271.998 180C272.403 180.256 272.723 180.619 272.958 181.088C273.193 181.547 273.31 182.091 273.31 182.72C273.31 183.797 272.91 184.645 272.11 185.264C271.321 185.883 270.313 186.192 269.086 186.192C267.763 186.192 266.601 185.947 265.598 185.456V184.176C266.558 184.688 267.667 184.944 268.926 184.944C269.843 184.944 270.574 184.752 271.118 184.368C271.673 183.984 271.95 183.435 271.95 182.72C271.95 181.205 270.873 180.448 268.718 180.448C267.779 180.448 266.841 180.619 265.902 180.96L266.254 175.12ZM276.101 184.736C276.261 184.875 276.341 185.072 276.341 185.328C276.341 185.584 276.261 185.787 276.101 185.936C275.941 186.075 275.744 186.144 275.509 186.144C275.275 186.144 275.072 186.075 274.901 185.936C274.741 185.787 274.661 185.584 274.661 185.328C274.661 185.072 274.741 184.875 274.901 184.736C275.072 184.597 275.275 184.528 275.509 184.528C275.744 184.528 275.941 184.597 276.101 184.736ZM278.723 175.12H285.251V176.4H279.987L279.795 179.472C280.371 179.312 280.989 179.232 281.651 179.232C282.195 179.232 282.701 179.296 283.171 179.424C283.64 179.541 284.072 179.733 284.467 180C284.872 180.256 285.192 180.619 285.427 181.088C285.661 181.547 285.779 182.091 285.779 182.72C285.779 183.797 285.379 184.645 284.579 185.264C283.789 185.883 282.781 186.192 281.555 186.192C280.232 186.192 279.069 185.947 278.067 185.456V184.176C279.027 184.688 280.136 184.944 281.395 184.944C282.312 184.944 283.043 184.752 283.587 184.368C284.141 183.984 284.419 183.435 284.419 182.72C284.419 181.205 283.341 180.448 281.187 180.448C280.248 180.448 279.309 180.619 278.371 180.96L278.723 175.12ZM288.516 184.64C287.706 183.605 287.3 182.245 287.3 180.56C287.3 178.875 287.706 177.515 288.516 176.48C289.327 175.445 290.522 174.928 292.1 174.928C293.69 174.928 294.89 175.445 295.7 176.48C296.511 177.504 296.916 178.864 296.916 180.56C296.916 182.256 296.511 183.621 295.7 184.656C294.89 185.68 293.69 186.192 292.1 186.192C290.522 186.192 289.327 185.675 288.516 184.64ZM294.692 183.792C295.268 183.035 295.556 181.957 295.556 180.56C295.556 179.163 295.268 178.091 294.692 177.344C294.127 176.587 293.263 176.208 292.1 176.208C290.938 176.208 290.074 176.587 289.508 177.344C288.943 178.091 288.66 179.163 288.66 180.56C288.66 181.957 288.943 183.035 289.508 183.792C290.074 184.539 290.938 184.912 292.1 184.912C293.263 184.912 294.127 184.539 294.692 183.792Z" fill="#111111"/>
<path d="M85.568 174H84.112L88.992 162.8H90.48L95.344 174H93.904L92.752 171.296H86.72L85.568 174ZM89.552 164.608L87.248 170.048H92.224L89.904 164.608C89.8827 164.555 89.824 164.411 89.728 164.176C89.632 164.421 89.5733 164.565 89.552 164.608ZM97.9648 174H96.6848V166.32H97.9648V174ZM97.9168 163.28C98.0768 163.419 98.1568 163.616 98.1568 163.872C98.1568 164.128 98.0768 164.331 97.9168 164.48C97.7568 164.619 97.5594 164.688 97.3248 164.688C97.0901 164.688 96.8928 164.619 96.7328 164.48C96.5728 164.331 96.4928 164.128 96.4928 163.872C96.4928 163.616 96.5728 163.419 96.7328 163.28C96.8928 163.131 97.0901 163.056 97.3248 163.056C97.5594 163.056 97.7568 163.131 97.9168 163.28ZM101.524 167.68C101.822 167.179 102.281 166.789 102.9 166.512C103.518 166.224 104.164 166.107 104.836 166.16V167.44C104.089 167.355 103.428 167.477 102.852 167.808C102.286 168.128 101.886 168.597 101.652 169.216V174H100.372V166.32H101.524V167.68ZM106.425 162.8H111.017C112.19 162.8 113.118 163.045 113.801 163.536C114.484 164.016 114.825 164.715 114.825 165.632C114.825 166.293 114.649 166.837 114.297 167.264C113.945 167.68 113.524 167.963 113.033 168.112C113.63 168.272 114.153 168.581 114.601 169.04C115.049 169.488 115.273 170.117 115.273 170.928C115.273 171.419 115.177 171.851 114.985 172.224C114.804 172.597 114.569 172.896 114.281 173.12C114.004 173.333 113.673 173.509 113.289 173.648C112.916 173.787 112.553 173.883 112.201 173.936C111.86 173.979 111.508 174 111.145 174H106.425V162.8ZM113.913 170.784C113.913 169.493 113.022 168.848 111.241 168.848H107.769V172.72H110.873C111.214 172.72 111.502 172.715 111.737 172.704C111.972 172.683 112.238 172.64 112.537 172.576C112.836 172.501 113.076 172.4 113.257 172.272C113.438 172.133 113.593 171.941 113.721 171.696C113.849 171.44 113.913 171.136 113.913 170.784ZM113.465 165.824C113.465 165.195 113.246 164.747 112.809 164.48C112.382 164.213 111.748 164.08 110.905 164.08H107.769V167.568H111.273C111.913 167.568 112.436 167.429 112.841 167.152C113.257 166.864 113.465 166.421 113.465 165.824ZM118.258 167.456C118.535 167.083 118.919 166.768 119.41 166.512C119.911 166.256 120.45 166.128 121.026 166.128C121.954 166.128 122.717 166.421 123.314 167.008C123.922 167.584 124.226 168.336 124.226 169.264V174H122.946V169.424C122.946 168.731 122.754 168.208 122.37 167.856C121.997 167.493 121.501 167.312 120.882 167.312C119.901 167.312 119.069 167.824 118.386 168.848V174H117.106V166.32H118.258V167.456ZM126.785 162.8H131.377C132.55 162.8 133.478 163.045 134.161 163.536C134.843 164.016 135.185 164.715 135.185 165.632C135.185 166.293 135.009 166.837 134.657 167.264C134.305 167.68 133.883 167.963 133.392 168.112C133.99 168.272 134.513 168.581 134.961 169.04C135.409 169.488 135.633 170.117 135.633 170.928C135.633 171.419 135.537 171.851 135.345 172.224C135.163 172.597 134.929 172.896 134.641 173.12C134.363 173.333 134.033 173.509 133.649 173.648C133.275 173.787 132.913 173.883 132.561 173.936C132.219 173.979 131.867 174 131.505 174H126.785V162.8ZM134.273 170.784C134.273 169.493 133.382 168.848 131.601 168.848H128.129V172.72H131.233C131.574 172.72 131.862 172.715 132.097 172.704C132.331 172.683 132.598 172.64 132.897 172.576C133.195 172.501 133.435 172.4 133.617 172.272C133.798 172.133 133.953 171.941 134.081 171.696C134.209 171.44 134.273 171.136 134.273 170.784ZM133.825 165.824C133.825 165.195 133.606 164.747 133.169 164.48C132.742 164.213 132.107 164.08 131.265 164.08H128.129V167.568H131.633C132.273 167.568 132.795 167.429 133.201 167.152C133.617 166.864 133.825 166.421 133.825 165.824Z" fill="#111111"/>
<path d="M87.052 187.48H87.92V195.88H89.698V197H84.742V195.88H86.744V188.726L84.742 189.482V188.362L87.052 187.48ZM91.7936 195.81C91.0843 194.905 90.7296 193.715 90.7296 192.24C90.7296 190.765 91.0843 189.575 91.7936 188.67C92.503 187.765 93.5483 187.312 94.9296 187.312C96.3203 187.312 97.3703 187.765 98.0796 188.67C98.789 189.566 99.1436 190.756 99.1436 192.24C99.1436 193.724 98.789 194.919 98.0796 195.824C97.3703 196.72 96.3203 197.168 94.9296 197.168C93.5483 197.168 92.503 196.715 91.7936 195.81ZM97.1976 195.068C97.7016 194.405 97.9536 193.463 97.9536 192.24C97.9536 191.017 97.7016 190.079 97.1976 189.426C96.703 188.763 95.947 188.432 94.9296 188.432C93.9123 188.432 93.1563 188.763 92.6616 189.426C92.167 190.079 91.9196 191.017 91.9196 192.24C91.9196 193.463 92.167 194.405 92.6616 195.068C93.1563 195.721 93.9123 196.048 94.9296 196.048C95.947 196.048 96.703 195.721 97.1976 195.068ZM103.835 197.84H102.715L108.441 186.36H109.561L103.835 197.84ZM104.241 187.62C104.689 188.012 104.913 188.549 104.913 189.23C104.913 189.911 104.689 190.448 104.241 190.84C103.803 191.232 103.266 191.428 102.631 191.428C101.987 191.428 101.441 191.232 100.993 190.84C100.545 190.448 100.321 189.911 100.321 189.23C100.321 188.549 100.545 188.012 100.993 187.62C101.441 187.228 101.987 187.032 102.631 187.032C103.266 187.032 103.803 187.228 104.241 187.62ZM101.707 188.362C101.493 188.595 101.385 188.885 101.385 189.23C101.385 189.575 101.493 189.865 101.707 190.098C101.931 190.331 102.239 190.448 102.631 190.448C103.014 190.448 103.313 190.331 103.527 190.098C103.742 189.865 103.849 189.575 103.849 189.23C103.849 188.885 103.742 188.595 103.527 188.362C103.313 188.129 103.014 188.012 102.631 188.012C102.239 188.012 101.931 188.129 101.707 188.362ZM111.269 193.36C111.717 193.752 111.941 194.289 111.941 194.97C111.941 195.651 111.717 196.188 111.269 196.58C110.831 196.972 110.294 197.168 109.659 197.168C109.015 197.168 108.469 196.972 108.021 196.58C107.573 196.188 107.349 195.651 107.349 194.97C107.349 194.289 107.573 193.752 108.021 193.36C108.469 192.968 109.015 192.772 109.659 192.772C110.294 192.772 110.831 192.968 111.269 193.36ZM108.735 194.102C108.521 194.335 108.413 194.625 108.413 194.97C108.413 195.315 108.521 195.605 108.735 195.838C108.959 196.071 109.267 196.188 109.659 196.188C110.042 196.188 110.341 196.071 110.555 195.838C110.77 195.605 110.877 195.315 110.877 194.97C110.877 194.625 110.77 194.335 110.555 194.102C110.341 193.869 110.042 193.752 109.659 193.752C109.267 193.752 108.959 193.869 108.735 194.102ZM116.47 193.668C116.47 193.08 116.578 192.553 116.792 192.086C117.007 191.619 117.287 191.246 117.632 190.966C117.987 190.686 118.374 190.476 118.794 190.336C119.224 190.187 119.662 190.112 120.11 190.112C120.941 190.112 121.632 190.294 122.182 190.658V191.75C121.669 191.349 121.025 191.148 120.25 191.148C119.522 191.148 118.897 191.358 118.374 191.778C117.852 192.198 117.59 192.819 117.59 193.64C117.59 194.452 117.847 195.073 118.36 195.502C118.883 195.922 119.504 196.132 120.222 196.132C120.969 196.132 121.646 195.95 122.252 195.586V196.706C121.618 197.014 120.89 197.168 120.068 197.168C119.098 197.168 118.253 196.865 117.534 196.258C116.825 195.651 116.47 194.788 116.47 193.668ZM129.297 195.6C129.297 195.945 129.469 196.118 129.815 196.118C129.964 196.118 130.137 196.085 130.333 196.02V196.93C130.053 197.033 129.773 197.084 129.493 197.084C128.849 197.084 128.438 196.813 128.261 196.272C127.542 196.869 126.669 197.168 125.643 197.168C124.989 197.168 124.429 196.995 123.963 196.65C123.505 196.295 123.277 195.787 123.277 195.124C123.277 194.331 123.571 193.757 124.159 193.402C124.756 193.038 125.475 192.856 126.315 192.856C126.931 192.856 127.551 192.926 128.177 193.066V192.828C128.177 192.315 128.009 191.909 127.673 191.61C127.337 191.302 126.865 191.148 126.259 191.148C125.409 191.148 124.593 191.316 123.809 191.652V190.56C124.686 190.261 125.54 190.112 126.371 190.112C127.285 190.112 127.999 190.359 128.513 190.854C129.035 191.339 129.297 192.044 129.297 192.968V195.6ZM124.425 195.068C124.425 195.441 124.565 195.726 124.845 195.922C125.134 196.109 125.479 196.202 125.881 196.202C126.805 196.202 127.57 195.875 128.177 195.222V193.99C127.542 193.859 126.973 193.794 126.469 193.794C125.899 193.794 125.414 193.897 125.013 194.102C124.621 194.298 124.425 194.62 124.425 195.068ZM131.06 192.044C131.06 191.4 131.307 190.919 131.802 190.602C132.306 190.275 132.913 190.112 133.622 190.112C134.49 190.112 135.283 190.303 136.002 190.686V191.75C135.722 191.563 135.367 191.414 134.938 191.302C134.509 191.181 134.093 191.12 133.692 191.12C133.281 191.12 132.927 191.195 132.628 191.344C132.339 191.484 132.194 191.708 132.194 192.016C132.194 192.24 132.297 192.436 132.502 192.604C132.717 192.763 132.983 192.884 133.3 192.968C133.617 193.052 133.958 193.159 134.322 193.29C134.695 193.411 135.041 193.542 135.358 193.682C135.675 193.813 135.937 194.018 136.142 194.298C136.357 194.569 136.464 194.895 136.464 195.278C136.464 195.931 136.203 196.412 135.68 196.72C135.157 197.019 134.495 197.168 133.692 197.168C132.637 197.168 131.769 196.949 131.088 196.51V195.418C131.797 195.894 132.647 196.132 133.636 196.132C134.775 196.132 135.344 195.857 135.344 195.306C135.344 195.054 135.195 194.844 134.896 194.676C134.607 194.499 134.252 194.354 133.832 194.242C133.412 194.121 132.992 193.985 132.572 193.836C132.152 193.687 131.793 193.463 131.494 193.164C131.205 192.865 131.06 192.492 131.06 192.044ZM137.974 187.2H139.094V191.134C139.355 190.845 139.686 190.602 140.088 190.406C140.498 190.21 140.937 190.112 141.404 190.112C142.216 190.112 142.883 190.369 143.406 190.882C143.938 191.386 144.204 192.044 144.204 192.856V197H143.084V192.996C143.084 192.389 142.916 191.932 142.58 191.624C142.253 191.307 141.819 191.148 141.278 191.148C140.419 191.148 139.691 191.596 139.094 192.492V197H137.974V187.2ZM146.19 187.2H147.31V191.288C147.982 190.504 148.85 190.112 149.914 190.112C150.876 190.112 151.674 190.448 152.308 191.12C152.952 191.792 153.274 192.632 153.274 193.64C153.274 194.648 152.952 195.488 152.308 196.16C151.674 196.832 150.876 197.168 149.914 197.168C148.86 197.168 147.954 196.739 147.198 195.88V197H146.19V187.2ZM151.468 195.446C151.926 194.989 152.154 194.387 152.154 193.64C152.154 192.893 151.926 192.291 151.468 191.834C151.02 191.377 150.46 191.148 149.788 191.148C149.219 191.148 148.715 191.307 148.276 191.624C147.838 191.941 147.516 192.333 147.31 192.8V194.48C147.516 194.947 147.838 195.339 148.276 195.656C148.715 195.973 149.219 196.132 149.788 196.132C150.46 196.132 151.02 195.903 151.468 195.446ZM160.346 195.6C160.346 195.945 160.518 196.118 160.864 196.118C161.013 196.118 161.186 196.085 161.382 196.02V196.93C161.102 197.033 160.822 197.084 160.542 197.084C159.898 197.084 159.487 196.813 159.31 196.272C158.591 196.869 157.718 197.168 156.692 197.168C156.038 197.168 155.478 196.995 155.012 196.65C154.554 196.295 154.326 195.787 154.326 195.124C154.326 194.331 154.62 193.757 155.208 193.402C155.805 193.038 156.524 192.856 157.364 192.856C157.98 192.856 158.6 192.926 159.226 193.066V192.828C159.226 192.315 159.058 191.909 158.722 191.61C158.386 191.302 157.914 191.148 157.308 191.148C156.458 191.148 155.642 191.316 154.858 191.652V190.56C155.735 190.261 156.589 190.112 157.42 190.112C158.334 190.112 159.048 190.359 159.562 190.854C160.084 191.339 160.346 192.044 160.346 192.968V195.6ZM155.474 195.068C155.474 195.441 155.614 195.726 155.894 195.922C156.183 196.109 156.528 196.202 156.93 196.202C157.854 196.202 158.619 195.875 159.226 195.222V193.99C158.591 193.859 158.022 193.794 157.518 193.794C156.948 193.794 156.463 193.897 156.062 194.102C155.67 194.298 155.474 194.62 155.474 195.068ZM162.039 193.668C162.039 193.08 162.146 192.553 162.361 192.086C162.576 191.619 162.856 191.246 163.201 190.966C163.556 190.686 163.943 190.476 164.363 190.336C164.792 190.187 165.231 190.112 165.679 190.112C166.51 190.112 167.2 190.294 167.751 190.658V191.75C167.238 191.349 166.594 191.148 165.819 191.148C165.091 191.148 164.466 191.358 163.943 191.778C163.42 192.198 163.159 192.819 163.159 193.64C163.159 194.452 163.416 195.073 163.929 195.502C164.452 195.922 165.072 196.132 165.791 196.132C166.538 196.132 167.214 195.95 167.821 195.586V196.706C167.186 197.014 166.458 197.168 165.637 197.168C164.666 197.168 163.822 196.865 163.103 196.258C162.394 195.651 162.039 194.788 162.039 193.668ZM175.621 197H174.305L171.841 194.116H170.525V197H169.405V187.2H170.525V193.08H171.883L174.011 190.28H175.313L172.765 193.626L175.621 197Z" fill="#111111" fill-opacity="0.5"/>
</svg>
