<svg width="223" height="232" viewBox="0 0 223 232" fill="none" xmlns="http://www.w3.org/2000/svg">
<g opacity="0.6">
<path d="M127.835 28.9614C96.628 28.9614 71.3457 54.1 71.3457 85.0933C71.3457 116.087 96.6443 141.225 127.835 141.225C159.026 141.225 184.324 116.087 184.324 85.0933C184.324 54.1 159.042 28.9614 127.835 28.9614ZM127.835 130.018C102.879 130.018 82.6403 109.908 82.6403 85.1096C82.6403 60.3116 102.879 40.2008 127.835 40.2008C152.791 40.2008 173.03 60.3116 173.03 85.1096C173.03 109.908 152.807 130.018 127.835 130.018Z" fill="#323247"/>
<path d="M127.835 130.018C102.879 130.018 82.6403 109.908 82.6403 85.1096C82.6403 60.3116 102.879 40.2008 127.835 40.2008C152.791 40.2008 173.03 60.3116 173.03 85.1096M184.341 85.0933C184.341 54.0837 159.042 28.9614 127.851 28.9614L184.341 85.0933ZM71.3457 85.0933C71.3457 116.103 96.6443 141.225 127.835 141.225C146.311 141.225 162.731 132.402 173.03 118.763L71.3457 85.0933Z" stroke="#FFDE3B" stroke-opacity="0.5" stroke-width="0.8412" stroke-miterlimit="10" stroke-linecap="round" stroke-linejoin="round"/>
<path d="M211.762 213.9L201.234 232H222.273L211.762 213.9Z" fill="#FFDE3B"/>
<path d="M211.762 143.091L201.234 161.191H222.273L211.762 143.091Z" fill="#FFDE3B"/>
<path d="M32.3702 7.3414L25.9885 1L16.6851 10.2607L7.38174 1L1 7.3414L10.3033 16.6021L1 25.8466L7.38174 32.188L16.6851 22.9435L25.9885 32.188L32.3702 25.8466L23.0669 16.6021L32.3702 7.3414Z" stroke="#8F9294" stroke-width="0.8412" stroke-miterlimit="10" stroke-linecap="round" stroke-linejoin="round"/>
<path d="M32.3702 65.143L25.9885 58.8016L16.6851 68.0461L7.38174 58.8016L1 65.143L10.3033 74.4037L1 83.6482L7.38174 89.9896L16.6851 80.7451L25.9885 89.9896L32.3702 83.6482L23.0669 74.4037L32.3702 65.143Z" stroke="#8F9294" stroke-width="0.8412" stroke-miterlimit="10" stroke-linecap="round" stroke-linejoin="round"/>
<path d="M32.3702 122.945L25.9885 116.604L16.6851 125.848L7.38174 116.604L1 122.945L10.3033 132.189L1 141.45L7.38174 147.792L16.6851 138.531L25.9885 147.792L32.3702 141.45L23.0669 132.189L32.3702 122.945Z" stroke="#8F9294" stroke-width="0.8412" stroke-miterlimit="10" stroke-linecap="round" stroke-linejoin="round"/>
</g>
</svg>
