<svg width="627" height="230" viewBox="0 0 627 230" fill="none" xmlns="http://www.w3.org/2000/svg">
<path d="M608.718 54.1703C606.95 51.635 605.004 49.2016 602.891 46.885C585.638 28 563.079 20.0075 537.311 14.6538C510.696 9.12457 479.532 7.40647 453.977 17.3734C447.963 19.7465 442.248 22.8789 437.727 27.1505C420.628 43.2447 414.763 70.1981 395.724 91.5035C376.684 112.809 367.397 139.349 384.49 164.542C391.725 175.211 400.949 184.001 411.863 191.738C425.298 201.23 436.89 214.073 452.421 221.501C468.741 229.303 490.478 232.023 508.542 228.449C529.149 224.372 541.236 208.159 556.964 197.124C569.365 188.41 584.203 182.706 596.354 173.716C614.973 159.953 629.091 137.807 626.745 115.866C624.442 94.5648 621.477 72.4287 608.718 54.1703Z" fill="#F9F8FE"/>
<g clip-path="url(#clip0_493_249625)">
<path d="M532.177 154.889H471.719L441.492 102.31L471.719 49.7309H532.177L562.403 102.31L532.177 154.889ZM473.149 152.404H530.747L559.548 102.31L530.747 52.2153H473.149L444.347 102.31L473.149 152.404Z" fill="#111111"/>
<path d="M512.779 104.521C512.368 104.571 511.631 104.919 511.294 105.525C511.042 105.977 511.19 106.568 511.641 106.827C511.789 106.911 511.952 106.951 512.111 106.951C512.432 106.951 512.739 106.787 512.912 106.479C512.942 106.449 513.031 106.394 513.016 106.389C513.531 106.325 513.897 105.853 513.833 105.336C513.763 104.824 513.293 104.457 512.779 104.521Z" fill="#FFDE3B"/>
<path d="M492.621 102.111C492.616 102.012 492.621 101.903 492.656 101.794C492.621 101.898 492.611 102.007 492.621 102.111Z" fill="#FFDE3B"/>
<path d="M492.621 102.111C492.616 102.012 492.621 101.903 492.656 101.794C492.621 101.898 492.611 102.007 492.621 102.111Z" fill="#FFDE3B"/>
<path d="M492.627 102.156C492.627 102.141 492.617 102.127 492.617 102.112C492.617 102.127 492.622 102.141 492.627 102.156Z" fill="#FFDE3B"/>
<path d="M492.627 102.156C492.627 102.141 492.617 102.127 492.617 102.112C492.617 102.127 492.622 102.141 492.627 102.156Z" fill="#FFDE3B"/>
<path d="M540.591 119.01C538.677 118.886 537.281 117.574 536.9 117.176C536.401 116.655 534.887 114.439 533.669 112.66C532.709 111.259 531.883 110.046 531.473 109.53C530.716 108.581 529.365 104.471 529.078 103.011C529.023 102.737 528.999 102.414 528.994 102.072C530.424 101.57 533.1 101.465 533.773 101.59C534.303 101.684 534.822 102.027 535.634 102.817C536.302 103.463 536.866 103.671 537.375 103.671C537.746 103.671 538.088 103.562 538.419 103.433C538.954 103.224 539.444 102.638 539.775 102.156C540.423 102.096 541.037 101.729 541.571 101.341C542.452 100.695 542.551 99.6369 541.868 98.196C541.729 97.9028 541.556 97.5103 541.363 97.083C541.156 96.6109 540.923 96.0992 540.695 95.6073C540.23 94.6135 539.79 93.8632 539.132 93.421C538.998 93.3316 538.597 92.9689 538.281 92.6807C538.053 92.477 537.811 92.2583 537.578 92.0497C537.643 91.8708 537.692 91.6919 537.707 91.5081C537.741 91.036 537.593 90.6038 537.276 90.2659C537.019 89.9876 536.539 89.6696 535.713 89.6945C535.282 89.7094 534.802 89.8336 534.327 90.0274C533.095 89.6895 531.067 89.6945 530.374 89.7243C529.914 89.7491 529.167 89.769 528.365 89.7939C527.118 89.8336 525.703 89.8783 525.001 89.933C523.947 90.0175 522.636 89.9777 522.131 89.9181C521.715 89.8684 521.28 89.769 520.825 89.6597C520.008 89.4709 519.078 89.2473 518.004 89.2821C516.357 89.3218 514.734 90.3255 513.957 90.8075L513.789 90.9118C513.477 91.0957 511.933 91.3292 510.221 91.2894C507.995 91.2348 501.815 90.8174 500.039 90.6236C499.569 90.574 498.886 90.4348 498.099 90.2758C495.972 89.8436 493.062 89.2572 490.366 89.5256C487.258 89.8336 484.206 90.6535 481.301 91.9652L480.633 92.2733C478.501 93.2521 475.571 94.5936 472.514 94.3651C469.911 94.1663 465.512 92.79 465.512 88.8548C465.512 86.753 467.927 85.6698 468.961 85.6698C470.584 85.6698 472.044 86.9617 472.172 87.3194C472.172 87.9952 472.034 88.4424 471.925 88.8001C471.772 89.302 471.539 90.0622 472.237 90.718C472.796 91.2398 473.998 91.513 475.037 91.0559C475.893 90.6833 476.907 89.7342 476.907 87.3194C476.907 82.9718 472.187 80.9496 468.996 80.9496C465.7 80.9496 460.926 83.7668 460.926 88.8548C460.926 94.0024 464.33 97.8233 469.802 98.827C473.671 99.5375 476.264 99.1847 478.13 98.5289C477.595 100.213 476.799 102.588 476.126 104.079C474.988 106.593 472.133 110.136 471.682 110.489C471.564 110.568 471.425 110.653 471.277 110.737C470.619 111.13 469.802 111.616 469.54 112.446C469.372 112.988 467.393 117.857 466.67 119.601C466.002 121.216 466.66 122.115 467.19 122.841C467.309 123.005 467.442 123.179 467.566 123.377C468.194 124.381 469.367 124.793 470.371 124.793C470.802 124.793 471.207 124.714 471.524 124.575C472.726 124.038 472.623 122.329 472.39 121.628C472.251 121.221 471.92 120.943 471.499 120.59C471.386 120.496 471.222 120.356 471.104 120.242C471.43 119.437 472.573 117.47 472.88 117.152C473.256 116.809 475.087 115.557 476.546 114.722C478.065 113.857 481.494 111.597 483.132 110.419C484.052 109.758 484.903 109.028 485.512 108.476C486.14 109.599 486.447 110.384 486.467 110.643C486.679 114.449 486.526 115.263 486.491 115.388C486.452 115.537 486.392 115.681 486.333 115.83C486.021 116.605 485.492 117.902 486.986 119.532C487.649 120.252 491.311 123.979 492.765 124.297C492.795 124.302 494.764 124.654 496.565 124.654C497.773 124.654 498.911 124.495 499.336 123.969C499.796 123.402 499.875 122.592 499.554 121.852C499.178 120.992 498.361 120.446 497.372 120.386C496.912 120.356 496.511 120.396 496.155 120.431C495.407 120.505 494.997 120.545 494.349 120.009C493.943 119.671 492.859 118.776 492.785 118.513C492.943 117.832 494.22 112.948 494.675 111.696C494.74 111.512 494.829 111.289 494.923 111.04C495.338 109.947 495.744 108.834 496.031 107.786C497.189 108.104 499.252 108.586 501.592 108.774C503.938 108.963 505.64 108.764 507.01 108.61C507.208 108.586 507.386 108.571 507.569 108.551C507.317 109.604 506.981 111.1 506.857 112.203C506.753 113.102 506.679 114.473 506.614 115.681C506.565 116.65 506.496 117.857 506.456 118.061C506.248 118.682 506.555 119.278 506.852 119.86C506.951 120.058 507.119 120.386 507.139 120.501C507.169 120.769 507.535 122.811 508.158 123.392C508.712 123.904 510.835 124.153 511.815 124.153C511.953 124.153 512.067 124.148 512.151 124.138C513.497 123.989 514.506 122.995 514.392 121.922L514.383 121.787C514.338 121.296 514.239 120.148 512.547 120.043C512.295 120.028 512.067 120.028 511.869 120.028C511.8 120.028 511.726 120.028 511.656 120.028C511.627 119.944 511.592 119.855 511.562 119.76C511.389 119.288 511.231 118.836 511.315 118.443C511.478 117.708 512.705 114.344 513.329 112.849C513.794 111.741 514.887 109.589 515.362 108.675C515.6 108.645 515.842 108.61 516.075 108.581C516.609 108.516 517.109 108.451 517.549 108.367C518.222 108.243 518.984 107.969 519.523 107.751C520.691 109.212 522.72 111.348 523.62 112.044C524.16 112.461 525.164 113.43 526.134 114.364C527.188 115.383 528.187 116.347 528.731 116.739L529.132 117.027C531.181 118.483 532.309 119.437 532.492 119.855C533.066 121.161 536.297 123.502 537.544 123.71C537.558 123.715 538.419 123.835 539.439 123.835C540.844 123.835 542.566 123.606 542.867 122.518C543.065 121.812 543.174 120.799 542.6 119.989C542.294 119.586 541.71 119.084 540.591 119.01ZM466.18 84.6214C466.166 84.2935 465.978 84.0153 465.71 83.8612C466.631 83.2898 467.62 82.9519 468.461 82.8526V82.9172C468.461 83.2948 468.684 83.6178 469.006 83.7668C468.981 83.7668 468.956 83.7618 468.931 83.7618C468.08 83.7668 467.081 84.0699 466.18 84.6214ZM475.002 87.3045C475.002 88.3331 474.765 89.0336 474.33 89.2771C474.107 89.4013 473.855 89.3964 473.681 89.3765C473.686 89.3666 473.686 89.3566 473.691 89.3467C473.825 88.9194 474.023 88.2685 474.023 87.3095C474.023 87.0362 473.934 86.7381 473.77 86.44L473.864 86.3456C474.231 85.9779 474.231 85.3816 473.864 85.009C473.498 84.6413 472.905 84.6413 472.533 85.009L472.499 85.0438C471.702 84.4426 470.678 83.9705 469.614 83.8215C470.01 83.7221 470.307 83.3892 470.327 82.9718C472.425 83.3892 475.002 84.7407 475.002 87.3045ZM464.33 84.9891C464.37 85.3171 464.562 85.5903 464.845 85.7295C464.493 86.122 464.196 86.5692 463.979 87.0611C463.716 87.0859 463.469 87.2101 463.306 87.4437C463.004 87.866 463.103 88.4573 463.523 88.7604L463.603 88.815C463.603 88.825 463.603 88.8299 463.603 88.8349C463.603 89.6846 463.751 90.4547 464.018 91.1553C463.677 91.2298 463.41 91.4783 463.321 91.8161C462.969 90.9069 462.781 89.9081 462.781 88.8349C462.781 87.235 463.42 85.953 464.33 84.9891ZM463.86 92.9391C463.969 92.9838 464.083 93.0086 464.206 93.0086H464.305C464.543 93.0086 464.755 92.9092 464.924 92.7652C465.414 93.4012 466.022 93.9477 466.71 94.4048C466.368 94.3104 465.992 94.4098 465.75 94.698L465.631 94.8371C465.606 94.8669 465.597 94.9017 465.577 94.9365C464.884 94.3551 464.305 93.6893 463.86 92.9391ZM467.14 95.965L467.175 95.9253C467.487 95.5576 467.457 95.0259 467.14 94.6831C468.333 95.3886 469.723 95.8507 471.158 96.0892C471.133 96.1091 471.104 96.119 471.084 96.1439L470.752 96.4967C470.609 96.6507 470.544 96.8395 470.52 97.0283C470.386 97.0035 470.257 96.9886 470.114 96.9637C469.021 96.755 468.021 96.4172 467.14 95.965ZM509.821 116.794C509.346 116.893 508.851 116.998 508.836 116.968C508.836 116.913 508.871 116.729 509.039 116.555C509.187 116.401 509.395 116.312 509.608 116.312C509.088 116.312 508.668 116.734 508.668 117.256C508.668 117.713 508.999 118.081 509.435 118.165C509.281 119.045 509.553 119.83 509.761 120.406C509.806 120.53 509.85 120.65 509.885 120.769C510.251 121.922 511.246 121.912 511.844 121.917C512.008 121.917 512.191 121.917 512.398 121.927C512.428 121.927 512.453 121.932 512.473 121.932C512.473 121.936 512.473 121.946 512.473 121.951L512.478 122.021C512.403 122.095 512.206 122.225 511.909 122.259C511.384 122.309 509.964 122.105 509.415 121.951C509.257 121.574 509.024 120.729 508.975 120.292C508.925 119.84 508.702 119.412 508.49 118.995C508.41 118.841 508.297 118.617 508.252 118.488C508.326 118.14 508.366 117.48 508.46 115.78C508.465 115.661 508.475 115.542 508.48 115.418C508.584 115.457 508.693 115.482 508.806 115.482C508.915 115.482 509.029 115.462 509.138 115.418C509.252 115.373 509.331 115.348 509.39 115.328C509.608 115.254 509.737 115.204 509.994 115.035C510.429 114.752 510.558 114.17 510.276 113.728C509.994 113.291 509.415 113.162 508.975 113.445C508.885 113.505 508.885 113.505 508.787 113.534C508.732 113.554 508.663 113.579 508.579 113.609C508.608 113.162 508.643 112.744 508.683 112.411C508.816 111.239 509.227 109.5 509.469 108.516C509.875 108.571 510.291 108.655 510.701 108.74C511.399 108.889 512.111 109.038 512.814 109.038C512.883 109.038 512.953 109.028 513.022 109.028C512.507 110.051 511.884 111.313 511.552 112.113C511.117 113.187 510.31 115.343 509.821 116.794ZM541.091 121.763C540.458 121.956 538.652 121.991 537.826 121.852C537.148 121.723 534.486 119.78 534.184 119.099C533.838 118.309 532.789 117.39 531.111 116.158C531.379 115.86 531.438 115.413 531.225 115.055C531.225 115.055 531.101 114.841 531.022 114.518C530.904 114.011 530.394 113.698 529.889 113.823C529.474 113.922 529.201 114.29 529.187 114.697C528.682 114.24 528.014 113.599 527.405 113.008C527.074 112.685 526.752 112.377 526.441 112.079C526.49 112.084 526.535 112.103 526.589 112.098C527.108 112.054 527.489 111.602 527.45 111.08C527.41 110.613 527.148 110.369 526.99 110.26C526.554 109.962 526.089 110.101 525.787 110.19L525.599 110.245C525.317 110.325 525.115 110.523 525.006 110.767C524.917 110.692 524.818 110.603 524.738 110.543C524.575 110.419 524.377 110.24 524.16 110.036C524.16 110.036 524.16 110.036 524.16 110.031C524.165 110.002 524.169 109.972 524.169 109.942C524.432 109.689 524.536 109.301 524.402 108.938C524.189 108.342 523.694 108.178 523.333 108.218C523.046 108.248 522.853 108.382 522.705 108.556C521.621 107.383 520.558 106.121 520.384 105.768C519.924 104.839 517.792 103.001 517.153 102.459C516.758 102.121 516.164 102.176 515.827 102.573C515.496 102.971 515.545 103.567 515.941 103.905C516.822 104.65 517.821 105.575 518.351 106.161C517.96 106.3 517.534 106.434 517.178 106.504C517.094 106.519 517.005 106.533 516.916 106.543C517.153 106.161 517.104 105.659 516.758 105.346C516.372 104.998 515.778 105.033 515.432 105.425C515.214 105.674 514.823 106.151 514.684 106.538C514.645 106.643 514.64 106.747 514.64 106.856C514.204 106.921 513.754 107.001 513.304 107.105C512.73 107.239 511.938 107.07 511.107 106.891C510.597 106.782 510.078 106.678 509.544 106.618C509.623 106.489 509.707 106.355 509.796 106.23C510.093 105.803 509.994 105.217 509.568 104.914C509.143 104.616 508.559 104.715 508.257 105.142C507.703 105.927 507.53 106.379 507.475 106.653C507.243 106.678 507.02 106.697 506.768 106.727C505.749 106.846 504.526 106.976 502.998 106.946C503.047 106.881 503.092 106.812 503.121 106.727C503.299 106.24 503.052 105.694 502.562 105.515C501.469 105.112 500.588 106.215 500.251 106.722C498.594 106.494 497.179 106.146 496.362 105.917C496.392 105.614 496.407 105.321 496.387 105.048C496.353 104.526 495.897 104.134 495.388 104.168C495.106 104.188 494.868 104.337 494.705 104.546C494.601 104.322 494.408 104.139 494.156 104.054C494.111 104.039 494.007 104.014 493.874 103.989C493.804 103.98 493.656 103.95 493.547 103.92C493.324 103.671 492.973 103.552 492.622 103.637C492.117 103.761 491.81 104.273 491.934 104.78C492.132 105.589 493.037 105.753 493.611 105.858C493.691 105.878 493.775 105.888 493.854 105.888C494.096 105.888 494.319 105.783 494.492 105.624C494.448 106.225 494.279 106.961 494.057 107.706C494.017 107.527 493.948 107.358 493.814 107.219C493.572 106.931 493.112 106.399 492.459 106.509C492.097 106.568 491.796 106.817 491.657 107.169C491.464 107.651 491.697 108.203 492.181 108.397C492.251 108.427 492.325 108.446 492.399 108.456C492.449 108.511 492.488 108.556 492.513 108.581C492.691 108.759 492.924 108.849 493.161 108.849C493.379 108.849 493.597 108.759 493.775 108.605C493.552 109.261 493.319 109.877 493.141 110.349C493.042 110.608 492.953 110.841 492.884 111.035C492.854 111.12 492.82 111.224 492.78 111.338C492.701 111.045 492.592 110.667 492.543 110.538C492.355 110.061 491.825 109.838 491.345 110.017C490.865 110.195 490.623 110.737 490.791 111.224C490.836 111.358 490.969 111.845 491.053 112.173C491.162 112.595 491.543 112.879 491.964 112.879C492.043 112.879 492.122 112.869 492.201 112.849C492.256 112.834 492.295 112.799 492.345 112.779C492.211 113.241 492.073 113.738 491.934 114.245C491.815 114.051 491.632 113.892 491.4 113.823C490.9 113.678 490.38 113.967 490.237 114.468C490.113 114.891 490.257 115.303 490.752 115.994C490.905 116.208 491.133 116.312 491.375 116.352C491.157 117.186 490.989 117.847 490.935 118.076C490.628 119.388 491.845 120.396 493.131 121.459C494.378 122.488 495.452 122.384 496.308 122.304C496.625 122.274 496.922 122.245 497.238 122.264C497.545 122.284 497.698 122.418 497.773 122.528C497.812 122.587 497.832 122.642 497.842 122.687C496.941 122.866 494.077 122.647 493.166 122.448C492.548 122.25 489.94 119.969 488.352 118.245C487.664 117.499 487.788 117.196 488.06 116.535C488.154 116.307 488.238 116.083 488.297 115.86C488.352 115.646 488.505 115.05 488.406 112.282C488.421 112.322 488.436 112.347 488.446 112.367C488.614 112.705 488.96 112.908 489.312 112.908C489.45 112.908 489.584 112.879 489.717 112.814C490.183 112.58 490.38 112.039 490.148 111.572C490.113 111.482 490.024 111.11 489.95 110.782C489.836 110.27 489.332 109.947 488.832 110.061C488.614 110.111 488.441 110.24 488.312 110.399C488.223 109.554 487.486 108.074 486.6 106.633C486.615 106.633 486.63 106.633 486.645 106.633C487.09 106.588 487.432 106.235 487.486 105.808C487.521 105.729 487.6 105.589 487.669 105.49C487.956 105.058 487.837 104.471 487.407 104.183C486.976 103.895 486.392 104.009 486.105 104.447C485.883 104.784 485.759 105.043 485.695 105.247C484.285 103.214 481.925 99.2195 481.9 99.1798C481.633 98.7326 481.059 98.5835 480.613 98.8469C480.168 99.1102 480.02 99.6915 480.282 100.139C480.381 100.303 482.706 104.243 484.161 106.335C484.285 106.509 484.389 106.673 484.502 106.842C483.938 107.363 483.013 108.178 482.033 108.879C481.652 109.152 481.168 109.49 480.633 109.853C480.732 109.361 480.435 108.874 479.945 108.754C479.446 108.63 478.931 108.933 478.807 109.44C478.699 109.882 478.684 110.265 478.684 110.454C478.684 110.667 478.768 110.856 478.887 111.015C477.62 111.85 476.353 112.65 475.611 113.072C475.235 113.286 474.814 113.539 474.394 113.808C474.384 113.748 474.374 113.698 474.369 113.669C474.339 113.172 473.934 112.779 473.429 112.779C472.91 112.779 472.489 113.201 472.489 113.723C472.489 113.897 472.514 114.454 472.726 114.906C472.217 115.259 471.806 115.567 471.598 115.76C471.143 116.183 469.06 119.477 469.144 120.471C469.199 121.132 469.753 121.594 470.292 122.041C470.396 122.125 470.539 122.245 470.624 122.329C470.653 122.493 470.658 122.736 470.634 122.885C470.277 122.95 469.481 122.886 469.159 122.369C469.006 122.125 468.852 121.917 468.709 121.718C468.244 121.087 468.15 120.953 468.412 120.327C468.907 119.129 471.123 113.708 471.336 113.018C471.42 112.844 471.955 112.526 472.237 112.357C472.41 112.252 472.578 112.153 472.726 112.054C473.063 111.825 473.8 110.995 474.631 109.917C474.656 110.141 474.706 110.419 474.75 110.643C474.839 111.095 475.23 111.408 475.67 111.408C475.73 111.408 475.789 111.403 475.849 111.393C476.358 111.293 476.69 110.797 476.591 110.285C476.591 110.28 476.502 109.843 476.492 109.664C476.482 109.147 476.066 108.735 475.552 108.735C475.532 108.735 475.517 108.745 475.497 108.745C476.408 107.458 477.308 106.022 477.838 104.854C479.025 102.226 480.485 97.2718 480.549 97.0581C480.658 96.6904 480.534 96.2929 480.232 96.0544C479.936 95.8159 479.52 95.7812 479.188 95.97C477.753 96.7799 475.858 97.5252 472.578 97.2867C472.781 96.9587 472.766 96.5563 472.538 96.2433C473.286 96.288 474.013 96.2582 474.72 96.1737C474.76 96.3128 474.819 96.4519 474.923 96.5662L475.141 96.7998C475.324 97.0035 475.581 97.1078 475.834 97.1078C476.061 97.1078 476.289 97.0233 476.467 96.8594C476.769 96.5811 476.838 96.1488 476.685 95.7911C477.843 95.488 478.921 95.0806 479.901 94.6582C480.015 94.9265 480.237 95.1452 480.544 95.2147L480.895 95.2942C480.965 95.3091 481.034 95.3191 481.098 95.3191C481.529 95.3191 481.92 95.021 482.014 94.5787C482.078 94.2906 481.989 94.0073 481.821 93.7937L482.068 93.6794C482.914 93.2968 483.77 92.9788 484.641 92.6906C484.631 93.1378 484.923 93.5403 485.373 93.6347C485.438 93.6496 485.502 93.6546 485.566 93.6546C486.002 93.6546 486.392 93.3465 486.486 92.9043L486.576 92.477C486.6 92.3528 486.6 92.2335 486.576 92.1192C487.145 91.9751 487.714 91.841 488.283 91.7317C488.218 91.9602 488.213 92.1938 488.283 92.4173C488.406 92.8148 488.733 93.113 489.173 93.2322C489.257 93.2571 489.341 93.267 489.421 93.267C489.836 93.267 490.212 92.9937 490.326 92.5714C490.4 92.3031 490.351 92.0348 490.212 91.8161C490.212 91.6919 490.183 91.5776 490.133 91.4634C490.272 91.4484 490.41 91.4186 490.549 91.4037C491.34 91.3242 492.167 91.3391 492.993 91.3988C492.543 91.4037 492.142 91.7118 492.063 92.1689C492.003 92.5316 492.152 92.8794 492.424 93.0832C492.459 93.1925 492.513 93.3018 492.592 93.3962C492.78 93.6247 493.047 93.744 493.319 93.744C493.527 93.744 493.74 93.6744 493.913 93.5303C494.289 93.2173 494.448 92.7751 494.334 92.3428C494.166 91.7068 493.542 91.4882 493.26 91.4186C494.062 91.4882 494.853 91.6025 495.61 91.7317C495.521 91.7913 495.437 91.8609 495.373 91.9553C495.135 92.2931 495.145 92.7353 495.373 93.0583C495.363 93.3117 495.452 93.5701 495.645 93.7639C495.828 93.9477 496.071 94.0421 496.308 94.0421C496.546 94.0421 496.788 93.9477 496.971 93.7639C497.223 93.5105 497.352 93.1627 497.322 92.8099C497.298 92.5118 497.164 92.2236 496.946 91.9851C497.209 92.0348 497.466 92.0894 497.708 92.1391C498.544 92.308 499.262 92.4521 499.816 92.5118C500.073 92.5416 500.435 92.5714 500.855 92.6111C500.954 93.0782 501.197 93.5552 501.498 93.7539C501.657 93.8632 501.84 93.9129 502.018 93.9129C502.32 93.9129 502.621 93.7639 502.8 93.4906C502.948 93.272 502.978 93.0136 502.923 92.7751C504.388 92.8794 506.06 92.9887 507.51 93.0682C507.446 93.3415 507.411 93.6446 507.47 93.9179C507.564 94.3651 507.97 94.703 508.41 94.703C508.47 94.703 508.529 94.698 508.594 94.6831C509.103 94.5738 509.43 94.1117 509.321 93.6049C509.321 93.5651 509.346 93.4707 509.36 93.421C509.405 93.3366 509.425 93.2471 509.445 93.1627C509.707 93.1726 509.954 93.1825 510.157 93.1875C511.384 93.2173 513.685 93.1179 514.675 92.5714C514.783 92.9738 515.13 93.2769 515.565 93.2769C516.085 93.2769 516.505 92.8546 516.505 92.3329V91.6522C516.505 91.6273 516.495 91.6074 516.49 91.5826C516.802 91.4484 517.124 91.3342 517.445 91.2646C517.44 91.3044 517.421 91.3391 517.421 91.3789C517.421 91.9006 517.841 92.3229 518.361 92.3229H518.559C519.078 92.3229 519.499 91.9006 519.499 91.3789C519.499 91.359 519.489 91.3391 519.489 91.3193C519.786 91.3739 520.083 91.4385 520.384 91.513C520.874 91.6273 521.379 91.7416 521.898 91.8062C522.349 91.8609 523.121 91.8907 523.917 91.8807C523.843 91.9404 523.769 92.0049 523.714 92.0894L523.586 92.2882C523.304 92.7254 523.427 93.3117 523.863 93.5949C524.021 93.6993 524.199 93.744 524.372 93.744C524.679 93.744 524.981 93.59 525.164 93.3117L525.293 93.113C525.565 92.6857 525.451 92.1292 525.04 91.836C525.07 91.836 525.105 91.831 525.134 91.831C525.669 91.7863 526.693 91.7515 527.717 91.7217C527.717 91.99 527.821 92.2583 528.044 92.4422L528.162 92.5416C528.341 92.6906 528.553 92.7602 528.761 92.7602C529.033 92.7602 529.295 92.6459 529.483 92.4223C529.667 92.2037 529.721 91.9254 529.676 91.6621C529.978 91.6522 530.245 91.6422 530.453 91.6323C530.933 91.6074 531.502 91.6124 532.051 91.6422C532.027 91.672 531.997 91.7019 531.972 91.7317C531.651 92.1391 531.72 92.7353 532.126 93.0583C532.531 93.3813 533.125 93.3117 533.447 92.9043C533.773 92.4919 534.258 92.154 534.713 91.9205C534.718 91.9205 534.718 91.9155 534.723 91.9155C535.139 91.7019 535.535 91.5776 535.757 91.5627C535.599 91.8459 535.203 92.2931 534.817 92.6062C534.412 92.9341 534.347 93.5254 534.674 93.9328C534.862 94.1663 535.134 94.2856 535.406 94.2856C535.614 94.2856 535.817 94.216 535.995 94.0769C536.034 94.0471 536.089 94.0024 536.143 93.9527C536.079 94.0819 536.034 94.221 536.034 94.37V94.6831C536.034 95.2048 536.455 95.6271 536.975 95.6271C537.435 95.6271 537.796 95.2893 537.88 94.852C537.954 94.9116 538.024 94.9663 538.088 95.006C538.4 95.2147 538.736 95.8706 538.993 96.4221C539.216 96.9041 539.444 97.4109 539.646 97.868C539.844 98.3102 540.022 98.7177 540.171 99.0208C540.463 99.6319 540.453 99.8257 540.468 99.8257C539.849 100.278 539.632 100.303 539.637 100.308C539.488 100.283 539.275 100.218 539.077 100.164C538.597 100.029 538.335 99.9549 538.033 100.029C537.529 100.154 537.222 100.67 537.351 101.172C537.405 101.396 537.539 101.575 537.707 101.699C537.336 101.843 537.321 101.833 536.945 101.47C536.143 100.695 535.248 99.9499 534.105 99.7462C533.823 99.6965 533.278 99.6667 532.611 99.6766C532.695 99.4679 532.714 99.2245 532.63 98.9959C532.452 98.504 531.913 98.2556 531.423 98.4345L531.205 98.514C530.716 98.6928 530.468 99.2344 530.646 99.7263C530.656 99.7561 530.681 99.781 530.696 99.8108C530.156 99.8754 529.617 99.9698 529.107 100.094C529.152 99.7313 529.201 99.453 529.231 99.3586C529.424 98.8767 529.192 98.3251 528.707 98.1314C528.222 97.9376 527.678 98.1711 527.485 98.6581C527.356 98.981 527.198 99.945 527.138 101.003C527.024 100.959 526.896 100.899 526.777 100.844C526.307 100.626 525.748 100.834 525.53 101.311C525.312 101.783 525.52 102.345 525.995 102.563C526.658 102.867 526.98 102.956 527.178 102.976C527.198 103.12 527.212 103.269 527.237 103.403C527.272 103.572 527.326 103.801 527.395 104.074C527.351 104.094 527.306 104.094 527.262 104.119L527.064 104.238C526.619 104.506 526.475 105.088 526.742 105.535C526.92 105.828 527.232 105.992 527.549 105.992C527.678 105.992 527.801 105.957 527.925 105.902C528.355 107.269 528.929 108.834 529.488 109.892C529.399 109.937 529.31 109.987 529.236 110.061L529.033 110.26C528.776 110.508 528.459 110.816 528.524 111.338C528.558 111.631 528.786 111.949 529.043 112.098C529.192 112.183 529.35 112.223 529.508 112.223C529.835 112.223 530.151 112.054 530.325 111.746C530.359 111.681 530.389 111.616 530.409 111.547L530.527 111.433C530.953 112.034 531.527 112.869 532.126 113.743C533.778 116.158 534.99 117.912 535.55 118.498C536.885 119.894 538.726 120.794 540.478 120.913C540.77 120.933 540.982 121.002 541.052 121.107C541.116 121.186 541.151 121.425 541.091 121.763Z" fill="#FFDE3B"/>
<path d="M501.884 100.134C501.928 99.9498 501.913 99.7659 501.849 99.597C502.141 99.2641 502.166 98.7573 501.884 98.3946C501.562 97.9822 500.973 97.9076 500.563 98.2306C500.182 98.5287 499.716 99.2542 499.87 99.9498C499.969 100.397 500.305 100.735 500.751 100.839C500.82 100.854 500.894 100.864 500.963 100.864C501.399 100.864 501.785 100.571 501.884 100.134Z" fill="#FFDE3B"/>
<path d="M505.649 102.498C505.871 102.454 506.282 102.295 506.534 101.723C506.633 101.495 506.94 100.521 506.594 99.9396C506.247 99.3632 505.579 99.3383 504.615 99.4924C504.1 99.5719 503.749 100.054 503.833 100.571C503.892 100.963 504.189 101.261 504.555 101.346C504.521 101.48 504.516 101.619 504.545 101.758C504.634 102.205 505.025 102.518 505.466 102.518C505.525 102.518 505.584 102.513 505.649 102.498Z" fill="#FFDE3B"/>
<path d="M508.209 97.998C508.501 97.7098 508.58 97.2527 508.372 96.8751C508.125 96.418 507.556 96.249 507.096 96.4975C506.403 96.8751 506.037 97.4614 506.111 98.0726C506.175 98.5794 506.541 98.9918 507.056 99.1259C507.135 99.1458 507.214 99.1557 507.289 99.1557C507.709 99.1557 508.09 98.8725 508.199 98.4502C508.244 98.2962 508.244 98.1421 508.209 97.998Z" fill="#FFDE3B"/>
<path d="M504.18 98.8272C504.209 98.8272 504.239 98.8322 504.264 98.8322C504.744 98.8322 505.154 98.4645 505.199 97.9726C505.228 97.6447 505.09 97.3416 504.847 97.1528C504.838 96.8199 504.65 96.4969 504.328 96.3379C503.863 96.1044 503.299 96.2932 503.066 96.7602C502.844 97.2074 502.849 97.7043 503.076 98.1217C503.304 98.5192 503.714 98.7825 504.18 98.8272Z" fill="#FFDE3B"/>
<path d="M501.321 96.9735C501.44 96.9735 501.563 96.9487 501.682 96.899C502.048 96.745 502.696 96.3177 502.82 95.6817C502.889 95.3339 502.785 94.9811 502.543 94.7376C502.177 94.3699 501.583 94.3699 501.212 94.7376C501.093 94.8569 501.014 94.996 500.974 95.145C500.97 95.15 500.965 95.15 500.96 95.155C500.48 95.3537 500.257 95.9102 500.455 96.3922C500.598 96.7549 500.95 96.9735 501.321 96.9735Z" fill="#FFDE3B"/>
<path d="M498.953 95.021C498.977 95.026 499.007 95.026 499.032 95.026C499.517 95.026 499.927 94.6534 499.967 94.1614C499.992 93.8832 499.893 93.6248 499.715 93.436C499.764 92.9391 499.418 92.487 498.918 92.4125C498.408 92.328 497.924 92.6907 497.849 93.2075C497.8 93.5205 497.716 94.1018 498.087 94.5689C498.295 94.8322 498.601 94.9912 498.953 95.021Z" fill="#FFDE3B"/>
<path d="M491.302 93.1926C490.817 93.0138 490.278 93.2672 490.095 93.7591C489.956 94.1466 490.085 94.564 490.382 94.8125C490.397 94.887 490.426 94.9615 490.461 95.036C490.624 95.369 490.956 95.5578 491.302 95.5578C491.441 95.5578 491.589 95.528 491.723 95.4584C492.128 95.2547 492.361 94.8572 492.336 94.415C492.312 93.8883 491.901 93.4113 491.302 93.1926Z" fill="#FFDE3B"/>
<path d="M493.61 96.1536C493.774 96.2828 493.966 96.3424 494.159 96.3424C494.432 96.3424 494.704 96.2182 494.892 95.9797C494.936 95.9201 494.976 95.8605 495.006 95.7959C495.288 95.5921 495.426 95.2294 495.352 94.8468C495.253 94.3351 494.719 94.0121 494.214 94.1065C493.932 94.1612 493.274 94.2804 493.11 94.9611C493.051 95.2195 493.031 95.7114 493.61 96.1536Z" fill="#FFDE3B"/>
<path d="M496.719 96.9442C496.877 97.0684 497.08 97.1429 497.298 97.1429C497.323 97.1429 497.352 97.1429 497.377 97.138C497.892 97.0932 498.277 96.6361 498.238 96.1194C498.208 95.7616 498.035 95.4536 497.753 95.2498C497.224 94.8673 496.536 95.0412 496.279 95.1057C495.774 95.23 495.467 95.7467 495.596 96.2486C495.719 96.7554 496.224 97.0584 496.719 96.9442Z" fill="#FFDE3B"/>
<path d="M497.532 98.1764C497.532 98.1913 497.527 98.2062 497.527 98.2261C497.3 98.4 497.156 98.6683 497.156 98.9764C497.156 99.4981 497.577 99.9204 498.096 99.9204C499.007 99.9204 499.412 98.9217 499.412 98.2112C499.412 97.7044 499.017 97.3168 498.512 97.292C497.997 97.2671 497.572 97.6746 497.532 98.1764Z" fill="#FFDE3B"/>
<path d="M496.333 100.671C496.442 100.358 496.378 100.03 496.195 99.7815C496.368 99.3244 496.16 98.7977 495.71 98.589C495.24 98.3704 494.68 98.5741 494.463 99.0511C494.21 99.6026 494.171 100.095 494.344 100.512C494.487 100.855 494.77 101.113 495.136 101.242C495.24 101.277 495.343 101.297 495.447 101.297C495.833 101.302 496.199 101.058 496.333 100.671Z" fill="#FFDE3B"/>
<path d="M493.413 98.8322C493.631 98.8322 493.844 98.7577 494.022 98.6086C494.116 98.5291 494.19 98.4347 494.244 98.3353C494.536 98.1515 494.719 97.8086 494.68 97.4409C494.63 96.9242 494.17 96.5416 493.651 96.5963C493.111 96.6509 492.686 96.9441 492.513 97.3764C492.359 97.754 492.434 98.1862 492.696 98.4993C492.879 98.7179 493.146 98.8322 493.413 98.8322Z" fill="#FFDE3B"/>
<path d="M498.944 103.026C498.513 103.29 497.964 104.134 498.083 104.865C498.162 105.327 498.558 105.655 499.008 105.655C499.058 105.655 499.112 105.65 499.166 105.64C499.636 105.56 499.963 105.148 499.953 104.686C499.963 104.666 499.973 104.641 499.988 104.621C500.082 104.562 500.166 104.487 500.235 104.393C500.547 103.975 500.463 103.384 500.052 103.071C499.735 102.837 499.27 102.827 498.944 103.026Z" fill="#FFDE3B"/>
<path d="M502.229 101.953C501.883 102.057 501.606 102.311 501.443 102.668C501.23 103.135 501.2 103.811 501.378 104.204C501.537 104.556 501.878 104.76 502.234 104.76C502.363 104.76 502.492 104.735 502.62 104.676C503.051 104.482 503.263 104.01 503.145 103.568C503.145 103.558 503.145 103.548 503.145 103.538C503.397 103.299 503.506 102.932 503.402 102.579C503.249 102.087 502.724 101.804 502.229 101.953Z" fill="#FFDE3B"/>
<path d="M498.143 100.855C497.678 100.621 497.114 100.81 496.881 101.277C496.846 101.347 496.683 101.511 496.594 101.595C496.322 101.863 495.867 102.311 496.085 102.962C496.218 103.359 496.584 103.607 496.975 103.607C497.074 103.607 497.173 103.593 497.272 103.558C497.549 103.463 497.757 103.255 497.851 103.001C497.871 102.981 497.89 102.962 497.91 102.942C498.108 102.743 498.385 102.475 498.558 102.122C498.796 101.655 498.608 101.088 498.143 100.855Z" fill="#FFDE3B"/>
<path d="M505.573 103.93C505.454 104.108 505.39 104.267 505.34 104.402C505.291 104.531 505.261 104.6 505.182 104.695C504.851 105.097 504.905 105.688 505.301 106.026C505.479 106.175 505.692 106.245 505.904 106.245C506.177 106.245 506.439 106.131 506.627 105.907C506.904 105.574 507.018 105.286 507.092 105.092C507.107 105.052 507.122 105.013 507.141 104.978C507.428 104.546 507.31 103.959 506.879 103.671C506.444 103.378 505.86 103.497 505.573 103.93Z" fill="#FFDE3B"/>
<path d="M510.27 101.957C510.285 101.723 510.211 101.48 510.048 101.286C509.711 100.889 509.117 100.844 508.722 101.182C508.162 101.659 508.157 102.18 508.207 102.449C508.301 102.97 508.707 103.363 509.404 103.616C509.508 103.656 509.617 103.671 509.721 103.671C510.107 103.671 510.468 103.433 510.607 103.045C510.755 102.633 510.602 102.195 510.27 101.957Z" fill="#FFDE3B"/>
<path d="M512.779 104.521C512.368 104.571 511.631 104.919 511.294 105.525C511.042 105.977 511.19 106.568 511.641 106.827C511.789 106.911 511.952 106.951 512.111 106.951C512.432 106.951 512.739 106.787 512.912 106.479C512.942 106.449 513.031 106.394 513.016 106.389C513.531 106.325 513.897 105.853 513.833 105.336C513.763 104.824 513.293 104.457 512.779 104.521Z" fill="#FFDE3B"/>
<path d="M505.159 95.9699C505.184 95.9699 505.209 95.9699 505.233 95.9649C505.753 95.9301 506.144 95.4829 506.109 94.9612C506.08 94.5438 505.788 94.206 505.407 94.1066C505.219 93.7936 504.852 93.6047 504.467 93.6594C503.952 93.7339 503.596 94.2109 503.67 94.7277C503.749 95.2941 504.457 95.9699 505.159 95.9699Z" fill="#FFDE3B"/>
<path d="M509.723 97.1228L510.356 96.4272L509.733 97.1327C509.911 97.2917 510.134 97.3712 510.356 97.3712C510.614 97.3712 510.871 97.2669 511.059 97.0532C511.341 96.7352 511.371 96.2732 511.158 95.9303C511.217 95.6719 511.168 95.3937 511 95.1651C510.693 94.7428 510.104 94.6534 509.688 94.9614C509.352 95.2099 509.154 95.5577 509.134 95.9403C509.104 96.5713 509.57 96.9837 509.723 97.1228Z" fill="#FFDE3B"/>
<path d="M511.831 100.005C512.009 99.5628 511.826 99.0709 511.43 98.8374C511.282 98.4299 510.856 98.1715 510.416 98.2262C509.901 98.3007 509.545 98.7777 509.619 99.2945C509.718 99.9951 510.292 100.403 510.614 100.532C510.727 100.576 510.846 100.601 510.96 100.601C511.331 100.601 511.687 100.378 511.831 100.005Z" fill="#FFDE3B"/>
<path d="M514.29 100.79C514.265 100.75 514.235 100.696 514.22 100.656C514.052 100.164 513.518 99.9007 513.023 100.075C512.533 100.244 512.271 100.78 512.444 101.277C512.484 101.396 512.865 102.435 513.666 102.514C513.701 102.519 513.731 102.519 513.765 102.519C514.24 102.519 514.651 102.157 514.7 101.67C514.73 101.312 514.562 100.984 514.29 100.79Z" fill="#FFDE3B"/>
<path d="M509.725 110.215C509.661 110.28 509.607 110.334 509.562 110.379C509.146 110.518 508.874 110.936 508.929 111.388C508.988 111.87 509.389 112.223 509.859 112.223C509.899 112.223 509.933 112.223 509.973 112.218C510.349 112.173 510.641 112.073 510.908 111.716C510.928 111.691 510.957 111.651 511.017 111.596C511.393 111.239 511.413 110.642 511.056 110.26C510.7 109.877 510.101 109.862 509.725 110.215Z" fill="#FFDE3B"/>
<path d="M489.106 106.34C488.715 106.752 488.389 107.482 488.774 108.158C488.948 108.466 489.264 108.64 489.596 108.64C489.754 108.64 489.912 108.6 490.056 108.516C490.397 108.322 490.571 107.944 490.526 107.572C490.828 107.194 490.793 106.643 490.437 106.3C490.061 105.947 489.467 105.962 489.106 106.34Z" fill="#FFDE3B"/>
<path d="M490.551 101.758C490.229 101.664 489.848 101.763 489.606 101.997C489.116 102.469 489.116 103.711 489.166 103.91C489.269 104.342 489.655 104.63 490.076 104.63C490.15 104.63 490.224 104.62 490.299 104.6C490.749 104.491 491.041 104.074 491.011 103.627C491.016 103.527 491.041 103.333 491.066 103.194C491.12 103.11 491.164 103.02 491.194 102.921C491.338 102.419 491.051 101.897 490.551 101.758Z" fill="#FFDE3B"/>
<path d="M491.724 99.2187C491.348 98.8559 490.754 98.8709 490.393 99.2485C490.037 99.6261 490.046 100.222 490.422 100.585L490.531 100.689C490.714 100.863 490.947 100.953 491.179 100.953C491.427 100.953 491.674 100.853 491.857 100.66C492.214 100.282 492.204 99.6857 491.828 99.323L491.724 99.2187Z" fill="#FFDE3B"/>
<path d="M486.51 100.819C486.025 100.631 485.481 100.869 485.293 101.356L485.154 101.709C484.966 102.196 485.204 102.742 485.689 102.931C485.802 102.976 485.916 102.996 486.03 102.996C486.406 102.996 486.762 102.767 486.906 102.394L487.044 102.042C487.232 101.555 486.99 101.008 486.51 100.819Z" fill="#FFDE3B"/>
<path d="M489.265 101.301C489.309 100.973 489.408 100.298 488.854 99.9299C488.419 99.6417 487.835 99.7609 487.553 100.193C487.404 100.417 487.365 100.68 487.419 100.924C487.414 100.978 487.404 101.028 487.404 101.038C487.33 101.555 487.691 102.032 488.201 102.106C488.245 102.111 488.29 102.116 488.334 102.116C488.795 102.116 489.2 101.773 489.265 101.301Z" fill="#FFDE3B"/>
<path d="M489.39 98.7771C489.91 98.7771 490.326 98.3995 490.326 97.8778C490.335 97.8132 490.365 97.7138 490.39 97.6194C490.479 97.2666 490.538 97.0331 490.439 96.7399C490.276 96.248 489.742 95.9797 489.247 96.1437C488.876 96.2679 488.633 96.6058 488.609 96.9784C488.599 97.0232 488.579 97.0828 488.564 97.1474C488.49 97.4256 488.445 97.6095 488.445 97.7883C488.455 98.31 488.871 98.7771 489.39 98.7771Z" fill="#FFDE3B"/>
<path d="M479.234 102.857C479.234 103.055 479.368 103.681 479.437 103.86C479.581 104.223 479.922 104.437 480.293 104.437C480.397 104.437 480.506 104.417 480.61 104.382C481.085 104.218 481.342 103.691 481.199 103.204C481.169 103.105 481.12 102.857 481.105 102.762C481.06 102.285 480.659 101.912 480.17 101.912C479.655 101.912 479.234 102.335 479.234 102.857Z" fill="#FFDE3B"/>
<path d="M482.04 107.925C482.09 107.935 482.139 107.935 482.188 107.935C482.644 107.935 483.044 107.602 483.114 107.14C483.133 107.011 483.193 106.554 483.099 106.151C482.985 105.654 482.505 105.366 482.005 105.466C481.506 105.565 481.184 106.067 481.263 106.569C481.273 106.618 481.263 106.758 481.253 106.847C481.174 107.359 481.525 107.846 482.04 107.925Z" fill="#FFDE3B"/>
<path d="M478.041 105.265C477.67 105.712 477.65 106.617 477.675 106.81C477.744 107.283 478.155 107.66 478.62 107.66C478.66 107.66 478.704 107.655 478.744 107.65C479.259 107.576 479.62 107.138 479.545 106.622C479.545 106.562 479.57 106.408 479.59 106.324C479.803 105.936 479.719 105.439 479.367 105.146C478.962 104.808 478.373 104.863 478.041 105.265Z" fill="#FFDE3B"/>
<path d="M485.32 99.3584L485.142 98.8267C484.979 98.3348 484.449 98.0615 483.955 98.2305C483.46 98.3944 483.198 98.9311 483.361 99.423L483.539 99.9546C483.673 100.352 484.039 100.601 484.43 100.601C484.529 100.601 484.628 100.586 484.727 100.551C485.216 100.387 485.484 99.8503 485.32 99.3584Z" fill="#FFDE3B"/>
<path d="M487.747 98.8715V98.6628C487.747 98.1411 487.327 97.7188 486.807 97.7188C486.288 97.7188 485.867 98.1411 485.867 98.6628V98.8715C485.867 99.3932 486.288 99.8156 486.807 99.8156C487.327 99.8156 487.747 99.3932 487.747 98.8715Z" fill="#FFDE3B"/>
<path d="M484.142 96.0391C484.276 96.4316 484.642 96.6751 485.033 96.6751C485.132 96.6751 485.236 96.6602 485.339 96.6254C485.829 96.4565 486.092 95.9199 485.923 95.428L485.745 94.9112C485.577 94.4193 485.043 94.151 484.553 94.3249C484.063 94.4938 483.801 95.0305 483.969 95.5224L484.142 96.0391Z" fill="#FFDE3B"/>
<path d="M492.255 102.305C492.389 102.698 492.755 102.941 493.146 102.941C493.245 102.941 493.349 102.927 493.453 102.892C493.943 102.723 494.205 102.186 494.037 101.694L493.858 101.178C493.69 100.686 493.156 100.417 492.666 100.591C492.176 100.76 491.914 101.297 492.082 101.789L492.255 102.305Z" fill="#FFDE3B"/>
<path d="M486.642 95.4138C486.776 95.8063 487.142 96.0498 487.533 96.0498C487.632 96.0498 487.736 96.0349 487.839 96.0001C488.329 95.8312 488.592 95.2945 488.423 94.8026L488.245 94.2859C488.077 93.794 487.543 93.5257 487.053 93.6996C486.563 93.8685 486.301 94.4051 486.469 94.897L486.642 95.4138Z" fill="#FFDE3B"/>
<path d="M483.413 96.6017L483.077 95.9557C482.834 95.4936 482.265 95.3197 481.805 95.5632C481.345 95.8067 481.172 96.3781 481.414 96.8402L481.751 97.4861C481.919 97.8091 482.245 97.9879 482.582 97.9879C482.73 97.9879 482.879 97.9532 483.017 97.8786C483.482 97.6302 483.656 97.0588 483.413 96.6017Z" fill="#FFDE3B"/>
<path d="M522.151 104.02C521.815 103.622 521.221 103.577 520.825 103.915C520.43 104.253 520.385 104.849 520.722 105.247L520.959 105.52C521.147 105.739 521.409 105.848 521.672 105.848C521.889 105.848 522.107 105.774 522.28 105.619C522.676 105.282 522.72 104.685 522.384 104.288L522.151 104.02Z" fill="#FFDE3B"/>
<path d="M525.041 102.722C525.041 102.066 524.566 101.684 524.096 101.644C523.403 101.579 522.666 102.354 522.587 102.866C522.503 103.383 522.849 103.865 523.364 103.949C523.413 103.959 523.468 103.959 523.517 103.959C523.784 103.959 524.032 103.845 524.205 103.656C524.675 103.606 525.041 103.209 525.041 102.722Z" fill="#FFDE3B"/>
<path d="M525.086 105.052C524.71 104.923 524.314 105.038 523.972 105.361C523.502 105.803 523.567 106.28 523.616 106.464C523.715 106.831 524.007 107.11 524.398 107.199C524.467 107.214 524.541 107.224 524.611 107.224C525.021 107.224 525.392 106.951 525.511 106.548C525.58 106.464 525.64 106.359 525.674 106.25C525.843 105.758 525.575 105.221 525.086 105.052Z" fill="#FFDE3B"/>
<path d="M526.649 106.991C526.238 107.155 525.966 107.533 525.961 107.955C525.951 108.288 526.125 108.73 526.624 108.959C526.748 109.018 526.882 109.043 527.015 109.043C527.371 109.043 527.713 108.84 527.871 108.492C527.891 108.447 527.906 108.402 527.921 108.358C528.138 107.995 528.089 107.518 527.777 107.21C527.49 106.922 527.045 106.832 526.649 106.991Z" fill="#FFDE3B"/>
<path d="M520.378 99.3888C520.566 99.3888 520.759 99.3292 520.928 99.21C521.348 98.9069 521.442 98.3156 521.14 97.8933C521.111 97.8485 521.066 97.784 521.032 97.7243C521.022 97.4958 520.933 97.2722 520.759 97.0983C520.393 96.7306 519.8 96.7306 519.428 97.0983C518.973 97.5554 519.038 98.1914 519.616 98.9963C519.8 99.2547 520.087 99.3888 520.378 99.3888Z" fill="#FFDE3B"/>
<path d="M524.654 97.0132C524.907 97.0132 525.159 96.9138 525.342 96.715C525.634 96.402 525.669 95.935 525.461 95.5872C525.491 95.1449 525.209 94.7276 524.768 94.6083C524.269 94.4692 523.749 94.7723 523.615 95.2791C523.472 95.8207 523.625 96.402 524.016 96.7647C524.194 96.9287 524.422 97.0132 524.654 97.0132Z" fill="#FFDE3B"/>
<path d="M525.031 98.4444C525.031 98.827 525.284 99.4233 525.694 99.7214C525.892 99.8655 526.115 99.94 526.342 99.94C526.456 99.94 526.57 99.9202 526.679 99.8854C527.174 99.7214 527.441 99.1848 527.273 98.6929C527.198 98.4743 527.055 98.3003 526.872 98.1861C526.758 97.7935 526.397 97.5054 525.971 97.5054C525.452 97.5004 525.031 97.9227 525.031 98.4444Z" fill="#FFDE3B"/>
<path d="M522.157 99.1398C522.236 99.6019 522.632 99.9298 523.082 99.9298C523.132 99.9298 523.186 99.9248 523.241 99.9149C523.75 99.8304 524.097 99.3435 524.013 98.8267C524.013 98.8168 524.008 98.782 524.008 98.7522C524.191 98.3796 524.112 97.9175 523.79 97.6293C523.404 97.2815 522.805 97.3162 522.464 97.7088C522.063 98.156 522.098 98.7969 522.157 99.1398Z" fill="#FFDE3B"/>
<path d="M520.9 96.635C520.979 97.0971 521.375 97.425 521.825 97.425C521.875 97.425 521.929 97.4201 521.983 97.4101C522.493 97.3257 522.839 96.8387 522.755 96.322C522.755 96.312 522.75 96.2773 522.75 96.2474C522.933 95.8748 522.854 95.4127 522.533 95.1245C522.147 94.7767 521.548 94.8115 521.207 95.204C520.811 95.6512 520.845 96.2922 520.9 96.635Z" fill="#FFDE3B"/>
<path d="M519.034 102.276C519.113 102.738 519.509 103.066 519.959 103.066C520.008 103.066 520.063 103.061 520.117 103.051C520.627 102.966 520.973 102.479 520.889 101.963C520.889 101.953 520.884 101.918 520.884 101.888C521.067 101.515 520.988 101.053 520.667 100.765C520.281 100.417 519.682 100.452 519.341 100.845C518.94 101.292 518.979 101.933 519.034 102.276Z" fill="#FFDE3B"/>
<path d="M516.748 99.154L516.688 99.0199C516.47 98.5429 515.911 98.3342 515.441 98.5528C514.971 98.7715 514.759 99.3279 514.976 99.8049L515.041 99.949C515.164 100.232 515.446 100.898 516.243 100.898C516.762 100.898 517.183 100.476 517.183 99.954C517.188 99.6161 517.01 99.318 516.748 99.154Z" fill="#FFDE3B"/>
<path d="M512.71 96.7254C512.463 96.8893 512.28 97.2372 512.26 97.5303C512.235 97.9278 512.409 98.3402 512.715 98.6036C512.893 98.7576 513.111 98.8321 513.324 98.8321C513.591 98.8321 513.853 98.7178 514.036 98.5042C514.289 98.2061 514.328 97.7986 514.165 97.4657C514.155 97.3018 514.106 97.1378 514.007 96.9937C513.725 96.5564 513.146 96.4372 512.71 96.7254Z" fill="#FFDE3B"/>
<path d="M512.897 95.538C513.09 95.538 513.288 95.4783 513.456 95.3541C513.748 95.1355 513.876 94.7877 513.827 94.4498C513.881 94.0871 513.723 93.7095 513.396 93.5058C512.956 93.2275 512.377 93.3666 512.1 93.8039C511.798 94.2908 511.902 94.8324 512.14 95.1554C512.323 95.4088 512.61 95.538 512.897 95.538Z" fill="#FFDE3B"/>
<path d="M517.639 96.1945C517.12 96.1945 516.699 96.6169 516.699 97.1386V97.3274C516.699 97.8491 517.12 98.2715 517.639 98.2715C518.159 98.2715 518.579 97.8491 518.579 97.3274V97.1386C518.579 96.6169 518.159 96.1945 517.639 96.1945Z" fill="#FFDE3B"/>
<path d="M515.565 96.4615C516.085 96.4615 516.505 96.0391 516.505 95.5174V95.1696C516.505 94.6479 516.085 94.2255 515.565 94.2255C515.046 94.2255 514.625 94.6479 514.625 95.1696V95.5174C514.625 96.0391 515.046 96.4615 515.565 96.4615Z" fill="#FFDE3B"/>
<path d="M519.732 94.4495V94.1862C519.732 93.6644 519.311 93.2421 518.792 93.2421C518.272 93.2421 517.852 93.6644 517.852 94.1862V94.4495C517.852 94.9712 518.272 95.3935 518.792 95.3935C519.311 95.3935 519.732 94.9712 519.732 94.4495Z" fill="#FFDE3B"/>
<path d="M521.339 93.8143H521.556C522.076 93.8143 522.496 93.3919 522.496 92.8702C522.496 92.3485 522.076 91.9262 521.556 91.9262H521.339C520.819 91.9262 520.398 92.3485 520.398 92.8702C520.398 93.3919 520.819 93.8143 521.339 93.8143Z" fill="#FFDE3B"/>
<path d="M526.808 95.5622C526.362 95.8305 526.219 96.4118 526.486 96.859L526.664 97.1522C526.842 97.4453 527.154 97.6093 527.471 97.6093C527.634 97.6093 527.802 97.5646 527.955 97.4751C528.401 97.2068 528.544 96.6255 528.277 96.1783L528.099 95.8852C527.832 95.438 527.253 95.2939 526.808 95.5622Z" fill="#FFDE3B"/>
<path d="M527.153 94.9362C527.341 94.9362 527.534 94.8815 527.697 94.7623L527.836 94.6629C528.256 94.3598 528.355 93.7685 528.053 93.3462C527.751 92.9238 527.163 92.8245 526.742 93.1276L526.604 93.2269C526.183 93.53 526.084 94.1213 526.386 94.5436C526.574 94.797 526.861 94.9362 527.153 94.9362Z" fill="#FFDE3B"/>
<path d="M529.624 95.2887C529.831 95.2887 530.044 95.2191 530.217 95.075L530.529 94.8216C530.93 94.4937 530.994 93.8974 530.668 93.495C530.341 93.0875 529.747 93.0279 529.347 93.3558L529.035 93.6093C528.634 93.9372 528.57 94.5334 528.896 94.9359C529.079 95.1694 529.351 95.2887 529.624 95.2887Z" fill="#FFDE3B"/>
<path d="M530.19 95.5725C529.671 95.5725 529.25 95.9948 529.25 96.5166V96.7551C529.25 97.2768 529.671 97.6991 530.19 97.6991C530.71 97.6991 531.13 97.2768 531.13 96.7551V96.5166C531.13 95.9998 530.71 95.5725 530.19 95.5725Z" fill="#FFDE3B"/>
<path d="M404.877 176.299L414.501 190.614C414.58 190.738 414.679 190.812 414.813 190.862C414.986 190.922 415.154 190.951 415.322 190.951H416.683C416.881 190.951 416.92 190.912 416.92 190.713V172.329C416.92 172.13 416.881 172.09 416.683 172.09H415.129C414.931 172.09 414.892 172.13 414.892 172.329V186.45C414.892 186.604 414.892 187.011 414.56 187.111C414.229 187.21 414.006 186.867 413.922 186.738L404.516 172.423C404.437 172.304 404.343 172.224 404.204 172.18C404.031 172.12 403.863 172.09 403.695 172.09H402.116C401.918 172.09 401.879 172.13 401.879 172.329V190.713C401.879 190.912 401.918 190.951 402.116 190.951H403.675C403.873 190.951 403.912 190.912 403.912 190.713V176.592C403.912 176.443 403.912 176.04 404.239 175.941C404.284 175.926 404.323 175.921 404.363 175.921C404.625 175.926 404.803 176.189 404.877 176.299Z" fill="#111111"/>
<path d="M440.73 187.036C440.983 186.882 441.101 186.668 441.101 186.375V176.671C441.101 176.373 440.988 176.169 440.73 176.01L432.423 171.116C432.284 171.037 432.156 170.997 432.037 170.997C431.982 170.997 431.859 171.012 431.631 171.126L423.383 176.01C423.111 176.169 422.992 176.373 422.992 176.671V186.375C422.992 186.673 423.111 186.877 423.383 187.036L431.651 191.93C431.839 192.049 431.992 192.079 432.235 192.025C432.284 192.015 432.339 191.985 432.398 191.945L440.73 187.036ZM432.037 189.918C431.829 189.918 431.626 189.858 431.438 189.744L425.328 186.127C424.942 185.898 424.739 185.55 424.739 185.113V177.933C424.739 177.501 424.942 177.148 425.328 176.92L431.448 173.297C431.953 173.044 432.26 173.084 432.631 173.297L438.781 176.92C439.157 177.153 439.355 177.501 439.355 177.933V185.113C439.355 185.545 439.157 185.893 438.791 186.122L432.636 189.744C432.551 189.804 432.438 189.858 432.319 189.883C432.215 189.908 432.121 189.918 432.037 189.918Z" fill="#111111"/>
<path d="M477.749 172.095C477.551 172.095 477.512 172.135 477.512 172.333V190.718C477.512 190.916 477.551 190.956 477.749 190.956H490.896C491.094 190.956 491.133 190.916 491.133 190.718V189.153C491.133 188.954 491.094 188.914 490.896 188.914H480.495C479.911 188.914 479.565 188.561 479.565 187.98V172.333C479.565 172.135 479.526 172.095 479.328 172.095H477.749Z" fill="#111111"/>
<path d="M559.395 191.125C559.727 191.125 559.935 190.991 560.053 190.708L566.99 174.942C567.06 174.783 567.173 174.564 567.381 174.564C567.589 174.564 567.703 174.783 567.772 174.942L574.684 190.703C574.803 190.991 575.011 191.125 575.342 191.125H576.921C577.059 191.125 577.129 191.095 577.148 191.071C577.163 191.046 577.168 190.966 577.114 190.837L568.821 172.343C568.702 172.05 568.494 171.916 568.163 171.916H566.585C566.253 171.916 566.045 172.05 565.927 172.334V172.338L557.649 190.842C557.599 190.966 557.599 191.046 557.614 191.071C557.629 191.095 557.698 191.125 557.842 191.125H559.395Z" fill="#111111"/>
<path d="M590.269 182.639L595.246 190.639C595.335 190.857 595.479 190.947 595.741 190.947H597.512C597.527 190.947 597.542 190.947 597.557 190.947C597.557 190.942 597.552 190.932 597.552 190.927L592.416 182.679L592.99 182.639C593.653 182.589 594.286 182.415 594.875 182.117C595.464 181.819 595.988 181.427 596.424 180.96C596.859 180.492 597.206 179.946 597.458 179.335C597.705 178.729 597.829 178.073 597.829 177.392C597.829 176.726 597.7 176.065 597.443 175.429C597.186 174.793 596.835 174.217 596.394 173.72C595.959 173.228 595.434 172.831 594.836 172.528C594.247 172.234 593.599 172.085 592.916 172.085H583.218C583.02 172.085 582.98 172.125 582.98 172.324V173.889C582.98 174.088 583.02 174.128 583.218 174.128H592.856C593.302 174.157 593.698 174.267 594.049 174.45C594.4 174.634 594.702 174.878 594.954 175.171C595.197 175.459 595.4 175.792 595.548 176.165C595.697 176.532 595.786 176.93 595.815 177.347V177.372V177.397C595.746 178.252 595.454 178.982 594.954 179.578C594.44 180.194 593.732 180.532 592.861 180.592H583.411C583.277 180.592 583.168 180.627 583.074 180.696C583.025 180.736 582.98 180.786 582.98 180.905V190.703C582.98 190.902 583.02 190.942 583.218 190.942H584.777C584.974 190.942 585.014 190.902 585.014 190.703V183.563C585.014 182.977 585.365 182.629 585.944 182.629H590.269V182.639Z" fill="#111111"/>
<path d="M552.26 180.965C552.695 180.497 553.042 179.951 553.294 179.34C553.541 178.734 553.665 178.078 553.665 177.397C553.665 176.731 553.536 176.07 553.279 175.434C553.022 174.798 552.67 174.222 552.23 173.725C551.795 173.233 551.27 172.836 550.671 172.533C550.078 172.239 549.435 172.09 548.752 172.09H539.054C538.856 172.09 538.816 172.13 538.816 172.329V173.894C538.816 174.093 538.856 174.133 539.054 174.133H548.692C549.138 174.162 549.533 174.272 549.885 174.456C550.236 174.639 550.538 174.883 550.79 175.176C551.033 175.464 551.236 175.797 551.384 176.17C551.532 176.537 551.621 176.935 551.651 177.352V177.377V177.402C551.582 178.257 551.29 178.987 550.79 179.583C550.276 180.199 549.568 180.537 548.697 180.597H539.247C539.113 180.597 539.004 180.632 538.91 180.701C538.861 180.741 538.816 180.791 538.816 180.91V190.708C538.816 190.907 538.856 190.947 539.054 190.947H540.612C540.81 190.947 540.85 190.907 540.85 190.708V183.568C540.85 182.982 541.201 182.634 541.78 182.634L548.826 182.654V182.634C549.489 182.584 550.122 182.41 550.711 182.112C551.3 181.819 551.824 181.432 552.26 180.965Z" fill="#111111"/>
<path d="M604.745 190.952H611.405C612.687 190.952 613.919 190.703 615.057 190.216C616.2 189.729 617.209 189.054 618.065 188.204C618.916 187.359 619.599 186.351 620.094 185.203C620.584 184.06 620.836 182.818 620.836 181.516C620.836 180.517 620.682 179.538 620.376 178.614C620.069 177.685 619.638 176.821 619.089 176.045C618.54 175.27 617.867 174.575 617.09 173.978C616.309 173.382 615.443 172.92 614.507 172.592C613.538 172.254 612.528 172.085 611.504 172.085H604.745C604.547 172.085 604.508 172.125 604.508 172.324V173.889C604.508 174.088 604.547 174.128 604.745 174.128H611.252C612.256 174.197 613.211 174.426 614.117 174.813C615.022 175.201 615.829 175.722 616.516 176.363C617.209 177.009 617.768 177.78 618.179 178.649C618.594 179.529 618.807 180.492 618.807 181.516C618.807 182.525 618.619 183.489 618.253 184.378C617.887 185.267 617.377 186.057 616.729 186.728C616.081 187.399 615.314 187.931 614.448 188.318C613.577 188.711 612.627 188.905 611.638 188.905H607.472C606.888 188.905 606.541 188.552 606.541 187.97V184.88C606.541 184.681 606.502 184.641 606.304 184.641H604.745C604.547 184.641 604.508 184.681 604.508 184.88V190.708C604.508 190.912 604.547 190.952 604.745 190.952Z" fill="#111111"/>
<path d="M385.902 190.305C386.832 190.723 387.836 190.936 388.885 190.936C390.048 190.936 391.033 190.802 391.815 190.539C392.591 190.276 393.239 189.948 393.744 189.555C394.239 189.168 394.62 188.755 394.877 188.328C395.149 187.871 395.357 187.434 395.491 187.031C395.624 186.634 395.704 186.301 395.723 186.042C395.748 185.774 395.763 185.615 395.763 185.56C395.763 184.79 395.649 184.119 395.422 183.578C395.189 183.021 394.897 182.549 394.556 182.167C394.219 181.794 393.838 181.491 393.428 181.277C392.967 181.044 392.522 180.85 392.101 180.711C391.681 180.572 391.3 180.477 390.973 180.428C390.637 180.378 390.39 180.343 390.241 180.323C390.206 180.318 390.177 180.313 390.137 180.308H390.132C389.583 180.204 389.078 180.11 388.623 180.035C388.089 179.941 387.619 179.797 387.233 179.608C386.787 179.389 386.431 179.071 386.174 178.669C385.912 178.256 385.783 177.73 385.783 177.064C385.783 176.095 386.204 175.3 386.995 174.768C387.713 174.286 388.687 174.043 389.9 174.043C390.469 174.063 390.993 174.122 391.478 174.217C391.933 174.326 392.364 174.485 392.784 174.699C392.977 174.798 393.16 174.912 393.324 175.047C393.408 175.111 393.556 175.101 393.67 175.022L394.818 174.172C394.937 174.088 394.951 173.968 394.956 173.904C394.956 173.839 394.942 173.715 394.818 173.621C394.363 173.263 393.848 172.955 393.294 172.706C392.354 172.279 391.344 172.065 390.3 172.065C389.133 172.065 388.143 172.19 387.356 172.438C386.575 172.686 385.922 172.994 385.417 173.352C384.927 173.705 384.546 174.088 384.284 174.5C384.007 174.937 383.804 175.345 383.68 175.712C383.557 176.085 383.482 176.398 383.458 176.637C383.433 176.875 383.418 177.029 383.418 177.079C383.418 177.74 383.522 178.321 383.73 178.798C383.942 179.295 384.21 179.717 384.526 180.065C384.843 180.413 385.204 180.706 385.595 180.929C386.025 181.173 386.441 181.372 386.832 181.521C387.223 181.67 387.574 181.779 387.881 181.839C388.188 181.903 388.41 181.943 388.549 181.963C388.584 181.968 388.618 181.973 388.663 181.983C389.212 182.087 389.746 182.201 390.246 182.316C390.805 182.445 391.305 182.634 391.745 182.867C392.23 183.126 392.621 183.473 392.913 183.901C393.22 184.353 393.373 184.914 393.373 185.58C393.373 186.509 392.987 187.314 392.23 187.985C391.498 188.631 390.498 188.954 389.256 188.954C388.603 188.954 388.024 188.874 387.535 188.72C387.06 188.571 386.664 188.397 386.342 188.209C386.124 188.079 385.941 187.955 385.788 187.826L384.398 188.86C384.279 188.944 384.264 189.063 384.259 189.128C384.259 189.192 384.274 189.317 384.398 189.406C384.848 189.759 385.358 190.062 385.902 190.305Z" fill="#111111"/>
<path d="M455.009 190.371C455.098 190.534 455.251 190.554 455.316 190.554C455.38 190.554 455.533 190.534 455.622 190.366L456.562 188.567C456.617 188.463 456.617 188.343 456.562 188.244L448.196 172.294C448.136 172.18 448.017 172.106 447.889 172.106H445.86C445.682 172.106 445.593 172.225 445.563 172.274C445.534 172.324 445.469 172.463 445.553 172.617L455.009 190.371Z" fill="#111111"/>
<path d="M453.372 172.106C453.194 172.106 453.105 172.225 453.075 172.274C453.045 172.324 452.981 172.458 453.065 172.617L462.184 190.351C462.273 190.525 462.422 190.544 462.491 190.539C462.555 190.539 462.709 190.52 462.798 190.356L472.213 172.622C472.297 172.463 472.233 172.329 472.203 172.279C472.174 172.23 472.085 172.111 471.907 172.111H469.883C469.848 172.111 469.814 172.115 469.789 172.125L462.506 186.564L455.692 172.26C455.628 172.17 455.524 172.115 455.415 172.115H453.372V172.106Z" fill="#111111"/>
<path d="M532.984 186.956C533.236 186.802 533.355 186.588 533.355 186.295V176.591C533.355 176.298 533.236 176.084 532.984 175.93L524.677 171.036C524.538 170.956 524.41 170.917 524.291 170.917C524.236 170.917 524.113 170.932 523.885 171.046L515.637 175.93C515.365 176.089 515.246 176.298 515.246 176.591V186.295C515.246 186.593 515.365 186.797 515.637 186.956L523.905 191.85C524.093 191.969 524.251 191.999 524.489 191.944C524.538 191.934 524.593 191.904 524.652 191.865L532.984 186.956ZM524.291 189.837C524.083 189.837 523.88 189.778 523.692 189.664L517.581 186.046C517.196 185.818 516.993 185.465 516.993 185.033V177.853C516.993 177.421 517.196 177.068 517.581 176.839L523.702 173.217C524.207 172.964 524.513 173.004 524.885 173.217L531.035 176.839C531.411 177.073 531.609 177.421 531.609 177.853V185.033C531.609 185.465 531.411 185.813 531.04 186.041L524.885 189.664C524.8 189.728 524.682 189.778 524.568 189.803C524.459 189.828 524.375 189.837 524.291 189.837Z" fill="#111111"/>
<path d="M497.433 171.832H509.021C509.214 171.832 509.368 171.991 509.368 172.18V173.343C509.368 173.537 509.209 173.691 509.021 173.691H497.433C497.24 173.691 497.087 173.532 497.087 173.343V172.18C497.082 171.986 497.24 171.832 497.433 171.832ZM497.428 180.498H507.294C507.487 180.498 507.641 180.652 507.641 180.846V182.008C507.641 182.202 507.487 182.356 507.294 182.356H497.428C497.235 182.356 497.082 182.202 497.082 182.008V180.846C497.082 180.657 497.24 180.498 497.428 180.498ZM497.433 189.114H509.026C509.219 189.114 509.373 189.273 509.373 189.461V190.624C509.373 190.818 509.214 190.972 509.026 190.972H497.433C497.24 190.972 497.087 190.813 497.087 190.624V189.461C497.082 189.273 497.24 189.114 497.433 189.114Z" fill="#111111"/>
</g>
<path d="M231.998 45.0804C230.351 42.5274 228.537 40.0771 226.568 37.7443C210.489 18.7277 189.467 10.6794 165.454 5.28844C140.65 -0.279385 111.609 -2.00947 87.7943 8.02694C82.1897 10.4166 76.8634 13.5709 72.65 17.8722C56.7156 34.0786 51.2502 61.22 33.5073 82.674C15.7644 104.128 7.10904 130.854 23.0384 156.222C29.7808 166.966 38.3765 175.817 48.5472 183.607C61.0681 193.165 71.8699 206.098 86.3435 213.578C101.552 221.435 121.809 224.173 138.643 220.574C157.847 216.469 169.111 200.143 183.768 189.031C195.325 180.257 209.153 174.512 220.476 165.46C237.826 151.6 250.983 129.3 248.797 107.206C246.651 85.7566 243.888 63.4662 231.998 45.0804Z" fill="#F9F8FE"/>
<path fill-rule="evenodd" clip-rule="evenodd" d="M30.4527 78.6861C18.6626 80.1395 9.00309 88.6221 6.09313 100.078C5.46511 102.55 5.28139 104.206 5.2541 107.636C5.22867 110.835 5.22638 110.858 4.82288 111.743C4.26123 112.975 3.26634 113.871 1.45771 114.774L0 115.502V118.435V121.367L3.8425 119.413C5.95595 118.339 10.3676 116.094 13.6463 114.425C16.925 112.757 28.0108 107.125 38.2814 101.91C48.552 96.6956 59.3792 91.1954 62.3419 89.6876L67.7286 86.946L67.7675 84.0659C67.7889 82.4818 67.7566 81.1863 67.6957 81.1871C67.6348 81.1878 54.7925 87.6871 39.1572 95.6296C23.522 103.572 10.6909 110.032 10.6437 109.985C10.5965 109.938 10.5579 108.57 10.5579 106.945C10.5579 104.392 10.6034 103.779 10.8923 102.435C12.4529 95.1778 17.0538 89.2542 23.6144 86.0557C30.0066 82.9393 37.4508 82.9057 44.0256 85.9638L45.4136 86.6093L48.0787 85.2815L50.7439 83.9537L50.0429 83.4511C44.8013 79.6926 37.229 77.8508 30.4527 78.6861ZM101.344 86.0579C95.6155 86.8459 91.2873 89.712 89.8426 93.6739C88.9583 96.0986 89.1483 99.259 90.3169 101.56C91.4778 103.845 93.7563 105.735 96.8355 106.966C98.3119 107.556 99.5491 107.887 103.065 108.634C107.941 109.67 109.925 110.336 111.577 111.492C113.37 112.745 114.1 114.132 114.099 116.286C114.098 119.473 112.236 121.605 108.519 122.676C107.495 122.971 107.088 123.005 104.645 122.995C101.549 122.984 100.496 122.784 98.5892 121.846C96.1591 120.651 94.2335 118.027 93.5917 115.035L93.5074 114.642H90.7073H87.9072L88.0005 115.25C88.3107 117.272 89.4116 119.97 90.6058 121.636C93.6512 125.884 99.0531 128.163 105.435 127.892C110.021 127.697 113.823 126.304 116.496 123.841C118.059 122.4 119.161 120.611 119.68 118.667C120.061 117.243 120.093 114.58 119.747 113.158C119.207 110.935 117.538 108.634 115.48 107.272C113.27 105.81 110.758 104.924 105.364 103.705C103.388 103.258 101.223 102.732 100.551 102.535C98.0276 101.794 96.3066 100.559 95.5535 98.9484C95.2235 98.2428 95.1696 97.9385 95.1673 96.77C95.1652 95.6039 95.2173 95.3005 95.5362 94.6254C96.2606 93.0922 98.1455 91.7564 100.48 91.1222C101.663 90.8008 104.59 90.6822 105.95 90.9007C109.722 91.5062 112.459 93.4787 113.55 96.3768L113.806 97.0559H116.516C119.6 97.0559 119.408 97.156 118.996 95.7594C117.814 91.7511 115.023 88.7199 111.114 87.1994C109.01 86.381 107.221 86.0468 104.573 85.9779C103.349 85.9459 101.896 85.9819 101.344 86.0579ZM169.357 106.921V127.224H171.871H174.385V106.921V86.6187H171.871H169.357V106.921ZM179.556 106.921V127.224H182.07H184.584V106.921V86.6187H182.07H179.556V106.921ZM125.932 89.5703C125.877 89.6245 125.833 91.3309 125.833 93.3625V97.0559H123.463H121.093V99.1291V101.202H123.453H125.813L125.871 111.818C125.921 120.885 125.963 122.573 126.158 123.384C126.465 124.66 126.853 125.376 127.572 125.988C128.681 126.933 130.19 127.217 134.132 127.221L136.758 127.224L136.718 125.115L136.678 123.006L134.498 122.934C132.578 122.872 132.269 122.827 131.912 122.564C131.046 121.925 131.08 122.361 131.036 111.321L130.997 101.208L133.837 101.169L136.678 101.131V99.1291V97.1274L133.844 97.0887L131.009 97.0499L130.971 93.2998L130.932 89.5497L128.482 89.5107C127.134 89.4893 125.986 89.5161 125.932 89.5703ZM33.9002 109.965L0.0718224 127.152L0.0328941 130.047C0.0114911 131.64 0.0353367 132.943 0.085756 132.943C0.136175 132.943 3.51485 131.245 7.59408 129.171C43.2317 111.048 57.07 104.057 57.1494 104.136C57.2006 104.187 57.2425 105.558 57.2425 107.183C57.2425 109.736 57.197 110.35 56.9081 111.693C55.3475 118.951 50.7466 124.874 44.186 128.073C37.7859 131.193 30.399 131.225 23.7613 128.16L22.3368 127.503L19.7035 128.844L17.0702 130.185L17.7643 130.682C19.6311 132.021 22.4424 133.402 24.9859 134.231C37.3362 138.256 50.7473 133.54 57.9272 122.648C61.1354 117.782 62.8889 111.362 62.5546 105.706C62.3594 102.401 63.1763 100.996 66.2082 99.4213L67.8004 98.5946V95.6807C67.8004 94.0779 67.7843 92.769 67.7645 92.7718C67.7447 92.7747 52.5058 100.511 33.9002 109.965ZM199.054 96.7004C193.677 97.7162 190.111 101.194 189.418 106.099L189.342 106.635H191.961H194.581L194.739 105.714C195.329 102.285 198.09 100.415 202.18 100.674C205.16 100.863 207.004 102.181 207.869 104.738C208.123 105.49 208.198 106.04 208.205 107.207L208.213 108.708L207.782 108.748C206.391 108.877 201.771 109.561 200.241 109.864C195.052 110.895 192.11 112.133 190.103 114.13C188.551 115.675 188.041 116.947 188.035 119.294C188.028 121.688 188.678 123.293 190.326 124.953C192.288 126.929 195.058 127.938 198.517 127.937C202.788 127.936 206.062 126.584 207.94 124.044L208.554 123.214L208.629 123.825C208.67 124.161 208.742 124.854 208.788 125.365C208.834 125.876 208.908 126.503 208.953 126.759L209.035 127.224H211.615C214.01 127.224 214.188 127.206 214.114 126.972C213.902 126.307 213.579 123.324 213.455 120.872C213.379 119.372 213.357 115.893 213.405 113.141C213.464 109.786 213.439 107.61 213.328 106.54C212.736 100.798 210.335 97.8859 205.331 96.8403C203.735 96.5066 200.466 96.4337 199.054 96.7004ZM149.75 96.7295C148.896 96.8478 147.016 97.3702 146.165 97.7258C141.683 99.5985 138.698 103.477 137.657 108.78C137.366 110.261 137.334 113.803 137.596 115.357C138.171 118.76 139.425 121.483 141.39 123.594C144.885 127.351 150.619 128.821 156.286 127.414C160.348 126.405 163.749 123.491 165.183 119.788C165.425 119.164 165.623 118.62 165.623 118.578C165.623 118.537 164.443 118.504 163.001 118.507L160.38 118.511L159.877 119.385C158.841 121.184 157.393 122.383 155.578 122.945C150.257 124.59 144.996 122.085 143.415 117.155C143.212 116.52 143.009 115.501 142.965 114.892L142.886 113.784H154.47H166.054V112.337C166.054 108.657 165.009 105.05 163.138 102.275C162.318 101.057 160.402 99.2309 159.226 98.5449C156.929 97.2048 154.665 96.619 151.904 96.6503C150.956 96.661 149.987 96.6966 149.75 96.7295ZM230.358 97.0628C229.137 97.2665 227.776 97.7456 226.835 98.3024C225.771 98.9319 224.334 100.389 223.685 101.499L223.23 102.275L223.227 99.6652L223.224 97.0559H220.782H218.34V112.14V127.224H220.846H223.351L223.409 117.895C223.457 110.148 223.504 108.414 223.686 107.674C224.256 105.361 225.028 104.088 226.391 103.211C227.614 102.424 228.369 102.273 231.017 102.284L233.279 102.293V99.6032V96.913L232.166 96.9298C231.554 96.939 230.74 96.9989 230.358 97.0628ZM154.381 101.289C156.413 101.816 158.528 103.514 159.557 105.448C160.06 106.392 160.595 108.233 160.595 109.017V109.495H151.744H142.894L142.996 108.678C143.526 104.457 146.313 101.638 150.54 101.049C151.546 100.908 153.348 101.021 154.381 101.289ZM208.673 114.892C208.577 117.246 208.392 118.083 207.627 119.626C206.351 122.197 203.837 123.633 200.189 123.876C197.233 124.073 194.907 123.026 194.015 121.097C193.778 120.585 193.708 120.154 193.707 119.217C193.705 118.148 193.753 117.921 194.099 117.335C195.352 115.214 198.682 113.962 205.412 113.082C206.558 112.933 207.779 112.804 208.126 112.797L208.758 112.783L208.673 114.892Z" fill="#111111"/>
<defs>
<clipPath id="clip0_493_249625">
<rect width="237.419" height="142.319" fill="white" transform="translate(383.418 49.7309)"/>
</clipPath>
</defs>
</svg>
