<svg width="1266" height="354" viewBox="0 0 1266 354" fill="none" xmlns="http://www.w3.org/2000/svg">
<path d="M956.642 225.21C955.447 223.353 954.131 221.57 952.703 219.873C941.04 206.041 925.792 200.186 908.374 196.265C890.382 192.215 869.317 190.956 852.043 198.257C847.977 199.995 844.114 202.29 841.058 205.418C829.5 217.207 825.535 236.95 812.665 252.555C799.795 268.161 793.517 287.601 805.072 306.054C809.962 313.869 816.197 320.307 823.575 325.974C832.657 332.927 840.492 342.334 850.99 347.774C862.022 353.49 876.716 355.482 888.926 352.864C902.856 349.878 911.026 338.002 921.658 329.92C930.041 323.537 940.071 319.358 948.285 312.774C960.87 302.692 970.413 286.471 968.827 270.4C967.271 254.797 965.267 238.583 956.642 225.21Z" fill="#F9F8FE"/>
<path fill-rule="evenodd" clip-rule="evenodd" d="M848.911 249.599C847.692 250.442 846.989 252.025 847.176 253.504C847.24 254.007 848.746 258.426 852.961 270.473L858.658 286.762L859.209 287.306C859.887 287.977 860.978 288.512 861.752 288.553C862.346 288.584 862.368 288.602 862.822 289.447C863.378 290.48 864.929 291.4 866.111 291.396C866.823 291.394 865.6 291.663 893.124 285.447C908.675 281.935 914.674 280.538 915.16 280.314C916.505 279.696 917.456 278.359 917.595 276.891C917.655 276.26 917.345 274.925 913.569 259.554C910.912 248.737 909.383 242.711 909.207 242.358C908.636 241.211 907.207 240.205 905.936 240.056C905.592 240.016 904.797 240.092 904.1 240.231C903.424 240.366 902.699 240.508 902.489 240.545L902.106 240.614L901.108 237.898C900.202 235.434 900.065 235.129 899.629 234.62C898.954 233.831 898.038 233.35 896.956 233.216L896.055 233.104L872.718 241.19C854.353 247.552 849.281 249.344 848.911 249.599ZM896.747 235.285C897.078 235.329 897.523 235.497 897.734 235.658C898.108 235.942 898.664 236.887 898.731 237.354C898.764 237.579 898.147 237.801 874.197 246.152L849.629 254.718L849.375 253.848C849.154 253.087 849.147 252.905 849.32 252.414C849.43 252.105 849.666 251.699 849.844 251.513C850.151 251.194 851.499 250.712 873.156 243.189L896.144 235.204L896.747 235.285ZM900.546 242.518L901.567 245.455L876.971 253.999L852.376 262.543L851.355 259.605L850.335 256.668L874.93 248.124L899.526 239.58L900.546 242.518ZM904.311 242.116C905.682 241.743 906.152 241.813 906.846 242.494L907.309 242.948L911.424 259.683C916.061 278.541 915.781 277.06 914.888 277.996L914.427 278.479L905.673 280.458C870.316 288.451 866.491 289.299 866.073 289.239C865.568 289.166 864.891 288.745 864.625 288.338L864.436 288.05L887.104 280.142L909.772 272.234L910.224 271.798C911.218 270.839 911.679 269.441 911.464 268.035C911.389 267.542 909.98 263.358 907.037 254.884C902.944 243.103 902.731 242.455 902.941 242.442C903.062 242.435 903.679 242.288 904.311 242.116ZM905.893 257.993C909.193 267.585 909.526 268.612 909.462 268.985C909.371 269.519 909.098 270.028 908.744 270.323C908.548 270.487 901.475 272.986 885.466 278.547C862.761 286.434 862.463 286.534 861.922 286.469C861.621 286.433 861.178 286.257 860.938 286.078L860.503 285.753L856.778 275.128L853.052 264.503L877.653 255.957L902.253 247.412L905.893 257.993ZM856.887 267.815C856.506 268.41 856.779 269.168 857.455 269.392C857.627 269.449 858.783 269.089 861.963 267.987C866.119 266.548 866.247 266.496 866.461 266.161C866.735 265.733 866.54 265.04 866.061 264.742L865.747 264.547L861.426 266.011C857.221 267.436 857.099 267.485 856.887 267.815ZM868.778 263.559C868.284 263.99 868.506 265.011 869.142 265.23C869.517 265.36 869.65 265.321 873.803 263.875C878.407 262.271 878.357 262.296 878.377 261.592C878.391 261.118 878.134 260.75 877.681 260.593C877.327 260.471 877.131 260.528 873.153 261.918C870.866 262.717 868.897 263.456 868.778 263.559ZM858.363 271.604C857.871 272.114 858.032 272.948 858.685 273.265C858.984 273.409 859.175 273.35 865.794 271.05L872.596 268.687L872.781 268.306C873.094 267.659 872.618 266.866 871.914 266.865C871.31 266.864 858.673 271.284 858.363 271.604ZM875.068 265.801C874.575 266.311 874.737 267.146 875.39 267.462C875.669 267.598 875.858 267.554 877.547 266.968C878.565 266.614 879.476 266.24 879.572 266.136C879.667 266.033 879.742 265.747 879.739 265.501C879.73 264.955 879.385 264.55 878.869 264.481C878.404 264.418 875.394 265.463 875.068 265.801ZM884.873 262.362C884.376 262.798 884.453 263.129 886.223 268.106L887.858 272.704L888.278 272.87L888.698 273.035L896.898 270.182C903.163 268.003 905.13 267.282 905.233 267.126C905.55 266.643 905.496 266.43 903.839 261.659L902.218 256.992L901.827 256.765L901.437 256.539L893.269 259.351C888.434 261.015 885.007 262.244 884.873 262.362ZM901.895 262.383L903.096 265.839L896.241 268.22L889.387 270.601L888.186 267.145L886.986 263.689L893.84 261.308L900.695 258.927L901.895 262.383Z" fill="#8A86B2"/>
<path d="M1255.31 27.8083C1254.28 26.205 1253.14 24.6662 1251.91 23.2012C1241.82 11.2587 1228.64 6.20434 1213.58 2.81878C1198.02 -0.677831 1179.8 -1.76433 1164.87 4.53858C1161.35 6.03927 1158.01 8.02018 1155.37 10.7214C1145.37 20.8991 1141.95 37.944 1130.82 51.4172C1119.69 64.8904 1114.26 81.6742 1124.25 97.6055C1128.48 104.353 1133.87 109.911 1140.25 114.803C1148.1 120.806 1154.88 128.928 1163.96 133.625C1173.5 138.559 1186.2 140.279 1196.76 138.019C1208.8 135.441 1215.87 125.188 1225.06 118.21C1232.31 112.699 1240.98 109.092 1248.09 103.407C1258.97 94.7032 1267.22 80.6987 1265.85 66.8233C1264.5 53.3531 1262.77 39.3546 1255.31 27.8083Z" fill="#F9F8FE"/>
<path fill-rule="evenodd" clip-rule="evenodd" d="M1185.61 20.4746C1184.05 20.3988 1182.18 21.1179 1181.11 22.2072C1179.98 23.3604 1180.39 22.1144 1173.16 46.3048C1165.93 70.4952 1166.27 69.2282 1166.59 70.8134C1166.91 72.4281 1168.17 74.0964 1169.64 74.8505C1170.59 75.3352 1220.72 90.3104 1221.77 90.4231C1223.43 90.6001 1225.25 89.9639 1226.47 88.7833C1227.67 87.6226 1227.32 88.6576 1233.7 67.1796L1239.48 47.7284L1239.43 46.9608C1239.28 44.7755 1237.97 42.7789 1236.07 41.8694C1235.6 41.6421 1229.6 39.7999 1219.49 36.7815C1208.72 33.563 1203.57 31.9771 1203.37 31.8229C1203.21 31.698 1202.36 30.2572 1201.48 28.621C1199.77 25.4471 1199.41 24.9688 1198.12 24.2226C1197.19 23.681 1186.66 20.525 1185.61 20.4746ZM1196.54 27.7376C1196.78 27.9309 1197.54 29.1894 1198.48 30.9495C1200.05 33.8566 1200.36 34.3167 1201.21 35.0013C1201.64 35.347 1202.8 35.7145 1218.19 40.3722C1236.65 45.9634 1235.11 45.4126 1235.54 46.5749L1235.74 47.1226L1235 49.7236L1234.27 52.3245L1233.75 51.983C1232.99 51.4737 1181.63 36.1293 1180.72 36.1356L1180.11 36.1398L1181.71 30.7848C1182.98 26.5088 1183.36 25.3605 1183.59 25.0868C1183.95 24.6521 1184.68 24.2755 1185.17 24.2729C1185.37 24.2719 1187.93 24.9794 1190.85 25.8453C1195.37 27.1837 1196.22 27.4674 1196.54 27.7376ZM1232.3 55.7297C1232.48 55.957 1232.65 56.3977 1232.69 56.7091C1232.77 57.2507 1232.59 57.8885 1228.56 71.3767C1225.68 81.0305 1224.28 85.5744 1224.12 85.7833C1223.78 86.2371 1222.96 86.6589 1222.44 86.6511C1221.81 86.6418 1171.69 71.6686 1171.15 71.3302C1170.71 71.0501 1170.26 70.2493 1170.22 69.6825C1170.21 69.4216 1171.53 64.8542 1174.42 55.2016C1178.45 41.7148 1178.65 41.0829 1179 40.6687C1179.35 40.2704 1179.91 39.9741 1180.41 39.9359C1180.52 39.9274 1192.17 43.3845 1206.3 47.6184L1231.99 55.3166L1232.3 55.7297Z" fill="#8A86B2"/>
<path d="M148.369 35.6068C147.244 34.3033 146.006 33.0524 144.662 31.8614C133.685 22.1527 119.334 18.0438 102.94 15.2915C86.0069 12.449 66.1806 11.5657 49.9226 16.6896C46.0964 17.9096 42.4602 19.52 39.5837 21.716C28.7055 29.9899 24.9743 43.8465 12.8614 54.7996C0.748497 65.7526 -5.1604 79.397 5.71441 92.3484C10.3174 97.8334 16.1856 102.352 23.129 106.329C31.6769 111.209 39.0512 117.812 48.9321 121.63C59.3151 125.642 73.1444 127.04 84.6366 125.203C97.7467 123.107 105.436 114.772 115.443 109.099C123.333 104.619 132.773 101.686 140.503 97.0648C152.348 89.9889 161.33 78.604 159.838 67.324C158.372 56.3734 156.486 44.9933 148.369 35.6068Z" fill="#F9F8FE"/>
<path opacity="0.6" fill-rule="evenodd" clip-rule="evenodd" d="M60.9839 33.6949C60.988 33.7729 65.3944 37.6836 71.2003 42.762C72.8905 44.2405 76.5827 47.4844 79.4051 49.9706L84.5368 54.4911L94.1193 44.0157C105.201 31.9008 105.596 31.466 105.633 31.3339C105.652 31.2681 98.1356 31.636 83.3204 32.4258C71.033 33.0809 60.9816 33.652 60.9839 33.6949ZM57.9199 36.7689C56.5771 38.2204 53.5556 41.4849 51.2055 44.0233C48.8555 46.5619 45.1891 50.5278 43.058 52.8368L39.1832 57.0349L43.9504 61.1932C46.5723 63.4804 48.9515 65.5486 49.2375 65.7895C49.5234 66.0303 51.9046 68.0999 54.5291 70.3885C57.1534 72.6773 60.0589 75.202 60.9858 75.9991L62.6709 77.4485L62.1189 66.6205C61.8153 60.6653 61.2957 50.9185 60.9642 44.9613L60.3615 34.1301L57.9199 36.7689ZM107.724 53.4773L108.889 75.3209L109.241 74.9435C109.435 74.7359 111.515 72.481 113.863 69.9325C116.212 67.384 118.135 65.2982 118.135 65.2982C118.24 65.257 130.014 52.3533 130.009 52.285C130.005 52.2285 128.865 51.1889 127.475 49.9749C126.086 48.761 121.073 44.3642 116.336 40.2044C111.598 36.0446 107.461 32.4145 107.141 32.1375L106.56 31.6337L107.724 53.4773ZM73.8645 66.2319C68.0697 72.5719 63.3313 77.7919 63.3347 77.8321C63.3424 77.9238 108.007 75.5485 108.002 75.4568C107.997 75.3648 84.5312 54.6623 84.4586 54.6858C84.4267 54.6962 79.6594 59.8919 73.8645 66.2319ZM76.4601 86.465C74.3659 87.0113 72.8965 88.1658 72.1337 89.8639C71.2508 91.8294 71.7089 94.2305 73.2524 95.7257C73.961 96.4123 75.419 97.2811 79.1781 99.257C79.6558 99.5081 80.1363 99.7631 80.2458 99.8238C80.3553 99.8845 80.7657 100.108 81.1576 100.322C82.5982 101.105 83.3067 101.885 83.6524 103.071C83.7878 103.534 83.7982 103.718 83.7131 104.143C83.3993 105.713 82.4877 106.625 80.7865 107.071C79.0764 107.52 76.8736 107.127 75.5877 106.145C74.9856 105.685 74.2814 104.799 73.9186 104.045C73.7556 103.706 73.5847 103.364 73.539 103.286C73.4932 103.208 73.3528 102.784 73.227 102.344C72.9989 101.546 72.9979 101.545 72.7004 101.59L72.4023 101.635L72.5674 105.219L72.7324 108.803L72.9788 108.85C73.2854 108.909 73.4307 108.816 73.4175 108.568C73.4057 108.346 73.571 107.989 73.7738 107.799C73.9596 107.624 74.9306 107.63 75.6614 107.81C77.6871 108.307 78.9314 108.482 80.0699 108.428C81.9377 108.338 83.4804 107.693 84.7894 106.454C85.2291 106.038 86.0342 104.907 86.0242 104.719C86.0224 104.684 86.0769 104.514 86.1455 104.341C86.3076 103.931 86.5124 102.698 86.4895 102.269C86.4351 101.25 85.7921 99.7373 85.0416 98.8639C84.4658 98.1938 82.9087 97.1356 81.7626 96.6355C81.5428 96.5396 81.3393 96.437 81.3105 96.4075C81.2816 96.378 80.8234 96.1677 80.2924 95.9402C79.7613 95.7128 78.8672 95.288 78.3054 94.9964C77.7436 94.7048 77.192 94.4187 77.0797 94.3605C76.9673 94.3023 76.8518 94.231 76.8229 94.2021C76.7941 94.1733 76.5402 94.0124 76.2588 93.8446C75.4534 93.3646 74.871 92.7911 74.5068 92.1193C74.2043 91.5613 74.1717 91.4291 74.1809 90.7963C74.196 89.7502 74.6485 88.9542 75.5943 88.3098C77.3231 87.1318 80.1212 87.4878 81.8773 89.1091C82.4326 89.6219 82.7183 90.0238 83.3095 91.1236C83.3881 91.2697 83.7081 92.3107 83.8865 93.0005C83.9705 93.3253 84.0292 93.3891 84.2571 93.4029L84.5279 93.4195L84.33 89.706L84.132 85.9926L83.8427 86.0081C83.5995 86.021 83.5453 86.0723 83.5019 86.3315C83.4735 86.5008 83.3343 86.7724 83.1926 86.9349C82.8293 87.3517 82.3866 87.3507 81.1575 86.9308C80.2064 86.6059 79.8486 86.5147 78.9377 86.3652C78.5375 86.2995 76.8308 86.3683 76.4601 86.465ZM119.441 84.1658C119.333 84.1961 119.003 84.2823 118.706 84.3572C117.894 84.563 116.968 84.9193 116.322 85.2748C115.732 85.5995 115.109 85.9975 115.025 86.1036C115 86.136 114.868 86.24 114.733 86.3348C114.032 86.8271 112.853 88.1673 112.266 89.1396C111.521 90.3713 110.705 92.6248 110.744 93.3431C110.752 93.502 110.718 93.6767 110.668 93.7313C110.532 93.8812 110.594 96.6518 110.754 97.5356C111.005 98.9208 111.55 100.461 112.092 101.312C112.451 101.877 112.95 102.597 113.019 102.649C113.052 102.674 113.267 102.901 113.497 103.153C115.557 105.419 118.201 106.419 121.61 106.22C122.528 106.167 122.784 106.13 123.582 105.941C124.322 105.766 125.97 105.093 125.963 104.969C125.961 104.927 126.018 104.891 126.09 104.887C126.162 104.883 126.532 104.644 126.912 104.355C127.788 103.689 128.88 102.498 129.327 101.719C129.419 101.559 129.516 101.405 129.544 101.376C129.648 101.27 130.093 100.468 130.089 100.395C130.082 100.267 129.653 100.074 129.592 100.172C129.314 100.622 128.366 101.806 127.845 102.356C126.098 104.196 125.241 104.591 122.722 104.721C121.121 104.803 120.181 104.71 119.452 104.397C118.68 104.066 118.472 103.965 117.999 103.691C117.717 103.528 117.309 103.244 117.092 103.06C116.622 102.662 115.756 101.625 115.572 101.241C115.534 101.162 115.411 100.927 115.3 100.717C115.188 100.508 115.006 100.033 114.896 99.6627C114.787 99.2919 114.637 98.8156 114.563 98.6043C114.381 98.0784 114.132 93.3823 114.259 92.8487C114.31 92.6307 114.408 92.12 114.475 91.7138C114.745 90.0921 115.564 88.2199 116.427 87.248C117.139 86.4469 117.724 86.0372 118.716 85.6457C119.449 85.3566 119.617 85.329 121.137 85.2474C122.938 85.1509 123.348 85.2147 124.593 85.7861C125.238 86.0821 126.841 87.4505 127.142 87.9617C127.232 88.1147 127.33 88.2607 127.359 88.286C127.475 88.3845 128.104 89.6002 128.359 90.2183C128.604 90.8113 128.65 90.8652 128.879 90.8265L129.13 90.7841L129.044 89.8103C128.997 89.2748 128.91 88.6631 128.85 88.4511C128.79 88.239 128.72 87.7145 128.694 87.2855C128.646 86.5002 128.423 84.8186 128.265 84.0555C128.194 83.7082 128.145 83.6462 127.952 83.6565C127.776 83.6658 127.699 83.7535 127.621 84.0354C127.513 84.4276 127.442 84.5469 127.09 84.9345C126.759 85.2989 126.332 85.2778 125.254 84.8436C123.49 84.1335 122.832 84.0128 121.025 84.0681C120.261 84.0915 119.549 84.1355 119.441 84.1658ZM46.7508 88.539C46.6842 88.5699 46.6338 88.6735 46.6389 88.7689C46.6465 88.9114 46.7597 88.9458 47.2698 88.961C48.0234 88.9834 48.9414 89.2572 49.2862 89.5626C49.4258 89.6861 49.6012 89.9556 49.6759 90.1613C49.775 90.4337 49.9314 92.778 50.2518 98.7867C50.7045 107.278 50.7087 107.613 50.3707 108.322C50.1939 108.694 49.7057 108.887 48.6853 108.99L47.7221 109.088L47.7366 109.358C47.7445 109.507 47.8077 109.645 47.877 109.664C47.9806 109.693 56.6346 109.222 56.8952 109.173C56.9394 109.165 56.955 109.038 56.9299 108.892C56.885 108.63 56.8696 108.625 56.0392 108.609C54.9598 108.588 54.4255 108.358 54.0467 107.749C53.855 107.441 53.8227 107.127 53.5901 103.298L53.3398 99.1781L58.3041 98.9134L63.2685 98.6487L63.4556 102.772L63.6428 106.895L63.4194 107.343C63.0952 107.992 62.7058 108.206 61.6354 108.322L60.7467 108.419L60.7622 108.711L60.7778 109.003L65.2649 108.767C67.7328 108.637 69.7965 108.5 69.8508 108.463C69.9052 108.426 69.929 108.292 69.9037 108.165C69.8598 107.943 69.8177 107.934 68.899 107.936C68.01 107.938 67.911 107.917 67.5432 107.655C66.7613 107.098 66.8196 107.548 66.3158 98.2112C65.9117 90.7224 65.8806 89.8388 66.0044 89.3868C66.2077 88.6445 66.6088 88.2594 67.4357 88.0125C67.8123 87.9001 68.2254 87.811 68.3537 87.8148C68.7825 87.8269 68.8482 87.7908 68.804 87.568L68.7606 87.3502L64.2049 87.5931L59.6493 87.8359L59.6293 88.0571C59.6116 88.2537 59.6519 88.276 59.9916 88.2579C60.9224 88.2083 62.0976 88.6321 62.5078 89.1655C62.7019 89.4178 62.7283 89.6687 62.9583 93.4559L63.2028 97.4783L58.2406 97.7428L53.2785 98.0074L53.1033 94.128C52.9441 90.6042 52.943 90.2123 53.0899 89.8511C53.3893 89.1155 54.0591 88.6955 55.1762 88.543C55.808 88.4568 55.8647 88.4309 55.8276 88.2452C55.7871 88.0423 55.7763 88.0424 51.3294 88.2623C48.8778 88.3835 46.8174 88.508 46.7508 88.539ZM87.9926 86.3394C87.9572 86.3781 87.9326 86.4903 87.9378 86.5887C87.9452 86.7268 88.0235 86.7635 88.2818 86.7497C88.4658 86.7399 88.935 86.7851 89.3246 86.8502C89.8739 86.9421 90.1161 87.0401 90.4029 87.2866C90.6109 87.4654 90.778 87.7007 90.7846 87.8242C90.791 87.9451 90.8549 88.0958 90.9266 88.1593C91.1248 88.3347 91.9989 104.892 91.8318 105.304C91.4833 106.164 91.4008 106.284 90.9886 106.527C90.641 106.732 90.4057 106.789 89.7815 106.822L89.0061 106.864L89.0541 107.179L89.102 107.495L94.2519 107.22C101.316 106.844 102.965 106.667 104.127 106.161C104.59 105.96 105.64 105.35 105.836 105.169C106.783 104.294 107.346 103.458 107.705 102.394C107.944 101.684 107.836 99.6721 107.522 98.9797C107.01 97.8507 106.172 97.0638 104.934 96.5505C103.985 96.1567 103.596 96.0317 103.246 96.0084C102.884 95.9842 102.877 95.7891 103.235 95.6986C104.336 95.4201 106.186 93.5572 106.144 92.7698C106.139 92.6693 106.187 92.5293 106.252 92.4586C106.335 92.3676 106.347 91.9189 106.294 90.9253C106.241 89.9315 106.181 89.4869 106.089 89.4053C106.018 89.3418 105.955 89.2219 105.95 89.1388C105.946 89.0556 105.83 88.7955 105.692 88.5607C105.075 87.505 104.039 86.7799 102.465 86.3014C101.305 85.9488 100.339 85.8176 98.821 85.8062C97.1766 85.7939 88.0817 86.2418 87.9926 86.3394ZM98.4591 86.8494C100.786 87.1186 102.516 88.3605 102.986 90.0991C103.502 92.0073 102.806 93.822 101.238 94.6543C100.218 95.1958 99.8592 95.297 97.9483 95.5823C97.3634 95.6697 95.3489 95.6388 94.7958 95.534L94.5701 95.4913L94.3527 91.4144L94.1354 87.3375L94.5999 87.2016C95.6917 86.8822 97.397 86.7265 98.4591 86.8494ZM99.1455 96.6869C99.6359 96.7395 100.282 96.8387 100.581 96.9074C103.103 97.4861 104.613 99.6065 104.25 102.06C103.91 104.364 101.746 105.75 98.3039 105.868C97.2482 105.904 95.4068 105.805 95.2156 105.702C95.1475 105.666 95.0316 104.148 94.8806 101.315L94.6497 96.9846L95.0179 96.9051C95.2205 96.8613 95.4522 96.8081 95.533 96.7866C95.9707 96.6709 98.3759 96.6044 99.1455 96.6869Z" fill="#1A1466"/>
<path d="M455.369 242.002C454.244 240.388 453.006 238.838 451.662 237.363C440.685 225.337 426.334 220.248 409.94 216.838C393.007 213.317 373.181 212.223 356.923 218.57C353.096 220.081 349.46 222.076 346.584 224.796C335.706 235.045 331.974 252.209 319.861 265.776C307.748 279.343 301.84 296.244 312.714 312.286C317.317 319.081 323.186 324.678 330.129 329.604C338.677 335.649 346.051 343.827 355.932 348.557C366.315 353.526 380.144 355.258 391.637 352.982C404.747 350.386 412.436 340.062 422.443 333.035C430.333 327.486 439.773 323.853 447.503 318.129C459.348 309.364 468.33 295.262 466.838 281.289C465.372 267.725 463.486 253.629 455.369 242.002Z" fill="#F9F8FE"/>
<path opacity="0.6" fill-rule="evenodd" clip-rule="evenodd" d="M362.938 264.65C358.599 264.351 353.999 265.791 350.611 268.509L349.574 269.342L351.547 269.806L353.519 270.271L354.37 269.739C357.652 267.69 362.486 267.115 365.947 268.361C369.101 269.497 371.618 271.35 373.302 273.775L373.862 274.582L375.81 274.996L377.758 275.41L377.653 275.023C377.596 274.811 376.935 273.705 376.184 272.566C374.256 269.639 372.338 267.942 369.163 266.354C367.605 265.575 364.662 264.769 362.938 264.65ZM381.901 273.163L380.9 273.501L378.497 284.812L376.094 296.123L377.071 296.282L378.047 296.441L378.253 295.392C378.366 294.815 378.504 294.352 378.56 294.364C378.615 294.376 378.876 294.727 379.139 295.144C379.806 296.201 380.665 297.001 381.729 297.553C383.908 298.685 386.645 298.116 388.423 296.162C389.768 294.684 390.398 293.397 391.091 290.711C391.983 287.255 391.84 284.655 390.647 282.674C389.732 281.153 388.145 280.248 386.211 280.147C384.943 280.08 383.662 280.427 382.35 281.19C381.752 281.538 381.228 281.815 381.185 281.806C381.142 281.796 381.523 279.786 382.032 277.337C382.542 274.889 382.946 272.872 382.931 272.856C382.915 272.839 382.452 272.977 381.901 273.163ZM431.581 283.751L430.795 284.027L428.347 295.358L425.898 306.688L426.827 306.885L427.756 307.083L428.268 304.672L428.78 302.262L430.915 300.287C432.089 299.201 433.07 298.342 433.093 298.378C433.142 298.453 435.005 306.271 435.329 307.761L435.542 308.737L436.587 308.959L437.632 309.181L436.851 305.979C436.422 304.218 435.764 301.518 435.39 299.98C435.015 298.442 434.726 297.102 434.747 297.002C434.785 296.824 436.225 295.474 438.841 293.164L440.172 291.989L439.312 291.757C438.839 291.63 438.359 291.54 438.246 291.558C438.068 291.586 436.737 292.805 432.556 296.767C432.057 297.24 431.357 297.899 431.002 298.23C430.646 298.562 430.193 299.031 429.996 299.272C429.799 299.513 429.57 299.695 429.487 299.678C429.391 299.657 429.959 296.715 431.048 291.589C432.396 285.24 432.718 283.526 432.563 283.503C432.456 283.488 432.014 283.599 431.581 283.751ZM363.4 270.849L361.634 271.359L361.259 273.124L360.884 274.89L359.367 274.614L357.849 274.338L357.537 275.81L357.224 277.282L358.677 277.672L360.13 278.061L359.006 283.733C357.74 290.119 357.741 290.079 358.683 291.566C359.566 292.96 361.628 293.69 363.542 293.287C364.174 293.154 364.293 293.055 364.661 292.359C365.421 290.922 365.713 290.307 365.668 290.238C365.643 290.2 365.173 290.251 364.623 290.352C364.046 290.458 363.305 290.47 362.875 290.38C362.252 290.251 362.068 290.134 361.77 289.674L361.412 289.123L362.55 283.97L363.687 278.817L365.239 279.119C366.093 279.285 366.88 279.434 366.987 279.45C367.13 279.471 367.273 279.059 367.513 277.929L367.842 276.38L366.063 276.002L364.284 275.624L364.844 272.99C365.152 271.542 365.35 270.352 365.284 270.348C365.219 270.343 364.37 270.568 363.4 270.849ZM341.415 270.606C336.769 270.356 333.118 273.209 332.131 277.862C331.687 279.956 331.869 281.934 332.665 283.649C333.682 285.842 335.373 287.311 338.088 288.358C339.434 288.878 341.335 288.962 342.864 288.571C343.946 288.293 345.792 287.348 345.854 287.039C345.894 286.838 344.69 284.527 344.478 284.4C344.404 284.355 344.153 284.437 343.919 284.582C341.207 286.256 337.531 285.305 336.054 282.546C335.045 280.661 335.381 277.718 336.805 275.964C337.436 275.187 338.681 274.39 339.664 274.133C340.063 274.03 340.826 273.977 341.361 274.016C343.052 274.14 344.365 274.858 345.524 276.294C345.828 276.671 346.143 276.929 346.222 276.868C347.889 275.591 348.374 275.186 348.403 275.052C348.449 274.837 347.479 273.477 346.829 272.846C345.556 271.608 343.389 270.712 341.415 270.606ZM401.127 283.293C399.517 283.144 396.908 283.37 396.846 283.664C396.833 283.723 396.903 284.1 397.001 284.501C397.139 285.065 397.244 285.218 397.464 285.174C399.202 284.829 400.04 284.794 401.409 285.011C403.19 285.294 403.967 285.658 404.596 286.503C405.333 287.491 405.428 288.348 405.047 290.559C404.682 292.675 404.689 292.667 403.83 291.971C403.542 291.737 402.75 291.304 402.069 291.009C399.153 289.743 395.812 290.08 394.152 291.809C392.381 293.652 392.145 297.359 393.684 299.145C394.321 299.885 395.9 300.802 396.896 301.011C398.439 301.334 400.491 300.922 402.029 299.981C402.559 299.658 403.037 299.402 403.093 299.414C403.148 299.426 403.083 299.959 402.947 300.598L402.7 301.76L403.634 301.958L404.568 302.157L405.996 295.214C407.411 288.337 407.423 288.262 407.235 287.403C406.863 285.699 405.729 284.549 403.728 283.844C402.509 283.414 402.569 283.427 401.127 283.293ZM418.584 287.003C417.079 286.937 415.605 287.479 414.555 288.485C414.288 288.742 414.017 288.941 413.953 288.928C413.889 288.915 413.955 288.346 414.1 287.665L414.363 286.425L413.435 286.228L412.507 286.031L410.697 294.553L408.887 303.074L409.815 303.271L410.743 303.468L411.906 297.993C412.949 293.081 413.126 292.403 413.619 291.406C414.253 290.124 414.948 289.348 415.84 288.924C416.574 288.576 417.771 288.445 418.602 288.621C421.087 289.149 422.222 290.819 422.034 293.669C421.994 294.269 421.456 297.148 420.838 300.067L419.713 305.374L420.641 305.571L421.569 305.768L422.835 299.813C424.214 293.318 424.306 292.474 423.815 290.816C423.18 288.668 421.044 287.111 418.584 287.003ZM351.225 272.953C351.153 273 350.282 276.861 349.289 281.534L347.484 290.029L349.264 290.408L351.044 290.786L352.823 282.217L354.601 273.648L352.979 273.258C352.086 273.043 351.297 272.906 351.225 272.953ZM369.727 285.768L367.9 294.367L369.601 294.728L371.303 295.09L373.13 286.491L374.956 277.892L373.255 277.53L371.554 277.169L369.727 285.768ZM387.29 282.142C389.518 283.14 390.264 286.509 389.169 290.627C388.157 294.428 386.607 296.303 384.37 296.427C383.416 296.48 382.008 296.013 381.076 295.334C380.169 294.674 379.1 293.243 378.964 292.509C378.898 292.152 379.143 290.823 379.855 287.667L380.835 283.317L381.911 282.67C383.887 281.483 385.471 281.328 387.29 282.142ZM402.075 292.56C402.508 292.742 403.198 293.139 403.606 293.443L404.349 293.996L403.934 295.951L403.519 297.906L402.491 298.575C401.848 298.994 401.034 299.344 400.312 299.513C399.291 299.751 399.002 299.749 397.767 299.492C396.514 299.23 396.309 299.142 395.728 298.61C394.893 297.845 394.561 296.968 394.627 295.699C394.749 293.351 396.026 291.876 398.064 291.731C398.807 291.678 401.102 292.152 402.075 292.56Z" fill="#1A1466"/>
<path d="M727.011 321.309C736.592 303.192 737.247 279.051 730.624 259.698C724.929 243.037 712.253 230.322 697.615 222.757C680.63 213.979 660.387 211.366 642.148 216.907C637.356 218.364 632.686 219.7 628.166 222.095C609.635 231.911 613.221 256.099 606.711 264.514C601.239 271.594 590.781 269.507 584.186 274.931C566.409 289.578 576.7 327.304 595.781 340.845C617.997 356.611 703.283 366.171 727.011 321.309Z" fill="#F9F8FE"/>
<path opacity="0.6" d="M638.375 291.613L634.644 291.962C635.086 291.486 635.074 289.925 634.988 287.111L634.97 286.462L634.803 282.787C634.735 282.056 634.603 281.591 634.367 281.439L638.537 281.049C639.546 280.955 641.526 280.812 641.715 282.836C641.844 284.213 640.639 285.151 639.49 285.562C641.17 285.535 642.484 286.237 642.641 287.916C642.853 289.719 641.235 291.346 638.382 291.613L638.375 291.613ZM637.775 286.548L637.029 286.618L637.043 288.18L637.136 290.126C637.144 290.212 637.472 290.398 638.172 290.333C639.665 290.193 640.563 289.372 640.45 288.166C640.368 286.828 639.136 286.43 637.775 286.557L637.775 286.548ZM637.697 282.398C637.477 282.418 637.214 282.443 636.955 282.509C636.892 283.253 636.912 283.946 636.944 284.767L636.958 285.374L637.221 285.349C638.582 285.222 639.766 284.634 639.654 283.429C639.632 282.736 638.97 282.278 637.698 282.397L637.697 282.398ZM651.727 290.462C650.804 290.548 650.715 290.514 649.782 288.125L649.434 287.245C649.015 287.501 648.234 287.662 647.004 287.777L645.722 287.896L645.547 288.39C645.371 288.884 644.937 289.924 644.994 290.526C645.005 290.685 645.034 290.843 645.081 290.995L642.535 291.233C643.173 290.479 643.982 288.711 645.006 285.932L645.608 284.312L646.711 280.952C646.691 280.737 646.632 280.569 646.523 280.361L648.849 280.144L650.377 284.168L650.969 285.762C652.021 288.487 652.671 289.77 653.335 290.23L651.719 290.468L651.727 290.462ZM647.626 282.689L646.212 286.511L649.022 286.248L647.626 282.689ZM661.849 289.868C661.058 289.942 660.871 289.829 660.576 289.51L657.169 285.746C656.918 285.432 656.677 285.228 656.326 285.26L656.283 285.264L656.317 286.086L656.427 288.681C656.491 289.369 656.619 289.792 656.855 289.942L653.949 290.214C654.357 289.838 654.375 288.61 654.337 285.358L654.319 284.709L654.153 281.035C654.084 280.304 653.952 279.839 653.716 279.686L657.623 279.321C658.939 279.198 660.672 279.253 660.861 281.275C661.018 282.953 659.961 283.964 658.596 284.526C658.8 284.7 658.995 284.885 659.179 285.08L661.591 287.677C663.117 289.314 663.212 289.385 663.716 289.563C663.101 289.705 662.477 289.807 661.848 289.867L661.849 289.868ZM657.088 280.631C656.825 280.656 656.517 280.685 656.258 280.751C656.21 281.19 656.239 281.968 656.268 283.225L656.293 283.96C656.429 283.99 656.639 283.97 656.78 283.957C658.096 283.834 658.943 282.93 658.834 281.768C658.715 280.954 658.098 280.535 657.09 280.63L657.088 280.631ZM667.499 289.108C664.734 289.366 662.944 287.277 662.715 284.822C662.394 281.387 664.071 278.487 667.715 278.146C668.857 278.04 669.403 278.206 670.369 278.115L670.355 280.808C669.74 279.911 668.805 279.39 667.664 279.497C665.382 279.71 664.684 282.207 664.877 284.272C665.086 286.509 666.519 287.634 668.188 287.478C669.111 287.392 669.924 287.099 671.196 286.025C670.778 287.713 669.606 288.908 667.499 289.105L667.499 289.108ZM686.275 287.22C685.352 287.306 685.305 287.268 684.329 284.883L683.982 284.003C683.563 284.259 682.781 284.419 681.551 284.534L680.235 284.657L680.06 285.151C679.782 285.872 679.455 286.727 679.507 287.287C679.519 287.416 679.578 287.585 679.594 287.756L672.044 288.462C672.439 287.948 672.426 286.386 672.388 283.611L672.37 282.962L672.203 279.288C672.139 278.599 672.007 278.134 671.811 277.935L674.753 277.66C674.342 278.003 674.367 279.693 674.453 282.507L674.471 283.156L674.541 286.275C674.585 286.748 674.773 286.862 675.3 286.812C677.1 286.644 677.49 286.565 678.276 285.97C678.718 285.016 679.141 283.849 679.602 282.634L680.203 281.014L681.306 277.655C681.286 277.44 681.228 277.272 681.118 277.064L683.436 276.847L684.964 280.871L685.556 282.465C686.608 285.19 687.224 286.476 687.966 286.929C687.405 287.055 686.838 287.152 686.267 287.218L686.275 287.22ZM682.174 279.439L680.804 283.257L683.57 282.999L682.174 279.439ZM692.404 280.87L691.787 282.317C691.684 283.109 691.736 284.145 691.841 285.264C691.885 285.738 692.033 286.376 692.273 286.569L689.368 286.841C689.85 286.319 689.756 283.418 689.668 282.472C689.152 281.218 688.503 279.976 687.57 278.501C686.955 277.604 686.3 276.761 685.888 276.618L687.76 276.356C688.462 276.291 688.691 276.356 689.217 277.262L691.04 280.651L692.642 277.506C692.75 277.236 692.893 276.874 692.865 276.573C692.845 276.357 692.774 276.061 692.677 275.982L695.531 275.715C694.928 275.902 692.829 279.962 692.383 280.871L692.404 280.87ZM701.818 277.602C701.306 276.868 700.284 276.356 699.231 276.454C698.308 276.541 697.55 276.95 697.64 277.905C697.716 278.722 698.773 279.144 699.892 279.734C701.098 280.316 702.363 281.067 702.503 282.572C702.684 284.509 700.87 285.937 698.588 286.15C697.665 286.236 696.692 286.154 695.551 285.869L695.484 283.271C696.107 284.255 697.15 284.974 698.598 284.839C699.695 284.736 700.526 284.138 700.437 283.191C700.365 282.416 699.658 281.962 698.779 281.566C696.926 280.697 695.753 279.989 695.611 278.475C695.402 276.238 697.214 275.33 699.241 275.141C700.382 275.034 701.141 275.181 701.85 275.114L701.818 277.602Z" fill="#1A1466"/>
<path opacity="0.6" d="M629.266 280.006C628.982 279.492 628.535 278.917 627.79 278.524C627.456 278.324 627.044 278.131 626.64 278.015C626.321 277.96 626.002 277.92 625.612 277.956L625.526 277.964C625.058 278.008 624.208 278.172 623.803 278.897C623.59 279.148 623.556 279.615 623.669 279.989C623.783 280.287 624.038 280.572 624.357 280.62C624.428 280.667 624.514 280.686 624.599 280.674C624.606 280.758 624.535 280.912 624.535 280.912C624.322 281.163 623.968 281.581 622.797 281.691L622.712 281.699C622.08 281.673 621.598 281.571 620.831 280.948C620.398 280.526 620.086 279.706 619.964 278.406C619.9 277.717 619.764 277.191 619.573 276.752C619.459 276.455 619.126 276.177 618.878 276.046C618.63 275.914 618.466 275.853 618.062 275.736L616.721 275.707C616.253 275.75 615.949 275.863 615.813 276.1L615.345 276.144C615.111 276.166 614.806 276.279 614.573 276.3C614.112 276.428 613.821 276.679 613.531 276.939C613.453 277.03 613.176 277.358 613.127 277.671C613.148 277.901 613.255 278.122 613.262 278.199L613.356 278.275C613.498 278.107 613.803 278.002 614.192 277.965C614.739 277.914 615.54 278.071 615.732 278.438C616.18 279.014 616.066 279.487 616.116 280.023C616.018 281.498 615.536 282.238 614.38 282.501C614.154 282.606 613.919 282.628 613.764 282.643C612.906 282.723 612.26 282.552 611.898 282.046L611.883 281.892C611.883 281.892 611.969 281.884 612.032 281.794C612.33 281.611 612.543 281.36 612.592 281.047C612.641 280.656 612.52 280.282 612.257 279.998C611.746 279.583 611.094 279.335 610.391 279.401C609.923 279.445 609.619 279.558 609.313 279.656C608.398 279.973 607.612 280.818 607.102 282.101C606.72 283.063 606.508 284.163 606.545 285.394C606.581 286.625 606.667 287.621 606.838 288.53C607.066 290.052 607.457 290.942 607.939 291.892C608.421 292.843 608.973 293.725 609.598 294.518C609.776 294.732 609.875 294.955 610.046 295.093L610.124 295.001C610.201 294.909 610.266 294.833 610.329 294.673C610.62 294.414 611.094 293.598 611.229 293.355C611.364 293.112 611.563 292.707 611.683 292.31L611.754 292.148L611.919 292.217C612.089 292.356 612.189 292.578 612.21 292.807C612.231 293.036 612.167 293.274 612.062 293.747C611.955 294.298 611.701 294.939 611.446 295.58C611.539 295.655 611.553 295.801 611.467 295.809C611.269 296.214 611.283 296.367 611.297 296.52L611.383 296.512C611.468 296.504 611.766 296.391 611.978 296.148C612.198 295.972 612.772 295.379 613.452 294.235C614.004 293.412 614.316 292.534 614.699 291.572L614.77 291.411L614.934 291.48C615.027 291.556 615.098 291.549 615.182 291.611C615.282 291.757 615.304 291.986 615.325 292.215C615.297 292.835 614.993 293.712 614.816 294.346C614.448 295.46 613.697 296.688 613.151 297.588C613.138 297.643 613.113 297.695 613.076 297.739C613.039 297.783 612.991 297.817 612.938 297.839C613.031 297.915 613.109 297.978 613.271 298.04L613.527 298.247C614.411 298.844 615.355 299.35 616.344 299.759C617.167 300.145 618.8 300.763 619.92 300.968C620.991 300.636 622.472 299.649 623.21 299.117C624.106 298.532 624.94 297.859 625.698 297.11L625.911 296.858C626.059 296.76 626.123 296.607 626.201 296.6C626.272 296.438 626.265 296.362 626.258 296.286L626.165 296.21C625.469 295.503 624.496 294.36 623.928 293.333C623.636 292.743 623.168 291.937 623.032 291.333C622.925 291.112 622.989 290.874 623.06 290.714L623.202 290.546C623.28 290.454 623.429 290.44 623.429 290.44L623.529 290.585C624.083 291.46 624.63 292.257 625.247 292.971C626.128 293.969 626.801 294.446 627.05 294.577C627.305 294.785 627.547 294.839 627.702 294.825L627.788 294.817C627.865 294.725 627.766 294.587 627.496 294.227C627.403 294.151 627.397 294.082 627.39 294.005C627.02 293.423 626.651 292.841 626.445 292.319C626.246 291.874 626.139 291.576 626.125 291.423C626.103 291.193 626.167 290.956 626.302 290.789L626.45 290.691L626.55 290.836C626.742 291.204 627.097 291.633 627.274 291.848C627.451 292.063 628.14 292.694 628.318 292.909C628.489 293.047 628.574 293.116 628.581 293.193L628.674 293.268C628.752 293.177 628.809 293.024 628.936 292.703L629.013 292.611C629.41 291.803 629.786 290.764 630.082 289.733C630.387 288.779 630.527 287.762 630.541 286.225C630.541 285.299 630.519 284.298 630.248 283.089C630.226 281.934 629.8 280.816 629.331 280.012L629.266 280.006Z" fill="url(#paint0_radial_1046_250885)"/>
<path d="M248.948 255.584C235.154 270.83 211.222 263.536 203.269 253.256C185.37 230.115 190.706 209.027 180.611 203.268C168.296 196.266 152.096 228.32 132.183 225.659C119.168 223.921 111.895 213.133 112.309 190.401C112.897 158.717 122.823 135.16 134.404 127.048C158.047 110.493 192.312 118.364 210.675 123.422C225.841 127.594 249.216 125.681 265.703 158.899C275.437 178.509 275.551 226.187 248.948 255.584Z" fill="#F9F8FE"/>
<path d="M171.951 174.087C171.951 174.087 186.711 189.89 193.426 202.598L214.642 190.944C214.642 190.944 199.222 155.736 189.223 157.148L171.951 174.087Z" stroke="#8A86B2" stroke-width="1.5" stroke-linejoin="round"/>
<path d="M206.298 187.708C206.033 188.236 205.952 188.839 206.068 189.426C206.183 190.013 206.488 190.551 206.937 190.959L197.491 196.202C197.152 195.835 196.755 195.524 196.317 195.28C195.801 194.955 195.216 194.756 194.611 194.701C194.007 194.646 193.401 194.736 192.847 194.964C187.083 183.457 174.652 172.254 174.652 172.254L183.594 162.969C183.594 162.969 186.495 156.757 193.333 162.539C198.62 167.017 205.737 180.547 208.688 186.446C208.206 186.422 207.729 186.526 207.309 186.749C206.888 186.971 206.539 187.302 206.298 187.708ZM191.614 168.996C188.675 166.362 184.914 165.73 183.233 167.567C181.551 169.403 182.566 173.046 185.508 175.67C188.449 178.294 192.208 178.936 193.902 177.092C195.597 175.248 194.598 171.631 191.646 169.004L191.614 168.996Z" stroke="#8A86B2" stroke-width="1.5" stroke-miterlimit="10"/>
<path d="M164.756 180.705L190.253 163.9C190.253 163.9 187.278 159.443 189.148 157.13L164.681 173.107C164.681 173.107 161.16 175.884 164.756 180.705Z" stroke="#8A86B2" stroke-width="1.5" stroke-linejoin="round"/>
<path d="M166.888 171.7L185.72 159.395C185.626 160.447 185.919 161.506 186.546 162.38L166.845 174.015L166.888 171.7Z" stroke="#8A86B2" stroke-width="1.5" stroke-miterlimit="10"/>
<path d="M1121.49 161.207C1120.67 159.926 1119.77 158.697 1118.78 157.528C1110.76 147.991 1100.26 143.955 1088.27 141.251C1075.89 138.459 1061.39 137.591 1049.51 142.624C1046.71 143.823 1044.05 145.405 1041.95 147.562C1033.99 155.689 1031.26 169.301 1022.4 180.06C1013.55 190.819 1009.23 204.222 1017.18 216.944C1020.54 222.332 1024.84 226.771 1029.91 230.678C1036.16 235.471 1041.56 241.957 1048.78 245.708C1056.37 249.648 1066.49 251.022 1074.89 249.217C1084.48 247.158 1090.1 238.97 1097.42 233.398C1103.19 228.997 1110.09 226.116 1115.74 221.577C1124.4 214.626 1130.97 203.443 1129.88 192.362C1128.81 181.606 1127.43 170.427 1121.49 161.207Z" fill="#F9F8FE"/>
<path d="M1077.29 161.874L1090.24 211.595L1064.83 218.126L1051.32 167.467L1077.29 161.874Z" stroke="#8A86B2" stroke-width="1.5" stroke-miterlimit="10"/>
<path d="M1069.16 211.881C1068.45 210.255 1066.83 209.426 1065.49 210.062C1065.37 210.135 1065.26 210.217 1065.15 210.307L1055.16 172.501C1055.44 172.651 1055.75 172.734 1056.07 172.745C1056.39 172.757 1056.7 172.696 1056.99 172.566C1057.4 172.338 1057.74 171.99 1057.96 171.567C1058.18 171.144 1058.27 170.662 1058.23 170.182L1073.8 166.774C1073.85 167.121 1073.95 167.459 1074.09 167.778C1074.29 168.352 1074.68 168.842 1075.19 169.17C1075.7 169.497 1076.3 169.644 1076.89 169.585L1086.24 204.588C1085.83 204.525 1085.41 204.582 1085.04 204.753C1084.45 205.094 1084 205.64 1083.77 206.293C1083.54 206.946 1083.55 207.663 1083.8 208.316L1069.26 212.037L1069.16 211.881ZM1074.15 196.644C1076.8 195.403 1077.83 191.621 1076.37 188.238C1074.91 184.854 1071.53 183.168 1068.88 184.409C1066.22 185.65 1065.21 189.426 1066.65 192.815C1068.1 196.205 1071.46 197.908 1074.15 196.644V196.644Z" stroke="#8A86B2" stroke-width="1.5" stroke-miterlimit="10"/>
<defs>
<radialGradient id="paint0_radial_1046_250885" cx="0" cy="0" r="1" gradientUnits="userSpaceOnUse" gradientTransform="translate(606.783 281.085) rotate(-5.34053) scale(26.4694 25.9503)">
<stop stop-color="#20C4F4"/>
<stop offset="0.305" stop-color="#09B4F0"/>
<stop offset="0.5" stop-color="#00AEEF"/>
<stop offset="0.8" stop-color="#0092C8"/>
<stop offset="1" stop-color="#1A1466"/>
</radialGradient>
</defs>
</svg>
