<svg width="466" height="409" viewBox="0 0 466 409" fill="none" xmlns="http://www.w3.org/2000/svg">
<rect x="0.5" y="0.5" width="335" height="408" rx="11.5" fill="white" stroke="#111111"/>
<path d="M24.864 34.792C24.864 33.32 25.12 32 25.632 30.832C26.16 29.648 26.848 28.704 27.696 28C28.56 27.296 29.52 26.768 30.576 26.416C31.632 26.048 32.736 25.864 33.888 25.864C35.648 25.864 37.248 26.224 38.688 26.944V30.376C37.552 29.496 36.152 29.056 34.488 29.056C32.856 29.056 31.456 29.544 30.288 30.52C29.136 31.48 28.56 32.904 28.56 34.792C28.56 35.688 28.728 36.488 29.064 37.192C29.4 37.88 29.848 38.432 30.408 38.848C30.984 39.264 31.616 39.584 32.304 39.808C33.008 40.016 33.736 40.12 34.488 40.12C36.344 40.12 37.784 39.656 38.808 38.728V42.256C37.32 42.976 35.696 43.336 33.936 43.336C32.784 43.336 31.68 43.16 30.624 42.808C29.568 42.456 28.6 41.944 27.72 41.272C26.856 40.6 26.16 39.704 25.632 38.584C25.12 37.464 24.864 36.2 24.864 34.792ZM41.1671 25.48H44.5031V43H41.1671V25.48ZM57.6729 40.024C57.6729 40.536 57.9449 40.792 58.4889 40.792C58.7129 40.792 58.9209 40.76 59.1129 40.696V42.88C58.5049 43.104 57.8889 43.216 57.2649 43.216C56.0489 43.216 55.2009 42.784 54.7209 41.92C53.5209 42.864 52.1369 43.336 50.5689 43.336C49.4329 43.336 48.4729 43.024 47.6889 42.4C46.9209 41.76 46.5369 40.896 46.5369 39.808C46.5369 38.896 46.8089 38.136 47.3529 37.528C47.8969 36.92 48.5289 36.512 49.2489 36.304C49.9689 36.08 50.7529 35.968 51.6009 35.968C52.5449 35.968 53.4569 36.072 54.3369 36.28V35.872C54.3369 35.28 54.1049 34.808 53.6409 34.456C53.1769 34.104 52.5049 33.928 51.6249 33.928C50.3449 33.928 48.9849 34.216 47.5449 34.792V31.912C49.0809 31.4 50.5689 31.144 52.0089 31.144C55.7849 31.144 57.6729 32.88 57.6729 36.352V40.024ZM52.3689 37.96C51.6809 37.96 51.1049 38.088 50.6409 38.344C50.1769 38.6 49.9449 39 49.9449 39.544C49.9449 39.96 50.1129 40.304 50.4489 40.576C50.8009 40.832 51.2329 40.96 51.7449 40.96C52.7529 40.96 53.6169 40.648 54.3369 40.024V38.224C53.6009 38.048 52.9449 37.96 52.3689 37.96ZM63.6414 33.208C64.0734 32.536 64.6974 32.016 65.5134 31.648C66.3294 31.28 67.2574 31.144 68.2974 31.24V34.48C67.3854 34.32 66.5294 34.4 65.7294 34.72C64.9454 35.04 64.3774 35.544 64.0254 36.232V43H60.6894V31.48H63.6414V33.208ZM80.2198 40.024C80.2198 40.536 80.4918 40.792 81.0358 40.792C81.2598 40.792 81.4678 40.76 81.6598 40.696V42.88C81.0518 43.104 80.4358 43.216 79.8118 43.216C78.5958 43.216 77.7478 42.784 77.2678 41.92C76.0678 42.864 74.6838 43.336 73.1158 43.336C71.9798 43.336 71.0198 43.024 70.2358 42.4C69.4678 41.76 69.0838 40.896 69.0838 39.808C69.0838 38.896 69.3558 38.136 69.8998 37.528C70.4438 36.92 71.0758 36.512 71.7958 36.304C72.5158 36.08 73.2998 35.968 74.1478 35.968C75.0918 35.968 76.0038 36.072 76.8838 36.28V35.872C76.8838 35.28 76.6518 34.808 76.1878 34.456C75.7238 34.104 75.0518 33.928 74.1718 33.928C72.8918 33.928 71.5318 34.216 70.0918 34.792V31.912C71.6278 31.4 73.1158 31.144 74.5558 31.144C78.3318 31.144 80.2198 32.88 80.2198 36.352V40.024ZM74.9158 37.96C74.2278 37.96 73.6518 38.088 73.1878 38.344C72.7238 38.6 72.4918 39 72.4918 39.544C72.4918 39.96 72.6598 40.304 72.9958 40.576C73.3478 40.832 73.7798 40.96 74.2918 40.96C75.2998 40.96 76.1638 40.648 76.8838 40.024V38.224C76.1478 38.048 75.4918 37.96 74.9158 37.96Z" fill="#111111"/>
<rect x="24.5" y="134.5" width="287" height="250" rx="6.5" fill="#111111" stroke="#111111"/>
<rect x="48" y="321" width="240" height="8" fill="#AAAAAA"/>
<rect x="48" y="345" width="88" height="8" fill="#AAAAAA"/>
<path d="M49.8 283.2H56.136C60.968 283.2 63.384 285.08 63.384 288.84C63.384 292.6 60.968 294.48 56.136 294.48H53.4V300H49.8V283.2ZM56.304 291.312C58.576 291.312 59.712 290.488 59.712 288.84C59.712 287.192 58.576 286.368 56.304 286.368H53.4V291.312H56.304ZM68.1883 290.208C68.6203 289.536 69.2443 289.016 70.0603 288.648C70.8763 288.28 71.8043 288.144 72.8443 288.24V291.48C71.9323 291.32 71.0763 291.4 70.2763 291.72C69.4923 292.04 68.9243 292.544 68.5723 293.232V300H65.2363V288.48H68.1883V290.208ZM73.7055 294.24C73.7055 293.2 73.8895 292.28 74.2575 291.48C74.6255 290.664 75.1055 290.024 75.6975 289.56C76.3055 289.096 76.9375 288.744 77.5935 288.504C78.2655 288.264 78.9455 288.144 79.6335 288.144C80.7855 288.144 81.7775 288.36 82.6095 288.792C83.4575 289.224 84.0815 289.784 84.4815 290.472C84.8815 291.144 85.1535 291.912 85.2975 292.776C85.4575 293.624 85.4175 294.472 85.1775 295.32H77.0655C77.2415 296.12 77.7055 296.72 78.4575 297.12C79.2095 297.504 80.0975 297.696 81.1215 297.696C82.3855 297.696 83.5455 297.464 84.6015 297V299.616C83.4655 300.096 82.0575 300.336 80.3775 300.336C78.4575 300.336 76.8655 299.8 75.6015 298.728C74.3375 297.656 73.7055 296.16 73.7055 294.24ZM82.1775 293.16C82.2575 292.632 82.1055 292.088 81.7215 291.528C81.3375 290.968 80.6815 290.688 79.7535 290.688C79.0175 290.688 78.3855 290.912 77.8575 291.36C77.3295 291.792 77.0575 292.392 77.0415 293.16H82.1775ZM90.8145 300H87.4785V288.48H90.4305V289.824C90.7985 289.392 91.3025 289.008 91.9425 288.672C92.5825 288.32 93.3025 288.144 94.1025 288.144C95.6865 288.144 96.8625 288.712 97.6305 289.848C98.7985 288.712 100.079 288.144 101.471 288.144C102.943 288.144 104.023 288.608 104.711 289.536C105.415 290.448 105.767 291.504 105.767 292.704V300H102.455V292.92C102.455 292.328 102.287 291.864 101.951 291.528C101.631 291.192 101.199 291.024 100.655 291.024C99.8065 291.024 99.0465 291.408 98.3745 292.176C98.3905 292.288 98.3985 292.464 98.3985 292.704V300H95.0865V292.92C95.0865 292.328 94.9185 291.864 94.5825 291.528C94.2625 291.192 93.8305 291.024 93.2865 291.024C92.3425 291.024 91.5185 291.488 90.8145 292.416V300ZM111.839 300H108.503V288.48H111.839V300ZM112.127 284.664C112.127 285.288 111.943 285.76 111.575 286.08C111.207 286.4 110.735 286.56 110.159 286.56C109.599 286.56 109.135 286.4 108.767 286.08C108.399 285.76 108.215 285.288 108.215 284.664C108.215 284.056 108.399 283.592 108.767 283.272C109.135 282.952 109.599 282.792 110.159 282.792C110.719 282.792 111.183 282.952 111.551 283.272C111.935 283.592 112.127 284.056 112.127 284.664ZM122.705 288.48H126.041V300H123.089V298.536C122.049 299.736 120.769 300.336 119.249 300.336C117.745 300.336 116.585 299.896 115.769 299.016C114.969 298.136 114.569 297 114.569 295.608V288.48H117.905V295.176C117.905 295.928 118.097 296.496 118.481 296.88C118.865 297.264 119.409 297.456 120.113 297.456C121.137 297.456 122.001 296.968 122.705 295.992V288.48ZM132.205 300H128.869V288.48H131.821V289.824C132.189 289.392 132.693 289.008 133.333 288.672C133.973 288.32 134.693 288.144 135.493 288.144C137.077 288.144 138.253 288.712 139.021 289.848C140.189 288.712 141.469 288.144 142.861 288.144C144.333 288.144 145.413 288.608 146.101 289.536C146.805 290.448 147.157 291.504 147.157 292.704V300H143.845V292.92C143.845 292.328 143.677 291.864 143.341 291.528C143.021 291.192 142.589 291.024 142.045 291.024C141.197 291.024 140.437 291.408 139.765 292.176C139.781 292.288 139.789 292.464 139.789 292.704V300H136.477V292.92C136.477 292.328 136.309 291.864 135.973 291.528C135.653 291.192 135.221 291.024 134.677 291.024C133.733 291.024 132.909 291.488 132.205 292.416V300Z" fill="white"/>
<path d="M25.19 57.2H28.69C31.4807 57.2 32.876 58.2733 32.876 60.42C32.876 62.5667 31.4807 63.64 28.69 63.64H26.786V67H25.19V57.2ZM30.58 61.806C31.028 61.5447 31.252 61.0827 31.252 60.42C31.252 59.7573 31.028 59.3 30.58 59.048C30.1413 58.7867 29.5393 58.656 28.774 58.656H26.786V62.184H28.774C29.5393 62.184 30.1413 62.058 30.58 61.806ZM35.3855 61.386C35.6468 60.966 36.0342 60.6393 36.5475 60.406C37.0608 60.1727 37.6162 60.084 38.2135 60.14V61.61C37.6162 61.526 37.0748 61.6053 36.5895 61.848C36.1042 62.0907 35.7588 62.45 35.5535 62.926V67H34.0555V60.28H35.3855V61.386ZM38.6788 63.64C38.6788 63.0613 38.7814 62.5387 38.9868 62.072C39.1921 61.596 39.4628 61.2227 39.7988 60.952C40.1348 60.672 40.4988 60.462 40.8908 60.322C41.2828 60.1727 41.6794 60.098 42.0808 60.098C42.5941 60.098 43.0561 60.1773 43.4668 60.336C43.8868 60.4947 44.2228 60.7093 44.4748 60.98C44.7268 61.2507 44.9321 61.5633 45.0908 61.918C45.2494 62.2727 45.3334 62.646 45.3428 63.038C45.3521 63.4207 45.3194 63.808 45.2448 64.2H40.1908C40.2654 64.7693 40.5454 65.1987 41.0308 65.488C41.5161 65.768 42.0948 65.908 42.7668 65.908C43.5321 65.908 44.2414 65.7493 44.8948 65.432V66.72C44.2508 67.028 43.4481 67.182 42.4868 67.182C41.3948 67.182 40.4848 66.874 39.7568 66.258C39.0381 65.642 38.6788 64.7693 38.6788 63.64ZM43.9008 63.08C43.9568 62.6973 43.8401 62.3147 43.5508 61.932C43.2708 61.54 42.8041 61.344 42.1508 61.344C41.6188 61.344 41.1614 61.498 40.7788 61.806C40.4054 62.114 40.2048 62.5387 40.1768 63.08H43.9008ZM48.1967 67H46.6987V60.28H48.0287V61.12C48.6354 60.4387 49.382 60.098 50.2687 60.098C51.2394 60.098 51.9394 60.4573 52.3687 61.176C53.0874 60.4573 53.8714 60.098 54.7207 60.098C55.5607 60.098 56.1954 60.3593 56.6247 60.882C57.054 61.4047 57.2687 62.044 57.2687 62.8V67H55.7707V62.842C55.7707 62.4127 55.6494 62.072 55.4067 61.82C55.1734 61.5587 54.8514 61.428 54.4407 61.428C53.834 61.428 53.2787 61.7313 52.7747 62.338C52.7934 62.5433 52.8027 62.6973 52.8027 62.8V67H51.3047V62.842C51.3047 62.4127 51.1834 62.072 50.9407 61.82C50.7074 61.5587 50.3854 61.428 49.9747 61.428C49.3307 61.428 48.738 61.7733 48.1967 62.464V67ZM60.5278 67H59.0298V60.28H60.5278V67ZM60.6958 58.096C60.6958 58.3853 60.6071 58.6093 60.4298 58.768C60.2618 58.9173 60.0471 58.992 59.7858 58.992C59.5244 58.992 59.3051 58.9173 59.1278 58.768C58.9504 58.6093 58.8618 58.3853 58.8618 58.096C58.8618 57.816 58.9504 57.6013 59.1278 57.452C59.3051 57.2933 59.5244 57.214 59.7858 57.214C60.0471 57.214 60.2618 57.2933 60.4298 57.452C60.6071 57.6013 60.6958 57.816 60.6958 58.096ZM67.2354 60.28H68.7334V67H67.4034V66.076C66.7874 66.8133 66.0081 67.182 65.0654 67.182C64.1974 67.182 63.5161 66.93 63.0214 66.426C62.5361 65.922 62.2934 65.2593 62.2934 64.438V60.28H63.7914V64.242C63.7914 65.3153 64.3141 65.852 65.3594 65.852C66.0967 65.852 66.7221 65.4787 67.2354 64.732V60.28ZM72.0355 67H70.5375V60.28H71.8675V61.12C72.4742 60.4387 73.2209 60.098 74.1075 60.098C75.0782 60.098 75.7782 60.4573 76.2075 61.176C76.9262 60.4573 77.7102 60.098 78.5595 60.098C79.3995 60.098 80.0342 60.3593 80.4635 60.882C80.8929 61.4047 81.1075 62.044 81.1075 62.8V67H79.6095V62.842C79.6095 62.4127 79.4882 62.072 79.2455 61.82C79.0122 61.5587 78.6902 61.428 78.2795 61.428C77.6729 61.428 77.1175 61.7313 76.6135 62.338C76.6322 62.5433 76.6415 62.6973 76.6415 62.8V67H75.1435V62.842C75.1435 62.4127 75.0222 62.072 74.7795 61.82C74.5462 61.5587 74.2242 61.428 73.8135 61.428C73.1695 61.428 72.5769 61.7733 72.0355 62.464V67Z" fill="#888888"/>
<rect x="24.5" y="86.5" width="287" height="31" rx="6.5" stroke="#111111"/>
<rect x="151" y="98" width="56" height="8" fill="#B4D2F8"/>
<rect x="28.5" y="90.5" width="90" height="23" rx="4.5" fill="white" stroke="#111111"/>
<rect x="55" y="98" width="56" height="8" fill="#B4D2F8"/>
<path fill-rule="evenodd" clip-rule="evenodd" d="M37.469 97.0406C37.448 97.0651 36.8838 97.8363 36.2154 98.7543L35 100.423L38.2318 104.708C40.0094 107.065 41.4725 108.996 41.4834 109C41.4942 109.004 42.9476 107.075 44.7131 104.715L47.9231 100.423L46.6787 98.7158L45.4344 97.009L41.4708 97.0025C37.7201 96.9964 37.5052 96.9985 37.469 97.0406ZM39.2044 98.0182C39.1592 98.1614 38.9927 98.6754 38.8344 99.1606L38.5467 100.043L37.392 100.043C36.7569 100.043 36.2373 100.036 36.2373 100.027C36.2373 100.019 36.6071 99.5047 37.059 98.8849L37.8807 97.758H38.5837H39.2867L39.2044 98.0182ZM43.2016 98.8687C43.4004 99.4796 43.5685 99.9938 43.5752 100.011C43.5849 100.037 43.1548 100.043 41.4618 100.043C39.6742 100.043 39.3384 100.038 39.3496 100.008C39.3569 99.9893 39.525 99.4751 39.7233 98.8658L40.0837 97.758H41.462H42.8402L43.2016 98.8687ZM45.8646 98.8849C46.3166 99.5047 46.6864 100.019 46.6864 100.027C46.6864 100.036 46.1668 100.043 45.5317 100.043L44.377 100.042L44.1396 99.3128C44.009 98.9115 43.8426 98.3975 43.7699 98.1706L43.6376 97.758H44.3403H45.0429L45.8646 98.8849ZM39.4505 103.513C39.9464 105.002 40.348 106.225 40.3431 106.23C40.3381 106.235 39.6123 105.282 38.7302 104.112C37.8481 102.942 36.9259 101.72 36.6809 101.395L36.2353 100.805H37.3921H38.5489L39.4505 103.513ZM43.5694 100.837C43.5633 100.854 43.0923 102.29 42.5225 104.027C41.9528 105.765 41.4839 107.189 41.4805 107.193C41.4772 107.196 40.995 105.76 40.4091 104.002L39.3437 100.805H41.462C43.1457 100.805 43.5781 100.811 43.5694 100.837ZM46.6678 100.837C46.6541 100.854 45.7426 102.074 44.6421 103.547C43.5415 105.02 42.6264 106.241 42.6085 106.261C42.5906 106.28 42.7738 105.692 43.0157 104.953C43.2576 104.215 43.6622 102.979 43.9148 102.208L44.3741 100.805H45.5333C46.4571 100.805 46.6875 100.811 46.6678 100.837Z" fill="#111111"/>
<path fill-rule="evenodd" clip-rule="evenodd" d="M134.499 96.0467C133.633 96.273 133.008 97.0579 132.993 97.9382C132.989 98.1725 133.033 98.2604 133.217 98.3851C133.417 98.5204 133.708 98.4497 133.84 98.2336C133.873 98.18 133.91 98.0504 133.922 97.9456C133.957 97.6358 134.05 97.4352 134.246 97.2394C134.465 97.0214 134.686 96.9308 134.999 96.9308C135.312 96.9308 135.533 97.0214 135.752 97.2394C135.976 97.4624 136.068 97.6881 136.067 98.0135C136.066 98.1998 136.049 98.2755 135.974 98.4334C135.861 98.6709 135.743 98.7913 135.42 98.9986C134.85 99.3657 134.53 99.9413 134.53 100.603V100.843L131.131 102.799C127.94 104.634 127.719 104.768 127.51 104.972C127.262 105.215 127.118 105.462 127.044 105.773C126.839 106.638 127.363 107.507 128.245 107.768C128.399 107.813 129.034 107.818 135.007 107.818H141.599L141.835 107.739C142.278 107.591 142.63 107.284 142.827 106.875C143.226 106.041 142.92 105.152 142.059 104.644C141.898 104.549 140.349 103.654 138.617 102.656L135.468 100.841V100.649C135.468 100.219 135.6 100.001 136.035 99.7121C136.398 99.4704 136.609 99.2471 136.777 98.9239C136.943 98.6069 136.999 98.3708 136.999 97.9983C136.999 97.4121 136.83 97.0073 136.408 96.5882C136.103 96.2847 135.879 96.1527 135.512 96.0591C135.223 95.9855 134.755 95.9798 134.499 96.0467ZM138.373 103.594C140.188 104.639 141.718 105.528 141.773 105.569C141.829 105.609 141.91 105.704 141.954 105.779C142.173 106.151 142.027 106.635 141.643 106.81L141.478 106.885L134.962 106.877L128.446 106.869L128.293 106.775C128.198 106.717 128.104 106.623 128.045 106.529C127.963 106.397 127.951 106.347 127.951 106.156C127.951 105.971 127.965 105.913 128.038 105.788C128.086 105.707 128.163 105.613 128.21 105.579C128.446 105.407 134.99 101.662 135.029 101.676C135.054 101.686 136.559 102.548 138.373 103.594Z" fill="#111111"/>
<rect x="178.5" y="67.5" width="287" height="199" rx="11.5" fill="white" stroke="#111111"/>
<path d="M243.36 99.8H247.28C249.2 99.8 250.661 100.312 251.664 101.336C252.667 102.36 253.168 103.715 253.168 105.4C253.168 107.085 252.667 108.44 251.664 109.464C250.661 110.488 249.2 111 247.28 111H243.36V99.8ZM250.272 108.328C250.965 107.645 251.312 106.669 251.312 105.4C251.312 104.131 250.965 103.16 250.272 102.488C249.589 101.805 248.587 101.464 247.264 101.464H245.184V109.336H247.264C248.587 109.336 249.589 109 250.272 108.328ZM254.371 107.16C254.371 106.499 254.489 105.901 254.723 105.368C254.958 104.824 255.267 104.397 255.651 104.088C256.035 103.768 256.451 103.528 256.899 103.368C257.347 103.197 257.801 103.112 258.259 103.112C258.846 103.112 259.374 103.203 259.843 103.384C260.323 103.565 260.707 103.811 260.995 104.12C261.283 104.429 261.518 104.787 261.699 105.192C261.881 105.597 261.977 106.024 261.987 106.472C261.998 106.909 261.961 107.352 261.875 107.8H256.099C256.185 108.451 256.505 108.941 257.059 109.272C257.614 109.592 258.275 109.752 259.043 109.752C259.918 109.752 260.729 109.571 261.475 109.208V110.68C260.739 111.032 259.822 111.208 258.723 111.208C257.475 111.208 256.435 110.856 255.603 110.152C254.782 109.448 254.371 108.451 254.371 107.16ZM260.339 106.52C260.403 106.083 260.27 105.645 259.939 105.208C259.619 104.76 259.086 104.536 258.339 104.536C257.731 104.536 257.209 104.712 256.771 105.064C256.345 105.416 256.115 105.901 256.083 106.52H260.339ZM268.857 103.32H270.729L267.433 111H265.625L262.345 103.32H264.201L266.537 109.144L268.857 103.32ZM273.639 111H271.927V103.32H273.639V111ZM273.831 100.824C273.831 101.155 273.729 101.411 273.527 101.592C273.335 101.763 273.089 101.848 272.791 101.848C272.492 101.848 272.241 101.763 272.039 101.592C271.836 101.411 271.735 101.155 271.735 100.824C271.735 100.504 271.836 100.259 272.039 100.088C272.241 99.9067 272.492 99.816 272.791 99.816C273.089 99.816 273.335 99.9067 273.527 100.088C273.729 100.259 273.831 100.504 273.831 100.824ZM275.256 107.224C275.256 105.891 275.678 104.872 276.52 104.168C277.363 103.464 278.355 103.112 279.496 103.112C280.414 103.112 281.203 103.309 281.864 103.704V105.272C281.267 104.845 280.558 104.632 279.736 104.632C278.979 104.632 278.334 104.845 277.8 105.272C277.267 105.688 277 106.317 277 107.16C277 107.981 277.262 108.611 277.784 109.048C278.318 109.475 278.958 109.688 279.704 109.688C280.515 109.688 281.262 109.491 281.944 109.096V110.68C281.208 111.032 280.36 111.208 279.4 111.208C278.28 111.208 277.31 110.867 276.488 110.184C275.667 109.491 275.256 108.504 275.256 107.224ZM282.973 107.16C282.973 106.499 283.091 105.901 283.325 105.368C283.56 104.824 283.869 104.397 284.253 104.088C284.637 103.768 285.053 103.528 285.501 103.368C285.949 103.197 286.403 103.112 286.861 103.112C287.448 103.112 287.976 103.203 288.445 103.384C288.925 103.565 289.309 103.811 289.597 104.12C289.885 104.429 290.12 104.787 290.301 105.192C290.483 105.597 290.579 106.024 290.589 106.472C290.6 106.909 290.563 107.352 290.477 107.8H284.701C284.787 108.451 285.107 108.941 285.661 109.272C286.216 109.592 286.877 109.752 287.645 109.752C288.52 109.752 289.331 109.571 290.077 109.208V110.68C289.341 111.032 288.424 111.208 287.325 111.208C286.077 111.208 285.037 110.856 284.205 110.152C283.384 109.448 282.973 108.451 282.973 107.16ZM288.941 106.52C289.005 106.083 288.872 105.645 288.541 105.208C288.221 104.76 287.688 104.536 286.941 104.536C286.333 104.536 285.811 104.712 285.373 105.064C284.947 105.416 284.717 105.901 284.685 106.52H288.941ZM297.584 111H295.872V103.32H297.584V111ZM297.776 100.824C297.776 101.155 297.675 101.411 297.472 101.592C297.28 101.763 297.035 101.848 296.736 101.848C296.437 101.848 296.187 101.763 295.984 101.592C295.781 101.411 295.68 101.155 295.68 100.824C295.68 100.504 295.781 100.259 295.984 100.088C296.187 99.9067 296.437 99.816 296.736 99.816C297.035 99.816 297.28 99.9067 297.472 100.088C297.675 100.259 297.776 100.504 297.776 100.824ZM301.202 104.376C301.906 103.533 302.797 103.112 303.874 103.112C304.834 103.112 305.602 103.405 306.178 103.992C306.754 104.568 307.042 105.32 307.042 106.248V111H305.33V106.472C305.33 105.875 305.165 105.421 304.834 105.112C304.503 104.792 304.071 104.632 303.538 104.632C302.695 104.632 301.981 105.059 301.394 105.912V111H299.682V103.32H301.202V104.376ZM308.608 105.4C308.608 104.621 308.902 104.045 309.488 103.672C310.086 103.299 310.811 103.112 311.664 103.112C312.656 103.112 313.579 103.331 314.432 103.768V105.272C314.112 105.059 313.702 104.883 313.2 104.744C312.699 104.595 312.224 104.52 311.776 104.52C311.382 104.52 311.046 104.589 310.768 104.728C310.491 104.856 310.352 105.064 310.352 105.352C310.352 105.619 310.512 105.843 310.832 106.024C311.152 106.195 311.536 106.344 311.984 106.472C312.443 106.589 312.896 106.733 313.344 106.904C313.792 107.064 314.176 107.315 314.496 107.656C314.816 107.997 314.976 108.429 314.976 108.952C314.976 109.741 314.667 110.317 314.048 110.68C313.43 111.032 312.635 111.208 311.664 111.208C310.459 111.208 309.456 110.963 308.656 110.472V108.952C309.478 109.496 310.454 109.768 311.584 109.768C312.694 109.768 313.248 109.507 313.248 108.984C313.248 108.728 313.088 108.515 312.768 108.344C312.448 108.163 312.059 108.013 311.6 107.896C311.152 107.768 310.699 107.624 310.24 107.464C309.792 107.293 309.408 107.037 309.088 106.696C308.768 106.344 308.608 105.912 308.608 105.4ZM322.012 103.32H323.724V111H322.204V109.944C321.5 110.787 320.609 111.208 319.532 111.208C318.54 111.208 317.761 110.92 317.196 110.344C316.641 109.768 316.364 109.011 316.364 108.072V103.32H318.076V107.848C318.076 109.075 318.673 109.688 319.868 109.688C320.711 109.688 321.425 109.261 322.012 108.408V103.32ZM327.306 104.584C327.604 104.104 328.047 103.731 328.634 103.464C329.22 103.197 329.855 103.096 330.538 103.16V104.84C329.855 104.744 329.236 104.835 328.682 105.112C328.127 105.389 327.732 105.8 327.498 106.344V111H325.786V103.32H327.306V104.584ZM338.219 109.224C338.219 109.597 338.405 109.784 338.779 109.784C338.907 109.784 339.077 109.752 339.291 109.688V110.92C338.971 111.048 338.608 111.112 338.203 111.112C337.435 111.112 336.923 110.813 336.667 110.216C335.845 110.877 334.88 111.208 333.771 111.208C333.024 111.208 332.389 111.005 331.867 110.6C331.344 110.184 331.083 109.603 331.083 108.856C331.083 107.96 331.419 107.309 332.091 106.904C332.763 106.488 333.568 106.28 334.507 106.28C335.125 106.28 335.792 106.355 336.507 106.504V106.232C336.507 105.741 336.331 105.347 335.979 105.048C335.627 104.749 335.131 104.6 334.491 104.6C333.541 104.6 332.619 104.797 331.723 105.192V103.624C332.725 103.283 333.707 103.112 334.667 103.112C335.787 103.112 336.656 103.389 337.275 103.944C337.904 104.499 338.219 105.341 338.219 106.472V109.224ZM334.843 107.48C334.277 107.48 333.803 107.581 333.419 107.784C333.035 107.987 332.843 108.307 332.843 108.744C332.843 109.107 332.981 109.389 333.259 109.592C333.536 109.784 333.877 109.88 334.283 109.88C335.157 109.88 335.899 109.576 336.507 108.968V107.672C335.888 107.544 335.333 107.48 334.843 107.48ZM341.911 104.376C342.615 103.533 343.506 103.112 344.583 103.112C345.543 103.112 346.311 103.405 346.887 103.992C347.463 104.568 347.751 105.32 347.751 106.248V111H346.039V106.472C346.039 105.875 345.874 105.421 345.543 105.112C345.213 104.792 344.781 104.632 344.247 104.632C343.405 104.632 342.69 105.059 342.103 105.912V111H340.391V103.32H341.911V104.376ZM349.238 107.224C349.238 105.891 349.659 104.872 350.502 104.168C351.344 103.464 352.336 103.112 353.478 103.112C354.395 103.112 355.184 103.309 355.846 103.704V105.272C355.248 104.845 354.539 104.632 353.718 104.632C352.96 104.632 352.315 104.845 351.782 105.272C351.248 105.688 350.982 106.317 350.982 107.16C350.982 107.981 351.243 108.611 351.766 109.048C352.299 109.475 352.939 109.688 353.686 109.688C354.496 109.688 355.243 109.491 355.926 109.096V110.68C355.19 111.032 354.342 111.208 353.382 111.208C352.262 111.208 351.291 110.867 350.47 110.184C349.648 109.491 349.238 108.504 349.238 107.224ZM356.955 107.16C356.955 106.499 357.072 105.901 357.307 105.368C357.541 104.824 357.851 104.397 358.235 104.088C358.619 103.768 359.035 103.528 359.483 103.368C359.931 103.197 360.384 103.112 360.843 103.112C361.429 103.112 361.957 103.203 362.427 103.384C362.907 103.565 363.291 103.811 363.579 104.12C363.867 104.429 364.101 104.787 364.283 105.192C364.464 105.597 364.56 106.024 364.571 106.472C364.581 106.909 364.544 107.352 364.459 107.8H358.683C358.768 108.451 359.088 108.941 359.643 109.272C360.197 109.592 360.859 109.752 361.627 109.752C362.501 109.752 363.312 109.571 364.059 109.208V110.68C363.323 111.032 362.405 111.208 361.307 111.208C360.059 111.208 359.019 110.856 358.187 110.152C357.365 109.448 356.955 108.451 356.955 107.16ZM362.923 106.52C362.987 106.083 362.853 105.645 362.523 105.208C362.203 104.76 361.669 104.536 360.923 104.536C360.315 104.536 359.792 104.712 359.355 105.064C358.928 105.416 358.699 105.901 358.667 106.52H362.923Z" fill="#111111"/>
<path d="M253.52 139.8H255.168V151H253.344V143.16L249.808 148.472H248.72L245.184 143.144V151H243.36V139.8H245.008L249.264 146.216L253.52 139.8ZM256.856 147.16C256.856 146.499 256.973 145.901 257.208 145.368C257.442 144.824 257.752 144.397 258.136 144.088C258.52 143.768 258.936 143.528 259.384 143.368C259.832 143.197 260.285 143.112 260.744 143.112C261.33 143.112 261.858 143.203 262.328 143.384C262.808 143.565 263.192 143.811 263.48 144.12C263.768 144.429 264.002 144.787 264.184 145.192C264.365 145.597 264.461 146.024 264.472 146.472C264.482 146.909 264.445 147.352 264.36 147.8H258.584C258.669 148.451 258.989 148.941 259.544 149.272C260.098 149.592 260.76 149.752 261.528 149.752C262.402 149.752 263.213 149.571 263.96 149.208V150.68C263.224 151.032 262.306 151.208 261.208 151.208C259.96 151.208 258.92 150.856 258.088 150.152C257.266 149.448 256.856 148.451 256.856 147.16ZM262.824 146.52C262.888 146.083 262.754 145.645 262.424 145.208C262.104 144.76 261.57 144.536 260.824 144.536C260.216 144.536 259.693 144.712 259.256 145.064C258.829 145.416 258.6 145.901 258.568 146.52H262.824ZM272.117 139.8H273.829V151H272.293V149.784C271.547 150.733 270.565 151.208 269.349 151.208C268.219 151.208 267.301 150.819 266.597 150.04C265.893 149.251 265.541 148.291 265.541 147.16C265.541 146.029 265.893 145.075 266.597 144.296C267.301 143.507 268.219 143.112 269.349 143.112C270.501 143.112 271.424 143.512 272.117 144.312V139.8ZM272.101 146.216C271.899 145.768 271.579 145.389 271.141 145.08C270.715 144.771 270.219 144.616 269.653 144.616C268.96 144.616 268.389 144.856 267.941 145.336C267.493 145.805 267.269 146.413 267.269 147.16C267.269 147.907 267.493 148.52 267.941 149C268.389 149.469 268.96 149.704 269.653 149.704C270.219 149.704 270.715 149.549 271.141 149.24C271.579 148.931 271.899 148.547 272.101 148.088V146.216ZM277.638 151H275.926V143.32H277.638V151ZM277.83 140.824C277.83 141.155 277.729 141.411 277.526 141.592C277.334 141.763 277.089 141.848 276.79 141.848C276.492 141.848 276.241 141.763 276.038 141.592C275.836 141.411 275.734 141.155 275.734 140.824C275.734 140.504 275.836 140.259 276.038 140.088C276.241 139.907 276.492 139.816 276.79 139.816C277.089 139.816 277.334 139.907 277.526 140.088C277.729 140.259 277.83 140.504 277.83 140.824ZM279.256 147.224C279.256 145.891 279.678 144.872 280.52 144.168C281.363 143.464 282.355 143.112 283.496 143.112C284.414 143.112 285.203 143.309 285.864 143.704V145.272C285.267 144.845 284.558 144.632 283.736 144.632C282.979 144.632 282.334 144.845 281.8 145.272C281.267 145.688 281 146.317 281 147.16C281 147.981 281.262 148.611 281.784 149.048C282.318 149.475 282.958 149.688 283.704 149.688C284.515 149.688 285.262 149.491 285.944 149.096V150.68C285.208 151.032 284.36 151.208 283.4 151.208C282.28 151.208 281.31 150.867 280.488 150.184C279.667 149.491 279.256 148.504 279.256 147.224ZM294.075 149.224C294.075 149.597 294.262 149.784 294.635 149.784C294.763 149.784 294.934 149.752 295.147 149.688V150.92C294.827 151.048 294.465 151.112 294.059 151.112C293.291 151.112 292.779 150.813 292.523 150.216C291.702 150.877 290.737 151.208 289.627 151.208C288.881 151.208 288.246 151.005 287.723 150.6C287.201 150.184 286.939 149.603 286.939 148.856C286.939 147.96 287.275 147.309 287.947 146.904C288.619 146.488 289.425 146.28 290.363 146.28C290.982 146.28 291.649 146.355 292.363 146.504V146.232C292.363 145.741 292.187 145.347 291.835 145.048C291.483 144.749 290.987 144.6 290.347 144.6C289.398 144.6 288.475 144.797 287.579 145.192V143.624C288.582 143.283 289.563 143.112 290.523 143.112C291.643 143.112 292.513 143.389 293.131 143.944C293.761 144.499 294.075 145.341 294.075 146.472V149.224ZM290.699 147.48C290.134 147.48 289.659 147.581 289.275 147.784C288.891 147.987 288.699 148.307 288.699 148.744C288.699 149.107 288.838 149.389 289.115 149.592C289.393 149.784 289.734 149.88 290.139 149.88C291.014 149.88 291.755 149.576 292.363 148.968V147.672C291.745 147.544 291.19 147.48 290.699 147.48ZM296.28 139.32H297.992V151H296.28V139.32ZM305.535 151H303.823V143.32H305.535V151ZM305.727 140.824C305.727 141.155 305.626 141.411 305.423 141.592C305.231 141.763 304.986 141.848 304.687 141.848C304.389 141.848 304.138 141.763 303.935 141.592C303.733 141.411 303.631 141.155 303.631 140.824C303.631 140.504 303.733 140.259 303.935 140.088C304.138 139.907 304.389 139.816 304.687 139.816C304.986 139.816 305.231 139.907 305.423 140.088C305.626 140.259 305.727 140.504 305.727 140.824ZM309.153 144.376C309.857 143.533 310.748 143.112 311.825 143.112C312.785 143.112 313.553 143.405 314.129 143.992C314.705 144.568 314.993 145.32 314.993 146.248V151H313.281V146.472C313.281 145.875 313.116 145.421 312.785 145.112C312.455 144.792 312.023 144.632 311.489 144.632C310.647 144.632 309.932 145.059 309.345 145.912V151H307.633V143.32H309.153V144.376ZM316.559 145.4C316.559 144.621 316.853 144.045 317.439 143.672C318.037 143.299 318.762 143.112 319.615 143.112C320.607 143.112 321.53 143.331 322.383 143.768V145.272C322.063 145.059 321.653 144.883 321.151 144.744C320.65 144.595 320.175 144.52 319.727 144.52C319.333 144.52 318.997 144.589 318.719 144.728C318.442 144.856 318.303 145.064 318.303 145.352C318.303 145.619 318.463 145.843 318.783 146.024C319.103 146.195 319.487 146.344 319.935 146.472C320.394 146.589 320.847 146.733 321.295 146.904C321.743 147.064 322.127 147.315 322.447 147.656C322.767 147.997 322.927 148.429 322.927 148.952C322.927 149.741 322.618 150.317 321.999 150.68C321.381 151.032 320.586 151.208 319.615 151.208C318.41 151.208 317.407 150.963 316.607 150.472V148.952C317.429 149.496 318.405 149.768 319.535 149.768C320.645 149.768 321.199 149.507 321.199 148.984C321.199 148.728 321.039 148.515 320.719 148.344C320.399 148.163 320.01 148.013 319.551 147.896C319.103 147.768 318.65 147.624 318.191 147.464C317.743 147.293 317.359 147.037 317.039 146.696C316.719 146.344 316.559 145.912 316.559 145.4ZM329.963 143.32H331.675V151H330.155V149.944C329.451 150.787 328.56 151.208 327.483 151.208C326.491 151.208 325.712 150.92 325.147 150.344C324.592 149.768 324.315 149.011 324.315 148.072V143.32H326.027V147.848C326.027 149.075 326.624 149.688 327.819 149.688C328.662 149.688 329.376 149.261 329.963 148.408V143.32ZM335.257 144.584C335.556 144.104 335.998 143.731 336.585 143.464C337.172 143.197 337.806 143.096 338.489 143.16V144.84C337.806 144.744 337.188 144.835 336.633 145.112C336.078 145.389 335.684 145.8 335.449 146.344V151H333.737V143.32H335.257V144.584ZM346.17 149.224C346.17 149.597 346.356 149.784 346.73 149.784C346.858 149.784 347.028 149.752 347.242 149.688V150.92C346.922 151.048 346.559 151.112 346.154 151.112C345.386 151.112 344.874 150.813 344.618 150.216C343.796 150.877 342.831 151.208 341.722 151.208C340.975 151.208 340.34 151.005 339.818 150.6C339.295 150.184 339.034 149.603 339.034 148.856C339.034 147.96 339.37 147.309 340.042 146.904C340.714 146.488 341.519 146.28 342.458 146.28C343.076 146.28 343.743 146.355 344.458 146.504V146.232C344.458 145.741 344.282 145.347 343.93 145.048C343.578 144.749 343.082 144.6 342.442 144.6C341.492 144.6 340.57 144.797 339.674 145.192V143.624C340.676 143.283 341.658 143.112 342.618 143.112C343.738 143.112 344.607 143.389 345.226 143.944C345.855 144.499 346.17 145.341 346.17 146.472V149.224ZM342.794 147.48C342.228 147.48 341.754 147.581 341.37 147.784C340.986 147.987 340.794 148.307 340.794 148.744C340.794 149.107 340.932 149.389 341.21 149.592C341.487 149.784 341.828 149.88 342.234 149.88C343.108 149.88 343.85 149.576 344.458 148.968V147.672C343.839 147.544 343.284 147.48 342.794 147.48ZM349.863 144.376C350.567 143.533 351.457 143.112 352.535 143.112C353.495 143.112 354.263 143.405 354.839 143.992C355.415 144.568 355.703 145.32 355.703 146.248V151H353.991V146.472C353.991 145.875 353.825 145.421 353.495 145.112C353.164 144.792 352.732 144.632 352.199 144.632C351.356 144.632 350.641 145.059 350.055 145.912V151H348.343V143.32H349.863V144.376ZM357.189 147.224C357.189 145.891 357.61 144.872 358.453 144.168C359.296 143.464 360.288 143.112 361.429 143.112C362.346 143.112 363.136 143.309 363.797 143.704V145.272C363.2 144.845 362.49 144.632 361.669 144.632C360.912 144.632 360.266 144.845 359.733 145.272C359.2 145.688 358.933 146.317 358.933 147.16C358.933 147.981 359.194 148.611 359.717 149.048C360.25 149.475 360.89 149.688 361.637 149.688C362.448 149.688 363.194 149.491 363.877 149.096V150.68C363.141 151.032 362.293 151.208 361.333 151.208C360.213 151.208 359.242 150.867 358.421 150.184C357.6 149.491 357.189 148.504 357.189 147.224ZM364.906 147.16C364.906 146.499 365.023 145.901 365.258 145.368C365.492 144.824 365.802 144.397 366.186 144.088C366.57 143.768 366.986 143.528 367.434 143.368C367.882 143.197 368.335 143.112 368.794 143.112C369.38 143.112 369.908 143.203 370.378 143.384C370.858 143.565 371.242 143.811 371.53 144.12C371.818 144.429 372.052 144.787 372.234 145.192C372.415 145.597 372.511 146.024 372.522 146.472C372.532 146.909 372.495 147.352 372.41 147.8H366.634C366.719 148.451 367.039 148.941 367.594 149.272C368.148 149.592 368.81 149.752 369.578 149.752C370.452 149.752 371.263 149.571 372.01 149.208V150.68C371.274 151.032 370.356 151.208 369.258 151.208C368.01 151.208 366.97 150.856 366.138 150.152C365.316 149.448 364.906 148.451 364.906 147.16ZM370.874 146.52C370.938 146.083 370.804 145.645 370.474 145.208C370.154 144.76 369.62 144.536 368.874 144.536C368.266 144.536 367.743 144.712 367.306 145.064C366.879 145.416 366.65 145.901 366.618 146.52H370.874Z" fill="#111111"/>
<path d="M243.36 179.8H251.088V181.48H245.184V184.76H250.624V186.456H245.184V191H243.36V179.8ZM252.587 179.32H254.299V191H252.587V179.32ZM258.14 191H256.428V183.32H258.14V191ZM258.332 180.824C258.332 181.155 258.231 181.411 258.028 181.592C257.836 181.763 257.591 181.848 257.292 181.848C256.994 181.848 256.743 181.763 256.54 181.592C256.338 181.411 256.236 181.155 256.236 180.824C256.236 180.504 256.338 180.259 256.54 180.088C256.743 179.907 256.994 179.816 257.292 179.816C257.591 179.816 257.836 179.907 258.028 180.088C258.231 180.259 258.332 180.504 258.332 180.824ZM260.814 190.04C260.11 189.251 259.758 188.291 259.758 187.16C259.758 186.029 260.11 185.075 260.814 184.296C261.518 183.507 262.436 183.112 263.566 183.112C264.772 183.112 265.753 183.581 266.51 184.52V183.32H268.046V190.904C268.046 192.195 267.63 193.155 266.798 193.784C265.977 194.413 264.958 194.728 263.742 194.728C262.569 194.728 261.513 194.488 260.574 194.008V192.44C261.47 192.963 262.452 193.224 263.518 193.224C265.396 193.224 266.334 192.467 266.334 190.952V189.976C265.641 190.797 264.718 191.208 263.566 191.208C262.436 191.208 261.518 190.819 260.814 190.04ZM266.318 186.216C266.116 185.768 265.796 185.389 265.358 185.08C264.932 184.771 264.436 184.616 263.87 184.616C263.177 184.616 262.606 184.856 262.158 185.336C261.71 185.805 261.486 186.413 261.486 187.16C261.486 187.907 261.71 188.52 262.158 189C262.606 189.469 263.177 189.704 263.87 189.704C264.436 189.704 264.932 189.56 265.358 189.272C265.796 188.984 266.116 188.627 266.318 188.2V186.216ZM270.111 179.8H271.823V184.168C272.506 183.464 273.333 183.112 274.303 183.112C275.263 183.112 276.031 183.405 276.607 183.992C277.183 184.568 277.471 185.32 277.471 186.248V191H275.759V186.472C275.759 185.875 275.594 185.421 275.263 185.112C274.933 184.792 274.501 184.632 273.967 184.632C273.125 184.632 272.41 185.059 271.823 185.912V191H270.111V179.8ZM279.935 181L281.631 180.584V183.32H284.415V184.824H281.631V188.344C281.631 188.835 281.743 189.181 281.967 189.384C282.202 189.587 282.575 189.688 283.087 189.688C283.61 189.688 284.127 189.587 284.639 189.384V190.856C284.02 191.08 283.332 191.192 282.575 191.192C281.786 191.192 281.146 190.984 280.655 190.568C280.175 190.152 279.935 189.517 279.935 188.664V184.824H278.559V183.32H279.935V181ZM295.749 179.8H297.461V191H295.925V189.784C295.178 190.733 294.197 191.208 292.981 191.208C291.85 191.208 290.933 190.819 290.229 190.04C289.525 189.251 289.173 188.291 289.173 187.16C289.173 186.029 289.525 185.075 290.229 184.296C290.933 183.507 291.85 183.112 292.981 183.112C294.133 183.112 295.055 183.512 295.749 184.312V179.8ZM295.733 186.216C295.53 185.768 295.21 185.389 294.773 185.08C294.346 184.771 293.85 184.616 293.285 184.616C292.591 184.616 292.021 184.856 291.573 185.336C291.125 185.805 290.901 186.413 290.901 187.16C290.901 187.907 291.125 188.52 291.573 189C292.021 189.469 292.591 189.704 293.285 189.704C293.85 189.704 294.346 189.549 294.773 189.24C295.21 188.931 295.53 188.547 295.733 188.088V186.216ZM299.046 187.16C299.046 186.499 299.163 185.901 299.398 185.368C299.632 184.824 299.942 184.397 300.326 184.088C300.71 183.768 301.126 183.528 301.574 183.368C302.022 183.197 302.475 183.112 302.934 183.112C303.52 183.112 304.048 183.203 304.518 183.384C304.998 183.565 305.382 183.811 305.67 184.12C305.958 184.429 306.192 184.787 306.374 185.192C306.555 185.597 306.651 186.024 306.662 186.472C306.672 186.909 306.635 187.352 306.55 187.8H300.774C300.859 188.451 301.179 188.941 301.734 189.272C302.288 189.592 302.95 189.752 303.718 189.752C304.592 189.752 305.403 189.571 306.15 189.208V190.68C305.414 191.032 304.496 191.208 303.398 191.208C302.15 191.208 301.11 190.856 300.278 190.152C299.456 189.448 299.046 188.451 299.046 187.16ZM305.014 186.52C305.078 186.083 304.944 185.645 304.614 185.208C304.294 184.76 303.76 184.536 303.014 184.536C302.406 184.536 301.883 184.712 301.446 185.064C301.019 185.416 300.79 185.901 300.758 186.52H305.014ZM308.243 179.32H309.955V191H308.243V179.32ZM318.597 189.224C318.597 189.597 318.784 189.784 319.157 189.784C319.285 189.784 319.456 189.752 319.669 189.688V190.92C319.349 191.048 318.987 191.112 318.581 191.112C317.813 191.112 317.301 190.813 317.045 190.216C316.224 190.877 315.259 191.208 314.149 191.208C313.403 191.208 312.768 191.005 312.245 190.6C311.723 190.184 311.461 189.603 311.461 188.856C311.461 187.96 311.797 187.309 312.469 186.904C313.141 186.488 313.947 186.28 314.885 186.28C315.504 186.28 316.171 186.355 316.885 186.504V186.232C316.885 185.741 316.709 185.347 316.357 185.048C316.005 184.749 315.509 184.6 314.869 184.6C313.92 184.6 312.997 184.797 312.101 185.192V183.624C313.104 183.283 314.085 183.112 315.045 183.112C316.165 183.112 317.035 183.389 317.653 183.944C318.283 184.499 318.597 185.341 318.597 186.472V189.224ZM315.221 187.48C314.656 187.48 314.181 187.581 313.797 187.784C313.413 187.987 313.221 188.307 313.221 188.744C313.221 189.107 313.36 189.389 313.637 189.592C313.915 189.784 314.256 189.88 314.661 189.88C315.536 189.88 316.277 189.576 316.885 188.968V187.672C316.267 187.544 315.712 187.48 315.221 187.48ZM323.804 189.112L326.092 183.32H327.884L324.284 192.04C323.548 193.821 322.519 194.712 321.196 194.712C320.887 194.712 320.551 194.669 320.188 194.584V193.128C320.423 193.203 320.684 193.24 320.972 193.24C321.794 193.24 322.428 192.643 322.876 191.448L323.036 191.064L319.388 183.32H321.212L323.804 189.112Z" fill="#111111"/>
<path d="M243.36 219.8H245.184V229.304H251.072V231H243.36V219.8ZM257.732 223.32H259.444V231H257.924V229.944C257.22 230.787 256.329 231.208 255.252 231.208C254.26 231.208 253.481 230.92 252.916 230.344C252.361 229.768 252.084 229.011 252.084 228.072V223.32H253.796V227.848C253.796 229.075 254.393 229.688 255.588 229.688C256.431 229.688 257.145 229.261 257.732 228.408V223.32ZM262.082 230.04C261.378 229.251 261.026 228.291 261.026 227.16C261.026 226.029 261.378 225.075 262.082 224.296C262.786 223.507 263.703 223.112 264.834 223.112C266.039 223.112 267.02 223.581 267.778 224.52V223.32H269.314V230.904C269.314 232.195 268.898 233.155 268.066 233.784C267.244 234.413 266.226 234.728 265.01 234.728C263.836 234.728 262.78 234.488 261.842 234.008V232.44C262.738 232.963 263.719 233.224 264.786 233.224C266.663 233.224 267.602 232.467 267.602 230.952V229.976C266.908 230.797 265.986 231.208 264.834 231.208C263.703 231.208 262.786 230.819 262.082 230.04ZM267.586 226.216C267.383 225.768 267.063 225.389 266.626 225.08C266.199 224.771 265.703 224.616 265.138 224.616C264.444 224.616 263.874 224.856 263.426 225.336C262.978 225.805 262.754 226.413 262.754 227.16C262.754 227.907 262.978 228.52 263.426 229C263.874 229.469 264.444 229.704 265.138 229.704C265.703 229.704 266.199 229.56 266.626 229.272C267.063 228.984 267.383 228.627 267.586 228.2V226.216ZM271.955 230.04C271.251 229.251 270.899 228.291 270.899 227.16C270.899 226.029 271.251 225.075 271.955 224.296C272.659 223.507 273.576 223.112 274.707 223.112C275.912 223.112 276.894 223.581 277.651 224.52V223.32H279.187V230.904C279.187 232.195 278.771 233.155 277.939 233.784C277.118 234.413 276.099 234.728 274.883 234.728C273.71 234.728 272.654 234.488 271.715 234.008V232.44C272.611 232.963 273.592 233.224 274.659 233.224C276.536 233.224 277.475 232.467 277.475 230.952V229.976C276.782 230.797 275.859 231.208 274.707 231.208C273.576 231.208 272.659 230.819 271.955 230.04ZM277.459 226.216C277.256 225.768 276.936 225.389 276.499 225.08C276.072 224.771 275.576 224.616 275.011 224.616C274.318 224.616 273.747 224.856 273.299 225.336C272.851 225.805 272.627 226.413 272.627 227.16C272.627 227.907 272.851 228.52 273.299 229C273.747 229.469 274.318 229.704 275.011 229.704C275.576 229.704 276.072 229.56 276.499 229.272C276.936 228.984 277.256 228.627 277.459 228.2V226.216ZM287.796 229.224C287.796 229.597 287.983 229.784 288.356 229.784C288.484 229.784 288.655 229.752 288.868 229.688V230.92C288.548 231.048 288.185 231.112 287.78 231.112C287.012 231.112 286.5 230.813 286.244 230.216C285.423 230.877 284.457 231.208 283.348 231.208C282.601 231.208 281.967 231.005 281.444 230.6C280.921 230.184 280.66 229.603 280.66 228.856C280.66 227.96 280.996 227.309 281.668 226.904C282.34 226.488 283.145 226.28 284.084 226.28C284.703 226.28 285.369 226.355 286.084 226.504V226.232C286.084 225.741 285.908 225.347 285.556 225.048C285.204 224.749 284.708 224.6 284.068 224.6C283.119 224.6 282.196 224.797 281.3 225.192V223.624C282.303 223.283 283.284 223.112 284.244 223.112C285.364 223.112 286.233 223.389 286.852 223.944C287.481 224.499 287.796 225.341 287.796 226.472V229.224ZM284.42 227.48C283.855 227.48 283.38 227.581 282.996 227.784C282.612 227.987 282.42 228.307 282.42 228.744C282.42 229.107 282.559 229.389 282.836 229.592C283.113 229.784 283.455 229.88 283.86 229.88C284.735 229.88 285.476 229.576 286.084 228.968V227.672C285.465 227.544 284.911 227.48 284.42 227.48ZM290.545 230.04C289.841 229.251 289.489 228.291 289.489 227.16C289.489 226.029 289.841 225.075 290.545 224.296C291.249 223.507 292.166 223.112 293.297 223.112C294.502 223.112 295.484 223.581 296.241 224.52V223.32H297.777V230.904C297.777 232.195 297.361 233.155 296.529 233.784C295.708 234.413 294.689 234.728 293.473 234.728C292.3 234.728 291.244 234.488 290.305 234.008V232.44C291.201 232.963 292.182 233.224 293.249 233.224C295.126 233.224 296.065 232.467 296.065 230.952V229.976C295.372 230.797 294.449 231.208 293.297 231.208C292.166 231.208 291.249 230.819 290.545 230.04ZM296.049 226.216C295.846 225.768 295.526 225.389 295.089 225.08C294.662 224.771 294.166 224.616 293.601 224.616C292.908 224.616 292.337 224.856 291.889 225.336C291.441 225.805 291.217 226.413 291.217 227.16C291.217 227.907 291.441 228.52 291.889 229C292.337 229.469 292.908 229.704 293.601 229.704C294.166 229.704 294.662 229.56 295.089 229.272C295.526 228.984 295.846 228.627 296.049 228.2V226.216ZM299.362 227.16C299.362 226.499 299.479 225.901 299.714 225.368C299.949 224.824 300.258 224.397 300.642 224.088C301.026 223.768 301.442 223.528 301.89 223.368C302.338 223.197 302.791 223.112 303.25 223.112C303.837 223.112 304.365 223.203 304.834 223.384C305.314 223.565 305.698 223.811 305.986 224.12C306.274 224.429 306.509 224.787 306.69 225.192C306.871 225.597 306.967 226.024 306.978 226.472C306.989 226.909 306.951 227.352 306.866 227.8H301.09C301.175 228.451 301.495 228.941 302.05 229.272C302.605 229.592 303.266 229.752 304.034 229.752C304.909 229.752 305.719 229.571 306.466 229.208V230.68C305.73 231.032 304.813 231.208 303.714 231.208C302.466 231.208 301.426 230.856 300.594 230.152C299.773 229.448 299.362 228.451 299.362 227.16ZM305.33 226.52C305.394 226.083 305.261 225.645 304.93 225.208C304.61 224.76 304.077 224.536 303.33 224.536C302.722 224.536 302.199 224.712 301.762 225.064C301.335 225.416 301.106 225.901 301.074 226.52H305.33ZM318.325 219.8H320.037V231H318.501V229.784C317.754 230.733 316.773 231.208 315.557 231.208C314.426 231.208 313.509 230.819 312.805 230.04C312.101 229.251 311.749 228.291 311.749 227.16C311.749 226.029 312.101 225.075 312.805 224.296C313.509 223.507 314.426 223.112 315.557 223.112C316.709 223.112 317.632 223.512 318.325 224.312V219.8ZM318.309 226.216C318.106 225.768 317.786 225.389 317.349 225.08C316.922 224.771 316.426 224.616 315.861 224.616C315.168 224.616 314.597 224.856 314.149 225.336C313.701 225.805 313.477 226.413 313.477 227.16C313.477 227.907 313.701 228.52 314.149 229C314.597 229.469 315.168 229.704 315.861 229.704C316.426 229.704 316.922 229.549 317.349 229.24C317.786 228.931 318.106 228.547 318.309 228.088V226.216ZM321.622 227.16C321.622 226.499 321.739 225.901 321.974 225.368C322.209 224.824 322.518 224.397 322.902 224.088C323.286 223.768 323.702 223.528 324.15 223.368C324.598 223.197 325.051 223.112 325.51 223.112C326.097 223.112 326.625 223.203 327.094 223.384C327.574 223.565 327.958 223.811 328.246 224.12C328.534 224.429 328.769 224.787 328.95 225.192C329.131 225.597 329.227 226.024 329.238 226.472C329.249 226.909 329.211 227.352 329.126 227.8H323.35C323.435 228.451 323.755 228.941 324.31 229.272C324.865 229.592 325.526 229.752 326.294 229.752C327.169 229.752 327.979 229.571 328.726 229.208V230.68C327.99 231.032 327.073 231.208 325.974 231.208C324.726 231.208 323.686 230.856 322.854 230.152C322.033 229.448 321.622 228.451 321.622 227.16ZM327.59 226.52C327.654 226.083 327.521 225.645 327.19 225.208C326.87 224.76 326.337 224.536 325.59 224.536C324.982 224.536 324.459 224.712 324.022 225.064C323.595 225.416 323.366 225.901 323.334 226.52H327.59ZM330.82 219.32H332.532V231H330.82V219.32ZM341.174 229.224C341.174 229.597 341.36 229.784 341.734 229.784C341.862 229.784 342.032 229.752 342.246 229.688V230.92C341.926 231.048 341.563 231.112 341.158 231.112C340.39 231.112 339.878 230.813 339.622 230.216C338.8 230.877 337.835 231.208 336.726 231.208C335.979 231.208 335.344 231.005 334.822 230.6C334.299 230.184 334.038 229.603 334.038 228.856C334.038 227.96 334.374 227.309 335.046 226.904C335.718 226.488 336.523 226.28 337.462 226.28C338.08 226.28 338.747 226.355 339.462 226.504V226.232C339.462 225.741 339.286 225.347 338.934 225.048C338.582 224.749 338.086 224.6 337.446 224.6C336.496 224.6 335.574 224.797 334.678 225.192V223.624C335.68 223.283 336.662 223.112 337.622 223.112C338.742 223.112 339.611 223.389 340.23 223.944C340.859 224.499 341.174 225.341 341.174 226.472V229.224ZM337.798 227.48C337.232 227.48 336.758 227.581 336.374 227.784C335.99 227.987 335.798 228.307 335.798 228.744C335.798 229.107 335.936 229.389 336.214 229.592C336.491 229.784 336.832 229.88 337.238 229.88C338.112 229.88 338.854 229.576 339.462 228.968V227.672C338.843 227.544 338.288 227.48 337.798 227.48ZM346.381 229.112L348.669 223.32H350.461L346.861 232.04C346.125 233.821 345.095 234.712 343.773 234.712C343.463 234.712 343.127 234.669 342.765 234.584V233.128C342.999 233.203 343.261 233.24 343.549 233.24C344.37 233.24 345.005 232.643 345.453 231.448L345.613 231.064L341.965 223.32H343.789L346.381 229.112Z" fill="#111111"/>
<path fill-rule="evenodd" clip-rule="evenodd" d="M204.013 102.356L204.027 109.701L204.16 110.191C204.404 111.086 204.783 111.785 205.502 112.663C207.181 114.718 209.084 116.369 211.365 117.749C212.046 118.16 213.722 119.009 213.838 119C213.986 118.989 215.377 118.336 216.085 117.947C217.809 116.998 219.119 116.026 220.451 114.708C221.979 113.197 223.017 111.761 223.368 110.676C223.65 109.801 223.636 110.222 223.656 102.373C223.667 98.3982 223.664 95.1169 223.651 95.0817C223.633 95.0356 223.414 95.1084 222.87 95.3408C220.276 96.4489 218.824 96.7095 217.163 96.3655C216.234 96.1732 215.041 95.7117 214.218 95.2263L213.835 95L213.502 95.2032C212.632 95.7347 211.39 96.2353 210.426 96.4427C209.793 96.5791 208.647 96.5682 207.906 96.4187C207.204 96.2771 206.134 95.9209 205.188 95.5144C204.794 95.3449 204.366 95.1623 204.236 95.1086L204 95.011L204.013 102.356ZM214.141 97.2924C214.929 97.6968 216.352 98.1497 217.267 98.2873C218.531 98.4775 220.25 98.3064 221.519 97.864L221.792 97.7688V103.524C221.792 109.798 221.798 109.656 221.511 110.352C221.223 111.051 220.262 112.279 219.142 113.38C217.771 114.728 216.36 115.733 214.607 116.61L213.871 116.978L213.421 116.749C212.469 116.266 211.313 115.536 210.406 114.845C208.704 113.55 206.745 111.48 206.248 110.454C205.827 109.584 205.859 110.126 205.842 103.601C205.829 98.0619 205.832 97.8023 205.916 97.8273C207.365 98.2597 207.951 98.3678 209.019 98.4005C209.669 98.4203 209.983 98.4068 210.397 98.341C211.397 98.1821 212.631 97.7813 213.481 97.3397C213.663 97.2451 213.829 97.1666 213.85 97.1652C213.871 97.1639 214.003 97.2211 214.141 97.2924ZM215.541 105.072L212.824 107.824L211.316 106.297L209.808 104.771L209.154 105.434L208.5 106.098L210.662 108.288L212.823 110.477L216.196 107.061L219.569 103.644L218.914 102.981L218.258 102.319L215.541 105.072Z" fill="#111111"/>
<path fill-rule="evenodd" clip-rule="evenodd" d="M213.099 135.023C211.357 135.189 210.034 135.56 208.587 136.285C206.683 137.239 204.917 138.857 203.756 140.713C202.917 142.053 202.306 143.786 202.059 145.521C201.98 146.072 201.98 147.924 202.059 148.475C202.256 149.857 202.621 151.067 203.192 152.227C203.838 153.54 204.471 154.422 205.515 155.466C206.549 156.498 207.445 157.142 208.71 157.762C209.593 158.195 210.162 158.405 211.057 158.63C213.405 159.218 215.76 159.105 218.053 158.294C218.749 158.049 219.963 157.441 220.587 157.026C222.3 155.887 223.716 154.314 224.653 152.509C225.501 150.876 225.926 149.255 225.992 147.396C226.063 145.396 225.652 143.493 224.761 141.703C224.176 140.528 223.525 139.608 222.611 138.662C221.597 137.614 220.602 136.891 219.272 136.234C217.882 135.548 216.586 135.182 215.047 135.04C214.569 134.995 213.482 134.986 213.099 135.023ZM214.953 136.446C217.788 136.706 220.493 138.158 222.255 140.367C224.354 142.998 225.094 146.445 224.253 149.671C223.769 151.528 222.664 153.392 221.281 154.689C217.393 158.33 211.518 158.57 207.358 155.257C205.144 153.494 203.689 150.792 203.429 147.959C203.116 144.547 204.524 141.116 207.137 138.919C209.317 137.086 212.152 136.19 214.953 136.446ZM211.543 139.361C211.449 139.415 211.328 139.539 211.274 139.636C211.177 139.808 211.175 139.861 211.175 141.998V144.184H208.986C206.845 144.184 206.794 144.186 206.621 144.283C206.524 144.338 206.4 144.462 206.345 144.559C206.248 144.733 206.246 144.781 206.246 146.998C206.246 149.215 206.248 149.263 206.345 149.436C206.4 149.534 206.524 149.658 206.621 149.712C206.794 149.81 206.845 149.812 208.986 149.812H211.175V151.998C211.175 154.138 211.177 154.188 211.274 154.361C211.329 154.458 211.453 154.582 211.55 154.637C211.724 154.734 211.773 154.736 213.961 154.736C216.508 154.736 216.485 154.739 216.692 154.386L216.808 154.188V152V149.812H218.992C221.072 149.812 221.186 149.807 221.358 149.719C221.482 149.656 221.57 149.563 221.638 149.423C221.734 149.225 221.737 149.161 221.737 146.978C221.737 144.742 221.736 144.736 221.631 144.549C221.423 144.178 221.465 144.184 218.992 144.184H216.808V141.998C216.808 139.82 216.807 139.811 216.702 139.625C216.641 139.515 216.525 139.401 216.423 139.349C216.258 139.265 216.116 139.26 213.981 139.261C211.761 139.262 211.711 139.264 211.543 139.361ZM215.399 142.849C215.399 144.944 215.403 145.039 215.494 145.217C215.555 145.336 215.654 145.436 215.774 145.496C215.951 145.587 216.047 145.591 218.144 145.591H220.328V146.998V148.405H218.144C216.047 148.405 215.951 148.409 215.774 148.499C215.654 148.56 215.555 148.66 215.494 148.779C215.403 148.956 215.399 149.052 215.399 151.146V153.329H213.991H212.583V151.146C212.583 149.052 212.579 148.956 212.488 148.779C212.427 148.66 212.328 148.56 212.208 148.499C212.031 148.409 211.935 148.405 209.839 148.405H207.654V146.998V145.591H209.839C211.935 145.591 212.031 145.587 212.208 145.496C212.328 145.436 212.427 145.336 212.488 145.217C212.579 145.039 212.583 144.944 212.583 142.849V140.667H213.991H215.399V142.849Z" fill="#111111"/>
<path fill-rule="evenodd" clip-rule="evenodd" d="M221.187 175.289C220.872 175.449 219.58 176.643 218.317 177.943L216.021 180.306L210.426 178.457L204.83 176.608L203.212 178.198C202.322 179.073 201.629 179.845 201.672 179.914C201.715 179.982 203.776 181.264 206.252 182.762C208.728 184.26 210.755 185.538 210.757 185.601C210.758 185.664 209.919 186.583 208.893 187.644L207.028 189.572L205.537 189.337L204.046 189.102L202.523 190.597C201.685 191.42 201 192.142 201 192.202C201 192.261 202.133 192.696 203.518 193.168L206.036 194.026L206.904 196.513C207.382 197.881 207.822 199 207.883 199C207.944 199 208.674 198.323 209.507 197.496L211.021 195.991L210.783 194.519L210.545 193.046L212.497 191.204C213.571 190.19 214.502 189.362 214.566 189.363C214.629 189.364 215.922 191.367 217.439 193.812C218.956 196.258 220.254 198.294 220.323 198.337C220.393 198.379 221.174 197.695 222.06 196.815L223.67 195.217L221.801 189.69L219.931 184.163L222.415 181.801C223.781 180.501 224.989 179.199 225.1 178.906C225.995 176.541 223.419 174.16 221.187 175.289ZM223.421 176.821C223.642 177.019 223.771 177.396 223.771 177.846C223.771 178.516 223.611 178.709 221.094 181.077C219.622 182.463 218.417 183.725 218.416 183.883C218.414 184.041 219.222 186.563 220.21 189.488L222.007 194.805L221.297 195.49L220.588 196.174L217.753 191.626C216.194 189.124 214.856 187.102 214.779 187.132C214.703 187.163 213.373 188.389 211.825 189.858L209.01 192.529L209.248 194.064C209.481 195.571 209.478 195.607 209.034 196.073C208.786 196.334 208.526 196.483 208.458 196.404C208.389 196.324 208.092 195.579 207.798 194.747C207.503 193.916 207.167 193.141 207.049 193.025C206.932 192.909 206.147 192.576 205.305 192.285C204.463 191.995 203.709 191.701 203.629 191.634C203.548 191.566 203.697 191.311 203.96 191.067C204.426 190.635 204.476 190.629 206.007 190.843L207.576 191.062L210.268 188.295C211.748 186.773 212.984 185.465 213.015 185.388C213.046 185.312 211 183.989 208.468 182.449L203.864 179.649L204.555 178.95L205.247 178.251L210.63 180.026C213.591 181.002 216.144 181.801 216.304 181.801C216.464 181.8 217.742 180.61 219.145 179.155C221.5 176.709 221.746 176.508 222.382 176.508C222.761 176.508 223.228 176.649 223.421 176.821Z" fill="#111111"/>
<path fill-rule="evenodd" clip-rule="evenodd" d="M210.267 217.087C210.161 217.136 210.024 217.246 209.962 217.333C209.85 217.491 209.849 217.495 209.836 218.959L209.822 220.426L206.928 220.439L204.034 220.453L203.72 220.575C203.548 220.643 203.301 220.766 203.171 220.85C202.619 221.205 202.149 221.91 202.041 222.545C202.005 222.759 201.994 224.521 202.003 228.445L202.017 234.039L202.139 234.353C202.477 235.224 203.168 235.83 204.034 236.012C204.528 236.117 223.472 236.117 223.966 236.012C224.411 235.919 224.803 235.717 225.146 235.405C225.479 235.103 225.69 234.792 225.861 234.353L225.983 234.039L225.997 228.445C226.006 224.521 225.995 222.759 225.959 222.545C225.851 221.91 225.381 221.205 224.829 220.85C224.699 220.766 224.452 220.643 224.28 220.575L223.966 220.453L221.072 220.439L218.178 220.426L218.164 218.959C218.151 217.495 218.15 217.491 218.038 217.333C217.976 217.246 217.839 217.136 217.733 217.087C217.551 217.005 217.353 217 214 217C210.647 217 210.449 217.005 210.267 217.087ZM216.673 219.466V220.43H214H211.327V219.466V218.502H214H216.673V219.466ZM206.168 228.261V234.589L205.241 234.57C204.203 234.548 204.095 234.522 203.806 234.225C203.479 233.887 203.494 234.171 203.494 228.257C203.494 222.299 203.477 222.609 203.823 222.262C204.098 221.986 204.307 221.941 205.312 221.937L206.168 221.934V228.261ZM220.32 228.245L220.308 234.556H214H207.692L207.68 228.245L207.668 221.934H214H220.332L220.32 228.245ZM223.749 222.007C224.077 222.104 224.336 222.364 224.433 222.692C224.497 222.908 224.506 223.582 224.506 228.257C224.506 234.171 224.521 233.887 224.194 234.225C223.905 234.522 223.797 234.548 222.759 234.57L221.832 234.589V228.261V221.934H222.668C223.288 221.934 223.567 221.953 223.749 222.007Z" fill="#111111"/>
</svg>
