<svg width="470" height="469" viewBox="0 0 470 469" fill="none" xmlns="http://www.w3.org/2000/svg">
<rect x="0.5" y="0.584229" width="335" height="467" rx="11.5" fill="white" stroke="#111111"/>
<path d="M45.216 68.2842H49.104L43.92 85.0842H40.008L36.672 73.6362L33.336 85.0842H29.424L24.24 68.2842H28.128L31.464 80.9802L35.088 68.2842H38.256L41.88 80.9802L45.216 68.2842ZM50.7519 68.2842H54.0879V74.6202C55.0799 73.6922 56.2319 73.2282 57.5439 73.2282C59.0159 73.2282 60.1599 73.6762 60.9759 74.5722C61.8079 75.4522 62.2239 76.5802 62.2239 77.9562V85.0842H58.8879V78.3882C58.8879 77.6362 58.6799 77.0682 58.2639 76.6842C57.8639 76.3002 57.3279 76.1082 56.6559 76.1082C55.6159 76.1082 54.7599 76.5962 54.0879 77.5722V85.0842H50.7519V68.2842ZM66.1082 83.8122C64.8762 82.7402 64.2602 81.2442 64.2602 79.3242C64.2602 77.4042 64.8762 75.9082 66.1082 74.8362C67.3402 73.7642 68.8442 73.2282 70.6202 73.2282C72.4122 73.2282 73.9162 73.7642 75.1322 74.8362C76.3642 75.9082 76.9802 77.4042 76.9802 79.3242C76.9802 81.2442 76.3642 82.7402 75.1322 83.8122C73.9162 84.8842 72.4122 85.4202 70.6202 85.4202C68.8442 85.4202 67.3402 84.8842 66.1082 83.8122ZM72.8042 81.5802C73.3322 80.9882 73.5962 80.2362 73.5962 79.3242C73.5962 78.4122 73.3322 77.6682 72.8042 77.0922C72.2762 76.5002 71.5482 76.2042 70.6202 76.2042C69.6922 76.2042 68.9642 76.5002 68.4362 77.0922C67.9242 77.6682 67.6682 78.4122 67.6682 79.3242C67.6682 80.2362 67.9242 80.9882 68.4362 81.5802C68.9642 82.1562 69.6922 82.4442 70.6202 82.4442C71.5482 82.4442 72.2762 82.1562 72.8042 81.5802ZM84.9441 70.2042L88.2561 69.4122V73.5642H91.9041V76.3722H88.2561V80.8842C88.2561 82.0362 88.8721 82.6122 90.1041 82.6122C90.8401 82.6122 91.5361 82.4842 92.1921 82.2282V84.9162C91.2321 85.2522 90.2001 85.4202 89.0961 85.4202C87.8801 85.4202 86.8801 85.1082 86.0961 84.4842C85.3281 83.8602 84.9441 82.8762 84.9441 81.5322V76.3722H83.0001V73.5642H84.9441V70.2042ZM95.3113 83.8122C94.0793 82.7402 93.4633 81.2442 93.4633 79.3242C93.4633 77.4042 94.0793 75.9082 95.3113 74.8362C96.5433 73.7642 98.0473 73.2282 99.8233 73.2282C101.615 73.2282 103.119 73.7642 104.335 74.8362C105.567 75.9082 106.183 77.4042 106.183 79.3242C106.183 81.2442 105.567 82.7402 104.335 83.8122C103.119 84.8842 101.615 85.4202 99.8233 85.4202C98.0473 85.4202 96.5433 84.8842 95.3113 83.8122ZM102.007 81.5802C102.535 80.9882 102.799 80.2362 102.799 79.3242C102.799 78.4122 102.535 77.6682 102.007 77.0922C101.479 76.5002 100.751 76.2042 99.8233 76.2042C98.8953 76.2042 98.1673 76.5002 97.6393 77.0922C97.1273 77.6682 96.8713 78.4122 96.8713 79.3242C96.8713 80.2362 97.1273 80.9882 97.6393 81.5802C98.1673 82.1562 98.8953 82.4442 99.8233 82.4442C100.751 82.4442 101.479 82.1562 102.007 81.5802ZM116.634 75.2442C117.578 73.9002 118.97 73.2282 120.81 73.2282C122.554 73.2282 123.922 73.8282 124.914 75.0282C125.922 76.2122 126.426 77.6442 126.426 79.3242C126.426 81.0042 125.922 82.4442 124.914 83.6442C123.922 84.8282 122.554 85.4202 120.81 85.4202C119.226 85.4202 117.962 84.9002 117.018 83.8602V90.3642H113.682V73.5642H116.634V75.2442ZM122.202 81.6762C122.746 81.0362 123.018 80.2522 123.018 79.3242C123.018 78.3962 122.746 77.6202 122.202 76.9962C121.658 76.3562 120.922 76.0362 119.994 76.0362C119.306 76.0362 118.69 76.2202 118.146 76.5882C117.618 76.9562 117.234 77.4122 116.994 77.9562V80.6922C117.234 81.2362 117.618 81.6922 118.146 82.0602C118.69 82.4282 119.306 82.6122 119.994 82.6122C120.922 82.6122 121.658 82.3002 122.202 81.6762ZM138.907 82.1082C138.907 82.6202 139.179 82.8762 139.723 82.8762C139.947 82.8762 140.155 82.8442 140.347 82.7802V84.9642C139.739 85.1882 139.123 85.3002 138.499 85.3002C137.283 85.3002 136.435 84.8682 135.955 84.0042C134.755 84.9482 133.371 85.4202 131.803 85.4202C130.667 85.4202 129.707 85.1082 128.923 84.4842C128.155 83.8442 127.771 82.9802 127.771 81.8922C127.771 80.9802 128.043 80.2202 128.587 79.6122C129.131 79.0042 129.763 78.5962 130.483 78.3882C131.203 78.1642 131.987 78.0522 132.835 78.0522C133.779 78.0522 134.691 78.1562 135.571 78.3642V77.9562C135.571 77.3642 135.339 76.8922 134.875 76.5402C134.411 76.1882 133.739 76.0122 132.859 76.0122C131.579 76.0122 130.219 76.3002 128.779 76.8762V73.9962C130.315 73.4842 131.803 73.2282 133.243 73.2282C137.019 73.2282 138.907 74.9642 138.907 78.4362V82.1082ZM133.603 80.0442C132.915 80.0442 132.339 80.1722 131.875 80.4282C131.411 80.6842 131.179 81.0842 131.179 81.6282C131.179 82.0442 131.347 82.3882 131.683 82.6602C132.035 82.9162 132.467 83.0442 132.979 83.0442C133.987 83.0442 134.851 82.7322 135.571 82.1082V80.3082C134.835 80.1322 134.179 80.0442 133.603 80.0442ZM146.718 81.3402L149.574 73.5642H153.03L147.918 86.4762C146.782 89.2762 145.126 90.6762 142.95 90.6762C142.486 90.6762 141.886 90.5882 141.15 90.4122V87.6522C141.678 87.7642 142.134 87.8202 142.518 87.8202C143.734 87.8202 144.646 86.9802 145.254 85.3002L145.278 85.2522L139.83 73.5642H143.358L146.718 81.3402Z" fill="#111111"/>
<path d="M100.15 225.084H98.05V215.284H100.024L104.588 221.682C104.56 221.281 104.546 220.833 104.546 220.338V215.284H106.646V225.084H104.672L100.108 218.686C100.136 219.088 100.15 219.536 100.15 220.03V225.084ZM110.407 225.084H108.461V218.364H110.407V225.084ZM110.575 216.138C110.575 216.502 110.468 216.778 110.253 216.964C110.039 217.151 109.763 217.244 109.427 217.244C109.101 217.244 108.83 217.151 108.615 216.964C108.401 216.778 108.293 216.502 108.293 216.138C108.293 215.784 108.401 215.513 108.615 215.326C108.83 215.14 109.101 215.046 109.427 215.046C109.754 215.046 110.025 215.14 110.239 215.326C110.463 215.513 110.575 215.784 110.575 216.138ZM111.636 221.822C111.636 221.206 111.743 220.656 111.958 220.17C112.182 219.685 112.476 219.302 112.84 219.022C113.204 218.733 113.605 218.518 114.044 218.378C114.483 218.229 114.945 218.154 115.43 218.154C116.205 218.154 116.895 218.318 117.502 218.644V220.352C116.979 220.016 116.382 219.848 115.71 219.848C115.122 219.848 114.627 220.002 114.226 220.31C113.825 220.618 113.624 221.09 113.624 221.724C113.624 222.331 113.825 222.798 114.226 223.124C114.627 223.442 115.113 223.6 115.682 223.6C116.401 223.6 117.031 223.437 117.572 223.11V224.832C116.872 225.131 116.116 225.28 115.304 225.28C114.296 225.28 113.433 224.986 112.714 224.398C111.995 223.801 111.636 222.942 111.636 221.822ZM125.653 225.084H123.469L121.537 222.424H120.753V225.084H118.807V215.284H120.753V220.87H121.565L123.273 218.364H125.457L123.147 221.682L125.653 225.084ZM130.127 215.284H134.831V222.13C134.831 223.213 134.505 224.006 133.851 224.51C133.198 225.014 132.358 225.266 131.331 225.266C130.379 225.266 129.535 225.098 128.797 224.762V222.802C129.376 223.157 130.053 223.334 130.827 223.334C132.097 223.334 132.731 222.854 132.731 221.892V217.174H130.127V215.284ZM137.112 224.342C136.393 223.717 136.034 222.844 136.034 221.724C136.034 220.604 136.393 219.732 137.112 219.106C137.831 218.481 138.708 218.168 139.744 218.168C140.789 218.168 141.667 218.481 142.376 219.106C143.095 219.732 143.454 220.604 143.454 221.724C143.454 222.844 143.095 223.717 142.376 224.342C141.667 224.968 140.789 225.28 139.744 225.28C138.708 225.28 137.831 224.968 137.112 224.342ZM141.018 223.04C141.326 222.695 141.48 222.256 141.48 221.724C141.48 221.192 141.326 220.758 141.018 220.422C140.71 220.077 140.285 219.904 139.744 219.904C139.203 219.904 138.778 220.077 138.47 220.422C138.171 220.758 138.022 221.192 138.022 221.724C138.022 222.256 138.171 222.695 138.47 223.04C138.778 223.376 139.203 223.544 139.744 223.544C140.285 223.544 140.71 223.376 141.018 223.04ZM144.654 215.284H146.6V218.98C147.179 218.439 147.851 218.168 148.616 218.168C149.475 218.168 150.142 218.43 150.618 218.952C151.104 219.466 151.346 220.124 151.346 220.926V225.084H149.4V221.178C149.4 220.74 149.279 220.408 149.036 220.184C148.803 219.96 148.49 219.848 148.098 219.848C147.492 219.848 146.992 220.133 146.6 220.702V225.084H144.654V215.284ZM158.848 223.348C158.848 223.647 159.007 223.796 159.324 223.796C159.455 223.796 159.576 223.778 159.688 223.74V225.014C159.334 225.145 158.974 225.21 158.61 225.21C157.901 225.21 157.406 224.958 157.126 224.454C156.426 225.005 155.619 225.28 154.704 225.28C154.042 225.28 153.482 225.098 153.024 224.734C152.576 224.361 152.352 223.857 152.352 223.222C152.352 222.69 152.511 222.247 152.828 221.892C153.146 221.538 153.514 221.3 153.934 221.178C154.354 221.048 154.812 220.982 155.306 220.982C155.857 220.982 156.389 221.043 156.902 221.164V220.926C156.902 220.581 156.767 220.306 156.496 220.1C156.226 219.895 155.834 219.792 155.32 219.792C154.574 219.792 153.78 219.96 152.94 220.296V218.616C153.836 218.318 154.704 218.168 155.544 218.168C157.747 218.168 158.848 219.181 158.848 221.206V223.348ZM155.754 222.144C155.353 222.144 155.017 222.219 154.746 222.368C154.476 222.518 154.34 222.751 154.34 223.068C154.34 223.311 154.438 223.512 154.634 223.67C154.84 223.82 155.092 223.894 155.39 223.894C155.978 223.894 156.482 223.712 156.902 223.348V222.298C156.473 222.196 156.09 222.144 155.754 222.144ZM162.26 219.218C162.866 218.518 163.613 218.168 164.5 218.168C165.358 218.168 166.026 218.43 166.502 218.952C166.987 219.466 167.23 220.124 167.23 220.926V225.084H165.284V221.178C165.284 220.74 165.162 220.408 164.92 220.184C164.686 219.96 164.374 219.848 163.982 219.848C163.375 219.848 162.876 220.133 162.484 220.702V225.084H160.538V218.364H162.26V219.218ZM171.703 220.856H176.911V222.494H171.703V220.856ZM188.113 215.284H190.199V221.402C190.199 221.962 190.119 222.466 189.961 222.914C189.802 223.362 189.587 223.731 189.317 224.02C189.046 224.31 188.724 224.552 188.351 224.748C187.977 224.944 187.585 225.08 187.175 225.154C186.773 225.238 186.349 225.28 185.901 225.28C185.453 225.28 185.023 225.238 184.613 225.154C184.211 225.08 183.824 224.944 183.451 224.748C183.077 224.552 182.755 224.31 182.485 224.02C182.214 223.731 181.999 223.362 181.841 222.914C181.682 222.466 181.603 221.962 181.603 221.402V215.284H183.703V221.29C183.703 222.69 184.435 223.39 185.901 223.39C187.375 223.39 188.113 222.69 188.113 221.29V215.284ZM191.697 217.874C191.697 216.969 192.037 216.278 192.719 215.802C193.4 215.326 194.254 215.088 195.281 215.088C196.513 215.088 197.572 215.34 198.459 215.844V217.804C197.628 217.207 196.62 216.918 195.435 216.936C194.371 216.955 193.839 217.258 193.839 217.846C193.839 218.108 193.969 218.336 194.231 218.532C194.501 218.728 194.833 218.887 195.225 219.008C195.626 219.12 196.055 219.27 196.513 219.456C196.979 219.634 197.409 219.83 197.801 220.044C198.202 220.25 198.533 220.558 198.795 220.968C199.065 221.379 199.201 221.855 199.201 222.396C199.201 222.928 199.098 223.386 198.893 223.768C198.697 224.151 198.417 224.45 198.053 224.664C197.689 224.879 197.287 225.033 196.849 225.126C196.41 225.229 195.92 225.28 195.379 225.28C194.016 225.28 192.807 224.986 191.753 224.398V222.396C192.798 223.087 193.955 223.432 195.225 223.432C196.447 223.432 197.059 223.12 197.059 222.494C197.059 222.214 196.923 221.972 196.653 221.766C196.391 221.552 196.06 221.384 195.659 221.262C195.267 221.132 194.837 220.978 194.371 220.8C193.913 220.614 193.484 220.418 193.083 220.212C192.691 219.998 192.359 219.69 192.089 219.288C191.827 218.887 191.697 218.416 191.697 217.874ZM200.551 215.284H204.219C205.899 215.284 207.173 215.732 208.041 216.628C208.918 217.515 209.357 218.7 209.357 220.184C209.357 221.668 208.918 222.858 208.041 223.754C207.173 224.641 205.899 225.084 204.219 225.084H200.551V215.284ZM206.445 222.466C206.958 221.953 207.215 221.192 207.215 220.184C207.215 219.176 206.958 218.416 206.445 217.902C205.941 217.389 205.199 217.132 204.219 217.132H202.651V223.236H204.219C205.199 223.236 205.941 222.98 206.445 222.466Z" fill="#111111"/>
<path d="M102.964 305.084H100.878V301.612L97.042 295.284H99.408L101.914 299.68L104.42 295.284H106.786L102.964 301.612V305.084ZM110.881 298.364H112.827V305.084H111.105V304.23C110.498 304.93 109.752 305.28 108.865 305.28C107.988 305.28 107.311 305.024 106.835 304.51C106.368 303.997 106.135 303.334 106.135 302.522V298.364H108.081V302.27C108.081 302.709 108.193 303.04 108.417 303.264C108.641 303.488 108.958 303.6 109.369 303.6C109.966 303.6 110.47 303.316 110.881 302.746V298.364ZM116.353 305.084H114.407V298.364H116.129V299.148C116.343 298.896 116.637 298.672 117.011 298.476C117.384 298.271 117.804 298.168 118.271 298.168C119.195 298.168 119.881 298.5 120.329 299.162C121.01 298.5 121.757 298.168 122.569 298.168C123.427 298.168 124.057 298.439 124.459 298.98C124.869 299.512 125.075 300.128 125.075 300.828V305.084H123.143V300.954C123.143 300.609 123.045 300.338 122.849 300.142C122.662 299.946 122.41 299.848 122.093 299.848C121.598 299.848 121.155 300.072 120.763 300.52C120.772 300.586 120.777 300.688 120.777 300.828V305.084H118.845V300.954C118.845 300.609 118.747 300.338 118.551 300.142C118.364 299.946 118.112 299.848 117.795 299.848C117.244 299.848 116.763 300.119 116.353 300.66V305.084ZM128.547 305.084H126.601V298.364H128.547V305.084ZM128.715 296.138C128.715 296.502 128.607 296.778 128.393 296.964C128.178 297.151 127.903 297.244 127.567 297.244C127.24 297.244 126.969 297.151 126.755 296.964C126.54 296.778 126.433 296.502 126.433 296.138C126.433 295.784 126.54 295.513 126.755 295.326C126.969 295.14 127.24 295.046 127.567 295.046C127.893 295.046 128.164 295.14 128.379 295.326C128.603 295.513 128.715 295.784 128.715 296.138ZM137.764 305.084H135.678V301.612L131.842 295.284H134.208L136.714 299.68L139.22 295.284H141.586L137.764 301.612V305.084ZM146.82 303.348C146.82 303.647 146.979 303.796 147.296 303.796C147.427 303.796 147.548 303.778 147.66 303.74V305.014C147.306 305.145 146.946 305.21 146.582 305.21C145.873 305.21 145.378 304.958 145.098 304.454C144.398 305.005 143.591 305.28 142.676 305.28C142.014 305.28 141.454 305.098 140.996 304.734C140.548 304.361 140.324 303.857 140.324 303.222C140.324 302.69 140.483 302.247 140.8 301.892C141.118 301.538 141.486 301.3 141.906 301.178C142.326 301.048 142.784 300.982 143.278 300.982C143.829 300.982 144.361 301.043 144.874 301.164V300.926C144.874 300.581 144.739 300.306 144.468 300.1C144.198 299.895 143.806 299.792 143.292 299.792C142.546 299.792 141.752 299.96 140.912 300.296V298.616C141.808 298.318 142.676 298.168 143.516 298.168C145.719 298.168 146.82 299.181 146.82 301.206V303.348ZM143.726 302.144C143.325 302.144 142.989 302.219 142.718 302.368C142.448 302.518 142.312 302.751 142.312 303.068C142.312 303.311 142.41 303.512 142.606 303.67C142.812 303.82 143.064 303.894 143.362 303.894C143.95 303.894 144.454 303.712 144.874 303.348V302.298C144.445 302.196 144.062 302.144 143.726 302.144ZM150.456 305.084H148.51V298.364H150.232V299.148C150.446 298.896 150.74 298.672 151.114 298.476C151.487 298.271 151.907 298.168 152.374 298.168C153.298 298.168 153.984 298.5 154.432 299.162C155.113 298.5 155.86 298.168 156.672 298.168C157.53 298.168 158.16 298.439 158.562 298.98C158.972 299.512 159.178 300.128 159.178 300.828V305.084H157.246V300.954C157.246 300.609 157.148 300.338 156.952 300.142C156.765 299.946 156.513 299.848 156.196 299.848C155.701 299.848 155.258 300.072 154.866 300.52C154.875 300.586 154.88 300.688 154.88 300.828V305.084H152.948V300.954C152.948 300.609 152.85 300.338 152.654 300.142C152.467 299.946 152.215 299.848 151.898 299.848C151.347 299.848 150.866 300.119 150.456 300.66V305.084ZM166.696 303.348C166.696 303.647 166.854 303.796 167.172 303.796C167.302 303.796 167.424 303.778 167.536 303.74V305.014C167.181 305.145 166.822 305.21 166.458 305.21C165.748 305.21 165.254 304.958 164.974 304.454C164.274 305.005 163.466 305.28 162.552 305.28C161.889 305.28 161.329 305.098 160.872 304.734C160.424 304.361 160.2 303.857 160.2 303.222C160.2 302.69 160.358 302.247 160.676 301.892C160.993 301.538 161.362 301.3 161.782 301.178C162.202 301.048 162.659 300.982 163.154 300.982C163.704 300.982 164.236 301.043 164.75 301.164V300.926C164.75 300.581 164.614 300.306 164.344 300.1C164.073 299.895 163.681 299.792 163.168 299.792C162.421 299.792 161.628 299.96 160.788 300.296V298.616C161.684 298.318 162.552 298.168 163.392 298.168C165.594 298.168 166.696 299.181 166.696 301.206V303.348ZM163.602 302.144C163.2 302.144 162.864 302.219 162.594 302.368C162.323 302.518 162.188 302.751 162.188 303.068C162.188 303.311 162.286 303.512 162.482 303.67C162.687 303.82 162.939 303.894 163.238 303.894C163.826 303.894 164.33 303.712 164.75 303.348V302.298C164.32 302.196 163.938 302.144 163.602 302.144ZM175.231 305.084H173.047L171.115 302.424H170.331V305.084H168.385V295.284H170.331V300.87H171.143L172.851 298.364H175.035L172.725 301.682L175.231 305.084ZM176.344 304.342C175.625 303.717 175.266 302.844 175.266 301.724C175.266 300.604 175.625 299.732 176.344 299.106C177.062 298.481 177.94 298.168 178.976 298.168C180.021 298.168 180.898 298.481 181.608 299.106C182.326 299.732 182.686 300.604 182.686 301.724C182.686 302.844 182.326 303.717 181.608 304.342C180.898 304.968 180.021 305.28 178.976 305.28C177.94 305.28 177.062 304.968 176.344 304.342ZM180.25 303.04C180.558 302.695 180.712 302.256 180.712 301.724C180.712 301.192 180.558 300.758 180.25 300.422C179.942 300.077 179.517 299.904 178.976 299.904C178.434 299.904 178.01 300.077 177.702 300.422C177.403 300.758 177.254 301.192 177.254 301.724C177.254 302.256 177.403 302.695 177.702 303.04C178.01 303.376 178.434 303.544 178.976 303.544C179.517 303.544 179.942 303.376 180.25 303.04ZM186.864 300.856H192.072V302.494H186.864V300.856ZM203.273 295.284H205.359V301.402C205.359 301.962 205.28 302.466 205.121 302.914C204.962 303.362 204.748 303.731 204.477 304.02C204.206 304.31 203.884 304.552 203.511 304.748C203.138 304.944 202.746 305.08 202.335 305.154C201.934 305.238 201.509 305.28 201.061 305.28C200.613 305.28 200.184 305.238 199.773 305.154C199.372 305.08 198.984 304.944 198.611 304.748C198.238 304.552 197.916 304.31 197.645 304.02C197.374 303.731 197.16 303.362 197.001 302.914C196.842 302.466 196.763 301.962 196.763 301.402V295.284H198.863V301.29C198.863 302.69 199.596 303.39 201.061 303.39C202.536 303.39 203.273 302.69 203.273 301.29V295.284ZM206.857 297.874C206.857 296.969 207.198 296.278 207.879 295.802C208.56 295.326 209.414 295.088 210.441 295.088C211.673 295.088 212.732 295.34 213.619 295.844V297.804C212.788 297.207 211.78 296.918 210.595 296.936C209.531 296.955 208.999 297.258 208.999 297.846C208.999 298.108 209.13 298.336 209.391 298.532C209.662 298.728 209.993 298.887 210.385 299.008C210.786 299.12 211.216 299.27 211.673 299.456C212.14 299.634 212.569 299.83 212.961 300.044C213.362 300.25 213.694 300.558 213.955 300.968C214.226 301.379 214.361 301.855 214.361 302.396C214.361 302.928 214.258 303.386 214.053 303.768C213.857 304.151 213.577 304.45 213.213 304.664C212.849 304.879 212.448 305.033 212.009 305.126C211.57 305.229 211.08 305.28 210.539 305.28C209.176 305.28 207.968 304.986 206.913 304.398V302.396C207.958 303.087 209.116 303.432 210.385 303.432C211.608 303.432 212.219 303.12 212.219 302.494C212.219 302.214 212.084 301.972 211.813 301.766C211.552 301.552 211.22 301.384 210.819 301.262C210.427 301.132 209.998 300.978 209.531 300.8C209.074 300.614 208.644 300.418 208.243 300.212C207.851 299.998 207.52 299.69 207.249 299.288C206.988 298.887 206.857 298.416 206.857 297.874ZM215.711 295.284H219.379C221.059 295.284 222.333 295.732 223.201 296.628C224.079 297.515 224.517 298.7 224.517 300.184C224.517 301.668 224.079 302.858 223.201 303.754C222.333 304.641 221.059 305.084 219.379 305.084H215.711V295.284ZM221.605 302.466C222.119 301.953 222.375 301.192 222.375 300.184C222.375 299.176 222.119 298.416 221.605 297.902C221.101 297.389 220.359 297.132 219.379 297.132H217.811V303.236H219.379C220.359 303.236 221.101 302.98 221.605 302.466Z" fill="#111111"/>
<path d="M98.526 373.284H103.23V380.13C103.23 381.213 102.903 382.006 102.25 382.51C101.597 383.014 100.757 383.266 99.73 383.266C98.778 383.266 97.9333 383.098 97.196 382.762V380.802C97.7747 381.157 98.4513 381.334 99.226 381.334C100.495 381.334 101.13 380.854 101.13 379.892V375.174H98.526V373.284ZM105.511 382.342C104.792 381.717 104.433 380.844 104.433 379.724C104.433 378.604 104.792 377.732 105.511 377.106C106.229 376.481 107.107 376.168 108.143 376.168C109.188 376.168 110.065 376.481 110.775 377.106C111.493 377.732 111.853 378.604 111.853 379.724C111.853 380.844 111.493 381.717 110.775 382.342C110.065 382.968 109.188 383.28 108.143 383.28C107.107 383.28 106.229 382.968 105.511 382.342ZM109.417 381.04C109.725 380.695 109.879 380.256 109.879 379.724C109.879 379.192 109.725 378.758 109.417 378.422C109.109 378.077 108.684 377.904 108.143 377.904C107.601 377.904 107.177 378.077 106.869 378.422C106.57 378.758 106.421 379.192 106.421 379.724C106.421 380.256 106.57 380.695 106.869 381.04C107.177 381.376 107.601 381.544 108.143 381.544C108.684 381.544 109.109 381.376 109.417 381.04ZM112.675 379.724C112.675 379.118 112.783 378.581 112.997 378.114C113.212 377.638 113.492 377.265 113.837 376.994C114.192 376.724 114.561 376.518 114.943 376.378C115.335 376.238 115.732 376.168 116.133 376.168C116.805 376.168 117.384 376.294 117.869 376.546C118.364 376.798 118.728 377.125 118.961 377.526C119.195 377.918 119.353 378.366 119.437 378.87C119.531 379.365 119.507 379.86 119.367 380.354H114.635C114.738 380.821 115.009 381.171 115.447 381.404C115.886 381.628 116.404 381.74 117.001 381.74C117.739 381.74 118.415 381.605 119.031 381.334V382.86C118.369 383.14 117.547 383.28 116.567 383.28C115.447 383.28 114.519 382.968 113.781 382.342C113.044 381.717 112.675 380.844 112.675 379.724ZM117.617 379.094C117.664 378.786 117.575 378.469 117.351 378.142C117.127 377.816 116.745 377.652 116.203 377.652C115.774 377.652 115.405 377.783 115.097 378.044C114.789 378.296 114.631 378.646 114.621 379.094H117.617ZM123.463 375.874C123.463 374.969 123.804 374.278 124.485 373.802C125.166 373.326 126.02 373.088 127.047 373.088C128.279 373.088 129.338 373.34 130.225 373.844V375.804C129.394 375.207 128.386 374.918 127.201 374.936C126.137 374.955 125.605 375.258 125.605 375.846C125.605 376.108 125.736 376.336 125.997 376.532C126.268 376.728 126.599 376.887 126.991 377.008C127.392 377.12 127.822 377.27 128.279 377.456C128.746 377.634 129.175 377.83 129.567 378.044C129.968 378.25 130.3 378.558 130.561 378.968C130.832 379.379 130.967 379.855 130.967 380.396C130.967 380.928 130.864 381.386 130.659 381.768C130.463 382.151 130.183 382.45 129.819 382.664C129.455 382.879 129.054 383.033 128.615 383.126C128.176 383.229 127.686 383.28 127.145 383.28C125.782 383.28 124.574 382.986 123.519 382.398V380.396C124.564 381.087 125.722 381.432 126.991 381.432C128.214 381.432 128.825 381.12 128.825 380.494C128.825 380.214 128.69 379.972 128.419 379.766C128.158 379.552 127.826 379.384 127.425 379.262C127.033 379.132 126.604 378.978 126.137 378.8C125.68 378.614 125.25 378.418 124.849 378.212C124.457 377.998 124.126 377.69 123.855 377.288C123.594 376.887 123.463 376.416 123.463 375.874ZM134.039 383.084H132.093V376.364H133.815V377.148C134.03 376.896 134.324 376.672 134.697 376.476C135.071 376.271 135.491 376.168 135.957 376.168C136.881 376.168 137.567 376.5 138.015 377.162C138.697 376.5 139.443 376.168 140.255 376.168C141.114 376.168 141.744 376.439 142.145 376.98C142.556 377.512 142.761 378.128 142.761 378.828V383.084H140.829V378.954C140.829 378.609 140.731 378.338 140.535 378.142C140.349 377.946 140.097 377.848 139.779 377.848C139.285 377.848 138.841 378.072 138.449 378.52C138.459 378.586 138.463 378.688 138.463 378.828V383.084H136.531V378.954C136.531 378.609 136.433 378.338 136.237 378.142C136.051 377.946 135.799 377.848 135.481 377.848C134.931 377.848 134.45 378.119 134.039 378.66V383.084ZM146.233 383.084H144.287V376.364H146.233V383.084ZM146.401 374.138C146.401 374.502 146.294 374.778 146.079 374.964C145.865 375.151 145.589 375.244 145.253 375.244C144.927 375.244 144.656 375.151 144.441 374.964C144.227 374.778 144.119 374.502 144.119 374.138C144.119 373.784 144.227 373.513 144.441 373.326C144.656 373.14 144.927 373.046 145.253 373.046C145.58 373.046 145.851 373.14 146.065 373.326C146.289 373.513 146.401 373.784 146.401 374.138ZM148.344 374.404L150.276 373.942V376.364H152.404V378.002H150.276V380.634C150.276 381.306 150.635 381.642 151.354 381.642C151.783 381.642 152.189 381.568 152.572 381.418V382.986C152.012 383.182 151.41 383.28 150.766 383.28C150.057 383.28 149.473 383.098 149.016 382.734C148.568 382.37 148.344 381.796 148.344 381.012V378.002H147.21V376.364H148.344V374.404ZM153.621 373.284H155.567V376.98C156.146 376.439 156.818 376.168 157.583 376.168C158.442 376.168 159.109 376.43 159.585 376.952C160.071 377.466 160.313 378.124 160.313 378.926V383.084H158.367V379.178C158.367 378.74 158.246 378.408 158.003 378.184C157.77 377.96 157.457 377.848 157.065 377.848C156.459 377.848 155.959 378.133 155.567 378.702V383.084H153.621V373.284ZM164.787 378.856H169.995V380.494H164.787V378.856ZM181.196 373.284H183.282V379.402C183.282 379.962 183.203 380.466 183.044 380.914C182.886 381.362 182.671 381.731 182.4 382.02C182.13 382.31 181.808 382.552 181.434 382.748C181.061 382.944 180.669 383.08 180.258 383.154C179.857 383.238 179.432 383.28 178.984 383.28C178.536 383.28 178.107 383.238 177.696 383.154C177.295 383.08 176.908 382.944 176.534 382.748C176.161 382.552 175.839 382.31 175.568 382.02C175.298 381.731 175.083 381.362 174.924 380.914C174.766 380.466 174.686 379.962 174.686 379.402V373.284H176.786V379.29C176.786 380.69 177.519 381.39 178.984 381.39C180.459 381.39 181.196 380.69 181.196 379.29V373.284ZM184.78 375.874C184.78 374.969 185.121 374.278 185.802 373.802C186.484 373.326 187.338 373.088 188.364 373.088C189.596 373.088 190.656 373.34 191.542 373.844V375.804C190.712 375.207 189.704 374.918 188.518 374.936C187.454 374.955 186.922 375.258 186.922 375.846C186.922 376.108 187.053 376.336 187.314 376.532C187.585 376.728 187.916 376.887 188.308 377.008C188.71 377.12 189.139 377.27 189.596 377.456C190.063 377.634 190.492 377.83 190.884 378.044C191.286 378.25 191.617 378.558 191.878 378.968C192.149 379.379 192.284 379.855 192.284 380.396C192.284 380.928 192.182 381.386 191.976 381.768C191.78 382.151 191.5 382.45 191.136 382.664C190.772 382.879 190.371 383.033 189.932 383.126C189.494 383.229 189.004 383.28 188.462 383.28C187.1 383.28 185.891 382.986 184.836 382.398V380.396C185.882 381.087 187.039 381.432 188.308 381.432C189.531 381.432 190.142 381.12 190.142 380.494C190.142 380.214 190.007 379.972 189.736 379.766C189.475 379.552 189.144 379.384 188.742 379.262C188.35 379.132 187.921 378.978 187.454 378.8C186.997 378.614 186.568 378.418 186.166 378.212C185.774 377.998 185.443 377.69 185.172 377.288C184.911 376.887 184.78 376.416 184.78 375.874ZM193.634 373.284H197.302C198.982 373.284 200.256 373.732 201.124 374.628C202.002 375.515 202.44 376.7 202.44 378.184C202.44 379.668 202.002 380.858 201.124 381.754C200.256 382.641 198.982 383.084 197.302 383.084H193.634V373.284ZM199.528 380.466C200.042 379.953 200.298 379.192 200.298 378.184C200.298 377.176 200.042 376.416 199.528 375.902C199.024 375.389 198.282 375.132 197.302 375.132H195.734V381.236H197.302C198.282 381.236 199.024 380.98 199.528 380.466Z" fill="#111111"/>
<rect x="97" y="238.084" width="72" height="8" fill="#FAFF00"/>
<rect x="97" y="318.084" width="72" height="8" fill="#FAFF00"/>
<rect x="97" y="396.084" width="72" height="8" fill="#FAFF00"/>
<rect x="97" y="254.084" width="72" height="8" fill="#FAFF00"/>
<rect x="97" y="334.084" width="72" height="8" fill="#FAFF00"/>
<rect x="97" y="412.084" width="72" height="8" fill="#FAFF00"/>
<rect x="24.5" y="194.584" width="287" height="250" rx="6.5" stroke="#111111"/>
<rect x="24" y="162.084" width="288" height="16" rx="7" fill="#E4F0FB"/>
<path d="M40 36.0765L40 34.0765L27.7903 34.0765L32.4583 29.4535L31.0602 28.0842L24 35.0765L31.0602 42.0842L32.4583 40.6842L27.7903 36.0765L40 36.0765Z" fill="#111111"/>
<rect x="24.5" y="106.584" width="287" height="31" rx="6.5" stroke="#111111"/>
<rect x="28.5" y="110.584" width="137" height="23" rx="4.5" fill="white" stroke="#111111"/>
<rect x="216" y="118.084" width="56" height="8" fill="#E4F0FB"/>
<path d="M50.6891 116.284H54.8331C55.8784 116.284 56.6998 116.494 57.2971 116.914C57.8944 117.334 58.1931 117.95 58.1931 118.762C58.1931 119.322 58.0484 119.789 57.7591 120.162C57.4698 120.526 57.1011 120.778 56.6531 120.918C57.1851 121.068 57.6378 121.343 58.0111 121.744C58.3938 122.136 58.5851 122.678 58.5851 123.368C58.5851 123.891 58.4684 124.344 58.2351 124.726C58.0018 125.1 57.6891 125.38 57.2971 125.566C56.9051 125.753 56.5084 125.888 56.1071 125.972C55.7151 126.047 55.2998 126.084 54.8611 126.084H50.6891V116.284ZM56.9611 123.2C56.9611 122.202 56.2844 121.702 54.9311 121.702H52.2851V124.684H54.7071C55.0338 124.684 55.3091 124.67 55.5331 124.642C55.7571 124.614 55.9858 124.554 56.2191 124.46C56.4618 124.367 56.6438 124.218 56.7651 124.012C56.8958 123.798 56.9611 123.527 56.9611 123.2ZM56.5691 119.014C56.5691 118.118 55.9344 117.67 54.6651 117.67H52.2851V120.344L54.8891 120.358C55.3838 120.358 55.7851 120.246 56.0931 120.022C56.4104 119.798 56.5691 119.462 56.5691 119.014ZM65.7591 124.53C65.7591 124.857 65.9224 125.02 66.2491 125.02C66.3611 125.02 66.5104 124.992 66.6971 124.936V126.014C66.4171 126.126 66.0998 126.182 65.7451 126.182C65.0731 126.182 64.6251 125.921 64.4011 125.398C63.6824 125.977 62.8378 126.266 61.8671 126.266C61.2138 126.266 60.6584 126.089 60.2011 125.734C59.7438 125.37 59.5151 124.862 59.5151 124.208C59.5151 123.424 59.8091 122.855 60.3971 122.5C60.9851 122.136 61.6898 121.954 62.5111 121.954C63.0524 121.954 63.6358 122.02 64.2611 122.15V121.912C64.2611 121.483 64.1071 121.138 63.7991 120.876C63.4911 120.615 63.0571 120.484 62.4971 120.484C61.6664 120.484 60.8591 120.657 60.0751 121.002V119.63C60.9524 119.332 61.8111 119.182 62.6511 119.182C63.6311 119.182 64.3918 119.425 64.9331 119.91C65.4838 120.396 65.7591 121.133 65.7591 122.122V124.53ZM62.8051 123.004C62.3104 123.004 61.8951 123.093 61.5591 123.27C61.2231 123.448 61.0551 123.728 61.0551 124.11C61.0551 124.428 61.1764 124.675 61.4191 124.852C61.6618 125.02 61.9604 125.104 62.3151 125.104C63.0804 125.104 63.7291 124.838 64.2611 124.306V123.172C63.7198 123.06 63.2344 123.004 62.8051 123.004ZM68.9904 120.288C69.6064 119.551 70.3857 119.182 71.3284 119.182C72.1684 119.182 72.8404 119.439 73.3444 119.952C73.8484 120.456 74.1004 121.114 74.1004 121.926V126.084H72.6024V122.122C72.6024 121.6 72.4577 121.203 72.1684 120.932C71.879 120.652 71.501 120.512 71.0344 120.512C70.297 120.512 69.6717 120.886 69.1584 121.632V126.084H67.6604V119.364H68.9904V120.288ZM82.3309 126.084H80.6089L78.3969 123.298H77.3189V126.084H75.8209V116.284H77.3189V122.024H78.4249L80.3569 119.364H82.0649L79.6289 122.696L82.3309 126.084ZM92.1803 124.53C92.1803 124.857 92.3436 125.02 92.6703 125.02C92.7823 125.02 92.9316 124.992 93.1183 124.936V126.014C92.8383 126.126 92.521 126.182 92.1663 126.182C91.4943 126.182 91.0463 125.921 90.8223 125.398C90.1036 125.977 89.259 126.266 88.2883 126.266C87.635 126.266 87.0796 126.089 86.6223 125.734C86.165 125.37 85.9363 124.862 85.9363 124.208C85.9363 123.424 86.2303 122.855 86.8183 122.5C87.4063 122.136 88.111 121.954 88.9323 121.954C89.4736 121.954 90.057 122.02 90.6823 122.15V121.912C90.6823 121.483 90.5283 121.138 90.2203 120.876C89.9123 120.615 89.4783 120.484 88.9183 120.484C88.0876 120.484 87.2803 120.657 86.4963 121.002V119.63C87.3736 119.332 88.2323 119.182 89.0723 119.182C90.0523 119.182 90.813 119.425 91.3543 119.91C91.905 120.396 92.1803 121.133 92.1803 122.122V124.53ZM89.2263 123.004C88.7316 123.004 88.3163 123.093 87.9803 123.27C87.6443 123.448 87.4763 123.728 87.4763 124.11C87.4763 124.428 87.5976 124.675 87.8403 124.852C88.083 125.02 88.3816 125.104 88.7363 125.104C89.5016 125.104 90.1503 124.838 90.6823 124.306V123.172C90.141 123.06 89.6556 123.004 89.2263 123.004ZM93.6616 122.78C93.6616 121.614 94.0302 120.722 94.7676 120.106C95.5049 119.49 96.3729 119.182 97.3716 119.182C98.1742 119.182 98.8649 119.355 99.4436 119.7V121.072C98.9209 120.699 98.3002 120.512 97.5816 120.512C96.9189 120.512 96.3542 120.699 95.8876 121.072C95.4209 121.436 95.1876 121.987 95.1876 122.724C95.1876 123.443 95.4162 123.994 95.8736 124.376C96.3402 124.75 96.9002 124.936 97.5536 124.936C98.2629 124.936 98.9162 124.764 99.5136 124.418V125.804C98.8696 126.112 98.1276 126.266 97.2876 126.266C96.3076 126.266 95.4582 125.968 94.7396 125.37C94.0209 124.764 93.6616 123.9 93.6616 122.78ZM100.414 122.78C100.414 121.614 100.782 120.722 101.52 120.106C102.257 119.49 103.125 119.182 104.124 119.182C104.926 119.182 105.617 119.355 106.196 119.7V121.072C105.673 120.699 105.052 120.512 104.334 120.512C103.671 120.512 103.106 120.699 102.64 121.072C102.173 121.436 101.94 121.987 101.94 122.724C101.94 123.443 102.168 123.994 102.626 124.376C103.092 124.75 103.652 124.936 104.306 124.936C105.015 124.936 105.668 124.764 106.266 124.418V125.804C105.622 126.112 104.88 126.266 104.04 126.266C103.06 126.266 102.21 125.968 101.492 125.37C100.773 124.764 100.414 123.9 100.414 122.78ZM108.23 125.328C107.521 124.703 107.166 123.835 107.166 122.724C107.166 121.614 107.521 120.746 108.23 120.12C108.949 119.495 109.807 119.182 110.806 119.182C111.814 119.182 112.673 119.495 113.382 120.12C114.091 120.746 114.446 121.614 114.446 122.724C114.446 123.835 114.091 124.703 113.382 125.328C112.673 125.954 111.814 126.266 110.806 126.266C109.807 126.266 108.949 125.954 108.23 125.328ZM112.332 124.306C112.724 123.905 112.92 123.378 112.92 122.724C112.92 122.071 112.724 121.548 112.332 121.156C111.94 120.755 111.431 120.554 110.806 120.554C110.171 120.554 109.658 120.755 109.266 121.156C108.874 121.548 108.678 122.071 108.678 122.724C108.678 123.378 108.874 123.905 109.266 124.306C109.658 124.698 110.171 124.894 110.806 124.894C111.431 124.894 111.94 124.698 112.332 124.306ZM120.701 119.364H122.199V126.084H120.869V125.16C120.253 125.898 119.473 126.266 118.531 126.266C117.663 126.266 116.981 126.014 116.487 125.51C116.001 125.006 115.759 124.344 115.759 123.522V119.364H117.257V123.326C117.257 124.4 117.779 124.936 118.825 124.936C119.562 124.936 120.187 124.563 120.701 123.816V119.364ZM125.333 120.288C125.949 119.551 126.728 119.182 127.671 119.182C128.511 119.182 129.183 119.439 129.687 119.952C130.191 120.456 130.443 121.114 130.443 121.926V126.084H128.945V122.122C128.945 121.6 128.8 121.203 128.511 120.932C128.221 120.652 127.843 120.512 127.377 120.512C126.639 120.512 126.014 120.886 125.501 121.632V126.084H124.003V119.364H125.333V120.288ZM132.599 117.334L134.083 116.97V119.364H136.519V120.68H134.083V123.76C134.083 124.19 134.181 124.493 134.377 124.67C134.582 124.848 134.909 124.936 135.357 124.936C135.814 124.936 136.267 124.848 136.715 124.67V125.958C136.173 126.154 135.571 126.252 134.909 126.252C134.218 126.252 133.658 126.07 133.229 125.706C132.809 125.342 132.599 124.787 132.599 124.04V120.68H131.395V119.364H132.599V117.334ZM137.513 121.184C137.513 120.503 137.769 119.999 138.283 119.672C138.805 119.346 139.44 119.182 140.187 119.182C141.055 119.182 141.862 119.374 142.609 119.756V121.072C142.329 120.886 141.969 120.732 141.531 120.61C141.092 120.48 140.677 120.414 140.285 120.414C139.939 120.414 139.645 120.475 139.403 120.596C139.16 120.708 139.039 120.89 139.039 121.142C139.039 121.376 139.179 121.572 139.459 121.73C139.739 121.88 140.075 122.01 140.467 122.122C140.868 122.225 141.265 122.351 141.657 122.5C142.049 122.64 142.385 122.86 142.665 123.158C142.945 123.457 143.085 123.835 143.085 124.292C143.085 124.983 142.814 125.487 142.273 125.804C141.731 126.112 141.036 126.266 140.187 126.266C139.132 126.266 138.255 126.052 137.555 125.622V124.292C138.273 124.768 139.127 125.006 140.117 125.006C141.087 125.006 141.573 124.778 141.573 124.32C141.573 124.096 141.433 123.91 141.153 123.76C140.873 123.602 140.532 123.471 140.131 123.368C139.739 123.256 139.342 123.13 138.941 122.99C138.549 122.841 138.213 122.617 137.933 122.318C137.653 122.01 137.513 121.632 137.513 121.184Z" fill="#111111"/>
<circle cx="60" cy="230.084" r="19.5" stroke="#111111"/>
<path fill-rule="evenodd" clip-rule="evenodd" d="M54.9495 220.769C51.9836 222.255 49.4711 223.52 49.366 223.581C49.0159 223.783 48.9249 224.134 49.0591 224.767C49.2097 225.478 49.592 226.216 50.1914 226.954C50.6271 227.491 50.7414 227.553 51.2853 227.553H51.6916V232.296V237.038H51.2798C50.7491 237.038 50.613 237.115 50.1724 237.66C49.5879 238.383 49.2079 239.122 49.0591 239.824C48.9259 240.453 49.0192 240.823 49.3537 240.994C49.53 241.084 49.5953 241.084 60.4992 241.084C71.4031 241.084 71.4684 241.084 71.6446 240.994C71.9792 240.823 72.0724 240.453 71.9393 239.824C71.7886 239.114 71.4063 238.375 70.8069 237.637C70.3712 237.101 70.2569 237.038 69.713 237.038H69.3068V232.296V227.553H69.713C70.2569 227.553 70.3712 227.491 70.8069 226.954C71.4063 226.216 71.7886 225.478 71.9393 224.767C72.0309 224.335 72.0194 224.056 71.901 223.844C71.8032 223.669 71.6521 223.59 66.2734 220.884C61.97 218.719 60.7016 218.1 60.5441 218.085C60.3522 218.068 60.067 218.205 54.9495 220.769ZM64.4985 221.507L68.4754 223.502H60.4992H52.5229L56.4998 221.507C58.6871 220.409 60.4868 219.511 60.4992 219.511C60.5115 219.511 62.3112 220.409 64.4985 221.507ZM70.4306 225.057C70.3326 225.286 70.0913 225.677 69.854 225.991L69.6927 226.205H60.4992H51.3056L51.1444 225.991C50.9071 225.677 50.6657 225.286 50.5677 225.057L50.4815 224.856H60.4992H70.5169L70.4306 225.057ZM54.3878 232.296V237.038H53.7137H53.0397V232.296V227.553H53.7137H54.3878V232.296ZM58.477 232.296V237.038H57.1064H55.7359V232.296V227.553H57.1064H58.477V232.296ZM61.1732 232.296V237.038H60.4992H59.8251V232.296V227.553H60.4992H61.1732V232.296ZM65.2625 232.296V237.038H63.8919H62.5213V232.296V227.553H63.8919H65.2625V232.296ZM67.9587 232.296V237.038H67.2846H66.6106V232.296V227.553H67.2846H67.9587V232.296ZM69.854 238.601C70.0913 238.915 70.3326 239.306 70.4306 239.534L70.5169 239.736H60.497H50.4771L50.5473 239.567C50.6325 239.362 50.9233 238.891 51.1437 238.601L51.3056 238.387H60.4992H69.6927L69.854 238.601Z" fill="#111111"/>
<circle cx="60" cy="310.084" r="19.5" stroke="#111111"/>
<path fill-rule="evenodd" clip-rule="evenodd" d="M54.9495 300.769C51.9836 302.255 49.4711 303.52 49.366 303.581C49.0159 303.783 48.9249 304.134 49.0591 304.767C49.2097 305.478 49.592 306.216 50.1914 306.954C50.6271 307.491 50.7414 307.553 51.2853 307.553H51.6916V312.296V317.038H51.2798C50.7491 317.038 50.613 317.115 50.1724 317.66C49.5879 318.383 49.2079 319.122 49.0591 319.824C48.9259 320.453 49.0192 320.823 49.3537 320.994C49.53 321.084 49.5953 321.084 60.4992 321.084C71.4031 321.084 71.4684 321.084 71.6446 320.994C71.9792 320.823 72.0724 320.453 71.9393 319.824C71.7886 319.114 71.4063 318.375 70.8069 317.637C70.3712 317.101 70.2569 317.038 69.713 317.038H69.3068V312.296V307.553H69.713C70.2569 307.553 70.3712 307.491 70.8069 306.954C71.4063 306.216 71.7886 305.478 71.9393 304.767C72.0309 304.335 72.0194 304.056 71.901 303.844C71.8032 303.669 71.6521 303.59 66.2734 300.884C61.97 298.719 60.7016 298.1 60.5441 298.085C60.3522 298.068 60.067 298.205 54.9495 300.769ZM64.4985 301.507L68.4754 303.502H60.4992H52.5229L56.4998 301.507C58.6871 300.409 60.4868 299.511 60.4992 299.511C60.5115 299.511 62.3112 300.409 64.4985 301.507ZM70.4306 305.057C70.3326 305.286 70.0913 305.677 69.854 305.991L69.6927 306.205H60.4992H51.3056L51.1444 305.991C50.9071 305.677 50.6657 305.286 50.5677 305.057L50.4815 304.856H60.4992H70.5169L70.4306 305.057ZM54.3878 312.296V317.038H53.7137H53.0397V312.296V307.553H53.7137H54.3878V312.296ZM58.477 312.296V317.038H57.1064H55.7359V312.296V307.553H57.1064H58.477V312.296ZM61.1732 312.296V317.038H60.4992H59.8251V312.296V307.553H60.4992H61.1732V312.296ZM65.2625 312.296V317.038H63.8919H62.5213V312.296V307.553H63.8919H65.2625V312.296ZM67.9587 312.296V317.038H67.2846H66.6106V312.296V307.553H67.2846H67.9587V312.296ZM69.854 318.601C70.0913 318.915 70.3326 319.306 70.4306 319.534L70.5169 319.736H60.497H50.4771L50.5473 319.567C50.6325 319.362 50.9233 318.891 51.1437 318.601L51.3056 318.387H60.4992H69.6927L69.854 318.601Z" fill="#111111"/>
<circle cx="60" cy="390.084" r="19.5" stroke="#111111"/>
<path fill-rule="evenodd" clip-rule="evenodd" d="M54.9495 380.769C51.9836 382.255 49.4711 383.52 49.366 383.581C49.0159 383.783 48.9249 384.134 49.0591 384.767C49.2097 385.478 49.592 386.216 50.1914 386.954C50.6271 387.491 50.7414 387.553 51.2853 387.553H51.6916V392.296V397.038H51.2798C50.7491 397.038 50.613 397.115 50.1724 397.66C49.5879 398.383 49.2079 399.122 49.0591 399.824C48.9259 400.453 49.0192 400.823 49.3537 400.994C49.53 401.084 49.5953 401.084 60.4992 401.084C71.4031 401.084 71.4684 401.084 71.6446 400.994C71.9792 400.823 72.0724 400.453 71.9393 399.824C71.7886 399.114 71.4063 398.375 70.8069 397.637C70.3712 397.101 70.2569 397.038 69.713 397.038H69.3068V392.296V387.553H69.713C70.2569 387.553 70.3712 387.491 70.8069 386.954C71.4063 386.216 71.7886 385.478 71.9393 384.767C72.0309 384.335 72.0194 384.056 71.901 383.844C71.8032 383.669 71.6521 383.59 66.2734 380.884C61.97 378.719 60.7016 378.1 60.5441 378.085C60.3522 378.068 60.067 378.205 54.9495 380.769ZM64.4985 381.507L68.4754 383.502H60.4992H52.5229L56.4998 381.507C58.6871 380.409 60.4868 379.511 60.4992 379.511C60.5115 379.511 62.3112 380.409 64.4985 381.507ZM70.4306 385.057C70.3326 385.286 70.0913 385.677 69.854 385.991L69.6927 386.205H60.4992H51.3056L51.1444 385.991C50.9071 385.677 50.6657 385.286 50.5677 385.057L50.4815 384.856H60.4992H70.5169L70.4306 385.057ZM54.3878 392.296V397.038H53.7137H53.0397V392.296V387.553H53.7137H54.3878V392.296ZM58.477 392.296V397.038H57.1064H55.7359V392.296V387.553H57.1064H58.477V392.296ZM61.1732 392.296V397.038H60.4992H59.8251V392.296V387.553H60.4992H61.1732V392.296ZM65.2625 392.296V397.038H63.8919H62.5213V392.296V387.553H63.8919H65.2625V392.296ZM67.9587 392.296V397.038H67.2846H66.6106V392.296V387.553H67.2846H67.9587V392.296ZM69.854 398.601C70.0913 398.915 70.3326 399.306 70.4306 399.534L70.5169 399.736H60.497H50.4771L50.5473 399.567C50.6325 399.362 50.9233 398.891 51.1437 398.601L51.3056 398.387H60.4992H69.6927L69.854 398.601Z" fill="#111111"/>
<rect x="134.5" y="148.584" width="335" height="207" rx="11.5" fill="white" stroke="#111111"/>
<path d="M260.522 226.084H257.822V213.484H260.36L266.228 221.71C266.192 221.194 266.174 220.618 266.174 219.982V213.484H268.874V226.084H266.336L260.468 217.858C260.504 218.374 260.522 218.95 260.522 219.586V226.084ZM273.8 226.084H271.298V217.444H273.8V226.084ZM274.016 214.582C274.016 215.05 273.878 215.404 273.602 215.644C273.326 215.884 272.972 216.004 272.54 216.004C272.12 216.004 271.772 215.884 271.496 215.644C271.22 215.404 271.082 215.05 271.082 214.582C271.082 214.126 271.22 213.778 271.496 213.538C271.772 213.298 272.12 213.178 272.54 213.178C272.96 213.178 273.308 213.298 273.584 213.538C273.872 213.778 274.016 214.126 274.016 214.582ZM275.47 221.89C275.47 221.098 275.608 220.39 275.884 219.766C276.172 219.142 276.55 218.65 277.018 218.29C277.486 217.918 278.002 217.642 278.566 217.462C279.13 217.27 279.724 217.174 280.348 217.174C281.344 217.174 282.232 217.384 283.012 217.804V220C282.34 219.568 281.572 219.352 280.708 219.352C279.952 219.352 279.316 219.55 278.8 219.946C278.284 220.342 278.026 220.948 278.026 221.764C278.026 222.544 278.284 223.144 278.8 223.564C279.316 223.972 279.94 224.176 280.672 224.176C281.596 224.176 282.406 223.966 283.102 223.546V225.76C282.202 226.144 281.23 226.336 280.186 226.336C278.89 226.336 277.78 225.958 276.856 225.202C275.932 224.434 275.47 223.33 275.47 221.89ZM293.582 226.084H290.774L288.29 222.664H287.282V226.084H284.78V213.484H287.282V220.666H288.326L290.522 217.444H293.33L290.36 221.71L293.582 226.084ZM299.514 213.484H305.562V222.286C305.562 223.678 305.142 224.698 304.302 225.346C303.462 225.994 302.382 226.318 301.062 226.318C299.838 226.318 298.752 226.102 297.804 225.67V223.15C298.548 223.606 299.418 223.834 300.414 223.834C302.046 223.834 302.862 223.216 302.862 221.98V215.914H299.514V213.484ZM308.584 225.13C307.66 224.326 307.198 223.204 307.198 221.764C307.198 220.324 307.66 219.202 308.584 218.398C309.508 217.594 310.636 217.192 311.968 217.192C313.312 217.192 314.44 217.594 315.352 218.398C316.276 219.202 316.738 220.324 316.738 221.764C316.738 223.204 316.276 224.326 315.352 225.13C314.44 225.934 313.312 226.336 311.968 226.336C310.636 226.336 309.508 225.934 308.584 225.13ZM313.606 223.456C314.002 223.012 314.2 222.448 314.2 221.764C314.2 221.08 314.002 220.522 313.606 220.09C313.21 219.646 312.664 219.424 311.968 219.424C311.272 219.424 310.726 219.646 310.33 220.09C309.946 220.522 309.754 221.08 309.754 221.764C309.754 222.448 309.946 223.012 310.33 223.456C310.726 223.888 311.272 224.104 311.968 224.104C312.664 224.104 313.21 223.888 313.606 223.456ZM318.372 213.484H320.874V218.236C321.618 217.54 322.482 217.192 323.466 217.192C324.57 217.192 325.428 217.528 326.04 218.2C326.664 218.86 326.976 219.706 326.976 220.738V226.084H324.474V221.062C324.474 220.498 324.318 220.072 324.006 219.784C323.706 219.496 323.304 219.352 322.8 219.352C322.02 219.352 321.378 219.718 320.874 220.45V226.084H318.372V213.484ZM336.711 223.852C336.711 224.236 336.915 224.428 337.323 224.428C337.491 224.428 337.647 224.404 337.791 224.356V225.994C337.335 226.162 336.873 226.246 336.405 226.246C335.493 226.246 334.857 225.922 334.497 225.274C333.597 225.982 332.559 226.336 331.383 226.336C330.531 226.336 329.811 226.102 329.223 225.634C328.647 225.154 328.359 224.506 328.359 223.69C328.359 223.006 328.563 222.436 328.971 221.98C329.379 221.524 329.853 221.218 330.393 221.062C330.933 220.894 331.521 220.81 332.157 220.81C332.865 220.81 333.549 220.888 334.209 221.044V220.738C334.209 220.294 334.035 219.94 333.687 219.676C333.339 219.412 332.835 219.28 332.175 219.28C331.215 219.28 330.195 219.496 329.115 219.928V217.768C330.267 217.384 331.383 217.192 332.463 217.192C335.295 217.192 336.711 218.494 336.711 221.098V223.852ZM332.733 222.304C332.217 222.304 331.785 222.4 331.437 222.592C331.089 222.784 330.915 223.084 330.915 223.492C330.915 223.804 331.041 224.062 331.293 224.266C331.557 224.458 331.881 224.554 332.265 224.554C333.021 224.554 333.669 224.32 334.209 223.852V222.502C333.657 222.37 333.165 222.304 332.733 222.304ZM341.187 218.542C341.967 217.642 342.927 217.192 344.067 217.192C345.171 217.192 346.029 217.528 346.641 218.2C347.265 218.86 347.577 219.706 347.577 220.738V226.084H345.075V221.062C345.075 220.498 344.919 220.072 344.607 219.784C344.307 219.496 343.905 219.352 343.401 219.352C342.621 219.352 341.979 219.718 341.475 220.45V226.084H338.973V217.444H341.187V218.542Z" fill="#111111"/>
<rect x="158.5" y="254.584" width="287" height="77" rx="6.5" fill="white" stroke="#111111"/>
<path d="M174 185.077L174 183.077L161.79 183.077L166.458 178.453L165.06 177.084L158 184.077L165.06 191.084L166.458 189.684L161.79 185.077L174 185.077Z" fill="#111111"/>
<path d="M175.19 303.284H179.334C180.379 303.284 181.201 303.494 181.798 303.914C182.395 304.334 182.694 304.95 182.694 305.762C182.694 306.322 182.549 306.789 182.26 307.162C181.971 307.526 181.602 307.778 181.154 307.918C181.686 308.068 182.139 308.343 182.512 308.744C182.895 309.136 183.086 309.678 183.086 310.368C183.086 310.891 182.969 311.344 182.736 311.726C182.503 312.1 182.19 312.38 181.798 312.566C181.406 312.753 181.009 312.888 180.608 312.972C180.216 313.047 179.801 313.084 179.362 313.084H175.19V303.284ZM181.462 310.2C181.462 309.202 180.785 308.702 179.432 308.702H176.786V311.684H179.208C179.535 311.684 179.81 311.67 180.034 311.642C180.258 311.614 180.487 311.554 180.72 311.46C180.963 311.367 181.145 311.218 181.266 311.012C181.397 310.798 181.462 310.527 181.462 310.2ZM181.07 306.014C181.07 305.118 180.435 304.67 179.166 304.67H176.786V307.344L179.39 307.358C179.885 307.358 180.286 307.246 180.594 307.022C180.911 306.798 181.07 306.462 181.07 306.014ZM190.26 311.53C190.26 311.857 190.423 312.02 190.75 312.02C190.862 312.02 191.011 311.992 191.198 311.936V313.014C190.918 313.126 190.601 313.182 190.246 313.182C189.574 313.182 189.126 312.921 188.902 312.398C188.183 312.977 187.339 313.266 186.368 313.266C185.715 313.266 185.159 313.089 184.702 312.734C184.245 312.37 184.016 311.862 184.016 311.208C184.016 310.424 184.31 309.855 184.898 309.5C185.486 309.136 186.191 308.954 187.012 308.954C187.553 308.954 188.137 309.02 188.762 309.15V308.912C188.762 308.483 188.608 308.138 188.3 307.876C187.992 307.615 187.558 307.484 186.998 307.484C186.167 307.484 185.36 307.657 184.576 308.002V306.63C185.453 306.332 186.312 306.182 187.152 306.182C188.132 306.182 188.893 306.425 189.434 306.91C189.985 307.396 190.26 308.133 190.26 309.122V311.53ZM187.306 310.004C186.811 310.004 186.396 310.093 186.06 310.27C185.724 310.448 185.556 310.728 185.556 311.11C185.556 311.428 185.677 311.675 185.92 311.852C186.163 312.02 186.461 312.104 186.816 312.104C187.581 312.104 188.23 311.838 188.762 311.306V310.172C188.221 310.06 187.735 310.004 187.306 310.004ZM192.189 302.864H193.687V313.084H192.189V302.864ZM201.249 311.53C201.249 311.857 201.412 312.02 201.739 312.02C201.851 312.02 202 311.992 202.187 311.936V313.014C201.907 313.126 201.59 313.182 201.235 313.182C200.563 313.182 200.115 312.921 199.891 312.398C199.172 312.977 198.328 313.266 197.357 313.266C196.704 313.266 196.148 313.089 195.691 312.734C195.234 312.37 195.005 311.862 195.005 311.208C195.005 310.424 195.299 309.855 195.887 309.5C196.475 309.136 197.18 308.954 198.001 308.954C198.542 308.954 199.126 309.02 199.751 309.15V308.912C199.751 308.483 199.597 308.138 199.289 307.876C198.981 307.615 198.547 307.484 197.987 307.484C197.156 307.484 196.349 307.657 195.565 308.002V306.63C196.442 306.332 197.301 306.182 198.141 306.182C199.121 306.182 199.882 306.425 200.423 306.91C200.974 307.396 201.249 308.133 201.249 309.122V311.53ZM198.295 310.004C197.8 310.004 197.385 310.093 197.049 310.27C196.713 310.448 196.545 310.728 196.545 311.11C196.545 311.428 196.666 311.675 196.909 311.852C197.152 312.02 197.45 312.104 197.805 312.104C198.57 312.104 199.219 311.838 199.751 311.306V310.172C199.21 310.06 198.724 310.004 198.295 310.004ZM204.48 307.288C205.096 306.551 205.876 306.182 206.818 306.182C207.658 306.182 208.33 306.439 208.834 306.952C209.338 307.456 209.59 308.114 209.59 308.926V313.084H208.092V309.122C208.092 308.6 207.948 308.203 207.658 307.932C207.369 307.652 206.991 307.512 206.524 307.512C205.787 307.512 205.162 307.886 204.648 308.632V313.084H203.15V306.364H204.48V307.288ZM210.891 309.78C210.891 308.614 211.259 307.722 211.997 307.106C212.734 306.49 213.602 306.182 214.601 306.182C215.403 306.182 216.094 306.355 216.673 306.7V308.072C216.15 307.699 215.529 307.512 214.811 307.512C214.148 307.512 213.583 307.699 213.117 308.072C212.65 308.436 212.417 308.987 212.417 309.724C212.417 310.443 212.645 310.994 213.103 311.376C213.569 311.75 214.129 311.936 214.783 311.936C215.492 311.936 216.145 311.764 216.743 311.418V312.804C216.099 313.112 215.357 313.266 214.517 313.266C213.537 313.266 212.687 312.968 211.969 312.37C211.25 311.764 210.891 310.9 210.891 309.78ZM217.643 309.724C217.643 309.146 217.746 308.623 217.951 308.156C218.156 307.68 218.427 307.307 218.763 307.036C219.099 306.756 219.463 306.546 219.855 306.406C220.247 306.257 220.644 306.182 221.045 306.182C221.558 306.182 222.02 306.262 222.431 306.42C222.851 306.579 223.187 306.794 223.439 307.064C223.691 307.335 223.896 307.648 224.055 308.002C224.214 308.357 224.298 308.73 224.307 309.122C224.316 309.505 224.284 309.892 224.209 310.284H219.155C219.23 310.854 219.51 311.283 219.995 311.572C220.48 311.852 221.059 311.992 221.731 311.992C222.496 311.992 223.206 311.834 223.859 311.516V312.804C223.215 313.112 222.412 313.266 221.451 313.266C220.359 313.266 219.449 312.958 218.721 312.342C218.002 311.726 217.643 310.854 217.643 309.724ZM222.865 309.164C222.921 308.782 222.804 308.399 222.515 308.016C222.235 307.624 221.768 307.428 221.115 307.428C220.583 307.428 220.126 307.582 219.743 307.89C219.37 308.198 219.169 308.623 219.141 309.164H222.865ZM227.175 307.064C227.362 307.214 227.455 307.438 227.455 307.736C227.455 308.035 227.362 308.264 227.175 308.422C226.998 308.572 226.774 308.646 226.503 308.646C226.242 308.646 226.018 308.567 225.831 308.408C225.654 308.25 225.565 308.026 225.565 307.736C225.565 307.447 225.654 307.223 225.831 307.064C226.018 306.906 226.242 306.826 226.503 306.826C226.774 306.826 226.998 306.906 227.175 307.064ZM227.455 312.314C227.455 312.613 227.366 312.842 227.189 313C227.012 313.159 226.783 313.238 226.503 313.238C226.242 313.238 226.018 313.159 225.831 313C225.654 312.842 225.565 312.613 225.565 312.314C225.565 312.025 225.654 311.806 225.831 311.656C226.018 311.498 226.242 311.418 226.503 311.418C226.774 311.418 226.998 311.498 227.175 311.656C227.362 311.806 227.455 312.025 227.455 312.314ZM236.138 314.904H234.906V313.238C233.823 313.117 232.89 312.842 232.106 312.412V310.844C233.114 311.488 234.266 311.81 235.564 311.81C236.973 311.81 237.678 311.404 237.678 310.592C237.678 310.238 237.538 309.944 237.258 309.71C236.987 309.468 236.646 309.29 236.236 309.178C235.834 309.066 235.391 308.931 234.906 308.772C234.43 308.614 233.986 308.446 233.576 308.268C233.174 308.091 232.834 307.816 232.554 307.442C232.283 307.06 232.148 306.598 232.148 306.056C232.148 305.291 232.4 304.684 232.904 304.236C233.417 303.788 234.084 303.518 234.906 303.424V301.744H236.138V303.41C237.155 303.485 238 303.723 238.672 304.124V305.65C237.841 305.09 236.861 304.82 235.732 304.838C234.425 304.838 233.772 305.235 233.772 306.028C233.772 306.355 233.907 306.63 234.178 306.854C234.458 307.078 234.798 307.246 235.2 307.358C235.61 307.461 236.054 307.592 236.53 307.75C237.015 307.909 237.458 308.082 237.86 308.268C238.27 308.446 238.611 308.726 238.882 309.108C239.162 309.491 239.302 309.958 239.302 310.508C239.302 311.395 239.012 312.062 238.434 312.51C237.855 312.949 237.09 313.196 236.138 313.252V314.904ZM240.992 303.564H246.858V304.992H242.462L242.322 307.288C242.78 307.176 243.26 307.12 243.764 307.12C244.782 307.12 245.626 307.368 246.298 307.862C246.97 308.348 247.306 309.113 247.306 310.158C247.306 311.148 246.938 311.913 246.2 312.454C245.472 312.996 244.558 313.266 243.456 313.266C242.308 313.266 241.291 313.052 240.404 312.622V311.124C241.207 311.591 242.164 311.824 243.274 311.824C244.002 311.824 244.586 311.68 245.024 311.39C245.472 311.101 245.696 310.686 245.696 310.144C245.696 309.006 244.833 308.436 243.106 308.436C242.304 308.436 241.496 308.576 240.684 308.856L240.992 303.564ZM249.182 315.156H247.964L248.79 311.684H250.372L249.182 315.156ZM256.466 303.564H258.104V309.752H259.742V311.138H258.104V313.084H256.564V311.138H251.398V309.78L256.466 303.564ZM256.564 309.752V305.594L253.176 309.752H256.564ZM267.336 305.986C267.336 306.481 267.205 306.915 266.944 307.288C266.692 307.662 266.351 307.918 265.922 308.058C266.435 308.217 266.865 308.497 267.21 308.898C267.555 309.3 267.728 309.832 267.728 310.494C267.728 311.4 267.383 312.09 266.692 312.566C266.001 313.033 265.133 313.266 264.088 313.266C262.865 313.266 261.764 313.056 260.784 312.636V311.096C261.699 311.6 262.758 311.843 263.962 311.824C265.455 311.806 266.202 311.306 266.202 310.326C266.202 309.374 265.53 308.898 264.186 308.898H262.674V307.456L264.004 307.47C264.583 307.47 265.026 307.358 265.334 307.134C265.651 306.901 265.81 306.584 265.81 306.182C265.81 305.753 265.633 305.422 265.278 305.188C264.933 304.946 264.438 304.824 263.794 304.824C262.805 304.824 261.857 305.086 260.952 305.608V304.082C261.839 303.616 262.856 303.382 264.004 303.382C265.003 303.382 265.805 303.616 266.412 304.082C267.028 304.549 267.336 305.184 267.336 305.986ZM269.279 305.93C269.279 305.24 269.583 304.642 270.189 304.138C270.796 303.634 271.683 303.382 272.849 303.382C273.941 303.382 274.809 303.644 275.453 304.166C276.107 304.689 276.443 305.31 276.461 306.028C276.48 306.962 276.06 307.732 275.201 308.338C276.265 308.87 276.797 309.622 276.797 310.592C276.797 311.339 276.471 311.974 275.817 312.496C275.164 313.01 274.193 313.266 272.905 313.266C271.627 313.266 270.647 312.996 269.965 312.454C269.284 311.904 268.943 311.236 268.943 310.452C268.943 309.986 269.079 309.528 269.349 309.08C269.62 308.632 270.003 308.259 270.497 307.96C269.685 307.438 269.279 306.761 269.279 305.93ZM273.017 308.968C272.401 308.782 271.944 308.632 271.645 308.52C271.281 308.744 271.001 309.015 270.805 309.332C270.619 309.64 270.525 309.953 270.525 310.27C270.535 310.774 270.745 311.176 271.155 311.474C271.575 311.764 272.182 311.908 272.975 311.908C273.619 311.908 274.147 311.792 274.557 311.558C274.977 311.325 275.187 311.022 275.187 310.648C275.187 310.452 275.15 310.28 275.075 310.13C275.001 309.972 274.903 309.841 274.781 309.738C274.669 309.636 274.52 309.538 274.333 309.444C274.147 309.351 273.965 309.276 273.787 309.22C273.61 309.155 273.4 309.085 273.157 309.01C273.139 309.001 273.12 308.996 273.101 308.996C273.092 308.996 273.078 308.992 273.059 308.982C273.05 308.973 273.036 308.968 273.017 308.968ZM274.893 306.224C274.893 305.795 274.707 305.44 274.333 305.16C273.96 304.88 273.442 304.74 272.779 304.74C272.182 304.74 271.706 304.852 271.351 305.076C271.006 305.3 270.833 305.58 270.833 305.916C270.833 306.234 270.941 306.504 271.155 306.728C271.379 306.952 271.594 307.106 271.799 307.19C272.005 307.274 272.331 307.386 272.779 307.526C272.854 307.554 272.91 307.573 272.947 307.582C273.339 307.685 273.68 307.783 273.969 307.876C274.585 307.4 274.893 306.85 274.893 306.224Z" fill="#888888"/>
<path d="M334.278 305.776C334.278 304.918 334.604 304.26 335.258 303.802C335.92 303.336 336.742 303.102 337.722 303.102C338.907 303.102 339.929 303.35 340.788 303.844V305.37C339.957 304.81 338.977 304.54 337.848 304.558C336.55 304.558 335.902 304.955 335.902 305.748C335.902 306.131 336.093 306.453 336.476 306.714C336.858 306.966 337.325 307.176 337.876 307.344C338.426 307.512 338.977 307.704 339.528 307.918C340.078 308.133 340.545 308.46 340.928 308.898C341.31 309.328 341.502 309.864 341.502 310.508C341.502 311.47 341.152 312.174 340.452 312.622C339.761 313.061 338.874 313.276 337.792 313.266C336.485 313.266 335.328 312.982 334.32 312.412V310.844C335.318 311.488 336.438 311.81 337.68 311.81C339.145 311.81 339.878 311.404 339.878 310.592C339.878 310.238 339.738 309.934 339.458 309.682C339.187 309.43 338.842 309.239 338.422 309.108C338.011 308.978 337.563 308.824 337.078 308.646C336.592 308.46 336.14 308.268 335.72 308.072C335.309 307.867 334.964 307.568 334.684 307.176C334.413 306.784 334.278 306.318 334.278 305.776ZM342.436 308.184C342.436 307.354 342.585 306.607 342.884 305.944C343.183 305.282 343.584 304.75 344.088 304.348C344.592 303.938 345.152 303.63 345.768 303.424C346.384 303.21 347.028 303.102 347.7 303.102C348.773 303.102 349.763 303.317 350.668 303.746V305.3C349.912 304.815 348.997 304.572 347.924 304.572C346.86 304.572 345.95 304.876 345.194 305.482C344.447 306.089 344.074 306.99 344.074 308.184C344.074 308.856 344.186 309.44 344.41 309.934C344.634 310.42 344.937 310.793 345.32 311.054C345.703 311.316 346.104 311.507 346.524 311.628C346.953 311.75 347.406 311.81 347.882 311.81C348.461 311.81 348.951 311.717 349.352 311.53V307.82H350.906V312.608C349.926 313.047 348.885 313.266 347.784 313.266C347.075 313.266 346.412 313.173 345.796 312.986C345.18 312.79 344.615 312.496 344.102 312.104C343.589 311.712 343.183 311.18 342.884 310.508C342.585 309.836 342.436 309.062 342.436 308.184ZM352.826 303.284H356.256C357.936 303.284 359.214 303.732 360.092 304.628C360.969 305.524 361.408 306.71 361.408 308.184C361.408 309.659 360.969 310.844 360.092 311.74C359.214 312.636 357.936 313.084 356.256 313.084H352.826V303.284ZM358.874 310.746C359.48 310.149 359.784 309.295 359.784 308.184C359.784 307.074 359.48 306.224 358.874 305.636C358.276 305.039 357.399 304.74 356.242 304.74H354.422V311.628H356.242C357.399 311.628 358.276 311.334 358.874 310.746ZM372.223 307.526H366.063V306.182H372.223V307.526ZM372.223 310.172H366.063V308.842H372.223V310.172ZM380.955 314.904H379.723V313.238C378.641 313.117 377.707 312.842 376.923 312.412V310.844C377.931 311.488 379.084 311.81 380.381 311.81C381.791 311.81 382.495 311.404 382.495 310.592C382.495 310.238 382.355 309.944 382.075 309.71C381.805 309.468 381.464 309.29 381.053 309.178C380.652 309.066 380.209 308.931 379.723 308.772C379.247 308.614 378.804 308.446 378.393 308.268C377.992 308.091 377.651 307.816 377.371 307.442C377.101 307.06 376.965 306.598 376.965 306.056C376.965 305.291 377.217 304.684 377.721 304.236C378.235 303.788 378.902 303.518 379.723 303.424V301.744H380.955V303.41C381.973 303.485 382.817 303.723 383.489 304.124V305.65C382.659 305.09 381.679 304.82 380.549 304.838C379.243 304.838 378.589 305.235 378.589 306.028C378.589 306.355 378.725 306.63 378.995 306.854C379.275 307.078 379.616 307.246 380.017 307.358C380.428 307.461 380.871 307.592 381.347 307.75C381.833 307.909 382.276 308.082 382.677 308.268C383.088 308.446 383.429 308.726 383.699 309.108C383.979 309.491 384.119 309.958 384.119 310.508C384.119 311.395 383.83 312.062 383.251 312.51C382.673 312.949 381.907 313.196 380.955 313.252V314.904ZM387.56 303.564H388.736V311.642H390.43V313.084H385.25V311.642H387.154V305.202L385.25 305.916V304.446L387.56 303.564ZM396.077 303.564H397.715V309.752H399.353V311.138H397.715V313.084H396.175V311.138H391.009V309.78L396.077 303.564ZM396.175 309.752V305.594L392.787 309.752H396.175ZM401.444 311.908C400.726 310.994 400.366 309.799 400.366 308.324C400.366 306.85 400.726 305.66 401.444 304.754C402.163 303.84 403.227 303.382 404.636 303.382C406.046 303.382 407.11 303.84 407.828 304.754C408.547 305.66 408.906 306.85 408.906 308.324C408.906 309.799 408.547 310.994 407.828 311.908C407.11 312.814 406.046 313.266 404.636 313.266C403.227 313.266 402.163 312.814 401.444 311.908ZM404.636 311.81C406.41 311.81 407.296 310.648 407.296 308.324C407.296 306 406.41 304.838 404.636 304.838C402.863 304.838 401.976 306 401.976 308.324C401.976 310.648 402.863 311.81 404.636 311.81ZM411.716 312.314C411.716 312.613 411.627 312.842 411.45 313C411.272 313.159 411.048 313.238 410.778 313.238C410.507 313.238 410.278 313.159 410.092 313C409.914 312.842 409.826 312.613 409.826 312.314C409.826 312.025 409.914 311.806 410.092 311.656C410.278 311.498 410.507 311.418 410.778 311.418C411.048 311.418 411.272 311.498 411.45 311.656C411.627 311.806 411.716 312.025 411.716 312.314ZM412.581 306.574C412.581 305.566 412.917 304.782 413.589 304.222C414.261 303.662 415.101 303.382 416.109 303.382C417.519 303.382 418.559 303.802 419.231 304.642C419.913 305.482 420.253 306.682 420.253 308.24C420.253 309.902 419.843 311.157 419.021 312.006C418.2 312.846 417.141 313.266 415.843 313.266C414.975 313.266 414.154 313.08 413.379 312.706V311.25C414.098 311.652 414.868 311.852 415.689 311.852C416.492 311.852 417.159 311.614 417.691 311.138C418.233 310.662 418.55 309.892 418.643 308.828C417.785 309.342 416.861 309.598 415.871 309.598C414.985 309.598 414.215 309.332 413.561 308.8C412.908 308.268 412.581 307.526 412.581 306.574ZM416.221 304.754C415.624 304.754 415.134 304.899 414.751 305.188C414.378 305.468 414.191 305.907 414.191 306.504C414.191 307.111 414.392 307.55 414.793 307.82C415.195 308.082 415.708 308.212 416.333 308.212C417.192 308.212 417.957 307.946 418.629 307.414C418.461 305.641 417.659 304.754 416.221 304.754ZM421.834 305.93C421.834 305.24 422.137 304.642 422.744 304.138C423.35 303.634 424.237 303.382 425.404 303.382C426.496 303.382 427.364 303.644 428.008 304.166C428.661 304.689 428.997 305.31 429.016 306.028C429.034 306.962 428.614 307.732 427.756 308.338C428.82 308.87 429.352 309.622 429.352 310.592C429.352 311.339 429.025 311.974 428.372 312.496C427.718 313.01 426.748 313.266 425.46 313.266C424.181 313.266 423.201 312.996 422.52 312.454C421.838 311.904 421.498 311.236 421.498 310.452C421.498 309.986 421.633 309.528 421.904 309.08C422.174 308.632 422.557 308.259 423.052 307.96C422.24 307.438 421.834 306.761 421.834 305.93ZM425.572 308.968C424.956 308.782 424.498 308.632 424.2 308.52C423.836 308.744 423.556 309.015 423.36 309.332C423.173 309.64 423.08 309.953 423.08 310.27C423.089 310.774 423.299 311.176 423.71 311.474C424.13 311.764 424.736 311.908 425.53 311.908C426.174 311.908 426.701 311.792 427.112 311.558C427.532 311.325 427.742 311.022 427.742 310.648C427.742 310.452 427.704 310.28 427.63 310.13C427.555 309.972 427.457 309.841 427.336 309.738C427.224 309.636 427.074 309.538 426.888 309.444C426.701 309.351 426.519 309.276 426.342 309.22C426.164 309.155 425.954 309.085 425.712 309.01C425.693 309.001 425.674 308.996 425.656 308.996C425.646 308.996 425.632 308.992 425.614 308.982C425.604 308.973 425.59 308.968 425.572 308.968ZM427.448 306.224C427.448 305.795 427.261 305.44 426.888 305.16C426.514 304.88 425.996 304.74 425.334 304.74C424.736 304.74 424.26 304.852 423.906 305.076C423.56 305.3 423.388 305.58 423.388 305.916C423.388 306.234 423.495 306.504 423.71 306.728C423.934 306.952 424.148 307.106 424.354 307.19C424.559 307.274 424.886 307.386 425.334 307.526C425.408 307.554 425.464 307.573 425.502 307.582C425.894 307.685 426.234 307.783 426.524 307.876C427.14 307.4 427.448 306.85 427.448 306.224Z" fill="#888888"/>
<path d="M175.8 272.284H179.4V289.084H175.8V272.284ZM182.995 272.284H189.283C192.163 272.284 194.347 273.052 195.835 274.588C197.339 276.108 198.091 278.14 198.091 280.684C198.091 283.228 197.339 285.268 195.835 286.804C194.347 288.324 192.163 289.084 189.283 289.084H182.995V272.284ZM193.099 284.596C193.979 283.716 194.419 282.412 194.419 280.684C194.419 278.956 193.979 277.652 193.099 276.772C192.235 275.892 190.963 275.452 189.283 275.452H186.595V285.916H189.283C190.963 285.916 192.235 285.476 193.099 284.596ZM204.408 289.084H200.808V272.284H207.72C208.6 272.284 209.408 272.372 210.144 272.548C210.896 272.724 211.6 273.012 212.256 273.412C212.928 273.812 213.448 274.38 213.816 275.116C214.2 275.852 214.392 276.732 214.392 277.756C214.392 280.3 213.168 281.964 210.72 282.748L215.736 289.084H211.584L207.048 283.204H204.408V289.084ZM204.408 275.452V280.204H207.888C208.704 280.204 209.376 280.012 209.904 279.628C210.448 279.228 210.72 278.628 210.72 277.828C210.72 277.012 210.456 276.412 209.928 276.028C209.4 275.644 208.72 275.452 207.888 275.452H204.408Z" fill="#111111"/>
<path d="M302.37 292.204H299.754V289.348C297.914 289.172 296.306 288.692 294.93 287.908V284.476C296.722 285.66 298.73 286.252 300.954 286.252C301.978 286.252 302.738 286.132 303.234 285.892C303.746 285.636 304.002 285.22 304.002 284.644C304.002 284.228 303.834 283.868 303.498 283.564C303.178 283.26 302.754 283.02 302.226 282.844C301.698 282.652 301.114 282.468 300.474 282.292C299.834 282.1 299.194 281.884 298.554 281.644C297.914 281.388 297.33 281.092 296.802 280.756C296.274 280.404 295.842 279.924 295.506 279.316C295.186 278.708 295.026 278.004 295.026 277.204C295.026 275.844 295.458 274.772 296.322 273.988C297.186 273.188 298.33 272.692 299.754 272.5V269.644H302.37V272.524C304.066 272.684 305.482 273.084 306.618 273.724V277.084C305.194 276.06 303.466 275.564 301.434 275.596C299.61 275.628 298.698 276.148 298.698 277.156C298.698 277.54 298.858 277.876 299.178 278.164C299.514 278.436 299.946 278.66 300.474 278.836C301.018 279.012 301.61 279.188 302.25 279.364C302.89 279.54 303.522 279.756 304.146 280.012C304.786 280.268 305.37 280.572 305.898 280.924C306.442 281.26 306.874 281.732 307.194 282.34C307.53 282.948 307.698 283.66 307.698 284.476C307.698 286.044 307.21 287.22 306.234 288.004C305.274 288.788 303.986 289.244 302.37 289.372V292.204ZM313.637 272.764H316.253V285.988H318.989V289.084H309.677V285.988H312.749V276.364L309.677 277.516V274.276L313.637 272.764ZM322.348 292.564H319.66L321.172 286.108H324.7L322.348 292.564ZM327.933 272.74H338.301V275.836L331.173 275.812L330.957 279.004C331.725 278.844 332.429 278.764 333.069 278.764C334.829 278.764 336.261 279.188 337.365 280.036C338.485 280.884 339.045 282.196 339.045 283.972C339.045 285.764 338.381 287.124 337.053 288.052C335.725 288.964 334.085 289.42 332.133 289.42C330.149 289.42 328.397 289.052 326.877 288.316V284.98C328.237 285.844 329.853 286.276 331.725 286.276C332.845 286.276 333.741 286.076 334.413 285.676C335.101 285.276 335.445 284.692 335.445 283.924C335.445 282.324 334.117 281.524 331.461 281.524C330.021 281.524 328.653 281.756 327.357 282.22L327.933 272.74ZM342.81 287.068C341.578 285.484 340.962 283.436 340.962 280.924C340.962 278.412 341.578 276.372 342.81 274.804C344.058 273.22 345.922 272.428 348.402 272.428C350.882 272.428 352.738 273.22 353.97 274.804C355.218 276.372 355.842 278.412 355.842 280.924C355.842 283.436 355.218 285.484 353.97 287.068C352.738 288.636 350.882 289.42 348.402 289.42C345.922 289.42 344.058 288.636 342.81 287.068ZM348.402 286.252C350.962 286.252 352.242 284.476 352.242 280.924C352.242 277.372 350.962 275.596 348.402 275.596C345.842 275.596 344.562 277.372 344.562 280.924C344.562 284.476 345.842 286.252 348.402 286.252ZM359.755 287.068C358.523 285.484 357.907 283.436 357.907 280.924C357.907 278.412 358.523 276.372 359.755 274.804C361.003 273.22 362.867 272.428 365.347 272.428C367.827 272.428 369.683 273.22 370.915 274.804C372.163 276.372 372.787 278.412 372.787 280.924C372.787 283.436 372.163 285.484 370.915 287.068C369.683 288.636 367.827 289.42 365.347 289.42C362.867 289.42 361.003 288.636 359.755 287.068ZM365.347 286.252C367.907 286.252 369.187 284.476 369.187 280.924C369.187 277.372 367.907 275.596 365.347 275.596C362.787 275.596 361.507 277.372 361.507 280.924C361.507 284.476 362.787 286.252 365.347 286.252ZM376.184 292.564H373.496L375.008 286.108H378.536L376.184 292.564ZM382.044 287.068C380.812 285.484 380.196 283.436 380.196 280.924C380.196 278.412 380.812 276.372 382.044 274.804C383.292 273.22 385.156 272.428 387.636 272.428C390.116 272.428 391.972 273.22 393.204 274.804C394.452 276.372 395.076 278.412 395.076 280.924C395.076 283.436 394.452 285.484 393.204 287.068C391.972 288.636 390.116 289.42 387.636 289.42C385.156 289.42 383.292 288.636 382.044 287.068ZM387.636 286.252C390.196 286.252 391.476 284.476 391.476 280.924C391.476 277.372 390.196 275.596 387.636 275.596C385.076 275.596 383.796 277.372 383.796 280.924C383.796 284.476 385.076 286.252 387.636 286.252ZM398.989 287.068C397.757 285.484 397.141 283.436 397.141 280.924C397.141 278.412 397.757 276.372 398.989 274.804C400.237 273.22 402.101 272.428 404.581 272.428C407.061 272.428 408.917 273.22 410.149 274.804C411.397 276.372 412.021 278.412 412.021 280.924C412.021 283.436 411.397 285.484 410.149 287.068C408.917 288.636 407.061 289.42 404.581 289.42C402.101 289.42 400.237 288.636 398.989 287.068ZM404.581 286.252C407.141 286.252 408.421 284.476 408.421 280.924C408.421 277.372 407.141 275.596 404.581 275.596C402.021 275.596 400.741 277.372 400.741 280.924C400.741 284.476 402.021 286.252 404.581 286.252ZM415.935 287.068C414.703 285.484 414.087 283.436 414.087 280.924C414.087 278.412 414.703 276.372 415.935 274.804C417.183 273.22 419.047 272.428 421.527 272.428C424.007 272.428 425.863 273.22 427.095 274.804C428.343 276.372 428.967 278.412 428.967 280.924C428.967 283.436 428.343 285.484 427.095 287.068C425.863 288.636 424.007 289.42 421.527 289.42C419.047 289.42 417.183 288.636 415.935 287.068ZM421.527 286.252C424.087 286.252 425.367 284.476 425.367 280.924C425.367 277.372 424.087 275.596 421.527 275.596C418.967 275.596 417.687 277.372 417.687 280.924C417.687 284.476 418.967 286.252 421.527 286.252Z" fill="#111111"/>
<circle cx="302" cy="184.084" r="19.5" stroke="#111111"/>
<path fill-rule="evenodd" clip-rule="evenodd" d="M296.949 174.769C293.984 176.255 291.471 177.52 291.366 177.581C291.016 177.783 290.925 178.134 291.059 178.767C291.21 179.478 291.592 180.216 292.191 180.954C292.627 181.491 292.741 181.553 293.285 181.553H293.692V186.296V191.038H293.28C292.749 191.038 292.613 191.115 292.172 191.66C291.588 192.383 291.208 193.122 291.059 193.824C290.926 194.453 291.019 194.823 291.354 194.994C291.53 195.084 291.595 195.084 302.499 195.084C313.403 195.084 313.468 195.084 313.645 194.994C313.979 194.823 314.072 194.453 313.939 193.824C313.789 193.114 313.406 192.375 312.807 191.637C312.371 191.101 312.257 191.038 311.713 191.038H311.307V186.296V181.553H311.713C312.257 181.553 312.371 181.491 312.807 180.954C313.406 180.216 313.789 179.478 313.939 178.767C314.031 178.335 314.019 178.056 313.901 177.844C313.803 177.669 313.652 177.59 308.273 174.884C303.97 172.719 302.702 172.1 302.544 172.085C302.352 172.068 302.067 172.205 296.949 174.769ZM306.499 175.507L310.475 177.502H302.499H294.523L298.5 175.507C300.687 174.409 302.487 173.511 302.499 173.511C302.512 173.511 304.311 174.409 306.499 175.507ZM312.431 179.057C312.333 179.286 312.091 179.677 311.854 179.991L311.693 180.205H302.499H293.306L293.144 179.991C292.907 179.677 292.666 179.286 292.568 179.057L292.481 178.856H302.499H312.517L312.431 179.057ZM296.388 186.296V191.038H295.714H295.04V186.296V181.553H295.714H296.388V186.296ZM300.477 186.296V191.038H299.106H297.736V186.296V181.553H299.106H300.477V186.296ZM303.173 186.296V191.038H302.499H301.825V186.296V181.553H302.499H303.173V186.296ZM307.262 186.296V191.038H305.892H304.521V186.296V181.553H305.892H307.262V186.296ZM309.959 186.296V191.038H309.285H308.611V186.296V181.553H309.285H309.959V186.296ZM311.854 192.601C312.091 192.915 312.333 193.306 312.431 193.534L312.517 193.736H302.497H292.477L292.547 193.567C292.633 193.362 292.923 192.891 293.144 192.601L293.306 192.387H302.499H311.693L311.854 192.601Z" fill="#111111"/>
<path fill-rule="evenodd" clip-rule="evenodd" d="M433.03 176.172C432.908 176.235 432.837 176.3 432.768 176.411L432.674 176.564L432.663 177.324L432.653 178.085L432.225 178.085C431.699 178.086 431.449 178.136 431.096 178.31C430.579 178.565 430.163 179.101 430.046 179.663C430.007 179.85 430 180.65 430 185.086C430 190.896 429.986 190.517 430.225 190.993C430.452 191.447 430.86 191.798 431.381 191.988L431.61 192.072L437.906 192.08C444.942 192.089 444.437 192.105 444.919 191.862C445.385 191.628 445.77 191.173 445.931 190.665L446 190.446V185.086V179.726L445.931 179.507C445.769 178.998 445.384 178.542 444.921 178.31C444.574 178.137 444.319 178.086 443.789 178.085L443.362 178.085L443.351 177.324L443.341 176.564L443.247 176.411C443.178 176.3 443.107 176.235 442.985 176.172C442.824 176.087 442.801 176.084 442.351 176.084C441.842 176.084 441.726 176.111 441.563 176.266C441.365 176.453 441.355 176.507 441.355 177.333V178.085H438.007H434.66V177.349C434.66 176.549 434.647 176.47 434.479 176.291C434.315 176.117 434.194 176.086 433.67 176.085C433.212 176.084 433.192 176.087 433.03 176.172ZM444.663 186.55L444.655 190.327L444.569 190.449C444.522 190.516 444.432 190.607 444.368 190.65L444.253 190.728H438.007H431.761L431.639 190.642C431.571 190.595 431.481 190.505 431.438 190.441L431.36 190.326L431.352 186.55L431.343 182.773H438.007H444.671L444.663 186.55Z" fill="#111111"/>
</svg>
