<svg width="542" height="543" viewBox="0 0 542 543" fill="none" xmlns="http://www.w3.org/2000/svg">
<path fill-rule="evenodd" clip-rule="evenodd" d="M135.5 271.552C135.5 346.387 196.165 407.052 271 407.052C345.835 407.052 406.5 346.387 406.5 271.552C406.5 196.718 345.835 136.052 271 136.052C196.165 136.052 135.5 196.718 135.5 271.552ZM-1.18458e-05 271.552C-1.8388e-05 421.221 121.331 542.552 271 542.552C420.669 542.552 542 421.221 542 271.552C542 121.883 420.669 0.552241 271 0.552234C121.331 0.552228 -5.30354e-06 121.883 -1.18458e-05 271.552Z" fill="url(#paint0_linear_151_54374)"/>
<rect x="187.501" y="154.055" width="205" height="273" rx="6.5" fill="white" stroke="#111111"/>
<rect x="168.501" y="135.055" width="206" height="274" rx="6.5" fill="white" stroke="#111111"/>
<rect x="150.501" y="117.055" width="205.568" height="273.277" rx="6.5" fill="#3E1BDB" stroke="#111111"/>
<path fill-rule="evenodd" clip-rule="evenodd" d="M274.117 161.689L269.923 170.101L237.505 170.154L205.086 170.207L228.298 202.023L251.51 233.839V245.177V256.516H241.097H230.683V258.834V261.153H253.93H277.177V258.836V256.52L266.71 256.465L256.244 256.41L256.189 245.228L256.135 234.046L279.384 202.174C292.171 184.644 302.633 170.257 302.633 170.202C302.633 170.147 296.431 170.102 288.852 170.102H275.072L278.754 162.727L282.436 155.352L280.373 154.315L278.311 153.278L274.117 161.689ZM267.499 174.842C267.499 174.898 267.004 175.941 266.399 177.16L265.299 179.376L241.417 179.371L217.534 179.367L216.061 177.333C215.252 176.214 214.513 175.172 214.421 175.019C214.281 174.787 218.8 174.739 240.876 174.739C255.519 174.739 267.499 174.785 267.499 174.842ZM293.307 175.035C293.245 175.198 292.52 176.241 291.697 177.354L290.2 179.376H280.32H270.441L271.602 177.057L272.762 174.739H283.091C291.882 174.739 293.404 174.783 293.307 175.035ZM261.689 186.597L260.509 188.971L258.979 188.894C254.746 188.68 250.913 191.383 249.677 195.455C249.25 196.862 249.25 199.405 249.677 200.812C250.075 202.125 250.829 203.453 251.74 204.448L252.408 205.177L250.488 209.031L248.568 212.885L250.67 213.942L252.772 214.999L254.689 211.15L256.606 207.302L258.003 207.376C263.43 207.662 267.773 203.554 267.773 198.134C267.773 195.666 266.951 193.517 265.365 191.836L264.692 191.124L266.411 187.674L268.129 184.223H277.412C284.809 184.223 286.653 184.277 286.488 184.487C286.374 184.632 279.061 194.661 270.236 206.775C261.412 218.889 254.121 228.878 254.035 228.973C253.919 229.101 222.269 186.025 221.349 184.487C221.223 184.276 225.415 184.223 242.03 184.223H262.869L261.689 186.597ZM260.3 193.824C262.035 194.55 263.123 196.211 263.123 198.134C263.123 203.071 256.68 204.55 254.403 200.136C253.249 197.899 254.388 194.866 256.77 193.833C257.729 193.417 259.317 193.413 260.3 193.824Z" fill="white"/>
<path d="M197.031 312.555H192.381L200.961 291.555H205.821L214.371 312.555H209.721L208.191 308.625H198.591L197.031 312.555ZM202.911 297.375L200.001 304.905H206.781L203.841 297.375C203.641 296.815 203.491 296.265 203.391 295.725C203.271 296.345 203.111 296.895 202.911 297.375ZM223.438 312.555H219.268V298.155H223.438V312.555ZM223.798 293.385C223.798 294.165 223.568 294.755 223.108 295.155C222.648 295.555 222.058 295.755 221.338 295.755C220.638 295.755 220.058 295.555 219.598 295.155C219.138 294.755 218.908 294.165 218.908 293.385C218.908 292.625 219.138 292.045 219.598 291.645C220.058 291.245 220.638 291.045 221.338 291.045C222.038 291.045 222.618 291.245 223.078 291.645C223.558 292.045 223.798 292.625 223.798 293.385ZM233.721 300.315C234.261 299.475 235.041 298.825 236.061 298.365C237.081 297.905 238.241 297.735 239.541 297.855V301.905C238.401 301.705 237.331 301.805 236.331 302.205C235.351 302.605 234.641 303.235 234.201 304.095V312.555H230.031V298.155H233.721V300.315ZM248.44 300.255C249.62 298.575 251.36 297.735 253.66 297.735C255.84 297.735 257.55 298.485 258.79 299.985C260.05 301.465 260.68 303.255 260.68 305.355C260.68 307.455 260.05 309.255 258.79 310.755C257.55 312.235 255.84 312.975 253.66 312.975C251.68 312.975 250.1 312.325 248.92 311.025V319.155H244.75V298.155H248.44V300.255ZM255.4 308.295C256.08 307.495 256.42 306.515 256.42 305.355C256.42 304.195 256.08 303.225 255.4 302.445C254.72 301.645 253.8 301.245 252.64 301.245C251.78 301.245 251.01 301.475 250.33 301.935C249.67 302.395 249.19 302.965 248.89 303.645V307.065C249.19 307.745 249.67 308.315 250.33 308.775C251.01 309.235 251.78 309.465 252.64 309.465C253.8 309.465 254.72 309.075 255.4 308.295ZM267.912 310.965C266.372 309.625 265.602 307.755 265.602 305.355C265.602 302.955 266.372 301.085 267.912 299.745C269.452 298.405 271.332 297.735 273.552 297.735C275.792 297.735 277.672 298.405 279.192 299.745C280.732 301.085 281.502 302.955 281.502 305.355C281.502 307.755 280.732 309.625 279.192 310.965C277.672 312.305 275.792 312.975 273.552 312.975C271.332 312.975 269.452 312.305 267.912 310.965ZM276.282 308.175C276.942 307.435 277.272 306.495 277.272 305.355C277.272 304.215 276.942 303.285 276.282 302.565C275.622 301.825 274.712 301.455 273.552 301.455C272.392 301.455 271.482 301.825 270.822 302.565C270.182 303.285 269.862 304.215 269.862 305.355C269.862 306.495 270.182 307.435 270.822 308.175C271.482 308.895 272.392 309.255 273.552 309.255C274.712 309.255 275.622 308.895 276.282 308.175ZM290.915 300.315C291.455 299.475 292.235 298.825 293.255 298.365C294.275 297.905 295.435 297.735 296.735 297.855V301.905C295.595 301.705 294.525 301.805 293.525 302.205C292.545 302.605 291.835 303.235 291.395 304.095V312.555H287.225V298.155H290.915V300.315ZM303.023 293.955L307.163 292.965V298.155H311.723V301.665H307.163V307.305C307.163 308.745 307.933 309.465 309.473 309.465C310.393 309.465 311.263 309.305 312.083 308.985V312.345C310.883 312.765 309.593 312.975 308.213 312.975C306.693 312.975 305.443 312.585 304.463 311.805C303.503 311.025 303.023 309.795 303.023 308.115V301.665H300.593V298.155H303.023V293.955ZM198.785 320.655H202.955V342.555H198.785V320.655ZM211.047 340.965C209.507 339.625 208.737 337.755 208.737 335.355C208.737 332.955 209.507 331.085 211.047 329.745C212.587 328.405 214.467 327.735 216.687 327.735C218.927 327.735 220.807 328.405 222.327 329.745C223.867 331.085 224.637 332.955 224.637 335.355C224.637 337.755 223.867 339.625 222.327 340.965C220.807 342.305 218.927 342.975 216.687 342.975C214.467 342.975 212.587 342.305 211.047 340.965ZM219.417 338.175C220.077 337.435 220.407 336.495 220.407 335.355C220.407 334.215 220.077 333.285 219.417 332.565C218.757 331.825 217.847 331.455 216.687 331.455C215.527 331.455 214.617 331.825 213.957 332.565C213.317 333.285 212.997 334.215 212.997 335.355C212.997 336.495 213.317 337.435 213.957 338.175C214.617 338.895 215.527 339.255 216.687 339.255C217.847 339.255 218.757 338.895 219.417 338.175ZM240.349 328.155H244.519V342.555H240.829V340.725C239.529 342.225 237.929 342.975 236.029 342.975C234.149 342.975 232.699 342.425 231.679 341.325C230.679 340.225 230.179 338.805 230.179 337.065V328.155H234.349V336.525C234.349 337.465 234.589 338.175 235.069 338.655C235.549 339.135 236.229 339.375 237.109 339.375C238.389 339.375 239.469 338.765 240.349 337.545V328.155ZM254.745 329.985C256.045 328.485 257.645 327.735 259.545 327.735C261.385 327.735 262.815 328.295 263.835 329.415C264.875 330.515 265.395 331.925 265.395 333.645V342.555H261.225V334.185C261.225 333.245 260.965 332.535 260.445 332.055C259.945 331.575 259.275 331.335 258.435 331.335C257.135 331.335 256.065 331.945 255.225 333.165V342.555H251.055V328.155H254.745V329.985ZM272.83 340.755C271.57 339.255 270.94 337.455 270.94 335.355C270.94 333.255 271.57 331.465 272.83 329.985C274.09 328.485 275.81 327.735 277.99 327.735C280.25 327.735 281.99 328.575 283.21 330.255V328.155H286.87V342.165C286.87 343.485 286.64 344.635 286.18 345.615C285.72 346.615 285.09 347.385 284.29 347.925C283.51 348.485 282.64 348.895 281.68 349.155C280.72 349.435 279.69 349.575 278.59 349.575C276.39 349.575 274.36 349.125 272.5 348.225V344.565C274.18 345.565 276.03 346.065 278.05 346.065C281.17 346.065 282.73 344.825 282.73 342.345V341.025C281.55 342.325 279.97 342.975 277.99 342.975C275.81 342.975 274.09 342.235 272.83 340.755ZM282.73 333.645C282.43 332.965 281.94 332.395 281.26 331.935C280.6 331.475 279.84 331.245 278.98 331.245C277.82 331.245 276.9 331.645 276.22 332.445C275.54 333.225 275.2 334.195 275.2 335.355C275.2 336.515 275.54 337.495 276.22 338.295C276.9 339.075 277.82 339.465 278.98 339.465C279.84 339.465 280.6 339.245 281.26 338.805C281.94 338.365 282.43 337.815 282.73 337.155V333.645ZM292.602 335.355C292.602 334.055 292.832 332.905 293.292 331.905C293.752 330.885 294.352 330.085 295.092 329.505C295.852 328.925 296.642 328.485 297.462 328.185C298.302 327.885 299.152 327.735 300.012 327.735C301.452 327.735 302.692 328.005 303.732 328.545C304.792 329.085 305.572 329.785 306.072 330.645C306.572 331.485 306.912 332.445 307.092 333.525C307.292 334.585 307.242 335.645 306.942 336.705H296.802C297.022 337.705 297.602 338.455 298.542 338.955C299.482 339.435 300.592 339.675 301.872 339.675C303.452 339.675 304.902 339.385 306.222 338.805V342.075C304.802 342.675 303.042 342.975 300.942 342.975C298.542 342.975 296.552 342.305 294.972 340.965C293.392 339.625 292.602 337.755 292.602 335.355ZM303.192 334.005C303.292 333.345 303.102 332.665 302.622 331.965C302.142 331.265 301.322 330.915 300.162 330.915C299.242 330.915 298.452 331.195 297.792 331.755C297.132 332.295 296.792 333.045 296.772 334.005H303.192Z" fill="white"/>
<defs>
<linearGradient id="paint0_linear_151_54374" x1="462.733" y1="81.8522" x2="93.495" y2="495.127" gradientUnits="userSpaceOnUse">
<stop offset="0.239845" stop-color="#F9F8FE"/>
<stop offset="0.593059" stop-color="#F9F8FE" stop-opacity="0.5"/>
<stop offset="0.91781" stop-color="#F9F8FE" stop-opacity="0"/>
</linearGradient>
</defs>
</svg>
