<svg width="123" height="28" viewBox="0 0 123 28" fill="none" xmlns="http://www.w3.org/2000/svg">
<path d="M116.522 26.8024L121.738 21.5533L114.121 13.9012L121.738 6.24905L116.522 1L108.905 8.65205L101.302 1L96.0858 6.24905L103.69 13.9012L96.0858 21.5533L101.302 26.8024L108.905 19.1502L116.522 26.8024Z" stroke="#3E1BDB" stroke-width="0.8412" stroke-miterlimit="10" stroke-linecap="round" stroke-linejoin="round"/>
<path d="M68.9794 26.8024L74.1953 21.5533L66.5916 13.9012L74.1953 6.24905L68.9794 1L61.3624 8.65205L53.7587 1L48.5429 6.24905L56.1466 13.9012L48.5429 21.5533L53.7587 26.8024L61.3624 19.1502L68.9794 26.8024Z" stroke="#3E1BDB" stroke-width="0.8412" stroke-miterlimit="10" stroke-linecap="round" stroke-linejoin="round"/>
<path d="M21.4365 26.8024L26.6523 21.5533L19.0486 13.9012L26.6523 6.24905L21.4365 1L13.8328 8.65205L6.21572 1L0.999864 6.24905L8.61689 13.9012L0.999864 21.5533L6.21572 26.8024L13.8328 19.1502L21.4365 26.8024Z" stroke="#3E1BDB" stroke-width="0.8412" stroke-miterlimit="10" stroke-linecap="round" stroke-linejoin="round"/>
</svg>
