<svg width="165" height="162" viewBox="0 0 165 162" fill="none" xmlns="http://www.w3.org/2000/svg">
<path d="M105.125 24.1784C98.9032 21.9141 92.3845 20.7225 85.8398 20.6532C76.1255 20.6215 66.5581 22.9601 57.8377 27.0202C32.3339 38.9033 45.2754 70.7322 39.5508 78.7864C33.8262 86.8406 19.9463 94.1381 27.7185 111.562C32.6144 122.518 40.3978 132.464 51.2898 137.594C61.2658 142.293 72.3498 141.78 82.8019 140.298C94.5451 138.643 106.872 136.628 116.528 129.285C126.438 121.75 129.813 109.006 135.9 98.5623C139.734 91.9845 142.888 85.4857 143.43 77.6313C143.495 76.696 143.526 75.7521 143.532 74.81C143.62 62.9729 139.224 51.48 131.646 42.362C124.844 34.1688 115.334 27.8388 105.125 24.1784Z" fill="#F9F8FE"/>
<path fill-rule="evenodd" clip-rule="evenodd" d="M98.0555 28.2967C97.59 28.5521 95.1584 33.4853 85.7377 53.2886C79.2819 66.8592 74 78.1649 74 78.4129C74 78.8778 96.8822 117.579 97.6951 118.489C98.0098 118.842 98.4062 119 98.973 119C99.5381 119 99.9383 118.841 100.256 118.489C100.688 118.011 121.663 79.6561 121.999 78.7307C122.125 78.3824 111.143 52.7882 101.158 30.1609C100.263 28.1328 99.352 27.5852 98.0555 28.2967ZM96.8449 81.4928C96.6813 81.6576 78.9278 77.1324 78.8864 76.9154C78.8661 76.81 82.8967 68.2182 87.8427 57.8229L96.8356 38.922L96.893 60.1541C96.9245 71.8317 96.9029 81.434 96.8449 81.4928ZM109.414 58.7038C113.818 68.8074 117.397 77.0933 117.366 77.117C117.268 77.191 101.336 81.5398 101.163 81.5398C101.072 81.5398 101.001 72.1152 101.005 60.5961C101.009 48.5069 101.095 39.7963 101.208 39.993C101.317 40.1803 105.009 48.6002 109.414 58.7038ZM88.7385 83.6114L96.9481 85.6829V97.7328C96.9481 104.463 96.8629 109.687 96.7549 109.567C96.6487 109.448 92.9864 103.323 88.6166 95.9563C84.247 88.5891 80.5258 82.3316 80.3472 82.0506C80.1341 81.715 80.1096 81.5398 80.2759 81.5398C80.4149 81.5398 84.2232 82.472 88.7385 83.6114ZM116.034 81.7441C115.993 81.8565 112.618 88.0753 108.535 95.5637L101.11 109.179L101.052 97.4803C101.02 91.0463 101.032 85.7428 101.079 85.6951C101.168 85.6054 115.589 81.5834 115.921 81.5554C116.025 81.5468 116.075 81.6317 116.034 81.7441Z" fill="#D3CEEB"/>
</svg>
