<svg width="190" height="191" viewBox="0 0 190 191" fill="none" xmlns="http://www.w3.org/2000/svg">
<path d="M91.9051 27.6651C84.6023 28.1998 77.4859 29.9513 70.8517 32.8468C61.0368 37.2164 52.4442 43.9107 45.4861 51.9581C25.1403 75.5025 52.6184 101.75 50.4924 112.469C48.3664 123.189 37.67 136.84 53.4059 150.897C63.3096 159.732 75.6684 166.239 88.9814 166.479C101.175 166.7 112.125 161.16 121.998 154.929C133.096 147.939 144.62 140.321 151.034 128.538C157.618 116.445 155.248 102.059 156.657 88.7645C157.545 80.3912 157.782 72.4055 154.77 64.2359C154.412 63.2628 154.015 62.2968 153.595 61.3433C148.32 49.3613 138.677 39.7585 126.9 33.9934C116.325 28.8095 103.863 26.7321 91.9051 27.6651Z" fill="#F9F8FE"/>
<path fill-rule="evenodd" clip-rule="evenodd" d="M91.0906 47.5136C89.6548 48.8212 89.5783 49.8587 90.6759 53.1315L91.5007 55.5905L85.5642 57.637L79.6278 59.6837L93.3121 100.485L106.996 141.286L112.966 139.34L118.936 137.393L119.666 139.568C120.66 142.532 121.405 143.344 123.289 143.517C124.073 143.589 124.737 143.418 128.284 142.232C133.341 140.542 133.955 140.117 134.295 138.075C134.407 137.402 134.294 136.835 133.68 135.004L132.927 132.759L135.099 131.894C136.295 131.418 137.914 130.813 138.699 130.549L140.125 130.07L140.839 132.195C141.648 134.601 142.136 135.416 143.108 135.983C144.389 136.728 145.193 136.604 149.997 134.917L154.306 133.404L154.854 132.629C155.833 131.242 155.837 130.931 154.925 127.848L154.102 125.067L154.971 124.721C156.611 124.067 159.573 122.445 161.351 121.227C166.667 117.586 170.046 112.143 171.045 105.613C172.696 94.8177 167.919 85.2363 158.954 81.3606C155.739 79.9711 152.654 79.4322 147.896 79.4302C147.71 79.43 148.125 78.8488 148.918 77.9978C152.952 73.6711 154.981 67.7178 154.394 61.9264C154.2 60.007 152.898 55.9498 151.958 54.3376C148.179 47.8491 140.848 43.7606 132.955 43.7393C132.112 43.7371 130.53 43.8669 129.44 44.0282C128.35 44.1893 127.338 44.3299 127.191 44.3405C126.992 44.3547 126.676 43.6225 125.955 41.4732C124.855 38.1925 124.544 37.7559 122.914 37.1955L121.963 36.8689L117.68 38.2366C113.175 39.6747 112.422 40.0332 111.705 41.081C110.949 42.1843 110.993 43.179 111.922 45.9632L112.757 48.4675L109.116 49.6886L105.475 50.9096L104.617 48.352C103.901 46.2151 103.66 45.6997 103.152 45.2186C101.649 43.7947 100.903 43.8262 95.8499 45.5267C92.3051 46.7195 91.6721 46.9837 91.0906 47.5136ZM125.518 59.7512C128.705 59.0151 131.053 59.1693 133.12 60.2504C135.939 61.7251 137.955 65.1986 138.075 68.785C138.178 71.8547 136.584 74.6639 133.533 76.7922C131.65 78.106 128.647 79.2724 117.601 82.9826L107.516 86.3697L104.391 77.051C102.672 71.9255 101.309 67.6421 101.362 67.5324C101.492 67.2661 123.056 60.3196 125.518 59.7512ZM136.41 92.2269C141.064 91.1849 144.056 91.2657 146.678 92.5038C149.385 93.7829 150.946 95.6316 152.043 98.8594C153.198 102.257 153.114 104.599 151.741 107.258C150.865 108.955 149.485 110.4 147.579 111.615C145.772 112.767 139.384 115.173 127.739 119.088L119.426 121.882L115.744 110.901L112.061 99.9212L123.166 96.3135C129.274 94.329 135.234 92.4902 136.41 92.2269Z" fill="#D3CEEB"/>
</svg>
