<svg width="190" height="191" viewBox="0 0 190 191" fill="none" xmlns="http://www.w3.org/2000/svg">
<path d="M91.9051 27.6651C84.6023 28.1998 77.4859 29.9513 70.8517 32.8468C61.0368 37.2164 52.4442 43.9107 45.4861 51.9581C25.1403 75.5025 52.6184 101.75 50.4924 112.469C48.3664 123.189 37.67 136.84 53.4059 150.897C63.3096 159.732 75.6684 166.239 88.9814 166.479C101.175 166.7 112.125 161.16 121.998 154.929C133.096 147.939 144.62 140.321 151.034 128.538C157.618 116.445 155.248 102.059 156.657 88.7645C157.545 80.3912 157.782 72.4055 154.77 64.2359C154.412 63.2628 154.015 62.2968 153.595 61.3433C148.32 49.3613 138.677 39.7585 126.9 33.9934C116.325 28.8095 103.863 26.7321 91.9051 27.6651Z" fill="#F9F8FE"/>
<path fill-rule="evenodd" clip-rule="evenodd" d="M50.0906 36.5136C48.6548 37.8212 48.5783 38.8587 49.6759 42.1315L50.5007 44.5905L44.5642 46.637L38.6278 48.6837L52.3121 89.4849L65.9964 130.286L71.9664 128.34L77.9363 126.393L78.666 128.568C79.6599 131.532 80.4052 132.344 82.2891 132.517C83.0725 132.589 83.7368 132.418 87.284 131.232C92.3407 129.542 92.9549 129.117 93.2951 127.075C93.4073 126.402 93.2937 125.835 92.6797 124.004L91.9266 121.759L94.0995 120.894C95.2947 120.418 96.9143 119.813 97.699 119.549L99.1255 119.07L99.8394 121.195C100.648 123.601 101.136 124.416 102.108 124.983C103.389 125.728 104.193 125.604 108.997 123.917L113.306 122.404L113.854 121.629C114.833 120.242 114.837 119.931 113.925 116.848L113.102 114.067L113.971 113.721C115.611 113.067 118.573 111.445 120.351 110.227C125.667 106.586 129.046 101.143 130.045 94.6129C131.696 83.8177 126.919 74.2363 117.954 70.3606C114.739 68.9711 111.654 68.4322 106.896 68.4302C106.71 68.43 107.125 67.8488 107.918 66.9978C111.952 62.6711 113.981 56.7178 113.394 50.9264C113.2 49.007 111.898 44.9498 110.958 43.3376C107.179 36.8491 99.8483 32.7606 91.9552 32.7393C91.1116 32.7371 89.5295 32.8669 88.4397 33.0282C87.3498 33.1893 86.3379 33.3299 86.1909 33.3405C85.9918 33.3547 85.6764 32.6225 84.9551 30.4732C83.8546 27.1925 83.5442 26.7559 81.9138 26.1955L80.9634 25.8689L76.6801 27.2366C72.1755 28.6747 71.4222 29.0332 70.7048 30.081C69.949 31.1843 69.9932 32.179 70.9217 34.9632L71.7568 37.4675L68.116 38.6886L64.4753 39.9096L63.6174 37.352C62.9007 35.2151 62.6598 34.6997 62.1519 34.2186C60.6492 32.7947 59.9032 32.8262 54.8499 34.5267C51.3051 35.7195 50.6721 35.9837 50.0906 36.5136ZM84.5177 48.7512C87.7055 48.0151 90.0534 48.1693 92.12 49.2504C94.9386 50.7251 96.9552 54.1986 97.0752 57.785C97.1778 60.8547 95.5842 63.6639 92.533 65.7922C90.6496 67.106 87.6473 68.2724 76.6006 71.9826L66.516 75.3697L63.3906 66.051C61.6716 60.9255 60.309 56.6421 60.3624 56.5324C60.492 56.2661 82.0561 49.3196 84.5177 48.7512ZM95.4097 81.2269C100.064 80.1849 103.056 80.2657 105.678 81.5038C108.385 82.7829 109.946 84.6316 111.043 87.8594C112.198 91.2568 112.114 93.5987 110.741 96.2582C109.865 97.9552 108.485 99.3996 106.579 100.615C104.772 101.767 98.3836 104.173 86.7393 108.088L78.4265 110.882L74.7437 99.9014L71.0611 88.9212L82.1663 85.3135C88.2742 83.329 94.2336 81.4902 95.4097 81.2269Z" fill="#D3CEEB"/>
</svg>
