<svg width="148" height="153" viewBox="0 0 148 153" fill="none" xmlns="http://www.w3.org/2000/svg">
<path d="M125.612 43.6758C128.992 49.3688 131.374 55.5529 132.657 61.9709C134.492 71.5104 133.97 81.3456 131.6 90.6683C124.659 117.935 90.9807 111.129 84.1295 118.249C77.2783 125.37 72.6849 140.363 54.1211 135.961C42.446 133.185 31.2283 127.383 24.1651 117.633C17.6957 108.703 16.1416 97.7169 15.657 87.1714C15.1022 75.3252 14.7934 62.8381 20.2156 51.9868C25.7797 40.8502 37.6758 35.1673 46.8076 27.2472C52.559 22.2585 58.3592 17.9524 65.9764 15.9617C66.8833 15.7239 67.8052 15.5188 68.7297 15.3373C80.3446 13.0529 92.4539 15.2388 102.821 20.9924C112.134 26.1549 120.12 34.3237 125.612 43.6758Z" fill="#F9F8FE"/>
<path fill-rule="evenodd" clip-rule="evenodd" d="M58.4797 23.9188C58.9452 24.1742 61.3768 29.1074 70.7974 48.9107C77.2533 62.4813 82.5352 73.787 82.5352 74.0349C82.5352 74.4999 59.653 113.201 58.8401 114.111C58.5253 114.464 58.1289 114.622 57.5622 114.622C56.997 114.622 56.5968 114.463 56.2791 114.111C55.8474 113.633 34.8719 75.2782 34.5362 74.3528C34.4098 74.0045 45.392 48.4103 55.377 25.783C56.2719 23.7549 57.1831 23.2073 58.4797 23.9188ZM59.6903 77.1148C59.8539 77.2797 77.6074 72.7545 77.6488 72.5374C77.669 72.4321 73.6385 63.8403 68.6925 53.445L59.6995 34.5441L59.6422 55.7761C59.6107 67.4537 59.6323 77.056 59.6903 77.1148ZM47.1215 54.3258C42.7168 64.4294 39.1385 72.7154 39.1695 72.739C39.2676 72.813 55.1992 77.1618 55.3725 77.1618C55.4631 77.1618 55.5342 67.7373 55.5306 56.2182C55.5266 44.1289 55.4404 35.4184 55.3268 35.615C55.2183 35.8023 51.5259 44.2223 47.1215 54.3258ZM67.7966 79.2335L59.587 81.3049V93.3549C59.587 100.085 59.6723 105.309 59.7803 105.189C59.8865 105.07 63.5487 98.9455 67.9186 91.5784C72.2881 84.2112 76.0093 77.9537 76.188 77.6727C76.401 77.3371 76.4256 77.1618 76.2593 77.1618C76.1203 77.1618 72.312 78.094 67.7966 79.2335ZM40.5012 77.3662C40.5423 77.4785 43.9171 83.6974 48.0005 91.1858L55.4249 104.801L55.4832 93.1024C55.5153 86.6683 55.5027 81.3649 55.4557 81.3172C55.3668 81.2275 40.9464 77.2054 40.6137 77.1775C40.5104 77.1689 40.4598 77.2538 40.5012 77.3662Z" fill="#D3CEEB"/>
</svg>
