<svg width="167" height="161" viewBox="0 0 167 161" fill="none" xmlns="http://www.w3.org/2000/svg">
<path d="M120.318 24.006C114.077 20.1759 107.277 17.4424 100.201 15.9193C89.6815 13.7357 78.797 14.1531 68.4493 16.6233C38.1845 23.8571 45.1658 61.21 37.1807 68.6709C29.1957 76.1318 12.541 80.9686 17.108 101.568C19.9891 114.524 26.2227 127.023 36.8903 134.991C46.6605 142.29 58.7846 144.187 70.4383 144.893C83.5292 145.699 97.3328 146.242 109.42 140.422C121.826 134.45 128.303 121.387 137.209 111.417C142.819 105.137 147.674 98.7931 149.999 90.4019C150.277 89.4029 150.519 88.3868 150.734 87.3675C153.449 74.5603 151.227 61.1341 145.033 49.5772C139.475 39.1942 130.571 30.2311 120.318 24.006Z" fill="#F9F8FE"/>
<path fill-rule="evenodd" clip-rule="evenodd" d="M59.0327 47.3486C57.7279 47.7772 56.1699 49.1596 55.4581 50.5203C54.8325 51.7163 54.8512 54.5734 55.4924 55.8024C56.1549 57.0728 64.1446 65.6246 67.7043 68.8737C72.5892 73.3328 76.1151 75.6731 80.0469 77.0669C82.2459 77.8464 86.2338 77.9114 88.535 77.2053C91.7183 76.2285 95.1732 74.1351 99.1487 70.7734C102.021 68.3455 112.106 57.9178 113.066 56.3841C116.263 51.2762 110.647 44.9268 105.345 47.6557C104.892 47.8892 102.045 50.6487 99.0177 53.7882C91.2267 61.8688 86.728 65.4876 84.4729 65.4876C82.2354 65.4876 77.9469 62.051 70.1902 54.0421C67.0192 50.7683 64.0351 47.8865 63.5589 47.6385C62.3429 47.0049 60.4479 46.8837 59.0327 47.3486ZM67.5439 56.99C70.5849 60.1472 73.9512 63.4896 75.0249 64.4174C78.8626 67.7347 82.1657 69.5181 84.4729 69.5181C88.2058 69.5181 93.8175 65.2557 102.785 55.6092C105.624 52.5552 107.041 51.2235 107.579 51.1023C108.935 50.7971 110.367 52.229 110.04 53.5638C109.857 54.3124 103.329 61.3768 99.1841 65.3127C92.8479 71.3291 88.7433 73.6571 84.4729 73.6571C79.0702 73.6571 73.8076 69.9518 63.307 58.7543C58.2751 53.3884 58.1681 53.1866 59.587 51.7319C60.978 50.3059 61.3303 50.5386 67.5439 56.99ZM82.5074 82.318C78.203 82.993 73.6294 85.7125 67.7066 91.1187C64.1451 94.3694 56.1552 102.921 55.4924 104.192C54.8512 105.421 54.8325 108.278 55.4581 109.474C57.0554 112.528 60.7458 113.823 63.6006 112.333C64.0539 112.096 67.0782 109.162 70.3213 105.812C77.9113 97.9727 82.2438 94.5183 84.4965 94.5097C85.5571 94.5057 88.0628 95.9263 90.5005 97.9144C91.7257 98.9134 95.5584 102.655 99.0177 106.229C105.103 112.516 105.348 112.734 106.55 112.917C110.533 113.527 113.919 110.694 113.944 106.733C113.952 105.458 113.808 104.867 113.257 103.911C112.394 102.412 102.174 91.7668 99.1487 89.2158C95.2172 85.9009 91.6924 83.754 88.6941 82.8485C87.2045 82.3987 83.8351 82.1098 82.5074 82.318ZM88.2942 86.991C92.6518 88.5282 97.4173 92.456 105.808 101.427C109.447 105.318 109.894 105.895 109.894 106.71C109.894 107.402 109.697 107.795 109.087 108.321C108.644 108.704 108.043 109.017 107.752 109.017C107.409 109.017 105.124 106.848 101.286 102.879C90.4287 91.6558 86.6264 89.3179 81.9629 90.9986C78.6102 92.2067 73.3269 96.6805 66.152 104.387C62.015 108.83 61.2543 109.381 60.1161 108.756C59.2746 108.295 58.7098 107.232 58.8977 106.465C58.9887 106.094 60.8926 103.826 63.1291 101.425C72.5177 91.346 77.7611 87.3475 82.9005 86.348C84.0623 86.122 86.7338 86.4404 88.2942 86.991Z" fill="#D3CEEB"/>
</svg>
