<svg width="167" height="161" viewBox="0 0 167 161" fill="none" xmlns="http://www.w3.org/2000/svg">
<path d="M120.318 24.006C114.077 20.1759 107.277 17.4424 100.201 15.9193C89.6815 13.7357 78.797 14.1531 68.4493 16.6233C38.1845 23.8571 45.1658 61.21 37.1807 68.6709C29.1957 76.1318 12.541 80.9686 17.108 101.568C19.9891 114.524 26.2227 127.023 36.8903 134.991C46.6605 142.29 58.7846 144.187 70.4383 144.893C83.5292 145.699 97.3328 146.242 109.42 140.422C121.826 134.45 128.303 121.387 137.209 111.417C142.819 105.137 147.674 98.7931 149.999 90.4019C150.277 89.4029 150.519 88.3868 150.734 87.3675C153.449 74.5603 151.227 61.1341 145.033 49.5772C139.475 39.1942 130.571 30.2311 120.318 24.006Z" fill="#F9F8FE"/>
<path fill-rule="evenodd" clip-rule="evenodd" d="M70.691 52.3168C69.4967 52.7064 68.0707 53.9632 67.4193 55.2002C66.8467 56.2874 66.8638 58.8847 67.4507 60.002C68.0571 61.157 75.3696 68.9314 78.6276 71.8851C83.0986 75.9388 86.3257 78.0664 89.9243 79.3334C91.9369 80.042 95.5869 80.1011 97.6931 79.4592C100.607 78.5713 103.769 76.6682 107.407 73.6121C110.036 71.4049 119.267 61.9252 120.145 60.5309C123.072 55.8873 117.931 50.1152 113.079 52.596C112.664 52.8083 110.058 55.3169 107.287 58.171C100.157 65.5169 96.0392 68.8068 93.9752 68.8068C91.9273 68.8068 88.0023 65.6826 80.9029 58.4018C78.0007 55.4256 75.2694 52.8058 74.8336 52.5804C73.7206 52.0044 71.9862 51.8942 70.691 52.3168ZM78.4808 61.0817C81.2642 63.9519 84.3452 66.9904 85.3279 67.8339C88.8403 70.8496 91.8635 72.4709 93.9752 72.4709C97.3918 72.4709 102.528 68.596 110.736 59.8264C113.334 57.05 114.63 55.8394 115.123 55.7292C116.364 55.4518 117.674 56.7535 117.375 57.967C117.208 58.6476 111.234 65.0697 107.44 68.6478C101.64 74.1172 97.8837 76.2336 93.9752 76.2336C89.0303 76.2336 84.2137 72.8651 74.6031 62.6856C69.9975 57.8075 69.8997 57.6241 71.1983 56.3016C72.4714 55.0052 72.7938 55.2168 78.4808 61.0817ZM92.1763 84.1072C88.2366 84.7208 84.0506 87.1931 78.6298 92.1078C75.3701 95.063 68.0573 102.837 67.4507 103.993C66.8638 105.11 66.8467 107.707 67.4193 108.795C68.8812 111.571 72.2589 112.748 74.8717 111.393C75.2866 111.178 78.0546 108.511 81.0229 105.466C87.9697 98.3387 91.935 95.1983 93.9968 95.1905C94.9675 95.1868 97.2608 96.4783 99.492 98.2857C100.613 99.1939 104.121 102.595 107.287 105.844C112.857 111.56 113.081 111.758 114.182 111.925C117.827 112.479 120.926 109.904 120.948 106.302C120.956 105.144 120.824 104.606 120.32 103.738C119.53 102.375 110.176 92.697 107.407 90.3779C103.809 87.3643 100.583 85.4126 97.8386 84.5894C96.4753 84.1805 93.3914 83.9179 92.1763 84.1072ZM97.4726 88.3553C101.461 89.7528 105.823 93.3235 113.502 101.479C116.833 105.016 117.242 105.541 117.242 106.282C117.242 106.911 117.062 107.268 116.503 107.746C116.098 108.094 115.548 108.379 115.281 108.379C114.968 108.379 112.877 106.407 109.363 102.799C99.4263 92.5961 95.9462 90.4707 91.6779 91.9986C88.6094 93.0969 83.7738 97.164 77.207 104.17C73.4205 108.209 72.7242 108.71 71.6825 108.142C70.9123 107.722 70.3955 106.756 70.5674 106.059C70.6507 105.721 72.3932 103.66 74.4402 101.477C83.0331 92.3145 87.8322 88.6795 92.5361 87.7708C93.5994 87.5653 96.0445 87.8548 97.4726 88.3553Z" fill="#D3CEEB"/>
</svg>
