<svg width="89" height="199" viewBox="0 0 89 199" fill="none" xmlns="http://www.w3.org/2000/svg">
<path d="M54.2303 175.801C62.2561 169.109 69.0539 161.161 74.3413 152.287C82.0924 139.058 86.4929 124.15 87.8727 109.031C91.8961 64.8071 38.2029 57.2091 31.7565 43.0084C25.3102 28.8078 26.3668 4.08097 -3.57144 0.860158C-22.4042 -1.15361 -42.1488 1.57433 -57.7898 12.3642C-72.1158 22.2464 -80.2105 37.7756 -86.482 53.2113C-93.5423 70.5456 -100.574 88.9628 -98.2173 107.962C-95.7998 127.461 -81.0904 142.178 -71.6715 158.769C-65.7394 169.219 -59.3756 178.679 -49.0895 185.65C-47.8652 186.481 -46.6015 187.271 -45.3215 188.028C-29.2418 197.54 -10.0736 200.661 8.3794 197.556C24.9546 194.777 41.1359 186.825 54.2303 175.801Z" fill="#F9F8FE"/>
</svg>
