<svg width="125" height="225" viewBox="0 0 125 225" fill="none" xmlns="http://www.w3.org/2000/svg">
<path d="M125.778 220.193C137.051 217.152 147.666 212.262 157.18 205.726C171.229 195.921 182.663 182.846 191.13 168.145C215.881 125.138 164.934 92.333 165.027 74.9067C165.121 57.4804 177.75 32.8766 148.868 15.6159C130.694 4.77045 109.378 -1.68827 88.4598 1.9536C69.3005 5.28871 53.8269 17.2677 40.2475 30.004C24.9802 44.2986 9.23581 59.7057 2.74836 80.0917C-3.9107 101.013 4.14146 122.825 5.94794 144.066C7.08529 157.445 9.12349 170.021 16.3059 181.904C17.1601 183.319 18.0734 184.712 19.019 186.078C30.8943 203.248 48.8915 215.374 69.0722 220.847C87.1949 225.772 107.335 225.263 125.778 220.193Z" fill="#F9F8FE"/>
</svg>
