<svg width="367" height="216" viewBox="0 0 367 216" fill="none" xmlns="http://www.w3.org/2000/svg">
<rect x="0.5" y="1.36182" width="366" height="214" rx="11.5" fill="white" stroke="#111111"/>
<path d="M300.368 194H296.672L290.144 177.2H294.032L298.52 189.776L303.032 177.2H306.92L300.368 194ZM309.162 177.2H312.762V194H309.162V177.2ZM315.914 181.64C315.914 180.088 316.498 178.904 317.666 178.088C318.834 177.272 320.298 176.864 322.058 176.864C324.17 176.864 325.986 177.296 327.506 178.16V181.52C326.082 180.496 324.354 180 322.322 180.032C320.498 180.064 319.586 180.584 319.586 181.592C319.586 182.04 319.81 182.432 320.258 182.768C320.722 183.104 321.29 183.376 321.962 183.584C322.65 183.776 323.386 184.032 324.17 184.352C324.97 184.656 325.706 184.992 326.378 185.36C327.066 185.712 327.634 186.24 328.082 186.944C328.546 187.648 328.778 188.464 328.778 189.392C328.778 190.304 328.602 191.088 328.25 191.744C327.914 192.4 327.434 192.912 326.81 193.28C326.186 193.648 325.498 193.912 324.746 194.072C323.994 194.248 323.154 194.336 322.226 194.336C319.89 194.336 317.818 193.832 316.01 192.824V189.392C317.802 190.576 319.786 191.168 321.962 191.168C324.058 191.168 325.106 190.632 325.106 189.56C325.106 189.08 324.874 188.664 324.41 188.312C323.962 187.944 323.394 187.656 322.706 187.448C322.034 187.224 321.298 186.96 320.498 186.656C319.714 186.336 318.978 186 318.29 185.648C317.618 185.28 317.05 184.752 316.586 184.064C316.138 183.376 315.914 182.568 315.914 181.64ZM333.083 194H329.363L336.227 177.2H340.115L346.955 194H343.235L342.011 190.856H334.331L333.083 194ZM337.787 181.856L335.459 187.88H340.883L338.531 181.856C338.371 181.408 338.251 180.968 338.171 180.536C338.075 181.032 337.947 181.472 337.787 181.856Z" fill="#111111"/>
<circle cx="92.5" cy="98.3618" r="46.5" stroke="#111111" stroke-width="2"/>
<circle cx="274.5" cy="98.3618" r="46.5" stroke="#111111" stroke-width="2"/>
<path fill-rule="evenodd" clip-rule="evenodd" d="M194.82 72.0182C194.404 72.2087 194.023 72.5855 193.888 72.9393C193.755 73.2892 193.77 74.0137 193.918 74.3508C193.988 74.5089 195.475 76.0491 197.265 77.8178L200.487 81.0004L181.324 81.0446L162.16 81.0888L161.819 81.2986C161.632 81.4139 161.371 81.6697 161.239 81.8667C161.04 82.1653 161 82.3232 161 82.8126C161 83.302 161.04 83.46 161.239 83.7586C161.371 83.9556 161.632 84.2114 161.819 84.3267L162.16 84.5365L181.324 84.5807L200.487 84.6249L197.265 87.8075C195.475 89.5762 193.988 91.1164 193.918 91.2745C193.77 91.6116 193.755 92.3361 193.888 92.686C194.215 93.542 195.378 94.0063 196.222 93.6177C196.608 93.4399 206.073 84.2252 206.392 83.7158C206.699 83.2281 206.686 82.3553 206.365 81.8757C205.994 81.3199 196.601 72.1823 196.222 72.0076C195.791 71.8095 195.266 71.8135 194.82 72.0182Z" fill="#111111"/>
<path fill-rule="evenodd" clip-rule="evenodd" d="M172.794 102.123C173.209 102.314 173.59 102.691 173.725 103.045C173.858 103.394 173.843 104.119 173.695 104.456C173.625 104.614 172.139 106.154 170.348 107.923L167.126 111.106L186.29 111.15L205.453 111.194L205.794 111.404C205.981 111.519 206.242 111.775 206.374 111.972C206.573 112.271 206.613 112.428 206.613 112.918C206.613 113.407 206.573 113.565 206.374 113.864C206.242 114.061 205.981 114.317 205.794 114.432L205.453 114.642L186.29 114.686L167.126 114.73L170.348 117.913C172.139 119.681 173.625 121.222 173.695 121.38C173.843 121.717 173.858 122.441 173.725 122.791C173.398 123.647 172.236 124.112 171.392 123.723C171.006 123.545 161.541 114.33 161.221 113.821C160.915 113.333 160.928 112.461 161.248 111.981C161.619 111.425 171.012 102.288 171.392 102.113C171.822 101.915 172.347 101.919 172.794 102.123Z" fill="#111111"/>
<path fill-rule="evenodd" clip-rule="evenodd" d="M266.502 79.0035C265.839 79.3029 265.688 79.6697 265.688 80.9896V81.9813L263.344 82.0014L261 82.0216V98.4761V114.931L263.344 114.951L265.688 114.971V115.848C265.688 117.043 265.856 117.428 266.502 117.72C266.771 117.842 267.026 117.86 268.423 117.862C270.413 117.864 270.681 117.785 271.044 117.086C271.163 116.855 271.19 116.636 271.19 115.898V114.992L272.062 114.943C272.542 114.915 273.187 114.893 273.496 114.893L274.058 114.893L274.058 115.75C274.059 116.72 274.135 117.075 274.412 117.399C274.776 117.825 275.076 117.877 276.976 117.85L278.681 117.825L278.967 117.611C279.478 117.227 279.517 117.115 279.56 115.887L279.599 114.778L279.947 114.758C280.605 114.721 281.847 114.493 282.621 114.267C284.934 113.594 286.777 112.032 287.905 109.786C289.771 106.073 289.218 102.019 286.505 99.5242C285.532 98.6297 284.504 98.0592 282.82 97.48C282.754 97.4573 282.97 97.297 283.352 97.085C285.293 96.007 286.718 94.0955 287.198 91.9248C287.357 91.2053 287.378 89.5763 287.237 88.8776C286.669 86.066 284.56 83.6926 281.768 82.7252C281.47 82.6219 280.895 82.4766 280.49 82.4025C280.085 82.3284 279.71 82.2564 279.657 82.2423C279.585 82.2233 279.56 81.9195 279.56 81.0527C279.56 79.7296 279.502 79.5336 278.991 79.1322L278.693 78.8983L277.015 78.8733C275.25 78.8469 274.941 78.8853 274.562 79.1779C274.164 79.486 274.061 79.8519 274.059 80.9741L274.058 81.9835H272.624H271.19V80.952C271.19 80.0902 271.166 79.8741 271.044 79.638C270.681 78.9391 270.413 78.8598 268.423 78.8619C267.026 78.8633 266.771 78.8821 266.502 79.0035ZM277.235 87.6254C278.451 87.7461 279.263 88.0875 279.867 88.7307C280.689 89.6079 280.991 91.1123 280.607 92.427C280.279 93.5522 279.382 94.3769 278.049 94.7774C277.226 95.0247 276.025 95.0825 271.675 95.0844L267.703 95.0862V91.328C267.703 89.261 267.729 87.5426 267.761 87.5093C267.839 87.4286 276.296 87.5322 277.235 87.6254ZM277.235 100.722C279.006 100.91 280.056 101.304 280.837 102.071C281.643 102.864 281.976 103.724 281.981 105.027C281.987 106.399 281.679 107.238 280.877 108.035C280.366 108.544 279.706 108.9 278.887 109.109C278.111 109.307 275.564 109.402 270.977 109.405L267.703 109.408V104.979V100.551L272.062 100.594C274.46 100.617 276.787 100.675 277.235 100.722Z" fill="#E7943C"/>
<path d="M91.8 82.8618H97.25V110.412H102.95V116.862H83.55V110.412H89.95V90.3618L83.55 92.7618V86.0118L91.8 82.8618Z" fill="#2968E4"/>
</svg>
