<svg width="350" height="364" viewBox="0 0 350 364" fill="none" xmlns="http://www.w3.org/2000/svg">
<rect x="63.5" y="24.5" width="286" height="339" rx="11.5" stroke="#111111"/>
<rect x="0.5" y="0.5" width="233" height="83" rx="11.5" fill="white" stroke="#111111"/>
<path d="M14.528 14.9582C14.528 14.1822 14.82 13.5902 15.404 13.1822C15.988 12.7742 16.72 12.5702 17.6 12.5702C18.656 12.5702 19.564 12.7862 20.324 13.2182V14.8982C19.612 14.3862 18.748 14.1382 17.732 14.1542C16.82 14.1702 16.364 14.4302 16.364 14.9342C16.364 15.1582 16.476 15.3542 16.7 15.5222C16.932 15.6902 17.216 15.8262 17.552 15.9302C17.896 16.0262 18.264 16.1542 18.656 16.3142C19.056 16.4662 19.424 16.6342 19.76 16.8182C20.104 16.9942 20.388 17.2582 20.612 17.6102C20.844 17.9622 20.96 18.3702 20.96 18.8342C20.96 19.2902 20.872 19.6822 20.696 20.0102C20.528 20.3382 20.288 20.5942 19.976 20.7782C19.664 20.9622 19.32 21.0942 18.944 21.1742C18.568 21.2622 18.148 21.3062 17.684 21.3062C16.516 21.3062 15.48 21.0542 14.576 20.5502V18.8342C15.472 19.4262 16.464 19.7222 17.552 19.7222C18.6 19.7222 19.124 19.4542 19.124 18.9182C19.124 18.6782 19.008 18.4702 18.776 18.2942C18.552 18.1102 18.268 17.9662 17.924 17.8622C17.588 17.7502 17.22 17.6182 16.82 17.4662C16.428 17.3062 16.06 17.1382 15.716 16.9622C15.38 16.7782 15.096 16.5142 14.864 16.1702C14.64 15.8262 14.528 15.4222 14.528 14.9582ZM23.7613 16.1102C24.2813 15.5102 24.9213 15.2102 25.6813 15.2102C26.4173 15.2102 26.9893 15.4342 27.3973 15.8822C27.8133 16.3222 28.0213 16.8862 28.0213 17.5742V21.1382H26.3533V17.7902C26.3533 17.4142 26.2493 17.1302 26.0413 16.9382C25.8413 16.7462 25.5733 16.6502 25.2373 16.6502C24.7173 16.6502 24.2893 16.8942 23.9533 17.3822V21.1382H22.2853V15.3782H23.7613V16.1102ZM30.2635 20.5022C29.6475 19.9662 29.3395 19.2182 29.3395 18.2582C29.3395 17.2982 29.6475 16.5502 30.2635 16.0142C30.8795 15.4782 31.6315 15.2102 32.5195 15.2102C33.4155 15.2102 34.1675 15.4782 34.7755 16.0142C35.3915 16.5502 35.6995 17.2982 35.6995 18.2582C35.6995 19.2182 35.3915 19.9662 34.7755 20.5022C34.1675 21.0382 33.4155 21.3062 32.5195 21.3062C31.6315 21.3062 30.8795 21.0382 30.2635 20.5022ZM33.6115 19.3862C33.8755 19.0902 34.0075 18.7142 34.0075 18.2582C34.0075 17.8022 33.8755 17.4302 33.6115 17.1422C33.3475 16.8462 32.9835 16.6982 32.5195 16.6982C32.0555 16.6982 31.6915 16.8462 31.4275 17.1422C31.1715 17.4302 31.0435 17.8022 31.0435 18.2582C31.0435 18.7142 31.1715 19.0902 31.4275 19.3862C31.6915 19.6742 32.0555 19.8182 32.5195 19.8182C32.9835 19.8182 33.3475 19.6742 33.6115 19.3862ZM44.1241 15.3782H45.8881L44.0401 21.1382H42.2761L41.1361 17.3822L39.9961 21.1382H38.2201L36.3721 15.3782H38.1481L39.1921 19.3262L40.3441 15.3782H41.9281L43.0681 19.3262L44.1241 15.3782ZM47.2367 12.7382H49.0367V19.5182H53.1527V21.1382H47.2367V12.7382ZM53.9348 18.2582C53.9348 17.7382 54.0268 17.2782 54.2108 16.8782C54.3948 16.4702 54.6348 16.1502 54.9308 15.9182C55.2348 15.6862 55.5508 15.5102 55.8788 15.3902C56.2148 15.2702 56.5548 15.2102 56.8988 15.2102C57.4748 15.2102 57.9708 15.3182 58.3868 15.5342C58.8108 15.7502 59.1228 16.0302 59.3228 16.3742C59.5228 16.7102 59.6588 17.0942 59.7308 17.5262C59.8108 17.9502 59.7908 18.3742 59.6708 18.7982H55.6148C55.7028 19.1982 55.9348 19.4982 56.3108 19.6982C56.6868 19.8902 57.1308 19.9862 57.6428 19.9862C58.2748 19.9862 58.8548 19.8702 59.3828 19.6382V20.9462C58.8148 21.1862 58.1108 21.3062 57.2708 21.3062C56.3108 21.3062 55.5148 21.0382 54.8828 20.5022C54.2508 19.9662 53.9348 19.2182 53.9348 18.2582ZM58.1708 17.7182C58.2108 17.4542 58.1348 17.1822 57.9428 16.9022C57.7508 16.6222 57.4228 16.4822 56.9588 16.4822C56.5908 16.4822 56.2748 16.5942 56.0108 16.8182C55.7468 17.0342 55.6108 17.3342 55.6028 17.7182H58.1708ZM61.7213 20.5022C61.1053 19.9662 60.7973 19.2182 60.7973 18.2582C60.7973 17.2982 61.1053 16.5502 61.7213 16.0142C62.3373 15.4782 63.0893 15.2102 63.9773 15.2102C64.8733 15.2102 65.6253 15.4782 66.2333 16.0142C66.8493 16.5502 67.1573 17.2982 67.1573 18.2582C67.1573 19.2182 66.8493 19.9662 66.2333 20.5022C65.6253 21.0382 64.8733 21.3062 63.9773 21.3062C63.0893 21.3062 62.3373 21.0382 61.7213 20.5022ZM65.0693 19.3862C65.3333 19.0902 65.4653 18.7142 65.4653 18.2582C65.4653 17.8022 65.3333 17.4302 65.0693 17.1422C64.8053 16.8462 64.4413 16.6982 63.9773 16.6982C63.5133 16.6982 63.1493 16.8462 62.8853 17.1422C62.6293 17.4302 62.5013 17.8022 62.5013 18.2582C62.5013 18.7142 62.6293 19.0902 62.8853 19.3862C63.1493 19.6742 63.5133 19.8182 63.9773 19.8182C64.4413 19.8182 64.8053 19.6742 65.0693 19.3862ZM70.0223 16.2182C70.4943 15.5462 71.1903 15.2102 72.1103 15.2102C72.9823 15.2102 73.6663 15.5102 74.1623 16.1102C74.6663 16.7022 74.9183 17.4182 74.9183 18.2582C74.9183 19.0982 74.6663 19.8182 74.1623 20.4182C73.6663 21.0102 72.9823 21.3062 72.1103 21.3062C71.3183 21.3062 70.6863 21.0462 70.2143 20.5262V23.7782H68.5463V15.3782H70.0223V16.2182ZM72.8063 19.4342C73.0783 19.1142 73.2143 18.7222 73.2143 18.2582C73.2143 17.7942 73.0783 17.4062 72.8063 17.0942C72.5343 16.7742 72.1663 16.6142 71.7023 16.6142C71.3583 16.6142 71.0503 16.7062 70.7783 16.8902C70.5143 17.0742 70.3223 17.3022 70.2023 17.5742V18.9422C70.3223 19.2142 70.5143 19.4422 70.7783 19.6262C71.0503 19.8102 71.3583 19.9022 71.7023 19.9022C72.1663 19.9022 72.5343 19.7462 72.8063 19.4342ZM81.4591 19.6502C81.4591 19.9062 81.5951 20.0342 81.8671 20.0342C81.9791 20.0342 82.0831 20.0182 82.1791 19.9862V21.0782C81.8751 21.1902 81.5671 21.2462 81.2551 21.2462C80.6471 21.2462 80.2231 21.0302 79.9831 20.5982C79.3831 21.0702 78.6911 21.3062 77.9071 21.3062C77.3391 21.3062 76.8591 21.1502 76.4671 20.8382C76.0831 20.5182 75.8911 20.0862 75.8911 19.5422C75.8911 19.0862 76.0271 18.7062 76.2991 18.4022C76.5711 18.0982 76.8871 17.8942 77.2471 17.7902C77.6071 17.6782 77.9991 17.6222 78.4231 17.6222C78.8951 17.6222 79.3511 17.6742 79.7911 17.7782V17.5742C79.7911 17.2782 79.6751 17.0422 79.4431 16.8662C79.2111 16.6902 78.8751 16.6022 78.4351 16.6022C77.7951 16.6022 77.1151 16.7462 76.3951 17.0342V15.5942C77.1631 15.3382 77.9071 15.2102 78.6271 15.2102C80.5151 15.2102 81.4591 16.0782 81.4591 17.8142V19.6502ZM78.8071 18.6182C78.4631 18.6182 78.1751 18.6822 77.9431 18.8102C77.7111 18.9382 77.5951 19.1382 77.5951 19.4102C77.5951 19.6182 77.6791 19.7902 77.8471 19.9262C78.0231 20.0542 78.2391 20.1182 78.4951 20.1182C78.9991 20.1182 79.4311 19.9622 79.7911 19.6502V18.7502C79.4231 18.6622 79.0951 18.6182 78.8071 18.6182ZM84.7434 16.2422C84.9594 15.9062 85.2714 15.6462 85.6794 15.4622C86.0874 15.2782 86.5514 15.2102 87.0714 15.2582V16.8782C86.6154 16.7982 86.1874 16.8382 85.7874 16.9982C85.3954 17.1582 85.1114 17.4102 84.9354 17.7542V21.1382H83.2674V15.3782H84.7434V16.2422ZM92.5297 12.7382H94.1857V21.1382H92.7217V20.2982C92.2337 20.9702 91.5377 21.3062 90.6337 21.3062C89.7617 21.3062 89.0737 21.0102 88.5697 20.4182C88.0657 19.8182 87.8137 19.0982 87.8137 18.2582C87.8137 17.4182 88.0657 16.7022 88.5697 16.1102C89.0737 15.5102 89.7617 15.2102 90.6337 15.2102C91.4257 15.2102 92.0577 15.4702 92.5297 15.9902V12.7382ZM92.5297 17.5742C92.4097 17.3022 92.2137 17.0742 91.9417 16.8902C91.6777 16.7062 91.3737 16.6142 91.0297 16.6142C90.5657 16.6142 90.1977 16.7742 89.9257 17.0942C89.6537 17.4062 89.5177 17.7942 89.5177 18.2582C89.5177 18.7222 89.6537 19.1142 89.9257 19.4342C90.1977 19.7462 90.5657 19.9022 91.0297 19.9022C91.3737 19.9022 91.6777 19.8102 91.9417 19.6262C92.2137 19.4422 92.4097 19.2142 92.5297 18.9422V17.5742Z" fill="#111111"/>
<path d="M14.75 31H17.81C18.5767 31 19.17 31.15 19.59 31.45C20.0167 31.7433 20.23 32.1833 20.23 32.77C20.23 33.55 19.8767 34.06 19.17 34.3C19.5567 34.4133 19.8767 34.6133 20.13 34.9C20.3833 35.18 20.51 35.56 20.51 36.04C20.51 36.42 20.4267 36.7467 20.26 37.02C20.0933 37.2867 19.8667 37.4867 19.58 37.62C19.3 37.7533 19.01 37.85 18.71 37.91C18.4167 37.97 18.1 38 17.76 38H14.75V31ZM19.01 35.88C19.01 35.28 18.6133 34.98 17.82 34.98H16.24V36.78H17.74C18.1333 36.78 18.4433 36.7167 18.67 36.59C18.8967 36.4633 19.01 36.2267 19.01 35.88ZM18.74 33.03C18.74 32.4967 18.3867 32.23 17.68 32.23H16.25V33.83H17.76C18.0533 33.83 18.29 33.7633 18.47 33.63C18.65 33.49 18.74 33.29 18.74 33.03ZM21.1488 31H26.9388V32.35H24.7888V38H23.2988V32.35H21.1488V31ZM27.5088 34.58C27.5088 33.9667 27.6155 33.4167 27.8288 32.93C28.0488 32.4367 28.3355 32.0433 28.6888 31.75C29.0488 31.4567 29.4488 31.2367 29.8888 31.09C30.3288 30.9367 30.7888 30.86 31.2688 30.86C32.0022 30.86 32.6688 31.01 33.2688 31.31V32.74C32.7955 32.3733 32.2122 32.19 31.5188 32.19C30.8388 32.19 30.2555 32.3933 29.7688 32.8C29.2888 33.2 29.0488 33.7933 29.0488 34.58C29.0488 34.9533 29.1188 35.2867 29.2588 35.58C29.3988 35.8667 29.5855 36.0967 29.8188 36.27C30.0588 36.4433 30.3222 36.5767 30.6088 36.67C30.9022 36.7567 31.2055 36.8 31.5188 36.8C32.2922 36.8 32.8922 36.6067 33.3188 36.22V37.69C32.6988 37.99 32.0222 38.14 31.2888 38.14C30.8088 38.14 30.3488 38.0667 29.9088 37.92C29.4688 37.7733 29.0655 37.56 28.6988 37.28C28.3388 37 28.0488 36.6267 27.8288 36.16C27.6155 35.6933 27.5088 35.1667 27.5088 34.58ZM38.4986 38H37.1086V33.2H38.4986V38ZM38.6186 31.61C38.6186 31.87 38.5419 32.0667 38.3886 32.2C38.2353 32.3333 38.0386 32.4 37.7986 32.4C37.5653 32.4 37.3719 32.3333 37.2186 32.2C37.0653 32.0667 36.9886 31.87 36.9886 31.61C36.9886 31.3567 37.0653 31.1633 37.2186 31.03C37.3719 30.8967 37.5653 30.83 37.7986 30.83C38.0319 30.83 38.2253 30.8967 38.3786 31.03C38.5386 31.1633 38.6186 31.3567 38.6186 31.61ZM39.7863 34.54C39.7863 34.0267 39.9763 33.6533 40.3563 33.42C40.7363 33.18 41.2129 33.06 41.7863 33.06C42.4063 33.06 42.9963 33.1967 43.5563 33.47V34.61C43.3496 34.47 43.0863 34.3533 42.7663 34.26C42.4529 34.1667 42.1563 34.12 41.8763 34.12C41.4296 34.12 41.2063 34.2467 41.2063 34.5C41.2063 34.6467 41.2996 34.7667 41.4863 34.86C41.6729 34.9533 41.8996 35.0367 42.1663 35.11C42.4329 35.1767 42.6963 35.26 42.9563 35.36C43.2229 35.46 43.4496 35.62 43.6363 35.84C43.8229 36.06 43.9163 36.3333 43.9163 36.66C43.9163 37.02 43.8096 37.3133 43.5963 37.54C43.3896 37.7667 43.1296 37.9233 42.8163 38.01C42.5096 38.0967 42.1496 38.14 41.7363 38.14C40.9696 38.14 40.3329 37.99 39.8263 37.69V36.54C40.3463 36.88 40.9563 37.05 41.6563 37.05C42.2163 37.05 42.4963 36.93 42.4963 36.69C42.4963 36.55 42.4029 36.4333 42.2163 36.34C42.0296 36.2467 41.8029 36.1633 41.5363 36.09C41.2763 36.0167 41.0129 35.93 40.7463 35.83C40.4796 35.7233 40.2529 35.5633 40.0662 35.35C39.8796 35.13 39.7863 34.86 39.7863 34.54ZM50.9087 33.2H52.2987V38H51.0687V37.39C50.6353 37.89 50.102 38.14 49.4687 38.14C48.842 38.14 48.3587 37.9567 48.0187 37.59C47.6853 37.2233 47.5187 36.75 47.5187 36.17V33.2H48.9087V35.99C48.9087 36.3033 48.9887 36.54 49.1487 36.7C49.3087 36.86 49.5353 36.94 49.8287 36.94C50.2553 36.94 50.6153 36.7367 50.9087 36.33V33.2ZM55.0071 33.9C55.4004 33.34 55.9804 33.06 56.7471 33.06C57.4738 33.06 58.0438 33.31 58.4571 33.81C58.8771 34.3033 59.0871 34.9 59.0871 35.6C59.0871 36.3 58.8771 36.9 58.4571 37.4C58.0438 37.8933 57.4738 38.14 56.7471 38.14C56.0871 38.14 55.5604 37.9233 55.1671 37.49V40.2H53.7771V33.2H55.0071V33.9ZM57.3271 36.58C57.5538 36.3133 57.6671 35.9867 57.6671 35.6C57.6671 35.2133 57.5538 34.89 57.3271 34.63C57.1004 34.3633 56.7938 34.23 56.4071 34.23C56.1204 34.23 55.8638 34.3067 55.6371 34.46C55.4171 34.6133 55.2571 34.8033 55.1571 35.03V36.17C55.2571 36.3967 55.4171 36.5867 55.6371 36.74C55.8638 36.8933 56.1204 36.97 56.4071 36.97C56.7938 36.97 57.1004 36.84 57.3271 36.58ZM63.1146 31.19H67.4346V32.48L64.4646 32.47L64.3746 33.8C64.6946 33.7333 64.9879 33.7 65.2546 33.7C65.9879 33.7 66.5846 33.8767 67.0446 34.23C67.5113 34.5833 67.7446 35.13 67.7446 35.87C67.7446 36.6167 67.4679 37.1833 66.9146 37.57C66.3613 37.95 65.6779 38.14 64.8646 38.14C64.0379 38.14 63.3079 37.9867 62.6746 37.68V36.29C63.2413 36.65 63.9146 36.83 64.6946 36.83C65.1613 36.83 65.5346 36.7467 65.8146 36.58C66.1013 36.4133 66.2446 36.17 66.2446 35.85C66.2446 35.1833 65.6913 34.85 64.5846 34.85C63.9846 34.85 63.4146 34.9467 62.8746 35.14L63.1146 31.19ZM70.2633 36.7C70.4233 36.84 70.5033 37.0433 70.5033 37.31C70.5033 37.5767 70.4233 37.78 70.2633 37.92C70.1033 38.06 69.9033 38.13 69.6633 38.13C69.4233 38.13 69.2199 38.06 69.0533 37.92C68.8933 37.78 68.8133 37.5767 68.8133 37.31C68.8133 37.0433 68.8933 36.84 69.0533 36.7C69.2199 36.56 69.4233 36.49 69.6633 36.49C69.9033 36.49 70.1033 36.56 70.2633 36.7ZM73.3635 31.2H74.4535V36.71H75.5935V38H71.7135V36.71H72.9935V32.7L71.7135 33.18V31.83L73.3635 31.2ZM76.7429 31.78C77.4162 31.3 78.1962 31.06 79.0829 31.06C79.8096 31.06 80.4029 31.23 80.8629 31.57C81.3296 31.91 81.5629 32.41 81.5629 33.07C81.5629 33.5833 81.3962 34.0233 81.0629 34.39C80.7362 34.75 80.2896 35.0967 79.7229 35.43C79.0562 35.8233 78.6462 36.09 78.4929 36.23C78.3129 36.4033 78.2196 36.5667 78.2129 36.72L81.6129 36.71V38H76.5129V37.33C76.5129 36.9633 76.5662 36.6333 76.6729 36.34C76.7862 36.0467 76.9662 35.7833 77.2129 35.55C77.4662 35.3167 77.6762 35.1433 77.8429 35.03C78.0096 34.91 78.2629 34.75 78.6029 34.55C78.6229 34.5367 78.6396 34.5267 78.6529 34.52C78.6662 34.5133 78.6829 34.5033 78.7029 34.49C78.7229 34.4767 78.7396 34.4667 78.7529 34.46C78.7929 34.4333 78.8762 34.3867 79.0029 34.32C79.1362 34.2467 79.2229 34.1967 79.2629 34.17C79.3029 34.1433 79.3729 34.1 79.4729 34.04C79.5729 33.9733 79.6429 33.9233 79.6829 33.89C79.7229 33.85 79.7729 33.7967 79.8329 33.73C79.8996 33.6633 79.9462 33.6033 79.9729 33.55C79.9996 33.4967 80.0229 33.4333 80.0429 33.36C80.0629 33.2867 80.0729 33.21 80.0729 33.13C80.0729 32.8833 79.9729 32.6967 79.7729 32.57C79.5729 32.4367 79.2962 32.37 78.9429 32.37C78.1829 32.37 77.4496 32.64 76.7429 33.18V31.78ZM87.9667 38.6H86.9667L91.0567 30.4H92.0567L87.9667 38.6ZM88.2767 31.32C88.6234 31.62 88.7967 32.04 88.7967 32.58C88.7967 33.12 88.6234 33.5433 88.2767 33.85C87.9301 34.15 87.5034 34.3 86.9967 34.3C86.4834 34.3 86.0501 34.15 85.6967 33.85C85.3501 33.5433 85.1767 33.12 85.1767 32.58C85.1767 32.04 85.3501 31.62 85.6967 31.32C86.0501 31.0133 86.4834 30.86 86.9967 30.86C87.5034 30.86 87.9301 31.0133 88.2767 31.32ZM86.4667 32.09C86.3534 32.2233 86.2967 32.3867 86.2967 32.58C86.2967 32.7733 86.3534 32.9367 86.4667 33.07C86.5867 33.2033 86.7634 33.27 86.9967 33.27C87.2167 33.27 87.3834 33.2033 87.4967 33.07C87.6167 32.9367 87.6767 32.7733 87.6767 32.58C87.6767 32.3867 87.6167 32.2233 87.4967 32.09C87.3834 31.9567 87.2167 31.89 86.9967 31.89C86.7634 31.89 86.5867 31.9567 86.4667 32.09ZM93.2867 35.16C93.6334 35.46 93.8067 35.88 93.8067 36.42C93.8067 36.96 93.6334 37.3833 93.2867 37.69C92.9401 37.99 92.5134 38.14 92.0067 38.14C91.4934 38.14 91.0601 37.99 90.7067 37.69C90.3601 37.3833 90.1867 36.96 90.1867 36.42C90.1867 35.88 90.3601 35.46 90.7067 35.16C91.0601 34.8533 91.4934 34.7 92.0067 34.7C92.5134 34.7 92.9401 34.8533 93.2867 35.16ZM91.4767 35.93C91.3634 36.0633 91.3067 36.2267 91.3067 36.42C91.3067 36.6133 91.3634 36.7767 91.4767 36.91C91.5967 37.0433 91.7734 37.11 92.0067 37.11C92.2267 37.11 92.3934 37.0433 92.5067 36.91C92.6267 36.7767 92.6867 36.6133 92.6867 36.42C92.6867 36.2267 92.6267 36.0633 92.5067 35.93C92.3934 35.7967 92.2267 35.73 92.0067 35.73C91.7734 35.73 91.5967 35.7967 91.4767 35.93Z" fill="#111111"/>
<path d="M15.104 50.6H16.112V59H15.104V50.6ZM19.2629 54.092C19.4709 53.812 19.7589 53.576 20.1269 53.384C20.5029 53.192 20.9069 53.096 21.3389 53.096C22.0349 53.096 22.6069 53.316 23.0549 53.756C23.5109 54.188 23.7389 54.752 23.7389 55.448V59H22.7789V55.568C22.7789 55.048 22.6349 54.656 22.3469 54.392C22.0669 54.12 21.6949 53.984 21.2309 53.984C20.4949 53.984 19.8709 54.368 19.3589 55.136V59H18.3989V53.24H19.2629V54.092ZM29.1798 51.452L30.1278 51.212V53.24H32.4318V54.128H30.1278V57.104C30.1278 57.528 30.2238 57.824 30.4158 57.992C30.6158 58.16 30.9318 58.244 31.3638 58.244C31.7798 58.244 32.2038 58.156 32.6358 57.98V58.868C32.1478 59.044 31.6318 59.132 31.0878 59.132C30.5038 59.132 30.0398 58.976 29.6958 58.664C29.3518 58.344 29.1798 57.88 29.1798 57.272V54.128H28.0998V53.24H29.1798V51.452ZM34.0177 50.6H34.9777V53.972C35.2017 53.724 35.4857 53.516 35.8297 53.348C36.1817 53.18 36.5577 53.096 36.9577 53.096C37.6537 53.096 38.2257 53.316 38.6737 53.756C39.1297 54.188 39.3577 54.752 39.3577 55.448V59H38.3977V55.568C38.3977 55.048 38.2537 54.656 37.9657 54.392C37.6857 54.12 37.3137 53.984 36.8497 53.984C36.1137 53.984 35.4897 54.368 34.9777 55.136V59H34.0177V50.6ZM40.9647 56.12C40.9647 55.176 41.2527 54.436 41.8287 53.9C42.4127 53.364 43.0807 53.096 43.8327 53.096C44.5367 53.096 45.1167 53.272 45.5727 53.624C46.0367 53.976 46.3407 54.412 46.4847 54.932C46.6287 55.444 46.6367 55.98 46.5087 56.54H41.9247C41.9807 57.108 42.2327 57.536 42.6807 57.824C43.1287 58.112 43.6687 58.256 44.3007 58.256C45.0047 58.256 45.6367 58.1 46.1967 57.788V58.724C45.6607 59.004 44.9807 59.144 44.1567 59.144C43.2447 59.144 42.4847 58.884 41.8767 58.364C41.2687 57.844 40.9647 57.096 40.9647 56.12ZM45.6567 55.7C45.6807 55.532 45.6687 55.356 45.6207 55.172C45.5727 54.988 45.4847 54.804 45.3567 54.62C45.2367 54.436 45.0487 54.284 44.7927 54.164C44.5367 54.044 44.2367 53.984 43.8927 53.984C43.3727 53.984 42.9207 54.136 42.5367 54.44C42.1607 54.744 41.9567 55.164 41.9247 55.7H45.6567ZM52.3872 54.2C53.0352 53.464 53.8112 53.096 54.7152 53.096C55.5392 53.096 56.2232 53.384 56.7672 53.96C57.3192 54.536 57.5952 55.256 57.5952 56.12C57.5952 56.984 57.3192 57.704 56.7672 58.28C56.2232 58.856 55.5392 59.144 54.7152 59.144C53.8032 59.144 53.0592 58.808 52.4832 58.136V61.64H51.5232V53.24H52.3872V54.2ZM56.0472 57.668C56.4392 57.276 56.6352 56.76 56.6352 56.12C56.6352 55.48 56.4392 54.964 56.0472 54.572C55.6632 54.18 55.1832 53.984 54.6072 53.984C54.1192 53.984 53.6872 54.12 53.3112 54.392C52.9352 54.664 52.6592 55 52.4832 55.4V56.84C52.6592 57.24 52.9352 57.576 53.3112 57.848C53.6872 58.12 54.1192 58.256 54.6072 58.256C55.1832 58.256 55.6632 58.06 56.0472 57.668ZM63.9563 57.8C63.9563 58.096 64.1043 58.244 64.4003 58.244C64.5283 58.244 64.6763 58.216 64.8443 58.16V58.94C64.6043 59.028 64.3643 59.072 64.1243 59.072C63.5723 59.072 63.2203 58.84 63.0683 58.376C62.4523 58.888 61.7043 59.144 60.8243 59.144C60.2643 59.144 59.7843 58.996 59.3843 58.7C58.9923 58.396 58.7963 57.96 58.7963 57.392C58.7963 56.712 59.0483 56.22 59.5523 55.916C60.0643 55.604 60.6803 55.448 61.4003 55.448C61.9283 55.448 62.4603 55.508 62.9963 55.628V55.424C62.9963 54.984 62.8523 54.636 62.5643 54.38C62.2763 54.116 61.8723 53.984 61.3523 53.984C60.6243 53.984 59.9243 54.128 59.2523 54.416V53.48C60.0043 53.224 60.7363 53.096 61.4483 53.096C62.2323 53.096 62.8443 53.308 63.2843 53.732C63.7323 54.148 63.9563 54.752 63.9563 55.544V57.8ZM59.7803 57.344C59.7803 57.664 59.9003 57.908 60.1403 58.076C60.3883 58.236 60.6843 58.316 61.0283 58.316C61.8203 58.316 62.4763 58.036 62.9963 57.476V56.42C62.4523 56.308 61.9643 56.252 61.5323 56.252C61.0443 56.252 60.6283 56.34 60.2843 56.516C59.9483 56.684 59.7803 56.96 59.7803 57.344ZM65.7676 54.752C65.7676 54.2 65.9796 53.788 66.4036 53.516C66.8356 53.236 67.3556 53.096 67.9636 53.096C68.7076 53.096 69.3876 53.26 70.0036 53.588V54.5C69.7636 54.34 69.4596 54.212 69.0916 54.116C68.7236 54.012 68.3676 53.96 68.0236 53.96C67.6716 53.96 67.3676 54.024 67.1116 54.152C66.8636 54.272 66.7396 54.464 66.7396 54.728C66.7396 54.92 66.8276 55.088 67.0036 55.232C67.1876 55.368 67.4156 55.472 67.6876 55.544C67.9596 55.616 68.2516 55.708 68.5636 55.82C68.8836 55.924 69.1796 56.036 69.4516 56.156C69.7236 56.268 69.9476 56.444 70.1236 56.684C70.3076 56.916 70.3996 57.196 70.3996 57.524C70.3996 58.084 70.1756 58.496 69.7276 58.76C69.2796 59.016 68.7116 59.144 68.0236 59.144C67.1196 59.144 66.3756 58.956 65.7916 58.58V57.644C66.3996 58.052 67.1276 58.256 67.9756 58.256C68.9516 58.256 69.4396 58.02 69.4396 57.548C69.4396 57.332 69.3116 57.152 69.0556 57.008C68.8076 56.856 68.5036 56.732 68.1436 56.636C67.7836 56.532 67.4236 56.416 67.0636 56.288C66.7036 56.16 66.3956 55.968 66.1396 55.712C65.8916 55.456 65.7676 55.136 65.7676 54.752ZM72.3775 51.452L73.3255 51.212V53.24H75.6295V54.128H73.3255V57.104C73.3255 57.528 73.4215 57.824 73.6135 57.992C73.8135 58.16 74.1295 58.244 74.5615 58.244C74.9775 58.244 75.4015 58.156 75.8335 57.98V58.868C75.3455 59.044 74.8295 59.132 74.2855 59.132C73.7015 59.132 73.2375 58.976 72.8935 58.664C72.5495 58.344 72.3775 57.88 72.3775 57.272V54.128H71.2975V53.24H72.3775V51.452ZM80.4316 51.488C81.1916 50.96 82.0636 50.696 83.0476 50.696C83.8956 50.696 84.5716 50.888 85.0756 51.272C85.5796 51.656 85.8316 52.192 85.8316 52.88C85.8316 53.208 85.7676 53.516 85.6396 53.804C85.5196 54.092 85.3356 54.356 85.0876 54.596C84.8476 54.836 84.6116 55.04 84.3796 55.208C84.1556 55.368 83.8716 55.548 83.5276 55.748C83.4876 55.772 83.3636 55.844 83.1556 55.964C82.9556 56.084 82.8276 56.16 82.7716 56.192C82.7236 56.224 82.6116 56.296 82.4356 56.408C82.2676 56.512 82.1556 56.588 82.0996 56.636C82.0516 56.684 81.9636 56.76 81.8356 56.864C81.7156 56.968 81.6316 57.056 81.5836 57.128C81.5436 57.2 81.4876 57.292 81.4156 57.404C81.3516 57.508 81.3076 57.612 81.2836 57.716C81.2596 57.82 81.2476 57.932 81.2476 58.052L85.8916 58.04V59H80.1436V58.52C80.1436 58.072 80.2156 57.668 80.3596 57.308C80.5036 56.94 80.7076 56.628 80.9716 56.372C81.2436 56.108 81.5116 55.888 81.7756 55.712C82.0396 55.528 82.3476 55.332 82.6996 55.124C82.7796 55.084 82.8396 55.052 82.8796 55.028C83.6076 54.604 84.0836 54.28 84.3076 54.056C84.6516 53.704 84.8236 53.308 84.8236 52.868C84.8236 52.468 84.6596 52.164 84.3316 51.956C84.0116 51.74 83.5556 51.632 82.9636 51.632C82.0996 51.632 81.2556 51.92 80.4316 52.496V51.488ZM91.5583 50.84H92.6503V56.252H94.1863V57.188H92.6503V59H91.6543V57.188H87.1063V56.288L91.5583 50.84ZM91.6543 56.252V52.196L88.3423 56.252H91.6543ZM99.0169 50.6H99.9769V53.972C100.201 53.724 100.485 53.516 100.829 53.348C101.181 53.18 101.557 53.096 101.957 53.096C102.653 53.096 103.225 53.316 103.673 53.756C104.129 54.188 104.357 54.752 104.357 55.448V59H103.397V55.568C103.397 55.048 103.253 54.656 102.965 54.392C102.685 54.12 102.313 53.984 101.849 53.984C101.113 53.984 100.489 54.368 99.9769 55.136V59H99.0169V50.6ZM106.876 58.34C106.268 57.796 105.964 57.056 105.964 56.12C105.964 55.184 106.268 54.448 106.876 53.912C107.484 53.368 108.204 53.096 109.036 53.096C109.876 53.096 110.596 53.368 111.196 53.912C111.804 54.448 112.108 55.184 112.108 56.12C112.108 57.056 111.804 57.796 111.196 58.34C110.596 58.876 109.876 59.144 109.036 59.144C108.204 59.144 107.484 58.876 106.876 58.34ZM110.548 57.668C110.948 57.284 111.148 56.768 111.148 56.12C111.148 55.472 110.948 54.96 110.548 54.584C110.148 54.2 109.644 54.008 109.036 54.008C108.428 54.008 107.924 54.2 107.524 54.584C107.124 54.96 106.924 55.472 106.924 56.12C106.924 56.768 107.124 57.284 107.524 57.668C107.924 58.044 108.428 58.232 109.036 58.232C109.644 58.232 110.148 58.044 110.548 57.668ZM118.093 53.24H119.053V59H118.189V58.148C117.981 58.428 117.689 58.664 117.313 58.856C116.945 59.048 116.545 59.144 116.113 59.144C115.369 59.144 114.781 58.932 114.349 58.508C113.925 58.076 113.713 57.504 113.713 56.792V53.24H114.673V56.672C114.673 57.728 115.189 58.256 116.221 58.256C116.957 58.256 117.581 57.872 118.093 57.104V53.24ZM121.992 54.26C122.216 53.884 122.56 53.592 123.024 53.384C123.488 53.168 123.972 53.08 124.476 53.12V54.08C123.916 54.016 123.42 54.108 122.988 54.356C122.564 54.596 122.264 54.948 122.088 55.412V59H121.128V53.24H121.992V54.26ZM125.486 54.752C125.486 54.2 125.698 53.788 126.122 53.516C126.554 53.236 127.074 53.096 127.682 53.096C128.426 53.096 129.106 53.26 129.722 53.588V54.5C129.482 54.34 129.178 54.212 128.81 54.116C128.442 54.012 128.086 53.96 127.742 53.96C127.39 53.96 127.086 54.024 126.83 54.152C126.582 54.272 126.458 54.464 126.458 54.728C126.458 54.92 126.546 55.088 126.722 55.232C126.906 55.368 127.134 55.472 127.406 55.544C127.678 55.616 127.97 55.708 128.282 55.82C128.602 55.924 128.898 56.036 129.17 56.156C129.442 56.268 129.666 56.444 129.842 56.684C130.026 56.916 130.118 57.196 130.118 57.524C130.118 58.084 129.894 58.496 129.446 58.76C128.998 59.016 128.43 59.144 127.742 59.144C126.838 59.144 126.094 58.956 125.51 58.58V57.644C126.118 58.052 126.846 58.256 127.694 58.256C128.67 58.256 129.158 58.02 129.158 57.548C129.158 57.332 129.03 57.152 128.774 57.008C128.526 56.856 128.222 56.732 127.862 56.636C127.502 56.532 127.142 56.416 126.782 56.288C126.422 56.16 126.114 55.968 125.858 55.712C125.61 55.456 125.486 55.136 125.486 54.752ZM132.564 58.052C132.684 58.156 132.744 58.304 132.744 58.496C132.744 58.688 132.684 58.84 132.564 58.952C132.444 59.056 132.296 59.108 132.12 59.108C131.944 59.108 131.792 59.056 131.664 58.952C131.544 58.84 131.484 58.688 131.484 58.496C131.484 58.304 131.544 58.156 131.664 58.052C131.792 57.948 131.944 57.896 132.12 57.896C132.296 57.896 132.444 57.948 132.564 58.052ZM138.095 50.6H139.103V59H138.095V50.6ZM141.692 51.452L142.64 51.212V53.24H144.944V54.128H142.64V57.104C142.64 57.528 142.736 57.824 142.928 57.992C143.128 58.16 143.444 58.244 143.876 58.244C144.292 58.244 144.716 58.156 145.148 57.98V58.868C144.66 59.044 144.144 59.132 143.6 59.132C143.016 59.132 142.552 58.976 142.208 58.664C141.864 58.344 141.692 57.88 141.692 57.272V54.128H140.612V53.24H141.692V51.452ZM147.009 53.36H146.229L146.889 50.6H147.909L147.009 53.36ZM148.814 54.752C148.814 54.2 149.026 53.788 149.45 53.516C149.882 53.236 150.402 53.096 151.01 53.096C151.754 53.096 152.434 53.26 153.05 53.588V54.5C152.81 54.34 152.506 54.212 152.138 54.116C151.77 54.012 151.414 53.96 151.07 53.96C150.718 53.96 150.414 54.024 150.158 54.152C149.91 54.272 149.786 54.464 149.786 54.728C149.786 54.92 149.874 55.088 150.05 55.232C150.234 55.368 150.462 55.472 150.734 55.544C151.006 55.616 151.298 55.708 151.61 55.82C151.93 55.924 152.226 56.036 152.498 56.156C152.77 56.268 152.994 56.444 153.17 56.684C153.354 56.916 153.446 57.196 153.446 57.524C153.446 58.084 153.222 58.496 152.774 58.76C152.326 59.016 151.758 59.144 151.07 59.144C150.166 59.144 149.422 58.956 148.838 58.58V57.644C149.446 58.052 150.174 58.256 151.022 58.256C151.998 58.256 152.486 58.02 152.486 57.548C152.486 57.332 152.358 57.152 152.102 57.008C151.854 56.856 151.55 56.732 151.19 56.636C150.83 56.532 150.47 56.416 150.11 56.288C149.75 56.16 149.442 55.968 149.186 55.712C148.938 55.456 148.814 55.136 148.814 54.752ZM159.192 54.092C159.4 53.812 159.688 53.576 160.056 53.384C160.432 53.192 160.836 53.096 161.268 53.096C161.964 53.096 162.536 53.316 162.984 53.756C163.44 54.188 163.668 54.752 163.668 55.448V59H162.708V55.568C162.708 55.048 162.564 54.656 162.276 54.392C161.996 54.12 161.624 53.984 161.16 53.984C160.424 53.984 159.8 54.368 159.288 55.136V59H158.328V53.24H159.192V54.092ZM166.187 58.34C165.579 57.796 165.275 57.056 165.275 56.12C165.275 55.184 165.579 54.448 166.187 53.912C166.795 53.368 167.515 53.096 168.347 53.096C169.187 53.096 169.907 53.368 170.507 53.912C171.115 54.448 171.419 55.184 171.419 56.12C171.419 57.056 171.115 57.796 170.507 58.34C169.907 58.876 169.187 59.144 168.347 59.144C167.515 59.144 166.795 58.876 166.187 58.34ZM169.859 57.668C170.259 57.284 170.459 56.768 170.459 56.12C170.459 55.472 170.259 54.96 169.859 54.584C169.459 54.2 168.955 54.008 168.347 54.008C167.739 54.008 167.235 54.2 166.835 54.584C166.435 54.96 166.235 55.472 166.235 56.12C166.235 56.768 166.435 57.284 166.835 57.668C167.235 58.044 167.739 58.232 168.347 58.232C168.955 58.232 169.459 58.044 169.859 57.668ZM180.443 53.24H181.451L179.483 59H178.439L176.879 54.548L175.319 59H174.275L172.307 53.24H173.315L174.803 57.944L176.447 53.24H177.311L178.955 57.944L180.443 53.24ZM17.804 72.56H16.964V71.12C16.036 71.032 15.24 70.8 14.576 70.424V69.416C15.416 69.928 16.392 70.184 17.504 70.184C18.864 70.184 19.544 69.768 19.544 68.936C19.544 68.632 19.452 68.376 19.268 68.168C19.092 67.952 18.856 67.784 18.56 67.664C18.272 67.544 17.952 67.436 17.6 67.34C17.248 67.244 16.896 67.14 16.544 67.028C16.192 66.908 15.868 66.772 15.572 66.62C15.284 66.46 15.048 66.236 14.864 65.948C14.688 65.66 14.6 65.316 14.6 64.916C14.6 64.284 14.82 63.78 15.26 63.404C15.7 63.028 16.268 62.8 16.964 62.72V61.28H17.804V62.708C18.676 62.756 19.416 62.956 20.024 63.308V64.316C19.32 63.86 18.496 63.64 17.552 63.656C16.264 63.656 15.62 64.064 15.62 64.88C15.62 65.168 15.708 65.412 15.884 65.612C16.068 65.812 16.304 65.968 16.592 66.08C16.888 66.192 17.212 66.296 17.564 66.392C17.916 66.48 18.268 66.584 18.62 66.704C18.972 66.824 19.292 66.964 19.58 67.124C19.876 67.284 20.112 67.512 20.288 67.808C20.472 68.104 20.564 68.456 20.564 68.864C20.564 69.616 20.308 70.18 19.796 70.556C19.284 70.924 18.62 71.12 17.804 71.144V72.56ZM27.4161 64.916C27.4161 65.332 27.3041 65.708 27.0801 66.044C26.8641 66.372 26.5801 66.596 26.2281 66.716C26.6441 66.844 27.0001 67.08 27.2961 67.424C27.6001 67.76 27.7521 68.212 27.7521 68.78C27.7521 69.54 27.4681 70.124 26.9001 70.532C26.3401 70.94 25.6281 71.144 24.7641 71.144C23.6681 71.144 22.7201 70.964 21.9201 70.604V69.608C22.6961 70.008 23.6161 70.204 24.6801 70.196C26.0801 70.196 26.7801 69.708 26.7801 68.732C26.7801 67.756 26.1161 67.268 24.7881 67.268H23.5401V66.308L24.6801 66.32C25.2561 66.32 25.6921 66.2 25.9881 65.96C26.2921 65.712 26.4441 65.392 26.4441 65C26.4441 64.576 26.2761 64.244 25.9401 64.004C25.6041 63.756 25.1281 63.632 24.5121 63.632C23.6641 63.632 22.8481 63.84 22.0641 64.256V63.272C22.8161 62.888 23.6761 62.696 24.6441 62.696C25.4761 62.696 26.1441 62.9 26.6481 63.308C27.1601 63.716 27.4161 64.252 27.4161 64.916ZM33.3911 62.84H34.4831V68.252H36.0191V69.188H34.4831V71H33.4871V69.188H28.9391V68.288L33.3911 62.84ZM33.4871 68.252V64.196L30.1751 68.252H33.4871ZM37.5062 72.8H36.7262L37.3862 70.04H38.4062L37.5062 72.8ZM40.5858 62.84H45.4818V63.8H41.5338L41.3898 66.104C41.8218 65.984 42.2858 65.924 42.7818 65.924C43.1898 65.924 43.5698 65.972 43.9218 66.068C44.2738 66.156 44.5978 66.3 44.8938 66.5C45.1978 66.692 45.4378 66.964 45.6138 67.316C45.7898 67.66 45.8778 68.068 45.8778 68.54C45.8778 69.348 45.5778 69.984 44.9778 70.448C44.3858 70.912 43.6298 71.144 42.7098 71.144C41.7178 71.144 40.8458 70.96 40.0938 70.592V69.632C40.8138 70.016 41.6458 70.208 42.5898 70.208C43.2778 70.208 43.8258 70.064 44.2338 69.776C44.6498 69.488 44.8578 69.076 44.8578 68.54C44.8578 67.404 44.0498 66.836 42.4338 66.836C41.7298 66.836 41.0258 66.964 40.3218 67.22L40.5858 62.84ZM49.323 62.84H50.067V70.04H51.591V71H47.343V70.04H49.059V63.908L47.343 64.556V63.596L49.323 62.84ZM52.9793 63.488C53.7393 62.96 54.6113 62.696 55.5953 62.696C56.4433 62.696 57.1193 62.888 57.6233 63.272C58.1273 63.656 58.3793 64.192 58.3793 64.88C58.3793 65.208 58.3153 65.516 58.1873 65.804C58.0673 66.092 57.8833 66.356 57.6353 66.596C57.3953 66.836 57.1593 67.04 56.9273 67.208C56.7033 67.368 56.4193 67.548 56.0753 67.748C56.0353 67.772 55.9113 67.844 55.7033 67.964C55.5033 68.084 55.3753 68.16 55.3193 68.192C55.2713 68.224 55.1593 68.296 54.9833 68.408C54.8153 68.512 54.7033 68.588 54.6473 68.636C54.5993 68.684 54.5113 68.76 54.3833 68.864C54.2633 68.968 54.1793 69.056 54.1313 69.128C54.0913 69.2 54.0353 69.292 53.9633 69.404C53.8993 69.508 53.8553 69.612 53.8313 69.716C53.8073 69.82 53.7953 69.932 53.7953 70.052L58.4393 70.04V71H52.6913V70.52C52.6913 70.072 52.7633 69.668 52.9073 69.308C53.0513 68.94 53.2553 68.628 53.5193 68.372C53.7913 68.108 54.0593 67.888 54.3233 67.712C54.5873 67.528 54.8953 67.332 55.2473 67.124C55.3273 67.084 55.3873 67.052 55.4273 67.028C56.1553 66.604 56.6313 66.28 56.8553 66.056C57.1993 65.704 57.3713 65.308 57.3713 64.868C57.3713 64.468 57.2073 64.164 56.8793 63.956C56.5593 63.74 56.1033 63.632 55.5113 63.632C54.6473 63.632 53.8033 63.92 52.9793 64.496V63.488ZM61.0939 70.052C61.2139 70.156 61.2739 70.304 61.2739 70.496C61.2739 70.688 61.2139 70.84 61.0939 70.952C60.9739 71.056 60.8259 71.108 60.6499 71.108C60.4739 71.108 60.3219 71.056 60.1939 70.952C60.0739 70.84 60.0139 70.688 60.0139 70.496C60.0139 70.304 60.0739 70.156 60.1939 70.052C60.3219 69.948 60.4739 69.896 60.6499 69.896C60.8259 69.896 60.9739 69.948 61.0939 70.052ZM62.0756 62.84H67.9556V63.752L64.5476 71H63.4676L66.8516 63.8H62.0756V62.84ZM70.1526 66.692C70.9286 66.172 71.7806 65.912 72.7086 65.912C73.4526 65.912 74.1046 66.14 74.6646 66.596C75.2246 67.044 75.5046 67.668 75.5046 68.468C75.5046 69.308 75.2246 69.964 74.6646 70.436C74.1126 70.908 73.4166 71.144 72.5766 71.144C71.4246 71.144 70.5606 70.788 69.9846 70.076C69.4166 69.356 69.1326 68.348 69.1326 67.052C69.1326 65.612 69.4726 64.528 70.1526 63.8C70.8406 63.064 71.7366 62.696 72.8406 62.696C73.5526 62.696 74.2126 62.852 74.8206 63.164V64.124C74.2286 63.812 73.5766 63.656 72.8646 63.656C72.1126 63.656 71.4846 63.9 70.9806 64.388C70.4846 64.868 70.2086 65.636 70.1526 66.692ZM70.1646 67.7C70.3166 69.372 71.0966 70.208 72.5046 70.208C73.0966 70.208 73.5726 70.072 73.9326 69.8C74.3006 69.528 74.4846 69.1 74.4846 68.516C74.4846 67.924 74.2966 67.5 73.9206 67.244C73.5446 66.98 73.0566 66.848 72.4566 66.848C71.5686 66.848 70.8046 67.132 70.1646 67.7Z" fill="#111111"/>
<path d="M198.752 15.092C198.96 14.812 199.248 14.576 199.616 14.384C199.992 14.192 200.396 14.096 200.828 14.096C201.524 14.096 202.096 14.316 202.544 14.756C203 15.188 203.228 15.752 203.228 16.448V20H202.268V16.568C202.268 16.048 202.124 15.656 201.836 15.392C201.556 15.12 201.184 14.984 200.72 14.984C199.984 14.984 199.36 15.368 198.848 16.136V20H197.888V14.24H198.752V15.092ZM205.747 19.34C205.139 18.796 204.835 18.056 204.835 17.12C204.835 16.184 205.139 15.448 205.747 14.912C206.355 14.368 207.075 14.096 207.907 14.096C208.747 14.096 209.467 14.368 210.067 14.912C210.675 15.448 210.979 16.184 210.979 17.12C210.979 18.056 210.675 18.796 210.067 19.34C209.467 19.876 208.747 20.144 207.907 20.144C207.075 20.144 206.355 19.876 205.747 19.34ZM209.419 18.668C209.819 18.284 210.019 17.768 210.019 17.12C210.019 16.472 209.819 15.96 209.419 15.584C209.019 15.2 208.515 15.008 207.907 15.008C207.299 15.008 206.795 15.2 206.395 15.584C205.995 15.96 205.795 16.472 205.795 17.12C205.795 17.768 205.995 18.284 206.395 18.668C206.795 19.044 207.299 19.232 207.907 19.232C208.515 19.232 209.019 19.044 209.419 18.668ZM220.003 14.24H221.011L219.043 20H217.999L216.439 15.548L214.879 20H213.835L211.867 14.24H212.875L214.363 18.944L216.007 14.24H216.871L218.515 18.944L220.003 14.24Z" fill="#111111"/>
<path d="M143.2 107.8H148.096C149.323 107.8 150.272 108.04 150.944 108.52C151.627 108.989 151.968 109.693 151.968 110.632C151.968 111.88 151.403 112.696 150.272 113.08C150.891 113.261 151.403 113.581 151.808 114.04C152.213 114.488 152.416 115.096 152.416 115.864C152.416 116.472 152.283 116.995 152.016 117.432C151.749 117.859 151.387 118.179 150.928 118.392C150.48 118.605 150.016 118.76 149.536 118.856C149.067 118.952 148.56 119 148.016 119H143.2V107.8ZM150.016 115.608C150.016 114.648 149.381 114.168 148.112 114.168H145.584V117.048H147.984C148.613 117.048 149.109 116.947 149.472 116.744C149.835 116.541 150.016 116.163 150.016 115.608ZM149.584 111.048C149.584 110.195 149.019 109.768 147.888 109.768H145.6V112.328H148.016C148.485 112.328 148.864 112.221 149.152 112.008C149.44 111.784 149.584 111.464 149.584 111.048ZM156.375 119H154.151V111.32H156.375V119ZM156.567 108.776C156.567 109.192 156.444 109.507 156.199 109.72C155.953 109.933 155.639 110.04 155.255 110.04C154.881 110.04 154.572 109.933 154.327 109.72C154.081 109.507 153.959 109.192 153.959 108.776C153.959 108.371 154.081 108.061 154.327 107.848C154.572 107.635 154.881 107.528 155.255 107.528C155.628 107.528 155.937 107.635 156.183 107.848C156.439 108.061 156.567 108.371 156.567 108.776ZM159.167 109.08L161.375 108.552V111.32H163.807V113.192H161.375V116.2C161.375 116.968 161.786 117.352 162.607 117.352C163.098 117.352 163.562 117.267 163.999 117.096V118.888C163.359 119.112 162.671 119.224 161.935 119.224C161.124 119.224 160.458 119.016 159.935 118.6C159.423 118.184 159.167 117.528 159.167 116.632V113.192H157.871V111.32H159.167V109.08ZM165.146 115.272C165.146 114.568 165.269 113.939 165.514 113.384C165.77 112.829 166.106 112.392 166.522 112.072C166.938 111.741 167.397 111.496 167.898 111.336C168.4 111.165 168.928 111.08 169.482 111.08C170.368 111.08 171.157 111.267 171.85 111.64V113.592C171.253 113.208 170.57 113.016 169.802 113.016C169.13 113.016 168.565 113.192 168.106 113.544C167.648 113.896 167.418 114.435 167.418 115.16C167.418 115.853 167.648 116.387 168.106 116.76C168.565 117.123 169.12 117.304 169.77 117.304C170.592 117.304 171.312 117.117 171.93 116.744V118.712C171.13 119.053 170.266 119.224 169.338 119.224C168.186 119.224 167.2 118.888 166.378 118.216C165.557 117.533 165.146 116.552 165.146 115.272ZM174.522 118.152C173.701 117.437 173.29 116.44 173.29 115.16C173.29 113.88 173.701 112.883 174.522 112.168C175.343 111.453 176.346 111.096 177.53 111.096C178.725 111.096 179.727 111.453 180.538 112.168C181.359 112.883 181.77 113.88 181.77 115.16C181.77 116.44 181.359 117.437 180.538 118.152C179.727 118.867 178.725 119.224 177.53 119.224C176.346 119.224 175.343 118.867 174.522 118.152ZM178.986 116.664C179.338 116.269 179.514 115.768 179.514 115.16C179.514 114.552 179.338 114.056 178.986 113.672C178.634 113.277 178.149 113.08 177.53 113.08C176.911 113.08 176.426 113.277 176.074 113.672C175.733 114.056 175.562 114.552 175.562 115.16C175.562 115.768 175.733 116.269 176.074 116.664C176.426 117.048 176.911 117.24 177.53 117.24C178.149 117.24 178.634 117.048 178.986 116.664ZM185.762 119H183.538V111.32H185.762V119ZM185.954 108.776C185.954 109.192 185.831 109.507 185.586 109.72C185.341 109.933 185.026 110.04 184.642 110.04C184.269 110.04 183.959 109.933 183.714 109.72C183.469 109.507 183.346 109.192 183.346 108.776C183.346 108.371 183.469 108.061 183.714 107.848C183.959 107.635 184.269 107.528 184.642 107.528C185.015 107.528 185.325 107.635 185.57 107.848C185.826 108.061 185.954 108.371 185.954 108.776ZM189.946 112.296C190.64 111.496 191.493 111.096 192.506 111.096C193.488 111.096 194.25 111.395 194.794 111.992C195.349 112.579 195.626 113.331 195.626 114.248V119H193.402V114.536C193.402 114.035 193.264 113.656 192.986 113.4C192.72 113.144 192.362 113.016 191.914 113.016C191.221 113.016 190.65 113.341 190.202 113.992V119H187.978V111.32H189.946V112.296Z" fill="#111111"/>
<path d="M144.032 141.64C143.221 140.605 142.816 139.245 142.816 137.56C142.816 135.875 143.221 134.515 144.032 133.48C144.843 132.445 146.037 131.928 147.616 131.928C149.205 131.928 150.405 132.445 151.216 133.48C152.027 134.504 152.432 135.864 152.432 137.56C152.432 139.256 152.027 140.621 151.216 141.656C150.405 142.68 149.205 143.192 147.616 143.192C146.037 143.192 144.843 142.675 144.032 141.64ZM150.208 140.792C150.784 140.035 151.072 138.957 151.072 137.56C151.072 136.163 150.784 135.091 150.208 134.344C149.643 133.587 148.779 133.208 147.616 133.208C146.453 133.208 145.589 133.587 145.024 134.344C144.459 135.091 144.176 136.163 144.176 137.56C144.176 138.957 144.459 140.035 145.024 140.792C145.589 141.539 146.453 141.912 147.616 141.912C148.779 141.912 149.643 141.539 150.208 140.792ZM155.401 141.736C155.561 141.875 155.641 142.072 155.641 142.328C155.641 142.584 155.561 142.787 155.401 142.936C155.241 143.075 155.044 143.144 154.809 143.144C154.575 143.144 154.372 143.075 154.201 142.936C154.041 142.787 153.961 142.584 153.961 142.328C153.961 142.072 154.041 141.875 154.201 141.736C154.372 141.597 154.575 141.528 154.809 141.528C155.044 141.528 155.241 141.597 155.401 141.736ZM158.589 137.256C159.624 136.563 160.76 136.216 161.997 136.216C162.989 136.216 163.858 136.52 164.605 137.128C165.352 137.725 165.725 138.557 165.725 139.624C165.725 140.744 165.352 141.619 164.605 142.248C163.869 142.877 162.941 143.192 161.821 143.192C160.285 143.192 159.133 142.717 158.365 141.768C157.608 140.808 157.229 139.464 157.229 137.736C157.229 135.816 157.682 134.371 158.589 133.4C159.506 132.419 160.701 131.928 162.173 131.928C163.122 131.928 164.002 132.136 164.813 132.552V133.832C164.024 133.416 163.154 133.208 162.205 133.208C161.202 133.208 160.365 133.533 159.693 134.184C159.032 134.824 158.664 135.848 158.589 137.256ZM158.605 138.6C158.808 140.829 159.848 141.944 161.725 141.944C162.514 141.944 163.149 141.763 163.629 141.4C164.12 141.037 164.365 140.467 164.365 139.688C164.365 138.899 164.114 138.333 163.613 137.992C163.112 137.64 162.461 137.464 161.661 137.464C160.477 137.464 159.458 137.843 158.605 138.6ZM168.138 132.12H174.666V133.4H169.402L169.21 136.472C169.786 136.312 170.405 136.232 171.066 136.232C171.61 136.232 172.117 136.296 172.586 136.424C173.056 136.541 173.488 136.733 173.882 137C174.288 137.256 174.608 137.619 174.842 138.088C175.077 138.547 175.194 139.091 175.194 139.72C175.194 140.797 174.794 141.645 173.994 142.264C173.205 142.883 172.197 143.192 170.97 143.192C169.648 143.192 168.485 142.947 167.482 142.456V141.176C168.442 141.688 169.552 141.944 170.81 141.944C171.728 141.944 172.458 141.752 173.002 141.368C173.557 140.984 173.834 140.435 173.834 139.72C173.834 138.205 172.757 137.448 170.602 137.448C169.664 137.448 168.725 137.619 167.786 137.96L168.138 132.12ZM184.36 134.888C184.36 135.443 184.211 135.944 183.912 136.392C183.624 136.829 183.245 137.128 182.776 137.288C183.331 137.459 183.805 137.773 184.2 138.232C184.605 138.68 184.808 139.283 184.808 140.04C184.808 141.053 184.429 141.832 183.672 142.376C182.925 142.92 181.976 143.192 180.824 143.192C179.363 143.192 178.099 142.952 177.032 142.472V141.144C178.067 141.677 179.293 141.939 180.712 141.928C182.579 141.928 183.512 141.277 183.512 139.976C183.512 138.675 182.627 138.024 180.856 138.024H179.192V136.744L180.712 136.76C181.48 136.76 182.061 136.6 182.456 136.28C182.861 135.949 183.064 135.523 183.064 135C183.064 134.435 182.84 133.992 182.392 133.672C181.944 133.341 181.309 133.176 180.488 133.176C179.357 133.176 178.269 133.453 177.224 134.008V132.696C178.227 132.184 179.373 131.928 180.664 131.928C181.773 131.928 182.664 132.2 183.336 132.744C184.019 133.288 184.36 134.003 184.36 134.888ZM186.979 132.984C187.992 132.28 189.155 131.928 190.467 131.928C191.597 131.928 192.499 132.184 193.171 132.696C193.843 133.208 194.179 133.923 194.179 134.84C194.179 135.277 194.093 135.688 193.923 136.072C193.763 136.456 193.517 136.808 193.187 137.128C192.867 137.448 192.552 137.72 192.243 137.944C191.944 138.157 191.565 138.397 191.107 138.664C191.053 138.696 190.888 138.792 190.611 138.952C190.344 139.112 190.173 139.213 190.099 139.256C190.035 139.299 189.885 139.395 189.651 139.544C189.427 139.683 189.277 139.784 189.203 139.848C189.139 139.912 189.021 140.013 188.851 140.152C188.691 140.291 188.579 140.408 188.515 140.504C188.461 140.6 188.387 140.723 188.291 140.872C188.205 141.011 188.147 141.149 188.115 141.288C188.083 141.427 188.067 141.576 188.067 141.736L194.259 141.72V143H186.595V142.36C186.595 141.763 186.691 141.224 186.883 140.744C187.075 140.253 187.347 139.837 187.699 139.496C188.061 139.144 188.419 138.851 188.771 138.616C189.123 138.371 189.533 138.109 190.003 137.832C190.109 137.779 190.189 137.736 190.243 137.704C191.213 137.139 191.848 136.707 192.147 136.408C192.605 135.939 192.835 135.411 192.835 134.824C192.835 134.291 192.616 133.885 192.179 133.608C191.752 133.32 191.144 133.176 190.355 133.176C189.203 133.176 188.077 133.56 186.979 134.328V132.984ZM196.466 132.984C197.479 132.28 198.642 131.928 199.954 131.928C201.085 131.928 201.986 132.184 202.658 132.696C203.33 133.208 203.666 133.923 203.666 134.84C203.666 135.277 203.581 135.688 203.41 136.072C203.25 136.456 203.005 136.808 202.674 137.128C202.354 137.448 202.039 137.72 201.73 137.944C201.431 138.157 201.053 138.397 200.594 138.664C200.541 138.696 200.375 138.792 200.098 138.952C199.831 139.112 199.661 139.213 199.586 139.256C199.522 139.299 199.373 139.395 199.138 139.544C198.914 139.683 198.765 139.784 198.69 139.848C198.626 139.912 198.509 140.013 198.338 140.152C198.178 140.291 198.066 140.408 198.002 140.504C197.949 140.6 197.874 140.723 197.778 140.872C197.693 141.011 197.634 141.149 197.602 141.288C197.57 141.427 197.554 141.576 197.554 141.736L203.746 141.72V143H196.082V142.36C196.082 141.763 196.178 141.224 196.37 140.744C196.562 140.253 196.834 139.837 197.186 139.496C197.549 139.144 197.906 138.851 198.258 138.616C198.61 138.371 199.021 138.109 199.49 137.832C199.597 137.779 199.677 137.736 199.73 137.704C200.701 137.139 201.335 136.707 201.634 136.408C202.093 135.939 202.322 135.411 202.322 134.824C202.322 134.291 202.103 133.885 201.666 133.608C201.239 133.32 200.631 133.176 199.842 133.176C198.69 133.176 197.565 133.56 196.466 134.328V132.984ZM208.354 132.12H209.346V141.72H211.378V143H205.714V141.72H208.002V133.544L205.714 134.408V133.128L208.354 132.12ZM212.27 132.12H220.11V133.336L215.566 143H214.126L218.638 133.4H212.27V132.12ZM221.915 134.744C221.915 133.976 222.251 133.315 222.923 132.76C223.595 132.205 224.582 131.928 225.883 131.928C227.088 131.928 228.059 132.221 228.795 132.808C229.531 133.395 229.91 134.099 229.931 134.92C229.963 136.04 229.467 136.957 228.443 137.672C229.691 138.291 230.315 139.144 230.315 140.232C230.315 141.064 229.947 141.768 229.211 142.344C228.486 142.909 227.408 143.192 225.979 143.192C224.56 143.192 223.462 142.883 222.683 142.264C221.915 141.645 221.531 140.893 221.531 140.008C221.531 139.475 221.686 138.947 221.995 138.424C222.315 137.891 222.779 137.443 223.387 137.08C222.406 136.483 221.915 135.704 221.915 134.744ZM226.043 138.104C225.488 137.955 224.982 137.795 224.523 137.624C223.99 137.88 223.579 138.211 223.291 138.616C223.014 139.021 222.875 139.437 222.875 139.864C222.875 140.515 223.142 141.027 223.675 141.4C224.219 141.763 224.998 141.944 226.011 141.944C226.864 141.944 227.568 141.795 228.123 141.496C228.688 141.187 228.971 140.787 228.971 140.296C228.971 139.88 228.822 139.528 228.523 139.24C228.235 138.941 227.952 138.739 227.675 138.632C227.398 138.525 226.939 138.376 226.299 138.184C226.182 138.152 226.096 138.125 226.043 138.104ZM228.587 135.16C228.587 134.595 228.347 134.125 227.867 133.752C227.387 133.368 226.715 133.176 225.851 133.176C225.062 133.176 224.432 133.325 223.963 133.624C223.494 133.912 223.259 134.28 223.259 134.728C223.259 135.037 223.323 135.309 223.451 135.544C223.59 135.768 223.792 135.96 224.059 136.12C224.336 136.269 224.587 136.392 224.811 136.488C225.035 136.573 225.334 136.669 225.707 136.776C225.75 136.787 225.782 136.797 225.803 136.808C225.824 136.808 225.851 136.813 225.883 136.824C225.915 136.835 225.947 136.845 225.979 136.856C226.011 136.867 226.192 136.92 226.523 137.016C226.864 137.101 227.126 137.171 227.307 137.224C228.16 136.669 228.587 135.981 228.587 135.16ZM237.163 131.8H241.755C242.928 131.8 243.856 132.045 244.539 132.536C245.221 133.016 245.563 133.715 245.563 134.632C245.563 135.293 245.387 135.837 245.035 136.264C244.683 136.68 244.261 136.963 243.771 137.112C244.368 137.272 244.891 137.581 245.339 138.04C245.787 138.488 246.011 139.117 246.011 139.928C246.011 140.419 245.915 140.851 245.723 141.224C245.541 141.597 245.307 141.896 245.019 142.12C244.741 142.333 244.411 142.509 244.027 142.648C243.653 142.787 243.291 142.883 242.939 142.936C242.597 142.979 242.245 143 241.883 143H237.163V131.8ZM244.651 139.784C244.651 138.493 243.76 137.848 241.979 137.848H238.507V141.72H241.611C241.952 141.72 242.24 141.715 242.475 141.704C242.709 141.683 242.976 141.64 243.275 141.576C243.573 141.501 243.813 141.4 243.995 141.272C244.176 141.133 244.331 140.941 244.459 140.696C244.587 140.44 244.651 140.136 244.651 139.784ZM244.203 134.824C244.203 134.195 243.984 133.747 243.547 133.48C243.12 133.213 242.485 133.08 241.643 133.08H238.507V136.568H242.011C242.651 136.568 243.173 136.429 243.579 136.152C243.995 135.864 244.203 135.421 244.203 134.824ZM247.011 131.8H256.227V133.08H252.291V143H250.947V133.08H247.011V131.8ZM256.901 137.48C256.901 136.243 257.195 135.171 257.781 134.264C258.368 133.347 259.099 132.675 259.973 132.248C260.848 131.821 261.787 131.608 262.789 131.608C263.941 131.608 264.992 131.859 265.941 132.36V133.704C265.131 133.16 264.155 132.888 263.013 132.888C261.733 132.888 260.624 133.283 259.685 134.072C258.747 134.851 258.272 135.987 258.261 137.48C258.261 138.429 258.501 139.251 258.981 139.944C259.472 140.637 260.069 141.139 260.773 141.448C261.488 141.757 262.251 141.912 263.061 141.912C264.267 141.912 265.253 141.64 266.021 141.096V142.44C265.051 142.941 263.968 143.192 262.773 143.192C262.059 143.192 261.355 143.069 260.661 142.824C259.968 142.568 259.339 142.211 258.773 141.752C258.208 141.283 257.755 140.68 257.413 139.944C257.072 139.197 256.901 138.376 256.901 137.48Z" fill="#111111"/>
<path d="M145.6 183H143.2V171.8H147.808C148.395 171.8 148.933 171.859 149.424 171.976C149.925 172.093 150.395 172.285 150.832 172.552C151.28 172.819 151.627 173.197 151.872 173.688C152.128 174.179 152.256 174.765 152.256 175.448C152.256 177.144 151.44 178.253 149.808 178.776L153.152 183H150.384L147.36 179.08H145.6V183ZM145.6 173.912V177.08H147.92C148.464 177.08 148.912 176.952 149.264 176.696C149.627 176.429 149.808 176.029 149.808 175.496C149.808 174.952 149.632 174.552 149.28 174.296C148.928 174.04 148.475 173.912 147.92 173.912H145.6ZM156.672 183H154.448V175.32H156.672V183ZM156.864 172.776C156.864 173.192 156.741 173.507 156.496 173.72C156.25 173.933 155.936 174.04 155.552 174.04C155.178 174.04 154.869 173.933 154.624 173.72C154.378 173.507 154.256 173.192 154.256 172.776C154.256 172.371 154.378 172.061 154.624 171.848C154.869 171.635 155.178 171.528 155.552 171.528C155.925 171.528 156.234 171.635 156.48 171.848C156.736 172.061 156.864 172.371 156.864 172.776ZM160.856 176.44C161.485 175.544 162.413 175.096 163.64 175.096C164.802 175.096 165.714 175.496 166.376 176.296C167.048 177.085 167.384 178.04 167.384 179.16C167.384 180.28 167.048 181.24 166.376 182.04C165.714 182.829 164.802 183.224 163.64 183.224C162.584 183.224 161.741 182.877 161.112 182.184V186.52H158.888V175.32H160.856V176.44ZM164.568 180.728C164.93 180.301 165.112 179.779 165.112 179.16C165.112 178.541 164.93 178.024 164.568 177.608C164.205 177.181 163.714 176.968 163.096 176.968C162.637 176.968 162.226 177.091 161.864 177.336C161.512 177.581 161.256 177.885 161.096 178.248V180.072C161.256 180.435 161.512 180.739 161.864 180.984C162.226 181.229 162.637 181.352 163.096 181.352C163.714 181.352 164.205 181.144 164.568 180.728ZM171.109 176.44C171.738 175.544 172.666 175.096 173.893 175.096C175.056 175.096 175.968 175.496 176.629 176.296C177.301 177.085 177.637 178.04 177.637 179.16C177.637 180.28 177.301 181.24 176.629 182.04C175.968 182.829 175.056 183.224 173.893 183.224C172.837 183.224 171.994 182.877 171.365 182.184V186.52H169.141V175.32H171.109V176.44ZM174.821 180.728C175.184 180.301 175.365 179.779 175.365 179.16C175.365 178.541 175.184 178.024 174.821 177.608C174.458 177.181 173.968 176.968 173.349 176.968C172.89 176.968 172.48 177.091 172.117 177.336C171.765 177.581 171.509 177.885 171.349 178.248V180.072C171.509 180.435 171.765 180.739 172.117 180.984C172.48 181.229 172.89 181.352 173.349 181.352C173.968 181.352 174.458 181.144 174.821 180.728ZM179.426 171.32H181.65V183H179.426V171.32ZM183.434 179.16C183.434 178.467 183.557 177.853 183.802 177.32C184.047 176.776 184.367 176.349 184.762 176.04C185.167 175.731 185.589 175.496 186.026 175.336C186.474 175.176 186.927 175.096 187.386 175.096C188.154 175.096 188.815 175.24 189.37 175.528C189.935 175.816 190.351 176.189 190.618 176.648C190.885 177.096 191.066 177.608 191.162 178.184C191.269 178.749 191.242 179.315 191.082 179.88H185.674C185.791 180.413 186.101 180.813 186.602 181.08C187.103 181.336 187.695 181.464 188.378 181.464C189.221 181.464 189.994 181.309 190.698 181V182.744C189.941 183.064 189.002 183.224 187.882 183.224C186.602 183.224 185.541 182.867 184.698 182.152C183.855 181.437 183.434 180.44 183.434 179.16ZM189.082 178.44C189.135 178.088 189.034 177.725 188.778 177.352C188.522 176.979 188.085 176.792 187.466 176.792C186.975 176.792 186.554 176.941 186.202 177.24C185.85 177.528 185.669 177.928 185.658 178.44H189.082Z" fill="#111111"/>
<path d="M143.088 196.984C144.101 196.28 145.264 195.928 146.576 195.928C147.707 195.928 148.608 196.184 149.28 196.696C149.952 197.208 150.288 197.923 150.288 198.84C150.288 199.277 150.203 199.688 150.032 200.072C149.872 200.456 149.627 200.808 149.296 201.128C148.976 201.448 148.661 201.72 148.352 201.944C148.053 202.157 147.675 202.397 147.216 202.664C147.163 202.696 146.997 202.792 146.72 202.952C146.453 203.112 146.283 203.213 146.208 203.256C146.144 203.299 145.995 203.395 145.76 203.544C145.536 203.683 145.387 203.784 145.312 203.848C145.248 203.912 145.131 204.013 144.96 204.152C144.8 204.291 144.688 204.408 144.624 204.504C144.571 204.6 144.496 204.723 144.4 204.872C144.315 205.011 144.256 205.149 144.224 205.288C144.192 205.427 144.176 205.576 144.176 205.736L150.368 205.72V207H142.704V206.36C142.704 205.763 142.8 205.224 142.992 204.744C143.184 204.253 143.456 203.837 143.808 203.496C144.171 203.144 144.528 202.851 144.88 202.616C145.232 202.371 145.643 202.109 146.112 201.832C146.219 201.779 146.299 201.736 146.352 201.704C147.323 201.139 147.957 200.707 148.256 200.408C148.715 199.939 148.944 199.411 148.944 198.824C148.944 198.291 148.725 197.885 148.288 197.608C147.861 197.32 147.253 197.176 146.464 197.176C145.312 197.176 144.187 197.56 143.088 198.328V196.984ZM153.808 205.736C153.968 205.875 154.048 206.072 154.048 206.328C154.048 206.584 153.968 206.787 153.808 206.936C153.648 207.075 153.45 207.144 153.216 207.144C152.981 207.144 152.778 207.075 152.608 206.936C152.448 206.787 152.368 206.584 152.368 206.328C152.368 206.072 152.448 205.875 152.608 205.736C152.778 205.597 152.981 205.528 153.216 205.528C153.45 205.528 153.648 205.597 153.808 205.736ZM163.385 198.888C163.385 199.443 163.236 199.944 162.937 200.392C162.649 200.829 162.27 201.128 161.801 201.288C162.356 201.459 162.83 201.773 163.225 202.232C163.63 202.68 163.833 203.283 163.833 204.04C163.833 205.053 163.454 205.832 162.697 206.376C161.95 206.92 161.001 207.192 159.849 207.192C158.388 207.192 157.124 206.952 156.057 206.472V205.144C157.092 205.677 158.318 205.939 159.737 205.928C161.604 205.928 162.537 205.277 162.537 203.976C162.537 202.675 161.652 202.024 159.881 202.024H158.217V200.744L159.737 200.76C160.505 200.76 161.086 200.6 161.481 200.28C161.886 199.949 162.089 199.523 162.089 199C162.089 198.435 161.865 197.992 161.417 197.672C160.969 197.341 160.334 197.176 159.513 197.176C158.382 197.176 157.294 197.453 156.249 198.008V196.696C157.252 196.184 158.398 195.928 159.689 195.928C160.798 195.928 161.689 196.2 162.361 196.744C163.044 197.288 163.385 198.003 163.385 198.888ZM167.108 201.256C168.142 200.563 169.278 200.216 170.516 200.216C171.508 200.216 172.377 200.52 173.124 201.128C173.87 201.725 174.244 202.557 174.244 203.624C174.244 204.744 173.87 205.619 173.124 206.248C172.388 206.877 171.46 207.192 170.34 207.192C168.804 207.192 167.652 206.717 166.884 205.768C166.126 204.808 165.748 203.464 165.748 201.736C165.748 199.816 166.201 198.371 167.108 197.4C168.025 196.419 169.22 195.928 170.692 195.928C171.641 195.928 172.521 196.136 173.332 196.552V197.832C172.542 197.416 171.673 197.208 170.724 197.208C169.721 197.208 168.884 197.533 168.212 198.184C167.55 198.824 167.182 199.848 167.108 201.256ZM167.124 202.6C167.326 204.829 168.366 205.944 170.244 205.944C171.033 205.944 171.668 205.763 172.148 205.4C172.638 205.037 172.884 204.467 172.884 203.688C172.884 202.899 172.633 202.333 172.132 201.992C171.63 201.64 170.98 201.464 170.18 201.464C168.996 201.464 167.977 201.843 167.124 202.6ZM176.321 198.744C176.321 197.976 176.657 197.315 177.329 196.76C178.001 196.205 178.988 195.928 180.289 195.928C181.494 195.928 182.465 196.221 183.201 196.808C183.937 197.395 184.316 198.099 184.337 198.92C184.369 200.04 183.873 200.957 182.849 201.672C184.097 202.291 184.721 203.144 184.721 204.232C184.721 205.064 184.353 205.768 183.617 206.344C182.892 206.909 181.814 207.192 180.385 207.192C178.966 207.192 177.868 206.883 177.089 206.264C176.321 205.645 175.937 204.893 175.937 204.008C175.937 203.475 176.092 202.947 176.401 202.424C176.721 201.891 177.185 201.443 177.793 201.08C176.812 200.483 176.321 199.704 176.321 198.744ZM180.449 202.104C179.894 201.955 179.388 201.795 178.929 201.624C178.396 201.88 177.985 202.211 177.697 202.616C177.42 203.021 177.281 203.437 177.281 203.864C177.281 204.515 177.548 205.027 178.081 205.4C178.625 205.763 179.404 205.944 180.417 205.944C181.27 205.944 181.974 205.795 182.529 205.496C183.094 205.187 183.377 204.787 183.377 204.296C183.377 203.88 183.228 203.528 182.929 203.24C182.641 202.941 182.358 202.739 182.081 202.632C181.804 202.525 181.345 202.376 180.705 202.184C180.588 202.152 180.502 202.125 180.449 202.104ZM182.993 199.16C182.993 198.595 182.753 198.125 182.273 197.752C181.793 197.368 181.121 197.176 180.257 197.176C179.468 197.176 178.838 197.325 178.369 197.624C177.9 197.912 177.665 198.28 177.665 198.728C177.665 199.037 177.729 199.309 177.857 199.544C177.996 199.768 178.198 199.96 178.465 200.12C178.742 200.269 178.993 200.392 179.217 200.488C179.441 200.573 179.74 200.669 180.113 200.776C180.156 200.787 180.188 200.797 180.209 200.808C180.23 200.808 180.257 200.813 180.289 200.824C180.321 200.835 180.353 200.845 180.385 200.856C180.417 200.867 180.598 200.92 180.929 201.016C181.27 201.101 181.532 201.171 181.713 201.224C182.566 200.669 182.993 199.981 182.993 199.16ZM186.421 199.496C186.421 198.376 186.789 197.501 187.525 196.872C188.271 196.243 189.205 195.928 190.325 195.928C191.861 195.928 193.007 196.408 193.765 197.368C194.533 198.317 194.917 199.656 194.917 201.384C194.917 203.304 194.458 204.755 193.541 205.736C192.634 206.707 191.445 207.192 189.973 207.192C189.023 207.192 188.143 206.984 187.333 206.568V205.288C188.122 205.704 188.991 205.912 189.941 205.912C190.943 205.912 191.775 205.592 192.437 204.952C193.109 204.301 193.482 203.272 193.557 201.864C192.511 202.557 191.375 202.904 190.149 202.904C189.157 202.904 188.287 202.605 187.541 202.008C186.794 201.4 186.421 200.563 186.421 199.496ZM190.421 197.176C189.631 197.176 188.991 197.357 188.501 197.72C188.021 198.083 187.781 198.653 187.781 199.432C187.781 200.221 188.031 200.792 188.533 201.144C189.034 201.485 189.685 201.656 190.485 201.656C191.669 201.656 192.687 201.277 193.541 200.52C193.338 198.291 192.298 197.176 190.421 197.176ZM197.538 196.12H204.066V197.4H198.802L198.61 200.472C199.186 200.312 199.805 200.232 200.466 200.232C201.01 200.232 201.517 200.296 201.986 200.424C202.456 200.541 202.888 200.733 203.282 201C203.688 201.256 204.008 201.619 204.242 202.088C204.477 202.547 204.594 203.091 204.594 203.72C204.594 204.797 204.194 205.645 203.394 206.264C202.605 206.883 201.597 207.192 200.37 207.192C199.048 207.192 197.885 206.947 196.882 206.456V205.176C197.842 205.688 198.952 205.944 200.21 205.944C201.128 205.944 201.858 205.752 202.402 205.368C202.957 204.984 203.234 204.435 203.234 203.72C203.234 202.205 202.157 201.448 200.002 201.448C199.064 201.448 198.125 201.619 197.186 201.96L197.538 196.12ZM209.088 196.12H210.08V205.72H212.112V207H206.448V205.72H208.736V197.544L206.448 198.408V197.128L209.088 196.12ZM213.943 198.744C213.943 197.976 214.279 197.315 214.951 196.76C215.623 196.205 216.61 195.928 217.911 195.928C219.116 195.928 220.087 196.221 220.823 196.808C221.559 197.395 221.938 198.099 221.959 198.92C221.991 200.04 221.495 200.957 220.471 201.672C221.719 202.291 222.343 203.144 222.343 204.232C222.343 205.064 221.975 205.768 221.239 206.344C220.514 206.909 219.436 207.192 218.007 207.192C216.588 207.192 215.49 206.883 214.711 206.264C213.943 205.645 213.559 204.893 213.559 204.008C213.559 203.475 213.714 202.947 214.023 202.424C214.343 201.891 214.807 201.443 215.415 201.08C214.434 200.483 213.943 199.704 213.943 198.744ZM218.071 202.104C217.516 201.955 217.01 201.795 216.551 201.624C216.018 201.88 215.607 202.211 215.319 202.616C215.042 203.021 214.903 203.437 214.903 203.864C214.903 204.515 215.17 205.027 215.703 205.4C216.247 205.763 217.026 205.944 218.039 205.944C218.892 205.944 219.596 205.795 220.151 205.496C220.716 205.187 220.999 204.787 220.999 204.296C220.999 203.88 220.85 203.528 220.551 203.24C220.263 202.941 219.98 202.739 219.703 202.632C219.426 202.525 218.967 202.376 218.327 202.184C218.21 202.152 218.124 202.125 218.071 202.104ZM220.615 199.16C220.615 198.595 220.375 198.125 219.895 197.752C219.415 197.368 218.743 197.176 217.879 197.176C217.09 197.176 216.46 197.325 215.991 197.624C215.522 197.912 215.287 198.28 215.287 198.728C215.287 199.037 215.351 199.309 215.479 199.544C215.618 199.768 215.82 199.96 216.087 200.12C216.364 200.269 216.615 200.392 216.839 200.488C217.063 200.573 217.362 200.669 217.735 200.776C217.778 200.787 217.81 200.797 217.831 200.808C217.852 200.808 217.879 200.813 217.911 200.824C217.943 200.835 217.975 200.845 218.007 200.856C218.039 200.867 218.22 200.92 218.551 201.016C218.892 201.101 219.154 201.171 219.335 201.224C220.188 200.669 220.615 199.981 220.615 199.16ZM223.866 196.12H231.706V197.336L227.162 207H225.722L230.234 197.4H223.866V196.12ZM234.536 201.256C235.57 200.563 236.706 200.216 237.944 200.216C238.936 200.216 239.805 200.52 240.552 201.128C241.298 201.725 241.672 202.557 241.672 203.624C241.672 204.744 241.298 205.619 240.552 206.248C239.816 206.877 238.888 207.192 237.768 207.192C236.232 207.192 235.08 206.717 234.312 205.768C233.554 204.808 233.176 203.464 233.176 201.736C233.176 199.816 233.629 198.371 234.536 197.4C235.453 196.419 236.648 195.928 238.12 195.928C239.069 195.928 239.949 196.136 240.76 196.552V197.832C239.97 197.416 239.101 197.208 238.152 197.208C237.149 197.208 236.312 197.533 235.64 198.184C234.978 198.824 234.61 199.848 234.536 201.256ZM234.552 202.6C234.754 204.829 235.794 205.944 237.672 205.944C238.461 205.944 239.096 205.763 239.576 205.4C240.066 205.037 240.312 204.467 240.312 203.688C240.312 202.899 240.061 202.333 239.56 201.992C239.058 201.64 238.408 201.464 237.608 201.464C236.424 201.464 235.405 201.843 234.552 202.6ZM248.31 207H246.71L251.046 201.24L246.95 195.8H248.55L251.846 200.168L255.126 195.8H256.726L252.646 201.24L256.966 207H255.366L251.846 202.312L248.31 207ZM260.107 207H258.763V195.8H263.147C263.883 195.8 264.549 195.901 265.147 196.104C265.744 196.296 266.256 196.659 266.683 197.192C267.12 197.715 267.339 198.381 267.339 199.192C267.339 200.152 267.061 200.899 266.507 201.432C265.952 201.965 265.232 202.312 264.347 202.472L268.139 207H266.459L262.795 202.584H260.107V207ZM260.107 197.08V201.304H263.211C264 201.304 264.656 201.144 265.179 200.824C265.712 200.493 265.979 199.949 265.979 199.192C265.979 198.424 265.712 197.88 265.179 197.56C264.656 197.24 264 197.08 263.211 197.08H260.107ZM270.188 195.8H274.012C277.18 195.8 278.764 197.005 278.764 199.416C278.764 201.827 277.18 203.032 274.012 203.032H271.532V207H270.188V195.8ZM277.404 199.416C277.404 198.957 277.318 198.573 277.148 198.264C276.977 197.944 276.732 197.704 276.412 197.544C276.102 197.373 275.761 197.256 275.388 197.192C275.014 197.117 274.577 197.08 274.076 197.08H271.532V201.752H274.076C275.11 201.752 275.921 201.581 276.508 201.24C277.105 200.899 277.404 200.291 277.404 199.416Z" fill="#111111"/>
<path d="M143.2 236.8H151.088V238.912H145.6V241.296H150.608V243.392H145.6V245.888H151.184V248H143.2V236.8ZM153.554 238.08L155.762 237.552V240.32H158.194V242.192H155.762V245.2C155.762 245.968 156.173 246.352 156.994 246.352C157.485 246.352 157.949 246.267 158.386 246.096V247.888C157.746 248.112 157.058 248.224 156.322 248.224C155.512 248.224 154.845 248.016 154.322 247.6C153.81 247.184 153.554 246.528 153.554 245.632V242.192H152.258V240.32H153.554V238.08ZM159.966 236.8H162.19V241.024C162.851 240.405 163.619 240.096 164.494 240.096C165.475 240.096 166.238 240.395 166.782 240.992C167.337 241.579 167.614 242.331 167.614 243.248V248H165.39V243.536C165.39 243.035 165.251 242.656 164.974 242.4C164.707 242.144 164.35 242.016 163.902 242.016C163.209 242.016 162.638 242.341 162.19 242.992V248H159.966V236.8ZM169.271 244.16C169.271 243.467 169.394 242.853 169.639 242.32C169.885 241.776 170.205 241.349 170.599 241.04C171.005 240.731 171.426 240.496 171.863 240.336C172.311 240.176 172.765 240.096 173.223 240.096C173.991 240.096 174.653 240.24 175.207 240.528C175.773 240.816 176.189 241.189 176.455 241.648C176.722 242.096 176.903 242.608 176.999 243.184C177.106 243.749 177.079 244.315 176.919 244.88H171.511C171.629 245.413 171.938 245.813 172.439 246.08C172.941 246.336 173.533 246.464 174.215 246.464C175.058 246.464 175.831 246.309 176.535 246V247.744C175.778 248.064 174.839 248.224 173.719 248.224C172.439 248.224 171.378 247.867 170.535 247.152C169.693 246.437 169.271 245.44 169.271 244.16ZM174.919 243.44C174.973 243.088 174.871 242.725 174.615 242.352C174.359 241.979 173.922 241.792 173.303 241.792C172.813 241.792 172.391 241.941 172.039 242.24C171.687 242.528 171.506 242.928 171.495 243.44H174.919ZM180.721 241.472C181.009 241.024 181.425 240.677 181.969 240.432C182.513 240.187 183.132 240.096 183.825 240.16V242.32C183.217 242.213 182.647 242.267 182.113 242.48C181.591 242.693 181.212 243.029 180.977 243.488V248H178.753V240.32H180.721V241.472ZM184.7 244.16C184.7 243.467 184.822 242.853 185.068 242.32C185.313 241.776 185.633 241.349 186.028 241.04C186.433 240.731 186.854 240.496 187.292 240.336C187.74 240.176 188.193 240.096 188.652 240.096C189.42 240.096 190.081 240.24 190.636 240.528C191.201 240.816 191.617 241.189 191.884 241.648C192.15 242.096 192.332 242.608 192.428 243.184C192.534 243.749 192.508 244.315 192.348 244.88H186.94C187.057 245.413 187.366 245.813 187.868 246.08C188.369 246.336 188.961 246.464 189.644 246.464C190.486 246.464 191.26 246.309 191.964 246V247.744C191.206 248.064 190.268 248.224 189.148 248.224C187.868 248.224 186.806 247.867 185.964 247.152C185.121 246.437 184.7 245.44 184.7 244.16ZM190.348 243.44C190.401 243.088 190.3 242.725 190.044 242.352C189.788 241.979 189.35 241.792 188.732 241.792C188.241 241.792 187.82 241.941 187.468 242.24C187.116 242.528 186.934 242.928 186.924 243.44H190.348ZM199.509 240.32H201.733V248H199.765V247.024C199.072 247.824 198.219 248.224 197.205 248.224C196.203 248.224 195.429 247.931 194.885 247.344C194.352 246.757 194.085 246 194.085 245.072V240.32H196.309V244.784C196.309 245.285 196.437 245.664 196.693 245.92C196.949 246.176 197.312 246.304 197.781 246.304C198.464 246.304 199.04 245.979 199.509 245.328V240.32ZM206.143 248H203.919V240.32H205.887V241.216C206.132 240.928 206.468 240.672 206.895 240.448C207.322 240.213 207.802 240.096 208.335 240.096C209.391 240.096 210.175 240.475 210.687 241.232C211.466 240.475 212.319 240.096 213.247 240.096C214.228 240.096 214.948 240.405 215.407 241.024C215.876 241.632 216.111 242.336 216.111 243.136V248H213.903V243.28C213.903 242.885 213.791 242.576 213.567 242.352C213.354 242.128 213.066 242.016 212.703 242.016C212.138 242.016 211.631 242.272 211.183 242.784C211.194 242.859 211.199 242.976 211.199 243.136V248H208.991V243.28C208.991 242.885 208.879 242.576 208.655 242.352C208.442 242.128 208.154 242.016 207.791 242.016C207.162 242.016 206.612 242.325 206.143 242.944V248Z" fill="#111111"/>
<path d="M143.504 261.12H150.032V262.4H144.768L144.576 265.472C145.152 265.312 145.771 265.232 146.432 265.232C146.976 265.232 147.483 265.296 147.952 265.424C148.421 265.541 148.853 265.733 149.248 266C149.653 266.256 149.973 266.619 150.208 267.088C150.443 267.547 150.56 268.091 150.56 268.72C150.56 269.797 150.16 270.645 149.36 271.264C148.571 271.883 147.563 272.192 146.336 272.192C145.013 272.192 143.851 271.947 142.848 271.456V270.176C143.808 270.688 144.917 270.944 146.176 270.944C147.093 270.944 147.824 270.752 148.368 270.368C148.923 269.984 149.2 269.435 149.2 268.72C149.2 267.205 148.123 266.448 145.968 266.448C145.029 266.448 144.091 266.619 143.152 266.96L143.504 261.12ZM152.707 274.4H151.667L152.547 270.72H153.907L152.707 274.4ZM156.127 263.744C156.127 262.976 156.463 262.315 157.135 261.76C157.807 261.205 158.794 260.928 160.095 260.928C161.301 260.928 162.271 261.221 163.007 261.808C163.743 262.395 164.122 263.099 164.143 263.92C164.175 265.04 163.679 265.957 162.655 266.672C163.903 267.291 164.527 268.144 164.527 269.232C164.527 270.064 164.159 270.768 163.423 271.344C162.698 271.909 161.621 272.192 160.191 272.192C158.773 272.192 157.674 271.883 156.895 271.264C156.127 270.645 155.743 269.893 155.743 269.008C155.743 268.475 155.898 267.947 156.207 267.424C156.527 266.891 156.991 266.443 157.599 266.08C156.618 265.483 156.127 264.704 156.127 263.744ZM160.255 267.104C159.701 266.955 159.194 266.795 158.735 266.624C158.202 266.88 157.791 267.211 157.503 267.616C157.226 268.021 157.087 268.437 157.087 268.864C157.087 269.515 157.354 270.027 157.887 270.4C158.431 270.763 159.21 270.944 160.223 270.944C161.077 270.944 161.781 270.795 162.335 270.496C162.901 270.187 163.183 269.787 163.183 269.296C163.183 268.88 163.034 268.528 162.735 268.24C162.447 267.941 162.165 267.739 161.887 267.632C161.61 267.525 161.151 267.376 160.511 267.184C160.394 267.152 160.309 267.125 160.255 267.104ZM162.799 264.16C162.799 263.595 162.559 263.125 162.079 262.752C161.599 262.368 160.927 262.176 160.063 262.176C159.274 262.176 158.645 262.325 158.175 262.624C157.706 262.912 157.471 263.28 157.471 263.728C157.471 264.037 157.535 264.309 157.663 264.544C157.802 264.768 158.005 264.96 158.271 265.12C158.549 265.269 158.799 265.392 159.023 265.488C159.247 265.573 159.546 265.669 159.919 265.776C159.962 265.787 159.994 265.797 160.015 265.808C160.037 265.808 160.063 265.813 160.095 265.824C160.127 265.835 160.159 265.845 160.191 265.856C160.223 265.867 160.405 265.92 160.735 266.016C161.077 266.101 161.338 266.171 161.519 266.224C162.373 265.669 162.799 264.981 162.799 264.16ZM166.227 264.496C166.227 263.376 166.595 262.501 167.331 261.872C168.077 261.243 169.011 260.928 170.131 260.928C171.667 260.928 172.813 261.408 173.571 262.368C174.339 263.317 174.723 264.656 174.723 266.384C174.723 268.304 174.264 269.755 173.347 270.736C172.44 271.707 171.251 272.192 169.779 272.192C168.829 272.192 167.949 271.984 167.139 271.568V270.288C167.928 270.704 168.797 270.912 169.747 270.912C170.749 270.912 171.581 270.592 172.243 269.952C172.915 269.301 173.288 268.272 173.363 266.864C172.317 267.557 171.181 267.904 169.955 267.904C168.963 267.904 168.093 267.605 167.347 267.008C166.6 266.4 166.227 265.563 166.227 264.496ZM170.227 262.176C169.437 262.176 168.797 262.357 168.307 262.72C167.827 263.083 167.587 263.653 167.587 264.432C167.587 265.221 167.837 265.792 168.339 266.144C168.84 266.485 169.491 266.656 170.291 266.656C171.475 266.656 172.493 266.277 173.347 265.52C173.144 263.291 172.104 262.176 170.227 262.176ZM177.345 261.12H183.873V262.4H178.609L178.417 265.472C178.993 265.312 179.611 265.232 180.273 265.232C180.817 265.232 181.323 265.296 181.793 265.424C182.262 265.541 182.694 265.733 183.089 266C183.494 266.256 183.814 266.619 184.049 267.088C184.283 267.547 184.401 268.091 184.401 268.72C184.401 269.797 184.001 270.645 183.201 271.264C182.411 271.883 181.403 272.192 180.177 272.192C178.854 272.192 177.691 271.947 176.689 271.456V270.176C177.649 270.688 178.758 270.944 180.017 270.944C180.934 270.944 181.665 270.752 182.209 270.368C182.763 269.984 183.041 269.435 183.041 268.72C183.041 267.205 181.963 266.448 179.809 266.448C178.87 266.448 177.931 266.619 176.993 266.96L177.345 261.12ZM187.492 270.736C187.652 270.875 187.732 271.072 187.732 271.328C187.732 271.584 187.652 271.787 187.492 271.936C187.332 272.075 187.135 272.144 186.9 272.144C186.665 272.144 186.463 272.075 186.292 271.936C186.132 271.787 186.052 271.584 186.052 271.328C186.052 271.072 186.132 270.875 186.292 270.736C186.463 270.597 186.665 270.528 186.9 270.528C187.135 270.528 187.332 270.597 187.492 270.736ZM192.397 261.12H193.389V270.72H195.421V272H189.757V270.72H192.045V262.544L189.757 263.408V262.128L192.397 261.12ZM199.572 261.12H200.564V270.72H202.596V272H196.932V270.72H199.22V262.544L196.932 263.408V262.128L199.572 261.12ZM209.016 260.8H216.568V262.08H210.36V265.712H216.088V266.992H210.36V270.72H216.664V272H209.016V260.8ZM217.99 260.8H227.206V262.08H223.27V272H221.926V262.08H217.99V260.8ZM237.178 260.8H238.522V272H237.178V267.024H230.538V272H229.194V260.8H230.538V265.744H237.178V260.8Z" fill="#111111"/>
<path d="M142.704 304.76C142.704 303.725 143.093 302.936 143.872 302.392C144.651 301.848 145.627 301.576 146.8 301.576C148.208 301.576 149.419 301.864 150.432 302.44V304.68C149.483 303.997 148.331 303.667 146.976 303.688C145.76 303.709 145.152 304.056 145.152 304.728C145.152 305.027 145.301 305.288 145.6 305.512C145.909 305.736 146.288 305.917 146.736 306.056C147.195 306.184 147.685 306.355 148.208 306.568C148.741 306.771 149.232 306.995 149.68 307.24C150.139 307.475 150.517 307.827 150.816 308.296C151.125 308.765 151.28 309.309 151.28 309.928C151.28 310.536 151.163 311.059 150.928 311.496C150.704 311.933 150.384 312.275 149.968 312.52C149.552 312.765 149.093 312.941 148.592 313.048C148.091 313.165 147.531 313.224 146.912 313.224C145.355 313.224 143.973 312.888 142.768 312.216V309.928C143.963 310.717 145.285 311.112 146.736 311.112C148.133 311.112 148.832 310.755 148.832 310.04C148.832 309.72 148.677 309.443 148.368 309.208C148.069 308.963 147.691 308.771 147.232 308.632C146.784 308.483 146.293 308.307 145.76 308.104C145.237 307.891 144.747 307.667 144.288 307.432C143.84 307.187 143.461 306.835 143.152 306.376C142.853 305.917 142.704 305.379 142.704 304.76ZM153.304 303.08L155.512 302.552V305.32H157.944V307.192H155.512V310.2C155.512 310.968 155.923 311.352 156.744 311.352C157.235 311.352 157.699 311.267 158.136 311.096V312.888C157.496 313.112 156.808 313.224 156.072 313.224C155.262 313.224 154.595 313.016 154.072 312.6C153.56 312.184 153.304 311.528 153.304 310.632V307.192H152.008V305.32H153.304V303.08ZM159.284 309.16C159.284 308.467 159.407 307.853 159.652 307.32C159.897 306.776 160.217 306.349 160.612 306.04C161.017 305.731 161.439 305.496 161.876 305.336C162.324 305.176 162.777 305.096 163.236 305.096C164.004 305.096 164.665 305.24 165.22 305.528C165.785 305.816 166.201 306.189 166.468 306.648C166.735 307.096 166.916 307.608 167.012 308.184C167.119 308.749 167.092 309.315 166.932 309.88H161.524C161.641 310.413 161.951 310.813 162.452 311.08C162.953 311.336 163.545 311.464 164.228 311.464C165.071 311.464 165.844 311.309 166.548 311V312.744C165.791 313.064 164.852 313.224 163.732 313.224C162.452 313.224 161.391 312.867 160.548 312.152C159.705 311.437 159.284 310.44 159.284 309.16ZM164.932 308.44C164.985 308.088 164.884 307.725 164.628 307.352C164.372 306.979 163.935 306.792 163.316 306.792C162.825 306.792 162.404 306.941 162.052 307.24C161.7 307.528 161.519 307.928 161.508 308.44H164.932ZM168.798 301.32H171.022V313H168.798V301.32ZM173.27 301.32H175.494V313H173.27V301.32ZM184.574 311.016C184.574 311.357 184.755 311.528 185.118 311.528C185.267 311.528 185.406 311.507 185.534 311.464V312.92C185.128 313.069 184.718 313.144 184.302 313.144C183.491 313.144 182.926 312.856 182.606 312.28C181.806 312.909 180.883 313.224 179.838 313.224C179.08 313.224 178.44 313.016 177.918 312.6C177.406 312.173 177.15 311.597 177.15 310.872C177.15 310.264 177.331 309.757 177.694 309.352C178.056 308.947 178.478 308.675 178.958 308.536C179.438 308.387 179.96 308.312 180.526 308.312C181.155 308.312 181.763 308.381 182.35 308.52V308.248C182.35 307.853 182.195 307.539 181.886 307.304C181.576 307.069 181.128 306.952 180.542 306.952C179.688 306.952 178.782 307.144 177.822 307.528V305.608C178.846 305.267 179.838 305.096 180.798 305.096C183.315 305.096 184.574 306.253 184.574 308.568V311.016ZM181.038 309.64C180.579 309.64 180.195 309.725 179.886 309.896C179.576 310.067 179.422 310.333 179.422 310.696C179.422 310.973 179.534 311.203 179.758 311.384C179.992 311.555 180.28 311.64 180.622 311.64C181.294 311.64 181.87 311.432 182.35 311.016V309.816C181.859 309.699 181.422 309.64 181.038 309.64ZM188.853 306.472C189.141 306.024 189.557 305.677 190.101 305.432C190.645 305.187 191.263 305.096 191.957 305.16V307.32C191.349 307.213 190.778 307.267 190.245 307.48C189.722 307.693 189.343 308.029 189.109 308.488V313H186.885V305.32H188.853V306.472Z" fill="#111111"/>
<path d="M145.488 326.12H146.48V335.72H148.512V337H142.848V335.72H145.136V327.544L142.848 328.408V327.128L145.488 326.12ZM151.495 335.736C151.655 335.875 151.735 336.072 151.735 336.328C151.735 336.584 151.655 336.787 151.495 336.936C151.335 337.075 151.138 337.144 150.903 337.144C150.668 337.144 150.466 337.075 150.295 336.936C150.135 336.787 150.055 336.584 150.055 336.328C150.055 336.072 150.135 335.875 150.295 335.736C150.466 335.597 150.668 335.528 150.903 335.528C151.138 335.528 151.335 335.597 151.495 335.736ZM156.401 326.12H157.393V335.72H159.425V337H153.761V335.72H156.049V327.544L153.761 328.408V327.128L156.401 326.12ZM160.695 329.496C160.695 328.376 161.063 327.501 161.799 326.872C162.546 326.243 163.479 325.928 164.599 325.928C166.135 325.928 167.282 326.408 168.039 327.368C168.807 328.317 169.191 329.656 169.191 331.384C169.191 333.304 168.733 334.755 167.815 335.736C166.909 336.707 165.72 337.192 164.247 337.192C163.298 337.192 162.418 336.984 161.607 336.568V335.288C162.397 335.704 163.266 335.912 164.215 335.912C165.218 335.912 166.05 335.592 166.712 334.952C167.384 334.301 167.757 333.272 167.832 331.864C166.786 332.557 165.65 332.904 164.424 332.904C163.431 332.904 162.562 332.605 161.815 332.008C161.069 331.4 160.695 330.563 160.695 329.496ZM164.695 327.176C163.906 327.176 163.266 327.357 162.775 327.72C162.295 328.083 162.055 328.653 162.055 329.432C162.055 330.221 162.306 330.792 162.807 331.144C163.309 331.485 163.959 331.656 164.76 331.656C165.944 331.656 166.962 331.277 167.815 330.52C167.613 328.291 166.573 327.176 164.695 327.176ZM172.501 331.256C173.536 330.563 174.672 330.216 175.909 330.216C176.901 330.216 177.771 330.52 178.517 331.128C179.264 331.725 179.637 332.557 179.637 333.624C179.637 334.744 179.264 335.619 178.517 336.248C177.781 336.877 176.853 337.192 175.733 337.192C174.197 337.192 173.045 336.717 172.277 335.768C171.52 334.808 171.141 333.464 171.141 331.736C171.141 329.816 171.595 328.371 172.501 327.4C173.419 326.419 174.613 325.928 176.085 325.928C177.035 325.928 177.915 326.136 178.725 326.552V327.832C177.936 327.416 177.067 327.208 176.117 327.208C175.115 327.208 174.277 327.533 173.605 328.184C172.944 328.824 172.576 329.848 172.501 331.256ZM172.517 332.6C172.72 334.829 173.76 335.944 175.637 335.944C176.427 335.944 177.061 335.763 177.541 335.4C178.032 335.037 178.277 334.467 178.277 333.688C178.277 332.899 178.027 332.333 177.525 331.992C177.024 331.64 176.373 331.464 175.573 331.464C174.389 331.464 173.371 331.843 172.517 332.6ZM181.715 328.744C181.715 327.976 182.051 327.315 182.723 326.76C183.395 326.205 184.382 325.928 185.683 325.928C186.888 325.928 187.859 326.221 188.595 326.808C189.331 327.395 189.71 328.099 189.731 328.92C189.763 330.04 189.267 330.957 188.243 331.672C189.491 332.291 190.115 333.144 190.115 334.232C190.115 335.064 189.747 335.768 189.011 336.344C188.286 336.909 187.208 337.192 185.779 337.192C184.36 337.192 183.262 336.883 182.483 336.264C181.715 335.645 181.331 334.893 181.331 334.008C181.331 333.475 181.486 332.947 181.795 332.424C182.115 331.891 182.579 331.443 183.187 331.08C182.206 330.483 181.715 329.704 181.715 328.744ZM185.843 332.104C185.288 331.955 184.782 331.795 184.323 331.624C183.79 331.88 183.379 332.211 183.091 332.616C182.814 333.021 182.675 333.437 182.675 333.864C182.675 334.515 182.942 335.027 183.475 335.4C184.019 335.763 184.798 335.944 185.811 335.944C186.664 335.944 187.368 335.795 187.923 335.496C188.488 335.187 188.771 334.787 188.771 334.296C188.771 333.88 188.622 333.528 188.323 333.24C188.035 332.941 187.752 332.739 187.475 332.632C187.198 332.525 186.739 332.376 186.099 332.184C185.982 332.152 185.896 332.125 185.843 332.104ZM188.387 329.16C188.387 328.595 188.147 328.125 187.667 327.752C187.187 327.368 186.515 327.176 185.651 327.176C184.862 327.176 184.232 327.325 183.763 327.624C183.294 327.912 183.059 328.28 183.059 328.728C183.059 329.037 183.123 329.309 183.251 329.544C183.39 329.768 183.592 329.96 183.859 330.12C184.136 330.269 184.387 330.392 184.611 330.488C184.835 330.573 185.134 330.669 185.507 330.776C185.55 330.787 185.582 330.797 185.603 330.808C185.624 330.808 185.651 330.813 185.683 330.824C185.715 330.835 185.747 330.845 185.779 330.856C185.811 330.867 185.992 330.92 186.323 331.016C186.664 331.101 186.926 331.171 187.107 331.224C187.96 330.669 188.387 329.981 188.387 329.16ZM199.366 328.888C199.366 329.443 199.217 329.944 198.918 330.392C198.63 330.829 198.252 331.128 197.782 331.288C198.337 331.459 198.812 331.773 199.206 332.232C199.612 332.68 199.814 333.283 199.814 334.04C199.814 335.053 199.436 335.832 198.678 336.376C197.932 336.92 196.982 337.192 195.83 337.192C194.369 337.192 193.105 336.952 192.038 336.472V335.144C193.073 335.677 194.3 335.939 195.718 335.928C197.585 335.928 198.518 335.277 198.518 333.976C198.518 332.675 197.633 332.024 195.862 332.024H194.198V330.744L195.718 330.76C196.486 330.76 197.068 330.6 197.462 330.28C197.868 329.949 198.07 329.523 198.07 329C198.07 328.435 197.846 327.992 197.398 327.672C196.95 327.341 196.316 327.176 195.494 327.176C194.364 327.176 193.276 327.453 192.23 328.008V326.696C193.233 326.184 194.38 325.928 195.67 325.928C196.78 325.928 197.67 326.2 198.342 326.744C199.025 327.288 199.366 328.003 199.366 328.888ZM204.385 326.12H205.377V335.72H207.409V337H201.745V335.72H204.033V327.544L201.745 328.408V327.128L204.385 326.12ZM210.264 331.256C211.299 330.563 212.435 330.216 213.672 330.216C214.664 330.216 215.533 330.52 216.28 331.128C217.027 331.725 217.4 332.557 217.4 333.624C217.4 334.744 217.027 335.619 216.28 336.248C215.544 336.877 214.616 337.192 213.496 337.192C211.96 337.192 210.808 336.717 210.04 335.768C209.283 334.808 208.904 333.464 208.904 331.736C208.904 329.816 209.357 328.371 210.264 327.4C211.181 326.419 212.376 325.928 213.848 325.928C214.797 325.928 215.677 326.136 216.488 326.552V327.832C215.699 327.416 214.829 327.208 213.88 327.208C212.877 327.208 212.04 327.533 211.368 328.184C210.707 328.824 210.339 329.848 210.264 331.256ZM210.28 332.6C210.483 334.829 211.523 335.944 213.4 335.944C214.189 335.944 214.824 335.763 215.304 335.4C215.795 335.037 216.04 334.467 216.04 333.688C216.04 332.899 215.789 332.333 215.288 331.992C214.787 331.64 214.136 331.464 213.336 331.464C212.152 331.464 211.133 331.843 210.28 332.6ZM218.917 329.496C218.917 328.376 219.285 327.501 220.021 326.872C220.768 326.243 221.701 325.928 222.821 325.928C224.357 325.928 225.504 326.408 226.261 327.368C227.029 328.317 227.413 329.656 227.413 331.384C227.413 333.304 226.955 334.755 226.037 335.736C225.131 336.707 223.941 337.192 222.469 337.192C221.52 337.192 220.64 336.984 219.829 336.568V335.288C220.619 335.704 221.488 335.912 222.437 335.912C223.44 335.912 224.272 335.592 224.933 334.952C225.605 334.301 225.979 333.272 226.053 331.864C225.008 332.557 223.872 332.904 222.645 332.904C221.653 332.904 220.784 332.605 220.037 332.008C219.291 331.4 218.917 330.563 218.917 329.496ZM222.917 327.176C222.128 327.176 221.488 327.357 220.997 327.72C220.517 328.083 220.277 328.653 220.277 329.432C220.277 330.221 220.528 330.792 221.029 331.144C221.531 331.485 222.181 331.656 222.981 331.656C224.165 331.656 225.184 331.277 226.037 330.52C225.835 328.291 224.795 327.176 222.917 327.176ZM229.699 328.744C229.699 327.976 230.035 327.315 230.707 326.76C231.379 326.205 232.366 325.928 233.667 325.928C234.873 325.928 235.843 326.221 236.579 326.808C237.315 327.395 237.694 328.099 237.715 328.92C237.747 330.04 237.251 330.957 236.227 331.672C237.475 332.291 238.099 333.144 238.099 334.232C238.099 335.064 237.731 335.768 236.995 336.344C236.27 336.909 235.193 337.192 233.763 337.192C232.345 337.192 231.246 336.883 230.467 336.264C229.699 335.645 229.315 334.893 229.315 334.008C229.315 333.475 229.47 332.947 229.779 332.424C230.099 331.891 230.563 331.443 231.171 331.08C230.19 330.483 229.699 329.704 229.699 328.744ZM233.827 332.104C233.273 331.955 232.766 331.795 232.307 331.624C231.774 331.88 231.363 332.211 231.075 332.616C230.798 333.021 230.659 333.437 230.659 333.864C230.659 334.515 230.926 335.027 231.459 335.4C232.003 335.763 232.782 335.944 233.795 335.944C234.649 335.944 235.353 335.795 235.907 335.496C236.473 335.187 236.755 334.787 236.755 334.296C236.755 333.88 236.606 333.528 236.307 333.24C236.019 332.941 235.737 332.739 235.459 332.632C235.182 332.525 234.723 332.376 234.083 332.184C233.966 332.152 233.881 332.125 233.827 332.104ZM236.371 329.16C236.371 328.595 236.131 328.125 235.651 327.752C235.171 327.368 234.499 327.176 233.635 327.176C232.846 327.176 232.217 327.325 231.747 327.624C231.278 327.912 231.043 328.28 231.043 328.728C231.043 329.037 231.107 329.309 231.235 329.544C231.374 329.768 231.577 329.96 231.843 330.12C232.121 330.269 232.371 330.392 232.595 330.488C232.819 330.573 233.118 330.669 233.491 330.776C233.534 330.787 233.566 330.797 233.587 330.808C233.609 330.808 233.635 330.813 233.667 330.824C233.699 330.835 233.731 330.845 233.763 330.856C233.795 330.867 233.977 330.92 234.307 331.016C234.649 331.101 234.91 331.171 235.091 331.224C235.945 330.669 236.371 329.981 236.371 329.16ZM244.919 337H243.319L247.655 331.24L243.559 325.8H245.159L248.455 330.168L251.735 325.8H253.335L249.255 331.24L253.575 337H251.975L248.455 332.312L244.919 337ZM255.372 325.8H256.716V335.72H262.924V337H255.372V325.8ZM275.338 325.8H276.49V337H275.146V328.344L271.13 334.36H270.298L266.282 328.344V337H264.938V325.8H266.09L270.714 332.712L275.338 325.8Z" fill="#111111"/>
<circle cx="103.5" cy="126.5" r="22.5" fill="#E7943C"/>
<path fill-rule="evenodd" clip-rule="evenodd" d="M99.144 116.08C98.7649 116.249 98.6791 116.456 98.6791 117.2V117.76L97.3395 117.771L96 117.782V127.064V136.346L97.3395 136.358L98.6791 136.369V136.864C98.6791 137.538 98.7747 137.756 99.144 137.92C99.2976 137.989 99.4436 137.999 100.241 138C101.379 138.001 101.532 137.956 101.739 137.562C101.808 137.432 101.823 137.308 101.823 136.892V136.381L102.321 136.353C102.595 136.338 102.964 136.325 103.141 136.325L103.462 136.325L103.462 136.808C103.462 137.356 103.506 137.556 103.664 137.739C103.872 137.979 104.043 138.009 105.129 137.993L106.103 137.979L106.267 137.858C106.559 137.642 106.581 137.579 106.606 136.886L106.628 136.261L106.827 136.249C107.203 136.228 107.912 136.1 108.355 135.972C109.677 135.592 110.729 134.711 111.374 133.444C112.441 131.35 112.125 129.063 110.574 127.656C110.018 127.151 109.431 126.829 108.468 126.503C108.431 126.49 108.554 126.399 108.772 126.28C109.882 125.672 110.696 124.593 110.97 123.369C111.061 122.963 111.073 122.044 110.992 121.65C110.668 120.064 109.463 118.725 107.868 118.179C107.697 118.121 107.368 118.039 107.137 117.997C106.906 117.956 106.691 117.915 106.661 117.907C106.62 117.896 106.606 117.725 106.606 117.236C106.605 116.49 106.572 116.379 106.281 116.153L106.11 116.021L105.151 116.006C104.143 115.992 103.966 116.013 103.75 116.178C103.522 116.352 103.464 116.559 103.463 117.192L103.462 117.761H102.642H101.823V117.179C101.823 116.693 101.809 116.571 101.739 116.438C101.532 116.044 101.379 115.999 100.241 116C99.4436 116.001 99.2976 116.011 99.144 116.08ZM105.277 120.944C105.972 121.012 106.436 121.204 106.781 121.567C107.251 122.062 107.423 122.911 107.204 123.652C107.017 124.287 106.504 124.752 105.742 124.978C105.272 125.118 104.586 125.15 102.1 125.151L99.8304 125.152V123.032C99.8304 121.866 99.8454 120.897 99.8636 120.878C99.9079 120.833 104.741 120.891 105.277 120.944ZM105.277 128.332C106.289 128.438 106.889 128.659 107.335 129.092C107.796 129.54 107.986 130.025 107.989 130.76C107.992 131.534 107.816 132.007 107.358 132.457C107.066 132.744 106.689 132.945 106.221 133.062C105.777 133.174 104.322 133.228 101.701 133.23L99.8304 133.231V130.733V128.235L102.321 128.259C103.691 128.272 105.021 128.305 105.277 128.332Z" fill="white"/>
<circle cx="103.5" cy="191.5" r="22.5" fill="#111111"/>
<path fill-rule="evenodd" clip-rule="evenodd" d="M96.162 182.1C95.786 182.224 95.3371 182.622 95.132 183.013C94.9518 183.358 94.9571 184.18 95.1419 184.534C95.3328 184.9 97.6349 187.362 98.6606 188.297C100.068 189.581 101.084 190.254 102.217 190.656C102.851 190.88 104 190.899 104.663 190.695C105.58 190.414 106.575 189.812 107.721 188.844C108.548 188.145 111.454 185.143 111.731 184.701C112.652 183.231 111.034 181.403 109.506 182.189C109.376 182.256 108.555 183.05 107.683 183.954C105.438 186.28 104.142 187.322 103.492 187.322C102.847 187.322 101.612 186.333 99.3769 184.027C98.4632 183.085 97.6033 182.255 97.4661 182.184C97.1157 182.001 96.5697 181.967 96.162 182.1ZM98.6143 184.876C99.4906 185.785 100.461 186.747 100.77 187.014C101.876 187.969 102.827 188.482 103.492 188.482C104.568 188.482 106.185 187.255 108.769 184.478C109.587 183.599 109.995 183.216 110.15 183.181C110.541 183.093 110.953 183.505 110.859 183.89C110.806 184.105 108.925 186.139 107.731 187.272C105.905 189.004 104.723 189.674 103.492 189.674C101.935 189.674 100.419 188.607 97.3936 185.384C95.9437 183.839 95.9129 183.781 96.3217 183.362C96.7225 182.952 96.824 183.019 98.6143 184.876ZM102.926 192.167C101.686 192.362 100.368 193.145 98.6612 194.701C97.635 195.637 95.3329 198.099 95.1419 198.464C94.9571 198.818 94.9518 199.641 95.132 199.985C95.5922 200.864 96.6556 201.237 97.4781 200.808C97.6088 200.74 98.4802 199.895 99.4146 198.931C101.602 196.674 102.85 195.68 103.499 195.677C103.805 195.676 104.527 196.085 105.229 196.657C105.582 196.945 106.686 198.022 107.683 199.051C109.436 200.861 109.507 200.923 109.853 200.976C111.001 201.152 111.977 200.336 111.984 199.196C111.986 198.829 111.945 198.659 111.786 198.384C111.537 197.952 108.593 194.887 107.721 194.153C106.588 193.199 105.572 192.581 104.708 192.32C104.279 192.191 103.308 192.107 102.926 192.167ZM104.593 193.513C105.849 193.955 107.222 195.086 109.64 197.668C110.688 198.788 110.817 198.955 110.817 199.189C110.817 199.389 110.76 199.502 110.584 199.653C110.457 199.763 110.284 199.853 110.2 199.853C110.101 199.853 109.443 199.229 108.337 198.086C105.208 194.855 104.113 194.182 102.769 194.666C101.803 195.014 100.281 196.302 98.2133 198.52C97.0213 199.8 96.8021 199.958 96.4741 199.778C96.2317 199.645 96.0689 199.34 96.1231 199.119C96.1493 199.012 96.6979 198.359 97.3423 197.668C100.047 194.766 101.558 193.615 103.039 193.327C103.374 193.262 104.144 193.354 104.593 193.513Z" fill="white"/>
<circle cx="103.5" cy="256.5" r="22.5" fill="#687FE4"/>
<path fill-rule="evenodd" clip-rule="evenodd" d="M104.021 239.111C103.846 239.206 102.934 241.049 99.4017 248.448C96.9807 253.519 95 257.743 95 257.836C95 258.009 103.581 272.469 103.886 272.809C104.004 272.941 104.152 273 104.365 273C104.577 273 104.727 272.94 104.846 272.809C105.008 272.631 112.874 258.3 113 257.954C113.047 257.824 108.929 248.262 105.184 239.807C104.849 239.05 104.507 238.845 104.021 239.111ZM103.567 258.986C103.505 259.048 96.8479 257.357 96.8324 257.276C96.8248 257.237 98.3363 254.027 100.191 250.143L103.563 243.081L103.585 251.014C103.597 255.377 103.589 258.964 103.567 258.986ZM108.28 250.472C109.932 254.247 111.274 257.343 111.262 257.351C111.225 257.379 105.251 259.004 105.186 259.004C105.152 259.004 105.125 255.483 105.127 251.179C105.128 246.662 105.161 243.407 105.203 243.481C105.244 243.551 106.628 246.697 108.28 250.472ZM100.527 259.778L103.606 260.552V265.054C103.606 267.569 103.574 269.521 103.533 269.476C103.493 269.431 102.12 267.143 100.481 264.39C98.8426 261.638 97.4472 259.3 97.3802 259.195C97.3003 259.069 97.2911 259.004 97.3534 259.004C97.4056 259.004 98.8337 259.352 100.527 259.778ZM110.763 259.08C110.747 259.122 109.482 261.446 107.951 264.244L105.166 269.331L105.145 264.96C105.132 262.556 105.137 260.574 105.155 260.556C105.188 260.523 110.596 259.02 110.721 259.01C110.759 259.006 110.778 259.038 110.763 259.08Z" fill="white"/>
<circle cx="103.5" cy="321.5" r="22.5" fill="#111111"/>
<path fill-rule="evenodd" clip-rule="evenodd" d="M102.024 311.078C101.675 311.126 101.002 311.274 100.53 311.408C96.687 312.496 93.8301 315.49 92.9578 319.343C92.7616 320.21 92.5507 320.508 92.0228 320.662C91.6045 320.784 91.2584 321.129 91.2584 321.423C91.2584 321.749 91.5435 322.159 91.8181 322.226C92.1285 322.303 93.0247 322.161 103.532 320.365C107.801 319.635 112.233 318.879 113.38 318.685C115.272 318.365 115.491 318.308 115.733 318.075C115.883 317.931 116 317.715 116 317.582C116 317.24 115.556 316.762 115.239 316.762C115.027 316.763 95.6102 320.043 94.721 320.229C94.4511 320.285 94.4488 320.282 94.5145 319.922C94.6566 319.144 95.1566 317.816 95.5972 317.046C96.2417 315.921 97.7715 314.427 98.9235 313.797C102.381 311.908 106.546 312.321 109.529 314.849C110.064 315.303 110.32 315.391 110.696 315.251C111.035 315.126 111.283 314.595 111.156 314.269C110.936 313.704 109.068 312.394 107.67 311.826C105.998 311.146 103.726 310.845 102.024 311.078ZM112.216 321.139C111.015 321.348 105.849 322.233 100.736 323.106C90.7125 324.817 91.1377 324.72 91.0096 325.345C90.9314 325.727 91.3428 326.239 91.7279 326.239C91.9584 326.239 111.743 322.895 112.295 322.762C112.509 322.711 112.517 322.727 112.453 323.076C112.311 323.857 111.811 325.184 111.37 325.955C111.023 326.561 110.657 327.006 109.889 327.757C109.121 328.507 108.665 328.864 108.044 329.204C104.586 331.093 100.421 330.679 97.4385 328.151C96.8737 327.673 96.6137 327.597 96.2186 327.797C95.9157 327.95 95.753 328.289 95.8074 328.656C95.8744 329.108 97.4142 330.291 98.7696 330.931C105.085 333.916 112.487 330.382 114.01 323.657C114.206 322.791 114.417 322.493 114.945 322.339C115.472 322.184 115.743 321.837 115.672 321.406C115.6 320.963 115.303 320.74 114.801 320.75C114.58 320.755 113.417 320.93 112.216 321.139Z" fill="white"/>
</svg>
