<svg width="336" height="359" viewBox="0 0 336 359" fill="none" xmlns="http://www.w3.org/2000/svg">
<g filter="url(#filter0_b_314_57331)">
<rect width="336" height="359" rx="12" fill="white" fill-opacity="0.7"/>
<rect x="0.5" y="0.5" width="335" height="358" rx="11.5" stroke="#111111"/>
</g>
<path d="M25.8 66.2H32.136C36.968 66.2 39.384 68.08 39.384 71.84C39.384 75.6 36.968 77.48 32.136 77.48H29.4V83H25.8V66.2ZM32.304 74.312C34.576 74.312 35.712 73.488 35.712 71.84C35.712 70.192 34.576 69.368 32.304 69.368H29.4V74.312H32.304ZM51.2979 80.024C51.2979 80.536 51.5699 80.792 52.1139 80.792C52.3379 80.792 52.5459 80.76 52.7379 80.696V82.88C52.1299 83.104 51.5139 83.216 50.8899 83.216C49.6739 83.216 48.8259 82.784 48.3459 81.92C47.1459 82.864 45.7619 83.336 44.1939 83.336C43.0579 83.336 42.0979 83.024 41.3139 82.4C40.5459 81.76 40.1619 80.896 40.1619 79.808C40.1619 78.896 40.4339 78.136 40.9779 77.528C41.5219 76.92 42.1539 76.512 42.8739 76.304C43.5939 76.08 44.3779 75.968 45.2259 75.968C46.1699 75.968 47.0819 76.072 47.9619 76.28V75.872C47.9619 75.28 47.7299 74.808 47.2659 74.456C46.8019 74.104 46.1299 73.928 45.2499 73.928C43.9699 73.928 42.6099 74.216 41.1699 74.792V71.912C42.7059 71.4 44.1939 71.144 45.6339 71.144C49.4099 71.144 51.2979 72.88 51.2979 76.352V80.024ZM45.9939 77.96C45.3059 77.96 44.7299 78.088 44.2659 78.344C43.8019 78.6 43.5699 79 43.5699 79.544C43.5699 79.96 43.7379 80.304 44.0739 80.576C44.4259 80.832 44.8579 80.96 45.3699 80.96C46.3779 80.96 47.2419 80.648 47.9619 80.024V78.224C47.2259 78.048 46.5699 77.96 45.9939 77.96ZM59.1084 79.256L61.9644 71.48H65.4204L60.3084 84.392C59.1724 87.192 57.5164 88.592 55.3404 88.592C54.8764 88.592 54.2764 88.504 53.5404 88.328V85.568C54.0684 85.68 54.5244 85.736 54.9084 85.736C56.1244 85.736 57.0364 84.896 57.6444 83.216L57.6684 83.168L52.2204 71.48H55.7484L59.1084 79.256ZM70.4239 83H67.0879V71.48H70.0399V72.824C70.4079 72.392 70.9119 72.008 71.5519 71.672C72.1919 71.32 72.9119 71.144 73.7119 71.144C75.2959 71.144 76.4719 71.712 77.2399 72.848C78.4079 71.712 79.6879 71.144 81.0799 71.144C82.5519 71.144 83.6319 71.608 84.3199 72.536C85.0239 73.448 85.3759 74.504 85.3759 75.704V83H82.0639V75.92C82.0639 75.328 81.8959 74.864 81.5599 74.528C81.2399 74.192 80.8079 74.024 80.2639 74.024C79.4159 74.024 78.6559 74.408 77.9839 75.176C77.9999 75.288 78.0079 75.464 78.0079 75.704V83H74.6959V75.92C74.6959 75.328 74.5279 74.864 74.1919 74.528C73.8719 74.192 73.4399 74.024 72.8959 74.024C71.9519 74.024 71.1279 74.488 70.4239 75.416V83ZM87.4399 77.24C87.4399 76.2 87.6239 75.28 87.9919 74.48C88.3599 73.664 88.8399 73.024 89.4319 72.56C90.0399 72.096 90.6719 71.744 91.3279 71.504C91.9999 71.264 92.6799 71.144 93.3679 71.144C94.5199 71.144 95.5119 71.36 96.3439 71.792C97.1919 72.224 97.8159 72.784 98.2159 73.472C98.6159 74.144 98.8879 74.912 99.0319 75.776C99.1919 76.624 99.1519 77.472 98.9119 78.32H90.7999C90.9759 79.12 91.4399 79.72 92.1919 80.12C92.9439 80.504 93.8319 80.696 94.8559 80.696C96.1199 80.696 97.2799 80.464 98.3359 80V82.616C97.1999 83.096 95.7919 83.336 94.1119 83.336C92.1919 83.336 90.5999 82.8 89.3359 81.728C88.0719 80.656 87.4399 79.16 87.4399 77.24ZM95.9119 76.16C95.9919 75.632 95.8399 75.088 95.4559 74.528C95.0719 73.968 94.4159 73.688 93.4879 73.688C92.7519 73.688 92.1199 73.912 91.5919 74.36C91.0639 74.792 90.7919 75.392 90.7759 76.16H95.9119ZM102.077 68.12L105.389 67.328V71.48H109.037V74.288H105.389V78.8C105.389 79.952 106.005 80.528 107.237 80.528C107.973 80.528 108.669 80.4 109.325 80.144V82.832C108.365 83.168 107.333 83.336 106.229 83.336C105.013 83.336 104.013 83.024 103.229 82.4C102.461 81.776 102.077 80.792 102.077 79.448V74.288H100.133V71.48H102.077V68.12ZM116.612 65.48H119.948V83H116.612V65.48ZM126.182 83H122.846V71.48H126.182V83ZM126.47 67.664C126.47 68.288 126.286 68.76 125.918 69.08C125.55 69.4 125.078 69.56 124.502 69.56C123.942 69.56 123.478 69.4 123.11 69.08C122.742 68.76 122.558 68.288 122.558 67.664C122.558 67.056 122.742 66.592 123.11 66.272C123.478 65.952 123.942 65.792 124.502 65.792C125.062 65.792 125.526 65.952 125.894 66.272C126.278 66.592 126.47 67.056 126.47 67.664ZM132.009 72.944C133.049 71.744 134.329 71.144 135.849 71.144C137.321 71.144 138.465 71.592 139.281 72.488C140.113 73.368 140.529 74.496 140.529 75.872V83H137.193V76.304C137.193 75.552 136.985 74.984 136.569 74.6C136.169 74.216 135.633 74.024 134.961 74.024C133.921 74.024 133.065 74.512 132.393 75.488V83H129.057V71.48H132.009V72.944ZM154.949 83H151.205L147.893 78.44H146.549V83H143.213V66.2H146.549V75.776H147.941L150.869 71.48H154.613L150.653 77.168L154.949 83ZM29.856 107H26.544V98.288H24.552V95.48H26.544V94.352C26.544 93.52 26.672 92.8 26.928 92.192C27.2 91.584 27.56 91.12 28.008 90.8C28.456 90.464 28.928 90.224 29.424 90.08C29.936 89.936 30.488 89.864 31.08 89.864C32.136 89.864 33.08 90.024 33.912 90.344V93.152C33.352 92.832 32.688 92.672 31.92 92.672C30.544 92.672 29.856 93.28 29.856 94.496V95.48H33.384V98.288H29.856V107ZM36.0379 105.728C34.8059 104.656 34.1899 103.16 34.1899 101.24C34.1899 99.32 34.8059 97.824 36.0379 96.752C37.2699 95.68 38.7739 95.144 40.5499 95.144C42.3419 95.144 43.8459 95.68 45.0619 96.752C46.2939 97.824 46.9099 99.32 46.9099 101.24C46.9099 103.16 46.2939 104.656 45.0619 105.728C43.8459 106.8 42.3419 107.336 40.5499 107.336C38.7739 107.336 37.2699 106.8 36.0379 105.728ZM42.7339 103.496C43.2619 102.904 43.5259 102.152 43.5259 101.24C43.5259 100.328 43.2619 99.584 42.7339 99.008C42.2059 98.416 41.4779 98.12 40.5499 98.12C39.6219 98.12 38.8939 98.416 38.3659 99.008C37.8539 99.584 37.5979 100.328 37.5979 101.24C37.5979 102.152 37.8539 102.904 38.3659 103.496C38.8939 104.072 39.6219 104.36 40.5499 104.36C41.4779 104.36 42.2059 104.072 42.7339 103.496ZM52.0399 97.208C52.4719 96.536 53.0959 96.016 53.9119 95.648C54.7279 95.28 55.6559 95.144 56.6959 95.24V98.48C55.7839 98.32 54.9279 98.4 54.1279 98.72C53.3439 99.04 52.7759 99.544 52.4239 100.232V107H49.0879V95.48H52.0399V97.208ZM70.3699 110.12H67.7539V107.264C65.9139 107.088 64.3059 106.608 62.9299 105.824V102.392C64.7219 103.576 66.7299 104.168 68.9539 104.168C69.9779 104.168 70.7379 104.048 71.2339 103.808C71.7459 103.552 72.0019 103.136 72.0019 102.56C72.0019 102.144 71.8339 101.784 71.4979 101.48C71.1779 101.176 70.7539 100.936 70.2259 100.76C69.6979 100.568 69.1139 100.384 68.4739 100.208C67.8339 100.016 67.1939 99.8 66.5539 99.56C65.9139 99.304 65.3299 99.008 64.8019 98.672C64.2739 98.32 63.8419 97.84 63.5059 97.232C63.1859 96.624 63.0259 95.92 63.0259 95.12C63.0259 93.76 63.4579 92.688 64.3219 91.904C65.1859 91.104 66.3299 90.608 67.7539 90.416V87.56H70.3699V90.44C72.0659 90.6 73.4819 91 74.6179 91.64V95C73.1939 93.976 71.4659 93.48 69.4339 93.512C67.6099 93.544 66.6979 94.064 66.6979 95.072C66.6979 95.456 66.8579 95.792 67.1779 96.08C67.5139 96.352 67.9459 96.576 68.4739 96.752C69.0179 96.928 69.6099 97.104 70.2499 97.28C70.8899 97.456 71.5219 97.672 72.1459 97.928C72.7859 98.184 73.3699 98.488 73.8979 98.84C74.4419 99.176 74.8739 99.648 75.1939 100.256C75.5299 100.864 75.6979 101.576 75.6979 102.392C75.6979 103.96 75.2099 105.136 74.2339 105.92C73.2739 106.704 71.9859 107.16 70.3699 107.288V110.12ZM78.5891 90.656H88.9571V93.752L81.8291 93.728L81.6131 96.92C82.3811 96.76 83.0851 96.68 83.7251 96.68C85.4851 96.68 86.9171 97.104 88.0211 97.952C89.1411 98.8 89.7011 100.112 89.7011 101.888C89.7011 103.68 89.0371 105.04 87.7091 105.968C86.3811 106.88 84.7411 107.336 82.7891 107.336C80.8051 107.336 79.0531 106.968 77.5331 106.232V102.896C78.8931 103.76 80.5091 104.192 82.3811 104.192C83.5011 104.192 84.3971 103.992 85.0691 103.592C85.7571 103.192 86.1011 102.608 86.1011 101.84C86.1011 100.24 84.7731 99.44 82.1171 99.44C80.6771 99.44 79.3091 99.672 78.0131 100.136L78.5891 90.656ZM95.1939 97.544C96.5699 96.808 98.0259 96.44 99.5619 96.44C101.13 96.44 102.466 96.904 103.57 97.832C104.69 98.76 105.25 100.056 105.25 101.72C105.25 103.496 104.65 104.88 103.45 105.872C102.25 106.848 100.77 107.336 99.0099 107.336C94.0819 107.336 91.6179 104.504 91.6179 98.84C91.6179 97.4 91.8259 96.128 92.2419 95.024C92.6579 93.904 93.2259 93.016 93.9459 92.36C94.6659 91.688 95.4819 91.184 96.3939 90.848C97.3059 90.512 98.2979 90.344 99.3699 90.344C100.922 90.344 102.418 90.68 103.858 91.352V94.52C102.69 93.752 101.354 93.368 99.8499 93.368C97.1139 93.368 95.5619 94.76 95.1939 97.544ZM95.1939 100.448C95.3539 101.888 95.7299 102.912 96.3219 103.52C96.9139 104.112 97.7139 104.408 98.7219 104.408C99.5859 104.408 100.29 104.2 100.834 103.784C101.378 103.368 101.65 102.736 101.65 101.888C101.65 100.256 100.586 99.44 98.4579 99.44C97.3059 99.44 96.2179 99.776 95.1939 100.448Z" fill="#111111"/>
<path d="M40 35.9923L40 33.9923L27.7903 33.9923L32.4583 29.3692L31.0602 28L24 34.9923L31.0602 42L32.4583 40.6L27.7903 35.9923L40 35.9923Z" fill="#111111"/>
<rect x="24.5" y="285.5" width="287" height="47" rx="9.5" fill="white" stroke="#111111"/>
<path d="M139.307 302.8H143.531C146.753 302.8 148.363 304.053 148.363 306.56C148.363 309.067 146.753 310.32 143.531 310.32H141.707V314H139.307V302.8ZM143.643 308.208C145.158 308.208 145.915 307.659 145.915 306.56C145.915 305.461 145.158 304.912 143.643 304.912H141.707V308.208H143.643ZM156.226 312.016C156.226 312.357 156.407 312.528 156.77 312.528C156.919 312.528 157.058 312.507 157.186 312.464V313.92C156.78 314.069 156.37 314.144 155.954 314.144C155.143 314.144 154.578 313.856 154.258 313.28C153.458 313.909 152.535 314.224 151.49 314.224C150.732 314.224 150.092 314.016 149.57 313.6C149.058 313.173 148.802 312.597 148.802 311.872C148.802 311.264 148.983 310.757 149.346 310.352C149.708 309.947 150.13 309.675 150.61 309.536C151.09 309.387 151.612 309.312 152.178 309.312C152.807 309.312 153.415 309.381 154.002 309.52V309.248C154.002 308.853 153.847 308.539 153.538 308.304C153.228 308.069 152.78 307.952 152.194 307.952C151.34 307.952 150.434 308.144 149.474 308.528V306.608C150.498 306.267 151.49 306.096 152.45 306.096C154.967 306.096 156.226 307.253 156.226 309.568V312.016ZM152.69 310.64C152.231 310.64 151.847 310.725 151.538 310.896C151.228 311.067 151.074 311.333 151.074 311.696C151.074 311.973 151.186 312.203 151.41 312.384C151.644 312.555 151.932 312.64 152.274 312.64C152.946 312.64 153.522 312.432 154.002 312.016V310.816C153.511 310.699 153.074 310.64 152.69 310.64ZM161.353 311.504L163.257 306.32H165.561L162.153 314.928C161.395 316.795 160.291 317.728 158.841 317.728C158.531 317.728 158.131 317.669 157.641 317.552V315.712C157.993 315.787 158.297 315.824 158.553 315.824C159.363 315.824 159.971 315.264 160.377 314.144L160.393 314.112L156.761 306.32H159.113L161.353 311.504ZM174.31 316.08H172.566V314.176C171.339 314.059 170.267 313.739 169.35 313.216V310.928C170.544 311.717 171.883 312.112 173.366 312.112C174.048 312.112 174.555 312.032 174.886 311.872C175.227 311.701 175.398 311.424 175.398 311.04C175.398 310.763 175.286 310.523 175.062 310.32C174.848 310.117 174.566 309.957 174.214 309.84C173.862 309.712 173.472 309.589 173.046 309.472C172.619 309.344 172.192 309.2 171.766 309.04C171.339 308.869 170.95 308.672 170.598 308.448C170.246 308.213 169.958 307.893 169.734 307.488C169.52 307.083 169.414 306.613 169.414 306.08C169.414 305.173 169.702 304.459 170.278 303.936C170.854 303.403 171.616 303.072 172.566 302.944V301.04H174.31V302.96C175.44 303.067 176.384 303.333 177.142 303.76V306C176.192 305.317 175.04 304.987 173.686 305.008C172.47 305.029 171.862 305.376 171.862 306.048C171.862 306.304 171.968 306.528 172.182 306.72C172.406 306.901 172.694 307.051 173.046 307.168C173.408 307.285 173.803 307.403 174.23 307.52C174.656 307.637 175.078 307.781 175.494 307.952C175.92 308.123 176.31 308.325 176.662 308.56C177.024 308.784 177.312 309.099 177.526 309.504C177.75 309.909 177.862 310.384 177.862 310.928C177.862 311.973 177.536 312.757 176.886 313.28C176.246 313.803 175.387 314.107 174.31 314.192V316.08ZM179.709 303.104H186.621V305.168L181.869 305.152L181.725 307.28C182.237 307.173 182.707 307.12 183.133 307.12C184.307 307.12 185.261 307.403 185.997 307.968C186.744 308.533 187.117 309.408 187.117 310.592C187.117 311.787 186.675 312.693 185.789 313.312C184.904 313.92 183.811 314.224 182.509 314.224C181.187 314.224 180.019 313.979 179.005 313.488V311.264C179.912 311.84 180.989 312.128 182.237 312.128C182.984 312.128 183.581 311.995 184.029 311.728C184.488 311.461 184.717 311.072 184.717 310.56C184.717 309.493 183.832 308.96 182.061 308.96C181.101 308.96 180.189 309.115 179.325 309.424L179.709 303.104ZM190.699 307.696C191.617 307.205 192.587 306.96 193.611 306.96C194.657 306.96 195.547 307.269 196.283 307.888C197.03 308.507 197.403 309.371 197.403 310.48C197.403 311.664 197.003 312.587 196.203 313.248C195.403 313.899 194.417 314.224 193.243 314.224C189.958 314.224 188.315 312.336 188.315 308.56C188.315 307.6 188.454 306.752 188.731 306.016C189.009 305.269 189.387 304.677 189.867 304.24C190.347 303.792 190.891 303.456 191.499 303.232C192.107 303.008 192.769 302.896 193.483 302.896C194.518 302.896 195.515 303.12 196.475 303.568V305.68C195.697 305.168 194.806 304.912 193.803 304.912C191.979 304.912 190.945 305.84 190.699 307.696ZM190.699 309.632C190.806 310.592 191.057 311.275 191.451 311.68C191.846 312.075 192.379 312.272 193.051 312.272C193.627 312.272 194.097 312.133 194.459 311.856C194.822 311.579 195.003 311.157 195.003 310.592C195.003 309.504 194.294 308.96 192.875 308.96C192.107 308.96 191.382 309.184 190.699 309.632Z" fill="#111111"/>
<g filter="url(#filter1_b_314_57331)">
<rect x="24" y="157" width="288" height="48" rx="10" fill="white"/>
<rect x="24.5" y="157.5" width="287" height="47" rx="9.5" stroke="#111111"/>
</g>
<path d="M41.288 175.2H44.508C46.1787 175.2 47.4573 175.653 48.344 176.558C49.24 177.454 49.688 178.635 49.688 180.1C49.688 181.565 49.24 182.751 48.344 183.656C47.4573 184.552 46.1787 185 44.508 185H41.288V175.2ZM47.476 182.886C48.1573 182.223 48.498 181.295 48.498 180.1C48.498 178.905 48.1573 177.977 47.476 177.314C46.804 176.651 45.8147 176.32 44.508 176.32H42.464V183.88H44.508C45.8147 183.88 46.804 183.549 47.476 182.886ZM50.8399 181.64C50.8399 180.539 51.1759 179.675 51.8479 179.05C52.5293 178.425 53.3086 178.112 54.1859 178.112C55.0073 178.112 55.6839 178.317 56.2159 178.728C56.7573 179.139 57.1119 179.647 57.2799 180.254C57.4479 180.851 57.4573 181.477 57.3079 182.13H51.9599C52.0253 182.793 52.3193 183.292 52.8419 183.628C53.3646 183.964 53.9946 184.132 54.7319 184.132C55.5533 184.132 56.2906 183.95 56.9439 183.586V184.678C56.3186 185.005 55.5253 185.168 54.5639 185.168C53.4999 185.168 52.6133 184.865 51.9039 184.258C51.1946 183.651 50.8399 182.779 50.8399 181.64ZM56.3139 181.15C56.3419 180.954 56.3279 180.749 56.2719 180.534C56.2159 180.319 56.1133 180.105 55.9639 179.89C55.8239 179.675 55.6046 179.498 55.3059 179.358C55.0073 179.218 54.6573 179.148 54.2559 179.148C53.6493 179.148 53.1219 179.325 52.6739 179.68C52.2353 180.035 51.9973 180.525 51.9599 181.15H56.3139ZM58.9019 175.2H60.0219V179.288C60.6939 178.504 61.5619 178.112 62.6259 178.112C63.5872 178.112 64.3852 178.448 65.0199 179.12C65.6639 179.792 65.9859 180.632 65.9859 181.64C65.9859 182.648 65.6639 183.488 65.0199 184.16C64.3852 184.832 63.5872 185.168 62.6259 185.168C61.5712 185.168 60.6659 184.739 59.9099 183.88V185H58.9019V175.2ZM64.1799 183.446C64.6372 182.989 64.8659 182.387 64.8659 181.64C64.8659 180.893 64.6372 180.291 64.1799 179.834C63.7319 179.377 63.1719 179.148 62.4999 179.148C61.9305 179.148 61.4265 179.307 60.9879 179.624C60.5492 179.941 60.2272 180.333 60.0219 180.8V182.48C60.2272 182.947 60.5492 183.339 60.9879 183.656C61.4265 183.973 61.9305 184.132 62.4999 184.132C63.1719 184.132 63.7319 183.903 64.1799 183.446ZM68.6752 185H67.5552V178.28H68.6752V185ZM68.6332 175.62C68.7732 175.741 68.8432 175.914 68.8432 176.138C68.8432 176.362 68.7732 176.539 68.6332 176.67C68.4932 176.791 68.3205 176.852 68.1152 176.852C67.9098 176.852 67.7372 176.791 67.5972 176.67C67.4572 176.539 67.3872 176.362 67.3872 176.138C67.3872 175.914 67.4572 175.741 67.5972 175.62C67.7372 175.489 67.9098 175.424 68.1152 175.424C68.3205 175.424 68.4932 175.489 68.6332 175.62ZM71.1591 176.194L72.2651 175.914V178.28H74.9531V179.316H72.2651V182.788C72.2651 183.283 72.3771 183.628 72.6011 183.824C72.8344 184.02 73.2031 184.118 73.7071 184.118C74.1924 184.118 74.6871 184.015 75.1911 183.81V184.846C74.6217 185.051 74.0197 185.154 73.3851 185.154C72.7037 185.154 72.1624 184.972 71.7611 184.608C71.3597 184.235 71.1591 183.693 71.1591 182.984V179.316H69.8991V178.28H71.1591V176.194ZM79.3376 181.668C79.3376 181.08 79.4449 180.553 79.6596 180.086C79.8743 179.619 80.1543 179.246 80.4996 178.966C80.8543 178.686 81.2416 178.476 81.6616 178.336C82.0909 178.187 82.5296 178.112 82.9776 178.112C83.8083 178.112 84.4989 178.294 85.0496 178.658V179.75C84.5363 179.349 83.8923 179.148 83.1176 179.148C82.3896 179.148 81.7643 179.358 81.2416 179.778C80.7189 180.198 80.4576 180.819 80.4576 181.64C80.4576 182.452 80.7143 183.073 81.2276 183.502C81.7503 183.922 82.3709 184.132 83.0896 184.132C83.8363 184.132 84.5129 183.95 85.1196 183.586V184.706C84.4849 185.014 83.7569 185.168 82.9356 185.168C81.9649 185.168 81.1203 184.865 80.4016 184.258C79.6923 183.651 79.3376 182.788 79.3376 181.668ZM92.0939 183.6C92.0939 183.945 92.2666 184.118 92.6119 184.118C92.7612 184.118 92.9339 184.085 93.1299 184.02V184.93C92.8499 185.033 92.5699 185.084 92.2899 185.084C91.6459 185.084 91.2352 184.813 91.0579 184.272C90.3392 184.869 89.4666 185.168 88.4399 185.168C87.7866 185.168 87.2266 184.995 86.7599 184.65C86.3026 184.295 86.0739 183.787 86.0739 183.124C86.0739 182.331 86.3679 181.757 86.9559 181.402C87.5532 181.038 88.2719 180.856 89.1119 180.856C89.7279 180.856 90.3486 180.926 90.9739 181.066V180.828C90.9739 180.315 90.8059 179.909 90.4699 179.61C90.1339 179.302 89.6626 179.148 89.0559 179.148C88.2066 179.148 87.3899 179.316 86.6059 179.652V178.56C87.4832 178.261 88.3372 178.112 89.1679 178.112C90.0826 178.112 90.7966 178.359 91.3099 178.854C91.8326 179.339 92.0939 180.044 92.0939 180.968V183.6ZM87.2219 183.068C87.2219 183.441 87.3619 183.726 87.6419 183.922C87.9312 184.109 88.2766 184.202 88.6779 184.202C89.6019 184.202 90.3672 183.875 90.9739 183.222V181.99C90.3392 181.859 89.7699 181.794 89.2659 181.794C88.6966 181.794 88.2112 181.897 87.8099 182.102C87.4179 182.298 87.2219 182.62 87.2219 183.068ZM95.1871 179.47C95.4485 179.031 95.8498 178.691 96.3911 178.448C96.9325 178.196 97.4971 178.093 98.0851 178.14V179.26C97.4318 179.185 96.8531 179.293 96.3491 179.582C95.8545 179.862 95.5045 180.273 95.2991 180.814V185H94.1791V178.28H95.1871V179.47ZM104.506 175.2H105.626V185H104.618V183.88C103.862 184.739 102.956 185.168 101.902 185.168C100.94 185.168 100.138 184.832 99.4937 184.16C98.859 183.488 98.5417 182.648 98.5417 181.64C98.5417 180.632 98.859 179.792 99.4937 179.12C100.138 178.448 100.94 178.112 101.902 178.112C102.966 178.112 103.834 178.504 104.506 179.288V175.2ZM104.506 180.8C104.3 180.333 103.978 179.941 103.54 179.624C103.101 179.307 102.597 179.148 102.028 179.148C101.356 179.148 100.791 179.377 100.334 179.834C99.8857 180.291 99.6617 180.893 99.6617 181.64C99.6617 182.387 99.8857 182.989 100.334 183.446C100.791 183.903 101.356 184.132 102.028 184.132C102.597 184.132 103.101 183.973 103.54 183.656C103.978 183.339 104.3 182.947 104.506 182.48V180.8Z" fill="#111111"/>
<path d="M247.419 180.17C247.419 179.087 247.676 178.149 248.189 177.356C248.703 176.553 249.342 175.965 250.107 175.592C250.873 175.219 251.694 175.032 252.571 175.032C253.579 175.032 254.499 175.251 255.329 175.69V176.866C254.62 176.39 253.766 176.152 252.767 176.152C251.647 176.152 250.677 176.497 249.855 177.188C249.034 177.869 248.619 178.863 248.609 180.17C248.609 181.001 248.819 181.719 249.239 182.326C249.669 182.933 250.191 183.371 250.807 183.642C251.433 183.913 252.1 184.048 252.809 184.048C253.864 184.048 254.727 183.81 255.399 183.334V184.51C254.55 184.949 253.603 185.168 252.557 185.168C251.932 185.168 251.316 185.061 250.709 184.846C250.103 184.622 249.552 184.309 249.057 183.908C248.563 183.497 248.166 182.97 247.867 182.326C247.569 181.673 247.419 180.954 247.419 180.17ZM256.902 175.2H258.022V179.134C258.283 178.845 258.615 178.602 259.016 178.406C259.427 178.21 259.865 178.112 260.332 178.112C261.144 178.112 261.811 178.369 262.334 178.882C262.866 179.386 263.132 180.044 263.132 180.856V185H262.012V180.996C262.012 180.389 261.844 179.932 261.508 179.624C261.181 179.307 260.747 179.148 260.206 179.148C259.347 179.148 258.619 179.596 258.022 180.492V185H256.902V175.2ZM270.509 183.6C270.509 183.945 270.681 184.118 271.027 184.118C271.176 184.118 271.349 184.085 271.545 184.02V184.93C271.265 185.033 270.985 185.084 270.705 185.084C270.061 185.084 269.65 184.813 269.473 184.272C268.754 184.869 267.881 185.168 266.855 185.168C266.201 185.168 265.641 184.995 265.175 184.65C264.717 184.295 264.489 183.787 264.489 183.124C264.489 182.331 264.783 181.757 265.371 181.402C265.968 181.038 266.687 180.856 267.527 180.856C268.143 180.856 268.763 180.926 269.389 181.066V180.828C269.389 180.315 269.221 179.909 268.885 179.61C268.549 179.302 268.077 179.148 267.471 179.148C266.621 179.148 265.805 179.316 265.021 179.652V178.56C265.898 178.261 266.752 178.112 267.583 178.112C268.497 178.112 269.211 178.359 269.725 178.854C270.247 179.339 270.509 180.044 270.509 180.968V183.6ZM265.637 183.068C265.637 183.441 265.777 183.726 266.057 183.922C266.346 184.109 266.691 184.202 267.093 184.202C268.017 184.202 268.782 183.875 269.389 183.222V181.99C268.754 181.859 268.185 181.794 267.681 181.794C267.111 181.794 266.626 181.897 266.225 182.102C265.833 182.298 265.637 182.62 265.637 183.068ZM273.602 179.274C273.845 178.947 274.181 178.672 274.61 178.448C275.049 178.224 275.52 178.112 276.024 178.112C276.836 178.112 277.503 178.369 278.026 178.882C278.558 179.386 278.824 180.044 278.824 180.856V185H277.704V180.996C277.704 180.389 277.536 179.932 277.2 179.624C276.873 179.307 276.439 179.148 275.898 179.148C275.039 179.148 274.311 179.596 273.714 180.492V185H272.594V178.28H273.602V179.274ZM281.231 184.16C280.596 183.488 280.279 182.648 280.279 181.64C280.279 180.632 280.596 179.792 281.231 179.12C281.875 178.448 282.677 178.112 283.639 178.112C284.693 178.112 285.599 178.541 286.355 179.4V178.28H287.363V185C287.363 186.083 287.008 186.895 286.299 187.436C285.589 187.977 284.721 188.248 283.695 188.248C282.696 188.248 281.786 188.038 280.965 187.618V186.526C281.777 186.983 282.64 187.212 283.555 187.212C284.348 187.212 284.997 187.035 285.501 186.68C286.005 186.335 286.252 185.775 286.243 185V183.964C285.589 184.767 284.721 185.168 283.639 185.168C282.677 185.168 281.875 184.832 281.231 184.16ZM286.243 180.8C286.037 180.333 285.715 179.941 285.277 179.624C284.838 179.307 284.334 179.148 283.765 179.148C283.093 179.148 282.528 179.377 282.071 179.834C281.623 180.291 281.399 180.893 281.399 181.64C281.399 182.387 281.623 182.989 282.071 183.446C282.528 183.903 283.093 184.132 283.765 184.132C284.334 184.132 284.838 183.987 285.277 183.698C285.715 183.399 286.037 183.04 286.243 182.62V180.8ZM288.904 181.64C288.904 180.539 289.24 179.675 289.912 179.05C290.593 178.425 291.373 178.112 292.25 178.112C293.071 178.112 293.748 178.317 294.28 178.728C294.821 179.139 295.176 179.647 295.344 180.254C295.512 180.851 295.521 181.477 295.372 182.13H290.024C290.089 182.793 290.383 183.292 290.906 183.628C291.429 183.964 292.059 184.132 292.796 184.132C293.617 184.132 294.355 183.95 295.008 183.586V184.678C294.383 185.005 293.589 185.168 292.628 185.168C291.564 185.168 290.677 184.865 289.968 184.258C289.259 183.651 288.904 182.779 288.904 181.64ZM294.378 181.15C294.406 180.954 294.392 180.749 294.336 180.534C294.28 180.319 294.177 180.105 294.028 179.89C293.888 179.675 293.669 179.498 293.37 179.358C293.071 179.218 292.721 179.148 292.32 179.148C291.713 179.148 291.186 179.325 290.738 179.68C290.299 180.035 290.061 180.525 290.024 181.15H294.378Z" fill="#111111"/>
<g filter="url(#filter2_b_314_57331)">
<rect x="24" y="221" width="288" height="48" rx="10" fill="white"/>
<rect x="24.5" y="221.5" width="287" height="47" rx="9.5" stroke="#111111"/>
</g>
<path fill-rule="evenodd" clip-rule="evenodd" d="M42.0665 237.035C41.7115 237.088 41.1014 237.379 40.8148 237.633C40.541 237.876 40.2741 238.274 40.1193 238.669L40 238.975V244.995V251.016L40.1193 251.321C40.2742 251.717 40.5418 252.116 40.8122 252.353C41.1498 252.65 41.7156 252.905 42.1605 252.962C42.4108 252.995 45.7817 253.006 52.2583 252.997L61.9804 252.983L62.2857 252.874C62.6667 252.737 63.1693 252.407 63.3912 252.149C63.6058 251.899 63.8 251.555 63.9121 251.226C63.9961 250.98 64 250.708 64 244.995C64 239.282 63.9961 239.01 63.9121 238.764C63.6414 237.97 63.0805 237.403 62.2782 237.114L61.9804 237.007L52.1644 237.001C46.697 236.997 42.2235 237.012 42.0665 237.035ZM62.0712 238.111C62.6373 238.322 62.9768 238.838 63.0237 239.559L63.0511 239.982H52.0004H40.9498L40.9737 239.572C41.0087 238.972 41.2123 238.559 41.6067 238.289C42.0246 238.002 41.2819 238.021 51.9865 238.018C61.7985 238.014 61.8129 238.014 62.0712 238.111ZM62.9902 241.997V242.981H52H41.0098V241.997V241.013H52H62.9902V241.997ZM63.0272 247.42L63.0137 250.828L62.8893 251.093C62.7378 251.415 62.4733 251.688 62.1647 251.839L61.9335 251.953H52H42.0665L41.8353 251.839C41.5267 251.688 41.2622 251.415 41.1107 251.093L40.9863 250.828L40.9731 247.42L40.9599 244.011H52.0003H63.0407L63.0272 247.42ZM58.1871 246.028C57.7082 246.147 57.283 246.514 57.1194 246.95C57.029 247.191 57.0212 247.293 57.0344 248.061C57.0478 248.846 57.0572 248.924 57.1627 249.138C57.3146 249.446 57.5877 249.71 57.9109 249.861C58.1652 249.98 58.2091 249.985 58.9746 249.985C59.6278 249.985 59.8179 249.969 60.0201 249.899C60.3488 249.785 60.7368 249.428 60.8823 249.107C60.9872 248.876 60.9941 248.806 60.9941 247.994C60.9941 247.181 60.9872 247.111 60.8823 246.88C60.7435 246.574 60.3523 246.207 60.0447 246.094C59.7846 245.999 58.4893 245.953 58.1871 246.028ZM43.2336 247.065C42.9617 247.196 42.9159 247.637 43.1512 247.857L43.2717 247.97L46.4265 247.984C49.2818 247.997 49.5952 247.991 49.7283 247.921C50.0147 247.771 50.0732 247.376 49.8431 247.147L49.7059 247.01L46.5203 247.013C44.4154 247.015 43.3004 247.033 43.2336 247.065ZM59.791 247.086C59.9746 247.214 60.0313 247.429 60.0313 247.994C60.0313 248.905 59.9583 248.978 59.0368 248.978C58.0528 248.978 58.0117 248.938 58.0117 247.994C58.0117 247.333 58.058 247.164 58.2663 247.063C58.32 247.037 58.6604 247.015 59.0228 247.013C59.5595 247.01 59.7019 247.024 59.791 247.086ZM43.279 249.046C43.1225 249.114 42.9824 249.325 42.9824 249.493C42.9824 249.666 43.1241 249.873 43.2893 249.942C43.5241 250.04 49.436 250.041 49.6705 249.943C49.8725 249.859 49.9804 249.702 49.9804 249.493C49.9804 249.284 49.8725 249.127 49.6705 249.043C49.4396 248.947 43.5013 248.95 43.279 249.046Z" fill="#111111"/>
<path d="M80 233V257" stroke="#111111"/>
<path d="M29.19 121.2H35.952V122.67H30.786V125.54H35.546V127.024H30.786V131H29.19V121.2ZM38.2371 125.386C38.4984 124.966 38.8857 124.639 39.3991 124.406C39.9124 124.173 40.4677 124.084 41.0651 124.14V125.61C40.4677 125.526 39.9264 125.605 39.4411 125.848C38.9557 126.091 38.6104 126.45 38.4051 126.926V131H36.9071V124.28H38.2371V125.386ZM42.5943 130.244C41.885 129.619 41.5303 128.751 41.5303 127.64C41.5303 126.529 41.885 125.661 42.5943 125.036C43.313 124.411 44.1717 124.098 45.1703 124.098C46.1783 124.098 47.037 124.411 47.7463 125.036C48.4557 125.661 48.8103 126.529 48.8103 127.64C48.8103 128.751 48.4557 129.619 47.7463 130.244C47.037 130.869 46.1783 131.182 45.1703 131.182C44.1717 131.182 43.313 130.869 42.5943 130.244ZM46.6963 129.222C47.0883 128.821 47.2843 128.293 47.2843 127.64C47.2843 126.987 47.0883 126.464 46.6963 126.072C46.3043 125.671 45.7957 125.47 45.1703 125.47C44.5357 125.47 44.0223 125.671 43.6303 126.072C43.2383 126.464 43.0423 126.987 43.0423 127.64C43.0423 128.293 43.2383 128.821 43.6303 129.222C44.0223 129.614 44.5357 129.81 45.1703 129.81C45.7957 129.81 46.3043 129.614 46.6963 129.222ZM51.6908 131H50.1928V124.28H51.5228V125.12C52.1295 124.439 52.8762 124.098 53.7628 124.098C54.7335 124.098 55.4335 124.457 55.8628 125.176C56.5815 124.457 57.3655 124.098 58.2148 124.098C59.0548 124.098 59.6895 124.359 60.1188 124.882C60.5482 125.405 60.7628 126.044 60.7628 126.8V131H59.2648V126.842C59.2648 126.413 59.1435 126.072 58.9008 125.82C58.6675 125.559 58.3455 125.428 57.9348 125.428C57.3282 125.428 56.7728 125.731 56.2688 126.338C56.2875 126.543 56.2968 126.697 56.2968 126.8V131H54.7988V126.842C54.7988 126.413 54.6775 126.072 54.4348 125.82C54.2015 125.559 53.8795 125.428 53.4688 125.428C52.8248 125.428 52.2322 125.773 51.6908 126.464V131ZM65.9865 121.2H69.4165C71.0965 121.2 72.3752 121.648 73.2525 122.544C74.1298 123.44 74.5685 124.625 74.5685 126.1C74.5685 127.575 74.1298 128.76 73.2525 129.656C72.3752 130.552 71.0965 131 69.4165 131H65.9865V121.2ZM72.0345 128.662C72.6412 128.065 72.9445 127.211 72.9445 126.1C72.9445 124.989 72.6412 124.14 72.0345 123.552C71.4372 122.955 70.5598 122.656 69.4025 122.656H67.5825V129.544H69.4025C70.5598 129.544 71.4372 129.25 72.0345 128.662ZM81.6717 129.446C81.6717 129.773 81.8351 129.936 82.1617 129.936C82.2737 129.936 82.4231 129.908 82.6097 129.852V130.93C82.3297 131.042 82.0124 131.098 81.6577 131.098C80.9857 131.098 80.5377 130.837 80.3137 130.314C79.5951 130.893 78.7504 131.182 77.7797 131.182C77.1264 131.182 76.5711 131.005 76.1137 130.65C75.6564 130.286 75.4277 129.777 75.4277 129.124C75.4277 128.34 75.7217 127.771 76.3097 127.416C76.8977 127.052 77.6024 126.87 78.4237 126.87C78.9651 126.87 79.5484 126.935 80.1737 127.066V126.828C80.1737 126.399 80.0197 126.053 79.7117 125.792C79.4037 125.531 78.9697 125.4 78.4097 125.4C77.5791 125.4 76.7717 125.573 75.9877 125.918V124.546C76.8651 124.247 77.7237 124.098 78.5637 124.098C79.5437 124.098 80.3044 124.341 80.8457 124.826C81.3964 125.311 81.6717 126.049 81.6717 127.038V129.446ZM78.7177 127.92C78.2231 127.92 77.8077 128.009 77.4717 128.186C77.1357 128.363 76.9677 128.643 76.9677 129.026C76.9677 129.343 77.0891 129.591 77.3317 129.768C77.5744 129.936 77.8731 130.02 78.2277 130.02C78.9931 130.02 79.6417 129.754 80.1737 129.222V128.088C79.6324 127.976 79.1471 127.92 78.7177 127.92ZM88.1455 124.28H89.7835L86.8995 131H85.3175L82.4475 124.28H84.0715L86.1155 129.376L88.1455 124.28ZM90.1103 127.64C90.1103 127.061 90.213 126.539 90.4183 126.072C90.6237 125.596 90.8943 125.223 91.2303 124.952C91.5663 124.672 91.9303 124.462 92.3223 124.322C92.7143 124.173 93.111 124.098 93.5123 124.098C94.0257 124.098 94.4877 124.177 94.8983 124.336C95.3183 124.495 95.6543 124.709 95.9063 124.98C96.1583 125.251 96.3637 125.563 96.5223 125.918C96.681 126.273 96.765 126.646 96.7743 127.038C96.7837 127.421 96.751 127.808 96.6763 128.2H91.6223C91.697 128.769 91.977 129.199 92.4623 129.488C92.9477 129.768 93.5263 129.908 94.1983 129.908C94.9637 129.908 95.673 129.749 96.3263 129.432V130.72C95.6823 131.028 94.8797 131.182 93.9183 131.182C92.8263 131.182 91.9163 130.874 91.1883 130.258C90.4697 129.642 90.1103 128.769 90.1103 127.64ZM95.3323 127.08C95.3883 126.697 95.2717 126.315 94.9823 125.932C94.7023 125.54 94.2357 125.344 93.5823 125.344C93.0503 125.344 92.593 125.498 92.2103 125.806C91.837 126.114 91.6363 126.539 91.6083 127.08H95.3323ZM100.203 121.2H108.281V122.67H105.047V131H103.451V122.67H100.203V121.2ZM109.352 121.2H110.85V125.022C111.447 124.406 112.17 124.098 113.02 124.098C113.86 124.098 114.532 124.355 115.036 124.868C115.54 125.372 115.792 126.03 115.792 126.842V131H114.294V127.038C114.294 126.515 114.149 126.119 113.86 125.848C113.57 125.568 113.192 125.428 112.726 125.428C111.988 125.428 111.363 125.801 110.85 126.548V131H109.352V121.2ZM123.238 129.446C123.238 129.773 123.401 129.936 123.728 129.936C123.84 129.936 123.989 129.908 124.176 129.852V130.93C123.896 131.042 123.579 131.098 123.224 131.098C122.552 131.098 122.104 130.837 121.88 130.314C121.161 130.893 120.317 131.182 119.346 131.182C118.693 131.182 118.137 131.005 117.68 130.65C117.223 130.286 116.994 129.777 116.994 129.124C116.994 128.34 117.288 127.771 117.876 127.416C118.464 127.052 119.169 126.87 119.99 126.87C120.531 126.87 121.115 126.935 121.74 127.066V126.828C121.74 126.399 121.586 126.053 121.278 125.792C120.97 125.531 120.536 125.4 119.976 125.4C119.145 125.4 118.338 125.573 117.554 125.918V124.546C118.431 124.247 119.29 124.098 120.13 124.098C121.11 124.098 121.871 124.341 122.412 124.826C122.963 125.311 123.238 126.049 123.238 127.038V129.446ZM120.284 127.92C119.789 127.92 119.374 128.009 119.038 128.186C118.702 128.363 118.534 128.643 118.534 129.026C118.534 129.343 118.655 129.591 118.898 129.768C119.141 129.936 119.439 130.02 119.794 130.02C120.559 130.02 121.208 129.754 121.74 129.222V128.088C121.199 127.976 120.713 127.92 120.284 127.92ZM126.637 131H125.139V124.28H126.469V125.12C127.076 124.439 127.823 124.098 128.709 124.098C129.68 124.098 130.38 124.457 130.809 125.176C131.528 124.457 132.312 124.098 133.161 124.098C134.001 124.098 134.636 124.359 135.065 124.882C135.495 125.405 135.709 126.044 135.709 126.8V131H134.211V126.842C134.211 126.413 134.09 126.072 133.847 125.82C133.614 125.559 133.292 125.428 132.881 125.428C132.275 125.428 131.719 125.731 131.215 126.338C131.234 126.543 131.243 126.697 131.243 126.8V131H129.745V126.842C129.745 126.413 129.624 126.072 129.381 125.82C129.148 125.559 128.826 125.428 128.415 125.428C127.771 125.428 127.179 125.773 126.637 126.464V131Z" fill="#888888"/>
<circle cx="288" cy="88" r="23.5" fill="white" stroke="#111111"/>
<path d="M281.349 80.2H286.869C289.733 80.2 291.925 80.976 293.445 82.528C294.981 84.064 295.749 86.088 295.749 88.6C295.749 91.112 294.981 93.144 293.445 94.696C291.925 96.232 289.733 97 286.869 97H281.349V80.2ZM291.957 93.376C293.125 92.24 293.709 90.648 293.709 88.6C293.709 86.552 293.125 84.96 291.957 83.824C290.805 82.688 289.109 82.12 286.869 82.12H283.365V95.08H286.869C289.109 95.08 290.805 94.512 291.957 93.376Z" fill="#111111"/>
<defs>
<filter id="filter0_b_314_57331" x="-10" y="-10" width="356" height="379" filterUnits="userSpaceOnUse" color-interpolation-filters="sRGB">
<feFlood flood-opacity="0" result="BackgroundImageFix"/>
<feGaussianBlur in="BackgroundImage" stdDeviation="5"/>
<feComposite in2="SourceAlpha" operator="in" result="effect1_backgroundBlur_314_57331"/>
<feBlend mode="normal" in="SourceGraphic" in2="effect1_backgroundBlur_314_57331" result="shape"/>
</filter>
<filter id="filter1_b_314_57331" x="14" y="147" width="308" height="68" filterUnits="userSpaceOnUse" color-interpolation-filters="sRGB">
<feFlood flood-opacity="0" result="BackgroundImageFix"/>
<feGaussianBlur in="BackgroundImage" stdDeviation="5"/>
<feComposite in2="SourceAlpha" operator="in" result="effect1_backgroundBlur_314_57331"/>
<feBlend mode="normal" in="SourceGraphic" in2="effect1_backgroundBlur_314_57331" result="shape"/>
</filter>
<filter id="filter2_b_314_57331" x="14" y="211" width="308" height="68" filterUnits="userSpaceOnUse" color-interpolation-filters="sRGB">
<feFlood flood-opacity="0" result="BackgroundImageFix"/>
<feGaussianBlur in="BackgroundImage" stdDeviation="5"/>
<feComposite in2="SourceAlpha" operator="in" result="effect1_backgroundBlur_314_57331"/>
<feBlend mode="normal" in="SourceGraphic" in2="effect1_backgroundBlur_314_57331" result="shape"/>
</filter>
</defs>
</svg>
