<svg width="336" height="335" viewBox="0 0 336 335" fill="none" xmlns="http://www.w3.org/2000/svg">
<rect x="0.5" y="0.5" width="335" height="334" rx="11.5" fill="white" stroke="#111111"/>
<path d="M25.8 66.2H32.136C36.968 66.2 39.384 68.08 39.384 71.84C39.384 75.6 36.968 77.48 32.136 77.48H29.4V83H25.8V66.2ZM32.304 74.312C34.576 74.312 35.712 73.488 35.712 71.84C35.712 70.192 34.576 69.368 32.304 69.368H29.4V74.312H32.304ZM51.2979 80.024C51.2979 80.536 51.5699 80.792 52.1139 80.792C52.3379 80.792 52.5459 80.76 52.7379 80.696V82.88C52.1299 83.104 51.5139 83.216 50.8899 83.216C49.6739 83.216 48.8259 82.784 48.3459 81.92C47.1459 82.864 45.7619 83.336 44.1939 83.336C43.0579 83.336 42.0979 83.024 41.3139 82.4C40.5459 81.76 40.1619 80.896 40.1619 79.808C40.1619 78.896 40.4339 78.136 40.9779 77.528C41.5219 76.92 42.1539 76.512 42.8739 76.304C43.5939 76.08 44.3779 75.968 45.2259 75.968C46.1699 75.968 47.0819 76.072 47.9619 76.28V75.872C47.9619 75.28 47.7299 74.808 47.2659 74.456C46.8019 74.104 46.1299 73.928 45.2499 73.928C43.9699 73.928 42.6099 74.216 41.1699 74.792V71.912C42.7059 71.4 44.1939 71.144 45.6339 71.144C49.4099 71.144 51.2979 72.88 51.2979 76.352V80.024ZM45.9939 77.96C45.3059 77.96 44.7299 78.088 44.2659 78.344C43.8019 78.6 43.5699 79 43.5699 79.544C43.5699 79.96 43.7379 80.304 44.0739 80.576C44.4259 80.832 44.8579 80.96 45.3699 80.96C46.3779 80.96 47.2419 80.648 47.9619 80.024V78.224C47.2259 78.048 46.5699 77.96 45.9939 77.96ZM59.1084 79.256L61.9644 71.48H65.4204L60.3084 84.392C59.1724 87.192 57.5164 88.592 55.3404 88.592C54.8764 88.592 54.2764 88.504 53.5404 88.328V85.568C54.0684 85.68 54.5244 85.736 54.9084 85.736C56.1244 85.736 57.0364 84.896 57.6444 83.216L57.6684 83.168L52.2204 71.48H55.7484L59.1084 79.256ZM70.4239 83H67.0879V71.48H70.0399V72.824C70.4079 72.392 70.9119 72.008 71.5519 71.672C72.1919 71.32 72.9119 71.144 73.7119 71.144C75.2959 71.144 76.4719 71.712 77.2399 72.848C78.4079 71.712 79.6879 71.144 81.0799 71.144C82.5519 71.144 83.6319 71.608 84.3199 72.536C85.0239 73.448 85.3759 74.504 85.3759 75.704V83H82.0639V75.92C82.0639 75.328 81.8959 74.864 81.5599 74.528C81.2399 74.192 80.8079 74.024 80.2639 74.024C79.4159 74.024 78.6559 74.408 77.9839 75.176C77.9999 75.288 78.0079 75.464 78.0079 75.704V83H74.6959V75.92C74.6959 75.328 74.5279 74.864 74.1919 74.528C73.8719 74.192 73.4399 74.024 72.8959 74.024C71.9519 74.024 71.1279 74.488 70.4239 75.416V83ZM87.4399 77.24C87.4399 76.2 87.6239 75.28 87.9919 74.48C88.3599 73.664 88.8399 73.024 89.4319 72.56C90.0399 72.096 90.6719 71.744 91.3279 71.504C91.9999 71.264 92.6799 71.144 93.3679 71.144C94.5199 71.144 95.5119 71.36 96.3439 71.792C97.1919 72.224 97.8159 72.784 98.2159 73.472C98.6159 74.144 98.8879 74.912 99.0319 75.776C99.1919 76.624 99.1519 77.472 98.9119 78.32H90.7999C90.9759 79.12 91.4399 79.72 92.1919 80.12C92.9439 80.504 93.8319 80.696 94.8559 80.696C96.1199 80.696 97.2799 80.464 98.3359 80V82.616C97.1999 83.096 95.7919 83.336 94.1119 83.336C92.1919 83.336 90.5999 82.8 89.3359 81.728C88.0719 80.656 87.4399 79.16 87.4399 77.24ZM95.9119 76.16C95.9919 75.632 95.8399 75.088 95.4559 74.528C95.0719 73.968 94.4159 73.688 93.4879 73.688C92.7519 73.688 92.1199 73.912 91.5919 74.36C91.0639 74.792 90.7919 75.392 90.7759 76.16H95.9119ZM104.165 72.944C105.205 71.744 106.485 71.144 108.005 71.144C109.477 71.144 110.621 71.592 111.437 72.488C112.269 73.368 112.685 74.496 112.685 75.872V83H109.349V76.304C109.349 75.552 109.141 74.984 108.725 74.6C108.325 74.216 107.789 74.024 107.117 74.024C106.077 74.024 105.221 74.512 104.549 75.488V83H101.213V71.48H104.165V72.944ZM116.139 68.12L119.451 67.328V71.48H123.099V74.288H119.451V78.8C119.451 79.952 120.067 80.528 121.299 80.528C122.035 80.528 122.731 80.4 123.387 80.144V82.832C122.427 83.168 121.395 83.336 120.291 83.336C119.075 83.336 118.075 83.024 117.291 82.4C116.523 81.776 116.139 80.792 116.139 79.448V74.288H114.195V71.48H116.139V68.12ZM124.803 74.696C124.803 73.464 125.259 72.568 126.171 72.008C127.083 71.432 128.227 71.144 129.603 71.144C131.091 71.144 132.507 71.472 133.851 72.128V74.864C133.355 74.528 132.723 74.248 131.955 74.024C131.203 73.8 130.491 73.688 129.819 73.688C128.747 73.688 128.211 73.992 128.211 74.6C128.211 74.952 128.435 75.24 128.883 75.464C129.331 75.688 129.875 75.888 130.515 76.064C131.155 76.224 131.787 76.424 132.411 76.664C133.051 76.904 133.595 77.288 134.043 77.816C134.491 78.344 134.715 79 134.715 79.784C134.715 80.648 134.459 81.352 133.947 81.896C133.451 82.44 132.827 82.816 132.075 83.024C131.339 83.232 130.475 83.336 129.483 83.336C127.643 83.336 126.115 82.976 124.899 82.256V79.496C126.147 80.312 127.611 80.72 129.291 80.72C130.635 80.72 131.307 80.432 131.307 79.856C131.307 79.52 131.083 79.24 130.635 79.016C130.187 78.792 129.643 78.592 129.003 78.416C128.379 78.24 127.747 78.032 127.107 77.792C126.467 77.536 125.923 77.152 125.475 76.64C125.027 76.112 124.803 75.464 124.803 74.696Z" fill="#111111"/>
<path d="M40 35.9923L40 33.9923L27.7903 33.9923L32.4583 29.3692L31.0602 28L24 34.9923L31.0602 42L32.4583 40.6L27.7903 35.9923L40 35.9923Z" fill="#111111"/>
<rect x="24.5" y="112.5" width="287" height="31" rx="6.5" fill="white" stroke="#111111"/>
<path fill-rule="evenodd" clip-rule="evenodd" d="M38.5606 120.034C37.1715 120.21 35.8583 120.855 34.8615 121.853C32.9756 123.74 32.4667 126.6 33.5923 128.988C34.5224 130.961 36.3773 132.326 38.5075 132.606C40.0881 132.813 41.7066 132.407 42.9986 131.479C43.1521 131.368 43.2888 131.278 43.3023 131.278C43.3158 131.278 44.3609 132.312 45.6248 133.575C48.047 135.997 48.0496 135.999 48.3293 136C48.4673 136 48.7372 135.887 48.8199 135.794C48.91 135.692 49 135.46 49 135.329C49 135.049 48.9977 135.047 46.5772 132.622C45.3144 131.358 44.2812 130.313 44.2812 130.302C44.2812 130.29 44.3725 130.151 44.4842 129.993C45.2609 128.895 45.6544 127.67 45.656 126.345C45.6581 124.631 45.001 123.046 43.7892 121.841C42.8349 120.892 41.657 120.29 40.3112 120.064C39.8866 119.993 39.0043 119.978 38.5606 120.034ZM40.0611 121.379C41.4866 121.608 42.7035 122.379 43.4761 123.543C44.0507 124.409 44.3146 125.274 44.3181 126.305C44.3198 126.801 44.2844 127.102 44.1706 127.557C43.7305 129.316 42.3205 130.727 40.5621 131.167C40.1073 131.281 39.8068 131.317 39.3109 131.315C38.2809 131.311 37.4159 131.047 36.551 130.472C35.1705 129.555 34.3412 128 34.3407 126.328C34.3404 125.487 34.5128 124.782 34.9041 124.025C35.5362 122.801 36.6587 121.89 38.0136 121.501C38.5848 121.337 39.4705 121.284 40.0611 121.379Z" fill="#111111"/>
<rect x="24.5" y="195.5" width="287" height="115" rx="6.5" fill="white" stroke="#111111"/>
<rect x="40.5" y="211.5" width="87" height="23" rx="4.5" fill="white" stroke="#111111"/>
<rect x="136.5" y="211.5" width="39" height="23" rx="4.5" fill="white" stroke="#111111"/>
<rect x="72" y="219" width="48" height="8" fill="#B4D2F8"/>
<rect x="144" y="219" width="24" height="8" fill="#B4D2F8"/>
<path fill-rule="evenodd" clip-rule="evenodd" d="M53.8062 217.029C53.611 217.102 53.459 217.272 53.4147 217.467C53.3991 217.535 53.3904 218.423 53.39 219.983L53.3894 222.393L50.9178 222.4C48.7121 222.405 48.4374 222.41 48.364 222.444C48.2425 222.499 48.1364 222.597 48.0641 222.719C48.0097 222.812 48 222.855 48 223.004C48 223.154 48.0097 223.197 48.0641 223.289C48.1364 223.412 48.2425 223.51 48.364 223.565C48.4374 223.599 48.7121 223.604 50.9178 223.609L53.3894 223.616V226.019C53.3894 227.668 53.3975 228.46 53.4151 228.542C53.4472 228.692 53.5559 228.837 53.7054 228.929C53.8067 228.992 53.8411 229 53.9982 229C54.1497 229 54.1923 228.99 54.2852 228.936C54.4081 228.864 54.5058 228.758 54.5613 228.636C54.5948 228.563 54.5995 228.289 54.6053 226.085L54.6118 223.616L57.0828 223.609C59.288 223.604 59.5627 223.599 59.636 223.565C59.7575 223.51 59.8636 223.412 59.9359 223.289C59.9903 223.197 60 223.154 60 223.004C60 222.855 59.9903 222.812 59.9359 222.719C59.8636 222.597 59.7575 222.499 59.636 222.444C59.5627 222.41 59.288 222.405 57.0828 222.4L54.6118 222.393L54.6053 219.924C54.5982 217.215 54.6076 217.39 54.459 217.214C54.3074 217.034 54.0148 216.951 53.8062 217.029Z" fill="#111111"/>
<rect x="33" y="164" width="48" height="8" fill="#B4D2F8"/>
<rect x="201" y="164" width="48" height="8" fill="#B4D2F8"/>
<rect x="97.5" y="156.5" width="87" height="23" rx="4.5" fill="white" stroke="#111111"/>
<path d="M113.464 172H112.288V162.2H116.124C116.768 162.2 117.351 162.289 117.874 162.466C118.397 162.634 118.845 162.951 119.218 163.418C119.601 163.875 119.792 164.459 119.792 165.168C119.792 166.008 119.549 166.661 119.064 167.128C118.579 167.595 117.949 167.898 117.174 168.038L120.492 172H119.022L115.816 168.136H113.464V172ZM113.464 163.32V167.016H116.18C116.871 167.016 117.445 166.876 117.902 166.596C118.369 166.307 118.602 165.831 118.602 165.168C118.602 164.496 118.369 164.02 117.902 163.74C117.445 163.46 116.871 163.32 116.18 163.32H113.464ZM120.926 168.64C120.926 167.539 121.262 166.675 121.934 166.05C122.615 165.425 123.394 165.112 124.272 165.112C125.093 165.112 125.77 165.317 126.302 165.728C126.843 166.139 127.198 166.647 127.366 167.254C127.534 167.851 127.543 168.477 127.394 169.13H122.046C122.111 169.793 122.405 170.292 122.928 170.628C123.45 170.964 124.08 171.132 124.818 171.132C125.639 171.132 126.376 170.95 127.03 170.586V171.678C126.404 172.005 125.611 172.168 124.65 172.168C123.586 172.168 122.699 171.865 121.99 171.258C121.28 170.651 120.926 169.779 120.926 168.64ZM126.4 168.15C126.428 167.954 126.414 167.749 126.358 167.534C126.302 167.319 126.199 167.105 126.05 166.89C125.91 166.675 125.69 166.498 125.392 166.358C125.093 166.218 124.743 166.148 124.342 166.148C123.735 166.148 123.208 166.325 122.76 166.68C122.321 167.035 122.083 167.525 122.046 168.15H126.4ZM129.547 171.16C128.913 170.488 128.595 169.648 128.595 168.64C128.595 167.632 128.913 166.792 129.547 166.12C130.191 165.448 130.994 165.112 131.955 165.112C133.01 165.112 133.915 165.541 134.671 166.4V165.28H135.679V175.08H134.559V170.992C133.887 171.776 133.019 172.168 131.955 172.168C130.994 172.168 130.191 171.832 129.547 171.16ZM134.559 167.8C134.354 167.333 134.032 166.941 133.593 166.624C133.155 166.307 132.651 166.148 132.081 166.148C131.409 166.148 130.845 166.377 130.387 166.834C129.939 167.291 129.715 167.893 129.715 168.64C129.715 169.387 129.939 169.989 130.387 170.446C130.845 170.903 131.409 171.132 132.081 171.132C132.651 171.132 133.155 170.973 133.593 170.656C134.032 170.339 134.354 169.947 134.559 169.48V167.8ZM142.779 165.28H143.899V172H142.891V171.006C142.648 171.333 142.307 171.608 141.869 171.832C141.439 172.056 140.973 172.168 140.469 172.168C139.601 172.168 138.915 171.921 138.411 171.426C137.916 170.922 137.669 170.255 137.669 169.424V165.28H138.789V169.284C138.789 170.516 139.391 171.132 140.595 171.132C141.453 171.132 142.181 170.684 142.779 169.788V165.28ZM145.508 168.64C145.508 167.539 145.844 166.675 146.516 166.05C147.197 165.425 147.976 165.112 148.854 165.112C149.675 165.112 150.352 165.317 150.884 165.728C151.425 166.139 151.78 166.647 151.948 167.254C152.116 167.851 152.125 168.477 151.976 169.13H146.628C146.693 169.793 146.987 170.292 147.51 170.628C148.032 170.964 148.662 171.132 149.4 171.132C150.221 171.132 150.958 170.95 151.612 170.586V171.678C150.986 172.005 150.193 172.168 149.232 172.168C148.168 172.168 147.281 171.865 146.572 171.258C145.862 170.651 145.508 169.779 145.508 168.64ZM150.982 168.15C151.01 167.954 150.996 167.749 150.94 167.534C150.884 167.319 150.781 167.105 150.632 166.89C150.492 166.675 150.272 166.498 149.974 166.358C149.675 166.218 149.325 166.148 148.924 166.148C148.317 166.148 147.79 166.325 147.342 166.68C146.903 167.035 146.665 167.525 146.628 168.15H150.982ZM153.248 167.044C153.248 166.4 153.495 165.919 153.99 165.602C154.494 165.275 155.1 165.112 155.81 165.112C156.678 165.112 157.471 165.303 158.19 165.686V166.75C157.91 166.563 157.555 166.414 157.126 166.302C156.696 166.181 156.281 166.12 155.88 166.12C155.469 166.12 155.114 166.195 154.816 166.344C154.526 166.484 154.382 166.708 154.382 167.016C154.382 167.24 154.484 167.436 154.69 167.604C154.904 167.763 155.17 167.884 155.488 167.968C155.805 168.052 156.146 168.159 156.51 168.29C156.883 168.411 157.228 168.542 157.546 168.682C157.863 168.813 158.124 169.018 158.33 169.298C158.544 169.569 158.652 169.895 158.652 170.278C158.652 170.931 158.39 171.412 157.868 171.72C157.345 172.019 156.682 172.168 155.88 172.168C154.825 172.168 153.957 171.949 153.276 171.51V170.418C153.985 170.894 154.834 171.132 155.824 171.132C156.962 171.132 157.532 170.857 157.532 170.306C157.532 170.054 157.382 169.844 157.084 169.676C156.794 169.499 156.44 169.354 156.02 169.242C155.6 169.121 155.18 168.985 154.76 168.836C154.34 168.687 153.98 168.463 153.682 168.164C153.392 167.865 153.248 167.492 153.248 167.044ZM160.609 163.194L161.715 162.914V165.28H164.403V166.316H161.715V169.788C161.715 170.283 161.827 170.628 162.051 170.824C162.284 171.02 162.653 171.118 163.157 171.118C163.642 171.118 164.137 171.015 164.641 170.81V171.846C164.072 172.051 163.47 172.154 162.835 172.154C162.154 172.154 161.612 171.972 161.211 171.608C160.81 171.235 160.609 170.693 160.609 169.984V166.316H159.349V165.28H160.609V163.194ZM165.511 167.044C165.511 166.4 165.759 165.919 166.253 165.602C166.757 165.275 167.364 165.112 168.073 165.112C168.941 165.112 169.735 165.303 170.453 165.686V166.75C170.173 166.563 169.819 166.414 169.389 166.302C168.96 166.181 168.545 166.12 168.143 166.12C167.733 166.12 167.378 166.195 167.079 166.344C166.79 166.484 166.645 166.708 166.645 167.016C166.645 167.24 166.748 167.436 166.953 167.604C167.168 167.763 167.434 167.884 167.751 167.968C168.069 168.052 168.409 168.159 168.773 168.29C169.147 168.411 169.492 168.542 169.809 168.682C170.127 168.813 170.388 169.018 170.593 169.298C170.808 169.569 170.915 169.895 170.915 170.278C170.915 170.931 170.654 171.412 170.131 171.72C169.609 172.019 168.946 172.168 168.143 172.168C167.089 172.168 166.221 171.949 165.539 171.51V170.418C166.249 170.894 167.098 171.132 168.087 171.132C169.226 171.132 169.795 170.857 169.795 170.306C169.795 170.054 169.646 169.844 169.347 169.676C169.058 169.499 168.703 169.354 168.283 169.242C167.863 169.121 167.443 168.985 167.023 168.836C166.603 168.687 166.244 168.463 165.945 168.164C165.656 167.865 165.511 167.492 165.511 167.044Z" fill="#111111"/>
<rect x="96" y="263" width="60" height="8" fill="#FAFF00"/>
<rect x="96" y="279" width="90" height="8" fill="#FAFF00"/>
<circle cx="280" cy="223" r="15.5" fill="white" stroke="#111111"/>
<path fill-rule="evenodd" clip-rule="evenodd" d="M273.994 215.035C273.936 215.054 273.86 215.09 273.826 215.117C273.791 215.144 273.141 216.275 272.381 217.629L271 220.092L271.005 220.378C271.014 220.874 271.199 221.405 271.506 221.822C271.688 222.068 272.071 222.404 272.33 222.544L272.532 222.653V226.643C272.532 231.043 272.519 230.786 272.753 230.93C272.865 230.999 272.983 231 280 231C287.017 231 287.135 230.999 287.247 230.93C287.481 230.786 287.468 231.043 287.468 226.643V222.653L287.677 222.54C288.443 222.126 288.983 221.241 288.996 220.378L289 220.092L287.647 217.678C286.903 216.351 286.252 215.219 286.2 215.163C286.148 215.108 286.043 215.048 285.968 215.03C285.783 214.987 274.134 214.992 273.994 215.035ZM286.682 217.786L287.713 219.627L283.856 219.636C281.735 219.641 278.265 219.641 276.144 219.636L272.287 219.627L273.317 217.778L274.346 215.929L279.999 215.936L285.652 215.944L286.682 217.786ZM275.223 220.638C274.962 221.738 273.778 222.288 272.779 221.773C272.575 221.668 272.313 221.432 272.178 221.233C272.081 221.091 271.898 220.659 271.898 220.574C271.898 220.552 272.506 220.539 273.572 220.539H275.246L275.223 220.638ZM279.492 220.689C279.457 220.914 279.267 221.247 279.045 221.472C278.377 222.152 277.275 222.128 276.629 221.419C276.432 221.204 276.253 220.878 276.21 220.656L276.187 220.539H277.851H279.516L279.492 220.689ZM283.79 220.656C283.682 221.206 283.14 221.763 282.558 221.92C281.931 222.09 281.176 221.82 280.792 221.29C280.647 221.09 280.495 220.748 280.494 220.62L280.493 220.539H282.153H283.813L283.79 220.656ZM288.082 220.673C288.031 220.907 287.835 221.244 287.628 221.456C287.05 222.044 286.194 222.139 285.51 221.691C285.161 221.462 284.932 221.149 284.805 220.727L284.759 220.575H286.431H288.103L288.082 220.673ZM276.079 222.138C276.35 222.408 276.682 222.612 277.059 222.742C277.46 222.881 278.033 222.903 278.453 222.797C278.951 222.671 279.297 222.471 279.676 222.089L280.003 221.759L280.31 222.07C280.655 222.42 280.942 222.606 281.356 222.747C281.61 222.834 281.689 222.843 282.149 222.844C282.618 222.845 282.682 222.837 282.941 222.745C283.096 222.69 283.33 222.581 283.46 222.503C283.695 222.362 284.081 222.01 284.214 221.815L284.283 221.714L284.456 221.935C284.892 222.486 285.657 222.861 286.349 222.863L286.587 222.864V226.476V230.088H282.941H279.295V227.625C279.295 226.121 279.282 225.089 279.26 224.972C279.151 224.389 278.723 223.929 278.149 223.777C277.867 223.702 276.451 223.7 276.143 223.774C275.635 223.895 275.224 224.285 275.044 224.816C274.991 224.973 274.983 225.261 274.972 227.54L274.959 230.088H274.186H273.413V226.476V222.864L273.651 222.863C274.343 222.861 275.108 222.486 275.544 221.935L275.717 221.714L275.786 221.815C275.824 221.871 275.956 222.016 276.079 222.138ZM281.031 223.763C280.843 223.807 280.53 224.02 280.391 224.199C280.333 224.275 280.252 224.426 280.211 224.535C280.142 224.724 280.139 224.792 280.148 225.953L280.159 227.173L280.252 227.375C280.371 227.633 280.587 227.852 280.84 227.973L281.039 228.067H282.571H284.104L284.303 227.973C284.556 227.852 284.772 227.633 284.891 227.375L284.984 227.173V225.904V224.634L284.892 224.437C284.778 224.192 284.551 223.963 284.298 223.837L284.104 223.74L282.642 223.734C281.796 223.731 281.117 223.743 281.031 223.763ZM278.045 224.684C278.213 224.762 278.288 224.841 278.361 225.019C278.408 225.133 278.415 225.478 278.415 227.619V230.088H277.147H275.879V227.605C275.879 225.933 275.891 225.089 275.916 225.021C275.97 224.878 276.086 224.76 276.249 224.684C276.372 224.626 276.485 224.618 277.147 224.618C277.807 224.618 277.922 224.626 278.045 224.684ZM283.946 224.67C284.002 224.7 284.065 224.755 284.085 224.793C284.108 224.836 284.121 225.263 284.121 225.922V226.982L284.018 227.087L283.915 227.191H282.571H281.227L281.124 227.087L281.022 226.982V225.914C281.022 224.765 281.027 224.727 281.21 224.652C281.252 224.635 281.861 224.62 282.564 224.619C283.639 224.617 283.859 224.625 283.946 224.67Z" fill="#111111"/>
<circle cx="60" cy="275" r="19.5" fill="white" stroke="#111111"/>
<path fill-rule="evenodd" clip-rule="evenodd" d="M49.4009 264.05C49.2277 264.127 49.0469 264.347 49.0155 264.519C49.0016 264.595 48.996 265.503 49.0031 266.537C49.0154 268.358 49.0186 268.42 49.1045 268.535C49.2447 268.723 49.3996 268.818 49.6038 268.841C49.8536 268.869 50.0695 268.775 50.2255 268.57L50.3495 268.408L50.3618 266.889L50.3742 265.371L51.8925 265.358L53.4109 265.346L53.5734 265.222C53.9591 264.928 53.9426 264.403 53.5381 264.101C53.4227 264.015 53.3638 264.012 51.4757 264.002C49.9255 263.995 49.5055 264.004 49.4009 264.05ZM66.5666 264.05C66.1697 264.225 66.0365 264.776 66.3118 265.103C66.53 265.362 66.5671 265.368 68.1763 265.368H69.6417L69.654 266.892C69.6658 268.354 69.6699 268.421 69.755 268.535C69.9236 268.761 70.0611 268.831 70.3332 268.831C70.6052 268.831 70.7427 268.761 70.9113 268.535C70.9979 268.419 71 268.369 71 266.422C71 264.474 70.9979 264.424 70.9113 264.308C70.8625 264.243 70.7691 264.15 70.7038 264.101C70.5885 264.015 70.5296 264.012 68.6415 264.002C67.0912 263.995 66.6713 264.004 66.5666 264.05ZM51.7262 266.375C51.568 266.445 51.4245 266.597 51.3634 266.758C51.3332 266.838 51.3175 267.573 51.3175 268.9C51.3175 271.145 51.3139 271.114 51.5999 271.332L51.7625 271.456L53.8524 271.467L55.9424 271.478L56.1136 271.38C56.2084 271.326 56.3283 271.206 56.3824 271.111L56.48 270.94L56.4693 268.85L56.4586 266.759L56.3346 266.597C56.1161 266.31 56.1494 266.314 53.8894 266.316C52.2904 266.317 51.8277 266.33 51.7262 266.375ZM58.2634 266.374C58.1076 266.443 57.9106 266.665 57.873 266.815C57.804 267.09 57.9236 267.393 58.1745 267.581C58.2865 267.665 58.3591 267.67 59.4732 267.682L60.6532 267.695L60.6535 268.543C60.6538 269.309 60.6618 269.403 60.7373 269.517C60.9354 269.818 61.3378 269.924 61.6369 269.754C61.9863 269.555 62.0256 269.364 62.0271 267.863C62.0282 266.774 61.9987 266.636 61.7231 266.439L61.5782 266.336L59.9864 266.326C58.7286 266.318 58.3671 266.328 58.2634 266.374ZM63.7272 266.374C63.554 266.45 63.3732 266.67 63.3418 266.843C63.328 266.919 63.3224 267.893 63.3294 269.007L63.3421 271.033L63.458 271.185C63.6857 271.483 63.6409 271.478 65.9019 271.478C68.163 271.478 68.1182 271.483 68.3458 271.185L68.4617 271.033V268.892C68.4617 266.797 68.4598 266.748 68.373 266.632C68.3242 266.567 68.2309 266.473 68.1655 266.424C68.0498 266.338 67.9928 266.335 65.9526 266.326C64.2771 266.318 63.8321 266.328 63.7272 266.374ZM55.1034 268.896V270.101H53.8988H52.6942V268.896V267.691H53.8988H55.1034V268.896ZM67.1065 268.896V270.101H65.9019H64.6973V268.896V267.691H65.9019H67.1065V268.896ZM53.617 268.268C53.3291 268.393 53.1683 268.722 53.2311 269.057C53.2676 269.252 53.5306 269.52 53.7278 269.563C54.0472 269.633 54.3768 269.467 54.5089 269.168C54.7633 268.593 54.1929 268.017 53.617 268.268ZM65.6201 268.268C65.0971 268.496 65.0866 269.236 65.6026 269.499C65.8189 269.61 65.9685 269.607 66.2045 269.488C66.9826 269.095 66.4195 267.92 65.6201 268.268ZM58.3165 268.7C58.1133 268.773 58.0117 268.862 57.9244 269.046C57.8665 269.168 57.8568 269.431 57.8568 270.87V272.551L54.8742 272.563L51.8915 272.575L51.729 272.699C51.34 272.996 51.3553 273.518 51.7616 273.819C51.8825 273.908 51.8999 273.909 55.3324 273.909H58.7818L58.9266 273.806C59.0063 273.749 59.1075 273.623 59.1516 273.526C59.226 273.362 59.2317 273.207 59.2323 271.327C59.2327 270.129 59.2158 269.243 59.1907 269.152C59.138 268.962 58.9097 268.736 58.7148 268.68C58.5315 268.628 58.518 268.628 58.3165 268.7ZM60.9634 270.517C60.5541 270.719 60.466 271.259 60.7882 271.591C61.117 271.931 61.6659 271.848 61.8841 271.425C61.9739 271.252 61.9472 270.889 61.8335 270.735C61.6377 270.471 61.2529 270.374 60.9634 270.517ZM63.8772 272.248C63.6651 272.291 63.5094 272.415 63.4073 272.621C63.2599 272.918 63.3165 273.191 63.5763 273.436L63.7134 273.565H65.9019H68.0904L68.2275 273.436C68.3832 273.289 68.4832 273.085 68.4832 272.913C68.4832 272.721 68.319 272.436 68.1467 272.329L67.9885 272.231L66.0095 272.224C64.921 272.22 63.9615 272.231 63.8772 272.248ZM61.1101 272.639C61.0419 272.661 60.9385 272.723 60.8801 272.777C60.6592 272.983 60.6532 273.023 60.6532 274.299C60.6532 275.432 60.6577 275.497 60.7444 275.651C60.7945 275.741 60.9084 275.854 60.9976 275.905C61.1572 275.994 61.1962 275.996 63.4899 275.996C66.0362 275.996 65.951 276.004 66.1711 275.742C66.4847 275.369 66.2661 274.778 65.7728 274.665C65.6571 274.639 64.8659 274.62 63.8046 274.62L62.0299 274.619L62.0263 274.07C62.0201 273.134 61.9673 272.927 61.6831 272.719C61.555 272.625 61.2776 272.586 61.1101 272.639ZM67.4177 274.759C67.2213 274.895 67.0897 275.18 67.1196 275.403C67.1646 275.739 67.4575 275.996 67.7949 275.996C68.1323 275.996 68.4251 275.739 68.4701 275.403C68.5009 275.173 68.3587 274.87 68.1632 274.75C67.9618 274.625 67.6036 274.629 67.4177 274.759ZM51.8346 275.791C51.5812 275.921 51.4795 276.071 51.4572 276.349C51.436 276.612 51.5382 276.806 51.7874 276.974C51.9249 277.066 51.9729 277.071 52.7019 277.071C53.5434 277.071 53.685 277.042 53.8484 276.834C54.0758 276.545 54.0558 276.166 53.8 275.918C53.5995 275.724 53.4547 275.695 52.6928 275.695C52.0841 275.695 52.0071 275.703 51.8346 275.791ZM54.9744 275.785C54.7614 275.91 54.6624 276.063 54.6393 276.303C54.6147 276.559 54.6819 276.731 54.8712 276.897C55.1458 277.139 55.5215 277.114 55.7902 276.836C55.9164 276.706 55.9394 276.649 55.9553 276.429C55.9705 276.219 55.9568 276.145 55.8785 276.018C55.6933 275.719 55.2727 275.61 54.9744 275.785ZM56.9468 275.781C56.6059 275.961 56.4863 276.433 56.701 276.75C56.8562 276.98 57.0858 277.071 57.5039 277.071H57.8551L57.8667 280.102C57.8782 283.086 57.8797 283.134 57.967 283.251C58.1347 283.476 58.2734 283.547 58.5409 283.547C58.7435 283.547 58.8161 283.526 58.9404 283.431C59.2522 283.194 59.2364 283.409 59.2235 279.577L59.212 276.14L59.088 275.977C58.8918 275.72 58.7832 275.694 57.8905 275.696C57.1988 275.698 57.085 275.708 56.9468 275.781ZM61.1101 277.288C60.7047 277.41 60.5153 277.967 60.7582 278.325C60.9698 278.636 60.7652 278.621 64.6221 278.621H68.0833L68.2284 278.523C68.4776 278.355 68.5798 278.161 68.5586 277.898C68.5364 277.62 68.4346 277.47 68.1812 277.34L67.9917 277.244L64.6129 277.247C62.7545 277.249 61.1783 277.268 61.1101 277.288ZM51.7241 278.466C51.5512 278.541 51.3702 278.761 51.3387 278.934C51.3249 279.01 51.3193 279.986 51.3263 281.102C51.3387 283.075 51.3415 283.136 51.4277 283.251C51.4765 283.316 51.5699 283.41 51.6352 283.459C51.7515 283.545 51.7997 283.547 53.8946 283.547H56.0351L56.187 283.431C56.49 283.2 56.4839 283.254 56.4706 280.932L56.4586 278.85L56.3427 278.698C56.1148 278.4 56.161 278.405 53.8923 278.407C52.2961 278.408 51.8269 278.421 51.7241 278.466ZM55.1034 280.987V282.192H53.8988H52.6942V280.987V279.782H53.8988H55.1034V280.987ZM60.3679 279.865C60.1009 280.028 59.9657 280.359 60.0538 280.635C60.1532 280.946 60.3931 281.116 60.7308 281.116C61.3795 281.116 61.6304 280.255 61.0888 279.887C60.893 279.754 60.566 279.744 60.3679 279.865ZM62.2407 279.879C62.0304 280.018 61.8844 280.332 61.923 280.561C61.9649 280.808 62.1896 281.049 62.4367 281.111C62.6424 281.163 63.6424 281.168 64.8778 281.123L65.6391 281.095L65.7931 280.945C66.0656 280.681 66.0987 280.308 65.8736 280.04C65.6554 279.781 65.6664 279.782 63.9529 279.782C62.4005 279.782 62.3856 279.783 62.2407 279.879ZM67.6658 280.112C67.5003 280.18 67.3477 280.327 67.2745 280.488C67.2062 280.638 67.1943 280.777 67.1935 281.428L67.1926 282.192H64.84C62.5484 282.192 62.4825 282.194 62.3033 282.281C61.8064 282.522 61.7999 283.234 62.2925 283.485C62.4557 283.568 62.5378 283.57 65.2965 283.559C68.0978 283.547 68.1343 283.546 68.2542 283.457C68.321 283.408 68.4192 283.303 68.4725 283.225C68.5674 283.086 68.5693 283.059 68.5693 281.826C68.5693 280.594 68.5674 280.567 68.4725 280.427C68.3257 280.212 68.1698 280.116 67.9379 280.1C67.8237 280.092 67.7013 280.098 67.6658 280.112ZM53.617 280.357C53.2028 280.545 53.0857 281.094 53.3868 281.437C53.713 281.809 54.3007 281.721 54.5052 281.271C54.5492 281.174 54.5853 281.046 54.5853 280.987C54.5853 280.813 54.436 280.535 54.2855 280.427C54.1161 280.307 53.8007 280.273 53.617 280.357ZM49.4009 281.22C49.228 281.295 49.047 281.515 49.0155 281.688C49.0016 281.764 48.996 282.672 49.0031 283.706C49.0154 285.526 49.0186 285.589 49.1045 285.704C49.1533 285.769 49.2467 285.862 49.312 285.911C49.428 285.998 49.478 286 51.4251 286C53.3721 286 53.4221 285.998 53.5381 285.911C53.7638 285.743 53.8343 285.605 53.8343 285.333C53.8343 285.061 53.7639 284.923 53.5381 284.755C53.4242 284.67 53.3574 284.666 51.8968 284.654L50.3742 284.641L50.3618 283.123L50.3495 281.604L50.2255 281.442C50.0255 281.179 49.6965 281.091 49.4009 281.22ZM70.0535 281.218C69.8942 281.291 69.7513 281.443 69.6907 281.603C69.6615 281.68 69.6448 282.254 69.6448 283.183V284.641L68.1206 284.654C66.6584 284.666 66.5916 284.67 66.4777 284.755C66.252 284.923 66.1816 285.061 66.1816 285.333C66.1816 285.605 66.252 285.743 66.4778 285.911C66.5937 285.998 66.6437 286 68.5908 286C70.5378 286 70.5878 285.998 70.7038 285.911C70.7691 285.862 70.8625 285.769 70.9113 285.704C70.9979 285.588 71 285.538 71 283.59C71 281.643 70.9979 281.593 70.9113 281.477C70.8625 281.412 70.772 281.32 70.7102 281.274C70.5676 281.168 70.225 281.138 70.0535 281.218Z" fill="#111111"/>
<path d="M262.26 281.08H261.14V279.16C259.902 279.043 258.841 278.733 257.956 278.232V276.888C259.076 277.571 260.377 277.912 261.86 277.912C263.673 277.912 264.58 277.357 264.58 276.248C264.58 275.843 264.457 275.501 264.212 275.224C263.977 274.936 263.662 274.712 263.268 274.552C262.884 274.392 262.457 274.248 261.988 274.12C261.518 273.992 261.049 273.853 260.58 273.704C260.11 273.544 259.678 273.363 259.284 273.16C258.9 272.947 258.585 272.648 258.34 272.264C258.105 271.88 257.988 271.421 257.988 270.888C257.988 270.045 258.281 269.373 258.868 268.872C259.454 268.371 260.212 268.067 261.14 267.96V266.04H262.26V267.944C263.422 268.008 264.409 268.275 265.22 268.744V270.088C264.281 269.48 263.182 269.187 261.924 269.208C260.206 269.208 259.348 269.752 259.348 270.84C259.348 271.224 259.465 271.549 259.7 271.816C259.945 272.083 260.26 272.291 260.644 272.44C261.038 272.589 261.47 272.728 261.94 272.856C262.409 272.973 262.878 273.112 263.348 273.272C263.817 273.432 264.244 273.619 264.628 273.832C265.022 274.045 265.337 274.349 265.572 274.744C265.817 275.139 265.94 275.608 265.94 276.152C265.94 277.155 265.598 277.907 264.916 278.408C264.233 278.899 263.348 279.16 262.26 279.192V281.08ZM267.604 268.984C268.617 268.28 269.78 267.928 271.092 267.928C272.222 267.928 273.124 268.184 273.796 268.696C274.468 269.208 274.804 269.923 274.804 270.84C274.804 271.277 274.718 271.688 274.548 272.072C274.388 272.456 274.142 272.808 273.812 273.128C273.492 273.448 273.177 273.72 272.868 273.944C272.569 274.157 272.19 274.397 271.732 274.664C271.678 274.696 271.513 274.792 271.236 274.952C270.969 275.112 270.798 275.213 270.724 275.256C270.66 275.299 270.51 275.395 270.276 275.544C270.052 275.683 269.902 275.784 269.828 275.848C269.764 275.912 269.646 276.013 269.476 276.152C269.316 276.291 269.204 276.408 269.14 276.504C269.086 276.6 269.012 276.723 268.916 276.872C268.83 277.011 268.772 277.149 268.74 277.288C268.708 277.427 268.692 277.576 268.692 277.736L274.884 277.72V279H267.22V278.36C267.22 277.763 267.316 277.224 267.508 276.744C267.7 276.253 267.972 275.837 268.324 275.496C268.686 275.144 269.044 274.851 269.396 274.616C269.748 274.371 270.158 274.109 270.628 273.832C270.734 273.779 270.814 273.736 270.868 273.704C271.838 273.139 272.473 272.707 272.772 272.408C273.23 271.939 273.46 271.411 273.46 270.824C273.46 270.291 273.241 269.885 272.804 269.608C272.377 269.32 271.769 269.176 270.98 269.176C269.828 269.176 268.702 269.56 267.604 270.328V268.984ZM277.895 273.256C278.93 272.563 280.066 272.216 281.303 272.216C282.295 272.216 283.164 272.52 283.911 273.128C284.658 273.725 285.031 274.557 285.031 275.624C285.031 276.744 284.658 277.619 283.911 278.248C283.175 278.877 282.247 279.192 281.127 279.192C279.591 279.192 278.439 278.717 277.671 277.768C276.914 276.808 276.535 275.464 276.535 273.736C276.535 271.816 276.988 270.371 277.895 269.4C278.812 268.419 280.007 267.928 281.479 267.928C282.428 267.928 283.308 268.136 284.119 268.552V269.832C283.33 269.416 282.46 269.208 281.511 269.208C280.508 269.208 279.671 269.533 278.999 270.184C278.338 270.824 277.97 271.848 277.895 273.256ZM277.911 274.6C278.114 276.829 279.154 277.944 281.031 277.944C281.82 277.944 282.455 277.763 282.935 277.4C283.426 277.037 283.671 276.467 283.671 275.688C283.671 274.899 283.42 274.333 282.919 273.992C282.418 273.64 281.767 273.464 280.967 273.464C279.783 273.464 278.764 273.843 277.911 274.6ZM286.809 270.744C286.809 269.976 287.145 269.315 287.817 268.76C288.489 268.205 289.475 267.928 290.777 267.928C291.982 267.928 292.953 268.221 293.689 268.808C294.425 269.395 294.803 270.099 294.825 270.92C294.857 272.04 294.361 272.957 293.337 273.672C294.585 274.291 295.209 275.144 295.209 276.232C295.209 277.064 294.841 277.768 294.105 278.344C293.379 278.909 292.302 279.192 290.873 279.192C289.454 279.192 288.355 278.883 287.577 278.264C286.809 277.645 286.425 276.893 286.425 276.008C286.425 275.475 286.579 274.947 286.889 274.424C287.209 273.891 287.673 273.443 288.281 273.08C287.299 272.483 286.809 271.704 286.809 270.744ZM290.937 274.104C290.382 273.955 289.875 273.795 289.417 273.624C288.883 273.88 288.473 274.211 288.185 274.616C287.907 275.021 287.769 275.437 287.769 275.864C287.769 276.515 288.035 277.027 288.569 277.4C289.113 277.763 289.891 277.944 290.905 277.944C291.758 277.944 292.462 277.795 293.017 277.496C293.582 277.187 293.865 276.787 293.865 276.296C293.865 275.88 293.715 275.528 293.417 275.24C293.129 274.941 292.846 274.739 292.569 274.632C292.291 274.525 291.833 274.376 291.193 274.184C291.075 274.152 290.99 274.125 290.937 274.104ZM293.481 271.16C293.481 270.595 293.241 270.125 292.761 269.752C292.281 269.368 291.609 269.176 290.745 269.176C289.955 269.176 289.326 269.325 288.857 269.624C288.387 269.912 288.153 270.28 288.153 270.728C288.153 271.037 288.217 271.309 288.345 271.544C288.483 271.768 288.686 271.96 288.953 272.12C289.23 272.269 289.481 272.392 289.705 272.488C289.929 272.573 290.227 272.669 290.601 272.776C290.643 272.787 290.675 272.797 290.697 272.808C290.718 272.808 290.745 272.813 290.777 272.824C290.809 272.835 290.841 272.845 290.873 272.856C290.905 272.867 291.086 272.92 291.417 273.016C291.758 273.101 292.019 273.171 292.201 273.224C293.054 272.669 293.481 271.981 293.481 271.16Z" fill="#111111"/>
</svg>
