<svg width="1280" height="351" viewBox="0 0 1280 351" fill="none" xmlns="http://www.w3.org/2000/svg">
<path d="M1096.37 153.002C1095.24 151.388 1094.01 149.838 1092.66 148.363C1081.69 136.337 1067.33 131.248 1050.94 127.838C1034.01 124.317 1014.18 123.223 997.923 129.57C994.096 131.081 990.46 133.076 987.584 135.796C976.706 146.045 972.974 163.209 960.861 176.776C948.748 190.343 942.84 207.244 953.714 223.286C958.317 230.081 964.186 235.678 971.129 240.604C979.677 246.649 987.051 254.827 996.932 259.557C1007.32 264.526 1021.14 266.258 1032.64 263.982C1045.75 261.386 1053.44 251.062 1063.44 244.035C1071.33 238.486 1080.77 234.853 1088.5 229.129C1100.35 220.364 1109.33 206.262 1107.84 192.289C1106.37 178.725 1104.49 164.629 1096.37 153.002Z" fill="#F9F8FE"/>
<path fill-rule="evenodd" clip-rule="evenodd" d="M1090.49 154.805C1089.6 154.215 1088.77 153.945 1087.66 153.887C1087.03 153.854 1075.97 153.834 1063.09 153.843L1039.65 153.858L1022.71 148.32C1009.99 144.16 1005.54 142.79 1004.83 142.817C1004.31 142.837 1003.46 143.068 1002.93 143.331C1001.04 144.267 1001.23 143.796 994.56 164.28C991.199 174.607 988.393 183.39 988.325 183.797C988.061 185.388 988.84 187.28 990.169 188.275C990.574 188.577 993.054 189.517 996.141 190.539C999.045 191.499 1001.52 192.324 1001.65 192.371C1001.77 192.419 1001.88 193.676 1001.88 195.165C1001.89 198.433 1001.96 198.867 1002.67 199.986C1003.45 201.219 1004.68 201.995 1006.1 202.139C1006.72 202.202 1012.75 202.251 1019.5 202.248L1031.78 202.243L1034.07 202.948C1035.33 203.335 1043.57 206.02 1052.39 208.914C1061.21 211.808 1068.88 214.255 1069.44 214.352C1069.99 214.45 1070.82 214.439 1071.28 214.328C1072.28 214.085 1073.75 212.99 1074.24 212.127C1074.42 211.791 1075.23 209.536 1076.02 207.116C1076.81 204.696 1077.53 202.609 1077.6 202.478C1077.68 202.347 1080.17 202.244 1083.13 202.249C1087.52 202.257 1088.71 202.181 1089.55 201.844C1091.27 201.153 1092.26 199.762 1092.44 197.777C1092.49 197.213 1092.52 189.119 1092.49 179.791C1092.46 170.464 1092.43 161.817 1092.43 160.577C1092.43 159.336 1092.36 158.001 1092.29 157.608C1092.13 156.798 1091.13 155.232 1090.49 154.805ZM1089.44 158.864C1089.49 159.433 1089.54 168.431 1089.56 178.859C1089.58 191.096 1089.49 198.014 1089.32 198.37C1089.09 198.833 1088.93 198.954 1088.35 199.127C1087.67 199.332 1078.86 199.444 1078.69 199.251C1078.64 199.195 1080.44 193.495 1082.7 186.583C1084.95 179.671 1086.84 173.74 1086.91 173.403C1087.19 171.845 1086.07 169.509 1084.66 168.721C1083.98 168.344 1069.5 163.53 1068.57 163.373C1067.4 163.176 1066.46 164.701 1067.19 165.62C1067.36 165.838 1068.23 166.257 1069.12 166.553L1070.75 167.089L1070.56 168.671C1069.79 175.045 1072.88 181.149 1078.52 184.41L1080.06 185.296L1077.92 191.806L1075.78 198.316L1074.43 198.135C1071.62 197.759 1068.44 198.212 1065.75 199.371C1064.8 199.782 1063.92 200.347 1062.46 201.503C1060.28 203.225 1059.39 204.265 1058.29 206.374L1057.66 207.577L1045.46 203.579C1038.74 201.38 1026.87 197.495 1019.07 194.946C1011.27 192.397 1004.79 190.256 1004.67 190.188C1004.55 190.12 1004.53 189.364 1004.64 188.507C1005.4 182.154 1001.92 175.517 996.319 172.672L995.136 172.071L997.268 165.481L999.401 158.89L1000.47 159.078C1004.62 159.805 1009.11 158.624 1012.65 155.875C1014.63 154.336 1015.7 153.108 1016.86 151.018C1017.26 150.3 1017.61 149.719 1017.64 149.729C1017.67 149.738 1027.13 152.841 1038.66 156.625C1050.19 160.409 1059.99 163.538 1060.43 163.579C1061.32 163.661 1061.83 163.236 1061.95 162.309C1062.08 161.298 1061.6 161.057 1055.15 158.936C1051.72 157.809 1048.96 156.859 1049 156.826C1049.15 156.71 1087.14 156.739 1087.91 156.856C1088.91 157.007 1089.33 157.56 1089.44 158.864ZM1083.94 172.544C1083.99 172.821 1083.33 175.151 1082.49 177.72L1080.96 182.39L1080.01 181.904C1075.65 179.672 1072.91 174.356 1073.46 169.191L1073.58 168.011L1078.4 169.607C1083.35 171.242 1083.77 171.468 1083.94 172.544ZM1067.37 186.833C1063.06 185.446 1062.99 185.432 1062.37 185.842C1061.56 186.374 1061.42 187.055 1061.98 187.761C1062.3 188.167 1063.3 188.58 1066.71 189.696C1070.38 190.9 1071.12 191.076 1071.57 190.856C1072.47 190.421 1072.69 189.377 1072.04 188.589C1071.88 188.397 1069.78 187.607 1067.37 186.833ZM1050.42 164.334C1044.61 159.256 1036.82 158.032 1029.77 161.088C1027.25 162.178 1024.29 164.44 1022.66 166.521C1018.75 171.525 1017.43 178.045 1019.14 183.971C1019.64 185.689 1020.49 187.483 1020.98 187.864C1021.68 188.408 1023.26 187.707 1023.27 186.848C1023.27 186.691 1022.99 185.891 1022.64 185.071C1018.95 176.336 1023.3 166.427 1032.2 163.269C1034.66 162.397 1036.75 162.197 1039.61 162.562C1043.95 163.118 1046.97 164.711 1049.83 167.959C1055.02 173.833 1055.21 182.642 1050.29 188.836C1048.7 190.837 1045.79 192.963 1043.43 193.841C1038.54 195.658 1033.11 195.102 1028.86 192.353C1027.54 191.495 1027.04 191.422 1026.33 191.977C1025.11 192.936 1025.71 194.001 1028.27 195.438C1032.24 197.657 1037.05 198.362 1041.58 197.389C1045.03 196.65 1046.24 196.064 1049.42 193.572C1051.91 191.621 1052.18 191.356 1053.13 189.991C1057.19 184.138 1057.9 177.205 1055.08 170.708C1054.26 168.808 1052 165.715 1050.42 164.334ZM1073.3 206.01C1071.72 210.794 1071.45 211.314 1070.4 211.497C1069.82 211.599 1060.57 208.544 1060.61 208.261C1060.62 208.136 1061.04 207.409 1061.53 206.644C1062.32 205.413 1062.64 205.083 1064.35 203.749C1066.05 202.413 1066.44 202.182 1067.83 201.707C1068.69 201.413 1069.97 201.102 1070.68 201.017C1072.06 200.852 1074.56 200.954 1074.74 201.184C1074.8 201.261 1074.15 203.433 1073.3 206.01ZM1041.56 165.55C1040.76 165.356 1040.07 165.85 1039.79 166.82L1039.58 167.518L1038.23 167.731C1036.99 167.928 1036.78 168.027 1035.58 168.971C1034.54 169.789 1034.2 170.163 1033.91 170.819C1033.01 172.855 1033.47 175.055 1035.21 176.951L1036.14 177.976L1034.99 181.565C1034.27 183.797 1033.74 185.141 1033.58 185.122C1033.44 185.105 1032.9 184.704 1032.39 184.232C1031.87 183.76 1031.31 183.248 1031.13 183.095C1030.74 182.753 1029.71 183.011 1029.29 183.556C1029.12 183.775 1029 184.226 1029.03 184.558C1029.07 185.091 1029.21 185.285 1030.2 186.228C1030.82 186.815 1031.68 187.46 1032.11 187.662L1032.9 188.028L1032.63 188.782C1032.15 190.077 1032.54 190.933 1033.67 191.07C1034.53 191.173 1035.07 190.743 1035.41 189.703C1035.64 188.957 1035.71 188.879 1036.16 188.863C1038.04 188.793 1038.82 188.508 1040.31 187.34C1041.7 186.253 1041.8 186.13 1042.34 184.863C1042.98 183.357 1043.05 181.869 1042.55 180.675C1042.35 180.196 1041.7 179.298 1040.9 178.369L1039.58 176.849L1040.44 174.185C1040.92 172.719 1041.41 171.509 1041.53 171.496C1041.66 171.482 1042.02 171.805 1042.34 172.213C1043.11 173.202 1043.84 173.377 1044.63 172.762C1045.55 172.041 1045.46 171.334 1044.3 170.064C1043.79 169.508 1043.13 168.926 1042.84 168.771C1042.35 168.521 1042.31 168.448 1042.46 168.094C1043.01 166.779 1042.67 165.821 1041.56 165.55ZM1037.83 172.787L1037.17 174.801L1036.71 174.211C1036.07 173.401 1036.23 172.291 1037.11 171.432C1037.7 170.845 1038.28 170.52 1038.42 170.695C1038.45 170.738 1038.19 171.679 1037.83 172.787ZM1014.06 149.996C1011.5 154.224 1006.85 156.664 1002.11 156.267L1000.35 156.119L1001.8 151.569C1002.59 149.067 1003.39 146.798 1003.56 146.527C1004.21 145.519 1004.8 145.579 1009.76 147.158C1012.29 147.966 1014.44 148.704 1014.52 148.798C1014.61 148.892 1014.4 149.432 1014.06 149.996ZM1039.92 182.597C1039.79 184.088 1038.67 185.423 1037.25 185.806L1036.64 185.97L1037.53 183.226C1038.72 179.587 1038.63 179.7 1039.38 180.84C1039.87 181.58 1039.98 181.938 1039.92 182.597ZM1009.05 167.766C1004.17 166.14 1003.96 166.099 1003.31 166.609C1002.75 167.049 1002.62 168.075 1003.06 168.636C1003.33 168.97 1011.48 171.749 1012.18 171.742C1012.61 171.738 1013.14 171.387 1013.41 170.936C1013.59 170.65 1013.47 169.569 1013.24 169.271C1013.17 169.187 1011.29 168.51 1009.05 167.766ZM1019.25 199.32C1017.38 199.317 1013.75 199.31 1011.19 199.305C1008.63 199.301 1006.31 199.229 1006.04 199.146C1005.45 198.966 1004.97 198.386 1004.88 197.745C1004.85 197.49 1004.81 196.428 1004.81 195.385C1004.8 194.126 1004.89 193.499 1005.07 193.521C1005.51 193.574 1022.46 199.089 1022.57 199.214C1022.63 199.276 1021.13 199.324 1019.25 199.32ZM1000.53 181.069C1001.4 182.818 1001.92 185.508 1001.76 187.425C1001.69 188.301 1001.58 189.059 1001.52 189.108C1001.3 189.278 991.928 186.069 991.667 185.735C991.031 184.924 991.137 184.269 992.654 179.638C993.492 177.085 994.267 174.985 994.378 174.973C994.592 174.949 996.971 176.492 997.586 177.054C998.435 177.829 999.96 179.906 1000.53 181.069Z" fill="#8A86B2"/>
<path d="M324.369 144.258C323.244 142.513 322.006 140.839 320.662 139.245C309.685 126.25 295.334 120.751 278.94 117.067C262.007 113.262 242.181 112.08 225.923 118.938C222.096 120.571 218.46 122.727 215.584 125.666C204.706 136.74 200.974 155.286 188.861 169.947C176.748 184.607 170.84 202.869 181.714 220.204C186.317 227.545 192.186 233.593 199.129 238.916C207.677 245.448 215.051 254.285 224.932 259.396C235.315 264.765 249.144 266.636 260.637 264.177C273.747 261.372 281.436 250.216 291.443 242.623C299.333 236.627 308.773 232.702 316.503 226.516C328.348 217.046 337.33 201.807 335.838 186.71C334.372 172.053 332.486 156.821 324.369 144.258Z" fill="#F9F8FE"/>
<path d="M242.779 202.076C265.666 199.489 282.502 179.717 281.884 157.096C283.138 156.497 283.94 155.165 283.776 153.71C283.615 152.286 282.585 151.185 281.274 150.853C277.386 128 256.2 111.845 232.878 114.481C221.157 115.806 211.021 121.653 204.003 130.071C203.58 129.943 203.127 129.898 202.66 129.951C200.825 130.158 199.499 131.814 199.707 133.657C199.772 134.234 199.991 134.754 200.314 135.206C195.319 143.308 192.882 153.067 194.032 163.245C194.476 167.168 195.436 170.984 196.88 174.617C196.641 174.988 196.509 175.444 196.562 175.919C196.686 177.01 197.671 177.796 198.763 177.672C199.854 177.549 200.64 176.563 200.516 175.472C200.424 174.657 199.855 174.016 199.117 173.788C197.742 170.339 196.826 166.702 196.405 162.977C195.321 153.391 197.605 144.187 202.299 136.536C202.66 136.615 203.033 136.653 203.413 136.61C205.247 136.402 206.574 134.747 206.366 132.904C206.31 132.406 206.137 131.945 205.891 131.54C212.524 123.614 222.091 118.111 233.147 116.861C255.157 114.374 275.162 129.589 278.896 151.138C277.708 151.761 276.959 153.063 277.118 154.47C277.273 155.847 278.246 156.938 279.497 157.309C280.01 178.645 264.11 197.27 242.504 199.713C235.631 200.489 228.628 199.543 222.258 196.971C222.106 195.915 221.14 195.159 220.072 195.28C218.981 195.403 218.195 196.389 218.319 197.48C218.442 198.572 219.428 199.357 220.519 199.234C220.843 199.197 221.134 199.076 221.388 198.912L221.287 199.155C228.051 201.883 235.479 202.901 242.779 202.076ZM203.232 135.012C202.267 135.121 201.396 134.427 201.287 133.462C201.178 132.497 201.872 131.626 202.837 131.517C203.802 131.408 204.673 132.102 204.782 133.067C204.891 134.032 204.197 134.903 203.232 135.012ZM278.699 154.284C278.589 153.319 279.284 152.447 280.249 152.338C281.214 152.229 282.085 152.924 282.194 153.889C282.303 154.854 281.609 155.725 280.644 155.834C279.679 155.943 278.808 155.249 278.699 154.284Z" fill="#8A86B2"/>
<path d="M288.245 152.572C287.239 143.675 283.962 135.587 279.084 128.785C279.167 128.528 279.192 128.253 279.159 127.96C279.034 126.853 278.031 126.053 276.923 126.178C275.816 126.303 275.017 127.307 275.142 128.414C275.263 129.49 276.217 130.271 277.29 130.198L277.226 130.277C281.834 136.741 284.919 144.41 285.872 152.84C287.297 165.446 283.707 177.482 276.706 186.964C276.274 186.829 275.811 186.777 275.337 186.83C273.502 187.038 272.175 188.694 272.384 190.536C272.43 190.947 272.562 191.333 272.737 191.682C265.188 199.583 254.939 204.995 243.258 206.315C231.442 207.651 220.13 204.58 210.952 198.425C211.088 197.993 211.133 197.54 211.079 197.065C210.871 195.23 209.216 193.904 207.373 194.112C206.851 194.171 206.383 194.352 205.972 194.615C197.225 186.953 191.189 176.141 189.783 163.701C187.002 139.097 203.297 116.663 226.859 111.188C227.546 112.096 228.681 112.64 229.899 112.503C231.251 112.35 232.315 111.413 232.706 110.199C239.916 109.432 246.942 110.296 253.392 112.506C253.393 112.514 253.393 112.514 253.393 112.522C253.519 113.629 254.522 114.429 255.629 114.304C256.736 114.179 257.536 113.175 257.411 112.068C257.286 110.961 256.282 110.161 255.175 110.286C254.985 110.308 254.807 110.36 254.639 110.435C247.765 108.008 240.269 107.021 232.558 107.829C231.979 106.533 230.627 105.692 229.14 105.86C227.527 106.043 226.313 107.349 226.177 108.911C201.53 114.708 184.491 138.212 187.403 163.978C188.885 177.091 195.275 188.487 204.531 196.532C204.416 196.937 204.37 197.375 204.421 197.826C204.628 199.66 206.284 200.987 208.127 200.779C208.617 200.723 209.071 200.56 209.468 200.315C219.128 206.84 231.055 210.106 243.519 208.697C255.809 207.308 266.586 201.604 274.512 193.283C274.998 193.469 275.529 193.561 276.082 193.498C277.917 193.291 279.244 191.635 279.036 189.792C278.98 189.302 278.817 188.848 278.572 188.451C285.952 178.486 289.744 165.835 288.245 152.572ZM229.318 107.434C230.283 107.325 231.154 108.02 231.263 108.984C231.372 109.949 230.678 110.821 229.713 110.93C228.748 111.039 227.877 110.344 227.768 109.379C227.659 108.415 228.353 107.543 229.318 107.434ZM207.947 199.189C206.982 199.298 206.111 198.604 206.002 197.639C205.893 196.674 206.587 195.803 207.552 195.694C208.517 195.585 209.388 196.279 209.497 197.244C209.606 198.209 208.912 199.08 207.947 199.189ZM275.911 191.908C274.946 192.017 274.074 191.322 273.965 190.357C273.856 189.393 274.551 188.521 275.516 188.412C276.48 188.303 277.352 188.998 277.461 189.962C277.57 190.927 276.868 191.8 275.911 191.908Z" fill="#8A86B2"/>
<path d="M209.842 184.061C210.048 184.038 210.243 183.992 210.428 183.931C218.268 192.28 229.811 196.966 242.038 195.584C247.803 194.932 253.178 193.027 258.026 189.924C258.31 190.028 258.612 190.074 258.928 190.039C260.019 189.915 260.805 188.929 260.682 187.838C260.558 186.747 259.572 185.961 258.481 186.084C257.508 186.194 256.788 186.981 256.727 187.925C252.192 190.824 247.171 192.601 241.777 193.211C230.405 194.496 219.664 190.175 212.327 182.45C212.699 181.84 212.889 181.113 212.802 180.346C212.595 178.512 210.939 177.185 209.096 177.393C208.867 177.419 208.648 177.468 208.439 177.532C205.499 173.066 203.535 167.874 202.895 162.211C200.717 142.946 214.62 125.499 233.886 123.322C240.837 122.536 247.546 123.852 253.392 126.747C253.351 127.024 253.335 127.307 253.367 127.591C253.575 129.426 255.23 130.753 257.073 130.544C257.658 130.478 258.185 130.251 258.629 129.928C266.256 135.538 271.629 144.174 272.774 154.304C273.326 159.184 272.869 164.001 271.432 168.649C270.508 168.906 269.872 169.795 269.983 170.783C270.107 171.875 271.093 172.66 272.184 172.537C273.275 172.414 274.061 171.428 273.938 170.336C273.905 170.044 273.801 169.767 273.663 169.535C275.242 164.518 275.743 159.311 275.148 154.044C273.92 143.186 268.149 133.93 259.951 127.944C260.031 127.591 260.062 127.227 260.019 126.847C259.812 125.013 258.156 123.686 256.313 123.894C255.633 123.971 255.024 124.248 254.533 124.656C248.269 121.528 241.067 120.107 233.61 120.95C213.039 123.275 198.188 141.902 200.514 162.48C201.208 168.617 203.357 174.237 206.576 179.048C206.227 179.648 206.059 180.356 206.142 181.091C206.343 182.943 208.007 184.268 209.842 184.061ZM209.268 178.984C210.233 178.875 211.104 179.569 211.213 180.534C211.322 181.499 210.628 182.37 209.663 182.479C208.698 182.588 207.827 181.894 207.718 180.929C207.609 179.964 208.303 179.093 209.268 178.984ZM256.486 125.493C257.451 125.384 258.322 126.078 258.431 127.043C258.54 128.008 257.846 128.879 256.881 128.988C255.916 129.097 255.045 128.403 254.936 127.438C254.827 126.473 255.521 125.602 256.486 125.493Z" fill="#8A86B2"/>
<path fill-rule="evenodd" clip-rule="evenodd" d="M233.812 138.637C233.635 138.724 233.48 138.796 233.466 138.798C233.452 138.801 233.401 138.934 233.351 139.095C233.288 139.301 233.298 139.727 233.385 140.535C233.452 141.167 233.516 141.989 233.526 142.361C233.542 142.984 233.525 143.06 233.309 143.292C233.18 143.431 232.683 143.742 232.204 143.984C230.348 144.921 229.315 145.696 228.308 146.906C226.827 148.688 226.251 150.751 226.535 153.261C226.795 155.566 227.644 157.048 229.534 158.495C231.148 159.731 232.834 160.442 236.427 161.4C239.498 162.22 240.278 162.525 241.197 163.27C242.233 164.11 242.58 165.278 242.143 166.46C241.575 168.002 239.328 169.044 236.652 169.006C234.715 168.979 232.938 168.684 230.958 168.06C229.95 167.743 229.788 167.724 229.537 167.891C229.29 168.056 229.144 168.552 228.813 170.361C228.412 172.552 228.379 172.967 228.578 173.312C229.03 174.097 231.552 174.746 234.975 174.958C235.643 174.999 236.284 175.062 236.4 175.098C236.776 175.214 236.855 175.458 237.115 177.289C237.474 179.818 237.362 179.739 240.157 179.423C242.981 179.104 242.869 179.239 242.616 176.464C242.493 175.117 242.465 174.469 242.525 174.337C242.676 174.003 243.088 173.709 243.914 173.345C246.537 172.189 248.418 170.275 249.339 167.825C250.725 164.134 249.545 160.212 246.301 157.73C244.859 156.627 243.319 155.994 239.55 154.957C236.902 154.228 235.841 153.813 235.002 153.177C233.63 152.138 233.61 150.504 234.956 149.404C235.681 148.812 236.322 148.606 238.008 148.426C240.048 148.209 241.462 148.331 243.492 148.902C244.052 149.059 244.639 149.174 244.797 149.156C245.352 149.093 245.472 148.756 246.001 145.772C246.309 144.035 246.289 143.827 245.778 143.46C245.249 143.079 243.096 142.608 241.401 142.503C239.806 142.404 239.422 142.336 239.206 142.112C239.025 141.925 238.984 141.758 238.786 140.403C238.541 138.725 238.406 138.388 237.912 138.216C237.521 138.08 234.267 138.414 233.812 138.637Z" fill="#8A86B2"/>
<path d="M1272.01 108.309C1281.59 90.1917 1282.25 66.051 1275.62 46.6981C1269.93 30.037 1257.25 17.3221 1242.61 9.75741C1225.63 0.979261 1205.39 -1.63369 1187.15 3.90741C1182.36 5.36361 1177.69 6.70003 1173.17 9.0955C1154.63 18.9106 1158.22 43.0986 1151.71 51.5143C1146.24 58.5935 1135.78 56.5069 1129.19 61.9314C1111.41 76.5785 1121.7 114.304 1140.78 127.845C1163 143.611 1248.28 153.171 1272.01 108.309Z" fill="#F9F8FE"/>
<path d="M1177.75 78.221L1174.95 79.6487C1174.96 79.6586 1174.96 79.6586 1174.96 79.6685L1177.76 78.2408C1177.76 78.2309 1177.75 78.2285 1177.75 78.221Z" fill="#8A86B2"/>
<path d="M1228.66 105.998L1227.68 104.077L1228.66 105.998Z" fill="#8A86B2"/>
<path d="M1226.6 101.948L1227.68 104.077L1226.6 101.948Z" fill="#8A86B2"/>
<path d="M1224.79 105.309L1223.35 102.488C1214.97 105.622 1205.52 106.064 1196.37 103.09C1187.22 100.118 1179.84 94.2078 1174.9 86.7534L1172.08 88.1912C1177.39 96.3633 1185.42 102.838 1195.4 106.079C1205.37 109.321 1215.68 108.803 1224.79 105.309Z" fill="#8A86B2"/>
<path d="M1173.77 76.7208L1176.59 75.283C1174.24 68.4798 1174 60.8829 1176.39 53.522C1182.24 35.5269 1201.64 25.6364 1219.64 31.4858C1227 33.8775 1233 38.5359 1237.13 44.4384L1239.95 43.0006C1235.44 36.3878 1228.8 31.1578 1220.62 28.499C1200.98 22.1154 1179.8 32.9065 1173.41 52.5531C1170.74 60.7412 1171.07 69.1922 1173.77 76.7208Z" fill="#8A86B2"/>
<path d="M1224.76 15.7076C1211.97 11.5507 1198.7 12.777 1187.4 18.1009C1186.45 18.5454 1185.52 19.0272 1184.6 19.5287L1186.03 22.3307L1187.64 25.509C1178.2 30.7367 1170.64 39.3993 1167.05 50.4519C1163.11 62.5583 1164.72 75.1518 1170.45 85.4901L1173.25 84.0624C1173.25 84.0624 1173.25 84.0624 1173.25 84.0525L1176.38 82.4583C1180.82 90.3886 1188.14 96.7316 1197.44 99.7546C1217.09 106.138 1238.27 95.3471 1244.65 75.7005C1247.68 66.3965 1246.85 56.7491 1243.04 48.4909C1243.05 48.4835 1243.04 48.481 1243.04 48.4736L1243.04 48.4637L1246.21 46.8442L1249.02 45.4165C1248.58 44.4731 1248.1 43.5499 1247.6 42.6442C1242.37 33.2265 1233.72 25.681 1222.69 22.0971C1211.65 18.5132 1200.22 19.5318 1190.45 24.0738L1188.83 20.8955C1199.41 15.9324 1211.82 14.7995 1223.79 18.6894C1248.8 26.8164 1262.53 53.7749 1254.41 78.7797C1250.52 90.7515 1242.31 100.122 1232.07 105.769L1230.48 102.64C1239.9 97.4047 1247.44 88.7522 1251.03 77.722C1254.27 67.738 1253.74 57.4199 1250.25 48.312L1247.43 49.7498C1250.57 58.1397 1251.01 67.5962 1248.04 76.7582C1244.37 88.035 1236.25 96.6397 1226.26 101.275L1229.28 107.206C1218.69 112.169 1206.29 113.302 1194.31 109.412C1169.31 101.288 1155.57 74.3267 1163.7 49.3219C1167.24 38.4262 1174.35 29.6751 1183.32 23.939L1181.89 21.1271C1172.2 27.2339 1164.52 36.6329 1160.71 48.3506C1152.05 75.007 1166.69 103.74 1193.34 112.401C1206.14 116.558 1219.4 115.332 1230.71 110.008C1231.65 109.564 1232.58 109.082 1233.51 108.58C1244.46 102.571 1253.25 92.5547 1257.4 79.7609C1266.07 53.1045 1251.42 24.3713 1224.76 15.7076ZM1221.71 25.0938C1231.92 28.4106 1239.93 35.377 1244.8 44.0794L1241.62 45.6988L1238.82 47.1265C1239.34 48.0395 1239.81 48.9702 1240.25 49.9285C1243.68 57.4639 1244.43 66.2572 1241.67 74.7391C1235.82 92.7342 1216.42 102.625 1198.42 96.7753C1189.94 94.0194 1183.26 88.2554 1179.19 81.0405C1178.67 80.13 1178.19 79.1968 1177.76 78.2385L1174.96 79.6662L1171.83 81.2604C1167.65 72.2099 1166.72 61.6314 1170.04 51.4232C1177.03 29.9182 1200.21 18.108 1221.71 25.0938Z" fill="#8A86B2"/>
<path fill-rule="evenodd" clip-rule="evenodd" d="M1215.92 47.5906C1212.69 46.8477 1209.95 47.0381 1206.54 48.2406C1205.2 48.7131 1204.33 49.1087 1203.39 49.6716C1201.54 50.7827 1200.07 52.0796 1198.77 53.7642L1198.26 54.4192L1195.7 53.5891L1193.15 52.7591L1192.54 54.6373L1191.93 56.5154L1194.03 57.2184L1196.14 57.9213L1195.59 59.7483C1195.29 60.7532 1195.04 61.6496 1195.05 61.7404L1195.05 61.9053L1192.85 61.1894L1190.64 60.4734L1189.98 62.5173L1189.31 64.5613L1192.05 65.4501L1194.78 66.3389L1194.82 67.1328C1194.86 68.1556 1195.15 69.8646 1195.47 70.9113C1195.73 71.7767 1196.37 73.2913 1196.77 73.9883C1198.47 76.9641 1200.93 79.2766 1204.05 80.8439C1205.17 81.4026 1207.73 82.2166 1209.1 82.4477C1212.95 83.0948 1216.31 82.5582 1219.33 80.8148C1219.76 80.5661 1220.14 80.3325 1220.19 80.2958C1220.24 80.2527 1219.87 79.2971 1219.16 77.616L1218.06 75.0031L1217.29 75.3474C1215.86 75.9956 1213.77 76.6511 1212.64 76.8055C1211.99 76.8957 1211.18 76.8949 1210.35 76.8034C1209.7 76.7328 1209.39 76.6528 1208.09 76.232C1206.4 75.6852 1205.93 75.4517 1204.88 74.6307C1203.22 73.3399 1202.08 71.4515 1201.57 69.1085L1201.47 68.6571L1207.14 70.4985L1212.8 72.3398L1213.47 70.2962L1214.13 68.2525L1207.84 66.1907L1201.56 64.1288L1201.59 63.8474C1201.6 63.6926 1201.84 62.8106 1202.12 61.8875L1202.62 60.2091L1209.01 62.2855L1215.4 64.3618L1216.06 62.3178L1216.73 60.2739L1210.89 58.3789C1207.69 57.3367 1205.07 56.4662 1205.07 56.4444C1205.11 56.3216 1206.41 55.2528 1207.01 54.8489C1208.58 53.7919 1210.68 53.1378 1212.48 53.1438C1213.62 53.1475 1214.38 53.2885 1215.81 53.757C1217.3 54.2457 1218.38 54.745 1219.21 55.3255C1220.26 56.0691 1221.43 57.5314 1222.47 59.4309L1223.13 60.6158L1225.57 59.0756C1227.6 57.7954 1228.01 57.5115 1227.99 57.3947C1227.94 57.1734 1226.78 55.0793 1226.38 54.5011C1225.82 53.6966 1224.97 52.7061 1224.21 51.9942C1222.37 50.2466 1220.4 49.0942 1217.67 48.1554C1216.88 47.885 1216.09 47.6309 1215.92 47.5906Z" fill="#8A86B2"/>
<path d="M710.369 239.008C709.244 237.394 708.006 235.844 706.662 234.368C695.685 222.34 681.334 217.249 664.94 213.839C648.007 210.317 628.181 209.223 611.923 215.571C608.096 217.083 604.46 219.078 601.584 221.799C590.706 232.049 586.974 249.217 574.861 262.787C562.748 276.357 556.84 293.262 567.714 309.308C572.317 316.103 578.186 321.702 585.129 326.629C593.677 332.675 601.051 340.855 610.932 345.586C621.315 350.556 635.144 352.288 646.637 350.012C659.747 347.415 667.436 337.089 677.443 330.06C685.333 324.51 694.773 320.877 702.503 315.151C714.348 306.384 723.33 292.279 721.838 278.304C720.372 264.737 718.486 250.638 710.369 239.008Z" fill="#F9F8FE"/>
<path d="M659.702 264.053C661.949 261.855 662.883 258.784 661.921 255.43C660.425 250.211 655.239 247.921 647.095 250.248L645.408 244.364L639.614 246.025L641.302 251.909L638.114 252.823L636.89 253.174L635.203 247.29L629.41 248.952L631.097 254.835L625.855 256.339L627.551 262.253L632.801 260.748L639.023 282.448L633.774 283.953L635.469 289.867L640.711 288.364L642.375 294.165L648.168 292.504L646.505 286.703L647.728 286.352L650.916 285.438L652.579 291.239L658.372 289.578L656.709 283.777L657.608 283.519C666.188 281.059 669.706 276.421 668.042 270.62C666.836 266.413 663.679 264.212 659.702 264.053ZM638.382 259.147L639.81 258.738L639.788 258.662L647.802 256.364C651.488 255.307 653.86 256.025 654.616 258.661C655.372 261.297 653.756 263.215 650.07 264.272L640.628 266.98L638.382 259.147ZM655.375 277.841L646.054 280.514L646.035 280.446L644.607 280.855L642.251 272.637L652.999 269.555C656.919 268.431 659.404 269.173 660.214 271.998C661.03 274.871 659.295 276.717 655.375 277.841Z" fill="#8A86B2"/>
<path d="M629.849 298.125L628.324 300.875C628.334 300.88 628.334 300.88 628.343 300.886L629.868 298.135C629.858 298.13 629.851 298.132 629.849 298.125Z" fill="#8A86B2"/>
<path d="M687.588 292.685L685.703 291.64L687.588 292.685Z" fill="#8A86B2"/>
<path d="M683.609 290.483L685.699 291.641L683.609 290.483Z" fill="#8A86B2"/>
<path d="M683.988 294.281L681.218 292.746C676.024 300.031 668.439 305.68 659.186 308.333C649.941 310.984 640.516 310.213 632.252 306.795L630.717 309.565C639.695 313.366 649.969 314.246 660.053 311.354C670.136 308.463 678.391 302.271 683.988 294.281Z" fill="#8A86B2"/>
<path d="M625.708 299.108L627.243 296.338C621.491 292.012 617.042 285.849 614.909 278.409C609.694 260.221 620.245 241.174 638.441 235.956C645.881 233.823 653.457 234.331 660.182 236.915L661.717 234.145C654.28 231.185 645.853 230.561 637.582 232.933C617.725 238.627 606.201 259.416 611.895 279.273C614.261 287.554 619.259 294.377 625.708 299.108Z" fill="#8A86B2"/>
<path d="M633.862 220.013C620.931 223.721 610.621 232.154 604.226 242.89C603.69 243.787 603.186 244.708 602.701 245.64L605.452 247.165L608.572 248.894C603.669 258.507 602.241 269.919 605.444 281.09C608.953 293.327 617.329 302.867 627.86 308.235L629.384 305.484C629.384 305.484 629.384 305.484 629.375 305.479L631.077 302.407C639.197 306.496 648.81 307.663 658.214 304.967C678.071 299.273 689.595 278.483 683.901 258.626C681.204 249.222 675.12 241.689 667.35 236.969C667.348 236.961 667.34 236.963 667.338 236.956L667.329 236.95L669.058 233.831L670.583 231.08C669.693 230.542 668.781 230.043 667.861 229.572C658.255 224.691 646.862 223.274 635.714 226.471C624.565 229.668 615.655 236.907 610.094 246.136L606.974 244.407C612.974 234.373 622.626 226.497 634.726 223.027C660.007 215.778 686.464 230.45 693.711 255.723C697.181 267.823 695.616 280.182 690.286 290.587L687.215 288.885C692.095 279.279 693.512 267.886 690.316 256.737C687.422 246.646 681.212 238.389 673.223 232.792L671.688 235.561C678.983 240.761 684.641 248.351 687.296 257.611C690.565 269.009 688.641 280.686 682.95 290.116L688.771 293.343C682.771 303.377 673.12 311.253 661.02 314.723C635.746 321.97 609.281 307.3 602.034 282.027C598.877 271.015 599.882 259.781 604.11 250.01L601.349 248.48C596.736 258.958 595.617 271.05 599.013 282.893C606.739 309.836 634.944 325.47 661.886 317.744C674.817 314.037 685.126 305.604 691.522 294.868C692.057 293.97 692.562 293.049 693.047 292.117C698.764 281.012 700.45 267.793 696.742 254.862C689.017 227.92 660.812 212.285 633.862 220.013ZM636.582 229.5C646.9 226.541 657.44 227.835 666.339 232.33L664.609 235.45L663.085 238.2C664.027 238.665 664.941 239.172 665.835 239.725C672.896 244.051 678.431 250.925 680.889 259.498C686.105 277.686 675.553 296.733 657.357 301.951C648.784 304.409 640.024 303.365 632.611 299.662C631.676 299.195 630.755 298.691 629.861 298.138L628.336 300.888L626.634 303.959C618.106 298.794 611.424 290.542 608.465 280.224C602.24 258.484 614.852 235.731 636.582 229.5Z" fill="#8A86B2"/>
<path d="M538.073 237.311C541.649 217.064 521.206 202.641 508.209 202.668C478.954 202.731 465.575 219.883 454.834 215.444C441.749 210.016 457.121 177.557 442.803 163.465C433.445 154.255 420.464 155.129 402.768 169.403C378.108 189.307 365.595 211.598 366.296 225.72C367.728 254.548 394.967 276.777 410.227 288.174C422.827 297.59 435.657 317.222 472.004 309.861C493.461 305.517 531.181 276.354 538.073 237.311Z" fill="#F9F8FE"/>
<path fill-rule="evenodd" clip-rule="evenodd" d="M413.402 173.354C412.705 173.462 411.843 174.078 411.563 174.669C411.439 174.93 410.543 178.194 409.571 181.922C407.86 188.489 407.811 188.717 408.009 189.214C408.333 190.025 408.799 190.516 409.512 190.796C410.384 191.138 411.252 191.008 412.011 190.422L412.614 189.957L414.123 184.502L415.633 179.046L421.111 180.466L426.59 181.887L427.294 181.597C428.967 180.909 429.414 179.005 428.249 177.526C427.917 177.105 427.707 177.038 420.919 175.182C415.345 173.659 413.824 173.289 413.402 173.354ZM475.204 189.914C473.606 190.161 472.595 192.013 473.271 193.457C473.806 194.601 473.935 194.656 479.728 196.208L485.004 197.622L483.578 203.122C482.21 208.399 482.16 208.643 482.356 209.136C482.746 210.111 483.173 210.497 484.152 210.76C485.132 211.022 485.695 210.901 486.519 210.251C486.943 209.917 486.999 209.739 488.877 202.728C490.756 195.717 490.797 195.535 490.597 195.033C490.484 194.751 490.238 194.325 490.05 194.086C489.718 193.664 489.509 193.598 482.72 191.742C477.146 190.219 475.625 189.848 475.204 189.914ZM419.532 183.966C418.894 184.066 418.231 184.474 417.856 184.995C417.671 185.252 416.905 187.885 415.624 192.663C413.459 200.745 413.476 200.63 414.295 201.691L414.761 202.295L422.275 204.349L429.789 206.404L430.499 206.218C430.893 206.114 431.44 205.798 431.727 205.509L432.243 204.987L434.221 197.451L436.199 189.915L435.909 189.21C435.399 187.968 435.515 188.014 427.377 185.84C421.619 184.302 419.941 183.901 419.532 183.966ZM443.068 190.269C442.441 190.366 441.517 190.977 441.237 191.48C440.724 192.402 440.862 193.611 441.584 194.528C441.907 194.938 442.163 195.028 446.162 196.146L450.398 197.33L449.581 200.383C448.843 203.143 448.781 203.487 448.943 203.972C449.366 205.246 450.713 206.015 451.954 205.691C453.403 205.312 453.729 204.664 455.182 199.261C456.237 195.339 456.264 194.814 455.461 193.84L455.04 193.329L449.318 191.758C444.797 190.516 443.486 190.204 443.068 190.269ZM462.739 195.54C462.042 195.648 461.179 196.264 460.9 196.855C460.777 197.116 459.817 200.617 458.767 204.635L456.859 211.941L457.13 212.599C457.661 213.894 457.505 213.831 465.646 216.012C473.786 218.193 473.62 218.17 474.727 217.314L475.291 216.879L477.356 209.171C479.377 201.628 479.417 201.453 479.217 200.95C479.104 200.668 478.858 200.242 478.67 200.003C478.337 199.58 478.134 199.516 470.798 197.514C464.773 195.869 463.162 195.475 462.739 195.54ZM429.259 196.3L428.096 200.638L423.76 199.476L419.423 198.314L420.585 193.976L421.747 189.638L426.084 190.8L430.421 191.962L429.259 196.3ZM472.473 207.879L471.311 212.217L466.974 211.055L462.637 209.893L463.799 205.555L464.962 201.218L469.298 202.38L473.635 203.542L472.473 207.879ZM424.513 192.605C423.355 192.779 422.459 193.808 422.362 195.073C422.306 195.81 422.994 197.029 423.662 197.375C424.745 197.936 426.092 197.654 426.856 196.707C428.327 194.881 426.828 192.258 424.513 192.605ZM467.727 204.185C465.625 204.5 464.873 207.155 466.477 208.601C467.149 209.207 467.69 209.341 468.655 209.139C471.835 208.476 470.942 203.702 467.727 204.185ZM441.015 198.695C440.214 198.76 439.762 198.984 439.27 199.562C438.944 199.945 438.656 200.882 437.267 206.063L435.646 212.116L424.896 209.282L414.146 206.447L413.441 206.737C411.755 207.43 411.306 209.324 412.478 210.8C412.827 211.239 412.889 211.257 425.247 214.569L437.666 217.896L438.287 217.664C438.629 217.536 439.115 217.181 439.367 216.874C439.793 216.356 439.963 215.802 441.779 209.036C442.935 204.725 443.73 201.515 443.727 201.166C443.72 200.431 443.117 199.396 442.469 199.007C441.86 198.641 441.81 198.63 441.015 198.695ZM448.793 207.789C447.124 208.12 446.286 209.98 447.125 211.488C447.982 213.027 450.038 213.257 451.231 211.948C451.721 211.41 451.975 210.078 451.714 209.415C451.265 208.273 449.973 207.554 448.793 207.789ZM457.613 216.832C456.808 216.783 456.128 217.077 455.562 217.721C454.744 218.65 454.685 219.687 455.384 220.817L455.753 221.414L463.632 223.526L471.511 225.637L472.13 225.304C472.832 224.927 473.389 224.287 473.555 223.669C473.74 222.979 473.423 221.795 472.906 221.243L472.431 220.736L465.313 218.802C461.398 217.738 457.933 216.852 457.613 216.832ZM447.273 215.571C447.007 215.582 446.575 215.706 446.312 215.846C445.318 216.376 445.258 216.514 444.027 221.106C442.935 225.184 442.888 225.424 443.051 226.063C443.145 226.433 443.445 226.953 443.718 227.219C444.206 227.696 444.345 227.739 452.603 229.952C461.77 232.408 461.456 232.355 462.501 231.625C463.989 230.586 463.773 228.247 462.106 227.364C461.715 227.157 458.884 226.328 455.063 225.302L448.675 223.586L449.191 221.607C450.072 218.232 450.082 217.433 449.26 216.41C448.889 215.949 447.927 215.543 447.273 215.571ZM467.938 229.287C467.099 229.589 466.35 230.487 466.243 231.32C466.081 232.572 466.887 233.779 468.102 234.105C469.317 234.43 470.619 233.788 471.105 232.623C471.438 231.825 471.218 230.597 470.63 229.973C470.026 229.331 468.732 229.001 467.938 229.287ZM410.838 217.972C409.801 218.194 409.29 218.637 408.941 219.615C408.611 220.543 408.793 221.338 409.528 222.183C409.933 222.649 410.101 222.714 412.726 223.417C415.755 224.229 416.293 224.26 417.082 223.67C418.18 222.848 418.474 221.464 417.792 220.325C417.257 219.431 416.764 219.186 414.021 218.451C411.83 217.864 411.544 217.821 410.838 217.972ZM422.148 220.977C421.261 221.221 420.757 221.677 420.442 222.52C420.107 223.418 420.182 224.102 420.704 224.883C421.46 226.017 422.836 226.29 424.071 225.55C424.651 225.203 424.789 225.021 425.059 224.243C425.317 223.5 425.338 223.222 425.178 222.69C424.801 221.432 423.391 220.635 422.148 220.977ZM429.253 222.868C427.852 223.187 426.967 224.769 427.434 226.119C427.771 227.094 428.509 227.647 430.014 228.05L431.279 228.389L428.397 239.31C425.559 250.066 425.519 250.239 425.72 250.745C426.107 251.716 426.538 252.107 427.501 252.365C428.23 252.561 428.512 252.555 429.051 252.333C430.402 251.778 430.138 252.537 433.788 238.73L437.063 226.343L436.773 225.638C436.315 224.522 435.949 224.326 432.732 223.472C430.241 222.811 429.821 222.738 429.253 222.868ZM442.789 232.309C441.212 232.355 439.992 234.18 440.522 235.701C440.983 237.027 440.261 236.773 454.147 240.494L466.609 243.833L467.226 243.62C468.285 243.256 468.839 242.659 469.017 241.69C469.205 240.668 468.983 240.029 468.196 239.318L467.607 238.787L455.439 235.541C448.746 233.755 443.054 232.301 442.789 232.309ZM407.86 227.495C407.165 227.599 406.301 228.215 406.021 228.807C405.898 229.068 404.936 232.576 403.885 236.603C402.026 243.718 401.978 243.938 402.177 244.437C402.29 244.719 402.536 245.145 402.724 245.384C403.059 245.809 403.23 245.862 410.772 247.883L418.479 249.948L419.138 249.677C420.452 249.137 420.378 249.326 422.57 240.951L424.535 233.446L424.264 232.787C423.732 231.492 423.893 231.556 415.723 229.374C409.975 227.839 408.273 227.432 407.86 227.495ZM417.594 239.832L416.432 244.169L412.095 243.007L407.758 241.845L408.921 237.507L410.083 233.17L414.42 234.332L418.757 235.494L417.594 239.832ZM437.631 240.87C436.512 241.198 435.705 242.262 435.757 243.339C435.815 244.554 436.514 245.399 437.73 245.725C440.066 246.351 441.799 243.493 440.205 241.646C439.628 240.978 438.46 240.626 437.631 240.87ZM444.359 242.728C443.468 243.027 442.64 244.014 442.558 244.875C442.47 245.806 443.047 246.89 443.877 247.353C444.567 247.738 448.163 248.719 452.654 249.748L455.422 250.382L456.121 249.993C457.356 249.305 457.836 247.993 457.283 246.812C456.748 245.668 456.786 245.684 450.617 244.031C445.028 242.533 444.974 242.522 444.359 242.728ZM463.666 248.801C463.005 248.886 462.314 249.267 461.895 249.776C461.504 250.252 461.328 250.737 460.697 253.083L459.956 255.831L451.486 253.562C443.236 251.351 442.997 251.296 442.268 251.436C440.247 251.822 439.536 254.38 441.067 255.76C441.575 256.217 441.868 256.304 451.811 258.924C461.908 261.585 462.04 261.616 462.558 261.411C462.846 261.298 463.301 261.016 463.568 260.786C464.044 260.375 464.077 260.28 465.266 255.843C466.455 251.406 466.474 251.307 466.267 250.713C465.946 249.795 465.477 249.301 464.658 249.019C464.254 248.881 463.808 248.782 463.666 248.801ZM412.851 236.128C411.178 236.405 410.227 238.27 410.98 239.796C411.796 241.448 413.996 241.701 415.167 240.277C415.419 239.97 415.672 239.545 415.729 239.332C415.897 238.706 415.628 237.558 415.19 237.027C414.696 236.43 413.593 236.005 412.851 236.128ZM396.839 235.168C396.144 235.272 395.281 235.889 395.001 236.48C394.877 236.742 393.981 240.006 393.009 243.734C391.297 250.301 391.248 250.529 391.447 251.026C391.559 251.308 391.805 251.734 391.994 251.973C392.328 252.397 392.506 252.453 399.516 254.331C406.525 256.209 406.707 256.25 407.209 256.05C408.184 255.661 408.57 255.233 408.833 254.254C409.095 253.274 408.974 252.711 408.324 251.886C407.996 251.47 407.76 251.391 402.513 249.939L397.043 248.426L398.463 242.946L399.884 237.467L399.594 236.763C399.127 235.626 398.028 234.989 396.839 235.168ZM471.197 255.083C470.552 255.195 469.891 255.604 469.518 256.121C469.339 256.371 468.725 258.421 467.829 261.765L466.422 267.016L460.923 265.59C455.647 264.222 455.402 264.172 454.91 264.369C453.935 264.758 453.549 265.185 453.286 266.165C453.024 267.145 453.145 267.708 453.795 268.533C454.129 268.956 454.307 269.012 461.317 270.89C468.327 272.769 468.509 272.809 469.01 272.609C469.292 272.497 469.718 272.251 469.957 272.062C470.381 271.728 470.437 271.55 472.315 264.539C474.194 257.528 474.234 257.346 474.034 256.845C473.922 256.563 473.684 256.147 473.506 255.921C473.095 255.4 471.89 254.963 471.197 255.083Z" fill="#8A86B2"/>
<path d="M901.5 292.5C887.706 307.746 867.052 297.736 855.821 290.172C839.052 278.878 827.095 265.259 817 259.5C804.685 252.498 794.096 272.5 774.183 269.839C761.169 268.101 753.895 257.313 754.31 234.582C754.897 202.897 764.823 179.34 776.404 171.228C800.047 154.673 834.312 162.544 852.675 167.602C867.842 171.774 893.513 167.781 910 201C919.735 220.609 928.103 263.103 901.5 292.5Z" fill="#F9F8FE"/>
<path fill-rule="evenodd" clip-rule="evenodd" d="M793.994 188.685C791.871 190.2 790.518 192.819 790.437 195.571L790.397 196.931L808.169 243.857L825.941 290.783L826.872 291.775C828.791 293.821 831.518 294.855 834.196 294.553C836.234 294.324 883.234 276.524 884.913 275.346C887.119 273.797 888.476 271.217 888.559 268.413L888.598 267.053L870.826 220.127L853.054 173.201L852.124 172.209C850.204 170.163 847.478 169.129 844.8 169.431C842.825 169.653 795.566 187.563 793.994 188.685ZM846.208 172.76C847.006 172.852 847.937 173.172 848.544 173.564L849.553 174.216L850.835 177.396L852.117 180.576L824.051 191.205L795.985 201.835L794.839 198.603L793.692 195.371L794.017 194.215C794.211 193.52 794.697 192.663 795.234 192.066L796.127 191.073L820.504 181.841L844.881 172.609L846.208 172.76ZM814.665 187.906C814.196 188.461 814.152 188.774 814.436 189.535C814.853 190.653 816.28 190.915 817.083 190.021C817.613 189.433 817.669 189.124 817.386 188.376C817.106 187.636 816.854 187.433 816.11 187.348C815.424 187.269 815.096 187.396 814.665 187.906ZM821.037 185.492C820.572 186.043 820.524 186.361 820.797 187.084C821.321 188.467 821.918 188.444 826.055 186.877C830.191 185.31 830.654 184.933 830.13 183.549C829.604 182.161 829.012 182.186 824.836 183.777C822.657 184.607 821.248 185.243 821.037 185.492ZM866.352 218.252L879.435 252.796L856.801 261.369C834.006 270.002 833.561 270.186 833.35 271.059C833.261 271.431 833.683 272.546 833.997 272.765C834.733 273.28 835.188 273.123 857.992 264.487L880.635 255.911L882.969 262.262L885.303 268.612L884.979 269.769C884.784 270.465 884.299 271.321 883.762 271.918L882.869 272.911L858.491 282.143L834.114 291.375L832.788 291.223C831.989 291.132 831.059 290.812 830.452 290.42L829.443 289.767L826.985 283.464L824.527 277.161L826.992 276.227C830.091 275.053 830.601 274.568 830.106 273.263C829.612 271.959 828.908 271.932 825.819 273.102L823.362 274.033L810.279 239.489L797.197 204.945L825.233 194.327L853.269 183.708L866.352 218.252ZM851.856 271.034C851.318 271.632 850.834 272.487 850.639 273.184C850.338 274.259 850.361 274.463 850.97 276.069C851.578 277.675 851.695 277.843 852.633 278.449C853.949 279.3 855.933 279.543 857.309 279.022C858.686 278.5 860.011 277.004 860.433 275.495C860.734 274.42 860.711 274.216 860.103 272.61C859.494 271.004 859.377 270.836 858.439 270.23C857.123 269.379 855.139 269.136 853.763 269.657C853.068 269.921 852.468 270.353 851.856 271.034ZM855.74 272.751C856.485 272.837 856.736 273.039 857.016 273.779C857.3 274.527 857.243 274.836 856.714 275.425C855.91 276.318 854.484 276.056 854.067 274.939C853.783 274.177 853.827 273.864 854.296 273.309C854.727 272.799 855.054 272.673 855.74 272.751Z" fill="#8A86B2"/>
<path d="M137.535 23.9272C131.628 17.8745 124.786 12.892 117.291 9.18684C106.128 3.7691 93.8203 1.16097 81.5342 1.00345C45.5972 0.552889 42.861 44.3564 31.8106 50.4554C20.7601 56.5545 0.742116 57.2652 0.0360154 81.6248C-0.398237 96.9476 3.05107 112.706 12.7458 124.644C21.625 135.579 34.6667 141.128 47.5178 145.213C61.9505 149.814 77.2552 154.323 92.4364 151.22C108.016 148.037 118.961 135.238 131.752 126.589C139.809 121.142 147.039 115.41 152.014 106.67C152.607 105.629 153.165 104.56 153.694 103.479C160.353 89.9035 161.659 74.24 157.987 59.5473C154.697 46.3491 147.258 33.7956 137.535 23.9272Z" fill="#F9F8FE"/>
<path fill-rule="evenodd" clip-rule="evenodd" d="M84.9384 23.0455C82.8438 22.8483 80.6284 23.7418 79.1134 25.3951L78.3648 26.2122L64.1498 64.5997L49.9348 102.987L49.9707 104.095C50.0451 106.378 51.1477 108.468 52.9328 109.708C54.291 110.652 92.2765 124.719 93.922 124.887C96.0847 125.108 98.2824 124.24 99.8258 122.556L100.574 121.739L114.789 83.3517L129.004 44.9642L128.968 43.8566C128.894 41.5735 127.792 39.4838 126.006 38.243C124.69 37.328 86.4891 23.1915 84.9384 23.0455ZM125.087 41.0455C125.522 41.5267 125.917 42.2203 126.076 42.7848L126.34 43.7239L125.424 46.3667L124.508 49.0097L101.825 40.6101L79.1417 32.2104L80.168 29.6082L81.194 27.0061L82.0066 26.4659C82.495 26.1411 83.2458 25.8715 83.8895 25.7899L84.96 25.654L104.662 32.9496L124.363 40.2452L125.087 41.0455ZM97.8902 33.577C97.3099 33.6693 97.1165 33.8388 96.8832 34.4593C96.5408 35.3703 97.2667 36.2918 98.2298 36.169C98.8643 36.088 99.0632 35.928 99.2898 35.3158C99.5139 34.7107 99.4694 34.452 99.0631 34.0026C98.6889 33.5888 98.4232 33.4924 97.8902 33.577ZM103.04 35.484C102.464 35.5755 102.266 35.7461 102.047 36.3368C101.628 37.4687 102.002 37.772 105.345 39.0101C108.689 40.2481 109.17 40.2617 109.589 39.1298C110.01 37.9942 109.638 37.6946 106.258 36.45C104.494 35.8008 103.301 35.4424 103.04 35.484ZM113.074 79.8129L102.61 108.072L84.3169 101.298C65.894 94.4756 65.526 94.3519 64.9335 94.778C64.681 94.9598 64.3433 95.8715 64.4166 96.1739C64.5886 96.8834 64.9483 97.029 83.3785 103.854L101.679 110.63L99.7119 115.788L97.7454 120.945L96.9327 121.485C96.4438 121.81 95.6938 122.08 95.0496 122.161L93.9792 122.297L74.2775 115.002L54.5758 107.706L53.8521 106.906C53.4165 106.424 53.0229 105.731 52.8636 105.166L52.599 104.227L54.4656 99.0327L56.332 93.8384L58.3245 94.5762C60.8292 95.5037 61.3964 95.4762 61.7919 94.4083C62.187 93.3413 61.774 92.9499 59.2773 92.0253L57.2918 91.2901L67.7561 63.0315L78.2204 34.7728L100.879 43.1636L123.538 51.5543L113.074 79.8129ZM76.1702 104.62C75.5256 104.702 74.7763 104.971 74.287 105.297C73.5317 105.8 73.4371 105.938 72.9507 107.251C72.4643 108.565 72.446 108.731 72.6919 109.605C73.0367 110.83 74.1105 112.036 75.2231 112.448C76.3356 112.86 77.9362 112.644 78.9959 111.939C79.7512 111.437 79.8457 111.298 80.3321 109.985C80.8185 108.671 80.8368 108.505 80.591 107.631C80.2461 106.406 79.1723 105.2 78.0598 104.788C77.4981 104.58 76.9041 104.527 76.1702 104.62ZM77.6109 107.748C78.0173 108.197 78.0618 108.456 77.8377 109.061C77.611 109.673 77.4122 109.833 76.7777 109.914C75.8146 110.037 75.0887 109.115 75.4311 108.205C75.6644 107.584 75.8577 107.415 76.4381 107.322C76.9711 107.238 77.2367 107.334 77.6109 107.748Z" fill="#8A86B2"/>
</svg>
