<svg width="428" height="680" viewBox="0 0 428 680" fill="none" xmlns="http://www.w3.org/2000/svg">
<g opacity="0.8">
<path d="M259.603 391.288L579.336 573.005L320.732 658.471L1 476.754L259.603 391.288Z" stroke="#8F9294" stroke-width="0.8412" stroke-miterlimit="10" stroke-linecap="round" stroke-linejoin="round"/>
<path d="M259.603 391.288L579.336 573.005L320.732 658.471L1 476.754L259.603 391.288Z" stroke="#8F9294" stroke-width="0.8412" stroke-miterlimit="10" stroke-linecap="round" stroke-linejoin="round"/>
<path d="M357.982 14.6836L677.667 196.4L419.111 281.866L99.3789 100.15L357.982 14.6836Z" stroke="#8F9294" stroke-width="0.8412" stroke-miterlimit="10" stroke-linecap="round" stroke-linejoin="round"/>
<path d="M357.982 14.6836L677.667 196.4L419.111 281.866L99.3789 100.15L357.982 14.6836Z" stroke="#8F9294" stroke-width="0.8412" stroke-miterlimit="10" stroke-linecap="round" stroke-linejoin="round"/>
<path d="M357.989 14.6836L677.673 196.4L579.342 573.004L259.609 391.288L357.989 14.6836Z" stroke="#8F9294" stroke-width="0.8412" stroke-miterlimit="10" stroke-linecap="round" stroke-linejoin="round"/>
<path d="M357.989 14.6836L677.673 196.4L579.342 573.004L259.609 391.288L357.989 14.6836Z" stroke="#8F9294" stroke-width="0.8412" stroke-miterlimit="10" stroke-linecap="round" stroke-linejoin="round"/>
<path d="M419.111 281.863L320.732 658.467L1 476.75L99.3792 100.146L419.111 281.863Z" stroke="#8F9294" stroke-width="0.8412" stroke-miterlimit="10" stroke-linecap="round" stroke-linejoin="round"/>
<path d="M419.111 281.863L320.732 658.467L1 476.75L99.3792 100.146L419.111 281.863Z" stroke="#8F9294" stroke-width="0.8412" stroke-miterlimit="10" stroke-linecap="round" stroke-linejoin="round"/>
<path d="M99.3792 100.151L357.983 14.6846L259.603 391.288L1 476.754L99.3792 100.151Z" stroke="#8F9294" stroke-width="0.8412" stroke-miterlimit="10" stroke-linecap="round" stroke-linejoin="round"/>
<path d="M99.3792 100.151L357.983 14.6846L259.603 391.288L1 476.754L99.3792 100.151Z" stroke="#8F9294" stroke-width="0.8412" stroke-miterlimit="10" stroke-linecap="round" stroke-linejoin="round"/>
<path d="M677.665 196.404L579.334 573.008L320.73 658.474L419.11 281.87L677.665 196.404Z" stroke="#FAFF00" stroke-width="0.8412" stroke-miterlimit="10" stroke-linecap="round" stroke-linejoin="round"/>
<path d="M677.665 196.404L579.334 573.008L320.73 658.474L419.11 281.87L677.665 196.404Z" stroke="#FAFF00" stroke-width="0.8412" stroke-miterlimit="10" stroke-linecap="round" stroke-linejoin="round"/>
<path d="M372 14.5C372 22.5148 365.515 29 357.5 29C349.485 29 343 22.5148 343 14.5C343 6.48529 349.485 0 357.5 0C365.515 0 372 6.48529 372 14.5Z" fill="#3E1BDB"/>
<path opacity="0.57" d="M725.001 264.639L636.651 602.78L404.457 679.561L492.807 341.372L725.001 264.639Z" fill="#323247"/>
</g>
</svg>
