<svg width="554" height="680" viewBox="0 0 554 680" fill="none" xmlns="http://www.w3.org/2000/svg">
<g opacity="0.8">
<path d="M294.397 391.288L-25.3358 573.005L233.268 658.471L553 476.754L294.397 391.288Z" stroke="#8F9294" stroke-width="0.8412" stroke-miterlimit="10" stroke-linecap="round" stroke-linejoin="round"/>
<path d="M294.397 391.288L-25.3358 573.005L233.268 658.471L553 476.754L294.397 391.288Z" stroke="#8F9294" stroke-width="0.8412" stroke-miterlimit="10" stroke-linecap="round" stroke-linejoin="round"/>
<path d="M196.018 14.6836L-123.667 196.4L134.889 281.866L454.621 100.15L196.018 14.6836Z" stroke="#8F9294" stroke-width="0.8412" stroke-miterlimit="10" stroke-linecap="round" stroke-linejoin="round"/>
<path d="M196.018 14.6836L-123.667 196.4L134.889 281.866L454.621 100.15L196.018 14.6836Z" stroke="#8F9294" stroke-width="0.8412" stroke-miterlimit="10" stroke-linecap="round" stroke-linejoin="round"/>
<path d="M196.011 14.6836L-123.673 196.4L-25.3419 573.004L294.391 391.288L196.011 14.6836Z" stroke="#8F9294" stroke-width="0.8412" stroke-miterlimit="10" stroke-linecap="round" stroke-linejoin="round"/>
<path d="M196.011 14.6836L-123.673 196.4L-25.3419 573.004L294.391 391.288L196.011 14.6836Z" stroke="#8F9294" stroke-width="0.8412" stroke-miterlimit="10" stroke-linecap="round" stroke-linejoin="round"/>
<path d="M134.889 281.863L233.268 658.467L553 476.75L454.621 100.146L134.889 281.863Z" stroke="#8F9294" stroke-width="0.8412" stroke-miterlimit="10" stroke-linecap="round" stroke-linejoin="round"/>
<path d="M134.889 281.863L233.268 658.467L553 476.75L454.621 100.146L134.889 281.863Z" stroke="#8F9294" stroke-width="0.8412" stroke-miterlimit="10" stroke-linecap="round" stroke-linejoin="round"/>
<path d="M454.621 100.151L196.017 14.6846L294.397 391.288L553 476.754L454.621 100.151Z" stroke="#8F9294" stroke-width="0.8412" stroke-miterlimit="10" stroke-linecap="round" stroke-linejoin="round"/>
<path d="M454.621 100.151L196.017 14.6846L294.397 391.288L553 476.754L454.621 100.151Z" stroke="#8F9294" stroke-width="0.8412" stroke-miterlimit="10" stroke-linecap="round" stroke-linejoin="round"/>
<path d="M-123.665 196.404L-25.3341 573.008L233.27 658.474L134.89 281.87L-123.665 196.404Z" stroke="#FAFF00" stroke-width="0.8412" stroke-miterlimit="10" stroke-linecap="round" stroke-linejoin="round"/>
<path d="M-123.665 196.404L-25.3341 573.008L233.27 658.474L134.89 281.87L-123.665 196.404Z" stroke="#FAFF00" stroke-width="0.8412" stroke-miterlimit="10" stroke-linecap="round" stroke-linejoin="round"/>
<path d="M182 14.5C182 22.5148 188.485 29 196.5 29C204.515 29 211 22.5148 211 14.5C211 6.48529 204.515 0 196.5 0C188.485 0 182 6.48529 182 14.5Z" fill="#3E1BDB"/>
<path opacity="0.57" d="M-171.001 264.639L-82.6509 602.78L149.543 679.561L61.1927 341.372L-171.001 264.639Z" fill="#323247"/>
</g>
</svg>
