<svg width="443" height="528" viewBox="0 0 443 528" fill="none" xmlns="http://www.w3.org/2000/svg">
<rect x="0.5" y="0.5" width="442" height="527" rx="9.5" fill="white" stroke="url(#paint0_linear_7_20746)"/>
<g clip-path="url(#clip0_7_20746)">
<path d="M246.937 405.584H196.727L171.624 361.736L196.727 317.887H246.937L272.039 361.736L246.937 405.584ZM197.915 403.512H245.749L269.668 361.736L245.749 319.959H197.915L173.995 361.736L197.915 403.512Z" fill="#111111"/>
<path d="M230.825 363.579C230.484 363.621 229.871 363.911 229.592 364.416C229.382 364.794 229.506 365.287 229.88 365.502C230.003 365.573 230.138 365.606 230.27 365.606C230.537 365.606 230.792 365.469 230.936 365.212C230.96 365.187 231.034 365.142 231.022 365.137C231.449 365.084 231.753 364.69 231.7 364.259C231.642 363.832 231.252 363.526 230.825 363.579Z" fill="#FFDE3B"/>
<path d="M214.084 361.57C214.08 361.487 214.084 361.396 214.113 361.304C214.084 361.391 214.076 361.483 214.084 361.57Z" fill="#FFDE3B"/>
<path d="M214.084 361.57C214.08 361.487 214.084 361.396 214.113 361.304C214.084 361.391 214.076 361.483 214.084 361.57Z" fill="#FFDE3B"/>
<path d="M214.092 361.609C214.092 361.596 214.084 361.583 214.084 361.57C214.084 361.583 214.088 361.596 214.092 361.609Z" fill="#FFDE3B"/>
<path d="M214.092 361.609C214.092 361.596 214.084 361.583 214.084 361.57C214.084 361.583 214.088 361.596 214.092 361.609Z" fill="#FFDE3B"/>
<path d="M253.922 375.662C252.332 375.559 251.173 374.465 250.857 374.133C250.442 373.698 249.184 371.85 248.174 370.367C247.376 369.198 246.69 368.187 246.349 367.756C245.72 366.965 244.599 363.538 244.36 362.32C244.315 362.092 244.295 361.822 244.29 361.536C245.478 361.118 247.701 361.031 248.26 361.134C248.7 361.213 249.131 361.499 249.805 362.158C250.36 362.697 250.828 362.871 251.251 362.871C251.559 362.871 251.843 362.78 252.118 362.672C252.562 362.498 252.969 362.009 253.244 361.607C253.783 361.557 254.292 361.251 254.736 360.927C255.467 360.389 255.549 359.506 254.982 358.304C254.867 358.06 254.723 357.733 254.563 357.376C254.391 356.983 254.198 356.556 254.009 356.146C253.622 355.317 253.257 354.691 252.71 354.322C252.599 354.248 252.266 353.945 252.003 353.705C251.814 353.535 251.613 353.353 251.42 353.179C251.473 353.029 251.514 352.88 251.527 352.727C251.555 352.333 251.432 351.973 251.169 351.691C250.955 351.459 250.557 351.194 249.871 351.215C249.513 351.227 249.115 351.331 248.72 351.492C247.697 351.21 246.012 351.215 245.437 351.239C245.055 351.26 244.434 351.277 243.769 351.297C242.733 351.331 241.558 351.368 240.974 351.413C240.099 351.484 239.01 351.451 238.591 351.401C238.246 351.36 237.884 351.277 237.506 351.186C236.828 351.028 236.056 350.842 235.164 350.871C233.796 350.904 232.448 351.741 231.803 352.143L231.663 352.23C231.404 352.383 230.122 352.578 228.7 352.545C226.851 352.499 221.719 352.151 220.244 351.989C219.853 351.948 219.286 351.832 218.633 351.699C216.866 351.339 214.45 350.85 212.21 351.074C209.63 351.331 207.094 352.014 204.682 353.108L204.128 353.365C202.357 354.181 199.924 355.3 197.385 355.11C195.223 354.944 191.57 353.796 191.57 350.514C191.57 348.762 193.575 347.858 194.434 347.858C195.782 347.858 196.994 348.936 197.101 349.234C197.101 349.797 196.986 350.17 196.896 350.469C196.768 350.887 196.575 351.521 197.154 352.068C197.619 352.503 198.617 352.731 199.48 352.35C200.191 352.039 201.034 351.248 201.034 349.234C201.034 345.608 197.113 343.922 194.463 343.922C191.726 343.922 187.761 346.271 187.761 350.514C187.761 354.807 190.588 357.994 195.133 358.831C198.346 359.423 200.499 359.129 202.048 358.582C201.605 359.987 200.943 361.967 200.384 363.21C199.439 365.307 197.068 368.262 196.694 368.556C196.596 368.622 196.481 368.693 196.357 368.763C195.811 369.09 195.133 369.496 194.915 370.188C194.775 370.64 193.132 374.701 192.532 376.155C191.977 377.502 192.523 378.252 192.963 378.857C193.062 378.994 193.173 379.139 193.275 379.304C193.797 380.141 194.771 380.485 195.605 380.485C195.963 380.485 196.3 380.419 196.563 380.303C197.561 379.856 197.475 378.43 197.282 377.846C197.167 377.506 196.891 377.274 196.542 376.98C196.448 376.901 196.312 376.785 196.213 376.69C196.485 376.018 197.434 374.378 197.689 374.112C198.001 373.826 199.521 372.782 200.734 372.086C201.995 371.365 204.843 369.48 206.203 368.498C206.967 367.947 207.674 367.338 208.179 366.878C208.701 367.814 208.956 368.469 208.972 368.684C209.149 371.858 209.022 372.538 208.993 372.641C208.96 372.766 208.911 372.886 208.861 373.01C208.603 373.657 208.163 374.738 209.404 376.097C209.954 376.698 212.995 379.806 214.203 380.071C214.228 380.075 215.863 380.369 217.359 380.369C218.362 380.369 219.307 380.237 219.66 379.797C220.042 379.325 220.108 378.65 219.841 378.032C219.529 377.315 218.851 376.86 218.029 376.81C217.647 376.785 217.314 376.818 217.018 376.847C216.398 376.909 216.057 376.943 215.518 376.495C215.181 376.213 214.281 375.467 214.22 375.248C214.351 374.68 215.411 370.607 215.789 369.563C215.843 369.409 215.917 369.223 215.995 369.016C216.34 368.104 216.677 367.176 216.915 366.302C217.877 366.567 219.59 366.969 221.534 367.126C223.482 367.284 224.895 367.118 226.033 366.989C226.198 366.969 226.346 366.956 226.498 366.94C226.288 367.818 226.009 369.065 225.906 369.985C225.82 370.735 225.758 371.879 225.705 372.886C225.664 373.694 225.606 374.701 225.573 374.871C225.401 375.389 225.655 375.886 225.902 376.371C225.984 376.536 226.124 376.81 226.14 376.905C226.165 377.129 226.469 378.832 226.987 379.317C227.447 379.744 229.21 379.951 230.023 379.951C230.139 379.951 230.233 379.947 230.303 379.938C231.421 379.814 232.259 378.985 232.164 378.09L232.156 377.978C232.119 377.568 232.037 376.611 230.632 376.524C230.422 376.512 230.233 376.512 230.069 376.512C230.011 376.512 229.95 376.512 229.892 376.512C229.867 376.441 229.839 376.367 229.814 376.288C229.67 375.894 229.539 375.517 229.608 375.19C229.744 374.576 230.763 371.771 231.281 370.524C231.667 369.6 232.575 367.806 232.97 367.043C233.167 367.018 233.368 366.989 233.561 366.965C234.005 366.911 234.42 366.857 234.786 366.786C235.345 366.683 235.978 366.455 236.425 366.273C237.395 367.491 239.08 369.273 239.828 369.853C240.276 370.201 241.11 371.009 241.915 371.788C242.791 372.637 243.621 373.441 244.073 373.768L244.405 374.009C246.107 375.223 247.044 376.018 247.196 376.367C247.672 377.456 250.355 379.408 251.391 379.582C251.403 379.586 252.118 379.686 252.965 379.686C254.132 379.686 255.562 379.495 255.812 378.588C255.977 377.999 256.067 377.154 255.591 376.478C255.336 376.143 254.851 375.724 253.922 375.662ZM192.125 346.984C192.113 346.71 191.956 346.478 191.735 346.35C192.499 345.873 193.321 345.592 194.019 345.509V345.563C194.019 345.878 194.204 346.147 194.471 346.271C194.451 346.271 194.43 346.267 194.41 346.267C193.703 346.271 192.873 346.524 192.125 346.984ZM199.451 349.221C199.451 350.079 199.254 350.663 198.893 350.867C198.708 350.97 198.498 350.966 198.354 350.949C198.358 350.941 198.358 350.933 198.363 350.925C198.474 350.568 198.638 350.025 198.638 349.226C198.638 348.998 198.564 348.749 198.428 348.5L198.506 348.422C198.81 348.115 198.81 347.618 198.506 347.307C198.202 347 197.709 347 197.401 347.307L197.372 347.336C196.711 346.835 195.86 346.441 194.977 346.317C195.305 346.234 195.552 345.956 195.568 345.608C197.311 345.956 199.451 347.083 199.451 349.221ZM190.588 347.291C190.621 347.564 190.781 347.792 191.015 347.908C190.724 348.235 190.477 348.608 190.296 349.018C190.079 349.039 189.873 349.143 189.737 349.338C189.487 349.69 189.569 350.183 189.918 350.436L189.984 350.481C189.984 350.489 189.984 350.494 189.984 350.498C189.984 351.206 190.107 351.849 190.329 352.433C190.046 352.495 189.824 352.702 189.75 352.984C189.458 352.226 189.302 351.393 189.302 350.498C189.302 349.163 189.832 348.094 190.588 347.291ZM190.198 353.92C190.288 353.958 190.383 353.978 190.485 353.978H190.568C190.765 353.978 190.941 353.896 191.081 353.775C191.488 354.306 191.993 354.762 192.565 355.143C192.281 355.064 191.969 355.147 191.767 355.387L191.669 355.503C191.648 355.528 191.64 355.557 191.624 355.586C191.048 355.101 190.568 354.546 190.198 353.92ZM192.922 356.444L192.951 356.411C193.21 356.104 193.185 355.661 192.922 355.375C193.912 355.963 195.067 356.349 196.259 356.547C196.238 356.564 196.213 356.572 196.197 356.593L195.922 356.887C195.803 357.016 195.749 357.173 195.729 357.331C195.618 357.31 195.511 357.297 195.392 357.277C194.484 357.103 193.653 356.821 192.922 356.444ZM228.367 373.814C227.973 373.897 227.562 373.984 227.55 373.959C227.55 373.914 227.579 373.76 227.718 373.615C227.842 373.487 228.014 373.412 228.191 373.412C227.759 373.412 227.41 373.764 227.41 374.199C227.41 374.581 227.685 374.887 228.047 374.958C227.92 375.691 228.146 376.346 228.318 376.826C228.355 376.93 228.392 377.03 228.421 377.129C228.725 378.09 229.551 378.082 230.048 378.086C230.184 378.086 230.336 378.086 230.508 378.094C230.533 378.094 230.554 378.099 230.57 378.099C230.57 378.103 230.57 378.111 230.57 378.115L230.574 378.173C230.512 378.235 230.348 378.343 230.102 378.372C229.666 378.414 228.487 378.244 228.031 378.115C227.899 377.8 227.706 377.096 227.665 376.731C227.624 376.354 227.439 375.998 227.262 375.65C227.196 375.521 227.102 375.335 227.065 375.227C227.127 374.937 227.159 374.386 227.237 372.969C227.242 372.869 227.25 372.77 227.254 372.666C227.34 372.699 227.431 372.72 227.525 372.72C227.616 372.72 227.71 372.704 227.8 372.666C227.895 372.629 227.961 372.608 228.01 372.592C228.191 372.53 228.298 372.488 228.511 372.347C228.873 372.111 228.98 371.626 228.746 371.257C228.511 370.893 228.031 370.785 227.665 371.021C227.591 371.071 227.591 371.071 227.509 371.096C227.463 371.112 227.406 371.133 227.336 371.158C227.361 370.785 227.39 370.437 227.422 370.159C227.533 369.181 227.874 367.731 228.076 366.911C228.413 366.956 228.758 367.027 229.099 367.097C229.678 367.222 230.27 367.346 230.854 367.346C230.911 367.346 230.969 367.338 231.026 367.338C230.599 368.191 230.081 369.244 229.806 369.911C229.444 370.806 228.774 372.604 228.367 373.814ZM254.337 377.958C253.811 378.119 252.311 378.148 251.625 378.032C251.062 377.925 248.852 376.304 248.601 375.737C248.313 375.078 247.442 374.311 246.049 373.284C246.271 373.035 246.32 372.662 246.144 372.364C246.144 372.364 246.041 372.186 245.975 371.916C245.877 371.494 245.453 371.233 245.034 371.336C244.689 371.419 244.463 371.726 244.451 372.065C244.032 371.684 243.477 371.15 242.971 370.657C242.696 370.387 242.429 370.13 242.17 369.882C242.211 369.886 242.248 369.902 242.293 369.898C242.725 369.861 243.041 369.484 243.008 369.049C242.975 368.659 242.758 368.456 242.626 368.365C242.265 368.117 241.878 368.233 241.628 368.307L241.472 368.353C241.237 368.419 241.069 368.585 240.978 368.788C240.904 368.726 240.822 368.651 240.757 368.601C240.621 368.498 240.457 368.349 240.276 368.179C240.276 368.179 240.276 368.179 240.276 368.175C240.28 368.15 240.284 368.125 240.284 368.1C240.502 367.889 240.588 367.565 240.477 367.263C240.3 366.766 239.89 366.629 239.59 366.662C239.351 366.687 239.191 366.799 239.068 366.944C238.168 365.966 237.284 364.913 237.14 364.619C236.758 363.844 234.987 362.311 234.457 361.86C234.129 361.578 233.635 361.623 233.356 361.955C233.081 362.286 233.122 362.784 233.45 363.065C234.182 363.687 235.012 364.458 235.452 364.947C235.127 365.063 234.774 365.175 234.478 365.233C234.408 365.245 234.334 365.257 234.26 365.266C234.457 364.947 234.416 364.528 234.128 364.267C233.808 363.977 233.315 364.006 233.027 364.333C232.846 364.541 232.522 364.938 232.407 365.262C232.374 365.349 232.37 365.436 232.37 365.527C232.008 365.581 231.634 365.647 231.26 365.734C230.784 365.846 230.126 365.705 229.436 365.556C229.013 365.465 228.581 365.378 228.137 365.328C228.203 365.22 228.273 365.108 228.347 365.005C228.593 364.648 228.511 364.159 228.158 363.907C227.805 363.658 227.32 363.741 227.069 364.097C226.609 364.752 226.465 365.129 226.42 365.357C226.227 365.378 226.042 365.394 225.832 365.419C224.986 365.518 223.971 365.626 222.701 365.601C222.742 365.547 222.779 365.489 222.804 365.419C222.952 365.013 222.746 364.557 222.339 364.408C221.431 364.072 220.7 364.992 220.42 365.415C219.044 365.224 217.869 364.934 217.191 364.744C217.215 364.491 217.228 364.246 217.211 364.018C217.182 363.583 216.804 363.256 216.381 363.285C216.147 363.302 215.95 363.426 215.814 363.6C215.728 363.413 215.568 363.26 215.358 363.19C215.321 363.177 215.235 363.157 215.124 363.136C215.066 363.128 214.943 363.103 214.853 363.078C214.668 362.871 214.376 362.771 214.084 362.842C213.665 362.945 213.41 363.372 213.513 363.795C213.677 364.47 214.429 364.607 214.906 364.694C214.972 364.71 215.042 364.719 215.107 364.719C215.309 364.719 215.494 364.632 215.637 364.499C215.6 365.001 215.461 365.614 215.276 366.235C215.243 366.086 215.185 365.945 215.074 365.829C214.873 365.589 214.491 365.146 213.949 365.237C213.649 365.286 213.398 365.494 213.283 365.788C213.123 366.19 213.316 366.65 213.718 366.811C213.776 366.836 213.838 366.853 213.899 366.861C213.94 366.907 213.973 366.944 213.994 366.965C214.142 367.114 214.335 367.188 214.532 367.188C214.713 367.188 214.894 367.114 215.042 366.985C214.857 367.532 214.664 368.046 214.516 368.44C214.433 368.655 214.359 368.85 214.302 369.012C214.277 369.082 214.248 369.169 214.216 369.264C214.15 369.02 214.059 368.705 214.018 368.597C213.862 368.199 213.423 368.013 213.024 368.162C212.625 368.311 212.424 368.763 212.564 369.169C212.601 369.281 212.712 369.687 212.782 369.96C212.872 370.313 213.188 370.549 213.538 370.549C213.603 370.549 213.669 370.541 213.735 370.524C213.78 370.512 213.813 370.483 213.854 370.466C213.743 370.851 213.628 371.266 213.513 371.688C213.414 371.527 213.262 371.394 213.069 371.336C212.654 371.216 212.223 371.456 212.104 371.875C212.001 372.227 212.12 372.571 212.531 373.147C212.658 373.325 212.847 373.412 213.049 373.445C212.868 374.141 212.728 374.693 212.683 374.883C212.428 375.977 213.439 376.818 214.507 377.705C215.543 378.563 216.435 378.476 217.145 378.409C217.408 378.385 217.655 378.36 217.918 378.376C218.173 378.393 218.3 378.505 218.362 378.596C218.395 378.646 218.411 378.691 218.419 378.728C217.671 378.878 215.292 378.695 214.536 378.53C214.022 378.364 211.857 376.462 210.538 375.024C209.967 374.402 210.069 374.15 210.296 373.599C210.374 373.408 210.443 373.222 210.493 373.035C210.538 372.857 210.665 372.36 210.583 370.052C210.595 370.085 210.608 370.105 210.616 370.122C210.756 370.404 211.043 370.574 211.335 370.574C211.45 370.574 211.561 370.549 211.672 370.495C212.058 370.3 212.223 369.849 212.03 369.459C212.001 369.384 211.927 369.074 211.865 368.8C211.771 368.373 211.352 368.104 210.937 368.199C210.756 368.241 210.612 368.349 210.505 368.481C210.431 367.777 209.819 366.542 209.083 365.34C209.096 365.34 209.108 365.34 209.12 365.34C209.49 365.303 209.774 365.009 209.819 364.652C209.848 364.586 209.913 364.47 209.971 364.387C210.209 364.027 210.111 363.538 209.753 363.297C209.396 363.057 208.911 363.152 208.672 363.517C208.487 363.799 208.385 364.014 208.331 364.184C207.16 362.489 205.2 359.158 205.18 359.125C204.958 358.752 204.481 358.628 204.111 358.847C203.741 359.067 203.618 359.552 203.836 359.925C203.918 360.061 205.849 363.347 207.057 365.092C207.16 365.237 207.247 365.373 207.341 365.514C206.873 365.949 206.104 366.629 205.291 367.213C204.974 367.441 204.571 367.723 204.128 368.025C204.21 367.615 203.963 367.209 203.557 367.11C203.141 367.006 202.714 367.259 202.611 367.681C202.521 368.05 202.509 368.369 202.509 368.527C202.509 368.705 202.579 368.862 202.677 368.995C201.625 369.691 200.573 370.358 199.957 370.71C199.645 370.889 199.295 371.1 198.946 371.324C198.938 371.274 198.93 371.233 198.926 371.208C198.901 370.793 198.564 370.466 198.145 370.466C197.713 370.466 197.364 370.818 197.364 371.253C197.364 371.398 197.385 371.862 197.561 372.239C197.138 372.534 196.797 372.791 196.624 372.952C196.246 373.304 194.516 376.052 194.586 376.88C194.631 377.431 195.092 377.817 195.54 378.19C195.626 378.26 195.745 378.36 195.815 378.43C195.84 378.567 195.844 378.77 195.823 378.894C195.527 378.948 194.866 378.894 194.599 378.463C194.471 378.26 194.344 378.086 194.225 377.92C193.838 377.394 193.76 377.282 193.978 376.76C194.389 375.762 196.23 371.241 196.407 370.665C196.476 370.52 196.92 370.255 197.154 370.114C197.298 370.027 197.438 369.944 197.561 369.861C197.841 369.67 198.453 368.978 199.143 368.079C199.164 368.266 199.205 368.498 199.242 368.684C199.316 369.061 199.641 369.322 200.006 369.322C200.056 369.322 200.105 369.318 200.154 369.31C200.577 369.227 200.853 368.813 200.771 368.386C200.771 368.382 200.697 368.017 200.688 367.868C200.68 367.437 200.335 367.093 199.908 367.093C199.891 367.093 199.879 367.101 199.862 367.101C200.618 366.028 201.366 364.831 201.806 363.857C202.792 361.665 204.004 357.534 204.058 357.355C204.148 357.049 204.045 356.717 203.795 356.518C203.548 356.32 203.203 356.291 202.928 356.448C201.736 357.123 200.162 357.745 197.438 357.546C197.606 357.273 197.594 356.937 197.405 356.676C198.026 356.713 198.63 356.688 199.217 356.618C199.25 356.734 199.299 356.85 199.386 356.945L199.567 357.14C199.719 357.31 199.932 357.397 200.142 357.397C200.331 357.397 200.52 357.326 200.668 357.19C200.918 356.958 200.976 356.597 200.849 356.299C201.81 356.046 202.706 355.706 203.52 355.354C203.614 355.578 203.799 355.76 204.054 355.818L204.345 355.884C204.403 355.897 204.461 355.905 204.514 355.905C204.871 355.905 205.196 355.657 205.274 355.288C205.328 355.047 205.254 354.811 205.114 354.633L205.319 354.538C206.022 354.219 206.733 353.954 207.456 353.713C207.448 354.086 207.69 354.422 208.064 354.5C208.118 354.513 208.171 354.517 208.224 354.517C208.586 354.517 208.911 354.26 208.989 353.891L209.063 353.535C209.083 353.431 209.083 353.332 209.063 353.237C209.535 353.117 210.008 353.005 210.48 352.913C210.427 353.104 210.423 353.299 210.48 353.485C210.583 353.817 210.854 354.065 211.22 354.165C211.29 354.186 211.36 354.194 211.426 354.194C211.771 354.194 212.083 353.966 212.177 353.614C212.239 353.39 212.198 353.166 212.083 352.984C212.083 352.88 212.058 352.785 212.017 352.69C212.132 352.677 212.247 352.652 212.362 352.64C213.02 352.574 213.706 352.586 214.392 352.636C214.018 352.64 213.686 352.897 213.62 353.278C213.57 353.581 213.694 353.871 213.92 354.041C213.949 354.132 213.994 354.223 214.059 354.302C214.216 354.492 214.438 354.592 214.664 354.592C214.836 354.592 215.013 354.534 215.157 354.413C215.469 354.152 215.6 353.784 215.506 353.423C215.366 352.893 214.848 352.71 214.614 352.652C215.28 352.71 215.937 352.806 216.566 352.913C216.492 352.963 216.422 353.021 216.369 353.1C216.172 353.382 216.18 353.75 216.369 354.02C216.361 354.231 216.435 354.447 216.595 354.608C216.747 354.762 216.948 354.84 217.145 354.84C217.343 354.84 217.544 354.762 217.696 354.608C217.906 354.397 218.012 354.107 217.988 353.813C217.967 353.564 217.856 353.324 217.676 353.125C217.893 353.166 218.107 353.212 218.308 353.253C219.003 353.394 219.599 353.514 220.059 353.564C220.272 353.589 220.572 353.614 220.922 353.647C221.004 354.036 221.205 354.434 221.456 354.6C221.587 354.691 221.739 354.733 221.887 354.733C222.138 354.733 222.389 354.608 222.537 354.38C222.66 354.198 222.685 353.983 222.639 353.784C223.856 353.871 225.245 353.962 226.449 354.028C226.395 354.256 226.366 354.509 226.416 354.737C226.494 355.11 226.831 355.391 227.196 355.391C227.246 355.391 227.295 355.387 227.348 355.375C227.772 355.284 228.043 354.898 227.952 354.476C227.952 354.442 227.973 354.364 227.985 354.322C228.022 354.252 228.039 354.177 228.055 354.107C228.273 354.115 228.478 354.123 228.647 354.128C229.666 354.152 231.577 354.07 232.399 353.614C232.489 353.949 232.777 354.202 233.138 354.202C233.57 354.202 233.919 353.85 233.919 353.415V352.847C233.919 352.826 233.911 352.81 233.907 352.789C234.165 352.677 234.433 352.582 234.7 352.524C234.696 352.557 234.679 352.586 234.679 352.619C234.679 353.054 235.028 353.407 235.46 353.407H235.624C236.056 353.407 236.405 353.054 236.405 352.619C236.405 352.603 236.397 352.586 236.397 352.57C236.643 352.615 236.89 352.669 237.14 352.731C237.547 352.826 237.966 352.922 238.398 352.976C238.772 353.021 239.413 353.046 240.074 353.038C240.013 353.088 239.951 353.141 239.906 353.212L239.799 353.378C239.565 353.742 239.668 354.231 240.029 354.467C240.161 354.554 240.309 354.592 240.452 354.592C240.707 354.592 240.958 354.463 241.11 354.231L241.217 354.065C241.443 353.709 241.348 353.245 241.007 353C241.032 353 241.061 352.996 241.085 352.996C241.529 352.959 242.38 352.93 243.23 352.905C243.23 353.129 243.317 353.353 243.501 353.506L243.6 353.589C243.748 353.713 243.925 353.771 244.097 353.771C244.323 353.771 244.541 353.676 244.697 353.489C244.849 353.307 244.894 353.075 244.857 352.855C245.108 352.847 245.33 352.839 245.503 352.831C245.901 352.81 246.374 352.814 246.83 352.839C246.809 352.864 246.785 352.889 246.764 352.913C246.497 353.253 246.555 353.75 246.891 354.02C247.228 354.289 247.722 354.231 247.989 353.891C248.26 353.547 248.663 353.266 249.041 353.071C249.045 353.071 249.045 353.067 249.049 353.067C249.394 352.889 249.723 352.785 249.908 352.773C249.776 353.009 249.447 353.382 249.127 353.643C248.79 353.916 248.736 354.409 249.008 354.749C249.164 354.944 249.39 355.043 249.616 355.043C249.788 355.043 249.957 354.985 250.105 354.869C250.138 354.844 250.183 354.807 250.228 354.766C250.175 354.873 250.138 354.989 250.138 355.114V355.375C250.138 355.81 250.487 356.162 250.918 356.162C251.301 356.162 251.601 355.88 251.67 355.516C251.732 355.565 251.79 355.611 251.843 355.644C252.102 355.818 252.381 356.365 252.595 356.825C252.78 357.227 252.969 357.65 253.137 358.031C253.302 358.4 253.45 358.739 253.573 358.992C253.815 359.502 253.807 359.663 253.819 359.663C253.306 360.041 253.125 360.061 253.129 360.065C253.006 360.045 252.829 359.991 252.665 359.945C252.266 359.833 252.048 359.771 251.798 359.833C251.379 359.937 251.124 360.368 251.231 360.786C251.276 360.973 251.387 361.122 251.527 361.226C251.218 361.346 251.206 361.338 250.894 361.035C250.228 360.389 249.484 359.767 248.535 359.597C248.301 359.556 247.849 359.531 247.294 359.539C247.364 359.365 247.38 359.162 247.311 358.971C247.163 358.561 246.715 358.354 246.308 358.503L246.127 358.57C245.72 358.719 245.515 359.17 245.663 359.581C245.671 359.605 245.692 359.626 245.704 359.651C245.256 359.705 244.808 359.784 244.385 359.887C244.422 359.585 244.463 359.353 244.488 359.274C244.648 358.872 244.455 358.412 244.052 358.251C243.649 358.089 243.197 358.284 243.037 358.69C242.93 358.959 242.799 359.763 242.749 360.646C242.655 360.608 242.548 360.559 242.449 360.513C242.059 360.331 241.595 360.505 241.414 360.902C241.233 361.296 241.406 361.764 241.8 361.947C242.351 362.199 242.618 362.274 242.782 362.291C242.799 362.411 242.811 362.535 242.832 362.647C242.86 362.788 242.906 362.978 242.963 363.206C242.926 363.223 242.889 363.223 242.852 363.244L242.688 363.343C242.318 363.567 242.199 364.052 242.421 364.425C242.569 364.669 242.828 364.806 243.091 364.806C243.197 364.806 243.3 364.777 243.403 364.731C243.76 365.871 244.237 367.176 244.701 368.059C244.627 368.096 244.553 368.137 244.492 368.199L244.323 368.365C244.11 368.572 243.847 368.829 243.9 369.264C243.929 369.509 244.118 369.774 244.331 369.898C244.455 369.969 244.586 370.002 244.718 370.002C244.989 370.002 245.252 369.861 245.396 369.604C245.425 369.55 245.449 369.496 245.466 369.438L245.564 369.343C245.918 369.844 246.394 370.541 246.891 371.27C248.264 373.284 249.271 374.746 249.735 375.235C250.844 376.4 252.373 377.15 253.828 377.249C254.07 377.266 254.247 377.324 254.304 377.411C254.358 377.477 254.387 377.676 254.337 377.958Z" fill="#FFDE3B"/>
<path d="M221.777 359.92C221.814 359.767 221.802 359.614 221.748 359.473C221.991 359.195 222.011 358.773 221.777 358.47C221.51 358.126 221.021 358.064 220.68 358.333C220.364 358.582 219.977 359.187 220.105 359.767C220.187 360.14 220.466 360.422 220.836 360.509C220.894 360.521 220.955 360.53 221.013 360.53C221.375 360.53 221.695 360.285 221.777 359.92Z" fill="#FFDE3B"/>
<path d="M224.903 361.893C225.088 361.855 225.429 361.723 225.639 361.246C225.721 361.056 225.976 360.243 225.688 359.759C225.401 359.278 224.846 359.257 224.045 359.386C223.617 359.452 223.325 359.854 223.395 360.285C223.445 360.612 223.691 360.861 223.995 360.931C223.967 361.043 223.962 361.159 223.987 361.275C224.061 361.648 224.386 361.909 224.751 361.909C224.801 361.909 224.85 361.905 224.903 361.893Z" fill="#FFDE3B"/>
<path d="M227.033 358.139C227.275 357.898 227.341 357.517 227.168 357.202C226.963 356.821 226.49 356.68 226.108 356.887C225.533 357.202 225.229 357.691 225.291 358.201C225.344 358.623 225.648 358.967 226.075 359.079C226.141 359.096 226.207 359.104 226.269 359.104C226.618 359.104 226.934 358.868 227.025 358.516C227.062 358.387 227.062 358.259 227.033 358.139Z" fill="#FFDE3B"/>
<path d="M223.679 358.83C223.704 358.83 223.729 358.835 223.749 358.835C224.148 358.835 224.489 358.528 224.526 358.118C224.55 357.844 224.435 357.591 224.234 357.434C224.226 357.156 224.07 356.887 223.803 356.754C223.416 356.56 222.948 356.717 222.755 357.107C222.57 357.48 222.574 357.894 222.763 358.242C222.952 358.574 223.293 358.793 223.679 358.83Z" fill="#FFDE3B"/>
<path d="M221.312 357.285C221.41 357.285 221.513 357.264 221.612 357.223C221.916 357.094 222.454 356.738 222.557 356.208C222.614 355.918 222.528 355.623 222.327 355.42C222.023 355.114 221.529 355.114 221.221 355.42C221.123 355.52 221.057 355.636 221.024 355.76C221.02 355.764 221.016 355.764 221.012 355.768C220.613 355.934 220.428 356.398 220.593 356.8C220.712 357.103 221.004 357.285 221.312 357.285Z" fill="#FFDE3B"/>
<path d="M219.345 355.657C219.365 355.661 219.39 355.661 219.41 355.661C219.813 355.661 220.154 355.35 220.187 354.94C220.207 354.708 220.125 354.492 219.977 354.335C220.018 353.92 219.731 353.543 219.316 353.481C218.893 353.411 218.49 353.713 218.428 354.144C218.387 354.405 218.317 354.89 218.625 355.279C218.798 355.499 219.053 355.632 219.345 355.657Z" fill="#FFDE3B"/>
<path d="M212.987 354.132C212.584 353.983 212.137 354.194 211.985 354.604C211.869 354.928 211.976 355.276 212.223 355.483C212.235 355.545 212.26 355.607 212.289 355.669C212.424 355.947 212.7 356.104 212.987 356.104C213.102 356.104 213.225 356.08 213.336 356.022C213.673 355.852 213.867 355.52 213.846 355.151C213.825 354.712 213.484 354.314 212.987 354.132Z" fill="#FFDE3B"/>
<path d="M214.906 356.601C215.041 356.709 215.202 356.759 215.362 356.759C215.588 356.759 215.814 356.655 215.97 356.456C216.007 356.407 216.04 356.357 216.064 356.303C216.299 356.133 216.414 355.831 216.352 355.512C216.27 355.085 215.826 354.815 215.407 354.894C215.173 354.94 214.626 355.039 214.491 355.607C214.441 355.822 214.425 356.233 214.906 356.601Z" fill="#FFDE3B"/>
<path d="M217.487 357.26C217.618 357.364 217.787 357.426 217.968 357.426C217.988 357.426 218.013 357.426 218.033 357.422C218.461 357.385 218.781 357.004 218.748 356.573C218.724 356.274 218.58 356.017 218.346 355.847C217.906 355.528 217.335 355.673 217.121 355.727C216.702 355.831 216.447 356.262 216.554 356.68C216.657 357.103 217.076 357.356 217.487 357.26Z" fill="#FFDE3B"/>
<path d="M218.164 358.288C218.164 358.3 218.16 358.313 218.16 358.329C217.971 358.474 217.852 358.698 217.852 358.955C217.852 359.39 218.201 359.742 218.633 359.742C219.389 359.742 219.726 358.909 219.726 358.317C219.726 357.894 219.397 357.571 218.978 357.55C218.551 357.529 218.197 357.869 218.164 358.288Z" fill="#FFDE3B"/>
<path d="M217.165 360.368C217.256 360.107 217.202 359.834 217.05 359.627C217.194 359.245 217.022 358.806 216.648 358.632C216.257 358.45 215.793 358.62 215.612 359.017C215.403 359.477 215.37 359.888 215.514 360.236C215.633 360.522 215.867 360.737 216.171 360.845C216.257 360.874 216.344 360.89 216.43 360.89C216.75 360.895 217.055 360.691 217.165 360.368Z" fill="#FFDE3B"/>
<path d="M214.742 358.835C214.923 358.835 215.1 358.773 215.248 358.648C215.326 358.582 215.387 358.503 215.433 358.42C215.675 358.267 215.827 357.981 215.794 357.675C215.753 357.244 215.371 356.925 214.939 356.97C214.492 357.016 214.138 357.26 213.994 357.621C213.867 357.936 213.929 358.296 214.146 358.557C214.298 358.739 214.52 358.835 214.742 358.835Z" fill="#FFDE3B"/>
<path d="M219.336 362.332C218.979 362.552 218.522 363.256 218.621 363.865C218.687 364.25 219.016 364.524 219.389 364.524C219.431 364.524 219.476 364.52 219.521 364.512C219.911 364.445 220.183 364.101 220.174 363.716C220.183 363.699 220.191 363.679 220.203 363.662C220.281 363.612 220.351 363.55 220.409 363.471C220.667 363.123 220.598 362.63 220.257 362.369C219.994 362.174 219.607 362.166 219.336 362.332Z" fill="#FFDE3B"/>
<path d="M222.064 361.437C221.776 361.524 221.546 361.736 221.41 362.034C221.234 362.424 221.209 362.987 221.357 363.314C221.489 363.609 221.772 363.779 222.068 363.779C222.175 363.779 222.282 363.758 222.388 363.708C222.746 363.547 222.923 363.153 222.824 362.784C222.824 362.776 222.824 362.767 222.824 362.759C223.034 362.56 223.124 362.254 223.038 361.959C222.91 361.549 222.475 361.313 222.064 361.437Z" fill="#FFDE3B"/>
<path d="M218.666 360.521C218.28 360.327 217.812 360.484 217.618 360.873C217.59 360.931 217.454 361.068 217.38 361.139C217.154 361.362 216.776 361.735 216.957 362.278C217.068 362.61 217.372 362.817 217.697 362.817C217.779 362.817 217.861 362.804 217.943 362.775C218.173 362.697 218.346 362.523 218.424 362.311C218.44 362.295 218.457 362.278 218.473 362.262C218.638 362.096 218.868 361.872 219.011 361.578C219.209 361.188 219.053 360.716 218.666 360.521Z" fill="#FFDE3B"/>
<path d="M224.841 363.086C224.743 363.235 224.689 363.368 224.648 363.48C224.607 363.587 224.582 363.645 224.517 363.724C224.241 364.06 224.286 364.553 224.615 364.835C224.763 364.959 224.94 365.017 225.117 365.017C225.343 365.017 225.56 364.922 225.716 364.735C225.947 364.458 226.041 364.217 226.103 364.056C226.115 364.022 226.127 363.989 226.144 363.96C226.382 363.6 226.284 363.111 225.926 362.871C225.564 362.626 225.08 362.725 224.841 363.086Z" fill="#FFDE3B"/>
<path d="M228.741 361.441C228.754 361.246 228.692 361.043 228.556 360.881C228.277 360.55 227.784 360.513 227.455 360.794C226.991 361.192 226.987 361.627 227.028 361.851C227.106 362.286 227.443 362.613 228.022 362.825C228.109 362.858 228.199 362.87 228.285 362.87C228.606 362.87 228.906 362.671 229.021 362.348C229.144 362.004 229.017 361.64 228.741 361.441Z" fill="#FFDE3B"/>
<path d="M230.825 363.579C230.484 363.621 229.871 363.911 229.592 364.416C229.382 364.794 229.506 365.287 229.88 365.502C230.003 365.573 230.138 365.606 230.27 365.606C230.537 365.606 230.792 365.469 230.936 365.212C230.96 365.187 231.034 365.142 231.022 365.137C231.449 365.084 231.753 364.69 231.7 364.259C231.642 363.832 231.252 363.526 230.825 363.579Z" fill="#FFDE3B"/>
<path d="M224.496 356.448C224.516 356.448 224.537 356.448 224.557 356.444C224.989 356.415 225.313 356.042 225.285 355.607C225.26 355.259 225.018 354.977 224.701 354.894C224.545 354.633 224.241 354.476 223.92 354.521C223.493 354.583 223.197 354.981 223.259 355.412C223.325 355.885 223.912 356.448 224.496 356.448Z" fill="#FFDE3B"/>
<path d="M228.286 357.409L228.811 356.829L228.294 357.418C228.442 357.55 228.627 357.617 228.811 357.617C229.025 357.617 229.239 357.53 229.395 357.351C229.629 357.086 229.654 356.701 229.477 356.415C229.526 356.199 229.485 355.967 229.346 355.777C229.091 355.425 228.602 355.35 228.257 355.607C227.977 355.814 227.813 356.104 227.797 356.423C227.772 356.949 228.158 357.293 228.286 357.409Z" fill="#FFDE3B"/>
<path d="M230.036 359.813C230.184 359.444 230.032 359.034 229.703 358.839C229.58 358.5 229.227 358.284 228.861 358.33C228.434 358.392 228.138 358.79 228.2 359.22C228.282 359.805 228.758 360.145 229.025 360.252C229.12 360.29 229.219 360.31 229.313 360.31C229.621 360.31 229.917 360.124 230.036 359.813Z" fill="#FFDE3B"/>
<path d="M232.079 360.468C232.058 360.435 232.033 360.389 232.021 360.356C231.881 359.946 231.438 359.726 231.027 359.871C230.62 360.012 230.402 360.459 230.546 360.874C230.579 360.973 230.895 361.839 231.561 361.906C231.59 361.91 231.614 361.91 231.643 361.91C232.037 361.91 232.378 361.607 232.42 361.201C232.444 360.903 232.305 360.629 232.079 360.468Z" fill="#FFDE3B"/>
<path d="M228.289 368.328C228.236 368.382 228.191 368.427 228.154 368.464C227.809 368.58 227.583 368.929 227.628 369.306C227.677 369.708 228.01 370.002 228.4 370.002C228.433 370.002 228.462 370.002 228.495 369.998C228.807 369.96 229.05 369.877 229.271 369.579C229.288 369.558 229.313 369.525 229.362 369.48C229.674 369.181 229.691 368.684 229.395 368.365C229.099 368.046 228.602 368.034 228.289 368.328Z" fill="#FFDE3B"/>
<path d="M211.163 365.096C210.838 365.44 210.567 366.049 210.887 366.612C211.031 366.869 211.294 367.014 211.569 367.014C211.701 367.014 211.832 366.981 211.951 366.911C212.235 366.749 212.379 366.434 212.342 366.123C212.593 365.808 212.564 365.349 212.268 365.063C211.956 364.768 211.463 364.781 211.163 365.096Z" fill="#FFDE3B"/>
<path d="M212.366 361.276C212.099 361.197 211.782 361.28 211.581 361.475C211.174 361.868 211.174 362.904 211.215 363.07C211.302 363.43 211.622 363.671 211.972 363.671C212.033 363.671 212.095 363.662 212.156 363.646C212.53 363.555 212.773 363.207 212.748 362.834C212.752 362.751 212.773 362.589 212.793 362.473C212.839 362.403 212.876 362.328 212.9 362.245C213.019 361.827 212.781 361.392 212.366 361.276Z" fill="#FFDE3B"/>
<path d="M213.34 359.158C213.028 358.855 212.535 358.867 212.235 359.182C211.939 359.497 211.947 359.995 212.259 360.297L212.35 360.384C212.502 360.529 212.695 360.604 212.888 360.604C213.094 360.604 213.299 360.521 213.451 360.359C213.747 360.044 213.739 359.547 213.426 359.245L213.34 359.158Z" fill="#FFDE3B"/>
<path d="M209.005 360.492C208.603 360.335 208.151 360.534 207.994 360.94L207.879 361.234C207.723 361.64 207.92 362.096 208.323 362.253C208.418 362.291 208.512 362.307 208.607 362.307C208.919 362.307 209.215 362.117 209.334 361.806L209.449 361.512C209.605 361.106 209.404 360.65 209.005 360.492Z" fill="#FFDE3B"/>
<path d="M211.298 360.894C211.335 360.621 211.417 360.057 210.957 359.751C210.595 359.51 210.11 359.61 209.876 359.97C209.753 360.157 209.72 360.376 209.765 360.579C209.761 360.625 209.753 360.666 209.753 360.675C209.691 361.106 209.991 361.503 210.414 361.566C210.451 361.57 210.488 361.574 210.525 361.574C210.907 361.574 211.244 361.288 211.298 360.894Z" fill="#FFDE3B"/>
<path d="M211.401 358.789C211.833 358.789 212.178 358.474 212.178 358.039C212.186 357.985 212.211 357.902 212.231 357.823C212.305 357.529 212.354 357.335 212.272 357.09C212.137 356.68 211.693 356.456 211.282 356.593C210.974 356.696 210.772 356.978 210.752 357.289C210.744 357.326 210.727 357.376 210.715 357.43C210.653 357.662 210.616 357.815 210.616 357.964C210.624 358.399 210.97 358.789 211.401 358.789Z" fill="#FFDE3B"/>
<path d="M202.965 362.191C202.965 362.357 203.076 362.879 203.134 363.028C203.253 363.33 203.537 363.509 203.845 363.509C203.931 363.509 204.021 363.492 204.108 363.463C204.502 363.326 204.716 362.887 204.597 362.481C204.572 362.398 204.531 362.191 204.519 362.112C204.482 361.714 204.149 361.404 203.742 361.404C203.315 361.404 202.965 361.756 202.965 362.191Z" fill="#FFDE3B"/>
<path d="M205.299 366.418C205.34 366.426 205.381 366.426 205.422 366.426C205.8 366.426 206.133 366.148 206.191 365.763C206.207 365.655 206.256 365.274 206.178 364.938C206.084 364.524 205.685 364.284 205.27 364.367C204.855 364.449 204.588 364.868 204.654 365.286C204.662 365.328 204.654 365.444 204.645 365.518C204.58 365.945 204.871 366.351 205.299 366.418Z" fill="#FFDE3B"/>
<path d="M201.974 364.2C201.666 364.573 201.65 365.327 201.67 365.489C201.728 365.883 202.069 366.198 202.455 366.198C202.488 366.198 202.525 366.193 202.558 366.189C202.985 366.127 203.285 365.762 203.224 365.332C203.224 365.282 203.244 365.153 203.261 365.083C203.437 364.76 203.367 364.345 203.076 364.101C202.739 363.819 202.25 363.865 201.974 364.2Z" fill="#FFDE3B"/>
<path d="M208.024 359.274L207.876 358.83C207.74 358.42 207.3 358.192 206.89 358.333C206.479 358.47 206.261 358.917 206.396 359.328L206.544 359.771C206.655 360.103 206.959 360.31 207.284 360.31C207.366 360.31 207.448 360.297 207.531 360.268C207.937 360.132 208.159 359.684 208.024 359.274Z" fill="#FFDE3B"/>
<path d="M210.037 358.868V358.694C210.037 358.259 209.688 357.906 209.256 357.906C208.825 357.906 208.476 358.259 208.476 358.694V358.868C208.476 359.303 208.825 359.655 209.256 359.655C209.688 359.655 210.037 359.303 210.037 358.868Z" fill="#FFDE3B"/>
<path d="M207.042 356.506C207.153 356.833 207.457 357.036 207.781 357.036C207.863 357.036 207.95 357.024 208.036 356.995C208.443 356.854 208.661 356.406 208.521 355.996L208.373 355.565C208.233 355.155 207.789 354.931 207.383 355.076C206.976 355.217 206.758 355.665 206.898 356.075L207.042 356.506Z" fill="#FFDE3B"/>
<path d="M213.78 361.731C213.891 362.059 214.195 362.262 214.52 362.262C214.602 362.262 214.688 362.249 214.774 362.22C215.181 362.079 215.399 361.632 215.259 361.222L215.111 360.791C214.972 360.38 214.528 360.157 214.121 360.302C213.714 360.443 213.496 360.89 213.636 361.3L213.78 361.731Z" fill="#FFDE3B"/>
<path d="M209.116 355.984C209.227 356.311 209.531 356.514 209.855 356.514C209.938 356.514 210.024 356.502 210.11 356.473C210.517 356.332 210.735 355.885 210.595 355.474L210.447 355.043C210.307 354.633 209.864 354.409 209.457 354.554C209.05 354.695 208.832 355.143 208.972 355.553L209.116 355.984Z" fill="#FFDE3B"/>
<path d="M206.434 356.975L206.154 356.436C205.953 356.051 205.481 355.906 205.098 356.109C204.716 356.312 204.572 356.788 204.774 357.174L205.053 357.712C205.193 357.982 205.464 358.131 205.744 358.131C205.867 358.131 205.99 358.102 206.105 358.04C206.491 357.832 206.635 357.356 206.434 356.975Z" fill="#FFDE3B"/>
<path d="M238.607 363.161C238.328 362.829 237.834 362.792 237.506 363.074C237.177 363.355 237.14 363.853 237.419 364.184L237.617 364.412C237.773 364.594 237.991 364.686 238.208 364.686C238.389 364.686 238.57 364.623 238.714 364.495C239.043 364.213 239.08 363.716 238.8 363.384L238.607 363.161Z" fill="#FFDE3B"/>
<path d="M241.007 362.079C241.007 361.532 240.613 361.213 240.222 361.18C239.647 361.126 239.035 361.772 238.969 362.199C238.899 362.63 239.187 363.032 239.614 363.103C239.655 363.111 239.701 363.111 239.742 363.111C239.964 363.111 240.169 363.016 240.313 362.858C240.703 362.817 241.007 362.485 241.007 362.079Z" fill="#FFDE3B"/>
<path d="M241.044 364.022C240.732 363.915 240.403 364.01 240.119 364.279C239.729 364.648 239.782 365.046 239.823 365.199C239.906 365.506 240.148 365.738 240.473 365.813C240.53 365.825 240.592 365.833 240.649 365.833C240.99 365.833 241.299 365.605 241.397 365.27C241.455 365.199 241.504 365.112 241.533 365.021C241.673 364.611 241.451 364.163 241.044 364.022Z" fill="#FFDE3B"/>
<path d="M242.346 365.639C242.005 365.775 241.779 366.09 241.775 366.442C241.767 366.72 241.911 367.089 242.326 367.279C242.428 367.329 242.539 367.35 242.65 367.35C242.946 367.35 243.23 367.18 243.361 366.89C243.378 366.853 243.39 366.815 243.402 366.778C243.583 366.476 243.542 366.078 243.283 365.821C243.045 365.581 242.675 365.506 242.346 365.639Z" fill="#FFDE3B"/>
<path d="M237.136 359.299C237.292 359.299 237.453 359.249 237.592 359.15C237.942 358.897 238.02 358.404 237.769 358.052C237.744 358.015 237.708 357.961 237.679 357.911C237.671 357.72 237.597 357.534 237.453 357.389C237.149 357.082 236.656 357.082 236.347 357.389C235.969 357.77 236.023 358.3 236.504 358.972C236.656 359.187 236.894 359.299 237.136 359.299Z" fill="#FFDE3B"/>
<path d="M240.687 357.318C240.897 357.318 241.106 357.235 241.258 357.069C241.501 356.808 241.529 356.419 241.357 356.129C241.382 355.76 241.147 355.412 240.782 355.312C240.367 355.196 239.935 355.449 239.824 355.872C239.705 356.324 239.832 356.808 240.157 357.111C240.305 357.248 240.494 357.318 240.687 357.318Z" fill="#FFDE3B"/>
<path d="M240.999 358.511C240.999 358.831 241.208 359.328 241.549 359.576C241.714 359.697 241.899 359.759 242.088 359.759C242.182 359.759 242.277 359.742 242.367 359.713C242.778 359.576 243 359.129 242.86 358.719C242.799 358.536 242.679 358.391 242.527 358.296C242.433 357.969 242.133 357.728 241.779 357.728C241.348 357.724 240.999 358.076 240.999 358.511Z" fill="#FFDE3B"/>
<path d="M238.612 359.092C238.678 359.477 239.006 359.751 239.38 359.751C239.421 359.751 239.467 359.747 239.512 359.738C239.935 359.668 240.223 359.262 240.153 358.831C240.153 358.823 240.149 358.794 240.149 358.769C240.301 358.458 240.235 358.073 239.968 357.832C239.647 357.542 239.15 357.571 238.867 357.899C238.534 358.271 238.563 358.806 238.612 359.092Z" fill="#FFDE3B"/>
<path d="M237.571 357.003C237.637 357.389 237.966 357.662 238.34 357.662C238.381 357.662 238.426 357.658 238.471 357.65C238.895 357.579 239.182 357.173 239.112 356.742C239.112 356.734 239.108 356.705 239.108 356.68C239.26 356.369 239.194 355.984 238.927 355.743C238.607 355.453 238.11 355.482 237.826 355.81C237.497 356.183 237.526 356.717 237.571 357.003Z" fill="#FFDE3B"/>
<path d="M236.019 361.706C236.085 362.092 236.413 362.365 236.787 362.365C236.829 362.365 236.874 362.361 236.919 362.353C237.342 362.282 237.63 361.876 237.56 361.445C237.56 361.437 237.556 361.408 237.556 361.383C237.708 361.072 237.642 360.687 237.375 360.447C237.055 360.157 236.557 360.186 236.274 360.513C235.941 360.886 235.974 361.421 236.019 361.706Z" fill="#FFDE3B"/>
<path d="M234.121 359.104L234.072 358.992C233.891 358.594 233.427 358.42 233.036 358.603C232.646 358.785 232.469 359.249 232.65 359.647L232.703 359.767C232.806 360.003 233.04 360.558 233.702 360.558C234.133 360.558 234.483 360.206 234.483 359.771C234.487 359.489 234.339 359.241 234.121 359.104Z" fill="#FFDE3B"/>
<path d="M230.766 357.078C230.561 357.215 230.409 357.505 230.392 357.749C230.372 358.081 230.516 358.425 230.77 358.644C230.918 358.773 231.099 358.835 231.276 358.835C231.498 358.835 231.715 358.74 231.867 358.561C232.077 358.313 232.11 357.973 231.974 357.695C231.966 357.559 231.925 357.422 231.843 357.302C231.609 356.937 231.128 356.838 230.766 357.078Z" fill="#FFDE3B"/>
<path d="M230.923 356.088C231.084 356.088 231.248 356.038 231.388 355.934C231.63 355.752 231.737 355.462 231.696 355.18C231.741 354.878 231.61 354.563 231.338 354.393C230.973 354.161 230.492 354.277 230.262 354.642C230.011 355.048 230.097 355.499 230.295 355.769C230.447 355.98 230.685 356.088 230.923 356.088Z" fill="#FFDE3B"/>
<path d="M234.86 356.635C234.428 356.635 234.079 356.987 234.079 357.422V357.58C234.079 358.015 234.428 358.367 234.86 358.367C235.291 358.367 235.64 358.015 235.64 357.58V357.422C235.64 356.987 235.291 356.635 234.86 356.635Z" fill="#FFDE3B"/>
<path d="M233.135 356.858C233.566 356.858 233.915 356.506 233.915 356.071V355.781C233.915 355.346 233.566 354.994 233.135 354.994C232.703 354.994 232.354 355.346 232.354 355.781V356.071C232.354 356.506 232.703 356.858 233.135 356.858Z" fill="#FFDE3B"/>
<path d="M236.598 355.18V354.96C236.598 354.525 236.248 354.173 235.817 354.173C235.385 354.173 235.036 354.525 235.036 354.96V355.18C235.036 355.615 235.385 355.967 235.817 355.967C236.248 355.967 236.598 355.615 236.598 355.18Z" fill="#FFDE3B"/>
<path d="M237.934 354.65H238.115C238.546 354.65 238.895 354.298 238.895 353.863C238.895 353.428 238.546 353.075 238.115 353.075H237.934C237.502 353.075 237.153 353.428 237.153 353.863C237.153 354.298 237.502 354.65 237.934 354.65Z" fill="#FFDE3B"/>
<path d="M242.475 356.108C242.105 356.332 241.986 356.817 242.208 357.19L242.356 357.434C242.504 357.679 242.763 357.815 243.026 357.815C243.161 357.815 243.301 357.778 243.428 357.703C243.798 357.48 243.917 356.995 243.695 356.622L243.547 356.377C243.325 356.004 242.845 355.884 242.475 356.108Z" fill="#FFDE3B"/>
<path d="M242.762 355.586C242.918 355.586 243.078 355.54 243.214 355.441L243.329 355.358C243.678 355.105 243.76 354.612 243.51 354.26C243.259 353.908 242.77 353.825 242.421 354.078L242.306 354.161C241.957 354.413 241.874 354.906 242.125 355.259C242.281 355.47 242.52 355.586 242.762 355.586Z" fill="#FFDE3B"/>
<path d="M244.812 355.88C244.985 355.88 245.161 355.822 245.305 355.702L245.564 355.491C245.897 355.217 245.95 354.72 245.679 354.385C245.408 354.045 244.915 353.995 244.582 354.269L244.323 354.48C243.99 354.753 243.937 355.251 244.208 355.586C244.36 355.781 244.586 355.88 244.812 355.88Z" fill="#FFDE3B"/>
<path d="M245.285 356.117C244.853 356.117 244.504 356.469 244.504 356.904V357.103C244.504 357.538 244.853 357.89 245.285 357.89C245.716 357.89 246.066 357.538 246.066 357.103V356.904C246.066 356.473 245.716 356.117 245.285 356.117Z" fill="#FFDE3B"/>
<path d="M141.217 423.439L149.209 435.376C149.275 435.48 149.357 435.542 149.468 435.584C149.612 435.633 149.752 435.658 149.891 435.658H151.021C151.186 435.658 151.219 435.625 151.219 435.459V420.128C151.219 419.962 151.186 419.929 151.021 419.929H149.731C149.567 419.929 149.534 419.962 149.534 420.128V431.904C149.534 432.033 149.534 432.372 149.259 432.455C148.983 432.538 148.798 432.252 148.728 432.144L140.917 420.207C140.851 420.107 140.773 420.041 140.658 420.004C140.514 419.954 140.375 419.929 140.235 419.929H138.924C138.76 419.929 138.727 419.962 138.727 420.128V435.459C138.727 435.625 138.76 435.658 138.924 435.658H140.218C140.383 435.658 140.416 435.625 140.416 435.459V423.683C140.416 423.559 140.416 423.223 140.687 423.14C140.724 423.128 140.757 423.124 140.79 423.124C141.007 423.128 141.155 423.347 141.217 423.439Z" fill="#111111"/>
<path d="M170.992 432.393C171.202 432.265 171.301 432.087 171.301 431.842V423.75C171.301 423.501 171.206 423.331 170.992 423.199L164.093 419.117C163.978 419.051 163.871 419.018 163.773 419.018C163.728 419.018 163.625 419.03 163.436 419.125L156.586 423.199C156.36 423.331 156.261 423.501 156.261 423.75V431.842C156.261 432.091 156.36 432.261 156.586 432.393L163.452 436.475C163.608 436.574 163.736 436.599 163.937 436.554C163.978 436.545 164.023 436.52 164.073 436.487L170.992 432.393ZM163.773 434.797C163.6 434.797 163.432 434.747 163.276 434.652L158.201 431.635C157.88 431.444 157.712 431.154 157.712 430.79V424.802C157.712 424.442 157.88 424.147 158.201 423.957L163.284 420.936C163.703 420.725 163.958 420.758 164.266 420.936L169.373 423.957C169.686 424.152 169.85 424.442 169.85 424.802V430.79C169.85 431.15 169.686 431.44 169.382 431.631L164.27 434.652C164.2 434.701 164.106 434.747 164.007 434.768C163.921 434.788 163.843 434.797 163.773 434.797Z" fill="#111111"/>
<path d="M201.733 419.933C201.568 419.933 201.535 419.966 201.535 420.132V435.464C201.535 435.629 201.568 435.662 201.733 435.662H212.651C212.815 435.662 212.848 435.629 212.848 435.464V434.158C212.848 433.993 212.815 433.959 212.651 433.959H204.013C203.528 433.959 203.241 433.665 203.241 433.18V420.132C203.241 419.966 203.208 419.933 203.043 419.933H201.733Z" fill="#111111"/>
<path d="M269.538 435.803C269.813 435.803 269.986 435.691 270.084 435.455L275.845 422.307C275.903 422.175 275.997 421.992 276.17 421.992C276.342 421.992 276.437 422.175 276.494 422.307L282.235 435.451C282.334 435.691 282.506 435.803 282.781 435.803H284.092C284.207 435.803 284.265 435.778 284.281 435.757C284.294 435.737 284.298 435.67 284.253 435.563L277.366 420.14C277.267 419.896 277.094 419.784 276.819 419.784H275.508C275.233 419.784 275.06 419.896 274.962 420.132V420.136L268.087 435.567C268.046 435.67 268.046 435.737 268.058 435.757C268.071 435.778 268.128 435.803 268.247 435.803H269.538Z" fill="#111111"/>
<path d="M295.178 428.726L299.312 435.397C299.386 435.579 299.505 435.654 299.723 435.654H301.194C301.207 435.654 301.219 435.654 301.231 435.654C301.231 435.65 301.227 435.642 301.227 435.637L296.962 428.759L297.439 428.726C297.989 428.684 298.515 428.539 299.004 428.291C299.493 428.042 299.929 427.715 300.29 427.325C300.652 426.936 300.939 426.48 301.149 425.97C301.355 425.465 301.457 424.918 301.457 424.35C301.457 423.795 301.35 423.244 301.137 422.713C300.923 422.183 300.631 421.702 300.266 421.288C299.904 420.878 299.468 420.546 298.971 420.293C298.482 420.049 297.944 419.925 297.377 419.925H289.323C289.159 419.925 289.126 419.958 289.126 420.124V421.429C289.126 421.595 289.159 421.628 289.323 421.628H297.328C297.697 421.653 298.026 421.744 298.318 421.897C298.61 422.05 298.86 422.253 299.07 422.498C299.271 422.738 299.44 423.016 299.563 423.327C299.686 423.633 299.76 423.965 299.785 424.313V424.334V424.354C299.727 425.067 299.485 425.676 299.07 426.173C298.642 426.687 298.055 426.969 297.332 427.019H289.483C289.372 427.019 289.282 427.048 289.204 427.106C289.163 427.139 289.126 427.18 289.126 427.28V435.451C289.126 435.617 289.159 435.65 289.323 435.65H290.617C290.782 435.65 290.815 435.617 290.815 435.451V429.497C290.815 429.008 291.106 428.718 291.587 428.718H295.178V428.726Z" fill="#111111"/>
<path d="M263.612 427.329C263.974 426.94 264.261 426.484 264.471 425.975C264.676 425.469 264.779 424.922 264.779 424.354C264.779 423.799 264.672 423.248 264.459 422.718C264.245 422.187 263.953 421.707 263.588 421.292C263.226 420.882 262.79 420.55 262.293 420.298C261.8 420.053 261.266 419.929 260.699 419.929H252.645C252.481 419.929 252.448 419.962 252.448 420.128V421.433C252.448 421.599 252.481 421.632 252.645 421.632H260.65C261.019 421.657 261.348 421.748 261.64 421.901C261.932 422.055 262.182 422.258 262.392 422.502C262.593 422.742 262.762 423.02 262.885 423.331C263.008 423.637 263.082 423.969 263.107 424.317V424.338V424.358C263.049 425.071 262.807 425.68 262.392 426.178C261.964 426.691 261.377 426.973 260.654 427.023H252.805C252.694 427.023 252.604 427.052 252.526 427.11C252.485 427.143 252.448 427.184 252.448 427.284V435.455C252.448 435.621 252.481 435.654 252.645 435.654H253.939C254.104 435.654 254.137 435.621 254.137 435.455V429.501C254.137 429.012 254.428 428.722 254.909 428.722L260.76 428.738V428.722C261.311 428.68 261.837 428.535 262.326 428.287C262.815 428.042 263.251 427.719 263.612 427.329Z" fill="#111111"/>
<path d="M307.202 435.658H312.733C313.798 435.658 314.821 435.451 315.766 435.045C316.715 434.639 317.553 434.075 318.264 433.367C318.971 432.662 319.538 431.821 319.949 430.864C320.356 429.911 320.565 428.875 320.565 427.789C320.565 426.956 320.438 426.14 320.183 425.369C319.928 424.595 319.571 423.874 319.115 423.227C318.659 422.581 318.1 422.001 317.455 421.503C316.805 421.006 316.086 420.621 315.31 420.347C314.504 420.066 313.666 419.925 312.815 419.925H307.202C307.038 419.925 307.005 419.958 307.005 420.124V421.429C307.005 421.595 307.038 421.628 307.202 421.628H312.606C313.44 421.686 314.233 421.876 314.985 422.2C315.737 422.523 316.407 422.958 316.978 423.492C317.553 424.031 318.018 424.673 318.359 425.398C318.704 426.132 318.881 426.936 318.881 427.789C318.881 428.631 318.724 429.434 318.42 430.176C318.116 430.918 317.693 431.577 317.155 432.136C316.616 432.695 315.979 433.139 315.26 433.462C314.537 433.789 313.748 433.951 312.926 433.951H309.466C308.982 433.951 308.694 433.657 308.694 433.172V430.595C308.694 430.429 308.661 430.396 308.497 430.396H307.202C307.038 430.396 307.005 430.429 307.005 430.595V435.455C307.005 435.625 307.038 435.658 307.202 435.658Z" fill="#111111"/>
<path d="M125.455 435.119C126.227 435.467 127.062 435.646 127.933 435.646C128.898 435.646 129.716 435.534 130.365 435.314C131.01 435.094 131.549 434.821 131.968 434.494C132.379 434.17 132.695 433.827 132.909 433.47C133.135 433.089 133.307 432.724 133.418 432.389C133.529 432.057 133.595 431.78 133.612 431.564C133.632 431.34 133.644 431.208 133.644 431.162C133.644 430.52 133.55 429.96 133.361 429.509C133.168 429.045 132.925 428.651 132.642 428.332C132.362 428.021 132.046 427.768 131.705 427.59C131.323 427.396 130.953 427.234 130.604 427.118C130.254 427.002 129.938 426.923 129.667 426.882C129.387 426.84 129.182 426.811 129.059 426.795C129.03 426.791 129.005 426.786 128.972 426.782H128.968C128.512 426.695 128.093 426.617 127.715 426.554C127.271 426.476 126.881 426.356 126.56 426.198C126.19 426.016 125.895 425.751 125.681 425.415C125.463 425.071 125.356 424.632 125.356 424.076C125.356 423.268 125.706 422.606 126.363 422.162C126.959 421.76 127.768 421.557 128.775 421.557C129.248 421.574 129.683 421.623 130.086 421.702C130.464 421.793 130.821 421.926 131.171 422.104C131.331 422.187 131.483 422.282 131.619 422.394C131.688 422.448 131.812 422.44 131.906 422.373L132.86 421.665C132.958 421.594 132.97 421.495 132.975 421.441C132.975 421.387 132.962 421.284 132.86 421.205C132.482 420.907 132.054 420.65 131.594 420.443C130.813 420.086 129.975 419.908 129.108 419.908C128.138 419.908 127.316 420.012 126.663 420.219C126.014 420.426 125.471 420.683 125.052 420.981C124.645 421.275 124.329 421.594 124.111 421.938C123.881 422.303 123.713 422.643 123.61 422.949C123.507 423.26 123.446 423.521 123.425 423.72C123.404 423.919 123.392 424.047 123.392 424.089C123.392 424.64 123.478 425.125 123.651 425.523C123.828 425.937 124.05 426.289 124.313 426.579C124.576 426.869 124.875 427.114 125.2 427.3C125.558 427.503 125.903 427.669 126.227 427.793C126.552 427.918 126.844 428.009 127.099 428.059C127.353 428.112 127.538 428.146 127.653 428.162C127.682 428.166 127.711 428.17 127.748 428.179C128.204 428.266 128.648 428.361 129.063 428.456C129.527 428.564 129.942 428.722 130.308 428.916C130.71 429.132 131.035 429.422 131.278 429.778C131.532 430.155 131.66 430.623 131.66 431.179C131.66 431.954 131.339 432.625 130.71 433.184C130.102 433.723 129.272 433.992 128.241 433.992C127.698 433.992 127.218 433.926 126.811 433.798C126.416 433.673 126.088 433.528 125.821 433.371C125.64 433.263 125.488 433.159 125.36 433.052L124.206 433.914C124.107 433.984 124.095 434.083 124.091 434.137C124.091 434.191 124.103 434.295 124.206 434.369C124.58 434.664 125.003 434.916 125.455 435.119Z" fill="#111111"/>
<path d="M182.847 435.173C182.921 435.31 183.048 435.327 183.102 435.327C183.155 435.327 183.282 435.31 183.356 435.169L184.137 433.669C184.182 433.582 184.182 433.483 184.137 433.4L177.189 420.099C177.139 420.004 177.041 419.941 176.934 419.941H175.249C175.101 419.941 175.027 420.041 175.003 420.082C174.978 420.124 174.924 420.24 174.994 420.368L182.847 435.173Z" fill="#111111"/>
<path d="M181.487 419.941C181.339 419.941 181.265 420.041 181.24 420.082C181.215 420.124 181.162 420.236 181.232 420.368L188.805 435.157C188.879 435.302 189.002 435.319 189.06 435.314C189.113 435.314 189.241 435.298 189.315 435.161L197.134 420.372C197.204 420.24 197.151 420.128 197.126 420.086C197.101 420.045 197.027 419.946 196.879 419.946H195.199C195.17 419.946 195.141 419.95 195.121 419.958L189.072 431.999L183.414 420.07C183.36 419.995 183.274 419.95 183.184 419.95H181.487V419.941Z" fill="#111111"/>
<path d="M247.603 432.326C247.812 432.198 247.911 432.02 247.911 431.775V423.683C247.911 423.438 247.812 423.26 247.603 423.132L240.704 419.05C240.589 418.984 240.482 418.951 240.383 418.951C240.338 418.951 240.235 418.963 240.046 419.058L233.196 423.132C232.97 423.264 232.872 423.438 232.872 423.683V431.775C232.872 432.024 232.97 432.194 233.196 432.326L240.063 436.408C240.219 436.507 240.35 436.532 240.547 436.486C240.589 436.478 240.634 436.453 240.683 436.42L247.603 432.326ZM240.383 434.73C240.211 434.73 240.042 434.68 239.886 434.585L234.811 431.568C234.491 431.377 234.322 431.083 234.322 430.723V424.735C234.322 424.375 234.491 424.08 234.811 423.89L239.894 420.869C240.313 420.658 240.568 420.691 240.876 420.869L245.984 423.89C246.296 424.085 246.461 424.375 246.461 424.735V430.723C246.461 431.083 246.296 431.373 245.988 431.564L240.876 434.585C240.806 434.638 240.708 434.68 240.613 434.701C240.523 434.721 240.453 434.73 240.383 434.73Z" fill="#111111"/>
<path d="M218.079 419.713H227.702C227.863 419.713 227.99 419.846 227.99 420.003V420.973C227.99 421.134 227.859 421.263 227.702 421.263H218.079C217.919 421.263 217.791 421.13 217.791 420.973V420.003C217.787 419.842 217.919 419.713 218.079 419.713ZM218.075 426.94H226.268C226.429 426.94 226.556 427.068 226.556 427.23V428.199C226.556 428.361 226.429 428.489 226.268 428.489H218.075C217.914 428.489 217.787 428.361 217.787 428.199V427.23C217.787 427.072 217.919 426.94 218.075 426.94ZM218.079 434.125H227.707C227.867 434.125 227.994 434.257 227.994 434.415V435.384C227.994 435.546 227.863 435.675 227.707 435.675H218.079C217.919 435.675 217.791 435.542 217.791 435.384V434.415C217.787 434.257 217.919 434.125 218.079 434.125Z" fill="#111111"/>
</g>
<path fill-rule="evenodd" clip-rule="evenodd" d="M142.641 92.1861C131.854 93.5489 123.015 101.502 120.353 112.244C119.778 114.561 119.61 116.114 119.585 119.33C119.562 122.33 119.56 122.351 119.191 123.181C118.677 124.336 117.766 125.176 116.112 126.023L114.778 126.706V129.455V132.205L118.294 130.373C120.227 129.365 124.264 127.261 127.264 125.696C130.264 124.131 140.407 118.851 149.804 113.962C159.202 109.072 169.108 103.915 171.819 102.501L176.748 99.9308L176.783 97.2304C176.803 95.745 176.773 94.5303 176.718 94.5311C176.662 94.5318 164.912 100.626 150.606 108.073C136.3 115.52 124.56 121.577 124.516 121.533C124.473 121.489 124.438 120.206 124.438 118.682C124.438 116.289 124.48 115.714 124.744 114.454C126.172 107.649 130.382 102.095 136.384 99.096C142.233 96.174 149.044 96.1425 155.06 99.0098L156.33 99.6151L158.769 98.3701L161.207 97.1251L160.566 96.6539C155.77 93.1298 148.841 91.4029 142.641 92.1861ZM207.505 99.098C202.264 99.8369 198.303 102.524 196.981 106.239C196.172 108.512 196.346 111.476 197.415 113.633C198.478 115.776 200.562 117.548 203.38 118.702C204.731 119.255 205.863 119.566 209.08 120.266C213.541 121.238 215.356 121.862 216.868 122.945C218.509 124.12 219.176 125.421 219.175 127.441C219.174 130.429 217.471 132.428 214.07 133.432C213.133 133.709 212.76 133.74 210.526 133.732C207.692 133.721 206.729 133.533 204.984 132.654C202.761 131.533 200.999 129.073 200.412 126.268L200.335 125.899H197.773H195.211L195.296 126.469C195.58 128.365 196.587 130.895 197.68 132.457C200.466 136.44 205.409 138.577 211.248 138.322C215.444 138.14 218.923 136.834 221.369 134.524C222.799 133.173 223.807 131.496 224.282 129.673C224.63 128.338 224.66 125.841 224.344 124.508C223.849 122.423 222.322 120.266 220.439 118.989C218.417 117.618 216.118 116.787 211.183 115.644C209.376 115.226 207.394 114.732 206.78 114.547C204.47 113.852 202.896 112.694 202.207 111.184C201.905 110.523 201.856 110.238 201.853 109.142C201.851 108.049 201.899 107.764 202.191 107.131C202.854 105.694 204.578 104.441 206.714 103.846C207.796 103.545 210.475 103.434 211.719 103.639C215.17 104.207 217.675 106.056 218.673 108.773L218.907 109.41H221.386C224.208 109.41 224.033 109.504 223.656 108.194C222.575 104.436 220.021 101.594 216.444 100.168C214.519 99.401 212.882 99.0877 210.46 99.0231C209.339 98.9931 208.01 99.0268 207.505 99.098ZM269.735 118.66V137.696H272.035H274.335V118.66V99.6239H272.035H269.735V118.66ZM279.067 118.66V137.696H281.367H283.667V118.66V99.6239H281.367H279.067V118.66ZM230.002 102.391C229.952 102.442 229.912 104.042 229.912 105.947V109.41H227.743H225.574V111.354V113.298H227.734H229.894L229.947 123.251C229.992 131.753 230.031 133.335 230.209 134.096C230.49 135.292 230.845 135.963 231.503 136.538C232.517 137.424 233.898 137.689 237.505 137.693L239.907 137.696L239.871 135.719L239.835 133.741L237.84 133.674C236.083 133.615 235.801 133.574 235.474 133.327C234.681 132.728 234.712 133.137 234.673 122.785L234.636 113.303L237.236 113.267L239.835 113.231V111.354V109.477L237.241 109.441L234.648 109.404L234.613 105.888L234.577 102.372L232.335 102.335C231.102 102.315 230.052 102.341 230.002 102.391ZM145.796 121.514L114.844 137.629L114.808 140.344C114.788 141.837 114.81 143.058 114.856 143.058C114.902 143.058 117.994 141.467 121.726 139.522C154.334 122.529 166.995 115.974 167.068 116.048C167.115 116.096 167.153 117.382 167.153 118.906C167.153 121.3 167.112 121.875 166.847 123.135C165.419 129.939 161.21 135.493 155.207 138.492C149.351 141.418 142.592 141.447 136.519 138.574L135.215 137.957L132.806 139.215L130.397 140.472L131.032 140.939C132.74 142.194 135.312 143.489 137.639 144.266C148.939 148.04 161.21 143.619 167.78 133.406C170.715 128.843 172.32 122.824 172.014 117.521C171.835 114.422 172.583 113.104 175.357 111.628L176.813 110.853V108.121C176.813 106.618 176.799 105.391 176.781 105.393C176.762 105.396 162.819 112.65 145.796 121.514ZM296.907 109.077C291.987 110.029 288.724 113.29 288.09 117.889L288.021 118.392H290.417H292.814L292.959 117.528C293.499 114.313 296.025 112.56 299.767 112.803C302.493 112.98 304.181 114.216 304.972 116.613C305.205 117.318 305.273 117.834 305.28 118.928L305.288 120.336L304.893 120.373C303.62 120.493 299.393 121.135 297.993 121.419C293.245 122.385 290.553 123.546 288.717 125.419C287.297 126.867 286.83 128.061 286.825 130.261C286.819 132.506 287.413 134.01 288.921 135.567C290.716 137.419 293.251 138.366 296.416 138.365C300.324 138.364 303.319 137.096 305.037 134.715L305.599 133.937L305.668 134.509C305.706 134.824 305.771 135.474 305.813 135.953C305.855 136.433 305.923 137.021 305.965 137.26L306.04 137.696H308.4C310.591 137.696 310.754 137.679 310.686 137.461C310.492 136.836 310.197 134.04 310.084 131.741C310.014 130.334 309.994 127.072 310.038 124.491C310.092 121.346 310.069 119.306 309.968 118.303C309.426 112.919 307.229 110.188 302.651 109.208C301.19 108.895 298.199 108.827 296.907 109.077ZM251.795 109.104C251.014 109.215 249.294 109.705 248.515 110.038C244.414 111.794 241.683 115.431 240.731 120.403C240.465 121.791 240.435 125.112 240.675 126.569C241.201 129.76 242.348 132.313 244.146 134.293C247.344 137.815 252.59 139.194 257.775 137.874C261.492 136.929 264.603 134.196 265.916 130.724C266.137 130.139 266.318 129.629 266.318 129.59C266.318 129.551 265.239 129.52 263.92 129.523L261.521 129.526L261.061 130.346C260.114 132.033 258.789 133.158 257.127 133.684C252.259 135.226 247.445 132.878 245.999 128.256C245.813 127.66 245.627 126.705 245.587 126.134L245.514 125.095H256.113H266.712V123.738C266.712 120.287 265.756 116.906 264.045 114.303C263.295 113.162 261.542 111.449 260.466 110.806C258.364 109.55 256.293 109 253.766 109.03C252.899 109.04 252.012 109.073 251.795 109.104ZM325.549 109.417C324.433 109.608 323.187 110.057 322.326 110.579C321.352 111.169 320.038 112.536 319.444 113.576L319.028 114.303L319.025 111.857L319.022 109.41H316.788H314.553V123.553V137.696H316.846H319.138L319.191 128.949C319.235 121.686 319.278 120.06 319.445 119.365C319.966 117.197 320.672 116.003 321.92 115.181C323.038 114.444 323.73 114.302 326.152 114.312L328.222 114.321V111.798V109.276L327.204 109.292C326.643 109.3 325.899 109.357 325.549 109.417ZM256.032 113.379C257.892 113.873 259.827 115.466 260.768 117.278C261.228 118.163 261.718 119.89 261.718 120.625V121.073H253.62H245.522L245.616 120.307C246.1 116.35 248.651 113.707 252.518 113.154C253.439 113.022 255.087 113.128 256.032 113.379ZM305.708 126.134C305.621 128.341 305.451 129.126 304.751 130.572C303.583 132.983 301.284 134.33 297.945 134.557C295.241 134.742 293.113 133.76 292.297 131.952C292.08 131.471 292.015 131.067 292.014 130.189C292.013 129.187 292.056 128.974 292.373 128.424C293.52 126.435 296.567 125.262 302.725 124.437C303.773 124.297 304.89 124.176 305.208 124.169L305.786 124.156L305.708 126.134Z" fill="#111111"/>
<path fill-rule="evenodd" clip-rule="evenodd" d="M214.568 211.615C204.99 225.311 197.126 236.587 197.093 236.672C197.06 236.758 201.711 236.827 207.429 236.827C215.725 236.827 217.826 236.874 217.826 237.06C217.826 237.187 216.57 246.801 215.034 258.424C213.498 270.047 212.262 279.577 212.286 279.601C212.33 279.645 246.744 221.811 246.864 221.493C246.899 221.402 242.482 221.333 236.708 221.333H226.492L226.496 220.923C226.498 220.697 227.753 212.928 229.286 203.658C230.819 194.388 232.053 186.783 232.028 186.758C232.003 186.733 224.146 197.918 214.568 211.615ZM224.855 211.576C223.778 218.09 222.873 223.627 222.844 223.881L222.791 224.341L232.134 224.432L241.478 224.523L229.432 244.793C222.807 255.942 217.361 265.038 217.331 265.007C217.281 264.957 221.125 235.438 221.339 234.23L221.428 233.729H212.224C207.163 233.729 203.021 233.687 203.021 233.636C203.021 233.498 226.713 199.62 226.767 199.68C226.793 199.709 225.933 205.062 224.855 211.576Z" fill="#111111"/>
<defs>
<linearGradient id="paint0_linear_7_20746" x1="93.0217" y1="111.5" x2="414.726" y2="379.89" gradientUnits="userSpaceOnUse">
<stop stop-color="#111111" stop-opacity="0"/>
<stop offset="0.547979" stop-color="#111111"/>
<stop offset="1" stop-color="#111111" stop-opacity="0"/>
</linearGradient>
<clipPath id="clip0_7_20746">
<rect width="197.173" height="118.687" fill="white" transform="translate(123.392 317.887)"/>
</clipPath>
</defs>
</svg>
