<svg width="443" height="528" viewBox="0 0 443 528" fill="none" xmlns="http://www.w3.org/2000/svg">
<rect x="0.5" y="0.5" width="442" height="527" rx="9.5" fill="white" stroke="url(#paint0_linear_345_249248)"/>
<path d="M237.144 115.51L237.368 114.535L237.144 115.51ZM237.144 115.51C234.791 114.971 230.02 114.492 225.205 114.224C220.385 113.956 215.69 113.909 213.483 114.191C201.47 115.727 189.967 120.043 179.946 126.776C177.207 128.616 173.27 132.101 169.526 135.861C165.783 139.621 162.313 143.575 160.481 146.327C155.167 154.305 151.547 162.685 149.192 172.476L149.192 172.476C148.138 176.853 147.991 179.551 147.754 201.516L147.492 225.78L147.482 226.77H146.492H140.223C136.515 226.77 132.696 227.132 130.765 227.638C121.018 230.188 113.508 237.75 110.953 247.604L109.985 247.353L110.953 247.604C110.934 247.676 110.9 247.887 110.861 248.295C110.824 248.681 110.788 249.189 110.752 249.817C110.681 251.071 110.615 252.773 110.553 254.861C110.431 259.037 110.328 264.736 110.246 271.455C110.082 284.891 110 302.386 110 319.884C110 337.381 110.082 354.877 110.246 368.313C110.328 375.031 110.431 380.731 110.553 384.906C110.615 386.995 110.681 388.696 110.752 389.95C110.788 390.578 110.824 391.087 110.861 391.473C110.9 391.88 110.934 392.092 110.953 392.164C113.508 402.017 121.018 409.58 130.765 412.13C131.405 412.297 132.576 412.451 135.259 412.572C137.919 412.693 141.993 412.781 148.385 412.844C161.167 412.97 183.168 412.998 221.555 412.998C226.577 412.998 231.321 412.999 235.805 412.999C274.373 413.004 293.626 413.006 303.929 412.625C309.691 412.412 312.566 412.081 314.428 411.593C315.863 411.217 316.686 410.759 317.875 410.096C318.202 409.913 318.558 409.715 318.962 409.499L319.434 410.38L318.962 409.499C325.415 406.045 331.025 398.318 332.419 390.936C332.451 390.767 332.495 390.226 332.539 389.221C332.581 388.252 332.621 386.923 332.658 385.241C332.732 381.876 332.794 377.117 332.845 371.037C332.946 358.877 332.999 341.444 332.999 319.339C332.999 316.666 333 314.093 333 311.615C333.002 279.47 333.003 263.435 332.637 254.714C332.44 250.013 332.139 247.513 331.698 245.787C331.327 244.332 330.859 243.417 330.185 242.1C330.07 241.876 329.949 241.64 329.822 241.388L330.663 240.964L329.822 241.388C328.837 239.435 327.115 237.179 325.113 235.13C323.112 233.08 320.895 231.303 318.962 230.269L319.434 229.387L318.962 230.269C314.178 227.707 309.96 226.77 302.887 226.77H296.618H295.629L295.618 225.78L295.356 201.516C295.119 179.551 294.972 176.853 293.919 172.476C290.329 157.556 284.103 146.32 273.631 135.835C262.885 125.076 251.684 118.839 237.144 115.51ZM271.335 226.77H272.335V225.77V204.114C272.335 197.588 272.272 191.822 272.161 187.424C272.051 183.073 271.893 179.962 271.684 178.828C269.235 165.525 260.592 152.666 248.99 145.034C244.553 142.115 237.358 139.179 231.734 137.982L231.525 138.96L231.733 137.982C229.247 137.452 225.273 137.204 221.377 137.211C217.483 137.218 213.531 137.48 211.091 138.019L211.091 138.019C194.373 141.714 180.285 153.644 174.288 169.222C172.66 173.453 171.769 176.135 171.302 180.792C170.842 185.383 170.791 191.916 170.785 203.858L170.775 225.769L170.775 226.77H171.775H221.555H271.335Z" stroke="#111111" stroke-width="2"/>
<path d="M233.137 283.149H209.51L197.698 262.575L209.51 242H233.137L244.949 262.575L233.137 283.149ZM210.069 282.177H232.578L243.833 262.575L232.578 242.972H210.069L198.813 262.575L210.069 282.177Z" fill="#111111"/>
<path d="M225.566 263.439C225.406 263.458 225.118 263.594 224.986 263.832C224.887 264.009 224.945 264.24 225.121 264.341C225.179 264.374 225.243 264.39 225.305 264.39C225.431 264.39 225.551 264.326 225.618 264.205C225.63 264.193 225.665 264.172 225.659 264.17C225.86 264.145 226.003 263.96 225.978 263.758C225.951 263.558 225.767 263.414 225.566 263.439Z" fill="#FFDE3B"/>
<path d="M217.691 262.496C217.689 262.457 217.691 262.415 217.705 262.372C217.691 262.413 217.687 262.455 217.691 262.496Z" fill="#FFDE3B"/>
<path d="M217.691 262.496C217.689 262.457 217.691 262.415 217.705 262.372C217.691 262.413 217.687 262.455 217.691 262.496Z" fill="#FFDE3B"/>
<path d="M217.694 262.514C217.694 262.508 217.69 262.502 217.69 262.496C217.69 262.502 217.692 262.508 217.694 262.514Z" fill="#FFDE3B"/>
<path d="M217.694 262.514C217.694 262.508 217.69 262.502 217.69 262.496C217.69 262.502 217.692 262.508 217.694 262.514Z" fill="#FFDE3B"/>
<path d="M236.439 269.109C235.691 269.06 235.146 268.547 234.997 268.391C234.801 268.187 234.21 267.32 233.734 266.624C233.359 266.076 233.036 265.601 232.876 265.399C232.58 265.028 232.052 263.42 231.94 262.848C231.918 262.741 231.909 262.615 231.907 262.481C232.466 262.284 233.512 262.243 233.775 262.292C233.982 262.329 234.185 262.463 234.502 262.772C234.763 263.025 234.983 263.107 235.182 263.107C235.327 263.107 235.461 263.064 235.59 263.013C235.799 262.932 235.991 262.702 236.12 262.514C236.373 262.49 236.613 262.347 236.822 262.195C237.166 261.942 237.205 261.528 236.938 260.964C236.884 260.849 236.816 260.696 236.741 260.529C236.66 260.344 236.569 260.144 236.48 259.951C236.298 259.562 236.126 259.269 235.869 259.096C235.817 259.061 235.66 258.919 235.536 258.806C235.447 258.726 235.353 258.641 235.262 258.559C235.287 258.489 235.306 258.419 235.312 258.347C235.325 258.162 235.267 257.993 235.144 257.861C235.043 257.752 234.856 257.628 234.533 257.637C234.364 257.643 234.177 257.692 233.991 257.768C233.51 257.635 232.717 257.637 232.446 257.649C232.266 257.659 231.975 257.667 231.661 257.676C231.174 257.692 230.621 257.709 230.346 257.731C229.935 257.764 229.422 257.748 229.225 257.725C229.063 257.705 228.892 257.667 228.714 257.624C228.395 257.55 228.032 257.462 227.612 257.476C226.968 257.492 226.334 257.884 226.031 258.073L225.965 258.114C225.843 258.186 225.24 258.277 224.571 258.262C223.701 258.24 221.286 258.077 220.591 258.001C220.408 257.982 220.141 257.927 219.833 257.865C219.002 257.696 217.865 257.466 216.811 257.571C215.597 257.692 214.404 258.013 213.269 258.526L213.008 258.647C212.175 259.03 211.03 259.554 209.835 259.465C208.818 259.387 207.099 258.849 207.099 257.309C207.099 256.486 208.042 256.063 208.447 256.063C209.081 256.063 209.651 256.568 209.701 256.708C209.701 256.972 209.647 257.147 209.605 257.287C209.545 257.484 209.454 257.781 209.727 258.038C209.945 258.242 210.415 258.349 210.821 258.17C211.156 258.024 211.552 257.653 211.552 256.708C211.552 255.007 209.707 254.215 208.46 254.215C207.172 254.215 205.306 255.318 205.306 257.309C205.306 259.323 206.637 260.818 208.775 261.211C210.287 261.489 211.301 261.351 212.03 261.094C211.821 261.753 211.509 262.683 211.246 263.266C210.802 264.25 209.686 265.636 209.51 265.774C209.464 265.805 209.409 265.838 209.351 265.872C209.094 266.025 208.775 266.216 208.673 266.54C208.607 266.752 207.834 268.658 207.551 269.34C207.29 269.972 207.547 270.324 207.754 270.608C207.801 270.672 207.853 270.74 207.901 270.818C208.147 271.211 208.605 271.372 208.998 271.372C209.166 271.372 209.324 271.341 209.448 271.286C209.918 271.076 209.877 270.408 209.787 270.133C209.732 269.974 209.603 269.865 209.438 269.727C209.394 269.69 209.33 269.636 209.284 269.591C209.411 269.276 209.858 268.506 209.978 268.382C210.125 268.247 210.84 267.757 211.411 267.431C212.004 267.093 213.344 266.208 213.984 265.747C214.344 265.488 214.677 265.203 214.914 264.987C215.16 265.426 215.28 265.733 215.288 265.835C215.371 267.324 215.311 267.643 215.297 267.691C215.282 267.75 215.259 267.806 215.235 267.864C215.114 268.168 214.907 268.675 215.491 269.313C215.75 269.595 217.181 271.053 217.749 271.178C217.761 271.179 218.53 271.317 219.234 271.317C219.706 271.317 220.151 271.255 220.317 271.049C220.497 270.828 220.528 270.511 220.402 270.221C220.255 269.885 219.936 269.671 219.549 269.647C219.369 269.636 219.213 269.651 219.074 269.665C218.782 269.694 218.621 269.71 218.368 269.5C218.209 269.367 217.786 269.017 217.757 268.914C217.819 268.648 218.318 266.737 218.495 266.247C218.521 266.175 218.555 266.087 218.592 265.99C218.755 265.562 218.913 265.127 219.025 264.717C219.478 264.841 220.284 265.03 221.199 265.104C222.115 265.177 222.78 265.1 223.316 265.039C223.393 265.03 223.463 265.024 223.534 265.016C223.436 265.428 223.304 266.013 223.256 266.445C223.215 266.797 223.186 267.334 223.161 267.806C223.142 268.185 223.115 268.658 223.099 268.737C223.018 268.98 223.138 269.214 223.254 269.441C223.293 269.519 223.358 269.647 223.366 269.692C223.378 269.797 223.521 270.596 223.764 270.824C223.981 271.024 224.811 271.121 225.193 271.121C225.248 271.121 225.292 271.119 225.325 271.115C225.851 271.057 226.245 270.668 226.201 270.248L226.197 270.196C226.18 270.003 226.141 269.554 225.48 269.513C225.381 269.507 225.292 269.507 225.215 269.507C225.188 269.507 225.159 269.507 225.132 269.507C225.12 269.474 225.106 269.439 225.095 269.402C225.027 269.218 224.965 269.041 224.998 268.887C225.062 268.599 225.541 267.283 225.785 266.698C225.967 266.264 226.394 265.422 226.58 265.065C226.673 265.053 226.767 265.039 226.858 265.028C227.067 265.002 227.262 264.977 227.434 264.944C227.697 264.895 227.995 264.789 228.206 264.703C228.662 265.275 229.455 266.111 229.807 266.383C230.018 266.546 230.41 266.925 230.789 267.291C231.201 267.689 231.592 268.067 231.804 268.22L231.961 268.333C232.761 268.903 233.202 269.276 233.274 269.439C233.498 269.951 234.761 270.866 235.248 270.948C235.254 270.95 235.59 270.997 235.989 270.997C236.538 270.997 237.211 270.907 237.329 270.481C237.406 270.205 237.449 269.809 237.224 269.492C237.104 269.334 236.876 269.138 236.439 269.109ZM207.36 255.652C207.354 255.524 207.281 255.415 207.176 255.355C207.536 255.131 207.923 254.999 208.251 254.96V254.985C208.251 255.133 208.338 255.26 208.464 255.318C208.454 255.318 208.445 255.316 208.435 255.316C208.102 255.318 207.712 255.436 207.36 255.652ZM210.807 256.702C210.807 257.105 210.715 257.379 210.545 257.474C210.457 257.523 210.359 257.521 210.291 257.513C210.293 257.509 210.293 257.505 210.295 257.501C210.347 257.334 210.425 257.079 210.425 256.704C210.425 256.597 210.39 256.481 210.326 256.364L210.363 256.327C210.506 256.183 210.506 255.95 210.363 255.804C210.22 255.66 209.988 255.66 209.843 255.804L209.829 255.818C209.518 255.582 209.118 255.398 208.702 255.339C208.856 255.3 208.972 255.17 208.98 255.007C209.8 255.17 210.807 255.699 210.807 256.702ZM206.637 255.796C206.652 255.924 206.728 256.031 206.838 256.086C206.701 256.239 206.585 256.414 206.499 256.607C206.397 256.617 206.3 256.665 206.236 256.757C206.119 256.922 206.157 257.153 206.322 257.272L206.352 257.293C206.352 257.297 206.352 257.299 206.352 257.301C206.352 257.634 206.41 257.935 206.515 258.209C206.381 258.238 206.277 258.335 206.242 258.468C206.105 258.112 206.031 257.721 206.031 257.301C206.031 256.675 206.281 256.173 206.637 255.796ZM206.453 258.907C206.496 258.925 206.54 258.934 206.588 258.934H206.627C206.72 258.934 206.803 258.895 206.869 258.839C207.06 259.088 207.298 259.302 207.567 259.481C207.433 259.444 207.286 259.483 207.192 259.595L207.145 259.65C207.136 259.661 207.132 259.675 207.124 259.689C206.853 259.461 206.627 259.201 206.453 258.907ZM207.735 260.091L207.749 260.076C207.87 259.932 207.859 259.724 207.735 259.589C208.201 259.866 208.744 260.046 209.305 260.14C209.295 260.148 209.284 260.151 209.276 260.161L209.147 260.299C209.09 260.359 209.065 260.433 209.056 260.507C209.003 260.497 208.953 260.492 208.897 260.482C208.47 260.4 208.079 260.268 207.735 260.091ZM224.414 268.242C224.229 268.281 224.035 268.321 224.029 268.31C224.029 268.288 224.043 268.216 224.109 268.148C224.167 268.088 224.248 268.053 224.331 268.053C224.128 268.053 223.964 268.218 223.964 268.422C223.964 268.601 224.093 268.745 224.263 268.778C224.203 269.122 224.31 269.43 224.391 269.655C224.408 269.704 224.426 269.75 224.439 269.797C224.582 270.248 224.971 270.244 225.205 270.246C225.269 270.246 225.34 270.246 225.422 270.25C225.433 270.25 225.443 270.252 225.451 270.252C225.451 270.254 225.451 270.258 225.451 270.26L225.453 270.287C225.423 270.316 225.346 270.367 225.23 270.38C225.025 270.4 224.47 270.32 224.256 270.26C224.194 270.112 224.103 269.781 224.084 269.61C224.064 269.433 223.977 269.266 223.894 269.103C223.863 269.043 223.819 268.955 223.801 268.905C223.83 268.769 223.846 268.51 223.882 267.845C223.884 267.798 223.888 267.752 223.89 267.703C223.931 267.719 223.973 267.728 224.018 267.728C224.06 267.728 224.105 267.721 224.147 267.703C224.192 267.686 224.223 267.676 224.246 267.668C224.331 267.639 224.381 267.619 224.482 267.553C224.652 267.443 224.702 267.215 224.592 267.042C224.482 266.871 224.256 266.82 224.084 266.931C224.049 266.954 224.049 266.954 224.01 266.966C223.989 266.974 223.962 266.984 223.929 266.995C223.94 266.82 223.954 266.657 223.969 266.527C224.022 266.068 224.182 265.387 224.277 265.002C224.435 265.024 224.598 265.057 224.758 265.09C225.031 265.148 225.309 265.207 225.584 265.207C225.611 265.207 225.638 265.203 225.665 265.203C225.464 265.603 225.22 266.097 225.091 266.41C224.921 266.83 224.606 267.674 224.414 268.242ZM236.634 270.186C236.387 270.262 235.681 270.275 235.358 270.221C235.093 270.17 234.053 269.41 233.935 269.144C233.8 268.835 233.39 268.475 232.734 267.993C232.839 267.876 232.862 267.701 232.779 267.561C232.779 267.561 232.731 267.478 232.7 267.351C232.653 267.153 232.454 267.03 232.257 267.079C232.094 267.118 231.988 267.262 231.982 267.421C231.785 267.242 231.524 266.991 231.286 266.76C231.157 266.634 231.031 266.513 230.909 266.396C230.928 266.398 230.946 266.406 230.967 266.404C231.17 266.387 231.319 266.21 231.304 266.006C231.288 265.823 231.186 265.728 231.124 265.685C230.954 265.568 230.772 265.623 230.654 265.658L230.58 265.679C230.47 265.71 230.391 265.788 230.348 265.883C230.314 265.854 230.275 265.819 230.244 265.796C230.18 265.747 230.103 265.677 230.018 265.597C230.018 265.597 230.018 265.597 230.018 265.595C230.02 265.584 230.022 265.572 230.022 265.56C230.124 265.461 230.165 265.31 230.112 265.168C230.029 264.934 229.836 264.87 229.695 264.886C229.583 264.897 229.507 264.95 229.449 265.018C229.026 264.559 228.61 264.065 228.542 263.927C228.363 263.564 227.529 262.844 227.28 262.632C227.125 262.5 226.893 262.521 226.762 262.677C226.632 262.833 226.651 263.066 226.806 263.198C227.15 263.49 227.541 263.851 227.748 264.081C227.595 264.135 227.429 264.188 227.289 264.215C227.257 264.221 227.222 264.227 227.187 264.231C227.28 264.081 227.26 263.884 227.125 263.762C226.974 263.626 226.742 263.639 226.607 263.793C226.522 263.89 226.369 264.077 226.315 264.229C226.299 264.269 226.297 264.31 226.297 264.353C226.127 264.378 225.951 264.409 225.775 264.45C225.551 264.503 225.242 264.437 224.917 264.367C224.718 264.324 224.515 264.283 224.306 264.26C224.337 264.209 224.37 264.157 224.404 264.108C224.521 263.941 224.482 263.711 224.316 263.593C224.149 263.476 223.921 263.515 223.803 263.682C223.587 263.989 223.519 264.166 223.498 264.273C223.407 264.283 223.32 264.291 223.221 264.302C222.823 264.349 222.345 264.4 221.748 264.388C221.767 264.363 221.784 264.336 221.796 264.302C221.866 264.112 221.769 263.898 221.578 263.828C221.15 263.671 220.806 264.102 220.675 264.301C220.027 264.211 219.474 264.075 219.155 263.986C219.166 263.867 219.172 263.752 219.164 263.645C219.151 263.441 218.973 263.288 218.774 263.301C218.664 263.309 218.571 263.367 218.507 263.449C218.466 263.361 218.391 263.289 218.292 263.256C218.275 263.251 218.234 263.241 218.182 263.231C218.155 263.227 218.097 263.216 218.055 263.204C217.968 263.107 217.83 263.06 217.693 263.093C217.496 263.142 217.376 263.342 217.424 263.54C217.502 263.857 217.855 263.921 218.08 263.962C218.111 263.97 218.144 263.974 218.174 263.974C218.269 263.974 218.356 263.933 218.424 263.871C218.406 264.106 218.341 264.394 218.254 264.685C218.238 264.616 218.211 264.549 218.159 264.495C218.064 264.382 217.884 264.174 217.629 264.217C217.488 264.24 217.37 264.337 217.316 264.476C217.241 264.664 217.331 264.88 217.521 264.956C217.548 264.967 217.577 264.975 217.606 264.979C217.625 265 217.641 265.018 217.65 265.028C217.72 265.098 217.811 265.133 217.904 265.133C217.989 265.133 218.074 265.098 218.144 265.037C218.057 265.294 217.966 265.535 217.896 265.72C217.857 265.821 217.823 265.912 217.795 265.988C217.784 266.021 217.77 266.062 217.755 266.107C217.724 265.992 217.681 265.844 217.662 265.794C217.589 265.607 217.382 265.52 217.194 265.59C217.007 265.66 216.912 265.872 216.978 266.062C216.995 266.115 217.047 266.305 217.08 266.433C217.123 266.599 217.271 266.71 217.436 266.71C217.467 266.71 217.498 266.706 217.529 266.698C217.55 266.692 217.565 266.678 217.585 266.671C217.533 266.851 217.478 267.046 217.424 267.244C217.378 267.168 217.306 267.106 217.215 267.079C217.02 267.023 216.817 267.135 216.761 267.332C216.713 267.497 216.769 267.658 216.962 267.929C217.022 268.012 217.111 268.053 217.206 268.069C217.121 268.395 217.055 268.654 217.034 268.743C216.914 269.257 217.389 269.651 217.892 270.067C218.379 270.47 218.799 270.429 219.134 270.398C219.257 270.386 219.373 270.375 219.497 270.382C219.617 270.39 219.677 270.443 219.706 270.485C219.721 270.509 219.729 270.53 219.733 270.548C219.381 270.618 218.261 270.532 217.906 270.454C217.664 270.376 216.645 269.484 216.024 268.809C215.756 268.518 215.804 268.399 215.91 268.141C215.947 268.051 215.98 267.964 216.003 267.876C216.024 267.792 216.084 267.559 216.046 266.476C216.051 266.492 216.057 266.501 216.061 266.509C216.127 266.641 216.262 266.721 216.399 266.721C216.454 266.721 216.506 266.71 216.558 266.684C216.74 266.593 216.817 266.381 216.726 266.198C216.713 266.163 216.678 266.017 216.649 265.889C216.604 265.689 216.407 265.562 216.212 265.607C216.127 265.627 216.059 265.677 216.009 265.739C215.974 265.409 215.686 264.829 215.34 264.266C215.346 264.266 215.351 264.266 215.357 264.266C215.531 264.248 215.665 264.11 215.686 263.943C215.699 263.912 215.73 263.857 215.757 263.818C215.87 263.649 215.823 263.42 215.655 263.307C215.487 263.194 215.259 263.239 215.146 263.41C215.059 263.542 215.011 263.643 214.986 263.723C214.435 262.928 213.513 261.365 213.503 261.349C213.398 261.174 213.174 261.116 213 261.219C212.826 261.322 212.768 261.549 212.871 261.724C212.909 261.788 213.818 263.33 214.387 264.149C214.435 264.217 214.475 264.281 214.52 264.347C214.3 264.551 213.938 264.87 213.555 265.144C213.406 265.251 213.217 265.383 213.008 265.525C213.047 265.333 212.931 265.142 212.739 265.096C212.544 265.047 212.343 265.166 212.294 265.364C212.252 265.537 212.246 265.687 212.246 265.761C212.246 265.844 212.279 265.918 212.325 265.98C211.83 266.307 211.335 266.62 211.045 266.785C210.898 266.869 210.734 266.968 210.57 267.073C210.566 267.05 210.562 267.03 210.56 267.019C210.548 266.824 210.39 266.671 210.193 266.671C209.99 266.671 209.825 266.836 209.825 267.04C209.825 267.108 209.835 267.326 209.918 267.503C209.719 267.641 209.558 267.761 209.477 267.837C209.299 268.002 208.485 269.292 208.518 269.68C208.539 269.939 208.756 270.12 208.967 270.295C209.007 270.328 209.063 270.375 209.096 270.408C209.108 270.472 209.11 270.567 209.1 270.625C208.961 270.651 208.65 270.625 208.524 270.423C208.464 270.328 208.404 270.246 208.348 270.168C208.166 269.921 208.129 269.869 208.232 269.624C208.425 269.155 209.292 267.034 209.375 266.764C209.408 266.696 209.616 266.571 209.727 266.505C209.794 266.465 209.86 266.426 209.918 266.387C210.05 266.297 210.338 265.973 210.662 265.551C210.672 265.638 210.691 265.747 210.709 265.835C210.744 266.012 210.896 266.134 211.069 266.134C211.092 266.134 211.115 266.132 211.138 266.128C211.337 266.089 211.467 265.895 211.428 265.695C211.428 265.693 211.393 265.522 211.389 265.452C211.386 265.249 211.223 265.088 211.022 265.088C211.014 265.088 211.009 265.092 211.001 265.092C211.357 264.588 211.709 264.026 211.915 263.569C212.379 262.541 212.95 260.602 212.975 260.519C213.018 260.375 212.969 260.219 212.851 260.126C212.735 260.033 212.573 260.019 212.443 260.093C211.883 260.41 211.142 260.702 209.86 260.608C209.939 260.48 209.933 260.322 209.845 260.2C210.137 260.218 210.421 260.206 210.697 260.173C210.713 260.227 210.736 260.282 210.777 260.326L210.862 260.418C210.933 260.497 211.034 260.538 211.132 260.538C211.221 260.538 211.31 260.505 211.38 260.441C211.498 260.332 211.525 260.163 211.465 260.023C211.917 259.904 212.339 259.745 212.722 259.58C212.766 259.685 212.853 259.77 212.973 259.798L213.11 259.829C213.137 259.834 213.165 259.838 213.19 259.838C213.358 259.838 213.511 259.722 213.547 259.549C213.573 259.436 213.538 259.325 213.472 259.241L213.569 259.197C213.899 259.047 214.234 258.923 214.574 258.81C214.57 258.985 214.684 259.142 214.86 259.179C214.885 259.185 214.911 259.187 214.936 259.187C215.106 259.187 215.259 259.066 215.295 258.893L215.33 258.726C215.34 258.678 215.34 258.631 215.33 258.586C215.553 258.53 215.775 258.477 215.997 258.435C215.972 258.524 215.97 258.615 215.997 258.703C216.046 258.858 216.173 258.975 216.345 259.022C216.378 259.031 216.411 259.035 216.442 259.035C216.604 259.035 216.751 258.928 216.796 258.763C216.825 258.658 216.805 258.553 216.751 258.468C216.751 258.419 216.74 258.374 216.72 258.33C216.775 258.324 216.829 258.312 216.883 258.306C217.192 258.275 217.515 258.281 217.838 258.304C217.662 258.306 217.505 258.427 217.474 258.606C217.451 258.748 217.509 258.884 217.616 258.963C217.629 259.006 217.65 259.049 217.681 259.086C217.755 259.175 217.859 259.222 217.966 259.222C218.047 259.222 218.13 259.195 218.198 259.138C218.345 259.016 218.406 258.843 218.362 258.674C218.296 258.425 218.053 258.339 217.942 258.312C218.256 258.339 218.565 258.384 218.861 258.435C218.826 258.458 218.793 258.485 218.768 258.522C218.675 258.654 218.679 258.827 218.768 258.954C218.764 259.053 218.799 259.154 218.874 259.23C218.946 259.302 219.041 259.339 219.134 259.339C219.226 259.339 219.321 259.302 219.393 259.23C219.491 259.131 219.542 258.995 219.53 258.856C219.52 258.74 219.468 258.627 219.383 258.534C219.485 258.553 219.586 258.575 219.681 258.594C220.008 258.66 220.288 258.717 220.504 258.74C220.605 258.751 220.746 258.763 220.91 258.779C220.949 258.961 221.044 259.148 221.162 259.226C221.224 259.269 221.295 259.288 221.365 259.288C221.483 259.288 221.601 259.23 221.67 259.123C221.728 259.037 221.74 258.936 221.719 258.843C222.291 258.884 222.945 258.926 223.511 258.958C223.486 259.065 223.473 259.183 223.496 259.29C223.532 259.465 223.691 259.597 223.863 259.597C223.886 259.597 223.909 259.595 223.935 259.589C224.134 259.547 224.261 259.366 224.219 259.168C224.219 259.152 224.229 259.115 224.234 259.096C224.252 259.063 224.259 259.028 224.267 258.995C224.37 258.998 224.466 259.002 224.546 259.004C225.025 259.016 225.924 258.977 226.311 258.763C226.354 258.921 226.489 259.039 226.659 259.039C226.862 259.039 227.026 258.874 227.026 258.67V258.403C227.026 258.394 227.023 258.386 227.021 258.376C227.142 258.324 227.268 258.279 227.394 258.252C227.392 258.267 227.384 258.281 227.384 258.297C227.384 258.501 227.549 258.666 227.752 258.666H227.829C228.032 258.666 228.196 258.501 228.196 258.297C228.196 258.289 228.192 258.281 228.192 258.273C228.308 258.295 228.424 258.32 228.542 258.349C228.734 258.394 228.931 258.438 229.134 258.464C229.31 258.485 229.612 258.497 229.923 258.493C229.894 258.516 229.865 258.542 229.844 258.575L229.793 258.652C229.683 258.823 229.732 259.053 229.902 259.164C229.964 259.205 230.033 259.222 230.101 259.222C230.221 259.222 230.339 259.162 230.41 259.053L230.461 258.975C230.567 258.808 230.522 258.59 230.362 258.475C230.373 258.475 230.387 258.473 230.399 258.473C230.607 258.456 231.008 258.442 231.408 258.431C231.408 258.536 231.449 258.641 231.536 258.713L231.582 258.752C231.652 258.81 231.735 258.837 231.816 258.837C231.922 258.837 232.025 258.792 232.098 258.705C232.17 258.619 232.191 258.51 232.174 258.407C232.292 258.403 232.396 258.4 232.477 258.396C232.665 258.386 232.887 258.388 233.102 258.4C233.092 258.411 233.081 258.423 233.071 258.435C232.945 258.594 232.972 258.827 233.131 258.954C233.289 259.08 233.521 259.053 233.647 258.893C233.775 258.732 233.964 258.6 234.142 258.508C234.144 258.508 234.144 258.507 234.146 258.507C234.308 258.423 234.463 258.374 234.55 258.368C234.488 258.479 234.333 258.654 234.183 258.777C234.024 258.905 233.999 259.136 234.127 259.296C234.2 259.387 234.306 259.434 234.413 259.434C234.494 259.434 234.573 259.407 234.643 259.352C234.658 259.341 234.68 259.323 234.701 259.304C234.676 259.354 234.658 259.409 234.658 259.467V259.589C234.658 259.794 234.823 259.959 235.026 259.959C235.206 259.959 235.347 259.827 235.38 259.656C235.409 259.679 235.436 259.7 235.461 259.716C235.583 259.798 235.714 260.054 235.815 260.27C235.902 260.459 235.991 260.657 236.07 260.836C236.147 261.009 236.217 261.168 236.275 261.287C236.389 261.526 236.385 261.602 236.391 261.602C236.149 261.779 236.064 261.788 236.066 261.79C236.008 261.781 235.925 261.755 235.847 261.734C235.66 261.682 235.557 261.652 235.44 261.682C235.242 261.73 235.122 261.932 235.173 262.129C235.194 262.216 235.246 262.286 235.312 262.335C235.167 262.391 235.161 262.387 235.014 262.245C234.701 261.942 234.351 261.65 233.904 261.571C233.794 261.551 233.581 261.54 233.32 261.544C233.353 261.462 233.361 261.367 233.328 261.277C233.258 261.085 233.048 260.987 232.856 261.057L232.771 261.089C232.58 261.159 232.483 261.37 232.553 261.563C232.557 261.575 232.566 261.584 232.572 261.596C232.361 261.621 232.15 261.658 231.951 261.707C231.969 261.565 231.988 261.456 232 261.419C232.075 261.23 231.984 261.015 231.795 260.939C231.605 260.863 231.393 260.954 231.317 261.145C231.267 261.271 231.205 261.649 231.182 262.063C231.137 262.045 231.087 262.022 231.041 262C230.857 261.915 230.638 261.997 230.553 262.183C230.468 262.368 230.549 262.588 230.735 262.673C230.994 262.792 231.12 262.827 231.197 262.835C231.205 262.891 231.211 262.949 231.22 263.002C231.234 263.068 231.255 263.157 231.282 263.264C231.265 263.272 231.247 263.272 231.23 263.282L231.153 263.328C230.979 263.433 230.923 263.661 231.027 263.836C231.097 263.951 231.218 264.015 231.342 264.015C231.392 264.015 231.441 264.001 231.489 263.98C231.657 264.514 231.882 265.127 232.1 265.541C232.065 265.558 232.031 265.578 232.002 265.607L231.922 265.685C231.822 265.782 231.698 265.903 231.723 266.107C231.737 266.221 231.826 266.346 231.926 266.404C231.984 266.437 232.046 266.453 232.108 266.453C232.236 266.453 232.359 266.387 232.427 266.266C232.441 266.241 232.452 266.216 232.46 266.188L232.506 266.144C232.673 266.379 232.897 266.706 233.131 267.048C233.777 267.993 234.25 268.679 234.469 268.909C234.991 269.455 235.71 269.807 236.395 269.853C236.509 269.861 236.592 269.888 236.619 269.929C236.644 269.96 236.658 270.054 236.634 270.186Z" fill="#FFDE3B"/>
<path d="M221.31 261.722C221.327 261.65 221.322 261.578 221.296 261.512C221.41 261.381 221.42 261.183 221.31 261.041C221.184 260.88 220.954 260.85 220.794 260.977C220.645 261.094 220.463 261.377 220.523 261.65C220.562 261.825 220.693 261.957 220.867 261.998C220.894 262.003 220.923 262.007 220.95 262.007C221.12 262.007 221.271 261.893 221.31 261.722Z" fill="#FFDE3B"/>
<path d="M222.781 262.647C222.868 262.63 223.029 262.567 223.127 262.344C223.166 262.254 223.286 261.873 223.15 261.646C223.015 261.42 222.754 261.411 222.377 261.471C222.176 261.502 222.039 261.69 222.072 261.893C222.095 262.046 222.211 262.163 222.354 262.196C222.34 262.248 222.338 262.303 222.35 262.357C222.385 262.532 222.538 262.655 222.71 262.655C222.733 262.655 222.756 262.653 222.781 262.647Z" fill="#FFDE3B"/>
<path d="M223.785 260.887C223.899 260.774 223.93 260.595 223.849 260.448C223.752 260.269 223.53 260.203 223.35 260.3C223.079 260.448 222.936 260.677 222.965 260.916C222.99 261.115 223.133 261.276 223.334 261.328C223.365 261.336 223.396 261.34 223.425 261.34C223.59 261.34 223.739 261.229 223.781 261.064C223.799 261.004 223.799 260.943 223.785 260.887Z" fill="#FFDE3B"/>
<path d="M222.211 261.211C222.222 261.211 222.234 261.213 222.244 261.213C222.431 261.213 222.592 261.069 222.609 260.877C222.621 260.749 222.567 260.63 222.472 260.556C222.468 260.426 222.394 260.299 222.269 260.237C222.087 260.146 221.867 260.22 221.776 260.402C221.689 260.577 221.691 260.772 221.78 260.935C221.869 261.091 222.029 261.194 222.211 261.211Z" fill="#FFDE3B"/>
<path d="M221.09 260.484C221.136 260.484 221.185 260.475 221.231 260.455C221.374 260.395 221.627 260.228 221.676 259.979C221.703 259.843 221.662 259.705 221.568 259.609C221.424 259.466 221.192 259.466 221.047 259.609C221.001 259.656 220.97 259.711 220.955 259.769C220.953 259.771 220.951 259.771 220.949 259.773C220.761 259.851 220.674 260.068 220.752 260.257C220.808 260.399 220.945 260.484 221.09 260.484Z" fill="#FFDE3B"/>
<path d="M220.158 259.72C220.168 259.722 220.18 259.722 220.189 259.722C220.379 259.722 220.539 259.576 220.555 259.384C220.564 259.275 220.526 259.174 220.456 259.1C220.475 258.906 220.34 258.729 220.145 258.7C219.946 258.667 219.756 258.808 219.727 259.011C219.708 259.133 219.675 259.361 219.82 259.543C219.901 259.646 220.021 259.709 220.158 259.72Z" fill="#FFDE3B"/>
<path d="M217.178 259.006C216.988 258.936 216.778 259.035 216.706 259.227C216.652 259.379 216.702 259.542 216.818 259.64C216.824 259.669 216.836 259.698 216.849 259.727C216.913 259.857 217.043 259.931 217.178 259.931C217.232 259.931 217.29 259.92 217.342 259.892C217.501 259.813 217.592 259.657 217.582 259.484C217.572 259.278 217.412 259.091 217.178 259.006Z" fill="#FFDE3B"/>
<path d="M218.08 260.165C218.144 260.216 218.219 260.239 218.294 260.239C218.401 260.239 218.507 260.19 218.581 260.097C218.598 260.074 218.613 260.05 218.625 260.025C218.735 259.945 218.789 259.803 218.76 259.654C218.722 259.453 218.513 259.327 218.316 259.364C218.205 259.385 217.948 259.432 217.884 259.698C217.861 259.799 217.853 259.992 218.08 260.165Z" fill="#FFDE3B"/>
<path d="M219.288 260.473C219.349 260.522 219.429 260.551 219.514 260.551C219.523 260.551 219.535 260.551 219.545 260.549C219.746 260.531 219.897 260.353 219.881 260.15C219.87 260.01 219.802 259.89 219.692 259.81C219.485 259.66 219.216 259.728 219.115 259.754C218.918 259.802 218.798 260.004 218.849 260.201C218.897 260.399 219.094 260.518 219.288 260.473Z" fill="#FFDE3B"/>
<path d="M219.605 260.956C219.605 260.962 219.603 260.968 219.603 260.976C219.514 261.044 219.458 261.149 219.458 261.269C219.458 261.474 219.622 261.639 219.825 261.639C220.181 261.639 220.339 261.248 220.339 260.97C220.339 260.772 220.185 260.62 219.988 260.61C219.786 260.601 219.62 260.76 219.605 260.956Z" fill="#FFDE3B"/>
<path d="M219.136 261.932C219.179 261.809 219.154 261.681 219.082 261.584C219.15 261.405 219.069 261.199 218.893 261.117C218.709 261.032 218.49 261.111 218.405 261.298C218.307 261.514 218.291 261.706 218.359 261.87C218.415 262.004 218.525 262.105 218.668 262.156C218.709 262.169 218.75 262.177 218.79 262.177C218.941 262.179 219.084 262.084 219.136 261.932Z" fill="#FFDE3B"/>
<path d="M218 261.212C218.085 261.212 218.168 261.183 218.238 261.125C218.275 261.094 218.304 261.057 218.325 261.018C218.439 260.946 218.51 260.812 218.495 260.668C218.476 260.466 218.296 260.316 218.093 260.337C217.882 260.359 217.716 260.474 217.648 260.643C217.588 260.791 217.617 260.96 217.72 261.082C217.791 261.168 217.896 261.212 218 261.212Z" fill="#FFDE3B"/>
<path d="M220.151 262.852C219.983 262.955 219.768 263.286 219.815 263.572C219.846 263.753 220 263.881 220.176 263.881C220.196 263.881 220.217 263.879 220.238 263.875C220.422 263.844 220.55 263.683 220.546 263.502C220.55 263.494 220.553 263.484 220.559 263.476C220.596 263.453 220.629 263.424 220.656 263.387C220.778 263.224 220.745 262.992 220.584 262.87C220.461 262.778 220.279 262.775 220.151 262.852Z" fill="#FFDE3B"/>
<path d="M221.445 262.434C221.31 262.475 221.201 262.574 221.138 262.714C221.054 262.897 221.043 263.161 221.112 263.315C221.174 263.453 221.308 263.533 221.447 263.533C221.497 263.533 221.547 263.523 221.598 263.5C221.766 263.424 221.849 263.239 221.803 263.066C221.803 263.062 221.803 263.058 221.803 263.054C221.901 262.961 221.944 262.817 221.903 262.679C221.843 262.487 221.638 262.376 221.445 262.434Z" fill="#FFDE3B"/>
<path d="M219.845 262.003C219.663 261.912 219.443 261.986 219.352 262.168C219.338 262.196 219.274 262.26 219.24 262.293C219.133 262.398 218.955 262.573 219.04 262.827C219.093 262.983 219.236 263.08 219.388 263.08C219.427 263.08 219.466 263.074 219.504 263.061C219.613 263.024 219.694 262.942 219.731 262.843C219.738 262.835 219.746 262.827 219.754 262.82C219.831 262.742 219.94 262.637 220.007 262.499C220.1 262.316 220.027 262.094 219.845 262.003Z" fill="#FFDE3B"/>
<path d="M222.755 263.207C222.708 263.277 222.683 263.34 222.664 263.392C222.645 263.443 222.633 263.47 222.602 263.507C222.472 263.664 222.494 263.896 222.648 264.028C222.718 264.086 222.801 264.113 222.884 264.113C222.991 264.113 223.093 264.069 223.167 263.981C223.275 263.851 223.319 263.738 223.348 263.662C223.354 263.647 223.36 263.631 223.368 263.618C223.48 263.448 223.433 263.219 223.265 263.106C223.095 262.992 222.867 263.038 222.755 263.207Z" fill="#FFDE3B"/>
<path d="M224.584 262.436C224.589 262.345 224.56 262.25 224.497 262.174C224.365 262.018 224.133 262.001 223.978 262.133C223.76 262.32 223.758 262.524 223.777 262.629C223.814 262.833 223.973 262.987 224.245 263.086C224.286 263.101 224.328 263.107 224.369 263.107C224.52 263.107 224.661 263.014 224.715 262.862C224.773 262.701 224.713 262.53 224.584 262.436Z" fill="#FFDE3B"/>
<path d="M225.566 263.44C225.406 263.459 225.118 263.595 224.986 263.832C224.887 264.009 224.945 264.241 225.121 264.342C225.179 264.375 225.243 264.39 225.305 264.39C225.431 264.39 225.551 264.326 225.618 264.206C225.63 264.194 225.665 264.173 225.659 264.171C225.86 264.145 226.003 263.961 225.978 263.759C225.951 263.558 225.767 263.414 225.566 263.44Z" fill="#FFDE3B"/>
<path d="M222.586 260.093C222.596 260.093 222.605 260.093 222.615 260.091C222.818 260.077 222.971 259.902 222.957 259.698C222.945 259.535 222.831 259.402 222.683 259.363C222.609 259.241 222.466 259.167 222.315 259.188C222.114 259.218 221.975 259.404 222.004 259.607C222.035 259.828 222.311 260.093 222.586 260.093Z" fill="#FFDE3B"/>
<path d="M224.375 260.544L224.623 260.272L224.379 260.548C224.449 260.61 224.536 260.641 224.623 260.641C224.723 260.641 224.824 260.6 224.897 260.517C225.008 260.392 225.019 260.211 224.936 260.077C224.959 259.976 224.94 259.867 224.874 259.778C224.754 259.613 224.524 259.578 224.362 259.698C224.23 259.795 224.153 259.932 224.145 260.081C224.134 260.328 224.315 260.49 224.375 260.544Z" fill="#FFDE3B"/>
<path d="M225.193 261.672C225.262 261.499 225.191 261.306 225.036 261.215C224.978 261.055 224.812 260.954 224.64 260.976C224.438 261.005 224.299 261.191 224.328 261.394C224.367 261.668 224.591 261.827 224.717 261.878C224.761 261.895 224.808 261.905 224.852 261.905C224.997 261.905 225.137 261.818 225.193 261.672Z" fill="#FFDE3B"/>
<path d="M226.153 261.98C226.144 261.964 226.132 261.943 226.126 261.927C226.061 261.735 225.852 261.632 225.658 261.7C225.467 261.766 225.365 261.976 225.432 262.17C225.448 262.217 225.597 262.623 225.91 262.654C225.923 262.656 225.935 262.656 225.949 262.656C226.134 262.656 226.295 262.514 226.314 262.324C226.326 262.184 226.26 262.055 226.153 261.98Z" fill="#FFDE3B"/>
<path d="M224.375 265.667C224.349 265.693 224.328 265.714 224.311 265.732C224.148 265.786 224.042 265.949 224.063 266.126C224.086 266.315 224.243 266.453 224.427 266.453C224.442 266.453 224.456 266.453 224.471 266.451C224.618 266.434 224.732 266.395 224.837 266.255C224.844 266.245 224.856 266.229 224.879 266.208C225.026 266.068 225.034 265.835 224.895 265.685C224.755 265.535 224.522 265.529 224.375 265.667Z" fill="#FFDE3B"/>
<path d="M216.318 264.15C216.165 264.311 216.037 264.597 216.188 264.862C216.256 264.982 216.38 265.05 216.509 265.05C216.571 265.05 216.633 265.035 216.689 265.002C216.822 264.926 216.89 264.778 216.873 264.632C216.991 264.484 216.977 264.269 216.838 264.134C216.691 263.996 216.459 264.002 216.318 264.15Z" fill="#FFDE3B"/>
<path d="M216.885 262.357C216.759 262.32 216.61 262.359 216.515 262.45C216.324 262.635 216.324 263.121 216.343 263.199C216.384 263.368 216.535 263.481 216.699 263.481C216.728 263.481 216.757 263.477 216.786 263.469C216.962 263.426 217.076 263.263 217.064 263.088C217.066 263.049 217.076 262.973 217.086 262.919C217.107 262.886 217.124 262.851 217.136 262.812C217.192 262.616 217.08 262.411 216.885 262.357Z" fill="#FFDE3B"/>
<path d="M217.338 261.365C217.191 261.223 216.959 261.229 216.818 261.377C216.679 261.525 216.683 261.758 216.83 261.9L216.872 261.941C216.944 262.009 217.035 262.044 217.126 262.044C217.222 262.044 217.319 262.005 217.39 261.929C217.53 261.781 217.526 261.548 217.379 261.406L217.338 261.365Z" fill="#FFDE3B"/>
<path d="M215.292 261.989C215.103 261.915 214.89 262.009 214.816 262.199L214.762 262.337C214.689 262.528 214.782 262.742 214.971 262.816C215.016 262.833 215.06 262.841 215.104 262.841C215.251 262.841 215.391 262.751 215.447 262.606L215.501 262.467C215.574 262.277 215.48 262.063 215.292 261.989Z" fill="#FFDE3B"/>
<path d="M216.372 262.18C216.389 262.052 216.428 261.787 216.211 261.643C216.041 261.53 215.813 261.577 215.703 261.746C215.645 261.834 215.629 261.937 215.651 262.032C215.649 262.053 215.645 262.073 215.645 262.077C215.616 262.279 215.757 262.466 215.956 262.495C215.974 262.497 215.991 262.499 216.008 262.499C216.188 262.499 216.347 262.365 216.372 262.18Z" fill="#FFDE3B"/>
<path d="M216.428 261.19C216.631 261.19 216.794 261.042 216.794 260.838C216.797 260.813 216.809 260.774 216.819 260.737C216.854 260.599 216.877 260.508 216.838 260.393C216.774 260.2 216.565 260.095 216.372 260.159C216.227 260.208 216.132 260.34 216.123 260.486C216.119 260.504 216.111 260.527 216.105 260.552C216.076 260.661 216.059 260.733 216.059 260.803C216.063 261.007 216.225 261.19 216.428 261.19Z" fill="#FFDE3B"/>
<path d="M212.45 262.788C212.45 262.866 212.502 263.111 212.529 263.181C212.585 263.323 212.719 263.406 212.864 263.406C212.904 263.406 212.947 263.399 212.987 263.385C213.173 263.321 213.274 263.115 213.218 262.924C213.206 262.885 213.187 262.788 213.181 262.751C213.163 262.564 213.007 262.419 212.815 262.419C212.614 262.419 212.45 262.584 212.45 262.788Z" fill="#FFDE3B"/>
<path d="M213.552 264.772C213.572 264.776 213.591 264.776 213.61 264.776C213.788 264.776 213.945 264.646 213.972 264.465C213.98 264.415 214.003 264.236 213.966 264.078C213.922 263.884 213.734 263.771 213.539 263.81C213.343 263.849 213.218 264.045 213.249 264.242C213.253 264.261 213.249 264.316 213.245 264.351C213.214 264.551 213.351 264.741 213.552 264.772Z" fill="#FFDE3B"/>
<path d="M211.992 263.729C211.847 263.904 211.839 264.258 211.849 264.334C211.876 264.519 212.036 264.666 212.218 264.666C212.233 264.666 212.251 264.664 212.266 264.663C212.467 264.633 212.608 264.462 212.579 264.26C212.579 264.237 212.589 264.176 212.597 264.143C212.68 263.992 212.647 263.797 212.51 263.683C212.351 263.55 212.121 263.572 211.992 263.729Z" fill="#FFDE3B"/>
<path d="M214.836 261.418L214.767 261.21C214.703 261.017 214.496 260.91 214.303 260.976C214.109 261.041 214.007 261.251 214.071 261.443L214.14 261.651C214.193 261.807 214.336 261.904 214.488 261.904C214.527 261.904 214.566 261.898 214.604 261.884C214.796 261.82 214.9 261.61 214.836 261.418Z" fill="#FFDE3B"/>
<path d="M215.785 261.228V261.146C215.785 260.942 215.621 260.777 215.418 260.777C215.215 260.777 215.051 260.942 215.051 261.146V261.228C215.051 261.432 215.215 261.597 215.418 261.597C215.621 261.597 215.785 261.432 215.785 261.228Z" fill="#FFDE3B"/>
<path d="M214.369 260.121C214.421 260.275 214.564 260.37 214.717 260.37C214.756 260.37 214.796 260.364 214.837 260.351C215.028 260.284 215.131 260.074 215.065 259.882L214.995 259.68C214.93 259.487 214.721 259.382 214.529 259.45C214.338 259.516 214.235 259.726 214.301 259.919L214.369 260.121Z" fill="#FFDE3B"/>
<path d="M217.551 262.571C217.603 262.725 217.746 262.82 217.899 262.82C217.937 262.82 217.978 262.814 218.019 262.801C218.21 262.735 218.313 262.525 218.247 262.332L218.177 262.13C218.111 261.937 217.903 261.832 217.711 261.9C217.52 261.967 217.417 262.177 217.483 262.369L217.551 262.571Z" fill="#FFDE3B"/>
<path d="M215.35 259.875C215.402 260.029 215.546 260.124 215.698 260.124C215.737 260.124 215.778 260.118 215.818 260.105C216.01 260.038 216.112 259.828 216.046 259.636L215.977 259.434C215.911 259.241 215.702 259.136 215.511 259.204C215.319 259.27 215.217 259.48 215.283 259.673L215.35 259.875Z" fill="#FFDE3B"/>
<path d="M214.091 260.34L213.959 260.087C213.864 259.907 213.642 259.839 213.462 259.934C213.282 260.029 213.215 260.253 213.309 260.433L213.441 260.686C213.507 260.813 213.634 260.883 213.766 260.883C213.824 260.883 213.882 260.869 213.936 260.84C214.118 260.743 214.185 260.519 214.091 260.34Z" fill="#FFDE3B"/>
<path d="M229.227 263.244C229.095 263.088 228.863 263.071 228.708 263.203C228.554 263.335 228.536 263.569 228.668 263.724L228.761 263.831C228.834 263.917 228.936 263.959 229.039 263.959C229.124 263.959 229.209 263.93 229.277 263.87C229.431 263.738 229.449 263.504 229.317 263.349L229.227 263.244Z" fill="#FFDE3B"/>
<path d="M230.364 262.736C230.364 262.479 230.178 262.329 229.994 262.314C229.724 262.288 229.436 262.592 229.405 262.792C229.372 262.994 229.507 263.183 229.708 263.216C229.727 263.22 229.749 263.22 229.768 263.22C229.873 263.22 229.969 263.175 230.037 263.101C230.221 263.082 230.364 262.926 230.364 262.736Z" fill="#FFDE3B"/>
<path d="M230.374 263.647C230.227 263.597 230.072 263.641 229.938 263.768C229.755 263.941 229.78 264.128 229.799 264.199C229.838 264.343 229.952 264.452 230.105 264.487C230.132 264.493 230.161 264.497 230.188 264.497C230.348 264.497 230.493 264.39 230.54 264.233C230.567 264.199 230.59 264.159 230.604 264.116C230.669 263.923 230.565 263.713 230.374 263.647Z" fill="#FFDE3B"/>
<path d="M230.99 264.405C230.83 264.469 230.723 264.617 230.721 264.782C230.717 264.913 230.785 265.086 230.98 265.175C231.029 265.198 231.081 265.208 231.133 265.208C231.272 265.208 231.406 265.128 231.468 264.992C231.475 264.975 231.481 264.957 231.487 264.94C231.572 264.798 231.553 264.611 231.431 264.491C231.319 264.378 231.145 264.343 230.99 264.405Z" fill="#FFDE3B"/>
<path d="M228.531 261.43C228.604 261.43 228.68 261.407 228.745 261.36C228.91 261.241 228.947 261.01 228.829 260.845C228.817 260.827 228.8 260.802 228.786 260.779C228.782 260.689 228.747 260.602 228.68 260.534C228.537 260.39 228.305 260.39 228.16 260.534C227.982 260.713 228.007 260.961 228.233 261.276C228.305 261.378 228.417 261.43 228.531 261.43Z" fill="#FFDE3B"/>
<path d="M230.207 260.502C230.305 260.502 230.404 260.464 230.476 260.386C230.59 260.263 230.603 260.081 230.522 259.944C230.534 259.771 230.423 259.608 230.251 259.561C230.056 259.507 229.853 259.626 229.801 259.824C229.745 260.036 229.805 260.263 229.957 260.405C230.027 260.469 230.116 260.502 230.207 260.502Z" fill="#FFDE3B"/>
<path d="M230.35 261.061C230.35 261.211 230.448 261.444 230.609 261.561C230.686 261.617 230.773 261.646 230.862 261.646C230.906 261.646 230.951 261.639 230.994 261.625C231.187 261.561 231.291 261.351 231.226 261.158C231.197 261.073 231.14 261.005 231.069 260.96C231.024 260.807 230.883 260.694 230.717 260.694C230.514 260.692 230.35 260.857 230.35 261.061Z" fill="#FFDE3B"/>
<path d="M229.228 261.333C229.259 261.513 229.414 261.642 229.59 261.642C229.609 261.642 229.63 261.64 229.651 261.636C229.851 261.603 229.986 261.412 229.953 261.21C229.953 261.206 229.951 261.193 229.951 261.181C230.023 261.035 229.992 260.854 229.866 260.742C229.715 260.605 229.481 260.619 229.348 260.773C229.191 260.948 229.205 261.198 229.228 261.333Z" fill="#FFDE3B"/>
<path d="M228.743 260.354C228.774 260.535 228.929 260.663 229.105 260.663C229.124 260.663 229.146 260.661 229.167 260.657C229.366 260.624 229.501 260.434 229.469 260.231C229.469 260.227 229.467 260.214 229.467 260.202C229.538 260.056 229.507 259.876 229.382 259.763C229.231 259.627 228.997 259.64 228.863 259.794C228.709 259.969 228.722 260.22 228.743 260.354Z" fill="#FFDE3B"/>
<path d="M228.011 262.56C228.042 262.741 228.197 262.869 228.373 262.869C228.392 262.869 228.414 262.867 228.435 262.863C228.634 262.83 228.769 262.64 228.737 262.438C228.737 262.434 228.735 262.42 228.735 262.408C228.806 262.263 228.775 262.082 228.65 261.969C228.499 261.833 228.265 261.846 228.131 262C227.975 262.175 227.99 262.426 228.011 262.56Z" fill="#FFDE3B"/>
<path d="M227.111 261.339L227.088 261.286C227.003 261.099 226.785 261.018 226.601 261.103C226.417 261.189 226.334 261.407 226.419 261.593L226.444 261.65C226.493 261.76 226.603 262.021 226.914 262.021C227.117 262.021 227.282 261.856 227.282 261.652C227.284 261.519 227.214 261.403 227.111 261.339Z" fill="#FFDE3B"/>
<path d="M225.542 260.388C225.445 260.452 225.374 260.589 225.366 260.703C225.356 260.859 225.424 261.02 225.544 261.123C225.614 261.183 225.699 261.213 225.782 261.213C225.886 261.213 225.989 261.168 226.06 261.084C226.159 260.968 226.174 260.808 226.111 260.678C226.107 260.614 226.087 260.55 226.049 260.493C225.938 260.322 225.712 260.275 225.542 260.388Z" fill="#FFDE3B"/>
<path d="M225.619 259.922C225.694 259.922 225.771 259.899 225.837 259.85C225.951 259.764 226.001 259.628 225.982 259.496C226.003 259.354 225.942 259.206 225.814 259.127C225.642 259.018 225.416 259.072 225.307 259.243C225.189 259.434 225.23 259.646 225.323 259.772C225.394 259.871 225.506 259.922 225.619 259.922Z" fill="#FFDE3B"/>
<path d="M227.466 260.18C227.262 260.18 227.098 260.345 227.098 260.549V260.623C227.098 260.828 227.262 260.993 227.466 260.993C227.669 260.993 227.833 260.828 227.833 260.623V260.549C227.833 260.345 227.669 260.18 227.466 260.18Z" fill="#FFDE3B"/>
<path d="M226.645 260.286C226.848 260.286 227.013 260.12 227.013 259.916V259.78C227.013 259.576 226.848 259.411 226.645 259.411C226.442 259.411 226.278 259.576 226.278 259.78V259.916C226.278 260.12 226.442 260.286 226.645 260.286Z" fill="#FFDE3B"/>
<path d="M228.283 259.498V259.395C228.283 259.191 228.118 259.026 227.915 259.026C227.712 259.026 227.548 259.191 227.548 259.395V259.498C227.548 259.702 227.712 259.868 227.915 259.868C228.118 259.868 228.283 259.702 228.283 259.498Z" fill="#FFDE3B"/>
<path d="M228.914 259.249H228.999C229.202 259.249 229.367 259.084 229.367 258.88C229.367 258.676 229.202 258.51 228.999 258.51H228.914C228.711 258.51 228.547 258.676 228.547 258.88C228.547 259.084 228.711 259.249 228.914 259.249Z" fill="#FFDE3B"/>
<path d="M231.045 259.934C230.871 260.039 230.815 260.267 230.919 260.442L230.989 260.556C231.059 260.671 231.181 260.735 231.304 260.735C231.368 260.735 231.434 260.718 231.494 260.683C231.668 260.578 231.724 260.35 231.619 260.175L231.55 260.061C231.445 259.886 231.219 259.829 231.045 259.934Z" fill="#FFDE3B"/>
<path d="M231.183 259.686C231.256 259.686 231.331 259.665 231.395 259.618L231.449 259.579C231.614 259.461 231.652 259.229 231.534 259.064C231.416 258.899 231.186 258.86 231.022 258.979L230.968 259.018C230.804 259.136 230.765 259.368 230.883 259.533C230.956 259.632 231.068 259.686 231.183 259.686Z" fill="#FFDE3B"/>
<path d="M232.145 259.827C232.226 259.827 232.309 259.799 232.377 259.743L232.499 259.644C232.655 259.516 232.68 259.282 232.553 259.125C232.425 258.965 232.193 258.942 232.037 259.07L231.915 259.169C231.758 259.298 231.733 259.531 231.861 259.689C231.932 259.78 232.039 259.827 232.145 259.827Z" fill="#FFDE3B"/>
<path d="M232.365 259.938C232.162 259.938 231.997 260.103 231.997 260.308V260.401C231.997 260.605 232.162 260.77 232.365 260.77C232.568 260.77 232.732 260.605 232.732 260.401V260.308C232.732 260.105 232.568 259.938 232.365 259.938Z" fill="#FFDE3B"/>
<path d="M183.268 290.86L187.678 297.534C187.714 297.592 187.759 297.627 187.821 297.65C187.9 297.678 187.977 297.691 188.054 297.691H188.678C188.768 297.691 188.787 297.673 188.787 297.58V289.009C188.787 288.917 188.768 288.898 188.678 288.898H187.966C187.875 288.898 187.857 288.917 187.857 289.009V295.593C187.857 295.665 187.857 295.855 187.705 295.901C187.553 295.947 187.451 295.787 187.412 295.727L183.102 289.053C183.066 288.998 183.023 288.961 182.959 288.94C182.88 288.912 182.803 288.898 182.726 288.898H182.002C181.912 288.898 181.894 288.917 181.894 289.009V297.58C181.894 297.673 181.912 297.691 182.002 297.691H182.717C182.807 297.691 182.825 297.673 182.825 297.58V290.997C182.825 290.927 182.825 290.74 182.975 290.693C182.996 290.686 183.014 290.684 183.032 290.684C183.152 290.686 183.234 290.809 183.268 290.86Z" fill="#111111"/>
<path d="M197.507 295.597C197.603 295.533 197.648 295.443 197.648 295.321V291.268C197.648 291.143 197.605 291.058 197.507 290.992L194.344 288.948C194.292 288.915 194.243 288.898 194.198 288.898C194.177 288.898 194.13 288.904 194.043 288.952L190.904 290.992C190.8 291.058 190.755 291.143 190.755 291.268V295.321C190.755 295.445 190.8 295.531 190.904 295.597L194.051 297.641C194.122 297.691 194.181 297.703 194.273 297.68C194.292 297.676 194.312 297.664 194.335 297.647L197.507 295.597ZM194.198 296.801C194.118 296.801 194.041 296.776 193.97 296.728L191.644 295.217C191.497 295.122 191.42 294.976 191.42 294.794V291.795C191.42 291.615 191.497 291.467 191.644 291.372L193.973 289.859C194.166 289.753 194.282 289.77 194.424 289.859L196.765 291.372C196.908 291.469 196.983 291.615 196.983 291.795V294.794C196.983 294.974 196.908 295.12 196.768 295.215L194.425 296.728C194.393 296.753 194.35 296.776 194.305 296.786C194.265 296.796 194.23 296.801 194.198 296.801Z" fill="#111111"/>
<path d="M211.539 288.898C211.453 288.898 211.436 288.917 211.436 289.009V297.58C211.436 297.673 211.453 297.691 211.539 297.691H217.241C217.327 297.691 217.344 297.673 217.344 297.58V296.851C217.344 296.758 217.327 296.739 217.241 296.739H212.73C212.476 296.739 212.326 296.575 212.326 296.304V289.009C212.326 288.917 212.309 288.898 212.223 288.898H211.539Z" fill="#111111"/>
<path d="M244.561 297.691C244.678 297.691 244.752 297.63 244.793 297.5L247.239 290.283C247.263 290.21 247.303 290.11 247.377 290.11C247.45 290.11 247.49 290.21 247.514 290.283L249.951 297.498C249.993 297.63 250.066 297.691 250.183 297.691H250.74C250.788 297.691 250.813 297.678 250.82 297.666C250.825 297.655 250.827 297.619 250.808 297.56L247.884 289.094C247.842 288.959 247.769 288.898 247.652 288.898H247.096C246.979 288.898 246.906 288.959 246.864 289.089V289.091L243.946 297.562C243.928 297.619 243.928 297.655 243.933 297.666C243.939 297.678 243.963 297.691 244.014 297.691H244.561Z" fill="#111111"/>
<path d="M255.676 293.818L258.317 297.548C258.364 297.65 258.44 297.691 258.579 297.691H259.519C259.527 297.691 259.535 297.691 259.543 297.691C259.543 297.689 259.54 297.685 259.54 297.682L256.815 293.837L257.12 293.818C257.471 293.795 257.807 293.714 258.12 293.575C258.432 293.436 258.71 293.253 258.941 293.035C259.172 292.818 259.356 292.563 259.49 292.278C259.621 291.995 259.687 291.689 259.687 291.372C259.687 291.062 259.619 290.754 259.482 290.457C259.346 290.161 259.159 289.892 258.926 289.66C258.695 289.431 258.416 289.246 258.099 289.104C257.786 288.968 257.443 288.898 257.08 288.898H251.935C251.83 288.898 251.809 288.917 251.809 289.009V289.739C251.809 289.832 251.83 289.85 251.935 289.85H257.049C257.285 289.864 257.495 289.915 257.681 290.001C257.868 290.086 258.028 290.2 258.162 290.337C258.29 290.471 258.398 290.626 258.477 290.8C258.556 290.971 258.603 291.157 258.619 291.351V291.363V291.374C258.582 291.773 258.427 292.113 258.162 292.391C257.889 292.679 257.513 292.836 257.051 292.864H252.038C251.967 292.864 251.909 292.88 251.859 292.913C251.833 292.931 251.809 292.954 251.809 293.01V297.578C251.809 297.671 251.83 297.689 251.935 297.689H252.762C252.867 297.689 252.888 297.671 252.888 297.578V294.249C252.888 293.976 253.075 293.814 253.382 293.814H255.676V293.818Z" fill="#111111"/>
<path d="M240.418 293.036C240.592 292.819 240.73 292.564 240.83 292.279C240.928 291.996 240.978 291.69 240.978 291.373C240.978 291.062 240.926 290.754 240.824 290.457C240.722 290.161 240.582 289.892 240.407 289.66C240.233 289.431 240.025 289.246 239.786 289.104C239.55 288.968 239.294 288.898 239.023 288.898H235.164C235.085 288.898 235.069 288.917 235.069 289.009V289.739C235.069 289.832 235.085 289.85 235.164 289.85H238.999C239.176 289.864 239.334 289.915 239.473 290.001C239.613 290.087 239.733 290.2 239.834 290.337C239.93 290.471 240.011 290.627 240.07 290.8C240.129 290.972 240.164 291.157 240.176 291.352V291.363V291.375C240.149 291.774 240.033 292.114 239.834 292.392C239.629 292.68 239.347 292.837 239.001 292.865H235.241C235.187 292.865 235.144 292.881 235.107 292.914C235.087 292.932 235.069 292.955 235.069 293.011V297.58C235.069 297.673 235.085 297.691 235.164 297.691H235.784C235.863 297.691 235.878 297.673 235.878 297.58V294.251C235.878 293.977 236.018 293.815 236.249 293.815L239.052 293.824V293.815C239.316 293.792 239.568 293.711 239.802 293.572C240.037 293.435 240.245 293.254 240.418 293.036Z" fill="#111111"/>
<path d="M261.742 297.691H264.152C264.615 297.691 265.061 297.576 265.473 297.349C265.886 297.122 266.252 296.807 266.561 296.411C266.869 296.017 267.116 295.547 267.295 295.012C267.473 294.479 267.564 293.9 267.564 293.294C267.564 292.828 267.508 292.372 267.397 291.941C267.286 291.508 267.131 291.105 266.932 290.744C266.733 290.383 266.49 290.058 266.209 289.78C265.926 289.503 265.612 289.287 265.274 289.134C264.923 288.977 264.558 288.898 264.187 288.898H261.742C261.67 288.898 261.656 288.917 261.656 289.009V289.739C261.656 289.831 261.67 289.85 261.742 289.85H264.096C264.459 289.882 264.805 289.989 265.133 290.169C265.46 290.35 265.752 290.593 266.001 290.892C266.252 291.193 266.454 291.552 266.603 291.957C266.753 292.367 266.83 292.817 266.83 293.294C266.83 293.764 266.762 294.213 266.629 294.628C266.497 295.042 266.313 295.41 266.078 295.723C265.843 296.036 265.566 296.283 265.253 296.464C264.938 296.647 264.594 296.737 264.236 296.737H262.728C262.517 296.737 262.392 296.573 262.392 296.302V294.861C262.392 294.769 262.377 294.75 262.306 294.75H261.742C261.67 294.75 261.656 294.769 261.656 294.861V297.578C261.656 297.673 261.67 297.691 261.742 297.691Z" fill="#111111"/>
<path d="M175.793 297.397C176.089 297.592 176.41 297.691 176.744 297.691C177.115 297.691 177.43 297.629 177.679 297.506C177.927 297.384 178.134 297.231 178.295 297.048C178.453 296.867 178.574 296.675 178.656 296.476C178.743 296.263 178.809 296.059 178.852 295.872C178.895 295.686 178.92 295.531 178.926 295.411C178.934 295.286 178.939 295.212 178.939 295.186C178.939 294.827 178.903 294.515 178.83 294.263C178.756 294.003 178.663 293.783 178.554 293.605C178.446 293.431 178.325 293.29 178.194 293.191C178.047 293.082 177.905 292.991 177.771 292.927C177.636 292.862 177.515 292.818 177.411 292.795C177.303 292.772 177.224 292.755 177.177 292.746C177.166 292.744 177.156 292.741 177.144 292.739H177.142C176.967 292.69 176.806 292.646 176.661 292.612C176.49 292.568 176.34 292.501 176.217 292.413C176.075 292.311 175.961 292.163 175.879 291.975C175.796 291.783 175.755 291.537 175.755 291.227C175.755 290.776 175.889 290.405 176.141 290.158C176.37 289.933 176.681 289.82 177.068 289.82C177.25 289.829 177.417 289.857 177.572 289.901C177.717 289.952 177.854 290.026 177.988 290.125C178.05 290.171 178.108 290.225 178.161 290.287C178.187 290.317 178.235 290.313 178.271 290.276L178.637 289.88C178.675 289.84 178.68 289.785 178.681 289.755C178.681 289.725 178.677 289.667 178.637 289.623C178.492 289.456 178.328 289.313 178.151 289.197C177.851 288.998 177.529 288.898 177.196 288.898C176.823 288.898 176.508 288.956 176.257 289.072C176.007 289.187 175.799 289.331 175.638 289.498C175.481 289.662 175.36 289.84 175.276 290.033C175.188 290.236 175.123 290.426 175.084 290.597C175.044 290.771 175.021 290.917 175.013 291.028C175.005 291.139 175 291.211 175 291.234C175 291.542 175.033 291.813 175.099 292.035C175.167 292.267 175.253 292.464 175.354 292.626C175.455 292.788 175.57 292.924 175.695 293.029C175.832 293.142 175.965 293.235 176.089 293.304C176.214 293.373 176.326 293.424 176.424 293.452C176.522 293.482 176.593 293.501 176.637 293.51C176.648 293.512 176.659 293.515 176.673 293.519C176.849 293.568 177.019 293.621 177.179 293.674C177.357 293.735 177.516 293.823 177.657 293.931C177.812 294.052 177.936 294.214 178.029 294.413C178.127 294.624 178.176 294.885 178.176 295.196C178.176 295.629 178.053 296.004 177.812 296.316C177.578 296.617 177.259 296.768 176.863 296.768C176.654 296.768 176.47 296.731 176.313 296.659C176.162 296.589 176.036 296.508 175.933 296.42C175.864 296.36 175.805 296.302 175.756 296.242L175.313 296.724C175.275 296.763 175.27 296.819 175.268 296.849C175.268 296.879 175.273 296.937 175.313 296.978C175.456 297.143 175.619 297.284 175.793 297.397Z" fill="#111111"/>
<path d="M202.976 297.034C203.01 297.098 203.07 297.106 203.095 297.106C203.121 297.106 203.181 297.098 203.215 297.032L203.583 296.328C203.604 296.287 203.604 296.241 203.583 296.202L200.313 289.961C200.29 289.916 200.243 289.887 200.193 289.887H199.4C199.331 289.887 199.296 289.934 199.284 289.953C199.273 289.972 199.248 290.027 199.28 290.087L202.976 297.034Z" fill="#111111"/>
<path d="M202.332 289.887C202.263 289.887 202.228 289.934 202.216 289.953C202.205 289.972 202.18 290.025 202.213 290.087L205.776 297.026C205.811 297.094 205.869 297.102 205.896 297.1C205.921 297.1 205.981 297.092 206.016 297.028L209.696 290.089C209.728 290.027 209.703 289.974 209.692 289.955C209.68 289.935 209.645 289.889 209.576 289.889H208.785C208.771 289.889 208.758 289.891 208.748 289.895L205.902 295.545L203.239 289.947C203.214 289.912 203.174 289.891 203.131 289.891H202.332V289.887Z" fill="#111111"/>
<path d="M233.942 295.597C234.038 295.533 234.083 295.443 234.083 295.321V291.268C234.083 291.146 234.038 291.056 233.942 290.992L230.78 288.948C230.727 288.915 230.678 288.898 230.633 288.898C230.612 288.898 230.565 288.904 230.479 288.952L227.339 290.992C227.236 291.058 227.19 291.146 227.19 291.268V295.321C227.19 295.445 227.236 295.531 227.339 295.597L230.486 297.641C230.558 297.691 230.618 297.703 230.708 297.68C230.727 297.676 230.748 297.664 230.771 297.647L233.942 295.597ZM230.633 296.801C230.554 296.801 230.477 296.776 230.405 296.728L228.079 295.217C227.932 295.122 227.855 294.974 227.855 294.794V291.795C227.855 291.615 227.932 291.467 228.079 291.372L230.409 289.859C230.601 289.753 230.718 289.77 230.859 289.859L233.2 291.372C233.343 291.469 233.419 291.615 233.419 291.795V294.794C233.419 294.974 233.343 295.12 233.202 295.215L230.859 296.728C230.827 296.755 230.782 296.776 230.739 296.786C230.697 296.796 230.665 296.801 230.633 296.801Z" fill="#111111"/>
<path d="M220.409 288.898H224.123C224.185 288.898 224.234 288.971 224.234 289.058V289.592C224.234 289.681 224.183 289.752 224.123 289.752H220.409C220.348 289.752 220.298 289.679 220.298 289.592V289.058C220.297 288.969 220.348 288.898 220.409 288.898ZM220.408 292.879H223.57C223.632 292.879 223.681 292.95 223.681 293.039V293.573C223.681 293.662 223.632 293.733 223.57 293.733H220.408C220.346 293.733 220.297 293.662 220.297 293.573V293.039C220.297 292.952 220.348 292.879 220.408 292.879ZM220.409 296.838H224.125C224.187 296.838 224.236 296.911 224.236 296.998V297.532C224.236 297.621 224.185 297.691 224.125 297.691H220.409C220.348 297.691 220.298 297.618 220.298 297.532V296.998C220.297 296.911 220.348 296.838 220.409 296.838Z" fill="#111111"/>
<line x1="230" y1="314" x2="230" y2="354" stroke="url(#paint1_linear_345_249248)" stroke-width="2"/>
<line x1="214" y1="314" x2="214" y2="354" stroke="url(#paint2_linear_345_249248)" stroke-width="2"/>
<rect x="232" y="318" width="12" height="4" transform="rotate(90 232 318)" fill="#3E1BDB"/>
<rect x="216" y="338" width="12" height="4" transform="rotate(90 216 338)" fill="#3E1BDB"/>
<path fill-rule="evenodd" clip-rule="evenodd" d="M184.315 370.09C179.16 370.751 174.937 374.609 173.664 379.82C173.39 380.944 173.309 381.697 173.297 383.257C173.286 384.712 173.285 384.722 173.109 385.125C172.863 385.685 172.428 386.093 171.637 386.504L171 386.835V388.168V389.502L172.68 388.614C173.604 388.125 175.533 387.104 176.967 386.345C178.4 385.586 183.248 383.025 187.738 380.653C192.229 378.281 196.963 375.78 198.259 375.094L200.614 373.847L200.631 372.537C200.64 371.817 200.626 371.227 200.6 371.228C200.573 371.228 194.958 374.184 188.121 377.796C181.285 381.409 175.675 384.347 175.654 384.326C175.633 384.304 175.616 383.682 175.616 382.943C175.616 381.782 175.636 381.503 175.763 380.892C176.445 377.591 178.457 374.897 181.325 373.442C184.12 372.025 187.375 372.009 190.25 373.4L190.857 373.694L192.022 373.09L193.187 372.486L192.881 372.257C190.589 370.548 187.278 369.71 184.315 370.09ZM215.312 373.443C212.807 373.801 210.915 375.105 210.283 376.907C209.896 378.01 209.98 379.447 210.491 380.493C210.998 381.533 211.994 382.392 213.341 382.952C213.986 383.221 214.527 383.371 216.065 383.711C218.196 384.182 219.064 384.485 219.786 385.011C220.57 385.581 220.889 386.212 220.889 387.191C220.888 388.641 220.074 389.61 218.449 390.098C218.001 390.232 217.823 390.247 216.756 390.243C215.402 390.237 214.941 390.147 214.108 389.72C213.045 389.176 212.203 387.983 211.922 386.622L211.886 386.443H210.661H209.437L209.478 386.72C209.613 387.64 210.095 388.867 210.617 389.625C211.948 391.557 214.31 392.593 217.101 392.47C219.106 392.381 220.768 391.748 221.937 390.627C222.621 389.972 223.102 389.158 223.329 388.274C223.496 387.627 223.51 386.415 223.359 385.769C223.122 384.757 222.393 383.711 221.493 383.091C220.527 382.426 219.428 382.023 217.07 381.469C216.206 381.266 215.259 381.027 214.966 380.937C213.862 380.6 213.109 380.038 212.78 379.306C212.636 378.985 212.612 378.847 212.611 378.315C212.61 377.785 212.633 377.647 212.773 377.34C213.089 376.642 213.914 376.035 214.934 375.746C215.451 375.6 216.731 375.546 217.326 375.646C218.975 375.921 220.172 376.818 220.649 378.136L220.761 378.445H221.946C223.294 378.445 223.21 378.491 223.03 377.855C222.514 376.032 221.293 374.654 219.584 373.962C218.664 373.59 217.882 373.438 216.724 373.407C216.189 373.392 215.553 373.409 215.312 373.443ZM245.05 382.932V392.166H246.15H247.249V382.932V373.698H246.15H245.05V382.932ZM249.51 382.932V392.166H250.609H251.708V382.932V373.698H250.609H249.51V382.932ZM226.063 375.041C226.039 375.065 226.02 375.841 226.02 376.765V378.445H224.983H223.947V379.388V380.331H224.979H226.011L226.037 385.159C226.058 389.283 226.077 390.05 226.162 390.419C226.296 391 226.466 391.325 226.78 391.604C227.265 392.034 227.925 392.163 229.649 392.165L230.796 392.166L230.779 391.207L230.762 390.248L229.808 390.215C228.969 390.186 228.834 390.166 228.678 390.047C228.299 389.756 228.314 389.954 228.295 384.933L228.278 380.334L229.52 380.316L230.762 380.298V379.388V378.478L229.522 378.46L228.283 378.442L228.266 376.737L228.249 375.031L227.178 375.013C226.588 375.004 226.087 375.016 226.063 375.041ZM185.823 384.316L171.031 392.133L171.014 393.45C171.005 394.174 171.015 394.767 171.037 394.767C171.06 394.767 172.537 393.995 174.32 393.051C189.903 384.809 195.954 381.629 195.988 381.665C196.011 381.688 196.029 382.312 196.029 383.051C196.029 384.212 196.009 384.491 195.883 385.102C195.2 388.403 193.189 391.097 190.32 392.552C187.522 393.971 184.292 393.985 181.389 392.592L180.767 392.293L179.615 392.903L178.464 393.512L178.767 393.739C179.584 394.347 180.813 394.976 181.925 395.353C187.325 397.183 193.189 395.039 196.328 390.085C197.731 387.872 198.498 384.952 198.352 382.379C198.266 380.876 198.623 380.237 199.949 379.521L200.645 379.145V377.82C200.645 377.091 200.638 376.495 200.63 376.497C200.621 376.498 193.958 380.017 185.823 384.316ZM258.035 378.283C255.684 378.745 254.125 380.327 253.822 382.558L253.789 382.802H254.934H256.079L256.148 382.383C256.407 380.823 257.614 379.973 259.402 380.091C260.705 380.177 261.511 380.776 261.889 381.939C262.001 382.281 262.033 382.531 262.036 383.062L262.04 383.745L261.852 383.763C261.243 383.821 259.223 384.132 258.554 384.271C256.285 384.739 254.999 385.302 254.121 386.211C253.443 386.913 253.22 387.492 253.217 388.559C253.214 389.648 253.498 390.378 254.219 391.133C255.077 392.032 256.288 392.491 257.8 392.49C259.668 392.49 261.099 391.875 261.92 390.72L262.189 390.342L262.222 390.62C262.24 390.773 262.271 391.088 262.291 391.32C262.311 391.553 262.344 391.838 262.364 391.954L262.399 392.166H263.527C264.575 392.166 264.653 392.158 264.62 392.052C264.527 391.749 264.386 390.392 264.332 389.277C264.299 388.595 264.289 387.012 264.31 385.761C264.336 384.235 264.325 383.245 264.276 382.759C264.017 380.147 262.968 378.823 260.78 378.347C260.082 378.195 258.653 378.162 258.035 378.283ZM236.477 378.297C236.104 378.35 235.282 378.588 234.91 378.75C232.95 379.601 231.645 381.366 231.19 383.777C231.063 384.451 231.048 386.062 231.163 386.769C231.415 388.316 231.963 389.555 232.822 390.515C234.35 392.224 236.857 392.892 239.335 392.252C241.111 391.794 242.598 390.468 243.225 388.784C243.331 388.5 243.417 388.253 243.417 388.234C243.417 388.215 242.902 388.2 242.271 388.201L241.125 388.203L240.905 388.6C240.452 389.419 239.819 389.964 239.025 390.22C236.699 390.968 234.398 389.829 233.707 387.586C233.618 387.298 233.53 386.834 233.511 386.557L233.476 386.053H238.541H243.606V385.395C243.606 383.721 243.149 382.081 242.331 380.819C241.973 380.265 241.135 379.434 240.621 379.122C239.616 378.513 238.627 378.246 237.419 378.261C237.005 378.266 236.581 378.282 236.477 378.297ZM271.722 378.448C271.189 378.541 270.594 378.759 270.182 379.012C269.717 379.298 269.089 379.961 268.805 380.466L268.606 380.819L268.605 379.632L268.603 378.445H267.536H266.468V385.305V392.166H267.563H268.659L268.684 387.923C268.705 384.4 268.726 383.611 268.805 383.274C269.055 382.222 269.392 381.643 269.988 381.244C270.523 380.887 270.853 380.818 272.011 380.823L273 380.827V379.604V378.38L272.513 378.388C272.245 378.392 271.89 378.419 271.722 378.448ZM238.502 380.37C239.391 380.61 240.315 381.383 240.765 382.262C240.985 382.691 241.219 383.528 241.219 383.885V384.102H237.349H233.479L233.524 383.731C233.756 381.811 234.975 380.529 236.823 380.261C237.263 380.197 238.051 380.248 238.502 380.37ZM262.241 386.557C262.199 387.628 262.118 388.009 261.784 388.71C261.226 389.88 260.127 390.533 258.531 390.643C257.239 390.733 256.222 390.256 255.832 389.379C255.728 389.146 255.697 388.95 255.697 388.524C255.696 388.038 255.717 387.935 255.869 387.668C256.416 386.703 257.872 386.134 260.815 385.734C261.316 385.666 261.85 385.608 262.002 385.604L262.278 385.598L262.241 386.557Z" fill="#111111"/>
<defs>
<linearGradient id="paint0_linear_345_249248" x1="93.0217" y1="111.5" x2="414.726" y2="379.89" gradientUnits="userSpaceOnUse">
<stop stop-color="#111111" stop-opacity="0"/>
<stop offset="0.547979" stop-color="#111111"/>
<stop offset="1" stop-color="#111111" stop-opacity="0"/>
</linearGradient>
<linearGradient id="paint1_linear_345_249248" x1="229" y1="354" x2="229" y2="314" gradientUnits="userSpaceOnUse">
<stop stop-opacity="0"/>
<stop offset="1"/>
</linearGradient>
<linearGradient id="paint2_linear_345_249248" x1="213" y1="354" x2="213" y2="314" gradientUnits="userSpaceOnUse">
<stop/>
<stop offset="1" stop-opacity="0"/>
</linearGradient>
</defs>
</svg>
